<svg class="railroad-diagram" height="743" viewBox="0 0 804 743" width="804" xmlns="http://www.w3.org/2000/svg" xmlns:xlink="http://www.w3.org/1999/xlink">
<g transform="translate(.5 .5)">
<style>/* <![CDATA[ */
    svg.railroad-diagram {
        background-color:hsl(30,20%,95%);
    }
    svg.railroad-diagram path {
        stroke-width: 2;
        stroke: black;
        fill: none;
    }
    svg.railroad-diagram text {
        font-size: 12pt;
        text-anchor: middle;
        font-family: DejaVu Sans;
    }
    svg.railroad-diagram text.label {
        text-anchor:start;
    }
    svg.railroad-diagram text.comment {
        font-family: DejaVu Sans;
        font-size: 15pt;
    }
    svg.railroad-diagram rect{
        stroke-width: 2;
        stroke:black;
        fill: rgb(210, 255, 210);
    }
    svg.railroad-diagram rect.group-box {
        stroke: gray;
        stroke-dasharray: 10 5;
        fill: none;
    }
    .terminal {
        font-family: DejaVu Sans;
    }

/* ]]> */
</style><g>
<path d="M 20 167 v 20 m 0 -10 h 20"></path></g><path d="M 40 177 h 10"></path><g>
<path d="M 50 177 h 0.0"></path><path d="M 754.0 414 h 0.0"></path><rect class="group-box" height="687" rx="10" ry="10" width="704" x="50.0" y="36"></rect><g>
<path d="M 50.0 177 h 0.0"></path><path d="M 754.0 414 h 0.0"></path><path d="M 50.0 177 h 20"></path><g>
<path d="M 70.0 177 h 0.0"></path><path d="M 70.0 177 h 10"></path><g>
<path d="M 80.0 177 h 59.0"></path><path d="M 665.0 177 h 59.0"></path><rect class="group-box" height="294" rx="10" ry="10" width="526" x="139.0" y="60"></rect><g>
<path d="M 139.0 177 h 10.0"></path><path d="M 655.0 177 h 10.0"></path><g class="terminal ">
<path d="M 149.0 177 h 0.0"></path><path d="M 187.0 177 h 0.0"></path><rect height="22" rx="10" ry="10" width="38" x="149.0" y="166"></rect><text x="168.0" y="181">"\"</text></g><path d="M 187.0 177 h 10"></path><g>
<path d="M 197.0 177 h 0.0"></path><path d="M 655.0 177 h 0.0"></path><path d="M 197.0 177 a 10 10 0 0 0 10 -10 v -89 a 10 10 0 0 1 10 -10 h 312"></path><path d="M 329.0 346 h 306 a 10 10 0 0 0 10 -10 v -149 a 10 10 0 0 1 10 -10"></path><path d="M 197.0 177 h 10"></path><g>
<path d="M 207.0 177 h 0.0"></path><path d="M 309.0 177 h 0.0"></path><path d="M 207.0 177 a 10 10 0 0 0 10 -10 v -10 a 10 10 0 0 1 10 -10"></path><g class="terminal ">
<path d="M 227.0 147 h 9.0"></path><path d="M 280.0 147 h 9.0"></path><rect height="22" rx="10" ry="10" width="44" x="236.0" y="136"></rect><text x="258.0" y="151">"ca"</text></g><path d="M 289.0 147 a 10 10 0 0 1 10 10 v 10 a 10 10 0 0 0 10 10"></path><path d="M 207.0 177 a 10 10 0 0 0 10 -10 v -40 a 10 10 0 0 1 10 -10"></path><g class="terminal ">
<path d="M 227.0 117 h 9.0"></path><path d="M 280.0 117 h 9.0"></path><rect height="22" rx="10" ry="10" width="44" x="236.0" y="106"></rect><text x="258.0" y="121">"vp"</text></g><path d="M 289.0 117 a 10 10 0 0 1 10 10 v 40 a 10 10 0 0 0 10 10"></path><path d="M 207.0 177 a 10 10 0 0 0 10 -10 v -70 a 10 10 0 0 1 10 -10"></path><g class="terminal ">
<path d="M 227.0 87 h 9.0"></path><path d="M 280.0 87 h 9.0"></path><rect height="22" rx="10" ry="10" width="44" x="236.0" y="76"></rect><text x="258.0" y="91">"va"</text></g><path d="M 289.0 87 a 10 10 0 0 1 10 10 v 70 a 10 10 0 0 0 10 10"></path><path d="M 207.0 177 h 20"></path><g class="terminal ">
<path d="M 227.0 177 h 6.0"></path><path d="M 283.0 177 h 6.0"></path><rect height="22" rx="10" ry="10" width="50" x="233.0" y="166"></rect><text x="258.0" y="181">"qac"</text></g><path d="M 289.0 177 h 20"></path><path d="M 207.0 177 a 10 10 0 0 1 10 10 v 10 a 10 10 0 0 0 10 10"></path><g class="terminal ">
<path d="M 227.0 207 h 9.0"></path><path d="M 280.0 207 h 9.0"></path><rect height="22" rx="10" ry="10" width="44" x="236.0" y="196"></rect><text x="258.0" y="211">"qs"</text></g><path d="M 289.0 207 a 10 10 0 0 0 10 -10 v -10 a 10 10 0 0 1 10 -10"></path><path d="M 207.0 177 a 10 10 0 0 1 10 10 v 40 a 10 10 0 0 0 10 10"></path><g class="terminal ">
<path d="M 227.0 237 h 6.0"></path><path d="M 283.0 237 h 6.0"></path><rect height="22" rx="10" ry="10" width="50" x="233.0" y="226"></rect><text x="258.0" y="241">"add"</text></g><path d="M 289.0 237 a 10 10 0 0 0 10 -10 v -40 a 10 10 0 0 1 10 -10"></path><path d="M 207.0 177 a 10 10 0 0 1 10 10 v 70 a 10 10 0 0 0 10 10"></path><g class="terminal ">
<path d="M 227.0 267 h 0.0"></path><path d="M 289.0 267 h 0.0"></path><rect height="22" rx="10" ry="10" width="62" x="227.0" y="256"></rect><text x="258.0" y="271">"addpn"</text></g><path d="M 289.0 267 a 10 10 0 0 0 10 -10 v -70 a 10 10 0 0 1 10 -10"></path><path d="M 207.0 177 a 10 10 0 0 1 10 10 v 100 a 10 10 0 0 0 10 10"></path><g class="terminal ">
<path d="M 227.0 297 h 9.0"></path><path d="M 280.0 297 h 9.0"></path><rect height="22" rx="10" ry="10" width="44" x="236.0" y="286"></rect><text x="258.0" y="301">"bk"</text></g><path d="M 289.0 297 a 10 10 0 0 0 10 -10 v -100 a 10 10 0 0 1 10 -10"></path><path d="M 207.0 177 a 10 10 0 0 1 10 10 v 130 a 10 10 0 0 0 10 10"></path><g class="terminal ">
<path d="M 227.0 327 h 9.0"></path><path d="M 280.0 327 h 9.0"></path><rect height="22" rx="10" ry="10" width="44" x="236.0" y="316"></rect><text x="258.0" y="331">"dc"</text></g><path d="M 289.0 327 a 10 10 0 0 0 10 -10 v -130 a 10 10 0 0 1 10 -10"></path></g><path d="M 309.0 177 a 10 10 0 0 1 10 10 v 149 a 10 10 0 0 0 10 10"></path><path d="M 309.0 68 a 10 10 0 0 1 10 10 v 89 a 10 10 0 0 0 10 10"></path><g>
<path d="M 329.0 177 h 0.0"></path><path d="M 419.0 177 h 0.0"></path><path d="M 329.0 177 a 10 10 0 0 0 10 -10 v -10 a 10 10 0 0 1 10 -10"></path><g class="terminal ">
<path d="M 349.0 147 h 6.0"></path><path d="M 393.0 147 h 6.0"></path><rect height="22" rx="10" ry="10" width="38" x="355.0" y="136"></rect><text x="374.0" y="151">"k"</text></g><path d="M 399.0 147 a 10 10 0 0 1 10 10 v 10 a 10 10 0 0 0 10 10"></path><path d="M 329.0 177 a 10 10 0 0 0 10 -10 v -40 a 10 10 0 0 1 10 -10"></path><g class="terminal ">
<path d="M 349.0 117 h 3.0"></path><path d="M 396.0 117 h 3.0"></path><rect height="22" rx="10" ry="10" width="44" x="352.0" y="106"></rect><text x="374.0" y="121">"fm"</text></g><path d="M 399.0 117 a 10 10 0 0 1 10 10 v 40 a 10 10 0 0 0 10 10"></path><path d="M 329.0 177 a 10 10 0 0 0 10 -10 v -70 a 10 10 0 0 1 10 -10"></path><g class="terminal ">
<path d="M 349.0 87 h 0.0"></path><path d="M 399.0 87 h 0.0"></path><rect height="22" rx="10" ry="10" width="50" x="349.0" y="76"></rect><text x="374.0" y="91">"efm"</text></g><path d="M 399.0 87 a 10 10 0 0 1 10 10 v 70 a 10 10 0 0 0 10 10"></path><path d="M 329.0 177 h 20"></path><g class="terminal ">
<path d="M 349.0 177 h 3.0"></path><path d="M 396.0 177 h 3.0"></path><rect height="22" rx="10" ry="10" width="44" x="352.0" y="166"></rect><text x="374.0" y="181">"nd"</text></g><path d="M 399.0 177 h 20"></path><path d="M 329.0 177 a 10 10 0 0 1 10 10 v 10 a 10 10 0 0 0 10 10"></path><g class="terminal ">
<path d="M 349.0 207 h 0.0"></path><path d="M 399.0 207 h 0.0"></path><rect height="22" rx="10" ry="10" width="50" x="349.0" y="196"></rect><text x="374.0" y="211">"ndx"</text></g><path d="M 399.0 207 a 10 10 0 0 0 10 -10 v -10 a 10 10 0 0 1 10 -10"></path><path d="M 329.0 177 a 10 10 0 0 1 10 10 v 40 a 10 10 0 0 0 10 10"></path><g class="terminal ">
<path d="M 349.0 237 h 0.0"></path><path d="M 399.0 237 h 0.0"></path><rect height="22" rx="10" ry="10" width="50" x="349.0" y="226"></rect><text x="374.0" y="241">"ord"</text></g><path d="M 399.0 237 a 10 10 0 0 0 10 -10 v -40 a 10 10 0 0 1 10 -10"></path><path d="M 329.0 177 a 10 10 0 0 1 10 10 v 70 a 10 10 0 0 0 10 10"></path><g class="terminal ">
<path d="M 349.0 267 h 3.0"></path><path d="M 396.0 267 h 3.0"></path><rect height="22" rx="10" ry="10" width="44" x="352.0" y="256"></rect><text x="374.0" y="271">"pn"</text></g><path d="M 399.0 267 a 10 10 0 0 0 10 -10 v -70 a 10 10 0 0 1 10 -10"></path><path d="M 329.0 177 a 10 10 0 0 1 10 10 v 100 a 10 10 0 0 0 10 10"></path><g class="terminal ">
<path d="M 349.0 297 h 0.0"></path><path d="M 399.0 297 h 0.0"></path><rect height="22" rx="10" ry="10" width="50" x="349.0" y="286"></rect><text x="374.0" y="301">"png"</text></g><path d="M 399.0 297 a 10 10 0 0 0 10 -10 v -100 a 10 10 0 0 1 10 -10"></path><path d="M 329.0 177 a 10 10 0 0 1 10 10 v 130 a 10 10 0 0 0 10 10"></path><g class="terminal ">
<path d="M 349.0 327 h 0.0"></path><path d="M 399.0 327 h 0.0"></path><rect height="22" rx="10" ry="10" width="50" x="349.0" y="316"></rect><text x="374.0" y="331">"pro"</text></g><path d="M 399.0 327 a 10 10 0 0 0 10 -10 v -130 a 10 10 0 0 1 10 -10"></path></g><path d="M 419.0 177 a 10 10 0 0 1 10 10 v 149 a 10 10 0 0 0 10 10"></path><path d="M 419.0 68 a 10 10 0 0 1 10 10 v 89 a 10 10 0 0 0 10 10"></path><g>
<path d="M 439.0 177 h 0.0"></path><path d="M 529.0 177 h 0.0"></path><path d="M 439.0 177 a 10 10 0 0 0 10 -10 v -10 a 10 10 0 0 1 10 -10"></path><g class="terminal ">
<path d="M 459.0 147 h 0.0"></path><path d="M 509.0 147 h 0.0"></path><rect height="22" rx="10" ry="10" width="50" x="459.0" y="136"></rect><text x="484.0" y="151">"sig"</text></g><path d="M 509.0 147 a 10 10 0 0 1 10 10 v 10 a 10 10 0 0 0 10 10"></path><path d="M 439.0 177 a 10 10 0 0 0 10 -10 v -40 a 10 10 0 0 1 10 -10"></path><g class="terminal ">
<path d="M 459.0 117 h 3.0"></path><path d="M 506.0 117 h 3.0"></path><rect height="22" rx="10" ry="10" width="44" x="462.0" y="106"></rect><text x="484.0" y="121">"rq"</text></g><path d="M 509.0 117 a 10 10 0 0 1 10 10 v 40 a 10 10 0 0 0 10 10"></path><path d="M 439.0 177 a 10 10 0 0 0 10 -10 v -70 a 10 10 0 0 1 10 -10"></path><g class="terminal ">
<path d="M 459.0 87 h 3.0"></path><path d="M 506.0 87 h 3.0"></path><rect height="22" rx="10" ry="10" width="44" x="462.0" y="76"></rect><text x="484.0" y="91">"qt"</text></g><path d="M 509.0 87 a 10 10 0 0 1 10 10 v 70 a 10 10 0 0 0 10 10"></path><path d="M 439.0 177 h 20"></path><g class="terminal ">
<path d="M 459.0 177 h 0.0"></path><path d="M 509.0 177 h 0.0"></path><rect height="22" rx="10" ry="10" width="50" x="459.0" y="166"></rect><text x="484.0" y="181">"sls"</text></g><path d="M 509.0 177 h 20"></path><path d="M 439.0 177 a 10 10 0 0 1 10 10 v 10 a 10 10 0 0 0 10 10"></path><g class="terminal ">
<path d="M 459.0 207 h 3.0"></path><path d="M 506.0 207 h 3.0"></path><rect height="22" rx="10" ry="10" width="44" x="462.0" y="196"></rect><text x="484.0" y="211">"tl"</text></g><path d="M 509.0 207 a 10 10 0 0 0 10 -10 v -10 a 10 10 0 0 1 10 -10"></path><path d="M 439.0 177 a 10 10 0 0 1 10 10 v 40 a 10 10 0 0 0 10 10"></path><g class="terminal ">
<path d="M 459.0 237 h 3.0"></path><path d="M 506.0 237 h 3.0"></path><rect height="22" rx="10" ry="10" width="44" x="462.0" y="226"></rect><text x="484.0" y="241">"wg"</text></g><path d="M 509.0 237 a 10 10 0 0 0 10 -10 v -40 a 10 10 0 0 1 10 -10"></path><path d="M 439.0 177 a 10 10 0 0 1 10 10 v 70 a 10 10 0 0 0 10 10"></path><g class="terminal ">
<path d="M 459.0 267 h 3.0"></path><path d="M 506.0 267 h 3.0"></path><rect height="22" rx="10" ry="10" width="44" x="462.0" y="256"></rect><text x="484.0" y="271">"wh"</text></g><path d="M 509.0 267 a 10 10 0 0 0 10 -10 v -70 a 10 10 0 0 1 10 -10"></path><path d="M 439.0 177 a 10 10 0 0 1 10 10 v 100 a 10 10 0 0 0 10 10"></path><g class="terminal ">
<path d="M 459.0 297 h 3.0"></path><path d="M 506.0 297 h 3.0"></path><rect height="22" rx="10" ry="10" width="44" x="462.0" y="286"></rect><text x="484.0" y="301">"wa"</text></g><path d="M 509.0 297 a 10 10 0 0 0 10 -10 v -100 a 10 10 0 0 1 10 -10"></path><path d="M 439.0 177 a 10 10 0 0 1 10 10 v 130 a 10 10 0 0 0 10 10"></path><g class="terminal ">
<path d="M 459.0 327 h 3.0"></path><path d="M 506.0 327 h 3.0"></path><rect height="22" rx="10" ry="10" width="44" x="462.0" y="316"></rect><text x="484.0" y="331">"wj"</text></g><path d="M 509.0 327 a 10 10 0 0 0 10 -10 v -130 a 10 10 0 0 1 10 -10"></path></g><path d="M 529.0 177 a 10 10 0 0 1 10 10 v 149 a 10 10 0 0 0 10 10"></path><path d="M 529.0 68 a 10 10 0 0 1 10 10 v 89 a 10 10 0 0 0 10 10"></path><g>
<path d="M 549.0 177 h 0.0"></path><path d="M 645.0 177 h 0.0"></path><path d="M 549.0 177 a 10 10 0 0 0 10 -10 v -10 a 10 10 0 0 1 10 -10"></path><g class="terminal ">
<path d="M 569.0 147 h 6.0"></path><path d="M 619.0 147 h 6.0"></path><rect height="22" rx="10" ry="10" width="44" x="575.0" y="136"></rect><text x="597.0" y="151">"no"</text></g><path d="M 625.0 147 a 10 10 0 0 1 10 10 v 10 a 10 10 0 0 0 10 10"></path><path d="M 549.0 177 a 10 10 0 0 0 10 -10 v -40 a 10 10 0 0 1 10 -10"></path><g class="terminal ">
<path d="M 569.0 117 h 3.0"></path><path d="M 622.0 117 h 3.0"></path><rect height="22" rx="10" ry="10" width="50" x="572.0" y="106"></rect><text x="597.0" y="121">"jmp"</text></g><path d="M 625.0 117 a 10 10 0 0 1 10 10 v 40 a 10 10 0 0 0 10 10"></path><path d="M 549.0 177 a 10 10 0 0 0 10 -10 v -70 a 10 10 0 0 1 10 -10"></path><g class="terminal ">
<path d="M 569.0 87 h 6.0"></path><path d="M 619.0 87 h 6.0"></path><rect height="22" rx="10" ry="10" width="44" x="575.0" y="76"></rect><text x="597.0" y="91">"xt"</text></g><path d="M 625.0 87 a 10 10 0 0 1 10 10 v 70 a 10 10 0 0 0 10 10"></path><path d="M 549.0 177 h 20"></path><g class="terminal ">
<path d="M 569.0 177 h 6.0"></path><path d="M 619.0 177 h 6.0"></path><rect height="22" rx="10" ry="10" width="44" x="575.0" y="166"></rect><text x="597.0" y="181">"it"</text></g><path d="M 625.0 177 h 20"></path><path d="M 549.0 177 a 10 10 0 0 1 10 10 v 10 a 10 10 0 0 0 10 10"></path><g class="terminal ">
<path d="M 569.0 207 h 6.0"></path><path d="M 619.0 207 h 6.0"></path><rect height="22" rx="10" ry="10" width="44" x="575.0" y="196"></rect><text x="597.0" y="211">"bd"</text></g><path d="M 625.0 207 a 10 10 0 0 0 10 -10 v -10 a 10 10 0 0 1 10 -10"></path><path d="M 549.0 177 a 10 10 0 0 1 10 10 v 40 a 10 10 0 0 0 10 10"></path><g class="terminal ">
<path d="M 569.0 237 h 0.0"></path><path d="M 625.0 237 h 0.0"></path><rect height="22" rx="10" ry="10" width="56" x="569.0" y="226"></rect><text x="597.0" y="241">"bdit"</text></g><path d="M 625.0 237 a 10 10 0 0 0 10 -10 v -40 a 10 10 0 0 1 10 -10"></path><path d="M 549.0 177 a 10 10 0 0 1 10 10 v 70 a 10 10 0 0 0 10 10"></path><g class="terminal ">
<path d="M 569.0 267 h 6.0"></path><path d="M 619.0 267 h 6.0"></path><rect height="22" rx="10" ry="10" width="44" x="575.0" y="256"></rect><text x="597.0" y="271">"em"</text></g><path d="M 625.0 267 a 10 10 0 0 0 10 -10 v -70 a 10 10 0 0 1 10 -10"></path><path d="M 549.0 177 a 10 10 0 0 1 10 10 v 100 a 10 10 0 0 0 10 10"></path><g class="terminal ">
<path d="M 569.0 297 h 6.0"></path><path d="M 619.0 297 h 6.0"></path><rect height="22" rx="10" ry="10" width="44" x="575.0" y="286"></rect><text x="597.0" y="301">"sc"</text></g><path d="M 625.0 297 a 10 10 0 0 0 10 -10 v -100 a 10 10 0 0 1 10 -10"></path><path d="M 549.0 177 a 10 10 0 0 1 10 10 v 130 a 10 10 0 0 0 10 10"></path><g class="terminal ">
<path d="M 569.0 327 h 3.0"></path><path d="M 622.0 327 h 3.0"></path><rect height="22" rx="10" ry="10" width="50" x="572.0" y="316"></rect><text x="597.0" y="331">"sup"</text></g><path d="M 625.0 327 a 10 10 0 0 0 10 -10 v -130 a 10 10 0 0 1 10 -10"></path></g><path d="M 645.0 177 h 10"></path></g></g><g class="non-terminal ">
<path d="M 139.0 52 h 0.0"></path><path d="M 156.0 52 h 0.0"></path><text class="comment" x="147.5" y="57">➊</text></g></g><path d="M 724.0 177 a 10 10 0 0 1 10 10 v 165 a 10 10 0 0 1 -10 10 h -644 a 10 10 0 0 0 -10 10 v 32 a 10 10 0 0 0 10 10"></path><g>
<path d="M 80.0 414 h 10.0"></path><path d="M 714.0 414 h 10.0"></path><g class="terminal ">
<path d="M 90.0 414 h 0.0"></path><path d="M 122.0 414 h 0.0"></path><rect height="22" rx="10" ry="10" width="32" x="90.0" y="403"></rect><text x="106.0" y="418">WS</text></g><path d="M 122.0 414 h 10"></path><path d="M 132.0 414 h 10"></path><g>
<path d="M 142.0 414 h 0.0"></path><path d="M 568.0 414 h 0.0"></path><rect class="group-box" height="237" rx="10" ry="10" width="426" x="142.0" y="386"></rect><g>
<path d="M 142.0 414 h 10.0"></path><path d="M 558.0 414 h 10.0"></path><g class="non-terminal ">
<path d="M 152.0 414 h 0.0"></path><path d="M 226.0 414 h 0.0"></path><rect height="22" width="74" x="152.0" y="403"></rect><text x="189.0" y="418">char.link</text></g><path d="M 226.0 414 h 10"></path><path d="M 236.0 414 h 10"></path><g class="terminal ">
<path d="M 246.0 414 h 0.0"></path><path d="M 290.0 414 h 0.0"></path><rect height="22" rx="10" ry="10" width="44" x="246.0" y="403"></rect><text x="268.0" y="418">Text</text></g><path d="M 290.0 414 h 10"></path><g>
<path d="M 300.0 414 h 0.0"></path><path d="M 558.0 414 h 0.0"></path><path d="M 300.0 414 a 10 10 0 0 0 10 -10 v 0 a 10 10 0 0 1 10 -10"></path><g>
<path d="M 320.0 394 h 218"></path></g><path d="M 538.0 394 a 10 10 0 0 1 10 10 v 0 a 10 10 0 0 0 10 10"></path><path d="M 300.0 414 h 20"></path><g>
<path d="M 320.0 414 h 0.0"></path><path d="M 538.0 414 h 0.0"></path><path d="M 320.0 414 h 10"></path><g>
<path d="M 330.0 414 h 0.0"></path><path d="M 528.0 414 h 0.0"></path><path d="M 330.0 414 h 20"></path><g class="non-terminal ">
<path d="M 350.0 414 h 42.0"></path><path d="M 466.0 414 h 42.0"></path><rect height="22" width="74" x="392.0" y="403"></rect><text x="429.0" y="418">Reference</text></g><path d="M 508.0 414 h 20"></path><path d="M 330.0 414 a 10 10 0 0 1 10 10 v 10 a 10 10 0 0 0 10 10"></path><g class="non-terminal ">
<path d="M 350.0 444 h 42.0"></path><path d="M 466.0 444 h 42.0"></path><rect height="22" width="74" x="392.0" y="433"></rect><text x="429.0" y="448">CharEmbed</text></g><path d="M 508.0 444 a 10 10 0 0 0 10 -10 v -10 a 10 10 0 0 1 10 -10"></path><path d="M 330.0 414 a 10 10 0 0 1 10 10 v 40 a 10 10 0 0 0 10 10"></path><g class="non-terminal ">
<path d="M 350.0 474 h 42.0"></path><path d="M 466.0 474 h 42.0"></path><rect height="22" width="74" x="392.0" y="463"></rect><text x="429.0" y="478">Milestone</text></g><path d="M 508.0 474 a 10 10 0 0 0 10 -10 v -40 a 10 10 0 0 1 10 -10"></path><path d="M 330.0 414 a 10 10 0 0 1 10 10 v 70 a 10 10 0 0 0 10 10"></path><g class="non-terminal ">
<path d="M 350.0 504 h 45.0"></path><path d="M 463.0 504 h 45.0"></path><rect height="22" width="68" x="395.0" y="493"></rect><text x="429.0" y="508">Footnote</text></g><path d="M 508.0 504 a 10 10 0 0 0 10 -10 v -70 a 10 10 0 0 1 10 -10"></path><path d="M 330.0 414 a 10 10 0 0 1 10 10 v 124 a 10 10 0 0 0 10 10"></path><g>
<path d="M 350.0 558 h 0.0"></path><path d="M 508.0 558 h 0.0"></path><rect class="group-box" height="68" rx="10" ry="10" width="158" x="350.0" y="539"></rect><g>
<path d="M 350.0 558 h 10.0"></path><path d="M 498.0 558 h 10.0"></path><g class="terminal ">
<path d="M 360.0 558 h 0.0"></path><path d="M 398.0 558 h 0.0"></path><rect height="22" rx="10" ry="10" width="38" x="360.0" y="547"></rect><text x="379.0" y="562">"\"</text></g><path d="M 398.0 558 h 10"></path><g>
<path d="M 408.0 558 h 0.0"></path><path d="M 498.0 558 h 0.0"></path><path d="M 408.0 558 h 20"></path><g class="terminal ">
<path d="M 428.0 558 h 0.0"></path><path d="M 478.0 558 h 0.0"></path><rect height="22" rx="10" ry="10" width="50" x="428.0" y="547"></rect><text x="453.0" y="562">⇒ "\"</text></g><path d="M 478.0 558 h 20"></path><path d="M 408.0 558 a 10 10 0 0 1 10 10 v 10 a 10 10 0 0 0 10 10"></path><g class="terminal ">
<path d="M 428.0 588 h 9.0"></path><path d="M 469.0 588 h 9.0"></path><rect height="22" rx="10" ry="10" width="32" x="437.0" y="577"></rect><text x="453.0" y="592">WS</text></g><path d="M 478.0 588 a 10 10 0 0 0 10 -10 v -10 a 10 10 0 0 1 10 -10"></path></g></g><g class="non-terminal ">
<path d="M 350.0 531 h 0.0"></path><path d="M 395.0 531 h 0.0"></path><text class="comment" x="372.5" y="536">Break</text></g></g><path d="M 508.0 558 a 10 10 0 0 0 10 -10 v -124 a 10 10 0 0 1 10 -10"></path></g><path d="M 528.0 414 h 10"></path><path d="M 330.0 414 a 10 10 0 0 0 -10 10 v 181 a 10 10 0 0 0 10 10"></path><g>
<path d="M 330.0 615 h 198"></path></g><path d="M 528.0 615 a 10 10 0 0 0 10 -10 v -181 a 10 10 0 0 0 -10 -10"></path></g><path d="M 538.0 414 h 20"></path></g></g><g class="non-terminal ">
<path d="M 142.0 378 h 0.0"></path><path d="M 229.0 378 h 0.0"></path><text class="comment" x="185.5" y="383">CharContent</text></g></g><path d="M 568.0 414 h 10"></path><g>
<path d="M 578.0 414 h 0.0"></path><path d="M 714.0 414 h 0.0"></path><path d="M 578.0 414 h 20"></path><g>
<path d="M 598.0 414 h 96"></path></g><path d="M 694.0 414 h 20"></path><path d="M 578.0 414 a 10 10 0 0 1 10 10 v 0 a 10 10 0 0 0 10 10"></path><g>
<path d="M 598.0 434 h 0.0"></path><path d="M 694.0 434 h 0.0"></path><g class="terminal ">
<path d="M 598.0 434 h 0.0"></path><path d="M 636.0 434 h 0.0"></path><rect height="22" rx="10" ry="10" width="38" x="598.0" y="423"></rect><text x="617.0" y="438">⇐ ➊</text></g><path d="M 636.0 434 h 10"></path><path d="M 646.0 434 h 10"></path><g class="terminal ">
<path d="M 656.0 434 h 0.0"></path><path d="M 694.0 434 h 0.0"></path><rect height="22" rx="10" ry="10" width="38" x="656.0" y="423"></rect><text x="675.0" y="438">"&#42;"</text></g></g><path d="M 694.0 434 a 10 10 0 0 0 10 -10 v 0 a 10 10 0 0 1 10 -10"></path></g></g><path d="M 724.0 414 h 10"></path><path d="M 734.0 414 h 0.0"></path></g><path d="M 734.0 414 h 20"></path><path d="M 50.0 177 a 10 10 0 0 1 10 10 v 469 a 10 10 0 0 0 10 10"></path><g>
<path d="M 70.0 666 h 218.0"></path><path d="M 516.0 666 h 218.0"></path><rect class="group-box" height="68" rx="10" ry="10" width="228" x="288.0" y="647"></rect><g>
<path d="M 288.0 666 h 0.0"></path><path d="M 516.0 666 h 0.0"></path><path d="M 288.0 666 h 20"></path><g class="non-terminal ">
<path d="M 308.0 666 h 3.0"></path><path d="M 493.0 666 h 3.0"></path><rect height="22" width="182" x="311.0" y="655"></rect><text x="402.0" y="670">CharWithAttrib.char.style.w</text></g><path d="M 496.0 666 h 20"></path><path d="M 288.0 666 a 10 10 0 0 1 10 10 v 10 a 10 10 0 0 0 10 10"></path><g class="non-terminal ">
<path d="M 308.0 696 h 0.0"></path><path d="M 496.0 696 h 0.0"></path><rect height="22" width="188" x="308.0" y="685"></rect><text x="402.0" y="700">CharWithAttrib.char.style.rb</text></g><path d="M 496.0 696 a 10 10 0 0 0 10 -10 v -10 a 10 10 0 0 1 10 -10"></path></g><g class="non-terminal ">
<path d="M 288.0 639 h 0.0"></path><path d="M 431.0 639 h 0.0"></path><text class="comment" x="359.5" y="644">CharWithAttrib.enum</text></g></g><path d="M 734.0 666 a 10 10 0 0 0 10 -10 v -232 a 10 10 0 0 1 10 -10"></path></g><g class="non-terminal ">
<path d="M 50.0 28 h 0.0"></path><path d="M 88.0 28 h 0.0"></path><text class="comment" x="69.0" y="33">Char</text></g></g><path d="M 754 414 h 10"></path><path d="M 764 414 h 20 m 0 -10 v 20"></path></g></svg>