<svg class="railroad-diagram" height="533" viewBox="0 0 712 533" width="712" xmlns="http://www.w3.org/2000/svg" xmlns:xlink="http://www.w3.org/1999/xlink">
<g transform="translate(.5 .5)">
<style>/* <![CDATA[ */
    svg.railroad-diagram {
        background-color:hsl(30,20%,95%);
    }
    svg.railroad-diagram path {
        stroke-width: 2;
        stroke: black;
        fill: none;
    }
    svg.railroad-diagram text {
        font-size: 12pt;
        text-anchor: middle;
        font-family: DejaVu Sans;
    }
    svg.railroad-diagram text.label {
        text-anchor:start;
    }
    svg.railroad-diagram text.comment {
        font-family: DejaVu Sans;
        font-size: 15pt;
    }
    svg.railroad-diagram rect{
        stroke-width: 2;
        stroke:black;
        fill: rgb(210, 255, 210);
    }
    svg.railroad-diagram rect.group-box {
        stroke: gray;
        stroke-dasharray: 10 5;
        fill: none;
    }
    .terminal {
        font-family: DejaVu Sans;
    }

/* ]]> */
</style><g>
<path d="M 20 167 v 20 m 0 -10 h 20"></path></g><path d="M 40 177 h 10"></path><g>
<path d="M 50 177 h 0.0"></path><path d="M 662.0 382 h 0.0"></path><rect class="group-box" height="477" rx="10" ry="10" width="612" x="50.0" y="36"></rect><g>
<path d="M 50.0 177 h 0.0"></path><path d="M 662.0 382 h 0.0"></path><path d="M 50.0 177 h 20"></path><g>
<path d="M 70.0 177 h 0.0"></path><path d="M 70.0 177 h 10"></path><g>
<path d="M 80.0 177 h 10.0"></path><path d="M 622.0 177 h 10.0"></path><rect class="group-box" height="294" rx="10" ry="10" width="532" x="90.0" y="60"></rect><g>
<path d="M 90.0 177 h 10.0"></path><path d="M 612.0 177 h 10.0"></path><g class="terminal ">
<path d="M 100.0 177 h 0.0"></path><path d="M 144.0 177 h 0.0"></path><rect height="22" rx="10" ry="10" width="44" x="100.0" y="166"></rect><text x="122.0" y="181">"\+"</text></g><path d="M 144.0 177 h 10"></path><g>
<path d="M 154.0 177 h 0.0"></path><path d="M 612.0 177 h 0.0"></path><path d="M 154.0 177 a 10 10 0 0 0 10 -10 v -89 a 10 10 0 0 1 10 -10 h 312"></path><path d="M 286.0 346 h 306 a 10 10 0 0 0 10 -10 v -149 a 10 10 0 0 1 10 -10"></path><path d="M 154.0 177 h 10"></path><g>
<path d="M 164.0 177 h 0.0"></path><path d="M 266.0 177 h 0.0"></path><path d="M 164.0 177 a 10 10 0 0 0 10 -10 v -10 a 10 10 0 0 1 10 -10"></path><g class="terminal ">
<path d="M 184.0 147 h 9.0"></path><path d="M 237.0 147 h 9.0"></path><rect height="22" rx="10" ry="10" width="44" x="193.0" y="136"></rect><text x="215.0" y="151">"ca"</text></g><path d="M 246.0 147 a 10 10 0 0 1 10 10 v 10 a 10 10 0 0 0 10 10"></path><path d="M 164.0 177 a 10 10 0 0 0 10 -10 v -40 a 10 10 0 0 1 10 -10"></path><g class="terminal ">
<path d="M 184.0 117 h 9.0"></path><path d="M 237.0 117 h 9.0"></path><rect height="22" rx="10" ry="10" width="44" x="193.0" y="106"></rect><text x="215.0" y="121">"vp"</text></g><path d="M 246.0 117 a 10 10 0 0 1 10 10 v 40 a 10 10 0 0 0 10 10"></path><path d="M 164.0 177 a 10 10 0 0 0 10 -10 v -70 a 10 10 0 0 1 10 -10"></path><g class="terminal ">
<path d="M 184.0 87 h 9.0"></path><path d="M 237.0 87 h 9.0"></path><rect height="22" rx="10" ry="10" width="44" x="193.0" y="76"></rect><text x="215.0" y="91">"va"</text></g><path d="M 246.0 87 a 10 10 0 0 1 10 10 v 70 a 10 10 0 0 0 10 10"></path><path d="M 164.0 177 h 20"></path><g class="terminal ">
<path d="M 184.0 177 h 6.0"></path><path d="M 240.0 177 h 6.0"></path><rect height="22" rx="10" ry="10" width="50" x="190.0" y="166"></rect><text x="215.0" y="181">"qac"</text></g><path d="M 246.0 177 h 20"></path><path d="M 164.0 177 a 10 10 0 0 1 10 10 v 10 a 10 10 0 0 0 10 10"></path><g class="terminal ">
<path d="M 184.0 207 h 9.0"></path><path d="M 237.0 207 h 9.0"></path><rect height="22" rx="10" ry="10" width="44" x="193.0" y="196"></rect><text x="215.0" y="211">"qs"</text></g><path d="M 246.0 207 a 10 10 0 0 0 10 -10 v -10 a 10 10 0 0 1 10 -10"></path><path d="M 164.0 177 a 10 10 0 0 1 10 10 v 40 a 10 10 0 0 0 10 10"></path><g class="terminal ">
<path d="M 184.0 237 h 6.0"></path><path d="M 240.0 237 h 6.0"></path><rect height="22" rx="10" ry="10" width="50" x="190.0" y="226"></rect><text x="215.0" y="241">"add"</text></g><path d="M 246.0 237 a 10 10 0 0 0 10 -10 v -40 a 10 10 0 0 1 10 -10"></path><path d="M 164.0 177 a 10 10 0 0 1 10 10 v 70 a 10 10 0 0 0 10 10"></path><g class="terminal ">
<path d="M 184.0 267 h 0.0"></path><path d="M 246.0 267 h 0.0"></path><rect height="22" rx="10" ry="10" width="62" x="184.0" y="256"></rect><text x="215.0" y="271">"addpn"</text></g><path d="M 246.0 267 a 10 10 0 0 0 10 -10 v -70 a 10 10 0 0 1 10 -10"></path><path d="M 164.0 177 a 10 10 0 0 1 10 10 v 100 a 10 10 0 0 0 10 10"></path><g class="terminal ">
<path d="M 184.0 297 h 9.0"></path><path d="M 237.0 297 h 9.0"></path><rect height="22" rx="10" ry="10" width="44" x="193.0" y="286"></rect><text x="215.0" y="301">"bk"</text></g><path d="M 246.0 297 a 10 10 0 0 0 10 -10 v -100 a 10 10 0 0 1 10 -10"></path><path d="M 164.0 177 a 10 10 0 0 1 10 10 v 130 a 10 10 0 0 0 10 10"></path><g class="terminal ">
<path d="M 184.0 327 h 9.0"></path><path d="M 237.0 327 h 9.0"></path><rect height="22" rx="10" ry="10" width="44" x="193.0" y="316"></rect><text x="215.0" y="331">"dc"</text></g><path d="M 246.0 327 a 10 10 0 0 0 10 -10 v -130 a 10 10 0 0 1 10 -10"></path></g><path d="M 266.0 177 a 10 10 0 0 1 10 10 v 149 a 10 10 0 0 0 10 10"></path><path d="M 266.0 68 a 10 10 0 0 1 10 10 v 89 a 10 10 0 0 0 10 10"></path><g>
<path d="M 286.0 177 h 0.0"></path><path d="M 376.0 177 h 0.0"></path><path d="M 286.0 177 a 10 10 0 0 0 10 -10 v -10 a 10 10 0 0 1 10 -10"></path><g class="terminal ">
<path d="M 306.0 147 h 6.0"></path><path d="M 350.0 147 h 6.0"></path><rect height="22" rx="10" ry="10" width="38" x="312.0" y="136"></rect><text x="331.0" y="151">"k"</text></g><path d="M 356.0 147 a 10 10 0 0 1 10 10 v 10 a 10 10 0 0 0 10 10"></path><path d="M 286.0 177 a 10 10 0 0 0 10 -10 v -40 a 10 10 0 0 1 10 -10"></path><g class="terminal ">
<path d="M 306.0 117 h 3.0"></path><path d="M 353.0 117 h 3.0"></path><rect height="22" rx="10" ry="10" width="44" x="309.0" y="106"></rect><text x="331.0" y="121">"fm"</text></g><path d="M 356.0 117 a 10 10 0 0 1 10 10 v 40 a 10 10 0 0 0 10 10"></path><path d="M 286.0 177 a 10 10 0 0 0 10 -10 v -70 a 10 10 0 0 1 10 -10"></path><g class="terminal ">
<path d="M 306.0 87 h 0.0"></path><path d="M 356.0 87 h 0.0"></path><rect height="22" rx="10" ry="10" width="50" x="306.0" y="76"></rect><text x="331.0" y="91">"efm"</text></g><path d="M 356.0 87 a 10 10 0 0 1 10 10 v 70 a 10 10 0 0 0 10 10"></path><path d="M 286.0 177 h 20"></path><g class="terminal ">
<path d="M 306.0 177 h 3.0"></path><path d="M 353.0 177 h 3.0"></path><rect height="22" rx="10" ry="10" width="44" x="309.0" y="166"></rect><text x="331.0" y="181">"nd"</text></g><path d="M 356.0 177 h 20"></path><path d="M 286.0 177 a 10 10 0 0 1 10 10 v 10 a 10 10 0 0 0 10 10"></path><g class="terminal ">
<path d="M 306.0 207 h 0.0"></path><path d="M 356.0 207 h 0.0"></path><rect height="22" rx="10" ry="10" width="50" x="306.0" y="196"></rect><text x="331.0" y="211">"ndx"</text></g><path d="M 356.0 207 a 10 10 0 0 0 10 -10 v -10 a 10 10 0 0 1 10 -10"></path><path d="M 286.0 177 a 10 10 0 0 1 10 10 v 40 a 10 10 0 0 0 10 10"></path><g class="terminal ">
<path d="M 306.0 237 h 0.0"></path><path d="M 356.0 237 h 0.0"></path><rect height="22" rx="10" ry="10" width="50" x="306.0" y="226"></rect><text x="331.0" y="241">"ord"</text></g><path d="M 356.0 237 a 10 10 0 0 0 10 -10 v -40 a 10 10 0 0 1 10 -10"></path><path d="M 286.0 177 a 10 10 0 0 1 10 10 v 70 a 10 10 0 0 0 10 10"></path><g class="terminal ">
<path d="M 306.0 267 h 3.0"></path><path d="M 353.0 267 h 3.0"></path><rect height="22" rx="10" ry="10" width="44" x="309.0" y="256"></rect><text x="331.0" y="271">"pn"</text></g><path d="M 356.0 267 a 10 10 0 0 0 10 -10 v -70 a 10 10 0 0 1 10 -10"></path><path d="M 286.0 177 a 10 10 0 0 1 10 10 v 100 a 10 10 0 0 0 10 10"></path><g class="terminal ">
<path d="M 306.0 297 h 0.0"></path><path d="M 356.0 297 h 0.0"></path><rect height="22" rx="10" ry="10" width="50" x="306.0" y="286"></rect><text x="331.0" y="301">"png"</text></g><path d="M 356.0 297 a 10 10 0 0 0 10 -10 v -100 a 10 10 0 0 1 10 -10"></path><path d="M 286.0 177 a 10 10 0 0 1 10 10 v 130 a 10 10 0 0 0 10 10"></path><g class="terminal ">
<path d="M 306.0 327 h 0.0"></path><path d="M 356.0 327 h 0.0"></path><rect height="22" rx="10" ry="10" width="50" x="306.0" y="316"></rect><text x="331.0" y="331">"pro"</text></g><path d="M 356.0 327 a 10 10 0 0 0 10 -10 v -130 a 10 10 0 0 1 10 -10"></path></g><path d="M 376.0 177 a 10 10 0 0 1 10 10 v 149 a 10 10 0 0 0 10 10"></path><path d="M 376.0 68 a 10 10 0 0 1 10 10 v 89 a 10 10 0 0 0 10 10"></path><g>
<path d="M 396.0 177 h 0.0"></path><path d="M 486.0 177 h 0.0"></path><path d="M 396.0 177 a 10 10 0 0 0 10 -10 v -10 a 10 10 0 0 1 10 -10"></path><g class="terminal ">
<path d="M 416.0 147 h 0.0"></path><path d="M 466.0 147 h 0.0"></path><rect height="22" rx="10" ry="10" width="50" x="416.0" y="136"></rect><text x="441.0" y="151">"sig"</text></g><path d="M 466.0 147 a 10 10 0 0 1 10 10 v 10 a 10 10 0 0 0 10 10"></path><path d="M 396.0 177 a 10 10 0 0 0 10 -10 v -40 a 10 10 0 0 1 10 -10"></path><g class="terminal ">
<path d="M 416.0 117 h 3.0"></path><path d="M 463.0 117 h 3.0"></path><rect height="22" rx="10" ry="10" width="44" x="419.0" y="106"></rect><text x="441.0" y="121">"rq"</text></g><path d="M 466.0 117 a 10 10 0 0 1 10 10 v 40 a 10 10 0 0 0 10 10"></path><path d="M 396.0 177 a 10 10 0 0 0 10 -10 v -70 a 10 10 0 0 1 10 -10"></path><g class="terminal ">
<path d="M 416.0 87 h 3.0"></path><path d="M 463.0 87 h 3.0"></path><rect height="22" rx="10" ry="10" width="44" x="419.0" y="76"></rect><text x="441.0" y="91">"qt"</text></g><path d="M 466.0 87 a 10 10 0 0 1 10 10 v 70 a 10 10 0 0 0 10 10"></path><path d="M 396.0 177 h 20"></path><g class="terminal ">
<path d="M 416.0 177 h 0.0"></path><path d="M 466.0 177 h 0.0"></path><rect height="22" rx="10" ry="10" width="50" x="416.0" y="166"></rect><text x="441.0" y="181">"sls"</text></g><path d="M 466.0 177 h 20"></path><path d="M 396.0 177 a 10 10 0 0 1 10 10 v 10 a 10 10 0 0 0 10 10"></path><g class="terminal ">
<path d="M 416.0 207 h 3.0"></path><path d="M 463.0 207 h 3.0"></path><rect height="22" rx="10" ry="10" width="44" x="419.0" y="196"></rect><text x="441.0" y="211">"tl"</text></g><path d="M 466.0 207 a 10 10 0 0 0 10 -10 v -10 a 10 10 0 0 1 10 -10"></path><path d="M 396.0 177 a 10 10 0 0 1 10 10 v 40 a 10 10 0 0 0 10 10"></path><g class="terminal ">
<path d="M 416.0 237 h 3.0"></path><path d="M 463.0 237 h 3.0"></path><rect height="22" rx="10" ry="10" width="44" x="419.0" y="226"></rect><text x="441.0" y="241">"wg"</text></g><path d="M 466.0 237 a 10 10 0 0 0 10 -10 v -40 a 10 10 0 0 1 10 -10"></path><path d="M 396.0 177 a 10 10 0 0 1 10 10 v 70 a 10 10 0 0 0 10 10"></path><g class="terminal ">
<path d="M 416.0 267 h 3.0"></path><path d="M 463.0 267 h 3.0"></path><rect height="22" rx="10" ry="10" width="44" x="419.0" y="256"></rect><text x="441.0" y="271">"wh"</text></g><path d="M 466.0 267 a 10 10 0 0 0 10 -10 v -70 a 10 10 0 0 1 10 -10"></path><path d="M 396.0 177 a 10 10 0 0 1 10 10 v 100 a 10 10 0 0 0 10 10"></path><g class="terminal ">
<path d="M 416.0 297 h 3.0"></path><path d="M 463.0 297 h 3.0"></path><rect height="22" rx="10" ry="10" width="44" x="419.0" y="286"></rect><text x="441.0" y="301">"wa"</text></g><path d="M 466.0 297 a 10 10 0 0 0 10 -10 v -100 a 10 10 0 0 1 10 -10"></path><path d="M 396.0 177 a 10 10 0 0 1 10 10 v 130 a 10 10 0 0 0 10 10"></path><g class="terminal ">
<path d="M 416.0 327 h 3.0"></path><path d="M 463.0 327 h 3.0"></path><rect height="22" rx="10" ry="10" width="44" x="419.0" y="316"></rect><text x="441.0" y="331">"wj"</text></g><path d="M 466.0 327 a 10 10 0 0 0 10 -10 v -130 a 10 10 0 0 1 10 -10"></path></g><path d="M 486.0 177 a 10 10 0 0 1 10 10 v 149 a 10 10 0 0 0 10 10"></path><path d="M 486.0 68 a 10 10 0 0 1 10 10 v 89 a 10 10 0 0 0 10 10"></path><g>
<path d="M 506.0 177 h 0.0"></path><path d="M 602.0 177 h 0.0"></path><path d="M 506.0 177 a 10 10 0 0 0 10 -10 v -10 a 10 10 0 0 1 10 -10"></path><g class="terminal ">
<path d="M 526.0 147 h 6.0"></path><path d="M 576.0 147 h 6.0"></path><rect height="22" rx="10" ry="10" width="44" x="532.0" y="136"></rect><text x="554.0" y="151">"no"</text></g><path d="M 582.0 147 a 10 10 0 0 1 10 10 v 10 a 10 10 0 0 0 10 10"></path><path d="M 506.0 177 a 10 10 0 0 0 10 -10 v -40 a 10 10 0 0 1 10 -10"></path><g class="terminal ">
<path d="M 526.0 117 h 3.0"></path><path d="M 579.0 117 h 3.0"></path><rect height="22" rx="10" ry="10" width="50" x="529.0" y="106"></rect><text x="554.0" y="121">"jmp"</text></g><path d="M 582.0 117 a 10 10 0 0 1 10 10 v 40 a 10 10 0 0 0 10 10"></path><path d="M 506.0 177 a 10 10 0 0 0 10 -10 v -70 a 10 10 0 0 1 10 -10"></path><g class="terminal ">
<path d="M 526.0 87 h 6.0"></path><path d="M 576.0 87 h 6.0"></path><rect height="22" rx="10" ry="10" width="44" x="532.0" y="76"></rect><text x="554.0" y="91">"xt"</text></g><path d="M 582.0 87 a 10 10 0 0 1 10 10 v 70 a 10 10 0 0 0 10 10"></path><path d="M 506.0 177 h 20"></path><g class="terminal ">
<path d="M 526.0 177 h 6.0"></path><path d="M 576.0 177 h 6.0"></path><rect height="22" rx="10" ry="10" width="44" x="532.0" y="166"></rect><text x="554.0" y="181">"it"</text></g><path d="M 582.0 177 h 20"></path><path d="M 506.0 177 a 10 10 0 0 1 10 10 v 10 a 10 10 0 0 0 10 10"></path><g class="terminal ">
<path d="M 526.0 207 h 6.0"></path><path d="M 576.0 207 h 6.0"></path><rect height="22" rx="10" ry="10" width="44" x="532.0" y="196"></rect><text x="554.0" y="211">"bd"</text></g><path d="M 582.0 207 a 10 10 0 0 0 10 -10 v -10 a 10 10 0 0 1 10 -10"></path><path d="M 506.0 177 a 10 10 0 0 1 10 10 v 40 a 10 10 0 0 0 10 10"></path><g class="terminal ">
<path d="M 526.0 237 h 0.0"></path><path d="M 582.0 237 h 0.0"></path><rect height="22" rx="10" ry="10" width="56" x="526.0" y="226"></rect><text x="554.0" y="241">"bdit"</text></g><path d="M 582.0 237 a 10 10 0 0 0 10 -10 v -40 a 10 10 0 0 1 10 -10"></path><path d="M 506.0 177 a 10 10 0 0 1 10 10 v 70 a 10 10 0 0 0 10 10"></path><g class="terminal ">
<path d="M 526.0 267 h 6.0"></path><path d="M 576.0 267 h 6.0"></path><rect height="22" rx="10" ry="10" width="44" x="532.0" y="256"></rect><text x="554.0" y="271">"em"</text></g><path d="M 582.0 267 a 10 10 0 0 0 10 -10 v -70 a 10 10 0 0 1 10 -10"></path><path d="M 506.0 177 a 10 10 0 0 1 10 10 v 100 a 10 10 0 0 0 10 10"></path><g class="terminal ">
<path d="M 526.0 297 h 6.0"></path><path d="M 576.0 297 h 6.0"></path><rect height="22" rx="10" ry="10" width="44" x="532.0" y="286"></rect><text x="554.0" y="301">"sc"</text></g><path d="M 582.0 297 a 10 10 0 0 0 10 -10 v -100 a 10 10 0 0 1 10 -10"></path><path d="M 506.0 177 a 10 10 0 0 1 10 10 v 130 a 10 10 0 0 0 10 10"></path><g class="terminal ">
<path d="M 526.0 327 h 3.0"></path><path d="M 579.0 327 h 3.0"></path><rect height="22" rx="10" ry="10" width="50" x="529.0" y="316"></rect><text x="554.0" y="331">"sup"</text></g><path d="M 582.0 327 a 10 10 0 0 0 10 -10 v -130 a 10 10 0 0 1 10 -10"></path></g><path d="M 602.0 177 h 10"></path></g></g><g class="non-terminal ">
<path d="M 90.0 52 h 0.0"></path><path d="M 107.0 52 h 0.0"></path><text class="comment" x="98.5" y="57">➊</text></g></g><path d="M 632.0 177 a 10 10 0 0 1 10 10 v 165 a 10 10 0 0 1 -10 10 h -552 a 10 10 0 0 0 -10 10 v 0 a 10 10 0 0 0 10 10"></path><g>
<path d="M 80.0 382 h 134.0"></path><path d="M 498.0 382 h 134.0"></path><g class="terminal ">
<path d="M 214.0 382 h 0.0"></path><path d="M 246.0 382 h 0.0"></path><rect height="22" rx="10" ry="10" width="32" x="214.0" y="371"></rect><text x="230.0" y="386">WS</text></g><path d="M 246.0 382 h 10"></path><path d="M 256.0 382 h 10"></path><g class="non-terminal ">
<path d="M 266.0 382 h 0.0"></path><path d="M 352.0 382 h 0.0"></path><rect height="22" width="86" x="266.0" y="371"></rect><text x="309.0" y="386">CharContent</text></g><path d="M 352.0 382 h 10"></path><g>
<path d="M 362.0 382 h 0.0"></path><path d="M 498.0 382 h 0.0"></path><path d="M 362.0 382 h 20"></path><g>
<path d="M 382.0 382 h 96"></path></g><path d="M 478.0 382 h 20"></path><path d="M 362.0 382 a 10 10 0 0 1 10 10 v 0 a 10 10 0 0 0 10 10"></path><g>
<path d="M 382.0 402 h 0.0"></path><path d="M 478.0 402 h 0.0"></path><g class="terminal ">
<path d="M 382.0 402 h 0.0"></path><path d="M 420.0 402 h 0.0"></path><rect height="22" rx="10" ry="10" width="38" x="382.0" y="391"></rect><text x="401.0" y="406">⇐ ➊</text></g><path d="M 420.0 402 h 10"></path><path d="M 430.0 402 h 10"></path><g class="terminal ">
<path d="M 440.0 402 h 0.0"></path><path d="M 478.0 402 h 0.0"></path><rect height="22" rx="10" ry="10" width="38" x="440.0" y="391"></rect><text x="459.0" y="406">"&#42;"</text></g></g><path d="M 478.0 402 a 10 10 0 0 0 10 -10 v 0 a 10 10 0 0 1 10 -10"></path></g></g><path d="M 632.0 382 h 10"></path><path d="M 642.0 382 h 0.0"></path></g><path d="M 642.0 382 h 20"></path><path d="M 50.0 177 a 10 10 0 0 1 10 10 v 259 a 10 10 0 0 0 10 10"></path><g>
<path d="M 70.0 456 h 172.0"></path><path d="M 470.0 456 h 172.0"></path><rect class="group-box" height="68" rx="10" ry="10" width="228" x="242.0" y="437"></rect><g>
<path d="M 242.0 456 h 0.0"></path><path d="M 470.0 456 h 0.0"></path><path d="M 242.0 456 h 20"></path><g class="non-terminal ">
<path d="M 262.0 456 h 3.0"></path><path d="M 447.0 456 h 3.0"></path><rect height="22" width="182" x="265.0" y="445"></rect><text x="356.0" y="460">CharWithAttrib.char.style.w</text></g><path d="M 450.0 456 h 20"></path><path d="M 242.0 456 a 10 10 0 0 1 10 10 v 10 a 10 10 0 0 0 10 10"></path><g class="non-terminal ">
<path d="M 262.0 486 h 0.0"></path><path d="M 450.0 486 h 0.0"></path><rect height="22" width="188" x="262.0" y="475"></rect><text x="356.0" y="490">CharWithAttrib.char.style.rb</text></g><path d="M 450.0 486 a 10 10 0 0 0 10 -10 v -10 a 10 10 0 0 1 10 -10"></path></g><g class="non-terminal ">
<path d="M 242.0 429 h 0.0"></path><path d="M 385.0 429 h 0.0"></path><text class="comment" x="313.5" y="434">CharWithAttrib.enum</text></g></g><path d="M 642.0 456 a 10 10 0 0 0 10 -10 v -54 a 10 10 0 0 1 10 -10"></path></g><g class="non-terminal ">
<path d="M 50.0 28 h 0.0"></path><path d="M 123.0 28 h 0.0"></path><text class="comment" x="86.5" y="33">CharEmbed</text></g></g><path d="M 662 382 h 10"></path><path d="M 672 382 h 20 m 0 -10 v 20"></path></g></svg>