<svg class="railroad-diagram" height="498" viewBox="0 0 1286 498" width="1286" xmlns="http://www.w3.org/2000/svg" xmlns:xlink="http://www.w3.org/1999/xlink">
<g transform="translate(.5 .5)">
<style>/* <![CDATA[ */
    svg.railroad-diagram {
        background-color:hsl(30,20%,95%);
    }
    svg.railroad-diagram path {
        stroke-width: 2;
        stroke: black;
        fill: none;
    }
    svg.railroad-diagram text {
        font-size: 12pt;
        text-anchor: middle;
        font-family: DejaVu Sans;
    }
    svg.railroad-diagram text.label {
        text-anchor:start;
    }
    svg.railroad-diagram text.comment {
        font-family: DejaVu Sans;
        font-size: 15pt;
    }
    svg.railroad-diagram rect{
        stroke-width: 2;
        stroke:black;
        fill: rgb(210, 255, 210);
    }
    svg.railroad-diagram rect.group-box {
        stroke: gray;
        stroke-dasharray: 10 5;
        fill: none;
    }
    .terminal {
        font-family: DejaVu Sans;
    }

/* ]]> */
</style><g>
<path d="M 20 167 v 20 m 0 -10 h 20"></path></g><path d="M 40 177 h 10"></path><g>
<path d="M 50 177 h 0.0"></path><path d="M 1236.0 177 h 0.0"></path><rect class="group-box" height="442" rx="10" ry="10" width="1186" x="50.0" y="36"></rect><g>
<path d="M 50.0 177 h 0.0"></path><path d="M 1236.0 177 h 0.0"></path><path d="M 50.0 177 h 20"></path><g>
<path d="M 70.0 177 h 0.0"></path><path d="M 1216.0 177 h 0.0"></path><g>
<path d="M 70.0 177 h 0.0"></path><path d="M 648.0 177 h 0.0"></path><g>
<path d="M 70.0 177 h 0.0"></path><path d="M 596.0 177 h 0.0"></path><rect class="group-box" height="294" rx="10" ry="10" width="526" x="70.0" y="60"></rect><g>
<path d="M 70.0 177 h 10.0"></path><path d="M 586.0 177 h 10.0"></path><g class="terminal ">
<path d="M 80.0 177 h 0.0"></path><path d="M 118.0 177 h 0.0"></path><rect height="22" rx="10" ry="10" width="38" x="80.0" y="166"></rect><text x="99.0" y="181">"\"</text></g><path d="M 118.0 177 h 10"></path><g>
<path d="M 128.0 177 h 0.0"></path><path d="M 586.0 177 h 0.0"></path><path d="M 128.0 177 a 10 10 0 0 0 10 -10 v -89 a 10 10 0 0 1 10 -10 h 312"></path><path d="M 260.0 346 h 306 a 10 10 0 0 0 10 -10 v -149 a 10 10 0 0 1 10 -10"></path><path d="M 128.0 177 h 10"></path><g>
<path d="M 138.0 177 h 0.0"></path><path d="M 240.0 177 h 0.0"></path><path d="M 138.0 177 a 10 10 0 0 0 10 -10 v -10 a 10 10 0 0 1 10 -10"></path><g class="terminal ">
<path d="M 158.0 147 h 9.0"></path><path d="M 211.0 147 h 9.0"></path><rect height="22" rx="10" ry="10" width="44" x="167.0" y="136"></rect><text x="189.0" y="151">"ca"</text></g><path d="M 220.0 147 a 10 10 0 0 1 10 10 v 10 a 10 10 0 0 0 10 10"></path><path d="M 138.0 177 a 10 10 0 0 0 10 -10 v -40 a 10 10 0 0 1 10 -10"></path><g class="terminal ">
<path d="M 158.0 117 h 9.0"></path><path d="M 211.0 117 h 9.0"></path><rect height="22" rx="10" ry="10" width="44" x="167.0" y="106"></rect><text x="189.0" y="121">"vp"</text></g><path d="M 220.0 117 a 10 10 0 0 1 10 10 v 40 a 10 10 0 0 0 10 10"></path><path d="M 138.0 177 a 10 10 0 0 0 10 -10 v -70 a 10 10 0 0 1 10 -10"></path><g class="terminal ">
<path d="M 158.0 87 h 9.0"></path><path d="M 211.0 87 h 9.0"></path><rect height="22" rx="10" ry="10" width="44" x="167.0" y="76"></rect><text x="189.0" y="91">"va"</text></g><path d="M 220.0 87 a 10 10 0 0 1 10 10 v 70 a 10 10 0 0 0 10 10"></path><path d="M 138.0 177 h 20"></path><g class="terminal ">
<path d="M 158.0 177 h 6.0"></path><path d="M 214.0 177 h 6.0"></path><rect height="22" rx="10" ry="10" width="50" x="164.0" y="166"></rect><text x="189.0" y="181">"qac"</text></g><path d="M 220.0 177 h 20"></path><path d="M 138.0 177 a 10 10 0 0 1 10 10 v 10 a 10 10 0 0 0 10 10"></path><g class="terminal ">
<path d="M 158.0 207 h 9.0"></path><path d="M 211.0 207 h 9.0"></path><rect height="22" rx="10" ry="10" width="44" x="167.0" y="196"></rect><text x="189.0" y="211">"qs"</text></g><path d="M 220.0 207 a 10 10 0 0 0 10 -10 v -10 a 10 10 0 0 1 10 -10"></path><path d="M 138.0 177 a 10 10 0 0 1 10 10 v 40 a 10 10 0 0 0 10 10"></path><g class="terminal ">
<path d="M 158.0 237 h 6.0"></path><path d="M 214.0 237 h 6.0"></path><rect height="22" rx="10" ry="10" width="50" x="164.0" y="226"></rect><text x="189.0" y="241">"add"</text></g><path d="M 220.0 237 a 10 10 0 0 0 10 -10 v -40 a 10 10 0 0 1 10 -10"></path><path d="M 138.0 177 a 10 10 0 0 1 10 10 v 70 a 10 10 0 0 0 10 10"></path><g class="terminal ">
<path d="M 158.0 267 h 0.0"></path><path d="M 220.0 267 h 0.0"></path><rect height="22" rx="10" ry="10" width="62" x="158.0" y="256"></rect><text x="189.0" y="271">"addpn"</text></g><path d="M 220.0 267 a 10 10 0 0 0 10 -10 v -70 a 10 10 0 0 1 10 -10"></path><path d="M 138.0 177 a 10 10 0 0 1 10 10 v 100 a 10 10 0 0 0 10 10"></path><g class="terminal ">
<path d="M 158.0 297 h 9.0"></path><path d="M 211.0 297 h 9.0"></path><rect height="22" rx="10" ry="10" width="44" x="167.0" y="286"></rect><text x="189.0" y="301">"bk"</text></g><path d="M 220.0 297 a 10 10 0 0 0 10 -10 v -100 a 10 10 0 0 1 10 -10"></path><path d="M 138.0 177 a 10 10 0 0 1 10 10 v 130 a 10 10 0 0 0 10 10"></path><g class="terminal ">
<path d="M 158.0 327 h 9.0"></path><path d="M 211.0 327 h 9.0"></path><rect height="22" rx="10" ry="10" width="44" x="167.0" y="316"></rect><text x="189.0" y="331">"dc"</text></g><path d="M 220.0 327 a 10 10 0 0 0 10 -10 v -130 a 10 10 0 0 1 10 -10"></path></g><path d="M 240.0 177 a 10 10 0 0 1 10 10 v 149 a 10 10 0 0 0 10 10"></path><path d="M 240.0 68 a 10 10 0 0 1 10 10 v 89 a 10 10 0 0 0 10 10"></path><g>
<path d="M 260.0 177 h 0.0"></path><path d="M 350.0 177 h 0.0"></path><path d="M 260.0 177 a 10 10 0 0 0 10 -10 v -10 a 10 10 0 0 1 10 -10"></path><g class="terminal ">
<path d="M 280.0 147 h 6.0"></path><path d="M 324.0 147 h 6.0"></path><rect height="22" rx="10" ry="10" width="38" x="286.0" y="136"></rect><text x="305.0" y="151">"k"</text></g><path d="M 330.0 147 a 10 10 0 0 1 10 10 v 10 a 10 10 0 0 0 10 10"></path><path d="M 260.0 177 a 10 10 0 0 0 10 -10 v -40 a 10 10 0 0 1 10 -10"></path><g class="terminal ">
<path d="M 280.0 117 h 3.0"></path><path d="M 327.0 117 h 3.0"></path><rect height="22" rx="10" ry="10" width="44" x="283.0" y="106"></rect><text x="305.0" y="121">"fm"</text></g><path d="M 330.0 117 a 10 10 0 0 1 10 10 v 40 a 10 10 0 0 0 10 10"></path><path d="M 260.0 177 a 10 10 0 0 0 10 -10 v -70 a 10 10 0 0 1 10 -10"></path><g class="terminal ">
<path d="M 280.0 87 h 0.0"></path><path d="M 330.0 87 h 0.0"></path><rect height="22" rx="10" ry="10" width="50" x="280.0" y="76"></rect><text x="305.0" y="91">"efm"</text></g><path d="M 330.0 87 a 10 10 0 0 1 10 10 v 70 a 10 10 0 0 0 10 10"></path><path d="M 260.0 177 h 20"></path><g class="terminal ">
<path d="M 280.0 177 h 3.0"></path><path d="M 327.0 177 h 3.0"></path><rect height="22" rx="10" ry="10" width="44" x="283.0" y="166"></rect><text x="305.0" y="181">"nd"</text></g><path d="M 330.0 177 h 20"></path><path d="M 260.0 177 a 10 10 0 0 1 10 10 v 10 a 10 10 0 0 0 10 10"></path><g class="terminal ">
<path d="M 280.0 207 h 0.0"></path><path d="M 330.0 207 h 0.0"></path><rect height="22" rx="10" ry="10" width="50" x="280.0" y="196"></rect><text x="305.0" y="211">"ndx"</text></g><path d="M 330.0 207 a 10 10 0 0 0 10 -10 v -10 a 10 10 0 0 1 10 -10"></path><path d="M 260.0 177 a 10 10 0 0 1 10 10 v 40 a 10 10 0 0 0 10 10"></path><g class="terminal ">
<path d="M 280.0 237 h 0.0"></path><path d="M 330.0 237 h 0.0"></path><rect height="22" rx="10" ry="10" width="50" x="280.0" y="226"></rect><text x="305.0" y="241">"ord"</text></g><path d="M 330.0 237 a 10 10 0 0 0 10 -10 v -40 a 10 10 0 0 1 10 -10"></path><path d="M 260.0 177 a 10 10 0 0 1 10 10 v 70 a 10 10 0 0 0 10 10"></path><g class="terminal ">
<path d="M 280.0 267 h 3.0"></path><path d="M 327.0 267 h 3.0"></path><rect height="22" rx="10" ry="10" width="44" x="283.0" y="256"></rect><text x="305.0" y="271">"pn"</text></g><path d="M 330.0 267 a 10 10 0 0 0 10 -10 v -70 a 10 10 0 0 1 10 -10"></path><path d="M 260.0 177 a 10 10 0 0 1 10 10 v 100 a 10 10 0 0 0 10 10"></path><g class="terminal ">
<path d="M 280.0 297 h 0.0"></path><path d="M 330.0 297 h 0.0"></path><rect height="22" rx="10" ry="10" width="50" x="280.0" y="286"></rect><text x="305.0" y="301">"png"</text></g><path d="M 330.0 297 a 10 10 0 0 0 10 -10 v -100 a 10 10 0 0 1 10 -10"></path><path d="M 260.0 177 a 10 10 0 0 1 10 10 v 130 a 10 10 0 0 0 10 10"></path><g class="terminal ">
<path d="M 280.0 327 h 0.0"></path><path d="M 330.0 327 h 0.0"></path><rect height="22" rx="10" ry="10" width="50" x="280.0" y="316"></rect><text x="305.0" y="331">"pro"</text></g><path d="M 330.0 327 a 10 10 0 0 0 10 -10 v -130 a 10 10 0 0 1 10 -10"></path></g><path d="M 350.0 177 a 10 10 0 0 1 10 10 v 149 a 10 10 0 0 0 10 10"></path><path d="M 350.0 68 a 10 10 0 0 1 10 10 v 89 a 10 10 0 0 0 10 10"></path><g>
<path d="M 370.0 177 h 0.0"></path><path d="M 460.0 177 h 0.0"></path><path d="M 370.0 177 a 10 10 0 0 0 10 -10 v -10 a 10 10 0 0 1 10 -10"></path><g class="terminal ">
<path d="M 390.0 147 h 0.0"></path><path d="M 440.0 147 h 0.0"></path><rect height="22" rx="10" ry="10" width="50" x="390.0" y="136"></rect><text x="415.0" y="151">"sig"</text></g><path d="M 440.0 147 a 10 10 0 0 1 10 10 v 10 a 10 10 0 0 0 10 10"></path><path d="M 370.0 177 a 10 10 0 0 0 10 -10 v -40 a 10 10 0 0 1 10 -10"></path><g class="terminal ">
<path d="M 390.0 117 h 3.0"></path><path d="M 437.0 117 h 3.0"></path><rect height="22" rx="10" ry="10" width="44" x="393.0" y="106"></rect><text x="415.0" y="121">"rq"</text></g><path d="M 440.0 117 a 10 10 0 0 1 10 10 v 40 a 10 10 0 0 0 10 10"></path><path d="M 370.0 177 a 10 10 0 0 0 10 -10 v -70 a 10 10 0 0 1 10 -10"></path><g class="terminal ">
<path d="M 390.0 87 h 3.0"></path><path d="M 437.0 87 h 3.0"></path><rect height="22" rx="10" ry="10" width="44" x="393.0" y="76"></rect><text x="415.0" y="91">"qt"</text></g><path d="M 440.0 87 a 10 10 0 0 1 10 10 v 70 a 10 10 0 0 0 10 10"></path><path d="M 370.0 177 h 20"></path><g class="terminal ">
<path d="M 390.0 177 h 0.0"></path><path d="M 440.0 177 h 0.0"></path><rect height="22" rx="10" ry="10" width="50" x="390.0" y="166"></rect><text x="415.0" y="181">"sls"</text></g><path d="M 440.0 177 h 20"></path><path d="M 370.0 177 a 10 10 0 0 1 10 10 v 10 a 10 10 0 0 0 10 10"></path><g class="terminal ">
<path d="M 390.0 207 h 3.0"></path><path d="M 437.0 207 h 3.0"></path><rect height="22" rx="10" ry="10" width="44" x="393.0" y="196"></rect><text x="415.0" y="211">"tl"</text></g><path d="M 440.0 207 a 10 10 0 0 0 10 -10 v -10 a 10 10 0 0 1 10 -10"></path><path d="M 370.0 177 a 10 10 0 0 1 10 10 v 40 a 10 10 0 0 0 10 10"></path><g class="terminal ">
<path d="M 390.0 237 h 3.0"></path><path d="M 437.0 237 h 3.0"></path><rect height="22" rx="10" ry="10" width="44" x="393.0" y="226"></rect><text x="415.0" y="241">"wg"</text></g><path d="M 440.0 237 a 10 10 0 0 0 10 -10 v -40 a 10 10 0 0 1 10 -10"></path><path d="M 370.0 177 a 10 10 0 0 1 10 10 v 70 a 10 10 0 0 0 10 10"></path><g class="terminal ">
<path d="M 390.0 267 h 3.0"></path><path d="M 437.0 267 h 3.0"></path><rect height="22" rx="10" ry="10" width="44" x="393.0" y="256"></rect><text x="415.0" y="271">"wh"</text></g><path d="M 440.0 267 a 10 10 0 0 0 10 -10 v -70 a 10 10 0 0 1 10 -10"></path><path d="M 370.0 177 a 10 10 0 0 1 10 10 v 100 a 10 10 0 0 0 10 10"></path><g class="terminal ">
<path d="M 390.0 297 h 3.0"></path><path d="M 437.0 297 h 3.0"></path><rect height="22" rx="10" ry="10" width="44" x="393.0" y="286"></rect><text x="415.0" y="301">"wa"</text></g><path d="M 440.0 297 a 10 10 0 0 0 10 -10 v -100 a 10 10 0 0 1 10 -10"></path><path d="M 370.0 177 a 10 10 0 0 1 10 10 v 130 a 10 10 0 0 0 10 10"></path><g class="terminal ">
<path d="M 390.0 327 h 3.0"></path><path d="M 437.0 327 h 3.0"></path><rect height="22" rx="10" ry="10" width="44" x="393.0" y="316"></rect><text x="415.0" y="331">"wj"</text></g><path d="M 440.0 327 a 10 10 0 0 0 10 -10 v -130 a 10 10 0 0 1 10 -10"></path></g><path d="M 460.0 177 a 10 10 0 0 1 10 10 v 149 a 10 10 0 0 0 10 10"></path><path d="M 460.0 68 a 10 10 0 0 1 10 10 v 89 a 10 10 0 0 0 10 10"></path><g>
<path d="M 480.0 177 h 0.0"></path><path d="M 576.0 177 h 0.0"></path><path d="M 480.0 177 a 10 10 0 0 0 10 -10 v -10 a 10 10 0 0 1 10 -10"></path><g class="terminal ">
<path d="M 500.0 147 h 6.0"></path><path d="M 550.0 147 h 6.0"></path><rect height="22" rx="10" ry="10" width="44" x="506.0" y="136"></rect><text x="528.0" y="151">"no"</text></g><path d="M 556.0 147 a 10 10 0 0 1 10 10 v 10 a 10 10 0 0 0 10 10"></path><path d="M 480.0 177 a 10 10 0 0 0 10 -10 v -40 a 10 10 0 0 1 10 -10"></path><g class="terminal ">
<path d="M 500.0 117 h 3.0"></path><path d="M 553.0 117 h 3.0"></path><rect height="22" rx="10" ry="10" width="50" x="503.0" y="106"></rect><text x="528.0" y="121">"jmp"</text></g><path d="M 556.0 117 a 10 10 0 0 1 10 10 v 40 a 10 10 0 0 0 10 10"></path><path d="M 480.0 177 a 10 10 0 0 0 10 -10 v -70 a 10 10 0 0 1 10 -10"></path><g class="terminal ">
<path d="M 500.0 87 h 6.0"></path><path d="M 550.0 87 h 6.0"></path><rect height="22" rx="10" ry="10" width="44" x="506.0" y="76"></rect><text x="528.0" y="91">"xt"</text></g><path d="M 556.0 87 a 10 10 0 0 1 10 10 v 70 a 10 10 0 0 0 10 10"></path><path d="M 480.0 177 h 20"></path><g class="terminal ">
<path d="M 500.0 177 h 6.0"></path><path d="M 550.0 177 h 6.0"></path><rect height="22" rx="10" ry="10" width="44" x="506.0" y="166"></rect><text x="528.0" y="181">"it"</text></g><path d="M 556.0 177 h 20"></path><path d="M 480.0 177 a 10 10 0 0 1 10 10 v 10 a 10 10 0 0 0 10 10"></path><g class="terminal ">
<path d="M 500.0 207 h 6.0"></path><path d="M 550.0 207 h 6.0"></path><rect height="22" rx="10" ry="10" width="44" x="506.0" y="196"></rect><text x="528.0" y="211">"bd"</text></g><path d="M 556.0 207 a 10 10 0 0 0 10 -10 v -10 a 10 10 0 0 1 10 -10"></path><path d="M 480.0 177 a 10 10 0 0 1 10 10 v 40 a 10 10 0 0 0 10 10"></path><g class="terminal ">
<path d="M 500.0 237 h 0.0"></path><path d="M 556.0 237 h 0.0"></path><rect height="22" rx="10" ry="10" width="56" x="500.0" y="226"></rect><text x="528.0" y="241">"bdit"</text></g><path d="M 556.0 237 a 10 10 0 0 0 10 -10 v -40 a 10 10 0 0 1 10 -10"></path><path d="M 480.0 177 a 10 10 0 0 1 10 10 v 70 a 10 10 0 0 0 10 10"></path><g class="terminal ">
<path d="M 500.0 267 h 6.0"></path><path d="M 550.0 267 h 6.0"></path><rect height="22" rx="10" ry="10" width="44" x="506.0" y="256"></rect><text x="528.0" y="271">"em"</text></g><path d="M 556.0 267 a 10 10 0 0 0 10 -10 v -70 a 10 10 0 0 1 10 -10"></path><path d="M 480.0 177 a 10 10 0 0 1 10 10 v 100 a 10 10 0 0 0 10 10"></path><g class="terminal ">
<path d="M 500.0 297 h 6.0"></path><path d="M 550.0 297 h 6.0"></path><rect height="22" rx="10" ry="10" width="44" x="506.0" y="286"></rect><text x="528.0" y="301">"sc"</text></g><path d="M 556.0 297 a 10 10 0 0 0 10 -10 v -100 a 10 10 0 0 1 10 -10"></path><path d="M 480.0 177 a 10 10 0 0 1 10 10 v 130 a 10 10 0 0 0 10 10"></path><g class="terminal ">
<path d="M 500.0 327 h 3.0"></path><path d="M 553.0 327 h 3.0"></path><rect height="22" rx="10" ry="10" width="50" x="503.0" y="316"></rect><text x="528.0" y="331">"sup"</text></g><path d="M 556.0 327 a 10 10 0 0 0 10 -10 v -130 a 10 10 0 0 1 10 -10"></path></g><path d="M 576.0 177 h 10"></path></g></g><g class="non-terminal ">
<path d="M 70.0 52 h 0.0"></path><path d="M 87.0 52 h 0.0"></path><text class="comment" x="78.5" y="57">➊</text></g></g><path d="M 596.0 177 h 10"></path><path d="M 606.0 177 h 10"></path><g class="terminal ">
<path d="M 616.0 177 h 0.0"></path><path d="M 648.0 177 h 0.0"></path><rect height="22" rx="10" ry="10" width="32" x="616.0" y="166"></rect><text x="632.0" y="181">WS</text></g></g><path d="M 648.0 177 h 10"></path><path d="M 658.0 177 h 10"></path><g class="terminal ">
<path d="M 668.0 177 h 0.0"></path><path d="M 712.0 177 h 0.0"></path><rect height="22" rx="10" ry="10" width="44" x="668.0" y="166"></rect><text x="690.0" y="181">Text</text></g><path d="M 712.0 177 h 10"></path><g>
<path d="M 722.0 177 h 0.0"></path><path d="M 986.0 177 h 0.0"></path><path d="M 722.0 177 a 10 10 0 0 0 10 -10 v 0 a 10 10 0 0 1 10 -10"></path><g>
<path d="M 742.0 157 h 224"></path></g><path d="M 966.0 157 a 10 10 0 0 1 10 10 v 0 a 10 10 0 0 0 10 10"></path><path d="M 722.0 177 h 20"></path><g>
<path d="M 742.0 177 h 0.0"></path><path d="M 966.0 177 h 0.0"></path><path d="M 742.0 177 h 10"></path><g>
<path d="M 752.0 177 h 0.0"></path><path d="M 956.0 177 h 0.0"></path><path d="M 752.0 177 h 20"></path><g class="non-terminal ">
<path d="M 772.0 177 h 45.0"></path><path d="M 891.0 177 h 45.0"></path><rect height="22" width="74" x="817.0" y="166"></rect><text x="854.0" y="181">Reference</text></g><path d="M 936.0 177 h 20"></path><path d="M 752.0 177 a 10 10 0 0 1 10 10 v 10 a 10 10 0 0 0 10 10"></path><g class="non-terminal ">
<path d="M 772.0 207 h 60.0"></path><path d="M 876.0 207 h 60.0"></path><rect height="22" width="44" x="832.0" y="196"></rect><text x="854.0" y="211">Char</text></g><path d="M 936.0 207 a 10 10 0 0 0 10 -10 v -10 a 10 10 0 0 1 10 -10"></path><path d="M 752.0 177 a 10 10 0 0 1 10 10 v 40 a 10 10 0 0 0 10 10"></path><g class="non-terminal ">
<path d="M 772.0 237 h 45.0"></path><path d="M 891.0 237 h 45.0"></path><rect height="22" width="74" x="817.0" y="226"></rect><text x="854.0" y="241">Milestone</text></g><path d="M 936.0 237 a 10 10 0 0 0 10 -10 v -40 a 10 10 0 0 1 10 -10"></path><path d="M 752.0 177 a 10 10 0 0 1 10 10 v 70 a 10 10 0 0 0 10 10"></path><g class="non-terminal ">
<path d="M 772.0 267 h 48.0"></path><path d="M 888.0 267 h 48.0"></path><rect height="22" width="68" x="820.0" y="256"></rect><text x="854.0" y="271">Footnote</text></g><path d="M 936.0 267 a 10 10 0 0 0 10 -10 v -70 a 10 10 0 0 1 10 -10"></path><path d="M 752.0 177 a 10 10 0 0 1 10 10 v 124 a 10 10 0 0 0 10 10"></path><g>
<path d="M 772.0 321 h 0.0"></path><path d="M 936.0 321 h 0.0"></path><rect class="group-box" height="68" rx="10" ry="10" width="164" x="772.0" y="302"></rect><g>
<path d="M 772.0 321 h 10.0"></path><path d="M 926.0 321 h 10.0"></path><g class="terminal ">
<path d="M 782.0 321 h 0.0"></path><path d="M 826.0 321 h 0.0"></path><rect height="22" rx="10" ry="10" width="44" x="782.0" y="310"></rect><text x="804.0" y="325">"\b"</text></g><path d="M 826.0 321 h 10"></path><g>
<path d="M 836.0 321 h 0.0"></path><path d="M 926.0 321 h 0.0"></path><path d="M 836.0 321 h 20"></path><g class="terminal ">
<path d="M 856.0 321 h 0.0"></path><path d="M 906.0 321 h 0.0"></path><rect height="22" rx="10" ry="10" width="50" x="856.0" y="310"></rect><text x="881.0" y="325">⇒ "\"</text></g><path d="M 906.0 321 h 20"></path><path d="M 836.0 321 a 10 10 0 0 1 10 10 v 10 a 10 10 0 0 0 10 10"></path><g class="terminal ">
<path d="M 856.0 351 h 9.0"></path><path d="M 897.0 351 h 9.0"></path><rect height="22" rx="10" ry="10" width="32" x="865.0" y="340"></rect><text x="881.0" y="355">WS</text></g><path d="M 906.0 351 a 10 10 0 0 0 10 -10 v -10 a 10 10 0 0 1 10 -10"></path></g></g><g class="non-terminal ">
<path d="M 772.0 294 h 0.0"></path><path d="M 817.0 294 h 0.0"></path><text class="comment" x="794.5" y="299">Break</text></g></g><path d="M 936.0 321 a 10 10 0 0 0 10 -10 v -124 a 10 10 0 0 1 10 -10"></path></g><path d="M 956.0 177 h 10"></path><path d="M 752.0 177 a 10 10 0 0 0 -10 10 v 181 a 10 10 0 0 0 10 10"></path><g>
<path d="M 752.0 378 h 204"></path></g><path d="M 956.0 378 a 10 10 0 0 0 10 -10 v -181 a 10 10 0 0 0 -10 -10"></path></g><path d="M 966.0 177 h 20"></path></g><path d="M 986.0 177 h 10"></path><g class="non-terminal ">
<path d="M 996.0 177 h 0.0"></path><path d="M 1070.0 177 h 0.0"></path><rect height="22" width="74" x="996.0" y="166"></rect><text x="1033.0" y="181">char.link</text></g><path d="M 1070.0 177 h 10"></path><g>
<path d="M 1080.0 177 h 0.0"></path><path d="M 1216.0 177 h 0.0"></path><path d="M 1080.0 177 h 20"></path><g>
<path d="M 1100.0 177 h 96"></path></g><path d="M 1196.0 177 h 20"></path><path d="M 1080.0 177 a 10 10 0 0 1 10 10 v 0 a 10 10 0 0 0 10 10"></path><g>
<path d="M 1100.0 197 h 0.0"></path><path d="M 1196.0 197 h 0.0"></path><g class="terminal ">
<path d="M 1100.0 197 h 0.0"></path><path d="M 1138.0 197 h 0.0"></path><rect height="22" rx="10" ry="10" width="38" x="1100.0" y="186"></rect><text x="1119.0" y="201">⇐ ➊</text></g><path d="M 1138.0 197 h 10"></path><path d="M 1148.0 197 h 10"></path><g class="terminal ">
<path d="M 1158.0 197 h 0.0"></path><path d="M 1196.0 197 h 0.0"></path><rect height="22" rx="10" ry="10" width="38" x="1158.0" y="186"></rect><text x="1177.0" y="201">"&#42;"</text></g></g><path d="M 1196.0 197 a 10 10 0 0 0 10 -10 v 0 a 10 10 0 0 1 10 -10"></path></g></g><path d="M 1216.0 177 h 20"></path><path d="M 50.0 177 a 10 10 0 0 1 10 10 v 224 a 10 10 0 0 0 10 10"></path><g>
<path d="M 70.0 421 h 459.0"></path><path d="M 757.0 421 h 459.0"></path><rect class="group-box" height="68" rx="10" ry="10" width="228" x="529.0" y="402"></rect><g>
<path d="M 529.0 421 h 0.0"></path><path d="M 757.0 421 h 0.0"></path><path d="M 529.0 421 h 20"></path><g class="non-terminal ">
<path d="M 549.0 421 h 3.0"></path><path d="M 734.0 421 h 3.0"></path><rect height="22" width="182" x="552.0" y="410"></rect><text x="643.0" y="425">CharWithAttrib.char.style.w</text></g><path d="M 737.0 421 h 20"></path><path d="M 529.0 421 a 10 10 0 0 1 10 10 v 10 a 10 10 0 0 0 10 10"></path><g class="non-terminal ">
<path d="M 549.0 451 h 0.0"></path><path d="M 737.0 451 h 0.0"></path><rect height="22" width="188" x="549.0" y="440"></rect><text x="643.0" y="455">CharWithAttrib.char.style.rb</text></g><path d="M 737.0 451 a 10 10 0 0 0 10 -10 v -10 a 10 10 0 0 1 10 -10"></path></g><g class="non-terminal ">
<path d="M 529.0 394 h 0.0"></path><path d="M 672.0 394 h 0.0"></path><text class="comment" x="600.5" y="399">CharWithAttrib.enum</text></g></g><path d="M 1216.0 421 a 10 10 0 0 0 10 -10 v -224 a 10 10 0 0 1 10 -10"></path></g><g class="non-terminal ">
<path d="M 50.0 28 h 0.0"></path><path d="M 88.0 28 h 0.0"></path><text class="comment" x="69.0" y="33">Char</text></g></g><path d="M 1236 177 h 10"></path><path d="M 1246 177 h 20 m 0 -10 v 20"></path></g></svg>