<svg class="railroad-diagram" height="498" viewBox="0 0 1396 498" width="1396" xmlns="http://www.w3.org/2000/svg" xmlns:xlink="http://www.w3.org/1999/xlink">
<g transform="translate(.5 .5)">
<style>/* <![CDATA[ */
    svg.railroad-diagram {
        background-color:hsl(30,20%,95%);
    }
    svg.railroad-diagram path {
        stroke-width: 2;
        stroke: black;
        fill: none;
    }
    svg.railroad-diagram text {
        font-size: 12pt;
        text-anchor: middle;
        font-family: DejaVu Sans
    }
    svg.railroad-diagram text.label {
        text-anchor:start;
    }
    svg.railroad-diagram text.comment {
        font-family: DejaVu Sans;
        font-size: 15pt;
    }
    svg.railroad-diagram rect{
        stroke-width: 2;
        stroke:black;
        fill: rgb(210, 255, 210);
    }
    svg.railroad-diagram rect.group-box {
        stroke: gray;
        stroke-dasharray: 10 5;
        fill: none;
    }
    .terminal {
        font-family: DejaVu Sans;
    }

/* ]]> */
</style><g>
<path d="M 20 167 v 20 m 0 -10 h 20"></path></g><path d="M 40 177 h 10"></path><g>
<path d="M 50 177 h 0.0"></path><path d="M 1346.0 177 h 0.0"></path><rect class="group-box" height="442" rx="10" ry="10" width="1296" x="50.0" y="36"></rect><g>
<path d="M 50.0 177 h 0.0"></path><path d="M 1346.0 177 h 0.0"></path><path d="M 50.0 177 h 20"></path><g>
<path d="M 70.0 177 h 0.0"></path><path d="M 1326.0 177 h 0.0"></path><g>
<path d="M 70.0 177 h 0.0"></path><path d="M 758.0 177 h 0.0"></path><g>
<path d="M 70.0 177 h 0.0"></path><path d="M 706.0 177 h 0.0"></path><rect class="group-box" height="264" rx="10" ry="10" width="636" x="70.0" y="60"></rect><g>
<path d="M 70.0 177 h 10.0"></path><path d="M 696.0 177 h 10.0"></path><g class="terminal ">
<path d="M 80.0 177 h 0.0"></path><path d="M 118.0 177 h 0.0"></path><rect height="22" rx="10" ry="10" width="38" x="80.0" y="166"></rect><text x="99.0" y="181">"\"</text></g><path d="M 118.0 177 h 10"></path><g>
<path d="M 128.0 177 h 0.0"></path><path d="M 696.0 177 h 0.0"></path><path d="M 128.0 177 a 10 10 0 0 0 10 -10 v -89 a 10 10 0 0 1 10 -10 h 422"></path><path d="M 260.0 316 h 416 a 10 10 0 0 0 10 -10 v -119 a 10 10 0 0 1 10 -10"></path><path d="M 128.0 177 h 10"></path><g>
<path d="M 138.0 177 h 0.0"></path><path d="M 240.0 177 h 0.0"></path><path d="M 138.0 177 a 10 10 0 0 0 10 -10 v -10 a 10 10 0 0 1 10 -10"></path><g class="terminal ">
<path d="M 158.0 147 h 9.0"></path><path d="M 211.0 147 h 9.0"></path><rect height="22" rx="10" ry="10" width="44" x="167.0" y="136"></rect><text x="189.0" y="151">"ca"</text></g><path d="M 220.0 147 a 10 10 0 0 1 10 10 v 10 a 10 10 0 0 0 10 10"></path><path d="M 138.0 177 a 10 10 0 0 0 10 -10 v -40 a 10 10 0 0 1 10 -10"></path><g class="terminal ">
<path d="M 158.0 117 h 9.0"></path><path d="M 211.0 117 h 9.0"></path><rect height="22" rx="10" ry="10" width="44" x="167.0" y="106"></rect><text x="189.0" y="121">"vp"</text></g><path d="M 220.0 117 a 10 10 0 0 1 10 10 v 40 a 10 10 0 0 0 10 10"></path><path d="M 138.0 177 a 10 10 0 0 0 10 -10 v -70 a 10 10 0 0 1 10 -10"></path><g class="terminal ">
<path d="M 158.0 87 h 9.0"></path><path d="M 211.0 87 h 9.0"></path><rect height="22" rx="10" ry="10" width="44" x="167.0" y="76"></rect><text x="189.0" y="91">"va"</text></g><path d="M 220.0 87 a 10 10 0 0 1 10 10 v 70 a 10 10 0 0 0 10 10"></path><path d="M 138.0 177 h 20"></path><g class="terminal ">
<path d="M 158.0 177 h 6.0"></path><path d="M 214.0 177 h 6.0"></path><rect height="22" rx="10" ry="10" width="50" x="164.0" y="166"></rect><text x="189.0" y="181">"qac"</text></g><path d="M 220.0 177 h 20"></path><path d="M 138.0 177 a 10 10 0 0 1 10 10 v 10 a 10 10 0 0 0 10 10"></path><g class="terminal ">
<path d="M 158.0 207 h 9.0"></path><path d="M 211.0 207 h 9.0"></path><rect height="22" rx="10" ry="10" width="44" x="167.0" y="196"></rect><text x="189.0" y="211">"qs"</text></g><path d="M 220.0 207 a 10 10 0 0 0 10 -10 v -10 a 10 10 0 0 1 10 -10"></path><path d="M 138.0 177 a 10 10 0 0 1 10 10 v 40 a 10 10 0 0 0 10 10"></path><g class="terminal ">
<path d="M 158.0 237 h 6.0"></path><path d="M 214.0 237 h 6.0"></path><rect height="22" rx="10" ry="10" width="50" x="164.0" y="226"></rect><text x="189.0" y="241">"add"</text></g><path d="M 220.0 237 a 10 10 0 0 0 10 -10 v -40 a 10 10 0 0 1 10 -10"></path><path d="M 138.0 177 a 10 10 0 0 1 10 10 v 70 a 10 10 0 0 0 10 10"></path><g class="terminal ">
<path d="M 158.0 267 h 0.0"></path><path d="M 220.0 267 h 0.0"></path><rect height="22" rx="10" ry="10" width="62" x="158.0" y="256"></rect><text x="189.0" y="271">"addpn"</text></g><path d="M 220.0 267 a 10 10 0 0 0 10 -10 v -70 a 10 10 0 0 1 10 -10"></path><path d="M 138.0 177 a 10 10 0 0 1 10 10 v 100 a 10 10 0 0 0 10 10"></path><g class="terminal ">
<path d="M 158.0 297 h 9.0"></path><path d="M 211.0 297 h 9.0"></path><rect height="22" rx="10" ry="10" width="44" x="167.0" y="286"></rect><text x="189.0" y="301">"bk"</text></g><path d="M 220.0 297 a 10 10 0 0 0 10 -10 v -100 a 10 10 0 0 1 10 -10"></path></g><path d="M 240.0 177 a 10 10 0 0 1 10 10 v 119 a 10 10 0 0 0 10 10"></path><path d="M 240.0 68 a 10 10 0 0 1 10 10 v 89 a 10 10 0 0 0 10 10"></path><g>
<path d="M 260.0 177 h 0.0"></path><path d="M 350.0 177 h 0.0"></path><path d="M 260.0 177 a 10 10 0 0 0 10 -10 v -10 a 10 10 0 0 1 10 -10"></path><g class="terminal ">
<path d="M 280.0 147 h 3.0"></path><path d="M 327.0 147 h 3.0"></path><rect height="22" rx="10" ry="10" width="44" x="283.0" y="136"></rect><text x="305.0" y="151">"fm"</text></g><path d="M 330.0 147 a 10 10 0 0 1 10 10 v 10 a 10 10 0 0 0 10 10"></path><path d="M 260.0 177 a 10 10 0 0 0 10 -10 v -40 a 10 10 0 0 1 10 -10"></path><g class="terminal ">
<path d="M 280.0 117 h 0.0"></path><path d="M 330.0 117 h 0.0"></path><rect height="22" rx="10" ry="10" width="50" x="280.0" y="106"></rect><text x="305.0" y="121">"efm"</text></g><path d="M 330.0 117 a 10 10 0 0 1 10 10 v 40 a 10 10 0 0 0 10 10"></path><path d="M 260.0 177 a 10 10 0 0 0 10 -10 v -70 a 10 10 0 0 1 10 -10"></path><g class="terminal ">
<path d="M 280.0 87 h 3.0"></path><path d="M 327.0 87 h 3.0"></path><rect height="22" rx="10" ry="10" width="44" x="283.0" y="76"></rect><text x="305.0" y="91">"dc"</text></g><path d="M 330.0 87 a 10 10 0 0 1 10 10 v 70 a 10 10 0 0 0 10 10"></path><path d="M 260.0 177 h 20"></path><g class="terminal ">
<path d="M 280.0 177 h 6.0"></path><path d="M 324.0 177 h 6.0"></path><rect height="22" rx="10" ry="10" width="38" x="286.0" y="166"></rect><text x="305.0" y="181">"k"</text></g><path d="M 330.0 177 h 20"></path><path d="M 260.0 177 a 10 10 0 0 1 10 10 v 10 a 10 10 0 0 0 10 10"></path><g class="terminal ">
<path d="M 280.0 207 h 3.0"></path><path d="M 327.0 207 h 3.0"></path><rect height="22" rx="10" ry="10" width="44" x="283.0" y="196"></rect><text x="305.0" y="211">"nd"</text></g><path d="M 330.0 207 a 10 10 0 0 0 10 -10 v -10 a 10 10 0 0 1 10 -10"></path><path d="M 260.0 177 a 10 10 0 0 1 10 10 v 40 a 10 10 0 0 0 10 10"></path><g class="terminal ">
<path d="M 280.0 237 h 0.0"></path><path d="M 330.0 237 h 0.0"></path><rect height="22" rx="10" ry="10" width="50" x="280.0" y="226"></rect><text x="305.0" y="241">"ndx"</text></g><path d="M 330.0 237 a 10 10 0 0 0 10 -10 v -40 a 10 10 0 0 1 10 -10"></path><path d="M 260.0 177 a 10 10 0 0 1 10 10 v 70 a 10 10 0 0 0 10 10"></path><g class="terminal ">
<path d="M 280.0 267 h 0.0"></path><path d="M 330.0 267 h 0.0"></path><rect height="22" rx="10" ry="10" width="50" x="280.0" y="256"></rect><text x="305.0" y="271">"ord"</text></g><path d="M 330.0 267 a 10 10 0 0 0 10 -10 v -70 a 10 10 0 0 1 10 -10"></path><path d="M 260.0 177 a 10 10 0 0 1 10 10 v 100 a 10 10 0 0 0 10 10"></path><g class="terminal ">
<path d="M 280.0 297 h 3.0"></path><path d="M 327.0 297 h 3.0"></path><rect height="22" rx="10" ry="10" width="44" x="283.0" y="286"></rect><text x="305.0" y="301">"pn"</text></g><path d="M 330.0 297 a 10 10 0 0 0 10 -10 v -100 a 10 10 0 0 1 10 -10"></path></g><path d="M 350.0 177 a 10 10 0 0 1 10 10 v 119 a 10 10 0 0 0 10 10"></path><path d="M 350.0 68 a 10 10 0 0 1 10 10 v 89 a 10 10 0 0 0 10 10"></path><g>
<path d="M 370.0 177 h 0.0"></path><path d="M 460.0 177 h 0.0"></path><path d="M 370.0 177 a 10 10 0 0 0 10 -10 v -10 a 10 10 0 0 1 10 -10"></path><g class="terminal ">
<path d="M 390.0 147 h 3.0"></path><path d="M 437.0 147 h 3.0"></path><rect height="22" rx="10" ry="10" width="44" x="393.0" y="136"></rect><text x="415.0" y="151">"qt"</text></g><path d="M 440.0 147 a 10 10 0 0 1 10 10 v 10 a 10 10 0 0 0 10 10"></path><path d="M 370.0 177 a 10 10 0 0 0 10 -10 v -40 a 10 10 0 0 1 10 -10"></path><g class="terminal ">
<path d="M 390.0 117 h 0.0"></path><path d="M 440.0 117 h 0.0"></path><rect height="22" rx="10" ry="10" width="50" x="390.0" y="106"></rect><text x="415.0" y="121">"pro"</text></g><path d="M 440.0 117 a 10 10 0 0 1 10 10 v 40 a 10 10 0 0 0 10 10"></path><path d="M 370.0 177 a 10 10 0 0 0 10 -10 v -70 a 10 10 0 0 1 10 -10"></path><g class="terminal ">
<path d="M 390.0 87 h 0.0"></path><path d="M 440.0 87 h 0.0"></path><rect height="22" rx="10" ry="10" width="50" x="390.0" y="76"></rect><text x="415.0" y="91">"png"</text></g><path d="M 440.0 87 a 10 10 0 0 1 10 10 v 70 a 10 10 0 0 0 10 10"></path><path d="M 370.0 177 h 20"></path><g class="terminal ">
<path d="M 390.0 177 h 3.0"></path><path d="M 437.0 177 h 3.0"></path><rect height="22" rx="10" ry="10" width="44" x="393.0" y="166"></rect><text x="415.0" y="181">"rq"</text></g><path d="M 440.0 177 h 20"></path><path d="M 370.0 177 a 10 10 0 0 1 10 10 v 10 a 10 10 0 0 0 10 10"></path><g class="terminal ">
<path d="M 390.0 207 h 0.0"></path><path d="M 440.0 207 h 0.0"></path><rect height="22" rx="10" ry="10" width="50" x="390.0" y="196"></rect><text x="415.0" y="211">"sig"</text></g><path d="M 440.0 207 a 10 10 0 0 0 10 -10 v -10 a 10 10 0 0 1 10 -10"></path><path d="M 370.0 177 a 10 10 0 0 1 10 10 v 40 a 10 10 0 0 0 10 10"></path><g class="terminal ">
<path d="M 390.0 237 h 0.0"></path><path d="M 440.0 237 h 0.0"></path><rect height="22" rx="10" ry="10" width="50" x="390.0" y="226"></rect><text x="415.0" y="241">"sls"</text></g><path d="M 440.0 237 a 10 10 0 0 0 10 -10 v -40 a 10 10 0 0 1 10 -10"></path><path d="M 370.0 177 a 10 10 0 0 1 10 10 v 70 a 10 10 0 0 0 10 10"></path><g class="terminal ">
<path d="M 390.0 267 h 3.0"></path><path d="M 437.0 267 h 3.0"></path><rect height="22" rx="10" ry="10" width="44" x="393.0" y="256"></rect><text x="415.0" y="271">"tl"</text></g><path d="M 440.0 267 a 10 10 0 0 0 10 -10 v -70 a 10 10 0 0 1 10 -10"></path><path d="M 370.0 177 a 10 10 0 0 1 10 10 v 100 a 10 10 0 0 0 10 10"></path><g class="terminal ">
<path d="M 390.0 297 h 3.0"></path><path d="M 437.0 297 h 3.0"></path><rect height="22" rx="10" ry="10" width="44" x="393.0" y="286"></rect><text x="415.0" y="301">"wg"</text></g><path d="M 440.0 297 a 10 10 0 0 0 10 -10 v -100 a 10 10 0 0 1 10 -10"></path></g><path d="M 460.0 177 a 10 10 0 0 1 10 10 v 119 a 10 10 0 0 0 10 10"></path><path d="M 460.0 68 a 10 10 0 0 1 10 10 v 89 a 10 10 0 0 0 10 10"></path><g>
<path d="M 480.0 177 h 0.0"></path><path d="M 570.0 177 h 0.0"></path><path d="M 480.0 177 a 10 10 0 0 0 10 -10 v -10 a 10 10 0 0 1 10 -10"></path><g class="terminal ">
<path d="M 500.0 147 h 3.0"></path><path d="M 547.0 147 h 3.0"></path><rect height="22" rx="10" ry="10" width="44" x="503.0" y="136"></rect><text x="525.0" y="151">"wj"</text></g><path d="M 550.0 147 a 10 10 0 0 1 10 10 v 10 a 10 10 0 0 0 10 10"></path><path d="M 480.0 177 a 10 10 0 0 0 10 -10 v -40 a 10 10 0 0 1 10 -10"></path><g class="terminal ">
<path d="M 500.0 117 h 3.0"></path><path d="M 547.0 117 h 3.0"></path><rect height="22" rx="10" ry="10" width="44" x="503.0" y="106"></rect><text x="525.0" y="121">"wa"</text></g><path d="M 550.0 117 a 10 10 0 0 1 10 10 v 40 a 10 10 0 0 0 10 10"></path><path d="M 480.0 177 a 10 10 0 0 0 10 -10 v -70 a 10 10 0 0 1 10 -10"></path><g class="terminal ">
<path d="M 500.0 87 h 3.0"></path><path d="M 547.0 87 h 3.0"></path><rect height="22" rx="10" ry="10" width="44" x="503.0" y="76"></rect><text x="525.0" y="91">"wh"</text></g><path d="M 550.0 87 a 10 10 0 0 1 10 10 v 70 a 10 10 0 0 0 10 10"></path><path d="M 480.0 177 h 20"></path><g class="terminal ">
<path d="M 500.0 177 h 3.0"></path><path d="M 547.0 177 h 3.0"></path><rect height="22" rx="10" ry="10" width="44" x="503.0" y="166"></rect><text x="525.0" y="181">"xt"</text></g><path d="M 550.0 177 h 20"></path><path d="M 480.0 177 a 10 10 0 0 1 10 10 v 10 a 10 10 0 0 0 10 10"></path><g class="terminal ">
<path d="M 500.0 207 h 0.0"></path><path d="M 550.0 207 h 0.0"></path><rect height="22" rx="10" ry="10" width="50" x="500.0" y="196"></rect><text x="525.0" y="211">"jmp"</text></g><path d="M 550.0 207 a 10 10 0 0 0 10 -10 v -10 a 10 10 0 0 1 10 -10"></path><path d="M 480.0 177 a 10 10 0 0 1 10 10 v 40 a 10 10 0 0 0 10 10"></path><g class="terminal ">
<path d="M 500.0 237 h 3.0"></path><path d="M 547.0 237 h 3.0"></path><rect height="22" rx="10" ry="10" width="44" x="503.0" y="226"></rect><text x="525.0" y="241">"no"</text></g><path d="M 550.0 237 a 10 10 0 0 0 10 -10 v -40 a 10 10 0 0 1 10 -10"></path><path d="M 480.0 177 a 10 10 0 0 1 10 10 v 70 a 10 10 0 0 0 10 10"></path><g class="terminal ">
<path d="M 500.0 267 h 3.0"></path><path d="M 547.0 267 h 3.0"></path><rect height="22" rx="10" ry="10" width="44" x="503.0" y="256"></rect><text x="525.0" y="271">"it"</text></g><path d="M 550.0 267 a 10 10 0 0 0 10 -10 v -70 a 10 10 0 0 1 10 -10"></path><path d="M 480.0 177 a 10 10 0 0 1 10 10 v 100 a 10 10 0 0 0 10 10"></path><g class="terminal ">
<path d="M 500.0 297 h 3.0"></path><path d="M 547.0 297 h 3.0"></path><rect height="22" rx="10" ry="10" width="44" x="503.0" y="286"></rect><text x="525.0" y="301">"bd"</text></g><path d="M 550.0 297 a 10 10 0 0 0 10 -10 v -100 a 10 10 0 0 1 10 -10"></path></g><path d="M 570.0 177 a 10 10 0 0 1 10 10 v 119 a 10 10 0 0 0 10 10"></path><path d="M 570.0 68 a 10 10 0 0 1 10 10 v 89 a 10 10 0 0 0 10 10"></path><g>
<path d="M 590.0 177 h 0.0"></path><path d="M 686.0 177 h 0.0"></path><path d="M 590.0 177 a 10 10 0 0 0 10 -10 v -10 a 10 10 0 0 1 10 -10"></path><g class="terminal ">
<path d="M 610.0 147 h 6.0"></path><path d="M 660.0 147 h 6.0"></path><rect height="22" rx="10" ry="10" width="44" x="616.0" y="136"></rect><text x="638.0" y="151">"sc"</text></g><path d="M 666.0 147 a 10 10 0 0 1 10 10 v 10 a 10 10 0 0 0 10 10"></path><path d="M 590.0 177 a 10 10 0 0 0 10 -10 v -40 a 10 10 0 0 1 10 -10"></path><g class="terminal ">
<path d="M 610.0 117 h 6.0"></path><path d="M 660.0 117 h 6.0"></path><rect height="22" rx="10" ry="10" width="44" x="616.0" y="106"></rect><text x="638.0" y="121">"em"</text></g><path d="M 666.0 117 a 10 10 0 0 1 10 10 v 40 a 10 10 0 0 0 10 10"></path><path d="M 590.0 177 a 10 10 0 0 0 10 -10 v -70 a 10 10 0 0 1 10 -10"></path><g class="terminal ">
<path d="M 610.0 87 h 0.0"></path><path d="M 666.0 87 h 0.0"></path><rect height="22" rx="10" ry="10" width="56" x="610.0" y="76"></rect><text x="638.0" y="91">"bdit"</text></g><path d="M 666.0 87 a 10 10 0 0 1 10 10 v 70 a 10 10 0 0 0 10 10"></path><path d="M 590.0 177 h 20"></path><g class="terminal ">
<path d="M 610.0 177 h 3.0"></path><path d="M 663.0 177 h 3.0"></path><rect height="22" rx="10" ry="10" width="50" x="613.0" y="166"></rect><text x="638.0" y="181">"sup"</text></g><path d="M 666.0 177 h 20"></path></g><path d="M 686.0 177 h 10"></path></g></g><g class="non-terminal ">
<path d="M 70.0 52 h 0.0"></path><path d="M 87.0 52 h 0.0"></path><text class="comment" x="78.5" y="57">➊</text></g></g><path d="M 706.0 177 h 10"></path><path d="M 716.0 177 h 10"></path><g class="terminal ">
<path d="M 726.0 177 h 0.0"></path><path d="M 758.0 177 h 0.0"></path><rect height="22" rx="10" ry="10" width="32" x="726.0" y="166"></rect><text x="742.0" y="181">WS</text></g></g><path d="M 758.0 177 h 10"></path><path d="M 768.0 177 h 10"></path><g class="terminal ">
<path d="M 778.0 177 h 0.0"></path><path d="M 822.0 177 h 0.0"></path><rect height="22" rx="10" ry="10" width="44" x="778.0" y="166"></rect><text x="800.0" y="181">Text</text></g><path d="M 822.0 177 h 10"></path><g>
<path d="M 832.0 177 h 0.0"></path><path d="M 1096.0 177 h 0.0"></path><path d="M 832.0 177 a 10 10 0 0 0 10 -10 v 0 a 10 10 0 0 1 10 -10"></path><g>
<path d="M 852.0 157 h 224"></path></g><path d="M 1076.0 157 a 10 10 0 0 1 10 10 v 0 a 10 10 0 0 0 10 10"></path><path d="M 832.0 177 h 20"></path><g>
<path d="M 852.0 177 h 0.0"></path><path d="M 1076.0 177 h 0.0"></path><path d="M 852.0 177 h 10"></path><g>
<path d="M 862.0 177 h 0.0"></path><path d="M 1066.0 177 h 0.0"></path><path d="M 862.0 177 h 20"></path><g class="non-terminal ">
<path d="M 882.0 177 h 45.0"></path><path d="M 1001.0 177 h 45.0"></path><rect height="22" width="74" x="927.0" y="166"></rect><text x="964.0" y="181">Reference</text></g><path d="M 1046.0 177 h 20"></path><path d="M 862.0 177 a 10 10 0 0 1 10 10 v 10 a 10 10 0 0 0 10 10"></path><g class="non-terminal ">
<path d="M 882.0 207 h 60.0"></path><path d="M 986.0 207 h 60.0"></path><rect height="22" width="44" x="942.0" y="196"></rect><text x="964.0" y="211">Char</text></g><path d="M 1046.0 207 a 10 10 0 0 0 10 -10 v -10 a 10 10 0 0 1 10 -10"></path><path d="M 862.0 177 a 10 10 0 0 1 10 10 v 40 a 10 10 0 0 0 10 10"></path><g class="non-terminal ">
<path d="M 882.0 237 h 45.0"></path><path d="M 1001.0 237 h 45.0"></path><rect height="22" width="74" x="927.0" y="226"></rect><text x="964.0" y="241">Milestone</text></g><path d="M 1046.0 237 a 10 10 0 0 0 10 -10 v -40 a 10 10 0 0 1 10 -10"></path><path d="M 862.0 177 a 10 10 0 0 1 10 10 v 70 a 10 10 0 0 0 10 10"></path><g class="non-terminal ">
<path d="M 882.0 267 h 48.0"></path><path d="M 998.0 267 h 48.0"></path><rect height="22" width="68" x="930.0" y="256"></rect><text x="964.0" y="271">Footnote</text></g><path d="M 1046.0 267 a 10 10 0 0 0 10 -10 v -70 a 10 10 0 0 1 10 -10"></path><path d="M 862.0 177 a 10 10 0 0 1 10 10 v 124 a 10 10 0 0 0 10 10"></path><g>
<path d="M 882.0 321 h 0.0"></path><path d="M 1046.0 321 h 0.0"></path><rect class="group-box" height="68" rx="10" ry="10" width="164" x="882.0" y="302"></rect><g>
<path d="M 882.0 321 h 10.0"></path><path d="M 1036.0 321 h 10.0"></path><g class="terminal ">
<path d="M 892.0 321 h 0.0"></path><path d="M 936.0 321 h 0.0"></path><rect height="22" rx="10" ry="10" width="44" x="892.0" y="310"></rect><text x="914.0" y="325">"\b"</text></g><path d="M 936.0 321 h 10"></path><g>
<path d="M 946.0 321 h 0.0"></path><path d="M 1036.0 321 h 0.0"></path><path d="M 946.0 321 h 20"></path><g class="terminal ">
<path d="M 966.0 321 h 0.0"></path><path d="M 1016.0 321 h 0.0"></path><rect height="22" rx="10" ry="10" width="50" x="966.0" y="310"></rect><text x="991.0" y="325">⇒ "\"</text></g><path d="M 1016.0 321 h 20"></path><path d="M 946.0 321 a 10 10 0 0 1 10 10 v 10 a 10 10 0 0 0 10 10"></path><g class="terminal ">
<path d="M 966.0 351 h 9.0"></path><path d="M 1007.0 351 h 9.0"></path><rect height="22" rx="10" ry="10" width="32" x="975.0" y="340"></rect><text x="991.0" y="355">WS</text></g><path d="M 1016.0 351 a 10 10 0 0 0 10 -10 v -10 a 10 10 0 0 1 10 -10"></path></g></g><g class="non-terminal ">
<path d="M 882.0 294 h 0.0"></path><path d="M 927.0 294 h 0.0"></path><text class="comment" x="904.5" y="299">Break</text></g></g><path d="M 1046.0 321 a 10 10 0 0 0 10 -10 v -124 a 10 10 0 0 1 10 -10"></path></g><path d="M 1066.0 177 h 10"></path><path d="M 862.0 177 a 10 10 0 0 0 -10 10 v 181 a 10 10 0 0 0 10 10"></path><g>
<path d="M 862.0 378 h 204"></path></g><path d="M 1066.0 378 a 10 10 0 0 0 10 -10 v -181 a 10 10 0 0 0 -10 -10"></path></g><path d="M 1076.0 177 h 20"></path></g><path d="M 1096.0 177 h 10"></path><g class="non-terminal ">
<path d="M 1106.0 177 h 0.0"></path><path d="M 1180.0 177 h 0.0"></path><rect height="22" width="74" x="1106.0" y="166"></rect><text x="1143.0" y="181">char.link</text></g><path d="M 1180.0 177 h 10"></path><g>
<path d="M 1190.0 177 h 0.0"></path><path d="M 1326.0 177 h 0.0"></path><path d="M 1190.0 177 h 20"></path><g>
<path d="M 1210.0 177 h 96"></path></g><path d="M 1306.0 177 h 20"></path><path d="M 1190.0 177 a 10 10 0 0 1 10 10 v 0 a 10 10 0 0 0 10 10"></path><g>
<path d="M 1210.0 197 h 0.0"></path><path d="M 1306.0 197 h 0.0"></path><g class="terminal ">
<path d="M 1210.0 197 h 0.0"></path><path d="M 1248.0 197 h 0.0"></path><rect height="22" rx="10" ry="10" width="38" x="1210.0" y="186"></rect><text x="1229.0" y="201">⇐ ➊</text></g><path d="M 1248.0 197 h 10"></path><path d="M 1258.0 197 h 10"></path><g class="terminal ">
<path d="M 1268.0 197 h 0.0"></path><path d="M 1306.0 197 h 0.0"></path><rect height="22" rx="10" ry="10" width="38" x="1268.0" y="186"></rect><text x="1287.0" y="201">"&#42;"</text></g></g><path d="M 1306.0 197 a 10 10 0 0 0 10 -10 v 0 a 10 10 0 0 1 10 -10"></path></g></g><path d="M 1326.0 177 h 20"></path><path d="M 50.0 177 a 10 10 0 0 1 10 10 v 224 a 10 10 0 0 0 10 10"></path><g>
<path d="M 70.0 421 h 514.0"></path><path d="M 812.0 421 h 514.0"></path><rect class="group-box" height="68" rx="10" ry="10" width="228" x="584.0" y="402"></rect><g>
<path d="M 584.0 421 h 0.0"></path><path d="M 812.0 421 h 0.0"></path><path d="M 584.0 421 h 20"></path><g class="non-terminal ">
<path d="M 604.0 421 h 3.0"></path><path d="M 789.0 421 h 3.0"></path><rect height="22" width="182" x="607.0" y="410"></rect><text x="698.0" y="425">CharWithAttrib.char.style.w</text></g><path d="M 792.0 421 h 20"></path><path d="M 584.0 421 a 10 10 0 0 1 10 10 v 10 a 10 10 0 0 0 10 10"></path><g class="non-terminal ">
<path d="M 604.0 451 h 0.0"></path><path d="M 792.0 451 h 0.0"></path><rect height="22" width="188" x="604.0" y="440"></rect><text x="698.0" y="455">CharWithAttrib.char.style.rb</text></g><path d="M 792.0 451 a 10 10 0 0 0 10 -10 v -10 a 10 10 0 0 1 10 -10"></path></g><g class="non-terminal ">
<path d="M 584.0 394 h 0.0"></path><path d="M 727.0 394 h 0.0"></path><text class="comment" x="655.5" y="399">CharWithAttrib.enum</text></g></g><path d="M 1326.0 421 a 10 10 0 0 0 10 -10 v -224 a 10 10 0 0 1 10 -10"></path></g><g class="non-terminal ">
<path d="M 50.0 28 h 0.0"></path><path d="M 88.0 28 h 0.0"></path><text class="comment" x="69.0" y="33">Char</text></g></g><path d="M 1346 177 h 10"></path><path d="M 1356 177 h 20 m 0 -10 v 20"></path></g></svg>