<svg class="railroad-diagram" height="793" viewBox="0 0 890 793" width="890" xmlns="http://www.w3.org/2000/svg" xmlns:xlink="http://www.w3.org/1999/xlink">
<g transform="translate(.5 .5)">
<style>/* <![CDATA[ */
    svg.railroad-diagram {
        background-color:hsl(30,20%,95%);
    }
    svg.railroad-diagram path {
        stroke-width: 2;
        stroke: black;
        fill: none;
    }
    svg.railroad-diagram text {
        font-size: 12pt;
        text-anchor: middle;
        font-family: DejaVu Sans
    }
    svg.railroad-diagram text.label {
        text-anchor:start;
    }
    svg.railroad-diagram text.comment {
        font-family: DejaVu Sans;
        font-size: 15pt;
    }
    svg.railroad-diagram rect{
        stroke-width: 2;
        stroke:black;
        fill: rgb(210, 255, 210);
    }
    svg.railroad-diagram rect.group-box {
        stroke: gray;
        stroke-dasharray: 10 5;
        fill: none;
    }
    .terminal {
        font-family: DejaVu Sans;
    }

/* ]]> */
</style><g>
<path d="M 20 462 v 20 m 0 -10 h 20"></path></g><path d="M 40 472 h 10"></path><g>
<path d="M 50 472 h 0.0"></path><path d="M 840.0 472 h 0.0"></path><rect class="group-box" height="737" rx="10" ry="10" width="790" x="50.0" y="36"></rect><g>
<path d="M 50.0 472 h 0.0"></path><path d="M 840.0 472 h 0.0"></path><path d="M 50.0 472 h 20"></path><g>
<path d="M 70.0 472 h 0.0"></path><path d="M 820.0 472 h 0.0"></path><g class="terminal ">
<path d="M 70.0 472 h 0.0"></path><path d="M 126.0 472 h 0.0"></path><rect height="22" rx="10" ry="10" width="56" x="70.0" y="461"></rect><text x="98.0" y="476">&#60;char></text></g><path d="M 126.0 472 h 10"></path><g>
<path d="M 136.0 472 h 0.0"></path><path d="M 820.0 472 h 0.0"></path><path d="M 136.0 472 a 10 10 0 0 0 10 -10 v -19 a 10 10 0 0 1 10 -10"></path><g>
<path d="M 156.0 433 h 0.0"></path><path d="M 282.0 433 h 0.0"></path><g class="terminal ">
<path d="M 156.0 433 h 0.0"></path><path d="M 218.0 433 h 0.0"></path><rect height="22" rx="10" ry="10" width="62" x="156.0" y="422"></rect><text x="187.0" y="437">@closed</text></g><path d="M 218.0 433 h 10"></path><path d="M 228.0 433 h 10"></path><g class="terminal ">
<path d="M 238.0 433 h 0.0"></path><path d="M 282.0 433 h 0.0"></path><rect height="22" rx="10" ry="10" width="44" x="238.0" y="422"></rect><text x="260.0" y="437">BOOL</text></g></g><path d="M 136.0 472 a 10 10 0 0 0 10 -10 v -49 a 10 10 0 0 1 10 -10"></path><g>
<path d="M 156.0 403 h 0.0"></path><path d="M 300.0 403 h 0.0"></path><g class="terminal ">
<path d="M 156.0 403 h 0.0"></path><path d="M 224.0 403 h 0.0"></path><rect height="22" rx="10" ry="10" width="68" x="156.0" y="392"></rect><text x="190.0" y="407">@link-id</text></g><path d="M 224.0 403 h 10"></path><path d="M 234.0 403 h 10"></path><g class="terminal ">
<path d="M 244.0 403 h 0.0"></path><path d="M 300.0 403 h 0.0"></path><rect height="22" rx="10" ry="10" width="56" x="244.0" y="392"></rect><text x="272.0" y="407">string</text></g></g><path d="M 136.0 472 a 10 10 0 0 0 10 -10 v -79 a 10 10 0 0 1 10 -10"></path><g>
<path d="M 156.0 373 h 0.0"></path><path d="M 318.0 373 h 0.0"></path><g class="terminal ">
<path d="M 156.0 373 h 0.0"></path><path d="M 242.0 373 h 0.0"></path><rect height="22" rx="10" ry="10" width="86" x="156.0" y="362"></rect><text x="199.0" y="377">@link-title</text></g><path d="M 242.0 373 h 10"></path><path d="M 252.0 373 h 10"></path><g class="terminal ">
<path d="M 262.0 373 h 0.0"></path><path d="M 318.0 373 h 0.0"></path><rect height="22" rx="10" ry="10" width="56" x="262.0" y="362"></rect><text x="290.0" y="377">string</text></g></g><path d="M 136.0 472 a 10 10 0 0 0 10 -10 v -109 a 10 10 0 0 1 10 -10"></path><g>
<path d="M 156.0 343 h 0.0"></path><path d="M 312.0 343 h 0.0"></path><g class="terminal ">
<path d="M 156.0 343 h 0.0"></path><path d="M 236.0 343 h 0.0"></path><rect height="22" rx="10" ry="10" width="80" x="156.0" y="332"></rect><text x="196.0" y="347">@link-href</text></g><path d="M 236.0 343 h 10"></path><path d="M 246.0 343 h 10"></path><g class="terminal ">
<path d="M 256.0 343 h 0.0"></path><path d="M 312.0 343 h 0.0"></path><rect height="22" rx="10" ry="10" width="56" x="256.0" y="332"></rect><text x="284.0" y="347">string</text></g></g><path d="M 136.0 472 a 10 10 0 0 0 10 -10 v -275 a 10 10 0 0 1 10 -10"></path><g>
<path d="M 156.0 177 h 0.0"></path><path d="M 800.0 177 h 0.0"></path><g class="terminal ">
<path d="M 156.0 177 h 0.0"></path><path d="M 212.0 177 h 0.0"></path><rect height="22" rx="10" ry="10" width="56" x="156.0" y="166"></rect><text x="184.0" y="181">@style</text></g><path d="M 212.0 177 h 10"></path><path d="M 222.0 177 h 10"></path><g>
<path d="M 232.0 177 h 0.0"></path><path d="M 800.0 177 h 0.0"></path><rect class="group-box" height="264" rx="10" ry="10" width="568" x="232.0" y="60"></rect><g>
<path d="M 232.0 177 h 0.0"></path><path d="M 800.0 177 h 0.0"></path><path d="M 232.0 177 a 10 10 0 0 0 10 -10 v -89 a 10 10 0 0 1 10 -10 h 422"></path><path d="M 232.0 177 h 10"></path><g>
<path d="M 242.0 177 h 0.0"></path><path d="M 344.0 177 h 0.0"></path><path d="M 242.0 177 a 10 10 0 0 0 10 -10 v -10 a 10 10 0 0 1 10 -10"></path><g class="terminal ">
<path d="M 262.0 147 h 0.0"></path><path d="M 306.0 147 h 0.0"></path><rect height="22" rx="10" ry="10" width="44" x="262.0" y="136"></rect><text x="284.0" y="151">"ca"</text></g><path d="M 242.0 177 a 10 10 0 0 0 10 -10 v -40 a 10 10 0 0 1 10 -10"></path><g class="terminal ">
<path d="M 262.0 117 h 0.0"></path><path d="M 306.0 117 h 0.0"></path><rect height="22" rx="10" ry="10" width="44" x="262.0" y="106"></rect><text x="284.0" y="121">"vp"</text></g><path d="M 242.0 177 a 10 10 0 0 0 10 -10 v -70 a 10 10 0 0 1 10 -10"></path><g class="terminal ">
<path d="M 262.0 87 h 0.0"></path><path d="M 306.0 87 h 0.0"></path><rect height="22" rx="10" ry="10" width="44" x="262.0" y="76"></rect><text x="284.0" y="91">"va"</text></g><path d="M 242.0 177 h 20"></path><g class="terminal ">
<path d="M 262.0 177 h 0.0"></path><path d="M 312.0 177 h 0.0"></path><rect height="22" rx="10" ry="10" width="50" x="262.0" y="166"></rect><text x="287.0" y="181">"qac"</text></g><path d="M 242.0 177 a 10 10 0 0 1 10 10 v 10 a 10 10 0 0 0 10 10"></path><g class="terminal ">
<path d="M 262.0 207 h 0.0"></path><path d="M 306.0 207 h 0.0"></path><rect height="22" rx="10" ry="10" width="44" x="262.0" y="196"></rect><text x="284.0" y="211">"qs"</text></g><path d="M 242.0 177 a 10 10 0 0 1 10 10 v 40 a 10 10 0 0 0 10 10"></path><g class="terminal ">
<path d="M 262.0 237 h 0.0"></path><path d="M 312.0 237 h 0.0"></path><rect height="22" rx="10" ry="10" width="50" x="262.0" y="226"></rect><text x="287.0" y="241">"add"</text></g><path d="M 242.0 177 a 10 10 0 0 1 10 10 v 70 a 10 10 0 0 0 10 10"></path><g class="terminal ">
<path d="M 262.0 267 h 0.0"></path><path d="M 324.0 267 h 0.0"></path><rect height="22" rx="10" ry="10" width="62" x="262.0" y="256"></rect><text x="293.0" y="271">"addpn"</text></g><path d="M 242.0 177 a 10 10 0 0 1 10 10 v 100 a 10 10 0 0 0 10 10"></path><g class="terminal ">
<path d="M 262.0 297 h 0.0"></path><path d="M 306.0 297 h 0.0"></path><rect height="22" rx="10" ry="10" width="44" x="262.0" y="286"></rect><text x="284.0" y="301">"bk"</text></g></g><path d="M 344.0 68 a 10 10 0 0 1 10 10 v 89 a 10 10 0 0 0 10 10"></path><g>
<path d="M 364.0 177 h 0.0"></path><path d="M 454.0 177 h 0.0"></path><path d="M 364.0 177 a 10 10 0 0 0 10 -10 v -10 a 10 10 0 0 1 10 -10"></path><g class="terminal ">
<path d="M 384.0 147 h 0.0"></path><path d="M 428.0 147 h 0.0"></path><rect height="22" rx="10" ry="10" width="44" x="384.0" y="136"></rect><text x="406.0" y="151">"fm"</text></g><path d="M 364.0 177 a 10 10 0 0 0 10 -10 v -40 a 10 10 0 0 1 10 -10"></path><g class="terminal ">
<path d="M 384.0 117 h 0.0"></path><path d="M 434.0 117 h 0.0"></path><rect height="22" rx="10" ry="10" width="50" x="384.0" y="106"></rect><text x="409.0" y="121">"efm"</text></g><path d="M 364.0 177 a 10 10 0 0 0 10 -10 v -70 a 10 10 0 0 1 10 -10"></path><g class="terminal ">
<path d="M 384.0 87 h 0.0"></path><path d="M 428.0 87 h 0.0"></path><rect height="22" rx="10" ry="10" width="44" x="384.0" y="76"></rect><text x="406.0" y="91">"dc"</text></g><path d="M 364.0 177 h 20"></path><g class="terminal ">
<path d="M 384.0 177 h 0.0"></path><path d="M 422.0 177 h 0.0"></path><rect height="22" rx="10" ry="10" width="38" x="384.0" y="166"></rect><text x="403.0" y="181">"k"</text></g><path d="M 364.0 177 a 10 10 0 0 1 10 10 v 10 a 10 10 0 0 0 10 10"></path><g class="terminal ">
<path d="M 384.0 207 h 0.0"></path><path d="M 428.0 207 h 0.0"></path><rect height="22" rx="10" ry="10" width="44" x="384.0" y="196"></rect><text x="406.0" y="211">"nd"</text></g><path d="M 364.0 177 a 10 10 0 0 1 10 10 v 40 a 10 10 0 0 0 10 10"></path><g class="terminal ">
<path d="M 384.0 237 h 0.0"></path><path d="M 434.0 237 h 0.0"></path><rect height="22" rx="10" ry="10" width="50" x="384.0" y="226"></rect><text x="409.0" y="241">"ndx"</text></g><path d="M 364.0 177 a 10 10 0 0 1 10 10 v 70 a 10 10 0 0 0 10 10"></path><g class="terminal ">
<path d="M 384.0 267 h 0.0"></path><path d="M 434.0 267 h 0.0"></path><rect height="22" rx="10" ry="10" width="50" x="384.0" y="256"></rect><text x="409.0" y="271">"ord"</text></g><path d="M 364.0 177 a 10 10 0 0 1 10 10 v 100 a 10 10 0 0 0 10 10"></path><g class="terminal ">
<path d="M 384.0 297 h 0.0"></path><path d="M 428.0 297 h 0.0"></path><rect height="22" rx="10" ry="10" width="44" x="384.0" y="286"></rect><text x="406.0" y="301">"pn"</text></g></g><path d="M 454.0 68 a 10 10 0 0 1 10 10 v 89 a 10 10 0 0 0 10 10"></path><g>
<path d="M 474.0 177 h 0.0"></path><path d="M 564.0 177 h 0.0"></path><path d="M 474.0 177 a 10 10 0 0 0 10 -10 v -10 a 10 10 0 0 1 10 -10"></path><g class="terminal ">
<path d="M 494.0 147 h 0.0"></path><path d="M 538.0 147 h 0.0"></path><rect height="22" rx="10" ry="10" width="44" x="494.0" y="136"></rect><text x="516.0" y="151">"qt"</text></g><path d="M 474.0 177 a 10 10 0 0 0 10 -10 v -40 a 10 10 0 0 1 10 -10"></path><g class="terminal ">
<path d="M 494.0 117 h 0.0"></path><path d="M 544.0 117 h 0.0"></path><rect height="22" rx="10" ry="10" width="50" x="494.0" y="106"></rect><text x="519.0" y="121">"pro"</text></g><path d="M 474.0 177 a 10 10 0 0 0 10 -10 v -70 a 10 10 0 0 1 10 -10"></path><g class="terminal ">
<path d="M 494.0 87 h 0.0"></path><path d="M 544.0 87 h 0.0"></path><rect height="22" rx="10" ry="10" width="50" x="494.0" y="76"></rect><text x="519.0" y="91">"png"</text></g><path d="M 474.0 177 h 20"></path><g class="terminal ">
<path d="M 494.0 177 h 0.0"></path><path d="M 538.0 177 h 0.0"></path><rect height="22" rx="10" ry="10" width="44" x="494.0" y="166"></rect><text x="516.0" y="181">"rq"</text></g><path d="M 474.0 177 a 10 10 0 0 1 10 10 v 10 a 10 10 0 0 0 10 10"></path><g class="terminal ">
<path d="M 494.0 207 h 0.0"></path><path d="M 544.0 207 h 0.0"></path><rect height="22" rx="10" ry="10" width="50" x="494.0" y="196"></rect><text x="519.0" y="211">"sig"</text></g><path d="M 474.0 177 a 10 10 0 0 1 10 10 v 40 a 10 10 0 0 0 10 10"></path><g class="terminal ">
<path d="M 494.0 237 h 0.0"></path><path d="M 544.0 237 h 0.0"></path><rect height="22" rx="10" ry="10" width="50" x="494.0" y="226"></rect><text x="519.0" y="241">"sls"</text></g><path d="M 474.0 177 a 10 10 0 0 1 10 10 v 70 a 10 10 0 0 0 10 10"></path><g class="terminal ">
<path d="M 494.0 267 h 0.0"></path><path d="M 538.0 267 h 0.0"></path><rect height="22" rx="10" ry="10" width="44" x="494.0" y="256"></rect><text x="516.0" y="271">"tl"</text></g><path d="M 474.0 177 a 10 10 0 0 1 10 10 v 100 a 10 10 0 0 0 10 10"></path><g class="terminal ">
<path d="M 494.0 297 h 0.0"></path><path d="M 538.0 297 h 0.0"></path><rect height="22" rx="10" ry="10" width="44" x="494.0" y="286"></rect><text x="516.0" y="301">"wg"</text></g></g><path d="M 564.0 68 a 10 10 0 0 1 10 10 v 89 a 10 10 0 0 0 10 10"></path><g>
<path d="M 584.0 177 h 0.0"></path><path d="M 674.0 177 h 0.0"></path><path d="M 584.0 177 a 10 10 0 0 0 10 -10 v -10 a 10 10 0 0 1 10 -10"></path><g class="terminal ">
<path d="M 604.0 147 h 0.0"></path><path d="M 648.0 147 h 0.0"></path><rect height="22" rx="10" ry="10" width="44" x="604.0" y="136"></rect><text x="626.0" y="151">"wj"</text></g><path d="M 584.0 177 a 10 10 0 0 0 10 -10 v -40 a 10 10 0 0 1 10 -10"></path><g class="terminal ">
<path d="M 604.0 117 h 0.0"></path><path d="M 648.0 117 h 0.0"></path><rect height="22" rx="10" ry="10" width="44" x="604.0" y="106"></rect><text x="626.0" y="121">"wa"</text></g><path d="M 584.0 177 a 10 10 0 0 0 10 -10 v -70 a 10 10 0 0 1 10 -10"></path><g class="terminal ">
<path d="M 604.0 87 h 0.0"></path><path d="M 648.0 87 h 0.0"></path><rect height="22" rx="10" ry="10" width="44" x="604.0" y="76"></rect><text x="626.0" y="91">"wh"</text></g><path d="M 584.0 177 h 20"></path><g class="terminal ">
<path d="M 604.0 177 h 0.0"></path><path d="M 648.0 177 h 0.0"></path><rect height="22" rx="10" ry="10" width="44" x="604.0" y="166"></rect><text x="626.0" y="181">"xt"</text></g><path d="M 584.0 177 a 10 10 0 0 1 10 10 v 10 a 10 10 0 0 0 10 10"></path><g class="terminal ">
<path d="M 604.0 207 h 0.0"></path><path d="M 654.0 207 h 0.0"></path><rect height="22" rx="10" ry="10" width="50" x="604.0" y="196"></rect><text x="629.0" y="211">"jmp"</text></g><path d="M 584.0 177 a 10 10 0 0 1 10 10 v 40 a 10 10 0 0 0 10 10"></path><g class="terminal ">
<path d="M 604.0 237 h 0.0"></path><path d="M 648.0 237 h 0.0"></path><rect height="22" rx="10" ry="10" width="44" x="604.0" y="226"></rect><text x="626.0" y="241">"no"</text></g><path d="M 584.0 177 a 10 10 0 0 1 10 10 v 70 a 10 10 0 0 0 10 10"></path><g class="terminal ">
<path d="M 604.0 267 h 0.0"></path><path d="M 648.0 267 h 0.0"></path><rect height="22" rx="10" ry="10" width="44" x="604.0" y="256"></rect><text x="626.0" y="271">"it"</text></g><path d="M 584.0 177 a 10 10 0 0 1 10 10 v 100 a 10 10 0 0 0 10 10"></path><g class="terminal ">
<path d="M 604.0 297 h 0.0"></path><path d="M 648.0 297 h 0.0"></path><rect height="22" rx="10" ry="10" width="44" x="604.0" y="286"></rect><text x="626.0" y="301">"bd"</text></g></g><path d="M 674.0 68 a 10 10 0 0 1 10 10 v 89 a 10 10 0 0 0 10 10"></path><g>
<path d="M 694.0 177 h 0.0"></path><path d="M 790.0 177 h 0.0"></path><path d="M 694.0 177 a 10 10 0 0 0 10 -10 v -10 a 10 10 0 0 1 10 -10"></path><g class="terminal ">
<path d="M 714.0 147 h 0.0"></path><path d="M 758.0 147 h 0.0"></path><rect height="22" rx="10" ry="10" width="44" x="714.0" y="136"></rect><text x="736.0" y="151">"sc"</text></g><path d="M 694.0 177 a 10 10 0 0 0 10 -10 v -40 a 10 10 0 0 1 10 -10"></path><g class="terminal ">
<path d="M 714.0 117 h 0.0"></path><path d="M 758.0 117 h 0.0"></path><rect height="22" rx="10" ry="10" width="44" x="714.0" y="106"></rect><text x="736.0" y="121">"em"</text></g><path d="M 694.0 177 a 10 10 0 0 0 10 -10 v -70 a 10 10 0 0 1 10 -10"></path><g class="terminal ">
<path d="M 714.0 87 h 0.0"></path><path d="M 770.0 87 h 0.0"></path><rect height="22" rx="10" ry="10" width="56" x="714.0" y="76"></rect><text x="742.0" y="91">"bdit"</text></g><path d="M 694.0 177 h 20"></path><g class="terminal ">
<path d="M 714.0 177 h 0.0"></path><path d="M 764.0 177 h 0.0"></path><rect height="22" rx="10" ry="10" width="50" x="714.0" y="166"></rect><text x="739.0" y="181">"sup"</text></g></g></g><g class="non-terminal ">
<path d="M 232.0 52 h 0.0"></path><path d="M 382.0 52 h 0.0"></path><text class="comment" x="307.0" y="57">Char.char.style.enum</text></g></g></g><path d="M 136.0 472 h 20"></path><g>
<path d="M 156.0 472 h 160.0"></path><path d="M 640.0 472 h 160.0"></path><g class="terminal ">
<path d="M 316.0 472 h 0.0"></path><path d="M 360.0 472 h 0.0"></path><rect height="22" rx="10" ry="10" width="44" x="316.0" y="461"></rect><text x="338.0" y="476">text</text></g><path d="M 360.0 472 h 10"></path><g>
<path d="M 370.0 472 h 0.0"></path><path d="M 640.0 472 h 0.0"></path><path d="M 370.0 472 a 10 10 0 0 0 10 -10 v 0 a 10 10 0 0 1 10 -10"></path><g>
<path d="M 390.0 452 h 230"></path></g><path d="M 620.0 452 a 10 10 0 0 1 10 10 v 0 a 10 10 0 0 0 10 10"></path><path d="M 370.0 472 h 20"></path><g>
<path d="M 390.0 472 h 0.0"></path><path d="M 620.0 472 h 0.0"></path><path d="M 390.0 472 h 10"></path><g>
<path d="M 400.0 472 h 0.0"></path><path d="M 610.0 472 h 0.0"></path><path d="M 400.0 472 h 20"></path><g class="non-terminal ">
<path d="M 420.0 472 h 48.0"></path><path d="M 542.0 472 h 48.0"></path><rect height="22" width="74" x="468.0" y="461"></rect><text x="505.0" y="476">Reference</text></g><path d="M 590.0 472 h 20"></path><path d="M 400.0 472 a 10 10 0 0 1 10 10 v 10 a 10 10 0 0 0 10 10"></path><g class="non-terminal ">
<path d="M 420.0 502 h 63.0"></path><path d="M 527.0 502 h 63.0"></path><rect height="22" width="44" x="483.0" y="491"></rect><text x="505.0" y="506">Char</text></g><path d="M 590.0 502 a 10 10 0 0 0 10 -10 v -10 a 10 10 0 0 1 10 -10"></path><path d="M 400.0 472 a 10 10 0 0 1 10 10 v 40 a 10 10 0 0 0 10 10"></path><g class="non-terminal ">
<path d="M 420.0 532 h 48.0"></path><path d="M 542.0 532 h 48.0"></path><rect height="22" width="74" x="468.0" y="521"></rect><text x="505.0" y="536">Milestone</text></g><path d="M 590.0 532 a 10 10 0 0 0 10 -10 v -40 a 10 10 0 0 1 10 -10"></path><path d="M 400.0 472 a 10 10 0 0 1 10 10 v 70 a 10 10 0 0 0 10 10"></path><g class="non-terminal ">
<path d="M 420.0 562 h 51.0"></path><path d="M 539.0 562 h 51.0"></path><rect height="22" width="68" x="471.0" y="551"></rect><text x="505.0" y="566">Footnote</text></g><path d="M 590.0 562 a 10 10 0 0 0 10 -10 v -70 a 10 10 0 0 1 10 -10"></path><path d="M 400.0 472 a 10 10 0 0 1 10 10 v 124 a 10 10 0 0 0 10 10"></path><g>
<path d="M 420.0 616 h 0.0"></path><path d="M 590.0 616 h 0.0"></path><rect class="group-box" height="38" rx="10" ry="10" width="170" x="420.0" y="597"></rect><g>
<path d="M 420.0 616 h 10.0"></path><path d="M 580.0 616 h 10.0"></path><g class="terminal ">
<path d="M 430.0 616 h 0.0"></path><path d="M 510.0 616 h 0.0"></path><rect height="22" rx="10" ry="10" width="80" x="430.0" y="605"></rect><text x="470.0" y="620">&#60;optbreak></text></g><path d="M 510.0 616 h 10"></path><path d="M 520.0 616 h 10"></path><g class="terminal ">
<path d="M 530.0 616 h 0.0"></path><path d="M 580.0 616 h 0.0"></path><rect height="22" rx="10" ry="10" width="50" x="530.0" y="605"></rect><text x="555.0" y="620">empty</text></g></g><g class="non-terminal ">
<path d="M 420.0 589 h 0.0"></path><path d="M 465.0 589 h 0.0"></path><text class="comment" x="442.5" y="594">Break</text></g></g><path d="M 590.0 616 a 10 10 0 0 0 10 -10 v -124 a 10 10 0 0 1 10 -10"></path><path d="M 400.0 472 a 10 10 0 0 1 10 10 v 162 a 10 10 0 0 0 10 10"></path><g class="terminal ">
<path d="M 420.0 654 h 63.0"></path><path d="M 527.0 654 h 63.0"></path><rect height="22" rx="10" ry="10" width="44" x="483.0" y="643"></rect><text x="505.0" y="658">text</text></g><path d="M 590.0 654 a 10 10 0 0 0 10 -10 v -162 a 10 10 0 0 1 10 -10"></path></g><path d="M 610.0 472 h 10"></path><path d="M 400.0 472 a 10 10 0 0 0 -10 10 v 181 a 10 10 0 0 0 10 10"></path><g>
<path d="M 400.0 673 h 210"></path></g><path d="M 610.0 673 a 10 10 0 0 0 10 -10 v -181 a 10 10 0 0 0 -10 -10"></path></g><path d="M 620.0 472 h 20"></path></g></g><path d="M 800.0 472 h 20"></path></g></g><path d="M 820.0 472 h 20"></path><path d="M 50.0 472 a 10 10 0 0 1 10 10 v 224 a 10 10 0 0 0 10 10"></path><g>
<path d="M 70.0 716 h 261.0"></path><path d="M 559.0 716 h 261.0"></path><rect class="group-box" height="68" rx="10" ry="10" width="228" x="331.0" y="697"></rect><g>
<path d="M 331.0 716 h 0.0"></path><path d="M 559.0 716 h 0.0"></path><path d="M 331.0 716 h 20"></path><g class="non-terminal ">
<path d="M 351.0 716 h 3.0"></path><path d="M 536.0 716 h 3.0"></path><rect height="22" width="182" x="354.0" y="705"></rect><text x="445.0" y="720">CharWithAttrib.char.style.w</text></g><path d="M 539.0 716 h 20"></path><path d="M 331.0 716 a 10 10 0 0 1 10 10 v 10 a 10 10 0 0 0 10 10"></path><g class="non-terminal ">
<path d="M 351.0 746 h 0.0"></path><path d="M 539.0 746 h 0.0"></path><rect height="22" width="188" x="351.0" y="735"></rect><text x="445.0" y="750">CharWithAttrib.char.style.rb</text></g><path d="M 539.0 746 a 10 10 0 0 0 10 -10 v -10 a 10 10 0 0 1 10 -10"></path></g><g class="non-terminal ">
<path d="M 331.0 689 h 0.0"></path><path d="M 474.0 689 h 0.0"></path><text class="comment" x="402.5" y="694">CharWithAttrib.enum</text></g></g><path d="M 820.0 716 a 10 10 0 0 0 10 -10 v -224 a 10 10 0 0 1 10 -10"></path></g><g class="non-terminal ">
<path d="M 50.0 28 h 0.0"></path><path d="M 88.0 28 h 0.0"></path><text class="comment" x="69.0" y="33">Char</text></g></g><path d="M 840 472 h 10"></path><path d="M 850 472 h 20 m 0 -10 v 20"></path></g></svg>