<svg class="railroad-diagram" height="253" viewBox="0 0 376 253" width="376" xmlns="http://www.w3.org/2000/svg" xmlns:xlink="http://www.w3.org/1999/xlink">
<g transform="translate(.5 .5)">
<style>/* <![CDATA[ */
    svg.railroad-diagram {
        background-color:hsl(30,20%,95%);
    }
    svg.railroad-diagram path {
        stroke-width: 2;
        stroke: black;
        fill: none;
    }
    svg.railroad-diagram text {
        font-size: 12pt;
        text-anchor: middle;
        font-family: DejaVu Sans;
    }
    svg.railroad-diagram text.label {
        text-anchor:start;
    }
    svg.railroad-diagram text.comment {
        font-family: DejaVu Sans;
        font-size: 15pt;
    }
    svg.railroad-diagram rect{
        stroke-width: 2;
        stroke:black;
        fill: rgb(210, 210, 255);
    }
    svg.railroad-diagram rect.group-box {
        stroke: gray;
        stroke-dasharray: 10 5;
        fill: none;
    }
    .terminal {
        font-family: DejaVu Sans;
    }

/* ]]> */
</style><g>
<path d="M 20 195 v 20 m 0 -10 h 20"></path></g><path d="M 40 205 h 10"></path><g>
<path d="M 50 205 h 0.0"></path><path d="M 326.0 205 h 0.0"></path><rect class="group-box" height="197" rx="10" ry="10" width="276" x="50.0" y="36"></rect><g>
<path d="M 50.0 205 h 10.0"></path><path d="M 316.0 205 h 10.0"></path><g class="terminal ">
<path d="M 60.0 205 h 0.0"></path><path d="M 116.0 205 h 0.0"></path><rect height="22" rx="10" ry="10" width="56" x="60.0" y="194"></rect><text x="88.0" y="209">&#60;note></text></g><path d="M 116.0 205 h 10"></path><g>
<path d="M 126.0 205 h 0.0"></path><path d="M 316.0 205 h 0.0"></path><path d="M 126.0 205 a 10 10 0 0 0 10 -10 v -10 a 10 10 0 0 1 10 -10"></path><g>
<path d="M 146.0 175 h 0.0"></path><path d="M 290.0 175 h 0.0"></path><g class="terminal ">
<path d="M 146.0 175 h 0.0"></path><path d="M 226.0 175 h 0.0"></path><rect height="22" rx="10" ry="10" width="80" x="146.0" y="164"></rect><text x="186.0" y="179">@category?</text></g><path d="M 226.0 175 h 10"></path><path d="M 236.0 175 h 10"></path><g class="terminal ">
<path d="M 246.0 175 h 0.0"></path><path d="M 290.0 175 h 0.0"></path><rect height="22" rx="10" ry="10" width="44" x="246.0" y="164"></rect><text x="268.0" y="179">text</text></g></g><path d="M 126.0 205 a 10 10 0 0 0 10 -10 v -40 a 10 10 0 0 1 10 -10"></path><g>
<path d="M 146.0 145 h 0.0"></path><path d="M 272.0 145 h 0.0"></path><g class="terminal ">
<path d="M 146.0 145 h 0.0"></path><path d="M 208.0 145 h 0.0"></path><rect height="22" rx="10" ry="10" width="62" x="146.0" y="134"></rect><text x="177.0" y="149">@caller</text></g><path d="M 208.0 145 h 10"></path><path d="M 218.0 145 h 10"></path><g class="terminal ">
<path d="M 228.0 145 h 0.0"></path><path d="M 272.0 145 h 0.0"></path><rect height="22" rx="10" ry="10" width="44" x="228.0" y="134"></rect><text x="250.0" y="149">text</text></g></g><path d="M 126.0 205 a 10 10 0 0 0 10 -10 v -70 a 10 10 0 0 1 10 -10"></path><g>
<path d="M 146.0 115 h 0.0"></path><path d="M 296.0 115 h 0.0"></path><g class="terminal ">
<path d="M 146.0 115 h 0.0"></path><path d="M 202.0 115 h 0.0"></path><rect height="22" rx="10" ry="10" width="56" x="146.0" y="104"></rect><text x="174.0" y="119">@style</text></g><path d="M 202.0 115 h 10"></path><g>
<path d="M 212.0 115 h 0.0"></path><path d="M 296.0 115 h 0.0"></path><path d="M 212.0 115 a 10 10 0 0 0 10 -10 v -10 a 10 10 0 0 1 10 -10"></path><g class="terminal ">
<path d="M 232.0 85 h 0.0"></path><path d="M 276.0 85 h 0.0"></path><rect height="22" rx="10" ry="10" width="44" x="232.0" y="74"></rect><text x="254.0" y="89">"fe"</text></g><path d="M 212.0 115 a 10 10 0 0 0 10 -10 v -40 a 10 10 0 0 1 10 -10"></path><g class="terminal ">
<path d="M 232.0 55 h 0.0"></path><path d="M 270.0 55 h 0.0"></path><rect height="22" rx="10" ry="10" width="38" x="232.0" y="44"></rect><text x="251.0" y="59">"f"</text></g><path d="M 212.0 115 h 20"></path><g class="terminal ">
<path d="M 232.0 115 h 0.0"></path><path d="M 276.0 115 h 0.0"></path><rect height="22" rx="10" ry="10" width="44" x="232.0" y="104"></rect><text x="254.0" y="119">"ef"</text></g></g></g><path d="M 126.0 205 h 20"></path><g>
<path d="M 146.0 205 h 19.0"></path><path d="M 277.0 205 h 19.0"></path><path d="M 165.0 205 h 10"></path><g class="non-terminal ">
<path d="M 175.0 205 h 0.0"></path><path d="M 267.0 205 h 0.0"></path><rect height="22" width="92" x="175.0" y="194"></rect><text x="221.0" y="209">FootnoteChar</text></g><path d="M 267.0 205 h 10"></path><path d="M 175.0 205 a 10 10 0 0 0 -10 10 v 0 a 10 10 0 0 0 10 10"></path><g>
<path d="M 175.0 225 h 92"></path></g><path d="M 267.0 225 a 10 10 0 0 0 10 -10 v 0 a 10 10 0 0 0 -10 -10"></path></g><path d="M 296.0 205 h 20"></path></g></g><g class="non-terminal ">
<path d="M 50.0 28 h 0.0"></path><path d="M 116.0 28 h 0.0"></path><text class="comment" x="83.0" y="33">Footnote</text></g></g><path d="M 326 205 h 10"></path><path d="M 336 205 h 20 m 0 -10 v 20"></path></g></svg>