<svg class="railroad-diagram" height="624" viewBox="0 0 532 624" width="532" xmlns="http://www.w3.org/2000/svg" xmlns:xlink="http://www.w3.org/1999/xlink">
<g transform="translate(.5 .5)">
<style>/* <![CDATA[ */
    svg.railroad-diagram {
        background-color:hsl(30,20%,95%);
    }
    svg.railroad-diagram path {
        stroke-width: 2;
        stroke: black;
        fill: none;
    }
    svg.railroad-diagram text {
        font-size: 12pt;
        text-anchor: middle;
        font-family: DejaVu Sans;
    }
    svg.railroad-diagram text.label {
        text-anchor:start;
    }
    svg.railroad-diagram text.comment {
        font-family: DejaVu Sans;
        font-size: 15pt;
    }
    svg.railroad-diagram rect{
        stroke-width: 2;
        stroke:black;
        fill: rgb(210, 210, 255);
    }
    svg.railroad-diagram rect.group-box {
        stroke: gray;
        stroke-dasharray: 10 5;
        fill: none;
    }
    .terminal {
        font-family: DejaVu Sans;
    }

/* ]]> */
</style><g>
<path d="M 20 385 v 20 m 0 -10 h 20"></path></g><path d="M 40 395 h 10"></path><g>
<path d="M 50 395 h 0.0"></path><path d="M 482.0 395 h 0.0"></path><rect class="group-box" height="568" rx="10" ry="10" width="432" x="50.0" y="36"></rect><g>
<path d="M 50.0 395 h 10.0"></path><path d="M 472.0 395 h 10.0"></path><g class="terminal ">
<path d="M 60.0 395 h 0.0"></path><path d="M 116.0 395 h 0.0"></path><rect height="22" rx="10" ry="10" width="56" x="60.0" y="384"></rect><text x="88.0" y="399">&#60;char></text></g><path d="M 116.0 395 h 10"></path><g>
<path d="M 126.0 395 h 0.0"></path><path d="M 472.0 395 h 0.0"></path><path d="M 126.0 395 a 10 10 0 0 0 10 -10 v -198 a 10 10 0 0 1 10 -10"></path><g>
<path d="M 146.0 177 h 0.0"></path><path d="M 448.0 177 h 0.0"></path><g class="terminal ">
<path d="M 146.0 177 h 0.0"></path><path d="M 202.0 177 h 0.0"></path><rect height="22" rx="10" ry="10" width="56" x="146.0" y="166"></rect><text x="174.0" y="181">@style</text></g><path d="M 202.0 177 h 10"></path><path d="M 212.0 177 h 10"></path><g>
<path d="M 222.0 177 h 0.0"></path><path d="M 448.0 177 h 0.0"></path><rect class="group-box" height="316" rx="10" ry="10" width="226" x="222.0" y="60"></rect><g>
<path d="M 222.0 177 h 0.0"></path><path d="M 448.0 177 h 0.0"></path><path d="M 222.0 177 a 10 10 0 0 0 10 -10 v -89 a 10 10 0 0 1 10 -10 h 80"></path><path d="M 222.0 177 h 10"></path><g>
<path d="M 232.0 177 h 0.0"></path><path d="M 322.0 177 h 0.0"></path><path d="M 232.0 177 a 10 10 0 0 0 10 -10 v -10 a 10 10 0 0 1 10 -10"></path><g class="terminal ">
<path d="M 252.0 147 h 0.0"></path><path d="M 296.0 147 h 0.0"></path><rect height="22" rx="10" ry="10" width="44" x="252.0" y="136"></rect><text x="274.0" y="151">"ft"</text></g><path d="M 232.0 177 a 10 10 0 0 0 10 -10 v -40 a 10 10 0 0 1 10 -10"></path><g class="terminal ">
<path d="M 252.0 117 h 0.0"></path><path d="M 302.0 117 h 0.0"></path><rect height="22" rx="10" ry="10" width="50" x="252.0" y="106"></rect><text x="277.0" y="121">"cat"</text></g><path d="M 232.0 177 a 10 10 0 0 0 10 -10 v -70 a 10 10 0 0 1 10 -10"></path><g class="terminal ">
<path d="M 252.0 87 h 0.0"></path><path d="M 296.0 87 h 0.0"></path><rect height="22" rx="10" ry="10" width="44" x="252.0" y="76"></rect><text x="274.0" y="91">"fr"</text></g><path d="M 232.0 177 h 20"></path><g class="terminal ">
<path d="M 252.0 177 h 0.0"></path><path d="M 296.0 177 h 0.0"></path><rect height="22" rx="10" ry="10" width="44" x="252.0" y="166"></rect><text x="274.0" y="181">"fk"</text></g><path d="M 232.0 177 a 10 10 0 0 1 10 10 v 10 a 10 10 0 0 0 10 10"></path><g class="terminal ">
<path d="M 252.0 207 h 0.0"></path><path d="M 296.0 207 h 0.0"></path><rect height="22" rx="10" ry="10" width="44" x="252.0" y="196"></rect><text x="274.0" y="211">"fq"</text></g><path d="M 232.0 177 a 10 10 0 0 1 10 10 v 40 a 10 10 0 0 0 10 10"></path><g class="terminal ">
<path d="M 252.0 237 h 0.0"></path><path d="M 302.0 237 h 0.0"></path><rect height="22" rx="10" ry="10" width="50" x="252.0" y="226"></rect><text x="277.0" y="241">"fqa"</text></g><path d="M 232.0 177 a 10 10 0 0 1 10 10 v 70 a 10 10 0 0 0 10 10"></path><g class="terminal ">
<path d="M 252.0 267 h 0.0"></path><path d="M 296.0 267 h 0.0"></path><rect height="22" rx="10" ry="10" width="44" x="252.0" y="256"></rect><text x="274.0" y="271">"fl"</text></g><path d="M 232.0 177 a 10 10 0 0 1 10 10 v 100 a 10 10 0 0 0 10 10"></path><g class="terminal ">
<path d="M 252.0 297 h 0.0"></path><path d="M 296.0 297 h 0.0"></path><rect height="22" rx="10" ry="10" width="44" x="252.0" y="286"></rect><text x="274.0" y="301">"fw"</text></g><path d="M 232.0 177 a 10 10 0 0 1 10 10 v 130 a 10 10 0 0 0 10 10"></path><g class="terminal ">
<path d="M 252.0 327 h 0.0"></path><path d="M 296.0 327 h 0.0"></path><rect height="22" rx="10" ry="10" width="44" x="252.0" y="316"></rect><text x="274.0" y="331">"fp"</text></g><path d="M 232.0 177 a 10 10 0 0 1 10 10 v 160 a 10 10 0 0 0 10 10"></path><g class="terminal ">
<path d="M 252.0 357 h 0.0"></path><path d="M 296.0 357 h 0.0"></path><rect height="22" rx="10" ry="10" width="44" x="252.0" y="346"></rect><text x="274.0" y="361">"fv"</text></g></g><path d="M 322.0 68 a 10 10 0 0 1 10 10 v 89 a 10 10 0 0 0 10 10"></path><g>
<path d="M 342.0 177 h 0.0"></path><path d="M 438.0 177 h 0.0"></path><path d="M 342.0 177 a 10 10 0 0 0 10 -10 v -10 a 10 10 0 0 1 10 -10"></path><g class="terminal ">
<path d="M 362.0 147 h 0.0"></path><path d="M 406.0 147 h 0.0"></path><rect height="22" rx="10" ry="10" width="44" x="362.0" y="136"></rect><text x="384.0" y="151">"it"</text></g><path d="M 342.0 177 a 10 10 0 0 0 10 -10 v -40 a 10 10 0 0 1 10 -10"></path><g class="terminal ">
<path d="M 362.0 117 h 0.0"></path><path d="M 406.0 117 h 0.0"></path><rect height="22" rx="10" ry="10" width="44" x="362.0" y="106"></rect><text x="384.0" y="121">"xt"</text></g><path d="M 342.0 177 a 10 10 0 0 0 10 -10 v -70 a 10 10 0 0 1 10 -10"></path><g class="terminal ">
<path d="M 362.0 87 h 0.0"></path><path d="M 412.0 87 h 0.0"></path><rect height="22" rx="10" ry="10" width="50" x="362.0" y="76"></rect><text x="387.0" y="91">"fdc"</text></g><path d="M 342.0 177 h 20"></path><g class="terminal ">
<path d="M 362.0 177 h 0.0"></path><path d="M 406.0 177 h 0.0"></path><rect height="22" rx="10" ry="10" width="44" x="362.0" y="166"></rect><text x="384.0" y="181">"bd"</text></g><path d="M 342.0 177 a 10 10 0 0 1 10 10 v 10 a 10 10 0 0 0 10 10"></path><g class="terminal ">
<path d="M 362.0 207 h 0.0"></path><path d="M 418.0 207 h 0.0"></path><rect height="22" rx="10" ry="10" width="56" x="362.0" y="196"></rect><text x="390.0" y="211">"bdit"</text></g><path d="M 342.0 177 a 10 10 0 0 1 10 10 v 40 a 10 10 0 0 0 10 10"></path><g class="terminal ">
<path d="M 362.0 237 h 0.0"></path><path d="M 406.0 237 h 0.0"></path><rect height="22" rx="10" ry="10" width="44" x="362.0" y="226"></rect><text x="384.0" y="241">"em"</text></g><path d="M 342.0 177 a 10 10 0 0 1 10 10 v 70 a 10 10 0 0 0 10 10"></path><g class="terminal ">
<path d="M 362.0 267 h 0.0"></path><path d="M 406.0 267 h 0.0"></path><rect height="22" rx="10" ry="10" width="44" x="362.0" y="256"></rect><text x="384.0" y="271">"sc"</text></g></g></g><g class="non-terminal ">
<path d="M 222.0 52 h 0.0"></path><path d="M 428.0 52 h 0.0"></path><text class="comment" x="325.0" y="57">FootnoteChar.char.style.enum</text></g></g></g><path d="M 126.0 395 h 20"></path><g>
<path d="M 146.0 395 h 0.0"></path><path d="M 452.0 395 h 0.0"></path><path d="M 146.0 395 h 10"></path><g>
<path d="M 156.0 395 h 0.0"></path><path d="M 442.0 395 h 0.0"></path><path d="M 156.0 395 h 20"></path><g class="non-terminal ">
<path d="M 176.0 395 h 101.0"></path><path d="M 321.0 395 h 101.0"></path><rect height="22" width="44" x="277.0" y="384"></rect><text x="299.0" y="399">Char</text></g><path d="M 422.0 395 h 20"></path><path d="M 156.0 395 a 10 10 0 0 1 10 10 v 10 a 10 10 0 0 0 10 10"></path><g class="non-terminal ">
<path d="M 176.0 425 h 77.0"></path><path d="M 345.0 425 h 77.0"></path><rect height="22" width="92" x="253.0" y="414"></rect><text x="299.0" y="429">FootnoteChar</text></g><path d="M 422.0 425 a 10 10 0 0 0 10 -10 v -10 a 10 10 0 0 1 10 -10"></path><path d="M 156.0 395 a 10 10 0 0 1 10 10 v 94 a 10 10 0 0 0 10 10"></path><g>
<path d="M 176.0 509 h 0.0"></path><path d="M 422.0 509 h 0.0"></path><rect class="group-box" height="68" rx="10" ry="10" width="246" x="176.0" y="460"></rect><g>
<path d="M 176.0 509 h 10.0"></path><path d="M 412.0 509 h 10.0"></path><g class="terminal ">
<path d="M 186.0 509 h 0.0"></path><path d="M 242.0 509 h 0.0"></path><rect height="22" rx="10" ry="10" width="56" x="186.0" y="498"></rect><text x="214.0" y="513">&#60;char></text></g><path d="M 242.0 509 h 10"></path><g>
<path d="M 252.0 509 h 0.0"></path><path d="M 412.0 509 h 0.0"></path><path d="M 252.0 509 a 10 10 0 0 0 10 -10 v -10 a 10 10 0 0 1 10 -10"></path><g>
<path d="M 272.0 479 h 0.0"></path><path d="M 392.0 479 h 0.0"></path><g class="terminal ">
<path d="M 272.0 479 h 0.0"></path><path d="M 328.0 479 h 0.0"></path><rect height="22" rx="10" ry="10" width="56" x="272.0" y="468"></rect><text x="300.0" y="483">@style</text></g><path d="M 328.0 479 h 10"></path><path d="M 338.0 479 h 10"></path><g class="terminal ">
<path d="M 348.0 479 h 0.0"></path><path d="M 392.0 479 h 0.0"></path><rect height="22" rx="10" ry="10" width="44" x="348.0" y="468"></rect><text x="370.0" y="483">"fv"</text></g></g><path d="M 252.0 509 h 20"></path><g class="terminal ">
<path d="M 272.0 509 h 38.0"></path><path d="M 354.0 509 h 38.0"></path><rect height="22" rx="10" ry="10" width="44" x="310.0" y="498"></rect><text x="332.0" y="513">text</text></g><path d="M 392.0 509 h 20"></path></g></g><g class="non-terminal ">
<path d="M 176.0 452 h 0.0"></path><path d="M 277.0 452 h 0.0"></path><text class="comment" x="226.5" y="457">FootnoteVerse</text></g></g><path d="M 422.0 509 a 10 10 0 0 0 10 -10 v -94 a 10 10 0 0 1 10 -10"></path><path d="M 156.0 395 a 10 10 0 0 1 10 10 v 132 a 10 10 0 0 0 10 10"></path><g class="non-terminal ">
<path d="M 176.0 547 h 86.0"></path><path d="M 336.0 547 h 86.0"></path><rect height="22" width="74" x="262.0" y="536"></rect><text x="299.0" y="551">Reference</text></g><path d="M 422.0 547 a 10 10 0 0 0 10 -10 v -132 a 10 10 0 0 1 10 -10"></path><path d="M 156.0 395 a 10 10 0 0 1 10 10 v 162 a 10 10 0 0 0 10 10"></path><g class="terminal ">
<path d="M 176.0 577 h 101.0"></path><path d="M 321.0 577 h 101.0"></path><rect height="22" rx="10" ry="10" width="44" x="277.0" y="566"></rect><text x="299.0" y="581">text</text></g><path d="M 422.0 577 a 10 10 0 0 0 10 -10 v -162 a 10 10 0 0 1 10 -10"></path></g><path d="M 442.0 395 h 10"></path><path d="M 156.0 395 a 10 10 0 0 0 -10 10 v 181 a 10 10 0 0 0 10 10"></path><g>
<path d="M 156.0 596 h 286"></path></g><path d="M 442.0 596 a 10 10 0 0 0 10 -10 v -181 a 10 10 0 0 0 -10 -10"></path></g><path d="M 452.0 395 h 20"></path></g></g><g class="non-terminal ">
<path d="M 50.0 28 h 0.0"></path><path d="M 144.0 28 h 0.0"></path><text class="comment" x="97.0" y="33">FootnoteChar</text></g></g><path d="M 482 395 h 10"></path><path d="M 492 395 h 20 m 0 -10 v 20"></path></g></svg>