<svg class="railroad-diagram" height="572" viewBox="0 0 632 572" width="632" xmlns="http://www.w3.org/2000/svg" xmlns:xlink="http://www.w3.org/1999/xlink">
<g transform="translate(.5 .5)">
<style>/* <![CDATA[ */
    svg.railroad-diagram {
        background-color:hsl(30,20%,95%);
    }
    svg.railroad-diagram path {
        stroke-width: 2;
        stroke: black;
        fill: none;
    }
    svg.railroad-diagram text {
        font-size: 12pt;
        text-anchor: middle;
        font-family: DejaVu Sans
    }
    svg.railroad-diagram text.label {
        text-anchor:start;
    }
    svg.railroad-diagram text.comment {
        font-family: DejaVu Sans;
        font-size: 15pt;
    }
    svg.railroad-diagram rect{
        stroke-width: 2;
        stroke:black;
        fill: rgb(210, 255, 210);
    }
    svg.railroad-diagram rect.group-box {
        stroke: gray;
        stroke-dasharray: 10 5;
        fill: none;
    }
    .terminal {
        font-family: DejaVu Sans;
    }

/* ]]> */
</style><g>
<path d="M 20 333 v 20 m 0 -10 h 20"></path></g><path d="M 40 343 h 10"></path><g>
<path d="M 50 343 h 0.0"></path><path d="M 582.0 343 h 0.0"></path><rect class="group-box" height="516" rx="10" ry="10" width="532" x="50.0" y="36"></rect><g>
<path d="M 50.0 343 h 10.0"></path><path d="M 572.0 343 h 10.0"></path><g class="terminal ">
<path d="M 60.0 343 h 0.0"></path><path d="M 116.0 343 h 0.0"></path><rect height="22" rx="10" ry="10" width="56" x="60.0" y="332"></rect><text x="88.0" y="347">&#60;char></text></g><path d="M 116.0 343 h 10"></path><g>
<path d="M 126.0 343 h 0.0"></path><path d="M 572.0 343 h 0.0"></path><path d="M 126.0 343 a 10 10 0 0 0 10 -10 v -146 a 10 10 0 0 1 10 -10"></path><g>
<path d="M 146.0 177 h 0.0"></path><path d="M 552.0 177 h 0.0"></path><g class="terminal ">
<path d="M 146.0 177 h 0.0"></path><path d="M 202.0 177 h 0.0"></path><rect height="22" rx="10" ry="10" width="56" x="146.0" y="166"></rect><text x="174.0" y="181">@style</text></g><path d="M 202.0 177 h 10"></path><path d="M 212.0 177 h 10"></path><g>
<path d="M 222.0 177 h 0.0"></path><path d="M 552.0 177 h 0.0"></path><rect class="group-box" height="264" rx="10" ry="10" width="330" x="222.0" y="60"></rect><g>
<path d="M 222.0 177 h 0.0"></path><path d="M 552.0 177 h 0.0"></path><path d="M 222.0 177 a 10 10 0 0 0 10 -10 v -89 a 10 10 0 0 1 10 -10 h 196"></path><path d="M 222.0 177 h 10"></path><g>
<path d="M 232.0 177 h 0.0"></path><path d="M 322.0 177 h 0.0"></path><path d="M 232.0 177 a 10 10 0 0 0 10 -10 v -10 a 10 10 0 0 1 10 -10"></path><g class="terminal ">
<path d="M 252.0 147 h 0.0"></path><path d="M 296.0 147 h 0.0"></path><rect height="22" rx="10" ry="10" width="44" x="252.0" y="136"></rect><text x="274.0" y="151">"ft"</text></g><path d="M 232.0 177 a 10 10 0 0 0 10 -10 v -40 a 10 10 0 0 1 10 -10"></path><g class="terminal ">
<path d="M 252.0 117 h 0.0"></path><path d="M 302.0 117 h 0.0"></path><rect height="22" rx="10" ry="10" width="50" x="252.0" y="106"></rect><text x="277.0" y="121">"cat"</text></g><path d="M 232.0 177 a 10 10 0 0 0 10 -10 v -70 a 10 10 0 0 1 10 -10"></path><g class="terminal ">
<path d="M 252.0 87 h 0.0"></path><path d="M 296.0 87 h 0.0"></path><rect height="22" rx="10" ry="10" width="44" x="252.0" y="76"></rect><text x="274.0" y="91">"fr"</text></g><path d="M 232.0 177 h 20"></path><g class="terminal ">
<path d="M 252.0 177 h 0.0"></path><path d="M 296.0 177 h 0.0"></path><rect height="22" rx="10" ry="10" width="44" x="252.0" y="166"></rect><text x="274.0" y="181">"fk"</text></g><path d="M 232.0 177 a 10 10 0 0 1 10 10 v 10 a 10 10 0 0 0 10 10"></path><g class="terminal ">
<path d="M 252.0 207 h 0.0"></path><path d="M 296.0 207 h 0.0"></path><rect height="22" rx="10" ry="10" width="44" x="252.0" y="196"></rect><text x="274.0" y="211">"fq"</text></g><path d="M 232.0 177 a 10 10 0 0 1 10 10 v 40 a 10 10 0 0 0 10 10"></path><g class="terminal ">
<path d="M 252.0 237 h 0.0"></path><path d="M 302.0 237 h 0.0"></path><rect height="22" rx="10" ry="10" width="50" x="252.0" y="226"></rect><text x="277.0" y="241">"fqa"</text></g><path d="M 232.0 177 a 10 10 0 0 1 10 10 v 70 a 10 10 0 0 0 10 10"></path><g class="terminal ">
<path d="M 252.0 267 h 0.0"></path><path d="M 296.0 267 h 0.0"></path><rect height="22" rx="10" ry="10" width="44" x="252.0" y="256"></rect><text x="274.0" y="271">"fl"</text></g><path d="M 232.0 177 a 10 10 0 0 1 10 10 v 100 a 10 10 0 0 0 10 10"></path><g class="terminal ">
<path d="M 252.0 297 h 0.0"></path><path d="M 296.0 297 h 0.0"></path><rect height="22" rx="10" ry="10" width="44" x="252.0" y="286"></rect><text x="274.0" y="301">"fw"</text></g></g><path d="M 322.0 68 a 10 10 0 0 1 10 10 v 89 a 10 10 0 0 0 10 10"></path><g>
<path d="M 342.0 177 h 0.0"></path><path d="M 438.0 177 h 0.0"></path><path d="M 342.0 177 a 10 10 0 0 0 10 -10 v -10 a 10 10 0 0 1 10 -10"></path><g class="terminal ">
<path d="M 362.0 147 h 0.0"></path><path d="M 412.0 147 h 0.0"></path><rect height="22" rx="10" ry="10" width="50" x="362.0" y="136"></rect><text x="387.0" y="151">"fdc"</text></g><path d="M 342.0 177 a 10 10 0 0 0 10 -10 v -40 a 10 10 0 0 1 10 -10"></path><g class="terminal ">
<path d="M 362.0 117 h 0.0"></path><path d="M 406.0 117 h 0.0"></path><rect height="22" rx="10" ry="10" width="44" x="362.0" y="106"></rect><text x="384.0" y="121">"fv"</text></g><path d="M 342.0 177 a 10 10 0 0 0 10 -10 v -70 a 10 10 0 0 1 10 -10"></path><g class="terminal ">
<path d="M 362.0 87 h 0.0"></path><path d="M 406.0 87 h 0.0"></path><rect height="22" rx="10" ry="10" width="44" x="362.0" y="76"></rect><text x="384.0" y="91">"fp"</text></g><path d="M 342.0 177 h 20"></path><g class="terminal ">
<path d="M 362.0 177 h 0.0"></path><path d="M 406.0 177 h 0.0"></path><rect height="22" rx="10" ry="10" width="44" x="362.0" y="166"></rect><text x="384.0" y="181">"xt"</text></g><path d="M 342.0 177 a 10 10 0 0 1 10 10 v 10 a 10 10 0 0 0 10 10"></path><g class="terminal ">
<path d="M 362.0 207 h 0.0"></path><path d="M 406.0 207 h 0.0"></path><rect height="22" rx="10" ry="10" width="44" x="362.0" y="196"></rect><text x="384.0" y="211">"it"</text></g><path d="M 342.0 177 a 10 10 0 0 1 10 10 v 40 a 10 10 0 0 0 10 10"></path><g class="terminal ">
<path d="M 362.0 237 h 0.0"></path><path d="M 406.0 237 h 0.0"></path><rect height="22" rx="10" ry="10" width="44" x="362.0" y="226"></rect><text x="384.0" y="241">"bd"</text></g><path d="M 342.0 177 a 10 10 0 0 1 10 10 v 70 a 10 10 0 0 0 10 10"></path><g class="terminal ">
<path d="M 362.0 267 h 0.0"></path><path d="M 418.0 267 h 0.0"></path><rect height="22" rx="10" ry="10" width="56" x="362.0" y="256"></rect><text x="390.0" y="271">"bdit"</text></g><path d="M 342.0 177 a 10 10 0 0 1 10 10 v 100 a 10 10 0 0 0 10 10"></path><g class="terminal ">
<path d="M 362.0 297 h 0.0"></path><path d="M 406.0 297 h 0.0"></path><rect height="22" rx="10" ry="10" width="44" x="362.0" y="286"></rect><text x="384.0" y="301">"em"</text></g></g><path d="M 438.0 68 a 10 10 0 0 1 10 10 v 89 a 10 10 0 0 0 10 10"></path><g>
<path d="M 458.0 177 h 0.0"></path><path d="M 542.0 177 h 0.0"></path><path d="M 458.0 177 h 20"></path><g class="terminal ">
<path d="M 478.0 177 h 0.0"></path><path d="M 522.0 177 h 0.0"></path><rect height="22" rx="10" ry="10" width="44" x="478.0" y="166"></rect><text x="500.0" y="181">"sc"</text></g></g></g><g class="non-terminal ">
<path d="M 222.0 52 h 0.0"></path><path d="M 428.0 52 h 0.0"></path><text class="comment" x="325.0" y="57">FootnoteChar.char.style.enum</text></g></g></g><path d="M 126.0 343 h 20"></path><g>
<path d="M 146.0 343 h 50.0"></path><path d="M 502.0 343 h 50.0"></path><path d="M 196.0 343 h 10"></path><g>
<path d="M 206.0 343 h 0.0"></path><path d="M 492.0 343 h 0.0"></path><path d="M 206.0 343 h 20"></path><g class="non-terminal ">
<path d="M 226.0 343 h 101.0"></path><path d="M 371.0 343 h 101.0"></path><rect height="22" width="44" x="327.0" y="332"></rect><text x="349.0" y="347">Char</text></g><path d="M 472.0 343 h 20"></path><path d="M 206.0 343 a 10 10 0 0 1 10 10 v 10 a 10 10 0 0 0 10 10"></path><g class="non-terminal ">
<path d="M 226.0 373 h 77.0"></path><path d="M 395.0 373 h 77.0"></path><rect height="22" width="92" x="303.0" y="362"></rect><text x="349.0" y="377">FootnoteChar</text></g><path d="M 472.0 373 a 10 10 0 0 0 10 -10 v -10 a 10 10 0 0 1 10 -10"></path><path d="M 206.0 343 a 10 10 0 0 1 10 10 v 94 a 10 10 0 0 0 10 10"></path><g>
<path d="M 226.0 457 h 0.0"></path><path d="M 472.0 457 h 0.0"></path><rect class="group-box" height="68" rx="10" ry="10" width="246" x="226.0" y="408"></rect><g>
<path d="M 226.0 457 h 10.0"></path><path d="M 462.0 457 h 10.0"></path><g class="terminal ">
<path d="M 236.0 457 h 0.0"></path><path d="M 292.0 457 h 0.0"></path><rect height="22" rx="10" ry="10" width="56" x="236.0" y="446"></rect><text x="264.0" y="461">&#60;char></text></g><path d="M 292.0 457 h 10"></path><g>
<path d="M 302.0 457 h 0.0"></path><path d="M 462.0 457 h 0.0"></path><path d="M 302.0 457 a 10 10 0 0 0 10 -10 v -10 a 10 10 0 0 1 10 -10"></path><g>
<path d="M 322.0 427 h 0.0"></path><path d="M 442.0 427 h 0.0"></path><g class="terminal ">
<path d="M 322.0 427 h 0.0"></path><path d="M 378.0 427 h 0.0"></path><rect height="22" rx="10" ry="10" width="56" x="322.0" y="416"></rect><text x="350.0" y="431">@style</text></g><path d="M 378.0 427 h 10"></path><path d="M 388.0 427 h 10"></path><g class="terminal ">
<path d="M 398.0 427 h 0.0"></path><path d="M 442.0 427 h 0.0"></path><rect height="22" rx="10" ry="10" width="44" x="398.0" y="416"></rect><text x="420.0" y="431">"fv"</text></g></g><path d="M 302.0 457 h 20"></path><g class="terminal ">
<path d="M 322.0 457 h 38.0"></path><path d="M 404.0 457 h 38.0"></path><rect height="22" rx="10" ry="10" width="44" x="360.0" y="446"></rect><text x="382.0" y="461">text</text></g><path d="M 442.0 457 h 20"></path></g></g><g class="non-terminal ">
<path d="M 226.0 400 h 0.0"></path><path d="M 327.0 400 h 0.0"></path><text class="comment" x="276.5" y="405">FootnoteVerse</text></g></g><path d="M 472.0 457 a 10 10 0 0 0 10 -10 v -94 a 10 10 0 0 1 10 -10"></path><path d="M 206.0 343 a 10 10 0 0 1 10 10 v 132 a 10 10 0 0 0 10 10"></path><g class="non-terminal ">
<path d="M 226.0 495 h 86.0"></path><path d="M 386.0 495 h 86.0"></path><rect height="22" width="74" x="312.0" y="484"></rect><text x="349.0" y="499">Reference</text></g><path d="M 472.0 495 a 10 10 0 0 0 10 -10 v -132 a 10 10 0 0 1 10 -10"></path><path d="M 206.0 343 a 10 10 0 0 1 10 10 v 162 a 10 10 0 0 0 10 10"></path><g class="terminal ">
<path d="M 226.0 525 h 101.0"></path><path d="M 371.0 525 h 101.0"></path><rect height="22" rx="10" ry="10" width="44" x="327.0" y="514"></rect><text x="349.0" y="529">text</text></g><path d="M 472.0 525 a 10 10 0 0 0 10 -10 v -162 a 10 10 0 0 1 10 -10"></path></g><path d="M 492.0 343 h 10"></path><path d="M 206.0 343 a 10 10 0 0 0 -10 10 v 181 a 10 10 0 0 0 10 10"></path><g>
<path d="M 206.0 544 h 286"></path></g><path d="M 492.0 544 a 10 10 0 0 0 10 -10 v -181 a 10 10 0 0 0 -10 -10"></path></g><path d="M 552.0 343 h 20"></path></g></g><g class="non-terminal ">
<path d="M 50.0 28 h 0.0"></path><path d="M 144.0 28 h 0.0"></path><text class="comment" x="97.0" y="33">FootnoteChar</text></g></g><path d="M 582 343 h 10"></path><path d="M 592 343 h 20 m 0 -10 v 20"></path></g></svg>