<svg class="railroad-diagram" height="692" viewBox="0 0 1328 692" width="1328" xmlns="http://www.w3.org/2000/svg" xmlns:xlink="http://www.w3.org/1999/xlink">
<g transform="translate(.5 .5)">
<style>/* <![CDATA[ */
    svg.railroad-diagram {
        background-color:hsl(30,20%,95%);
    }
    svg.railroad-diagram path {
        stroke-width: 2;
        stroke: black;
        fill: none;
    }
    svg.railroad-diagram text {
        font-size: 12pt;
        text-anchor: middle;
        font-family: DejaVu Sans
    }
    svg.railroad-diagram text.label {
        text-anchor:start;
    }
    svg.railroad-diagram text.comment {
        font-family: DejaVu Sans;
        font-size: 15pt;
    }
    svg.railroad-diagram rect{
        stroke-width: 2;
        stroke:black;
        fill: rgb(210, 255, 210);
    }
    svg.railroad-diagram rect.group-box {
        stroke: gray;
        stroke-dasharray: 10 5;
        fill: none;
    }
    .terminal {
        font-family: DejaVu Sans;
    }

/* ]]> */
</style><g>
<path d="M 20 363 v 20 m 0 -10 h 20"></path></g><path d="M 40 373 h 10"></path><g>
<path d="M 50 373 h 0.0"></path><path d="M 1278.0 373 h 0.0"></path><rect class="group-box" height="636" rx="10" ry="10" width="1228" x="50.0" y="36"></rect><g>
<path d="M 50.0 373 h 10.0"></path><path d="M 1268.0 373 h 10.0"></path><g class="terminal ">
<path d="M 60.0 373 h 0.0"></path><path d="M 116.0 373 h 0.0"></path><rect height="22" rx="10" ry="10" width="56" x="60.0" y="362"></rect><text x="88.0" y="377">&#60;para></text></g><path d="M 116.0 373 h 10"></path><g>
<path d="M 126.0 373 h 0.0"></path><path d="M 1268.0 373 h 0.0"></path><path d="M 126.0 373 a 10 10 0 0 0 10 -10 v -10 a 10 10 0 0 1 10 -10"></path><g>
<path d="M 146.0 343 h 0.0"></path><path d="M 266.0 343 h 0.0"></path><g class="terminal ">
<path d="M 146.0 343 h 0.0"></path><path d="M 190.0 343 h 0.0"></path><rect height="22" rx="10" ry="10" width="44" x="146.0" y="332"></rect><text x="168.0" y="347">@vid</text></g><path d="M 190.0 343 h 10"></path><path d="M 200.0 343 h 10"></path><g class="terminal ">
<path d="M 210.0 343 h 0.0"></path><path d="M 266.0 343 h 0.0"></path><rect height="22" rx="10" ry="10" width="56" x="210.0" y="332"></rect><text x="238.0" y="347">string</text></g></g><path d="M 126.0 373 a 10 10 0 0 0 10 -10 v -176 a 10 10 0 0 1 10 -10"></path><g>
<path d="M 146.0 177 h 0.0"></path><path d="M 1248.0 177 h 0.0"></path><g class="terminal ">
<path d="M 146.0 177 h 0.0"></path><path d="M 202.0 177 h 0.0"></path><rect height="22" rx="10" ry="10" width="56" x="146.0" y="166"></rect><text x="174.0" y="181">@style</text></g><path d="M 202.0 177 h 10"></path><path d="M 212.0 177 h 10"></path><g>
<path d="M 222.0 177 h 0.0"></path><path d="M 1248.0 177 h 0.0"></path><rect class="group-box" height="264" rx="10" ry="10" width="1026" x="222.0" y="60"></rect><g>
<path d="M 222.0 177 h 0.0"></path><path d="M 1248.0 177 h 0.0"></path><path d="M 222.0 177 a 10 10 0 0 0 10 -10 v -89 a 10 10 0 0 1 10 -10 h 880"></path><path d="M 222.0 177 h 10"></path><g>
<path d="M 232.0 177 h 0.0"></path><path d="M 346.0 177 h 0.0"></path><path d="M 232.0 177 a 10 10 0 0 0 10 -10 v -10 a 10 10 0 0 1 10 -10"></path><g class="terminal ">
<path d="M 252.0 147 h 0.0"></path><path d="M 302.0 147 h 0.0"></path><rect height="22" rx="10" ry="10" width="50" x="252.0" y="136"></rect><text x="277.0" y="151">"iex"</text></g><path d="M 232.0 177 a 10 10 0 0 0 10 -10 v -40 a 10 10 0 0 1 10 -10"></path><g class="terminal ">
<path d="M 252.0 117 h 0.0"></path><path d="M 302.0 117 h 0.0"></path><rect height="22" rx="10" ry="10" width="50" x="252.0" y="106"></rect><text x="277.0" y="121">"cls"</text></g><path d="M 232.0 177 a 10 10 0 0 0 10 -10 v -70 a 10 10 0 0 1 10 -10"></path><g class="terminal ">
<path d="M 252.0 87 h 0.0"></path><path d="M 326.0 87 h 0.0"></path><rect height="22" rx="10" ry="10" width="74" x="252.0" y="76"></rect><text x="289.0" y="91">"restore"</text></g><path d="M 232.0 177 h 20"></path><g class="terminal ">
<path d="M 252.0 177 h 0.0"></path><path d="M 296.0 177 h 0.0"></path><rect height="22" rx="10" ry="10" width="44" x="252.0" y="166"></rect><text x="274.0" y="181">"ip"</text></g><path d="M 232.0 177 a 10 10 0 0 1 10 10 v 10 a 10 10 0 0 0 10 10"></path><g class="terminal ">
<path d="M 252.0 207 h 0.0"></path><path d="M 302.0 207 h 0.0"></path><rect height="22" rx="10" ry="10" width="50" x="252.0" y="196"></rect><text x="277.0" y="211">"lit"</text></g><path d="M 232.0 177 a 10 10 0 0 1 10 10 v 40 a 10 10 0 0 0 10 10"></path><g class="terminal ">
<path d="M 252.0 237 h 0.0"></path><path d="M 290.0 237 h 0.0"></path><rect height="22" rx="10" ry="10" width="38" x="252.0" y="226"></rect><text x="271.0" y="241">"m"</text></g><path d="M 232.0 177 a 10 10 0 0 1 10 10 v 70 a 10 10 0 0 0 10 10"></path><g class="terminal ">
<path d="M 252.0 267 h 0.0"></path><path d="M 296.0 267 h 0.0"></path><rect height="22" rx="10" ry="10" width="44" x="252.0" y="256"></rect><text x="274.0" y="271">"mi"</text></g><path d="M 232.0 177 a 10 10 0 0 1 10 10 v 100 a 10 10 0 0 0 10 10"></path><g class="terminal ">
<path d="M 252.0 297 h 0.0"></path><path d="M 296.0 297 h 0.0"></path><rect height="22" rx="10" ry="10" width="44" x="252.0" y="286"></rect><text x="274.0" y="301">"nb"</text></g></g><path d="M 346.0 68 a 10 10 0 0 1 10 10 v 89 a 10 10 0 0 0 10 10"></path><g>
<path d="M 366.0 177 h 0.0"></path><path d="M 456.0 177 h 0.0"></path><path d="M 366.0 177 a 10 10 0 0 0 10 -10 v -10 a 10 10 0 0 1 10 -10"></path><g class="terminal ">
<path d="M 386.0 147 h 0.0"></path><path d="M 430.0 147 h 0.0"></path><rect height="22" rx="10" ry="10" width="44" x="386.0" y="136"></rect><text x="408.0" y="151">"pc"</text></g><path d="M 366.0 177 a 10 10 0 0 0 10 -10 v -40 a 10 10 0 0 1 10 -10"></path><g class="terminal ">
<path d="M 386.0 117 h 0.0"></path><path d="M 430.0 117 h 0.0"></path><rect height="22" rx="10" ry="10" width="44" x="386.0" y="106"></rect><text x="408.0" y="121">"pb"</text></g><path d="M 366.0 177 a 10 10 0 0 0 10 -10 v -70 a 10 10 0 0 1 10 -10"></path><g class="terminal ">
<path d="M 386.0 87 h 0.0"></path><path d="M 424.0 87 h 0.0"></path><rect height="22" rx="10" ry="10" width="38" x="386.0" y="76"></rect><text x="405.0" y="91">"p"</text></g><path d="M 366.0 177 h 20"></path><g class="terminal ">
<path d="M 386.0 177 h 0.0"></path><path d="M 430.0 177 h 0.0"></path><rect height="22" rx="10" ry="10" width="44" x="386.0" y="166"></rect><text x="408.0" y="181">"pi"</text></g><path d="M 366.0 177 a 10 10 0 0 1 10 10 v 10 a 10 10 0 0 0 10 10"></path><g class="terminal ">
<path d="M 386.0 207 h 0.0"></path><path d="M 436.0 207 h 0.0"></path><rect height="22" rx="10" ry="10" width="50" x="386.0" y="196"></rect><text x="411.0" y="211">"pi1"</text></g><path d="M 366.0 177 a 10 10 0 0 1 10 10 v 40 a 10 10 0 0 0 10 10"></path><g class="terminal ">
<path d="M 386.0 237 h 0.0"></path><path d="M 436.0 237 h 0.0"></path><rect height="22" rx="10" ry="10" width="50" x="386.0" y="226"></rect><text x="411.0" y="241">"pi2"</text></g><path d="M 366.0 177 a 10 10 0 0 1 10 10 v 70 a 10 10 0 0 0 10 10"></path><g class="terminal ">
<path d="M 386.0 267 h 0.0"></path><path d="M 436.0 267 h 0.0"></path><rect height="22" rx="10" ry="10" width="50" x="386.0" y="256"></rect><text x="411.0" y="271">"pi3"</text></g><path d="M 366.0 177 a 10 10 0 0 1 10 10 v 100 a 10 10 0 0 0 10 10"></path><g class="terminal ">
<path d="M 386.0 297 h 0.0"></path><path d="M 430.0 297 h 0.0"></path><rect height="22" rx="10" ry="10" width="44" x="386.0" y="286"></rect><text x="408.0" y="301">"po"</text></g></g><path d="M 456.0 68 a 10 10 0 0 1 10 10 v 89 a 10 10 0 0 0 10 10"></path><g>
<path d="M 476.0 177 h 0.0"></path><path d="M 566.0 177 h 0.0"></path><path d="M 476.0 177 a 10 10 0 0 0 10 -10 v -10 a 10 10 0 0 1 10 -10"></path><g class="terminal ">
<path d="M 496.0 147 h 0.0"></path><path d="M 540.0 147 h 0.0"></path><rect height="22" rx="10" ry="10" width="44" x="496.0" y="136"></rect><text x="518.0" y="151">"pm"</text></g><path d="M 476.0 177 a 10 10 0 0 0 10 -10 v -40 a 10 10 0 0 1 10 -10"></path><g class="terminal ">
<path d="M 496.0 117 h 0.0"></path><path d="M 546.0 117 h 0.0"></path><rect height="22" rx="10" ry="10" width="50" x="496.0" y="106"></rect><text x="521.0" y="121">"pmo"</text></g><path d="M 476.0 177 a 10 10 0 0 0 10 -10 v -70 a 10 10 0 0 1 10 -10"></path><g class="terminal ">
<path d="M 496.0 87 h 0.0"></path><path d="M 540.0 87 h 0.0"></path><rect height="22" rx="10" ry="10" width="44" x="496.0" y="76"></rect><text x="518.0" y="91">"pr"</text></g><path d="M 476.0 177 h 20"></path><g class="terminal ">
<path d="M 496.0 177 h 0.0"></path><path d="M 546.0 177 h 0.0"></path><rect height="22" rx="10" ry="10" width="50" x="496.0" y="166"></rect><text x="521.0" y="181">"pmc"</text></g><path d="M 476.0 177 a 10 10 0 0 1 10 10 v 10 a 10 10 0 0 0 10 10"></path><g class="terminal ">
<path d="M 496.0 207 h 0.0"></path><path d="M 546.0 207 h 0.0"></path><rect height="22" rx="10" ry="10" width="50" x="496.0" y="196"></rect><text x="521.0" y="211">"pmr"</text></g><path d="M 476.0 177 a 10 10 0 0 1 10 10 v 40 a 10 10 0 0 0 10 10"></path><g class="terminal ">
<path d="M 496.0 237 h 0.0"></path><path d="M 540.0 237 h 0.0"></path><rect height="22" rx="10" ry="10" width="44" x="496.0" y="226"></rect><text x="518.0" y="241">"ph"</text></g><path d="M 476.0 177 a 10 10 0 0 1 10 10 v 70 a 10 10 0 0 0 10 10"></path><g class="terminal ">
<path d="M 496.0 267 h 0.0"></path><path d="M 546.0 267 h 0.0"></path><rect height="22" rx="10" ry="10" width="50" x="496.0" y="256"></rect><text x="521.0" y="271">"ph1"</text></g><path d="M 476.0 177 a 10 10 0 0 1 10 10 v 100 a 10 10 0 0 0 10 10"></path><g class="terminal ">
<path d="M 496.0 297 h 0.0"></path><path d="M 546.0 297 h 0.0"></path><rect height="22" rx="10" ry="10" width="50" x="496.0" y="286"></rect><text x="521.0" y="301">"ph2"</text></g></g><path d="M 566.0 68 a 10 10 0 0 1 10 10 v 89 a 10 10 0 0 0 10 10"></path><g>
<path d="M 586.0 177 h 0.0"></path><path d="M 676.0 177 h 0.0"></path><path d="M 586.0 177 a 10 10 0 0 0 10 -10 v -10 a 10 10 0 0 1 10 -10"></path><g class="terminal ">
<path d="M 606.0 147 h 0.0"></path><path d="M 650.0 147 h 0.0"></path><rect height="22" rx="10" ry="10" width="44" x="606.0" y="136"></rect><text x="628.0" y="151">"q1"</text></g><path d="M 586.0 177 a 10 10 0 0 0 10 -10 v -40 a 10 10 0 0 1 10 -10"></path><g class="terminal ">
<path d="M 606.0 117 h 0.0"></path><path d="M 644.0 117 h 0.0"></path><rect height="22" rx="10" ry="10" width="38" x="606.0" y="106"></rect><text x="625.0" y="121">"q"</text></g><path d="M 586.0 177 a 10 10 0 0 0 10 -10 v -70 a 10 10 0 0 1 10 -10"></path><g class="terminal ">
<path d="M 606.0 87 h 0.0"></path><path d="M 656.0 87 h 0.0"></path><rect height="22" rx="10" ry="10" width="50" x="606.0" y="76"></rect><text x="631.0" y="91">"ph3"</text></g><path d="M 586.0 177 h 20"></path><g class="terminal ">
<path d="M 606.0 177 h 0.0"></path><path d="M 650.0 177 h 0.0"></path><rect height="22" rx="10" ry="10" width="44" x="606.0" y="166"></rect><text x="628.0" y="181">"q2"</text></g><path d="M 586.0 177 a 10 10 0 0 1 10 10 v 10 a 10 10 0 0 0 10 10"></path><g class="terminal ">
<path d="M 606.0 207 h 0.0"></path><path d="M 650.0 207 h 0.0"></path><rect height="22" rx="10" ry="10" width="44" x="606.0" y="196"></rect><text x="628.0" y="211">"q3"</text></g><path d="M 586.0 177 a 10 10 0 0 1 10 10 v 40 a 10 10 0 0 0 10 10"></path><g class="terminal ">
<path d="M 606.0 237 h 0.0"></path><path d="M 650.0 237 h 0.0"></path><rect height="22" rx="10" ry="10" width="44" x="606.0" y="226"></rect><text x="628.0" y="241">"q4"</text></g><path d="M 586.0 177 a 10 10 0 0 1 10 10 v 70 a 10 10 0 0 0 10 10"></path><g class="terminal ">
<path d="M 606.0 267 h 0.0"></path><path d="M 650.0 267 h 0.0"></path><rect height="22" rx="10" ry="10" width="44" x="606.0" y="256"></rect><text x="628.0" y="271">"qa"</text></g><path d="M 586.0 177 a 10 10 0 0 1 10 10 v 100 a 10 10 0 0 0 10 10"></path><g class="terminal ">
<path d="M 606.0 297 h 0.0"></path><path d="M 650.0 297 h 0.0"></path><rect height="22" rx="10" ry="10" width="44" x="606.0" y="286"></rect><text x="628.0" y="301">"qc"</text></g></g><path d="M 676.0 68 a 10 10 0 0 1 10 10 v 89 a 10 10 0 0 0 10 10"></path><g>
<path d="M 696.0 177 h 0.0"></path><path d="M 786.0 177 h 0.0"></path><path d="M 696.0 177 a 10 10 0 0 0 10 -10 v -10 a 10 10 0 0 1 10 -10"></path><g class="terminal ">
<path d="M 716.0 147 h 0.0"></path><path d="M 766.0 147 h 0.0"></path><rect height="22" rx="10" ry="10" width="50" x="716.0" y="136"></rect><text x="741.0" y="151">"qm1"</text></g><path d="M 696.0 177 a 10 10 0 0 0 10 -10 v -40 a 10 10 0 0 1 10 -10"></path><g class="terminal ">
<path d="M 716.0 117 h 0.0"></path><path d="M 760.0 117 h 0.0"></path><rect height="22" rx="10" ry="10" width="44" x="716.0" y="106"></rect><text x="738.0" y="121">"qm"</text></g><path d="M 696.0 177 a 10 10 0 0 0 10 -10 v -70 a 10 10 0 0 1 10 -10"></path><g class="terminal ">
<path d="M 716.0 87 h 0.0"></path><path d="M 760.0 87 h 0.0"></path><rect height="22" rx="10" ry="10" width="44" x="716.0" y="76"></rect><text x="738.0" y="91">"qr"</text></g><path d="M 696.0 177 h 20"></path><g class="terminal ">
<path d="M 716.0 177 h 0.0"></path><path d="M 766.0 177 h 0.0"></path><rect height="22" rx="10" ry="10" width="50" x="716.0" y="166"></rect><text x="741.0" y="181">"qm2"</text></g><path d="M 696.0 177 a 10 10 0 0 1 10 10 v 10 a 10 10 0 0 0 10 10"></path><g class="terminal ">
<path d="M 716.0 207 h 0.0"></path><path d="M 766.0 207 h 0.0"></path><rect height="22" rx="10" ry="10" width="50" x="716.0" y="196"></rect><text x="741.0" y="211">"qm3"</text></g><path d="M 696.0 177 a 10 10 0 0 1 10 10 v 40 a 10 10 0 0 0 10 10"></path><g class="terminal ">
<path d="M 716.0 237 h 0.0"></path><path d="M 760.0 237 h 0.0"></path><rect height="22" rx="10" ry="10" width="44" x="716.0" y="226"></rect><text x="738.0" y="241">"qd"</text></g><path d="M 696.0 177 a 10 10 0 0 1 10 10 v 70 a 10 10 0 0 0 10 10"></path><g class="terminal ">
<path d="M 716.0 267 h 0.0"></path><path d="M 754.0 267 h 0.0"></path><rect height="22" rx="10" ry="10" width="38" x="716.0" y="256"></rect><text x="735.0" y="271">"b"</text></g><path d="M 696.0 177 a 10 10 0 0 1 10 10 v 100 a 10 10 0 0 0 10 10"></path><g class="terminal ">
<path d="M 716.0 297 h 0.0"></path><path d="M 754.0 297 h 0.0"></path><rect height="22" rx="10" ry="10" width="38" x="716.0" y="286"></rect><text x="735.0" y="301">"d"</text></g></g><path d="M 786.0 68 a 10 10 0 0 1 10 10 v 89 a 10 10 0 0 0 10 10"></path><g>
<path d="M 806.0 177 h 0.0"></path><path d="M 896.0 177 h 0.0"></path><path d="M 806.0 177 a 10 10 0 0 0 10 -10 v -10 a 10 10 0 0 1 10 -10"></path><g class="terminal ">
<path d="M 826.0 147 h 0.0"></path><path d="M 876.0 147 h 0.0"></path><rect height="22" rx="10" ry="10" width="50" x="826.0" y="136"></rect><text x="851.0" y="151">"ms2"</text></g><path d="M 806.0 177 a 10 10 0 0 0 10 -10 v -40 a 10 10 0 0 1 10 -10"></path><g class="terminal ">
<path d="M 826.0 117 h 0.0"></path><path d="M 876.0 117 h 0.0"></path><rect height="22" rx="10" ry="10" width="50" x="826.0" y="106"></rect><text x="851.0" y="121">"ms1"</text></g><path d="M 806.0 177 a 10 10 0 0 0 10 -10 v -70 a 10 10 0 0 1 10 -10"></path><g class="terminal ">
<path d="M 826.0 87 h 0.0"></path><path d="M 870.0 87 h 0.0"></path><rect height="22" rx="10" ry="10" width="44" x="826.0" y="76"></rect><text x="848.0" y="91">"ms"</text></g><path d="M 806.0 177 h 20"></path><g class="terminal ">
<path d="M 826.0 177 h 0.0"></path><path d="M 876.0 177 h 0.0"></path><rect height="22" rx="10" ry="10" width="50" x="826.0" y="166"></rect><text x="851.0" y="181">"ms3"</text></g><path d="M 806.0 177 a 10 10 0 0 1 10 10 v 10 a 10 10 0 0 0 10 10"></path><g class="terminal ">
<path d="M 826.0 207 h 0.0"></path><path d="M 870.0 207 h 0.0"></path><rect height="22" rx="10" ry="10" width="44" x="826.0" y="196"></rect><text x="848.0" y="211">"mr"</text></g><path d="M 806.0 177 a 10 10 0 0 1 10 10 v 40 a 10 10 0 0 0 10 10"></path><g class="terminal ">
<path d="M 826.0 237 h 0.0"></path><path d="M 864.0 237 h 0.0"></path><rect height="22" rx="10" ry="10" width="38" x="826.0" y="226"></rect><text x="845.0" y="241">"r"</text></g><path d="M 806.0 177 a 10 10 0 0 1 10 10 v 70 a 10 10 0 0 0 10 10"></path><g class="terminal ">
<path d="M 826.0 267 h 0.0"></path><path d="M 864.0 267 h 0.0"></path><rect height="22" rx="10" ry="10" width="38" x="826.0" y="256"></rect><text x="845.0" y="271">"s"</text></g><path d="M 806.0 177 a 10 10 0 0 1 10 10 v 100 a 10 10 0 0 0 10 10"></path><g class="terminal ">
<path d="M 826.0 297 h 0.0"></path><path d="M 870.0 297 h 0.0"></path><rect height="22" rx="10" ry="10" width="44" x="826.0" y="286"></rect><text x="848.0" y="301">"s1"</text></g></g><path d="M 896.0 68 a 10 10 0 0 1 10 10 v 89 a 10 10 0 0 0 10 10"></path><g>
<path d="M 916.0 177 h 0.0"></path><path d="M 1006.0 177 h 0.0"></path><path d="M 916.0 177 a 10 10 0 0 0 10 -10 v -10 a 10 10 0 0 1 10 -10"></path><g class="terminal ">
<path d="M 936.0 147 h 0.0"></path><path d="M 980.0 147 h 0.0"></path><rect height="22" rx="10" ry="10" width="44" x="936.0" y="136"></rect><text x="958.0" y="151">"s4"</text></g><path d="M 916.0 177 a 10 10 0 0 0 10 -10 v -40 a 10 10 0 0 1 10 -10"></path><g class="terminal ">
<path d="M 936.0 117 h 0.0"></path><path d="M 980.0 117 h 0.0"></path><rect height="22" rx="10" ry="10" width="44" x="936.0" y="106"></rect><text x="958.0" y="121">"s3"</text></g><path d="M 916.0 177 a 10 10 0 0 0 10 -10 v -70 a 10 10 0 0 1 10 -10"></path><g class="terminal ">
<path d="M 936.0 87 h 0.0"></path><path d="M 980.0 87 h 0.0"></path><rect height="22" rx="10" ry="10" width="44" x="936.0" y="76"></rect><text x="958.0" y="91">"s2"</text></g><path d="M 916.0 177 h 20"></path><g class="terminal ">
<path d="M 936.0 177 h 0.0"></path><path d="M 980.0 177 h 0.0"></path><rect height="22" rx="10" ry="10" width="44" x="936.0" y="166"></rect><text x="958.0" y="181">"sr"</text></g><path d="M 916.0 177 a 10 10 0 0 1 10 10 v 10 a 10 10 0 0 0 10 10"></path><g class="terminal ">
<path d="M 936.0 207 h 0.0"></path><path d="M 980.0 207 h 0.0"></path><rect height="22" rx="10" ry="10" width="44" x="936.0" y="196"></rect><text x="958.0" y="211">"sp"</text></g><path d="M 916.0 177 a 10 10 0 0 1 10 10 v 40 a 10 10 0 0 0 10 10"></path><g class="terminal ">
<path d="M 936.0 237 h 0.0"></path><path d="M 980.0 237 h 0.0"></path><rect height="22" rx="10" ry="10" width="44" x="936.0" y="226"></rect><text x="958.0" y="241">"sd"</text></g><path d="M 916.0 177 a 10 10 0 0 1 10 10 v 70 a 10 10 0 0 0 10 10"></path><g class="terminal ">
<path d="M 936.0 267 h 0.0"></path><path d="M 986.0 267 h 0.0"></path><rect height="22" rx="10" ry="10" width="50" x="936.0" y="256"></rect><text x="961.0" y="271">"sd1"</text></g><path d="M 916.0 177 a 10 10 0 0 1 10 10 v 100 a 10 10 0 0 0 10 10"></path><g class="terminal ">
<path d="M 936.0 297 h 0.0"></path><path d="M 986.0 297 h 0.0"></path><rect height="22" rx="10" ry="10" width="50" x="936.0" y="286"></rect><text x="961.0" y="301">"sd2"</text></g></g><path d="M 1006.0 68 a 10 10 0 0 1 10 10 v 89 a 10 10 0 0 0 10 10"></path><g>
<path d="M 1026.0 177 h 0.0"></path><path d="M 1122.0 177 h 0.0"></path><path d="M 1026.0 177 a 10 10 0 0 0 10 -10 v -10 a 10 10 0 0 1 10 -10"></path><g class="terminal ">
<path d="M 1046.0 147 h 0.0"></path><path d="M 1090.0 147 h 0.0"></path><rect height="22" rx="10" ry="10" width="44" x="1046.0" y="136"></rect><text x="1068.0" y="151">"ts"</text></g><path d="M 1026.0 177 a 10 10 0 0 0 10 -10 v -40 a 10 10 0 0 1 10 -10"></path><g class="terminal ">
<path d="M 1046.0 117 h 0.0"></path><path d="M 1096.0 117 h 0.0"></path><rect height="22" rx="10" ry="10" width="50" x="1046.0" y="106"></rect><text x="1071.0" y="121">"sd4"</text></g><path d="M 1026.0 177 a 10 10 0 0 0 10 -10 v -70 a 10 10 0 0 1 10 -10"></path><g class="terminal ">
<path d="M 1046.0 87 h 0.0"></path><path d="M 1096.0 87 h 0.0"></path><rect height="22" rx="10" ry="10" width="50" x="1046.0" y="76"></rect><text x="1071.0" y="91">"sd3"</text></g><path d="M 1026.0 177 h 20"></path><g class="terminal ">
<path d="M 1046.0 177 h 0.0"></path><path d="M 1090.0 177 h 0.0"></path><rect height="22" rx="10" ry="10" width="44" x="1046.0" y="166"></rect><text x="1068.0" y="181">"cp"</text></g><path d="M 1026.0 177 a 10 10 0 0 1 10 10 v 10 a 10 10 0 0 0 10 10"></path><g class="terminal ">
<path d="M 1046.0 207 h 0.0"></path><path d="M 1090.0 207 h 0.0"></path><rect height="22" rx="10" ry="10" width="44" x="1046.0" y="196"></rect><text x="1068.0" y="211">"cl"</text></g><path d="M 1026.0 177 a 10 10 0 0 1 10 10 v 40 a 10 10 0 0 0 10 10"></path><g class="terminal ">
<path d="M 1046.0 237 h 0.0"></path><path d="M 1090.0 237 h 0.0"></path><rect height="22" rx="10" ry="10" width="44" x="1046.0" y="226"></rect><text x="1068.0" y="241">"cd"</text></g><path d="M 1026.0 177 a 10 10 0 0 1 10 10 v 70 a 10 10 0 0 0 10 10"></path><g class="terminal ">
<path d="M 1046.0 267 h 0.0"></path><path d="M 1096.0 267 h 0.0"></path><rect height="22" rx="10" ry="10" width="50" x="1046.0" y="256"></rect><text x="1071.0" y="271">"mte"</text></g><path d="M 1026.0 177 a 10 10 0 0 1 10 10 v 100 a 10 10 0 0 0 10 10"></path><g class="terminal ">
<path d="M 1046.0 297 h 0.0"></path><path d="M 1102.0 297 h 0.0"></path><rect height="22" rx="10" ry="10" width="56" x="1046.0" y="286"></rect><text x="1074.0" y="301">"mte1"</text></g></g><path d="M 1122.0 68 a 10 10 0 0 1 10 10 v 89 a 10 10 0 0 0 10 10"></path><g>
<path d="M 1142.0 177 h 0.0"></path><path d="M 1238.0 177 h 0.0"></path><path d="M 1142.0 177 a 10 10 0 0 0 10 -10 v -10 a 10 10 0 0 1 10 -10"></path><g class="terminal ">
<path d="M 1162.0 147 h 0.0"></path><path d="M 1206.0 147 h 0.0"></path><rect height="22" rx="10" ry="10" width="44" x="1162.0" y="136"></rect><text x="1184.0" y="151">"p1"</text></g><path d="M 1142.0 177 a 10 10 0 0 0 10 -10 v -40 a 10 10 0 0 1 10 -10"></path><g class="terminal ">
<path d="M 1162.0 117 h 0.0"></path><path d="M 1200.0 117 h 0.0"></path><rect height="22" rx="10" ry="10" width="38" x="1162.0" y="106"></rect><text x="1181.0" y="121">"p"</text></g><path d="M 1142.0 177 a 10 10 0 0 0 10 -10 v -70 a 10 10 0 0 1 10 -10"></path><g class="terminal ">
<path d="M 1162.0 87 h 0.0"></path><path d="M 1218.0 87 h 0.0"></path><rect height="22" rx="10" ry="10" width="56" x="1162.0" y="76"></rect><text x="1190.0" y="91">"mte2"</text></g><path d="M 1142.0 177 h 20"></path><g class="terminal ">
<path d="M 1162.0 177 h 0.0"></path><path d="M 1206.0 177 h 0.0"></path><rect height="22" rx="10" ry="10" width="44" x="1162.0" y="166"></rect><text x="1184.0" y="181">"p2"</text></g><path d="M 1142.0 177 a 10 10 0 0 1 10 10 v 10 a 10 10 0 0 0 10 10"></path><g class="terminal ">
<path d="M 1162.0 207 h 0.0"></path><path d="M 1206.0 207 h 0.0"></path><rect height="22" rx="10" ry="10" width="44" x="1162.0" y="196"></rect><text x="1184.0" y="211">"k1"</text></g><path d="M 1142.0 177 a 10 10 0 0 1 10 10 v 40 a 10 10 0 0 0 10 10"></path><g class="terminal ">
<path d="M 1162.0 237 h 0.0"></path><path d="M 1206.0 237 h 0.0"></path><rect height="22" rx="10" ry="10" width="44" x="1162.0" y="226"></rect><text x="1184.0" y="241">"k2"</text></g><path d="M 1142.0 177 a 10 10 0 0 1 10 10 v 70 a 10 10 0 0 0 10 10"></path><g class="terminal ">
<path d="M 1162.0 267 h 0.0"></path><path d="M 1212.0 267 h 0.0"></path><rect height="22" rx="10" ry="10" width="50" x="1162.0" y="256"></rect><text x="1187.0" y="271">"rem"</text></g></g></g><g class="non-terminal ">
<path d="M 222.0 52 h 0.0"></path><path d="M 372.0 52 h 0.0"></path><text class="comment" x="297.0" y="57">Para.para.style.enum</text></g></g></g><path d="M 126.0 373 h 20"></path><g>
<path d="M 146.0 373 h 436.0"></path><path d="M 812.0 373 h 436.0"></path><path d="M 582.0 373 h 10"></path><g>
<path d="M 592.0 373 h 0.0"></path><path d="M 802.0 373 h 0.0"></path><path d="M 592.0 373 h 20"></path><g class="non-terminal ">
<path d="M 612.0 373 h 48.0"></path><path d="M 734.0 373 h 48.0"></path><rect height="22" width="74" x="660.0" y="362"></rect><text x="697.0" y="377">Reference</text></g><path d="M 782.0 373 h 20"></path><path d="M 592.0 373 a 10 10 0 0 1 10 10 v 10 a 10 10 0 0 0 10 10"></path><g class="non-terminal ">
<path d="M 612.0 403 h 51.0"></path><path d="M 731.0 403 h 51.0"></path><rect height="22" width="68" x="663.0" y="392"></rect><text x="697.0" y="407">Footnote</text></g><path d="M 782.0 403 a 10 10 0 0 0 10 -10 v -10 a 10 10 0 0 1 10 -10"></path><path d="M 592.0 373 a 10 10 0 0 1 10 10 v 40 a 10 10 0 0 0 10 10"></path><g class="non-terminal ">
<path d="M 612.0 433 h 33.0"></path><path d="M 749.0 433 h 33.0"></path><rect height="22" width="104" x="645.0" y="422"></rect><text x="697.0" y="437">CrossReference</text></g><path d="M 782.0 433 a 10 10 0 0 0 10 -10 v -40 a 10 10 0 0 1 10 -10"></path><path d="M 592.0 373 a 10 10 0 0 1 10 10 v 70 a 10 10 0 0 0 10 10"></path><g class="non-terminal ">
<path d="M 612.0 463 h 63.0"></path><path d="M 719.0 463 h 63.0"></path><rect height="22" width="44" x="675.0" y="452"></rect><text x="697.0" y="467">Char</text></g><path d="M 782.0 463 a 10 10 0 0 0 10 -10 v -70 a 10 10 0 0 1 10 -10"></path><path d="M 592.0 373 a 10 10 0 0 1 10 10 v 100 a 10 10 0 0 0 10 10"></path><g class="non-terminal ">
<path d="M 612.0 493 h 48.0"></path><path d="M 734.0 493 h 48.0"></path><rect height="22" width="74" x="660.0" y="482"></rect><text x="697.0" y="497">Milestone</text></g><path d="M 782.0 493 a 10 10 0 0 0 10 -10 v -100 a 10 10 0 0 1 10 -10"></path><path d="M 592.0 373 a 10 10 0 0 1 10 10 v 130 a 10 10 0 0 0 10 10"></path><g class="non-terminal ">
<path d="M 612.0 523 h 57.0"></path><path d="M 725.0 523 h 57.0"></path><rect height="22" width="56" x="669.0" y="512"></rect><text x="697.0" y="527">Figure</text></g><path d="M 782.0 523 a 10 10 0 0 0 10 -10 v -130 a 10 10 0 0 1 10 -10"></path><path d="M 592.0 373 a 10 10 0 0 1 10 10 v 160 a 10 10 0 0 0 10 10"></path><g class="non-terminal ">
<path d="M 612.0 553 h 60.0"></path><path d="M 722.0 553 h 60.0"></path><rect height="22" width="50" x="672.0" y="542"></rect><text x="697.0" y="557">Verse</text></g><path d="M 782.0 553 a 10 10 0 0 0 10 -10 v -160 a 10 10 0 0 1 10 -10"></path><path d="M 592.0 373 a 10 10 0 0 1 10 10 v 214 a 10 10 0 0 0 10 10"></path><g>
<path d="M 612.0 607 h 0.0"></path><path d="M 782.0 607 h 0.0"></path><rect class="group-box" height="38" rx="10" ry="10" width="170" x="612.0" y="588"></rect><g>
<path d="M 612.0 607 h 10.0"></path><path d="M 772.0 607 h 10.0"></path><g class="terminal ">
<path d="M 622.0 607 h 0.0"></path><path d="M 702.0 607 h 0.0"></path><rect height="22" rx="10" ry="10" width="80" x="622.0" y="596"></rect><text x="662.0" y="611">&#60;optbreak></text></g><path d="M 702.0 607 h 10"></path><path d="M 712.0 607 h 10"></path><g class="terminal ">
<path d="M 722.0 607 h 0.0"></path><path d="M 772.0 607 h 0.0"></path><rect height="22" rx="10" ry="10" width="50" x="722.0" y="596"></rect><text x="747.0" y="611">empty</text></g></g><g class="non-terminal ">
<path d="M 612.0 580 h 0.0"></path><path d="M 657.0 580 h 0.0"></path><text class="comment" x="634.5" y="585">Break</text></g></g><path d="M 782.0 607 a 10 10 0 0 0 10 -10 v -214 a 10 10 0 0 1 10 -10"></path><path d="M 592.0 373 a 10 10 0 0 1 10 10 v 252 a 10 10 0 0 0 10 10"></path><g class="terminal ">
<path d="M 612.0 645 h 63.0"></path><path d="M 719.0 645 h 63.0"></path><rect height="22" rx="10" ry="10" width="44" x="675.0" y="634"></rect><text x="697.0" y="649">text</text></g><path d="M 782.0 645 a 10 10 0 0 0 10 -10 v -252 a 10 10 0 0 1 10 -10"></path></g><path d="M 802.0 373 h 10"></path><path d="M 592.0 373 a 10 10 0 0 0 -10 10 v 271 a 10 10 0 0 0 10 10"></path><g>
<path d="M 592.0 664 h 210"></path></g><path d="M 802.0 664 a 10 10 0 0 0 10 -10 v -271 a 10 10 0 0 0 -10 -10"></path></g><path d="M 1248.0 373 h 20"></path></g></g><g class="non-terminal ">
<path d="M 50.0 28 h 0.0"></path><path d="M 88.0 28 h 0.0"></path><text class="comment" x="69.0" y="33">Para</text></g></g><path d="M 1278 373 h 10"></path><path d="M 1288 373 h 20 m 0 -10 v 20"></path></g></svg>