<svg class="railroad-diagram" height="821" viewBox="0 0 992 821" width="992" xmlns="http://www.w3.org/2000/svg" xmlns:xlink="http://www.w3.org/1999/xlink">
<g transform="translate(.5 .5)">
<style>/* <![CDATA[ */
    svg.railroad-diagram {
        background-color:hsl(30,20%,95%);
    }
    svg.railroad-diagram path {
        stroke-width: 2;
        stroke: black;
        fill: none;
    }
    svg.railroad-diagram text {
        font-size: 12pt;
        text-anchor: middle;
        font-family: DejaVu Sans;
    }
    svg.railroad-diagram text.label {
        text-anchor:start;
    }
    svg.railroad-diagram text.comment {
        font-family: DejaVu Sans;
        font-size: 15pt;
    }
    svg.railroad-diagram rect{
        stroke-width: 2;
        stroke:black;
        fill: rgb(210, 210, 255);
    }
    svg.railroad-diagram rect.group-box {
        stroke: gray;
        stroke-dasharray: 10 5;
        fill: none;
    }
    .terminal {
        font-family: DejaVu Sans;
    }

/* ]]> */
</style><g>
<path d="M 20 483 v 20 m 0 -10 h 20"></path></g><path d="M 40 493 h 10"></path><g>
<path d="M 50 493 h 0.0"></path><path d="M 942.0 493 h 0.0"></path><rect class="group-box" height="765" rx="10" ry="10" width="892" x="50.0" y="36"></rect><g>
<path d="M 50.0 493 h 10.0"></path><path d="M 932.0 493 h 10.0"></path><g class="terminal ">
<path d="M 60.0 493 h 0.0"></path><path d="M 116.0 493 h 0.0"></path><rect height="22" rx="10" ry="10" width="56" x="60.0" y="482"></rect><text x="88.0" y="497">&#60;para></text></g><path d="M 116.0 493 h 10"></path><g>
<path d="M 126.0 493 h 0.0"></path><path d="M 932.0 493 h 0.0"></path><path d="M 126.0 493 a 10 10 0 0 0 10 -10 v -10 a 10 10 0 0 1 10 -10"></path><g>
<path d="M 146.0 463 h 0.0"></path><path d="M 266.0 463 h 0.0"></path><g class="terminal ">
<path d="M 146.0 463 h 0.0"></path><path d="M 190.0 463 h 0.0"></path><rect height="22" rx="10" ry="10" width="44" x="146.0" y="452"></rect><text x="168.0" y="467">@vid</text></g><path d="M 190.0 463 h 10"></path><path d="M 200.0 463 h 10"></path><g class="terminal ">
<path d="M 210.0 463 h 0.0"></path><path d="M 266.0 463 h 0.0"></path><rect height="22" rx="10" ry="10" width="56" x="210.0" y="452"></rect><text x="238.0" y="467">string</text></g></g><path d="M 126.0 493 a 10 10 0 0 0 10 -10 v -296 a 10 10 0 0 1 10 -10"></path><g>
<path d="M 146.0 177 h 0.0"></path><path d="M 912.0 177 h 0.0"></path><g class="terminal ">
<path d="M 146.0 177 h 0.0"></path><path d="M 202.0 177 h 0.0"></path><rect height="22" rx="10" ry="10" width="56" x="146.0" y="166"></rect><text x="174.0" y="181">@style</text></g><path d="M 202.0 177 h 10"></path><path d="M 212.0 177 h 10"></path><g>
<path d="M 222.0 177 h 0.0"></path><path d="M 912.0 177 h 0.0"></path><rect class="group-box" height="384" rx="10" ry="10" width="690" x="222.0" y="60"></rect><g>
<path d="M 222.0 177 h 0.0"></path><path d="M 912.0 177 h 0.0"></path><path d="M 222.0 177 a 10 10 0 0 0 10 -10 v -89 a 10 10 0 0 1 10 -10 h 544"></path><path d="M 222.0 177 h 10"></path><g>
<path d="M 232.0 177 h 0.0"></path><path d="M 346.0 177 h 0.0"></path><path d="M 232.0 177 a 10 10 0 0 0 10 -10 v -10 a 10 10 0 0 1 10 -10"></path><g class="terminal ">
<path d="M 252.0 147 h 0.0"></path><path d="M 302.0 147 h 0.0"></path><rect height="22" rx="10" ry="10" width="50" x="252.0" y="136"></rect><text x="277.0" y="151">"iex"</text></g><path d="M 232.0 177 a 10 10 0 0 0 10 -10 v -40 a 10 10 0 0 1 10 -10"></path><g class="terminal ">
<path d="M 252.0 117 h 0.0"></path><path d="M 302.0 117 h 0.0"></path><rect height="22" rx="10" ry="10" width="50" x="252.0" y="106"></rect><text x="277.0" y="121">"cls"</text></g><path d="M 232.0 177 a 10 10 0 0 0 10 -10 v -70 a 10 10 0 0 1 10 -10"></path><g class="terminal ">
<path d="M 252.0 87 h 0.0"></path><path d="M 326.0 87 h 0.0"></path><rect height="22" rx="10" ry="10" width="74" x="252.0" y="76"></rect><text x="289.0" y="91">"restore"</text></g><path d="M 232.0 177 h 20"></path><g class="terminal ">
<path d="M 252.0 177 h 0.0"></path><path d="M 296.0 177 h 0.0"></path><rect height="22" rx="10" ry="10" width="44" x="252.0" y="166"></rect><text x="274.0" y="181">"ip"</text></g><path d="M 232.0 177 a 10 10 0 0 1 10 10 v 10 a 10 10 0 0 0 10 10"></path><g class="terminal ">
<path d="M 252.0 207 h 0.0"></path><path d="M 302.0 207 h 0.0"></path><rect height="22" rx="10" ry="10" width="50" x="252.0" y="196"></rect><text x="277.0" y="211">"lit"</text></g><path d="M 232.0 177 a 10 10 0 0 1 10 10 v 40 a 10 10 0 0 0 10 10"></path><g class="terminal ">
<path d="M 252.0 237 h 0.0"></path><path d="M 290.0 237 h 0.0"></path><rect height="22" rx="10" ry="10" width="38" x="252.0" y="226"></rect><text x="271.0" y="241">"m"</text></g><path d="M 232.0 177 a 10 10 0 0 1 10 10 v 70 a 10 10 0 0 0 10 10"></path><g class="terminal ">
<path d="M 252.0 267 h 0.0"></path><path d="M 296.0 267 h 0.0"></path><rect height="22" rx="10" ry="10" width="44" x="252.0" y="256"></rect><text x="274.0" y="271">"mi"</text></g><path d="M 232.0 177 a 10 10 0 0 1 10 10 v 100 a 10 10 0 0 0 10 10"></path><g class="terminal ">
<path d="M 252.0 297 h 0.0"></path><path d="M 296.0 297 h 0.0"></path><rect height="22" rx="10" ry="10" width="44" x="252.0" y="286"></rect><text x="274.0" y="301">"nb"</text></g><path d="M 232.0 177 a 10 10 0 0 1 10 10 v 130 a 10 10 0 0 0 10 10"></path><g class="terminal ">
<path d="M 252.0 327 h 0.0"></path><path d="M 290.0 327 h 0.0"></path><rect height="22" rx="10" ry="10" width="38" x="252.0" y="316"></rect><text x="271.0" y="331">"p"</text></g><path d="M 232.0 177 a 10 10 0 0 1 10 10 v 160 a 10 10 0 0 0 10 10"></path><g class="terminal ">
<path d="M 252.0 357 h 0.0"></path><path d="M 296.0 357 h 0.0"></path><rect height="22" rx="10" ry="10" width="44" x="252.0" y="346"></rect><text x="274.0" y="361">"pb"</text></g><path d="M 232.0 177 a 10 10 0 0 1 10 10 v 190 a 10 10 0 0 0 10 10"></path><g class="terminal ">
<path d="M 252.0 387 h 0.0"></path><path d="M 296.0 387 h 0.0"></path><rect height="22" rx="10" ry="10" width="44" x="252.0" y="376"></rect><text x="274.0" y="391">"pc"</text></g><path d="M 232.0 177 a 10 10 0 0 1 10 10 v 220 a 10 10 0 0 0 10 10"></path><g class="terminal ">
<path d="M 252.0 417 h 0.0"></path><path d="M 296.0 417 h 0.0"></path><rect height="22" rx="10" ry="10" width="44" x="252.0" y="406"></rect><text x="274.0" y="421">"pi"</text></g></g><path d="M 346.0 68 a 10 10 0 0 1 10 10 v 89 a 10 10 0 0 0 10 10"></path><g>
<path d="M 366.0 177 h 0.0"></path><path d="M 456.0 177 h 0.0"></path><path d="M 366.0 177 a 10 10 0 0 0 10 -10 v -10 a 10 10 0 0 1 10 -10"></path><g class="terminal ">
<path d="M 386.0 147 h 0.0"></path><path d="M 436.0 147 h 0.0"></path><rect height="22" rx="10" ry="10" width="50" x="386.0" y="136"></rect><text x="411.0" y="151">"pi3"</text></g><path d="M 366.0 177 a 10 10 0 0 0 10 -10 v -40 a 10 10 0 0 1 10 -10"></path><g class="terminal ">
<path d="M 386.0 117 h 0.0"></path><path d="M 436.0 117 h 0.0"></path><rect height="22" rx="10" ry="10" width="50" x="386.0" y="106"></rect><text x="411.0" y="121">"pi2"</text></g><path d="M 366.0 177 a 10 10 0 0 0 10 -10 v -70 a 10 10 0 0 1 10 -10"></path><g class="terminal ">
<path d="M 386.0 87 h 0.0"></path><path d="M 436.0 87 h 0.0"></path><rect height="22" rx="10" ry="10" width="50" x="386.0" y="76"></rect><text x="411.0" y="91">"pi1"</text></g><path d="M 366.0 177 h 20"></path><g class="terminal ">
<path d="M 386.0 177 h 0.0"></path><path d="M 430.0 177 h 0.0"></path><rect height="22" rx="10" ry="10" width="44" x="386.0" y="166"></rect><text x="408.0" y="181">"po"</text></g><path d="M 366.0 177 a 10 10 0 0 1 10 10 v 10 a 10 10 0 0 0 10 10"></path><g class="terminal ">
<path d="M 386.0 207 h 0.0"></path><path d="M 430.0 207 h 0.0"></path><rect height="22" rx="10" ry="10" width="44" x="386.0" y="196"></rect><text x="408.0" y="211">"pr"</text></g><path d="M 366.0 177 a 10 10 0 0 1 10 10 v 40 a 10 10 0 0 0 10 10"></path><g class="terminal ">
<path d="M 386.0 237 h 0.0"></path><path d="M 436.0 237 h 0.0"></path><rect height="22" rx="10" ry="10" width="50" x="386.0" y="226"></rect><text x="411.0" y="241">"pmo"</text></g><path d="M 366.0 177 a 10 10 0 0 1 10 10 v 70 a 10 10 0 0 0 10 10"></path><g class="terminal ">
<path d="M 386.0 267 h 0.0"></path><path d="M 430.0 267 h 0.0"></path><rect height="22" rx="10" ry="10" width="44" x="386.0" y="256"></rect><text x="408.0" y="271">"pm"</text></g><path d="M 366.0 177 a 10 10 0 0 1 10 10 v 100 a 10 10 0 0 0 10 10"></path><g class="terminal ">
<path d="M 386.0 297 h 0.0"></path><path d="M 436.0 297 h 0.0"></path><rect height="22" rx="10" ry="10" width="50" x="386.0" y="286"></rect><text x="411.0" y="301">"pmc"</text></g><path d="M 366.0 177 a 10 10 0 0 1 10 10 v 130 a 10 10 0 0 0 10 10"></path><g class="terminal ">
<path d="M 386.0 327 h 0.0"></path><path d="M 436.0 327 h 0.0"></path><rect height="22" rx="10" ry="10" width="50" x="386.0" y="316"></rect><text x="411.0" y="331">"pmr"</text></g><path d="M 366.0 177 a 10 10 0 0 1 10 10 v 160 a 10 10 0 0 0 10 10"></path><g class="terminal ">
<path d="M 386.0 357 h 0.0"></path><path d="M 430.0 357 h 0.0"></path><rect height="22" rx="10" ry="10" width="44" x="386.0" y="346"></rect><text x="408.0" y="361">"ph"</text></g><path d="M 366.0 177 a 10 10 0 0 1 10 10 v 190 a 10 10 0 0 0 10 10"></path><g class="terminal ">
<path d="M 386.0 387 h 0.0"></path><path d="M 436.0 387 h 0.0"></path><rect height="22" rx="10" ry="10" width="50" x="386.0" y="376"></rect><text x="411.0" y="391">"ph1"</text></g><path d="M 366.0 177 a 10 10 0 0 1 10 10 v 220 a 10 10 0 0 0 10 10"></path><g class="terminal ">
<path d="M 386.0 417 h 0.0"></path><path d="M 436.0 417 h 0.0"></path><rect height="22" rx="10" ry="10" width="50" x="386.0" y="406"></rect><text x="411.0" y="421">"ph2"</text></g></g><path d="M 456.0 68 a 10 10 0 0 1 10 10 v 89 a 10 10 0 0 0 10 10"></path><g>
<path d="M 476.0 177 h 0.0"></path><path d="M 566.0 177 h 0.0"></path><path d="M 476.0 177 a 10 10 0 0 0 10 -10 v -10 a 10 10 0 0 1 10 -10"></path><g class="terminal ">
<path d="M 496.0 147 h 0.0"></path><path d="M 540.0 147 h 0.0"></path><rect height="22" rx="10" ry="10" width="44" x="496.0" y="136"></rect><text x="518.0" y="151">"q1"</text></g><path d="M 476.0 177 a 10 10 0 0 0 10 -10 v -40 a 10 10 0 0 1 10 -10"></path><g class="terminal ">
<path d="M 496.0 117 h 0.0"></path><path d="M 534.0 117 h 0.0"></path><rect height="22" rx="10" ry="10" width="38" x="496.0" y="106"></rect><text x="515.0" y="121">"q"</text></g><path d="M 476.0 177 a 10 10 0 0 0 10 -10 v -70 a 10 10 0 0 1 10 -10"></path><g class="terminal ">
<path d="M 496.0 87 h 0.0"></path><path d="M 546.0 87 h 0.0"></path><rect height="22" rx="10" ry="10" width="50" x="496.0" y="76"></rect><text x="521.0" y="91">"ph3"</text></g><path d="M 476.0 177 h 20"></path><g class="terminal ">
<path d="M 496.0 177 h 0.0"></path><path d="M 540.0 177 h 0.0"></path><rect height="22" rx="10" ry="10" width="44" x="496.0" y="166"></rect><text x="518.0" y="181">"q2"</text></g><path d="M 476.0 177 a 10 10 0 0 1 10 10 v 10 a 10 10 0 0 0 10 10"></path><g class="terminal ">
<path d="M 496.0 207 h 0.0"></path><path d="M 540.0 207 h 0.0"></path><rect height="22" rx="10" ry="10" width="44" x="496.0" y="196"></rect><text x="518.0" y="211">"q3"</text></g><path d="M 476.0 177 a 10 10 0 0 1 10 10 v 40 a 10 10 0 0 0 10 10"></path><g class="terminal ">
<path d="M 496.0 237 h 0.0"></path><path d="M 540.0 237 h 0.0"></path><rect height="22" rx="10" ry="10" width="44" x="496.0" y="226"></rect><text x="518.0" y="241">"q4"</text></g><path d="M 476.0 177 a 10 10 0 0 1 10 10 v 70 a 10 10 0 0 0 10 10"></path><g class="terminal ">
<path d="M 496.0 267 h 0.0"></path><path d="M 540.0 267 h 0.0"></path><rect height="22" rx="10" ry="10" width="44" x="496.0" y="256"></rect><text x="518.0" y="271">"qa"</text></g><path d="M 476.0 177 a 10 10 0 0 1 10 10 v 100 a 10 10 0 0 0 10 10"></path><g class="terminal ">
<path d="M 496.0 297 h 0.0"></path><path d="M 540.0 297 h 0.0"></path><rect height="22" rx="10" ry="10" width="44" x="496.0" y="286"></rect><text x="518.0" y="301">"qc"</text></g><path d="M 476.0 177 a 10 10 0 0 1 10 10 v 130 a 10 10 0 0 0 10 10"></path><g class="terminal ">
<path d="M 496.0 327 h 0.0"></path><path d="M 540.0 327 h 0.0"></path><rect height="22" rx="10" ry="10" width="44" x="496.0" y="316"></rect><text x="518.0" y="331">"qr"</text></g><path d="M 476.0 177 a 10 10 0 0 1 10 10 v 160 a 10 10 0 0 0 10 10"></path><g class="terminal ">
<path d="M 496.0 357 h 0.0"></path><path d="M 540.0 357 h 0.0"></path><rect height="22" rx="10" ry="10" width="44" x="496.0" y="346"></rect><text x="518.0" y="361">"qm"</text></g><path d="M 476.0 177 a 10 10 0 0 1 10 10 v 190 a 10 10 0 0 0 10 10"></path><g class="terminal ">
<path d="M 496.0 387 h 0.0"></path><path d="M 546.0 387 h 0.0"></path><rect height="22" rx="10" ry="10" width="50" x="496.0" y="376"></rect><text x="521.0" y="391">"qm1"</text></g><path d="M 476.0 177 a 10 10 0 0 1 10 10 v 220 a 10 10 0 0 0 10 10"></path><g class="terminal ">
<path d="M 496.0 417 h 0.0"></path><path d="M 546.0 417 h 0.0"></path><rect height="22" rx="10" ry="10" width="50" x="496.0" y="406"></rect><text x="521.0" y="421">"qm2"</text></g></g><path d="M 566.0 68 a 10 10 0 0 1 10 10 v 89 a 10 10 0 0 0 10 10"></path><g>
<path d="M 586.0 177 h 0.0"></path><path d="M 676.0 177 h 0.0"></path><path d="M 586.0 177 a 10 10 0 0 0 10 -10 v -10 a 10 10 0 0 1 10 -10"></path><g class="terminal ">
<path d="M 606.0 147 h 0.0"></path><path d="M 644.0 147 h 0.0"></path><rect height="22" rx="10" ry="10" width="38" x="606.0" y="136"></rect><text x="625.0" y="151">"b"</text></g><path d="M 586.0 177 a 10 10 0 0 0 10 -10 v -40 a 10 10 0 0 1 10 -10"></path><g class="terminal ">
<path d="M 606.0 117 h 0.0"></path><path d="M 650.0 117 h 0.0"></path><rect height="22" rx="10" ry="10" width="44" x="606.0" y="106"></rect><text x="628.0" y="121">"qd"</text></g><path d="M 586.0 177 a 10 10 0 0 0 10 -10 v -70 a 10 10 0 0 1 10 -10"></path><g class="terminal ">
<path d="M 606.0 87 h 0.0"></path><path d="M 656.0 87 h 0.0"></path><rect height="22" rx="10" ry="10" width="50" x="606.0" y="76"></rect><text x="631.0" y="91">"qm3"</text></g><path d="M 586.0 177 h 20"></path><g class="terminal ">
<path d="M 606.0 177 h 0.0"></path><path d="M 644.0 177 h 0.0"></path><rect height="22" rx="10" ry="10" width="38" x="606.0" y="166"></rect><text x="625.0" y="181">"d"</text></g><path d="M 586.0 177 a 10 10 0 0 1 10 10 v 10 a 10 10 0 0 0 10 10"></path><g class="terminal ">
<path d="M 606.0 207 h 0.0"></path><path d="M 650.0 207 h 0.0"></path><rect height="22" rx="10" ry="10" width="44" x="606.0" y="196"></rect><text x="628.0" y="211">"ms"</text></g><path d="M 586.0 177 a 10 10 0 0 1 10 10 v 40 a 10 10 0 0 0 10 10"></path><g class="terminal ">
<path d="M 606.0 237 h 0.0"></path><path d="M 656.0 237 h 0.0"></path><rect height="22" rx="10" ry="10" width="50" x="606.0" y="226"></rect><text x="631.0" y="241">"ms1"</text></g><path d="M 586.0 177 a 10 10 0 0 1 10 10 v 70 a 10 10 0 0 0 10 10"></path><g class="terminal ">
<path d="M 606.0 267 h 0.0"></path><path d="M 656.0 267 h 0.0"></path><rect height="22" rx="10" ry="10" width="50" x="606.0" y="256"></rect><text x="631.0" y="271">"ms2"</text></g><path d="M 586.0 177 a 10 10 0 0 1 10 10 v 100 a 10 10 0 0 0 10 10"></path><g class="terminal ">
<path d="M 606.0 297 h 0.0"></path><path d="M 656.0 297 h 0.0"></path><rect height="22" rx="10" ry="10" width="50" x="606.0" y="286"></rect><text x="631.0" y="301">"ms3"</text></g><path d="M 586.0 177 a 10 10 0 0 1 10 10 v 130 a 10 10 0 0 0 10 10"></path><g class="terminal ">
<path d="M 606.0 327 h 0.0"></path><path d="M 650.0 327 h 0.0"></path><rect height="22" rx="10" ry="10" width="44" x="606.0" y="316"></rect><text x="628.0" y="331">"mr"</text></g><path d="M 586.0 177 a 10 10 0 0 1 10 10 v 160 a 10 10 0 0 0 10 10"></path><g class="terminal ">
<path d="M 606.0 357 h 0.0"></path><path d="M 644.0 357 h 0.0"></path><rect height="22" rx="10" ry="10" width="38" x="606.0" y="346"></rect><text x="625.0" y="361">"r"</text></g><path d="M 586.0 177 a 10 10 0 0 1 10 10 v 190 a 10 10 0 0 0 10 10"></path><g class="terminal ">
<path d="M 606.0 387 h 0.0"></path><path d="M 644.0 387 h 0.0"></path><rect height="22" rx="10" ry="10" width="38" x="606.0" y="376"></rect><text x="625.0" y="391">"s"</text></g><path d="M 586.0 177 a 10 10 0 0 1 10 10 v 220 a 10 10 0 0 0 10 10"></path><g class="terminal ">
<path d="M 606.0 417 h 0.0"></path><path d="M 650.0 417 h 0.0"></path><rect height="22" rx="10" ry="10" width="44" x="606.0" y="406"></rect><text x="628.0" y="421">"s1"</text></g></g><path d="M 676.0 68 a 10 10 0 0 1 10 10 v 89 a 10 10 0 0 0 10 10"></path><g>
<path d="M 696.0 177 h 0.0"></path><path d="M 786.0 177 h 0.0"></path><path d="M 696.0 177 a 10 10 0 0 0 10 -10 v -10 a 10 10 0 0 1 10 -10"></path><g class="terminal ">
<path d="M 716.0 147 h 0.0"></path><path d="M 760.0 147 h 0.0"></path><rect height="22" rx="10" ry="10" width="44" x="716.0" y="136"></rect><text x="738.0" y="151">"s4"</text></g><path d="M 696.0 177 a 10 10 0 0 0 10 -10 v -40 a 10 10 0 0 1 10 -10"></path><g class="terminal ">
<path d="M 716.0 117 h 0.0"></path><path d="M 760.0 117 h 0.0"></path><rect height="22" rx="10" ry="10" width="44" x="716.0" y="106"></rect><text x="738.0" y="121">"s3"</text></g><path d="M 696.0 177 a 10 10 0 0 0 10 -10 v -70 a 10 10 0 0 1 10 -10"></path><g class="terminal ">
<path d="M 716.0 87 h 0.0"></path><path d="M 760.0 87 h 0.0"></path><rect height="22" rx="10" ry="10" width="44" x="716.0" y="76"></rect><text x="738.0" y="91">"s2"</text></g><path d="M 696.0 177 h 20"></path><g class="terminal ">
<path d="M 716.0 177 h 0.0"></path><path d="M 760.0 177 h 0.0"></path><rect height="22" rx="10" ry="10" width="44" x="716.0" y="166"></rect><text x="738.0" y="181">"sr"</text></g><path d="M 696.0 177 a 10 10 0 0 1 10 10 v 10 a 10 10 0 0 0 10 10"></path><g class="terminal ">
<path d="M 716.0 207 h 0.0"></path><path d="M 760.0 207 h 0.0"></path><rect height="22" rx="10" ry="10" width="44" x="716.0" y="196"></rect><text x="738.0" y="211">"sp"</text></g><path d="M 696.0 177 a 10 10 0 0 1 10 10 v 40 a 10 10 0 0 0 10 10"></path><g class="terminal ">
<path d="M 716.0 237 h 0.0"></path><path d="M 760.0 237 h 0.0"></path><rect height="22" rx="10" ry="10" width="44" x="716.0" y="226"></rect><text x="738.0" y="241">"sd"</text></g><path d="M 696.0 177 a 10 10 0 0 1 10 10 v 70 a 10 10 0 0 0 10 10"></path><g class="terminal ">
<path d="M 716.0 267 h 0.0"></path><path d="M 766.0 267 h 0.0"></path><rect height="22" rx="10" ry="10" width="50" x="716.0" y="256"></rect><text x="741.0" y="271">"sd1"</text></g><path d="M 696.0 177 a 10 10 0 0 1 10 10 v 100 a 10 10 0 0 0 10 10"></path><g class="terminal ">
<path d="M 716.0 297 h 0.0"></path><path d="M 766.0 297 h 0.0"></path><rect height="22" rx="10" ry="10" width="50" x="716.0" y="286"></rect><text x="741.0" y="301">"sd2"</text></g><path d="M 696.0 177 a 10 10 0 0 1 10 10 v 130 a 10 10 0 0 0 10 10"></path><g class="terminal ">
<path d="M 716.0 327 h 0.0"></path><path d="M 766.0 327 h 0.0"></path><rect height="22" rx="10" ry="10" width="50" x="716.0" y="316"></rect><text x="741.0" y="331">"sd3"</text></g><path d="M 696.0 177 a 10 10 0 0 1 10 10 v 160 a 10 10 0 0 0 10 10"></path><g class="terminal ">
<path d="M 716.0 357 h 0.0"></path><path d="M 766.0 357 h 0.0"></path><rect height="22" rx="10" ry="10" width="50" x="716.0" y="346"></rect><text x="741.0" y="361">"sd4"</text></g><path d="M 696.0 177 a 10 10 0 0 1 10 10 v 190 a 10 10 0 0 0 10 10"></path><g class="terminal ">
<path d="M 716.0 387 h 0.0"></path><path d="M 760.0 387 h 0.0"></path><rect height="22" rx="10" ry="10" width="44" x="716.0" y="376"></rect><text x="738.0" y="391">"ts"</text></g><path d="M 696.0 177 a 10 10 0 0 1 10 10 v 220 a 10 10 0 0 0 10 10"></path><g class="terminal ">
<path d="M 716.0 417 h 0.0"></path><path d="M 760.0 417 h 0.0"></path><rect height="22" rx="10" ry="10" width="44" x="716.0" y="406"></rect><text x="738.0" y="421">"cp"</text></g></g><path d="M 786.0 68 a 10 10 0 0 1 10 10 v 89 a 10 10 0 0 0 10 10"></path><g>
<path d="M 806.0 177 h 0.0"></path><path d="M 902.0 177 h 0.0"></path><path d="M 806.0 177 a 10 10 0 0 0 10 -10 v -10 a 10 10 0 0 1 10 -10"></path><g class="terminal ">
<path d="M 826.0 147 h 0.0"></path><path d="M 876.0 147 h 0.0"></path><rect height="22" rx="10" ry="10" width="50" x="826.0" y="136"></rect><text x="851.0" y="151">"mte"</text></g><path d="M 806.0 177 a 10 10 0 0 0 10 -10 v -40 a 10 10 0 0 1 10 -10"></path><g class="terminal ">
<path d="M 826.0 117 h 0.0"></path><path d="M 870.0 117 h 0.0"></path><rect height="22" rx="10" ry="10" width="44" x="826.0" y="106"></rect><text x="848.0" y="121">"cd"</text></g><path d="M 806.0 177 a 10 10 0 0 0 10 -10 v -70 a 10 10 0 0 1 10 -10"></path><g class="terminal ">
<path d="M 826.0 87 h 0.0"></path><path d="M 870.0 87 h 0.0"></path><rect height="22" rx="10" ry="10" width="44" x="826.0" y="76"></rect><text x="848.0" y="91">"cl"</text></g><path d="M 806.0 177 h 20"></path><g class="terminal ">
<path d="M 826.0 177 h 0.0"></path><path d="M 882.0 177 h 0.0"></path><rect height="22" rx="10" ry="10" width="56" x="826.0" y="166"></rect><text x="854.0" y="181">"mte1"</text></g><path d="M 806.0 177 a 10 10 0 0 1 10 10 v 10 a 10 10 0 0 0 10 10"></path><g class="terminal ">
<path d="M 826.0 207 h 0.0"></path><path d="M 882.0 207 h 0.0"></path><rect height="22" rx="10" ry="10" width="56" x="826.0" y="196"></rect><text x="854.0" y="211">"mte2"</text></g><path d="M 806.0 177 a 10 10 0 0 1 10 10 v 40 a 10 10 0 0 0 10 10"></path><g class="terminal ">
<path d="M 826.0 237 h 0.0"></path><path d="M 864.0 237 h 0.0"></path><rect height="22" rx="10" ry="10" width="38" x="826.0" y="226"></rect><text x="845.0" y="241">"p"</text></g><path d="M 806.0 177 a 10 10 0 0 1 10 10 v 70 a 10 10 0 0 0 10 10"></path><g class="terminal ">
<path d="M 826.0 267 h 0.0"></path><path d="M 870.0 267 h 0.0"></path><rect height="22" rx="10" ry="10" width="44" x="826.0" y="256"></rect><text x="848.0" y="271">"p1"</text></g><path d="M 806.0 177 a 10 10 0 0 1 10 10 v 100 a 10 10 0 0 0 10 10"></path><g class="terminal ">
<path d="M 826.0 297 h 0.0"></path><path d="M 870.0 297 h 0.0"></path><rect height="22" rx="10" ry="10" width="44" x="826.0" y="286"></rect><text x="848.0" y="301">"p2"</text></g><path d="M 806.0 177 a 10 10 0 0 1 10 10 v 130 a 10 10 0 0 0 10 10"></path><g class="terminal ">
<path d="M 826.0 327 h 0.0"></path><path d="M 870.0 327 h 0.0"></path><rect height="22" rx="10" ry="10" width="44" x="826.0" y="316"></rect><text x="848.0" y="331">"k1"</text></g><path d="M 806.0 177 a 10 10 0 0 1 10 10 v 160 a 10 10 0 0 0 10 10"></path><g class="terminal ">
<path d="M 826.0 357 h 0.0"></path><path d="M 870.0 357 h 0.0"></path><rect height="22" rx="10" ry="10" width="44" x="826.0" y="346"></rect><text x="848.0" y="361">"k2"</text></g><path d="M 806.0 177 a 10 10 0 0 1 10 10 v 190 a 10 10 0 0 0 10 10"></path><g class="terminal ">
<path d="M 826.0 387 h 0.0"></path><path d="M 876.0 387 h 0.0"></path><rect height="22" rx="10" ry="10" width="50" x="826.0" y="376"></rect><text x="851.0" y="391">"rem"</text></g></g></g><g class="non-terminal ">
<path d="M 222.0 52 h 0.0"></path><path d="M 372.0 52 h 0.0"></path><text class="comment" x="297.0" y="57">Para.para.style.enum</text></g></g></g><path d="M 126.0 493 h 20"></path><g>
<path d="M 146.0 493 h 268.0"></path><path d="M 644.0 493 h 268.0"></path><path d="M 414.0 493 h 10"></path><g>
<path d="M 424.0 493 h 0.0"></path><path d="M 634.0 493 h 0.0"></path><path d="M 424.0 493 h 20"></path><g class="non-terminal ">
<path d="M 444.0 493 h 48.0"></path><path d="M 566.0 493 h 48.0"></path><rect height="22" width="74" x="492.0" y="482"></rect><text x="529.0" y="497">Reference</text></g><path d="M 614.0 493 h 20"></path><path d="M 424.0 493 a 10 10 0 0 1 10 10 v 10 a 10 10 0 0 0 10 10"></path><g class="non-terminal ">
<path d="M 444.0 523 h 51.0"></path><path d="M 563.0 523 h 51.0"></path><rect height="22" width="68" x="495.0" y="512"></rect><text x="529.0" y="527">Footnote</text></g><path d="M 614.0 523 a 10 10 0 0 0 10 -10 v -10 a 10 10 0 0 1 10 -10"></path><path d="M 424.0 493 a 10 10 0 0 1 10 10 v 40 a 10 10 0 0 0 10 10"></path><g class="non-terminal ">
<path d="M 444.0 553 h 33.0"></path><path d="M 581.0 553 h 33.0"></path><rect height="22" width="104" x="477.0" y="542"></rect><text x="529.0" y="557">CrossReference</text></g><path d="M 614.0 553 a 10 10 0 0 0 10 -10 v -40 a 10 10 0 0 1 10 -10"></path><path d="M 424.0 493 a 10 10 0 0 1 10 10 v 70 a 10 10 0 0 0 10 10"></path><g class="non-terminal ">
<path d="M 444.0 583 h 63.0"></path><path d="M 551.0 583 h 63.0"></path><rect height="22" width="44" x="507.0" y="572"></rect><text x="529.0" y="587">Char</text></g><path d="M 614.0 583 a 10 10 0 0 0 10 -10 v -70 a 10 10 0 0 1 10 -10"></path><path d="M 424.0 493 a 10 10 0 0 1 10 10 v 100 a 10 10 0 0 0 10 10"></path><g class="non-terminal ">
<path d="M 444.0 613 h 48.0"></path><path d="M 566.0 613 h 48.0"></path><rect height="22" width="74" x="492.0" y="602"></rect><text x="529.0" y="617">Milestone</text></g><path d="M 614.0 613 a 10 10 0 0 0 10 -10 v -100 a 10 10 0 0 1 10 -10"></path><path d="M 424.0 493 a 10 10 0 0 1 10 10 v 130 a 10 10 0 0 0 10 10"></path><g class="non-terminal ">
<path d="M 444.0 643 h 57.0"></path><path d="M 557.0 643 h 57.0"></path><rect height="22" width="56" x="501.0" y="632"></rect><text x="529.0" y="647">Figure</text></g><path d="M 614.0 643 a 10 10 0 0 0 10 -10 v -130 a 10 10 0 0 1 10 -10"></path><path d="M 424.0 493 a 10 10 0 0 1 10 10 v 160 a 10 10 0 0 0 10 10"></path><g class="non-terminal ">
<path d="M 444.0 673 h 60.0"></path><path d="M 554.0 673 h 60.0"></path><rect height="22" width="50" x="504.0" y="662"></rect><text x="529.0" y="677">Verse</text></g><path d="M 614.0 673 a 10 10 0 0 0 10 -10 v -160 a 10 10 0 0 1 10 -10"></path><path d="M 424.0 493 a 10 10 0 0 1 10 10 v 214 a 10 10 0 0 0 10 10"></path><g>
<path d="M 444.0 727 h 0.0"></path><path d="M 614.0 727 h 0.0"></path><rect class="group-box" height="38" rx="10" ry="10" width="170" x="444.0" y="708"></rect><g>
<path d="M 444.0 727 h 10.0"></path><path d="M 604.0 727 h 10.0"></path><g class="terminal ">
<path d="M 454.0 727 h 0.0"></path><path d="M 534.0 727 h 0.0"></path><rect height="22" rx="10" ry="10" width="80" x="454.0" y="716"></rect><text x="494.0" y="731">&#60;optbreak></text></g><path d="M 534.0 727 h 10"></path><path d="M 544.0 727 h 10"></path><g class="terminal ">
<path d="M 554.0 727 h 0.0"></path><path d="M 604.0 727 h 0.0"></path><rect height="22" rx="10" ry="10" width="50" x="554.0" y="716"></rect><text x="579.0" y="731">empty</text></g></g><g class="non-terminal ">
<path d="M 444.0 700 h 0.0"></path><path d="M 489.0 700 h 0.0"></path><text class="comment" x="466.5" y="705">Break</text></g></g><path d="M 614.0 727 a 10 10 0 0 0 10 -10 v -214 a 10 10 0 0 1 10 -10"></path><path d="M 424.0 493 a 10 10 0 0 1 10 10 v 241 a 10 10 0 0 0 10 10"></path><g>
<path d="M 444.0 754 h 43.0"></path><path d="M 571.0 754 h 43.0"></path><path d="M 487.0 754 h 20"></path><g>
<path d="M 507.0 754 h 44"></path></g><path d="M 551.0 754 h 20"></path><path d="M 487.0 754 a 10 10 0 0 1 10 10 v 0 a 10 10 0 0 0 10 10"></path><g class="terminal ">
<path d="M 507.0 774 h 0.0"></path><path d="M 551.0 774 h 0.0"></path><rect height="22" rx="10" ry="10" width="44" x="507.0" y="763"></rect><text x="529.0" y="778">text</text></g><path d="M 551.0 774 a 10 10 0 0 0 10 -10 v 0 a 10 10 0 0 1 10 -10"></path></g><path d="M 614.0 754 a 10 10 0 0 0 10 -10 v -241 a 10 10 0 0 1 10 -10"></path></g><path d="M 634.0 493 h 10"></path><path d="M 424.0 493 a 10 10 0 0 0 -10 10 v 280 a 10 10 0 0 0 10 10"></path><g>
<path d="M 424.0 793 h 210"></path></g><path d="M 634.0 793 a 10 10 0 0 0 10 -10 v -280 a 10 10 0 0 0 -10 -10"></path></g><path d="M 912.0 493 h 20"></path></g></g><g class="non-terminal ">
<path d="M 50.0 28 h 0.0"></path><path d="M 88.0 28 h 0.0"></path><text class="comment" x="69.0" y="33">Para</text></g></g><path d="M 942 493 h 10"></path><path d="M 952 493 h 20 m 0 -10 v 20"></path></g></svg>