<svg class="railroad-diagram" height="402" viewBox="0 0 442 402" width="442" xmlns="http://www.w3.org/2000/svg" xmlns:xlink="http://www.w3.org/1999/xlink">
<g transform="translate(.5 .5)">
<style>/* <![CDATA[ */
    svg.railroad-diagram {
        background-color:hsl(30,20%,95%);
    }
    svg.railroad-diagram path {
        stroke-width: 2;
        stroke: black;
        fill: none;
    }
    svg.railroad-diagram text {
        font-size: 12pt;
        text-anchor: middle;
        font-family: DejaVu Sans;
    }
    svg.railroad-diagram text.label {
        text-anchor:start;
    }
    svg.railroad-diagram text.comment {
        font-family: DejaVu Sans;
        font-size: 15pt;
    }
    svg.railroad-diagram rect{
        stroke-width: 2;
        stroke:black;
        fill: rgb(210, 210, 255);
    }
    svg.railroad-diagram rect.group-box {
        stroke: gray;
        stroke-dasharray: 10 5;
        fill: none;
    }
    .terminal {
        font-family: DejaVu Sans;
    }

/* ]]> */
</style><g>
<path d="M 20 105 v 20 m 0 -10 h 20"></path></g><path d="M 40 115 h 10"></path><g>
<path d="M 50 115 h 0.0"></path><path d="M 392.0 115 h 0.0"></path><rect class="group-box" height="346" rx="10" ry="10" width="342" x="50.0" y="36"></rect><g>
<path d="M 50.0 115 h 10.0"></path><path d="M 382.0 115 h 10.0"></path><g class="terminal ">
<path d="M 60.0 115 h 0.0"></path><path d="M 116.0 115 h 0.0"></path><rect height="22" rx="10" ry="10" width="56" x="60.0" y="104"></rect><text x="88.0" y="119">&#60;para></text></g><path d="M 116.0 115 h 10"></path><g>
<path d="M 126.0 115 h 0.0"></path><path d="M 382.0 115 h 0.0"></path><path d="M 126.0 115 a 10 10 0 0 0 10 -10 v -10 a 10 10 0 0 1 10 -10"></path><g>
<path d="M 146.0 85 h 0.0"></path><path d="M 266.0 85 h 0.0"></path><g class="terminal ">
<path d="M 146.0 85 h 0.0"></path><path d="M 190.0 85 h 0.0"></path><rect height="22" rx="10" ry="10" width="44" x="146.0" y="74"></rect><text x="168.0" y="89">@vid</text></g><path d="M 190.0 85 h 10"></path><path d="M 200.0 85 h 10"></path><g class="terminal ">
<path d="M 210.0 85 h 0.0"></path><path d="M 266.0 85 h 0.0"></path><rect height="22" rx="10" ry="10" width="56" x="210.0" y="74"></rect><text x="238.0" y="89">string</text></g></g><path d="M 126.0 115 a 10 10 0 0 0 10 -10 v -40 a 10 10 0 0 1 10 -10"></path><g>
<path d="M 146.0 55 h 0.0"></path><path d="M 362.0 55 h 0.0"></path><g class="terminal ">
<path d="M 146.0 55 h 0.0"></path><path d="M 202.0 55 h 0.0"></path><rect height="22" rx="10" ry="10" width="56" x="146.0" y="44"></rect><text x="174.0" y="59">@style</text></g><path d="M 202.0 55 h 10"></path><path d="M 212.0 55 h 10"></path><g class="non-terminal ">
<path d="M 222.0 55 h 0.0"></path><path d="M 362.0 55 h 0.0"></path><rect height="22" width="140" x="222.0" y="44"></rect><text x="292.0" y="59">Para.para.style.enum</text></g></g><path d="M 126.0 115 h 20"></path><g>
<path d="M 146.0 115 h 26.0"></path><path d="M 336.0 115 h 26.0"></path><path d="M 172.0 115 h 10"></path><g>
<path d="M 182.0 115 h 0.0"></path><path d="M 326.0 115 h 0.0"></path><path d="M 182.0 115 h 20"></path><g class="non-terminal ">
<path d="M 202.0 115 h 15.0"></path><path d="M 291.0 115 h 15.0"></path><rect height="22" width="74" x="217.0" y="104"></rect><text x="254.0" y="119">Reference</text></g><path d="M 306.0 115 h 20"></path><path d="M 182.0 115 a 10 10 0 0 1 10 10 v 10 a 10 10 0 0 0 10 10"></path><g class="non-terminal ">
<path d="M 202.0 145 h 18.0"></path><path d="M 288.0 145 h 18.0"></path><rect height="22" width="68" x="220.0" y="134"></rect><text x="254.0" y="149">Footnote</text></g><path d="M 306.0 145 a 10 10 0 0 0 10 -10 v -10 a 10 10 0 0 1 10 -10"></path><path d="M 182.0 115 a 10 10 0 0 1 10 10 v 40 a 10 10 0 0 0 10 10"></path><g class="non-terminal ">
<path d="M 202.0 175 h 0.0"></path><path d="M 306.0 175 h 0.0"></path><rect height="22" width="104" x="202.0" y="164"></rect><text x="254.0" y="179">CrossReference</text></g><path d="M 306.0 175 a 10 10 0 0 0 10 -10 v -40 a 10 10 0 0 1 10 -10"></path><path d="M 182.0 115 a 10 10 0 0 1 10 10 v 70 a 10 10 0 0 0 10 10"></path><g class="non-terminal ">
<path d="M 202.0 205 h 30.0"></path><path d="M 276.0 205 h 30.0"></path><rect height="22" width="44" x="232.0" y="194"></rect><text x="254.0" y="209">Char</text></g><path d="M 306.0 205 a 10 10 0 0 0 10 -10 v -70 a 10 10 0 0 1 10 -10"></path><path d="M 182.0 115 a 10 10 0 0 1 10 10 v 100 a 10 10 0 0 0 10 10"></path><g class="non-terminal ">
<path d="M 202.0 235 h 15.0"></path><path d="M 291.0 235 h 15.0"></path><rect height="22" width="74" x="217.0" y="224"></rect><text x="254.0" y="239">Milestone</text></g><path d="M 306.0 235 a 10 10 0 0 0 10 -10 v -100 a 10 10 0 0 1 10 -10"></path><path d="M 182.0 115 a 10 10 0 0 1 10 10 v 130 a 10 10 0 0 0 10 10"></path><g class="non-terminal ">
<path d="M 202.0 265 h 24.0"></path><path d="M 282.0 265 h 24.0"></path><rect height="22" width="56" x="226.0" y="254"></rect><text x="254.0" y="269">Figure</text></g><path d="M 306.0 265 a 10 10 0 0 0 10 -10 v -130 a 10 10 0 0 1 10 -10"></path><path d="M 182.0 115 a 10 10 0 0 1 10 10 v 160 a 10 10 0 0 0 10 10"></path><g class="non-terminal ">
<path d="M 202.0 295 h 27.0"></path><path d="M 279.0 295 h 27.0"></path><rect height="22" width="50" x="229.0" y="284"></rect><text x="254.0" y="299">Verse</text></g><path d="M 306.0 295 a 10 10 0 0 0 10 -10 v -160 a 10 10 0 0 1 10 -10"></path><path d="M 182.0 115 a 10 10 0 0 1 10 10 v 190 a 10 10 0 0 0 10 10"></path><g class="non-terminal ">
<path d="M 202.0 325 h 27.0"></path><path d="M 279.0 325 h 27.0"></path><rect height="22" width="50" x="229.0" y="314"></rect><text x="254.0" y="329">Break</text></g><path d="M 306.0 325 a 10 10 0 0 0 10 -10 v -190 a 10 10 0 0 1 10 -10"></path><path d="M 182.0 115 a 10 10 0 0 1 10 10 v 220 a 10 10 0 0 0 10 10"></path><g class="terminal ">
<path d="M 202.0 355 h 30.0"></path><path d="M 276.0 355 h 30.0"></path><rect height="22" rx="10" ry="10" width="44" x="232.0" y="344"></rect><text x="254.0" y="359">text</text></g><path d="M 306.0 355 a 10 10 0 0 0 10 -10 v -220 a 10 10 0 0 1 10 -10"></path></g><path d="M 326.0 115 h 10"></path><path d="M 182.0 115 a 10 10 0 0 0 -10 10 v 239 a 10 10 0 0 0 10 10"></path><g>
<path d="M 182.0 374 h 144"></path></g><path d="M 326.0 374 a 10 10 0 0 0 10 -10 v -239 a 10 10 0 0 0 -10 -10"></path></g><path d="M 362.0 115 h 20"></path></g></g><g class="non-terminal ">
<path d="M 50.0 28 h 0.0"></path><path d="M 88.0 28 h 0.0"></path><text class="comment" x="69.0" y="33">Para</text></g></g><path d="M 392 115 h 10"></path><path d="M 402 115 h 20 m 0 -10 v 20"></path></g></svg>