<svg class="railroad-diagram" height="503" viewBox="0 0 686 503" width="686" xmlns="http://www.w3.org/2000/svg" xmlns:xlink="http://www.w3.org/1999/xlink">
<g transform="translate(.5 .5)">
<style>/* <![CDATA[ */
    svg.railroad-diagram {
        background-color:hsl(30,20%,95%);
    }
    svg.railroad-diagram path {
        stroke-width: 2;
        stroke: black;
        fill: none;
    }
    svg.railroad-diagram text {
        font-size: 12pt;
        text-anchor: middle;
        font-family: DejaVu Sans;
    }
    svg.railroad-diagram text.label {
        text-anchor:start;
    }
    svg.railroad-diagram text.comment {
        font-family: DejaVu Sans;
        font-size: 15pt;
    }
    svg.railroad-diagram rect{
        stroke-width: 2;
        stroke:black;
        fill: rgb(210, 210, 255);
    }
    svg.railroad-diagram rect.group-box {
        stroke: gray;
        stroke-dasharray: 10 5;
        fill: none;
    }
    .terminal {
        font-family: DejaVu Sans;
    }

/* ]]> */
</style><g>
<path d="M 20 264 v 20 m 0 -10 h 20"></path></g><path d="M 40 274 h 10"></path><g>
<path d="M 50 274 h 0.0"></path><path d="M 636.0 274 h 0.0"></path><rect class="group-box" height="447" rx="10" ry="10" width="586" x="50.0" y="36"></rect><g>
<path d="M 50.0 274 h 10.0"></path><path d="M 626.0 274 h 10.0"></path><g class="terminal ">
<path d="M 60.0 274 h 0.0"></path><path d="M 116.0 274 h 0.0"></path><rect height="22" rx="10" ry="10" width="56" x="60.0" y="263"></rect><text x="88.0" y="278">&#60;char></text></g><path d="M 116.0 274 h 10"></path><g>
<path d="M 126.0 274 h 0.0"></path><path d="M 626.0 274 h 0.0"></path><path d="M 126.0 274 a 10 10 0 0 0 10 -10 v -19 a 10 10 0 0 1 10 -10"></path><g>
<path d="M 146.0 235 h 0.0"></path><path d="M 284.0 235 h 0.0"></path><g class="terminal ">
<path d="M 146.0 235 h 0.0"></path><path d="M 208.0 235 h 0.0"></path><rect height="22" rx="10" ry="10" width="62" x="146.0" y="224"></rect><text x="177.0" y="239">@srcloc</text></g><path d="M 208.0 235 h 10"></path><path d="M 218.0 235 h 10"></path><g class="terminal ">
<path d="M 228.0 235 h 0.0"></path><path d="M 284.0 235 h 0.0"></path><rect height="22" rx="10" ry="10" width="56" x="228.0" y="224"></rect><text x="256.0" y="239">string</text></g></g><path d="M 126.0 274 a 10 10 0 0 0 10 -10 v -49 a 10 10 0 0 1 10 -10"></path><g>
<path d="M 146.0 205 h 0.0"></path><path d="M 284.0 205 h 0.0"></path><g class="terminal ">
<path d="M 146.0 205 h 0.0"></path><path d="M 208.0 205 h 0.0"></path><rect height="22" rx="10" ry="10" width="62" x="146.0" y="194"></rect><text x="177.0" y="209">@strong</text></g><path d="M 208.0 205 h 10"></path><path d="M 218.0 205 h 10"></path><g class="terminal ">
<path d="M 228.0 205 h 0.0"></path><path d="M 284.0 205 h 0.0"></path><rect height="22" rx="10" ry="10" width="56" x="228.0" y="194"></rect><text x="256.0" y="209">string</text></g></g><path d="M 126.0 274 a 10 10 0 0 0 10 -10 v -79 a 10 10 0 0 1 10 -10"></path><g>
<path d="M 146.0 175 h 0.0"></path><path d="M 278.0 175 h 0.0"></path><g class="terminal ">
<path d="M 146.0 175 h 0.0"></path><path d="M 202.0 175 h 0.0"></path><rect height="22" rx="10" ry="10" width="56" x="146.0" y="164"></rect><text x="174.0" y="179">@lemma</text></g><path d="M 202.0 175 h 10"></path><path d="M 212.0 175 h 10"></path><g class="terminal ">
<path d="M 222.0 175 h 0.0"></path><path d="M 278.0 175 h 0.0"></path><rect height="22" rx="10" ry="10" width="56" x="222.0" y="164"></rect><text x="250.0" y="179">string</text></g></g><path d="M 126.0 274 a 10 10 0 0 0 10 -10 v -109 a 10 10 0 0 1 10 -10"></path><g>
<path d="M 146.0 145 h 0.0"></path><path d="M 290.0 145 h 0.0"></path><g class="terminal ">
<path d="M 146.0 145 h 0.0"></path><path d="M 214.0 145 h 0.0"></path><rect height="22" rx="10" ry="10" width="68" x="146.0" y="134"></rect><text x="180.0" y="149">@link-id</text></g><path d="M 214.0 145 h 10"></path><path d="M 224.0 145 h 10"></path><g class="terminal ">
<path d="M 234.0 145 h 0.0"></path><path d="M 290.0 145 h 0.0"></path><rect height="22" rx="10" ry="10" width="56" x="234.0" y="134"></rect><text x="262.0" y="149">string</text></g></g><path d="M 126.0 274 a 10 10 0 0 0 10 -10 v -139 a 10 10 0 0 1 10 -10"></path><g>
<path d="M 146.0 115 h 0.0"></path><path d="M 308.0 115 h 0.0"></path><g class="terminal ">
<path d="M 146.0 115 h 0.0"></path><path d="M 232.0 115 h 0.0"></path><rect height="22" rx="10" ry="10" width="86" x="146.0" y="104"></rect><text x="189.0" y="119">@link-title</text></g><path d="M 232.0 115 h 10"></path><path d="M 242.0 115 h 10"></path><g class="terminal ">
<path d="M 252.0 115 h 0.0"></path><path d="M 308.0 115 h 0.0"></path><rect height="22" rx="10" ry="10" width="56" x="252.0" y="104"></rect><text x="280.0" y="119">string</text></g></g><path d="M 126.0 274 a 10 10 0 0 0 10 -10 v -169 a 10 10 0 0 1 10 -10"></path><g>
<path d="M 146.0 85 h 0.0"></path><path d="M 302.0 85 h 0.0"></path><g class="terminal ">
<path d="M 146.0 85 h 0.0"></path><path d="M 226.0 85 h 0.0"></path><rect height="22" rx="10" ry="10" width="80" x="146.0" y="74"></rect><text x="186.0" y="89">@link-href</text></g><path d="M 226.0 85 h 10"></path><path d="M 236.0 85 h 10"></path><g class="terminal ">
<path d="M 246.0 85 h 0.0"></path><path d="M 302.0 85 h 0.0"></path><rect height="22" rx="10" ry="10" width="56" x="246.0" y="74"></rect><text x="274.0" y="89">string</text></g></g><path d="M 126.0 274 a 10 10 0 0 0 10 -10 v -199 a 10 10 0 0 1 10 -10"></path><g>
<path d="M 146.0 55 h 0.0"></path><path d="M 260.0 55 h 0.0"></path><g class="terminal ">
<path d="M 146.0 55 h 0.0"></path><path d="M 202.0 55 h 0.0"></path><rect height="22" rx="10" ry="10" width="56" x="146.0" y="44"></rect><text x="174.0" y="59">@style</text></g><path d="M 202.0 55 h 10"></path><path d="M 212.0 55 h 10"></path><g class="terminal ">
<path d="M 222.0 55 h 0.0"></path><path d="M 260.0 55 h 0.0"></path><rect height="22" rx="10" ry="10" width="38" x="222.0" y="44"></rect><text x="241.0" y="59">"w"</text></g></g><path d="M 126.0 274 h 20"></path><g>
<path d="M 146.0 274 h 0.0"></path><path d="M 606.0 274 h 0.0"></path><g>
<path d="M 146.0 274 h 0.0"></path><path d="M 272.0 274 h 0.0"></path><path d="M 146.0 274 h 20"></path><g>
<path d="M 166.0 274 h 86"></path></g><path d="M 252.0 274 h 20"></path><path d="M 146.0 274 a 10 10 0 0 1 10 10 v 0 a 10 10 0 0 0 10 10"></path><g class="non-terminal ">
<path d="M 166.0 294 h 0.0"></path><path d="M 252.0 294 h 0.0"></path><rect height="22" width="86" x="166.0" y="283"></rect><text x="209.0" y="298">char.closed</text></g><path d="M 252.0 294 a 10 10 0 0 0 10 -10 v 0 a 10 10 0 0 1 10 -10"></path></g><path d="M 272.0 274 h 10"></path><g class="terminal ">
<path d="M 282.0 274 h 0.0"></path><path d="M 326.0 274 h 0.0"></path><rect height="22" rx="10" ry="10" width="44" x="282.0" y="263"></rect><text x="304.0" y="278">text</text></g><path d="M 326.0 274 h 10"></path><g>
<path d="M 336.0 274 h 0.0"></path><path d="M 606.0 274 h 0.0"></path><path d="M 336.0 274 a 10 10 0 0 0 10 -10 v 0 a 10 10 0 0 1 10 -10"></path><g>
<path d="M 356.0 254 h 230"></path></g><path d="M 586.0 254 a 10 10 0 0 1 10 10 v 0 a 10 10 0 0 0 10 10"></path><path d="M 336.0 274 h 20"></path><g>
<path d="M 356.0 274 h 0.0"></path><path d="M 586.0 274 h 0.0"></path><path d="M 356.0 274 h 10"></path><g>
<path d="M 366.0 274 h 0.0"></path><path d="M 576.0 274 h 0.0"></path><path d="M 366.0 274 h 20"></path><g class="non-terminal ">
<path d="M 386.0 274 h 48.0"></path><path d="M 508.0 274 h 48.0"></path><rect height="22" width="74" x="434.0" y="263"></rect><text x="471.0" y="278">Reference</text></g><path d="M 556.0 274 h 20"></path><path d="M 366.0 274 a 10 10 0 0 1 10 10 v 10 a 10 10 0 0 0 10 10"></path><g class="non-terminal ">
<path d="M 386.0 304 h 63.0"></path><path d="M 493.0 304 h 63.0"></path><rect height="22" width="44" x="449.0" y="293"></rect><text x="471.0" y="308">Char</text></g><path d="M 556.0 304 a 10 10 0 0 0 10 -10 v -10 a 10 10 0 0 1 10 -10"></path><path d="M 366.0 274 a 10 10 0 0 1 10 10 v 40 a 10 10 0 0 0 10 10"></path><g class="non-terminal ">
<path d="M 386.0 334 h 48.0"></path><path d="M 508.0 334 h 48.0"></path><rect height="22" width="74" x="434.0" y="323"></rect><text x="471.0" y="338">Milestone</text></g><path d="M 556.0 334 a 10 10 0 0 0 10 -10 v -40 a 10 10 0 0 1 10 -10"></path><path d="M 366.0 274 a 10 10 0 0 1 10 10 v 70 a 10 10 0 0 0 10 10"></path><g class="non-terminal ">
<path d="M 386.0 364 h 51.0"></path><path d="M 505.0 364 h 51.0"></path><rect height="22" width="68" x="437.0" y="353"></rect><text x="471.0" y="368">Footnote</text></g><path d="M 556.0 364 a 10 10 0 0 0 10 -10 v -70 a 10 10 0 0 1 10 -10"></path><path d="M 366.0 274 a 10 10 0 0 1 10 10 v 124 a 10 10 0 0 0 10 10"></path><g>
<path d="M 386.0 418 h 0.0"></path><path d="M 556.0 418 h 0.0"></path><rect class="group-box" height="38" rx="10" ry="10" width="170" x="386.0" y="399"></rect><g>
<path d="M 386.0 418 h 10.0"></path><path d="M 546.0 418 h 10.0"></path><g class="terminal ">
<path d="M 396.0 418 h 0.0"></path><path d="M 476.0 418 h 0.0"></path><rect height="22" rx="10" ry="10" width="80" x="396.0" y="407"></rect><text x="436.0" y="422">&#60;optbreak></text></g><path d="M 476.0 418 h 10"></path><path d="M 486.0 418 h 10"></path><g class="terminal ">
<path d="M 496.0 418 h 0.0"></path><path d="M 546.0 418 h 0.0"></path><rect height="22" rx="10" ry="10" width="50" x="496.0" y="407"></rect><text x="521.0" y="422">empty</text></g></g><g class="non-terminal ">
<path d="M 386.0 391 h 0.0"></path><path d="M 431.0 391 h 0.0"></path><text class="comment" x="408.5" y="396">Break</text></g></g><path d="M 556.0 418 a 10 10 0 0 0 10 -10 v -124 a 10 10 0 0 1 10 -10"></path><path d="M 366.0 274 a 10 10 0 0 1 10 10 v 162 a 10 10 0 0 0 10 10"></path><g class="terminal ">
<path d="M 386.0 456 h 63.0"></path><path d="M 493.0 456 h 63.0"></path><rect height="22" rx="10" ry="10" width="44" x="449.0" y="445"></rect><text x="471.0" y="460">text</text></g><path d="M 556.0 456 a 10 10 0 0 0 10 -10 v -162 a 10 10 0 0 1 10 -10"></path></g><path d="M 576.0 274 h 10"></path><path d="M 366.0 274 a 10 10 0 0 0 -10 10 v 181 a 10 10 0 0 0 10 10"></path><g>
<path d="M 366.0 475 h 210"></path></g><path d="M 576.0 475 a 10 10 0 0 0 10 -10 v -181 a 10 10 0 0 0 -10 -10"></path></g><path d="M 586.0 274 h 20"></path></g></g><path d="M 606.0 274 h 20"></path></g></g><g class="non-terminal ">
<path d="M 50.0 28 h 0.0"></path><path d="M 249.0 28 h 0.0"></path><text class="comment" x="149.5" y="33">CharWithAttrib.char.style.w</text></g></g><path d="M 636 274 h 10"></path><path d="M 646 274 h 20 m 0 -10 v 20"></path></g></svg>