<svg class="railroad-diagram" height="112" viewBox="0 0 816.5 112" width="816.5" xmlns="http://www.w3.org/2000/svg" xmlns:xlink="http://www.w3.org/1999/xlink">
<g transform="translate(.5 .5)">
<style>/* <![CDATA[ */

    svg.railroad-diagram {
        background-color: hsl(30,20%,95%);
    }
    svg.railroad-diagram path {
        stroke-width: 2;
        stroke: black;
        fill: none;
    }
    svg.railroad-diagram text {
        font-size: 12px;
        text-anchor: middle;
        font-family: DejaVu Sans;
    }
    svg.railroad-diagram text.label {
        text-anchor:start;
    }
    svg.railroad-diagram text.comment {
        font-family: DejaVu Sans;
        font-size: 14px;
    }
    svg.railroad-diagram rect{
        stroke-width: 2;
        stroke: black;
        fill: rgb(210, 255, 210);
    }
    svg.railroad-diagram rect.group-box {
        stroke: gray;
        stroke-dasharray: 10 5;
        fill: none;
    }
    .terminal {
        font-family: DejaVu Sans;
    }
    svg.railroad-diagram g.altterminal rect {
        fill: rgb(251, 252, 207)
    }

/* ]]> */
</style><g>
<path d="M 20 31 v 20 m 0 -10 h 20"></path></g><path d="M 40 41 h 10"></path><g>
<path d="M 50 41 h 0.0"></path><path d="M 766.5 41 h 0.0"></path><g>
<path d="M 50.0 41 h 0.0"></path><path d="M 186.5 41 h 0.0"></path><path d="M 50.0 41 h 20"></path><g class="terminal ">
<path d="M 70.0 41 h 12.75"></path><path d="M 153.75 41 h 12.75"></path><rect height="22" rx="10" ry="10" width="71.0" x="82.75" y="30"></rect><text x="118.25" y="45">'\n\\'</text></g><path d="M 166.5 41 h 20"></path><path d="M 50.0 41 a 10 10 0 0 1 10 10 v 10 a 10 10 0 0 0 10 10"></path><g class="terminal altterminal">
<path d="M 70.0 71 h 0.0"></path><path d="M 166.5 71 h 0.0"></path><rect height="22" rx="10" ry="10" width="96.5" x="70.0" y="60"></rect><text x="118.25" y="75">/${Ws}\\/</text></g><path d="M 166.5 71 a 10 10 0 0 0 10 -10 v -10 a 10 10 0 0 1 10 -10"></path></g><path d="M 186.5 41 h 10"></path><path d="M 196.5 41 h 10"></path><g class="non-terminal ">
<path d="M 206.5 41 h 0.0"></path><path d="M 422.0 41 h 0.0"></path><rect height="22" width="215.5" x="206.5" y="30"></rect><text x="314.25" y="45">Headers.para.style.enum</text></g><path d="M 422.0 41 h 10"></path><path d="M 432.0 41 h 10"></path><g>
<path d="M 442.0 41 h 0.0"></path><path d="M 553.0 41 h 0.0"></path><path d="M 442.0 41 h 20"></path><g class="terminal ">
<path d="M 462.0 41 h 12.75"></path><path d="M 520.25 41 h 12.75"></path><rect height="22" rx="10" ry="10" width="45.5" x="474.75" y="30"></rect><text x="497.5" y="45">' '</text></g><path d="M 533.0 41 h 20"></path><path d="M 442.0 41 a 10 10 0 0 1 10 10 v 10 a 10 10 0 0 0 10 10"></path><g class="terminal altterminal">
<path d="M 462.0 71 h 0.0"></path><path d="M 533.0 71 h 0.0"></path><rect height="22" rx="10" ry="10" width="71.0" x="462.0" y="60"></rect><text x="497.5" y="75">TAGEND</text></g><path d="M 533.0 71 a 10 10 0 0 0 10 -10 v -10 a 10 10 0 0 1 10 -10"></path></g><path d="M 553.0 41 h 10"></path><path d="M 563.0 41 h 10"></path><g>
<path d="M 573.0 41 h 0.0"></path><path d="M 766.5 41 h 0.0"></path><path d="M 573.0 41 h 20"></path><g>
<path d="M 593.0 41 h 153.5"></path></g><path d="M 746.5 41 h 20"></path><path d="M 573.0 41 a 10 10 0 0 1 10 10 v 0 a 10 10 0 0 0 10 10"></path><g>
<path d="M 593.0 61 h 0.0"></path><path d="M 746.5 61 h 0.0"></path><g class="terminal ">
<path d="M 593.0 61 h 0.0"></path><path d="M 647.0 61 h 0.0"></path><rect height="22" rx="10" ry="10" width="54.0" x="593.0" y="50"></rect><text x="620.0" y="65">TEXT</text></g><path d="M 647.0 61 h 10"></path><path d="M 657.0 61 h 10"></path><g class="terminal ">
<path d="M 667.0 61 h 0.0"></path><path d="M 746.5 61 h 0.0"></path><rect height="22" rx="10" ry="10" width="79.5" x="667.0" y="50"></rect><text x="706.75" y="65">TEXTEND</text></g></g><path d="M 746.5 61 a 10 10 0 0 0 10 -10 v 0 a 10 10 0 0 1 10 -10"></path></g></g><path d="M 766.5 41 h 10"></path><path d="M 776.5 41 h 20 m 0 -10 v 20"></path></g></svg>