<svg class="railroad-diagram" height="350" viewBox="0 0 931.5 350" width="931.5" xmlns="http://www.w3.org/2000/svg" xmlns:xlink="http://www.w3.org/1999/xlink">
<g transform="translate(.5 .5)">
<style>/* <![CDATA[ */

    svg.railroad-diagram {
        background-color: hsl(30,20%,95%);
    }
    svg.railroad-diagram path {
        stroke-width: 2;
        stroke: black;
        fill: none;
    }
    svg.railroad-diagram text {
        font-size: 12px;
        text-anchor: middle;
        font-family: DejaVu Sans;
    }
    svg.railroad-diagram text.label {
        text-anchor:start;
    }
    svg.railroad-diagram text.comment {
        font-family: DejaVu Sans;
        font-size: 14px;
    }
    svg.railroad-diagram rect{
        stroke-width: 2;
        stroke: black;
        fill: rgb(210, 255, 210);
    }
    svg.railroad-diagram rect.group-box {
        stroke: gray;
        stroke-dasharray: 10 5;
        fill: none;
    }
    .terminal {
        font-family: DejaVu Sans;
    }
    svg.railroad-diagram g.altterminal rect {
        fill: rgb(251, 252, 207)
    }

/* ]]> */
</style><g>
<path d="M 20 139 v 20 m 0 -10 h 20"></path></g><path d="M 40 149 h 10"></path><g>
<path d="M 50 149 h 0.0"></path><path d="M 881.5 149 h 0.0"></path><g>
<path d="M 50.0 149 h 0.0"></path><path d="M 881.5 149 h 0.0"></path><path d="M 50.0 149 h 20"></path><g>
<path d="M 70.0 149 h 0.0"></path><path d="M 861.5 149 h 0.0"></path><g>
<path d="M 70.0 149 h 0.0"></path><path d="M 206.5 149 h 0.0"></path><path d="M 70.0 149 h 20"></path><g class="terminal ">
<path d="M 90.0 149 h 12.75"></path><path d="M 173.75 149 h 12.75"></path><rect height="22" rx="10" ry="10" width="71.0" x="102.75" y="138"></rect><text x="138.25" y="153">'\n\\'</text></g><path d="M 186.5 149 h 20"></path><path d="M 70.0 149 a 10 10 0 0 1 10 10 v 10 a 10 10 0 0 0 10 10"></path><g class="terminal altterminal">
<path d="M 90.0 179 h 0.0"></path><path d="M 186.5 179 h 0.0"></path><rect height="22" rx="10" ry="10" width="96.5" x="90.0" y="168"></rect><text x="138.25" y="183">/${Ws}\\/</text></g><path d="M 186.5 179 a 10 10 0 0 0 10 -10 v -10 a 10 10 0 0 1 10 -10"></path></g><path d="M 206.5 149 h 10"></path><g>
<path d="M 216.5 149 h 0.0"></path><path d="M 527.0 149 h 0.0"></path><path d="M 216.5 149 a 10 10 0 0 0 10 -10 v -99 a 10 10 0 0 1 10 -10 h 121.0"></path><path d="M 377.5 208 h 129.5 a 10 10 0 0 0 10 -10 v -39 a 10 10 0 0 1 10 -10"></path><path d="M 216.5 149 h 10"></path><g>
<path d="M 226.5 149 h 10.0"></path><path d="M 347.5 149 h 10.0"></path><path d="M 236.5 149 a 10 10 0 0 0 10 -10 v -10 a 10 10 0 0 1 10 -10"></path><g class="terminal ">
<path d="M 256.5 119 h 8.5"></path><path d="M 319.0 119 h 8.5"></path><rect height="22" rx="10" ry="10" width="54.0" x="265.0" y="108"></rect><text x="292.0" y="123">"h2"</text></g><path d="M 327.5 119 a 10 10 0 0 1 10 10 v 10 a 10 10 0 0 0 10 10"></path><path d="M 236.5 149 a 10 10 0 0 0 10 -10 v -40 a 10 10 0 0 1 10 -10"></path><g class="terminal ">
<path d="M 256.5 89 h 8.5"></path><path d="M 319.0 89 h 8.5"></path><rect height="22" rx="10" ry="10" width="54.0" x="265.0" y="78"></rect><text x="292.0" y="93">"h1"</text></g><path d="M 327.5 89 a 10 10 0 0 1 10 10 v 40 a 10 10 0 0 0 10 10"></path><path d="M 236.5 149 a 10 10 0 0 0 10 -10 v -70 a 10 10 0 0 1 10 -10"></path><g class="terminal ">
<path d="M 256.5 59 h 4.25"></path><path d="M 323.25 59 h 4.25"></path><rect height="22" rx="10" ry="10" width="62.5" x="260.75" y="48"></rect><text x="292.0" y="63">"ide"</text></g><path d="M 327.5 59 a 10 10 0 0 1 10 10 v 70 a 10 10 0 0 0 10 10"></path><path d="M 236.5 149 h 20"></path><g class="terminal ">
<path d="M 256.5 149 h 8.5"></path><path d="M 319.0 149 h 8.5"></path><rect height="22" rx="10" ry="10" width="54.0" x="265.0" y="138"></rect><text x="292.0" y="153">"h3"</text></g><path d="M 327.5 149 h 20"></path><path d="M 236.5 149 a 10 10 0 0 1 10 10 v 10 a 10 10 0 0 0 10 10"></path><g class="terminal ">
<path d="M 256.5 179 h 12.75"></path><path d="M 314.75 179 h 12.75"></path><rect height="22" rx="10" ry="10" width="45.5" x="269.25" y="168"></rect><text x="292.0" y="183">"h"</text></g><path d="M 327.5 179 a 10 10 0 0 0 10 -10 v -10 a 10 10 0 0 1 10 -10"></path><path d="M 236.5 149 a 10 10 0 0 1 10 10 v 40 a 10 10 0 0 0 10 10"></path><g class="terminal ">
<path d="M 256.5 209 h 0.0"></path><path d="M 327.5 209 h 0.0"></path><rect height="22" rx="10" ry="10" width="71.0" x="256.5" y="198"></rect><text x="292.0" y="213">"toc1"</text></g><path d="M 327.5 209 a 10 10 0 0 0 10 -10 v -40 a 10 10 0 0 1 10 -10"></path><path d="M 236.5 149 a 10 10 0 0 1 10 10 v 70 a 10 10 0 0 0 10 10"></path><g class="terminal ">
<path d="M 256.5 239 h 0.0"></path><path d="M 327.5 239 h 0.0"></path><rect height="22" rx="10" ry="10" width="71.0" x="256.5" y="228"></rect><text x="292.0" y="243">"toc2"</text></g><path d="M 327.5 239 a 10 10 0 0 0 10 -10 v -70 a 10 10 0 0 1 10 -10"></path><path d="M 236.5 149 a 10 10 0 0 1 10 10 v 100 a 10 10 0 0 0 10 10"></path><g class="terminal ">
<path d="M 256.5 269 h 0.0"></path><path d="M 327.5 269 h 0.0"></path><rect height="22" rx="10" ry="10" width="71.0" x="256.5" y="258"></rect><text x="292.0" y="273">"toc3"</text></g><path d="M 327.5 269 a 10 10 0 0 0 10 -10 v -100 a 10 10 0 0 1 10 -10"></path></g><path d="M 357.5 149 a 10 10 0 0 1 10 10 v 39 a 10 10 0 0 0 10 10"></path><path d="M 357.5 30 a 10 10 0 0 1 10 10 v 99 a 10 10 0 0 0 10 10"></path><g>
<path d="M 377.5 149 h 10.0"></path><path d="M 507.0 149 h 10.0"></path><path d="M 387.5 149 a 10 10 0 0 0 10 -10 v -10 a 10 10 0 0 1 10 -10"></path><g class="terminal ">
<path d="M 407.5 119 h 0.0"></path><path d="M 487.0 119 h 0.0"></path><rect height="22" rx="10" ry="10" width="79.5" x="407.5" y="108"></rect><text x="447.25" y="123">"toca3"</text></g><path d="M 487.0 119 a 10 10 0 0 1 10 10 v 10 a 10 10 0 0 0 10 10"></path><path d="M 387.5 149 a 10 10 0 0 0 10 -10 v -40 a 10 10 0 0 1 10 -10"></path><g class="terminal ">
<path d="M 407.5 89 h 0.0"></path><path d="M 487.0 89 h 0.0"></path><rect height="22" rx="10" ry="10" width="79.5" x="407.5" y="78"></rect><text x="447.25" y="93">"toca2"</text></g><path d="M 487.0 89 a 10 10 0 0 1 10 10 v 40 a 10 10 0 0 0 10 10"></path><path d="M 387.5 149 a 10 10 0 0 0 10 -10 v -70 a 10 10 0 0 1 10 -10"></path><g class="terminal ">
<path d="M 407.5 59 h 0.0"></path><path d="M 487.0 59 h 0.0"></path><rect height="22" rx="10" ry="10" width="79.5" x="407.5" y="48"></rect><text x="447.25" y="63">"toca1"</text></g><path d="M 487.0 59 a 10 10 0 0 1 10 10 v 70 a 10 10 0 0 0 10 10"></path><path d="M 387.5 149 h 20"></path><g class="terminal ">
<path d="M 407.5 149 h 8.5"></path><path d="M 478.5 149 h 8.5"></path><rect height="22" rx="10" ry="10" width="62.5" x="416.0" y="138"></rect><text x="447.25" y="153">"sts"</text></g><path d="M 487.0 149 h 20"></path><path d="M 387.5 149 a 10 10 0 0 1 10 10 v 10 a 10 10 0 0 0 10 10"></path><g class="terminal ">
<path d="M 407.5 179 h 8.5"></path><path d="M 478.5 179 h 8.5"></path><rect height="22" rx="10" ry="10" width="62.5" x="416.0" y="168"></rect><text x="447.25" y="183">"rem"</text></g><path d="M 487.0 179 a 10 10 0 0 0 10 -10 v -10 a 10 10 0 0 1 10 -10"></path></g><path d="M 517.0 149 h 10"></path></g><path d="M 527.0 149 h 10"></path><g>
<path d="M 537.0 149 h 0.0"></path><path d="M 648.0 149 h 0.0"></path><path d="M 537.0 149 h 20"></path><g class="terminal ">
<path d="M 557.0 149 h 12.75"></path><path d="M 615.25 149 h 12.75"></path><rect height="22" rx="10" ry="10" width="45.5" x="569.75" y="138"></rect><text x="592.5" y="153">' '</text></g><path d="M 628.0 149 h 20"></path><path d="M 537.0 149 a 10 10 0 0 1 10 10 v 10 a 10 10 0 0 0 10 10"></path><g class="terminal altterminal">
<path d="M 557.0 179 h 0.0"></path><path d="M 628.0 179 h 0.0"></path><rect height="22" rx="10" ry="10" width="71.0" x="557.0" y="168"></rect><text x="592.5" y="183">TAGEND</text></g><path d="M 628.0 179 a 10 10 0 0 0 10 -10 v -10 a 10 10 0 0 1 10 -10"></path></g><path d="M 648.0 149 h 10"></path><path d="M 658.0 149 h 10"></path><g>
<path d="M 668.0 149 h 0.0"></path><path d="M 861.5 149 h 0.0"></path><path d="M 668.0 149 h 20"></path><g>
<path d="M 688.0 149 h 153.5"></path></g><path d="M 841.5 149 h 20"></path><path d="M 668.0 149 a 10 10 0 0 1 10 10 v 0 a 10 10 0 0 0 10 10"></path><g>
<path d="M 688.0 169 h 0.0"></path><path d="M 841.5 169 h 0.0"></path><g class="terminal ">
<path d="M 688.0 169 h 0.0"></path><path d="M 742.0 169 h 0.0"></path><rect height="22" rx="10" ry="10" width="54.0" x="688.0" y="158"></rect><text x="715.0" y="173">TEXT</text></g><path d="M 742.0 169 h 10"></path><path d="M 752.0 169 h 10"></path><g class="terminal ">
<path d="M 762.0 169 h 0.0"></path><path d="M 841.5 169 h 0.0"></path><rect height="22" rx="10" ry="10" width="79.5" x="762.0" y="158"></rect><text x="801.75" y="173">TEXTEND</text></g></g><path d="M 841.5 169 a 10 10 0 0 0 10 -10 v 0 a 10 10 0 0 1 10 -10"></path></g></g><path d="M 861.5 149 h 20"></path><path d="M 50.0 149 a 10 10 0 0 1 10 10 v 140 a 10 10 0 0 0 10 10"></path><g class="non-terminal ">
<path d="M 70.0 309 h 360.25"></path><path d="M 501.25 309 h 360.25"></path><rect height="22" width="71.0" x="430.25" y="298"></rect><text x="465.75" y="313">Remark</text></g><path d="M 861.5 309 a 10 10 0 0 0 10 -10 v -140 a 10 10 0 0 1 10 -10"></path></g></g><path d="M 881.5 149 h 10"></path><path d="M 891.5 149 h 20 m 0 -10 v 20"></path></g></svg>