<svg class="railroad-diagram" height="300" viewBox="0 0 891.5 300" width="891.5" xmlns="http://www.w3.org/2000/svg" xmlns:xlink="http://www.w3.org/1999/xlink">
<g transform="translate(.5 .5)">
<style>/* <![CDATA[ */

    svg.railroad-diagram {
        background-color: hsl(30,20%,95%);
    }
    svg.railroad-diagram path {
        stroke-width: 2;
        stroke: black;
        fill: none;
    }
    svg.railroad-diagram text {
        font-size: 12px;
        text-anchor: middle;
        font-family: DejaVu Sans;
    }
    svg.railroad-diagram text.label {
        text-anchor:start;
    }
    svg.railroad-diagram text.comment {
        font-family: DejaVu Sans;
        font-size: 14px;
    }
    svg.railroad-diagram rect{
        stroke-width: 2;
        stroke: black;
        fill: rgb(210, 255, 210);
    }
    svg.railroad-diagram rect.group-box {
        stroke: gray;
        stroke-dasharray: 10 5;
        fill: none;
    }
    .terminal {
        font-family: DejaVu Sans;
    }
    svg.railroad-diagram g.altterminal rect {
        fill: rgb(251, 252, 207)
    }

/* ]]> */
</style><g>
<path d="M 20 129 v 20 m 0 -10 h 20"></path></g><path d="M 40 139 h 10"></path><g>
<path d="M 50 139 h 0.0"></path><path d="M 841.5 139 h 0.0"></path><g>
<path d="M 50.0 139 h 0.0"></path><path d="M 186.5 139 h 0.0"></path><path d="M 50.0 139 h 20"></path><g class="terminal ">
<path d="M 70.0 139 h 12.75"></path><path d="M 153.75 139 h 12.75"></path><rect height="22" rx="10" ry="10" width="71.0" x="82.75" y="128"></rect><text x="118.25" y="143">'\n\\'</text></g><path d="M 166.5 139 h 20"></path><path d="M 50.0 139 a 10 10 0 0 1 10 10 v 10 a 10 10 0 0 0 10 10"></path><g class="terminal altterminal">
<path d="M 70.0 169 h 0.0"></path><path d="M 166.5 169 h 0.0"></path><rect height="22" rx="10" ry="10" width="96.5" x="70.0" y="158"></rect><text x="118.25" y="173">/${Ws}\\/</text></g><path d="M 166.5 169 a 10 10 0 0 0 10 -10 v -10 a 10 10 0 0 1 10 -10"></path></g><path d="M 186.5 139 h 10"></path><g>
<path d="M 196.5 139 h 0.0"></path><path d="M 507.0 139 h 0.0"></path><path d="M 196.5 139 a 10 10 0 0 0 10 -10 v -99 a 10 10 0 0 1 10 -10 h 121.0"></path><path d="M 357.5 198 h 129.5 a 10 10 0 0 0 10 -10 v -39 a 10 10 0 0 1 10 -10"></path><path d="M 196.5 139 h 10"></path><g>
<path d="M 206.5 139 h 10.0"></path><path d="M 327.5 139 h 10.0"></path><path d="M 216.5 139 a 10 10 0 0 0 10 -10 v -10 a 10 10 0 0 1 10 -10"></path><g class="terminal ">
<path d="M 236.5 109 h 8.5"></path><path d="M 299.0 109 h 8.5"></path><rect height="22" rx="10" ry="10" width="54.0" x="245.0" y="98"></rect><text x="272.0" y="113">"h2"</text></g><path d="M 307.5 109 a 10 10 0 0 1 10 10 v 10 a 10 10 0 0 0 10 10"></path><path d="M 216.5 139 a 10 10 0 0 0 10 -10 v -40 a 10 10 0 0 1 10 -10"></path><g class="terminal ">
<path d="M 236.5 79 h 8.5"></path><path d="M 299.0 79 h 8.5"></path><rect height="22" rx="10" ry="10" width="54.0" x="245.0" y="68"></rect><text x="272.0" y="83">"h1"</text></g><path d="M 307.5 79 a 10 10 0 0 1 10 10 v 40 a 10 10 0 0 0 10 10"></path><path d="M 216.5 139 a 10 10 0 0 0 10 -10 v -70 a 10 10 0 0 1 10 -10"></path><g class="terminal ">
<path d="M 236.5 49 h 4.25"></path><path d="M 303.25 49 h 4.25"></path><rect height="22" rx="10" ry="10" width="62.5" x="240.75" y="38"></rect><text x="272.0" y="53">"ide"</text></g><path d="M 307.5 49 a 10 10 0 0 1 10 10 v 70 a 10 10 0 0 0 10 10"></path><path d="M 216.5 139 h 20"></path><g class="terminal ">
<path d="M 236.5 139 h 8.5"></path><path d="M 299.0 139 h 8.5"></path><rect height="22" rx="10" ry="10" width="54.0" x="245.0" y="128"></rect><text x="272.0" y="143">"h3"</text></g><path d="M 307.5 139 h 20"></path><path d="M 216.5 139 a 10 10 0 0 1 10 10 v 10 a 10 10 0 0 0 10 10"></path><g class="terminal ">
<path d="M 236.5 169 h 12.75"></path><path d="M 294.75 169 h 12.75"></path><rect height="22" rx="10" ry="10" width="45.5" x="249.25" y="158"></rect><text x="272.0" y="173">"h"</text></g><path d="M 307.5 169 a 10 10 0 0 0 10 -10 v -10 a 10 10 0 0 1 10 -10"></path><path d="M 216.5 139 a 10 10 0 0 1 10 10 v 40 a 10 10 0 0 0 10 10"></path><g class="terminal ">
<path d="M 236.5 199 h 0.0"></path><path d="M 307.5 199 h 0.0"></path><rect height="22" rx="10" ry="10" width="71.0" x="236.5" y="188"></rect><text x="272.0" y="203">"toc1"</text></g><path d="M 307.5 199 a 10 10 0 0 0 10 -10 v -40 a 10 10 0 0 1 10 -10"></path><path d="M 216.5 139 a 10 10 0 0 1 10 10 v 70 a 10 10 0 0 0 10 10"></path><g class="terminal ">
<path d="M 236.5 229 h 0.0"></path><path d="M 307.5 229 h 0.0"></path><rect height="22" rx="10" ry="10" width="71.0" x="236.5" y="218"></rect><text x="272.0" y="233">"toc2"</text></g><path d="M 307.5 229 a 10 10 0 0 0 10 -10 v -70 a 10 10 0 0 1 10 -10"></path><path d="M 216.5 139 a 10 10 0 0 1 10 10 v 100 a 10 10 0 0 0 10 10"></path><g class="terminal ">
<path d="M 236.5 259 h 0.0"></path><path d="M 307.5 259 h 0.0"></path><rect height="22" rx="10" ry="10" width="71.0" x="236.5" y="248"></rect><text x="272.0" y="263">"toc3"</text></g><path d="M 307.5 259 a 10 10 0 0 0 10 -10 v -100 a 10 10 0 0 1 10 -10"></path></g><path d="M 337.5 139 a 10 10 0 0 1 10 10 v 39 a 10 10 0 0 0 10 10"></path><path d="M 337.5 20 a 10 10 0 0 1 10 10 v 99 a 10 10 0 0 0 10 10"></path><g>
<path d="M 357.5 139 h 10.0"></path><path d="M 487.0 139 h 10.0"></path><path d="M 367.5 139 a 10 10 0 0 0 10 -10 v -10 a 10 10 0 0 1 10 -10"></path><g class="terminal ">
<path d="M 387.5 109 h 0.0"></path><path d="M 467.0 109 h 0.0"></path><rect height="22" rx="10" ry="10" width="79.5" x="387.5" y="98"></rect><text x="427.25" y="113">"toca3"</text></g><path d="M 467.0 109 a 10 10 0 0 1 10 10 v 10 a 10 10 0 0 0 10 10"></path><path d="M 367.5 139 a 10 10 0 0 0 10 -10 v -40 a 10 10 0 0 1 10 -10"></path><g class="terminal ">
<path d="M 387.5 79 h 0.0"></path><path d="M 467.0 79 h 0.0"></path><rect height="22" rx="10" ry="10" width="79.5" x="387.5" y="68"></rect><text x="427.25" y="83">"toca2"</text></g><path d="M 467.0 79 a 10 10 0 0 1 10 10 v 40 a 10 10 0 0 0 10 10"></path><path d="M 367.5 139 a 10 10 0 0 0 10 -10 v -70 a 10 10 0 0 1 10 -10"></path><g class="terminal ">
<path d="M 387.5 49 h 0.0"></path><path d="M 467.0 49 h 0.0"></path><rect height="22" rx="10" ry="10" width="79.5" x="387.5" y="38"></rect><text x="427.25" y="53">"toca1"</text></g><path d="M 467.0 49 a 10 10 0 0 1 10 10 v 70 a 10 10 0 0 0 10 10"></path><path d="M 367.5 139 h 20"></path><g class="terminal ">
<path d="M 387.5 139 h 8.5"></path><path d="M 458.5 139 h 8.5"></path><rect height="22" rx="10" ry="10" width="62.5" x="396.0" y="128"></rect><text x="427.25" y="143">"sts"</text></g><path d="M 467.0 139 h 20"></path><path d="M 367.5 139 a 10 10 0 0 1 10 10 v 10 a 10 10 0 0 0 10 10"></path><g class="terminal ">
<path d="M 387.5 169 h 8.5"></path><path d="M 458.5 169 h 8.5"></path><rect height="22" rx="10" ry="10" width="62.5" x="396.0" y="158"></rect><text x="427.25" y="173">"rem"</text></g><path d="M 467.0 169 a 10 10 0 0 0 10 -10 v -10 a 10 10 0 0 1 10 -10"></path></g><path d="M 497.0 139 h 10"></path></g><path d="M 507.0 139 h 10"></path><g>
<path d="M 517.0 139 h 0.0"></path><path d="M 628.0 139 h 0.0"></path><path d="M 517.0 139 h 20"></path><g class="terminal ">
<path d="M 537.0 139 h 12.75"></path><path d="M 595.25 139 h 12.75"></path><rect height="22" rx="10" ry="10" width="45.5" x="549.75" y="128"></rect><text x="572.5" y="143">' '</text></g><path d="M 608.0 139 h 20"></path><path d="M 517.0 139 a 10 10 0 0 1 10 10 v 10 a 10 10 0 0 0 10 10"></path><g class="terminal altterminal">
<path d="M 537.0 169 h 0.0"></path><path d="M 608.0 169 h 0.0"></path><rect height="22" rx="10" ry="10" width="71.0" x="537.0" y="158"></rect><text x="572.5" y="173">TAGEND</text></g><path d="M 608.0 169 a 10 10 0 0 0 10 -10 v -10 a 10 10 0 0 1 10 -10"></path></g><path d="M 628.0 139 h 10"></path><path d="M 638.0 139 h 10"></path><g>
<path d="M 648.0 139 h 0.0"></path><path d="M 841.5 139 h 0.0"></path><path d="M 648.0 139 h 20"></path><g>
<path d="M 668.0 139 h 153.5"></path></g><path d="M 821.5 139 h 20"></path><path d="M 648.0 139 a 10 10 0 0 1 10 10 v 0 a 10 10 0 0 0 10 10"></path><g>
<path d="M 668.0 159 h 0.0"></path><path d="M 821.5 159 h 0.0"></path><g class="terminal ">
<path d="M 668.0 159 h 0.0"></path><path d="M 722.0 159 h 0.0"></path><rect height="22" rx="10" ry="10" width="54.0" x="668.0" y="148"></rect><text x="695.0" y="163">TEXT</text></g><path d="M 722.0 159 h 10"></path><path d="M 732.0 159 h 10"></path><g class="terminal ">
<path d="M 742.0 159 h 0.0"></path><path d="M 821.5 159 h 0.0"></path><rect height="22" rx="10" ry="10" width="79.5" x="742.0" y="148"></rect><text x="781.75" y="163">TEXTEND</text></g></g><path d="M 821.5 159 a 10 10 0 0 0 10 -10 v 0 a 10 10 0 0 1 10 -10"></path></g></g><path d="M 841.5 139 h 10"></path><path d="M 851.5 139 h 20 m 0 -10 v 20"></path></g></svg>