<svg class="railroad-diagram" height="320" viewBox="0 0 1709.5 320" width="1709.5" xmlns="http://www.w3.org/2000/svg" xmlns:xlink="http://www.w3.org/1999/xlink">
<g transform="translate(.5 .5)">
<style>/* <![CDATA[ */
    svg.railroad-diagram {
        background-color:hsl(30,20%,95%);
    }
    svg.railroad-diagram path {
        stroke-width: 2;
        stroke: black;
        fill: none;
    }
    svg.railroad-diagram text {
        font-size: 12px;
        text-anchor: middle;
        font-family: DejaVu Sans;
    }
    svg.railroad-diagram text.label {
        text-anchor:start;
    }
    svg.railroad-diagram text.comment {
        font-family: DejaVu Sans;
        font-size: 14px;
    }
    svg.railroad-diagram rect{
        stroke-width: 2;
        stroke:black;
        fill: rgb(210, 255, 210);
    }
    svg.railroad-diagram rect.group-box {
        stroke: gray;
        stroke-dasharray: 10 5;
        fill: none;
    }
    .terminal {
        font-family: DejaVu Sans;
    }

/* ]]> */
</style><g>
<path d="M 20 143 v 20 m 0 -10 h 20"></path></g><path d="M 40 153 h 10"></path><g>
<path d="M 50 153 h 0.0"></path><path d="M 1659.5 153 h 0.0"></path><rect class="group-box" height="264" rx="10" ry="10" width="1609.5" x="50.0" y="36"></rect><g>
<path d="M 50.0 153 h 0.0"></path><path d="M 1659.5 153 h 0.0"></path><path d="M 50.0 153 a 10 10 0 0 0 10 -10 v -89 a 10 10 0 0 1 10 -10 h 1440.0"></path><path d="M 182.5 292 h 1457.0 a 10 10 0 0 0 10 -10 v -119 a 10 10 0 0 1 10 -10"></path><path d="M 50.0 153 h 10"></path><g>
<path d="M 60.0 153 h 0.0"></path><path d="M 162.5 153 h 0.0"></path><path d="M 60.0 153 a 10 10 0 0 0 10 -10 v -10 a 10 10 0 0 1 10 -10"></path><g class="terminal ">
<path d="M 80.0 123 h 0.0"></path><path d="M 142.5 123 h 0.0"></path><rect height="22" rx="10" ry="10" width="62.5" x="80.0" y="112"></rect><text x="111.25" y="127">"LEV"</text></g><path d="M 142.5 123 a 10 10 0 0 1 10 10 v 10 a 10 10 0 0 0 10 10"></path><path d="M 60.0 153 a 10 10 0 0 0 10 -10 v -40 a 10 10 0 0 1 10 -10"></path><g class="terminal ">
<path d="M 80.0 93 h 0.0"></path><path d="M 142.5 93 h 0.0"></path><rect height="22" rx="10" ry="10" width="62.5" x="80.0" y="82"></rect><text x="111.25" y="97">"EXO"</text></g><path d="M 142.5 93 a 10 10 0 0 1 10 10 v 40 a 10 10 0 0 0 10 10"></path><path d="M 60.0 153 a 10 10 0 0 0 10 -10 v -70 a 10 10 0 0 1 10 -10"></path><g class="terminal ">
<path d="M 80.0 63 h 0.0"></path><path d="M 142.5 63 h 0.0"></path><rect height="22" rx="10" ry="10" width="62.5" x="80.0" y="52"></rect><text x="111.25" y="67">"GEN"</text></g><path d="M 142.5 63 a 10 10 0 0 1 10 10 v 70 a 10 10 0 0 0 10 10"></path><path d="M 60.0 153 h 20"></path><g class="terminal ">
<path d="M 80.0 153 h 0.0"></path><path d="M 142.5 153 h 0.0"></path><rect height="22" rx="10" ry="10" width="62.5" x="80.0" y="142"></rect><text x="111.25" y="157">"NUM"</text></g><path d="M 142.5 153 h 20"></path><path d="M 60.0 153 a 10 10 0 0 1 10 10 v 10 a 10 10 0 0 0 10 10"></path><g class="terminal ">
<path d="M 80.0 183 h 0.0"></path><path d="M 142.5 183 h 0.0"></path><rect height="22" rx="10" ry="10" width="62.5" x="80.0" y="172"></rect><text x="111.25" y="187">"DEU"</text></g><path d="M 142.5 183 a 10 10 0 0 0 10 -10 v -10 a 10 10 0 0 1 10 -10"></path><path d="M 60.0 153 a 10 10 0 0 1 10 10 v 40 a 10 10 0 0 0 10 10"></path><g class="terminal ">
<path d="M 80.0 213 h 0.0"></path><path d="M 142.5 213 h 0.0"></path><rect height="22" rx="10" ry="10" width="62.5" x="80.0" y="202"></rect><text x="111.25" y="217">"JOS"</text></g><path d="M 142.5 213 a 10 10 0 0 0 10 -10 v -40 a 10 10 0 0 1 10 -10"></path><path d="M 60.0 153 a 10 10 0 0 1 10 10 v 70 a 10 10 0 0 0 10 10"></path><g class="terminal ">
<path d="M 80.0 243 h 0.0"></path><path d="M 142.5 243 h 0.0"></path><rect height="22" rx="10" ry="10" width="62.5" x="80.0" y="232"></rect><text x="111.25" y="247">"JDG"</text></g><path d="M 142.5 243 a 10 10 0 0 0 10 -10 v -70 a 10 10 0 0 1 10 -10"></path><path d="M 60.0 153 a 10 10 0 0 1 10 10 v 100 a 10 10 0 0 0 10 10"></path><g class="terminal ">
<path d="M 80.0 273 h 0.0"></path><path d="M 142.5 273 h 0.0"></path><rect height="22" rx="10" ry="10" width="62.5" x="80.0" y="262"></rect><text x="111.25" y="277">"RUT"</text></g><path d="M 142.5 273 a 10 10 0 0 0 10 -10 v -100 a 10 10 0 0 1 10 -10"></path></g><path d="M 162.5 153 a 10 10 0 0 1 10 10 v 119 a 10 10 0 0 0 10 10"></path><path d="M 162.5 44 a 10 10 0 0 1 10 10 v 89 a 10 10 0 0 0 10 10"></path><g>
<path d="M 182.5 153 h 0.0"></path><path d="M 285.0 153 h 0.0"></path><path d="M 182.5 153 a 10 10 0 0 0 10 -10 v -10 a 10 10 0 0 1 10 -10"></path><g class="terminal ">
<path d="M 202.5 123 h 0.0"></path><path d="M 265.0 123 h 0.0"></path><rect height="22" rx="10" ry="10" width="62.5" x="202.5" y="112"></rect><text x="233.75" y="127">"1KI"</text></g><path d="M 265.0 123 a 10 10 0 0 1 10 10 v 10 a 10 10 0 0 0 10 10"></path><path d="M 182.5 153 a 10 10 0 0 0 10 -10 v -40 a 10 10 0 0 1 10 -10"></path><g class="terminal ">
<path d="M 202.5 93 h 0.0"></path><path d="M 265.0 93 h 0.0"></path><rect height="22" rx="10" ry="10" width="62.5" x="202.5" y="82"></rect><text x="233.75" y="97">"2SA"</text></g><path d="M 265.0 93 a 10 10 0 0 1 10 10 v 40 a 10 10 0 0 0 10 10"></path><path d="M 182.5 153 a 10 10 0 0 0 10 -10 v -70 a 10 10 0 0 1 10 -10"></path><g class="terminal ">
<path d="M 202.5 63 h 0.0"></path><path d="M 265.0 63 h 0.0"></path><rect height="22" rx="10" ry="10" width="62.5" x="202.5" y="52"></rect><text x="233.75" y="67">"1SA"</text></g><path d="M 265.0 63 a 10 10 0 0 1 10 10 v 70 a 10 10 0 0 0 10 10"></path><path d="M 182.5 153 h 20"></path><g class="terminal ">
<path d="M 202.5 153 h 0.0"></path><path d="M 265.0 153 h 0.0"></path><rect height="22" rx="10" ry="10" width="62.5" x="202.5" y="142"></rect><text x="233.75" y="157">"2KI"</text></g><path d="M 265.0 153 h 20"></path><path d="M 182.5 153 a 10 10 0 0 1 10 10 v 10 a 10 10 0 0 0 10 10"></path><g class="terminal ">
<path d="M 202.5 183 h 0.0"></path><path d="M 265.0 183 h 0.0"></path><rect height="22" rx="10" ry="10" width="62.5" x="202.5" y="172"></rect><text x="233.75" y="187">"1CH"</text></g><path d="M 265.0 183 a 10 10 0 0 0 10 -10 v -10 a 10 10 0 0 1 10 -10"></path><path d="M 182.5 153 a 10 10 0 0 1 10 10 v 40 a 10 10 0 0 0 10 10"></path><g class="terminal ">
<path d="M 202.5 213 h 0.0"></path><path d="M 265.0 213 h 0.0"></path><rect height="22" rx="10" ry="10" width="62.5" x="202.5" y="202"></rect><text x="233.75" y="217">"2CH"</text></g><path d="M 265.0 213 a 10 10 0 0 0 10 -10 v -40 a 10 10 0 0 1 10 -10"></path><path d="M 182.5 153 a 10 10 0 0 1 10 10 v 70 a 10 10 0 0 0 10 10"></path><g class="terminal ">
<path d="M 202.5 243 h 0.0"></path><path d="M 265.0 243 h 0.0"></path><rect height="22" rx="10" ry="10" width="62.5" x="202.5" y="232"></rect><text x="233.75" y="247">"EZR"</text></g><path d="M 265.0 243 a 10 10 0 0 0 10 -10 v -70 a 10 10 0 0 1 10 -10"></path><path d="M 182.5 153 a 10 10 0 0 1 10 10 v 100 a 10 10 0 0 0 10 10"></path><g class="terminal ">
<path d="M 202.5 273 h 0.0"></path><path d="M 265.0 273 h 0.0"></path><rect height="22" rx="10" ry="10" width="62.5" x="202.5" y="262"></rect><text x="233.75" y="277">"NEH"</text></g><path d="M 265.0 273 a 10 10 0 0 0 10 -10 v -100 a 10 10 0 0 1 10 -10"></path></g><path d="M 285.0 153 a 10 10 0 0 1 10 10 v 119 a 10 10 0 0 0 10 10"></path><path d="M 285.0 44 a 10 10 0 0 1 10 10 v 89 a 10 10 0 0 0 10 10"></path><g>
<path d="M 305.0 153 h 0.0"></path><path d="M 407.5 153 h 0.0"></path><path d="M 305.0 153 a 10 10 0 0 0 10 -10 v -10 a 10 10 0 0 1 10 -10"></path><g class="terminal ">
<path d="M 325.0 123 h 0.0"></path><path d="M 387.5 123 h 0.0"></path><rect height="22" rx="10" ry="10" width="62.5" x="325.0" y="112"></rect><text x="356.25" y="127">"PSA"</text></g><path d="M 387.5 123 a 10 10 0 0 1 10 10 v 10 a 10 10 0 0 0 10 10"></path><path d="M 305.0 153 a 10 10 0 0 0 10 -10 v -40 a 10 10 0 0 1 10 -10"></path><g class="terminal ">
<path d="M 325.0 93 h 0.0"></path><path d="M 387.5 93 h 0.0"></path><rect height="22" rx="10" ry="10" width="62.5" x="325.0" y="82"></rect><text x="356.25" y="97">"JOB"</text></g><path d="M 387.5 93 a 10 10 0 0 1 10 10 v 40 a 10 10 0 0 0 10 10"></path><path d="M 305.0 153 a 10 10 0 0 0 10 -10 v -70 a 10 10 0 0 1 10 -10"></path><g class="terminal ">
<path d="M 325.0 63 h 0.0"></path><path d="M 387.5 63 h 0.0"></path><rect height="22" rx="10" ry="10" width="62.5" x="325.0" y="52"></rect><text x="356.25" y="67">"EST"</text></g><path d="M 387.5 63 a 10 10 0 0 1 10 10 v 70 a 10 10 0 0 0 10 10"></path><path d="M 305.0 153 h 20"></path><g class="terminal ">
<path d="M 325.0 153 h 0.0"></path><path d="M 387.5 153 h 0.0"></path><rect height="22" rx="10" ry="10" width="62.5" x="325.0" y="142"></rect><text x="356.25" y="157">"PRO"</text></g><path d="M 387.5 153 h 20"></path><path d="M 305.0 153 a 10 10 0 0 1 10 10 v 10 a 10 10 0 0 0 10 10"></path><g class="terminal ">
<path d="M 325.0 183 h 0.0"></path><path d="M 387.5 183 h 0.0"></path><rect height="22" rx="10" ry="10" width="62.5" x="325.0" y="172"></rect><text x="356.25" y="187">"ECC"</text></g><path d="M 387.5 183 a 10 10 0 0 0 10 -10 v -10 a 10 10 0 0 1 10 -10"></path><path d="M 305.0 153 a 10 10 0 0 1 10 10 v 40 a 10 10 0 0 0 10 10"></path><g class="terminal ">
<path d="M 325.0 213 h 0.0"></path><path d="M 387.5 213 h 0.0"></path><rect height="22" rx="10" ry="10" width="62.5" x="325.0" y="202"></rect><text x="356.25" y="217">"SNG"</text></g><path d="M 387.5 213 a 10 10 0 0 0 10 -10 v -40 a 10 10 0 0 1 10 -10"></path><path d="M 305.0 153 a 10 10 0 0 1 10 10 v 70 a 10 10 0 0 0 10 10"></path><g class="terminal ">
<path d="M 325.0 243 h 0.0"></path><path d="M 387.5 243 h 0.0"></path><rect height="22" rx="10" ry="10" width="62.5" x="325.0" y="232"></rect><text x="356.25" y="247">"ISA"</text></g><path d="M 387.5 243 a 10 10 0 0 0 10 -10 v -70 a 10 10 0 0 1 10 -10"></path><path d="M 305.0 153 a 10 10 0 0 1 10 10 v 100 a 10 10 0 0 0 10 10"></path><g class="terminal ">
<path d="M 325.0 273 h 0.0"></path><path d="M 387.5 273 h 0.0"></path><rect height="22" rx="10" ry="10" width="62.5" x="325.0" y="262"></rect><text x="356.25" y="277">"JER"</text></g><path d="M 387.5 273 a 10 10 0 0 0 10 -10 v -100 a 10 10 0 0 1 10 -10"></path></g><path d="M 407.5 153 a 10 10 0 0 1 10 10 v 119 a 10 10 0 0 0 10 10"></path><path d="M 407.5 44 a 10 10 0 0 1 10 10 v 89 a 10 10 0 0 0 10 10"></path><g>
<path d="M 427.5 153 h 0.0"></path><path d="M 530.0 153 h 0.0"></path><path d="M 427.5 153 a 10 10 0 0 0 10 -10 v -10 a 10 10 0 0 1 10 -10"></path><g class="terminal ">
<path d="M 447.5 123 h 0.0"></path><path d="M 510.0 123 h 0.0"></path><rect height="22" rx="10" ry="10" width="62.5" x="447.5" y="112"></rect><text x="478.75" y="127">"DAN"</text></g><path d="M 510.0 123 a 10 10 0 0 1 10 10 v 10 a 10 10 0 0 0 10 10"></path><path d="M 427.5 153 a 10 10 0 0 0 10 -10 v -40 a 10 10 0 0 1 10 -10"></path><g class="terminal ">
<path d="M 447.5 93 h 0.0"></path><path d="M 510.0 93 h 0.0"></path><rect height="22" rx="10" ry="10" width="62.5" x="447.5" y="82"></rect><text x="478.75" y="97">"EZK"</text></g><path d="M 510.0 93 a 10 10 0 0 1 10 10 v 40 a 10 10 0 0 0 10 10"></path><path d="M 427.5 153 a 10 10 0 0 0 10 -10 v -70 a 10 10 0 0 1 10 -10"></path><g class="terminal ">
<path d="M 447.5 63 h 0.0"></path><path d="M 510.0 63 h 0.0"></path><rect height="22" rx="10" ry="10" width="62.5" x="447.5" y="52"></rect><text x="478.75" y="67">"LAM"</text></g><path d="M 510.0 63 a 10 10 0 0 1 10 10 v 70 a 10 10 0 0 0 10 10"></path><path d="M 427.5 153 h 20"></path><g class="terminal ">
<path d="M 447.5 153 h 0.0"></path><path d="M 510.0 153 h 0.0"></path><rect height="22" rx="10" ry="10" width="62.5" x="447.5" y="142"></rect><text x="478.75" y="157">"HOS"</text></g><path d="M 510.0 153 h 20"></path><path d="M 427.5 153 a 10 10 0 0 1 10 10 v 10 a 10 10 0 0 0 10 10"></path><g class="terminal ">
<path d="M 447.5 183 h 0.0"></path><path d="M 510.0 183 h 0.0"></path><rect height="22" rx="10" ry="10" width="62.5" x="447.5" y="172"></rect><text x="478.75" y="187">"JOL"</text></g><path d="M 510.0 183 a 10 10 0 0 0 10 -10 v -10 a 10 10 0 0 1 10 -10"></path><path d="M 427.5 153 a 10 10 0 0 1 10 10 v 40 a 10 10 0 0 0 10 10"></path><g class="terminal ">
<path d="M 447.5 213 h 0.0"></path><path d="M 510.0 213 h 0.0"></path><rect height="22" rx="10" ry="10" width="62.5" x="447.5" y="202"></rect><text x="478.75" y="217">"AMO"</text></g><path d="M 510.0 213 a 10 10 0 0 0 10 -10 v -40 a 10 10 0 0 1 10 -10"></path><path d="M 427.5 153 a 10 10 0 0 1 10 10 v 70 a 10 10 0 0 0 10 10"></path><g class="terminal ">
<path d="M 447.5 243 h 0.0"></path><path d="M 510.0 243 h 0.0"></path><rect height="22" rx="10" ry="10" width="62.5" x="447.5" y="232"></rect><text x="478.75" y="247">"OBA"</text></g><path d="M 510.0 243 a 10 10 0 0 0 10 -10 v -70 a 10 10 0 0 1 10 -10"></path><path d="M 427.5 153 a 10 10 0 0 1 10 10 v 100 a 10 10 0 0 0 10 10"></path><g class="terminal ">
<path d="M 447.5 273 h 0.0"></path><path d="M 510.0 273 h 0.0"></path><rect height="22" rx="10" ry="10" width="62.5" x="447.5" y="262"></rect><text x="478.75" y="277">"JON"</text></g><path d="M 510.0 273 a 10 10 0 0 0 10 -10 v -100 a 10 10 0 0 1 10 -10"></path></g><path d="M 530.0 153 a 10 10 0 0 1 10 10 v 119 a 10 10 0 0 0 10 10"></path><path d="M 530.0 44 a 10 10 0 0 1 10 10 v 89 a 10 10 0 0 0 10 10"></path><g>
<path d="M 550.0 153 h 0.0"></path><path d="M 652.5 153 h 0.0"></path><path d="M 550.0 153 a 10 10 0 0 0 10 -10 v -10 a 10 10 0 0 1 10 -10"></path><g class="terminal ">
<path d="M 570.0 123 h 0.0"></path><path d="M 632.5 123 h 0.0"></path><rect height="22" rx="10" ry="10" width="62.5" x="570.0" y="112"></rect><text x="601.25" y="127">"HAB"</text></g><path d="M 632.5 123 a 10 10 0 0 1 10 10 v 10 a 10 10 0 0 0 10 10"></path><path d="M 550.0 153 a 10 10 0 0 0 10 -10 v -40 a 10 10 0 0 1 10 -10"></path><g class="terminal ">
<path d="M 570.0 93 h 0.0"></path><path d="M 632.5 93 h 0.0"></path><rect height="22" rx="10" ry="10" width="62.5" x="570.0" y="82"></rect><text x="601.25" y="97">"NAM"</text></g><path d="M 632.5 93 a 10 10 0 0 1 10 10 v 40 a 10 10 0 0 0 10 10"></path><path d="M 550.0 153 a 10 10 0 0 0 10 -10 v -70 a 10 10 0 0 1 10 -10"></path><g class="terminal ">
<path d="M 570.0 63 h 0.0"></path><path d="M 632.5 63 h 0.0"></path><rect height="22" rx="10" ry="10" width="62.5" x="570.0" y="52"></rect><text x="601.25" y="67">"MIC"</text></g><path d="M 632.5 63 a 10 10 0 0 1 10 10 v 70 a 10 10 0 0 0 10 10"></path><path d="M 550.0 153 h 20"></path><g class="terminal ">
<path d="M 570.0 153 h 0.0"></path><path d="M 632.5 153 h 0.0"></path><rect height="22" rx="10" ry="10" width="62.5" x="570.0" y="142"></rect><text x="601.25" y="157">"ZEP"</text></g><path d="M 632.5 153 h 20"></path><path d="M 550.0 153 a 10 10 0 0 1 10 10 v 10 a 10 10 0 0 0 10 10"></path><g class="terminal ">
<path d="M 570.0 183 h 0.0"></path><path d="M 632.5 183 h 0.0"></path><rect height="22" rx="10" ry="10" width="62.5" x="570.0" y="172"></rect><text x="601.25" y="187">"HAG"</text></g><path d="M 632.5 183 a 10 10 0 0 0 10 -10 v -10 a 10 10 0 0 1 10 -10"></path><path d="M 550.0 153 a 10 10 0 0 1 10 10 v 40 a 10 10 0 0 0 10 10"></path><g class="terminal ">
<path d="M 570.0 213 h 0.0"></path><path d="M 632.5 213 h 0.0"></path><rect height="22" rx="10" ry="10" width="62.5" x="570.0" y="202"></rect><text x="601.25" y="217">"ZEC"</text></g><path d="M 632.5 213 a 10 10 0 0 0 10 -10 v -40 a 10 10 0 0 1 10 -10"></path><path d="M 550.0 153 a 10 10 0 0 1 10 10 v 70 a 10 10 0 0 0 10 10"></path><g class="terminal ">
<path d="M 570.0 243 h 0.0"></path><path d="M 632.5 243 h 0.0"></path><rect height="22" rx="10" ry="10" width="62.5" x="570.0" y="232"></rect><text x="601.25" y="247">"MAL"</text></g><path d="M 632.5 243 a 10 10 0 0 0 10 -10 v -70 a 10 10 0 0 1 10 -10"></path><path d="M 550.0 153 a 10 10 0 0 1 10 10 v 100 a 10 10 0 0 0 10 10"></path><g class="terminal ">
<path d="M 570.0 273 h 0.0"></path><path d="M 632.5 273 h 0.0"></path><rect height="22" rx="10" ry="10" width="62.5" x="570.0" y="262"></rect><text x="601.25" y="277">"MAT"</text></g><path d="M 632.5 273 a 10 10 0 0 0 10 -10 v -100 a 10 10 0 0 1 10 -10"></path></g><path d="M 652.5 153 a 10 10 0 0 1 10 10 v 119 a 10 10 0 0 0 10 10"></path><path d="M 652.5 44 a 10 10 0 0 1 10 10 v 89 a 10 10 0 0 0 10 10"></path><g>
<path d="M 672.5 153 h 0.0"></path><path d="M 775.0 153 h 0.0"></path><path d="M 672.5 153 a 10 10 0 0 0 10 -10 v -10 a 10 10 0 0 1 10 -10"></path><g class="terminal ">
<path d="M 692.5 123 h 0.0"></path><path d="M 755.0 123 h 0.0"></path><rect height="22" rx="10" ry="10" width="62.5" x="692.5" y="112"></rect><text x="723.75" y="127">"JHN"</text></g><path d="M 755.0 123 a 10 10 0 0 1 10 10 v 10 a 10 10 0 0 0 10 10"></path><path d="M 672.5 153 a 10 10 0 0 0 10 -10 v -40 a 10 10 0 0 1 10 -10"></path><g class="terminal ">
<path d="M 692.5 93 h 0.0"></path><path d="M 755.0 93 h 0.0"></path><rect height="22" rx="10" ry="10" width="62.5" x="692.5" y="82"></rect><text x="723.75" y="97">"LUK"</text></g><path d="M 755.0 93 a 10 10 0 0 1 10 10 v 40 a 10 10 0 0 0 10 10"></path><path d="M 672.5 153 a 10 10 0 0 0 10 -10 v -70 a 10 10 0 0 1 10 -10"></path><g class="terminal ">
<path d="M 692.5 63 h 0.0"></path><path d="M 755.0 63 h 0.0"></path><rect height="22" rx="10" ry="10" width="62.5" x="692.5" y="52"></rect><text x="723.75" y="67">"MRK"</text></g><path d="M 755.0 63 a 10 10 0 0 1 10 10 v 70 a 10 10 0 0 0 10 10"></path><path d="M 672.5 153 h 20"></path><g class="terminal ">
<path d="M 692.5 153 h 0.0"></path><path d="M 755.0 153 h 0.0"></path><rect height="22" rx="10" ry="10" width="62.5" x="692.5" y="142"></rect><text x="723.75" y="157">"ACT"</text></g><path d="M 755.0 153 h 20"></path><path d="M 672.5 153 a 10 10 0 0 1 10 10 v 10 a 10 10 0 0 0 10 10"></path><g class="terminal ">
<path d="M 692.5 183 h 0.0"></path><path d="M 755.0 183 h 0.0"></path><rect height="22" rx="10" ry="10" width="62.5" x="692.5" y="172"></rect><text x="723.75" y="187">"ROM"</text></g><path d="M 755.0 183 a 10 10 0 0 0 10 -10 v -10 a 10 10 0 0 1 10 -10"></path><path d="M 672.5 153 a 10 10 0 0 1 10 10 v 40 a 10 10 0 0 0 10 10"></path><g class="terminal ">
<path d="M 692.5 213 h 0.0"></path><path d="M 755.0 213 h 0.0"></path><rect height="22" rx="10" ry="10" width="62.5" x="692.5" y="202"></rect><text x="723.75" y="217">"1CO"</text></g><path d="M 755.0 213 a 10 10 0 0 0 10 -10 v -40 a 10 10 0 0 1 10 -10"></path><path d="M 672.5 153 a 10 10 0 0 1 10 10 v 70 a 10 10 0 0 0 10 10"></path><g class="terminal ">
<path d="M 692.5 243 h 0.0"></path><path d="M 755.0 243 h 0.0"></path><rect height="22" rx="10" ry="10" width="62.5" x="692.5" y="232"></rect><text x="723.75" y="247">"2CO"</text></g><path d="M 755.0 243 a 10 10 0 0 0 10 -10 v -70 a 10 10 0 0 1 10 -10"></path><path d="M 672.5 153 a 10 10 0 0 1 10 10 v 100 a 10 10 0 0 0 10 10"></path><g class="terminal ">
<path d="M 692.5 273 h 0.0"></path><path d="M 755.0 273 h 0.0"></path><rect height="22" rx="10" ry="10" width="62.5" x="692.5" y="262"></rect><text x="723.75" y="277">"GAL"</text></g><path d="M 755.0 273 a 10 10 0 0 0 10 -10 v -100 a 10 10 0 0 1 10 -10"></path></g><path d="M 775.0 153 a 10 10 0 0 1 10 10 v 119 a 10 10 0 0 0 10 10"></path><path d="M 775.0 44 a 10 10 0 0 1 10 10 v 89 a 10 10 0 0 0 10 10"></path><g>
<path d="M 795.0 153 h 0.0"></path><path d="M 897.5 153 h 0.0"></path><path d="M 795.0 153 a 10 10 0 0 0 10 -10 v -10 a 10 10 0 0 1 10 -10"></path><g class="terminal ">
<path d="M 815.0 123 h 0.0"></path><path d="M 877.5 123 h 0.0"></path><rect height="22" rx="10" ry="10" width="62.5" x="815.0" y="112"></rect><text x="846.25" y="127">"COL"</text></g><path d="M 877.5 123 a 10 10 0 0 1 10 10 v 10 a 10 10 0 0 0 10 10"></path><path d="M 795.0 153 a 10 10 0 0 0 10 -10 v -40 a 10 10 0 0 1 10 -10"></path><g class="terminal ">
<path d="M 815.0 93 h 0.0"></path><path d="M 877.5 93 h 0.0"></path><rect height="22" rx="10" ry="10" width="62.5" x="815.0" y="82"></rect><text x="846.25" y="97">"PHP"</text></g><path d="M 877.5 93 a 10 10 0 0 1 10 10 v 40 a 10 10 0 0 0 10 10"></path><path d="M 795.0 153 a 10 10 0 0 0 10 -10 v -70 a 10 10 0 0 1 10 -10"></path><g class="terminal ">
<path d="M 815.0 63 h 0.0"></path><path d="M 877.5 63 h 0.0"></path><rect height="22" rx="10" ry="10" width="62.5" x="815.0" y="52"></rect><text x="846.25" y="67">"EPH"</text></g><path d="M 877.5 63 a 10 10 0 0 1 10 10 v 70 a 10 10 0 0 0 10 10"></path><path d="M 795.0 153 h 20"></path><g class="terminal ">
<path d="M 815.0 153 h 0.0"></path><path d="M 877.5 153 h 0.0"></path><rect height="22" rx="10" ry="10" width="62.5" x="815.0" y="142"></rect><text x="846.25" y="157">"1TH"</text></g><path d="M 877.5 153 h 20"></path><path d="M 795.0 153 a 10 10 0 0 1 10 10 v 10 a 10 10 0 0 0 10 10"></path><g class="terminal ">
<path d="M 815.0 183 h 0.0"></path><path d="M 877.5 183 h 0.0"></path><rect height="22" rx="10" ry="10" width="62.5" x="815.0" y="172"></rect><text x="846.25" y="187">"2TH"</text></g><path d="M 877.5 183 a 10 10 0 0 0 10 -10 v -10 a 10 10 0 0 1 10 -10"></path><path d="M 795.0 153 a 10 10 0 0 1 10 10 v 40 a 10 10 0 0 0 10 10"></path><g class="terminal ">
<path d="M 815.0 213 h 0.0"></path><path d="M 877.5 213 h 0.0"></path><rect height="22" rx="10" ry="10" width="62.5" x="815.0" y="202"></rect><text x="846.25" y="217">"1TI"</text></g><path d="M 877.5 213 a 10 10 0 0 0 10 -10 v -40 a 10 10 0 0 1 10 -10"></path><path d="M 795.0 153 a 10 10 0 0 1 10 10 v 70 a 10 10 0 0 0 10 10"></path><g class="terminal ">
<path d="M 815.0 243 h 0.0"></path><path d="M 877.5 243 h 0.0"></path><rect height="22" rx="10" ry="10" width="62.5" x="815.0" y="232"></rect><text x="846.25" y="247">"2TI"</text></g><path d="M 877.5 243 a 10 10 0 0 0 10 -10 v -70 a 10 10 0 0 1 10 -10"></path><path d="M 795.0 153 a 10 10 0 0 1 10 10 v 100 a 10 10 0 0 0 10 10"></path><g class="terminal ">
<path d="M 815.0 273 h 0.0"></path><path d="M 877.5 273 h 0.0"></path><rect height="22" rx="10" ry="10" width="62.5" x="815.0" y="262"></rect><text x="846.25" y="277">"TIT"</text></g><path d="M 877.5 273 a 10 10 0 0 0 10 -10 v -100 a 10 10 0 0 1 10 -10"></path></g><path d="M 897.5 153 a 10 10 0 0 1 10 10 v 119 a 10 10 0 0 0 10 10"></path><path d="M 897.5 44 a 10 10 0 0 1 10 10 v 89 a 10 10 0 0 0 10 10"></path><g>
<path d="M 917.5 153 h 0.0"></path><path d="M 1020.0 153 h 0.0"></path><path d="M 917.5 153 a 10 10 0 0 0 10 -10 v -10 a 10 10 0 0 1 10 -10"></path><g class="terminal ">
<path d="M 937.5 123 h 0.0"></path><path d="M 1000.0 123 h 0.0"></path><rect height="22" rx="10" ry="10" width="62.5" x="937.5" y="112"></rect><text x="968.75" y="127">"JAS"</text></g><path d="M 1000.0 123 a 10 10 0 0 1 10 10 v 10 a 10 10 0 0 0 10 10"></path><path d="M 917.5 153 a 10 10 0 0 0 10 -10 v -40 a 10 10 0 0 1 10 -10"></path><g class="terminal ">
<path d="M 937.5 93 h 0.0"></path><path d="M 1000.0 93 h 0.0"></path><rect height="22" rx="10" ry="10" width="62.5" x="937.5" y="82"></rect><text x="968.75" y="97">"HEB"</text></g><path d="M 1000.0 93 a 10 10 0 0 1 10 10 v 40 a 10 10 0 0 0 10 10"></path><path d="M 917.5 153 a 10 10 0 0 0 10 -10 v -70 a 10 10 0 0 1 10 -10"></path><g class="terminal ">
<path d="M 937.5 63 h 0.0"></path><path d="M 1000.0 63 h 0.0"></path><rect height="22" rx="10" ry="10" width="62.5" x="937.5" y="52"></rect><text x="968.75" y="67">"PHM"</text></g><path d="M 1000.0 63 a 10 10 0 0 1 10 10 v 70 a 10 10 0 0 0 10 10"></path><path d="M 917.5 153 h 20"></path><g class="terminal ">
<path d="M 937.5 153 h 0.0"></path><path d="M 1000.0 153 h 0.0"></path><rect height="22" rx="10" ry="10" width="62.5" x="937.5" y="142"></rect><text x="968.75" y="157">"1PE"</text></g><path d="M 1000.0 153 h 20"></path><path d="M 917.5 153 a 10 10 0 0 1 10 10 v 10 a 10 10 0 0 0 10 10"></path><g class="terminal ">
<path d="M 937.5 183 h 0.0"></path><path d="M 1000.0 183 h 0.0"></path><rect height="22" rx="10" ry="10" width="62.5" x="937.5" y="172"></rect><text x="968.75" y="187">"2PE"</text></g><path d="M 1000.0 183 a 10 10 0 0 0 10 -10 v -10 a 10 10 0 0 1 10 -10"></path><path d="M 917.5 153 a 10 10 0 0 1 10 10 v 40 a 10 10 0 0 0 10 10"></path><g class="terminal ">
<path d="M 937.5 213 h 0.0"></path><path d="M 1000.0 213 h 0.0"></path><rect height="22" rx="10" ry="10" width="62.5" x="937.5" y="202"></rect><text x="968.75" y="217">"1JN"</text></g><path d="M 1000.0 213 a 10 10 0 0 0 10 -10 v -40 a 10 10 0 0 1 10 -10"></path><path d="M 917.5 153 a 10 10 0 0 1 10 10 v 70 a 10 10 0 0 0 10 10"></path><g class="terminal ">
<path d="M 937.5 243 h 0.0"></path><path d="M 1000.0 243 h 0.0"></path><rect height="22" rx="10" ry="10" width="62.5" x="937.5" y="232"></rect><text x="968.75" y="247">"2JN"</text></g><path d="M 1000.0 243 a 10 10 0 0 0 10 -10 v -70 a 10 10 0 0 1 10 -10"></path><path d="M 917.5 153 a 10 10 0 0 1 10 10 v 100 a 10 10 0 0 0 10 10"></path><g class="terminal ">
<path d="M 937.5 273 h 0.0"></path><path d="M 1000.0 273 h 0.0"></path><rect height="22" rx="10" ry="10" width="62.5" x="937.5" y="262"></rect><text x="968.75" y="277">"3JN"</text></g><path d="M 1000.0 273 a 10 10 0 0 0 10 -10 v -100 a 10 10 0 0 1 10 -10"></path></g><path d="M 1020.0 153 a 10 10 0 0 1 10 10 v 119 a 10 10 0 0 0 10 10"></path><path d="M 1020.0 44 a 10 10 0 0 1 10 10 v 89 a 10 10 0 0 0 10 10"></path><g>
<path d="M 1040.0 153 h 0.0"></path><path d="M 1142.5 153 h 0.0"></path><path d="M 1040.0 153 a 10 10 0 0 0 10 -10 v -10 a 10 10 0 0 1 10 -10"></path><g class="terminal ">
<path d="M 1060.0 123 h 0.0"></path><path d="M 1122.5 123 h 0.0"></path><rect height="22" rx="10" ry="10" width="62.5" x="1060.0" y="112"></rect><text x="1091.25" y="127">"TOB"</text></g><path d="M 1122.5 123 a 10 10 0 0 1 10 10 v 10 a 10 10 0 0 0 10 10"></path><path d="M 1040.0 153 a 10 10 0 0 0 10 -10 v -40 a 10 10 0 0 1 10 -10"></path><g class="terminal ">
<path d="M 1060.0 93 h 0.0"></path><path d="M 1122.5 93 h 0.0"></path><rect height="22" rx="10" ry="10" width="62.5" x="1060.0" y="82"></rect><text x="1091.25" y="97">"REV"</text></g><path d="M 1122.5 93 a 10 10 0 0 1 10 10 v 40 a 10 10 0 0 0 10 10"></path><path d="M 1040.0 153 a 10 10 0 0 0 10 -10 v -70 a 10 10 0 0 1 10 -10"></path><g class="terminal ">
<path d="M 1060.0 63 h 0.0"></path><path d="M 1122.5 63 h 0.0"></path><rect height="22" rx="10" ry="10" width="62.5" x="1060.0" y="52"></rect><text x="1091.25" y="67">"JUD"</text></g><path d="M 1122.5 63 a 10 10 0 0 1 10 10 v 70 a 10 10 0 0 0 10 10"></path><path d="M 1040.0 153 h 20"></path><g class="terminal ">
<path d="M 1060.0 153 h 0.0"></path><path d="M 1122.5 153 h 0.0"></path><rect height="22" rx="10" ry="10" width="62.5" x="1060.0" y="142"></rect><text x="1091.25" y="157">"JDT"</text></g><path d="M 1122.5 153 h 20"></path><path d="M 1040.0 153 a 10 10 0 0 1 10 10 v 10 a 10 10 0 0 0 10 10"></path><g class="terminal ">
<path d="M 1060.0 183 h 0.0"></path><path d="M 1122.5 183 h 0.0"></path><rect height="22" rx="10" ry="10" width="62.5" x="1060.0" y="172"></rect><text x="1091.25" y="187">"ESG"</text></g><path d="M 1122.5 183 a 10 10 0 0 0 10 -10 v -10 a 10 10 0 0 1 10 -10"></path><path d="M 1040.0 153 a 10 10 0 0 1 10 10 v 40 a 10 10 0 0 0 10 10"></path><g class="terminal ">
<path d="M 1060.0 213 h 0.0"></path><path d="M 1122.5 213 h 0.0"></path><rect height="22" rx="10" ry="10" width="62.5" x="1060.0" y="202"></rect><text x="1091.25" y="217">"WIS"</text></g><path d="M 1122.5 213 a 10 10 0 0 0 10 -10 v -40 a 10 10 0 0 1 10 -10"></path><path d="M 1040.0 153 a 10 10 0 0 1 10 10 v 70 a 10 10 0 0 0 10 10"></path><g class="terminal ">
<path d="M 1060.0 243 h 0.0"></path><path d="M 1122.5 243 h 0.0"></path><rect height="22" rx="10" ry="10" width="62.5" x="1060.0" y="232"></rect><text x="1091.25" y="247">"SIR"</text></g><path d="M 1122.5 243 a 10 10 0 0 0 10 -10 v -70 a 10 10 0 0 1 10 -10"></path><path d="M 1040.0 153 a 10 10 0 0 1 10 10 v 100 a 10 10 0 0 0 10 10"></path><g class="terminal ">
<path d="M 1060.0 273 h 0.0"></path><path d="M 1122.5 273 h 0.0"></path><rect height="22" rx="10" ry="10" width="62.5" x="1060.0" y="262"></rect><text x="1091.25" y="277">"BAR"</text></g><path d="M 1122.5 273 a 10 10 0 0 0 10 -10 v -100 a 10 10 0 0 1 10 -10"></path></g><path d="M 1142.5 153 a 10 10 0 0 1 10 10 v 119 a 10 10 0 0 0 10 10"></path><path d="M 1142.5 44 a 10 10 0 0 1 10 10 v 89 a 10 10 0 0 0 10 10"></path><g>
<path d="M 1162.5 153 h 0.0"></path><path d="M 1265.0 153 h 0.0"></path><path d="M 1162.5 153 a 10 10 0 0 0 10 -10 v -10 a 10 10 0 0 1 10 -10"></path><g class="terminal ">
<path d="M 1182.5 123 h 0.0"></path><path d="M 1245.0 123 h 0.0"></path><rect height="22" rx="10" ry="10" width="62.5" x="1182.5" y="112"></rect><text x="1213.75" y="127">"SUS"</text></g><path d="M 1245.0 123 a 10 10 0 0 1 10 10 v 10 a 10 10 0 0 0 10 10"></path><path d="M 1162.5 153 a 10 10 0 0 0 10 -10 v -40 a 10 10 0 0 1 10 -10"></path><g class="terminal ">
<path d="M 1182.5 93 h 0.0"></path><path d="M 1245.0 93 h 0.0"></path><rect height="22" rx="10" ry="10" width="62.5" x="1182.5" y="82"></rect><text x="1213.75" y="97">"S3Y"</text></g><path d="M 1245.0 93 a 10 10 0 0 1 10 10 v 40 a 10 10 0 0 0 10 10"></path><path d="M 1162.5 153 a 10 10 0 0 0 10 -10 v -70 a 10 10 0 0 1 10 -10"></path><g class="terminal ">
<path d="M 1182.5 63 h 0.0"></path><path d="M 1245.0 63 h 0.0"></path><rect height="22" rx="10" ry="10" width="62.5" x="1182.5" y="52"></rect><text x="1213.75" y="67">"LJE"</text></g><path d="M 1245.0 63 a 10 10 0 0 1 10 10 v 70 a 10 10 0 0 0 10 10"></path><path d="M 1162.5 153 h 20"></path><g class="terminal ">
<path d="M 1182.5 153 h 0.0"></path><path d="M 1245.0 153 h 0.0"></path><rect height="22" rx="10" ry="10" width="62.5" x="1182.5" y="142"></rect><text x="1213.75" y="157">"BEL"</text></g><path d="M 1245.0 153 h 20"></path><path d="M 1162.5 153 a 10 10 0 0 1 10 10 v 10 a 10 10 0 0 0 10 10"></path><g class="terminal ">
<path d="M 1182.5 183 h 0.0"></path><path d="M 1245.0 183 h 0.0"></path><rect height="22" rx="10" ry="10" width="62.5" x="1182.5" y="172"></rect><text x="1213.75" y="187">"1MA"</text></g><path d="M 1245.0 183 a 10 10 0 0 0 10 -10 v -10 a 10 10 0 0 1 10 -10"></path><path d="M 1162.5 153 a 10 10 0 0 1 10 10 v 40 a 10 10 0 0 0 10 10"></path><g class="terminal ">
<path d="M 1182.5 213 h 0.0"></path><path d="M 1245.0 213 h 0.0"></path><rect height="22" rx="10" ry="10" width="62.5" x="1182.5" y="202"></rect><text x="1213.75" y="217">"2MA"</text></g><path d="M 1245.0 213 a 10 10 0 0 0 10 -10 v -40 a 10 10 0 0 1 10 -10"></path><path d="M 1162.5 153 a 10 10 0 0 1 10 10 v 70 a 10 10 0 0 0 10 10"></path><g class="terminal ">
<path d="M 1182.5 243 h 0.0"></path><path d="M 1245.0 243 h 0.0"></path><rect height="22" rx="10" ry="10" width="62.5" x="1182.5" y="232"></rect><text x="1213.75" y="247">"3MA"</text></g><path d="M 1245.0 243 a 10 10 0 0 0 10 -10 v -70 a 10 10 0 0 1 10 -10"></path><path d="M 1162.5 153 a 10 10 0 0 1 10 10 v 100 a 10 10 0 0 0 10 10"></path><g class="terminal ">
<path d="M 1182.5 273 h 0.0"></path><path d="M 1245.0 273 h 0.0"></path><rect height="22" rx="10" ry="10" width="62.5" x="1182.5" y="262"></rect><text x="1213.75" y="277">"4MA"</text></g><path d="M 1245.0 273 a 10 10 0 0 0 10 -10 v -100 a 10 10 0 0 1 10 -10"></path></g><path d="M 1265.0 153 a 10 10 0 0 1 10 10 v 119 a 10 10 0 0 0 10 10"></path><path d="M 1265.0 44 a 10 10 0 0 1 10 10 v 89 a 10 10 0 0 0 10 10"></path><g>
<path d="M 1285.0 153 h 0.0"></path><path d="M 1387.5 153 h 0.0"></path><path d="M 1285.0 153 a 10 10 0 0 0 10 -10 v -10 a 10 10 0 0 1 10 -10"></path><g class="terminal ">
<path d="M 1305.0 123 h 0.0"></path><path d="M 1367.5 123 h 0.0"></path><rect height="22" rx="10" ry="10" width="62.5" x="1305.0" y="112"></rect><text x="1336.25" y="127">"MAN"</text></g><path d="M 1367.5 123 a 10 10 0 0 1 10 10 v 10 a 10 10 0 0 0 10 10"></path><path d="M 1285.0 153 a 10 10 0 0 0 10 -10 v -40 a 10 10 0 0 1 10 -10"></path><g class="terminal ">
<path d="M 1305.0 93 h 0.0"></path><path d="M 1367.5 93 h 0.0"></path><rect height="22" rx="10" ry="10" width="62.5" x="1305.0" y="82"></rect><text x="1336.25" y="97">"2ES"</text></g><path d="M 1367.5 93 a 10 10 0 0 1 10 10 v 40 a 10 10 0 0 0 10 10"></path><path d="M 1285.0 153 a 10 10 0 0 0 10 -10 v -70 a 10 10 0 0 1 10 -10"></path><g class="terminal ">
<path d="M 1305.0 63 h 0.0"></path><path d="M 1367.5 63 h 0.0"></path><rect height="22" rx="10" ry="10" width="62.5" x="1305.0" y="52"></rect><text x="1336.25" y="67">"1ES"</text></g><path d="M 1367.5 63 a 10 10 0 0 1 10 10 v 70 a 10 10 0 0 0 10 10"></path><path d="M 1285.0 153 h 20"></path><g class="terminal ">
<path d="M 1305.0 153 h 0.0"></path><path d="M 1367.5 153 h 0.0"></path><rect height="22" rx="10" ry="10" width="62.5" x="1305.0" y="142"></rect><text x="1336.25" y="157">"PS2"</text></g><path d="M 1367.5 153 h 20"></path><path d="M 1285.0 153 a 10 10 0 0 1 10 10 v 10 a 10 10 0 0 0 10 10"></path><g class="terminal ">
<path d="M 1305.0 183 h 0.0"></path><path d="M 1367.5 183 h 0.0"></path><rect height="22" rx="10" ry="10" width="62.5" x="1305.0" y="172"></rect><text x="1336.25" y="187">"ODA"</text></g><path d="M 1367.5 183 a 10 10 0 0 0 10 -10 v -10 a 10 10 0 0 1 10 -10"></path><path d="M 1285.0 153 a 10 10 0 0 1 10 10 v 40 a 10 10 0 0 0 10 10"></path><g class="terminal ">
<path d="M 1305.0 213 h 0.0"></path><path d="M 1367.5 213 h 0.0"></path><rect height="22" rx="10" ry="10" width="62.5" x="1305.0" y="202"></rect><text x="1336.25" y="217">"PSS"</text></g><path d="M 1367.5 213 a 10 10 0 0 0 10 -10 v -40 a 10 10 0 0 1 10 -10"></path><path d="M 1285.0 153 a 10 10 0 0 1 10 10 v 70 a 10 10 0 0 0 10 10"></path><g class="terminal ">
<path d="M 1305.0 243 h 0.0"></path><path d="M 1367.5 243 h 0.0"></path><rect height="22" rx="10" ry="10" width="62.5" x="1305.0" y="232"></rect><text x="1336.25" y="247">"EZA"</text></g><path d="M 1367.5 243 a 10 10 0 0 0 10 -10 v -70 a 10 10 0 0 1 10 -10"></path><path d="M 1285.0 153 a 10 10 0 0 1 10 10 v 100 a 10 10 0 0 0 10 10"></path><g class="terminal ">
<path d="M 1305.0 273 h 0.0"></path><path d="M 1367.5 273 h 0.0"></path><rect height="22" rx="10" ry="10" width="62.5" x="1305.0" y="262"></rect><text x="1336.25" y="277">"5EZ"</text></g><path d="M 1367.5 273 a 10 10 0 0 0 10 -10 v -100 a 10 10 0 0 1 10 -10"></path></g><path d="M 1387.5 153 a 10 10 0 0 1 10 10 v 119 a 10 10 0 0 0 10 10"></path><path d="M 1387.5 44 a 10 10 0 0 1 10 10 v 89 a 10 10 0 0 0 10 10"></path><g>
<path d="M 1407.5 153 h 0.0"></path><path d="M 1510.0 153 h 0.0"></path><path d="M 1407.5 153 a 10 10 0 0 0 10 -10 v -10 a 10 10 0 0 1 10 -10"></path><g class="terminal ">
<path d="M 1427.5 123 h 0.0"></path><path d="M 1490.0 123 h 0.0"></path><rect height="22" rx="10" ry="10" width="62.5" x="1427.5" y="112"></rect><text x="1458.75" y="127">"PS3"</text></g><path d="M 1490.0 123 a 10 10 0 0 1 10 10 v 10 a 10 10 0 0 0 10 10"></path><path d="M 1407.5 153 a 10 10 0 0 0 10 -10 v -40 a 10 10 0 0 1 10 -10"></path><g class="terminal ">
<path d="M 1427.5 93 h 0.0"></path><path d="M 1490.0 93 h 0.0"></path><rect height="22" rx="10" ry="10" width="62.5" x="1427.5" y="82"></rect><text x="1458.75" y="97">"DAG"</text></g><path d="M 1490.0 93 a 10 10 0 0 1 10 10 v 40 a 10 10 0 0 0 10 10"></path><path d="M 1407.5 153 a 10 10 0 0 0 10 -10 v -70 a 10 10 0 0 1 10 -10"></path><g class="terminal ">
<path d="M 1427.5 63 h 0.0"></path><path d="M 1490.0 63 h 0.0"></path><rect height="22" rx="10" ry="10" width="62.5" x="1427.5" y="52"></rect><text x="1458.75" y="67">"6EZ"</text></g><path d="M 1490.0 63 a 10 10 0 0 1 10 10 v 70 a 10 10 0 0 0 10 10"></path><path d="M 1407.5 153 h 20"></path><g class="terminal ">
<path d="M 1427.5 153 h 0.0"></path><path d="M 1490.0 153 h 0.0"></path><rect height="22" rx="10" ry="10" width="62.5" x="1427.5" y="142"></rect><text x="1458.75" y="157">"2BA"</text></g><path d="M 1490.0 153 h 20"></path><path d="M 1407.5 153 a 10 10 0 0 1 10 10 v 10 a 10 10 0 0 0 10 10"></path><g class="terminal ">
<path d="M 1427.5 183 h 0.0"></path><path d="M 1490.0 183 h 0.0"></path><rect height="22" rx="10" ry="10" width="62.5" x="1427.5" y="172"></rect><text x="1458.75" y="187">"LBA"</text></g><path d="M 1490.0 183 a 10 10 0 0 0 10 -10 v -10 a 10 10 0 0 1 10 -10"></path><path d="M 1407.5 153 a 10 10 0 0 1 10 10 v 40 a 10 10 0 0 0 10 10"></path><g class="terminal ">
<path d="M 1427.5 213 h 0.0"></path><path d="M 1490.0 213 h 0.0"></path><rect height="22" rx="10" ry="10" width="62.5" x="1427.5" y="202"></rect><text x="1458.75" y="217">"JUB"</text></g><path d="M 1490.0 213 a 10 10 0 0 0 10 -10 v -40 a 10 10 0 0 1 10 -10"></path><path d="M 1407.5 153 a 10 10 0 0 1 10 10 v 70 a 10 10 0 0 0 10 10"></path><g class="terminal ">
<path d="M 1427.5 243 h 0.0"></path><path d="M 1490.0 243 h 0.0"></path><rect height="22" rx="10" ry="10" width="62.5" x="1427.5" y="232"></rect><text x="1458.75" y="247">"ENO"</text></g><path d="M 1490.0 243 a 10 10 0 0 0 10 -10 v -70 a 10 10 0 0 1 10 -10"></path><path d="M 1407.5 153 a 10 10 0 0 1 10 10 v 100 a 10 10 0 0 0 10 10"></path><g class="terminal ">
<path d="M 1427.5 273 h 0.0"></path><path d="M 1490.0 273 h 0.0"></path><rect height="22" rx="10" ry="10" width="62.5" x="1427.5" y="262"></rect><text x="1458.75" y="277">"1MQ"</text></g><path d="M 1490.0 273 a 10 10 0 0 0 10 -10 v -100 a 10 10 0 0 1 10 -10"></path></g><path d="M 1510.0 153 a 10 10 0 0 1 10 10 v 119 a 10 10 0 0 0 10 10"></path><path d="M 1510.0 44 a 10 10 0 0 1 10 10 v 89 a 10 10 0 0 0 10 10"></path><g>
<path d="M 1530.0 153 h 0.0"></path><path d="M 1649.5 153 h 0.0"></path><path d="M 1530.0 153 a 10 10 0 0 0 10 -10 v -10 a 10 10 0 0 1 10 -10"></path><g class="terminal ">
<path d="M 1550.0 123 h 8.5"></path><path d="M 1621.0 123 h 8.5"></path><rect height="22" rx="10" ry="10" width="62.5" x="1558.5" y="112"></rect><text x="1589.75" y="127">"REP"</text></g><path d="M 1629.5 123 a 10 10 0 0 1 10 10 v 10 a 10 10 0 0 0 10 10"></path><path d="M 1530.0 153 a 10 10 0 0 0 10 -10 v -40 a 10 10 0 0 1 10 -10"></path><g class="terminal ">
<path d="M 1550.0 93 h 8.5"></path><path d="M 1621.0 93 h 8.5"></path><rect height="22" rx="10" ry="10" width="62.5" x="1558.5" y="82"></rect><text x="1589.75" y="97">"3MQ"</text></g><path d="M 1629.5 93 a 10 10 0 0 1 10 10 v 40 a 10 10 0 0 0 10 10"></path><path d="M 1530.0 153 a 10 10 0 0 0 10 -10 v -70 a 10 10 0 0 1 10 -10"></path><g class="terminal ">
<path d="M 1550.0 63 h 8.5"></path><path d="M 1621.0 63 h 8.5"></path><rect height="22" rx="10" ry="10" width="62.5" x="1558.5" y="52"></rect><text x="1589.75" y="67">"2MQ"</text></g><path d="M 1629.5 63 a 10 10 0 0 1 10 10 v 70 a 10 10 0 0 0 10 10"></path><path d="M 1530.0 153 h 20"></path><g class="terminal ">
<path d="M 1550.0 153 h 8.5"></path><path d="M 1621.0 153 h 8.5"></path><rect height="22" rx="10" ry="10" width="62.5" x="1558.5" y="142"></rect><text x="1589.75" y="157">"4BA"</text></g><path d="M 1629.5 153 h 20"></path><path d="M 1530.0 153 a 10 10 0 0 1 10 10 v 10 a 10 10 0 0 0 10 10"></path><g class="terminal ">
<path d="M 1550.0 183 h 8.5"></path><path d="M 1621.0 183 h 8.5"></path><rect height="22" rx="10" ry="10" width="62.5" x="1558.5" y="172"></rect><text x="1589.75" y="187">"LAO"</text></g><path d="M 1629.5 183 a 10 10 0 0 0 10 -10 v -10 a 10 10 0 0 1 10 -10"></path><path d="M 1530.0 153 a 10 10 0 0 1 10 10 v 40 a 10 10 0 0 0 10 10"></path><g class="terminal ">
<path d="M 1550.0 213 h 0.0"></path><path d="M 1629.5 213 h 0.0"></path><rect height="22" rx="10" ry="10" width="79.5" x="1550.0" y="202"></rect><text x="1589.75" y="217">/\S{3}/</text></g><path d="M 1629.5 213 a 10 10 0 0 0 10 -10 v -40 a 10 10 0 0 1 10 -10"></path></g><path d="M 1649.5 153 h 10"></path></g><g class="non-terminal ">
<path d="M 50.0 28 h 0.0"></path><path d="M 291.0 28 h 0.0"></path><text class="comment" x="170.5" y="33">BookIdentification.book.code.enum</text></g></g><path d="M 1659.5 153 h 10"></path><path d="M 1669.5 153 h 20 m 0 -10 v 20"></path></g></svg>