<svg class="railroad-diagram" height="298" viewBox="0 0 763.5 298" width="763.5" xmlns="http://www.w3.org/2000/svg" xmlns:xlink="http://www.w3.org/1999/xlink">
<g transform="translate(.5 .5)">
<style>/* <![CDATA[ */

    svg.railroad-diagram {
        background-color: hsl(30,20%,95%);
    }
    svg.railroad-diagram path {
        stroke-width: 2;
        stroke: black;
        fill: none;
    }
    svg.railroad-diagram text {
        font-size: 12px;
        text-anchor: middle;
        font-family: DejaVu Sans;
    }
    svg.railroad-diagram text.label {
        text-anchor:start;
    }
    svg.railroad-diagram text.comment {
        font-family: DejaVu Sans;
        font-size: 14px;
    }
    svg.railroad-diagram rect{
        stroke-width: 2;
        stroke: black;
        fill: rgb(210, 255, 210);
    }
    svg.railroad-diagram rect.group-box {
        stroke: gray;
        stroke-dasharray: 10 5;
        fill: none;
    }
    .terminal {
        font-family: DejaVu Sans;
    }
    svg.railroad-diagram g.altterminal rect {
        fill: rgb(251, 252, 207)
    }

/* ]]> */
</style><g>
<path d="M 20 49 v 20 m 0 -10 h 20"></path></g><path d="M 40 59 h 10"></path><g>
<path d="M 50 59 h 0.0"></path><path d="M 713.5 59 h 0.0"></path><g>
<path d="M 50.0 59 h 0.0"></path><path d="M 186.5 59 h 0.0"></path><path d="M 50.0 59 h 20"></path><g class="terminal ">
<path d="M 70.0 59 h 12.75"></path><path d="M 153.75 59 h 12.75"></path><rect height="22" rx="10" ry="10" width="71.0" x="82.75" y="48"></rect><text x="118.25" y="63">'\n\\'</text></g><path d="M 166.5 59 h 20"></path><path d="M 50.0 59 a 10 10 0 0 1 10 10 v 10 a 10 10 0 0 0 10 10"></path><g class="terminal altterminal">
<path d="M 70.0 89 h 0.0"></path><path d="M 166.5 89 h 0.0"></path><rect height="22" rx="10" ry="10" width="96.5" x="70.0" y="78"></rect><text x="118.25" y="93">/${Ws}\\/</text></g><path d="M 166.5 89 a 10 10 0 0 0 10 -10 v -10 a 10 10 0 0 1 10 -10"></path></g><path d="M 186.5 59 h 10"></path><path d="M 196.5 59 h 10"></path><g>
<path d="M 206.5 59 h 0.0"></path><path d="M 309.0 59 h 0.0"></path><path d="M 206.5 59 h 20"></path><g class="terminal ">
<path d="M 226.5 59 h 0.0"></path><path d="M 289.0 59 h 0.0"></path><rect height="22" rx="10" ry="10" width="62.5" x="226.5" y="48"></rect><text x="257.75" y="63">"mt1"</text></g><path d="M 289.0 59 h 20"></path><path d="M 206.5 59 a 10 10 0 0 1 10 10 v 10 a 10 10 0 0 0 10 10"></path><g class="terminal ">
<path d="M 226.5 89 h 0.0"></path><path d="M 289.0 89 h 0.0"></path><rect height="22" rx="10" ry="10" width="62.5" x="226.5" y="78"></rect><text x="257.75" y="93">"mt2"</text></g><path d="M 289.0 89 a 10 10 0 0 0 10 -10 v -10 a 10 10 0 0 1 10 -10"></path><path d="M 206.5 59 a 10 10 0 0 1 10 10 v 40 a 10 10 0 0 0 10 10"></path><g class="terminal ">
<path d="M 226.5 119 h 0.0"></path><path d="M 289.0 119 h 0.0"></path><rect height="22" rx="10" ry="10" width="62.5" x="226.5" y="108"></rect><text x="257.75" y="123">"mt3"</text></g><path d="M 289.0 119 a 10 10 0 0 0 10 -10 v -40 a 10 10 0 0 1 10 -10"></path><path d="M 206.5 59 a 10 10 0 0 1 10 10 v 70 a 10 10 0 0 0 10 10"></path><g class="terminal ">
<path d="M 226.5 149 h 0.0"></path><path d="M 289.0 149 h 0.0"></path><rect height="22" rx="10" ry="10" width="62.5" x="226.5" y="138"></rect><text x="257.75" y="153">"mt4"</text></g><path d="M 289.0 149 a 10 10 0 0 0 10 -10 v -70 a 10 10 0 0 1 10 -10"></path><path d="M 206.5 59 a 10 10 0 0 1 10 10 v 100 a 10 10 0 0 0 10 10"></path><g class="terminal ">
<path d="M 226.5 179 h 4.25"></path><path d="M 284.75 179 h 4.25"></path><rect height="22" rx="10" ry="10" width="54.0" x="230.75" y="168"></rect><text x="257.75" y="183">"mt"</text></g><path d="M 289.0 179 a 10 10 0 0 0 10 -10 v -100 a 10 10 0 0 1 10 -10"></path></g><path d="M 309.0 59 h 10"></path><path d="M 319.0 59 h 10"></path><g>
<path d="M 329.0 59 h 0.0"></path><path d="M 440.0 59 h 0.0"></path><path d="M 329.0 59 h 20"></path><g class="terminal ">
<path d="M 349.0 59 h 12.75"></path><path d="M 407.25 59 h 12.75"></path><rect height="22" rx="10" ry="10" width="45.5" x="361.75" y="48"></rect><text x="384.5" y="63">' '</text></g><path d="M 420.0 59 h 20"></path><path d="M 329.0 59 a 10 10 0 0 1 10 10 v 10 a 10 10 0 0 0 10 10"></path><g class="terminal altterminal">
<path d="M 349.0 89 h 0.0"></path><path d="M 420.0 89 h 0.0"></path><rect height="22" rx="10" ry="10" width="71.0" x="349.0" y="78"></rect><text x="384.5" y="93">TAGEND</text></g><path d="M 420.0 89 a 10 10 0 0 0 10 -10 v -10 a 10 10 0 0 1 10 -10"></path></g><path d="M 440.0 59 h 10"></path><path d="M 450.0 59 h 10"></path><g>
<path d="M 460.0 59 h 0.0"></path><path d="M 713.5 59 h 0.0"></path><path d="M 460.0 59 a 10 10 0 0 0 10 -10 v -9 a 10 10 0 0 1 10 -10"></path><g>
<path d="M 480.0 30 h 213.5"></path></g><path d="M 693.5 30 a 10 10 0 0 1 10 10 v 9 a 10 10 0 0 0 10 10"></path><path d="M 460.0 59 h 20"></path><g>
<path d="M 480.0 59 h 0.0"></path><path d="M 693.5 59 h 0.0"></path><path d="M 480.0 59 h 10"></path><g>
<path d="M 490.0 59 h 0.0"></path><path d="M 683.5 59 h 0.0"></path><path d="M 490.0 59 h 20"></path><g>
<path d="M 510.0 59 h 0.0"></path><path d="M 663.5 59 h 0.0"></path><g class="terminal ">
<path d="M 510.0 59 h 0.0"></path><path d="M 564.0 59 h 0.0"></path><rect height="22" rx="10" ry="10" width="54.0" x="510.0" y="48"></rect><text x="537.0" y="63">TEXT</text></g><path d="M 564.0 59 h 10"></path><path d="M 574.0 59 h 10"></path><g class="terminal ">
<path d="M 584.0 59 h 0.0"></path><path d="M 663.5 59 h 0.0"></path><rect height="22" rx="10" ry="10" width="79.5" x="584.0" y="48"></rect><text x="623.75" y="63">TEXTEND</text></g></g><path d="M 663.5 59 h 20"></path><path d="M 490.0 59 a 10 10 0 0 1 10 10 v 10 a 10 10 0 0 0 10 10"></path><g class="non-terminal ">
<path d="M 510.0 89 h 32.75"></path><path d="M 630.75 89 h 32.75"></path><rect height="22" width="88.0" x="542.75" y="78"></rect><text x="586.75" y="93">Footnote</text></g><path d="M 663.5 89 a 10 10 0 0 0 10 -10 v -10 a 10 10 0 0 1 10 -10"></path><path d="M 490.0 59 a 10 10 0 0 1 10 10 v 40 a 10 10 0 0 0 10 10"></path><g class="non-terminal ">
<path d="M 510.0 119 h 7.25"></path><path d="M 656.25 119 h 7.25"></path><rect height="22" width="139.0" x="517.25" y="108"></rect><text x="586.75" y="123">CrossReference</text></g><path d="M 663.5 119 a 10 10 0 0 0 10 -10 v -40 a 10 10 0 0 1 10 -10"></path><path d="M 490.0 59 a 10 10 0 0 1 10 10 v 70 a 10 10 0 0 0 10 10"></path><g class="non-terminal ">
<path d="M 510.0 149 h 28.5"></path><path d="M 635.0 149 h 28.5"></path><rect height="22" width="96.5" x="538.5" y="138"></rect><text x="586.75" y="153">CharEmbed</text></g><path d="M 663.5 149 a 10 10 0 0 0 10 -10 v -70 a 10 10 0 0 1 10 -10"></path><path d="M 490.0 59 a 10 10 0 0 1 10 10 v 100 a 10 10 0 0 0 10 10"></path><g class="non-terminal ">
<path d="M 510.0 179 h 41.25"></path><path d="M 622.25 179 h 41.25"></path><rect height="22" width="71.0" x="551.25" y="168"></rect><text x="586.75" y="183">Figure</text></g><path d="M 663.5 179 a 10 10 0 0 0 10 -10 v -100 a 10 10 0 0 1 10 -10"></path><path d="M 490.0 59 a 10 10 0 0 1 10 10 v 130 a 10 10 0 0 0 10 10"></path><g class="non-terminal ">
<path d="M 510.0 209 h 28.5"></path><path d="M 635.0 209 h 28.5"></path><rect height="22" width="96.5" x="538.5" y="198"></rect><text x="586.75" y="213">Milestone</text></g><path d="M 663.5 209 a 10 10 0 0 0 10 -10 v -130 a 10 10 0 0 1 10 -10"></path><path d="M 490.0 59 a 10 10 0 0 1 10 10 v 160 a 10 10 0 0 0 10 10"></path><g class="non-terminal ">
<path d="M 510.0 239 h 45.5"></path><path d="M 618.0 239 h 45.5"></path><rect height="22" width="62.5" x="555.5" y="228"></rect><text x="586.75" y="243">Break</text></g><path d="M 663.5 239 a 10 10 0 0 0 10 -10 v -160 a 10 10 0 0 1 10 -10"></path></g><path d="M 683.5 59 h 10"></path><path d="M 490.0 59 a 10 10 0 0 0 -10 10 v 189 a 10 10 0 0 0 10 10"></path><g>
<path d="M 490.0 268 h 193.5"></path></g><path d="M 683.5 268 a 10 10 0 0 0 10 -10 v -189 a 10 10 0 0 0 -10 -10"></path></g><path d="M 693.5 59 h 20"></path></g></g><path d="M 713.5 59 h 10"></path><path d="M 723.5 59 h 20 m 0 -10 v 20"></path></g></svg>