<svg class="railroad-diagram" height="310" viewBox="0 0 666.5 310" width="666.5" xmlns="http://www.w3.org/2000/svg" xmlns:xlink="http://www.w3.org/1999/xlink">
<g transform="translate(.5 .5)">
<style>/* <![CDATA[ */

    svg.railroad-diagram {
        background-color:hsl(30,20%,95%);
    }
    svg.railroad-diagram path {
        stroke-width: 2;
        stroke: black;
        fill: none;
    }
    svg.railroad-diagram text {
        font-size: 12px;
        text-anchor: middle;
        font-family: DejaVu Sans;
    }
    svg.railroad-diagram text.label {
        text-anchor:start;
    }
    svg.railroad-diagram text.comment {
        font-family: DejaVu Sans;
        font-size: 14px;
    }
    svg.railroad-diagram rect{
        stroke-width: 2;
        stroke:black;
        fill: rgb(210, 255, 210);
    }
    svg.railroad-diagram rect.group-box {
        stroke: gray;
        stroke-dasharray: 10 5;
        fill: none;
    }
    .terminal {
        font-family: DejaVu Sans;
    }

/* ]]> */
</style><g>
<path d="M 20 49 v 20 m 0 -10 h 20"></path></g><path d="M 40 59 h 10"></path><g>
<path d="M 50 59 h 0.0"></path><path d="M 616.5 59 h 0.0"></path><g class="terminal ">
<path d="M 50.0 59 h 0.0"></path><path d="M 95.5 59 h 0.0"></path><rect height="22" rx="10" ry="10" width="45.5" x="50.0" y="48"></rect><text x="72.75" y="63">'\'</text></g><path d="M 95.5 59 h 10"></path><path d="M 105.5 59 h 10"></path><g>
<path d="M 115.5 59 h 0.0"></path><path d="M 226.5 59 h 0.0"></path><path d="M 115.5 59 h 20"></path><g class="terminal ">
<path d="M 135.5 59 h 4.25"></path><path d="M 202.25 59 h 4.25"></path><rect height="22" rx="10" ry="10" width="62.5" x="139.75" y="48"></rect><text x="171.0" y="63">"mt1"</text></g><path d="M 206.5 59 h 20"></path><path d="M 115.5 59 a 10 10 0 0 1 10 10 v 10 a 10 10 0 0 0 10 10"></path><g class="terminal ">
<path d="M 135.5 89 h 4.25"></path><path d="M 202.25 89 h 4.25"></path><rect height="22" rx="10" ry="10" width="62.5" x="139.75" y="78"></rect><text x="171.0" y="93">"mt2"</text></g><path d="M 206.5 89 a 10 10 0 0 0 10 -10 v -10 a 10 10 0 0 1 10 -10"></path><path d="M 115.5 59 a 10 10 0 0 1 10 10 v 40 a 10 10 0 0 0 10 10"></path><g class="terminal ">
<path d="M 135.5 119 h 4.25"></path><path d="M 202.25 119 h 4.25"></path><rect height="22" rx="10" ry="10" width="62.5" x="139.75" y="108"></rect><text x="171.0" y="123">"mt3"</text></g><path d="M 206.5 119 a 10 10 0 0 0 10 -10 v -40 a 10 10 0 0 1 10 -10"></path><path d="M 115.5 59 a 10 10 0 0 1 10 10 v 70 a 10 10 0 0 0 10 10"></path><g class="terminal ">
<path d="M 135.5 149 h 4.25"></path><path d="M 202.25 149 h 4.25"></path><rect height="22" rx="10" ry="10" width="62.5" x="139.75" y="138"></rect><text x="171.0" y="153">"mt4"</text></g><path d="M 206.5 149 a 10 10 0 0 0 10 -10 v -70 a 10 10 0 0 1 10 -10"></path><path d="M 115.5 59 a 10 10 0 0 1 10 10 v 100 a 10 10 0 0 0 10 10"></path><g class="terminal ">
<path d="M 135.5 179 h 8.5"></path><path d="M 198.0 179 h 8.5"></path><rect height="22" rx="10" ry="10" width="54.0" x="144.0" y="168"></rect><text x="171.0" y="183">"mt"</text></g><path d="M 206.5 179 a 10 10 0 0 0 10 -10 v -100 a 10 10 0 0 1 10 -10"></path><path d="M 115.5 59 a 10 10 0 0 1 10 10 v 130 a 10 10 0 0 0 10 10"></path><g class="terminal ">
<path d="M 135.5 209 h 4.25"></path><path d="M 202.25 209 h 4.25"></path><rect height="22" rx="10" ry="10" width="62.5" x="139.75" y="198"></rect><text x="171.0" y="213">"imt"</text></g><path d="M 206.5 209 a 10 10 0 0 0 10 -10 v -130 a 10 10 0 0 1 10 -10"></path><path d="M 115.5 59 a 10 10 0 0 1 10 10 v 160 a 10 10 0 0 0 10 10"></path><g class="terminal ">
<path d="M 135.5 239 h 0.0"></path><path d="M 206.5 239 h 0.0"></path><rect height="22" rx="10" ry="10" width="71.0" x="135.5" y="228"></rect><text x="171.0" y="243">"imt1"</text></g><path d="M 206.5 239 a 10 10 0 0 0 10 -10 v -160 a 10 10 0 0 1 10 -10"></path><path d="M 115.5 59 a 10 10 0 0 1 10 10 v 190 a 10 10 0 0 0 10 10"></path><g class="terminal ">
<path d="M 135.5 269 h 0.0"></path><path d="M 206.5 269 h 0.0"></path><rect height="22" rx="10" ry="10" width="71.0" x="135.5" y="258"></rect><text x="171.0" y="273">"imt2"</text></g><path d="M 206.5 269 a 10 10 0 0 0 10 -10 v -190 a 10 10 0 0 1 10 -10"></path></g><path d="M 226.5 59 h 10"></path><path d="M 236.5 59 h 10"></path><g>
<path d="M 246.5 59 h 0.0"></path><path d="M 357.5 59 h 0.0"></path><path d="M 246.5 59 h 20"></path><g class="terminal ">
<path d="M 266.5 59 h 12.75"></path><path d="M 324.75 59 h 12.75"></path><rect height="22" rx="10" ry="10" width="45.5" x="279.25" y="48"></rect><text x="302.0" y="63">' '</text></g><path d="M 337.5 59 h 20"></path><path d="M 246.5 59 a 10 10 0 0 1 10 10 v 10 a 10 10 0 0 0 10 10"></path><g class="terminal ">
<path d="M 266.5 89 h 0.0"></path><path d="M 337.5 89 h 0.0"></path><rect height="22" rx="10" ry="10" width="71.0" x="266.5" y="78"></rect><text x="302.0" y="93">TAGEND</text></g><path d="M 337.5 89 a 10 10 0 0 0 10 -10 v -10 a 10 10 0 0 1 10 -10"></path></g><path d="M 357.5 59 h 10"></path><path d="M 367.5 59 h 10"></path><g>
<path d="M 377.5 59 h 0.0"></path><path d="M 616.5 59 h 0.0"></path><path d="M 377.5 59 a 10 10 0 0 0 10 -10 v -9 a 10 10 0 0 1 10 -10"></path><g>
<path d="M 397.5 30 h 199.0"></path></g><path d="M 596.5 30 a 10 10 0 0 1 10 10 v 9 a 10 10 0 0 0 10 10"></path><path d="M 377.5 59 h 20"></path><g>
<path d="M 397.5 59 h 0.0"></path><path d="M 596.5 59 h 0.0"></path><path d="M 397.5 59 h 10"></path><g>
<path d="M 407.5 59 h 0.0"></path><path d="M 586.5 59 h 0.0"></path><path d="M 407.5 59 h 20"></path><g class="non-terminal ">
<path d="M 427.5 59 h 25.5"></path><path d="M 541.0 59 h 25.5"></path><rect height="22" width="88.0" x="453.0" y="48"></rect><text x="497.0" y="63">Footnote</text></g><path d="M 566.5 59 h 20"></path><path d="M 407.5 59 a 10 10 0 0 1 10 10 v 10 a 10 10 0 0 0 10 10"></path><g class="non-terminal ">
<path d="M 427.5 89 h 0.0"></path><path d="M 566.5 89 h 0.0"></path><rect height="22" width="139.0" x="427.5" y="78"></rect><text x="497.0" y="93">CrossReference</text></g><path d="M 566.5 89 a 10 10 0 0 0 10 -10 v -10 a 10 10 0 0 1 10 -10"></path><path d="M 407.5 59 a 10 10 0 0 1 10 10 v 40 a 10 10 0 0 0 10 10"></path><g class="non-terminal ">
<path d="M 427.5 119 h 42.5"></path><path d="M 524.0 119 h 42.5"></path><rect height="22" width="54.0" x="470.0" y="108"></rect><text x="497.0" y="123">Char</text></g><path d="M 566.5 119 a 10 10 0 0 0 10 -10 v -40 a 10 10 0 0 1 10 -10"></path><path d="M 407.5 59 a 10 10 0 0 1 10 10 v 70 a 10 10 0 0 0 10 10"></path><g class="non-terminal ">
<path d="M 427.5 149 h 21.25"></path><path d="M 545.25 149 h 21.25"></path><rect height="22" width="96.5" x="448.75" y="138"></rect><text x="497.0" y="153">Milestone</text></g><path d="M 566.5 149 a 10 10 0 0 0 10 -10 v -70 a 10 10 0 0 1 10 -10"></path><path d="M 407.5 59 a 10 10 0 0 1 10 10 v 100 a 10 10 0 0 0 10 10"></path><g class="non-terminal ">
<path d="M 427.5 179 h 38.25"></path><path d="M 528.25 179 h 38.25"></path><rect height="22" width="62.5" x="465.75" y="168"></rect><text x="497.0" y="183">Break</text></g><path d="M 566.5 179 a 10 10 0 0 0 10 -10 v -100 a 10 10 0 0 1 10 -10"></path></g><path d="M 586.5 59 h 10"></path><path d="M 407.5 59 a 10 10 0 0 0 -10 10 v 129 a 10 10 0 0 0 10 10"></path><g>
<path d="M 407.5 208 h 179.0"></path></g><path d="M 586.5 208 a 10 10 0 0 0 10 -10 v -129 a 10 10 0 0 0 -10 -10"></path></g><path d="M 596.5 59 h 20"></path></g></g><path d="M 616.5 59 h 10"></path><path d="M 626.5 59 h 20 m 0 -10 v 20"></path></g></svg>