<svg class="railroad-diagram" height="298" viewBox="0 0 868.0 298" width="868.0" xmlns="http://www.w3.org/2000/svg" xmlns:xlink="http://www.w3.org/1999/xlink">
<g transform="translate(.5 .5)">
<style>/* <![CDATA[ */

    svg.railroad-diagram {
        background-color: hsl(30,20%,95%);
    }
    svg.railroad-diagram path {
        stroke-width: 2;
        stroke: black;
        fill: none;
    }
    svg.railroad-diagram text {
        font-size: 12px;
        text-anchor: middle;
        font-family: DejaVu Sans;
    }
    svg.railroad-diagram text.label {
        text-anchor:start;
    }
    svg.railroad-diagram text.comment {
        font-family: DejaVu Sans;
        font-size: 14px;
    }
    svg.railroad-diagram rect{
        stroke-width: 2;
        stroke: black;
        fill: rgb(210, 255, 210);
    }
    svg.railroad-diagram rect.group-box {
        stroke: gray;
        stroke-dasharray: 10 5;
        fill: none;
    }
    .terminal {
        font-family: DejaVu Sans;
    }
    svg.railroad-diagram g.altterminal rect {
        fill: rgb(251, 252, 207)
    }

/* ]]> */
</style><g>
<path d="M 20 49 v 20 m 0 -10 h 20"></path></g><path d="M 40 59 h 10"></path><g>
<path d="M 50 59 h 0.0"></path><path d="M 818.0 59 h 0.0"></path><g>
<path d="M 50.0 59 h 0.0"></path><path d="M 186.5 59 h 0.0"></path><path d="M 50.0 59 h 20"></path><g class="terminal ">
<path d="M 70.0 59 h 12.75"></path><path d="M 153.75 59 h 12.75"></path><rect height="22" rx="10" ry="10" width="71.0" x="82.75" y="48"></rect><text x="118.25" y="63">'\n\\'</text></g><path d="M 166.5 59 h 20"></path><path d="M 50.0 59 a 10 10 0 0 1 10 10 v 10 a 10 10 0 0 0 10 10"></path><g class="terminal altterminal">
<path d="M 70.0 89 h 0.0"></path><path d="M 166.5 89 h 0.0"></path><rect height="22" rx="10" ry="10" width="96.5" x="70.0" y="78"></rect><text x="118.25" y="93">/${Ws}\\/</text></g><path d="M 166.5 89 a 10 10 0 0 0 10 -10 v -10 a 10 10 0 0 1 10 -10"></path></g><path d="M 186.5 59 h 10"></path><path d="M 196.5 59 h 10"></path><g class="non-terminal ">
<path d="M 206.5 59 h 0.0"></path><path d="M 413.5 59 h 0.0"></path><rect height="22" width="207.0" x="206.5" y="48"></rect><text x="310.0" y="63">Titles.para.style.enum</text></g><path d="M 413.5 59 h 10"></path><path d="M 423.5 59 h 10"></path><g>
<path d="M 433.5 59 h 0.0"></path><path d="M 544.5 59 h 0.0"></path><path d="M 433.5 59 h 20"></path><g class="terminal ">
<path d="M 453.5 59 h 12.75"></path><path d="M 511.75 59 h 12.75"></path><rect height="22" rx="10" ry="10" width="45.5" x="466.25" y="48"></rect><text x="489.0" y="63">' '</text></g><path d="M 524.5 59 h 20"></path><path d="M 433.5 59 a 10 10 0 0 1 10 10 v 10 a 10 10 0 0 0 10 10"></path><g class="terminal altterminal">
<path d="M 453.5 89 h 0.0"></path><path d="M 524.5 89 h 0.0"></path><rect height="22" rx="10" ry="10" width="71.0" x="453.5" y="78"></rect><text x="489.0" y="93">TAGEND</text></g><path d="M 524.5 89 a 10 10 0 0 0 10 -10 v -10 a 10 10 0 0 1 10 -10"></path></g><path d="M 544.5 59 h 10"></path><path d="M 554.5 59 h 10"></path><g>
<path d="M 564.5 59 h 0.0"></path><path d="M 818.0 59 h 0.0"></path><path d="M 564.5 59 a 10 10 0 0 0 10 -10 v -9 a 10 10 0 0 1 10 -10"></path><g>
<path d="M 584.5 30 h 213.5"></path></g><path d="M 798.0 30 a 10 10 0 0 1 10 10 v 9 a 10 10 0 0 0 10 10"></path><path d="M 564.5 59 h 20"></path><g>
<path d="M 584.5 59 h 0.0"></path><path d="M 798.0 59 h 0.0"></path><path d="M 584.5 59 h 10"></path><g>
<path d="M 594.5 59 h 0.0"></path><path d="M 788.0 59 h 0.0"></path><path d="M 594.5 59 h 20"></path><g>
<path d="M 614.5 59 h 0.0"></path><path d="M 768.0 59 h 0.0"></path><g class="terminal ">
<path d="M 614.5 59 h 0.0"></path><path d="M 668.5 59 h 0.0"></path><rect height="22" rx="10" ry="10" width="54.0" x="614.5" y="48"></rect><text x="641.5" y="63">TEXT</text></g><path d="M 668.5 59 h 10"></path><path d="M 678.5 59 h 10"></path><g class="terminal ">
<path d="M 688.5 59 h 0.0"></path><path d="M 768.0 59 h 0.0"></path><rect height="22" rx="10" ry="10" width="79.5" x="688.5" y="48"></rect><text x="728.25" y="63">TEXTEND</text></g></g><path d="M 768.0 59 h 20"></path><path d="M 594.5 59 a 10 10 0 0 1 10 10 v 10 a 10 10 0 0 0 10 10"></path><g class="non-terminal ">
<path d="M 614.5 89 h 32.75"></path><path d="M 735.25 89 h 32.75"></path><rect height="22" width="88.0" x="647.25" y="78"></rect><text x="691.25" y="93">Footnote</text></g><path d="M 768.0 89 a 10 10 0 0 0 10 -10 v -10 a 10 10 0 0 1 10 -10"></path><path d="M 594.5 59 a 10 10 0 0 1 10 10 v 40 a 10 10 0 0 0 10 10"></path><g class="non-terminal ">
<path d="M 614.5 119 h 7.25"></path><path d="M 760.75 119 h 7.25"></path><rect height="22" width="139.0" x="621.75" y="108"></rect><text x="691.25" y="123">CrossReference</text></g><path d="M 768.0 119 a 10 10 0 0 0 10 -10 v -40 a 10 10 0 0 1 10 -10"></path><path d="M 594.5 59 a 10 10 0 0 1 10 10 v 70 a 10 10 0 0 0 10 10"></path><g class="non-terminal ">
<path d="M 614.5 149 h 49.75"></path><path d="M 718.25 149 h 49.75"></path><rect height="22" width="54.0" x="664.25" y="138"></rect><text x="691.25" y="153">Char</text></g><path d="M 768.0 149 a 10 10 0 0 0 10 -10 v -70 a 10 10 0 0 1 10 -10"></path><path d="M 594.5 59 a 10 10 0 0 1 10 10 v 100 a 10 10 0 0 0 10 10"></path><g class="non-terminal ">
<path d="M 614.5 179 h 41.25"></path><path d="M 726.75 179 h 41.25"></path><rect height="22" width="71.0" x="655.75" y="168"></rect><text x="691.25" y="183">Figure</text></g><path d="M 768.0 179 a 10 10 0 0 0 10 -10 v -100 a 10 10 0 0 1 10 -10"></path><path d="M 594.5 59 a 10 10 0 0 1 10 10 v 130 a 10 10 0 0 0 10 10"></path><g class="non-terminal ">
<path d="M 614.5 209 h 28.5"></path><path d="M 739.5 209 h 28.5"></path><rect height="22" width="96.5" x="643.0" y="198"></rect><text x="691.25" y="213">Milestone</text></g><path d="M 768.0 209 a 10 10 0 0 0 10 -10 v -130 a 10 10 0 0 1 10 -10"></path><path d="M 594.5 59 a 10 10 0 0 1 10 10 v 160 a 10 10 0 0 0 10 10"></path><g class="non-terminal ">
<path d="M 614.5 239 h 45.5"></path><path d="M 722.5 239 h 45.5"></path><rect height="22" width="62.5" x="660.0" y="228"></rect><text x="691.25" y="243">Break</text></g><path d="M 768.0 239 a 10 10 0 0 0 10 -10 v -160 a 10 10 0 0 1 10 -10"></path></g><path d="M 788.0 59 h 10"></path><path d="M 594.5 59 a 10 10 0 0 0 -10 10 v 189 a 10 10 0 0 0 10 10"></path><g>
<path d="M 594.5 268 h 193.5"></path></g><path d="M 788.0 268 a 10 10 0 0 0 10 -10 v -189 a 10 10 0 0 0 -10 -10"></path></g><path d="M 798.0 59 h 20"></path></g></g><path d="M 818.0 59 h 10"></path><path d="M 828.0 59 h 20 m 0 -10 v 20"></path></g></svg>