<svg class="railroad-diagram" height="764" viewBox="0 0 796.5 764" width="796.5" xmlns="http://www.w3.org/2000/svg" xmlns:xlink="http://www.w3.org/1999/xlink">
<g transform="translate(.5 .5)">
<style>/* <![CDATA[ */

    svg.railroad-diagram {
        background-color:hsl(30,20%,95%);
    }
    svg.railroad-diagram path {
        stroke-width: 2;
        stroke: black;
        fill: none;
    }
    svg.railroad-diagram text {
        font-size: 12px;
        text-anchor: middle;
        font-family: DejaVu Sans;
    }
    svg.railroad-diagram text.label {
        text-anchor:start;
    }
    svg.railroad-diagram text.comment {
        font-family: DejaVu Sans;
        font-size: 14px;
    }
    svg.railroad-diagram rect{
        stroke-width: 2;
        stroke:black;
        fill: rgb(210, 210, 255);
    }
    svg.railroad-diagram rect.group-box {
        stroke: gray;
        stroke-dasharray: 10 5;
        fill: none;
    }
    .terminal {
        font-family: DejaVu Sans;
    }

/* ]]> */
</style><g>
<path d="M 20 465 v 20 m 0 -10 h 20"></path></g><path d="M 40 475 h 10"></path><g>
<path d="M 50 475 h 0.0"></path><path d="M 746.5 475 h 0.0"></path><g>
<path d="M 50.0 475 h 0.0"></path><path d="M 746.5 475 h 0.0"></path><path d="M 50.0 475 h 20"></path><g>
<path d="M 70.0 475 h 0.0"></path><path d="M 726.5 475 h 0.0"></path><g class="terminal ">
<path d="M 70.0 475 h 0.0"></path><path d="M 141.0 475 h 0.0"></path><rect height="22" rx="10" ry="10" width="71.0" x="70.0" y="464"></rect><text x="105.5" y="479">&#60;para></text></g><path d="M 141.0 475 h 10"></path><path d="M 151.0 475 h 10"></path><g>
<path d="M 161.0 475 h 0.0"></path><path d="M 726.5 475 h 0.0"></path><path d="M 161.0 475 a 10 10 0 0 0 10 -10 v -296 a 10 10 0 0 1 10 -10"></path><g>
<path d="M 181.0 159 h 0.0"></path><path d="M 706.5 159 h 0.0"></path><g class="terminal ">
<path d="M 181.0 159 h 0.0"></path><path d="M 252.0 159 h 0.0"></path><rect height="22" rx="10" ry="10" width="71.0" x="181.0" y="148"></rect><text x="216.5" y="163">@style</text></g><path d="M 252.0 159 h 10"></path><g>
<path d="M 262.0 159 h 0.0"></path><path d="M 706.5 159 h 0.0"></path><path d="M 262.0 159 a 10 10 0 0 0 10 -10 v -99 a 10 10 0 0 1 10 -10 h 232.0"></path><path d="M 262.0 159 h 10"></path><g>
<path d="M 272.0 159 h 0.0"></path><path d="M 272.0 159 a 10 10 0 0 0 10 -10 v -10 a 10 10 0 0 1 10 -10"></path><g class="terminal ">
<path d="M 292.0 129 h 0.0"></path><path d="M 363.0 129 h 0.0"></path><rect height="22" rx="10" ry="10" width="71.0" x="292.0" y="118"></rect><text x="327.5" y="133">"imt3"</text></g><path d="M 272.0 159 a 10 10 0 0 0 10 -10 v -40 a 10 10 0 0 1 10 -10"></path><g class="terminal ">
<path d="M 292.0 99 h 0.0"></path><path d="M 363.0 99 h 0.0"></path><rect height="22" rx="10" ry="10" width="71.0" x="292.0" y="88"></rect><text x="327.5" y="103">"imt2"</text></g><path d="M 272.0 159 a 10 10 0 0 0 10 -10 v -70 a 10 10 0 0 1 10 -10"></path><g class="terminal ">
<path d="M 292.0 69 h 0.0"></path><path d="M 363.0 69 h 0.0"></path><rect height="22" rx="10" ry="10" width="71.0" x="292.0" y="58"></rect><text x="327.5" y="73">"imt1"</text></g><path d="M 272.0 159 h 20"></path><g class="terminal ">
<path d="M 292.0 159 h 0.0"></path><path d="M 363.0 159 h 0.0"></path><rect height="22" rx="10" ry="10" width="71.0" x="292.0" y="148"></rect><text x="327.5" y="163">"imt4"</text></g><path d="M 272.0 159 a 10 10 0 0 1 10 10 v 10 a 10 10 0 0 0 10 10"></path><g class="terminal ">
<path d="M 292.0 189 h 0.0"></path><path d="M 371.5 189 h 0.0"></path><rect height="22" rx="10" ry="10" width="79.5" x="292.0" y="178"></rect><text x="331.75" y="193">"imte1"</text></g><path d="M 272.0 159 a 10 10 0 0 1 10 10 v 40 a 10 10 0 0 0 10 10"></path><g class="terminal ">
<path d="M 292.0 219 h 0.0"></path><path d="M 371.5 219 h 0.0"></path><rect height="22" rx="10" ry="10" width="79.5" x="292.0" y="208"></rect><text x="331.75" y="223">"imte2"</text></g><path d="M 272.0 159 a 10 10 0 0 1 10 10 v 70 a 10 10 0 0 0 10 10"></path><g class="terminal ">
<path d="M 292.0 249 h 0.0"></path><path d="M 363.0 249 h 0.0"></path><rect height="22" rx="10" ry="10" width="71.0" x="292.0" y="238"></rect><text x="327.5" y="253">"imte"</text></g><path d="M 272.0 159 a 10 10 0 0 1 10 10 v 100 a 10 10 0 0 0 10 10"></path><g class="terminal ">
<path d="M 292.0 279 h 0.0"></path><path d="M 354.5 279 h 0.0"></path><rect height="22" rx="10" ry="10" width="62.5" x="292.0" y="268"></rect><text x="323.25" y="283">"imt"</text></g><path d="M 272.0 159 a 10 10 0 0 1 10 10 v 130 a 10 10 0 0 0 10 10"></path><g class="terminal ">
<path d="M 292.0 309 h 0.0"></path><path d="M 346.0 309 h 0.0"></path><rect height="22" rx="10" ry="10" width="54.0" x="292.0" y="298"></rect><text x="319.0" y="313">"ib"</text></g><path d="M 272.0 159 a 10 10 0 0 1 10 10 v 160 a 10 10 0 0 0 10 10"></path><g class="terminal ">
<path d="M 292.0 339 h 0.0"></path><path d="M 346.0 339 h 0.0"></path><rect height="22" rx="10" ry="10" width="54.0" x="292.0" y="328"></rect><text x="319.0" y="343">"ie"</text></g><path d="M 272.0 159 a 10 10 0 0 1 10 10 v 190 a 10 10 0 0 0 10 10"></path><g class="terminal ">
<path d="M 292.0 369 h 0.0"></path><path d="M 363.0 369 h 0.0"></path><rect height="22" rx="10" ry="10" width="71.0" x="292.0" y="358"></rect><text x="327.5" y="373">"ili1"</text></g><path d="M 272.0 159 a 10 10 0 0 1 10 10 v 220 a 10 10 0 0 0 10 10"></path><g class="terminal ">
<path d="M 292.0 399 h 0.0"></path><path d="M 363.0 399 h 0.0"></path><rect height="22" rx="10" ry="10" width="71.0" x="292.0" y="388"></rect><text x="327.5" y="403">"ili2"</text></g></g><path d="M 391.5 40 a 10 10 0 0 1 10 10 v 99 a 10 10 0 0 0 10 10"></path><g>
<path d="M 411.5 159 h 0.0"></path><path d="M 411.5 159 a 10 10 0 0 0 10 -10 v -10 a 10 10 0 0 1 10 -10"></path><g class="terminal ">
<path d="M 431.5 129 h 0.0"></path><path d="M 494.0 129 h 0.0"></path><rect height="22" rx="10" ry="10" width="62.5" x="431.5" y="118"></rect><text x="462.75" y="133">"imq"</text></g><path d="M 411.5 159 a 10 10 0 0 0 10 -10 v -40 a 10 10 0 0 1 10 -10"></path><g class="terminal ">
<path d="M 431.5 99 h 0.0"></path><path d="M 494.0 99 h 0.0"></path><rect height="22" rx="10" ry="10" width="62.5" x="431.5" y="88"></rect><text x="462.75" y="103">"imi"</text></g><path d="M 411.5 159 a 10 10 0 0 0 10 -10 v -70 a 10 10 0 0 1 10 -10"></path><g class="terminal ">
<path d="M 431.5 69 h 0.0"></path><path d="M 494.0 69 h 0.0"></path><rect height="22" rx="10" ry="10" width="62.5" x="431.5" y="58"></rect><text x="462.75" y="73">"ili"</text></g><path d="M 411.5 159 h 20"></path><g class="terminal ">
<path d="M 431.5 159 h 0.0"></path><path d="M 485.5 159 h 0.0"></path><rect height="22" rx="10" ry="10" width="54.0" x="431.5" y="148"></rect><text x="458.5" y="163">"im"</text></g><path d="M 411.5 159 a 10 10 0 0 1 10 10 v 10 a 10 10 0 0 0 10 10"></path><g class="terminal ">
<path d="M 431.5 189 h 0.0"></path><path d="M 494.0 189 h 0.0"></path><rect height="22" rx="10" ry="10" width="62.5" x="431.5" y="178"></rect><text x="462.75" y="193">"io1"</text></g><path d="M 411.5 159 a 10 10 0 0 1 10 10 v 40 a 10 10 0 0 0 10 10"></path><g class="terminal ">
<path d="M 431.5 219 h 0.0"></path><path d="M 494.0 219 h 0.0"></path><rect height="22" rx="10" ry="10" width="62.5" x="431.5" y="208"></rect><text x="462.75" y="223">"io2"</text></g><path d="M 411.5 159 a 10 10 0 0 1 10 10 v 70 a 10 10 0 0 0 10 10"></path><g class="terminal ">
<path d="M 431.5 249 h 0.0"></path><path d="M 494.0 249 h 0.0"></path><rect height="22" rx="10" ry="10" width="62.5" x="431.5" y="238"></rect><text x="462.75" y="253">"io3"</text></g><path d="M 411.5 159 a 10 10 0 0 1 10 10 v 100 a 10 10 0 0 0 10 10"></path><g class="terminal ">
<path d="M 431.5 279 h 0.0"></path><path d="M 494.0 279 h 0.0"></path><rect height="22" rx="10" ry="10" width="62.5" x="431.5" y="268"></rect><text x="462.75" y="283">"io4"</text></g><path d="M 411.5 159 a 10 10 0 0 1 10 10 v 130 a 10 10 0 0 0 10 10"></path><g class="terminal ">
<path d="M 431.5 309 h 0.0"></path><path d="M 494.0 309 h 0.0"></path><rect height="22" rx="10" ry="10" width="62.5" x="431.5" y="298"></rect><text x="462.75" y="313">"iot"</text></g><path d="M 411.5 159 a 10 10 0 0 1 10 10 v 160 a 10 10 0 0 0 10 10"></path><g class="terminal ">
<path d="M 431.5 339 h 0.0"></path><path d="M 485.5 339 h 0.0"></path><rect height="22" rx="10" ry="10" width="54.0" x="431.5" y="328"></rect><text x="458.5" y="343">"io"</text></g><path d="M 411.5 159 a 10 10 0 0 1 10 10 v 190 a 10 10 0 0 0 10 10"></path><g class="terminal ">
<path d="M 431.5 369 h 0.0"></path><path d="M 494.0 369 h 0.0"></path><rect height="22" rx="10" ry="10" width="62.5" x="431.5" y="358"></rect><text x="462.75" y="373">"ipi"</text></g><path d="M 411.5 159 a 10 10 0 0 1 10 10 v 220 a 10 10 0 0 0 10 10"></path><g class="terminal ">
<path d="M 431.5 399 h 0.0"></path><path d="M 494.0 399 h 0.0"></path><rect height="22" rx="10" ry="10" width="62.5" x="431.5" y="388"></rect><text x="462.75" y="403">"ipq"</text></g></g><path d="M 514.0 40 a 10 10 0 0 1 10 10 v 99 a 10 10 0 0 0 10 10"></path><g>
<path d="M 534.0 159 h 0.0"></path><path d="M 534.0 159 a 10 10 0 0 0 10 -10 v -10 a 10 10 0 0 1 10 -10"></path><g class="terminal ">
<path d="M 554.0 129 h 0.0"></path><path d="M 616.5 129 h 0.0"></path><rect height="22" rx="10" ry="10" width="62.5" x="554.0" y="118"></rect><text x="585.25" y="133">"iq1"</text></g><path d="M 534.0 159 a 10 10 0 0 0 10 -10 v -40 a 10 10 0 0 1 10 -10"></path><g class="terminal ">
<path d="M 554.0 99 h 0.0"></path><path d="M 608.0 99 h 0.0"></path><rect height="22" rx="10" ry="10" width="54.0" x="554.0" y="88"></rect><text x="581.0" y="103">"ip"</text></g><path d="M 534.0 159 a 10 10 0 0 0 10 -10 v -70 a 10 10 0 0 1 10 -10"></path><g class="terminal ">
<path d="M 554.0 69 h 0.0"></path><path d="M 616.5 69 h 0.0"></path><rect height="22" rx="10" ry="10" width="62.5" x="554.0" y="58"></rect><text x="585.25" y="73">"ipr"</text></g><path d="M 534.0 159 h 20"></path><g class="terminal ">
<path d="M 554.0 159 h 0.0"></path><path d="M 616.5 159 h 0.0"></path><rect height="22" rx="10" ry="10" width="62.5" x="554.0" y="148"></rect><text x="585.25" y="163">"iq2"</text></g><path d="M 534.0 159 a 10 10 0 0 1 10 10 v 10 a 10 10 0 0 0 10 10"></path><g class="terminal ">
<path d="M 554.0 189 h 0.0"></path><path d="M 616.5 189 h 0.0"></path><rect height="22" rx="10" ry="10" width="62.5" x="554.0" y="178"></rect><text x="585.25" y="193">"iq3"</text></g><path d="M 534.0 159 a 10 10 0 0 1 10 10 v 40 a 10 10 0 0 0 10 10"></path><g class="terminal ">
<path d="M 554.0 219 h 0.0"></path><path d="M 608.0 219 h 0.0"></path><rect height="22" rx="10" ry="10" width="54.0" x="554.0" y="208"></rect><text x="581.0" y="223">"iq"</text></g><path d="M 534.0 159 a 10 10 0 0 1 10 10 v 70 a 10 10 0 0 0 10 10"></path><g class="terminal ">
<path d="M 554.0 249 h 0.0"></path><path d="M 616.5 249 h 0.0"></path><rect height="22" rx="10" ry="10" width="62.5" x="554.0" y="238"></rect><text x="585.25" y="253">"is1"</text></g><path d="M 534.0 159 a 10 10 0 0 1 10 10 v 100 a 10 10 0 0 0 10 10"></path><g class="terminal ">
<path d="M 554.0 279 h 0.0"></path><path d="M 616.5 279 h 0.0"></path><rect height="22" rx="10" ry="10" width="62.5" x="554.0" y="268"></rect><text x="585.25" y="283">"is2"</text></g><path d="M 534.0 159 a 10 10 0 0 1 10 10 v 130 a 10 10 0 0 0 10 10"></path><g class="terminal ">
<path d="M 554.0 309 h 0.0"></path><path d="M 608.0 309 h 0.0"></path><rect height="22" rx="10" ry="10" width="54.0" x="554.0" y="298"></rect><text x="581.0" y="313">"is"</text></g><path d="M 534.0 159 a 10 10 0 0 1 10 10 v 160 a 10 10 0 0 0 10 10"></path><g class="terminal ">
<path d="M 554.0 339 h 0.0"></path><path d="M 616.5 339 h 0.0"></path><rect height="22" rx="10" ry="10" width="62.5" x="554.0" y="328"></rect><text x="585.25" y="343">"iex"</text></g><path d="M 534.0 159 a 10 10 0 0 1 10 10 v 190 a 10 10 0 0 0 10 10"></path><g class="terminal ">
<path d="M 554.0 369 h 0.0"></path><path d="M 616.5 369 h 0.0"></path><rect height="22" rx="10" ry="10" width="62.5" x="554.0" y="358"></rect><text x="585.25" y="373">"rem"</text></g></g></g></g><path d="M 161.0 475 h 20"></path><g>
<path d="M 181.0 475 h 143.25"></path><path d="M 563.25 475 h 143.25"></path><path d="M 324.25 475 a 10 10 0 0 0 10 -10 v -9 a 10 10 0 0 1 10 -10"></path><g>
<path d="M 344.25 446 h 199.0"></path></g><path d="M 543.25 446 a 10 10 0 0 1 10 10 v 9 a 10 10 0 0 0 10 10"></path><path d="M 324.25 475 h 20"></path><g>
<path d="M 344.25 475 h 0.0"></path><path d="M 543.25 475 h 0.0"></path><path d="M 344.25 475 h 10"></path><g>
<path d="M 354.25 475 h 0.0"></path><path d="M 533.25 475 h 0.0"></path><path d="M 354.25 475 h 20"></path><g class="non-terminal ">
<path d="M 374.25 475 h 21.25"></path><path d="M 492.0 475 h 21.25"></path><rect height="22" width="96.5" x="395.5" y="464"></rect><text x="443.75" y="479">Reference</text></g><path d="M 513.25 475 h 20"></path><path d="M 354.25 475 a 10 10 0 0 1 10 10 v 10 a 10 10 0 0 0 10 10"></path><g class="non-terminal ">
<path d="M 374.25 505 h 25.5"></path><path d="M 487.75 505 h 25.5"></path><rect height="22" width="88.0" x="399.75" y="494"></rect><text x="443.75" y="509">Footnote</text></g><path d="M 513.25 505 a 10 10 0 0 0 10 -10 v -10 a 10 10 0 0 1 10 -10"></path><path d="M 354.25 475 a 10 10 0 0 1 10 10 v 40 a 10 10 0 0 0 10 10"></path><g class="non-terminal ">
<path d="M 374.25 535 h 0.0"></path><path d="M 513.25 535 h 0.0"></path><rect height="22" width="139.0" x="374.25" y="524"></rect><text x="443.75" y="539">CrossReference</text></g><path d="M 513.25 535 a 10 10 0 0 0 10 -10 v -40 a 10 10 0 0 1 10 -10"></path><path d="M 354.25 475 a 10 10 0 0 1 10 10 v 70 a 10 10 0 0 0 10 10"></path><g class="non-terminal ">
<path d="M 374.25 565 h 42.5"></path><path d="M 470.75 565 h 42.5"></path><rect height="22" width="54.0" x="416.75" y="554"></rect><text x="443.75" y="569">Char</text></g><path d="M 513.25 565 a 10 10 0 0 0 10 -10 v -70 a 10 10 0 0 1 10 -10"></path><path d="M 354.25 475 a 10 10 0 0 1 10 10 v 100 a 10 10 0 0 0 10 10"></path><g class="non-terminal ">
<path d="M 374.25 595 h 21.25"></path><path d="M 492.0 595 h 21.25"></path><rect height="22" width="96.5" x="395.5" y="584"></rect><text x="443.75" y="599">IntroChar</text></g><path d="M 513.25 595 a 10 10 0 0 0 10 -10 v -100 a 10 10 0 0 1 10 -10"></path><path d="M 354.25 475 a 10 10 0 0 1 10 10 v 130 a 10 10 0 0 0 10 10"></path><g class="non-terminal ">
<path d="M 374.25 625 h 21.25"></path><path d="M 492.0 625 h 21.25"></path><rect height="22" width="96.5" x="395.5" y="614"></rect><text x="443.75" y="629">Milestone</text></g><path d="M 513.25 625 a 10 10 0 0 0 10 -10 v -130 a 10 10 0 0 1 10 -10"></path><path d="M 354.25 475 a 10 10 0 0 1 10 10 v 160 a 10 10 0 0 0 10 10"></path><g class="terminal ">
<path d="M 374.25 655 h 42.5"></path><path d="M 470.75 655 h 42.5"></path><rect height="22" rx="10" ry="10" width="54.0" x="416.75" y="644"></rect><text x="443.75" y="659">TEXT</text></g><path d="M 513.25 655 a 10 10 0 0 0 10 -10 v -160 a 10 10 0 0 1 10 -10"></path></g><path d="M 533.25 475 h 10"></path><path d="M 354.25 475 a 10 10 0 0 0 -10 10 v 189 a 10 10 0 0 0 10 10"></path><g>
<path d="M 354.25 684 h 179.0"></path></g><path d="M 533.25 684 a 10 10 0 0 0 10 -10 v -189 a 10 10 0 0 0 -10 -10"></path></g><path d="M 543.25 475 h 20"></path></g><path d="M 706.5 475 h 20"></path></g></g><path d="M 726.5 475 h 20"></path><path d="M 50.0 475 a 10 10 0 0 1 10 10 v 228 a 10 10 0 0 0 10 10"></path><g class="non-terminal ">
<path d="M 70.0 723 h 297.0"></path><path d="M 429.5 723 h 297.0"></path><rect height="22" width="62.5" x="367.0" y="712"></rect><text x="398.25" y="727">Table</text></g><path d="M 726.5 723 a 10 10 0 0 0 10 -10 v -228 a 10 10 0 0 1 10 -10"></path></g></g><path d="M 746.5 475 h 10"></path><path d="M 756.5 475 h 20 m 0 -10 v 20"></path></g></svg>