<svg class="railroad-diagram" height="518" viewBox="0 0 1268.0 518" width="1268.0" xmlns="http://www.w3.org/2000/svg" xmlns:xlink="http://www.w3.org/1999/xlink">
<g transform="translate(.5 .5)">
<style>/* <![CDATA[ */

    svg.railroad-diagram {
        background-color: hsl(30,20%,95%);
    }
    svg.railroad-diagram path {
        stroke-width: 2;
        stroke: black;
        fill: none;
    }
    svg.railroad-diagram text {
        font-size: 12px;
        text-anchor: middle;
        font-family: DejaVu Sans;
    }
    svg.railroad-diagram text.label {
        text-anchor:start;
    }
    svg.railroad-diagram text.comment {
        font-family: DejaVu Sans;
        font-size: 14px;
    }
    svg.railroad-diagram rect{
        stroke-width: 2;
        stroke: black;
        fill: rgb(210, 255, 210);
    }
    svg.railroad-diagram rect.group-box {
        stroke: gray;
        stroke-dasharray: 10 5;
        fill: none;
    }
    .terminal {
        font-family: DejaVu Sans;
    }
    svg.railroad-diagram g.altterminal rect {
        fill: rgb(251, 252, 207)
    }

/* ]]> */
</style><g>
<path d="M 20 139 v 20 m 0 -10 h 20"></path></g><path d="M 40 149 h 10"></path><g>
<path d="M 50 149 h 0.0"></path><path d="M 1218.0 149 h 0.0"></path><g>
<path d="M 50.0 149 h 0.0"></path><path d="M 1218.0 149 h 0.0"></path><path d="M 50.0 149 h 20"></path><g>
<path d="M 70.0 149 h 0.0"></path><path d="M 1198.0 149 h 0.0"></path><g>
<path d="M 70.0 149 h 0.0"></path><path d="M 206.5 149 h 0.0"></path><path d="M 70.0 149 h 20"></path><g class="terminal ">
<path d="M 90.0 149 h 12.75"></path><path d="M 173.75 149 h 12.75"></path><rect height="22" rx="10" ry="10" width="71.0" x="102.75" y="138"></rect><text x="138.25" y="153">'\n\\'</text></g><path d="M 186.5 149 h 20"></path><path d="M 70.0 149 a 10 10 0 0 1 10 10 v 10 a 10 10 0 0 0 10 10"></path><g class="terminal altterminal">
<path d="M 90.0 179 h 0.0"></path><path d="M 186.5 179 h 0.0"></path><rect height="22" rx="10" ry="10" width="96.5" x="90.0" y="168"></rect><text x="138.25" y="183">/${Ws}\\/</text></g><path d="M 186.5 179 a 10 10 0 0 0 10 -10 v -10 a 10 10 0 0 1 10 -10"></path></g><path d="M 206.5 149 h 10"></path><g>
<path d="M 216.5 149 h 0.0"></path><path d="M 803.5 149 h 0.0"></path><path d="M 216.5 149 a 10 10 0 0 0 10 -10 v -99 a 10 10 0 0 1 10 -10 h 414.5"></path><path d="M 386.0 418 h 397.5 a 10 10 0 0 0 10 -10 v -249 a 10 10 0 0 1 10 -10"></path><path d="M 216.5 149 h 10"></path><g>
<path d="M 226.5 149 h 10.0"></path><path d="M 356.0 149 h 10.0"></path><path d="M 236.5 149 a 10 10 0 0 0 10 -10 v -10 a 10 10 0 0 1 10 -10"></path><g class="terminal ">
<path d="M 256.5 119 h 4.25"></path><path d="M 331.75 119 h 4.25"></path><rect height="22" rx="10" ry="10" width="71.0" x="260.75" y="108"></rect><text x="296.25" y="123">"imt3"</text></g><path d="M 336.0 119 a 10 10 0 0 1 10 10 v 10 a 10 10 0 0 0 10 10"></path><path d="M 236.5 149 a 10 10 0 0 0 10 -10 v -40 a 10 10 0 0 1 10 -10"></path><g class="terminal ">
<path d="M 256.5 89 h 4.25"></path><path d="M 331.75 89 h 4.25"></path><rect height="22" rx="10" ry="10" width="71.0" x="260.75" y="78"></rect><text x="296.25" y="93">"imt2"</text></g><path d="M 336.0 89 a 10 10 0 0 1 10 10 v 40 a 10 10 0 0 0 10 10"></path><path d="M 236.5 149 a 10 10 0 0 0 10 -10 v -70 a 10 10 0 0 1 10 -10"></path><g class="terminal ">
<path d="M 256.5 59 h 4.25"></path><path d="M 331.75 59 h 4.25"></path><rect height="22" rx="10" ry="10" width="71.0" x="260.75" y="48"></rect><text x="296.25" y="63">"imt1"</text></g><path d="M 336.0 59 a 10 10 0 0 1 10 10 v 70 a 10 10 0 0 0 10 10"></path><path d="M 236.5 149 h 20"></path><g class="terminal ">
<path d="M 256.5 149 h 4.25"></path><path d="M 331.75 149 h 4.25"></path><rect height="22" rx="10" ry="10" width="71.0" x="260.75" y="138"></rect><text x="296.25" y="153">"imt4"</text></g><path d="M 336.0 149 h 20"></path><path d="M 236.5 149 a 10 10 0 0 1 10 10 v 10 a 10 10 0 0 0 10 10"></path><g class="terminal ">
<path d="M 256.5 179 h 0.0"></path><path d="M 336.0 179 h 0.0"></path><rect height="22" rx="10" ry="10" width="79.5" x="256.5" y="168"></rect><text x="296.25" y="183">"imte1"</text></g><path d="M 336.0 179 a 10 10 0 0 0 10 -10 v -10 a 10 10 0 0 1 10 -10"></path><path d="M 236.5 149 a 10 10 0 0 1 10 10 v 40 a 10 10 0 0 0 10 10"></path><g class="terminal ">
<path d="M 256.5 209 h 0.0"></path><path d="M 336.0 209 h 0.0"></path><rect height="22" rx="10" ry="10" width="79.5" x="256.5" y="198"></rect><text x="296.25" y="213">"imte2"</text></g><path d="M 336.0 209 a 10 10 0 0 0 10 -10 v -40 a 10 10 0 0 1 10 -10"></path><path d="M 236.5 149 a 10 10 0 0 1 10 10 v 70 a 10 10 0 0 0 10 10"></path><g class="terminal ">
<path d="M 256.5 239 h 4.25"></path><path d="M 331.75 239 h 4.25"></path><rect height="22" rx="10" ry="10" width="71.0" x="260.75" y="228"></rect><text x="296.25" y="243">"imte"</text></g><path d="M 336.0 239 a 10 10 0 0 0 10 -10 v -70 a 10 10 0 0 1 10 -10"></path><path d="M 236.5 149 a 10 10 0 0 1 10 10 v 100 a 10 10 0 0 0 10 10"></path><g class="terminal ">
<path d="M 256.5 269 h 8.5"></path><path d="M 327.5 269 h 8.5"></path><rect height="22" rx="10" ry="10" width="62.5" x="265.0" y="258"></rect><text x="296.25" y="273">"imt"</text></g><path d="M 336.0 269 a 10 10 0 0 0 10 -10 v -100 a 10 10 0 0 1 10 -10"></path><path d="M 236.5 149 a 10 10 0 0 1 10 10 v 130 a 10 10 0 0 0 10 10"></path><g class="terminal ">
<path d="M 256.5 299 h 12.75"></path><path d="M 323.25 299 h 12.75"></path><rect height="22" rx="10" ry="10" width="54.0" x="269.25" y="288"></rect><text x="296.25" y="303">"ib"</text></g><path d="M 336.0 299 a 10 10 0 0 0 10 -10 v -130 a 10 10 0 0 1 10 -10"></path><path d="M 236.5 149 a 10 10 0 0 1 10 10 v 160 a 10 10 0 0 0 10 10"></path><g class="terminal ">
<path d="M 256.5 329 h 12.75"></path><path d="M 323.25 329 h 12.75"></path><rect height="22" rx="10" ry="10" width="54.0" x="269.25" y="318"></rect><text x="296.25" y="333">"ie"</text></g><path d="M 336.0 329 a 10 10 0 0 0 10 -10 v -160 a 10 10 0 0 1 10 -10"></path><path d="M 236.5 149 a 10 10 0 0 1 10 10 v 190 a 10 10 0 0 0 10 10"></path><g class="terminal ">
<path d="M 256.5 359 h 4.25"></path><path d="M 331.75 359 h 4.25"></path><rect height="22" rx="10" ry="10" width="71.0" x="260.75" y="348"></rect><text x="296.25" y="363">"ili1"</text></g><path d="M 336.0 359 a 10 10 0 0 0 10 -10 v -190 a 10 10 0 0 1 10 -10"></path><path d="M 236.5 149 a 10 10 0 0 1 10 10 v 220 a 10 10 0 0 0 10 10"></path><g class="terminal ">
<path d="M 256.5 389 h 4.25"></path><path d="M 331.75 389 h 4.25"></path><rect height="22" rx="10" ry="10" width="71.0" x="260.75" y="378"></rect><text x="296.25" y="393">"ili2"</text></g><path d="M 336.0 389 a 10 10 0 0 0 10 -10 v -220 a 10 10 0 0 1 10 -10"></path></g><path d="M 366.0 149 a 10 10 0 0 1 10 10 v 249 a 10 10 0 0 0 10 10"></path><path d="M 366.0 30 a 10 10 0 0 1 10 10 v 99 a 10 10 0 0 0 10 10"></path><g>
<path d="M 386.0 149 h 10.0"></path><path d="M 498.5 149 h 10.0"></path><path d="M 396.0 149 a 10 10 0 0 0 10 -10 v -10 a 10 10 0 0 1 10 -10"></path><g class="terminal ">
<path d="M 416.0 119 h 0.0"></path><path d="M 478.5 119 h 0.0"></path><rect height="22" rx="10" ry="10" width="62.5" x="416.0" y="108"></rect><text x="447.25" y="123">"imq"</text></g><path d="M 478.5 119 a 10 10 0 0 1 10 10 v 10 a 10 10 0 0 0 10 10"></path><path d="M 396.0 149 a 10 10 0 0 0 10 -10 v -40 a 10 10 0 0 1 10 -10"></path><g class="terminal ">
<path d="M 416.0 89 h 0.0"></path><path d="M 478.5 89 h 0.0"></path><rect height="22" rx="10" ry="10" width="62.5" x="416.0" y="78"></rect><text x="447.25" y="93">"imi"</text></g><path d="M 478.5 89 a 10 10 0 0 1 10 10 v 40 a 10 10 0 0 0 10 10"></path><path d="M 396.0 149 a 10 10 0 0 0 10 -10 v -70 a 10 10 0 0 1 10 -10"></path><g class="terminal ">
<path d="M 416.0 59 h 0.0"></path><path d="M 478.5 59 h 0.0"></path><rect height="22" rx="10" ry="10" width="62.5" x="416.0" y="48"></rect><text x="447.25" y="63">"ili"</text></g><path d="M 478.5 59 a 10 10 0 0 1 10 10 v 70 a 10 10 0 0 0 10 10"></path><path d="M 396.0 149 h 20"></path><g class="terminal ">
<path d="M 416.0 149 h 4.25"></path><path d="M 474.25 149 h 4.25"></path><rect height="22" rx="10" ry="10" width="54.0" x="420.25" y="138"></rect><text x="447.25" y="153">"im"</text></g><path d="M 478.5 149 h 20"></path><path d="M 396.0 149 a 10 10 0 0 1 10 10 v 10 a 10 10 0 0 0 10 10"></path><g class="terminal ">
<path d="M 416.0 179 h 0.0"></path><path d="M 478.5 179 h 0.0"></path><rect height="22" rx="10" ry="10" width="62.5" x="416.0" y="168"></rect><text x="447.25" y="183">"io1"</text></g><path d="M 478.5 179 a 10 10 0 0 0 10 -10 v -10 a 10 10 0 0 1 10 -10"></path><path d="M 396.0 149 a 10 10 0 0 1 10 10 v 40 a 10 10 0 0 0 10 10"></path><g class="terminal ">
<path d="M 416.0 209 h 0.0"></path><path d="M 478.5 209 h 0.0"></path><rect height="22" rx="10" ry="10" width="62.5" x="416.0" y="198"></rect><text x="447.25" y="213">"io2"</text></g><path d="M 478.5 209 a 10 10 0 0 0 10 -10 v -40 a 10 10 0 0 1 10 -10"></path><path d="M 396.0 149 a 10 10 0 0 1 10 10 v 70 a 10 10 0 0 0 10 10"></path><g class="terminal ">
<path d="M 416.0 239 h 0.0"></path><path d="M 478.5 239 h 0.0"></path><rect height="22" rx="10" ry="10" width="62.5" x="416.0" y="228"></rect><text x="447.25" y="243">"io3"</text></g><path d="M 478.5 239 a 10 10 0 0 0 10 -10 v -70 a 10 10 0 0 1 10 -10"></path><path d="M 396.0 149 a 10 10 0 0 1 10 10 v 100 a 10 10 0 0 0 10 10"></path><g class="terminal ">
<path d="M 416.0 269 h 0.0"></path><path d="M 478.5 269 h 0.0"></path><rect height="22" rx="10" ry="10" width="62.5" x="416.0" y="258"></rect><text x="447.25" y="273">"io4"</text></g><path d="M 478.5 269 a 10 10 0 0 0 10 -10 v -100 a 10 10 0 0 1 10 -10"></path><path d="M 396.0 149 a 10 10 0 0 1 10 10 v 130 a 10 10 0 0 0 10 10"></path><g class="terminal ">
<path d="M 416.0 299 h 0.0"></path><path d="M 478.5 299 h 0.0"></path><rect height="22" rx="10" ry="10" width="62.5" x="416.0" y="288"></rect><text x="447.25" y="303">"iot"</text></g><path d="M 478.5 299 a 10 10 0 0 0 10 -10 v -130 a 10 10 0 0 1 10 -10"></path><path d="M 396.0 149 a 10 10 0 0 1 10 10 v 160 a 10 10 0 0 0 10 10"></path><g class="terminal ">
<path d="M 416.0 329 h 4.25"></path><path d="M 474.25 329 h 4.25"></path><rect height="22" rx="10" ry="10" width="54.0" x="420.25" y="318"></rect><text x="447.25" y="333">"io"</text></g><path d="M 478.5 329 a 10 10 0 0 0 10 -10 v -160 a 10 10 0 0 1 10 -10"></path><path d="M 396.0 149 a 10 10 0 0 1 10 10 v 190 a 10 10 0 0 0 10 10"></path><g class="terminal ">
<path d="M 416.0 359 h 0.0"></path><path d="M 478.5 359 h 0.0"></path><rect height="22" rx="10" ry="10" width="62.5" x="416.0" y="348"></rect><text x="447.25" y="363">"ipi"</text></g><path d="M 478.5 359 a 10 10 0 0 0 10 -10 v -190 a 10 10 0 0 1 10 -10"></path><path d="M 396.0 149 a 10 10 0 0 1 10 10 v 220 a 10 10 0 0 0 10 10"></path><g class="terminal ">
<path d="M 416.0 389 h 0.0"></path><path d="M 478.5 389 h 0.0"></path><rect height="22" rx="10" ry="10" width="62.5" x="416.0" y="378"></rect><text x="447.25" y="393">"ipq"</text></g><path d="M 478.5 389 a 10 10 0 0 0 10 -10 v -220 a 10 10 0 0 1 10 -10"></path></g><path d="M 508.5 149 a 10 10 0 0 1 10 10 v 249 a 10 10 0 0 0 10 10"></path><path d="M 508.5 30 a 10 10 0 0 1 10 10 v 99 a 10 10 0 0 0 10 10"></path><g>
<path d="M 528.5 149 h 10.0"></path><path d="M 641.0 149 h 10.0"></path><path d="M 538.5 149 a 10 10 0 0 0 10 -10 v -10 a 10 10 0 0 1 10 -10"></path><g class="terminal ">
<path d="M 558.5 119 h 4.25"></path><path d="M 616.75 119 h 4.25"></path><rect height="22" rx="10" ry="10" width="54.0" x="562.75" y="108"></rect><text x="589.75" y="123">"ip"</text></g><path d="M 621.0 119 a 10 10 0 0 1 10 10 v 10 a 10 10 0 0 0 10 10"></path><path d="M 538.5 149 a 10 10 0 0 0 10 -10 v -40 a 10 10 0 0 1 10 -10"></path><g class="terminal ">
<path d="M 558.5 89 h 0.0"></path><path d="M 621.0 89 h 0.0"></path><rect height="22" rx="10" ry="10" width="62.5" x="558.5" y="78"></rect><text x="589.75" y="93">"ipc"</text></g><path d="M 621.0 89 a 10 10 0 0 1 10 10 v 40 a 10 10 0 0 0 10 10"></path><path d="M 538.5 149 a 10 10 0 0 0 10 -10 v -70 a 10 10 0 0 1 10 -10"></path><g class="terminal ">
<path d="M 558.5 59 h 0.0"></path><path d="M 621.0 59 h 0.0"></path><rect height="22" rx="10" ry="10" width="62.5" x="558.5" y="48"></rect><text x="589.75" y="63">"ipr"</text></g><path d="M 621.0 59 a 10 10 0 0 1 10 10 v 70 a 10 10 0 0 0 10 10"></path><path d="M 538.5 149 h 20"></path><g class="terminal ">
<path d="M 558.5 149 h 0.0"></path><path d="M 621.0 149 h 0.0"></path><rect height="22" rx="10" ry="10" width="62.5" x="558.5" y="138"></rect><text x="589.75" y="153">"iq1"</text></g><path d="M 621.0 149 h 20"></path><path d="M 538.5 149 a 10 10 0 0 1 10 10 v 10 a 10 10 0 0 0 10 10"></path><g class="terminal ">
<path d="M 558.5 179 h 0.0"></path><path d="M 621.0 179 h 0.0"></path><rect height="22" rx="10" ry="10" width="62.5" x="558.5" y="168"></rect><text x="589.75" y="183">"iq2"</text></g><path d="M 621.0 179 a 10 10 0 0 0 10 -10 v -10 a 10 10 0 0 1 10 -10"></path><path d="M 538.5 149 a 10 10 0 0 1 10 10 v 40 a 10 10 0 0 0 10 10"></path><g class="terminal ">
<path d="M 558.5 209 h 0.0"></path><path d="M 621.0 209 h 0.0"></path><rect height="22" rx="10" ry="10" width="62.5" x="558.5" y="198"></rect><text x="589.75" y="213">"iq3"</text></g><path d="M 621.0 209 a 10 10 0 0 0 10 -10 v -40 a 10 10 0 0 1 10 -10"></path><path d="M 538.5 149 a 10 10 0 0 1 10 10 v 70 a 10 10 0 0 0 10 10"></path><g class="terminal ">
<path d="M 558.5 239 h 4.25"></path><path d="M 616.75 239 h 4.25"></path><rect height="22" rx="10" ry="10" width="54.0" x="562.75" y="228"></rect><text x="589.75" y="243">"iq"</text></g><path d="M 621.0 239 a 10 10 0 0 0 10 -10 v -70 a 10 10 0 0 1 10 -10"></path><path d="M 538.5 149 a 10 10 0 0 1 10 10 v 100 a 10 10 0 0 0 10 10"></path><g class="terminal ">
<path d="M 558.5 269 h 0.0"></path><path d="M 621.0 269 h 0.0"></path><rect height="22" rx="10" ry="10" width="62.5" x="558.5" y="258"></rect><text x="589.75" y="273">"is1"</text></g><path d="M 621.0 269 a 10 10 0 0 0 10 -10 v -100 a 10 10 0 0 1 10 -10"></path><path d="M 538.5 149 a 10 10 0 0 1 10 10 v 130 a 10 10 0 0 0 10 10"></path><g class="terminal ">
<path d="M 558.5 299 h 0.0"></path><path d="M 621.0 299 h 0.0"></path><rect height="22" rx="10" ry="10" width="62.5" x="558.5" y="288"></rect><text x="589.75" y="303">"is2"</text></g><path d="M 621.0 299 a 10 10 0 0 0 10 -10 v -130 a 10 10 0 0 1 10 -10"></path><path d="M 538.5 149 a 10 10 0 0 1 10 10 v 160 a 10 10 0 0 0 10 10"></path><g class="terminal ">
<path d="M 558.5 329 h 4.25"></path><path d="M 616.75 329 h 4.25"></path><rect height="22" rx="10" ry="10" width="54.0" x="562.75" y="318"></rect><text x="589.75" y="333">"is"</text></g><path d="M 621.0 329 a 10 10 0 0 0 10 -10 v -160 a 10 10 0 0 1 10 -10"></path><path d="M 538.5 149 a 10 10 0 0 1 10 10 v 190 a 10 10 0 0 0 10 10"></path><g class="terminal ">
<path d="M 558.5 359 h 0.0"></path><path d="M 621.0 359 h 0.0"></path><rect height="22" rx="10" ry="10" width="62.5" x="558.5" y="348"></rect><text x="589.75" y="363">"iex"</text></g><path d="M 621.0 359 a 10 10 0 0 0 10 -10 v -190 a 10 10 0 0 1 10 -10"></path><path d="M 538.5 149 a 10 10 0 0 1 10 10 v 220 a 10 10 0 0 0 10 10"></path><g class="terminal ">
<path d="M 558.5 389 h 0.0"></path><path d="M 621.0 389 h 0.0"></path><rect height="22" rx="10" ry="10" width="62.5" x="558.5" y="378"></rect><text x="589.75" y="393">"lit"</text></g><path d="M 621.0 389 a 10 10 0 0 0 10 -10 v -220 a 10 10 0 0 1 10 -10"></path></g><path d="M 651.0 149 a 10 10 0 0 1 10 10 v 249 a 10 10 0 0 0 10 10"></path><path d="M 651.0 30 a 10 10 0 0 1 10 10 v 99 a 10 10 0 0 0 10 10"></path><g>
<path d="M 671.0 149 h 10.0"></path><path d="M 783.5 149 h 10.0"></path><path d="M 681.0 149 h 20"></path><g class="terminal ">
<path d="M 701.0 149 h 0.0"></path><path d="M 763.5 149 h 0.0"></path><rect height="22" rx="10" ry="10" width="62.5" x="701.0" y="138"></rect><text x="732.25" y="153">"rem"</text></g><path d="M 763.5 149 h 20"></path></g><path d="M 793.5 149 h 10"></path></g><path d="M 803.5 149 h 10"></path><g>
<path d="M 813.5 149 h 0.0"></path><path d="M 924.5 149 h 0.0"></path><path d="M 813.5 149 h 20"></path><g class="terminal ">
<path d="M 833.5 149 h 12.75"></path><path d="M 891.75 149 h 12.75"></path><rect height="22" rx="10" ry="10" width="45.5" x="846.25" y="138"></rect><text x="869.0" y="153">' '</text></g><path d="M 904.5 149 h 20"></path><path d="M 813.5 149 a 10 10 0 0 1 10 10 v 10 a 10 10 0 0 0 10 10"></path><g class="terminal altterminal">
<path d="M 833.5 179 h 0.0"></path><path d="M 904.5 179 h 0.0"></path><rect height="22" rx="10" ry="10" width="71.0" x="833.5" y="168"></rect><text x="869.0" y="183">TAGEND</text></g><path d="M 904.5 179 a 10 10 0 0 0 10 -10 v -10 a 10 10 0 0 1 10 -10"></path></g><path d="M 924.5 149 h 10"></path><path d="M 934.5 149 h 10"></path><g>
<path d="M 944.5 149 h 0.0"></path><path d="M 1198.0 149 h 0.0"></path><path d="M 944.5 149 a 10 10 0 0 0 10 -10 v -9 a 10 10 0 0 1 10 -10"></path><g>
<path d="M 964.5 120 h 213.5"></path></g><path d="M 1178.0 120 a 10 10 0 0 1 10 10 v 9 a 10 10 0 0 0 10 10"></path><path d="M 944.5 149 h 20"></path><g>
<path d="M 964.5 149 h 0.0"></path><path d="M 1178.0 149 h 0.0"></path><path d="M 964.5 149 h 10"></path><g>
<path d="M 974.5 149 h 0.0"></path><path d="M 1168.0 149 h 0.0"></path><path d="M 974.5 149 h 20"></path><g>
<path d="M 994.5 149 h 0.0"></path><path d="M 1148.0 149 h 0.0"></path><g class="terminal ">
<path d="M 994.5 149 h 0.0"></path><path d="M 1048.5 149 h 0.0"></path><rect height="22" rx="10" ry="10" width="54.0" x="994.5" y="138"></rect><text x="1021.5" y="153">TEXT</text></g><path d="M 1048.5 149 h 10"></path><path d="M 1058.5 149 h 10"></path><g class="terminal ">
<path d="M 1068.5 149 h 0.0"></path><path d="M 1148.0 149 h 0.0"></path><rect height="22" rx="10" ry="10" width="79.5" x="1068.5" y="138"></rect><text x="1108.25" y="153">TEXTEND</text></g></g><path d="M 1148.0 149 h 20"></path><path d="M 974.5 149 a 10 10 0 0 1 10 10 v 10 a 10 10 0 0 0 10 10"></path><g class="non-terminal ">
<path d="M 994.5 179 h 28.5"></path><path d="M 1119.5 179 h 28.5"></path><rect height="22" width="96.5" x="1023.0" y="168"></rect><text x="1071.25" y="183">CharEmbed</text></g><path d="M 1148.0 179 a 10 10 0 0 0 10 -10 v -10 a 10 10 0 0 1 10 -10"></path><path d="M 974.5 149 a 10 10 0 0 1 10 10 v 40 a 10 10 0 0 0 10 10"></path><g class="non-terminal ">
<path d="M 994.5 209 h 28.5"></path><path d="M 1119.5 209 h 28.5"></path><rect height="22" width="96.5" x="1023.0" y="198"></rect><text x="1071.25" y="213">IntroChar</text></g><path d="M 1148.0 209 a 10 10 0 0 0 10 -10 v -40 a 10 10 0 0 1 10 -10"></path><path d="M 974.5 149 a 10 10 0 0 1 10 10 v 70 a 10 10 0 0 0 10 10"></path><g class="non-terminal ">
<path d="M 994.5 239 h 32.75"></path><path d="M 1115.25 239 h 32.75"></path><rect height="22" width="88.0" x="1027.25" y="228"></rect><text x="1071.25" y="243">Footnote</text></g><path d="M 1148.0 239 a 10 10 0 0 0 10 -10 v -70 a 10 10 0 0 1 10 -10"></path><path d="M 974.5 149 a 10 10 0 0 1 10 10 v 100 a 10 10 0 0 0 10 10"></path><g class="non-terminal ">
<path d="M 994.5 269 h 7.25"></path><path d="M 1140.75 269 h 7.25"></path><rect height="22" width="139.0" x="1001.75" y="258"></rect><text x="1071.25" y="273">CrossReference</text></g><path d="M 1148.0 269 a 10 10 0 0 0 10 -10 v -100 a 10 10 0 0 1 10 -10"></path><path d="M 974.5 149 a 10 10 0 0 1 10 10 v 130 a 10 10 0 0 0 10 10"></path><g class="non-terminal ">
<path d="M 994.5 299 h 41.25"></path><path d="M 1106.75 299 h 41.25"></path><rect height="22" width="71.0" x="1035.75" y="288"></rect><text x="1071.25" y="303">Figure</text></g><path d="M 1148.0 299 a 10 10 0 0 0 10 -10 v -130 a 10 10 0 0 1 10 -10"></path><path d="M 974.5 149 a 10 10 0 0 1 10 10 v 160 a 10 10 0 0 0 10 10"></path><g class="non-terminal ">
<path d="M 994.5 329 h 28.5"></path><path d="M 1119.5 329 h 28.5"></path><rect height="22" width="96.5" x="1023.0" y="318"></rect><text x="1071.25" y="333">Milestone</text></g><path d="M 1148.0 329 a 10 10 0 0 0 10 -10 v -160 a 10 10 0 0 1 10 -10"></path><path d="M 974.5 149 a 10 10 0 0 1 10 10 v 190 a 10 10 0 0 0 10 10"></path><g class="non-terminal ">
<path d="M 994.5 359 h 28.5"></path><path d="M 1119.5 359 h 28.5"></path><rect height="22" width="96.5" x="1023.0" y="348"></rect><text x="1071.25" y="363">Reference</text></g><path d="M 1148.0 359 a 10 10 0 0 0 10 -10 v -190 a 10 10 0 0 1 10 -10"></path><path d="M 974.5 149 a 10 10 0 0 1 10 10 v 220 a 10 10 0 0 0 10 10"></path><g class="non-terminal ">
<path d="M 994.5 389 h 37.0"></path><path d="M 1111.0 389 h 37.0"></path><rect height="22" width="79.5" x="1031.5" y="378"></rect><text x="1071.25" y="393">Sidebar</text></g><path d="M 1148.0 389 a 10 10 0 0 0 10 -10 v -220 a 10 10 0 0 1 10 -10"></path></g><path d="M 1168.0 149 h 10"></path><path d="M 974.5 149 a 10 10 0 0 0 -10 10 v 249 a 10 10 0 0 0 10 10"></path><g>
<path d="M 974.5 418 h 193.5"></path></g><path d="M 1168.0 418 a 10 10 0 0 0 10 -10 v -249 a 10 10 0 0 0 -10 -10"></path></g><path d="M 1178.0 149 h 20"></path></g></g><path d="M 1198.0 149 h 20"></path><path d="M 50.0 149 a 10 10 0 0 1 10 10 v 278 a 10 10 0 0 0 10 10"></path><g class="non-terminal ">
<path d="M 70.0 447 h 532.75"></path><path d="M 665.25 447 h 532.75"></path><rect height="22" width="62.5" x="602.75" y="436"></rect><text x="634.0" y="451">Table</text></g><path d="M 1198.0 447 a 10 10 0 0 0 10 -10 v -278 a 10 10 0 0 1 10 -10"></path><path d="M 50.0 149 a 10 10 0 0 1 10 10 v 308 a 10 10 0 0 0 10 10"></path><g class="non-terminal ">
<path d="M 70.0 477 h 498.75"></path><path d="M 699.25 477 h 498.75"></path><rect height="22" width="130.5" x="568.75" y="466"></rect><text x="634.0" y="481">BookIntroList</text></g><path d="M 1198.0 477 a 10 10 0 0 0 10 -10 v -308 a 10 10 0 0 1 10 -10"></path></g></g><path d="M 1218.0 149 h 10"></path><path d="M 1228.0 149 h 20 m 0 -10 v 20"></path></g></svg>