<svg class="railroad-diagram" height="478" viewBox="0 0 988.5 478" width="988.5" xmlns="http://www.w3.org/2000/svg" xmlns:xlink="http://www.w3.org/1999/xlink">
<g transform="translate(.5 .5)">
<style>/* <![CDATA[ */

    svg.railroad-diagram {
        background-color:hsl(30,20%,95%);
    }
    svg.railroad-diagram path {
        stroke-width: 2;
        stroke: black;
        fill: none;
    }
    svg.railroad-diagram text {
        font-size: 12px;
        text-anchor: middle;
        font-family: DejaVu Sans;
    }
    svg.railroad-diagram text.label {
        text-anchor:start;
    }
    svg.railroad-diagram text.comment {
        font-family: DejaVu Sans;
        font-size: 14px;
    }
    svg.railroad-diagram rect{
        stroke-width: 2;
        stroke:black;
        fill: rgb(210, 255, 210);
    }
    svg.railroad-diagram rect.group-box {
        stroke: gray;
        stroke-dasharray: 10 5;
        fill: none;
    }
    .terminal {
        font-family: DejaVu Sans;
    }

/* ]]> */
</style><g>
<path d="M 20 139 v 20 m 0 -10 h 20"></path></g><path d="M 40 149 h 10"></path><g>
<path d="M 50 149 h 0.0"></path><path d="M 938.5 149 h 0.0"></path><g>
<path d="M 50.0 149 h 0.0"></path><path d="M 938.5 149 h 0.0"></path><path d="M 50.0 149 h 20"></path><g>
<path d="M 70.0 149 h 0.0"></path><path d="M 918.5 149 h 0.0"></path><g class="terminal ">
<path d="M 70.0 149 h 0.0"></path><path d="M 115.5 149 h 0.0"></path><rect height="22" rx="10" ry="10" width="45.5" x="70.0" y="138"></rect><text x="92.75" y="153">'\'</text></g><path d="M 115.5 149 h 10"></path><g>
<path d="M 125.5 149 h 0.0"></path><path d="M 578.5 149 h 0.0"></path><path d="M 125.5 149 a 10 10 0 0 0 10 -10 v -99 a 10 10 0 0 1 10 -10 h 263.5"></path><path d="M 286.5 418 h 272.0 a 10 10 0 0 0 10 -10 v -249 a 10 10 0 0 1 10 -10"></path><path d="M 125.5 149 h 10"></path><g>
<path d="M 135.5 149 h 10.0"></path><path d="M 256.5 149 h 10.0"></path><path d="M 145.5 149 a 10 10 0 0 0 10 -10 v -10 a 10 10 0 0 1 10 -10"></path><g class="terminal ">
<path d="M 165.5 119 h 0.0"></path><path d="M 236.5 119 h 0.0"></path><rect height="22" rx="10" ry="10" width="71.0" x="165.5" y="108"></rect><text x="201.0" y="123">"imt2"</text></g><path d="M 236.5 119 a 10 10 0 0 1 10 10 v 10 a 10 10 0 0 0 10 10"></path><path d="M 145.5 149 a 10 10 0 0 0 10 -10 v -40 a 10 10 0 0 1 10 -10"></path><g class="terminal ">
<path d="M 165.5 89 h 0.0"></path><path d="M 236.5 89 h 0.0"></path><rect height="22" rx="10" ry="10" width="71.0" x="165.5" y="78"></rect><text x="201.0" y="93">"imt1"</text></g><path d="M 236.5 89 a 10 10 0 0 1 10 10 v 40 a 10 10 0 0 0 10 10"></path><path d="M 145.5 149 a 10 10 0 0 0 10 -10 v -70 a 10 10 0 0 1 10 -10"></path><g class="terminal ">
<path d="M 165.5 59 h 4.25"></path><path d="M 232.25 59 h 4.25"></path><rect height="22" rx="10" ry="10" width="62.5" x="169.75" y="48"></rect><text x="201.0" y="63">"imt"</text></g><path d="M 236.5 59 a 10 10 0 0 1 10 10 v 70 a 10 10 0 0 0 10 10"></path><path d="M 145.5 149 h 20"></path><g class="terminal ">
<path d="M 165.5 149 h 0.0"></path><path d="M 236.5 149 h 0.0"></path><rect height="22" rx="10" ry="10" width="71.0" x="165.5" y="138"></rect><text x="201.0" y="153">"imt3"</text></g><path d="M 236.5 149 h 20"></path><path d="M 145.5 149 a 10 10 0 0 1 10 10 v 10 a 10 10 0 0 0 10 10"></path><g class="terminal ">
<path d="M 165.5 179 h 0.0"></path><path d="M 236.5 179 h 0.0"></path><rect height="22" rx="10" ry="10" width="71.0" x="165.5" y="168"></rect><text x="201.0" y="183">"imt4"</text></g><path d="M 236.5 179 a 10 10 0 0 0 10 -10 v -10 a 10 10 0 0 1 10 -10"></path><path d="M 145.5 149 a 10 10 0 0 1 10 10 v 40 a 10 10 0 0 0 10 10"></path><g class="terminal ">
<path d="M 165.5 209 h 8.5"></path><path d="M 228.0 209 h 8.5"></path><rect height="22" rx="10" ry="10" width="54.0" x="174.0" y="198"></rect><text x="201.0" y="213">"ib"</text></g><path d="M 236.5 209 a 10 10 0 0 0 10 -10 v -40 a 10 10 0 0 1 10 -10"></path><path d="M 145.5 149 a 10 10 0 0 1 10 10 v 70 a 10 10 0 0 0 10 10"></path><g class="terminal ">
<path d="M 165.5 239 h 8.5"></path><path d="M 228.0 239 h 8.5"></path><rect height="22" rx="10" ry="10" width="54.0" x="174.0" y="228"></rect><text x="201.0" y="243">"ie"</text></g><path d="M 236.5 239 a 10 10 0 0 0 10 -10 v -70 a 10 10 0 0 1 10 -10"></path><path d="M 145.5 149 a 10 10 0 0 1 10 10 v 100 a 10 10 0 0 0 10 10"></path><g class="terminal ">
<path d="M 165.5 269 h 4.25"></path><path d="M 232.25 269 h 4.25"></path><rect height="22" rx="10" ry="10" width="62.5" x="169.75" y="258"></rect><text x="201.0" y="273">"ili"</text></g><path d="M 236.5 269 a 10 10 0 0 0 10 -10 v -100 a 10 10 0 0 1 10 -10"></path><path d="M 145.5 149 a 10 10 0 0 1 10 10 v 130 a 10 10 0 0 0 10 10"></path><g class="terminal ">
<path d="M 165.5 299 h 0.0"></path><path d="M 236.5 299 h 0.0"></path><rect height="22" rx="10" ry="10" width="71.0" x="165.5" y="288"></rect><text x="201.0" y="303">"ili1"</text></g><path d="M 236.5 299 a 10 10 0 0 0 10 -10 v -130 a 10 10 0 0 1 10 -10"></path><path d="M 145.5 149 a 10 10 0 0 1 10 10 v 160 a 10 10 0 0 0 10 10"></path><g class="terminal ">
<path d="M 165.5 329 h 0.0"></path><path d="M 236.5 329 h 0.0"></path><rect height="22" rx="10" ry="10" width="71.0" x="165.5" y="318"></rect><text x="201.0" y="333">"ili2"</text></g><path d="M 236.5 329 a 10 10 0 0 0 10 -10 v -160 a 10 10 0 0 1 10 -10"></path><path d="M 145.5 149 a 10 10 0 0 1 10 10 v 190 a 10 10 0 0 0 10 10"></path><g class="terminal ">
<path d="M 165.5 359 h 8.5"></path><path d="M 228.0 359 h 8.5"></path><rect height="22" rx="10" ry="10" width="54.0" x="174.0" y="348"></rect><text x="201.0" y="363">"im"</text></g><path d="M 236.5 359 a 10 10 0 0 0 10 -10 v -190 a 10 10 0 0 1 10 -10"></path><path d="M 145.5 149 a 10 10 0 0 1 10 10 v 220 a 10 10 0 0 0 10 10"></path><g class="terminal ">
<path d="M 165.5 389 h 4.25"></path><path d="M 232.25 389 h 4.25"></path><rect height="22" rx="10" ry="10" width="62.5" x="169.75" y="378"></rect><text x="201.0" y="393">"imi"</text></g><path d="M 236.5 389 a 10 10 0 0 0 10 -10 v -220 a 10 10 0 0 1 10 -10"></path></g><path d="M 266.5 149 a 10 10 0 0 1 10 10 v 249 a 10 10 0 0 0 10 10"></path><path d="M 266.5 30 a 10 10 0 0 1 10 10 v 99 a 10 10 0 0 0 10 10"></path><g>
<path d="M 286.5 149 h 10.0"></path><path d="M 399.0 149 h 10.0"></path><path d="M 296.5 149 a 10 10 0 0 0 10 -10 v -10 a 10 10 0 0 1 10 -10"></path><g class="terminal ">
<path d="M 316.5 119 h 0.0"></path><path d="M 379.0 119 h 0.0"></path><rect height="22" rx="10" ry="10" width="62.5" x="316.5" y="108"></rect><text x="347.75" y="123">"io1"</text></g><path d="M 379.0 119 a 10 10 0 0 1 10 10 v 10 a 10 10 0 0 0 10 10"></path><path d="M 296.5 149 a 10 10 0 0 0 10 -10 v -40 a 10 10 0 0 1 10 -10"></path><g class="terminal ">
<path d="M 316.5 89 h 4.25"></path><path d="M 374.75 89 h 4.25"></path><rect height="22" rx="10" ry="10" width="54.0" x="320.75" y="78"></rect><text x="347.75" y="93">"io"</text></g><path d="M 379.0 89 a 10 10 0 0 1 10 10 v 40 a 10 10 0 0 0 10 10"></path><path d="M 296.5 149 a 10 10 0 0 0 10 -10 v -70 a 10 10 0 0 1 10 -10"></path><g class="terminal ">
<path d="M 316.5 59 h 0.0"></path><path d="M 379.0 59 h 0.0"></path><rect height="22" rx="10" ry="10" width="62.5" x="316.5" y="48"></rect><text x="347.75" y="63">"imq"</text></g><path d="M 379.0 59 a 10 10 0 0 1 10 10 v 70 a 10 10 0 0 0 10 10"></path><path d="M 296.5 149 h 20"></path><g class="terminal ">
<path d="M 316.5 149 h 0.0"></path><path d="M 379.0 149 h 0.0"></path><rect height="22" rx="10" ry="10" width="62.5" x="316.5" y="138"></rect><text x="347.75" y="153">"io2"</text></g><path d="M 379.0 149 h 20"></path><path d="M 296.5 149 a 10 10 0 0 1 10 10 v 10 a 10 10 0 0 0 10 10"></path><g class="terminal ">
<path d="M 316.5 179 h 0.0"></path><path d="M 379.0 179 h 0.0"></path><rect height="22" rx="10" ry="10" width="62.5" x="316.5" y="168"></rect><text x="347.75" y="183">"io3"</text></g><path d="M 379.0 179 a 10 10 0 0 0 10 -10 v -10 a 10 10 0 0 1 10 -10"></path><path d="M 296.5 149 a 10 10 0 0 1 10 10 v 40 a 10 10 0 0 0 10 10"></path><g class="terminal ">
<path d="M 316.5 209 h 0.0"></path><path d="M 379.0 209 h 0.0"></path><rect height="22" rx="10" ry="10" width="62.5" x="316.5" y="198"></rect><text x="347.75" y="213">"io4"</text></g><path d="M 379.0 209 a 10 10 0 0 0 10 -10 v -40 a 10 10 0 0 1 10 -10"></path><path d="M 296.5 149 a 10 10 0 0 1 10 10 v 70 a 10 10 0 0 0 10 10"></path><g class="terminal ">
<path d="M 316.5 239 h 0.0"></path><path d="M 379.0 239 h 0.0"></path><rect height="22" rx="10" ry="10" width="62.5" x="316.5" y="228"></rect><text x="347.75" y="243">"iot"</text></g><path d="M 379.0 239 a 10 10 0 0 0 10 -10 v -70 a 10 10 0 0 1 10 -10"></path><path d="M 296.5 149 a 10 10 0 0 1 10 10 v 100 a 10 10 0 0 0 10 10"></path><g class="terminal ">
<path d="M 316.5 269 h 4.25"></path><path d="M 374.75 269 h 4.25"></path><rect height="22" rx="10" ry="10" width="54.0" x="320.75" y="258"></rect><text x="347.75" y="273">"ip"</text></g><path d="M 379.0 269 a 10 10 0 0 0 10 -10 v -100 a 10 10 0 0 1 10 -10"></path><path d="M 296.5 149 a 10 10 0 0 1 10 10 v 130 a 10 10 0 0 0 10 10"></path><g class="terminal ">
<path d="M 316.5 299 h 0.0"></path><path d="M 379.0 299 h 0.0"></path><rect height="22" rx="10" ry="10" width="62.5" x="316.5" y="288"></rect><text x="347.75" y="303">"ipi"</text></g><path d="M 379.0 299 a 10 10 0 0 0 10 -10 v -130 a 10 10 0 0 1 10 -10"></path><path d="M 296.5 149 a 10 10 0 0 1 10 10 v 160 a 10 10 0 0 0 10 10"></path><g class="terminal ">
<path d="M 316.5 329 h 0.0"></path><path d="M 379.0 329 h 0.0"></path><rect height="22" rx="10" ry="10" width="62.5" x="316.5" y="318"></rect><text x="347.75" y="333">"ipq"</text></g><path d="M 379.0 329 a 10 10 0 0 0 10 -10 v -160 a 10 10 0 0 1 10 -10"></path><path d="M 296.5 149 a 10 10 0 0 1 10 10 v 190 a 10 10 0 0 0 10 10"></path><g class="terminal ">
<path d="M 316.5 359 h 0.0"></path><path d="M 379.0 359 h 0.0"></path><rect height="22" rx="10" ry="10" width="62.5" x="316.5" y="348"></rect><text x="347.75" y="363">"ipr"</text></g><path d="M 379.0 359 a 10 10 0 0 0 10 -10 v -190 a 10 10 0 0 1 10 -10"></path><path d="M 296.5 149 a 10 10 0 0 1 10 10 v 220 a 10 10 0 0 0 10 10"></path><g class="terminal ">
<path d="M 316.5 389 h 4.25"></path><path d="M 374.75 389 h 4.25"></path><rect height="22" rx="10" ry="10" width="54.0" x="320.75" y="378"></rect><text x="347.75" y="393">"iq"</text></g><path d="M 379.0 389 a 10 10 0 0 0 10 -10 v -220 a 10 10 0 0 1 10 -10"></path></g><path d="M 409.0 149 a 10 10 0 0 1 10 10 v 249 a 10 10 0 0 0 10 10"></path><path d="M 409.0 30 a 10 10 0 0 1 10 10 v 99 a 10 10 0 0 0 10 10"></path><g>
<path d="M 429.0 149 h 10.0"></path><path d="M 558.5 149 h 10.0"></path><path d="M 439.0 149 a 10 10 0 0 0 10 -10 v -10 a 10 10 0 0 1 10 -10"></path><g class="terminal ">
<path d="M 459.0 119 h 8.5"></path><path d="M 530.0 119 h 8.5"></path><rect height="22" rx="10" ry="10" width="62.5" x="467.5" y="108"></rect><text x="498.75" y="123">"iq3"</text></g><path d="M 538.5 119 a 10 10 0 0 1 10 10 v 10 a 10 10 0 0 0 10 10"></path><path d="M 439.0 149 a 10 10 0 0 0 10 -10 v -40 a 10 10 0 0 1 10 -10"></path><g class="terminal ">
<path d="M 459.0 89 h 8.5"></path><path d="M 530.0 89 h 8.5"></path><rect height="22" rx="10" ry="10" width="62.5" x="467.5" y="78"></rect><text x="498.75" y="93">"iq2"</text></g><path d="M 538.5 89 a 10 10 0 0 1 10 10 v 40 a 10 10 0 0 0 10 10"></path><path d="M 439.0 149 a 10 10 0 0 0 10 -10 v -70 a 10 10 0 0 1 10 -10"></path><g class="terminal ">
<path d="M 459.0 59 h 8.5"></path><path d="M 530.0 59 h 8.5"></path><rect height="22" rx="10" ry="10" width="62.5" x="467.5" y="48"></rect><text x="498.75" y="63">"iq1"</text></g><path d="M 538.5 59 a 10 10 0 0 1 10 10 v 70 a 10 10 0 0 0 10 10"></path><path d="M 439.0 149 h 20"></path><g class="terminal ">
<path d="M 459.0 149 h 12.75"></path><path d="M 525.75 149 h 12.75"></path><rect height="22" rx="10" ry="10" width="54.0" x="471.75" y="138"></rect><text x="498.75" y="153">"is"</text></g><path d="M 538.5 149 h 20"></path><path d="M 439.0 149 a 10 10 0 0 1 10 10 v 10 a 10 10 0 0 0 10 10"></path><g class="terminal ">
<path d="M 459.0 179 h 8.5"></path><path d="M 530.0 179 h 8.5"></path><rect height="22" rx="10" ry="10" width="62.5" x="467.5" y="168"></rect><text x="498.75" y="183">"is1"</text></g><path d="M 538.5 179 a 10 10 0 0 0 10 -10 v -10 a 10 10 0 0 1 10 -10"></path><path d="M 439.0 149 a 10 10 0 0 1 10 10 v 40 a 10 10 0 0 0 10 10"></path><g class="terminal ">
<path d="M 459.0 209 h 8.5"></path><path d="M 530.0 209 h 8.5"></path><rect height="22" rx="10" ry="10" width="62.5" x="467.5" y="198"></rect><text x="498.75" y="213">"is2"</text></g><path d="M 538.5 209 a 10 10 0 0 0 10 -10 v -40 a 10 10 0 0 1 10 -10"></path><path d="M 439.0 149 a 10 10 0 0 1 10 10 v 70 a 10 10 0 0 0 10 10"></path><g class="terminal ">
<path d="M 459.0 239 h 4.25"></path><path d="M 534.25 239 h 4.25"></path><rect height="22" rx="10" ry="10" width="71.0" x="463.25" y="228"></rect><text x="498.75" y="243">"imte"</text></g><path d="M 538.5 239 a 10 10 0 0 0 10 -10 v -70 a 10 10 0 0 1 10 -10"></path><path d="M 439.0 149 a 10 10 0 0 1 10 10 v 100 a 10 10 0 0 0 10 10"></path><g class="terminal ">
<path d="M 459.0 269 h 0.0"></path><path d="M 538.5 269 h 0.0"></path><rect height="22" rx="10" ry="10" width="79.5" x="459.0" y="258"></rect><text x="498.75" y="273">"imte1"</text></g><path d="M 538.5 269 a 10 10 0 0 0 10 -10 v -100 a 10 10 0 0 1 10 -10"></path><path d="M 439.0 149 a 10 10 0 0 1 10 10 v 130 a 10 10 0 0 0 10 10"></path><g class="terminal ">
<path d="M 459.0 299 h 0.0"></path><path d="M 538.5 299 h 0.0"></path><rect height="22" rx="10" ry="10" width="79.5" x="459.0" y="288"></rect><text x="498.75" y="303">"imte2"</text></g><path d="M 538.5 299 a 10 10 0 0 0 10 -10 v -130 a 10 10 0 0 1 10 -10"></path><path d="M 439.0 149 a 10 10 0 0 1 10 10 v 160 a 10 10 0 0 0 10 10"></path><g class="terminal ">
<path d="M 459.0 329 h 8.5"></path><path d="M 530.0 329 h 8.5"></path><rect height="22" rx="10" ry="10" width="62.5" x="467.5" y="318"></rect><text x="498.75" y="333">"iex"</text></g><path d="M 538.5 329 a 10 10 0 0 0 10 -10 v -160 a 10 10 0 0 1 10 -10"></path><path d="M 439.0 149 a 10 10 0 0 1 10 10 v 190 a 10 10 0 0 0 10 10"></path><g class="terminal ">
<path d="M 459.0 359 h 8.5"></path><path d="M 530.0 359 h 8.5"></path><rect height="22" rx="10" ry="10" width="62.5" x="467.5" y="348"></rect><text x="498.75" y="363">"rem"</text></g><path d="M 538.5 359 a 10 10 0 0 0 10 -10 v -190 a 10 10 0 0 1 10 -10"></path></g><path d="M 568.5 149 h 10"></path></g><path d="M 578.5 149 h 10"></path><g class="terminal ">
<path d="M 588.5 149 h 0.0"></path><path d="M 659.5 149 h 0.0"></path><rect height="22" rx="10" ry="10" width="71.0" x="588.5" y="138"></rect><text x="624.0" y="153">TAGEND</text></g><path d="M 659.5 149 h 10"></path><path d="M 669.5 149 h 10"></path><g>
<path d="M 679.5 149 h 0.0"></path><path d="M 918.5 149 h 0.0"></path><path d="M 679.5 149 a 10 10 0 0 0 10 -10 v -9 a 10 10 0 0 1 10 -10"></path><g>
<path d="M 699.5 120 h 199.0"></path></g><path d="M 898.5 120 a 10 10 0 0 1 10 10 v 9 a 10 10 0 0 0 10 10"></path><path d="M 679.5 149 h 20"></path><g>
<path d="M 699.5 149 h 0.0"></path><path d="M 898.5 149 h 0.0"></path><path d="M 699.5 149 h 10"></path><g>
<path d="M 709.5 149 h 0.0"></path><path d="M 888.5 149 h 0.0"></path><path d="M 709.5 149 h 20"></path><g class="non-terminal ">
<path d="M 729.5 149 h 21.25"></path><path d="M 847.25 149 h 21.25"></path><rect height="22" width="96.5" x="750.75" y="138"></rect><text x="799.0" y="153">Reference</text></g><path d="M 868.5 149 h 20"></path><path d="M 709.5 149 a 10 10 0 0 1 10 10 v 10 a 10 10 0 0 0 10 10"></path><g class="non-terminal ">
<path d="M 729.5 179 h 25.5"></path><path d="M 843.0 179 h 25.5"></path><rect height="22" width="88.0" x="755.0" y="168"></rect><text x="799.0" y="183">Footnote</text></g><path d="M 868.5 179 a 10 10 0 0 0 10 -10 v -10 a 10 10 0 0 1 10 -10"></path><path d="M 709.5 149 a 10 10 0 0 1 10 10 v 40 a 10 10 0 0 0 10 10"></path><g class="non-terminal ">
<path d="M 729.5 209 h 0.0"></path><path d="M 868.5 209 h 0.0"></path><rect height="22" width="139.0" x="729.5" y="198"></rect><text x="799.0" y="213">CrossReference</text></g><path d="M 868.5 209 a 10 10 0 0 0 10 -10 v -40 a 10 10 0 0 1 10 -10"></path><path d="M 709.5 149 a 10 10 0 0 1 10 10 v 70 a 10 10 0 0 0 10 10"></path><g class="non-terminal ">
<path d="M 729.5 239 h 42.5"></path><path d="M 826.0 239 h 42.5"></path><rect height="22" width="54.0" x="772.0" y="228"></rect><text x="799.0" y="243">Char</text></g><path d="M 868.5 239 a 10 10 0 0 0 10 -10 v -70 a 10 10 0 0 1 10 -10"></path><path d="M 709.5 149 a 10 10 0 0 1 10 10 v 100 a 10 10 0 0 0 10 10"></path><g class="non-terminal ">
<path d="M 729.5 269 h 21.25"></path><path d="M 847.25 269 h 21.25"></path><rect height="22" width="96.5" x="750.75" y="258"></rect><text x="799.0" y="273">IntroChar</text></g><path d="M 868.5 269 a 10 10 0 0 0 10 -10 v -100 a 10 10 0 0 1 10 -10"></path><path d="M 709.5 149 a 10 10 0 0 1 10 10 v 130 a 10 10 0 0 0 10 10"></path><g class="non-terminal ">
<path d="M 729.5 299 h 21.25"></path><path d="M 847.25 299 h 21.25"></path><rect height="22" width="96.5" x="750.75" y="288"></rect><text x="799.0" y="303">Milestone</text></g><path d="M 868.5 299 a 10 10 0 0 0 10 -10 v -130 a 10 10 0 0 1 10 -10"></path></g><path d="M 888.5 149 h 10"></path><path d="M 709.5 149 a 10 10 0 0 0 -10 10 v 159 a 10 10 0 0 0 10 10"></path><g>
<path d="M 709.5 328 h 179.0"></path></g><path d="M 888.5 328 a 10 10 0 0 0 10 -10 v -159 a 10 10 0 0 0 -10 -10"></path></g><path d="M 898.5 149 h 20"></path></g></g><path d="M 918.5 149 h 20"></path><path d="M 50.0 149 a 10 10 0 0 1 10 10 v 268 a 10 10 0 0 0 10 10"></path><g class="non-terminal ">
<path d="M 70.0 437 h 393.0"></path><path d="M 525.5 437 h 393.0"></path><rect height="22" width="62.5" x="463.0" y="426"></rect><text x="494.25" y="441">Table</text></g><path d="M 918.5 437 a 10 10 0 0 0 10 -10 v -268 a 10 10 0 0 1 10 -10"></path></g></g><path d="M 938.5 149 h 10"></path><path d="M 948.5 149 h 20 m 0 -10 v 20"></path></g></svg>