<svg class="railroad-diagram" height="381" viewBox="0 0 644.0 381" width="644.0" xmlns="http://www.w3.org/2000/svg" xmlns:xlink="http://www.w3.org/1999/xlink">
<g transform="translate(.5 .5)">
<style>/* <![CDATA[ */
    svg.railroad-diagram {
        background-color:hsl(30,20%,95%);
    }
    svg.railroad-diagram path {
        stroke-width: 2;
        stroke: black;
        fill: none;
    }
    svg.railroad-diagram text {
        font-size: 12px;
        text-anchor: middle;
        font-family: DejaVu Sans;
    }
    svg.railroad-diagram text.label {
        text-anchor:start;
    }
    svg.railroad-diagram text.comment {
        font-family: DejaVu Sans;
        font-size: 14px;
    }
    svg.railroad-diagram rect{
        stroke-width: 2;
        stroke:black;
        fill: rgb(210, 210, 255);
    }
    svg.railroad-diagram rect.group-box {
        stroke: gray;
        stroke-dasharray: 10 5;
        fill: none;
    }
    .terminal {
        font-family: DejaVu Sans;
    }

/* ]]> */
</style><g>
<path d="M 20 84 v 20 m 0 -10 h 20"></path></g><path d="M 40 94 h 10"></path><g>
<path d="M 50 94 h 0.0"></path><path d="M 594.0 94 h 0.0"></path><rect class="group-box" height="325" rx="10" ry="10" width="544.0" x="50.0" y="36"></rect><g>
<path d="M 50.0 94 h 0.0"></path><path d="M 594.0 94 h 0.0"></path><path d="M 50.0 94 h 20"></path><g>
<path d="M 70.0 94 h 0.0"></path><path d="M 574.0 94 h 0.0"></path><g class="terminal ">
<path d="M 70.0 94 h 0.0"></path><path d="M 141.0 94 h 0.0"></path><rect height="22" rx="10" ry="10" width="71.0" x="70.0" y="83"></rect><text x="105.5" y="98">&#60;para></text></g><path d="M 141.0 94 h 10"></path><g>
<path d="M 151.0 94 h 0.0"></path><path d="M 574.0 94 h 0.0"></path><path d="M 151.0 94 a 10 10 0 0 0 10 -10 v -19 a 10 10 0 0 1 10 -10"></path><g>
<path d="M 171.0 55 h 0.0"></path><path d="M 554.0 55 h 0.0"></path><g class="terminal ">
<path d="M 171.0 55 h 0.0"></path><path d="M 242.0 55 h 0.0"></path><rect height="22" rx="10" ry="10" width="71.0" x="171.0" y="44"></rect><text x="206.5" y="59">@style</text></g><path d="M 242.0 55 h 10"></path><path d="M 252.0 55 h 10"></path><g class="non-terminal ">
<path d="M 262.0 55 h 0.0"></path><path d="M 554.0 55 h 0.0"></path><rect height="22" width="292.0" x="262.0" y="44"></rect><text x="408.0" y="59">BookIntroduction.para.style.enum</text></g></g><path d="M 151.0 94 h 20"></path><g>
<path d="M 171.0 94 h 72.0"></path><path d="M 482.0 94 h 72.0"></path><path d="M 243.0 94 a 10 10 0 0 0 10 -10 v 0 a 10 10 0 0 1 10 -10"></path><g>
<path d="M 263.0 74 h 199.0"></path></g><path d="M 462.0 74 a 10 10 0 0 1 10 10 v 0 a 10 10 0 0 0 10 10"></path><path d="M 243.0 94 h 20"></path><g>
<path d="M 263.0 94 h 0.0"></path><path d="M 462.0 94 h 0.0"></path><path d="M 263.0 94 h 10"></path><g>
<path d="M 273.0 94 h 0.0"></path><path d="M 452.0 94 h 0.0"></path><path d="M 273.0 94 h 20"></path><g class="non-terminal ">
<path d="M 293.0 94 h 21.25"></path><path d="M 410.75 94 h 21.25"></path><rect height="22" width="96.5" x="314.25" y="83"></rect><text x="362.5" y="98">Reference</text></g><path d="M 432.0 94 h 20"></path><path d="M 273.0 94 a 10 10 0 0 1 10 10 v 10 a 10 10 0 0 0 10 10"></path><g class="non-terminal ">
<path d="M 293.0 124 h 25.5"></path><path d="M 406.5 124 h 25.5"></path><rect height="22" width="88.0" x="318.5" y="113"></rect><text x="362.5" y="128">Footnote</text></g><path d="M 432.0 124 a 10 10 0 0 0 10 -10 v -10 a 10 10 0 0 1 10 -10"></path><path d="M 273.0 94 a 10 10 0 0 1 10 10 v 40 a 10 10 0 0 0 10 10"></path><g class="non-terminal ">
<path d="M 293.0 154 h 0.0"></path><path d="M 432.0 154 h 0.0"></path><rect height="22" width="139.0" x="293.0" y="143"></rect><text x="362.5" y="158">CrossReference</text></g><path d="M 432.0 154 a 10 10 0 0 0 10 -10 v -40 a 10 10 0 0 1 10 -10"></path><path d="M 273.0 94 a 10 10 0 0 1 10 10 v 70 a 10 10 0 0 0 10 10"></path><g class="non-terminal ">
<path d="M 293.0 184 h 42.5"></path><path d="M 389.5 184 h 42.5"></path><rect height="22" width="54.0" x="335.5" y="173"></rect><text x="362.5" y="188">Char</text></g><path d="M 432.0 184 a 10 10 0 0 0 10 -10 v -70 a 10 10 0 0 1 10 -10"></path><path d="M 273.0 94 a 10 10 0 0 1 10 10 v 100 a 10 10 0 0 0 10 10"></path><g class="non-terminal ">
<path d="M 293.0 214 h 21.25"></path><path d="M 410.75 214 h 21.25"></path><rect height="22" width="96.5" x="314.25" y="203"></rect><text x="362.5" y="218">IntroChar</text></g><path d="M 432.0 214 a 10 10 0 0 0 10 -10 v -100 a 10 10 0 0 1 10 -10"></path><path d="M 273.0 94 a 10 10 0 0 1 10 10 v 130 a 10 10 0 0 0 10 10"></path><g class="non-terminal ">
<path d="M 293.0 244 h 21.25"></path><path d="M 410.75 244 h 21.25"></path><rect height="22" width="96.5" x="314.25" y="233"></rect><text x="362.5" y="248">Milestone</text></g><path d="M 432.0 244 a 10 10 0 0 0 10 -10 v -130 a 10 10 0 0 1 10 -10"></path><path d="M 273.0 94 a 10 10 0 0 1 10 10 v 160 a 10 10 0 0 0 10 10"></path><g class="non-terminal ">
<path d="M 293.0 274 h 34.0"></path><path d="M 398.0 274 h 34.0"></path><rect height="22" width="71.0" x="327.0" y="263"></rect><text x="362.5" y="278">Figure</text></g><path d="M 432.0 274 a 10 10 0 0 0 10 -10 v -160 a 10 10 0 0 1 10 -10"></path><path d="M 273.0 94 a 10 10 0 0 1 10 10 v 190 a 10 10 0 0 0 10 10"></path><g class="terminal ">
<path d="M 293.0 304 h 42.5"></path><path d="M 389.5 304 h 42.5"></path><rect height="22" rx="10" ry="10" width="54.0" x="335.5" y="293"></rect><text x="362.5" y="308">text</text></g><path d="M 432.0 304 a 10 10 0 0 0 10 -10 v -190 a 10 10 0 0 1 10 -10"></path></g><path d="M 452.0 94 h 10"></path><path d="M 273.0 94 a 10 10 0 0 0 -10 10 v 209 a 10 10 0 0 0 10 10"></path><g>
<path d="M 273.0 323 h 179.0"></path></g><path d="M 452.0 323 a 10 10 0 0 0 10 -10 v -209 a 10 10 0 0 0 -10 -10"></path></g><path d="M 462.0 94 h 20"></path></g><path d="M 554.0 94 h 20"></path></g></g><path d="M 574.0 94 h 20"></path><path d="M 50.0 94 a 10 10 0 0 1 10 10 v 228 a 10 10 0 0 0 10 10"></path><g class="non-terminal ">
<path d="M 70.0 342 h 220.75"></path><path d="M 353.25 342 h 220.75"></path><rect height="22" width="62.5" x="290.75" y="331"></rect><text x="322.0" y="346">Table</text></g><path d="M 574.0 342 a 10 10 0 0 0 10 -10 v -228 a 10 10 0 0 1 10 -10"></path></g><g class="non-terminal ">
<path d="M 50.0 28 h 0.0"></path><path d="M 172.0 28 h 0.0"></path><text class="comment" x="111.0" y="33">BookIntroduction</text></g></g><path d="M 594.0 94 h 10"></path><path d="M 604.0 94 h 20 m 0 -10 v 20"></path></g></svg>