<svg class="railroad-diagram" height="639" viewBox="0 0 1015.5 639" width="1015.5" xmlns="http://www.w3.org/2000/svg" xmlns:xlink="http://www.w3.org/1999/xlink">
<g transform="translate(.5 .5)">
<style>/* <![CDATA[ */
    svg.railroad-diagram {
        background-color:hsl(30,20%,95%);
    }
    svg.railroad-diagram path {
        stroke-width: 2;
        stroke: black;
        fill: none;
    }
    svg.railroad-diagram text {
        font-size: 12px;
        text-anchor: middle;
        font-family: DejaVu Sans;
    }
    svg.railroad-diagram text.label {
        text-anchor:start;
    }
    svg.railroad-diagram text.comment {
        font-family: DejaVu Sans;
        font-size: 14px;
    }
    svg.railroad-diagram rect{
        stroke-width: 2;
        stroke:black;
        fill: rgb(210, 210, 255);
    }
    svg.railroad-diagram rect.group-box {
        stroke: gray;
        stroke-dasharray: 10 5;
        fill: none;
    }
    .terminal {
        font-family: DejaVu Sans;
    }

/* ]]> */
</style><g>
<path d="M 20 342 v 20 m 0 -10 h 20"></path></g><path d="M 40 352 h 10"></path><g>
<path d="M 50 352 h 0.0"></path><path d="M 965.5 352 h 0.0"></path><rect class="group-box" height="583" rx="10" ry="10" width="915.5" x="50.0" y="36"></rect><g>
<path d="M 50.0 352 h 0.0"></path><path d="M 965.5 352 h 0.0"></path><path d="M 50.0 352 h 20"></path><g>
<path d="M 70.0 352 h 0.0"></path><path d="M 945.5 352 h 0.0"></path><g class="terminal ">
<path d="M 70.0 352 h 0.0"></path><path d="M 141.0 352 h 0.0"></path><rect height="22" rx="10" ry="10" width="71.0" x="70.0" y="341"></rect><text x="105.5" y="356">&#60;para></text></g><path d="M 141.0 352 h 10"></path><g>
<path d="M 151.0 352 h 0.0"></path><path d="M 945.5 352 h 0.0"></path><path d="M 151.0 352 a 10 10 0 0 0 10 -10 v -155 a 10 10 0 0 1 10 -10"></path><g>
<path d="M 171.0 177 h 0.0"></path><path d="M 925.5 177 h 0.0"></path><g class="terminal ">
<path d="M 171.0 177 h 0.0"></path><path d="M 242.0 177 h 0.0"></path><rect height="22" rx="10" ry="10" width="71.0" x="171.0" y="166"></rect><text x="206.5" y="181">@style</text></g><path d="M 242.0 177 h 10"></path><path d="M 252.0 177 h 10"></path><g>
<path d="M 262.0 177 h 0.0"></path><path d="M 925.5 177 h 0.0"></path><rect class="group-box" height="264" rx="10" ry="10" width="663.5" x="262.0" y="60"></rect><g>
<path d="M 262.0 177 h 0.0"></path><path d="M 925.5 177 h 0.0"></path><path d="M 262.0 177 a 10 10 0 0 0 10 -10 v -89 a 10 10 0 0 1 10 -10 h 494.0"></path><path d="M 262.0 177 h 10"></path><g>
<path d="M 272.0 177 h 0.0"></path><path d="M 272.0 177 a 10 10 0 0 0 10 -10 v -10 a 10 10 0 0 1 10 -10"></path><g class="terminal ">
<path d="M 292.0 147 h 0.0"></path><path d="M 363.0 147 h 0.0"></path><rect height="22" rx="10" ry="10" width="71.0" x="292.0" y="136"></rect><text x="327.5" y="151">"imt2"</text></g><path d="M 272.0 177 a 10 10 0 0 0 10 -10 v -40 a 10 10 0 0 1 10 -10"></path><g class="terminal ">
<path d="M 292.0 117 h 0.0"></path><path d="M 363.0 117 h 0.0"></path><rect height="22" rx="10" ry="10" width="71.0" x="292.0" y="106"></rect><text x="327.5" y="121">"imt1"</text></g><path d="M 272.0 177 a 10 10 0 0 0 10 -10 v -70 a 10 10 0 0 1 10 -10"></path><g class="terminal ">
<path d="M 292.0 87 h 0.0"></path><path d="M 354.5 87 h 0.0"></path><rect height="22" rx="10" ry="10" width="62.5" x="292.0" y="76"></rect><text x="323.25" y="91">"imt"</text></g><path d="M 272.0 177 h 20"></path><g class="terminal ">
<path d="M 292.0 177 h 0.0"></path><path d="M 363.0 177 h 0.0"></path><rect height="22" rx="10" ry="10" width="71.0" x="292.0" y="166"></rect><text x="327.5" y="181">"imt3"</text></g><path d="M 272.0 177 a 10 10 0 0 1 10 10 v 10 a 10 10 0 0 0 10 10"></path><g class="terminal ">
<path d="M 292.0 207 h 0.0"></path><path d="M 363.0 207 h 0.0"></path><rect height="22" rx="10" ry="10" width="71.0" x="292.0" y="196"></rect><text x="327.5" y="211">"imt4"</text></g><path d="M 272.0 177 a 10 10 0 0 1 10 10 v 40 a 10 10 0 0 0 10 10"></path><g class="terminal ">
<path d="M 292.0 237 h 0.0"></path><path d="M 346.0 237 h 0.0"></path><rect height="22" rx="10" ry="10" width="54.0" x="292.0" y="226"></rect><text x="319.0" y="241">"ib"</text></g><path d="M 272.0 177 a 10 10 0 0 1 10 10 v 70 a 10 10 0 0 0 10 10"></path><g class="terminal ">
<path d="M 292.0 267 h 0.0"></path><path d="M 346.0 267 h 0.0"></path><rect height="22" rx="10" ry="10" width="54.0" x="292.0" y="256"></rect><text x="319.0" y="271">"ie"</text></g><path d="M 272.0 177 a 10 10 0 0 1 10 10 v 100 a 10 10 0 0 0 10 10"></path><g class="terminal ">
<path d="M 292.0 297 h 0.0"></path><path d="M 354.5 297 h 0.0"></path><rect height="22" rx="10" ry="10" width="62.5" x="292.0" y="286"></rect><text x="323.25" y="301">"ili"</text></g></g><path d="M 383.0 68 a 10 10 0 0 1 10 10 v 89 a 10 10 0 0 0 10 10"></path><g>
<path d="M 403.0 177 h 0.0"></path><path d="M 403.0 177 a 10 10 0 0 0 10 -10 v -10 a 10 10 0 0 1 10 -10"></path><g class="terminal ">
<path d="M 423.0 147 h 0.0"></path><path d="M 477.0 147 h 0.0"></path><rect height="22" rx="10" ry="10" width="54.0" x="423.0" y="136"></rect><text x="450.0" y="151">"im"</text></g><path d="M 403.0 177 a 10 10 0 0 0 10 -10 v -40 a 10 10 0 0 1 10 -10"></path><g class="terminal ">
<path d="M 423.0 117 h 0.0"></path><path d="M 494.0 117 h 0.0"></path><rect height="22" rx="10" ry="10" width="71.0" x="423.0" y="106"></rect><text x="458.5" y="121">"ili2"</text></g><path d="M 403.0 177 a 10 10 0 0 0 10 -10 v -70 a 10 10 0 0 1 10 -10"></path><g class="terminal ">
<path d="M 423.0 87 h 0.0"></path><path d="M 494.0 87 h 0.0"></path><rect height="22" rx="10" ry="10" width="71.0" x="423.0" y="76"></rect><text x="458.5" y="91">"ili1"</text></g><path d="M 403.0 177 h 20"></path><g class="terminal ">
<path d="M 423.0 177 h 0.0"></path><path d="M 485.5 177 h 0.0"></path><rect height="22" rx="10" ry="10" width="62.5" x="423.0" y="166"></rect><text x="454.25" y="181">"imi"</text></g><path d="M 403.0 177 a 10 10 0 0 1 10 10 v 10 a 10 10 0 0 0 10 10"></path><g class="terminal ">
<path d="M 423.0 207 h 0.0"></path><path d="M 485.5 207 h 0.0"></path><rect height="22" rx="10" ry="10" width="62.5" x="423.0" y="196"></rect><text x="454.25" y="211">"imq"</text></g><path d="M 403.0 177 a 10 10 0 0 1 10 10 v 40 a 10 10 0 0 0 10 10"></path><g class="terminal ">
<path d="M 423.0 237 h 0.0"></path><path d="M 477.0 237 h 0.0"></path><rect height="22" rx="10" ry="10" width="54.0" x="423.0" y="226"></rect><text x="450.0" y="241">"io"</text></g><path d="M 403.0 177 a 10 10 0 0 1 10 10 v 70 a 10 10 0 0 0 10 10"></path><g class="terminal ">
<path d="M 423.0 267 h 0.0"></path><path d="M 485.5 267 h 0.0"></path><rect height="22" rx="10" ry="10" width="62.5" x="423.0" y="256"></rect><text x="454.25" y="271">"io1"</text></g><path d="M 403.0 177 a 10 10 0 0 1 10 10 v 100 a 10 10 0 0 0 10 10"></path><g class="terminal ">
<path d="M 423.0 297 h 0.0"></path><path d="M 485.5 297 h 0.0"></path><rect height="22" rx="10" ry="10" width="62.5" x="423.0" y="286"></rect><text x="454.25" y="301">"io2"</text></g></g><path d="M 514.0 68 a 10 10 0 0 1 10 10 v 89 a 10 10 0 0 0 10 10"></path><g>
<path d="M 534.0 177 h 0.0"></path><path d="M 534.0 177 a 10 10 0 0 0 10 -10 v -10 a 10 10 0 0 1 10 -10"></path><g class="terminal ">
<path d="M 554.0 147 h 0.0"></path><path d="M 616.5 147 h 0.0"></path><rect height="22" rx="10" ry="10" width="62.5" x="554.0" y="136"></rect><text x="585.25" y="151">"iot"</text></g><path d="M 534.0 177 a 10 10 0 0 0 10 -10 v -40 a 10 10 0 0 1 10 -10"></path><g class="terminal ">
<path d="M 554.0 117 h 0.0"></path><path d="M 616.5 117 h 0.0"></path><rect height="22" rx="10" ry="10" width="62.5" x="554.0" y="106"></rect><text x="585.25" y="121">"io4"</text></g><path d="M 534.0 177 a 10 10 0 0 0 10 -10 v -70 a 10 10 0 0 1 10 -10"></path><g class="terminal ">
<path d="M 554.0 87 h 0.0"></path><path d="M 616.5 87 h 0.0"></path><rect height="22" rx="10" ry="10" width="62.5" x="554.0" y="76"></rect><text x="585.25" y="91">"io3"</text></g><path d="M 534.0 177 h 20"></path><g class="terminal ">
<path d="M 554.0 177 h 0.0"></path><path d="M 608.0 177 h 0.0"></path><rect height="22" rx="10" ry="10" width="54.0" x="554.0" y="166"></rect><text x="581.0" y="181">"ip"</text></g><path d="M 534.0 177 a 10 10 0 0 1 10 10 v 10 a 10 10 0 0 0 10 10"></path><g class="terminal ">
<path d="M 554.0 207 h 0.0"></path><path d="M 616.5 207 h 0.0"></path><rect height="22" rx="10" ry="10" width="62.5" x="554.0" y="196"></rect><text x="585.25" y="211">"ipi"</text></g><path d="M 534.0 177 a 10 10 0 0 1 10 10 v 40 a 10 10 0 0 0 10 10"></path><g class="terminal ">
<path d="M 554.0 237 h 0.0"></path><path d="M 616.5 237 h 0.0"></path><rect height="22" rx="10" ry="10" width="62.5" x="554.0" y="226"></rect><text x="585.25" y="241">"ipq"</text></g><path d="M 534.0 177 a 10 10 0 0 1 10 10 v 70 a 10 10 0 0 0 10 10"></path><g class="terminal ">
<path d="M 554.0 267 h 0.0"></path><path d="M 616.5 267 h 0.0"></path><rect height="22" rx="10" ry="10" width="62.5" x="554.0" y="256"></rect><text x="585.25" y="271">"ipr"</text></g><path d="M 534.0 177 a 10 10 0 0 1 10 10 v 100 a 10 10 0 0 0 10 10"></path><g class="terminal ">
<path d="M 554.0 297 h 0.0"></path><path d="M 608.0 297 h 0.0"></path><rect height="22" rx="10" ry="10" width="54.0" x="554.0" y="286"></rect><text x="581.0" y="301">"iq"</text></g></g><path d="M 636.5 68 a 10 10 0 0 1 10 10 v 89 a 10 10 0 0 0 10 10"></path><g>
<path d="M 656.5 177 h 0.0"></path><path d="M 656.5 177 a 10 10 0 0 0 10 -10 v -10 a 10 10 0 0 1 10 -10"></path><g class="terminal ">
<path d="M 676.5 147 h 0.0"></path><path d="M 739.0 147 h 0.0"></path><rect height="22" rx="10" ry="10" width="62.5" x="676.5" y="136"></rect><text x="707.75" y="151">"iq3"</text></g><path d="M 656.5 177 a 10 10 0 0 0 10 -10 v -40 a 10 10 0 0 1 10 -10"></path><g class="terminal ">
<path d="M 676.5 117 h 0.0"></path><path d="M 739.0 117 h 0.0"></path><rect height="22" rx="10" ry="10" width="62.5" x="676.5" y="106"></rect><text x="707.75" y="121">"iq2"</text></g><path d="M 656.5 177 a 10 10 0 0 0 10 -10 v -70 a 10 10 0 0 1 10 -10"></path><g class="terminal ">
<path d="M 676.5 87 h 0.0"></path><path d="M 739.0 87 h 0.0"></path><rect height="22" rx="10" ry="10" width="62.5" x="676.5" y="76"></rect><text x="707.75" y="91">"iq1"</text></g><path d="M 656.5 177 h 20"></path><g class="terminal ">
<path d="M 676.5 177 h 0.0"></path><path d="M 730.5 177 h 0.0"></path><rect height="22" rx="10" ry="10" width="54.0" x="676.5" y="166"></rect><text x="703.5" y="181">"is"</text></g><path d="M 656.5 177 a 10 10 0 0 1 10 10 v 10 a 10 10 0 0 0 10 10"></path><g class="terminal ">
<path d="M 676.5 207 h 0.0"></path><path d="M 739.0 207 h 0.0"></path><rect height="22" rx="10" ry="10" width="62.5" x="676.5" y="196"></rect><text x="707.75" y="211">"is1"</text></g><path d="M 656.5 177 a 10 10 0 0 1 10 10 v 40 a 10 10 0 0 0 10 10"></path><g class="terminal ">
<path d="M 676.5 237 h 0.0"></path><path d="M 739.0 237 h 0.0"></path><rect height="22" rx="10" ry="10" width="62.5" x="676.5" y="226"></rect><text x="707.75" y="241">"is2"</text></g><path d="M 656.5 177 a 10 10 0 0 1 10 10 v 70 a 10 10 0 0 0 10 10"></path><g class="terminal ">
<path d="M 676.5 267 h 0.0"></path><path d="M 747.5 267 h 0.0"></path><rect height="22" rx="10" ry="10" width="71.0" x="676.5" y="256"></rect><text x="712.0" y="271">"imte"</text></g><path d="M 656.5 177 a 10 10 0 0 1 10 10 v 100 a 10 10 0 0 0 10 10"></path><g class="terminal ">
<path d="M 676.5 297 h 0.0"></path><path d="M 756.0 297 h 0.0"></path><rect height="22" rx="10" ry="10" width="79.5" x="676.5" y="286"></rect><text x="716.25" y="301">"imte1"</text></g></g><path d="M 776.0 68 a 10 10 0 0 1 10 10 v 89 a 10 10 0 0 0 10 10"></path><g>
<path d="M 796.0 177 h 0.0"></path><path d="M 796.0 177 h 20"></path><g class="terminal ">
<path d="M 816.0 177 h 0.0"></path><path d="M 895.5 177 h 0.0"></path><rect height="22" rx="10" ry="10" width="79.5" x="816.0" y="166"></rect><text x="855.75" y="181">"imte2"</text></g><path d="M 796.0 177 a 10 10 0 0 1 10 10 v 10 a 10 10 0 0 0 10 10"></path><g class="terminal ">
<path d="M 816.0 207 h 0.0"></path><path d="M 878.5 207 h 0.0"></path><rect height="22" rx="10" ry="10" width="62.5" x="816.0" y="196"></rect><text x="847.25" y="211">"iex"</text></g><path d="M 796.0 177 a 10 10 0 0 1 10 10 v 40 a 10 10 0 0 0 10 10"></path><g class="terminal ">
<path d="M 816.0 237 h 0.0"></path><path d="M 878.5 237 h 0.0"></path><rect height="22" rx="10" ry="10" width="62.5" x="816.0" y="226"></rect><text x="847.25" y="241">"rem"</text></g></g></g><g class="non-terminal ">
<path d="M 262.0 52 h 0.0"></path><path d="M 496.0 52 h 0.0"></path><text class="comment" x="379.0" y="57">BookIntroduction.para.style.enum</text></g></g></g><path d="M 151.0 352 h 20"></path><g>
<path d="M 171.0 352 h 213.0"></path><path d="M 712.5 352 h 213.0"></path><g>
<path d="M 384.0 352 h 0.0"></path><path d="M 623.0 352 h 0.0"></path><path d="M 384.0 352 a 10 10 0 0 0 10 -10 v 0 a 10 10 0 0 1 10 -10"></path><g>
<path d="M 404.0 332 h 199.0"></path></g><path d="M 603.0 332 a 10 10 0 0 1 10 10 v 0 a 10 10 0 0 0 10 10"></path><path d="M 384.0 352 h 20"></path><g>
<path d="M 404.0 352 h 0.0"></path><path d="M 603.0 352 h 0.0"></path><path d="M 404.0 352 h 10"></path><g>
<path d="M 414.0 352 h 0.0"></path><path d="M 593.0 352 h 0.0"></path><path d="M 414.0 352 h 20"></path><g class="non-terminal ">
<path d="M 434.0 352 h 21.25"></path><path d="M 551.75 352 h 21.25"></path><rect height="22" width="96.5" x="455.25" y="341"></rect><text x="503.5" y="356">Reference</text></g><path d="M 573.0 352 h 20"></path><path d="M 414.0 352 a 10 10 0 0 1 10 10 v 10 a 10 10 0 0 0 10 10"></path><g class="non-terminal ">
<path d="M 434.0 382 h 25.5"></path><path d="M 547.5 382 h 25.5"></path><rect height="22" width="88.0" x="459.5" y="371"></rect><text x="503.5" y="386">Footnote</text></g><path d="M 573.0 382 a 10 10 0 0 0 10 -10 v -10 a 10 10 0 0 1 10 -10"></path><path d="M 414.0 352 a 10 10 0 0 1 10 10 v 40 a 10 10 0 0 0 10 10"></path><g class="non-terminal ">
<path d="M 434.0 412 h 0.0"></path><path d="M 573.0 412 h 0.0"></path><rect height="22" width="139.0" x="434.0" y="401"></rect><text x="503.5" y="416">CrossReference</text></g><path d="M 573.0 412 a 10 10 0 0 0 10 -10 v -40 a 10 10 0 0 1 10 -10"></path><path d="M 414.0 352 a 10 10 0 0 1 10 10 v 70 a 10 10 0 0 0 10 10"></path><g class="non-terminal ">
<path d="M 434.0 442 h 42.5"></path><path d="M 530.5 442 h 42.5"></path><rect height="22" width="54.0" x="476.5" y="431"></rect><text x="503.5" y="446">Char</text></g><path d="M 573.0 442 a 10 10 0 0 0 10 -10 v -70 a 10 10 0 0 1 10 -10"></path><path d="M 414.0 352 a 10 10 0 0 1 10 10 v 100 a 10 10 0 0 0 10 10"></path><g class="non-terminal ">
<path d="M 434.0 472 h 21.25"></path><path d="M 551.75 472 h 21.25"></path><rect height="22" width="96.5" x="455.25" y="461"></rect><text x="503.5" y="476">IntroChar</text></g><path d="M 573.0 472 a 10 10 0 0 0 10 -10 v -100 a 10 10 0 0 1 10 -10"></path><path d="M 414.0 352 a 10 10 0 0 1 10 10 v 130 a 10 10 0 0 0 10 10"></path><g class="non-terminal ">
<path d="M 434.0 502 h 21.25"></path><path d="M 551.75 502 h 21.25"></path><rect height="22" width="96.5" x="455.25" y="491"></rect><text x="503.5" y="506">Milestone</text></g><path d="M 573.0 502 a 10 10 0 0 0 10 -10 v -130 a 10 10 0 0 1 10 -10"></path><path d="M 414.0 352 a 10 10 0 0 1 10 10 v 160 a 10 10 0 0 0 10 10"></path><g class="non-terminal ">
<path d="M 434.0 532 h 34.0"></path><path d="M 539.0 532 h 34.0"></path><rect height="22" width="71.0" x="468.0" y="521"></rect><text x="503.5" y="536">Figure</text></g><path d="M 573.0 532 a 10 10 0 0 0 10 -10 v -160 a 10 10 0 0 1 10 -10"></path><path d="M 414.0 352 a 10 10 0 0 1 10 10 v 190 a 10 10 0 0 0 10 10"></path><g class="terminal ">
<path d="M 434.0 562 h 42.5"></path><path d="M 530.5 562 h 42.5"></path><rect height="22" rx="10" ry="10" width="54.0" x="476.5" y="551"></rect><text x="503.5" y="566">text</text></g><path d="M 573.0 562 a 10 10 0 0 0 10 -10 v -190 a 10 10 0 0 1 10 -10"></path></g><path d="M 593.0 352 h 10"></path><path d="M 414.0 352 a 10 10 0 0 0 -10 10 v 209 a 10 10 0 0 0 10 10"></path><g>
<path d="M 414.0 581 h 179.0"></path></g><path d="M 593.0 581 a 10 10 0 0 0 10 -10 v -209 a 10 10 0 0 0 -10 -10"></path></g><path d="M 603.0 352 h 20"></path></g><path d="M 623.0 352 h 10"></path><g class="terminal ">
<path d="M 633.0 352 h 0.0"></path><path d="M 712.5 352 h 0.0"></path><rect height="22" rx="10" ry="10" width="79.5" x="633.0" y="341"></rect><text x="672.75" y="356">&#60;/para></text></g></g><path d="M 925.5 352 h 20"></path></g></g><path d="M 945.5 352 h 20"></path><path d="M 50.0 352 a 10 10 0 0 1 10 10 v 228 a 10 10 0 0 0 10 10"></path><g class="non-terminal ">
<path d="M 70.0 600 h 406.5"></path><path d="M 539.0 600 h 406.5"></path><rect height="22" width="62.5" x="476.5" y="589"></rect><text x="507.75" y="604">Table</text></g><path d="M 945.5 600 a 10 10 0 0 0 10 -10 v -228 a 10 10 0 0 1 10 -10"></path></g><g class="non-terminal ">
<path d="M 50.0 28 h 0.0"></path><path d="M 172.0 28 h 0.0"></path><text class="comment" x="111.0" y="33">BookIntroduction</text></g></g><path d="M 965.5 352 h 10"></path><path d="M 975.5 352 h 20 m 0 -10 v 20"></path></g></svg>