<svg class="railroad-diagram" height="458" viewBox="0 0 620.0 458" width="620.0" xmlns="http://www.w3.org/2000/svg" xmlns:xlink="http://www.w3.org/1999/xlink">
<g transform="translate(.5 .5)">
<style>/* <![CDATA[ */

    svg.railroad-diagram {
        background-color: hsl(30,20%,95%);
    }
    svg.railroad-diagram path {
        stroke-width: 2;
        stroke: black;
        fill: none;
    }
    svg.railroad-diagram text {
        font-size: 12px;
        text-anchor: middle;
        font-family: DejaVu Sans;
    }
    svg.railroad-diagram text.label {
        text-anchor:start;
    }
    svg.railroad-diagram text.comment {
        font-family: DejaVu Sans;
        font-size: 14px;
    }
    svg.railroad-diagram rect{
        stroke-width: 2;
        stroke: black;
        fill: rgb(210, 210, 255);
    }
    svg.railroad-diagram rect.group-box {
        stroke: gray;
        stroke-dasharray: 10 5;
        fill: none;
    }
    .terminal {
        font-family: DejaVu Sans;
    }
    svg.railroad-diagram g.altterminal rect {
        fill: rgb(251, 252, 207)
    }

/* ]]> */
</style><g>
<path d="M 20 99 v 20 m 0 -10 h 20"></path></g><path d="M 40 109 h 10"></path><g>
<path d="M 50 109 h 0.0"></path><path d="M 570.0 109 h 0.0"></path><g>
<path d="M 50.0 109 h 0.0"></path><path d="M 570.0 109 h 0.0"></path><path d="M 50.0 109 h 20"></path><g>
<path d="M 70.0 109 h 0.0"></path><path d="M 550.0 109 h 0.0"></path><g class="terminal ">
<path d="M 70.0 109 h 0.0"></path><path d="M 141.0 109 h 0.0"></path><rect height="22" rx="10" ry="10" width="71.0" x="70.0" y="98"></rect><text x="105.5" y="113">&#60;para></text></g><path d="M 141.0 109 h 10"></path><path d="M 151.0 109 h 10"></path><g>
<path d="M 161.0 109 h 0.0"></path><path d="M 550.0 109 h 0.0"></path><path d="M 161.0 109 a 10 10 0 0 0 10 -10 v -38 a 10 10 0 0 1 10 -10"></path><g>
<path d="M 181.0 51 h 0.0"></path><path d="M 530.0 51 h 0.0"></path><g class="terminal ">
<path d="M 181.0 51 h 0.0"></path><path d="M 252.0 51 h 0.0"></path><rect height="22" rx="10" ry="10" width="71.0" x="181.0" y="40"></rect><text x="216.5" y="55">@style</text></g><path d="M 252.0 51 h 10"></path><path d="M 262.0 51 h 10"></path><g class="non-terminal ">
<path d="M 272.0 51 h 0.0"></path><path d="M 530.0 51 h 0.0"></path><rect height="22" width="258.0" x="272.0" y="40"></rect><text x="401.0" y="55">Introduction.para.style.enum</text></g></g><path d="M 161.0 109 h 20"></path><g>
<path d="M 181.0 109 h 55.0"></path><path d="M 475.0 109 h 55.0"></path><path d="M 236.0 109 a 10 10 0 0 0 10 -10 v -9 a 10 10 0 0 1 10 -10"></path><g>
<path d="M 256.0 80 h 199.0"></path></g><path d="M 455.0 80 a 10 10 0 0 1 10 10 v 9 a 10 10 0 0 0 10 10"></path><path d="M 236.0 109 h 20"></path><g>
<path d="M 256.0 109 h 0.0"></path><path d="M 455.0 109 h 0.0"></path><path d="M 256.0 109 h 10"></path><g>
<path d="M 266.0 109 h 0.0"></path><path d="M 445.0 109 h 0.0"></path><path d="M 266.0 109 h 20"></path><g class="terminal ">
<path d="M 286.0 109 h 42.5"></path><path d="M 382.5 109 h 42.5"></path><rect height="22" rx="10" ry="10" width="54.0" x="328.5" y="98"></rect><text x="355.5" y="113">TEXT</text></g><path d="M 425.0 109 h 20"></path><path d="M 266.0 109 a 10 10 0 0 1 10 10 v 10 a 10 10 0 0 0 10 10"></path><g class="non-terminal ">
<path d="M 286.0 139 h 42.5"></path><path d="M 382.5 139 h 42.5"></path><rect height="22" width="54.0" x="328.5" y="128"></rect><text x="355.5" y="143">Char</text></g><path d="M 425.0 139 a 10 10 0 0 0 10 -10 v -10 a 10 10 0 0 1 10 -10"></path><path d="M 266.0 109 a 10 10 0 0 1 10 10 v 40 a 10 10 0 0 0 10 10"></path><g class="non-terminal ">
<path d="M 286.0 169 h 21.25"></path><path d="M 403.75 169 h 21.25"></path><rect height="22" width="96.5" x="307.25" y="158"></rect><text x="355.5" y="173">IntroChar</text></g><path d="M 425.0 169 a 10 10 0 0 0 10 -10 v -40 a 10 10 0 0 1 10 -10"></path><path d="M 266.0 109 a 10 10 0 0 1 10 10 v 70 a 10 10 0 0 0 10 10"></path><g class="non-terminal ">
<path d="M 286.0 199 h 25.5"></path><path d="M 399.5 199 h 25.5"></path><rect height="22" width="88.0" x="311.5" y="188"></rect><text x="355.5" y="203">Footnote</text></g><path d="M 425.0 199 a 10 10 0 0 0 10 -10 v -70 a 10 10 0 0 1 10 -10"></path><path d="M 266.0 109 a 10 10 0 0 1 10 10 v 100 a 10 10 0 0 0 10 10"></path><g class="non-terminal ">
<path d="M 286.0 229 h 0.0"></path><path d="M 425.0 229 h 0.0"></path><rect height="22" width="139.0" x="286.0" y="218"></rect><text x="355.5" y="233">CrossReference</text></g><path d="M 425.0 229 a 10 10 0 0 0 10 -10 v -100 a 10 10 0 0 1 10 -10"></path><path d="M 266.0 109 a 10 10 0 0 1 10 10 v 130 a 10 10 0 0 0 10 10"></path><g class="non-terminal ">
<path d="M 286.0 259 h 34.0"></path><path d="M 391.0 259 h 34.0"></path><rect height="22" width="71.0" x="320.0" y="248"></rect><text x="355.5" y="263">Figure</text></g><path d="M 425.0 259 a 10 10 0 0 0 10 -10 v -130 a 10 10 0 0 1 10 -10"></path><path d="M 266.0 109 a 10 10 0 0 1 10 10 v 160 a 10 10 0 0 0 10 10"></path><g class="non-terminal ">
<path d="M 286.0 289 h 21.25"></path><path d="M 403.75 289 h 21.25"></path><rect height="22" width="96.5" x="307.25" y="278"></rect><text x="355.5" y="293">Milestone</text></g><path d="M 425.0 289 a 10 10 0 0 0 10 -10 v -160 a 10 10 0 0 1 10 -10"></path><path d="M 266.0 109 a 10 10 0 0 1 10 10 v 190 a 10 10 0 0 0 10 10"></path><g class="non-terminal ">
<path d="M 286.0 319 h 21.25"></path><path d="M 403.75 319 h 21.25"></path><rect height="22" width="96.5" x="307.25" y="308"></rect><text x="355.5" y="323">Reference</text></g><path d="M 425.0 319 a 10 10 0 0 0 10 -10 v -190 a 10 10 0 0 1 10 -10"></path><path d="M 266.0 109 a 10 10 0 0 1 10 10 v 220 a 10 10 0 0 0 10 10"></path><g class="non-terminal ">
<path d="M 286.0 349 h 29.75"></path><path d="M 395.25 349 h 29.75"></path><rect height="22" width="79.5" x="315.75" y="338"></rect><text x="355.5" y="353">Sidebar</text></g><path d="M 425.0 349 a 10 10 0 0 0 10 -10 v -220 a 10 10 0 0 1 10 -10"></path></g><path d="M 445.0 109 h 10"></path><path d="M 266.0 109 a 10 10 0 0 0 -10 10 v 249 a 10 10 0 0 0 10 10"></path><g>
<path d="M 266.0 378 h 179.0"></path></g><path d="M 445.0 378 a 10 10 0 0 0 10 -10 v -249 a 10 10 0 0 0 -10 -10"></path></g><path d="M 455.0 109 h 20"></path></g><path d="M 530.0 109 h 20"></path></g></g><path d="M 550.0 109 h 20"></path><path d="M 50.0 109 a 10 10 0 0 1 10 10 v 288 a 10 10 0 0 0 10 10"></path><g class="non-terminal ">
<path d="M 70.0 417 h 208.75"></path><path d="M 341.25 417 h 208.75"></path><rect height="22" width="62.5" x="278.75" y="406"></rect><text x="310.0" y="421">Table</text></g><path d="M 550.0 417 a 10 10 0 0 0 10 -10 v -288 a 10 10 0 0 1 10 -10"></path></g></g><path d="M 570.0 109 h 10"></path><path d="M 580.0 109 h 20 m 0 -10 v 20"></path></g></svg>