<svg class="railroad-diagram" height="313" viewBox="0 0 592.5 313" width="592.5" xmlns="http://www.w3.org/2000/svg" xmlns:xlink="http://www.w3.org/1999/xlink">
<g transform="translate(.5 .5)">
<style>/* <![CDATA[ */
    svg.railroad-diagram {
        background-color:hsl(30,20%,95%);
    }
    svg.railroad-diagram path {
        stroke-width: 2;
        stroke: black;
        fill: none;
    }
    svg.railroad-diagram text {
        font-size: 12px;
        text-anchor: middle;
        font-family: DejaVu Sans;
    }
    svg.railroad-diagram text.label {
        text-anchor:start;
    }
    svg.railroad-diagram text.comment {
        font-family: DejaVu Sans;
        font-size: 14px;
    }
    svg.railroad-diagram rect{
        stroke-width: 2;
        stroke:black;
        fill: rgb(210, 255, 210);
    }
    svg.railroad-diagram rect.group-box {
        stroke: gray;
        stroke-dasharray: 10 5;
        fill: none;
    }
    .terminal {
        font-family: DejaVu Sans;
    }

/* ]]> */
</style><g>
<path d="M 20 54 v 20 m 0 -10 h 20"></path></g><path d="M 40 64 h 10"></path><g>
<path d="M 50 64 h 0.0"></path><path d="M 542.5 64 h 0.0"></path><rect class="group-box" height="257" rx="10" ry="10" width="492.5" x="50.0" y="36"></rect><g>
<path d="M 50.0 64 h 10.0"></path><path d="M 532.5 64 h 10.0"></path><g>
<path d="M 60.0 64 h 0.0"></path><path d="M 226.5 64 h 0.0"></path><g class="terminal ">
<path d="M 60.0 64 h 0.0"></path><path d="M 105.5 64 h 0.0"></path><rect height="22" rx="10" ry="10" width="45.5" x="60.0" y="53"></rect><text x="82.75" y="68">"\"</text></g><path d="M 105.5 64 h 10"></path><g>
<path d="M 115.5 64 h 0.0"></path><path d="M 226.5 64 h 0.0"></path><path d="M 115.5 64 h 20"></path><g class="terminal ">
<path d="M 135.5 64 h 8.5"></path><path d="M 198.0 64 h 8.5"></path><rect height="22" rx="10" ry="10" width="54.0" x="144.0" y="53"></rect><text x="171.0" y="68">"mt"</text></g><path d="M 206.5 64 h 20"></path><path d="M 115.5 64 a 10 10 0 0 1 10 10 v 10 a 10 10 0 0 0 10 10"></path><g class="terminal ">
<path d="M 135.5 94 h 4.25"></path><path d="M 202.25 94 h 4.25"></path><rect height="22" rx="10" ry="10" width="62.5" x="139.75" y="83"></rect><text x="171.0" y="98">"mt1"</text></g><path d="M 206.5 94 a 10 10 0 0 0 10 -10 v -10 a 10 10 0 0 1 10 -10"></path><path d="M 115.5 64 a 10 10 0 0 1 10 10 v 40 a 10 10 0 0 0 10 10"></path><g class="terminal ">
<path d="M 135.5 124 h 4.25"></path><path d="M 202.25 124 h 4.25"></path><rect height="22" rx="10" ry="10" width="62.5" x="139.75" y="113"></rect><text x="171.0" y="128">"mt2"</text></g><path d="M 206.5 124 a 10 10 0 0 0 10 -10 v -40 a 10 10 0 0 1 10 -10"></path><path d="M 115.5 64 a 10 10 0 0 1 10 10 v 70 a 10 10 0 0 0 10 10"></path><g class="terminal ">
<path d="M 135.5 154 h 4.25"></path><path d="M 202.25 154 h 4.25"></path><rect height="22" rx="10" ry="10" width="62.5" x="139.75" y="143"></rect><text x="171.0" y="158">"mt3"</text></g><path d="M 206.5 154 a 10 10 0 0 0 10 -10 v -70 a 10 10 0 0 1 10 -10"></path><path d="M 115.5 64 a 10 10 0 0 1 10 10 v 100 a 10 10 0 0 0 10 10"></path><g class="terminal ">
<path d="M 135.5 184 h 4.25"></path><path d="M 202.25 184 h 4.25"></path><rect height="22" rx="10" ry="10" width="62.5" x="139.75" y="173"></rect><text x="171.0" y="188">"mt4"</text></g><path d="M 206.5 184 a 10 10 0 0 0 10 -10 v -100 a 10 10 0 0 1 10 -10"></path><path d="M 115.5 64 a 10 10 0 0 1 10 10 v 130 a 10 10 0 0 0 10 10"></path><g class="terminal ">
<path d="M 135.5 214 h 4.25"></path><path d="M 202.25 214 h 4.25"></path><rect height="22" rx="10" ry="10" width="62.5" x="139.75" y="203"></rect><text x="171.0" y="218">"imt"</text></g><path d="M 206.5 214 a 10 10 0 0 0 10 -10 v -130 a 10 10 0 0 1 10 -10"></path><path d="M 115.5 64 a 10 10 0 0 1 10 10 v 160 a 10 10 0 0 0 10 10"></path><g class="terminal ">
<path d="M 135.5 244 h 0.0"></path><path d="M 206.5 244 h 0.0"></path><rect height="22" rx="10" ry="10" width="71.0" x="135.5" y="233"></rect><text x="171.0" y="248">"imt1"</text></g><path d="M 206.5 244 a 10 10 0 0 0 10 -10 v -160 a 10 10 0 0 1 10 -10"></path><path d="M 115.5 64 a 10 10 0 0 1 10 10 v 190 a 10 10 0 0 0 10 10"></path><g class="terminal ">
<path d="M 135.5 274 h 0.0"></path><path d="M 206.5 274 h 0.0"></path><rect height="22" rx="10" ry="10" width="71.0" x="135.5" y="263"></rect><text x="171.0" y="278">"imt2"</text></g><path d="M 206.5 274 a 10 10 0 0 0 10 -10 v -190 a 10 10 0 0 1 10 -10"></path></g></g><path d="M 226.5 64 h 10"></path><path d="M 236.5 64 h 10"></path><g class="terminal ">
<path d="M 246.5 64 h 0.0"></path><path d="M 283.5 64 h 0.0"></path><rect height="22" rx="10" ry="10" width="37.0" x="246.5" y="53"></rect><text x="265.0" y="68">WS</text></g><path d="M 283.5 64 h 10"></path><g>
<path d="M 293.5 64 h 0.0"></path><path d="M 532.5 64 h 0.0"></path><path d="M 293.5 64 a 10 10 0 0 0 10 -10 v 0 a 10 10 0 0 1 10 -10"></path><g>
<path d="M 313.5 44 h 199.0"></path></g><path d="M 512.5 44 a 10 10 0 0 1 10 10 v 0 a 10 10 0 0 0 10 10"></path><path d="M 293.5 64 h 20"></path><g>
<path d="M 313.5 64 h 0.0"></path><path d="M 512.5 64 h 0.0"></path><path d="M 313.5 64 h 10"></path><g>
<path d="M 323.5 64 h 0.0"></path><path d="M 502.5 64 h 0.0"></path><path d="M 323.5 64 h 20"></path><g class="non-terminal ">
<path d="M 343.5 64 h 25.5"></path><path d="M 457.0 64 h 25.5"></path><rect height="22" width="88.0" x="369.0" y="53"></rect><text x="413.0" y="68">Footnote</text></g><path d="M 482.5 64 h 20"></path><path d="M 323.5 64 a 10 10 0 0 1 10 10 v 10 a 10 10 0 0 0 10 10"></path><g class="non-terminal ">
<path d="M 343.5 94 h 0.0"></path><path d="M 482.5 94 h 0.0"></path><rect height="22" width="139.0" x="343.5" y="83"></rect><text x="413.0" y="98">CrossReference</text></g><path d="M 482.5 94 a 10 10 0 0 0 10 -10 v -10 a 10 10 0 0 1 10 -10"></path><path d="M 323.5 64 a 10 10 0 0 1 10 10 v 40 a 10 10 0 0 0 10 10"></path><g class="non-terminal ">
<path d="M 343.5 124 h 42.5"></path><path d="M 440.0 124 h 42.5"></path><rect height="22" width="54.0" x="386.0" y="113"></rect><text x="413.0" y="128">Char</text></g><path d="M 482.5 124 a 10 10 0 0 0 10 -10 v -40 a 10 10 0 0 1 10 -10"></path><path d="M 323.5 64 a 10 10 0 0 1 10 10 v 70 a 10 10 0 0 0 10 10"></path><g class="non-terminal ">
<path d="M 343.5 154 h 21.25"></path><path d="M 461.25 154 h 21.25"></path><rect height="22" width="96.5" x="364.75" y="143"></rect><text x="413.0" y="158">Milestone</text></g><path d="M 482.5 154 a 10 10 0 0 0 10 -10 v -70 a 10 10 0 0 1 10 -10"></path><path d="M 323.5 64 a 10 10 0 0 1 10 10 v 100 a 10 10 0 0 0 10 10"></path><g class="non-terminal ">
<path d="M 343.5 184 h 38.25"></path><path d="M 444.25 184 h 38.25"></path><rect height="22" width="62.5" x="381.75" y="173"></rect><text x="413.0" y="188">Break</text></g><path d="M 482.5 184 a 10 10 0 0 0 10 -10 v -100 a 10 10 0 0 1 10 -10"></path><path d="M 323.5 64 a 10 10 0 0 1 10 10 v 130 a 10 10 0 0 0 10 10"></path><g class="terminal ">
<path d="M 343.5 214 h 42.5"></path><path d="M 440.0 214 h 42.5"></path><rect height="22" rx="10" ry="10" width="54.0" x="386.0" y="203"></rect><text x="413.0" y="218">Text</text></g><path d="M 482.5 214 a 10 10 0 0 0 10 -10 v -130 a 10 10 0 0 1 10 -10"></path></g><path d="M 502.5 64 h 10"></path><path d="M 323.5 64 a 10 10 0 0 0 -10 10 v 149 a 10 10 0 0 0 10 10"></path><g>
<path d="M 323.5 233 h 179.0"></path></g><path d="M 502.5 233 a 10 10 0 0 0 10 -10 v -149 a 10 10 0 0 0 -10 -10"></path></g><path d="M 512.5 64 h 20"></path></g></g><g class="non-terminal ">
<path d="M 50.0 28 h 0.0"></path><path d="M 235.0 28 h 0.0"></path><text class="comment" x="142.5" y="33">BookIntroductionEndTitles</text></g></g><path d="M 542.5 64 h 10"></path><path d="M 552.5 64 h 20 m 0 -10 v 20"></path></g></svg>