<svg class="railroad-diagram" height="408" viewBox="0 0 967.5 408" width="967.5" xmlns="http://www.w3.org/2000/svg" xmlns:xlink="http://www.w3.org/1999/xlink">
<g transform="translate(.5 .5)">
<style>/* <![CDATA[ */

    svg.railroad-diagram {
        background-color: hsl(30,20%,95%);
    }
    svg.railroad-diagram path {
        stroke-width: 2;
        stroke: black;
        fill: none;
    }
    svg.railroad-diagram text {
        font-size: 12px;
        text-anchor: middle;
        font-family: DejaVu Sans;
    }
    svg.railroad-diagram text.label {
        text-anchor:start;
    }
    svg.railroad-diagram text.comment {
        font-family: DejaVu Sans;
        font-size: 14px;
    }
    svg.railroad-diagram rect{
        stroke-width: 2;
        stroke: black;
        fill: rgb(210, 255, 210);
    }
    svg.railroad-diagram rect.group-box {
        stroke: gray;
        stroke-dasharray: 10 5;
        fill: none;
    }
    .terminal {
        font-family: DejaVu Sans;
    }
    svg.railroad-diagram g.altterminal rect {
        fill: rgb(251, 252, 207)
    }

/* ]]> */
</style><g>
<path d="M 20 59 v 20 m 0 -10 h 20"></path></g><path d="M 40 69 h 10"></path><g>
<path d="M 50 69 h 0.0"></path><path d="M 917.5 69 h 0.0"></path><g>
<path d="M 50.0 69 h 0.0"></path><path d="M 917.5 69 h 0.0"></path><path d="M 50.0 69 h 20"></path><g>
<path d="M 70.0 69 h 0.0"></path><path d="M 897.5 69 h 0.0"></path><g>
<path d="M 70.0 69 h 0.0"></path><path d="M 206.5 69 h 0.0"></path><path d="M 70.0 69 h 20"></path><g class="terminal ">
<path d="M 90.0 69 h 12.75"></path><path d="M 173.75 69 h 12.75"></path><rect height="22" rx="10" ry="10" width="71.0" x="102.75" y="58"></rect><text x="138.25" y="73">'\n\\'</text></g><path d="M 186.5 69 h 20"></path><path d="M 70.0 69 a 10 10 0 0 1 10 10 v 10 a 10 10 0 0 0 10 10"></path><g class="terminal altterminal">
<path d="M 90.0 99 h 0.0"></path><path d="M 186.5 99 h 0.0"></path><rect height="22" rx="10" ry="10" width="96.5" x="90.0" y="88"></rect><text x="138.25" y="103">/${Ws}\\/</text></g><path d="M 186.5 99 a 10 10 0 0 0 10 -10 v -10 a 10 10 0 0 1 10 -10"></path></g><path d="M 206.5 69 h 10"></path><path d="M 216.5 69 h 10"></path><g class="non-terminal ">
<path d="M 226.5 69 h 0.0"></path><path d="M 493.0 69 h 0.0"></path><rect height="22" width="266.5" x="226.5" y="58"></rect><text x="359.75" y="73">Introductions.para.style.enum</text></g><path d="M 493.0 69 h 10"></path><path d="M 503.0 69 h 10"></path><g>
<path d="M 513.0 69 h 0.0"></path><path d="M 624.0 69 h 0.0"></path><path d="M 513.0 69 h 20"></path><g class="terminal ">
<path d="M 533.0 69 h 12.75"></path><path d="M 591.25 69 h 12.75"></path><rect height="22" rx="10" ry="10" width="45.5" x="545.75" y="58"></rect><text x="568.5" y="73">' '</text></g><path d="M 604.0 69 h 20"></path><path d="M 513.0 69 a 10 10 0 0 1 10 10 v 10 a 10 10 0 0 0 10 10"></path><g class="terminal altterminal">
<path d="M 533.0 99 h 0.0"></path><path d="M 604.0 99 h 0.0"></path><rect height="22" rx="10" ry="10" width="71.0" x="533.0" y="88"></rect><text x="568.5" y="103">TAGEND</text></g><path d="M 604.0 99 a 10 10 0 0 0 10 -10 v -10 a 10 10 0 0 1 10 -10"></path></g><path d="M 624.0 69 h 10"></path><path d="M 634.0 69 h 10"></path><g>
<path d="M 644.0 69 h 0.0"></path><path d="M 897.5 69 h 0.0"></path><path d="M 644.0 69 a 10 10 0 0 0 10 -10 v -9 a 10 10 0 0 1 10 -10"></path><g>
<path d="M 664.0 40 h 213.5"></path></g><path d="M 877.5 40 a 10 10 0 0 1 10 10 v 9 a 10 10 0 0 0 10 10"></path><path d="M 644.0 69 h 20"></path><g>
<path d="M 664.0 69 h 0.0"></path><path d="M 877.5 69 h 0.0"></path><path d="M 664.0 69 h 10"></path><g>
<path d="M 674.0 69 h 0.0"></path><path d="M 867.5 69 h 0.0"></path><path d="M 674.0 69 h 20"></path><g>
<path d="M 694.0 69 h 0.0"></path><path d="M 847.5 69 h 0.0"></path><g class="terminal ">
<path d="M 694.0 69 h 0.0"></path><path d="M 748.0 69 h 0.0"></path><rect height="22" rx="10" ry="10" width="54.0" x="694.0" y="58"></rect><text x="721.0" y="73">TEXT</text></g><path d="M 748.0 69 h 10"></path><path d="M 758.0 69 h 10"></path><g class="terminal ">
<path d="M 768.0 69 h 0.0"></path><path d="M 847.5 69 h 0.0"></path><rect height="22" rx="10" ry="10" width="79.5" x="768.0" y="58"></rect><text x="807.75" y="73">TEXTEND</text></g></g><path d="M 847.5 69 h 20"></path><path d="M 674.0 69 a 10 10 0 0 1 10 10 v 10 a 10 10 0 0 0 10 10"></path><g class="non-terminal ">
<path d="M 694.0 99 h 49.75"></path><path d="M 797.75 99 h 49.75"></path><rect height="22" width="54.0" x="743.75" y="88"></rect><text x="770.75" y="103">Char</text></g><path d="M 847.5 99 a 10 10 0 0 0 10 -10 v -10 a 10 10 0 0 1 10 -10"></path><path d="M 674.0 69 a 10 10 0 0 1 10 10 v 40 a 10 10 0 0 0 10 10"></path><g class="non-terminal ">
<path d="M 694.0 129 h 28.5"></path><path d="M 819.0 129 h 28.5"></path><rect height="22" width="96.5" x="722.5" y="118"></rect><text x="770.75" y="133">IntroChar</text></g><path d="M 847.5 129 a 10 10 0 0 0 10 -10 v -40 a 10 10 0 0 1 10 -10"></path><path d="M 674.0 69 a 10 10 0 0 1 10 10 v 70 a 10 10 0 0 0 10 10"></path><g class="non-terminal ">
<path d="M 694.0 159 h 32.75"></path><path d="M 814.75 159 h 32.75"></path><rect height="22" width="88.0" x="726.75" y="148"></rect><text x="770.75" y="163">Footnote</text></g><path d="M 847.5 159 a 10 10 0 0 0 10 -10 v -70 a 10 10 0 0 1 10 -10"></path><path d="M 674.0 69 a 10 10 0 0 1 10 10 v 100 a 10 10 0 0 0 10 10"></path><g class="non-terminal ">
<path d="M 694.0 189 h 7.25"></path><path d="M 840.25 189 h 7.25"></path><rect height="22" width="139.0" x="701.25" y="178"></rect><text x="770.75" y="193">CrossReference</text></g><path d="M 847.5 189 a 10 10 0 0 0 10 -10 v -100 a 10 10 0 0 1 10 -10"></path><path d="M 674.0 69 a 10 10 0 0 1 10 10 v 130 a 10 10 0 0 0 10 10"></path><g class="non-terminal ">
<path d="M 694.0 219 h 41.25"></path><path d="M 806.25 219 h 41.25"></path><rect height="22" width="71.0" x="735.25" y="208"></rect><text x="770.75" y="223">Figure</text></g><path d="M 847.5 219 a 10 10 0 0 0 10 -10 v -130 a 10 10 0 0 1 10 -10"></path><path d="M 674.0 69 a 10 10 0 0 1 10 10 v 160 a 10 10 0 0 0 10 10"></path><g class="non-terminal ">
<path d="M 694.0 249 h 28.5"></path><path d="M 819.0 249 h 28.5"></path><rect height="22" width="96.5" x="722.5" y="238"></rect><text x="770.75" y="253">Milestone</text></g><path d="M 847.5 249 a 10 10 0 0 0 10 -10 v -160 a 10 10 0 0 1 10 -10"></path><path d="M 674.0 69 a 10 10 0 0 1 10 10 v 190 a 10 10 0 0 0 10 10"></path><g class="non-terminal ">
<path d="M 694.0 279 h 28.5"></path><path d="M 819.0 279 h 28.5"></path><rect height="22" width="96.5" x="722.5" y="268"></rect><text x="770.75" y="283">Reference</text></g><path d="M 847.5 279 a 10 10 0 0 0 10 -10 v -190 a 10 10 0 0 1 10 -10"></path><path d="M 674.0 69 a 10 10 0 0 1 10 10 v 220 a 10 10 0 0 0 10 10"></path><g class="non-terminal ">
<path d="M 694.0 309 h 37.0"></path><path d="M 810.5 309 h 37.0"></path><rect height="22" width="79.5" x="731.0" y="298"></rect><text x="770.75" y="313">Sidebar</text></g><path d="M 847.5 309 a 10 10 0 0 0 10 -10 v -220 a 10 10 0 0 1 10 -10"></path></g><path d="M 867.5 69 h 10"></path><path d="M 674.0 69 a 10 10 0 0 0 -10 10 v 249 a 10 10 0 0 0 10 10"></path><g>
<path d="M 674.0 338 h 193.5"></path></g><path d="M 867.5 338 a 10 10 0 0 0 10 -10 v -249 a 10 10 0 0 0 -10 -10"></path></g><path d="M 877.5 69 h 20"></path></g></g><path d="M 897.5 69 h 20"></path><path d="M 50.0 69 a 10 10 0 0 1 10 10 v 278 a 10 10 0 0 0 10 10"></path><g class="non-terminal ">
<path d="M 70.0 367 h 382.5"></path><path d="M 515.0 367 h 382.5"></path><rect height="22" width="62.5" x="452.5" y="356"></rect><text x="483.75" y="371">Table</text></g><path d="M 897.5 367 a 10 10 0 0 0 10 -10 v -278 a 10 10 0 0 1 10 -10"></path></g></g><path d="M 917.5 69 h 10"></path><path d="M 927.5 69 h 20 m 0 -10 v 20"></path></g></svg>