<svg class="railroad-diagram" height="548" viewBox="0 0 1350.0 548" width="1350.0" xmlns="http://www.w3.org/2000/svg" xmlns:xlink="http://www.w3.org/1999/xlink">
<g transform="translate(.5 .5)">
<style>/* <![CDATA[ */

    svg.railroad-diagram {
        background-color: hsl(30,20%,95%);
    }
    svg.railroad-diagram path {
        stroke-width: 2;
        stroke: black;
        fill: none;
    }
    svg.railroad-diagram text {
        font-size: 12px;
        text-anchor: middle;
        font-family: DejaVu Sans;
    }
    svg.railroad-diagram text.label {
        text-anchor:start;
    }
    svg.railroad-diagram text.comment {
        font-family: DejaVu Sans;
        font-size: 14px;
    }
    svg.railroad-diagram rect{
        stroke-width: 2;
        stroke: black;
        fill: rgb(210, 255, 210);
    }
    svg.railroad-diagram rect.group-box {
        stroke: gray;
        stroke-dasharray: 10 5;
        fill: none;
    }
    .terminal {
        font-family: DejaVu Sans;
    }
    svg.railroad-diagram g.altterminal rect {
        fill: rgb(251, 252, 207)
    }

/* ]]> */
</style><g>
<path d="M 20 139 v 20 m 0 -10 h 20"></path></g><path d="M 40 149 h 10"></path><g>
<path d="M 50 149 h 0.0"></path><path d="M 1300.0 149 h 0.0"></path><g>
<path d="M 50.0 149 h 0.0"></path><path d="M 1300.0 149 h 0.0"></path><path d="M 50.0 149 h 20"></path><g>
<path d="M 70.0 149 h 0.0"></path><path d="M 1280.0 149 h 0.0"></path><g>
<path d="M 70.0 149 h 0.0"></path><path d="M 206.5 149 h 0.0"></path><path d="M 70.0 149 h 20"></path><g class="terminal ">
<path d="M 90.0 149 h 12.75"></path><path d="M 173.75 149 h 12.75"></path><rect height="22" rx="10" ry="10" width="71.0" x="102.75" y="138"></rect><text x="138.25" y="153">'\n\\'</text></g><path d="M 186.5 149 h 20"></path><path d="M 70.0 149 a 10 10 0 0 1 10 10 v 10 a 10 10 0 0 0 10 10"></path><g class="terminal altterminal">
<path d="M 90.0 179 h 0.0"></path><path d="M 186.5 179 h 0.0"></path><rect height="22" rx="10" ry="10" width="96.5" x="90.0" y="168"></rect><text x="138.25" y="183">/${Ws}\\/</text></g><path d="M 186.5 179 a 10 10 0 0 0 10 -10 v -10 a 10 10 0 0 1 10 -10"></path></g><path d="M 206.5 149 h 10"></path><g>
<path d="M 216.5 149 h 0.0"></path><path d="M 669.5 149 h 0.0"></path><path d="M 216.5 149 a 10 10 0 0 0 10 -10 v -99 a 10 10 0 0 1 10 -10 h 272.0"></path><path d="M 386.0 418 h 263.5 a 10 10 0 0 0 10 -10 v -249 a 10 10 0 0 1 10 -10"></path><path d="M 216.5 149 h 10"></path><g>
<path d="M 226.5 149 h 10.0"></path><path d="M 356.0 149 h 10.0"></path><path d="M 236.5 149 a 10 10 0 0 0 10 -10 v -10 a 10 10 0 0 1 10 -10"></path><g class="terminal ">
<path d="M 256.5 119 h 4.25"></path><path d="M 331.75 119 h 4.25"></path><rect height="22" rx="10" ry="10" width="71.0" x="260.75" y="108"></rect><text x="296.25" y="123">"imt3"</text></g><path d="M 336.0 119 a 10 10 0 0 1 10 10 v 10 a 10 10 0 0 0 10 10"></path><path d="M 236.5 149 a 10 10 0 0 0 10 -10 v -40 a 10 10 0 0 1 10 -10"></path><g class="terminal ">
<path d="M 256.5 89 h 4.25"></path><path d="M 331.75 89 h 4.25"></path><rect height="22" rx="10" ry="10" width="71.0" x="260.75" y="78"></rect><text x="296.25" y="93">"imt2"</text></g><path d="M 336.0 89 a 10 10 0 0 1 10 10 v 40 a 10 10 0 0 0 10 10"></path><path d="M 236.5 149 a 10 10 0 0 0 10 -10 v -70 a 10 10 0 0 1 10 -10"></path><g class="terminal ">
<path d="M 256.5 59 h 4.25"></path><path d="M 331.75 59 h 4.25"></path><rect height="22" rx="10" ry="10" width="71.0" x="260.75" y="48"></rect><text x="296.25" y="63">"imt1"</text></g><path d="M 336.0 59 a 10 10 0 0 1 10 10 v 70 a 10 10 0 0 0 10 10"></path><path d="M 236.5 149 h 20"></path><g class="terminal ">
<path d="M 256.5 149 h 4.25"></path><path d="M 331.75 149 h 4.25"></path><rect height="22" rx="10" ry="10" width="71.0" x="260.75" y="138"></rect><text x="296.25" y="153">"imt4"</text></g><path d="M 336.0 149 h 20"></path><path d="M 236.5 149 a 10 10 0 0 1 10 10 v 10 a 10 10 0 0 0 10 10"></path><g class="terminal ">
<path d="M 256.5 179 h 0.0"></path><path d="M 336.0 179 h 0.0"></path><rect height="22" rx="10" ry="10" width="79.5" x="256.5" y="168"></rect><text x="296.25" y="183">"imte1"</text></g><path d="M 336.0 179 a 10 10 0 0 0 10 -10 v -10 a 10 10 0 0 1 10 -10"></path><path d="M 236.5 149 a 10 10 0 0 1 10 10 v 40 a 10 10 0 0 0 10 10"></path><g class="terminal ">
<path d="M 256.5 209 h 0.0"></path><path d="M 336.0 209 h 0.0"></path><rect height="22" rx="10" ry="10" width="79.5" x="256.5" y="198"></rect><text x="296.25" y="213">"imte2"</text></g><path d="M 336.0 209 a 10 10 0 0 0 10 -10 v -40 a 10 10 0 0 1 10 -10"></path><path d="M 236.5 149 a 10 10 0 0 1 10 10 v 70 a 10 10 0 0 0 10 10"></path><g class="terminal ">
<path d="M 256.5 239 h 4.25"></path><path d="M 331.75 239 h 4.25"></path><rect height="22" rx="10" ry="10" width="71.0" x="260.75" y="228"></rect><text x="296.25" y="243">"imte"</text></g><path d="M 336.0 239 a 10 10 0 0 0 10 -10 v -70 a 10 10 0 0 1 10 -10"></path><path d="M 236.5 149 a 10 10 0 0 1 10 10 v 100 a 10 10 0 0 0 10 10"></path><g class="terminal ">
<path d="M 256.5 269 h 8.5"></path><path d="M 327.5 269 h 8.5"></path><rect height="22" rx="10" ry="10" width="62.5" x="265.0" y="258"></rect><text x="296.25" y="273">"imt"</text></g><path d="M 336.0 269 a 10 10 0 0 0 10 -10 v -100 a 10 10 0 0 1 10 -10"></path><path d="M 236.5 149 a 10 10 0 0 1 10 10 v 130 a 10 10 0 0 0 10 10"></path><g class="terminal ">
<path d="M 256.5 299 h 12.75"></path><path d="M 323.25 299 h 12.75"></path><rect height="22" rx="10" ry="10" width="54.0" x="269.25" y="288"></rect><text x="296.25" y="303">"ib"</text></g><path d="M 336.0 299 a 10 10 0 0 0 10 -10 v -130 a 10 10 0 0 1 10 -10"></path><path d="M 236.5 149 a 10 10 0 0 1 10 10 v 160 a 10 10 0 0 0 10 10"></path><g class="terminal ">
<path d="M 256.5 329 h 12.75"></path><path d="M 323.25 329 h 12.75"></path><rect height="22" rx="10" ry="10" width="54.0" x="269.25" y="318"></rect><text x="296.25" y="333">"ie"</text></g><path d="M 336.0 329 a 10 10 0 0 0 10 -10 v -160 a 10 10 0 0 1 10 -10"></path><path d="M 236.5 149 a 10 10 0 0 1 10 10 v 190 a 10 10 0 0 0 10 10"></path><g class="terminal ">
<path d="M 256.5 359 h 8.5"></path><path d="M 327.5 359 h 8.5"></path><rect height="22" rx="10" ry="10" width="62.5" x="265.0" y="348"></rect><text x="296.25" y="363">"imi"</text></g><path d="M 336.0 359 a 10 10 0 0 0 10 -10 v -190 a 10 10 0 0 1 10 -10"></path><path d="M 236.5 149 a 10 10 0 0 1 10 10 v 220 a 10 10 0 0 0 10 10"></path><g class="terminal ">
<path d="M 256.5 389 h 8.5"></path><path d="M 327.5 389 h 8.5"></path><rect height="22" rx="10" ry="10" width="62.5" x="265.0" y="378"></rect><text x="296.25" y="393">"imq"</text></g><path d="M 336.0 389 a 10 10 0 0 0 10 -10 v -220 a 10 10 0 0 1 10 -10"></path></g><path d="M 366.0 149 a 10 10 0 0 1 10 10 v 249 a 10 10 0 0 0 10 10"></path><path d="M 366.0 30 a 10 10 0 0 1 10 10 v 99 a 10 10 0 0 0 10 10"></path><g>
<path d="M 386.0 149 h 10.0"></path><path d="M 498.5 149 h 10.0"></path><path d="M 396.0 149 a 10 10 0 0 0 10 -10 v -10 a 10 10 0 0 1 10 -10"></path><g class="terminal ">
<path d="M 416.0 119 h 0.0"></path><path d="M 478.5 119 h 0.0"></path><rect height="22" rx="10" ry="10" width="62.5" x="416.0" y="108"></rect><text x="447.25" y="123">"io2"</text></g><path d="M 478.5 119 a 10 10 0 0 1 10 10 v 10 a 10 10 0 0 0 10 10"></path><path d="M 396.0 149 a 10 10 0 0 0 10 -10 v -40 a 10 10 0 0 1 10 -10"></path><g class="terminal ">
<path d="M 416.0 89 h 0.0"></path><path d="M 478.5 89 h 0.0"></path><rect height="22" rx="10" ry="10" width="62.5" x="416.0" y="78"></rect><text x="447.25" y="93">"io1"</text></g><path d="M 478.5 89 a 10 10 0 0 1 10 10 v 40 a 10 10 0 0 0 10 10"></path><path d="M 396.0 149 a 10 10 0 0 0 10 -10 v -70 a 10 10 0 0 1 10 -10"></path><g class="terminal ">
<path d="M 416.0 59 h 4.25"></path><path d="M 474.25 59 h 4.25"></path><rect height="22" rx="10" ry="10" width="54.0" x="420.25" y="48"></rect><text x="447.25" y="63">"im"</text></g><path d="M 478.5 59 a 10 10 0 0 1 10 10 v 70 a 10 10 0 0 0 10 10"></path><path d="M 396.0 149 h 20"></path><g class="terminal ">
<path d="M 416.0 149 h 0.0"></path><path d="M 478.5 149 h 0.0"></path><rect height="22" rx="10" ry="10" width="62.5" x="416.0" y="138"></rect><text x="447.25" y="153">"io3"</text></g><path d="M 478.5 149 h 20"></path><path d="M 396.0 149 a 10 10 0 0 1 10 10 v 10 a 10 10 0 0 0 10 10"></path><g class="terminal ">
<path d="M 416.0 179 h 0.0"></path><path d="M 478.5 179 h 0.0"></path><rect height="22" rx="10" ry="10" width="62.5" x="416.0" y="168"></rect><text x="447.25" y="183">"io4"</text></g><path d="M 478.5 179 a 10 10 0 0 0 10 -10 v -10 a 10 10 0 0 1 10 -10"></path><path d="M 396.0 149 a 10 10 0 0 1 10 10 v 40 a 10 10 0 0 0 10 10"></path><g class="terminal ">
<path d="M 416.0 209 h 0.0"></path><path d="M 478.5 209 h 0.0"></path><rect height="22" rx="10" ry="10" width="62.5" x="416.0" y="198"></rect><text x="447.25" y="213">"iot"</text></g><path d="M 478.5 209 a 10 10 0 0 0 10 -10 v -40 a 10 10 0 0 1 10 -10"></path><path d="M 396.0 149 a 10 10 0 0 1 10 10 v 70 a 10 10 0 0 0 10 10"></path><g class="terminal ">
<path d="M 416.0 239 h 4.25"></path><path d="M 474.25 239 h 4.25"></path><rect height="22" rx="10" ry="10" width="54.0" x="420.25" y="228"></rect><text x="447.25" y="243">"io"</text></g><path d="M 478.5 239 a 10 10 0 0 0 10 -10 v -70 a 10 10 0 0 1 10 -10"></path><path d="M 396.0 149 a 10 10 0 0 1 10 10 v 100 a 10 10 0 0 0 10 10"></path><g class="terminal ">
<path d="M 416.0 269 h 0.0"></path><path d="M 478.5 269 h 0.0"></path><rect height="22" rx="10" ry="10" width="62.5" x="416.0" y="258"></rect><text x="447.25" y="273">"ipc"</text></g><path d="M 478.5 269 a 10 10 0 0 0 10 -10 v -100 a 10 10 0 0 1 10 -10"></path><path d="M 396.0 149 a 10 10 0 0 1 10 10 v 130 a 10 10 0 0 0 10 10"></path><g class="terminal ">
<path d="M 416.0 299 h 0.0"></path><path d="M 478.5 299 h 0.0"></path><rect height="22" rx="10" ry="10" width="62.5" x="416.0" y="288"></rect><text x="447.25" y="303">"ipi"</text></g><path d="M 478.5 299 a 10 10 0 0 0 10 -10 v -130 a 10 10 0 0 1 10 -10"></path><path d="M 396.0 149 a 10 10 0 0 1 10 10 v 160 a 10 10 0 0 0 10 10"></path><g class="terminal ">
<path d="M 416.0 329 h 0.0"></path><path d="M 478.5 329 h 0.0"></path><rect height="22" rx="10" ry="10" width="62.5" x="416.0" y="318"></rect><text x="447.25" y="333">"ipq"</text></g><path d="M 478.5 329 a 10 10 0 0 0 10 -10 v -160 a 10 10 0 0 1 10 -10"></path><path d="M 396.0 149 a 10 10 0 0 1 10 10 v 190 a 10 10 0 0 0 10 10"></path><g class="terminal ">
<path d="M 416.0 359 h 0.0"></path><path d="M 478.5 359 h 0.0"></path><rect height="22" rx="10" ry="10" width="62.5" x="416.0" y="348"></rect><text x="447.25" y="363">"ipr"</text></g><path d="M 478.5 359 a 10 10 0 0 0 10 -10 v -190 a 10 10 0 0 1 10 -10"></path><path d="M 396.0 149 a 10 10 0 0 1 10 10 v 220 a 10 10 0 0 0 10 10"></path><g class="terminal ">
<path d="M 416.0 389 h 0.0"></path><path d="M 478.5 389 h 0.0"></path><rect height="22" rx="10" ry="10" width="62.5" x="416.0" y="378"></rect><text x="447.25" y="393">"ipc"</text></g><path d="M 478.5 389 a 10 10 0 0 0 10 -10 v -220 a 10 10 0 0 1 10 -10"></path></g><path d="M 508.5 149 a 10 10 0 0 1 10 10 v 249 a 10 10 0 0 0 10 10"></path><path d="M 508.5 30 a 10 10 0 0 1 10 10 v 99 a 10 10 0 0 0 10 10"></path><g>
<path d="M 528.5 149 h 10.0"></path><path d="M 649.5 149 h 10.0"></path><path d="M 538.5 149 a 10 10 0 0 0 10 -10 v -10 a 10 10 0 0 1 10 -10"></path><g class="terminal ">
<path d="M 558.5 119 h 4.25"></path><path d="M 625.25 119 h 4.25"></path><rect height="22" rx="10" ry="10" width="62.5" x="562.75" y="108"></rect><text x="594.0" y="123">"iq2"</text></g><path d="M 629.5 119 a 10 10 0 0 1 10 10 v 10 a 10 10 0 0 0 10 10"></path><path d="M 538.5 149 a 10 10 0 0 0 10 -10 v -40 a 10 10 0 0 1 10 -10"></path><g class="terminal ">
<path d="M 558.5 89 h 4.25"></path><path d="M 625.25 89 h 4.25"></path><rect height="22" rx="10" ry="10" width="62.5" x="562.75" y="78"></rect><text x="594.0" y="93">"iq1"</text></g><path d="M 629.5 89 a 10 10 0 0 1 10 10 v 40 a 10 10 0 0 0 10 10"></path><path d="M 538.5 149 a 10 10 0 0 0 10 -10 v -70 a 10 10 0 0 1 10 -10"></path><g class="terminal ">
<path d="M 558.5 59 h 8.5"></path><path d="M 621.0 59 h 8.5"></path><rect height="22" rx="10" ry="10" width="54.0" x="567.0" y="48"></rect><text x="594.0" y="63">"ip"</text></g><path d="M 629.5 59 a 10 10 0 0 1 10 10 v 70 a 10 10 0 0 0 10 10"></path><path d="M 538.5 149 h 20"></path><g class="terminal ">
<path d="M 558.5 149 h 4.25"></path><path d="M 625.25 149 h 4.25"></path><rect height="22" rx="10" ry="10" width="62.5" x="562.75" y="138"></rect><text x="594.0" y="153">"iq3"</text></g><path d="M 629.5 149 h 20"></path><path d="M 538.5 149 a 10 10 0 0 1 10 10 v 10 a 10 10 0 0 0 10 10"></path><g class="terminal ">
<path d="M 558.5 179 h 8.5"></path><path d="M 621.0 179 h 8.5"></path><rect height="22" rx="10" ry="10" width="54.0" x="567.0" y="168"></rect><text x="594.0" y="183">"iq"</text></g><path d="M 629.5 179 a 10 10 0 0 0 10 -10 v -10 a 10 10 0 0 1 10 -10"></path><path d="M 538.5 149 a 10 10 0 0 1 10 10 v 40 a 10 10 0 0 0 10 10"></path><g class="terminal ">
<path d="M 558.5 209 h 4.25"></path><path d="M 625.25 209 h 4.25"></path><rect height="22" rx="10" ry="10" width="62.5" x="562.75" y="198"></rect><text x="594.0" y="213">"is1"</text></g><path d="M 629.5 209 a 10 10 0 0 0 10 -10 v -40 a 10 10 0 0 1 10 -10"></path><path d="M 538.5 149 a 10 10 0 0 1 10 10 v 70 a 10 10 0 0 0 10 10"></path><g class="terminal ">
<path d="M 558.5 239 h 4.25"></path><path d="M 625.25 239 h 4.25"></path><rect height="22" rx="10" ry="10" width="62.5" x="562.75" y="228"></rect><text x="594.0" y="243">"is2"</text></g><path d="M 629.5 239 a 10 10 0 0 0 10 -10 v -70 a 10 10 0 0 1 10 -10"></path><path d="M 538.5 149 a 10 10 0 0 1 10 10 v 100 a 10 10 0 0 0 10 10"></path><g class="terminal ">
<path d="M 558.5 269 h 8.5"></path><path d="M 621.0 269 h 8.5"></path><rect height="22" rx="10" ry="10" width="54.0" x="567.0" y="258"></rect><text x="594.0" y="273">"is"</text></g><path d="M 629.5 269 a 10 10 0 0 0 10 -10 v -100 a 10 10 0 0 1 10 -10"></path><path d="M 538.5 149 a 10 10 0 0 1 10 10 v 130 a 10 10 0 0 0 10 10"></path><g class="terminal ">
<path d="M 558.5 299 h 4.25"></path><path d="M 625.25 299 h 4.25"></path><rect height="22" rx="10" ry="10" width="62.5" x="562.75" y="288"></rect><text x="594.0" y="303">"iex"</text></g><path d="M 629.5 299 a 10 10 0 0 0 10 -10 v -130 a 10 10 0 0 1 10 -10"></path><path d="M 538.5 149 a 10 10 0 0 1 10 10 v 160 a 10 10 0 0 0 10 10"></path><g class="terminal ">
<path d="M 558.5 329 h 0.0"></path><path d="M 629.5 329 h 0.0"></path><rect height="22" rx="10" ry="10" width="71.0" x="558.5" y="318"></rect><text x="594.0" y="333">"ilit"</text></g><path d="M 629.5 329 a 10 10 0 0 0 10 -10 v -160 a 10 10 0 0 1 10 -10"></path></g><path d="M 659.5 149 h 10"></path></g><path d="M 669.5 149 h 10"></path><g>
<path d="M 679.5 149 h 0.0"></path><path d="M 790.5 149 h 0.0"></path><path d="M 679.5 149 h 20"></path><g class="terminal ">
<path d="M 699.5 149 h 12.75"></path><path d="M 757.75 149 h 12.75"></path><rect height="22" rx="10" ry="10" width="45.5" x="712.25" y="138"></rect><text x="735.0" y="153">' '</text></g><path d="M 770.5 149 h 20"></path><path d="M 679.5 149 a 10 10 0 0 1 10 10 v 10 a 10 10 0 0 0 10 10"></path><g class="terminal altterminal">
<path d="M 699.5 179 h 0.0"></path><path d="M 770.5 179 h 0.0"></path><rect height="22" rx="10" ry="10" width="71.0" x="699.5" y="168"></rect><text x="735.0" y="183">TAGEND</text></g><path d="M 770.5 179 a 10 10 0 0 0 10 -10 v -10 a 10 10 0 0 1 10 -10"></path></g><path d="M 790.5 149 h 10"></path><path d="M 800.5 149 h 10"></path><g>
<path d="M 810.5 149 h 0.0"></path><path d="M 1006.5 149 h 0.0"></path><path d="M 810.5 149 h 20"></path><g>
<path d="M 830.5 149 h 156.0"></path></g><path d="M 986.5 149 h 20"></path><path d="M 810.5 149 a 10 10 0 0 1 10 10 v 0 a 10 10 0 0 0 10 10"></path><g class="non-terminal ">
<path d="M 830.5 169 h 0.0"></path><path d="M 986.5 169 h 0.0"></path><rect height="22" width="156.0" x="830.5" y="158"></rect><text x="908.5" y="173">AttributesPreAll</text></g><path d="M 986.5 169 a 10 10 0 0 0 10 -10 v 0 a 10 10 0 0 1 10 -10"></path></g><path d="M 1006.5 149 h 10"></path><path d="M 1016.5 149 h 10"></path><g>
<path d="M 1026.5 149 h 0.0"></path><path d="M 1280.0 149 h 0.0"></path><path d="M 1026.5 149 a 10 10 0 0 0 10 -10 v -9 a 10 10 0 0 1 10 -10"></path><g>
<path d="M 1046.5 120 h 213.5"></path></g><path d="M 1260.0 120 a 10 10 0 0 1 10 10 v 9 a 10 10 0 0 0 10 10"></path><path d="M 1026.5 149 h 20"></path><g>
<path d="M 1046.5 149 h 0.0"></path><path d="M 1260.0 149 h 0.0"></path><path d="M 1046.5 149 h 10"></path><g>
<path d="M 1056.5 149 h 0.0"></path><path d="M 1250.0 149 h 0.0"></path><path d="M 1056.5 149 h 20"></path><g>
<path d="M 1076.5 149 h 0.0"></path><path d="M 1230.0 149 h 0.0"></path><g class="terminal ">
<path d="M 1076.5 149 h 0.0"></path><path d="M 1130.5 149 h 0.0"></path><rect height="22" rx="10" ry="10" width="54.0" x="1076.5" y="138"></rect><text x="1103.5" y="153">TEXT</text></g><path d="M 1130.5 149 h 10"></path><path d="M 1140.5 149 h 10"></path><g class="terminal ">
<path d="M 1150.5 149 h 0.0"></path><path d="M 1230.0 149 h 0.0"></path><rect height="22" rx="10" ry="10" width="79.5" x="1150.5" y="138"></rect><text x="1190.25" y="153">TEXTEND</text></g></g><path d="M 1230.0 149 h 20"></path><path d="M 1056.5 149 a 10 10 0 0 1 10 10 v 10 a 10 10 0 0 0 10 10"></path><g class="non-terminal ">
<path d="M 1076.5 179 h 28.5"></path><path d="M 1201.5 179 h 28.5"></path><rect height="22" width="96.5" x="1105.0" y="168"></rect><text x="1153.25" y="183">CharEmbed</text></g><path d="M 1230.0 179 a 10 10 0 0 0 10 -10 v -10 a 10 10 0 0 1 10 -10"></path><path d="M 1056.5 149 a 10 10 0 0 1 10 10 v 40 a 10 10 0 0 0 10 10"></path><g class="non-terminal ">
<path d="M 1076.5 209 h 28.5"></path><path d="M 1201.5 209 h 28.5"></path><rect height="22" width="96.5" x="1105.0" y="198"></rect><text x="1153.25" y="213">IntroChar</text></g><path d="M 1230.0 209 a 10 10 0 0 0 10 -10 v -40 a 10 10 0 0 1 10 -10"></path><path d="M 1056.5 149 a 10 10 0 0 1 10 10 v 70 a 10 10 0 0 0 10 10"></path><g class="non-terminal ">
<path d="M 1076.5 239 h 32.75"></path><path d="M 1197.25 239 h 32.75"></path><rect height="22" width="88.0" x="1109.25" y="228"></rect><text x="1153.25" y="243">Footnote</text></g><path d="M 1230.0 239 a 10 10 0 0 0 10 -10 v -70 a 10 10 0 0 1 10 -10"></path><path d="M 1056.5 149 a 10 10 0 0 1 10 10 v 100 a 10 10 0 0 0 10 10"></path><g class="non-terminal ">
<path d="M 1076.5 269 h 7.25"></path><path d="M 1222.75 269 h 7.25"></path><rect height="22" width="139.0" x="1083.75" y="258"></rect><text x="1153.25" y="273">CrossReference</text></g><path d="M 1230.0 269 a 10 10 0 0 0 10 -10 v -100 a 10 10 0 0 1 10 -10"></path><path d="M 1056.5 149 a 10 10 0 0 1 10 10 v 130 a 10 10 0 0 0 10 10"></path><g class="non-terminal ">
<path d="M 1076.5 299 h 41.25"></path><path d="M 1188.75 299 h 41.25"></path><rect height="22" width="71.0" x="1117.75" y="288"></rect><text x="1153.25" y="303">Figure</text></g><path d="M 1230.0 299 a 10 10 0 0 0 10 -10 v -130 a 10 10 0 0 1 10 -10"></path><path d="M 1056.5 149 a 10 10 0 0 1 10 10 v 160 a 10 10 0 0 0 10 10"></path><g class="non-terminal ">
<path d="M 1076.5 329 h 28.5"></path><path d="M 1201.5 329 h 28.5"></path><rect height="22" width="96.5" x="1105.0" y="318"></rect><text x="1153.25" y="333">Milestone</text></g><path d="M 1230.0 329 a 10 10 0 0 0 10 -10 v -160 a 10 10 0 0 1 10 -10"></path><path d="M 1056.5 149 a 10 10 0 0 1 10 10 v 190 a 10 10 0 0 0 10 10"></path><g class="non-terminal ">
<path d="M 1076.5 359 h 28.5"></path><path d="M 1201.5 359 h 28.5"></path><rect height="22" width="96.5" x="1105.0" y="348"></rect><text x="1153.25" y="363">Reference</text></g><path d="M 1230.0 359 a 10 10 0 0 0 10 -10 v -190 a 10 10 0 0 1 10 -10"></path><path d="M 1056.5 149 a 10 10 0 0 1 10 10 v 220 a 10 10 0 0 0 10 10"></path><g class="non-terminal ">
<path d="M 1076.5 389 h 37.0"></path><path d="M 1193.0 389 h 37.0"></path><rect height="22" width="79.5" x="1113.5" y="378"></rect><text x="1153.25" y="393">Sidebar</text></g><path d="M 1230.0 389 a 10 10 0 0 0 10 -10 v -220 a 10 10 0 0 1 10 -10"></path></g><path d="M 1250.0 149 h 10"></path><path d="M 1056.5 149 a 10 10 0 0 0 -10 10 v 249 a 10 10 0 0 0 10 10"></path><g>
<path d="M 1056.5 418 h 193.5"></path></g><path d="M 1250.0 418 a 10 10 0 0 0 10 -10 v -249 a 10 10 0 0 0 -10 -10"></path></g><path d="M 1260.0 149 h 20"></path></g></g><path d="M 1280.0 149 h 20"></path><path d="M 50.0 149 a 10 10 0 0 1 10 10 v 278 a 10 10 0 0 0 10 10"></path><g class="non-terminal ">
<path d="M 70.0 447 h 573.75"></path><path d="M 706.25 447 h 573.75"></path><rect height="22" width="62.5" x="643.75" y="436"></rect><text x="675.0" y="451">Table</text></g><path d="M 1280.0 447 a 10 10 0 0 0 10 -10 v -278 a 10 10 0 0 1 10 -10"></path><path d="M 50.0 149 a 10 10 0 0 1 10 10 v 308 a 10 10 0 0 0 10 10"></path><g class="non-terminal ">
<path d="M 70.0 477 h 556.75"></path><path d="M 723.25 477 h 556.75"></path><rect height="22" width="96.5" x="626.75" y="466"></rect><text x="675.0" y="481">IntroList</text></g><path d="M 1280.0 477 a 10 10 0 0 0 10 -10 v -308 a 10 10 0 0 1 10 -10"></path><path d="M 50.0 149 a 10 10 0 0 1 10 10 v 338 a 10 10 0 0 0 10 10"></path><g class="non-terminal ">
<path d="M 70.0 507 h 569.5"></path><path d="M 710.5 507 h 569.5"></path><rect height="22" width="71.0" x="639.5" y="496"></rect><text x="675.0" y="511">Remark</text></g><path d="M 1280.0 507 a 10 10 0 0 0 10 -10 v -338 a 10 10 0 0 1 10 -10"></path></g></g><path d="M 1300.0 149 h 10"></path><path d="M 1310.0 149 h 20 m 0 -10 v 20"></path></g></svg>