<svg class="railroad-diagram" height="340" viewBox="0 0 772.0 340" width="772.0" xmlns="http://www.w3.org/2000/svg" xmlns:xlink="http://www.w3.org/1999/xlink">
<g transform="translate(.5 .5)">
<style>/* <![CDATA[ */

    svg.railroad-diagram {
        background-color: hsl(30,20%,95%);
    }
    svg.railroad-diagram path {
        stroke-width: 2;
        stroke: black;
        fill: none;
    }
    svg.railroad-diagram text {
        font-size: 12px;
        text-anchor: middle;
        font-family: DejaVu Sans;
    }
    svg.railroad-diagram text.label {
        text-anchor:start;
    }
    svg.railroad-diagram text.comment {
        font-family: DejaVu Sans;
        font-size: 14px;
    }
    svg.railroad-diagram rect{
        stroke-width: 2;
        stroke: black;
        fill: rgb(210, 255, 210);
    }
    svg.railroad-diagram rect.group-box {
        stroke: gray;
        stroke-dasharray: 10 5;
        fill: none;
    }
    .terminal {
        font-family: DejaVu Sans;
    }
    svg.railroad-diagram g.altterminal rect {
        fill: rgb(251, 252, 207)
    }

/* ]]> */
</style><g>
<path d="M 20 49 v 20 m 0 -10 h 20"></path></g><path d="M 40 59 h 10"></path><g>
<path d="M 50 59 h 0.0"></path><path d="M 722.0 59 h 0.0"></path><g>
<path d="M 50.0 59 h 0.0"></path><path d="M 186.5 59 h 0.0"></path><path d="M 50.0 59 h 20"></path><g class="terminal ">
<path d="M 70.0 59 h 12.75"></path><path d="M 153.75 59 h 12.75"></path><rect height="22" rx="10" ry="10" width="71.0" x="82.75" y="48"></rect><text x="118.25" y="63">'\n\\'</text></g><path d="M 166.5 59 h 20"></path><path d="M 50.0 59 a 10 10 0 0 1 10 10 v 10 a 10 10 0 0 0 10 10"></path><g class="terminal altterminal">
<path d="M 70.0 89 h 0.0"></path><path d="M 166.5 89 h 0.0"></path><rect height="22" rx="10" ry="10" width="96.5" x="70.0" y="78"></rect><text x="118.25" y="93">/${Ws}\\/</text></g><path d="M 166.5 89 a 10 10 0 0 0 10 -10 v -10 a 10 10 0 0 1 10 -10"></path></g><path d="M 186.5 59 h 10"></path><path d="M 196.5 59 h 10"></path><g>
<path d="M 206.5 59 h 0.0"></path><path d="M 317.5 59 h 0.0"></path><path d="M 206.5 59 h 20"></path><g class="terminal ">
<path d="M 226.5 59 h 4.25"></path><path d="M 293.25 59 h 4.25"></path><rect height="22" rx="10" ry="10" width="62.5" x="230.75" y="48"></rect><text x="262.0" y="63">"mt1"</text></g><path d="M 297.5 59 h 20"></path><path d="M 206.5 59 a 10 10 0 0 1 10 10 v 10 a 10 10 0 0 0 10 10"></path><g class="terminal ">
<path d="M 226.5 89 h 4.25"></path><path d="M 293.25 89 h 4.25"></path><rect height="22" rx="10" ry="10" width="62.5" x="230.75" y="78"></rect><text x="262.0" y="93">"mt2"</text></g><path d="M 297.5 89 a 10 10 0 0 0 10 -10 v -10 a 10 10 0 0 1 10 -10"></path><path d="M 206.5 59 a 10 10 0 0 1 10 10 v 40 a 10 10 0 0 0 10 10"></path><g class="terminal ">
<path d="M 226.5 119 h 4.25"></path><path d="M 293.25 119 h 4.25"></path><rect height="22" rx="10" ry="10" width="62.5" x="230.75" y="108"></rect><text x="262.0" y="123">"mt3"</text></g><path d="M 297.5 119 a 10 10 0 0 0 10 -10 v -40 a 10 10 0 0 1 10 -10"></path><path d="M 206.5 59 a 10 10 0 0 1 10 10 v 70 a 10 10 0 0 0 10 10"></path><g class="terminal ">
<path d="M 226.5 149 h 4.25"></path><path d="M 293.25 149 h 4.25"></path><rect height="22" rx="10" ry="10" width="62.5" x="230.75" y="138"></rect><text x="262.0" y="153">"mt4"</text></g><path d="M 297.5 149 a 10 10 0 0 0 10 -10 v -70 a 10 10 0 0 1 10 -10"></path><path d="M 206.5 59 a 10 10 0 0 1 10 10 v 100 a 10 10 0 0 0 10 10"></path><g class="terminal ">
<path d="M 226.5 179 h 8.5"></path><path d="M 289.0 179 h 8.5"></path><rect height="22" rx="10" ry="10" width="54.0" x="235.0" y="168"></rect><text x="262.0" y="183">"mt"</text></g><path d="M 297.5 179 a 10 10 0 0 0 10 -10 v -100 a 10 10 0 0 1 10 -10"></path><path d="M 206.5 59 a 10 10 0 0 1 10 10 v 130 a 10 10 0 0 0 10 10"></path><g class="terminal ">
<path d="M 226.5 209 h 0.0"></path><path d="M 297.5 209 h 0.0"></path><rect height="22" rx="10" ry="10" width="71.0" x="226.5" y="198"></rect><text x="262.0" y="213">"imt1"</text></g><path d="M 297.5 209 a 10 10 0 0 0 10 -10 v -130 a 10 10 0 0 1 10 -10"></path><path d="M 206.5 59 a 10 10 0 0 1 10 10 v 160 a 10 10 0 0 0 10 10"></path><g class="terminal ">
<path d="M 226.5 239 h 0.0"></path><path d="M 297.5 239 h 0.0"></path><rect height="22" rx="10" ry="10" width="71.0" x="226.5" y="228"></rect><text x="262.0" y="243">"imt2"</text></g><path d="M 297.5 239 a 10 10 0 0 0 10 -10 v -160 a 10 10 0 0 1 10 -10"></path><path d="M 206.5 59 a 10 10 0 0 1 10 10 v 190 a 10 10 0 0 0 10 10"></path><g class="terminal ">
<path d="M 226.5 269 h 4.25"></path><path d="M 293.25 269 h 4.25"></path><rect height="22" rx="10" ry="10" width="62.5" x="230.75" y="258"></rect><text x="262.0" y="273">"imt"</text></g><path d="M 297.5 269 a 10 10 0 0 0 10 -10 v -190 a 10 10 0 0 1 10 -10"></path><path d="M 206.5 59 a 10 10 0 0 1 10 10 v 220 a 10 10 0 0 0 10 10"></path><g class="terminal ">
<path d="M 226.5 299 h 4.25"></path><path d="M 293.25 299 h 4.25"></path><rect height="22" rx="10" ry="10" width="62.5" x="230.75" y="288"></rect><text x="262.0" y="303">"rem"</text></g><path d="M 297.5 299 a 10 10 0 0 0 10 -10 v -220 a 10 10 0 0 1 10 -10"></path></g><path d="M 317.5 59 h 10"></path><path d="M 327.5 59 h 10"></path><g>
<path d="M 337.5 59 h 0.0"></path><path d="M 448.5 59 h 0.0"></path><path d="M 337.5 59 h 20"></path><g class="terminal ">
<path d="M 357.5 59 h 12.75"></path><path d="M 415.75 59 h 12.75"></path><rect height="22" rx="10" ry="10" width="45.5" x="370.25" y="48"></rect><text x="393.0" y="63">' '</text></g><path d="M 428.5 59 h 20"></path><path d="M 337.5 59 a 10 10 0 0 1 10 10 v 10 a 10 10 0 0 0 10 10"></path><g class="terminal altterminal">
<path d="M 357.5 89 h 0.0"></path><path d="M 428.5 89 h 0.0"></path><rect height="22" rx="10" ry="10" width="71.0" x="357.5" y="78"></rect><text x="393.0" y="93">TAGEND</text></g><path d="M 428.5 89 a 10 10 0 0 0 10 -10 v -10 a 10 10 0 0 1 10 -10"></path></g><path d="M 448.5 59 h 10"></path><path d="M 458.5 59 h 10"></path><g>
<path d="M 468.5 59 h 0.0"></path><path d="M 722.0 59 h 0.0"></path><path d="M 468.5 59 a 10 10 0 0 0 10 -10 v -9 a 10 10 0 0 1 10 -10"></path><g>
<path d="M 488.5 30 h 213.5"></path></g><path d="M 702.0 30 a 10 10 0 0 1 10 10 v 9 a 10 10 0 0 0 10 10"></path><path d="M 468.5 59 h 20"></path><g>
<path d="M 488.5 59 h 0.0"></path><path d="M 702.0 59 h 0.0"></path><path d="M 488.5 59 h 10"></path><g>
<path d="M 498.5 59 h 0.0"></path><path d="M 692.0 59 h 0.0"></path><path d="M 498.5 59 h 20"></path><g class="non-terminal ">
<path d="M 518.5 59 h 32.75"></path><path d="M 639.25 59 h 32.75"></path><rect height="22" width="88.0" x="551.25" y="48"></rect><text x="595.25" y="63">Footnote</text></g><path d="M 672.0 59 h 20"></path><path d="M 498.5 59 a 10 10 0 0 1 10 10 v 10 a 10 10 0 0 0 10 10"></path><g class="non-terminal ">
<path d="M 518.5 89 h 7.25"></path><path d="M 664.75 89 h 7.25"></path><rect height="22" width="139.0" x="525.75" y="78"></rect><text x="595.25" y="93">CrossReference</text></g><path d="M 672.0 89 a 10 10 0 0 0 10 -10 v -10 a 10 10 0 0 1 10 -10"></path><path d="M 498.5 59 a 10 10 0 0 1 10 10 v 40 a 10 10 0 0 0 10 10"></path><g class="non-terminal ">
<path d="M 518.5 119 h 49.75"></path><path d="M 622.25 119 h 49.75"></path><rect height="22" width="54.0" x="568.25" y="108"></rect><text x="595.25" y="123">Char</text></g><path d="M 672.0 119 a 10 10 0 0 0 10 -10 v -40 a 10 10 0 0 1 10 -10"></path><path d="M 498.5 59 a 10 10 0 0 1 10 10 v 70 a 10 10 0 0 0 10 10"></path><g class="non-terminal ">
<path d="M 518.5 149 h 45.5"></path><path d="M 626.5 149 h 45.5"></path><rect height="22" width="62.5" x="564.0" y="138"></rect><text x="595.25" y="153">Break</text></g><path d="M 672.0 149 a 10 10 0 0 0 10 -10 v -70 a 10 10 0 0 1 10 -10"></path><path d="M 498.5 59 a 10 10 0 0 1 10 10 v 100 a 10 10 0 0 0 10 10"></path><g>
<path d="M 518.5 179 h 0.0"></path><path d="M 672.0 179 h 0.0"></path><g class="terminal ">
<path d="M 518.5 179 h 0.0"></path><path d="M 572.5 179 h 0.0"></path><rect height="22" rx="10" ry="10" width="54.0" x="518.5" y="168"></rect><text x="545.5" y="183">TEXT</text></g><path d="M 572.5 179 h 10"></path><path d="M 582.5 179 h 10"></path><g class="terminal ">
<path d="M 592.5 179 h 0.0"></path><path d="M 672.0 179 h 0.0"></path><rect height="22" rx="10" ry="10" width="79.5" x="592.5" y="168"></rect><text x="632.25" y="183">TEXTEND</text></g></g><path d="M 672.0 179 a 10 10 0 0 0 10 -10 v -100 a 10 10 0 0 1 10 -10"></path></g><path d="M 692.0 59 h 10"></path><path d="M 498.5 59 a 10 10 0 0 0 -10 10 v 129 a 10 10 0 0 0 10 10"></path><g>
<path d="M 498.5 208 h 193.5"></path></g><path d="M 692.0 208 a 10 10 0 0 0 10 -10 v -129 a 10 10 0 0 0 -10 -10"></path></g><path d="M 702.0 59 h 20"></path></g></g><path d="M 722.0 59 h 10"></path><path d="M 732.0 59 h 20 m 0 -10 v 20"></path></g></svg>