<svg class="railroad-diagram" height="340" viewBox="0 0 681.0 340" width="681.0" xmlns="http://www.w3.org/2000/svg" xmlns:xlink="http://www.w3.org/1999/xlink">
<g transform="translate(.5 .5)">
<style>/* <![CDATA[ */

    svg.railroad-diagram {
        background-color: hsl(30,20%,95%);
    }
    svg.railroad-diagram path {
        stroke-width: 2;
        stroke: black;
        fill: none;
    }
    svg.railroad-diagram text {
        font-size: 12px;
        text-anchor: middle;
        font-family: DejaVu Sans;
    }
    svg.railroad-diagram text.label {
        text-anchor:start;
    }
    svg.railroad-diagram text.comment {
        font-family: DejaVu Sans;
        font-size: 14px;
    }
    svg.railroad-diagram rect{
        stroke-width: 2;
        stroke: black;
        fill: rgb(210, 255, 210);
    }
    svg.railroad-diagram rect.group-box {
        stroke: gray;
        stroke-dasharray: 10 5;
        fill: none;
    }
    .terminal {
        font-family: DejaVu Sans;
    }
    svg.railroad-diagram g.altterminal rect {
        fill: rgb(251, 252, 207)
    }

/* ]]> */
</style><g>
<path d="M 20 49 v 20 m 0 -10 h 20"></path></g><path d="M 40 59 h 10"></path><g>
<path d="M 50 59 h 0.0"></path><path d="M 631.0 59 h 0.0"></path><g class="terminal ">
<path d="M 50.0 59 h 0.0"></path><path d="M 95.5 59 h 0.0"></path><rect height="22" rx="10" ry="10" width="45.5" x="50.0" y="48"></rect><text x="72.75" y="63">'\'</text></g><path d="M 95.5 59 h 10"></path><path d="M 105.5 59 h 10"></path><g>
<path d="M 115.5 59 h 0.0"></path><path d="M 226.5 59 h 0.0"></path><path d="M 115.5 59 h 20"></path><g class="terminal ">
<path d="M 135.5 59 h 4.25"></path><path d="M 202.25 59 h 4.25"></path><rect height="22" rx="10" ry="10" width="62.5" x="139.75" y="48"></rect><text x="171.0" y="63">"mt1"</text></g><path d="M 206.5 59 h 20"></path><path d="M 115.5 59 a 10 10 0 0 1 10 10 v 10 a 10 10 0 0 0 10 10"></path><g class="terminal ">
<path d="M 135.5 89 h 4.25"></path><path d="M 202.25 89 h 4.25"></path><rect height="22" rx="10" ry="10" width="62.5" x="139.75" y="78"></rect><text x="171.0" y="93">"mt2"</text></g><path d="M 206.5 89 a 10 10 0 0 0 10 -10 v -10 a 10 10 0 0 1 10 -10"></path><path d="M 115.5 59 a 10 10 0 0 1 10 10 v 40 a 10 10 0 0 0 10 10"></path><g class="terminal ">
<path d="M 135.5 119 h 4.25"></path><path d="M 202.25 119 h 4.25"></path><rect height="22" rx="10" ry="10" width="62.5" x="139.75" y="108"></rect><text x="171.0" y="123">"mt3"</text></g><path d="M 206.5 119 a 10 10 0 0 0 10 -10 v -40 a 10 10 0 0 1 10 -10"></path><path d="M 115.5 59 a 10 10 0 0 1 10 10 v 70 a 10 10 0 0 0 10 10"></path><g class="terminal ">
<path d="M 135.5 149 h 4.25"></path><path d="M 202.25 149 h 4.25"></path><rect height="22" rx="10" ry="10" width="62.5" x="139.75" y="138"></rect><text x="171.0" y="153">"mt4"</text></g><path d="M 206.5 149 a 10 10 0 0 0 10 -10 v -70 a 10 10 0 0 1 10 -10"></path><path d="M 115.5 59 a 10 10 0 0 1 10 10 v 100 a 10 10 0 0 0 10 10"></path><g class="terminal ">
<path d="M 135.5 179 h 8.5"></path><path d="M 198.0 179 h 8.5"></path><rect height="22" rx="10" ry="10" width="54.0" x="144.0" y="168"></rect><text x="171.0" y="183">"mt"</text></g><path d="M 206.5 179 a 10 10 0 0 0 10 -10 v -100 a 10 10 0 0 1 10 -10"></path><path d="M 115.5 59 a 10 10 0 0 1 10 10 v 130 a 10 10 0 0 0 10 10"></path><g class="terminal ">
<path d="M 135.5 209 h 0.0"></path><path d="M 206.5 209 h 0.0"></path><rect height="22" rx="10" ry="10" width="71.0" x="135.5" y="198"></rect><text x="171.0" y="213">"imt1"</text></g><path d="M 206.5 209 a 10 10 0 0 0 10 -10 v -130 a 10 10 0 0 1 10 -10"></path><path d="M 115.5 59 a 10 10 0 0 1 10 10 v 160 a 10 10 0 0 0 10 10"></path><g class="terminal ">
<path d="M 135.5 239 h 0.0"></path><path d="M 206.5 239 h 0.0"></path><rect height="22" rx="10" ry="10" width="71.0" x="135.5" y="228"></rect><text x="171.0" y="243">"imt2"</text></g><path d="M 206.5 239 a 10 10 0 0 0 10 -10 v -160 a 10 10 0 0 1 10 -10"></path><path d="M 115.5 59 a 10 10 0 0 1 10 10 v 190 a 10 10 0 0 0 10 10"></path><g class="terminal ">
<path d="M 135.5 269 h 4.25"></path><path d="M 202.25 269 h 4.25"></path><rect height="22" rx="10" ry="10" width="62.5" x="139.75" y="258"></rect><text x="171.0" y="273">"imt"</text></g><path d="M 206.5 269 a 10 10 0 0 0 10 -10 v -190 a 10 10 0 0 1 10 -10"></path><path d="M 115.5 59 a 10 10 0 0 1 10 10 v 220 a 10 10 0 0 0 10 10"></path><g class="terminal ">
<path d="M 135.5 299 h 4.25"></path><path d="M 202.25 299 h 4.25"></path><rect height="22" rx="10" ry="10" width="62.5" x="139.75" y="288"></rect><text x="171.0" y="303">"rem"</text></g><path d="M 206.5 299 a 10 10 0 0 0 10 -10 v -220 a 10 10 0 0 1 10 -10"></path></g><path d="M 226.5 59 h 10"></path><path d="M 236.5 59 h 10"></path><g>
<path d="M 246.5 59 h 0.0"></path><path d="M 357.5 59 h 0.0"></path><path d="M 246.5 59 h 20"></path><g class="terminal ">
<path d="M 266.5 59 h 12.75"></path><path d="M 324.75 59 h 12.75"></path><rect height="22" rx="10" ry="10" width="45.5" x="279.25" y="48"></rect><text x="302.0" y="63">' '</text></g><path d="M 337.5 59 h 20"></path><path d="M 246.5 59 a 10 10 0 0 1 10 10 v 10 a 10 10 0 0 0 10 10"></path><g class="terminal altterminal">
<path d="M 266.5 89 h 0.0"></path><path d="M 337.5 89 h 0.0"></path><rect height="22" rx="10" ry="10" width="71.0" x="266.5" y="78"></rect><text x="302.0" y="93">TAGEND</text></g><path d="M 337.5 89 a 10 10 0 0 0 10 -10 v -10 a 10 10 0 0 1 10 -10"></path></g><path d="M 357.5 59 h 10"></path><path d="M 367.5 59 h 10"></path><g>
<path d="M 377.5 59 h 0.0"></path><path d="M 631.0 59 h 0.0"></path><path d="M 377.5 59 a 10 10 0 0 0 10 -10 v -9 a 10 10 0 0 1 10 -10"></path><g>
<path d="M 397.5 30 h 213.5"></path></g><path d="M 611.0 30 a 10 10 0 0 1 10 10 v 9 a 10 10 0 0 0 10 10"></path><path d="M 377.5 59 h 20"></path><g>
<path d="M 397.5 59 h 0.0"></path><path d="M 611.0 59 h 0.0"></path><path d="M 397.5 59 h 10"></path><g>
<path d="M 407.5 59 h 0.0"></path><path d="M 601.0 59 h 0.0"></path><path d="M 407.5 59 h 20"></path><g class="non-terminal ">
<path d="M 427.5 59 h 32.75"></path><path d="M 548.25 59 h 32.75"></path><rect height="22" width="88.0" x="460.25" y="48"></rect><text x="504.25" y="63">Footnote</text></g><path d="M 581.0 59 h 20"></path><path d="M 407.5 59 a 10 10 0 0 1 10 10 v 10 a 10 10 0 0 0 10 10"></path><g class="non-terminal ">
<path d="M 427.5 89 h 7.25"></path><path d="M 573.75 89 h 7.25"></path><rect height="22" width="139.0" x="434.75" y="78"></rect><text x="504.25" y="93">CrossReference</text></g><path d="M 581.0 89 a 10 10 0 0 0 10 -10 v -10 a 10 10 0 0 1 10 -10"></path><path d="M 407.5 59 a 10 10 0 0 1 10 10 v 40 a 10 10 0 0 0 10 10"></path><g class="non-terminal ">
<path d="M 427.5 119 h 49.75"></path><path d="M 531.25 119 h 49.75"></path><rect height="22" width="54.0" x="477.25" y="108"></rect><text x="504.25" y="123">Char</text></g><path d="M 581.0 119 a 10 10 0 0 0 10 -10 v -40 a 10 10 0 0 1 10 -10"></path><path d="M 407.5 59 a 10 10 0 0 1 10 10 v 70 a 10 10 0 0 0 10 10"></path><g class="non-terminal ">
<path d="M 427.5 149 h 45.5"></path><path d="M 535.5 149 h 45.5"></path><rect height="22" width="62.5" x="473.0" y="138"></rect><text x="504.25" y="153">Break</text></g><path d="M 581.0 149 a 10 10 0 0 0 10 -10 v -70 a 10 10 0 0 1 10 -10"></path><path d="M 407.5 59 a 10 10 0 0 1 10 10 v 100 a 10 10 0 0 0 10 10"></path><g>
<path d="M 427.5 179 h 0.0"></path><path d="M 581.0 179 h 0.0"></path><g class="terminal ">
<path d="M 427.5 179 h 0.0"></path><path d="M 481.5 179 h 0.0"></path><rect height="22" rx="10" ry="10" width="54.0" x="427.5" y="168"></rect><text x="454.5" y="183">TEXT</text></g><path d="M 481.5 179 h 10"></path><path d="M 491.5 179 h 10"></path><g class="terminal ">
<path d="M 501.5 179 h 0.0"></path><path d="M 581.0 179 h 0.0"></path><rect height="22" rx="10" ry="10" width="79.5" x="501.5" y="168"></rect><text x="541.25" y="183">TEXTEND</text></g></g><path d="M 581.0 179 a 10 10 0 0 0 10 -10 v -100 a 10 10 0 0 1 10 -10"></path></g><path d="M 601.0 59 h 10"></path><path d="M 407.5 59 a 10 10 0 0 0 -10 10 v 129 a 10 10 0 0 0 10 10"></path><g>
<path d="M 407.5 208 h 193.5"></path></g><path d="M 601.0 208 a 10 10 0 0 0 10 -10 v -129 a 10 10 0 0 0 -10 -10"></path></g><path d="M 611.0 59 h 20"></path></g></g><path d="M 631.0 59 h 10"></path><path d="M 641.0 59 h 20 m 0 -10 v 20"></path></g></svg>