<svg class="railroad-diagram" height="238" viewBox="0 0 859.5 238" width="859.5" xmlns="http://www.w3.org/2000/svg" xmlns:xlink="http://www.w3.org/1999/xlink">
<g transform="translate(.5 .5)">
<style>/* <![CDATA[ */

    svg.railroad-diagram {
        background-color: hsl(30,20%,95%);
    }
    svg.railroad-diagram path {
        stroke-width: 2;
        stroke: black;
        fill: none;
    }
    svg.railroad-diagram text {
        font-size: 12px;
        text-anchor: middle;
        font-family: DejaVu Sans;
    }
    svg.railroad-diagram text.label {
        text-anchor:start;
    }
    svg.railroad-diagram text.comment {
        font-family: DejaVu Sans;
        font-size: 14px;
    }
    svg.railroad-diagram rect{
        stroke-width: 2;
        stroke: black;
        fill: rgb(210, 255, 210);
    }
    svg.railroad-diagram rect.group-box {
        stroke: gray;
        stroke-dasharray: 10 5;
        fill: none;
    }
    .terminal {
        font-family: DejaVu Sans;
    }
    svg.railroad-diagram g.altterminal rect {
        fill: rgb(251, 252, 207)
    }

/* ]]> */
</style><g>
<path d="M 20 49 v 20 m 0 -10 h 20"></path></g><path d="M 40 59 h 10"></path><g>
<path d="M 50 59 h 0.0"></path><path d="M 809.5 59 h 0.0"></path><g>
<path d="M 50.0 59 h 0.0"></path><path d="M 186.5 59 h 0.0"></path><path d="M 50.0 59 h 20"></path><g class="terminal ">
<path d="M 70.0 59 h 12.75"></path><path d="M 153.75 59 h 12.75"></path><rect height="22" rx="10" ry="10" width="71.0" x="82.75" y="48"></rect><text x="118.25" y="63">'\n\\'</text></g><path d="M 166.5 59 h 20"></path><path d="M 50.0 59 a 10 10 0 0 1 10 10 v 10 a 10 10 0 0 0 10 10"></path><g class="terminal altterminal">
<path d="M 70.0 89 h 0.0"></path><path d="M 166.5 89 h 0.0"></path><rect height="22" rx="10" ry="10" width="96.5" x="70.0" y="78"></rect><text x="118.25" y="93">/${Ws}\\/</text></g><path d="M 166.5 89 a 10 10 0 0 0 10 -10 v -10 a 10 10 0 0 1 10 -10"></path></g><path d="M 186.5 59 h 10"></path><path d="M 196.5 59 h 10"></path><g class="non-terminal ">
<path d="M 206.5 59 h 0.0"></path><path d="M 405.0 59 h 0.0"></path><rect height="22" width="198.5" x="206.5" y="48"></rect><text x="305.75" y="63">Title.para.style.enum</text></g><path d="M 405.0 59 h 10"></path><path d="M 415.0 59 h 10"></path><g>
<path d="M 425.0 59 h 0.0"></path><path d="M 536.0 59 h 0.0"></path><path d="M 425.0 59 h 20"></path><g class="terminal ">
<path d="M 445.0 59 h 12.75"></path><path d="M 503.25 59 h 12.75"></path><rect height="22" rx="10" ry="10" width="45.5" x="457.75" y="48"></rect><text x="480.5" y="63">' '</text></g><path d="M 516.0 59 h 20"></path><path d="M 425.0 59 a 10 10 0 0 1 10 10 v 10 a 10 10 0 0 0 10 10"></path><g class="terminal altterminal">
<path d="M 445.0 89 h 0.0"></path><path d="M 516.0 89 h 0.0"></path><rect height="22" rx="10" ry="10" width="71.0" x="445.0" y="78"></rect><text x="480.5" y="93">TAGEND</text></g><path d="M 516.0 89 a 10 10 0 0 0 10 -10 v -10 a 10 10 0 0 1 10 -10"></path></g><path d="M 536.0 59 h 10"></path><path d="M 546.0 59 h 10"></path><g>
<path d="M 556.0 59 h 0.0"></path><path d="M 809.5 59 h 0.0"></path><path d="M 556.0 59 a 10 10 0 0 0 10 -10 v -9 a 10 10 0 0 1 10 -10"></path><g>
<path d="M 576.0 30 h 213.5"></path></g><path d="M 789.5 30 a 10 10 0 0 1 10 10 v 9 a 10 10 0 0 0 10 10"></path><path d="M 556.0 59 h 20"></path><g>
<path d="M 576.0 59 h 0.0"></path><path d="M 789.5 59 h 0.0"></path><path d="M 576.0 59 h 10"></path><g>
<path d="M 586.0 59 h 0.0"></path><path d="M 779.5 59 h 0.0"></path><path d="M 586.0 59 h 20"></path><g>
<path d="M 606.0 59 h 0.0"></path><path d="M 759.5 59 h 0.0"></path><g class="terminal ">
<path d="M 606.0 59 h 0.0"></path><path d="M 660.0 59 h 0.0"></path><rect height="22" rx="10" ry="10" width="54.0" x="606.0" y="48"></rect><text x="633.0" y="63">TEXT</text></g><path d="M 660.0 59 h 10"></path><path d="M 670.0 59 h 10"></path><g class="terminal ">
<path d="M 680.0 59 h 0.0"></path><path d="M 759.5 59 h 0.0"></path><rect height="22" rx="10" ry="10" width="79.5" x="680.0" y="48"></rect><text x="719.75" y="63">TEXTEND</text></g></g><path d="M 759.5 59 h 20"></path><path d="M 586.0 59 a 10 10 0 0 1 10 10 v 10 a 10 10 0 0 0 10 10"></path><g class="non-terminal ">
<path d="M 606.0 89 h 32.75"></path><path d="M 726.75 89 h 32.75"></path><rect height="22" width="88.0" x="638.75" y="78"></rect><text x="682.75" y="93">Footnote</text></g><path d="M 759.5 89 a 10 10 0 0 0 10 -10 v -10 a 10 10 0 0 1 10 -10"></path><path d="M 586.0 59 a 10 10 0 0 1 10 10 v 40 a 10 10 0 0 0 10 10"></path><g class="non-terminal ">
<path d="M 606.0 119 h 7.25"></path><path d="M 752.25 119 h 7.25"></path><rect height="22" width="139.0" x="613.25" y="108"></rect><text x="682.75" y="123">CrossReference</text></g><path d="M 759.5 119 a 10 10 0 0 0 10 -10 v -40 a 10 10 0 0 1 10 -10"></path><path d="M 586.0 59 a 10 10 0 0 1 10 10 v 70 a 10 10 0 0 0 10 10"></path><g class="non-terminal ">
<path d="M 606.0 149 h 49.75"></path><path d="M 709.75 149 h 49.75"></path><rect height="22" width="54.0" x="655.75" y="138"></rect><text x="682.75" y="153">Char</text></g><path d="M 759.5 149 a 10 10 0 0 0 10 -10 v -70 a 10 10 0 0 1 10 -10"></path><path d="M 586.0 59 a 10 10 0 0 1 10 10 v 100 a 10 10 0 0 0 10 10"></path><g class="non-terminal ">
<path d="M 606.0 179 h 45.5"></path><path d="M 714.0 179 h 45.5"></path><rect height="22" width="62.5" x="651.5" y="168"></rect><text x="682.75" y="183">Break</text></g><path d="M 759.5 179 a 10 10 0 0 0 10 -10 v -100 a 10 10 0 0 1 10 -10"></path></g><path d="M 779.5 59 h 10"></path><path d="M 586.0 59 a 10 10 0 0 0 -10 10 v 129 a 10 10 0 0 0 10 10"></path><g>
<path d="M 586.0 208 h 193.5"></path></g><path d="M 779.5 208 a 10 10 0 0 0 10 -10 v -129 a 10 10 0 0 0 -10 -10"></path></g><path d="M 789.5 59 h 20"></path></g></g><path d="M 809.5 59 h 10"></path><path d="M 819.5 59 h 20 m 0 -10 v 20"></path></g></svg>