<svg class="railroad-diagram" height="478" viewBox="0 0 510.0 478" width="510.0" xmlns="http://www.w3.org/2000/svg" xmlns:xlink="http://www.w3.org/1999/xlink">
<g transform="translate(.5 .5)">
<style>/* <![CDATA[ */

    svg.railroad-diagram {
        background-color: hsl(30,20%,95%);
    }
    svg.railroad-diagram path {
        stroke-width: 2;
        stroke: black;
        fill: none;
    }
    svg.railroad-diagram text {
        font-size: 12px;
        text-anchor: middle;
        font-family: DejaVu Sans;
    }
    svg.railroad-diagram text.label {
        text-anchor:start;
    }
    svg.railroad-diagram text.comment {
        font-family: DejaVu Sans;
        font-size: 14px;
    }
    svg.railroad-diagram rect{
        stroke-width: 2;
        stroke: black;
        fill: rgb(210, 210, 255);
    }
    svg.railroad-diagram rect.group-box {
        stroke: gray;
        stroke-dasharray: 10 5;
        fill: none;
    }
    .terminal {
        font-family: DejaVu Sans;
    }
    svg.railroad-diagram g.altterminal rect {
        fill: rgb(251, 252, 207)
    }

/* ]]> */
</style><g>
<path d="M 20 239 v 20 m 0 -10 h 20"></path></g><path d="M 40 249 h 10"></path><g>
<path d="M 50 249 h 0.0"></path><path d="M 460.0 249 h 0.0"></path><g>
<path d="M 50.0 249 h 0.0"></path><path d="M 460.0 249 h 0.0"></path><path d="M 50.0 249 h 20"></path><g>
<path d="M 70.0 249 h 0.0"></path><path d="M 440.0 249 h 0.0"></path><g class="terminal ">
<path d="M 70.0 249 h 0.0"></path><path d="M 141.0 249 h 0.0"></path><rect height="22" rx="10" ry="10" width="71.0" x="70.0" y="238"></rect><text x="105.5" y="253">&#60;para></text></g><path d="M 141.0 249 h 10"></path><path d="M 151.0 249 h 10"></path><g>
<path d="M 161.0 249 h 0.0"></path><path d="M 440.0 249 h 0.0"></path><path d="M 161.0 249 a 10 10 0 0 0 10 -10 v -168 a 10 10 0 0 1 10 -10"></path><g>
<path d="M 181.0 61 h 0.0"></path><path d="M 374.5 61 h 0.0"></path><g class="terminal ">
<path d="M 181.0 61 h 0.0"></path><path d="M 252.0 61 h 0.0"></path><rect height="22" rx="10" ry="10" width="71.0" x="181.0" y="50"></rect><text x="216.5" y="65">@style</text></g><path d="M 252.0 61 h 10"></path><path d="M 262.0 61 h 10"></path><g>
<path d="M 272.0 61 h 0.0"></path><path d="M 272.0 61 h 20"></path><g class="terminal ">
<path d="M 292.0 61 h 0.0"></path><path d="M 354.5 61 h 0.0"></path><rect height="22" rx="10" ry="10" width="62.5" x="292.0" y="50"></rect><text x="323.25" y="65">"mt1"</text></g><path d="M 272.0 61 a 10 10 0 0 1 10 10 v 10 a 10 10 0 0 0 10 10"></path><g class="terminal ">
<path d="M 292.0 91 h 0.0"></path><path d="M 354.5 91 h 0.0"></path><rect height="22" rx="10" ry="10" width="62.5" x="292.0" y="80"></rect><text x="323.25" y="95">"mt2"</text></g><path d="M 272.0 61 a 10 10 0 0 1 10 10 v 40 a 10 10 0 0 0 10 10"></path><g class="terminal ">
<path d="M 292.0 121 h 0.0"></path><path d="M 354.5 121 h 0.0"></path><rect height="22" rx="10" ry="10" width="62.5" x="292.0" y="110"></rect><text x="323.25" y="125">"mt3"</text></g><path d="M 272.0 61 a 10 10 0 0 1 10 10 v 70 a 10 10 0 0 0 10 10"></path><g class="terminal ">
<path d="M 292.0 151 h 0.0"></path><path d="M 354.5 151 h 0.0"></path><rect height="22" rx="10" ry="10" width="62.5" x="292.0" y="140"></rect><text x="323.25" y="155">"mt4"</text></g><path d="M 272.0 61 a 10 10 0 0 1 10 10 v 100 a 10 10 0 0 0 10 10"></path><g class="terminal ">
<path d="M 292.0 181 h 0.0"></path><path d="M 346.0 181 h 0.0"></path><rect height="22" rx="10" ry="10" width="54.0" x="292.0" y="170"></rect><text x="319.0" y="185">"mt"</text></g></g></g><path d="M 161.0 249 h 20"></path><g>
<path d="M 181.0 249 h 0.0"></path><path d="M 420.0 249 h 0.0"></path><path d="M 181.0 249 a 10 10 0 0 0 10 -10 v -9 a 10 10 0 0 1 10 -10"></path><g>
<path d="M 201.0 220 h 199.0"></path></g><path d="M 400.0 220 a 10 10 0 0 1 10 10 v 9 a 10 10 0 0 0 10 10"></path><path d="M 181.0 249 h 20"></path><g>
<path d="M 201.0 249 h 0.0"></path><path d="M 400.0 249 h 0.0"></path><path d="M 201.0 249 h 10"></path><g>
<path d="M 211.0 249 h 0.0"></path><path d="M 390.0 249 h 0.0"></path><path d="M 211.0 249 h 20"></path><g class="terminal ">
<path d="M 231.0 249 h 42.5"></path><path d="M 327.5 249 h 42.5"></path><rect height="22" rx="10" ry="10" width="54.0" x="273.5" y="238"></rect><text x="300.5" y="253">TEXT</text></g><path d="M 370.0 249 h 20"></path><path d="M 211.0 249 a 10 10 0 0 1 10 10 v 10 a 10 10 0 0 0 10 10"></path><g class="non-terminal ">
<path d="M 231.0 279 h 25.5"></path><path d="M 344.5 279 h 25.5"></path><rect height="22" width="88.0" x="256.5" y="268"></rect><text x="300.5" y="283">Footnote</text></g><path d="M 370.0 279 a 10 10 0 0 0 10 -10 v -10 a 10 10 0 0 1 10 -10"></path><path d="M 211.0 249 a 10 10 0 0 1 10 10 v 40 a 10 10 0 0 0 10 10"></path><g class="non-terminal ">
<path d="M 231.0 309 h 0.0"></path><path d="M 370.0 309 h 0.0"></path><rect height="22" width="139.0" x="231.0" y="298"></rect><text x="300.5" y="313">CrossReference</text></g><path d="M 370.0 309 a 10 10 0 0 0 10 -10 v -40 a 10 10 0 0 1 10 -10"></path><path d="M 211.0 249 a 10 10 0 0 1 10 10 v 70 a 10 10 0 0 0 10 10"></path><g class="non-terminal ">
<path d="M 231.0 339 h 42.5"></path><path d="M 327.5 339 h 42.5"></path><rect height="22" width="54.0" x="273.5" y="328"></rect><text x="300.5" y="343">Char</text></g><path d="M 370.0 339 a 10 10 0 0 0 10 -10 v -70 a 10 10 0 0 1 10 -10"></path><path d="M 211.0 249 a 10 10 0 0 1 10 10 v 100 a 10 10 0 0 0 10 10"></path><g class="non-terminal ">
<path d="M 231.0 369 h 38.25"></path><path d="M 331.75 369 h 38.25"></path><rect height="22" width="62.5" x="269.25" y="358"></rect><text x="300.5" y="373">Break</text></g><path d="M 370.0 369 a 10 10 0 0 0 10 -10 v -100 a 10 10 0 0 1 10 -10"></path></g><path d="M 390.0 249 h 10"></path><path d="M 211.0 249 a 10 10 0 0 0 -10 10 v 129 a 10 10 0 0 0 10 10"></path><g>
<path d="M 211.0 398 h 179.0"></path></g><path d="M 390.0 398 a 10 10 0 0 0 10 -10 v -129 a 10 10 0 0 0 -10 -10"></path></g><path d="M 400.0 249 h 20"></path></g><path d="M 420.0 249 h 20"></path></g></g><path d="M 440.0 249 h 20"></path><path d="M 50.0 249 a 10 10 0 0 1 10 10 v 168 a 10 10 0 0 0 10 10"></path><g class="non-terminal ">
<path d="M 70.0 437 h 149.5"></path><path d="M 290.5 437 h 149.5"></path><rect height="22" width="71.0" x="219.5" y="426"></rect><text x="255.0" y="441">Remark</text></g><path d="M 440.0 437 a 10 10 0 0 0 10 -10 v -168 a 10 10 0 0 1 10 -10"></path></g></g><path d="M 460.0 249 h 10"></path><path d="M 470.0 249 h 20 m 0 -10 v 20"></path></g></svg>