<svg class="railroad-diagram" height="288" viewBox="0 0 520.5 288" width="520.5" xmlns="http://www.w3.org/2000/svg" xmlns:xlink="http://www.w3.org/1999/xlink">
<g transform="translate(.5 .5)">
<style>/* <![CDATA[ */

    svg.railroad-diagram {
        background-color: hsl(30,20%,95%);
    }
    svg.railroad-diagram path {
        stroke-width: 2;
        stroke: black;
        fill: none;
    }
    svg.railroad-diagram text {
        font-size: 12px;
        text-anchor: middle;
        font-family: DejaVu Sans;
    }
    svg.railroad-diagram text.label {
        text-anchor:start;
    }
    svg.railroad-diagram text.comment {
        font-family: DejaVu Sans;
        font-size: 14px;
    }
    svg.railroad-diagram rect{
        stroke-width: 2;
        stroke: black;
        fill: rgb(210, 210, 255);
    }
    svg.railroad-diagram rect.group-box {
        stroke: gray;
        stroke-dasharray: 10 5;
        fill: none;
    }
    .terminal {
        font-family: DejaVu Sans;
    }
    svg.railroad-diagram g.altterminal rect {
        fill: rgb(251, 252, 207)
    }

/* ]]> */
</style><g>
<path d="M 20 89 v 20 m 0 -10 h 20"></path></g><path d="M 40 99 h 10"></path><g>
<path d="M 50 99 h 0.0"></path><path d="M 470.5 99 h 0.0"></path><g>
<path d="M 50.0 99 h 0.0"></path><path d="M 470.5 99 h 0.0"></path><g class="terminal ">
<path d="M 50.0 99 h 0.0"></path><path d="M 121.0 99 h 0.0"></path><rect height="22" rx="10" ry="10" width="71.0" x="50.0" y="88"></rect><text x="85.5" y="103">&#60;para></text></g><path d="M 121.0 99 h 10"></path><path d="M 131.0 99 h 10"></path><g>
<path d="M 141.0 99 h 0.0"></path><path d="M 470.5 99 h 0.0"></path><path d="M 141.0 99 a 10 10 0 0 0 10 -10 v -38 a 10 10 0 0 1 10 -10"></path><g>
<path d="M 161.0 41 h 0.0"></path><path d="M 450.5 41 h 0.0"></path><g class="terminal ">
<path d="M 161.0 41 h 0.0"></path><path d="M 232.0 41 h 0.0"></path><rect height="22" rx="10" ry="10" width="71.0" x="161.0" y="30"></rect><text x="196.5" y="45">@style</text></g><path d="M 232.0 41 h 10"></path><path d="M 242.0 41 h 10"></path><g class="non-terminal ">
<path d="M 252.0 41 h 0.0"></path><path d="M 450.5 41 h 0.0"></path><rect height="22" width="198.5" x="252.0" y="30"></rect><text x="351.25" y="45">Title.para.style.enum</text></g></g><path d="M 141.0 99 h 20"></path><g>
<path d="M 161.0 99 h 25.25"></path><path d="M 425.25 99 h 25.25"></path><path d="M 186.25 99 a 10 10 0 0 0 10 -10 v -9 a 10 10 0 0 1 10 -10"></path><g>
<path d="M 206.25 70 h 199.0"></path></g><path d="M 405.25 70 a 10 10 0 0 1 10 10 v 9 a 10 10 0 0 0 10 10"></path><path d="M 186.25 99 h 20"></path><g>
<path d="M 206.25 99 h 0.0"></path><path d="M 405.25 99 h 0.0"></path><path d="M 206.25 99 h 10"></path><g>
<path d="M 216.25 99 h 0.0"></path><path d="M 395.25 99 h 0.0"></path><path d="M 216.25 99 h 20"></path><g class="terminal ">
<path d="M 236.25 99 h 42.5"></path><path d="M 332.75 99 h 42.5"></path><rect height="22" rx="10" ry="10" width="54.0" x="278.75" y="88"></rect><text x="305.75" y="103">TEXT</text></g><path d="M 375.25 99 h 20"></path><path d="M 216.25 99 a 10 10 0 0 1 10 10 v 10 a 10 10 0 0 0 10 10"></path><g class="non-terminal ">
<path d="M 236.25 129 h 25.5"></path><path d="M 349.75 129 h 25.5"></path><rect height="22" width="88.0" x="261.75" y="118"></rect><text x="305.75" y="133">Footnote</text></g><path d="M 375.25 129 a 10 10 0 0 0 10 -10 v -10 a 10 10 0 0 1 10 -10"></path><path d="M 216.25 99 a 10 10 0 0 1 10 10 v 40 a 10 10 0 0 0 10 10"></path><g class="non-terminal ">
<path d="M 236.25 159 h 0.0"></path><path d="M 375.25 159 h 0.0"></path><rect height="22" width="139.0" x="236.25" y="148"></rect><text x="305.75" y="163">CrossReference</text></g><path d="M 375.25 159 a 10 10 0 0 0 10 -10 v -40 a 10 10 0 0 1 10 -10"></path><path d="M 216.25 99 a 10 10 0 0 1 10 10 v 70 a 10 10 0 0 0 10 10"></path><g class="non-terminal ">
<path d="M 236.25 189 h 42.5"></path><path d="M 332.75 189 h 42.5"></path><rect height="22" width="54.0" x="278.75" y="178"></rect><text x="305.75" y="193">Char</text></g><path d="M 375.25 189 a 10 10 0 0 0 10 -10 v -70 a 10 10 0 0 1 10 -10"></path><path d="M 216.25 99 a 10 10 0 0 1 10 10 v 100 a 10 10 0 0 0 10 10"></path><g class="non-terminal ">
<path d="M 236.25 219 h 38.25"></path><path d="M 337.0 219 h 38.25"></path><rect height="22" width="62.5" x="274.5" y="208"></rect><text x="305.75" y="223">Break</text></g><path d="M 375.25 219 a 10 10 0 0 0 10 -10 v -100 a 10 10 0 0 1 10 -10"></path></g><path d="M 395.25 99 h 10"></path><path d="M 216.25 99 a 10 10 0 0 0 -10 10 v 129 a 10 10 0 0 0 10 10"></path><g>
<path d="M 216.25 248 h 179.0"></path></g><path d="M 395.25 248 a 10 10 0 0 0 10 -10 v -129 a 10 10 0 0 0 -10 -10"></path></g><path d="M 405.25 99 h 20"></path></g><path d="M 450.5 99 h 20"></path></g></g></g><path d="M 470.5 99 h 10"></path><path d="M 480.5 99 h 20 m 0 -10 v 20"></path></g></svg>