<svg class="railroad-diagram" height="112" viewBox="0 0 740.0 112" width="740.0" xmlns="http://www.w3.org/2000/svg" xmlns:xlink="http://www.w3.org/1999/xlink">
<g transform="translate(.5 .5)">
<style>/* <![CDATA[ */

    svg.railroad-diagram {
        background-color: hsl(30,20%,95%);
    }
    svg.railroad-diagram path {
        stroke-width: 2;
        stroke: black;
        fill: none;
    }
    svg.railroad-diagram text {
        font-size: 12px;
        text-anchor: middle;
        font-family: DejaVu Sans;
    }
    svg.railroad-diagram text.label {
        text-anchor:start;
    }
    svg.railroad-diagram text.comment {
        font-family: DejaVu Sans;
        font-size: 14px;
    }
    svg.railroad-diagram rect{
        stroke-width: 2;
        stroke: black;
        fill: rgb(210, 255, 210);
    }
    svg.railroad-diagram rect.group-box {
        stroke: gray;
        stroke-dasharray: 10 5;
        fill: none;
    }
    .terminal {
        font-family: DejaVu Sans;
    }
    svg.railroad-diagram g.altterminal rect {
        fill: rgb(251, 252, 207)
    }

/* ]]> */
</style><g>
<path d="M 20 31 v 20 m 0 -10 h 20"></path></g><path d="M 40 41 h 10"></path><g>
<path d="M 50 41 h 0.0"></path><path d="M 690.0 41 h 0.0"></path><g class="terminal ">
<path d="M 50.0 41 h 0.0"></path><path d="M 129.5 41 h 0.0"></path><rect height="22" rx="10" ry="10" width="79.5" x="50.0" y="30"></rect><text x="89.75" y="45">'\\cat'</text></g><path d="M 129.5 41 h 10"></path><path d="M 139.5 41 h 10"></path><g class="terminal ">
<path d="M 149.5 41 h 0.0"></path><path d="M 203.5 41 h 0.0"></path><rect height="22" rx="10" ry="10" width="54.0" x="149.5" y="30"></rect><text x="176.5" y="45">TEXT</text></g><path d="M 203.5 41 h 10"></path><path d="M 213.5 41 h 10"></path><g class="terminal ">
<path d="M 223.5 41 h 0.0"></path><path d="M 303.0 41 h 0.0"></path><rect height="22" rx="10" ry="10" width="79.5" x="223.5" y="30"></rect><text x="263.25" y="45">TEXTEND</text></g><path d="M 303.0 41 h 10"></path><path d="M 313.0 41 h 10"></path><g class="terminal ">
<path d="M 323.0 41 h 0.0"></path><path d="M 360.0 41 h 0.0"></path><rect height="22" rx="10" ry="10" width="37.0" x="323.0" y="30"></rect><text x="341.5" y="45">''</text></g><path d="M 360.0 41 h 10"></path><path d="M 370.0 41 h 10"></path><g>
<path d="M 380.0 41 h 0.0"></path><path d="M 559.0 41 h 0.0"></path><path d="M 380.0 41 h 20"></path><g class="terminal ">
<path d="M 400.0 41 h 25.5"></path><path d="M 513.5 41 h 25.5"></path><rect height="22" rx="10" ry="10" width="88.0" x="425.5" y="30"></rect><text x="469.5" y="45">'\\cat&#42;'</text></g><path d="M 539.0 41 h 20"></path><path d="M 380.0 41 a 10 10 0 0 1 10 10 v 10 a 10 10 0 0 0 10 10"></path><g class="terminal altterminal">
<path d="M 400.0 71 h 0.0"></path><path d="M 539.0 71 h 0.0"></path><rect height="22" rx="10" ry="10" width="139.0" x="400.0" y="60"></rect><text x="469.5" y="75">/\\cat\&#42;${Hs}/</text></g><path d="M 539.0 71 a 10 10 0 0 0 10 -10 v -10 a 10 10 0 0 1 10 -10"></path></g><path d="M 559.0 41 h 10"></path><path d="M 569.0 41 h 10"></path><g>
<path d="M 579.0 41 h 0.0"></path><path d="M 690.0 41 h 0.0"></path><path d="M 579.0 41 h 20"></path><g class="terminal ">
<path d="M 599.0 41 h 12.75"></path><path d="M 657.25 41 h 12.75"></path><rect height="22" rx="10" ry="10" width="45.5" x="611.75" y="30"></rect><text x="634.5" y="45">' '</text></g><path d="M 670.0 41 h 20"></path><path d="M 579.0 41 a 10 10 0 0 1 10 10 v 10 a 10 10 0 0 0 10 10"></path><g class="terminal altterminal">
<path d="M 599.0 71 h 0.0"></path><path d="M 670.0 71 h 0.0"></path><rect height="22" rx="10" ry="10" width="71.0" x="599.0" y="60"></rect><text x="634.5" y="75">TAGEND</text></g><path d="M 670.0 71 a 10 10 0 0 0 10 -10 v -10 a 10 10 0 0 1 10 -10"></path></g></g><path d="M 690.0 41 h 10"></path><path d="M 700.0 41 h 20 m 0 -10 v 20"></path></g></svg>