<svg class="railroad-diagram" height="62" viewBox="0 0 270.5 62" width="270.5" xmlns="http://www.w3.org/2000/svg" xmlns:xlink="http://www.w3.org/1999/xlink">
<g transform="translate(.5 .5)">
<style>/* <![CDATA[ */
    svg.railroad-diagram {
        background-color:hsl(30,20%,95%);
    }
    svg.railroad-diagram path {
        stroke-width: 2;
        stroke: black;
        fill: none;
    }
    svg.railroad-diagram text {
        font-size: 12px;
        text-anchor: middle;
        font-family: DejaVu Sans;
    }
    svg.railroad-diagram text.label {
        text-anchor:start;
    }
    svg.railroad-diagram text.comment {
        font-family: DejaVu Sans;
        font-size: 14px;
    }
    svg.railroad-diagram rect{
        stroke-width: 2;
        stroke:black;
        fill: rgb(210, 210, 255);
    }
    svg.railroad-diagram rect.group-box {
        stroke: gray;
        stroke-dasharray: 10 5;
        fill: none;
    }
    .terminal {
        font-family: DejaVu Sans;
    }

/* ]]> */
</style><g>
<path d="M 20 21 v 20 m 0 -10 h 20"></path></g><path d="M 40 31 h 10"></path><g>
<path d="M 50 31 h 0.0"></path><path d="M 220.5 31 h 0.0"></path><g class="terminal ">
<path d="M 50.0 31 h 0.0"></path><path d="M 146.5 31 h 0.0"></path><rect height="22" rx="10" ry="10" width="96.5" x="50.0" y="20"></rect><text x="98.25" y="35">@category</text></g><path d="M 146.5 31 h 10"></path><path d="M 156.5 31 h 10"></path><g class="terminal ">
<path d="M 166.5 31 h 0.0"></path><path d="M 220.5 31 h 0.0"></path><rect height="22" rx="10" ry="10" width="54.0" x="166.5" y="20"></rect><text x="193.5" y="35">text</text></g></g><path d="M 220.5 31 h 10"></path><path d="M 230.5 31 h 20 m 0 -10 v 20"></path></g></svg>