<svg class="railroad-diagram" height="112" viewBox="0 0 466.0 112" width="466.0" xmlns="http://www.w3.org/2000/svg" xmlns:xlink="http://www.w3.org/1999/xlink">
<g transform="translate(.5 .5)">
<style>/* <![CDATA[ */
    svg.railroad-diagram {
        background-color:hsl(30,20%,95%);
    }
    svg.railroad-diagram path {
        stroke-width: 2;
        stroke: black;
        fill: none;
    }
    svg.railroad-diagram text {
        font-size: 12px;
        text-anchor: middle;
        font-family: DejaVu Sans;
    }
    svg.railroad-diagram text.label {
        text-anchor:start;
    }
    svg.railroad-diagram text.comment {
        font-family: DejaVu Sans;
        font-size: 14px;
    }
    svg.railroad-diagram rect{
        stroke-width: 2;
        stroke:black;
        fill: rgb(210, 255, 210);
    }
    svg.railroad-diagram rect.group-box {
        stroke: gray;
        stroke-dasharray: 10 5;
        fill: none;
    }
    .terminal {
        font-family: DejaVu Sans;
    }

/* ]]> */
</style><g>
<path d="M 20 54 v 20 m 0 -10 h 20"></path></g><path d="M 40 64 h 10"></path><g>
<path d="M 50 64 h 0.0"></path><path d="M 416.0 64 h 0.0"></path><rect class="group-box" height="56" rx="10" ry="10" width="366.0" x="50.0" y="36"></rect><g>
<path d="M 50.0 64 h 10.0"></path><path d="M 406.0 64 h 10.0"></path><g class="terminal ">
<path d="M 60.0 64 h 0.0"></path><path d="M 116.0 64 h 0.0"></path><rect height="22" rx="10" ry="10" width="56.0" x="60.0" y="53"></rect><text x="88.0" y="68">"\cat"</text></g><path d="M 116.0 64 h 10"></path><path d="M 126.0 64 h 10"></path><g class="terminal ">
<path d="M 136.0 64 h 0.0"></path><path d="M 168.0 64 h 0.0"></path><rect height="22" rx="10" ry="10" width="32.0" x="136.0" y="53"></rect><text x="152.0" y="68">WS</text></g><path d="M 168.0 64 h 10"></path><path d="M 178.0 64 h 10"></path><g class="terminal ">
<path d="M 188.0 64 h 0.0"></path><path d="M 232.0 64 h 0.0"></path><rect height="22" rx="10" ry="10" width="44.0" x="188.0" y="53"></rect><text x="210.0" y="68">Text</text></g><path d="M 232.0 64 h 10"></path><g>
<path d="M 242.0 64 h 0.0"></path><path d="M 334.0 64 h 0.0"></path><path d="M 242.0 64 a 10 10 0 0 0 10 -10 v 0 a 10 10 0 0 1 10 -10"></path><g>
<path d="M 262.0 44 h 52.0"></path></g><path d="M 314.0 44 a 10 10 0 0 1 10 10 v 0 a 10 10 0 0 0 10 10"></path><path d="M 242.0 64 h 20"></path><g>
<path d="M 262.0 64 h 0.0"></path><path d="M 314.0 64 h 0.0"></path><path d="M 262.0 64 h 10"></path><g class="terminal ">
<path d="M 272.0 64 h 0.0"></path><path d="M 304.0 64 h 0.0"></path><rect height="22" rx="10" ry="10" width="32.0" x="272.0" y="53"></rect><text x="288.0" y="68">WS</text></g><path d="M 304.0 64 h 10"></path><path d="M 272.0 64 a 10 10 0 0 0 -10 10 v 0 a 10 10 0 0 0 10 10"></path><g>
<path d="M 272.0 84 h 32.0"></path></g><path d="M 304.0 84 a 10 10 0 0 0 10 -10 v 0 a 10 10 0 0 0 -10 -10"></path></g><path d="M 314.0 64 h 20"></path></g><path d="M 334.0 64 h 10"></path><g class="terminal ">
<path d="M 344.0 64 h 0.0"></path><path d="M 406.0 64 h 0.0"></path><rect height="22" rx="10" ry="10" width="62.0" x="344.0" y="53"></rect><text x="375.0" y="68">"\cat&#42;"</text></g></g><g class="non-terminal ">
<path d="M 50.0 28 h 0.0"></path><path d="M 116.0 28 h 0.0"></path><text class="comment" x="83.0" y="33">category</text></g></g><path d="M 416.0 64 h 10"></path><path d="M 426.0 64 h 20 m 0 -10 v 20"></path></g></svg>