<svg class="railroad-diagram" height="94" viewBox="0 0 258.0 94" width="258.0" xmlns="http://www.w3.org/2000/svg" xmlns:xlink="http://www.w3.org/1999/xlink">
<g transform="translate(.5 .5)">
<style>/* <![CDATA[ */
    svg.railroad-diagram {
        background-color:hsl(30,20%,95%);
    }
    svg.railroad-diagram path {
        stroke-width: 2;
        stroke: black;
        fill: none;
    }
    svg.railroad-diagram text {
        font-size: 12px;
        text-anchor: middle;
        font-family: DejaVu Sans;
    }
    svg.railroad-diagram text.label {
        text-anchor:start;
    }
    svg.railroad-diagram text.comment {
        font-family: DejaVu Sans;
        font-size: 14px;
    }
    svg.railroad-diagram rect{
        stroke-width: 2;
        stroke:black;
        fill: rgb(210, 210, 255);
    }
    svg.railroad-diagram rect.group-box {
        stroke: gray;
        stroke-dasharray: 10 5;
        fill: none;
    }
    .terminal {
        font-family: DejaVu Sans;
    }

/* ]]> */
</style><g>
<path d="M 20 45 v 20 m 0 -10 h 20"></path></g><path d="M 40 55 h 10"></path><g>
<path d="M 50 55 h 0.0"></path><path d="M 208.0 55 h 0.0"></path><rect class="group-box" height="38" rx="10" ry="10" width="158.0" x="50.0" y="36"></rect><g>
<path d="M 50.0 55 h 10.0"></path><path d="M 198.0 55 h 10.0"></path><g class="terminal ">
<path d="M 60.0 55 h 0.0"></path><path d="M 134.0 55 h 0.0"></path><rect height="22" rx="10" ry="10" width="74.0" x="60.0" y="44"></rect><text x="97.0" y="59">@category</text></g><path d="M 134.0 55 h 10"></path><path d="M 144.0 55 h 10"></path><g class="terminal ">
<path d="M 154.0 55 h 0.0"></path><path d="M 198.0 55 h 0.0"></path><rect height="22" rx="10" ry="10" width="44.0" x="154.0" y="44"></rect><text x="176.0" y="59">text</text></g></g><g class="non-terminal ">
<path d="M 50.0 28 h 0.0"></path><path d="M 116.0 28 h 0.0"></path><text class="comment" x="83.0" y="33">category</text></g></g><path d="M 208.0 55 h 10"></path><path d="M 218.0 55 h 20 m 0 -10 v 20"></path></g></svg>