<svg class="railroad-diagram" height="272" viewBox="0 0 785.5 272" width="785.5" xmlns="http://www.w3.org/2000/svg" xmlns:xlink="http://www.w3.org/1999/xlink">
<g transform="translate(.5 .5)">
<style>/* <![CDATA[ */
    svg.railroad-diagram {
        background-color:hsl(30,20%,95%);
    }
    svg.railroad-diagram path {
        stroke-width: 2;
        stroke: black;
        fill: none;
    }
    svg.railroad-diagram text {
        font-size: 12px;
        text-anchor: middle;
        font-family: DejaVu Sans;
    }
    svg.railroad-diagram text.label {
        text-anchor:start;
    }
    svg.railroad-diagram text.comment {
        font-family: DejaVu Sans;
        font-size: 14px;
    }
    svg.railroad-diagram rect{
        stroke-width: 2;
        stroke:black;
        fill: rgb(210, 210, 255);
    }
    svg.railroad-diagram rect.group-box {
        stroke: gray;
        stroke-dasharray: 10 5;
        fill: none;
    }
    .terminal {
        font-family: DejaVu Sans;
    }

/* ]]> */
</style><g>
<path d="M 20 171 v 20 m 0 -10 h 20"></path></g><g>
<path d="M 40 181 h 0.0"></path><path d="M 745.5 221 h 0.0"></path><path d="M 40.0 181 h 20"></path><g>
<path d="M 60.0 181 h 0.0"></path><path d="M 725.5 221 h 0.0"></path><g class="terminal ">
<path d="M 60.0 181 h 0.0"></path><path d="M 156.5 181 h 0.0"></path><rect height="22" rx="10" ry="10" width="96.5" x="60.0" y="170"></rect><text x="108.25" y="185">&#60;chapter></text></g><path d="M 156.5 181 h 10"></path><g>
<path d="M 166.5 181 h 0.0"></path><path d="M 725.5 221 h 0.0"></path><path d="M 166.5 181 a 10 10 0 0 0 10 -10 v -10 a 10 10 0 0 1 10 -10"></path><g>
<path d="M 186.5 151 h 0.0"></path><path d="M 374.0 151 h 0.0"></path><g class="terminal ">
<path d="M 186.5 151 h 0.0"></path><path d="M 300.0 151 h 0.0"></path><rect height="22" rx="10" ry="10" width="113.5" x="186.5" y="140"></rect><text x="243.25" y="155">@pubnumber?</text></g><path d="M 300.0 151 h 10"></path><path d="M 310.0 151 h 10"></path><g class="terminal ">
<path d="M 320.0 151 h 0.0"></path><path d="M 374.0 151 h 0.0"></path><rect height="22" rx="10" ry="10" width="54.0" x="320.0" y="140"></rect><text x="347.0" y="155">text</text></g></g><path d="M 166.5 181 a 10 10 0 0 0 10 -10 v -40 a 10 10 0 0 1 10 -10"></path><g>
<path d="M 186.5 121 h 0.0"></path><path d="M 705.5 121 h 0.0"></path><g class="terminal ">
<path d="M 186.5 121 h 0.0"></path><path d="M 300.0 121 h 0.0"></path><rect height="22" rx="10" ry="10" width="113.5" x="186.5" y="110"></rect><text x="243.25" y="125">@altnumber?</text></g><path d="M 300.0 121 h 10"></path><path d="M 310.0 121 h 10"></path><g class="terminal ">
<path d="M 320.0 121 h 0.0"></path><path d="M 705.5 121 h 0.0"></path><rect height="22" rx="10" ry="10" width="385.5" x="320.0" y="110"></rect><text x="512.75" y="125">/&#91;0-9&#93;+\p{L}?(\x{200F}?&#91;\-,&#93;&#91;0-9&#93;+\p{L}?)&#42;/</text></g></g><path d="M 166.5 181 a 10 10 0 0 0 10 -10 v -70 a 10 10 0 0 1 10 -10"></path><g>
<path d="M 186.5 91 h 0.0"></path><path d="M 459.0 91 h 0.0"></path><g class="terminal ">
<path d="M 186.5 91 h 0.0"></path><path d="M 240.5 91 h 0.0"></path><rect height="22" rx="10" ry="10" width="54.0" x="186.5" y="80"></rect><text x="213.5" y="95">@sid</text></g><path d="M 240.5 91 h 10"></path><path d="M 250.5 91 h 10"></path><g class="terminal ">
<path d="M 260.5 91 h 0.0"></path><path d="M 459.0 91 h 0.0"></path><rect height="22" rx="10" ry="10" width="198.5" x="260.5" y="80"></rect><text x="359.75" y="95">/&#91;A-Z1-4&#93;{3} ?&#91;0-9&#93;+/</text></g></g><path d="M 166.5 181 a 10 10 0 0 0 10 -10 v -100 a 10 10 0 0 1 10 -10"></path><g>
<path d="M 186.5 61 h 0.0"></path><path d="M 365.5 61 h 0.0"></path><g class="terminal ">
<path d="M 186.5 61 h 0.0"></path><path d="M 266.0 61 h 0.0"></path><rect height="22" rx="10" ry="10" width="79.5" x="186.5" y="50"></rect><text x="226.25" y="65">@number</text></g><path d="M 266.0 61 h 10"></path><path d="M 276.0 61 h 10"></path><g class="terminal ">
<path d="M 286.0 61 h 0.0"></path><path d="M 365.5 61 h 0.0"></path><rect height="22" rx="10" ry="10" width="79.5" x="286.0" y="50"></rect><text x="325.75" y="65">integer</text></g></g><path d="M 166.5 181 a 10 10 0 0 0 10 -10 v -130 a 10 10 0 0 1 10 -10"></path><g>
<path d="M 186.5 31 h 0.0"></path><path d="M 323.0 31 h 0.0"></path><g class="terminal ">
<path d="M 186.5 31 h 0.0"></path><path d="M 257.5 31 h 0.0"></path><rect height="22" rx="10" ry="10" width="71.0" x="186.5" y="20"></rect><text x="222.0" y="35">@style</text></g><path d="M 257.5 31 h 10"></path><path d="M 267.5 31 h 10"></path><g class="terminal ">
<path d="M 277.5 31 h 0.0"></path><path d="M 323.0 31 h 0.0"></path><rect height="22" rx="10" ry="10" width="45.5" x="277.5" y="20"></rect><text x="300.25" y="35">"c"</text></g></g><path d="M 166.5 181 h 20"></path><g>
<path d="M 186.5 181 h 187.0"></path><path d="M 373.5 181 h 10"></path><g class="terminal ">
<path d="M 383.5 181 h 31.25"></path><path d="M 477.25 181 h 31.25"></path><rect height="22" rx="10" ry="10" width="62.5" x="414.75" y="170"></rect><text x="446.0" y="185">empty</text></g><path d="M 508.5 181 a 10 10 0 0 1 10 10 v 0 a 10 10 0 0 1 -10 10 h -125.0 a 10 10 0 0 0 -10 10 v 0 a 10 10 0 0 0 10 10"></path><g class="terminal ">
<path d="M 383.5 221 h 10.0"></path><path d="M 498.5 221 h 10.0"></path><rect height="22" rx="10" ry="10" width="105.0" x="393.5" y="210"></rect><text x="446.0" y="225">&#60;/chapter></text></g><path d="M 508.5 221 h 10"></path><path d="M 518.5 221 h 187.0"></path></g><path d="M 705.5 221 h 20"></path></g></g><path d="M 725.5 221 h 20"></path><path d="M 40.0 181 a 10 10 0 0 1 10 10 v 40 a 10 10 0 0 0 10 10"></path><g>
<path d="M 60.0 241 h 123.25"></path><path d="M 602.25 241 h 123.25"></path><g class="terminal ">
<path d="M 183.25 241 h 0.0"></path><path d="M 279.75 241 h 0.0"></path><rect height="22" rx="10" ry="10" width="96.5" x="183.25" y="230"></rect><text x="231.5" y="245">&#60;chapter></text></g><path d="M 279.75 241 h 10"></path><g>
<path d="M 289.75 241 h 0.0"></path><path d="M 602.25 241 h 0.0"></path><path d="M 289.75 241 a 10 10 0 0 0 10 -10 v -10 a 10 10 0 0 1 10 -10"></path><g>
<path d="M 309.75 211 h 0.0"></path><path d="M 582.25 211 h 0.0"></path><g class="terminal ">
<path d="M 309.75 211 h 0.0"></path><path d="M 363.75 211 h 0.0"></path><rect height="22" rx="10" ry="10" width="54.0" x="309.75" y="200"></rect><text x="336.75" y="215">@eid</text></g><path d="M 363.75 211 h 10"></path><path d="M 373.75 211 h 10"></path><g class="terminal ">
<path d="M 383.75 211 h 0.0"></path><path d="M 582.25 211 h 0.0"></path><rect height="22" rx="10" ry="10" width="198.5" x="383.75" y="200"></rect><text x="483.0" y="215">/&#91;A-Z1-4&#93;{3} ?&#91;0-9&#93;+/</text></g></g><path d="M 289.75 241 h 20"></path><g>
<path d="M 309.75 241 h 42.5"></path><path d="M 539.75 241 h 42.5"></path><g class="terminal ">
<path d="M 352.25 241 h 0.0"></path><path d="M 414.75 241 h 0.0"></path><rect height="22" rx="10" ry="10" width="62.5" x="352.25" y="230"></rect><text x="383.5" y="245">empty</text></g><path d="M 414.75 241 h 10"></path><path d="M 424.75 241 h 10"></path><g class="terminal ">
<path d="M 434.75 241 h 0.0"></path><path d="M 539.75 241 h 0.0"></path><rect height="22" rx="10" ry="10" width="105.0" x="434.75" y="230"></rect><text x="487.25" y="245">&#60;/chapter></text></g></g><path d="M 582.25 241 h 20"></path></g></g><path d="M 725.5 241 a 10 10 0 0 0 10 -10 v 0 a 10 10 0 0 1 10 -10"></path></g><path d="M 745.5 221 h 20 m 0 -10 v 20"></path></g></svg>