<svg class="railroad-diagram" height="436" viewBox="0 0 606.5 436" width="606.5" xmlns="http://www.w3.org/2000/svg" xmlns:xlink="http://www.w3.org/1999/xlink">
<g transform="translate(.5 .5)">
<style>/* <![CDATA[ */

    svg.railroad-diagram {
        background-color: hsl(30,20%,95%);
    }
    svg.railroad-diagram path {
        stroke-width: 2;
        stroke: black;
        fill: none;
    }
    svg.railroad-diagram text {
        font-size: 12px;
        text-anchor: middle;
        font-family: DejaVu Sans;
    }
    svg.railroad-diagram text.label {
        text-anchor:start;
    }
    svg.railroad-diagram text.comment {
        font-family: DejaVu Sans;
        font-size: 14px;
    }
    svg.railroad-diagram rect{
        stroke-width: 2;
        stroke: black;
        fill: rgb(210, 255, 210);
    }
    svg.railroad-diagram rect.group-box {
        stroke: gray;
        stroke-dasharray: 10 5;
        fill: none;
    }
    .terminal {
        font-family: DejaVu Sans;
    }
    svg.railroad-diagram g.altterminal rect {
        fill: rgb(251, 252, 207)
    }

/* ]]> */
</style><g>
<path d="M 20 31 v 20 m 0 -10 h 20"></path></g><path d="M 40 41 h 10"></path><g>
<path d="M 50 41 h 0.0"></path><path d="M 556.5 326 h 0.0"></path><g>
<path d="M 50.0 41 h 0.0"></path><path d="M 50.0 41 h 10"></path><g>
<path d="M 60.0 41 h 89.5"></path><path d="M 457.0 41 h 89.5"></path><g>
<path d="M 149.5 41 h 0.0"></path><path d="M 286.0 41 h 0.0"></path><path d="M 149.5 41 h 20"></path><g class="terminal ">
<path d="M 169.5 41 h 12.75"></path><path d="M 253.25 41 h 12.75"></path><rect height="22" rx="10" ry="10" width="71.0" x="182.25" y="30"></rect><text x="217.75" y="45">'\n\\'</text></g><path d="M 266.0 41 h 20"></path><path d="M 149.5 41 a 10 10 0 0 1 10 10 v 10 a 10 10 0 0 0 10 10"></path><g class="terminal altterminal">
<path d="M 169.5 71 h 0.0"></path><path d="M 266.0 71 h 0.0"></path><rect height="22" rx="10" ry="10" width="96.5" x="169.5" y="60"></rect><text x="217.75" y="75">/${Ws}\\/</text></g><path d="M 266.0 71 a 10 10 0 0 0 10 -10 v -10 a 10 10 0 0 1 10 -10"></path></g><path d="M 286.0 41 h 10"></path><path d="M 296.0 41 h 10"></path><g class="terminal ">
<path d="M 306.0 41 h 0.0"></path><path d="M 351.5 41 h 0.0"></path><rect height="22" rx="10" ry="10" width="45.5" x="306.0" y="30"></rect><text x="328.75" y="45">"c"</text></g><path d="M 351.5 41 h 10"></path><path d="M 361.5 41 h 10"></path><g>
<path d="M 371.5 41 h 0.0"></path><path d="M 457.0 41 h 0.0"></path><path d="M 371.5 41 h 20"></path><g class="terminal ">
<path d="M 391.5 41 h 0.0"></path><path d="M 437.0 41 h 0.0"></path><rect height="22" rx="10" ry="10" width="45.5" x="391.5" y="30"></rect><text x="414.25" y="45">' '</text></g><path d="M 437.0 41 h 20"></path><path d="M 371.5 41 a 10 10 0 0 1 10 10 v 10 a 10 10 0 0 0 10 10"></path><g class="terminal altterminal">
<path d="M 391.5 71 h 4.25"></path><path d="M 432.75 71 h 4.25"></path><rect height="22" rx="10" ry="10" width="37.0" x="395.75" y="60"></rect><text x="414.25" y="75">HS</text></g><path d="M 437.0 71 a 10 10 0 0 0 10 -10 v -10 a 10 10 0 0 1 10 -10"></path></g></g><path d="M 546.5 41 a 10 10 0 0 1 10 10 v 39 a 10 10 0 0 1 -10 10 h -486.5 a 10 10 0 0 0 -10 10 v 9 a 10 10 0 0 0 10 10"></path><g>
<path d="M 60.0 129 h 17.25"></path><path d="M 529.25 129 h 17.25"></path><g>
<path d="M 77.25 129 h 0.0"></path><path d="M 247.75 129 h 0.0"></path><path d="M 77.25 129 h 20"></path><g>
<path d="M 97.25 129 h 130.5"></path></g><path d="M 227.75 129 h 20"></path><path d="M 77.25 129 a 10 10 0 0 1 10 10 v 0 a 10 10 0 0 0 10 10"></path><g class="non-terminal ">
<path d="M 97.25 149 h 0.0"></path><path d="M 227.75 149 h 0.0"></path><rect height="22" width="130.5" x="97.25" y="138"></rect><text x="162.5" y="153">AttributesPre</text></g><path d="M 227.75 149 a 10 10 0 0 0 10 -10 v 0 a 10 10 0 0 1 10 -10"></path></g><path d="M 247.75 129 h 10"></path><path d="M 257.75 129 h 10"></path><g class="terminal ">
<path d="M 267.75 129 h 0.0"></path><path d="M 398.25 129 h 0.0"></path><rect height="22" rx="10" ry="10" width="130.5" x="267.75" y="118"></rect><text x="333.0" y="133">/&#91;1-9&#93;&#91;0-9&#93;&#42;/</text></g><path d="M 398.25 129 h 10"></path><path d="M 408.25 129 h 10"></path><g>
<path d="M 418.25 129 h 0.0"></path><path d="M 529.25 129 h 0.0"></path><path d="M 418.25 129 h 20"></path><g class="terminal ">
<path d="M 438.25 129 h 12.75"></path><path d="M 496.5 129 h 12.75"></path><rect height="22" rx="10" ry="10" width="45.5" x="451.0" y="118"></rect><text x="473.75" y="133">' '</text></g><path d="M 509.25 129 h 20"></path><path d="M 418.25 129 a 10 10 0 0 1 10 10 v 10 a 10 10 0 0 0 10 10"></path><g class="terminal altterminal">
<path d="M 438.25 159 h 0.0"></path><path d="M 509.25 159 h 0.0"></path><rect height="22" rx="10" ry="10" width="71.0" x="438.25" y="148"></rect><text x="473.75" y="163">TAGEND</text></g><path d="M 509.25 159 a 10 10 0 0 0 10 -10 v -10 a 10 10 0 0 1 10 -10"></path></g></g><path d="M 546.5 129 a 10 10 0 0 1 10 10 v 39 a 10 10 0 0 1 -10 10 h -486.5 a 10 10 0 0 0 -10 10 v 0 a 10 10 0 0 0 10 10"></path><g>
<path d="M 60.0 208 h 10.0"></path><path d="M 536.5 208 h 10.0"></path><path d="M 70.0 208 h 20"></path><g>
<path d="M 90.0 208 h 426.5"></path></g><path d="M 516.5 208 h 20"></path><path d="M 70.0 208 a 10 10 0 0 1 10 10 v 9 a 10 10 0 0 0 10 10"></path><g>
<path d="M 90.0 237 h 0.0"></path><path d="M 516.5 237 h 0.0"></path><g>
<path d="M 90.0 237 h 0.0"></path><path d="M 243.5 237 h 0.0"></path><path d="M 90.0 237 h 20"></path><g class="terminal ">
<path d="M 110.0 237 h 17.0"></path><path d="M 206.5 237 h 17.0"></path><rect height="22" rx="10" ry="10" width="79.5" x="127.0" y="226"></rect><text x="166.75" y="241">'\\ca '</text></g><path d="M 223.5 237 h 20"></path><path d="M 90.0 237 a 10 10 0 0 1 10 10 v 10 a 10 10 0 0 0 10 10"></path><g class="terminal altterminal">
<path d="M 110.0 267 h 0.0"></path><path d="M 223.5 267 h 0.0"></path><rect height="22" rx="10" ry="10" width="113.5" x="110.0" y="256"></rect><text x="166.75" y="271">/\\ca${HS}/</text></g><path d="M 223.5 267 a 10 10 0 0 0 10 -10 v -10 a 10 10 0 0 1 10 -10"></path></g><path d="M 243.5 237 h 10"></path><path d="M 253.5 237 h 10"></path><g class="terminal ">
<path d="M 263.5 237 h 0.0"></path><path d="M 326.0 237 h 0.0"></path><rect height="22" rx="10" ry="10" width="62.5" x="263.5" y="226"></rect><text x="294.75" y="241">VERSE</text></g><path d="M 326.0 237 h 10"></path><path d="M 336.0 237 h 10"></path><g>
<path d="M 346.0 237 h 0.0"></path><path d="M 516.5 237 h 0.0"></path><path d="M 346.0 237 h 20"></path><g class="terminal ">
<path d="M 366.0 237 h 21.25"></path><path d="M 475.25 237 h 21.25"></path><rect height="22" rx="10" ry="10" width="88.0" x="387.25" y="226"></rect><text x="431.25" y="241">'\\ca&#42; '</text></g><path d="M 496.5 237 h 20"></path><path d="M 346.0 237 a 10 10 0 0 1 10 10 v 10 a 10 10 0 0 0 10 10"></path><g class="terminal altterminal">
<path d="M 366.0 267 h 0.0"></path><path d="M 496.5 267 h 0.0"></path><rect height="22" rx="10" ry="10" width="130.5" x="366.0" y="256"></rect><text x="431.25" y="271">/\\ca\&#42;${Hs}/</text></g><path d="M 496.5 267 a 10 10 0 0 0 10 -10 v -10 a 10 10 0 0 1 10 -10"></path></g></g><path d="M 516.5 237 a 10 10 0 0 0 10 -10 v -9 a 10 10 0 0 1 10 -10"></path></g><path d="M 546.5 208 a 10 10 0 0 1 10 10 v 78 a 10 10 0 0 1 -10 10 h -486.5 a 10 10 0 0 0 -10 10 v 0 a 10 10 0 0 0 10 10"></path><g>
<path d="M 60.0 326 h 75.5"></path><path d="M 471.0 326 h 75.5"></path><path d="M 135.5 326 h 20"></path><g>
<path d="M 155.5 326 h 295.5"></path></g><path d="M 451.0 326 h 20"></path><path d="M 135.5 326 a 10 10 0 0 1 10 10 v 9 a 10 10 0 0 0 10 10"></path><g>
<path d="M 155.5 355 h 0.0"></path><path d="M 451.0 355 h 0.0"></path><g>
<path d="M 155.5 355 h 0.0"></path><path d="M 351.5 355 h 0.0"></path><path d="M 155.5 355 h 20"></path><g class="terminal ">
<path d="M 175.5 355 h 29.75"></path><path d="M 301.75 355 h 29.75"></path><rect height="22" rx="10" ry="10" width="96.5" x="205.25" y="344"></rect><text x="253.5" y="359">'\n\\cp '</text></g><path d="M 331.5 355 h 20"></path><path d="M 155.5 355 a 10 10 0 0 1 10 10 v 10 a 10 10 0 0 0 10 10"></path><g class="terminal altterminal">
<path d="M 175.5 385 h 0.0"></path><path d="M 331.5 385 h 0.0"></path><rect height="22" rx="10" ry="10" width="156.0" x="175.5" y="374"></rect><text x="253.5" y="389">/${Ws}\\cp${HS}/</text></g><path d="M 331.5 385 a 10 10 0 0 0 10 -10 v -10 a 10 10 0 0 1 10 -10"></path></g><path d="M 351.5 355 h 10"></path><path d="M 361.5 355 h 10"></path><g class="terminal ">
<path d="M 371.5 355 h 0.0"></path><path d="M 451.0 355 h 0.0"></path><rect height="22" rx="10" ry="10" width="79.5" x="371.5" y="344"></rect><text x="411.25" y="359">TEXTNWS</text></g></g><path d="M 451.0 355 a 10 10 0 0 0 10 -10 v -9 a 10 10 0 0 1 10 -10"></path></g><path d="M 546.5 326 h 10"></path><path d="M 556.5 326 h 0.0"></path></g></g><path d="M 556.5 326 h 10"></path><path d="M 566.5 326 h 20 m 0 -10 v 20"></path></g></svg>