<svg class="railroad-diagram" height="291" viewBox="0 0 486.5 291" width="486.5" xmlns="http://www.w3.org/2000/svg" xmlns:xlink="http://www.w3.org/1999/xlink">
<g transform="translate(.5 .5)">
<style>/* <![CDATA[ */

    svg.railroad-diagram {
        background-color: hsl(30,20%,95%);
    }
    svg.railroad-diagram path {
        stroke-width: 2;
        stroke: black;
        fill: none;
    }
    svg.railroad-diagram text {
        font-size: 12px;
        text-anchor: middle;
        font-family: DejaVu Sans;
    }
    svg.railroad-diagram text.label {
        text-anchor:start;
    }
    svg.railroad-diagram text.comment {
        font-family: DejaVu Sans;
        font-size: 14px;
    }
    svg.railroad-diagram rect{
        stroke-width: 2;
        stroke: black;
        fill: rgb(210, 210, 255);
    }
    svg.railroad-diagram rect.group-box {
        stroke: gray;
        stroke-dasharray: 10 5;
        fill: none;
    }
    .terminal {
        font-family: DejaVu Sans;
    }
    svg.railroad-diagram g.altterminal rect {
        fill: rgb(251, 252, 207)
    }

/* ]]> */
</style><g>
<path d="M 20 180 v 20 m 0 -10 h 20"></path></g><path d="M 40 190 h 10"></path><g>
<path d="M 50 190 h 0.0"></path><path d="M 436.5 190 h 0.0"></path><g>
<path d="M 50.0 190 h 0.0"></path><path d="M 436.5 190 h 0.0"></path><g class="terminal ">
<path d="M 50.0 190 h 0.0"></path><path d="M 146.5 190 h 0.0"></path><rect height="22" rx="10" ry="10" width="96.5" x="50.0" y="179"></rect><text x="98.25" y="194">&#60;chapter></text></g><path d="M 146.5 190 h 10"></path><path d="M 156.5 190 h 10"></path><g>
<path d="M 166.5 190 h 0.0"></path><path d="M 436.5 190 h 0.0"></path><path d="M 166.5 190 a 10 10 0 0 0 10 -10 v -9 a 10 10 0 0 1 10 -10"></path><g>
<path d="M 186.5 161 h 0.0"></path><path d="M 323.0 161 h 0.0"></path><g class="terminal ">
<path d="M 186.5 161 h 0.0"></path><path d="M 257.5 161 h 0.0"></path><rect height="22" rx="10" ry="10" width="71.0" x="186.5" y="150"></rect><text x="222.0" y="165">@style</text></g><path d="M 257.5 161 h 10"></path><path d="M 267.5 161 h 10"></path><g class="terminal ">
<path d="M 277.5 161 h 0.0"></path><path d="M 323.0 161 h 0.0"></path><rect height="22" rx="10" ry="10" width="45.5" x="277.5" y="150"></rect><text x="300.25" y="165">"c"</text></g></g><path d="M 166.5 190 a 10 10 0 0 0 10 -10 v -39 a 10 10 0 0 1 10 -10"></path><g>
<path d="M 186.5 131 h 0.0"></path><path d="M 416.5 131 h 0.0"></path><g class="terminal ">
<path d="M 186.5 131 h 0.0"></path><path d="M 266.0 131 h 0.0"></path><rect height="22" rx="10" ry="10" width="79.5" x="186.5" y="120"></rect><text x="226.25" y="135">@number</text></g><path d="M 266.0 131 h 10"></path><path d="M 276.0 131 h 10"></path><g class="terminal ">
<path d="M 286.0 131 h 0.0"></path><path d="M 416.5 131 h 0.0"></path><rect height="22" rx="10" ry="10" width="130.5" x="286.0" y="120"></rect><text x="351.25" y="135">/&#91;1-9&#93;&#91;0-9&#93;&#42;/</text></g></g><path d="M 166.5 190 a 10 10 0 0 0 10 -10 v -69 a 10 10 0 0 1 10 -10"></path><g>
<path d="M 186.5 101 h 0.0"></path><path d="M 314.5 101 h 0.0"></path><g class="terminal ">
<path d="M 186.5 101 h 0.0"></path><path d="M 240.5 101 h 0.0"></path><rect height="22" rx="10" ry="10" width="54.0" x="186.5" y="90"></rect><text x="213.5" y="105">@sid</text></g><path d="M 240.5 101 h 10"></path><path d="M 250.5 101 h 10"></path><g class="terminal ">
<path d="M 260.5 101 h 0.0"></path><path d="M 314.5 101 h 0.0"></path><rect height="22" rx="10" ry="10" width="54.0" x="260.5" y="90"></rect><text x="287.5" y="105">TEXT</text></g></g><path d="M 166.5 190 a 10 10 0 0 0 10 -10 v -99 a 10 10 0 0 1 10 -10"></path><g>
<path d="M 186.5 71 h 0.0"></path><path d="M 365.5 71 h 0.0"></path><g class="terminal ">
<path d="M 186.5 71 h 0.0"></path><path d="M 291.5 71 h 0.0"></path><rect height="22" rx="10" ry="10" width="105.0" x="186.5" y="60"></rect><text x="239.0" y="75">@altnumber</text></g><path d="M 291.5 71 h 10"></path><path d="M 301.5 71 h 10"></path><g class="terminal ">
<path d="M 311.5 71 h 0.0"></path><path d="M 365.5 71 h 0.0"></path><rect height="22" rx="10" ry="10" width="54.0" x="311.5" y="60"></rect><text x="338.5" y="75">TEXT</text></g></g><path d="M 166.5 190 a 10 10 0 0 0 10 -10 v -129 a 10 10 0 0 1 10 -10"></path><g>
<path d="M 186.5 41 h 0.0"></path><path d="M 365.5 41 h 0.0"></path><g class="terminal ">
<path d="M 186.5 41 h 0.0"></path><path d="M 291.5 41 h 0.0"></path><rect height="22" rx="10" ry="10" width="105.0" x="186.5" y="30"></rect><text x="239.0" y="45">@pubnumber</text></g><path d="M 291.5 41 h 10"></path><path d="M 301.5 41 h 10"></path><g class="terminal ">
<path d="M 311.5 41 h 0.0"></path><path d="M 365.5 41 h 0.0"></path><rect height="22" rx="10" ry="10" width="54.0" x="311.5" y="30"></rect><text x="338.5" y="45">TEXT</text></g></g><path d="M 166.5 190 h 20"></path><g>
<path d="M 186.5 190 h 29.75"></path><path d="M 386.75 190 h 29.75"></path><g>
<path d="M 216.25 190 h 0.0"></path><path d="M 386.75 190 h 0.0"></path><path d="M 216.25 190 h 20"></path><g>
<path d="M 236.25 190 h 130.5"></path></g><path d="M 366.75 190 h 20"></path><path d="M 216.25 190 a 10 10 0 0 1 10 10 v 0 a 10 10 0 0 0 10 10"></path><g class="non-terminal ">
<path d="M 236.25 210 h 0.0"></path><path d="M 366.75 210 h 0.0"></path><rect height="22" width="130.5" x="236.25" y="199"></rect><text x="301.5" y="214">AttributesPre</text></g><path d="M 366.75 210 a 10 10 0 0 0 10 -10 v 0 a 10 10 0 0 1 10 -10"></path></g></g><path d="M 416.5 190 h 20"></path><path d="M 166.5 190 a 10 10 0 0 1 10 10 v 40 a 10 10 0 0 0 10 10"></path><g class="terminal ">
<path d="M 186.5 250 h 83.75"></path><path d="M 332.75 250 h 83.75"></path><rect height="22" rx="10" ry="10" width="62.5" x="270.25" y="239"></rect><text x="301.5" y="254">EMPTY</text></g><path d="M 416.5 250 a 10 10 0 0 0 10 -10 v -40 a 10 10 0 0 1 10 -10"></path></g></g></g><path d="M 436.5 190 h 10"></path><path d="M 446.5 190 h 20 m 0 -10 v 20"></path></g></svg>