<svg class="railroad-diagram" height="338" viewBox="0 0 1047.5 338" width="1047.5" xmlns="http://www.w3.org/2000/svg" xmlns:xlink="http://www.w3.org/1999/xlink">
<g transform="translate(.5 .5)">
<style>/* <![CDATA[ */

    svg.railroad-diagram {
        background-color: hsl(30,20%,95%);
    }
    svg.railroad-diagram path {
        stroke-width: 2;
        stroke: black;
        fill: none;
    }
    svg.railroad-diagram text {
        font-size: 12px;
        text-anchor: middle;
        font-family: DejaVu Sans;
    }
    svg.railroad-diagram text.label {
        text-anchor:start;
    }
    svg.railroad-diagram text.comment {
        font-family: DejaVu Sans;
        font-size: 14px;
    }
    svg.railroad-diagram rect{
        stroke-width: 2;
        stroke: black;
        fill: rgb(210, 255, 210);
    }
    svg.railroad-diagram rect.group-box {
        stroke: gray;
        stroke-dasharray: 10 5;
        fill: none;
    }
    .terminal {
        font-family: DejaVu Sans;
    }
    svg.railroad-diagram g.altterminal rect {
        fill: rgb(251, 252, 207)
    }

/* ]]> */
</style><g>
<path d="M 20 31 v 20 m 0 -10 h 20"></path></g><path d="M 40 41 h 10"></path><g>
<path d="M 50 41 h 0.0"></path><path d="M 997.5 277 h 0.0"></path><g>
<path d="M 50.0 41 h 0.0"></path><path d="M 50.0 41 h 10"></path><g>
<path d="M 60.0 41 h 325.75"></path><path d="M 661.75 41 h 325.75"></path><g class="terminal ">
<path d="M 385.75 41 h 0.0"></path><path d="M 431.25 41 h 0.0"></path><rect height="22" rx="10" ry="10" width="45.5" x="385.75" y="30"></rect><text x="408.5" y="45">'\'</text></g><path d="M 431.25 41 h 10"></path><path d="M 441.25 41 h 10"></path><g class="terminal ">
<path d="M 451.25 41 h 0.0"></path><path d="M 496.75 41 h 0.0"></path><rect height="22" rx="10" ry="10" width="45.5" x="451.25" y="30"></rect><text x="474.0" y="45">"c"</text></g><path d="M 496.75 41 h 10"></path><path d="M 506.75 41 h 10"></path><g>
<path d="M 516.75 41 h 0.0"></path><path d="M 661.75 41 h 0.0"></path><path d="M 516.75 41 h 20"></path><g class="terminal ">
<path d="M 536.75 41 h 29.75"></path><path d="M 612.0 41 h 29.75"></path><rect height="22" rx="10" ry="10" width="45.5" x="566.5" y="30"></rect><text x="589.25" y="45">' '</text></g><path d="M 641.75 41 h 20"></path><path d="M 516.75 41 a 10 10 0 0 1 10 10 v 10 a 10 10 0 0 0 10 10"></path><g class="terminal altterminal">
<path d="M 536.75 71 h 0.0"></path><path d="M 641.75 71 h 0.0"></path><rect height="22" rx="10" ry="10" width="105.0" x="536.75" y="60"></rect><text x="589.25" y="75">TAGPARMEND</text></g><path d="M 641.75 71 a 10 10 0 0 0 10 -10 v -10 a 10 10 0 0 1 10 -10"></path></g></g><path d="M 987.5 41 a 10 10 0 0 1 10 10 v 39 a 10 10 0 0 1 -10 10 h -927.5 a 10 10 0 0 0 -10 10 v 9 a 10 10 0 0 0 10 10"></path><g>
<path d="M 60.0 129 h 107.75"></path><path d="M 879.75 129 h 107.75"></path><g class="terminal ">
<path d="M 167.75 129 h 0.0"></path><path d="M 255.75 129 h 0.0"></path><rect height="22" rx="10" ry="10" width="88.0" x="167.75" y="118"></rect><text x="211.75" y="133">/&#91;0-9&#93;+/</text></g><path d="M 255.75 129 h 10"></path><path d="M 265.75 129 h 10"></path><g>
<path d="M 275.75 129 h 0.0"></path><path d="M 879.75 129 h 0.0"></path><path d="M 275.75 129 h 20"></path><g class="terminal ">
<path d="M 295.75 129 h 259.25"></path><path d="M 600.5 129 h 259.25"></path><rect height="22" rx="10" ry="10" width="45.5" x="555.0" y="118"></rect><text x="577.75" y="133">' '</text></g><path d="M 859.75 129 h 20"></path><path d="M 275.75 129 a 10 10 0 0 1 10 10 v 10 a 10 10 0 0 0 10 10"></path><g class="terminal altterminal">
<path d="M 295.75 159 h 0.0"></path><path d="M 859.75 159 h 0.0"></path><rect height="22" rx="10" ry="10" width="564.0" x="295.75" y="148"></rect><text x="577.75" y="163">/((?:&#91;\u0009-\u000D\u0020&#93;|(?:\u000D?\u000A|\u000D)|$)+|(?=\\))/</text></g><path d="M 859.75 159 a 10 10 0 0 0 10 -10 v -10 a 10 10 0 0 1 10 -10"></path></g></g><path d="M 987.5 129 a 10 10 0 0 1 10 10 v 39 a 10 10 0 0 1 -10 10 h -927.5 a 10 10 0 0 0 -10 10 v 0 a 10 10 0 0 0 10 10"></path><g>
<path d="M 60.0 208 h 189.75"></path><path d="M 797.75 208 h 189.75"></path><path d="M 249.75 208 h 20"></path><g>
<path d="M 269.75 208 h 508.0"></path></g><path d="M 777.75 208 h 20"></path><path d="M 249.75 208 a 10 10 0 0 1 10 10 v 0 a 10 10 0 0 0 10 10"></path><g>
<path d="M 269.75 228 h 0.0"></path><path d="M 777.75 228 h 0.0"></path><g class="terminal ">
<path d="M 269.75 228 h 0.0"></path><path d="M 340.75 228 h 0.0"></path><rect height="22" rx="10" ry="10" width="71.0" x="269.75" y="217"></rect><text x="305.25" y="232">'\ca '</text></g><path d="M 340.75 228 h 10"></path><path d="M 350.75 228 h 10"></path><g class="terminal ">
<path d="M 360.75 228 h 0.0"></path><path d="M 686.75 228 h 0.0"></path><rect height="22" rx="10" ry="10" width="326.0" x="360.75" y="217"></rect><text x="523.75" y="232">/&#91;0-9&#93;+\p{L}?(‏?&#91;\-,&#93;&#91;0-9&#93;+\p{L}?)&#42;/</text></g><path d="M 686.75 228 h 10"></path><path d="M 696.75 228 h 10"></path><g class="terminal ">
<path d="M 706.75 228 h 0.0"></path><path d="M 777.75 228 h 0.0"></path><rect height="22" rx="10" ry="10" width="71.0" x="706.75" y="217"></rect><text x="742.25" y="232">'\ca&#42;'</text></g></g><path d="M 777.75 228 a 10 10 0 0 0 10 -10 v 0 a 10 10 0 0 1 10 -10"></path></g><path d="M 987.5 208 a 10 10 0 0 1 10 10 v 29 a 10 10 0 0 1 -10 10 h -927.5 a 10 10 0 0 0 -10 10 v 0 a 10 10 0 0 0 10 10"></path><g>
<path d="M 60.0 277 h 10.0"></path><path d="M 977.5 277 h 10.0"></path><path d="M 70.0 277 h 20"></path><g>
<path d="M 90.0 277 h 867.5"></path></g><path d="M 957.5 277 h 20"></path><path d="M 70.0 277 a 10 10 0 0 1 10 10 v 0 a 10 10 0 0 0 10 10"></path><g>
<path d="M 90.0 297 h 0.0"></path><path d="M 957.5 297 h 0.0"></path><g class="terminal ">
<path d="M 90.0 297 h 0.0"></path><path d="M 611.5 297 h 0.0"></path><rect height="22" rx="10" ry="10" width="521.5" x="90.0" y="286"></rect><text x="350.75" y="301">/(?:&#91;\u0009-\u000D\u0020&#93;|(?:\u000D?\u000A|\u000D)|$)\\cp /</text></g><path d="M 611.5 297 h 10"></path><path d="M 621.5 297 h 10"></path><g class="terminal ">
<path d="M 631.5 297 h 0.0"></path><path d="M 957.5 297 h 0.0"></path><rect height="22" rx="10" ry="10" width="326.0" x="631.5" y="286"></rect><text x="794.5" y="301">/\S+\s&#42;(?=(?:\u000D?\u000A|\u000D))/</text></g></g><path d="M 957.5 297 a 10 10 0 0 0 10 -10 v 0 a 10 10 0 0 1 10 -10"></path></g><path d="M 987.5 277 h 10"></path><path d="M 997.5 277 h 0.0"></path></g></g><path d="M 997.5 277 h 10"></path><path d="M 1007.5 277 h 20 m 0 -10 v 20"></path></g></svg>