<svg class="railroad-diagram" height="322" viewBox="0 0 279.0 322" width="279.0" xmlns="http://www.w3.org/2000/svg" xmlns:xlink="http://www.w3.org/1999/xlink">
<g transform="translate(.5 .5)">
<style>/* <![CDATA[ */

    svg.railroad-diagram {
        background-color: hsl(30,20%,95%);
    }
    svg.railroad-diagram path {
        stroke-width: 2;
        stroke: black;
        fill: none;
    }
    svg.railroad-diagram text {
        font-size: 12px;
        text-anchor: middle;
        font-family: DejaVu Sans;
    }
    svg.railroad-diagram text.label {
        text-anchor:start;
    }
    svg.railroad-diagram text.comment {
        font-family: DejaVu Sans;
        font-size: 14px;
    }
    svg.railroad-diagram rect{
        stroke-width: 2;
        stroke: black;
        fill: rgb(210, 255, 210);
    }
    svg.railroad-diagram rect.group-box {
        stroke: gray;
        stroke-dasharray: 10 5;
        fill: none;
    }
    .terminal {
        font-family: DejaVu Sans;
    }
    svg.railroad-diagram g.altterminal rect {
        fill: rgb(251, 252, 207)
    }

/* ]]> */
</style><g>
<path d="M 20 31 v 20 m 0 -10 h 20"></path></g><path d="M 40 41 h 10"></path><g>
<path d="M 50 41 h 0.0"></path><path d="M 229.0 41 h 0.0"></path><g>
<path d="M 50.0 41 h 0.0"></path><path d="M 229.0 41 h 0.0"></path><path d="M 50.0 41 h 20"></path><g class="non-terminal ">
<path d="M 70.0 41 h 42.5"></path><path d="M 166.5 41 h 42.5"></path><rect height="22" width="54.0" x="112.5" y="30"></rect><text x="139.5" y="45">Para</text></g><path d="M 209.0 41 h 20"></path><path d="M 50.0 41 a 10 10 0 0 1 10 10 v 10 a 10 10 0 0 0 10 10"></path><g class="non-terminal ">
<path d="M 70.0 71 h 29.75"></path><path d="M 179.25 71 h 29.75"></path><rect height="22" width="79.5" x="99.75" y="60"></rect><text x="139.5" y="75">Section</text></g><path d="M 209.0 71 a 10 10 0 0 0 10 -10 v -10 a 10 10 0 0 1 10 -10"></path><path d="M 50.0 41 a 10 10 0 0 1 10 10 v 40 a 10 10 0 0 0 10 10"></path><g class="non-terminal ">
<path d="M 70.0 101 h 29.75"></path><path d="M 179.25 101 h 29.75"></path><rect height="22" width="79.5" x="99.75" y="90"></rect><text x="139.5" y="105">Chapter</text></g><path d="M 209.0 101 a 10 10 0 0 0 10 -10 v -40 a 10 10 0 0 1 10 -10"></path><path d="M 50.0 41 a 10 10 0 0 1 10 10 v 70 a 10 10 0 0 0 10 10"></path><g class="non-terminal ">
<path d="M 70.0 131 h 21.25"></path><path d="M 187.75 131 h 21.25"></path><rect height="22" width="96.5" x="91.25" y="120"></rect><text x="139.5" y="135">Milestone</text></g><path d="M 209.0 131 a 10 10 0 0 0 10 -10 v -70 a 10 10 0 0 1 10 -10"></path><path d="M 50.0 41 a 10 10 0 0 1 10 10 v 100 a 10 10 0 0 0 10 10"></path><g class="non-terminal ">
<path d="M 70.0 161 h 25.5"></path><path d="M 183.5 161 h 25.5"></path><rect height="22" width="88.0" x="95.5" y="150"></rect><text x="139.5" y="165">Footnote</text></g><path d="M 209.0 161 a 10 10 0 0 0 10 -10 v -100 a 10 10 0 0 1 10 -10"></path><path d="M 50.0 41 a 10 10 0 0 1 10 10 v 130 a 10 10 0 0 0 10 10"></path><g class="non-terminal ">
<path d="M 70.0 191 h 0.0"></path><path d="M 209.0 191 h 0.0"></path><rect height="22" width="139.0" x="70.0" y="180"></rect><text x="139.5" y="195">CrossReference</text></g><path d="M 209.0 191 a 10 10 0 0 0 10 -10 v -130 a 10 10 0 0 1 10 -10"></path><path d="M 50.0 41 a 10 10 0 0 1 10 10 v 160 a 10 10 0 0 0 10 10"></path><g class="non-terminal ">
<path d="M 70.0 221 h 42.5"></path><path d="M 166.5 221 h 42.5"></path><rect height="22" width="54.0" x="112.5" y="210"></rect><text x="139.5" y="225">List</text></g><path d="M 209.0 221 a 10 10 0 0 0 10 -10 v -160 a 10 10 0 0 1 10 -10"></path><path d="M 50.0 41 a 10 10 0 0 1 10 10 v 190 a 10 10 0 0 0 10 10"></path><g class="non-terminal ">
<path d="M 70.0 251 h 38.25"></path><path d="M 170.75 251 h 38.25"></path><rect height="22" width="62.5" x="108.25" y="240"></rect><text x="139.5" y="255">Table</text></g><path d="M 209.0 251 a 10 10 0 0 0 10 -10 v -190 a 10 10 0 0 1 10 -10"></path><path d="M 50.0 41 a 10 10 0 0 1 10 10 v 220 a 10 10 0 0 0 10 10"></path><g class="non-terminal ">
<path d="M 70.0 281 h 29.75"></path><path d="M 179.25 281 h 29.75"></path><rect height="22" width="79.5" x="99.75" y="270"></rect><text x="139.5" y="285">Sidebar</text></g><path d="M 209.0 281 a 10 10 0 0 0 10 -10 v -220 a 10 10 0 0 1 10 -10"></path></g></g><path d="M 229.0 41 h 10"></path><path d="M 239.0 41 h 20 m 0 -10 v 20"></path></g></svg>