<svg class="railroad-diagram" height="112" viewBox="0 0 529.0 112" width="529.0" xmlns="http://www.w3.org/2000/svg" xmlns:xlink="http://www.w3.org/1999/xlink">
<g transform="translate(.5 .5)">
<style>/* <![CDATA[ */

    svg.railroad-diagram {
        background-color:hsl(30,20%,95%);
    }
    svg.railroad-diagram path {
        stroke-width: 2;
        stroke: black;
        fill: none;
    }
    svg.railroad-diagram text {
        font-size: 12px;
        text-anchor: middle;
        font-family: DejaVu Sans;
    }
    svg.railroad-diagram text.label {
        text-anchor:start;
    }
    svg.railroad-diagram text.comment {
        font-family: DejaVu Sans;
        font-size: 14px;
    }
    svg.railroad-diagram rect{
        stroke-width: 2;
        stroke:black;
        fill: rgb(210, 210, 255);
    }
    svg.railroad-diagram rect.group-box {
        stroke: gray;
        stroke-dasharray: 10 5;
        fill: none;
    }
    .terminal {
        font-family: DejaVu Sans;
    }

/* ]]> */
</style><g>
<path d="M 20 61 v 20 m 0 -10 h 20"></path></g><path d="M 40 71 h 10"></path><g>
<path d="M 50 71 h 0.0"></path><path d="M 479.0 71 h 0.0"></path><g>
<path d="M 50.0 71 h 0.0"></path><path d="M 479.0 71 h 0.0"></path><g class="terminal ">
<path d="M 50.0 71 h 0.0"></path><path d="M 146.5 71 h 0.0"></path><rect height="22" rx="10" ry="10" width="96.5" x="50.0" y="60"></rect><text x="98.25" y="75">&#60;chapter></text></g><path d="M 146.5 71 h 10"></path><path d="M 156.5 71 h 10"></path><g>
<path d="M 166.5 71 h 0.0"></path><path d="M 479.0 71 h 0.0"></path><path d="M 166.5 71 a 10 10 0 0 0 10 -10 v -10 a 10 10 0 0 1 10 -10"></path><g>
<path d="M 186.5 41 h 0.0"></path><path d="M 459.0 41 h 0.0"></path><g class="terminal ">
<path d="M 186.5 41 h 0.0"></path><path d="M 240.5 41 h 0.0"></path><rect height="22" rx="10" ry="10" width="54.0" x="186.5" y="30"></rect><text x="213.5" y="45">@eid</text></g><path d="M 240.5 41 h 10"></path><path d="M 250.5 41 h 10"></path><g class="terminal ">
<path d="M 260.5 41 h 0.0"></path><path d="M 459.0 41 h 0.0"></path><rect height="22" rx="10" ry="10" width="198.5" x="260.5" y="30"></rect><text x="359.75" y="45">/&#91;A-Z1-4&#93;{3} ?&#91;0-9&#93;+/</text></g></g><path d="M 166.5 71 h 20"></path><g class="terminal ">
<path d="M 186.5 71 h 105.0"></path><path d="M 354.0 71 h 105.0"></path><rect height="22" rx="10" ry="10" width="62.5" x="291.5" y="60"></rect><text x="322.75" y="75">EMPTY</text></g><path d="M 459.0 71 h 20"></path></g></g></g><path d="M 479.0 71 h 10"></path><path d="M 489.0 71 h 20 m 0 -10 v 20"></path></g></svg>