<svg class="railroad-diagram" height="262" viewBox="0 0 856.0 262" width="856.0" xmlns="http://www.w3.org/2000/svg" xmlns:xlink="http://www.w3.org/1999/xlink">
<g transform="translate(.5 .5)">
<style>/* <![CDATA[ */
    svg.railroad-diagram {
        background-color:hsl(30,20%,95%);
    }
    svg.railroad-diagram path {
        stroke-width: 2;
        stroke: black;
        fill: none;
    }
    svg.railroad-diagram text {
        font-size: 12px;
        text-anchor: middle;
        font-family: DejaVu Sans;
    }
    svg.railroad-diagram text.label {
        text-anchor:start;
    }
    svg.railroad-diagram text.comment {
        font-family: DejaVu Sans;
        font-size: 14px;
    }
    svg.railroad-diagram rect{
        stroke-width: 2;
        stroke:black;
        fill: rgb(210, 255, 210);
    }
    svg.railroad-diagram rect.group-box {
        stroke: gray;
        stroke-dasharray: 10 5;
        fill: none;
    }
    .terminal {
        font-family: DejaVu Sans;
    }

/* ]]> */
</style><g>
<path d="M 20 69 v 20 m 0 -10 h 20"></path></g><path d="M 40 79 h 10"></path><g>
<path d="M 50 79 h 0.0"></path><path d="M 806.0 215 h 0.0"></path><rect class="group-box" height="206" rx="10" ry="10" width="756.0" x="50.0" y="36"></rect><g>
<path d="M 50.0 79 h 10.0"></path><path d="M 796.0 215 h 10.0"></path><rect class="group-box" height="174" rx="10" ry="10" width="736.0" x="60.0" y="60"></rect><g>
<path d="M 60.0 79 h 10.0"></path><path d="M 70.0 79 h 10"></path><g>
<path d="M 80.0 79 h 272.5"></path><path d="M 503.5 79 h 272.5"></path><g>
<path d="M 352.5 79 h 0.0"></path><path d="M 446.5 79 h 0.0"></path><g class="terminal ">
<path d="M 352.5 79 h 0.0"></path><path d="M 398.0 79 h 0.0"></path><rect height="22" rx="10" ry="10" width="45.5" x="352.5" y="68"></rect><text x="375.25" y="83">"\"</text></g><path d="M 398.0 79 h 10"></path><path d="M 408.0 79 h 10"></path><g class="terminal ">
<path d="M 418.0 79 h 0.0"></path><path d="M 446.5 79 h 0.0"></path><rect height="22" rx="10" ry="10" width="28.5" x="418.0" y="68"></rect><text x="432.25" y="83">c</text></g></g><path d="M 446.5 79 h 10"></path><path d="M 456.5 79 h 10"></path><g class="terminal ">
<path d="M 466.5 79 h 0.0"></path><path d="M 503.5 79 h 0.0"></path><rect height="22" rx="10" ry="10" width="37.0" x="466.5" y="68"></rect><text x="485.0" y="83">WS</text></g></g><path d="M 776.0 79 a 10 10 0 0 1 10 10 v 0 a 10 10 0 0 1 -10 10 h -696.0 a 10 10 0 0 0 -10 10 v 0 a 10 10 0 0 0 10 10"></path><g>
<path d="M 80.0 119 h 288.25"></path><path d="M 487.75 119 h 288.25"></path><g class="terminal ">
<path d="M 368.25 119 h 0.0"></path><path d="M 430.75 119 h 0.0"></path><rect height="22" rx="10" ry="10" width="62.5" x="368.25" y="108"></rect><text x="399.5" y="123">/\d+/</text></g><path d="M 430.75 119 h 10"></path><path d="M 440.75 119 h 10"></path><g class="terminal ">
<path d="M 450.75 119 h 0.0"></path><path d="M 487.75 119 h 0.0"></path><rect height="22" rx="10" ry="10" width="37.0" x="450.75" y="108"></rect><text x="469.25" y="123">WS</text></g></g><path d="M 776.0 119 a 10 10 0 0 1 10 10 v 0 a 10 10 0 0 1 -10 10 h -696.0 a 10 10 0 0 0 -10 10 v 8 a 10 10 0 0 0 10 10"></path><g>
<path d="M 80.0 167 h 0.0"></path><path d="M 776.0 167 h 0.0"></path><path d="M 80.0 167 a 10 10 0 0 0 10 -10 v 0 a 10 10 0 0 1 10 -10"></path><g>
<path d="M 100.0 147 h 656.0"></path></g><path d="M 756.0 147 a 10 10 0 0 1 10 10 v 0 a 10 10 0 0 0 10 10"></path><path d="M 80.0 167 h 20"></path><g>
<path d="M 100.0 167 h 0.0"></path><path d="M 756.0 167 h 0.0"></path><g>
<path d="M 100.0 167 h 0.0"></path><path d="M 202.5 167 h 0.0"></path><g class="terminal ">
<path d="M 100.0 167 h 0.0"></path><path d="M 145.5 167 h 0.0"></path><rect height="22" rx="10" ry="10" width="45.5" x="100.0" y="156"></rect><text x="122.75" y="171">"\"</text></g><path d="M 145.5 167 h 10"></path><path d="M 155.5 167 h 10"></path><g class="terminal ">
<path d="M 165.5 167 h 0.0"></path><path d="M 202.5 167 h 0.0"></path><rect height="22" rx="10" ry="10" width="37.0" x="165.5" y="156"></rect><text x="184.0" y="171">ca</text></g></g><path d="M 202.5 167 h 10"></path><path d="M 212.5 167 h 10"></path><g class="terminal ">
<path d="M 222.5 167 h 0.0"></path><path d="M 259.5 167 h 0.0"></path><rect height="22" rx="10" ry="10" width="37.0" x="222.5" y="156"></rect><text x="241.0" y="171">WS</text></g><path d="M 259.5 167 h 10"></path><path d="M 269.5 167 h 10"></path><g class="terminal ">
<path d="M 279.5 167 h 0.0"></path><path d="M 665.0 167 h 0.0"></path><rect height="22" rx="10" ry="10" width="385.5" x="279.5" y="156"></rect><text x="472.25" y="171">/&#91;0-9&#93;+\p{L}?(\x{200F}?&#91;\-,&#93;&#91;0-9&#93;+\p{L}?)&#42;/</text></g><path d="M 665.0 167 h 10"></path><path d="M 675.0 167 h 10"></path><g class="terminal ">
<path d="M 685.0 167 h 0.0"></path><path d="M 756.0 167 h 0.0"></path><rect height="22" rx="10" ry="10" width="71.0" x="685.0" y="156"></rect><text x="720.5" y="171">"\ca&#42;"</text></g></g><path d="M 756.0 167 h 20"></path></g><path d="M 776.0 167 a 10 10 0 0 1 10 10 v 0 a 10 10 0 0 1 -10 10 h -696.0 a 10 10 0 0 0 -10 10 v 8 a 10 10 0 0 0 10 10"></path><g>
<path d="M 80.0 215 h 165.75"></path><path d="M 610.25 215 h 165.75"></path><path d="M 245.75 215 a 10 10 0 0 0 10 -10 v 0 a 10 10 0 0 1 10 -10"></path><g>
<path d="M 265.75 195 h 324.5"></path></g><path d="M 590.25 195 a 10 10 0 0 1 10 10 v 0 a 10 10 0 0 0 10 10"></path><path d="M 245.75 215 h 20"></path><g>
<path d="M 265.75 215 h 0.0"></path><path d="M 590.25 215 h 0.0"></path><g>
<path d="M 265.75 215 h 0.0"></path><path d="M 368.25 215 h 0.0"></path><g class="terminal ">
<path d="M 265.75 215 h 0.0"></path><path d="M 311.25 215 h 0.0"></path><rect height="22" rx="10" ry="10" width="45.5" x="265.75" y="204"></rect><text x="288.5" y="219">"\"</text></g><path d="M 311.25 215 h 10"></path><path d="M 321.25 215 h 10"></path><g class="terminal ">
<path d="M 331.25 215 h 0.0"></path><path d="M 368.25 215 h 0.0"></path><rect height="22" rx="10" ry="10" width="37.0" x="331.25" y="204"></rect><text x="349.75" y="219">cp</text></g></g><path d="M 368.25 215 h 10"></path><path d="M 378.25 215 h 10"></path><g class="terminal ">
<path d="M 388.25 215 h 0.0"></path><path d="M 425.25 215 h 0.0"></path><rect height="22" rx="10" ry="10" width="37.0" x="388.25" y="204"></rect><text x="406.75" y="219">WS</text></g><path d="M 425.25 215 h 10"></path><path d="M 435.25 215 h 10"></path><g class="terminal ">
<path d="M 445.25 215 h 0.0"></path><path d="M 499.25 215 h 0.0"></path><rect height="22" rx="10" ry="10" width="54.0" x="445.25" y="204"></rect><text x="472.25" y="219">Text</text></g><path d="M 499.25 215 h 10"></path><path d="M 509.25 215 h 10"></path><g class="terminal ">
<path d="M 519.25 215 h 0.0"></path><path d="M 590.25 215 h 0.0"></path><rect height="22" rx="10" ry="10" width="71.0" x="519.25" y="204"></rect><text x="554.75" y="219">"\cp&#42;"</text></g></g><path d="M 590.25 215 h 20"></path></g><path d="M 776.0 215 h 10"></path><path d="M 786.0 215 h 10.0"></path></g><g class="non-terminal ">
<path d="M 60.0 52 h 0.0"></path><path d="M 154.0 52 h 0.0"></path><text class="comment" x="107.0" y="57">ChapterStart</text></g></g><g class="non-terminal ">
<path d="M 50.0 28 h 0.0"></path><path d="M 109.0 28 h 0.0"></path><text class="comment" x="79.5" y="33">Chapter</text></g></g><path d="M 806.0 215 h 10"></path><path d="M 816.0 215 h 20 m 0 -10 v 20"></path></g></svg>