<svg class="railroad-diagram" height="338" viewBox="0 0 852.0 338" width="852.0" xmlns="http://www.w3.org/2000/svg" xmlns:xlink="http://www.w3.org/1999/xlink">
<g transform="translate(.5 .5)">
<style>/* <![CDATA[ */

    svg.railroad-diagram {
        background-color: hsl(30,20%,95%);
    }
    svg.railroad-diagram path {
        stroke-width: 2;
        stroke: black;
        fill: none;
    }
    svg.railroad-diagram text {
        font-size: 12px;
        text-anchor: middle;
        font-family: DejaVu Sans;
    }
    svg.railroad-diagram text.label {
        text-anchor:start;
    }
    svg.railroad-diagram text.comment {
        font-family: DejaVu Sans;
        font-size: 14px;
    }
    svg.railroad-diagram rect{
        stroke-width: 2;
        stroke: black;
        fill: rgb(210, 255, 210);
    }
    svg.railroad-diagram rect.group-box {
        stroke: gray;
        stroke-dasharray: 10 5;
        fill: none;
    }
    .terminal {
        font-family: DejaVu Sans;
    }
    svg.railroad-diagram g.altterminal rect {
        fill: rgb(251, 252, 207)
    }

/* ]]> */
</style><g>
<path d="M 20 31 v 20 m 0 -10 h 20"></path></g><path d="M 40 41 h 10"></path><g>
<path d="M 50 41 h 0.0"></path><path d="M 802.0 277 h 0.0"></path><g>
<path d="M 50.0 41 h 0.0"></path><path d="M 50.0 41 h 10"></path><g>
<path d="M 60.0 41 h 228.0"></path><path d="M 564.0 41 h 228.0"></path><g class="terminal ">
<path d="M 288.0 41 h 0.0"></path><path d="M 333.5 41 h 0.0"></path><rect height="22" rx="10" ry="10" width="45.5" x="288.0" y="30"></rect><text x="310.75" y="45">'\'</text></g><path d="M 333.5 41 h 10"></path><path d="M 343.5 41 h 10"></path><g class="terminal ">
<path d="M 353.5 41 h 0.0"></path><path d="M 399.0 41 h 0.0"></path><rect height="22" rx="10" ry="10" width="45.5" x="353.5" y="30"></rect><text x="376.25" y="45">"c"</text></g><path d="M 399.0 41 h 10"></path><path d="M 409.0 41 h 10"></path><g>
<path d="M 419.0 41 h 0.0"></path><path d="M 564.0 41 h 0.0"></path><path d="M 419.0 41 h 20"></path><g class="terminal ">
<path d="M 439.0 41 h 29.75"></path><path d="M 514.25 41 h 29.75"></path><rect height="22" rx="10" ry="10" width="45.5" x="468.75" y="30"></rect><text x="491.5" y="45">' '</text></g><path d="M 544.0 41 h 20"></path><path d="M 419.0 41 a 10 10 0 0 1 10 10 v 10 a 10 10 0 0 0 10 10"></path><g class="terminal altterminal">
<path d="M 439.0 71 h 0.0"></path><path d="M 544.0 71 h 0.0"></path><rect height="22" rx="10" ry="10" width="105.0" x="439.0" y="60"></rect><text x="491.5" y="75">TAGPARMEND</text></g><path d="M 544.0 71 a 10 10 0 0 0 10 -10 v -10 a 10 10 0 0 1 10 -10"></path></g></g><path d="M 792.0 41 a 10 10 0 0 1 10 10 v 39 a 10 10 0 0 1 -10 10 h -732.0 a 10 10 0 0 0 -10 10 v 9 a 10 10 0 0 0 10 10"></path><g>
<path d="M 60.0 129 h 10.0"></path><path d="M 782.0 129 h 10.0"></path><g class="terminal ">
<path d="M 70.0 129 h 0.0"></path><path d="M 158.0 129 h 0.0"></path><rect height="22" rx="10" ry="10" width="88.0" x="70.0" y="118"></rect><text x="114.0" y="133">/&#91;0-9&#93;+/</text></g><path d="M 158.0 129 h 10"></path><path d="M 168.0 129 h 10"></path><g>
<path d="M 178.0 129 h 0.0"></path><path d="M 782.0 129 h 0.0"></path><path d="M 178.0 129 h 20"></path><g class="terminal ">
<path d="M 198.0 129 h 259.25"></path><path d="M 502.75 129 h 259.25"></path><rect height="22" rx="10" ry="10" width="45.5" x="457.25" y="118"></rect><text x="480.0" y="133">' '</text></g><path d="M 762.0 129 h 20"></path><path d="M 178.0 129 a 10 10 0 0 1 10 10 v 10 a 10 10 0 0 0 10 10"></path><g class="terminal altterminal">
<path d="M 198.0 159 h 0.0"></path><path d="M 762.0 159 h 0.0"></path><rect height="22" rx="10" ry="10" width="564.0" x="198.0" y="148"></rect><text x="480.0" y="163">/((?:&#91;\u0009-\u000D\u0020&#93;|(?:\u000D?\u000A|\u000D)|$)+|(?=\\))/</text></g><path d="M 762.0 159 a 10 10 0 0 0 10 -10 v -10 a 10 10 0 0 1 10 -10"></path></g></g><path d="M 792.0 129 a 10 10 0 0 1 10 10 v 39 a 10 10 0 0 1 -10 10 h -732.0 a 10 10 0 0 0 -10 10 v 0 a 10 10 0 0 0 10 10"></path><g>
<path d="M 60.0 208 h 92.0"></path><path d="M 700.0 208 h 92.0"></path><path d="M 152.0 208 h 20"></path><g>
<path d="M 172.0 208 h 508.0"></path></g><path d="M 680.0 208 h 20"></path><path d="M 152.0 208 a 10 10 0 0 1 10 10 v 0 a 10 10 0 0 0 10 10"></path><g>
<path d="M 172.0 228 h 0.0"></path><path d="M 680.0 228 h 0.0"></path><g class="terminal ">
<path d="M 172.0 228 h 0.0"></path><path d="M 243.0 228 h 0.0"></path><rect height="22" rx="10" ry="10" width="71.0" x="172.0" y="217"></rect><text x="207.5" y="232">'\ca '</text></g><path d="M 243.0 228 h 10"></path><path d="M 253.0 228 h 10"></path><g class="terminal ">
<path d="M 263.0 228 h 0.0"></path><path d="M 589.0 228 h 0.0"></path><rect height="22" rx="10" ry="10" width="326.0" x="263.0" y="217"></rect><text x="426.0" y="232">/&#91;0-9&#93;+\p{L}?(‏?&#91;\-,&#93;&#91;0-9&#93;+\p{L}?)&#42;/</text></g><path d="M 589.0 228 h 10"></path><path d="M 599.0 228 h 10"></path><g class="terminal ">
<path d="M 609.0 228 h 0.0"></path><path d="M 680.0 228 h 0.0"></path><rect height="22" rx="10" ry="10" width="71.0" x="609.0" y="217"></rect><text x="644.5" y="232">'\ca&#42;'</text></g></g><path d="M 680.0 228 a 10 10 0 0 0 10 -10 v 0 a 10 10 0 0 1 10 -10"></path></g><path d="M 792.0 208 a 10 10 0 0 1 10 10 v 29 a 10 10 0 0 1 -10 10 h -732.0 a 10 10 0 0 0 -10 10 v 0 a 10 10 0 0 0 10 10"></path><g>
<path d="M 60.0 277 h 273.5"></path><path d="M 518.5 277 h 273.5"></path><path d="M 333.5 277 h 20"></path><g>
<path d="M 353.5 277 h 145.0"></path></g><path d="M 498.5 277 h 20"></path><path d="M 333.5 277 a 10 10 0 0 1 10 10 v 0 a 10 10 0 0 0 10 10"></path><g>
<path d="M 353.5 297 h 0.0"></path><path d="M 498.5 297 h 0.0"></path><g class="terminal ">
<path d="M 353.5 297 h 0.0"></path><path d="M 424.5 297 h 0.0"></path><rect height="22" rx="10" ry="10" width="71.0" x="353.5" y="286"></rect><text x="389.0" y="301">'\cp '</text></g><path d="M 424.5 297 h 10"></path><path d="M 434.5 297 h 10"></path><g class="terminal ">
<path d="M 444.5 297 h 0.0"></path><path d="M 498.5 297 h 0.0"></path><rect height="22" rx="10" ry="10" width="54.0" x="444.5" y="286"></rect><text x="471.5" y="301">TEXT</text></g></g><path d="M 498.5 297 a 10 10 0 0 0 10 -10 v 0 a 10 10 0 0 1 10 -10"></path></g><path d="M 792.0 277 h 10"></path><path d="M 802.0 277 h 0.0"></path></g></g><path d="M 802.0 277 h 10"></path><path d="M 812.0 277 h 20 m 0 -10 v 20"></path></g></svg>