<svg class="railroad-diagram" height="241" viewBox="0 0 730.5 241" width="730.5" xmlns="http://www.w3.org/2000/svg" xmlns:xlink="http://www.w3.org/1999/xlink">
<g transform="translate(.5 .5)">
<style>/* <![CDATA[ */

    svg.railroad-diagram {
        background-color:hsl(30,20%,95%);
    }
    svg.railroad-diagram path {
        stroke-width: 2;
        stroke: black;
        fill: none;
    }
    svg.railroad-diagram text {
        font-size: 12px;
        text-anchor: middle;
        font-family: DejaVu Sans;
    }
    svg.railroad-diagram text.label {
        text-anchor:start;
    }
    svg.railroad-diagram text.comment {
        font-family: DejaVu Sans;
        font-size: 14px;
    }
    svg.railroad-diagram rect{
        stroke-width: 2;
        stroke:black;
        fill: rgb(210, 255, 210);
    }
    svg.railroad-diagram rect.group-box {
        stroke: gray;
        stroke-dasharray: 10 5;
        fill: none;
    }
    .terminal {
        font-family: DejaVu Sans;
    }

/* ]]> */
</style><g>
<path d="M 20 21 v 20 m 0 -10 h 20"></path></g><path d="M 40 31 h 10"></path><g>
<path d="M 50 31 h 0.0"></path><path d="M 680.5 180 h 0.0"></path><g>
<path d="M 50.0 31 h 0.0"></path><path d="M 50.0 31 h 10"></path><g>
<path d="M 60.0 31 h 204.25"></path><path d="M 466.25 31 h 204.25"></path><g class="terminal ">
<path d="M 264.25 31 h 0.0"></path><path d="M 309.75 31 h 0.0"></path><rect height="22" rx="10" ry="10" width="45.5" x="264.25" y="20"></rect><text x="287.0" y="35">'\'</text></g><path d="M 309.75 31 h 10"></path><path d="M 319.75 31 h 10"></path><g class="terminal ">
<path d="M 329.75 31 h 0.0"></path><path d="M 375.25 31 h 0.0"></path><rect height="22" rx="10" ry="10" width="45.5" x="329.75" y="20"></rect><text x="352.5" y="35">"c"</text></g><path d="M 375.25 31 h 10"></path><path d="M 385.25 31 h 10"></path><g class="terminal ">
<path d="M 395.25 31 h 0.0"></path><path d="M 466.25 31 h 0.0"></path><rect height="22" rx="10" ry="10" width="71.0" x="395.25" y="20"></rect><text x="430.75" y="35">TAGEND</text></g></g><path d="M 670.5 31 a 10 10 0 0 1 10 10 v 0 a 10 10 0 0 1 -10 10 h -610.5 a 10 10 0 0 0 -10 10 v 0 a 10 10 0 0 0 10 10"></path><g>
<path d="M 60.0 71 h 232.75"></path><path d="M 437.75 71 h 232.75"></path><g class="terminal ">
<path d="M 292.75 71 h 0.0"></path><path d="M 380.75 71 h 0.0"></path><rect height="22" rx="10" ry="10" width="88.0" x="292.75" y="60"></rect><text x="336.75" y="75">/&#91;0-9&#93;+/</text></g><path d="M 380.75 71 h 10"></path><path d="M 390.75 71 h 10"></path><g class="terminal ">
<path d="M 400.75 71 h 0.0"></path><path d="M 437.75 71 h 0.0"></path><rect height="22" rx="10" ry="10" width="37.0" x="400.75" y="60"></rect><text x="419.25" y="75">WS</text></g></g><path d="M 670.5 71 a 10 10 0 0 1 10 10 v 0 a 10 10 0 0 1 -10 10 h -610.5 a 10 10 0 0 0 -10 10 v 0 a 10 10 0 0 0 10 10"></path><g>
<path d="M 60.0 111 h 10.0"></path><path d="M 660.5 111 h 10.0"></path><path d="M 70.0 111 h 20"></path><g>
<path d="M 90.0 111 h 550.5"></path></g><path d="M 640.5 111 h 20"></path><path d="M 70.0 111 a 10 10 0 0 1 10 10 v 0 a 10 10 0 0 0 10 10"></path><g>
<path d="M 90.0 131 h 0.0"></path><path d="M 640.5 131 h 0.0"></path><g class="terminal ">
<path d="M 90.0 131 h 0.0"></path><path d="M 161.0 131 h 0.0"></path><rect height="22" rx="10" ry="10" width="71.0" x="90.0" y="120"></rect><text x="125.5" y="135">'\ca '</text></g><path d="M 161.0 131 h 10"></path><path d="M 171.0 131 h 10"></path><g class="terminal ">
<path d="M 181.0 131 h 0.0"></path><path d="M 549.5 131 h 0.0"></path><rect height="22" rx="10" ry="10" width="368.5" x="181.0" y="120"></rect><text x="365.25" y="135">/&#91;0-9&#93;+\p{L}?(\u200F?&#91;\-,&#93;&#91;0-9&#93;+\p{L}?)&#42;/</text></g><path d="M 549.5 131 h 10"></path><path d="M 559.5 131 h 10"></path><g class="terminal ">
<path d="M 569.5 131 h 0.0"></path><path d="M 640.5 131 h 0.0"></path><rect height="22" rx="10" ry="10" width="71.0" x="569.5" y="120"></rect><text x="605.0" y="135">'\ca&#42;'</text></g></g><path d="M 640.5 131 a 10 10 0 0 0 10 -10 v 0 a 10 10 0 0 1 10 -10"></path></g><path d="M 670.5 111 a 10 10 0 0 1 10 10 v 29 a 10 10 0 0 1 -10 10 h -610.5 a 10 10 0 0 0 -10 10 v 0 a 10 10 0 0 0 10 10"></path><g>
<path d="M 60.0 180 h 167.25"></path><path d="M 503.25 180 h 167.25"></path><path d="M 227.25 180 h 20"></path><g>
<path d="M 247.25 180 h 236.0"></path></g><path d="M 483.25 180 h 20"></path><path d="M 227.25 180 a 10 10 0 0 1 10 10 v 0 a 10 10 0 0 0 10 10"></path><g>
<path d="M 247.25 200 h 0.0"></path><path d="M 483.25 200 h 0.0"></path><g class="terminal ">
<path d="M 247.25 200 h 0.0"></path><path d="M 318.25 200 h 0.0"></path><rect height="22" rx="10" ry="10" width="71.0" x="247.25" y="189"></rect><text x="282.75" y="204">'\cp '</text></g><path d="M 318.25 200 h 10"></path><path d="M 328.25 200 h 10"></path><g class="terminal ">
<path d="M 338.25 200 h 0.0"></path><path d="M 392.25 200 h 0.0"></path><rect height="22" rx="10" ry="10" width="54.0" x="338.25" y="189"></rect><text x="365.25" y="204">TEXT</text></g><path d="M 392.25 200 h 10"></path><path d="M 402.25 200 h 10"></path><g class="terminal ">
<path d="M 412.25 200 h 0.0"></path><path d="M 483.25 200 h 0.0"></path><rect height="22" rx="10" ry="10" width="71.0" x="412.25" y="189"></rect><text x="447.75" y="204">'\cp&#42;'</text></g></g><path d="M 483.25 200 a 10 10 0 0 0 10 -10 v 0 a 10 10 0 0 1 10 -10"></path></g><path d="M 670.5 180 h 10"></path><path d="M 680.5 180 h 0.0"></path></g></g><path d="M 680.5 180 h 10"></path><path d="M 690.5 180 h 20 m 0 -10 v 20"></path></g></svg>