<svg class="railroad-diagram" height="429" viewBox="0 0 2408.5 429" width="2408.5" xmlns="http://www.w3.org/2000/svg" xmlns:xlink="http://www.w3.org/1999/xlink">
<g transform="translate(.5 .5)">
<style>/* <![CDATA[ */

    svg.railroad-diagram {
        background-color: hsl(30,20%,95%);
    }
    svg.railroad-diagram path {
        stroke-width: 2;
        stroke: black;
        fill: none;
    }
    svg.railroad-diagram text {
        font-size: 12px;
        text-anchor: middle;
        font-family: DejaVu Sans;
    }
    svg.railroad-diagram text.label {
        text-anchor:start;
    }
    svg.railroad-diagram text.comment {
        font-family: DejaVu Sans;
        font-size: 14px;
    }
    svg.railroad-diagram rect{
        stroke-width: 2;
        stroke: black;
        fill: rgb(210, 255, 210);
    }
    svg.railroad-diagram rect.group-box {
        stroke: gray;
        stroke-dasharray: 10 5;
        fill: none;
    }
    .terminal {
        font-family: DejaVu Sans;
    }
    svg.railroad-diagram g.altterminal rect {
        fill: rgb(251, 252, 207)
    }

/* ]]> */
</style><g>
<path d="M 20 163 v 20 m 0 -10 h 20"></path></g><path d="M 40 173 h 10"></path><g>
<path d="M 50 173 h 0.0"></path><path d="M 2358.5 173 h 0.0"></path><g>
<path d="M 50.0 173 h 0.0"></path><path d="M 2358.5 173 h 0.0"></path><path d="M 50.0 173 h 20"></path><g>
<path d="M 70.0 173 h 0.0"></path><path d="M 2338.5 173 h 0.0"></path><g>
<path d="M 70.0 173 h 0.0"></path><g>
<path d="M 70.0 173 h 10.0"></path><path d="M 1255.5 173 h 10.0"></path><g class="terminal ">
<path d="M 80.0 173 h 0.0"></path><path d="M 142.5 173 h 0.0"></path><rect height="22" rx="10" ry="10" width="62.5" x="80.0" y="162"></rect><text x="111.25" y="177">'\\+'</text></g><path d="M 142.5 173 h 10"></path><path d="M 152.5 173 h 10"></path><g>
<path d="M 162.5 173 h 0.0"></path><path d="M 1124.5 173 h 0.0"></path><rect class="group-box" height="314" rx="10" ry="10" width="962.0" x="162.5" y="46"></rect><g>
<path d="M 162.5 173 h 10.0"></path><path d="M 1114.5 173 h 10.0"></path><g>
<path d="M 172.5 173 h 0.0"></path><path d="M 1114.5 173 h 0.0"></path><path d="M 172.5 173 a 10 10 0 0 0 10 -10 v -99 a 10 10 0 0 1 10 -10 h 565.5"></path><path d="M 342.0 352 h 752.5 a 10 10 0 0 0 10 -10 v -159 a 10 10 0 0 1 10 -10"></path><path d="M 172.5 173 h 10"></path><g>
<path d="M 182.5 173 h 10.0"></path><path d="M 312.0 173 h 10.0"></path><path d="M 192.5 173 a 10 10 0 0 0 10 -10 v -10 a 10 10 0 0 1 10 -10"></path><g class="terminal ">
<path d="M 212.5 143 h 12.75"></path><path d="M 279.25 143 h 12.75"></path><rect height="22" rx="10" ry="10" width="54.0" x="225.25" y="132"></rect><text x="252.25" y="147">"qs"</text></g><path d="M 292.0 143 a 10 10 0 0 1 10 10 v 10 a 10 10 0 0 0 10 10"></path><path d="M 192.5 173 a 10 10 0 0 0 10 -10 v -40 a 10 10 0 0 1 10 -10"></path><g class="terminal ">
<path d="M 212.5 113 h 8.5"></path><path d="M 283.5 113 h 8.5"></path><rect height="22" rx="10" ry="10" width="62.5" x="221.0" y="102"></rect><text x="252.25" y="117">"qac"</text></g><path d="M 292.0 113 a 10 10 0 0 1 10 10 v 40 a 10 10 0 0 0 10 10"></path><path d="M 192.5 173 a 10 10 0 0 0 10 -10 v -70 a 10 10 0 0 1 10 -10"></path><g class="terminal ">
<path d="M 212.5 83 h 12.75"></path><path d="M 279.25 83 h 12.75"></path><rect height="22" rx="10" ry="10" width="54.0" x="225.25" y="72"></rect><text x="252.25" y="87">"vp"</text></g><path d="M 292.0 83 a 10 10 0 0 1 10 10 v 70 a 10 10 0 0 0 10 10"></path><path d="M 192.5 173 h 20"></path><g class="terminal ">
<path d="M 212.5 173 h 8.5"></path><path d="M 283.5 173 h 8.5"></path><rect height="22" rx="10" ry="10" width="62.5" x="221.0" y="162"></rect><text x="252.25" y="177">"add"</text></g><path d="M 292.0 173 h 20"></path><path d="M 192.5 173 a 10 10 0 0 1 10 10 v 10 a 10 10 0 0 0 10 10"></path><g class="terminal ">
<path d="M 212.5 203 h 0.0"></path><path d="M 292.0 203 h 0.0"></path><rect height="22" rx="10" ry="10" width="79.5" x="212.5" y="192"></rect><text x="252.25" y="207">"addpn"</text></g><path d="M 292.0 203 a 10 10 0 0 0 10 -10 v -10 a 10 10 0 0 1 10 -10"></path><path d="M 192.5 173 a 10 10 0 0 1 10 10 v 40 a 10 10 0 0 0 10 10"></path><g class="terminal ">
<path d="M 212.5 233 h 12.75"></path><path d="M 279.25 233 h 12.75"></path><rect height="22" rx="10" ry="10" width="54.0" x="225.25" y="222"></rect><text x="252.25" y="237">"bk"</text></g><path d="M 292.0 233 a 10 10 0 0 0 10 -10 v -40 a 10 10 0 0 1 10 -10"></path><path d="M 192.5 173 a 10 10 0 0 1 10 10 v 70 a 10 10 0 0 0 10 10"></path><g class="terminal ">
<path d="M 212.5 263 h 12.75"></path><path d="M 279.25 263 h 12.75"></path><rect height="22" rx="10" ry="10" width="54.0" x="225.25" y="252"></rect><text x="252.25" y="267">"dc"</text></g><path d="M 292.0 263 a 10 10 0 0 0 10 -10 v -70 a 10 10 0 0 1 10 -10"></path><path d="M 192.5 173 a 10 10 0 0 1 10 10 v 100 a 10 10 0 0 0 10 10"></path><g class="terminal ">
<path d="M 212.5 293 h 8.5"></path><path d="M 283.5 293 h 8.5"></path><rect height="22" rx="10" ry="10" width="62.5" x="221.0" y="282"></rect><text x="252.25" y="297">"efm"</text></g><path d="M 292.0 293 a 10 10 0 0 0 10 -10 v -100 a 10 10 0 0 1 10 -10"></path><path d="M 192.5 173 a 10 10 0 0 1 10 10 v 130 a 10 10 0 0 0 10 10"></path><g class="terminal ">
<path d="M 212.5 323 h 12.75"></path><path d="M 279.25 323 h 12.75"></path><rect height="22" rx="10" ry="10" width="54.0" x="225.25" y="312"></rect><text x="252.25" y="327">"fm"</text></g><path d="M 292.0 323 a 10 10 0 0 0 10 -10 v -130 a 10 10 0 0 1 10 -10"></path></g><path d="M 322.0 173 a 10 10 0 0 1 10 10 v 159 a 10 10 0 0 0 10 10"></path><path d="M 322.0 54 a 10 10 0 0 1 10 10 v 99 a 10 10 0 0 0 10 10"></path><g>
<path d="M 342.0 173 h 10.0"></path><path d="M 454.5 173 h 10.0"></path><path d="M 352.0 173 a 10 10 0 0 0 10 -10 v -10 a 10 10 0 0 1 10 -10"></path><g class="terminal ">
<path d="M 372.0 143 h 0.0"></path><path d="M 434.5 143 h 0.0"></path><rect height="22" rx="10" ry="10" width="62.5" x="372.0" y="132"></rect><text x="403.25" y="147">"ndx"</text></g><path d="M 434.5 143 a 10 10 0 0 1 10 10 v 10 a 10 10 0 0 0 10 10"></path><path d="M 352.0 173 a 10 10 0 0 0 10 -10 v -40 a 10 10 0 0 1 10 -10"></path><g class="terminal ">
<path d="M 372.0 113 h 4.25"></path><path d="M 430.25 113 h 4.25"></path><rect height="22" rx="10" ry="10" width="54.0" x="376.25" y="102"></rect><text x="403.25" y="117">"nd"</text></g><path d="M 434.5 113 a 10 10 0 0 1 10 10 v 40 a 10 10 0 0 0 10 10"></path><path d="M 352.0 173 a 10 10 0 0 0 10 -10 v -70 a 10 10 0 0 1 10 -10"></path><g class="terminal ">
<path d="M 372.0 83 h 8.5"></path><path d="M 426.0 83 h 8.5"></path><rect height="22" rx="10" ry="10" width="45.5" x="380.5" y="72"></rect><text x="403.25" y="87">"k"</text></g><path d="M 434.5 83 a 10 10 0 0 1 10 10 v 70 a 10 10 0 0 0 10 10"></path><path d="M 352.0 173 h 20"></path><g class="terminal ">
<path d="M 372.0 173 h 0.0"></path><path d="M 434.5 173 h 0.0"></path><rect height="22" rx="10" ry="10" width="62.5" x="372.0" y="162"></rect><text x="403.25" y="177">"ord"</text></g><path d="M 434.5 173 h 20"></path><path d="M 352.0 173 a 10 10 0 0 1 10 10 v 10 a 10 10 0 0 0 10 10"></path><g class="terminal ">
<path d="M 372.0 203 h 0.0"></path><path d="M 434.5 203 h 0.0"></path><rect height="22" rx="10" ry="10" width="62.5" x="372.0" y="192"></rect><text x="403.25" y="207">"png"</text></g><path d="M 434.5 203 a 10 10 0 0 0 10 -10 v -10 a 10 10 0 0 1 10 -10"></path><path d="M 352.0 173 a 10 10 0 0 1 10 10 v 40 a 10 10 0 0 0 10 10"></path><g class="terminal ">
<path d="M 372.0 233 h 4.25"></path><path d="M 430.25 233 h 4.25"></path><rect height="22" rx="10" ry="10" width="54.0" x="376.25" y="222"></rect><text x="403.25" y="237">"pn"</text></g><path d="M 434.5 233 a 10 10 0 0 0 10 -10 v -40 a 10 10 0 0 1 10 -10"></path><path d="M 352.0 173 a 10 10 0 0 1 10 10 v 70 a 10 10 0 0 0 10 10"></path><g class="terminal ">
<path d="M 372.0 263 h 0.0"></path><path d="M 434.5 263 h 0.0"></path><rect height="22" rx="10" ry="10" width="62.5" x="372.0" y="252"></rect><text x="403.25" y="267">"pro"</text></g><path d="M 434.5 263 a 10 10 0 0 0 10 -10 v -70 a 10 10 0 0 1 10 -10"></path><path d="M 352.0 173 a 10 10 0 0 1 10 10 v 100 a 10 10 0 0 0 10 10"></path><g class="terminal ">
<path d="M 372.0 293 h 4.25"></path><path d="M 430.25 293 h 4.25"></path><rect height="22" rx="10" ry="10" width="54.0" x="376.25" y="282"></rect><text x="403.25" y="297">"qt"</text></g><path d="M 434.5 293 a 10 10 0 0 0 10 -10 v -100 a 10 10 0 0 1 10 -10"></path><path d="M 352.0 173 a 10 10 0 0 1 10 10 v 130 a 10 10 0 0 0 10 10"></path><g class="terminal ">
<path d="M 372.0 323 h 4.25"></path><path d="M 430.25 323 h 4.25"></path><rect height="22" rx="10" ry="10" width="54.0" x="376.25" y="312"></rect><text x="403.25" y="327">"rq"</text></g><path d="M 434.5 323 a 10 10 0 0 0 10 -10 v -130 a 10 10 0 0 1 10 -10"></path></g><path d="M 464.5 173 a 10 10 0 0 1 10 10 v 159 a 10 10 0 0 0 10 10"></path><path d="M 464.5 54 a 10 10 0 0 1 10 10 v 99 a 10 10 0 0 0 10 10"></path><g>
<path d="M 484.5 173 h 10.0"></path><path d="M 597.0 173 h 10.0"></path><path d="M 494.5 173 a 10 10 0 0 0 10 -10 v -10 a 10 10 0 0 1 10 -10"></path><g class="terminal ">
<path d="M 514.5 143 h 4.25"></path><path d="M 572.75 143 h 4.25"></path><rect height="22" rx="10" ry="10" width="54.0" x="518.75" y="132"></rect><text x="545.75" y="147">"tl"</text></g><path d="M 577.0 143 a 10 10 0 0 1 10 10 v 10 a 10 10 0 0 0 10 10"></path><path d="M 494.5 173 a 10 10 0 0 0 10 -10 v -40 a 10 10 0 0 1 10 -10"></path><g class="terminal ">
<path d="M 514.5 113 h 0.0"></path><path d="M 577.0 113 h 0.0"></path><rect height="22" rx="10" ry="10" width="62.5" x="514.5" y="102"></rect><text x="545.75" y="117">"sls"</text></g><path d="M 577.0 113 a 10 10 0 0 1 10 10 v 40 a 10 10 0 0 0 10 10"></path><path d="M 494.5 173 a 10 10 0 0 0 10 -10 v -70 a 10 10 0 0 1 10 -10"></path><g class="terminal ">
<path d="M 514.5 83 h 0.0"></path><path d="M 577.0 83 h 0.0"></path><rect height="22" rx="10" ry="10" width="62.5" x="514.5" y="72"></rect><text x="545.75" y="87">"sig"</text></g><path d="M 577.0 83 a 10 10 0 0 1 10 10 v 70 a 10 10 0 0 0 10 10"></path><path d="M 494.5 173 h 20"></path><g class="terminal ">
<path d="M 514.5 173 h 4.25"></path><path d="M 572.75 173 h 4.25"></path><rect height="22" rx="10" ry="10" width="54.0" x="518.75" y="162"></rect><text x="545.75" y="177">"wg"</text></g><path d="M 577.0 173 h 20"></path><path d="M 494.5 173 a 10 10 0 0 1 10 10 v 10 a 10 10 0 0 0 10 10"></path><g class="terminal ">
<path d="M 514.5 203 h 4.25"></path><path d="M 572.75 203 h 4.25"></path><rect height="22" rx="10" ry="10" width="54.0" x="518.75" y="192"></rect><text x="545.75" y="207">"wh"</text></g><path d="M 577.0 203 a 10 10 0 0 0 10 -10 v -10 a 10 10 0 0 1 10 -10"></path><path d="M 494.5 173 a 10 10 0 0 1 10 10 v 40 a 10 10 0 0 0 10 10"></path><g class="terminal ">
<path d="M 514.5 233 h 4.25"></path><path d="M 572.75 233 h 4.25"></path><rect height="22" rx="10" ry="10" width="54.0" x="518.75" y="222"></rect><text x="545.75" y="237">"wa"</text></g><path d="M 577.0 233 a 10 10 0 0 0 10 -10 v -40 a 10 10 0 0 1 10 -10"></path><path d="M 494.5 173 a 10 10 0 0 1 10 10 v 70 a 10 10 0 0 0 10 10"></path><g class="terminal ">
<path d="M 514.5 263 h 4.25"></path><path d="M 572.75 263 h 4.25"></path><rect height="22" rx="10" ry="10" width="54.0" x="518.75" y="252"></rect><text x="545.75" y="267">"wj"</text></g><path d="M 577.0 263 a 10 10 0 0 0 10 -10 v -70 a 10 10 0 0 1 10 -10"></path><path d="M 494.5 173 a 10 10 0 0 1 10 10 v 100 a 10 10 0 0 0 10 10"></path><g class="terminal ">
<path d="M 514.5 293 h 0.0"></path><path d="M 577.0 293 h 0.0"></path><rect height="22" rx="10" ry="10" width="62.5" x="514.5" y="282"></rect><text x="545.75" y="297">"jmp"</text></g><path d="M 577.0 293 a 10 10 0 0 0 10 -10 v -100 a 10 10 0 0 1 10 -10"></path><path d="M 494.5 173 a 10 10 0 0 1 10 10 v 130 a 10 10 0 0 0 10 10"></path><g class="terminal ">
<path d="M 514.5 323 h 4.25"></path><path d="M 572.75 323 h 4.25"></path><rect height="22" rx="10" ry="10" width="54.0" x="518.75" y="312"></rect><text x="545.75" y="327">"no"</text></g><path d="M 577.0 323 a 10 10 0 0 0 10 -10 v -130 a 10 10 0 0 1 10 -10"></path></g><path d="M 607.0 173 a 10 10 0 0 1 10 10 v 159 a 10 10 0 0 0 10 10"></path><path d="M 607.0 54 a 10 10 0 0 1 10 10 v 99 a 10 10 0 0 0 10 10"></path><g>
<path d="M 627.0 173 h 10.0"></path><path d="M 748.0 173 h 10.0"></path><path d="M 637.0 173 a 10 10 0 0 0 10 -10 v -10 a 10 10 0 0 1 10 -10"></path><g class="terminal ">
<path d="M 657.0 143 h 8.5"></path><path d="M 719.5 143 h 8.5"></path><rect height="22" rx="10" ry="10" width="54.0" x="665.5" y="132"></rect><text x="692.5" y="147">"bd"</text></g><path d="M 728.0 143 a 10 10 0 0 1 10 10 v 10 a 10 10 0 0 0 10 10"></path><path d="M 637.0 173 a 10 10 0 0 0 10 -10 v -40 a 10 10 0 0 1 10 -10"></path><g class="terminal ">
<path d="M 657.0 113 h 0.0"></path><path d="M 728.0 113 h 0.0"></path><rect height="22" rx="10" ry="10" width="71.0" x="657.0" y="102"></rect><text x="692.5" y="117">"bdit"</text></g><path d="M 728.0 113 a 10 10 0 0 1 10 10 v 40 a 10 10 0 0 0 10 10"></path><path d="M 637.0 173 a 10 10 0 0 0 10 -10 v -70 a 10 10 0 0 1 10 -10"></path><g class="terminal ">
<path d="M 657.0 83 h 8.5"></path><path d="M 719.5 83 h 8.5"></path><rect height="22" rx="10" ry="10" width="54.0" x="665.5" y="72"></rect><text x="692.5" y="87">"it"</text></g><path d="M 728.0 83 a 10 10 0 0 1 10 10 v 70 a 10 10 0 0 0 10 10"></path><path d="M 637.0 173 h 20"></path><g class="terminal ">
<path d="M 657.0 173 h 8.5"></path><path d="M 719.5 173 h 8.5"></path><rect height="22" rx="10" ry="10" width="54.0" x="665.5" y="162"></rect><text x="692.5" y="177">"em"</text></g><path d="M 728.0 173 h 20"></path><path d="M 637.0 173 a 10 10 0 0 1 10 10 v 10 a 10 10 0 0 0 10 10"></path><g class="terminal ">
<path d="M 657.0 203 h 8.5"></path><path d="M 719.5 203 h 8.5"></path><rect height="22" rx="10" ry="10" width="54.0" x="665.5" y="192"></rect><text x="692.5" y="207">"sc"</text></g><path d="M 728.0 203 a 10 10 0 0 0 10 -10 v -10 a 10 10 0 0 1 10 -10"></path><path d="M 637.0 173 a 10 10 0 0 1 10 10 v 40 a 10 10 0 0 0 10 10"></path><g class="terminal ">
<path d="M 657.0 233 h 4.25"></path><path d="M 723.75 233 h 4.25"></path><rect height="22" rx="10" ry="10" width="62.5" x="661.25" y="222"></rect><text x="692.5" y="237">"sup"</text></g><path d="M 728.0 233 a 10 10 0 0 0 10 -10 v -40 a 10 10 0 0 1 10 -10"></path><path d="M 637.0 173 a 10 10 0 0 1 10 10 v 70 a 10 10 0 0 0 10 10"></path><g class="terminal ">
<path d="M 657.0 263 h 12.75"></path><path d="M 715.25 263 h 12.75"></path><rect height="22" rx="10" ry="10" width="45.5" x="669.75" y="252"></rect><text x="692.5" y="267">"w"</text></g><path d="M 728.0 263 a 10 10 0 0 0 10 -10 v -70 a 10 10 0 0 1 10 -10"></path><path d="M 637.0 173 a 10 10 0 0 1 10 10 v 100 a 10 10 0 0 0 10 10"></path><g class="terminal ">
<path d="M 657.0 293 h 8.5"></path><path d="M 719.5 293 h 8.5"></path><rect height="22" rx="10" ry="10" width="54.0" x="665.5" y="282"></rect><text x="692.5" y="297">"rb"</text></g><path d="M 728.0 293 a 10 10 0 0 0 10 -10 v -100 a 10 10 0 0 1 10 -10"></path><path d="M 637.0 173 a 10 10 0 0 1 10 10 v 130 a 10 10 0 0 0 10 10"></path><g class="terminal ">
<path d="M 657.0 323 h 4.25"></path><path d="M 723.75 323 h 4.25"></path><rect height="22" rx="10" ry="10" width="62.5" x="661.25" y="312"></rect><text x="692.5" y="327">"jmp"</text></g><path d="M 728.0 323 a 10 10 0 0 0 10 -10 v -130 a 10 10 0 0 1 10 -10"></path></g><path d="M 758.0 173 a 10 10 0 0 1 10 10 v 159 a 10 10 0 0 0 10 10"></path><path d="M 758.0 54 a 10 10 0 0 1 10 10 v 99 a 10 10 0 0 0 10 10"></path><g>
<path d="M 778.0 173 h 10.0"></path><path d="M 1094.5 173 h 10.0"></path><path d="M 788.0 173 h 20"></path><g class="non-terminal ">
<path d="M 808.0 173 h 0.0"></path><path d="M 1074.5 173 h 0.0"></path><rect height="22" width="266.5" x="808.0" y="162"></rect><text x="941.25" y="177">FullCharExtra.char.style.enum</text></g><path d="M 1074.5 173 h 20"></path></g><path d="M 1104.5 173 h 10"></path></g></g><g class="non-terminal ">
<path d="M 162.5 38 h 0.0"></path><path d="M 179.5 38 h 0.0"></path><text class="comment" x="171.0" y="43">➋</text></g></g><path d="M 1124.5 173 h 10"></path><path d="M 1134.5 173 h 10"></path><g>
<path d="M 1144.5 173 h 0.0"></path><path d="M 1255.5 173 h 0.0"></path><path d="M 1144.5 173 h 20"></path><g class="terminal ">
<path d="M 1164.5 173 h 12.75"></path><path d="M 1222.75 173 h 12.75"></path><rect height="22" rx="10" ry="10" width="45.5" x="1177.25" y="162"></rect><text x="1200.0" y="177">' '</text></g><path d="M 1235.5 173 h 20"></path><path d="M 1144.5 173 a 10 10 0 0 1 10 10 v 10 a 10 10 0 0 0 10 10"></path><g class="terminal altterminal">
<path d="M 1164.5 203 h 0.0"></path><path d="M 1235.5 203 h 0.0"></path><rect height="22" rx="10" ry="10" width="71.0" x="1164.5" y="192"></rect><text x="1200.0" y="207">TAGEND</text></g><path d="M 1235.5 203 a 10 10 0 0 0 10 -10 v -10 a 10 10 0 0 1 10 -10"></path></g></g><path d="M 1265.5 173 h 0.0"></path></g><path d="M 1265.5 173 h 10"></path><path d="M 1275.5 173 h 10"></path><g>
<path d="M 1285.5 173 h 0.0"></path><path d="M 2085.0 173 h 0.0"></path><path d="M 1285.5 173 h 20"></path><g>
<path d="M 1305.5 173 h 0.0"></path><path d="M 2065.0 173 h 0.0"></path><g class="non-terminal ">
<path d="M 1305.5 173 h 0.0"></path><path d="M 1419.0 173 h 0.0"></path><rect height="22" width="113.5" x="1305.5" y="162"></rect><text x="1362.25" y="177">CharContent</text></g><path d="M 1419.0 173 h 10"></path><path d="M 1429.0 173 h 10"></path><g>
<path d="M 1439.0 173 h 0.0"></path><path d="M 2065.0 173 h 0.0"></path><path d="M 1439.0 173 h 20"></path><g>
<path d="M 1459.0 173 h 586.0"></path></g><path d="M 2045.0 173 h 20"></path><path d="M 1439.0 173 a 10 10 0 0 1 10 10 v 9 a 10 10 0 0 0 10 10"></path><g>
<path d="M 1459.0 202 h 0.0"></path><path d="M 2045.0 202 h 0.0"></path><g>
<path d="M 1459.0 202 h 0.0"></path><path d="M 1553.0 202 h 0.0"></path><path d="M 1459.0 202 h 20"></path><g class="terminal ">
<path d="M 1479.0 202 h 4.25"></path><path d="M 1528.75 202 h 4.25"></path><rect height="22" rx="10" ry="10" width="45.5" x="1483.25" y="191"></rect><text x="1506.0" y="206">'|'</text></g><path d="M 1533.0 202 h 20"></path><path d="M 1459.0 202 a 10 10 0 0 1 10 10 v 10 a 10 10 0 0 0 10 10"></path><g class="terminal altterminal">
<path d="M 1479.0 232 h 0.0"></path><path d="M 1533.0 232 h 0.0"></path><rect height="22" rx="10" ry="10" width="54.0" x="1479.0" y="221"></rect><text x="1506.0" y="236">PIPE</text></g><path d="M 1533.0 232 a 10 10 0 0 0 10 -10 v -10 a 10 10 0 0 1 10 -10"></path></g><path d="M 1553.0 202 h 10"></path><path d="M 1563.0 202 h 10"></path><g>
<path d="M 1573.0 202 h 0.0"></path><path d="M 2045.0 202 h 0.0"></path><path d="M 1573.0 202 h 10"></path><g>
<path d="M 1583.0 202 h 0.0"></path><path d="M 2035.0 202 h 0.0"></path><g>
<path d="M 1583.0 202 h 0.0"></path><path d="M 2035.0 202 h 0.0"></path><path d="M 1583.0 202 h 20"></path><g class="terminal ">
<path d="M 1603.0 202 h 157.75"></path><path d="M 1857.25 202 h 157.75"></path><rect height="22" rx="10" ry="10" width="96.5" x="1760.75" y="191"></rect><text x="1809.0" y="206">ATTRIBALL</text></g><path d="M 2015.0 202 h 20"></path><path d="M 1583.0 202 a 10 10 0 0 1 10 10 v 10 a 10 10 0 0 0 10 10"></path><g>
<path d="M 1603.0 232 h 0.0"></path><path d="M 2015.0 232 h 0.0"></path><g class="terminal ">
<path d="M 1603.0 232 h 0.0"></path><path d="M 1708.0 232 h 0.0"></path><rect height="22" rx="10" ry="10" width="105.0" x="1603.0" y="221"></rect><text x="1655.5" y="236">ATTRIBNAME</text></g><path d="M 1708.0 232 h 10"></path><path d="M 1718.0 232 h 10"></path><g class="terminal ">
<path d="M 1728.0 232 h 0.0"></path><path d="M 1782.0 232 h 0.0"></path><rect height="22" rx="10" ry="10" width="54.0" x="1728.0" y="221"></rect><text x="1755.0" y="236">'="'</text></g><path d="M 1782.0 232 h 10"></path><path d="M 1792.0 232 h 10"></path><g class="terminal ">
<path d="M 1802.0 232 h 0.0"></path><path d="M 1907.0 232 h 0.0"></path><rect height="22" rx="10" ry="10" width="105.0" x="1802.0" y="221"></rect><text x="1854.5" y="236">ATTRIBTEXT</text></g><path d="M 1907.0 232 h 10"></path><path d="M 1917.0 232 h 10"></path><g class="terminal ">
<path d="M 1927.0 232 h 0.0"></path><path d="M 2015.0 232 h 0.0"></path><rect height="22" rx="10" ry="10" width="88.0" x="1927.0" y="221"></rect><text x="1971.0" y="236">/"${Hs}/</text></g></g><path d="M 2015.0 232 a 10 10 0 0 0 10 -10 v -10 a 10 10 0 0 1 10 -10"></path></g></g><path d="M 2035.0 202 h 10"></path><path d="M 1583.0 202 a 10 10 0 0 0 -10 10 v 39 a 10 10 0 0 0 10 10"></path><g>
<path d="M 1583.0 261 h 452.0"></path></g><path d="M 2035.0 261 a 10 10 0 0 0 10 -10 v -39 a 10 10 0 0 0 -10 -10"></path></g></g><path d="M 2045.0 202 a 10 10 0 0 0 10 -10 v -9 a 10 10 0 0 1 10 -10"></path></g></g><path d="M 2065.0 173 h 20"></path><path d="M 1285.5 173 a 10 10 0 0 1 10 10 v 107 a 10 10 0 0 0 10 10"></path><g>
<path d="M 1305.5 300 h 86.75"></path><path d="M 1978.25 300 h 86.75"></path><g>
<path d="M 1392.25 300 h 0.0"></path><path d="M 1486.25 300 h 0.0"></path><path d="M 1392.25 300 h 20"></path><g class="terminal ">
<path d="M 1412.25 300 h 4.25"></path><path d="M 1462.0 300 h 4.25"></path><rect height="22" rx="10" ry="10" width="45.5" x="1416.5" y="289"></rect><text x="1439.25" y="304">'|'</text></g><path d="M 1466.25 300 h 20"></path><path d="M 1392.25 300 a 10 10 0 0 1 10 10 v 10 a 10 10 0 0 0 10 10"></path><g class="terminal altterminal">
<path d="M 1412.25 330 h 0.0"></path><path d="M 1466.25 330 h 0.0"></path><rect height="22" rx="10" ry="10" width="54.0" x="1412.25" y="319"></rect><text x="1439.25" y="334">PIPE</text></g><path d="M 1466.25 330 a 10 10 0 0 0 10 -10 v -10 a 10 10 0 0 1 10 -10"></path></g><path d="M 1486.25 300 h 10"></path><path d="M 1496.25 300 h 10"></path><g>
<path d="M 1506.25 300 h 0.0"></path><path d="M 1978.25 300 h 0.0"></path><path d="M 1506.25 300 h 10"></path><g>
<path d="M 1516.25 300 h 0.0"></path><path d="M 1968.25 300 h 0.0"></path><g>
<path d="M 1516.25 300 h 0.0"></path><path d="M 1968.25 300 h 0.0"></path><path d="M 1516.25 300 h 20"></path><g class="terminal ">
<path d="M 1536.25 300 h 157.75"></path><path d="M 1790.5 300 h 157.75"></path><rect height="22" rx="10" ry="10" width="96.5" x="1694.0" y="289"></rect><text x="1742.25" y="304">ATTRIBALL</text></g><path d="M 1948.25 300 h 20"></path><path d="M 1516.25 300 a 10 10 0 0 1 10 10 v 10 a 10 10 0 0 0 10 10"></path><g>
<path d="M 1536.25 330 h 0.0"></path><path d="M 1948.25 330 h 0.0"></path><g class="terminal ">
<path d="M 1536.25 330 h 0.0"></path><path d="M 1641.25 330 h 0.0"></path><rect height="22" rx="10" ry="10" width="105.0" x="1536.25" y="319"></rect><text x="1588.75" y="334">ATTRIBNAME</text></g><path d="M 1641.25 330 h 10"></path><path d="M 1651.25 330 h 10"></path><g class="terminal ">
<path d="M 1661.25 330 h 0.0"></path><path d="M 1715.25 330 h 0.0"></path><rect height="22" rx="10" ry="10" width="54.0" x="1661.25" y="319"></rect><text x="1688.25" y="334">'="'</text></g><path d="M 1715.25 330 h 10"></path><path d="M 1725.25 330 h 10"></path><g class="terminal ">
<path d="M 1735.25 330 h 0.0"></path><path d="M 1840.25 330 h 0.0"></path><rect height="22" rx="10" ry="10" width="105.0" x="1735.25" y="319"></rect><text x="1787.75" y="334">ATTRIBTEXT</text></g><path d="M 1840.25 330 h 10"></path><path d="M 1850.25 330 h 10"></path><g class="terminal ">
<path d="M 1860.25 330 h 0.0"></path><path d="M 1948.25 330 h 0.0"></path><rect height="22" rx="10" ry="10" width="88.0" x="1860.25" y="319"></rect><text x="1904.25" y="334">/"${Hs}/</text></g></g><path d="M 1948.25 330 a 10 10 0 0 0 10 -10 v -10 a 10 10 0 0 1 10 -10"></path></g></g><path d="M 1968.25 300 h 10"></path><path d="M 1516.25 300 a 10 10 0 0 0 -10 10 v 39 a 10 10 0 0 0 10 10"></path><g>
<path d="M 1516.25 359 h 452.0"></path></g><path d="M 1968.25 359 a 10 10 0 0 0 10 -10 v -39 a 10 10 0 0 0 -10 -10"></path></g></g><path d="M 2065.0 300 a 10 10 0 0 0 10 -10 v -107 a 10 10 0 0 1 10 -10"></path></g><path d="M 2085.0 173 h 10"></path><path d="M 2095.0 173 h 10"></path><g>
<path d="M 2105.0 173 h 0.0"></path><path d="M 2338.5 173 h 0.0"></path><path d="M 2105.0 173 h 20"></path><g>
<path d="M 2125.0 173 h 193.5"></path></g><path d="M 2318.5 173 h 20"></path><path d="M 2105.0 173 a 10 10 0 0 1 10 10 v 0 a 10 10 0 0 0 10 10"></path><g>
<path d="M 2125.0 193 h 0.0"></path><path d="M 2318.5 193 h 0.0"></path><g class="terminal ">
<path d="M 2125.0 193 h 0.0"></path><path d="M 2187.5 193 h 0.0"></path><rect height="22" rx="10" ry="10" width="62.5" x="2125.0" y="182"></rect><text x="2156.25" y="197">'\\+'</text></g><path d="M 2187.5 193 h 10"></path><path d="M 2197.5 193 h 10"></path><g class="terminal ">
<path d="M 2207.5 193 h 0.0"></path><path d="M 2253.0 193 h 0.0"></path><rect height="22" rx="10" ry="10" width="45.5" x="2207.5" y="182"></rect><text x="2230.25" y="197">⇐ ➋</text></g><path d="M 2253.0 193 h 10"></path><path d="M 2263.0 193 h 10"></path><g class="terminal ">
<path d="M 2273.0 193 h 0.0"></path><path d="M 2318.5 193 h 0.0"></path><rect height="22" rx="10" ry="10" width="45.5" x="2273.0" y="182"></rect><text x="2295.75" y="197">'&#42;'</text></g></g><path d="M 2318.5 193 a 10 10 0 0 0 10 -10 v 0 a 10 10 0 0 1 10 -10"></path></g></g><path d="M 2338.5 173 h 20"></path><path d="M 50.0 173 a 10 10 0 0 1 10 10 v 195 a 10 10 0 0 0 10 10"></path><g class="non-terminal ">
<path d="M 70.0 388 h 1098.75"></path><path d="M 1239.75 388 h 1098.75"></path><rect height="22" width="71.0" x="1168.75" y="377"></rect><text x="1204.25" y="392">Figure</text></g><path d="M 2338.5 388 a 10 10 0 0 0 10 -10 v -195 a 10 10 0 0 1 10 -10"></path></g></g><path d="M 2358.5 173 h 10"></path><path d="M 2368.5 173 h 20 m 0 -10 v 20"></path></g></svg>