<svg class="railroad-diagram" height="549" viewBox="0 0 1167.0 549" width="1167.0" xmlns="http://www.w3.org/2000/svg" xmlns:xlink="http://www.w3.org/1999/xlink">
<g transform="translate(.5 .5)">
<style>/* <![CDATA[ */

    svg.railroad-diagram {
        background-color: hsl(30,20%,95%);
    }
    svg.railroad-diagram path {
        stroke-width: 2;
        stroke: black;
        fill: none;
    }
    svg.railroad-diagram text {
        font-size: 12px;
        text-anchor: middle;
        font-family: DejaVu Sans;
    }
    svg.railroad-diagram text.label {
        text-anchor:start;
    }
    svg.railroad-diagram text.comment {
        font-family: DejaVu Sans;
        font-size: 14px;
    }
    svg.railroad-diagram rect{
        stroke-width: 2;
        stroke: black;
        fill: rgb(210, 255, 210);
    }
    svg.railroad-diagram rect.group-box {
        stroke: gray;
        stroke-dasharray: 10 5;
        fill: none;
    }
    .terminal {
        font-family: DejaVu Sans;
    }
    svg.railroad-diagram g.altterminal rect {
        fill: rgb(251, 252, 207)
    }

/* ]]> */
</style><g>
<path d="M 20 45 v 20 m 0 -10 h 20"></path></g><path d="M 40 55 h 10"></path><g>
<path d="M 50 55 h 0.0"></path><path d="M 1117.0 518 h 0.0"></path><g>
<path d="M 50.0 55 h 0.0"></path><path d="M 50.0 55 h 10"></path><g>
<path d="M 60.0 55 h 311.75"></path><path d="M 795.25 55 h 311.75"></path><g class="terminal ">
<path d="M 371.75 55 h 0.0"></path><path d="M 425.75 55 h 0.0"></path><rect height="22" rx="10" ry="10" width="54.0" x="371.75" y="44"></rect><text x="398.75" y="59">'\\'</text></g><path d="M 425.75 55 h 10"></path><path d="M 435.75 55 h 10"></path><g>
<path d="M 445.75 55 h 0.0"></path><path d="M 664.25 55 h 0.0"></path><rect class="group-box" height="38" rx="10" ry="10" width="218.5" x="445.75" y="36"></rect><g>
<path d="M 445.75 55 h 10.0"></path><path d="M 654.25 55 h 10.0"></path><g class="non-terminal ">
<path d="M 455.75 55 h 0.0"></path><path d="M 654.25 55 h 0.0"></path><rect height="22" width="198.5" x="455.75" y="44"></rect><text x="555.0" y="59">Chars.char.style.enum</text></g></g><g class="non-terminal ">
<path d="M 445.75 28 h 0.0"></path><path d="M 462.75 28 h 0.0"></path><text class="comment" x="454.25" y="33">➋</text></g></g><path d="M 664.25 55 h 10"></path><path d="M 674.25 55 h 10"></path><g>
<path d="M 684.25 55 h 0.0"></path><path d="M 795.25 55 h 0.0"></path><path d="M 684.25 55 h 20"></path><g class="terminal ">
<path d="M 704.25 55 h 12.75"></path><path d="M 762.5 55 h 12.75"></path><rect height="22" rx="10" ry="10" width="45.5" x="717.0" y="44"></rect><text x="739.75" y="59">' '</text></g><path d="M 775.25 55 h 20"></path><path d="M 684.25 55 a 10 10 0 0 1 10 10 v 10 a 10 10 0 0 0 10 10"></path><g class="terminal altterminal">
<path d="M 704.25 85 h 0.0"></path><path d="M 775.25 85 h 0.0"></path><rect height="22" rx="10" ry="10" width="71.0" x="704.25" y="74"></rect><text x="739.75" y="89">TAGEND</text></g><path d="M 775.25 85 a 10 10 0 0 0 10 -10 v -10 a 10 10 0 0 1 10 -10"></path></g></g><path d="M 1107.0 55 a 10 10 0 0 1 10 10 v 39 a 10 10 0 0 1 -10 10 h -1047.0 a 10 10 0 0 0 -10 10 v 19 a 10 10 0 0 0 10 10"></path><g>
<path d="M 60.0 153 h 10.0"></path><path d="M 1097.0 153 h 10.0"></path><path d="M 70.0 153 h 20"></path><g>
<path d="M 90.0 153 h 0.0"></path><path d="M 1077.0 153 h 0.0"></path><g>
<path d="M 90.0 153 h 0.0"></path><path d="M 431.0 153 h 0.0"></path><path d="M 90.0 153 h 10"></path><g>
<path d="M 100.0 153 h 0.0"></path><path d="M 421.0 153 h 0.0"></path><path d="M 100.0 153 h 20"></path><g>
<path d="M 120.0 153 h 0.0"></path><path d="M 401.0 153 h 0.0"></path><g class="terminal ">
<path d="M 120.0 153 h 0.0"></path><path d="M 250.5 153 h 0.0"></path><rect height="22" rx="10" ry="10" width="130.5" x="120.0" y="142"></rect><text x="185.25" y="157">TEXTNOTATTRIB</text></g><path d="M 250.5 153 h 10"></path><path d="M 260.5 153 h 10"></path><g class="terminal ">
<path d="M 270.5 153 h 0.0"></path><path d="M 401.0 153 h 0.0"></path><rect height="22" rx="10" ry="10" width="130.5" x="270.5" y="142"></rect><text x="335.75" y="157">ATTRIBTEXTEND</text></g></g><path d="M 401.0 153 h 20"></path><path d="M 100.0 153 a 10 10 0 0 1 10 10 v 10 a 10 10 0 0 0 10 10"></path><g class="non-terminal ">
<path d="M 120.0 183 h 92.25"></path><path d="M 308.75 183 h 92.25"></path><rect height="22" width="96.5" x="212.25" y="172"></rect><text x="260.5" y="187">CharEmbed</text></g><path d="M 401.0 183 a 10 10 0 0 0 10 -10 v -10 a 10 10 0 0 1 10 -10"></path><path d="M 100.0 153 a 10 10 0 0 1 10 10 v 40 a 10 10 0 0 0 10 10"></path><g class="non-terminal ">
<path d="M 120.0 213 h 105.0"></path><path d="M 296.0 213 h 105.0"></path><rect height="22" width="71.0" x="225.0" y="202"></rect><text x="260.5" y="217">Figure</text></g><path d="M 401.0 213 a 10 10 0 0 0 10 -10 v -40 a 10 10 0 0 1 10 -10"></path><path d="M 100.0 153 a 10 10 0 0 1 10 10 v 70 a 10 10 0 0 0 10 10"></path><g class="non-terminal ">
<path d="M 120.0 243 h 92.25"></path><path d="M 308.75 243 h 92.25"></path><rect height="22" width="96.5" x="212.25" y="232"></rect><text x="260.5" y="247">Milestone</text></g><path d="M 401.0 243 a 10 10 0 0 0 10 -10 v -70 a 10 10 0 0 1 10 -10"></path><path d="M 100.0 153 a 10 10 0 0 1 10 10 v 100 a 10 10 0 0 0 10 10"></path><g class="non-terminal ">
<path d="M 120.0 273 h 96.5"></path><path d="M 304.5 273 h 96.5"></path><rect height="22" width="88.0" x="216.5" y="262"></rect><text x="260.5" y="277">Footnote</text></g><path d="M 401.0 273 a 10 10 0 0 0 10 -10 v -100 a 10 10 0 0 1 10 -10"></path><path d="M 100.0 153 a 10 10 0 0 1 10 10 v 130 a 10 10 0 0 0 10 10"></path><g class="non-terminal ">
<path d="M 120.0 303 h 71.0"></path><path d="M 330.0 303 h 71.0"></path><rect height="22" width="139.0" x="191.0" y="292"></rect><text x="260.5" y="307">CrossReference</text></g><path d="M 401.0 303 a 10 10 0 0 0 10 -10 v -130 a 10 10 0 0 1 10 -10"></path><path d="M 100.0 153 a 10 10 0 0 1 10 10 v 160 a 10 10 0 0 0 10 10"></path><g class="non-terminal ">
<path d="M 120.0 333 h 92.25"></path><path d="M 308.75 333 h 92.25"></path><rect height="22" width="96.5" x="212.25" y="322"></rect><text x="260.5" y="337">Reference</text></g><path d="M 401.0 333 a 10 10 0 0 0 10 -10 v -160 a 10 10 0 0 1 10 -10"></path><path d="M 100.0 153 a 10 10 0 0 1 10 10 v 190 a 10 10 0 0 0 10 10"></path><g>
<path d="M 120.0 363 h 113.5"></path><path d="M 287.5 363 h 113.5"></path><g class="terminal ">
<path d="M 233.5 363 h 0.0"></path><path d="M 287.5 363 h 0.0"></path><rect height="22" rx="10" ry="10" width="54.0" x="233.5" y="352"></rect><text x="260.5" y="367">'//'</text></g></g><path d="M 401.0 363 a 10 10 0 0 0 10 -10 v -190 a 10 10 0 0 1 10 -10"></path></g><path d="M 421.0 153 h 10"></path><path d="M 100.0 153 a 10 10 0 0 0 -10 10 v 219 a 10 10 0 0 0 10 10"></path><g>
<path d="M 100.0 392 h 321.0"></path></g><path d="M 421.0 392 a 10 10 0 0 0 10 -10 v -219 a 10 10 0 0 0 -10 -10"></path></g><path d="M 431.0 153 h 10"></path><path d="M 441.0 153 h 10"></path><g>
<path d="M 451.0 153 h 0.0"></path><path d="M 1077.0 153 h 0.0"></path><path d="M 451.0 153 h 20"></path><g>
<path d="M 471.0 153 h 586.0"></path></g><path d="M 1057.0 153 h 20"></path><path d="M 451.0 153 a 10 10 0 0 1 10 10 v 9 a 10 10 0 0 0 10 10"></path><g>
<path d="M 471.0 182 h 0.0"></path><path d="M 1057.0 182 h 0.0"></path><g>
<path d="M 471.0 182 h 0.0"></path><path d="M 565.0 182 h 0.0"></path><path d="M 471.0 182 h 20"></path><g class="terminal ">
<path d="M 491.0 182 h 4.25"></path><path d="M 540.75 182 h 4.25"></path><rect height="22" rx="10" ry="10" width="45.5" x="495.25" y="171"></rect><text x="518.0" y="186">'|'</text></g><path d="M 545.0 182 h 20"></path><path d="M 471.0 182 a 10 10 0 0 1 10 10 v 10 a 10 10 0 0 0 10 10"></path><g class="terminal altterminal">
<path d="M 491.0 212 h 0.0"></path><path d="M 545.0 212 h 0.0"></path><rect height="22" rx="10" ry="10" width="54.0" x="491.0" y="201"></rect><text x="518.0" y="216">PIPE</text></g><path d="M 545.0 212 a 10 10 0 0 0 10 -10 v -10 a 10 10 0 0 1 10 -10"></path></g><path d="M 565.0 182 h 10"></path><path d="M 575.0 182 h 10"></path><g>
<path d="M 585.0 182 h 0.0"></path><path d="M 1057.0 182 h 0.0"></path><path d="M 585.0 182 h 10"></path><g>
<path d="M 595.0 182 h 0.0"></path><path d="M 1047.0 182 h 0.0"></path><g>
<path d="M 595.0 182 h 0.0"></path><path d="M 1047.0 182 h 0.0"></path><path d="M 595.0 182 h 20"></path><g class="terminal ">
<path d="M 615.0 182 h 157.75"></path><path d="M 869.25 182 h 157.75"></path><rect height="22" rx="10" ry="10" width="96.5" x="772.75" y="171"></rect><text x="821.0" y="186">ATTRIBALL</text></g><path d="M 1027.0 182 h 20"></path><path d="M 595.0 182 a 10 10 0 0 1 10 10 v 10 a 10 10 0 0 0 10 10"></path><g>
<path d="M 615.0 212 h 0.0"></path><path d="M 1027.0 212 h 0.0"></path><g class="terminal ">
<path d="M 615.0 212 h 0.0"></path><path d="M 720.0 212 h 0.0"></path><rect height="22" rx="10" ry="10" width="105.0" x="615.0" y="201"></rect><text x="667.5" y="216">ATTRIBNAME</text></g><path d="M 720.0 212 h 10"></path><path d="M 730.0 212 h 10"></path><g class="terminal ">
<path d="M 740.0 212 h 0.0"></path><path d="M 794.0 212 h 0.0"></path><rect height="22" rx="10" ry="10" width="54.0" x="740.0" y="201"></rect><text x="767.0" y="216">'="'</text></g><path d="M 794.0 212 h 10"></path><path d="M 804.0 212 h 10"></path><g class="terminal ">
<path d="M 814.0 212 h 0.0"></path><path d="M 919.0 212 h 0.0"></path><rect height="22" rx="10" ry="10" width="105.0" x="814.0" y="201"></rect><text x="866.5" y="216">ATTRIBTEXT</text></g><path d="M 919.0 212 h 10"></path><path d="M 929.0 212 h 10"></path><g class="terminal ">
<path d="M 939.0 212 h 0.0"></path><path d="M 1027.0 212 h 0.0"></path><rect height="22" rx="10" ry="10" width="88.0" x="939.0" y="201"></rect><text x="983.0" y="216">/"${Hs}/</text></g></g><path d="M 1027.0 212 a 10 10 0 0 0 10 -10 v -10 a 10 10 0 0 1 10 -10"></path></g></g><path d="M 1047.0 182 h 10"></path><path d="M 595.0 182 a 10 10 0 0 0 -10 10 v 39 a 10 10 0 0 0 10 10"></path><g>
<path d="M 595.0 241 h 452.0"></path></g><path d="M 1047.0 241 a 10 10 0 0 0 10 -10 v -39 a 10 10 0 0 0 -10 -10"></path></g></g><path d="M 1057.0 182 a 10 10 0 0 0 10 -10 v -9 a 10 10 0 0 1 10 -10"></path></g></g><path d="M 1077.0 153 h 20"></path><path d="M 70.0 153 a 10 10 0 0 1 10 10 v 248 a 10 10 0 0 0 10 10"></path><g>
<path d="M 90.0 421 h 200.5"></path><path d="M 876.5 421 h 200.5"></path><g>
<path d="M 290.5 421 h 0.0"></path><path d="M 384.5 421 h 0.0"></path><path d="M 290.5 421 h 20"></path><g class="terminal ">
<path d="M 310.5 421 h 4.25"></path><path d="M 360.25 421 h 4.25"></path><rect height="22" rx="10" ry="10" width="45.5" x="314.75" y="410"></rect><text x="337.5" y="425">'|'</text></g><path d="M 364.5 421 h 20"></path><path d="M 290.5 421 a 10 10 0 0 1 10 10 v 10 a 10 10 0 0 0 10 10"></path><g class="terminal altterminal">
<path d="M 310.5 451 h 0.0"></path><path d="M 364.5 451 h 0.0"></path><rect height="22" rx="10" ry="10" width="54.0" x="310.5" y="440"></rect><text x="337.5" y="455">PIPE</text></g><path d="M 364.5 451 a 10 10 0 0 0 10 -10 v -10 a 10 10 0 0 1 10 -10"></path></g><path d="M 384.5 421 h 10"></path><path d="M 394.5 421 h 10"></path><g>
<path d="M 404.5 421 h 0.0"></path><path d="M 876.5 421 h 0.0"></path><path d="M 404.5 421 h 10"></path><g>
<path d="M 414.5 421 h 0.0"></path><path d="M 866.5 421 h 0.0"></path><g>
<path d="M 414.5 421 h 0.0"></path><path d="M 866.5 421 h 0.0"></path><path d="M 414.5 421 h 20"></path><g class="terminal ">
<path d="M 434.5 421 h 157.75"></path><path d="M 688.75 421 h 157.75"></path><rect height="22" rx="10" ry="10" width="96.5" x="592.25" y="410"></rect><text x="640.5" y="425">ATTRIBALL</text></g><path d="M 846.5 421 h 20"></path><path d="M 414.5 421 a 10 10 0 0 1 10 10 v 10 a 10 10 0 0 0 10 10"></path><g>
<path d="M 434.5 451 h 0.0"></path><path d="M 846.5 451 h 0.0"></path><g class="terminal ">
<path d="M 434.5 451 h 0.0"></path><path d="M 539.5 451 h 0.0"></path><rect height="22" rx="10" ry="10" width="105.0" x="434.5" y="440"></rect><text x="487.0" y="455">ATTRIBNAME</text></g><path d="M 539.5 451 h 10"></path><path d="M 549.5 451 h 10"></path><g class="terminal ">
<path d="M 559.5 451 h 0.0"></path><path d="M 613.5 451 h 0.0"></path><rect height="22" rx="10" ry="10" width="54.0" x="559.5" y="440"></rect><text x="586.5" y="455">'="'</text></g><path d="M 613.5 451 h 10"></path><path d="M 623.5 451 h 10"></path><g class="terminal ">
<path d="M 633.5 451 h 0.0"></path><path d="M 738.5 451 h 0.0"></path><rect height="22" rx="10" ry="10" width="105.0" x="633.5" y="440"></rect><text x="686.0" y="455">ATTRIBTEXT</text></g><path d="M 738.5 451 h 10"></path><path d="M 748.5 451 h 10"></path><g class="terminal ">
<path d="M 758.5 451 h 0.0"></path><path d="M 846.5 451 h 0.0"></path><rect height="22" rx="10" ry="10" width="88.0" x="758.5" y="440"></rect><text x="802.5" y="455">/"${Hs}/</text></g></g><path d="M 846.5 451 a 10 10 0 0 0 10 -10 v -10 a 10 10 0 0 1 10 -10"></path></g></g><path d="M 866.5 421 h 10"></path><path d="M 414.5 421 a 10 10 0 0 0 -10 10 v 39 a 10 10 0 0 0 10 10"></path><g>
<path d="M 414.5 480 h 452.0"></path></g><path d="M 866.5 480 a 10 10 0 0 0 10 -10 v -39 a 10 10 0 0 0 -10 -10"></path></g></g><path d="M 1077.0 421 a 10 10 0 0 0 10 -10 v -248 a 10 10 0 0 1 10 -10"></path></g><path d="M 1107.0 153 a 10 10 0 0 1 10 10 v 325 a 10 10 0 0 1 -10 10 h -1047.0 a 10 10 0 0 0 -10 10 v 0 a 10 10 0 0 0 10 10"></path><g>
<path d="M 60.0 518 h 431.0"></path><path d="M 676.0 518 h 431.0"></path><g class="terminal ">
<path d="M 491.0 518 h 0.0"></path><path d="M 545.0 518 h 0.0"></path><rect height="22" rx="10" ry="10" width="54.0" x="491.0" y="507"></rect><text x="518.0" y="522">'\\'</text></g><path d="M 545.0 518 h 10"></path><path d="M 555.0 518 h 10"></path><g class="terminal ">
<path d="M 565.0 518 h 0.0"></path><path d="M 610.5 518 h 0.0"></path><rect height="22" rx="10" ry="10" width="45.5" x="565.0" y="507"></rect><text x="587.75" y="522">⇐ ➋</text></g><path d="M 610.5 518 h 10"></path><path d="M 620.5 518 h 10"></path><g class="terminal ">
<path d="M 630.5 518 h 0.0"></path><path d="M 676.0 518 h 0.0"></path><rect height="22" rx="10" ry="10" width="45.5" x="630.5" y="507"></rect><text x="653.25" y="522">'&#42;'</text></g></g><path d="M 1107.0 518 h 10"></path><path d="M 1117.0 518 h 0.0"></path></g></g><path d="M 1117.0 518 h 10"></path><path d="M 1127.0 518 h 20 m 0 -10 v 20"></path></g></svg>