<svg class="railroad-diagram" height="578" viewBox="0 0 1041.5 578" width="1041.5" xmlns="http://www.w3.org/2000/svg" xmlns:xlink="http://www.w3.org/1999/xlink">
<g transform="translate(.5 .5)">
<style>/* <![CDATA[ */

    svg.railroad-diagram {
        background-color: hsl(30,20%,95%);
    }
    svg.railroad-diagram path {
        stroke-width: 2;
        stroke: black;
        fill: none;
    }
    svg.railroad-diagram text {
        font-size: 12px;
        text-anchor: middle;
        font-family: DejaVu Sans;
    }
    svg.railroad-diagram text.label {
        text-anchor:start;
    }
    svg.railroad-diagram text.comment {
        font-family: DejaVu Sans;
        font-size: 14px;
    }
    svg.railroad-diagram rect{
        stroke-width: 2;
        stroke: black;
        fill: rgb(210, 210, 255);
    }
    svg.railroad-diagram rect.group-box {
        stroke: gray;
        stroke-dasharray: 10 5;
        fill: none;
    }
    .terminal {
        font-family: DejaVu Sans;
    }
    svg.railroad-diagram g.altterminal rect {
        fill: rgb(251, 252, 207)
    }

/* ]]> */
</style><g>
<path d="M 20 347 v 20 m 0 -10 h 20"></path></g><path d="M 40 357 h 10"></path><g>
<path d="M 50 357 h 0.0"></path><path d="M 991.5 357 h 0.0"></path><g>
<path d="M 50.0 357 h 0.0"></path><path d="M 991.5 357 h 0.0"></path><g class="terminal ">
<path d="M 50.0 357 h 0.0"></path><path d="M 121.0 357 h 0.0"></path><rect height="22" rx="10" ry="10" width="71.0" x="50.0" y="346"></rect><text x="85.5" y="361">&#60;char></text></g><path d="M 121.0 357 h 10"></path><path d="M 131.0 357 h 10"></path><g>
<path d="M 141.0 357 h 0.0"></path><path d="M 991.5 357 h 0.0"></path><path d="M 141.0 357 a 10 10 0 0 0 10 -10 v -188 a 10 10 0 0 1 10 -10"></path><g>
<path d="M 161.0 149 h 0.0"></path><path d="M 971.5 149 h 0.0"></path><g class="terminal ">
<path d="M 161.0 149 h 0.0"></path><path d="M 232.0 149 h 0.0"></path><rect height="22" rx="10" ry="10" width="71.0" x="161.0" y="138"></rect><text x="196.5" y="153">@style</text></g><path d="M 232.0 149 h 10"></path><g>
<path d="M 242.0 149 h 0.0"></path><path d="M 971.5 149 h 0.0"></path><path d="M 242.0 149 a 10 10 0 0 0 10 -10 v -99 a 10 10 0 0 1 10 -10 h 485.5"></path><path d="M 242.0 149 h 10"></path><g>
<path d="M 252.0 149 h 0.0"></path><path d="M 252.0 149 a 10 10 0 0 0 10 -10 v -10 a 10 10 0 0 1 10 -10"></path><g class="terminal ">
<path d="M 272.0 119 h 0.0"></path><path d="M 326.0 119 h 0.0"></path><rect height="22" rx="10" ry="10" width="54.0" x="272.0" y="108"></rect><text x="299.0" y="123">"qs"</text></g><path d="M 252.0 149 a 10 10 0 0 0 10 -10 v -40 a 10 10 0 0 1 10 -10"></path><g class="terminal ">
<path d="M 272.0 89 h 0.0"></path><path d="M 334.5 89 h 0.0"></path><rect height="22" rx="10" ry="10" width="62.5" x="272.0" y="78"></rect><text x="303.25" y="93">"qac"</text></g><path d="M 252.0 149 a 10 10 0 0 0 10 -10 v -70 a 10 10 0 0 1 10 -10"></path><g class="terminal ">
<path d="M 272.0 59 h 0.0"></path><path d="M 326.0 59 h 0.0"></path><rect height="22" rx="10" ry="10" width="54.0" x="272.0" y="48"></rect><text x="299.0" y="63">"vp"</text></g><path d="M 252.0 149 h 20"></path><g class="terminal ">
<path d="M 272.0 149 h 0.0"></path><path d="M 334.5 149 h 0.0"></path><rect height="22" rx="10" ry="10" width="62.5" x="272.0" y="138"></rect><text x="303.25" y="153">"add"</text></g><path d="M 252.0 149 a 10 10 0 0 1 10 10 v 10 a 10 10 0 0 0 10 10"></path><g class="terminal ">
<path d="M 272.0 179 h 0.0"></path><path d="M 351.5 179 h 0.0"></path><rect height="22" rx="10" ry="10" width="79.5" x="272.0" y="168"></rect><text x="311.75" y="183">"addpn"</text></g><path d="M 252.0 149 a 10 10 0 0 1 10 10 v 40 a 10 10 0 0 0 10 10"></path><g class="terminal ">
<path d="M 272.0 209 h 0.0"></path><path d="M 326.0 209 h 0.0"></path><rect height="22" rx="10" ry="10" width="54.0" x="272.0" y="198"></rect><text x="299.0" y="213">"bk"</text></g><path d="M 252.0 149 a 10 10 0 0 1 10 10 v 70 a 10 10 0 0 0 10 10"></path><g class="terminal ">
<path d="M 272.0 239 h 0.0"></path><path d="M 326.0 239 h 0.0"></path><rect height="22" rx="10" ry="10" width="54.0" x="272.0" y="228"></rect><text x="299.0" y="243">"dc"</text></g><path d="M 252.0 149 a 10 10 0 0 1 10 10 v 100 a 10 10 0 0 0 10 10"></path><g class="terminal ">
<path d="M 272.0 269 h 0.0"></path><path d="M 334.5 269 h 0.0"></path><rect height="22" rx="10" ry="10" width="62.5" x="272.0" y="258"></rect><text x="303.25" y="273">"efm"</text></g><path d="M 252.0 149 a 10 10 0 0 1 10 10 v 130 a 10 10 0 0 0 10 10"></path><g class="terminal ">
<path d="M 272.0 299 h 0.0"></path><path d="M 326.0 299 h 0.0"></path><rect height="22" rx="10" ry="10" width="54.0" x="272.0" y="288"></rect><text x="299.0" y="303">"fm"</text></g></g><path d="M 371.5 30 a 10 10 0 0 1 10 10 v 99 a 10 10 0 0 0 10 10"></path><g>
<path d="M 391.5 149 h 0.0"></path><path d="M 391.5 149 a 10 10 0 0 0 10 -10 v -10 a 10 10 0 0 1 10 -10"></path><g class="terminal ">
<path d="M 411.5 119 h 0.0"></path><path d="M 465.5 119 h 0.0"></path><rect height="22" rx="10" ry="10" width="54.0" x="411.5" y="108"></rect><text x="438.5" y="123">"nd"</text></g><path d="M 391.5 149 a 10 10 0 0 0 10 -10 v -40 a 10 10 0 0 1 10 -10"></path><g class="terminal ">
<path d="M 411.5 89 h 0.0"></path><path d="M 457.0 89 h 0.0"></path><rect height="22" rx="10" ry="10" width="45.5" x="411.5" y="78"></rect><text x="434.25" y="93">"k"</text></g><path d="M 391.5 149 a 10 10 0 0 0 10 -10 v -70 a 10 10 0 0 1 10 -10"></path><g class="terminal ">
<path d="M 411.5 59 h 0.0"></path><path d="M 465.5 59 h 0.0"></path><rect height="22" rx="10" ry="10" width="54.0" x="411.5" y="48"></rect><text x="438.5" y="63">"fv"</text></g><path d="M 391.5 149 h 20"></path><g class="terminal ">
<path d="M 411.5 149 h 0.0"></path><path d="M 474.0 149 h 0.0"></path><rect height="22" rx="10" ry="10" width="62.5" x="411.5" y="138"></rect><text x="442.75" y="153">"ndx"</text></g><path d="M 391.5 149 a 10 10 0 0 1 10 10 v 10 a 10 10 0 0 0 10 10"></path><g class="terminal ">
<path d="M 411.5 179 h 0.0"></path><path d="M 474.0 179 h 0.0"></path><rect height="22" rx="10" ry="10" width="62.5" x="411.5" y="168"></rect><text x="442.75" y="183">"ord"</text></g><path d="M 391.5 149 a 10 10 0 0 1 10 10 v 40 a 10 10 0 0 0 10 10"></path><g class="terminal ">
<path d="M 411.5 209 h 0.0"></path><path d="M 465.5 209 h 0.0"></path><rect height="22" rx="10" ry="10" width="54.0" x="411.5" y="198"></rect><text x="438.5" y="213">"pl"</text></g><path d="M 391.5 149 a 10 10 0 0 1 10 10 v 70 a 10 10 0 0 0 10 10"></path><g class="terminal ">
<path d="M 411.5 239 h 0.0"></path><path d="M 474.0 239 h 0.0"></path><rect height="22" rx="10" ry="10" width="62.5" x="411.5" y="228"></rect><text x="442.75" y="243">"png"</text></g><path d="M 391.5 149 a 10 10 0 0 1 10 10 v 100 a 10 10 0 0 0 10 10"></path><g class="terminal ">
<path d="M 411.5 269 h 0.0"></path><path d="M 465.5 269 h 0.0"></path><rect height="22" rx="10" ry="10" width="54.0" x="411.5" y="258"></rect><text x="438.5" y="273">"pn"</text></g><path d="M 391.5 149 a 10 10 0 0 1 10 10 v 130 a 10 10 0 0 0 10 10"></path><g class="terminal ">
<path d="M 411.5 299 h 0.0"></path><path d="M 474.0 299 h 0.0"></path><rect height="22" rx="10" ry="10" width="62.5" x="411.5" y="288"></rect><text x="442.75" y="303">"pro"</text></g></g><path d="M 494.0 30 a 10 10 0 0 1 10 10 v 99 a 10 10 0 0 0 10 10"></path><g>
<path d="M 514.0 149 h 0.0"></path><path d="M 514.0 149 a 10 10 0 0 0 10 -10 v -10 a 10 10 0 0 1 10 -10"></path><g class="terminal ">
<path d="M 534.0 119 h 0.0"></path><path d="M 596.5 119 h 0.0"></path><rect height="22" rx="10" ry="10" width="62.5" x="534.0" y="108"></rect><text x="565.25" y="123">"sig"</text></g><path d="M 514.0 149 a 10 10 0 0 0 10 -10 v -40 a 10 10 0 0 1 10 -10"></path><g class="terminal ">
<path d="M 534.0 89 h 0.0"></path><path d="M 588.0 89 h 0.0"></path><rect height="22" rx="10" ry="10" width="54.0" x="534.0" y="78"></rect><text x="561.0" y="93">"rq"</text></g><path d="M 514.0 149 a 10 10 0 0 0 10 -10 v -70 a 10 10 0 0 1 10 -10"></path><g class="terminal ">
<path d="M 534.0 59 h 0.0"></path><path d="M 588.0 59 h 0.0"></path><rect height="22" rx="10" ry="10" width="54.0" x="534.0" y="48"></rect><text x="561.0" y="63">"qt"</text></g><path d="M 514.0 149 h 20"></path><g class="terminal ">
<path d="M 534.0 149 h 0.0"></path><path d="M 596.5 149 h 0.0"></path><rect height="22" rx="10" ry="10" width="62.5" x="534.0" y="138"></rect><text x="565.25" y="153">"sls"</text></g><path d="M 514.0 149 a 10 10 0 0 1 10 10 v 10 a 10 10 0 0 0 10 10"></path><g class="terminal ">
<path d="M 534.0 179 h 0.0"></path><path d="M 588.0 179 h 0.0"></path><rect height="22" rx="10" ry="10" width="54.0" x="534.0" y="168"></rect><text x="561.0" y="183">"tl"</text></g><path d="M 514.0 149 a 10 10 0 0 1 10 10 v 40 a 10 10 0 0 0 10 10"></path><g class="terminal ">
<path d="M 534.0 209 h 0.0"></path><path d="M 588.0 209 h 0.0"></path><rect height="22" rx="10" ry="10" width="54.0" x="534.0" y="198"></rect><text x="561.0" y="213">"wg"</text></g><path d="M 514.0 149 a 10 10 0 0 1 10 10 v 70 a 10 10 0 0 0 10 10"></path><g class="terminal ">
<path d="M 534.0 239 h 0.0"></path><path d="M 588.0 239 h 0.0"></path><rect height="22" rx="10" ry="10" width="54.0" x="534.0" y="228"></rect><text x="561.0" y="243">"wh"</text></g><path d="M 514.0 149 a 10 10 0 0 1 10 10 v 100 a 10 10 0 0 0 10 10"></path><g class="terminal ">
<path d="M 534.0 269 h 0.0"></path><path d="M 588.0 269 h 0.0"></path><rect height="22" rx="10" ry="10" width="54.0" x="534.0" y="258"></rect><text x="561.0" y="273">"wa"</text></g><path d="M 514.0 149 a 10 10 0 0 1 10 10 v 130 a 10 10 0 0 0 10 10"></path><g class="terminal ">
<path d="M 534.0 299 h 0.0"></path><path d="M 588.0 299 h 0.0"></path><rect height="22" rx="10" ry="10" width="54.0" x="534.0" y="288"></rect><text x="561.0" y="303">"wj"</text></g></g><path d="M 616.5 30 a 10 10 0 0 1 10 10 v 99 a 10 10 0 0 0 10 10"></path><g>
<path d="M 636.5 149 h 0.0"></path><path d="M 636.5 149 a 10 10 0 0 0 10 -10 v -10 a 10 10 0 0 1 10 -10"></path><g class="terminal ">
<path d="M 656.5 119 h 0.0"></path><path d="M 710.5 119 h 0.0"></path><rect height="22" rx="10" ry="10" width="54.0" x="656.5" y="108"></rect><text x="683.5" y="123">"no"</text></g><path d="M 636.5 149 a 10 10 0 0 0 10 -10 v -40 a 10 10 0 0 1 10 -10"></path><g class="terminal ">
<path d="M 656.5 89 h 0.0"></path><path d="M 719.0 89 h 0.0"></path><rect height="22" rx="10" ry="10" width="62.5" x="656.5" y="78"></rect><text x="687.75" y="93">"jmp"</text></g><path d="M 636.5 149 a 10 10 0 0 0 10 -10 v -70 a 10 10 0 0 1 10 -10"></path><g class="terminal ">
<path d="M 656.5 59 h 0.0"></path><path d="M 710.5 59 h 0.0"></path><rect height="22" rx="10" ry="10" width="54.0" x="656.5" y="48"></rect><text x="683.5" y="63">"wl"</text></g><path d="M 636.5 149 h 20"></path><g class="terminal ">
<path d="M 656.5 149 h 0.0"></path><path d="M 710.5 149 h 0.0"></path><rect height="22" rx="10" ry="10" width="54.0" x="656.5" y="138"></rect><text x="683.5" y="153">"it"</text></g><path d="M 636.5 149 a 10 10 0 0 1 10 10 v 10 a 10 10 0 0 0 10 10"></path><g class="terminal ">
<path d="M 656.5 179 h 0.0"></path><path d="M 727.5 179 h 0.0"></path><rect height="22" rx="10" ry="10" width="71.0" x="656.5" y="168"></rect><text x="692.0" y="183">"bdit"</text></g><path d="M 636.5 149 a 10 10 0 0 1 10 10 v 40 a 10 10 0 0 0 10 10"></path><g class="terminal ">
<path d="M 656.5 209 h 0.0"></path><path d="M 710.5 209 h 0.0"></path><rect height="22" rx="10" ry="10" width="54.0" x="656.5" y="198"></rect><text x="683.5" y="213">"bd"</text></g><path d="M 636.5 149 a 10 10 0 0 1 10 10 v 70 a 10 10 0 0 0 10 10"></path><g class="terminal ">
<path d="M 656.5 239 h 0.0"></path><path d="M 710.5 239 h 0.0"></path><rect height="22" rx="10" ry="10" width="54.0" x="656.5" y="228"></rect><text x="683.5" y="243">"em"</text></g><path d="M 636.5 149 a 10 10 0 0 1 10 10 v 100 a 10 10 0 0 0 10 10"></path><g class="terminal ">
<path d="M 656.5 269 h 0.0"></path><path d="M 710.5 269 h 0.0"></path><rect height="22" rx="10" ry="10" width="54.0" x="656.5" y="258"></rect><text x="683.5" y="273">"sc"</text></g><path d="M 636.5 149 a 10 10 0 0 1 10 10 v 130 a 10 10 0 0 0 10 10"></path><g class="terminal ">
<path d="M 656.5 299 h 0.0"></path><path d="M 719.0 299 h 0.0"></path><rect height="22" rx="10" ry="10" width="62.5" x="656.5" y="288"></rect><text x="687.75" y="303">"sup"</text></g></g><path d="M 747.5 30 a 10 10 0 0 1 10 10 v 99 a 10 10 0 0 0 10 10"></path><g>
<path d="M 767.5 149 h 0.0"></path><path d="M 767.5 149 a 10 10 0 0 0 10 -10 v -10 a 10 10 0 0 1 10 -10"></path><g class="terminal ">
<path d="M 787.5 119 h 0.0"></path><path d="M 841.5 119 h 0.0"></path><rect height="22" rx="10" ry="10" width="54.0" x="787.5" y="108"></rect><text x="814.5" y="123">"rb"</text></g><path d="M 767.5 149 a 10 10 0 0 0 10 -10 v -40 a 10 10 0 0 1 10 -10"></path><g class="terminal ">
<path d="M 787.5 89 h 0.0"></path><path d="M 833.0 89 h 0.0"></path><rect height="22" rx="10" ry="10" width="45.5" x="787.5" y="78"></rect><text x="810.25" y="93">"w"</text></g><path d="M 767.5 149 a 10 10 0 0 0 10 -10 v -70 a 10 10 0 0 1 10 -10"></path><g class="terminal ">
<path d="M 787.5 59 h 0.0"></path><path d="M 841.5 59 h 0.0"></path><rect height="22" rx="10" ry="10" width="54.0" x="787.5" y="48"></rect><text x="814.5" y="63">"xt"</text></g><path d="M 767.5 149 h 20"></path><g class="terminal ">
<path d="M 787.5 149 h 0.0"></path><path d="M 841.5 149 h 0.0"></path><rect height="22" rx="10" ry="10" width="54.0" x="787.5" y="138"></rect><text x="814.5" y="153">"ta"</text></g><path d="M 767.5 149 a 10 10 0 0 1 10 10 v 10 a 10 10 0 0 0 10 10"></path><g class="terminal ">
<path d="M 787.5 179 h 0.0"></path><path d="M 841.5 179 h 0.0"></path><rect height="22" rx="10" ry="10" width="54.0" x="787.5" y="168"></rect><text x="814.5" y="183">"xt"</text></g></g></g></g><path d="M 141.0 357 h 20"></path><g>
<path d="M 161.0 357 h 246.0"></path><path d="M 725.5 357 h 246.0"></path><g>
<path d="M 407.0 357 h 0.0"></path><path d="M 725.5 357 h 0.0"></path><path d="M 407.0 357 h 20"></path><g>
<path d="M 427.0 357 h 0.0"></path><path d="M 705.5 357 h 0.0"></path><g class="non-terminal ">
<path d="M 427.0 357 h 0.0"></path><path d="M 540.5 357 h 0.0"></path><rect height="22" width="113.5" x="427.0" y="346"></rect><text x="483.75" y="361">CharContent</text></g><path d="M 540.5 357 h 10"></path><path d="M 550.5 357 h 10"></path><g>
<path d="M 560.5 357 h 0.0"></path><path d="M 705.5 357 h 0.0"></path><path d="M 560.5 357 h 20"></path><g>
<path d="M 580.5 357 h 105.0"></path></g><path d="M 685.5 357 h 20"></path><path d="M 560.5 357 a 10 10 0 0 1 10 10 v 0 a 10 10 0 0 0 10 10"></path><g class="non-terminal ">
<path d="M 580.5 377 h 0.0"></path><path d="M 685.5 377 h 0.0"></path><rect height="22" width="105.0" x="580.5" y="366"></rect><text x="633.0" y="381">Attributes</text></g><path d="M 685.5 377 a 10 10 0 0 0 10 -10 v 0 a 10 10 0 0 1 10 -10"></path></g></g><path d="M 705.5 357 h 20"></path><path d="M 407.0 357 a 10 10 0 0 1 10 10 v 40 a 10 10 0 0 0 10 10"></path><g class="non-terminal ">
<path d="M 427.0 417 h 86.75"></path><path d="M 618.75 417 h 86.75"></path><rect height="22" width="105.0" x="513.75" y="406"></rect><text x="566.25" y="421">Attributes</text></g><path d="M 705.5 417 a 10 10 0 0 0 10 -10 v -40 a 10 10 0 0 1 10 -10"></path></g></g><path d="M 971.5 357 h 20"></path><path d="M 141.0 357 a 10 10 0 0 1 10 10 v 90 a 10 10 0 0 0 10 10"></path><g>
<path d="M 161.0 467 h 246.0"></path><path d="M 725.5 467 h 246.0"></path><g>
<path d="M 407.0 467 h 0.0"></path><path d="M 725.5 467 h 0.0"></path><path d="M 407.0 467 h 20"></path><g>
<path d="M 427.0 467 h 0.0"></path><path d="M 705.5 467 h 0.0"></path><g class="non-terminal ">
<path d="M 427.0 467 h 0.0"></path><path d="M 540.5 467 h 0.0"></path><rect height="22" width="113.5" x="427.0" y="456"></rect><text x="483.75" y="471">CharContent</text></g><path d="M 540.5 467 h 10"></path><path d="M 550.5 467 h 10"></path><g>
<path d="M 560.5 467 h 0.0"></path><path d="M 705.5 467 h 0.0"></path><path d="M 560.5 467 h 20"></path><g>
<path d="M 580.5 467 h 105.0"></path></g><path d="M 685.5 467 h 20"></path><path d="M 560.5 467 a 10 10 0 0 1 10 10 v 0 a 10 10 0 0 0 10 10"></path><g class="non-terminal ">
<path d="M 580.5 487 h 0.0"></path><path d="M 685.5 487 h 0.0"></path><rect height="22" width="105.0" x="580.5" y="476"></rect><text x="633.0" y="491">Attributes</text></g><path d="M 685.5 487 a 10 10 0 0 0 10 -10 v 0 a 10 10 0 0 1 10 -10"></path></g></g><path d="M 705.5 467 h 20"></path><path d="M 407.0 467 a 10 10 0 0 1 10 10 v 40 a 10 10 0 0 0 10 10"></path><g class="non-terminal ">
<path d="M 427.0 527 h 86.75"></path><path d="M 618.75 527 h 86.75"></path><rect height="22" width="105.0" x="513.75" y="516"></rect><text x="566.25" y="531">Attributes</text></g><path d="M 705.5 527 a 10 10 0 0 0 10 -10 v -40 a 10 10 0 0 1 10 -10"></path></g></g><path d="M 971.5 467 a 10 10 0 0 0 10 -10 v -90 a 10 10 0 0 1 10 -10"></path></g></g></g><path d="M 991.5 357 h 10"></path><path d="M 1001.5 357 h 20 m 0 -10 v 20"></path></g></svg>