<svg class="railroad-diagram" height="754" viewBox="0 0 805.0 754" width="805.0" xmlns="http://www.w3.org/2000/svg" xmlns:xlink="http://www.w3.org/1999/xlink">
<g transform="translate(.5 .5)">
<style>/* <![CDATA[ */

    svg.railroad-diagram {
        background-color:hsl(30,20%,95%);
    }
    svg.railroad-diagram path {
        stroke-width: 2;
        stroke: black;
        fill: none;
    }
    svg.railroad-diagram text {
        font-size: 12px;
        text-anchor: middle;
        font-family: DejaVu Sans;
    }
    svg.railroad-diagram text.label {
        text-anchor:start;
    }
    svg.railroad-diagram text.comment {
        font-family: DejaVu Sans;
        font-size: 14px;
    }
    svg.railroad-diagram rect{
        stroke-width: 2;
        stroke:black;
        fill: rgb(210, 210, 255);
    }
    svg.railroad-diagram rect.group-box {
        stroke: gray;
        stroke-dasharray: 10 5;
        fill: none;
    }
    .terminal {
        font-family: DejaVu Sans;
    }

/* ]]> */
</style><g>
<path d="M 20 465 v 20 m 0 -10 h 20"></path></g><path d="M 40 475 h 10"></path><g>
<path d="M 50 475 h 0.0"></path><path d="M 755.0 475 h 0.0"></path><g>
<path d="M 50.0 475 h 0.0"></path><path d="M 755.0 475 h 0.0"></path><path d="M 50.0 475 h 20"></path><g>
<path d="M 70.0 475 h 0.0"></path><path d="M 735.0 475 h 0.0"></path><g class="terminal ">
<path d="M 70.0 475 h 0.0"></path><path d="M 141.0 475 h 0.0"></path><rect height="22" rx="10" ry="10" width="71.0" x="70.0" y="464"></rect><text x="105.5" y="479">&#60;char></text></g><path d="M 141.0 475 h 10"></path><path d="M 151.0 475 h 10"></path><g>
<path d="M 161.0 475 h 0.0"></path><path d="M 735.0 475 h 0.0"></path><path d="M 161.0 475 a 10 10 0 0 0 10 -10 v -296 a 10 10 0 0 1 10 -10"></path><g>
<path d="M 181.0 159 h 0.0"></path><path d="M 715.0 159 h 0.0"></path><g class="terminal ">
<path d="M 181.0 159 h 0.0"></path><path d="M 252.0 159 h 0.0"></path><rect height="22" rx="10" ry="10" width="71.0" x="181.0" y="148"></rect><text x="216.5" y="163">@style</text></g><path d="M 252.0 159 h 10"></path><g>
<path d="M 262.0 159 h 0.0"></path><path d="M 715.0 159 h 0.0"></path><path d="M 262.0 159 a 10 10 0 0 0 10 -10 v -99 a 10 10 0 0 1 10 -10 h 232.0"></path><path d="M 262.0 159 h 10"></path><g>
<path d="M 272.0 159 h 0.0"></path><path d="M 272.0 159 a 10 10 0 0 0 10 -10 v -10 a 10 10 0 0 1 10 -10"></path><g class="terminal ">
<path d="M 292.0 129 h 0.0"></path><path d="M 346.0 129 h 0.0"></path><rect height="22" rx="10" ry="10" width="54.0" x="292.0" y="118"></rect><text x="319.0" y="133">"ca"</text></g><path d="M 272.0 159 a 10 10 0 0 0 10 -10 v -40 a 10 10 0 0 1 10 -10"></path><g class="terminal ">
<path d="M 292.0 99 h 0.0"></path><path d="M 346.0 99 h 0.0"></path><rect height="22" rx="10" ry="10" width="54.0" x="292.0" y="88"></rect><text x="319.0" y="103">"vp"</text></g><path d="M 272.0 159 a 10 10 0 0 0 10 -10 v -70 a 10 10 0 0 1 10 -10"></path><g class="terminal ">
<path d="M 292.0 69 h 0.0"></path><path d="M 346.0 69 h 0.0"></path><rect height="22" rx="10" ry="10" width="54.0" x="292.0" y="58"></rect><text x="319.0" y="73">"va"</text></g><path d="M 272.0 159 h 20"></path><g class="terminal ">
<path d="M 292.0 159 h 0.0"></path><path d="M 354.5 159 h 0.0"></path><rect height="22" rx="10" ry="10" width="62.5" x="292.0" y="148"></rect><text x="323.25" y="163">"qac"</text></g><path d="M 272.0 159 a 10 10 0 0 1 10 10 v 10 a 10 10 0 0 0 10 10"></path><g class="terminal ">
<path d="M 292.0 189 h 0.0"></path><path d="M 346.0 189 h 0.0"></path><rect height="22" rx="10" ry="10" width="54.0" x="292.0" y="178"></rect><text x="319.0" y="193">"qs"</text></g><path d="M 272.0 159 a 10 10 0 0 1 10 10 v 40 a 10 10 0 0 0 10 10"></path><g class="terminal ">
<path d="M 292.0 219 h 0.0"></path><path d="M 354.5 219 h 0.0"></path><rect height="22" rx="10" ry="10" width="62.5" x="292.0" y="208"></rect><text x="323.25" y="223">"add"</text></g><path d="M 272.0 159 a 10 10 0 0 1 10 10 v 70 a 10 10 0 0 0 10 10"></path><g class="terminal ">
<path d="M 292.0 249 h 0.0"></path><path d="M 371.5 249 h 0.0"></path><rect height="22" rx="10" ry="10" width="79.5" x="292.0" y="238"></rect><text x="331.75" y="253">"addpn"</text></g><path d="M 272.0 159 a 10 10 0 0 1 10 10 v 100 a 10 10 0 0 0 10 10"></path><g class="terminal ">
<path d="M 292.0 279 h 0.0"></path><path d="M 346.0 279 h 0.0"></path><rect height="22" rx="10" ry="10" width="54.0" x="292.0" y="268"></rect><text x="319.0" y="283">"bk"</text></g><path d="M 272.0 159 a 10 10 0 0 1 10 10 v 130 a 10 10 0 0 0 10 10"></path><g class="terminal ">
<path d="M 292.0 309 h 0.0"></path><path d="M 346.0 309 h 0.0"></path><rect height="22" rx="10" ry="10" width="54.0" x="292.0" y="298"></rect><text x="319.0" y="313">"dc"</text></g><path d="M 272.0 159 a 10 10 0 0 1 10 10 v 160 a 10 10 0 0 0 10 10"></path><g class="terminal ">
<path d="M 292.0 339 h 0.0"></path><path d="M 354.5 339 h 0.0"></path><rect height="22" rx="10" ry="10" width="62.5" x="292.0" y="328"></rect><text x="323.25" y="343">"efm"</text></g><path d="M 272.0 159 a 10 10 0 0 1 10 10 v 190 a 10 10 0 0 0 10 10"></path><g class="terminal ">
<path d="M 292.0 369 h 0.0"></path><path d="M 346.0 369 h 0.0"></path><rect height="22" rx="10" ry="10" width="54.0" x="292.0" y="358"></rect><text x="319.0" y="373">"fm"</text></g><path d="M 272.0 159 a 10 10 0 0 1 10 10 v 220 a 10 10 0 0 0 10 10"></path><g class="terminal ">
<path d="M 292.0 399 h 0.0"></path><path d="M 337.5 399 h 0.0"></path><rect height="22" rx="10" ry="10" width="45.5" x="292.0" y="388"></rect><text x="314.75" y="403">"k"</text></g></g><path d="M 391.5 40 a 10 10 0 0 1 10 10 v 99 a 10 10 0 0 0 10 10"></path><g>
<path d="M 411.5 159 h 0.0"></path><path d="M 411.5 159 a 10 10 0 0 0 10 -10 v -10 a 10 10 0 0 1 10 -10"></path><g class="terminal ">
<path d="M 431.5 129 h 0.0"></path><path d="M 494.0 129 h 0.0"></path><rect height="22" rx="10" ry="10" width="62.5" x="431.5" y="118"></rect><text x="462.75" y="133">"ord"</text></g><path d="M 411.5 159 a 10 10 0 0 0 10 -10 v -40 a 10 10 0 0 1 10 -10"></path><g class="terminal ">
<path d="M 431.5 99 h 0.0"></path><path d="M 494.0 99 h 0.0"></path><rect height="22" rx="10" ry="10" width="62.5" x="431.5" y="88"></rect><text x="462.75" y="103">"ndx"</text></g><path d="M 411.5 159 a 10 10 0 0 0 10 -10 v -70 a 10 10 0 0 1 10 -10"></path><g class="terminal ">
<path d="M 431.5 69 h 0.0"></path><path d="M 485.5 69 h 0.0"></path><rect height="22" rx="10" ry="10" width="54.0" x="431.5" y="58"></rect><text x="458.5" y="73">"nd"</text></g><path d="M 411.5 159 h 20"></path><g class="terminal ">
<path d="M 431.5 159 h 0.0"></path><path d="M 485.5 159 h 0.0"></path><rect height="22" rx="10" ry="10" width="54.0" x="431.5" y="148"></rect><text x="458.5" y="163">"pn"</text></g><path d="M 411.5 159 a 10 10 0 0 1 10 10 v 10 a 10 10 0 0 0 10 10"></path><g class="terminal ">
<path d="M 431.5 189 h 0.0"></path><path d="M 494.0 189 h 0.0"></path><rect height="22" rx="10" ry="10" width="62.5" x="431.5" y="178"></rect><text x="462.75" y="193">"png"</text></g><path d="M 411.5 159 a 10 10 0 0 1 10 10 v 40 a 10 10 0 0 0 10 10"></path><g class="terminal ">
<path d="M 431.5 219 h 0.0"></path><path d="M 494.0 219 h 0.0"></path><rect height="22" rx="10" ry="10" width="62.5" x="431.5" y="208"></rect><text x="462.75" y="223">"pro"</text></g><path d="M 411.5 159 a 10 10 0 0 1 10 10 v 70 a 10 10 0 0 0 10 10"></path><g class="terminal ">
<path d="M 431.5 249 h 0.0"></path><path d="M 485.5 249 h 0.0"></path><rect height="22" rx="10" ry="10" width="54.0" x="431.5" y="238"></rect><text x="458.5" y="253">"qt"</text></g><path d="M 411.5 159 a 10 10 0 0 1 10 10 v 100 a 10 10 0 0 0 10 10"></path><g class="terminal ">
<path d="M 431.5 279 h 0.0"></path><path d="M 485.5 279 h 0.0"></path><rect height="22" rx="10" ry="10" width="54.0" x="431.5" y="268"></rect><text x="458.5" y="283">"rq"</text></g><path d="M 411.5 159 a 10 10 0 0 1 10 10 v 130 a 10 10 0 0 0 10 10"></path><g class="terminal ">
<path d="M 431.5 309 h 0.0"></path><path d="M 494.0 309 h 0.0"></path><rect height="22" rx="10" ry="10" width="62.5" x="431.5" y="298"></rect><text x="462.75" y="313">"sig"</text></g><path d="M 411.5 159 a 10 10 0 0 1 10 10 v 160 a 10 10 0 0 0 10 10"></path><g class="terminal ">
<path d="M 431.5 339 h 0.0"></path><path d="M 494.0 339 h 0.0"></path><rect height="22" rx="10" ry="10" width="62.5" x="431.5" y="328"></rect><text x="462.75" y="343">"sls"</text></g><path d="M 411.5 159 a 10 10 0 0 1 10 10 v 190 a 10 10 0 0 0 10 10"></path><g class="terminal ">
<path d="M 431.5 369 h 0.0"></path><path d="M 485.5 369 h 0.0"></path><rect height="22" rx="10" ry="10" width="54.0" x="431.5" y="358"></rect><text x="458.5" y="373">"tl"</text></g><path d="M 411.5 159 a 10 10 0 0 1 10 10 v 220 a 10 10 0 0 0 10 10"></path><g class="terminal ">
<path d="M 431.5 399 h 0.0"></path><path d="M 485.5 399 h 0.0"></path><rect height="22" rx="10" ry="10" width="54.0" x="431.5" y="388"></rect><text x="458.5" y="403">"wg"</text></g></g><path d="M 514.0 40 a 10 10 0 0 1 10 10 v 99 a 10 10 0 0 0 10 10"></path><g>
<path d="M 534.0 159 h 0.0"></path><path d="M 534.0 159 a 10 10 0 0 0 10 -10 v -10 a 10 10 0 0 1 10 -10"></path><g class="terminal ">
<path d="M 554.0 129 h 0.0"></path><path d="M 608.0 129 h 0.0"></path><rect height="22" rx="10" ry="10" width="54.0" x="554.0" y="118"></rect><text x="581.0" y="133">"wj"</text></g><path d="M 534.0 159 a 10 10 0 0 0 10 -10 v -40 a 10 10 0 0 1 10 -10"></path><g class="terminal ">
<path d="M 554.0 99 h 0.0"></path><path d="M 608.0 99 h 0.0"></path><rect height="22" rx="10" ry="10" width="54.0" x="554.0" y="88"></rect><text x="581.0" y="103">"wa"</text></g><path d="M 534.0 159 a 10 10 0 0 0 10 -10 v -70 a 10 10 0 0 1 10 -10"></path><g class="terminal ">
<path d="M 554.0 69 h 0.0"></path><path d="M 608.0 69 h 0.0"></path><rect height="22" rx="10" ry="10" width="54.0" x="554.0" y="58"></rect><text x="581.0" y="73">"wh"</text></g><path d="M 534.0 159 h 20"></path><g class="terminal ">
<path d="M 554.0 159 h 0.0"></path><path d="M 608.0 159 h 0.0"></path><rect height="22" rx="10" ry="10" width="54.0" x="554.0" y="148"></rect><text x="581.0" y="163">"xt"</text></g><path d="M 534.0 159 a 10 10 0 0 1 10 10 v 10 a 10 10 0 0 0 10 10"></path><g class="terminal ">
<path d="M 554.0 189 h 0.0"></path><path d="M 616.5 189 h 0.0"></path><rect height="22" rx="10" ry="10" width="62.5" x="554.0" y="178"></rect><text x="585.25" y="193">"jmp"</text></g><path d="M 534.0 159 a 10 10 0 0 1 10 10 v 40 a 10 10 0 0 0 10 10"></path><g class="terminal ">
<path d="M 554.0 219 h 0.0"></path><path d="M 608.0 219 h 0.0"></path><rect height="22" rx="10" ry="10" width="54.0" x="554.0" y="208"></rect><text x="581.0" y="223">"no"</text></g><path d="M 534.0 159 a 10 10 0 0 1 10 10 v 70 a 10 10 0 0 0 10 10"></path><g class="terminal ">
<path d="M 554.0 249 h 0.0"></path><path d="M 608.0 249 h 0.0"></path><rect height="22" rx="10" ry="10" width="54.0" x="554.0" y="238"></rect><text x="581.0" y="253">"it"</text></g><path d="M 534.0 159 a 10 10 0 0 1 10 10 v 100 a 10 10 0 0 0 10 10"></path><g class="terminal ">
<path d="M 554.0 279 h 0.0"></path><path d="M 608.0 279 h 0.0"></path><rect height="22" rx="10" ry="10" width="54.0" x="554.0" y="268"></rect><text x="581.0" y="283">"bd"</text></g><path d="M 534.0 159 a 10 10 0 0 1 10 10 v 130 a 10 10 0 0 0 10 10"></path><g class="terminal ">
<path d="M 554.0 309 h 0.0"></path><path d="M 625.0 309 h 0.0"></path><rect height="22" rx="10" ry="10" width="71.0" x="554.0" y="298"></rect><text x="589.5" y="313">"bdit"</text></g><path d="M 534.0 159 a 10 10 0 0 1 10 10 v 160 a 10 10 0 0 0 10 10"></path><g class="terminal ">
<path d="M 554.0 339 h 0.0"></path><path d="M 608.0 339 h 0.0"></path><rect height="22" rx="10" ry="10" width="54.0" x="554.0" y="328"></rect><text x="581.0" y="343">"em"</text></g><path d="M 534.0 159 a 10 10 0 0 1 10 10 v 190 a 10 10 0 0 0 10 10"></path><g class="terminal ">
<path d="M 554.0 369 h 0.0"></path><path d="M 608.0 369 h 0.0"></path><rect height="22" rx="10" ry="10" width="54.0" x="554.0" y="358"></rect><text x="581.0" y="373">"sc"</text></g><path d="M 534.0 159 a 10 10 0 0 1 10 10 v 220 a 10 10 0 0 0 10 10"></path><g class="terminal ">
<path d="M 554.0 399 h 0.0"></path><path d="M 616.5 399 h 0.0"></path><rect height="22" rx="10" ry="10" width="62.5" x="554.0" y="388"></rect><text x="585.25" y="403">"sup"</text></g></g></g></g><path d="M 161.0 475 h 20"></path><g>
<path d="M 181.0 475 h 66.25"></path><path d="M 648.75 475 h 66.25"></path><g class="terminal ">
<path d="M 247.25 475 h 0.0"></path><path d="M 301.25 475 h 0.0"></path><rect height="22" rx="10" ry="10" width="54.0" x="247.25" y="464"></rect><text x="274.25" y="479">TEXT</text></g><path d="M 301.25 475 h 10"></path><path d="M 311.25 475 h 10"></path><g>
<path d="M 321.25 475 h 0.0"></path><path d="M 648.75 475 h 0.0"></path><path d="M 321.25 475 a 10 10 0 0 0 10 -10 v -9 a 10 10 0 0 1 10 -10"></path><g>
<path d="M 341.25 446 h 287.5"></path></g><path d="M 628.75 446 a 10 10 0 0 1 10 10 v 9 a 10 10 0 0 0 10 10"></path><path d="M 321.25 475 h 20"></path><g>
<path d="M 341.25 475 h 0.0"></path><path d="M 628.75 475 h 0.0"></path><path d="M 341.25 475 h 10"></path><g>
<path d="M 351.25 475 h 0.0"></path><path d="M 618.75 475 h 0.0"></path><path d="M 351.25 475 h 20"></path><g class="non-terminal ">
<path d="M 371.25 475 h 65.5"></path><path d="M 533.25 475 h 65.5"></path><rect height="22" width="96.5" x="436.75" y="464"></rect><text x="485.0" y="479">Reference</text></g><path d="M 598.75 475 h 20"></path><path d="M 351.25 475 a 10 10 0 0 1 10 10 v 10 a 10 10 0 0 0 10 10"></path><g class="non-terminal ">
<path d="M 371.25 505 h 65.5"></path><path d="M 533.25 505 h 65.5"></path><rect height="22" width="96.5" x="436.75" y="494"></rect><text x="485.0" y="509">CharEmbed</text></g><path d="M 598.75 505 a 10 10 0 0 0 10 -10 v -10 a 10 10 0 0 1 10 -10"></path><path d="M 351.25 475 a 10 10 0 0 1 10 10 v 40 a 10 10 0 0 0 10 10"></path><g class="non-terminal ">
<path d="M 371.25 535 h 65.5"></path><path d="M 533.25 535 h 65.5"></path><rect height="22" width="96.5" x="436.75" y="524"></rect><text x="485.0" y="539">Milestone</text></g><path d="M 598.75 535 a 10 10 0 0 0 10 -10 v -40 a 10 10 0 0 1 10 -10"></path><path d="M 351.25 475 a 10 10 0 0 1 10 10 v 70 a 10 10 0 0 0 10 10"></path><g class="non-terminal ">
<path d="M 371.25 565 h 69.75"></path><path d="M 529.0 565 h 69.75"></path><rect height="22" width="88.0" x="441.0" y="554"></rect><text x="485.0" y="569">Footnote</text></g><path d="M 598.75 565 a 10 10 0 0 0 10 -10 v -70 a 10 10 0 0 1 10 -10"></path><path d="M 351.25 475 a 10 10 0 0 1 10 10 v 110 a 10 10 0 0 0 10 10"></path><g>
<path d="M 371.25 605 h 0.0"></path><path d="M 598.75 605 h 0.0"></path><g class="terminal ">
<path d="M 371.25 605 h 0.0"></path><path d="M 476.25 605 h 0.0"></path><rect height="22" rx="10" ry="10" width="105.0" x="371.25" y="594"></rect><text x="423.75" y="609">&#60;optbreak></text></g><path d="M 476.25 605 h 10"></path><path d="M 486.25 605 h 10"></path><g>
<path d="M 496.25 605 h 0.0"></path><path d="M 598.75 605 h 0.0"></path><path d="M 496.25 605 h 20"></path><g class="terminal ">
<path d="M 516.25 605 h 0.0"></path><path d="M 578.75 605 h 0.0"></path><rect height="22" rx="10" ry="10" width="62.5" x="516.25" y="594"></rect><text x="547.5" y="609">EMPTY</text></g><path d="M 578.75 605 h 20"></path></g></g><path d="M 598.75 605 a 10 10 0 0 0 10 -10 v -110 a 10 10 0 0 1 10 -10"></path><path d="M 351.25 475 a 10 10 0 0 1 10 10 v 150 a 10 10 0 0 0 10 10"></path><g class="terminal ">
<path d="M 371.25 645 h 86.75"></path><path d="M 512.0 645 h 86.75"></path><rect height="22" rx="10" ry="10" width="54.0" x="458.0" y="634"></rect><text x="485.0" y="649">TEXT</text></g><path d="M 598.75 645 a 10 10 0 0 0 10 -10 v -150 a 10 10 0 0 1 10 -10"></path></g><path d="M 618.75 475 h 10"></path><path d="M 351.25 475 a 10 10 0 0 0 -10 10 v 179 a 10 10 0 0 0 10 10"></path><g>
<path d="M 351.25 674 h 267.5"></path></g><path d="M 618.75 674 a 10 10 0 0 0 10 -10 v -179 a 10 10 0 0 0 -10 -10"></path></g><path d="M 628.75 475 h 20"></path></g></g><path d="M 715.0 475 h 20"></path></g></g><path d="M 735.0 475 h 20"></path><path d="M 50.0 475 a 10 10 0 0 1 10 10 v 218 a 10 10 0 0 0 10 10"></path><g class="non-terminal ">
<path d="M 70.0 713 h 263.0"></path><path d="M 472.0 713 h 263.0"></path><rect height="22" width="139.0" x="333.0" y="702"></rect><text x="402.5" y="717">CharWithAttrib</text></g><path d="M 735.0 713 a 10 10 0 0 0 10 -10 v -218 a 10 10 0 0 1 10 -10"></path></g></g><path d="M 755.0 475 h 10"></path><path d="M 765.0 475 h 20 m 0 -10 v 20"></path></g></svg>