<svg class="railroad-diagram" height="571" viewBox="0 0 1569.0 571" width="1569.0" xmlns="http://www.w3.org/2000/svg" xmlns:xlink="http://www.w3.org/1999/xlink">
<g transform="translate(.5 .5)">
<style>/* <![CDATA[ */

    svg.railroad-diagram {
        background-color: hsl(30,20%,95%);
    }
    svg.railroad-diagram path {
        stroke-width: 2;
        stroke: black;
        fill: none;
    }
    svg.railroad-diagram text {
        font-size: 12px;
        text-anchor: middle;
        font-family: DejaVu Sans;
    }
    svg.railroad-diagram text.label {
        text-anchor:start;
    }
    svg.railroad-diagram text.comment {
        font-family: DejaVu Sans;
        font-size: 14px;
    }
    svg.railroad-diagram rect{
        stroke-width: 2;
        stroke: black;
        fill: rgb(210, 255, 210);
    }
    svg.railroad-diagram rect.group-box {
        stroke: gray;
        stroke-dasharray: 10 5;
        fill: none;
    }
    .terminal {
        font-family: DejaVu Sans;
    }
    svg.railroad-diagram g.altterminal rect {
        fill: rgb(251, 252, 207)
    }

/* ]]> */
</style><g>
<path d="M 20 163 v 20 m 0 -10 h 20"></path></g><path d="M 40 173 h 10"></path><g>
<path d="M 50 173 h 0.0"></path><path d="M 1519.0 173 h 0.0"></path><g>
<path d="M 50.0 173 h 0.0"></path><path d="M 1519.0 173 h 0.0"></path><path d="M 50.0 173 h 20"></path><g>
<path d="M 70.0 173 h 105.0"></path><path d="M 1394.0 173 h 105.0"></path><g>
<path d="M 175.0 173 h 0.0"></path><g>
<path d="M 175.0 173 h 10.0"></path><path d="M 1005.5 173 h 10.0"></path><g class="terminal ">
<path d="M 185.0 173 h 0.0"></path><path d="M 239.0 173 h 0.0"></path><rect height="22" rx="10" ry="10" width="54.0" x="185.0" y="162"></rect><text x="212.0" y="177">'\+'</text></g><path d="M 239.0 173 h 10"></path><path d="M 249.0 173 h 10"></path><g>
<path d="M 259.0 173 h 0.0"></path><path d="M 874.5 173 h 0.0"></path><rect class="group-box" height="314" rx="10" ry="10" width="615.5" x="259.0" y="46"></rect><g>
<path d="M 259.0 173 h 10.0"></path><path d="M 864.5 173 h 10.0"></path><g>
<path d="M 269.0 173 h 0.0"></path><path d="M 864.5 173 h 0.0"></path><path d="M 269.0 173 a 10 10 0 0 0 10 -10 v -99 a 10 10 0 0 1 10 -10 h 414.5"></path><path d="M 438.5 352 h 406.0 a 10 10 0 0 0 10 -10 v -159 a 10 10 0 0 1 10 -10"></path><path d="M 269.0 173 h 10"></path><g>
<path d="M 279.0 173 h 10.0"></path><path d="M 408.5 173 h 10.0"></path><path d="M 289.0 173 a 10 10 0 0 0 10 -10 v -10 a 10 10 0 0 1 10 -10"></path><g class="terminal ">
<path d="M 309.0 143 h 12.75"></path><path d="M 375.75 143 h 12.75"></path><rect height="22" rx="10" ry="10" width="54.0" x="321.75" y="132"></rect><text x="348.75" y="147">"qs"</text></g><path d="M 388.5 143 a 10 10 0 0 1 10 10 v 10 a 10 10 0 0 0 10 10"></path><path d="M 289.0 173 a 10 10 0 0 0 10 -10 v -40 a 10 10 0 0 1 10 -10"></path><g class="terminal ">
<path d="M 309.0 113 h 8.5"></path><path d="M 380.0 113 h 8.5"></path><rect height="22" rx="10" ry="10" width="62.5" x="317.5" y="102"></rect><text x="348.75" y="117">"qac"</text></g><path d="M 388.5 113 a 10 10 0 0 1 10 10 v 40 a 10 10 0 0 0 10 10"></path><path d="M 289.0 173 a 10 10 0 0 0 10 -10 v -70 a 10 10 0 0 1 10 -10"></path><g class="terminal ">
<path d="M 309.0 83 h 12.75"></path><path d="M 375.75 83 h 12.75"></path><rect height="22" rx="10" ry="10" width="54.0" x="321.75" y="72"></rect><text x="348.75" y="87">"vp"</text></g><path d="M 388.5 83 a 10 10 0 0 1 10 10 v 70 a 10 10 0 0 0 10 10"></path><path d="M 289.0 173 h 20"></path><g class="terminal ">
<path d="M 309.0 173 h 8.5"></path><path d="M 380.0 173 h 8.5"></path><rect height="22" rx="10" ry="10" width="62.5" x="317.5" y="162"></rect><text x="348.75" y="177">"add"</text></g><path d="M 388.5 173 h 20"></path><path d="M 289.0 173 a 10 10 0 0 1 10 10 v 10 a 10 10 0 0 0 10 10"></path><g class="terminal ">
<path d="M 309.0 203 h 0.0"></path><path d="M 388.5 203 h 0.0"></path><rect height="22" rx="10" ry="10" width="79.5" x="309.0" y="192"></rect><text x="348.75" y="207">"addpn"</text></g><path d="M 388.5 203 a 10 10 0 0 0 10 -10 v -10 a 10 10 0 0 1 10 -10"></path><path d="M 289.0 173 a 10 10 0 0 1 10 10 v 40 a 10 10 0 0 0 10 10"></path><g class="terminal ">
<path d="M 309.0 233 h 12.75"></path><path d="M 375.75 233 h 12.75"></path><rect height="22" rx="10" ry="10" width="54.0" x="321.75" y="222"></rect><text x="348.75" y="237">"bk"</text></g><path d="M 388.5 233 a 10 10 0 0 0 10 -10 v -40 a 10 10 0 0 1 10 -10"></path><path d="M 289.0 173 a 10 10 0 0 1 10 10 v 70 a 10 10 0 0 0 10 10"></path><g class="terminal ">
<path d="M 309.0 263 h 12.75"></path><path d="M 375.75 263 h 12.75"></path><rect height="22" rx="10" ry="10" width="54.0" x="321.75" y="252"></rect><text x="348.75" y="267">"dc"</text></g><path d="M 388.5 263 a 10 10 0 0 0 10 -10 v -70 a 10 10 0 0 1 10 -10"></path><path d="M 289.0 173 a 10 10 0 0 1 10 10 v 100 a 10 10 0 0 0 10 10"></path><g class="terminal ">
<path d="M 309.0 293 h 8.5"></path><path d="M 380.0 293 h 8.5"></path><rect height="22" rx="10" ry="10" width="62.5" x="317.5" y="282"></rect><text x="348.75" y="297">"efm"</text></g><path d="M 388.5 293 a 10 10 0 0 0 10 -10 v -100 a 10 10 0 0 1 10 -10"></path><path d="M 289.0 173 a 10 10 0 0 1 10 10 v 130 a 10 10 0 0 0 10 10"></path><g class="terminal ">
<path d="M 309.0 323 h 12.75"></path><path d="M 375.75 323 h 12.75"></path><rect height="22" rx="10" ry="10" width="54.0" x="321.75" y="312"></rect><text x="348.75" y="327">"fm"</text></g><path d="M 388.5 323 a 10 10 0 0 0 10 -10 v -130 a 10 10 0 0 1 10 -10"></path></g><path d="M 418.5 173 a 10 10 0 0 1 10 10 v 159 a 10 10 0 0 0 10 10"></path><path d="M 418.5 54 a 10 10 0 0 1 10 10 v 99 a 10 10 0 0 0 10 10"></path><g>
<path d="M 438.5 173 h 10.0"></path><path d="M 551.0 173 h 10.0"></path><path d="M 448.5 173 a 10 10 0 0 0 10 -10 v -10 a 10 10 0 0 1 10 -10"></path><g class="terminal ">
<path d="M 468.5 143 h 0.0"></path><path d="M 531.0 143 h 0.0"></path><rect height="22" rx="10" ry="10" width="62.5" x="468.5" y="132"></rect><text x="499.75" y="147">"ndx"</text></g><path d="M 531.0 143 a 10 10 0 0 1 10 10 v 10 a 10 10 0 0 0 10 10"></path><path d="M 448.5 173 a 10 10 0 0 0 10 -10 v -40 a 10 10 0 0 1 10 -10"></path><g class="terminal ">
<path d="M 468.5 113 h 4.25"></path><path d="M 526.75 113 h 4.25"></path><rect height="22" rx="10" ry="10" width="54.0" x="472.75" y="102"></rect><text x="499.75" y="117">"nd"</text></g><path d="M 531.0 113 a 10 10 0 0 1 10 10 v 40 a 10 10 0 0 0 10 10"></path><path d="M 448.5 173 a 10 10 0 0 0 10 -10 v -70 a 10 10 0 0 1 10 -10"></path><g class="terminal ">
<path d="M 468.5 83 h 8.5"></path><path d="M 522.5 83 h 8.5"></path><rect height="22" rx="10" ry="10" width="45.5" x="477.0" y="72"></rect><text x="499.75" y="87">"k"</text></g><path d="M 531.0 83 a 10 10 0 0 1 10 10 v 70 a 10 10 0 0 0 10 10"></path><path d="M 448.5 173 h 20"></path><g class="terminal ">
<path d="M 468.5 173 h 0.0"></path><path d="M 531.0 173 h 0.0"></path><rect height="22" rx="10" ry="10" width="62.5" x="468.5" y="162"></rect><text x="499.75" y="177">"ord"</text></g><path d="M 531.0 173 h 20"></path><path d="M 448.5 173 a 10 10 0 0 1 10 10 v 10 a 10 10 0 0 0 10 10"></path><g class="terminal ">
<path d="M 468.5 203 h 0.0"></path><path d="M 531.0 203 h 0.0"></path><rect height="22" rx="10" ry="10" width="62.5" x="468.5" y="192"></rect><text x="499.75" y="207">"png"</text></g><path d="M 531.0 203 a 10 10 0 0 0 10 -10 v -10 a 10 10 0 0 1 10 -10"></path><path d="M 448.5 173 a 10 10 0 0 1 10 10 v 40 a 10 10 0 0 0 10 10"></path><g class="terminal ">
<path d="M 468.5 233 h 4.25"></path><path d="M 526.75 233 h 4.25"></path><rect height="22" rx="10" ry="10" width="54.0" x="472.75" y="222"></rect><text x="499.75" y="237">"pn"</text></g><path d="M 531.0 233 a 10 10 0 0 0 10 -10 v -40 a 10 10 0 0 1 10 -10"></path><path d="M 448.5 173 a 10 10 0 0 1 10 10 v 70 a 10 10 0 0 0 10 10"></path><g class="terminal ">
<path d="M 468.5 263 h 0.0"></path><path d="M 531.0 263 h 0.0"></path><rect height="22" rx="10" ry="10" width="62.5" x="468.5" y="252"></rect><text x="499.75" y="267">"pro"</text></g><path d="M 531.0 263 a 10 10 0 0 0 10 -10 v -70 a 10 10 0 0 1 10 -10"></path><path d="M 448.5 173 a 10 10 0 0 1 10 10 v 100 a 10 10 0 0 0 10 10"></path><g class="terminal ">
<path d="M 468.5 293 h 4.25"></path><path d="M 526.75 293 h 4.25"></path><rect height="22" rx="10" ry="10" width="54.0" x="472.75" y="282"></rect><text x="499.75" y="297">"qt"</text></g><path d="M 531.0 293 a 10 10 0 0 0 10 -10 v -100 a 10 10 0 0 1 10 -10"></path><path d="M 448.5 173 a 10 10 0 0 1 10 10 v 130 a 10 10 0 0 0 10 10"></path><g class="terminal ">
<path d="M 468.5 323 h 4.25"></path><path d="M 526.75 323 h 4.25"></path><rect height="22" rx="10" ry="10" width="54.0" x="472.75" y="312"></rect><text x="499.75" y="327">"rq"</text></g><path d="M 531.0 323 a 10 10 0 0 0 10 -10 v -130 a 10 10 0 0 1 10 -10"></path></g><path d="M 561.0 173 a 10 10 0 0 1 10 10 v 159 a 10 10 0 0 0 10 10"></path><path d="M 561.0 54 a 10 10 0 0 1 10 10 v 99 a 10 10 0 0 0 10 10"></path><g>
<path d="M 581.0 173 h 10.0"></path><path d="M 693.5 173 h 10.0"></path><path d="M 591.0 173 a 10 10 0 0 0 10 -10 v -10 a 10 10 0 0 1 10 -10"></path><g class="terminal ">
<path d="M 611.0 143 h 4.25"></path><path d="M 669.25 143 h 4.25"></path><rect height="22" rx="10" ry="10" width="54.0" x="615.25" y="132"></rect><text x="642.25" y="147">"tl"</text></g><path d="M 673.5 143 a 10 10 0 0 1 10 10 v 10 a 10 10 0 0 0 10 10"></path><path d="M 591.0 173 a 10 10 0 0 0 10 -10 v -40 a 10 10 0 0 1 10 -10"></path><g class="terminal ">
<path d="M 611.0 113 h 0.0"></path><path d="M 673.5 113 h 0.0"></path><rect height="22" rx="10" ry="10" width="62.5" x="611.0" y="102"></rect><text x="642.25" y="117">"sls"</text></g><path d="M 673.5 113 a 10 10 0 0 1 10 10 v 40 a 10 10 0 0 0 10 10"></path><path d="M 591.0 173 a 10 10 0 0 0 10 -10 v -70 a 10 10 0 0 1 10 -10"></path><g class="terminal ">
<path d="M 611.0 83 h 0.0"></path><path d="M 673.5 83 h 0.0"></path><rect height="22" rx="10" ry="10" width="62.5" x="611.0" y="72"></rect><text x="642.25" y="87">"sig"</text></g><path d="M 673.5 83 a 10 10 0 0 1 10 10 v 70 a 10 10 0 0 0 10 10"></path><path d="M 591.0 173 h 20"></path><g class="terminal ">
<path d="M 611.0 173 h 4.25"></path><path d="M 669.25 173 h 4.25"></path><rect height="22" rx="10" ry="10" width="54.0" x="615.25" y="162"></rect><text x="642.25" y="177">"wg"</text></g><path d="M 673.5 173 h 20"></path><path d="M 591.0 173 a 10 10 0 0 1 10 10 v 10 a 10 10 0 0 0 10 10"></path><g class="terminal ">
<path d="M 611.0 203 h 4.25"></path><path d="M 669.25 203 h 4.25"></path><rect height="22" rx="10" ry="10" width="54.0" x="615.25" y="192"></rect><text x="642.25" y="207">"wh"</text></g><path d="M 673.5 203 a 10 10 0 0 0 10 -10 v -10 a 10 10 0 0 1 10 -10"></path><path d="M 591.0 173 a 10 10 0 0 1 10 10 v 40 a 10 10 0 0 0 10 10"></path><g class="terminal ">
<path d="M 611.0 233 h 4.25"></path><path d="M 669.25 233 h 4.25"></path><rect height="22" rx="10" ry="10" width="54.0" x="615.25" y="222"></rect><text x="642.25" y="237">"wa"</text></g><path d="M 673.5 233 a 10 10 0 0 0 10 -10 v -40 a 10 10 0 0 1 10 -10"></path><path d="M 591.0 173 a 10 10 0 0 1 10 10 v 70 a 10 10 0 0 0 10 10"></path><g class="terminal ">
<path d="M 611.0 263 h 4.25"></path><path d="M 669.25 263 h 4.25"></path><rect height="22" rx="10" ry="10" width="54.0" x="615.25" y="252"></rect><text x="642.25" y="267">"wj"</text></g><path d="M 673.5 263 a 10 10 0 0 0 10 -10 v -70 a 10 10 0 0 1 10 -10"></path><path d="M 591.0 173 a 10 10 0 0 1 10 10 v 100 a 10 10 0 0 0 10 10"></path><g class="terminal ">
<path d="M 611.0 293 h 4.25"></path><path d="M 669.25 293 h 4.25"></path><rect height="22" rx="10" ry="10" width="54.0" x="615.25" y="282"></rect><text x="642.25" y="297">"xt"</text></g><path d="M 673.5 293 a 10 10 0 0 0 10 -10 v -100 a 10 10 0 0 1 10 -10"></path><path d="M 591.0 173 a 10 10 0 0 1 10 10 v 130 a 10 10 0 0 0 10 10"></path><g class="terminal ">
<path d="M 611.0 323 h 0.0"></path><path d="M 673.5 323 h 0.0"></path><rect height="22" rx="10" ry="10" width="62.5" x="611.0" y="312"></rect><text x="642.25" y="327">"jmp"</text></g><path d="M 673.5 323 a 10 10 0 0 0 10 -10 v -130 a 10 10 0 0 1 10 -10"></path></g><path d="M 703.5 173 a 10 10 0 0 1 10 10 v 159 a 10 10 0 0 0 10 10"></path><path d="M 703.5 54 a 10 10 0 0 1 10 10 v 99 a 10 10 0 0 0 10 10"></path><g>
<path d="M 723.5 173 h 10.0"></path><path d="M 844.5 173 h 10.0"></path><path d="M 733.5 173 a 10 10 0 0 0 10 -10 v -10 a 10 10 0 0 1 10 -10"></path><g class="terminal ">
<path d="M 753.5 143 h 0.0"></path><path d="M 824.5 143 h 0.0"></path><rect height="22" rx="10" ry="10" width="71.0" x="753.5" y="132"></rect><text x="789.0" y="147">"bdit"</text></g><path d="M 824.5 143 a 10 10 0 0 1 10 10 v 10 a 10 10 0 0 0 10 10"></path><path d="M 733.5 173 a 10 10 0 0 0 10 -10 v -40 a 10 10 0 0 1 10 -10"></path><g class="terminal ">
<path d="M 753.5 113 h 8.5"></path><path d="M 816.0 113 h 8.5"></path><rect height="22" rx="10" ry="10" width="54.0" x="762.0" y="102"></rect><text x="789.0" y="117">"it"</text></g><path d="M 824.5 113 a 10 10 0 0 1 10 10 v 40 a 10 10 0 0 0 10 10"></path><path d="M 733.5 173 a 10 10 0 0 0 10 -10 v -70 a 10 10 0 0 1 10 -10"></path><g class="terminal ">
<path d="M 753.5 83 h 8.5"></path><path d="M 816.0 83 h 8.5"></path><rect height="22" rx="10" ry="10" width="54.0" x="762.0" y="72"></rect><text x="789.0" y="87">"no"</text></g><path d="M 824.5 83 a 10 10 0 0 1 10 10 v 70 a 10 10 0 0 0 10 10"></path><path d="M 733.5 173 h 20"></path><g class="terminal ">
<path d="M 753.5 173 h 8.5"></path><path d="M 816.0 173 h 8.5"></path><rect height="22" rx="10" ry="10" width="54.0" x="762.0" y="162"></rect><text x="789.0" y="177">"bd"</text></g><path d="M 824.5 173 h 20"></path><path d="M 733.5 173 a 10 10 0 0 1 10 10 v 10 a 10 10 0 0 0 10 10"></path><g class="terminal ">
<path d="M 753.5 203 h 8.5"></path><path d="M 816.0 203 h 8.5"></path><rect height="22" rx="10" ry="10" width="54.0" x="762.0" y="192"></rect><text x="789.0" y="207">"em"</text></g><path d="M 824.5 203 a 10 10 0 0 0 10 -10 v -10 a 10 10 0 0 1 10 -10"></path><path d="M 733.5 173 a 10 10 0 0 1 10 10 v 40 a 10 10 0 0 0 10 10"></path><g class="terminal ">
<path d="M 753.5 233 h 8.5"></path><path d="M 816.0 233 h 8.5"></path><rect height="22" rx="10" ry="10" width="54.0" x="762.0" y="222"></rect><text x="789.0" y="237">"sc"</text></g><path d="M 824.5 233 a 10 10 0 0 0 10 -10 v -40 a 10 10 0 0 1 10 -10"></path><path d="M 733.5 173 a 10 10 0 0 1 10 10 v 70 a 10 10 0 0 0 10 10"></path><g class="terminal ">
<path d="M 753.5 263 h 4.25"></path><path d="M 820.25 263 h 4.25"></path><rect height="22" rx="10" ry="10" width="62.5" x="757.75" y="252"></rect><text x="789.0" y="267">"sup"</text></g><path d="M 824.5 263 a 10 10 0 0 0 10 -10 v -70 a 10 10 0 0 1 10 -10"></path></g><path d="M 854.5 173 h 10"></path></g></g><g class="non-terminal ">
<path d="M 259.0 38 h 0.0"></path><path d="M 276.0 38 h 0.0"></path><text class="comment" x="267.5" y="43">➋</text></g></g><path d="M 874.5 173 h 10"></path><path d="M 884.5 173 h 10"></path><g>
<path d="M 894.5 173 h 0.0"></path><path d="M 1005.5 173 h 0.0"></path><path d="M 894.5 173 h 20"></path><g class="terminal ">
<path d="M 914.5 173 h 12.75"></path><path d="M 972.75 173 h 12.75"></path><rect height="22" rx="10" ry="10" width="45.5" x="927.25" y="162"></rect><text x="950.0" y="177">' '</text></g><path d="M 985.5 173 h 20"></path><path d="M 894.5 173 a 10 10 0 0 1 10 10 v 10 a 10 10 0 0 0 10 10"></path><g class="terminal altterminal">
<path d="M 914.5 203 h 0.0"></path><path d="M 985.5 203 h 0.0"></path><rect height="22" rx="10" ry="10" width="71.0" x="914.5" y="192"></rect><text x="950.0" y="207">TAGEND</text></g><path d="M 985.5 203 a 10 10 0 0 0 10 -10 v -10 a 10 10 0 0 1 10 -10"></path></g></g><path d="M 1015.5 173 h 0.0"></path></g><path d="M 1015.5 173 h 10"></path><path d="M 1025.5 173 h 10"></path><g class="non-terminal ">
<path d="M 1035.5 173 h 0.0"></path><path d="M 1149.0 173 h 0.0"></path><rect height="22" width="113.5" x="1035.5" y="162"></rect><text x="1092.25" y="177">CharContent</text></g><path d="M 1149.0 173 h 10"></path><path d="M 1159.0 173 h 10"></path><g>
<path d="M 1169.0 173 h 0.0"></path><path d="M 1394.0 173 h 0.0"></path><path d="M 1169.0 173 h 20"></path><g>
<path d="M 1189.0 173 h 185.0"></path></g><path d="M 1374.0 173 h 20"></path><path d="M 1169.0 173 a 10 10 0 0 1 10 10 v 0 a 10 10 0 0 0 10 10"></path><g>
<path d="M 1189.0 193 h 0.0"></path><path d="M 1374.0 193 h 0.0"></path><g class="terminal ">
<path d="M 1189.0 193 h 0.0"></path><path d="M 1243.0 193 h 0.0"></path><rect height="22" rx="10" ry="10" width="54.0" x="1189.0" y="182"></rect><text x="1216.0" y="197">'\+'</text></g><path d="M 1243.0 193 h 10"></path><path d="M 1253.0 193 h 10"></path><g class="terminal ">
<path d="M 1263.0 193 h 0.0"></path><path d="M 1308.5 193 h 0.0"></path><rect height="22" rx="10" ry="10" width="45.5" x="1263.0" y="182"></rect><text x="1285.75" y="197">⇐ ➋</text></g><path d="M 1308.5 193 h 10"></path><path d="M 1318.5 193 h 10"></path><g class="terminal ">
<path d="M 1328.5 193 h 0.0"></path><path d="M 1374.0 193 h 0.0"></path><rect height="22" rx="10" ry="10" width="45.5" x="1328.5" y="182"></rect><text x="1351.25" y="197">'&#42;'</text></g></g><path d="M 1374.0 193 a 10 10 0 0 0 10 -10 v 0 a 10 10 0 0 1 10 -10"></path></g></g><path d="M 1499.0 173 h 20"></path><path d="M 50.0 173 a 10 10 0 0 1 10 10 v 220 a 10 10 0 0 0 10 10"></path><g>
<path d="M 70.0 413 h 0.0"></path><path d="M 1499.0 413 h 0.0"></path><g class="terminal ">
<path d="M 70.0 413 h 0.0"></path><path d="M 124.0 413 h 0.0"></path><rect height="22" rx="10" ry="10" width="54.0" x="70.0" y="402"></rect><text x="97.0" y="417">'\+'</text></g><path d="M 124.0 413 h 10"></path><path d="M 134.0 413 h 10"></path><g>
<path d="M 144.0 413 h 0.0"></path><path d="M 266.5 413 h 0.0"></path><rect class="group-box" height="118" rx="10" ry="10" width="122.5" x="144.0" y="384"></rect><g>
<path d="M 144.0 413 h 10.0"></path><path d="M 256.5 413 h 10.0"></path><g>
<path d="M 154.0 413 h 0.0"></path><path d="M 256.5 413 h 0.0"></path><path d="M 154.0 413 h 20"></path><g class="terminal ">
<path d="M 174.0 413 h 8.5"></path><path d="M 228.0 413 h 8.5"></path><rect height="22" rx="10" ry="10" width="45.5" x="182.5" y="402"></rect><text x="205.25" y="417">"w"</text></g><path d="M 236.5 413 h 20"></path><path d="M 154.0 413 a 10 10 0 0 1 10 10 v 10 a 10 10 0 0 0 10 10"></path><g class="terminal ">
<path d="M 174.0 443 h 4.25"></path><path d="M 232.25 443 h 4.25"></path><rect height="22" rx="10" ry="10" width="54.0" x="178.25" y="432"></rect><text x="205.25" y="447">"rb"</text></g><path d="M 236.5 443 a 10 10 0 0 0 10 -10 v -10 a 10 10 0 0 1 10 -10"></path><path d="M 154.0 413 a 10 10 0 0 1 10 10 v 40 a 10 10 0 0 0 10 10"></path><g class="terminal ">
<path d="M 174.0 473 h 0.0"></path><path d="M 236.5 473 h 0.0"></path><rect height="22" rx="10" ry="10" width="62.5" x="174.0" y="462"></rect><text x="205.25" y="477">"jmp"</text></g><path d="M 236.5 473 a 10 10 0 0 0 10 -10 v -40 a 10 10 0 0 1 10 -10"></path></g></g><g class="non-terminal ">
<path d="M 144.0 376 h 0.0"></path><path d="M 161.0 376 h 0.0"></path><text class="comment" x="152.5" y="381">➌</text></g></g><path d="M 266.5 413 h 10"></path><path d="M 276.5 413 h 10"></path><g>
<path d="M 286.5 413 h 0.0"></path><path d="M 397.5 413 h 0.0"></path><path d="M 286.5 413 h 20"></path><g class="terminal ">
<path d="M 306.5 413 h 12.75"></path><path d="M 364.75 413 h 12.75"></path><rect height="22" rx="10" ry="10" width="45.5" x="319.25" y="402"></rect><text x="342.0" y="417">' '</text></g><path d="M 377.5 413 h 20"></path><path d="M 286.5 413 a 10 10 0 0 1 10 10 v 10 a 10 10 0 0 0 10 10"></path><g class="terminal altterminal">
<path d="M 306.5 443 h 0.0"></path><path d="M 377.5 443 h 0.0"></path><rect height="22" rx="10" ry="10" width="71.0" x="306.5" y="432"></rect><text x="342.0" y="447">TAGEND</text></g><path d="M 377.5 443 a 10 10 0 0 0 10 -10 v -10 a 10 10 0 0 1 10 -10"></path></g><path d="M 397.5 413 h 10"></path><path d="M 407.5 413 h 10"></path><g>
<path d="M 417.5 413 h 0.0"></path><path d="M 648.0 413 h 0.0"></path><path d="M 417.5 413 a 10 10 0 0 0 10 -10 v -9 a 10 10 0 0 1 10 -10"></path><g>
<path d="M 437.5 384 h 190.5"></path></g><path d="M 628.0 384 a 10 10 0 0 1 10 10 v 9 a 10 10 0 0 0 10 10"></path><path d="M 417.5 413 h 20"></path><g>
<path d="M 437.5 413 h 0.0"></path><path d="M 628.0 413 h 0.0"></path><path d="M 437.5 413 h 10"></path><g>
<path d="M 447.5 413 h 0.0"></path><path d="M 618.0 413 h 0.0"></path><g>
<path d="M 447.5 413 h 0.0"></path><path d="M 618.0 413 h 0.0"></path><path d="M 447.5 413 h 20"></path><g class="non-terminal ">
<path d="M 467.5 413 h 17.0"></path><path d="M 581.0 413 h 17.0"></path><rect height="22" width="96.5" x="484.5" y="402"></rect><text x="532.75" y="417">CharEmbed</text></g><path d="M 598.0 413 h 20"></path><path d="M 447.5 413 a 10 10 0 0 1 10 10 v 10 a 10 10 0 0 0 10 10"></path><g>
<path d="M 467.5 443 h 0.0"></path><path d="M 598.0 443 h 0.0"></path><g class="terminal ">
<path d="M 467.5 443 h 0.0"></path><path d="M 598.0 443 h 0.0"></path><rect height="22" rx="10" ry="10" width="130.5" x="467.5" y="432"></rect><text x="532.75" y="447">TEXTNOTATTRIB</text></g></g><path d="M 598.0 443 a 10 10 0 0 0 10 -10 v -10 a 10 10 0 0 1 10 -10"></path></g></g><path d="M 618.0 413 h 10"></path><path d="M 447.5 413 a 10 10 0 0 0 -10 10 v 39 a 10 10 0 0 0 10 10"></path><g>
<path d="M 447.5 472 h 170.5"></path></g><path d="M 618.0 472 a 10 10 0 0 0 10 -10 v -39 a 10 10 0 0 0 -10 -10"></path></g><path d="M 628.0 413 h 20"></path></g><path d="M 648.0 413 h 10"></path><path d="M 658.0 413 h 10"></path><g>
<path d="M 668.0 413 h 0.0"></path><path d="M 1294.0 413 h 0.0"></path><path d="M 668.0 413 h 20"></path><g>
<path d="M 688.0 413 h 586.0"></path></g><path d="M 1274.0 413 h 20"></path><path d="M 668.0 413 a 10 10 0 0 1 10 10 v 9 a 10 10 0 0 0 10 10"></path><g>
<path d="M 688.0 442 h 0.0"></path><path d="M 1274.0 442 h 0.0"></path><g>
<path d="M 688.0 442 h 0.0"></path><path d="M 782.0 442 h 0.0"></path><path d="M 688.0 442 h 20"></path><g class="terminal ">
<path d="M 708.0 442 h 4.25"></path><path d="M 757.75 442 h 4.25"></path><rect height="22" rx="10" ry="10" width="45.5" x="712.25" y="431"></rect><text x="735.0" y="446">'|'</text></g><path d="M 762.0 442 h 20"></path><path d="M 688.0 442 a 10 10 0 0 1 10 10 v 10 a 10 10 0 0 0 10 10"></path><g class="terminal altterminal">
<path d="M 708.0 472 h 0.0"></path><path d="M 762.0 472 h 0.0"></path><rect height="22" rx="10" ry="10" width="54.0" x="708.0" y="461"></rect><text x="735.0" y="476">PIPE</text></g><path d="M 762.0 472 a 10 10 0 0 0 10 -10 v -10 a 10 10 0 0 1 10 -10"></path></g><path d="M 782.0 442 h 10"></path><path d="M 792.0 442 h 10"></path><g>
<path d="M 802.0 442 h 0.0"></path><path d="M 1274.0 442 h 0.0"></path><path d="M 802.0 442 h 10"></path><g>
<path d="M 812.0 442 h 0.0"></path><path d="M 1264.0 442 h 0.0"></path><g>
<path d="M 812.0 442 h 0.0"></path><path d="M 1264.0 442 h 0.0"></path><path d="M 812.0 442 h 20"></path><g class="terminal ">
<path d="M 832.0 442 h 157.75"></path><path d="M 1086.25 442 h 157.75"></path><rect height="22" rx="10" ry="10" width="96.5" x="989.75" y="431"></rect><text x="1038.0" y="446">ATTRIBALL</text></g><path d="M 1244.0 442 h 20"></path><path d="M 812.0 442 a 10 10 0 0 1 10 10 v 10 a 10 10 0 0 0 10 10"></path><g>
<path d="M 832.0 472 h 0.0"></path><path d="M 1244.0 472 h 0.0"></path><g class="terminal ">
<path d="M 832.0 472 h 0.0"></path><path d="M 937.0 472 h 0.0"></path><rect height="22" rx="10" ry="10" width="105.0" x="832.0" y="461"></rect><text x="884.5" y="476">ATTRIBNAME</text></g><path d="M 937.0 472 h 10"></path><path d="M 947.0 472 h 10"></path><g class="terminal ">
<path d="M 957.0 472 h 0.0"></path><path d="M 1011.0 472 h 0.0"></path><rect height="22" rx="10" ry="10" width="54.0" x="957.0" y="461"></rect><text x="984.0" y="476">'="'</text></g><path d="M 1011.0 472 h 10"></path><path d="M 1021.0 472 h 10"></path><g class="terminal ">
<path d="M 1031.0 472 h 0.0"></path><path d="M 1136.0 472 h 0.0"></path><rect height="22" rx="10" ry="10" width="105.0" x="1031.0" y="461"></rect><text x="1083.5" y="476">ATTRIBTEXT</text></g><path d="M 1136.0 472 h 10"></path><path d="M 1146.0 472 h 10"></path><g class="terminal ">
<path d="M 1156.0 472 h 0.0"></path><path d="M 1244.0 472 h 0.0"></path><rect height="22" rx="10" ry="10" width="88.0" x="1156.0" y="461"></rect><text x="1200.0" y="476">/"${Hs}/</text></g></g><path d="M 1244.0 472 a 10 10 0 0 0 10 -10 v -10 a 10 10 0 0 1 10 -10"></path></g></g><path d="M 1264.0 442 h 10"></path><path d="M 812.0 442 a 10 10 0 0 0 -10 10 v 39 a 10 10 0 0 0 10 10"></path><g>
<path d="M 812.0 501 h 452.0"></path></g><path d="M 1264.0 501 a 10 10 0 0 0 10 -10 v -39 a 10 10 0 0 0 -10 -10"></path></g></g><path d="M 1274.0 442 a 10 10 0 0 0 10 -10 v -9 a 10 10 0 0 1 10 -10"></path></g><path d="M 1294.0 413 h 10"></path><path d="M 1304.0 413 h 10"></path><g class="terminal ">
<path d="M 1314.0 413 h 0.0"></path><path d="M 1368.0 413 h 0.0"></path><rect height="22" rx="10" ry="10" width="54.0" x="1314.0" y="402"></rect><text x="1341.0" y="417">'\+'</text></g><path d="M 1368.0 413 h 10"></path><path d="M 1378.0 413 h 10"></path><g class="terminal ">
<path d="M 1388.0 413 h 0.0"></path><path d="M 1433.5 413 h 0.0"></path><rect height="22" rx="10" ry="10" width="45.5" x="1388.0" y="402"></rect><text x="1410.75" y="417">⇐ ➌</text></g><path d="M 1433.5 413 h 10"></path><path d="M 1443.5 413 h 10"></path><g class="terminal ">
<path d="M 1453.5 413 h 0.0"></path><path d="M 1499.0 413 h 0.0"></path><rect height="22" rx="10" ry="10" width="45.5" x="1453.5" y="402"></rect><text x="1476.25" y="417">'&#42;'</text></g></g><path d="M 1499.0 413 a 10 10 0 0 0 10 -10 v -220 a 10 10 0 0 1 10 -10"></path><path d="M 50.0 173 a 10 10 0 0 1 10 10 v 337 a 10 10 0 0 0 10 10"></path><g class="non-terminal ">
<path d="M 70.0 530 h 679.0"></path><path d="M 820.0 530 h 679.0"></path><rect height="22" width="71.0" x="749.0" y="519"></rect><text x="784.5" y="534">Figure</text></g><path d="M 1499.0 530 a 10 10 0 0 0 10 -10 v -337 a 10 10 0 0 1 10 -10"></path></g></g><path d="M 1519.0 173 h 10"></path><path d="M 1529.0 173 h 20 m 0 -10 v 20"></path></g></svg>