<svg class="railroad-diagram" height="571" viewBox="0 0 1586.0 571" width="1586.0" xmlns="http://www.w3.org/2000/svg" xmlns:xlink="http://www.w3.org/1999/xlink">
<g transform="translate(.5 .5)">
<style>/* <![CDATA[ */

    svg.railroad-diagram {
        background-color: hsl(30,20%,95%);
    }
    svg.railroad-diagram path {
        stroke-width: 2;
        stroke: black;
        fill: none;
    }
    svg.railroad-diagram text {
        font-size: 12px;
        text-anchor: middle;
        font-family: DejaVu Sans;
    }
    svg.railroad-diagram text.label {
        text-anchor:start;
    }
    svg.railroad-diagram text.comment {
        font-family: DejaVu Sans;
        font-size: 14px;
    }
    svg.railroad-diagram rect{
        stroke-width: 2;
        stroke: black;
        fill: rgb(210, 255, 210);
    }
    svg.railroad-diagram rect.group-box {
        stroke: gray;
        stroke-dasharray: 10 5;
        fill: none;
    }
    .terminal {
        font-family: DejaVu Sans;
    }
    svg.railroad-diagram g.altterminal rect {
        fill: rgb(251, 252, 207)
    }

/* ]]> */
</style><g>
<path d="M 20 163 v 20 m 0 -10 h 20"></path></g><path d="M 40 173 h 10"></path><g>
<path d="M 50 173 h 0.0"></path><path d="M 1536.0 173 h 0.0"></path><g>
<path d="M 50.0 173 h 0.0"></path><path d="M 1536.0 173 h 0.0"></path><path d="M 50.0 173 h 20"></path><g>
<path d="M 70.0 173 h 105.0"></path><path d="M 1411.0 173 h 105.0"></path><g>
<path d="M 175.0 173 h 0.0"></path><g>
<path d="M 175.0 173 h 10.0"></path><path d="M 1014.0 173 h 10.0"></path><g class="terminal ">
<path d="M 185.0 173 h 0.0"></path><path d="M 247.5 173 h 0.0"></path><rect height="22" rx="10" ry="10" width="62.5" x="185.0" y="162"></rect><text x="216.25" y="177">'\\+'</text></g><path d="M 247.5 173 h 10"></path><path d="M 257.5 173 h 10"></path><g>
<path d="M 267.5 173 h 0.0"></path><path d="M 883.0 173 h 0.0"></path><rect class="group-box" height="314" rx="10" ry="10" width="615.5" x="267.5" y="46"></rect><g>
<path d="M 267.5 173 h 10.0"></path><path d="M 873.0 173 h 10.0"></path><g>
<path d="M 277.5 173 h 0.0"></path><path d="M 873.0 173 h 0.0"></path><path d="M 277.5 173 a 10 10 0 0 0 10 -10 v -99 a 10 10 0 0 1 10 -10 h 414.5"></path><path d="M 447.0 352 h 406.0 a 10 10 0 0 0 10 -10 v -159 a 10 10 0 0 1 10 -10"></path><path d="M 277.5 173 h 10"></path><g>
<path d="M 287.5 173 h 10.0"></path><path d="M 417.0 173 h 10.0"></path><path d="M 297.5 173 a 10 10 0 0 0 10 -10 v -10 a 10 10 0 0 1 10 -10"></path><g class="terminal ">
<path d="M 317.5 143 h 12.75"></path><path d="M 384.25 143 h 12.75"></path><rect height="22" rx="10" ry="10" width="54.0" x="330.25" y="132"></rect><text x="357.25" y="147">"qs"</text></g><path d="M 397.0 143 a 10 10 0 0 1 10 10 v 10 a 10 10 0 0 0 10 10"></path><path d="M 297.5 173 a 10 10 0 0 0 10 -10 v -40 a 10 10 0 0 1 10 -10"></path><g class="terminal ">
<path d="M 317.5 113 h 8.5"></path><path d="M 388.5 113 h 8.5"></path><rect height="22" rx="10" ry="10" width="62.5" x="326.0" y="102"></rect><text x="357.25" y="117">"qac"</text></g><path d="M 397.0 113 a 10 10 0 0 1 10 10 v 40 a 10 10 0 0 0 10 10"></path><path d="M 297.5 173 a 10 10 0 0 0 10 -10 v -70 a 10 10 0 0 1 10 -10"></path><g class="terminal ">
<path d="M 317.5 83 h 12.75"></path><path d="M 384.25 83 h 12.75"></path><rect height="22" rx="10" ry="10" width="54.0" x="330.25" y="72"></rect><text x="357.25" y="87">"vp"</text></g><path d="M 397.0 83 a 10 10 0 0 1 10 10 v 70 a 10 10 0 0 0 10 10"></path><path d="M 297.5 173 h 20"></path><g class="terminal ">
<path d="M 317.5 173 h 8.5"></path><path d="M 388.5 173 h 8.5"></path><rect height="22" rx="10" ry="10" width="62.5" x="326.0" y="162"></rect><text x="357.25" y="177">"add"</text></g><path d="M 397.0 173 h 20"></path><path d="M 297.5 173 a 10 10 0 0 1 10 10 v 10 a 10 10 0 0 0 10 10"></path><g class="terminal ">
<path d="M 317.5 203 h 0.0"></path><path d="M 397.0 203 h 0.0"></path><rect height="22" rx="10" ry="10" width="79.5" x="317.5" y="192"></rect><text x="357.25" y="207">"addpn"</text></g><path d="M 397.0 203 a 10 10 0 0 0 10 -10 v -10 a 10 10 0 0 1 10 -10"></path><path d="M 297.5 173 a 10 10 0 0 1 10 10 v 40 a 10 10 0 0 0 10 10"></path><g class="terminal ">
<path d="M 317.5 233 h 12.75"></path><path d="M 384.25 233 h 12.75"></path><rect height="22" rx="10" ry="10" width="54.0" x="330.25" y="222"></rect><text x="357.25" y="237">"bk"</text></g><path d="M 397.0 233 a 10 10 0 0 0 10 -10 v -40 a 10 10 0 0 1 10 -10"></path><path d="M 297.5 173 a 10 10 0 0 1 10 10 v 70 a 10 10 0 0 0 10 10"></path><g class="terminal ">
<path d="M 317.5 263 h 12.75"></path><path d="M 384.25 263 h 12.75"></path><rect height="22" rx="10" ry="10" width="54.0" x="330.25" y="252"></rect><text x="357.25" y="267">"dc"</text></g><path d="M 397.0 263 a 10 10 0 0 0 10 -10 v -70 a 10 10 0 0 1 10 -10"></path><path d="M 297.5 173 a 10 10 0 0 1 10 10 v 100 a 10 10 0 0 0 10 10"></path><g class="terminal ">
<path d="M 317.5 293 h 8.5"></path><path d="M 388.5 293 h 8.5"></path><rect height="22" rx="10" ry="10" width="62.5" x="326.0" y="282"></rect><text x="357.25" y="297">"efm"</text></g><path d="M 397.0 293 a 10 10 0 0 0 10 -10 v -100 a 10 10 0 0 1 10 -10"></path><path d="M 297.5 173 a 10 10 0 0 1 10 10 v 130 a 10 10 0 0 0 10 10"></path><g class="terminal ">
<path d="M 317.5 323 h 12.75"></path><path d="M 384.25 323 h 12.75"></path><rect height="22" rx="10" ry="10" width="54.0" x="330.25" y="312"></rect><text x="357.25" y="327">"fm"</text></g><path d="M 397.0 323 a 10 10 0 0 0 10 -10 v -130 a 10 10 0 0 1 10 -10"></path></g><path d="M 427.0 173 a 10 10 0 0 1 10 10 v 159 a 10 10 0 0 0 10 10"></path><path d="M 427.0 54 a 10 10 0 0 1 10 10 v 99 a 10 10 0 0 0 10 10"></path><g>
<path d="M 447.0 173 h 10.0"></path><path d="M 559.5 173 h 10.0"></path><path d="M 457.0 173 a 10 10 0 0 0 10 -10 v -10 a 10 10 0 0 1 10 -10"></path><g class="terminal ">
<path d="M 477.0 143 h 0.0"></path><path d="M 539.5 143 h 0.0"></path><rect height="22" rx="10" ry="10" width="62.5" x="477.0" y="132"></rect><text x="508.25" y="147">"ndx"</text></g><path d="M 539.5 143 a 10 10 0 0 1 10 10 v 10 a 10 10 0 0 0 10 10"></path><path d="M 457.0 173 a 10 10 0 0 0 10 -10 v -40 a 10 10 0 0 1 10 -10"></path><g class="terminal ">
<path d="M 477.0 113 h 4.25"></path><path d="M 535.25 113 h 4.25"></path><rect height="22" rx="10" ry="10" width="54.0" x="481.25" y="102"></rect><text x="508.25" y="117">"nd"</text></g><path d="M 539.5 113 a 10 10 0 0 1 10 10 v 40 a 10 10 0 0 0 10 10"></path><path d="M 457.0 173 a 10 10 0 0 0 10 -10 v -70 a 10 10 0 0 1 10 -10"></path><g class="terminal ">
<path d="M 477.0 83 h 8.5"></path><path d="M 531.0 83 h 8.5"></path><rect height="22" rx="10" ry="10" width="45.5" x="485.5" y="72"></rect><text x="508.25" y="87">"k"</text></g><path d="M 539.5 83 a 10 10 0 0 1 10 10 v 70 a 10 10 0 0 0 10 10"></path><path d="M 457.0 173 h 20"></path><g class="terminal ">
<path d="M 477.0 173 h 0.0"></path><path d="M 539.5 173 h 0.0"></path><rect height="22" rx="10" ry="10" width="62.5" x="477.0" y="162"></rect><text x="508.25" y="177">"ord"</text></g><path d="M 539.5 173 h 20"></path><path d="M 457.0 173 a 10 10 0 0 1 10 10 v 10 a 10 10 0 0 0 10 10"></path><g class="terminal ">
<path d="M 477.0 203 h 0.0"></path><path d="M 539.5 203 h 0.0"></path><rect height="22" rx="10" ry="10" width="62.5" x="477.0" y="192"></rect><text x="508.25" y="207">"png"</text></g><path d="M 539.5 203 a 10 10 0 0 0 10 -10 v -10 a 10 10 0 0 1 10 -10"></path><path d="M 457.0 173 a 10 10 0 0 1 10 10 v 40 a 10 10 0 0 0 10 10"></path><g class="terminal ">
<path d="M 477.0 233 h 4.25"></path><path d="M 535.25 233 h 4.25"></path><rect height="22" rx="10" ry="10" width="54.0" x="481.25" y="222"></rect><text x="508.25" y="237">"pn"</text></g><path d="M 539.5 233 a 10 10 0 0 0 10 -10 v -40 a 10 10 0 0 1 10 -10"></path><path d="M 457.0 173 a 10 10 0 0 1 10 10 v 70 a 10 10 0 0 0 10 10"></path><g class="terminal ">
<path d="M 477.0 263 h 0.0"></path><path d="M 539.5 263 h 0.0"></path><rect height="22" rx="10" ry="10" width="62.5" x="477.0" y="252"></rect><text x="508.25" y="267">"pro"</text></g><path d="M 539.5 263 a 10 10 0 0 0 10 -10 v -70 a 10 10 0 0 1 10 -10"></path><path d="M 457.0 173 a 10 10 0 0 1 10 10 v 100 a 10 10 0 0 0 10 10"></path><g class="terminal ">
<path d="M 477.0 293 h 4.25"></path><path d="M 535.25 293 h 4.25"></path><rect height="22" rx="10" ry="10" width="54.0" x="481.25" y="282"></rect><text x="508.25" y="297">"qt"</text></g><path d="M 539.5 293 a 10 10 0 0 0 10 -10 v -100 a 10 10 0 0 1 10 -10"></path><path d="M 457.0 173 a 10 10 0 0 1 10 10 v 130 a 10 10 0 0 0 10 10"></path><g class="terminal ">
<path d="M 477.0 323 h 4.25"></path><path d="M 535.25 323 h 4.25"></path><rect height="22" rx="10" ry="10" width="54.0" x="481.25" y="312"></rect><text x="508.25" y="327">"rq"</text></g><path d="M 539.5 323 a 10 10 0 0 0 10 -10 v -130 a 10 10 0 0 1 10 -10"></path></g><path d="M 569.5 173 a 10 10 0 0 1 10 10 v 159 a 10 10 0 0 0 10 10"></path><path d="M 569.5 54 a 10 10 0 0 1 10 10 v 99 a 10 10 0 0 0 10 10"></path><g>
<path d="M 589.5 173 h 10.0"></path><path d="M 702.0 173 h 10.0"></path><path d="M 599.5 173 a 10 10 0 0 0 10 -10 v -10 a 10 10 0 0 1 10 -10"></path><g class="terminal ">
<path d="M 619.5 143 h 4.25"></path><path d="M 677.75 143 h 4.25"></path><rect height="22" rx="10" ry="10" width="54.0" x="623.75" y="132"></rect><text x="650.75" y="147">"tl"</text></g><path d="M 682.0 143 a 10 10 0 0 1 10 10 v 10 a 10 10 0 0 0 10 10"></path><path d="M 599.5 173 a 10 10 0 0 0 10 -10 v -40 a 10 10 0 0 1 10 -10"></path><g class="terminal ">
<path d="M 619.5 113 h 0.0"></path><path d="M 682.0 113 h 0.0"></path><rect height="22" rx="10" ry="10" width="62.5" x="619.5" y="102"></rect><text x="650.75" y="117">"sls"</text></g><path d="M 682.0 113 a 10 10 0 0 1 10 10 v 40 a 10 10 0 0 0 10 10"></path><path d="M 599.5 173 a 10 10 0 0 0 10 -10 v -70 a 10 10 0 0 1 10 -10"></path><g class="terminal ">
<path d="M 619.5 83 h 0.0"></path><path d="M 682.0 83 h 0.0"></path><rect height="22" rx="10" ry="10" width="62.5" x="619.5" y="72"></rect><text x="650.75" y="87">"sig"</text></g><path d="M 682.0 83 a 10 10 0 0 1 10 10 v 70 a 10 10 0 0 0 10 10"></path><path d="M 599.5 173 h 20"></path><g class="terminal ">
<path d="M 619.5 173 h 4.25"></path><path d="M 677.75 173 h 4.25"></path><rect height="22" rx="10" ry="10" width="54.0" x="623.75" y="162"></rect><text x="650.75" y="177">"wg"</text></g><path d="M 682.0 173 h 20"></path><path d="M 599.5 173 a 10 10 0 0 1 10 10 v 10 a 10 10 0 0 0 10 10"></path><g class="terminal ">
<path d="M 619.5 203 h 4.25"></path><path d="M 677.75 203 h 4.25"></path><rect height="22" rx="10" ry="10" width="54.0" x="623.75" y="192"></rect><text x="650.75" y="207">"wh"</text></g><path d="M 682.0 203 a 10 10 0 0 0 10 -10 v -10 a 10 10 0 0 1 10 -10"></path><path d="M 599.5 173 a 10 10 0 0 1 10 10 v 40 a 10 10 0 0 0 10 10"></path><g class="terminal ">
<path d="M 619.5 233 h 4.25"></path><path d="M 677.75 233 h 4.25"></path><rect height="22" rx="10" ry="10" width="54.0" x="623.75" y="222"></rect><text x="650.75" y="237">"wa"</text></g><path d="M 682.0 233 a 10 10 0 0 0 10 -10 v -40 a 10 10 0 0 1 10 -10"></path><path d="M 599.5 173 a 10 10 0 0 1 10 10 v 70 a 10 10 0 0 0 10 10"></path><g class="terminal ">
<path d="M 619.5 263 h 4.25"></path><path d="M 677.75 263 h 4.25"></path><rect height="22" rx="10" ry="10" width="54.0" x="623.75" y="252"></rect><text x="650.75" y="267">"wj"</text></g><path d="M 682.0 263 a 10 10 0 0 0 10 -10 v -70 a 10 10 0 0 1 10 -10"></path><path d="M 599.5 173 a 10 10 0 0 1 10 10 v 100 a 10 10 0 0 0 10 10"></path><g class="terminal ">
<path d="M 619.5 293 h 0.0"></path><path d="M 682.0 293 h 0.0"></path><rect height="22" rx="10" ry="10" width="62.5" x="619.5" y="282"></rect><text x="650.75" y="297">"jmp"</text></g><path d="M 682.0 293 a 10 10 0 0 0 10 -10 v -100 a 10 10 0 0 1 10 -10"></path><path d="M 599.5 173 a 10 10 0 0 1 10 10 v 130 a 10 10 0 0 0 10 10"></path><g class="terminal ">
<path d="M 619.5 323 h 4.25"></path><path d="M 677.75 323 h 4.25"></path><rect height="22" rx="10" ry="10" width="54.0" x="623.75" y="312"></rect><text x="650.75" y="327">"no"</text></g><path d="M 682.0 323 a 10 10 0 0 0 10 -10 v -130 a 10 10 0 0 1 10 -10"></path></g><path d="M 712.0 173 a 10 10 0 0 1 10 10 v 159 a 10 10 0 0 0 10 10"></path><path d="M 712.0 54 a 10 10 0 0 1 10 10 v 99 a 10 10 0 0 0 10 10"></path><g>
<path d="M 732.0 173 h 10.0"></path><path d="M 853.0 173 h 10.0"></path><path d="M 742.0 173 a 10 10 0 0 0 10 -10 v -10 a 10 10 0 0 1 10 -10"></path><g class="terminal ">
<path d="M 762.0 143 h 8.5"></path><path d="M 824.5 143 h 8.5"></path><rect height="22" rx="10" ry="10" width="54.0" x="770.5" y="132"></rect><text x="797.5" y="147">"bd"</text></g><path d="M 833.0 143 a 10 10 0 0 1 10 10 v 10 a 10 10 0 0 0 10 10"></path><path d="M 742.0 173 a 10 10 0 0 0 10 -10 v -40 a 10 10 0 0 1 10 -10"></path><g class="terminal ">
<path d="M 762.0 113 h 0.0"></path><path d="M 833.0 113 h 0.0"></path><rect height="22" rx="10" ry="10" width="71.0" x="762.0" y="102"></rect><text x="797.5" y="117">"bdit"</text></g><path d="M 833.0 113 a 10 10 0 0 1 10 10 v 40 a 10 10 0 0 0 10 10"></path><path d="M 742.0 173 a 10 10 0 0 0 10 -10 v -70 a 10 10 0 0 1 10 -10"></path><g class="terminal ">
<path d="M 762.0 83 h 8.5"></path><path d="M 824.5 83 h 8.5"></path><rect height="22" rx="10" ry="10" width="54.0" x="770.5" y="72"></rect><text x="797.5" y="87">"it"</text></g><path d="M 833.0 83 a 10 10 0 0 1 10 10 v 70 a 10 10 0 0 0 10 10"></path><path d="M 742.0 173 h 20"></path><g class="terminal ">
<path d="M 762.0 173 h 8.5"></path><path d="M 824.5 173 h 8.5"></path><rect height="22" rx="10" ry="10" width="54.0" x="770.5" y="162"></rect><text x="797.5" y="177">"em"</text></g><path d="M 833.0 173 h 20"></path><path d="M 742.0 173 a 10 10 0 0 1 10 10 v 10 a 10 10 0 0 0 10 10"></path><g class="terminal ">
<path d="M 762.0 203 h 8.5"></path><path d="M 824.5 203 h 8.5"></path><rect height="22" rx="10" ry="10" width="54.0" x="770.5" y="192"></rect><text x="797.5" y="207">"sc"</text></g><path d="M 833.0 203 a 10 10 0 0 0 10 -10 v -10 a 10 10 0 0 1 10 -10"></path><path d="M 742.0 173 a 10 10 0 0 1 10 10 v 40 a 10 10 0 0 0 10 10"></path><g class="terminal ">
<path d="M 762.0 233 h 4.25"></path><path d="M 828.75 233 h 4.25"></path><rect height="22" rx="10" ry="10" width="62.5" x="766.25" y="222"></rect><text x="797.5" y="237">"sup"</text></g><path d="M 833.0 233 a 10 10 0 0 0 10 -10 v -40 a 10 10 0 0 1 10 -10"></path><path d="M 742.0 173 a 10 10 0 0 1 10 10 v 70 a 10 10 0 0 0 10 10"></path><g class="terminal ">
<path d="M 762.0 263 h 8.5"></path><path d="M 824.5 263 h 8.5"></path><rect height="22" rx="10" ry="10" width="54.0" x="770.5" y="252"></rect><text x="797.5" y="267">"xt"</text></g><path d="M 833.0 263 a 10 10 0 0 0 10 -10 v -70 a 10 10 0 0 1 10 -10"></path></g><path d="M 863.0 173 h 10"></path></g></g><g class="non-terminal ">
<path d="M 267.5 38 h 0.0"></path><path d="M 284.5 38 h 0.0"></path><text class="comment" x="276.0" y="43">➋</text></g></g><path d="M 883.0 173 h 10"></path><path d="M 893.0 173 h 10"></path><g>
<path d="M 903.0 173 h 0.0"></path><path d="M 1014.0 173 h 0.0"></path><path d="M 903.0 173 h 20"></path><g class="terminal ">
<path d="M 923.0 173 h 12.75"></path><path d="M 981.25 173 h 12.75"></path><rect height="22" rx="10" ry="10" width="45.5" x="935.75" y="162"></rect><text x="958.5" y="177">' '</text></g><path d="M 994.0 173 h 20"></path><path d="M 903.0 173 a 10 10 0 0 1 10 10 v 10 a 10 10 0 0 0 10 10"></path><g class="terminal altterminal">
<path d="M 923.0 203 h 0.0"></path><path d="M 994.0 203 h 0.0"></path><rect height="22" rx="10" ry="10" width="71.0" x="923.0" y="192"></rect><text x="958.5" y="207">TAGEND</text></g><path d="M 994.0 203 a 10 10 0 0 0 10 -10 v -10 a 10 10 0 0 1 10 -10"></path></g></g><path d="M 1024.0 173 h 0.0"></path></g><path d="M 1024.0 173 h 10"></path><path d="M 1034.0 173 h 10"></path><g class="non-terminal ">
<path d="M 1044.0 173 h 0.0"></path><path d="M 1157.5 173 h 0.0"></path><rect height="22" width="113.5" x="1044.0" y="162"></rect><text x="1100.75" y="177">CharContent</text></g><path d="M 1157.5 173 h 10"></path><path d="M 1167.5 173 h 10"></path><g>
<path d="M 1177.5 173 h 0.0"></path><path d="M 1411.0 173 h 0.0"></path><path d="M 1177.5 173 h 20"></path><g>
<path d="M 1197.5 173 h 193.5"></path></g><path d="M 1391.0 173 h 20"></path><path d="M 1177.5 173 a 10 10 0 0 1 10 10 v 0 a 10 10 0 0 0 10 10"></path><g>
<path d="M 1197.5 193 h 0.0"></path><path d="M 1391.0 193 h 0.0"></path><g class="terminal ">
<path d="M 1197.5 193 h 0.0"></path><path d="M 1260.0 193 h 0.0"></path><rect height="22" rx="10" ry="10" width="62.5" x="1197.5" y="182"></rect><text x="1228.75" y="197">'\\+'</text></g><path d="M 1260.0 193 h 10"></path><path d="M 1270.0 193 h 10"></path><g class="terminal ">
<path d="M 1280.0 193 h 0.0"></path><path d="M 1325.5 193 h 0.0"></path><rect height="22" rx="10" ry="10" width="45.5" x="1280.0" y="182"></rect><text x="1302.75" y="197">⇐ ➋</text></g><path d="M 1325.5 193 h 10"></path><path d="M 1335.5 193 h 10"></path><g class="terminal ">
<path d="M 1345.5 193 h 0.0"></path><path d="M 1391.0 193 h 0.0"></path><rect height="22" rx="10" ry="10" width="45.5" x="1345.5" y="182"></rect><text x="1368.25" y="197">'&#42;'</text></g></g><path d="M 1391.0 193 a 10 10 0 0 0 10 -10 v 0 a 10 10 0 0 1 10 -10"></path></g></g><path d="M 1516.0 173 h 20"></path><path d="M 50.0 173 a 10 10 0 0 1 10 10 v 220 a 10 10 0 0 0 10 10"></path><g>
<path d="M 70.0 413 h 0.0"></path><path d="M 1516.0 413 h 0.0"></path><g class="terminal ">
<path d="M 70.0 413 h 0.0"></path><path d="M 132.5 413 h 0.0"></path><rect height="22" rx="10" ry="10" width="62.5" x="70.0" y="402"></rect><text x="101.25" y="417">'\\+'</text></g><path d="M 132.5 413 h 10"></path><path d="M 142.5 413 h 10"></path><g>
<path d="M 152.5 413 h 0.0"></path><path d="M 275.0 413 h 0.0"></path><rect class="group-box" height="118" rx="10" ry="10" width="122.5" x="152.5" y="384"></rect><g>
<path d="M 152.5 413 h 10.0"></path><path d="M 265.0 413 h 10.0"></path><g>
<path d="M 162.5 413 h 0.0"></path><path d="M 265.0 413 h 0.0"></path><path d="M 162.5 413 h 20"></path><g class="terminal ">
<path d="M 182.5 413 h 8.5"></path><path d="M 236.5 413 h 8.5"></path><rect height="22" rx="10" ry="10" width="45.5" x="191.0" y="402"></rect><text x="213.75" y="417">"w"</text></g><path d="M 245.0 413 h 20"></path><path d="M 162.5 413 a 10 10 0 0 1 10 10 v 10 a 10 10 0 0 0 10 10"></path><g class="terminal ">
<path d="M 182.5 443 h 4.25"></path><path d="M 240.75 443 h 4.25"></path><rect height="22" rx="10" ry="10" width="54.0" x="186.75" y="432"></rect><text x="213.75" y="447">"rb"</text></g><path d="M 245.0 443 a 10 10 0 0 0 10 -10 v -10 a 10 10 0 0 1 10 -10"></path><path d="M 162.5 413 a 10 10 0 0 1 10 10 v 40 a 10 10 0 0 0 10 10"></path><g class="terminal ">
<path d="M 182.5 473 h 0.0"></path><path d="M 245.0 473 h 0.0"></path><rect height="22" rx="10" ry="10" width="62.5" x="182.5" y="462"></rect><text x="213.75" y="477">"jmp"</text></g><path d="M 245.0 473 a 10 10 0 0 0 10 -10 v -40 a 10 10 0 0 1 10 -10"></path></g></g><g class="non-terminal ">
<path d="M 152.5 376 h 0.0"></path><path d="M 169.5 376 h 0.0"></path><text class="comment" x="161.0" y="381">➌</text></g></g><path d="M 275.0 413 h 10"></path><path d="M 285.0 413 h 10"></path><g>
<path d="M 295.0 413 h 0.0"></path><path d="M 406.0 413 h 0.0"></path><path d="M 295.0 413 h 20"></path><g class="terminal ">
<path d="M 315.0 413 h 12.75"></path><path d="M 373.25 413 h 12.75"></path><rect height="22" rx="10" ry="10" width="45.5" x="327.75" y="402"></rect><text x="350.5" y="417">' '</text></g><path d="M 386.0 413 h 20"></path><path d="M 295.0 413 a 10 10 0 0 1 10 10 v 10 a 10 10 0 0 0 10 10"></path><g class="terminal altterminal">
<path d="M 315.0 443 h 0.0"></path><path d="M 386.0 443 h 0.0"></path><rect height="22" rx="10" ry="10" width="71.0" x="315.0" y="432"></rect><text x="350.5" y="447">TAGEND</text></g><path d="M 386.0 443 a 10 10 0 0 0 10 -10 v -10 a 10 10 0 0 1 10 -10"></path></g><path d="M 406.0 413 h 10"></path><path d="M 416.0 413 h 10"></path><g>
<path d="M 426.0 413 h 0.0"></path><path d="M 656.5 413 h 0.0"></path><path d="M 426.0 413 a 10 10 0 0 0 10 -10 v -9 a 10 10 0 0 1 10 -10"></path><g>
<path d="M 446.0 384 h 190.5"></path></g><path d="M 636.5 384 a 10 10 0 0 1 10 10 v 9 a 10 10 0 0 0 10 10"></path><path d="M 426.0 413 h 20"></path><g>
<path d="M 446.0 413 h 0.0"></path><path d="M 636.5 413 h 0.0"></path><path d="M 446.0 413 h 10"></path><g>
<path d="M 456.0 413 h 0.0"></path><path d="M 626.5 413 h 0.0"></path><g>
<path d="M 456.0 413 h 0.0"></path><path d="M 626.5 413 h 0.0"></path><path d="M 456.0 413 h 20"></path><g class="non-terminal ">
<path d="M 476.0 413 h 17.0"></path><path d="M 589.5 413 h 17.0"></path><rect height="22" width="96.5" x="493.0" y="402"></rect><text x="541.25" y="417">CharEmbed</text></g><path d="M 606.5 413 h 20"></path><path d="M 456.0 413 a 10 10 0 0 1 10 10 v 10 a 10 10 0 0 0 10 10"></path><g>
<path d="M 476.0 443 h 0.0"></path><path d="M 606.5 443 h 0.0"></path><g class="terminal ">
<path d="M 476.0 443 h 0.0"></path><path d="M 606.5 443 h 0.0"></path><rect height="22" rx="10" ry="10" width="130.5" x="476.0" y="432"></rect><text x="541.25" y="447">TEXTNOTATTRIB</text></g></g><path d="M 606.5 443 a 10 10 0 0 0 10 -10 v -10 a 10 10 0 0 1 10 -10"></path></g></g><path d="M 626.5 413 h 10"></path><path d="M 456.0 413 a 10 10 0 0 0 -10 10 v 39 a 10 10 0 0 0 10 10"></path><g>
<path d="M 456.0 472 h 170.5"></path></g><path d="M 626.5 472 a 10 10 0 0 0 10 -10 v -39 a 10 10 0 0 0 -10 -10"></path></g><path d="M 636.5 413 h 20"></path></g><path d="M 656.5 413 h 10"></path><path d="M 666.5 413 h 10"></path><g>
<path d="M 676.5 413 h 0.0"></path><path d="M 1302.5 413 h 0.0"></path><path d="M 676.5 413 h 20"></path><g>
<path d="M 696.5 413 h 586.0"></path></g><path d="M 1282.5 413 h 20"></path><path d="M 676.5 413 a 10 10 0 0 1 10 10 v 9 a 10 10 0 0 0 10 10"></path><g>
<path d="M 696.5 442 h 0.0"></path><path d="M 1282.5 442 h 0.0"></path><g>
<path d="M 696.5 442 h 0.0"></path><path d="M 790.5 442 h 0.0"></path><path d="M 696.5 442 h 20"></path><g class="terminal ">
<path d="M 716.5 442 h 4.25"></path><path d="M 766.25 442 h 4.25"></path><rect height="22" rx="10" ry="10" width="45.5" x="720.75" y="431"></rect><text x="743.5" y="446">'|'</text></g><path d="M 770.5 442 h 20"></path><path d="M 696.5 442 a 10 10 0 0 1 10 10 v 10 a 10 10 0 0 0 10 10"></path><g class="terminal altterminal">
<path d="M 716.5 472 h 0.0"></path><path d="M 770.5 472 h 0.0"></path><rect height="22" rx="10" ry="10" width="54.0" x="716.5" y="461"></rect><text x="743.5" y="476">PIPE</text></g><path d="M 770.5 472 a 10 10 0 0 0 10 -10 v -10 a 10 10 0 0 1 10 -10"></path></g><path d="M 790.5 442 h 10"></path><path d="M 800.5 442 h 10"></path><g>
<path d="M 810.5 442 h 0.0"></path><path d="M 1282.5 442 h 0.0"></path><path d="M 810.5 442 h 10"></path><g>
<path d="M 820.5 442 h 0.0"></path><path d="M 1272.5 442 h 0.0"></path><g>
<path d="M 820.5 442 h 0.0"></path><path d="M 1272.5 442 h 0.0"></path><path d="M 820.5 442 h 20"></path><g class="terminal ">
<path d="M 840.5 442 h 157.75"></path><path d="M 1094.75 442 h 157.75"></path><rect height="22" rx="10" ry="10" width="96.5" x="998.25" y="431"></rect><text x="1046.5" y="446">ATTRIBALL</text></g><path d="M 1252.5 442 h 20"></path><path d="M 820.5 442 a 10 10 0 0 1 10 10 v 10 a 10 10 0 0 0 10 10"></path><g>
<path d="M 840.5 472 h 0.0"></path><path d="M 1252.5 472 h 0.0"></path><g class="terminal ">
<path d="M 840.5 472 h 0.0"></path><path d="M 945.5 472 h 0.0"></path><rect height="22" rx="10" ry="10" width="105.0" x="840.5" y="461"></rect><text x="893.0" y="476">ATTRIBNAME</text></g><path d="M 945.5 472 h 10"></path><path d="M 955.5 472 h 10"></path><g class="terminal ">
<path d="M 965.5 472 h 0.0"></path><path d="M 1019.5 472 h 0.0"></path><rect height="22" rx="10" ry="10" width="54.0" x="965.5" y="461"></rect><text x="992.5" y="476">'="'</text></g><path d="M 1019.5 472 h 10"></path><path d="M 1029.5 472 h 10"></path><g class="terminal ">
<path d="M 1039.5 472 h 0.0"></path><path d="M 1144.5 472 h 0.0"></path><rect height="22" rx="10" ry="10" width="105.0" x="1039.5" y="461"></rect><text x="1092.0" y="476">ATTRIBTEXT</text></g><path d="M 1144.5 472 h 10"></path><path d="M 1154.5 472 h 10"></path><g class="terminal ">
<path d="M 1164.5 472 h 0.0"></path><path d="M 1252.5 472 h 0.0"></path><rect height="22" rx="10" ry="10" width="88.0" x="1164.5" y="461"></rect><text x="1208.5" y="476">/"${Hs}/</text></g></g><path d="M 1252.5 472 a 10 10 0 0 0 10 -10 v -10 a 10 10 0 0 1 10 -10"></path></g></g><path d="M 1272.5 442 h 10"></path><path d="M 820.5 442 a 10 10 0 0 0 -10 10 v 39 a 10 10 0 0 0 10 10"></path><g>
<path d="M 820.5 501 h 452.0"></path></g><path d="M 1272.5 501 a 10 10 0 0 0 10 -10 v -39 a 10 10 0 0 0 -10 -10"></path></g></g><path d="M 1282.5 442 a 10 10 0 0 0 10 -10 v -9 a 10 10 0 0 1 10 -10"></path></g><path d="M 1302.5 413 h 10"></path><path d="M 1312.5 413 h 10"></path><g class="terminal ">
<path d="M 1322.5 413 h 0.0"></path><path d="M 1385.0 413 h 0.0"></path><rect height="22" rx="10" ry="10" width="62.5" x="1322.5" y="402"></rect><text x="1353.75" y="417">'\\+'</text></g><path d="M 1385.0 413 h 10"></path><path d="M 1395.0 413 h 10"></path><g class="terminal ">
<path d="M 1405.0 413 h 0.0"></path><path d="M 1450.5 413 h 0.0"></path><rect height="22" rx="10" ry="10" width="45.5" x="1405.0" y="402"></rect><text x="1427.75" y="417">⇐ ➌</text></g><path d="M 1450.5 413 h 10"></path><path d="M 1460.5 413 h 10"></path><g class="terminal ">
<path d="M 1470.5 413 h 0.0"></path><path d="M 1516.0 413 h 0.0"></path><rect height="22" rx="10" ry="10" width="45.5" x="1470.5" y="402"></rect><text x="1493.25" y="417">'&#42;'</text></g></g><path d="M 1516.0 413 a 10 10 0 0 0 10 -10 v -220 a 10 10 0 0 1 10 -10"></path><path d="M 50.0 173 a 10 10 0 0 1 10 10 v 337 a 10 10 0 0 0 10 10"></path><g class="non-terminal ">
<path d="M 70.0 530 h 687.5"></path><path d="M 828.5 530 h 687.5"></path><rect height="22" width="71.0" x="757.5" y="519"></rect><text x="793.0" y="534">Figure</text></g><path d="M 1516.0 530 a 10 10 0 0 0 10 -10 v -337 a 10 10 0 0 1 10 -10"></path></g></g><path d="M 1536.0 173 h 10"></path><path d="M 1546.0 173 h 20 m 0 -10 v 20"></path></g></svg>