<svg class="railroad-diagram" height="766" viewBox="0 0 899.0 766" width="899.0" xmlns="http://www.w3.org/2000/svg" xmlns:xlink="http://www.w3.org/1999/xlink">
<g transform="translate(.5 .5)">
<style>/* <![CDATA[ */

    svg.railroad-diagram {
        background-color: hsl(30,20%,95%);
    }
    svg.railroad-diagram path {
        stroke-width: 2;
        stroke: black;
        fill: none;
    }
    svg.railroad-diagram text {
        font-size: 12px;
        text-anchor: middle;
        font-family: DejaVu Sans;
    }
    svg.railroad-diagram text.label {
        text-anchor:start;
    }
    svg.railroad-diagram text.comment {
        font-family: DejaVu Sans;
        font-size: 14px;
    }
    svg.railroad-diagram rect{
        stroke-width: 2;
        stroke: black;
        fill: rgb(210, 210, 255);
    }
    svg.railroad-diagram rect.group-box {
        stroke: gray;
        stroke-dasharray: 10 5;
        fill: none;
    }
    .terminal {
        font-family: DejaVu Sans;
    }
    svg.railroad-diagram g.altterminal rect {
        fill: rgb(251, 252, 207)
    }

/* ]]> */
</style><g>
<path d="M 20 467 v 20 m 0 -10 h 20"></path></g><path d="M 40 477 h 10"></path><g>
<path d="M 50 477 h 0.0"></path><path d="M 849.0 477 h 0.0"></path><g>
<path d="M 50.0 477 h 0.0"></path><path d="M 849.0 477 h 0.0"></path><g class="terminal ">
<path d="M 50.0 477 h 0.0"></path><path d="M 121.0 477 h 0.0"></path><rect height="22" rx="10" ry="10" width="71.0" x="50.0" y="466"></rect><text x="85.5" y="481">&#60;char></text></g><path d="M 121.0 477 h 10"></path><path d="M 131.0 477 h 10"></path><g>
<path d="M 141.0 477 h 0.0"></path><path d="M 849.0 477 h 0.0"></path><path d="M 141.0 477 a 10 10 0 0 0 10 -10 v -278 a 10 10 0 0 1 10 -10"></path><g>
<path d="M 161.0 179 h 0.0"></path><path d="M 829.0 179 h 0.0"></path><g class="terminal ">
<path d="M 161.0 179 h 0.0"></path><path d="M 232.0 179 h 0.0"></path><rect height="22" rx="10" ry="10" width="71.0" x="161.0" y="168"></rect><text x="196.5" y="183">@style</text></g><path d="M 232.0 179 h 10"></path><g>
<path d="M 242.0 179 h 0.0"></path><path d="M 829.0 179 h 0.0"></path><path d="M 242.0 179 a 10 10 0 0 0 10 -10 v -99 a 10 10 0 0 1 10 -10 h 363.0"></path><path d="M 242.0 179 h 10"></path><g>
<path d="M 252.0 179 h 0.0"></path><path d="M 252.0 179 a 10 10 0 0 0 10 -10 v -10 a 10 10 0 0 1 10 -10"></path><g class="terminal ">
<path d="M 272.0 149 h 0.0"></path><path d="M 326.0 149 h 0.0"></path><rect height="22" rx="10" ry="10" width="54.0" x="272.0" y="138"></rect><text x="299.0" y="153">"qs"</text></g><path d="M 252.0 179 a 10 10 0 0 0 10 -10 v -40 a 10 10 0 0 1 10 -10"></path><g class="terminal ">
<path d="M 272.0 119 h 0.0"></path><path d="M 334.5 119 h 0.0"></path><rect height="22" rx="10" ry="10" width="62.5" x="272.0" y="108"></rect><text x="303.25" y="123">"qac"</text></g><path d="M 252.0 179 a 10 10 0 0 0 10 -10 v -70 a 10 10 0 0 1 10 -10"></path><g class="terminal ">
<path d="M 272.0 89 h 0.0"></path><path d="M 326.0 89 h 0.0"></path><rect height="22" rx="10" ry="10" width="54.0" x="272.0" y="78"></rect><text x="299.0" y="93">"vp"</text></g><path d="M 252.0 179 h 20"></path><g class="terminal ">
<path d="M 272.0 179 h 0.0"></path><path d="M 334.5 179 h 0.0"></path><rect height="22" rx="10" ry="10" width="62.5" x="272.0" y="168"></rect><text x="303.25" y="183">"add"</text></g><path d="M 252.0 179 a 10 10 0 0 1 10 10 v 10 a 10 10 0 0 0 10 10"></path><g class="terminal ">
<path d="M 272.0 209 h 0.0"></path><path d="M 351.5 209 h 0.0"></path><rect height="22" rx="10" ry="10" width="79.5" x="272.0" y="198"></rect><text x="311.75" y="213">"addpn"</text></g><path d="M 252.0 179 a 10 10 0 0 1 10 10 v 40 a 10 10 0 0 0 10 10"></path><g class="terminal ">
<path d="M 272.0 239 h 0.0"></path><path d="M 326.0 239 h 0.0"></path><rect height="22" rx="10" ry="10" width="54.0" x="272.0" y="228"></rect><text x="299.0" y="243">"bk"</text></g><path d="M 252.0 179 a 10 10 0 0 1 10 10 v 70 a 10 10 0 0 0 10 10"></path><g class="terminal ">
<path d="M 272.0 269 h 0.0"></path><path d="M 326.0 269 h 0.0"></path><rect height="22" rx="10" ry="10" width="54.0" x="272.0" y="258"></rect><text x="299.0" y="273">"dc"</text></g><path d="M 252.0 179 a 10 10 0 0 1 10 10 v 100 a 10 10 0 0 0 10 10"></path><g class="terminal ">
<path d="M 272.0 299 h 0.0"></path><path d="M 334.5 299 h 0.0"></path><rect height="22" rx="10" ry="10" width="62.5" x="272.0" y="288"></rect><text x="303.25" y="303">"efm"</text></g><path d="M 252.0 179 a 10 10 0 0 1 10 10 v 130 a 10 10 0 0 0 10 10"></path><g class="terminal ">
<path d="M 272.0 329 h 0.0"></path><path d="M 326.0 329 h 0.0"></path><rect height="22" rx="10" ry="10" width="54.0" x="272.0" y="318"></rect><text x="299.0" y="333">"fm"</text></g><path d="M 252.0 179 a 10 10 0 0 1 10 10 v 160 a 10 10 0 0 0 10 10"></path><g class="terminal ">
<path d="M 272.0 359 h 0.0"></path><path d="M 326.0 359 h 0.0"></path><rect height="22" rx="10" ry="10" width="54.0" x="272.0" y="348"></rect><text x="299.0" y="363">"fv"</text></g><path d="M 252.0 179 a 10 10 0 0 1 10 10 v 190 a 10 10 0 0 0 10 10"></path><g class="terminal ">
<path d="M 272.0 389 h 0.0"></path><path d="M 317.5 389 h 0.0"></path><rect height="22" rx="10" ry="10" width="45.5" x="272.0" y="378"></rect><text x="294.75" y="393">"k"</text></g><path d="M 252.0 179 a 10 10 0 0 1 10 10 v 220 a 10 10 0 0 0 10 10"></path><g class="terminal ">
<path d="M 272.0 419 h 0.0"></path><path d="M 326.0 419 h 0.0"></path><rect height="22" rx="10" ry="10" width="54.0" x="272.0" y="408"></rect><text x="299.0" y="423">"nd"</text></g></g><path d="M 371.5 60 a 10 10 0 0 1 10 10 v 99 a 10 10 0 0 0 10 10"></path><g>
<path d="M 391.5 179 h 0.0"></path><path d="M 391.5 179 a 10 10 0 0 0 10 -10 v -10 a 10 10 0 0 1 10 -10"></path><g class="terminal ">
<path d="M 411.5 149 h 0.0"></path><path d="M 474.0 149 h 0.0"></path><rect height="22" rx="10" ry="10" width="62.5" x="411.5" y="138"></rect><text x="442.75" y="153">"png"</text></g><path d="M 391.5 179 a 10 10 0 0 0 10 -10 v -40 a 10 10 0 0 1 10 -10"></path><g class="terminal ">
<path d="M 411.5 119 h 0.0"></path><path d="M 474.0 119 h 0.0"></path><rect height="22" rx="10" ry="10" width="62.5" x="411.5" y="108"></rect><text x="442.75" y="123">"ord"</text></g><path d="M 391.5 179 a 10 10 0 0 0 10 -10 v -70 a 10 10 0 0 1 10 -10"></path><g class="terminal ">
<path d="M 411.5 89 h 0.0"></path><path d="M 474.0 89 h 0.0"></path><rect height="22" rx="10" ry="10" width="62.5" x="411.5" y="78"></rect><text x="442.75" y="93">"ndx"</text></g><path d="M 391.5 179 h 20"></path><g class="terminal ">
<path d="M 411.5 179 h 0.0"></path><path d="M 465.5 179 h 0.0"></path><rect height="22" rx="10" ry="10" width="54.0" x="411.5" y="168"></rect><text x="438.5" y="183">"pn"</text></g><path d="M 391.5 179 a 10 10 0 0 1 10 10 v 10 a 10 10 0 0 0 10 10"></path><g class="terminal ">
<path d="M 411.5 209 h 0.0"></path><path d="M 474.0 209 h 0.0"></path><rect height="22" rx="10" ry="10" width="62.5" x="411.5" y="198"></rect><text x="442.75" y="213">"pro"</text></g><path d="M 391.5 179 a 10 10 0 0 1 10 10 v 40 a 10 10 0 0 0 10 10"></path><g class="terminal ">
<path d="M 411.5 239 h 0.0"></path><path d="M 465.5 239 h 0.0"></path><rect height="22" rx="10" ry="10" width="54.0" x="411.5" y="228"></rect><text x="438.5" y="243">"qt"</text></g><path d="M 391.5 179 a 10 10 0 0 1 10 10 v 70 a 10 10 0 0 0 10 10"></path><g class="terminal ">
<path d="M 411.5 269 h 0.0"></path><path d="M 465.5 269 h 0.0"></path><rect height="22" rx="10" ry="10" width="54.0" x="411.5" y="258"></rect><text x="438.5" y="273">"rq"</text></g><path d="M 391.5 179 a 10 10 0 0 1 10 10 v 100 a 10 10 0 0 0 10 10"></path><g class="terminal ">
<path d="M 411.5 299 h 0.0"></path><path d="M 474.0 299 h 0.0"></path><rect height="22" rx="10" ry="10" width="62.5" x="411.5" y="288"></rect><text x="442.75" y="303">"sig"</text></g><path d="M 391.5 179 a 10 10 0 0 1 10 10 v 130 a 10 10 0 0 0 10 10"></path><g class="terminal ">
<path d="M 411.5 329 h 0.0"></path><path d="M 474.0 329 h 0.0"></path><rect height="22" rx="10" ry="10" width="62.5" x="411.5" y="318"></rect><text x="442.75" y="333">"sls"</text></g><path d="M 391.5 179 a 10 10 0 0 1 10 10 v 160 a 10 10 0 0 0 10 10"></path><g class="terminal ">
<path d="M 411.5 359 h 0.0"></path><path d="M 465.5 359 h 0.0"></path><rect height="22" rx="10" ry="10" width="54.0" x="411.5" y="348"></rect><text x="438.5" y="363">"tl"</text></g><path d="M 391.5 179 a 10 10 0 0 1 10 10 v 190 a 10 10 0 0 0 10 10"></path><g class="terminal ">
<path d="M 411.5 389 h 0.0"></path><path d="M 465.5 389 h 0.0"></path><rect height="22" rx="10" ry="10" width="54.0" x="411.5" y="378"></rect><text x="438.5" y="393">"wg"</text></g><path d="M 391.5 179 a 10 10 0 0 1 10 10 v 220 a 10 10 0 0 0 10 10"></path><g class="terminal ">
<path d="M 411.5 419 h 0.0"></path><path d="M 465.5 419 h 0.0"></path><rect height="22" rx="10" ry="10" width="54.0" x="411.5" y="408"></rect><text x="438.5" y="423">"wh"</text></g></g><path d="M 494.0 60 a 10 10 0 0 1 10 10 v 99 a 10 10 0 0 0 10 10"></path><g>
<path d="M 514.0 179 h 0.0"></path><path d="M 514.0 179 a 10 10 0 0 0 10 -10 v -10 a 10 10 0 0 1 10 -10"></path><g class="terminal ">
<path d="M 534.0 149 h 0.0"></path><path d="M 596.5 149 h 0.0"></path><rect height="22" rx="10" ry="10" width="62.5" x="534.0" y="138"></rect><text x="565.25" y="153">"jmp"</text></g><path d="M 514.0 179 a 10 10 0 0 0 10 -10 v -40 a 10 10 0 0 1 10 -10"></path><g class="terminal ">
<path d="M 534.0 119 h 0.0"></path><path d="M 588.0 119 h 0.0"></path><rect height="22" rx="10" ry="10" width="54.0" x="534.0" y="108"></rect><text x="561.0" y="123">"wj"</text></g><path d="M 514.0 179 a 10 10 0 0 0 10 -10 v -70 a 10 10 0 0 1 10 -10"></path><g class="terminal ">
<path d="M 534.0 89 h 0.0"></path><path d="M 588.0 89 h 0.0"></path><rect height="22" rx="10" ry="10" width="54.0" x="534.0" y="78"></rect><text x="561.0" y="93">"wa"</text></g><path d="M 514.0 179 h 20"></path><g class="terminal ">
<path d="M 534.0 179 h 0.0"></path><path d="M 588.0 179 h 0.0"></path><rect height="22" rx="10" ry="10" width="54.0" x="534.0" y="168"></rect><text x="561.0" y="183">"no"</text></g><path d="M 514.0 179 a 10 10 0 0 1 10 10 v 10 a 10 10 0 0 0 10 10"></path><g class="terminal ">
<path d="M 534.0 209 h 0.0"></path><path d="M 588.0 209 h 0.0"></path><rect height="22" rx="10" ry="10" width="54.0" x="534.0" y="198"></rect><text x="561.0" y="213">"it"</text></g><path d="M 514.0 179 a 10 10 0 0 1 10 10 v 40 a 10 10 0 0 0 10 10"></path><g class="terminal ">
<path d="M 534.0 239 h 0.0"></path><path d="M 605.0 239 h 0.0"></path><rect height="22" rx="10" ry="10" width="71.0" x="534.0" y="228"></rect><text x="569.5" y="243">"bdit"</text></g><path d="M 514.0 179 a 10 10 0 0 1 10 10 v 70 a 10 10 0 0 0 10 10"></path><g class="terminal ">
<path d="M 534.0 269 h 0.0"></path><path d="M 588.0 269 h 0.0"></path><rect height="22" rx="10" ry="10" width="54.0" x="534.0" y="258"></rect><text x="561.0" y="273">"bd"</text></g><path d="M 514.0 179 a 10 10 0 0 1 10 10 v 100 a 10 10 0 0 0 10 10"></path><g class="terminal ">
<path d="M 534.0 299 h 0.0"></path><path d="M 588.0 299 h 0.0"></path><rect height="22" rx="10" ry="10" width="54.0" x="534.0" y="288"></rect><text x="561.0" y="303">"em"</text></g><path d="M 514.0 179 a 10 10 0 0 1 10 10 v 130 a 10 10 0 0 0 10 10"></path><g class="terminal ">
<path d="M 534.0 329 h 0.0"></path><path d="M 588.0 329 h 0.0"></path><rect height="22" rx="10" ry="10" width="54.0" x="534.0" y="318"></rect><text x="561.0" y="333">"sc"</text></g><path d="M 514.0 179 a 10 10 0 0 1 10 10 v 160 a 10 10 0 0 0 10 10"></path><g class="terminal ">
<path d="M 534.0 359 h 0.0"></path><path d="M 596.5 359 h 0.0"></path><rect height="22" rx="10" ry="10" width="62.5" x="534.0" y="348"></rect><text x="565.25" y="363">"sup"</text></g><path d="M 514.0 179 a 10 10 0 0 1 10 10 v 190 a 10 10 0 0 0 10 10"></path><g class="terminal ">
<path d="M 534.0 389 h 0.0"></path><path d="M 588.0 389 h 0.0"></path><rect height="22" rx="10" ry="10" width="54.0" x="534.0" y="378"></rect><text x="561.0" y="393">"xt"</text></g><path d="M 514.0 179 a 10 10 0 0 1 10 10 v 220 a 10 10 0 0 0 10 10"></path><g class="terminal ">
<path d="M 534.0 419 h 0.0"></path><path d="M 579.5 419 h 0.0"></path><rect height="22" rx="10" ry="10" width="45.5" x="534.0" y="408"></rect><text x="556.75" y="423">"w"</text></g></g><path d="M 625.0 60 a 10 10 0 0 1 10 10 v 99 a 10 10 0 0 0 10 10"></path><g>
<path d="M 645.0 179 h 0.0"></path><path d="M 645.0 179 h 20"></path><g class="terminal ">
<path d="M 665.0 179 h 0.0"></path><path d="M 719.0 179 h 0.0"></path><rect height="22" rx="10" ry="10" width="54.0" x="665.0" y="168"></rect><text x="692.0" y="183">"rb"</text></g><path d="M 645.0 179 a 10 10 0 0 1 10 10 v 10 a 10 10 0 0 0 10 10"></path><g class="terminal ">
<path d="M 665.0 209 h 0.0"></path><path d="M 719.0 209 h 0.0"></path><rect height="22" rx="10" ry="10" width="54.0" x="665.0" y="198"></rect><text x="692.0" y="213">"xt"</text></g></g></g></g><path d="M 141.0 477 a 10 10 0 0 0 10 -10 v -416 a 10 10 0 0 1 10 -10"></path><g>
<path d="M 161.0 41 h 0.0"></path><path d="M 272.0 41 h 0.0"></path><g class="terminal ">
<path d="M 161.0 41 h 0.0"></path><path d="M 198.0 41 h 0.0"></path><rect height="22" rx="10" ry="10" width="37.0" x="161.0" y="30"></rect><text x="179.5" y="45">@&#42;</text></g><path d="M 198.0 41 h 10"></path><path d="M 208.0 41 h 10"></path><g class="terminal ">
<path d="M 218.0 41 h 0.0"></path><path d="M 272.0 41 h 0.0"></path><rect height="22" rx="10" ry="10" width="54.0" x="218.0" y="30"></rect><text x="245.0" y="45">TEXT</text></g></g><path d="M 141.0 477 h 20"></path><g>
<path d="M 161.0 477 h 190.25"></path><path d="M 638.75 477 h 190.25"></path><g>
<path d="M 351.25 477 h 0.0"></path><path d="M 638.75 477 h 0.0"></path><path d="M 351.25 477 h 10"></path><g>
<path d="M 361.25 477 h 0.0"></path><path d="M 628.75 477 h 0.0"></path><path d="M 361.25 477 h 20"></path><g class="non-terminal ">
<path d="M 381.25 477 h 65.5"></path><path d="M 543.25 477 h 65.5"></path><rect height="22" width="96.5" x="446.75" y="466"></rect><text x="495.0" y="481">CharEmbed</text></g><path d="M 608.75 477 h 20"></path><path d="M 361.25 477 a 10 10 0 0 1 10 10 v 10 a 10 10 0 0 0 10 10"></path><g class="non-terminal ">
<path d="M 381.25 507 h 78.25"></path><path d="M 530.5 507 h 78.25"></path><rect height="22" width="71.0" x="459.5" y="496"></rect><text x="495.0" y="511">Figure</text></g><path d="M 608.75 507 a 10 10 0 0 0 10 -10 v -10 a 10 10 0 0 1 10 -10"></path><path d="M 361.25 477 a 10 10 0 0 1 10 10 v 40 a 10 10 0 0 0 10 10"></path><g class="non-terminal ">
<path d="M 381.25 537 h 65.5"></path><path d="M 543.25 537 h 65.5"></path><rect height="22" width="96.5" x="446.75" y="526"></rect><text x="495.0" y="541">Milestone</text></g><path d="M 608.75 537 a 10 10 0 0 0 10 -10 v -40 a 10 10 0 0 1 10 -10"></path><path d="M 361.25 477 a 10 10 0 0 1 10 10 v 70 a 10 10 0 0 0 10 10"></path><g class="non-terminal ">
<path d="M 381.25 567 h 69.75"></path><path d="M 539.0 567 h 69.75"></path><rect height="22" width="88.0" x="451.0" y="556"></rect><text x="495.0" y="571">Footnote</text></g><path d="M 608.75 567 a 10 10 0 0 0 10 -10 v -70 a 10 10 0 0 1 10 -10"></path><path d="M 361.25 477 a 10 10 0 0 1 10 10 v 100 a 10 10 0 0 0 10 10"></path><g class="non-terminal ">
<path d="M 381.25 597 h 44.25"></path><path d="M 564.5 597 h 44.25"></path><rect height="22" width="139.0" x="425.5" y="586"></rect><text x="495.0" y="601">CrossReference</text></g><path d="M 608.75 597 a 10 10 0 0 0 10 -10 v -100 a 10 10 0 0 1 10 -10"></path><path d="M 361.25 477 a 10 10 0 0 1 10 10 v 130 a 10 10 0 0 0 10 10"></path><g class="non-terminal ">
<path d="M 381.25 627 h 65.5"></path><path d="M 543.25 627 h 65.5"></path><rect height="22" width="96.5" x="446.75" y="616"></rect><text x="495.0" y="631">Reference</text></g><path d="M 608.75 627 a 10 10 0 0 0 10 -10 v -130 a 10 10 0 0 1 10 -10"></path><path d="M 361.25 477 a 10 10 0 0 1 10 10 v 170 a 10 10 0 0 0 10 10"></path><g>
<path d="M 381.25 667 h 0.0"></path><path d="M 608.75 667 h 0.0"></path><g class="terminal ">
<path d="M 381.25 667 h 0.0"></path><path d="M 486.25 667 h 0.0"></path><rect height="22" rx="10" ry="10" width="105.0" x="381.25" y="656"></rect><text x="433.75" y="671">&#60;optbreak></text></g><path d="M 486.25 667 h 10"></path><path d="M 496.25 667 h 10"></path><g>
<path d="M 506.25 667 h 0.0"></path><path d="M 608.75 667 h 0.0"></path><path d="M 506.25 667 h 20"></path><g class="terminal ">
<path d="M 526.25 667 h 0.0"></path><path d="M 588.75 667 h 0.0"></path><rect height="22" rx="10" ry="10" width="62.5" x="526.25" y="656"></rect><text x="557.5" y="671">EMPTY</text></g><path d="M 588.75 667 h 20"></path></g></g><path d="M 608.75 667 a 10 10 0 0 0 10 -10 v -170 a 10 10 0 0 1 10 -10"></path><path d="M 361.25 477 a 10 10 0 0 1 10 10 v 210 a 10 10 0 0 0 10 10"></path><g class="terminal ">
<path d="M 381.25 707 h 86.75"></path><path d="M 522.0 707 h 86.75"></path><rect height="22" rx="10" ry="10" width="54.0" x="468.0" y="696"></rect><text x="495.0" y="711">TEXT</text></g><path d="M 608.75 707 a 10 10 0 0 0 10 -10 v -210 a 10 10 0 0 1 10 -10"></path></g><path d="M 628.75 477 h 10"></path><path d="M 361.25 477 a 10 10 0 0 0 -10 10 v 239 a 10 10 0 0 0 10 10"></path><g>
<path d="M 361.25 736 h 267.5"></path></g><path d="M 628.75 736 a 10 10 0 0 0 10 -10 v -239 a 10 10 0 0 0 -10 -10"></path></g></g><path d="M 829.0 477 h 20"></path></g></g></g><path d="M 849.0 477 h 10"></path><path d="M 859.0 477 h 20 m 0 -10 v 20"></path></g></svg>