<svg class="railroad-diagram" height="944" viewBox="0 0 1143.0 944" width="1143.0" xmlns="http://www.w3.org/2000/svg" xmlns:xlink="http://www.w3.org/1999/xlink">
<g transform="translate(.5 .5)">
<style>/* <![CDATA[ */

    svg.railroad-diagram {
        background-color: hsl(30,20%,95%);
    }
    svg.railroad-diagram path {
        stroke-width: 2;
        stroke: black;
        fill: none;
    }
    svg.railroad-diagram text {
        font-size: 12px;
        text-anchor: middle;
        font-family: DejaVu Sans;
    }
    svg.railroad-diagram text.label {
        text-anchor:start;
    }
    svg.railroad-diagram text.comment {
        font-family: DejaVu Sans;
        font-size: 14px;
    }
    svg.railroad-diagram rect{
        stroke-width: 2;
        stroke: black;
        fill: rgb(210, 255, 210);
    }
    svg.railroad-diagram rect.group-box {
        stroke: gray;
        stroke-dasharray: 10 5;
        fill: none;
    }
    .terminal {
        font-family: DejaVu Sans;
    }
    svg.railroad-diagram g.altterminal rect {
        fill: rgb(251, 252, 207)
    }

/* ]]> */
</style><g>
<path d="M 20 163 v 20 m 0 -10 h 20"></path></g><path d="M 40 173 h 10"></path><g>
<path d="M 50 173 h 0.0"></path><path d="M 1093.0 457 h 0.0"></path><g>
<path d="M 50.0 173 h 0.0"></path><path d="M 1093.0 457 h 0.0"></path><path d="M 50.0 173 h 20"></path><g>
<path d="M 70.0 173 h 4.25"></path><path d="M 74.25 173 h 10"></path><g>
<path d="M 84.25 173 h 10.0"></path><path d="M 1048.75 173 h 10.0"></path><g class="terminal ">
<path d="M 94.25 173 h 0.0"></path><path d="M 148.25 173 h 0.0"></path><rect height="22" rx="10" ry="10" width="54.0" x="94.25" y="162"></rect><text x="121.25" y="177">'\\'</text></g><path d="M 148.25 173 h 10"></path><path d="M 158.25 173 h 10"></path><g>
<path d="M 168.25 173 h 0.0"></path><path d="M 917.75 173 h 0.0"></path><rect class="group-box" height="314" rx="10" ry="10" width="749.5" x="168.25" y="46"></rect><g>
<path d="M 168.25 173 h 10.0"></path><path d="M 907.75 173 h 10.0"></path><g>
<path d="M 178.25 173 h 0.0"></path><path d="M 907.75 173 h 0.0"></path><path d="M 178.25 173 a 10 10 0 0 0 10 -10 v -99 a 10 10 0 0 1 10 -10 h 565.5"></path><path d="M 347.75 352 h 540.0 a 10 10 0 0 0 10 -10 v -159 a 10 10 0 0 1 10 -10"></path><path d="M 178.25 173 h 10"></path><g>
<path d="M 188.25 173 h 10.0"></path><path d="M 317.75 173 h 10.0"></path><path d="M 198.25 173 a 10 10 0 0 0 10 -10 v -10 a 10 10 0 0 1 10 -10"></path><g class="terminal ">
<path d="M 218.25 143 h 12.75"></path><path d="M 285.0 143 h 12.75"></path><rect height="22" rx="10" ry="10" width="54.0" x="231.0" y="132"></rect><text x="258.0" y="147">"qs"</text></g><path d="M 297.75 143 a 10 10 0 0 1 10 10 v 10 a 10 10 0 0 0 10 10"></path><path d="M 198.25 173 a 10 10 0 0 0 10 -10 v -40 a 10 10 0 0 1 10 -10"></path><g class="terminal ">
<path d="M 218.25 113 h 8.5"></path><path d="M 289.25 113 h 8.5"></path><rect height="22" rx="10" ry="10" width="62.5" x="226.75" y="102"></rect><text x="258.0" y="117">"qac"</text></g><path d="M 297.75 113 a 10 10 0 0 1 10 10 v 40 a 10 10 0 0 0 10 10"></path><path d="M 198.25 173 a 10 10 0 0 0 10 -10 v -70 a 10 10 0 0 1 10 -10"></path><g class="terminal ">
<path d="M 218.25 83 h 12.75"></path><path d="M 285.0 83 h 12.75"></path><rect height="22" rx="10" ry="10" width="54.0" x="231.0" y="72"></rect><text x="258.0" y="87">"vp"</text></g><path d="M 297.75 83 a 10 10 0 0 1 10 10 v 70 a 10 10 0 0 0 10 10"></path><path d="M 198.25 173 h 20"></path><g class="terminal ">
<path d="M 218.25 173 h 8.5"></path><path d="M 289.25 173 h 8.5"></path><rect height="22" rx="10" ry="10" width="62.5" x="226.75" y="162"></rect><text x="258.0" y="177">"add"</text></g><path d="M 297.75 173 h 20"></path><path d="M 198.25 173 a 10 10 0 0 1 10 10 v 10 a 10 10 0 0 0 10 10"></path><g class="terminal ">
<path d="M 218.25 203 h 0.0"></path><path d="M 297.75 203 h 0.0"></path><rect height="22" rx="10" ry="10" width="79.5" x="218.25" y="192"></rect><text x="258.0" y="207">"addpn"</text></g><path d="M 297.75 203 a 10 10 0 0 0 10 -10 v -10 a 10 10 0 0 1 10 -10"></path><path d="M 198.25 173 a 10 10 0 0 1 10 10 v 40 a 10 10 0 0 0 10 10"></path><g class="terminal ">
<path d="M 218.25 233 h 12.75"></path><path d="M 285.0 233 h 12.75"></path><rect height="22" rx="10" ry="10" width="54.0" x="231.0" y="222"></rect><text x="258.0" y="237">"bk"</text></g><path d="M 297.75 233 a 10 10 0 0 0 10 -10 v -40 a 10 10 0 0 1 10 -10"></path><path d="M 198.25 173 a 10 10 0 0 1 10 10 v 70 a 10 10 0 0 0 10 10"></path><g class="terminal ">
<path d="M 218.25 263 h 12.75"></path><path d="M 285.0 263 h 12.75"></path><rect height="22" rx="10" ry="10" width="54.0" x="231.0" y="252"></rect><text x="258.0" y="267">"dc"</text></g><path d="M 297.75 263 a 10 10 0 0 0 10 -10 v -70 a 10 10 0 0 1 10 -10"></path><path d="M 198.25 173 a 10 10 0 0 1 10 10 v 100 a 10 10 0 0 0 10 10"></path><g class="terminal ">
<path d="M 218.25 293 h 8.5"></path><path d="M 289.25 293 h 8.5"></path><rect height="22" rx="10" ry="10" width="62.5" x="226.75" y="282"></rect><text x="258.0" y="297">"efm"</text></g><path d="M 297.75 293 a 10 10 0 0 0 10 -10 v -100 a 10 10 0 0 1 10 -10"></path><path d="M 198.25 173 a 10 10 0 0 1 10 10 v 130 a 10 10 0 0 0 10 10"></path><g class="terminal ">
<path d="M 218.25 323 h 12.75"></path><path d="M 285.0 323 h 12.75"></path><rect height="22" rx="10" ry="10" width="54.0" x="231.0" y="312"></rect><text x="258.0" y="327">"fm"</text></g><path d="M 297.75 323 a 10 10 0 0 0 10 -10 v -130 a 10 10 0 0 1 10 -10"></path></g><path d="M 327.75 173 a 10 10 0 0 1 10 10 v 159 a 10 10 0 0 0 10 10"></path><path d="M 327.75 54 a 10 10 0 0 1 10 10 v 99 a 10 10 0 0 0 10 10"></path><g>
<path d="M 347.75 173 h 10.0"></path><path d="M 460.25 173 h 10.0"></path><path d="M 357.75 173 a 10 10 0 0 0 10 -10 v -10 a 10 10 0 0 1 10 -10"></path><g class="terminal ">
<path d="M 377.75 143 h 4.25"></path><path d="M 436.0 143 h 4.25"></path><rect height="22" rx="10" ry="10" width="54.0" x="382.0" y="132"></rect><text x="409.0" y="147">"nd"</text></g><path d="M 440.25 143 a 10 10 0 0 1 10 10 v 10 a 10 10 0 0 0 10 10"></path><path d="M 357.75 173 a 10 10 0 0 0 10 -10 v -40 a 10 10 0 0 1 10 -10"></path><g class="terminal ">
<path d="M 377.75 113 h 8.5"></path><path d="M 431.75 113 h 8.5"></path><rect height="22" rx="10" ry="10" width="45.5" x="386.25" y="102"></rect><text x="409.0" y="117">"k"</text></g><path d="M 440.25 113 a 10 10 0 0 1 10 10 v 40 a 10 10 0 0 0 10 10"></path><path d="M 357.75 173 a 10 10 0 0 0 10 -10 v -70 a 10 10 0 0 1 10 -10"></path><g class="terminal ">
<path d="M 377.75 83 h 4.25"></path><path d="M 436.0 83 h 4.25"></path><rect height="22" rx="10" ry="10" width="54.0" x="382.0" y="72"></rect><text x="409.0" y="87">"fv"</text></g><path d="M 440.25 83 a 10 10 0 0 1 10 10 v 70 a 10 10 0 0 0 10 10"></path><path d="M 357.75 173 h 20"></path><g class="terminal ">
<path d="M 377.75 173 h 0.0"></path><path d="M 440.25 173 h 0.0"></path><rect height="22" rx="10" ry="10" width="62.5" x="377.75" y="162"></rect><text x="409.0" y="177">"ndx"</text></g><path d="M 440.25 173 h 20"></path><path d="M 357.75 173 a 10 10 0 0 1 10 10 v 10 a 10 10 0 0 0 10 10"></path><g class="terminal ">
<path d="M 377.75 203 h 0.0"></path><path d="M 440.25 203 h 0.0"></path><rect height="22" rx="10" ry="10" width="62.5" x="377.75" y="192"></rect><text x="409.0" y="207">"ord"</text></g><path d="M 440.25 203 a 10 10 0 0 0 10 -10 v -10 a 10 10 0 0 1 10 -10"></path><path d="M 357.75 173 a 10 10 0 0 1 10 10 v 40 a 10 10 0 0 0 10 10"></path><g class="terminal ">
<path d="M 377.75 233 h 4.25"></path><path d="M 436.0 233 h 4.25"></path><rect height="22" rx="10" ry="10" width="54.0" x="382.0" y="222"></rect><text x="409.0" y="237">"pl"</text></g><path d="M 440.25 233 a 10 10 0 0 0 10 -10 v -40 a 10 10 0 0 1 10 -10"></path><path d="M 357.75 173 a 10 10 0 0 1 10 10 v 70 a 10 10 0 0 0 10 10"></path><g class="terminal ">
<path d="M 377.75 263 h 0.0"></path><path d="M 440.25 263 h 0.0"></path><rect height="22" rx="10" ry="10" width="62.5" x="377.75" y="252"></rect><text x="409.0" y="267">"png"</text></g><path d="M 440.25 263 a 10 10 0 0 0 10 -10 v -70 a 10 10 0 0 1 10 -10"></path><path d="M 357.75 173 a 10 10 0 0 1 10 10 v 100 a 10 10 0 0 0 10 10"></path><g class="terminal ">
<path d="M 377.75 293 h 4.25"></path><path d="M 436.0 293 h 4.25"></path><rect height="22" rx="10" ry="10" width="54.0" x="382.0" y="282"></rect><text x="409.0" y="297">"pn"</text></g><path d="M 440.25 293 a 10 10 0 0 0 10 -10 v -100 a 10 10 0 0 1 10 -10"></path><path d="M 357.75 173 a 10 10 0 0 1 10 10 v 130 a 10 10 0 0 0 10 10"></path><g class="terminal ">
<path d="M 377.75 323 h 0.0"></path><path d="M 440.25 323 h 0.0"></path><rect height="22" rx="10" ry="10" width="62.5" x="377.75" y="312"></rect><text x="409.0" y="327">"pro"</text></g><path d="M 440.25 323 a 10 10 0 0 0 10 -10 v -130 a 10 10 0 0 1 10 -10"></path></g><path d="M 470.25 173 a 10 10 0 0 1 10 10 v 159 a 10 10 0 0 0 10 10"></path><path d="M 470.25 54 a 10 10 0 0 1 10 10 v 99 a 10 10 0 0 0 10 10"></path><g>
<path d="M 490.25 173 h 10.0"></path><path d="M 602.75 173 h 10.0"></path><path d="M 500.25 173 a 10 10 0 0 0 10 -10 v -10 a 10 10 0 0 1 10 -10"></path><g class="terminal ">
<path d="M 520.25 143 h 0.0"></path><path d="M 582.75 143 h 0.0"></path><rect height="22" rx="10" ry="10" width="62.5" x="520.25" y="132"></rect><text x="551.5" y="147">"sig"</text></g><path d="M 582.75 143 a 10 10 0 0 1 10 10 v 10 a 10 10 0 0 0 10 10"></path><path d="M 500.25 173 a 10 10 0 0 0 10 -10 v -40 a 10 10 0 0 1 10 -10"></path><g class="terminal ">
<path d="M 520.25 113 h 4.25"></path><path d="M 578.5 113 h 4.25"></path><rect height="22" rx="10" ry="10" width="54.0" x="524.5" y="102"></rect><text x="551.5" y="117">"rq"</text></g><path d="M 582.75 113 a 10 10 0 0 1 10 10 v 40 a 10 10 0 0 0 10 10"></path><path d="M 500.25 173 a 10 10 0 0 0 10 -10 v -70 a 10 10 0 0 1 10 -10"></path><g class="terminal ">
<path d="M 520.25 83 h 4.25"></path><path d="M 578.5 83 h 4.25"></path><rect height="22" rx="10" ry="10" width="54.0" x="524.5" y="72"></rect><text x="551.5" y="87">"qt"</text></g><path d="M 582.75 83 a 10 10 0 0 1 10 10 v 70 a 10 10 0 0 0 10 10"></path><path d="M 500.25 173 h 20"></path><g class="terminal ">
<path d="M 520.25 173 h 0.0"></path><path d="M 582.75 173 h 0.0"></path><rect height="22" rx="10" ry="10" width="62.5" x="520.25" y="162"></rect><text x="551.5" y="177">"sls"</text></g><path d="M 582.75 173 h 20"></path><path d="M 500.25 173 a 10 10 0 0 1 10 10 v 10 a 10 10 0 0 0 10 10"></path><g class="terminal ">
<path d="M 520.25 203 h 4.25"></path><path d="M 578.5 203 h 4.25"></path><rect height="22" rx="10" ry="10" width="54.0" x="524.5" y="192"></rect><text x="551.5" y="207">"tl"</text></g><path d="M 582.75 203 a 10 10 0 0 0 10 -10 v -10 a 10 10 0 0 1 10 -10"></path><path d="M 500.25 173 a 10 10 0 0 1 10 10 v 40 a 10 10 0 0 0 10 10"></path><g class="terminal ">
<path d="M 520.25 233 h 4.25"></path><path d="M 578.5 233 h 4.25"></path><rect height="22" rx="10" ry="10" width="54.0" x="524.5" y="222"></rect><text x="551.5" y="237">"wg"</text></g><path d="M 582.75 233 a 10 10 0 0 0 10 -10 v -40 a 10 10 0 0 1 10 -10"></path><path d="M 500.25 173 a 10 10 0 0 1 10 10 v 70 a 10 10 0 0 0 10 10"></path><g class="terminal ">
<path d="M 520.25 263 h 4.25"></path><path d="M 578.5 263 h 4.25"></path><rect height="22" rx="10" ry="10" width="54.0" x="524.5" y="252"></rect><text x="551.5" y="267">"wh"</text></g><path d="M 582.75 263 a 10 10 0 0 0 10 -10 v -70 a 10 10 0 0 1 10 -10"></path><path d="M 500.25 173 a 10 10 0 0 1 10 10 v 100 a 10 10 0 0 0 10 10"></path><g class="terminal ">
<path d="M 520.25 293 h 4.25"></path><path d="M 578.5 293 h 4.25"></path><rect height="22" rx="10" ry="10" width="54.0" x="524.5" y="282"></rect><text x="551.5" y="297">"wa"</text></g><path d="M 582.75 293 a 10 10 0 0 0 10 -10 v -100 a 10 10 0 0 1 10 -10"></path><path d="M 500.25 173 a 10 10 0 0 1 10 10 v 130 a 10 10 0 0 0 10 10"></path><g class="terminal ">
<path d="M 520.25 323 h 4.25"></path><path d="M 578.5 323 h 4.25"></path><rect height="22" rx="10" ry="10" width="54.0" x="524.5" y="312"></rect><text x="551.5" y="327">"wj"</text></g><path d="M 582.75 323 a 10 10 0 0 0 10 -10 v -130 a 10 10 0 0 1 10 -10"></path></g><path d="M 612.75 173 a 10 10 0 0 1 10 10 v 159 a 10 10 0 0 0 10 10"></path><path d="M 612.75 54 a 10 10 0 0 1 10 10 v 99 a 10 10 0 0 0 10 10"></path><g>
<path d="M 632.75 173 h 10.0"></path><path d="M 753.75 173 h 10.0"></path><path d="M 642.75 173 a 10 10 0 0 0 10 -10 v -10 a 10 10 0 0 1 10 -10"></path><g class="terminal ">
<path d="M 662.75 143 h 8.5"></path><path d="M 725.25 143 h 8.5"></path><rect height="22" rx="10" ry="10" width="54.0" x="671.25" y="132"></rect><text x="698.25" y="147">"no"</text></g><path d="M 733.75 143 a 10 10 0 0 1 10 10 v 10 a 10 10 0 0 0 10 10"></path><path d="M 642.75 173 a 10 10 0 0 0 10 -10 v -40 a 10 10 0 0 1 10 -10"></path><g class="terminal ">
<path d="M 662.75 113 h 4.25"></path><path d="M 729.5 113 h 4.25"></path><rect height="22" rx="10" ry="10" width="62.5" x="667.0" y="102"></rect><text x="698.25" y="117">"jmp"</text></g><path d="M 733.75 113 a 10 10 0 0 1 10 10 v 40 a 10 10 0 0 0 10 10"></path><path d="M 642.75 173 a 10 10 0 0 0 10 -10 v -70 a 10 10 0 0 1 10 -10"></path><g class="terminal ">
<path d="M 662.75 83 h 8.5"></path><path d="M 725.25 83 h 8.5"></path><rect height="22" rx="10" ry="10" width="54.0" x="671.25" y="72"></rect><text x="698.25" y="87">"wl"</text></g><path d="M 733.75 83 a 10 10 0 0 1 10 10 v 70 a 10 10 0 0 0 10 10"></path><path d="M 642.75 173 h 20"></path><g class="terminal ">
<path d="M 662.75 173 h 8.5"></path><path d="M 725.25 173 h 8.5"></path><rect height="22" rx="10" ry="10" width="54.0" x="671.25" y="162"></rect><text x="698.25" y="177">"it"</text></g><path d="M 733.75 173 h 20"></path><path d="M 642.75 173 a 10 10 0 0 1 10 10 v 10 a 10 10 0 0 0 10 10"></path><g class="terminal ">
<path d="M 662.75 203 h 0.0"></path><path d="M 733.75 203 h 0.0"></path><rect height="22" rx="10" ry="10" width="71.0" x="662.75" y="192"></rect><text x="698.25" y="207">"bdit"</text></g><path d="M 733.75 203 a 10 10 0 0 0 10 -10 v -10 a 10 10 0 0 1 10 -10"></path><path d="M 642.75 173 a 10 10 0 0 1 10 10 v 40 a 10 10 0 0 0 10 10"></path><g class="terminal ">
<path d="M 662.75 233 h 8.5"></path><path d="M 725.25 233 h 8.5"></path><rect height="22" rx="10" ry="10" width="54.0" x="671.25" y="222"></rect><text x="698.25" y="237">"bd"</text></g><path d="M 733.75 233 a 10 10 0 0 0 10 -10 v -40 a 10 10 0 0 1 10 -10"></path><path d="M 642.75 173 a 10 10 0 0 1 10 10 v 70 a 10 10 0 0 0 10 10"></path><g class="terminal ">
<path d="M 662.75 263 h 8.5"></path><path d="M 725.25 263 h 8.5"></path><rect height="22" rx="10" ry="10" width="54.0" x="671.25" y="252"></rect><text x="698.25" y="267">"em"</text></g><path d="M 733.75 263 a 10 10 0 0 0 10 -10 v -70 a 10 10 0 0 1 10 -10"></path><path d="M 642.75 173 a 10 10 0 0 1 10 10 v 100 a 10 10 0 0 0 10 10"></path><g class="terminal ">
<path d="M 662.75 293 h 8.5"></path><path d="M 725.25 293 h 8.5"></path><rect height="22" rx="10" ry="10" width="54.0" x="671.25" y="282"></rect><text x="698.25" y="297">"sc"</text></g><path d="M 733.75 293 a 10 10 0 0 0 10 -10 v -100 a 10 10 0 0 1 10 -10"></path><path d="M 642.75 173 a 10 10 0 0 1 10 10 v 130 a 10 10 0 0 0 10 10"></path><g class="terminal ">
<path d="M 662.75 323 h 4.25"></path><path d="M 729.5 323 h 4.25"></path><rect height="22" rx="10" ry="10" width="62.5" x="667.0" y="312"></rect><text x="698.25" y="327">"sup"</text></g><path d="M 733.75 323 a 10 10 0 0 0 10 -10 v -130 a 10 10 0 0 1 10 -10"></path></g><path d="M 763.75 173 a 10 10 0 0 1 10 10 v 159 a 10 10 0 0 0 10 10"></path><path d="M 763.75 54 a 10 10 0 0 1 10 10 v 99 a 10 10 0 0 0 10 10"></path><g>
<path d="M 783.75 173 h 10.0"></path><path d="M 887.75 173 h 10.0"></path><path d="M 793.75 173 a 10 10 0 0 0 10 -10 v -10 a 10 10 0 0 1 10 -10"></path><g class="terminal ">
<path d="M 813.75 143 h 0.0"></path><path d="M 867.75 143 h 0.0"></path><rect height="22" rx="10" ry="10" width="54.0" x="813.75" y="132"></rect><text x="840.75" y="147">"rb"</text></g><path d="M 867.75 143 a 10 10 0 0 1 10 10 v 10 a 10 10 0 0 0 10 10"></path><path d="M 793.75 173 a 10 10 0 0 0 10 -10 v -40 a 10 10 0 0 1 10 -10"></path><g class="terminal ">
<path d="M 813.75 113 h 4.25"></path><path d="M 863.5 113 h 4.25"></path><rect height="22" rx="10" ry="10" width="45.5" x="818.0" y="102"></rect><text x="840.75" y="117">"w"</text></g><path d="M 867.75 113 a 10 10 0 0 1 10 10 v 40 a 10 10 0 0 0 10 10"></path><path d="M 793.75 173 a 10 10 0 0 0 10 -10 v -70 a 10 10 0 0 1 10 -10"></path><g class="terminal ">
<path d="M 813.75 83 h 0.0"></path><path d="M 867.75 83 h 0.0"></path><rect height="22" rx="10" ry="10" width="54.0" x="813.75" y="72"></rect><text x="840.75" y="87">"xt"</text></g><path d="M 867.75 83 a 10 10 0 0 1 10 10 v 70 a 10 10 0 0 0 10 10"></path><path d="M 793.75 173 h 20"></path><g class="terminal ">
<path d="M 813.75 173 h 0.0"></path><path d="M 867.75 173 h 0.0"></path><rect height="22" rx="10" ry="10" width="54.0" x="813.75" y="162"></rect><text x="840.75" y="177">"ta"</text></g><path d="M 867.75 173 h 20"></path><path d="M 793.75 173 a 10 10 0 0 1 10 10 v 10 a 10 10 0 0 0 10 10"></path><g class="terminal ">
<path d="M 813.75 203 h 0.0"></path><path d="M 867.75 203 h 0.0"></path><rect height="22" rx="10" ry="10" width="54.0" x="813.75" y="192"></rect><text x="840.75" y="207">"xt"</text></g><path d="M 867.75 203 a 10 10 0 0 0 10 -10 v -10 a 10 10 0 0 1 10 -10"></path></g><path d="M 897.75 173 h 10"></path></g></g><g class="non-terminal ">
<path d="M 168.25 38 h 0.0"></path><path d="M 185.25 38 h 0.0"></path><text class="comment" x="176.75" y="43">➋</text></g></g><path d="M 917.75 173 h 10"></path><path d="M 927.75 173 h 10"></path><g>
<path d="M 937.75 173 h 0.0"></path><path d="M 1048.75 173 h 0.0"></path><path d="M 937.75 173 h 20"></path><g class="terminal ">
<path d="M 957.75 173 h 12.75"></path><path d="M 1016.0 173 h 12.75"></path><rect height="22" rx="10" ry="10" width="45.5" x="970.5" y="162"></rect><text x="993.25" y="177">' '</text></g><path d="M 1028.75 173 h 20"></path><path d="M 937.75 173 a 10 10 0 0 1 10 10 v 10 a 10 10 0 0 0 10 10"></path><g class="terminal altterminal">
<path d="M 957.75 203 h 0.0"></path><path d="M 1028.75 203 h 0.0"></path><rect height="22" rx="10" ry="10" width="71.0" x="957.75" y="192"></rect><text x="993.25" y="207">TAGEND</text></g><path d="M 1028.75 203 a 10 10 0 0 0 10 -10 v -10 a 10 10 0 0 1 10 -10"></path></g></g><path d="M 1058.75 173 a 10 10 0 0 1 10 10 v 175 a 10 10 0 0 1 -10 10 h -974.5 a 10 10 0 0 0 -10 10 v 0 a 10 10 0 0 0 10 10"></path><g>
<path d="M 84.25 388 h 232.75"></path><path d="M 826.0 388 h 232.75"></path><g>
<path d="M 317.0 388 h 0.0"></path><path d="M 487.5 388 h 0.0"></path><path d="M 317.0 388 h 20"></path><g>
<path d="M 337.0 388 h 130.5"></path></g><path d="M 467.5 388 h 20"></path><path d="M 317.0 388 a 10 10 0 0 1 10 10 v 0 a 10 10 0 0 0 10 10"></path><g class="non-terminal ">
<path d="M 337.0 408 h 0.0"></path><path d="M 467.5 408 h 0.0"></path><rect height="22" width="130.5" x="337.0" y="397"></rect><text x="402.25" y="412">AttributesPre</text></g><path d="M 467.5 408 a 10 10 0 0 0 10 -10 v 0 a 10 10 0 0 1 10 -10"></path></g><path d="M 487.5 388 h 10"></path><path d="M 497.5 388 h 10"></path><g>
<path d="M 507.5 388 h 0.0"></path><path d="M 661.0 388 h 0.0"></path><path d="M 507.5 388 h 20"></path><g>
<path d="M 527.5 388 h 113.5"></path></g><path d="M 641.0 388 h 20"></path><path d="M 507.5 388 a 10 10 0 0 1 10 10 v 0 a 10 10 0 0 0 10 10"></path><g class="non-terminal ">
<path d="M 527.5 408 h 0.0"></path><path d="M 641.0 408 h 0.0"></path><rect height="22" width="113.5" x="527.5" y="397"></rect><text x="584.25" y="412">CharContent</text></g><path d="M 641.0 408 a 10 10 0 0 0 10 -10 v 0 a 10 10 0 0 1 10 -10"></path></g><path d="M 661.0 388 h 10"></path><path d="M 671.0 388 h 10"></path><g>
<path d="M 681.0 388 h 0.0"></path><path d="M 826.0 388 h 0.0"></path><path d="M 681.0 388 h 20"></path><g>
<path d="M 701.0 388 h 105.0"></path></g><path d="M 806.0 388 h 20"></path><path d="M 681.0 388 a 10 10 0 0 1 10 10 v 0 a 10 10 0 0 0 10 10"></path><g class="non-terminal ">
<path d="M 701.0 408 h 0.0"></path><path d="M 806.0 408 h 0.0"></path><rect height="22" width="105.0" x="701.0" y="397"></rect><text x="753.5" y="412">Attributes</text></g><path d="M 806.0 408 a 10 10 0 0 0 10 -10 v 0 a 10 10 0 0 1 10 -10"></path></g></g><path d="M 1058.75 388 a 10 10 0 0 1 10 10 v 29 a 10 10 0 0 1 -10 10 h -974.5 a 10 10 0 0 0 -10 10 v 0 a 10 10 0 0 0 10 10"></path><g>
<path d="M 84.25 457 h 394.75"></path><path d="M 664.0 457 h 394.75"></path><g class="terminal ">
<path d="M 479.0 457 h 0.0"></path><path d="M 533.0 457 h 0.0"></path><rect height="22" rx="10" ry="10" width="54.0" x="479.0" y="446"></rect><text x="506.0" y="461">'\\'</text></g><path d="M 533.0 457 h 10"></path><path d="M 543.0 457 h 10"></path><g class="terminal ">
<path d="M 553.0 457 h 0.0"></path><path d="M 598.5 457 h 0.0"></path><rect height="22" rx="10" ry="10" width="45.5" x="553.0" y="446"></rect><text x="575.75" y="461">⇐ ➋</text></g><path d="M 598.5 457 h 10"></path><path d="M 608.5 457 h 10"></path><g class="terminal ">
<path d="M 618.5 457 h 0.0"></path><path d="M 664.0 457 h 0.0"></path><rect height="22" rx="10" ry="10" width="45.5" x="618.5" y="446"></rect><text x="641.25" y="461">'&#42;'</text></g></g><path d="M 1058.75 457 h 10"></path><path d="M 1068.75 457 h 4.25"></path></g><path d="M 1073.0 457 h 20"></path><path d="M 50.0 173 a 10 10 0 0 1 10 10 v 426 a 10 10 0 0 0 10 10"></path><g>
<path d="M 70.0 619 h 0.0"></path><path d="M 70.0 619 h 10"></path><g>
<path d="M 80.0 619 h 10.0"></path><path d="M 1053.0 619 h 10.0"></path><g class="terminal ">
<path d="M 90.0 619 h 0.0"></path><path d="M 152.5 619 h 0.0"></path><rect height="22" rx="10" ry="10" width="62.5" x="90.0" y="608"></rect><text x="121.25" y="623">'\\+'</text></g><path d="M 152.5 619 h 10"></path><path d="M 162.5 619 h 10"></path><g>
<path d="M 172.5 619 h 0.0"></path><path d="M 922.0 619 h 0.0"></path><rect class="group-box" height="314" rx="10" ry="10" width="749.5" x="172.5" y="492"></rect><g>
<path d="M 172.5 619 h 10.0"></path><path d="M 912.0 619 h 10.0"></path><g>
<path d="M 182.5 619 h 0.0"></path><path d="M 912.0 619 h 0.0"></path><path d="M 182.5 619 a 10 10 0 0 0 10 -10 v -99 a 10 10 0 0 1 10 -10 h 565.5"></path><path d="M 352.0 798 h 540.0 a 10 10 0 0 0 10 -10 v -159 a 10 10 0 0 1 10 -10"></path><path d="M 182.5 619 h 10"></path><g>
<path d="M 192.5 619 h 10.0"></path><path d="M 322.0 619 h 10.0"></path><path d="M 202.5 619 a 10 10 0 0 0 10 -10 v -10 a 10 10 0 0 1 10 -10"></path><g class="terminal ">
<path d="M 222.5 589 h 12.75"></path><path d="M 289.25 589 h 12.75"></path><rect height="22" rx="10" ry="10" width="54.0" x="235.25" y="578"></rect><text x="262.25" y="593">"qs"</text></g><path d="M 302.0 589 a 10 10 0 0 1 10 10 v 10 a 10 10 0 0 0 10 10"></path><path d="M 202.5 619 a 10 10 0 0 0 10 -10 v -40 a 10 10 0 0 1 10 -10"></path><g class="terminal ">
<path d="M 222.5 559 h 8.5"></path><path d="M 293.5 559 h 8.5"></path><rect height="22" rx="10" ry="10" width="62.5" x="231.0" y="548"></rect><text x="262.25" y="563">"qac"</text></g><path d="M 302.0 559 a 10 10 0 0 1 10 10 v 40 a 10 10 0 0 0 10 10"></path><path d="M 202.5 619 a 10 10 0 0 0 10 -10 v -70 a 10 10 0 0 1 10 -10"></path><g class="terminal ">
<path d="M 222.5 529 h 12.75"></path><path d="M 289.25 529 h 12.75"></path><rect height="22" rx="10" ry="10" width="54.0" x="235.25" y="518"></rect><text x="262.25" y="533">"vp"</text></g><path d="M 302.0 529 a 10 10 0 0 1 10 10 v 70 a 10 10 0 0 0 10 10"></path><path d="M 202.5 619 h 20"></path><g class="terminal ">
<path d="M 222.5 619 h 8.5"></path><path d="M 293.5 619 h 8.5"></path><rect height="22" rx="10" ry="10" width="62.5" x="231.0" y="608"></rect><text x="262.25" y="623">"add"</text></g><path d="M 302.0 619 h 20"></path><path d="M 202.5 619 a 10 10 0 0 1 10 10 v 10 a 10 10 0 0 0 10 10"></path><g class="terminal ">
<path d="M 222.5 649 h 0.0"></path><path d="M 302.0 649 h 0.0"></path><rect height="22" rx="10" ry="10" width="79.5" x="222.5" y="638"></rect><text x="262.25" y="653">"addpn"</text></g><path d="M 302.0 649 a 10 10 0 0 0 10 -10 v -10 a 10 10 0 0 1 10 -10"></path><path d="M 202.5 619 a 10 10 0 0 1 10 10 v 40 a 10 10 0 0 0 10 10"></path><g class="terminal ">
<path d="M 222.5 679 h 12.75"></path><path d="M 289.25 679 h 12.75"></path><rect height="22" rx="10" ry="10" width="54.0" x="235.25" y="668"></rect><text x="262.25" y="683">"bk"</text></g><path d="M 302.0 679 a 10 10 0 0 0 10 -10 v -40 a 10 10 0 0 1 10 -10"></path><path d="M 202.5 619 a 10 10 0 0 1 10 10 v 70 a 10 10 0 0 0 10 10"></path><g class="terminal ">
<path d="M 222.5 709 h 12.75"></path><path d="M 289.25 709 h 12.75"></path><rect height="22" rx="10" ry="10" width="54.0" x="235.25" y="698"></rect><text x="262.25" y="713">"dc"</text></g><path d="M 302.0 709 a 10 10 0 0 0 10 -10 v -70 a 10 10 0 0 1 10 -10"></path><path d="M 202.5 619 a 10 10 0 0 1 10 10 v 100 a 10 10 0 0 0 10 10"></path><g class="terminal ">
<path d="M 222.5 739 h 8.5"></path><path d="M 293.5 739 h 8.5"></path><rect height="22" rx="10" ry="10" width="62.5" x="231.0" y="728"></rect><text x="262.25" y="743">"efm"</text></g><path d="M 302.0 739 a 10 10 0 0 0 10 -10 v -100 a 10 10 0 0 1 10 -10"></path><path d="M 202.5 619 a 10 10 0 0 1 10 10 v 130 a 10 10 0 0 0 10 10"></path><g class="terminal ">
<path d="M 222.5 769 h 12.75"></path><path d="M 289.25 769 h 12.75"></path><rect height="22" rx="10" ry="10" width="54.0" x="235.25" y="758"></rect><text x="262.25" y="773">"fm"</text></g><path d="M 302.0 769 a 10 10 0 0 0 10 -10 v -130 a 10 10 0 0 1 10 -10"></path></g><path d="M 332.0 619 a 10 10 0 0 1 10 10 v 159 a 10 10 0 0 0 10 10"></path><path d="M 332.0 500 a 10 10 0 0 1 10 10 v 99 a 10 10 0 0 0 10 10"></path><g>
<path d="M 352.0 619 h 10.0"></path><path d="M 464.5 619 h 10.0"></path><path d="M 362.0 619 a 10 10 0 0 0 10 -10 v -10 a 10 10 0 0 1 10 -10"></path><g class="terminal ">
<path d="M 382.0 589 h 4.25"></path><path d="M 440.25 589 h 4.25"></path><rect height="22" rx="10" ry="10" width="54.0" x="386.25" y="578"></rect><text x="413.25" y="593">"nd"</text></g><path d="M 444.5 589 a 10 10 0 0 1 10 10 v 10 a 10 10 0 0 0 10 10"></path><path d="M 362.0 619 a 10 10 0 0 0 10 -10 v -40 a 10 10 0 0 1 10 -10"></path><g class="terminal ">
<path d="M 382.0 559 h 8.5"></path><path d="M 436.0 559 h 8.5"></path><rect height="22" rx="10" ry="10" width="45.5" x="390.5" y="548"></rect><text x="413.25" y="563">"k"</text></g><path d="M 444.5 559 a 10 10 0 0 1 10 10 v 40 a 10 10 0 0 0 10 10"></path><path d="M 362.0 619 a 10 10 0 0 0 10 -10 v -70 a 10 10 0 0 1 10 -10"></path><g class="terminal ">
<path d="M 382.0 529 h 4.25"></path><path d="M 440.25 529 h 4.25"></path><rect height="22" rx="10" ry="10" width="54.0" x="386.25" y="518"></rect><text x="413.25" y="533">"fv"</text></g><path d="M 444.5 529 a 10 10 0 0 1 10 10 v 70 a 10 10 0 0 0 10 10"></path><path d="M 362.0 619 h 20"></path><g class="terminal ">
<path d="M 382.0 619 h 0.0"></path><path d="M 444.5 619 h 0.0"></path><rect height="22" rx="10" ry="10" width="62.5" x="382.0" y="608"></rect><text x="413.25" y="623">"ndx"</text></g><path d="M 444.5 619 h 20"></path><path d="M 362.0 619 a 10 10 0 0 1 10 10 v 10 a 10 10 0 0 0 10 10"></path><g class="terminal ">
<path d="M 382.0 649 h 0.0"></path><path d="M 444.5 649 h 0.0"></path><rect height="22" rx="10" ry="10" width="62.5" x="382.0" y="638"></rect><text x="413.25" y="653">"ord"</text></g><path d="M 444.5 649 a 10 10 0 0 0 10 -10 v -10 a 10 10 0 0 1 10 -10"></path><path d="M 362.0 619 a 10 10 0 0 1 10 10 v 40 a 10 10 0 0 0 10 10"></path><g class="terminal ">
<path d="M 382.0 679 h 4.25"></path><path d="M 440.25 679 h 4.25"></path><rect height="22" rx="10" ry="10" width="54.0" x="386.25" y="668"></rect><text x="413.25" y="683">"pl"</text></g><path d="M 444.5 679 a 10 10 0 0 0 10 -10 v -40 a 10 10 0 0 1 10 -10"></path><path d="M 362.0 619 a 10 10 0 0 1 10 10 v 70 a 10 10 0 0 0 10 10"></path><g class="terminal ">
<path d="M 382.0 709 h 0.0"></path><path d="M 444.5 709 h 0.0"></path><rect height="22" rx="10" ry="10" width="62.5" x="382.0" y="698"></rect><text x="413.25" y="713">"png"</text></g><path d="M 444.5 709 a 10 10 0 0 0 10 -10 v -70 a 10 10 0 0 1 10 -10"></path><path d="M 362.0 619 a 10 10 0 0 1 10 10 v 100 a 10 10 0 0 0 10 10"></path><g class="terminal ">
<path d="M 382.0 739 h 4.25"></path><path d="M 440.25 739 h 4.25"></path><rect height="22" rx="10" ry="10" width="54.0" x="386.25" y="728"></rect><text x="413.25" y="743">"pn"</text></g><path d="M 444.5 739 a 10 10 0 0 0 10 -10 v -100 a 10 10 0 0 1 10 -10"></path><path d="M 362.0 619 a 10 10 0 0 1 10 10 v 130 a 10 10 0 0 0 10 10"></path><g class="terminal ">
<path d="M 382.0 769 h 0.0"></path><path d="M 444.5 769 h 0.0"></path><rect height="22" rx="10" ry="10" width="62.5" x="382.0" y="758"></rect><text x="413.25" y="773">"pro"</text></g><path d="M 444.5 769 a 10 10 0 0 0 10 -10 v -130 a 10 10 0 0 1 10 -10"></path></g><path d="M 474.5 619 a 10 10 0 0 1 10 10 v 159 a 10 10 0 0 0 10 10"></path><path d="M 474.5 500 a 10 10 0 0 1 10 10 v 99 a 10 10 0 0 0 10 10"></path><g>
<path d="M 494.5 619 h 10.0"></path><path d="M 607.0 619 h 10.0"></path><path d="M 504.5 619 a 10 10 0 0 0 10 -10 v -10 a 10 10 0 0 1 10 -10"></path><g class="terminal ">
<path d="M 524.5 589 h 0.0"></path><path d="M 587.0 589 h 0.0"></path><rect height="22" rx="10" ry="10" width="62.5" x="524.5" y="578"></rect><text x="555.75" y="593">"sig"</text></g><path d="M 587.0 589 a 10 10 0 0 1 10 10 v 10 a 10 10 0 0 0 10 10"></path><path d="M 504.5 619 a 10 10 0 0 0 10 -10 v -40 a 10 10 0 0 1 10 -10"></path><g class="terminal ">
<path d="M 524.5 559 h 4.25"></path><path d="M 582.75 559 h 4.25"></path><rect height="22" rx="10" ry="10" width="54.0" x="528.75" y="548"></rect><text x="555.75" y="563">"rq"</text></g><path d="M 587.0 559 a 10 10 0 0 1 10 10 v 40 a 10 10 0 0 0 10 10"></path><path d="M 504.5 619 a 10 10 0 0 0 10 -10 v -70 a 10 10 0 0 1 10 -10"></path><g class="terminal ">
<path d="M 524.5 529 h 4.25"></path><path d="M 582.75 529 h 4.25"></path><rect height="22" rx="10" ry="10" width="54.0" x="528.75" y="518"></rect><text x="555.75" y="533">"qt"</text></g><path d="M 587.0 529 a 10 10 0 0 1 10 10 v 70 a 10 10 0 0 0 10 10"></path><path d="M 504.5 619 h 20"></path><g class="terminal ">
<path d="M 524.5 619 h 0.0"></path><path d="M 587.0 619 h 0.0"></path><rect height="22" rx="10" ry="10" width="62.5" x="524.5" y="608"></rect><text x="555.75" y="623">"sls"</text></g><path d="M 587.0 619 h 20"></path><path d="M 504.5 619 a 10 10 0 0 1 10 10 v 10 a 10 10 0 0 0 10 10"></path><g class="terminal ">
<path d="M 524.5 649 h 4.25"></path><path d="M 582.75 649 h 4.25"></path><rect height="22" rx="10" ry="10" width="54.0" x="528.75" y="638"></rect><text x="555.75" y="653">"tl"</text></g><path d="M 587.0 649 a 10 10 0 0 0 10 -10 v -10 a 10 10 0 0 1 10 -10"></path><path d="M 504.5 619 a 10 10 0 0 1 10 10 v 40 a 10 10 0 0 0 10 10"></path><g class="terminal ">
<path d="M 524.5 679 h 4.25"></path><path d="M 582.75 679 h 4.25"></path><rect height="22" rx="10" ry="10" width="54.0" x="528.75" y="668"></rect><text x="555.75" y="683">"wg"</text></g><path d="M 587.0 679 a 10 10 0 0 0 10 -10 v -40 a 10 10 0 0 1 10 -10"></path><path d="M 504.5 619 a 10 10 0 0 1 10 10 v 70 a 10 10 0 0 0 10 10"></path><g class="terminal ">
<path d="M 524.5 709 h 4.25"></path><path d="M 582.75 709 h 4.25"></path><rect height="22" rx="10" ry="10" width="54.0" x="528.75" y="698"></rect><text x="555.75" y="713">"wh"</text></g><path d="M 587.0 709 a 10 10 0 0 0 10 -10 v -70 a 10 10 0 0 1 10 -10"></path><path d="M 504.5 619 a 10 10 0 0 1 10 10 v 100 a 10 10 0 0 0 10 10"></path><g class="terminal ">
<path d="M 524.5 739 h 4.25"></path><path d="M 582.75 739 h 4.25"></path><rect height="22" rx="10" ry="10" width="54.0" x="528.75" y="728"></rect><text x="555.75" y="743">"wa"</text></g><path d="M 587.0 739 a 10 10 0 0 0 10 -10 v -100 a 10 10 0 0 1 10 -10"></path><path d="M 504.5 619 a 10 10 0 0 1 10 10 v 130 a 10 10 0 0 0 10 10"></path><g class="terminal ">
<path d="M 524.5 769 h 4.25"></path><path d="M 582.75 769 h 4.25"></path><rect height="22" rx="10" ry="10" width="54.0" x="528.75" y="758"></rect><text x="555.75" y="773">"wj"</text></g><path d="M 587.0 769 a 10 10 0 0 0 10 -10 v -130 a 10 10 0 0 1 10 -10"></path></g><path d="M 617.0 619 a 10 10 0 0 1 10 10 v 159 a 10 10 0 0 0 10 10"></path><path d="M 617.0 500 a 10 10 0 0 1 10 10 v 99 a 10 10 0 0 0 10 10"></path><g>
<path d="M 637.0 619 h 10.0"></path><path d="M 758.0 619 h 10.0"></path><path d="M 647.0 619 a 10 10 0 0 0 10 -10 v -10 a 10 10 0 0 1 10 -10"></path><g class="terminal ">
<path d="M 667.0 589 h 8.5"></path><path d="M 729.5 589 h 8.5"></path><rect height="22" rx="10" ry="10" width="54.0" x="675.5" y="578"></rect><text x="702.5" y="593">"no"</text></g><path d="M 738.0 589 a 10 10 0 0 1 10 10 v 10 a 10 10 0 0 0 10 10"></path><path d="M 647.0 619 a 10 10 0 0 0 10 -10 v -40 a 10 10 0 0 1 10 -10"></path><g class="terminal ">
<path d="M 667.0 559 h 4.25"></path><path d="M 733.75 559 h 4.25"></path><rect height="22" rx="10" ry="10" width="62.5" x="671.25" y="548"></rect><text x="702.5" y="563">"jmp"</text></g><path d="M 738.0 559 a 10 10 0 0 1 10 10 v 40 a 10 10 0 0 0 10 10"></path><path d="M 647.0 619 a 10 10 0 0 0 10 -10 v -70 a 10 10 0 0 1 10 -10"></path><g class="terminal ">
<path d="M 667.0 529 h 8.5"></path><path d="M 729.5 529 h 8.5"></path><rect height="22" rx="10" ry="10" width="54.0" x="675.5" y="518"></rect><text x="702.5" y="533">"wl"</text></g><path d="M 738.0 529 a 10 10 0 0 1 10 10 v 70 a 10 10 0 0 0 10 10"></path><path d="M 647.0 619 h 20"></path><g class="terminal ">
<path d="M 667.0 619 h 8.5"></path><path d="M 729.5 619 h 8.5"></path><rect height="22" rx="10" ry="10" width="54.0" x="675.5" y="608"></rect><text x="702.5" y="623">"it"</text></g><path d="M 738.0 619 h 20"></path><path d="M 647.0 619 a 10 10 0 0 1 10 10 v 10 a 10 10 0 0 0 10 10"></path><g class="terminal ">
<path d="M 667.0 649 h 0.0"></path><path d="M 738.0 649 h 0.0"></path><rect height="22" rx="10" ry="10" width="71.0" x="667.0" y="638"></rect><text x="702.5" y="653">"bdit"</text></g><path d="M 738.0 649 a 10 10 0 0 0 10 -10 v -10 a 10 10 0 0 1 10 -10"></path><path d="M 647.0 619 a 10 10 0 0 1 10 10 v 40 a 10 10 0 0 0 10 10"></path><g class="terminal ">
<path d="M 667.0 679 h 8.5"></path><path d="M 729.5 679 h 8.5"></path><rect height="22" rx="10" ry="10" width="54.0" x="675.5" y="668"></rect><text x="702.5" y="683">"bd"</text></g><path d="M 738.0 679 a 10 10 0 0 0 10 -10 v -40 a 10 10 0 0 1 10 -10"></path><path d="M 647.0 619 a 10 10 0 0 1 10 10 v 70 a 10 10 0 0 0 10 10"></path><g class="terminal ">
<path d="M 667.0 709 h 8.5"></path><path d="M 729.5 709 h 8.5"></path><rect height="22" rx="10" ry="10" width="54.0" x="675.5" y="698"></rect><text x="702.5" y="713">"em"</text></g><path d="M 738.0 709 a 10 10 0 0 0 10 -10 v -70 a 10 10 0 0 1 10 -10"></path><path d="M 647.0 619 a 10 10 0 0 1 10 10 v 100 a 10 10 0 0 0 10 10"></path><g class="terminal ">
<path d="M 667.0 739 h 8.5"></path><path d="M 729.5 739 h 8.5"></path><rect height="22" rx="10" ry="10" width="54.0" x="675.5" y="728"></rect><text x="702.5" y="743">"sc"</text></g><path d="M 738.0 739 a 10 10 0 0 0 10 -10 v -100 a 10 10 0 0 1 10 -10"></path><path d="M 647.0 619 a 10 10 0 0 1 10 10 v 130 a 10 10 0 0 0 10 10"></path><g class="terminal ">
<path d="M 667.0 769 h 4.25"></path><path d="M 733.75 769 h 4.25"></path><rect height="22" rx="10" ry="10" width="62.5" x="671.25" y="758"></rect><text x="702.5" y="773">"sup"</text></g><path d="M 738.0 769 a 10 10 0 0 0 10 -10 v -130 a 10 10 0 0 1 10 -10"></path></g><path d="M 768.0 619 a 10 10 0 0 1 10 10 v 159 a 10 10 0 0 0 10 10"></path><path d="M 768.0 500 a 10 10 0 0 1 10 10 v 99 a 10 10 0 0 0 10 10"></path><g>
<path d="M 788.0 619 h 10.0"></path><path d="M 892.0 619 h 10.0"></path><path d="M 798.0 619 a 10 10 0 0 0 10 -10 v -10 a 10 10 0 0 1 10 -10"></path><g class="terminal ">
<path d="M 818.0 589 h 0.0"></path><path d="M 872.0 589 h 0.0"></path><rect height="22" rx="10" ry="10" width="54.0" x="818.0" y="578"></rect><text x="845.0" y="593">"rb"</text></g><path d="M 872.0 589 a 10 10 0 0 1 10 10 v 10 a 10 10 0 0 0 10 10"></path><path d="M 798.0 619 a 10 10 0 0 0 10 -10 v -40 a 10 10 0 0 1 10 -10"></path><g class="terminal ">
<path d="M 818.0 559 h 4.25"></path><path d="M 867.75 559 h 4.25"></path><rect height="22" rx="10" ry="10" width="45.5" x="822.25" y="548"></rect><text x="845.0" y="563">"w"</text></g><path d="M 872.0 559 a 10 10 0 0 1 10 10 v 40 a 10 10 0 0 0 10 10"></path><path d="M 798.0 619 a 10 10 0 0 0 10 -10 v -70 a 10 10 0 0 1 10 -10"></path><g class="terminal ">
<path d="M 818.0 529 h 0.0"></path><path d="M 872.0 529 h 0.0"></path><rect height="22" rx="10" ry="10" width="54.0" x="818.0" y="518"></rect><text x="845.0" y="533">"xt"</text></g><path d="M 872.0 529 a 10 10 0 0 1 10 10 v 70 a 10 10 0 0 0 10 10"></path><path d="M 798.0 619 h 20"></path><g class="terminal ">
<path d="M 818.0 619 h 0.0"></path><path d="M 872.0 619 h 0.0"></path><rect height="22" rx="10" ry="10" width="54.0" x="818.0" y="608"></rect><text x="845.0" y="623">"ta"</text></g><path d="M 872.0 619 h 20"></path><path d="M 798.0 619 a 10 10 0 0 1 10 10 v 10 a 10 10 0 0 0 10 10"></path><g class="terminal ">
<path d="M 818.0 649 h 0.0"></path><path d="M 872.0 649 h 0.0"></path><rect height="22" rx="10" ry="10" width="54.0" x="818.0" y="638"></rect><text x="845.0" y="653">"xt"</text></g><path d="M 872.0 649 a 10 10 0 0 0 10 -10 v -10 a 10 10 0 0 1 10 -10"></path></g><path d="M 902.0 619 h 10"></path></g></g><g class="non-terminal ">
<path d="M 172.5 484 h 0.0"></path><path d="M 189.5 484 h 0.0"></path><text class="comment" x="181.0" y="489">➌</text></g></g><path d="M 922.0 619 h 10"></path><path d="M 932.0 619 h 10"></path><g>
<path d="M 942.0 619 h 0.0"></path><path d="M 1053.0 619 h 0.0"></path><path d="M 942.0 619 h 20"></path><g class="terminal ">
<path d="M 962.0 619 h 12.75"></path><path d="M 1020.25 619 h 12.75"></path><rect height="22" rx="10" ry="10" width="45.5" x="974.75" y="608"></rect><text x="997.5" y="623">' '</text></g><path d="M 1033.0 619 h 20"></path><path d="M 942.0 619 a 10 10 0 0 1 10 10 v 10 a 10 10 0 0 0 10 10"></path><g class="terminal altterminal">
<path d="M 962.0 649 h 0.0"></path><path d="M 1033.0 649 h 0.0"></path><rect height="22" rx="10" ry="10" width="71.0" x="962.0" y="638"></rect><text x="997.5" y="653">TAGEND</text></g><path d="M 1033.0 649 a 10 10 0 0 0 10 -10 v -10 a 10 10 0 0 1 10 -10"></path></g></g><path d="M 1063.0 619 a 10 10 0 0 1 10 10 v 175 a 10 10 0 0 1 -10 10 h -983.0 a 10 10 0 0 0 -10 10 v 0 a 10 10 0 0 0 10 10"></path><g>
<path d="M 80.0 834 h 237.0"></path><path d="M 826.0 834 h 237.0"></path><g>
<path d="M 317.0 834 h 0.0"></path><path d="M 487.5 834 h 0.0"></path><path d="M 317.0 834 h 20"></path><g>
<path d="M 337.0 834 h 130.5"></path></g><path d="M 467.5 834 h 20"></path><path d="M 317.0 834 a 10 10 0 0 1 10 10 v 0 a 10 10 0 0 0 10 10"></path><g class="non-terminal ">
<path d="M 337.0 854 h 0.0"></path><path d="M 467.5 854 h 0.0"></path><rect height="22" width="130.5" x="337.0" y="843"></rect><text x="402.25" y="858">AttributesPre</text></g><path d="M 467.5 854 a 10 10 0 0 0 10 -10 v 0 a 10 10 0 0 1 10 -10"></path></g><path d="M 487.5 834 h 10"></path><path d="M 497.5 834 h 10"></path><g>
<path d="M 507.5 834 h 0.0"></path><path d="M 661.0 834 h 0.0"></path><path d="M 507.5 834 h 20"></path><g>
<path d="M 527.5 834 h 113.5"></path></g><path d="M 641.0 834 h 20"></path><path d="M 507.5 834 a 10 10 0 0 1 10 10 v 0 a 10 10 0 0 0 10 10"></path><g class="non-terminal ">
<path d="M 527.5 854 h 0.0"></path><path d="M 641.0 854 h 0.0"></path><rect height="22" width="113.5" x="527.5" y="843"></rect><text x="584.25" y="858">CharContent</text></g><path d="M 641.0 854 a 10 10 0 0 0 10 -10 v 0 a 10 10 0 0 1 10 -10"></path></g><path d="M 661.0 834 h 10"></path><path d="M 671.0 834 h 10"></path><g>
<path d="M 681.0 834 h 0.0"></path><path d="M 826.0 834 h 0.0"></path><path d="M 681.0 834 h 20"></path><g>
<path d="M 701.0 834 h 105.0"></path></g><path d="M 806.0 834 h 20"></path><path d="M 681.0 834 a 10 10 0 0 1 10 10 v 0 a 10 10 0 0 0 10 10"></path><g class="non-terminal ">
<path d="M 701.0 854 h 0.0"></path><path d="M 806.0 854 h 0.0"></path><rect height="22" width="105.0" x="701.0" y="843"></rect><text x="753.5" y="858">Attributes</text></g><path d="M 806.0 854 a 10 10 0 0 0 10 -10 v 0 a 10 10 0 0 1 10 -10"></path></g></g><path d="M 1063.0 834 a 10 10 0 0 1 10 10 v 29 a 10 10 0 0 1 -10 10 h -983.0 a 10 10 0 0 0 -10 10 v 0 a 10 10 0 0 0 10 10"></path><g>
<path d="M 80.0 903 h 394.75"></path><path d="M 668.25 903 h 394.75"></path><g class="terminal ">
<path d="M 474.75 903 h 0.0"></path><path d="M 537.25 903 h 0.0"></path><rect height="22" rx="10" ry="10" width="62.5" x="474.75" y="892"></rect><text x="506.0" y="907">'\\+'</text></g><path d="M 537.25 903 h 10"></path><path d="M 547.25 903 h 10"></path><g class="terminal ">
<path d="M 557.25 903 h 0.0"></path><path d="M 602.75 903 h 0.0"></path><rect height="22" rx="10" ry="10" width="45.5" x="557.25" y="892"></rect><text x="580.0" y="907">⇐ ➌</text></g><path d="M 602.75 903 h 10"></path><path d="M 612.75 903 h 10"></path><g class="terminal ">
<path d="M 622.75 903 h 0.0"></path><path d="M 668.25 903 h 0.0"></path><rect height="22" rx="10" ry="10" width="45.5" x="622.75" y="892"></rect><text x="645.5" y="907">'&#42;'</text></g></g><path d="M 1063.0 903 h 10"></path><path d="M 1073.0 903 h 0.0"></path></g><path d="M 1073.0 903 a 10 10 0 0 0 10 -10 v -426 a 10 10 0 0 1 10 -10"></path></g></g><path d="M 1093.0 457 h 10"></path><path d="M 1103.0 457 h 20 m 0 -10 v 20"></path></g></svg>