<svg class="railroad-diagram" height="746" viewBox="0 0 2156.0 746" width="2156.0" xmlns="http://www.w3.org/2000/svg" xmlns:xlink="http://www.w3.org/1999/xlink">
<g transform="translate(.5 .5)">
<style>/* <![CDATA[ */

    svg.railroad-diagram {
        background-color: hsl(30,20%,95%);
    }
    svg.railroad-diagram path {
        stroke-width: 2;
        stroke: black;
        fill: none;
    }
    svg.railroad-diagram text {
        font-size: 12px;
        text-anchor: middle;
        font-family: DejaVu Sans;
    }
    svg.railroad-diagram text.label {
        text-anchor:start;
    }
    svg.railroad-diagram text.comment {
        font-family: DejaVu Sans;
        font-size: 14px;
    }
    svg.railroad-diagram rect{
        stroke-width: 2;
        stroke: black;
        fill: rgb(210, 255, 210);
    }
    svg.railroad-diagram rect.group-box {
        stroke: gray;
        stroke-dasharray: 10 5;
        fill: none;
    }
    .terminal {
        font-family: DejaVu Sans;
    }
    svg.railroad-diagram g.altterminal rect {
        fill: rgb(251, 252, 207)
    }

/* ]]> */
</style><g>
<path d="M 20 163 v 20 m 0 -10 h 20"></path></g><path d="M 40 173 h 10"></path><g>
<path d="M 50 173 h 0.0"></path><path d="M 2106.0 173 h 0.0"></path><g>
<path d="M 50.0 173 h 0.0"></path><path d="M 2106.0 173 h 0.0"></path><path d="M 50.0 173 h 20"></path><g>
<path d="M 70.0 173 h 0.0"></path><path d="M 2086.0 173 h 0.0"></path><g>
<path d="M 70.0 173 h 0.0"></path><g>
<path d="M 70.0 173 h 10.0"></path><path d="M 1043.0 173 h 10.0"></path><g class="terminal ">
<path d="M 80.0 173 h 0.0"></path><path d="M 142.5 173 h 0.0"></path><rect height="22" rx="10" ry="10" width="62.5" x="80.0" y="162"></rect><text x="111.25" y="177">'\\+'</text></g><path d="M 142.5 173 h 10"></path><path d="M 152.5 173 h 10"></path><g>
<path d="M 162.5 173 h 0.0"></path><path d="M 912.0 173 h 0.0"></path><rect class="group-box" height="314" rx="10" ry="10" width="749.5" x="162.5" y="46"></rect><g>
<path d="M 162.5 173 h 10.0"></path><path d="M 902.0 173 h 10.0"></path><g>
<path d="M 172.5 173 h 0.0"></path><path d="M 902.0 173 h 0.0"></path><path d="M 172.5 173 a 10 10 0 0 0 10 -10 v -99 a 10 10 0 0 1 10 -10 h 565.5"></path><path d="M 342.0 352 h 540.0 a 10 10 0 0 0 10 -10 v -159 a 10 10 0 0 1 10 -10"></path><path d="M 172.5 173 h 10"></path><g>
<path d="M 182.5 173 h 10.0"></path><path d="M 312.0 173 h 10.0"></path><path d="M 192.5 173 a 10 10 0 0 0 10 -10 v -10 a 10 10 0 0 1 10 -10"></path><g class="terminal ">
<path d="M 212.5 143 h 12.75"></path><path d="M 279.25 143 h 12.75"></path><rect height="22" rx="10" ry="10" width="54.0" x="225.25" y="132"></rect><text x="252.25" y="147">"qs"</text></g><path d="M 292.0 143 a 10 10 0 0 1 10 10 v 10 a 10 10 0 0 0 10 10"></path><path d="M 192.5 173 a 10 10 0 0 0 10 -10 v -40 a 10 10 0 0 1 10 -10"></path><g class="terminal ">
<path d="M 212.5 113 h 8.5"></path><path d="M 283.5 113 h 8.5"></path><rect height="22" rx="10" ry="10" width="62.5" x="221.0" y="102"></rect><text x="252.25" y="117">"qac"</text></g><path d="M 292.0 113 a 10 10 0 0 1 10 10 v 40 a 10 10 0 0 0 10 10"></path><path d="M 192.5 173 a 10 10 0 0 0 10 -10 v -70 a 10 10 0 0 1 10 -10"></path><g class="terminal ">
<path d="M 212.5 83 h 12.75"></path><path d="M 279.25 83 h 12.75"></path><rect height="22" rx="10" ry="10" width="54.0" x="225.25" y="72"></rect><text x="252.25" y="87">"vp"</text></g><path d="M 292.0 83 a 10 10 0 0 1 10 10 v 70 a 10 10 0 0 0 10 10"></path><path d="M 192.5 173 h 20"></path><g class="terminal ">
<path d="M 212.5 173 h 8.5"></path><path d="M 283.5 173 h 8.5"></path><rect height="22" rx="10" ry="10" width="62.5" x="221.0" y="162"></rect><text x="252.25" y="177">"add"</text></g><path d="M 292.0 173 h 20"></path><path d="M 192.5 173 a 10 10 0 0 1 10 10 v 10 a 10 10 0 0 0 10 10"></path><g class="terminal ">
<path d="M 212.5 203 h 0.0"></path><path d="M 292.0 203 h 0.0"></path><rect height="22" rx="10" ry="10" width="79.5" x="212.5" y="192"></rect><text x="252.25" y="207">"addpn"</text></g><path d="M 292.0 203 a 10 10 0 0 0 10 -10 v -10 a 10 10 0 0 1 10 -10"></path><path d="M 192.5 173 a 10 10 0 0 1 10 10 v 40 a 10 10 0 0 0 10 10"></path><g class="terminal ">
<path d="M 212.5 233 h 12.75"></path><path d="M 279.25 233 h 12.75"></path><rect height="22" rx="10" ry="10" width="54.0" x="225.25" y="222"></rect><text x="252.25" y="237">"bk"</text></g><path d="M 292.0 233 a 10 10 0 0 0 10 -10 v -40 a 10 10 0 0 1 10 -10"></path><path d="M 192.5 173 a 10 10 0 0 1 10 10 v 70 a 10 10 0 0 0 10 10"></path><g class="terminal ">
<path d="M 212.5 263 h 12.75"></path><path d="M 279.25 263 h 12.75"></path><rect height="22" rx="10" ry="10" width="54.0" x="225.25" y="252"></rect><text x="252.25" y="267">"dc"</text></g><path d="M 292.0 263 a 10 10 0 0 0 10 -10 v -70 a 10 10 0 0 1 10 -10"></path><path d="M 192.5 173 a 10 10 0 0 1 10 10 v 100 a 10 10 0 0 0 10 10"></path><g class="terminal ">
<path d="M 212.5 293 h 8.5"></path><path d="M 283.5 293 h 8.5"></path><rect height="22" rx="10" ry="10" width="62.5" x="221.0" y="282"></rect><text x="252.25" y="297">"efm"</text></g><path d="M 292.0 293 a 10 10 0 0 0 10 -10 v -100 a 10 10 0 0 1 10 -10"></path><path d="M 192.5 173 a 10 10 0 0 1 10 10 v 130 a 10 10 0 0 0 10 10"></path><g class="terminal ">
<path d="M 212.5 323 h 12.75"></path><path d="M 279.25 323 h 12.75"></path><rect height="22" rx="10" ry="10" width="54.0" x="225.25" y="312"></rect><text x="252.25" y="327">"fm"</text></g><path d="M 292.0 323 a 10 10 0 0 0 10 -10 v -130 a 10 10 0 0 1 10 -10"></path></g><path d="M 322.0 173 a 10 10 0 0 1 10 10 v 159 a 10 10 0 0 0 10 10"></path><path d="M 322.0 54 a 10 10 0 0 1 10 10 v 99 a 10 10 0 0 0 10 10"></path><g>
<path d="M 342.0 173 h 10.0"></path><path d="M 454.5 173 h 10.0"></path><path d="M 352.0 173 a 10 10 0 0 0 10 -10 v -10 a 10 10 0 0 1 10 -10"></path><g class="terminal ">
<path d="M 372.0 143 h 0.0"></path><path d="M 434.5 143 h 0.0"></path><rect height="22" rx="10" ry="10" width="62.5" x="372.0" y="132"></rect><text x="403.25" y="147">"ndx"</text></g><path d="M 434.5 143 a 10 10 0 0 1 10 10 v 10 a 10 10 0 0 0 10 10"></path><path d="M 352.0 173 a 10 10 0 0 0 10 -10 v -40 a 10 10 0 0 1 10 -10"></path><g class="terminal ">
<path d="M 372.0 113 h 4.25"></path><path d="M 430.25 113 h 4.25"></path><rect height="22" rx="10" ry="10" width="54.0" x="376.25" y="102"></rect><text x="403.25" y="117">"nd"</text></g><path d="M 434.5 113 a 10 10 0 0 1 10 10 v 40 a 10 10 0 0 0 10 10"></path><path d="M 352.0 173 a 10 10 0 0 0 10 -10 v -70 a 10 10 0 0 1 10 -10"></path><g class="terminal ">
<path d="M 372.0 83 h 8.5"></path><path d="M 426.0 83 h 8.5"></path><rect height="22" rx="10" ry="10" width="45.5" x="380.5" y="72"></rect><text x="403.25" y="87">"k"</text></g><path d="M 434.5 83 a 10 10 0 0 1 10 10 v 70 a 10 10 0 0 0 10 10"></path><path d="M 352.0 173 h 20"></path><g class="terminal ">
<path d="M 372.0 173 h 0.0"></path><path d="M 434.5 173 h 0.0"></path><rect height="22" rx="10" ry="10" width="62.5" x="372.0" y="162"></rect><text x="403.25" y="177">"ord"</text></g><path d="M 434.5 173 h 20"></path><path d="M 352.0 173 a 10 10 0 0 1 10 10 v 10 a 10 10 0 0 0 10 10"></path><g class="terminal ">
<path d="M 372.0 203 h 0.0"></path><path d="M 434.5 203 h 0.0"></path><rect height="22" rx="10" ry="10" width="62.5" x="372.0" y="192"></rect><text x="403.25" y="207">"png"</text></g><path d="M 434.5 203 a 10 10 0 0 0 10 -10 v -10 a 10 10 0 0 1 10 -10"></path><path d="M 352.0 173 a 10 10 0 0 1 10 10 v 40 a 10 10 0 0 0 10 10"></path><g class="terminal ">
<path d="M 372.0 233 h 4.25"></path><path d="M 430.25 233 h 4.25"></path><rect height="22" rx="10" ry="10" width="54.0" x="376.25" y="222"></rect><text x="403.25" y="237">"pn"</text></g><path d="M 434.5 233 a 10 10 0 0 0 10 -10 v -40 a 10 10 0 0 1 10 -10"></path><path d="M 352.0 173 a 10 10 0 0 1 10 10 v 70 a 10 10 0 0 0 10 10"></path><g class="terminal ">
<path d="M 372.0 263 h 0.0"></path><path d="M 434.5 263 h 0.0"></path><rect height="22" rx="10" ry="10" width="62.5" x="372.0" y="252"></rect><text x="403.25" y="267">"pro"</text></g><path d="M 434.5 263 a 10 10 0 0 0 10 -10 v -70 a 10 10 0 0 1 10 -10"></path><path d="M 352.0 173 a 10 10 0 0 1 10 10 v 100 a 10 10 0 0 0 10 10"></path><g class="terminal ">
<path d="M 372.0 293 h 4.25"></path><path d="M 430.25 293 h 4.25"></path><rect height="22" rx="10" ry="10" width="54.0" x="376.25" y="282"></rect><text x="403.25" y="297">"qt"</text></g><path d="M 434.5 293 a 10 10 0 0 0 10 -10 v -100 a 10 10 0 0 1 10 -10"></path><path d="M 352.0 173 a 10 10 0 0 1 10 10 v 130 a 10 10 0 0 0 10 10"></path><g class="terminal ">
<path d="M 372.0 323 h 4.25"></path><path d="M 430.25 323 h 4.25"></path><rect height="22" rx="10" ry="10" width="54.0" x="376.25" y="312"></rect><text x="403.25" y="327">"rq"</text></g><path d="M 434.5 323 a 10 10 0 0 0 10 -10 v -130 a 10 10 0 0 1 10 -10"></path></g><path d="M 464.5 173 a 10 10 0 0 1 10 10 v 159 a 10 10 0 0 0 10 10"></path><path d="M 464.5 54 a 10 10 0 0 1 10 10 v 99 a 10 10 0 0 0 10 10"></path><g>
<path d="M 484.5 173 h 10.0"></path><path d="M 597.0 173 h 10.0"></path><path d="M 494.5 173 a 10 10 0 0 0 10 -10 v -10 a 10 10 0 0 1 10 -10"></path><g class="terminal ">
<path d="M 514.5 143 h 4.25"></path><path d="M 572.75 143 h 4.25"></path><rect height="22" rx="10" ry="10" width="54.0" x="518.75" y="132"></rect><text x="545.75" y="147">"tl"</text></g><path d="M 577.0 143 a 10 10 0 0 1 10 10 v 10 a 10 10 0 0 0 10 10"></path><path d="M 494.5 173 a 10 10 0 0 0 10 -10 v -40 a 10 10 0 0 1 10 -10"></path><g class="terminal ">
<path d="M 514.5 113 h 0.0"></path><path d="M 577.0 113 h 0.0"></path><rect height="22" rx="10" ry="10" width="62.5" x="514.5" y="102"></rect><text x="545.75" y="117">"sls"</text></g><path d="M 577.0 113 a 10 10 0 0 1 10 10 v 40 a 10 10 0 0 0 10 10"></path><path d="M 494.5 173 a 10 10 0 0 0 10 -10 v -70 a 10 10 0 0 1 10 -10"></path><g class="terminal ">
<path d="M 514.5 83 h 0.0"></path><path d="M 577.0 83 h 0.0"></path><rect height="22" rx="10" ry="10" width="62.5" x="514.5" y="72"></rect><text x="545.75" y="87">"sig"</text></g><path d="M 577.0 83 a 10 10 0 0 1 10 10 v 70 a 10 10 0 0 0 10 10"></path><path d="M 494.5 173 h 20"></path><g class="terminal ">
<path d="M 514.5 173 h 4.25"></path><path d="M 572.75 173 h 4.25"></path><rect height="22" rx="10" ry="10" width="54.0" x="518.75" y="162"></rect><text x="545.75" y="177">"wg"</text></g><path d="M 577.0 173 h 20"></path><path d="M 494.5 173 a 10 10 0 0 1 10 10 v 10 a 10 10 0 0 0 10 10"></path><g class="terminal ">
<path d="M 514.5 203 h 4.25"></path><path d="M 572.75 203 h 4.25"></path><rect height="22" rx="10" ry="10" width="54.0" x="518.75" y="192"></rect><text x="545.75" y="207">"wh"</text></g><path d="M 577.0 203 a 10 10 0 0 0 10 -10 v -10 a 10 10 0 0 1 10 -10"></path><path d="M 494.5 173 a 10 10 0 0 1 10 10 v 40 a 10 10 0 0 0 10 10"></path><g class="terminal ">
<path d="M 514.5 233 h 4.25"></path><path d="M 572.75 233 h 4.25"></path><rect height="22" rx="10" ry="10" width="54.0" x="518.75" y="222"></rect><text x="545.75" y="237">"wa"</text></g><path d="M 577.0 233 a 10 10 0 0 0 10 -10 v -40 a 10 10 0 0 1 10 -10"></path><path d="M 494.5 173 a 10 10 0 0 1 10 10 v 70 a 10 10 0 0 0 10 10"></path><g class="terminal ">
<path d="M 514.5 263 h 4.25"></path><path d="M 572.75 263 h 4.25"></path><rect height="22" rx="10" ry="10" width="54.0" x="518.75" y="252"></rect><text x="545.75" y="267">"wj"</text></g><path d="M 577.0 263 a 10 10 0 0 0 10 -10 v -70 a 10 10 0 0 1 10 -10"></path><path d="M 494.5 173 a 10 10 0 0 1 10 10 v 100 a 10 10 0 0 0 10 10"></path><g class="terminal ">
<path d="M 514.5 293 h 0.0"></path><path d="M 577.0 293 h 0.0"></path><rect height="22" rx="10" ry="10" width="62.5" x="514.5" y="282"></rect><text x="545.75" y="297">"jmp"</text></g><path d="M 577.0 293 a 10 10 0 0 0 10 -10 v -100 a 10 10 0 0 1 10 -10"></path><path d="M 494.5 173 a 10 10 0 0 1 10 10 v 130 a 10 10 0 0 0 10 10"></path><g class="terminal ">
<path d="M 514.5 323 h 4.25"></path><path d="M 572.75 323 h 4.25"></path><rect height="22" rx="10" ry="10" width="54.0" x="518.75" y="312"></rect><text x="545.75" y="327">"no"</text></g><path d="M 577.0 323 a 10 10 0 0 0 10 -10 v -130 a 10 10 0 0 1 10 -10"></path></g><path d="M 607.0 173 a 10 10 0 0 1 10 10 v 159 a 10 10 0 0 0 10 10"></path><path d="M 607.0 54 a 10 10 0 0 1 10 10 v 99 a 10 10 0 0 0 10 10"></path><g>
<path d="M 627.0 173 h 10.0"></path><path d="M 748.0 173 h 10.0"></path><path d="M 637.0 173 a 10 10 0 0 0 10 -10 v -10 a 10 10 0 0 1 10 -10"></path><g class="terminal ">
<path d="M 657.0 143 h 8.5"></path><path d="M 719.5 143 h 8.5"></path><rect height="22" rx="10" ry="10" width="54.0" x="665.5" y="132"></rect><text x="692.5" y="147">"bd"</text></g><path d="M 728.0 143 a 10 10 0 0 1 10 10 v 10 a 10 10 0 0 0 10 10"></path><path d="M 637.0 173 a 10 10 0 0 0 10 -10 v -40 a 10 10 0 0 1 10 -10"></path><g class="terminal ">
<path d="M 657.0 113 h 0.0"></path><path d="M 728.0 113 h 0.0"></path><rect height="22" rx="10" ry="10" width="71.0" x="657.0" y="102"></rect><text x="692.5" y="117">"bdit"</text></g><path d="M 728.0 113 a 10 10 0 0 1 10 10 v 40 a 10 10 0 0 0 10 10"></path><path d="M 637.0 173 a 10 10 0 0 0 10 -10 v -70 a 10 10 0 0 1 10 -10"></path><g class="terminal ">
<path d="M 657.0 83 h 8.5"></path><path d="M 719.5 83 h 8.5"></path><rect height="22" rx="10" ry="10" width="54.0" x="665.5" y="72"></rect><text x="692.5" y="87">"it"</text></g><path d="M 728.0 83 a 10 10 0 0 1 10 10 v 70 a 10 10 0 0 0 10 10"></path><path d="M 637.0 173 h 20"></path><g class="terminal ">
<path d="M 657.0 173 h 8.5"></path><path d="M 719.5 173 h 8.5"></path><rect height="22" rx="10" ry="10" width="54.0" x="665.5" y="162"></rect><text x="692.5" y="177">"em"</text></g><path d="M 728.0 173 h 20"></path><path d="M 637.0 173 a 10 10 0 0 1 10 10 v 10 a 10 10 0 0 0 10 10"></path><g class="terminal ">
<path d="M 657.0 203 h 8.5"></path><path d="M 719.5 203 h 8.5"></path><rect height="22" rx="10" ry="10" width="54.0" x="665.5" y="192"></rect><text x="692.5" y="207">"sc"</text></g><path d="M 728.0 203 a 10 10 0 0 0 10 -10 v -10 a 10 10 0 0 1 10 -10"></path><path d="M 637.0 173 a 10 10 0 0 1 10 10 v 40 a 10 10 0 0 0 10 10"></path><g class="terminal ">
<path d="M 657.0 233 h 4.25"></path><path d="M 723.75 233 h 4.25"></path><rect height="22" rx="10" ry="10" width="62.5" x="661.25" y="222"></rect><text x="692.5" y="237">"sup"</text></g><path d="M 728.0 233 a 10 10 0 0 0 10 -10 v -40 a 10 10 0 0 1 10 -10"></path><path d="M 637.0 173 a 10 10 0 0 1 10 10 v 70 a 10 10 0 0 0 10 10"></path><g class="terminal ">
<path d="M 657.0 263 h 12.75"></path><path d="M 715.25 263 h 12.75"></path><rect height="22" rx="10" ry="10" width="45.5" x="669.75" y="252"></rect><text x="692.5" y="267">"w"</text></g><path d="M 728.0 263 a 10 10 0 0 0 10 -10 v -70 a 10 10 0 0 1 10 -10"></path><path d="M 637.0 173 a 10 10 0 0 1 10 10 v 100 a 10 10 0 0 0 10 10"></path><g class="terminal ">
<path d="M 657.0 293 h 8.5"></path><path d="M 719.5 293 h 8.5"></path><rect height="22" rx="10" ry="10" width="54.0" x="665.5" y="282"></rect><text x="692.5" y="297">"rb"</text></g><path d="M 728.0 293 a 10 10 0 0 0 10 -10 v -100 a 10 10 0 0 1 10 -10"></path><path d="M 637.0 173 a 10 10 0 0 1 10 10 v 130 a 10 10 0 0 0 10 10"></path><g class="terminal ">
<path d="M 657.0 323 h 4.25"></path><path d="M 723.75 323 h 4.25"></path><rect height="22" rx="10" ry="10" width="62.5" x="661.25" y="312"></rect><text x="692.5" y="327">"jmp"</text></g><path d="M 728.0 323 a 10 10 0 0 0 10 -10 v -130 a 10 10 0 0 1 10 -10"></path></g><path d="M 758.0 173 a 10 10 0 0 1 10 10 v 159 a 10 10 0 0 0 10 10"></path><path d="M 758.0 54 a 10 10 0 0 1 10 10 v 99 a 10 10 0 0 0 10 10"></path><g>
<path d="M 778.0 173 h 10.0"></path><path d="M 882.0 173 h 10.0"></path><path d="M 788.0 173 h 20"></path><g class="terminal ">
<path d="M 808.0 173 h 0.0"></path><path d="M 862.0 173 h 0.0"></path><rect height="22" rx="10" ry="10" width="54.0" x="808.0" y="162"></rect><text x="835.0" y="177">"xt"</text></g><path d="M 862.0 173 h 20"></path></g><path d="M 892.0 173 h 10"></path></g></g><g class="non-terminal ">
<path d="M 162.5 38 h 0.0"></path><path d="M 179.5 38 h 0.0"></path><text class="comment" x="171.0" y="43">➋</text></g></g><path d="M 912.0 173 h 10"></path><path d="M 922.0 173 h 10"></path><g>
<path d="M 932.0 173 h 0.0"></path><path d="M 1043.0 173 h 0.0"></path><path d="M 932.0 173 h 20"></path><g class="terminal ">
<path d="M 952.0 173 h 12.75"></path><path d="M 1010.25 173 h 12.75"></path><rect height="22" rx="10" ry="10" width="45.5" x="964.75" y="162"></rect><text x="987.5" y="177">' '</text></g><path d="M 1023.0 173 h 20"></path><path d="M 932.0 173 a 10 10 0 0 1 10 10 v 10 a 10 10 0 0 0 10 10"></path><g class="terminal altterminal">
<path d="M 952.0 203 h 0.0"></path><path d="M 1023.0 203 h 0.0"></path><rect height="22" rx="10" ry="10" width="71.0" x="952.0" y="192"></rect><text x="987.5" y="207">TAGEND</text></g><path d="M 1023.0 203 a 10 10 0 0 0 10 -10 v -10 a 10 10 0 0 1 10 -10"></path></g></g><path d="M 1053.0 173 h 0.0"></path></g><path d="M 1053.0 173 h 10"></path><path d="M 1063.0 173 h 10"></path><g>
<path d="M 1073.0 173 h 0.0"></path><path d="M 1872.5 173 h 0.0"></path><path d="M 1073.0 173 h 20"></path><g>
<path d="M 1093.0 173 h 0.0"></path><path d="M 1852.5 173 h 0.0"></path><g class="non-terminal ">
<path d="M 1093.0 173 h 0.0"></path><path d="M 1206.5 173 h 0.0"></path><rect height="22" width="113.5" x="1093.0" y="162"></rect><text x="1149.75" y="177">CharContent</text></g><path d="M 1206.5 173 h 10"></path><path d="M 1216.5 173 h 10"></path><g>
<path d="M 1226.5 173 h 0.0"></path><path d="M 1852.5 173 h 0.0"></path><path d="M 1226.5 173 h 20"></path><g>
<path d="M 1246.5 173 h 586.0"></path></g><path d="M 1832.5 173 h 20"></path><path d="M 1226.5 173 a 10 10 0 0 1 10 10 v 9 a 10 10 0 0 0 10 10"></path><g>
<path d="M 1246.5 202 h 0.0"></path><path d="M 1832.5 202 h 0.0"></path><g>
<path d="M 1246.5 202 h 0.0"></path><path d="M 1340.5 202 h 0.0"></path><path d="M 1246.5 202 h 20"></path><g class="terminal ">
<path d="M 1266.5 202 h 4.25"></path><path d="M 1316.25 202 h 4.25"></path><rect height="22" rx="10" ry="10" width="45.5" x="1270.75" y="191"></rect><text x="1293.5" y="206">'|'</text></g><path d="M 1320.5 202 h 20"></path><path d="M 1246.5 202 a 10 10 0 0 1 10 10 v 10 a 10 10 0 0 0 10 10"></path><g class="terminal altterminal">
<path d="M 1266.5 232 h 0.0"></path><path d="M 1320.5 232 h 0.0"></path><rect height="22" rx="10" ry="10" width="54.0" x="1266.5" y="221"></rect><text x="1293.5" y="236">PIPE</text></g><path d="M 1320.5 232 a 10 10 0 0 0 10 -10 v -10 a 10 10 0 0 1 10 -10"></path></g><path d="M 1340.5 202 h 10"></path><path d="M 1350.5 202 h 10"></path><g>
<path d="M 1360.5 202 h 0.0"></path><path d="M 1832.5 202 h 0.0"></path><path d="M 1360.5 202 h 10"></path><g>
<path d="M 1370.5 202 h 0.0"></path><path d="M 1822.5 202 h 0.0"></path><g>
<path d="M 1370.5 202 h 0.0"></path><path d="M 1822.5 202 h 0.0"></path><path d="M 1370.5 202 h 20"></path><g class="terminal ">
<path d="M 1390.5 202 h 157.75"></path><path d="M 1644.75 202 h 157.75"></path><rect height="22" rx="10" ry="10" width="96.5" x="1548.25" y="191"></rect><text x="1596.5" y="206">ATTRIBALL</text></g><path d="M 1802.5 202 h 20"></path><path d="M 1370.5 202 a 10 10 0 0 1 10 10 v 10 a 10 10 0 0 0 10 10"></path><g>
<path d="M 1390.5 232 h 0.0"></path><path d="M 1802.5 232 h 0.0"></path><g class="terminal ">
<path d="M 1390.5 232 h 0.0"></path><path d="M 1495.5 232 h 0.0"></path><rect height="22" rx="10" ry="10" width="105.0" x="1390.5" y="221"></rect><text x="1443.0" y="236">ATTRIBNAME</text></g><path d="M 1495.5 232 h 10"></path><path d="M 1505.5 232 h 10"></path><g class="terminal ">
<path d="M 1515.5 232 h 0.0"></path><path d="M 1569.5 232 h 0.0"></path><rect height="22" rx="10" ry="10" width="54.0" x="1515.5" y="221"></rect><text x="1542.5" y="236">'="'</text></g><path d="M 1569.5 232 h 10"></path><path d="M 1579.5 232 h 10"></path><g class="terminal ">
<path d="M 1589.5 232 h 0.0"></path><path d="M 1694.5 232 h 0.0"></path><rect height="22" rx="10" ry="10" width="105.0" x="1589.5" y="221"></rect><text x="1642.0" y="236">ATTRIBTEXT</text></g><path d="M 1694.5 232 h 10"></path><path d="M 1704.5 232 h 10"></path><g class="terminal ">
<path d="M 1714.5 232 h 0.0"></path><path d="M 1802.5 232 h 0.0"></path><rect height="22" rx="10" ry="10" width="88.0" x="1714.5" y="221"></rect><text x="1758.5" y="236">/"${Hs}/</text></g></g><path d="M 1802.5 232 a 10 10 0 0 0 10 -10 v -10 a 10 10 0 0 1 10 -10"></path></g></g><path d="M 1822.5 202 h 10"></path><path d="M 1370.5 202 a 10 10 0 0 0 -10 10 v 39 a 10 10 0 0 0 10 10"></path><g>
<path d="M 1370.5 261 h 452.0"></path></g><path d="M 1822.5 261 a 10 10 0 0 0 10 -10 v -39 a 10 10 0 0 0 -10 -10"></path></g></g><path d="M 1832.5 202 a 10 10 0 0 0 10 -10 v -9 a 10 10 0 0 1 10 -10"></path></g></g><path d="M 1852.5 173 h 20"></path><path d="M 1073.0 173 a 10 10 0 0 1 10 10 v 107 a 10 10 0 0 0 10 10"></path><g>
<path d="M 1093.0 300 h 86.75"></path><path d="M 1765.75 300 h 86.75"></path><g>
<path d="M 1179.75 300 h 0.0"></path><path d="M 1273.75 300 h 0.0"></path><path d="M 1179.75 300 h 20"></path><g class="terminal ">
<path d="M 1199.75 300 h 4.25"></path><path d="M 1249.5 300 h 4.25"></path><rect height="22" rx="10" ry="10" width="45.5" x="1204.0" y="289"></rect><text x="1226.75" y="304">'|'</text></g><path d="M 1253.75 300 h 20"></path><path d="M 1179.75 300 a 10 10 0 0 1 10 10 v 10 a 10 10 0 0 0 10 10"></path><g class="terminal altterminal">
<path d="M 1199.75 330 h 0.0"></path><path d="M 1253.75 330 h 0.0"></path><rect height="22" rx="10" ry="10" width="54.0" x="1199.75" y="319"></rect><text x="1226.75" y="334">PIPE</text></g><path d="M 1253.75 330 a 10 10 0 0 0 10 -10 v -10 a 10 10 0 0 1 10 -10"></path></g><path d="M 1273.75 300 h 10"></path><path d="M 1283.75 300 h 10"></path><g>
<path d="M 1293.75 300 h 0.0"></path><path d="M 1765.75 300 h 0.0"></path><path d="M 1293.75 300 h 10"></path><g>
<path d="M 1303.75 300 h 0.0"></path><path d="M 1755.75 300 h 0.0"></path><g>
<path d="M 1303.75 300 h 0.0"></path><path d="M 1755.75 300 h 0.0"></path><path d="M 1303.75 300 h 20"></path><g class="terminal ">
<path d="M 1323.75 300 h 157.75"></path><path d="M 1578.0 300 h 157.75"></path><rect height="22" rx="10" ry="10" width="96.5" x="1481.5" y="289"></rect><text x="1529.75" y="304">ATTRIBALL</text></g><path d="M 1735.75 300 h 20"></path><path d="M 1303.75 300 a 10 10 0 0 1 10 10 v 10 a 10 10 0 0 0 10 10"></path><g>
<path d="M 1323.75 330 h 0.0"></path><path d="M 1735.75 330 h 0.0"></path><g class="terminal ">
<path d="M 1323.75 330 h 0.0"></path><path d="M 1428.75 330 h 0.0"></path><rect height="22" rx="10" ry="10" width="105.0" x="1323.75" y="319"></rect><text x="1376.25" y="334">ATTRIBNAME</text></g><path d="M 1428.75 330 h 10"></path><path d="M 1438.75 330 h 10"></path><g class="terminal ">
<path d="M 1448.75 330 h 0.0"></path><path d="M 1502.75 330 h 0.0"></path><rect height="22" rx="10" ry="10" width="54.0" x="1448.75" y="319"></rect><text x="1475.75" y="334">'="'</text></g><path d="M 1502.75 330 h 10"></path><path d="M 1512.75 330 h 10"></path><g class="terminal ">
<path d="M 1522.75 330 h 0.0"></path><path d="M 1627.75 330 h 0.0"></path><rect height="22" rx="10" ry="10" width="105.0" x="1522.75" y="319"></rect><text x="1575.25" y="334">ATTRIBTEXT</text></g><path d="M 1627.75 330 h 10"></path><path d="M 1637.75 330 h 10"></path><g class="terminal ">
<path d="M 1647.75 330 h 0.0"></path><path d="M 1735.75 330 h 0.0"></path><rect height="22" rx="10" ry="10" width="88.0" x="1647.75" y="319"></rect><text x="1691.75" y="334">/"${Hs}/</text></g></g><path d="M 1735.75 330 a 10 10 0 0 0 10 -10 v -10 a 10 10 0 0 1 10 -10"></path></g></g><path d="M 1755.75 300 h 10"></path><path d="M 1303.75 300 a 10 10 0 0 0 -10 10 v 39 a 10 10 0 0 0 10 10"></path><g>
<path d="M 1303.75 359 h 452.0"></path></g><path d="M 1755.75 359 a 10 10 0 0 0 10 -10 v -39 a 10 10 0 0 0 -10 -10"></path></g></g><path d="M 1852.5 300 a 10 10 0 0 0 10 -10 v -107 a 10 10 0 0 1 10 -10"></path></g><path d="M 1872.5 173 h 10"></path><path d="M 1882.5 173 h 10"></path><g class="terminal ">
<path d="M 1892.5 173 h 0.0"></path><path d="M 1955.0 173 h 0.0"></path><rect height="22" rx="10" ry="10" width="62.5" x="1892.5" y="162"></rect><text x="1923.75" y="177">'\\+'</text></g><path d="M 1955.0 173 h 10"></path><path d="M 1965.0 173 h 10"></path><g class="terminal ">
<path d="M 1975.0 173 h 0.0"></path><path d="M 2020.5 173 h 0.0"></path><rect height="22" rx="10" ry="10" width="45.5" x="1975.0" y="162"></rect><text x="1997.75" y="177">⇐ ➋</text></g><path d="M 2020.5 173 h 10"></path><path d="M 2030.5 173 h 10"></path><g class="terminal ">
<path d="M 2040.5 173 h 0.0"></path><path d="M 2086.0 173 h 0.0"></path><rect height="22" rx="10" ry="10" width="45.5" x="2040.5" y="162"></rect><text x="2063.25" y="177">'&#42;'</text></g></g><path d="M 2086.0 173 h 20"></path><path d="M 50.0 173 a 10 10 0 0 1 10 10 v 327 a 10 10 0 0 0 10 10"></path><g>
<path d="M 70.0 520 h 8.5"></path><path d="M 2077.5 520 h 8.5"></path><g>
<path d="M 78.5 520 h 0.0"></path><g>
<path d="M 78.5 520 h 10.0"></path><path d="M 1043.0 520 h 10.0"></path><g class="terminal ">
<path d="M 88.5 520 h 0.0"></path><path d="M 142.5 520 h 0.0"></path><rect height="22" rx="10" ry="10" width="54.0" x="88.5" y="509"></rect><text x="115.5" y="524">'\\'</text></g><path d="M 142.5 520 h 10"></path><path d="M 152.5 520 h 10"></path><g>
<path d="M 162.5 520 h 0.0"></path><path d="M 912.0 520 h 0.0"></path><rect class="group-box" height="314" rx="10" ry="10" width="749.5" x="162.5" y="393"></rect><g>
<path d="M 162.5 520 h 10.0"></path><path d="M 902.0 520 h 10.0"></path><g>
<path d="M 172.5 520 h 0.0"></path><path d="M 902.0 520 h 0.0"></path><path d="M 172.5 520 a 10 10 0 0 0 10 -10 v -99 a 10 10 0 0 1 10 -10 h 565.5"></path><path d="M 342.0 699 h 540.0 a 10 10 0 0 0 10 -10 v -159 a 10 10 0 0 1 10 -10"></path><path d="M 172.5 520 h 10"></path><g>
<path d="M 182.5 520 h 10.0"></path><path d="M 312.0 520 h 10.0"></path><path d="M 192.5 520 a 10 10 0 0 0 10 -10 v -10 a 10 10 0 0 1 10 -10"></path><g class="terminal ">
<path d="M 212.5 490 h 12.75"></path><path d="M 279.25 490 h 12.75"></path><rect height="22" rx="10" ry="10" width="54.0" x="225.25" y="479"></rect><text x="252.25" y="494">"qs"</text></g><path d="M 292.0 490 a 10 10 0 0 1 10 10 v 10 a 10 10 0 0 0 10 10"></path><path d="M 192.5 520 a 10 10 0 0 0 10 -10 v -40 a 10 10 0 0 1 10 -10"></path><g class="terminal ">
<path d="M 212.5 460 h 8.5"></path><path d="M 283.5 460 h 8.5"></path><rect height="22" rx="10" ry="10" width="62.5" x="221.0" y="449"></rect><text x="252.25" y="464">"qac"</text></g><path d="M 292.0 460 a 10 10 0 0 1 10 10 v 40 a 10 10 0 0 0 10 10"></path><path d="M 192.5 520 a 10 10 0 0 0 10 -10 v -70 a 10 10 0 0 1 10 -10"></path><g class="terminal ">
<path d="M 212.5 430 h 12.75"></path><path d="M 279.25 430 h 12.75"></path><rect height="22" rx="10" ry="10" width="54.0" x="225.25" y="419"></rect><text x="252.25" y="434">"vp"</text></g><path d="M 292.0 430 a 10 10 0 0 1 10 10 v 70 a 10 10 0 0 0 10 10"></path><path d="M 192.5 520 h 20"></path><g class="terminal ">
<path d="M 212.5 520 h 8.5"></path><path d="M 283.5 520 h 8.5"></path><rect height="22" rx="10" ry="10" width="62.5" x="221.0" y="509"></rect><text x="252.25" y="524">"add"</text></g><path d="M 292.0 520 h 20"></path><path d="M 192.5 520 a 10 10 0 0 1 10 10 v 10 a 10 10 0 0 0 10 10"></path><g class="terminal ">
<path d="M 212.5 550 h 0.0"></path><path d="M 292.0 550 h 0.0"></path><rect height="22" rx="10" ry="10" width="79.5" x="212.5" y="539"></rect><text x="252.25" y="554">"addpn"</text></g><path d="M 292.0 550 a 10 10 0 0 0 10 -10 v -10 a 10 10 0 0 1 10 -10"></path><path d="M 192.5 520 a 10 10 0 0 1 10 10 v 40 a 10 10 0 0 0 10 10"></path><g class="terminal ">
<path d="M 212.5 580 h 12.75"></path><path d="M 279.25 580 h 12.75"></path><rect height="22" rx="10" ry="10" width="54.0" x="225.25" y="569"></rect><text x="252.25" y="584">"bk"</text></g><path d="M 292.0 580 a 10 10 0 0 0 10 -10 v -40 a 10 10 0 0 1 10 -10"></path><path d="M 192.5 520 a 10 10 0 0 1 10 10 v 70 a 10 10 0 0 0 10 10"></path><g class="terminal ">
<path d="M 212.5 610 h 12.75"></path><path d="M 279.25 610 h 12.75"></path><rect height="22" rx="10" ry="10" width="54.0" x="225.25" y="599"></rect><text x="252.25" y="614">"dc"</text></g><path d="M 292.0 610 a 10 10 0 0 0 10 -10 v -70 a 10 10 0 0 1 10 -10"></path><path d="M 192.5 520 a 10 10 0 0 1 10 10 v 100 a 10 10 0 0 0 10 10"></path><g class="terminal ">
<path d="M 212.5 640 h 8.5"></path><path d="M 283.5 640 h 8.5"></path><rect height="22" rx="10" ry="10" width="62.5" x="221.0" y="629"></rect><text x="252.25" y="644">"efm"</text></g><path d="M 292.0 640 a 10 10 0 0 0 10 -10 v -100 a 10 10 0 0 1 10 -10"></path><path d="M 192.5 520 a 10 10 0 0 1 10 10 v 130 a 10 10 0 0 0 10 10"></path><g class="terminal ">
<path d="M 212.5 670 h 12.75"></path><path d="M 279.25 670 h 12.75"></path><rect height="22" rx="10" ry="10" width="54.0" x="225.25" y="659"></rect><text x="252.25" y="674">"fm"</text></g><path d="M 292.0 670 a 10 10 0 0 0 10 -10 v -130 a 10 10 0 0 1 10 -10"></path></g><path d="M 322.0 520 a 10 10 0 0 1 10 10 v 159 a 10 10 0 0 0 10 10"></path><path d="M 322.0 401 a 10 10 0 0 1 10 10 v 99 a 10 10 0 0 0 10 10"></path><g>
<path d="M 342.0 520 h 10.0"></path><path d="M 454.5 520 h 10.0"></path><path d="M 352.0 520 a 10 10 0 0 0 10 -10 v -10 a 10 10 0 0 1 10 -10"></path><g class="terminal ">
<path d="M 372.0 490 h 0.0"></path><path d="M 434.5 490 h 0.0"></path><rect height="22" rx="10" ry="10" width="62.5" x="372.0" y="479"></rect><text x="403.25" y="494">"ndx"</text></g><path d="M 434.5 490 a 10 10 0 0 1 10 10 v 10 a 10 10 0 0 0 10 10"></path><path d="M 352.0 520 a 10 10 0 0 0 10 -10 v -40 a 10 10 0 0 1 10 -10"></path><g class="terminal ">
<path d="M 372.0 460 h 4.25"></path><path d="M 430.25 460 h 4.25"></path><rect height="22" rx="10" ry="10" width="54.0" x="376.25" y="449"></rect><text x="403.25" y="464">"nd"</text></g><path d="M 434.5 460 a 10 10 0 0 1 10 10 v 40 a 10 10 0 0 0 10 10"></path><path d="M 352.0 520 a 10 10 0 0 0 10 -10 v -70 a 10 10 0 0 1 10 -10"></path><g class="terminal ">
<path d="M 372.0 430 h 8.5"></path><path d="M 426.0 430 h 8.5"></path><rect height="22" rx="10" ry="10" width="45.5" x="380.5" y="419"></rect><text x="403.25" y="434">"k"</text></g><path d="M 434.5 430 a 10 10 0 0 1 10 10 v 70 a 10 10 0 0 0 10 10"></path><path d="M 352.0 520 h 20"></path><g class="terminal ">
<path d="M 372.0 520 h 0.0"></path><path d="M 434.5 520 h 0.0"></path><rect height="22" rx="10" ry="10" width="62.5" x="372.0" y="509"></rect><text x="403.25" y="524">"ord"</text></g><path d="M 434.5 520 h 20"></path><path d="M 352.0 520 a 10 10 0 0 1 10 10 v 10 a 10 10 0 0 0 10 10"></path><g class="terminal ">
<path d="M 372.0 550 h 0.0"></path><path d="M 434.5 550 h 0.0"></path><rect height="22" rx="10" ry="10" width="62.5" x="372.0" y="539"></rect><text x="403.25" y="554">"png"</text></g><path d="M 434.5 550 a 10 10 0 0 0 10 -10 v -10 a 10 10 0 0 1 10 -10"></path><path d="M 352.0 520 a 10 10 0 0 1 10 10 v 40 a 10 10 0 0 0 10 10"></path><g class="terminal ">
<path d="M 372.0 580 h 4.25"></path><path d="M 430.25 580 h 4.25"></path><rect height="22" rx="10" ry="10" width="54.0" x="376.25" y="569"></rect><text x="403.25" y="584">"pn"</text></g><path d="M 434.5 580 a 10 10 0 0 0 10 -10 v -40 a 10 10 0 0 1 10 -10"></path><path d="M 352.0 520 a 10 10 0 0 1 10 10 v 70 a 10 10 0 0 0 10 10"></path><g class="terminal ">
<path d="M 372.0 610 h 0.0"></path><path d="M 434.5 610 h 0.0"></path><rect height="22" rx="10" ry="10" width="62.5" x="372.0" y="599"></rect><text x="403.25" y="614">"pro"</text></g><path d="M 434.5 610 a 10 10 0 0 0 10 -10 v -70 a 10 10 0 0 1 10 -10"></path><path d="M 352.0 520 a 10 10 0 0 1 10 10 v 100 a 10 10 0 0 0 10 10"></path><g class="terminal ">
<path d="M 372.0 640 h 4.25"></path><path d="M 430.25 640 h 4.25"></path><rect height="22" rx="10" ry="10" width="54.0" x="376.25" y="629"></rect><text x="403.25" y="644">"qt"</text></g><path d="M 434.5 640 a 10 10 0 0 0 10 -10 v -100 a 10 10 0 0 1 10 -10"></path><path d="M 352.0 520 a 10 10 0 0 1 10 10 v 130 a 10 10 0 0 0 10 10"></path><g class="terminal ">
<path d="M 372.0 670 h 4.25"></path><path d="M 430.25 670 h 4.25"></path><rect height="22" rx="10" ry="10" width="54.0" x="376.25" y="659"></rect><text x="403.25" y="674">"rq"</text></g><path d="M 434.5 670 a 10 10 0 0 0 10 -10 v -130 a 10 10 0 0 1 10 -10"></path></g><path d="M 464.5 520 a 10 10 0 0 1 10 10 v 159 a 10 10 0 0 0 10 10"></path><path d="M 464.5 401 a 10 10 0 0 1 10 10 v 99 a 10 10 0 0 0 10 10"></path><g>
<path d="M 484.5 520 h 10.0"></path><path d="M 597.0 520 h 10.0"></path><path d="M 494.5 520 a 10 10 0 0 0 10 -10 v -10 a 10 10 0 0 1 10 -10"></path><g class="terminal ">
<path d="M 514.5 490 h 4.25"></path><path d="M 572.75 490 h 4.25"></path><rect height="22" rx="10" ry="10" width="54.0" x="518.75" y="479"></rect><text x="545.75" y="494">"tl"</text></g><path d="M 577.0 490 a 10 10 0 0 1 10 10 v 10 a 10 10 0 0 0 10 10"></path><path d="M 494.5 520 a 10 10 0 0 0 10 -10 v -40 a 10 10 0 0 1 10 -10"></path><g class="terminal ">
<path d="M 514.5 460 h 0.0"></path><path d="M 577.0 460 h 0.0"></path><rect height="22" rx="10" ry="10" width="62.5" x="514.5" y="449"></rect><text x="545.75" y="464">"sls"</text></g><path d="M 577.0 460 a 10 10 0 0 1 10 10 v 40 a 10 10 0 0 0 10 10"></path><path d="M 494.5 520 a 10 10 0 0 0 10 -10 v -70 a 10 10 0 0 1 10 -10"></path><g class="terminal ">
<path d="M 514.5 430 h 0.0"></path><path d="M 577.0 430 h 0.0"></path><rect height="22" rx="10" ry="10" width="62.5" x="514.5" y="419"></rect><text x="545.75" y="434">"sig"</text></g><path d="M 577.0 430 a 10 10 0 0 1 10 10 v 70 a 10 10 0 0 0 10 10"></path><path d="M 494.5 520 h 20"></path><g class="terminal ">
<path d="M 514.5 520 h 4.25"></path><path d="M 572.75 520 h 4.25"></path><rect height="22" rx="10" ry="10" width="54.0" x="518.75" y="509"></rect><text x="545.75" y="524">"wg"</text></g><path d="M 577.0 520 h 20"></path><path d="M 494.5 520 a 10 10 0 0 1 10 10 v 10 a 10 10 0 0 0 10 10"></path><g class="terminal ">
<path d="M 514.5 550 h 4.25"></path><path d="M 572.75 550 h 4.25"></path><rect height="22" rx="10" ry="10" width="54.0" x="518.75" y="539"></rect><text x="545.75" y="554">"wh"</text></g><path d="M 577.0 550 a 10 10 0 0 0 10 -10 v -10 a 10 10 0 0 1 10 -10"></path><path d="M 494.5 520 a 10 10 0 0 1 10 10 v 40 a 10 10 0 0 0 10 10"></path><g class="terminal ">
<path d="M 514.5 580 h 4.25"></path><path d="M 572.75 580 h 4.25"></path><rect height="22" rx="10" ry="10" width="54.0" x="518.75" y="569"></rect><text x="545.75" y="584">"wa"</text></g><path d="M 577.0 580 a 10 10 0 0 0 10 -10 v -40 a 10 10 0 0 1 10 -10"></path><path d="M 494.5 520 a 10 10 0 0 1 10 10 v 70 a 10 10 0 0 0 10 10"></path><g class="terminal ">
<path d="M 514.5 610 h 4.25"></path><path d="M 572.75 610 h 4.25"></path><rect height="22" rx="10" ry="10" width="54.0" x="518.75" y="599"></rect><text x="545.75" y="614">"wj"</text></g><path d="M 577.0 610 a 10 10 0 0 0 10 -10 v -70 a 10 10 0 0 1 10 -10"></path><path d="M 494.5 520 a 10 10 0 0 1 10 10 v 100 a 10 10 0 0 0 10 10"></path><g class="terminal ">
<path d="M 514.5 640 h 0.0"></path><path d="M 577.0 640 h 0.0"></path><rect height="22" rx="10" ry="10" width="62.5" x="514.5" y="629"></rect><text x="545.75" y="644">"jmp"</text></g><path d="M 577.0 640 a 10 10 0 0 0 10 -10 v -100 a 10 10 0 0 1 10 -10"></path><path d="M 494.5 520 a 10 10 0 0 1 10 10 v 130 a 10 10 0 0 0 10 10"></path><g class="terminal ">
<path d="M 514.5 670 h 4.25"></path><path d="M 572.75 670 h 4.25"></path><rect height="22" rx="10" ry="10" width="54.0" x="518.75" y="659"></rect><text x="545.75" y="674">"no"</text></g><path d="M 577.0 670 a 10 10 0 0 0 10 -10 v -130 a 10 10 0 0 1 10 -10"></path></g><path d="M 607.0 520 a 10 10 0 0 1 10 10 v 159 a 10 10 0 0 0 10 10"></path><path d="M 607.0 401 a 10 10 0 0 1 10 10 v 99 a 10 10 0 0 0 10 10"></path><g>
<path d="M 627.0 520 h 10.0"></path><path d="M 748.0 520 h 10.0"></path><path d="M 637.0 520 a 10 10 0 0 0 10 -10 v -10 a 10 10 0 0 1 10 -10"></path><g class="terminal ">
<path d="M 657.0 490 h 8.5"></path><path d="M 719.5 490 h 8.5"></path><rect height="22" rx="10" ry="10" width="54.0" x="665.5" y="479"></rect><text x="692.5" y="494">"bd"</text></g><path d="M 728.0 490 a 10 10 0 0 1 10 10 v 10 a 10 10 0 0 0 10 10"></path><path d="M 637.0 520 a 10 10 0 0 0 10 -10 v -40 a 10 10 0 0 1 10 -10"></path><g class="terminal ">
<path d="M 657.0 460 h 0.0"></path><path d="M 728.0 460 h 0.0"></path><rect height="22" rx="10" ry="10" width="71.0" x="657.0" y="449"></rect><text x="692.5" y="464">"bdit"</text></g><path d="M 728.0 460 a 10 10 0 0 1 10 10 v 40 a 10 10 0 0 0 10 10"></path><path d="M 637.0 520 a 10 10 0 0 0 10 -10 v -70 a 10 10 0 0 1 10 -10"></path><g class="terminal ">
<path d="M 657.0 430 h 8.5"></path><path d="M 719.5 430 h 8.5"></path><rect height="22" rx="10" ry="10" width="54.0" x="665.5" y="419"></rect><text x="692.5" y="434">"it"</text></g><path d="M 728.0 430 a 10 10 0 0 1 10 10 v 70 a 10 10 0 0 0 10 10"></path><path d="M 637.0 520 h 20"></path><g class="terminal ">
<path d="M 657.0 520 h 8.5"></path><path d="M 719.5 520 h 8.5"></path><rect height="22" rx="10" ry="10" width="54.0" x="665.5" y="509"></rect><text x="692.5" y="524">"em"</text></g><path d="M 728.0 520 h 20"></path><path d="M 637.0 520 a 10 10 0 0 1 10 10 v 10 a 10 10 0 0 0 10 10"></path><g class="terminal ">
<path d="M 657.0 550 h 8.5"></path><path d="M 719.5 550 h 8.5"></path><rect height="22" rx="10" ry="10" width="54.0" x="665.5" y="539"></rect><text x="692.5" y="554">"sc"</text></g><path d="M 728.0 550 a 10 10 0 0 0 10 -10 v -10 a 10 10 0 0 1 10 -10"></path><path d="M 637.0 520 a 10 10 0 0 1 10 10 v 40 a 10 10 0 0 0 10 10"></path><g class="terminal ">
<path d="M 657.0 580 h 4.25"></path><path d="M 723.75 580 h 4.25"></path><rect height="22" rx="10" ry="10" width="62.5" x="661.25" y="569"></rect><text x="692.5" y="584">"sup"</text></g><path d="M 728.0 580 a 10 10 0 0 0 10 -10 v -40 a 10 10 0 0 1 10 -10"></path><path d="M 637.0 520 a 10 10 0 0 1 10 10 v 70 a 10 10 0 0 0 10 10"></path><g class="terminal ">
<path d="M 657.0 610 h 12.75"></path><path d="M 715.25 610 h 12.75"></path><rect height="22" rx="10" ry="10" width="45.5" x="669.75" y="599"></rect><text x="692.5" y="614">"w"</text></g><path d="M 728.0 610 a 10 10 0 0 0 10 -10 v -70 a 10 10 0 0 1 10 -10"></path><path d="M 637.0 520 a 10 10 0 0 1 10 10 v 100 a 10 10 0 0 0 10 10"></path><g class="terminal ">
<path d="M 657.0 640 h 8.5"></path><path d="M 719.5 640 h 8.5"></path><rect height="22" rx="10" ry="10" width="54.0" x="665.5" y="629"></rect><text x="692.5" y="644">"rb"</text></g><path d="M 728.0 640 a 10 10 0 0 0 10 -10 v -100 a 10 10 0 0 1 10 -10"></path><path d="M 637.0 520 a 10 10 0 0 1 10 10 v 130 a 10 10 0 0 0 10 10"></path><g class="terminal ">
<path d="M 657.0 670 h 4.25"></path><path d="M 723.75 670 h 4.25"></path><rect height="22" rx="10" ry="10" width="62.5" x="661.25" y="659"></rect><text x="692.5" y="674">"jmp"</text></g><path d="M 728.0 670 a 10 10 0 0 0 10 -10 v -130 a 10 10 0 0 1 10 -10"></path></g><path d="M 758.0 520 a 10 10 0 0 1 10 10 v 159 a 10 10 0 0 0 10 10"></path><path d="M 758.0 401 a 10 10 0 0 1 10 10 v 99 a 10 10 0 0 0 10 10"></path><g>
<path d="M 778.0 520 h 10.0"></path><path d="M 882.0 520 h 10.0"></path><path d="M 788.0 520 h 20"></path><g class="terminal ">
<path d="M 808.0 520 h 0.0"></path><path d="M 862.0 520 h 0.0"></path><rect height="22" rx="10" ry="10" width="54.0" x="808.0" y="509"></rect><text x="835.0" y="524">"xt"</text></g><path d="M 862.0 520 h 20"></path></g><path d="M 892.0 520 h 10"></path></g></g><g class="non-terminal ">
<path d="M 162.5 385 h 0.0"></path><path d="M 179.5 385 h 0.0"></path><text class="comment" x="171.0" y="390">➌</text></g></g><path d="M 912.0 520 h 10"></path><path d="M 922.0 520 h 10"></path><g>
<path d="M 932.0 520 h 0.0"></path><path d="M 1043.0 520 h 0.0"></path><path d="M 932.0 520 h 20"></path><g class="terminal ">
<path d="M 952.0 520 h 12.75"></path><path d="M 1010.25 520 h 12.75"></path><rect height="22" rx="10" ry="10" width="45.5" x="964.75" y="509"></rect><text x="987.5" y="524">' '</text></g><path d="M 1023.0 520 h 20"></path><path d="M 932.0 520 a 10 10 0 0 1 10 10 v 10 a 10 10 0 0 0 10 10"></path><g class="terminal altterminal">
<path d="M 952.0 550 h 0.0"></path><path d="M 1023.0 550 h 0.0"></path><rect height="22" rx="10" ry="10" width="71.0" x="952.0" y="539"></rect><text x="987.5" y="554">TAGEND</text></g><path d="M 1023.0 550 a 10 10 0 0 0 10 -10 v -10 a 10 10 0 0 1 10 -10"></path></g></g><path d="M 1053.0 520 h 0.0"></path></g><path d="M 1053.0 520 h 10"></path><path d="M 1063.0 520 h 10"></path><g>
<path d="M 1073.0 520 h 0.0"></path><path d="M 1872.5 520 h 0.0"></path><path d="M 1073.0 520 h 20"></path><g>
<path d="M 1093.0 520 h 0.0"></path><path d="M 1852.5 520 h 0.0"></path><g class="non-terminal ">
<path d="M 1093.0 520 h 0.0"></path><path d="M 1206.5 520 h 0.0"></path><rect height="22" width="113.5" x="1093.0" y="509"></rect><text x="1149.75" y="524">CharContent</text></g><path d="M 1206.5 520 h 10"></path><path d="M 1216.5 520 h 10"></path><g>
<path d="M 1226.5 520 h 0.0"></path><path d="M 1852.5 520 h 0.0"></path><path d="M 1226.5 520 h 20"></path><g>
<path d="M 1246.5 520 h 586.0"></path></g><path d="M 1832.5 520 h 20"></path><path d="M 1226.5 520 a 10 10 0 0 1 10 10 v 9 a 10 10 0 0 0 10 10"></path><g>
<path d="M 1246.5 549 h 0.0"></path><path d="M 1832.5 549 h 0.0"></path><g>
<path d="M 1246.5 549 h 0.0"></path><path d="M 1340.5 549 h 0.0"></path><path d="M 1246.5 549 h 20"></path><g class="terminal ">
<path d="M 1266.5 549 h 4.25"></path><path d="M 1316.25 549 h 4.25"></path><rect height="22" rx="10" ry="10" width="45.5" x="1270.75" y="538"></rect><text x="1293.5" y="553">'|'</text></g><path d="M 1320.5 549 h 20"></path><path d="M 1246.5 549 a 10 10 0 0 1 10 10 v 10 a 10 10 0 0 0 10 10"></path><g class="terminal altterminal">
<path d="M 1266.5 579 h 0.0"></path><path d="M 1320.5 579 h 0.0"></path><rect height="22" rx="10" ry="10" width="54.0" x="1266.5" y="568"></rect><text x="1293.5" y="583">PIPE</text></g><path d="M 1320.5 579 a 10 10 0 0 0 10 -10 v -10 a 10 10 0 0 1 10 -10"></path></g><path d="M 1340.5 549 h 10"></path><path d="M 1350.5 549 h 10"></path><g>
<path d="M 1360.5 549 h 0.0"></path><path d="M 1832.5 549 h 0.0"></path><path d="M 1360.5 549 h 10"></path><g>
<path d="M 1370.5 549 h 0.0"></path><path d="M 1822.5 549 h 0.0"></path><g>
<path d="M 1370.5 549 h 0.0"></path><path d="M 1822.5 549 h 0.0"></path><path d="M 1370.5 549 h 20"></path><g class="terminal ">
<path d="M 1390.5 549 h 157.75"></path><path d="M 1644.75 549 h 157.75"></path><rect height="22" rx="10" ry="10" width="96.5" x="1548.25" y="538"></rect><text x="1596.5" y="553">ATTRIBALL</text></g><path d="M 1802.5 549 h 20"></path><path d="M 1370.5 549 a 10 10 0 0 1 10 10 v 10 a 10 10 0 0 0 10 10"></path><g>
<path d="M 1390.5 579 h 0.0"></path><path d="M 1802.5 579 h 0.0"></path><g class="terminal ">
<path d="M 1390.5 579 h 0.0"></path><path d="M 1495.5 579 h 0.0"></path><rect height="22" rx="10" ry="10" width="105.0" x="1390.5" y="568"></rect><text x="1443.0" y="583">ATTRIBNAME</text></g><path d="M 1495.5 579 h 10"></path><path d="M 1505.5 579 h 10"></path><g class="terminal ">
<path d="M 1515.5 579 h 0.0"></path><path d="M 1569.5 579 h 0.0"></path><rect height="22" rx="10" ry="10" width="54.0" x="1515.5" y="568"></rect><text x="1542.5" y="583">'="'</text></g><path d="M 1569.5 579 h 10"></path><path d="M 1579.5 579 h 10"></path><g class="terminal ">
<path d="M 1589.5 579 h 0.0"></path><path d="M 1694.5 579 h 0.0"></path><rect height="22" rx="10" ry="10" width="105.0" x="1589.5" y="568"></rect><text x="1642.0" y="583">ATTRIBTEXT</text></g><path d="M 1694.5 579 h 10"></path><path d="M 1704.5 579 h 10"></path><g class="terminal ">
<path d="M 1714.5 579 h 0.0"></path><path d="M 1802.5 579 h 0.0"></path><rect height="22" rx="10" ry="10" width="88.0" x="1714.5" y="568"></rect><text x="1758.5" y="583">/"${Hs}/</text></g></g><path d="M 1802.5 579 a 10 10 0 0 0 10 -10 v -10 a 10 10 0 0 1 10 -10"></path></g></g><path d="M 1822.5 549 h 10"></path><path d="M 1370.5 549 a 10 10 0 0 0 -10 10 v 39 a 10 10 0 0 0 10 10"></path><g>
<path d="M 1370.5 608 h 452.0"></path></g><path d="M 1822.5 608 a 10 10 0 0 0 10 -10 v -39 a 10 10 0 0 0 -10 -10"></path></g></g><path d="M 1832.5 549 a 10 10 0 0 0 10 -10 v -9 a 10 10 0 0 1 10 -10"></path></g></g><path d="M 1852.5 520 h 20"></path><path d="M 1073.0 520 a 10 10 0 0 1 10 10 v 107 a 10 10 0 0 0 10 10"></path><g>
<path d="M 1093.0 647 h 86.75"></path><path d="M 1765.75 647 h 86.75"></path><g>
<path d="M 1179.75 647 h 0.0"></path><path d="M 1273.75 647 h 0.0"></path><path d="M 1179.75 647 h 20"></path><g class="terminal ">
<path d="M 1199.75 647 h 4.25"></path><path d="M 1249.5 647 h 4.25"></path><rect height="22" rx="10" ry="10" width="45.5" x="1204.0" y="636"></rect><text x="1226.75" y="651">'|'</text></g><path d="M 1253.75 647 h 20"></path><path d="M 1179.75 647 a 10 10 0 0 1 10 10 v 10 a 10 10 0 0 0 10 10"></path><g class="terminal altterminal">
<path d="M 1199.75 677 h 0.0"></path><path d="M 1253.75 677 h 0.0"></path><rect height="22" rx="10" ry="10" width="54.0" x="1199.75" y="666"></rect><text x="1226.75" y="681">PIPE</text></g><path d="M 1253.75 677 a 10 10 0 0 0 10 -10 v -10 a 10 10 0 0 1 10 -10"></path></g><path d="M 1273.75 647 h 10"></path><path d="M 1283.75 647 h 10"></path><g>
<path d="M 1293.75 647 h 0.0"></path><path d="M 1765.75 647 h 0.0"></path><path d="M 1293.75 647 h 10"></path><g>
<path d="M 1303.75 647 h 0.0"></path><path d="M 1755.75 647 h 0.0"></path><g>
<path d="M 1303.75 647 h 0.0"></path><path d="M 1755.75 647 h 0.0"></path><path d="M 1303.75 647 h 20"></path><g class="terminal ">
<path d="M 1323.75 647 h 157.75"></path><path d="M 1578.0 647 h 157.75"></path><rect height="22" rx="10" ry="10" width="96.5" x="1481.5" y="636"></rect><text x="1529.75" y="651">ATTRIBALL</text></g><path d="M 1735.75 647 h 20"></path><path d="M 1303.75 647 a 10 10 0 0 1 10 10 v 10 a 10 10 0 0 0 10 10"></path><g>
<path d="M 1323.75 677 h 0.0"></path><path d="M 1735.75 677 h 0.0"></path><g class="terminal ">
<path d="M 1323.75 677 h 0.0"></path><path d="M 1428.75 677 h 0.0"></path><rect height="22" rx="10" ry="10" width="105.0" x="1323.75" y="666"></rect><text x="1376.25" y="681">ATTRIBNAME</text></g><path d="M 1428.75 677 h 10"></path><path d="M 1438.75 677 h 10"></path><g class="terminal ">
<path d="M 1448.75 677 h 0.0"></path><path d="M 1502.75 677 h 0.0"></path><rect height="22" rx="10" ry="10" width="54.0" x="1448.75" y="666"></rect><text x="1475.75" y="681">'="'</text></g><path d="M 1502.75 677 h 10"></path><path d="M 1512.75 677 h 10"></path><g class="terminal ">
<path d="M 1522.75 677 h 0.0"></path><path d="M 1627.75 677 h 0.0"></path><rect height="22" rx="10" ry="10" width="105.0" x="1522.75" y="666"></rect><text x="1575.25" y="681">ATTRIBTEXT</text></g><path d="M 1627.75 677 h 10"></path><path d="M 1637.75 677 h 10"></path><g class="terminal ">
<path d="M 1647.75 677 h 0.0"></path><path d="M 1735.75 677 h 0.0"></path><rect height="22" rx="10" ry="10" width="88.0" x="1647.75" y="666"></rect><text x="1691.75" y="681">/"${Hs}/</text></g></g><path d="M 1735.75 677 a 10 10 0 0 0 10 -10 v -10 a 10 10 0 0 1 10 -10"></path></g></g><path d="M 1755.75 647 h 10"></path><path d="M 1303.75 647 a 10 10 0 0 0 -10 10 v 39 a 10 10 0 0 0 10 10"></path><g>
<path d="M 1303.75 706 h 452.0"></path></g><path d="M 1755.75 706 a 10 10 0 0 0 10 -10 v -39 a 10 10 0 0 0 -10 -10"></path></g></g><path d="M 1852.5 647 a 10 10 0 0 0 10 -10 v -107 a 10 10 0 0 1 10 -10"></path></g><path d="M 1872.5 520 h 10"></path><path d="M 1882.5 520 h 10"></path><g class="terminal ">
<path d="M 1892.5 520 h 0.0"></path><path d="M 1946.5 520 h 0.0"></path><rect height="22" rx="10" ry="10" width="54.0" x="1892.5" y="509"></rect><text x="1919.5" y="524">'\\'</text></g><path d="M 1946.5 520 h 10"></path><path d="M 1956.5 520 h 10"></path><g class="terminal ">
<path d="M 1966.5 520 h 0.0"></path><path d="M 2012.0 520 h 0.0"></path><rect height="22" rx="10" ry="10" width="45.5" x="1966.5" y="509"></rect><text x="1989.25" y="524">⇐ ➌</text></g><path d="M 2012.0 520 h 10"></path><path d="M 2022.0 520 h 10"></path><g class="terminal ">
<path d="M 2032.0 520 h 0.0"></path><path d="M 2077.5 520 h 0.0"></path><rect height="22" rx="10" ry="10" width="45.5" x="2032.0" y="509"></rect><text x="2054.75" y="524">'&#42;'</text></g></g><path d="M 2086.0 520 a 10 10 0 0 0 10 -10 v -327 a 10 10 0 0 1 10 -10"></path></g></g><path d="M 2106.0 173 h 10"></path><path d="M 2116.0 173 h 20 m 0 -10 v 20"></path></g></svg>