<svg class="railroad-diagram" height="571" viewBox="0 0 1654.0 571" width="1654.0" xmlns="http://www.w3.org/2000/svg" xmlns:xlink="http://www.w3.org/1999/xlink">
<g transform="translate(.5 .5)">
<style>/* <![CDATA[ */

    svg.railroad-diagram {
        background-color: hsl(30,20%,95%);
    }
    svg.railroad-diagram path {
        stroke-width: 2;
        stroke: black;
        fill: none;
    }
    svg.railroad-diagram text {
        font-size: 12px;
        text-anchor: middle;
        font-family: DejaVu Sans;
    }
    svg.railroad-diagram text.label {
        text-anchor:start;
    }
    svg.railroad-diagram text.comment {
        font-family: DejaVu Sans;
        font-size: 14px;
    }
    svg.railroad-diagram rect{
        stroke-width: 2;
        stroke: black;
        fill: rgb(210, 255, 210);
    }
    svg.railroad-diagram rect.group-box {
        stroke: gray;
        stroke-dasharray: 10 5;
        fill: none;
    }
    .terminal {
        font-family: DejaVu Sans;
    }
    svg.railroad-diagram g.altterminal rect {
        fill: rgb(251, 252, 207)
    }

/* ]]> */
</style><g>
<path d="M 20 163 v 20 m 0 -10 h 20"></path></g><path d="M 40 173 h 10"></path><g>
<path d="M 50 173 h 0.0"></path><path d="M 1604.0 173 h 0.0"></path><g>
<path d="M 50.0 173 h 0.0"></path><path d="M 1604.0 173 h 0.0"></path><path d="M 50.0 173 h 20"></path><g>
<path d="M 70.0 173 h 147.5"></path><path d="M 1436.5 173 h 147.5"></path><g>
<path d="M 217.5 173 h 0.0"></path><g>
<path d="M 217.5 173 h 10.0"></path><path d="M 1048.0 173 h 10.0"></path><g class="terminal ">
<path d="M 227.5 173 h 0.0"></path><path d="M 281.5 173 h 0.0"></path><rect height="22" rx="10" ry="10" width="54.0" x="227.5" y="162"></rect><text x="254.5" y="177">'\+'</text></g><path d="M 281.5 173 h 10"></path><path d="M 291.5 173 h 10"></path><g>
<path d="M 301.5 173 h 0.0"></path><path d="M 917.0 173 h 0.0"></path><rect class="group-box" height="314" rx="10" ry="10" width="615.5" x="301.5" y="46"></rect><g>
<path d="M 301.5 173 h 10.0"></path><path d="M 907.0 173 h 10.0"></path><g>
<path d="M 311.5 173 h 0.0"></path><path d="M 907.0 173 h 0.0"></path><path d="M 311.5 173 a 10 10 0 0 0 10 -10 v -99 a 10 10 0 0 1 10 -10 h 414.5"></path><path d="M 481.0 352 h 406.0 a 10 10 0 0 0 10 -10 v -159 a 10 10 0 0 1 10 -10"></path><path d="M 311.5 173 h 10"></path><g>
<path d="M 321.5 173 h 10.0"></path><path d="M 451.0 173 h 10.0"></path><path d="M 331.5 173 a 10 10 0 0 0 10 -10 v -10 a 10 10 0 0 1 10 -10"></path><g class="terminal ">
<path d="M 351.5 143 h 12.75"></path><path d="M 418.25 143 h 12.75"></path><rect height="22" rx="10" ry="10" width="54.0" x="364.25" y="132"></rect><text x="391.25" y="147">"qs"</text></g><path d="M 431.0 143 a 10 10 0 0 1 10 10 v 10 a 10 10 0 0 0 10 10"></path><path d="M 331.5 173 a 10 10 0 0 0 10 -10 v -40 a 10 10 0 0 1 10 -10"></path><g class="terminal ">
<path d="M 351.5 113 h 8.5"></path><path d="M 422.5 113 h 8.5"></path><rect height="22" rx="10" ry="10" width="62.5" x="360.0" y="102"></rect><text x="391.25" y="117">"qac"</text></g><path d="M 431.0 113 a 10 10 0 0 1 10 10 v 40 a 10 10 0 0 0 10 10"></path><path d="M 331.5 173 a 10 10 0 0 0 10 -10 v -70 a 10 10 0 0 1 10 -10"></path><g class="terminal ">
<path d="M 351.5 83 h 12.75"></path><path d="M 418.25 83 h 12.75"></path><rect height="22" rx="10" ry="10" width="54.0" x="364.25" y="72"></rect><text x="391.25" y="87">"vp"</text></g><path d="M 431.0 83 a 10 10 0 0 1 10 10 v 70 a 10 10 0 0 0 10 10"></path><path d="M 331.5 173 h 20"></path><g class="terminal ">
<path d="M 351.5 173 h 8.5"></path><path d="M 422.5 173 h 8.5"></path><rect height="22" rx="10" ry="10" width="62.5" x="360.0" y="162"></rect><text x="391.25" y="177">"add"</text></g><path d="M 431.0 173 h 20"></path><path d="M 331.5 173 a 10 10 0 0 1 10 10 v 10 a 10 10 0 0 0 10 10"></path><g class="terminal ">
<path d="M 351.5 203 h 0.0"></path><path d="M 431.0 203 h 0.0"></path><rect height="22" rx="10" ry="10" width="79.5" x="351.5" y="192"></rect><text x="391.25" y="207">"addpn"</text></g><path d="M 431.0 203 a 10 10 0 0 0 10 -10 v -10 a 10 10 0 0 1 10 -10"></path><path d="M 331.5 173 a 10 10 0 0 1 10 10 v 40 a 10 10 0 0 0 10 10"></path><g class="terminal ">
<path d="M 351.5 233 h 12.75"></path><path d="M 418.25 233 h 12.75"></path><rect height="22" rx="10" ry="10" width="54.0" x="364.25" y="222"></rect><text x="391.25" y="237">"bk"</text></g><path d="M 431.0 233 a 10 10 0 0 0 10 -10 v -40 a 10 10 0 0 1 10 -10"></path><path d="M 331.5 173 a 10 10 0 0 1 10 10 v 70 a 10 10 0 0 0 10 10"></path><g class="terminal ">
<path d="M 351.5 263 h 12.75"></path><path d="M 418.25 263 h 12.75"></path><rect height="22" rx="10" ry="10" width="54.0" x="364.25" y="252"></rect><text x="391.25" y="267">"dc"</text></g><path d="M 431.0 263 a 10 10 0 0 0 10 -10 v -70 a 10 10 0 0 1 10 -10"></path><path d="M 331.5 173 a 10 10 0 0 1 10 10 v 100 a 10 10 0 0 0 10 10"></path><g class="terminal ">
<path d="M 351.5 293 h 8.5"></path><path d="M 422.5 293 h 8.5"></path><rect height="22" rx="10" ry="10" width="62.5" x="360.0" y="282"></rect><text x="391.25" y="297">"efm"</text></g><path d="M 431.0 293 a 10 10 0 0 0 10 -10 v -100 a 10 10 0 0 1 10 -10"></path><path d="M 331.5 173 a 10 10 0 0 1 10 10 v 130 a 10 10 0 0 0 10 10"></path><g class="terminal ">
<path d="M 351.5 323 h 12.75"></path><path d="M 418.25 323 h 12.75"></path><rect height="22" rx="10" ry="10" width="54.0" x="364.25" y="312"></rect><text x="391.25" y="327">"fm"</text></g><path d="M 431.0 323 a 10 10 0 0 0 10 -10 v -130 a 10 10 0 0 1 10 -10"></path></g><path d="M 461.0 173 a 10 10 0 0 1 10 10 v 159 a 10 10 0 0 0 10 10"></path><path d="M 461.0 54 a 10 10 0 0 1 10 10 v 99 a 10 10 0 0 0 10 10"></path><g>
<path d="M 481.0 173 h 10.0"></path><path d="M 593.5 173 h 10.0"></path><path d="M 491.0 173 a 10 10 0 0 0 10 -10 v -10 a 10 10 0 0 1 10 -10"></path><g class="terminal ">
<path d="M 511.0 143 h 0.0"></path><path d="M 573.5 143 h 0.0"></path><rect height="22" rx="10" ry="10" width="62.5" x="511.0" y="132"></rect><text x="542.25" y="147">"ndx"</text></g><path d="M 573.5 143 a 10 10 0 0 1 10 10 v 10 a 10 10 0 0 0 10 10"></path><path d="M 491.0 173 a 10 10 0 0 0 10 -10 v -40 a 10 10 0 0 1 10 -10"></path><g class="terminal ">
<path d="M 511.0 113 h 4.25"></path><path d="M 569.25 113 h 4.25"></path><rect height="22" rx="10" ry="10" width="54.0" x="515.25" y="102"></rect><text x="542.25" y="117">"nd"</text></g><path d="M 573.5 113 a 10 10 0 0 1 10 10 v 40 a 10 10 0 0 0 10 10"></path><path d="M 491.0 173 a 10 10 0 0 0 10 -10 v -70 a 10 10 0 0 1 10 -10"></path><g class="terminal ">
<path d="M 511.0 83 h 8.5"></path><path d="M 565.0 83 h 8.5"></path><rect height="22" rx="10" ry="10" width="45.5" x="519.5" y="72"></rect><text x="542.25" y="87">"k"</text></g><path d="M 573.5 83 a 10 10 0 0 1 10 10 v 70 a 10 10 0 0 0 10 10"></path><path d="M 491.0 173 h 20"></path><g class="terminal ">
<path d="M 511.0 173 h 0.0"></path><path d="M 573.5 173 h 0.0"></path><rect height="22" rx="10" ry="10" width="62.5" x="511.0" y="162"></rect><text x="542.25" y="177">"ord"</text></g><path d="M 573.5 173 h 20"></path><path d="M 491.0 173 a 10 10 0 0 1 10 10 v 10 a 10 10 0 0 0 10 10"></path><g class="terminal ">
<path d="M 511.0 203 h 0.0"></path><path d="M 573.5 203 h 0.0"></path><rect height="22" rx="10" ry="10" width="62.5" x="511.0" y="192"></rect><text x="542.25" y="207">"png"</text></g><path d="M 573.5 203 a 10 10 0 0 0 10 -10 v -10 a 10 10 0 0 1 10 -10"></path><path d="M 491.0 173 a 10 10 0 0 1 10 10 v 40 a 10 10 0 0 0 10 10"></path><g class="terminal ">
<path d="M 511.0 233 h 4.25"></path><path d="M 569.25 233 h 4.25"></path><rect height="22" rx="10" ry="10" width="54.0" x="515.25" y="222"></rect><text x="542.25" y="237">"pn"</text></g><path d="M 573.5 233 a 10 10 0 0 0 10 -10 v -40 a 10 10 0 0 1 10 -10"></path><path d="M 491.0 173 a 10 10 0 0 1 10 10 v 70 a 10 10 0 0 0 10 10"></path><g class="terminal ">
<path d="M 511.0 263 h 0.0"></path><path d="M 573.5 263 h 0.0"></path><rect height="22" rx="10" ry="10" width="62.5" x="511.0" y="252"></rect><text x="542.25" y="267">"pro"</text></g><path d="M 573.5 263 a 10 10 0 0 0 10 -10 v -70 a 10 10 0 0 1 10 -10"></path><path d="M 491.0 173 a 10 10 0 0 1 10 10 v 100 a 10 10 0 0 0 10 10"></path><g class="terminal ">
<path d="M 511.0 293 h 4.25"></path><path d="M 569.25 293 h 4.25"></path><rect height="22" rx="10" ry="10" width="54.0" x="515.25" y="282"></rect><text x="542.25" y="297">"qt"</text></g><path d="M 573.5 293 a 10 10 0 0 0 10 -10 v -100 a 10 10 0 0 1 10 -10"></path><path d="M 491.0 173 a 10 10 0 0 1 10 10 v 130 a 10 10 0 0 0 10 10"></path><g class="terminal ">
<path d="M 511.0 323 h 4.25"></path><path d="M 569.25 323 h 4.25"></path><rect height="22" rx="10" ry="10" width="54.0" x="515.25" y="312"></rect><text x="542.25" y="327">"rq"</text></g><path d="M 573.5 323 a 10 10 0 0 0 10 -10 v -130 a 10 10 0 0 1 10 -10"></path></g><path d="M 603.5 173 a 10 10 0 0 1 10 10 v 159 a 10 10 0 0 0 10 10"></path><path d="M 603.5 54 a 10 10 0 0 1 10 10 v 99 a 10 10 0 0 0 10 10"></path><g>
<path d="M 623.5 173 h 10.0"></path><path d="M 736.0 173 h 10.0"></path><path d="M 633.5 173 a 10 10 0 0 0 10 -10 v -10 a 10 10 0 0 1 10 -10"></path><g class="terminal ">
<path d="M 653.5 143 h 4.25"></path><path d="M 711.75 143 h 4.25"></path><rect height="22" rx="10" ry="10" width="54.0" x="657.75" y="132"></rect><text x="684.75" y="147">"tl"</text></g><path d="M 716.0 143 a 10 10 0 0 1 10 10 v 10 a 10 10 0 0 0 10 10"></path><path d="M 633.5 173 a 10 10 0 0 0 10 -10 v -40 a 10 10 0 0 1 10 -10"></path><g class="terminal ">
<path d="M 653.5 113 h 0.0"></path><path d="M 716.0 113 h 0.0"></path><rect height="22" rx="10" ry="10" width="62.5" x="653.5" y="102"></rect><text x="684.75" y="117">"sls"</text></g><path d="M 716.0 113 a 10 10 0 0 1 10 10 v 40 a 10 10 0 0 0 10 10"></path><path d="M 633.5 173 a 10 10 0 0 0 10 -10 v -70 a 10 10 0 0 1 10 -10"></path><g class="terminal ">
<path d="M 653.5 83 h 0.0"></path><path d="M 716.0 83 h 0.0"></path><rect height="22" rx="10" ry="10" width="62.5" x="653.5" y="72"></rect><text x="684.75" y="87">"sig"</text></g><path d="M 716.0 83 a 10 10 0 0 1 10 10 v 70 a 10 10 0 0 0 10 10"></path><path d="M 633.5 173 h 20"></path><g class="terminal ">
<path d="M 653.5 173 h 4.25"></path><path d="M 711.75 173 h 4.25"></path><rect height="22" rx="10" ry="10" width="54.0" x="657.75" y="162"></rect><text x="684.75" y="177">"wg"</text></g><path d="M 716.0 173 h 20"></path><path d="M 633.5 173 a 10 10 0 0 1 10 10 v 10 a 10 10 0 0 0 10 10"></path><g class="terminal ">
<path d="M 653.5 203 h 4.25"></path><path d="M 711.75 203 h 4.25"></path><rect height="22" rx="10" ry="10" width="54.0" x="657.75" y="192"></rect><text x="684.75" y="207">"wh"</text></g><path d="M 716.0 203 a 10 10 0 0 0 10 -10 v -10 a 10 10 0 0 1 10 -10"></path><path d="M 633.5 173 a 10 10 0 0 1 10 10 v 40 a 10 10 0 0 0 10 10"></path><g class="terminal ">
<path d="M 653.5 233 h 4.25"></path><path d="M 711.75 233 h 4.25"></path><rect height="22" rx="10" ry="10" width="54.0" x="657.75" y="222"></rect><text x="684.75" y="237">"wa"</text></g><path d="M 716.0 233 a 10 10 0 0 0 10 -10 v -40 a 10 10 0 0 1 10 -10"></path><path d="M 633.5 173 a 10 10 0 0 1 10 10 v 70 a 10 10 0 0 0 10 10"></path><g class="terminal ">
<path d="M 653.5 263 h 4.25"></path><path d="M 711.75 263 h 4.25"></path><rect height="22" rx="10" ry="10" width="54.0" x="657.75" y="252"></rect><text x="684.75" y="267">"wj"</text></g><path d="M 716.0 263 a 10 10 0 0 0 10 -10 v -70 a 10 10 0 0 1 10 -10"></path><path d="M 633.5 173 a 10 10 0 0 1 10 10 v 100 a 10 10 0 0 0 10 10"></path><g class="terminal ">
<path d="M 653.5 293 h 4.25"></path><path d="M 711.75 293 h 4.25"></path><rect height="22" rx="10" ry="10" width="54.0" x="657.75" y="282"></rect><text x="684.75" y="297">"xt"</text></g><path d="M 716.0 293 a 10 10 0 0 0 10 -10 v -100 a 10 10 0 0 1 10 -10"></path><path d="M 633.5 173 a 10 10 0 0 1 10 10 v 130 a 10 10 0 0 0 10 10"></path><g class="terminal ">
<path d="M 653.5 323 h 0.0"></path><path d="M 716.0 323 h 0.0"></path><rect height="22" rx="10" ry="10" width="62.5" x="653.5" y="312"></rect><text x="684.75" y="327">"jmp"</text></g><path d="M 716.0 323 a 10 10 0 0 0 10 -10 v -130 a 10 10 0 0 1 10 -10"></path></g><path d="M 746.0 173 a 10 10 0 0 1 10 10 v 159 a 10 10 0 0 0 10 10"></path><path d="M 746.0 54 a 10 10 0 0 1 10 10 v 99 a 10 10 0 0 0 10 10"></path><g>
<path d="M 766.0 173 h 10.0"></path><path d="M 887.0 173 h 10.0"></path><path d="M 776.0 173 a 10 10 0 0 0 10 -10 v -10 a 10 10 0 0 1 10 -10"></path><g class="terminal ">
<path d="M 796.0 143 h 0.0"></path><path d="M 867.0 143 h 0.0"></path><rect height="22" rx="10" ry="10" width="71.0" x="796.0" y="132"></rect><text x="831.5" y="147">"bdit"</text></g><path d="M 867.0 143 a 10 10 0 0 1 10 10 v 10 a 10 10 0 0 0 10 10"></path><path d="M 776.0 173 a 10 10 0 0 0 10 -10 v -40 a 10 10 0 0 1 10 -10"></path><g class="terminal ">
<path d="M 796.0 113 h 8.5"></path><path d="M 858.5 113 h 8.5"></path><rect height="22" rx="10" ry="10" width="54.0" x="804.5" y="102"></rect><text x="831.5" y="117">"it"</text></g><path d="M 867.0 113 a 10 10 0 0 1 10 10 v 40 a 10 10 0 0 0 10 10"></path><path d="M 776.0 173 a 10 10 0 0 0 10 -10 v -70 a 10 10 0 0 1 10 -10"></path><g class="terminal ">
<path d="M 796.0 83 h 8.5"></path><path d="M 858.5 83 h 8.5"></path><rect height="22" rx="10" ry="10" width="54.0" x="804.5" y="72"></rect><text x="831.5" y="87">"no"</text></g><path d="M 867.0 83 a 10 10 0 0 1 10 10 v 70 a 10 10 0 0 0 10 10"></path><path d="M 776.0 173 h 20"></path><g class="terminal ">
<path d="M 796.0 173 h 8.5"></path><path d="M 858.5 173 h 8.5"></path><rect height="22" rx="10" ry="10" width="54.0" x="804.5" y="162"></rect><text x="831.5" y="177">"bd"</text></g><path d="M 867.0 173 h 20"></path><path d="M 776.0 173 a 10 10 0 0 1 10 10 v 10 a 10 10 0 0 0 10 10"></path><g class="terminal ">
<path d="M 796.0 203 h 8.5"></path><path d="M 858.5 203 h 8.5"></path><rect height="22" rx="10" ry="10" width="54.0" x="804.5" y="192"></rect><text x="831.5" y="207">"em"</text></g><path d="M 867.0 203 a 10 10 0 0 0 10 -10 v -10 a 10 10 0 0 1 10 -10"></path><path d="M 776.0 173 a 10 10 0 0 1 10 10 v 40 a 10 10 0 0 0 10 10"></path><g class="terminal ">
<path d="M 796.0 233 h 8.5"></path><path d="M 858.5 233 h 8.5"></path><rect height="22" rx="10" ry="10" width="54.0" x="804.5" y="222"></rect><text x="831.5" y="237">"sc"</text></g><path d="M 867.0 233 a 10 10 0 0 0 10 -10 v -40 a 10 10 0 0 1 10 -10"></path><path d="M 776.0 173 a 10 10 0 0 1 10 10 v 70 a 10 10 0 0 0 10 10"></path><g class="terminal ">
<path d="M 796.0 263 h 4.25"></path><path d="M 862.75 263 h 4.25"></path><rect height="22" rx="10" ry="10" width="62.5" x="800.25" y="252"></rect><text x="831.5" y="267">"sup"</text></g><path d="M 867.0 263 a 10 10 0 0 0 10 -10 v -70 a 10 10 0 0 1 10 -10"></path></g><path d="M 897.0 173 h 10"></path></g></g><g class="non-terminal ">
<path d="M 301.5 38 h 0.0"></path><path d="M 318.5 38 h 0.0"></path><text class="comment" x="310.0" y="43">➋</text></g></g><path d="M 917.0 173 h 10"></path><path d="M 927.0 173 h 10"></path><g>
<path d="M 937.0 173 h 0.0"></path><path d="M 1048.0 173 h 0.0"></path><path d="M 937.0 173 h 20"></path><g class="terminal ">
<path d="M 957.0 173 h 12.75"></path><path d="M 1015.25 173 h 12.75"></path><rect height="22" rx="10" ry="10" width="45.5" x="969.75" y="162"></rect><text x="992.5" y="177">' '</text></g><path d="M 1028.0 173 h 20"></path><path d="M 937.0 173 a 10 10 0 0 1 10 10 v 10 a 10 10 0 0 0 10 10"></path><g class="terminal altterminal">
<path d="M 957.0 203 h 0.0"></path><path d="M 1028.0 203 h 0.0"></path><rect height="22" rx="10" ry="10" width="71.0" x="957.0" y="192"></rect><text x="992.5" y="207">TAGEND</text></g><path d="M 1028.0 203 a 10 10 0 0 0 10 -10 v -10 a 10 10 0 0 1 10 -10"></path></g></g><path d="M 1058.0 173 h 0.0"></path></g><path d="M 1058.0 173 h 10"></path><path d="M 1068.0 173 h 10"></path><g class="non-terminal ">
<path d="M 1078.0 173 h 0.0"></path><path d="M 1191.5 173 h 0.0"></path><rect height="22" width="113.5" x="1078.0" y="162"></rect><text x="1134.75" y="177">CharContent</text></g><path d="M 1191.5 173 h 10"></path><path d="M 1201.5 173 h 10"></path><g>
<path d="M 1211.5 173 h 0.0"></path><path d="M 1436.5 173 h 0.0"></path><path d="M 1211.5 173 h 20"></path><g>
<path d="M 1231.5 173 h 185.0"></path></g><path d="M 1416.5 173 h 20"></path><path d="M 1211.5 173 a 10 10 0 0 1 10 10 v 0 a 10 10 0 0 0 10 10"></path><g>
<path d="M 1231.5 193 h 0.0"></path><path d="M 1416.5 193 h 0.0"></path><g class="terminal ">
<path d="M 1231.5 193 h 0.0"></path><path d="M 1285.5 193 h 0.0"></path><rect height="22" rx="10" ry="10" width="54.0" x="1231.5" y="182"></rect><text x="1258.5" y="197">'\+'</text></g><path d="M 1285.5 193 h 10"></path><path d="M 1295.5 193 h 10"></path><g class="terminal ">
<path d="M 1305.5 193 h 0.0"></path><path d="M 1351.0 193 h 0.0"></path><rect height="22" rx="10" ry="10" width="45.5" x="1305.5" y="182"></rect><text x="1328.25" y="197">⇐ ➏</text></g><path d="M 1351.0 193 h 10"></path><path d="M 1361.0 193 h 10"></path><g class="terminal ">
<path d="M 1371.0 193 h 0.0"></path><path d="M 1416.5 193 h 0.0"></path><rect height="22" rx="10" ry="10" width="45.5" x="1371.0" y="182"></rect><text x="1393.75" y="197">'&#42;'</text></g></g><path d="M 1416.5 193 a 10 10 0 0 0 10 -10 v 0 a 10 10 0 0 1 10 -10"></path></g></g><path d="M 1584.0 173 h 20"></path><path d="M 50.0 173 a 10 10 0 0 1 10 10 v 220 a 10 10 0 0 0 10 10"></path><g>
<path d="M 70.0 413 h 0.0"></path><path d="M 1584.0 413 h 0.0"></path><g class="terminal ">
<path d="M 70.0 413 h 0.0"></path><path d="M 124.0 413 h 0.0"></path><rect height="22" rx="10" ry="10" width="54.0" x="70.0" y="402"></rect><text x="97.0" y="417">'\+'</text></g><path d="M 124.0 413 h 10"></path><path d="M 134.0 413 h 10"></path><g>
<path d="M 144.0 413 h 0.0"></path><path d="M 266.5 413 h 0.0"></path><rect class="group-box" height="118" rx="10" ry="10" width="122.5" x="144.0" y="384"></rect><g>
<path d="M 144.0 413 h 10.0"></path><path d="M 256.5 413 h 10.0"></path><g>
<path d="M 154.0 413 h 0.0"></path><path d="M 256.5 413 h 0.0"></path><path d="M 154.0 413 h 20"></path><g class="terminal ">
<path d="M 174.0 413 h 8.5"></path><path d="M 228.0 413 h 8.5"></path><rect height="22" rx="10" ry="10" width="45.5" x="182.5" y="402"></rect><text x="205.25" y="417">"w"</text></g><path d="M 236.5 413 h 20"></path><path d="M 154.0 413 a 10 10 0 0 1 10 10 v 10 a 10 10 0 0 0 10 10"></path><g class="terminal ">
<path d="M 174.0 443 h 4.25"></path><path d="M 232.25 443 h 4.25"></path><rect height="22" rx="10" ry="10" width="54.0" x="178.25" y="432"></rect><text x="205.25" y="447">"rb"</text></g><path d="M 236.5 443 a 10 10 0 0 0 10 -10 v -10 a 10 10 0 0 1 10 -10"></path><path d="M 154.0 413 a 10 10 0 0 1 10 10 v 40 a 10 10 0 0 0 10 10"></path><g class="terminal ">
<path d="M 174.0 473 h 0.0"></path><path d="M 236.5 473 h 0.0"></path><rect height="22" rx="10" ry="10" width="62.5" x="174.0" y="462"></rect><text x="205.25" y="477">"jmp"</text></g><path d="M 236.5 473 a 10 10 0 0 0 10 -10 v -40 a 10 10 0 0 1 10 -10"></path></g></g><g class="non-terminal ">
<path d="M 144.0 376 h 0.0"></path><path d="M 161.0 376 h 0.0"></path><text class="comment" x="152.5" y="381">➋</text></g></g><path d="M 266.5 413 h 10"></path><path d="M 276.5 413 h 10"></path><g>
<path d="M 286.5 413 h 0.0"></path><path d="M 397.5 413 h 0.0"></path><path d="M 286.5 413 h 20"></path><g class="terminal ">
<path d="M 306.5 413 h 12.75"></path><path d="M 364.75 413 h 12.75"></path><rect height="22" rx="10" ry="10" width="45.5" x="319.25" y="402"></rect><text x="342.0" y="417">' '</text></g><path d="M 377.5 413 h 20"></path><path d="M 286.5 413 a 10 10 0 0 1 10 10 v 10 a 10 10 0 0 0 10 10"></path><g class="terminal altterminal">
<path d="M 306.5 443 h 0.0"></path><path d="M 377.5 443 h 0.0"></path><rect height="22" rx="10" ry="10" width="71.0" x="306.5" y="432"></rect><text x="342.0" y="447">TAGEND</text></g><path d="M 377.5 443 a 10 10 0 0 0 10 -10 v -10 a 10 10 0 0 1 10 -10"></path></g><path d="M 397.5 413 h 10"></path><path d="M 407.5 413 h 10"></path><g>
<path d="M 417.5 413 h 0.0"></path><path d="M 648.0 413 h 0.0"></path><path d="M 417.5 413 a 10 10 0 0 0 10 -10 v -9 a 10 10 0 0 1 10 -10"></path><g>
<path d="M 437.5 384 h 190.5"></path></g><path d="M 628.0 384 a 10 10 0 0 1 10 10 v 9 a 10 10 0 0 0 10 10"></path><path d="M 417.5 413 h 20"></path><g>
<path d="M 437.5 413 h 0.0"></path><path d="M 628.0 413 h 0.0"></path><path d="M 437.5 413 h 10"></path><g>
<path d="M 447.5 413 h 0.0"></path><path d="M 618.0 413 h 0.0"></path><g>
<path d="M 447.5 413 h 0.0"></path><path d="M 618.0 413 h 0.0"></path><path d="M 447.5 413 h 20"></path><g class="non-terminal ">
<path d="M 467.5 413 h 17.0"></path><path d="M 581.0 413 h 17.0"></path><rect height="22" width="96.5" x="484.5" y="402"></rect><text x="532.75" y="417">CharEmbed</text></g><path d="M 598.0 413 h 20"></path><path d="M 447.5 413 a 10 10 0 0 1 10 10 v 10 a 10 10 0 0 0 10 10"></path><g>
<path d="M 467.5 443 h 0.0"></path><path d="M 598.0 443 h 0.0"></path><g class="terminal ">
<path d="M 467.5 443 h 0.0"></path><path d="M 598.0 443 h 0.0"></path><rect height="22" rx="10" ry="10" width="130.5" x="467.5" y="432"></rect><text x="532.75" y="447">TEXTNOTATTRIB</text></g></g><path d="M 598.0 443 a 10 10 0 0 0 10 -10 v -10 a 10 10 0 0 1 10 -10"></path></g></g><path d="M 618.0 413 h 10"></path><path d="M 447.5 413 a 10 10 0 0 0 -10 10 v 39 a 10 10 0 0 0 10 10"></path><g>
<path d="M 447.5 472 h 170.5"></path></g><path d="M 618.0 472 a 10 10 0 0 0 10 -10 v -39 a 10 10 0 0 0 -10 -10"></path></g><path d="M 628.0 413 h 20"></path></g><path d="M 648.0 413 h 10"></path><path d="M 658.0 413 h 10"></path><g>
<path d="M 668.0 413 h 0.0"></path><path d="M 1379.0 413 h 0.0"></path><path d="M 668.0 413 h 20"></path><g>
<path d="M 688.0 413 h 671.0"></path></g><path d="M 1359.0 413 h 20"></path><path d="M 668.0 413 a 10 10 0 0 1 10 10 v 9 a 10 10 0 0 0 10 10"></path><g>
<path d="M 688.0 442 h 0.0"></path><path d="M 1359.0 442 h 0.0"></path><g>
<path d="M 688.0 442 h 0.0"></path><path d="M 782.0 442 h 0.0"></path><path d="M 688.0 442 h 20"></path><g class="terminal ">
<path d="M 708.0 442 h 4.25"></path><path d="M 757.75 442 h 4.25"></path><rect height="22" rx="10" ry="10" width="45.5" x="712.25" y="431"></rect><text x="735.0" y="446">'|'</text></g><path d="M 762.0 442 h 20"></path><path d="M 688.0 442 a 10 10 0 0 1 10 10 v 10 a 10 10 0 0 0 10 10"></path><g class="terminal altterminal">
<path d="M 708.0 472 h 0.0"></path><path d="M 762.0 472 h 0.0"></path><rect height="22" rx="10" ry="10" width="54.0" x="708.0" y="461"></rect><text x="735.0" y="476">PIPE</text></g><path d="M 762.0 472 a 10 10 0 0 0 10 -10 v -10 a 10 10 0 0 1 10 -10"></path></g><path d="M 782.0 442 h 10"></path><path d="M 792.0 442 h 10"></path><g>
<path d="M 802.0 442 h 0.0"></path><path d="M 1359.0 442 h 0.0"></path><path d="M 802.0 442 h 10"></path><g>
<path d="M 812.0 442 h 0.0"></path><path d="M 1349.0 442 h 0.0"></path><g>
<path d="M 812.0 442 h 0.0"></path><path d="M 1349.0 442 h 0.0"></path><path d="M 812.0 442 h 20"></path><g class="terminal ">
<path d="M 832.0 442 h 166.25"></path><path d="M 1162.75 442 h 166.25"></path><rect height="22" rx="10" ry="10" width="164.5" x="998.25" y="431"></rect><text x="1080.5" y="446">/&#91;^\\\n=&#93;+(?=\\)/</text></g><path d="M 1329.0 442 h 20"></path><path d="M 812.0 442 a 10 10 0 0 1 10 10 v 10 a 10 10 0 0 0 10 10"></path><g>
<path d="M 832.0 472 h 0.0"></path><path d="M 1329.0 472 h 0.0"></path><g class="terminal ">
<path d="M 832.0 472 h 0.0"></path><path d="M 937.0 472 h 0.0"></path><rect height="22" rx="10" ry="10" width="105.0" x="832.0" y="461"></rect><text x="884.5" y="476">ATTRIBNAME</text></g><path d="M 937.0 472 h 10"></path><path d="M 947.0 472 h 10"></path><g class="terminal ">
<path d="M 957.0 472 h 0.0"></path><path d="M 1011.0 472 h 0.0"></path><rect height="22" rx="10" ry="10" width="54.0" x="957.0" y="461"></rect><text x="984.0" y="476">'="'</text></g><path d="M 1011.0 472 h 10"></path><path d="M 1021.0 472 h 10"></path><g class="terminal ">
<path d="M 1031.0 472 h 0.0"></path><path d="M 1136.0 472 h 0.0"></path><rect height="22" rx="10" ry="10" width="105.0" x="1031.0" y="461"></rect><text x="1083.5" y="476">ATTRIBTEXT</text></g><path d="M 1136.0 472 h 10"></path><path d="M 1146.0 472 h 10"></path><g class="terminal ">
<path d="M 1156.0 472 h 0.0"></path><path d="M 1329.0 472 h 0.0"></path><rect height="22" rx="10" ry="10" width="173.0" x="1156.0" y="461"></rect><text x="1242.5" y="476">/"&#91;\u0009\u0020&#93;&#42;/</text></g></g><path d="M 1329.0 472 a 10 10 0 0 0 10 -10 v -10 a 10 10 0 0 1 10 -10"></path></g></g><path d="M 1349.0 442 h 10"></path><path d="M 812.0 442 a 10 10 0 0 0 -10 10 v 39 a 10 10 0 0 0 10 10"></path><g>
<path d="M 812.0 501 h 537.0"></path></g><path d="M 1349.0 501 a 10 10 0 0 0 10 -10 v -39 a 10 10 0 0 0 -10 -10"></path></g></g><path d="M 1359.0 442 a 10 10 0 0 0 10 -10 v -9 a 10 10 0 0 1 10 -10"></path></g><path d="M 1379.0 413 h 10"></path><path d="M 1389.0 413 h 10"></path><g class="terminal ">
<path d="M 1399.0 413 h 0.0"></path><path d="M 1453.0 413 h 0.0"></path><rect height="22" rx="10" ry="10" width="54.0" x="1399.0" y="402"></rect><text x="1426.0" y="417">'\+'</text></g><path d="M 1453.0 413 h 10"></path><path d="M 1463.0 413 h 10"></path><g class="terminal ">
<path d="M 1473.0 413 h 0.0"></path><path d="M 1518.5 413 h 0.0"></path><rect height="22" rx="10" ry="10" width="45.5" x="1473.0" y="402"></rect><text x="1495.75" y="417">⇐ ➎</text></g><path d="M 1518.5 413 h 10"></path><path d="M 1528.5 413 h 10"></path><g class="terminal ">
<path d="M 1538.5 413 h 0.0"></path><path d="M 1584.0 413 h 0.0"></path><rect height="22" rx="10" ry="10" width="45.5" x="1538.5" y="402"></rect><text x="1561.25" y="417">'&#42;'</text></g></g><path d="M 1584.0 413 a 10 10 0 0 0 10 -10 v -220 a 10 10 0 0 1 10 -10"></path><path d="M 50.0 173 a 10 10 0 0 1 10 10 v 337 a 10 10 0 0 0 10 10"></path><g class="non-terminal ">
<path d="M 70.0 530 h 721.5"></path><path d="M 862.5 530 h 721.5"></path><rect height="22" width="71.0" x="791.5" y="519"></rect><text x="827.0" y="534">Figure</text></g><path d="M 1584.0 530 a 10 10 0 0 0 10 -10 v -337 a 10 10 0 0 1 10 -10"></path></g></g><path d="M 1604.0 173 h 10"></path><path d="M 1614.0 173 h 20 m 0 -10 v 20"></path></g></svg>