<svg class="railroad-diagram" height="883" viewBox="0 0 1167.0 883" width="1167.0" xmlns="http://www.w3.org/2000/svg" xmlns:xlink="http://www.w3.org/1999/xlink">
<g transform="translate(.5 .5)">
<style>/* <![CDATA[ */

    svg.railroad-diagram {
        background-color: hsl(30,20%,95%);
    }
    svg.railroad-diagram path {
        stroke-width: 2;
        stroke: black;
        fill: none;
    }
    svg.railroad-diagram text {
        font-size: 12px;
        text-anchor: middle;
        font-family: DejaVu Sans;
    }
    svg.railroad-diagram text.label {
        text-anchor:start;
    }
    svg.railroad-diagram text.comment {
        font-family: DejaVu Sans;
        font-size: 14px;
    }
    svg.railroad-diagram rect{
        stroke-width: 2;
        stroke: black;
        fill: rgb(210, 255, 210);
    }
    svg.railroad-diagram rect.group-box {
        stroke: gray;
        stroke-dasharray: 10 5;
        fill: none;
    }
    .terminal {
        font-family: DejaVu Sans;
    }
    svg.railroad-diagram g.altterminal rect {
        fill: rgb(251, 252, 207)
    }

/* ]]> */
</style><g>
<path d="M 20 153 v 20 m 0 -10 h 20"></path></g><path d="M 40 163 h 10"></path><g>
<path d="M 50 163 h 0.0"></path><path d="M 1117.0 852 h 0.0"></path><g>
<path d="M 50.0 163 h 0.0"></path><path d="M 50.0 163 h 10"></path><g>
<path d="M 60.0 163 h 113.25"></path><path d="M 993.75 163 h 113.25"></path><g class="terminal ">
<path d="M 173.25 163 h 0.0"></path><path d="M 227.25 163 h 0.0"></path><rect height="22" rx="10" ry="10" width="54.0" x="173.25" y="152"></rect><text x="200.25" y="167">'\\'</text></g><path d="M 227.25 163 h 10"></path><path d="M 237.25 163 h 10"></path><g>
<path d="M 247.25 163 h 0.0"></path><path d="M 862.75 163 h 0.0"></path><rect class="group-box" height="404" rx="10" ry="10" width="615.5" x="247.25" y="36"></rect><g>
<path d="M 247.25 163 h 10.0"></path><path d="M 852.75 163 h 10.0"></path><g>
<path d="M 257.25 163 h 0.0"></path><path d="M 852.75 163 h 0.0"></path><path d="M 257.25 163 a 10 10 0 0 0 10 -10 v -99 a 10 10 0 0 1 10 -10 h 423.0"></path><path d="M 426.75 432 h 406.0 a 10 10 0 0 0 10 -10 v -249 a 10 10 0 0 1 10 -10"></path><path d="M 257.25 163 h 10"></path><g>
<path d="M 267.25 163 h 10.0"></path><path d="M 396.75 163 h 10.0"></path><path d="M 277.25 163 a 10 10 0 0 0 10 -10 v -10 a 10 10 0 0 1 10 -10"></path><g class="terminal ">
<path d="M 297.25 133 h 12.75"></path><path d="M 364.0 133 h 12.75"></path><rect height="22" rx="10" ry="10" width="54.0" x="310.0" y="122"></rect><text x="337.0" y="137">"qs"</text></g><path d="M 376.75 133 a 10 10 0 0 1 10 10 v 10 a 10 10 0 0 0 10 10"></path><path d="M 277.25 163 a 10 10 0 0 0 10 -10 v -40 a 10 10 0 0 1 10 -10"></path><g class="terminal ">
<path d="M 297.25 103 h 8.5"></path><path d="M 368.25 103 h 8.5"></path><rect height="22" rx="10" ry="10" width="62.5" x="305.75" y="92"></rect><text x="337.0" y="107">"qac"</text></g><path d="M 376.75 103 a 10 10 0 0 1 10 10 v 40 a 10 10 0 0 0 10 10"></path><path d="M 277.25 163 a 10 10 0 0 0 10 -10 v -70 a 10 10 0 0 1 10 -10"></path><g class="terminal ">
<path d="M 297.25 73 h 12.75"></path><path d="M 364.0 73 h 12.75"></path><rect height="22" rx="10" ry="10" width="54.0" x="310.0" y="62"></rect><text x="337.0" y="77">"vp"</text></g><path d="M 376.75 73 a 10 10 0 0 1 10 10 v 70 a 10 10 0 0 0 10 10"></path><path d="M 277.25 163 h 20"></path><g class="terminal ">
<path d="M 297.25 163 h 8.5"></path><path d="M 368.25 163 h 8.5"></path><rect height="22" rx="10" ry="10" width="62.5" x="305.75" y="152"></rect><text x="337.0" y="167">"add"</text></g><path d="M 376.75 163 h 20"></path><path d="M 277.25 163 a 10 10 0 0 1 10 10 v 10 a 10 10 0 0 0 10 10"></path><g class="terminal ">
<path d="M 297.25 193 h 0.0"></path><path d="M 376.75 193 h 0.0"></path><rect height="22" rx="10" ry="10" width="79.5" x="297.25" y="182"></rect><text x="337.0" y="197">"addpn"</text></g><path d="M 376.75 193 a 10 10 0 0 0 10 -10 v -10 a 10 10 0 0 1 10 -10"></path><path d="M 277.25 163 a 10 10 0 0 1 10 10 v 40 a 10 10 0 0 0 10 10"></path><g class="terminal ">
<path d="M 297.25 223 h 12.75"></path><path d="M 364.0 223 h 12.75"></path><rect height="22" rx="10" ry="10" width="54.0" x="310.0" y="212"></rect><text x="337.0" y="227">"bk"</text></g><path d="M 376.75 223 a 10 10 0 0 0 10 -10 v -40 a 10 10 0 0 1 10 -10"></path><path d="M 277.25 163 a 10 10 0 0 1 10 10 v 70 a 10 10 0 0 0 10 10"></path><g class="terminal ">
<path d="M 297.25 253 h 12.75"></path><path d="M 364.0 253 h 12.75"></path><rect height="22" rx="10" ry="10" width="54.0" x="310.0" y="242"></rect><text x="337.0" y="257">"dc"</text></g><path d="M 376.75 253 a 10 10 0 0 0 10 -10 v -70 a 10 10 0 0 1 10 -10"></path><path d="M 277.25 163 a 10 10 0 0 1 10 10 v 100 a 10 10 0 0 0 10 10"></path><g class="terminal ">
<path d="M 297.25 283 h 8.5"></path><path d="M 368.25 283 h 8.5"></path><rect height="22" rx="10" ry="10" width="62.5" x="305.75" y="272"></rect><text x="337.0" y="287">"efm"</text></g><path d="M 376.75 283 a 10 10 0 0 0 10 -10 v -100 a 10 10 0 0 1 10 -10"></path><path d="M 277.25 163 a 10 10 0 0 1 10 10 v 130 a 10 10 0 0 0 10 10"></path><g class="terminal ">
<path d="M 297.25 313 h 12.75"></path><path d="M 364.0 313 h 12.75"></path><rect height="22" rx="10" ry="10" width="54.0" x="310.0" y="302"></rect><text x="337.0" y="317">"fm"</text></g><path d="M 376.75 313 a 10 10 0 0 0 10 -10 v -130 a 10 10 0 0 1 10 -10"></path><path d="M 277.25 163 a 10 10 0 0 1 10 10 v 160 a 10 10 0 0 0 10 10"></path><g class="terminal ">
<path d="M 297.25 343 h 12.75"></path><path d="M 364.0 343 h 12.75"></path><rect height="22" rx="10" ry="10" width="54.0" x="310.0" y="332"></rect><text x="337.0" y="347">"fv"</text></g><path d="M 376.75 343 a 10 10 0 0 0 10 -10 v -160 a 10 10 0 0 1 10 -10"></path><path d="M 277.25 163 a 10 10 0 0 1 10 10 v 190 a 10 10 0 0 0 10 10"></path><g class="terminal ">
<path d="M 297.25 373 h 17.0"></path><path d="M 359.75 373 h 17.0"></path><rect height="22" rx="10" ry="10" width="45.5" x="314.25" y="362"></rect><text x="337.0" y="377">"k"</text></g><path d="M 376.75 373 a 10 10 0 0 0 10 -10 v -190 a 10 10 0 0 1 10 -10"></path><path d="M 277.25 163 a 10 10 0 0 1 10 10 v 220 a 10 10 0 0 0 10 10"></path><g class="terminal ">
<path d="M 297.25 403 h 12.75"></path><path d="M 364.0 403 h 12.75"></path><rect height="22" rx="10" ry="10" width="54.0" x="310.0" y="392"></rect><text x="337.0" y="407">"nd"</text></g><path d="M 376.75 403 a 10 10 0 0 0 10 -10 v -220 a 10 10 0 0 1 10 -10"></path></g><path d="M 406.75 163 a 10 10 0 0 1 10 10 v 249 a 10 10 0 0 0 10 10"></path><path d="M 406.75 44 a 10 10 0 0 1 10 10 v 99 a 10 10 0 0 0 10 10"></path><g>
<path d="M 426.75 163 h 10.0"></path><path d="M 539.25 163 h 10.0"></path><path d="M 436.75 163 a 10 10 0 0 0 10 -10 v -10 a 10 10 0 0 1 10 -10"></path><g class="terminal ">
<path d="M 456.75 133 h 0.0"></path><path d="M 519.25 133 h 0.0"></path><rect height="22" rx="10" ry="10" width="62.5" x="456.75" y="122"></rect><text x="488.0" y="137">"png"</text></g><path d="M 519.25 133 a 10 10 0 0 1 10 10 v 10 a 10 10 0 0 0 10 10"></path><path d="M 436.75 163 a 10 10 0 0 0 10 -10 v -40 a 10 10 0 0 1 10 -10"></path><g class="terminal ">
<path d="M 456.75 103 h 0.0"></path><path d="M 519.25 103 h 0.0"></path><rect height="22" rx="10" ry="10" width="62.5" x="456.75" y="92"></rect><text x="488.0" y="107">"ord"</text></g><path d="M 519.25 103 a 10 10 0 0 1 10 10 v 40 a 10 10 0 0 0 10 10"></path><path d="M 436.75 163 a 10 10 0 0 0 10 -10 v -70 a 10 10 0 0 1 10 -10"></path><g class="terminal ">
<path d="M 456.75 73 h 0.0"></path><path d="M 519.25 73 h 0.0"></path><rect height="22" rx="10" ry="10" width="62.5" x="456.75" y="62"></rect><text x="488.0" y="77">"ndx"</text></g><path d="M 519.25 73 a 10 10 0 0 1 10 10 v 70 a 10 10 0 0 0 10 10"></path><path d="M 436.75 163 h 20"></path><g class="terminal ">
<path d="M 456.75 163 h 4.25"></path><path d="M 515.0 163 h 4.25"></path><rect height="22" rx="10" ry="10" width="54.0" x="461.0" y="152"></rect><text x="488.0" y="167">"pn"</text></g><path d="M 519.25 163 h 20"></path><path d="M 436.75 163 a 10 10 0 0 1 10 10 v 10 a 10 10 0 0 0 10 10"></path><g class="terminal ">
<path d="M 456.75 193 h 0.0"></path><path d="M 519.25 193 h 0.0"></path><rect height="22" rx="10" ry="10" width="62.5" x="456.75" y="182"></rect><text x="488.0" y="197">"pro"</text></g><path d="M 519.25 193 a 10 10 0 0 0 10 -10 v -10 a 10 10 0 0 1 10 -10"></path><path d="M 436.75 163 a 10 10 0 0 1 10 10 v 40 a 10 10 0 0 0 10 10"></path><g class="terminal ">
<path d="M 456.75 223 h 4.25"></path><path d="M 515.0 223 h 4.25"></path><rect height="22" rx="10" ry="10" width="54.0" x="461.0" y="212"></rect><text x="488.0" y="227">"qt"</text></g><path d="M 519.25 223 a 10 10 0 0 0 10 -10 v -40 a 10 10 0 0 1 10 -10"></path><path d="M 436.75 163 a 10 10 0 0 1 10 10 v 70 a 10 10 0 0 0 10 10"></path><g class="terminal ">
<path d="M 456.75 253 h 4.25"></path><path d="M 515.0 253 h 4.25"></path><rect height="22" rx="10" ry="10" width="54.0" x="461.0" y="242"></rect><text x="488.0" y="257">"rq"</text></g><path d="M 519.25 253 a 10 10 0 0 0 10 -10 v -70 a 10 10 0 0 1 10 -10"></path><path d="M 436.75 163 a 10 10 0 0 1 10 10 v 100 a 10 10 0 0 0 10 10"></path><g class="terminal ">
<path d="M 456.75 283 h 0.0"></path><path d="M 519.25 283 h 0.0"></path><rect height="22" rx="10" ry="10" width="62.5" x="456.75" y="272"></rect><text x="488.0" y="287">"sig"</text></g><path d="M 519.25 283 a 10 10 0 0 0 10 -10 v -100 a 10 10 0 0 1 10 -10"></path><path d="M 436.75 163 a 10 10 0 0 1 10 10 v 130 a 10 10 0 0 0 10 10"></path><g class="terminal ">
<path d="M 456.75 313 h 0.0"></path><path d="M 519.25 313 h 0.0"></path><rect height="22" rx="10" ry="10" width="62.5" x="456.75" y="302"></rect><text x="488.0" y="317">"sls"</text></g><path d="M 519.25 313 a 10 10 0 0 0 10 -10 v -130 a 10 10 0 0 1 10 -10"></path><path d="M 436.75 163 a 10 10 0 0 1 10 10 v 160 a 10 10 0 0 0 10 10"></path><g class="terminal ">
<path d="M 456.75 343 h 4.25"></path><path d="M 515.0 343 h 4.25"></path><rect height="22" rx="10" ry="10" width="54.0" x="461.0" y="332"></rect><text x="488.0" y="347">"tl"</text></g><path d="M 519.25 343 a 10 10 0 0 0 10 -10 v -160 a 10 10 0 0 1 10 -10"></path><path d="M 436.75 163 a 10 10 0 0 1 10 10 v 190 a 10 10 0 0 0 10 10"></path><g class="terminal ">
<path d="M 456.75 373 h 4.25"></path><path d="M 515.0 373 h 4.25"></path><rect height="22" rx="10" ry="10" width="54.0" x="461.0" y="362"></rect><text x="488.0" y="377">"wg"</text></g><path d="M 519.25 373 a 10 10 0 0 0 10 -10 v -190 a 10 10 0 0 1 10 -10"></path><path d="M 436.75 163 a 10 10 0 0 1 10 10 v 220 a 10 10 0 0 0 10 10"></path><g class="terminal ">
<path d="M 456.75 403 h 4.25"></path><path d="M 515.0 403 h 4.25"></path><rect height="22" rx="10" ry="10" width="54.0" x="461.0" y="392"></rect><text x="488.0" y="407">"wh"</text></g><path d="M 519.25 403 a 10 10 0 0 0 10 -10 v -220 a 10 10 0 0 1 10 -10"></path></g><path d="M 549.25 163 a 10 10 0 0 1 10 10 v 249 a 10 10 0 0 0 10 10"></path><path d="M 549.25 44 a 10 10 0 0 1 10 10 v 99 a 10 10 0 0 0 10 10"></path><g>
<path d="M 569.25 163 h 10.0"></path><path d="M 690.25 163 h 10.0"></path><path d="M 579.25 163 a 10 10 0 0 0 10 -10 v -10 a 10 10 0 0 1 10 -10"></path><g class="terminal ">
<path d="M 599.25 133 h 4.25"></path><path d="M 666.0 133 h 4.25"></path><rect height="22" rx="10" ry="10" width="62.5" x="603.5" y="122"></rect><text x="634.75" y="137">"jmp"</text></g><path d="M 670.25 133 a 10 10 0 0 1 10 10 v 10 a 10 10 0 0 0 10 10"></path><path d="M 579.25 163 a 10 10 0 0 0 10 -10 v -40 a 10 10 0 0 1 10 -10"></path><g class="terminal ">
<path d="M 599.25 103 h 8.5"></path><path d="M 661.75 103 h 8.5"></path><rect height="22" rx="10" ry="10" width="54.0" x="607.75" y="92"></rect><text x="634.75" y="107">"wj"</text></g><path d="M 670.25 103 a 10 10 0 0 1 10 10 v 40 a 10 10 0 0 0 10 10"></path><path d="M 579.25 163 a 10 10 0 0 0 10 -10 v -70 a 10 10 0 0 1 10 -10"></path><g class="terminal ">
<path d="M 599.25 73 h 8.5"></path><path d="M 661.75 73 h 8.5"></path><rect height="22" rx="10" ry="10" width="54.0" x="607.75" y="62"></rect><text x="634.75" y="77">"wa"</text></g><path d="M 670.25 73 a 10 10 0 0 1 10 10 v 70 a 10 10 0 0 0 10 10"></path><path d="M 579.25 163 h 20"></path><g class="terminal ">
<path d="M 599.25 163 h 8.5"></path><path d="M 661.75 163 h 8.5"></path><rect height="22" rx="10" ry="10" width="54.0" x="607.75" y="152"></rect><text x="634.75" y="167">"no"</text></g><path d="M 670.25 163 h 20"></path><path d="M 579.25 163 a 10 10 0 0 1 10 10 v 10 a 10 10 0 0 0 10 10"></path><g class="terminal ">
<path d="M 599.25 193 h 8.5"></path><path d="M 661.75 193 h 8.5"></path><rect height="22" rx="10" ry="10" width="54.0" x="607.75" y="182"></rect><text x="634.75" y="197">"it"</text></g><path d="M 670.25 193 a 10 10 0 0 0 10 -10 v -10 a 10 10 0 0 1 10 -10"></path><path d="M 579.25 163 a 10 10 0 0 1 10 10 v 40 a 10 10 0 0 0 10 10"></path><g class="terminal ">
<path d="M 599.25 223 h 0.0"></path><path d="M 670.25 223 h 0.0"></path><rect height="22" rx="10" ry="10" width="71.0" x="599.25" y="212"></rect><text x="634.75" y="227">"bdit"</text></g><path d="M 670.25 223 a 10 10 0 0 0 10 -10 v -40 a 10 10 0 0 1 10 -10"></path><path d="M 579.25 163 a 10 10 0 0 1 10 10 v 70 a 10 10 0 0 0 10 10"></path><g class="terminal ">
<path d="M 599.25 253 h 8.5"></path><path d="M 661.75 253 h 8.5"></path><rect height="22" rx="10" ry="10" width="54.0" x="607.75" y="242"></rect><text x="634.75" y="257">"bd"</text></g><path d="M 670.25 253 a 10 10 0 0 0 10 -10 v -70 a 10 10 0 0 1 10 -10"></path><path d="M 579.25 163 a 10 10 0 0 1 10 10 v 100 a 10 10 0 0 0 10 10"></path><g class="terminal ">
<path d="M 599.25 283 h 8.5"></path><path d="M 661.75 283 h 8.5"></path><rect height="22" rx="10" ry="10" width="54.0" x="607.75" y="272"></rect><text x="634.75" y="287">"em"</text></g><path d="M 670.25 283 a 10 10 0 0 0 10 -10 v -100 a 10 10 0 0 1 10 -10"></path><path d="M 579.25 163 a 10 10 0 0 1 10 10 v 130 a 10 10 0 0 0 10 10"></path><g class="terminal ">
<path d="M 599.25 313 h 8.5"></path><path d="M 661.75 313 h 8.5"></path><rect height="22" rx="10" ry="10" width="54.0" x="607.75" y="302"></rect><text x="634.75" y="317">"sc"</text></g><path d="M 670.25 313 a 10 10 0 0 0 10 -10 v -130 a 10 10 0 0 1 10 -10"></path><path d="M 579.25 163 a 10 10 0 0 1 10 10 v 160 a 10 10 0 0 0 10 10"></path><g class="terminal ">
<path d="M 599.25 343 h 4.25"></path><path d="M 666.0 343 h 4.25"></path><rect height="22" rx="10" ry="10" width="62.5" x="603.5" y="332"></rect><text x="634.75" y="347">"sup"</text></g><path d="M 670.25 343 a 10 10 0 0 0 10 -10 v -160 a 10 10 0 0 1 10 -10"></path><path d="M 579.25 163 a 10 10 0 0 1 10 10 v 190 a 10 10 0 0 0 10 10"></path><g class="terminal ">
<path d="M 599.25 373 h 12.75"></path><path d="M 657.5 373 h 12.75"></path><rect height="22" rx="10" ry="10" width="45.5" x="612.0" y="362"></rect><text x="634.75" y="377">"w"</text></g><path d="M 670.25 373 a 10 10 0 0 0 10 -10 v -190 a 10 10 0 0 1 10 -10"></path><path d="M 579.25 163 a 10 10 0 0 1 10 10 v 220 a 10 10 0 0 0 10 10"></path><g class="terminal ">
<path d="M 599.25 403 h 8.5"></path><path d="M 661.75 403 h 8.5"></path><rect height="22" rx="10" ry="10" width="54.0" x="607.75" y="392"></rect><text x="634.75" y="407">"rb"</text></g><path d="M 670.25 403 a 10 10 0 0 0 10 -10 v -220 a 10 10 0 0 1 10 -10"></path></g><path d="M 700.25 163 a 10 10 0 0 1 10 10 v 249 a 10 10 0 0 0 10 10"></path><path d="M 700.25 44 a 10 10 0 0 1 10 10 v 99 a 10 10 0 0 0 10 10"></path><g>
<path d="M 720.25 163 h 10.0"></path><path d="M 832.75 163 h 10.0"></path><path d="M 730.25 163 h 20"></path><g class="terminal ">
<path d="M 750.25 163 h 0.0"></path><path d="M 812.75 163 h 0.0"></path><rect height="22" rx="10" ry="10" width="62.5" x="750.25" y="152"></rect><text x="781.5" y="167">"jmp"</text></g><path d="M 812.75 163 h 20"></path><path d="M 730.25 163 a 10 10 0 0 1 10 10 v 10 a 10 10 0 0 0 10 10"></path><g class="terminal ">
<path d="M 750.25 193 h 4.25"></path><path d="M 808.5 193 h 4.25"></path><rect height="22" rx="10" ry="10" width="54.0" x="754.5" y="182"></rect><text x="781.5" y="197">"xt"</text></g><path d="M 812.75 193 a 10 10 0 0 0 10 -10 v -10 a 10 10 0 0 1 10 -10"></path></g><path d="M 842.75 163 h 10"></path></g></g><g class="non-terminal ">
<path d="M 247.25 28 h 0.0"></path><path d="M 264.25 28 h 0.0"></path><text class="comment" x="255.75" y="33">➋</text></g></g><path d="M 862.75 163 h 10"></path><path d="M 872.75 163 h 10"></path><g>
<path d="M 882.75 163 h 0.0"></path><path d="M 993.75 163 h 0.0"></path><path d="M 882.75 163 h 20"></path><g class="terminal ">
<path d="M 902.75 163 h 12.75"></path><path d="M 961.0 163 h 12.75"></path><rect height="22" rx="10" ry="10" width="45.5" x="915.5" y="152"></rect><text x="938.25" y="167">' '</text></g><path d="M 973.75 163 h 20"></path><path d="M 882.75 163 a 10 10 0 0 1 10 10 v 10 a 10 10 0 0 0 10 10"></path><g class="terminal altterminal">
<path d="M 902.75 193 h 0.0"></path><path d="M 973.75 193 h 0.0"></path><rect height="22" rx="10" ry="10" width="71.0" x="902.75" y="182"></rect><text x="938.25" y="197">TAGEND</text></g><path d="M 973.75 193 a 10 10 0 0 0 10 -10 v -10 a 10 10 0 0 1 10 -10"></path></g></g><path d="M 1107.0 163 a 10 10 0 0 1 10 10 v 265 a 10 10 0 0 1 -10 10 h -1047.0 a 10 10 0 0 0 -10 10 v 19 a 10 10 0 0 0 10 10"></path><g>
<path d="M 60.0 487 h 10.0"></path><path d="M 1097.0 487 h 10.0"></path><path d="M 70.0 487 h 20"></path><g>
<path d="M 90.0 487 h 0.0"></path><path d="M 1077.0 487 h 0.0"></path><g>
<path d="M 90.0 487 h 0.0"></path><path d="M 431.0 487 h 0.0"></path><path d="M 90.0 487 h 10"></path><g>
<path d="M 100.0 487 h 0.0"></path><path d="M 421.0 487 h 0.0"></path><path d="M 100.0 487 h 20"></path><g>
<path d="M 120.0 487 h 0.0"></path><path d="M 401.0 487 h 0.0"></path><g class="terminal ">
<path d="M 120.0 487 h 0.0"></path><path d="M 250.5 487 h 0.0"></path><rect height="22" rx="10" ry="10" width="130.5" x="120.0" y="476"></rect><text x="185.25" y="491">TEXTNOTATTRIB</text></g><path d="M 250.5 487 h 10"></path><path d="M 260.5 487 h 10"></path><g class="terminal ">
<path d="M 270.5 487 h 0.0"></path><path d="M 401.0 487 h 0.0"></path><rect height="22" rx="10" ry="10" width="130.5" x="270.5" y="476"></rect><text x="335.75" y="491">ATTRIBTEXTEND</text></g></g><path d="M 401.0 487 h 20"></path><path d="M 100.0 487 a 10 10 0 0 1 10 10 v 10 a 10 10 0 0 0 10 10"></path><g class="non-terminal ">
<path d="M 120.0 517 h 92.25"></path><path d="M 308.75 517 h 92.25"></path><rect height="22" width="96.5" x="212.25" y="506"></rect><text x="260.5" y="521">CharEmbed</text></g><path d="M 401.0 517 a 10 10 0 0 0 10 -10 v -10 a 10 10 0 0 1 10 -10"></path><path d="M 100.0 487 a 10 10 0 0 1 10 10 v 40 a 10 10 0 0 0 10 10"></path><g class="non-terminal ">
<path d="M 120.0 547 h 105.0"></path><path d="M 296.0 547 h 105.0"></path><rect height="22" width="71.0" x="225.0" y="536"></rect><text x="260.5" y="551">Figure</text></g><path d="M 401.0 547 a 10 10 0 0 0 10 -10 v -40 a 10 10 0 0 1 10 -10"></path><path d="M 100.0 487 a 10 10 0 0 1 10 10 v 70 a 10 10 0 0 0 10 10"></path><g class="non-terminal ">
<path d="M 120.0 577 h 92.25"></path><path d="M 308.75 577 h 92.25"></path><rect height="22" width="96.5" x="212.25" y="566"></rect><text x="260.5" y="581">Milestone</text></g><path d="M 401.0 577 a 10 10 0 0 0 10 -10 v -70 a 10 10 0 0 1 10 -10"></path><path d="M 100.0 487 a 10 10 0 0 1 10 10 v 100 a 10 10 0 0 0 10 10"></path><g class="non-terminal ">
<path d="M 120.0 607 h 96.5"></path><path d="M 304.5 607 h 96.5"></path><rect height="22" width="88.0" x="216.5" y="596"></rect><text x="260.5" y="611">Footnote</text></g><path d="M 401.0 607 a 10 10 0 0 0 10 -10 v -100 a 10 10 0 0 1 10 -10"></path><path d="M 100.0 487 a 10 10 0 0 1 10 10 v 130 a 10 10 0 0 0 10 10"></path><g class="non-terminal ">
<path d="M 120.0 637 h 71.0"></path><path d="M 330.0 637 h 71.0"></path><rect height="22" width="139.0" x="191.0" y="626"></rect><text x="260.5" y="641">CrossReference</text></g><path d="M 401.0 637 a 10 10 0 0 0 10 -10 v -130 a 10 10 0 0 1 10 -10"></path><path d="M 100.0 487 a 10 10 0 0 1 10 10 v 160 a 10 10 0 0 0 10 10"></path><g class="non-terminal ">
<path d="M 120.0 667 h 92.25"></path><path d="M 308.75 667 h 92.25"></path><rect height="22" width="96.5" x="212.25" y="656"></rect><text x="260.5" y="671">Reference</text></g><path d="M 401.0 667 a 10 10 0 0 0 10 -10 v -160 a 10 10 0 0 1 10 -10"></path><path d="M 100.0 487 a 10 10 0 0 1 10 10 v 190 a 10 10 0 0 0 10 10"></path><g>
<path d="M 120.0 697 h 113.5"></path><path d="M 287.5 697 h 113.5"></path><g class="terminal ">
<path d="M 233.5 697 h 0.0"></path><path d="M 287.5 697 h 0.0"></path><rect height="22" rx="10" ry="10" width="54.0" x="233.5" y="686"></rect><text x="260.5" y="701">'//'</text></g></g><path d="M 401.0 697 a 10 10 0 0 0 10 -10 v -190 a 10 10 0 0 1 10 -10"></path></g><path d="M 421.0 487 h 10"></path><path d="M 100.0 487 a 10 10 0 0 0 -10 10 v 219 a 10 10 0 0 0 10 10"></path><g>
<path d="M 100.0 726 h 321.0"></path></g><path d="M 421.0 726 a 10 10 0 0 0 10 -10 v -219 a 10 10 0 0 0 -10 -10"></path></g><path d="M 431.0 487 h 10"></path><path d="M 441.0 487 h 10"></path><g>
<path d="M 451.0 487 h 0.0"></path><path d="M 1077.0 487 h 0.0"></path><path d="M 451.0 487 h 20"></path><g>
<path d="M 471.0 487 h 586.0"></path></g><path d="M 1057.0 487 h 20"></path><path d="M 451.0 487 a 10 10 0 0 1 10 10 v 9 a 10 10 0 0 0 10 10"></path><g>
<path d="M 471.0 516 h 0.0"></path><path d="M 1057.0 516 h 0.0"></path><g>
<path d="M 471.0 516 h 0.0"></path><path d="M 565.0 516 h 0.0"></path><path d="M 471.0 516 h 20"></path><g class="terminal ">
<path d="M 491.0 516 h 4.25"></path><path d="M 540.75 516 h 4.25"></path><rect height="22" rx="10" ry="10" width="45.5" x="495.25" y="505"></rect><text x="518.0" y="520">'|'</text></g><path d="M 545.0 516 h 20"></path><path d="M 471.0 516 a 10 10 0 0 1 10 10 v 10 a 10 10 0 0 0 10 10"></path><g class="terminal altterminal">
<path d="M 491.0 546 h 0.0"></path><path d="M 545.0 546 h 0.0"></path><rect height="22" rx="10" ry="10" width="54.0" x="491.0" y="535"></rect><text x="518.0" y="550">PIPE</text></g><path d="M 545.0 546 a 10 10 0 0 0 10 -10 v -10 a 10 10 0 0 1 10 -10"></path></g><path d="M 565.0 516 h 10"></path><path d="M 575.0 516 h 10"></path><g>
<path d="M 585.0 516 h 0.0"></path><path d="M 1057.0 516 h 0.0"></path><path d="M 585.0 516 h 10"></path><g>
<path d="M 595.0 516 h 0.0"></path><path d="M 1047.0 516 h 0.0"></path><g>
<path d="M 595.0 516 h 0.0"></path><path d="M 1047.0 516 h 0.0"></path><path d="M 595.0 516 h 20"></path><g class="terminal ">
<path d="M 615.0 516 h 157.75"></path><path d="M 869.25 516 h 157.75"></path><rect height="22" rx="10" ry="10" width="96.5" x="772.75" y="505"></rect><text x="821.0" y="520">ATTRIBALL</text></g><path d="M 1027.0 516 h 20"></path><path d="M 595.0 516 a 10 10 0 0 1 10 10 v 10 a 10 10 0 0 0 10 10"></path><g>
<path d="M 615.0 546 h 0.0"></path><path d="M 1027.0 546 h 0.0"></path><g class="terminal ">
<path d="M 615.0 546 h 0.0"></path><path d="M 720.0 546 h 0.0"></path><rect height="22" rx="10" ry="10" width="105.0" x="615.0" y="535"></rect><text x="667.5" y="550">ATTRIBNAME</text></g><path d="M 720.0 546 h 10"></path><path d="M 730.0 546 h 10"></path><g class="terminal ">
<path d="M 740.0 546 h 0.0"></path><path d="M 794.0 546 h 0.0"></path><rect height="22" rx="10" ry="10" width="54.0" x="740.0" y="535"></rect><text x="767.0" y="550">'="'</text></g><path d="M 794.0 546 h 10"></path><path d="M 804.0 546 h 10"></path><g class="terminal ">
<path d="M 814.0 546 h 0.0"></path><path d="M 919.0 546 h 0.0"></path><rect height="22" rx="10" ry="10" width="105.0" x="814.0" y="535"></rect><text x="866.5" y="550">ATTRIBTEXT</text></g><path d="M 919.0 546 h 10"></path><path d="M 929.0 546 h 10"></path><g class="terminal ">
<path d="M 939.0 546 h 0.0"></path><path d="M 1027.0 546 h 0.0"></path><rect height="22" rx="10" ry="10" width="88.0" x="939.0" y="535"></rect><text x="983.0" y="550">/"${Hs}/</text></g></g><path d="M 1027.0 546 a 10 10 0 0 0 10 -10 v -10 a 10 10 0 0 1 10 -10"></path></g></g><path d="M 1047.0 516 h 10"></path><path d="M 595.0 516 a 10 10 0 0 0 -10 10 v 39 a 10 10 0 0 0 10 10"></path><g>
<path d="M 595.0 575 h 452.0"></path></g><path d="M 1047.0 575 a 10 10 0 0 0 10 -10 v -39 a 10 10 0 0 0 -10 -10"></path></g></g><path d="M 1057.0 516 a 10 10 0 0 0 10 -10 v -9 a 10 10 0 0 1 10 -10"></path></g></g><path d="M 1077.0 487 h 20"></path><path d="M 70.0 487 a 10 10 0 0 1 10 10 v 248 a 10 10 0 0 0 10 10"></path><g>
<path d="M 90.0 755 h 200.5"></path><path d="M 876.5 755 h 200.5"></path><g>
<path d="M 290.5 755 h 0.0"></path><path d="M 384.5 755 h 0.0"></path><path d="M 290.5 755 h 20"></path><g class="terminal ">
<path d="M 310.5 755 h 4.25"></path><path d="M 360.25 755 h 4.25"></path><rect height="22" rx="10" ry="10" width="45.5" x="314.75" y="744"></rect><text x="337.5" y="759">'|'</text></g><path d="M 364.5 755 h 20"></path><path d="M 290.5 755 a 10 10 0 0 1 10 10 v 10 a 10 10 0 0 0 10 10"></path><g class="terminal altterminal">
<path d="M 310.5 785 h 0.0"></path><path d="M 364.5 785 h 0.0"></path><rect height="22" rx="10" ry="10" width="54.0" x="310.5" y="774"></rect><text x="337.5" y="789">PIPE</text></g><path d="M 364.5 785 a 10 10 0 0 0 10 -10 v -10 a 10 10 0 0 1 10 -10"></path></g><path d="M 384.5 755 h 10"></path><path d="M 394.5 755 h 10"></path><g>
<path d="M 404.5 755 h 0.0"></path><path d="M 876.5 755 h 0.0"></path><path d="M 404.5 755 h 10"></path><g>
<path d="M 414.5 755 h 0.0"></path><path d="M 866.5 755 h 0.0"></path><g>
<path d="M 414.5 755 h 0.0"></path><path d="M 866.5 755 h 0.0"></path><path d="M 414.5 755 h 20"></path><g class="terminal ">
<path d="M 434.5 755 h 157.75"></path><path d="M 688.75 755 h 157.75"></path><rect height="22" rx="10" ry="10" width="96.5" x="592.25" y="744"></rect><text x="640.5" y="759">ATTRIBALL</text></g><path d="M 846.5 755 h 20"></path><path d="M 414.5 755 a 10 10 0 0 1 10 10 v 10 a 10 10 0 0 0 10 10"></path><g>
<path d="M 434.5 785 h 0.0"></path><path d="M 846.5 785 h 0.0"></path><g class="terminal ">
<path d="M 434.5 785 h 0.0"></path><path d="M 539.5 785 h 0.0"></path><rect height="22" rx="10" ry="10" width="105.0" x="434.5" y="774"></rect><text x="487.0" y="789">ATTRIBNAME</text></g><path d="M 539.5 785 h 10"></path><path d="M 549.5 785 h 10"></path><g class="terminal ">
<path d="M 559.5 785 h 0.0"></path><path d="M 613.5 785 h 0.0"></path><rect height="22" rx="10" ry="10" width="54.0" x="559.5" y="774"></rect><text x="586.5" y="789">'="'</text></g><path d="M 613.5 785 h 10"></path><path d="M 623.5 785 h 10"></path><g class="terminal ">
<path d="M 633.5 785 h 0.0"></path><path d="M 738.5 785 h 0.0"></path><rect height="22" rx="10" ry="10" width="105.0" x="633.5" y="774"></rect><text x="686.0" y="789">ATTRIBTEXT</text></g><path d="M 738.5 785 h 10"></path><path d="M 748.5 785 h 10"></path><g class="terminal ">
<path d="M 758.5 785 h 0.0"></path><path d="M 846.5 785 h 0.0"></path><rect height="22" rx="10" ry="10" width="88.0" x="758.5" y="774"></rect><text x="802.5" y="789">/"${Hs}/</text></g></g><path d="M 846.5 785 a 10 10 0 0 0 10 -10 v -10 a 10 10 0 0 1 10 -10"></path></g></g><path d="M 866.5 755 h 10"></path><path d="M 414.5 755 a 10 10 0 0 0 -10 10 v 39 a 10 10 0 0 0 10 10"></path><g>
<path d="M 414.5 814 h 452.0"></path></g><path d="M 866.5 814 a 10 10 0 0 0 10 -10 v -39 a 10 10 0 0 0 -10 -10"></path></g></g><path d="M 1077.0 755 a 10 10 0 0 0 10 -10 v -248 a 10 10 0 0 1 10 -10"></path></g><path d="M 1107.0 487 a 10 10 0 0 1 10 10 v 325 a 10 10 0 0 1 -10 10 h -1047.0 a 10 10 0 0 0 -10 10 v 0 a 10 10 0 0 0 10 10"></path><g>
<path d="M 60.0 852 h 431.0"></path><path d="M 676.0 852 h 431.0"></path><g class="terminal ">
<path d="M 491.0 852 h 0.0"></path><path d="M 545.0 852 h 0.0"></path><rect height="22" rx="10" ry="10" width="54.0" x="491.0" y="841"></rect><text x="518.0" y="856">'\\'</text></g><path d="M 545.0 852 h 10"></path><path d="M 555.0 852 h 10"></path><g class="terminal ">
<path d="M 565.0 852 h 0.0"></path><path d="M 610.5 852 h 0.0"></path><rect height="22" rx="10" ry="10" width="45.5" x="565.0" y="841"></rect><text x="587.75" y="856">⇐ ➋</text></g><path d="M 610.5 852 h 10"></path><path d="M 620.5 852 h 10"></path><g class="terminal ">
<path d="M 630.5 852 h 0.0"></path><path d="M 676.0 852 h 0.0"></path><rect height="22" rx="10" ry="10" width="45.5" x="630.5" y="841"></rect><text x="653.25" y="856">'&#42;'</text></g></g><path d="M 1107.0 852 h 10"></path><path d="M 1117.0 852 h 0.0"></path></g></g><path d="M 1117.0 852 h 10"></path><path d="M 1127.0 852 h 20 m 0 -10 v 20"></path></g></svg>