<svg class="railroad-diagram" height="503" viewBox="0 0 1196.5 503" width="1196.5" xmlns="http://www.w3.org/2000/svg" xmlns:xlink="http://www.w3.org/1999/xlink">
<g transform="translate(.5 .5)">
<style>/* <![CDATA[ */
    svg.railroad-diagram {
        background-color:hsl(30,20%,95%);
    }
    svg.railroad-diagram path {
        stroke-width: 2;
        stroke: black;
        fill: none;
    }
    svg.railroad-diagram text {
        font-size: 12px;
        text-anchor: middle;
        font-family: DejaVu Sans;
    }
    svg.railroad-diagram text.label {
        text-anchor:start;
    }
    svg.railroad-diagram text.comment {
        font-family: DejaVu Sans;
        font-size: 14px;
    }
    svg.railroad-diagram rect{
        stroke-width: 2;
        stroke:black;
        fill: rgb(210, 255, 210);
    }
    svg.railroad-diagram rect.group-box {
        stroke: gray;
        stroke-dasharray: 10 5;
        fill: none;
    }
    .terminal {
        font-family: DejaVu Sans;
    }

/* ]]> */
</style><g>
<path d="M 20 167 v 20 m 0 -10 h 20"></path></g><path d="M 40 177 h 10"></path><g>
<path d="M 50 177 h 0.0"></path><path d="M 1146.5 352 h 0.0"></path><rect class="group-box" height="447" rx="10" ry="10" width="1096.5" x="50.0" y="36"></rect><g>
<path d="M 50.0 177 h 0.0"></path><path d="M 1146.5 352 h 0.0"></path><path d="M 50.0 177 h 20"></path><g>
<path d="M 70.0 177 h 0.0"></path><path d="M 1126.5 352 h 0.0"></path><g>
<path d="M 70.0 177 h 0.0"></path><path d="M 70.0 177 h 10"></path><g>
<path d="M 80.0 177 h 10.0"></path><path d="M 812.0 177 h 10.0"></path><rect class="group-box" height="264" rx="10" ry="10" width="722.0" x="90.0" y="60"></rect><g>
<path d="M 90.0 177 h 10.0"></path><path d="M 802.0 177 h 10.0"></path><g class="terminal ">
<path d="M 100.0 177 h 0.0"></path><path d="M 154.0 177 h 0.0"></path><rect height="22" rx="10" ry="10" width="54.0" x="100.0" y="166"></rect><text x="127.0" y="181">"\+"</text></g><path d="M 154.0 177 h 10"></path><g>
<path d="M 164.0 177 h 0.0"></path><path d="M 802.0 177 h 0.0"></path><path d="M 164.0 177 a 10 10 0 0 0 10 -10 v -89 a 10 10 0 0 1 10 -10 h 477.0"></path><path d="M 313.5 316 h 468.5 a 10 10 0 0 0 10 -10 v -119 a 10 10 0 0 1 10 -10"></path><path d="M 164.0 177 h 10"></path><g>
<path d="M 174.0 177 h 0.0"></path><path d="M 293.5 177 h 0.0"></path><path d="M 174.0 177 a 10 10 0 0 0 10 -10 v -10 a 10 10 0 0 1 10 -10"></path><g class="terminal ">
<path d="M 194.0 147 h 12.75"></path><path d="M 260.75 147 h 12.75"></path><rect height="22" rx="10" ry="10" width="54.0" x="206.75" y="136"></rect><text x="233.75" y="151">"ca"</text></g><path d="M 273.5 147 a 10 10 0 0 1 10 10 v 10 a 10 10 0 0 0 10 10"></path><path d="M 174.0 177 a 10 10 0 0 0 10 -10 v -40 a 10 10 0 0 1 10 -10"></path><g class="terminal ">
<path d="M 194.0 117 h 12.75"></path><path d="M 260.75 117 h 12.75"></path><rect height="22" rx="10" ry="10" width="54.0" x="206.75" y="106"></rect><text x="233.75" y="121">"vp"</text></g><path d="M 273.5 117 a 10 10 0 0 1 10 10 v 40 a 10 10 0 0 0 10 10"></path><path d="M 174.0 177 a 10 10 0 0 0 10 -10 v -70 a 10 10 0 0 1 10 -10"></path><g class="terminal ">
<path d="M 194.0 87 h 12.75"></path><path d="M 260.75 87 h 12.75"></path><rect height="22" rx="10" ry="10" width="54.0" x="206.75" y="76"></rect><text x="233.75" y="91">"va"</text></g><path d="M 273.5 87 a 10 10 0 0 1 10 10 v 70 a 10 10 0 0 0 10 10"></path><path d="M 174.0 177 h 20"></path><g class="terminal ">
<path d="M 194.0 177 h 8.5"></path><path d="M 265.0 177 h 8.5"></path><rect height="22" rx="10" ry="10" width="62.5" x="202.5" y="166"></rect><text x="233.75" y="181">"qac"</text></g><path d="M 273.5 177 h 20"></path><path d="M 174.0 177 a 10 10 0 0 1 10 10 v 10 a 10 10 0 0 0 10 10"></path><g class="terminal ">
<path d="M 194.0 207 h 12.75"></path><path d="M 260.75 207 h 12.75"></path><rect height="22" rx="10" ry="10" width="54.0" x="206.75" y="196"></rect><text x="233.75" y="211">"qs"</text></g><path d="M 273.5 207 a 10 10 0 0 0 10 -10 v -10 a 10 10 0 0 1 10 -10"></path><path d="M 174.0 177 a 10 10 0 0 1 10 10 v 40 a 10 10 0 0 0 10 10"></path><g class="terminal ">
<path d="M 194.0 237 h 8.5"></path><path d="M 265.0 237 h 8.5"></path><rect height="22" rx="10" ry="10" width="62.5" x="202.5" y="226"></rect><text x="233.75" y="241">"add"</text></g><path d="M 273.5 237 a 10 10 0 0 0 10 -10 v -40 a 10 10 0 0 1 10 -10"></path><path d="M 174.0 177 a 10 10 0 0 1 10 10 v 70 a 10 10 0 0 0 10 10"></path><g class="terminal ">
<path d="M 194.0 267 h 0.0"></path><path d="M 273.5 267 h 0.0"></path><rect height="22" rx="10" ry="10" width="79.5" x="194.0" y="256"></rect><text x="233.75" y="271">"addpn"</text></g><path d="M 273.5 267 a 10 10 0 0 0 10 -10 v -70 a 10 10 0 0 1 10 -10"></path><path d="M 174.0 177 a 10 10 0 0 1 10 10 v 100 a 10 10 0 0 0 10 10"></path><g class="terminal ">
<path d="M 194.0 297 h 12.75"></path><path d="M 260.75 297 h 12.75"></path><rect height="22" rx="10" ry="10" width="54.0" x="206.75" y="286"></rect><text x="233.75" y="301">"bk"</text></g><path d="M 273.5 297 a 10 10 0 0 0 10 -10 v -100 a 10 10 0 0 1 10 -10"></path></g><path d="M 293.5 177 a 10 10 0 0 1 10 10 v 119 a 10 10 0 0 0 10 10"></path><path d="M 293.5 68 a 10 10 0 0 1 10 10 v 89 a 10 10 0 0 0 10 10"></path><g>
<path d="M 313.5 177 h 0.0"></path><path d="M 416.0 177 h 0.0"></path><path d="M 313.5 177 a 10 10 0 0 0 10 -10 v -10 a 10 10 0 0 1 10 -10"></path><g class="terminal ">
<path d="M 333.5 147 h 4.25"></path><path d="M 391.75 147 h 4.25"></path><rect height="22" rx="10" ry="10" width="54.0" x="337.75" y="136"></rect><text x="364.75" y="151">"fm"</text></g><path d="M 396.0 147 a 10 10 0 0 1 10 10 v 10 a 10 10 0 0 0 10 10"></path><path d="M 313.5 177 a 10 10 0 0 0 10 -10 v -40 a 10 10 0 0 1 10 -10"></path><g class="terminal ">
<path d="M 333.5 117 h 0.0"></path><path d="M 396.0 117 h 0.0"></path><rect height="22" rx="10" ry="10" width="62.5" x="333.5" y="106"></rect><text x="364.75" y="121">"efm"</text></g><path d="M 396.0 117 a 10 10 0 0 1 10 10 v 40 a 10 10 0 0 0 10 10"></path><path d="M 313.5 177 a 10 10 0 0 0 10 -10 v -70 a 10 10 0 0 1 10 -10"></path><g class="terminal ">
<path d="M 333.5 87 h 4.25"></path><path d="M 391.75 87 h 4.25"></path><rect height="22" rx="10" ry="10" width="54.0" x="337.75" y="76"></rect><text x="364.75" y="91">"dc"</text></g><path d="M 396.0 87 a 10 10 0 0 1 10 10 v 70 a 10 10 0 0 0 10 10"></path><path d="M 313.5 177 h 20"></path><g class="terminal ">
<path d="M 333.5 177 h 8.5"></path><path d="M 387.5 177 h 8.5"></path><rect height="22" rx="10" ry="10" width="45.5" x="342.0" y="166"></rect><text x="364.75" y="181">"k"</text></g><path d="M 396.0 177 h 20"></path><path d="M 313.5 177 a 10 10 0 0 1 10 10 v 10 a 10 10 0 0 0 10 10"></path><g class="terminal ">
<path d="M 333.5 207 h 4.25"></path><path d="M 391.75 207 h 4.25"></path><rect height="22" rx="10" ry="10" width="54.0" x="337.75" y="196"></rect><text x="364.75" y="211">"nd"</text></g><path d="M 396.0 207 a 10 10 0 0 0 10 -10 v -10 a 10 10 0 0 1 10 -10"></path><path d="M 313.5 177 a 10 10 0 0 1 10 10 v 40 a 10 10 0 0 0 10 10"></path><g class="terminal ">
<path d="M 333.5 237 h 0.0"></path><path d="M 396.0 237 h 0.0"></path><rect height="22" rx="10" ry="10" width="62.5" x="333.5" y="226"></rect><text x="364.75" y="241">"ndx"</text></g><path d="M 396.0 237 a 10 10 0 0 0 10 -10 v -40 a 10 10 0 0 1 10 -10"></path><path d="M 313.5 177 a 10 10 0 0 1 10 10 v 70 a 10 10 0 0 0 10 10"></path><g class="terminal ">
<path d="M 333.5 267 h 0.0"></path><path d="M 396.0 267 h 0.0"></path><rect height="22" rx="10" ry="10" width="62.5" x="333.5" y="256"></rect><text x="364.75" y="271">"ord"</text></g><path d="M 396.0 267 a 10 10 0 0 0 10 -10 v -70 a 10 10 0 0 1 10 -10"></path><path d="M 313.5 177 a 10 10 0 0 1 10 10 v 100 a 10 10 0 0 0 10 10"></path><g class="terminal ">
<path d="M 333.5 297 h 4.25"></path><path d="M 391.75 297 h 4.25"></path><rect height="22" rx="10" ry="10" width="54.0" x="337.75" y="286"></rect><text x="364.75" y="301">"pn"</text></g><path d="M 396.0 297 a 10 10 0 0 0 10 -10 v -100 a 10 10 0 0 1 10 -10"></path></g><path d="M 416.0 177 a 10 10 0 0 1 10 10 v 119 a 10 10 0 0 0 10 10"></path><path d="M 416.0 68 a 10 10 0 0 1 10 10 v 89 a 10 10 0 0 0 10 10"></path><g>
<path d="M 436.0 177 h 0.0"></path><path d="M 538.5 177 h 0.0"></path><path d="M 436.0 177 a 10 10 0 0 0 10 -10 v -10 a 10 10 0 0 1 10 -10"></path><g class="terminal ">
<path d="M 456.0 147 h 4.25"></path><path d="M 514.25 147 h 4.25"></path><rect height="22" rx="10" ry="10" width="54.0" x="460.25" y="136"></rect><text x="487.25" y="151">"qt"</text></g><path d="M 518.5 147 a 10 10 0 0 1 10 10 v 10 a 10 10 0 0 0 10 10"></path><path d="M 436.0 177 a 10 10 0 0 0 10 -10 v -40 a 10 10 0 0 1 10 -10"></path><g class="terminal ">
<path d="M 456.0 117 h 0.0"></path><path d="M 518.5 117 h 0.0"></path><rect height="22" rx="10" ry="10" width="62.5" x="456.0" y="106"></rect><text x="487.25" y="121">"pro"</text></g><path d="M 518.5 117 a 10 10 0 0 1 10 10 v 40 a 10 10 0 0 0 10 10"></path><path d="M 436.0 177 a 10 10 0 0 0 10 -10 v -70 a 10 10 0 0 1 10 -10"></path><g class="terminal ">
<path d="M 456.0 87 h 0.0"></path><path d="M 518.5 87 h 0.0"></path><rect height="22" rx="10" ry="10" width="62.5" x="456.0" y="76"></rect><text x="487.25" y="91">"png"</text></g><path d="M 518.5 87 a 10 10 0 0 1 10 10 v 70 a 10 10 0 0 0 10 10"></path><path d="M 436.0 177 h 20"></path><g class="terminal ">
<path d="M 456.0 177 h 4.25"></path><path d="M 514.25 177 h 4.25"></path><rect height="22" rx="10" ry="10" width="54.0" x="460.25" y="166"></rect><text x="487.25" y="181">"rq"</text></g><path d="M 518.5 177 h 20"></path><path d="M 436.0 177 a 10 10 0 0 1 10 10 v 10 a 10 10 0 0 0 10 10"></path><g class="terminal ">
<path d="M 456.0 207 h 0.0"></path><path d="M 518.5 207 h 0.0"></path><rect height="22" rx="10" ry="10" width="62.5" x="456.0" y="196"></rect><text x="487.25" y="211">"sig"</text></g><path d="M 518.5 207 a 10 10 0 0 0 10 -10 v -10 a 10 10 0 0 1 10 -10"></path><path d="M 436.0 177 a 10 10 0 0 1 10 10 v 40 a 10 10 0 0 0 10 10"></path><g class="terminal ">
<path d="M 456.0 237 h 0.0"></path><path d="M 518.5 237 h 0.0"></path><rect height="22" rx="10" ry="10" width="62.5" x="456.0" y="226"></rect><text x="487.25" y="241">"sls"</text></g><path d="M 518.5 237 a 10 10 0 0 0 10 -10 v -40 a 10 10 0 0 1 10 -10"></path><path d="M 436.0 177 a 10 10 0 0 1 10 10 v 70 a 10 10 0 0 0 10 10"></path><g class="terminal ">
<path d="M 456.0 267 h 4.25"></path><path d="M 514.25 267 h 4.25"></path><rect height="22" rx="10" ry="10" width="54.0" x="460.25" y="256"></rect><text x="487.25" y="271">"tl"</text></g><path d="M 518.5 267 a 10 10 0 0 0 10 -10 v -70 a 10 10 0 0 1 10 -10"></path><path d="M 436.0 177 a 10 10 0 0 1 10 10 v 100 a 10 10 0 0 0 10 10"></path><g class="terminal ">
<path d="M 456.0 297 h 4.25"></path><path d="M 514.25 297 h 4.25"></path><rect height="22" rx="10" ry="10" width="54.0" x="460.25" y="286"></rect><text x="487.25" y="301">"wg"</text></g><path d="M 518.5 297 a 10 10 0 0 0 10 -10 v -100 a 10 10 0 0 1 10 -10"></path></g><path d="M 538.5 177 a 10 10 0 0 1 10 10 v 119 a 10 10 0 0 0 10 10"></path><path d="M 538.5 68 a 10 10 0 0 1 10 10 v 89 a 10 10 0 0 0 10 10"></path><g>
<path d="M 558.5 177 h 0.0"></path><path d="M 661.0 177 h 0.0"></path><path d="M 558.5 177 a 10 10 0 0 0 10 -10 v -10 a 10 10 0 0 1 10 -10"></path><g class="terminal ">
<path d="M 578.5 147 h 4.25"></path><path d="M 636.75 147 h 4.25"></path><rect height="22" rx="10" ry="10" width="54.0" x="582.75" y="136"></rect><text x="609.75" y="151">"wj"</text></g><path d="M 641.0 147 a 10 10 0 0 1 10 10 v 10 a 10 10 0 0 0 10 10"></path><path d="M 558.5 177 a 10 10 0 0 0 10 -10 v -40 a 10 10 0 0 1 10 -10"></path><g class="terminal ">
<path d="M 578.5 117 h 4.25"></path><path d="M 636.75 117 h 4.25"></path><rect height="22" rx="10" ry="10" width="54.0" x="582.75" y="106"></rect><text x="609.75" y="121">"wa"</text></g><path d="M 641.0 117 a 10 10 0 0 1 10 10 v 40 a 10 10 0 0 0 10 10"></path><path d="M 558.5 177 a 10 10 0 0 0 10 -10 v -70 a 10 10 0 0 1 10 -10"></path><g class="terminal ">
<path d="M 578.5 87 h 4.25"></path><path d="M 636.75 87 h 4.25"></path><rect height="22" rx="10" ry="10" width="54.0" x="582.75" y="76"></rect><text x="609.75" y="91">"wh"</text></g><path d="M 641.0 87 a 10 10 0 0 1 10 10 v 70 a 10 10 0 0 0 10 10"></path><path d="M 558.5 177 h 20"></path><g class="terminal ">
<path d="M 578.5 177 h 4.25"></path><path d="M 636.75 177 h 4.25"></path><rect height="22" rx="10" ry="10" width="54.0" x="582.75" y="166"></rect><text x="609.75" y="181">"xt"</text></g><path d="M 641.0 177 h 20"></path><path d="M 558.5 177 a 10 10 0 0 1 10 10 v 10 a 10 10 0 0 0 10 10"></path><g class="terminal ">
<path d="M 578.5 207 h 0.0"></path><path d="M 641.0 207 h 0.0"></path><rect height="22" rx="10" ry="10" width="62.5" x="578.5" y="196"></rect><text x="609.75" y="211">"jmp"</text></g><path d="M 641.0 207 a 10 10 0 0 0 10 -10 v -10 a 10 10 0 0 1 10 -10"></path><path d="M 558.5 177 a 10 10 0 0 1 10 10 v 40 a 10 10 0 0 0 10 10"></path><g class="terminal ">
<path d="M 578.5 237 h 4.25"></path><path d="M 636.75 237 h 4.25"></path><rect height="22" rx="10" ry="10" width="54.0" x="582.75" y="226"></rect><text x="609.75" y="241">"no"</text></g><path d="M 641.0 237 a 10 10 0 0 0 10 -10 v -40 a 10 10 0 0 1 10 -10"></path><path d="M 558.5 177 a 10 10 0 0 1 10 10 v 70 a 10 10 0 0 0 10 10"></path><g class="terminal ">
<path d="M 578.5 267 h 4.25"></path><path d="M 636.75 267 h 4.25"></path><rect height="22" rx="10" ry="10" width="54.0" x="582.75" y="256"></rect><text x="609.75" y="271">"it"</text></g><path d="M 641.0 267 a 10 10 0 0 0 10 -10 v -70 a 10 10 0 0 1 10 -10"></path><path d="M 558.5 177 a 10 10 0 0 1 10 10 v 100 a 10 10 0 0 0 10 10"></path><g class="terminal ">
<path d="M 578.5 297 h 4.25"></path><path d="M 636.75 297 h 4.25"></path><rect height="22" rx="10" ry="10" width="54.0" x="582.75" y="286"></rect><text x="609.75" y="301">"bd"</text></g><path d="M 641.0 297 a 10 10 0 0 0 10 -10 v -100 a 10 10 0 0 1 10 -10"></path></g><path d="M 661.0 177 a 10 10 0 0 1 10 10 v 119 a 10 10 0 0 0 10 10"></path><path d="M 661.0 68 a 10 10 0 0 1 10 10 v 89 a 10 10 0 0 0 10 10"></path><g>
<path d="M 681.0 177 h 0.0"></path><path d="M 792.0 177 h 0.0"></path><path d="M 681.0 177 a 10 10 0 0 0 10 -10 v -10 a 10 10 0 0 1 10 -10"></path><g class="terminal ">
<path d="M 701.0 147 h 8.5"></path><path d="M 763.5 147 h 8.5"></path><rect height="22" rx="10" ry="10" width="54.0" x="709.5" y="136"></rect><text x="736.5" y="151">"sc"</text></g><path d="M 772.0 147 a 10 10 0 0 1 10 10 v 10 a 10 10 0 0 0 10 10"></path><path d="M 681.0 177 a 10 10 0 0 0 10 -10 v -40 a 10 10 0 0 1 10 -10"></path><g class="terminal ">
<path d="M 701.0 117 h 8.5"></path><path d="M 763.5 117 h 8.5"></path><rect height="22" rx="10" ry="10" width="54.0" x="709.5" y="106"></rect><text x="736.5" y="121">"em"</text></g><path d="M 772.0 117 a 10 10 0 0 1 10 10 v 40 a 10 10 0 0 0 10 10"></path><path d="M 681.0 177 a 10 10 0 0 0 10 -10 v -70 a 10 10 0 0 1 10 -10"></path><g class="terminal ">
<path d="M 701.0 87 h 0.0"></path><path d="M 772.0 87 h 0.0"></path><rect height="22" rx="10" ry="10" width="71.0" x="701.0" y="76"></rect><text x="736.5" y="91">"bdit"</text></g><path d="M 772.0 87 a 10 10 0 0 1 10 10 v 70 a 10 10 0 0 0 10 10"></path><path d="M 681.0 177 h 20"></path><g class="terminal ">
<path d="M 701.0 177 h 4.25"></path><path d="M 767.75 177 h 4.25"></path><rect height="22" rx="10" ry="10" width="62.5" x="705.25" y="166"></rect><text x="736.5" y="181">"sup"</text></g><path d="M 772.0 177 h 20"></path></g><path d="M 792.0 177 h 10"></path></g></g><g class="non-terminal ">
<path d="M 90.0 52 h 0.0"></path><path d="M 107.0 52 h 0.0"></path><text class="comment" x="98.5" y="57">➊</text></g></g><path d="M 822.0 177 a 10 10 0 0 1 10 10 v 135 a 10 10 0 0 1 -10 10 h -742.0 a 10 10 0 0 0 -10 10 v 0 a 10 10 0 0 0 10 10"></path><g class="terminal ">
<path d="M 80.0 352 h 352.5"></path><path d="M 469.5 352 h 352.5"></path><rect height="22" rx="10" ry="10" width="37.0" x="432.5" y="341"></rect><text x="451.0" y="356">WS</text></g><path d="M 822.0 352 h 10"></path><path d="M 832.0 352 h 0.0"></path></g><path d="M 832.0 352 h 10"></path><path d="M 842.0 352 h 10"></path><g class="non-terminal ">
<path d="M 852.0 352 h 0.0"></path><path d="M 965.5 352 h 0.0"></path><rect height="22" width="113.5" x="852.0" y="341"></rect><text x="908.75" y="356">CharContent</text></g><path d="M 965.5 352 h 10"></path><g>
<path d="M 975.5 352 h 0.0"></path><path d="M 1126.5 352 h 0.0"></path><path d="M 975.5 352 h 20"></path><g>
<path d="M 995.5 352 h 111.0"></path></g><path d="M 1106.5 352 h 20"></path><path d="M 975.5 352 a 10 10 0 0 1 10 10 v 0 a 10 10 0 0 0 10 10"></path><g>
<path d="M 995.5 372 h 0.0"></path><path d="M 1106.5 372 h 0.0"></path><g class="terminal ">
<path d="M 995.5 372 h 0.0"></path><path d="M 1041.0 372 h 0.0"></path><rect height="22" rx="10" ry="10" width="45.5" x="995.5" y="361"></rect><text x="1018.25" y="376">⇐ ➊</text></g><path d="M 1041.0 372 h 10"></path><path d="M 1051.0 372 h 10"></path><g class="terminal ">
<path d="M 1061.0 372 h 0.0"></path><path d="M 1106.5 372 h 0.0"></path><rect height="22" rx="10" ry="10" width="45.5" x="1061.0" y="361"></rect><text x="1083.75" y="376">"&#42;"</text></g></g><path d="M 1106.5 372 a 10 10 0 0 0 10 -10 v 0 a 10 10 0 0 1 10 -10"></path></g></g><path d="M 1126.5 352 h 20"></path><path d="M 50.0 177 a 10 10 0 0 1 10 10 v 229 a 10 10 0 0 0 10 10"></path><g>
<path d="M 70.0 426 h 379.25"></path><path d="M 747.25 426 h 379.25"></path><rect class="group-box" height="68" rx="10" ry="10" width="298.0" x="449.25" y="407"></rect><g>
<path d="M 449.25 426 h 0.0"></path><path d="M 747.25 426 h 0.0"></path><path d="M 449.25 426 h 20"></path><g class="non-terminal ">
<path d="M 469.25 426 h 4.25"></path><path d="M 723.0 426 h 4.25"></path><rect height="22" width="249.5" x="473.5" y="415"></rect><text x="598.25" y="430">CharWithAttrib.char.style.w</text></g><path d="M 727.25 426 h 20"></path><path d="M 449.25 426 a 10 10 0 0 1 10 10 v 10 a 10 10 0 0 0 10 10"></path><g class="non-terminal ">
<path d="M 469.25 456 h 0.0"></path><path d="M 727.25 456 h 0.0"></path><rect height="22" width="258.0" x="469.25" y="445"></rect><text x="598.25" y="460">CharWithAttrib.char.style.rb</text></g><path d="M 727.25 456 a 10 10 0 0 0 10 -10 v -10 a 10 10 0 0 1 10 -10"></path></g><g class="non-terminal ">
<path d="M 449.25 399 h 0.0"></path><path d="M 592.25 399 h 0.0"></path><text class="comment" x="520.75" y="404">CharWithAttrib.enum</text></g></g><path d="M 1126.5 426 a 10 10 0 0 0 10 -10 v -54 a 10 10 0 0 1 10 -10"></path></g><g class="non-terminal ">
<path d="M 50.0 28 h 0.0"></path><path d="M 123.0 28 h 0.0"></path><text class="comment" x="86.5" y="33">CharEmbed</text></g></g><path d="M 1146.5 352 h 10"></path><path d="M 1156.5 352 h 20 m 0 -10 v 20"></path></g></svg>