<svg class="railroad-diagram" height="308" viewBox="0 0 427.5 308" width="427.5" xmlns="http://www.w3.org/2000/svg" xmlns:xlink="http://www.w3.org/1999/xlink">
<g transform="translate(.5 .5)">
<style>/* <![CDATA[ */

    svg.railroad-diagram {
        background-color: hsl(30,20%,95%);
    }
    svg.railroad-diagram path {
        stroke-width: 2;
        stroke: black;
        fill: none;
    }
    svg.railroad-diagram text {
        font-size: 12px;
        text-anchor: middle;
        font-family: DejaVu Sans;
    }
    svg.railroad-diagram text.label {
        text-anchor:start;
    }
    svg.railroad-diagram text.comment {
        font-family: DejaVu Sans;
        font-size: 14px;
    }
    svg.railroad-diagram rect{
        stroke-width: 2;
        stroke: black;
        fill: rgb(210, 210, 255);
    }
    svg.railroad-diagram rect.group-box {
        stroke: gray;
        stroke-dasharray: 10 5;
        fill: none;
    }
    .terminal {
        font-family: DejaVu Sans;
    }
    svg.railroad-diagram g.altterminal rect {
        fill: rgb(251, 252, 207)
    }

/* ]]> */
</style><g>
<path d="M 20 141 v 20 m 0 -10 h 20"></path></g><path d="M 40 151 h 10"></path><g>
<path d="M 50 151 h 0.0"></path><path d="M 377.5 151 h 0.0"></path><g>
<path d="M 50.0 151 h 0.0"></path><path d="M 377.5 151 h 0.0"></path><g class="terminal ">
<path d="M 50.0 151 h 0.0"></path><path d="M 121.0 151 h 0.0"></path><rect height="22" rx="10" ry="10" width="71.0" x="50.0" y="140"></rect><text x="85.5" y="155">&#60;char></text></g><path d="M 121.0 151 h 10"></path><path d="M 131.0 151 h 10"></path><g>
<path d="M 141.0 151 h 0.0"></path><path d="M 377.5 151 h 0.0"></path><path d="M 141.0 151 a 10 10 0 0 0 10 -10 v -50 a 10 10 0 0 1 10 -10"></path><g>
<path d="M 161.0 81 h 0.0"></path><path d="M 346.0 81 h 0.0"></path><g class="terminal ">
<path d="M 161.0 81 h 0.0"></path><path d="M 232.0 81 h 0.0"></path><rect height="22" rx="10" ry="10" width="71.0" x="161.0" y="70"></rect><text x="196.5" y="85">@style</text></g><path d="M 232.0 81 h 10"></path><path d="M 242.0 81 h 10"></path><g>
<path d="M 252.0 81 h 0.0"></path><path d="M 252.0 81 h 20"></path><g class="terminal ">
<path d="M 272.0 81 h 0.0"></path><path d="M 317.5 81 h 0.0"></path><rect height="22" rx="10" ry="10" width="45.5" x="272.0" y="70"></rect><text x="294.75" y="85">"w"</text></g><path d="M 252.0 81 a 10 10 0 0 1 10 10 v 10 a 10 10 0 0 0 10 10"></path><g class="terminal ">
<path d="M 272.0 111 h 0.0"></path><path d="M 326.0 111 h 0.0"></path><rect height="22" rx="10" ry="10" width="54.0" x="272.0" y="100"></rect><text x="299.0" y="115">"rb"</text></g></g></g><path d="M 141.0 151 a 10 10 0 0 0 10 -10 v -90 a 10 10 0 0 1 10 -10"></path><g>
<path d="M 161.0 41 h 0.0"></path><path d="M 272.0 41 h 0.0"></path><g class="terminal ">
<path d="M 161.0 41 h 0.0"></path><path d="M 198.0 41 h 0.0"></path><rect height="22" rx="10" ry="10" width="37.0" x="161.0" y="30"></rect><text x="179.5" y="45">@&#42;</text></g><path d="M 198.0 41 h 10"></path><path d="M 208.0 41 h 10"></path><g class="terminal ">
<path d="M 218.0 41 h 0.0"></path><path d="M 272.0 41 h 0.0"></path><rect height="22" rx="10" ry="10" width="54.0" x="218.0" y="30"></rect><text x="245.0" y="45">TEXT</text></g></g><path d="M 141.0 151 h 20"></path><g class="non-terminal ">
<path d="M 161.0 151 h 41.5"></path><path d="M 316.0 151 h 41.5"></path><rect height="22" width="113.5" x="202.5" y="140"></rect><text x="259.25" y="155">char.closed</text></g><path d="M 357.5 151 h 20"></path><path d="M 141.0 151 a 10 10 0 0 1 10 10 v 38 a 10 10 0 0 0 10 10"></path><g>
<path d="M 161.0 209 h 0.0"></path><path d="M 357.5 209 h 0.0"></path><g>
<path d="M 161.0 209 h 0.0"></path><path d="M 357.5 209 h 0.0"></path><path d="M 161.0 209 a 10 10 0 0 0 10 -10 v -9 a 10 10 0 0 1 10 -10"></path><g>
<path d="M 181.0 180 h 156.5"></path></g><path d="M 337.5 180 a 10 10 0 0 1 10 10 v 9 a 10 10 0 0 0 10 10"></path><path d="M 161.0 209 h 20"></path><g>
<path d="M 181.0 209 h 0.0"></path><path d="M 337.5 209 h 0.0"></path><path d="M 181.0 209 h 10"></path><g>
<path d="M 191.0 209 h 0.0"></path><path d="M 327.5 209 h 0.0"></path><path d="M 191.0 209 h 20"></path><g class="non-terminal ">
<path d="M 211.0 209 h 0.0"></path><path d="M 307.5 209 h 0.0"></path><rect height="22" width="96.5" x="211.0" y="198"></rect><text x="259.25" y="213">CharEmbed</text></g><path d="M 307.5 209 h 20"></path><path d="M 191.0 209 a 10 10 0 0 1 10 10 v 10 a 10 10 0 0 0 10 10"></path><g class="terminal ">
<path d="M 211.0 239 h 21.25"></path><path d="M 286.25 239 h 21.25"></path><rect height="22" rx="10" ry="10" width="54.0" x="232.25" y="228"></rect><text x="259.25" y="243">TEXT</text></g><path d="M 307.5 239 a 10 10 0 0 0 10 -10 v -10 a 10 10 0 0 1 10 -10"></path></g><path d="M 327.5 209 h 10"></path><path d="M 191.0 209 a 10 10 0 0 0 -10 10 v 39 a 10 10 0 0 0 10 10"></path><g>
<path d="M 191.0 268 h 136.5"></path></g><path d="M 327.5 268 a 10 10 0 0 0 10 -10 v -39 a 10 10 0 0 0 -10 -10"></path></g><path d="M 337.5 209 h 20"></path></g></g><path d="M 357.5 209 a 10 10 0 0 0 10 -10 v -38 a 10 10 0 0 1 10 -10"></path></g></g></g><path d="M 377.5 151 h 10"></path><path d="M 387.5 151 h 20 m 0 -10 v 20"></path></g></svg>