<svg class="railroad-diagram" height="184" viewBox="0 0 2238.0 184" width="2238.0" xmlns="http://www.w3.org/2000/svg" xmlns:xlink="http://www.w3.org/1999/xlink">
<g transform="translate(.5 .5)">
<style>/* <![CDATA[ */

    svg.railroad-diagram {
        background-color:hsl(30,20%,95%);
    }
    svg.railroad-diagram path {
        stroke-width: 2;
        stroke: black;
        fill: none;
    }
    svg.railroad-diagram text {
        font-size: 12px;
        text-anchor: middle;
        font-family: DejaVu Sans;
    }
    svg.railroad-diagram text.label {
        text-anchor:start;
    }
    svg.railroad-diagram text.comment {
        font-family: DejaVu Sans;
        font-size: 14px;
    }
    svg.railroad-diagram rect{
        stroke-width: 2;
        stroke:black;
        fill: rgb(210, 255, 210);
    }
    svg.railroad-diagram rect.group-box {
        stroke: gray;
        stroke-dasharray: 10 5;
        fill: none;
    }
    .terminal {
        font-family: DejaVu Sans;
    }

/* ]]> */
</style><g>
<path d="M 20 55 v 20 m 0 -10 h 20"></path></g><path d="M 40 65 h 10"></path><g>
<path d="M 50 65 h 0.0"></path><path d="M 2188.0 65 h 0.0"></path><g class="terminal ">
<path d="M 50.0 65 h 0.0"></path><path d="M 95.5 65 h 0.0"></path><rect height="22" rx="10" ry="10" width="45.5" x="50.0" y="54"></rect><text x="72.75" y="69">'\'</text></g><path d="M 95.5 65 h 10"></path><path d="M 105.5 65 h 10"></path><g>
<path d="M 115.5 65 h 0.0"></path><path d="M 229.5 65 h 0.0"></path><rect class="group-box" height="88" rx="10" ry="10" width="114.0" x="115.5" y="36"></rect><g>
<path d="M 115.5 65 h 10.0"></path><path d="M 219.5 65 h 10.0"></path><g>
<path d="M 125.5 65 h 0.0"></path><path d="M 219.5 65 h 0.0"></path><path d="M 125.5 65 h 20"></path><g class="terminal ">
<path d="M 145.5 65 h 4.25"></path><path d="M 195.25 65 h 4.25"></path><rect height="22" rx="10" ry="10" width="45.5" x="149.75" y="54"></rect><text x="172.5" y="69">"w"</text></g><path d="M 199.5 65 h 20"></path><path d="M 125.5 65 a 10 10 0 0 1 10 10 v 10 a 10 10 0 0 0 10 10"></path><g class="terminal ">
<path d="M 145.5 95 h 0.0"></path><path d="M 199.5 95 h 0.0"></path><rect height="22" rx="10" ry="10" width="54.0" x="145.5" y="84"></rect><text x="172.5" y="99">"rb"</text></g><path d="M 199.5 95 a 10 10 0 0 0 10 -10 v -10 a 10 10 0 0 1 10 -10"></path></g></g><g class="non-terminal ">
<path d="M 115.5 28 h 0.0"></path><path d="M 132.5 28 h 0.0"></path><text class="comment" x="124.0" y="33">➋</text></g></g><path d="M 229.5 65 h 10"></path><path d="M 239.5 65 h 10"></path><g>
<path d="M 249.5 65 h 0.0"></path><path d="M 360.5 65 h 0.0"></path><path d="M 249.5 65 h 20"></path><g class="terminal ">
<path d="M 269.5 65 h 12.75"></path><path d="M 327.75 65 h 12.75"></path><rect height="22" rx="10" ry="10" width="45.5" x="282.25" y="54"></rect><text x="305.0" y="69">' '</text></g><path d="M 340.5 65 h 20"></path><path d="M 249.5 65 a 10 10 0 0 1 10 10 v 10 a 10 10 0 0 0 10 10"></path><g class="terminal ">
<path d="M 269.5 95 h 0.0"></path><path d="M 340.5 95 h 0.0"></path><rect height="22" rx="10" ry="10" width="71.0" x="269.5" y="84"></rect><text x="305.0" y="99">TAGEND</text></g><path d="M 340.5 95 a 10 10 0 0 0 10 -10 v -10 a 10 10 0 0 1 10 -10"></path></g><path d="M 360.5 65 h 10"></path><path d="M 370.5 65 h 10"></path><g>
<path d="M 380.5 65 h 0.0"></path><path d="M 585.5 65 h 0.0"></path><path d="M 380.5 65 a 10 10 0 0 0 10 -10 v -9 a 10 10 0 0 1 10 -10"></path><g>
<path d="M 400.5 36 h 165.0"></path></g><path d="M 565.5 36 a 10 10 0 0 1 10 10 v 9 a 10 10 0 0 0 10 10"></path><path d="M 380.5 65 h 20"></path><g>
<path d="M 400.5 65 h 0.0"></path><path d="M 565.5 65 h 0.0"></path><path d="M 400.5 65 h 10"></path><g>
<path d="M 410.5 65 h 0.0"></path><path d="M 555.5 65 h 0.0"></path><path d="M 410.5 65 h 20"></path><g class="non-terminal ">
<path d="M 430.5 65 h 4.25"></path><path d="M 531.25 65 h 4.25"></path><rect height="22" width="96.5" x="434.75" y="54"></rect><text x="483.0" y="69">CharEmbed</text></g><path d="M 535.5 65 h 20"></path><path d="M 410.5 65 a 10 10 0 0 1 10 10 v 10 a 10 10 0 0 0 10 10"></path><g>
<path d="M 430.5 95 h 0.0"></path><path d="M 535.5 95 h 0.0"></path><g class="terminal ">
<path d="M 430.5 95 h 0.0"></path><path d="M 535.5 95 h 0.0"></path><rect height="22" rx="10" ry="10" width="105.0" x="430.5" y="84"></rect><text x="483.0" y="99">TEXTATTRIB</text></g></g><path d="M 535.5 95 a 10 10 0 0 0 10 -10 v -10 a 10 10 0 0 1 10 -10"></path></g><path d="M 555.5 65 h 10"></path><path d="M 410.5 65 a 10 10 0 0 0 -10 10 v 39 a 10 10 0 0 0 10 10"></path><g>
<path d="M 410.5 124 h 145.0"></path></g><path d="M 555.5 124 a 10 10 0 0 0 10 -10 v -39 a 10 10 0 0 0 -10 -10"></path></g><path d="M 565.5 65 h 20"></path></g><path d="M 585.5 65 h 10"></path><path d="M 595.5 65 h 10"></path><g>
<path d="M 605.5 65 h 0.0"></path><path d="M 759.0 65 h 0.0"></path><path d="M 605.5 65 h 20"></path><g>
<path d="M 625.5 65 h 113.5"></path></g><path d="M 739.0 65 h 20"></path><path d="M 605.5 65 a 10 10 0 0 1 10 10 v 0 a 10 10 0 0 0 10 10"></path><g class="non-terminal ">
<path d="M 625.5 85 h 0.0"></path><path d="M 739.0 85 h 0.0"></path><rect height="22" width="113.5" x="625.5" y="74"></rect><text x="682.25" y="89">char.closed</text></g><path d="M 739.0 85 a 10 10 0 0 0 10 -10 v 0 a 10 10 0 0 1 10 -10"></path></g><path d="M 759.0 65 h 10"></path><path d="M 769.0 65 h 10"></path><g>
<path d="M 779.0 65 h 0.0"></path><path d="M 1991.5 65 h 0.0"></path><path d="M 779.0 65 h 20"></path><g>
<path d="M 799.0 65 h 1172.5"></path></g><path d="M 1971.5 65 h 20"></path><path d="M 779.0 65 a 10 10 0 0 1 10 10 v 9 a 10 10 0 0 0 10 10"></path><g>
<path d="M 799.0 94 h 0.0"></path><path d="M 1971.5 94 h 0.0"></path><g>
<path d="M 799.0 94 h 0.0"></path><path d="M 893.0 94 h 0.0"></path><path d="M 799.0 94 h 20"></path><g class="terminal ">
<path d="M 819.0 94 h 4.25"></path><path d="M 868.75 94 h 4.25"></path><rect height="22" rx="10" ry="10" width="45.5" x="823.25" y="83"></rect><text x="846.0" y="98">'|'</text></g><path d="M 873.0 94 h 20"></path><path d="M 799.0 94 a 10 10 0 0 1 10 10 v 10 a 10 10 0 0 0 10 10"></path><g class="terminal ">
<path d="M 819.0 124 h 0.0"></path><path d="M 873.0 124 h 0.0"></path><rect height="22" rx="10" ry="10" width="54.0" x="819.0" y="113"></rect><text x="846.0" y="128">PIPE</text></g><path d="M 873.0 124 a 10 10 0 0 0 10 -10 v -10 a 10 10 0 0 1 10 -10"></path></g><path d="M 893.0 94 h 10"></path><path d="M 903.0 94 h 10"></path><g>
<path d="M 913.0 94 h 0.0"></path><path d="M 1971.5 94 h 0.0"></path><path d="M 913.0 94 h 20"></path><g>
<path d="M 933.0 94 h 0.0"></path><path d="M 1951.5 94 h 0.0"></path><path d="M 933.0 94 h 10"></path><g>
<path d="M 943.0 94 h 0.0"></path><path d="M 1941.5 94 h 0.0"></path><g class="terminal ">
<path d="M 943.0 94 h 0.0"></path><path d="M 1065.0 94 h 0.0"></path><rect height="22" rx="10" ry="10" width="122.0" x="943.0" y="83"></rect><text x="1004.0" y="98">/&#91;^\\\n="&#93;+/</text></g><path d="M 1065.0 94 h 10"></path><path d="M 1075.0 94 h 10"></path><g class="terminal ">
<path d="M 1085.0 94 h 0.0"></path><path d="M 1139.0 94 h 0.0"></path><rect height="22" rx="10" ry="10" width="54.0" x="1085.0" y="83"></rect><text x="1112.0" y="98">'="'</text></g><path d="M 1139.0 94 h 10"></path><path d="M 1149.0 94 h 10"></path><g class="terminal ">
<path d="M 1159.0 94 h 0.0"></path><path d="M 1272.5 94 h 0.0"></path><rect height="22" rx="10" ry="10" width="113.5" x="1159.0" y="83"></rect><text x="1215.75" y="98">/&#91;^\\\n"&#93;&#42;/</text></g><path d="M 1272.5 94 h 10"></path><path d="M 1282.5 94 h 10"></path><g class="terminal ">
<path d="M 1292.5 94 h 0.0"></path><path d="M 1941.5 94 h 0.0"></path><rect height="22" rx="10" ry="10" width="649.0" x="1292.5" y="83"></rect><text x="1617.0" y="98">/"&#91;\u0009-\u000D\u0020\u00A0\u1680\u2000-\u200B\u2028\u2029\u202F\u205F&#93;&#42;/</text></g></g><path d="M 1941.5 94 h 10"></path><path d="M 943.0 94 a 10 10 0 0 0 -10 10 v 0 a 10 10 0 0 0 10 10"></path><g>
<path d="M 943.0 114 h 998.5"></path></g><path d="M 1941.5 114 a 10 10 0 0 0 10 -10 v 0 a 10 10 0 0 0 -10 -10"></path></g><path d="M 1951.5 94 h 20"></path><path d="M 913.0 94 a 10 10 0 0 1 10 10 v 19 a 10 10 0 0 0 10 10"></path><g>
<path d="M 933.0 133 h 427.0"></path><path d="M 1524.5 133 h 427.0"></path><g class="terminal ">
<path d="M 1360.0 133 h 0.0"></path><path d="M 1524.5 133 h 0.0"></path><rect height="22" rx="10" ry="10" width="164.5" x="1360.0" y="122"></rect><text x="1442.25" y="137">/&#91;^\\\n=&#93;+(?=\\)/</text></g></g><path d="M 1951.5 133 a 10 10 0 0 0 10 -10 v -19 a 10 10 0 0 1 10 -10"></path></g></g><path d="M 1971.5 94 a 10 10 0 0 0 10 -10 v -9 a 10 10 0 0 1 10 -10"></path></g><path d="M 1991.5 65 h 10"></path><path d="M 2001.5 65 h 10"></path><g class="terminal ">
<path d="M 2011.5 65 h 0.0"></path><path d="M 2057.0 65 h 0.0"></path><rect height="22" rx="10" ry="10" width="45.5" x="2011.5" y="54"></rect><text x="2034.25" y="69">'\'</text></g><path d="M 2057.0 65 h 10"></path><path d="M 2067.0 65 h 10"></path><g class="terminal ">
<path d="M 2077.0 65 h 0.0"></path><path d="M 2122.5 65 h 0.0"></path><rect height="22" rx="10" ry="10" width="45.5" x="2077.0" y="54"></rect><text x="2099.75" y="69">⇐ ➔</text></g><path d="M 2122.5 65 h 10"></path><path d="M 2132.5 65 h 10"></path><g class="terminal ">
<path d="M 2142.5 65 h 0.0"></path><path d="M 2188.0 65 h 0.0"></path><rect height="22" rx="10" ry="10" width="45.5" x="2142.5" y="54"></rect><text x="2165.25" y="69">'&#42;'</text></g></g><path d="M 2188.0 65 h 10"></path><path d="M 2198.0 65 h 20 m 0 -10 v 20"></path></g></svg>