<svg class="railroad-diagram" height="990" viewBox="0 0 849.5 990" width="849.5" xmlns="http://www.w3.org/2000/svg" xmlns:xlink="http://www.w3.org/1999/xlink">
<g transform="translate(.5 .5)">
<style>/* <![CDATA[ */

    svg.railroad-diagram {
        background-color: hsl(30,20%,95%);
    }
    svg.railroad-diagram path {
        stroke-width: 2;
        stroke: black;
        fill: none;
    }
    svg.railroad-diagram text {
        font-size: 12px;
        text-anchor: middle;
        font-family: DejaVu Sans;
    }
    svg.railroad-diagram text.label {
        text-anchor:start;
    }
    svg.railroad-diagram text.comment {
        font-family: DejaVu Sans;
        font-size: 14px;
    }
    svg.railroad-diagram rect{
        stroke-width: 2;
        stroke: black;
        fill: rgb(210, 255, 210);
    }
    svg.railroad-diagram rect.group-box {
        stroke: gray;
        stroke-dasharray: 10 5;
        fill: none;
    }
    .terminal {
        font-family: DejaVu Sans;
    }
    svg.railroad-diagram g.altterminal rect {
        fill: rgb(251, 252, 207)
    }

/* ]]> */
</style><g>
<path d="M 20 163 v 20 m 0 -10 h 20"></path></g><path d="M 40 173 h 10"></path><g>
<path d="M 50 173 h 0.0"></path><path d="M 799.5 889 h 0.0"></path><g>
<path d="M 50.0 173 h 0.0"></path><path d="M 799.5 889 h 0.0"></path><path d="M 50.0 173 h 20"></path><g>
<path d="M 70.0 173 h 0.0"></path><path d="M 70.0 173 h 10"></path><g>
<path d="M 80.0 173 h 10.0"></path><path d="M 759.5 173 h 10.0"></path><g class="terminal ">
<path d="M 90.0 173 h 0.0"></path><path d="M 135.5 173 h 0.0"></path><rect height="22" rx="10" ry="10" width="45.5" x="90.0" y="162"></rect><text x="112.75" y="177">'\'</text></g><path d="M 135.5 173 h 10"></path><path d="M 145.5 173 h 10"></path><g>
<path d="M 155.5 173 h 0.0"></path><path d="M 628.5 173 h 0.0"></path><rect class="group-box" height="404" rx="10" ry="10" width="473.0" x="155.5" y="46"></rect><g>
<path d="M 155.5 173 h 10.0"></path><path d="M 618.5 173 h 10.0"></path><g>
<path d="M 165.5 173 h 0.0"></path><path d="M 618.5 173 h 0.0"></path><path d="M 165.5 173 a 10 10 0 0 0 10 -10 v -99 a 10 10 0 0 1 10 -10 h 272.0"></path><path d="M 335.0 442 h 263.5 a 10 10 0 0 0 10 -10 v -249 a 10 10 0 0 1 10 -10"></path><path d="M 165.5 173 h 10"></path><g>
<path d="M 175.5 173 h 10.0"></path><path d="M 305.0 173 h 10.0"></path><path d="M 185.5 173 a 10 10 0 0 0 10 -10 v -10 a 10 10 0 0 1 10 -10"></path><g class="terminal ">
<path d="M 205.5 143 h 12.75"></path><path d="M 272.25 143 h 12.75"></path><rect height="22" rx="10" ry="10" width="54.0" x="218.25" y="132"></rect><text x="245.25" y="147">"qs"</text></g><path d="M 285.0 143 a 10 10 0 0 1 10 10 v 10 a 10 10 0 0 0 10 10"></path><path d="M 185.5 173 a 10 10 0 0 0 10 -10 v -40 a 10 10 0 0 1 10 -10"></path><g class="terminal ">
<path d="M 205.5 113 h 8.5"></path><path d="M 276.5 113 h 8.5"></path><rect height="22" rx="10" ry="10" width="62.5" x="214.0" y="102"></rect><text x="245.25" y="117">"qac"</text></g><path d="M 285.0 113 a 10 10 0 0 1 10 10 v 40 a 10 10 0 0 0 10 10"></path><path d="M 185.5 173 a 10 10 0 0 0 10 -10 v -70 a 10 10 0 0 1 10 -10"></path><g class="terminal ">
<path d="M 205.5 83 h 12.75"></path><path d="M 272.25 83 h 12.75"></path><rect height="22" rx="10" ry="10" width="54.0" x="218.25" y="72"></rect><text x="245.25" y="87">"vp"</text></g><path d="M 285.0 83 a 10 10 0 0 1 10 10 v 70 a 10 10 0 0 0 10 10"></path><path d="M 185.5 173 h 20"></path><g class="terminal ">
<path d="M 205.5 173 h 8.5"></path><path d="M 276.5 173 h 8.5"></path><rect height="22" rx="10" ry="10" width="62.5" x="214.0" y="162"></rect><text x="245.25" y="177">"add"</text></g><path d="M 285.0 173 h 20"></path><path d="M 185.5 173 a 10 10 0 0 1 10 10 v 10 a 10 10 0 0 0 10 10"></path><g class="terminal ">
<path d="M 205.5 203 h 0.0"></path><path d="M 285.0 203 h 0.0"></path><rect height="22" rx="10" ry="10" width="79.5" x="205.5" y="192"></rect><text x="245.25" y="207">"addpn"</text></g><path d="M 285.0 203 a 10 10 0 0 0 10 -10 v -10 a 10 10 0 0 1 10 -10"></path><path d="M 185.5 173 a 10 10 0 0 1 10 10 v 40 a 10 10 0 0 0 10 10"></path><g class="terminal ">
<path d="M 205.5 233 h 12.75"></path><path d="M 272.25 233 h 12.75"></path><rect height="22" rx="10" ry="10" width="54.0" x="218.25" y="222"></rect><text x="245.25" y="237">"bk"</text></g><path d="M 285.0 233 a 10 10 0 0 0 10 -10 v -40 a 10 10 0 0 1 10 -10"></path><path d="M 185.5 173 a 10 10 0 0 1 10 10 v 70 a 10 10 0 0 0 10 10"></path><g class="terminal ">
<path d="M 205.5 263 h 12.75"></path><path d="M 272.25 263 h 12.75"></path><rect height="22" rx="10" ry="10" width="54.0" x="218.25" y="252"></rect><text x="245.25" y="267">"dc"</text></g><path d="M 285.0 263 a 10 10 0 0 0 10 -10 v -70 a 10 10 0 0 1 10 -10"></path><path d="M 185.5 173 a 10 10 0 0 1 10 10 v 100 a 10 10 0 0 0 10 10"></path><g class="terminal ">
<path d="M 205.5 293 h 8.5"></path><path d="M 276.5 293 h 8.5"></path><rect height="22" rx="10" ry="10" width="62.5" x="214.0" y="282"></rect><text x="245.25" y="297">"efm"</text></g><path d="M 285.0 293 a 10 10 0 0 0 10 -10 v -100 a 10 10 0 0 1 10 -10"></path><path d="M 185.5 173 a 10 10 0 0 1 10 10 v 130 a 10 10 0 0 0 10 10"></path><g class="terminal ">
<path d="M 205.5 323 h 12.75"></path><path d="M 272.25 323 h 12.75"></path><rect height="22" rx="10" ry="10" width="54.0" x="218.25" y="312"></rect><text x="245.25" y="327">"fm"</text></g><path d="M 285.0 323 a 10 10 0 0 0 10 -10 v -130 a 10 10 0 0 1 10 -10"></path><path d="M 185.5 173 a 10 10 0 0 1 10 10 v 160 a 10 10 0 0 0 10 10"></path><g class="terminal ">
<path d="M 205.5 353 h 17.0"></path><path d="M 268.0 353 h 17.0"></path><rect height="22" rx="10" ry="10" width="45.5" x="222.5" y="342"></rect><text x="245.25" y="357">"k"</text></g><path d="M 285.0 353 a 10 10 0 0 0 10 -10 v -160 a 10 10 0 0 1 10 -10"></path><path d="M 185.5 173 a 10 10 0 0 1 10 10 v 190 a 10 10 0 0 0 10 10"></path><g class="terminal ">
<path d="M 205.5 383 h 12.75"></path><path d="M 272.25 383 h 12.75"></path><rect height="22" rx="10" ry="10" width="54.0" x="218.25" y="372"></rect><text x="245.25" y="387">"nd"</text></g><path d="M 285.0 383 a 10 10 0 0 0 10 -10 v -190 a 10 10 0 0 1 10 -10"></path><path d="M 185.5 173 a 10 10 0 0 1 10 10 v 220 a 10 10 0 0 0 10 10"></path><g class="terminal ">
<path d="M 205.5 413 h 8.5"></path><path d="M 276.5 413 h 8.5"></path><rect height="22" rx="10" ry="10" width="62.5" x="214.0" y="402"></rect><text x="245.25" y="417">"ndx"</text></g><path d="M 285.0 413 a 10 10 0 0 0 10 -10 v -220 a 10 10 0 0 1 10 -10"></path></g><path d="M 315.0 173 a 10 10 0 0 1 10 10 v 249 a 10 10 0 0 0 10 10"></path><path d="M 315.0 54 a 10 10 0 0 1 10 10 v 99 a 10 10 0 0 0 10 10"></path><g>
<path d="M 335.0 173 h 10.0"></path><path d="M 447.5 173 h 10.0"></path><path d="M 345.0 173 a 10 10 0 0 0 10 -10 v -10 a 10 10 0 0 1 10 -10"></path><g class="terminal ">
<path d="M 365.0 143 h 4.25"></path><path d="M 423.25 143 h 4.25"></path><rect height="22" rx="10" ry="10" width="54.0" x="369.25" y="132"></rect><text x="396.25" y="147">"pn"</text></g><path d="M 427.5 143 a 10 10 0 0 1 10 10 v 10 a 10 10 0 0 0 10 10"></path><path d="M 345.0 173 a 10 10 0 0 0 10 -10 v -40 a 10 10 0 0 1 10 -10"></path><g class="terminal ">
<path d="M 365.0 113 h 0.0"></path><path d="M 427.5 113 h 0.0"></path><rect height="22" rx="10" ry="10" width="62.5" x="365.0" y="102"></rect><text x="396.25" y="117">"png"</text></g><path d="M 427.5 113 a 10 10 0 0 1 10 10 v 40 a 10 10 0 0 0 10 10"></path><path d="M 345.0 173 a 10 10 0 0 0 10 -10 v -70 a 10 10 0 0 1 10 -10"></path><g class="terminal ">
<path d="M 365.0 83 h 0.0"></path><path d="M 427.5 83 h 0.0"></path><rect height="22" rx="10" ry="10" width="62.5" x="365.0" y="72"></rect><text x="396.25" y="87">"ord"</text></g><path d="M 427.5 83 a 10 10 0 0 1 10 10 v 70 a 10 10 0 0 0 10 10"></path><path d="M 345.0 173 h 20"></path><g class="terminal ">
<path d="M 365.0 173 h 0.0"></path><path d="M 427.5 173 h 0.0"></path><rect height="22" rx="10" ry="10" width="62.5" x="365.0" y="162"></rect><text x="396.25" y="177">"pro"</text></g><path d="M 427.5 173 h 20"></path><path d="M 345.0 173 a 10 10 0 0 1 10 10 v 10 a 10 10 0 0 0 10 10"></path><g class="terminal ">
<path d="M 365.0 203 h 4.25"></path><path d="M 423.25 203 h 4.25"></path><rect height="22" rx="10" ry="10" width="54.0" x="369.25" y="192"></rect><text x="396.25" y="207">"qt"</text></g><path d="M 427.5 203 a 10 10 0 0 0 10 -10 v -10 a 10 10 0 0 1 10 -10"></path><path d="M 345.0 173 a 10 10 0 0 1 10 10 v 40 a 10 10 0 0 0 10 10"></path><g class="terminal ">
<path d="M 365.0 233 h 4.25"></path><path d="M 423.25 233 h 4.25"></path><rect height="22" rx="10" ry="10" width="54.0" x="369.25" y="222"></rect><text x="396.25" y="237">"rq"</text></g><path d="M 427.5 233 a 10 10 0 0 0 10 -10 v -40 a 10 10 0 0 1 10 -10"></path><path d="M 345.0 173 a 10 10 0 0 1 10 10 v 70 a 10 10 0 0 0 10 10"></path><g class="terminal ">
<path d="M 365.0 263 h 0.0"></path><path d="M 427.5 263 h 0.0"></path><rect height="22" rx="10" ry="10" width="62.5" x="365.0" y="252"></rect><text x="396.25" y="267">"sig"</text></g><path d="M 427.5 263 a 10 10 0 0 0 10 -10 v -70 a 10 10 0 0 1 10 -10"></path><path d="M 345.0 173 a 10 10 0 0 1 10 10 v 100 a 10 10 0 0 0 10 10"></path><g class="terminal ">
<path d="M 365.0 293 h 0.0"></path><path d="M 427.5 293 h 0.0"></path><rect height="22" rx="10" ry="10" width="62.5" x="365.0" y="282"></rect><text x="396.25" y="297">"sls"</text></g><path d="M 427.5 293 a 10 10 0 0 0 10 -10 v -100 a 10 10 0 0 1 10 -10"></path><path d="M 345.0 173 a 10 10 0 0 1 10 10 v 130 a 10 10 0 0 0 10 10"></path><g class="terminal ">
<path d="M 365.0 323 h 4.25"></path><path d="M 423.25 323 h 4.25"></path><rect height="22" rx="10" ry="10" width="54.0" x="369.25" y="312"></rect><text x="396.25" y="327">"tl"</text></g><path d="M 427.5 323 a 10 10 0 0 0 10 -10 v -130 a 10 10 0 0 1 10 -10"></path><path d="M 345.0 173 a 10 10 0 0 1 10 10 v 160 a 10 10 0 0 0 10 10"></path><g class="terminal ">
<path d="M 365.0 353 h 4.25"></path><path d="M 423.25 353 h 4.25"></path><rect height="22" rx="10" ry="10" width="54.0" x="369.25" y="342"></rect><text x="396.25" y="357">"wg"</text></g><path d="M 427.5 353 a 10 10 0 0 0 10 -10 v -160 a 10 10 0 0 1 10 -10"></path><path d="M 345.0 173 a 10 10 0 0 1 10 10 v 190 a 10 10 0 0 0 10 10"></path><g class="terminal ">
<path d="M 365.0 383 h 4.25"></path><path d="M 423.25 383 h 4.25"></path><rect height="22" rx="10" ry="10" width="54.0" x="369.25" y="372"></rect><text x="396.25" y="387">"wh"</text></g><path d="M 427.5 383 a 10 10 0 0 0 10 -10 v -190 a 10 10 0 0 1 10 -10"></path><path d="M 345.0 173 a 10 10 0 0 1 10 10 v 220 a 10 10 0 0 0 10 10"></path><g class="terminal ">
<path d="M 365.0 413 h 4.25"></path><path d="M 423.25 413 h 4.25"></path><rect height="22" rx="10" ry="10" width="54.0" x="369.25" y="402"></rect><text x="396.25" y="417">"wa"</text></g><path d="M 427.5 413 a 10 10 0 0 0 10 -10 v -220 a 10 10 0 0 1 10 -10"></path></g><path d="M 457.5 173 a 10 10 0 0 1 10 10 v 249 a 10 10 0 0 0 10 10"></path><path d="M 457.5 54 a 10 10 0 0 1 10 10 v 99 a 10 10 0 0 0 10 10"></path><g>
<path d="M 477.5 173 h 10.0"></path><path d="M 598.5 173 h 10.0"></path><path d="M 487.5 173 a 10 10 0 0 0 10 -10 v -10 a 10 10 0 0 1 10 -10"></path><g class="terminal ">
<path d="M 507.5 143 h 4.25"></path><path d="M 574.25 143 h 4.25"></path><rect height="22" rx="10" ry="10" width="62.5" x="511.75" y="132"></rect><text x="543.0" y="147">"jmp"</text></g><path d="M 578.5 143 a 10 10 0 0 1 10 10 v 10 a 10 10 0 0 0 10 10"></path><path d="M 487.5 173 a 10 10 0 0 0 10 -10 v -40 a 10 10 0 0 1 10 -10"></path><g class="terminal ">
<path d="M 507.5 113 h 8.5"></path><path d="M 570.0 113 h 8.5"></path><rect height="22" rx="10" ry="10" width="54.0" x="516.0" y="102"></rect><text x="543.0" y="117">"xt"</text></g><path d="M 578.5 113 a 10 10 0 0 1 10 10 v 40 a 10 10 0 0 0 10 10"></path><path d="M 487.5 173 a 10 10 0 0 0 10 -10 v -70 a 10 10 0 0 1 10 -10"></path><g class="terminal ">
<path d="M 507.5 83 h 8.5"></path><path d="M 570.0 83 h 8.5"></path><rect height="22" rx="10" ry="10" width="54.0" x="516.0" y="72"></rect><text x="543.0" y="87">"wj"</text></g><path d="M 578.5 83 a 10 10 0 0 1 10 10 v 70 a 10 10 0 0 0 10 10"></path><path d="M 487.5 173 h 20"></path><g class="terminal ">
<path d="M 507.5 173 h 8.5"></path><path d="M 570.0 173 h 8.5"></path><rect height="22" rx="10" ry="10" width="54.0" x="516.0" y="162"></rect><text x="543.0" y="177">"no"</text></g><path d="M 578.5 173 h 20"></path><path d="M 487.5 173 a 10 10 0 0 1 10 10 v 10 a 10 10 0 0 0 10 10"></path><g class="terminal ">
<path d="M 507.5 203 h 8.5"></path><path d="M 570.0 203 h 8.5"></path><rect height="22" rx="10" ry="10" width="54.0" x="516.0" y="192"></rect><text x="543.0" y="207">"it"</text></g><path d="M 578.5 203 a 10 10 0 0 0 10 -10 v -10 a 10 10 0 0 1 10 -10"></path><path d="M 487.5 173 a 10 10 0 0 1 10 10 v 40 a 10 10 0 0 0 10 10"></path><g class="terminal ">
<path d="M 507.5 233 h 0.0"></path><path d="M 578.5 233 h 0.0"></path><rect height="22" rx="10" ry="10" width="71.0" x="507.5" y="222"></rect><text x="543.0" y="237">"bdit"</text></g><path d="M 578.5 233 a 10 10 0 0 0 10 -10 v -40 a 10 10 0 0 1 10 -10"></path><path d="M 487.5 173 a 10 10 0 0 1 10 10 v 70 a 10 10 0 0 0 10 10"></path><g class="terminal ">
<path d="M 507.5 263 h 8.5"></path><path d="M 570.0 263 h 8.5"></path><rect height="22" rx="10" ry="10" width="54.0" x="516.0" y="252"></rect><text x="543.0" y="267">"bd"</text></g><path d="M 578.5 263 a 10 10 0 0 0 10 -10 v -70 a 10 10 0 0 1 10 -10"></path><path d="M 487.5 173 a 10 10 0 0 1 10 10 v 100 a 10 10 0 0 0 10 10"></path><g class="terminal ">
<path d="M 507.5 293 h 8.5"></path><path d="M 570.0 293 h 8.5"></path><rect height="22" rx="10" ry="10" width="54.0" x="516.0" y="282"></rect><text x="543.0" y="297">"em"</text></g><path d="M 578.5 293 a 10 10 0 0 0 10 -10 v -100 a 10 10 0 0 1 10 -10"></path><path d="M 487.5 173 a 10 10 0 0 1 10 10 v 130 a 10 10 0 0 0 10 10"></path><g class="terminal ">
<path d="M 507.5 323 h 8.5"></path><path d="M 570.0 323 h 8.5"></path><rect height="22" rx="10" ry="10" width="54.0" x="516.0" y="312"></rect><text x="543.0" y="327">"sc"</text></g><path d="M 578.5 323 a 10 10 0 0 0 10 -10 v -130 a 10 10 0 0 1 10 -10"></path><path d="M 487.5 173 a 10 10 0 0 1 10 10 v 160 a 10 10 0 0 0 10 10"></path><g class="terminal ">
<path d="M 507.5 353 h 4.25"></path><path d="M 574.25 353 h 4.25"></path><rect height="22" rx="10" ry="10" width="62.5" x="511.75" y="342"></rect><text x="543.0" y="357">"sup"</text></g><path d="M 578.5 353 a 10 10 0 0 0 10 -10 v -160 a 10 10 0 0 1 10 -10"></path></g><path d="M 608.5 173 h 10"></path></g></g><g class="non-terminal ">
<path d="M 155.5 38 h 0.0"></path><path d="M 172.5 38 h 0.0"></path><text class="comment" x="164.0" y="43">➋</text></g></g><path d="M 628.5 173 h 10"></path><path d="M 638.5 173 h 10"></path><g>
<path d="M 648.5 173 h 0.0"></path><path d="M 759.5 173 h 0.0"></path><path d="M 648.5 173 h 20"></path><g class="terminal ">
<path d="M 668.5 173 h 12.75"></path><path d="M 726.75 173 h 12.75"></path><rect height="22" rx="10" ry="10" width="45.5" x="681.25" y="162"></rect><text x="704.0" y="177">' '</text></g><path d="M 739.5 173 h 20"></path><path d="M 648.5 173 a 10 10 0 0 1 10 10 v 10 a 10 10 0 0 0 10 10"></path><g class="terminal altterminal">
<path d="M 668.5 203 h 0.0"></path><path d="M 739.5 203 h 0.0"></path><rect height="22" rx="10" ry="10" width="71.0" x="668.5" y="192"></rect><text x="704.0" y="207">TAGEND</text></g><path d="M 739.5 203 a 10 10 0 0 0 10 -10 v -10 a 10 10 0 0 1 10 -10"></path></g></g><path d="M 769.5 173 a 10 10 0 0 1 10 10 v 265 a 10 10 0 0 1 -10 10 h -689.5 a 10 10 0 0 0 -10 10 v 0 a 10 10 0 0 0 10 10"></path><g>
<path d="M 80.0 478 h 276.5"></path><path d="M 493.0 478 h 276.5"></path><path d="M 356.5 478 h 20"></path><g>
<path d="M 376.5 478 h 96.5"></path></g><path d="M 473.0 478 h 20"></path><path d="M 356.5 478 a 10 10 0 0 1 10 10 v 0 a 10 10 0 0 0 10 10"></path><g class="non-terminal ">
<path d="M 376.5 498 h 0.0"></path><path d="M 473.0 498 h 0.0"></path><rect height="22" width="96.5" x="376.5" y="487"></rect><text x="424.75" y="502">char.link</text></g><path d="M 473.0 498 a 10 10 0 0 0 10 -10 v 0 a 10 10 0 0 1 10 -10"></path></g><path d="M 769.5 478 a 10 10 0 0 1 10 10 v 29 a 10 10 0 0 1 -10 10 h -689.5 a 10 10 0 0 0 -10 10 v 9 a 10 10 0 0 0 10 10"></path><g>
<path d="M 80.0 556 h 174.25"></path><path d="M 595.25 556 h 174.25"></path><path d="M 254.25 556 h 10"></path><g>
<path d="M 264.25 556 h 0.0"></path><path d="M 585.25 556 h 0.0"></path><path d="M 264.25 556 h 20"></path><g class="non-terminal ">
<path d="M 284.25 556 h 92.25"></path><path d="M 473.0 556 h 92.25"></path><rect height="22" width="96.5" x="376.5" y="545"></rect><text x="424.75" y="560">CharEmbed</text></g><path d="M 565.25 556 h 20"></path><path d="M 264.25 556 a 10 10 0 0 1 10 10 v 10 a 10 10 0 0 0 10 10"></path><g class="non-terminal ">
<path d="M 284.25 586 h 92.25"></path><path d="M 473.0 586 h 92.25"></path><rect height="22" width="96.5" x="376.5" y="575"></rect><text x="424.75" y="590">Milestone</text></g><path d="M 565.25 586 a 10 10 0 0 0 10 -10 v -10 a 10 10 0 0 1 10 -10"></path><path d="M 264.25 556 a 10 10 0 0 1 10 10 v 40 a 10 10 0 0 0 10 10"></path><g class="non-terminal ">
<path d="M 284.25 616 h 96.5"></path><path d="M 468.75 616 h 96.5"></path><rect height="22" width="88.0" x="380.75" y="605"></rect><text x="424.75" y="620">Footnote</text></g><path d="M 565.25 616 a 10 10 0 0 0 10 -10 v -40 a 10 10 0 0 1 10 -10"></path><path d="M 264.25 556 a 10 10 0 0 1 10 10 v 70 a 10 10 0 0 0 10 10"></path><g class="non-terminal ">
<path d="M 284.25 646 h 71.0"></path><path d="M 494.25 646 h 71.0"></path><rect height="22" width="139.0" x="355.25" y="635"></rect><text x="424.75" y="650">CrossReference</text></g><path d="M 565.25 646 a 10 10 0 0 0 10 -10 v -70 a 10 10 0 0 1 10 -10"></path><path d="M 264.25 556 a 10 10 0 0 1 10 10 v 100 a 10 10 0 0 0 10 10"></path><g>
<path d="M 284.25 676 h 113.5"></path><path d="M 451.75 676 h 113.5"></path><g class="terminal ">
<path d="M 397.75 676 h 0.0"></path><path d="M 451.75 676 h 0.0"></path><rect height="22" rx="10" ry="10" width="54.0" x="397.75" y="665"></rect><text x="424.75" y="680">'//'</text></g></g><path d="M 565.25 676 a 10 10 0 0 0 10 -10 v -100 a 10 10 0 0 1 10 -10"></path><path d="M 264.25 556 a 10 10 0 0 1 10 10 v 130 a 10 10 0 0 0 10 10"></path><g>
<path d="M 284.25 706 h 0.0"></path><path d="M 565.25 706 h 0.0"></path><g class="terminal ">
<path d="M 284.25 706 h 0.0"></path><path d="M 414.75 706 h 0.0"></path><rect height="22" rx="10" ry="10" width="130.5" x="284.25" y="695"></rect><text x="349.5" y="710">TEXTNOTATTRIB</text></g><path d="M 414.75 706 h 10"></path><path d="M 424.75 706 h 10"></path><g class="terminal ">
<path d="M 434.75 706 h 0.0"></path><path d="M 565.25 706 h 0.0"></path><rect height="22" rx="10" ry="10" width="130.5" x="434.75" y="695"></rect><text x="500.0" y="710">ATTRIBTEXTEND</text></g></g><path d="M 565.25 706 a 10 10 0 0 0 10 -10 v -130 a 10 10 0 0 1 10 -10"></path></g><path d="M 585.25 556 h 10"></path><path d="M 264.25 556 a 10 10 0 0 0 -10 10 v 159 a 10 10 0 0 0 10 10"></path><g>
<path d="M 264.25 735 h 321.0"></path></g><path d="M 585.25 735 a 10 10 0 0 0 10 -10 v -159 a 10 10 0 0 0 -10 -10"></path></g><path d="M 769.5 556 a 10 10 0 0 1 10 10 v 167 a 10 10 0 0 1 -10 10 h -689.5 a 10 10 0 0 0 -10 10 v 0 a 10 10 0 0 0 10 10"></path><g>
<path d="M 80.0 763 h 31.75"></path><path d="M 737.75 763 h 31.75"></path><path d="M 111.75 763 h 20"></path><g>
<path d="M 131.75 763 h 586.0"></path></g><path d="M 717.75 763 h 20"></path><path d="M 111.75 763 a 10 10 0 0 1 10 10 v 9 a 10 10 0 0 0 10 10"></path><g>
<path d="M 131.75 792 h 0.0"></path><path d="M 717.75 792 h 0.0"></path><g>
<path d="M 131.75 792 h 0.0"></path><path d="M 225.75 792 h 0.0"></path><path d="M 131.75 792 h 20"></path><g class="terminal ">
<path d="M 151.75 792 h 4.25"></path><path d="M 201.5 792 h 4.25"></path><rect height="22" rx="10" ry="10" width="45.5" x="156.0" y="781"></rect><text x="178.75" y="796">'|'</text></g><path d="M 205.75 792 h 20"></path><path d="M 131.75 792 a 10 10 0 0 1 10 10 v 10 a 10 10 0 0 0 10 10"></path><g class="terminal altterminal">
<path d="M 151.75 822 h 0.0"></path><path d="M 205.75 822 h 0.0"></path><rect height="22" rx="10" ry="10" width="54.0" x="151.75" y="811"></rect><text x="178.75" y="826">PIPE</text></g><path d="M 205.75 822 a 10 10 0 0 0 10 -10 v -10 a 10 10 0 0 1 10 -10"></path></g><path d="M 225.75 792 h 10"></path><path d="M 235.75 792 h 10"></path><g>
<path d="M 245.75 792 h 0.0"></path><path d="M 717.75 792 h 0.0"></path><path d="M 245.75 792 h 10"></path><g>
<path d="M 255.75 792 h 0.0"></path><path d="M 707.75 792 h 0.0"></path><g>
<path d="M 255.75 792 h 0.0"></path><path d="M 707.75 792 h 0.0"></path><path d="M 255.75 792 h 20"></path><g class="terminal ">
<path d="M 275.75 792 h 157.75"></path><path d="M 530.0 792 h 157.75"></path><rect height="22" rx="10" ry="10" width="96.5" x="433.5" y="781"></rect><text x="481.75" y="796">ATTRIBALL</text></g><path d="M 687.75 792 h 20"></path><path d="M 255.75 792 a 10 10 0 0 1 10 10 v 10 a 10 10 0 0 0 10 10"></path><g>
<path d="M 275.75 822 h 0.0"></path><path d="M 687.75 822 h 0.0"></path><g class="terminal ">
<path d="M 275.75 822 h 0.0"></path><path d="M 380.75 822 h 0.0"></path><rect height="22" rx="10" ry="10" width="105.0" x="275.75" y="811"></rect><text x="328.25" y="826">ATTRIBNAME</text></g><path d="M 380.75 822 h 10"></path><path d="M 390.75 822 h 10"></path><g class="terminal ">
<path d="M 400.75 822 h 0.0"></path><path d="M 454.75 822 h 0.0"></path><rect height="22" rx="10" ry="10" width="54.0" x="400.75" y="811"></rect><text x="427.75" y="826">'="'</text></g><path d="M 454.75 822 h 10"></path><path d="M 464.75 822 h 10"></path><g class="terminal ">
<path d="M 474.75 822 h 0.0"></path><path d="M 579.75 822 h 0.0"></path><rect height="22" rx="10" ry="10" width="105.0" x="474.75" y="811"></rect><text x="527.25" y="826">ATTRIBTEXT</text></g><path d="M 579.75 822 h 10"></path><path d="M 589.75 822 h 10"></path><g class="terminal ">
<path d="M 599.75 822 h 0.0"></path><path d="M 687.75 822 h 0.0"></path><rect height="22" rx="10" ry="10" width="88.0" x="599.75" y="811"></rect><text x="643.75" y="826">/"${Hs}/</text></g></g><path d="M 687.75 822 a 10 10 0 0 0 10 -10 v -10 a 10 10 0 0 1 10 -10"></path></g></g><path d="M 707.75 792 h 10"></path><path d="M 255.75 792 a 10 10 0 0 0 -10 10 v 39 a 10 10 0 0 0 10 10"></path><g>
<path d="M 255.75 851 h 452.0"></path></g><path d="M 707.75 851 a 10 10 0 0 0 10 -10 v -39 a 10 10 0 0 0 -10 -10"></path></g></g><path d="M 717.75 792 a 10 10 0 0 0 10 -10 v -9 a 10 10 0 0 1 10 -10"></path></g><path d="M 769.5 763 a 10 10 0 0 1 10 10 v 86 a 10 10 0 0 1 -10 10 h -689.5 a 10 10 0 0 0 -10 10 v 0 a 10 10 0 0 0 10 10"></path><g>
<path d="M 80.0 889 h 256.5"></path><path d="M 513.0 889 h 256.5"></path><g class="terminal ">
<path d="M 336.5 889 h 0.0"></path><path d="M 382.0 889 h 0.0"></path><rect height="22" rx="10" ry="10" width="45.5" x="336.5" y="878"></rect><text x="359.25" y="893">'\'</text></g><path d="M 382.0 889 h 10"></path><path d="M 392.0 889 h 10"></path><g class="terminal ">
<path d="M 402.0 889 h 0.0"></path><path d="M 447.5 889 h 0.0"></path><rect height="22" rx="10" ry="10" width="45.5" x="402.0" y="878"></rect><text x="424.75" y="893">⇐ ➋</text></g><path d="M 447.5 889 h 10"></path><path d="M 457.5 889 h 10"></path><g class="terminal ">
<path d="M 467.5 889 h 0.0"></path><path d="M 513.0 889 h 0.0"></path><rect height="22" rx="10" ry="10" width="45.5" x="467.5" y="878"></rect><text x="490.25" y="893">'&#42;'</text></g></g><path d="M 769.5 889 h 10"></path><path d="M 779.5 889 h 0.0"></path></g><path d="M 779.5 889 h 20"></path><path d="M 50.0 173 a 10 10 0 0 1 10 10 v 726 a 10 10 0 0 0 10 10"></path><g class="non-terminal ">
<path d="M 70.0 919 h 285.25"></path><path d="M 494.25 919 h 285.25"></path><rect height="22" width="139.0" x="355.25" y="908"></rect><text x="424.75" y="923">CharWithAttrib</text></g><path d="M 779.5 919 a 10 10 0 0 0 10 -10 v -10 a 10 10 0 0 1 10 -10"></path><path d="M 50.0 173 a 10 10 0 0 1 10 10 v 756 a 10 10 0 0 0 10 10"></path><g class="non-terminal ">
<path d="M 70.0 949 h 319.25"></path><path d="M 460.25 949 h 319.25"></path><rect height="22" width="71.0" x="389.25" y="938"></rect><text x="424.75" y="953">Figure</text></g><path d="M 779.5 949 a 10 10 0 0 0 10 -10 v -40 a 10 10 0 0 1 10 -10"></path></g></g><path d="M 799.5 889 h 10"></path><path d="M 809.5 889 h 20 m 0 -10 v 20"></path></g></svg>