<svg class="railroad-diagram" height="873" viewBox="0 0 1207.0 873" width="1207.0" xmlns="http://www.w3.org/2000/svg" xmlns:xlink="http://www.w3.org/1999/xlink">
<g transform="translate(.5 .5)">
<style>/* <![CDATA[ */

    svg.railroad-diagram {
        background-color: hsl(30,20%,95%);
    }
    svg.railroad-diagram path {
        stroke-width: 2;
        stroke: black;
        fill: none;
    }
    svg.railroad-diagram text {
        font-size: 12px;
        text-anchor: middle;
        font-family: DejaVu Sans;
    }
    svg.railroad-diagram text.label {
        text-anchor:start;
    }
    svg.railroad-diagram text.comment {
        font-family: DejaVu Sans;
        font-size: 14px;
    }
    svg.railroad-diagram rect{
        stroke-width: 2;
        stroke: black;
        fill: rgb(210, 255, 210);
    }
    svg.railroad-diagram rect.group-box {
        stroke: gray;
        stroke-dasharray: 10 5;
        fill: none;
    }
    .terminal {
        font-family: DejaVu Sans;
    }
    svg.railroad-diagram g.altterminal rect {
        fill: rgb(251, 252, 207)
    }

/* ]]> */
</style><g>
<path d="M 20 163 v 20 m 0 -10 h 20"></path></g><path d="M 40 173 h 10"></path><g>
<path d="M 50 173 h 0.0"></path><path d="M 1157.0 802 h 0.0"></path><g>
<path d="M 50.0 173 h 0.0"></path><path d="M 1157.0 802 h 0.0"></path><path d="M 50.0 173 h 20"></path><g>
<path d="M 70.0 173 h 0.0"></path><path d="M 70.0 173 h 10"></path><g>
<path d="M 80.0 173 h 15.5"></path><path d="M 1111.5 173 h 15.5"></path><g class="terminal ">
<path d="M 95.5 173 h 0.0"></path><path d="M 141.0 173 h 0.0"></path><rect height="22" rx="10" ry="10" width="45.5" x="95.5" y="162"></rect><text x="118.25" y="177">'\'</text></g><path d="M 141.0 173 h 10"></path><path d="M 151.0 173 h 10"></path><g>
<path d="M 161.0 173 h 0.0"></path><path d="M 980.5 173 h 0.0"></path><rect class="group-box" height="404" rx="10" ry="10" width="819.5" x="161.0" y="46"></rect><g>
<path d="M 161.0 173 h 10.0"></path><path d="M 970.5 173 h 10.0"></path><g>
<path d="M 171.0 173 h 0.0"></path><path d="M 970.5 173 h 0.0"></path><path d="M 171.0 173 a 10 10 0 0 0 10 -10 v -99 a 10 10 0 0 1 10 -10 h 423.0"></path><path d="M 340.5 442 h 610.0 a 10 10 0 0 0 10 -10 v -249 a 10 10 0 0 1 10 -10"></path><path d="M 171.0 173 h 10"></path><g>
<path d="M 181.0 173 h 10.0"></path><path d="M 310.5 173 h 10.0"></path><path d="M 191.0 173 a 10 10 0 0 0 10 -10 v -10 a 10 10 0 0 1 10 -10"></path><g class="terminal ">
<path d="M 211.0 143 h 12.75"></path><path d="M 277.75 143 h 12.75"></path><rect height="22" rx="10" ry="10" width="54.0" x="223.75" y="132"></rect><text x="250.75" y="147">"qs"</text></g><path d="M 290.5 143 a 10 10 0 0 1 10 10 v 10 a 10 10 0 0 0 10 10"></path><path d="M 191.0 173 a 10 10 0 0 0 10 -10 v -40 a 10 10 0 0 1 10 -10"></path><g class="terminal ">
<path d="M 211.0 113 h 8.5"></path><path d="M 282.0 113 h 8.5"></path><rect height="22" rx="10" ry="10" width="62.5" x="219.5" y="102"></rect><text x="250.75" y="117">"qac"</text></g><path d="M 290.5 113 a 10 10 0 0 1 10 10 v 40 a 10 10 0 0 0 10 10"></path><path d="M 191.0 173 a 10 10 0 0 0 10 -10 v -70 a 10 10 0 0 1 10 -10"></path><g class="terminal ">
<path d="M 211.0 83 h 12.75"></path><path d="M 277.75 83 h 12.75"></path><rect height="22" rx="10" ry="10" width="54.0" x="223.75" y="72"></rect><text x="250.75" y="87">"vp"</text></g><path d="M 290.5 83 a 10 10 0 0 1 10 10 v 70 a 10 10 0 0 0 10 10"></path><path d="M 191.0 173 h 20"></path><g class="terminal ">
<path d="M 211.0 173 h 8.5"></path><path d="M 282.0 173 h 8.5"></path><rect height="22" rx="10" ry="10" width="62.5" x="219.5" y="162"></rect><text x="250.75" y="177">"add"</text></g><path d="M 290.5 173 h 20"></path><path d="M 191.0 173 a 10 10 0 0 1 10 10 v 10 a 10 10 0 0 0 10 10"></path><g class="terminal ">
<path d="M 211.0 203 h 0.0"></path><path d="M 290.5 203 h 0.0"></path><rect height="22" rx="10" ry="10" width="79.5" x="211.0" y="192"></rect><text x="250.75" y="207">"addpn"</text></g><path d="M 290.5 203 a 10 10 0 0 0 10 -10 v -10 a 10 10 0 0 1 10 -10"></path><path d="M 191.0 173 a 10 10 0 0 1 10 10 v 40 a 10 10 0 0 0 10 10"></path><g class="terminal ">
<path d="M 211.0 233 h 12.75"></path><path d="M 277.75 233 h 12.75"></path><rect height="22" rx="10" ry="10" width="54.0" x="223.75" y="222"></rect><text x="250.75" y="237">"bk"</text></g><path d="M 290.5 233 a 10 10 0 0 0 10 -10 v -40 a 10 10 0 0 1 10 -10"></path><path d="M 191.0 173 a 10 10 0 0 1 10 10 v 70 a 10 10 0 0 0 10 10"></path><g class="terminal ">
<path d="M 211.0 263 h 12.75"></path><path d="M 277.75 263 h 12.75"></path><rect height="22" rx="10" ry="10" width="54.0" x="223.75" y="252"></rect><text x="250.75" y="267">"dc"</text></g><path d="M 290.5 263 a 10 10 0 0 0 10 -10 v -70 a 10 10 0 0 1 10 -10"></path><path d="M 191.0 173 a 10 10 0 0 1 10 10 v 100 a 10 10 0 0 0 10 10"></path><g class="terminal ">
<path d="M 211.0 293 h 8.5"></path><path d="M 282.0 293 h 8.5"></path><rect height="22" rx="10" ry="10" width="62.5" x="219.5" y="282"></rect><text x="250.75" y="297">"efm"</text></g><path d="M 290.5 293 a 10 10 0 0 0 10 -10 v -100 a 10 10 0 0 1 10 -10"></path><path d="M 191.0 173 a 10 10 0 0 1 10 10 v 130 a 10 10 0 0 0 10 10"></path><g class="terminal ">
<path d="M 211.0 323 h 12.75"></path><path d="M 277.75 323 h 12.75"></path><rect height="22" rx="10" ry="10" width="54.0" x="223.75" y="312"></rect><text x="250.75" y="327">"fm"</text></g><path d="M 290.5 323 a 10 10 0 0 0 10 -10 v -130 a 10 10 0 0 1 10 -10"></path><path d="M 191.0 173 a 10 10 0 0 1 10 10 v 160 a 10 10 0 0 0 10 10"></path><g class="terminal ">
<path d="M 211.0 353 h 17.0"></path><path d="M 273.5 353 h 17.0"></path><rect height="22" rx="10" ry="10" width="45.5" x="228.0" y="342"></rect><text x="250.75" y="357">"k"</text></g><path d="M 290.5 353 a 10 10 0 0 0 10 -10 v -160 a 10 10 0 0 1 10 -10"></path><path d="M 191.0 173 a 10 10 0 0 1 10 10 v 190 a 10 10 0 0 0 10 10"></path><g class="terminal ">
<path d="M 211.0 383 h 12.75"></path><path d="M 277.75 383 h 12.75"></path><rect height="22" rx="10" ry="10" width="54.0" x="223.75" y="372"></rect><text x="250.75" y="387">"nd"</text></g><path d="M 290.5 383 a 10 10 0 0 0 10 -10 v -190 a 10 10 0 0 1 10 -10"></path><path d="M 191.0 173 a 10 10 0 0 1 10 10 v 220 a 10 10 0 0 0 10 10"></path><g class="terminal ">
<path d="M 211.0 413 h 8.5"></path><path d="M 282.0 413 h 8.5"></path><rect height="22" rx="10" ry="10" width="62.5" x="219.5" y="402"></rect><text x="250.75" y="417">"ndx"</text></g><path d="M 290.5 413 a 10 10 0 0 0 10 -10 v -220 a 10 10 0 0 1 10 -10"></path></g><path d="M 320.5 173 a 10 10 0 0 1 10 10 v 249 a 10 10 0 0 0 10 10"></path><path d="M 320.5 54 a 10 10 0 0 1 10 10 v 99 a 10 10 0 0 0 10 10"></path><g>
<path d="M 340.5 173 h 10.0"></path><path d="M 453.0 173 h 10.0"></path><path d="M 350.5 173 a 10 10 0 0 0 10 -10 v -10 a 10 10 0 0 1 10 -10"></path><g class="terminal ">
<path d="M 370.5 143 h 4.25"></path><path d="M 428.75 143 h 4.25"></path><rect height="22" rx="10" ry="10" width="54.0" x="374.75" y="132"></rect><text x="401.75" y="147">"pn"</text></g><path d="M 433.0 143 a 10 10 0 0 1 10 10 v 10 a 10 10 0 0 0 10 10"></path><path d="M 350.5 173 a 10 10 0 0 0 10 -10 v -40 a 10 10 0 0 1 10 -10"></path><g class="terminal ">
<path d="M 370.5 113 h 0.0"></path><path d="M 433.0 113 h 0.0"></path><rect height="22" rx="10" ry="10" width="62.5" x="370.5" y="102"></rect><text x="401.75" y="117">"png"</text></g><path d="M 433.0 113 a 10 10 0 0 1 10 10 v 40 a 10 10 0 0 0 10 10"></path><path d="M 350.5 173 a 10 10 0 0 0 10 -10 v -70 a 10 10 0 0 1 10 -10"></path><g class="terminal ">
<path d="M 370.5 83 h 0.0"></path><path d="M 433.0 83 h 0.0"></path><rect height="22" rx="10" ry="10" width="62.5" x="370.5" y="72"></rect><text x="401.75" y="87">"ord"</text></g><path d="M 433.0 83 a 10 10 0 0 1 10 10 v 70 a 10 10 0 0 0 10 10"></path><path d="M 350.5 173 h 20"></path><g class="terminal ">
<path d="M 370.5 173 h 0.0"></path><path d="M 433.0 173 h 0.0"></path><rect height="22" rx="10" ry="10" width="62.5" x="370.5" y="162"></rect><text x="401.75" y="177">"pro"</text></g><path d="M 433.0 173 h 20"></path><path d="M 350.5 173 a 10 10 0 0 1 10 10 v 10 a 10 10 0 0 0 10 10"></path><g class="terminal ">
<path d="M 370.5 203 h 4.25"></path><path d="M 428.75 203 h 4.25"></path><rect height="22" rx="10" ry="10" width="54.0" x="374.75" y="192"></rect><text x="401.75" y="207">"qt"</text></g><path d="M 433.0 203 a 10 10 0 0 0 10 -10 v -10 a 10 10 0 0 1 10 -10"></path><path d="M 350.5 173 a 10 10 0 0 1 10 10 v 40 a 10 10 0 0 0 10 10"></path><g class="terminal ">
<path d="M 370.5 233 h 4.25"></path><path d="M 428.75 233 h 4.25"></path><rect height="22" rx="10" ry="10" width="54.0" x="374.75" y="222"></rect><text x="401.75" y="237">"rq"</text></g><path d="M 433.0 233 a 10 10 0 0 0 10 -10 v -40 a 10 10 0 0 1 10 -10"></path><path d="M 350.5 173 a 10 10 0 0 1 10 10 v 70 a 10 10 0 0 0 10 10"></path><g class="terminal ">
<path d="M 370.5 263 h 0.0"></path><path d="M 433.0 263 h 0.0"></path><rect height="22" rx="10" ry="10" width="62.5" x="370.5" y="252"></rect><text x="401.75" y="267">"sig"</text></g><path d="M 433.0 263 a 10 10 0 0 0 10 -10 v -70 a 10 10 0 0 1 10 -10"></path><path d="M 350.5 173 a 10 10 0 0 1 10 10 v 100 a 10 10 0 0 0 10 10"></path><g class="terminal ">
<path d="M 370.5 293 h 0.0"></path><path d="M 433.0 293 h 0.0"></path><rect height="22" rx="10" ry="10" width="62.5" x="370.5" y="282"></rect><text x="401.75" y="297">"sls"</text></g><path d="M 433.0 293 a 10 10 0 0 0 10 -10 v -100 a 10 10 0 0 1 10 -10"></path><path d="M 350.5 173 a 10 10 0 0 1 10 10 v 130 a 10 10 0 0 0 10 10"></path><g class="terminal ">
<path d="M 370.5 323 h 4.25"></path><path d="M 428.75 323 h 4.25"></path><rect height="22" rx="10" ry="10" width="54.0" x="374.75" y="312"></rect><text x="401.75" y="327">"tl"</text></g><path d="M 433.0 323 a 10 10 0 0 0 10 -10 v -130 a 10 10 0 0 1 10 -10"></path><path d="M 350.5 173 a 10 10 0 0 1 10 10 v 160 a 10 10 0 0 0 10 10"></path><g class="terminal ">
<path d="M 370.5 353 h 4.25"></path><path d="M 428.75 353 h 4.25"></path><rect height="22" rx="10" ry="10" width="54.0" x="374.75" y="342"></rect><text x="401.75" y="357">"wg"</text></g><path d="M 433.0 353 a 10 10 0 0 0 10 -10 v -160 a 10 10 0 0 1 10 -10"></path><path d="M 350.5 173 a 10 10 0 0 1 10 10 v 190 a 10 10 0 0 0 10 10"></path><g class="terminal ">
<path d="M 370.5 383 h 4.25"></path><path d="M 428.75 383 h 4.25"></path><rect height="22" rx="10" ry="10" width="54.0" x="374.75" y="372"></rect><text x="401.75" y="387">"wh"</text></g><path d="M 433.0 383 a 10 10 0 0 0 10 -10 v -190 a 10 10 0 0 1 10 -10"></path><path d="M 350.5 173 a 10 10 0 0 1 10 10 v 220 a 10 10 0 0 0 10 10"></path><g class="terminal ">
<path d="M 370.5 413 h 4.25"></path><path d="M 428.75 413 h 4.25"></path><rect height="22" rx="10" ry="10" width="54.0" x="374.75" y="402"></rect><text x="401.75" y="417">"wa"</text></g><path d="M 433.0 413 a 10 10 0 0 0 10 -10 v -220 a 10 10 0 0 1 10 -10"></path></g><path d="M 463.0 173 a 10 10 0 0 1 10 10 v 249 a 10 10 0 0 0 10 10"></path><path d="M 463.0 54 a 10 10 0 0 1 10 10 v 99 a 10 10 0 0 0 10 10"></path><g>
<path d="M 483.0 173 h 10.0"></path><path d="M 604.0 173 h 10.0"></path><path d="M 493.0 173 a 10 10 0 0 0 10 -10 v -10 a 10 10 0 0 1 10 -10"></path><g class="terminal ">
<path d="M 513.0 143 h 8.5"></path><path d="M 575.5 143 h 8.5"></path><rect height="22" rx="10" ry="10" width="54.0" x="521.5" y="132"></rect><text x="548.5" y="147">"no"</text></g><path d="M 584.0 143 a 10 10 0 0 1 10 10 v 10 a 10 10 0 0 0 10 10"></path><path d="M 493.0 173 a 10 10 0 0 0 10 -10 v -40 a 10 10 0 0 1 10 -10"></path><g class="terminal ">
<path d="M 513.0 113 h 4.25"></path><path d="M 579.75 113 h 4.25"></path><rect height="22" rx="10" ry="10" width="62.5" x="517.25" y="102"></rect><text x="548.5" y="117">"jmp"</text></g><path d="M 584.0 113 a 10 10 0 0 1 10 10 v 40 a 10 10 0 0 0 10 10"></path><path d="M 493.0 173 a 10 10 0 0 0 10 -10 v -70 a 10 10 0 0 1 10 -10"></path><g class="terminal ">
<path d="M 513.0 83 h 8.5"></path><path d="M 575.5 83 h 8.5"></path><rect height="22" rx="10" ry="10" width="54.0" x="521.5" y="72"></rect><text x="548.5" y="87">"wj"</text></g><path d="M 584.0 83 a 10 10 0 0 1 10 10 v 70 a 10 10 0 0 0 10 10"></path><path d="M 493.0 173 h 20"></path><g class="terminal ">
<path d="M 513.0 173 h 8.5"></path><path d="M 575.5 173 h 8.5"></path><rect height="22" rx="10" ry="10" width="54.0" x="521.5" y="162"></rect><text x="548.5" y="177">"it"</text></g><path d="M 584.0 173 h 20"></path><path d="M 493.0 173 a 10 10 0 0 1 10 10 v 10 a 10 10 0 0 0 10 10"></path><g class="terminal ">
<path d="M 513.0 203 h 0.0"></path><path d="M 584.0 203 h 0.0"></path><rect height="22" rx="10" ry="10" width="71.0" x="513.0" y="192"></rect><text x="548.5" y="207">"bdit"</text></g><path d="M 584.0 203 a 10 10 0 0 0 10 -10 v -10 a 10 10 0 0 1 10 -10"></path><path d="M 493.0 173 a 10 10 0 0 1 10 10 v 40 a 10 10 0 0 0 10 10"></path><g class="terminal ">
<path d="M 513.0 233 h 8.5"></path><path d="M 575.5 233 h 8.5"></path><rect height="22" rx="10" ry="10" width="54.0" x="521.5" y="222"></rect><text x="548.5" y="237">"bd"</text></g><path d="M 584.0 233 a 10 10 0 0 0 10 -10 v -40 a 10 10 0 0 1 10 -10"></path><path d="M 493.0 173 a 10 10 0 0 1 10 10 v 70 a 10 10 0 0 0 10 10"></path><g class="terminal ">
<path d="M 513.0 263 h 8.5"></path><path d="M 575.5 263 h 8.5"></path><rect height="22" rx="10" ry="10" width="54.0" x="521.5" y="252"></rect><text x="548.5" y="267">"em"</text></g><path d="M 584.0 263 a 10 10 0 0 0 10 -10 v -70 a 10 10 0 0 1 10 -10"></path><path d="M 493.0 173 a 10 10 0 0 1 10 10 v 100 a 10 10 0 0 0 10 10"></path><g class="terminal ">
<path d="M 513.0 293 h 8.5"></path><path d="M 575.5 293 h 8.5"></path><rect height="22" rx="10" ry="10" width="54.0" x="521.5" y="282"></rect><text x="548.5" y="297">"sc"</text></g><path d="M 584.0 293 a 10 10 0 0 0 10 -10 v -100 a 10 10 0 0 1 10 -10"></path><path d="M 493.0 173 a 10 10 0 0 1 10 10 v 130 a 10 10 0 0 0 10 10"></path><g class="terminal ">
<path d="M 513.0 323 h 4.25"></path><path d="M 579.75 323 h 4.25"></path><rect height="22" rx="10" ry="10" width="62.5" x="517.25" y="312"></rect><text x="548.5" y="327">"sup"</text></g><path d="M 584.0 323 a 10 10 0 0 0 10 -10 v -130 a 10 10 0 0 1 10 -10"></path><path d="M 493.0 173 a 10 10 0 0 1 10 10 v 160 a 10 10 0 0 0 10 10"></path><g class="terminal ">
<path d="M 513.0 353 h 12.75"></path><path d="M 571.25 353 h 12.75"></path><rect height="22" rx="10" ry="10" width="45.5" x="525.75" y="342"></rect><text x="548.5" y="357">"w"</text></g><path d="M 584.0 353 a 10 10 0 0 0 10 -10 v -160 a 10 10 0 0 1 10 -10"></path><path d="M 493.0 173 a 10 10 0 0 1 10 10 v 190 a 10 10 0 0 0 10 10"></path><g class="terminal ">
<path d="M 513.0 383 h 8.5"></path><path d="M 575.5 383 h 8.5"></path><rect height="22" rx="10" ry="10" width="54.0" x="521.5" y="372"></rect><text x="548.5" y="387">"rb"</text></g><path d="M 584.0 383 a 10 10 0 0 0 10 -10 v -190 a 10 10 0 0 1 10 -10"></path><path d="M 493.0 173 a 10 10 0 0 1 10 10 v 220 a 10 10 0 0 0 10 10"></path><g class="terminal ">
<path d="M 513.0 413 h 4.25"></path><path d="M 579.75 413 h 4.25"></path><rect height="22" rx="10" ry="10" width="62.5" x="517.25" y="402"></rect><text x="548.5" y="417">"jmp"</text></g><path d="M 584.0 413 a 10 10 0 0 0 10 -10 v -220 a 10 10 0 0 1 10 -10"></path></g><path d="M 614.0 173 a 10 10 0 0 1 10 10 v 249 a 10 10 0 0 0 10 10"></path><path d="M 614.0 54 a 10 10 0 0 1 10 10 v 99 a 10 10 0 0 0 10 10"></path><g>
<path d="M 634.0 173 h 10.0"></path><path d="M 950.5 173 h 10.0"></path><path d="M 644.0 173 h 20"></path><g class="non-terminal ">
<path d="M 664.0 173 h 0.0"></path><path d="M 930.5 173 h 0.0"></path><rect height="22" width="266.5" x="664.0" y="162"></rect><text x="797.25" y="177">FullCharExtra.char.style.enum</text></g><path d="M 930.5 173 h 20"></path></g><path d="M 960.5 173 h 10"></path></g></g><g class="non-terminal ">
<path d="M 161.0 38 h 0.0"></path><path d="M 178.0 38 h 0.0"></path><text class="comment" x="169.5" y="43">➋</text></g></g><path d="M 980.5 173 h 10"></path><path d="M 990.5 173 h 10"></path><g>
<path d="M 1000.5 173 h 0.0"></path><path d="M 1111.5 173 h 0.0"></path><path d="M 1000.5 173 h 20"></path><g class="terminal ">
<path d="M 1020.5 173 h 12.75"></path><path d="M 1078.75 173 h 12.75"></path><rect height="22" rx="10" ry="10" width="45.5" x="1033.25" y="162"></rect><text x="1056.0" y="177">' '</text></g><path d="M 1091.5 173 h 20"></path><path d="M 1000.5 173 a 10 10 0 0 1 10 10 v 10 a 10 10 0 0 0 10 10"></path><g class="terminal altterminal">
<path d="M 1020.5 203 h 0.0"></path><path d="M 1091.5 203 h 0.0"></path><rect height="22" rx="10" ry="10" width="71.0" x="1020.5" y="192"></rect><text x="1056.0" y="207">TAGEND</text></g><path d="M 1091.5 203 a 10 10 0 0 0 10 -10 v -10 a 10 10 0 0 1 10 -10"></path></g></g><path d="M 1127.0 173 a 10 10 0 0 1 10 10 v 265 a 10 10 0 0 1 -10 10 h -1047.0 a 10 10 0 0 0 -10 10 v 19 a 10 10 0 0 0 10 10"></path><g>
<path d="M 80.0 497 h 10.0"></path><path d="M 1117.0 497 h 10.0"></path><path d="M 90.0 497 h 20"></path><g>
<path d="M 110.0 497 h 0.0"></path><path d="M 1097.0 497 h 0.0"></path><g>
<path d="M 110.0 497 h 0.0"></path><path d="M 451.0 497 h 0.0"></path><path d="M 110.0 497 h 10"></path><g>
<path d="M 120.0 497 h 0.0"></path><path d="M 441.0 497 h 0.0"></path><path d="M 120.0 497 h 20"></path><g>
<path d="M 140.0 497 h 0.0"></path><path d="M 421.0 497 h 0.0"></path><g class="terminal ">
<path d="M 140.0 497 h 0.0"></path><path d="M 270.5 497 h 0.0"></path><rect height="22" rx="10" ry="10" width="130.5" x="140.0" y="486"></rect><text x="205.25" y="501">TEXTNOTATTRIB</text></g><path d="M 270.5 497 h 10"></path><path d="M 280.5 497 h 10"></path><g class="terminal ">
<path d="M 290.5 497 h 0.0"></path><path d="M 421.0 497 h 0.0"></path><rect height="22" rx="10" ry="10" width="130.5" x="290.5" y="486"></rect><text x="355.75" y="501">ATTRIBTEXTEND</text></g></g><path d="M 421.0 497 h 20"></path><path d="M 120.0 497 a 10 10 0 0 1 10 10 v 10 a 10 10 0 0 0 10 10"></path><g class="non-terminal ">
<path d="M 140.0 527 h 92.25"></path><path d="M 328.75 527 h 92.25"></path><rect height="22" width="96.5" x="232.25" y="516"></rect><text x="280.5" y="531">CharEmbed</text></g><path d="M 421.0 527 a 10 10 0 0 0 10 -10 v -10 a 10 10 0 0 1 10 -10"></path><path d="M 120.0 497 a 10 10 0 0 1 10 10 v 40 a 10 10 0 0 0 10 10"></path><g class="non-terminal ">
<path d="M 140.0 557 h 92.25"></path><path d="M 328.75 557 h 92.25"></path><rect height="22" width="96.5" x="232.25" y="546"></rect><text x="280.5" y="561">Milestone</text></g><path d="M 421.0 557 a 10 10 0 0 0 10 -10 v -40 a 10 10 0 0 1 10 -10"></path><path d="M 120.0 497 a 10 10 0 0 1 10 10 v 70 a 10 10 0 0 0 10 10"></path><g class="non-terminal ">
<path d="M 140.0 587 h 96.5"></path><path d="M 324.5 587 h 96.5"></path><rect height="22" width="88.0" x="236.5" y="576"></rect><text x="280.5" y="591">Footnote</text></g><path d="M 421.0 587 a 10 10 0 0 0 10 -10 v -70 a 10 10 0 0 1 10 -10"></path><path d="M 120.0 497 a 10 10 0 0 1 10 10 v 100 a 10 10 0 0 0 10 10"></path><g class="non-terminal ">
<path d="M 140.0 617 h 71.0"></path><path d="M 350.0 617 h 71.0"></path><rect height="22" width="139.0" x="211.0" y="606"></rect><text x="280.5" y="621">CrossReference</text></g><path d="M 421.0 617 a 10 10 0 0 0 10 -10 v -100 a 10 10 0 0 1 10 -10"></path><path d="M 120.0 497 a 10 10 0 0 1 10 10 v 130 a 10 10 0 0 0 10 10"></path><g>
<path d="M 140.0 647 h 113.5"></path><path d="M 307.5 647 h 113.5"></path><g class="terminal ">
<path d="M 253.5 647 h 0.0"></path><path d="M 307.5 647 h 0.0"></path><rect height="22" rx="10" ry="10" width="54.0" x="253.5" y="636"></rect><text x="280.5" y="651">'//'</text></g></g><path d="M 421.0 647 a 10 10 0 0 0 10 -10 v -130 a 10 10 0 0 1 10 -10"></path></g><path d="M 441.0 497 h 10"></path><path d="M 120.0 497 a 10 10 0 0 0 -10 10 v 159 a 10 10 0 0 0 10 10"></path><g>
<path d="M 120.0 676 h 321.0"></path></g><path d="M 441.0 676 a 10 10 0 0 0 10 -10 v -159 a 10 10 0 0 0 -10 -10"></path></g><path d="M 451.0 497 h 10"></path><path d="M 461.0 497 h 10"></path><g>
<path d="M 471.0 497 h 0.0"></path><path d="M 1097.0 497 h 0.0"></path><path d="M 471.0 497 h 20"></path><g>
<path d="M 491.0 497 h 586.0"></path></g><path d="M 1077.0 497 h 20"></path><path d="M 471.0 497 a 10 10 0 0 1 10 10 v 9 a 10 10 0 0 0 10 10"></path><g>
<path d="M 491.0 526 h 0.0"></path><path d="M 1077.0 526 h 0.0"></path><g>
<path d="M 491.0 526 h 0.0"></path><path d="M 585.0 526 h 0.0"></path><path d="M 491.0 526 h 20"></path><g class="terminal ">
<path d="M 511.0 526 h 4.25"></path><path d="M 560.75 526 h 4.25"></path><rect height="22" rx="10" ry="10" width="45.5" x="515.25" y="515"></rect><text x="538.0" y="530">'|'</text></g><path d="M 565.0 526 h 20"></path><path d="M 491.0 526 a 10 10 0 0 1 10 10 v 10 a 10 10 0 0 0 10 10"></path><g class="terminal altterminal">
<path d="M 511.0 556 h 0.0"></path><path d="M 565.0 556 h 0.0"></path><rect height="22" rx="10" ry="10" width="54.0" x="511.0" y="545"></rect><text x="538.0" y="560">PIPE</text></g><path d="M 565.0 556 a 10 10 0 0 0 10 -10 v -10 a 10 10 0 0 1 10 -10"></path></g><path d="M 585.0 526 h 10"></path><path d="M 595.0 526 h 10"></path><g>
<path d="M 605.0 526 h 0.0"></path><path d="M 1077.0 526 h 0.0"></path><path d="M 605.0 526 h 10"></path><g>
<path d="M 615.0 526 h 0.0"></path><path d="M 1067.0 526 h 0.0"></path><g>
<path d="M 615.0 526 h 0.0"></path><path d="M 1067.0 526 h 0.0"></path><path d="M 615.0 526 h 20"></path><g class="terminal ">
<path d="M 635.0 526 h 157.75"></path><path d="M 889.25 526 h 157.75"></path><rect height="22" rx="10" ry="10" width="96.5" x="792.75" y="515"></rect><text x="841.0" y="530">ATTRIBALL</text></g><path d="M 1047.0 526 h 20"></path><path d="M 615.0 526 a 10 10 0 0 1 10 10 v 10 a 10 10 0 0 0 10 10"></path><g>
<path d="M 635.0 556 h 0.0"></path><path d="M 1047.0 556 h 0.0"></path><g class="terminal ">
<path d="M 635.0 556 h 0.0"></path><path d="M 740.0 556 h 0.0"></path><rect height="22" rx="10" ry="10" width="105.0" x="635.0" y="545"></rect><text x="687.5" y="560">ATTRIBNAME</text></g><path d="M 740.0 556 h 10"></path><path d="M 750.0 556 h 10"></path><g class="terminal ">
<path d="M 760.0 556 h 0.0"></path><path d="M 814.0 556 h 0.0"></path><rect height="22" rx="10" ry="10" width="54.0" x="760.0" y="545"></rect><text x="787.0" y="560">'="'</text></g><path d="M 814.0 556 h 10"></path><path d="M 824.0 556 h 10"></path><g class="terminal ">
<path d="M 834.0 556 h 0.0"></path><path d="M 939.0 556 h 0.0"></path><rect height="22" rx="10" ry="10" width="105.0" x="834.0" y="545"></rect><text x="886.5" y="560">ATTRIBTEXT</text></g><path d="M 939.0 556 h 10"></path><path d="M 949.0 556 h 10"></path><g class="terminal ">
<path d="M 959.0 556 h 0.0"></path><path d="M 1047.0 556 h 0.0"></path><rect height="22" rx="10" ry="10" width="88.0" x="959.0" y="545"></rect><text x="1003.0" y="560">/"${Hs}/</text></g></g><path d="M 1047.0 556 a 10 10 0 0 0 10 -10 v -10 a 10 10 0 0 1 10 -10"></path></g></g><path d="M 1067.0 526 h 10"></path><path d="M 615.0 526 a 10 10 0 0 0 -10 10 v 39 a 10 10 0 0 0 10 10"></path><g>
<path d="M 615.0 585 h 452.0"></path></g><path d="M 1067.0 585 a 10 10 0 0 0 10 -10 v -39 a 10 10 0 0 0 -10 -10"></path></g></g><path d="M 1077.0 526 a 10 10 0 0 0 10 -10 v -9 a 10 10 0 0 1 10 -10"></path></g></g><path d="M 1097.0 497 h 20"></path><path d="M 90.0 497 a 10 10 0 0 1 10 10 v 188 a 10 10 0 0 0 10 10"></path><g>
<path d="M 110.0 705 h 200.5"></path><path d="M 896.5 705 h 200.5"></path><g>
<path d="M 310.5 705 h 0.0"></path><path d="M 404.5 705 h 0.0"></path><path d="M 310.5 705 h 20"></path><g class="terminal ">
<path d="M 330.5 705 h 4.25"></path><path d="M 380.25 705 h 4.25"></path><rect height="22" rx="10" ry="10" width="45.5" x="334.75" y="694"></rect><text x="357.5" y="709">'|'</text></g><path d="M 384.5 705 h 20"></path><path d="M 310.5 705 a 10 10 0 0 1 10 10 v 10 a 10 10 0 0 0 10 10"></path><g class="terminal altterminal">
<path d="M 330.5 735 h 0.0"></path><path d="M 384.5 735 h 0.0"></path><rect height="22" rx="10" ry="10" width="54.0" x="330.5" y="724"></rect><text x="357.5" y="739">PIPE</text></g><path d="M 384.5 735 a 10 10 0 0 0 10 -10 v -10 a 10 10 0 0 1 10 -10"></path></g><path d="M 404.5 705 h 10"></path><path d="M 414.5 705 h 10"></path><g>
<path d="M 424.5 705 h 0.0"></path><path d="M 896.5 705 h 0.0"></path><path d="M 424.5 705 h 10"></path><g>
<path d="M 434.5 705 h 0.0"></path><path d="M 886.5 705 h 0.0"></path><g>
<path d="M 434.5 705 h 0.0"></path><path d="M 886.5 705 h 0.0"></path><path d="M 434.5 705 h 20"></path><g class="terminal ">
<path d="M 454.5 705 h 157.75"></path><path d="M 708.75 705 h 157.75"></path><rect height="22" rx="10" ry="10" width="96.5" x="612.25" y="694"></rect><text x="660.5" y="709">ATTRIBALL</text></g><path d="M 866.5 705 h 20"></path><path d="M 434.5 705 a 10 10 0 0 1 10 10 v 10 a 10 10 0 0 0 10 10"></path><g>
<path d="M 454.5 735 h 0.0"></path><path d="M 866.5 735 h 0.0"></path><g class="terminal ">
<path d="M 454.5 735 h 0.0"></path><path d="M 559.5 735 h 0.0"></path><rect height="22" rx="10" ry="10" width="105.0" x="454.5" y="724"></rect><text x="507.0" y="739">ATTRIBNAME</text></g><path d="M 559.5 735 h 10"></path><path d="M 569.5 735 h 10"></path><g class="terminal ">
<path d="M 579.5 735 h 0.0"></path><path d="M 633.5 735 h 0.0"></path><rect height="22" rx="10" ry="10" width="54.0" x="579.5" y="724"></rect><text x="606.5" y="739">'="'</text></g><path d="M 633.5 735 h 10"></path><path d="M 643.5 735 h 10"></path><g class="terminal ">
<path d="M 653.5 735 h 0.0"></path><path d="M 758.5 735 h 0.0"></path><rect height="22" rx="10" ry="10" width="105.0" x="653.5" y="724"></rect><text x="706.0" y="739">ATTRIBTEXT</text></g><path d="M 758.5 735 h 10"></path><path d="M 768.5 735 h 10"></path><g class="terminal ">
<path d="M 778.5 735 h 0.0"></path><path d="M 866.5 735 h 0.0"></path><rect height="22" rx="10" ry="10" width="88.0" x="778.5" y="724"></rect><text x="822.5" y="739">/"${Hs}/</text></g></g><path d="M 866.5 735 a 10 10 0 0 0 10 -10 v -10 a 10 10 0 0 1 10 -10"></path></g></g><path d="M 886.5 705 h 10"></path><path d="M 434.5 705 a 10 10 0 0 0 -10 10 v 39 a 10 10 0 0 0 10 10"></path><g>
<path d="M 434.5 764 h 452.0"></path></g><path d="M 886.5 764 a 10 10 0 0 0 10 -10 v -39 a 10 10 0 0 0 -10 -10"></path></g></g><path d="M 1097.0 705 a 10 10 0 0 0 10 -10 v -188 a 10 10 0 0 1 10 -10"></path></g><path d="M 1127.0 497 a 10 10 0 0 1 10 10 v 265 a 10 10 0 0 1 -10 10 h -1047.0 a 10 10 0 0 0 -10 10 v 0 a 10 10 0 0 0 10 10"></path><g>
<path d="M 80.0 802 h 431.0"></path><path d="M 696.0 802 h 431.0"></path><g class="terminal ">
<path d="M 511.0 802 h 0.0"></path><path d="M 565.0 802 h 0.0"></path><rect height="22" rx="10" ry="10" width="54.0" x="511.0" y="791"></rect><text x="538.0" y="806">'\\'</text></g><path d="M 565.0 802 h 10"></path><path d="M 575.0 802 h 10"></path><g class="terminal ">
<path d="M 585.0 802 h 0.0"></path><path d="M 630.5 802 h 0.0"></path><rect height="22" rx="10" ry="10" width="45.5" x="585.0" y="791"></rect><text x="607.75" y="806">⇐ ➋</text></g><path d="M 630.5 802 h 10"></path><path d="M 640.5 802 h 10"></path><g class="terminal ">
<path d="M 650.5 802 h 0.0"></path><path d="M 696.0 802 h 0.0"></path><rect height="22" rx="10" ry="10" width="45.5" x="650.5" y="791"></rect><text x="673.25" y="806">'&#42;'</text></g></g><path d="M 1127.0 802 h 10"></path><path d="M 1137.0 802 h 0.0"></path></g><path d="M 1137.0 802 h 20"></path><path d="M 50.0 173 a 10 10 0 0 1 10 10 v 639 a 10 10 0 0 0 10 10"></path><g class="non-terminal ">
<path d="M 70.0 832 h 498.0"></path><path d="M 639.0 832 h 498.0"></path><rect height="22" width="71.0" x="568.0" y="821"></rect><text x="603.5" y="836">Figure</text></g><path d="M 1137.0 832 a 10 10 0 0 0 10 -10 v -10 a 10 10 0 0 1 10 -10"></path></g></g><path d="M 1157.0 802 h 10"></path><path d="M 1167.0 802 h 20 m 0 -10 v 20"></path></g></svg>