<svg class="railroad-diagram" height="183" viewBox="0 0 1770.5 183" width="1770.5" xmlns="http://www.w3.org/2000/svg" xmlns:xlink="http://www.w3.org/1999/xlink">
<g transform="translate(.5 .5)">
<style>/* <![CDATA[ */

    svg.railroad-diagram {
        background-color: hsl(30,20%,95%);
    }
    svg.railroad-diagram path {
        stroke-width: 2;
        stroke: black;
        fill: none;
    }
    svg.railroad-diagram text {
        font-size: 12px;
        text-anchor: middle;
        font-family: DejaVu Sans;
    }
    svg.railroad-diagram text.label {
        text-anchor:start;
    }
    svg.railroad-diagram text.comment {
        font-family: DejaVu Sans;
        font-size: 14px;
    }
    svg.railroad-diagram rect{
        stroke-width: 2;
        stroke: black;
        fill: rgb(210, 255, 210);
    }
    svg.railroad-diagram rect.group-box {
        stroke: gray;
        stroke-dasharray: 10 5;
        fill: none;
    }
    .terminal {
        font-family: DejaVu Sans;
    }
    svg.railroad-diagram g.altterminal rect {
        fill: rgb(251, 252, 207)
    }

/* ]]> */
</style><g>
<path d="M 20 55 v 20 m 0 -10 h 20"></path></g><path d="M 40 65 h 10"></path><g>
<path d="M 50 65 h 0.0"></path><path d="M 1720.5 65 h 0.0"></path><g class="terminal ">
<path d="M 50.0 65 h 0.0"></path><path d="M 95.5 65 h 0.0"></path><rect height="22" rx="10" ry="10" width="45.5" x="50.0" y="54"></rect><text x="72.75" y="69">'\'</text></g><path d="M 95.5 65 h 10"></path><path d="M 105.5 65 h 10"></path><g>
<path d="M 115.5 65 h 0.0"></path><path d="M 238.0 65 h 0.0"></path><rect class="group-box" height="118" rx="10" ry="10" width="122.5" x="115.5" y="36"></rect><g>
<path d="M 115.5 65 h 10.0"></path><path d="M 228.0 65 h 10.0"></path><g>
<path d="M 125.5 65 h 0.0"></path><path d="M 228.0 65 h 0.0"></path><path d="M 125.5 65 h 20"></path><g class="terminal ">
<path d="M 145.5 65 h 8.5"></path><path d="M 199.5 65 h 8.5"></path><rect height="22" rx="10" ry="10" width="45.5" x="154.0" y="54"></rect><text x="176.75" y="69">"w"</text></g><path d="M 208.0 65 h 20"></path><path d="M 125.5 65 a 10 10 0 0 1 10 10 v 10 a 10 10 0 0 0 10 10"></path><g class="terminal ">
<path d="M 145.5 95 h 4.25"></path><path d="M 203.75 95 h 4.25"></path><rect height="22" rx="10" ry="10" width="54.0" x="149.75" y="84"></rect><text x="176.75" y="99">"rb"</text></g><path d="M 208.0 95 a 10 10 0 0 0 10 -10 v -10 a 10 10 0 0 1 10 -10"></path><path d="M 125.5 65 a 10 10 0 0 1 10 10 v 40 a 10 10 0 0 0 10 10"></path><g class="terminal ">
<path d="M 145.5 125 h 0.0"></path><path d="M 208.0 125 h 0.0"></path><rect height="22" rx="10" ry="10" width="62.5" x="145.5" y="114"></rect><text x="176.75" y="129">"jmp"</text></g><path d="M 208.0 125 a 10 10 0 0 0 10 -10 v -40 a 10 10 0 0 1 10 -10"></path></g></g><g class="non-terminal ">
<path d="M 115.5 28 h 0.0"></path><path d="M 132.5 28 h 0.0"></path><text class="comment" x="124.0" y="33">➋</text></g></g><path d="M 238.0 65 h 10"></path><path d="M 248.0 65 h 10"></path><g>
<path d="M 258.0 65 h 0.0"></path><path d="M 369.0 65 h 0.0"></path><path d="M 258.0 65 h 20"></path><g class="terminal ">
<path d="M 278.0 65 h 12.75"></path><path d="M 336.25 65 h 12.75"></path><rect height="22" rx="10" ry="10" width="45.5" x="290.75" y="54"></rect><text x="313.5" y="69">' '</text></g><path d="M 349.0 65 h 20"></path><path d="M 258.0 65 a 10 10 0 0 1 10 10 v 10 a 10 10 0 0 0 10 10"></path><g class="terminal altterminal">
<path d="M 278.0 95 h 0.0"></path><path d="M 349.0 95 h 0.0"></path><rect height="22" rx="10" ry="10" width="71.0" x="278.0" y="84"></rect><text x="313.5" y="99">TAGEND</text></g><path d="M 349.0 95 a 10 10 0 0 0 10 -10 v -10 a 10 10 0 0 1 10 -10"></path></g><path d="M 369.0 65 h 10"></path><path d="M 379.0 65 h 10"></path><g>
<path d="M 389.0 65 h 0.0"></path><path d="M 542.5 65 h 0.0"></path><path d="M 389.0 65 h 20"></path><g>
<path d="M 409.0 65 h 113.5"></path></g><path d="M 522.5 65 h 20"></path><path d="M 389.0 65 a 10 10 0 0 1 10 10 v 0 a 10 10 0 0 0 10 10"></path><g class="non-terminal ">
<path d="M 409.0 85 h 0.0"></path><path d="M 522.5 85 h 0.0"></path><rect height="22" width="113.5" x="409.0" y="74"></rect><text x="465.75" y="89">char.closed</text></g><path d="M 522.5 85 a 10 10 0 0 0 10 -10 v 0 a 10 10 0 0 1 10 -10"></path></g><path d="M 542.5 65 h 10"></path><path d="M 552.5 65 h 10"></path><g>
<path d="M 562.5 65 h 0.0"></path><path d="M 793.0 65 h 0.0"></path><path d="M 562.5 65 a 10 10 0 0 0 10 -10 v -9 a 10 10 0 0 1 10 -10"></path><g>
<path d="M 582.5 36 h 190.5"></path></g><path d="M 773.0 36 a 10 10 0 0 1 10 10 v 9 a 10 10 0 0 0 10 10"></path><path d="M 562.5 65 h 20"></path><g>
<path d="M 582.5 65 h 0.0"></path><path d="M 773.0 65 h 0.0"></path><path d="M 582.5 65 h 10"></path><g>
<path d="M 592.5 65 h 0.0"></path><path d="M 763.0 65 h 0.0"></path><g>
<path d="M 592.5 65 h 0.0"></path><path d="M 763.0 65 h 0.0"></path><path d="M 592.5 65 h 20"></path><g class="non-terminal ">
<path d="M 612.5 65 h 17.0"></path><path d="M 726.0 65 h 17.0"></path><rect height="22" width="96.5" x="629.5" y="54"></rect><text x="677.75" y="69">CharEmbed</text></g><path d="M 743.0 65 h 20"></path><path d="M 592.5 65 a 10 10 0 0 1 10 10 v 10 a 10 10 0 0 0 10 10"></path><g>
<path d="M 612.5 95 h 0.0"></path><path d="M 743.0 95 h 0.0"></path><g class="terminal ">
<path d="M 612.5 95 h 0.0"></path><path d="M 743.0 95 h 0.0"></path><rect height="22" rx="10" ry="10" width="130.5" x="612.5" y="84"></rect><text x="677.75" y="99">TEXTNOTATTRIB</text></g></g><path d="M 743.0 95 a 10 10 0 0 0 10 -10 v -10 a 10 10 0 0 1 10 -10"></path></g></g><path d="M 763.0 65 h 10"></path><path d="M 592.5 65 a 10 10 0 0 0 -10 10 v 39 a 10 10 0 0 0 10 10"></path><g>
<path d="M 592.5 124 h 170.5"></path></g><path d="M 763.0 124 a 10 10 0 0 0 10 -10 v -39 a 10 10 0 0 0 -10 -10"></path></g><path d="M 773.0 65 h 20"></path></g><path d="M 793.0 65 h 10"></path><path d="M 803.0 65 h 10"></path><g>
<path d="M 813.0 65 h 0.0"></path><path d="M 1524.0 65 h 0.0"></path><path d="M 813.0 65 h 20"></path><g>
<path d="M 833.0 65 h 671.0"></path></g><path d="M 1504.0 65 h 20"></path><path d="M 813.0 65 a 10 10 0 0 1 10 10 v 9 a 10 10 0 0 0 10 10"></path><g>
<path d="M 833.0 94 h 0.0"></path><path d="M 1504.0 94 h 0.0"></path><g>
<path d="M 833.0 94 h 0.0"></path><path d="M 927.0 94 h 0.0"></path><path d="M 833.0 94 h 20"></path><g class="terminal ">
<path d="M 853.0 94 h 4.25"></path><path d="M 902.75 94 h 4.25"></path><rect height="22" rx="10" ry="10" width="45.5" x="857.25" y="83"></rect><text x="880.0" y="98">'|'</text></g><path d="M 907.0 94 h 20"></path><path d="M 833.0 94 a 10 10 0 0 1 10 10 v 10 a 10 10 0 0 0 10 10"></path><g class="terminal altterminal">
<path d="M 853.0 124 h 0.0"></path><path d="M 907.0 124 h 0.0"></path><rect height="22" rx="10" ry="10" width="54.0" x="853.0" y="113"></rect><text x="880.0" y="128">PIPE</text></g><path d="M 907.0 124 a 10 10 0 0 0 10 -10 v -10 a 10 10 0 0 1 10 -10"></path></g><path d="M 927.0 94 h 10"></path><path d="M 937.0 94 h 10"></path><g>
<path d="M 947.0 94 h 0.0"></path><path d="M 1504.0 94 h 0.0"></path><path d="M 947.0 94 h 10"></path><g>
<path d="M 957.0 94 h 0.0"></path><path d="M 1494.0 94 h 0.0"></path><g>
<path d="M 957.0 94 h 0.0"></path><path d="M 1494.0 94 h 0.0"></path><path d="M 957.0 94 h 20"></path><g class="terminal ">
<path d="M 977.0 94 h 166.25"></path><path d="M 1307.75 94 h 166.25"></path><rect height="22" rx="10" ry="10" width="164.5" x="1143.25" y="83"></rect><text x="1225.5" y="98">/&#91;^\\\n=&#93;+(?=\\)/</text></g><path d="M 1474.0 94 h 20"></path><path d="M 957.0 94 a 10 10 0 0 1 10 10 v 10 a 10 10 0 0 0 10 10"></path><g>
<path d="M 977.0 124 h 0.0"></path><path d="M 1474.0 124 h 0.0"></path><g class="terminal ">
<path d="M 977.0 124 h 0.0"></path><path d="M 1082.0 124 h 0.0"></path><rect height="22" rx="10" ry="10" width="105.0" x="977.0" y="113"></rect><text x="1029.5" y="128">ATTRIBNAME</text></g><path d="M 1082.0 124 h 10"></path><path d="M 1092.0 124 h 10"></path><g class="terminal ">
<path d="M 1102.0 124 h 0.0"></path><path d="M 1156.0 124 h 0.0"></path><rect height="22" rx="10" ry="10" width="54.0" x="1102.0" y="113"></rect><text x="1129.0" y="128">'="'</text></g><path d="M 1156.0 124 h 10"></path><path d="M 1166.0 124 h 10"></path><g class="terminal ">
<path d="M 1176.0 124 h 0.0"></path><path d="M 1281.0 124 h 0.0"></path><rect height="22" rx="10" ry="10" width="105.0" x="1176.0" y="113"></rect><text x="1228.5" y="128">ATTRIBTEXT</text></g><path d="M 1281.0 124 h 10"></path><path d="M 1291.0 124 h 10"></path><g class="terminal ">
<path d="M 1301.0 124 h 0.0"></path><path d="M 1474.0 124 h 0.0"></path><rect height="22" rx="10" ry="10" width="173.0" x="1301.0" y="113"></rect><text x="1387.5" y="128">/"&#91;\u0009\u0020&#93;&#42;/</text></g></g><path d="M 1474.0 124 a 10 10 0 0 0 10 -10 v -10 a 10 10 0 0 1 10 -10"></path></g></g><path d="M 1494.0 94 h 10"></path><path d="M 957.0 94 a 10 10 0 0 0 -10 10 v 39 a 10 10 0 0 0 10 10"></path><g>
<path d="M 957.0 153 h 537.0"></path></g><path d="M 1494.0 153 a 10 10 0 0 0 10 -10 v -39 a 10 10 0 0 0 -10 -10"></path></g></g><path d="M 1504.0 94 a 10 10 0 0 0 10 -10 v -9 a 10 10 0 0 1 10 -10"></path></g><path d="M 1524.0 65 h 10"></path><path d="M 1534.0 65 h 10"></path><g class="terminal ">
<path d="M 1544.0 65 h 0.0"></path><path d="M 1589.5 65 h 0.0"></path><rect height="22" rx="10" ry="10" width="45.5" x="1544.0" y="54"></rect><text x="1566.75" y="69">'\'</text></g><path d="M 1589.5 65 h 10"></path><path d="M 1599.5 65 h 10"></path><g class="terminal ">
<path d="M 1609.5 65 h 0.0"></path><path d="M 1655.0 65 h 0.0"></path><rect height="22" rx="10" ry="10" width="45.5" x="1609.5" y="54"></rect><text x="1632.25" y="69">⇐ ➕</text></g><path d="M 1655.0 65 h 10"></path><path d="M 1665.0 65 h 10"></path><g class="terminal ">
<path d="M 1675.0 65 h 0.0"></path><path d="M 1720.5 65 h 0.0"></path><rect height="22" rx="10" ry="10" width="45.5" x="1675.0" y="54"></rect><text x="1697.75" y="69">'&#42;'</text></g></g><path d="M 1720.5 65 h 10"></path><path d="M 1730.5 65 h 20 m 0 -10 v 20"></path></g></svg>