<svg class="railroad-diagram" height="1283" viewBox="0 0 1529.0 1283" width="1529.0" xmlns="http://www.w3.org/2000/svg" xmlns:xlink="http://www.w3.org/1999/xlink">
<g transform="translate(.5 .5)">
<style>/* <![CDATA[ */

    svg.railroad-diagram {
        background-color: hsl(30,20%,95%);
    }
    svg.railroad-diagram path {
        stroke-width: 2;
        stroke: black;
        fill: none;
    }
    svg.railroad-diagram text {
        font-size: 12px;
        text-anchor: middle;
        font-family: DejaVu Sans;
    }
    svg.railroad-diagram text.label {
        text-anchor:start;
    }
    svg.railroad-diagram text.comment {
        font-family: DejaVu Sans;
        font-size: 14px;
    }
    svg.railroad-diagram rect{
        stroke-width: 2;
        stroke: black;
        fill: rgb(210, 255, 210);
    }
    svg.railroad-diagram rect.group-box {
        stroke: gray;
        stroke-dasharray: 10 5;
        fill: none;
    }
    .terminal {
        font-family: DejaVu Sans;
    }
    svg.railroad-diagram g.altterminal rect {
        fill: rgb(251, 252, 207)
    }

/* ]]> */
</style><g>
<path d="M 20 54 v 20 m 0 -10 h 20"></path></g><path d="M 40 64 h 10"></path><g>
<path d="M 50 64 h 0.0"></path><path d="M 1479.0 64 h 0.0"></path><g>
<path d="M 50.0 64 h 0.0"></path><path d="M 1479.0 64 h 0.0"></path><path d="M 50.0 64 h 20"></path><g>
<path d="M 70.0 64 h 0.0"></path><path d="M 1459.0 64 h 0.0"></path><g>
<path d="M 70.0 64 h 0.0"></path><g>
<path d="M 70.0 64 h 10.0"></path><path d="M 424.5 64 h 10.0"></path><g class="terminal ">
<path d="M 80.0 64 h 0.0"></path><path d="M 134.0 64 h 0.0"></path><rect height="22" rx="10" ry="10" width="54.0" x="80.0" y="53"></rect><text x="107.0" y="68">'\\'</text></g><path d="M 134.0 64 h 10"></path><path d="M 144.0 64 h 10"></path><g>
<path d="M 154.0 64 h 0.0"></path><path d="M 293.5 64 h 0.0"></path><rect class="group-box" height="1177" rx="10" ry="10" width="139.5" x="154.0" y="46"></rect><g>
<path d="M 154.0 64 h 10.0"></path><path d="M 283.5 64 h 10.0"></path><g>
<path d="M 164.0 64 h 0.0"></path><path d="M 283.5 64 h 0.0"></path><path d="M 164.0 64 h 20"></path><g>
<path d="M 184.0 64 h 79.5"></path></g><path d="M 263.5 64 h 20"></path><path d="M 164.0 64 a 10 10 0 0 1 10 10 v 0 a 10 10 0 0 0 10 10"></path><g>
<path d="M 184.0 84 h 17.0"></path><path d="M 246.5 84 h 17.0"></path><g class="terminal ">
<path d="M 201.0 84 h 0.0"></path><path d="M 246.5 84 h 0.0"></path><rect height="22" rx="10" ry="10" width="45.5" x="201.0" y="73"></rect><text x="223.75" y="88">'+'</text></g></g><path d="M 263.5 84 a 10 10 0 0 0 10 -10 v 0 a 10 10 0 0 1 10 -10"></path><path d="M 164.0 64 a 10 10 0 0 1 10 10 v 30 a 10 10 0 0 0 10 10"></path><g class="terminal ">
<path d="M 184.0 114 h 12.75"></path><path d="M 250.75 114 h 12.75"></path><rect height="22" rx="10" ry="10" width="54.0" x="196.75" y="103"></rect><text x="223.75" y="118">"vp"</text></g><path d="M 263.5 114 a 10 10 0 0 0 10 -10 v -30 a 10 10 0 0 1 10 -10"></path><path d="M 164.0 64 a 10 10 0 0 1 10 10 v 60 a 10 10 0 0 0 10 10"></path><g class="terminal ">
<path d="M 184.0 144 h 8.5"></path><path d="M 255.0 144 h 8.5"></path><rect height="22" rx="10" ry="10" width="62.5" x="192.5" y="133"></rect><text x="223.75" y="148">"qac"</text></g><path d="M 263.5 144 a 10 10 0 0 0 10 -10 v -60 a 10 10 0 0 1 10 -10"></path><path d="M 164.0 64 a 10 10 0 0 1 10 10 v 90 a 10 10 0 0 0 10 10"></path><g class="terminal ">
<path d="M 184.0 174 h 12.75"></path><path d="M 250.75 174 h 12.75"></path><rect height="22" rx="10" ry="10" width="54.0" x="196.75" y="163"></rect><text x="223.75" y="178">"qs"</text></g><path d="M 263.5 174 a 10 10 0 0 0 10 -10 v -90 a 10 10 0 0 1 10 -10"></path><path d="M 164.0 64 a 10 10 0 0 1 10 10 v 120 a 10 10 0 0 0 10 10"></path><g class="terminal ">
<path d="M 184.0 204 h 8.5"></path><path d="M 255.0 204 h 8.5"></path><rect height="22" rx="10" ry="10" width="62.5" x="192.5" y="193"></rect><text x="223.75" y="208">"add"</text></g><path d="M 263.5 204 a 10 10 0 0 0 10 -10 v -120 a 10 10 0 0 1 10 -10"></path><path d="M 164.0 64 a 10 10 0 0 1 10 10 v 150 a 10 10 0 0 0 10 10"></path><g class="terminal ">
<path d="M 184.0 234 h 0.0"></path><path d="M 263.5 234 h 0.0"></path><rect height="22" rx="10" ry="10" width="79.5" x="184.0" y="223"></rect><text x="223.75" y="238">"addpn"</text></g><path d="M 263.5 234 a 10 10 0 0 0 10 -10 v -150 a 10 10 0 0 1 10 -10"></path><path d="M 164.0 64 a 10 10 0 0 1 10 10 v 180 a 10 10 0 0 0 10 10"></path><g class="terminal ">
<path d="M 184.0 264 h 12.75"></path><path d="M 250.75 264 h 12.75"></path><rect height="22" rx="10" ry="10" width="54.0" x="196.75" y="253"></rect><text x="223.75" y="268">"bk"</text></g><path d="M 263.5 264 a 10 10 0 0 0 10 -10 v -180 a 10 10 0 0 1 10 -10"></path><path d="M 164.0 64 a 10 10 0 0 1 10 10 v 210 a 10 10 0 0 0 10 10"></path><g class="terminal ">
<path d="M 184.0 294 h 12.75"></path><path d="M 250.75 294 h 12.75"></path><rect height="22" rx="10" ry="10" width="54.0" x="196.75" y="283"></rect><text x="223.75" y="298">"dc"</text></g><path d="M 263.5 294 a 10 10 0 0 0 10 -10 v -210 a 10 10 0 0 1 10 -10"></path><path d="M 164.0 64 a 10 10 0 0 1 10 10 v 240 a 10 10 0 0 0 10 10"></path><g class="terminal ">
<path d="M 184.0 324 h 8.5"></path><path d="M 255.0 324 h 8.5"></path><rect height="22" rx="10" ry="10" width="62.5" x="192.5" y="313"></rect><text x="223.75" y="328">"efm"</text></g><path d="M 263.5 324 a 10 10 0 0 0 10 -10 v -240 a 10 10 0 0 1 10 -10"></path><path d="M 164.0 64 a 10 10 0 0 1 10 10 v 270 a 10 10 0 0 0 10 10"></path><g class="terminal ">
<path d="M 184.0 354 h 12.75"></path><path d="M 250.75 354 h 12.75"></path><rect height="22" rx="10" ry="10" width="54.0" x="196.75" y="343"></rect><text x="223.75" y="358">"fm"</text></g><path d="M 263.5 354 a 10 10 0 0 0 10 -10 v -270 a 10 10 0 0 1 10 -10"></path><path d="M 164.0 64 a 10 10 0 0 1 10 10 v 300 a 10 10 0 0 0 10 10"></path><g class="terminal ">
<path d="M 184.0 384 h 17.0"></path><path d="M 246.5 384 h 17.0"></path><rect height="22" rx="10" ry="10" width="45.5" x="201.0" y="373"></rect><text x="223.75" y="388">"k"</text></g><path d="M 263.5 384 a 10 10 0 0 0 10 -10 v -300 a 10 10 0 0 1 10 -10"></path><path d="M 164.0 64 a 10 10 0 0 1 10 10 v 330 a 10 10 0 0 0 10 10"></path><g class="terminal ">
<path d="M 184.0 414 h 12.75"></path><path d="M 250.75 414 h 12.75"></path><rect height="22" rx="10" ry="10" width="54.0" x="196.75" y="403"></rect><text x="223.75" y="418">"nd"</text></g><path d="M 263.5 414 a 10 10 0 0 0 10 -10 v -330 a 10 10 0 0 1 10 -10"></path><path d="M 164.0 64 a 10 10 0 0 1 10 10 v 360 a 10 10 0 0 0 10 10"></path><g class="terminal ">
<path d="M 184.0 444 h 8.5"></path><path d="M 255.0 444 h 8.5"></path><rect height="22" rx="10" ry="10" width="62.5" x="192.5" y="433"></rect><text x="223.75" y="448">"ndx"</text></g><path d="M 263.5 444 a 10 10 0 0 0 10 -10 v -360 a 10 10 0 0 1 10 -10"></path><path d="M 164.0 64 a 10 10 0 0 1 10 10 v 390 a 10 10 0 0 0 10 10"></path><g class="terminal ">
<path d="M 184.0 474 h 8.5"></path><path d="M 255.0 474 h 8.5"></path><rect height="22" rx="10" ry="10" width="62.5" x="192.5" y="463"></rect><text x="223.75" y="478">"ord"</text></g><path d="M 263.5 474 a 10 10 0 0 0 10 -10 v -390 a 10 10 0 0 1 10 -10"></path><path d="M 164.0 64 a 10 10 0 0 1 10 10 v 420 a 10 10 0 0 0 10 10"></path><g class="terminal ">
<path d="M 184.0 504 h 8.5"></path><path d="M 255.0 504 h 8.5"></path><rect height="22" rx="10" ry="10" width="62.5" x="192.5" y="493"></rect><text x="223.75" y="508">"png"</text></g><path d="M 263.5 504 a 10 10 0 0 0 10 -10 v -420 a 10 10 0 0 1 10 -10"></path><path d="M 164.0 64 a 10 10 0 0 1 10 10 v 450 a 10 10 0 0 0 10 10"></path><g class="terminal ">
<path d="M 184.0 534 h 12.75"></path><path d="M 250.75 534 h 12.75"></path><rect height="22" rx="10" ry="10" width="54.0" x="196.75" y="523"></rect><text x="223.75" y="538">"pn"</text></g><path d="M 263.5 534 a 10 10 0 0 0 10 -10 v -450 a 10 10 0 0 1 10 -10"></path><path d="M 164.0 64 a 10 10 0 0 1 10 10 v 480 a 10 10 0 0 0 10 10"></path><g class="terminal ">
<path d="M 184.0 564 h 8.5"></path><path d="M 255.0 564 h 8.5"></path><rect height="22" rx="10" ry="10" width="62.5" x="192.5" y="553"></rect><text x="223.75" y="568">"pro"</text></g><path d="M 263.5 564 a 10 10 0 0 0 10 -10 v -480 a 10 10 0 0 1 10 -10"></path><path d="M 164.0 64 a 10 10 0 0 1 10 10 v 510 a 10 10 0 0 0 10 10"></path><g class="terminal ">
<path d="M 184.0 594 h 12.75"></path><path d="M 250.75 594 h 12.75"></path><rect height="22" rx="10" ry="10" width="54.0" x="196.75" y="583"></rect><text x="223.75" y="598">"qt"</text></g><path d="M 263.5 594 a 10 10 0 0 0 10 -10 v -510 a 10 10 0 0 1 10 -10"></path><path d="M 164.0 64 a 10 10 0 0 1 10 10 v 540 a 10 10 0 0 0 10 10"></path><g class="terminal ">
<path d="M 184.0 624 h 12.75"></path><path d="M 250.75 624 h 12.75"></path><rect height="22" rx="10" ry="10" width="54.0" x="196.75" y="613"></rect><text x="223.75" y="628">"rq"</text></g><path d="M 263.5 624 a 10 10 0 0 0 10 -10 v -540 a 10 10 0 0 1 10 -10"></path><path d="M 164.0 64 a 10 10 0 0 1 10 10 v 570 a 10 10 0 0 0 10 10"></path><g class="terminal ">
<path d="M 184.0 654 h 8.5"></path><path d="M 255.0 654 h 8.5"></path><rect height="22" rx="10" ry="10" width="62.5" x="192.5" y="643"></rect><text x="223.75" y="658">"sig"</text></g><path d="M 263.5 654 a 10 10 0 0 0 10 -10 v -570 a 10 10 0 0 1 10 -10"></path><path d="M 164.0 64 a 10 10 0 0 1 10 10 v 600 a 10 10 0 0 0 10 10"></path><g class="terminal ">
<path d="M 184.0 684 h 8.5"></path><path d="M 255.0 684 h 8.5"></path><rect height="22" rx="10" ry="10" width="62.5" x="192.5" y="673"></rect><text x="223.75" y="688">"sls"</text></g><path d="M 263.5 684 a 10 10 0 0 0 10 -10 v -600 a 10 10 0 0 1 10 -10"></path><path d="M 164.0 64 a 10 10 0 0 1 10 10 v 630 a 10 10 0 0 0 10 10"></path><g class="terminal ">
<path d="M 184.0 714 h 12.75"></path><path d="M 250.75 714 h 12.75"></path><rect height="22" rx="10" ry="10" width="54.0" x="196.75" y="703"></rect><text x="223.75" y="718">"tl"</text></g><path d="M 263.5 714 a 10 10 0 0 0 10 -10 v -630 a 10 10 0 0 1 10 -10"></path><path d="M 164.0 64 a 10 10 0 0 1 10 10 v 660 a 10 10 0 0 0 10 10"></path><g class="terminal ">
<path d="M 184.0 744 h 12.75"></path><path d="M 250.75 744 h 12.75"></path><rect height="22" rx="10" ry="10" width="54.0" x="196.75" y="733"></rect><text x="223.75" y="748">"wg"</text></g><path d="M 263.5 744 a 10 10 0 0 0 10 -10 v -660 a 10 10 0 0 1 10 -10"></path><path d="M 164.0 64 a 10 10 0 0 1 10 10 v 690 a 10 10 0 0 0 10 10"></path><g class="terminal ">
<path d="M 184.0 774 h 12.75"></path><path d="M 250.75 774 h 12.75"></path><rect height="22" rx="10" ry="10" width="54.0" x="196.75" y="763"></rect><text x="223.75" y="778">"wh"</text></g><path d="M 263.5 774 a 10 10 0 0 0 10 -10 v -690 a 10 10 0 0 1 10 -10"></path><path d="M 164.0 64 a 10 10 0 0 1 10 10 v 720 a 10 10 0 0 0 10 10"></path><g class="terminal ">
<path d="M 184.0 804 h 12.75"></path><path d="M 250.75 804 h 12.75"></path><rect height="22" rx="10" ry="10" width="54.0" x="196.75" y="793"></rect><text x="223.75" y="808">"wa"</text></g><path d="M 263.5 804 a 10 10 0 0 0 10 -10 v -720 a 10 10 0 0 1 10 -10"></path><path d="M 164.0 64 a 10 10 0 0 1 10 10 v 750 a 10 10 0 0 0 10 10"></path><g class="terminal ">
<path d="M 184.0 834 h 12.75"></path><path d="M 250.75 834 h 12.75"></path><rect height="22" rx="10" ry="10" width="54.0" x="196.75" y="823"></rect><text x="223.75" y="838">"wj"</text></g><path d="M 263.5 834 a 10 10 0 0 0 10 -10 v -750 a 10 10 0 0 1 10 -10"></path><path d="M 164.0 64 a 10 10 0 0 1 10 10 v 780 a 10 10 0 0 0 10 10"></path><g class="terminal ">
<path d="M 184.0 864 h 8.5"></path><path d="M 255.0 864 h 8.5"></path><rect height="22" rx="10" ry="10" width="62.5" x="192.5" y="853"></rect><text x="223.75" y="868">"jmp"</text></g><path d="M 263.5 864 a 10 10 0 0 0 10 -10 v -780 a 10 10 0 0 1 10 -10"></path><path d="M 164.0 64 a 10 10 0 0 1 10 10 v 810 a 10 10 0 0 0 10 10"></path><g class="terminal ">
<path d="M 184.0 894 h 12.75"></path><path d="M 250.75 894 h 12.75"></path><rect height="22" rx="10" ry="10" width="54.0" x="196.75" y="883"></rect><text x="223.75" y="898">"no"</text></g><path d="M 263.5 894 a 10 10 0 0 0 10 -10 v -810 a 10 10 0 0 1 10 -10"></path><path d="M 164.0 64 a 10 10 0 0 1 10 10 v 840 a 10 10 0 0 0 10 10"></path><g class="terminal ">
<path d="M 184.0 924 h 12.75"></path><path d="M 250.75 924 h 12.75"></path><rect height="22" rx="10" ry="10" width="54.0" x="196.75" y="913"></rect><text x="223.75" y="928">"it"</text></g><path d="M 263.5 924 a 10 10 0 0 0 10 -10 v -840 a 10 10 0 0 1 10 -10"></path><path d="M 164.0 64 a 10 10 0 0 1 10 10 v 870 a 10 10 0 0 0 10 10"></path><g class="terminal ">
<path d="M 184.0 954 h 4.25"></path><path d="M 259.25 954 h 4.25"></path><rect height="22" rx="10" ry="10" width="71.0" x="188.25" y="943"></rect><text x="223.75" y="958">"bdit"</text></g><path d="M 263.5 954 a 10 10 0 0 0 10 -10 v -870 a 10 10 0 0 1 10 -10"></path><path d="M 164.0 64 a 10 10 0 0 1 10 10 v 900 a 10 10 0 0 0 10 10"></path><g class="terminal ">
<path d="M 184.0 984 h 12.75"></path><path d="M 250.75 984 h 12.75"></path><rect height="22" rx="10" ry="10" width="54.0" x="196.75" y="973"></rect><text x="223.75" y="988">"bd"</text></g><path d="M 263.5 984 a 10 10 0 0 0 10 -10 v -900 a 10 10 0 0 1 10 -10"></path><path d="M 164.0 64 a 10 10 0 0 1 10 10 v 930 a 10 10 0 0 0 10 10"></path><g class="terminal ">
<path d="M 184.0 1014 h 12.75"></path><path d="M 250.75 1014 h 12.75"></path><rect height="22" rx="10" ry="10" width="54.0" x="196.75" y="1003"></rect><text x="223.75" y="1018">"em"</text></g><path d="M 263.5 1014 a 10 10 0 0 0 10 -10 v -930 a 10 10 0 0 1 10 -10"></path><path d="M 164.0 64 a 10 10 0 0 1 10 10 v 960 a 10 10 0 0 0 10 10"></path><g class="terminal ">
<path d="M 184.0 1044 h 12.75"></path><path d="M 250.75 1044 h 12.75"></path><rect height="22" rx="10" ry="10" width="54.0" x="196.75" y="1033"></rect><text x="223.75" y="1048">"sc"</text></g><path d="M 263.5 1044 a 10 10 0 0 0 10 -10 v -960 a 10 10 0 0 1 10 -10"></path><path d="M 164.0 64 a 10 10 0 0 1 10 10 v 990 a 10 10 0 0 0 10 10"></path><g class="terminal ">
<path d="M 184.0 1074 h 8.5"></path><path d="M 255.0 1074 h 8.5"></path><rect height="22" rx="10" ry="10" width="62.5" x="192.5" y="1063"></rect><text x="223.75" y="1078">"sup"</text></g><path d="M 263.5 1074 a 10 10 0 0 0 10 -10 v -990 a 10 10 0 0 1 10 -10"></path><path d="M 164.0 64 a 10 10 0 0 1 10 10 v 1020 a 10 10 0 0 0 10 10"></path><g class="terminal ">
<path d="M 184.0 1104 h 17.0"></path><path d="M 246.5 1104 h 17.0"></path><rect height="22" rx="10" ry="10" width="45.5" x="201.0" y="1093"></rect><text x="223.75" y="1108">"w"</text></g><path d="M 263.5 1104 a 10 10 0 0 0 10 -10 v -1020 a 10 10 0 0 1 10 -10"></path><path d="M 164.0 64 a 10 10 0 0 1 10 10 v 1050 a 10 10 0 0 0 10 10"></path><g class="terminal ">
<path d="M 184.0 1134 h 12.75"></path><path d="M 250.75 1134 h 12.75"></path><rect height="22" rx="10" ry="10" width="54.0" x="196.75" y="1123"></rect><text x="223.75" y="1138">"rb"</text></g><path d="M 263.5 1134 a 10 10 0 0 0 10 -10 v -1050 a 10 10 0 0 1 10 -10"></path><path d="M 164.0 64 a 10 10 0 0 1 10 10 v 1080 a 10 10 0 0 0 10 10"></path><g class="terminal ">
<path d="M 184.0 1164 h 8.5"></path><path d="M 255.0 1164 h 8.5"></path><rect height="22" rx="10" ry="10" width="62.5" x="192.5" y="1153"></rect><text x="223.75" y="1168">"jmp"</text></g><path d="M 263.5 1164 a 10 10 0 0 0 10 -10 v -1080 a 10 10 0 0 1 10 -10"></path><path d="M 164.0 64 a 10 10 0 0 1 10 10 v 1110 a 10 10 0 0 0 10 10"></path><g class="terminal ">
<path d="M 184.0 1194 h 12.75"></path><path d="M 250.75 1194 h 12.75"></path><rect height="22" rx="10" ry="10" width="54.0" x="196.75" y="1183"></rect><text x="223.75" y="1198">"xt"</text></g><path d="M 263.5 1194 a 10 10 0 0 0 10 -10 v -1110 a 10 10 0 0 1 10 -10"></path></g></g><g class="non-terminal ">
<path d="M 154.0 38 h 0.0"></path><path d="M 171.0 38 h 0.0"></path><text class="comment" x="162.5" y="43">➋</text></g></g><path d="M 293.5 64 h 10"></path><path d="M 303.5 64 h 10"></path><g>
<path d="M 313.5 64 h 0.0"></path><path d="M 424.5 64 h 0.0"></path><path d="M 313.5 64 h 20"></path><g class="terminal ">
<path d="M 333.5 64 h 12.75"></path><path d="M 391.75 64 h 12.75"></path><rect height="22" rx="10" ry="10" width="45.5" x="346.25" y="53"></rect><text x="369.0" y="68">' '</text></g><path d="M 404.5 64 h 20"></path><path d="M 313.5 64 a 10 10 0 0 1 10 10 v 10 a 10 10 0 0 0 10 10"></path><g class="terminal altterminal">
<path d="M 333.5 94 h 0.0"></path><path d="M 404.5 94 h 0.0"></path><rect height="22" rx="10" ry="10" width="71.0" x="333.5" y="83"></rect><text x="369.0" y="98">TAGEND</text></g><path d="M 404.5 94 a 10 10 0 0 0 10 -10 v -10 a 10 10 0 0 1 10 -10"></path></g></g><path d="M 434.5 64 h 0.0"></path></g><path d="M 434.5 64 h 10"></path><path d="M 444.5 64 h 10"></path><g>
<path d="M 454.5 64 h 0.0"></path><path d="M 1254.0 64 h 0.0"></path><path d="M 454.5 64 h 20"></path><g>
<path d="M 474.5 64 h 0.0"></path><path d="M 1234.0 64 h 0.0"></path><g class="non-terminal ">
<path d="M 474.5 64 h 0.0"></path><path d="M 588.0 64 h 0.0"></path><rect height="22" width="113.5" x="474.5" y="53"></rect><text x="531.25" y="68">CharContent</text></g><path d="M 588.0 64 h 10"></path><path d="M 598.0 64 h 10"></path><g>
<path d="M 608.0 64 h 0.0"></path><path d="M 1234.0 64 h 0.0"></path><path d="M 608.0 64 h 20"></path><g>
<path d="M 628.0 64 h 586.0"></path></g><path d="M 1214.0 64 h 20"></path><path d="M 608.0 64 a 10 10 0 0 1 10 10 v 9 a 10 10 0 0 0 10 10"></path><g>
<path d="M 628.0 93 h 0.0"></path><path d="M 1214.0 93 h 0.0"></path><g>
<path d="M 628.0 93 h 0.0"></path><path d="M 722.0 93 h 0.0"></path><path d="M 628.0 93 h 20"></path><g class="terminal ">
<path d="M 648.0 93 h 4.25"></path><path d="M 697.75 93 h 4.25"></path><rect height="22" rx="10" ry="10" width="45.5" x="652.25" y="82"></rect><text x="675.0" y="97">'|'</text></g><path d="M 702.0 93 h 20"></path><path d="M 628.0 93 a 10 10 0 0 1 10 10 v 10 a 10 10 0 0 0 10 10"></path><g class="terminal altterminal">
<path d="M 648.0 123 h 0.0"></path><path d="M 702.0 123 h 0.0"></path><rect height="22" rx="10" ry="10" width="54.0" x="648.0" y="112"></rect><text x="675.0" y="127">PIPE</text></g><path d="M 702.0 123 a 10 10 0 0 0 10 -10 v -10 a 10 10 0 0 1 10 -10"></path></g><path d="M 722.0 93 h 10"></path><path d="M 732.0 93 h 10"></path><g>
<path d="M 742.0 93 h 0.0"></path><path d="M 1214.0 93 h 0.0"></path><path d="M 742.0 93 h 10"></path><g>
<path d="M 752.0 93 h 0.0"></path><path d="M 1204.0 93 h 0.0"></path><g>
<path d="M 752.0 93 h 0.0"></path><path d="M 1204.0 93 h 0.0"></path><path d="M 752.0 93 h 20"></path><g class="terminal ">
<path d="M 772.0 93 h 157.75"></path><path d="M 1026.25 93 h 157.75"></path><rect height="22" rx="10" ry="10" width="96.5" x="929.75" y="82"></rect><text x="978.0" y="97">ATTRIBALL</text></g><path d="M 1184.0 93 h 20"></path><path d="M 752.0 93 a 10 10 0 0 1 10 10 v 10 a 10 10 0 0 0 10 10"></path><g>
<path d="M 772.0 123 h 0.0"></path><path d="M 1184.0 123 h 0.0"></path><g class="terminal ">
<path d="M 772.0 123 h 0.0"></path><path d="M 877.0 123 h 0.0"></path><rect height="22" rx="10" ry="10" width="105.0" x="772.0" y="112"></rect><text x="824.5" y="127">ATTRIBNAME</text></g><path d="M 877.0 123 h 10"></path><path d="M 887.0 123 h 10"></path><g class="terminal ">
<path d="M 897.0 123 h 0.0"></path><path d="M 951.0 123 h 0.0"></path><rect height="22" rx="10" ry="10" width="54.0" x="897.0" y="112"></rect><text x="924.0" y="127">'="'</text></g><path d="M 951.0 123 h 10"></path><path d="M 961.0 123 h 10"></path><g class="terminal ">
<path d="M 971.0 123 h 0.0"></path><path d="M 1076.0 123 h 0.0"></path><rect height="22" rx="10" ry="10" width="105.0" x="971.0" y="112"></rect><text x="1023.5" y="127">ATTRIBTEXT</text></g><path d="M 1076.0 123 h 10"></path><path d="M 1086.0 123 h 10"></path><g class="terminal ">
<path d="M 1096.0 123 h 0.0"></path><path d="M 1184.0 123 h 0.0"></path><rect height="22" rx="10" ry="10" width="88.0" x="1096.0" y="112"></rect><text x="1140.0" y="127">/"${Hs}/</text></g></g><path d="M 1184.0 123 a 10 10 0 0 0 10 -10 v -10 a 10 10 0 0 1 10 -10"></path></g></g><path d="M 1204.0 93 h 10"></path><path d="M 752.0 93 a 10 10 0 0 0 -10 10 v 39 a 10 10 0 0 0 10 10"></path><g>
<path d="M 752.0 152 h 452.0"></path></g><path d="M 1204.0 152 a 10 10 0 0 0 10 -10 v -39 a 10 10 0 0 0 -10 -10"></path></g></g><path d="M 1214.0 93 a 10 10 0 0 0 10 -10 v -9 a 10 10 0 0 1 10 -10"></path></g></g><path d="M 1234.0 64 h 20"></path><path d="M 454.5 64 a 10 10 0 0 1 10 10 v 107 a 10 10 0 0 0 10 10"></path><g>
<path d="M 474.5 191 h 86.75"></path><path d="M 1147.25 191 h 86.75"></path><g>
<path d="M 561.25 191 h 0.0"></path><path d="M 655.25 191 h 0.0"></path><path d="M 561.25 191 h 20"></path><g class="terminal ">
<path d="M 581.25 191 h 4.25"></path><path d="M 631.0 191 h 4.25"></path><rect height="22" rx="10" ry="10" width="45.5" x="585.5" y="180"></rect><text x="608.25" y="195">'|'</text></g><path d="M 635.25 191 h 20"></path><path d="M 561.25 191 a 10 10 0 0 1 10 10 v 10 a 10 10 0 0 0 10 10"></path><g class="terminal altterminal">
<path d="M 581.25 221 h 0.0"></path><path d="M 635.25 221 h 0.0"></path><rect height="22" rx="10" ry="10" width="54.0" x="581.25" y="210"></rect><text x="608.25" y="225">PIPE</text></g><path d="M 635.25 221 a 10 10 0 0 0 10 -10 v -10 a 10 10 0 0 1 10 -10"></path></g><path d="M 655.25 191 h 10"></path><path d="M 665.25 191 h 10"></path><g>
<path d="M 675.25 191 h 0.0"></path><path d="M 1147.25 191 h 0.0"></path><path d="M 675.25 191 h 10"></path><g>
<path d="M 685.25 191 h 0.0"></path><path d="M 1137.25 191 h 0.0"></path><g>
<path d="M 685.25 191 h 0.0"></path><path d="M 1137.25 191 h 0.0"></path><path d="M 685.25 191 h 20"></path><g class="terminal ">
<path d="M 705.25 191 h 157.75"></path><path d="M 959.5 191 h 157.75"></path><rect height="22" rx="10" ry="10" width="96.5" x="863.0" y="180"></rect><text x="911.25" y="195">ATTRIBALL</text></g><path d="M 1117.25 191 h 20"></path><path d="M 685.25 191 a 10 10 0 0 1 10 10 v 10 a 10 10 0 0 0 10 10"></path><g>
<path d="M 705.25 221 h 0.0"></path><path d="M 1117.25 221 h 0.0"></path><g class="terminal ">
<path d="M 705.25 221 h 0.0"></path><path d="M 810.25 221 h 0.0"></path><rect height="22" rx="10" ry="10" width="105.0" x="705.25" y="210"></rect><text x="757.75" y="225">ATTRIBNAME</text></g><path d="M 810.25 221 h 10"></path><path d="M 820.25 221 h 10"></path><g class="terminal ">
<path d="M 830.25 221 h 0.0"></path><path d="M 884.25 221 h 0.0"></path><rect height="22" rx="10" ry="10" width="54.0" x="830.25" y="210"></rect><text x="857.25" y="225">'="'</text></g><path d="M 884.25 221 h 10"></path><path d="M 894.25 221 h 10"></path><g class="terminal ">
<path d="M 904.25 221 h 0.0"></path><path d="M 1009.25 221 h 0.0"></path><rect height="22" rx="10" ry="10" width="105.0" x="904.25" y="210"></rect><text x="956.75" y="225">ATTRIBTEXT</text></g><path d="M 1009.25 221 h 10"></path><path d="M 1019.25 221 h 10"></path><g class="terminal ">
<path d="M 1029.25 221 h 0.0"></path><path d="M 1117.25 221 h 0.0"></path><rect height="22" rx="10" ry="10" width="88.0" x="1029.25" y="210"></rect><text x="1073.25" y="225">/"${Hs}/</text></g></g><path d="M 1117.25 221 a 10 10 0 0 0 10 -10 v -10 a 10 10 0 0 1 10 -10"></path></g></g><path d="M 1137.25 191 h 10"></path><path d="M 685.25 191 a 10 10 0 0 0 -10 10 v 39 a 10 10 0 0 0 10 10"></path><g>
<path d="M 685.25 250 h 452.0"></path></g><path d="M 1137.25 250 a 10 10 0 0 0 10 -10 v -39 a 10 10 0 0 0 -10 -10"></path></g></g><path d="M 1234.0 191 a 10 10 0 0 0 10 -10 v -107 a 10 10 0 0 1 10 -10"></path></g><path d="M 1254.0 64 h 10"></path><path d="M 1264.0 64 h 10"></path><g class="terminal ">
<path d="M 1274.0 64 h 0.0"></path><path d="M 1328.0 64 h 0.0"></path><rect height="22" rx="10" ry="10" width="54.0" x="1274.0" y="53"></rect><text x="1301.0" y="68">'\\'</text></g><path d="M 1328.0 64 h 10"></path><path d="M 1338.0 64 h 10"></path><g class="terminal ">
<path d="M 1348.0 64 h 0.0"></path><path d="M 1393.5 64 h 0.0"></path><rect height="22" rx="10" ry="10" width="45.5" x="1348.0" y="53"></rect><text x="1370.75" y="68">⇐ ➋</text></g><path d="M 1393.5 64 h 10"></path><path d="M 1403.5 64 h 10"></path><g class="terminal ">
<path d="M 1413.5 64 h 0.0"></path><path d="M 1459.0 64 h 0.0"></path><rect height="22" rx="10" ry="10" width="45.5" x="1413.5" y="53"></rect><text x="1436.25" y="68">'&#42;'</text></g></g><path d="M 1459.0 64 h 20"></path><path d="M 50.0 64 a 10 10 0 0 1 10 10 v 1158 a 10 10 0 0 0 10 10"></path><g class="non-terminal ">
<path d="M 70.0 1242 h 659.0"></path><path d="M 800.0 1242 h 659.0"></path><rect height="22" width="71.0" x="729.0" y="1231"></rect><text x="764.5" y="1246">Figure</text></g><path d="M 1459.0 1242 a 10 10 0 0 0 10 -10 v -1158 a 10 10 0 0 1 10 -10"></path></g></g><path d="M 1479.0 64 h 10"></path><path d="M 1489.0 64 h 20 m 0 -10 v 20"></path></g></svg>