<svg class="railroad-diagram" height="665" viewBox="0 0 1100.0 665" width="1100.0" xmlns="http://www.w3.org/2000/svg" xmlns:xlink="http://www.w3.org/1999/xlink">
<g transform="translate(.5 .5)">
<style>/* <![CDATA[ */
    svg.railroad-diagram {
        background-color:hsl(30,20%,95%);
    }
    svg.railroad-diagram path {
        stroke-width: 2;
        stroke: black;
        fill: none;
    }
    svg.railroad-diagram text {
        font-size: 12px;
        text-anchor: middle;
        font-family: DejaVu Sans;
    }
    svg.railroad-diagram text.label {
        text-anchor:start;
    }
    svg.railroad-diagram text.comment {
        font-family: DejaVu Sans;
        font-size: 14px;
    }
    svg.railroad-diagram rect{
        stroke-width: 2;
        stroke:black;
        fill: rgb(210, 210, 255);
    }
    svg.railroad-diagram rect.group-box {
        stroke: gray;
        stroke-dasharray: 10 5;
        fill: none;
    }
    .terminal {
        font-family: DejaVu Sans;
    }

/* ]]> */
</style><g>
<path d="M 20 406 v 20 m 0 -10 h 20"></path></g><g>
<path d="M 40 416 h 0.0"></path><path d="M 1060.0 416 h 0.0"></path><path d="M 40.0 416 h 20"></path><g>
<path d="M 60.0 416 h 0.0"></path><path d="M 1040.0 416 h 0.0"></path><g class="terminal ">
<path d="M 60.0 416 h 0.0"></path><path d="M 131.0 416 h 0.0"></path><rect height="22" rx="10" ry="10" width="71.0" x="60.0" y="405"></rect><text x="95.5" y="420">&#60;char></text></g><path d="M 131.0 416 h 10"></path><g>
<path d="M 141.0 416 h 0.0"></path><path d="M 1040.0 416 h 0.0"></path><path d="M 141.0 416 a 10 10 0 0 0 10 -10 v -19 a 10 10 0 0 1 10 -10"></path><g>
<path d="M 161.0 377 h 0.0"></path><path d="M 450.5 377 h 0.0"></path><g class="terminal ">
<path d="M 161.0 377 h 0.0"></path><path d="M 257.5 377 h 0.0"></path><rect height="22" rx="10" ry="10" width="96.5" x="161.0" y="366"></rect><text x="209.25" y="381">@link-id?</text></g><path d="M 257.5 377 h 10"></path><path d="M 267.5 377 h 10"></path><g class="terminal ">
<path d="M 277.5 377 h 0.0"></path><path d="M 450.5 377 h 0.0"></path><rect height="22" rx="10" ry="10" width="173.0" x="277.5" y="366"></rect><text x="364.0" y="381">/&#91;\p{L}\d&#95;\-\.:&#93;+/</text></g></g><path d="M 141.0 416 a 10 10 0 0 0 10 -10 v -49 a 10 10 0 0 1 10 -10"></path><g>
<path d="M 161.0 347 h 0.0"></path><path d="M 357.0 347 h 0.0"></path><g class="terminal ">
<path d="M 161.0 347 h 0.0"></path><path d="M 283.0 347 h 0.0"></path><rect height="22" rx="10" ry="10" width="122.0" x="161.0" y="336"></rect><text x="222.0" y="351">@link-title?</text></g><path d="M 283.0 347 h 10"></path><path d="M 293.0 347 h 10"></path><g class="terminal ">
<path d="M 303.0 347 h 0.0"></path><path d="M 357.0 347 h 0.0"></path><rect height="22" rx="10" ry="10" width="54.0" x="303.0" y="336"></rect><text x="330.0" y="351">text</text></g></g><path d="M 141.0 416 a 10 10 0 0 0 10 -10 v -79 a 10 10 0 0 1 10 -10"></path><g>
<path d="M 161.0 317 h 0.0"></path><path d="M 1020.0 317 h 0.0"></path><g class="terminal ">
<path d="M 161.0 317 h 0.0"></path><path d="M 274.5 317 h 0.0"></path><rect height="22" rx="10" ry="10" width="113.5" x="161.0" y="306"></rect><text x="217.75" y="321">@link-href?</text></g><path d="M 274.5 317 h 10"></path><path d="M 284.5 317 h 10"></path><g class="terminal ">
<path d="M 294.5 317 h 0.0"></path><path d="M 1020.0 317 h 0.0"></path><rect height="22" rx="10" ry="10" width="725.5" x="294.5" y="306"></rect><text x="657.25" y="321">/(.&#42;///?(.&#42;/?)+)|((prj:&#91;A-Za-z\-0-9&#93;{3,8} )?&#91;A-Z1-4&#93;{3} \d+:\d+(\-\d+)?)|(#&#91;^\s&#93;+)/</text></g></g><path d="M 141.0 416 a 10 10 0 0 0 10 -10 v -109 a 10 10 0 0 1 10 -10"></path><g>
<path d="M 161.0 287 h 0.0"></path><path d="M 323.0 287 h 0.0"></path><g class="terminal ">
<path d="M 161.0 287 h 0.0"></path><path d="M 249.0 287 h 0.0"></path><rect height="22" rx="10" ry="10" width="88.0" x="161.0" y="276"></rect><text x="205.0" y="291">@closed?</text></g><path d="M 249.0 287 h 10"></path><path d="M 259.0 287 h 10"></path><g class="terminal ">
<path d="M 269.0 287 h 0.0"></path><path d="M 323.0 287 h 0.0"></path><rect height="22" rx="10" ry="10" width="54.0" x="269.0" y="276"></rect><text x="296.0" y="291">BOOL</text></g></g><path d="M 141.0 416 a 10 10 0 0 0 10 -10 v -267 a 10 10 0 0 1 10 -10"></path><g>
<path d="M 161.0 129 h 0.0"></path><path d="M 880.0 129 h 0.0"></path><g class="terminal ">
<path d="M 161.0 129 h 0.0"></path><path d="M 232.0 129 h 0.0"></path><rect height="22" rx="10" ry="10" width="71.0" x="161.0" y="118"></rect><text x="196.5" y="133">@style</text></g><path d="M 232.0 129 h 10"></path><g>
<path d="M 242.0 129 h 0.0"></path><path d="M 880.0 129 h 0.0"></path><path d="M 242.0 129 a 10 10 0 0 0 10 -10 v -89 a 10 10 0 0 1 10 -10 h 477.0"></path><path d="M 391.5 268 h 468.5 a 10 10 0 0 0 10 -10 v -119 a 10 10 0 0 1 10 -10"></path><path d="M 242.0 129 h 10"></path><g>
<path d="M 252.0 129 h 0.0"></path><path d="M 371.5 129 h 0.0"></path><path d="M 252.0 129 a 10 10 0 0 0 10 -10 v -10 a 10 10 0 0 1 10 -10"></path><g class="terminal ">
<path d="M 272.0 99 h 12.75"></path><path d="M 338.75 99 h 12.75"></path><rect height="22" rx="10" ry="10" width="54.0" x="284.75" y="88"></rect><text x="311.75" y="103">"ca"</text></g><path d="M 351.5 99 a 10 10 0 0 1 10 10 v 10 a 10 10 0 0 0 10 10"></path><path d="M 252.0 129 a 10 10 0 0 0 10 -10 v -40 a 10 10 0 0 1 10 -10"></path><g class="terminal ">
<path d="M 272.0 69 h 12.75"></path><path d="M 338.75 69 h 12.75"></path><rect height="22" rx="10" ry="10" width="54.0" x="284.75" y="58"></rect><text x="311.75" y="73">"vp"</text></g><path d="M 351.5 69 a 10 10 0 0 1 10 10 v 40 a 10 10 0 0 0 10 10"></path><path d="M 252.0 129 a 10 10 0 0 0 10 -10 v -70 a 10 10 0 0 1 10 -10"></path><g class="terminal ">
<path d="M 272.0 39 h 12.75"></path><path d="M 338.75 39 h 12.75"></path><rect height="22" rx="10" ry="10" width="54.0" x="284.75" y="28"></rect><text x="311.75" y="43">"va"</text></g><path d="M 351.5 39 a 10 10 0 0 1 10 10 v 70 a 10 10 0 0 0 10 10"></path><path d="M 252.0 129 h 20"></path><g class="terminal ">
<path d="M 272.0 129 h 8.5"></path><path d="M 343.0 129 h 8.5"></path><rect height="22" rx="10" ry="10" width="62.5" x="280.5" y="118"></rect><text x="311.75" y="133">"qac"</text></g><path d="M 351.5 129 h 20"></path><path d="M 252.0 129 a 10 10 0 0 1 10 10 v 10 a 10 10 0 0 0 10 10"></path><g class="terminal ">
<path d="M 272.0 159 h 12.75"></path><path d="M 338.75 159 h 12.75"></path><rect height="22" rx="10" ry="10" width="54.0" x="284.75" y="148"></rect><text x="311.75" y="163">"qs"</text></g><path d="M 351.5 159 a 10 10 0 0 0 10 -10 v -10 a 10 10 0 0 1 10 -10"></path><path d="M 252.0 129 a 10 10 0 0 1 10 10 v 40 a 10 10 0 0 0 10 10"></path><g class="terminal ">
<path d="M 272.0 189 h 8.5"></path><path d="M 343.0 189 h 8.5"></path><rect height="22" rx="10" ry="10" width="62.5" x="280.5" y="178"></rect><text x="311.75" y="193">"add"</text></g><path d="M 351.5 189 a 10 10 0 0 0 10 -10 v -40 a 10 10 0 0 1 10 -10"></path><path d="M 252.0 129 a 10 10 0 0 1 10 10 v 70 a 10 10 0 0 0 10 10"></path><g class="terminal ">
<path d="M 272.0 219 h 0.0"></path><path d="M 351.5 219 h 0.0"></path><rect height="22" rx="10" ry="10" width="79.5" x="272.0" y="208"></rect><text x="311.75" y="223">"addpn"</text></g><path d="M 351.5 219 a 10 10 0 0 0 10 -10 v -70 a 10 10 0 0 1 10 -10"></path><path d="M 252.0 129 a 10 10 0 0 1 10 10 v 100 a 10 10 0 0 0 10 10"></path><g class="terminal ">
<path d="M 272.0 249 h 12.75"></path><path d="M 338.75 249 h 12.75"></path><rect height="22" rx="10" ry="10" width="54.0" x="284.75" y="238"></rect><text x="311.75" y="253">"bk"</text></g><path d="M 351.5 249 a 10 10 0 0 0 10 -10 v -100 a 10 10 0 0 1 10 -10"></path></g><path d="M 371.5 129 a 10 10 0 0 1 10 10 v 119 a 10 10 0 0 0 10 10"></path><path d="M 371.5 20 a 10 10 0 0 1 10 10 v 89 a 10 10 0 0 0 10 10"></path><g>
<path d="M 391.5 129 h 0.0"></path><path d="M 494.0 129 h 0.0"></path><path d="M 391.5 129 a 10 10 0 0 0 10 -10 v -10 a 10 10 0 0 1 10 -10"></path><g class="terminal ">
<path d="M 411.5 99 h 4.25"></path><path d="M 469.75 99 h 4.25"></path><rect height="22" rx="10" ry="10" width="54.0" x="415.75" y="88"></rect><text x="442.75" y="103">"fm"</text></g><path d="M 474.0 99 a 10 10 0 0 1 10 10 v 10 a 10 10 0 0 0 10 10"></path><path d="M 391.5 129 a 10 10 0 0 0 10 -10 v -40 a 10 10 0 0 1 10 -10"></path><g class="terminal ">
<path d="M 411.5 69 h 0.0"></path><path d="M 474.0 69 h 0.0"></path><rect height="22" rx="10" ry="10" width="62.5" x="411.5" y="58"></rect><text x="442.75" y="73">"efm"</text></g><path d="M 474.0 69 a 10 10 0 0 1 10 10 v 40 a 10 10 0 0 0 10 10"></path><path d="M 391.5 129 a 10 10 0 0 0 10 -10 v -70 a 10 10 0 0 1 10 -10"></path><g class="terminal ">
<path d="M 411.5 39 h 4.25"></path><path d="M 469.75 39 h 4.25"></path><rect height="22" rx="10" ry="10" width="54.0" x="415.75" y="28"></rect><text x="442.75" y="43">"dc"</text></g><path d="M 474.0 39 a 10 10 0 0 1 10 10 v 70 a 10 10 0 0 0 10 10"></path><path d="M 391.5 129 h 20"></path><g class="terminal ">
<path d="M 411.5 129 h 8.5"></path><path d="M 465.5 129 h 8.5"></path><rect height="22" rx="10" ry="10" width="45.5" x="420.0" y="118"></rect><text x="442.75" y="133">"k"</text></g><path d="M 474.0 129 h 20"></path><path d="M 391.5 129 a 10 10 0 0 1 10 10 v 10 a 10 10 0 0 0 10 10"></path><g class="terminal ">
<path d="M 411.5 159 h 4.25"></path><path d="M 469.75 159 h 4.25"></path><rect height="22" rx="10" ry="10" width="54.0" x="415.75" y="148"></rect><text x="442.75" y="163">"nd"</text></g><path d="M 474.0 159 a 10 10 0 0 0 10 -10 v -10 a 10 10 0 0 1 10 -10"></path><path d="M 391.5 129 a 10 10 0 0 1 10 10 v 40 a 10 10 0 0 0 10 10"></path><g class="terminal ">
<path d="M 411.5 189 h 0.0"></path><path d="M 474.0 189 h 0.0"></path><rect height="22" rx="10" ry="10" width="62.5" x="411.5" y="178"></rect><text x="442.75" y="193">"ndx"</text></g><path d="M 474.0 189 a 10 10 0 0 0 10 -10 v -40 a 10 10 0 0 1 10 -10"></path><path d="M 391.5 129 a 10 10 0 0 1 10 10 v 70 a 10 10 0 0 0 10 10"></path><g class="terminal ">
<path d="M 411.5 219 h 0.0"></path><path d="M 474.0 219 h 0.0"></path><rect height="22" rx="10" ry="10" width="62.5" x="411.5" y="208"></rect><text x="442.75" y="223">"ord"</text></g><path d="M 474.0 219 a 10 10 0 0 0 10 -10 v -70 a 10 10 0 0 1 10 -10"></path><path d="M 391.5 129 a 10 10 0 0 1 10 10 v 100 a 10 10 0 0 0 10 10"></path><g class="terminal ">
<path d="M 411.5 249 h 4.25"></path><path d="M 469.75 249 h 4.25"></path><rect height="22" rx="10" ry="10" width="54.0" x="415.75" y="238"></rect><text x="442.75" y="253">"pn"</text></g><path d="M 474.0 249 a 10 10 0 0 0 10 -10 v -100 a 10 10 0 0 1 10 -10"></path></g><path d="M 494.0 129 a 10 10 0 0 1 10 10 v 119 a 10 10 0 0 0 10 10"></path><path d="M 494.0 20 a 10 10 0 0 1 10 10 v 89 a 10 10 0 0 0 10 10"></path><g>
<path d="M 514.0 129 h 0.0"></path><path d="M 616.5 129 h 0.0"></path><path d="M 514.0 129 a 10 10 0 0 0 10 -10 v -10 a 10 10 0 0 1 10 -10"></path><g class="terminal ">
<path d="M 534.0 99 h 4.25"></path><path d="M 592.25 99 h 4.25"></path><rect height="22" rx="10" ry="10" width="54.0" x="538.25" y="88"></rect><text x="565.25" y="103">"qt"</text></g><path d="M 596.5 99 a 10 10 0 0 1 10 10 v 10 a 10 10 0 0 0 10 10"></path><path d="M 514.0 129 a 10 10 0 0 0 10 -10 v -40 a 10 10 0 0 1 10 -10"></path><g class="terminal ">
<path d="M 534.0 69 h 0.0"></path><path d="M 596.5 69 h 0.0"></path><rect height="22" rx="10" ry="10" width="62.5" x="534.0" y="58"></rect><text x="565.25" y="73">"pro"</text></g><path d="M 596.5 69 a 10 10 0 0 1 10 10 v 40 a 10 10 0 0 0 10 10"></path><path d="M 514.0 129 a 10 10 0 0 0 10 -10 v -70 a 10 10 0 0 1 10 -10"></path><g class="terminal ">
<path d="M 534.0 39 h 0.0"></path><path d="M 596.5 39 h 0.0"></path><rect height="22" rx="10" ry="10" width="62.5" x="534.0" y="28"></rect><text x="565.25" y="43">"png"</text></g><path d="M 596.5 39 a 10 10 0 0 1 10 10 v 70 a 10 10 0 0 0 10 10"></path><path d="M 514.0 129 h 20"></path><g class="terminal ">
<path d="M 534.0 129 h 4.25"></path><path d="M 592.25 129 h 4.25"></path><rect height="22" rx="10" ry="10" width="54.0" x="538.25" y="118"></rect><text x="565.25" y="133">"rq"</text></g><path d="M 596.5 129 h 20"></path><path d="M 514.0 129 a 10 10 0 0 1 10 10 v 10 a 10 10 0 0 0 10 10"></path><g class="terminal ">
<path d="M 534.0 159 h 0.0"></path><path d="M 596.5 159 h 0.0"></path><rect height="22" rx="10" ry="10" width="62.5" x="534.0" y="148"></rect><text x="565.25" y="163">"sig"</text></g><path d="M 596.5 159 a 10 10 0 0 0 10 -10 v -10 a 10 10 0 0 1 10 -10"></path><path d="M 514.0 129 a 10 10 0 0 1 10 10 v 40 a 10 10 0 0 0 10 10"></path><g class="terminal ">
<path d="M 534.0 189 h 0.0"></path><path d="M 596.5 189 h 0.0"></path><rect height="22" rx="10" ry="10" width="62.5" x="534.0" y="178"></rect><text x="565.25" y="193">"sls"</text></g><path d="M 596.5 189 a 10 10 0 0 0 10 -10 v -40 a 10 10 0 0 1 10 -10"></path><path d="M 514.0 129 a 10 10 0 0 1 10 10 v 70 a 10 10 0 0 0 10 10"></path><g class="terminal ">
<path d="M 534.0 219 h 4.25"></path><path d="M 592.25 219 h 4.25"></path><rect height="22" rx="10" ry="10" width="54.0" x="538.25" y="208"></rect><text x="565.25" y="223">"tl"</text></g><path d="M 596.5 219 a 10 10 0 0 0 10 -10 v -70 a 10 10 0 0 1 10 -10"></path><path d="M 514.0 129 a 10 10 0 0 1 10 10 v 100 a 10 10 0 0 0 10 10"></path><g class="terminal ">
<path d="M 534.0 249 h 4.25"></path><path d="M 592.25 249 h 4.25"></path><rect height="22" rx="10" ry="10" width="54.0" x="538.25" y="238"></rect><text x="565.25" y="253">"wg"</text></g><path d="M 596.5 249 a 10 10 0 0 0 10 -10 v -100 a 10 10 0 0 1 10 -10"></path></g><path d="M 616.5 129 a 10 10 0 0 1 10 10 v 119 a 10 10 0 0 0 10 10"></path><path d="M 616.5 20 a 10 10 0 0 1 10 10 v 89 a 10 10 0 0 0 10 10"></path><g>
<path d="M 636.5 129 h 0.0"></path><path d="M 739.0 129 h 0.0"></path><path d="M 636.5 129 a 10 10 0 0 0 10 -10 v -10 a 10 10 0 0 1 10 -10"></path><g class="terminal ">
<path d="M 656.5 99 h 4.25"></path><path d="M 714.75 99 h 4.25"></path><rect height="22" rx="10" ry="10" width="54.0" x="660.75" y="88"></rect><text x="687.75" y="103">"wj"</text></g><path d="M 719.0 99 a 10 10 0 0 1 10 10 v 10 a 10 10 0 0 0 10 10"></path><path d="M 636.5 129 a 10 10 0 0 0 10 -10 v -40 a 10 10 0 0 1 10 -10"></path><g class="terminal ">
<path d="M 656.5 69 h 4.25"></path><path d="M 714.75 69 h 4.25"></path><rect height="22" rx="10" ry="10" width="54.0" x="660.75" y="58"></rect><text x="687.75" y="73">"wa"</text></g><path d="M 719.0 69 a 10 10 0 0 1 10 10 v 40 a 10 10 0 0 0 10 10"></path><path d="M 636.5 129 a 10 10 0 0 0 10 -10 v -70 a 10 10 0 0 1 10 -10"></path><g class="terminal ">
<path d="M 656.5 39 h 4.25"></path><path d="M 714.75 39 h 4.25"></path><rect height="22" rx="10" ry="10" width="54.0" x="660.75" y="28"></rect><text x="687.75" y="43">"wh"</text></g><path d="M 719.0 39 a 10 10 0 0 1 10 10 v 70 a 10 10 0 0 0 10 10"></path><path d="M 636.5 129 h 20"></path><g class="terminal ">
<path d="M 656.5 129 h 4.25"></path><path d="M 714.75 129 h 4.25"></path><rect height="22" rx="10" ry="10" width="54.0" x="660.75" y="118"></rect><text x="687.75" y="133">"xt"</text></g><path d="M 719.0 129 h 20"></path><path d="M 636.5 129 a 10 10 0 0 1 10 10 v 10 a 10 10 0 0 0 10 10"></path><g class="terminal ">
<path d="M 656.5 159 h 0.0"></path><path d="M 719.0 159 h 0.0"></path><rect height="22" rx="10" ry="10" width="62.5" x="656.5" y="148"></rect><text x="687.75" y="163">"jmp"</text></g><path d="M 719.0 159 a 10 10 0 0 0 10 -10 v -10 a 10 10 0 0 1 10 -10"></path><path d="M 636.5 129 a 10 10 0 0 1 10 10 v 40 a 10 10 0 0 0 10 10"></path><g class="terminal ">
<path d="M 656.5 189 h 4.25"></path><path d="M 714.75 189 h 4.25"></path><rect height="22" rx="10" ry="10" width="54.0" x="660.75" y="178"></rect><text x="687.75" y="193">"no"</text></g><path d="M 719.0 189 a 10 10 0 0 0 10 -10 v -40 a 10 10 0 0 1 10 -10"></path><path d="M 636.5 129 a 10 10 0 0 1 10 10 v 70 a 10 10 0 0 0 10 10"></path><g class="terminal ">
<path d="M 656.5 219 h 4.25"></path><path d="M 714.75 219 h 4.25"></path><rect height="22" rx="10" ry="10" width="54.0" x="660.75" y="208"></rect><text x="687.75" y="223">"it"</text></g><path d="M 719.0 219 a 10 10 0 0 0 10 -10 v -70 a 10 10 0 0 1 10 -10"></path><path d="M 636.5 129 a 10 10 0 0 1 10 10 v 100 a 10 10 0 0 0 10 10"></path><g class="terminal ">
<path d="M 656.5 249 h 4.25"></path><path d="M 714.75 249 h 4.25"></path><rect height="22" rx="10" ry="10" width="54.0" x="660.75" y="238"></rect><text x="687.75" y="253">"bd"</text></g><path d="M 719.0 249 a 10 10 0 0 0 10 -10 v -100 a 10 10 0 0 1 10 -10"></path></g><path d="M 739.0 129 a 10 10 0 0 1 10 10 v 119 a 10 10 0 0 0 10 10"></path><path d="M 739.0 20 a 10 10 0 0 1 10 10 v 89 a 10 10 0 0 0 10 10"></path><g>
<path d="M 759.0 129 h 0.0"></path><path d="M 870.0 129 h 0.0"></path><path d="M 759.0 129 a 10 10 0 0 0 10 -10 v -10 a 10 10 0 0 1 10 -10"></path><g class="terminal ">
<path d="M 779.0 99 h 8.5"></path><path d="M 841.5 99 h 8.5"></path><rect height="22" rx="10" ry="10" width="54.0" x="787.5" y="88"></rect><text x="814.5" y="103">"sc"</text></g><path d="M 850.0 99 a 10 10 0 0 1 10 10 v 10 a 10 10 0 0 0 10 10"></path><path d="M 759.0 129 a 10 10 0 0 0 10 -10 v -40 a 10 10 0 0 1 10 -10"></path><g class="terminal ">
<path d="M 779.0 69 h 8.5"></path><path d="M 841.5 69 h 8.5"></path><rect height="22" rx="10" ry="10" width="54.0" x="787.5" y="58"></rect><text x="814.5" y="73">"em"</text></g><path d="M 850.0 69 a 10 10 0 0 1 10 10 v 40 a 10 10 0 0 0 10 10"></path><path d="M 759.0 129 a 10 10 0 0 0 10 -10 v -70 a 10 10 0 0 1 10 -10"></path><g class="terminal ">
<path d="M 779.0 39 h 0.0"></path><path d="M 850.0 39 h 0.0"></path><rect height="22" rx="10" ry="10" width="71.0" x="779.0" y="28"></rect><text x="814.5" y="43">"bdit"</text></g><path d="M 850.0 39 a 10 10 0 0 1 10 10 v 70 a 10 10 0 0 0 10 10"></path><path d="M 759.0 129 h 20"></path><g class="terminal ">
<path d="M 779.0 129 h 4.25"></path><path d="M 845.75 129 h 4.25"></path><rect height="22" rx="10" ry="10" width="62.5" x="783.25" y="118"></rect><text x="814.5" y="133">"sup"</text></g><path d="M 850.0 129 h 20"></path></g><path d="M 870.0 129 h 10"></path></g></g><path d="M 141.0 416 h 20"></path><g>
<path d="M 161.0 416 h 137.25"></path><path d="M 882.75 416 h 137.25"></path><g>
<path d="M 298.25 416 h 0.0"></path><path d="M 783.25 416 h 0.0"></path><g class="terminal ">
<path d="M 298.25 416 h 0.0"></path><path d="M 352.25 416 h 0.0"></path><rect height="22" rx="10" ry="10" width="54.0" x="298.25" y="405"></rect><text x="325.25" y="420">text</text></g><path d="M 352.25 416 h 10"></path><g>
<path d="M 362.25 416 h 0.0"></path><path d="M 783.25 416 h 0.0"></path><path d="M 362.25 416 a 10 10 0 0 0 10 -10 v 0 a 10 10 0 0 1 10 -10"></path><g>
<path d="M 382.25 396 h 381.0"></path></g><path d="M 763.25 396 a 10 10 0 0 1 10 10 v 0 a 10 10 0 0 0 10 10"></path><path d="M 362.25 416 h 20"></path><g>
<path d="M 382.25 416 h 0.0"></path><path d="M 763.25 416 h 0.0"></path><path d="M 382.25 416 h 10"></path><g>
<path d="M 392.25 416 h 0.0"></path><path d="M 753.25 416 h 0.0"></path><path d="M 392.25 416 h 20"></path><g class="non-terminal ">
<path d="M 412.25 416 h 112.25"></path><path d="M 621.0 416 h 112.25"></path><rect height="22" width="96.5" x="524.5" y="405"></rect><text x="572.75" y="420">Reference</text></g><path d="M 733.25 416 h 20"></path><path d="M 392.25 416 a 10 10 0 0 1 10 10 v 10 a 10 10 0 0 0 10 10"></path><g class="non-terminal ">
<path d="M 412.25 446 h 112.25"></path><path d="M 621.0 446 h 112.25"></path><rect height="22" width="96.5" x="524.5" y="435"></rect><text x="572.75" y="450">CharEmbed</text></g><path d="M 733.25 446 a 10 10 0 0 0 10 -10 v -10 a 10 10 0 0 1 10 -10"></path><path d="M 392.25 416 a 10 10 0 0 1 10 10 v 40 a 10 10 0 0 0 10 10"></path><g class="non-terminal ">
<path d="M 412.25 476 h 112.25"></path><path d="M 621.0 476 h 112.25"></path><rect height="22" width="96.5" x="524.5" y="465"></rect><text x="572.75" y="480">Milestone</text></g><path d="M 733.25 476 a 10 10 0 0 0 10 -10 v -40 a 10 10 0 0 1 10 -10"></path><path d="M 392.25 416 a 10 10 0 0 1 10 10 v 70 a 10 10 0 0 0 10 10"></path><g class="non-terminal ">
<path d="M 412.25 506 h 116.5"></path><path d="M 616.75 506 h 116.5"></path><rect height="22" width="88.0" x="528.75" y="495"></rect><text x="572.75" y="510">Footnote</text></g><path d="M 733.25 506 a 10 10 0 0 0 10 -10 v -70 a 10 10 0 0 1 10 -10"></path><path d="M 392.25 416 a 10 10 0 0 1 10 10 v 100 a 10 10 0 0 0 10 10"></path><g>
<path d="M 412.25 536 h 0.0"></path><path d="M 733.25 536 h 0.0"></path><g class="terminal ">
<path d="M 412.25 536 h 0.0"></path><path d="M 517.25 536 h 0.0"></path><rect height="22" rx="10" ry="10" width="105.0" x="412.25" y="525"></rect><text x="464.75" y="540">&#60;optbreak></text></g><path d="M 517.25 536 h 10"></path><path d="M 527.25 536 h 10"></path><g>
<path d="M 537.25 536 h 0.0"></path><path d="M 733.25 536 h 0.0"></path><g class="terminal ">
<path d="M 537.25 536 h 0.0"></path><path d="M 599.75 536 h 0.0"></path><rect height="22" rx="10" ry="10" width="62.5" x="537.25" y="525"></rect><text x="568.5" y="540">empty</text></g><path d="M 599.75 536 h 10"></path><path d="M 609.75 536 h 10"></path><g class="terminal ">
<path d="M 619.75 536 h 0.0"></path><path d="M 733.25 536 h 0.0"></path><rect height="22" rx="10" ry="10" width="113.5" x="619.75" y="525"></rect><text x="676.5" y="540">&#60;/optbreak></text></g></g></g><path d="M 733.25 536 a 10 10 0 0 0 10 -10 v -100 a 10 10 0 0 1 10 -10"></path><path d="M 392.25 416 a 10 10 0 0 1 10 10 v 130 a 10 10 0 0 0 10 10"></path><g class="terminal ">
<path d="M 412.25 566 h 133.5"></path><path d="M 599.75 566 h 133.5"></path><rect height="22" rx="10" ry="10" width="54.0" x="545.75" y="555"></rect><text x="572.75" y="570">text</text></g><path d="M 733.25 566 a 10 10 0 0 0 10 -10 v -130 a 10 10 0 0 1 10 -10"></path></g><path d="M 753.25 416 h 10"></path><path d="M 392.25 416 a 10 10 0 0 0 -10 10 v 149 a 10 10 0 0 0 10 10"></path><g>
<path d="M 392.25 585 h 361.0"></path></g><path d="M 753.25 585 a 10 10 0 0 0 10 -10 v -149 a 10 10 0 0 0 -10 -10"></path></g><path d="M 763.25 416 h 20"></path></g></g><path d="M 783.25 416 h 10"></path><path d="M 793.25 416 h 10"></path><g class="terminal ">
<path d="M 803.25 416 h 0.0"></path><path d="M 882.75 416 h 0.0"></path><rect height="22" rx="10" ry="10" width="79.5" x="803.25" y="405"></rect><text x="843.0" y="420">&#60;/char></text></g></g><path d="M 1020.0 416 h 20"></path></g></g><path d="M 1040.0 416 h 20"></path><path d="M 40.0 416 a 10 10 0 0 1 10 10 v 168 a 10 10 0 0 0 10 10"></path><g>
<path d="M 60.0 604 h 341.0"></path><path d="M 699.0 604 h 341.0"></path><path d="M 401.0 604 h 20"></path><g class="non-terminal ">
<path d="M 421.0 604 h 4.25"></path><path d="M 674.75 604 h 4.25"></path><rect height="22" width="249.5" x="425.25" y="593"></rect><text x="550.0" y="608">CharWithAttrib.char.style.w</text></g><path d="M 679.0 604 h 20"></path><path d="M 401.0 604 a 10 10 0 0 1 10 10 v 10 a 10 10 0 0 0 10 10"></path><g class="non-terminal ">
<path d="M 421.0 634 h 0.0"></path><path d="M 679.0 634 h 0.0"></path><rect height="22" width="258.0" x="421.0" y="623"></rect><text x="550.0" y="638">CharWithAttrib.char.style.rb</text></g><path d="M 679.0 634 a 10 10 0 0 0 10 -10 v -10 a 10 10 0 0 1 10 -10"></path></g><path d="M 1040.0 604 a 10 10 0 0 0 10 -10 v -168 a 10 10 0 0 1 10 -10"></path></g><path d="M 1060.0 416 h 20 m 0 -10 v 20"></path></g></svg>