<svg class="railroad-diagram" height="825" viewBox="0 0 780.0 825" width="780.0" xmlns="http://www.w3.org/2000/svg" xmlns:xlink="http://www.w3.org/1999/xlink">
<g transform="translate(.5 .5)">
<style>/* <![CDATA[ */
    svg.railroad-diagram {
        background-color:hsl(30,20%,95%);
    }
    svg.railroad-diagram path {
        stroke-width: 2;
        stroke: black;
        fill: none;
    }
    svg.railroad-diagram text {
        font-size: 12px;
        text-anchor: middle;
        font-family: DejaVu Sans;
    }
    svg.railroad-diagram text.label {
        text-anchor:start;
    }
    svg.railroad-diagram text.comment {
        font-family: DejaVu Sans;
        font-size: 14px;
    }
    svg.railroad-diagram rect{
        stroke-width: 2;
        stroke:black;
        fill: rgb(210, 210, 255);
    }
    svg.railroad-diagram rect.group-box {
        stroke: gray;
        stroke-dasharray: 10 5;
        fill: none;
    }
    .terminal {
        font-family: DejaVu Sans;
    }

/* ]]> */
</style><g>
<path d="M 20 624 v 20 m 0 -10 h 20"></path></g><path d="M 40 634 h 10"></path><g>
<path d="M 50 634 h 0.0"></path><path d="M 730.0 634 h 0.0"></path><rect class="group-box" height="769" rx="10" ry="10" width="680.0" x="50.0" y="36"></rect><g>
<path d="M 50.0 634 h 0.0"></path><path d="M 730.0 634 h 0.0"></path><path d="M 50.0 634 h 20"></path><g>
<path d="M 70.0 634 h 0.0"></path><path d="M 710.0 634 h 0.0"></path><g class="terminal ">
<path d="M 70.0 634 h 0.0"></path><path d="M 126.0 634 h 0.0"></path><rect height="22" rx="10" ry="10" width="56.0" x="70.0" y="623"></rect><text x="98.0" y="638">&#60;char></text></g><path d="M 126.0 634 h 10"></path><g>
<path d="M 136.0 634 h 0.0"></path><path d="M 710.0 634 h 0.0"></path><path d="M 136.0 634 a 10 10 0 0 0 10 -10 v -208 a 10 10 0 0 1 10 -10"></path><g>
<path d="M 156.0 406 h 0.0"></path><path d="M 500.0 406 h 0.0"></path><rect class="group-box" height="237" rx="10" ry="10" width="344.0" x="156.0" y="378"></rect><g>
<path d="M 156.0 406 h 10.0"></path><path d="M 490.0 406 h 10.0"></path><g class="terminal ">
<path d="M 166.0 406 h 0.0"></path><path d="M 210.0 406 h 0.0"></path><rect height="22" rx="10" ry="10" width="44.0" x="166.0" y="395"></rect><text x="188.0" y="410">text</text></g><path d="M 210.0 406 h 10"></path><g>
<path d="M 220.0 406 h 0.0"></path><path d="M 490.0 406 h 0.0"></path><path d="M 220.0 406 a 10 10 0 0 0 10 -10 v 0 a 10 10 0 0 1 10 -10"></path><g>
<path d="M 240.0 386 h 230.0"></path></g><path d="M 470.0 386 a 10 10 0 0 1 10 10 v 0 a 10 10 0 0 0 10 10"></path><path d="M 220.0 406 h 20"></path><g>
<path d="M 240.0 406 h 0.0"></path><path d="M 470.0 406 h 0.0"></path><path d="M 240.0 406 h 10"></path><g>
<path d="M 250.0 406 h 0.0"></path><path d="M 460.0 406 h 0.0"></path><path d="M 250.0 406 h 20"></path><g class="non-terminal ">
<path d="M 270.0 406 h 48.0"></path><path d="M 392.0 406 h 48.0"></path><rect height="22" width="74.0" x="318.0" y="395"></rect><text x="355.0" y="410">Reference</text></g><path d="M 440.0 406 h 20"></path><path d="M 250.0 406 a 10 10 0 0 1 10 10 v 10 a 10 10 0 0 0 10 10"></path><g class="non-terminal ">
<path d="M 270.0 436 h 48.0"></path><path d="M 392.0 436 h 48.0"></path><rect height="22" width="74.0" x="318.0" y="425"></rect><text x="355.0" y="440">CharEmbed</text></g><path d="M 440.0 436 a 10 10 0 0 0 10 -10 v -10 a 10 10 0 0 1 10 -10"></path><path d="M 250.0 406 a 10 10 0 0 1 10 10 v 40 a 10 10 0 0 0 10 10"></path><g class="non-terminal ">
<path d="M 270.0 466 h 48.0"></path><path d="M 392.0 466 h 48.0"></path><rect height="22" width="74.0" x="318.0" y="455"></rect><text x="355.0" y="470">Milestone</text></g><path d="M 440.0 466 a 10 10 0 0 0 10 -10 v -40 a 10 10 0 0 1 10 -10"></path><path d="M 250.0 406 a 10 10 0 0 1 10 10 v 70 a 10 10 0 0 0 10 10"></path><g class="non-terminal ">
<path d="M 270.0 496 h 51.0"></path><path d="M 389.0 496 h 51.0"></path><rect height="22" width="68.0" x="321.0" y="485"></rect><text x="355.0" y="500">Footnote</text></g><path d="M 440.0 496 a 10 10 0 0 0 10 -10 v -70 a 10 10 0 0 1 10 -10"></path><path d="M 250.0 406 a 10 10 0 0 1 10 10 v 124 a 10 10 0 0 0 10 10"></path><g>
<path d="M 270.0 550 h 0.0"></path><path d="M 440.0 550 h 0.0"></path><rect class="group-box" height="38" rx="10" ry="10" width="170.0" x="270.0" y="531"></rect><g>
<path d="M 270.0 550 h 10.0"></path><path d="M 430.0 550 h 10.0"></path><g class="terminal ">
<path d="M 280.0 550 h 0.0"></path><path d="M 360.0 550 h 0.0"></path><rect height="22" rx="10" ry="10" width="80.0" x="280.0" y="539"></rect><text x="320.0" y="554">&#60;optbreak></text></g><path d="M 360.0 550 h 10"></path><path d="M 370.0 550 h 10"></path><g class="terminal ">
<path d="M 380.0 550 h 0.0"></path><path d="M 430.0 550 h 0.0"></path><rect height="22" rx="10" ry="10" width="50.0" x="380.0" y="539"></rect><text x="405.0" y="554">empty</text></g></g><g class="non-terminal ">
<path d="M 270.0 523 h 0.0"></path><path d="M 315.0 523 h 0.0"></path><text class="comment" x="292.5" y="528">Break</text></g></g><path d="M 440.0 550 a 10 10 0 0 0 10 -10 v -124 a 10 10 0 0 1 10 -10"></path><path d="M 250.0 406 a 10 10 0 0 1 10 10 v 162 a 10 10 0 0 0 10 10"></path><g class="terminal ">
<path d="M 270.0 588 h 63.0"></path><path d="M 377.0 588 h 63.0"></path><rect height="22" rx="10" ry="10" width="44.0" x="333.0" y="577"></rect><text x="355.0" y="592">text</text></g><path d="M 440.0 588 a 10 10 0 0 0 10 -10 v -162 a 10 10 0 0 1 10 -10"></path></g><path d="M 460.0 406 h 10"></path><path d="M 250.0 406 a 10 10 0 0 0 -10 10 v 181 a 10 10 0 0 0 10 10"></path><g>
<path d="M 250.0 607 h 210.0"></path></g><path d="M 460.0 607 a 10 10 0 0 0 10 -10 v -181 a 10 10 0 0 0 -10 -10"></path></g><path d="M 470.0 406 h 20"></path></g></g><g class="non-terminal ">
<path d="M 156.0 370 h 0.0"></path><path d="M 243.0 370 h 0.0"></path><text class="comment" x="199.5" y="375">CharContent</text></g></g><path d="M 136.0 634 a 10 10 0 0 0 10 -10 v -437 a 10 10 0 0 1 10 -10"></path><g>
<path d="M 156.0 177 h 0.0"></path><path d="M 690.0 177 h 0.0"></path><g class="terminal ">
<path d="M 156.0 177 h 0.0"></path><path d="M 212.0 177 h 0.0"></path><rect height="22" rx="10" ry="10" width="56.0" x="156.0" y="166"></rect><text x="184.0" y="181">@style</text></g><path d="M 212.0 177 h 10"></path><path d="M 222.0 177 h 10"></path><g>
<path d="M 232.0 177 h 0.0"></path><path d="M 690.0 177 h 0.0"></path><rect class="group-box" height="294" rx="10" ry="10" width="458.0" x="232.0" y="60"></rect><g>
<path d="M 232.0 177 h 0.0"></path><path d="M 690.0 177 h 0.0"></path><path d="M 232.0 177 a 10 10 0 0 0 10 -10 v -89 a 10 10 0 0 1 10 -10 h 312.0"></path><path d="M 232.0 177 h 10"></path><g>
<path d="M 242.0 177 h 0.0"></path><path d="M 344.0 177 h 0.0"></path><path d="M 242.0 177 a 10 10 0 0 0 10 -10 v -10 a 10 10 0 0 1 10 -10"></path><g class="terminal ">
<path d="M 262.0 147 h 0.0"></path><path d="M 306.0 147 h 0.0"></path><rect height="22" rx="10" ry="10" width="44.0" x="262.0" y="136"></rect><text x="284.0" y="151">"ca"</text></g><path d="M 242.0 177 a 10 10 0 0 0 10 -10 v -40 a 10 10 0 0 1 10 -10"></path><g class="terminal ">
<path d="M 262.0 117 h 0.0"></path><path d="M 306.0 117 h 0.0"></path><rect height="22" rx="10" ry="10" width="44.0" x="262.0" y="106"></rect><text x="284.0" y="121">"vp"</text></g><path d="M 242.0 177 a 10 10 0 0 0 10 -10 v -70 a 10 10 0 0 1 10 -10"></path><g class="terminal ">
<path d="M 262.0 87 h 0.0"></path><path d="M 306.0 87 h 0.0"></path><rect height="22" rx="10" ry="10" width="44.0" x="262.0" y="76"></rect><text x="284.0" y="91">"va"</text></g><path d="M 242.0 177 h 20"></path><g class="terminal ">
<path d="M 262.0 177 h 0.0"></path><path d="M 312.0 177 h 0.0"></path><rect height="22" rx="10" ry="10" width="50.0" x="262.0" y="166"></rect><text x="287.0" y="181">"qac"</text></g><path d="M 242.0 177 a 10 10 0 0 1 10 10 v 10 a 10 10 0 0 0 10 10"></path><g class="terminal ">
<path d="M 262.0 207 h 0.0"></path><path d="M 306.0 207 h 0.0"></path><rect height="22" rx="10" ry="10" width="44.0" x="262.0" y="196"></rect><text x="284.0" y="211">"qs"</text></g><path d="M 242.0 177 a 10 10 0 0 1 10 10 v 40 a 10 10 0 0 0 10 10"></path><g class="terminal ">
<path d="M 262.0 237 h 0.0"></path><path d="M 312.0 237 h 0.0"></path><rect height="22" rx="10" ry="10" width="50.0" x="262.0" y="226"></rect><text x="287.0" y="241">"add"</text></g><path d="M 242.0 177 a 10 10 0 0 1 10 10 v 70 a 10 10 0 0 0 10 10"></path><g class="terminal ">
<path d="M 262.0 267 h 0.0"></path><path d="M 324.0 267 h 0.0"></path><rect height="22" rx="10" ry="10" width="62.0" x="262.0" y="256"></rect><text x="293.0" y="271">"addpn"</text></g><path d="M 242.0 177 a 10 10 0 0 1 10 10 v 100 a 10 10 0 0 0 10 10"></path><g class="terminal ">
<path d="M 262.0 297 h 0.0"></path><path d="M 306.0 297 h 0.0"></path><rect height="22" rx="10" ry="10" width="44.0" x="262.0" y="286"></rect><text x="284.0" y="301">"bk"</text></g><path d="M 242.0 177 a 10 10 0 0 1 10 10 v 130 a 10 10 0 0 0 10 10"></path><g class="terminal ">
<path d="M 262.0 327 h 0.0"></path><path d="M 306.0 327 h 0.0"></path><rect height="22" rx="10" ry="10" width="44.0" x="262.0" y="316"></rect><text x="284.0" y="331">"dc"</text></g></g><path d="M 344.0 68 a 10 10 0 0 1 10 10 v 89 a 10 10 0 0 0 10 10"></path><g>
<path d="M 364.0 177 h 0.0"></path><path d="M 454.0 177 h 0.0"></path><path d="M 364.0 177 a 10 10 0 0 0 10 -10 v -10 a 10 10 0 0 1 10 -10"></path><g class="terminal ">
<path d="M 384.0 147 h 0.0"></path><path d="M 422.0 147 h 0.0"></path><rect height="22" rx="10" ry="10" width="38.0" x="384.0" y="136"></rect><text x="403.0" y="151">"k"</text></g><path d="M 364.0 177 a 10 10 0 0 0 10 -10 v -40 a 10 10 0 0 1 10 -10"></path><g class="terminal ">
<path d="M 384.0 117 h 0.0"></path><path d="M 428.0 117 h 0.0"></path><rect height="22" rx="10" ry="10" width="44.0" x="384.0" y="106"></rect><text x="406.0" y="121">"fm"</text></g><path d="M 364.0 177 a 10 10 0 0 0 10 -10 v -70 a 10 10 0 0 1 10 -10"></path><g class="terminal ">
<path d="M 384.0 87 h 0.0"></path><path d="M 434.0 87 h 0.0"></path><rect height="22" rx="10" ry="10" width="50.0" x="384.0" y="76"></rect><text x="409.0" y="91">"efm"</text></g><path d="M 364.0 177 h 20"></path><g class="terminal ">
<path d="M 384.0 177 h 0.0"></path><path d="M 428.0 177 h 0.0"></path><rect height="22" rx="10" ry="10" width="44.0" x="384.0" y="166"></rect><text x="406.0" y="181">"nd"</text></g><path d="M 364.0 177 a 10 10 0 0 1 10 10 v 10 a 10 10 0 0 0 10 10"></path><g class="terminal ">
<path d="M 384.0 207 h 0.0"></path><path d="M 434.0 207 h 0.0"></path><rect height="22" rx="10" ry="10" width="50.0" x="384.0" y="196"></rect><text x="409.0" y="211">"ndx"</text></g><path d="M 364.0 177 a 10 10 0 0 1 10 10 v 40 a 10 10 0 0 0 10 10"></path><g class="terminal ">
<path d="M 384.0 237 h 0.0"></path><path d="M 434.0 237 h 0.0"></path><rect height="22" rx="10" ry="10" width="50.0" x="384.0" y="226"></rect><text x="409.0" y="241">"ord"</text></g><path d="M 364.0 177 a 10 10 0 0 1 10 10 v 70 a 10 10 0 0 0 10 10"></path><g class="terminal ">
<path d="M 384.0 267 h 0.0"></path><path d="M 428.0 267 h 0.0"></path><rect height="22" rx="10" ry="10" width="44.0" x="384.0" y="256"></rect><text x="406.0" y="271">"pn"</text></g><path d="M 364.0 177 a 10 10 0 0 1 10 10 v 100 a 10 10 0 0 0 10 10"></path><g class="terminal ">
<path d="M 384.0 297 h 0.0"></path><path d="M 434.0 297 h 0.0"></path><rect height="22" rx="10" ry="10" width="50.0" x="384.0" y="286"></rect><text x="409.0" y="301">"png"</text></g><path d="M 364.0 177 a 10 10 0 0 1 10 10 v 130 a 10 10 0 0 0 10 10"></path><g class="terminal ">
<path d="M 384.0 327 h 0.0"></path><path d="M 434.0 327 h 0.0"></path><rect height="22" rx="10" ry="10" width="50.0" x="384.0" y="316"></rect><text x="409.0" y="331">"pro"</text></g></g><path d="M 454.0 68 a 10 10 0 0 1 10 10 v 89 a 10 10 0 0 0 10 10"></path><g>
<path d="M 474.0 177 h 0.0"></path><path d="M 564.0 177 h 0.0"></path><path d="M 474.0 177 a 10 10 0 0 0 10 -10 v -10 a 10 10 0 0 1 10 -10"></path><g class="terminal ">
<path d="M 494.0 147 h 0.0"></path><path d="M 544.0 147 h 0.0"></path><rect height="22" rx="10" ry="10" width="50.0" x="494.0" y="136"></rect><text x="519.0" y="151">"sig"</text></g><path d="M 474.0 177 a 10 10 0 0 0 10 -10 v -40 a 10 10 0 0 1 10 -10"></path><g class="terminal ">
<path d="M 494.0 117 h 0.0"></path><path d="M 538.0 117 h 0.0"></path><rect height="22" rx="10" ry="10" width="44.0" x="494.0" y="106"></rect><text x="516.0" y="121">"rq"</text></g><path d="M 474.0 177 a 10 10 0 0 0 10 -10 v -70 a 10 10 0 0 1 10 -10"></path><g class="terminal ">
<path d="M 494.0 87 h 0.0"></path><path d="M 538.0 87 h 0.0"></path><rect height="22" rx="10" ry="10" width="44.0" x="494.0" y="76"></rect><text x="516.0" y="91">"qt"</text></g><path d="M 474.0 177 h 20"></path><g class="terminal ">
<path d="M 494.0 177 h 0.0"></path><path d="M 544.0 177 h 0.0"></path><rect height="22" rx="10" ry="10" width="50.0" x="494.0" y="166"></rect><text x="519.0" y="181">"sls"</text></g><path d="M 474.0 177 a 10 10 0 0 1 10 10 v 10 a 10 10 0 0 0 10 10"></path><g class="terminal ">
<path d="M 494.0 207 h 0.0"></path><path d="M 538.0 207 h 0.0"></path><rect height="22" rx="10" ry="10" width="44.0" x="494.0" y="196"></rect><text x="516.0" y="211">"tl"</text></g><path d="M 474.0 177 a 10 10 0 0 1 10 10 v 40 a 10 10 0 0 0 10 10"></path><g class="terminal ">
<path d="M 494.0 237 h 0.0"></path><path d="M 538.0 237 h 0.0"></path><rect height="22" rx="10" ry="10" width="44.0" x="494.0" y="226"></rect><text x="516.0" y="241">"wg"</text></g><path d="M 474.0 177 a 10 10 0 0 1 10 10 v 70 a 10 10 0 0 0 10 10"></path><g class="terminal ">
<path d="M 494.0 267 h 0.0"></path><path d="M 538.0 267 h 0.0"></path><rect height="22" rx="10" ry="10" width="44.0" x="494.0" y="256"></rect><text x="516.0" y="271">"wh"</text></g><path d="M 474.0 177 a 10 10 0 0 1 10 10 v 100 a 10 10 0 0 0 10 10"></path><g class="terminal ">
<path d="M 494.0 297 h 0.0"></path><path d="M 538.0 297 h 0.0"></path><rect height="22" rx="10" ry="10" width="44.0" x="494.0" y="286"></rect><text x="516.0" y="301">"wa"</text></g><path d="M 474.0 177 a 10 10 0 0 1 10 10 v 130 a 10 10 0 0 0 10 10"></path><g class="terminal ">
<path d="M 494.0 327 h 0.0"></path><path d="M 538.0 327 h 0.0"></path><rect height="22" rx="10" ry="10" width="44.0" x="494.0" y="316"></rect><text x="516.0" y="331">"wj"</text></g></g><path d="M 564.0 68 a 10 10 0 0 1 10 10 v 89 a 10 10 0 0 0 10 10"></path><g>
<path d="M 584.0 177 h 0.0"></path><path d="M 680.0 177 h 0.0"></path><path d="M 584.0 177 a 10 10 0 0 0 10 -10 v -10 a 10 10 0 0 1 10 -10"></path><g class="terminal ">
<path d="M 604.0 147 h 0.0"></path><path d="M 648.0 147 h 0.0"></path><rect height="22" rx="10" ry="10" width="44.0" x="604.0" y="136"></rect><text x="626.0" y="151">"no"</text></g><path d="M 584.0 177 a 10 10 0 0 0 10 -10 v -40 a 10 10 0 0 1 10 -10"></path><g class="terminal ">
<path d="M 604.0 117 h 0.0"></path><path d="M 654.0 117 h 0.0"></path><rect height="22" rx="10" ry="10" width="50.0" x="604.0" y="106"></rect><text x="629.0" y="121">"jmp"</text></g><path d="M 584.0 177 a 10 10 0 0 0 10 -10 v -70 a 10 10 0 0 1 10 -10"></path><g class="terminal ">
<path d="M 604.0 87 h 0.0"></path><path d="M 648.0 87 h 0.0"></path><rect height="22" rx="10" ry="10" width="44.0" x="604.0" y="76"></rect><text x="626.0" y="91">"xt"</text></g><path d="M 584.0 177 h 20"></path><g class="terminal ">
<path d="M 604.0 177 h 0.0"></path><path d="M 648.0 177 h 0.0"></path><rect height="22" rx="10" ry="10" width="44.0" x="604.0" y="166"></rect><text x="626.0" y="181">"it"</text></g><path d="M 584.0 177 a 10 10 0 0 1 10 10 v 10 a 10 10 0 0 0 10 10"></path><g class="terminal ">
<path d="M 604.0 207 h 0.0"></path><path d="M 648.0 207 h 0.0"></path><rect height="22" rx="10" ry="10" width="44.0" x="604.0" y="196"></rect><text x="626.0" y="211">"bd"</text></g><path d="M 584.0 177 a 10 10 0 0 1 10 10 v 40 a 10 10 0 0 0 10 10"></path><g class="terminal ">
<path d="M 604.0 237 h 0.0"></path><path d="M 660.0 237 h 0.0"></path><rect height="22" rx="10" ry="10" width="56.0" x="604.0" y="226"></rect><text x="632.0" y="241">"bdit"</text></g><path d="M 584.0 177 a 10 10 0 0 1 10 10 v 70 a 10 10 0 0 0 10 10"></path><g class="terminal ">
<path d="M 604.0 267 h 0.0"></path><path d="M 648.0 267 h 0.0"></path><rect height="22" rx="10" ry="10" width="44.0" x="604.0" y="256"></rect><text x="626.0" y="271">"em"</text></g><path d="M 584.0 177 a 10 10 0 0 1 10 10 v 100 a 10 10 0 0 0 10 10"></path><g class="terminal ">
<path d="M 604.0 297 h 0.0"></path><path d="M 648.0 297 h 0.0"></path><rect height="22" rx="10" ry="10" width="44.0" x="604.0" y="286"></rect><text x="626.0" y="301">"sc"</text></g><path d="M 584.0 177 a 10 10 0 0 1 10 10 v 130 a 10 10 0 0 0 10 10"></path><g class="terminal ">
<path d="M 604.0 327 h 0.0"></path><path d="M 654.0 327 h 0.0"></path><rect height="22" rx="10" ry="10" width="50.0" x="604.0" y="316"></rect><text x="629.0" y="331">"sup"</text></g></g></g><g class="non-terminal ">
<path d="M 232.0 52 h 0.0"></path><path d="M 382.0 52 h 0.0"></path><text class="comment" x="307.0" y="57">Char.char.style.enum</text></g></g></g><path d="M 136.0 634 h 20"></path><g>
<path d="M 156.0 634 h 72.0"></path><path d="M 618.0 634 h 72.0"></path><g>
<path d="M 228.0 634 h 0.0"></path><path d="M 360.0 634 h 0.0"></path><g class="terminal ">
<path d="M 228.0 634 h 0.0"></path><path d="M 296.0 634 h 0.0"></path><rect height="22" rx="10" ry="10" width="68.0" x="228.0" y="623"></rect><text x="262.0" y="638">@closed?</text></g><path d="M 296.0 634 h 10"></path><path d="M 306.0 634 h 10"></path><g class="terminal ">
<path d="M 316.0 634 h 0.0"></path><path d="M 360.0 634 h 0.0"></path><rect height="22" rx="10" ry="10" width="44.0" x="316.0" y="623"></rect><text x="338.0" y="638">BOOL</text></g></g><path d="M 360.0 634 h 10"></path><path d="M 370.0 634 h 10"></path><g>
<path d="M 380.0 634 h 0.0"></path><path d="M 618.0 634 h 0.0"></path><path d="M 410.0 634 h 10"></path><g>
<path d="M 420.0 634 h 0.0"></path><path d="M 588.0 634 h 0.0"></path><g class="terminal ">
<path d="M 420.0 634 h 0.0"></path><path d="M 512.0 634 h 0.0"></path><rect height="22" rx="10" ry="10" width="92.0" x="420.0" y="623"></rect><text x="466.0" y="638">@link-title?</text></g><path d="M 512.0 634 h 10"></path><path d="M 522.0 634 h 10"></path><g class="terminal ">
<path d="M 532.0 634 h 0.0"></path><path d="M 588.0 634 h 0.0"></path><rect height="22" rx="10" ry="10" width="56.0" x="532.0" y="623"></rect><text x="560.0" y="638">string</text></g></g><path d="M 588.0 634 h 10"></path><path d="M 410.0 634 v 20 a 10 10 0 0 0 10 10"></path><g>
<path d="M 420.0 664 h 9.0"></path><path d="M 579.0 664 h 9.0"></path><g class="terminal ">
<path d="M 429.0 664 h 0.0"></path><path d="M 503.0 664 h 0.0"></path><rect height="22" rx="10" ry="10" width="74.0" x="429.0" y="653"></rect><text x="466.0" y="668">@link-id?</text></g><path d="M 503.0 664 h 10"></path><path d="M 513.0 664 h 10"></path><g class="terminal ">
<path d="M 523.0 664 h 0.0"></path><path d="M 579.0 664 h 0.0"></path><rect height="22" rx="10" ry="10" width="56.0" x="523.0" y="653"></rect><text x="551.0" y="668">string</text></g></g><path d="M 588.0 664 a 10 10 0 0 0 10 -10 v -10"></path><path d="M 410.0 634 v 50 a 10 10 0 0 0 10 10"></path><g>
<path d="M 420.0 694 h 3.0"></path><path d="M 585.0 694 h 3.0"></path><g class="terminal ">
<path d="M 423.0 694 h 0.0"></path><path d="M 509.0 694 h 0.0"></path><rect height="22" rx="10" ry="10" width="86.0" x="423.0" y="683"></rect><text x="466.0" y="698">@link-href?</text></g><path d="M 509.0 694 h 10"></path><path d="M 519.0 694 h 10"></path><g class="terminal ">
<path d="M 529.0 694 h 0.0"></path><path d="M 585.0 694 h 0.0"></path><rect height="22" rx="10" ry="10" width="56.0" x="529.0" y="683"></rect><text x="557.0" y="698">string</text></g></g><path d="M 588.0 694 a 10 10 0 0 0 10 -10 v -40"></path><g class="diagram-text">
<title>take all branches, once each, in any order</title><path class="diagram-text" d="M 410.0 624 h -26 a 4 4 0 0 0 -4 4 v 12 a 4 4 0 0 0 4 4 h 26 z"></path><text class="diagram-text" x="395.0" y="638">all</text><path class="diagram-text" d="M 598.0 624 h 16 a 4 4 0 0 1 4 4 v 12 a 4 4 0 0 1 -4 4 h -16 z"></path><text class="diagram-arrow" x="608.0" y="638">↺</text></g></g></g><path d="M 690.0 634 h 20"></path></g></g><path d="M 710.0 634 h 20"></path><path d="M 50.0 634 a 10 10 0 0 1 10 10 v 94 a 10 10 0 0 0 10 10"></path><g>
<path d="M 70.0 748 h 206.0"></path><path d="M 504.0 748 h 206.0"></path><rect class="group-box" height="68" rx="10" ry="10" width="228.0" x="276.0" y="729"></rect><g>
<path d="M 276.0 748 h 0.0"></path><path d="M 504.0 748 h 0.0"></path><path d="M 276.0 748 h 20"></path><g class="non-terminal ">
<path d="M 296.0 748 h 3.0"></path><path d="M 481.0 748 h 3.0"></path><rect height="22" width="182.0" x="299.0" y="737"></rect><text x="390.0" y="752">CharWithAttrib.char.style.w</text></g><path d="M 484.0 748 h 20"></path><path d="M 276.0 748 a 10 10 0 0 1 10 10 v 10 a 10 10 0 0 0 10 10"></path><g class="non-terminal ">
<path d="M 296.0 778 h 0.0"></path><path d="M 484.0 778 h 0.0"></path><rect height="22" width="188.0" x="296.0" y="767"></rect><text x="390.0" y="782">CharWithAttrib.char.style.rb</text></g><path d="M 484.0 778 a 10 10 0 0 0 10 -10 v -10 a 10 10 0 0 1 10 -10"></path></g><g class="non-terminal ">
<path d="M 276.0 721 h 0.0"></path><path d="M 419.0 721 h 0.0"></path><text class="comment" x="347.5" y="726">CharWithAttrib.enum</text></g></g><path d="M 710.0 748 a 10 10 0 0 0 10 -10 v -94 a 10 10 0 0 1 10 -10"></path></g><g class="non-terminal ">
<path d="M 50.0 28 h 0.0"></path><path d="M 88.0 28 h 0.0"></path><text class="comment" x="69.0" y="33">Char</text></g></g><path d="M 730.0 634 h 10"></path><path d="M 740.0 634 h 20 m 0 -10 v 20"></path></g></svg>