<svg class="railroad-diagram" height="766" viewBox="0 0 1175.0 766" width="1175.0" xmlns="http://www.w3.org/2000/svg" xmlns:xlink="http://www.w3.org/1999/xlink">
<g transform="translate(.5 .5)">
<style>/* <![CDATA[ */

    svg.railroad-diagram {
        background-color: hsl(30,20%,95%);
    }
    svg.railroad-diagram path {
        stroke-width: 2;
        stroke: black;
        fill: none;
    }
    svg.railroad-diagram text {
        font-size: 12px;
        text-anchor: middle;
        font-family: DejaVu Sans;
    }
    svg.railroad-diagram text.label {
        text-anchor:start;
    }
    svg.railroad-diagram text.comment {
        font-family: DejaVu Sans;
        font-size: 14px;
    }
    svg.railroad-diagram rect{
        stroke-width: 2;
        stroke: black;
        fill: rgb(210, 255, 210);
    }
    svg.railroad-diagram rect.group-box {
        stroke: gray;
        stroke-dasharray: 10 5;
        fill: none;
    }
    .terminal {
        font-family: DejaVu Sans;
    }
    svg.railroad-diagram g.altterminal rect {
        fill: rgb(251, 252, 207)
    }

/* ]]> */
</style><g>
<path d="M 20 153 v 20 m 0 -10 h 20"></path></g><path d="M 40 163 h 10"></path><g>
<path d="M 50 163 h 0.0"></path><path d="M 1125.0 468 h 0.0"></path><g>
<path d="M 50.0 163 h 0.0"></path><path d="M 50.0 163 h 10"></path><g>
<path d="M 60.0 163 h 121.5"></path><path d="M 993.5 163 h 121.5"></path><g class="terminal ">
<path d="M 181.5 163 h 0.0"></path><path d="M 235.5 163 h 0.0"></path><rect height="22" rx="10" ry="10" width="54.0" x="181.5" y="152"></rect><text x="208.5" y="167">'\\'</text></g><path d="M 235.5 163 h 10"></path><path d="M 245.5 163 h 10"></path><g>
<path d="M 255.5 163 h 0.0"></path><path d="M 862.5 163 h 0.0"></path><rect class="group-box" height="404" rx="10" ry="10" width="607.0" x="255.5" y="36"></rect><g>
<path d="M 255.5 163 h 10.0"></path><path d="M 852.5 163 h 10.0"></path><g>
<path d="M 265.5 163 h 0.0"></path><path d="M 852.5 163 h 0.0"></path><path d="M 265.5 163 a 10 10 0 0 0 10 -10 v -99 a 10 10 0 0 1 10 -10 h 423.0"></path><path d="M 435.0 432 h 397.5 a 10 10 0 0 0 10 -10 v -249 a 10 10 0 0 1 10 -10"></path><path d="M 265.5 163 h 10"></path><g>
<path d="M 275.5 163 h 10.0"></path><path d="M 405.0 163 h 10.0"></path><path d="M 285.5 163 a 10 10 0 0 0 10 -10 v -10 a 10 10 0 0 1 10 -10"></path><g class="terminal ">
<path d="M 305.5 133 h 12.75"></path><path d="M 372.25 133 h 12.75"></path><rect height="22" rx="10" ry="10" width="54.0" x="318.25" y="122"></rect><text x="345.25" y="137">"qs"</text></g><path d="M 385.0 133 a 10 10 0 0 1 10 10 v 10 a 10 10 0 0 0 10 10"></path><path d="M 285.5 163 a 10 10 0 0 0 10 -10 v -40 a 10 10 0 0 1 10 -10"></path><g class="terminal ">
<path d="M 305.5 103 h 8.5"></path><path d="M 376.5 103 h 8.5"></path><rect height="22" rx="10" ry="10" width="62.5" x="314.0" y="92"></rect><text x="345.25" y="107">"qac"</text></g><path d="M 385.0 103 a 10 10 0 0 1 10 10 v 40 a 10 10 0 0 0 10 10"></path><path d="M 285.5 163 a 10 10 0 0 0 10 -10 v -70 a 10 10 0 0 1 10 -10"></path><g class="terminal ">
<path d="M 305.5 73 h 12.75"></path><path d="M 372.25 73 h 12.75"></path><rect height="22" rx="10" ry="10" width="54.0" x="318.25" y="62"></rect><text x="345.25" y="77">"vp"</text></g><path d="M 385.0 73 a 10 10 0 0 1 10 10 v 70 a 10 10 0 0 0 10 10"></path><path d="M 285.5 163 h 20"></path><g class="terminal ">
<path d="M 305.5 163 h 8.5"></path><path d="M 376.5 163 h 8.5"></path><rect height="22" rx="10" ry="10" width="62.5" x="314.0" y="152"></rect><text x="345.25" y="167">"add"</text></g><path d="M 385.0 163 h 20"></path><path d="M 285.5 163 a 10 10 0 0 1 10 10 v 10 a 10 10 0 0 0 10 10"></path><g class="terminal ">
<path d="M 305.5 193 h 0.0"></path><path d="M 385.0 193 h 0.0"></path><rect height="22" rx="10" ry="10" width="79.5" x="305.5" y="182"></rect><text x="345.25" y="197">"addpn"</text></g><path d="M 385.0 193 a 10 10 0 0 0 10 -10 v -10 a 10 10 0 0 1 10 -10"></path><path d="M 285.5 163 a 10 10 0 0 1 10 10 v 40 a 10 10 0 0 0 10 10"></path><g class="terminal ">
<path d="M 305.5 223 h 12.75"></path><path d="M 372.25 223 h 12.75"></path><rect height="22" rx="10" ry="10" width="54.0" x="318.25" y="212"></rect><text x="345.25" y="227">"bk"</text></g><path d="M 385.0 223 a 10 10 0 0 0 10 -10 v -40 a 10 10 0 0 1 10 -10"></path><path d="M 285.5 163 a 10 10 0 0 1 10 10 v 70 a 10 10 0 0 0 10 10"></path><g class="terminal ">
<path d="M 305.5 253 h 12.75"></path><path d="M 372.25 253 h 12.75"></path><rect height="22" rx="10" ry="10" width="54.0" x="318.25" y="242"></rect><text x="345.25" y="257">"dc"</text></g><path d="M 385.0 253 a 10 10 0 0 0 10 -10 v -70 a 10 10 0 0 1 10 -10"></path><path d="M 285.5 163 a 10 10 0 0 1 10 10 v 100 a 10 10 0 0 0 10 10"></path><g class="terminal ">
<path d="M 305.5 283 h 8.5"></path><path d="M 376.5 283 h 8.5"></path><rect height="22" rx="10" ry="10" width="62.5" x="314.0" y="272"></rect><text x="345.25" y="287">"efm"</text></g><path d="M 385.0 283 a 10 10 0 0 0 10 -10 v -100 a 10 10 0 0 1 10 -10"></path><path d="M 285.5 163 a 10 10 0 0 1 10 10 v 130 a 10 10 0 0 0 10 10"></path><g class="terminal ">
<path d="M 305.5 313 h 12.75"></path><path d="M 372.25 313 h 12.75"></path><rect height="22" rx="10" ry="10" width="54.0" x="318.25" y="302"></rect><text x="345.25" y="317">"fm"</text></g><path d="M 385.0 313 a 10 10 0 0 0 10 -10 v -130 a 10 10 0 0 1 10 -10"></path><path d="M 285.5 163 a 10 10 0 0 1 10 10 v 160 a 10 10 0 0 0 10 10"></path><g class="terminal ">
<path d="M 305.5 343 h 12.75"></path><path d="M 372.25 343 h 12.75"></path><rect height="22" rx="10" ry="10" width="54.0" x="318.25" y="332"></rect><text x="345.25" y="347">"fv"</text></g><path d="M 385.0 343 a 10 10 0 0 0 10 -10 v -160 a 10 10 0 0 1 10 -10"></path><path d="M 285.5 163 a 10 10 0 0 1 10 10 v 190 a 10 10 0 0 0 10 10"></path><g class="terminal ">
<path d="M 305.5 373 h 17.0"></path><path d="M 368.0 373 h 17.0"></path><rect height="22" rx="10" ry="10" width="45.5" x="322.5" y="362"></rect><text x="345.25" y="377">"k"</text></g><path d="M 385.0 373 a 10 10 0 0 0 10 -10 v -190 a 10 10 0 0 1 10 -10"></path><path d="M 285.5 163 a 10 10 0 0 1 10 10 v 220 a 10 10 0 0 0 10 10"></path><g class="terminal ">
<path d="M 305.5 403 h 12.75"></path><path d="M 372.25 403 h 12.75"></path><rect height="22" rx="10" ry="10" width="54.0" x="318.25" y="392"></rect><text x="345.25" y="407">"nd"</text></g><path d="M 385.0 403 a 10 10 0 0 0 10 -10 v -220 a 10 10 0 0 1 10 -10"></path></g><path d="M 415.0 163 a 10 10 0 0 1 10 10 v 249 a 10 10 0 0 0 10 10"></path><path d="M 415.0 44 a 10 10 0 0 1 10 10 v 99 a 10 10 0 0 0 10 10"></path><g>
<path d="M 435.0 163 h 10.0"></path><path d="M 547.5 163 h 10.0"></path><path d="M 445.0 163 a 10 10 0 0 0 10 -10 v -10 a 10 10 0 0 1 10 -10"></path><g class="terminal ">
<path d="M 465.0 133 h 4.25"></path><path d="M 523.25 133 h 4.25"></path><rect height="22" rx="10" ry="10" width="54.0" x="469.25" y="122"></rect><text x="496.25" y="137">"pl"</text></g><path d="M 527.5 133 a 10 10 0 0 1 10 10 v 10 a 10 10 0 0 0 10 10"></path><path d="M 445.0 163 a 10 10 0 0 0 10 -10 v -40 a 10 10 0 0 1 10 -10"></path><g class="terminal ">
<path d="M 465.0 103 h 0.0"></path><path d="M 527.5 103 h 0.0"></path><rect height="22" rx="10" ry="10" width="62.5" x="465.0" y="92"></rect><text x="496.25" y="107">"ord"</text></g><path d="M 527.5 103 a 10 10 0 0 1 10 10 v 40 a 10 10 0 0 0 10 10"></path><path d="M 445.0 163 a 10 10 0 0 0 10 -10 v -70 a 10 10 0 0 1 10 -10"></path><g class="terminal ">
<path d="M 465.0 73 h 0.0"></path><path d="M 527.5 73 h 0.0"></path><rect height="22" rx="10" ry="10" width="62.5" x="465.0" y="62"></rect><text x="496.25" y="77">"ndx"</text></g><path d="M 527.5 73 a 10 10 0 0 1 10 10 v 70 a 10 10 0 0 0 10 10"></path><path d="M 445.0 163 h 20"></path><g class="terminal ">
<path d="M 465.0 163 h 0.0"></path><path d="M 527.5 163 h 0.0"></path><rect height="22" rx="10" ry="10" width="62.5" x="465.0" y="152"></rect><text x="496.25" y="167">"png"</text></g><path d="M 527.5 163 h 20"></path><path d="M 445.0 163 a 10 10 0 0 1 10 10 v 10 a 10 10 0 0 0 10 10"></path><g class="terminal ">
<path d="M 465.0 193 h 4.25"></path><path d="M 523.25 193 h 4.25"></path><rect height="22" rx="10" ry="10" width="54.0" x="469.25" y="182"></rect><text x="496.25" y="197">"pn"</text></g><path d="M 527.5 193 a 10 10 0 0 0 10 -10 v -10 a 10 10 0 0 1 10 -10"></path><path d="M 445.0 163 a 10 10 0 0 1 10 10 v 40 a 10 10 0 0 0 10 10"></path><g class="terminal ">
<path d="M 465.0 223 h 0.0"></path><path d="M 527.5 223 h 0.0"></path><rect height="22" rx="10" ry="10" width="62.5" x="465.0" y="212"></rect><text x="496.25" y="227">"pro"</text></g><path d="M 527.5 223 a 10 10 0 0 0 10 -10 v -40 a 10 10 0 0 1 10 -10"></path><path d="M 445.0 163 a 10 10 0 0 1 10 10 v 70 a 10 10 0 0 0 10 10"></path><g class="terminal ">
<path d="M 465.0 253 h 4.25"></path><path d="M 523.25 253 h 4.25"></path><rect height="22" rx="10" ry="10" width="54.0" x="469.25" y="242"></rect><text x="496.25" y="257">"qt"</text></g><path d="M 527.5 253 a 10 10 0 0 0 10 -10 v -70 a 10 10 0 0 1 10 -10"></path><path d="M 445.0 163 a 10 10 0 0 1 10 10 v 100 a 10 10 0 0 0 10 10"></path><g class="terminal ">
<path d="M 465.0 283 h 4.25"></path><path d="M 523.25 283 h 4.25"></path><rect height="22" rx="10" ry="10" width="54.0" x="469.25" y="272"></rect><text x="496.25" y="287">"rq"</text></g><path d="M 527.5 283 a 10 10 0 0 0 10 -10 v -100 a 10 10 0 0 1 10 -10"></path><path d="M 445.0 163 a 10 10 0 0 1 10 10 v 130 a 10 10 0 0 0 10 10"></path><g class="terminal ">
<path d="M 465.0 313 h 0.0"></path><path d="M 527.5 313 h 0.0"></path><rect height="22" rx="10" ry="10" width="62.5" x="465.0" y="302"></rect><text x="496.25" y="317">"sig"</text></g><path d="M 527.5 313 a 10 10 0 0 0 10 -10 v -130 a 10 10 0 0 1 10 -10"></path><path d="M 445.0 163 a 10 10 0 0 1 10 10 v 160 a 10 10 0 0 0 10 10"></path><g class="terminal ">
<path d="M 465.0 343 h 0.0"></path><path d="M 527.5 343 h 0.0"></path><rect height="22" rx="10" ry="10" width="62.5" x="465.0" y="332"></rect><text x="496.25" y="347">"sls"</text></g><path d="M 527.5 343 a 10 10 0 0 0 10 -10 v -160 a 10 10 0 0 1 10 -10"></path><path d="M 445.0 163 a 10 10 0 0 1 10 10 v 190 a 10 10 0 0 0 10 10"></path><g class="terminal ">
<path d="M 465.0 373 h 4.25"></path><path d="M 523.25 373 h 4.25"></path><rect height="22" rx="10" ry="10" width="54.0" x="469.25" y="362"></rect><text x="496.25" y="377">"tl"</text></g><path d="M 527.5 373 a 10 10 0 0 0 10 -10 v -190 a 10 10 0 0 1 10 -10"></path><path d="M 445.0 163 a 10 10 0 0 1 10 10 v 220 a 10 10 0 0 0 10 10"></path><g class="terminal ">
<path d="M 465.0 403 h 4.25"></path><path d="M 523.25 403 h 4.25"></path><rect height="22" rx="10" ry="10" width="54.0" x="469.25" y="392"></rect><text x="496.25" y="407">"wg"</text></g><path d="M 527.5 403 a 10 10 0 0 0 10 -10 v -220 a 10 10 0 0 1 10 -10"></path></g><path d="M 557.5 163 a 10 10 0 0 1 10 10 v 249 a 10 10 0 0 0 10 10"></path><path d="M 557.5 44 a 10 10 0 0 1 10 10 v 99 a 10 10 0 0 0 10 10"></path><g>
<path d="M 577.5 163 h 10.0"></path><path d="M 698.5 163 h 10.0"></path><path d="M 587.5 163 a 10 10 0 0 0 10 -10 v -10 a 10 10 0 0 1 10 -10"></path><g class="terminal ">
<path d="M 607.5 133 h 8.5"></path><path d="M 670.0 133 h 8.5"></path><rect height="22" rx="10" ry="10" width="54.0" x="616.0" y="122"></rect><text x="643.0" y="137">"wj"</text></g><path d="M 678.5 133 a 10 10 0 0 1 10 10 v 10 a 10 10 0 0 0 10 10"></path><path d="M 587.5 163 a 10 10 0 0 0 10 -10 v -40 a 10 10 0 0 1 10 -10"></path><g class="terminal ">
<path d="M 607.5 103 h 8.5"></path><path d="M 670.0 103 h 8.5"></path><rect height="22" rx="10" ry="10" width="54.0" x="616.0" y="92"></rect><text x="643.0" y="107">"wa"</text></g><path d="M 678.5 103 a 10 10 0 0 1 10 10 v 40 a 10 10 0 0 0 10 10"></path><path d="M 587.5 163 a 10 10 0 0 0 10 -10 v -70 a 10 10 0 0 1 10 -10"></path><g class="terminal ">
<path d="M 607.5 73 h 8.5"></path><path d="M 670.0 73 h 8.5"></path><rect height="22" rx="10" ry="10" width="54.0" x="616.0" y="62"></rect><text x="643.0" y="77">"wh"</text></g><path d="M 678.5 73 a 10 10 0 0 1 10 10 v 70 a 10 10 0 0 0 10 10"></path><path d="M 587.5 163 h 20"></path><g class="terminal ">
<path d="M 607.5 163 h 8.5"></path><path d="M 670.0 163 h 8.5"></path><rect height="22" rx="10" ry="10" width="54.0" x="616.0" y="152"></rect><text x="643.0" y="167">"wl"</text></g><path d="M 678.5 163 h 20"></path><path d="M 587.5 163 a 10 10 0 0 1 10 10 v 10 a 10 10 0 0 0 10 10"></path><g class="terminal ">
<path d="M 607.5 193 h 4.25"></path><path d="M 674.25 193 h 4.25"></path><rect height="22" rx="10" ry="10" width="62.5" x="611.75" y="182"></rect><text x="643.0" y="197">"jmp"</text></g><path d="M 678.5 193 a 10 10 0 0 0 10 -10 v -10 a 10 10 0 0 1 10 -10"></path><path d="M 587.5 163 a 10 10 0 0 1 10 10 v 40 a 10 10 0 0 0 10 10"></path><g class="terminal ">
<path d="M 607.5 223 h 8.5"></path><path d="M 670.0 223 h 8.5"></path><rect height="22" rx="10" ry="10" width="54.0" x="616.0" y="212"></rect><text x="643.0" y="227">"no"</text></g><path d="M 678.5 223 a 10 10 0 0 0 10 -10 v -40 a 10 10 0 0 1 10 -10"></path><path d="M 587.5 163 a 10 10 0 0 1 10 10 v 70 a 10 10 0 0 0 10 10"></path><g class="terminal ">
<path d="M 607.5 253 h 8.5"></path><path d="M 670.0 253 h 8.5"></path><rect height="22" rx="10" ry="10" width="54.0" x="616.0" y="242"></rect><text x="643.0" y="257">"it"</text></g><path d="M 678.5 253 a 10 10 0 0 0 10 -10 v -70 a 10 10 0 0 1 10 -10"></path><path d="M 587.5 163 a 10 10 0 0 1 10 10 v 100 a 10 10 0 0 0 10 10"></path><g class="terminal ">
<path d="M 607.5 283 h 0.0"></path><path d="M 678.5 283 h 0.0"></path><rect height="22" rx="10" ry="10" width="71.0" x="607.5" y="272"></rect><text x="643.0" y="287">"bdit"</text></g><path d="M 678.5 283 a 10 10 0 0 0 10 -10 v -100 a 10 10 0 0 1 10 -10"></path><path d="M 587.5 163 a 10 10 0 0 1 10 10 v 130 a 10 10 0 0 0 10 10"></path><g class="terminal ">
<path d="M 607.5 313 h 8.5"></path><path d="M 670.0 313 h 8.5"></path><rect height="22" rx="10" ry="10" width="54.0" x="616.0" y="302"></rect><text x="643.0" y="317">"bd"</text></g><path d="M 678.5 313 a 10 10 0 0 0 10 -10 v -130 a 10 10 0 0 1 10 -10"></path><path d="M 587.5 163 a 10 10 0 0 1 10 10 v 160 a 10 10 0 0 0 10 10"></path><g class="terminal ">
<path d="M 607.5 343 h 8.5"></path><path d="M 670.0 343 h 8.5"></path><rect height="22" rx="10" ry="10" width="54.0" x="616.0" y="332"></rect><text x="643.0" y="347">"em"</text></g><path d="M 678.5 343 a 10 10 0 0 0 10 -10 v -160 a 10 10 0 0 1 10 -10"></path><path d="M 587.5 163 a 10 10 0 0 1 10 10 v 190 a 10 10 0 0 0 10 10"></path><g class="terminal ">
<path d="M 607.5 373 h 8.5"></path><path d="M 670.0 373 h 8.5"></path><rect height="22" rx="10" ry="10" width="54.0" x="616.0" y="362"></rect><text x="643.0" y="377">"sc"</text></g><path d="M 678.5 373 a 10 10 0 0 0 10 -10 v -190 a 10 10 0 0 1 10 -10"></path><path d="M 587.5 163 a 10 10 0 0 1 10 10 v 220 a 10 10 0 0 0 10 10"></path><g class="terminal ">
<path d="M 607.5 403 h 4.25"></path><path d="M 674.25 403 h 4.25"></path><rect height="22" rx="10" ry="10" width="62.5" x="611.75" y="392"></rect><text x="643.0" y="407">"sup"</text></g><path d="M 678.5 403 a 10 10 0 0 0 10 -10 v -220 a 10 10 0 0 1 10 -10"></path></g><path d="M 708.5 163 a 10 10 0 0 1 10 10 v 249 a 10 10 0 0 0 10 10"></path><path d="M 708.5 44 a 10 10 0 0 1 10 10 v 99 a 10 10 0 0 0 10 10"></path><g>
<path d="M 728.5 163 h 10.0"></path><path d="M 832.5 163 h 10.0"></path><path d="M 738.5 163 a 10 10 0 0 0 10 -10 v -10 a 10 10 0 0 1 10 -10"></path><g class="terminal ">
<path d="M 758.5 133 h 0.0"></path><path d="M 812.5 133 h 0.0"></path><rect height="22" rx="10" ry="10" width="54.0" x="758.5" y="122"></rect><text x="785.5" y="137">"rb"</text></g><path d="M 812.5 133 a 10 10 0 0 1 10 10 v 10 a 10 10 0 0 0 10 10"></path><path d="M 738.5 163 a 10 10 0 0 0 10 -10 v -40 a 10 10 0 0 1 10 -10"></path><g class="terminal ">
<path d="M 758.5 103 h 4.25"></path><path d="M 808.25 103 h 4.25"></path><rect height="22" rx="10" ry="10" width="45.5" x="762.75" y="92"></rect><text x="785.5" y="107">"w"</text></g><path d="M 812.5 103 a 10 10 0 0 1 10 10 v 40 a 10 10 0 0 0 10 10"></path><path d="M 738.5 163 a 10 10 0 0 0 10 -10 v -70 a 10 10 0 0 1 10 -10"></path><g class="terminal ">
<path d="M 758.5 73 h 0.0"></path><path d="M 812.5 73 h 0.0"></path><rect height="22" rx="10" ry="10" width="54.0" x="758.5" y="62"></rect><text x="785.5" y="77">"xt"</text></g><path d="M 812.5 73 a 10 10 0 0 1 10 10 v 70 a 10 10 0 0 0 10 10"></path><path d="M 738.5 163 h 20"></path><g class="terminal ">
<path d="M 758.5 163 h 0.0"></path><path d="M 812.5 163 h 0.0"></path><rect height="22" rx="10" ry="10" width="54.0" x="758.5" y="152"></rect><text x="785.5" y="167">"ta"</text></g><path d="M 812.5 163 h 20"></path><path d="M 738.5 163 a 10 10 0 0 1 10 10 v 10 a 10 10 0 0 0 10 10"></path><g class="terminal ">
<path d="M 758.5 193 h 0.0"></path><path d="M 812.5 193 h 0.0"></path><rect height="22" rx="10" ry="10" width="54.0" x="758.5" y="182"></rect><text x="785.5" y="197">"xt"</text></g><path d="M 812.5 193 a 10 10 0 0 0 10 -10 v -10 a 10 10 0 0 1 10 -10"></path></g><path d="M 842.5 163 h 10"></path></g></g><g class="non-terminal ">
<path d="M 255.5 28 h 0.0"></path><path d="M 272.5 28 h 0.0"></path><text class="comment" x="264.0" y="33">➋</text></g></g><path d="M 862.5 163 h 10"></path><path d="M 872.5 163 h 10"></path><g>
<path d="M 882.5 163 h 0.0"></path><path d="M 993.5 163 h 0.0"></path><path d="M 882.5 163 h 20"></path><g class="terminal ">
<path d="M 902.5 163 h 12.75"></path><path d="M 960.75 163 h 12.75"></path><rect height="22" rx="10" ry="10" width="45.5" x="915.25" y="152"></rect><text x="938.0" y="167">' '</text></g><path d="M 973.5 163 h 20"></path><path d="M 882.5 163 a 10 10 0 0 1 10 10 v 10 a 10 10 0 0 0 10 10"></path><g class="terminal altterminal">
<path d="M 902.5 193 h 0.0"></path><path d="M 973.5 193 h 0.0"></path><rect height="22" rx="10" ry="10" width="71.0" x="902.5" y="182"></rect><text x="938.0" y="197">TAGEND</text></g><path d="M 973.5 193 a 10 10 0 0 0 10 -10 v -10 a 10 10 0 0 1 10 -10"></path></g></g><path d="M 1115.0 163 a 10 10 0 0 1 10 10 v 265 a 10 10 0 0 1 -10 10 h -1055.0 a 10 10 0 0 0 -10 10 v 0 a 10 10 0 0 0 10 10"></path><g>
<path d="M 60.0 468 h 10.0"></path><path d="M 1105.0 468 h 10.0"></path><g>
<path d="M 70.0 468 h 0.0"></path><path d="M 266.0 468 h 0.0"></path><path d="M 70.0 468 h 20"></path><g>
<path d="M 90.0 468 h 156.0"></path></g><path d="M 246.0 468 h 20"></path><path d="M 70.0 468 a 10 10 0 0 1 10 10 v 0 a 10 10 0 0 0 10 10"></path><g class="non-terminal ">
<path d="M 90.0 488 h 0.0"></path><path d="M 246.0 488 h 0.0"></path><rect height="22" width="156.0" x="90.0" y="477"></rect><text x="168.0" y="492">AttributesPreAll</text></g><path d="M 246.0 488 a 10 10 0 0 0 10 -10 v 0 a 10 10 0 0 1 10 -10"></path></g><path d="M 266.0 468 h 10"></path><path d="M 276.0 468 h 10"></path><g>
<path d="M 286.0 468 h 0.0"></path><path d="M 667.0 468 h 0.0"></path><path d="M 286.0 468 h 20"></path><g>
<path d="M 306.0 468 h 341.0"></path></g><path d="M 647.0 468 h 20"></path><path d="M 286.0 468 a 10 10 0 0 1 10 10 v 9 a 10 10 0 0 0 10 10"></path><g>
<path d="M 306.0 497 h 0.0"></path><path d="M 647.0 497 h 0.0"></path><g>
<path d="M 306.0 497 h 0.0"></path><path d="M 647.0 497 h 0.0"></path><path d="M 306.0 497 h 10"></path><g>
<path d="M 316.0 497 h 0.0"></path><path d="M 637.0 497 h 0.0"></path><path d="M 316.0 497 h 20"></path><g class="non-terminal ">
<path d="M 336.0 497 h 92.25"></path><path d="M 524.75 497 h 92.25"></path><rect height="22" width="96.5" x="428.25" y="486"></rect><text x="476.5" y="501">CharEmbed</text></g><path d="M 617.0 497 h 20"></path><path d="M 316.0 497 a 10 10 0 0 1 10 10 v 10 a 10 10 0 0 0 10 10"></path><g class="non-terminal ">
<path d="M 336.0 527 h 105.0"></path><path d="M 512.0 527 h 105.0"></path><rect height="22" width="71.0" x="441.0" y="516"></rect><text x="476.5" y="531">Figure</text></g><path d="M 617.0 527 a 10 10 0 0 0 10 -10 v -10 a 10 10 0 0 1 10 -10"></path><path d="M 316.0 497 a 10 10 0 0 1 10 10 v 40 a 10 10 0 0 0 10 10"></path><g class="non-terminal ">
<path d="M 336.0 557 h 92.25"></path><path d="M 524.75 557 h 92.25"></path><rect height="22" width="96.5" x="428.25" y="546"></rect><text x="476.5" y="561">Milestone</text></g><path d="M 617.0 557 a 10 10 0 0 0 10 -10 v -40 a 10 10 0 0 1 10 -10"></path><path d="M 316.0 497 a 10 10 0 0 1 10 10 v 70 a 10 10 0 0 0 10 10"></path><g class="non-terminal ">
<path d="M 336.0 587 h 96.5"></path><path d="M 520.5 587 h 96.5"></path><rect height="22" width="88.0" x="432.5" y="576"></rect><text x="476.5" y="591">Footnote</text></g><path d="M 617.0 587 a 10 10 0 0 0 10 -10 v -70 a 10 10 0 0 1 10 -10"></path><path d="M 316.0 497 a 10 10 0 0 1 10 10 v 100 a 10 10 0 0 0 10 10"></path><g class="non-terminal ">
<path d="M 336.0 617 h 71.0"></path><path d="M 546.0 617 h 71.0"></path><rect height="22" width="139.0" x="407.0" y="606"></rect><text x="476.5" y="621">CrossReference</text></g><path d="M 617.0 617 a 10 10 0 0 0 10 -10 v -100 a 10 10 0 0 1 10 -10"></path><path d="M 316.0 497 a 10 10 0 0 1 10 10 v 130 a 10 10 0 0 0 10 10"></path><g class="non-terminal ">
<path d="M 336.0 647 h 92.25"></path><path d="M 524.75 647 h 92.25"></path><rect height="22" width="96.5" x="428.25" y="636"></rect><text x="476.5" y="651">Reference</text></g><path d="M 617.0 647 a 10 10 0 0 0 10 -10 v -130 a 10 10 0 0 1 10 -10"></path><path d="M 316.0 497 a 10 10 0 0 1 10 10 v 160 a 10 10 0 0 0 10 10"></path><g>
<path d="M 336.0 677 h 56.5"></path><path d="M 560.5 677 h 56.5"></path><g class="terminal ">
<path d="M 392.5 677 h 0.0"></path><path d="M 429.5 677 h 0.0"></path><rect height="22" rx="10" ry="10" width="37.0" x="392.5" y="666"></rect><text x="411.0" y="681">Hs</text></g><path d="M 429.5 677 h 10"></path><path d="M 439.5 677 h 10"></path><g class="terminal ">
<path d="M 449.5 677 h 0.0"></path><path d="M 503.5 677 h 0.0"></path><rect height="22" rx="10" ry="10" width="54.0" x="449.5" y="666"></rect><text x="476.5" y="681">'//'</text></g><path d="M 503.5 677 h 10"></path><path d="M 513.5 677 h 10"></path><g class="terminal ">
<path d="M 523.5 677 h 0.0"></path><path d="M 560.5 677 h 0.0"></path><rect height="22" rx="10" ry="10" width="37.0" x="523.5" y="666"></rect><text x="542.0" y="681">Hs</text></g></g><path d="M 617.0 677 a 10 10 0 0 0 10 -10 v -160 a 10 10 0 0 1 10 -10"></path><path d="M 316.0 497 a 10 10 0 0 1 10 10 v 190 a 10 10 0 0 0 10 10"></path><g>
<path d="M 336.0 707 h 0.0"></path><path d="M 617.0 707 h 0.0"></path><g class="terminal ">
<path d="M 336.0 707 h 0.0"></path><path d="M 466.5 707 h 0.0"></path><rect height="22" rx="10" ry="10" width="130.5" x="336.0" y="696"></rect><text x="401.25" y="711">TEXTNOTATTRIB</text></g><path d="M 466.5 707 h 10"></path><path d="M 476.5 707 h 10"></path><g class="terminal ">
<path d="M 486.5 707 h 0.0"></path><path d="M 617.0 707 h 0.0"></path><rect height="22" rx="10" ry="10" width="130.5" x="486.5" y="696"></rect><text x="551.75" y="711">ATTRIBTEXTEND</text></g></g><path d="M 617.0 707 a 10 10 0 0 0 10 -10 v -190 a 10 10 0 0 1 10 -10"></path></g><path d="M 637.0 497 h 10"></path><path d="M 316.0 497 a 10 10 0 0 0 -10 10 v 219 a 10 10 0 0 0 10 10"></path><g>
<path d="M 316.0 736 h 321.0"></path></g><path d="M 637.0 736 a 10 10 0 0 0 10 -10 v -219 a 10 10 0 0 0 -10 -10"></path></g></g><path d="M 647.0 497 a 10 10 0 0 0 10 -10 v -9 a 10 10 0 0 1 10 -10"></path></g><path d="M 667.0 468 h 10"></path><path d="M 677.0 468 h 10"></path><g>
<path d="M 687.0 468 h 0.0"></path><path d="M 900.0 468 h 0.0"></path><path d="M 687.0 468 h 20"></path><g>
<path d="M 707.0 468 h 173.0"></path></g><path d="M 880.0 468 h 20"></path><path d="M 687.0 468 a 10 10 0 0 1 10 10 v 0 a 10 10 0 0 0 10 10"></path><g class="non-terminal ">
<path d="M 707.0 488 h 0.0"></path><path d="M 880.0 488 h 0.0"></path><rect height="22" width="173.0" x="707.0" y="477"></rect><text x="793.5" y="492">AttributesNoAttrib</text></g><path d="M 880.0 488 a 10 10 0 0 0 10 -10 v 0 a 10 10 0 0 1 10 -10"></path></g><path d="M 900.0 468 h 10"></path><path d="M 910.0 468 h 10"></path><g>
<path d="M 920.0 468 h 0.0"></path><path d="M 1105.0 468 h 0.0"></path><g class="terminal ">
<path d="M 920.0 468 h 0.0"></path><path d="M 974.0 468 h 0.0"></path><rect height="22" rx="10" ry="10" width="54.0" x="920.0" y="457"></rect><text x="947.0" y="472">'\\'</text></g><path d="M 974.0 468 h 10"></path><path d="M 984.0 468 h 10"></path><g class="terminal ">
<path d="M 994.0 468 h 0.0"></path><path d="M 1039.5 468 h 0.0"></path><rect height="22" rx="10" ry="10" width="45.5" x="994.0" y="457"></rect><text x="1016.75" y="472">⇐ ➋</text></g><path d="M 1039.5 468 h 10"></path><path d="M 1049.5 468 h 10"></path><g class="terminal ">
<path d="M 1059.5 468 h 0.0"></path><path d="M 1105.0 468 h 0.0"></path><rect height="22" rx="10" ry="10" width="45.5" x="1059.5" y="457"></rect><text x="1082.25" y="472">'&#42;'</text></g></g></g><path d="M 1115.0 468 h 10"></path><path d="M 1125.0 468 h 0.0"></path></g></g><path d="M 1125.0 468 h 10"></path><path d="M 1135.0 468 h 20 m 0 -10 v 20"></path></g></svg>