<svg class="railroad-diagram" height="504" viewBox="0 0 780.0 504" width="780.0" xmlns="http://www.w3.org/2000/svg" xmlns:xlink="http://www.w3.org/1999/xlink">
<g transform="translate(.5 .5)">
<style>/* <![CDATA[ */
    svg.railroad-diagram {
        background-color:hsl(30,20%,95%);
    }
    svg.railroad-diagram path {
        stroke-width: 2;
        stroke: black;
        fill: none;
    }
    svg.railroad-diagram text {
        font-size: 12px;
        text-anchor: middle;
        font-family: DejaVu Sans;
    }
    svg.railroad-diagram text.label {
        text-anchor:start;
    }
    svg.railroad-diagram text.comment {
        font-family: DejaVu Sans;
        font-size: 14px;
    }
    svg.railroad-diagram rect{
        stroke-width: 2;
        stroke:black;
        fill: rgb(210, 210, 255);
    }
    svg.railroad-diagram rect.group-box {
        stroke: gray;
        stroke-dasharray: 10 5;
        fill: none;
    }
    .terminal {
        font-family: DejaVu Sans;
    }

/* ]]> */
</style><g>
<path d="M 20 363 v 20 m 0 -10 h 20"></path></g><path d="M 40 373 h 10"></path><g>
<path d="M 50 373 h 0.0"></path><path d="M 730.0 373 h 0.0"></path><rect class="group-box" height="448" rx="10" ry="10" width="680.0" x="50.0" y="36"></rect><g>
<path d="M 50.0 373 h 0.0"></path><path d="M 730.0 373 h 0.0"></path><path d="M 50.0 373 h 20"></path><g>
<path d="M 70.0 373 h 0.0"></path><path d="M 710.0 373 h 0.0"></path><g class="terminal ">
<path d="M 70.0 373 h 0.0"></path><path d="M 126.0 373 h 0.0"></path><rect height="22" rx="10" ry="10" width="56.0" x="70.0" y="362"></rect><text x="98.0" y="377">&#60;char></text></g><path d="M 126.0 373 h 10"></path><g>
<path d="M 136.0 373 h 0.0"></path><path d="M 710.0 373 h 0.0"></path><path d="M 136.0 373 a 10 10 0 0 0 10 -10 v -176 a 10 10 0 0 1 10 -10"></path><g>
<path d="M 156.0 177 h 0.0"></path><path d="M 690.0 177 h 0.0"></path><g class="terminal ">
<path d="M 156.0 177 h 0.0"></path><path d="M 212.0 177 h 0.0"></path><rect height="22" rx="10" ry="10" width="56.0" x="156.0" y="166"></rect><text x="184.0" y="181">@style</text></g><path d="M 212.0 177 h 10"></path><path d="M 222.0 177 h 10"></path><g>
<path d="M 232.0 177 h 0.0"></path><path d="M 690.0 177 h 0.0"></path><rect class="group-box" height="294" rx="10" ry="10" width="458.0" x="232.0" y="60"></rect><g>
<path d="M 232.0 177 h 0.0"></path><path d="M 690.0 177 h 0.0"></path><path d="M 232.0 177 a 10 10 0 0 0 10 -10 v -89 a 10 10 0 0 1 10 -10 h 312.0"></path><path d="M 232.0 177 h 10"></path><g>
<path d="M 242.0 177 h 0.0"></path><path d="M 344.0 177 h 0.0"></path><path d="M 242.0 177 a 10 10 0 0 0 10 -10 v -10 a 10 10 0 0 1 10 -10"></path><g class="terminal ">
<path d="M 262.0 147 h 0.0"></path><path d="M 306.0 147 h 0.0"></path><rect height="22" rx="10" ry="10" width="44.0" x="262.0" y="136"></rect><text x="284.0" y="151">"ca"</text></g><path d="M 242.0 177 a 10 10 0 0 0 10 -10 v -40 a 10 10 0 0 1 10 -10"></path><g class="terminal ">
<path d="M 262.0 117 h 0.0"></path><path d="M 306.0 117 h 0.0"></path><rect height="22" rx="10" ry="10" width="44.0" x="262.0" y="106"></rect><text x="284.0" y="121">"vp"</text></g><path d="M 242.0 177 a 10 10 0 0 0 10 -10 v -70 a 10 10 0 0 1 10 -10"></path><g class="terminal ">
<path d="M 262.0 87 h 0.0"></path><path d="M 306.0 87 h 0.0"></path><rect height="22" rx="10" ry="10" width="44.0" x="262.0" y="76"></rect><text x="284.0" y="91">"va"</text></g><path d="M 242.0 177 h 20"></path><g class="terminal ">
<path d="M 262.0 177 h 0.0"></path><path d="M 312.0 177 h 0.0"></path><rect height="22" rx="10" ry="10" width="50.0" x="262.0" y="166"></rect><text x="287.0" y="181">"qac"</text></g><path d="M 242.0 177 a 10 10 0 0 1 10 10 v 10 a 10 10 0 0 0 10 10"></path><g class="terminal ">
<path d="M 262.0 207 h 0.0"></path><path d="M 306.0 207 h 0.0"></path><rect height="22" rx="10" ry="10" width="44.0" x="262.0" y="196"></rect><text x="284.0" y="211">"qs"</text></g><path d="M 242.0 177 a 10 10 0 0 1 10 10 v 40 a 10 10 0 0 0 10 10"></path><g class="terminal ">
<path d="M 262.0 237 h 0.0"></path><path d="M 312.0 237 h 0.0"></path><rect height="22" rx="10" ry="10" width="50.0" x="262.0" y="226"></rect><text x="287.0" y="241">"add"</text></g><path d="M 242.0 177 a 10 10 0 0 1 10 10 v 70 a 10 10 0 0 0 10 10"></path><g class="terminal ">
<path d="M 262.0 267 h 0.0"></path><path d="M 324.0 267 h 0.0"></path><rect height="22" rx="10" ry="10" width="62.0" x="262.0" y="256"></rect><text x="293.0" y="271">"addpn"</text></g><path d="M 242.0 177 a 10 10 0 0 1 10 10 v 100 a 10 10 0 0 0 10 10"></path><g class="terminal ">
<path d="M 262.0 297 h 0.0"></path><path d="M 306.0 297 h 0.0"></path><rect height="22" rx="10" ry="10" width="44.0" x="262.0" y="286"></rect><text x="284.0" y="301">"bk"</text></g><path d="M 242.0 177 a 10 10 0 0 1 10 10 v 130 a 10 10 0 0 0 10 10"></path><g class="terminal ">
<path d="M 262.0 327 h 0.0"></path><path d="M 306.0 327 h 0.0"></path><rect height="22" rx="10" ry="10" width="44.0" x="262.0" y="316"></rect><text x="284.0" y="331">"dc"</text></g></g><path d="M 344.0 68 a 10 10 0 0 1 10 10 v 89 a 10 10 0 0 0 10 10"></path><g>
<path d="M 364.0 177 h 0.0"></path><path d="M 454.0 177 h 0.0"></path><path d="M 364.0 177 a 10 10 0 0 0 10 -10 v -10 a 10 10 0 0 1 10 -10"></path><g class="terminal ">
<path d="M 384.0 147 h 0.0"></path><path d="M 422.0 147 h 0.0"></path><rect height="22" rx="10" ry="10" width="38.0" x="384.0" y="136"></rect><text x="403.0" y="151">"k"</text></g><path d="M 364.0 177 a 10 10 0 0 0 10 -10 v -40 a 10 10 0 0 1 10 -10"></path><g class="terminal ">
<path d="M 384.0 117 h 0.0"></path><path d="M 428.0 117 h 0.0"></path><rect height="22" rx="10" ry="10" width="44.0" x="384.0" y="106"></rect><text x="406.0" y="121">"fm"</text></g><path d="M 364.0 177 a 10 10 0 0 0 10 -10 v -70 a 10 10 0 0 1 10 -10"></path><g class="terminal ">
<path d="M 384.0 87 h 0.0"></path><path d="M 434.0 87 h 0.0"></path><rect height="22" rx="10" ry="10" width="50.0" x="384.0" y="76"></rect><text x="409.0" y="91">"efm"</text></g><path d="M 364.0 177 h 20"></path><g class="terminal ">
<path d="M 384.0 177 h 0.0"></path><path d="M 428.0 177 h 0.0"></path><rect height="22" rx="10" ry="10" width="44.0" x="384.0" y="166"></rect><text x="406.0" y="181">"nd"</text></g><path d="M 364.0 177 a 10 10 0 0 1 10 10 v 10 a 10 10 0 0 0 10 10"></path><g class="terminal ">
<path d="M 384.0 207 h 0.0"></path><path d="M 434.0 207 h 0.0"></path><rect height="22" rx="10" ry="10" width="50.0" x="384.0" y="196"></rect><text x="409.0" y="211">"ndx"</text></g><path d="M 364.0 177 a 10 10 0 0 1 10 10 v 40 a 10 10 0 0 0 10 10"></path><g class="terminal ">
<path d="M 384.0 237 h 0.0"></path><path d="M 434.0 237 h 0.0"></path><rect height="22" rx="10" ry="10" width="50.0" x="384.0" y="226"></rect><text x="409.0" y="241">"ord"</text></g><path d="M 364.0 177 a 10 10 0 0 1 10 10 v 70 a 10 10 0 0 0 10 10"></path><g class="terminal ">
<path d="M 384.0 267 h 0.0"></path><path d="M 428.0 267 h 0.0"></path><rect height="22" rx="10" ry="10" width="44.0" x="384.0" y="256"></rect><text x="406.0" y="271">"pn"</text></g><path d="M 364.0 177 a 10 10 0 0 1 10 10 v 100 a 10 10 0 0 0 10 10"></path><g class="terminal ">
<path d="M 384.0 297 h 0.0"></path><path d="M 434.0 297 h 0.0"></path><rect height="22" rx="10" ry="10" width="50.0" x="384.0" y="286"></rect><text x="409.0" y="301">"png"</text></g><path d="M 364.0 177 a 10 10 0 0 1 10 10 v 130 a 10 10 0 0 0 10 10"></path><g class="terminal ">
<path d="M 384.0 327 h 0.0"></path><path d="M 434.0 327 h 0.0"></path><rect height="22" rx="10" ry="10" width="50.0" x="384.0" y="316"></rect><text x="409.0" y="331">"pro"</text></g></g><path d="M 454.0 68 a 10 10 0 0 1 10 10 v 89 a 10 10 0 0 0 10 10"></path><g>
<path d="M 474.0 177 h 0.0"></path><path d="M 564.0 177 h 0.0"></path><path d="M 474.0 177 a 10 10 0 0 0 10 -10 v -10 a 10 10 0 0 1 10 -10"></path><g class="terminal ">
<path d="M 494.0 147 h 0.0"></path><path d="M 544.0 147 h 0.0"></path><rect height="22" rx="10" ry="10" width="50.0" x="494.0" y="136"></rect><text x="519.0" y="151">"sig"</text></g><path d="M 474.0 177 a 10 10 0 0 0 10 -10 v -40 a 10 10 0 0 1 10 -10"></path><g class="terminal ">
<path d="M 494.0 117 h 0.0"></path><path d="M 538.0 117 h 0.0"></path><rect height="22" rx="10" ry="10" width="44.0" x="494.0" y="106"></rect><text x="516.0" y="121">"rq"</text></g><path d="M 474.0 177 a 10 10 0 0 0 10 -10 v -70 a 10 10 0 0 1 10 -10"></path><g class="terminal ">
<path d="M 494.0 87 h 0.0"></path><path d="M 538.0 87 h 0.0"></path><rect height="22" rx="10" ry="10" width="44.0" x="494.0" y="76"></rect><text x="516.0" y="91">"qt"</text></g><path d="M 474.0 177 h 20"></path><g class="terminal ">
<path d="M 494.0 177 h 0.0"></path><path d="M 544.0 177 h 0.0"></path><rect height="22" rx="10" ry="10" width="50.0" x="494.0" y="166"></rect><text x="519.0" y="181">"sls"</text></g><path d="M 474.0 177 a 10 10 0 0 1 10 10 v 10 a 10 10 0 0 0 10 10"></path><g class="terminal ">
<path d="M 494.0 207 h 0.0"></path><path d="M 538.0 207 h 0.0"></path><rect height="22" rx="10" ry="10" width="44.0" x="494.0" y="196"></rect><text x="516.0" y="211">"tl"</text></g><path d="M 474.0 177 a 10 10 0 0 1 10 10 v 40 a 10 10 0 0 0 10 10"></path><g class="terminal ">
<path d="M 494.0 237 h 0.0"></path><path d="M 538.0 237 h 0.0"></path><rect height="22" rx="10" ry="10" width="44.0" x="494.0" y="226"></rect><text x="516.0" y="241">"wg"</text></g><path d="M 474.0 177 a 10 10 0 0 1 10 10 v 70 a 10 10 0 0 0 10 10"></path><g class="terminal ">
<path d="M 494.0 267 h 0.0"></path><path d="M 538.0 267 h 0.0"></path><rect height="22" rx="10" ry="10" width="44.0" x="494.0" y="256"></rect><text x="516.0" y="271">"wh"</text></g><path d="M 474.0 177 a 10 10 0 0 1 10 10 v 100 a 10 10 0 0 0 10 10"></path><g class="terminal ">
<path d="M 494.0 297 h 0.0"></path><path d="M 538.0 297 h 0.0"></path><rect height="22" rx="10" ry="10" width="44.0" x="494.0" y="286"></rect><text x="516.0" y="301">"wa"</text></g><path d="M 474.0 177 a 10 10 0 0 1 10 10 v 130 a 10 10 0 0 0 10 10"></path><g class="terminal ">
<path d="M 494.0 327 h 0.0"></path><path d="M 538.0 327 h 0.0"></path><rect height="22" rx="10" ry="10" width="44.0" x="494.0" y="316"></rect><text x="516.0" y="331">"wj"</text></g></g><path d="M 564.0 68 a 10 10 0 0 1 10 10 v 89 a 10 10 0 0 0 10 10"></path><g>
<path d="M 584.0 177 h 0.0"></path><path d="M 680.0 177 h 0.0"></path><path d="M 584.0 177 a 10 10 0 0 0 10 -10 v -10 a 10 10 0 0 1 10 -10"></path><g class="terminal ">
<path d="M 604.0 147 h 0.0"></path><path d="M 648.0 147 h 0.0"></path><rect height="22" rx="10" ry="10" width="44.0" x="604.0" y="136"></rect><text x="626.0" y="151">"no"</text></g><path d="M 584.0 177 a 10 10 0 0 0 10 -10 v -40 a 10 10 0 0 1 10 -10"></path><g class="terminal ">
<path d="M 604.0 117 h 0.0"></path><path d="M 654.0 117 h 0.0"></path><rect height="22" rx="10" ry="10" width="50.0" x="604.0" y="106"></rect><text x="629.0" y="121">"jmp"</text></g><path d="M 584.0 177 a 10 10 0 0 0 10 -10 v -70 a 10 10 0 0 1 10 -10"></path><g class="terminal ">
<path d="M 604.0 87 h 0.0"></path><path d="M 648.0 87 h 0.0"></path><rect height="22" rx="10" ry="10" width="44.0" x="604.0" y="76"></rect><text x="626.0" y="91">"xt"</text></g><path d="M 584.0 177 h 20"></path><g class="terminal ">
<path d="M 604.0 177 h 0.0"></path><path d="M 648.0 177 h 0.0"></path><rect height="22" rx="10" ry="10" width="44.0" x="604.0" y="166"></rect><text x="626.0" y="181">"it"</text></g><path d="M 584.0 177 a 10 10 0 0 1 10 10 v 10 a 10 10 0 0 0 10 10"></path><g class="terminal ">
<path d="M 604.0 207 h 0.0"></path><path d="M 648.0 207 h 0.0"></path><rect height="22" rx="10" ry="10" width="44.0" x="604.0" y="196"></rect><text x="626.0" y="211">"bd"</text></g><path d="M 584.0 177 a 10 10 0 0 1 10 10 v 40 a 10 10 0 0 0 10 10"></path><g class="terminal ">
<path d="M 604.0 237 h 0.0"></path><path d="M 660.0 237 h 0.0"></path><rect height="22" rx="10" ry="10" width="56.0" x="604.0" y="226"></rect><text x="632.0" y="241">"bdit"</text></g><path d="M 584.0 177 a 10 10 0 0 1 10 10 v 70 a 10 10 0 0 0 10 10"></path><g class="terminal ">
<path d="M 604.0 267 h 0.0"></path><path d="M 648.0 267 h 0.0"></path><rect height="22" rx="10" ry="10" width="44.0" x="604.0" y="256"></rect><text x="626.0" y="271">"em"</text></g><path d="M 584.0 177 a 10 10 0 0 1 10 10 v 100 a 10 10 0 0 0 10 10"></path><g class="terminal ">
<path d="M 604.0 297 h 0.0"></path><path d="M 648.0 297 h 0.0"></path><rect height="22" rx="10" ry="10" width="44.0" x="604.0" y="286"></rect><text x="626.0" y="301">"sc"</text></g><path d="M 584.0 177 a 10 10 0 0 1 10 10 v 130 a 10 10 0 0 0 10 10"></path><g class="terminal ">
<path d="M 604.0 327 h 0.0"></path><path d="M 654.0 327 h 0.0"></path><rect height="22" rx="10" ry="10" width="50.0" x="604.0" y="316"></rect><text x="629.0" y="331">"sup"</text></g></g></g><g class="non-terminal ">
<path d="M 232.0 52 h 0.0"></path><path d="M 382.0 52 h 0.0"></path><text class="comment" x="307.0" y="57">Char.char.style.enum</text></g></g></g><path d="M 136.0 373 h 20"></path><g class="non-terminal ">
<path d="M 156.0 373 h 224.0"></path><path d="M 466.0 373 h 224.0"></path><rect height="22" width="86.0" x="380.0" y="362"></rect><text x="423.0" y="377">CharContent</text></g><path d="M 690.0 373 h 20"></path></g></g><path d="M 710.0 373 h 20"></path><path d="M 50.0 373 a 10 10 0 0 1 10 10 v 34 a 10 10 0 0 0 10 10"></path><g>
<path d="M 70.0 427 h 206.0"></path><path d="M 504.0 427 h 206.0"></path><rect class="group-box" height="68" rx="10" ry="10" width="228.0" x="276.0" y="408"></rect><g>
<path d="M 276.0 427 h 0.0"></path><path d="M 504.0 427 h 0.0"></path><path d="M 276.0 427 h 20"></path><g class="non-terminal ">
<path d="M 296.0 427 h 3.0"></path><path d="M 481.0 427 h 3.0"></path><rect height="22" width="182.0" x="299.0" y="416"></rect><text x="390.0" y="431">CharWithAttrib.char.style.w</text></g><path d="M 484.0 427 h 20"></path><path d="M 276.0 427 a 10 10 0 0 1 10 10 v 10 a 10 10 0 0 0 10 10"></path><g class="non-terminal ">
<path d="M 296.0 457 h 0.0"></path><path d="M 484.0 457 h 0.0"></path><rect height="22" width="188.0" x="296.0" y="446"></rect><text x="390.0" y="461">CharWithAttrib.char.style.rb</text></g><path d="M 484.0 457 a 10 10 0 0 0 10 -10 v -10 a 10 10 0 0 1 10 -10"></path></g><g class="non-terminal ">
<path d="M 276.0 400 h 0.0"></path><path d="M 419.0 400 h 0.0"></path><text class="comment" x="347.5" y="405">CharWithAttrib.enum</text></g></g><path d="M 710.0 427 a 10 10 0 0 0 10 -10 v -34 a 10 10 0 0 1 10 -10"></path></g><g class="non-terminal ">
<path d="M 50.0 28 h 0.0"></path><path d="M 123.0 28 h 0.0"></path><text class="comment" x="86.5" y="33">CharEmbed</text></g></g><path d="M 730.0 373 h 10"></path><path d="M 740.0 373 h 20 m 0 -10 v 20"></path></g></svg>