<svg class="railroad-diagram" height="786" viewBox="0 0 1151.5 786" width="1151.5" xmlns="http://www.w3.org/2000/svg" xmlns:xlink="http://www.w3.org/1999/xlink">
<g transform="translate(.5 .5)">
<style>/* <![CDATA[ */

    svg.railroad-diagram {
        background-color: hsl(30,20%,95%);
    }
    svg.railroad-diagram path {
        stroke-width: 2;
        stroke: black;
        fill: none;
    }
    svg.railroad-diagram text {
        font-size: 12px;
        text-anchor: middle;
        font-family: DejaVu Sans;
    }
    svg.railroad-diagram text.label {
        text-anchor:start;
    }
    svg.railroad-diagram text.comment {
        font-family: DejaVu Sans;
        font-size: 14px;
    }
    svg.railroad-diagram rect{
        stroke-width: 2;
        stroke: black;
        fill: rgb(210, 210, 255);
    }
    svg.railroad-diagram rect.group-box {
        stroke: gray;
        stroke-dasharray: 10 5;
        fill: none;
    }
    .terminal {
        font-family: DejaVu Sans;
    }
    svg.railroad-diagram g.altterminal rect {
        fill: rgb(251, 252, 207)
    }

/* ]]> */
</style><g>
<path d="M 20 477 v 20 m 0 -10 h 20"></path></g><path d="M 40 487 h 10"></path><g>
<path d="M 50 487 h 0.0"></path><path d="M 1101.5 487 h 0.0"></path><g>
<path d="M 50.0 487 h 0.0"></path><path d="M 1101.5 487 h 0.0"></path><path d="M 50.0 487 h 20"></path><g>
<path d="M 70.0 487 h 0.0"></path><path d="M 1081.5 487 h 0.0"></path><g class="terminal ">
<path d="M 70.0 487 h 0.0"></path><path d="M 141.0 487 h 0.0"></path><rect height="22" rx="10" ry="10" width="71.0" x="70.0" y="476"></rect><text x="105.5" y="491">&#60;char></text></g><path d="M 141.0 487 h 10"></path><path d="M 151.0 487 h 10"></path><g>
<path d="M 161.0 487 h 0.0"></path><path d="M 1081.5 487 h 0.0"></path><path d="M 161.0 487 a 10 10 0 0 0 10 -10 v -278 a 10 10 0 0 1 10 -10"></path><g>
<path d="M 181.0 189 h 0.0"></path><path d="M 1061.5 189 h 0.0"></path><g class="terminal ">
<path d="M 181.0 189 h 0.0"></path><path d="M 252.0 189 h 0.0"></path><rect height="22" rx="10" ry="10" width="71.0" x="181.0" y="178"></rect><text x="216.5" y="193">@style</text></g><path d="M 252.0 189 h 10"></path><g>
<path d="M 262.0 189 h 0.0"></path><path d="M 1061.5 189 h 0.0"></path><path d="M 262.0 189 a 10 10 0 0 0 10 -10 v -99 a 10 10 0 0 1 10 -10 h 363.0"></path><path d="M 262.0 189 h 10"></path><g>
<path d="M 272.0 189 h 0.0"></path><path d="M 272.0 189 a 10 10 0 0 0 10 -10 v -10 a 10 10 0 0 1 10 -10"></path><g class="terminal ">
<path d="M 292.0 159 h 0.0"></path><path d="M 346.0 159 h 0.0"></path><rect height="22" rx="10" ry="10" width="54.0" x="292.0" y="148"></rect><text x="319.0" y="163">"qs"</text></g><path d="M 272.0 189 a 10 10 0 0 0 10 -10 v -40 a 10 10 0 0 1 10 -10"></path><g class="terminal ">
<path d="M 292.0 129 h 0.0"></path><path d="M 354.5 129 h 0.0"></path><rect height="22" rx="10" ry="10" width="62.5" x="292.0" y="118"></rect><text x="323.25" y="133">"qac"</text></g><path d="M 272.0 189 a 10 10 0 0 0 10 -10 v -70 a 10 10 0 0 1 10 -10"></path><g class="terminal ">
<path d="M 292.0 99 h 0.0"></path><path d="M 346.0 99 h 0.0"></path><rect height="22" rx="10" ry="10" width="54.0" x="292.0" y="88"></rect><text x="319.0" y="103">"vp"</text></g><path d="M 272.0 189 h 20"></path><g class="terminal ">
<path d="M 292.0 189 h 0.0"></path><path d="M 354.5 189 h 0.0"></path><rect height="22" rx="10" ry="10" width="62.5" x="292.0" y="178"></rect><text x="323.25" y="193">"add"</text></g><path d="M 272.0 189 a 10 10 0 0 1 10 10 v 10 a 10 10 0 0 0 10 10"></path><g class="terminal ">
<path d="M 292.0 219 h 0.0"></path><path d="M 371.5 219 h 0.0"></path><rect height="22" rx="10" ry="10" width="79.5" x="292.0" y="208"></rect><text x="331.75" y="223">"addpn"</text></g><path d="M 272.0 189 a 10 10 0 0 1 10 10 v 40 a 10 10 0 0 0 10 10"></path><g class="terminal ">
<path d="M 292.0 249 h 0.0"></path><path d="M 346.0 249 h 0.0"></path><rect height="22" rx="10" ry="10" width="54.0" x="292.0" y="238"></rect><text x="319.0" y="253">"bk"</text></g><path d="M 272.0 189 a 10 10 0 0 1 10 10 v 70 a 10 10 0 0 0 10 10"></path><g class="terminal ">
<path d="M 292.0 279 h 0.0"></path><path d="M 346.0 279 h 0.0"></path><rect height="22" rx="10" ry="10" width="54.0" x="292.0" y="268"></rect><text x="319.0" y="283">"dc"</text></g><path d="M 272.0 189 a 10 10 0 0 1 10 10 v 100 a 10 10 0 0 0 10 10"></path><g class="terminal ">
<path d="M 292.0 309 h 0.0"></path><path d="M 354.5 309 h 0.0"></path><rect height="22" rx="10" ry="10" width="62.5" x="292.0" y="298"></rect><text x="323.25" y="313">"efm"</text></g><path d="M 272.0 189 a 10 10 0 0 1 10 10 v 130 a 10 10 0 0 0 10 10"></path><g class="terminal ">
<path d="M 292.0 339 h 0.0"></path><path d="M 346.0 339 h 0.0"></path><rect height="22" rx="10" ry="10" width="54.0" x="292.0" y="328"></rect><text x="319.0" y="343">"fm"</text></g><path d="M 272.0 189 a 10 10 0 0 1 10 10 v 160 a 10 10 0 0 0 10 10"></path><g class="terminal ">
<path d="M 292.0 369 h 0.0"></path><path d="M 337.5 369 h 0.0"></path><rect height="22" rx="10" ry="10" width="45.5" x="292.0" y="358"></rect><text x="314.75" y="373">"k"</text></g><path d="M 272.0 189 a 10 10 0 0 1 10 10 v 190 a 10 10 0 0 0 10 10"></path><g class="terminal ">
<path d="M 292.0 399 h 0.0"></path><path d="M 346.0 399 h 0.0"></path><rect height="22" rx="10" ry="10" width="54.0" x="292.0" y="388"></rect><text x="319.0" y="403">"nd"</text></g><path d="M 272.0 189 a 10 10 0 0 1 10 10 v 220 a 10 10 0 0 0 10 10"></path><g class="terminal ">
<path d="M 292.0 429 h 0.0"></path><path d="M 354.5 429 h 0.0"></path><rect height="22" rx="10" ry="10" width="62.5" x="292.0" y="418"></rect><text x="323.25" y="433">"ndx"</text></g></g><path d="M 391.5 70 a 10 10 0 0 1 10 10 v 99 a 10 10 0 0 0 10 10"></path><g>
<path d="M 411.5 189 h 0.0"></path><path d="M 411.5 189 a 10 10 0 0 0 10 -10 v -10 a 10 10 0 0 1 10 -10"></path><g class="terminal ">
<path d="M 431.5 159 h 0.0"></path><path d="M 485.5 159 h 0.0"></path><rect height="22" rx="10" ry="10" width="54.0" x="431.5" y="148"></rect><text x="458.5" y="163">"pn"</text></g><path d="M 411.5 189 a 10 10 0 0 0 10 -10 v -40 a 10 10 0 0 1 10 -10"></path><g class="terminal ">
<path d="M 431.5 129 h 0.0"></path><path d="M 494.0 129 h 0.0"></path><rect height="22" rx="10" ry="10" width="62.5" x="431.5" y="118"></rect><text x="462.75" y="133">"png"</text></g><path d="M 411.5 189 a 10 10 0 0 0 10 -10 v -70 a 10 10 0 0 1 10 -10"></path><g class="terminal ">
<path d="M 431.5 99 h 0.0"></path><path d="M 494.0 99 h 0.0"></path><rect height="22" rx="10" ry="10" width="62.5" x="431.5" y="88"></rect><text x="462.75" y="103">"ord"</text></g><path d="M 411.5 189 h 20"></path><g class="terminal ">
<path d="M 431.5 189 h 0.0"></path><path d="M 494.0 189 h 0.0"></path><rect height="22" rx="10" ry="10" width="62.5" x="431.5" y="178"></rect><text x="462.75" y="193">"pro"</text></g><path d="M 411.5 189 a 10 10 0 0 1 10 10 v 10 a 10 10 0 0 0 10 10"></path><g class="terminal ">
<path d="M 431.5 219 h 0.0"></path><path d="M 485.5 219 h 0.0"></path><rect height="22" rx="10" ry="10" width="54.0" x="431.5" y="208"></rect><text x="458.5" y="223">"qt"</text></g><path d="M 411.5 189 a 10 10 0 0 1 10 10 v 40 a 10 10 0 0 0 10 10"></path><g class="terminal ">
<path d="M 431.5 249 h 0.0"></path><path d="M 485.5 249 h 0.0"></path><rect height="22" rx="10" ry="10" width="54.0" x="431.5" y="238"></rect><text x="458.5" y="253">"rq"</text></g><path d="M 411.5 189 a 10 10 0 0 1 10 10 v 70 a 10 10 0 0 0 10 10"></path><g class="terminal ">
<path d="M 431.5 279 h 0.0"></path><path d="M 494.0 279 h 0.0"></path><rect height="22" rx="10" ry="10" width="62.5" x="431.5" y="268"></rect><text x="462.75" y="283">"sig"</text></g><path d="M 411.5 189 a 10 10 0 0 1 10 10 v 100 a 10 10 0 0 0 10 10"></path><g class="terminal ">
<path d="M 431.5 309 h 0.0"></path><path d="M 494.0 309 h 0.0"></path><rect height="22" rx="10" ry="10" width="62.5" x="431.5" y="298"></rect><text x="462.75" y="313">"sls"</text></g><path d="M 411.5 189 a 10 10 0 0 1 10 10 v 130 a 10 10 0 0 0 10 10"></path><g class="terminal ">
<path d="M 431.5 339 h 0.0"></path><path d="M 485.5 339 h 0.0"></path><rect height="22" rx="10" ry="10" width="54.0" x="431.5" y="328"></rect><text x="458.5" y="343">"tl"</text></g><path d="M 411.5 189 a 10 10 0 0 1 10 10 v 160 a 10 10 0 0 0 10 10"></path><g class="terminal ">
<path d="M 431.5 369 h 0.0"></path><path d="M 485.5 369 h 0.0"></path><rect height="22" rx="10" ry="10" width="54.0" x="431.5" y="358"></rect><text x="458.5" y="373">"wg"</text></g><path d="M 411.5 189 a 10 10 0 0 1 10 10 v 190 a 10 10 0 0 0 10 10"></path><g class="terminal ">
<path d="M 431.5 399 h 0.0"></path><path d="M 485.5 399 h 0.0"></path><rect height="22" rx="10" ry="10" width="54.0" x="431.5" y="388"></rect><text x="458.5" y="403">"wh"</text></g><path d="M 411.5 189 a 10 10 0 0 1 10 10 v 220 a 10 10 0 0 0 10 10"></path><g class="terminal ">
<path d="M 431.5 429 h 0.0"></path><path d="M 485.5 429 h 0.0"></path><rect height="22" rx="10" ry="10" width="54.0" x="431.5" y="418"></rect><text x="458.5" y="433">"wa"</text></g></g><path d="M 514.0 70 a 10 10 0 0 1 10 10 v 99 a 10 10 0 0 0 10 10"></path><g>
<path d="M 534.0 189 h 0.0"></path><path d="M 534.0 189 a 10 10 0 0 0 10 -10 v -10 a 10 10 0 0 1 10 -10"></path><g class="terminal ">
<path d="M 554.0 159 h 0.0"></path><path d="M 608.0 159 h 0.0"></path><rect height="22" rx="10" ry="10" width="54.0" x="554.0" y="148"></rect><text x="581.0" y="163">"no"</text></g><path d="M 534.0 189 a 10 10 0 0 0 10 -10 v -40 a 10 10 0 0 1 10 -10"></path><g class="terminal ">
<path d="M 554.0 129 h 0.0"></path><path d="M 616.5 129 h 0.0"></path><rect height="22" rx="10" ry="10" width="62.5" x="554.0" y="118"></rect><text x="585.25" y="133">"jmp"</text></g><path d="M 534.0 189 a 10 10 0 0 0 10 -10 v -70 a 10 10 0 0 1 10 -10"></path><g class="terminal ">
<path d="M 554.0 99 h 0.0"></path><path d="M 608.0 99 h 0.0"></path><rect height="22" rx="10" ry="10" width="54.0" x="554.0" y="88"></rect><text x="581.0" y="103">"wj"</text></g><path d="M 534.0 189 h 20"></path><g class="terminal ">
<path d="M 554.0 189 h 0.0"></path><path d="M 608.0 189 h 0.0"></path><rect height="22" rx="10" ry="10" width="54.0" x="554.0" y="178"></rect><text x="581.0" y="193">"it"</text></g><path d="M 534.0 189 a 10 10 0 0 1 10 10 v 10 a 10 10 0 0 0 10 10"></path><g class="terminal ">
<path d="M 554.0 219 h 0.0"></path><path d="M 625.0 219 h 0.0"></path><rect height="22" rx="10" ry="10" width="71.0" x="554.0" y="208"></rect><text x="589.5" y="223">"bdit"</text></g><path d="M 534.0 189 a 10 10 0 0 1 10 10 v 40 a 10 10 0 0 0 10 10"></path><g class="terminal ">
<path d="M 554.0 249 h 0.0"></path><path d="M 608.0 249 h 0.0"></path><rect height="22" rx="10" ry="10" width="54.0" x="554.0" y="238"></rect><text x="581.0" y="253">"bd"</text></g><path d="M 534.0 189 a 10 10 0 0 1 10 10 v 70 a 10 10 0 0 0 10 10"></path><g class="terminal ">
<path d="M 554.0 279 h 0.0"></path><path d="M 608.0 279 h 0.0"></path><rect height="22" rx="10" ry="10" width="54.0" x="554.0" y="268"></rect><text x="581.0" y="283">"em"</text></g><path d="M 534.0 189 a 10 10 0 0 1 10 10 v 100 a 10 10 0 0 0 10 10"></path><g class="terminal ">
<path d="M 554.0 309 h 0.0"></path><path d="M 608.0 309 h 0.0"></path><rect height="22" rx="10" ry="10" width="54.0" x="554.0" y="298"></rect><text x="581.0" y="313">"sc"</text></g><path d="M 534.0 189 a 10 10 0 0 1 10 10 v 130 a 10 10 0 0 0 10 10"></path><g class="terminal ">
<path d="M 554.0 339 h 0.0"></path><path d="M 616.5 339 h 0.0"></path><rect height="22" rx="10" ry="10" width="62.5" x="554.0" y="328"></rect><text x="585.25" y="343">"sup"</text></g><path d="M 534.0 189 a 10 10 0 0 1 10 10 v 160 a 10 10 0 0 0 10 10"></path><g class="terminal ">
<path d="M 554.0 369 h 0.0"></path><path d="M 599.5 369 h 0.0"></path><rect height="22" rx="10" ry="10" width="45.5" x="554.0" y="358"></rect><text x="576.75" y="373">"w"</text></g><path d="M 534.0 189 a 10 10 0 0 1 10 10 v 190 a 10 10 0 0 0 10 10"></path><g class="terminal ">
<path d="M 554.0 399 h 0.0"></path><path d="M 608.0 399 h 0.0"></path><rect height="22" rx="10" ry="10" width="54.0" x="554.0" y="388"></rect><text x="581.0" y="403">"rb"</text></g><path d="M 534.0 189 a 10 10 0 0 1 10 10 v 220 a 10 10 0 0 0 10 10"></path><g class="terminal ">
<path d="M 554.0 429 h 0.0"></path><path d="M 616.5 429 h 0.0"></path><rect height="22" rx="10" ry="10" width="62.5" x="554.0" y="418"></rect><text x="585.25" y="433">"jmp"</text></g></g><path d="M 645.0 70 a 10 10 0 0 1 10 10 v 99 a 10 10 0 0 0 10 10"></path><g>
<path d="M 665.0 189 h 0.0"></path><path d="M 665.0 189 h 20"></path><g class="non-terminal ">
<path d="M 685.0 189 h 0.0"></path><path d="M 951.5 189 h 0.0"></path><rect height="22" width="266.5" x="685.0" y="178"></rect><text x="818.25" y="193">FullCharExtra.char.style.enum</text></g></g></g></g><path d="M 161.0 487 a 10 10 0 0 0 10 -10 v -416 a 10 10 0 0 1 10 -10"></path><g>
<path d="M 181.0 51 h 0.0"></path><path d="M 292.0 51 h 0.0"></path><g class="terminal ">
<path d="M 181.0 51 h 0.0"></path><path d="M 218.0 51 h 0.0"></path><rect height="22" rx="10" ry="10" width="37.0" x="181.0" y="40"></rect><text x="199.5" y="55">@&#42;</text></g><path d="M 218.0 51 h 10"></path><path d="M 228.0 51 h 10"></path><g class="terminal ">
<path d="M 238.0 51 h 0.0"></path><path d="M 292.0 51 h 0.0"></path><rect height="22" rx="10" ry="10" width="54.0" x="238.0" y="40"></rect><text x="265.0" y="55">TEXT</text></g></g><path d="M 161.0 487 h 20"></path><g>
<path d="M 181.0 487 h 296.5"></path><path d="M 765.0 487 h 296.5"></path><g>
<path d="M 477.5 487 h 0.0"></path><path d="M 765.0 487 h 0.0"></path><path d="M 477.5 487 h 10"></path><g>
<path d="M 487.5 487 h 0.0"></path><path d="M 755.0 487 h 0.0"></path><path d="M 487.5 487 h 20"></path><g class="terminal ">
<path d="M 507.5 487 h 86.75"></path><path d="M 648.25 487 h 86.75"></path><rect height="22" rx="10" ry="10" width="54.0" x="594.25" y="476"></rect><text x="621.25" y="491">TEXT</text></g><path d="M 735.0 487 h 20"></path><path d="M 487.5 487 a 10 10 0 0 1 10 10 v 10 a 10 10 0 0 0 10 10"></path><g class="non-terminal ">
<path d="M 507.5 517 h 65.5"></path><path d="M 669.5 517 h 65.5"></path><rect height="22" width="96.5" x="573.0" y="506"></rect><text x="621.25" y="521">CharEmbed</text></g><path d="M 735.0 517 a 10 10 0 0 0 10 -10 v -10 a 10 10 0 0 1 10 -10"></path><path d="M 487.5 487 a 10 10 0 0 1 10 10 v 40 a 10 10 0 0 0 10 10"></path><g class="non-terminal ">
<path d="M 507.5 547 h 65.5"></path><path d="M 669.5 547 h 65.5"></path><rect height="22" width="96.5" x="573.0" y="536"></rect><text x="621.25" y="551">Milestone</text></g><path d="M 735.0 547 a 10 10 0 0 0 10 -10 v -40 a 10 10 0 0 1 10 -10"></path><path d="M 487.5 487 a 10 10 0 0 1 10 10 v 70 a 10 10 0 0 0 10 10"></path><g class="non-terminal ">
<path d="M 507.5 577 h 69.75"></path><path d="M 665.25 577 h 69.75"></path><rect height="22" width="88.0" x="577.25" y="566"></rect><text x="621.25" y="581">Footnote</text></g><path d="M 735.0 577 a 10 10 0 0 0 10 -10 v -70 a 10 10 0 0 1 10 -10"></path><path d="M 487.5 487 a 10 10 0 0 1 10 10 v 100 a 10 10 0 0 0 10 10"></path><g class="non-terminal ">
<path d="M 507.5 607 h 44.25"></path><path d="M 690.75 607 h 44.25"></path><rect height="22" width="139.0" x="551.75" y="596"></rect><text x="621.25" y="611">CrossReference</text></g><path d="M 735.0 607 a 10 10 0 0 0 10 -10 v -100 a 10 10 0 0 1 10 -10"></path><path d="M 487.5 487 a 10 10 0 0 1 10 10 v 130 a 10 10 0 0 0 10 10"></path><g class="non-terminal ">
<path d="M 507.5 637 h 65.5"></path><path d="M 669.5 637 h 65.5"></path><rect height="22" width="96.5" x="573.0" y="626"></rect><text x="621.25" y="641">Reference</text></g><path d="M 735.0 637 a 10 10 0 0 0 10 -10 v -130 a 10 10 0 0 1 10 -10"></path><path d="M 487.5 487 a 10 10 0 0 1 10 10 v 170 a 10 10 0 0 0 10 10"></path><g>
<path d="M 507.5 677 h 0.0"></path><path d="M 735.0 677 h 0.0"></path><g class="terminal ">
<path d="M 507.5 677 h 0.0"></path><path d="M 612.5 677 h 0.0"></path><rect height="22" rx="10" ry="10" width="105.0" x="507.5" y="666"></rect><text x="560.0" y="681">&#60;optbreak></text></g><path d="M 612.5 677 h 10"></path><path d="M 622.5 677 h 10"></path><g>
<path d="M 632.5 677 h 0.0"></path><path d="M 735.0 677 h 0.0"></path><path d="M 632.5 677 h 20"></path><g class="terminal ">
<path d="M 652.5 677 h 0.0"></path><path d="M 715.0 677 h 0.0"></path><rect height="22" rx="10" ry="10" width="62.5" x="652.5" y="666"></rect><text x="683.75" y="681">EMPTY</text></g><path d="M 715.0 677 h 20"></path></g></g><path d="M 735.0 677 a 10 10 0 0 0 10 -10 v -170 a 10 10 0 0 1 10 -10"></path></g><path d="M 755.0 487 h 10"></path><path d="M 487.5 487 a 10 10 0 0 0 -10 10 v 209 a 10 10 0 0 0 10 10"></path><g>
<path d="M 487.5 716 h 267.5"></path></g><path d="M 755.0 716 a 10 10 0 0 0 10 -10 v -209 a 10 10 0 0 0 -10 -10"></path></g></g><path d="M 1061.5 487 h 20"></path></g></g><path d="M 1081.5 487 h 20"></path><path d="M 50.0 487 a 10 10 0 0 1 10 10 v 238 a 10 10 0 0 0 10 10"></path><g class="non-terminal ">
<path d="M 70.0 745 h 470.25"></path><path d="M 611.25 745 h 470.25"></path><rect height="22" width="71.0" x="540.25" y="734"></rect><text x="575.75" y="749">Figure</text></g><path d="M 1081.5 745 a 10 10 0 0 0 10 -10 v -238 a 10 10 0 0 1 10 -10"></path></g></g><path d="M 1101.5 487 h 10"></path><path d="M 1111.5 487 h 20 m 0 -10 v 20"></path></g></svg>