<svg class="railroad-diagram" height="530" viewBox="0 0 1625.0 530" width="1625.0" xmlns="http://www.w3.org/2000/svg" xmlns:xlink="http://www.w3.org/1999/xlink">
<g transform="translate(.5 .5)">
<style>/* <![CDATA[ */

    svg.railroad-diagram {
        background-color: hsl(30,20%,95%);
    }
    svg.railroad-diagram path {
        stroke-width: 2;
        stroke: black;
        fill: none;
    }
    svg.railroad-diagram text {
        font-size: 12px;
        text-anchor: middle;
        font-family: DejaVu Sans;
    }
    svg.railroad-diagram text.label {
        text-anchor:start;
    }
    svg.railroad-diagram text.comment {
        font-family: DejaVu Sans;
        font-size: 14px;
    }
    svg.railroad-diagram rect{
        stroke-width: 2;
        stroke: black;
        fill: rgb(210, 255, 210);
    }
    svg.railroad-diagram rect.group-box {
        stroke: gray;
        stroke-dasharray: 10 5;
        fill: none;
    }
    .terminal {
        font-family: DejaVu Sans;
    }
    svg.railroad-diagram g.altterminal rect {
        fill: rgb(251, 252, 207)
    }

/* ]]> */
</style><g>
<path d="M 20 55 v 20 m 0 -10 h 20"></path></g><path d="M 40 65 h 10"></path><g>
<path d="M 50 65 h 0.0"></path><path d="M 1575.0 65 h 0.0"></path><g>
<path d="M 50.0 65 h 0.0"></path><path d="M 1575.0 65 h 0.0"></path><path d="M 50.0 65 h 20"></path><g>
<path d="M 70.0 65 h 8.5"></path><path d="M 1546.5 65 h 8.5"></path><g>
<path d="M 78.5 65 h 0.0"></path><g>
<path d="M 78.5 65 h 10.0"></path><path d="M 512.0 65 h 10.0"></path><g class="terminal ">
<path d="M 88.5 65 h 0.0"></path><path d="M 142.5 65 h 0.0"></path><rect height="22" rx="10" ry="10" width="54.0" x="88.5" y="54"></rect><text x="115.5" y="69">'\\'</text></g><path d="M 142.5 65 h 10"></path><path d="M 152.5 65 h 10"></path><g>
<path d="M 162.5 65 h 0.0"></path><path d="M 381.0 65 h 0.0"></path><rect class="group-box" height="38" rx="10" ry="10" width="218.5" x="162.5" y="46"></rect><g>
<path d="M 162.5 65 h 10.0"></path><path d="M 371.0 65 h 10.0"></path><g class="non-terminal ">
<path d="M 172.5 65 h 0.0"></path><path d="M 371.0 65 h 0.0"></path><rect height="22" width="198.5" x="172.5" y="54"></rect><text x="271.75" y="69">Chars.char.style.enum</text></g></g><g class="non-terminal ">
<path d="M 162.5 38 h 0.0"></path><path d="M 179.5 38 h 0.0"></path><text class="comment" x="171.0" y="43">➋</text></g></g><path d="M 381.0 65 h 10"></path><path d="M 391.0 65 h 10"></path><g>
<path d="M 401.0 65 h 0.0"></path><path d="M 512.0 65 h 0.0"></path><path d="M 401.0 65 h 20"></path><g class="terminal ">
<path d="M 421.0 65 h 12.75"></path><path d="M 479.25 65 h 12.75"></path><rect height="22" rx="10" ry="10" width="45.5" x="433.75" y="54"></rect><text x="456.5" y="69">' '</text></g><path d="M 492.0 65 h 20"></path><path d="M 401.0 65 a 10 10 0 0 1 10 10 v 10 a 10 10 0 0 0 10 10"></path><g class="terminal altterminal">
<path d="M 421.0 95 h 0.0"></path><path d="M 492.0 95 h 0.0"></path><rect height="22" rx="10" ry="10" width="71.0" x="421.0" y="84"></rect><text x="456.5" y="99">TAGEND</text></g><path d="M 492.0 95 a 10 10 0 0 0 10 -10 v -10 a 10 10 0 0 1 10 -10"></path></g></g><path d="M 522.0 65 h 0.0"></path></g><path d="M 522.0 65 h 10"></path><path d="M 532.0 65 h 10"></path><g>
<path d="M 542.0 65 h 0.0"></path><path d="M 1341.5 65 h 0.0"></path><path d="M 542.0 65 h 20"></path><g>
<path d="M 562.0 65 h 0.0"></path><path d="M 1321.5 65 h 0.0"></path><g class="non-terminal ">
<path d="M 562.0 65 h 0.0"></path><path d="M 675.5 65 h 0.0"></path><rect height="22" width="113.5" x="562.0" y="54"></rect><text x="618.75" y="69">CharContent</text></g><path d="M 675.5 65 h 10"></path><path d="M 685.5 65 h 10"></path><g>
<path d="M 695.5 65 h 0.0"></path><path d="M 1321.5 65 h 0.0"></path><path d="M 695.5 65 h 20"></path><g>
<path d="M 715.5 65 h 586.0"></path></g><path d="M 1301.5 65 h 20"></path><path d="M 695.5 65 a 10 10 0 0 1 10 10 v 9 a 10 10 0 0 0 10 10"></path><g>
<path d="M 715.5 94 h 0.0"></path><path d="M 1301.5 94 h 0.0"></path><g>
<path d="M 715.5 94 h 0.0"></path><path d="M 809.5 94 h 0.0"></path><path d="M 715.5 94 h 20"></path><g class="terminal ">
<path d="M 735.5 94 h 4.25"></path><path d="M 785.25 94 h 4.25"></path><rect height="22" rx="10" ry="10" width="45.5" x="739.75" y="83"></rect><text x="762.5" y="98">'|'</text></g><path d="M 789.5 94 h 20"></path><path d="M 715.5 94 a 10 10 0 0 1 10 10 v 10 a 10 10 0 0 0 10 10"></path><g class="terminal altterminal">
<path d="M 735.5 124 h 0.0"></path><path d="M 789.5 124 h 0.0"></path><rect height="22" rx="10" ry="10" width="54.0" x="735.5" y="113"></rect><text x="762.5" y="128">PIPE</text></g><path d="M 789.5 124 a 10 10 0 0 0 10 -10 v -10 a 10 10 0 0 1 10 -10"></path></g><path d="M 809.5 94 h 10"></path><path d="M 819.5 94 h 10"></path><g>
<path d="M 829.5 94 h 0.0"></path><path d="M 1301.5 94 h 0.0"></path><path d="M 829.5 94 h 10"></path><g>
<path d="M 839.5 94 h 0.0"></path><path d="M 1291.5 94 h 0.0"></path><g>
<path d="M 839.5 94 h 0.0"></path><path d="M 1291.5 94 h 0.0"></path><path d="M 839.5 94 h 20"></path><g class="terminal ">
<path d="M 859.5 94 h 157.75"></path><path d="M 1113.75 94 h 157.75"></path><rect height="22" rx="10" ry="10" width="96.5" x="1017.25" y="83"></rect><text x="1065.5" y="98">ATTRIBALL</text></g><path d="M 1271.5 94 h 20"></path><path d="M 839.5 94 a 10 10 0 0 1 10 10 v 10 a 10 10 0 0 0 10 10"></path><g>
<path d="M 859.5 124 h 0.0"></path><path d="M 1271.5 124 h 0.0"></path><g class="terminal ">
<path d="M 859.5 124 h 0.0"></path><path d="M 964.5 124 h 0.0"></path><rect height="22" rx="10" ry="10" width="105.0" x="859.5" y="113"></rect><text x="912.0" y="128">ATTRIBNAME</text></g><path d="M 964.5 124 h 10"></path><path d="M 974.5 124 h 10"></path><g class="terminal ">
<path d="M 984.5 124 h 0.0"></path><path d="M 1038.5 124 h 0.0"></path><rect height="22" rx="10" ry="10" width="54.0" x="984.5" y="113"></rect><text x="1011.5" y="128">'="'</text></g><path d="M 1038.5 124 h 10"></path><path d="M 1048.5 124 h 10"></path><g class="terminal ">
<path d="M 1058.5 124 h 0.0"></path><path d="M 1163.5 124 h 0.0"></path><rect height="22" rx="10" ry="10" width="105.0" x="1058.5" y="113"></rect><text x="1111.0" y="128">ATTRIBTEXT</text></g><path d="M 1163.5 124 h 10"></path><path d="M 1173.5 124 h 10"></path><g class="terminal ">
<path d="M 1183.5 124 h 0.0"></path><path d="M 1271.5 124 h 0.0"></path><rect height="22" rx="10" ry="10" width="88.0" x="1183.5" y="113"></rect><text x="1227.5" y="128">/"${Hs}/</text></g></g><path d="M 1271.5 124 a 10 10 0 0 0 10 -10 v -10 a 10 10 0 0 1 10 -10"></path></g></g><path d="M 1291.5 94 h 10"></path><path d="M 839.5 94 a 10 10 0 0 0 -10 10 v 39 a 10 10 0 0 0 10 10"></path><g>
<path d="M 839.5 153 h 452.0"></path></g><path d="M 1291.5 153 a 10 10 0 0 0 10 -10 v -39 a 10 10 0 0 0 -10 -10"></path></g></g><path d="M 1301.5 94 a 10 10 0 0 0 10 -10 v -9 a 10 10 0 0 1 10 -10"></path></g></g><path d="M 1321.5 65 h 20"></path><path d="M 542.0 65 a 10 10 0 0 1 10 10 v 107 a 10 10 0 0 0 10 10"></path><g>
<path d="M 562.0 192 h 86.75"></path><path d="M 1234.75 192 h 86.75"></path><g>
<path d="M 648.75 192 h 0.0"></path><path d="M 742.75 192 h 0.0"></path><path d="M 648.75 192 h 20"></path><g class="terminal ">
<path d="M 668.75 192 h 4.25"></path><path d="M 718.5 192 h 4.25"></path><rect height="22" rx="10" ry="10" width="45.5" x="673.0" y="181"></rect><text x="695.75" y="196">'|'</text></g><path d="M 722.75 192 h 20"></path><path d="M 648.75 192 a 10 10 0 0 1 10 10 v 10 a 10 10 0 0 0 10 10"></path><g class="terminal altterminal">
<path d="M 668.75 222 h 0.0"></path><path d="M 722.75 222 h 0.0"></path><rect height="22" rx="10" ry="10" width="54.0" x="668.75" y="211"></rect><text x="695.75" y="226">PIPE</text></g><path d="M 722.75 222 a 10 10 0 0 0 10 -10 v -10 a 10 10 0 0 1 10 -10"></path></g><path d="M 742.75 192 h 10"></path><path d="M 752.75 192 h 10"></path><g>
<path d="M 762.75 192 h 0.0"></path><path d="M 1234.75 192 h 0.0"></path><path d="M 762.75 192 h 10"></path><g>
<path d="M 772.75 192 h 0.0"></path><path d="M 1224.75 192 h 0.0"></path><g>
<path d="M 772.75 192 h 0.0"></path><path d="M 1224.75 192 h 0.0"></path><path d="M 772.75 192 h 20"></path><g class="terminal ">
<path d="M 792.75 192 h 157.75"></path><path d="M 1047.0 192 h 157.75"></path><rect height="22" rx="10" ry="10" width="96.5" x="950.5" y="181"></rect><text x="998.75" y="196">ATTRIBALL</text></g><path d="M 1204.75 192 h 20"></path><path d="M 772.75 192 a 10 10 0 0 1 10 10 v 10 a 10 10 0 0 0 10 10"></path><g>
<path d="M 792.75 222 h 0.0"></path><path d="M 1204.75 222 h 0.0"></path><g class="terminal ">
<path d="M 792.75 222 h 0.0"></path><path d="M 897.75 222 h 0.0"></path><rect height="22" rx="10" ry="10" width="105.0" x="792.75" y="211"></rect><text x="845.25" y="226">ATTRIBNAME</text></g><path d="M 897.75 222 h 10"></path><path d="M 907.75 222 h 10"></path><g class="terminal ">
<path d="M 917.75 222 h 0.0"></path><path d="M 971.75 222 h 0.0"></path><rect height="22" rx="10" ry="10" width="54.0" x="917.75" y="211"></rect><text x="944.75" y="226">'="'</text></g><path d="M 971.75 222 h 10"></path><path d="M 981.75 222 h 10"></path><g class="terminal ">
<path d="M 991.75 222 h 0.0"></path><path d="M 1096.75 222 h 0.0"></path><rect height="22" rx="10" ry="10" width="105.0" x="991.75" y="211"></rect><text x="1044.25" y="226">ATTRIBTEXT</text></g><path d="M 1096.75 222 h 10"></path><path d="M 1106.75 222 h 10"></path><g class="terminal ">
<path d="M 1116.75 222 h 0.0"></path><path d="M 1204.75 222 h 0.0"></path><rect height="22" rx="10" ry="10" width="88.0" x="1116.75" y="211"></rect><text x="1160.75" y="226">/"${Hs}/</text></g></g><path d="M 1204.75 222 a 10 10 0 0 0 10 -10 v -10 a 10 10 0 0 1 10 -10"></path></g></g><path d="M 1224.75 192 h 10"></path><path d="M 772.75 192 a 10 10 0 0 0 -10 10 v 39 a 10 10 0 0 0 10 10"></path><g>
<path d="M 772.75 251 h 452.0"></path></g><path d="M 1224.75 251 a 10 10 0 0 0 10 -10 v -39 a 10 10 0 0 0 -10 -10"></path></g></g><path d="M 1321.5 192 a 10 10 0 0 0 10 -10 v -107 a 10 10 0 0 1 10 -10"></path></g><path d="M 1341.5 65 h 10"></path><path d="M 1351.5 65 h 10"></path><g class="terminal ">
<path d="M 1361.5 65 h 0.0"></path><path d="M 1415.5 65 h 0.0"></path><rect height="22" rx="10" ry="10" width="54.0" x="1361.5" y="54"></rect><text x="1388.5" y="69">'\\'</text></g><path d="M 1415.5 65 h 10"></path><path d="M 1425.5 65 h 10"></path><g class="terminal ">
<path d="M 1435.5 65 h 0.0"></path><path d="M 1481.0 65 h 0.0"></path><rect height="22" rx="10" ry="10" width="45.5" x="1435.5" y="54"></rect><text x="1458.25" y="69">⇐ ➋</text></g><path d="M 1481.0 65 h 10"></path><path d="M 1491.0 65 h 10"></path><g class="terminal ">
<path d="M 1501.0 65 h 0.0"></path><path d="M 1546.5 65 h 0.0"></path><rect height="22" rx="10" ry="10" width="45.5" x="1501.0" y="54"></rect><text x="1523.75" y="69">'&#42;'</text></g></g><path d="M 1555.0 65 h 20"></path><path d="M 50.0 65 a 10 10 0 0 1 10 10 v 219 a 10 10 0 0 0 10 10"></path><g>
<path d="M 70.0 304 h 0.0"></path><path d="M 1555.0 304 h 0.0"></path><g>
<path d="M 70.0 304 h 0.0"></path><g>
<path d="M 70.0 304 h 10.0"></path><path d="M 512.0 304 h 10.0"></path><g class="terminal ">
<path d="M 80.0 304 h 0.0"></path><path d="M 142.5 304 h 0.0"></path><rect height="22" rx="10" ry="10" width="62.5" x="80.0" y="293"></rect><text x="111.25" y="308">'\\+'</text></g><path d="M 142.5 304 h 10"></path><path d="M 152.5 304 h 10"></path><g>
<path d="M 162.5 304 h 0.0"></path><path d="M 381.0 304 h 0.0"></path><rect class="group-box" height="38" rx="10" ry="10" width="218.5" x="162.5" y="285"></rect><g>
<path d="M 162.5 304 h 10.0"></path><path d="M 371.0 304 h 10.0"></path><g class="non-terminal ">
<path d="M 172.5 304 h 0.0"></path><path d="M 371.0 304 h 0.0"></path><rect height="22" width="198.5" x="172.5" y="293"></rect><text x="271.75" y="308">Chars.char.style.enum</text></g></g><g class="non-terminal ">
<path d="M 162.5 277 h 0.0"></path><path d="M 179.5 277 h 0.0"></path><text class="comment" x="171.0" y="282">➌</text></g></g><path d="M 381.0 304 h 10"></path><path d="M 391.0 304 h 10"></path><g>
<path d="M 401.0 304 h 0.0"></path><path d="M 512.0 304 h 0.0"></path><path d="M 401.0 304 h 20"></path><g class="terminal ">
<path d="M 421.0 304 h 12.75"></path><path d="M 479.25 304 h 12.75"></path><rect height="22" rx="10" ry="10" width="45.5" x="433.75" y="293"></rect><text x="456.5" y="308">' '</text></g><path d="M 492.0 304 h 20"></path><path d="M 401.0 304 a 10 10 0 0 1 10 10 v 10 a 10 10 0 0 0 10 10"></path><g class="terminal altterminal">
<path d="M 421.0 334 h 0.0"></path><path d="M 492.0 334 h 0.0"></path><rect height="22" rx="10" ry="10" width="71.0" x="421.0" y="323"></rect><text x="456.5" y="338">TAGEND</text></g><path d="M 492.0 334 a 10 10 0 0 0 10 -10 v -10 a 10 10 0 0 1 10 -10"></path></g></g><path d="M 522.0 304 h 0.0"></path></g><path d="M 522.0 304 h 10"></path><path d="M 532.0 304 h 10"></path><g>
<path d="M 542.0 304 h 0.0"></path><path d="M 1341.5 304 h 0.0"></path><path d="M 542.0 304 h 20"></path><g>
<path d="M 562.0 304 h 0.0"></path><path d="M 1321.5 304 h 0.0"></path><g class="non-terminal ">
<path d="M 562.0 304 h 0.0"></path><path d="M 675.5 304 h 0.0"></path><rect height="22" width="113.5" x="562.0" y="293"></rect><text x="618.75" y="308">CharContent</text></g><path d="M 675.5 304 h 10"></path><path d="M 685.5 304 h 10"></path><g>
<path d="M 695.5 304 h 0.0"></path><path d="M 1321.5 304 h 0.0"></path><path d="M 695.5 304 h 20"></path><g>
<path d="M 715.5 304 h 586.0"></path></g><path d="M 1301.5 304 h 20"></path><path d="M 695.5 304 a 10 10 0 0 1 10 10 v 9 a 10 10 0 0 0 10 10"></path><g>
<path d="M 715.5 333 h 0.0"></path><path d="M 1301.5 333 h 0.0"></path><g>
<path d="M 715.5 333 h 0.0"></path><path d="M 809.5 333 h 0.0"></path><path d="M 715.5 333 h 20"></path><g class="terminal ">
<path d="M 735.5 333 h 4.25"></path><path d="M 785.25 333 h 4.25"></path><rect height="22" rx="10" ry="10" width="45.5" x="739.75" y="322"></rect><text x="762.5" y="337">'|'</text></g><path d="M 789.5 333 h 20"></path><path d="M 715.5 333 a 10 10 0 0 1 10 10 v 10 a 10 10 0 0 0 10 10"></path><g class="terminal altterminal">
<path d="M 735.5 363 h 0.0"></path><path d="M 789.5 363 h 0.0"></path><rect height="22" rx="10" ry="10" width="54.0" x="735.5" y="352"></rect><text x="762.5" y="367">PIPE</text></g><path d="M 789.5 363 a 10 10 0 0 0 10 -10 v -10 a 10 10 0 0 1 10 -10"></path></g><path d="M 809.5 333 h 10"></path><path d="M 819.5 333 h 10"></path><g>
<path d="M 829.5 333 h 0.0"></path><path d="M 1301.5 333 h 0.0"></path><path d="M 829.5 333 h 10"></path><g>
<path d="M 839.5 333 h 0.0"></path><path d="M 1291.5 333 h 0.0"></path><g>
<path d="M 839.5 333 h 0.0"></path><path d="M 1291.5 333 h 0.0"></path><path d="M 839.5 333 h 20"></path><g class="terminal ">
<path d="M 859.5 333 h 157.75"></path><path d="M 1113.75 333 h 157.75"></path><rect height="22" rx="10" ry="10" width="96.5" x="1017.25" y="322"></rect><text x="1065.5" y="337">ATTRIBALL</text></g><path d="M 1271.5 333 h 20"></path><path d="M 839.5 333 a 10 10 0 0 1 10 10 v 10 a 10 10 0 0 0 10 10"></path><g>
<path d="M 859.5 363 h 0.0"></path><path d="M 1271.5 363 h 0.0"></path><g class="terminal ">
<path d="M 859.5 363 h 0.0"></path><path d="M 964.5 363 h 0.0"></path><rect height="22" rx="10" ry="10" width="105.0" x="859.5" y="352"></rect><text x="912.0" y="367">ATTRIBNAME</text></g><path d="M 964.5 363 h 10"></path><path d="M 974.5 363 h 10"></path><g class="terminal ">
<path d="M 984.5 363 h 0.0"></path><path d="M 1038.5 363 h 0.0"></path><rect height="22" rx="10" ry="10" width="54.0" x="984.5" y="352"></rect><text x="1011.5" y="367">'="'</text></g><path d="M 1038.5 363 h 10"></path><path d="M 1048.5 363 h 10"></path><g class="terminal ">
<path d="M 1058.5 363 h 0.0"></path><path d="M 1163.5 363 h 0.0"></path><rect height="22" rx="10" ry="10" width="105.0" x="1058.5" y="352"></rect><text x="1111.0" y="367">ATTRIBTEXT</text></g><path d="M 1163.5 363 h 10"></path><path d="M 1173.5 363 h 10"></path><g class="terminal ">
<path d="M 1183.5 363 h 0.0"></path><path d="M 1271.5 363 h 0.0"></path><rect height="22" rx="10" ry="10" width="88.0" x="1183.5" y="352"></rect><text x="1227.5" y="367">/"${Hs}/</text></g></g><path d="M 1271.5 363 a 10 10 0 0 0 10 -10 v -10 a 10 10 0 0 1 10 -10"></path></g></g><path d="M 1291.5 333 h 10"></path><path d="M 839.5 333 a 10 10 0 0 0 -10 10 v 39 a 10 10 0 0 0 10 10"></path><g>
<path d="M 839.5 392 h 452.0"></path></g><path d="M 1291.5 392 a 10 10 0 0 0 10 -10 v -39 a 10 10 0 0 0 -10 -10"></path></g></g><path d="M 1301.5 333 a 10 10 0 0 0 10 -10 v -9 a 10 10 0 0 1 10 -10"></path></g></g><path d="M 1321.5 304 h 20"></path><path d="M 542.0 304 a 10 10 0 0 1 10 10 v 107 a 10 10 0 0 0 10 10"></path><g>
<path d="M 562.0 431 h 86.75"></path><path d="M 1234.75 431 h 86.75"></path><g>
<path d="M 648.75 431 h 0.0"></path><path d="M 742.75 431 h 0.0"></path><path d="M 648.75 431 h 20"></path><g class="terminal ">
<path d="M 668.75 431 h 4.25"></path><path d="M 718.5 431 h 4.25"></path><rect height="22" rx="10" ry="10" width="45.5" x="673.0" y="420"></rect><text x="695.75" y="435">'|'</text></g><path d="M 722.75 431 h 20"></path><path d="M 648.75 431 a 10 10 0 0 1 10 10 v 10 a 10 10 0 0 0 10 10"></path><g class="terminal altterminal">
<path d="M 668.75 461 h 0.0"></path><path d="M 722.75 461 h 0.0"></path><rect height="22" rx="10" ry="10" width="54.0" x="668.75" y="450"></rect><text x="695.75" y="465">PIPE</text></g><path d="M 722.75 461 a 10 10 0 0 0 10 -10 v -10 a 10 10 0 0 1 10 -10"></path></g><path d="M 742.75 431 h 10"></path><path d="M 752.75 431 h 10"></path><g>
<path d="M 762.75 431 h 0.0"></path><path d="M 1234.75 431 h 0.0"></path><path d="M 762.75 431 h 10"></path><g>
<path d="M 772.75 431 h 0.0"></path><path d="M 1224.75 431 h 0.0"></path><g>
<path d="M 772.75 431 h 0.0"></path><path d="M 1224.75 431 h 0.0"></path><path d="M 772.75 431 h 20"></path><g class="terminal ">
<path d="M 792.75 431 h 157.75"></path><path d="M 1047.0 431 h 157.75"></path><rect height="22" rx="10" ry="10" width="96.5" x="950.5" y="420"></rect><text x="998.75" y="435">ATTRIBALL</text></g><path d="M 1204.75 431 h 20"></path><path d="M 772.75 431 a 10 10 0 0 1 10 10 v 10 a 10 10 0 0 0 10 10"></path><g>
<path d="M 792.75 461 h 0.0"></path><path d="M 1204.75 461 h 0.0"></path><g class="terminal ">
<path d="M 792.75 461 h 0.0"></path><path d="M 897.75 461 h 0.0"></path><rect height="22" rx="10" ry="10" width="105.0" x="792.75" y="450"></rect><text x="845.25" y="465">ATTRIBNAME</text></g><path d="M 897.75 461 h 10"></path><path d="M 907.75 461 h 10"></path><g class="terminal ">
<path d="M 917.75 461 h 0.0"></path><path d="M 971.75 461 h 0.0"></path><rect height="22" rx="10" ry="10" width="54.0" x="917.75" y="450"></rect><text x="944.75" y="465">'="'</text></g><path d="M 971.75 461 h 10"></path><path d="M 981.75 461 h 10"></path><g class="terminal ">
<path d="M 991.75 461 h 0.0"></path><path d="M 1096.75 461 h 0.0"></path><rect height="22" rx="10" ry="10" width="105.0" x="991.75" y="450"></rect><text x="1044.25" y="465">ATTRIBTEXT</text></g><path d="M 1096.75 461 h 10"></path><path d="M 1106.75 461 h 10"></path><g class="terminal ">
<path d="M 1116.75 461 h 0.0"></path><path d="M 1204.75 461 h 0.0"></path><rect height="22" rx="10" ry="10" width="88.0" x="1116.75" y="450"></rect><text x="1160.75" y="465">/"${Hs}/</text></g></g><path d="M 1204.75 461 a 10 10 0 0 0 10 -10 v -10 a 10 10 0 0 1 10 -10"></path></g></g><path d="M 1224.75 431 h 10"></path><path d="M 772.75 431 a 10 10 0 0 0 -10 10 v 39 a 10 10 0 0 0 10 10"></path><g>
<path d="M 772.75 490 h 452.0"></path></g><path d="M 1224.75 490 a 10 10 0 0 0 10 -10 v -39 a 10 10 0 0 0 -10 -10"></path></g></g><path d="M 1321.5 431 a 10 10 0 0 0 10 -10 v -107 a 10 10 0 0 1 10 -10"></path></g><path d="M 1341.5 304 h 10"></path><path d="M 1351.5 304 h 10"></path><g class="terminal ">
<path d="M 1361.5 304 h 0.0"></path><path d="M 1424.0 304 h 0.0"></path><rect height="22" rx="10" ry="10" width="62.5" x="1361.5" y="293"></rect><text x="1392.75" y="308">'\\+'</text></g><path d="M 1424.0 304 h 10"></path><path d="M 1434.0 304 h 10"></path><g class="terminal ">
<path d="M 1444.0 304 h 0.0"></path><path d="M 1489.5 304 h 0.0"></path><rect height="22" rx="10" ry="10" width="45.5" x="1444.0" y="293"></rect><text x="1466.75" y="308">⇐ ➌</text></g><path d="M 1489.5 304 h 10"></path><path d="M 1499.5 304 h 10"></path><g class="terminal ">
<path d="M 1509.5 304 h 0.0"></path><path d="M 1555.0 304 h 0.0"></path><rect height="22" rx="10" ry="10" width="45.5" x="1509.5" y="293"></rect><text x="1532.25" y="308">'&#42;'</text></g></g><path d="M 1555.0 304 a 10 10 0 0 0 10 -10 v -219 a 10 10 0 0 1 10 -10"></path></g></g><path d="M 1575.0 65 h 10"></path><path d="M 1585.0 65 h 20 m 0 -10 v 20"></path></g></svg>