<svg class="railroad-diagram" height="764" viewBox="0 0 1007.5 764" width="1007.5" xmlns="http://www.w3.org/2000/svg" xmlns:xlink="http://www.w3.org/1999/xlink">
<g transform="translate(.5 .5)">
<style>/* <![CDATA[ */

    svg.railroad-diagram {
        background-color: hsl(30,20%,95%);
    }
    svg.railroad-diagram path {
        stroke-width: 2;
        stroke: black;
        fill: none;
    }
    svg.railroad-diagram text {
        font-size: 12px;
        text-anchor: middle;
        font-family: DejaVu Sans;
    }
    svg.railroad-diagram text.label {
        text-anchor:start;
    }
    svg.railroad-diagram text.comment {
        font-family: DejaVu Sans;
        font-size: 14px;
    }
    svg.railroad-diagram rect{
        stroke-width: 2;
        stroke: black;
        fill: rgb(210, 210, 255);
    }
    svg.railroad-diagram rect.group-box {
        stroke: gray;
        stroke-dasharray: 10 5;
        fill: none;
    }
    .terminal {
        font-family: DejaVu Sans;
    }
    svg.railroad-diagram g.altterminal rect {
        fill: rgb(251, 252, 207)
    }

/* ]]> */
</style><g>
<path d="M 20 426 v 20 m 0 -10 h 20"></path></g><path d="M 40 436 h 10"></path><g>
<path d="M 50 436 h 0.0"></path><path d="M 957.5 436 h 0.0"></path><g>
<path d="M 50.0 436 h 0.0"></path><path d="M 957.5 436 h 0.0"></path><g class="terminal ">
<path d="M 50.0 436 h 0.0"></path><path d="M 121.0 436 h 0.0"></path><rect height="22" rx="10" ry="10" width="71.0" x="50.0" y="425"></rect><text x="85.5" y="440">&#60;char></text></g><path d="M 121.0 436 h 10"></path><path d="M 131.0 436 h 10"></path><g>
<path d="M 141.0 436 h 0.0"></path><path d="M 957.5 436 h 0.0"></path><path d="M 141.0 436 a 10 10 0 0 0 10 -10 v -267 a 10 10 0 0 1 10 -10"></path><g>
<path d="M 161.0 149 h 0.0"></path><path d="M 829.0 149 h 0.0"></path><g class="terminal ">
<path d="M 161.0 149 h 0.0"></path><path d="M 232.0 149 h 0.0"></path><rect height="22" rx="10" ry="10" width="71.0" x="161.0" y="138"></rect><text x="196.5" y="153">@style</text></g><path d="M 232.0 149 h 10"></path><g>
<path d="M 242.0 149 h 0.0"></path><path d="M 829.0 149 h 0.0"></path><path d="M 242.0 149 a 10 10 0 0 0 10 -10 v -99 a 10 10 0 0 1 10 -10 h 363.0"></path><path d="M 242.0 149 h 10"></path><g>
<path d="M 252.0 149 h 0.0"></path><path d="M 252.0 149 a 10 10 0 0 0 10 -10 v -10 a 10 10 0 0 1 10 -10"></path><g class="terminal ">
<path d="M 272.0 119 h 0.0"></path><path d="M 326.0 119 h 0.0"></path><rect height="22" rx="10" ry="10" width="54.0" x="272.0" y="108"></rect><text x="299.0" y="123">"qs"</text></g><path d="M 252.0 149 a 10 10 0 0 0 10 -10 v -40 a 10 10 0 0 1 10 -10"></path><g class="terminal ">
<path d="M 272.0 89 h 0.0"></path><path d="M 334.5 89 h 0.0"></path><rect height="22" rx="10" ry="10" width="62.5" x="272.0" y="78"></rect><text x="303.25" y="93">"qac"</text></g><path d="M 252.0 149 a 10 10 0 0 0 10 -10 v -70 a 10 10 0 0 1 10 -10"></path><g class="terminal ">
<path d="M 272.0 59 h 0.0"></path><path d="M 326.0 59 h 0.0"></path><rect height="22" rx="10" ry="10" width="54.0" x="272.0" y="48"></rect><text x="299.0" y="63">"vp"</text></g><path d="M 252.0 149 h 20"></path><g class="terminal ">
<path d="M 272.0 149 h 0.0"></path><path d="M 334.5 149 h 0.0"></path><rect height="22" rx="10" ry="10" width="62.5" x="272.0" y="138"></rect><text x="303.25" y="153">"add"</text></g><path d="M 252.0 149 a 10 10 0 0 1 10 10 v 10 a 10 10 0 0 0 10 10"></path><g class="terminal ">
<path d="M 272.0 179 h 0.0"></path><path d="M 351.5 179 h 0.0"></path><rect height="22" rx="10" ry="10" width="79.5" x="272.0" y="168"></rect><text x="311.75" y="183">"addpn"</text></g><path d="M 252.0 149 a 10 10 0 0 1 10 10 v 40 a 10 10 0 0 0 10 10"></path><g class="terminal ">
<path d="M 272.0 209 h 0.0"></path><path d="M 326.0 209 h 0.0"></path><rect height="22" rx="10" ry="10" width="54.0" x="272.0" y="198"></rect><text x="299.0" y="213">"bk"</text></g><path d="M 252.0 149 a 10 10 0 0 1 10 10 v 70 a 10 10 0 0 0 10 10"></path><g class="terminal ">
<path d="M 272.0 239 h 0.0"></path><path d="M 326.0 239 h 0.0"></path><rect height="22" rx="10" ry="10" width="54.0" x="272.0" y="228"></rect><text x="299.0" y="243">"dc"</text></g><path d="M 252.0 149 a 10 10 0 0 1 10 10 v 100 a 10 10 0 0 0 10 10"></path><g class="terminal ">
<path d="M 272.0 269 h 0.0"></path><path d="M 334.5 269 h 0.0"></path><rect height="22" rx="10" ry="10" width="62.5" x="272.0" y="258"></rect><text x="303.25" y="273">"efm"</text></g><path d="M 252.0 149 a 10 10 0 0 1 10 10 v 130 a 10 10 0 0 0 10 10"></path><g class="terminal ">
<path d="M 272.0 299 h 0.0"></path><path d="M 326.0 299 h 0.0"></path><rect height="22" rx="10" ry="10" width="54.0" x="272.0" y="288"></rect><text x="299.0" y="303">"fm"</text></g><path d="M 252.0 149 a 10 10 0 0 1 10 10 v 160 a 10 10 0 0 0 10 10"></path><g class="terminal ">
<path d="M 272.0 329 h 0.0"></path><path d="M 326.0 329 h 0.0"></path><rect height="22" rx="10" ry="10" width="54.0" x="272.0" y="318"></rect><text x="299.0" y="333">"fv"</text></g><path d="M 252.0 149 a 10 10 0 0 1 10 10 v 190 a 10 10 0 0 0 10 10"></path><g class="terminal ">
<path d="M 272.0 359 h 0.0"></path><path d="M 317.5 359 h 0.0"></path><rect height="22" rx="10" ry="10" width="45.5" x="272.0" y="348"></rect><text x="294.75" y="363">"k"</text></g><path d="M 252.0 149 a 10 10 0 0 1 10 10 v 220 a 10 10 0 0 0 10 10"></path><g class="terminal ">
<path d="M 272.0 389 h 0.0"></path><path d="M 326.0 389 h 0.0"></path><rect height="22" rx="10" ry="10" width="54.0" x="272.0" y="378"></rect><text x="299.0" y="393">"nd"</text></g></g><path d="M 371.5 30 a 10 10 0 0 1 10 10 v 99 a 10 10 0 0 0 10 10"></path><g>
<path d="M 391.5 149 h 0.0"></path><path d="M 391.5 149 a 10 10 0 0 0 10 -10 v -10 a 10 10 0 0 1 10 -10"></path><g class="terminal ">
<path d="M 411.5 119 h 0.0"></path><path d="M 465.5 119 h 0.0"></path><rect height="22" rx="10" ry="10" width="54.0" x="411.5" y="108"></rect><text x="438.5" y="123">"pl"</text></g><path d="M 391.5 149 a 10 10 0 0 0 10 -10 v -40 a 10 10 0 0 1 10 -10"></path><g class="terminal ">
<path d="M 411.5 89 h 0.0"></path><path d="M 474.0 89 h 0.0"></path><rect height="22" rx="10" ry="10" width="62.5" x="411.5" y="78"></rect><text x="442.75" y="93">"ord"</text></g><path d="M 391.5 149 a 10 10 0 0 0 10 -10 v -70 a 10 10 0 0 1 10 -10"></path><g class="terminal ">
<path d="M 411.5 59 h 0.0"></path><path d="M 474.0 59 h 0.0"></path><rect height="22" rx="10" ry="10" width="62.5" x="411.5" y="48"></rect><text x="442.75" y="63">"ndx"</text></g><path d="M 391.5 149 h 20"></path><g class="terminal ">
<path d="M 411.5 149 h 0.0"></path><path d="M 474.0 149 h 0.0"></path><rect height="22" rx="10" ry="10" width="62.5" x="411.5" y="138"></rect><text x="442.75" y="153">"png"</text></g><path d="M 391.5 149 a 10 10 0 0 1 10 10 v 10 a 10 10 0 0 0 10 10"></path><g class="terminal ">
<path d="M 411.5 179 h 0.0"></path><path d="M 465.5 179 h 0.0"></path><rect height="22" rx="10" ry="10" width="54.0" x="411.5" y="168"></rect><text x="438.5" y="183">"pn"</text></g><path d="M 391.5 149 a 10 10 0 0 1 10 10 v 40 a 10 10 0 0 0 10 10"></path><g class="terminal ">
<path d="M 411.5 209 h 0.0"></path><path d="M 474.0 209 h 0.0"></path><rect height="22" rx="10" ry="10" width="62.5" x="411.5" y="198"></rect><text x="442.75" y="213">"pro"</text></g><path d="M 391.5 149 a 10 10 0 0 1 10 10 v 70 a 10 10 0 0 0 10 10"></path><g class="terminal ">
<path d="M 411.5 239 h 0.0"></path><path d="M 465.5 239 h 0.0"></path><rect height="22" rx="10" ry="10" width="54.0" x="411.5" y="228"></rect><text x="438.5" y="243">"qt"</text></g><path d="M 391.5 149 a 10 10 0 0 1 10 10 v 100 a 10 10 0 0 0 10 10"></path><g class="terminal ">
<path d="M 411.5 269 h 0.0"></path><path d="M 465.5 269 h 0.0"></path><rect height="22" rx="10" ry="10" width="54.0" x="411.5" y="258"></rect><text x="438.5" y="273">"rq"</text></g><path d="M 391.5 149 a 10 10 0 0 1 10 10 v 130 a 10 10 0 0 0 10 10"></path><g class="terminal ">
<path d="M 411.5 299 h 0.0"></path><path d="M 474.0 299 h 0.0"></path><rect height="22" rx="10" ry="10" width="62.5" x="411.5" y="288"></rect><text x="442.75" y="303">"sig"</text></g><path d="M 391.5 149 a 10 10 0 0 1 10 10 v 160 a 10 10 0 0 0 10 10"></path><g class="terminal ">
<path d="M 411.5 329 h 0.0"></path><path d="M 474.0 329 h 0.0"></path><rect height="22" rx="10" ry="10" width="62.5" x="411.5" y="318"></rect><text x="442.75" y="333">"sls"</text></g><path d="M 391.5 149 a 10 10 0 0 1 10 10 v 190 a 10 10 0 0 0 10 10"></path><g class="terminal ">
<path d="M 411.5 359 h 0.0"></path><path d="M 465.5 359 h 0.0"></path><rect height="22" rx="10" ry="10" width="54.0" x="411.5" y="348"></rect><text x="438.5" y="363">"tl"</text></g><path d="M 391.5 149 a 10 10 0 0 1 10 10 v 220 a 10 10 0 0 0 10 10"></path><g class="terminal ">
<path d="M 411.5 389 h 0.0"></path><path d="M 465.5 389 h 0.0"></path><rect height="22" rx="10" ry="10" width="54.0" x="411.5" y="378"></rect><text x="438.5" y="393">"wg"</text></g></g><path d="M 494.0 30 a 10 10 0 0 1 10 10 v 99 a 10 10 0 0 0 10 10"></path><g>
<path d="M 514.0 149 h 0.0"></path><path d="M 514.0 149 a 10 10 0 0 0 10 -10 v -10 a 10 10 0 0 1 10 -10"></path><g class="terminal ">
<path d="M 534.0 119 h 0.0"></path><path d="M 588.0 119 h 0.0"></path><rect height="22" rx="10" ry="10" width="54.0" x="534.0" y="108"></rect><text x="561.0" y="123">"wj"</text></g><path d="M 514.0 149 a 10 10 0 0 0 10 -10 v -40 a 10 10 0 0 1 10 -10"></path><g class="terminal ">
<path d="M 534.0 89 h 0.0"></path><path d="M 588.0 89 h 0.0"></path><rect height="22" rx="10" ry="10" width="54.0" x="534.0" y="78"></rect><text x="561.0" y="93">"wa"</text></g><path d="M 514.0 149 a 10 10 0 0 0 10 -10 v -70 a 10 10 0 0 1 10 -10"></path><g class="terminal ">
<path d="M 534.0 59 h 0.0"></path><path d="M 588.0 59 h 0.0"></path><rect height="22" rx="10" ry="10" width="54.0" x="534.0" y="48"></rect><text x="561.0" y="63">"wh"</text></g><path d="M 514.0 149 h 20"></path><g class="terminal ">
<path d="M 534.0 149 h 0.0"></path><path d="M 588.0 149 h 0.0"></path><rect height="22" rx="10" ry="10" width="54.0" x="534.0" y="138"></rect><text x="561.0" y="153">"wl"</text></g><path d="M 514.0 149 a 10 10 0 0 1 10 10 v 10 a 10 10 0 0 0 10 10"></path><g class="terminal ">
<path d="M 534.0 179 h 0.0"></path><path d="M 596.5 179 h 0.0"></path><rect height="22" rx="10" ry="10" width="62.5" x="534.0" y="168"></rect><text x="565.25" y="183">"jmp"</text></g><path d="M 514.0 149 a 10 10 0 0 1 10 10 v 40 a 10 10 0 0 0 10 10"></path><g class="terminal ">
<path d="M 534.0 209 h 0.0"></path><path d="M 588.0 209 h 0.0"></path><rect height="22" rx="10" ry="10" width="54.0" x="534.0" y="198"></rect><text x="561.0" y="213">"no"</text></g><path d="M 514.0 149 a 10 10 0 0 1 10 10 v 70 a 10 10 0 0 0 10 10"></path><g class="terminal ">
<path d="M 534.0 239 h 0.0"></path><path d="M 588.0 239 h 0.0"></path><rect height="22" rx="10" ry="10" width="54.0" x="534.0" y="228"></rect><text x="561.0" y="243">"it"</text></g><path d="M 514.0 149 a 10 10 0 0 1 10 10 v 100 a 10 10 0 0 0 10 10"></path><g class="terminal ">
<path d="M 534.0 269 h 0.0"></path><path d="M 605.0 269 h 0.0"></path><rect height="22" rx="10" ry="10" width="71.0" x="534.0" y="258"></rect><text x="569.5" y="273">"bdit"</text></g><path d="M 514.0 149 a 10 10 0 0 1 10 10 v 130 a 10 10 0 0 0 10 10"></path><g class="terminal ">
<path d="M 534.0 299 h 0.0"></path><path d="M 588.0 299 h 0.0"></path><rect height="22" rx="10" ry="10" width="54.0" x="534.0" y="288"></rect><text x="561.0" y="303">"bd"</text></g><path d="M 514.0 149 a 10 10 0 0 1 10 10 v 160 a 10 10 0 0 0 10 10"></path><g class="terminal ">
<path d="M 534.0 329 h 0.0"></path><path d="M 588.0 329 h 0.0"></path><rect height="22" rx="10" ry="10" width="54.0" x="534.0" y="318"></rect><text x="561.0" y="333">"em"</text></g><path d="M 514.0 149 a 10 10 0 0 1 10 10 v 190 a 10 10 0 0 0 10 10"></path><g class="terminal ">
<path d="M 534.0 359 h 0.0"></path><path d="M 588.0 359 h 0.0"></path><rect height="22" rx="10" ry="10" width="54.0" x="534.0" y="348"></rect><text x="561.0" y="363">"sc"</text></g><path d="M 514.0 149 a 10 10 0 0 1 10 10 v 220 a 10 10 0 0 0 10 10"></path><g class="terminal ">
<path d="M 534.0 389 h 0.0"></path><path d="M 596.5 389 h 0.0"></path><rect height="22" rx="10" ry="10" width="62.5" x="534.0" y="378"></rect><text x="565.25" y="393">"sup"</text></g></g><path d="M 625.0 30 a 10 10 0 0 1 10 10 v 99 a 10 10 0 0 0 10 10"></path><g>
<path d="M 645.0 149 h 0.0"></path><path d="M 645.0 149 a 10 10 0 0 0 10 -10 v -10 a 10 10 0 0 1 10 -10"></path><g class="terminal ">
<path d="M 665.0 119 h 0.0"></path><path d="M 719.0 119 h 0.0"></path><rect height="22" rx="10" ry="10" width="54.0" x="665.0" y="108"></rect><text x="692.0" y="123">"rb"</text></g><path d="M 645.0 149 a 10 10 0 0 0 10 -10 v -40 a 10 10 0 0 1 10 -10"></path><g class="terminal ">
<path d="M 665.0 89 h 0.0"></path><path d="M 710.5 89 h 0.0"></path><rect height="22" rx="10" ry="10" width="45.5" x="665.0" y="78"></rect><text x="687.75" y="93">"w"</text></g><path d="M 645.0 149 a 10 10 0 0 0 10 -10 v -70 a 10 10 0 0 1 10 -10"></path><g class="terminal ">
<path d="M 665.0 59 h 0.0"></path><path d="M 719.0 59 h 0.0"></path><rect height="22" rx="10" ry="10" width="54.0" x="665.0" y="48"></rect><text x="692.0" y="63">"xt"</text></g><path d="M 645.0 149 h 20"></path><g class="terminal ">
<path d="M 665.0 149 h 0.0"></path><path d="M 719.0 149 h 0.0"></path><rect height="22" rx="10" ry="10" width="54.0" x="665.0" y="138"></rect><text x="692.0" y="153">"ta"</text></g><path d="M 645.0 149 a 10 10 0 0 1 10 10 v 10 a 10 10 0 0 0 10 10"></path><g class="terminal ">
<path d="M 665.0 179 h 0.0"></path><path d="M 719.0 179 h 0.0"></path><rect height="22" rx="10" ry="10" width="54.0" x="665.0" y="168"></rect><text x="692.0" y="183">"xt"</text></g></g></g></g><path d="M 141.0 436 h 20"></path><g>
<path d="M 161.0 436 h 0.0"></path><path d="M 937.5 436 h 0.0"></path><g>
<path d="M 161.0 436 h 0.0"></path><path d="M 357.0 436 h 0.0"></path><path d="M 161.0 436 h 20"></path><g>
<path d="M 181.0 436 h 156.0"></path></g><path d="M 337.0 436 h 20"></path><path d="M 161.0 436 a 10 10 0 0 1 10 10 v 0 a 10 10 0 0 0 10 10"></path><g class="non-terminal ">
<path d="M 181.0 456 h 0.0"></path><path d="M 337.0 456 h 0.0"></path><rect height="22" width="156.0" x="181.0" y="445"></rect><text x="259.0" y="460">AttributesPreAll</text></g><path d="M 337.0 456 a 10 10 0 0 0 10 -10 v 0 a 10 10 0 0 1 10 -10"></path></g><path d="M 357.0 436 h 10"></path><path d="M 367.0 436 h 10"></path><g>
<path d="M 377.0 436 h 0.0"></path><path d="M 704.5 436 h 0.0"></path><path d="M 377.0 436 h 20"></path><g>
<path d="M 397.0 436 h 287.5"></path></g><path d="M 684.5 436 h 20"></path><path d="M 377.0 436 a 10 10 0 0 1 10 10 v 9 a 10 10 0 0 0 10 10"></path><g>
<path d="M 397.0 465 h 0.0"></path><path d="M 684.5 465 h 0.0"></path><g>
<path d="M 397.0 465 h 0.0"></path><path d="M 684.5 465 h 0.0"></path><path d="M 397.0 465 h 10"></path><g>
<path d="M 407.0 465 h 0.0"></path><path d="M 674.5 465 h 0.0"></path><path d="M 407.0 465 h 20"></path><g class="non-terminal ">
<path d="M 427.0 465 h 65.5"></path><path d="M 589.0 465 h 65.5"></path><rect height="22" width="96.5" x="492.5" y="454"></rect><text x="540.75" y="469">CharEmbed</text></g><path d="M 654.5 465 h 20"></path><path d="M 407.0 465 a 10 10 0 0 1 10 10 v 10 a 10 10 0 0 0 10 10"></path><g class="non-terminal ">
<path d="M 427.0 495 h 78.25"></path><path d="M 576.25 495 h 78.25"></path><rect height="22" width="71.0" x="505.25" y="484"></rect><text x="540.75" y="499">Figure</text></g><path d="M 654.5 495 a 10 10 0 0 0 10 -10 v -10 a 10 10 0 0 1 10 -10"></path><path d="M 407.0 465 a 10 10 0 0 1 10 10 v 40 a 10 10 0 0 0 10 10"></path><g class="non-terminal ">
<path d="M 427.0 525 h 65.5"></path><path d="M 589.0 525 h 65.5"></path><rect height="22" width="96.5" x="492.5" y="514"></rect><text x="540.75" y="529">Milestone</text></g><path d="M 654.5 525 a 10 10 0 0 0 10 -10 v -40 a 10 10 0 0 1 10 -10"></path><path d="M 407.0 465 a 10 10 0 0 1 10 10 v 70 a 10 10 0 0 0 10 10"></path><g class="non-terminal ">
<path d="M 427.0 555 h 69.75"></path><path d="M 584.75 555 h 69.75"></path><rect height="22" width="88.0" x="496.75" y="544"></rect><text x="540.75" y="559">Footnote</text></g><path d="M 654.5 555 a 10 10 0 0 0 10 -10 v -70 a 10 10 0 0 1 10 -10"></path><path d="M 407.0 465 a 10 10 0 0 1 10 10 v 100 a 10 10 0 0 0 10 10"></path><g class="non-terminal ">
<path d="M 427.0 585 h 44.25"></path><path d="M 610.25 585 h 44.25"></path><rect height="22" width="139.0" x="471.25" y="574"></rect><text x="540.75" y="589">CrossReference</text></g><path d="M 654.5 585 a 10 10 0 0 0 10 -10 v -100 a 10 10 0 0 1 10 -10"></path><path d="M 407.0 465 a 10 10 0 0 1 10 10 v 130 a 10 10 0 0 0 10 10"></path><g class="non-terminal ">
<path d="M 427.0 615 h 65.5"></path><path d="M 589.0 615 h 65.5"></path><rect height="22" width="96.5" x="492.5" y="604"></rect><text x="540.75" y="619">Reference</text></g><path d="M 654.5 615 a 10 10 0 0 0 10 -10 v -130 a 10 10 0 0 1 10 -10"></path><path d="M 407.0 465 a 10 10 0 0 1 10 10 v 170 a 10 10 0 0 0 10 10"></path><g>
<path d="M 427.0 655 h 0.0"></path><path d="M 654.5 655 h 0.0"></path><g class="terminal ">
<path d="M 427.0 655 h 0.0"></path><path d="M 532.0 655 h 0.0"></path><rect height="22" rx="10" ry="10" width="105.0" x="427.0" y="644"></rect><text x="479.5" y="659">&#60;optbreak></text></g><path d="M 532.0 655 h 10"></path><path d="M 542.0 655 h 10"></path><g>
<path d="M 552.0 655 h 0.0"></path><path d="M 654.5 655 h 0.0"></path><path d="M 552.0 655 h 20"></path><g class="terminal ">
<path d="M 572.0 655 h 0.0"></path><path d="M 634.5 655 h 0.0"></path><rect height="22" rx="10" ry="10" width="62.5" x="572.0" y="644"></rect><text x="603.25" y="659">EMPTY</text></g><path d="M 634.5 655 h 20"></path></g></g><path d="M 654.5 655 a 10 10 0 0 0 10 -10 v -170 a 10 10 0 0 1 10 -10"></path><path d="M 407.0 465 a 10 10 0 0 1 10 10 v 210 a 10 10 0 0 0 10 10"></path><g class="terminal ">
<path d="M 427.0 695 h 86.75"></path><path d="M 567.75 695 h 86.75"></path><rect height="22" rx="10" ry="10" width="54.0" x="513.75" y="684"></rect><text x="540.75" y="699">TEXT</text></g><path d="M 654.5 695 a 10 10 0 0 0 10 -10 v -210 a 10 10 0 0 1 10 -10"></path></g><path d="M 674.5 465 h 10"></path><path d="M 407.0 465 a 10 10 0 0 0 -10 10 v 239 a 10 10 0 0 0 10 10"></path><g>
<path d="M 407.0 724 h 267.5"></path></g><path d="M 674.5 724 a 10 10 0 0 0 10 -10 v -239 a 10 10 0 0 0 -10 -10"></path></g></g><path d="M 684.5 465 a 10 10 0 0 0 10 -10 v -9 a 10 10 0 0 1 10 -10"></path></g><path d="M 704.5 436 h 10"></path><path d="M 714.5 436 h 10"></path><g>
<path d="M 724.5 436 h 0.0"></path><path d="M 937.5 436 h 0.0"></path><path d="M 724.5 436 h 20"></path><g>
<path d="M 744.5 436 h 173.0"></path></g><path d="M 917.5 436 h 20"></path><path d="M 724.5 436 a 10 10 0 0 1 10 10 v 0 a 10 10 0 0 0 10 10"></path><g class="non-terminal ">
<path d="M 744.5 456 h 0.0"></path><path d="M 917.5 456 h 0.0"></path><rect height="22" width="173.0" x="744.5" y="445"></rect><text x="831.0" y="460">AttributesNoAttrib</text></g><path d="M 917.5 456 a 10 10 0 0 0 10 -10 v 0 a 10 10 0 0 1 10 -10"></path></g></g><path d="M 937.5 436 h 20"></path></g></g></g><path d="M 957.5 436 h 10"></path><path d="M 967.5 436 h 20 m 0 -10 v 20"></path></g></svg>