<svg class="railroad-diagram" height="184" viewBox="0 0 1486.0 184" width="1486.0" xmlns="http://www.w3.org/2000/svg" xmlns:xlink="http://www.w3.org/1999/xlink">
<g transform="translate(.5 .5)">
<style>/* <![CDATA[ */

    svg.railroad-diagram {
        background-color:hsl(30,20%,95%);
    }
    svg.railroad-diagram path {
        stroke-width: 2;
        stroke: black;
        fill: none;
    }
    svg.railroad-diagram text {
        font-size: 12px;
        text-anchor: middle;
        font-family: DejaVu Sans;
    }
    svg.railroad-diagram text.label {
        text-anchor:start;
    }
    svg.railroad-diagram text.comment {
        font-family: DejaVu Sans;
        font-size: 14px;
    }
    svg.railroad-diagram rect{
        stroke-width: 2;
        stroke:black;
        fill: rgb(210, 255, 210);
    }
    svg.railroad-diagram rect.group-box {
        stroke: gray;
        stroke-dasharray: 10 5;
        fill: none;
    }
    .terminal {
        font-family: DejaVu Sans;
    }

/* ]]> */
</style><g>
<path d="M 20 55 v 20 m 0 -10 h 20"></path></g><path d="M 40 65 h 10"></path><g>
<path d="M 50 65 h 0.0"></path><path d="M 1436.0 65 h 0.0"></path><g class="terminal ">
<path d="M 50.0 65 h 0.0"></path><path d="M 95.5 65 h 0.0"></path><rect height="22" rx="10" ry="10" width="45.5" x="50.0" y="54"></rect><text x="72.75" y="69">'\'</text></g><path d="M 95.5 65 h 10"></path><path d="M 105.5 65 h 10"></path><g>
<path d="M 115.5 65 h 0.0"></path><path d="M 238.0 65 h 0.0"></path><rect class="group-box" height="118" rx="10" ry="10" width="122.5" x="115.5" y="36"></rect><g>
<path d="M 115.5 65 h 10.0"></path><path d="M 228.0 65 h 10.0"></path><g>
<path d="M 125.5 65 h 0.0"></path><path d="M 228.0 65 h 0.0"></path><path d="M 125.5 65 h 20"></path><g class="terminal ">
<path d="M 145.5 65 h 8.5"></path><path d="M 199.5 65 h 8.5"></path><rect height="22" rx="10" ry="10" width="45.5" x="154.0" y="54"></rect><text x="176.75" y="69">"w"</text></g><path d="M 208.0 65 h 20"></path><path d="M 125.5 65 a 10 10 0 0 1 10 10 v 10 a 10 10 0 0 0 10 10"></path><g class="terminal ">
<path d="M 145.5 95 h 4.25"></path><path d="M 203.75 95 h 4.25"></path><rect height="22" rx="10" ry="10" width="54.0" x="149.75" y="84"></rect><text x="176.75" y="99">"rb"</text></g><path d="M 208.0 95 a 10 10 0 0 0 10 -10 v -10 a 10 10 0 0 1 10 -10"></path><path d="M 125.5 65 a 10 10 0 0 1 10 10 v 40 a 10 10 0 0 0 10 10"></path><g class="terminal ">
<path d="M 145.5 125 h 0.0"></path><path d="M 208.0 125 h 0.0"></path><rect height="22" rx="10" ry="10" width="62.5" x="145.5" y="114"></rect><text x="176.75" y="129">"fig"</text></g><path d="M 208.0 125 a 10 10 0 0 0 10 -10 v -40 a 10 10 0 0 1 10 -10"></path></g></g><g class="non-terminal ">
<path d="M 115.5 28 h 0.0"></path><path d="M 132.5 28 h 0.0"></path><text class="comment" x="124.0" y="33">➋</text></g></g><path d="M 238.0 65 h 10"></path><path d="M 248.0 65 h 10"></path><g class="terminal ">
<path d="M 258.0 65 h 0.0"></path><path d="M 329.0 65 h 0.0"></path><rect height="22" rx="10" ry="10" width="71.0" x="258.0" y="54"></rect><text x="293.5" y="69">TAGEND</text></g><path d="M 329.0 65 h 10"></path><path d="M 339.0 65 h 10"></path><g>
<path d="M 349.0 65 h 0.0"></path><path d="M 494.0 65 h 0.0"></path><path d="M 349.0 65 h 20"></path><g>
<path d="M 369.0 65 h 105.0"></path></g><path d="M 474.0 65 h 20"></path><path d="M 349.0 65 a 10 10 0 0 1 10 10 v 0 a 10 10 0 0 0 10 10"></path><g>
<path d="M 369.0 85 h 0.0"></path><path d="M 474.0 85 h 0.0"></path><g class="terminal ">
<path d="M 369.0 85 h 0.0"></path><path d="M 474.0 85 h 0.0"></path><rect height="22" rx="10" ry="10" width="105.0" x="369.0" y="74"></rect><text x="421.5" y="89">TEXTATTRIB</text></g></g><path d="M 474.0 85 a 10 10 0 0 0 10 -10 v 0 a 10 10 0 0 1 10 -10"></path></g><path d="M 494.0 65 h 10"></path><path d="M 504.0 65 h 10"></path><g>
<path d="M 514.0 65 h 0.0"></path><path d="M 667.5 65 h 0.0"></path><path d="M 514.0 65 h 20"></path><g>
<path d="M 534.0 65 h 113.5"></path></g><path d="M 647.5 65 h 20"></path><path d="M 514.0 65 a 10 10 0 0 1 10 10 v 0 a 10 10 0 0 0 10 10"></path><g class="non-terminal ">
<path d="M 534.0 85 h 0.0"></path><path d="M 647.5 85 h 0.0"></path><rect height="22" width="113.5" x="534.0" y="74"></rect><text x="590.75" y="89">char.closed</text></g><path d="M 647.5 85 a 10 10 0 0 0 10 -10 v 0 a 10 10 0 0 1 10 -10"></path></g><path d="M 667.5 65 h 10"></path><path d="M 677.5 65 h 10"></path><g>
<path d="M 687.5 65 h 0.0"></path><path d="M 1239.5 65 h 0.0"></path><path d="M 687.5 65 h 20"></path><g>
<path d="M 707.5 65 h 512.0"></path></g><path d="M 1219.5 65 h 20"></path><path d="M 687.5 65 a 10 10 0 0 1 10 10 v 9 a 10 10 0 0 0 10 10"></path><g>
<path d="M 707.5 94 h 0.0"></path><path d="M 1219.5 94 h 0.0"></path><g class="terminal ">
<path d="M 707.5 94 h 0.0"></path><path d="M 753.0 94 h 0.0"></path><rect height="22" rx="10" ry="10" width="45.5" x="707.5" y="83"></rect><text x="730.25" y="98">'|'</text></g><path d="M 753.0 94 h 10"></path><path d="M 763.0 94 h 10"></path><g>
<path d="M 773.0 94 h 0.0"></path><path d="M 1219.5 94 h 0.0"></path><path d="M 773.0 94 h 20"></path><g>
<path d="M 793.0 94 h 129.5"></path><path d="M 1070.0 94 h 129.5"></path><g class="terminal ">
<path d="M 922.5 94 h 0.0"></path><path d="M 1070.0 94 h 0.0"></path><rect height="22" rx="10" ry="10" width="147.5" x="922.5" y="83"></rect><text x="996.25" y="98">/&#91;^\\=&#93;&#42;(?=\\)/</text></g></g><path d="M 1199.5 94 h 20"></path><path d="M 773.0 94 a 10 10 0 0 1 10 10 v 10 a 10 10 0 0 0 10 10"></path><g>
<path d="M 793.0 124 h 0.0"></path><path d="M 1199.5 124 h 0.0"></path><path d="M 793.0 124 h 10"></path><g>
<path d="M 803.0 124 h 0.0"></path><path d="M 1189.5 124 h 0.0"></path><g class="terminal ">
<path d="M 803.0 124 h 0.0"></path><path d="M 908.0 124 h 0.0"></path><rect height="22" rx="10" ry="10" width="105.0" x="803.0" y="113"></rect><text x="855.5" y="128">/&#91;^\\="&#93;+/</text></g><path d="M 908.0 124 h 10"></path><path d="M 918.0 124 h 10"></path><g class="terminal ">
<path d="M 928.0 124 h 0.0"></path><path d="M 982.0 124 h 0.0"></path><rect height="22" rx="10" ry="10" width="54.0" x="928.0" y="113"></rect><text x="955.0" y="128">'="'</text></g><path d="M 982.0 124 h 10"></path><path d="M 992.0 124 h 10"></path><g class="terminal ">
<path d="M 1002.0 124 h 0.0"></path><path d="M 1098.5 124 h 0.0"></path><rect height="22" rx="10" ry="10" width="96.5" x="1002.0" y="113"></rect><text x="1050.25" y="128">/&#91;^\\"&#93;+/</text></g><path d="M 1098.5 124 h 10"></path><path d="M 1108.5 124 h 10"></path><g class="terminal ">
<path d="M 1118.5 124 h 0.0"></path><path d="M 1189.5 124 h 0.0"></path><rect height="22" rx="10" ry="10" width="71.0" x="1118.5" y="113"></rect><text x="1154.0" y="128">/"\s&#42;/</text></g></g><path d="M 1189.5 124 h 10"></path><path d="M 803.0 124 a 10 10 0 0 0 -10 10 v 0 a 10 10 0 0 0 10 10"></path><g>
<path d="M 803.0 144 h 386.5"></path></g><path d="M 1189.5 144 a 10 10 0 0 0 10 -10 v 0 a 10 10 0 0 0 -10 -10"></path></g><path d="M 1199.5 124 a 10 10 0 0 0 10 -10 v -10 a 10 10 0 0 1 10 -10"></path></g></g><path d="M 1219.5 94 a 10 10 0 0 0 10 -10 v -9 a 10 10 0 0 1 10 -10"></path></g><path d="M 1239.5 65 h 10"></path><path d="M 1249.5 65 h 10"></path><g class="terminal ">
<path d="M 1259.5 65 h 0.0"></path><path d="M 1305.0 65 h 0.0"></path><rect height="22" rx="10" ry="10" width="45.5" x="1259.5" y="54"></rect><text x="1282.25" y="69">'\'</text></g><path d="M 1305.0 65 h 10"></path><path d="M 1315.0 65 h 10"></path><g class="terminal ">
<path d="M 1325.0 65 h 0.0"></path><path d="M 1370.5 65 h 0.0"></path><rect height="22" rx="10" ry="10" width="45.5" x="1325.0" y="54"></rect><text x="1347.75" y="69">⇐ ➔</text></g><path d="M 1370.5 65 h 10"></path><path d="M 1380.5 65 h 10"></path><g class="terminal ">
<path d="M 1390.5 65 h 0.0"></path><path d="M 1436.0 65 h 0.0"></path><rect height="22" rx="10" ry="10" width="45.5" x="1390.5" y="54"></rect><text x="1413.25" y="69">'&#42;'</text></g></g><path d="M 1436.0 65 h 10"></path><path d="M 1446.0 65 h 20 m 0 -10 v 20"></path></g></svg>