<svg class="railroad-diagram" height="474" viewBox="0 0 990.0 474" width="990.0" xmlns="http://www.w3.org/2000/svg" xmlns:xlink="http://www.w3.org/1999/xlink">
<g transform="translate(.5 .5)">
<style>/* <![CDATA[ */
    svg.railroad-diagram {
        background-color:hsl(30,20%,95%);
    }
    svg.railroad-diagram path {
        stroke-width: 2;
        stroke: black;
        fill: none;
    }
    svg.railroad-diagram text {
        font-size: 12px;
        text-anchor: middle;
        font-family: DejaVu Sans;
    }
    svg.railroad-diagram text.label {
        text-anchor:start;
    }
    svg.railroad-diagram text.comment {
        font-family: DejaVu Sans;
        font-size: 14px;
    }
    svg.railroad-diagram rect{
        stroke-width: 2;
        stroke:black;
        fill: rgb(210, 210, 255);
    }
    svg.railroad-diagram rect.group-box {
        stroke: gray;
        stroke-dasharray: 10 5;
        fill: none;
    }
    .terminal {
        font-family: DejaVu Sans;
    }

/* ]]> */
</style><g>
<path d="M 20 333 v 20 m 0 -10 h 20"></path></g><path d="M 40 343 h 10"></path><g>
<path d="M 50 343 h 0.0"></path><path d="M 940.0 343 h 0.0"></path><rect class="group-box" height="418" rx="10" ry="10" width="890.0" x="50.0" y="36"></rect><g>
<path d="M 50.0 343 h 0.0"></path><path d="M 940.0 343 h 0.0"></path><path d="M 50.0 343 h 20"></path><g>
<path d="M 70.0 343 h 0.0"></path><path d="M 920.0 343 h 0.0"></path><g class="terminal ">
<path d="M 70.0 343 h 0.0"></path><path d="M 141.0 343 h 0.0"></path><rect height="22" rx="10" ry="10" width="71.0" x="70.0" y="332"></rect><text x="105.5" y="347">&#60;char></text></g><path d="M 141.0 343 h 10"></path><g>
<path d="M 151.0 343 h 0.0"></path><path d="M 920.0 343 h 0.0"></path><path d="M 151.0 343 a 10 10 0 0 0 10 -10 v -146 a 10 10 0 0 1 10 -10"></path><g>
<path d="M 171.0 177 h 0.0"></path><path d="M 900.0 177 h 0.0"></path><g class="terminal ">
<path d="M 171.0 177 h 0.0"></path><path d="M 242.0 177 h 0.0"></path><rect height="22" rx="10" ry="10" width="71.0" x="171.0" y="166"></rect><text x="206.5" y="181">@style</text></g><path d="M 242.0 177 h 10"></path><path d="M 252.0 177 h 10"></path><g>
<path d="M 262.0 177 h 0.0"></path><path d="M 900.0 177 h 0.0"></path><rect class="group-box" height="264" rx="10" ry="10" width="638.0" x="262.0" y="60"></rect><g>
<path d="M 262.0 177 h 0.0"></path><path d="M 900.0 177 h 0.0"></path><path d="M 262.0 177 a 10 10 0 0 0 10 -10 v -89 a 10 10 0 0 1 10 -10 h 477.0"></path><path d="M 262.0 177 h 10"></path><g>
<path d="M 272.0 177 h 0.0"></path><path d="M 272.0 177 a 10 10 0 0 0 10 -10 v -10 a 10 10 0 0 1 10 -10"></path><g class="terminal ">
<path d="M 292.0 147 h 0.0"></path><path d="M 346.0 147 h 0.0"></path><rect height="22" rx="10" ry="10" width="54.0" x="292.0" y="136"></rect><text x="319.0" y="151">"ca"</text></g><path d="M 272.0 177 a 10 10 0 0 0 10 -10 v -40 a 10 10 0 0 1 10 -10"></path><g class="terminal ">
<path d="M 292.0 117 h 0.0"></path><path d="M 346.0 117 h 0.0"></path><rect height="22" rx="10" ry="10" width="54.0" x="292.0" y="106"></rect><text x="319.0" y="121">"vp"</text></g><path d="M 272.0 177 a 10 10 0 0 0 10 -10 v -70 a 10 10 0 0 1 10 -10"></path><g class="terminal ">
<path d="M 292.0 87 h 0.0"></path><path d="M 346.0 87 h 0.0"></path><rect height="22" rx="10" ry="10" width="54.0" x="292.0" y="76"></rect><text x="319.0" y="91">"va"</text></g><path d="M 272.0 177 h 20"></path><g class="terminal ">
<path d="M 292.0 177 h 0.0"></path><path d="M 354.5 177 h 0.0"></path><rect height="22" rx="10" ry="10" width="62.5" x="292.0" y="166"></rect><text x="323.25" y="181">"qac"</text></g><path d="M 272.0 177 a 10 10 0 0 1 10 10 v 10 a 10 10 0 0 0 10 10"></path><g class="terminal ">
<path d="M 292.0 207 h 0.0"></path><path d="M 346.0 207 h 0.0"></path><rect height="22" rx="10" ry="10" width="54.0" x="292.0" y="196"></rect><text x="319.0" y="211">"qs"</text></g><path d="M 272.0 177 a 10 10 0 0 1 10 10 v 40 a 10 10 0 0 0 10 10"></path><g class="terminal ">
<path d="M 292.0 237 h 0.0"></path><path d="M 354.5 237 h 0.0"></path><rect height="22" rx="10" ry="10" width="62.5" x="292.0" y="226"></rect><text x="323.25" y="241">"add"</text></g><path d="M 272.0 177 a 10 10 0 0 1 10 10 v 70 a 10 10 0 0 0 10 10"></path><g class="terminal ">
<path d="M 292.0 267 h 0.0"></path><path d="M 371.5 267 h 0.0"></path><rect height="22" rx="10" ry="10" width="79.5" x="292.0" y="256"></rect><text x="331.75" y="271">"addpn"</text></g><path d="M 272.0 177 a 10 10 0 0 1 10 10 v 100 a 10 10 0 0 0 10 10"></path><g class="terminal ">
<path d="M 292.0 297 h 0.0"></path><path d="M 346.0 297 h 0.0"></path><rect height="22" rx="10" ry="10" width="54.0" x="292.0" y="286"></rect><text x="319.0" y="301">"bk"</text></g></g><path d="M 391.5 68 a 10 10 0 0 1 10 10 v 89 a 10 10 0 0 0 10 10"></path><g>
<path d="M 411.5 177 h 0.0"></path><path d="M 411.5 177 a 10 10 0 0 0 10 -10 v -10 a 10 10 0 0 1 10 -10"></path><g class="terminal ">
<path d="M 431.5 147 h 0.0"></path><path d="M 485.5 147 h 0.0"></path><rect height="22" rx="10" ry="10" width="54.0" x="431.5" y="136"></rect><text x="458.5" y="151">"fm"</text></g><path d="M 411.5 177 a 10 10 0 0 0 10 -10 v -40 a 10 10 0 0 1 10 -10"></path><g class="terminal ">
<path d="M 431.5 117 h 0.0"></path><path d="M 494.0 117 h 0.0"></path><rect height="22" rx="10" ry="10" width="62.5" x="431.5" y="106"></rect><text x="462.75" y="121">"efm"</text></g><path d="M 411.5 177 a 10 10 0 0 0 10 -10 v -70 a 10 10 0 0 1 10 -10"></path><g class="terminal ">
<path d="M 431.5 87 h 0.0"></path><path d="M 485.5 87 h 0.0"></path><rect height="22" rx="10" ry="10" width="54.0" x="431.5" y="76"></rect><text x="458.5" y="91">"dc"</text></g><path d="M 411.5 177 h 20"></path><g class="terminal ">
<path d="M 431.5 177 h 0.0"></path><path d="M 477.0 177 h 0.0"></path><rect height="22" rx="10" ry="10" width="45.5" x="431.5" y="166"></rect><text x="454.25" y="181">"k"</text></g><path d="M 411.5 177 a 10 10 0 0 1 10 10 v 10 a 10 10 0 0 0 10 10"></path><g class="terminal ">
<path d="M 431.5 207 h 0.0"></path><path d="M 485.5 207 h 0.0"></path><rect height="22" rx="10" ry="10" width="54.0" x="431.5" y="196"></rect><text x="458.5" y="211">"nd"</text></g><path d="M 411.5 177 a 10 10 0 0 1 10 10 v 40 a 10 10 0 0 0 10 10"></path><g class="terminal ">
<path d="M 431.5 237 h 0.0"></path><path d="M 494.0 237 h 0.0"></path><rect height="22" rx="10" ry="10" width="62.5" x="431.5" y="226"></rect><text x="462.75" y="241">"ndx"</text></g><path d="M 411.5 177 a 10 10 0 0 1 10 10 v 70 a 10 10 0 0 0 10 10"></path><g class="terminal ">
<path d="M 431.5 267 h 0.0"></path><path d="M 494.0 267 h 0.0"></path><rect height="22" rx="10" ry="10" width="62.5" x="431.5" y="256"></rect><text x="462.75" y="271">"ord"</text></g><path d="M 411.5 177 a 10 10 0 0 1 10 10 v 100 a 10 10 0 0 0 10 10"></path><g class="terminal ">
<path d="M 431.5 297 h 0.0"></path><path d="M 485.5 297 h 0.0"></path><rect height="22" rx="10" ry="10" width="54.0" x="431.5" y="286"></rect><text x="458.5" y="301">"pn"</text></g></g><path d="M 514.0 68 a 10 10 0 0 1 10 10 v 89 a 10 10 0 0 0 10 10"></path><g>
<path d="M 534.0 177 h 0.0"></path><path d="M 534.0 177 a 10 10 0 0 0 10 -10 v -10 a 10 10 0 0 1 10 -10"></path><g class="terminal ">
<path d="M 554.0 147 h 0.0"></path><path d="M 608.0 147 h 0.0"></path><rect height="22" rx="10" ry="10" width="54.0" x="554.0" y="136"></rect><text x="581.0" y="151">"qt"</text></g><path d="M 534.0 177 a 10 10 0 0 0 10 -10 v -40 a 10 10 0 0 1 10 -10"></path><g class="terminal ">
<path d="M 554.0 117 h 0.0"></path><path d="M 616.5 117 h 0.0"></path><rect height="22" rx="10" ry="10" width="62.5" x="554.0" y="106"></rect><text x="585.25" y="121">"pro"</text></g><path d="M 534.0 177 a 10 10 0 0 0 10 -10 v -70 a 10 10 0 0 1 10 -10"></path><g class="terminal ">
<path d="M 554.0 87 h 0.0"></path><path d="M 616.5 87 h 0.0"></path><rect height="22" rx="10" ry="10" width="62.5" x="554.0" y="76"></rect><text x="585.25" y="91">"png"</text></g><path d="M 534.0 177 h 20"></path><g class="terminal ">
<path d="M 554.0 177 h 0.0"></path><path d="M 608.0 177 h 0.0"></path><rect height="22" rx="10" ry="10" width="54.0" x="554.0" y="166"></rect><text x="581.0" y="181">"rq"</text></g><path d="M 534.0 177 a 10 10 0 0 1 10 10 v 10 a 10 10 0 0 0 10 10"></path><g class="terminal ">
<path d="M 554.0 207 h 0.0"></path><path d="M 616.5 207 h 0.0"></path><rect height="22" rx="10" ry="10" width="62.5" x="554.0" y="196"></rect><text x="585.25" y="211">"sig"</text></g><path d="M 534.0 177 a 10 10 0 0 1 10 10 v 40 a 10 10 0 0 0 10 10"></path><g class="terminal ">
<path d="M 554.0 237 h 0.0"></path><path d="M 616.5 237 h 0.0"></path><rect height="22" rx="10" ry="10" width="62.5" x="554.0" y="226"></rect><text x="585.25" y="241">"sls"</text></g><path d="M 534.0 177 a 10 10 0 0 1 10 10 v 70 a 10 10 0 0 0 10 10"></path><g class="terminal ">
<path d="M 554.0 267 h 0.0"></path><path d="M 608.0 267 h 0.0"></path><rect height="22" rx="10" ry="10" width="54.0" x="554.0" y="256"></rect><text x="581.0" y="271">"tl"</text></g><path d="M 534.0 177 a 10 10 0 0 1 10 10 v 100 a 10 10 0 0 0 10 10"></path><g class="terminal ">
<path d="M 554.0 297 h 0.0"></path><path d="M 608.0 297 h 0.0"></path><rect height="22" rx="10" ry="10" width="54.0" x="554.0" y="286"></rect><text x="581.0" y="301">"wg"</text></g></g><path d="M 636.5 68 a 10 10 0 0 1 10 10 v 89 a 10 10 0 0 0 10 10"></path><g>
<path d="M 656.5 177 h 0.0"></path><path d="M 656.5 177 a 10 10 0 0 0 10 -10 v -10 a 10 10 0 0 1 10 -10"></path><g class="terminal ">
<path d="M 676.5 147 h 0.0"></path><path d="M 730.5 147 h 0.0"></path><rect height="22" rx="10" ry="10" width="54.0" x="676.5" y="136"></rect><text x="703.5" y="151">"wj"</text></g><path d="M 656.5 177 a 10 10 0 0 0 10 -10 v -40 a 10 10 0 0 1 10 -10"></path><g class="terminal ">
<path d="M 676.5 117 h 0.0"></path><path d="M 730.5 117 h 0.0"></path><rect height="22" rx="10" ry="10" width="54.0" x="676.5" y="106"></rect><text x="703.5" y="121">"wa"</text></g><path d="M 656.5 177 a 10 10 0 0 0 10 -10 v -70 a 10 10 0 0 1 10 -10"></path><g class="terminal ">
<path d="M 676.5 87 h 0.0"></path><path d="M 730.5 87 h 0.0"></path><rect height="22" rx="10" ry="10" width="54.0" x="676.5" y="76"></rect><text x="703.5" y="91">"wh"</text></g><path d="M 656.5 177 h 20"></path><g class="terminal ">
<path d="M 676.5 177 h 0.0"></path><path d="M 730.5 177 h 0.0"></path><rect height="22" rx="10" ry="10" width="54.0" x="676.5" y="166"></rect><text x="703.5" y="181">"xt"</text></g><path d="M 656.5 177 a 10 10 0 0 1 10 10 v 10 a 10 10 0 0 0 10 10"></path><g class="terminal ">
<path d="M 676.5 207 h 0.0"></path><path d="M 739.0 207 h 0.0"></path><rect height="22" rx="10" ry="10" width="62.5" x="676.5" y="196"></rect><text x="707.75" y="211">"jmp"</text></g><path d="M 656.5 177 a 10 10 0 0 1 10 10 v 40 a 10 10 0 0 0 10 10"></path><g class="terminal ">
<path d="M 676.5 237 h 0.0"></path><path d="M 730.5 237 h 0.0"></path><rect height="22" rx="10" ry="10" width="54.0" x="676.5" y="226"></rect><text x="703.5" y="241">"no"</text></g><path d="M 656.5 177 a 10 10 0 0 1 10 10 v 70 a 10 10 0 0 0 10 10"></path><g class="terminal ">
<path d="M 676.5 267 h 0.0"></path><path d="M 730.5 267 h 0.0"></path><rect height="22" rx="10" ry="10" width="54.0" x="676.5" y="256"></rect><text x="703.5" y="271">"it"</text></g><path d="M 656.5 177 a 10 10 0 0 1 10 10 v 100 a 10 10 0 0 0 10 10"></path><g class="terminal ">
<path d="M 676.5 297 h 0.0"></path><path d="M 730.5 297 h 0.0"></path><rect height="22" rx="10" ry="10" width="54.0" x="676.5" y="286"></rect><text x="703.5" y="301">"bd"</text></g></g><path d="M 759.0 68 a 10 10 0 0 1 10 10 v 89 a 10 10 0 0 0 10 10"></path><g>
<path d="M 779.0 177 h 0.0"></path><path d="M 779.0 177 a 10 10 0 0 0 10 -10 v -10 a 10 10 0 0 1 10 -10"></path><g class="terminal ">
<path d="M 799.0 147 h 0.0"></path><path d="M 853.0 147 h 0.0"></path><rect height="22" rx="10" ry="10" width="54.0" x="799.0" y="136"></rect><text x="826.0" y="151">"sc"</text></g><path d="M 779.0 177 a 10 10 0 0 0 10 -10 v -40 a 10 10 0 0 1 10 -10"></path><g class="terminal ">
<path d="M 799.0 117 h 0.0"></path><path d="M 853.0 117 h 0.0"></path><rect height="22" rx="10" ry="10" width="54.0" x="799.0" y="106"></rect><text x="826.0" y="121">"em"</text></g><path d="M 779.0 177 a 10 10 0 0 0 10 -10 v -70 a 10 10 0 0 1 10 -10"></path><g class="terminal ">
<path d="M 799.0 87 h 0.0"></path><path d="M 870.0 87 h 0.0"></path><rect height="22" rx="10" ry="10" width="71.0" x="799.0" y="76"></rect><text x="834.5" y="91">"bdit"</text></g><path d="M 779.0 177 h 20"></path><g class="terminal ">
<path d="M 799.0 177 h 0.0"></path><path d="M 861.5 177 h 0.0"></path><rect height="22" rx="10" ry="10" width="62.5" x="799.0" y="166"></rect><text x="830.25" y="181">"sup"</text></g></g></g><g class="non-terminal ">
<path d="M 262.0 52 h 0.0"></path><path d="M 412.0 52 h 0.0"></path><text class="comment" x="337.0" y="57">Char.char.style.enum</text></g></g></g><path d="M 151.0 343 h 20"></path><g class="non-terminal ">
<path d="M 171.0 343 h 307.75"></path><path d="M 592.25 343 h 307.75"></path><rect height="22" width="113.5" x="478.75" y="332"></rect><text x="535.5" y="347">CharContent</text></g><path d="M 900.0 343 h 20"></path></g></g><path d="M 920.0 343 h 20"></path><path d="M 50.0 343 a 10 10 0 0 1 10 10 v 34 a 10 10 0 0 0 10 10"></path><g>
<path d="M 70.0 397 h 276.0"></path><path d="M 644.0 397 h 276.0"></path><rect class="group-box" height="68" rx="10" ry="10" width="298.0" x="346.0" y="378"></rect><g>
<path d="M 346.0 397 h 0.0"></path><path d="M 644.0 397 h 0.0"></path><path d="M 346.0 397 h 20"></path><g class="non-terminal ">
<path d="M 366.0 397 h 4.25"></path><path d="M 619.75 397 h 4.25"></path><rect height="22" width="249.5" x="370.25" y="386"></rect><text x="495.0" y="401">CharWithAttrib.char.style.w</text></g><path d="M 624.0 397 h 20"></path><path d="M 346.0 397 a 10 10 0 0 1 10 10 v 10 a 10 10 0 0 0 10 10"></path><g class="non-terminal ">
<path d="M 366.0 427 h 0.0"></path><path d="M 624.0 427 h 0.0"></path><rect height="22" width="258.0" x="366.0" y="416"></rect><text x="495.0" y="431">CharWithAttrib.char.style.rb</text></g><path d="M 624.0 427 a 10 10 0 0 0 10 -10 v -10 a 10 10 0 0 1 10 -10"></path></g><g class="non-terminal ">
<path d="M 346.0 370 h 0.0"></path><path d="M 489.0 370 h 0.0"></path><text class="comment" x="417.5" y="375">CharWithAttrib.enum</text></g></g><path d="M 920.0 397 a 10 10 0 0 0 10 -10 v -34 a 10 10 0 0 1 10 -10"></path></g><g class="non-terminal ">
<path d="M 50.0 28 h 0.0"></path><path d="M 123.0 28 h 0.0"></path><text class="comment" x="86.5" y="33">CharEmbed</text></g></g><path d="M 940.0 343 h 10"></path><path d="M 950.0 343 h 20 m 0 -10 v 20"></path></g></svg>