<svg class="railroad-diagram" height="825" viewBox="0 0 1120.0 825" width="1120.0" xmlns="http://www.w3.org/2000/svg" xmlns:xlink="http://www.w3.org/1999/xlink">
<g transform="translate(.5 .5)">
<style>/* <![CDATA[ */
    svg.railroad-diagram {
        background-color:hsl(30,20%,95%);
    }
    svg.railroad-diagram path {
        stroke-width: 2;
        stroke: black;
        fill: none;
    }
    svg.railroad-diagram text {
        font-size: 12px;
        text-anchor: middle;
        font-family: DejaVu Sans;
    }
    svg.railroad-diagram text.label {
        text-anchor:start;
    }
    svg.railroad-diagram text.comment {
        font-family: DejaVu Sans;
        font-size: 14px;
    }
    svg.railroad-diagram rect{
        stroke-width: 2;
        stroke:black;
        fill: rgb(210, 210, 255);
    }
    svg.railroad-diagram rect.group-box {
        stroke: gray;
        stroke-dasharray: 10 5;
        fill: none;
    }
    .terminal {
        font-family: DejaVu Sans;
    }

/* ]]> */
</style><g>
<path d="M 20 486 v 20 m 0 -10 h 20"></path></g><path d="M 40 496 h 10"></path><g>
<path d="M 50 496 h 0.0"></path><path d="M 1070.0 496 h 0.0"></path><rect class="group-box" height="769" rx="10" ry="10" width="1020.0" x="50.0" y="36"></rect><g>
<path d="M 50.0 496 h 0.0"></path><path d="M 1070.0 496 h 0.0"></path><path d="M 50.0 496 h 20"></path><g>
<path d="M 70.0 496 h 0.0"></path><path d="M 1050.0 496 h 0.0"></path><g class="terminal ">
<path d="M 70.0 496 h 0.0"></path><path d="M 141.0 496 h 0.0"></path><rect height="22" rx="10" ry="10" width="71.0" x="70.0" y="485"></rect><text x="105.5" y="500">&#60;char></text></g><path d="M 141.0 496 h 10"></path><g>
<path d="M 151.0 496 h 0.0"></path><path d="M 1050.0 496 h 0.0"></path><path d="M 151.0 496 a 10 10 0 0 0 10 -10 v -43 a 10 10 0 0 1 10 -10"></path><g>
<path d="M 171.0 433 h 0.0"></path><path d="M 460.5 433 h 0.0"></path><g class="terminal ">
<path d="M 171.0 433 h 0.0"></path><path d="M 267.5 433 h 0.0"></path><rect height="22" rx="10" ry="10" width="96.5" x="171.0" y="422"></rect><text x="219.25" y="437">@link-id?</text></g><path d="M 267.5 433 h 10"></path><path d="M 277.5 433 h 10"></path><g class="terminal ">
<path d="M 287.5 433 h 0.0"></path><path d="M 460.5 433 h 0.0"></path><rect height="22" rx="10" ry="10" width="173.0" x="287.5" y="422"></rect><text x="374.0" y="437">/&#91;\p{L}\d&#95;\-\.:&#93;+/</text></g></g><path d="M 151.0 496 a 10 10 0 0 0 10 -10 v -73 a 10 10 0 0 1 10 -10"></path><g>
<path d="M 171.0 403 h 0.0"></path><path d="M 384.0 403 h 0.0"></path><g class="terminal ">
<path d="M 171.0 403 h 0.0"></path><path d="M 293.0 403 h 0.0"></path><rect height="22" rx="10" ry="10" width="122.0" x="171.0" y="392"></rect><text x="232.0" y="407">@link-title?</text></g><path d="M 293.0 403 h 10"></path><path d="M 303.0 403 h 10"></path><g class="terminal ">
<path d="M 313.0 403 h 0.0"></path><path d="M 384.0 403 h 0.0"></path><rect height="22" rx="10" ry="10" width="71.0" x="313.0" y="392"></rect><text x="348.5" y="407">string</text></g></g><path d="M 151.0 496 a 10 10 0 0 0 10 -10 v -103 a 10 10 0 0 1 10 -10"></path><g>
<path d="M 171.0 373 h 0.0"></path><path d="M 1030.0 373 h 0.0"></path><g class="terminal ">
<path d="M 171.0 373 h 0.0"></path><path d="M 284.5 373 h 0.0"></path><rect height="22" rx="10" ry="10" width="113.5" x="171.0" y="362"></rect><text x="227.75" y="377">@link-href?</text></g><path d="M 284.5 373 h 10"></path><path d="M 294.5 373 h 10"></path><g class="terminal ">
<path d="M 304.5 373 h 0.0"></path><path d="M 1030.0 373 h 0.0"></path><rect height="22" rx="10" ry="10" width="725.5" x="304.5" y="362"></rect><text x="667.25" y="377">/(.&#42;///?(.&#42;/?)+)|((prj:&#91;A-Za-z\-0-9&#93;{3,8} )?&#91;A-Z1-4&#93;{3} \d+:\d+(\-\d+)?)|(#&#91;^\s&#93;+)/</text></g></g><path d="M 151.0 496 a 10 10 0 0 0 10 -10 v -133 a 10 10 0 0 1 10 -10"></path><g>
<path d="M 171.0 343 h 0.0"></path><path d="M 333.0 343 h 0.0"></path><g class="terminal ">
<path d="M 171.0 343 h 0.0"></path><path d="M 259.0 343 h 0.0"></path><rect height="22" rx="10" ry="10" width="88.0" x="171.0" y="332"></rect><text x="215.0" y="347">@closed?</text></g><path d="M 259.0 343 h 10"></path><path d="M 269.0 343 h 10"></path><g class="terminal ">
<path d="M 279.0 343 h 0.0"></path><path d="M 333.0 343 h 0.0"></path><rect height="22" rx="10" ry="10" width="54.0" x="279.0" y="332"></rect><text x="306.0" y="347">BOOL</text></g></g><path d="M 151.0 496 a 10 10 0 0 0 10 -10 v -299 a 10 10 0 0 1 10 -10"></path><g>
<path d="M 171.0 177 h 0.0"></path><path d="M 900.0 177 h 0.0"></path><g class="terminal ">
<path d="M 171.0 177 h 0.0"></path><path d="M 242.0 177 h 0.0"></path><rect height="22" rx="10" ry="10" width="71.0" x="171.0" y="166"></rect><text x="206.5" y="181">@style</text></g><path d="M 242.0 177 h 10"></path><path d="M 252.0 177 h 10"></path><g>
<path d="M 262.0 177 h 0.0"></path><path d="M 900.0 177 h 0.0"></path><rect class="group-box" height="264" rx="10" ry="10" width="638.0" x="262.0" y="60"></rect><g>
<path d="M 262.0 177 h 0.0"></path><path d="M 900.0 177 h 0.0"></path><path d="M 262.0 177 a 10 10 0 0 0 10 -10 v -89 a 10 10 0 0 1 10 -10 h 477.0"></path><path d="M 262.0 177 h 10"></path><g>
<path d="M 272.0 177 h 0.0"></path><path d="M 272.0 177 a 10 10 0 0 0 10 -10 v -10 a 10 10 0 0 1 10 -10"></path><g class="terminal ">
<path d="M 292.0 147 h 0.0"></path><path d="M 346.0 147 h 0.0"></path><rect height="22" rx="10" ry="10" width="54.0" x="292.0" y="136"></rect><text x="319.0" y="151">"ca"</text></g><path d="M 272.0 177 a 10 10 0 0 0 10 -10 v -40 a 10 10 0 0 1 10 -10"></path><g class="terminal ">
<path d="M 292.0 117 h 0.0"></path><path d="M 346.0 117 h 0.0"></path><rect height="22" rx="10" ry="10" width="54.0" x="292.0" y="106"></rect><text x="319.0" y="121">"vp"</text></g><path d="M 272.0 177 a 10 10 0 0 0 10 -10 v -70 a 10 10 0 0 1 10 -10"></path><g class="terminal ">
<path d="M 292.0 87 h 0.0"></path><path d="M 346.0 87 h 0.0"></path><rect height="22" rx="10" ry="10" width="54.0" x="292.0" y="76"></rect><text x="319.0" y="91">"va"</text></g><path d="M 272.0 177 h 20"></path><g class="terminal ">
<path d="M 292.0 177 h 0.0"></path><path d="M 354.5 177 h 0.0"></path><rect height="22" rx="10" ry="10" width="62.5" x="292.0" y="166"></rect><text x="323.25" y="181">"qac"</text></g><path d="M 272.0 177 a 10 10 0 0 1 10 10 v 10 a 10 10 0 0 0 10 10"></path><g class="terminal ">
<path d="M 292.0 207 h 0.0"></path><path d="M 346.0 207 h 0.0"></path><rect height="22" rx="10" ry="10" width="54.0" x="292.0" y="196"></rect><text x="319.0" y="211">"qs"</text></g><path d="M 272.0 177 a 10 10 0 0 1 10 10 v 40 a 10 10 0 0 0 10 10"></path><g class="terminal ">
<path d="M 292.0 237 h 0.0"></path><path d="M 354.5 237 h 0.0"></path><rect height="22" rx="10" ry="10" width="62.5" x="292.0" y="226"></rect><text x="323.25" y="241">"add"</text></g><path d="M 272.0 177 a 10 10 0 0 1 10 10 v 70 a 10 10 0 0 0 10 10"></path><g class="terminal ">
<path d="M 292.0 267 h 0.0"></path><path d="M 371.5 267 h 0.0"></path><rect height="22" rx="10" ry="10" width="79.5" x="292.0" y="256"></rect><text x="331.75" y="271">"addpn"</text></g><path d="M 272.0 177 a 10 10 0 0 1 10 10 v 100 a 10 10 0 0 0 10 10"></path><g class="terminal ">
<path d="M 292.0 297 h 0.0"></path><path d="M 346.0 297 h 0.0"></path><rect height="22" rx="10" ry="10" width="54.0" x="292.0" y="286"></rect><text x="319.0" y="301">"bk"</text></g></g><path d="M 391.5 68 a 10 10 0 0 1 10 10 v 89 a 10 10 0 0 0 10 10"></path><g>
<path d="M 411.5 177 h 0.0"></path><path d="M 411.5 177 a 10 10 0 0 0 10 -10 v -10 a 10 10 0 0 1 10 -10"></path><g class="terminal ">
<path d="M 431.5 147 h 0.0"></path><path d="M 485.5 147 h 0.0"></path><rect height="22" rx="10" ry="10" width="54.0" x="431.5" y="136"></rect><text x="458.5" y="151">"fm"</text></g><path d="M 411.5 177 a 10 10 0 0 0 10 -10 v -40 a 10 10 0 0 1 10 -10"></path><g class="terminal ">
<path d="M 431.5 117 h 0.0"></path><path d="M 494.0 117 h 0.0"></path><rect height="22" rx="10" ry="10" width="62.5" x="431.5" y="106"></rect><text x="462.75" y="121">"efm"</text></g><path d="M 411.5 177 a 10 10 0 0 0 10 -10 v -70 a 10 10 0 0 1 10 -10"></path><g class="terminal ">
<path d="M 431.5 87 h 0.0"></path><path d="M 485.5 87 h 0.0"></path><rect height="22" rx="10" ry="10" width="54.0" x="431.5" y="76"></rect><text x="458.5" y="91">"dc"</text></g><path d="M 411.5 177 h 20"></path><g class="terminal ">
<path d="M 431.5 177 h 0.0"></path><path d="M 477.0 177 h 0.0"></path><rect height="22" rx="10" ry="10" width="45.5" x="431.5" y="166"></rect><text x="454.25" y="181">"k"</text></g><path d="M 411.5 177 a 10 10 0 0 1 10 10 v 10 a 10 10 0 0 0 10 10"></path><g class="terminal ">
<path d="M 431.5 207 h 0.0"></path><path d="M 485.5 207 h 0.0"></path><rect height="22" rx="10" ry="10" width="54.0" x="431.5" y="196"></rect><text x="458.5" y="211">"nd"</text></g><path d="M 411.5 177 a 10 10 0 0 1 10 10 v 40 a 10 10 0 0 0 10 10"></path><g class="terminal ">
<path d="M 431.5 237 h 0.0"></path><path d="M 494.0 237 h 0.0"></path><rect height="22" rx="10" ry="10" width="62.5" x="431.5" y="226"></rect><text x="462.75" y="241">"ndx"</text></g><path d="M 411.5 177 a 10 10 0 0 1 10 10 v 70 a 10 10 0 0 0 10 10"></path><g class="terminal ">
<path d="M 431.5 267 h 0.0"></path><path d="M 494.0 267 h 0.0"></path><rect height="22" rx="10" ry="10" width="62.5" x="431.5" y="256"></rect><text x="462.75" y="271">"ord"</text></g><path d="M 411.5 177 a 10 10 0 0 1 10 10 v 100 a 10 10 0 0 0 10 10"></path><g class="terminal ">
<path d="M 431.5 297 h 0.0"></path><path d="M 485.5 297 h 0.0"></path><rect height="22" rx="10" ry="10" width="54.0" x="431.5" y="286"></rect><text x="458.5" y="301">"pn"</text></g></g><path d="M 514.0 68 a 10 10 0 0 1 10 10 v 89 a 10 10 0 0 0 10 10"></path><g>
<path d="M 534.0 177 h 0.0"></path><path d="M 534.0 177 a 10 10 0 0 0 10 -10 v -10 a 10 10 0 0 1 10 -10"></path><g class="terminal ">
<path d="M 554.0 147 h 0.0"></path><path d="M 608.0 147 h 0.0"></path><rect height="22" rx="10" ry="10" width="54.0" x="554.0" y="136"></rect><text x="581.0" y="151">"qt"</text></g><path d="M 534.0 177 a 10 10 0 0 0 10 -10 v -40 a 10 10 0 0 1 10 -10"></path><g class="terminal ">
<path d="M 554.0 117 h 0.0"></path><path d="M 616.5 117 h 0.0"></path><rect height="22" rx="10" ry="10" width="62.5" x="554.0" y="106"></rect><text x="585.25" y="121">"pro"</text></g><path d="M 534.0 177 a 10 10 0 0 0 10 -10 v -70 a 10 10 0 0 1 10 -10"></path><g class="terminal ">
<path d="M 554.0 87 h 0.0"></path><path d="M 616.5 87 h 0.0"></path><rect height="22" rx="10" ry="10" width="62.5" x="554.0" y="76"></rect><text x="585.25" y="91">"png"</text></g><path d="M 534.0 177 h 20"></path><g class="terminal ">
<path d="M 554.0 177 h 0.0"></path><path d="M 608.0 177 h 0.0"></path><rect height="22" rx="10" ry="10" width="54.0" x="554.0" y="166"></rect><text x="581.0" y="181">"rq"</text></g><path d="M 534.0 177 a 10 10 0 0 1 10 10 v 10 a 10 10 0 0 0 10 10"></path><g class="terminal ">
<path d="M 554.0 207 h 0.0"></path><path d="M 616.5 207 h 0.0"></path><rect height="22" rx="10" ry="10" width="62.5" x="554.0" y="196"></rect><text x="585.25" y="211">"sig"</text></g><path d="M 534.0 177 a 10 10 0 0 1 10 10 v 40 a 10 10 0 0 0 10 10"></path><g class="terminal ">
<path d="M 554.0 237 h 0.0"></path><path d="M 616.5 237 h 0.0"></path><rect height="22" rx="10" ry="10" width="62.5" x="554.0" y="226"></rect><text x="585.25" y="241">"sls"</text></g><path d="M 534.0 177 a 10 10 0 0 1 10 10 v 70 a 10 10 0 0 0 10 10"></path><g class="terminal ">
<path d="M 554.0 267 h 0.0"></path><path d="M 608.0 267 h 0.0"></path><rect height="22" rx="10" ry="10" width="54.0" x="554.0" y="256"></rect><text x="581.0" y="271">"tl"</text></g><path d="M 534.0 177 a 10 10 0 0 1 10 10 v 100 a 10 10 0 0 0 10 10"></path><g class="terminal ">
<path d="M 554.0 297 h 0.0"></path><path d="M 608.0 297 h 0.0"></path><rect height="22" rx="10" ry="10" width="54.0" x="554.0" y="286"></rect><text x="581.0" y="301">"wg"</text></g></g><path d="M 636.5 68 a 10 10 0 0 1 10 10 v 89 a 10 10 0 0 0 10 10"></path><g>
<path d="M 656.5 177 h 0.0"></path><path d="M 656.5 177 a 10 10 0 0 0 10 -10 v -10 a 10 10 0 0 1 10 -10"></path><g class="terminal ">
<path d="M 676.5 147 h 0.0"></path><path d="M 730.5 147 h 0.0"></path><rect height="22" rx="10" ry="10" width="54.0" x="676.5" y="136"></rect><text x="703.5" y="151">"wj"</text></g><path d="M 656.5 177 a 10 10 0 0 0 10 -10 v -40 a 10 10 0 0 1 10 -10"></path><g class="terminal ">
<path d="M 676.5 117 h 0.0"></path><path d="M 730.5 117 h 0.0"></path><rect height="22" rx="10" ry="10" width="54.0" x="676.5" y="106"></rect><text x="703.5" y="121">"wa"</text></g><path d="M 656.5 177 a 10 10 0 0 0 10 -10 v -70 a 10 10 0 0 1 10 -10"></path><g class="terminal ">
<path d="M 676.5 87 h 0.0"></path><path d="M 730.5 87 h 0.0"></path><rect height="22" rx="10" ry="10" width="54.0" x="676.5" y="76"></rect><text x="703.5" y="91">"wh"</text></g><path d="M 656.5 177 h 20"></path><g class="terminal ">
<path d="M 676.5 177 h 0.0"></path><path d="M 730.5 177 h 0.0"></path><rect height="22" rx="10" ry="10" width="54.0" x="676.5" y="166"></rect><text x="703.5" y="181">"xt"</text></g><path d="M 656.5 177 a 10 10 0 0 1 10 10 v 10 a 10 10 0 0 0 10 10"></path><g class="terminal ">
<path d="M 676.5 207 h 0.0"></path><path d="M 739.0 207 h 0.0"></path><rect height="22" rx="10" ry="10" width="62.5" x="676.5" y="196"></rect><text x="707.75" y="211">"jmp"</text></g><path d="M 656.5 177 a 10 10 0 0 1 10 10 v 40 a 10 10 0 0 0 10 10"></path><g class="terminal ">
<path d="M 676.5 237 h 0.0"></path><path d="M 730.5 237 h 0.0"></path><rect height="22" rx="10" ry="10" width="54.0" x="676.5" y="226"></rect><text x="703.5" y="241">"no"</text></g><path d="M 656.5 177 a 10 10 0 0 1 10 10 v 70 a 10 10 0 0 0 10 10"></path><g class="terminal ">
<path d="M 676.5 267 h 0.0"></path><path d="M 730.5 267 h 0.0"></path><rect height="22" rx="10" ry="10" width="54.0" x="676.5" y="256"></rect><text x="703.5" y="271">"it"</text></g><path d="M 656.5 177 a 10 10 0 0 1 10 10 v 100 a 10 10 0 0 0 10 10"></path><g class="terminal ">
<path d="M 676.5 297 h 0.0"></path><path d="M 730.5 297 h 0.0"></path><rect height="22" rx="10" ry="10" width="54.0" x="676.5" y="286"></rect><text x="703.5" y="301">"bd"</text></g></g><path d="M 759.0 68 a 10 10 0 0 1 10 10 v 89 a 10 10 0 0 0 10 10"></path><g>
<path d="M 779.0 177 h 0.0"></path><path d="M 779.0 177 a 10 10 0 0 0 10 -10 v -10 a 10 10 0 0 1 10 -10"></path><g class="terminal ">
<path d="M 799.0 147 h 0.0"></path><path d="M 853.0 147 h 0.0"></path><rect height="22" rx="10" ry="10" width="54.0" x="799.0" y="136"></rect><text x="826.0" y="151">"sc"</text></g><path d="M 779.0 177 a 10 10 0 0 0 10 -10 v -40 a 10 10 0 0 1 10 -10"></path><g class="terminal ">
<path d="M 799.0 117 h 0.0"></path><path d="M 853.0 117 h 0.0"></path><rect height="22" rx="10" ry="10" width="54.0" x="799.0" y="106"></rect><text x="826.0" y="121">"em"</text></g><path d="M 779.0 177 a 10 10 0 0 0 10 -10 v -70 a 10 10 0 0 1 10 -10"></path><g class="terminal ">
<path d="M 799.0 87 h 0.0"></path><path d="M 870.0 87 h 0.0"></path><rect height="22" rx="10" ry="10" width="71.0" x="799.0" y="76"></rect><text x="834.5" y="91">"bdit"</text></g><path d="M 779.0 177 h 20"></path><g class="terminal ">
<path d="M 799.0 177 h 0.0"></path><path d="M 861.5 177 h 0.0"></path><rect height="22" rx="10" ry="10" width="62.5" x="799.0" y="166"></rect><text x="830.25" y="181">"sup"</text></g></g></g><g class="non-terminal ">
<path d="M 262.0 52 h 0.0"></path><path d="M 412.0 52 h 0.0"></path><text class="comment" x="337.0" y="57">Char.char.style.enum</text></g></g></g><path d="M 151.0 496 h 20"></path><g>
<path d="M 171.0 496 h 233.75"></path><path d="M 796.25 496 h 233.75"></path><rect class="group-box" height="237" rx="10" ry="10" width="391.5" x="404.75" y="468"></rect><g>
<path d="M 404.75 496 h 10.0"></path><path d="M 786.25 496 h 10.0"></path><g class="terminal ">
<path d="M 414.75 496 h 0.0"></path><path d="M 468.75 496 h 0.0"></path><rect height="22" rx="10" ry="10" width="54.0" x="414.75" y="485"></rect><text x="441.75" y="500">text</text></g><path d="M 468.75 496 h 10"></path><g>
<path d="M 478.75 496 h 0.0"></path><path d="M 786.25 496 h 0.0"></path><path d="M 478.75 496 a 10 10 0 0 0 10 -10 v 0 a 10 10 0 0 1 10 -10"></path><g>
<path d="M 498.75 476 h 267.5"></path></g><path d="M 766.25 476 a 10 10 0 0 1 10 10 v 0 a 10 10 0 0 0 10 10"></path><path d="M 478.75 496 h 20"></path><g>
<path d="M 498.75 496 h 0.0"></path><path d="M 766.25 496 h 0.0"></path><path d="M 498.75 496 h 10"></path><g>
<path d="M 508.75 496 h 0.0"></path><path d="M 756.25 496 h 0.0"></path><path d="M 508.75 496 h 20"></path><g class="non-terminal ">
<path d="M 528.75 496 h 55.5"></path><path d="M 680.75 496 h 55.5"></path><rect height="22" width="96.5" x="584.25" y="485"></rect><text x="632.5" y="500">Reference</text></g><path d="M 736.25 496 h 20"></path><path d="M 508.75 496 a 10 10 0 0 1 10 10 v 10 a 10 10 0 0 0 10 10"></path><g class="non-terminal ">
<path d="M 528.75 526 h 55.5"></path><path d="M 680.75 526 h 55.5"></path><rect height="22" width="96.5" x="584.25" y="515"></rect><text x="632.5" y="530">CharEmbed</text></g><path d="M 736.25 526 a 10 10 0 0 0 10 -10 v -10 a 10 10 0 0 1 10 -10"></path><path d="M 508.75 496 a 10 10 0 0 1 10 10 v 40 a 10 10 0 0 0 10 10"></path><g class="non-terminal ">
<path d="M 528.75 556 h 55.5"></path><path d="M 680.75 556 h 55.5"></path><rect height="22" width="96.5" x="584.25" y="545"></rect><text x="632.5" y="560">Milestone</text></g><path d="M 736.25 556 a 10 10 0 0 0 10 -10 v -40 a 10 10 0 0 1 10 -10"></path><path d="M 508.75 496 a 10 10 0 0 1 10 10 v 70 a 10 10 0 0 0 10 10"></path><g class="non-terminal ">
<path d="M 528.75 586 h 59.75"></path><path d="M 676.5 586 h 59.75"></path><rect height="22" width="88.0" x="588.5" y="575"></rect><text x="632.5" y="590">Footnote</text></g><path d="M 736.25 586 a 10 10 0 0 0 10 -10 v -70 a 10 10 0 0 1 10 -10"></path><path d="M 508.75 496 a 10 10 0 0 1 10 10 v 124 a 10 10 0 0 0 10 10"></path><g>
<path d="M 528.75 640 h 0.0"></path><path d="M 736.25 640 h 0.0"></path><rect class="group-box" height="38" rx="10" ry="10" width="207.5" x="528.75" y="621"></rect><g>
<path d="M 528.75 640 h 10.0"></path><path d="M 726.25 640 h 10.0"></path><g class="terminal ">
<path d="M 538.75 640 h 0.0"></path><path d="M 643.75 640 h 0.0"></path><rect height="22" rx="10" ry="10" width="105.0" x="538.75" y="629"></rect><text x="591.25" y="644">&#60;optbreak></text></g><path d="M 643.75 640 h 10"></path><path d="M 653.75 640 h 10"></path><g class="terminal ">
<path d="M 663.75 640 h 0.0"></path><path d="M 726.25 640 h 0.0"></path><rect height="22" rx="10" ry="10" width="62.5" x="663.75" y="629"></rect><text x="695.0" y="644">empty</text></g></g><g class="non-terminal ">
<path d="M 528.75 613 h 0.0"></path><path d="M 573.75 613 h 0.0"></path><text class="comment" x="551.25" y="618">Break</text></g></g><path d="M 736.25 640 a 10 10 0 0 0 10 -10 v -124 a 10 10 0 0 1 10 -10"></path><path d="M 508.75 496 a 10 10 0 0 1 10 10 v 162 a 10 10 0 0 0 10 10"></path><g class="terminal ">
<path d="M 528.75 678 h 76.75"></path><path d="M 659.5 678 h 76.75"></path><rect height="22" rx="10" ry="10" width="54.0" x="605.5" y="667"></rect><text x="632.5" y="682">text</text></g><path d="M 736.25 678 a 10 10 0 0 0 10 -10 v -162 a 10 10 0 0 1 10 -10"></path></g><path d="M 756.25 496 h 10"></path><path d="M 508.75 496 a 10 10 0 0 0 -10 10 v 181 a 10 10 0 0 0 10 10"></path><g>
<path d="M 508.75 697 h 247.5"></path></g><path d="M 756.25 697 a 10 10 0 0 0 10 -10 v -181 a 10 10 0 0 0 -10 -10"></path></g><path d="M 766.25 496 h 20"></path></g></g><g class="non-terminal ">
<path d="M 404.75 460 h 0.0"></path><path d="M 491.75 460 h 0.0"></path><text class="comment" x="448.25" y="465">CharContent</text></g></g><path d="M 1030.0 496 h 20"></path></g></g><path d="M 1050.0 496 h 20"></path><path d="M 50.0 496 a 10 10 0 0 1 10 10 v 232 a 10 10 0 0 0 10 10"></path><g>
<path d="M 70.0 748 h 341.0"></path><path d="M 709.0 748 h 341.0"></path><rect class="group-box" height="68" rx="10" ry="10" width="298.0" x="411.0" y="729"></rect><g>
<path d="M 411.0 748 h 0.0"></path><path d="M 709.0 748 h 0.0"></path><path d="M 411.0 748 h 20"></path><g class="non-terminal ">
<path d="M 431.0 748 h 4.25"></path><path d="M 684.75 748 h 4.25"></path><rect height="22" width="249.5" x="435.25" y="737"></rect><text x="560.0" y="752">CharWithAttrib.char.style.w</text></g><path d="M 689.0 748 h 20"></path><path d="M 411.0 748 a 10 10 0 0 1 10 10 v 10 a 10 10 0 0 0 10 10"></path><g class="non-terminal ">
<path d="M 431.0 778 h 0.0"></path><path d="M 689.0 778 h 0.0"></path><rect height="22" width="258.0" x="431.0" y="767"></rect><text x="560.0" y="782">CharWithAttrib.char.style.rb</text></g><path d="M 689.0 778 a 10 10 0 0 0 10 -10 v -10 a 10 10 0 0 1 10 -10"></path></g><g class="non-terminal ">
<path d="M 411.0 721 h 0.0"></path><path d="M 554.0 721 h 0.0"></path><text class="comment" x="482.5" y="726">CharWithAttrib.enum</text></g></g><path d="M 1050.0 748 a 10 10 0 0 0 10 -10 v -232 a 10 10 0 0 1 10 -10"></path></g><g class="non-terminal ">
<path d="M 50.0 28 h 0.0"></path><path d="M 88.0 28 h 0.0"></path><text class="comment" x="69.0" y="33">Char</text></g></g><path d="M 1070.0 496 h 10"></path><path d="M 1080.0 496 h 20 m 0 -10 v 20"></path></g></svg>