<svg class="railroad-diagram" height="728" viewBox="0 0 1675.0 728" width="1675.0" xmlns="http://www.w3.org/2000/svg" xmlns:xlink="http://www.w3.org/1999/xlink">
<g transform="translate(.5 .5)">
<style>/* <![CDATA[ */

    svg.railroad-diagram {
        background-color: hsl(30,20%,95%);
    }
    svg.railroad-diagram path {
        stroke-width: 2;
        stroke: black;
        fill: none;
    }
    svg.railroad-diagram text {
        font-size: 12px;
        text-anchor: middle;
        font-family: DejaVu Sans;
    }
    svg.railroad-diagram text.label {
        text-anchor:start;
    }
    svg.railroad-diagram text.comment {
        font-family: DejaVu Sans;
        font-size: 14px;
    }
    svg.railroad-diagram rect{
        stroke-width: 2;
        stroke: black;
        fill: rgb(210, 255, 210);
    }
    svg.railroad-diagram rect.group-box {
        stroke: gray;
        stroke-dasharray: 10 5;
        fill: none;
    }
    .terminal {
        font-family: DejaVu Sans;
    }
    svg.railroad-diagram g.altterminal rect {
        fill: rgb(251, 252, 207)
    }

/* ]]> */
</style><g>
<path d="M 20 163 v 20 m 0 -10 h 20"></path></g><path d="M 40 173 h 10"></path><g>
<path d="M 50 173 h 0.0"></path><path d="M 1625.0 173 h 0.0"></path><g>
<path d="M 50.0 173 h 0.0"></path><path d="M 1625.0 173 h 0.0"></path><path d="M 50.0 173 h 20"></path><g>
<path d="M 70.0 173 h 8.5"></path><path d="M 1596.5 173 h 8.5"></path><g>
<path d="M 78.5 173 h 0.0"></path><g>
<path d="M 78.5 173 h 10.0"></path><path d="M 1043.0 173 h 10.0"></path><g class="terminal ">
<path d="M 88.5 173 h 0.0"></path><path d="M 142.5 173 h 0.0"></path><rect height="22" rx="10" ry="10" width="54.0" x="88.5" y="162"></rect><text x="115.5" y="177">'\\'</text></g><path d="M 142.5 173 h 10"></path><path d="M 152.5 173 h 10"></path><g>
<path d="M 162.5 173 h 0.0"></path><path d="M 912.0 173 h 0.0"></path><rect class="group-box" height="314" rx="10" ry="10" width="749.5" x="162.5" y="46"></rect><g>
<path d="M 162.5 173 h 10.0"></path><path d="M 902.0 173 h 10.0"></path><g>
<path d="M 172.5 173 h 0.0"></path><path d="M 902.0 173 h 0.0"></path><path d="M 172.5 173 a 10 10 0 0 0 10 -10 v -99 a 10 10 0 0 1 10 -10 h 565.5"></path><path d="M 342.0 352 h 540.0 a 10 10 0 0 0 10 -10 v -159 a 10 10 0 0 1 10 -10"></path><path d="M 172.5 173 h 10"></path><g>
<path d="M 182.5 173 h 10.0"></path><path d="M 312.0 173 h 10.0"></path><path d="M 192.5 173 a 10 10 0 0 0 10 -10 v -10 a 10 10 0 0 1 10 -10"></path><g class="terminal ">
<path d="M 212.5 143 h 12.75"></path><path d="M 279.25 143 h 12.75"></path><rect height="22" rx="10" ry="10" width="54.0" x="225.25" y="132"></rect><text x="252.25" y="147">"qs"</text></g><path d="M 292.0 143 a 10 10 0 0 1 10 10 v 10 a 10 10 0 0 0 10 10"></path><path d="M 192.5 173 a 10 10 0 0 0 10 -10 v -40 a 10 10 0 0 1 10 -10"></path><g class="terminal ">
<path d="M 212.5 113 h 8.5"></path><path d="M 283.5 113 h 8.5"></path><rect height="22" rx="10" ry="10" width="62.5" x="221.0" y="102"></rect><text x="252.25" y="117">"qac"</text></g><path d="M 292.0 113 a 10 10 0 0 1 10 10 v 40 a 10 10 0 0 0 10 10"></path><path d="M 192.5 173 a 10 10 0 0 0 10 -10 v -70 a 10 10 0 0 1 10 -10"></path><g class="terminal ">
<path d="M 212.5 83 h 12.75"></path><path d="M 279.25 83 h 12.75"></path><rect height="22" rx="10" ry="10" width="54.0" x="225.25" y="72"></rect><text x="252.25" y="87">"vp"</text></g><path d="M 292.0 83 a 10 10 0 0 1 10 10 v 70 a 10 10 0 0 0 10 10"></path><path d="M 192.5 173 h 20"></path><g class="terminal ">
<path d="M 212.5 173 h 8.5"></path><path d="M 283.5 173 h 8.5"></path><rect height="22" rx="10" ry="10" width="62.5" x="221.0" y="162"></rect><text x="252.25" y="177">"add"</text></g><path d="M 292.0 173 h 20"></path><path d="M 192.5 173 a 10 10 0 0 1 10 10 v 10 a 10 10 0 0 0 10 10"></path><g class="terminal ">
<path d="M 212.5 203 h 0.0"></path><path d="M 292.0 203 h 0.0"></path><rect height="22" rx="10" ry="10" width="79.5" x="212.5" y="192"></rect><text x="252.25" y="207">"addpn"</text></g><path d="M 292.0 203 a 10 10 0 0 0 10 -10 v -10 a 10 10 0 0 1 10 -10"></path><path d="M 192.5 173 a 10 10 0 0 1 10 10 v 40 a 10 10 0 0 0 10 10"></path><g class="terminal ">
<path d="M 212.5 233 h 12.75"></path><path d="M 279.25 233 h 12.75"></path><rect height="22" rx="10" ry="10" width="54.0" x="225.25" y="222"></rect><text x="252.25" y="237">"bk"</text></g><path d="M 292.0 233 a 10 10 0 0 0 10 -10 v -40 a 10 10 0 0 1 10 -10"></path><path d="M 192.5 173 a 10 10 0 0 1 10 10 v 70 a 10 10 0 0 0 10 10"></path><g class="terminal ">
<path d="M 212.5 263 h 12.75"></path><path d="M 279.25 263 h 12.75"></path><rect height="22" rx="10" ry="10" width="54.0" x="225.25" y="252"></rect><text x="252.25" y="267">"dc"</text></g><path d="M 292.0 263 a 10 10 0 0 0 10 -10 v -70 a 10 10 0 0 1 10 -10"></path><path d="M 192.5 173 a 10 10 0 0 1 10 10 v 100 a 10 10 0 0 0 10 10"></path><g class="terminal ">
<path d="M 212.5 293 h 8.5"></path><path d="M 283.5 293 h 8.5"></path><rect height="22" rx="10" ry="10" width="62.5" x="221.0" y="282"></rect><text x="252.25" y="297">"efm"</text></g><path d="M 292.0 293 a 10 10 0 0 0 10 -10 v -100 a 10 10 0 0 1 10 -10"></path><path d="M 192.5 173 a 10 10 0 0 1 10 10 v 130 a 10 10 0 0 0 10 10"></path><g class="terminal ">
<path d="M 212.5 323 h 12.75"></path><path d="M 279.25 323 h 12.75"></path><rect height="22" rx="10" ry="10" width="54.0" x="225.25" y="312"></rect><text x="252.25" y="327">"fm"</text></g><path d="M 292.0 323 a 10 10 0 0 0 10 -10 v -130 a 10 10 0 0 1 10 -10"></path></g><path d="M 322.0 173 a 10 10 0 0 1 10 10 v 159 a 10 10 0 0 0 10 10"></path><path d="M 322.0 54 a 10 10 0 0 1 10 10 v 99 a 10 10 0 0 0 10 10"></path><g>
<path d="M 342.0 173 h 10.0"></path><path d="M 454.5 173 h 10.0"></path><path d="M 352.0 173 a 10 10 0 0 0 10 -10 v -10 a 10 10 0 0 1 10 -10"></path><g class="terminal ">
<path d="M 372.0 143 h 4.25"></path><path d="M 430.25 143 h 4.25"></path><rect height="22" rx="10" ry="10" width="54.0" x="376.25" y="132"></rect><text x="403.25" y="147">"nd"</text></g><path d="M 434.5 143 a 10 10 0 0 1 10 10 v 10 a 10 10 0 0 0 10 10"></path><path d="M 352.0 173 a 10 10 0 0 0 10 -10 v -40 a 10 10 0 0 1 10 -10"></path><g class="terminal ">
<path d="M 372.0 113 h 8.5"></path><path d="M 426.0 113 h 8.5"></path><rect height="22" rx="10" ry="10" width="45.5" x="380.5" y="102"></rect><text x="403.25" y="117">"k"</text></g><path d="M 434.5 113 a 10 10 0 0 1 10 10 v 40 a 10 10 0 0 0 10 10"></path><path d="M 352.0 173 a 10 10 0 0 0 10 -10 v -70 a 10 10 0 0 1 10 -10"></path><g class="terminal ">
<path d="M 372.0 83 h 4.25"></path><path d="M 430.25 83 h 4.25"></path><rect height="22" rx="10" ry="10" width="54.0" x="376.25" y="72"></rect><text x="403.25" y="87">"fv"</text></g><path d="M 434.5 83 a 10 10 0 0 1 10 10 v 70 a 10 10 0 0 0 10 10"></path><path d="M 352.0 173 h 20"></path><g class="terminal ">
<path d="M 372.0 173 h 0.0"></path><path d="M 434.5 173 h 0.0"></path><rect height="22" rx="10" ry="10" width="62.5" x="372.0" y="162"></rect><text x="403.25" y="177">"ndx"</text></g><path d="M 434.5 173 h 20"></path><path d="M 352.0 173 a 10 10 0 0 1 10 10 v 10 a 10 10 0 0 0 10 10"></path><g class="terminal ">
<path d="M 372.0 203 h 0.0"></path><path d="M 434.5 203 h 0.0"></path><rect height="22" rx="10" ry="10" width="62.5" x="372.0" y="192"></rect><text x="403.25" y="207">"ord"</text></g><path d="M 434.5 203 a 10 10 0 0 0 10 -10 v -10 a 10 10 0 0 1 10 -10"></path><path d="M 352.0 173 a 10 10 0 0 1 10 10 v 40 a 10 10 0 0 0 10 10"></path><g class="terminal ">
<path d="M 372.0 233 h 4.25"></path><path d="M 430.25 233 h 4.25"></path><rect height="22" rx="10" ry="10" width="54.0" x="376.25" y="222"></rect><text x="403.25" y="237">"pl"</text></g><path d="M 434.5 233 a 10 10 0 0 0 10 -10 v -40 a 10 10 0 0 1 10 -10"></path><path d="M 352.0 173 a 10 10 0 0 1 10 10 v 70 a 10 10 0 0 0 10 10"></path><g class="terminal ">
<path d="M 372.0 263 h 0.0"></path><path d="M 434.5 263 h 0.0"></path><rect height="22" rx="10" ry="10" width="62.5" x="372.0" y="252"></rect><text x="403.25" y="267">"png"</text></g><path d="M 434.5 263 a 10 10 0 0 0 10 -10 v -70 a 10 10 0 0 1 10 -10"></path><path d="M 352.0 173 a 10 10 0 0 1 10 10 v 100 a 10 10 0 0 0 10 10"></path><g class="terminal ">
<path d="M 372.0 293 h 4.25"></path><path d="M 430.25 293 h 4.25"></path><rect height="22" rx="10" ry="10" width="54.0" x="376.25" y="282"></rect><text x="403.25" y="297">"pn"</text></g><path d="M 434.5 293 a 10 10 0 0 0 10 -10 v -100 a 10 10 0 0 1 10 -10"></path><path d="M 352.0 173 a 10 10 0 0 1 10 10 v 130 a 10 10 0 0 0 10 10"></path><g class="terminal ">
<path d="M 372.0 323 h 0.0"></path><path d="M 434.5 323 h 0.0"></path><rect height="22" rx="10" ry="10" width="62.5" x="372.0" y="312"></rect><text x="403.25" y="327">"pro"</text></g><path d="M 434.5 323 a 10 10 0 0 0 10 -10 v -130 a 10 10 0 0 1 10 -10"></path></g><path d="M 464.5 173 a 10 10 0 0 1 10 10 v 159 a 10 10 0 0 0 10 10"></path><path d="M 464.5 54 a 10 10 0 0 1 10 10 v 99 a 10 10 0 0 0 10 10"></path><g>
<path d="M 484.5 173 h 10.0"></path><path d="M 597.0 173 h 10.0"></path><path d="M 494.5 173 a 10 10 0 0 0 10 -10 v -10 a 10 10 0 0 1 10 -10"></path><g class="terminal ">
<path d="M 514.5 143 h 0.0"></path><path d="M 577.0 143 h 0.0"></path><rect height="22" rx="10" ry="10" width="62.5" x="514.5" y="132"></rect><text x="545.75" y="147">"sig"</text></g><path d="M 577.0 143 a 10 10 0 0 1 10 10 v 10 a 10 10 0 0 0 10 10"></path><path d="M 494.5 173 a 10 10 0 0 0 10 -10 v -40 a 10 10 0 0 1 10 -10"></path><g class="terminal ">
<path d="M 514.5 113 h 4.25"></path><path d="M 572.75 113 h 4.25"></path><rect height="22" rx="10" ry="10" width="54.0" x="518.75" y="102"></rect><text x="545.75" y="117">"rq"</text></g><path d="M 577.0 113 a 10 10 0 0 1 10 10 v 40 a 10 10 0 0 0 10 10"></path><path d="M 494.5 173 a 10 10 0 0 0 10 -10 v -70 a 10 10 0 0 1 10 -10"></path><g class="terminal ">
<path d="M 514.5 83 h 4.25"></path><path d="M 572.75 83 h 4.25"></path><rect height="22" rx="10" ry="10" width="54.0" x="518.75" y="72"></rect><text x="545.75" y="87">"qt"</text></g><path d="M 577.0 83 a 10 10 0 0 1 10 10 v 70 a 10 10 0 0 0 10 10"></path><path d="M 494.5 173 h 20"></path><g class="terminal ">
<path d="M 514.5 173 h 0.0"></path><path d="M 577.0 173 h 0.0"></path><rect height="22" rx="10" ry="10" width="62.5" x="514.5" y="162"></rect><text x="545.75" y="177">"sls"</text></g><path d="M 577.0 173 h 20"></path><path d="M 494.5 173 a 10 10 0 0 1 10 10 v 10 a 10 10 0 0 0 10 10"></path><g class="terminal ">
<path d="M 514.5 203 h 4.25"></path><path d="M 572.75 203 h 4.25"></path><rect height="22" rx="10" ry="10" width="54.0" x="518.75" y="192"></rect><text x="545.75" y="207">"tl"</text></g><path d="M 577.0 203 a 10 10 0 0 0 10 -10 v -10 a 10 10 0 0 1 10 -10"></path><path d="M 494.5 173 a 10 10 0 0 1 10 10 v 40 a 10 10 0 0 0 10 10"></path><g class="terminal ">
<path d="M 514.5 233 h 4.25"></path><path d="M 572.75 233 h 4.25"></path><rect height="22" rx="10" ry="10" width="54.0" x="518.75" y="222"></rect><text x="545.75" y="237">"wg"</text></g><path d="M 577.0 233 a 10 10 0 0 0 10 -10 v -40 a 10 10 0 0 1 10 -10"></path><path d="M 494.5 173 a 10 10 0 0 1 10 10 v 70 a 10 10 0 0 0 10 10"></path><g class="terminal ">
<path d="M 514.5 263 h 4.25"></path><path d="M 572.75 263 h 4.25"></path><rect height="22" rx="10" ry="10" width="54.0" x="518.75" y="252"></rect><text x="545.75" y="267">"wh"</text></g><path d="M 577.0 263 a 10 10 0 0 0 10 -10 v -70 a 10 10 0 0 1 10 -10"></path><path d="M 494.5 173 a 10 10 0 0 1 10 10 v 100 a 10 10 0 0 0 10 10"></path><g class="terminal ">
<path d="M 514.5 293 h 4.25"></path><path d="M 572.75 293 h 4.25"></path><rect height="22" rx="10" ry="10" width="54.0" x="518.75" y="282"></rect><text x="545.75" y="297">"wa"</text></g><path d="M 577.0 293 a 10 10 0 0 0 10 -10 v -100 a 10 10 0 0 1 10 -10"></path><path d="M 494.5 173 a 10 10 0 0 1 10 10 v 130 a 10 10 0 0 0 10 10"></path><g class="terminal ">
<path d="M 514.5 323 h 4.25"></path><path d="M 572.75 323 h 4.25"></path><rect height="22" rx="10" ry="10" width="54.0" x="518.75" y="312"></rect><text x="545.75" y="327">"wj"</text></g><path d="M 577.0 323 a 10 10 0 0 0 10 -10 v -130 a 10 10 0 0 1 10 -10"></path></g><path d="M 607.0 173 a 10 10 0 0 1 10 10 v 159 a 10 10 0 0 0 10 10"></path><path d="M 607.0 54 a 10 10 0 0 1 10 10 v 99 a 10 10 0 0 0 10 10"></path><g>
<path d="M 627.0 173 h 10.0"></path><path d="M 748.0 173 h 10.0"></path><path d="M 637.0 173 a 10 10 0 0 0 10 -10 v -10 a 10 10 0 0 1 10 -10"></path><g class="terminal ">
<path d="M 657.0 143 h 8.5"></path><path d="M 719.5 143 h 8.5"></path><rect height="22" rx="10" ry="10" width="54.0" x="665.5" y="132"></rect><text x="692.5" y="147">"no"</text></g><path d="M 728.0 143 a 10 10 0 0 1 10 10 v 10 a 10 10 0 0 0 10 10"></path><path d="M 637.0 173 a 10 10 0 0 0 10 -10 v -40 a 10 10 0 0 1 10 -10"></path><g class="terminal ">
<path d="M 657.0 113 h 4.25"></path><path d="M 723.75 113 h 4.25"></path><rect height="22" rx="10" ry="10" width="62.5" x="661.25" y="102"></rect><text x="692.5" y="117">"jmp"</text></g><path d="M 728.0 113 a 10 10 0 0 1 10 10 v 40 a 10 10 0 0 0 10 10"></path><path d="M 637.0 173 a 10 10 0 0 0 10 -10 v -70 a 10 10 0 0 1 10 -10"></path><g class="terminal ">
<path d="M 657.0 83 h 8.5"></path><path d="M 719.5 83 h 8.5"></path><rect height="22" rx="10" ry="10" width="54.0" x="665.5" y="72"></rect><text x="692.5" y="87">"wl"</text></g><path d="M 728.0 83 a 10 10 0 0 1 10 10 v 70 a 10 10 0 0 0 10 10"></path><path d="M 637.0 173 h 20"></path><g class="terminal ">
<path d="M 657.0 173 h 8.5"></path><path d="M 719.5 173 h 8.5"></path><rect height="22" rx="10" ry="10" width="54.0" x="665.5" y="162"></rect><text x="692.5" y="177">"it"</text></g><path d="M 728.0 173 h 20"></path><path d="M 637.0 173 a 10 10 0 0 1 10 10 v 10 a 10 10 0 0 0 10 10"></path><g class="terminal ">
<path d="M 657.0 203 h 0.0"></path><path d="M 728.0 203 h 0.0"></path><rect height="22" rx="10" ry="10" width="71.0" x="657.0" y="192"></rect><text x="692.5" y="207">"bdit"</text></g><path d="M 728.0 203 a 10 10 0 0 0 10 -10 v -10 a 10 10 0 0 1 10 -10"></path><path d="M 637.0 173 a 10 10 0 0 1 10 10 v 40 a 10 10 0 0 0 10 10"></path><g class="terminal ">
<path d="M 657.0 233 h 8.5"></path><path d="M 719.5 233 h 8.5"></path><rect height="22" rx="10" ry="10" width="54.0" x="665.5" y="222"></rect><text x="692.5" y="237">"bd"</text></g><path d="M 728.0 233 a 10 10 0 0 0 10 -10 v -40 a 10 10 0 0 1 10 -10"></path><path d="M 637.0 173 a 10 10 0 0 1 10 10 v 70 a 10 10 0 0 0 10 10"></path><g class="terminal ">
<path d="M 657.0 263 h 8.5"></path><path d="M 719.5 263 h 8.5"></path><rect height="22" rx="10" ry="10" width="54.0" x="665.5" y="252"></rect><text x="692.5" y="267">"em"</text></g><path d="M 728.0 263 a 10 10 0 0 0 10 -10 v -70 a 10 10 0 0 1 10 -10"></path><path d="M 637.0 173 a 10 10 0 0 1 10 10 v 100 a 10 10 0 0 0 10 10"></path><g class="terminal ">
<path d="M 657.0 293 h 8.5"></path><path d="M 719.5 293 h 8.5"></path><rect height="22" rx="10" ry="10" width="54.0" x="665.5" y="282"></rect><text x="692.5" y="297">"sc"</text></g><path d="M 728.0 293 a 10 10 0 0 0 10 -10 v -100 a 10 10 0 0 1 10 -10"></path><path d="M 637.0 173 a 10 10 0 0 1 10 10 v 130 a 10 10 0 0 0 10 10"></path><g class="terminal ">
<path d="M 657.0 323 h 4.25"></path><path d="M 723.75 323 h 4.25"></path><rect height="22" rx="10" ry="10" width="62.5" x="661.25" y="312"></rect><text x="692.5" y="327">"sup"</text></g><path d="M 728.0 323 a 10 10 0 0 0 10 -10 v -130 a 10 10 0 0 1 10 -10"></path></g><path d="M 758.0 173 a 10 10 0 0 1 10 10 v 159 a 10 10 0 0 0 10 10"></path><path d="M 758.0 54 a 10 10 0 0 1 10 10 v 99 a 10 10 0 0 0 10 10"></path><g>
<path d="M 778.0 173 h 10.0"></path><path d="M 882.0 173 h 10.0"></path><path d="M 788.0 173 a 10 10 0 0 0 10 -10 v -10 a 10 10 0 0 1 10 -10"></path><g class="terminal ">
<path d="M 808.0 143 h 0.0"></path><path d="M 862.0 143 h 0.0"></path><rect height="22" rx="10" ry="10" width="54.0" x="808.0" y="132"></rect><text x="835.0" y="147">"rb"</text></g><path d="M 862.0 143 a 10 10 0 0 1 10 10 v 10 a 10 10 0 0 0 10 10"></path><path d="M 788.0 173 a 10 10 0 0 0 10 -10 v -40 a 10 10 0 0 1 10 -10"></path><g class="terminal ">
<path d="M 808.0 113 h 4.25"></path><path d="M 857.75 113 h 4.25"></path><rect height="22" rx="10" ry="10" width="45.5" x="812.25" y="102"></rect><text x="835.0" y="117">"w"</text></g><path d="M 862.0 113 a 10 10 0 0 1 10 10 v 40 a 10 10 0 0 0 10 10"></path><path d="M 788.0 173 a 10 10 0 0 0 10 -10 v -70 a 10 10 0 0 1 10 -10"></path><g class="terminal ">
<path d="M 808.0 83 h 0.0"></path><path d="M 862.0 83 h 0.0"></path><rect height="22" rx="10" ry="10" width="54.0" x="808.0" y="72"></rect><text x="835.0" y="87">"xt"</text></g><path d="M 862.0 83 a 10 10 0 0 1 10 10 v 70 a 10 10 0 0 0 10 10"></path><path d="M 788.0 173 h 20"></path><g class="terminal ">
<path d="M 808.0 173 h 0.0"></path><path d="M 862.0 173 h 0.0"></path><rect height="22" rx="10" ry="10" width="54.0" x="808.0" y="162"></rect><text x="835.0" y="177">"ta"</text></g><path d="M 862.0 173 h 20"></path><path d="M 788.0 173 a 10 10 0 0 1 10 10 v 10 a 10 10 0 0 0 10 10"></path><g class="terminal ">
<path d="M 808.0 203 h 0.0"></path><path d="M 862.0 203 h 0.0"></path><rect height="22" rx="10" ry="10" width="54.0" x="808.0" y="192"></rect><text x="835.0" y="207">"xt"</text></g><path d="M 862.0 203 a 10 10 0 0 0 10 -10 v -10 a 10 10 0 0 1 10 -10"></path></g><path d="M 892.0 173 h 10"></path></g></g><g class="non-terminal ">
<path d="M 162.5 38 h 0.0"></path><path d="M 179.5 38 h 0.0"></path><text class="comment" x="171.0" y="43">➋</text></g></g><path d="M 912.0 173 h 10"></path><path d="M 922.0 173 h 10"></path><g>
<path d="M 932.0 173 h 0.0"></path><path d="M 1043.0 173 h 0.0"></path><path d="M 932.0 173 h 20"></path><g class="terminal ">
<path d="M 952.0 173 h 12.75"></path><path d="M 1010.25 173 h 12.75"></path><rect height="22" rx="10" ry="10" width="45.5" x="964.75" y="162"></rect><text x="987.5" y="177">' '</text></g><path d="M 1023.0 173 h 20"></path><path d="M 932.0 173 a 10 10 0 0 1 10 10 v 10 a 10 10 0 0 0 10 10"></path><g class="terminal altterminal">
<path d="M 952.0 203 h 0.0"></path><path d="M 1023.0 203 h 0.0"></path><rect height="22" rx="10" ry="10" width="71.0" x="952.0" y="192"></rect><text x="987.5" y="207">TAGEND</text></g><path d="M 1023.0 203 a 10 10 0 0 0 10 -10 v -10 a 10 10 0 0 1 10 -10"></path></g></g><path d="M 1053.0 173 h 0.0"></path></g><path d="M 1053.0 173 h 10"></path><path d="M 1063.0 173 h 10"></path><g>
<path d="M 1073.0 173 h 0.0"></path><path d="M 1391.5 173 h 0.0"></path><path d="M 1073.0 173 h 20"></path><g>
<path d="M 1093.0 173 h 0.0"></path><path d="M 1371.5 173 h 0.0"></path><g class="non-terminal ">
<path d="M 1093.0 173 h 0.0"></path><path d="M 1206.5 173 h 0.0"></path><rect height="22" width="113.5" x="1093.0" y="162"></rect><text x="1149.75" y="177">CharContent</text></g><path d="M 1206.5 173 h 10"></path><path d="M 1216.5 173 h 10"></path><g>
<path d="M 1226.5 173 h 0.0"></path><path d="M 1371.5 173 h 0.0"></path><path d="M 1226.5 173 h 20"></path><g>
<path d="M 1246.5 173 h 105.0"></path></g><path d="M 1351.5 173 h 20"></path><path d="M 1226.5 173 a 10 10 0 0 1 10 10 v 0 a 10 10 0 0 0 10 10"></path><g class="non-terminal ">
<path d="M 1246.5 193 h 0.0"></path><path d="M 1351.5 193 h 0.0"></path><rect height="22" width="105.0" x="1246.5" y="182"></rect><text x="1299.0" y="197">Attributes</text></g><path d="M 1351.5 193 a 10 10 0 0 0 10 -10 v 0 a 10 10 0 0 1 10 -10"></path></g></g><path d="M 1371.5 173 h 20"></path><path d="M 1073.0 173 a 10 10 0 0 1 10 10 v 40 a 10 10 0 0 0 10 10"></path><g class="non-terminal ">
<path d="M 1093.0 233 h 86.75"></path><path d="M 1284.75 233 h 86.75"></path><rect height="22" width="105.0" x="1179.75" y="222"></rect><text x="1232.25" y="237">Attributes</text></g><path d="M 1371.5 233 a 10 10 0 0 0 10 -10 v -40 a 10 10 0 0 1 10 -10"></path></g><path d="M 1391.5 173 h 10"></path><path d="M 1401.5 173 h 10"></path><g class="terminal ">
<path d="M 1411.5 173 h 0.0"></path><path d="M 1465.5 173 h 0.0"></path><rect height="22" rx="10" ry="10" width="54.0" x="1411.5" y="162"></rect><text x="1438.5" y="177">'\\'</text></g><path d="M 1465.5 173 h 10"></path><path d="M 1475.5 173 h 10"></path><g class="terminal ">
<path d="M 1485.5 173 h 0.0"></path><path d="M 1531.0 173 h 0.0"></path><rect height="22" rx="10" ry="10" width="45.5" x="1485.5" y="162"></rect><text x="1508.25" y="177">⇐ ➋</text></g><path d="M 1531.0 173 h 10"></path><path d="M 1541.0 173 h 10"></path><g class="terminal ">
<path d="M 1551.0 173 h 0.0"></path><path d="M 1596.5 173 h 0.0"></path><rect height="22" rx="10" ry="10" width="45.5" x="1551.0" y="162"></rect><text x="1573.75" y="177">'&#42;'</text></g></g><path d="M 1605.0 173 h 20"></path><path d="M 50.0 173 a 10 10 0 0 1 10 10 v 318 a 10 10 0 0 0 10 10"></path><g>
<path d="M 70.0 511 h 0.0"></path><path d="M 1605.0 511 h 0.0"></path><g>
<path d="M 70.0 511 h 0.0"></path><g>
<path d="M 70.0 511 h 10.0"></path><path d="M 1043.0 511 h 10.0"></path><g class="terminal ">
<path d="M 80.0 511 h 0.0"></path><path d="M 142.5 511 h 0.0"></path><rect height="22" rx="10" ry="10" width="62.5" x="80.0" y="500"></rect><text x="111.25" y="515">'\\+'</text></g><path d="M 142.5 511 h 10"></path><path d="M 152.5 511 h 10"></path><g>
<path d="M 162.5 511 h 0.0"></path><path d="M 912.0 511 h 0.0"></path><rect class="group-box" height="314" rx="10" ry="10" width="749.5" x="162.5" y="384"></rect><g>
<path d="M 162.5 511 h 10.0"></path><path d="M 902.0 511 h 10.0"></path><g>
<path d="M 172.5 511 h 0.0"></path><path d="M 902.0 511 h 0.0"></path><path d="M 172.5 511 a 10 10 0 0 0 10 -10 v -99 a 10 10 0 0 1 10 -10 h 565.5"></path><path d="M 342.0 690 h 540.0 a 10 10 0 0 0 10 -10 v -159 a 10 10 0 0 1 10 -10"></path><path d="M 172.5 511 h 10"></path><g>
<path d="M 182.5 511 h 10.0"></path><path d="M 312.0 511 h 10.0"></path><path d="M 192.5 511 a 10 10 0 0 0 10 -10 v -10 a 10 10 0 0 1 10 -10"></path><g class="terminal ">
<path d="M 212.5 481 h 12.75"></path><path d="M 279.25 481 h 12.75"></path><rect height="22" rx="10" ry="10" width="54.0" x="225.25" y="470"></rect><text x="252.25" y="485">"qs"</text></g><path d="M 292.0 481 a 10 10 0 0 1 10 10 v 10 a 10 10 0 0 0 10 10"></path><path d="M 192.5 511 a 10 10 0 0 0 10 -10 v -40 a 10 10 0 0 1 10 -10"></path><g class="terminal ">
<path d="M 212.5 451 h 8.5"></path><path d="M 283.5 451 h 8.5"></path><rect height="22" rx="10" ry="10" width="62.5" x="221.0" y="440"></rect><text x="252.25" y="455">"qac"</text></g><path d="M 292.0 451 a 10 10 0 0 1 10 10 v 40 a 10 10 0 0 0 10 10"></path><path d="M 192.5 511 a 10 10 0 0 0 10 -10 v -70 a 10 10 0 0 1 10 -10"></path><g class="terminal ">
<path d="M 212.5 421 h 12.75"></path><path d="M 279.25 421 h 12.75"></path><rect height="22" rx="10" ry="10" width="54.0" x="225.25" y="410"></rect><text x="252.25" y="425">"vp"</text></g><path d="M 292.0 421 a 10 10 0 0 1 10 10 v 70 a 10 10 0 0 0 10 10"></path><path d="M 192.5 511 h 20"></path><g class="terminal ">
<path d="M 212.5 511 h 8.5"></path><path d="M 283.5 511 h 8.5"></path><rect height="22" rx="10" ry="10" width="62.5" x="221.0" y="500"></rect><text x="252.25" y="515">"add"</text></g><path d="M 292.0 511 h 20"></path><path d="M 192.5 511 a 10 10 0 0 1 10 10 v 10 a 10 10 0 0 0 10 10"></path><g class="terminal ">
<path d="M 212.5 541 h 0.0"></path><path d="M 292.0 541 h 0.0"></path><rect height="22" rx="10" ry="10" width="79.5" x="212.5" y="530"></rect><text x="252.25" y="545">"addpn"</text></g><path d="M 292.0 541 a 10 10 0 0 0 10 -10 v -10 a 10 10 0 0 1 10 -10"></path><path d="M 192.5 511 a 10 10 0 0 1 10 10 v 40 a 10 10 0 0 0 10 10"></path><g class="terminal ">
<path d="M 212.5 571 h 12.75"></path><path d="M 279.25 571 h 12.75"></path><rect height="22" rx="10" ry="10" width="54.0" x="225.25" y="560"></rect><text x="252.25" y="575">"bk"</text></g><path d="M 292.0 571 a 10 10 0 0 0 10 -10 v -40 a 10 10 0 0 1 10 -10"></path><path d="M 192.5 511 a 10 10 0 0 1 10 10 v 70 a 10 10 0 0 0 10 10"></path><g class="terminal ">
<path d="M 212.5 601 h 12.75"></path><path d="M 279.25 601 h 12.75"></path><rect height="22" rx="10" ry="10" width="54.0" x="225.25" y="590"></rect><text x="252.25" y="605">"dc"</text></g><path d="M 292.0 601 a 10 10 0 0 0 10 -10 v -70 a 10 10 0 0 1 10 -10"></path><path d="M 192.5 511 a 10 10 0 0 1 10 10 v 100 a 10 10 0 0 0 10 10"></path><g class="terminal ">
<path d="M 212.5 631 h 8.5"></path><path d="M 283.5 631 h 8.5"></path><rect height="22" rx="10" ry="10" width="62.5" x="221.0" y="620"></rect><text x="252.25" y="635">"efm"</text></g><path d="M 292.0 631 a 10 10 0 0 0 10 -10 v -100 a 10 10 0 0 1 10 -10"></path><path d="M 192.5 511 a 10 10 0 0 1 10 10 v 130 a 10 10 0 0 0 10 10"></path><g class="terminal ">
<path d="M 212.5 661 h 12.75"></path><path d="M 279.25 661 h 12.75"></path><rect height="22" rx="10" ry="10" width="54.0" x="225.25" y="650"></rect><text x="252.25" y="665">"fm"</text></g><path d="M 292.0 661 a 10 10 0 0 0 10 -10 v -130 a 10 10 0 0 1 10 -10"></path></g><path d="M 322.0 511 a 10 10 0 0 1 10 10 v 159 a 10 10 0 0 0 10 10"></path><path d="M 322.0 392 a 10 10 0 0 1 10 10 v 99 a 10 10 0 0 0 10 10"></path><g>
<path d="M 342.0 511 h 10.0"></path><path d="M 454.5 511 h 10.0"></path><path d="M 352.0 511 a 10 10 0 0 0 10 -10 v -10 a 10 10 0 0 1 10 -10"></path><g class="terminal ">
<path d="M 372.0 481 h 4.25"></path><path d="M 430.25 481 h 4.25"></path><rect height="22" rx="10" ry="10" width="54.0" x="376.25" y="470"></rect><text x="403.25" y="485">"nd"</text></g><path d="M 434.5 481 a 10 10 0 0 1 10 10 v 10 a 10 10 0 0 0 10 10"></path><path d="M 352.0 511 a 10 10 0 0 0 10 -10 v -40 a 10 10 0 0 1 10 -10"></path><g class="terminal ">
<path d="M 372.0 451 h 8.5"></path><path d="M 426.0 451 h 8.5"></path><rect height="22" rx="10" ry="10" width="45.5" x="380.5" y="440"></rect><text x="403.25" y="455">"k"</text></g><path d="M 434.5 451 a 10 10 0 0 1 10 10 v 40 a 10 10 0 0 0 10 10"></path><path d="M 352.0 511 a 10 10 0 0 0 10 -10 v -70 a 10 10 0 0 1 10 -10"></path><g class="terminal ">
<path d="M 372.0 421 h 4.25"></path><path d="M 430.25 421 h 4.25"></path><rect height="22" rx="10" ry="10" width="54.0" x="376.25" y="410"></rect><text x="403.25" y="425">"fv"</text></g><path d="M 434.5 421 a 10 10 0 0 1 10 10 v 70 a 10 10 0 0 0 10 10"></path><path d="M 352.0 511 h 20"></path><g class="terminal ">
<path d="M 372.0 511 h 0.0"></path><path d="M 434.5 511 h 0.0"></path><rect height="22" rx="10" ry="10" width="62.5" x="372.0" y="500"></rect><text x="403.25" y="515">"ndx"</text></g><path d="M 434.5 511 h 20"></path><path d="M 352.0 511 a 10 10 0 0 1 10 10 v 10 a 10 10 0 0 0 10 10"></path><g class="terminal ">
<path d="M 372.0 541 h 0.0"></path><path d="M 434.5 541 h 0.0"></path><rect height="22" rx="10" ry="10" width="62.5" x="372.0" y="530"></rect><text x="403.25" y="545">"ord"</text></g><path d="M 434.5 541 a 10 10 0 0 0 10 -10 v -10 a 10 10 0 0 1 10 -10"></path><path d="M 352.0 511 a 10 10 0 0 1 10 10 v 40 a 10 10 0 0 0 10 10"></path><g class="terminal ">
<path d="M 372.0 571 h 4.25"></path><path d="M 430.25 571 h 4.25"></path><rect height="22" rx="10" ry="10" width="54.0" x="376.25" y="560"></rect><text x="403.25" y="575">"pl"</text></g><path d="M 434.5 571 a 10 10 0 0 0 10 -10 v -40 a 10 10 0 0 1 10 -10"></path><path d="M 352.0 511 a 10 10 0 0 1 10 10 v 70 a 10 10 0 0 0 10 10"></path><g class="terminal ">
<path d="M 372.0 601 h 0.0"></path><path d="M 434.5 601 h 0.0"></path><rect height="22" rx="10" ry="10" width="62.5" x="372.0" y="590"></rect><text x="403.25" y="605">"png"</text></g><path d="M 434.5 601 a 10 10 0 0 0 10 -10 v -70 a 10 10 0 0 1 10 -10"></path><path d="M 352.0 511 a 10 10 0 0 1 10 10 v 100 a 10 10 0 0 0 10 10"></path><g class="terminal ">
<path d="M 372.0 631 h 4.25"></path><path d="M 430.25 631 h 4.25"></path><rect height="22" rx="10" ry="10" width="54.0" x="376.25" y="620"></rect><text x="403.25" y="635">"pn"</text></g><path d="M 434.5 631 a 10 10 0 0 0 10 -10 v -100 a 10 10 0 0 1 10 -10"></path><path d="M 352.0 511 a 10 10 0 0 1 10 10 v 130 a 10 10 0 0 0 10 10"></path><g class="terminal ">
<path d="M 372.0 661 h 0.0"></path><path d="M 434.5 661 h 0.0"></path><rect height="22" rx="10" ry="10" width="62.5" x="372.0" y="650"></rect><text x="403.25" y="665">"pro"</text></g><path d="M 434.5 661 a 10 10 0 0 0 10 -10 v -130 a 10 10 0 0 1 10 -10"></path></g><path d="M 464.5 511 a 10 10 0 0 1 10 10 v 159 a 10 10 0 0 0 10 10"></path><path d="M 464.5 392 a 10 10 0 0 1 10 10 v 99 a 10 10 0 0 0 10 10"></path><g>
<path d="M 484.5 511 h 10.0"></path><path d="M 597.0 511 h 10.0"></path><path d="M 494.5 511 a 10 10 0 0 0 10 -10 v -10 a 10 10 0 0 1 10 -10"></path><g class="terminal ">
<path d="M 514.5 481 h 0.0"></path><path d="M 577.0 481 h 0.0"></path><rect height="22" rx="10" ry="10" width="62.5" x="514.5" y="470"></rect><text x="545.75" y="485">"sig"</text></g><path d="M 577.0 481 a 10 10 0 0 1 10 10 v 10 a 10 10 0 0 0 10 10"></path><path d="M 494.5 511 a 10 10 0 0 0 10 -10 v -40 a 10 10 0 0 1 10 -10"></path><g class="terminal ">
<path d="M 514.5 451 h 4.25"></path><path d="M 572.75 451 h 4.25"></path><rect height="22" rx="10" ry="10" width="54.0" x="518.75" y="440"></rect><text x="545.75" y="455">"rq"</text></g><path d="M 577.0 451 a 10 10 0 0 1 10 10 v 40 a 10 10 0 0 0 10 10"></path><path d="M 494.5 511 a 10 10 0 0 0 10 -10 v -70 a 10 10 0 0 1 10 -10"></path><g class="terminal ">
<path d="M 514.5 421 h 4.25"></path><path d="M 572.75 421 h 4.25"></path><rect height="22" rx="10" ry="10" width="54.0" x="518.75" y="410"></rect><text x="545.75" y="425">"qt"</text></g><path d="M 577.0 421 a 10 10 0 0 1 10 10 v 70 a 10 10 0 0 0 10 10"></path><path d="M 494.5 511 h 20"></path><g class="terminal ">
<path d="M 514.5 511 h 0.0"></path><path d="M 577.0 511 h 0.0"></path><rect height="22" rx="10" ry="10" width="62.5" x="514.5" y="500"></rect><text x="545.75" y="515">"sls"</text></g><path d="M 577.0 511 h 20"></path><path d="M 494.5 511 a 10 10 0 0 1 10 10 v 10 a 10 10 0 0 0 10 10"></path><g class="terminal ">
<path d="M 514.5 541 h 4.25"></path><path d="M 572.75 541 h 4.25"></path><rect height="22" rx="10" ry="10" width="54.0" x="518.75" y="530"></rect><text x="545.75" y="545">"tl"</text></g><path d="M 577.0 541 a 10 10 0 0 0 10 -10 v -10 a 10 10 0 0 1 10 -10"></path><path d="M 494.5 511 a 10 10 0 0 1 10 10 v 40 a 10 10 0 0 0 10 10"></path><g class="terminal ">
<path d="M 514.5 571 h 4.25"></path><path d="M 572.75 571 h 4.25"></path><rect height="22" rx="10" ry="10" width="54.0" x="518.75" y="560"></rect><text x="545.75" y="575">"wg"</text></g><path d="M 577.0 571 a 10 10 0 0 0 10 -10 v -40 a 10 10 0 0 1 10 -10"></path><path d="M 494.5 511 a 10 10 0 0 1 10 10 v 70 a 10 10 0 0 0 10 10"></path><g class="terminal ">
<path d="M 514.5 601 h 4.25"></path><path d="M 572.75 601 h 4.25"></path><rect height="22" rx="10" ry="10" width="54.0" x="518.75" y="590"></rect><text x="545.75" y="605">"wh"</text></g><path d="M 577.0 601 a 10 10 0 0 0 10 -10 v -70 a 10 10 0 0 1 10 -10"></path><path d="M 494.5 511 a 10 10 0 0 1 10 10 v 100 a 10 10 0 0 0 10 10"></path><g class="terminal ">
<path d="M 514.5 631 h 4.25"></path><path d="M 572.75 631 h 4.25"></path><rect height="22" rx="10" ry="10" width="54.0" x="518.75" y="620"></rect><text x="545.75" y="635">"wa"</text></g><path d="M 577.0 631 a 10 10 0 0 0 10 -10 v -100 a 10 10 0 0 1 10 -10"></path><path d="M 494.5 511 a 10 10 0 0 1 10 10 v 130 a 10 10 0 0 0 10 10"></path><g class="terminal ">
<path d="M 514.5 661 h 4.25"></path><path d="M 572.75 661 h 4.25"></path><rect height="22" rx="10" ry="10" width="54.0" x="518.75" y="650"></rect><text x="545.75" y="665">"wj"</text></g><path d="M 577.0 661 a 10 10 0 0 0 10 -10 v -130 a 10 10 0 0 1 10 -10"></path></g><path d="M 607.0 511 a 10 10 0 0 1 10 10 v 159 a 10 10 0 0 0 10 10"></path><path d="M 607.0 392 a 10 10 0 0 1 10 10 v 99 a 10 10 0 0 0 10 10"></path><g>
<path d="M 627.0 511 h 10.0"></path><path d="M 748.0 511 h 10.0"></path><path d="M 637.0 511 a 10 10 0 0 0 10 -10 v -10 a 10 10 0 0 1 10 -10"></path><g class="terminal ">
<path d="M 657.0 481 h 8.5"></path><path d="M 719.5 481 h 8.5"></path><rect height="22" rx="10" ry="10" width="54.0" x="665.5" y="470"></rect><text x="692.5" y="485">"no"</text></g><path d="M 728.0 481 a 10 10 0 0 1 10 10 v 10 a 10 10 0 0 0 10 10"></path><path d="M 637.0 511 a 10 10 0 0 0 10 -10 v -40 a 10 10 0 0 1 10 -10"></path><g class="terminal ">
<path d="M 657.0 451 h 4.25"></path><path d="M 723.75 451 h 4.25"></path><rect height="22" rx="10" ry="10" width="62.5" x="661.25" y="440"></rect><text x="692.5" y="455">"jmp"</text></g><path d="M 728.0 451 a 10 10 0 0 1 10 10 v 40 a 10 10 0 0 0 10 10"></path><path d="M 637.0 511 a 10 10 0 0 0 10 -10 v -70 a 10 10 0 0 1 10 -10"></path><g class="terminal ">
<path d="M 657.0 421 h 8.5"></path><path d="M 719.5 421 h 8.5"></path><rect height="22" rx="10" ry="10" width="54.0" x="665.5" y="410"></rect><text x="692.5" y="425">"wl"</text></g><path d="M 728.0 421 a 10 10 0 0 1 10 10 v 70 a 10 10 0 0 0 10 10"></path><path d="M 637.0 511 h 20"></path><g class="terminal ">
<path d="M 657.0 511 h 8.5"></path><path d="M 719.5 511 h 8.5"></path><rect height="22" rx="10" ry="10" width="54.0" x="665.5" y="500"></rect><text x="692.5" y="515">"it"</text></g><path d="M 728.0 511 h 20"></path><path d="M 637.0 511 a 10 10 0 0 1 10 10 v 10 a 10 10 0 0 0 10 10"></path><g class="terminal ">
<path d="M 657.0 541 h 0.0"></path><path d="M 728.0 541 h 0.0"></path><rect height="22" rx="10" ry="10" width="71.0" x="657.0" y="530"></rect><text x="692.5" y="545">"bdit"</text></g><path d="M 728.0 541 a 10 10 0 0 0 10 -10 v -10 a 10 10 0 0 1 10 -10"></path><path d="M 637.0 511 a 10 10 0 0 1 10 10 v 40 a 10 10 0 0 0 10 10"></path><g class="terminal ">
<path d="M 657.0 571 h 8.5"></path><path d="M 719.5 571 h 8.5"></path><rect height="22" rx="10" ry="10" width="54.0" x="665.5" y="560"></rect><text x="692.5" y="575">"bd"</text></g><path d="M 728.0 571 a 10 10 0 0 0 10 -10 v -40 a 10 10 0 0 1 10 -10"></path><path d="M 637.0 511 a 10 10 0 0 1 10 10 v 70 a 10 10 0 0 0 10 10"></path><g class="terminal ">
<path d="M 657.0 601 h 8.5"></path><path d="M 719.5 601 h 8.5"></path><rect height="22" rx="10" ry="10" width="54.0" x="665.5" y="590"></rect><text x="692.5" y="605">"em"</text></g><path d="M 728.0 601 a 10 10 0 0 0 10 -10 v -70 a 10 10 0 0 1 10 -10"></path><path d="M 637.0 511 a 10 10 0 0 1 10 10 v 100 a 10 10 0 0 0 10 10"></path><g class="terminal ">
<path d="M 657.0 631 h 8.5"></path><path d="M 719.5 631 h 8.5"></path><rect height="22" rx="10" ry="10" width="54.0" x="665.5" y="620"></rect><text x="692.5" y="635">"sc"</text></g><path d="M 728.0 631 a 10 10 0 0 0 10 -10 v -100 a 10 10 0 0 1 10 -10"></path><path d="M 637.0 511 a 10 10 0 0 1 10 10 v 130 a 10 10 0 0 0 10 10"></path><g class="terminal ">
<path d="M 657.0 661 h 4.25"></path><path d="M 723.75 661 h 4.25"></path><rect height="22" rx="10" ry="10" width="62.5" x="661.25" y="650"></rect><text x="692.5" y="665">"sup"</text></g><path d="M 728.0 661 a 10 10 0 0 0 10 -10 v -130 a 10 10 0 0 1 10 -10"></path></g><path d="M 758.0 511 a 10 10 0 0 1 10 10 v 159 a 10 10 0 0 0 10 10"></path><path d="M 758.0 392 a 10 10 0 0 1 10 10 v 99 a 10 10 0 0 0 10 10"></path><g>
<path d="M 778.0 511 h 10.0"></path><path d="M 882.0 511 h 10.0"></path><path d="M 788.0 511 a 10 10 0 0 0 10 -10 v -10 a 10 10 0 0 1 10 -10"></path><g class="terminal ">
<path d="M 808.0 481 h 0.0"></path><path d="M 862.0 481 h 0.0"></path><rect height="22" rx="10" ry="10" width="54.0" x="808.0" y="470"></rect><text x="835.0" y="485">"rb"</text></g><path d="M 862.0 481 a 10 10 0 0 1 10 10 v 10 a 10 10 0 0 0 10 10"></path><path d="M 788.0 511 a 10 10 0 0 0 10 -10 v -40 a 10 10 0 0 1 10 -10"></path><g class="terminal ">
<path d="M 808.0 451 h 4.25"></path><path d="M 857.75 451 h 4.25"></path><rect height="22" rx="10" ry="10" width="45.5" x="812.25" y="440"></rect><text x="835.0" y="455">"w"</text></g><path d="M 862.0 451 a 10 10 0 0 1 10 10 v 40 a 10 10 0 0 0 10 10"></path><path d="M 788.0 511 a 10 10 0 0 0 10 -10 v -70 a 10 10 0 0 1 10 -10"></path><g class="terminal ">
<path d="M 808.0 421 h 0.0"></path><path d="M 862.0 421 h 0.0"></path><rect height="22" rx="10" ry="10" width="54.0" x="808.0" y="410"></rect><text x="835.0" y="425">"xt"</text></g><path d="M 862.0 421 a 10 10 0 0 1 10 10 v 70 a 10 10 0 0 0 10 10"></path><path d="M 788.0 511 h 20"></path><g class="terminal ">
<path d="M 808.0 511 h 0.0"></path><path d="M 862.0 511 h 0.0"></path><rect height="22" rx="10" ry="10" width="54.0" x="808.0" y="500"></rect><text x="835.0" y="515">"ta"</text></g><path d="M 862.0 511 h 20"></path><path d="M 788.0 511 a 10 10 0 0 1 10 10 v 10 a 10 10 0 0 0 10 10"></path><g class="terminal ">
<path d="M 808.0 541 h 0.0"></path><path d="M 862.0 541 h 0.0"></path><rect height="22" rx="10" ry="10" width="54.0" x="808.0" y="530"></rect><text x="835.0" y="545">"xt"</text></g><path d="M 862.0 541 a 10 10 0 0 0 10 -10 v -10 a 10 10 0 0 1 10 -10"></path></g><path d="M 892.0 511 h 10"></path></g></g><g class="non-terminal ">
<path d="M 162.5 376 h 0.0"></path><path d="M 179.5 376 h 0.0"></path><text class="comment" x="171.0" y="381">➌</text></g></g><path d="M 912.0 511 h 10"></path><path d="M 922.0 511 h 10"></path><g>
<path d="M 932.0 511 h 0.0"></path><path d="M 1043.0 511 h 0.0"></path><path d="M 932.0 511 h 20"></path><g class="terminal ">
<path d="M 952.0 511 h 12.75"></path><path d="M 1010.25 511 h 12.75"></path><rect height="22" rx="10" ry="10" width="45.5" x="964.75" y="500"></rect><text x="987.5" y="515">' '</text></g><path d="M 1023.0 511 h 20"></path><path d="M 932.0 511 a 10 10 0 0 1 10 10 v 10 a 10 10 0 0 0 10 10"></path><g class="terminal altterminal">
<path d="M 952.0 541 h 0.0"></path><path d="M 1023.0 541 h 0.0"></path><rect height="22" rx="10" ry="10" width="71.0" x="952.0" y="530"></rect><text x="987.5" y="545">TAGEND</text></g><path d="M 1023.0 541 a 10 10 0 0 0 10 -10 v -10 a 10 10 0 0 1 10 -10"></path></g></g><path d="M 1053.0 511 h 0.0"></path></g><path d="M 1053.0 511 h 10"></path><path d="M 1063.0 511 h 10"></path><g>
<path d="M 1073.0 511 h 0.0"></path><path d="M 1391.5 511 h 0.0"></path><path d="M 1073.0 511 h 20"></path><g>
<path d="M 1093.0 511 h 0.0"></path><path d="M 1371.5 511 h 0.0"></path><g class="non-terminal ">
<path d="M 1093.0 511 h 0.0"></path><path d="M 1206.5 511 h 0.0"></path><rect height="22" width="113.5" x="1093.0" y="500"></rect><text x="1149.75" y="515">CharContent</text></g><path d="M 1206.5 511 h 10"></path><path d="M 1216.5 511 h 10"></path><g>
<path d="M 1226.5 511 h 0.0"></path><path d="M 1371.5 511 h 0.0"></path><path d="M 1226.5 511 h 20"></path><g>
<path d="M 1246.5 511 h 105.0"></path></g><path d="M 1351.5 511 h 20"></path><path d="M 1226.5 511 a 10 10 0 0 1 10 10 v 0 a 10 10 0 0 0 10 10"></path><g class="non-terminal ">
<path d="M 1246.5 531 h 0.0"></path><path d="M 1351.5 531 h 0.0"></path><rect height="22" width="105.0" x="1246.5" y="520"></rect><text x="1299.0" y="535">Attributes</text></g><path d="M 1351.5 531 a 10 10 0 0 0 10 -10 v 0 a 10 10 0 0 1 10 -10"></path></g></g><path d="M 1371.5 511 h 20"></path><path d="M 1073.0 511 a 10 10 0 0 1 10 10 v 40 a 10 10 0 0 0 10 10"></path><g class="non-terminal ">
<path d="M 1093.0 571 h 86.75"></path><path d="M 1284.75 571 h 86.75"></path><rect height="22" width="105.0" x="1179.75" y="560"></rect><text x="1232.25" y="575">Attributes</text></g><path d="M 1371.5 571 a 10 10 0 0 0 10 -10 v -40 a 10 10 0 0 1 10 -10"></path></g><path d="M 1391.5 511 h 10"></path><path d="M 1401.5 511 h 10"></path><g class="terminal ">
<path d="M 1411.5 511 h 0.0"></path><path d="M 1474.0 511 h 0.0"></path><rect height="22" rx="10" ry="10" width="62.5" x="1411.5" y="500"></rect><text x="1442.75" y="515">'\\+'</text></g><path d="M 1474.0 511 h 10"></path><path d="M 1484.0 511 h 10"></path><g class="terminal ">
<path d="M 1494.0 511 h 0.0"></path><path d="M 1539.5 511 h 0.0"></path><rect height="22" rx="10" ry="10" width="45.5" x="1494.0" y="500"></rect><text x="1516.75" y="515">⇐ ➌</text></g><path d="M 1539.5 511 h 10"></path><path d="M 1549.5 511 h 10"></path><g class="terminal ">
<path d="M 1559.5 511 h 0.0"></path><path d="M 1605.0 511 h 0.0"></path><rect height="22" rx="10" ry="10" width="45.5" x="1559.5" y="500"></rect><text x="1582.25" y="515">'&#42;'</text></g></g><path d="M 1605.0 511 a 10 10 0 0 0 10 -10 v -318 a 10 10 0 0 1 10 -10"></path></g></g><path d="M 1625.0 173 h 10"></path><path d="M 1635.0 173 h 20 m 0 -10 v 20"></path></g></svg>