<svg class="railroad-diagram" height="468" viewBox="0 0 1294.0 468" width="1294.0" xmlns="http://www.w3.org/2000/svg" xmlns:xlink="http://www.w3.org/1999/xlink">
<g transform="translate(.5 .5)">
<style>/* <![CDATA[ */

    svg.railroad-diagram {
        background-color: hsl(30,20%,95%);
    }
    svg.railroad-diagram path {
        stroke-width: 2;
        stroke: black;
        fill: none;
    }
    svg.railroad-diagram text {
        font-size: 12px;
        text-anchor: middle;
        font-family: DejaVu Sans;
    }
    svg.railroad-diagram text.label {
        text-anchor:start;
    }
    svg.railroad-diagram text.comment {
        font-family: DejaVu Sans;
        font-size: 14px;
    }
    svg.railroad-diagram rect{
        stroke-width: 2;
        stroke: black;
        fill: rgb(210, 210, 255);
    }
    svg.railroad-diagram rect.group-box {
        stroke: gray;
        stroke-dasharray: 10 5;
        fill: none;
    }
    .terminal {
        font-family: DejaVu Sans;
    }
    svg.railroad-diagram g.altterminal rect {
        fill: rgb(251, 252, 207)
    }

/* ]]> */
</style><g>
<path d="M 20 377 v 20 m 0 -10 h 20"></path></g><path d="M 40 387 h 10"></path><g>
<path d="M 50 387 h 0.0"></path><path d="M 1244.0 387 h 0.0"></path><g>
<path d="M 50.0 387 h 0.0"></path><path d="M 1244.0 387 h 0.0"></path><path d="M 50.0 387 h 20"></path><g>
<path d="M 70.0 387 h 0.0"></path><path d="M 1224.0 387 h 0.0"></path><g class="terminal ">
<path d="M 70.0 387 h 0.0"></path><path d="M 141.0 387 h 0.0"></path><rect height="22" rx="10" ry="10" width="71.0" x="70.0" y="376"></rect><text x="105.5" y="391">&#60;char></text></g><path d="M 141.0 387 h 10"></path><path d="M 151.0 387 h 10"></path><g>
<path d="M 161.0 387 h 0.0"></path><path d="M 1224.0 387 h 0.0"></path><path d="M 161.0 387 a 10 10 0 0 0 10 -10 v -178 a 10 10 0 0 1 10 -10"></path><g>
<path d="M 181.0 189 h 0.0"></path><path d="M 1204.0 189 h 0.0"></path><g class="terminal ">
<path d="M 181.0 189 h 0.0"></path><path d="M 252.0 189 h 0.0"></path><rect height="22" rx="10" ry="10" width="71.0" x="181.0" y="178"></rect><text x="216.5" y="193">@style</text></g><path d="M 252.0 189 h 10"></path><g>
<path d="M 262.0 189 h 0.0"></path><path d="M 1204.0 189 h 0.0"></path><path d="M 262.0 189 a 10 10 0 0 0 10 -10 v -99 a 10 10 0 0 1 10 -10 h 485.5"></path><path d="M 262.0 189 h 10"></path><g>
<path d="M 272.0 189 h 0.0"></path><path d="M 272.0 189 a 10 10 0 0 0 10 -10 v -10 a 10 10 0 0 1 10 -10"></path><g class="terminal ">
<path d="M 292.0 159 h 0.0"></path><path d="M 346.0 159 h 0.0"></path><rect height="22" rx="10" ry="10" width="54.0" x="292.0" y="148"></rect><text x="319.0" y="163">"qs"</text></g><path d="M 272.0 189 a 10 10 0 0 0 10 -10 v -40 a 10 10 0 0 1 10 -10"></path><g class="terminal ">
<path d="M 292.0 129 h 0.0"></path><path d="M 354.5 129 h 0.0"></path><rect height="22" rx="10" ry="10" width="62.5" x="292.0" y="118"></rect><text x="323.25" y="133">"qac"</text></g><path d="M 272.0 189 a 10 10 0 0 0 10 -10 v -70 a 10 10 0 0 1 10 -10"></path><g class="terminal ">
<path d="M 292.0 99 h 0.0"></path><path d="M 346.0 99 h 0.0"></path><rect height="22" rx="10" ry="10" width="54.0" x="292.0" y="88"></rect><text x="319.0" y="103">"vp"</text></g><path d="M 272.0 189 h 20"></path><g class="terminal ">
<path d="M 292.0 189 h 0.0"></path><path d="M 354.5 189 h 0.0"></path><rect height="22" rx="10" ry="10" width="62.5" x="292.0" y="178"></rect><text x="323.25" y="193">"add"</text></g><path d="M 272.0 189 a 10 10 0 0 1 10 10 v 10 a 10 10 0 0 0 10 10"></path><g class="terminal ">
<path d="M 292.0 219 h 0.0"></path><path d="M 371.5 219 h 0.0"></path><rect height="22" rx="10" ry="10" width="79.5" x="292.0" y="208"></rect><text x="331.75" y="223">"addpn"</text></g><path d="M 272.0 189 a 10 10 0 0 1 10 10 v 40 a 10 10 0 0 0 10 10"></path><g class="terminal ">
<path d="M 292.0 249 h 0.0"></path><path d="M 346.0 249 h 0.0"></path><rect height="22" rx="10" ry="10" width="54.0" x="292.0" y="238"></rect><text x="319.0" y="253">"bk"</text></g><path d="M 272.0 189 a 10 10 0 0 1 10 10 v 70 a 10 10 0 0 0 10 10"></path><g class="terminal ">
<path d="M 292.0 279 h 0.0"></path><path d="M 346.0 279 h 0.0"></path><rect height="22" rx="10" ry="10" width="54.0" x="292.0" y="268"></rect><text x="319.0" y="283">"dc"</text></g><path d="M 272.0 189 a 10 10 0 0 1 10 10 v 100 a 10 10 0 0 0 10 10"></path><g class="terminal ">
<path d="M 292.0 309 h 0.0"></path><path d="M 354.5 309 h 0.0"></path><rect height="22" rx="10" ry="10" width="62.5" x="292.0" y="298"></rect><text x="323.25" y="313">"efm"</text></g><path d="M 272.0 189 a 10 10 0 0 1 10 10 v 130 a 10 10 0 0 0 10 10"></path><g class="terminal ">
<path d="M 292.0 339 h 0.0"></path><path d="M 346.0 339 h 0.0"></path><rect height="22" rx="10" ry="10" width="54.0" x="292.0" y="328"></rect><text x="319.0" y="343">"fm"</text></g></g><path d="M 391.5 70 a 10 10 0 0 1 10 10 v 99 a 10 10 0 0 0 10 10"></path><g>
<path d="M 411.5 189 h 0.0"></path><path d="M 411.5 189 a 10 10 0 0 0 10 -10 v -10 a 10 10 0 0 1 10 -10"></path><g class="terminal ">
<path d="M 431.5 159 h 0.0"></path><path d="M 494.0 159 h 0.0"></path><rect height="22" rx="10" ry="10" width="62.5" x="431.5" y="148"></rect><text x="462.75" y="163">"ndx"</text></g><path d="M 411.5 189 a 10 10 0 0 0 10 -10 v -40 a 10 10 0 0 1 10 -10"></path><g class="terminal ">
<path d="M 431.5 129 h 0.0"></path><path d="M 485.5 129 h 0.0"></path><rect height="22" rx="10" ry="10" width="54.0" x="431.5" y="118"></rect><text x="458.5" y="133">"nd"</text></g><path d="M 411.5 189 a 10 10 0 0 0 10 -10 v -70 a 10 10 0 0 1 10 -10"></path><g class="terminal ">
<path d="M 431.5 99 h 0.0"></path><path d="M 477.0 99 h 0.0"></path><rect height="22" rx="10" ry="10" width="45.5" x="431.5" y="88"></rect><text x="454.25" y="103">"k"</text></g><path d="M 411.5 189 h 20"></path><g class="terminal ">
<path d="M 431.5 189 h 0.0"></path><path d="M 494.0 189 h 0.0"></path><rect height="22" rx="10" ry="10" width="62.5" x="431.5" y="178"></rect><text x="462.75" y="193">"ord"</text></g><path d="M 411.5 189 a 10 10 0 0 1 10 10 v 10 a 10 10 0 0 0 10 10"></path><g class="terminal ">
<path d="M 431.5 219 h 0.0"></path><path d="M 494.0 219 h 0.0"></path><rect height="22" rx="10" ry="10" width="62.5" x="431.5" y="208"></rect><text x="462.75" y="223">"png"</text></g><path d="M 411.5 189 a 10 10 0 0 1 10 10 v 40 a 10 10 0 0 0 10 10"></path><g class="terminal ">
<path d="M 431.5 249 h 0.0"></path><path d="M 485.5 249 h 0.0"></path><rect height="22" rx="10" ry="10" width="54.0" x="431.5" y="238"></rect><text x="458.5" y="253">"pn"</text></g><path d="M 411.5 189 a 10 10 0 0 1 10 10 v 70 a 10 10 0 0 0 10 10"></path><g class="terminal ">
<path d="M 431.5 279 h 0.0"></path><path d="M 494.0 279 h 0.0"></path><rect height="22" rx="10" ry="10" width="62.5" x="431.5" y="268"></rect><text x="462.75" y="283">"pro"</text></g><path d="M 411.5 189 a 10 10 0 0 1 10 10 v 100 a 10 10 0 0 0 10 10"></path><g class="terminal ">
<path d="M 431.5 309 h 0.0"></path><path d="M 485.5 309 h 0.0"></path><rect height="22" rx="10" ry="10" width="54.0" x="431.5" y="298"></rect><text x="458.5" y="313">"qt"</text></g><path d="M 411.5 189 a 10 10 0 0 1 10 10 v 130 a 10 10 0 0 0 10 10"></path><g class="terminal ">
<path d="M 431.5 339 h 0.0"></path><path d="M 485.5 339 h 0.0"></path><rect height="22" rx="10" ry="10" width="54.0" x="431.5" y="328"></rect><text x="458.5" y="343">"rq"</text></g></g><path d="M 514.0 70 a 10 10 0 0 1 10 10 v 99 a 10 10 0 0 0 10 10"></path><g>
<path d="M 534.0 189 h 0.0"></path><path d="M 534.0 189 a 10 10 0 0 0 10 -10 v -10 a 10 10 0 0 1 10 -10"></path><g class="terminal ">
<path d="M 554.0 159 h 0.0"></path><path d="M 608.0 159 h 0.0"></path><rect height="22" rx="10" ry="10" width="54.0" x="554.0" y="148"></rect><text x="581.0" y="163">"tl"</text></g><path d="M 534.0 189 a 10 10 0 0 0 10 -10 v -40 a 10 10 0 0 1 10 -10"></path><g class="terminal ">
<path d="M 554.0 129 h 0.0"></path><path d="M 616.5 129 h 0.0"></path><rect height="22" rx="10" ry="10" width="62.5" x="554.0" y="118"></rect><text x="585.25" y="133">"sls"</text></g><path d="M 534.0 189 a 10 10 0 0 0 10 -10 v -70 a 10 10 0 0 1 10 -10"></path><g class="terminal ">
<path d="M 554.0 99 h 0.0"></path><path d="M 616.5 99 h 0.0"></path><rect height="22" rx="10" ry="10" width="62.5" x="554.0" y="88"></rect><text x="585.25" y="103">"sig"</text></g><path d="M 534.0 189 h 20"></path><g class="terminal ">
<path d="M 554.0 189 h 0.0"></path><path d="M 608.0 189 h 0.0"></path><rect height="22" rx="10" ry="10" width="54.0" x="554.0" y="178"></rect><text x="581.0" y="193">"wg"</text></g><path d="M 534.0 189 a 10 10 0 0 1 10 10 v 10 a 10 10 0 0 0 10 10"></path><g class="terminal ">
<path d="M 554.0 219 h 0.0"></path><path d="M 608.0 219 h 0.0"></path><rect height="22" rx="10" ry="10" width="54.0" x="554.0" y="208"></rect><text x="581.0" y="223">"wh"</text></g><path d="M 534.0 189 a 10 10 0 0 1 10 10 v 40 a 10 10 0 0 0 10 10"></path><g class="terminal ">
<path d="M 554.0 249 h 0.0"></path><path d="M 608.0 249 h 0.0"></path><rect height="22" rx="10" ry="10" width="54.0" x="554.0" y="238"></rect><text x="581.0" y="253">"wa"</text></g><path d="M 534.0 189 a 10 10 0 0 1 10 10 v 70 a 10 10 0 0 0 10 10"></path><g class="terminal ">
<path d="M 554.0 279 h 0.0"></path><path d="M 608.0 279 h 0.0"></path><rect height="22" rx="10" ry="10" width="54.0" x="554.0" y="268"></rect><text x="581.0" y="283">"wj"</text></g><path d="M 534.0 189 a 10 10 0 0 1 10 10 v 100 a 10 10 0 0 0 10 10"></path><g class="terminal ">
<path d="M 554.0 309 h 0.0"></path><path d="M 616.5 309 h 0.0"></path><rect height="22" rx="10" ry="10" width="62.5" x="554.0" y="298"></rect><text x="585.25" y="313">"jmp"</text></g><path d="M 534.0 189 a 10 10 0 0 1 10 10 v 130 a 10 10 0 0 0 10 10"></path><g class="terminal ">
<path d="M 554.0 339 h 0.0"></path><path d="M 608.0 339 h 0.0"></path><rect height="22" rx="10" ry="10" width="54.0" x="554.0" y="328"></rect><text x="581.0" y="343">"no"</text></g></g><path d="M 636.5 70 a 10 10 0 0 1 10 10 v 99 a 10 10 0 0 0 10 10"></path><g>
<path d="M 656.5 189 h 0.0"></path><path d="M 656.5 189 a 10 10 0 0 0 10 -10 v -10 a 10 10 0 0 1 10 -10"></path><g class="terminal ">
<path d="M 676.5 159 h 0.0"></path><path d="M 730.5 159 h 0.0"></path><rect height="22" rx="10" ry="10" width="54.0" x="676.5" y="148"></rect><text x="703.5" y="163">"bd"</text></g><path d="M 656.5 189 a 10 10 0 0 0 10 -10 v -40 a 10 10 0 0 1 10 -10"></path><g class="terminal ">
<path d="M 676.5 129 h 0.0"></path><path d="M 747.5 129 h 0.0"></path><rect height="22" rx="10" ry="10" width="71.0" x="676.5" y="118"></rect><text x="712.0" y="133">"bdit"</text></g><path d="M 656.5 189 a 10 10 0 0 0 10 -10 v -70 a 10 10 0 0 1 10 -10"></path><g class="terminal ">
<path d="M 676.5 99 h 0.0"></path><path d="M 730.5 99 h 0.0"></path><rect height="22" rx="10" ry="10" width="54.0" x="676.5" y="88"></rect><text x="703.5" y="103">"it"</text></g><path d="M 656.5 189 h 20"></path><g class="terminal ">
<path d="M 676.5 189 h 0.0"></path><path d="M 730.5 189 h 0.0"></path><rect height="22" rx="10" ry="10" width="54.0" x="676.5" y="178"></rect><text x="703.5" y="193">"em"</text></g><path d="M 656.5 189 a 10 10 0 0 1 10 10 v 10 a 10 10 0 0 0 10 10"></path><g class="terminal ">
<path d="M 676.5 219 h 0.0"></path><path d="M 730.5 219 h 0.0"></path><rect height="22" rx="10" ry="10" width="54.0" x="676.5" y="208"></rect><text x="703.5" y="223">"sc"</text></g><path d="M 656.5 189 a 10 10 0 0 1 10 10 v 40 a 10 10 0 0 0 10 10"></path><g class="terminal ">
<path d="M 676.5 249 h 0.0"></path><path d="M 739.0 249 h 0.0"></path><rect height="22" rx="10" ry="10" width="62.5" x="676.5" y="238"></rect><text x="707.75" y="253">"sup"</text></g><path d="M 656.5 189 a 10 10 0 0 1 10 10 v 70 a 10 10 0 0 0 10 10"></path><g class="terminal ">
<path d="M 676.5 279 h 0.0"></path><path d="M 722.0 279 h 0.0"></path><rect height="22" rx="10" ry="10" width="45.5" x="676.5" y="268"></rect><text x="699.25" y="283">"w"</text></g><path d="M 656.5 189 a 10 10 0 0 1 10 10 v 100 a 10 10 0 0 0 10 10"></path><g class="terminal ">
<path d="M 676.5 309 h 0.0"></path><path d="M 730.5 309 h 0.0"></path><rect height="22" rx="10" ry="10" width="54.0" x="676.5" y="298"></rect><text x="703.5" y="313">"rb"</text></g><path d="M 656.5 189 a 10 10 0 0 1 10 10 v 130 a 10 10 0 0 0 10 10"></path><g class="terminal ">
<path d="M 676.5 339 h 0.0"></path><path d="M 739.0 339 h 0.0"></path><rect height="22" rx="10" ry="10" width="62.5" x="676.5" y="328"></rect><text x="707.75" y="343">"jmp"</text></g></g><path d="M 767.5 70 a 10 10 0 0 1 10 10 v 99 a 10 10 0 0 0 10 10"></path><g>
<path d="M 787.5 189 h 0.0"></path><path d="M 787.5 189 h 20"></path><g class="non-terminal ">
<path d="M 807.5 189 h 0.0"></path><path d="M 1074.0 189 h 0.0"></path><rect height="22" width="266.5" x="807.5" y="178"></rect><text x="940.75" y="193">FullCharExtra.char.style.enum</text></g></g></g></g><path d="M 161.0 387 a 10 10 0 0 0 10 -10 v -316 a 10 10 0 0 1 10 -10"></path><g>
<path d="M 181.0 51 h 0.0"></path><path d="M 292.0 51 h 0.0"></path><g class="terminal ">
<path d="M 181.0 51 h 0.0"></path><path d="M 218.0 51 h 0.0"></path><rect height="22" rx="10" ry="10" width="37.0" x="181.0" y="40"></rect><text x="199.5" y="55">@&#42;</text></g><path d="M 218.0 51 h 10"></path><path d="M 228.0 51 h 10"></path><g class="terminal ">
<path d="M 238.0 51 h 0.0"></path><path d="M 292.0 51 h 0.0"></path><rect height="22" rx="10" ry="10" width="54.0" x="238.0" y="40"></rect><text x="265.0" y="55">TEXT</text></g></g><path d="M 161.0 387 h 20"></path><g>
<path d="M 181.0 387 h 454.75"></path><path d="M 749.25 387 h 454.75"></path><g class="non-terminal ">
<path d="M 635.75 387 h 0.0"></path><path d="M 749.25 387 h 0.0"></path><rect height="22" width="113.5" x="635.75" y="376"></rect><text x="692.5" y="391">CharContent</text></g></g><path d="M 1204.0 387 h 20"></path></g></g><path d="M 1224.0 387 h 20"></path><path d="M 50.0 387 a 10 10 0 0 1 10 10 v 20 a 10 10 0 0 0 10 10"></path><g class="non-terminal ">
<path d="M 70.0 427 h 541.5"></path><path d="M 682.5 427 h 541.5"></path><rect height="22" width="71.0" x="611.5" y="416"></rect><text x="647.0" y="431">Figure</text></g><path d="M 1224.0 427 a 10 10 0 0 0 10 -10 v -20 a 10 10 0 0 1 10 -10"></path></g></g><path d="M 1244.0 387 h 10"></path><path d="M 1254.0 387 h 20 m 0 -10 v 20"></path></g></svg>