<svg class="railroad-diagram" height="400" viewBox="0 0 520.5 400" width="520.5" xmlns="http://www.w3.org/2000/svg" xmlns:xlink="http://www.w3.org/1999/xlink">
<g transform="translate(.5 .5)">
<style>/* <![CDATA[ */

    svg.railroad-diagram {
        background-color: hsl(30,20%,95%);
    }
    svg.railroad-diagram path {
        stroke-width: 2;
        stroke: black;
        fill: none;
    }
    svg.railroad-diagram text {
        font-size: 12px;
        text-anchor: middle;
        font-family: DejaVu Sans;
    }
    svg.railroad-diagram text.label {
        text-anchor:start;
    }
    svg.railroad-diagram text.comment {
        font-family: DejaVu Sans;
        font-size: 14px;
    }
    svg.railroad-diagram rect{
        stroke-width: 2;
        stroke: black;
        fill: rgb(210, 210, 255);
    }
    svg.railroad-diagram rect.group-box {
        stroke: gray;
        stroke-dasharray: 10 5;
        fill: none;
    }
    .terminal {
        font-family: DejaVu Sans;
    }
    svg.railroad-diagram g.altterminal rect {
        fill: rgb(251, 252, 207)
    }

/* ]]> */
</style><g>
<path d="M 20 101 v 20 m 0 -10 h 20"></path></g><path d="M 40 111 h 10"></path><g>
<path d="M 50 111 h 0.0"></path><path d="M 470.5 111 h 0.0"></path><g>
<path d="M 50.0 111 h 0.0"></path><path d="M 470.5 111 h 0.0"></path><g class="terminal ">
<path d="M 50.0 111 h 0.0"></path><path d="M 121.0 111 h 0.0"></path><rect height="22" rx="10" ry="10" width="71.0" x="50.0" y="100"></rect><text x="85.5" y="115">&#60;char></text></g><path d="M 121.0 111 h 10"></path><path d="M 131.0 111 h 10"></path><g>
<path d="M 141.0 111 h 0.0"></path><path d="M 470.5 111 h 0.0"></path><path d="M 141.0 111 a 10 10 0 0 0 10 -10 v -20 a 10 10 0 0 1 10 -10"></path><g>
<path d="M 161.0 71 h 0.0"></path><path d="M 450.5 71 h 0.0"></path><g class="terminal ">
<path d="M 161.0 71 h 0.0"></path><path d="M 232.0 71 h 0.0"></path><rect height="22" rx="10" ry="10" width="71.0" x="161.0" y="60"></rect><text x="196.5" y="75">@style</text></g><path d="M 232.0 71 h 10"></path><path d="M 242.0 71 h 10"></path><g class="non-terminal ">
<path d="M 252.0 71 h 0.0"></path><path d="M 450.5 71 h 0.0"></path><rect height="22" width="198.5" x="252.0" y="60"></rect><text x="351.25" y="75">Chars.char.style.enum</text></g></g><path d="M 141.0 111 a 10 10 0 0 0 10 -10 v -50 a 10 10 0 0 1 10 -10"></path><g>
<path d="M 161.0 41 h 0.0"></path><path d="M 272.0 41 h 0.0"></path><g class="terminal ">
<path d="M 161.0 41 h 0.0"></path><path d="M 198.0 41 h 0.0"></path><rect height="22" rx="10" ry="10" width="37.0" x="161.0" y="30"></rect><text x="179.5" y="45">@&#42;</text></g><path d="M 198.0 41 h 10"></path><path d="M 208.0 41 h 10"></path><g class="terminal ">
<path d="M 218.0 41 h 0.0"></path><path d="M 272.0 41 h 0.0"></path><rect height="22" rx="10" ry="10" width="54.0" x="218.0" y="30"></rect><text x="245.0" y="45">TEXT</text></g></g><path d="M 141.0 111 h 20"></path><g>
<path d="M 161.0 111 h 1.0"></path><path d="M 449.5 111 h 1.0"></path><g>
<path d="M 162.0 111 h 0.0"></path><path d="M 449.5 111 h 0.0"></path><path d="M 162.0 111 h 10"></path><g>
<path d="M 172.0 111 h 0.0"></path><path d="M 439.5 111 h 0.0"></path><path d="M 172.0 111 h 20"></path><g class="terminal ">
<path d="M 192.0 111 h 86.75"></path><path d="M 332.75 111 h 86.75"></path><rect height="22" rx="10" ry="10" width="54.0" x="278.75" y="100"></rect><text x="305.75" y="115">TEXT</text></g><path d="M 419.5 111 h 20"></path><path d="M 172.0 111 a 10 10 0 0 1 10 10 v 10 a 10 10 0 0 0 10 10"></path><g class="non-terminal ">
<path d="M 192.0 141 h 65.5"></path><path d="M 354.0 141 h 65.5"></path><rect height="22" width="96.5" x="257.5" y="130"></rect><text x="305.75" y="145">CharEmbed</text></g><path d="M 419.5 141 a 10 10 0 0 0 10 -10 v -10 a 10 10 0 0 1 10 -10"></path><path d="M 172.0 111 a 10 10 0 0 1 10 10 v 40 a 10 10 0 0 0 10 10"></path><g class="non-terminal ">
<path d="M 192.0 171 h 78.25"></path><path d="M 341.25 171 h 78.25"></path><rect height="22" width="71.0" x="270.25" y="160"></rect><text x="305.75" y="175">Figure</text></g><path d="M 419.5 171 a 10 10 0 0 0 10 -10 v -40 a 10 10 0 0 1 10 -10"></path><path d="M 172.0 111 a 10 10 0 0 1 10 10 v 70 a 10 10 0 0 0 10 10"></path><g class="non-terminal ">
<path d="M 192.0 201 h 65.5"></path><path d="M 354.0 201 h 65.5"></path><rect height="22" width="96.5" x="257.5" y="190"></rect><text x="305.75" y="205">Milestone</text></g><path d="M 419.5 201 a 10 10 0 0 0 10 -10 v -70 a 10 10 0 0 1 10 -10"></path><path d="M 172.0 111 a 10 10 0 0 1 10 10 v 100 a 10 10 0 0 0 10 10"></path><g class="non-terminal ">
<path d="M 192.0 231 h 69.75"></path><path d="M 349.75 231 h 69.75"></path><rect height="22" width="88.0" x="261.75" y="220"></rect><text x="305.75" y="235">Footnote</text></g><path d="M 419.5 231 a 10 10 0 0 0 10 -10 v -100 a 10 10 0 0 1 10 -10"></path><path d="M 172.0 111 a 10 10 0 0 1 10 10 v 130 a 10 10 0 0 0 10 10"></path><g class="non-terminal ">
<path d="M 192.0 261 h 44.25"></path><path d="M 375.25 261 h 44.25"></path><rect height="22" width="139.0" x="236.25" y="250"></rect><text x="305.75" y="265">CrossReference</text></g><path d="M 419.5 261 a 10 10 0 0 0 10 -10 v -130 a 10 10 0 0 1 10 -10"></path><path d="M 172.0 111 a 10 10 0 0 1 10 10 v 160 a 10 10 0 0 0 10 10"></path><g class="non-terminal ">
<path d="M 192.0 291 h 65.5"></path><path d="M 354.0 291 h 65.5"></path><rect height="22" width="96.5" x="257.5" y="280"></rect><text x="305.75" y="295">Reference</text></g><path d="M 419.5 291 a 10 10 0 0 0 10 -10 v -160 a 10 10 0 0 1 10 -10"></path><path d="M 172.0 111 a 10 10 0 0 1 10 10 v 200 a 10 10 0 0 0 10 10"></path><g>
<path d="M 192.0 331 h 0.0"></path><path d="M 419.5 331 h 0.0"></path><g class="terminal ">
<path d="M 192.0 331 h 0.0"></path><path d="M 297.0 331 h 0.0"></path><rect height="22" rx="10" ry="10" width="105.0" x="192.0" y="320"></rect><text x="244.5" y="335">&#60;optbreak></text></g><path d="M 297.0 331 h 10"></path><path d="M 307.0 331 h 10"></path><g>
<path d="M 317.0 331 h 0.0"></path><path d="M 419.5 331 h 0.0"></path><path d="M 317.0 331 h 20"></path><g class="terminal ">
<path d="M 337.0 331 h 0.0"></path><path d="M 399.5 331 h 0.0"></path><rect height="22" rx="10" ry="10" width="62.5" x="337.0" y="320"></rect><text x="368.25" y="335">EMPTY</text></g><path d="M 399.5 331 h 20"></path></g></g><path d="M 419.5 331 a 10 10 0 0 0 10 -10 v -200 a 10 10 0 0 1 10 -10"></path></g><path d="M 439.5 111 h 10"></path><path d="M 172.0 111 a 10 10 0 0 0 -10 10 v 239 a 10 10 0 0 0 10 10"></path><g>
<path d="M 172.0 370 h 267.5"></path></g><path d="M 439.5 370 a 10 10 0 0 0 10 -10 v -239 a 10 10 0 0 0 -10 -10"></path></g></g><path d="M 450.5 111 h 20"></path></g></g></g><path d="M 470.5 111 h 10"></path><path d="M 480.5 111 h 20 m 0 -10 v 20"></path></g></svg>