<svg class="railroad-diagram" height="862" viewBox="0 0 1142.0 862" width="1142.0" xmlns="http://www.w3.org/2000/svg" xmlns:xlink="http://www.w3.org/1999/xlink">
<g transform="translate(.5 .5)">
<style>/* <![CDATA[ */

    svg.railroad-diagram {
        background-color:hsl(30,20%,95%);
    }
    svg.railroad-diagram path {
        stroke-width: 2;
        stroke: black;
        fill: none;
    }
    svg.railroad-diagram text {
        font-size: 12px;
        text-anchor: middle;
        font-family: DejaVu Sans;
    }
    svg.railroad-diagram text.label {
        text-anchor:start;
    }
    svg.railroad-diagram text.comment {
        font-family: DejaVu Sans;
        font-size: 14px;
    }
    svg.railroad-diagram rect{
        stroke-width: 2;
        stroke:black;
        fill: rgb(210, 255, 210);
    }
    svg.railroad-diagram rect.group-box {
        stroke: gray;
        stroke-dasharray: 10 5;
        fill: none;
    }
    .terminal {
        font-family: DejaVu Sans;
    }

/* ]]> */
</style><g>
<path d="M 20 163 v 20 m 0 -10 h 20"></path></g><path d="M 40 173 h 10"></path><g>
<path d="M 50 173 h 0.0"></path><path d="M 1092.0 487 h 0.0"></path><g>
<path d="M 50.0 173 h 0.0"></path><path d="M 1092.0 487 h 0.0"></path><path d="M 50.0 173 h 20"></path><g>
<path d="M 70.0 173 h 0.0"></path><path d="M 70.0 173 h 10"></path><g>
<path d="M 80.0 173 h 176.25"></path><path d="M 885.75 173 h 176.25"></path><g class="terminal ">
<path d="M 256.25 173 h 0.0"></path><path d="M 301.75 173 h 0.0"></path><rect height="22" rx="10" ry="10" width="45.5" x="256.25" y="162"></rect><text x="279.0" y="177">'\'</text></g><path d="M 301.75 173 h 10"></path><path d="M 311.75 173 h 10"></path><g>
<path d="M 321.75 173 h 0.0"></path><path d="M 794.75 173 h 0.0"></path><rect class="group-box" height="404" rx="10" ry="10" width="473.0" x="321.75" y="46"></rect><g>
<path d="M 321.75 173 h 10.0"></path><path d="M 784.75 173 h 10.0"></path><g>
<path d="M 331.75 173 h 0.0"></path><path d="M 784.75 173 h 0.0"></path><path d="M 331.75 173 a 10 10 0 0 0 10 -10 v -99 a 10 10 0 0 1 10 -10 h 272.0"></path><path d="M 501.25 442 h 263.5 a 10 10 0 0 0 10 -10 v -249 a 10 10 0 0 1 10 -10"></path><path d="M 331.75 173 h 10"></path><g>
<path d="M 341.75 173 h 10.0"></path><path d="M 471.25 173 h 10.0"></path><path d="M 351.75 173 a 10 10 0 0 0 10 -10 v -10 a 10 10 0 0 1 10 -10"></path><g class="terminal ">
<path d="M 371.75 143 h 12.75"></path><path d="M 438.5 143 h 12.75"></path><rect height="22" rx="10" ry="10" width="54.0" x="384.5" y="132"></rect><text x="411.5" y="147">"ca"</text></g><path d="M 451.25 143 a 10 10 0 0 1 10 10 v 10 a 10 10 0 0 0 10 10"></path><path d="M 351.75 173 a 10 10 0 0 0 10 -10 v -40 a 10 10 0 0 1 10 -10"></path><g class="terminal ">
<path d="M 371.75 113 h 12.75"></path><path d="M 438.5 113 h 12.75"></path><rect height="22" rx="10" ry="10" width="54.0" x="384.5" y="102"></rect><text x="411.5" y="117">"vp"</text></g><path d="M 451.25 113 a 10 10 0 0 1 10 10 v 40 a 10 10 0 0 0 10 10"></path><path d="M 351.75 173 a 10 10 0 0 0 10 -10 v -70 a 10 10 0 0 1 10 -10"></path><g class="terminal ">
<path d="M 371.75 83 h 12.75"></path><path d="M 438.5 83 h 12.75"></path><rect height="22" rx="10" ry="10" width="54.0" x="384.5" y="72"></rect><text x="411.5" y="87">"va"</text></g><path d="M 451.25 83 a 10 10 0 0 1 10 10 v 70 a 10 10 0 0 0 10 10"></path><path d="M 351.75 173 h 20"></path><g class="terminal ">
<path d="M 371.75 173 h 8.5"></path><path d="M 442.75 173 h 8.5"></path><rect height="22" rx="10" ry="10" width="62.5" x="380.25" y="162"></rect><text x="411.5" y="177">"qac"</text></g><path d="M 451.25 173 h 20"></path><path d="M 351.75 173 a 10 10 0 0 1 10 10 v 10 a 10 10 0 0 0 10 10"></path><g class="terminal ">
<path d="M 371.75 203 h 12.75"></path><path d="M 438.5 203 h 12.75"></path><rect height="22" rx="10" ry="10" width="54.0" x="384.5" y="192"></rect><text x="411.5" y="207">"qs"</text></g><path d="M 451.25 203 a 10 10 0 0 0 10 -10 v -10 a 10 10 0 0 1 10 -10"></path><path d="M 351.75 173 a 10 10 0 0 1 10 10 v 40 a 10 10 0 0 0 10 10"></path><g class="terminal ">
<path d="M 371.75 233 h 8.5"></path><path d="M 442.75 233 h 8.5"></path><rect height="22" rx="10" ry="10" width="62.5" x="380.25" y="222"></rect><text x="411.5" y="237">"add"</text></g><path d="M 451.25 233 a 10 10 0 0 0 10 -10 v -40 a 10 10 0 0 1 10 -10"></path><path d="M 351.75 173 a 10 10 0 0 1 10 10 v 70 a 10 10 0 0 0 10 10"></path><g class="terminal ">
<path d="M 371.75 263 h 0.0"></path><path d="M 451.25 263 h 0.0"></path><rect height="22" rx="10" ry="10" width="79.5" x="371.75" y="252"></rect><text x="411.5" y="267">"addpn"</text></g><path d="M 451.25 263 a 10 10 0 0 0 10 -10 v -70 a 10 10 0 0 1 10 -10"></path><path d="M 351.75 173 a 10 10 0 0 1 10 10 v 100 a 10 10 0 0 0 10 10"></path><g class="terminal ">
<path d="M 371.75 293 h 12.75"></path><path d="M 438.5 293 h 12.75"></path><rect height="22" rx="10" ry="10" width="54.0" x="384.5" y="282"></rect><text x="411.5" y="297">"bk"</text></g><path d="M 451.25 293 a 10 10 0 0 0 10 -10 v -100 a 10 10 0 0 1 10 -10"></path><path d="M 351.75 173 a 10 10 0 0 1 10 10 v 130 a 10 10 0 0 0 10 10"></path><g class="terminal ">
<path d="M 371.75 323 h 12.75"></path><path d="M 438.5 323 h 12.75"></path><rect height="22" rx="10" ry="10" width="54.0" x="384.5" y="312"></rect><text x="411.5" y="327">"dc"</text></g><path d="M 451.25 323 a 10 10 0 0 0 10 -10 v -130 a 10 10 0 0 1 10 -10"></path><path d="M 351.75 173 a 10 10 0 0 1 10 10 v 160 a 10 10 0 0 0 10 10"></path><g class="terminal ">
<path d="M 371.75 353 h 8.5"></path><path d="M 442.75 353 h 8.5"></path><rect height="22" rx="10" ry="10" width="62.5" x="380.25" y="342"></rect><text x="411.5" y="357">"efm"</text></g><path d="M 451.25 353 a 10 10 0 0 0 10 -10 v -160 a 10 10 0 0 1 10 -10"></path><path d="M 351.75 173 a 10 10 0 0 1 10 10 v 190 a 10 10 0 0 0 10 10"></path><g class="terminal ">
<path d="M 371.75 383 h 12.75"></path><path d="M 438.5 383 h 12.75"></path><rect height="22" rx="10" ry="10" width="54.0" x="384.5" y="372"></rect><text x="411.5" y="387">"fm"</text></g><path d="M 451.25 383 a 10 10 0 0 0 10 -10 v -190 a 10 10 0 0 1 10 -10"></path><path d="M 351.75 173 a 10 10 0 0 1 10 10 v 220 a 10 10 0 0 0 10 10"></path><g class="terminal ">
<path d="M 371.75 413 h 17.0"></path><path d="M 434.25 413 h 17.0"></path><rect height="22" rx="10" ry="10" width="45.5" x="388.75" y="402"></rect><text x="411.5" y="417">"k"</text></g><path d="M 451.25 413 a 10 10 0 0 0 10 -10 v -220 a 10 10 0 0 1 10 -10"></path></g><path d="M 481.25 173 a 10 10 0 0 1 10 10 v 249 a 10 10 0 0 0 10 10"></path><path d="M 481.25 54 a 10 10 0 0 1 10 10 v 99 a 10 10 0 0 0 10 10"></path><g>
<path d="M 501.25 173 h 10.0"></path><path d="M 613.75 173 h 10.0"></path><path d="M 511.25 173 a 10 10 0 0 0 10 -10 v -10 a 10 10 0 0 1 10 -10"></path><g class="terminal ">
<path d="M 531.25 143 h 0.0"></path><path d="M 593.75 143 h 0.0"></path><rect height="22" rx="10" ry="10" width="62.5" x="531.25" y="132"></rect><text x="562.5" y="147">"ord"</text></g><path d="M 593.75 143 a 10 10 0 0 1 10 10 v 10 a 10 10 0 0 0 10 10"></path><path d="M 511.25 173 a 10 10 0 0 0 10 -10 v -40 a 10 10 0 0 1 10 -10"></path><g class="terminal ">
<path d="M 531.25 113 h 0.0"></path><path d="M 593.75 113 h 0.0"></path><rect height="22" rx="10" ry="10" width="62.5" x="531.25" y="102"></rect><text x="562.5" y="117">"ndx"</text></g><path d="M 593.75 113 a 10 10 0 0 1 10 10 v 40 a 10 10 0 0 0 10 10"></path><path d="M 511.25 173 a 10 10 0 0 0 10 -10 v -70 a 10 10 0 0 1 10 -10"></path><g class="terminal ">
<path d="M 531.25 83 h 4.25"></path><path d="M 589.5 83 h 4.25"></path><rect height="22" rx="10" ry="10" width="54.0" x="535.5" y="72"></rect><text x="562.5" y="87">"nd"</text></g><path d="M 593.75 83 a 10 10 0 0 1 10 10 v 70 a 10 10 0 0 0 10 10"></path><path d="M 511.25 173 h 20"></path><g class="terminal ">
<path d="M 531.25 173 h 0.0"></path><path d="M 593.75 173 h 0.0"></path><rect height="22" rx="10" ry="10" width="62.5" x="531.25" y="162"></rect><text x="562.5" y="177">"png"</text></g><path d="M 593.75 173 h 20"></path><path d="M 511.25 173 a 10 10 0 0 1 10 10 v 10 a 10 10 0 0 0 10 10"></path><g class="terminal ">
<path d="M 531.25 203 h 4.25"></path><path d="M 589.5 203 h 4.25"></path><rect height="22" rx="10" ry="10" width="54.0" x="535.5" y="192"></rect><text x="562.5" y="207">"pn"</text></g><path d="M 593.75 203 a 10 10 0 0 0 10 -10 v -10 a 10 10 0 0 1 10 -10"></path><path d="M 511.25 173 a 10 10 0 0 1 10 10 v 40 a 10 10 0 0 0 10 10"></path><g class="terminal ">
<path d="M 531.25 233 h 0.0"></path><path d="M 593.75 233 h 0.0"></path><rect height="22" rx="10" ry="10" width="62.5" x="531.25" y="222"></rect><text x="562.5" y="237">"pro"</text></g><path d="M 593.75 233 a 10 10 0 0 0 10 -10 v -40 a 10 10 0 0 1 10 -10"></path><path d="M 511.25 173 a 10 10 0 0 1 10 10 v 70 a 10 10 0 0 0 10 10"></path><g class="terminal ">
<path d="M 531.25 263 h 4.25"></path><path d="M 589.5 263 h 4.25"></path><rect height="22" rx="10" ry="10" width="54.0" x="535.5" y="252"></rect><text x="562.5" y="267">"qt"</text></g><path d="M 593.75 263 a 10 10 0 0 0 10 -10 v -70 a 10 10 0 0 1 10 -10"></path><path d="M 511.25 173 a 10 10 0 0 1 10 10 v 100 a 10 10 0 0 0 10 10"></path><g class="terminal ">
<path d="M 531.25 293 h 4.25"></path><path d="M 589.5 293 h 4.25"></path><rect height="22" rx="10" ry="10" width="54.0" x="535.5" y="282"></rect><text x="562.5" y="297">"rq"</text></g><path d="M 593.75 293 a 10 10 0 0 0 10 -10 v -100 a 10 10 0 0 1 10 -10"></path><path d="M 511.25 173 a 10 10 0 0 1 10 10 v 130 a 10 10 0 0 0 10 10"></path><g class="terminal ">
<path d="M 531.25 323 h 0.0"></path><path d="M 593.75 323 h 0.0"></path><rect height="22" rx="10" ry="10" width="62.5" x="531.25" y="312"></rect><text x="562.5" y="327">"sig"</text></g><path d="M 593.75 323 a 10 10 0 0 0 10 -10 v -130 a 10 10 0 0 1 10 -10"></path><path d="M 511.25 173 a 10 10 0 0 1 10 10 v 160 a 10 10 0 0 0 10 10"></path><g class="terminal ">
<path d="M 531.25 353 h 0.0"></path><path d="M 593.75 353 h 0.0"></path><rect height="22" rx="10" ry="10" width="62.5" x="531.25" y="342"></rect><text x="562.5" y="357">"sls"</text></g><path d="M 593.75 353 a 10 10 0 0 0 10 -10 v -160 a 10 10 0 0 1 10 -10"></path><path d="M 511.25 173 a 10 10 0 0 1 10 10 v 190 a 10 10 0 0 0 10 10"></path><g class="terminal ">
<path d="M 531.25 383 h 4.25"></path><path d="M 589.5 383 h 4.25"></path><rect height="22" rx="10" ry="10" width="54.0" x="535.5" y="372"></rect><text x="562.5" y="387">"tl"</text></g><path d="M 593.75 383 a 10 10 0 0 0 10 -10 v -190 a 10 10 0 0 1 10 -10"></path><path d="M 511.25 173 a 10 10 0 0 1 10 10 v 220 a 10 10 0 0 0 10 10"></path><g class="terminal ">
<path d="M 531.25 413 h 4.25"></path><path d="M 589.5 413 h 4.25"></path><rect height="22" rx="10" ry="10" width="54.0" x="535.5" y="402"></rect><text x="562.5" y="417">"wg"</text></g><path d="M 593.75 413 a 10 10 0 0 0 10 -10 v -220 a 10 10 0 0 1 10 -10"></path></g><path d="M 623.75 173 a 10 10 0 0 1 10 10 v 249 a 10 10 0 0 0 10 10"></path><path d="M 623.75 54 a 10 10 0 0 1 10 10 v 99 a 10 10 0 0 0 10 10"></path><g>
<path d="M 643.75 173 h 10.0"></path><path d="M 764.75 173 h 10.0"></path><path d="M 653.75 173 a 10 10 0 0 0 10 -10 v -10 a 10 10 0 0 1 10 -10"></path><g class="terminal ">
<path d="M 673.75 143 h 8.5"></path><path d="M 736.25 143 h 8.5"></path><rect height="22" rx="10" ry="10" width="54.0" x="682.25" y="132"></rect><text x="709.25" y="147">"wj"</text></g><path d="M 744.75 143 a 10 10 0 0 1 10 10 v 10 a 10 10 0 0 0 10 10"></path><path d="M 653.75 173 a 10 10 0 0 0 10 -10 v -40 a 10 10 0 0 1 10 -10"></path><g class="terminal ">
<path d="M 673.75 113 h 8.5"></path><path d="M 736.25 113 h 8.5"></path><rect height="22" rx="10" ry="10" width="54.0" x="682.25" y="102"></rect><text x="709.25" y="117">"wa"</text></g><path d="M 744.75 113 a 10 10 0 0 1 10 10 v 40 a 10 10 0 0 0 10 10"></path><path d="M 653.75 173 a 10 10 0 0 0 10 -10 v -70 a 10 10 0 0 1 10 -10"></path><g class="terminal ">
<path d="M 673.75 83 h 8.5"></path><path d="M 736.25 83 h 8.5"></path><rect height="22" rx="10" ry="10" width="54.0" x="682.25" y="72"></rect><text x="709.25" y="87">"wh"</text></g><path d="M 744.75 83 a 10 10 0 0 1 10 10 v 70 a 10 10 0 0 0 10 10"></path><path d="M 653.75 173 h 20"></path><g class="terminal ">
<path d="M 673.75 173 h 8.5"></path><path d="M 736.25 173 h 8.5"></path><rect height="22" rx="10" ry="10" width="54.0" x="682.25" y="162"></rect><text x="709.25" y="177">"xt"</text></g><path d="M 744.75 173 h 20"></path><path d="M 653.75 173 a 10 10 0 0 1 10 10 v 10 a 10 10 0 0 0 10 10"></path><g class="terminal ">
<path d="M 673.75 203 h 4.25"></path><path d="M 740.5 203 h 4.25"></path><rect height="22" rx="10" ry="10" width="62.5" x="678.0" y="192"></rect><text x="709.25" y="207">"jmp"</text></g><path d="M 744.75 203 a 10 10 0 0 0 10 -10 v -10 a 10 10 0 0 1 10 -10"></path><path d="M 653.75 173 a 10 10 0 0 1 10 10 v 40 a 10 10 0 0 0 10 10"></path><g class="terminal ">
<path d="M 673.75 233 h 8.5"></path><path d="M 736.25 233 h 8.5"></path><rect height="22" rx="10" ry="10" width="54.0" x="682.25" y="222"></rect><text x="709.25" y="237">"no"</text></g><path d="M 744.75 233 a 10 10 0 0 0 10 -10 v -40 a 10 10 0 0 1 10 -10"></path><path d="M 653.75 173 a 10 10 0 0 1 10 10 v 70 a 10 10 0 0 0 10 10"></path><g class="terminal ">
<path d="M 673.75 263 h 8.5"></path><path d="M 736.25 263 h 8.5"></path><rect height="22" rx="10" ry="10" width="54.0" x="682.25" y="252"></rect><text x="709.25" y="267">"it"</text></g><path d="M 744.75 263 a 10 10 0 0 0 10 -10 v -70 a 10 10 0 0 1 10 -10"></path><path d="M 653.75 173 a 10 10 0 0 1 10 10 v 100 a 10 10 0 0 0 10 10"></path><g class="terminal ">
<path d="M 673.75 293 h 0.0"></path><path d="M 744.75 293 h 0.0"></path><rect height="22" rx="10" ry="10" width="71.0" x="673.75" y="282"></rect><text x="709.25" y="297">"bdit"</text></g><path d="M 744.75 293 a 10 10 0 0 0 10 -10 v -100 a 10 10 0 0 1 10 -10"></path><path d="M 653.75 173 a 10 10 0 0 1 10 10 v 130 a 10 10 0 0 0 10 10"></path><g class="terminal ">
<path d="M 673.75 323 h 8.5"></path><path d="M 736.25 323 h 8.5"></path><rect height="22" rx="10" ry="10" width="54.0" x="682.25" y="312"></rect><text x="709.25" y="327">"bd"</text></g><path d="M 744.75 323 a 10 10 0 0 0 10 -10 v -130 a 10 10 0 0 1 10 -10"></path><path d="M 653.75 173 a 10 10 0 0 1 10 10 v 160 a 10 10 0 0 0 10 10"></path><g class="terminal ">
<path d="M 673.75 353 h 8.5"></path><path d="M 736.25 353 h 8.5"></path><rect height="22" rx="10" ry="10" width="54.0" x="682.25" y="342"></rect><text x="709.25" y="357">"em"</text></g><path d="M 744.75 353 a 10 10 0 0 0 10 -10 v -160 a 10 10 0 0 1 10 -10"></path><path d="M 653.75 173 a 10 10 0 0 1 10 10 v 190 a 10 10 0 0 0 10 10"></path><g class="terminal ">
<path d="M 673.75 383 h 8.5"></path><path d="M 736.25 383 h 8.5"></path><rect height="22" rx="10" ry="10" width="54.0" x="682.25" y="372"></rect><text x="709.25" y="387">"sc"</text></g><path d="M 744.75 383 a 10 10 0 0 0 10 -10 v -190 a 10 10 0 0 1 10 -10"></path><path d="M 653.75 173 a 10 10 0 0 1 10 10 v 220 a 10 10 0 0 0 10 10"></path><g class="terminal ">
<path d="M 673.75 413 h 4.25"></path><path d="M 740.5 413 h 4.25"></path><rect height="22" rx="10" ry="10" width="62.5" x="678.0" y="402"></rect><text x="709.25" y="417">"sup"</text></g><path d="M 744.75 413 a 10 10 0 0 0 10 -10 v -220 a 10 10 0 0 1 10 -10"></path></g><path d="M 774.75 173 h 10"></path></g></g><g class="non-terminal ">
<path d="M 321.75 38 h 0.0"></path><path d="M 338.75 38 h 0.0"></path><text class="comment" x="330.25" y="43">➋</text></g></g><path d="M 794.75 173 h 10"></path><path d="M 804.75 173 h 10"></path><g class="terminal ">
<path d="M 814.75 173 h 0.0"></path><path d="M 885.75 173 h 0.0"></path><rect height="22" rx="10" ry="10" width="71.0" x="814.75" y="162"></rect><text x="850.25" y="177">TAGEND</text></g></g><path d="M 1062.0 173 a 10 10 0 0 1 10 10 v 265 a 10 10 0 0 1 -10 10 h -982.0 a 10 10 0 0 0 -10 10 v 9 a 10 10 0 0 0 10 10"></path><g>
<path d="M 80.0 487 h 10.0"></path><path d="M 1052.0 487 h 10.0"></path><path d="M 90.0 487 h 20"></path><g>
<path d="M 110.0 487 h 4.25"></path><path d="M 1027.75 487 h 4.25"></path><g>
<path d="M 114.25 487 h 0.0"></path><path d="M 259.25 487 h 0.0"></path><path d="M 114.25 487 h 20"></path><g>
<path d="M 134.25 487 h 105.0"></path></g><path d="M 239.25 487 h 20"></path><path d="M 114.25 487 a 10 10 0 0 1 10 10 v 0 a 10 10 0 0 0 10 10"></path><g>
<path d="M 134.25 507 h 0.0"></path><path d="M 239.25 507 h 0.0"></path><g class="terminal ">
<path d="M 134.25 507 h 0.0"></path><path d="M 239.25 507 h 0.0"></path><rect height="22" rx="10" ry="10" width="105.0" x="134.25" y="496"></rect><text x="186.75" y="511">TEXTATTRIB</text></g></g><path d="M 239.25 507 a 10 10 0 0 0 10 -10 v 0 a 10 10 0 0 1 10 -10"></path></g><path d="M 259.25 487 h 10"></path><path d="M 269.25 487 h 10"></path><g>
<path d="M 279.25 487 h 0.0"></path><path d="M 831.25 487 h 0.0"></path><path d="M 279.25 487 h 20"></path><g>
<path d="M 299.25 487 h 512.0"></path></g><path d="M 811.25 487 h 20"></path><path d="M 279.25 487 a 10 10 0 0 1 10 10 v 9 a 10 10 0 0 0 10 10"></path><g>
<path d="M 299.25 516 h 0.0"></path><path d="M 811.25 516 h 0.0"></path><g class="terminal ">
<path d="M 299.25 516 h 0.0"></path><path d="M 344.75 516 h 0.0"></path><rect height="22" rx="10" ry="10" width="45.5" x="299.25" y="505"></rect><text x="322.0" y="520">'|'</text></g><path d="M 344.75 516 h 10"></path><path d="M 354.75 516 h 10"></path><g>
<path d="M 364.75 516 h 0.0"></path><path d="M 811.25 516 h 0.0"></path><path d="M 364.75 516 h 20"></path><g>
<path d="M 384.75 516 h 129.5"></path><path d="M 661.75 516 h 129.5"></path><g class="terminal ">
<path d="M 514.25 516 h 0.0"></path><path d="M 661.75 516 h 0.0"></path><rect height="22" rx="10" ry="10" width="147.5" x="514.25" y="505"></rect><text x="588.0" y="520">/&#91;^\\=&#93;&#42;(?=\\)/</text></g></g><path d="M 791.25 516 h 20"></path><path d="M 364.75 516 a 10 10 0 0 1 10 10 v 10 a 10 10 0 0 0 10 10"></path><g>
<path d="M 384.75 546 h 0.0"></path><path d="M 791.25 546 h 0.0"></path><path d="M 384.75 546 h 10"></path><g>
<path d="M 394.75 546 h 0.0"></path><path d="M 781.25 546 h 0.0"></path><g class="terminal ">
<path d="M 394.75 546 h 0.0"></path><path d="M 499.75 546 h 0.0"></path><rect height="22" rx="10" ry="10" width="105.0" x="394.75" y="535"></rect><text x="447.25" y="550">/&#91;^\\="&#93;+/</text></g><path d="M 499.75 546 h 10"></path><path d="M 509.75 546 h 10"></path><g class="terminal ">
<path d="M 519.75 546 h 0.0"></path><path d="M 573.75 546 h 0.0"></path><rect height="22" rx="10" ry="10" width="54.0" x="519.75" y="535"></rect><text x="546.75" y="550">'="'</text></g><path d="M 573.75 546 h 10"></path><path d="M 583.75 546 h 10"></path><g class="terminal ">
<path d="M 593.75 546 h 0.0"></path><path d="M 690.25 546 h 0.0"></path><rect height="22" rx="10" ry="10" width="96.5" x="593.75" y="535"></rect><text x="642.0" y="550">/&#91;^\\"&#93;+/</text></g><path d="M 690.25 546 h 10"></path><path d="M 700.25 546 h 10"></path><g class="terminal ">
<path d="M 710.25 546 h 0.0"></path><path d="M 781.25 546 h 0.0"></path><rect height="22" rx="10" ry="10" width="71.0" x="710.25" y="535"></rect><text x="745.75" y="550">/"\s&#42;/</text></g></g><path d="M 781.25 546 h 10"></path><path d="M 394.75 546 a 10 10 0 0 0 -10 10 v 0 a 10 10 0 0 0 10 10"></path><g>
<path d="M 394.75 566 h 386.5"></path></g><path d="M 781.25 566 a 10 10 0 0 0 10 -10 v 0 a 10 10 0 0 0 -10 -10"></path></g><path d="M 791.25 546 a 10 10 0 0 0 10 -10 v -10 a 10 10 0 0 1 10 -10"></path></g></g><path d="M 811.25 516 a 10 10 0 0 0 10 -10 v -9 a 10 10 0 0 1 10 -10"></path></g><path d="M 831.25 487 h 10"></path><path d="M 841.25 487 h 10"></path><g class="terminal ">
<path d="M 851.25 487 h 0.0"></path><path d="M 896.75 487 h 0.0"></path><rect height="22" rx="10" ry="10" width="45.5" x="851.25" y="476"></rect><text x="874.0" y="491">'\'</text></g><path d="M 896.75 487 h 10"></path><path d="M 906.75 487 h 10"></path><g class="terminal ">
<path d="M 916.75 487 h 0.0"></path><path d="M 962.25 487 h 0.0"></path><rect height="22" rx="10" ry="10" width="45.5" x="916.75" y="476"></rect><text x="939.5" y="491">⇐ ➓</text></g><path d="M 962.25 487 h 10"></path><path d="M 972.25 487 h 10"></path><g class="terminal ">
<path d="M 982.25 487 h 0.0"></path><path d="M 1027.75 487 h 0.0"></path><rect height="22" rx="10" ry="10" width="45.5" x="982.25" y="476"></rect><text x="1005.0" y="491">'&#42;'</text></g></g><path d="M 1032.0 487 h 20"></path><path d="M 90.0 487 a 10 10 0 0 1 10 10 v 126 a 10 10 0 0 0 10 10"></path><g>
<path d="M 110.0 633 h 0.0"></path><path d="M 1032.0 633 h 0.0"></path><g>
<path d="M 110.0 633 h 0.0"></path><path d="M 246.5 633 h 0.0"></path><path d="M 110.0 633 h 20"></path><g>
<path d="M 130.0 633 h 96.5"></path></g><path d="M 226.5 633 h 20"></path><path d="M 110.0 633 a 10 10 0 0 1 10 10 v 0 a 10 10 0 0 0 10 10"></path><g class="non-terminal ">
<path d="M 130.0 653 h 0.0"></path><path d="M 226.5 653 h 0.0"></path><rect height="22" width="96.5" x="130.0" y="642"></rect><text x="178.25" y="657">char.link</text></g><path d="M 226.5 653 a 10 10 0 0 0 10 -10 v 0 a 10 10 0 0 1 10 -10"></path></g><path d="M 246.5 633 h 10"></path><path d="M 256.5 633 h 10"></path><g class="terminal ">
<path d="M 266.5 633 h 0.0"></path><path d="M 320.5 633 h 0.0"></path><rect height="22" rx="10" ry="10" width="54.0" x="266.5" y="622"></rect><text x="293.5" y="637">TEXT</text></g><path d="M 320.5 633 h 10"></path><path d="M 330.5 633 h 10"></path><g class="terminal ">
<path d="M 340.5 633 h 0.0"></path><path d="M 420.0 633 h 0.0"></path><rect height="22" rx="10" ry="10" width="79.5" x="340.5" y="622"></rect><text x="380.25" y="637">TEXTEND</text></g><path d="M 420.0 633 h 10"></path><path d="M 430.0 633 h 10"></path><g>
<path d="M 440.0 633 h 0.0"></path><path d="M 795.5 633 h 0.0"></path><path d="M 440.0 633 a 10 10 0 0 0 10 -10 v -9 a 10 10 0 0 1 10 -10"></path><g>
<path d="M 460.0 604 h 315.5"></path></g><path d="M 775.5 604 a 10 10 0 0 1 10 10 v 9 a 10 10 0 0 0 10 10"></path><path d="M 440.0 633 h 20"></path><g>
<path d="M 460.0 633 h 0.0"></path><path d="M 775.5 633 h 0.0"></path><path d="M 460.0 633 h 10"></path><g>
<path d="M 470.0 633 h 0.0"></path><path d="M 765.5 633 h 0.0"></path><path d="M 470.0 633 h 20"></path><g class="non-terminal ">
<path d="M 490.0 633 h 79.5"></path><path d="M 666.0 633 h 79.5"></path><rect height="22" width="96.5" x="569.5" y="622"></rect><text x="617.75" y="637">CharEmbed</text></g><path d="M 745.5 633 h 20"></path><path d="M 470.0 633 a 10 10 0 0 1 10 10 v 10 a 10 10 0 0 0 10 10"></path><g class="non-terminal ">
<path d="M 490.0 663 h 79.5"></path><path d="M 666.0 663 h 79.5"></path><rect height="22" width="96.5" x="569.5" y="652"></rect><text x="617.75" y="667">Milestone</text></g><path d="M 745.5 663 a 10 10 0 0 0 10 -10 v -10 a 10 10 0 0 1 10 -10"></path><path d="M 470.0 633 a 10 10 0 0 1 10 10 v 40 a 10 10 0 0 0 10 10"></path><g class="non-terminal ">
<path d="M 490.0 693 h 83.75"></path><path d="M 661.75 693 h 83.75"></path><rect height="22" width="88.0" x="573.75" y="682"></rect><text x="617.75" y="697">Footnote</text></g><path d="M 745.5 693 a 10 10 0 0 0 10 -10 v -40 a 10 10 0 0 1 10 -10"></path><path d="M 470.0 633 a 10 10 0 0 1 10 10 v 70 a 10 10 0 0 0 10 10"></path><g>
<path d="M 490.0 723 h 100.75"></path><path d="M 644.75 723 h 100.75"></path><g class="terminal ">
<path d="M 590.75 723 h 0.0"></path><path d="M 644.75 723 h 0.0"></path><rect height="22" rx="10" ry="10" width="54.0" x="590.75" y="712"></rect><text x="617.75" y="727">'//'</text></g></g><path d="M 745.5 723 a 10 10 0 0 0 10 -10 v -70 a 10 10 0 0 1 10 -10"></path><path d="M 470.0 633 a 10 10 0 0 1 10 10 v 100 a 10 10 0 0 0 10 10"></path><g>
<path d="M 490.0 753 h 0.0"></path><path d="M 745.5 753 h 0.0"></path><g class="terminal ">
<path d="M 490.0 753 h 0.0"></path><path d="M 595.0 753 h 0.0"></path><rect height="22" rx="10" ry="10" width="105.0" x="490.0" y="742"></rect><text x="542.5" y="757">TEXTATTRIB</text></g><path d="M 595.0 753 h 10"></path><path d="M 605.0 753 h 10"></path><g class="terminal ">
<path d="M 615.0 753 h 0.0"></path><path d="M 745.5 753 h 0.0"></path><rect height="22" rx="10" ry="10" width="130.5" x="615.0" y="742"></rect><text x="680.25" y="757">ATTRIBTEXTEND</text></g></g><path d="M 745.5 753 a 10 10 0 0 0 10 -10 v -100 a 10 10 0 0 1 10 -10"></path></g><path d="M 765.5 633 h 10"></path><path d="M 470.0 633 a 10 10 0 0 0 -10 10 v 129 a 10 10 0 0 0 10 10"></path><g>
<path d="M 470.0 782 h 295.5"></path></g><path d="M 765.5 782 a 10 10 0 0 0 10 -10 v -129 a 10 10 0 0 0 -10 -10"></path></g><path d="M 775.5 633 h 20"></path></g><path d="M 795.5 633 h 10"></path><path d="M 805.5 633 h 10"></path><g>
<path d="M 815.5 633 h 0.0"></path><path d="M 1032.0 633 h 0.0"></path><path d="M 815.5 633 h 20"></path><g>
<path d="M 835.5 633 h 176.5"></path></g><path d="M 1012.0 633 h 20"></path><path d="M 815.5 633 a 10 10 0 0 1 10 10 v 0 a 10 10 0 0 0 10 10"></path><g>
<path d="M 835.5 653 h 0.0"></path><path d="M 1012.0 653 h 0.0"></path><g class="terminal ">
<path d="M 835.5 653 h 0.0"></path><path d="M 881.0 653 h 0.0"></path><rect height="22" rx="10" ry="10" width="45.5" x="835.5" y="642"></rect><text x="858.25" y="657">'\'</text></g><path d="M 881.0 653 h 10"></path><path d="M 891.0 653 h 10"></path><g class="terminal ">
<path d="M 901.0 653 h 0.0"></path><path d="M 946.5 653 h 0.0"></path><rect height="22" rx="10" ry="10" width="45.5" x="901.0" y="642"></rect><text x="923.75" y="657">⇐ ➓</text></g><path d="M 946.5 653 h 10"></path><path d="M 956.5 653 h 10"></path><g class="terminal ">
<path d="M 966.5 653 h 0.0"></path><path d="M 1012.0 653 h 0.0"></path><rect height="22" rx="10" ry="10" width="45.5" x="966.5" y="642"></rect><text x="989.25" y="657">'&#42;'</text></g></g><path d="M 1012.0 653 a 10 10 0 0 0 10 -10 v 0 a 10 10 0 0 1 10 -10"></path></g></g><path d="M 1032.0 633 a 10 10 0 0 0 10 -10 v -126 a 10 10 0 0 1 10 -10"></path></g><path d="M 1062.0 487 h 10"></path><path d="M 1072.0 487 h 0.0"></path></g><path d="M 1072.0 487 h 20"></path><path d="M 50.0 173 a 10 10 0 0 1 10 10 v 628 a 10 10 0 0 0 10 10"></path><g class="non-terminal ">
<path d="M 70.0 821 h 431.5"></path><path d="M 640.5 821 h 431.5"></path><rect height="22" width="139.0" x="501.5" y="810"></rect><text x="571.0" y="825">CharWithAttrib</text></g><path d="M 1072.0 821 a 10 10 0 0 0 10 -10 v -314 a 10 10 0 0 1 10 -10"></path></g></g><path d="M 1092.0 487 h 10"></path><path d="M 1102.0 487 h 20 m 0 -10 v 20"></path></g></svg>