<svg class="railroad-diagram" height="212" viewBox="0 0 520.5 212" width="520.5" xmlns="http://www.w3.org/2000/svg" xmlns:xlink="http://www.w3.org/1999/xlink">
<g transform="translate(.5 .5)">
<style>/* <![CDATA[ */

    svg.railroad-diagram {
        background-color: hsl(30,20%,95%);
    }
    svg.railroad-diagram path {
        stroke-width: 2;
        stroke: black;
        fill: none;
    }
    svg.railroad-diagram text {
        font-size: 12px;
        text-anchor: middle;
        font-family: DejaVu Sans;
    }
    svg.railroad-diagram text.label {
        text-anchor:start;
    }
    svg.railroad-diagram text.comment {
        font-family: DejaVu Sans;
        font-size: 14px;
    }
    svg.railroad-diagram rect{
        stroke-width: 2;
        stroke: black;
        fill: rgb(210, 210, 255);
    }
    svg.railroad-diagram rect.group-box {
        stroke: gray;
        stroke-dasharray: 10 5;
        fill: none;
    }
    .terminal {
        font-family: DejaVu Sans;
    }
    svg.railroad-diagram g.altterminal rect {
        fill: rgb(251, 252, 207)
    }

/* ]]> */
</style><g>
<path d="M 20 101 v 20 m 0 -10 h 20"></path></g><path d="M 40 111 h 10"></path><g>
<path d="M 50 111 h 0.0"></path><path d="M 470.5 111 h 0.0"></path><g>
<path d="M 50.0 111 h 0.0"></path><path d="M 470.5 111 h 0.0"></path><g class="terminal ">
<path d="M 50.0 111 h 0.0"></path><path d="M 121.0 111 h 0.0"></path><rect height="22" rx="10" ry="10" width="71.0" x="50.0" y="100"></rect><text x="85.5" y="115">&#60;char></text></g><path d="M 121.0 111 h 10"></path><path d="M 131.0 111 h 10"></path><g>
<path d="M 141.0 111 h 0.0"></path><path d="M 470.5 111 h 0.0"></path><path d="M 141.0 111 a 10 10 0 0 0 10 -10 v -20 a 10 10 0 0 1 10 -10"></path><g>
<path d="M 161.0 71 h 0.0"></path><path d="M 450.5 71 h 0.0"></path><g class="terminal ">
<path d="M 161.0 71 h 0.0"></path><path d="M 232.0 71 h 0.0"></path><rect height="22" rx="10" ry="10" width="71.0" x="161.0" y="60"></rect><text x="196.5" y="75">@style</text></g><path d="M 232.0 71 h 10"></path><path d="M 242.0 71 h 10"></path><g class="non-terminal ">
<path d="M 252.0 71 h 0.0"></path><path d="M 450.5 71 h 0.0"></path><rect height="22" width="198.5" x="252.0" y="60"></rect><text x="351.25" y="75">Chars.char.style.enum</text></g></g><path d="M 141.0 111 a 10 10 0 0 0 10 -10 v -50 a 10 10 0 0 1 10 -10"></path><g>
<path d="M 161.0 41 h 0.0"></path><path d="M 272.0 41 h 0.0"></path><g class="terminal ">
<path d="M 161.0 41 h 0.0"></path><path d="M 198.0 41 h 0.0"></path><rect height="22" rx="10" ry="10" width="37.0" x="161.0" y="30"></rect><text x="179.5" y="45">@&#42;</text></g><path d="M 198.0 41 h 10"></path><path d="M 208.0 41 h 10"></path><g class="terminal ">
<path d="M 218.0 41 h 0.0"></path><path d="M 272.0 41 h 0.0"></path><rect height="22" rx="10" ry="10" width="54.0" x="218.0" y="30"></rect><text x="245.0" y="45">TEXT</text></g></g><path d="M 141.0 111 h 20"></path><g>
<path d="M 161.0 111 h 68.0"></path><path d="M 382.5 111 h 68.0"></path><g>
<path d="M 229.0 111 h 0.0"></path><path d="M 382.5 111 h 0.0"></path><path d="M 229.0 111 h 20"></path><g>
<path d="M 249.0 111 h 0.0"></path><path d="M 362.5 111 h 0.0"></path><g class="non-terminal ">
<path d="M 249.0 111 h 0.0"></path><path d="M 362.5 111 h 0.0"></path><rect height="22" width="113.5" x="249.0" y="100"></rect><text x="305.75" y="115">CharContent</text></g></g><path d="M 362.5 111 h 20"></path></g></g><path d="M 450.5 111 h 20"></path><path d="M 141.0 111 a 10 10 0 0 1 10 10 v 30 a 10 10 0 0 0 10 10"></path><g>
<path d="M 161.0 161 h 68.0"></path><path d="M 382.5 161 h 68.0"></path><g>
<path d="M 229.0 161 h 0.0"></path><path d="M 382.5 161 h 0.0"></path><path d="M 229.0 161 h 20"></path><g>
<path d="M 249.0 161 h 0.0"></path><path d="M 362.5 161 h 0.0"></path><g class="non-terminal ">
<path d="M 249.0 161 h 0.0"></path><path d="M 362.5 161 h 0.0"></path><rect height="22" width="113.5" x="249.0" y="150"></rect><text x="305.75" y="165">CharContent</text></g></g><path d="M 362.5 161 h 20"></path></g></g><path d="M 450.5 161 a 10 10 0 0 0 10 -10 v -30 a 10 10 0 0 1 10 -10"></path></g></g></g><path d="M 470.5 111 h 10"></path><path d="M 480.5 111 h 20 m 0 -10 v 20"></path></g></svg>