<svg class="railroad-diagram" height="873" viewBox="0 0 805.0 873" width="805.0" xmlns="http://www.w3.org/2000/svg" xmlns:xlink="http://www.w3.org/1999/xlink">
<g transform="translate(.5 .5)">
<style>/* <![CDATA[ */

    svg.railroad-diagram {
        background-color:hsl(30,20%,95%);
    }
    svg.railroad-diagram path {
        stroke-width: 2;
        stroke: black;
        fill: none;
    }
    svg.railroad-diagram text {
        font-size: 12px;
        text-anchor: middle;
        font-family: DejaVu Sans;
    }
    svg.railroad-diagram text.label {
        text-anchor:start;
    }
    svg.railroad-diagram text.comment {
        font-family: DejaVu Sans;
        font-size: 14px;
    }
    svg.railroad-diagram rect{
        stroke-width: 2;
        stroke:black;
        fill: rgb(210, 210, 255);
    }
    svg.railroad-diagram rect.group-box {
        stroke: gray;
        stroke-dasharray: 10 5;
        fill: none;
    }
    .terminal {
        font-family: DejaVu Sans;
    }

/* ]]> */
</style><g>
<path d="M 20 496 v 20 m 0 -10 h 20"></path></g><path d="M 40 506 h 10"></path><g>
<path d="M 50 506 h 0.0"></path><path d="M 755.0 506 h 0.0"></path><g>
<path d="M 50.0 506 h 0.0"></path><path d="M 755.0 506 h 0.0"></path><path d="M 50.0 506 h 20"></path><g>
<path d="M 70.0 506 h 0.0"></path><path d="M 735.0 506 h 0.0"></path><g class="terminal ">
<path d="M 70.0 506 h 0.0"></path><path d="M 141.0 506 h 0.0"></path><rect height="22" rx="10" ry="10" width="71.0" x="70.0" y="495"></rect><text x="105.5" y="510">&#60;char></text></g><path d="M 141.0 506 h 10"></path><path d="M 151.0 506 h 10"></path><g>
<path d="M 161.0 506 h 0.0"></path><path d="M 735.0 506 h 0.0"></path><path d="M 161.0 506 a 10 10 0 0 0 10 -10 v -267 a 10 10 0 0 1 10 -10"></path><g>
<path d="M 181.0 219 h 0.0"></path><path d="M 715.0 219 h 0.0"></path><g class="terminal ">
<path d="M 181.0 219 h 0.0"></path><path d="M 252.0 219 h 0.0"></path><rect height="22" rx="10" ry="10" width="71.0" x="181.0" y="208"></rect><text x="216.5" y="223">@style</text></g><path d="M 252.0 219 h 10"></path><g>
<path d="M 262.0 219 h 0.0"></path><path d="M 715.0 219 h 0.0"></path><path d="M 262.0 219 a 10 10 0 0 0 10 -10 v -99 a 10 10 0 0 1 10 -10 h 232.0"></path><path d="M 262.0 219 h 10"></path><g>
<path d="M 272.0 219 h 0.0"></path><path d="M 272.0 219 a 10 10 0 0 0 10 -10 v -10 a 10 10 0 0 1 10 -10"></path><g class="terminal ">
<path d="M 292.0 189 h 0.0"></path><path d="M 346.0 189 h 0.0"></path><rect height="22" rx="10" ry="10" width="54.0" x="292.0" y="178"></rect><text x="319.0" y="193">"ca"</text></g><path d="M 272.0 219 a 10 10 0 0 0 10 -10 v -40 a 10 10 0 0 1 10 -10"></path><g class="terminal ">
<path d="M 292.0 159 h 0.0"></path><path d="M 346.0 159 h 0.0"></path><rect height="22" rx="10" ry="10" width="54.0" x="292.0" y="148"></rect><text x="319.0" y="163">"vp"</text></g><path d="M 272.0 219 a 10 10 0 0 0 10 -10 v -70 a 10 10 0 0 1 10 -10"></path><g class="terminal ">
<path d="M 292.0 129 h 0.0"></path><path d="M 346.0 129 h 0.0"></path><rect height="22" rx="10" ry="10" width="54.0" x="292.0" y="118"></rect><text x="319.0" y="133">"va"</text></g><path d="M 272.0 219 h 20"></path><g class="terminal ">
<path d="M 292.0 219 h 0.0"></path><path d="M 354.5 219 h 0.0"></path><rect height="22" rx="10" ry="10" width="62.5" x="292.0" y="208"></rect><text x="323.25" y="223">"qac"</text></g><path d="M 272.0 219 a 10 10 0 0 1 10 10 v 10 a 10 10 0 0 0 10 10"></path><g class="terminal ">
<path d="M 292.0 249 h 0.0"></path><path d="M 346.0 249 h 0.0"></path><rect height="22" rx="10" ry="10" width="54.0" x="292.0" y="238"></rect><text x="319.0" y="253">"qs"</text></g><path d="M 272.0 219 a 10 10 0 0 1 10 10 v 40 a 10 10 0 0 0 10 10"></path><g class="terminal ">
<path d="M 292.0 279 h 0.0"></path><path d="M 354.5 279 h 0.0"></path><rect height="22" rx="10" ry="10" width="62.5" x="292.0" y="268"></rect><text x="323.25" y="283">"add"</text></g><path d="M 272.0 219 a 10 10 0 0 1 10 10 v 70 a 10 10 0 0 0 10 10"></path><g class="terminal ">
<path d="M 292.0 309 h 0.0"></path><path d="M 371.5 309 h 0.0"></path><rect height="22" rx="10" ry="10" width="79.5" x="292.0" y="298"></rect><text x="331.75" y="313">"addpn"</text></g><path d="M 272.0 219 a 10 10 0 0 1 10 10 v 100 a 10 10 0 0 0 10 10"></path><g class="terminal ">
<path d="M 292.0 339 h 0.0"></path><path d="M 346.0 339 h 0.0"></path><rect height="22" rx="10" ry="10" width="54.0" x="292.0" y="328"></rect><text x="319.0" y="343">"bk"</text></g><path d="M 272.0 219 a 10 10 0 0 1 10 10 v 130 a 10 10 0 0 0 10 10"></path><g class="terminal ">
<path d="M 292.0 369 h 0.0"></path><path d="M 346.0 369 h 0.0"></path><rect height="22" rx="10" ry="10" width="54.0" x="292.0" y="358"></rect><text x="319.0" y="373">"dc"</text></g><path d="M 272.0 219 a 10 10 0 0 1 10 10 v 160 a 10 10 0 0 0 10 10"></path><g class="terminal ">
<path d="M 292.0 399 h 0.0"></path><path d="M 354.5 399 h 0.0"></path><rect height="22" rx="10" ry="10" width="62.5" x="292.0" y="388"></rect><text x="323.25" y="403">"efm"</text></g><path d="M 272.0 219 a 10 10 0 0 1 10 10 v 190 a 10 10 0 0 0 10 10"></path><g class="terminal ">
<path d="M 292.0 429 h 0.0"></path><path d="M 346.0 429 h 0.0"></path><rect height="22" rx="10" ry="10" width="54.0" x="292.0" y="418"></rect><text x="319.0" y="433">"fm"</text></g><path d="M 272.0 219 a 10 10 0 0 1 10 10 v 220 a 10 10 0 0 0 10 10"></path><g class="terminal ">
<path d="M 292.0 459 h 0.0"></path><path d="M 337.5 459 h 0.0"></path><rect height="22" rx="10" ry="10" width="45.5" x="292.0" y="448"></rect><text x="314.75" y="463">"k"</text></g></g><path d="M 391.5 100 a 10 10 0 0 1 10 10 v 99 a 10 10 0 0 0 10 10"></path><g>
<path d="M 411.5 219 h 0.0"></path><path d="M 411.5 219 a 10 10 0 0 0 10 -10 v -10 a 10 10 0 0 1 10 -10"></path><g class="terminal ">
<path d="M 431.5 189 h 0.0"></path><path d="M 494.0 189 h 0.0"></path><rect height="22" rx="10" ry="10" width="62.5" x="431.5" y="178"></rect><text x="462.75" y="193">"ord"</text></g><path d="M 411.5 219 a 10 10 0 0 0 10 -10 v -40 a 10 10 0 0 1 10 -10"></path><g class="terminal ">
<path d="M 431.5 159 h 0.0"></path><path d="M 494.0 159 h 0.0"></path><rect height="22" rx="10" ry="10" width="62.5" x="431.5" y="148"></rect><text x="462.75" y="163">"ndx"</text></g><path d="M 411.5 219 a 10 10 0 0 0 10 -10 v -70 a 10 10 0 0 1 10 -10"></path><g class="terminal ">
<path d="M 431.5 129 h 0.0"></path><path d="M 485.5 129 h 0.0"></path><rect height="22" rx="10" ry="10" width="54.0" x="431.5" y="118"></rect><text x="458.5" y="133">"nd"</text></g><path d="M 411.5 219 h 20"></path><g class="terminal ">
<path d="M 431.5 219 h 0.0"></path><path d="M 494.0 219 h 0.0"></path><rect height="22" rx="10" ry="10" width="62.5" x="431.5" y="208"></rect><text x="462.75" y="223">"png"</text></g><path d="M 411.5 219 a 10 10 0 0 1 10 10 v 10 a 10 10 0 0 0 10 10"></path><g class="terminal ">
<path d="M 431.5 249 h 0.0"></path><path d="M 485.5 249 h 0.0"></path><rect height="22" rx="10" ry="10" width="54.0" x="431.5" y="238"></rect><text x="458.5" y="253">"pn"</text></g><path d="M 411.5 219 a 10 10 0 0 1 10 10 v 40 a 10 10 0 0 0 10 10"></path><g class="terminal ">
<path d="M 431.5 279 h 0.0"></path><path d="M 494.0 279 h 0.0"></path><rect height="22" rx="10" ry="10" width="62.5" x="431.5" y="268"></rect><text x="462.75" y="283">"pro"</text></g><path d="M 411.5 219 a 10 10 0 0 1 10 10 v 70 a 10 10 0 0 0 10 10"></path><g class="terminal ">
<path d="M 431.5 309 h 0.0"></path><path d="M 485.5 309 h 0.0"></path><rect height="22" rx="10" ry="10" width="54.0" x="431.5" y="298"></rect><text x="458.5" y="313">"qt"</text></g><path d="M 411.5 219 a 10 10 0 0 1 10 10 v 100 a 10 10 0 0 0 10 10"></path><g class="terminal ">
<path d="M 431.5 339 h 0.0"></path><path d="M 485.5 339 h 0.0"></path><rect height="22" rx="10" ry="10" width="54.0" x="431.5" y="328"></rect><text x="458.5" y="343">"rq"</text></g><path d="M 411.5 219 a 10 10 0 0 1 10 10 v 130 a 10 10 0 0 0 10 10"></path><g class="terminal ">
<path d="M 431.5 369 h 0.0"></path><path d="M 494.0 369 h 0.0"></path><rect height="22" rx="10" ry="10" width="62.5" x="431.5" y="358"></rect><text x="462.75" y="373">"sig"</text></g><path d="M 411.5 219 a 10 10 0 0 1 10 10 v 160 a 10 10 0 0 0 10 10"></path><g class="terminal ">
<path d="M 431.5 399 h 0.0"></path><path d="M 494.0 399 h 0.0"></path><rect height="22" rx="10" ry="10" width="62.5" x="431.5" y="388"></rect><text x="462.75" y="403">"sls"</text></g><path d="M 411.5 219 a 10 10 0 0 1 10 10 v 190 a 10 10 0 0 0 10 10"></path><g class="terminal ">
<path d="M 431.5 429 h 0.0"></path><path d="M 485.5 429 h 0.0"></path><rect height="22" rx="10" ry="10" width="54.0" x="431.5" y="418"></rect><text x="458.5" y="433">"tl"</text></g><path d="M 411.5 219 a 10 10 0 0 1 10 10 v 220 a 10 10 0 0 0 10 10"></path><g class="terminal ">
<path d="M 431.5 459 h 0.0"></path><path d="M 485.5 459 h 0.0"></path><rect height="22" rx="10" ry="10" width="54.0" x="431.5" y="448"></rect><text x="458.5" y="463">"wg"</text></g></g><path d="M 514.0 100 a 10 10 0 0 1 10 10 v 99 a 10 10 0 0 0 10 10"></path><g>
<path d="M 534.0 219 h 0.0"></path><path d="M 534.0 219 a 10 10 0 0 0 10 -10 v -10 a 10 10 0 0 1 10 -10"></path><g class="terminal ">
<path d="M 554.0 189 h 0.0"></path><path d="M 608.0 189 h 0.0"></path><rect height="22" rx="10" ry="10" width="54.0" x="554.0" y="178"></rect><text x="581.0" y="193">"wj"</text></g><path d="M 534.0 219 a 10 10 0 0 0 10 -10 v -40 a 10 10 0 0 1 10 -10"></path><g class="terminal ">
<path d="M 554.0 159 h 0.0"></path><path d="M 608.0 159 h 0.0"></path><rect height="22" rx="10" ry="10" width="54.0" x="554.0" y="148"></rect><text x="581.0" y="163">"wa"</text></g><path d="M 534.0 219 a 10 10 0 0 0 10 -10 v -70 a 10 10 0 0 1 10 -10"></path><g class="terminal ">
<path d="M 554.0 129 h 0.0"></path><path d="M 608.0 129 h 0.0"></path><rect height="22" rx="10" ry="10" width="54.0" x="554.0" y="118"></rect><text x="581.0" y="133">"wh"</text></g><path d="M 534.0 219 h 20"></path><g class="terminal ">
<path d="M 554.0 219 h 0.0"></path><path d="M 608.0 219 h 0.0"></path><rect height="22" rx="10" ry="10" width="54.0" x="554.0" y="208"></rect><text x="581.0" y="223">"xt"</text></g><path d="M 534.0 219 a 10 10 0 0 1 10 10 v 10 a 10 10 0 0 0 10 10"></path><g class="terminal ">
<path d="M 554.0 249 h 0.0"></path><path d="M 616.5 249 h 0.0"></path><rect height="22" rx="10" ry="10" width="62.5" x="554.0" y="238"></rect><text x="585.25" y="253">"jmp"</text></g><path d="M 534.0 219 a 10 10 0 0 1 10 10 v 40 a 10 10 0 0 0 10 10"></path><g class="terminal ">
<path d="M 554.0 279 h 0.0"></path><path d="M 608.0 279 h 0.0"></path><rect height="22" rx="10" ry="10" width="54.0" x="554.0" y="268"></rect><text x="581.0" y="283">"no"</text></g><path d="M 534.0 219 a 10 10 0 0 1 10 10 v 70 a 10 10 0 0 0 10 10"></path><g class="terminal ">
<path d="M 554.0 309 h 0.0"></path><path d="M 608.0 309 h 0.0"></path><rect height="22" rx="10" ry="10" width="54.0" x="554.0" y="298"></rect><text x="581.0" y="313">"it"</text></g><path d="M 534.0 219 a 10 10 0 0 1 10 10 v 100 a 10 10 0 0 0 10 10"></path><g class="terminal ">
<path d="M 554.0 339 h 0.0"></path><path d="M 625.0 339 h 0.0"></path><rect height="22" rx="10" ry="10" width="71.0" x="554.0" y="328"></rect><text x="589.5" y="343">"bdit"</text></g><path d="M 534.0 219 a 10 10 0 0 1 10 10 v 130 a 10 10 0 0 0 10 10"></path><g class="terminal ">
<path d="M 554.0 369 h 0.0"></path><path d="M 608.0 369 h 0.0"></path><rect height="22" rx="10" ry="10" width="54.0" x="554.0" y="358"></rect><text x="581.0" y="373">"bd"</text></g><path d="M 534.0 219 a 10 10 0 0 1 10 10 v 160 a 10 10 0 0 0 10 10"></path><g class="terminal ">
<path d="M 554.0 399 h 0.0"></path><path d="M 608.0 399 h 0.0"></path><rect height="22" rx="10" ry="10" width="54.0" x="554.0" y="388"></rect><text x="581.0" y="403">"em"</text></g><path d="M 534.0 219 a 10 10 0 0 1 10 10 v 190 a 10 10 0 0 0 10 10"></path><g class="terminal ">
<path d="M 554.0 429 h 0.0"></path><path d="M 608.0 429 h 0.0"></path><rect height="22" rx="10" ry="10" width="54.0" x="554.0" y="418"></rect><text x="581.0" y="433">"sc"</text></g><path d="M 534.0 219 a 10 10 0 0 1 10 10 v 220 a 10 10 0 0 0 10 10"></path><g class="terminal ">
<path d="M 554.0 459 h 0.0"></path><path d="M 616.5 459 h 0.0"></path><rect height="22" rx="10" ry="10" width="62.5" x="554.0" y="448"></rect><text x="585.25" y="463">"sup"</text></g></g></g></g><path d="M 161.0 506 a 10 10 0 0 0 10 -10 v -405 a 10 10 0 0 1 10 -10"></path><g>
<path d="M 181.0 81 h 0.0"></path><path d="M 351.5 81 h 0.0"></path><g class="terminal ">
<path d="M 181.0 81 h 0.0"></path><path d="M 277.5 81 h 0.0"></path><rect height="22" rx="10" ry="10" width="96.5" x="181.0" y="70"></rect><text x="229.25" y="85">@&#95;default</text></g><path d="M 277.5 81 h 10"></path><path d="M 287.5 81 h 10"></path><g class="terminal ">
<path d="M 297.5 81 h 0.0"></path><path d="M 351.5 81 h 0.0"></path><rect height="22" rx="10" ry="10" width="54.0" x="297.5" y="70"></rect><text x="324.5" y="85">TEXT</text></g></g><path d="M 161.0 506 a 10 10 0 0 0 10 -10 v -435 a 10 10 0 0 1 10 -10"></path><g>
<path d="M 181.0 51 h 0.0"></path><path d="M 292.0 51 h 0.0"></path><g class="terminal ">
<path d="M 181.0 51 h 0.0"></path><path d="M 218.0 51 h 0.0"></path><rect height="22" rx="10" ry="10" width="37.0" x="181.0" y="40"></rect><text x="199.5" y="55">@&#42;</text></g><path d="M 218.0 51 h 10"></path><path d="M 228.0 51 h 10"></path><g class="terminal ">
<path d="M 238.0 51 h 0.0"></path><path d="M 292.0 51 h 0.0"></path><rect height="22" rx="10" ry="10" width="54.0" x="238.0" y="40"></rect><text x="265.0" y="55">TEXT</text></g></g><path d="M 161.0 506 h 20"></path><g>
<path d="M 181.0 506 h 220.0"></path><path d="M 495.0 506 h 220.0"></path><g>
<path d="M 401.0 506 h 0.0"></path><path d="M 495.0 506 h 0.0"></path><path d="M 401.0 506 h 20"></path><g>
<path d="M 421.0 506 h 54.0"></path></g><path d="M 475.0 506 h 20"></path><path d="M 401.0 506 a 10 10 0 0 1 10 10 v 0 a 10 10 0 0 0 10 10"></path><g class="terminal ">
<path d="M 421.0 526 h 0.0"></path><path d="M 475.0 526 h 0.0"></path><rect height="22" rx="10" ry="10" width="54.0" x="421.0" y="515"></rect><text x="448.0" y="530">TEXT</text></g><path d="M 475.0 526 a 10 10 0 0 0 10 -10 v 0 a 10 10 0 0 1 10 -10"></path></g></g><path d="M 715.0 506 h 20"></path><path d="M 161.0 506 a 10 10 0 0 1 10 10 v 68 a 10 10 0 0 0 10 10"></path><g>
<path d="M 181.0 594 h 66.25"></path><path d="M 648.75 594 h 66.25"></path><g class="terminal ">
<path d="M 247.25 594 h 0.0"></path><path d="M 301.25 594 h 0.0"></path><rect height="22" rx="10" ry="10" width="54.0" x="247.25" y="583"></rect><text x="274.25" y="598">TEXT</text></g><path d="M 301.25 594 h 10"></path><path d="M 311.25 594 h 10"></path><g>
<path d="M 321.25 594 h 0.0"></path><path d="M 648.75 594 h 0.0"></path><path d="M 321.25 594 a 10 10 0 0 0 10 -10 v -9 a 10 10 0 0 1 10 -10"></path><g>
<path d="M 341.25 565 h 287.5"></path></g><path d="M 628.75 565 a 10 10 0 0 1 10 10 v 9 a 10 10 0 0 0 10 10"></path><path d="M 321.25 594 h 20"></path><g>
<path d="M 341.25 594 h 0.0"></path><path d="M 628.75 594 h 0.0"></path><path d="M 341.25 594 h 10"></path><g>
<path d="M 351.25 594 h 0.0"></path><path d="M 618.75 594 h 0.0"></path><path d="M 351.25 594 h 20"></path><g class="non-terminal ">
<path d="M 371.25 594 h 65.5"></path><path d="M 533.25 594 h 65.5"></path><rect height="22" width="96.5" x="436.75" y="583"></rect><text x="485.0" y="598">Reference</text></g><path d="M 598.75 594 h 20"></path><path d="M 351.25 594 a 10 10 0 0 1 10 10 v 10 a 10 10 0 0 0 10 10"></path><g class="non-terminal ">
<path d="M 371.25 624 h 65.5"></path><path d="M 533.25 624 h 65.5"></path><rect height="22" width="96.5" x="436.75" y="613"></rect><text x="485.0" y="628">CharEmbed</text></g><path d="M 598.75 624 a 10 10 0 0 0 10 -10 v -10 a 10 10 0 0 1 10 -10"></path><path d="M 351.25 594 a 10 10 0 0 1 10 10 v 40 a 10 10 0 0 0 10 10"></path><g class="non-terminal ">
<path d="M 371.25 654 h 65.5"></path><path d="M 533.25 654 h 65.5"></path><rect height="22" width="96.5" x="436.75" y="643"></rect><text x="485.0" y="658">Milestone</text></g><path d="M 598.75 654 a 10 10 0 0 0 10 -10 v -40 a 10 10 0 0 1 10 -10"></path><path d="M 351.25 594 a 10 10 0 0 1 10 10 v 70 a 10 10 0 0 0 10 10"></path><g class="non-terminal ">
<path d="M 371.25 684 h 69.75"></path><path d="M 529.0 684 h 69.75"></path><rect height="22" width="88.0" x="441.0" y="673"></rect><text x="485.0" y="688">Footnote</text></g><path d="M 598.75 684 a 10 10 0 0 0 10 -10 v -70 a 10 10 0 0 1 10 -10"></path><path d="M 351.25 594 a 10 10 0 0 1 10 10 v 110 a 10 10 0 0 0 10 10"></path><g>
<path d="M 371.25 724 h 0.0"></path><path d="M 598.75 724 h 0.0"></path><g class="terminal ">
<path d="M 371.25 724 h 0.0"></path><path d="M 476.25 724 h 0.0"></path><rect height="22" rx="10" ry="10" width="105.0" x="371.25" y="713"></rect><text x="423.75" y="728">&#60;optbreak></text></g><path d="M 476.25 724 h 10"></path><path d="M 486.25 724 h 10"></path><g>
<path d="M 496.25 724 h 0.0"></path><path d="M 598.75 724 h 0.0"></path><path d="M 496.25 724 h 20"></path><g class="terminal ">
<path d="M 516.25 724 h 0.0"></path><path d="M 578.75 724 h 0.0"></path><rect height="22" rx="10" ry="10" width="62.5" x="516.25" y="713"></rect><text x="547.5" y="728">EMPTY</text></g><path d="M 578.75 724 h 20"></path></g></g><path d="M 598.75 724 a 10 10 0 0 0 10 -10 v -110 a 10 10 0 0 1 10 -10"></path><path d="M 351.25 594 a 10 10 0 0 1 10 10 v 150 a 10 10 0 0 0 10 10"></path><g class="terminal ">
<path d="M 371.25 764 h 86.75"></path><path d="M 512.0 764 h 86.75"></path><rect height="22" rx="10" ry="10" width="54.0" x="458.0" y="753"></rect><text x="485.0" y="768">TEXT</text></g><path d="M 598.75 764 a 10 10 0 0 0 10 -10 v -150 a 10 10 0 0 1 10 -10"></path></g><path d="M 618.75 594 h 10"></path><path d="M 351.25 594 a 10 10 0 0 0 -10 10 v 179 a 10 10 0 0 0 10 10"></path><g>
<path d="M 351.25 793 h 267.5"></path></g><path d="M 618.75 793 a 10 10 0 0 0 10 -10 v -179 a 10 10 0 0 0 -10 -10"></path></g><path d="M 628.75 594 h 20"></path></g></g><path d="M 715.0 594 a 10 10 0 0 0 10 -10 v -68 a 10 10 0 0 1 10 -10"></path></g></g><path d="M 735.0 506 h 20"></path><path d="M 50.0 506 a 10 10 0 0 1 10 10 v 306 a 10 10 0 0 0 10 10"></path><g class="non-terminal ">
<path d="M 70.0 832 h 263.0"></path><path d="M 472.0 832 h 263.0"></path><rect height="22" width="139.0" x="333.0" y="821"></rect><text x="402.5" y="836">CharWithAttrib</text></g><path d="M 735.0 832 a 10 10 0 0 0 10 -10 v -306 a 10 10 0 0 1 10 -10"></path></g></g><path d="M 755.0 506 h 10"></path><path d="M 765.0 506 h 20 m 0 -10 v 20"></path></g></svg>