<svg class="railroad-diagram" height="542" viewBox="0 0 1418.0 542" width="1418.0" xmlns="http://www.w3.org/2000/svg" xmlns:xlink="http://www.w3.org/1999/xlink">
<g transform="translate(.5 .5)">
<style>/* <![CDATA[ */

    svg.railroad-diagram {
        background-color:hsl(30,20%,95%);
    }
    svg.railroad-diagram path {
        stroke-width: 2;
        stroke: black;
        fill: none;
    }
    svg.railroad-diagram text {
        font-size: 12px;
        text-anchor: middle;
        font-family: DejaVu Sans;
    }
    svg.railroad-diagram text.label {
        text-anchor:start;
    }
    svg.railroad-diagram text.comment {
        font-family: DejaVu Sans;
        font-size: 14px;
    }
    svg.railroad-diagram rect{
        stroke-width: 2;
        stroke:black;
        fill: rgb(210, 255, 210);
    }
    svg.railroad-diagram rect.group-box {
        stroke: gray;
        stroke-dasharray: 10 5;
        fill: none;
    }
    .terminal {
        font-family: DejaVu Sans;
    }

/* ]]> */
</style><g>
<path d="M 20 163 v 20 m 0 -10 h 20"></path></g><path d="M 40 173 h 10"></path><g>
<path d="M 50 173 h 0.0"></path><path d="M 1368.0 173 h 0.0"></path><g>
<path d="M 50.0 173 h 0.0"></path><path d="M 1368.0 173 h 0.0"></path><path d="M 50.0 173 h 20"></path><g>
<path d="M 70.0 173 h 69.5"></path><path d="M 1278.5 173 h 69.5"></path><g>
<path d="M 139.5 173 h 0.0"></path><g>
<path d="M 139.5 173 h 10.0"></path><path d="M 930.0 173 h 10.0"></path><g class="terminal ">
<path d="M 149.5 173 h 0.0"></path><path d="M 203.5 173 h 0.0"></path><rect height="22" rx="10" ry="10" width="54.0" x="149.5" y="162"></rect><text x="176.5" y="177">'\+'</text></g><path d="M 203.5 173 h 10"></path><path d="M 213.5 173 h 10"></path><g>
<path d="M 223.5 173 h 0.0"></path><path d="M 839.0 173 h 0.0"></path><rect class="group-box" height="314" rx="10" ry="10" width="615.5" x="223.5" y="46"></rect><g>
<path d="M 223.5 173 h 10.0"></path><path d="M 829.0 173 h 10.0"></path><g>
<path d="M 233.5 173 h 0.0"></path><path d="M 829.0 173 h 0.0"></path><path d="M 233.5 173 a 10 10 0 0 0 10 -10 v -99 a 10 10 0 0 1 10 -10 h 414.5"></path><path d="M 403.0 352 h 406.0 a 10 10 0 0 0 10 -10 v -159 a 10 10 0 0 1 10 -10"></path><path d="M 233.5 173 h 10"></path><g>
<path d="M 243.5 173 h 10.0"></path><path d="M 373.0 173 h 10.0"></path><path d="M 253.5 173 a 10 10 0 0 0 10 -10 v -10 a 10 10 0 0 1 10 -10"></path><g class="terminal ">
<path d="M 273.5 143 h 12.75"></path><path d="M 340.25 143 h 12.75"></path><rect height="22" rx="10" ry="10" width="54.0" x="286.25" y="132"></rect><text x="313.25" y="147">"ca"</text></g><path d="M 353.0 143 a 10 10 0 0 1 10 10 v 10 a 10 10 0 0 0 10 10"></path><path d="M 253.5 173 a 10 10 0 0 0 10 -10 v -40 a 10 10 0 0 1 10 -10"></path><g class="terminal ">
<path d="M 273.5 113 h 12.75"></path><path d="M 340.25 113 h 12.75"></path><rect height="22" rx="10" ry="10" width="54.0" x="286.25" y="102"></rect><text x="313.25" y="117">"vp"</text></g><path d="M 353.0 113 a 10 10 0 0 1 10 10 v 40 a 10 10 0 0 0 10 10"></path><path d="M 253.5 173 a 10 10 0 0 0 10 -10 v -70 a 10 10 0 0 1 10 -10"></path><g class="terminal ">
<path d="M 273.5 83 h 12.75"></path><path d="M 340.25 83 h 12.75"></path><rect height="22" rx="10" ry="10" width="54.0" x="286.25" y="72"></rect><text x="313.25" y="87">"va"</text></g><path d="M 353.0 83 a 10 10 0 0 1 10 10 v 70 a 10 10 0 0 0 10 10"></path><path d="M 253.5 173 h 20"></path><g class="terminal ">
<path d="M 273.5 173 h 8.5"></path><path d="M 344.5 173 h 8.5"></path><rect height="22" rx="10" ry="10" width="62.5" x="282.0" y="162"></rect><text x="313.25" y="177">"qac"</text></g><path d="M 353.0 173 h 20"></path><path d="M 253.5 173 a 10 10 0 0 1 10 10 v 10 a 10 10 0 0 0 10 10"></path><g class="terminal ">
<path d="M 273.5 203 h 12.75"></path><path d="M 340.25 203 h 12.75"></path><rect height="22" rx="10" ry="10" width="54.0" x="286.25" y="192"></rect><text x="313.25" y="207">"qs"</text></g><path d="M 353.0 203 a 10 10 0 0 0 10 -10 v -10 a 10 10 0 0 1 10 -10"></path><path d="M 253.5 173 a 10 10 0 0 1 10 10 v 40 a 10 10 0 0 0 10 10"></path><g class="terminal ">
<path d="M 273.5 233 h 8.5"></path><path d="M 344.5 233 h 8.5"></path><rect height="22" rx="10" ry="10" width="62.5" x="282.0" y="222"></rect><text x="313.25" y="237">"add"</text></g><path d="M 353.0 233 a 10 10 0 0 0 10 -10 v -40 a 10 10 0 0 1 10 -10"></path><path d="M 253.5 173 a 10 10 0 0 1 10 10 v 70 a 10 10 0 0 0 10 10"></path><g class="terminal ">
<path d="M 273.5 263 h 0.0"></path><path d="M 353.0 263 h 0.0"></path><rect height="22" rx="10" ry="10" width="79.5" x="273.5" y="252"></rect><text x="313.25" y="267">"addpn"</text></g><path d="M 353.0 263 a 10 10 0 0 0 10 -10 v -70 a 10 10 0 0 1 10 -10"></path><path d="M 253.5 173 a 10 10 0 0 1 10 10 v 100 a 10 10 0 0 0 10 10"></path><g class="terminal ">
<path d="M 273.5 293 h 12.75"></path><path d="M 340.25 293 h 12.75"></path><rect height="22" rx="10" ry="10" width="54.0" x="286.25" y="282"></rect><text x="313.25" y="297">"bk"</text></g><path d="M 353.0 293 a 10 10 0 0 0 10 -10 v -100 a 10 10 0 0 1 10 -10"></path><path d="M 253.5 173 a 10 10 0 0 1 10 10 v 130 a 10 10 0 0 0 10 10"></path><g class="terminal ">
<path d="M 273.5 323 h 12.75"></path><path d="M 340.25 323 h 12.75"></path><rect height="22" rx="10" ry="10" width="54.0" x="286.25" y="312"></rect><text x="313.25" y="327">"dc"</text></g><path d="M 353.0 323 a 10 10 0 0 0 10 -10 v -130 a 10 10 0 0 1 10 -10"></path></g><path d="M 383.0 173 a 10 10 0 0 1 10 10 v 159 a 10 10 0 0 0 10 10"></path><path d="M 383.0 54 a 10 10 0 0 1 10 10 v 99 a 10 10 0 0 0 10 10"></path><g>
<path d="M 403.0 173 h 10.0"></path><path d="M 515.5 173 h 10.0"></path><path d="M 413.0 173 a 10 10 0 0 0 10 -10 v -10 a 10 10 0 0 1 10 -10"></path><g class="terminal ">
<path d="M 433.0 143 h 8.5"></path><path d="M 487.0 143 h 8.5"></path><rect height="22" rx="10" ry="10" width="45.5" x="441.5" y="132"></rect><text x="464.25" y="147">"k"</text></g><path d="M 495.5 143 a 10 10 0 0 1 10 10 v 10 a 10 10 0 0 0 10 10"></path><path d="M 413.0 173 a 10 10 0 0 0 10 -10 v -40 a 10 10 0 0 1 10 -10"></path><g class="terminal ">
<path d="M 433.0 113 h 4.25"></path><path d="M 491.25 113 h 4.25"></path><rect height="22" rx="10" ry="10" width="54.0" x="437.25" y="102"></rect><text x="464.25" y="117">"fm"</text></g><path d="M 495.5 113 a 10 10 0 0 1 10 10 v 40 a 10 10 0 0 0 10 10"></path><path d="M 413.0 173 a 10 10 0 0 0 10 -10 v -70 a 10 10 0 0 1 10 -10"></path><g class="terminal ">
<path d="M 433.0 83 h 0.0"></path><path d="M 495.5 83 h 0.0"></path><rect height="22" rx="10" ry="10" width="62.5" x="433.0" y="72"></rect><text x="464.25" y="87">"efm"</text></g><path d="M 495.5 83 a 10 10 0 0 1 10 10 v 70 a 10 10 0 0 0 10 10"></path><path d="M 413.0 173 h 20"></path><g class="terminal ">
<path d="M 433.0 173 h 4.25"></path><path d="M 491.25 173 h 4.25"></path><rect height="22" rx="10" ry="10" width="54.0" x="437.25" y="162"></rect><text x="464.25" y="177">"nd"</text></g><path d="M 495.5 173 h 20"></path><path d="M 413.0 173 a 10 10 0 0 1 10 10 v 10 a 10 10 0 0 0 10 10"></path><g class="terminal ">
<path d="M 433.0 203 h 0.0"></path><path d="M 495.5 203 h 0.0"></path><rect height="22" rx="10" ry="10" width="62.5" x="433.0" y="192"></rect><text x="464.25" y="207">"ndx"</text></g><path d="M 495.5 203 a 10 10 0 0 0 10 -10 v -10 a 10 10 0 0 1 10 -10"></path><path d="M 413.0 173 a 10 10 0 0 1 10 10 v 40 a 10 10 0 0 0 10 10"></path><g class="terminal ">
<path d="M 433.0 233 h 0.0"></path><path d="M 495.5 233 h 0.0"></path><rect height="22" rx="10" ry="10" width="62.5" x="433.0" y="222"></rect><text x="464.25" y="237">"ord"</text></g><path d="M 495.5 233 a 10 10 0 0 0 10 -10 v -40 a 10 10 0 0 1 10 -10"></path><path d="M 413.0 173 a 10 10 0 0 1 10 10 v 70 a 10 10 0 0 0 10 10"></path><g class="terminal ">
<path d="M 433.0 263 h 0.0"></path><path d="M 495.5 263 h 0.0"></path><rect height="22" rx="10" ry="10" width="62.5" x="433.0" y="252"></rect><text x="464.25" y="267">"png"</text></g><path d="M 495.5 263 a 10 10 0 0 0 10 -10 v -70 a 10 10 0 0 1 10 -10"></path><path d="M 413.0 173 a 10 10 0 0 1 10 10 v 100 a 10 10 0 0 0 10 10"></path><g class="terminal ">
<path d="M 433.0 293 h 4.25"></path><path d="M 491.25 293 h 4.25"></path><rect height="22" rx="10" ry="10" width="54.0" x="437.25" y="282"></rect><text x="464.25" y="297">"pn"</text></g><path d="M 495.5 293 a 10 10 0 0 0 10 -10 v -100 a 10 10 0 0 1 10 -10"></path><path d="M 413.0 173 a 10 10 0 0 1 10 10 v 130 a 10 10 0 0 0 10 10"></path><g class="terminal ">
<path d="M 433.0 323 h 0.0"></path><path d="M 495.5 323 h 0.0"></path><rect height="22" rx="10" ry="10" width="62.5" x="433.0" y="312"></rect><text x="464.25" y="327">"pro"</text></g><path d="M 495.5 323 a 10 10 0 0 0 10 -10 v -130 a 10 10 0 0 1 10 -10"></path></g><path d="M 525.5 173 a 10 10 0 0 1 10 10 v 159 a 10 10 0 0 0 10 10"></path><path d="M 525.5 54 a 10 10 0 0 1 10 10 v 99 a 10 10 0 0 0 10 10"></path><g>
<path d="M 545.5 173 h 10.0"></path><path d="M 658.0 173 h 10.0"></path><path d="M 555.5 173 a 10 10 0 0 0 10 -10 v -10 a 10 10 0 0 1 10 -10"></path><g class="terminal ">
<path d="M 575.5 143 h 0.0"></path><path d="M 638.0 143 h 0.0"></path><rect height="22" rx="10" ry="10" width="62.5" x="575.5" y="132"></rect><text x="606.75" y="147">"sig"</text></g><path d="M 638.0 143 a 10 10 0 0 1 10 10 v 10 a 10 10 0 0 0 10 10"></path><path d="M 555.5 173 a 10 10 0 0 0 10 -10 v -40 a 10 10 0 0 1 10 -10"></path><g class="terminal ">
<path d="M 575.5 113 h 4.25"></path><path d="M 633.75 113 h 4.25"></path><rect height="22" rx="10" ry="10" width="54.0" x="579.75" y="102"></rect><text x="606.75" y="117">"rq"</text></g><path d="M 638.0 113 a 10 10 0 0 1 10 10 v 40 a 10 10 0 0 0 10 10"></path><path d="M 555.5 173 a 10 10 0 0 0 10 -10 v -70 a 10 10 0 0 1 10 -10"></path><g class="terminal ">
<path d="M 575.5 83 h 4.25"></path><path d="M 633.75 83 h 4.25"></path><rect height="22" rx="10" ry="10" width="54.0" x="579.75" y="72"></rect><text x="606.75" y="87">"qt"</text></g><path d="M 638.0 83 a 10 10 0 0 1 10 10 v 70 a 10 10 0 0 0 10 10"></path><path d="M 555.5 173 h 20"></path><g class="terminal ">
<path d="M 575.5 173 h 0.0"></path><path d="M 638.0 173 h 0.0"></path><rect height="22" rx="10" ry="10" width="62.5" x="575.5" y="162"></rect><text x="606.75" y="177">"sls"</text></g><path d="M 638.0 173 h 20"></path><path d="M 555.5 173 a 10 10 0 0 1 10 10 v 10 a 10 10 0 0 0 10 10"></path><g class="terminal ">
<path d="M 575.5 203 h 4.25"></path><path d="M 633.75 203 h 4.25"></path><rect height="22" rx="10" ry="10" width="54.0" x="579.75" y="192"></rect><text x="606.75" y="207">"tl"</text></g><path d="M 638.0 203 a 10 10 0 0 0 10 -10 v -10 a 10 10 0 0 1 10 -10"></path><path d="M 555.5 173 a 10 10 0 0 1 10 10 v 40 a 10 10 0 0 0 10 10"></path><g class="terminal ">
<path d="M 575.5 233 h 4.25"></path><path d="M 633.75 233 h 4.25"></path><rect height="22" rx="10" ry="10" width="54.0" x="579.75" y="222"></rect><text x="606.75" y="237">"wg"</text></g><path d="M 638.0 233 a 10 10 0 0 0 10 -10 v -40 a 10 10 0 0 1 10 -10"></path><path d="M 555.5 173 a 10 10 0 0 1 10 10 v 70 a 10 10 0 0 0 10 10"></path><g class="terminal ">
<path d="M 575.5 263 h 4.25"></path><path d="M 633.75 263 h 4.25"></path><rect height="22" rx="10" ry="10" width="54.0" x="579.75" y="252"></rect><text x="606.75" y="267">"wh"</text></g><path d="M 638.0 263 a 10 10 0 0 0 10 -10 v -70 a 10 10 0 0 1 10 -10"></path><path d="M 555.5 173 a 10 10 0 0 1 10 10 v 100 a 10 10 0 0 0 10 10"></path><g class="terminal ">
<path d="M 575.5 293 h 4.25"></path><path d="M 633.75 293 h 4.25"></path><rect height="22" rx="10" ry="10" width="54.0" x="579.75" y="282"></rect><text x="606.75" y="297">"wa"</text></g><path d="M 638.0 293 a 10 10 0 0 0 10 -10 v -100 a 10 10 0 0 1 10 -10"></path><path d="M 555.5 173 a 10 10 0 0 1 10 10 v 130 a 10 10 0 0 0 10 10"></path><g class="terminal ">
<path d="M 575.5 323 h 4.25"></path><path d="M 633.75 323 h 4.25"></path><rect height="22" rx="10" ry="10" width="54.0" x="579.75" y="312"></rect><text x="606.75" y="327">"wj"</text></g><path d="M 638.0 323 a 10 10 0 0 0 10 -10 v -130 a 10 10 0 0 1 10 -10"></path></g><path d="M 668.0 173 a 10 10 0 0 1 10 10 v 159 a 10 10 0 0 0 10 10"></path><path d="M 668.0 54 a 10 10 0 0 1 10 10 v 99 a 10 10 0 0 0 10 10"></path><g>
<path d="M 688.0 173 h 10.0"></path><path d="M 809.0 173 h 10.0"></path><path d="M 698.0 173 a 10 10 0 0 0 10 -10 v -10 a 10 10 0 0 1 10 -10"></path><g class="terminal ">
<path d="M 718.0 143 h 8.5"></path><path d="M 780.5 143 h 8.5"></path><rect height="22" rx="10" ry="10" width="54.0" x="726.5" y="132"></rect><text x="753.5" y="147">"no"</text></g><path d="M 789.0 143 a 10 10 0 0 1 10 10 v 10 a 10 10 0 0 0 10 10"></path><path d="M 698.0 173 a 10 10 0 0 0 10 -10 v -40 a 10 10 0 0 1 10 -10"></path><g class="terminal ">
<path d="M 718.0 113 h 4.25"></path><path d="M 784.75 113 h 4.25"></path><rect height="22" rx="10" ry="10" width="62.5" x="722.25" y="102"></rect><text x="753.5" y="117">"jmp"</text></g><path d="M 789.0 113 a 10 10 0 0 1 10 10 v 40 a 10 10 0 0 0 10 10"></path><path d="M 698.0 173 a 10 10 0 0 0 10 -10 v -70 a 10 10 0 0 1 10 -10"></path><g class="terminal ">
<path d="M 718.0 83 h 8.5"></path><path d="M 780.5 83 h 8.5"></path><rect height="22" rx="10" ry="10" width="54.0" x="726.5" y="72"></rect><text x="753.5" y="87">"xt"</text></g><path d="M 789.0 83 a 10 10 0 0 1 10 10 v 70 a 10 10 0 0 0 10 10"></path><path d="M 698.0 173 h 20"></path><g class="terminal ">
<path d="M 718.0 173 h 8.5"></path><path d="M 780.5 173 h 8.5"></path><rect height="22" rx="10" ry="10" width="54.0" x="726.5" y="162"></rect><text x="753.5" y="177">"it"</text></g><path d="M 789.0 173 h 20"></path><path d="M 698.0 173 a 10 10 0 0 1 10 10 v 10 a 10 10 0 0 0 10 10"></path><g class="terminal ">
<path d="M 718.0 203 h 0.0"></path><path d="M 789.0 203 h 0.0"></path><rect height="22" rx="10" ry="10" width="71.0" x="718.0" y="192"></rect><text x="753.5" y="207">"bdit"</text></g><path d="M 789.0 203 a 10 10 0 0 0 10 -10 v -10 a 10 10 0 0 1 10 -10"></path><path d="M 698.0 173 a 10 10 0 0 1 10 10 v 40 a 10 10 0 0 0 10 10"></path><g class="terminal ">
<path d="M 718.0 233 h 8.5"></path><path d="M 780.5 233 h 8.5"></path><rect height="22" rx="10" ry="10" width="54.0" x="726.5" y="222"></rect><text x="753.5" y="237">"bd"</text></g><path d="M 789.0 233 a 10 10 0 0 0 10 -10 v -40 a 10 10 0 0 1 10 -10"></path><path d="M 698.0 173 a 10 10 0 0 1 10 10 v 70 a 10 10 0 0 0 10 10"></path><g class="terminal ">
<path d="M 718.0 263 h 8.5"></path><path d="M 780.5 263 h 8.5"></path><rect height="22" rx="10" ry="10" width="54.0" x="726.5" y="252"></rect><text x="753.5" y="267">"em"</text></g><path d="M 789.0 263 a 10 10 0 0 0 10 -10 v -70 a 10 10 0 0 1 10 -10"></path><path d="M 698.0 173 a 10 10 0 0 1 10 10 v 100 a 10 10 0 0 0 10 10"></path><g class="terminal ">
<path d="M 718.0 293 h 8.5"></path><path d="M 780.5 293 h 8.5"></path><rect height="22" rx="10" ry="10" width="54.0" x="726.5" y="282"></rect><text x="753.5" y="297">"sc"</text></g><path d="M 789.0 293 a 10 10 0 0 0 10 -10 v -100 a 10 10 0 0 1 10 -10"></path><path d="M 698.0 173 a 10 10 0 0 1 10 10 v 130 a 10 10 0 0 0 10 10"></path><g class="terminal ">
<path d="M 718.0 323 h 4.25"></path><path d="M 784.75 323 h 4.25"></path><rect height="22" rx="10" ry="10" width="62.5" x="722.25" y="312"></rect><text x="753.5" y="327">"sup"</text></g><path d="M 789.0 323 a 10 10 0 0 0 10 -10 v -130 a 10 10 0 0 1 10 -10"></path></g><path d="M 819.0 173 h 10"></path></g></g><g class="non-terminal ">
<path d="M 223.5 38 h 0.0"></path><path d="M 240.5 38 h 0.0"></path><text class="comment" x="232.0" y="43">➋</text></g></g><path d="M 839.0 173 h 10"></path><path d="M 849.0 173 h 10"></path><g class="terminal ">
<path d="M 859.0 173 h 0.0"></path><path d="M 930.0 173 h 0.0"></path><rect height="22" rx="10" ry="10" width="71.0" x="859.0" y="162"></rect><text x="894.5" y="177">TAGEND</text></g></g><path d="M 940.0 173 h 0.0"></path></g><path d="M 940.0 173 h 10"></path><path d="M 950.0 173 h 10"></path><g class="non-terminal ">
<path d="M 960.0 173 h 0.0"></path><path d="M 1073.5 173 h 0.0"></path><rect height="22" width="113.5" x="960.0" y="162"></rect><text x="1016.75" y="177">CharContent</text></g><path d="M 1073.5 173 h 10"></path><path d="M 1083.5 173 h 10"></path><g class="terminal ">
<path d="M 1093.5 173 h 0.0"></path><path d="M 1147.5 173 h 0.0"></path><rect height="22" rx="10" ry="10" width="54.0" x="1093.5" y="162"></rect><text x="1120.5" y="177">'\+'</text></g><path d="M 1147.5 173 h 10"></path><path d="M 1157.5 173 h 10"></path><g class="terminal ">
<path d="M 1167.5 173 h 0.0"></path><path d="M 1213.0 173 h 0.0"></path><rect height="22" rx="10" ry="10" width="45.5" x="1167.5" y="162"></rect><text x="1190.25" y="177">⇐ ➒</text></g><path d="M 1213.0 173 h 10"></path><path d="M 1223.0 173 h 10"></path><g class="terminal ">
<path d="M 1233.0 173 h 0.0"></path><path d="M 1278.5 173 h 0.0"></path><rect height="22" rx="10" ry="10" width="45.5" x="1233.0" y="162"></rect><text x="1255.75" y="177">'&#42;'</text></g></g><path d="M 1348.0 173 h 20"></path><path d="M 50.0 173 a 10 10 0 0 1 10 10 v 220 a 10 10 0 0 0 10 10"></path><g>
<path d="M 70.0 413 h 0.0"></path><path d="M 1348.0 413 h 0.0"></path><g class="terminal ">
<path d="M 70.0 413 h 0.0"></path><path d="M 124.0 413 h 0.0"></path><rect height="22" rx="10" ry="10" width="54.0" x="70.0" y="402"></rect><text x="97.0" y="417">'\+'</text></g><path d="M 124.0 413 h 10"></path><path d="M 134.0 413 h 10"></path><g>
<path d="M 144.0 413 h 0.0"></path><path d="M 266.5 413 h 0.0"></path><rect class="group-box" height="118" rx="10" ry="10" width="122.5" x="144.0" y="384"></rect><g>
<path d="M 144.0 413 h 10.0"></path><path d="M 256.5 413 h 10.0"></path><g>
<path d="M 154.0 413 h 0.0"></path><path d="M 256.5 413 h 0.0"></path><path d="M 154.0 413 h 20"></path><g class="terminal ">
<path d="M 174.0 413 h 8.5"></path><path d="M 228.0 413 h 8.5"></path><rect height="22" rx="10" ry="10" width="45.5" x="182.5" y="402"></rect><text x="205.25" y="417">"w"</text></g><path d="M 236.5 413 h 20"></path><path d="M 154.0 413 a 10 10 0 0 1 10 10 v 10 a 10 10 0 0 0 10 10"></path><g class="terminal ">
<path d="M 174.0 443 h 4.25"></path><path d="M 232.25 443 h 4.25"></path><rect height="22" rx="10" ry="10" width="54.0" x="178.25" y="432"></rect><text x="205.25" y="447">"rb"</text></g><path d="M 236.5 443 a 10 10 0 0 0 10 -10 v -10 a 10 10 0 0 1 10 -10"></path><path d="M 154.0 413 a 10 10 0 0 1 10 10 v 40 a 10 10 0 0 0 10 10"></path><g class="terminal ">
<path d="M 174.0 473 h 0.0"></path><path d="M 236.5 473 h 0.0"></path><rect height="22" rx="10" ry="10" width="62.5" x="174.0" y="462"></rect><text x="205.25" y="477">"fig"</text></g><path d="M 236.5 473 a 10 10 0 0 0 10 -10 v -40 a 10 10 0 0 1 10 -10"></path></g></g><g class="non-terminal ">
<path d="M 144.0 376 h 0.0"></path><path d="M 161.0 376 h 0.0"></path><text class="comment" x="152.5" y="381">➋</text></g></g><path d="M 266.5 413 h 10"></path><path d="M 276.5 413 h 10"></path><g class="terminal ">
<path d="M 286.5 413 h 0.0"></path><path d="M 357.5 413 h 0.0"></path><rect height="22" rx="10" ry="10" width="71.0" x="286.5" y="402"></rect><text x="322.0" y="417">TAGEND</text></g><path d="M 357.5 413 h 10"></path><path d="M 367.5 413 h 10"></path><g>
<path d="M 377.5 413 h 0.0"></path><path d="M 929.5 413 h 0.0"></path><path d="M 377.5 413 h 20"></path><g>
<path d="M 397.5 413 h 512.0"></path></g><path d="M 909.5 413 h 20"></path><path d="M 377.5 413 a 10 10 0 0 1 10 10 v 9 a 10 10 0 0 0 10 10"></path><g>
<path d="M 397.5 442 h 0.0"></path><path d="M 909.5 442 h 0.0"></path><g class="terminal ">
<path d="M 397.5 442 h 0.0"></path><path d="M 443.0 442 h 0.0"></path><rect height="22" rx="10" ry="10" width="45.5" x="397.5" y="431"></rect><text x="420.25" y="446">'|'</text></g><path d="M 443.0 442 h 10"></path><path d="M 453.0 442 h 10"></path><g>
<path d="M 463.0 442 h 0.0"></path><path d="M 909.5 442 h 0.0"></path><path d="M 463.0 442 h 20"></path><g>
<path d="M 483.0 442 h 129.5"></path><path d="M 760.0 442 h 129.5"></path><g class="terminal ">
<path d="M 612.5 442 h 0.0"></path><path d="M 760.0 442 h 0.0"></path><rect height="22" rx="10" ry="10" width="147.5" x="612.5" y="431"></rect><text x="686.25" y="446">/&#91;^\\=&#93;&#42;(?=\\)/</text></g></g><path d="M 889.5 442 h 20"></path><path d="M 463.0 442 a 10 10 0 0 1 10 10 v 10 a 10 10 0 0 0 10 10"></path><g>
<path d="M 483.0 472 h 0.0"></path><path d="M 889.5 472 h 0.0"></path><path d="M 483.0 472 h 10"></path><g>
<path d="M 493.0 472 h 0.0"></path><path d="M 879.5 472 h 0.0"></path><g class="terminal ">
<path d="M 493.0 472 h 0.0"></path><path d="M 598.0 472 h 0.0"></path><rect height="22" rx="10" ry="10" width="105.0" x="493.0" y="461"></rect><text x="545.5" y="476">/&#91;^\\="&#93;+/</text></g><path d="M 598.0 472 h 10"></path><path d="M 608.0 472 h 10"></path><g class="terminal ">
<path d="M 618.0 472 h 0.0"></path><path d="M 672.0 472 h 0.0"></path><rect height="22" rx="10" ry="10" width="54.0" x="618.0" y="461"></rect><text x="645.0" y="476">'="'</text></g><path d="M 672.0 472 h 10"></path><path d="M 682.0 472 h 10"></path><g class="terminal ">
<path d="M 692.0 472 h 0.0"></path><path d="M 788.5 472 h 0.0"></path><rect height="22" rx="10" ry="10" width="96.5" x="692.0" y="461"></rect><text x="740.25" y="476">/&#91;^\\"&#93;+/</text></g><path d="M 788.5 472 h 10"></path><path d="M 798.5 472 h 10"></path><g class="terminal ">
<path d="M 808.5 472 h 0.0"></path><path d="M 879.5 472 h 0.0"></path><rect height="22" rx="10" ry="10" width="71.0" x="808.5" y="461"></rect><text x="844.0" y="476">/"\s&#42;/</text></g></g><path d="M 879.5 472 h 10"></path><path d="M 493.0 472 a 10 10 0 0 0 -10 10 v 0 a 10 10 0 0 0 10 10"></path><g>
<path d="M 493.0 492 h 386.5"></path></g><path d="M 879.5 492 a 10 10 0 0 0 10 -10 v 0 a 10 10 0 0 0 -10 -10"></path></g><path d="M 889.5 472 a 10 10 0 0 0 10 -10 v -10 a 10 10 0 0 1 10 -10"></path></g></g><path d="M 909.5 442 a 10 10 0 0 0 10 -10 v -9 a 10 10 0 0 1 10 -10"></path></g><path d="M 929.5 413 h 10"></path><path d="M 939.5 413 h 10"></path><g>
<path d="M 949.5 413 h 0.0"></path><path d="M 1143.0 413 h 0.0"></path><path d="M 949.5 413 h 20"></path><g>
<path d="M 969.5 413 h 153.5"></path></g><path d="M 1123.0 413 h 20"></path><path d="M 949.5 413 a 10 10 0 0 1 10 10 v 0 a 10 10 0 0 0 10 10"></path><g>
<path d="M 969.5 433 h 0.0"></path><path d="M 1123.0 433 h 0.0"></path><g class="terminal ">
<path d="M 969.5 433 h 0.0"></path><path d="M 1023.5 433 h 0.0"></path><rect height="22" rx="10" ry="10" width="54.0" x="969.5" y="422"></rect><text x="996.5" y="437">TEXT</text></g><path d="M 1023.5 433 h 10"></path><path d="M 1033.5 433 h 10"></path><g class="terminal ">
<path d="M 1043.5 433 h 0.0"></path><path d="M 1123.0 433 h 0.0"></path><rect height="22" rx="10" ry="10" width="79.5" x="1043.5" y="422"></rect><text x="1083.25" y="437">TEXTEND</text></g></g><path d="M 1123.0 433 a 10 10 0 0 0 10 -10 v 0 a 10 10 0 0 1 10 -10"></path></g><path d="M 1143.0 413 h 10"></path><path d="M 1153.0 413 h 10"></path><g class="terminal ">
<path d="M 1163.0 413 h 0.0"></path><path d="M 1217.0 413 h 0.0"></path><rect height="22" rx="10" ry="10" width="54.0" x="1163.0" y="402"></rect><text x="1190.0" y="417">'\+'</text></g><path d="M 1217.0 413 h 10"></path><path d="M 1227.0 413 h 10"></path><g class="terminal ">
<path d="M 1237.0 413 h 0.0"></path><path d="M 1282.5 413 h 0.0"></path><rect height="22" rx="10" ry="10" width="45.5" x="1237.0" y="402"></rect><text x="1259.75" y="417">⇐ ➎</text></g><path d="M 1282.5 413 h 10"></path><path d="M 1292.5 413 h 10"></path><g class="terminal ">
<path d="M 1302.5 413 h 0.0"></path><path d="M 1348.0 413 h 0.0"></path><rect height="22" rx="10" ry="10" width="45.5" x="1302.5" y="402"></rect><text x="1325.25" y="417">'&#42;'</text></g></g><path d="M 1348.0 413 a 10 10 0 0 0 10 -10 v -220 a 10 10 0 0 1 10 -10"></path></g></g><path d="M 1368.0 173 h 10"></path><path d="M 1378.0 173 h 20 m 0 -10 v 20"></path></g></svg>