<svg class="railroad-diagram" height="183" viewBox="0 0 2246.5 183" width="2246.5" xmlns="http://www.w3.org/2000/svg" xmlns:xlink="http://www.w3.org/1999/xlink">
<g transform="translate(.5 .5)">
<style>/* <![CDATA[ */

    svg.railroad-diagram {
        background-color: hsl(30,20%,95%);
    }
    svg.railroad-diagram path {
        stroke-width: 2;
        stroke: black;
        fill: none;
    }
    svg.railroad-diagram text {
        font-size: 12px;
        text-anchor: middle;
        font-family: DejaVu Sans;
    }
    svg.railroad-diagram text.label {
        text-anchor:start;
    }
    svg.railroad-diagram text.comment {
        font-family: DejaVu Sans;
        font-size: 14px;
    }
    svg.railroad-diagram rect{
        stroke-width: 2;
        stroke: black;
        fill: rgb(210, 255, 210);
    }
    svg.railroad-diagram rect.group-box {
        stroke: gray;
        stroke-dasharray: 10 5;
        fill: none;
    }
    .terminal {
        font-family: DejaVu Sans;
    }
    svg.railroad-diagram g.altterminal rect {
        fill: rgb(251, 252, 207)
    }

/* ]]> */
</style><g>
<path d="M 20 55 v 20 m 0 -10 h 20"></path></g><path d="M 40 65 h 10"></path><g>
<path d="M 50 65 h 0.0"></path><path d="M 2196.5 65 h 0.0"></path><g class="terminal ">
<path d="M 50.0 65 h 0.0"></path><path d="M 95.5 65 h 0.0"></path><rect height="22" rx="10" ry="10" width="45.5" x="50.0" y="54"></rect><text x="72.75" y="69">'\'</text></g><path d="M 95.5 65 h 10"></path><path d="M 105.5 65 h 10"></path><g>
<path d="M 115.5 65 h 0.0"></path><path d="M 238.0 65 h 0.0"></path><rect class="group-box" height="118" rx="10" ry="10" width="122.5" x="115.5" y="36"></rect><g>
<path d="M 115.5 65 h 10.0"></path><path d="M 228.0 65 h 10.0"></path><g>
<path d="M 125.5 65 h 0.0"></path><path d="M 228.0 65 h 0.0"></path><path d="M 125.5 65 h 20"></path><g class="terminal ">
<path d="M 145.5 65 h 8.5"></path><path d="M 199.5 65 h 8.5"></path><rect height="22" rx="10" ry="10" width="45.5" x="154.0" y="54"></rect><text x="176.75" y="69">"w"</text></g><path d="M 208.0 65 h 20"></path><path d="M 125.5 65 a 10 10 0 0 1 10 10 v 10 a 10 10 0 0 0 10 10"></path><g class="terminal ">
<path d="M 145.5 95 h 4.25"></path><path d="M 203.75 95 h 4.25"></path><rect height="22" rx="10" ry="10" width="54.0" x="149.75" y="84"></rect><text x="176.75" y="99">"rb"</text></g><path d="M 208.0 95 a 10 10 0 0 0 10 -10 v -10 a 10 10 0 0 1 10 -10"></path><path d="M 125.5 65 a 10 10 0 0 1 10 10 v 40 a 10 10 0 0 0 10 10"></path><g class="terminal ">
<path d="M 145.5 125 h 0.0"></path><path d="M 208.0 125 h 0.0"></path><rect height="22" rx="10" ry="10" width="62.5" x="145.5" y="114"></rect><text x="176.75" y="129">"jmp"</text></g><path d="M 208.0 125 a 10 10 0 0 0 10 -10 v -40 a 10 10 0 0 1 10 -10"></path></g></g><g class="non-terminal ">
<path d="M 115.5 28 h 0.0"></path><path d="M 132.5 28 h 0.0"></path><text class="comment" x="124.0" y="33">➋</text></g></g><path d="M 238.0 65 h 10"></path><path d="M 248.0 65 h 10"></path><g>
<path d="M 258.0 65 h 0.0"></path><path d="M 369.0 65 h 0.0"></path><path d="M 258.0 65 h 20"></path><g class="terminal ">
<path d="M 278.0 65 h 12.75"></path><path d="M 336.25 65 h 12.75"></path><rect height="22" rx="10" ry="10" width="45.5" x="290.75" y="54"></rect><text x="313.5" y="69">' '</text></g><path d="M 349.0 65 h 20"></path><path d="M 258.0 65 a 10 10 0 0 1 10 10 v 10 a 10 10 0 0 0 10 10"></path><g class="terminal altterminal">
<path d="M 278.0 95 h 0.0"></path><path d="M 349.0 95 h 0.0"></path><rect height="22" rx="10" ry="10" width="71.0" x="278.0" y="84"></rect><text x="313.5" y="99">TAGEND</text></g><path d="M 349.0 95 a 10 10 0 0 0 10 -10 v -10 a 10 10 0 0 1 10 -10"></path></g><path d="M 369.0 65 h 10"></path><path d="M 379.0 65 h 10"></path><g>
<path d="M 389.0 65 h 0.0"></path><path d="M 542.5 65 h 0.0"></path><path d="M 389.0 65 h 20"></path><g>
<path d="M 409.0 65 h 113.5"></path></g><path d="M 522.5 65 h 20"></path><path d="M 389.0 65 a 10 10 0 0 1 10 10 v 0 a 10 10 0 0 0 10 10"></path><g class="non-terminal ">
<path d="M 409.0 85 h 0.0"></path><path d="M 522.5 85 h 0.0"></path><rect height="22" width="113.5" x="409.0" y="74"></rect><text x="465.75" y="89">char.closed</text></g><path d="M 522.5 85 a 10 10 0 0 0 10 -10 v 0 a 10 10 0 0 1 10 -10"></path></g><path d="M 542.5 65 h 10"></path><path d="M 552.5 65 h 10"></path><g>
<path d="M 562.5 65 h 0.0"></path><path d="M 767.5 65 h 0.0"></path><path d="M 562.5 65 a 10 10 0 0 0 10 -10 v -9 a 10 10 0 0 1 10 -10"></path><g>
<path d="M 582.5 36 h 165.0"></path></g><path d="M 747.5 36 a 10 10 0 0 1 10 10 v 9 a 10 10 0 0 0 10 10"></path><path d="M 562.5 65 h 20"></path><g>
<path d="M 582.5 65 h 0.0"></path><path d="M 747.5 65 h 0.0"></path><path d="M 582.5 65 h 10"></path><g>
<path d="M 592.5 65 h 0.0"></path><path d="M 737.5 65 h 0.0"></path><g>
<path d="M 592.5 65 h 0.0"></path><path d="M 737.5 65 h 0.0"></path><path d="M 592.5 65 h 20"></path><g class="non-terminal ">
<path d="M 612.5 65 h 4.25"></path><path d="M 713.25 65 h 4.25"></path><rect height="22" width="96.5" x="616.75" y="54"></rect><text x="665.0" y="69">CharEmbed</text></g><path d="M 717.5 65 h 20"></path><path d="M 592.5 65 a 10 10 0 0 1 10 10 v 10 a 10 10 0 0 0 10 10"></path><g>
<path d="M 612.5 95 h 0.0"></path><path d="M 717.5 95 h 0.0"></path><g class="terminal ">
<path d="M 612.5 95 h 0.0"></path><path d="M 717.5 95 h 0.0"></path><rect height="22" rx="10" ry="10" width="105.0" x="612.5" y="84"></rect><text x="665.0" y="99">TEXTATTRIB</text></g></g><path d="M 717.5 95 a 10 10 0 0 0 10 -10 v -10 a 10 10 0 0 1 10 -10"></path></g></g><path d="M 737.5 65 h 10"></path><path d="M 592.5 65 a 10 10 0 0 0 -10 10 v 39 a 10 10 0 0 0 10 10"></path><g>
<path d="M 592.5 124 h 145.0"></path></g><path d="M 737.5 124 a 10 10 0 0 0 10 -10 v -39 a 10 10 0 0 0 -10 -10"></path></g><path d="M 747.5 65 h 20"></path></g><path d="M 767.5 65 h 10"></path><path d="M 777.5 65 h 10"></path><g>
<path d="M 787.5 65 h 0.0"></path><path d="M 2000.0 65 h 0.0"></path><path d="M 787.5 65 h 20"></path><g>
<path d="M 807.5 65 h 1172.5"></path></g><path d="M 1980.0 65 h 20"></path><path d="M 787.5 65 a 10 10 0 0 1 10 10 v 9 a 10 10 0 0 0 10 10"></path><g>
<path d="M 807.5 94 h 0.0"></path><path d="M 1980.0 94 h 0.0"></path><g>
<path d="M 807.5 94 h 0.0"></path><path d="M 901.5 94 h 0.0"></path><path d="M 807.5 94 h 20"></path><g class="terminal ">
<path d="M 827.5 94 h 4.25"></path><path d="M 877.25 94 h 4.25"></path><rect height="22" rx="10" ry="10" width="45.5" x="831.75" y="83"></rect><text x="854.5" y="98">'|'</text></g><path d="M 881.5 94 h 20"></path><path d="M 807.5 94 a 10 10 0 0 1 10 10 v 10 a 10 10 0 0 0 10 10"></path><g class="terminal altterminal">
<path d="M 827.5 124 h 0.0"></path><path d="M 881.5 124 h 0.0"></path><rect height="22" rx="10" ry="10" width="54.0" x="827.5" y="113"></rect><text x="854.5" y="128">PIPE</text></g><path d="M 881.5 124 a 10 10 0 0 0 10 -10 v -10 a 10 10 0 0 1 10 -10"></path></g><path d="M 901.5 94 h 10"></path><path d="M 911.5 94 h 10"></path><g>
<path d="M 921.5 94 h 0.0"></path><path d="M 1980.0 94 h 0.0"></path><path d="M 921.5 94 h 10"></path><g>
<path d="M 931.5 94 h 0.0"></path><path d="M 1970.0 94 h 0.0"></path><g>
<path d="M 931.5 94 h 0.0"></path><path d="M 1970.0 94 h 0.0"></path><path d="M 931.5 94 h 20"></path><g class="terminal ">
<path d="M 951.5 94 h 417.0"></path><path d="M 1533.0 94 h 417.0"></path><rect height="22" rx="10" ry="10" width="164.5" x="1368.5" y="83"></rect><text x="1450.75" y="98">/&#91;^\\\n=&#93;+(?=\\)/</text></g><path d="M 1950.0 94 h 20"></path><path d="M 931.5 94 a 10 10 0 0 1 10 10 v 10 a 10 10 0 0 0 10 10"></path><g>
<path d="M 951.5 124 h 0.0"></path><path d="M 1950.0 124 h 0.0"></path><g class="terminal ">
<path d="M 951.5 124 h 0.0"></path><path d="M 1073.5 124 h 0.0"></path><rect height="22" rx="10" ry="10" width="122.0" x="951.5" y="113"></rect><text x="1012.5" y="128">/&#91;^\\\n="&#93;+/</text></g><path d="M 1073.5 124 h 10"></path><path d="M 1083.5 124 h 10"></path><g class="terminal ">
<path d="M 1093.5 124 h 0.0"></path><path d="M 1147.5 124 h 0.0"></path><rect height="22" rx="10" ry="10" width="54.0" x="1093.5" y="113"></rect><text x="1120.5" y="128">'="'</text></g><path d="M 1147.5 124 h 10"></path><path d="M 1157.5 124 h 10"></path><g class="terminal ">
<path d="M 1167.5 124 h 0.0"></path><path d="M 1281.0 124 h 0.0"></path><rect height="22" rx="10" ry="10" width="113.5" x="1167.5" y="113"></rect><text x="1224.25" y="128">/&#91;^\\\n"&#93;&#42;/</text></g><path d="M 1281.0 124 h 10"></path><path d="M 1291.0 124 h 10"></path><g class="terminal ">
<path d="M 1301.0 124 h 0.0"></path><path d="M 1950.0 124 h 0.0"></path><rect height="22" rx="10" ry="10" width="649.0" x="1301.0" y="113"></rect><text x="1625.5" y="128">/"&#91;\u0009-\u000D\u0020\u00A0\u1680\u2000-\u200B\u2028\u2029\u202F\u205F&#93;&#42;/</text></g></g><path d="M 1950.0 124 a 10 10 0 0 0 10 -10 v -10 a 10 10 0 0 1 10 -10"></path></g></g><path d="M 1970.0 94 h 10"></path><path d="M 931.5 94 a 10 10 0 0 0 -10 10 v 39 a 10 10 0 0 0 10 10"></path><g>
<path d="M 931.5 153 h 1038.5"></path></g><path d="M 1970.0 153 a 10 10 0 0 0 10 -10 v -39 a 10 10 0 0 0 -10 -10"></path></g></g><path d="M 1980.0 94 a 10 10 0 0 0 10 -10 v -9 a 10 10 0 0 1 10 -10"></path></g><path d="M 2000.0 65 h 10"></path><path d="M 2010.0 65 h 10"></path><g class="terminal ">
<path d="M 2020.0 65 h 0.0"></path><path d="M 2065.5 65 h 0.0"></path><rect height="22" rx="10" ry="10" width="45.5" x="2020.0" y="54"></rect><text x="2042.75" y="69">'\'</text></g><path d="M 2065.5 65 h 10"></path><path d="M 2075.5 65 h 10"></path><g class="terminal ">
<path d="M 2085.5 65 h 0.0"></path><path d="M 2131.0 65 h 0.0"></path><rect height="22" rx="10" ry="10" width="45.5" x="2085.5" y="54"></rect><text x="2108.25" y="69">⇐ ➕</text></g><path d="M 2131.0 65 h 10"></path><path d="M 2141.0 65 h 10"></path><g class="terminal ">
<path d="M 2151.0 65 h 0.0"></path><path d="M 2196.5 65 h 0.0"></path><rect height="22" rx="10" ry="10" width="45.5" x="2151.0" y="54"></rect><text x="2173.75" y="69">'&#42;'</text></g></g><path d="M 2196.5 65 h 10"></path><path d="M 2206.5 65 h 20 m 0 -10 v 20"></path></g></svg>