<svg class="railroad-diagram" height="825" viewBox="0 0 952.0 825" width="952.0" xmlns="http://www.w3.org/2000/svg" xmlns:xlink="http://www.w3.org/1999/xlink">
<g transform="translate(.5 .5)">
<style>/* <![CDATA[ */

    svg.railroad-diagram {
        background-color: hsl(30,20%,95%);
    }
    svg.railroad-diagram path {
        stroke-width: 2;
        stroke: black;
        fill: none;
    }
    svg.railroad-diagram text {
        font-size: 12px;
        text-anchor: middle;
        font-family: DejaVu Sans;
    }
    svg.railroad-diagram text.label {
        text-anchor:start;
    }
    svg.railroad-diagram text.comment {
        font-family: DejaVu Sans;
        font-size: 14px;
    }
    svg.railroad-diagram rect{
        stroke-width: 2;
        stroke: black;
        fill: rgb(210, 255, 210);
    }
    svg.railroad-diagram rect.group-box {
        stroke: gray;
        stroke-dasharray: 10 5;
        fill: none;
    }
    .terminal {
        font-family: DejaVu Sans;
    }
    svg.railroad-diagram g.altterminal rect {
        fill: rgb(251, 252, 207)
    }

/* ]]> */
</style><g>
<path d="M 20 153 v 20 m 0 -10 h 20"></path></g><path d="M 40 163 h 10"></path><g>
<path d="M 50 163 h 0.0"></path><path d="M 902.0 794 h 0.0"></path><g>
<path d="M 50.0 163 h 0.0"></path><path d="M 50.0 163 h 10"></path><g>
<path d="M 60.0 163 h 10.0"></path><path d="M 882.0 163 h 10.0"></path><g class="terminal ">
<path d="M 70.0 163 h 0.0"></path><path d="M 124.0 163 h 0.0"></path><rect height="22" rx="10" ry="10" width="54.0" x="70.0" y="152"></rect><text x="97.0" y="167">'\\'</text></g><path d="M 124.0 163 h 10"></path><path d="M 134.0 163 h 10"></path><g>
<path d="M 144.0 163 h 0.0"></path><path d="M 751.0 163 h 0.0"></path><rect class="group-box" height="404" rx="10" ry="10" width="607.0" x="144.0" y="36"></rect><g>
<path d="M 144.0 163 h 10.0"></path><path d="M 741.0 163 h 10.0"></path><g>
<path d="M 154.0 163 h 0.0"></path><path d="M 741.0 163 h 0.0"></path><path d="M 154.0 163 a 10 10 0 0 0 10 -10 v -99 a 10 10 0 0 1 10 -10 h 423.0"></path><path d="M 323.5 432 h 397.5 a 10 10 0 0 0 10 -10 v -249 a 10 10 0 0 1 10 -10"></path><path d="M 154.0 163 h 10"></path><g>
<path d="M 164.0 163 h 10.0"></path><path d="M 293.5 163 h 10.0"></path><path d="M 174.0 163 a 10 10 0 0 0 10 -10 v -10 a 10 10 0 0 1 10 -10"></path><g class="terminal ">
<path d="M 194.0 133 h 12.75"></path><path d="M 260.75 133 h 12.75"></path><rect height="22" rx="10" ry="10" width="54.0" x="206.75" y="122"></rect><text x="233.75" y="137">"qs"</text></g><path d="M 273.5 133 a 10 10 0 0 1 10 10 v 10 a 10 10 0 0 0 10 10"></path><path d="M 174.0 163 a 10 10 0 0 0 10 -10 v -40 a 10 10 0 0 1 10 -10"></path><g class="terminal ">
<path d="M 194.0 103 h 8.5"></path><path d="M 265.0 103 h 8.5"></path><rect height="22" rx="10" ry="10" width="62.5" x="202.5" y="92"></rect><text x="233.75" y="107">"qac"</text></g><path d="M 273.5 103 a 10 10 0 0 1 10 10 v 40 a 10 10 0 0 0 10 10"></path><path d="M 174.0 163 a 10 10 0 0 0 10 -10 v -70 a 10 10 0 0 1 10 -10"></path><g class="terminal ">
<path d="M 194.0 73 h 12.75"></path><path d="M 260.75 73 h 12.75"></path><rect height="22" rx="10" ry="10" width="54.0" x="206.75" y="62"></rect><text x="233.75" y="77">"vp"</text></g><path d="M 273.5 73 a 10 10 0 0 1 10 10 v 70 a 10 10 0 0 0 10 10"></path><path d="M 174.0 163 h 20"></path><g class="terminal ">
<path d="M 194.0 163 h 8.5"></path><path d="M 265.0 163 h 8.5"></path><rect height="22" rx="10" ry="10" width="62.5" x="202.5" y="152"></rect><text x="233.75" y="167">"add"</text></g><path d="M 273.5 163 h 20"></path><path d="M 174.0 163 a 10 10 0 0 1 10 10 v 10 a 10 10 0 0 0 10 10"></path><g class="terminal ">
<path d="M 194.0 193 h 0.0"></path><path d="M 273.5 193 h 0.0"></path><rect height="22" rx="10" ry="10" width="79.5" x="194.0" y="182"></rect><text x="233.75" y="197">"addpn"</text></g><path d="M 273.5 193 a 10 10 0 0 0 10 -10 v -10 a 10 10 0 0 1 10 -10"></path><path d="M 174.0 163 a 10 10 0 0 1 10 10 v 40 a 10 10 0 0 0 10 10"></path><g class="terminal ">
<path d="M 194.0 223 h 12.75"></path><path d="M 260.75 223 h 12.75"></path><rect height="22" rx="10" ry="10" width="54.0" x="206.75" y="212"></rect><text x="233.75" y="227">"bk"</text></g><path d="M 273.5 223 a 10 10 0 0 0 10 -10 v -40 a 10 10 0 0 1 10 -10"></path><path d="M 174.0 163 a 10 10 0 0 1 10 10 v 70 a 10 10 0 0 0 10 10"></path><g class="terminal ">
<path d="M 194.0 253 h 12.75"></path><path d="M 260.75 253 h 12.75"></path><rect height="22" rx="10" ry="10" width="54.0" x="206.75" y="242"></rect><text x="233.75" y="257">"dc"</text></g><path d="M 273.5 253 a 10 10 0 0 0 10 -10 v -70 a 10 10 0 0 1 10 -10"></path><path d="M 174.0 163 a 10 10 0 0 1 10 10 v 100 a 10 10 0 0 0 10 10"></path><g class="terminal ">
<path d="M 194.0 283 h 8.5"></path><path d="M 265.0 283 h 8.5"></path><rect height="22" rx="10" ry="10" width="62.5" x="202.5" y="272"></rect><text x="233.75" y="287">"efm"</text></g><path d="M 273.5 283 a 10 10 0 0 0 10 -10 v -100 a 10 10 0 0 1 10 -10"></path><path d="M 174.0 163 a 10 10 0 0 1 10 10 v 130 a 10 10 0 0 0 10 10"></path><g class="terminal ">
<path d="M 194.0 313 h 12.75"></path><path d="M 260.75 313 h 12.75"></path><rect height="22" rx="10" ry="10" width="54.0" x="206.75" y="302"></rect><text x="233.75" y="317">"fm"</text></g><path d="M 273.5 313 a 10 10 0 0 0 10 -10 v -130 a 10 10 0 0 1 10 -10"></path><path d="M 174.0 163 a 10 10 0 0 1 10 10 v 160 a 10 10 0 0 0 10 10"></path><g class="terminal ">
<path d="M 194.0 343 h 12.75"></path><path d="M 260.75 343 h 12.75"></path><rect height="22" rx="10" ry="10" width="54.0" x="206.75" y="332"></rect><text x="233.75" y="347">"fv"</text></g><path d="M 273.5 343 a 10 10 0 0 0 10 -10 v -160 a 10 10 0 0 1 10 -10"></path><path d="M 174.0 163 a 10 10 0 0 1 10 10 v 190 a 10 10 0 0 0 10 10"></path><g class="terminal ">
<path d="M 194.0 373 h 17.0"></path><path d="M 256.5 373 h 17.0"></path><rect height="22" rx="10" ry="10" width="45.5" x="211.0" y="362"></rect><text x="233.75" y="377">"k"</text></g><path d="M 273.5 373 a 10 10 0 0 0 10 -10 v -190 a 10 10 0 0 1 10 -10"></path><path d="M 174.0 163 a 10 10 0 0 1 10 10 v 220 a 10 10 0 0 0 10 10"></path><g class="terminal ">
<path d="M 194.0 403 h 12.75"></path><path d="M 260.75 403 h 12.75"></path><rect height="22" rx="10" ry="10" width="54.0" x="206.75" y="392"></rect><text x="233.75" y="407">"nd"</text></g><path d="M 273.5 403 a 10 10 0 0 0 10 -10 v -220 a 10 10 0 0 1 10 -10"></path></g><path d="M 303.5 163 a 10 10 0 0 1 10 10 v 249 a 10 10 0 0 0 10 10"></path><path d="M 303.5 44 a 10 10 0 0 1 10 10 v 99 a 10 10 0 0 0 10 10"></path><g>
<path d="M 323.5 163 h 10.0"></path><path d="M 436.0 163 h 10.0"></path><path d="M 333.5 163 a 10 10 0 0 0 10 -10 v -10 a 10 10 0 0 1 10 -10"></path><g class="terminal ">
<path d="M 353.5 133 h 4.25"></path><path d="M 411.75 133 h 4.25"></path><rect height="22" rx="10" ry="10" width="54.0" x="357.75" y="122"></rect><text x="384.75" y="137">"pl"</text></g><path d="M 416.0 133 a 10 10 0 0 1 10 10 v 10 a 10 10 0 0 0 10 10"></path><path d="M 333.5 163 a 10 10 0 0 0 10 -10 v -40 a 10 10 0 0 1 10 -10"></path><g class="terminal ">
<path d="M 353.5 103 h 0.0"></path><path d="M 416.0 103 h 0.0"></path><rect height="22" rx="10" ry="10" width="62.5" x="353.5" y="92"></rect><text x="384.75" y="107">"ord"</text></g><path d="M 416.0 103 a 10 10 0 0 1 10 10 v 40 a 10 10 0 0 0 10 10"></path><path d="M 333.5 163 a 10 10 0 0 0 10 -10 v -70 a 10 10 0 0 1 10 -10"></path><g class="terminal ">
<path d="M 353.5 73 h 0.0"></path><path d="M 416.0 73 h 0.0"></path><rect height="22" rx="10" ry="10" width="62.5" x="353.5" y="62"></rect><text x="384.75" y="77">"ndx"</text></g><path d="M 416.0 73 a 10 10 0 0 1 10 10 v 70 a 10 10 0 0 0 10 10"></path><path d="M 333.5 163 h 20"></path><g class="terminal ">
<path d="M 353.5 163 h 0.0"></path><path d="M 416.0 163 h 0.0"></path><rect height="22" rx="10" ry="10" width="62.5" x="353.5" y="152"></rect><text x="384.75" y="167">"png"</text></g><path d="M 416.0 163 h 20"></path><path d="M 333.5 163 a 10 10 0 0 1 10 10 v 10 a 10 10 0 0 0 10 10"></path><g class="terminal ">
<path d="M 353.5 193 h 4.25"></path><path d="M 411.75 193 h 4.25"></path><rect height="22" rx="10" ry="10" width="54.0" x="357.75" y="182"></rect><text x="384.75" y="197">"pn"</text></g><path d="M 416.0 193 a 10 10 0 0 0 10 -10 v -10 a 10 10 0 0 1 10 -10"></path><path d="M 333.5 163 a 10 10 0 0 1 10 10 v 40 a 10 10 0 0 0 10 10"></path><g class="terminal ">
<path d="M 353.5 223 h 0.0"></path><path d="M 416.0 223 h 0.0"></path><rect height="22" rx="10" ry="10" width="62.5" x="353.5" y="212"></rect><text x="384.75" y="227">"pro"</text></g><path d="M 416.0 223 a 10 10 0 0 0 10 -10 v -40 a 10 10 0 0 1 10 -10"></path><path d="M 333.5 163 a 10 10 0 0 1 10 10 v 70 a 10 10 0 0 0 10 10"></path><g class="terminal ">
<path d="M 353.5 253 h 4.25"></path><path d="M 411.75 253 h 4.25"></path><rect height="22" rx="10" ry="10" width="54.0" x="357.75" y="242"></rect><text x="384.75" y="257">"qt"</text></g><path d="M 416.0 253 a 10 10 0 0 0 10 -10 v -70 a 10 10 0 0 1 10 -10"></path><path d="M 333.5 163 a 10 10 0 0 1 10 10 v 100 a 10 10 0 0 0 10 10"></path><g class="terminal ">
<path d="M 353.5 283 h 4.25"></path><path d="M 411.75 283 h 4.25"></path><rect height="22" rx="10" ry="10" width="54.0" x="357.75" y="272"></rect><text x="384.75" y="287">"rq"</text></g><path d="M 416.0 283 a 10 10 0 0 0 10 -10 v -100 a 10 10 0 0 1 10 -10"></path><path d="M 333.5 163 a 10 10 0 0 1 10 10 v 130 a 10 10 0 0 0 10 10"></path><g class="terminal ">
<path d="M 353.5 313 h 0.0"></path><path d="M 416.0 313 h 0.0"></path><rect height="22" rx="10" ry="10" width="62.5" x="353.5" y="302"></rect><text x="384.75" y="317">"sig"</text></g><path d="M 416.0 313 a 10 10 0 0 0 10 -10 v -130 a 10 10 0 0 1 10 -10"></path><path d="M 333.5 163 a 10 10 0 0 1 10 10 v 160 a 10 10 0 0 0 10 10"></path><g class="terminal ">
<path d="M 353.5 343 h 0.0"></path><path d="M 416.0 343 h 0.0"></path><rect height="22" rx="10" ry="10" width="62.5" x="353.5" y="332"></rect><text x="384.75" y="347">"sls"</text></g><path d="M 416.0 343 a 10 10 0 0 0 10 -10 v -160 a 10 10 0 0 1 10 -10"></path><path d="M 333.5 163 a 10 10 0 0 1 10 10 v 190 a 10 10 0 0 0 10 10"></path><g class="terminal ">
<path d="M 353.5 373 h 4.25"></path><path d="M 411.75 373 h 4.25"></path><rect height="22" rx="10" ry="10" width="54.0" x="357.75" y="362"></rect><text x="384.75" y="377">"tl"</text></g><path d="M 416.0 373 a 10 10 0 0 0 10 -10 v -190 a 10 10 0 0 1 10 -10"></path><path d="M 333.5 163 a 10 10 0 0 1 10 10 v 220 a 10 10 0 0 0 10 10"></path><g class="terminal ">
<path d="M 353.5 403 h 4.25"></path><path d="M 411.75 403 h 4.25"></path><rect height="22" rx="10" ry="10" width="54.0" x="357.75" y="392"></rect><text x="384.75" y="407">"wg"</text></g><path d="M 416.0 403 a 10 10 0 0 0 10 -10 v -220 a 10 10 0 0 1 10 -10"></path></g><path d="M 446.0 163 a 10 10 0 0 1 10 10 v 249 a 10 10 0 0 0 10 10"></path><path d="M 446.0 44 a 10 10 0 0 1 10 10 v 99 a 10 10 0 0 0 10 10"></path><g>
<path d="M 466.0 163 h 10.0"></path><path d="M 587.0 163 h 10.0"></path><path d="M 476.0 163 a 10 10 0 0 0 10 -10 v -10 a 10 10 0 0 1 10 -10"></path><g class="terminal ">
<path d="M 496.0 133 h 8.5"></path><path d="M 558.5 133 h 8.5"></path><rect height="22" rx="10" ry="10" width="54.0" x="504.5" y="122"></rect><text x="531.5" y="137">"wj"</text></g><path d="M 567.0 133 a 10 10 0 0 1 10 10 v 10 a 10 10 0 0 0 10 10"></path><path d="M 476.0 163 a 10 10 0 0 0 10 -10 v -40 a 10 10 0 0 1 10 -10"></path><g class="terminal ">
<path d="M 496.0 103 h 8.5"></path><path d="M 558.5 103 h 8.5"></path><rect height="22" rx="10" ry="10" width="54.0" x="504.5" y="92"></rect><text x="531.5" y="107">"wa"</text></g><path d="M 567.0 103 a 10 10 0 0 1 10 10 v 40 a 10 10 0 0 0 10 10"></path><path d="M 476.0 163 a 10 10 0 0 0 10 -10 v -70 a 10 10 0 0 1 10 -10"></path><g class="terminal ">
<path d="M 496.0 73 h 8.5"></path><path d="M 558.5 73 h 8.5"></path><rect height="22" rx="10" ry="10" width="54.0" x="504.5" y="62"></rect><text x="531.5" y="77">"wh"</text></g><path d="M 567.0 73 a 10 10 0 0 1 10 10 v 70 a 10 10 0 0 0 10 10"></path><path d="M 476.0 163 h 20"></path><g class="terminal ">
<path d="M 496.0 163 h 8.5"></path><path d="M 558.5 163 h 8.5"></path><rect height="22" rx="10" ry="10" width="54.0" x="504.5" y="152"></rect><text x="531.5" y="167">"wl"</text></g><path d="M 567.0 163 h 20"></path><path d="M 476.0 163 a 10 10 0 0 1 10 10 v 10 a 10 10 0 0 0 10 10"></path><g class="terminal ">
<path d="M 496.0 193 h 4.25"></path><path d="M 562.75 193 h 4.25"></path><rect height="22" rx="10" ry="10" width="62.5" x="500.25" y="182"></rect><text x="531.5" y="197">"jmp"</text></g><path d="M 567.0 193 a 10 10 0 0 0 10 -10 v -10 a 10 10 0 0 1 10 -10"></path><path d="M 476.0 163 a 10 10 0 0 1 10 10 v 40 a 10 10 0 0 0 10 10"></path><g class="terminal ">
<path d="M 496.0 223 h 8.5"></path><path d="M 558.5 223 h 8.5"></path><rect height="22" rx="10" ry="10" width="54.0" x="504.5" y="212"></rect><text x="531.5" y="227">"no"</text></g><path d="M 567.0 223 a 10 10 0 0 0 10 -10 v -40 a 10 10 0 0 1 10 -10"></path><path d="M 476.0 163 a 10 10 0 0 1 10 10 v 70 a 10 10 0 0 0 10 10"></path><g class="terminal ">
<path d="M 496.0 253 h 8.5"></path><path d="M 558.5 253 h 8.5"></path><rect height="22" rx="10" ry="10" width="54.0" x="504.5" y="242"></rect><text x="531.5" y="257">"it"</text></g><path d="M 567.0 253 a 10 10 0 0 0 10 -10 v -70 a 10 10 0 0 1 10 -10"></path><path d="M 476.0 163 a 10 10 0 0 1 10 10 v 100 a 10 10 0 0 0 10 10"></path><g class="terminal ">
<path d="M 496.0 283 h 0.0"></path><path d="M 567.0 283 h 0.0"></path><rect height="22" rx="10" ry="10" width="71.0" x="496.0" y="272"></rect><text x="531.5" y="287">"bdit"</text></g><path d="M 567.0 283 a 10 10 0 0 0 10 -10 v -100 a 10 10 0 0 1 10 -10"></path><path d="M 476.0 163 a 10 10 0 0 1 10 10 v 130 a 10 10 0 0 0 10 10"></path><g class="terminal ">
<path d="M 496.0 313 h 8.5"></path><path d="M 558.5 313 h 8.5"></path><rect height="22" rx="10" ry="10" width="54.0" x="504.5" y="302"></rect><text x="531.5" y="317">"bd"</text></g><path d="M 567.0 313 a 10 10 0 0 0 10 -10 v -130 a 10 10 0 0 1 10 -10"></path><path d="M 476.0 163 a 10 10 0 0 1 10 10 v 160 a 10 10 0 0 0 10 10"></path><g class="terminal ">
<path d="M 496.0 343 h 8.5"></path><path d="M 558.5 343 h 8.5"></path><rect height="22" rx="10" ry="10" width="54.0" x="504.5" y="332"></rect><text x="531.5" y="347">"em"</text></g><path d="M 567.0 343 a 10 10 0 0 0 10 -10 v -160 a 10 10 0 0 1 10 -10"></path><path d="M 476.0 163 a 10 10 0 0 1 10 10 v 190 a 10 10 0 0 0 10 10"></path><g class="terminal ">
<path d="M 496.0 373 h 8.5"></path><path d="M 558.5 373 h 8.5"></path><rect height="22" rx="10" ry="10" width="54.0" x="504.5" y="362"></rect><text x="531.5" y="377">"sc"</text></g><path d="M 567.0 373 a 10 10 0 0 0 10 -10 v -190 a 10 10 0 0 1 10 -10"></path><path d="M 476.0 163 a 10 10 0 0 1 10 10 v 220 a 10 10 0 0 0 10 10"></path><g class="terminal ">
<path d="M 496.0 403 h 4.25"></path><path d="M 562.75 403 h 4.25"></path><rect height="22" rx="10" ry="10" width="62.5" x="500.25" y="392"></rect><text x="531.5" y="407">"sup"</text></g><path d="M 567.0 403 a 10 10 0 0 0 10 -10 v -220 a 10 10 0 0 1 10 -10"></path></g><path d="M 597.0 163 a 10 10 0 0 1 10 10 v 249 a 10 10 0 0 0 10 10"></path><path d="M 597.0 44 a 10 10 0 0 1 10 10 v 99 a 10 10 0 0 0 10 10"></path><g>
<path d="M 617.0 163 h 10.0"></path><path d="M 721.0 163 h 10.0"></path><path d="M 627.0 163 a 10 10 0 0 0 10 -10 v -10 a 10 10 0 0 1 10 -10"></path><g class="terminal ">
<path d="M 647.0 133 h 0.0"></path><path d="M 701.0 133 h 0.0"></path><rect height="22" rx="10" ry="10" width="54.0" x="647.0" y="122"></rect><text x="674.0" y="137">"rb"</text></g><path d="M 701.0 133 a 10 10 0 0 1 10 10 v 10 a 10 10 0 0 0 10 10"></path><path d="M 627.0 163 a 10 10 0 0 0 10 -10 v -40 a 10 10 0 0 1 10 -10"></path><g class="terminal ">
<path d="M 647.0 103 h 4.25"></path><path d="M 696.75 103 h 4.25"></path><rect height="22" rx="10" ry="10" width="45.5" x="651.25" y="92"></rect><text x="674.0" y="107">"w"</text></g><path d="M 701.0 103 a 10 10 0 0 1 10 10 v 40 a 10 10 0 0 0 10 10"></path><path d="M 627.0 163 a 10 10 0 0 0 10 -10 v -70 a 10 10 0 0 1 10 -10"></path><g class="terminal ">
<path d="M 647.0 73 h 0.0"></path><path d="M 701.0 73 h 0.0"></path><rect height="22" rx="10" ry="10" width="54.0" x="647.0" y="62"></rect><text x="674.0" y="77">"xt"</text></g><path d="M 701.0 73 a 10 10 0 0 1 10 10 v 70 a 10 10 0 0 0 10 10"></path><path d="M 627.0 163 h 20"></path><g class="terminal ">
<path d="M 647.0 163 h 0.0"></path><path d="M 701.0 163 h 0.0"></path><rect height="22" rx="10" ry="10" width="54.0" x="647.0" y="152"></rect><text x="674.0" y="167">"ta"</text></g><path d="M 701.0 163 h 20"></path><path d="M 627.0 163 a 10 10 0 0 1 10 10 v 10 a 10 10 0 0 0 10 10"></path><g class="terminal ">
<path d="M 647.0 193 h 0.0"></path><path d="M 701.0 193 h 0.0"></path><rect height="22" rx="10" ry="10" width="54.0" x="647.0" y="182"></rect><text x="674.0" y="197">"xt"</text></g><path d="M 701.0 193 a 10 10 0 0 0 10 -10 v -10 a 10 10 0 0 1 10 -10"></path></g><path d="M 731.0 163 h 10"></path></g></g><g class="non-terminal ">
<path d="M 144.0 28 h 0.0"></path><path d="M 161.0 28 h 0.0"></path><text class="comment" x="152.5" y="33">➋</text></g></g><path d="M 751.0 163 h 10"></path><path d="M 761.0 163 h 10"></path><g>
<path d="M 771.0 163 h 0.0"></path><path d="M 882.0 163 h 0.0"></path><path d="M 771.0 163 h 20"></path><g class="terminal ">
<path d="M 791.0 163 h 12.75"></path><path d="M 849.25 163 h 12.75"></path><rect height="22" rx="10" ry="10" width="45.5" x="803.75" y="152"></rect><text x="826.5" y="167">' '</text></g><path d="M 862.0 163 h 20"></path><path d="M 771.0 163 a 10 10 0 0 1 10 10 v 10 a 10 10 0 0 0 10 10"></path><g class="terminal altterminal">
<path d="M 791.0 193 h 0.0"></path><path d="M 862.0 193 h 0.0"></path><rect height="22" rx="10" ry="10" width="71.0" x="791.0" y="182"></rect><text x="826.5" y="197">TAGEND</text></g><path d="M 862.0 193 a 10 10 0 0 0 10 -10 v -10 a 10 10 0 0 1 10 -10"></path></g></g><path d="M 892.0 163 a 10 10 0 0 1 10 10 v 265 a 10 10 0 0 1 -10 10 h -832.0 a 10 10 0 0 0 -10 10 v 19 a 10 10 0 0 0 10 10"></path><g>
<path d="M 60.0 487 h 143.0"></path><path d="M 749.0 487 h 143.0"></path><path d="M 203.0 487 h 20"></path><g>
<path d="M 223.0 487 h 0.0"></path><path d="M 729.0 487 h 0.0"></path><g>
<path d="M 223.0 487 h 0.0"></path><path d="M 564.0 487 h 0.0"></path><path d="M 223.0 487 h 10"></path><g>
<path d="M 233.0 487 h 0.0"></path><path d="M 554.0 487 h 0.0"></path><path d="M 233.0 487 h 20"></path><g class="non-terminal ">
<path d="M 253.0 487 h 92.25"></path><path d="M 441.75 487 h 92.25"></path><rect height="22" width="96.5" x="345.25" y="476"></rect><text x="393.5" y="491">CharEmbed</text></g><path d="M 534.0 487 h 20"></path><path d="M 233.0 487 a 10 10 0 0 1 10 10 v 10 a 10 10 0 0 0 10 10"></path><g class="non-terminal ">
<path d="M 253.0 517 h 105.0"></path><path d="M 429.0 517 h 105.0"></path><rect height="22" width="71.0" x="358.0" y="506"></rect><text x="393.5" y="521">Figure</text></g><path d="M 534.0 517 a 10 10 0 0 0 10 -10 v -10 a 10 10 0 0 1 10 -10"></path><path d="M 233.0 487 a 10 10 0 0 1 10 10 v 40 a 10 10 0 0 0 10 10"></path><g class="non-terminal ">
<path d="M 253.0 547 h 92.25"></path><path d="M 441.75 547 h 92.25"></path><rect height="22" width="96.5" x="345.25" y="536"></rect><text x="393.5" y="551">Milestone</text></g><path d="M 534.0 547 a 10 10 0 0 0 10 -10 v -40 a 10 10 0 0 1 10 -10"></path><path d="M 233.0 487 a 10 10 0 0 1 10 10 v 70 a 10 10 0 0 0 10 10"></path><g class="non-terminal ">
<path d="M 253.0 577 h 96.5"></path><path d="M 437.5 577 h 96.5"></path><rect height="22" width="88.0" x="349.5" y="566"></rect><text x="393.5" y="581">Footnote</text></g><path d="M 534.0 577 a 10 10 0 0 0 10 -10 v -70 a 10 10 0 0 1 10 -10"></path><path d="M 233.0 487 a 10 10 0 0 1 10 10 v 100 a 10 10 0 0 0 10 10"></path><g class="non-terminal ">
<path d="M 253.0 607 h 71.0"></path><path d="M 463.0 607 h 71.0"></path><rect height="22" width="139.0" x="324.0" y="596"></rect><text x="393.5" y="611">CrossReference</text></g><path d="M 534.0 607 a 10 10 0 0 0 10 -10 v -100 a 10 10 0 0 1 10 -10"></path><path d="M 233.0 487 a 10 10 0 0 1 10 10 v 130 a 10 10 0 0 0 10 10"></path><g class="non-terminal ">
<path d="M 253.0 637 h 92.25"></path><path d="M 441.75 637 h 92.25"></path><rect height="22" width="96.5" x="345.25" y="626"></rect><text x="393.5" y="641">Reference</text></g><path d="M 534.0 637 a 10 10 0 0 0 10 -10 v -130 a 10 10 0 0 1 10 -10"></path><path d="M 233.0 487 a 10 10 0 0 1 10 10 v 160 a 10 10 0 0 0 10 10"></path><g>
<path d="M 253.0 667 h 63.75"></path><path d="M 470.25 667 h 63.75"></path><g class="terminal ">
<path d="M 316.75 667 h 0.0"></path><path d="M 413.25 667 h 0.0"></path><rect height="22" rx="10" ry="10" width="96.5" x="316.75" y="656"></rect><text x="365.0" y="671">/\s&#42;\/\//</text></g><path d="M 413.25 667 h 10"></path><path d="M 423.25 667 h 10"></path><g class="terminal ">
<path d="M 433.25 667 h 0.0"></path><path d="M 470.25 667 h 0.0"></path><rect height="22" rx="10" ry="10" width="37.0" x="433.25" y="656"></rect><text x="451.75" y="671">//</text></g></g><path d="M 534.0 667 a 10 10 0 0 0 10 -10 v -160 a 10 10 0 0 1 10 -10"></path><path d="M 233.0 487 a 10 10 0 0 1 10 10 v 190 a 10 10 0 0 0 10 10"></path><g>
<path d="M 253.0 697 h 0.0"></path><path d="M 534.0 697 h 0.0"></path><g class="terminal ">
<path d="M 253.0 697 h 0.0"></path><path d="M 383.5 697 h 0.0"></path><rect height="22" rx="10" ry="10" width="130.5" x="253.0" y="686"></rect><text x="318.25" y="701">TEXTNOTATTRIB</text></g><path d="M 383.5 697 h 10"></path><path d="M 393.5 697 h 10"></path><g class="terminal ">
<path d="M 403.5 697 h 0.0"></path><path d="M 534.0 697 h 0.0"></path><rect height="22" rx="10" ry="10" width="130.5" x="403.5" y="686"></rect><text x="468.75" y="701">ATTRIBTEXTEND</text></g></g><path d="M 534.0 697 a 10 10 0 0 0 10 -10 v -190 a 10 10 0 0 1 10 -10"></path></g><path d="M 554.0 487 h 10"></path><path d="M 233.0 487 a 10 10 0 0 0 -10 10 v 219 a 10 10 0 0 0 10 10"></path><g>
<path d="M 233.0 726 h 321.0"></path></g><path d="M 554.0 726 a 10 10 0 0 0 10 -10 v -219 a 10 10 0 0 0 -10 -10"></path></g><path d="M 564.0 487 h 10"></path><path d="M 574.0 487 h 10"></path><g>
<path d="M 584.0 487 h 0.0"></path><path d="M 729.0 487 h 0.0"></path><path d="M 584.0 487 h 20"></path><g>
<path d="M 604.0 487 h 105.0"></path></g><path d="M 709.0 487 h 20"></path><path d="M 584.0 487 a 10 10 0 0 1 10 10 v 0 a 10 10 0 0 0 10 10"></path><g class="non-terminal ">
<path d="M 604.0 507 h 0.0"></path><path d="M 709.0 507 h 0.0"></path><rect height="22" width="105.0" x="604.0" y="496"></rect><text x="656.5" y="511">Attributes</text></g><path d="M 709.0 507 a 10 10 0 0 0 10 -10 v 0 a 10 10 0 0 1 10 -10"></path></g></g><path d="M 729.0 487 h 20"></path><path d="M 203.0 487 a 10 10 0 0 1 10 10 v 238 a 10 10 0 0 0 10 10"></path><g class="non-terminal ">
<path d="M 223.0 745 h 200.5"></path><path d="M 528.5 745 h 200.5"></path><rect height="22" width="105.0" x="423.5" y="734"></rect><text x="476.0" y="749">Attributes</text></g><path d="M 729.0 745 a 10 10 0 0 0 10 -10 v -238 a 10 10 0 0 1 10 -10"></path></g><path d="M 892.0 487 a 10 10 0 0 1 10 10 v 267 a 10 10 0 0 1 -10 10 h -832.0 a 10 10 0 0 0 -10 10 v 0 a 10 10 0 0 0 10 10"></path><g>
<path d="M 60.0 794 h 323.5"></path><path d="M 568.5 794 h 323.5"></path><g class="terminal ">
<path d="M 383.5 794 h 0.0"></path><path d="M 437.5 794 h 0.0"></path><rect height="22" rx="10" ry="10" width="54.0" x="383.5" y="783"></rect><text x="410.5" y="798">'\\'</text></g><path d="M 437.5 794 h 10"></path><path d="M 447.5 794 h 10"></path><g class="terminal ">
<path d="M 457.5 794 h 0.0"></path><path d="M 503.0 794 h 0.0"></path><rect height="22" rx="10" ry="10" width="45.5" x="457.5" y="783"></rect><text x="480.25" y="798">⇐ ➋</text></g><path d="M 503.0 794 h 10"></path><path d="M 513.0 794 h 10"></path><g class="terminal ">
<path d="M 523.0 794 h 0.0"></path><path d="M 568.5 794 h 0.0"></path><rect height="22" rx="10" ry="10" width="45.5" x="523.0" y="783"></rect><text x="545.75" y="798">'&#42;'</text></g></g><path d="M 892.0 794 h 10"></path><path d="M 902.0 794 h 0.0"></path></g></g><path d="M 902.0 794 h 10"></path><path d="M 912.0 794 h 20 m 0 -10 v 20"></path></g></svg>