<svg class="railroad-diagram" height="728" viewBox="0 0 1845.5 728" width="1845.5" xmlns="http://www.w3.org/2000/svg" xmlns:xlink="http://www.w3.org/1999/xlink">
<g transform="translate(.5 .5)">
<style>/* <![CDATA[ */

    svg.railroad-diagram {
        background-color: hsl(30,20%,95%);
    }
    svg.railroad-diagram path {
        stroke-width: 2;
        stroke: black;
        fill: none;
    }
    svg.railroad-diagram text {
        font-size: 12px;
        text-anchor: middle;
        font-family: DejaVu Sans;
    }
    svg.railroad-diagram text.label {
        text-anchor:start;
    }
    svg.railroad-diagram text.comment {
        font-family: DejaVu Sans;
        font-size: 14px;
    }
    svg.railroad-diagram rect{
        stroke-width: 2;
        stroke: black;
        fill: rgb(210, 255, 210);
    }
    svg.railroad-diagram rect.group-box {
        stroke: gray;
        stroke-dasharray: 10 5;
        fill: none;
    }
    .terminal {
        font-family: DejaVu Sans;
    }
    svg.railroad-diagram g.altterminal rect {
        fill: rgb(251, 252, 207)
    }

/* ]]> */
</style><g>
<path d="M 20 163 v 20 m 0 -10 h 20"></path></g><path d="M 40 173 h 10"></path><g>
<path d="M 50 173 h 0.0"></path><path d="M 1795.5 173 h 0.0"></path><g>
<path d="M 50.0 173 h 0.0"></path><path d="M 1795.5 173 h 0.0"></path><path d="M 50.0 173 h 20"></path><g>
<path d="M 70.0 173 h 8.5"></path><path d="M 1767.0 173 h 8.5"></path><g>
<path d="M 78.5 173 h 0.0"></path><path d="M 1033.0 173 h 0.0"></path><g class="terminal ">
<path d="M 78.5 173 h 0.0"></path><path d="M 132.5 173 h 0.0"></path><rect height="22" rx="10" ry="10" width="54.0" x="78.5" y="162"></rect><text x="105.5" y="177">'\\'</text></g><path d="M 132.5 173 h 10"></path><path d="M 142.5 173 h 10"></path><g>
<path d="M 152.5 173 h 0.0"></path><path d="M 902.0 173 h 0.0"></path><rect class="group-box" height="314" rx="10" ry="10" width="749.5" x="152.5" y="46"></rect><g>
<path d="M 152.5 173 h 10.0"></path><path d="M 892.0 173 h 10.0"></path><g>
<path d="M 162.5 173 h 0.0"></path><path d="M 892.0 173 h 0.0"></path><path d="M 162.5 173 a 10 10 0 0 0 10 -10 v -99 a 10 10 0 0 1 10 -10 h 565.5"></path><path d="M 332.0 352 h 540.0 a 10 10 0 0 0 10 -10 v -159 a 10 10 0 0 1 10 -10"></path><path d="M 162.5 173 h 10"></path><g>
<path d="M 172.5 173 h 10.0"></path><path d="M 302.0 173 h 10.0"></path><path d="M 182.5 173 a 10 10 0 0 0 10 -10 v -10 a 10 10 0 0 1 10 -10"></path><g class="terminal ">
<path d="M 202.5 143 h 12.75"></path><path d="M 269.25 143 h 12.75"></path><rect height="22" rx="10" ry="10" width="54.0" x="215.25" y="132"></rect><text x="242.25" y="147">"qs"</text></g><path d="M 282.0 143 a 10 10 0 0 1 10 10 v 10 a 10 10 0 0 0 10 10"></path><path d="M 182.5 173 a 10 10 0 0 0 10 -10 v -40 a 10 10 0 0 1 10 -10"></path><g class="terminal ">
<path d="M 202.5 113 h 8.5"></path><path d="M 273.5 113 h 8.5"></path><rect height="22" rx="10" ry="10" width="62.5" x="211.0" y="102"></rect><text x="242.25" y="117">"qac"</text></g><path d="M 282.0 113 a 10 10 0 0 1 10 10 v 40 a 10 10 0 0 0 10 10"></path><path d="M 182.5 173 a 10 10 0 0 0 10 -10 v -70 a 10 10 0 0 1 10 -10"></path><g class="terminal ">
<path d="M 202.5 83 h 12.75"></path><path d="M 269.25 83 h 12.75"></path><rect height="22" rx="10" ry="10" width="54.0" x="215.25" y="72"></rect><text x="242.25" y="87">"vp"</text></g><path d="M 282.0 83 a 10 10 0 0 1 10 10 v 70 a 10 10 0 0 0 10 10"></path><path d="M 182.5 173 h 20"></path><g class="terminal ">
<path d="M 202.5 173 h 8.5"></path><path d="M 273.5 173 h 8.5"></path><rect height="22" rx="10" ry="10" width="62.5" x="211.0" y="162"></rect><text x="242.25" y="177">"add"</text></g><path d="M 282.0 173 h 20"></path><path d="M 182.5 173 a 10 10 0 0 1 10 10 v 10 a 10 10 0 0 0 10 10"></path><g class="terminal ">
<path d="M 202.5 203 h 0.0"></path><path d="M 282.0 203 h 0.0"></path><rect height="22" rx="10" ry="10" width="79.5" x="202.5" y="192"></rect><text x="242.25" y="207">"addpn"</text></g><path d="M 282.0 203 a 10 10 0 0 0 10 -10 v -10 a 10 10 0 0 1 10 -10"></path><path d="M 182.5 173 a 10 10 0 0 1 10 10 v 40 a 10 10 0 0 0 10 10"></path><g class="terminal ">
<path d="M 202.5 233 h 12.75"></path><path d="M 269.25 233 h 12.75"></path><rect height="22" rx="10" ry="10" width="54.0" x="215.25" y="222"></rect><text x="242.25" y="237">"bk"</text></g><path d="M 282.0 233 a 10 10 0 0 0 10 -10 v -40 a 10 10 0 0 1 10 -10"></path><path d="M 182.5 173 a 10 10 0 0 1 10 10 v 70 a 10 10 0 0 0 10 10"></path><g class="terminal ">
<path d="M 202.5 263 h 12.75"></path><path d="M 269.25 263 h 12.75"></path><rect height="22" rx="10" ry="10" width="54.0" x="215.25" y="252"></rect><text x="242.25" y="267">"dc"</text></g><path d="M 282.0 263 a 10 10 0 0 0 10 -10 v -70 a 10 10 0 0 1 10 -10"></path><path d="M 182.5 173 a 10 10 0 0 1 10 10 v 100 a 10 10 0 0 0 10 10"></path><g class="terminal ">
<path d="M 202.5 293 h 8.5"></path><path d="M 273.5 293 h 8.5"></path><rect height="22" rx="10" ry="10" width="62.5" x="211.0" y="282"></rect><text x="242.25" y="297">"efm"</text></g><path d="M 282.0 293 a 10 10 0 0 0 10 -10 v -100 a 10 10 0 0 1 10 -10"></path><path d="M 182.5 173 a 10 10 0 0 1 10 10 v 130 a 10 10 0 0 0 10 10"></path><g class="terminal ">
<path d="M 202.5 323 h 12.75"></path><path d="M 269.25 323 h 12.75"></path><rect height="22" rx="10" ry="10" width="54.0" x="215.25" y="312"></rect><text x="242.25" y="327">"fm"</text></g><path d="M 282.0 323 a 10 10 0 0 0 10 -10 v -130 a 10 10 0 0 1 10 -10"></path></g><path d="M 312.0 173 a 10 10 0 0 1 10 10 v 159 a 10 10 0 0 0 10 10"></path><path d="M 312.0 54 a 10 10 0 0 1 10 10 v 99 a 10 10 0 0 0 10 10"></path><g>
<path d="M 332.0 173 h 10.0"></path><path d="M 444.5 173 h 10.0"></path><path d="M 342.0 173 a 10 10 0 0 0 10 -10 v -10 a 10 10 0 0 1 10 -10"></path><g class="terminal ">
<path d="M 362.0 143 h 4.25"></path><path d="M 420.25 143 h 4.25"></path><rect height="22" rx="10" ry="10" width="54.0" x="366.25" y="132"></rect><text x="393.25" y="147">"nd"</text></g><path d="M 424.5 143 a 10 10 0 0 1 10 10 v 10 a 10 10 0 0 0 10 10"></path><path d="M 342.0 173 a 10 10 0 0 0 10 -10 v -40 a 10 10 0 0 1 10 -10"></path><g class="terminal ">
<path d="M 362.0 113 h 8.5"></path><path d="M 416.0 113 h 8.5"></path><rect height="22" rx="10" ry="10" width="45.5" x="370.5" y="102"></rect><text x="393.25" y="117">"k"</text></g><path d="M 424.5 113 a 10 10 0 0 1 10 10 v 40 a 10 10 0 0 0 10 10"></path><path d="M 342.0 173 a 10 10 0 0 0 10 -10 v -70 a 10 10 0 0 1 10 -10"></path><g class="terminal ">
<path d="M 362.0 83 h 4.25"></path><path d="M 420.25 83 h 4.25"></path><rect height="22" rx="10" ry="10" width="54.0" x="366.25" y="72"></rect><text x="393.25" y="87">"fv"</text></g><path d="M 424.5 83 a 10 10 0 0 1 10 10 v 70 a 10 10 0 0 0 10 10"></path><path d="M 342.0 173 h 20"></path><g class="terminal ">
<path d="M 362.0 173 h 0.0"></path><path d="M 424.5 173 h 0.0"></path><rect height="22" rx="10" ry="10" width="62.5" x="362.0" y="162"></rect><text x="393.25" y="177">"ndx"</text></g><path d="M 424.5 173 h 20"></path><path d="M 342.0 173 a 10 10 0 0 1 10 10 v 10 a 10 10 0 0 0 10 10"></path><g class="terminal ">
<path d="M 362.0 203 h 0.0"></path><path d="M 424.5 203 h 0.0"></path><rect height="22" rx="10" ry="10" width="62.5" x="362.0" y="192"></rect><text x="393.25" y="207">"ord"</text></g><path d="M 424.5 203 a 10 10 0 0 0 10 -10 v -10 a 10 10 0 0 1 10 -10"></path><path d="M 342.0 173 a 10 10 0 0 1 10 10 v 40 a 10 10 0 0 0 10 10"></path><g class="terminal ">
<path d="M 362.0 233 h 0.0"></path><path d="M 424.5 233 h 0.0"></path><rect height="22" rx="10" ry="10" width="62.5" x="362.0" y="222"></rect><text x="393.25" y="237">"png"</text></g><path d="M 424.5 233 a 10 10 0 0 0 10 -10 v -40 a 10 10 0 0 1 10 -10"></path><path d="M 342.0 173 a 10 10 0 0 1 10 10 v 70 a 10 10 0 0 0 10 10"></path><g class="terminal ">
<path d="M 362.0 263 h 4.25"></path><path d="M 420.25 263 h 4.25"></path><rect height="22" rx="10" ry="10" width="54.0" x="366.25" y="252"></rect><text x="393.25" y="267">"pn"</text></g><path d="M 424.5 263 a 10 10 0 0 0 10 -10 v -70 a 10 10 0 0 1 10 -10"></path><path d="M 342.0 173 a 10 10 0 0 1 10 10 v 100 a 10 10 0 0 0 10 10"></path><g class="terminal ">
<path d="M 362.0 293 h 0.0"></path><path d="M 424.5 293 h 0.0"></path><rect height="22" rx="10" ry="10" width="62.5" x="362.0" y="282"></rect><text x="393.25" y="297">"pro"</text></g><path d="M 424.5 293 a 10 10 0 0 0 10 -10 v -100 a 10 10 0 0 1 10 -10"></path><path d="M 342.0 173 a 10 10 0 0 1 10 10 v 130 a 10 10 0 0 0 10 10"></path><g class="terminal ">
<path d="M 362.0 323 h 4.25"></path><path d="M 420.25 323 h 4.25"></path><rect height="22" rx="10" ry="10" width="54.0" x="366.25" y="312"></rect><text x="393.25" y="327">"qt"</text></g><path d="M 424.5 323 a 10 10 0 0 0 10 -10 v -130 a 10 10 0 0 1 10 -10"></path></g><path d="M 454.5 173 a 10 10 0 0 1 10 10 v 159 a 10 10 0 0 0 10 10"></path><path d="M 454.5 54 a 10 10 0 0 1 10 10 v 99 a 10 10 0 0 0 10 10"></path><g>
<path d="M 474.5 173 h 10.0"></path><path d="M 587.0 173 h 10.0"></path><path d="M 484.5 173 a 10 10 0 0 0 10 -10 v -10 a 10 10 0 0 1 10 -10"></path><g class="terminal ">
<path d="M 504.5 143 h 0.0"></path><path d="M 567.0 143 h 0.0"></path><rect height="22" rx="10" ry="10" width="62.5" x="504.5" y="132"></rect><text x="535.75" y="147">"sls"</text></g><path d="M 567.0 143 a 10 10 0 0 1 10 10 v 10 a 10 10 0 0 0 10 10"></path><path d="M 484.5 173 a 10 10 0 0 0 10 -10 v -40 a 10 10 0 0 1 10 -10"></path><g class="terminal ">
<path d="M 504.5 113 h 0.0"></path><path d="M 567.0 113 h 0.0"></path><rect height="22" rx="10" ry="10" width="62.5" x="504.5" y="102"></rect><text x="535.75" y="117">"sig"</text></g><path d="M 567.0 113 a 10 10 0 0 1 10 10 v 40 a 10 10 0 0 0 10 10"></path><path d="M 484.5 173 a 10 10 0 0 0 10 -10 v -70 a 10 10 0 0 1 10 -10"></path><g class="terminal ">
<path d="M 504.5 83 h 4.25"></path><path d="M 562.75 83 h 4.25"></path><rect height="22" rx="10" ry="10" width="54.0" x="508.75" y="72"></rect><text x="535.75" y="87">"rq"</text></g><path d="M 567.0 83 a 10 10 0 0 1 10 10 v 70 a 10 10 0 0 0 10 10"></path><path d="M 484.5 173 h 20"></path><g class="terminal ">
<path d="M 504.5 173 h 4.25"></path><path d="M 562.75 173 h 4.25"></path><rect height="22" rx="10" ry="10" width="54.0" x="508.75" y="162"></rect><text x="535.75" y="177">"tl"</text></g><path d="M 567.0 173 h 20"></path><path d="M 484.5 173 a 10 10 0 0 1 10 10 v 10 a 10 10 0 0 0 10 10"></path><g class="terminal ">
<path d="M 504.5 203 h 4.25"></path><path d="M 562.75 203 h 4.25"></path><rect height="22" rx="10" ry="10" width="54.0" x="508.75" y="192"></rect><text x="535.75" y="207">"wg"</text></g><path d="M 567.0 203 a 10 10 0 0 0 10 -10 v -10 a 10 10 0 0 1 10 -10"></path><path d="M 484.5 173 a 10 10 0 0 1 10 10 v 40 a 10 10 0 0 0 10 10"></path><g class="terminal ">
<path d="M 504.5 233 h 4.25"></path><path d="M 562.75 233 h 4.25"></path><rect height="22" rx="10" ry="10" width="54.0" x="508.75" y="222"></rect><text x="535.75" y="237">"wh"</text></g><path d="M 567.0 233 a 10 10 0 0 0 10 -10 v -40 a 10 10 0 0 1 10 -10"></path><path d="M 484.5 173 a 10 10 0 0 1 10 10 v 70 a 10 10 0 0 0 10 10"></path><g class="terminal ">
<path d="M 504.5 263 h 4.25"></path><path d="M 562.75 263 h 4.25"></path><rect height="22" rx="10" ry="10" width="54.0" x="508.75" y="252"></rect><text x="535.75" y="267">"wa"</text></g><path d="M 567.0 263 a 10 10 0 0 0 10 -10 v -70 a 10 10 0 0 1 10 -10"></path><path d="M 484.5 173 a 10 10 0 0 1 10 10 v 100 a 10 10 0 0 0 10 10"></path><g class="terminal ">
<path d="M 504.5 293 h 4.25"></path><path d="M 562.75 293 h 4.25"></path><rect height="22" rx="10" ry="10" width="54.0" x="508.75" y="282"></rect><text x="535.75" y="297">"wj"</text></g><path d="M 567.0 293 a 10 10 0 0 0 10 -10 v -100 a 10 10 0 0 1 10 -10"></path><path d="M 484.5 173 a 10 10 0 0 1 10 10 v 130 a 10 10 0 0 0 10 10"></path><g class="terminal ">
<path d="M 504.5 323 h 0.0"></path><path d="M 567.0 323 h 0.0"></path><rect height="22" rx="10" ry="10" width="62.5" x="504.5" y="312"></rect><text x="535.75" y="327">"jmp"</text></g><path d="M 567.0 323 a 10 10 0 0 0 10 -10 v -130 a 10 10 0 0 1 10 -10"></path></g><path d="M 597.0 173 a 10 10 0 0 1 10 10 v 159 a 10 10 0 0 0 10 10"></path><path d="M 597.0 54 a 10 10 0 0 1 10 10 v 99 a 10 10 0 0 0 10 10"></path><g>
<path d="M 617.0 173 h 10.0"></path><path d="M 738.0 173 h 10.0"></path><path d="M 627.0 173 a 10 10 0 0 0 10 -10 v -10 a 10 10 0 0 1 10 -10"></path><g class="terminal ">
<path d="M 647.0 143 h 0.0"></path><path d="M 718.0 143 h 0.0"></path><rect height="22" rx="10" ry="10" width="71.0" x="647.0" y="132"></rect><text x="682.5" y="147">"bdit"</text></g><path d="M 718.0 143 a 10 10 0 0 1 10 10 v 10 a 10 10 0 0 0 10 10"></path><path d="M 627.0 173 a 10 10 0 0 0 10 -10 v -40 a 10 10 0 0 1 10 -10"></path><g class="terminal ">
<path d="M 647.0 113 h 8.5"></path><path d="M 709.5 113 h 8.5"></path><rect height="22" rx="10" ry="10" width="54.0" x="655.5" y="102"></rect><text x="682.5" y="117">"it"</text></g><path d="M 718.0 113 a 10 10 0 0 1 10 10 v 40 a 10 10 0 0 0 10 10"></path><path d="M 627.0 173 a 10 10 0 0 0 10 -10 v -70 a 10 10 0 0 1 10 -10"></path><g class="terminal ">
<path d="M 647.0 83 h 8.5"></path><path d="M 709.5 83 h 8.5"></path><rect height="22" rx="10" ry="10" width="54.0" x="655.5" y="72"></rect><text x="682.5" y="87">"no"</text></g><path d="M 718.0 83 a 10 10 0 0 1 10 10 v 70 a 10 10 0 0 0 10 10"></path><path d="M 627.0 173 h 20"></path><g class="terminal ">
<path d="M 647.0 173 h 8.5"></path><path d="M 709.5 173 h 8.5"></path><rect height="22" rx="10" ry="10" width="54.0" x="655.5" y="162"></rect><text x="682.5" y="177">"bd"</text></g><path d="M 718.0 173 h 20"></path><path d="M 627.0 173 a 10 10 0 0 1 10 10 v 10 a 10 10 0 0 0 10 10"></path><g class="terminal ">
<path d="M 647.0 203 h 8.5"></path><path d="M 709.5 203 h 8.5"></path><rect height="22" rx="10" ry="10" width="54.0" x="655.5" y="192"></rect><text x="682.5" y="207">"em"</text></g><path d="M 718.0 203 a 10 10 0 0 0 10 -10 v -10 a 10 10 0 0 1 10 -10"></path><path d="M 627.0 173 a 10 10 0 0 1 10 10 v 40 a 10 10 0 0 0 10 10"></path><g class="terminal ">
<path d="M 647.0 233 h 8.5"></path><path d="M 709.5 233 h 8.5"></path><rect height="22" rx="10" ry="10" width="54.0" x="655.5" y="222"></rect><text x="682.5" y="237">"sc"</text></g><path d="M 718.0 233 a 10 10 0 0 0 10 -10 v -40 a 10 10 0 0 1 10 -10"></path><path d="M 627.0 173 a 10 10 0 0 1 10 10 v 70 a 10 10 0 0 0 10 10"></path><g class="terminal ">
<path d="M 647.0 263 h 4.25"></path><path d="M 713.75 263 h 4.25"></path><rect height="22" rx="10" ry="10" width="62.5" x="651.25" y="252"></rect><text x="682.5" y="267">"sup"</text></g><path d="M 718.0 263 a 10 10 0 0 0 10 -10 v -70 a 10 10 0 0 1 10 -10"></path><path d="M 627.0 173 a 10 10 0 0 1 10 10 v 100 a 10 10 0 0 0 10 10"></path><g class="terminal ">
<path d="M 647.0 293 h 8.5"></path><path d="M 709.5 293 h 8.5"></path><rect height="22" rx="10" ry="10" width="54.0" x="655.5" y="282"></rect><text x="682.5" y="297">"xt"</text></g><path d="M 718.0 293 a 10 10 0 0 0 10 -10 v -100 a 10 10 0 0 1 10 -10"></path><path d="M 627.0 173 a 10 10 0 0 1 10 10 v 130 a 10 10 0 0 0 10 10"></path><g class="terminal ">
<path d="M 647.0 323 h 12.75"></path><path d="M 705.25 323 h 12.75"></path><rect height="22" rx="10" ry="10" width="45.5" x="659.75" y="312"></rect><text x="682.5" y="327">"w"</text></g><path d="M 718.0 323 a 10 10 0 0 0 10 -10 v -130 a 10 10 0 0 1 10 -10"></path></g><path d="M 748.0 173 a 10 10 0 0 1 10 10 v 159 a 10 10 0 0 0 10 10"></path><path d="M 748.0 54 a 10 10 0 0 1 10 10 v 99 a 10 10 0 0 0 10 10"></path><g>
<path d="M 768.0 173 h 10.0"></path><path d="M 872.0 173 h 10.0"></path><path d="M 778.0 173 h 20"></path><g class="terminal ">
<path d="M 798.0 173 h 0.0"></path><path d="M 852.0 173 h 0.0"></path><rect height="22" rx="10" ry="10" width="54.0" x="798.0" y="162"></rect><text x="825.0" y="177">"rb"</text></g><path d="M 852.0 173 h 20"></path><path d="M 778.0 173 a 10 10 0 0 1 10 10 v 10 a 10 10 0 0 0 10 10"></path><g class="terminal ">
<path d="M 798.0 203 h 0.0"></path><path d="M 852.0 203 h 0.0"></path><rect height="22" rx="10" ry="10" width="54.0" x="798.0" y="192"></rect><text x="825.0" y="207">"xt"</text></g><path d="M 852.0 203 a 10 10 0 0 0 10 -10 v -10 a 10 10 0 0 1 10 -10"></path></g><path d="M 882.0 173 h 10"></path></g></g><g class="non-terminal ">
<path d="M 152.5 38 h 0.0"></path><path d="M 169.5 38 h 0.0"></path><text class="comment" x="161.0" y="43">➋</text></g></g><path d="M 902.0 173 h 10"></path><path d="M 912.0 173 h 10"></path><g>
<path d="M 922.0 173 h 0.0"></path><path d="M 1033.0 173 h 0.0"></path><path d="M 922.0 173 h 20"></path><g class="terminal ">
<path d="M 942.0 173 h 12.75"></path><path d="M 1000.25 173 h 12.75"></path><rect height="22" rx="10" ry="10" width="45.5" x="954.75" y="162"></rect><text x="977.5" y="177">' '</text></g><path d="M 1013.0 173 h 20"></path><path d="M 922.0 173 a 10 10 0 0 1 10 10 v 10 a 10 10 0 0 0 10 10"></path><g class="terminal altterminal">
<path d="M 942.0 203 h 0.0"></path><path d="M 1013.0 203 h 0.0"></path><rect height="22" rx="10" ry="10" width="71.0" x="942.0" y="192"></rect><text x="977.5" y="207">TAGEND</text></g><path d="M 1013.0 203 a 10 10 0 0 0 10 -10 v -10 a 10 10 0 0 1 10 -10"></path></g></g><path d="M 1033.0 173 h 10"></path><path d="M 1043.0 173 h 10"></path><g>
<path d="M 1053.0 173 h 0.0"></path><path d="M 1562.0 173 h 0.0"></path><g>
<path d="M 1053.0 173 h 0.0"></path><path d="M 1223.5 173 h 0.0"></path><path d="M 1053.0 173 h 20"></path><g>
<path d="M 1073.0 173 h 130.5"></path></g><path d="M 1203.5 173 h 20"></path><path d="M 1053.0 173 a 10 10 0 0 1 10 10 v 0 a 10 10 0 0 0 10 10"></path><g class="non-terminal ">
<path d="M 1073.0 193 h 0.0"></path><path d="M 1203.5 193 h 0.0"></path><rect height="22" width="130.5" x="1073.0" y="182"></rect><text x="1138.25" y="197">AttributesPre</text></g><path d="M 1203.5 193 a 10 10 0 0 0 10 -10 v 0 a 10 10 0 0 1 10 -10"></path></g><path d="M 1223.5 173 h 10"></path><path d="M 1233.5 173 h 10"></path><g>
<path d="M 1243.5 173 h 0.0"></path><path d="M 1397.0 173 h 0.0"></path><path d="M 1243.5 173 h 20"></path><g>
<path d="M 1263.5 173 h 113.5"></path></g><path d="M 1377.0 173 h 20"></path><path d="M 1243.5 173 a 10 10 0 0 1 10 10 v 0 a 10 10 0 0 0 10 10"></path><g class="non-terminal ">
<path d="M 1263.5 193 h 0.0"></path><path d="M 1377.0 193 h 0.0"></path><rect height="22" width="113.5" x="1263.5" y="182"></rect><text x="1320.25" y="197">CharContent</text></g><path d="M 1377.0 193 a 10 10 0 0 0 10 -10 v 0 a 10 10 0 0 1 10 -10"></path></g><path d="M 1397.0 173 h 10"></path><path d="M 1407.0 173 h 10"></path><g>
<path d="M 1417.0 173 h 0.0"></path><path d="M 1562.0 173 h 0.0"></path><path d="M 1417.0 173 h 20"></path><g>
<path d="M 1437.0 173 h 105.0"></path></g><path d="M 1542.0 173 h 20"></path><path d="M 1417.0 173 a 10 10 0 0 1 10 10 v 0 a 10 10 0 0 0 10 10"></path><g class="non-terminal ">
<path d="M 1437.0 193 h 0.0"></path><path d="M 1542.0 193 h 0.0"></path><rect height="22" width="105.0" x="1437.0" y="182"></rect><text x="1489.5" y="197">Attributes</text></g><path d="M 1542.0 193 a 10 10 0 0 0 10 -10 v 0 a 10 10 0 0 1 10 -10"></path></g></g><path d="M 1562.0 173 h 10"></path><path d="M 1572.0 173 h 10"></path><g class="terminal ">
<path d="M 1582.0 173 h 0.0"></path><path d="M 1636.0 173 h 0.0"></path><rect height="22" rx="10" ry="10" width="54.0" x="1582.0" y="162"></rect><text x="1609.0" y="177">'\\'</text></g><path d="M 1636.0 173 h 10"></path><path d="M 1646.0 173 h 10"></path><g class="terminal ">
<path d="M 1656.0 173 h 0.0"></path><path d="M 1701.5 173 h 0.0"></path><rect height="22" rx="10" ry="10" width="45.5" x="1656.0" y="162"></rect><text x="1678.75" y="177">⇐ ➋</text></g><path d="M 1701.5 173 h 10"></path><path d="M 1711.5 173 h 10"></path><g class="terminal ">
<path d="M 1721.5 173 h 0.0"></path><path d="M 1767.0 173 h 0.0"></path><rect height="22" rx="10" ry="10" width="45.5" x="1721.5" y="162"></rect><text x="1744.25" y="177">'&#42;'</text></g></g><path d="M 1775.5 173 h 20"></path><path d="M 50.0 173 a 10 10 0 0 1 10 10 v 318 a 10 10 0 0 0 10 10"></path><g>
<path d="M 70.0 511 h 0.0"></path><path d="M 1775.5 511 h 0.0"></path><g>
<path d="M 70.0 511 h 0.0"></path><path d="M 1033.0 511 h 0.0"></path><g class="terminal ">
<path d="M 70.0 511 h 0.0"></path><path d="M 132.5 511 h 0.0"></path><rect height="22" rx="10" ry="10" width="62.5" x="70.0" y="500"></rect><text x="101.25" y="515">'\\+'</text></g><path d="M 132.5 511 h 10"></path><path d="M 142.5 511 h 10"></path><g>
<path d="M 152.5 511 h 0.0"></path><path d="M 902.0 511 h 0.0"></path><rect class="group-box" height="314" rx="10" ry="10" width="749.5" x="152.5" y="384"></rect><g>
<path d="M 152.5 511 h 10.0"></path><path d="M 892.0 511 h 10.0"></path><g>
<path d="M 162.5 511 h 0.0"></path><path d="M 892.0 511 h 0.0"></path><path d="M 162.5 511 a 10 10 0 0 0 10 -10 v -99 a 10 10 0 0 1 10 -10 h 565.5"></path><path d="M 332.0 690 h 540.0 a 10 10 0 0 0 10 -10 v -159 a 10 10 0 0 1 10 -10"></path><path d="M 162.5 511 h 10"></path><g>
<path d="M 172.5 511 h 10.0"></path><path d="M 302.0 511 h 10.0"></path><path d="M 182.5 511 a 10 10 0 0 0 10 -10 v -10 a 10 10 0 0 1 10 -10"></path><g class="terminal ">
<path d="M 202.5 481 h 12.75"></path><path d="M 269.25 481 h 12.75"></path><rect height="22" rx="10" ry="10" width="54.0" x="215.25" y="470"></rect><text x="242.25" y="485">"qs"</text></g><path d="M 282.0 481 a 10 10 0 0 1 10 10 v 10 a 10 10 0 0 0 10 10"></path><path d="M 182.5 511 a 10 10 0 0 0 10 -10 v -40 a 10 10 0 0 1 10 -10"></path><g class="terminal ">
<path d="M 202.5 451 h 8.5"></path><path d="M 273.5 451 h 8.5"></path><rect height="22" rx="10" ry="10" width="62.5" x="211.0" y="440"></rect><text x="242.25" y="455">"qac"</text></g><path d="M 282.0 451 a 10 10 0 0 1 10 10 v 40 a 10 10 0 0 0 10 10"></path><path d="M 182.5 511 a 10 10 0 0 0 10 -10 v -70 a 10 10 0 0 1 10 -10"></path><g class="terminal ">
<path d="M 202.5 421 h 12.75"></path><path d="M 269.25 421 h 12.75"></path><rect height="22" rx="10" ry="10" width="54.0" x="215.25" y="410"></rect><text x="242.25" y="425">"vp"</text></g><path d="M 282.0 421 a 10 10 0 0 1 10 10 v 70 a 10 10 0 0 0 10 10"></path><path d="M 182.5 511 h 20"></path><g class="terminal ">
<path d="M 202.5 511 h 8.5"></path><path d="M 273.5 511 h 8.5"></path><rect height="22" rx="10" ry="10" width="62.5" x="211.0" y="500"></rect><text x="242.25" y="515">"add"</text></g><path d="M 282.0 511 h 20"></path><path d="M 182.5 511 a 10 10 0 0 1 10 10 v 10 a 10 10 0 0 0 10 10"></path><g class="terminal ">
<path d="M 202.5 541 h 0.0"></path><path d="M 282.0 541 h 0.0"></path><rect height="22" rx="10" ry="10" width="79.5" x="202.5" y="530"></rect><text x="242.25" y="545">"addpn"</text></g><path d="M 282.0 541 a 10 10 0 0 0 10 -10 v -10 a 10 10 0 0 1 10 -10"></path><path d="M 182.5 511 a 10 10 0 0 1 10 10 v 40 a 10 10 0 0 0 10 10"></path><g class="terminal ">
<path d="M 202.5 571 h 12.75"></path><path d="M 269.25 571 h 12.75"></path><rect height="22" rx="10" ry="10" width="54.0" x="215.25" y="560"></rect><text x="242.25" y="575">"bk"</text></g><path d="M 282.0 571 a 10 10 0 0 0 10 -10 v -40 a 10 10 0 0 1 10 -10"></path><path d="M 182.5 511 a 10 10 0 0 1 10 10 v 70 a 10 10 0 0 0 10 10"></path><g class="terminal ">
<path d="M 202.5 601 h 12.75"></path><path d="M 269.25 601 h 12.75"></path><rect height="22" rx="10" ry="10" width="54.0" x="215.25" y="590"></rect><text x="242.25" y="605">"dc"</text></g><path d="M 282.0 601 a 10 10 0 0 0 10 -10 v -70 a 10 10 0 0 1 10 -10"></path><path d="M 182.5 511 a 10 10 0 0 1 10 10 v 100 a 10 10 0 0 0 10 10"></path><g class="terminal ">
<path d="M 202.5 631 h 8.5"></path><path d="M 273.5 631 h 8.5"></path><rect height="22" rx="10" ry="10" width="62.5" x="211.0" y="620"></rect><text x="242.25" y="635">"efm"</text></g><path d="M 282.0 631 a 10 10 0 0 0 10 -10 v -100 a 10 10 0 0 1 10 -10"></path><path d="M 182.5 511 a 10 10 0 0 1 10 10 v 130 a 10 10 0 0 0 10 10"></path><g class="terminal ">
<path d="M 202.5 661 h 12.75"></path><path d="M 269.25 661 h 12.75"></path><rect height="22" rx="10" ry="10" width="54.0" x="215.25" y="650"></rect><text x="242.25" y="665">"fm"</text></g><path d="M 282.0 661 a 10 10 0 0 0 10 -10 v -130 a 10 10 0 0 1 10 -10"></path></g><path d="M 312.0 511 a 10 10 0 0 1 10 10 v 159 a 10 10 0 0 0 10 10"></path><path d="M 312.0 392 a 10 10 0 0 1 10 10 v 99 a 10 10 0 0 0 10 10"></path><g>
<path d="M 332.0 511 h 10.0"></path><path d="M 444.5 511 h 10.0"></path><path d="M 342.0 511 a 10 10 0 0 0 10 -10 v -10 a 10 10 0 0 1 10 -10"></path><g class="terminal ">
<path d="M 362.0 481 h 4.25"></path><path d="M 420.25 481 h 4.25"></path><rect height="22" rx="10" ry="10" width="54.0" x="366.25" y="470"></rect><text x="393.25" y="485">"nd"</text></g><path d="M 424.5 481 a 10 10 0 0 1 10 10 v 10 a 10 10 0 0 0 10 10"></path><path d="M 342.0 511 a 10 10 0 0 0 10 -10 v -40 a 10 10 0 0 1 10 -10"></path><g class="terminal ">
<path d="M 362.0 451 h 8.5"></path><path d="M 416.0 451 h 8.5"></path><rect height="22" rx="10" ry="10" width="45.5" x="370.5" y="440"></rect><text x="393.25" y="455">"k"</text></g><path d="M 424.5 451 a 10 10 0 0 1 10 10 v 40 a 10 10 0 0 0 10 10"></path><path d="M 342.0 511 a 10 10 0 0 0 10 -10 v -70 a 10 10 0 0 1 10 -10"></path><g class="terminal ">
<path d="M 362.0 421 h 4.25"></path><path d="M 420.25 421 h 4.25"></path><rect height="22" rx="10" ry="10" width="54.0" x="366.25" y="410"></rect><text x="393.25" y="425">"fv"</text></g><path d="M 424.5 421 a 10 10 0 0 1 10 10 v 70 a 10 10 0 0 0 10 10"></path><path d="M 342.0 511 h 20"></path><g class="terminal ">
<path d="M 362.0 511 h 0.0"></path><path d="M 424.5 511 h 0.0"></path><rect height="22" rx="10" ry="10" width="62.5" x="362.0" y="500"></rect><text x="393.25" y="515">"ndx"</text></g><path d="M 424.5 511 h 20"></path><path d="M 342.0 511 a 10 10 0 0 1 10 10 v 10 a 10 10 0 0 0 10 10"></path><g class="terminal ">
<path d="M 362.0 541 h 0.0"></path><path d="M 424.5 541 h 0.0"></path><rect height="22" rx="10" ry="10" width="62.5" x="362.0" y="530"></rect><text x="393.25" y="545">"ord"</text></g><path d="M 424.5 541 a 10 10 0 0 0 10 -10 v -10 a 10 10 0 0 1 10 -10"></path><path d="M 342.0 511 a 10 10 0 0 1 10 10 v 40 a 10 10 0 0 0 10 10"></path><g class="terminal ">
<path d="M 362.0 571 h 0.0"></path><path d="M 424.5 571 h 0.0"></path><rect height="22" rx="10" ry="10" width="62.5" x="362.0" y="560"></rect><text x="393.25" y="575">"png"</text></g><path d="M 424.5 571 a 10 10 0 0 0 10 -10 v -40 a 10 10 0 0 1 10 -10"></path><path d="M 342.0 511 a 10 10 0 0 1 10 10 v 70 a 10 10 0 0 0 10 10"></path><g class="terminal ">
<path d="M 362.0 601 h 4.25"></path><path d="M 420.25 601 h 4.25"></path><rect height="22" rx="10" ry="10" width="54.0" x="366.25" y="590"></rect><text x="393.25" y="605">"pn"</text></g><path d="M 424.5 601 a 10 10 0 0 0 10 -10 v -70 a 10 10 0 0 1 10 -10"></path><path d="M 342.0 511 a 10 10 0 0 1 10 10 v 100 a 10 10 0 0 0 10 10"></path><g class="terminal ">
<path d="M 362.0 631 h 0.0"></path><path d="M 424.5 631 h 0.0"></path><rect height="22" rx="10" ry="10" width="62.5" x="362.0" y="620"></rect><text x="393.25" y="635">"pro"</text></g><path d="M 424.5 631 a 10 10 0 0 0 10 -10 v -100 a 10 10 0 0 1 10 -10"></path><path d="M 342.0 511 a 10 10 0 0 1 10 10 v 130 a 10 10 0 0 0 10 10"></path><g class="terminal ">
<path d="M 362.0 661 h 4.25"></path><path d="M 420.25 661 h 4.25"></path><rect height="22" rx="10" ry="10" width="54.0" x="366.25" y="650"></rect><text x="393.25" y="665">"qt"</text></g><path d="M 424.5 661 a 10 10 0 0 0 10 -10 v -130 a 10 10 0 0 1 10 -10"></path></g><path d="M 454.5 511 a 10 10 0 0 1 10 10 v 159 a 10 10 0 0 0 10 10"></path><path d="M 454.5 392 a 10 10 0 0 1 10 10 v 99 a 10 10 0 0 0 10 10"></path><g>
<path d="M 474.5 511 h 10.0"></path><path d="M 587.0 511 h 10.0"></path><path d="M 484.5 511 a 10 10 0 0 0 10 -10 v -10 a 10 10 0 0 1 10 -10"></path><g class="terminal ">
<path d="M 504.5 481 h 0.0"></path><path d="M 567.0 481 h 0.0"></path><rect height="22" rx="10" ry="10" width="62.5" x="504.5" y="470"></rect><text x="535.75" y="485">"sls"</text></g><path d="M 567.0 481 a 10 10 0 0 1 10 10 v 10 a 10 10 0 0 0 10 10"></path><path d="M 484.5 511 a 10 10 0 0 0 10 -10 v -40 a 10 10 0 0 1 10 -10"></path><g class="terminal ">
<path d="M 504.5 451 h 0.0"></path><path d="M 567.0 451 h 0.0"></path><rect height="22" rx="10" ry="10" width="62.5" x="504.5" y="440"></rect><text x="535.75" y="455">"sig"</text></g><path d="M 567.0 451 a 10 10 0 0 1 10 10 v 40 a 10 10 0 0 0 10 10"></path><path d="M 484.5 511 a 10 10 0 0 0 10 -10 v -70 a 10 10 0 0 1 10 -10"></path><g class="terminal ">
<path d="M 504.5 421 h 4.25"></path><path d="M 562.75 421 h 4.25"></path><rect height="22" rx="10" ry="10" width="54.0" x="508.75" y="410"></rect><text x="535.75" y="425">"rq"</text></g><path d="M 567.0 421 a 10 10 0 0 1 10 10 v 70 a 10 10 0 0 0 10 10"></path><path d="M 484.5 511 h 20"></path><g class="terminal ">
<path d="M 504.5 511 h 4.25"></path><path d="M 562.75 511 h 4.25"></path><rect height="22" rx="10" ry="10" width="54.0" x="508.75" y="500"></rect><text x="535.75" y="515">"tl"</text></g><path d="M 567.0 511 h 20"></path><path d="M 484.5 511 a 10 10 0 0 1 10 10 v 10 a 10 10 0 0 0 10 10"></path><g class="terminal ">
<path d="M 504.5 541 h 4.25"></path><path d="M 562.75 541 h 4.25"></path><rect height="22" rx="10" ry="10" width="54.0" x="508.75" y="530"></rect><text x="535.75" y="545">"wg"</text></g><path d="M 567.0 541 a 10 10 0 0 0 10 -10 v -10 a 10 10 0 0 1 10 -10"></path><path d="M 484.5 511 a 10 10 0 0 1 10 10 v 40 a 10 10 0 0 0 10 10"></path><g class="terminal ">
<path d="M 504.5 571 h 4.25"></path><path d="M 562.75 571 h 4.25"></path><rect height="22" rx="10" ry="10" width="54.0" x="508.75" y="560"></rect><text x="535.75" y="575">"wh"</text></g><path d="M 567.0 571 a 10 10 0 0 0 10 -10 v -40 a 10 10 0 0 1 10 -10"></path><path d="M 484.5 511 a 10 10 0 0 1 10 10 v 70 a 10 10 0 0 0 10 10"></path><g class="terminal ">
<path d="M 504.5 601 h 4.25"></path><path d="M 562.75 601 h 4.25"></path><rect height="22" rx="10" ry="10" width="54.0" x="508.75" y="590"></rect><text x="535.75" y="605">"wa"</text></g><path d="M 567.0 601 a 10 10 0 0 0 10 -10 v -70 a 10 10 0 0 1 10 -10"></path><path d="M 484.5 511 a 10 10 0 0 1 10 10 v 100 a 10 10 0 0 0 10 10"></path><g class="terminal ">
<path d="M 504.5 631 h 4.25"></path><path d="M 562.75 631 h 4.25"></path><rect height="22" rx="10" ry="10" width="54.0" x="508.75" y="620"></rect><text x="535.75" y="635">"wj"</text></g><path d="M 567.0 631 a 10 10 0 0 0 10 -10 v -100 a 10 10 0 0 1 10 -10"></path><path d="M 484.5 511 a 10 10 0 0 1 10 10 v 130 a 10 10 0 0 0 10 10"></path><g class="terminal ">
<path d="M 504.5 661 h 0.0"></path><path d="M 567.0 661 h 0.0"></path><rect height="22" rx="10" ry="10" width="62.5" x="504.5" y="650"></rect><text x="535.75" y="665">"jmp"</text></g><path d="M 567.0 661 a 10 10 0 0 0 10 -10 v -130 a 10 10 0 0 1 10 -10"></path></g><path d="M 597.0 511 a 10 10 0 0 1 10 10 v 159 a 10 10 0 0 0 10 10"></path><path d="M 597.0 392 a 10 10 0 0 1 10 10 v 99 a 10 10 0 0 0 10 10"></path><g>
<path d="M 617.0 511 h 10.0"></path><path d="M 738.0 511 h 10.0"></path><path d="M 627.0 511 a 10 10 0 0 0 10 -10 v -10 a 10 10 0 0 1 10 -10"></path><g class="terminal ">
<path d="M 647.0 481 h 0.0"></path><path d="M 718.0 481 h 0.0"></path><rect height="22" rx="10" ry="10" width="71.0" x="647.0" y="470"></rect><text x="682.5" y="485">"bdit"</text></g><path d="M 718.0 481 a 10 10 0 0 1 10 10 v 10 a 10 10 0 0 0 10 10"></path><path d="M 627.0 511 a 10 10 0 0 0 10 -10 v -40 a 10 10 0 0 1 10 -10"></path><g class="terminal ">
<path d="M 647.0 451 h 8.5"></path><path d="M 709.5 451 h 8.5"></path><rect height="22" rx="10" ry="10" width="54.0" x="655.5" y="440"></rect><text x="682.5" y="455">"it"</text></g><path d="M 718.0 451 a 10 10 0 0 1 10 10 v 40 a 10 10 0 0 0 10 10"></path><path d="M 627.0 511 a 10 10 0 0 0 10 -10 v -70 a 10 10 0 0 1 10 -10"></path><g class="terminal ">
<path d="M 647.0 421 h 8.5"></path><path d="M 709.5 421 h 8.5"></path><rect height="22" rx="10" ry="10" width="54.0" x="655.5" y="410"></rect><text x="682.5" y="425">"no"</text></g><path d="M 718.0 421 a 10 10 0 0 1 10 10 v 70 a 10 10 0 0 0 10 10"></path><path d="M 627.0 511 h 20"></path><g class="terminal ">
<path d="M 647.0 511 h 8.5"></path><path d="M 709.5 511 h 8.5"></path><rect height="22" rx="10" ry="10" width="54.0" x="655.5" y="500"></rect><text x="682.5" y="515">"bd"</text></g><path d="M 718.0 511 h 20"></path><path d="M 627.0 511 a 10 10 0 0 1 10 10 v 10 a 10 10 0 0 0 10 10"></path><g class="terminal ">
<path d="M 647.0 541 h 8.5"></path><path d="M 709.5 541 h 8.5"></path><rect height="22" rx="10" ry="10" width="54.0" x="655.5" y="530"></rect><text x="682.5" y="545">"em"</text></g><path d="M 718.0 541 a 10 10 0 0 0 10 -10 v -10 a 10 10 0 0 1 10 -10"></path><path d="M 627.0 511 a 10 10 0 0 1 10 10 v 40 a 10 10 0 0 0 10 10"></path><g class="terminal ">
<path d="M 647.0 571 h 8.5"></path><path d="M 709.5 571 h 8.5"></path><rect height="22" rx="10" ry="10" width="54.0" x="655.5" y="560"></rect><text x="682.5" y="575">"sc"</text></g><path d="M 718.0 571 a 10 10 0 0 0 10 -10 v -40 a 10 10 0 0 1 10 -10"></path><path d="M 627.0 511 a 10 10 0 0 1 10 10 v 70 a 10 10 0 0 0 10 10"></path><g class="terminal ">
<path d="M 647.0 601 h 4.25"></path><path d="M 713.75 601 h 4.25"></path><rect height="22" rx="10" ry="10" width="62.5" x="651.25" y="590"></rect><text x="682.5" y="605">"sup"</text></g><path d="M 718.0 601 a 10 10 0 0 0 10 -10 v -70 a 10 10 0 0 1 10 -10"></path><path d="M 627.0 511 a 10 10 0 0 1 10 10 v 100 a 10 10 0 0 0 10 10"></path><g class="terminal ">
<path d="M 647.0 631 h 8.5"></path><path d="M 709.5 631 h 8.5"></path><rect height="22" rx="10" ry="10" width="54.0" x="655.5" y="620"></rect><text x="682.5" y="635">"xt"</text></g><path d="M 718.0 631 a 10 10 0 0 0 10 -10 v -100 a 10 10 0 0 1 10 -10"></path><path d="M 627.0 511 a 10 10 0 0 1 10 10 v 130 a 10 10 0 0 0 10 10"></path><g class="terminal ">
<path d="M 647.0 661 h 12.75"></path><path d="M 705.25 661 h 12.75"></path><rect height="22" rx="10" ry="10" width="45.5" x="659.75" y="650"></rect><text x="682.5" y="665">"w"</text></g><path d="M 718.0 661 a 10 10 0 0 0 10 -10 v -130 a 10 10 0 0 1 10 -10"></path></g><path d="M 748.0 511 a 10 10 0 0 1 10 10 v 159 a 10 10 0 0 0 10 10"></path><path d="M 748.0 392 a 10 10 0 0 1 10 10 v 99 a 10 10 0 0 0 10 10"></path><g>
<path d="M 768.0 511 h 10.0"></path><path d="M 872.0 511 h 10.0"></path><path d="M 778.0 511 h 20"></path><g class="terminal ">
<path d="M 798.0 511 h 0.0"></path><path d="M 852.0 511 h 0.0"></path><rect height="22" rx="10" ry="10" width="54.0" x="798.0" y="500"></rect><text x="825.0" y="515">"rb"</text></g><path d="M 852.0 511 h 20"></path><path d="M 778.0 511 a 10 10 0 0 1 10 10 v 10 a 10 10 0 0 0 10 10"></path><g class="terminal ">
<path d="M 798.0 541 h 0.0"></path><path d="M 852.0 541 h 0.0"></path><rect height="22" rx="10" ry="10" width="54.0" x="798.0" y="530"></rect><text x="825.0" y="545">"xt"</text></g><path d="M 852.0 541 a 10 10 0 0 0 10 -10 v -10 a 10 10 0 0 1 10 -10"></path></g><path d="M 882.0 511 h 10"></path></g></g><g class="non-terminal ">
<path d="M 152.5 376 h 0.0"></path><path d="M 169.5 376 h 0.0"></path><text class="comment" x="161.0" y="381">➌</text></g></g><path d="M 902.0 511 h 10"></path><path d="M 912.0 511 h 10"></path><g>
<path d="M 922.0 511 h 0.0"></path><path d="M 1033.0 511 h 0.0"></path><path d="M 922.0 511 h 20"></path><g class="terminal ">
<path d="M 942.0 511 h 12.75"></path><path d="M 1000.25 511 h 12.75"></path><rect height="22" rx="10" ry="10" width="45.5" x="954.75" y="500"></rect><text x="977.5" y="515">' '</text></g><path d="M 1013.0 511 h 20"></path><path d="M 922.0 511 a 10 10 0 0 1 10 10 v 10 a 10 10 0 0 0 10 10"></path><g class="terminal altterminal">
<path d="M 942.0 541 h 0.0"></path><path d="M 1013.0 541 h 0.0"></path><rect height="22" rx="10" ry="10" width="71.0" x="942.0" y="530"></rect><text x="977.5" y="545">TAGEND</text></g><path d="M 1013.0 541 a 10 10 0 0 0 10 -10 v -10 a 10 10 0 0 1 10 -10"></path></g></g><path d="M 1033.0 511 h 10"></path><path d="M 1043.0 511 h 10"></path><g>
<path d="M 1053.0 511 h 0.0"></path><path d="M 1562.0 511 h 0.0"></path><g>
<path d="M 1053.0 511 h 0.0"></path><path d="M 1223.5 511 h 0.0"></path><path d="M 1053.0 511 h 20"></path><g>
<path d="M 1073.0 511 h 130.5"></path></g><path d="M 1203.5 511 h 20"></path><path d="M 1053.0 511 a 10 10 0 0 1 10 10 v 0 a 10 10 0 0 0 10 10"></path><g class="non-terminal ">
<path d="M 1073.0 531 h 0.0"></path><path d="M 1203.5 531 h 0.0"></path><rect height="22" width="130.5" x="1073.0" y="520"></rect><text x="1138.25" y="535">AttributesPre</text></g><path d="M 1203.5 531 a 10 10 0 0 0 10 -10 v 0 a 10 10 0 0 1 10 -10"></path></g><path d="M 1223.5 511 h 10"></path><path d="M 1233.5 511 h 10"></path><g>
<path d="M 1243.5 511 h 0.0"></path><path d="M 1397.0 511 h 0.0"></path><path d="M 1243.5 511 h 20"></path><g>
<path d="M 1263.5 511 h 113.5"></path></g><path d="M 1377.0 511 h 20"></path><path d="M 1243.5 511 a 10 10 0 0 1 10 10 v 0 a 10 10 0 0 0 10 10"></path><g class="non-terminal ">
<path d="M 1263.5 531 h 0.0"></path><path d="M 1377.0 531 h 0.0"></path><rect height="22" width="113.5" x="1263.5" y="520"></rect><text x="1320.25" y="535">CharContent</text></g><path d="M 1377.0 531 a 10 10 0 0 0 10 -10 v 0 a 10 10 0 0 1 10 -10"></path></g><path d="M 1397.0 511 h 10"></path><path d="M 1407.0 511 h 10"></path><g>
<path d="M 1417.0 511 h 0.0"></path><path d="M 1562.0 511 h 0.0"></path><path d="M 1417.0 511 h 20"></path><g>
<path d="M 1437.0 511 h 105.0"></path></g><path d="M 1542.0 511 h 20"></path><path d="M 1417.0 511 a 10 10 0 0 1 10 10 v 0 a 10 10 0 0 0 10 10"></path><g class="non-terminal ">
<path d="M 1437.0 531 h 0.0"></path><path d="M 1542.0 531 h 0.0"></path><rect height="22" width="105.0" x="1437.0" y="520"></rect><text x="1489.5" y="535">Attributes</text></g><path d="M 1542.0 531 a 10 10 0 0 0 10 -10 v 0 a 10 10 0 0 1 10 -10"></path></g></g><path d="M 1562.0 511 h 10"></path><path d="M 1572.0 511 h 10"></path><g class="terminal ">
<path d="M 1582.0 511 h 0.0"></path><path d="M 1644.5 511 h 0.0"></path><rect height="22" rx="10" ry="10" width="62.5" x="1582.0" y="500"></rect><text x="1613.25" y="515">'\\+'</text></g><path d="M 1644.5 511 h 10"></path><path d="M 1654.5 511 h 10"></path><g class="terminal ">
<path d="M 1664.5 511 h 0.0"></path><path d="M 1710.0 511 h 0.0"></path><rect height="22" rx="10" ry="10" width="45.5" x="1664.5" y="500"></rect><text x="1687.25" y="515">⇐ ➌</text></g><path d="M 1710.0 511 h 10"></path><path d="M 1720.0 511 h 10"></path><g class="terminal ">
<path d="M 1730.0 511 h 0.0"></path><path d="M 1775.5 511 h 0.0"></path><rect height="22" rx="10" ry="10" width="45.5" x="1730.0" y="500"></rect><text x="1752.75" y="515">'&#42;'</text></g></g><path d="M 1775.5 511 a 10 10 0 0 0 10 -10 v -318 a 10 10 0 0 1 10 -10"></path></g></g><path d="M 1795.5 173 h 10"></path><path d="M 1805.5 173 h 20 m 0 -10 v 20"></path></g></svg>