<svg class="railroad-diagram" height="542" viewBox="0 0 1279.0 542" width="1279.0" xmlns="http://www.w3.org/2000/svg" xmlns:xlink="http://www.w3.org/1999/xlink">
<g transform="translate(.5 .5)">
<style>/* <![CDATA[ */

    svg.railroad-diagram {
        background-color:hsl(30,20%,95%);
    }
    svg.railroad-diagram path {
        stroke-width: 2;
        stroke: black;
        fill: none;
    }
    svg.railroad-diagram text {
        font-size: 12px;
        text-anchor: middle;
        font-family: DejaVu Sans;
    }
    svg.railroad-diagram text.label {
        text-anchor:start;
    }
    svg.railroad-diagram text.comment {
        font-family: DejaVu Sans;
        font-size: 14px;
    }
    svg.railroad-diagram rect{
        stroke-width: 2;
        stroke:black;
        fill: rgb(210, 255, 210);
    }
    svg.railroad-diagram rect.group-box {
        stroke: gray;
        stroke-dasharray: 10 5;
        fill: none;
    }
    .terminal {
        font-family: DejaVu Sans;
    }

/* ]]> */
</style><g>
<path d="M 20 163 v 20 m 0 -10 h 20"></path></g><path d="M 40 173 h 10"></path><g>
<path d="M 50 173 h 0.0"></path><path d="M 1229.0 173 h 0.0"></path><g>
<path d="M 50.0 173 h 0.0"></path><path d="M 1229.0 173 h 0.0"></path><path d="M 50.0 173 h 20"></path><g>
<path d="M 70.0 173 h 0.0"></path><path d="M 1209.0 173 h 0.0"></path><g>
<path d="M 70.0 173 h 0.0"></path><g>
<path d="M 70.0 173 h 10.0"></path><path d="M 860.5 173 h 10.0"></path><g class="terminal ">
<path d="M 80.0 173 h 0.0"></path><path d="M 134.0 173 h 0.0"></path><rect height="22" rx="10" ry="10" width="54.0" x="80.0" y="162"></rect><text x="107.0" y="177">'\+'</text></g><path d="M 134.0 173 h 10"></path><path d="M 144.0 173 h 10"></path><g>
<path d="M 154.0 173 h 0.0"></path><path d="M 769.5 173 h 0.0"></path><rect class="group-box" height="314" rx="10" ry="10" width="615.5" x="154.0" y="46"></rect><g>
<path d="M 154.0 173 h 10.0"></path><path d="M 759.5 173 h 10.0"></path><g>
<path d="M 164.0 173 h 0.0"></path><path d="M 759.5 173 h 0.0"></path><path d="M 164.0 173 a 10 10 0 0 0 10 -10 v -99 a 10 10 0 0 1 10 -10 h 414.5"></path><path d="M 333.5 352 h 406.0 a 10 10 0 0 0 10 -10 v -159 a 10 10 0 0 1 10 -10"></path><path d="M 164.0 173 h 10"></path><g>
<path d="M 174.0 173 h 10.0"></path><path d="M 303.5 173 h 10.0"></path><path d="M 184.0 173 a 10 10 0 0 0 10 -10 v -10 a 10 10 0 0 1 10 -10"></path><g class="terminal ">
<path d="M 204.0 143 h 12.75"></path><path d="M 270.75 143 h 12.75"></path><rect height="22" rx="10" ry="10" width="54.0" x="216.75" y="132"></rect><text x="243.75" y="147">"ca"</text></g><path d="M 283.5 143 a 10 10 0 0 1 10 10 v 10 a 10 10 0 0 0 10 10"></path><path d="M 184.0 173 a 10 10 0 0 0 10 -10 v -40 a 10 10 0 0 1 10 -10"></path><g class="terminal ">
<path d="M 204.0 113 h 12.75"></path><path d="M 270.75 113 h 12.75"></path><rect height="22" rx="10" ry="10" width="54.0" x="216.75" y="102"></rect><text x="243.75" y="117">"vp"</text></g><path d="M 283.5 113 a 10 10 0 0 1 10 10 v 40 a 10 10 0 0 0 10 10"></path><path d="M 184.0 173 a 10 10 0 0 0 10 -10 v -70 a 10 10 0 0 1 10 -10"></path><g class="terminal ">
<path d="M 204.0 83 h 12.75"></path><path d="M 270.75 83 h 12.75"></path><rect height="22" rx="10" ry="10" width="54.0" x="216.75" y="72"></rect><text x="243.75" y="87">"va"</text></g><path d="M 283.5 83 a 10 10 0 0 1 10 10 v 70 a 10 10 0 0 0 10 10"></path><path d="M 184.0 173 h 20"></path><g class="terminal ">
<path d="M 204.0 173 h 8.5"></path><path d="M 275.0 173 h 8.5"></path><rect height="22" rx="10" ry="10" width="62.5" x="212.5" y="162"></rect><text x="243.75" y="177">"qac"</text></g><path d="M 283.5 173 h 20"></path><path d="M 184.0 173 a 10 10 0 0 1 10 10 v 10 a 10 10 0 0 0 10 10"></path><g class="terminal ">
<path d="M 204.0 203 h 12.75"></path><path d="M 270.75 203 h 12.75"></path><rect height="22" rx="10" ry="10" width="54.0" x="216.75" y="192"></rect><text x="243.75" y="207">"qs"</text></g><path d="M 283.5 203 a 10 10 0 0 0 10 -10 v -10 a 10 10 0 0 1 10 -10"></path><path d="M 184.0 173 a 10 10 0 0 1 10 10 v 40 a 10 10 0 0 0 10 10"></path><g class="terminal ">
<path d="M 204.0 233 h 8.5"></path><path d="M 275.0 233 h 8.5"></path><rect height="22" rx="10" ry="10" width="62.5" x="212.5" y="222"></rect><text x="243.75" y="237">"add"</text></g><path d="M 283.5 233 a 10 10 0 0 0 10 -10 v -40 a 10 10 0 0 1 10 -10"></path><path d="M 184.0 173 a 10 10 0 0 1 10 10 v 70 a 10 10 0 0 0 10 10"></path><g class="terminal ">
<path d="M 204.0 263 h 0.0"></path><path d="M 283.5 263 h 0.0"></path><rect height="22" rx="10" ry="10" width="79.5" x="204.0" y="252"></rect><text x="243.75" y="267">"addpn"</text></g><path d="M 283.5 263 a 10 10 0 0 0 10 -10 v -70 a 10 10 0 0 1 10 -10"></path><path d="M 184.0 173 a 10 10 0 0 1 10 10 v 100 a 10 10 0 0 0 10 10"></path><g class="terminal ">
<path d="M 204.0 293 h 12.75"></path><path d="M 270.75 293 h 12.75"></path><rect height="22" rx="10" ry="10" width="54.0" x="216.75" y="282"></rect><text x="243.75" y="297">"bk"</text></g><path d="M 283.5 293 a 10 10 0 0 0 10 -10 v -100 a 10 10 0 0 1 10 -10"></path><path d="M 184.0 173 a 10 10 0 0 1 10 10 v 130 a 10 10 0 0 0 10 10"></path><g class="terminal ">
<path d="M 204.0 323 h 12.75"></path><path d="M 270.75 323 h 12.75"></path><rect height="22" rx="10" ry="10" width="54.0" x="216.75" y="312"></rect><text x="243.75" y="327">"dc"</text></g><path d="M 283.5 323 a 10 10 0 0 0 10 -10 v -130 a 10 10 0 0 1 10 -10"></path></g><path d="M 313.5 173 a 10 10 0 0 1 10 10 v 159 a 10 10 0 0 0 10 10"></path><path d="M 313.5 54 a 10 10 0 0 1 10 10 v 99 a 10 10 0 0 0 10 10"></path><g>
<path d="M 333.5 173 h 10.0"></path><path d="M 446.0 173 h 10.0"></path><path d="M 343.5 173 a 10 10 0 0 0 10 -10 v -10 a 10 10 0 0 1 10 -10"></path><g class="terminal ">
<path d="M 363.5 143 h 8.5"></path><path d="M 417.5 143 h 8.5"></path><rect height="22" rx="10" ry="10" width="45.5" x="372.0" y="132"></rect><text x="394.75" y="147">"k"</text></g><path d="M 426.0 143 a 10 10 0 0 1 10 10 v 10 a 10 10 0 0 0 10 10"></path><path d="M 343.5 173 a 10 10 0 0 0 10 -10 v -40 a 10 10 0 0 1 10 -10"></path><g class="terminal ">
<path d="M 363.5 113 h 4.25"></path><path d="M 421.75 113 h 4.25"></path><rect height="22" rx="10" ry="10" width="54.0" x="367.75" y="102"></rect><text x="394.75" y="117">"fm"</text></g><path d="M 426.0 113 a 10 10 0 0 1 10 10 v 40 a 10 10 0 0 0 10 10"></path><path d="M 343.5 173 a 10 10 0 0 0 10 -10 v -70 a 10 10 0 0 1 10 -10"></path><g class="terminal ">
<path d="M 363.5 83 h 0.0"></path><path d="M 426.0 83 h 0.0"></path><rect height="22" rx="10" ry="10" width="62.5" x="363.5" y="72"></rect><text x="394.75" y="87">"efm"</text></g><path d="M 426.0 83 a 10 10 0 0 1 10 10 v 70 a 10 10 0 0 0 10 10"></path><path d="M 343.5 173 h 20"></path><g class="terminal ">
<path d="M 363.5 173 h 4.25"></path><path d="M 421.75 173 h 4.25"></path><rect height="22" rx="10" ry="10" width="54.0" x="367.75" y="162"></rect><text x="394.75" y="177">"nd"</text></g><path d="M 426.0 173 h 20"></path><path d="M 343.5 173 a 10 10 0 0 1 10 10 v 10 a 10 10 0 0 0 10 10"></path><g class="terminal ">
<path d="M 363.5 203 h 0.0"></path><path d="M 426.0 203 h 0.0"></path><rect height="22" rx="10" ry="10" width="62.5" x="363.5" y="192"></rect><text x="394.75" y="207">"ndx"</text></g><path d="M 426.0 203 a 10 10 0 0 0 10 -10 v -10 a 10 10 0 0 1 10 -10"></path><path d="M 343.5 173 a 10 10 0 0 1 10 10 v 40 a 10 10 0 0 0 10 10"></path><g class="terminal ">
<path d="M 363.5 233 h 0.0"></path><path d="M 426.0 233 h 0.0"></path><rect height="22" rx="10" ry="10" width="62.5" x="363.5" y="222"></rect><text x="394.75" y="237">"ord"</text></g><path d="M 426.0 233 a 10 10 0 0 0 10 -10 v -40 a 10 10 0 0 1 10 -10"></path><path d="M 343.5 173 a 10 10 0 0 1 10 10 v 70 a 10 10 0 0 0 10 10"></path><g class="terminal ">
<path d="M 363.5 263 h 4.25"></path><path d="M 421.75 263 h 4.25"></path><rect height="22" rx="10" ry="10" width="54.0" x="367.75" y="252"></rect><text x="394.75" y="267">"pn"</text></g><path d="M 426.0 263 a 10 10 0 0 0 10 -10 v -70 a 10 10 0 0 1 10 -10"></path><path d="M 343.5 173 a 10 10 0 0 1 10 10 v 100 a 10 10 0 0 0 10 10"></path><g class="terminal ">
<path d="M 363.5 293 h 0.0"></path><path d="M 426.0 293 h 0.0"></path><rect height="22" rx="10" ry="10" width="62.5" x="363.5" y="282"></rect><text x="394.75" y="297">"png"</text></g><path d="M 426.0 293 a 10 10 0 0 0 10 -10 v -100 a 10 10 0 0 1 10 -10"></path><path d="M 343.5 173 a 10 10 0 0 1 10 10 v 130 a 10 10 0 0 0 10 10"></path><g class="terminal ">
<path d="M 363.5 323 h 0.0"></path><path d="M 426.0 323 h 0.0"></path><rect height="22" rx="10" ry="10" width="62.5" x="363.5" y="312"></rect><text x="394.75" y="327">"pro"</text></g><path d="M 426.0 323 a 10 10 0 0 0 10 -10 v -130 a 10 10 0 0 1 10 -10"></path></g><path d="M 456.0 173 a 10 10 0 0 1 10 10 v 159 a 10 10 0 0 0 10 10"></path><path d="M 456.0 54 a 10 10 0 0 1 10 10 v 99 a 10 10 0 0 0 10 10"></path><g>
<path d="M 476.0 173 h 10.0"></path><path d="M 588.5 173 h 10.0"></path><path d="M 486.0 173 a 10 10 0 0 0 10 -10 v -10 a 10 10 0 0 1 10 -10"></path><g class="terminal ">
<path d="M 506.0 143 h 0.0"></path><path d="M 568.5 143 h 0.0"></path><rect height="22" rx="10" ry="10" width="62.5" x="506.0" y="132"></rect><text x="537.25" y="147">"sig"</text></g><path d="M 568.5 143 a 10 10 0 0 1 10 10 v 10 a 10 10 0 0 0 10 10"></path><path d="M 486.0 173 a 10 10 0 0 0 10 -10 v -40 a 10 10 0 0 1 10 -10"></path><g class="terminal ">
<path d="M 506.0 113 h 4.25"></path><path d="M 564.25 113 h 4.25"></path><rect height="22" rx="10" ry="10" width="54.0" x="510.25" y="102"></rect><text x="537.25" y="117">"rq"</text></g><path d="M 568.5 113 a 10 10 0 0 1 10 10 v 40 a 10 10 0 0 0 10 10"></path><path d="M 486.0 173 a 10 10 0 0 0 10 -10 v -70 a 10 10 0 0 1 10 -10"></path><g class="terminal ">
<path d="M 506.0 83 h 4.25"></path><path d="M 564.25 83 h 4.25"></path><rect height="22" rx="10" ry="10" width="54.0" x="510.25" y="72"></rect><text x="537.25" y="87">"qt"</text></g><path d="M 568.5 83 a 10 10 0 0 1 10 10 v 70 a 10 10 0 0 0 10 10"></path><path d="M 486.0 173 h 20"></path><g class="terminal ">
<path d="M 506.0 173 h 0.0"></path><path d="M 568.5 173 h 0.0"></path><rect height="22" rx="10" ry="10" width="62.5" x="506.0" y="162"></rect><text x="537.25" y="177">"sls"</text></g><path d="M 568.5 173 h 20"></path><path d="M 486.0 173 a 10 10 0 0 1 10 10 v 10 a 10 10 0 0 0 10 10"></path><g class="terminal ">
<path d="M 506.0 203 h 4.25"></path><path d="M 564.25 203 h 4.25"></path><rect height="22" rx="10" ry="10" width="54.0" x="510.25" y="192"></rect><text x="537.25" y="207">"tl"</text></g><path d="M 568.5 203 a 10 10 0 0 0 10 -10 v -10 a 10 10 0 0 1 10 -10"></path><path d="M 486.0 173 a 10 10 0 0 1 10 10 v 40 a 10 10 0 0 0 10 10"></path><g class="terminal ">
<path d="M 506.0 233 h 4.25"></path><path d="M 564.25 233 h 4.25"></path><rect height="22" rx="10" ry="10" width="54.0" x="510.25" y="222"></rect><text x="537.25" y="237">"wg"</text></g><path d="M 568.5 233 a 10 10 0 0 0 10 -10 v -40 a 10 10 0 0 1 10 -10"></path><path d="M 486.0 173 a 10 10 0 0 1 10 10 v 70 a 10 10 0 0 0 10 10"></path><g class="terminal ">
<path d="M 506.0 263 h 4.25"></path><path d="M 564.25 263 h 4.25"></path><rect height="22" rx="10" ry="10" width="54.0" x="510.25" y="252"></rect><text x="537.25" y="267">"wh"</text></g><path d="M 568.5 263 a 10 10 0 0 0 10 -10 v -70 a 10 10 0 0 1 10 -10"></path><path d="M 486.0 173 a 10 10 0 0 1 10 10 v 100 a 10 10 0 0 0 10 10"></path><g class="terminal ">
<path d="M 506.0 293 h 4.25"></path><path d="M 564.25 293 h 4.25"></path><rect height="22" rx="10" ry="10" width="54.0" x="510.25" y="282"></rect><text x="537.25" y="297">"wa"</text></g><path d="M 568.5 293 a 10 10 0 0 0 10 -10 v -100 a 10 10 0 0 1 10 -10"></path><path d="M 486.0 173 a 10 10 0 0 1 10 10 v 130 a 10 10 0 0 0 10 10"></path><g class="terminal ">
<path d="M 506.0 323 h 4.25"></path><path d="M 564.25 323 h 4.25"></path><rect height="22" rx="10" ry="10" width="54.0" x="510.25" y="312"></rect><text x="537.25" y="327">"wj"</text></g><path d="M 568.5 323 a 10 10 0 0 0 10 -10 v -130 a 10 10 0 0 1 10 -10"></path></g><path d="M 598.5 173 a 10 10 0 0 1 10 10 v 159 a 10 10 0 0 0 10 10"></path><path d="M 598.5 54 a 10 10 0 0 1 10 10 v 99 a 10 10 0 0 0 10 10"></path><g>
<path d="M 618.5 173 h 10.0"></path><path d="M 739.5 173 h 10.0"></path><path d="M 628.5 173 a 10 10 0 0 0 10 -10 v -10 a 10 10 0 0 1 10 -10"></path><g class="terminal ">
<path d="M 648.5 143 h 8.5"></path><path d="M 711.0 143 h 8.5"></path><rect height="22" rx="10" ry="10" width="54.0" x="657.0" y="132"></rect><text x="684.0" y="147">"no"</text></g><path d="M 719.5 143 a 10 10 0 0 1 10 10 v 10 a 10 10 0 0 0 10 10"></path><path d="M 628.5 173 a 10 10 0 0 0 10 -10 v -40 a 10 10 0 0 1 10 -10"></path><g class="terminal ">
<path d="M 648.5 113 h 4.25"></path><path d="M 715.25 113 h 4.25"></path><rect height="22" rx="10" ry="10" width="62.5" x="652.75" y="102"></rect><text x="684.0" y="117">"jmp"</text></g><path d="M 719.5 113 a 10 10 0 0 1 10 10 v 40 a 10 10 0 0 0 10 10"></path><path d="M 628.5 173 a 10 10 0 0 0 10 -10 v -70 a 10 10 0 0 1 10 -10"></path><g class="terminal ">
<path d="M 648.5 83 h 8.5"></path><path d="M 711.0 83 h 8.5"></path><rect height="22" rx="10" ry="10" width="54.0" x="657.0" y="72"></rect><text x="684.0" y="87">"xt"</text></g><path d="M 719.5 83 a 10 10 0 0 1 10 10 v 70 a 10 10 0 0 0 10 10"></path><path d="M 628.5 173 h 20"></path><g class="terminal ">
<path d="M 648.5 173 h 8.5"></path><path d="M 711.0 173 h 8.5"></path><rect height="22" rx="10" ry="10" width="54.0" x="657.0" y="162"></rect><text x="684.0" y="177">"it"</text></g><path d="M 719.5 173 h 20"></path><path d="M 628.5 173 a 10 10 0 0 1 10 10 v 10 a 10 10 0 0 0 10 10"></path><g class="terminal ">
<path d="M 648.5 203 h 8.5"></path><path d="M 711.0 203 h 8.5"></path><rect height="22" rx="10" ry="10" width="54.0" x="657.0" y="192"></rect><text x="684.0" y="207">"bd"</text></g><path d="M 719.5 203 a 10 10 0 0 0 10 -10 v -10 a 10 10 0 0 1 10 -10"></path><path d="M 628.5 173 a 10 10 0 0 1 10 10 v 40 a 10 10 0 0 0 10 10"></path><g class="terminal ">
<path d="M 648.5 233 h 0.0"></path><path d="M 719.5 233 h 0.0"></path><rect height="22" rx="10" ry="10" width="71.0" x="648.5" y="222"></rect><text x="684.0" y="237">"bdit"</text></g><path d="M 719.5 233 a 10 10 0 0 0 10 -10 v -40 a 10 10 0 0 1 10 -10"></path><path d="M 628.5 173 a 10 10 0 0 1 10 10 v 70 a 10 10 0 0 0 10 10"></path><g class="terminal ">
<path d="M 648.5 263 h 8.5"></path><path d="M 711.0 263 h 8.5"></path><rect height="22" rx="10" ry="10" width="54.0" x="657.0" y="252"></rect><text x="684.0" y="267">"em"</text></g><path d="M 719.5 263 a 10 10 0 0 0 10 -10 v -70 a 10 10 0 0 1 10 -10"></path><path d="M 628.5 173 a 10 10 0 0 1 10 10 v 100 a 10 10 0 0 0 10 10"></path><g class="terminal ">
<path d="M 648.5 293 h 8.5"></path><path d="M 711.0 293 h 8.5"></path><rect height="22" rx="10" ry="10" width="54.0" x="657.0" y="282"></rect><text x="684.0" y="297">"sc"</text></g><path d="M 719.5 293 a 10 10 0 0 0 10 -10 v -100 a 10 10 0 0 1 10 -10"></path><path d="M 628.5 173 a 10 10 0 0 1 10 10 v 130 a 10 10 0 0 0 10 10"></path><g class="terminal ">
<path d="M 648.5 323 h 4.25"></path><path d="M 715.25 323 h 4.25"></path><rect height="22" rx="10" ry="10" width="62.5" x="652.75" y="312"></rect><text x="684.0" y="327">"sup"</text></g><path d="M 719.5 323 a 10 10 0 0 0 10 -10 v -130 a 10 10 0 0 1 10 -10"></path></g><path d="M 749.5 173 h 10"></path></g></g><g class="non-terminal ">
<path d="M 154.0 38 h 0.0"></path><path d="M 171.0 38 h 0.0"></path><text class="comment" x="162.5" y="43">➊</text></g></g><path d="M 769.5 173 h 10"></path><path d="M 779.5 173 h 10"></path><g class="terminal ">
<path d="M 789.5 173 h 0.0"></path><path d="M 860.5 173 h 0.0"></path><rect height="22" rx="10" ry="10" width="71.0" x="789.5" y="162"></rect><text x="825.0" y="177">TAGEND</text></g></g><path d="M 870.5 173 h 0.0"></path></g><path d="M 870.5 173 h 10"></path><path d="M 880.5 173 h 10"></path><g class="non-terminal ">
<path d="M 890.5 173 h 0.0"></path><path d="M 1004.0 173 h 0.0"></path><rect height="22" width="113.5" x="890.5" y="162"></rect><text x="947.25" y="177">CharContent</text></g><path d="M 1004.0 173 h 10"></path><path d="M 1014.0 173 h 10"></path><g class="terminal ">
<path d="M 1024.0 173 h 0.0"></path><path d="M 1069.5 173 h 0.0"></path><rect height="22" rx="10" ry="10" width="45.5" x="1024.0" y="162"></rect><text x="1046.75" y="177">'\'</text></g><path d="M 1069.5 173 h 10"></path><path d="M 1079.5 173 h 10"></path><g class="terminal ">
<path d="M 1089.5 173 h 0.0"></path><path d="M 1135.0 173 h 0.0"></path><rect height="22" rx="10" ry="10" width="45.5" x="1089.5" y="162"></rect><text x="1112.25" y="177">⇐ ➊</text></g><path d="M 1135.0 173 h 10"></path><path d="M 1145.0 173 h 10"></path><g class="terminal ">
<path d="M 1155.0 173 h 0.0"></path><path d="M 1209.0 173 h 0.0"></path><rect height="22" rx="10" ry="10" width="54.0" x="1155.0" y="162"></rect><text x="1182.0" y="177">'\+'</text></g></g><path d="M 1209.0 173 h 20"></path><path d="M 50.0 173 a 10 10 0 0 1 10 10 v 220 a 10 10 0 0 0 10 10"></path><g>
<path d="M 70.0 413 h 41.5"></path><path d="M 1167.5 413 h 41.5"></path><g class="terminal ">
<path d="M 111.5 413 h 0.0"></path><path d="M 165.5 413 h 0.0"></path><rect height="22" rx="10" ry="10" width="54.0" x="111.5" y="402"></rect><text x="138.5" y="417">'\+'</text></g><path d="M 165.5 413 h 10"></path><path d="M 175.5 413 h 10"></path><g>
<path d="M 185.5 413 h 0.0"></path><path d="M 299.5 413 h 0.0"></path><rect class="group-box" height="88" rx="10" ry="10" width="114.0" x="185.5" y="384"></rect><g>
<path d="M 185.5 413 h 10.0"></path><path d="M 289.5 413 h 10.0"></path><g>
<path d="M 195.5 413 h 0.0"></path><path d="M 289.5 413 h 0.0"></path><path d="M 195.5 413 h 20"></path><g class="terminal ">
<path d="M 215.5 413 h 4.25"></path><path d="M 265.25 413 h 4.25"></path><rect height="22" rx="10" ry="10" width="45.5" x="219.75" y="402"></rect><text x="242.5" y="417">"w"</text></g><path d="M 269.5 413 h 20"></path><path d="M 195.5 413 a 10 10 0 0 1 10 10 v 10 a 10 10 0 0 0 10 10"></path><g class="terminal ">
<path d="M 215.5 443 h 0.0"></path><path d="M 269.5 443 h 0.0"></path><rect height="22" rx="10" ry="10" width="54.0" x="215.5" y="432"></rect><text x="242.5" y="447">"rb"</text></g><path d="M 269.5 443 a 10 10 0 0 0 10 -10 v -10 a 10 10 0 0 1 10 -10"></path></g></g><g class="non-terminal ">
<path d="M 185.5 376 h 0.0"></path><path d="M 202.5 376 h 0.0"></path><text class="comment" x="194.0" y="381">➋</text></g></g><path d="M 299.5 413 h 10"></path><path d="M 309.5 413 h 10"></path><g class="terminal ">
<path d="M 319.5 413 h 0.0"></path><path d="M 390.5 413 h 0.0"></path><rect height="22" rx="10" ry="10" width="71.0" x="319.5" y="402"></rect><text x="355.0" y="417">TAGEND</text></g><path d="M 390.5 413 h 10"></path><path d="M 400.5 413 h 10"></path><g>
<path d="M 410.5 413 h 0.0"></path><path d="M 962.5 413 h 0.0"></path><path d="M 410.5 413 h 20"></path><g>
<path d="M 430.5 413 h 512.0"></path></g><path d="M 942.5 413 h 20"></path><path d="M 410.5 413 a 10 10 0 0 1 10 10 v 9 a 10 10 0 0 0 10 10"></path><g>
<path d="M 430.5 442 h 0.0"></path><path d="M 942.5 442 h 0.0"></path><g class="terminal ">
<path d="M 430.5 442 h 0.0"></path><path d="M 476.0 442 h 0.0"></path><rect height="22" rx="10" ry="10" width="45.5" x="430.5" y="431"></rect><text x="453.25" y="446">'|'</text></g><path d="M 476.0 442 h 10"></path><path d="M 486.0 442 h 10"></path><g>
<path d="M 496.0 442 h 0.0"></path><path d="M 942.5 442 h 0.0"></path><path d="M 496.0 442 h 20"></path><g>
<path d="M 516.0 442 h 155.0"></path><path d="M 767.5 442 h 155.0"></path><g class="terminal ">
<path d="M 671.0 442 h 0.0"></path><path d="M 767.5 442 h 0.0"></path><rect height="22" rx="10" ry="10" width="96.5" x="671.0" y="431"></rect><text x="719.25" y="446">/&#91;^\\=&#93;&#42;/</text></g></g><path d="M 922.5 442 h 20"></path><path d="M 496.0 442 a 10 10 0 0 1 10 10 v 10 a 10 10 0 0 0 10 10"></path><g>
<path d="M 516.0 472 h 0.0"></path><path d="M 922.5 472 h 0.0"></path><path d="M 516.0 472 h 10"></path><g>
<path d="M 526.0 472 h 0.0"></path><path d="M 912.5 472 h 0.0"></path><g class="terminal ">
<path d="M 526.0 472 h 0.0"></path><path d="M 631.0 472 h 0.0"></path><rect height="22" rx="10" ry="10" width="105.0" x="526.0" y="461"></rect><text x="578.5" y="476">/&#91;^\\="&#93;+/</text></g><path d="M 631.0 472 h 10"></path><path d="M 641.0 472 h 10"></path><g class="terminal ">
<path d="M 651.0 472 h 0.0"></path><path d="M 705.0 472 h 0.0"></path><rect height="22" rx="10" ry="10" width="54.0" x="651.0" y="461"></rect><text x="678.0" y="476">'='"</text></g><path d="M 705.0 472 h 10"></path><path d="M 715.0 472 h 10"></path><g class="terminal ">
<path d="M 725.0 472 h 0.0"></path><path d="M 821.5 472 h 0.0"></path><rect height="22" rx="10" ry="10" width="96.5" x="725.0" y="461"></rect><text x="773.25" y="476">/&#91;^\\"&#93;+/</text></g><path d="M 821.5 472 h 10"></path><path d="M 831.5 472 h 10"></path><g class="terminal ">
<path d="M 841.5 472 h 0.0"></path><path d="M 912.5 472 h 0.0"></path><rect height="22" rx="10" ry="10" width="71.0" x="841.5" y="461"></rect><text x="877.0" y="476">/"\s&#42;/</text></g></g><path d="M 912.5 472 h 10"></path><path d="M 526.0 472 a 10 10 0 0 0 -10 10 v 0 a 10 10 0 0 0 10 10"></path><g>
<path d="M 526.0 492 h 386.5"></path></g><path d="M 912.5 492 a 10 10 0 0 0 10 -10 v 0 a 10 10 0 0 0 -10 -10"></path></g><path d="M 922.5 472 a 10 10 0 0 0 10 -10 v -10 a 10 10 0 0 1 10 -10"></path></g></g><path d="M 942.5 442 a 10 10 0 0 0 10 -10 v -9 a 10 10 0 0 1 10 -10"></path></g><path d="M 962.5 413 h 10"></path><path d="M 972.5 413 h 10"></path><g class="terminal ">
<path d="M 982.5 413 h 0.0"></path><path d="M 1036.5 413 h 0.0"></path><rect height="22" rx="10" ry="10" width="54.0" x="982.5" y="402"></rect><text x="1009.5" y="417">'\+'</text></g><path d="M 1036.5 413 h 10"></path><path d="M 1046.5 413 h 10"></path><g class="terminal ">
<path d="M 1056.5 413 h 0.0"></path><path d="M 1102.0 413 h 0.0"></path><rect height="22" rx="10" ry="10" width="45.5" x="1056.5" y="402"></rect><text x="1079.25" y="417">⇐ ➋</text></g><path d="M 1102.0 413 h 10"></path><path d="M 1112.0 413 h 10"></path><g class="terminal ">
<path d="M 1122.0 413 h 0.0"></path><path d="M 1167.5 413 h 0.0"></path><rect height="22" rx="10" ry="10" width="45.5" x="1122.0" y="402"></rect><text x="1144.75" y="417">'&#42;'</text></g></g><path d="M 1209.0 413 a 10 10 0 0 0 10 -10 v -220 a 10 10 0 0 1 10 -10"></path></g></g><path d="M 1229.0 173 h 10"></path><path d="M 1239.0 173 h 20 m 0 -10 v 20"></path></g></svg>