<svg class="railroad-diagram" height="796" viewBox="0 0 2196.0 796" width="2196.0" xmlns="http://www.w3.org/2000/svg" xmlns:xlink="http://www.w3.org/1999/xlink">
<g transform="translate(.5 .5)">
<style>/* <![CDATA[ */

    svg.railroad-diagram {
        background-color: hsl(30,20%,95%);
    }
    svg.railroad-diagram path {
        stroke-width: 2;
        stroke: black;
        fill: none;
    }
    svg.railroad-diagram text {
        font-size: 12px;
        text-anchor: middle;
        font-family: DejaVu Sans;
    }
    svg.railroad-diagram text.label {
        text-anchor:start;
    }
    svg.railroad-diagram text.comment {
        font-family: DejaVu Sans;
        font-size: 14px;
    }
    svg.railroad-diagram rect{
        stroke-width: 2;
        stroke: black;
        fill: rgb(210, 255, 210);
    }
    svg.railroad-diagram rect.group-box {
        stroke: gray;
        stroke-dasharray: 10 5;
        fill: none;
    }
    .terminal {
        font-family: DejaVu Sans;
    }
    svg.railroad-diagram g.altterminal rect {
        fill: rgb(251, 252, 207)
    }

/* ]]> */
</style><g>
<path d="M 20 173 v 20 m 0 -10 h 20"></path></g><path d="M 40 183 h 10"></path><g>
<path d="M 50 183 h 0.0"></path><path d="M 2146.0 183 h 0.0"></path><g>
<path d="M 50.0 183 h 0.0"></path><path d="M 2146.0 183 h 0.0"></path><path d="M 50.0 183 h 20"></path><g>
<path d="M 70.0 183 h 0.0"></path><path d="M 2126.0 183 h 0.0"></path><g>
<path d="M 70.0 183 h 0.0"></path><path d="M 2126.0 183 h 0.0"></path><path d="M 70.0 183 h 20"></path><g>
<path d="M 90.0 183 h 0.0"></path><path d="M 2106.0 183 h 0.0"></path><g>
<path d="M 90.0 183 h 0.0"></path><g>
<path d="M 90.0 183 h 10.0"></path><path d="M 1063.0 183 h 10.0"></path><g class="terminal ">
<path d="M 100.0 183 h 0.0"></path><path d="M 162.5 183 h 0.0"></path><rect height="22" rx="10" ry="10" width="62.5" x="100.0" y="172"></rect><text x="131.25" y="187">'\\+'</text></g><path d="M 162.5 183 h 10"></path><path d="M 172.5 183 h 10"></path><g>
<path d="M 182.5 183 h 0.0"></path><path d="M 932.0 183 h 0.0"></path><rect class="group-box" height="314" rx="10" ry="10" width="749.5" x="182.5" y="56"></rect><g>
<path d="M 182.5 183 h 10.0"></path><path d="M 922.0 183 h 10.0"></path><g>
<path d="M 192.5 183 h 0.0"></path><path d="M 922.0 183 h 0.0"></path><path d="M 192.5 183 a 10 10 0 0 0 10 -10 v -99 a 10 10 0 0 1 10 -10 h 565.5"></path><path d="M 362.0 362 h 540.0 a 10 10 0 0 0 10 -10 v -159 a 10 10 0 0 1 10 -10"></path><path d="M 192.5 183 h 10"></path><g>
<path d="M 202.5 183 h 10.0"></path><path d="M 332.0 183 h 10.0"></path><path d="M 212.5 183 a 10 10 0 0 0 10 -10 v -10 a 10 10 0 0 1 10 -10"></path><g class="terminal ">
<path d="M 232.5 153 h 12.75"></path><path d="M 299.25 153 h 12.75"></path><rect height="22" rx="10" ry="10" width="54.0" x="245.25" y="142"></rect><text x="272.25" y="157">"qs"</text></g><path d="M 312.0 153 a 10 10 0 0 1 10 10 v 10 a 10 10 0 0 0 10 10"></path><path d="M 212.5 183 a 10 10 0 0 0 10 -10 v -40 a 10 10 0 0 1 10 -10"></path><g class="terminal ">
<path d="M 232.5 123 h 8.5"></path><path d="M 303.5 123 h 8.5"></path><rect height="22" rx="10" ry="10" width="62.5" x="241.0" y="112"></rect><text x="272.25" y="127">"qac"</text></g><path d="M 312.0 123 a 10 10 0 0 1 10 10 v 40 a 10 10 0 0 0 10 10"></path><path d="M 212.5 183 a 10 10 0 0 0 10 -10 v -70 a 10 10 0 0 1 10 -10"></path><g class="terminal ">
<path d="M 232.5 93 h 12.75"></path><path d="M 299.25 93 h 12.75"></path><rect height="22" rx="10" ry="10" width="54.0" x="245.25" y="82"></rect><text x="272.25" y="97">"vp"</text></g><path d="M 312.0 93 a 10 10 0 0 1 10 10 v 70 a 10 10 0 0 0 10 10"></path><path d="M 212.5 183 h 20"></path><g class="terminal ">
<path d="M 232.5 183 h 8.5"></path><path d="M 303.5 183 h 8.5"></path><rect height="22" rx="10" ry="10" width="62.5" x="241.0" y="172"></rect><text x="272.25" y="187">"add"</text></g><path d="M 312.0 183 h 20"></path><path d="M 212.5 183 a 10 10 0 0 1 10 10 v 10 a 10 10 0 0 0 10 10"></path><g class="terminal ">
<path d="M 232.5 213 h 0.0"></path><path d="M 312.0 213 h 0.0"></path><rect height="22" rx="10" ry="10" width="79.5" x="232.5" y="202"></rect><text x="272.25" y="217">"addpn"</text></g><path d="M 312.0 213 a 10 10 0 0 0 10 -10 v -10 a 10 10 0 0 1 10 -10"></path><path d="M 212.5 183 a 10 10 0 0 1 10 10 v 40 a 10 10 0 0 0 10 10"></path><g class="terminal ">
<path d="M 232.5 243 h 12.75"></path><path d="M 299.25 243 h 12.75"></path><rect height="22" rx="10" ry="10" width="54.0" x="245.25" y="232"></rect><text x="272.25" y="247">"bk"</text></g><path d="M 312.0 243 a 10 10 0 0 0 10 -10 v -40 a 10 10 0 0 1 10 -10"></path><path d="M 212.5 183 a 10 10 0 0 1 10 10 v 70 a 10 10 0 0 0 10 10"></path><g class="terminal ">
<path d="M 232.5 273 h 12.75"></path><path d="M 299.25 273 h 12.75"></path><rect height="22" rx="10" ry="10" width="54.0" x="245.25" y="262"></rect><text x="272.25" y="277">"dc"</text></g><path d="M 312.0 273 a 10 10 0 0 0 10 -10 v -70 a 10 10 0 0 1 10 -10"></path><path d="M 212.5 183 a 10 10 0 0 1 10 10 v 100 a 10 10 0 0 0 10 10"></path><g class="terminal ">
<path d="M 232.5 303 h 8.5"></path><path d="M 303.5 303 h 8.5"></path><rect height="22" rx="10" ry="10" width="62.5" x="241.0" y="292"></rect><text x="272.25" y="307">"efm"</text></g><path d="M 312.0 303 a 10 10 0 0 0 10 -10 v -100 a 10 10 0 0 1 10 -10"></path><path d="M 212.5 183 a 10 10 0 0 1 10 10 v 130 a 10 10 0 0 0 10 10"></path><g class="terminal ">
<path d="M 232.5 333 h 12.75"></path><path d="M 299.25 333 h 12.75"></path><rect height="22" rx="10" ry="10" width="54.0" x="245.25" y="322"></rect><text x="272.25" y="337">"fm"</text></g><path d="M 312.0 333 a 10 10 0 0 0 10 -10 v -130 a 10 10 0 0 1 10 -10"></path></g><path d="M 342.0 183 a 10 10 0 0 1 10 10 v 159 a 10 10 0 0 0 10 10"></path><path d="M 342.0 64 a 10 10 0 0 1 10 10 v 99 a 10 10 0 0 0 10 10"></path><g>
<path d="M 362.0 183 h 10.0"></path><path d="M 474.5 183 h 10.0"></path><path d="M 372.0 183 a 10 10 0 0 0 10 -10 v -10 a 10 10 0 0 1 10 -10"></path><g class="terminal ">
<path d="M 392.0 153 h 0.0"></path><path d="M 454.5 153 h 0.0"></path><rect height="22" rx="10" ry="10" width="62.5" x="392.0" y="142"></rect><text x="423.25" y="157">"ndx"</text></g><path d="M 454.5 153 a 10 10 0 0 1 10 10 v 10 a 10 10 0 0 0 10 10"></path><path d="M 372.0 183 a 10 10 0 0 0 10 -10 v -40 a 10 10 0 0 1 10 -10"></path><g class="terminal ">
<path d="M 392.0 123 h 4.25"></path><path d="M 450.25 123 h 4.25"></path><rect height="22" rx="10" ry="10" width="54.0" x="396.25" y="112"></rect><text x="423.25" y="127">"nd"</text></g><path d="M 454.5 123 a 10 10 0 0 1 10 10 v 40 a 10 10 0 0 0 10 10"></path><path d="M 372.0 183 a 10 10 0 0 0 10 -10 v -70 a 10 10 0 0 1 10 -10"></path><g class="terminal ">
<path d="M 392.0 93 h 8.5"></path><path d="M 446.0 93 h 8.5"></path><rect height="22" rx="10" ry="10" width="45.5" x="400.5" y="82"></rect><text x="423.25" y="97">"k"</text></g><path d="M 454.5 93 a 10 10 0 0 1 10 10 v 70 a 10 10 0 0 0 10 10"></path><path d="M 372.0 183 h 20"></path><g class="terminal ">
<path d="M 392.0 183 h 0.0"></path><path d="M 454.5 183 h 0.0"></path><rect height="22" rx="10" ry="10" width="62.5" x="392.0" y="172"></rect><text x="423.25" y="187">"ord"</text></g><path d="M 454.5 183 h 20"></path><path d="M 372.0 183 a 10 10 0 0 1 10 10 v 10 a 10 10 0 0 0 10 10"></path><g class="terminal ">
<path d="M 392.0 213 h 0.0"></path><path d="M 454.5 213 h 0.0"></path><rect height="22" rx="10" ry="10" width="62.5" x="392.0" y="202"></rect><text x="423.25" y="217">"png"</text></g><path d="M 454.5 213 a 10 10 0 0 0 10 -10 v -10 a 10 10 0 0 1 10 -10"></path><path d="M 372.0 183 a 10 10 0 0 1 10 10 v 40 a 10 10 0 0 0 10 10"></path><g class="terminal ">
<path d="M 392.0 243 h 4.25"></path><path d="M 450.25 243 h 4.25"></path><rect height="22" rx="10" ry="10" width="54.0" x="396.25" y="232"></rect><text x="423.25" y="247">"pn"</text></g><path d="M 454.5 243 a 10 10 0 0 0 10 -10 v -40 a 10 10 0 0 1 10 -10"></path><path d="M 372.0 183 a 10 10 0 0 1 10 10 v 70 a 10 10 0 0 0 10 10"></path><g class="terminal ">
<path d="M 392.0 273 h 0.0"></path><path d="M 454.5 273 h 0.0"></path><rect height="22" rx="10" ry="10" width="62.5" x="392.0" y="262"></rect><text x="423.25" y="277">"pro"</text></g><path d="M 454.5 273 a 10 10 0 0 0 10 -10 v -70 a 10 10 0 0 1 10 -10"></path><path d="M 372.0 183 a 10 10 0 0 1 10 10 v 100 a 10 10 0 0 0 10 10"></path><g class="terminal ">
<path d="M 392.0 303 h 4.25"></path><path d="M 450.25 303 h 4.25"></path><rect height="22" rx="10" ry="10" width="54.0" x="396.25" y="292"></rect><text x="423.25" y="307">"qt"</text></g><path d="M 454.5 303 a 10 10 0 0 0 10 -10 v -100 a 10 10 0 0 1 10 -10"></path><path d="M 372.0 183 a 10 10 0 0 1 10 10 v 130 a 10 10 0 0 0 10 10"></path><g class="terminal ">
<path d="M 392.0 333 h 4.25"></path><path d="M 450.25 333 h 4.25"></path><rect height="22" rx="10" ry="10" width="54.0" x="396.25" y="322"></rect><text x="423.25" y="337">"rq"</text></g><path d="M 454.5 333 a 10 10 0 0 0 10 -10 v -130 a 10 10 0 0 1 10 -10"></path></g><path d="M 484.5 183 a 10 10 0 0 1 10 10 v 159 a 10 10 0 0 0 10 10"></path><path d="M 484.5 64 a 10 10 0 0 1 10 10 v 99 a 10 10 0 0 0 10 10"></path><g>
<path d="M 504.5 183 h 10.0"></path><path d="M 617.0 183 h 10.0"></path><path d="M 514.5 183 a 10 10 0 0 0 10 -10 v -10 a 10 10 0 0 1 10 -10"></path><g class="terminal ">
<path d="M 534.5 153 h 4.25"></path><path d="M 592.75 153 h 4.25"></path><rect height="22" rx="10" ry="10" width="54.0" x="538.75" y="142"></rect><text x="565.75" y="157">"tl"</text></g><path d="M 597.0 153 a 10 10 0 0 1 10 10 v 10 a 10 10 0 0 0 10 10"></path><path d="M 514.5 183 a 10 10 0 0 0 10 -10 v -40 a 10 10 0 0 1 10 -10"></path><g class="terminal ">
<path d="M 534.5 123 h 0.0"></path><path d="M 597.0 123 h 0.0"></path><rect height="22" rx="10" ry="10" width="62.5" x="534.5" y="112"></rect><text x="565.75" y="127">"sls"</text></g><path d="M 597.0 123 a 10 10 0 0 1 10 10 v 40 a 10 10 0 0 0 10 10"></path><path d="M 514.5 183 a 10 10 0 0 0 10 -10 v -70 a 10 10 0 0 1 10 -10"></path><g class="terminal ">
<path d="M 534.5 93 h 0.0"></path><path d="M 597.0 93 h 0.0"></path><rect height="22" rx="10" ry="10" width="62.5" x="534.5" y="82"></rect><text x="565.75" y="97">"sig"</text></g><path d="M 597.0 93 a 10 10 0 0 1 10 10 v 70 a 10 10 0 0 0 10 10"></path><path d="M 514.5 183 h 20"></path><g class="terminal ">
<path d="M 534.5 183 h 4.25"></path><path d="M 592.75 183 h 4.25"></path><rect height="22" rx="10" ry="10" width="54.0" x="538.75" y="172"></rect><text x="565.75" y="187">"wg"</text></g><path d="M 597.0 183 h 20"></path><path d="M 514.5 183 a 10 10 0 0 1 10 10 v 10 a 10 10 0 0 0 10 10"></path><g class="terminal ">
<path d="M 534.5 213 h 4.25"></path><path d="M 592.75 213 h 4.25"></path><rect height="22" rx="10" ry="10" width="54.0" x="538.75" y="202"></rect><text x="565.75" y="217">"wh"</text></g><path d="M 597.0 213 a 10 10 0 0 0 10 -10 v -10 a 10 10 0 0 1 10 -10"></path><path d="M 514.5 183 a 10 10 0 0 1 10 10 v 40 a 10 10 0 0 0 10 10"></path><g class="terminal ">
<path d="M 534.5 243 h 4.25"></path><path d="M 592.75 243 h 4.25"></path><rect height="22" rx="10" ry="10" width="54.0" x="538.75" y="232"></rect><text x="565.75" y="247">"wa"</text></g><path d="M 597.0 243 a 10 10 0 0 0 10 -10 v -40 a 10 10 0 0 1 10 -10"></path><path d="M 514.5 183 a 10 10 0 0 1 10 10 v 70 a 10 10 0 0 0 10 10"></path><g class="terminal ">
<path d="M 534.5 273 h 4.25"></path><path d="M 592.75 273 h 4.25"></path><rect height="22" rx="10" ry="10" width="54.0" x="538.75" y="262"></rect><text x="565.75" y="277">"wj"</text></g><path d="M 597.0 273 a 10 10 0 0 0 10 -10 v -70 a 10 10 0 0 1 10 -10"></path><path d="M 514.5 183 a 10 10 0 0 1 10 10 v 100 a 10 10 0 0 0 10 10"></path><g class="terminal ">
<path d="M 534.5 303 h 0.0"></path><path d="M 597.0 303 h 0.0"></path><rect height="22" rx="10" ry="10" width="62.5" x="534.5" y="292"></rect><text x="565.75" y="307">"jmp"</text></g><path d="M 597.0 303 a 10 10 0 0 0 10 -10 v -100 a 10 10 0 0 1 10 -10"></path><path d="M 514.5 183 a 10 10 0 0 1 10 10 v 130 a 10 10 0 0 0 10 10"></path><g class="terminal ">
<path d="M 534.5 333 h 4.25"></path><path d="M 592.75 333 h 4.25"></path><rect height="22" rx="10" ry="10" width="54.0" x="538.75" y="322"></rect><text x="565.75" y="337">"no"</text></g><path d="M 597.0 333 a 10 10 0 0 0 10 -10 v -130 a 10 10 0 0 1 10 -10"></path></g><path d="M 627.0 183 a 10 10 0 0 1 10 10 v 159 a 10 10 0 0 0 10 10"></path><path d="M 627.0 64 a 10 10 0 0 1 10 10 v 99 a 10 10 0 0 0 10 10"></path><g>
<path d="M 647.0 183 h 10.0"></path><path d="M 768.0 183 h 10.0"></path><path d="M 657.0 183 a 10 10 0 0 0 10 -10 v -10 a 10 10 0 0 1 10 -10"></path><g class="terminal ">
<path d="M 677.0 153 h 8.5"></path><path d="M 739.5 153 h 8.5"></path><rect height="22" rx="10" ry="10" width="54.0" x="685.5" y="142"></rect><text x="712.5" y="157">"bd"</text></g><path d="M 748.0 153 a 10 10 0 0 1 10 10 v 10 a 10 10 0 0 0 10 10"></path><path d="M 657.0 183 a 10 10 0 0 0 10 -10 v -40 a 10 10 0 0 1 10 -10"></path><g class="terminal ">
<path d="M 677.0 123 h 0.0"></path><path d="M 748.0 123 h 0.0"></path><rect height="22" rx="10" ry="10" width="71.0" x="677.0" y="112"></rect><text x="712.5" y="127">"bdit"</text></g><path d="M 748.0 123 a 10 10 0 0 1 10 10 v 40 a 10 10 0 0 0 10 10"></path><path d="M 657.0 183 a 10 10 0 0 0 10 -10 v -70 a 10 10 0 0 1 10 -10"></path><g class="terminal ">
<path d="M 677.0 93 h 8.5"></path><path d="M 739.5 93 h 8.5"></path><rect height="22" rx="10" ry="10" width="54.0" x="685.5" y="82"></rect><text x="712.5" y="97">"it"</text></g><path d="M 748.0 93 a 10 10 0 0 1 10 10 v 70 a 10 10 0 0 0 10 10"></path><path d="M 657.0 183 h 20"></path><g class="terminal ">
<path d="M 677.0 183 h 8.5"></path><path d="M 739.5 183 h 8.5"></path><rect height="22" rx="10" ry="10" width="54.0" x="685.5" y="172"></rect><text x="712.5" y="187">"em"</text></g><path d="M 748.0 183 h 20"></path><path d="M 657.0 183 a 10 10 0 0 1 10 10 v 10 a 10 10 0 0 0 10 10"></path><g class="terminal ">
<path d="M 677.0 213 h 8.5"></path><path d="M 739.5 213 h 8.5"></path><rect height="22" rx="10" ry="10" width="54.0" x="685.5" y="202"></rect><text x="712.5" y="217">"sc"</text></g><path d="M 748.0 213 a 10 10 0 0 0 10 -10 v -10 a 10 10 0 0 1 10 -10"></path><path d="M 657.0 183 a 10 10 0 0 1 10 10 v 40 a 10 10 0 0 0 10 10"></path><g class="terminal ">
<path d="M 677.0 243 h 4.25"></path><path d="M 743.75 243 h 4.25"></path><rect height="22" rx="10" ry="10" width="62.5" x="681.25" y="232"></rect><text x="712.5" y="247">"sup"</text></g><path d="M 748.0 243 a 10 10 0 0 0 10 -10 v -40 a 10 10 0 0 1 10 -10"></path><path d="M 657.0 183 a 10 10 0 0 1 10 10 v 70 a 10 10 0 0 0 10 10"></path><g class="terminal ">
<path d="M 677.0 273 h 12.75"></path><path d="M 735.25 273 h 12.75"></path><rect height="22" rx="10" ry="10" width="45.5" x="689.75" y="262"></rect><text x="712.5" y="277">"w"</text></g><path d="M 748.0 273 a 10 10 0 0 0 10 -10 v -70 a 10 10 0 0 1 10 -10"></path><path d="M 657.0 183 a 10 10 0 0 1 10 10 v 100 a 10 10 0 0 0 10 10"></path><g class="terminal ">
<path d="M 677.0 303 h 8.5"></path><path d="M 739.5 303 h 8.5"></path><rect height="22" rx="10" ry="10" width="54.0" x="685.5" y="292"></rect><text x="712.5" y="307">"rb"</text></g><path d="M 748.0 303 a 10 10 0 0 0 10 -10 v -100 a 10 10 0 0 1 10 -10"></path><path d="M 657.0 183 a 10 10 0 0 1 10 10 v 130 a 10 10 0 0 0 10 10"></path><g class="terminal ">
<path d="M 677.0 333 h 4.25"></path><path d="M 743.75 333 h 4.25"></path><rect height="22" rx="10" ry="10" width="62.5" x="681.25" y="322"></rect><text x="712.5" y="337">"jmp"</text></g><path d="M 748.0 333 a 10 10 0 0 0 10 -10 v -130 a 10 10 0 0 1 10 -10"></path></g><path d="M 778.0 183 a 10 10 0 0 1 10 10 v 159 a 10 10 0 0 0 10 10"></path><path d="M 778.0 64 a 10 10 0 0 1 10 10 v 99 a 10 10 0 0 0 10 10"></path><g>
<path d="M 798.0 183 h 10.0"></path><path d="M 902.0 183 h 10.0"></path><path d="M 808.0 183 h 20"></path><g class="terminal ">
<path d="M 828.0 183 h 0.0"></path><path d="M 882.0 183 h 0.0"></path><rect height="22" rx="10" ry="10" width="54.0" x="828.0" y="172"></rect><text x="855.0" y="187">"xt"</text></g><path d="M 882.0 183 h 20"></path></g><path d="M 912.0 183 h 10"></path></g></g><g class="non-terminal ">
<path d="M 182.5 48 h 0.0"></path><path d="M 199.5 48 h 0.0"></path><text class="comment" x="191.0" y="53">➋</text></g></g><path d="M 932.0 183 h 10"></path><path d="M 942.0 183 h 10"></path><g>
<path d="M 952.0 183 h 0.0"></path><path d="M 1063.0 183 h 0.0"></path><path d="M 952.0 183 h 20"></path><g class="terminal ">
<path d="M 972.0 183 h 12.75"></path><path d="M 1030.25 183 h 12.75"></path><rect height="22" rx="10" ry="10" width="45.5" x="984.75" y="172"></rect><text x="1007.5" y="187">' '</text></g><path d="M 1043.0 183 h 20"></path><path d="M 952.0 183 a 10 10 0 0 1 10 10 v 10 a 10 10 0 0 0 10 10"></path><g class="terminal altterminal">
<path d="M 972.0 213 h 0.0"></path><path d="M 1043.0 213 h 0.0"></path><rect height="22" rx="10" ry="10" width="71.0" x="972.0" y="202"></rect><text x="1007.5" y="217">TAGEND</text></g><path d="M 1043.0 213 a 10 10 0 0 0 10 -10 v -10 a 10 10 0 0 1 10 -10"></path></g></g><path d="M 1073.0 183 h 0.0"></path></g><path d="M 1073.0 183 h 10"></path><path d="M 1083.0 183 h 10"></path><g>
<path d="M 1093.0 183 h 0.0"></path><path d="M 1892.5 183 h 0.0"></path><path d="M 1093.0 183 h 20"></path><g>
<path d="M 1113.0 183 h 0.0"></path><path d="M 1872.5 183 h 0.0"></path><g class="non-terminal ">
<path d="M 1113.0 183 h 0.0"></path><path d="M 1226.5 183 h 0.0"></path><rect height="22" width="113.5" x="1113.0" y="172"></rect><text x="1169.75" y="187">CharContent</text></g><path d="M 1226.5 183 h 10"></path><path d="M 1236.5 183 h 10"></path><g>
<path d="M 1246.5 183 h 0.0"></path><path d="M 1872.5 183 h 0.0"></path><path d="M 1246.5 183 h 20"></path><g>
<path d="M 1266.5 183 h 586.0"></path></g><path d="M 1852.5 183 h 20"></path><path d="M 1246.5 183 a 10 10 0 0 1 10 10 v 9 a 10 10 0 0 0 10 10"></path><g>
<path d="M 1266.5 212 h 0.0"></path><path d="M 1852.5 212 h 0.0"></path><g>
<path d="M 1266.5 212 h 0.0"></path><path d="M 1360.5 212 h 0.0"></path><path d="M 1266.5 212 h 20"></path><g class="terminal ">
<path d="M 1286.5 212 h 4.25"></path><path d="M 1336.25 212 h 4.25"></path><rect height="22" rx="10" ry="10" width="45.5" x="1290.75" y="201"></rect><text x="1313.5" y="216">'|'</text></g><path d="M 1340.5 212 h 20"></path><path d="M 1266.5 212 a 10 10 0 0 1 10 10 v 10 a 10 10 0 0 0 10 10"></path><g class="terminal altterminal">
<path d="M 1286.5 242 h 0.0"></path><path d="M 1340.5 242 h 0.0"></path><rect height="22" rx="10" ry="10" width="54.0" x="1286.5" y="231"></rect><text x="1313.5" y="246">PIPE</text></g><path d="M 1340.5 242 a 10 10 0 0 0 10 -10 v -10 a 10 10 0 0 1 10 -10"></path></g><path d="M 1360.5 212 h 10"></path><path d="M 1370.5 212 h 10"></path><g>
<path d="M 1380.5 212 h 0.0"></path><path d="M 1852.5 212 h 0.0"></path><path d="M 1380.5 212 h 10"></path><g>
<path d="M 1390.5 212 h 0.0"></path><path d="M 1842.5 212 h 0.0"></path><g>
<path d="M 1390.5 212 h 0.0"></path><path d="M 1842.5 212 h 0.0"></path><path d="M 1390.5 212 h 20"></path><g class="terminal ">
<path d="M 1410.5 212 h 157.75"></path><path d="M 1664.75 212 h 157.75"></path><rect height="22" rx="10" ry="10" width="96.5" x="1568.25" y="201"></rect><text x="1616.5" y="216">ATTRIBALL</text></g><path d="M 1822.5 212 h 20"></path><path d="M 1390.5 212 a 10 10 0 0 1 10 10 v 10 a 10 10 0 0 0 10 10"></path><g>
<path d="M 1410.5 242 h 0.0"></path><path d="M 1822.5 242 h 0.0"></path><g class="terminal ">
<path d="M 1410.5 242 h 0.0"></path><path d="M 1515.5 242 h 0.0"></path><rect height="22" rx="10" ry="10" width="105.0" x="1410.5" y="231"></rect><text x="1463.0" y="246">ATTRIBNAME</text></g><path d="M 1515.5 242 h 10"></path><path d="M 1525.5 242 h 10"></path><g class="terminal ">
<path d="M 1535.5 242 h 0.0"></path><path d="M 1589.5 242 h 0.0"></path><rect height="22" rx="10" ry="10" width="54.0" x="1535.5" y="231"></rect><text x="1562.5" y="246">'="'</text></g><path d="M 1589.5 242 h 10"></path><path d="M 1599.5 242 h 10"></path><g class="terminal ">
<path d="M 1609.5 242 h 0.0"></path><path d="M 1714.5 242 h 0.0"></path><rect height="22" rx="10" ry="10" width="105.0" x="1609.5" y="231"></rect><text x="1662.0" y="246">ATTRIBTEXT</text></g><path d="M 1714.5 242 h 10"></path><path d="M 1724.5 242 h 10"></path><g class="terminal ">
<path d="M 1734.5 242 h 0.0"></path><path d="M 1822.5 242 h 0.0"></path><rect height="22" rx="10" ry="10" width="88.0" x="1734.5" y="231"></rect><text x="1778.5" y="246">/"${Hs}/</text></g></g><path d="M 1822.5 242 a 10 10 0 0 0 10 -10 v -10 a 10 10 0 0 1 10 -10"></path></g></g><path d="M 1842.5 212 h 10"></path><path d="M 1390.5 212 a 10 10 0 0 0 -10 10 v 39 a 10 10 0 0 0 10 10"></path><g>
<path d="M 1390.5 271 h 452.0"></path></g><path d="M 1842.5 271 a 10 10 0 0 0 10 -10 v -39 a 10 10 0 0 0 -10 -10"></path></g></g><path d="M 1852.5 212 a 10 10 0 0 0 10 -10 v -9 a 10 10 0 0 1 10 -10"></path></g></g><path d="M 1872.5 183 h 20"></path><path d="M 1093.0 183 a 10 10 0 0 1 10 10 v 107 a 10 10 0 0 0 10 10"></path><g>
<path d="M 1113.0 310 h 86.75"></path><path d="M 1785.75 310 h 86.75"></path><g>
<path d="M 1199.75 310 h 0.0"></path><path d="M 1293.75 310 h 0.0"></path><path d="M 1199.75 310 h 20"></path><g class="terminal ">
<path d="M 1219.75 310 h 4.25"></path><path d="M 1269.5 310 h 4.25"></path><rect height="22" rx="10" ry="10" width="45.5" x="1224.0" y="299"></rect><text x="1246.75" y="314">'|'</text></g><path d="M 1273.75 310 h 20"></path><path d="M 1199.75 310 a 10 10 0 0 1 10 10 v 10 a 10 10 0 0 0 10 10"></path><g class="terminal altterminal">
<path d="M 1219.75 340 h 0.0"></path><path d="M 1273.75 340 h 0.0"></path><rect height="22" rx="10" ry="10" width="54.0" x="1219.75" y="329"></rect><text x="1246.75" y="344">PIPE</text></g><path d="M 1273.75 340 a 10 10 0 0 0 10 -10 v -10 a 10 10 0 0 1 10 -10"></path></g><path d="M 1293.75 310 h 10"></path><path d="M 1303.75 310 h 10"></path><g>
<path d="M 1313.75 310 h 0.0"></path><path d="M 1785.75 310 h 0.0"></path><path d="M 1313.75 310 h 10"></path><g>
<path d="M 1323.75 310 h 0.0"></path><path d="M 1775.75 310 h 0.0"></path><g>
<path d="M 1323.75 310 h 0.0"></path><path d="M 1775.75 310 h 0.0"></path><path d="M 1323.75 310 h 20"></path><g class="terminal ">
<path d="M 1343.75 310 h 157.75"></path><path d="M 1598.0 310 h 157.75"></path><rect height="22" rx="10" ry="10" width="96.5" x="1501.5" y="299"></rect><text x="1549.75" y="314">ATTRIBALL</text></g><path d="M 1755.75 310 h 20"></path><path d="M 1323.75 310 a 10 10 0 0 1 10 10 v 10 a 10 10 0 0 0 10 10"></path><g>
<path d="M 1343.75 340 h 0.0"></path><path d="M 1755.75 340 h 0.0"></path><g class="terminal ">
<path d="M 1343.75 340 h 0.0"></path><path d="M 1448.75 340 h 0.0"></path><rect height="22" rx="10" ry="10" width="105.0" x="1343.75" y="329"></rect><text x="1396.25" y="344">ATTRIBNAME</text></g><path d="M 1448.75 340 h 10"></path><path d="M 1458.75 340 h 10"></path><g class="terminal ">
<path d="M 1468.75 340 h 0.0"></path><path d="M 1522.75 340 h 0.0"></path><rect height="22" rx="10" ry="10" width="54.0" x="1468.75" y="329"></rect><text x="1495.75" y="344">'="'</text></g><path d="M 1522.75 340 h 10"></path><path d="M 1532.75 340 h 10"></path><g class="terminal ">
<path d="M 1542.75 340 h 0.0"></path><path d="M 1647.75 340 h 0.0"></path><rect height="22" rx="10" ry="10" width="105.0" x="1542.75" y="329"></rect><text x="1595.25" y="344">ATTRIBTEXT</text></g><path d="M 1647.75 340 h 10"></path><path d="M 1657.75 340 h 10"></path><g class="terminal ">
<path d="M 1667.75 340 h 0.0"></path><path d="M 1755.75 340 h 0.0"></path><rect height="22" rx="10" ry="10" width="88.0" x="1667.75" y="329"></rect><text x="1711.75" y="344">/"${Hs}/</text></g></g><path d="M 1755.75 340 a 10 10 0 0 0 10 -10 v -10 a 10 10 0 0 1 10 -10"></path></g></g><path d="M 1775.75 310 h 10"></path><path d="M 1323.75 310 a 10 10 0 0 0 -10 10 v 39 a 10 10 0 0 0 10 10"></path><g>
<path d="M 1323.75 369 h 452.0"></path></g><path d="M 1775.75 369 a 10 10 0 0 0 10 -10 v -39 a 10 10 0 0 0 -10 -10"></path></g></g><path d="M 1872.5 310 a 10 10 0 0 0 10 -10 v -107 a 10 10 0 0 1 10 -10"></path></g><path d="M 1892.5 183 h 10"></path><path d="M 1902.5 183 h 10"></path><g class="terminal ">
<path d="M 1912.5 183 h 0.0"></path><path d="M 1975.0 183 h 0.0"></path><rect height="22" rx="10" ry="10" width="62.5" x="1912.5" y="172"></rect><text x="1943.75" y="187">'\\+'</text></g><path d="M 1975.0 183 h 10"></path><path d="M 1985.0 183 h 10"></path><g class="terminal ">
<path d="M 1995.0 183 h 0.0"></path><path d="M 2040.5 183 h 0.0"></path><rect height="22" rx="10" ry="10" width="45.5" x="1995.0" y="172"></rect><text x="2017.75" y="187">⇐ ➋</text></g><path d="M 2040.5 183 h 10"></path><path d="M 2050.5 183 h 10"></path><g class="terminal ">
<path d="M 2060.5 183 h 0.0"></path><path d="M 2106.0 183 h 0.0"></path><rect height="22" rx="10" ry="10" width="45.5" x="2060.5" y="172"></rect><text x="2083.25" y="187">'&#42;'</text></g></g><path d="M 2106.0 183 h 20"></path><path d="M 70.0 183 a 10 10 0 0 1 10 10 v 327 a 10 10 0 0 0 10 10"></path><g>
<path d="M 90.0 530 h 8.5"></path><path d="M 2097.5 530 h 8.5"></path><g>
<path d="M 98.5 530 h 0.0"></path><g>
<path d="M 98.5 530 h 10.0"></path><path d="M 1063.0 530 h 10.0"></path><g class="terminal ">
<path d="M 108.5 530 h 0.0"></path><path d="M 162.5 530 h 0.0"></path><rect height="22" rx="10" ry="10" width="54.0" x="108.5" y="519"></rect><text x="135.5" y="534">'\\'</text></g><path d="M 162.5 530 h 10"></path><path d="M 172.5 530 h 10"></path><g>
<path d="M 182.5 530 h 0.0"></path><path d="M 932.0 530 h 0.0"></path><rect class="group-box" height="314" rx="10" ry="10" width="749.5" x="182.5" y="403"></rect><g>
<path d="M 182.5 530 h 10.0"></path><path d="M 922.0 530 h 10.0"></path><g>
<path d="M 192.5 530 h 0.0"></path><path d="M 922.0 530 h 0.0"></path><path d="M 192.5 530 a 10 10 0 0 0 10 -10 v -99 a 10 10 0 0 1 10 -10 h 565.5"></path><path d="M 362.0 709 h 540.0 a 10 10 0 0 0 10 -10 v -159 a 10 10 0 0 1 10 -10"></path><path d="M 192.5 530 h 10"></path><g>
<path d="M 202.5 530 h 10.0"></path><path d="M 332.0 530 h 10.0"></path><path d="M 212.5 530 a 10 10 0 0 0 10 -10 v -10 a 10 10 0 0 1 10 -10"></path><g class="terminal ">
<path d="M 232.5 500 h 12.75"></path><path d="M 299.25 500 h 12.75"></path><rect height="22" rx="10" ry="10" width="54.0" x="245.25" y="489"></rect><text x="272.25" y="504">"qs"</text></g><path d="M 312.0 500 a 10 10 0 0 1 10 10 v 10 a 10 10 0 0 0 10 10"></path><path d="M 212.5 530 a 10 10 0 0 0 10 -10 v -40 a 10 10 0 0 1 10 -10"></path><g class="terminal ">
<path d="M 232.5 470 h 8.5"></path><path d="M 303.5 470 h 8.5"></path><rect height="22" rx="10" ry="10" width="62.5" x="241.0" y="459"></rect><text x="272.25" y="474">"qac"</text></g><path d="M 312.0 470 a 10 10 0 0 1 10 10 v 40 a 10 10 0 0 0 10 10"></path><path d="M 212.5 530 a 10 10 0 0 0 10 -10 v -70 a 10 10 0 0 1 10 -10"></path><g class="terminal ">
<path d="M 232.5 440 h 12.75"></path><path d="M 299.25 440 h 12.75"></path><rect height="22" rx="10" ry="10" width="54.0" x="245.25" y="429"></rect><text x="272.25" y="444">"vp"</text></g><path d="M 312.0 440 a 10 10 0 0 1 10 10 v 70 a 10 10 0 0 0 10 10"></path><path d="M 212.5 530 h 20"></path><g class="terminal ">
<path d="M 232.5 530 h 8.5"></path><path d="M 303.5 530 h 8.5"></path><rect height="22" rx="10" ry="10" width="62.5" x="241.0" y="519"></rect><text x="272.25" y="534">"add"</text></g><path d="M 312.0 530 h 20"></path><path d="M 212.5 530 a 10 10 0 0 1 10 10 v 10 a 10 10 0 0 0 10 10"></path><g class="terminal ">
<path d="M 232.5 560 h 0.0"></path><path d="M 312.0 560 h 0.0"></path><rect height="22" rx="10" ry="10" width="79.5" x="232.5" y="549"></rect><text x="272.25" y="564">"addpn"</text></g><path d="M 312.0 560 a 10 10 0 0 0 10 -10 v -10 a 10 10 0 0 1 10 -10"></path><path d="M 212.5 530 a 10 10 0 0 1 10 10 v 40 a 10 10 0 0 0 10 10"></path><g class="terminal ">
<path d="M 232.5 590 h 12.75"></path><path d="M 299.25 590 h 12.75"></path><rect height="22" rx="10" ry="10" width="54.0" x="245.25" y="579"></rect><text x="272.25" y="594">"bk"</text></g><path d="M 312.0 590 a 10 10 0 0 0 10 -10 v -40 a 10 10 0 0 1 10 -10"></path><path d="M 212.5 530 a 10 10 0 0 1 10 10 v 70 a 10 10 0 0 0 10 10"></path><g class="terminal ">
<path d="M 232.5 620 h 12.75"></path><path d="M 299.25 620 h 12.75"></path><rect height="22" rx="10" ry="10" width="54.0" x="245.25" y="609"></rect><text x="272.25" y="624">"dc"</text></g><path d="M 312.0 620 a 10 10 0 0 0 10 -10 v -70 a 10 10 0 0 1 10 -10"></path><path d="M 212.5 530 a 10 10 0 0 1 10 10 v 100 a 10 10 0 0 0 10 10"></path><g class="terminal ">
<path d="M 232.5 650 h 8.5"></path><path d="M 303.5 650 h 8.5"></path><rect height="22" rx="10" ry="10" width="62.5" x="241.0" y="639"></rect><text x="272.25" y="654">"efm"</text></g><path d="M 312.0 650 a 10 10 0 0 0 10 -10 v -100 a 10 10 0 0 1 10 -10"></path><path d="M 212.5 530 a 10 10 0 0 1 10 10 v 130 a 10 10 0 0 0 10 10"></path><g class="terminal ">
<path d="M 232.5 680 h 12.75"></path><path d="M 299.25 680 h 12.75"></path><rect height="22" rx="10" ry="10" width="54.0" x="245.25" y="669"></rect><text x="272.25" y="684">"fm"</text></g><path d="M 312.0 680 a 10 10 0 0 0 10 -10 v -130 a 10 10 0 0 1 10 -10"></path></g><path d="M 342.0 530 a 10 10 0 0 1 10 10 v 159 a 10 10 0 0 0 10 10"></path><path d="M 342.0 411 a 10 10 0 0 1 10 10 v 99 a 10 10 0 0 0 10 10"></path><g>
<path d="M 362.0 530 h 10.0"></path><path d="M 474.5 530 h 10.0"></path><path d="M 372.0 530 a 10 10 0 0 0 10 -10 v -10 a 10 10 0 0 1 10 -10"></path><g class="terminal ">
<path d="M 392.0 500 h 0.0"></path><path d="M 454.5 500 h 0.0"></path><rect height="22" rx="10" ry="10" width="62.5" x="392.0" y="489"></rect><text x="423.25" y="504">"ndx"</text></g><path d="M 454.5 500 a 10 10 0 0 1 10 10 v 10 a 10 10 0 0 0 10 10"></path><path d="M 372.0 530 a 10 10 0 0 0 10 -10 v -40 a 10 10 0 0 1 10 -10"></path><g class="terminal ">
<path d="M 392.0 470 h 4.25"></path><path d="M 450.25 470 h 4.25"></path><rect height="22" rx="10" ry="10" width="54.0" x="396.25" y="459"></rect><text x="423.25" y="474">"nd"</text></g><path d="M 454.5 470 a 10 10 0 0 1 10 10 v 40 a 10 10 0 0 0 10 10"></path><path d="M 372.0 530 a 10 10 0 0 0 10 -10 v -70 a 10 10 0 0 1 10 -10"></path><g class="terminal ">
<path d="M 392.0 440 h 8.5"></path><path d="M 446.0 440 h 8.5"></path><rect height="22" rx="10" ry="10" width="45.5" x="400.5" y="429"></rect><text x="423.25" y="444">"k"</text></g><path d="M 454.5 440 a 10 10 0 0 1 10 10 v 70 a 10 10 0 0 0 10 10"></path><path d="M 372.0 530 h 20"></path><g class="terminal ">
<path d="M 392.0 530 h 0.0"></path><path d="M 454.5 530 h 0.0"></path><rect height="22" rx="10" ry="10" width="62.5" x="392.0" y="519"></rect><text x="423.25" y="534">"ord"</text></g><path d="M 454.5 530 h 20"></path><path d="M 372.0 530 a 10 10 0 0 1 10 10 v 10 a 10 10 0 0 0 10 10"></path><g class="terminal ">
<path d="M 392.0 560 h 0.0"></path><path d="M 454.5 560 h 0.0"></path><rect height="22" rx="10" ry="10" width="62.5" x="392.0" y="549"></rect><text x="423.25" y="564">"png"</text></g><path d="M 454.5 560 a 10 10 0 0 0 10 -10 v -10 a 10 10 0 0 1 10 -10"></path><path d="M 372.0 530 a 10 10 0 0 1 10 10 v 40 a 10 10 0 0 0 10 10"></path><g class="terminal ">
<path d="M 392.0 590 h 4.25"></path><path d="M 450.25 590 h 4.25"></path><rect height="22" rx="10" ry="10" width="54.0" x="396.25" y="579"></rect><text x="423.25" y="594">"pn"</text></g><path d="M 454.5 590 a 10 10 0 0 0 10 -10 v -40 a 10 10 0 0 1 10 -10"></path><path d="M 372.0 530 a 10 10 0 0 1 10 10 v 70 a 10 10 0 0 0 10 10"></path><g class="terminal ">
<path d="M 392.0 620 h 0.0"></path><path d="M 454.5 620 h 0.0"></path><rect height="22" rx="10" ry="10" width="62.5" x="392.0" y="609"></rect><text x="423.25" y="624">"pro"</text></g><path d="M 454.5 620 a 10 10 0 0 0 10 -10 v -70 a 10 10 0 0 1 10 -10"></path><path d="M 372.0 530 a 10 10 0 0 1 10 10 v 100 a 10 10 0 0 0 10 10"></path><g class="terminal ">
<path d="M 392.0 650 h 4.25"></path><path d="M 450.25 650 h 4.25"></path><rect height="22" rx="10" ry="10" width="54.0" x="396.25" y="639"></rect><text x="423.25" y="654">"qt"</text></g><path d="M 454.5 650 a 10 10 0 0 0 10 -10 v -100 a 10 10 0 0 1 10 -10"></path><path d="M 372.0 530 a 10 10 0 0 1 10 10 v 130 a 10 10 0 0 0 10 10"></path><g class="terminal ">
<path d="M 392.0 680 h 4.25"></path><path d="M 450.25 680 h 4.25"></path><rect height="22" rx="10" ry="10" width="54.0" x="396.25" y="669"></rect><text x="423.25" y="684">"rq"</text></g><path d="M 454.5 680 a 10 10 0 0 0 10 -10 v -130 a 10 10 0 0 1 10 -10"></path></g><path d="M 484.5 530 a 10 10 0 0 1 10 10 v 159 a 10 10 0 0 0 10 10"></path><path d="M 484.5 411 a 10 10 0 0 1 10 10 v 99 a 10 10 0 0 0 10 10"></path><g>
<path d="M 504.5 530 h 10.0"></path><path d="M 617.0 530 h 10.0"></path><path d="M 514.5 530 a 10 10 0 0 0 10 -10 v -10 a 10 10 0 0 1 10 -10"></path><g class="terminal ">
<path d="M 534.5 500 h 4.25"></path><path d="M 592.75 500 h 4.25"></path><rect height="22" rx="10" ry="10" width="54.0" x="538.75" y="489"></rect><text x="565.75" y="504">"tl"</text></g><path d="M 597.0 500 a 10 10 0 0 1 10 10 v 10 a 10 10 0 0 0 10 10"></path><path d="M 514.5 530 a 10 10 0 0 0 10 -10 v -40 a 10 10 0 0 1 10 -10"></path><g class="terminal ">
<path d="M 534.5 470 h 0.0"></path><path d="M 597.0 470 h 0.0"></path><rect height="22" rx="10" ry="10" width="62.5" x="534.5" y="459"></rect><text x="565.75" y="474">"sls"</text></g><path d="M 597.0 470 a 10 10 0 0 1 10 10 v 40 a 10 10 0 0 0 10 10"></path><path d="M 514.5 530 a 10 10 0 0 0 10 -10 v -70 a 10 10 0 0 1 10 -10"></path><g class="terminal ">
<path d="M 534.5 440 h 0.0"></path><path d="M 597.0 440 h 0.0"></path><rect height="22" rx="10" ry="10" width="62.5" x="534.5" y="429"></rect><text x="565.75" y="444">"sig"</text></g><path d="M 597.0 440 a 10 10 0 0 1 10 10 v 70 a 10 10 0 0 0 10 10"></path><path d="M 514.5 530 h 20"></path><g class="terminal ">
<path d="M 534.5 530 h 4.25"></path><path d="M 592.75 530 h 4.25"></path><rect height="22" rx="10" ry="10" width="54.0" x="538.75" y="519"></rect><text x="565.75" y="534">"wg"</text></g><path d="M 597.0 530 h 20"></path><path d="M 514.5 530 a 10 10 0 0 1 10 10 v 10 a 10 10 0 0 0 10 10"></path><g class="terminal ">
<path d="M 534.5 560 h 4.25"></path><path d="M 592.75 560 h 4.25"></path><rect height="22" rx="10" ry="10" width="54.0" x="538.75" y="549"></rect><text x="565.75" y="564">"wh"</text></g><path d="M 597.0 560 a 10 10 0 0 0 10 -10 v -10 a 10 10 0 0 1 10 -10"></path><path d="M 514.5 530 a 10 10 0 0 1 10 10 v 40 a 10 10 0 0 0 10 10"></path><g class="terminal ">
<path d="M 534.5 590 h 4.25"></path><path d="M 592.75 590 h 4.25"></path><rect height="22" rx="10" ry="10" width="54.0" x="538.75" y="579"></rect><text x="565.75" y="594">"wa"</text></g><path d="M 597.0 590 a 10 10 0 0 0 10 -10 v -40 a 10 10 0 0 1 10 -10"></path><path d="M 514.5 530 a 10 10 0 0 1 10 10 v 70 a 10 10 0 0 0 10 10"></path><g class="terminal ">
<path d="M 534.5 620 h 4.25"></path><path d="M 592.75 620 h 4.25"></path><rect height="22" rx="10" ry="10" width="54.0" x="538.75" y="609"></rect><text x="565.75" y="624">"wj"</text></g><path d="M 597.0 620 a 10 10 0 0 0 10 -10 v -70 a 10 10 0 0 1 10 -10"></path><path d="M 514.5 530 a 10 10 0 0 1 10 10 v 100 a 10 10 0 0 0 10 10"></path><g class="terminal ">
<path d="M 534.5 650 h 0.0"></path><path d="M 597.0 650 h 0.0"></path><rect height="22" rx="10" ry="10" width="62.5" x="534.5" y="639"></rect><text x="565.75" y="654">"jmp"</text></g><path d="M 597.0 650 a 10 10 0 0 0 10 -10 v -100 a 10 10 0 0 1 10 -10"></path><path d="M 514.5 530 a 10 10 0 0 1 10 10 v 130 a 10 10 0 0 0 10 10"></path><g class="terminal ">
<path d="M 534.5 680 h 4.25"></path><path d="M 592.75 680 h 4.25"></path><rect height="22" rx="10" ry="10" width="54.0" x="538.75" y="669"></rect><text x="565.75" y="684">"no"</text></g><path d="M 597.0 680 a 10 10 0 0 0 10 -10 v -130 a 10 10 0 0 1 10 -10"></path></g><path d="M 627.0 530 a 10 10 0 0 1 10 10 v 159 a 10 10 0 0 0 10 10"></path><path d="M 627.0 411 a 10 10 0 0 1 10 10 v 99 a 10 10 0 0 0 10 10"></path><g>
<path d="M 647.0 530 h 10.0"></path><path d="M 768.0 530 h 10.0"></path><path d="M 657.0 530 a 10 10 0 0 0 10 -10 v -10 a 10 10 0 0 1 10 -10"></path><g class="terminal ">
<path d="M 677.0 500 h 8.5"></path><path d="M 739.5 500 h 8.5"></path><rect height="22" rx="10" ry="10" width="54.0" x="685.5" y="489"></rect><text x="712.5" y="504">"bd"</text></g><path d="M 748.0 500 a 10 10 0 0 1 10 10 v 10 a 10 10 0 0 0 10 10"></path><path d="M 657.0 530 a 10 10 0 0 0 10 -10 v -40 a 10 10 0 0 1 10 -10"></path><g class="terminal ">
<path d="M 677.0 470 h 0.0"></path><path d="M 748.0 470 h 0.0"></path><rect height="22" rx="10" ry="10" width="71.0" x="677.0" y="459"></rect><text x="712.5" y="474">"bdit"</text></g><path d="M 748.0 470 a 10 10 0 0 1 10 10 v 40 a 10 10 0 0 0 10 10"></path><path d="M 657.0 530 a 10 10 0 0 0 10 -10 v -70 a 10 10 0 0 1 10 -10"></path><g class="terminal ">
<path d="M 677.0 440 h 8.5"></path><path d="M 739.5 440 h 8.5"></path><rect height="22" rx="10" ry="10" width="54.0" x="685.5" y="429"></rect><text x="712.5" y="444">"it"</text></g><path d="M 748.0 440 a 10 10 0 0 1 10 10 v 70 a 10 10 0 0 0 10 10"></path><path d="M 657.0 530 h 20"></path><g class="terminal ">
<path d="M 677.0 530 h 8.5"></path><path d="M 739.5 530 h 8.5"></path><rect height="22" rx="10" ry="10" width="54.0" x="685.5" y="519"></rect><text x="712.5" y="534">"em"</text></g><path d="M 748.0 530 h 20"></path><path d="M 657.0 530 a 10 10 0 0 1 10 10 v 10 a 10 10 0 0 0 10 10"></path><g class="terminal ">
<path d="M 677.0 560 h 8.5"></path><path d="M 739.5 560 h 8.5"></path><rect height="22" rx="10" ry="10" width="54.0" x="685.5" y="549"></rect><text x="712.5" y="564">"sc"</text></g><path d="M 748.0 560 a 10 10 0 0 0 10 -10 v -10 a 10 10 0 0 1 10 -10"></path><path d="M 657.0 530 a 10 10 0 0 1 10 10 v 40 a 10 10 0 0 0 10 10"></path><g class="terminal ">
<path d="M 677.0 590 h 4.25"></path><path d="M 743.75 590 h 4.25"></path><rect height="22" rx="10" ry="10" width="62.5" x="681.25" y="579"></rect><text x="712.5" y="594">"sup"</text></g><path d="M 748.0 590 a 10 10 0 0 0 10 -10 v -40 a 10 10 0 0 1 10 -10"></path><path d="M 657.0 530 a 10 10 0 0 1 10 10 v 70 a 10 10 0 0 0 10 10"></path><g class="terminal ">
<path d="M 677.0 620 h 12.75"></path><path d="M 735.25 620 h 12.75"></path><rect height="22" rx="10" ry="10" width="45.5" x="689.75" y="609"></rect><text x="712.5" y="624">"w"</text></g><path d="M 748.0 620 a 10 10 0 0 0 10 -10 v -70 a 10 10 0 0 1 10 -10"></path><path d="M 657.0 530 a 10 10 0 0 1 10 10 v 100 a 10 10 0 0 0 10 10"></path><g class="terminal ">
<path d="M 677.0 650 h 8.5"></path><path d="M 739.5 650 h 8.5"></path><rect height="22" rx="10" ry="10" width="54.0" x="685.5" y="639"></rect><text x="712.5" y="654">"rb"</text></g><path d="M 748.0 650 a 10 10 0 0 0 10 -10 v -100 a 10 10 0 0 1 10 -10"></path><path d="M 657.0 530 a 10 10 0 0 1 10 10 v 130 a 10 10 0 0 0 10 10"></path><g class="terminal ">
<path d="M 677.0 680 h 4.25"></path><path d="M 743.75 680 h 4.25"></path><rect height="22" rx="10" ry="10" width="62.5" x="681.25" y="669"></rect><text x="712.5" y="684">"jmp"</text></g><path d="M 748.0 680 a 10 10 0 0 0 10 -10 v -130 a 10 10 0 0 1 10 -10"></path></g><path d="M 778.0 530 a 10 10 0 0 1 10 10 v 159 a 10 10 0 0 0 10 10"></path><path d="M 778.0 411 a 10 10 0 0 1 10 10 v 99 a 10 10 0 0 0 10 10"></path><g>
<path d="M 798.0 530 h 10.0"></path><path d="M 902.0 530 h 10.0"></path><path d="M 808.0 530 h 20"></path><g class="terminal ">
<path d="M 828.0 530 h 0.0"></path><path d="M 882.0 530 h 0.0"></path><rect height="22" rx="10" ry="10" width="54.0" x="828.0" y="519"></rect><text x="855.0" y="534">"xt"</text></g><path d="M 882.0 530 h 20"></path></g><path d="M 912.0 530 h 10"></path></g></g><g class="non-terminal ">
<path d="M 182.5 395 h 0.0"></path><path d="M 199.5 395 h 0.0"></path><text class="comment" x="191.0" y="400">➌</text></g></g><path d="M 932.0 530 h 10"></path><path d="M 942.0 530 h 10"></path><g>
<path d="M 952.0 530 h 0.0"></path><path d="M 1063.0 530 h 0.0"></path><path d="M 952.0 530 h 20"></path><g class="terminal ">
<path d="M 972.0 530 h 12.75"></path><path d="M 1030.25 530 h 12.75"></path><rect height="22" rx="10" ry="10" width="45.5" x="984.75" y="519"></rect><text x="1007.5" y="534">' '</text></g><path d="M 1043.0 530 h 20"></path><path d="M 952.0 530 a 10 10 0 0 1 10 10 v 10 a 10 10 0 0 0 10 10"></path><g class="terminal altterminal">
<path d="M 972.0 560 h 0.0"></path><path d="M 1043.0 560 h 0.0"></path><rect height="22" rx="10" ry="10" width="71.0" x="972.0" y="549"></rect><text x="1007.5" y="564">TAGEND</text></g><path d="M 1043.0 560 a 10 10 0 0 0 10 -10 v -10 a 10 10 0 0 1 10 -10"></path></g></g><path d="M 1073.0 530 h 0.0"></path></g><path d="M 1073.0 530 h 10"></path><path d="M 1083.0 530 h 10"></path><g>
<path d="M 1093.0 530 h 0.0"></path><path d="M 1892.5 530 h 0.0"></path><path d="M 1093.0 530 h 20"></path><g>
<path d="M 1113.0 530 h 0.0"></path><path d="M 1872.5 530 h 0.0"></path><g class="non-terminal ">
<path d="M 1113.0 530 h 0.0"></path><path d="M 1226.5 530 h 0.0"></path><rect height="22" width="113.5" x="1113.0" y="519"></rect><text x="1169.75" y="534">CharContent</text></g><path d="M 1226.5 530 h 10"></path><path d="M 1236.5 530 h 10"></path><g>
<path d="M 1246.5 530 h 0.0"></path><path d="M 1872.5 530 h 0.0"></path><path d="M 1246.5 530 h 20"></path><g>
<path d="M 1266.5 530 h 586.0"></path></g><path d="M 1852.5 530 h 20"></path><path d="M 1246.5 530 a 10 10 0 0 1 10 10 v 9 a 10 10 0 0 0 10 10"></path><g>
<path d="M 1266.5 559 h 0.0"></path><path d="M 1852.5 559 h 0.0"></path><g>
<path d="M 1266.5 559 h 0.0"></path><path d="M 1360.5 559 h 0.0"></path><path d="M 1266.5 559 h 20"></path><g class="terminal ">
<path d="M 1286.5 559 h 4.25"></path><path d="M 1336.25 559 h 4.25"></path><rect height="22" rx="10" ry="10" width="45.5" x="1290.75" y="548"></rect><text x="1313.5" y="563">'|'</text></g><path d="M 1340.5 559 h 20"></path><path d="M 1266.5 559 a 10 10 0 0 1 10 10 v 10 a 10 10 0 0 0 10 10"></path><g class="terminal altterminal">
<path d="M 1286.5 589 h 0.0"></path><path d="M 1340.5 589 h 0.0"></path><rect height="22" rx="10" ry="10" width="54.0" x="1286.5" y="578"></rect><text x="1313.5" y="593">PIPE</text></g><path d="M 1340.5 589 a 10 10 0 0 0 10 -10 v -10 a 10 10 0 0 1 10 -10"></path></g><path d="M 1360.5 559 h 10"></path><path d="M 1370.5 559 h 10"></path><g>
<path d="M 1380.5 559 h 0.0"></path><path d="M 1852.5 559 h 0.0"></path><path d="M 1380.5 559 h 10"></path><g>
<path d="M 1390.5 559 h 0.0"></path><path d="M 1842.5 559 h 0.0"></path><g>
<path d="M 1390.5 559 h 0.0"></path><path d="M 1842.5 559 h 0.0"></path><path d="M 1390.5 559 h 20"></path><g class="terminal ">
<path d="M 1410.5 559 h 157.75"></path><path d="M 1664.75 559 h 157.75"></path><rect height="22" rx="10" ry="10" width="96.5" x="1568.25" y="548"></rect><text x="1616.5" y="563">ATTRIBALL</text></g><path d="M 1822.5 559 h 20"></path><path d="M 1390.5 559 a 10 10 0 0 1 10 10 v 10 a 10 10 0 0 0 10 10"></path><g>
<path d="M 1410.5 589 h 0.0"></path><path d="M 1822.5 589 h 0.0"></path><g class="terminal ">
<path d="M 1410.5 589 h 0.0"></path><path d="M 1515.5 589 h 0.0"></path><rect height="22" rx="10" ry="10" width="105.0" x="1410.5" y="578"></rect><text x="1463.0" y="593">ATTRIBNAME</text></g><path d="M 1515.5 589 h 10"></path><path d="M 1525.5 589 h 10"></path><g class="terminal ">
<path d="M 1535.5 589 h 0.0"></path><path d="M 1589.5 589 h 0.0"></path><rect height="22" rx="10" ry="10" width="54.0" x="1535.5" y="578"></rect><text x="1562.5" y="593">'="'</text></g><path d="M 1589.5 589 h 10"></path><path d="M 1599.5 589 h 10"></path><g class="terminal ">
<path d="M 1609.5 589 h 0.0"></path><path d="M 1714.5 589 h 0.0"></path><rect height="22" rx="10" ry="10" width="105.0" x="1609.5" y="578"></rect><text x="1662.0" y="593">ATTRIBTEXT</text></g><path d="M 1714.5 589 h 10"></path><path d="M 1724.5 589 h 10"></path><g class="terminal ">
<path d="M 1734.5 589 h 0.0"></path><path d="M 1822.5 589 h 0.0"></path><rect height="22" rx="10" ry="10" width="88.0" x="1734.5" y="578"></rect><text x="1778.5" y="593">/"${Hs}/</text></g></g><path d="M 1822.5 589 a 10 10 0 0 0 10 -10 v -10 a 10 10 0 0 1 10 -10"></path></g></g><path d="M 1842.5 559 h 10"></path><path d="M 1390.5 559 a 10 10 0 0 0 -10 10 v 39 a 10 10 0 0 0 10 10"></path><g>
<path d="M 1390.5 618 h 452.0"></path></g><path d="M 1842.5 618 a 10 10 0 0 0 10 -10 v -39 a 10 10 0 0 0 -10 -10"></path></g></g><path d="M 1852.5 559 a 10 10 0 0 0 10 -10 v -9 a 10 10 0 0 1 10 -10"></path></g></g><path d="M 1872.5 530 h 20"></path><path d="M 1093.0 530 a 10 10 0 0 1 10 10 v 107 a 10 10 0 0 0 10 10"></path><g>
<path d="M 1113.0 657 h 86.75"></path><path d="M 1785.75 657 h 86.75"></path><g>
<path d="M 1199.75 657 h 0.0"></path><path d="M 1293.75 657 h 0.0"></path><path d="M 1199.75 657 h 20"></path><g class="terminal ">
<path d="M 1219.75 657 h 4.25"></path><path d="M 1269.5 657 h 4.25"></path><rect height="22" rx="10" ry="10" width="45.5" x="1224.0" y="646"></rect><text x="1246.75" y="661">'|'</text></g><path d="M 1273.75 657 h 20"></path><path d="M 1199.75 657 a 10 10 0 0 1 10 10 v 10 a 10 10 0 0 0 10 10"></path><g class="terminal altterminal">
<path d="M 1219.75 687 h 0.0"></path><path d="M 1273.75 687 h 0.0"></path><rect height="22" rx="10" ry="10" width="54.0" x="1219.75" y="676"></rect><text x="1246.75" y="691">PIPE</text></g><path d="M 1273.75 687 a 10 10 0 0 0 10 -10 v -10 a 10 10 0 0 1 10 -10"></path></g><path d="M 1293.75 657 h 10"></path><path d="M 1303.75 657 h 10"></path><g>
<path d="M 1313.75 657 h 0.0"></path><path d="M 1785.75 657 h 0.0"></path><path d="M 1313.75 657 h 10"></path><g>
<path d="M 1323.75 657 h 0.0"></path><path d="M 1775.75 657 h 0.0"></path><g>
<path d="M 1323.75 657 h 0.0"></path><path d="M 1775.75 657 h 0.0"></path><path d="M 1323.75 657 h 20"></path><g class="terminal ">
<path d="M 1343.75 657 h 157.75"></path><path d="M 1598.0 657 h 157.75"></path><rect height="22" rx="10" ry="10" width="96.5" x="1501.5" y="646"></rect><text x="1549.75" y="661">ATTRIBALL</text></g><path d="M 1755.75 657 h 20"></path><path d="M 1323.75 657 a 10 10 0 0 1 10 10 v 10 a 10 10 0 0 0 10 10"></path><g>
<path d="M 1343.75 687 h 0.0"></path><path d="M 1755.75 687 h 0.0"></path><g class="terminal ">
<path d="M 1343.75 687 h 0.0"></path><path d="M 1448.75 687 h 0.0"></path><rect height="22" rx="10" ry="10" width="105.0" x="1343.75" y="676"></rect><text x="1396.25" y="691">ATTRIBNAME</text></g><path d="M 1448.75 687 h 10"></path><path d="M 1458.75 687 h 10"></path><g class="terminal ">
<path d="M 1468.75 687 h 0.0"></path><path d="M 1522.75 687 h 0.0"></path><rect height="22" rx="10" ry="10" width="54.0" x="1468.75" y="676"></rect><text x="1495.75" y="691">'="'</text></g><path d="M 1522.75 687 h 10"></path><path d="M 1532.75 687 h 10"></path><g class="terminal ">
<path d="M 1542.75 687 h 0.0"></path><path d="M 1647.75 687 h 0.0"></path><rect height="22" rx="10" ry="10" width="105.0" x="1542.75" y="676"></rect><text x="1595.25" y="691">ATTRIBTEXT</text></g><path d="M 1647.75 687 h 10"></path><path d="M 1657.75 687 h 10"></path><g class="terminal ">
<path d="M 1667.75 687 h 0.0"></path><path d="M 1755.75 687 h 0.0"></path><rect height="22" rx="10" ry="10" width="88.0" x="1667.75" y="676"></rect><text x="1711.75" y="691">/"${Hs}/</text></g></g><path d="M 1755.75 687 a 10 10 0 0 0 10 -10 v -10 a 10 10 0 0 1 10 -10"></path></g></g><path d="M 1775.75 657 h 10"></path><path d="M 1323.75 657 a 10 10 0 0 0 -10 10 v 39 a 10 10 0 0 0 10 10"></path><g>
<path d="M 1323.75 716 h 452.0"></path></g><path d="M 1775.75 716 a 10 10 0 0 0 10 -10 v -39 a 10 10 0 0 0 -10 -10"></path></g></g><path d="M 1872.5 657 a 10 10 0 0 0 10 -10 v -107 a 10 10 0 0 1 10 -10"></path></g><path d="M 1892.5 530 h 10"></path><path d="M 1902.5 530 h 10"></path><g class="terminal ">
<path d="M 1912.5 530 h 0.0"></path><path d="M 1966.5 530 h 0.0"></path><rect height="22" rx="10" ry="10" width="54.0" x="1912.5" y="519"></rect><text x="1939.5" y="534">'\\'</text></g><path d="M 1966.5 530 h 10"></path><path d="M 1976.5 530 h 10"></path><g class="terminal ">
<path d="M 1986.5 530 h 0.0"></path><path d="M 2032.0 530 h 0.0"></path><rect height="22" rx="10" ry="10" width="45.5" x="1986.5" y="519"></rect><text x="2009.25" y="534">⇐ ➌</text></g><path d="M 2032.0 530 h 10"></path><path d="M 2042.0 530 h 10"></path><g class="terminal ">
<path d="M 2052.0 530 h 0.0"></path><path d="M 2097.5 530 h 0.0"></path><rect height="22" rx="10" ry="10" width="45.5" x="2052.0" y="519"></rect><text x="2074.75" y="534">'&#42;'</text></g></g><path d="M 2106.0 530 a 10 10 0 0 0 10 -10 v -327 a 10 10 0 0 1 10 -10"></path></g></g><path d="M 2126.0 183 h 20"></path><path d="M 50.0 183 a 10 10 0 0 1 10 10 v 552 a 10 10 0 0 0 10 10"></path><g class="non-terminal ">
<path d="M 70.0 755 h 992.5"></path><path d="M 1133.5 755 h 992.5"></path><rect height="22" width="71.0" x="1062.5" y="744"></rect><text x="1098.0" y="759">Figure</text></g><path d="M 2126.0 755 a 10 10 0 0 0 10 -10 v -552 a 10 10 0 0 1 10 -10"></path></g></g><path d="M 2146.0 183 h 10"></path><path d="M 2156.0 183 h 20 m 0 -10 v 20"></path></g></svg>