<svg class="railroad-diagram" height="855" viewBox="0 0 780 855" width="780" xmlns="http://www.w3.org/2000/svg" xmlns:xlink="http://www.w3.org/1999/xlink">
<g transform="translate(.5 .5)">
<style>/* <![CDATA[ */
    svg.railroad-diagram {
        background-color:hsl(30,20%,95%);
    }
    svg.railroad-diagram path {
        stroke-width: 2;
        stroke: black;
        fill: none;
    }
    svg.railroad-diagram text {
        font-size: 12pt;
        text-anchor: middle;
        font-family: DejaVu Sans;
    }
    svg.railroad-diagram text.label {
        text-anchor:start;
    }
    svg.railroad-diagram text.comment {
        font-family: DejaVu Sans;
        font-size: 15pt;
    }
    svg.railroad-diagram rect{
        stroke-width: 2;
        stroke:black;
        fill: rgb(210, 210, 255);
    }
    svg.railroad-diagram rect.group-box {
        stroke: gray;
        stroke-dasharray: 10 5;
        fill: none;
    }
    .terminal {
        font-family: DejaVu Sans;
    }

/* ]]> */
</style><g>
<path d="M 20 516 v 20 m 0 -10 h 20"></path></g><path d="M 40 526 h 10"></path><g>
<path d="M 50 526 h 0.0"></path><path d="M 730.0 526 h 0.0"></path><rect class="group-box" height="799" rx="10" ry="10" width="680" x="50.0" y="36"></rect><g>
<path d="M 50.0 526 h 0.0"></path><path d="M 730.0 526 h 0.0"></path><path d="M 50.0 526 h 20"></path><g>
<path d="M 70.0 526 h 0.0"></path><path d="M 710.0 526 h 0.0"></path><g class="terminal ">
<path d="M 70.0 526 h 0.0"></path><path d="M 126.0 526 h 0.0"></path><rect height="22" rx="10" ry="10" width="56" x="70.0" y="515"></rect><text x="98.0" y="530">&#60;char></text></g><path d="M 126.0 526 h 10"></path><g>
<path d="M 136.0 526 h 0.0"></path><path d="M 710.0 526 h 0.0"></path><path d="M 136.0 526 a 10 10 0 0 0 10 -10 v -43 a 10 10 0 0 1 10 -10"></path><g>
<path d="M 156.0 463 h 0.0"></path><path d="M 282.0 463 h 0.0"></path><g class="terminal ">
<path d="M 156.0 463 h 0.0"></path><path d="M 218.0 463 h 0.0"></path><rect height="22" rx="10" ry="10" width="62" x="156.0" y="452"></rect><text x="187.0" y="467">@closed</text></g><path d="M 218.0 463 h 10"></path><path d="M 228.0 463 h 10"></path><g class="terminal ">
<path d="M 238.0 463 h 0.0"></path><path d="M 282.0 463 h 0.0"></path><rect height="22" rx="10" ry="10" width="44" x="238.0" y="452"></rect><text x="260.0" y="467">BOOL</text></g></g><path d="M 136.0 526 a 10 10 0 0 0 10 -10 v -73 a 10 10 0 0 1 10 -10"></path><g>
<path d="M 156.0 433 h 0.0"></path><path d="M 300.0 433 h 0.0"></path><g class="terminal ">
<path d="M 156.0 433 h 0.0"></path><path d="M 224.0 433 h 0.0"></path><rect height="22" rx="10" ry="10" width="68" x="156.0" y="422"></rect><text x="190.0" y="437">@link-id</text></g><path d="M 224.0 433 h 10"></path><path d="M 234.0 433 h 10"></path><g class="terminal ">
<path d="M 244.0 433 h 0.0"></path><path d="M 300.0 433 h 0.0"></path><rect height="22" rx="10" ry="10" width="56" x="244.0" y="422"></rect><text x="272.0" y="437">string</text></g></g><path d="M 136.0 526 a 10 10 0 0 0 10 -10 v -103 a 10 10 0 0 1 10 -10"></path><g>
<path d="M 156.0 403 h 0.0"></path><path d="M 318.0 403 h 0.0"></path><g class="terminal ">
<path d="M 156.0 403 h 0.0"></path><path d="M 242.0 403 h 0.0"></path><rect height="22" rx="10" ry="10" width="86" x="156.0" y="392"></rect><text x="199.0" y="407">@link-title</text></g><path d="M 242.0 403 h 10"></path><path d="M 252.0 403 h 10"></path><g class="terminal ">
<path d="M 262.0 403 h 0.0"></path><path d="M 318.0 403 h 0.0"></path><rect height="22" rx="10" ry="10" width="56" x="262.0" y="392"></rect><text x="290.0" y="407">string</text></g></g><path d="M 136.0 526 a 10 10 0 0 0 10 -10 v -133 a 10 10 0 0 1 10 -10"></path><g>
<path d="M 156.0 373 h 0.0"></path><path d="M 312.0 373 h 0.0"></path><g class="terminal ">
<path d="M 156.0 373 h 0.0"></path><path d="M 236.0 373 h 0.0"></path><rect height="22" rx="10" ry="10" width="80" x="156.0" y="362"></rect><text x="196.0" y="377">@link-href</text></g><path d="M 236.0 373 h 10"></path><path d="M 246.0 373 h 10"></path><g class="terminal ">
<path d="M 256.0 373 h 0.0"></path><path d="M 312.0 373 h 0.0"></path><rect height="22" rx="10" ry="10" width="56" x="256.0" y="362"></rect><text x="284.0" y="377">string</text></g></g><path d="M 136.0 526 a 10 10 0 0 0 10 -10 v -329 a 10 10 0 0 1 10 -10"></path><g>
<path d="M 156.0 177 h 0.0"></path><path d="M 690.0 177 h 0.0"></path><g class="terminal ">
<path d="M 156.0 177 h 0.0"></path><path d="M 212.0 177 h 0.0"></path><rect height="22" rx="10" ry="10" width="56" x="156.0" y="166"></rect><text x="184.0" y="181">@style</text></g><path d="M 212.0 177 h 10"></path><path d="M 222.0 177 h 10"></path><g>
<path d="M 232.0 177 h 0.0"></path><path d="M 690.0 177 h 0.0"></path><rect class="group-box" height="294" rx="10" ry="10" width="458" x="232.0" y="60"></rect><g>
<path d="M 232.0 177 h 0.0"></path><path d="M 690.0 177 h 0.0"></path><path d="M 232.0 177 a 10 10 0 0 0 10 -10 v -89 a 10 10 0 0 1 10 -10 h 312"></path><path d="M 232.0 177 h 10"></path><g>
<path d="M 242.0 177 h 0.0"></path><path d="M 344.0 177 h 0.0"></path><path d="M 242.0 177 a 10 10 0 0 0 10 -10 v -10 a 10 10 0 0 1 10 -10"></path><g class="terminal ">
<path d="M 262.0 147 h 0.0"></path><path d="M 306.0 147 h 0.0"></path><rect height="22" rx="10" ry="10" width="44" x="262.0" y="136"></rect><text x="284.0" y="151">"ca"</text></g><path d="M 242.0 177 a 10 10 0 0 0 10 -10 v -40 a 10 10 0 0 1 10 -10"></path><g class="terminal ">
<path d="M 262.0 117 h 0.0"></path><path d="M 306.0 117 h 0.0"></path><rect height="22" rx="10" ry="10" width="44" x="262.0" y="106"></rect><text x="284.0" y="121">"vp"</text></g><path d="M 242.0 177 a 10 10 0 0 0 10 -10 v -70 a 10 10 0 0 1 10 -10"></path><g class="terminal ">
<path d="M 262.0 87 h 0.0"></path><path d="M 306.0 87 h 0.0"></path><rect height="22" rx="10" ry="10" width="44" x="262.0" y="76"></rect><text x="284.0" y="91">"va"</text></g><path d="M 242.0 177 h 20"></path><g class="terminal ">
<path d="M 262.0 177 h 0.0"></path><path d="M 312.0 177 h 0.0"></path><rect height="22" rx="10" ry="10" width="50" x="262.0" y="166"></rect><text x="287.0" y="181">"qac"</text></g><path d="M 242.0 177 a 10 10 0 0 1 10 10 v 10 a 10 10 0 0 0 10 10"></path><g class="terminal ">
<path d="M 262.0 207 h 0.0"></path><path d="M 306.0 207 h 0.0"></path><rect height="22" rx="10" ry="10" width="44" x="262.0" y="196"></rect><text x="284.0" y="211">"qs"</text></g><path d="M 242.0 177 a 10 10 0 0 1 10 10 v 40 a 10 10 0 0 0 10 10"></path><g class="terminal ">
<path d="M 262.0 237 h 0.0"></path><path d="M 312.0 237 h 0.0"></path><rect height="22" rx="10" ry="10" width="50" x="262.0" y="226"></rect><text x="287.0" y="241">"add"</text></g><path d="M 242.0 177 a 10 10 0 0 1 10 10 v 70 a 10 10 0 0 0 10 10"></path><g class="terminal ">
<path d="M 262.0 267 h 0.0"></path><path d="M 324.0 267 h 0.0"></path><rect height="22" rx="10" ry="10" width="62" x="262.0" y="256"></rect><text x="293.0" y="271">"addpn"</text></g><path d="M 242.0 177 a 10 10 0 0 1 10 10 v 100 a 10 10 0 0 0 10 10"></path><g class="terminal ">
<path d="M 262.0 297 h 0.0"></path><path d="M 306.0 297 h 0.0"></path><rect height="22" rx="10" ry="10" width="44" x="262.0" y="286"></rect><text x="284.0" y="301">"bk"</text></g><path d="M 242.0 177 a 10 10 0 0 1 10 10 v 130 a 10 10 0 0 0 10 10"></path><g class="terminal ">
<path d="M 262.0 327 h 0.0"></path><path d="M 306.0 327 h 0.0"></path><rect height="22" rx="10" ry="10" width="44" x="262.0" y="316"></rect><text x="284.0" y="331">"dc"</text></g></g><path d="M 344.0 68 a 10 10 0 0 1 10 10 v 89 a 10 10 0 0 0 10 10"></path><g>
<path d="M 364.0 177 h 0.0"></path><path d="M 454.0 177 h 0.0"></path><path d="M 364.0 177 a 10 10 0 0 0 10 -10 v -10 a 10 10 0 0 1 10 -10"></path><g class="terminal ">
<path d="M 384.0 147 h 0.0"></path><path d="M 422.0 147 h 0.0"></path><rect height="22" rx="10" ry="10" width="38" x="384.0" y="136"></rect><text x="403.0" y="151">"k"</text></g><path d="M 364.0 177 a 10 10 0 0 0 10 -10 v -40 a 10 10 0 0 1 10 -10"></path><g class="terminal ">
<path d="M 384.0 117 h 0.0"></path><path d="M 428.0 117 h 0.0"></path><rect height="22" rx="10" ry="10" width="44" x="384.0" y="106"></rect><text x="406.0" y="121">"fm"</text></g><path d="M 364.0 177 a 10 10 0 0 0 10 -10 v -70 a 10 10 0 0 1 10 -10"></path><g class="terminal ">
<path d="M 384.0 87 h 0.0"></path><path d="M 434.0 87 h 0.0"></path><rect height="22" rx="10" ry="10" width="50" x="384.0" y="76"></rect><text x="409.0" y="91">"efm"</text></g><path d="M 364.0 177 h 20"></path><g class="terminal ">
<path d="M 384.0 177 h 0.0"></path><path d="M 428.0 177 h 0.0"></path><rect height="22" rx="10" ry="10" width="44" x="384.0" y="166"></rect><text x="406.0" y="181">"nd"</text></g><path d="M 364.0 177 a 10 10 0 0 1 10 10 v 10 a 10 10 0 0 0 10 10"></path><g class="terminal ">
<path d="M 384.0 207 h 0.0"></path><path d="M 434.0 207 h 0.0"></path><rect height="22" rx="10" ry="10" width="50" x="384.0" y="196"></rect><text x="409.0" y="211">"ndx"</text></g><path d="M 364.0 177 a 10 10 0 0 1 10 10 v 40 a 10 10 0 0 0 10 10"></path><g class="terminal ">
<path d="M 384.0 237 h 0.0"></path><path d="M 434.0 237 h 0.0"></path><rect height="22" rx="10" ry="10" width="50" x="384.0" y="226"></rect><text x="409.0" y="241">"ord"</text></g><path d="M 364.0 177 a 10 10 0 0 1 10 10 v 70 a 10 10 0 0 0 10 10"></path><g class="terminal ">
<path d="M 384.0 267 h 0.0"></path><path d="M 428.0 267 h 0.0"></path><rect height="22" rx="10" ry="10" width="44" x="384.0" y="256"></rect><text x="406.0" y="271">"pn"</text></g><path d="M 364.0 177 a 10 10 0 0 1 10 10 v 100 a 10 10 0 0 0 10 10"></path><g class="terminal ">
<path d="M 384.0 297 h 0.0"></path><path d="M 434.0 297 h 0.0"></path><rect height="22" rx="10" ry="10" width="50" x="384.0" y="286"></rect><text x="409.0" y="301">"png"</text></g><path d="M 364.0 177 a 10 10 0 0 1 10 10 v 130 a 10 10 0 0 0 10 10"></path><g class="terminal ">
<path d="M 384.0 327 h 0.0"></path><path d="M 434.0 327 h 0.0"></path><rect height="22" rx="10" ry="10" width="50" x="384.0" y="316"></rect><text x="409.0" y="331">"pro"</text></g></g><path d="M 454.0 68 a 10 10 0 0 1 10 10 v 89 a 10 10 0 0 0 10 10"></path><g>
<path d="M 474.0 177 h 0.0"></path><path d="M 564.0 177 h 0.0"></path><path d="M 474.0 177 a 10 10 0 0 0 10 -10 v -10 a 10 10 0 0 1 10 -10"></path><g class="terminal ">
<path d="M 494.0 147 h 0.0"></path><path d="M 544.0 147 h 0.0"></path><rect height="22" rx="10" ry="10" width="50" x="494.0" y="136"></rect><text x="519.0" y="151">"sig"</text></g><path d="M 474.0 177 a 10 10 0 0 0 10 -10 v -40 a 10 10 0 0 1 10 -10"></path><g class="terminal ">
<path d="M 494.0 117 h 0.0"></path><path d="M 538.0 117 h 0.0"></path><rect height="22" rx="10" ry="10" width="44" x="494.0" y="106"></rect><text x="516.0" y="121">"rq"</text></g><path d="M 474.0 177 a 10 10 0 0 0 10 -10 v -70 a 10 10 0 0 1 10 -10"></path><g class="terminal ">
<path d="M 494.0 87 h 0.0"></path><path d="M 538.0 87 h 0.0"></path><rect height="22" rx="10" ry="10" width="44" x="494.0" y="76"></rect><text x="516.0" y="91">"qt"</text></g><path d="M 474.0 177 h 20"></path><g class="terminal ">
<path d="M 494.0 177 h 0.0"></path><path d="M 544.0 177 h 0.0"></path><rect height="22" rx="10" ry="10" width="50" x="494.0" y="166"></rect><text x="519.0" y="181">"sls"</text></g><path d="M 474.0 177 a 10 10 0 0 1 10 10 v 10 a 10 10 0 0 0 10 10"></path><g class="terminal ">
<path d="M 494.0 207 h 0.0"></path><path d="M 538.0 207 h 0.0"></path><rect height="22" rx="10" ry="10" width="44" x="494.0" y="196"></rect><text x="516.0" y="211">"tl"</text></g><path d="M 474.0 177 a 10 10 0 0 1 10 10 v 40 a 10 10 0 0 0 10 10"></path><g class="terminal ">
<path d="M 494.0 237 h 0.0"></path><path d="M 538.0 237 h 0.0"></path><rect height="22" rx="10" ry="10" width="44" x="494.0" y="226"></rect><text x="516.0" y="241">"wg"</text></g><path d="M 474.0 177 a 10 10 0 0 1 10 10 v 70 a 10 10 0 0 0 10 10"></path><g class="terminal ">
<path d="M 494.0 267 h 0.0"></path><path d="M 538.0 267 h 0.0"></path><rect height="22" rx="10" ry="10" width="44" x="494.0" y="256"></rect><text x="516.0" y="271">"wh"</text></g><path d="M 474.0 177 a 10 10 0 0 1 10 10 v 100 a 10 10 0 0 0 10 10"></path><g class="terminal ">
<path d="M 494.0 297 h 0.0"></path><path d="M 538.0 297 h 0.0"></path><rect height="22" rx="10" ry="10" width="44" x="494.0" y="286"></rect><text x="516.0" y="301">"wa"</text></g><path d="M 474.0 177 a 10 10 0 0 1 10 10 v 130 a 10 10 0 0 0 10 10"></path><g class="terminal ">
<path d="M 494.0 327 h 0.0"></path><path d="M 538.0 327 h 0.0"></path><rect height="22" rx="10" ry="10" width="44" x="494.0" y="316"></rect><text x="516.0" y="331">"wj"</text></g></g><path d="M 564.0 68 a 10 10 0 0 1 10 10 v 89 a 10 10 0 0 0 10 10"></path><g>
<path d="M 584.0 177 h 0.0"></path><path d="M 680.0 177 h 0.0"></path><path d="M 584.0 177 a 10 10 0 0 0 10 -10 v -10 a 10 10 0 0 1 10 -10"></path><g class="terminal ">
<path d="M 604.0 147 h 0.0"></path><path d="M 648.0 147 h 0.0"></path><rect height="22" rx="10" ry="10" width="44" x="604.0" y="136"></rect><text x="626.0" y="151">"no"</text></g><path d="M 584.0 177 a 10 10 0 0 0 10 -10 v -40 a 10 10 0 0 1 10 -10"></path><g class="terminal ">
<path d="M 604.0 117 h 0.0"></path><path d="M 654.0 117 h 0.0"></path><rect height="22" rx="10" ry="10" width="50" x="604.0" y="106"></rect><text x="629.0" y="121">"jmp"</text></g><path d="M 584.0 177 a 10 10 0 0 0 10 -10 v -70 a 10 10 0 0 1 10 -10"></path><g class="terminal ">
<path d="M 604.0 87 h 0.0"></path><path d="M 648.0 87 h 0.0"></path><rect height="22" rx="10" ry="10" width="44" x="604.0" y="76"></rect><text x="626.0" y="91">"xt"</text></g><path d="M 584.0 177 h 20"></path><g class="terminal ">
<path d="M 604.0 177 h 0.0"></path><path d="M 648.0 177 h 0.0"></path><rect height="22" rx="10" ry="10" width="44" x="604.0" y="166"></rect><text x="626.0" y="181">"it"</text></g><path d="M 584.0 177 a 10 10 0 0 1 10 10 v 10 a 10 10 0 0 0 10 10"></path><g class="terminal ">
<path d="M 604.0 207 h 0.0"></path><path d="M 648.0 207 h 0.0"></path><rect height="22" rx="10" ry="10" width="44" x="604.0" y="196"></rect><text x="626.0" y="211">"bd"</text></g><path d="M 584.0 177 a 10 10 0 0 1 10 10 v 40 a 10 10 0 0 0 10 10"></path><g class="terminal ">
<path d="M 604.0 237 h 0.0"></path><path d="M 660.0 237 h 0.0"></path><rect height="22" rx="10" ry="10" width="56" x="604.0" y="226"></rect><text x="632.0" y="241">"bdit"</text></g><path d="M 584.0 177 a 10 10 0 0 1 10 10 v 70 a 10 10 0 0 0 10 10"></path><g class="terminal ">
<path d="M 604.0 267 h 0.0"></path><path d="M 648.0 267 h 0.0"></path><rect height="22" rx="10" ry="10" width="44" x="604.0" y="256"></rect><text x="626.0" y="271">"em"</text></g><path d="M 584.0 177 a 10 10 0 0 1 10 10 v 100 a 10 10 0 0 0 10 10"></path><g class="terminal ">
<path d="M 604.0 297 h 0.0"></path><path d="M 648.0 297 h 0.0"></path><rect height="22" rx="10" ry="10" width="44" x="604.0" y="286"></rect><text x="626.0" y="301">"sc"</text></g><path d="M 584.0 177 a 10 10 0 0 1 10 10 v 130 a 10 10 0 0 0 10 10"></path><g class="terminal ">
<path d="M 604.0 327 h 0.0"></path><path d="M 654.0 327 h 0.0"></path><rect height="22" rx="10" ry="10" width="50" x="604.0" y="316"></rect><text x="629.0" y="331">"sup"</text></g></g></g><g class="non-terminal ">
<path d="M 232.0 52 h 0.0"></path><path d="M 382.0 52 h 0.0"></path><text class="comment" x="307.0" y="57">Char.char.style.enum</text></g></g></g><path d="M 136.0 526 h 20"></path><g>
<path d="M 156.0 526 h 95.0"></path><path d="M 595.0 526 h 95.0"></path><rect class="group-box" height="237" rx="10" ry="10" width="344" x="251.0" y="498"></rect><g>
<path d="M 251.0 526 h 10.0"></path><path d="M 585.0 526 h 10.0"></path><g class="terminal ">
<path d="M 261.0 526 h 0.0"></path><path d="M 305.0 526 h 0.0"></path><rect height="22" rx="10" ry="10" width="44" x="261.0" y="515"></rect><text x="283.0" y="530">text</text></g><path d="M 305.0 526 h 10"></path><g>
<path d="M 315.0 526 h 0.0"></path><path d="M 585.0 526 h 0.0"></path><path d="M 315.0 526 a 10 10 0 0 0 10 -10 v 0 a 10 10 0 0 1 10 -10"></path><g>
<path d="M 335.0 506 h 230"></path></g><path d="M 565.0 506 a 10 10 0 0 1 10 10 v 0 a 10 10 0 0 0 10 10"></path><path d="M 315.0 526 h 20"></path><g>
<path d="M 335.0 526 h 0.0"></path><path d="M 565.0 526 h 0.0"></path><path d="M 335.0 526 h 10"></path><g>
<path d="M 345.0 526 h 0.0"></path><path d="M 555.0 526 h 0.0"></path><path d="M 345.0 526 h 20"></path><g class="non-terminal ">
<path d="M 365.0 526 h 48.0"></path><path d="M 487.0 526 h 48.0"></path><rect height="22" width="74" x="413.0" y="515"></rect><text x="450.0" y="530">Reference</text></g><path d="M 535.0 526 h 20"></path><path d="M 345.0 526 a 10 10 0 0 1 10 10 v 10 a 10 10 0 0 0 10 10"></path><g class="non-terminal ">
<path d="M 365.0 556 h 48.0"></path><path d="M 487.0 556 h 48.0"></path><rect height="22" width="74" x="413.0" y="545"></rect><text x="450.0" y="560">CharEmbed</text></g><path d="M 535.0 556 a 10 10 0 0 0 10 -10 v -10 a 10 10 0 0 1 10 -10"></path><path d="M 345.0 526 a 10 10 0 0 1 10 10 v 40 a 10 10 0 0 0 10 10"></path><g class="non-terminal ">
<path d="M 365.0 586 h 48.0"></path><path d="M 487.0 586 h 48.0"></path><rect height="22" width="74" x="413.0" y="575"></rect><text x="450.0" y="590">Milestone</text></g><path d="M 535.0 586 a 10 10 0 0 0 10 -10 v -40 a 10 10 0 0 1 10 -10"></path><path d="M 345.0 526 a 10 10 0 0 1 10 10 v 70 a 10 10 0 0 0 10 10"></path><g class="non-terminal ">
<path d="M 365.0 616 h 51.0"></path><path d="M 484.0 616 h 51.0"></path><rect height="22" width="68" x="416.0" y="605"></rect><text x="450.0" y="620">Footnote</text></g><path d="M 535.0 616 a 10 10 0 0 0 10 -10 v -70 a 10 10 0 0 1 10 -10"></path><path d="M 345.0 526 a 10 10 0 0 1 10 10 v 124 a 10 10 0 0 0 10 10"></path><g>
<path d="M 365.0 670 h 0.0"></path><path d="M 535.0 670 h 0.0"></path><rect class="group-box" height="38" rx="10" ry="10" width="170" x="365.0" y="651"></rect><g>
<path d="M 365.0 670 h 10.0"></path><path d="M 525.0 670 h 10.0"></path><g class="terminal ">
<path d="M 375.0 670 h 0.0"></path><path d="M 455.0 670 h 0.0"></path><rect height="22" rx="10" ry="10" width="80" x="375.0" y="659"></rect><text x="415.0" y="674">&#60;optbreak></text></g><path d="M 455.0 670 h 10"></path><path d="M 465.0 670 h 10"></path><g class="terminal ">
<path d="M 475.0 670 h 0.0"></path><path d="M 525.0 670 h 0.0"></path><rect height="22" rx="10" ry="10" width="50" x="475.0" y="659"></rect><text x="500.0" y="674">empty</text></g></g><g class="non-terminal ">
<path d="M 365.0 643 h 0.0"></path><path d="M 410.0 643 h 0.0"></path><text class="comment" x="387.5" y="648">Break</text></g></g><path d="M 535.0 670 a 10 10 0 0 0 10 -10 v -124 a 10 10 0 0 1 10 -10"></path><path d="M 345.0 526 a 10 10 0 0 1 10 10 v 162 a 10 10 0 0 0 10 10"></path><g class="terminal ">
<path d="M 365.0 708 h 63.0"></path><path d="M 472.0 708 h 63.0"></path><rect height="22" rx="10" ry="10" width="44" x="428.0" y="697"></rect><text x="450.0" y="712">text</text></g><path d="M 535.0 708 a 10 10 0 0 0 10 -10 v -162 a 10 10 0 0 1 10 -10"></path></g><path d="M 555.0 526 h 10"></path><path d="M 345.0 526 a 10 10 0 0 0 -10 10 v 181 a 10 10 0 0 0 10 10"></path><g>
<path d="M 345.0 727 h 210"></path></g><path d="M 555.0 727 a 10 10 0 0 0 10 -10 v -181 a 10 10 0 0 0 -10 -10"></path></g><path d="M 565.0 526 h 20"></path></g></g><g class="non-terminal ">
<path d="M 251.0 490 h 0.0"></path><path d="M 338.0 490 h 0.0"></path><text class="comment" x="294.5" y="495">CharContent</text></g></g><path d="M 690.0 526 h 20"></path></g></g><path d="M 710.0 526 h 20"></path><path d="M 50.0 526 a 10 10 0 0 1 10 10 v 232 a 10 10 0 0 0 10 10"></path><g>
<path d="M 70.0 778 h 206.0"></path><path d="M 504.0 778 h 206.0"></path><rect class="group-box" height="68" rx="10" ry="10" width="228" x="276.0" y="759"></rect><g>
<path d="M 276.0 778 h 0.0"></path><path d="M 504.0 778 h 0.0"></path><path d="M 276.0 778 h 20"></path><g class="non-terminal ">
<path d="M 296.0 778 h 3.0"></path><path d="M 481.0 778 h 3.0"></path><rect height="22" width="182" x="299.0" y="767"></rect><text x="390.0" y="782">CharWithAttrib.char.style.w</text></g><path d="M 484.0 778 h 20"></path><path d="M 276.0 778 a 10 10 0 0 1 10 10 v 10 a 10 10 0 0 0 10 10"></path><g class="non-terminal ">
<path d="M 296.0 808 h 0.0"></path><path d="M 484.0 808 h 0.0"></path><rect height="22" width="188" x="296.0" y="797"></rect><text x="390.0" y="812">CharWithAttrib.char.style.rb</text></g><path d="M 484.0 808 a 10 10 0 0 0 10 -10 v -10 a 10 10 0 0 1 10 -10"></path></g><g class="non-terminal ">
<path d="M 276.0 751 h 0.0"></path><path d="M 419.0 751 h 0.0"></path><text class="comment" x="347.5" y="756">CharWithAttrib.enum</text></g></g><path d="M 710.0 778 a 10 10 0 0 0 10 -10 v -232 a 10 10 0 0 1 10 -10"></path></g><g class="non-terminal ">
<path d="M 50.0 28 h 0.0"></path><path d="M 88.0 28 h 0.0"></path><text class="comment" x="69.0" y="33">Char</text></g></g><path d="M 730 526 h 10"></path><path d="M 740 526 h 20 m 0 -10 v 20"></path></g></svg>