<svg class="railroad-diagram" height="984" viewBox="0 0 2081.0 984" width="2081.0" xmlns="http://www.w3.org/2000/svg" xmlns:xlink="http://www.w3.org/1999/xlink">
<g transform="translate(.5 .5)">
<style>/* <![CDATA[ */

    svg.railroad-diagram {
        background-color: hsl(30,20%,95%);
    }
    svg.railroad-diagram path {
        stroke-width: 2;
        stroke: black;
        fill: none;
    }
    svg.railroad-diagram text {
        font-size: 12px;
        text-anchor: middle;
        font-family: DejaVu Sans;
    }
    svg.railroad-diagram text.label {
        text-anchor:start;
    }
    svg.railroad-diagram text.comment {
        font-family: DejaVu Sans;
        font-size: 14px;
    }
    svg.railroad-diagram rect{
        stroke-width: 2;
        stroke: black;
        fill: rgb(210, 255, 210);
    }
    svg.railroad-diagram rect.group-box {
        stroke: gray;
        stroke-dasharray: 10 5;
        fill: none;
    }
    .terminal {
        font-family: DejaVu Sans;
    }
    svg.railroad-diagram g.altterminal rect {
        fill: rgb(251, 252, 207)
    }

/* ]]> */
</style><g>
<path d="M 20 163 v 20 m 0 -10 h 20"></path></g><path d="M 40 173 h 10"></path><g>
<path d="M 50 173 h 0.0"></path><path d="M 2031.0 497 h 0.0"></path><g>
<path d="M 50.0 173 h 0.0"></path><path d="M 2031.0 497 h 0.0"></path><path d="M 50.0 173 h 20"></path><g>
<path d="M 70.0 173 h 0.0"></path><path d="M 70.0 173 h 10"></path><g>
<path d="M 80.0 173 h 625.75"></path><path d="M 1375.25 173 h 625.75"></path><g class="terminal ">
<path d="M 705.75 173 h 0.0"></path><path d="M 751.25 173 h 0.0"></path><rect height="22" rx="10" ry="10" width="45.5" x="705.75" y="162"></rect><text x="728.5" y="177">'\'</text></g><path d="M 751.25 173 h 10"></path><path d="M 761.25 173 h 10"></path><g>
<path d="M 771.25 173 h 0.0"></path><path d="M 1244.25 173 h 0.0"></path><rect class="group-box" height="404" rx="10" ry="10" width="473.0" x="771.25" y="46"></rect><g>
<path d="M 771.25 173 h 10.0"></path><path d="M 1234.25 173 h 10.0"></path><g>
<path d="M 781.25 173 h 0.0"></path><path d="M 1234.25 173 h 0.0"></path><path d="M 781.25 173 a 10 10 0 0 0 10 -10 v -99 a 10 10 0 0 1 10 -10 h 272.0"></path><path d="M 950.75 442 h 263.5 a 10 10 0 0 0 10 -10 v -249 a 10 10 0 0 1 10 -10"></path><path d="M 781.25 173 h 10"></path><g>
<path d="M 791.25 173 h 10.0"></path><path d="M 920.75 173 h 10.0"></path><path d="M 801.25 173 a 10 10 0 0 0 10 -10 v -10 a 10 10 0 0 1 10 -10"></path><g class="terminal ">
<path d="M 821.25 143 h 12.75"></path><path d="M 888.0 143 h 12.75"></path><rect height="22" rx="10" ry="10" width="54.0" x="834.0" y="132"></rect><text x="861.0" y="147">"ca"</text></g><path d="M 900.75 143 a 10 10 0 0 1 10 10 v 10 a 10 10 0 0 0 10 10"></path><path d="M 801.25 173 a 10 10 0 0 0 10 -10 v -40 a 10 10 0 0 1 10 -10"></path><g class="terminal ">
<path d="M 821.25 113 h 12.75"></path><path d="M 888.0 113 h 12.75"></path><rect height="22" rx="10" ry="10" width="54.0" x="834.0" y="102"></rect><text x="861.0" y="117">"vp"</text></g><path d="M 900.75 113 a 10 10 0 0 1 10 10 v 40 a 10 10 0 0 0 10 10"></path><path d="M 801.25 173 a 10 10 0 0 0 10 -10 v -70 a 10 10 0 0 1 10 -10"></path><g class="terminal ">
<path d="M 821.25 83 h 12.75"></path><path d="M 888.0 83 h 12.75"></path><rect height="22" rx="10" ry="10" width="54.0" x="834.0" y="72"></rect><text x="861.0" y="87">"va"</text></g><path d="M 900.75 83 a 10 10 0 0 1 10 10 v 70 a 10 10 0 0 0 10 10"></path><path d="M 801.25 173 h 20"></path><g class="terminal ">
<path d="M 821.25 173 h 8.5"></path><path d="M 892.25 173 h 8.5"></path><rect height="22" rx="10" ry="10" width="62.5" x="829.75" y="162"></rect><text x="861.0" y="177">"qac"</text></g><path d="M 900.75 173 h 20"></path><path d="M 801.25 173 a 10 10 0 0 1 10 10 v 10 a 10 10 0 0 0 10 10"></path><g class="terminal ">
<path d="M 821.25 203 h 12.75"></path><path d="M 888.0 203 h 12.75"></path><rect height="22" rx="10" ry="10" width="54.0" x="834.0" y="192"></rect><text x="861.0" y="207">"qs"</text></g><path d="M 900.75 203 a 10 10 0 0 0 10 -10 v -10 a 10 10 0 0 1 10 -10"></path><path d="M 801.25 173 a 10 10 0 0 1 10 10 v 40 a 10 10 0 0 0 10 10"></path><g class="terminal ">
<path d="M 821.25 233 h 8.5"></path><path d="M 892.25 233 h 8.5"></path><rect height="22" rx="10" ry="10" width="62.5" x="829.75" y="222"></rect><text x="861.0" y="237">"add"</text></g><path d="M 900.75 233 a 10 10 0 0 0 10 -10 v -40 a 10 10 0 0 1 10 -10"></path><path d="M 801.25 173 a 10 10 0 0 1 10 10 v 70 a 10 10 0 0 0 10 10"></path><g class="terminal ">
<path d="M 821.25 263 h 0.0"></path><path d="M 900.75 263 h 0.0"></path><rect height="22" rx="10" ry="10" width="79.5" x="821.25" y="252"></rect><text x="861.0" y="267">"addpn"</text></g><path d="M 900.75 263 a 10 10 0 0 0 10 -10 v -70 a 10 10 0 0 1 10 -10"></path><path d="M 801.25 173 a 10 10 0 0 1 10 10 v 100 a 10 10 0 0 0 10 10"></path><g class="terminal ">
<path d="M 821.25 293 h 12.75"></path><path d="M 888.0 293 h 12.75"></path><rect height="22" rx="10" ry="10" width="54.0" x="834.0" y="282"></rect><text x="861.0" y="297">"bk"</text></g><path d="M 900.75 293 a 10 10 0 0 0 10 -10 v -100 a 10 10 0 0 1 10 -10"></path><path d="M 801.25 173 a 10 10 0 0 1 10 10 v 130 a 10 10 0 0 0 10 10"></path><g class="terminal ">
<path d="M 821.25 323 h 12.75"></path><path d="M 888.0 323 h 12.75"></path><rect height="22" rx="10" ry="10" width="54.0" x="834.0" y="312"></rect><text x="861.0" y="327">"dc"</text></g><path d="M 900.75 323 a 10 10 0 0 0 10 -10 v -130 a 10 10 0 0 1 10 -10"></path><path d="M 801.25 173 a 10 10 0 0 1 10 10 v 160 a 10 10 0 0 0 10 10"></path><g class="terminal ">
<path d="M 821.25 353 h 8.5"></path><path d="M 892.25 353 h 8.5"></path><rect height="22" rx="10" ry="10" width="62.5" x="829.75" y="342"></rect><text x="861.0" y="357">"efm"</text></g><path d="M 900.75 353 a 10 10 0 0 0 10 -10 v -160 a 10 10 0 0 1 10 -10"></path><path d="M 801.25 173 a 10 10 0 0 1 10 10 v 190 a 10 10 0 0 0 10 10"></path><g class="terminal ">
<path d="M 821.25 383 h 12.75"></path><path d="M 888.0 383 h 12.75"></path><rect height="22" rx="10" ry="10" width="54.0" x="834.0" y="372"></rect><text x="861.0" y="387">"fm"</text></g><path d="M 900.75 383 a 10 10 0 0 0 10 -10 v -190 a 10 10 0 0 1 10 -10"></path><path d="M 801.25 173 a 10 10 0 0 1 10 10 v 220 a 10 10 0 0 0 10 10"></path><g class="terminal ">
<path d="M 821.25 413 h 17.0"></path><path d="M 883.75 413 h 17.0"></path><rect height="22" rx="10" ry="10" width="45.5" x="838.25" y="402"></rect><text x="861.0" y="417">"k"</text></g><path d="M 900.75 413 a 10 10 0 0 0 10 -10 v -220 a 10 10 0 0 1 10 -10"></path></g><path d="M 930.75 173 a 10 10 0 0 1 10 10 v 249 a 10 10 0 0 0 10 10"></path><path d="M 930.75 54 a 10 10 0 0 1 10 10 v 99 a 10 10 0 0 0 10 10"></path><g>
<path d="M 950.75 173 h 10.0"></path><path d="M 1063.25 173 h 10.0"></path><path d="M 960.75 173 a 10 10 0 0 0 10 -10 v -10 a 10 10 0 0 1 10 -10"></path><g class="terminal ">
<path d="M 980.75 143 h 0.0"></path><path d="M 1043.25 143 h 0.0"></path><rect height="22" rx="10" ry="10" width="62.5" x="980.75" y="132"></rect><text x="1012.0" y="147">"ord"</text></g><path d="M 1043.25 143 a 10 10 0 0 1 10 10 v 10 a 10 10 0 0 0 10 10"></path><path d="M 960.75 173 a 10 10 0 0 0 10 -10 v -40 a 10 10 0 0 1 10 -10"></path><g class="terminal ">
<path d="M 980.75 113 h 0.0"></path><path d="M 1043.25 113 h 0.0"></path><rect height="22" rx="10" ry="10" width="62.5" x="980.75" y="102"></rect><text x="1012.0" y="117">"ndx"</text></g><path d="M 1043.25 113 a 10 10 0 0 1 10 10 v 40 a 10 10 0 0 0 10 10"></path><path d="M 960.75 173 a 10 10 0 0 0 10 -10 v -70 a 10 10 0 0 1 10 -10"></path><g class="terminal ">
<path d="M 980.75 83 h 4.25"></path><path d="M 1039.0 83 h 4.25"></path><rect height="22" rx="10" ry="10" width="54.0" x="985.0" y="72"></rect><text x="1012.0" y="87">"nd"</text></g><path d="M 1043.25 83 a 10 10 0 0 1 10 10 v 70 a 10 10 0 0 0 10 10"></path><path d="M 960.75 173 h 20"></path><g class="terminal ">
<path d="M 980.75 173 h 0.0"></path><path d="M 1043.25 173 h 0.0"></path><rect height="22" rx="10" ry="10" width="62.5" x="980.75" y="162"></rect><text x="1012.0" y="177">"png"</text></g><path d="M 1043.25 173 h 20"></path><path d="M 960.75 173 a 10 10 0 0 1 10 10 v 10 a 10 10 0 0 0 10 10"></path><g class="terminal ">
<path d="M 980.75 203 h 4.25"></path><path d="M 1039.0 203 h 4.25"></path><rect height="22" rx="10" ry="10" width="54.0" x="985.0" y="192"></rect><text x="1012.0" y="207">"pn"</text></g><path d="M 1043.25 203 a 10 10 0 0 0 10 -10 v -10 a 10 10 0 0 1 10 -10"></path><path d="M 960.75 173 a 10 10 0 0 1 10 10 v 40 a 10 10 0 0 0 10 10"></path><g class="terminal ">
<path d="M 980.75 233 h 0.0"></path><path d="M 1043.25 233 h 0.0"></path><rect height="22" rx="10" ry="10" width="62.5" x="980.75" y="222"></rect><text x="1012.0" y="237">"pro"</text></g><path d="M 1043.25 233 a 10 10 0 0 0 10 -10 v -40 a 10 10 0 0 1 10 -10"></path><path d="M 960.75 173 a 10 10 0 0 1 10 10 v 70 a 10 10 0 0 0 10 10"></path><g class="terminal ">
<path d="M 980.75 263 h 4.25"></path><path d="M 1039.0 263 h 4.25"></path><rect height="22" rx="10" ry="10" width="54.0" x="985.0" y="252"></rect><text x="1012.0" y="267">"qt"</text></g><path d="M 1043.25 263 a 10 10 0 0 0 10 -10 v -70 a 10 10 0 0 1 10 -10"></path><path d="M 960.75 173 a 10 10 0 0 1 10 10 v 100 a 10 10 0 0 0 10 10"></path><g class="terminal ">
<path d="M 980.75 293 h 4.25"></path><path d="M 1039.0 293 h 4.25"></path><rect height="22" rx="10" ry="10" width="54.0" x="985.0" y="282"></rect><text x="1012.0" y="297">"rq"</text></g><path d="M 1043.25 293 a 10 10 0 0 0 10 -10 v -100 a 10 10 0 0 1 10 -10"></path><path d="M 960.75 173 a 10 10 0 0 1 10 10 v 130 a 10 10 0 0 0 10 10"></path><g class="terminal ">
<path d="M 980.75 323 h 0.0"></path><path d="M 1043.25 323 h 0.0"></path><rect height="22" rx="10" ry="10" width="62.5" x="980.75" y="312"></rect><text x="1012.0" y="327">"sig"</text></g><path d="M 1043.25 323 a 10 10 0 0 0 10 -10 v -130 a 10 10 0 0 1 10 -10"></path><path d="M 960.75 173 a 10 10 0 0 1 10 10 v 160 a 10 10 0 0 0 10 10"></path><g class="terminal ">
<path d="M 980.75 353 h 0.0"></path><path d="M 1043.25 353 h 0.0"></path><rect height="22" rx="10" ry="10" width="62.5" x="980.75" y="342"></rect><text x="1012.0" y="357">"sls"</text></g><path d="M 1043.25 353 a 10 10 0 0 0 10 -10 v -160 a 10 10 0 0 1 10 -10"></path><path d="M 960.75 173 a 10 10 0 0 1 10 10 v 190 a 10 10 0 0 0 10 10"></path><g class="terminal ">
<path d="M 980.75 383 h 4.25"></path><path d="M 1039.0 383 h 4.25"></path><rect height="22" rx="10" ry="10" width="54.0" x="985.0" y="372"></rect><text x="1012.0" y="387">"tl"</text></g><path d="M 1043.25 383 a 10 10 0 0 0 10 -10 v -190 a 10 10 0 0 1 10 -10"></path><path d="M 960.75 173 a 10 10 0 0 1 10 10 v 220 a 10 10 0 0 0 10 10"></path><g class="terminal ">
<path d="M 980.75 413 h 4.25"></path><path d="M 1039.0 413 h 4.25"></path><rect height="22" rx="10" ry="10" width="54.0" x="985.0" y="402"></rect><text x="1012.0" y="417">"wg"</text></g><path d="M 1043.25 413 a 10 10 0 0 0 10 -10 v -220 a 10 10 0 0 1 10 -10"></path></g><path d="M 1073.25 173 a 10 10 0 0 1 10 10 v 249 a 10 10 0 0 0 10 10"></path><path d="M 1073.25 54 a 10 10 0 0 1 10 10 v 99 a 10 10 0 0 0 10 10"></path><g>
<path d="M 1093.25 173 h 10.0"></path><path d="M 1214.25 173 h 10.0"></path><path d="M 1103.25 173 a 10 10 0 0 0 10 -10 v -10 a 10 10 0 0 1 10 -10"></path><g class="terminal ">
<path d="M 1123.25 143 h 8.5"></path><path d="M 1185.75 143 h 8.5"></path><rect height="22" rx="10" ry="10" width="54.0" x="1131.75" y="132"></rect><text x="1158.75" y="147">"wj"</text></g><path d="M 1194.25 143 a 10 10 0 0 1 10 10 v 10 a 10 10 0 0 0 10 10"></path><path d="M 1103.25 173 a 10 10 0 0 0 10 -10 v -40 a 10 10 0 0 1 10 -10"></path><g class="terminal ">
<path d="M 1123.25 113 h 8.5"></path><path d="M 1185.75 113 h 8.5"></path><rect height="22" rx="10" ry="10" width="54.0" x="1131.75" y="102"></rect><text x="1158.75" y="117">"wa"</text></g><path d="M 1194.25 113 a 10 10 0 0 1 10 10 v 40 a 10 10 0 0 0 10 10"></path><path d="M 1103.25 173 a 10 10 0 0 0 10 -10 v -70 a 10 10 0 0 1 10 -10"></path><g class="terminal ">
<path d="M 1123.25 83 h 8.5"></path><path d="M 1185.75 83 h 8.5"></path><rect height="22" rx="10" ry="10" width="54.0" x="1131.75" y="72"></rect><text x="1158.75" y="87">"wh"</text></g><path d="M 1194.25 83 a 10 10 0 0 1 10 10 v 70 a 10 10 0 0 0 10 10"></path><path d="M 1103.25 173 h 20"></path><g class="terminal ">
<path d="M 1123.25 173 h 8.5"></path><path d="M 1185.75 173 h 8.5"></path><rect height="22" rx="10" ry="10" width="54.0" x="1131.75" y="162"></rect><text x="1158.75" y="177">"xt"</text></g><path d="M 1194.25 173 h 20"></path><path d="M 1103.25 173 a 10 10 0 0 1 10 10 v 10 a 10 10 0 0 0 10 10"></path><g class="terminal ">
<path d="M 1123.25 203 h 4.25"></path><path d="M 1190.0 203 h 4.25"></path><rect height="22" rx="10" ry="10" width="62.5" x="1127.5" y="192"></rect><text x="1158.75" y="207">"jmp"</text></g><path d="M 1194.25 203 a 10 10 0 0 0 10 -10 v -10 a 10 10 0 0 1 10 -10"></path><path d="M 1103.25 173 a 10 10 0 0 1 10 10 v 40 a 10 10 0 0 0 10 10"></path><g class="terminal ">
<path d="M 1123.25 233 h 8.5"></path><path d="M 1185.75 233 h 8.5"></path><rect height="22" rx="10" ry="10" width="54.0" x="1131.75" y="222"></rect><text x="1158.75" y="237">"no"</text></g><path d="M 1194.25 233 a 10 10 0 0 0 10 -10 v -40 a 10 10 0 0 1 10 -10"></path><path d="M 1103.25 173 a 10 10 0 0 1 10 10 v 70 a 10 10 0 0 0 10 10"></path><g class="terminal ">
<path d="M 1123.25 263 h 8.5"></path><path d="M 1185.75 263 h 8.5"></path><rect height="22" rx="10" ry="10" width="54.0" x="1131.75" y="252"></rect><text x="1158.75" y="267">"it"</text></g><path d="M 1194.25 263 a 10 10 0 0 0 10 -10 v -70 a 10 10 0 0 1 10 -10"></path><path d="M 1103.25 173 a 10 10 0 0 1 10 10 v 100 a 10 10 0 0 0 10 10"></path><g class="terminal ">
<path d="M 1123.25 293 h 0.0"></path><path d="M 1194.25 293 h 0.0"></path><rect height="22" rx="10" ry="10" width="71.0" x="1123.25" y="282"></rect><text x="1158.75" y="297">"bdit"</text></g><path d="M 1194.25 293 a 10 10 0 0 0 10 -10 v -100 a 10 10 0 0 1 10 -10"></path><path d="M 1103.25 173 a 10 10 0 0 1 10 10 v 130 a 10 10 0 0 0 10 10"></path><g class="terminal ">
<path d="M 1123.25 323 h 8.5"></path><path d="M 1185.75 323 h 8.5"></path><rect height="22" rx="10" ry="10" width="54.0" x="1131.75" y="312"></rect><text x="1158.75" y="327">"bd"</text></g><path d="M 1194.25 323 a 10 10 0 0 0 10 -10 v -130 a 10 10 0 0 1 10 -10"></path><path d="M 1103.25 173 a 10 10 0 0 1 10 10 v 160 a 10 10 0 0 0 10 10"></path><g class="terminal ">
<path d="M 1123.25 353 h 8.5"></path><path d="M 1185.75 353 h 8.5"></path><rect height="22" rx="10" ry="10" width="54.0" x="1131.75" y="342"></rect><text x="1158.75" y="357">"em"</text></g><path d="M 1194.25 353 a 10 10 0 0 0 10 -10 v -160 a 10 10 0 0 1 10 -10"></path><path d="M 1103.25 173 a 10 10 0 0 1 10 10 v 190 a 10 10 0 0 0 10 10"></path><g class="terminal ">
<path d="M 1123.25 383 h 8.5"></path><path d="M 1185.75 383 h 8.5"></path><rect height="22" rx="10" ry="10" width="54.0" x="1131.75" y="372"></rect><text x="1158.75" y="387">"sc"</text></g><path d="M 1194.25 383 a 10 10 0 0 0 10 -10 v -190 a 10 10 0 0 1 10 -10"></path><path d="M 1103.25 173 a 10 10 0 0 1 10 10 v 220 a 10 10 0 0 0 10 10"></path><g class="terminal ">
<path d="M 1123.25 413 h 4.25"></path><path d="M 1190.0 413 h 4.25"></path><rect height="22" rx="10" ry="10" width="62.5" x="1127.5" y="402"></rect><text x="1158.75" y="417">"sup"</text></g><path d="M 1194.25 413 a 10 10 0 0 0 10 -10 v -220 a 10 10 0 0 1 10 -10"></path></g><path d="M 1224.25 173 h 10"></path></g></g><g class="non-terminal ">
<path d="M 771.25 38 h 0.0"></path><path d="M 788.25 38 h 0.0"></path><text class="comment" x="779.75" y="43">➋</text></g></g><path d="M 1244.25 173 h 10"></path><path d="M 1254.25 173 h 10"></path><g>
<path d="M 1264.25 173 h 0.0"></path><path d="M 1375.25 173 h 0.0"></path><path d="M 1264.25 173 h 20"></path><g class="terminal ">
<path d="M 1284.25 173 h 12.75"></path><path d="M 1342.5 173 h 12.75"></path><rect height="22" rx="10" ry="10" width="45.5" x="1297.0" y="162"></rect><text x="1319.75" y="177">' '</text></g><path d="M 1355.25 173 h 20"></path><path d="M 1264.25 173 a 10 10 0 0 1 10 10 v 10 a 10 10 0 0 0 10 10"></path><g class="terminal altterminal">
<path d="M 1284.25 203 h 0.0"></path><path d="M 1355.25 203 h 0.0"></path><rect height="22" rx="10" ry="10" width="71.0" x="1284.25" y="192"></rect><text x="1319.75" y="207">TAGEND</text></g><path d="M 1355.25 203 a 10 10 0 0 0 10 -10 v -10 a 10 10 0 0 1 10 -10"></path></g></g><path d="M 2001.0 173 a 10 10 0 0 1 10 10 v 265 a 10 10 0 0 1 -10 10 h -1921.0 a 10 10 0 0 0 -10 10 v 19 a 10 10 0 0 0 10 10"></path><g>
<path d="M 80.0 497 h 10.0"></path><path d="M 1991.0 497 h 10.0"></path><path d="M 90.0 497 h 20"></path><g>
<path d="M 110.0 497 h 0.0"></path><path d="M 1971.0 497 h 0.0"></path><g>
<path d="M 110.0 497 h 0.0"></path><path d="M 246.5 497 h 0.0"></path><path d="M 110.0 497 h 20"></path><g>
<path d="M 130.0 497 h 96.5"></path></g><path d="M 226.5 497 h 20"></path><path d="M 110.0 497 a 10 10 0 0 1 10 10 v 0 a 10 10 0 0 0 10 10"></path><g class="non-terminal ">
<path d="M 130.0 517 h 0.0"></path><path d="M 226.5 517 h 0.0"></path><rect height="22" width="96.5" x="130.0" y="506"></rect><text x="178.25" y="521">char.link</text></g><path d="M 226.5 517 a 10 10 0 0 0 10 -10 v 0 a 10 10 0 0 1 10 -10"></path></g><path d="M 246.5 497 h 10"></path><path d="M 256.5 497 h 10"></path><g>
<path d="M 266.5 497 h 0.0"></path><path d="M 582.0 497 h 0.0"></path><path d="M 266.5 497 h 10"></path><g>
<path d="M 276.5 497 h 0.0"></path><path d="M 572.0 497 h 0.0"></path><path d="M 276.5 497 h 20"></path><g class="non-terminal ">
<path d="M 296.5 497 h 79.5"></path><path d="M 472.5 497 h 79.5"></path><rect height="22" width="96.5" x="376.0" y="486"></rect><text x="424.25" y="501">CharEmbed</text></g><path d="M 552.0 497 h 20"></path><path d="M 276.5 497 a 10 10 0 0 1 10 10 v 10 a 10 10 0 0 0 10 10"></path><g class="non-terminal ">
<path d="M 296.5 527 h 79.5"></path><path d="M 472.5 527 h 79.5"></path><rect height="22" width="96.5" x="376.0" y="516"></rect><text x="424.25" y="531">Milestone</text></g><path d="M 552.0 527 a 10 10 0 0 0 10 -10 v -10 a 10 10 0 0 1 10 -10"></path><path d="M 276.5 497 a 10 10 0 0 1 10 10 v 40 a 10 10 0 0 0 10 10"></path><g class="non-terminal ">
<path d="M 296.5 557 h 83.75"></path><path d="M 468.25 557 h 83.75"></path><rect height="22" width="88.0" x="380.25" y="546"></rect><text x="424.25" y="561">Footnote</text></g><path d="M 552.0 557 a 10 10 0 0 0 10 -10 v -40 a 10 10 0 0 1 10 -10"></path><path d="M 276.5 497 a 10 10 0 0 1 10 10 v 70 a 10 10 0 0 0 10 10"></path><g class="non-terminal ">
<path d="M 296.5 587 h 58.25"></path><path d="M 493.75 587 h 58.25"></path><rect height="22" width="139.0" x="354.75" y="576"></rect><text x="424.25" y="591">CrossReference</text></g><path d="M 552.0 587 a 10 10 0 0 0 10 -10 v -70 a 10 10 0 0 1 10 -10"></path><path d="M 276.5 497 a 10 10 0 0 1 10 10 v 100 a 10 10 0 0 0 10 10"></path><g>
<path d="M 296.5 617 h 100.75"></path><path d="M 451.25 617 h 100.75"></path><g class="terminal ">
<path d="M 397.25 617 h 0.0"></path><path d="M 451.25 617 h 0.0"></path><rect height="22" rx="10" ry="10" width="54.0" x="397.25" y="606"></rect><text x="424.25" y="621">'//'</text></g></g><path d="M 552.0 617 a 10 10 0 0 0 10 -10 v -100 a 10 10 0 0 1 10 -10"></path><path d="M 276.5 497 a 10 10 0 0 1 10 10 v 130 a 10 10 0 0 0 10 10"></path><g>
<path d="M 296.5 647 h 0.0"></path><path d="M 552.0 647 h 0.0"></path><g class="terminal ">
<path d="M 296.5 647 h 0.0"></path><path d="M 401.5 647 h 0.0"></path><rect height="22" rx="10" ry="10" width="105.0" x="296.5" y="636"></rect><text x="349.0" y="651">TEXTATTRIB</text></g><path d="M 401.5 647 h 10"></path><path d="M 411.5 647 h 10"></path><g class="terminal ">
<path d="M 421.5 647 h 0.0"></path><path d="M 552.0 647 h 0.0"></path><rect height="22" rx="10" ry="10" width="130.5" x="421.5" y="636"></rect><text x="486.75" y="651">ATTRIBTEXTEND</text></g></g><path d="M 552.0 647 a 10 10 0 0 0 10 -10 v -130 a 10 10 0 0 1 10 -10"></path></g><path d="M 572.0 497 h 10"></path><path d="M 276.5 497 a 10 10 0 0 0 -10 10 v 159 a 10 10 0 0 0 10 10"></path><g>
<path d="M 276.5 676 h 295.5"></path></g><path d="M 572.0 676 a 10 10 0 0 0 10 -10 v -159 a 10 10 0 0 0 -10 -10"></path></g><path d="M 582.0 497 h 10"></path><path d="M 592.0 497 h 10"></path><g>
<path d="M 602.0 497 h 0.0"></path><path d="M 696.0 497 h 0.0"></path><path d="M 602.0 497 h 20"></path><g class="terminal ">
<path d="M 622.0 497 h 4.25"></path><path d="M 671.75 497 h 4.25"></path><rect height="22" rx="10" ry="10" width="45.5" x="626.25" y="486"></rect><text x="649.0" y="501">'|'</text></g><path d="M 676.0 497 h 20"></path><path d="M 602.0 497 a 10 10 0 0 1 10 10 v 10 a 10 10 0 0 0 10 10"></path><g class="terminal altterminal">
<path d="M 622.0 527 h 0.0"></path><path d="M 676.0 527 h 0.0"></path><rect height="22" rx="10" ry="10" width="54.0" x="622.0" y="516"></rect><text x="649.0" y="531">PIPE</text></g><path d="M 676.0 527 a 10 10 0 0 0 10 -10 v -10 a 10 10 0 0 1 10 -10"></path></g><path d="M 696.0 497 h 10"></path><path d="M 706.0 497 h 10"></path><g>
<path d="M 716.0 497 h 0.0"></path><path d="M 1774.5 497 h 0.0"></path><path d="M 716.0 497 h 20"></path><g>
<path d="M 736.0 497 h 427.0"></path><path d="M 1327.5 497 h 427.0"></path><g class="terminal ">
<path d="M 1163.0 497 h 0.0"></path><path d="M 1327.5 497 h 0.0"></path><rect height="22" rx="10" ry="10" width="164.5" x="1163.0" y="486"></rect><text x="1245.25" y="501">/&#91;^\\=\n&#93;+(?=\\)/</text></g></g><path d="M 1754.5 497 h 20"></path><path d="M 716.0 497 a 10 10 0 0 1 10 10 v 10 a 10 10 0 0 0 10 10"></path><g>
<path d="M 736.0 527 h 0.0"></path><path d="M 1754.5 527 h 0.0"></path><path d="M 736.0 527 h 10"></path><g>
<path d="M 746.0 527 h 0.0"></path><path d="M 1744.5 527 h 0.0"></path><g class="terminal ">
<path d="M 746.0 527 h 0.0"></path><path d="M 868.0 527 h 0.0"></path><rect height="22" rx="10" ry="10" width="122.0" x="746.0" y="516"></rect><text x="807.0" y="531">/&#91;^\\\n="&#93;+/</text></g><path d="M 868.0 527 h 10"></path><path d="M 878.0 527 h 10"></path><g class="terminal ">
<path d="M 888.0 527 h 0.0"></path><path d="M 942.0 527 h 0.0"></path><rect height="22" rx="10" ry="10" width="54.0" x="888.0" y="516"></rect><text x="915.0" y="531">'="'</text></g><path d="M 942.0 527 h 10"></path><path d="M 952.0 527 h 10"></path><g class="terminal ">
<path d="M 962.0 527 h 0.0"></path><path d="M 1075.5 527 h 0.0"></path><rect height="22" rx="10" ry="10" width="113.5" x="962.0" y="516"></rect><text x="1018.75" y="531">/&#91;^\\\n"&#93;+/</text></g><path d="M 1075.5 527 h 10"></path><path d="M 1085.5 527 h 10"></path><g class="terminal ">
<path d="M 1095.5 527 h 0.0"></path><path d="M 1744.5 527 h 0.0"></path><rect height="22" rx="10" ry="10" width="649.0" x="1095.5" y="516"></rect><text x="1420.0" y="531">/"&#91;\u0009-\u000D\u0020\u00A0\u1680\u2000-\u200B\u2028\u2029\u202F\u205F&#93;&#42;/</text></g></g><path d="M 1744.5 527 h 10"></path><path d="M 746.0 527 a 10 10 0 0 0 -10 10 v 0 a 10 10 0 0 0 10 10"></path><g>
<path d="M 746.0 547 h 998.5"></path></g><path d="M 1744.5 547 a 10 10 0 0 0 10 -10 v 0 a 10 10 0 0 0 -10 -10"></path></g><path d="M 1754.5 527 a 10 10 0 0 0 10 -10 v -10 a 10 10 0 0 1 10 -10"></path></g><path d="M 1774.5 497 h 10"></path><path d="M 1784.5 497 h 10"></path><g class="terminal ">
<path d="M 1794.5 497 h 0.0"></path><path d="M 1840.0 497 h 0.0"></path><rect height="22" rx="10" ry="10" width="45.5" x="1794.5" y="486"></rect><text x="1817.25" y="501">'\'</text></g><path d="M 1840.0 497 h 10"></path><path d="M 1850.0 497 h 10"></path><g class="terminal ">
<path d="M 1860.0 497 h 0.0"></path><path d="M 1905.5 497 h 0.0"></path><rect height="22" rx="10" ry="10" width="45.5" x="1860.0" y="486"></rect><text x="1882.75" y="501">⇐ ➓</text></g><path d="M 1905.5 497 h 10"></path><path d="M 1915.5 497 h 10"></path><g class="terminal ">
<path d="M 1925.5 497 h 0.0"></path><path d="M 1971.0 497 h 0.0"></path><rect height="22" rx="10" ry="10" width="45.5" x="1925.5" y="486"></rect><text x="1948.25" y="501">'&#42;'</text></g></g><path d="M 1971.0 497 h 20"></path><path d="M 90.0 497 a 10 10 0 0 1 10 10 v 188 a 10 10 0 0 0 10 10"></path><g>
<path d="M 110.0 705 h 596.25"></path><path d="M 1374.75 705 h 596.25"></path><g>
<path d="M 706.25 705 h 0.0"></path><path d="M 842.75 705 h 0.0"></path><path d="M 706.25 705 h 20"></path><g>
<path d="M 726.25 705 h 96.5"></path></g><path d="M 822.75 705 h 20"></path><path d="M 706.25 705 a 10 10 0 0 1 10 10 v 0 a 10 10 0 0 0 10 10"></path><g class="non-terminal ">
<path d="M 726.25 725 h 0.0"></path><path d="M 822.75 725 h 0.0"></path><rect height="22" width="96.5" x="726.25" y="714"></rect><text x="774.5" y="729">char.link</text></g><path d="M 822.75 725 a 10 10 0 0 0 10 -10 v 0 a 10 10 0 0 1 10 -10"></path></g><path d="M 842.75 705 h 10"></path><path d="M 852.75 705 h 10"></path><g>
<path d="M 862.75 705 h 0.0"></path><path d="M 1178.25 705 h 0.0"></path><path d="M 862.75 705 h 10"></path><g>
<path d="M 872.75 705 h 0.0"></path><path d="M 1168.25 705 h 0.0"></path><path d="M 872.75 705 h 20"></path><g class="non-terminal ">
<path d="M 892.75 705 h 79.5"></path><path d="M 1068.75 705 h 79.5"></path><rect height="22" width="96.5" x="972.25" y="694"></rect><text x="1020.5" y="709">CharEmbed</text></g><path d="M 1148.25 705 h 20"></path><path d="M 872.75 705 a 10 10 0 0 1 10 10 v 10 a 10 10 0 0 0 10 10"></path><g class="non-terminal ">
<path d="M 892.75 735 h 79.5"></path><path d="M 1068.75 735 h 79.5"></path><rect height="22" width="96.5" x="972.25" y="724"></rect><text x="1020.5" y="739">Milestone</text></g><path d="M 1148.25 735 a 10 10 0 0 0 10 -10 v -10 a 10 10 0 0 1 10 -10"></path><path d="M 872.75 705 a 10 10 0 0 1 10 10 v 40 a 10 10 0 0 0 10 10"></path><g class="non-terminal ">
<path d="M 892.75 765 h 83.75"></path><path d="M 1064.5 765 h 83.75"></path><rect height="22" width="88.0" x="976.5" y="754"></rect><text x="1020.5" y="769">Footnote</text></g><path d="M 1148.25 765 a 10 10 0 0 0 10 -10 v -40 a 10 10 0 0 1 10 -10"></path><path d="M 872.75 705 a 10 10 0 0 1 10 10 v 70 a 10 10 0 0 0 10 10"></path><g class="non-terminal ">
<path d="M 892.75 795 h 58.25"></path><path d="M 1090.0 795 h 58.25"></path><rect height="22" width="139.0" x="951.0" y="784"></rect><text x="1020.5" y="799">CrossReference</text></g><path d="M 1148.25 795 a 10 10 0 0 0 10 -10 v -70 a 10 10 0 0 1 10 -10"></path><path d="M 872.75 705 a 10 10 0 0 1 10 10 v 100 a 10 10 0 0 0 10 10"></path><g>
<path d="M 892.75 825 h 100.75"></path><path d="M 1047.5 825 h 100.75"></path><g class="terminal ">
<path d="M 993.5 825 h 0.0"></path><path d="M 1047.5 825 h 0.0"></path><rect height="22" rx="10" ry="10" width="54.0" x="993.5" y="814"></rect><text x="1020.5" y="829">'//'</text></g></g><path d="M 1148.25 825 a 10 10 0 0 0 10 -10 v -100 a 10 10 0 0 1 10 -10"></path><path d="M 872.75 705 a 10 10 0 0 1 10 10 v 130 a 10 10 0 0 0 10 10"></path><g>
<path d="M 892.75 855 h 0.0"></path><path d="M 1148.25 855 h 0.0"></path><g class="terminal ">
<path d="M 892.75 855 h 0.0"></path><path d="M 997.75 855 h 0.0"></path><rect height="22" rx="10" ry="10" width="105.0" x="892.75" y="844"></rect><text x="945.25" y="859">TEXTATTRIB</text></g><path d="M 997.75 855 h 10"></path><path d="M 1007.75 855 h 10"></path><g class="terminal ">
<path d="M 1017.75 855 h 0.0"></path><path d="M 1148.25 855 h 0.0"></path><rect height="22" rx="10" ry="10" width="130.5" x="1017.75" y="844"></rect><text x="1083.0" y="859">ATTRIBTEXTEND</text></g></g><path d="M 1148.25 855 a 10 10 0 0 0 10 -10 v -130 a 10 10 0 0 1 10 -10"></path></g><path d="M 1168.25 705 h 10"></path><path d="M 872.75 705 a 10 10 0 0 0 -10 10 v 159 a 10 10 0 0 0 10 10"></path><g>
<path d="M 872.75 884 h 295.5"></path></g><path d="M 1168.25 884 a 10 10 0 0 0 10 -10 v -159 a 10 10 0 0 0 -10 -10"></path></g><path d="M 1178.25 705 h 10"></path><path d="M 1188.25 705 h 10"></path><g>
<path d="M 1198.25 705 h 0.0"></path><path d="M 1374.75 705 h 0.0"></path><g class="terminal ">
<path d="M 1198.25 705 h 0.0"></path><path d="M 1243.75 705 h 0.0"></path><rect height="22" rx="10" ry="10" width="45.5" x="1198.25" y="694"></rect><text x="1221.0" y="709">'\'</text></g><path d="M 1243.75 705 h 10"></path><path d="M 1253.75 705 h 10"></path><g class="terminal ">
<path d="M 1263.75 705 h 0.0"></path><path d="M 1309.25 705 h 0.0"></path><rect height="22" rx="10" ry="10" width="45.5" x="1263.75" y="694"></rect><text x="1286.5" y="709">⇐ ➓</text></g><path d="M 1309.25 705 h 10"></path><path d="M 1319.25 705 h 10"></path><g class="terminal ">
<path d="M 1329.25 705 h 0.0"></path><path d="M 1374.75 705 h 0.0"></path><rect height="22" rx="10" ry="10" width="45.5" x="1329.25" y="694"></rect><text x="1352.0" y="709">'&#42;'</text></g></g></g><path d="M 1971.0 705 a 10 10 0 0 0 10 -10 v -188 a 10 10 0 0 1 10 -10"></path></g><path d="M 2001.0 497 h 10"></path><path d="M 2011.0 497 h 0.0"></path></g><path d="M 2011.0 497 h 20"></path><path d="M 50.0 173 a 10 10 0 0 1 10 10 v 720 a 10 10 0 0 0 10 10"></path><g class="non-terminal ">
<path d="M 70.0 913 h 901.0"></path><path d="M 1110.0 913 h 901.0"></path><rect height="22" width="139.0" x="971.0" y="902"></rect><text x="1040.5" y="917">CharWithAttrib</text></g><path d="M 2011.0 913 a 10 10 0 0 0 10 -10 v -396 a 10 10 0 0 1 10 -10"></path><path d="M 50.0 173 a 10 10 0 0 1 10 10 v 750 a 10 10 0 0 0 10 10"></path><g class="non-terminal ">
<path d="M 70.0 943 h 935.0"></path><path d="M 1076.0 943 h 935.0"></path><rect height="22" width="71.0" x="1005.0" y="932"></rect><text x="1040.5" y="947">Figure</text></g><path d="M 2011.0 943 a 10 10 0 0 0 10 -10 v -426 a 10 10 0 0 1 10 -10"></path></g></g><path d="M 2031.0 497 h 10"></path><path d="M 2041.0 497 h 20 m 0 -10 v 20"></path></g></svg>