<svg class="railroad-diagram" height="984" viewBox="0 0 2007.0 984" width="2007.0" xmlns="http://www.w3.org/2000/svg" xmlns:xlink="http://www.w3.org/1999/xlink">
<g transform="translate(.5 .5)">
<style>/* <![CDATA[ */

    svg.railroad-diagram {
        background-color:hsl(30,20%,95%);
    }
    svg.railroad-diagram path {
        stroke-width: 2;
        stroke: black;
        fill: none;
    }
    svg.railroad-diagram text {
        font-size: 12px;
        text-anchor: middle;
        font-family: DejaVu Sans;
    }
    svg.railroad-diagram text.label {
        text-anchor:start;
    }
    svg.railroad-diagram text.comment {
        font-family: DejaVu Sans;
        font-size: 14px;
    }
    svg.railroad-diagram rect{
        stroke-width: 2;
        stroke:black;
        fill: rgb(210, 255, 210);
    }
    svg.railroad-diagram rect.group-box {
        stroke: gray;
        stroke-dasharray: 10 5;
        fill: none;
    }
    .terminal {
        font-family: DejaVu Sans;
    }

/* ]]> */
</style><g>
<path d="M 20 163 v 20 m 0 -10 h 20"></path></g><path d="M 40 173 h 10"></path><g>
<path d="M 50 173 h 0.0"></path><path d="M 1957.0 497 h 0.0"></path><g>
<path d="M 50.0 173 h 0.0"></path><path d="M 1957.0 497 h 0.0"></path><path d="M 50.0 173 h 20"></path><g>
<path d="M 70.0 173 h 0.0"></path><path d="M 70.0 173 h 10"></path><g>
<path d="M 80.0 173 h 608.75"></path><path d="M 1318.25 173 h 608.75"></path><g class="terminal ">
<path d="M 688.75 173 h 0.0"></path><path d="M 734.25 173 h 0.0"></path><rect height="22" rx="10" ry="10" width="45.5" x="688.75" y="162"></rect><text x="711.5" y="177">'\'</text></g><path d="M 734.25 173 h 10"></path><path d="M 744.25 173 h 10"></path><g>
<path d="M 754.25 173 h 0.0"></path><path d="M 1227.25 173 h 0.0"></path><rect class="group-box" height="404" rx="10" ry="10" width="473.0" x="754.25" y="46"></rect><g>
<path d="M 754.25 173 h 10.0"></path><path d="M 1217.25 173 h 10.0"></path><g>
<path d="M 764.25 173 h 0.0"></path><path d="M 1217.25 173 h 0.0"></path><path d="M 764.25 173 a 10 10 0 0 0 10 -10 v -99 a 10 10 0 0 1 10 -10 h 272.0"></path><path d="M 933.75 442 h 263.5 a 10 10 0 0 0 10 -10 v -249 a 10 10 0 0 1 10 -10"></path><path d="M 764.25 173 h 10"></path><g>
<path d="M 774.25 173 h 10.0"></path><path d="M 903.75 173 h 10.0"></path><path d="M 784.25 173 a 10 10 0 0 0 10 -10 v -10 a 10 10 0 0 1 10 -10"></path><g class="terminal ">
<path d="M 804.25 143 h 12.75"></path><path d="M 871.0 143 h 12.75"></path><rect height="22" rx="10" ry="10" width="54.0" x="817.0" y="132"></rect><text x="844.0" y="147">"ca"</text></g><path d="M 883.75 143 a 10 10 0 0 1 10 10 v 10 a 10 10 0 0 0 10 10"></path><path d="M 784.25 173 a 10 10 0 0 0 10 -10 v -40 a 10 10 0 0 1 10 -10"></path><g class="terminal ">
<path d="M 804.25 113 h 12.75"></path><path d="M 871.0 113 h 12.75"></path><rect height="22" rx="10" ry="10" width="54.0" x="817.0" y="102"></rect><text x="844.0" y="117">"vp"</text></g><path d="M 883.75 113 a 10 10 0 0 1 10 10 v 40 a 10 10 0 0 0 10 10"></path><path d="M 784.25 173 a 10 10 0 0 0 10 -10 v -70 a 10 10 0 0 1 10 -10"></path><g class="terminal ">
<path d="M 804.25 83 h 12.75"></path><path d="M 871.0 83 h 12.75"></path><rect height="22" rx="10" ry="10" width="54.0" x="817.0" y="72"></rect><text x="844.0" y="87">"va"</text></g><path d="M 883.75 83 a 10 10 0 0 1 10 10 v 70 a 10 10 0 0 0 10 10"></path><path d="M 784.25 173 h 20"></path><g class="terminal ">
<path d="M 804.25 173 h 8.5"></path><path d="M 875.25 173 h 8.5"></path><rect height="22" rx="10" ry="10" width="62.5" x="812.75" y="162"></rect><text x="844.0" y="177">"qac"</text></g><path d="M 883.75 173 h 20"></path><path d="M 784.25 173 a 10 10 0 0 1 10 10 v 10 a 10 10 0 0 0 10 10"></path><g class="terminal ">
<path d="M 804.25 203 h 12.75"></path><path d="M 871.0 203 h 12.75"></path><rect height="22" rx="10" ry="10" width="54.0" x="817.0" y="192"></rect><text x="844.0" y="207">"qs"</text></g><path d="M 883.75 203 a 10 10 0 0 0 10 -10 v -10 a 10 10 0 0 1 10 -10"></path><path d="M 784.25 173 a 10 10 0 0 1 10 10 v 40 a 10 10 0 0 0 10 10"></path><g class="terminal ">
<path d="M 804.25 233 h 8.5"></path><path d="M 875.25 233 h 8.5"></path><rect height="22" rx="10" ry="10" width="62.5" x="812.75" y="222"></rect><text x="844.0" y="237">"add"</text></g><path d="M 883.75 233 a 10 10 0 0 0 10 -10 v -40 a 10 10 0 0 1 10 -10"></path><path d="M 784.25 173 a 10 10 0 0 1 10 10 v 70 a 10 10 0 0 0 10 10"></path><g class="terminal ">
<path d="M 804.25 263 h 0.0"></path><path d="M 883.75 263 h 0.0"></path><rect height="22" rx="10" ry="10" width="79.5" x="804.25" y="252"></rect><text x="844.0" y="267">"addpn"</text></g><path d="M 883.75 263 a 10 10 0 0 0 10 -10 v -70 a 10 10 0 0 1 10 -10"></path><path d="M 784.25 173 a 10 10 0 0 1 10 10 v 100 a 10 10 0 0 0 10 10"></path><g class="terminal ">
<path d="M 804.25 293 h 12.75"></path><path d="M 871.0 293 h 12.75"></path><rect height="22" rx="10" ry="10" width="54.0" x="817.0" y="282"></rect><text x="844.0" y="297">"bk"</text></g><path d="M 883.75 293 a 10 10 0 0 0 10 -10 v -100 a 10 10 0 0 1 10 -10"></path><path d="M 784.25 173 a 10 10 0 0 1 10 10 v 130 a 10 10 0 0 0 10 10"></path><g class="terminal ">
<path d="M 804.25 323 h 12.75"></path><path d="M 871.0 323 h 12.75"></path><rect height="22" rx="10" ry="10" width="54.0" x="817.0" y="312"></rect><text x="844.0" y="327">"dc"</text></g><path d="M 883.75 323 a 10 10 0 0 0 10 -10 v -130 a 10 10 0 0 1 10 -10"></path><path d="M 784.25 173 a 10 10 0 0 1 10 10 v 160 a 10 10 0 0 0 10 10"></path><g class="terminal ">
<path d="M 804.25 353 h 8.5"></path><path d="M 875.25 353 h 8.5"></path><rect height="22" rx="10" ry="10" width="62.5" x="812.75" y="342"></rect><text x="844.0" y="357">"efm"</text></g><path d="M 883.75 353 a 10 10 0 0 0 10 -10 v -160 a 10 10 0 0 1 10 -10"></path><path d="M 784.25 173 a 10 10 0 0 1 10 10 v 190 a 10 10 0 0 0 10 10"></path><g class="terminal ">
<path d="M 804.25 383 h 12.75"></path><path d="M 871.0 383 h 12.75"></path><rect height="22" rx="10" ry="10" width="54.0" x="817.0" y="372"></rect><text x="844.0" y="387">"fm"</text></g><path d="M 883.75 383 a 10 10 0 0 0 10 -10 v -190 a 10 10 0 0 1 10 -10"></path><path d="M 784.25 173 a 10 10 0 0 1 10 10 v 220 a 10 10 0 0 0 10 10"></path><g class="terminal ">
<path d="M 804.25 413 h 17.0"></path><path d="M 866.75 413 h 17.0"></path><rect height="22" rx="10" ry="10" width="45.5" x="821.25" y="402"></rect><text x="844.0" y="417">"k"</text></g><path d="M 883.75 413 a 10 10 0 0 0 10 -10 v -220 a 10 10 0 0 1 10 -10"></path></g><path d="M 913.75 173 a 10 10 0 0 1 10 10 v 249 a 10 10 0 0 0 10 10"></path><path d="M 913.75 54 a 10 10 0 0 1 10 10 v 99 a 10 10 0 0 0 10 10"></path><g>
<path d="M 933.75 173 h 10.0"></path><path d="M 1046.25 173 h 10.0"></path><path d="M 943.75 173 a 10 10 0 0 0 10 -10 v -10 a 10 10 0 0 1 10 -10"></path><g class="terminal ">
<path d="M 963.75 143 h 0.0"></path><path d="M 1026.25 143 h 0.0"></path><rect height="22" rx="10" ry="10" width="62.5" x="963.75" y="132"></rect><text x="995.0" y="147">"ord"</text></g><path d="M 1026.25 143 a 10 10 0 0 1 10 10 v 10 a 10 10 0 0 0 10 10"></path><path d="M 943.75 173 a 10 10 0 0 0 10 -10 v -40 a 10 10 0 0 1 10 -10"></path><g class="terminal ">
<path d="M 963.75 113 h 0.0"></path><path d="M 1026.25 113 h 0.0"></path><rect height="22" rx="10" ry="10" width="62.5" x="963.75" y="102"></rect><text x="995.0" y="117">"ndx"</text></g><path d="M 1026.25 113 a 10 10 0 0 1 10 10 v 40 a 10 10 0 0 0 10 10"></path><path d="M 943.75 173 a 10 10 0 0 0 10 -10 v -70 a 10 10 0 0 1 10 -10"></path><g class="terminal ">
<path d="M 963.75 83 h 4.25"></path><path d="M 1022.0 83 h 4.25"></path><rect height="22" rx="10" ry="10" width="54.0" x="968.0" y="72"></rect><text x="995.0" y="87">"nd"</text></g><path d="M 1026.25 83 a 10 10 0 0 1 10 10 v 70 a 10 10 0 0 0 10 10"></path><path d="M 943.75 173 h 20"></path><g class="terminal ">
<path d="M 963.75 173 h 0.0"></path><path d="M 1026.25 173 h 0.0"></path><rect height="22" rx="10" ry="10" width="62.5" x="963.75" y="162"></rect><text x="995.0" y="177">"png"</text></g><path d="M 1026.25 173 h 20"></path><path d="M 943.75 173 a 10 10 0 0 1 10 10 v 10 a 10 10 0 0 0 10 10"></path><g class="terminal ">
<path d="M 963.75 203 h 4.25"></path><path d="M 1022.0 203 h 4.25"></path><rect height="22" rx="10" ry="10" width="54.0" x="968.0" y="192"></rect><text x="995.0" y="207">"pn"</text></g><path d="M 1026.25 203 a 10 10 0 0 0 10 -10 v -10 a 10 10 0 0 1 10 -10"></path><path d="M 943.75 173 a 10 10 0 0 1 10 10 v 40 a 10 10 0 0 0 10 10"></path><g class="terminal ">
<path d="M 963.75 233 h 0.0"></path><path d="M 1026.25 233 h 0.0"></path><rect height="22" rx="10" ry="10" width="62.5" x="963.75" y="222"></rect><text x="995.0" y="237">"pro"</text></g><path d="M 1026.25 233 a 10 10 0 0 0 10 -10 v -40 a 10 10 0 0 1 10 -10"></path><path d="M 943.75 173 a 10 10 0 0 1 10 10 v 70 a 10 10 0 0 0 10 10"></path><g class="terminal ">
<path d="M 963.75 263 h 4.25"></path><path d="M 1022.0 263 h 4.25"></path><rect height="22" rx="10" ry="10" width="54.0" x="968.0" y="252"></rect><text x="995.0" y="267">"qt"</text></g><path d="M 1026.25 263 a 10 10 0 0 0 10 -10 v -70 a 10 10 0 0 1 10 -10"></path><path d="M 943.75 173 a 10 10 0 0 1 10 10 v 100 a 10 10 0 0 0 10 10"></path><g class="terminal ">
<path d="M 963.75 293 h 4.25"></path><path d="M 1022.0 293 h 4.25"></path><rect height="22" rx="10" ry="10" width="54.0" x="968.0" y="282"></rect><text x="995.0" y="297">"rq"</text></g><path d="M 1026.25 293 a 10 10 0 0 0 10 -10 v -100 a 10 10 0 0 1 10 -10"></path><path d="M 943.75 173 a 10 10 0 0 1 10 10 v 130 a 10 10 0 0 0 10 10"></path><g class="terminal ">
<path d="M 963.75 323 h 0.0"></path><path d="M 1026.25 323 h 0.0"></path><rect height="22" rx="10" ry="10" width="62.5" x="963.75" y="312"></rect><text x="995.0" y="327">"sig"</text></g><path d="M 1026.25 323 a 10 10 0 0 0 10 -10 v -130 a 10 10 0 0 1 10 -10"></path><path d="M 943.75 173 a 10 10 0 0 1 10 10 v 160 a 10 10 0 0 0 10 10"></path><g class="terminal ">
<path d="M 963.75 353 h 0.0"></path><path d="M 1026.25 353 h 0.0"></path><rect height="22" rx="10" ry="10" width="62.5" x="963.75" y="342"></rect><text x="995.0" y="357">"sls"</text></g><path d="M 1026.25 353 a 10 10 0 0 0 10 -10 v -160 a 10 10 0 0 1 10 -10"></path><path d="M 943.75 173 a 10 10 0 0 1 10 10 v 190 a 10 10 0 0 0 10 10"></path><g class="terminal ">
<path d="M 963.75 383 h 4.25"></path><path d="M 1022.0 383 h 4.25"></path><rect height="22" rx="10" ry="10" width="54.0" x="968.0" y="372"></rect><text x="995.0" y="387">"tl"</text></g><path d="M 1026.25 383 a 10 10 0 0 0 10 -10 v -190 a 10 10 0 0 1 10 -10"></path><path d="M 943.75 173 a 10 10 0 0 1 10 10 v 220 a 10 10 0 0 0 10 10"></path><g class="terminal ">
<path d="M 963.75 413 h 4.25"></path><path d="M 1022.0 413 h 4.25"></path><rect height="22" rx="10" ry="10" width="54.0" x="968.0" y="402"></rect><text x="995.0" y="417">"wg"</text></g><path d="M 1026.25 413 a 10 10 0 0 0 10 -10 v -220 a 10 10 0 0 1 10 -10"></path></g><path d="M 1056.25 173 a 10 10 0 0 1 10 10 v 249 a 10 10 0 0 0 10 10"></path><path d="M 1056.25 54 a 10 10 0 0 1 10 10 v 99 a 10 10 0 0 0 10 10"></path><g>
<path d="M 1076.25 173 h 10.0"></path><path d="M 1197.25 173 h 10.0"></path><path d="M 1086.25 173 a 10 10 0 0 0 10 -10 v -10 a 10 10 0 0 1 10 -10"></path><g class="terminal ">
<path d="M 1106.25 143 h 8.5"></path><path d="M 1168.75 143 h 8.5"></path><rect height="22" rx="10" ry="10" width="54.0" x="1114.75" y="132"></rect><text x="1141.75" y="147">"wj"</text></g><path d="M 1177.25 143 a 10 10 0 0 1 10 10 v 10 a 10 10 0 0 0 10 10"></path><path d="M 1086.25 173 a 10 10 0 0 0 10 -10 v -40 a 10 10 0 0 1 10 -10"></path><g class="terminal ">
<path d="M 1106.25 113 h 8.5"></path><path d="M 1168.75 113 h 8.5"></path><rect height="22" rx="10" ry="10" width="54.0" x="1114.75" y="102"></rect><text x="1141.75" y="117">"wa"</text></g><path d="M 1177.25 113 a 10 10 0 0 1 10 10 v 40 a 10 10 0 0 0 10 10"></path><path d="M 1086.25 173 a 10 10 0 0 0 10 -10 v -70 a 10 10 0 0 1 10 -10"></path><g class="terminal ">
<path d="M 1106.25 83 h 8.5"></path><path d="M 1168.75 83 h 8.5"></path><rect height="22" rx="10" ry="10" width="54.0" x="1114.75" y="72"></rect><text x="1141.75" y="87">"wh"</text></g><path d="M 1177.25 83 a 10 10 0 0 1 10 10 v 70 a 10 10 0 0 0 10 10"></path><path d="M 1086.25 173 h 20"></path><g class="terminal ">
<path d="M 1106.25 173 h 8.5"></path><path d="M 1168.75 173 h 8.5"></path><rect height="22" rx="10" ry="10" width="54.0" x="1114.75" y="162"></rect><text x="1141.75" y="177">"xt"</text></g><path d="M 1177.25 173 h 20"></path><path d="M 1086.25 173 a 10 10 0 0 1 10 10 v 10 a 10 10 0 0 0 10 10"></path><g class="terminal ">
<path d="M 1106.25 203 h 4.25"></path><path d="M 1173.0 203 h 4.25"></path><rect height="22" rx="10" ry="10" width="62.5" x="1110.5" y="192"></rect><text x="1141.75" y="207">"jmp"</text></g><path d="M 1177.25 203 a 10 10 0 0 0 10 -10 v -10 a 10 10 0 0 1 10 -10"></path><path d="M 1086.25 173 a 10 10 0 0 1 10 10 v 40 a 10 10 0 0 0 10 10"></path><g class="terminal ">
<path d="M 1106.25 233 h 8.5"></path><path d="M 1168.75 233 h 8.5"></path><rect height="22" rx="10" ry="10" width="54.0" x="1114.75" y="222"></rect><text x="1141.75" y="237">"no"</text></g><path d="M 1177.25 233 a 10 10 0 0 0 10 -10 v -40 a 10 10 0 0 1 10 -10"></path><path d="M 1086.25 173 a 10 10 0 0 1 10 10 v 70 a 10 10 0 0 0 10 10"></path><g class="terminal ">
<path d="M 1106.25 263 h 8.5"></path><path d="M 1168.75 263 h 8.5"></path><rect height="22" rx="10" ry="10" width="54.0" x="1114.75" y="252"></rect><text x="1141.75" y="267">"it"</text></g><path d="M 1177.25 263 a 10 10 0 0 0 10 -10 v -70 a 10 10 0 0 1 10 -10"></path><path d="M 1086.25 173 a 10 10 0 0 1 10 10 v 100 a 10 10 0 0 0 10 10"></path><g class="terminal ">
<path d="M 1106.25 293 h 0.0"></path><path d="M 1177.25 293 h 0.0"></path><rect height="22" rx="10" ry="10" width="71.0" x="1106.25" y="282"></rect><text x="1141.75" y="297">"bdit"</text></g><path d="M 1177.25 293 a 10 10 0 0 0 10 -10 v -100 a 10 10 0 0 1 10 -10"></path><path d="M 1086.25 173 a 10 10 0 0 1 10 10 v 130 a 10 10 0 0 0 10 10"></path><g class="terminal ">
<path d="M 1106.25 323 h 8.5"></path><path d="M 1168.75 323 h 8.5"></path><rect height="22" rx="10" ry="10" width="54.0" x="1114.75" y="312"></rect><text x="1141.75" y="327">"bd"</text></g><path d="M 1177.25 323 a 10 10 0 0 0 10 -10 v -130 a 10 10 0 0 1 10 -10"></path><path d="M 1086.25 173 a 10 10 0 0 1 10 10 v 160 a 10 10 0 0 0 10 10"></path><g class="terminal ">
<path d="M 1106.25 353 h 8.5"></path><path d="M 1168.75 353 h 8.5"></path><rect height="22" rx="10" ry="10" width="54.0" x="1114.75" y="342"></rect><text x="1141.75" y="357">"em"</text></g><path d="M 1177.25 353 a 10 10 0 0 0 10 -10 v -160 a 10 10 0 0 1 10 -10"></path><path d="M 1086.25 173 a 10 10 0 0 1 10 10 v 190 a 10 10 0 0 0 10 10"></path><g class="terminal ">
<path d="M 1106.25 383 h 8.5"></path><path d="M 1168.75 383 h 8.5"></path><rect height="22" rx="10" ry="10" width="54.0" x="1114.75" y="372"></rect><text x="1141.75" y="387">"sc"</text></g><path d="M 1177.25 383 a 10 10 0 0 0 10 -10 v -190 a 10 10 0 0 1 10 -10"></path><path d="M 1086.25 173 a 10 10 0 0 1 10 10 v 220 a 10 10 0 0 0 10 10"></path><g class="terminal ">
<path d="M 1106.25 413 h 4.25"></path><path d="M 1173.0 413 h 4.25"></path><rect height="22" rx="10" ry="10" width="62.5" x="1110.5" y="402"></rect><text x="1141.75" y="417">"sup"</text></g><path d="M 1177.25 413 a 10 10 0 0 0 10 -10 v -220 a 10 10 0 0 1 10 -10"></path></g><path d="M 1207.25 173 h 10"></path></g></g><g class="non-terminal ">
<path d="M 754.25 38 h 0.0"></path><path d="M 771.25 38 h 0.0"></path><text class="comment" x="762.75" y="43">➋</text></g></g><path d="M 1227.25 173 h 10"></path><path d="M 1237.25 173 h 10"></path><g class="terminal ">
<path d="M 1247.25 173 h 0.0"></path><path d="M 1318.25 173 h 0.0"></path><rect height="22" rx="10" ry="10" width="71.0" x="1247.25" y="162"></rect><text x="1282.75" y="177">TAGEND</text></g></g><path d="M 1927.0 173 a 10 10 0 0 1 10 10 v 265 a 10 10 0 0 1 -10 10 h -1847.0 a 10 10 0 0 0 -10 10 v 19 a 10 10 0 0 0 10 10"></path><g>
<path d="M 80.0 497 h 10.0"></path><path d="M 1917.0 497 h 10.0"></path><path d="M 90.0 497 h 20"></path><g>
<path d="M 110.0 497 h 0.0"></path><path d="M 1897.0 497 h 0.0"></path><g>
<path d="M 110.0 497 h 0.0"></path><path d="M 246.5 497 h 0.0"></path><path d="M 110.0 497 h 20"></path><g>
<path d="M 130.0 497 h 96.5"></path></g><path d="M 226.5 497 h 20"></path><path d="M 110.0 497 a 10 10 0 0 1 10 10 v 0 a 10 10 0 0 0 10 10"></path><g class="non-terminal ">
<path d="M 130.0 517 h 0.0"></path><path d="M 226.5 517 h 0.0"></path><rect height="22" width="96.5" x="130.0" y="506"></rect><text x="178.25" y="521">char.link</text></g><path d="M 226.5 517 a 10 10 0 0 0 10 -10 v 0 a 10 10 0 0 1 10 -10"></path></g><path d="M 246.5 497 h 10"></path><path d="M 256.5 497 h 10"></path><g>
<path d="M 266.5 497 h 0.0"></path><path d="M 582.0 497 h 0.0"></path><path d="M 266.5 497 h 10"></path><g>
<path d="M 276.5 497 h 0.0"></path><path d="M 572.0 497 h 0.0"></path><path d="M 276.5 497 h 20"></path><g class="non-terminal ">
<path d="M 296.5 497 h 79.5"></path><path d="M 472.5 497 h 79.5"></path><rect height="22" width="96.5" x="376.0" y="486"></rect><text x="424.25" y="501">CharEmbed</text></g><path d="M 552.0 497 h 20"></path><path d="M 276.5 497 a 10 10 0 0 1 10 10 v 10 a 10 10 0 0 0 10 10"></path><g class="non-terminal ">
<path d="M 296.5 527 h 79.5"></path><path d="M 472.5 527 h 79.5"></path><rect height="22" width="96.5" x="376.0" y="516"></rect><text x="424.25" y="531">Milestone</text></g><path d="M 552.0 527 a 10 10 0 0 0 10 -10 v -10 a 10 10 0 0 1 10 -10"></path><path d="M 276.5 497 a 10 10 0 0 1 10 10 v 40 a 10 10 0 0 0 10 10"></path><g class="non-terminal ">
<path d="M 296.5 557 h 83.75"></path><path d="M 468.25 557 h 83.75"></path><rect height="22" width="88.0" x="380.25" y="546"></rect><text x="424.25" y="561">Footnote</text></g><path d="M 552.0 557 a 10 10 0 0 0 10 -10 v -40 a 10 10 0 0 1 10 -10"></path><path d="M 276.5 497 a 10 10 0 0 1 10 10 v 70 a 10 10 0 0 0 10 10"></path><g class="non-terminal ">
<path d="M 296.5 587 h 58.25"></path><path d="M 493.75 587 h 58.25"></path><rect height="22" width="139.0" x="354.75" y="576"></rect><text x="424.25" y="591">CrossReference</text></g><path d="M 552.0 587 a 10 10 0 0 0 10 -10 v -70 a 10 10 0 0 1 10 -10"></path><path d="M 276.5 497 a 10 10 0 0 1 10 10 v 100 a 10 10 0 0 0 10 10"></path><g>
<path d="M 296.5 617 h 100.75"></path><path d="M 451.25 617 h 100.75"></path><g class="terminal ">
<path d="M 397.25 617 h 0.0"></path><path d="M 451.25 617 h 0.0"></path><rect height="22" rx="10" ry="10" width="54.0" x="397.25" y="606"></rect><text x="424.25" y="621">'//'</text></g></g><path d="M 552.0 617 a 10 10 0 0 0 10 -10 v -100 a 10 10 0 0 1 10 -10"></path><path d="M 276.5 497 a 10 10 0 0 1 10 10 v 130 a 10 10 0 0 0 10 10"></path><g>
<path d="M 296.5 647 h 0.0"></path><path d="M 552.0 647 h 0.0"></path><g class="terminal ">
<path d="M 296.5 647 h 0.0"></path><path d="M 401.5 647 h 0.0"></path><rect height="22" rx="10" ry="10" width="105.0" x="296.5" y="636"></rect><text x="349.0" y="651">TEXTATTRIB</text></g><path d="M 401.5 647 h 10"></path><path d="M 411.5 647 h 10"></path><g class="terminal ">
<path d="M 421.5 647 h 0.0"></path><path d="M 552.0 647 h 0.0"></path><rect height="22" rx="10" ry="10" width="130.5" x="421.5" y="636"></rect><text x="486.75" y="651">ATTRIBTEXTEND</text></g></g><path d="M 552.0 647 a 10 10 0 0 0 10 -10 v -130 a 10 10 0 0 1 10 -10"></path></g><path d="M 572.0 497 h 10"></path><path d="M 276.5 497 a 10 10 0 0 0 -10 10 v 159 a 10 10 0 0 0 10 10"></path><g>
<path d="M 276.5 676 h 295.5"></path></g><path d="M 572.0 676 a 10 10 0 0 0 10 -10 v -159 a 10 10 0 0 0 -10 -10"></path></g><path d="M 582.0 497 h 10"></path><path d="M 592.0 497 h 10"></path><g class="terminal ">
<path d="M 602.0 497 h 0.0"></path><path d="M 656.0 497 h 0.0"></path><rect height="22" rx="10" ry="10" width="54.0" x="602.0" y="486"></rect><text x="629.0" y="501">PIPE</text></g><path d="M 656.0 497 h 10"></path><path d="M 666.0 497 h 10"></path><g>
<path d="M 676.0 497 h 0.0"></path><path d="M 1700.5 497 h 0.0"></path><path d="M 676.0 497 h 20"></path><g>
<path d="M 696.0 497 h 418.5"></path><path d="M 1262.0 497 h 418.5"></path><g class="terminal ">
<path d="M 1114.5 497 h 0.0"></path><path d="M 1262.0 497 h 0.0"></path><rect height="22" rx="10" ry="10" width="147.5" x="1114.5" y="486"></rect><text x="1188.25" y="501">/&#91;^\\=&#93;+(?=\\)/</text></g></g><path d="M 1680.5 497 h 20"></path><path d="M 676.0 497 a 10 10 0 0 1 10 10 v 10 a 10 10 0 0 0 10 10"></path><g>
<path d="M 696.0 527 h 0.0"></path><path d="M 1680.5 527 h 0.0"></path><path d="M 696.0 527 h 10"></path><g>
<path d="M 706.0 527 h 0.0"></path><path d="M 1670.5 527 h 0.0"></path><g class="terminal ">
<path d="M 706.0 527 h 0.0"></path><path d="M 811.0 527 h 0.0"></path><rect height="22" rx="10" ry="10" width="105.0" x="706.0" y="516"></rect><text x="758.5" y="531">/&#91;^\\="&#93;+/</text></g><path d="M 811.0 527 h 10"></path><path d="M 821.0 527 h 10"></path><g class="terminal ">
<path d="M 831.0 527 h 0.0"></path><path d="M 885.0 527 h 0.0"></path><rect height="22" rx="10" ry="10" width="54.0" x="831.0" y="516"></rect><text x="858.0" y="531">'="'</text></g><path d="M 885.0 527 h 10"></path><path d="M 895.0 527 h 10"></path><g class="terminal ">
<path d="M 905.0 527 h 0.0"></path><path d="M 1001.5 527 h 0.0"></path><rect height="22" rx="10" ry="10" width="96.5" x="905.0" y="516"></rect><text x="953.25" y="531">/&#91;^\\"&#93;+/</text></g><path d="M 1001.5 527 h 10"></path><path d="M 1011.5 527 h 10"></path><g class="terminal ">
<path d="M 1021.5 527 h 0.0"></path><path d="M 1670.5 527 h 0.0"></path><rect height="22" rx="10" ry="10" width="649.0" x="1021.5" y="516"></rect><text x="1346.0" y="531">/"&#91;\u0009-\u000D\u0020\u00A0\u1680\u2000-\u200B\u2028\u2029\u202F\u205F&#93;&#42;/</text></g></g><path d="M 1670.5 527 h 10"></path><path d="M 706.0 527 a 10 10 0 0 0 -10 10 v 0 a 10 10 0 0 0 10 10"></path><g>
<path d="M 706.0 547 h 964.5"></path></g><path d="M 1670.5 547 a 10 10 0 0 0 10 -10 v 0 a 10 10 0 0 0 -10 -10"></path></g><path d="M 1680.5 527 a 10 10 0 0 0 10 -10 v -10 a 10 10 0 0 1 10 -10"></path></g><path d="M 1700.5 497 h 10"></path><path d="M 1710.5 497 h 10"></path><g class="terminal ">
<path d="M 1720.5 497 h 0.0"></path><path d="M 1766.0 497 h 0.0"></path><rect height="22" rx="10" ry="10" width="45.5" x="1720.5" y="486"></rect><text x="1743.25" y="501">'\'</text></g><path d="M 1766.0 497 h 10"></path><path d="M 1776.0 497 h 10"></path><g class="terminal ">
<path d="M 1786.0 497 h 0.0"></path><path d="M 1831.5 497 h 0.0"></path><rect height="22" rx="10" ry="10" width="45.5" x="1786.0" y="486"></rect><text x="1808.75" y="501">⇐ ➓</text></g><path d="M 1831.5 497 h 10"></path><path d="M 1841.5 497 h 10"></path><g class="terminal ">
<path d="M 1851.5 497 h 0.0"></path><path d="M 1897.0 497 h 0.0"></path><rect height="22" rx="10" ry="10" width="45.5" x="1851.5" y="486"></rect><text x="1874.25" y="501">'&#42;'</text></g></g><path d="M 1897.0 497 h 20"></path><path d="M 90.0 497 a 10 10 0 0 1 10 10 v 188 a 10 10 0 0 0 10 10"></path><g>
<path d="M 110.0 705 h 539.25"></path><path d="M 1357.75 705 h 539.25"></path><g>
<path d="M 649.25 705 h 0.0"></path><path d="M 785.75 705 h 0.0"></path><path d="M 649.25 705 h 20"></path><g>
<path d="M 669.25 705 h 96.5"></path></g><path d="M 765.75 705 h 20"></path><path d="M 649.25 705 a 10 10 0 0 1 10 10 v 0 a 10 10 0 0 0 10 10"></path><g class="non-terminal ">
<path d="M 669.25 725 h 0.0"></path><path d="M 765.75 725 h 0.0"></path><rect height="22" width="96.5" x="669.25" y="714"></rect><text x="717.5" y="729">char.link</text></g><path d="M 765.75 725 a 10 10 0 0 0 10 -10 v 0 a 10 10 0 0 1 10 -10"></path></g><path d="M 785.75 705 h 10"></path><path d="M 795.75 705 h 10"></path><g>
<path d="M 805.75 705 h 0.0"></path><path d="M 1121.25 705 h 0.0"></path><path d="M 805.75 705 h 10"></path><g>
<path d="M 815.75 705 h 0.0"></path><path d="M 1111.25 705 h 0.0"></path><path d="M 815.75 705 h 20"></path><g class="non-terminal ">
<path d="M 835.75 705 h 79.5"></path><path d="M 1011.75 705 h 79.5"></path><rect height="22" width="96.5" x="915.25" y="694"></rect><text x="963.5" y="709">CharEmbed</text></g><path d="M 1091.25 705 h 20"></path><path d="M 815.75 705 a 10 10 0 0 1 10 10 v 10 a 10 10 0 0 0 10 10"></path><g class="non-terminal ">
<path d="M 835.75 735 h 79.5"></path><path d="M 1011.75 735 h 79.5"></path><rect height="22" width="96.5" x="915.25" y="724"></rect><text x="963.5" y="739">Milestone</text></g><path d="M 1091.25 735 a 10 10 0 0 0 10 -10 v -10 a 10 10 0 0 1 10 -10"></path><path d="M 815.75 705 a 10 10 0 0 1 10 10 v 40 a 10 10 0 0 0 10 10"></path><g class="non-terminal ">
<path d="M 835.75 765 h 83.75"></path><path d="M 1007.5 765 h 83.75"></path><rect height="22" width="88.0" x="919.5" y="754"></rect><text x="963.5" y="769">Footnote</text></g><path d="M 1091.25 765 a 10 10 0 0 0 10 -10 v -40 a 10 10 0 0 1 10 -10"></path><path d="M 815.75 705 a 10 10 0 0 1 10 10 v 70 a 10 10 0 0 0 10 10"></path><g class="non-terminal ">
<path d="M 835.75 795 h 58.25"></path><path d="M 1033.0 795 h 58.25"></path><rect height="22" width="139.0" x="894.0" y="784"></rect><text x="963.5" y="799">CrossReference</text></g><path d="M 1091.25 795 a 10 10 0 0 0 10 -10 v -70 a 10 10 0 0 1 10 -10"></path><path d="M 815.75 705 a 10 10 0 0 1 10 10 v 100 a 10 10 0 0 0 10 10"></path><g>
<path d="M 835.75 825 h 100.75"></path><path d="M 990.5 825 h 100.75"></path><g class="terminal ">
<path d="M 936.5 825 h 0.0"></path><path d="M 990.5 825 h 0.0"></path><rect height="22" rx="10" ry="10" width="54.0" x="936.5" y="814"></rect><text x="963.5" y="829">'//'</text></g></g><path d="M 1091.25 825 a 10 10 0 0 0 10 -10 v -100 a 10 10 0 0 1 10 -10"></path><path d="M 815.75 705 a 10 10 0 0 1 10 10 v 130 a 10 10 0 0 0 10 10"></path><g>
<path d="M 835.75 855 h 0.0"></path><path d="M 1091.25 855 h 0.0"></path><g class="terminal ">
<path d="M 835.75 855 h 0.0"></path><path d="M 940.75 855 h 0.0"></path><rect height="22" rx="10" ry="10" width="105.0" x="835.75" y="844"></rect><text x="888.25" y="859">TEXTATTRIB</text></g><path d="M 940.75 855 h 10"></path><path d="M 950.75 855 h 10"></path><g class="terminal ">
<path d="M 960.75 855 h 0.0"></path><path d="M 1091.25 855 h 0.0"></path><rect height="22" rx="10" ry="10" width="130.5" x="960.75" y="844"></rect><text x="1026.0" y="859">ATTRIBTEXTEND</text></g></g><path d="M 1091.25 855 a 10 10 0 0 0 10 -10 v -130 a 10 10 0 0 1 10 -10"></path></g><path d="M 1111.25 705 h 10"></path><path d="M 815.75 705 a 10 10 0 0 0 -10 10 v 159 a 10 10 0 0 0 10 10"></path><g>
<path d="M 815.75 884 h 295.5"></path></g><path d="M 1111.25 884 a 10 10 0 0 0 10 -10 v -159 a 10 10 0 0 0 -10 -10"></path></g><path d="M 1121.25 705 h 10"></path><path d="M 1131.25 705 h 10"></path><g>
<path d="M 1141.25 705 h 0.0"></path><path d="M 1357.75 705 h 0.0"></path><path d="M 1141.25 705 h 20"></path><g>
<path d="M 1161.25 705 h 176.5"></path></g><path d="M 1337.75 705 h 20"></path><path d="M 1141.25 705 a 10 10 0 0 1 10 10 v 0 a 10 10 0 0 0 10 10"></path><g>
<path d="M 1161.25 725 h 0.0"></path><path d="M 1337.75 725 h 0.0"></path><g class="terminal ">
<path d="M 1161.25 725 h 0.0"></path><path d="M 1206.75 725 h 0.0"></path><rect height="22" rx="10" ry="10" width="45.5" x="1161.25" y="714"></rect><text x="1184.0" y="729">'\'</text></g><path d="M 1206.75 725 h 10"></path><path d="M 1216.75 725 h 10"></path><g class="terminal ">
<path d="M 1226.75 725 h 0.0"></path><path d="M 1272.25 725 h 0.0"></path><rect height="22" rx="10" ry="10" width="45.5" x="1226.75" y="714"></rect><text x="1249.5" y="729">⇐ ➓</text></g><path d="M 1272.25 725 h 10"></path><path d="M 1282.25 725 h 10"></path><g class="terminal ">
<path d="M 1292.25 725 h 0.0"></path><path d="M 1337.75 725 h 0.0"></path><rect height="22" rx="10" ry="10" width="45.5" x="1292.25" y="714"></rect><text x="1315.0" y="729">'&#42;'</text></g></g><path d="M 1337.75 725 a 10 10 0 0 0 10 -10 v 0 a 10 10 0 0 1 10 -10"></path></g></g><path d="M 1897.0 705 a 10 10 0 0 0 10 -10 v -188 a 10 10 0 0 1 10 -10"></path></g><path d="M 1927.0 497 h 10"></path><path d="M 1937.0 497 h 0.0"></path></g><path d="M 1937.0 497 h 20"></path><path d="M 50.0 173 a 10 10 0 0 1 10 10 v 720 a 10 10 0 0 0 10 10"></path><g class="non-terminal ">
<path d="M 70.0 913 h 864.0"></path><path d="M 1073.0 913 h 864.0"></path><rect height="22" width="139.0" x="934.0" y="902"></rect><text x="1003.5" y="917">CharWithAttrib</text></g><path d="M 1937.0 913 a 10 10 0 0 0 10 -10 v -396 a 10 10 0 0 1 10 -10"></path><path d="M 50.0 173 a 10 10 0 0 1 10 10 v 750 a 10 10 0 0 0 10 10"></path><g class="non-terminal ">
<path d="M 70.0 943 h 898.0"></path><path d="M 1039.0 943 h 898.0"></path><rect height="22" width="71.0" x="968.0" y="932"></rect><text x="1003.5" y="947">Figure</text></g><path d="M 1937.0 943 a 10 10 0 0 0 10 -10 v -426 a 10 10 0 0 1 10 -10"></path></g></g><path d="M 1957.0 497 h 10"></path><path d="M 1967.0 497 h 20 m 0 -10 v 20"></path></g></svg>