<svg class="railroad-diagram" height="572" viewBox="0 0 2121.5 572" width="2121.5" xmlns="http://www.w3.org/2000/svg" xmlns:xlink="http://www.w3.org/1999/xlink">
<g transform="translate(.5 .5)">
<style>/* <![CDATA[ */

    svg.railroad-diagram {
        background-color:hsl(30,20%,95%);
    }
    svg.railroad-diagram path {
        stroke-width: 2;
        stroke: black;
        fill: none;
    }
    svg.railroad-diagram text {
        font-size: 12px;
        text-anchor: middle;
        font-family: DejaVu Sans;
    }
    svg.railroad-diagram text.label {
        text-anchor:start;
    }
    svg.railroad-diagram text.comment {
        font-family: DejaVu Sans;
        font-size: 14px;
    }
    svg.railroad-diagram rect{
        stroke-width: 2;
        stroke:black;
        fill: rgb(210, 255, 210);
    }
    svg.railroad-diagram rect.group-box {
        stroke: gray;
        stroke-dasharray: 10 5;
        fill: none;
    }
    .terminal {
        font-family: DejaVu Sans;
    }

/* ]]> */
</style><g>
<path d="M 20 163 v 20 m 0 -10 h 20"></path></g><path d="M 40 173 h 10"></path><g>
<path d="M 50 173 h 0.0"></path><path d="M 2071.5 173 h 0.0"></path><g>
<path d="M 50.0 173 h 0.0"></path><path d="M 2071.5 173 h 0.0"></path><path d="M 50.0 173 h 20"></path><g>
<path d="M 70.0 173 h 381.25"></path><path d="M 1670.25 173 h 381.25"></path><g>
<path d="M 451.25 173 h 0.0"></path><g>
<path d="M 451.25 173 h 10.0"></path><path d="M 1281.75 173 h 10.0"></path><g class="terminal ">
<path d="M 461.25 173 h 0.0"></path><path d="M 515.25 173 h 0.0"></path><rect height="22" rx="10" ry="10" width="54.0" x="461.25" y="162"></rect><text x="488.25" y="177">'\+'</text></g><path d="M 515.25 173 h 10"></path><path d="M 525.25 173 h 10"></path><g>
<path d="M 535.25 173 h 0.0"></path><path d="M 1150.75 173 h 0.0"></path><rect class="group-box" height="314" rx="10" ry="10" width="615.5" x="535.25" y="46"></rect><g>
<path d="M 535.25 173 h 10.0"></path><path d="M 1140.75 173 h 10.0"></path><g>
<path d="M 545.25 173 h 0.0"></path><path d="M 1140.75 173 h 0.0"></path><path d="M 545.25 173 a 10 10 0 0 0 10 -10 v -99 a 10 10 0 0 1 10 -10 h 414.5"></path><path d="M 714.75 352 h 406.0 a 10 10 0 0 0 10 -10 v -159 a 10 10 0 0 1 10 -10"></path><path d="M 545.25 173 h 10"></path><g>
<path d="M 555.25 173 h 10.0"></path><path d="M 684.75 173 h 10.0"></path><path d="M 565.25 173 a 10 10 0 0 0 10 -10 v -10 a 10 10 0 0 1 10 -10"></path><g class="terminal ">
<path d="M 585.25 143 h 12.75"></path><path d="M 652.0 143 h 12.75"></path><rect height="22" rx="10" ry="10" width="54.0" x="598.0" y="132"></rect><text x="625.0" y="147">"ca"</text></g><path d="M 664.75 143 a 10 10 0 0 1 10 10 v 10 a 10 10 0 0 0 10 10"></path><path d="M 565.25 173 a 10 10 0 0 0 10 -10 v -40 a 10 10 0 0 1 10 -10"></path><g class="terminal ">
<path d="M 585.25 113 h 12.75"></path><path d="M 652.0 113 h 12.75"></path><rect height="22" rx="10" ry="10" width="54.0" x="598.0" y="102"></rect><text x="625.0" y="117">"vp"</text></g><path d="M 664.75 113 a 10 10 0 0 1 10 10 v 40 a 10 10 0 0 0 10 10"></path><path d="M 565.25 173 a 10 10 0 0 0 10 -10 v -70 a 10 10 0 0 1 10 -10"></path><g class="terminal ">
<path d="M 585.25 83 h 12.75"></path><path d="M 652.0 83 h 12.75"></path><rect height="22" rx="10" ry="10" width="54.0" x="598.0" y="72"></rect><text x="625.0" y="87">"va"</text></g><path d="M 664.75 83 a 10 10 0 0 1 10 10 v 70 a 10 10 0 0 0 10 10"></path><path d="M 565.25 173 h 20"></path><g class="terminal ">
<path d="M 585.25 173 h 8.5"></path><path d="M 656.25 173 h 8.5"></path><rect height="22" rx="10" ry="10" width="62.5" x="593.75" y="162"></rect><text x="625.0" y="177">"qac"</text></g><path d="M 664.75 173 h 20"></path><path d="M 565.25 173 a 10 10 0 0 1 10 10 v 10 a 10 10 0 0 0 10 10"></path><g class="terminal ">
<path d="M 585.25 203 h 12.75"></path><path d="M 652.0 203 h 12.75"></path><rect height="22" rx="10" ry="10" width="54.0" x="598.0" y="192"></rect><text x="625.0" y="207">"qs"</text></g><path d="M 664.75 203 a 10 10 0 0 0 10 -10 v -10 a 10 10 0 0 1 10 -10"></path><path d="M 565.25 173 a 10 10 0 0 1 10 10 v 40 a 10 10 0 0 0 10 10"></path><g class="terminal ">
<path d="M 585.25 233 h 8.5"></path><path d="M 656.25 233 h 8.5"></path><rect height="22" rx="10" ry="10" width="62.5" x="593.75" y="222"></rect><text x="625.0" y="237">"add"</text></g><path d="M 664.75 233 a 10 10 0 0 0 10 -10 v -40 a 10 10 0 0 1 10 -10"></path><path d="M 565.25 173 a 10 10 0 0 1 10 10 v 70 a 10 10 0 0 0 10 10"></path><g class="terminal ">
<path d="M 585.25 263 h 0.0"></path><path d="M 664.75 263 h 0.0"></path><rect height="22" rx="10" ry="10" width="79.5" x="585.25" y="252"></rect><text x="625.0" y="267">"addpn"</text></g><path d="M 664.75 263 a 10 10 0 0 0 10 -10 v -70 a 10 10 0 0 1 10 -10"></path><path d="M 565.25 173 a 10 10 0 0 1 10 10 v 100 a 10 10 0 0 0 10 10"></path><g class="terminal ">
<path d="M 585.25 293 h 12.75"></path><path d="M 652.0 293 h 12.75"></path><rect height="22" rx="10" ry="10" width="54.0" x="598.0" y="282"></rect><text x="625.0" y="297">"bk"</text></g><path d="M 664.75 293 a 10 10 0 0 0 10 -10 v -100 a 10 10 0 0 1 10 -10"></path><path d="M 565.25 173 a 10 10 0 0 1 10 10 v 130 a 10 10 0 0 0 10 10"></path><g class="terminal ">
<path d="M 585.25 323 h 12.75"></path><path d="M 652.0 323 h 12.75"></path><rect height="22" rx="10" ry="10" width="54.0" x="598.0" y="312"></rect><text x="625.0" y="327">"dc"</text></g><path d="M 664.75 323 a 10 10 0 0 0 10 -10 v -130 a 10 10 0 0 1 10 -10"></path></g><path d="M 694.75 173 a 10 10 0 0 1 10 10 v 159 a 10 10 0 0 0 10 10"></path><path d="M 694.75 54 a 10 10 0 0 1 10 10 v 99 a 10 10 0 0 0 10 10"></path><g>
<path d="M 714.75 173 h 10.0"></path><path d="M 827.25 173 h 10.0"></path><path d="M 724.75 173 a 10 10 0 0 0 10 -10 v -10 a 10 10 0 0 1 10 -10"></path><g class="terminal ">
<path d="M 744.75 143 h 8.5"></path><path d="M 798.75 143 h 8.5"></path><rect height="22" rx="10" ry="10" width="45.5" x="753.25" y="132"></rect><text x="776.0" y="147">"k"</text></g><path d="M 807.25 143 a 10 10 0 0 1 10 10 v 10 a 10 10 0 0 0 10 10"></path><path d="M 724.75 173 a 10 10 0 0 0 10 -10 v -40 a 10 10 0 0 1 10 -10"></path><g class="terminal ">
<path d="M 744.75 113 h 4.25"></path><path d="M 803.0 113 h 4.25"></path><rect height="22" rx="10" ry="10" width="54.0" x="749.0" y="102"></rect><text x="776.0" y="117">"fm"</text></g><path d="M 807.25 113 a 10 10 0 0 1 10 10 v 40 a 10 10 0 0 0 10 10"></path><path d="M 724.75 173 a 10 10 0 0 0 10 -10 v -70 a 10 10 0 0 1 10 -10"></path><g class="terminal ">
<path d="M 744.75 83 h 0.0"></path><path d="M 807.25 83 h 0.0"></path><rect height="22" rx="10" ry="10" width="62.5" x="744.75" y="72"></rect><text x="776.0" y="87">"efm"</text></g><path d="M 807.25 83 a 10 10 0 0 1 10 10 v 70 a 10 10 0 0 0 10 10"></path><path d="M 724.75 173 h 20"></path><g class="terminal ">
<path d="M 744.75 173 h 4.25"></path><path d="M 803.0 173 h 4.25"></path><rect height="22" rx="10" ry="10" width="54.0" x="749.0" y="162"></rect><text x="776.0" y="177">"nd"</text></g><path d="M 807.25 173 h 20"></path><path d="M 724.75 173 a 10 10 0 0 1 10 10 v 10 a 10 10 0 0 0 10 10"></path><g class="terminal ">
<path d="M 744.75 203 h 0.0"></path><path d="M 807.25 203 h 0.0"></path><rect height="22" rx="10" ry="10" width="62.5" x="744.75" y="192"></rect><text x="776.0" y="207">"ndx"</text></g><path d="M 807.25 203 a 10 10 0 0 0 10 -10 v -10 a 10 10 0 0 1 10 -10"></path><path d="M 724.75 173 a 10 10 0 0 1 10 10 v 40 a 10 10 0 0 0 10 10"></path><g class="terminal ">
<path d="M 744.75 233 h 0.0"></path><path d="M 807.25 233 h 0.0"></path><rect height="22" rx="10" ry="10" width="62.5" x="744.75" y="222"></rect><text x="776.0" y="237">"ord"</text></g><path d="M 807.25 233 a 10 10 0 0 0 10 -10 v -40 a 10 10 0 0 1 10 -10"></path><path d="M 724.75 173 a 10 10 0 0 1 10 10 v 70 a 10 10 0 0 0 10 10"></path><g class="terminal ">
<path d="M 744.75 263 h 0.0"></path><path d="M 807.25 263 h 0.0"></path><rect height="22" rx="10" ry="10" width="62.5" x="744.75" y="252"></rect><text x="776.0" y="267">"png"</text></g><path d="M 807.25 263 a 10 10 0 0 0 10 -10 v -70 a 10 10 0 0 1 10 -10"></path><path d="M 724.75 173 a 10 10 0 0 1 10 10 v 100 a 10 10 0 0 0 10 10"></path><g class="terminal ">
<path d="M 744.75 293 h 4.25"></path><path d="M 803.0 293 h 4.25"></path><rect height="22" rx="10" ry="10" width="54.0" x="749.0" y="282"></rect><text x="776.0" y="297">"pn"</text></g><path d="M 807.25 293 a 10 10 0 0 0 10 -10 v -100 a 10 10 0 0 1 10 -10"></path><path d="M 724.75 173 a 10 10 0 0 1 10 10 v 130 a 10 10 0 0 0 10 10"></path><g class="terminal ">
<path d="M 744.75 323 h 0.0"></path><path d="M 807.25 323 h 0.0"></path><rect height="22" rx="10" ry="10" width="62.5" x="744.75" y="312"></rect><text x="776.0" y="327">"pro"</text></g><path d="M 807.25 323 a 10 10 0 0 0 10 -10 v -130 a 10 10 0 0 1 10 -10"></path></g><path d="M 837.25 173 a 10 10 0 0 1 10 10 v 159 a 10 10 0 0 0 10 10"></path><path d="M 837.25 54 a 10 10 0 0 1 10 10 v 99 a 10 10 0 0 0 10 10"></path><g>
<path d="M 857.25 173 h 10.0"></path><path d="M 969.75 173 h 10.0"></path><path d="M 867.25 173 a 10 10 0 0 0 10 -10 v -10 a 10 10 0 0 1 10 -10"></path><g class="terminal ">
<path d="M 887.25 143 h 0.0"></path><path d="M 949.75 143 h 0.0"></path><rect height="22" rx="10" ry="10" width="62.5" x="887.25" y="132"></rect><text x="918.5" y="147">"sig"</text></g><path d="M 949.75 143 a 10 10 0 0 1 10 10 v 10 a 10 10 0 0 0 10 10"></path><path d="M 867.25 173 a 10 10 0 0 0 10 -10 v -40 a 10 10 0 0 1 10 -10"></path><g class="terminal ">
<path d="M 887.25 113 h 4.25"></path><path d="M 945.5 113 h 4.25"></path><rect height="22" rx="10" ry="10" width="54.0" x="891.5" y="102"></rect><text x="918.5" y="117">"rq"</text></g><path d="M 949.75 113 a 10 10 0 0 1 10 10 v 40 a 10 10 0 0 0 10 10"></path><path d="M 867.25 173 a 10 10 0 0 0 10 -10 v -70 a 10 10 0 0 1 10 -10"></path><g class="terminal ">
<path d="M 887.25 83 h 4.25"></path><path d="M 945.5 83 h 4.25"></path><rect height="22" rx="10" ry="10" width="54.0" x="891.5" y="72"></rect><text x="918.5" y="87">"qt"</text></g><path d="M 949.75 83 a 10 10 0 0 1 10 10 v 70 a 10 10 0 0 0 10 10"></path><path d="M 867.25 173 h 20"></path><g class="terminal ">
<path d="M 887.25 173 h 0.0"></path><path d="M 949.75 173 h 0.0"></path><rect height="22" rx="10" ry="10" width="62.5" x="887.25" y="162"></rect><text x="918.5" y="177">"sls"</text></g><path d="M 949.75 173 h 20"></path><path d="M 867.25 173 a 10 10 0 0 1 10 10 v 10 a 10 10 0 0 0 10 10"></path><g class="terminal ">
<path d="M 887.25 203 h 4.25"></path><path d="M 945.5 203 h 4.25"></path><rect height="22" rx="10" ry="10" width="54.0" x="891.5" y="192"></rect><text x="918.5" y="207">"tl"</text></g><path d="M 949.75 203 a 10 10 0 0 0 10 -10 v -10 a 10 10 0 0 1 10 -10"></path><path d="M 867.25 173 a 10 10 0 0 1 10 10 v 40 a 10 10 0 0 0 10 10"></path><g class="terminal ">
<path d="M 887.25 233 h 4.25"></path><path d="M 945.5 233 h 4.25"></path><rect height="22" rx="10" ry="10" width="54.0" x="891.5" y="222"></rect><text x="918.5" y="237">"wg"</text></g><path d="M 949.75 233 a 10 10 0 0 0 10 -10 v -40 a 10 10 0 0 1 10 -10"></path><path d="M 867.25 173 a 10 10 0 0 1 10 10 v 70 a 10 10 0 0 0 10 10"></path><g class="terminal ">
<path d="M 887.25 263 h 4.25"></path><path d="M 945.5 263 h 4.25"></path><rect height="22" rx="10" ry="10" width="54.0" x="891.5" y="252"></rect><text x="918.5" y="267">"wh"</text></g><path d="M 949.75 263 a 10 10 0 0 0 10 -10 v -70 a 10 10 0 0 1 10 -10"></path><path d="M 867.25 173 a 10 10 0 0 1 10 10 v 100 a 10 10 0 0 0 10 10"></path><g class="terminal ">
<path d="M 887.25 293 h 4.25"></path><path d="M 945.5 293 h 4.25"></path><rect height="22" rx="10" ry="10" width="54.0" x="891.5" y="282"></rect><text x="918.5" y="297">"wa"</text></g><path d="M 949.75 293 a 10 10 0 0 0 10 -10 v -100 a 10 10 0 0 1 10 -10"></path><path d="M 867.25 173 a 10 10 0 0 1 10 10 v 130 a 10 10 0 0 0 10 10"></path><g class="terminal ">
<path d="M 887.25 323 h 4.25"></path><path d="M 945.5 323 h 4.25"></path><rect height="22" rx="10" ry="10" width="54.0" x="891.5" y="312"></rect><text x="918.5" y="327">"wj"</text></g><path d="M 949.75 323 a 10 10 0 0 0 10 -10 v -130 a 10 10 0 0 1 10 -10"></path></g><path d="M 979.75 173 a 10 10 0 0 1 10 10 v 159 a 10 10 0 0 0 10 10"></path><path d="M 979.75 54 a 10 10 0 0 1 10 10 v 99 a 10 10 0 0 0 10 10"></path><g>
<path d="M 999.75 173 h 10.0"></path><path d="M 1120.75 173 h 10.0"></path><path d="M 1009.75 173 a 10 10 0 0 0 10 -10 v -10 a 10 10 0 0 1 10 -10"></path><g class="terminal ">
<path d="M 1029.75 143 h 8.5"></path><path d="M 1092.25 143 h 8.5"></path><rect height="22" rx="10" ry="10" width="54.0" x="1038.25" y="132"></rect><text x="1065.25" y="147">"no"</text></g><path d="M 1100.75 143 a 10 10 0 0 1 10 10 v 10 a 10 10 0 0 0 10 10"></path><path d="M 1009.75 173 a 10 10 0 0 0 10 -10 v -40 a 10 10 0 0 1 10 -10"></path><g class="terminal ">
<path d="M 1029.75 113 h 4.25"></path><path d="M 1096.5 113 h 4.25"></path><rect height="22" rx="10" ry="10" width="62.5" x="1034.0" y="102"></rect><text x="1065.25" y="117">"jmp"</text></g><path d="M 1100.75 113 a 10 10 0 0 1 10 10 v 40 a 10 10 0 0 0 10 10"></path><path d="M 1009.75 173 a 10 10 0 0 0 10 -10 v -70 a 10 10 0 0 1 10 -10"></path><g class="terminal ">
<path d="M 1029.75 83 h 8.5"></path><path d="M 1092.25 83 h 8.5"></path><rect height="22" rx="10" ry="10" width="54.0" x="1038.25" y="72"></rect><text x="1065.25" y="87">"xt"</text></g><path d="M 1100.75 83 a 10 10 0 0 1 10 10 v 70 a 10 10 0 0 0 10 10"></path><path d="M 1009.75 173 h 20"></path><g class="terminal ">
<path d="M 1029.75 173 h 8.5"></path><path d="M 1092.25 173 h 8.5"></path><rect height="22" rx="10" ry="10" width="54.0" x="1038.25" y="162"></rect><text x="1065.25" y="177">"it"</text></g><path d="M 1100.75 173 h 20"></path><path d="M 1009.75 173 a 10 10 0 0 1 10 10 v 10 a 10 10 0 0 0 10 10"></path><g class="terminal ">
<path d="M 1029.75 203 h 0.0"></path><path d="M 1100.75 203 h 0.0"></path><rect height="22" rx="10" ry="10" width="71.0" x="1029.75" y="192"></rect><text x="1065.25" y="207">"bdit"</text></g><path d="M 1100.75 203 a 10 10 0 0 0 10 -10 v -10 a 10 10 0 0 1 10 -10"></path><path d="M 1009.75 173 a 10 10 0 0 1 10 10 v 40 a 10 10 0 0 0 10 10"></path><g class="terminal ">
<path d="M 1029.75 233 h 8.5"></path><path d="M 1092.25 233 h 8.5"></path><rect height="22" rx="10" ry="10" width="54.0" x="1038.25" y="222"></rect><text x="1065.25" y="237">"bd"</text></g><path d="M 1100.75 233 a 10 10 0 0 0 10 -10 v -40 a 10 10 0 0 1 10 -10"></path><path d="M 1009.75 173 a 10 10 0 0 1 10 10 v 70 a 10 10 0 0 0 10 10"></path><g class="terminal ">
<path d="M 1029.75 263 h 8.5"></path><path d="M 1092.25 263 h 8.5"></path><rect height="22" rx="10" ry="10" width="54.0" x="1038.25" y="252"></rect><text x="1065.25" y="267">"em"</text></g><path d="M 1100.75 263 a 10 10 0 0 0 10 -10 v -70 a 10 10 0 0 1 10 -10"></path><path d="M 1009.75 173 a 10 10 0 0 1 10 10 v 100 a 10 10 0 0 0 10 10"></path><g class="terminal ">
<path d="M 1029.75 293 h 8.5"></path><path d="M 1092.25 293 h 8.5"></path><rect height="22" rx="10" ry="10" width="54.0" x="1038.25" y="282"></rect><text x="1065.25" y="297">"sc"</text></g><path d="M 1100.75 293 a 10 10 0 0 0 10 -10 v -100 a 10 10 0 0 1 10 -10"></path><path d="M 1009.75 173 a 10 10 0 0 1 10 10 v 130 a 10 10 0 0 0 10 10"></path><g class="terminal ">
<path d="M 1029.75 323 h 4.25"></path><path d="M 1096.5 323 h 4.25"></path><rect height="22" rx="10" ry="10" width="62.5" x="1034.0" y="312"></rect><text x="1065.25" y="327">"sup"</text></g><path d="M 1100.75 323 a 10 10 0 0 0 10 -10 v -130 a 10 10 0 0 1 10 -10"></path></g><path d="M 1130.75 173 h 10"></path></g></g><g class="non-terminal ">
<path d="M 535.25 38 h 0.0"></path><path d="M 552.25 38 h 0.0"></path><text class="comment" x="543.75" y="43">➋</text></g></g><path d="M 1150.75 173 h 10"></path><path d="M 1160.75 173 h 10"></path><g>
<path d="M 1170.75 173 h 0.0"></path><path d="M 1281.75 173 h 0.0"></path><path d="M 1170.75 173 h 20"></path><g class="terminal ">
<path d="M 1190.75 173 h 12.75"></path><path d="M 1249.0 173 h 12.75"></path><rect height="22" rx="10" ry="10" width="45.5" x="1203.5" y="162"></rect><text x="1226.25" y="177">' '</text></g><path d="M 1261.75 173 h 20"></path><path d="M 1170.75 173 a 10 10 0 0 1 10 10 v 10 a 10 10 0 0 0 10 10"></path><g class="terminal ">
<path d="M 1190.75 203 h 0.0"></path><path d="M 1261.75 203 h 0.0"></path><rect height="22" rx="10" ry="10" width="71.0" x="1190.75" y="192"></rect><text x="1226.25" y="207">TAGEND</text></g><path d="M 1261.75 203 a 10 10 0 0 0 10 -10 v -10 a 10 10 0 0 1 10 -10"></path></g></g><path d="M 1291.75 173 h 0.0"></path></g><path d="M 1291.75 173 h 10"></path><path d="M 1301.75 173 h 10"></path><g class="non-terminal ">
<path d="M 1311.75 173 h 0.0"></path><path d="M 1425.25 173 h 0.0"></path><rect height="22" width="113.5" x="1311.75" y="162"></rect><text x="1368.5" y="177">CharContent</text></g><path d="M 1425.25 173 h 10"></path><path d="M 1435.25 173 h 10"></path><g>
<path d="M 1445.25 173 h 0.0"></path><path d="M 1670.25 173 h 0.0"></path><path d="M 1445.25 173 h 20"></path><g>
<path d="M 1465.25 173 h 185.0"></path></g><path d="M 1650.25 173 h 20"></path><path d="M 1445.25 173 a 10 10 0 0 1 10 10 v 0 a 10 10 0 0 0 10 10"></path><g>
<path d="M 1465.25 193 h 0.0"></path><path d="M 1650.25 193 h 0.0"></path><g class="terminal ">
<path d="M 1465.25 193 h 0.0"></path><path d="M 1519.25 193 h 0.0"></path><rect height="22" rx="10" ry="10" width="54.0" x="1465.25" y="182"></rect><text x="1492.25" y="197">'\+'</text></g><path d="M 1519.25 193 h 10"></path><path d="M 1529.25 193 h 10"></path><g class="terminal ">
<path d="M 1539.25 193 h 0.0"></path><path d="M 1584.75 193 h 0.0"></path><rect height="22" rx="10" ry="10" width="45.5" x="1539.25" y="182"></rect><text x="1562.0" y="197">⇐ ➏</text></g><path d="M 1584.75 193 h 10"></path><path d="M 1594.75 193 h 10"></path><g class="terminal ">
<path d="M 1604.75 193 h 0.0"></path><path d="M 1650.25 193 h 0.0"></path><rect height="22" rx="10" ry="10" width="45.5" x="1604.75" y="182"></rect><text x="1627.5" y="197">'&#42;'</text></g></g><path d="M 1650.25 193 a 10 10 0 0 0 10 -10 v 0 a 10 10 0 0 1 10 -10"></path></g></g><path d="M 2051.5 173 h 20"></path><path d="M 50.0 173 a 10 10 0 0 1 10 10 v 220 a 10 10 0 0 0 10 10"></path><g>
<path d="M 70.0 413 h 0.0"></path><path d="M 2051.5 413 h 0.0"></path><g class="terminal ">
<path d="M 70.0 413 h 0.0"></path><path d="M 124.0 413 h 0.0"></path><rect height="22" rx="10" ry="10" width="54.0" x="70.0" y="402"></rect><text x="97.0" y="417">'\+'</text></g><path d="M 124.0 413 h 10"></path><path d="M 134.0 413 h 10"></path><g>
<path d="M 144.0 413 h 0.0"></path><path d="M 258.0 413 h 0.0"></path><rect class="group-box" height="88" rx="10" ry="10" width="114.0" x="144.0" y="384"></rect><g>
<path d="M 144.0 413 h 10.0"></path><path d="M 248.0 413 h 10.0"></path><g>
<path d="M 154.0 413 h 0.0"></path><path d="M 248.0 413 h 0.0"></path><path d="M 154.0 413 h 20"></path><g class="terminal ">
<path d="M 174.0 413 h 4.25"></path><path d="M 223.75 413 h 4.25"></path><rect height="22" rx="10" ry="10" width="45.5" x="178.25" y="402"></rect><text x="201.0" y="417">"w"</text></g><path d="M 228.0 413 h 20"></path><path d="M 154.0 413 a 10 10 0 0 1 10 10 v 10 a 10 10 0 0 0 10 10"></path><g class="terminal ">
<path d="M 174.0 443 h 0.0"></path><path d="M 228.0 443 h 0.0"></path><rect height="22" rx="10" ry="10" width="54.0" x="174.0" y="432"></rect><text x="201.0" y="447">"rb"</text></g><path d="M 228.0 443 a 10 10 0 0 0 10 -10 v -10 a 10 10 0 0 1 10 -10"></path></g></g><g class="non-terminal ">
<path d="M 144.0 376 h 0.0"></path><path d="M 161.0 376 h 0.0"></path><text class="comment" x="152.5" y="381">➋</text></g></g><path d="M 258.0 413 h 10"></path><path d="M 268.0 413 h 10"></path><g>
<path d="M 278.0 413 h 0.0"></path><path d="M 389.0 413 h 0.0"></path><path d="M 278.0 413 h 20"></path><g class="terminal ">
<path d="M 298.0 413 h 12.75"></path><path d="M 356.25 413 h 12.75"></path><rect height="22" rx="10" ry="10" width="45.5" x="310.75" y="402"></rect><text x="333.5" y="417">' '</text></g><path d="M 369.0 413 h 20"></path><path d="M 278.0 413 a 10 10 0 0 1 10 10 v 10 a 10 10 0 0 0 10 10"></path><g class="terminal ">
<path d="M 298.0 443 h 0.0"></path><path d="M 369.0 443 h 0.0"></path><rect height="22" rx="10" ry="10" width="71.0" x="298.0" y="432"></rect><text x="333.5" y="447">TAGEND</text></g><path d="M 369.0 443 a 10 10 0 0 0 10 -10 v -10 a 10 10 0 0 1 10 -10"></path></g><path d="M 389.0 413 h 10"></path><path d="M 399.0 413 h 10"></path><g>
<path d="M 409.0 413 h 0.0"></path><path d="M 614.0 413 h 0.0"></path><path d="M 409.0 413 a 10 10 0 0 0 10 -10 v -9 a 10 10 0 0 1 10 -10"></path><g>
<path d="M 429.0 384 h 165.0"></path></g><path d="M 594.0 384 a 10 10 0 0 1 10 10 v 9 a 10 10 0 0 0 10 10"></path><path d="M 409.0 413 h 20"></path><g>
<path d="M 429.0 413 h 0.0"></path><path d="M 594.0 413 h 0.0"></path><path d="M 429.0 413 h 10"></path><g>
<path d="M 439.0 413 h 0.0"></path><path d="M 584.0 413 h 0.0"></path><path d="M 439.0 413 h 20"></path><g class="non-terminal ">
<path d="M 459.0 413 h 4.25"></path><path d="M 559.75 413 h 4.25"></path><rect height="22" width="96.5" x="463.25" y="402"></rect><text x="511.5" y="417">CharEmbed</text></g><path d="M 564.0 413 h 20"></path><path d="M 439.0 413 a 10 10 0 0 1 10 10 v 10 a 10 10 0 0 0 10 10"></path><g>
<path d="M 459.0 443 h 0.0"></path><path d="M 564.0 443 h 0.0"></path><g class="terminal ">
<path d="M 459.0 443 h 0.0"></path><path d="M 564.0 443 h 0.0"></path><rect height="22" rx="10" ry="10" width="105.0" x="459.0" y="432"></rect><text x="511.5" y="447">TEXTATTRIB</text></g></g><path d="M 564.0 443 a 10 10 0 0 0 10 -10 v -10 a 10 10 0 0 1 10 -10"></path></g><path d="M 584.0 413 h 10"></path><path d="M 439.0 413 a 10 10 0 0 0 -10 10 v 39 a 10 10 0 0 0 10 10"></path><g>
<path d="M 439.0 472 h 145.0"></path></g><path d="M 584.0 472 a 10 10 0 0 0 10 -10 v -39 a 10 10 0 0 0 -10 -10"></path></g><path d="M 594.0 413 h 20"></path></g><path d="M 614.0 413 h 10"></path><path d="M 624.0 413 h 10"></path><g>
<path d="M 634.0 413 h 0.0"></path><path d="M 1846.5 413 h 0.0"></path><path d="M 634.0 413 h 20"></path><g>
<path d="M 654.0 413 h 1172.5"></path></g><path d="M 1826.5 413 h 20"></path><path d="M 634.0 413 a 10 10 0 0 1 10 10 v 9 a 10 10 0 0 0 10 10"></path><g>
<path d="M 654.0 442 h 0.0"></path><path d="M 1826.5 442 h 0.0"></path><g>
<path d="M 654.0 442 h 0.0"></path><path d="M 748.0 442 h 0.0"></path><path d="M 654.0 442 h 20"></path><g class="terminal ">
<path d="M 674.0 442 h 4.25"></path><path d="M 723.75 442 h 4.25"></path><rect height="22" rx="10" ry="10" width="45.5" x="678.25" y="431"></rect><text x="701.0" y="446">'|'</text></g><path d="M 728.0 442 h 20"></path><path d="M 654.0 442 a 10 10 0 0 1 10 10 v 10 a 10 10 0 0 0 10 10"></path><g class="terminal ">
<path d="M 674.0 472 h 0.0"></path><path d="M 728.0 472 h 0.0"></path><rect height="22" rx="10" ry="10" width="54.0" x="674.0" y="461"></rect><text x="701.0" y="476">PIPE</text></g><path d="M 728.0 472 a 10 10 0 0 0 10 -10 v -10 a 10 10 0 0 1 10 -10"></path></g><path d="M 748.0 442 h 10"></path><path d="M 758.0 442 h 10"></path><g>
<path d="M 768.0 442 h 0.0"></path><path d="M 1826.5 442 h 0.0"></path><path d="M 768.0 442 h 20"></path><g>
<path d="M 788.0 442 h 0.0"></path><path d="M 1806.5 442 h 0.0"></path><path d="M 788.0 442 h 10"></path><g>
<path d="M 798.0 442 h 0.0"></path><path d="M 1796.5 442 h 0.0"></path><g class="terminal ">
<path d="M 798.0 442 h 0.0"></path><path d="M 920.0 442 h 0.0"></path><rect height="22" rx="10" ry="10" width="122.0" x="798.0" y="431"></rect><text x="859.0" y="446">/&#91;^\\\n="&#93;+/</text></g><path d="M 920.0 442 h 10"></path><path d="M 930.0 442 h 10"></path><g class="terminal ">
<path d="M 940.0 442 h 0.0"></path><path d="M 994.0 442 h 0.0"></path><rect height="22" rx="10" ry="10" width="54.0" x="940.0" y="431"></rect><text x="967.0" y="446">'="'</text></g><path d="M 994.0 442 h 10"></path><path d="M 1004.0 442 h 10"></path><g class="terminal ">
<path d="M 1014.0 442 h 0.0"></path><path d="M 1127.5 442 h 0.0"></path><rect height="22" rx="10" ry="10" width="113.5" x="1014.0" y="431"></rect><text x="1070.75" y="446">/&#91;^\\\n"&#93;&#42;/</text></g><path d="M 1127.5 442 h 10"></path><path d="M 1137.5 442 h 10"></path><g class="terminal ">
<path d="M 1147.5 442 h 0.0"></path><path d="M 1796.5 442 h 0.0"></path><rect height="22" rx="10" ry="10" width="649.0" x="1147.5" y="431"></rect><text x="1472.0" y="446">/"&#91;\u0009-\u000D\u0020\u00A0\u1680\u2000-\u200B\u2028\u2029\u202F\u205F&#93;&#42;/</text></g></g><path d="M 1796.5 442 h 10"></path><path d="M 798.0 442 a 10 10 0 0 0 -10 10 v 0 a 10 10 0 0 0 10 10"></path><g>
<path d="M 798.0 462 h 998.5"></path></g><path d="M 1796.5 462 a 10 10 0 0 0 10 -10 v 0 a 10 10 0 0 0 -10 -10"></path></g><path d="M 1806.5 442 h 20"></path><path d="M 768.0 442 a 10 10 0 0 1 10 10 v 19 a 10 10 0 0 0 10 10"></path><g>
<path d="M 788.0 481 h 427.0"></path><path d="M 1379.5 481 h 427.0"></path><g class="terminal ">
<path d="M 1215.0 481 h 0.0"></path><path d="M 1379.5 481 h 0.0"></path><rect height="22" rx="10" ry="10" width="164.5" x="1215.0" y="470"></rect><text x="1297.25" y="485">/&#91;^\\\n=&#93;+(?=\\)/</text></g></g><path d="M 1806.5 481 a 10 10 0 0 0 10 -10 v -19 a 10 10 0 0 1 10 -10"></path></g></g><path d="M 1826.5 442 a 10 10 0 0 0 10 -10 v -9 a 10 10 0 0 1 10 -10"></path></g><path d="M 1846.5 413 h 10"></path><path d="M 1856.5 413 h 10"></path><g class="terminal ">
<path d="M 1866.5 413 h 0.0"></path><path d="M 1920.5 413 h 0.0"></path><rect height="22" rx="10" ry="10" width="54.0" x="1866.5" y="402"></rect><text x="1893.5" y="417">'\+'</text></g><path d="M 1920.5 413 h 10"></path><path d="M 1930.5 413 h 10"></path><g class="terminal ">
<path d="M 1940.5 413 h 0.0"></path><path d="M 1986.0 413 h 0.0"></path><rect height="22" rx="10" ry="10" width="45.5" x="1940.5" y="402"></rect><text x="1963.25" y="417">⇐ ➎</text></g><path d="M 1986.0 413 h 10"></path><path d="M 1996.0 413 h 10"></path><g class="terminal ">
<path d="M 2006.0 413 h 0.0"></path><path d="M 2051.5 413 h 0.0"></path><rect height="22" rx="10" ry="10" width="45.5" x="2006.0" y="402"></rect><text x="2028.75" y="417">'&#42;'</text></g></g><path d="M 2051.5 413 a 10 10 0 0 0 10 -10 v -220 a 10 10 0 0 1 10 -10"></path><path d="M 50.0 173 a 10 10 0 0 1 10 10 v 338 a 10 10 0 0 0 10 10"></path><g class="non-terminal ">
<path d="M 70.0 531 h 955.25"></path><path d="M 1096.25 531 h 955.25"></path><rect height="22" width="71.0" x="1025.25" y="520"></rect><text x="1060.75" y="535">Figure</text></g><path d="M 2051.5 531 a 10 10 0 0 0 10 -10 v -338 a 10 10 0 0 1 10 -10"></path></g></g><path d="M 2071.5 173 h 10"></path><path d="M 2081.5 173 h 20 m 0 -10 v 20"></path></g></svg>