<svg class="railroad-diagram" height="571" viewBox="0 0 2130.0 571" width="2130.0" xmlns="http://www.w3.org/2000/svg" xmlns:xlink="http://www.w3.org/1999/xlink">
<g transform="translate(.5 .5)">
<style>/* <![CDATA[ */

    svg.railroad-diagram {
        background-color: hsl(30,20%,95%);
    }
    svg.railroad-diagram path {
        stroke-width: 2;
        stroke: black;
        fill: none;
    }
    svg.railroad-diagram text {
        font-size: 12px;
        text-anchor: middle;
        font-family: DejaVu Sans;
    }
    svg.railroad-diagram text.label {
        text-anchor:start;
    }
    svg.railroad-diagram text.comment {
        font-family: DejaVu Sans;
        font-size: 14px;
    }
    svg.railroad-diagram rect{
        stroke-width: 2;
        stroke: black;
        fill: rgb(210, 255, 210);
    }
    svg.railroad-diagram rect.group-box {
        stroke: gray;
        stroke-dasharray: 10 5;
        fill: none;
    }
    .terminal {
        font-family: DejaVu Sans;
    }
    svg.railroad-diagram g.altterminal rect {
        fill: rgb(251, 252, 207)
    }

/* ]]> */
</style><g>
<path d="M 20 163 v 20 m 0 -10 h 20"></path></g><path d="M 40 173 h 10"></path><g>
<path d="M 50 173 h 0.0"></path><path d="M 2080.0 173 h 0.0"></path><g>
<path d="M 50.0 173 h 0.0"></path><path d="M 2080.0 173 h 0.0"></path><path d="M 50.0 173 h 20"></path><g>
<path d="M 70.0 173 h 385.5"></path><path d="M 1674.5 173 h 385.5"></path><g>
<path d="M 455.5 173 h 0.0"></path><g>
<path d="M 455.5 173 h 10.0"></path><path d="M 1286.0 173 h 10.0"></path><g class="terminal ">
<path d="M 465.5 173 h 0.0"></path><path d="M 519.5 173 h 0.0"></path><rect height="22" rx="10" ry="10" width="54.0" x="465.5" y="162"></rect><text x="492.5" y="177">'\+'</text></g><path d="M 519.5 173 h 10"></path><path d="M 529.5 173 h 10"></path><g>
<path d="M 539.5 173 h 0.0"></path><path d="M 1155.0 173 h 0.0"></path><rect class="group-box" height="314" rx="10" ry="10" width="615.5" x="539.5" y="46"></rect><g>
<path d="M 539.5 173 h 10.0"></path><path d="M 1145.0 173 h 10.0"></path><g>
<path d="M 549.5 173 h 0.0"></path><path d="M 1145.0 173 h 0.0"></path><path d="M 549.5 173 a 10 10 0 0 0 10 -10 v -99 a 10 10 0 0 1 10 -10 h 414.5"></path><path d="M 719.0 352 h 406.0 a 10 10 0 0 0 10 -10 v -159 a 10 10 0 0 1 10 -10"></path><path d="M 549.5 173 h 10"></path><g>
<path d="M 559.5 173 h 10.0"></path><path d="M 689.0 173 h 10.0"></path><path d="M 569.5 173 a 10 10 0 0 0 10 -10 v -10 a 10 10 0 0 1 10 -10"></path><g class="terminal ">
<path d="M 589.5 143 h 12.75"></path><path d="M 656.25 143 h 12.75"></path><rect height="22" rx="10" ry="10" width="54.0" x="602.25" y="132"></rect><text x="629.25" y="147">"ca"</text></g><path d="M 669.0 143 a 10 10 0 0 1 10 10 v 10 a 10 10 0 0 0 10 10"></path><path d="M 569.5 173 a 10 10 0 0 0 10 -10 v -40 a 10 10 0 0 1 10 -10"></path><g class="terminal ">
<path d="M 589.5 113 h 12.75"></path><path d="M 656.25 113 h 12.75"></path><rect height="22" rx="10" ry="10" width="54.0" x="602.25" y="102"></rect><text x="629.25" y="117">"vp"</text></g><path d="M 669.0 113 a 10 10 0 0 1 10 10 v 40 a 10 10 0 0 0 10 10"></path><path d="M 569.5 173 a 10 10 0 0 0 10 -10 v -70 a 10 10 0 0 1 10 -10"></path><g class="terminal ">
<path d="M 589.5 83 h 12.75"></path><path d="M 656.25 83 h 12.75"></path><rect height="22" rx="10" ry="10" width="54.0" x="602.25" y="72"></rect><text x="629.25" y="87">"va"</text></g><path d="M 669.0 83 a 10 10 0 0 1 10 10 v 70 a 10 10 0 0 0 10 10"></path><path d="M 569.5 173 h 20"></path><g class="terminal ">
<path d="M 589.5 173 h 8.5"></path><path d="M 660.5 173 h 8.5"></path><rect height="22" rx="10" ry="10" width="62.5" x="598.0" y="162"></rect><text x="629.25" y="177">"qac"</text></g><path d="M 669.0 173 h 20"></path><path d="M 569.5 173 a 10 10 0 0 1 10 10 v 10 a 10 10 0 0 0 10 10"></path><g class="terminal ">
<path d="M 589.5 203 h 12.75"></path><path d="M 656.25 203 h 12.75"></path><rect height="22" rx="10" ry="10" width="54.0" x="602.25" y="192"></rect><text x="629.25" y="207">"qs"</text></g><path d="M 669.0 203 a 10 10 0 0 0 10 -10 v -10 a 10 10 0 0 1 10 -10"></path><path d="M 569.5 173 a 10 10 0 0 1 10 10 v 40 a 10 10 0 0 0 10 10"></path><g class="terminal ">
<path d="M 589.5 233 h 8.5"></path><path d="M 660.5 233 h 8.5"></path><rect height="22" rx="10" ry="10" width="62.5" x="598.0" y="222"></rect><text x="629.25" y="237">"add"</text></g><path d="M 669.0 233 a 10 10 0 0 0 10 -10 v -40 a 10 10 0 0 1 10 -10"></path><path d="M 569.5 173 a 10 10 0 0 1 10 10 v 70 a 10 10 0 0 0 10 10"></path><g class="terminal ">
<path d="M 589.5 263 h 0.0"></path><path d="M 669.0 263 h 0.0"></path><rect height="22" rx="10" ry="10" width="79.5" x="589.5" y="252"></rect><text x="629.25" y="267">"addpn"</text></g><path d="M 669.0 263 a 10 10 0 0 0 10 -10 v -70 a 10 10 0 0 1 10 -10"></path><path d="M 569.5 173 a 10 10 0 0 1 10 10 v 100 a 10 10 0 0 0 10 10"></path><g class="terminal ">
<path d="M 589.5 293 h 12.75"></path><path d="M 656.25 293 h 12.75"></path><rect height="22" rx="10" ry="10" width="54.0" x="602.25" y="282"></rect><text x="629.25" y="297">"bk"</text></g><path d="M 669.0 293 a 10 10 0 0 0 10 -10 v -100 a 10 10 0 0 1 10 -10"></path><path d="M 569.5 173 a 10 10 0 0 1 10 10 v 130 a 10 10 0 0 0 10 10"></path><g class="terminal ">
<path d="M 589.5 323 h 12.75"></path><path d="M 656.25 323 h 12.75"></path><rect height="22" rx="10" ry="10" width="54.0" x="602.25" y="312"></rect><text x="629.25" y="327">"dc"</text></g><path d="M 669.0 323 a 10 10 0 0 0 10 -10 v -130 a 10 10 0 0 1 10 -10"></path></g><path d="M 699.0 173 a 10 10 0 0 1 10 10 v 159 a 10 10 0 0 0 10 10"></path><path d="M 699.0 54 a 10 10 0 0 1 10 10 v 99 a 10 10 0 0 0 10 10"></path><g>
<path d="M 719.0 173 h 10.0"></path><path d="M 831.5 173 h 10.0"></path><path d="M 729.0 173 a 10 10 0 0 0 10 -10 v -10 a 10 10 0 0 1 10 -10"></path><g class="terminal ">
<path d="M 749.0 143 h 8.5"></path><path d="M 803.0 143 h 8.5"></path><rect height="22" rx="10" ry="10" width="45.5" x="757.5" y="132"></rect><text x="780.25" y="147">"k"</text></g><path d="M 811.5 143 a 10 10 0 0 1 10 10 v 10 a 10 10 0 0 0 10 10"></path><path d="M 729.0 173 a 10 10 0 0 0 10 -10 v -40 a 10 10 0 0 1 10 -10"></path><g class="terminal ">
<path d="M 749.0 113 h 4.25"></path><path d="M 807.25 113 h 4.25"></path><rect height="22" rx="10" ry="10" width="54.0" x="753.25" y="102"></rect><text x="780.25" y="117">"fm"</text></g><path d="M 811.5 113 a 10 10 0 0 1 10 10 v 40 a 10 10 0 0 0 10 10"></path><path d="M 729.0 173 a 10 10 0 0 0 10 -10 v -70 a 10 10 0 0 1 10 -10"></path><g class="terminal ">
<path d="M 749.0 83 h 0.0"></path><path d="M 811.5 83 h 0.0"></path><rect height="22" rx="10" ry="10" width="62.5" x="749.0" y="72"></rect><text x="780.25" y="87">"efm"</text></g><path d="M 811.5 83 a 10 10 0 0 1 10 10 v 70 a 10 10 0 0 0 10 10"></path><path d="M 729.0 173 h 20"></path><g class="terminal ">
<path d="M 749.0 173 h 4.25"></path><path d="M 807.25 173 h 4.25"></path><rect height="22" rx="10" ry="10" width="54.0" x="753.25" y="162"></rect><text x="780.25" y="177">"nd"</text></g><path d="M 811.5 173 h 20"></path><path d="M 729.0 173 a 10 10 0 0 1 10 10 v 10 a 10 10 0 0 0 10 10"></path><g class="terminal ">
<path d="M 749.0 203 h 0.0"></path><path d="M 811.5 203 h 0.0"></path><rect height="22" rx="10" ry="10" width="62.5" x="749.0" y="192"></rect><text x="780.25" y="207">"ndx"</text></g><path d="M 811.5 203 a 10 10 0 0 0 10 -10 v -10 a 10 10 0 0 1 10 -10"></path><path d="M 729.0 173 a 10 10 0 0 1 10 10 v 40 a 10 10 0 0 0 10 10"></path><g class="terminal ">
<path d="M 749.0 233 h 0.0"></path><path d="M 811.5 233 h 0.0"></path><rect height="22" rx="10" ry="10" width="62.5" x="749.0" y="222"></rect><text x="780.25" y="237">"ord"</text></g><path d="M 811.5 233 a 10 10 0 0 0 10 -10 v -40 a 10 10 0 0 1 10 -10"></path><path d="M 729.0 173 a 10 10 0 0 1 10 10 v 70 a 10 10 0 0 0 10 10"></path><g class="terminal ">
<path d="M 749.0 263 h 0.0"></path><path d="M 811.5 263 h 0.0"></path><rect height="22" rx="10" ry="10" width="62.5" x="749.0" y="252"></rect><text x="780.25" y="267">"png"</text></g><path d="M 811.5 263 a 10 10 0 0 0 10 -10 v -70 a 10 10 0 0 1 10 -10"></path><path d="M 729.0 173 a 10 10 0 0 1 10 10 v 100 a 10 10 0 0 0 10 10"></path><g class="terminal ">
<path d="M 749.0 293 h 4.25"></path><path d="M 807.25 293 h 4.25"></path><rect height="22" rx="10" ry="10" width="54.0" x="753.25" y="282"></rect><text x="780.25" y="297">"pn"</text></g><path d="M 811.5 293 a 10 10 0 0 0 10 -10 v -100 a 10 10 0 0 1 10 -10"></path><path d="M 729.0 173 a 10 10 0 0 1 10 10 v 130 a 10 10 0 0 0 10 10"></path><g class="terminal ">
<path d="M 749.0 323 h 0.0"></path><path d="M 811.5 323 h 0.0"></path><rect height="22" rx="10" ry="10" width="62.5" x="749.0" y="312"></rect><text x="780.25" y="327">"pro"</text></g><path d="M 811.5 323 a 10 10 0 0 0 10 -10 v -130 a 10 10 0 0 1 10 -10"></path></g><path d="M 841.5 173 a 10 10 0 0 1 10 10 v 159 a 10 10 0 0 0 10 10"></path><path d="M 841.5 54 a 10 10 0 0 1 10 10 v 99 a 10 10 0 0 0 10 10"></path><g>
<path d="M 861.5 173 h 10.0"></path><path d="M 974.0 173 h 10.0"></path><path d="M 871.5 173 a 10 10 0 0 0 10 -10 v -10 a 10 10 0 0 1 10 -10"></path><g class="terminal ">
<path d="M 891.5 143 h 0.0"></path><path d="M 954.0 143 h 0.0"></path><rect height="22" rx="10" ry="10" width="62.5" x="891.5" y="132"></rect><text x="922.75" y="147">"sig"</text></g><path d="M 954.0 143 a 10 10 0 0 1 10 10 v 10 a 10 10 0 0 0 10 10"></path><path d="M 871.5 173 a 10 10 0 0 0 10 -10 v -40 a 10 10 0 0 1 10 -10"></path><g class="terminal ">
<path d="M 891.5 113 h 4.25"></path><path d="M 949.75 113 h 4.25"></path><rect height="22" rx="10" ry="10" width="54.0" x="895.75" y="102"></rect><text x="922.75" y="117">"rq"</text></g><path d="M 954.0 113 a 10 10 0 0 1 10 10 v 40 a 10 10 0 0 0 10 10"></path><path d="M 871.5 173 a 10 10 0 0 0 10 -10 v -70 a 10 10 0 0 1 10 -10"></path><g class="terminal ">
<path d="M 891.5 83 h 4.25"></path><path d="M 949.75 83 h 4.25"></path><rect height="22" rx="10" ry="10" width="54.0" x="895.75" y="72"></rect><text x="922.75" y="87">"qt"</text></g><path d="M 954.0 83 a 10 10 0 0 1 10 10 v 70 a 10 10 0 0 0 10 10"></path><path d="M 871.5 173 h 20"></path><g class="terminal ">
<path d="M 891.5 173 h 0.0"></path><path d="M 954.0 173 h 0.0"></path><rect height="22" rx="10" ry="10" width="62.5" x="891.5" y="162"></rect><text x="922.75" y="177">"sls"</text></g><path d="M 954.0 173 h 20"></path><path d="M 871.5 173 a 10 10 0 0 1 10 10 v 10 a 10 10 0 0 0 10 10"></path><g class="terminal ">
<path d="M 891.5 203 h 4.25"></path><path d="M 949.75 203 h 4.25"></path><rect height="22" rx="10" ry="10" width="54.0" x="895.75" y="192"></rect><text x="922.75" y="207">"tl"</text></g><path d="M 954.0 203 a 10 10 0 0 0 10 -10 v -10 a 10 10 0 0 1 10 -10"></path><path d="M 871.5 173 a 10 10 0 0 1 10 10 v 40 a 10 10 0 0 0 10 10"></path><g class="terminal ">
<path d="M 891.5 233 h 4.25"></path><path d="M 949.75 233 h 4.25"></path><rect height="22" rx="10" ry="10" width="54.0" x="895.75" y="222"></rect><text x="922.75" y="237">"wg"</text></g><path d="M 954.0 233 a 10 10 0 0 0 10 -10 v -40 a 10 10 0 0 1 10 -10"></path><path d="M 871.5 173 a 10 10 0 0 1 10 10 v 70 a 10 10 0 0 0 10 10"></path><g class="terminal ">
<path d="M 891.5 263 h 4.25"></path><path d="M 949.75 263 h 4.25"></path><rect height="22" rx="10" ry="10" width="54.0" x="895.75" y="252"></rect><text x="922.75" y="267">"wh"</text></g><path d="M 954.0 263 a 10 10 0 0 0 10 -10 v -70 a 10 10 0 0 1 10 -10"></path><path d="M 871.5 173 a 10 10 0 0 1 10 10 v 100 a 10 10 0 0 0 10 10"></path><g class="terminal ">
<path d="M 891.5 293 h 4.25"></path><path d="M 949.75 293 h 4.25"></path><rect height="22" rx="10" ry="10" width="54.0" x="895.75" y="282"></rect><text x="922.75" y="297">"wa"</text></g><path d="M 954.0 293 a 10 10 0 0 0 10 -10 v -100 a 10 10 0 0 1 10 -10"></path><path d="M 871.5 173 a 10 10 0 0 1 10 10 v 130 a 10 10 0 0 0 10 10"></path><g class="terminal ">
<path d="M 891.5 323 h 4.25"></path><path d="M 949.75 323 h 4.25"></path><rect height="22" rx="10" ry="10" width="54.0" x="895.75" y="312"></rect><text x="922.75" y="327">"wj"</text></g><path d="M 954.0 323 a 10 10 0 0 0 10 -10 v -130 a 10 10 0 0 1 10 -10"></path></g><path d="M 984.0 173 a 10 10 0 0 1 10 10 v 159 a 10 10 0 0 0 10 10"></path><path d="M 984.0 54 a 10 10 0 0 1 10 10 v 99 a 10 10 0 0 0 10 10"></path><g>
<path d="M 1004.0 173 h 10.0"></path><path d="M 1125.0 173 h 10.0"></path><path d="M 1014.0 173 a 10 10 0 0 0 10 -10 v -10 a 10 10 0 0 1 10 -10"></path><g class="terminal ">
<path d="M 1034.0 143 h 8.5"></path><path d="M 1096.5 143 h 8.5"></path><rect height="22" rx="10" ry="10" width="54.0" x="1042.5" y="132"></rect><text x="1069.5" y="147">"no"</text></g><path d="M 1105.0 143 a 10 10 0 0 1 10 10 v 10 a 10 10 0 0 0 10 10"></path><path d="M 1014.0 173 a 10 10 0 0 0 10 -10 v -40 a 10 10 0 0 1 10 -10"></path><g class="terminal ">
<path d="M 1034.0 113 h 4.25"></path><path d="M 1100.75 113 h 4.25"></path><rect height="22" rx="10" ry="10" width="62.5" x="1038.25" y="102"></rect><text x="1069.5" y="117">"jmp"</text></g><path d="M 1105.0 113 a 10 10 0 0 1 10 10 v 40 a 10 10 0 0 0 10 10"></path><path d="M 1014.0 173 a 10 10 0 0 0 10 -10 v -70 a 10 10 0 0 1 10 -10"></path><g class="terminal ">
<path d="M 1034.0 83 h 8.5"></path><path d="M 1096.5 83 h 8.5"></path><rect height="22" rx="10" ry="10" width="54.0" x="1042.5" y="72"></rect><text x="1069.5" y="87">"xt"</text></g><path d="M 1105.0 83 a 10 10 0 0 1 10 10 v 70 a 10 10 0 0 0 10 10"></path><path d="M 1014.0 173 h 20"></path><g class="terminal ">
<path d="M 1034.0 173 h 8.5"></path><path d="M 1096.5 173 h 8.5"></path><rect height="22" rx="10" ry="10" width="54.0" x="1042.5" y="162"></rect><text x="1069.5" y="177">"it"</text></g><path d="M 1105.0 173 h 20"></path><path d="M 1014.0 173 a 10 10 0 0 1 10 10 v 10 a 10 10 0 0 0 10 10"></path><g class="terminal ">
<path d="M 1034.0 203 h 0.0"></path><path d="M 1105.0 203 h 0.0"></path><rect height="22" rx="10" ry="10" width="71.0" x="1034.0" y="192"></rect><text x="1069.5" y="207">"bdit"</text></g><path d="M 1105.0 203 a 10 10 0 0 0 10 -10 v -10 a 10 10 0 0 1 10 -10"></path><path d="M 1014.0 173 a 10 10 0 0 1 10 10 v 40 a 10 10 0 0 0 10 10"></path><g class="terminal ">
<path d="M 1034.0 233 h 8.5"></path><path d="M 1096.5 233 h 8.5"></path><rect height="22" rx="10" ry="10" width="54.0" x="1042.5" y="222"></rect><text x="1069.5" y="237">"bd"</text></g><path d="M 1105.0 233 a 10 10 0 0 0 10 -10 v -40 a 10 10 0 0 1 10 -10"></path><path d="M 1014.0 173 a 10 10 0 0 1 10 10 v 70 a 10 10 0 0 0 10 10"></path><g class="terminal ">
<path d="M 1034.0 263 h 8.5"></path><path d="M 1096.5 263 h 8.5"></path><rect height="22" rx="10" ry="10" width="54.0" x="1042.5" y="252"></rect><text x="1069.5" y="267">"em"</text></g><path d="M 1105.0 263 a 10 10 0 0 0 10 -10 v -70 a 10 10 0 0 1 10 -10"></path><path d="M 1014.0 173 a 10 10 0 0 1 10 10 v 100 a 10 10 0 0 0 10 10"></path><g class="terminal ">
<path d="M 1034.0 293 h 8.5"></path><path d="M 1096.5 293 h 8.5"></path><rect height="22" rx="10" ry="10" width="54.0" x="1042.5" y="282"></rect><text x="1069.5" y="297">"sc"</text></g><path d="M 1105.0 293 a 10 10 0 0 0 10 -10 v -100 a 10 10 0 0 1 10 -10"></path><path d="M 1014.0 173 a 10 10 0 0 1 10 10 v 130 a 10 10 0 0 0 10 10"></path><g class="terminal ">
<path d="M 1034.0 323 h 4.25"></path><path d="M 1100.75 323 h 4.25"></path><rect height="22" rx="10" ry="10" width="62.5" x="1038.25" y="312"></rect><text x="1069.5" y="327">"sup"</text></g><path d="M 1105.0 323 a 10 10 0 0 0 10 -10 v -130 a 10 10 0 0 1 10 -10"></path></g><path d="M 1135.0 173 h 10"></path></g></g><g class="non-terminal ">
<path d="M 539.5 38 h 0.0"></path><path d="M 556.5 38 h 0.0"></path><text class="comment" x="548.0" y="43">➋</text></g></g><path d="M 1155.0 173 h 10"></path><path d="M 1165.0 173 h 10"></path><g>
<path d="M 1175.0 173 h 0.0"></path><path d="M 1286.0 173 h 0.0"></path><path d="M 1175.0 173 h 20"></path><g class="terminal ">
<path d="M 1195.0 173 h 12.75"></path><path d="M 1253.25 173 h 12.75"></path><rect height="22" rx="10" ry="10" width="45.5" x="1207.75" y="162"></rect><text x="1230.5" y="177">' '</text></g><path d="M 1266.0 173 h 20"></path><path d="M 1175.0 173 a 10 10 0 0 1 10 10 v 10 a 10 10 0 0 0 10 10"></path><g class="terminal altterminal">
<path d="M 1195.0 203 h 0.0"></path><path d="M 1266.0 203 h 0.0"></path><rect height="22" rx="10" ry="10" width="71.0" x="1195.0" y="192"></rect><text x="1230.5" y="207">TAGEND</text></g><path d="M 1266.0 203 a 10 10 0 0 0 10 -10 v -10 a 10 10 0 0 1 10 -10"></path></g></g><path d="M 1296.0 173 h 0.0"></path></g><path d="M 1296.0 173 h 10"></path><path d="M 1306.0 173 h 10"></path><g class="non-terminal ">
<path d="M 1316.0 173 h 0.0"></path><path d="M 1429.5 173 h 0.0"></path><rect height="22" width="113.5" x="1316.0" y="162"></rect><text x="1372.75" y="177">CharContent</text></g><path d="M 1429.5 173 h 10"></path><path d="M 1439.5 173 h 10"></path><g>
<path d="M 1449.5 173 h 0.0"></path><path d="M 1674.5 173 h 0.0"></path><path d="M 1449.5 173 h 20"></path><g>
<path d="M 1469.5 173 h 185.0"></path></g><path d="M 1654.5 173 h 20"></path><path d="M 1449.5 173 a 10 10 0 0 1 10 10 v 0 a 10 10 0 0 0 10 10"></path><g>
<path d="M 1469.5 193 h 0.0"></path><path d="M 1654.5 193 h 0.0"></path><g class="terminal ">
<path d="M 1469.5 193 h 0.0"></path><path d="M 1523.5 193 h 0.0"></path><rect height="22" rx="10" ry="10" width="54.0" x="1469.5" y="182"></rect><text x="1496.5" y="197">'\+'</text></g><path d="M 1523.5 193 h 10"></path><path d="M 1533.5 193 h 10"></path><g class="terminal ">
<path d="M 1543.5 193 h 0.0"></path><path d="M 1589.0 193 h 0.0"></path><rect height="22" rx="10" ry="10" width="45.5" x="1543.5" y="182"></rect><text x="1566.25" y="197">⇐ ➏</text></g><path d="M 1589.0 193 h 10"></path><path d="M 1599.0 193 h 10"></path><g class="terminal ">
<path d="M 1609.0 193 h 0.0"></path><path d="M 1654.5 193 h 0.0"></path><rect height="22" rx="10" ry="10" width="45.5" x="1609.0" y="182"></rect><text x="1631.75" y="197">'&#42;'</text></g></g><path d="M 1654.5 193 a 10 10 0 0 0 10 -10 v 0 a 10 10 0 0 1 10 -10"></path></g></g><path d="M 2060.0 173 h 20"></path><path d="M 50.0 173 a 10 10 0 0 1 10 10 v 220 a 10 10 0 0 0 10 10"></path><g>
<path d="M 70.0 413 h 0.0"></path><path d="M 2060.0 413 h 0.0"></path><g class="terminal ">
<path d="M 70.0 413 h 0.0"></path><path d="M 124.0 413 h 0.0"></path><rect height="22" rx="10" ry="10" width="54.0" x="70.0" y="402"></rect><text x="97.0" y="417">'\+'</text></g><path d="M 124.0 413 h 10"></path><path d="M 134.0 413 h 10"></path><g>
<path d="M 144.0 413 h 0.0"></path><path d="M 266.5 413 h 0.0"></path><rect class="group-box" height="118" rx="10" ry="10" width="122.5" x="144.0" y="384"></rect><g>
<path d="M 144.0 413 h 10.0"></path><path d="M 256.5 413 h 10.0"></path><g>
<path d="M 154.0 413 h 0.0"></path><path d="M 256.5 413 h 0.0"></path><path d="M 154.0 413 h 20"></path><g class="terminal ">
<path d="M 174.0 413 h 8.5"></path><path d="M 228.0 413 h 8.5"></path><rect height="22" rx="10" ry="10" width="45.5" x="182.5" y="402"></rect><text x="205.25" y="417">"w"</text></g><path d="M 236.5 413 h 20"></path><path d="M 154.0 413 a 10 10 0 0 1 10 10 v 10 a 10 10 0 0 0 10 10"></path><g class="terminal ">
<path d="M 174.0 443 h 4.25"></path><path d="M 232.25 443 h 4.25"></path><rect height="22" rx="10" ry="10" width="54.0" x="178.25" y="432"></rect><text x="205.25" y="447">"rb"</text></g><path d="M 236.5 443 a 10 10 0 0 0 10 -10 v -10 a 10 10 0 0 1 10 -10"></path><path d="M 154.0 413 a 10 10 0 0 1 10 10 v 40 a 10 10 0 0 0 10 10"></path><g class="terminal ">
<path d="M 174.0 473 h 0.0"></path><path d="M 236.5 473 h 0.0"></path><rect height="22" rx="10" ry="10" width="62.5" x="174.0" y="462"></rect><text x="205.25" y="477">"jmp"</text></g><path d="M 236.5 473 a 10 10 0 0 0 10 -10 v -40 a 10 10 0 0 1 10 -10"></path></g></g><g class="non-terminal ">
<path d="M 144.0 376 h 0.0"></path><path d="M 161.0 376 h 0.0"></path><text class="comment" x="152.5" y="381">➋</text></g></g><path d="M 266.5 413 h 10"></path><path d="M 276.5 413 h 10"></path><g>
<path d="M 286.5 413 h 0.0"></path><path d="M 397.5 413 h 0.0"></path><path d="M 286.5 413 h 20"></path><g class="terminal ">
<path d="M 306.5 413 h 12.75"></path><path d="M 364.75 413 h 12.75"></path><rect height="22" rx="10" ry="10" width="45.5" x="319.25" y="402"></rect><text x="342.0" y="417">' '</text></g><path d="M 377.5 413 h 20"></path><path d="M 286.5 413 a 10 10 0 0 1 10 10 v 10 a 10 10 0 0 0 10 10"></path><g class="terminal altterminal">
<path d="M 306.5 443 h 0.0"></path><path d="M 377.5 443 h 0.0"></path><rect height="22" rx="10" ry="10" width="71.0" x="306.5" y="432"></rect><text x="342.0" y="447">TAGEND</text></g><path d="M 377.5 443 a 10 10 0 0 0 10 -10 v -10 a 10 10 0 0 1 10 -10"></path></g><path d="M 397.5 413 h 10"></path><path d="M 407.5 413 h 10"></path><g>
<path d="M 417.5 413 h 0.0"></path><path d="M 622.5 413 h 0.0"></path><path d="M 417.5 413 a 10 10 0 0 0 10 -10 v -9 a 10 10 0 0 1 10 -10"></path><g>
<path d="M 437.5 384 h 165.0"></path></g><path d="M 602.5 384 a 10 10 0 0 1 10 10 v 9 a 10 10 0 0 0 10 10"></path><path d="M 417.5 413 h 20"></path><g>
<path d="M 437.5 413 h 0.0"></path><path d="M 602.5 413 h 0.0"></path><path d="M 437.5 413 h 10"></path><g>
<path d="M 447.5 413 h 0.0"></path><path d="M 592.5 413 h 0.0"></path><g>
<path d="M 447.5 413 h 0.0"></path><path d="M 592.5 413 h 0.0"></path><path d="M 447.5 413 h 20"></path><g class="non-terminal ">
<path d="M 467.5 413 h 4.25"></path><path d="M 568.25 413 h 4.25"></path><rect height="22" width="96.5" x="471.75" y="402"></rect><text x="520.0" y="417">CharEmbed</text></g><path d="M 572.5 413 h 20"></path><path d="M 447.5 413 a 10 10 0 0 1 10 10 v 10 a 10 10 0 0 0 10 10"></path><g>
<path d="M 467.5 443 h 0.0"></path><path d="M 572.5 443 h 0.0"></path><g class="terminal ">
<path d="M 467.5 443 h 0.0"></path><path d="M 572.5 443 h 0.0"></path><rect height="22" rx="10" ry="10" width="105.0" x="467.5" y="432"></rect><text x="520.0" y="447">TEXTATTRIB</text></g></g><path d="M 572.5 443 a 10 10 0 0 0 10 -10 v -10 a 10 10 0 0 1 10 -10"></path></g></g><path d="M 592.5 413 h 10"></path><path d="M 447.5 413 a 10 10 0 0 0 -10 10 v 39 a 10 10 0 0 0 10 10"></path><g>
<path d="M 447.5 472 h 145.0"></path></g><path d="M 592.5 472 a 10 10 0 0 0 10 -10 v -39 a 10 10 0 0 0 -10 -10"></path></g><path d="M 602.5 413 h 20"></path></g><path d="M 622.5 413 h 10"></path><path d="M 632.5 413 h 10"></path><g>
<path d="M 642.5 413 h 0.0"></path><path d="M 1855.0 413 h 0.0"></path><path d="M 642.5 413 h 20"></path><g>
<path d="M 662.5 413 h 1172.5"></path></g><path d="M 1835.0 413 h 20"></path><path d="M 642.5 413 a 10 10 0 0 1 10 10 v 9 a 10 10 0 0 0 10 10"></path><g>
<path d="M 662.5 442 h 0.0"></path><path d="M 1835.0 442 h 0.0"></path><g>
<path d="M 662.5 442 h 0.0"></path><path d="M 756.5 442 h 0.0"></path><path d="M 662.5 442 h 20"></path><g class="terminal ">
<path d="M 682.5 442 h 4.25"></path><path d="M 732.25 442 h 4.25"></path><rect height="22" rx="10" ry="10" width="45.5" x="686.75" y="431"></rect><text x="709.5" y="446">'|'</text></g><path d="M 736.5 442 h 20"></path><path d="M 662.5 442 a 10 10 0 0 1 10 10 v 10 a 10 10 0 0 0 10 10"></path><g class="terminal altterminal">
<path d="M 682.5 472 h 0.0"></path><path d="M 736.5 472 h 0.0"></path><rect height="22" rx="10" ry="10" width="54.0" x="682.5" y="461"></rect><text x="709.5" y="476">PIPE</text></g><path d="M 736.5 472 a 10 10 0 0 0 10 -10 v -10 a 10 10 0 0 1 10 -10"></path></g><path d="M 756.5 442 h 10"></path><path d="M 766.5 442 h 10"></path><g>
<path d="M 776.5 442 h 0.0"></path><path d="M 1835.0 442 h 0.0"></path><path d="M 776.5 442 h 10"></path><g>
<path d="M 786.5 442 h 0.0"></path><path d="M 1825.0 442 h 0.0"></path><g>
<path d="M 786.5 442 h 0.0"></path><path d="M 1825.0 442 h 0.0"></path><path d="M 786.5 442 h 20"></path><g class="terminal ">
<path d="M 806.5 442 h 417.0"></path><path d="M 1388.0 442 h 417.0"></path><rect height="22" rx="10" ry="10" width="164.5" x="1223.5" y="431"></rect><text x="1305.75" y="446">/&#91;^\\\n=&#93;+(?=\\)/</text></g><path d="M 1805.0 442 h 20"></path><path d="M 786.5 442 a 10 10 0 0 1 10 10 v 10 a 10 10 0 0 0 10 10"></path><g>
<path d="M 806.5 472 h 0.0"></path><path d="M 1805.0 472 h 0.0"></path><g class="terminal ">
<path d="M 806.5 472 h 0.0"></path><path d="M 928.5 472 h 0.0"></path><rect height="22" rx="10" ry="10" width="122.0" x="806.5" y="461"></rect><text x="867.5" y="476">/&#91;^\\\n="&#93;+/</text></g><path d="M 928.5 472 h 10"></path><path d="M 938.5 472 h 10"></path><g class="terminal ">
<path d="M 948.5 472 h 0.0"></path><path d="M 1002.5 472 h 0.0"></path><rect height="22" rx="10" ry="10" width="54.0" x="948.5" y="461"></rect><text x="975.5" y="476">'="'</text></g><path d="M 1002.5 472 h 10"></path><path d="M 1012.5 472 h 10"></path><g class="terminal ">
<path d="M 1022.5 472 h 0.0"></path><path d="M 1136.0 472 h 0.0"></path><rect height="22" rx="10" ry="10" width="113.5" x="1022.5" y="461"></rect><text x="1079.25" y="476">/&#91;^\\\n"&#93;&#42;/</text></g><path d="M 1136.0 472 h 10"></path><path d="M 1146.0 472 h 10"></path><g class="terminal ">
<path d="M 1156.0 472 h 0.0"></path><path d="M 1805.0 472 h 0.0"></path><rect height="22" rx="10" ry="10" width="649.0" x="1156.0" y="461"></rect><text x="1480.5" y="476">/"&#91;\u0009-\u000D\u0020\u00A0\u1680\u2000-\u200B\u2028\u2029\u202F\u205F&#93;&#42;/</text></g></g><path d="M 1805.0 472 a 10 10 0 0 0 10 -10 v -10 a 10 10 0 0 1 10 -10"></path></g></g><path d="M 1825.0 442 h 10"></path><path d="M 786.5 442 a 10 10 0 0 0 -10 10 v 39 a 10 10 0 0 0 10 10"></path><g>
<path d="M 786.5 501 h 1038.5"></path></g><path d="M 1825.0 501 a 10 10 0 0 0 10 -10 v -39 a 10 10 0 0 0 -10 -10"></path></g></g><path d="M 1835.0 442 a 10 10 0 0 0 10 -10 v -9 a 10 10 0 0 1 10 -10"></path></g><path d="M 1855.0 413 h 10"></path><path d="M 1865.0 413 h 10"></path><g class="terminal ">
<path d="M 1875.0 413 h 0.0"></path><path d="M 1929.0 413 h 0.0"></path><rect height="22" rx="10" ry="10" width="54.0" x="1875.0" y="402"></rect><text x="1902.0" y="417">'\+'</text></g><path d="M 1929.0 413 h 10"></path><path d="M 1939.0 413 h 10"></path><g class="terminal ">
<path d="M 1949.0 413 h 0.0"></path><path d="M 1994.5 413 h 0.0"></path><rect height="22" rx="10" ry="10" width="45.5" x="1949.0" y="402"></rect><text x="1971.75" y="417">⇐ ➎</text></g><path d="M 1994.5 413 h 10"></path><path d="M 2004.5 413 h 10"></path><g class="terminal ">
<path d="M 2014.5 413 h 0.0"></path><path d="M 2060.0 413 h 0.0"></path><rect height="22" rx="10" ry="10" width="45.5" x="2014.5" y="402"></rect><text x="2037.25" y="417">'&#42;'</text></g></g><path d="M 2060.0 413 a 10 10 0 0 0 10 -10 v -220 a 10 10 0 0 1 10 -10"></path><path d="M 50.0 173 a 10 10 0 0 1 10 10 v 337 a 10 10 0 0 0 10 10"></path><g class="non-terminal ">
<path d="M 70.0 530 h 959.5"></path><path d="M 1100.5 530 h 959.5"></path><rect height="22" width="71.0" x="1029.5" y="519"></rect><text x="1065.0" y="534">Figure</text></g><path d="M 2060.0 530 a 10 10 0 0 0 10 -10 v -337 a 10 10 0 0 1 10 -10"></path></g></g><path d="M 2080.0 173 h 10"></path><path d="M 2090.0 173 h 20 m 0 -10 v 20"></path></g></svg>