<svg class="railroad-diagram" height="488" viewBox="0 0 1041.5 488" width="1041.5" xmlns="http://www.w3.org/2000/svg" xmlns:xlink="http://www.w3.org/1999/xlink">
<g transform="translate(.5 .5)">
<style>/* <![CDATA[ */

    svg.railroad-diagram {
        background-color: hsl(30,20%,95%);
    }
    svg.railroad-diagram path {
        stroke-width: 2;
        stroke: black;
        fill: none;
    }
    svg.railroad-diagram text {
        font-size: 12px;
        text-anchor: middle;
        font-family: DejaVu Sans;
    }
    svg.railroad-diagram text.label {
        text-anchor:start;
    }
    svg.railroad-diagram text.comment {
        font-family: DejaVu Sans;
        font-size: 14px;
    }
    svg.railroad-diagram rect{
        stroke-width: 2;
        stroke: black;
        fill: rgb(210, 210, 255);
    }
    svg.railroad-diagram rect.group-box {
        stroke: gray;
        stroke-dasharray: 10 5;
        fill: none;
    }
    .terminal {
        font-family: DejaVu Sans;
    }
    svg.railroad-diagram g.altterminal rect {
        fill: rgb(251, 252, 207)
    }

/* ]]> */
</style><g>
<path d="M 20 377 v 20 m 0 -10 h 20"></path></g><path d="M 40 387 h 10"></path><g>
<path d="M 50 387 h 0.0"></path><path d="M 991.5 387 h 0.0"></path><g>
<path d="M 50.0 387 h 0.0"></path><path d="M 991.5 387 h 0.0"></path><g class="terminal ">
<path d="M 50.0 387 h 0.0"></path><path d="M 121.0 387 h 0.0"></path><rect height="22" rx="10" ry="10" width="71.0" x="50.0" y="376"></rect><text x="85.5" y="391">&#60;char></text></g><path d="M 121.0 387 h 10"></path><path d="M 131.0 387 h 10"></path><g>
<path d="M 141.0 387 h 0.0"></path><path d="M 991.5 387 h 0.0"></path><path d="M 141.0 387 a 10 10 0 0 0 10 -10 v -188 a 10 10 0 0 1 10 -10"></path><g>
<path d="M 161.0 179 h 0.0"></path><path d="M 971.5 179 h 0.0"></path><g class="terminal ">
<path d="M 161.0 179 h 0.0"></path><path d="M 232.0 179 h 0.0"></path><rect height="22" rx="10" ry="10" width="71.0" x="161.0" y="168"></rect><text x="196.5" y="183">@style</text></g><path d="M 232.0 179 h 10"></path><g>
<path d="M 242.0 179 h 0.0"></path><path d="M 971.5 179 h 0.0"></path><path d="M 242.0 179 a 10 10 0 0 0 10 -10 v -99 a 10 10 0 0 1 10 -10 h 485.5"></path><path d="M 242.0 179 h 10"></path><g>
<path d="M 252.0 179 h 0.0"></path><path d="M 252.0 179 a 10 10 0 0 0 10 -10 v -10 a 10 10 0 0 1 10 -10"></path><g class="terminal ">
<path d="M 272.0 149 h 0.0"></path><path d="M 326.0 149 h 0.0"></path><rect height="22" rx="10" ry="10" width="54.0" x="272.0" y="138"></rect><text x="299.0" y="153">"qs"</text></g><path d="M 252.0 179 a 10 10 0 0 0 10 -10 v -40 a 10 10 0 0 1 10 -10"></path><g class="terminal ">
<path d="M 272.0 119 h 0.0"></path><path d="M 334.5 119 h 0.0"></path><rect height="22" rx="10" ry="10" width="62.5" x="272.0" y="108"></rect><text x="303.25" y="123">"qac"</text></g><path d="M 252.0 179 a 10 10 0 0 0 10 -10 v -70 a 10 10 0 0 1 10 -10"></path><g class="terminal ">
<path d="M 272.0 89 h 0.0"></path><path d="M 326.0 89 h 0.0"></path><rect height="22" rx="10" ry="10" width="54.0" x="272.0" y="78"></rect><text x="299.0" y="93">"vp"</text></g><path d="M 252.0 179 h 20"></path><g class="terminal ">
<path d="M 272.0 179 h 0.0"></path><path d="M 334.5 179 h 0.0"></path><rect height="22" rx="10" ry="10" width="62.5" x="272.0" y="168"></rect><text x="303.25" y="183">"add"</text></g><path d="M 252.0 179 a 10 10 0 0 1 10 10 v 10 a 10 10 0 0 0 10 10"></path><g class="terminal ">
<path d="M 272.0 209 h 0.0"></path><path d="M 351.5 209 h 0.0"></path><rect height="22" rx="10" ry="10" width="79.5" x="272.0" y="198"></rect><text x="311.75" y="213">"addpn"</text></g><path d="M 252.0 179 a 10 10 0 0 1 10 10 v 40 a 10 10 0 0 0 10 10"></path><g class="terminal ">
<path d="M 272.0 239 h 0.0"></path><path d="M 326.0 239 h 0.0"></path><rect height="22" rx="10" ry="10" width="54.0" x="272.0" y="228"></rect><text x="299.0" y="243">"bk"</text></g><path d="M 252.0 179 a 10 10 0 0 1 10 10 v 70 a 10 10 0 0 0 10 10"></path><g class="terminal ">
<path d="M 272.0 269 h 0.0"></path><path d="M 326.0 269 h 0.0"></path><rect height="22" rx="10" ry="10" width="54.0" x="272.0" y="258"></rect><text x="299.0" y="273">"dc"</text></g><path d="M 252.0 179 a 10 10 0 0 1 10 10 v 100 a 10 10 0 0 0 10 10"></path><g class="terminal ">
<path d="M 272.0 299 h 0.0"></path><path d="M 334.5 299 h 0.0"></path><rect height="22" rx="10" ry="10" width="62.5" x="272.0" y="288"></rect><text x="303.25" y="303">"efm"</text></g><path d="M 252.0 179 a 10 10 0 0 1 10 10 v 130 a 10 10 0 0 0 10 10"></path><g class="terminal ">
<path d="M 272.0 329 h 0.0"></path><path d="M 326.0 329 h 0.0"></path><rect height="22" rx="10" ry="10" width="54.0" x="272.0" y="318"></rect><text x="299.0" y="333">"fm"</text></g></g><path d="M 371.5 60 a 10 10 0 0 1 10 10 v 99 a 10 10 0 0 0 10 10"></path><g>
<path d="M 391.5 179 h 0.0"></path><path d="M 391.5 179 a 10 10 0 0 0 10 -10 v -10 a 10 10 0 0 1 10 -10"></path><g class="terminal ">
<path d="M 411.5 149 h 0.0"></path><path d="M 465.5 149 h 0.0"></path><rect height="22" rx="10" ry="10" width="54.0" x="411.5" y="138"></rect><text x="438.5" y="153">"nd"</text></g><path d="M 391.5 179 a 10 10 0 0 0 10 -10 v -40 a 10 10 0 0 1 10 -10"></path><g class="terminal ">
<path d="M 411.5 119 h 0.0"></path><path d="M 457.0 119 h 0.0"></path><rect height="22" rx="10" ry="10" width="45.5" x="411.5" y="108"></rect><text x="434.25" y="123">"k"</text></g><path d="M 391.5 179 a 10 10 0 0 0 10 -10 v -70 a 10 10 0 0 1 10 -10"></path><g class="terminal ">
<path d="M 411.5 89 h 0.0"></path><path d="M 465.5 89 h 0.0"></path><rect height="22" rx="10" ry="10" width="54.0" x="411.5" y="78"></rect><text x="438.5" y="93">"fv"</text></g><path d="M 391.5 179 h 20"></path><g class="terminal ">
<path d="M 411.5 179 h 0.0"></path><path d="M 474.0 179 h 0.0"></path><rect height="22" rx="10" ry="10" width="62.5" x="411.5" y="168"></rect><text x="442.75" y="183">"ndx"</text></g><path d="M 391.5 179 a 10 10 0 0 1 10 10 v 10 a 10 10 0 0 0 10 10"></path><g class="terminal ">
<path d="M 411.5 209 h 0.0"></path><path d="M 474.0 209 h 0.0"></path><rect height="22" rx="10" ry="10" width="62.5" x="411.5" y="198"></rect><text x="442.75" y="213">"ord"</text></g><path d="M 391.5 179 a 10 10 0 0 1 10 10 v 40 a 10 10 0 0 0 10 10"></path><g class="terminal ">
<path d="M 411.5 239 h 0.0"></path><path d="M 474.0 239 h 0.0"></path><rect height="22" rx="10" ry="10" width="62.5" x="411.5" y="228"></rect><text x="442.75" y="243">"png"</text></g><path d="M 391.5 179 a 10 10 0 0 1 10 10 v 70 a 10 10 0 0 0 10 10"></path><g class="terminal ">
<path d="M 411.5 269 h 0.0"></path><path d="M 465.5 269 h 0.0"></path><rect height="22" rx="10" ry="10" width="54.0" x="411.5" y="258"></rect><text x="438.5" y="273">"pn"</text></g><path d="M 391.5 179 a 10 10 0 0 1 10 10 v 100 a 10 10 0 0 0 10 10"></path><g class="terminal ">
<path d="M 411.5 299 h 0.0"></path><path d="M 474.0 299 h 0.0"></path><rect height="22" rx="10" ry="10" width="62.5" x="411.5" y="288"></rect><text x="442.75" y="303">"pro"</text></g><path d="M 391.5 179 a 10 10 0 0 1 10 10 v 130 a 10 10 0 0 0 10 10"></path><g class="terminal ">
<path d="M 411.5 329 h 0.0"></path><path d="M 465.5 329 h 0.0"></path><rect height="22" rx="10" ry="10" width="54.0" x="411.5" y="318"></rect><text x="438.5" y="333">"qt"</text></g></g><path d="M 494.0 60 a 10 10 0 0 1 10 10 v 99 a 10 10 0 0 0 10 10"></path><g>
<path d="M 514.0 179 h 0.0"></path><path d="M 514.0 179 a 10 10 0 0 0 10 -10 v -10 a 10 10 0 0 1 10 -10"></path><g class="terminal ">
<path d="M 534.0 149 h 0.0"></path><path d="M 596.5 149 h 0.0"></path><rect height="22" rx="10" ry="10" width="62.5" x="534.0" y="138"></rect><text x="565.25" y="153">"sls"</text></g><path d="M 514.0 179 a 10 10 0 0 0 10 -10 v -40 a 10 10 0 0 1 10 -10"></path><g class="terminal ">
<path d="M 534.0 119 h 0.0"></path><path d="M 596.5 119 h 0.0"></path><rect height="22" rx="10" ry="10" width="62.5" x="534.0" y="108"></rect><text x="565.25" y="123">"sig"</text></g><path d="M 514.0 179 a 10 10 0 0 0 10 -10 v -70 a 10 10 0 0 1 10 -10"></path><g class="terminal ">
<path d="M 534.0 89 h 0.0"></path><path d="M 588.0 89 h 0.0"></path><rect height="22" rx="10" ry="10" width="54.0" x="534.0" y="78"></rect><text x="561.0" y="93">"rq"</text></g><path d="M 514.0 179 h 20"></path><g class="terminal ">
<path d="M 534.0 179 h 0.0"></path><path d="M 588.0 179 h 0.0"></path><rect height="22" rx="10" ry="10" width="54.0" x="534.0" y="168"></rect><text x="561.0" y="183">"tl"</text></g><path d="M 514.0 179 a 10 10 0 0 1 10 10 v 10 a 10 10 0 0 0 10 10"></path><g class="terminal ">
<path d="M 534.0 209 h 0.0"></path><path d="M 588.0 209 h 0.0"></path><rect height="22" rx="10" ry="10" width="54.0" x="534.0" y="198"></rect><text x="561.0" y="213">"wg"</text></g><path d="M 514.0 179 a 10 10 0 0 1 10 10 v 40 a 10 10 0 0 0 10 10"></path><g class="terminal ">
<path d="M 534.0 239 h 0.0"></path><path d="M 588.0 239 h 0.0"></path><rect height="22" rx="10" ry="10" width="54.0" x="534.0" y="228"></rect><text x="561.0" y="243">"wh"</text></g><path d="M 514.0 179 a 10 10 0 0 1 10 10 v 70 a 10 10 0 0 0 10 10"></path><g class="terminal ">
<path d="M 534.0 269 h 0.0"></path><path d="M 588.0 269 h 0.0"></path><rect height="22" rx="10" ry="10" width="54.0" x="534.0" y="258"></rect><text x="561.0" y="273">"wa"</text></g><path d="M 514.0 179 a 10 10 0 0 1 10 10 v 100 a 10 10 0 0 0 10 10"></path><g class="terminal ">
<path d="M 534.0 299 h 0.0"></path><path d="M 588.0 299 h 0.0"></path><rect height="22" rx="10" ry="10" width="54.0" x="534.0" y="288"></rect><text x="561.0" y="303">"wj"</text></g><path d="M 514.0 179 a 10 10 0 0 1 10 10 v 130 a 10 10 0 0 0 10 10"></path><g class="terminal ">
<path d="M 534.0 329 h 0.0"></path><path d="M 596.5 329 h 0.0"></path><rect height="22" rx="10" ry="10" width="62.5" x="534.0" y="318"></rect><text x="565.25" y="333">"jmp"</text></g></g><path d="M 616.5 60 a 10 10 0 0 1 10 10 v 99 a 10 10 0 0 0 10 10"></path><g>
<path d="M 636.5 179 h 0.0"></path><path d="M 636.5 179 a 10 10 0 0 0 10 -10 v -10 a 10 10 0 0 1 10 -10"></path><g class="terminal ">
<path d="M 656.5 149 h 0.0"></path><path d="M 727.5 149 h 0.0"></path><rect height="22" rx="10" ry="10" width="71.0" x="656.5" y="138"></rect><text x="692.0" y="153">"bdit"</text></g><path d="M 636.5 179 a 10 10 0 0 0 10 -10 v -40 a 10 10 0 0 1 10 -10"></path><g class="terminal ">
<path d="M 656.5 119 h 0.0"></path><path d="M 710.5 119 h 0.0"></path><rect height="22" rx="10" ry="10" width="54.0" x="656.5" y="108"></rect><text x="683.5" y="123">"it"</text></g><path d="M 636.5 179 a 10 10 0 0 0 10 -10 v -70 a 10 10 0 0 1 10 -10"></path><g class="terminal ">
<path d="M 656.5 89 h 0.0"></path><path d="M 710.5 89 h 0.0"></path><rect height="22" rx="10" ry="10" width="54.0" x="656.5" y="78"></rect><text x="683.5" y="93">"no"</text></g><path d="M 636.5 179 h 20"></path><g class="terminal ">
<path d="M 656.5 179 h 0.0"></path><path d="M 710.5 179 h 0.0"></path><rect height="22" rx="10" ry="10" width="54.0" x="656.5" y="168"></rect><text x="683.5" y="183">"bd"</text></g><path d="M 636.5 179 a 10 10 0 0 1 10 10 v 10 a 10 10 0 0 0 10 10"></path><g class="terminal ">
<path d="M 656.5 209 h 0.0"></path><path d="M 710.5 209 h 0.0"></path><rect height="22" rx="10" ry="10" width="54.0" x="656.5" y="198"></rect><text x="683.5" y="213">"em"</text></g><path d="M 636.5 179 a 10 10 0 0 1 10 10 v 40 a 10 10 0 0 0 10 10"></path><g class="terminal ">
<path d="M 656.5 239 h 0.0"></path><path d="M 710.5 239 h 0.0"></path><rect height="22" rx="10" ry="10" width="54.0" x="656.5" y="228"></rect><text x="683.5" y="243">"sc"</text></g><path d="M 636.5 179 a 10 10 0 0 1 10 10 v 70 a 10 10 0 0 0 10 10"></path><g class="terminal ">
<path d="M 656.5 269 h 0.0"></path><path d="M 719.0 269 h 0.0"></path><rect height="22" rx="10" ry="10" width="62.5" x="656.5" y="258"></rect><text x="687.75" y="273">"sup"</text></g><path d="M 636.5 179 a 10 10 0 0 1 10 10 v 100 a 10 10 0 0 0 10 10"></path><g class="terminal ">
<path d="M 656.5 299 h 0.0"></path><path d="M 710.5 299 h 0.0"></path><rect height="22" rx="10" ry="10" width="54.0" x="656.5" y="288"></rect><text x="683.5" y="303">"xt"</text></g><path d="M 636.5 179 a 10 10 0 0 1 10 10 v 130 a 10 10 0 0 0 10 10"></path><g class="terminal ">
<path d="M 656.5 329 h 0.0"></path><path d="M 702.0 329 h 0.0"></path><rect height="22" rx="10" ry="10" width="45.5" x="656.5" y="318"></rect><text x="679.25" y="333">"w"</text></g></g><path d="M 747.5 60 a 10 10 0 0 1 10 10 v 99 a 10 10 0 0 0 10 10"></path><g>
<path d="M 767.5 179 h 0.0"></path><path d="M 767.5 179 h 20"></path><g class="terminal ">
<path d="M 787.5 179 h 0.0"></path><path d="M 841.5 179 h 0.0"></path><rect height="22" rx="10" ry="10" width="54.0" x="787.5" y="168"></rect><text x="814.5" y="183">"rb"</text></g><path d="M 767.5 179 a 10 10 0 0 1 10 10 v 10 a 10 10 0 0 0 10 10"></path><g class="terminal ">
<path d="M 787.5 209 h 0.0"></path><path d="M 841.5 209 h 0.0"></path><rect height="22" rx="10" ry="10" width="54.0" x="787.5" y="198"></rect><text x="814.5" y="213">"xt"</text></g></g></g></g><path d="M 141.0 387 a 10 10 0 0 0 10 -10 v -326 a 10 10 0 0 1 10 -10"></path><g>
<path d="M 161.0 41 h 0.0"></path><path d="M 272.0 41 h 0.0"></path><g class="terminal ">
<path d="M 161.0 41 h 0.0"></path><path d="M 198.0 41 h 0.0"></path><rect height="22" rx="10" ry="10" width="37.0" x="161.0" y="30"></rect><text x="179.5" y="45">@&#42;</text></g><path d="M 198.0 41 h 10"></path><path d="M 208.0 41 h 10"></path><g class="terminal ">
<path d="M 218.0 41 h 0.0"></path><path d="M 272.0 41 h 0.0"></path><rect height="22" rx="10" ry="10" width="54.0" x="218.0" y="30"></rect><text x="245.0" y="45">TEXT</text></g></g><path d="M 141.0 387 h 20"></path><g>
<path d="M 161.0 387 h 328.5"></path><path d="M 643.0 387 h 328.5"></path><g>
<path d="M 489.5 387 h 0.0"></path><path d="M 643.0 387 h 0.0"></path><path d="M 489.5 387 h 20"></path><g>
<path d="M 509.5 387 h 0.0"></path><path d="M 623.0 387 h 0.0"></path><g class="non-terminal ">
<path d="M 509.5 387 h 0.0"></path><path d="M 623.0 387 h 0.0"></path><rect height="22" width="113.5" x="509.5" y="376"></rect><text x="566.25" y="391">CharContent</text></g></g><path d="M 623.0 387 h 20"></path></g></g><path d="M 971.5 387 h 20"></path><path d="M 141.0 387 a 10 10 0 0 1 10 10 v 30 a 10 10 0 0 0 10 10"></path><g>
<path d="M 161.0 437 h 328.5"></path><path d="M 643.0 437 h 328.5"></path><g>
<path d="M 489.5 437 h 0.0"></path><path d="M 643.0 437 h 0.0"></path><path d="M 489.5 437 h 20"></path><g>
<path d="M 509.5 437 h 0.0"></path><path d="M 623.0 437 h 0.0"></path><g class="non-terminal ">
<path d="M 509.5 437 h 0.0"></path><path d="M 623.0 437 h 0.0"></path><rect height="22" width="113.5" x="509.5" y="426"></rect><text x="566.25" y="441">CharContent</text></g></g><path d="M 623.0 437 h 20"></path></g></g><path d="M 971.5 437 a 10 10 0 0 0 10 -10 v -30 a 10 10 0 0 1 10 -10"></path></g></g></g><path d="M 991.5 387 h 10"></path><path d="M 1001.5 387 h 20 m 0 -10 v 20"></path></g></svg>