<svg class="railroad-diagram" height="990" viewBox="0 0 1392.5 990" width="1392.5" xmlns="http://www.w3.org/2000/svg" xmlns:xlink="http://www.w3.org/1999/xlink">
<g transform="translate(.5 .5)">
<style>/* <![CDATA[ */

    svg.railroad-diagram {
        background-color: hsl(30,20%,95%);
    }
    svg.railroad-diagram path {
        stroke-width: 2;
        stroke: black;
        fill: none;
    }
    svg.railroad-diagram text {
        font-size: 12px;
        text-anchor: middle;
        font-family: DejaVu Sans;
    }
    svg.railroad-diagram text.label {
        text-anchor:start;
    }
    svg.railroad-diagram text.comment {
        font-family: DejaVu Sans;
        font-size: 14px;
    }
    svg.railroad-diagram rect{
        stroke-width: 2;
        stroke: black;
        fill: rgb(210, 255, 210);
    }
    svg.railroad-diagram rect.group-box {
        stroke: gray;
        stroke-dasharray: 10 5;
        fill: none;
    }
    .terminal {
        font-family: DejaVu Sans;
    }
    svg.railroad-diagram g.altterminal rect {
        fill: rgb(251, 252, 207)
    }

/* ]]> */
</style><g>
<path d="M 20 163 v 20 m 0 -10 h 20"></path></g><path d="M 40 173 h 10"></path><g>
<path d="M 50 173 h 0.0"></path><path d="M 1342.5 889 h 0.0"></path><g>
<path d="M 50.0 173 h 0.0"></path><path d="M 1342.5 889 h 0.0"></path><path d="M 50.0 173 h 20"></path><g>
<path d="M 70.0 173 h 0.0"></path><path d="M 70.0 173 h 10"></path><g>
<path d="M 80.0 173 h 281.5"></path><path d="M 1031.0 173 h 281.5"></path><g class="terminal ">
<path d="M 361.5 173 h 0.0"></path><path d="M 407.0 173 h 0.0"></path><rect height="22" rx="10" ry="10" width="45.5" x="361.5" y="162"></rect><text x="384.25" y="177">'\'</text></g><path d="M 407.0 173 h 10"></path><path d="M 417.0 173 h 10"></path><g>
<path d="M 427.0 173 h 0.0"></path><path d="M 900.0 173 h 0.0"></path><rect class="group-box" height="404" rx="10" ry="10" width="473.0" x="427.0" y="46"></rect><g>
<path d="M 427.0 173 h 10.0"></path><path d="M 890.0 173 h 10.0"></path><g>
<path d="M 437.0 173 h 0.0"></path><path d="M 890.0 173 h 0.0"></path><path d="M 437.0 173 a 10 10 0 0 0 10 -10 v -99 a 10 10 0 0 1 10 -10 h 272.0"></path><path d="M 606.5 442 h 263.5 a 10 10 0 0 0 10 -10 v -249 a 10 10 0 0 1 10 -10"></path><path d="M 437.0 173 h 10"></path><g>
<path d="M 447.0 173 h 10.0"></path><path d="M 576.5 173 h 10.0"></path><path d="M 457.0 173 a 10 10 0 0 0 10 -10 v -10 a 10 10 0 0 1 10 -10"></path><g class="terminal ">
<path d="M 477.0 143 h 12.75"></path><path d="M 543.75 143 h 12.75"></path><rect height="22" rx="10" ry="10" width="54.0" x="489.75" y="132"></rect><text x="516.75" y="147">"ca"</text></g><path d="M 556.5 143 a 10 10 0 0 1 10 10 v 10 a 10 10 0 0 0 10 10"></path><path d="M 457.0 173 a 10 10 0 0 0 10 -10 v -40 a 10 10 0 0 1 10 -10"></path><g class="terminal ">
<path d="M 477.0 113 h 12.75"></path><path d="M 543.75 113 h 12.75"></path><rect height="22" rx="10" ry="10" width="54.0" x="489.75" y="102"></rect><text x="516.75" y="117">"vp"</text></g><path d="M 556.5 113 a 10 10 0 0 1 10 10 v 40 a 10 10 0 0 0 10 10"></path><path d="M 457.0 173 a 10 10 0 0 0 10 -10 v -70 a 10 10 0 0 1 10 -10"></path><g class="terminal ">
<path d="M 477.0 83 h 12.75"></path><path d="M 543.75 83 h 12.75"></path><rect height="22" rx="10" ry="10" width="54.0" x="489.75" y="72"></rect><text x="516.75" y="87">"va"</text></g><path d="M 556.5 83 a 10 10 0 0 1 10 10 v 70 a 10 10 0 0 0 10 10"></path><path d="M 457.0 173 h 20"></path><g class="terminal ">
<path d="M 477.0 173 h 8.5"></path><path d="M 548.0 173 h 8.5"></path><rect height="22" rx="10" ry="10" width="62.5" x="485.5" y="162"></rect><text x="516.75" y="177">"qac"</text></g><path d="M 556.5 173 h 20"></path><path d="M 457.0 173 a 10 10 0 0 1 10 10 v 10 a 10 10 0 0 0 10 10"></path><g class="terminal ">
<path d="M 477.0 203 h 12.75"></path><path d="M 543.75 203 h 12.75"></path><rect height="22" rx="10" ry="10" width="54.0" x="489.75" y="192"></rect><text x="516.75" y="207">"qs"</text></g><path d="M 556.5 203 a 10 10 0 0 0 10 -10 v -10 a 10 10 0 0 1 10 -10"></path><path d="M 457.0 173 a 10 10 0 0 1 10 10 v 40 a 10 10 0 0 0 10 10"></path><g class="terminal ">
<path d="M 477.0 233 h 8.5"></path><path d="M 548.0 233 h 8.5"></path><rect height="22" rx="10" ry="10" width="62.5" x="485.5" y="222"></rect><text x="516.75" y="237">"add"</text></g><path d="M 556.5 233 a 10 10 0 0 0 10 -10 v -40 a 10 10 0 0 1 10 -10"></path><path d="M 457.0 173 a 10 10 0 0 1 10 10 v 70 a 10 10 0 0 0 10 10"></path><g class="terminal ">
<path d="M 477.0 263 h 0.0"></path><path d="M 556.5 263 h 0.0"></path><rect height="22" rx="10" ry="10" width="79.5" x="477.0" y="252"></rect><text x="516.75" y="267">"addpn"</text></g><path d="M 556.5 263 a 10 10 0 0 0 10 -10 v -70 a 10 10 0 0 1 10 -10"></path><path d="M 457.0 173 a 10 10 0 0 1 10 10 v 100 a 10 10 0 0 0 10 10"></path><g class="terminal ">
<path d="M 477.0 293 h 12.75"></path><path d="M 543.75 293 h 12.75"></path><rect height="22" rx="10" ry="10" width="54.0" x="489.75" y="282"></rect><text x="516.75" y="297">"bk"</text></g><path d="M 556.5 293 a 10 10 0 0 0 10 -10 v -100 a 10 10 0 0 1 10 -10"></path><path d="M 457.0 173 a 10 10 0 0 1 10 10 v 130 a 10 10 0 0 0 10 10"></path><g class="terminal ">
<path d="M 477.0 323 h 12.75"></path><path d="M 543.75 323 h 12.75"></path><rect height="22" rx="10" ry="10" width="54.0" x="489.75" y="312"></rect><text x="516.75" y="327">"dc"</text></g><path d="M 556.5 323 a 10 10 0 0 0 10 -10 v -130 a 10 10 0 0 1 10 -10"></path><path d="M 457.0 173 a 10 10 0 0 1 10 10 v 160 a 10 10 0 0 0 10 10"></path><g class="terminal ">
<path d="M 477.0 353 h 8.5"></path><path d="M 548.0 353 h 8.5"></path><rect height="22" rx="10" ry="10" width="62.5" x="485.5" y="342"></rect><text x="516.75" y="357">"efm"</text></g><path d="M 556.5 353 a 10 10 0 0 0 10 -10 v -160 a 10 10 0 0 1 10 -10"></path><path d="M 457.0 173 a 10 10 0 0 1 10 10 v 190 a 10 10 0 0 0 10 10"></path><g class="terminal ">
<path d="M 477.0 383 h 12.75"></path><path d="M 543.75 383 h 12.75"></path><rect height="22" rx="10" ry="10" width="54.0" x="489.75" y="372"></rect><text x="516.75" y="387">"fm"</text></g><path d="M 556.5 383 a 10 10 0 0 0 10 -10 v -190 a 10 10 0 0 1 10 -10"></path><path d="M 457.0 173 a 10 10 0 0 1 10 10 v 220 a 10 10 0 0 0 10 10"></path><g class="terminal ">
<path d="M 477.0 413 h 17.0"></path><path d="M 539.5 413 h 17.0"></path><rect height="22" rx="10" ry="10" width="45.5" x="494.0" y="402"></rect><text x="516.75" y="417">"k"</text></g><path d="M 556.5 413 a 10 10 0 0 0 10 -10 v -220 a 10 10 0 0 1 10 -10"></path></g><path d="M 586.5 173 a 10 10 0 0 1 10 10 v 249 a 10 10 0 0 0 10 10"></path><path d="M 586.5 54 a 10 10 0 0 1 10 10 v 99 a 10 10 0 0 0 10 10"></path><g>
<path d="M 606.5 173 h 10.0"></path><path d="M 719.0 173 h 10.0"></path><path d="M 616.5 173 a 10 10 0 0 0 10 -10 v -10 a 10 10 0 0 1 10 -10"></path><g class="terminal ">
<path d="M 636.5 143 h 0.0"></path><path d="M 699.0 143 h 0.0"></path><rect height="22" rx="10" ry="10" width="62.5" x="636.5" y="132"></rect><text x="667.75" y="147">"ord"</text></g><path d="M 699.0 143 a 10 10 0 0 1 10 10 v 10 a 10 10 0 0 0 10 10"></path><path d="M 616.5 173 a 10 10 0 0 0 10 -10 v -40 a 10 10 0 0 1 10 -10"></path><g class="terminal ">
<path d="M 636.5 113 h 0.0"></path><path d="M 699.0 113 h 0.0"></path><rect height="22" rx="10" ry="10" width="62.5" x="636.5" y="102"></rect><text x="667.75" y="117">"ndx"</text></g><path d="M 699.0 113 a 10 10 0 0 1 10 10 v 40 a 10 10 0 0 0 10 10"></path><path d="M 616.5 173 a 10 10 0 0 0 10 -10 v -70 a 10 10 0 0 1 10 -10"></path><g class="terminal ">
<path d="M 636.5 83 h 4.25"></path><path d="M 694.75 83 h 4.25"></path><rect height="22" rx="10" ry="10" width="54.0" x="640.75" y="72"></rect><text x="667.75" y="87">"nd"</text></g><path d="M 699.0 83 a 10 10 0 0 1 10 10 v 70 a 10 10 0 0 0 10 10"></path><path d="M 616.5 173 h 20"></path><g class="terminal ">
<path d="M 636.5 173 h 0.0"></path><path d="M 699.0 173 h 0.0"></path><rect height="22" rx="10" ry="10" width="62.5" x="636.5" y="162"></rect><text x="667.75" y="177">"png"</text></g><path d="M 699.0 173 h 20"></path><path d="M 616.5 173 a 10 10 0 0 1 10 10 v 10 a 10 10 0 0 0 10 10"></path><g class="terminal ">
<path d="M 636.5 203 h 4.25"></path><path d="M 694.75 203 h 4.25"></path><rect height="22" rx="10" ry="10" width="54.0" x="640.75" y="192"></rect><text x="667.75" y="207">"pn"</text></g><path d="M 699.0 203 a 10 10 0 0 0 10 -10 v -10 a 10 10 0 0 1 10 -10"></path><path d="M 616.5 173 a 10 10 0 0 1 10 10 v 40 a 10 10 0 0 0 10 10"></path><g class="terminal ">
<path d="M 636.5 233 h 0.0"></path><path d="M 699.0 233 h 0.0"></path><rect height="22" rx="10" ry="10" width="62.5" x="636.5" y="222"></rect><text x="667.75" y="237">"pro"</text></g><path d="M 699.0 233 a 10 10 0 0 0 10 -10 v -40 a 10 10 0 0 1 10 -10"></path><path d="M 616.5 173 a 10 10 0 0 1 10 10 v 70 a 10 10 0 0 0 10 10"></path><g class="terminal ">
<path d="M 636.5 263 h 4.25"></path><path d="M 694.75 263 h 4.25"></path><rect height="22" rx="10" ry="10" width="54.0" x="640.75" y="252"></rect><text x="667.75" y="267">"qt"</text></g><path d="M 699.0 263 a 10 10 0 0 0 10 -10 v -70 a 10 10 0 0 1 10 -10"></path><path d="M 616.5 173 a 10 10 0 0 1 10 10 v 100 a 10 10 0 0 0 10 10"></path><g class="terminal ">
<path d="M 636.5 293 h 4.25"></path><path d="M 694.75 293 h 4.25"></path><rect height="22" rx="10" ry="10" width="54.0" x="640.75" y="282"></rect><text x="667.75" y="297">"rq"</text></g><path d="M 699.0 293 a 10 10 0 0 0 10 -10 v -100 a 10 10 0 0 1 10 -10"></path><path d="M 616.5 173 a 10 10 0 0 1 10 10 v 130 a 10 10 0 0 0 10 10"></path><g class="terminal ">
<path d="M 636.5 323 h 0.0"></path><path d="M 699.0 323 h 0.0"></path><rect height="22" rx="10" ry="10" width="62.5" x="636.5" y="312"></rect><text x="667.75" y="327">"sig"</text></g><path d="M 699.0 323 a 10 10 0 0 0 10 -10 v -130 a 10 10 0 0 1 10 -10"></path><path d="M 616.5 173 a 10 10 0 0 1 10 10 v 160 a 10 10 0 0 0 10 10"></path><g class="terminal ">
<path d="M 636.5 353 h 0.0"></path><path d="M 699.0 353 h 0.0"></path><rect height="22" rx="10" ry="10" width="62.5" x="636.5" y="342"></rect><text x="667.75" y="357">"sls"</text></g><path d="M 699.0 353 a 10 10 0 0 0 10 -10 v -160 a 10 10 0 0 1 10 -10"></path><path d="M 616.5 173 a 10 10 0 0 1 10 10 v 190 a 10 10 0 0 0 10 10"></path><g class="terminal ">
<path d="M 636.5 383 h 4.25"></path><path d="M 694.75 383 h 4.25"></path><rect height="22" rx="10" ry="10" width="54.0" x="640.75" y="372"></rect><text x="667.75" y="387">"tl"</text></g><path d="M 699.0 383 a 10 10 0 0 0 10 -10 v -190 a 10 10 0 0 1 10 -10"></path><path d="M 616.5 173 a 10 10 0 0 1 10 10 v 220 a 10 10 0 0 0 10 10"></path><g class="terminal ">
<path d="M 636.5 413 h 4.25"></path><path d="M 694.75 413 h 4.25"></path><rect height="22" rx="10" ry="10" width="54.0" x="640.75" y="402"></rect><text x="667.75" y="417">"wg"</text></g><path d="M 699.0 413 a 10 10 0 0 0 10 -10 v -220 a 10 10 0 0 1 10 -10"></path></g><path d="M 729.0 173 a 10 10 0 0 1 10 10 v 249 a 10 10 0 0 0 10 10"></path><path d="M 729.0 54 a 10 10 0 0 1 10 10 v 99 a 10 10 0 0 0 10 10"></path><g>
<path d="M 749.0 173 h 10.0"></path><path d="M 870.0 173 h 10.0"></path><path d="M 759.0 173 a 10 10 0 0 0 10 -10 v -10 a 10 10 0 0 1 10 -10"></path><g class="terminal ">
<path d="M 779.0 143 h 8.5"></path><path d="M 841.5 143 h 8.5"></path><rect height="22" rx="10" ry="10" width="54.0" x="787.5" y="132"></rect><text x="814.5" y="147">"wj"</text></g><path d="M 850.0 143 a 10 10 0 0 1 10 10 v 10 a 10 10 0 0 0 10 10"></path><path d="M 759.0 173 a 10 10 0 0 0 10 -10 v -40 a 10 10 0 0 1 10 -10"></path><g class="terminal ">
<path d="M 779.0 113 h 8.5"></path><path d="M 841.5 113 h 8.5"></path><rect height="22" rx="10" ry="10" width="54.0" x="787.5" y="102"></rect><text x="814.5" y="117">"wa"</text></g><path d="M 850.0 113 a 10 10 0 0 1 10 10 v 40 a 10 10 0 0 0 10 10"></path><path d="M 759.0 173 a 10 10 0 0 0 10 -10 v -70 a 10 10 0 0 1 10 -10"></path><g class="terminal ">
<path d="M 779.0 83 h 8.5"></path><path d="M 841.5 83 h 8.5"></path><rect height="22" rx="10" ry="10" width="54.0" x="787.5" y="72"></rect><text x="814.5" y="87">"wh"</text></g><path d="M 850.0 83 a 10 10 0 0 1 10 10 v 70 a 10 10 0 0 0 10 10"></path><path d="M 759.0 173 h 20"></path><g class="terminal ">
<path d="M 779.0 173 h 8.5"></path><path d="M 841.5 173 h 8.5"></path><rect height="22" rx="10" ry="10" width="54.0" x="787.5" y="162"></rect><text x="814.5" y="177">"xt"</text></g><path d="M 850.0 173 h 20"></path><path d="M 759.0 173 a 10 10 0 0 1 10 10 v 10 a 10 10 0 0 0 10 10"></path><g class="terminal ">
<path d="M 779.0 203 h 4.25"></path><path d="M 845.75 203 h 4.25"></path><rect height="22" rx="10" ry="10" width="62.5" x="783.25" y="192"></rect><text x="814.5" y="207">"jmp"</text></g><path d="M 850.0 203 a 10 10 0 0 0 10 -10 v -10 a 10 10 0 0 1 10 -10"></path><path d="M 759.0 173 a 10 10 0 0 1 10 10 v 40 a 10 10 0 0 0 10 10"></path><g class="terminal ">
<path d="M 779.0 233 h 8.5"></path><path d="M 841.5 233 h 8.5"></path><rect height="22" rx="10" ry="10" width="54.0" x="787.5" y="222"></rect><text x="814.5" y="237">"no"</text></g><path d="M 850.0 233 a 10 10 0 0 0 10 -10 v -40 a 10 10 0 0 1 10 -10"></path><path d="M 759.0 173 a 10 10 0 0 1 10 10 v 70 a 10 10 0 0 0 10 10"></path><g class="terminal ">
<path d="M 779.0 263 h 8.5"></path><path d="M 841.5 263 h 8.5"></path><rect height="22" rx="10" ry="10" width="54.0" x="787.5" y="252"></rect><text x="814.5" y="267">"it"</text></g><path d="M 850.0 263 a 10 10 0 0 0 10 -10 v -70 a 10 10 0 0 1 10 -10"></path><path d="M 759.0 173 a 10 10 0 0 1 10 10 v 100 a 10 10 0 0 0 10 10"></path><g class="terminal ">
<path d="M 779.0 293 h 0.0"></path><path d="M 850.0 293 h 0.0"></path><rect height="22" rx="10" ry="10" width="71.0" x="779.0" y="282"></rect><text x="814.5" y="297">"bdit"</text></g><path d="M 850.0 293 a 10 10 0 0 0 10 -10 v -100 a 10 10 0 0 1 10 -10"></path><path d="M 759.0 173 a 10 10 0 0 1 10 10 v 130 a 10 10 0 0 0 10 10"></path><g class="terminal ">
<path d="M 779.0 323 h 8.5"></path><path d="M 841.5 323 h 8.5"></path><rect height="22" rx="10" ry="10" width="54.0" x="787.5" y="312"></rect><text x="814.5" y="327">"bd"</text></g><path d="M 850.0 323 a 10 10 0 0 0 10 -10 v -130 a 10 10 0 0 1 10 -10"></path><path d="M 759.0 173 a 10 10 0 0 1 10 10 v 160 a 10 10 0 0 0 10 10"></path><g class="terminal ">
<path d="M 779.0 353 h 8.5"></path><path d="M 841.5 353 h 8.5"></path><rect height="22" rx="10" ry="10" width="54.0" x="787.5" y="342"></rect><text x="814.5" y="357">"em"</text></g><path d="M 850.0 353 a 10 10 0 0 0 10 -10 v -160 a 10 10 0 0 1 10 -10"></path><path d="M 759.0 173 a 10 10 0 0 1 10 10 v 190 a 10 10 0 0 0 10 10"></path><g class="terminal ">
<path d="M 779.0 383 h 8.5"></path><path d="M 841.5 383 h 8.5"></path><rect height="22" rx="10" ry="10" width="54.0" x="787.5" y="372"></rect><text x="814.5" y="387">"sc"</text></g><path d="M 850.0 383 a 10 10 0 0 0 10 -10 v -190 a 10 10 0 0 1 10 -10"></path><path d="M 759.0 173 a 10 10 0 0 1 10 10 v 220 a 10 10 0 0 0 10 10"></path><g class="terminal ">
<path d="M 779.0 413 h 4.25"></path><path d="M 845.75 413 h 4.25"></path><rect height="22" rx="10" ry="10" width="62.5" x="783.25" y="402"></rect><text x="814.5" y="417">"sup"</text></g><path d="M 850.0 413 a 10 10 0 0 0 10 -10 v -220 a 10 10 0 0 1 10 -10"></path></g><path d="M 880.0 173 h 10"></path></g></g><g class="non-terminal ">
<path d="M 427.0 38 h 0.0"></path><path d="M 444.0 38 h 0.0"></path><text class="comment" x="435.5" y="43">➋</text></g></g><path d="M 900.0 173 h 10"></path><path d="M 910.0 173 h 10"></path><g>
<path d="M 920.0 173 h 0.0"></path><path d="M 1031.0 173 h 0.0"></path><path d="M 920.0 173 h 20"></path><g class="terminal ">
<path d="M 940.0 173 h 12.75"></path><path d="M 998.25 173 h 12.75"></path><rect height="22" rx="10" ry="10" width="45.5" x="952.75" y="162"></rect><text x="975.5" y="177">' '</text></g><path d="M 1011.0 173 h 20"></path><path d="M 920.0 173 a 10 10 0 0 1 10 10 v 10 a 10 10 0 0 0 10 10"></path><g class="terminal altterminal">
<path d="M 940.0 203 h 0.0"></path><path d="M 1011.0 203 h 0.0"></path><rect height="22" rx="10" ry="10" width="71.0" x="940.0" y="192"></rect><text x="975.5" y="207">TAGEND</text></g><path d="M 1011.0 203 a 10 10 0 0 0 10 -10 v -10 a 10 10 0 0 1 10 -10"></path></g></g><path d="M 1312.5 173 a 10 10 0 0 1 10 10 v 265 a 10 10 0 0 1 -10 10 h -1232.5 a 10 10 0 0 0 -10 10 v 0 a 10 10 0 0 0 10 10"></path><g>
<path d="M 80.0 478 h 548.0"></path><path d="M 764.5 478 h 548.0"></path><path d="M 628.0 478 h 20"></path><g>
<path d="M 648.0 478 h 96.5"></path></g><path d="M 744.5 478 h 20"></path><path d="M 628.0 478 a 10 10 0 0 1 10 10 v 0 a 10 10 0 0 0 10 10"></path><g class="non-terminal ">
<path d="M 648.0 498 h 0.0"></path><path d="M 744.5 498 h 0.0"></path><rect height="22" width="96.5" x="648.0" y="487"></rect><text x="696.25" y="502">char.link</text></g><path d="M 744.5 498 a 10 10 0 0 0 10 -10 v 0 a 10 10 0 0 1 10 -10"></path></g><path d="M 1312.5 478 a 10 10 0 0 1 10 10 v 29 a 10 10 0 0 1 -10 10 h -1232.5 a 10 10 0 0 0 -10 10 v 9 a 10 10 0 0 0 10 10"></path><g>
<path d="M 80.0 556 h 458.5"></path><path d="M 854.0 556 h 458.5"></path><path d="M 538.5 556 h 10"></path><g>
<path d="M 548.5 556 h 0.0"></path><path d="M 844.0 556 h 0.0"></path><path d="M 548.5 556 h 20"></path><g class="non-terminal ">
<path d="M 568.5 556 h 79.5"></path><path d="M 744.5 556 h 79.5"></path><rect height="22" width="96.5" x="648.0" y="545"></rect><text x="696.25" y="560">CharEmbed</text></g><path d="M 824.0 556 h 20"></path><path d="M 548.5 556 a 10 10 0 0 1 10 10 v 10 a 10 10 0 0 0 10 10"></path><g class="non-terminal ">
<path d="M 568.5 586 h 79.5"></path><path d="M 744.5 586 h 79.5"></path><rect height="22" width="96.5" x="648.0" y="575"></rect><text x="696.25" y="590">Milestone</text></g><path d="M 824.0 586 a 10 10 0 0 0 10 -10 v -10 a 10 10 0 0 1 10 -10"></path><path d="M 548.5 556 a 10 10 0 0 1 10 10 v 40 a 10 10 0 0 0 10 10"></path><g class="non-terminal ">
<path d="M 568.5 616 h 83.75"></path><path d="M 740.25 616 h 83.75"></path><rect height="22" width="88.0" x="652.25" y="605"></rect><text x="696.25" y="620">Footnote</text></g><path d="M 824.0 616 a 10 10 0 0 0 10 -10 v -40 a 10 10 0 0 1 10 -10"></path><path d="M 548.5 556 a 10 10 0 0 1 10 10 v 70 a 10 10 0 0 0 10 10"></path><g class="non-terminal ">
<path d="M 568.5 646 h 58.25"></path><path d="M 765.75 646 h 58.25"></path><rect height="22" width="139.0" x="626.75" y="635"></rect><text x="696.25" y="650">CrossReference</text></g><path d="M 824.0 646 a 10 10 0 0 0 10 -10 v -70 a 10 10 0 0 1 10 -10"></path><path d="M 548.5 556 a 10 10 0 0 1 10 10 v 100 a 10 10 0 0 0 10 10"></path><g>
<path d="M 568.5 676 h 100.75"></path><path d="M 723.25 676 h 100.75"></path><g class="terminal ">
<path d="M 669.25 676 h 0.0"></path><path d="M 723.25 676 h 0.0"></path><rect height="22" rx="10" ry="10" width="54.0" x="669.25" y="665"></rect><text x="696.25" y="680">'//'</text></g></g><path d="M 824.0 676 a 10 10 0 0 0 10 -10 v -100 a 10 10 0 0 1 10 -10"></path><path d="M 548.5 556 a 10 10 0 0 1 10 10 v 130 a 10 10 0 0 0 10 10"></path><g>
<path d="M 568.5 706 h 0.0"></path><path d="M 824.0 706 h 0.0"></path><g class="terminal ">
<path d="M 568.5 706 h 0.0"></path><path d="M 673.5 706 h 0.0"></path><rect height="22" rx="10" ry="10" width="105.0" x="568.5" y="695"></rect><text x="621.0" y="710">TEXTATTRIB</text></g><path d="M 673.5 706 h 10"></path><path d="M 683.5 706 h 10"></path><g class="terminal ">
<path d="M 693.5 706 h 0.0"></path><path d="M 824.0 706 h 0.0"></path><rect height="22" rx="10" ry="10" width="130.5" x="693.5" y="695"></rect><text x="758.75" y="710">ATTRIBTEXTEND</text></g></g><path d="M 824.0 706 a 10 10 0 0 0 10 -10 v -130 a 10 10 0 0 1 10 -10"></path></g><path d="M 844.0 556 h 10"></path><path d="M 548.5 556 a 10 10 0 0 0 -10 10 v 159 a 10 10 0 0 0 10 10"></path><g>
<path d="M 548.5 735 h 295.5"></path></g><path d="M 844.0 735 a 10 10 0 0 0 10 -10 v -159 a 10 10 0 0 0 -10 -10"></path></g><path d="M 1312.5 556 a 10 10 0 0 1 10 10 v 167 a 10 10 0 0 1 -10 10 h -1232.5 a 10 10 0 0 0 -10 10 v 0 a 10 10 0 0 0 10 10"></path><g>
<path d="M 80.0 763 h 10.0"></path><path d="M 1302.5 763 h 10.0"></path><path d="M 90.0 763 h 20"></path><g>
<path d="M 110.0 763 h 1172.5"></path></g><path d="M 1282.5 763 h 20"></path><path d="M 90.0 763 a 10 10 0 0 1 10 10 v 9 a 10 10 0 0 0 10 10"></path><g>
<path d="M 110.0 792 h 0.0"></path><path d="M 1282.5 792 h 0.0"></path><g>
<path d="M 110.0 792 h 0.0"></path><path d="M 204.0 792 h 0.0"></path><path d="M 110.0 792 h 20"></path><g class="terminal ">
<path d="M 130.0 792 h 4.25"></path><path d="M 179.75 792 h 4.25"></path><rect height="22" rx="10" ry="10" width="45.5" x="134.25" y="781"></rect><text x="157.0" y="796">'|'</text></g><path d="M 184.0 792 h 20"></path><path d="M 110.0 792 a 10 10 0 0 1 10 10 v 10 a 10 10 0 0 0 10 10"></path><g class="terminal altterminal">
<path d="M 130.0 822 h 0.0"></path><path d="M 184.0 822 h 0.0"></path><rect height="22" rx="10" ry="10" width="54.0" x="130.0" y="811"></rect><text x="157.0" y="826">PIPE</text></g><path d="M 184.0 822 a 10 10 0 0 0 10 -10 v -10 a 10 10 0 0 1 10 -10"></path></g><path d="M 204.0 792 h 10"></path><path d="M 214.0 792 h 10"></path><g>
<path d="M 224.0 792 h 0.0"></path><path d="M 1282.5 792 h 0.0"></path><path d="M 224.0 792 h 10"></path><g>
<path d="M 234.0 792 h 0.0"></path><path d="M 1272.5 792 h 0.0"></path><g>
<path d="M 234.0 792 h 0.0"></path><path d="M 1272.5 792 h 0.0"></path><path d="M 234.0 792 h 20"></path><g class="terminal ">
<path d="M 254.0 792 h 417.0"></path><path d="M 835.5 792 h 417.0"></path><rect height="22" rx="10" ry="10" width="164.5" x="671.0" y="781"></rect><text x="753.25" y="796">/&#91;^\\\n=&#93;+(?=\\)/</text></g><path d="M 1252.5 792 h 20"></path><path d="M 234.0 792 a 10 10 0 0 1 10 10 v 10 a 10 10 0 0 0 10 10"></path><g>
<path d="M 254.0 822 h 0.0"></path><path d="M 1252.5 822 h 0.0"></path><g class="terminal ">
<path d="M 254.0 822 h 0.0"></path><path d="M 376.0 822 h 0.0"></path><rect height="22" rx="10" ry="10" width="122.0" x="254.0" y="811"></rect><text x="315.0" y="826">/&#91;^\\\n="&#93;+/</text></g><path d="M 376.0 822 h 10"></path><path d="M 386.0 822 h 10"></path><g class="terminal ">
<path d="M 396.0 822 h 0.0"></path><path d="M 450.0 822 h 0.0"></path><rect height="22" rx="10" ry="10" width="54.0" x="396.0" y="811"></rect><text x="423.0" y="826">'="'</text></g><path d="M 450.0 822 h 10"></path><path d="M 460.0 822 h 10"></path><g class="terminal ">
<path d="M 470.0 822 h 0.0"></path><path d="M 583.5 822 h 0.0"></path><rect height="22" rx="10" ry="10" width="113.5" x="470.0" y="811"></rect><text x="526.75" y="826">/&#91;^\\\n"&#93;&#42;/</text></g><path d="M 583.5 822 h 10"></path><path d="M 593.5 822 h 10"></path><g class="terminal ">
<path d="M 603.5 822 h 0.0"></path><path d="M 1252.5 822 h 0.0"></path><rect height="22" rx="10" ry="10" width="649.0" x="603.5" y="811"></rect><text x="928.0" y="826">/"&#91;\u0009-\u000D\u0020\u00A0\u1680\u2000-\u200B\u2028\u2029\u202F\u205F&#93;&#42;/</text></g></g><path d="M 1252.5 822 a 10 10 0 0 0 10 -10 v -10 a 10 10 0 0 1 10 -10"></path></g></g><path d="M 1272.5 792 h 10"></path><path d="M 234.0 792 a 10 10 0 0 0 -10 10 v 39 a 10 10 0 0 0 10 10"></path><g>
<path d="M 234.0 851 h 1038.5"></path></g><path d="M 1272.5 851 a 10 10 0 0 0 10 -10 v -39 a 10 10 0 0 0 -10 -10"></path></g></g><path d="M 1282.5 792 a 10 10 0 0 0 10 -10 v -9 a 10 10 0 0 1 10 -10"></path></g><path d="M 1312.5 763 a 10 10 0 0 1 10 10 v 86 a 10 10 0 0 1 -10 10 h -1232.5 a 10 10 0 0 0 -10 10 v 0 a 10 10 0 0 0 10 10"></path><g>
<path d="M 80.0 889 h 528.0"></path><path d="M 784.5 889 h 528.0"></path><g class="terminal ">
<path d="M 608.0 889 h 0.0"></path><path d="M 653.5 889 h 0.0"></path><rect height="22" rx="10" ry="10" width="45.5" x="608.0" y="878"></rect><text x="630.75" y="893">'\'</text></g><path d="M 653.5 889 h 10"></path><path d="M 663.5 889 h 10"></path><g class="terminal ">
<path d="M 673.5 889 h 0.0"></path><path d="M 719.0 889 h 0.0"></path><rect height="22" rx="10" ry="10" width="45.5" x="673.5" y="878"></rect><text x="696.25" y="893">⇐ ➔</text></g><path d="M 719.0 889 h 10"></path><path d="M 729.0 889 h 10"></path><g class="terminal ">
<path d="M 739.0 889 h 0.0"></path><path d="M 784.5 889 h 0.0"></path><rect height="22" rx="10" ry="10" width="45.5" x="739.0" y="878"></rect><text x="761.75" y="893">'&#42;'</text></g></g><path d="M 1312.5 889 h 10"></path><path d="M 1322.5 889 h 0.0"></path></g><path d="M 1322.5 889 h 20"></path><path d="M 50.0 173 a 10 10 0 0 1 10 10 v 726 a 10 10 0 0 0 10 10"></path><g class="non-terminal ">
<path d="M 70.0 919 h 556.75"></path><path d="M 765.75 919 h 556.75"></path><rect height="22" width="139.0" x="626.75" y="908"></rect><text x="696.25" y="923">CharWithAttrib</text></g><path d="M 1322.5 919 a 10 10 0 0 0 10 -10 v -10 a 10 10 0 0 1 10 -10"></path><path d="M 50.0 173 a 10 10 0 0 1 10 10 v 756 a 10 10 0 0 0 10 10"></path><g class="non-terminal ">
<path d="M 70.0 949 h 590.75"></path><path d="M 731.75 949 h 590.75"></path><rect height="22" width="71.0" x="660.75" y="938"></rect><text x="696.25" y="953">Figure</text></g><path d="M 1322.5 949 a 10 10 0 0 0 10 -10 v -40 a 10 10 0 0 1 10 -10"></path></g></g><path d="M 1342.5 889 h 10"></path><path d="M 1352.5 889 h 20 m 0 -10 v 20"></path></g></svg>