<svg class="railroad-diagram" height="378" viewBox="0 0 960.0 378" width="960.0" xmlns="http://www.w3.org/2000/svg" xmlns:xlink="http://www.w3.org/1999/xlink">
<g transform="translate(.5 .5)">
<style>/* <![CDATA[ */
    svg.railroad-diagram {
        background-color:hsl(30,20%,95%);
    }
    svg.railroad-diagram path {
        stroke-width: 2;
        stroke: black;
        fill: none;
    }
    svg.railroad-diagram text {
        font-size: 12px;
        text-anchor: middle;
        font-family: DejaVu Sans;
    }
    svg.railroad-diagram text.label {
        text-anchor:start;
    }
    svg.railroad-diagram text.comment {
        font-family: DejaVu Sans;
        font-size: 14px;
    }
    svg.railroad-diagram rect{
        stroke-width: 2;
        stroke:black;
        fill: rgb(210, 210, 255);
    }
    svg.railroad-diagram rect.group-box {
        stroke: gray;
        stroke-dasharray: 10 5;
        fill: none;
    }
    .terminal {
        font-family: DejaVu Sans;
    }

/* ]]> */
</style><g>
<path d="M 20 277 v 20 m 0 -10 h 20"></path></g><g>
<path d="M 40 287 h 0.0"></path><path d="M 920.0 287 h 0.0"></path><path d="M 40.0 287 h 20"></path><g>
<path d="M 60.0 287 h 0.0"></path><path d="M 900.0 287 h 0.0"></path><g class="terminal ">
<path d="M 60.0 287 h 0.0"></path><path d="M 131.0 287 h 0.0"></path><rect height="22" rx="10" ry="10" width="71.0" x="60.0" y="276"></rect><text x="95.5" y="291">&#60;char></text></g><path d="M 131.0 287 h 10"></path><g>
<path d="M 141.0 287 h 0.0"></path><path d="M 900.0 287 h 0.0"></path><path d="M 141.0 287 a 10 10 0 0 0 10 -10 v -138 a 10 10 0 0 1 10 -10"></path><g>
<path d="M 161.0 129 h 0.0"></path><path d="M 880.0 129 h 0.0"></path><g class="terminal ">
<path d="M 161.0 129 h 0.0"></path><path d="M 232.0 129 h 0.0"></path><rect height="22" rx="10" ry="10" width="71.0" x="161.0" y="118"></rect><text x="196.5" y="133">@style</text></g><path d="M 232.0 129 h 10"></path><g>
<path d="M 242.0 129 h 0.0"></path><path d="M 880.0 129 h 0.0"></path><path d="M 242.0 129 a 10 10 0 0 0 10 -10 v -89 a 10 10 0 0 1 10 -10 h 477.0"></path><path d="M 391.5 268 h 468.5 a 10 10 0 0 0 10 -10 v -119 a 10 10 0 0 1 10 -10"></path><path d="M 242.0 129 h 10"></path><g>
<path d="M 252.0 129 h 0.0"></path><path d="M 371.5 129 h 0.0"></path><path d="M 252.0 129 a 10 10 0 0 0 10 -10 v -10 a 10 10 0 0 1 10 -10"></path><g class="terminal ">
<path d="M 272.0 99 h 12.75"></path><path d="M 338.75 99 h 12.75"></path><rect height="22" rx="10" ry="10" width="54.0" x="284.75" y="88"></rect><text x="311.75" y="103">"ca"</text></g><path d="M 351.5 99 a 10 10 0 0 1 10 10 v 10 a 10 10 0 0 0 10 10"></path><path d="M 252.0 129 a 10 10 0 0 0 10 -10 v -40 a 10 10 0 0 1 10 -10"></path><g class="terminal ">
<path d="M 272.0 69 h 12.75"></path><path d="M 338.75 69 h 12.75"></path><rect height="22" rx="10" ry="10" width="54.0" x="284.75" y="58"></rect><text x="311.75" y="73">"vp"</text></g><path d="M 351.5 69 a 10 10 0 0 1 10 10 v 40 a 10 10 0 0 0 10 10"></path><path d="M 252.0 129 a 10 10 0 0 0 10 -10 v -70 a 10 10 0 0 1 10 -10"></path><g class="terminal ">
<path d="M 272.0 39 h 12.75"></path><path d="M 338.75 39 h 12.75"></path><rect height="22" rx="10" ry="10" width="54.0" x="284.75" y="28"></rect><text x="311.75" y="43">"va"</text></g><path d="M 351.5 39 a 10 10 0 0 1 10 10 v 70 a 10 10 0 0 0 10 10"></path><path d="M 252.0 129 h 20"></path><g class="terminal ">
<path d="M 272.0 129 h 8.5"></path><path d="M 343.0 129 h 8.5"></path><rect height="22" rx="10" ry="10" width="62.5" x="280.5" y="118"></rect><text x="311.75" y="133">"qac"</text></g><path d="M 351.5 129 h 20"></path><path d="M 252.0 129 a 10 10 0 0 1 10 10 v 10 a 10 10 0 0 0 10 10"></path><g class="terminal ">
<path d="M 272.0 159 h 12.75"></path><path d="M 338.75 159 h 12.75"></path><rect height="22" rx="10" ry="10" width="54.0" x="284.75" y="148"></rect><text x="311.75" y="163">"qs"</text></g><path d="M 351.5 159 a 10 10 0 0 0 10 -10 v -10 a 10 10 0 0 1 10 -10"></path><path d="M 252.0 129 a 10 10 0 0 1 10 10 v 40 a 10 10 0 0 0 10 10"></path><g class="terminal ">
<path d="M 272.0 189 h 8.5"></path><path d="M 343.0 189 h 8.5"></path><rect height="22" rx="10" ry="10" width="62.5" x="280.5" y="178"></rect><text x="311.75" y="193">"add"</text></g><path d="M 351.5 189 a 10 10 0 0 0 10 -10 v -40 a 10 10 0 0 1 10 -10"></path><path d="M 252.0 129 a 10 10 0 0 1 10 10 v 70 a 10 10 0 0 0 10 10"></path><g class="terminal ">
<path d="M 272.0 219 h 0.0"></path><path d="M 351.5 219 h 0.0"></path><rect height="22" rx="10" ry="10" width="79.5" x="272.0" y="208"></rect><text x="311.75" y="223">"addpn"</text></g><path d="M 351.5 219 a 10 10 0 0 0 10 -10 v -70 a 10 10 0 0 1 10 -10"></path><path d="M 252.0 129 a 10 10 0 0 1 10 10 v 100 a 10 10 0 0 0 10 10"></path><g class="terminal ">
<path d="M 272.0 249 h 12.75"></path><path d="M 338.75 249 h 12.75"></path><rect height="22" rx="10" ry="10" width="54.0" x="284.75" y="238"></rect><text x="311.75" y="253">"bk"</text></g><path d="M 351.5 249 a 10 10 0 0 0 10 -10 v -100 a 10 10 0 0 1 10 -10"></path></g><path d="M 371.5 129 a 10 10 0 0 1 10 10 v 119 a 10 10 0 0 0 10 10"></path><path d="M 371.5 20 a 10 10 0 0 1 10 10 v 89 a 10 10 0 0 0 10 10"></path><g>
<path d="M 391.5 129 h 0.0"></path><path d="M 494.0 129 h 0.0"></path><path d="M 391.5 129 a 10 10 0 0 0 10 -10 v -10 a 10 10 0 0 1 10 -10"></path><g class="terminal ">
<path d="M 411.5 99 h 4.25"></path><path d="M 469.75 99 h 4.25"></path><rect height="22" rx="10" ry="10" width="54.0" x="415.75" y="88"></rect><text x="442.75" y="103">"fm"</text></g><path d="M 474.0 99 a 10 10 0 0 1 10 10 v 10 a 10 10 0 0 0 10 10"></path><path d="M 391.5 129 a 10 10 0 0 0 10 -10 v -40 a 10 10 0 0 1 10 -10"></path><g class="terminal ">
<path d="M 411.5 69 h 0.0"></path><path d="M 474.0 69 h 0.0"></path><rect height="22" rx="10" ry="10" width="62.5" x="411.5" y="58"></rect><text x="442.75" y="73">"efm"</text></g><path d="M 474.0 69 a 10 10 0 0 1 10 10 v 40 a 10 10 0 0 0 10 10"></path><path d="M 391.5 129 a 10 10 0 0 0 10 -10 v -70 a 10 10 0 0 1 10 -10"></path><g class="terminal ">
<path d="M 411.5 39 h 4.25"></path><path d="M 469.75 39 h 4.25"></path><rect height="22" rx="10" ry="10" width="54.0" x="415.75" y="28"></rect><text x="442.75" y="43">"dc"</text></g><path d="M 474.0 39 a 10 10 0 0 1 10 10 v 70 a 10 10 0 0 0 10 10"></path><path d="M 391.5 129 h 20"></path><g class="terminal ">
<path d="M 411.5 129 h 8.5"></path><path d="M 465.5 129 h 8.5"></path><rect height="22" rx="10" ry="10" width="45.5" x="420.0" y="118"></rect><text x="442.75" y="133">"k"</text></g><path d="M 474.0 129 h 20"></path><path d="M 391.5 129 a 10 10 0 0 1 10 10 v 10 a 10 10 0 0 0 10 10"></path><g class="terminal ">
<path d="M 411.5 159 h 4.25"></path><path d="M 469.75 159 h 4.25"></path><rect height="22" rx="10" ry="10" width="54.0" x="415.75" y="148"></rect><text x="442.75" y="163">"nd"</text></g><path d="M 474.0 159 a 10 10 0 0 0 10 -10 v -10 a 10 10 0 0 1 10 -10"></path><path d="M 391.5 129 a 10 10 0 0 1 10 10 v 40 a 10 10 0 0 0 10 10"></path><g class="terminal ">
<path d="M 411.5 189 h 0.0"></path><path d="M 474.0 189 h 0.0"></path><rect height="22" rx="10" ry="10" width="62.5" x="411.5" y="178"></rect><text x="442.75" y="193">"ndx"</text></g><path d="M 474.0 189 a 10 10 0 0 0 10 -10 v -40 a 10 10 0 0 1 10 -10"></path><path d="M 391.5 129 a 10 10 0 0 1 10 10 v 70 a 10 10 0 0 0 10 10"></path><g class="terminal ">
<path d="M 411.5 219 h 0.0"></path><path d="M 474.0 219 h 0.0"></path><rect height="22" rx="10" ry="10" width="62.5" x="411.5" y="208"></rect><text x="442.75" y="223">"ord"</text></g><path d="M 474.0 219 a 10 10 0 0 0 10 -10 v -70 a 10 10 0 0 1 10 -10"></path><path d="M 391.5 129 a 10 10 0 0 1 10 10 v 100 a 10 10 0 0 0 10 10"></path><g class="terminal ">
<path d="M 411.5 249 h 4.25"></path><path d="M 469.75 249 h 4.25"></path><rect height="22" rx="10" ry="10" width="54.0" x="415.75" y="238"></rect><text x="442.75" y="253">"pn"</text></g><path d="M 474.0 249 a 10 10 0 0 0 10 -10 v -100 a 10 10 0 0 1 10 -10"></path></g><path d="M 494.0 129 a 10 10 0 0 1 10 10 v 119 a 10 10 0 0 0 10 10"></path><path d="M 494.0 20 a 10 10 0 0 1 10 10 v 89 a 10 10 0 0 0 10 10"></path><g>
<path d="M 514.0 129 h 0.0"></path><path d="M 616.5 129 h 0.0"></path><path d="M 514.0 129 a 10 10 0 0 0 10 -10 v -10 a 10 10 0 0 1 10 -10"></path><g class="terminal ">
<path d="M 534.0 99 h 4.25"></path><path d="M 592.25 99 h 4.25"></path><rect height="22" rx="10" ry="10" width="54.0" x="538.25" y="88"></rect><text x="565.25" y="103">"qt"</text></g><path d="M 596.5 99 a 10 10 0 0 1 10 10 v 10 a 10 10 0 0 0 10 10"></path><path d="M 514.0 129 a 10 10 0 0 0 10 -10 v -40 a 10 10 0 0 1 10 -10"></path><g class="terminal ">
<path d="M 534.0 69 h 0.0"></path><path d="M 596.5 69 h 0.0"></path><rect height="22" rx="10" ry="10" width="62.5" x="534.0" y="58"></rect><text x="565.25" y="73">"pro"</text></g><path d="M 596.5 69 a 10 10 0 0 1 10 10 v 40 a 10 10 0 0 0 10 10"></path><path d="M 514.0 129 a 10 10 0 0 0 10 -10 v -70 a 10 10 0 0 1 10 -10"></path><g class="terminal ">
<path d="M 534.0 39 h 0.0"></path><path d="M 596.5 39 h 0.0"></path><rect height="22" rx="10" ry="10" width="62.5" x="534.0" y="28"></rect><text x="565.25" y="43">"png"</text></g><path d="M 596.5 39 a 10 10 0 0 1 10 10 v 70 a 10 10 0 0 0 10 10"></path><path d="M 514.0 129 h 20"></path><g class="terminal ">
<path d="M 534.0 129 h 4.25"></path><path d="M 592.25 129 h 4.25"></path><rect height="22" rx="10" ry="10" width="54.0" x="538.25" y="118"></rect><text x="565.25" y="133">"rq"</text></g><path d="M 596.5 129 h 20"></path><path d="M 514.0 129 a 10 10 0 0 1 10 10 v 10 a 10 10 0 0 0 10 10"></path><g class="terminal ">
<path d="M 534.0 159 h 0.0"></path><path d="M 596.5 159 h 0.0"></path><rect height="22" rx="10" ry="10" width="62.5" x="534.0" y="148"></rect><text x="565.25" y="163">"sig"</text></g><path d="M 596.5 159 a 10 10 0 0 0 10 -10 v -10 a 10 10 0 0 1 10 -10"></path><path d="M 514.0 129 a 10 10 0 0 1 10 10 v 40 a 10 10 0 0 0 10 10"></path><g class="terminal ">
<path d="M 534.0 189 h 0.0"></path><path d="M 596.5 189 h 0.0"></path><rect height="22" rx="10" ry="10" width="62.5" x="534.0" y="178"></rect><text x="565.25" y="193">"sls"</text></g><path d="M 596.5 189 a 10 10 0 0 0 10 -10 v -40 a 10 10 0 0 1 10 -10"></path><path d="M 514.0 129 a 10 10 0 0 1 10 10 v 70 a 10 10 0 0 0 10 10"></path><g class="terminal ">
<path d="M 534.0 219 h 4.25"></path><path d="M 592.25 219 h 4.25"></path><rect height="22" rx="10" ry="10" width="54.0" x="538.25" y="208"></rect><text x="565.25" y="223">"tl"</text></g><path d="M 596.5 219 a 10 10 0 0 0 10 -10 v -70 a 10 10 0 0 1 10 -10"></path><path d="M 514.0 129 a 10 10 0 0 1 10 10 v 100 a 10 10 0 0 0 10 10"></path><g class="terminal ">
<path d="M 534.0 249 h 4.25"></path><path d="M 592.25 249 h 4.25"></path><rect height="22" rx="10" ry="10" width="54.0" x="538.25" y="238"></rect><text x="565.25" y="253">"wg"</text></g><path d="M 596.5 249 a 10 10 0 0 0 10 -10 v -100 a 10 10 0 0 1 10 -10"></path></g><path d="M 616.5 129 a 10 10 0 0 1 10 10 v 119 a 10 10 0 0 0 10 10"></path><path d="M 616.5 20 a 10 10 0 0 1 10 10 v 89 a 10 10 0 0 0 10 10"></path><g>
<path d="M 636.5 129 h 0.0"></path><path d="M 739.0 129 h 0.0"></path><path d="M 636.5 129 a 10 10 0 0 0 10 -10 v -10 a 10 10 0 0 1 10 -10"></path><g class="terminal ">
<path d="M 656.5 99 h 4.25"></path><path d="M 714.75 99 h 4.25"></path><rect height="22" rx="10" ry="10" width="54.0" x="660.75" y="88"></rect><text x="687.75" y="103">"wj"</text></g><path d="M 719.0 99 a 10 10 0 0 1 10 10 v 10 a 10 10 0 0 0 10 10"></path><path d="M 636.5 129 a 10 10 0 0 0 10 -10 v -40 a 10 10 0 0 1 10 -10"></path><g class="terminal ">
<path d="M 656.5 69 h 4.25"></path><path d="M 714.75 69 h 4.25"></path><rect height="22" rx="10" ry="10" width="54.0" x="660.75" y="58"></rect><text x="687.75" y="73">"wa"</text></g><path d="M 719.0 69 a 10 10 0 0 1 10 10 v 40 a 10 10 0 0 0 10 10"></path><path d="M 636.5 129 a 10 10 0 0 0 10 -10 v -70 a 10 10 0 0 1 10 -10"></path><g class="terminal ">
<path d="M 656.5 39 h 4.25"></path><path d="M 714.75 39 h 4.25"></path><rect height="22" rx="10" ry="10" width="54.0" x="660.75" y="28"></rect><text x="687.75" y="43">"wh"</text></g><path d="M 719.0 39 a 10 10 0 0 1 10 10 v 70 a 10 10 0 0 0 10 10"></path><path d="M 636.5 129 h 20"></path><g class="terminal ">
<path d="M 656.5 129 h 4.25"></path><path d="M 714.75 129 h 4.25"></path><rect height="22" rx="10" ry="10" width="54.0" x="660.75" y="118"></rect><text x="687.75" y="133">"xt"</text></g><path d="M 719.0 129 h 20"></path><path d="M 636.5 129 a 10 10 0 0 1 10 10 v 10 a 10 10 0 0 0 10 10"></path><g class="terminal ">
<path d="M 656.5 159 h 0.0"></path><path d="M 719.0 159 h 0.0"></path><rect height="22" rx="10" ry="10" width="62.5" x="656.5" y="148"></rect><text x="687.75" y="163">"jmp"</text></g><path d="M 719.0 159 a 10 10 0 0 0 10 -10 v -10 a 10 10 0 0 1 10 -10"></path><path d="M 636.5 129 a 10 10 0 0 1 10 10 v 40 a 10 10 0 0 0 10 10"></path><g class="terminal ">
<path d="M 656.5 189 h 4.25"></path><path d="M 714.75 189 h 4.25"></path><rect height="22" rx="10" ry="10" width="54.0" x="660.75" y="178"></rect><text x="687.75" y="193">"no"</text></g><path d="M 719.0 189 a 10 10 0 0 0 10 -10 v -40 a 10 10 0 0 1 10 -10"></path><path d="M 636.5 129 a 10 10 0 0 1 10 10 v 70 a 10 10 0 0 0 10 10"></path><g class="terminal ">
<path d="M 656.5 219 h 4.25"></path><path d="M 714.75 219 h 4.25"></path><rect height="22" rx="10" ry="10" width="54.0" x="660.75" y="208"></rect><text x="687.75" y="223">"it"</text></g><path d="M 719.0 219 a 10 10 0 0 0 10 -10 v -70 a 10 10 0 0 1 10 -10"></path><path d="M 636.5 129 a 10 10 0 0 1 10 10 v 100 a 10 10 0 0 0 10 10"></path><g class="terminal ">
<path d="M 656.5 249 h 4.25"></path><path d="M 714.75 249 h 4.25"></path><rect height="22" rx="10" ry="10" width="54.0" x="660.75" y="238"></rect><text x="687.75" y="253">"bd"</text></g><path d="M 719.0 249 a 10 10 0 0 0 10 -10 v -100 a 10 10 0 0 1 10 -10"></path></g><path d="M 739.0 129 a 10 10 0 0 1 10 10 v 119 a 10 10 0 0 0 10 10"></path><path d="M 739.0 20 a 10 10 0 0 1 10 10 v 89 a 10 10 0 0 0 10 10"></path><g>
<path d="M 759.0 129 h 0.0"></path><path d="M 870.0 129 h 0.0"></path><path d="M 759.0 129 a 10 10 0 0 0 10 -10 v -10 a 10 10 0 0 1 10 -10"></path><g class="terminal ">
<path d="M 779.0 99 h 8.5"></path><path d="M 841.5 99 h 8.5"></path><rect height="22" rx="10" ry="10" width="54.0" x="787.5" y="88"></rect><text x="814.5" y="103">"sc"</text></g><path d="M 850.0 99 a 10 10 0 0 1 10 10 v 10 a 10 10 0 0 0 10 10"></path><path d="M 759.0 129 a 10 10 0 0 0 10 -10 v -40 a 10 10 0 0 1 10 -10"></path><g class="terminal ">
<path d="M 779.0 69 h 8.5"></path><path d="M 841.5 69 h 8.5"></path><rect height="22" rx="10" ry="10" width="54.0" x="787.5" y="58"></rect><text x="814.5" y="73">"em"</text></g><path d="M 850.0 69 a 10 10 0 0 1 10 10 v 40 a 10 10 0 0 0 10 10"></path><path d="M 759.0 129 a 10 10 0 0 0 10 -10 v -70 a 10 10 0 0 1 10 -10"></path><g class="terminal ">
<path d="M 779.0 39 h 0.0"></path><path d="M 850.0 39 h 0.0"></path><rect height="22" rx="10" ry="10" width="71.0" x="779.0" y="28"></rect><text x="814.5" y="43">"bdit"</text></g><path d="M 850.0 39 a 10 10 0 0 1 10 10 v 70 a 10 10 0 0 0 10 10"></path><path d="M 759.0 129 h 20"></path><g class="terminal ">
<path d="M 779.0 129 h 4.25"></path><path d="M 845.75 129 h 4.25"></path><rect height="22" rx="10" ry="10" width="62.5" x="783.25" y="118"></rect><text x="814.5" y="133">"sup"</text></g><path d="M 850.0 129 h 20"></path></g><path d="M 870.0 129 h 10"></path></g></g><path d="M 141.0 287 h 20"></path><g>
<path d="M 161.0 287 h 253.0"></path><path d="M 627.0 287 h 253.0"></path><g class="non-terminal ">
<path d="M 414.0 287 h 0.0"></path><path d="M 527.5 287 h 0.0"></path><rect height="22" width="113.5" x="414.0" y="276"></rect><text x="470.75" y="291">CharContent</text></g><path d="M 527.5 287 h 10"></path><path d="M 537.5 287 h 10"></path><g class="terminal ">
<path d="M 547.5 287 h 0.0"></path><path d="M 627.0 287 h 0.0"></path><rect height="22" rx="10" ry="10" width="79.5" x="547.5" y="276"></rect><text x="587.25" y="291">&#60;/char></text></g></g><path d="M 880.0 287 h 20"></path></g></g><path d="M 900.0 287 h 20"></path><path d="M 40.0 287 a 10 10 0 0 1 10 10 v 10 a 10 10 0 0 0 10 10"></path><g>
<path d="M 60.0 317 h 271.0"></path><path d="M 629.0 317 h 271.0"></path><path d="M 331.0 317 h 20"></path><g class="non-terminal ">
<path d="M 351.0 317 h 4.25"></path><path d="M 604.75 317 h 4.25"></path><rect height="22" width="249.5" x="355.25" y="306"></rect><text x="480.0" y="321">CharWithAttrib.char.style.w</text></g><path d="M 609.0 317 h 20"></path><path d="M 331.0 317 a 10 10 0 0 1 10 10 v 10 a 10 10 0 0 0 10 10"></path><g class="non-terminal ">
<path d="M 351.0 347 h 0.0"></path><path d="M 609.0 347 h 0.0"></path><rect height="22" width="258.0" x="351.0" y="336"></rect><text x="480.0" y="351">CharWithAttrib.char.style.rb</text></g><path d="M 609.0 347 a 10 10 0 0 0 10 -10 v -10 a 10 10 0 0 1 10 -10"></path></g><path d="M 900.0 317 a 10 10 0 0 0 10 -10 v -10 a 10 10 0 0 1 10 -10"></path></g><path d="M 920.0 287 h 20 m 0 -10 v 20"></path></g></svg>