<svg class="railroad-diagram" height="743" viewBox="0 0 828.0 743" width="828.0" xmlns="http://www.w3.org/2000/svg" xmlns:xlink="http://www.w3.org/1999/xlink">
<g transform="translate(.5 .5)">
<style>/* <![CDATA[ */
    svg.railroad-diagram {
        background-color:hsl(30,20%,95%);
    }
    svg.railroad-diagram path {
        stroke-width: 2;
        stroke: black;
        fill: none;
    }
    svg.railroad-diagram text {
        font-size: 12px;
        text-anchor: middle;
        font-family: DejaVu Sans;
    }
    svg.railroad-diagram text.label {
        text-anchor:start;
    }
    svg.railroad-diagram text.comment {
        font-family: DejaVu Sans;
        font-size: 14px;
    }
    svg.railroad-diagram rect{
        stroke-width: 2;
        stroke:black;
        fill: rgb(210, 255, 210);
    }
    svg.railroad-diagram rect.group-box {
        stroke: gray;
        stroke-dasharray: 10 5;
        fill: none;
    }
    .terminal {
        font-family: DejaVu Sans;
    }

/* ]]> */
</style><g>
<path d="M 20 167 v 20 m 0 -10 h 20"></path></g><path d="M 40 177 h 10"></path><g>
<path d="M 50 177 h 0.0"></path><path d="M 778.0 414 h 0.0"></path><rect class="group-box" height="687" rx="10" ry="10" width="728.0" x="50.0" y="36"></rect><g>
<path d="M 50.0 177 h 0.0"></path><path d="M 778.0 414 h 0.0"></path><path d="M 50.0 177 h 20"></path><g>
<path d="M 70.0 177 h 0.0"></path><path d="M 70.0 177 h 10"></path><g>
<path d="M 80.0 177 h 10.0"></path><path d="M 738.0 177 h 10.0"></path><g>
<path d="M 90.0 177 h 0.0"></path><path d="M 681.0 177 h 0.0"></path><rect class="group-box" height="294" rx="10" ry="10" width="591.0" x="90.0" y="60"></rect><g>
<path d="M 90.0 177 h 10.0"></path><path d="M 671.0 177 h 10.0"></path><g class="terminal ">
<path d="M 100.0 177 h 0.0"></path><path d="M 145.5 177 h 0.0"></path><rect height="22" rx="10" ry="10" width="45.5" x="100.0" y="166"></rect><text x="122.75" y="181">"\"</text></g><path d="M 145.5 177 h 10"></path><g>
<path d="M 155.5 177 h 0.0"></path><path d="M 671.0 177 h 0.0"></path><path d="M 155.5 177 a 10 10 0 0 0 10 -10 v -89 a 10 10 0 0 1 10 -10 h 354.5"></path><path d="M 305.0 346 h 346.0 a 10 10 0 0 0 10 -10 v -149 a 10 10 0 0 1 10 -10"></path><path d="M 155.5 177 h 10"></path><g>
<path d="M 165.5 177 h 0.0"></path><path d="M 285.0 177 h 0.0"></path><path d="M 165.5 177 a 10 10 0 0 0 10 -10 v -10 a 10 10 0 0 1 10 -10"></path><g class="terminal ">
<path d="M 185.5 147 h 12.75"></path><path d="M 252.25 147 h 12.75"></path><rect height="22" rx="10" ry="10" width="54.0" x="198.25" y="136"></rect><text x="225.25" y="151">"ca"</text></g><path d="M 265.0 147 a 10 10 0 0 1 10 10 v 10 a 10 10 0 0 0 10 10"></path><path d="M 165.5 177 a 10 10 0 0 0 10 -10 v -40 a 10 10 0 0 1 10 -10"></path><g class="terminal ">
<path d="M 185.5 117 h 12.75"></path><path d="M 252.25 117 h 12.75"></path><rect height="22" rx="10" ry="10" width="54.0" x="198.25" y="106"></rect><text x="225.25" y="121">"vp"</text></g><path d="M 265.0 117 a 10 10 0 0 1 10 10 v 40 a 10 10 0 0 0 10 10"></path><path d="M 165.5 177 a 10 10 0 0 0 10 -10 v -70 a 10 10 0 0 1 10 -10"></path><g class="terminal ">
<path d="M 185.5 87 h 12.75"></path><path d="M 252.25 87 h 12.75"></path><rect height="22" rx="10" ry="10" width="54.0" x="198.25" y="76"></rect><text x="225.25" y="91">"va"</text></g><path d="M 265.0 87 a 10 10 0 0 1 10 10 v 70 a 10 10 0 0 0 10 10"></path><path d="M 165.5 177 h 20"></path><g class="terminal ">
<path d="M 185.5 177 h 8.5"></path><path d="M 256.5 177 h 8.5"></path><rect height="22" rx="10" ry="10" width="62.5" x="194.0" y="166"></rect><text x="225.25" y="181">"qac"</text></g><path d="M 265.0 177 h 20"></path><path d="M 165.5 177 a 10 10 0 0 1 10 10 v 10 a 10 10 0 0 0 10 10"></path><g class="terminal ">
<path d="M 185.5 207 h 12.75"></path><path d="M 252.25 207 h 12.75"></path><rect height="22" rx="10" ry="10" width="54.0" x="198.25" y="196"></rect><text x="225.25" y="211">"qs"</text></g><path d="M 265.0 207 a 10 10 0 0 0 10 -10 v -10 a 10 10 0 0 1 10 -10"></path><path d="M 165.5 177 a 10 10 0 0 1 10 10 v 40 a 10 10 0 0 0 10 10"></path><g class="terminal ">
<path d="M 185.5 237 h 8.5"></path><path d="M 256.5 237 h 8.5"></path><rect height="22" rx="10" ry="10" width="62.5" x="194.0" y="226"></rect><text x="225.25" y="241">"add"</text></g><path d="M 265.0 237 a 10 10 0 0 0 10 -10 v -40 a 10 10 0 0 1 10 -10"></path><path d="M 165.5 177 a 10 10 0 0 1 10 10 v 70 a 10 10 0 0 0 10 10"></path><g class="terminal ">
<path d="M 185.5 267 h 0.0"></path><path d="M 265.0 267 h 0.0"></path><rect height="22" rx="10" ry="10" width="79.5" x="185.5" y="256"></rect><text x="225.25" y="271">"addpn"</text></g><path d="M 265.0 267 a 10 10 0 0 0 10 -10 v -70 a 10 10 0 0 1 10 -10"></path><path d="M 165.5 177 a 10 10 0 0 1 10 10 v 100 a 10 10 0 0 0 10 10"></path><g class="terminal ">
<path d="M 185.5 297 h 12.75"></path><path d="M 252.25 297 h 12.75"></path><rect height="22" rx="10" ry="10" width="54.0" x="198.25" y="286"></rect><text x="225.25" y="301">"bk"</text></g><path d="M 265.0 297 a 10 10 0 0 0 10 -10 v -100 a 10 10 0 0 1 10 -10"></path><path d="M 165.5 177 a 10 10 0 0 1 10 10 v 130 a 10 10 0 0 0 10 10"></path><g class="terminal ">
<path d="M 185.5 327 h 12.75"></path><path d="M 252.25 327 h 12.75"></path><rect height="22" rx="10" ry="10" width="54.0" x="198.25" y="316"></rect><text x="225.25" y="331">"dc"</text></g><path d="M 265.0 327 a 10 10 0 0 0 10 -10 v -130 a 10 10 0 0 1 10 -10"></path></g><path d="M 285.0 177 a 10 10 0 0 1 10 10 v 149 a 10 10 0 0 0 10 10"></path><path d="M 285.0 68 a 10 10 0 0 1 10 10 v 89 a 10 10 0 0 0 10 10"></path><g>
<path d="M 305.0 177 h 0.0"></path><path d="M 407.5 177 h 0.0"></path><path d="M 305.0 177 a 10 10 0 0 0 10 -10 v -10 a 10 10 0 0 1 10 -10"></path><g class="terminal ">
<path d="M 325.0 147 h 8.5"></path><path d="M 379.0 147 h 8.5"></path><rect height="22" rx="10" ry="10" width="45.5" x="333.5" y="136"></rect><text x="356.25" y="151">"k"</text></g><path d="M 387.5 147 a 10 10 0 0 1 10 10 v 10 a 10 10 0 0 0 10 10"></path><path d="M 305.0 177 a 10 10 0 0 0 10 -10 v -40 a 10 10 0 0 1 10 -10"></path><g class="terminal ">
<path d="M 325.0 117 h 4.25"></path><path d="M 383.25 117 h 4.25"></path><rect height="22" rx="10" ry="10" width="54.0" x="329.25" y="106"></rect><text x="356.25" y="121">"fm"</text></g><path d="M 387.5 117 a 10 10 0 0 1 10 10 v 40 a 10 10 0 0 0 10 10"></path><path d="M 305.0 177 a 10 10 0 0 0 10 -10 v -70 a 10 10 0 0 1 10 -10"></path><g class="terminal ">
<path d="M 325.0 87 h 0.0"></path><path d="M 387.5 87 h 0.0"></path><rect height="22" rx="10" ry="10" width="62.5" x="325.0" y="76"></rect><text x="356.25" y="91">"efm"</text></g><path d="M 387.5 87 a 10 10 0 0 1 10 10 v 70 a 10 10 0 0 0 10 10"></path><path d="M 305.0 177 h 20"></path><g class="terminal ">
<path d="M 325.0 177 h 4.25"></path><path d="M 383.25 177 h 4.25"></path><rect height="22" rx="10" ry="10" width="54.0" x="329.25" y="166"></rect><text x="356.25" y="181">"nd"</text></g><path d="M 387.5 177 h 20"></path><path d="M 305.0 177 a 10 10 0 0 1 10 10 v 10 a 10 10 0 0 0 10 10"></path><g class="terminal ">
<path d="M 325.0 207 h 0.0"></path><path d="M 387.5 207 h 0.0"></path><rect height="22" rx="10" ry="10" width="62.5" x="325.0" y="196"></rect><text x="356.25" y="211">"ndx"</text></g><path d="M 387.5 207 a 10 10 0 0 0 10 -10 v -10 a 10 10 0 0 1 10 -10"></path><path d="M 305.0 177 a 10 10 0 0 1 10 10 v 40 a 10 10 0 0 0 10 10"></path><g class="terminal ">
<path d="M 325.0 237 h 0.0"></path><path d="M 387.5 237 h 0.0"></path><rect height="22" rx="10" ry="10" width="62.5" x="325.0" y="226"></rect><text x="356.25" y="241">"ord"</text></g><path d="M 387.5 237 a 10 10 0 0 0 10 -10 v -40 a 10 10 0 0 1 10 -10"></path><path d="M 305.0 177 a 10 10 0 0 1 10 10 v 70 a 10 10 0 0 0 10 10"></path><g class="terminal ">
<path d="M 325.0 267 h 4.25"></path><path d="M 383.25 267 h 4.25"></path><rect height="22" rx="10" ry="10" width="54.0" x="329.25" y="256"></rect><text x="356.25" y="271">"pn"</text></g><path d="M 387.5 267 a 10 10 0 0 0 10 -10 v -70 a 10 10 0 0 1 10 -10"></path><path d="M 305.0 177 a 10 10 0 0 1 10 10 v 100 a 10 10 0 0 0 10 10"></path><g class="terminal ">
<path d="M 325.0 297 h 0.0"></path><path d="M 387.5 297 h 0.0"></path><rect height="22" rx="10" ry="10" width="62.5" x="325.0" y="286"></rect><text x="356.25" y="301">"png"</text></g><path d="M 387.5 297 a 10 10 0 0 0 10 -10 v -100 a 10 10 0 0 1 10 -10"></path><path d="M 305.0 177 a 10 10 0 0 1 10 10 v 130 a 10 10 0 0 0 10 10"></path><g class="terminal ">
<path d="M 325.0 327 h 0.0"></path><path d="M 387.5 327 h 0.0"></path><rect height="22" rx="10" ry="10" width="62.5" x="325.0" y="316"></rect><text x="356.25" y="331">"pro"</text></g><path d="M 387.5 327 a 10 10 0 0 0 10 -10 v -130 a 10 10 0 0 1 10 -10"></path></g><path d="M 407.5 177 a 10 10 0 0 1 10 10 v 149 a 10 10 0 0 0 10 10"></path><path d="M 407.5 68 a 10 10 0 0 1 10 10 v 89 a 10 10 0 0 0 10 10"></path><g>
<path d="M 427.5 177 h 0.0"></path><path d="M 530.0 177 h 0.0"></path><path d="M 427.5 177 a 10 10 0 0 0 10 -10 v -10 a 10 10 0 0 1 10 -10"></path><g class="terminal ">
<path d="M 447.5 147 h 0.0"></path><path d="M 510.0 147 h 0.0"></path><rect height="22" rx="10" ry="10" width="62.5" x="447.5" y="136"></rect><text x="478.75" y="151">"sig"</text></g><path d="M 510.0 147 a 10 10 0 0 1 10 10 v 10 a 10 10 0 0 0 10 10"></path><path d="M 427.5 177 a 10 10 0 0 0 10 -10 v -40 a 10 10 0 0 1 10 -10"></path><g class="terminal ">
<path d="M 447.5 117 h 4.25"></path><path d="M 505.75 117 h 4.25"></path><rect height="22" rx="10" ry="10" width="54.0" x="451.75" y="106"></rect><text x="478.75" y="121">"rq"</text></g><path d="M 510.0 117 a 10 10 0 0 1 10 10 v 40 a 10 10 0 0 0 10 10"></path><path d="M 427.5 177 a 10 10 0 0 0 10 -10 v -70 a 10 10 0 0 1 10 -10"></path><g class="terminal ">
<path d="M 447.5 87 h 4.25"></path><path d="M 505.75 87 h 4.25"></path><rect height="22" rx="10" ry="10" width="54.0" x="451.75" y="76"></rect><text x="478.75" y="91">"qt"</text></g><path d="M 510.0 87 a 10 10 0 0 1 10 10 v 70 a 10 10 0 0 0 10 10"></path><path d="M 427.5 177 h 20"></path><g class="terminal ">
<path d="M 447.5 177 h 0.0"></path><path d="M 510.0 177 h 0.0"></path><rect height="22" rx="10" ry="10" width="62.5" x="447.5" y="166"></rect><text x="478.75" y="181">"sls"</text></g><path d="M 510.0 177 h 20"></path><path d="M 427.5 177 a 10 10 0 0 1 10 10 v 10 a 10 10 0 0 0 10 10"></path><g class="terminal ">
<path d="M 447.5 207 h 4.25"></path><path d="M 505.75 207 h 4.25"></path><rect height="22" rx="10" ry="10" width="54.0" x="451.75" y="196"></rect><text x="478.75" y="211">"tl"</text></g><path d="M 510.0 207 a 10 10 0 0 0 10 -10 v -10 a 10 10 0 0 1 10 -10"></path><path d="M 427.5 177 a 10 10 0 0 1 10 10 v 40 a 10 10 0 0 0 10 10"></path><g class="terminal ">
<path d="M 447.5 237 h 4.25"></path><path d="M 505.75 237 h 4.25"></path><rect height="22" rx="10" ry="10" width="54.0" x="451.75" y="226"></rect><text x="478.75" y="241">"wg"</text></g><path d="M 510.0 237 a 10 10 0 0 0 10 -10 v -40 a 10 10 0 0 1 10 -10"></path><path d="M 427.5 177 a 10 10 0 0 1 10 10 v 70 a 10 10 0 0 0 10 10"></path><g class="terminal ">
<path d="M 447.5 267 h 4.25"></path><path d="M 505.75 267 h 4.25"></path><rect height="22" rx="10" ry="10" width="54.0" x="451.75" y="256"></rect><text x="478.75" y="271">"wh"</text></g><path d="M 510.0 267 a 10 10 0 0 0 10 -10 v -70 a 10 10 0 0 1 10 -10"></path><path d="M 427.5 177 a 10 10 0 0 1 10 10 v 100 a 10 10 0 0 0 10 10"></path><g class="terminal ">
<path d="M 447.5 297 h 4.25"></path><path d="M 505.75 297 h 4.25"></path><rect height="22" rx="10" ry="10" width="54.0" x="451.75" y="286"></rect><text x="478.75" y="301">"wa"</text></g><path d="M 510.0 297 a 10 10 0 0 0 10 -10 v -100 a 10 10 0 0 1 10 -10"></path><path d="M 427.5 177 a 10 10 0 0 1 10 10 v 130 a 10 10 0 0 0 10 10"></path><g class="terminal ">
<path d="M 447.5 327 h 4.25"></path><path d="M 505.75 327 h 4.25"></path><rect height="22" rx="10" ry="10" width="54.0" x="451.75" y="316"></rect><text x="478.75" y="331">"wj"</text></g><path d="M 510.0 327 a 10 10 0 0 0 10 -10 v -130 a 10 10 0 0 1 10 -10"></path></g><path d="M 530.0 177 a 10 10 0 0 1 10 10 v 149 a 10 10 0 0 0 10 10"></path><path d="M 530.0 68 a 10 10 0 0 1 10 10 v 89 a 10 10 0 0 0 10 10"></path><g>
<path d="M 550.0 177 h 0.0"></path><path d="M 661.0 177 h 0.0"></path><path d="M 550.0 177 a 10 10 0 0 0 10 -10 v -10 a 10 10 0 0 1 10 -10"></path><g class="terminal ">
<path d="M 570.0 147 h 8.5"></path><path d="M 632.5 147 h 8.5"></path><rect height="22" rx="10" ry="10" width="54.0" x="578.5" y="136"></rect><text x="605.5" y="151">"no"</text></g><path d="M 641.0 147 a 10 10 0 0 1 10 10 v 10 a 10 10 0 0 0 10 10"></path><path d="M 550.0 177 a 10 10 0 0 0 10 -10 v -40 a 10 10 0 0 1 10 -10"></path><g class="terminal ">
<path d="M 570.0 117 h 4.25"></path><path d="M 636.75 117 h 4.25"></path><rect height="22" rx="10" ry="10" width="62.5" x="574.25" y="106"></rect><text x="605.5" y="121">"jmp"</text></g><path d="M 641.0 117 a 10 10 0 0 1 10 10 v 40 a 10 10 0 0 0 10 10"></path><path d="M 550.0 177 a 10 10 0 0 0 10 -10 v -70 a 10 10 0 0 1 10 -10"></path><g class="terminal ">
<path d="M 570.0 87 h 8.5"></path><path d="M 632.5 87 h 8.5"></path><rect height="22" rx="10" ry="10" width="54.0" x="578.5" y="76"></rect><text x="605.5" y="91">"xt"</text></g><path d="M 641.0 87 a 10 10 0 0 1 10 10 v 70 a 10 10 0 0 0 10 10"></path><path d="M 550.0 177 h 20"></path><g class="terminal ">
<path d="M 570.0 177 h 8.5"></path><path d="M 632.5 177 h 8.5"></path><rect height="22" rx="10" ry="10" width="54.0" x="578.5" y="166"></rect><text x="605.5" y="181">"it"</text></g><path d="M 641.0 177 h 20"></path><path d="M 550.0 177 a 10 10 0 0 1 10 10 v 10 a 10 10 0 0 0 10 10"></path><g class="terminal ">
<path d="M 570.0 207 h 8.5"></path><path d="M 632.5 207 h 8.5"></path><rect height="22" rx="10" ry="10" width="54.0" x="578.5" y="196"></rect><text x="605.5" y="211">"bd"</text></g><path d="M 641.0 207 a 10 10 0 0 0 10 -10 v -10 a 10 10 0 0 1 10 -10"></path><path d="M 550.0 177 a 10 10 0 0 1 10 10 v 40 a 10 10 0 0 0 10 10"></path><g class="terminal ">
<path d="M 570.0 237 h 0.0"></path><path d="M 641.0 237 h 0.0"></path><rect height="22" rx="10" ry="10" width="71.0" x="570.0" y="226"></rect><text x="605.5" y="241">"bdit"</text></g><path d="M 641.0 237 a 10 10 0 0 0 10 -10 v -40 a 10 10 0 0 1 10 -10"></path><path d="M 550.0 177 a 10 10 0 0 1 10 10 v 70 a 10 10 0 0 0 10 10"></path><g class="terminal ">
<path d="M 570.0 267 h 8.5"></path><path d="M 632.5 267 h 8.5"></path><rect height="22" rx="10" ry="10" width="54.0" x="578.5" y="256"></rect><text x="605.5" y="271">"em"</text></g><path d="M 641.0 267 a 10 10 0 0 0 10 -10 v -70 a 10 10 0 0 1 10 -10"></path><path d="M 550.0 177 a 10 10 0 0 1 10 10 v 100 a 10 10 0 0 0 10 10"></path><g class="terminal ">
<path d="M 570.0 297 h 8.5"></path><path d="M 632.5 297 h 8.5"></path><rect height="22" rx="10" ry="10" width="54.0" x="578.5" y="286"></rect><text x="605.5" y="301">"sc"</text></g><path d="M 641.0 297 a 10 10 0 0 0 10 -10 v -100 a 10 10 0 0 1 10 -10"></path><path d="M 550.0 177 a 10 10 0 0 1 10 10 v 130 a 10 10 0 0 0 10 10"></path><g class="terminal ">
<path d="M 570.0 327 h 4.25"></path><path d="M 636.75 327 h 4.25"></path><rect height="22" rx="10" ry="10" width="62.5" x="574.25" y="316"></rect><text x="605.5" y="331">"sup"</text></g><path d="M 641.0 327 a 10 10 0 0 0 10 -10 v -130 a 10 10 0 0 1 10 -10"></path></g><path d="M 661.0 177 h 10"></path></g></g><g class="non-terminal ">
<path d="M 90.0 52 h 0.0"></path><path d="M 107.0 52 h 0.0"></path><text class="comment" x="98.5" y="57">➊</text></g></g><path d="M 681.0 177 h 10"></path><path d="M 691.0 177 h 10"></path><g class="terminal ">
<path d="M 701.0 177 h 0.0"></path><path d="M 738.0 177 h 0.0"></path><rect height="22" rx="10" ry="10" width="37.0" x="701.0" y="166"></rect><text x="719.5" y="181">WS</text></g></g><path d="M 748.0 177 a 10 10 0 0 1 10 10 v 165 a 10 10 0 0 1 -10 10 h -668.0 a 10 10 0 0 0 -10 10 v 32 a 10 10 0 0 0 10 10"></path><g>
<path d="M 80.0 414 h 15.0"></path><path d="M 733.0 414 h 15.0"></path><g>
<path d="M 95.0 414 h 0.0"></path><path d="M 572.0 414 h 0.0"></path><rect class="group-box" height="237" rx="10" ry="10" width="477.0" x="95.0" y="386"></rect><g>
<path d="M 95.0 414 h 10.0"></path><path d="M 562.0 414 h 10.0"></path><g class="terminal ">
<path d="M 105.0 414 h 0.0"></path><path d="M 159.0 414 h 0.0"></path><rect height="22" rx="10" ry="10" width="54.0" x="105.0" y="403"></rect><text x="132.0" y="418">Text</text></g><path d="M 159.0 414 h 10"></path><g>
<path d="M 169.0 414 h 0.0"></path><path d="M 455.5 414 h 0.0"></path><path d="M 169.0 414 a 10 10 0 0 0 10 -10 v 0 a 10 10 0 0 1 10 -10"></path><g>
<path d="M 189.0 394 h 246.5"></path></g><path d="M 435.5 394 a 10 10 0 0 1 10 10 v 0 a 10 10 0 0 0 10 10"></path><path d="M 169.0 414 h 20"></path><g>
<path d="M 189.0 414 h 0.0"></path><path d="M 435.5 414 h 0.0"></path><path d="M 189.0 414 h 10"></path><g>
<path d="M 199.0 414 h 0.0"></path><path d="M 425.5 414 h 0.0"></path><path d="M 199.0 414 h 20"></path><g class="non-terminal ">
<path d="M 219.0 414 h 45.0"></path><path d="M 360.5 414 h 45.0"></path><rect height="22" width="96.5" x="264.0" y="403"></rect><text x="312.25" y="418">Reference</text></g><path d="M 405.5 414 h 20"></path><path d="M 199.0 414 a 10 10 0 0 1 10 10 v 10 a 10 10 0 0 0 10 10"></path><g class="non-terminal ">
<path d="M 219.0 444 h 45.0"></path><path d="M 360.5 444 h 45.0"></path><rect height="22" width="96.5" x="264.0" y="433"></rect><text x="312.25" y="448">CharEmbed</text></g><path d="M 405.5 444 a 10 10 0 0 0 10 -10 v -10 a 10 10 0 0 1 10 -10"></path><path d="M 199.0 414 a 10 10 0 0 1 10 10 v 40 a 10 10 0 0 0 10 10"></path><g class="non-terminal ">
<path d="M 219.0 474 h 45.0"></path><path d="M 360.5 474 h 45.0"></path><rect height="22" width="96.5" x="264.0" y="463"></rect><text x="312.25" y="478">Milestone</text></g><path d="M 405.5 474 a 10 10 0 0 0 10 -10 v -40 a 10 10 0 0 1 10 -10"></path><path d="M 199.0 414 a 10 10 0 0 1 10 10 v 70 a 10 10 0 0 0 10 10"></path><g class="non-terminal ">
<path d="M 219.0 504 h 49.25"></path><path d="M 356.25 504 h 49.25"></path><rect height="22" width="88.0" x="268.25" y="493"></rect><text x="312.25" y="508">Footnote</text></g><path d="M 405.5 504 a 10 10 0 0 0 10 -10 v -70 a 10 10 0 0 1 10 -10"></path><path d="M 199.0 414 a 10 10 0 0 1 10 10 v 124 a 10 10 0 0 0 10 10"></path><g>
<path d="M 219.0 558 h 0.0"></path><path d="M 405.5 558 h 0.0"></path><rect class="group-box" height="68" rx="10" ry="10" width="186.5" x="219.0" y="539"></rect><g>
<path d="M 219.0 558 h 10.0"></path><path d="M 395.5 558 h 10.0"></path><g class="terminal ">
<path d="M 229.0 558 h 0.0"></path><path d="M 283.0 558 h 0.0"></path><rect height="22" rx="10" ry="10" width="54.0" x="229.0" y="547"></rect><text x="256.0" y="562">"\b"</text></g><path d="M 283.0 558 h 10"></path><g>
<path d="M 293.0 558 h 0.0"></path><path d="M 395.5 558 h 0.0"></path><path d="M 293.0 558 h 20"></path><g class="terminal ">
<path d="M 313.0 558 h 0.0"></path><path d="M 375.5 558 h 0.0"></path><rect height="22" rx="10" ry="10" width="62.5" x="313.0" y="547"></rect><text x="344.25" y="562">⇒ "\"</text></g><path d="M 375.5 558 h 20"></path><path d="M 293.0 558 a 10 10 0 0 1 10 10 v 10 a 10 10 0 0 0 10 10"></path><g class="terminal ">
<path d="M 313.0 588 h 12.75"></path><path d="M 362.75 588 h 12.75"></path><rect height="22" rx="10" ry="10" width="37.0" x="325.75" y="577"></rect><text x="344.25" y="592">WS</text></g><path d="M 375.5 588 a 10 10 0 0 0 10 -10 v -10 a 10 10 0 0 1 10 -10"></path></g></g><g class="non-terminal ">
<path d="M 219.0 531 h 0.0"></path><path d="M 264.0 531 h 0.0"></path><text class="comment" x="241.5" y="536">Break</text></g></g><path d="M 405.5 558 a 10 10 0 0 0 10 -10 v -124 a 10 10 0 0 1 10 -10"></path></g><path d="M 425.5 414 h 10"></path><path d="M 199.0 414 a 10 10 0 0 0 -10 10 v 181 a 10 10 0 0 0 10 10"></path><g>
<path d="M 199.0 615 h 226.5"></path></g><path d="M 425.5 615 a 10 10 0 0 0 10 -10 v -181 a 10 10 0 0 0 -10 -10"></path></g><path d="M 435.5 414 h 20"></path></g><path d="M 455.5 414 h 10"></path><g class="non-terminal ">
<path d="M 465.5 414 h 0.0"></path><path d="M 562.0 414 h 0.0"></path><rect height="22" width="96.5" x="465.5" y="403"></rect><text x="513.75" y="418">char.link</text></g></g><g class="non-terminal ">
<path d="M 95.0 378 h 0.0"></path><path d="M 182.0 378 h 0.0"></path><text class="comment" x="138.5" y="383">CharContent</text></g></g><path d="M 572.0 414 h 10"></path><g>
<path d="M 582.0 414 h 0.0"></path><path d="M 733.0 414 h 0.0"></path><path d="M 582.0 414 a 10 10 0 0 0 10 -10 v 0 a 10 10 0 0 1 10 -10"></path><g>
<path d="M 602.0 394 h 111.0"></path></g><path d="M 713.0 394 a 10 10 0 0 1 10 10 v 0 a 10 10 0 0 0 10 10"></path><path d="M 582.0 414 h 20"></path><g>
<path d="M 602.0 414 h 0.0"></path><path d="M 713.0 414 h 0.0"></path><g class="terminal ">
<path d="M 602.0 414 h 0.0"></path><path d="M 647.5 414 h 0.0"></path><rect height="22" rx="10" ry="10" width="45.5" x="602.0" y="403"></rect><text x="624.75" y="418">⇐ ➊</text></g><path d="M 647.5 414 h 10"></path><path d="M 657.5 414 h 10"></path><g class="terminal ">
<path d="M 667.5 414 h 0.0"></path><path d="M 713.0 414 h 0.0"></path><rect height="22" rx="10" ry="10" width="45.5" x="667.5" y="403"></rect><text x="690.25" y="418">"&#42;"</text></g></g><path d="M 713.0 414 h 20"></path></g></g><path d="M 748.0 414 h 10"></path><path d="M 758.0 414 h 0.0"></path></g><path d="M 758.0 414 h 20"></path><path d="M 50.0 177 a 10 10 0 0 1 10 10 v 469 a 10 10 0 0 0 10 10"></path><g>
<path d="M 70.0 666 h 195.0"></path><path d="M 563.0 666 h 195.0"></path><rect class="group-box" height="68" rx="10" ry="10" width="298.0" x="265.0" y="647"></rect><g>
<path d="M 265.0 666 h 0.0"></path><path d="M 563.0 666 h 0.0"></path><path d="M 265.0 666 h 20"></path><g class="non-terminal ">
<path d="M 285.0 666 h 4.25"></path><path d="M 538.75 666 h 4.25"></path><rect height="22" width="249.5" x="289.25" y="655"></rect><text x="414.0" y="670">CharWithAttrib.char.style.w</text></g><path d="M 543.0 666 h 20"></path><path d="M 265.0 666 a 10 10 0 0 1 10 10 v 10 a 10 10 0 0 0 10 10"></path><g class="non-terminal ">
<path d="M 285.0 696 h 0.0"></path><path d="M 543.0 696 h 0.0"></path><rect height="22" width="258.0" x="285.0" y="685"></rect><text x="414.0" y="700">CharWithAttrib.char.style.rb</text></g><path d="M 543.0 696 a 10 10 0 0 0 10 -10 v -10 a 10 10 0 0 1 10 -10"></path></g><g class="non-terminal ">
<path d="M 265.0 639 h 0.0"></path><path d="M 408.0 639 h 0.0"></path><text class="comment" x="336.5" y="644">CharWithAttrib.enum</text></g></g><path d="M 758.0 666 a 10 10 0 0 0 10 -10 v -232 a 10 10 0 0 1 10 -10"></path></g><g class="non-terminal ">
<path d="M 50.0 28 h 0.0"></path><path d="M 88.0 28 h 0.0"></path><text class="comment" x="69.0" y="33">Char</text></g></g><path d="M 778.0 414 h 10"></path><path d="M 788.0 414 h 20 m 0 -10 v 20"></path></g></svg>