<svg class="railroad-diagram" height="190" viewBox="0 0 553.5 190" width="553.5" xmlns="http://www.w3.org/2000/svg" xmlns:xlink="http://www.w3.org/1999/xlink">
<g transform="translate(.5 .5)">
<style>/* <![CDATA[ */
    svg.railroad-diagram {
        background-color:hsl(30,20%,95%);
    }
    svg.railroad-diagram path {
        stroke-width: 2;
        stroke: black;
        fill: none;
    }
    svg.railroad-diagram text {
        font-size: 12px;
        text-anchor: middle;
        font-family: DejaVu Sans;
    }
    svg.railroad-diagram text.label {
        text-anchor:start;
    }
    svg.railroad-diagram text.comment {
        font-family: DejaVu Sans;
        font-size: 14px;
    }
    svg.railroad-diagram rect{
        stroke-width: 2;
        stroke:black;
        fill: rgb(210, 210, 255);
    }
    svg.railroad-diagram rect.group-box {
        stroke: gray;
        stroke-dasharray: 10 5;
        fill: none;
    }
    .terminal {
        font-family: DejaVu Sans;
    }

/* ]]> */
</style><g>
<path d="M 20 111 v 20 m 0 -10 h 20"></path></g><path d="M 40 121 h 10"></path><g>
<path d="M 50 121 h 0.0"></path><path d="M 503.5 121 h 0.0"></path><g class="terminal ">
<path d="M 50.0 121 h 0.0"></path><path d="M 121.0 121 h 0.0"></path><rect height="22" rx="10" ry="10" width="71.0" x="50.0" y="110"></rect><text x="85.5" y="125">&#60;note></text></g><path d="M 121.0 121 h 10"></path><g>
<path d="M 131.0 121 h 0.0"></path><path d="M 503.5 121 h 0.0"></path><path d="M 131.0 121 a 10 10 0 0 0 10 -10 v -10 a 10 10 0 0 1 10 -10"></path><g>
<path d="M 151.0 91 h 0.0"></path><path d="M 304.5 91 h 0.0"></path><g class="terminal ">
<path d="M 151.0 91 h 0.0"></path><path d="M 230.5 91 h 0.0"></path><rect height="22" rx="10" ry="10" width="79.5" x="151.0" y="80"></rect><text x="190.75" y="95">@caller</text></g><path d="M 230.5 91 h 10"></path><path d="M 240.5 91 h 10"></path><g class="terminal ">
<path d="M 250.5 91 h 0.0"></path><path d="M 304.5 91 h 0.0"></path><rect height="22" rx="10" ry="10" width="54.0" x="250.5" y="80"></rect><text x="277.5" y="95">text</text></g></g><path d="M 131.0 121 a 10 10 0 0 0 10 -10 v -40 a 10 10 0 0 1 10 -10"></path><g>
<path d="M 151.0 61 h 0.0"></path><path d="M 326.0 61 h 0.0"></path><g class="terminal ">
<path d="M 151.0 61 h 0.0"></path><path d="M 222.0 61 h 0.0"></path><rect height="22" rx="10" ry="10" width="71.0" x="151.0" y="50"></rect><text x="186.5" y="65">@style</text></g><path d="M 222.0 61 h 10"></path><g>
<path d="M 232.0 61 h 0.0"></path><path d="M 232.0 61 a 10 10 0 0 0 10 -10 v -10 a 10 10 0 0 1 10 -10"></path><g class="terminal ">
<path d="M 252.0 31 h 0.0"></path><path d="M 297.5 31 h 0.0"></path><rect height="22" rx="10" ry="10" width="45.5" x="252.0" y="20"></rect><text x="274.75" y="35">"x"</text></g><path d="M 232.0 61 h 20"></path><g class="terminal ">
<path d="M 252.0 61 h 0.0"></path><path d="M 306.0 61 h 0.0"></path><rect height="22" rx="10" ry="10" width="54.0" x="252.0" y="50"></rect><text x="279.0" y="65">"ex"</text></g></g></g><path d="M 131.0 121 h 20"></path><g>
<path d="M 151.0 121 h 0.0"></path><path d="M 483.5 121 h 0.0"></path><g>
<path d="M 151.0 121 h 0.0"></path><path d="M 384.0 121 h 0.0"></path><path d="M 151.0 121 h 10"></path><g>
<path d="M 161.0 121 h 0.0"></path><path d="M 374.0 121 h 0.0"></path><path d="M 161.0 121 h 20"></path><g class="non-terminal ">
<path d="M 181.0 121 h 0.0"></path><path d="M 354.0 121 h 0.0"></path><rect height="22" width="173.0" x="181.0" y="110"></rect><text x="267.5" y="125">CrossReferenceChar</text></g><path d="M 354.0 121 h 20"></path><path d="M 161.0 121 a 10 10 0 0 1 10 10 v 10 a 10 10 0 0 0 10 10"></path><g class="terminal ">
<path d="M 181.0 151 h 59.5"></path><path d="M 294.5 151 h 59.5"></path><rect height="22" rx="10" ry="10" width="54.0" x="240.5" y="140"></rect><text x="267.5" y="155">text</text></g><path d="M 354.0 151 a 10 10 0 0 0 10 -10 v -10 a 10 10 0 0 1 10 -10"></path></g><path d="M 374.0 121 h 10"></path><path d="M 161.0 121 a 10 10 0 0 0 -10 10 v 29 a 10 10 0 0 0 10 10"></path><g>
<path d="M 161.0 170 h 213.0"></path></g><path d="M 374.0 170 a 10 10 0 0 0 10 -10 v -29 a 10 10 0 0 0 -10 -10"></path></g><path d="M 384.0 121 h 10"></path><path d="M 394.0 121 h 10"></path><g class="terminal ">
<path d="M 404.0 121 h 0.0"></path><path d="M 483.5 121 h 0.0"></path><rect height="22" rx="10" ry="10" width="79.5" x="404.0" y="110"></rect><text x="443.75" y="125">&#60;/note></text></g></g><path d="M 483.5 121 h 20"></path></g></g><path d="M 503.5 121 h 10"></path><path d="M 513.5 121 h 20 m 0 -10 v 20"></path></g></svg>