<svg class="railroad-diagram" height="144" viewBox="0 0 1209.5 144" width="1209.5" xmlns="http://www.w3.org/2000/svg" xmlns:xlink="http://www.w3.org/1999/xlink">
<g transform="translate(.5 .5)">
<style>/* <![CDATA[ */

    svg.railroad-diagram {
        background-color: hsl(30,20%,95%);
    }
    svg.railroad-diagram path {
        stroke-width: 2;
        stroke: black;
        fill: none;
    }
    svg.railroad-diagram text {
        font-size: 12px;
        text-anchor: middle;
        font-family: DejaVu Sans;
    }
    svg.railroad-diagram text.label {
        text-anchor:start;
    }
    svg.railroad-diagram text.comment {
        font-family: DejaVu Sans;
        font-size: 14px;
    }
    svg.railroad-diagram rect{
        stroke-width: 2;
        stroke: black;
        fill: rgb(210, 255, 210);
    }
    svg.railroad-diagram rect.group-box {
        stroke: gray;
        stroke-dasharray: 10 5;
        fill: none;
    }
    .terminal {
        font-family: DejaVu Sans;
    }
    svg.railroad-diagram g.altterminal rect {
        fill: rgb(251, 252, 207)
    }

/* ]]> */
</style><g>
<path d="M 20 55 v 20 m 0 -10 h 20"></path></g><path d="M 40 65 h 10"></path><g>
<path d="M 50 65 h 0.0"></path><path d="M 1159.5 65 h 0.0"></path><g class="terminal ">
<path d="M 50.0 65 h 0.0"></path><path d="M 95.5 65 h 0.0"></path><rect height="22" rx="10" ry="10" width="45.5" x="50.0" y="54"></rect><text x="72.75" y="69">'\'</text></g><path d="M 95.5 65 h 10"></path><path d="M 105.5 65 h 10"></path><g>
<path d="M 115.5 65 h 0.0"></path><path d="M 229.5 65 h 0.0"></path><rect class="group-box" height="88" rx="10" ry="10" width="114.0" x="115.5" y="36"></rect><g>
<path d="M 115.5 65 h 10.0"></path><path d="M 219.5 65 h 10.0"></path><g>
<path d="M 125.5 65 h 0.0"></path><path d="M 219.5 65 h 0.0"></path><path d="M 125.5 65 h 20"></path><g class="terminal ">
<path d="M 145.5 65 h 4.25"></path><path d="M 195.25 65 h 4.25"></path><rect height="22" rx="10" ry="10" width="45.5" x="149.75" y="54"></rect><text x="172.5" y="69">"x"</text></g><path d="M 199.5 65 h 20"></path><path d="M 125.5 65 a 10 10 0 0 1 10 10 v 10 a 10 10 0 0 0 10 10"></path><g class="terminal ">
<path d="M 145.5 95 h 0.0"></path><path d="M 199.5 95 h 0.0"></path><rect height="22" rx="10" ry="10" width="54.0" x="145.5" y="84"></rect><text x="172.5" y="99">"ex"</text></g><path d="M 199.5 95 a 10 10 0 0 0 10 -10 v -10 a 10 10 0 0 1 10 -10"></path></g></g><g class="non-terminal ">
<path d="M 115.5 28 h 0.0"></path><path d="M 132.5 28 h 0.0"></path><text class="comment" x="124.0" y="33">➋</text></g></g><path d="M 229.5 65 h 10"></path><path d="M 239.5 65 h 10"></path><g>
<path d="M 249.5 65 h 0.0"></path><path d="M 360.5 65 h 0.0"></path><path d="M 249.5 65 h 20"></path><g class="terminal ">
<path d="M 269.5 65 h 12.75"></path><path d="M 327.75 65 h 12.75"></path><rect height="22" rx="10" ry="10" width="45.5" x="282.25" y="54"></rect><text x="305.0" y="69">' '</text></g><path d="M 340.5 65 h 20"></path><path d="M 249.5 65 a 10 10 0 0 1 10 10 v 10 a 10 10 0 0 0 10 10"></path><g class="terminal altterminal">
<path d="M 269.5 95 h 0.0"></path><path d="M 340.5 95 h 0.0"></path><rect height="22" rx="10" ry="10" width="71.0" x="269.5" y="84"></rect><text x="305.0" y="99">TAGEND</text></g><path d="M 340.5 95 a 10 10 0 0 0 10 -10 v -10 a 10 10 0 0 1 10 -10"></path></g><path d="M 360.5 65 h 10"></path><path d="M 370.5 65 h 10"></path><g class="terminal ">
<path d="M 380.5 65 h 0.0"></path><path d="M 485.5 65 h 0.0"></path><rect height="22" rx="10" ry="10" width="105.0" x="380.5" y="54"></rect><text x="433.0" y="69">/&#91;^\\\s&#93;+/</text></g><path d="M 485.5 65 h 10"></path><path d="M 495.5 65 h 10"></path><g>
<path d="M 505.5 65 h 0.0"></path><path d="M 710.0 65 h 0.0"></path><path d="M 505.5 65 h 20"></path><g class="terminal ">
<path d="M 525.5 65 h 59.5"></path><path d="M 630.5 65 h 59.5"></path><rect height="22" rx="10" ry="10" width="45.5" x="585.0" y="54"></rect><text x="607.75" y="69">' '</text></g><path d="M 690.0 65 h 20"></path><path d="M 505.5 65 a 10 10 0 0 1 10 10 v 10 a 10 10 0 0 0 10 10"></path><g class="terminal altterminal">
<path d="M 525.5 95 h 0.0"></path><path d="M 690.0 95 h 0.0"></path><rect height="22" rx="10" ry="10" width="164.5" x="525.5" y="84"></rect><text x="607.75" y="99">/&#91;\u0009\u0020&#93;&#42;/</text></g><path d="M 690.0 95 a 10 10 0 0 0 10 -10 v -10 a 10 10 0 0 1 10 -10"></path></g><path d="M 710.0 65 h 10"></path><path d="M 720.0 65 h 10"></path><g>
<path d="M 730.0 65 h 0.0"></path><path d="M 963.0 65 h 0.0"></path><path d="M 730.0 65 a 10 10 0 0 0 10 -10 v 0 a 10 10 0 0 1 10 -10"></path><g>
<path d="M 750.0 45 h 193.0"></path></g><path d="M 943.0 45 a 10 10 0 0 1 10 10 v 0 a 10 10 0 0 0 10 10"></path><path d="M 730.0 65 h 20"></path><g>
<path d="M 750.0 65 h 0.0"></path><path d="M 943.0 65 h 0.0"></path><path d="M 750.0 65 h 10"></path><g class="non-terminal ">
<path d="M 760.0 65 h 0.0"></path><path d="M 933.0 65 h 0.0"></path><rect height="22" width="173.0" x="760.0" y="54"></rect><text x="846.5" y="69">CrossReferenceChar</text></g><path d="M 933.0 65 h 10"></path><path d="M 760.0 65 a 10 10 0 0 0 -10 10 v 0 a 10 10 0 0 0 10 10"></path><g>
<path d="M 760.0 85 h 173.0"></path></g><path d="M 933.0 85 a 10 10 0 0 0 10 -10 v 0 a 10 10 0 0 0 -10 -10"></path></g><path d="M 943.0 65 h 20"></path></g><path d="M 963.0 65 h 10"></path><path d="M 973.0 65 h 10"></path><g class="terminal ">
<path d="M 983.0 65 h 0.0"></path><path d="M 1028.5 65 h 0.0"></path><rect height="22" rx="10" ry="10" width="45.5" x="983.0" y="54"></rect><text x="1005.75" y="69">'\'</text></g><path d="M 1028.5 65 h 10"></path><path d="M 1038.5 65 h 10"></path><g class="terminal ">
<path d="M 1048.5 65 h 0.0"></path><path d="M 1094.0 65 h 0.0"></path><rect height="22" rx="10" ry="10" width="45.5" x="1048.5" y="54"></rect><text x="1071.25" y="69">⇐ ➐</text></g><path d="M 1094.0 65 h 10"></path><path d="M 1104.0 65 h 10"></path><g class="terminal ">
<path d="M 1114.0 65 h 0.0"></path><path d="M 1159.5 65 h 0.0"></path><rect height="22" rx="10" ry="10" width="45.5" x="1114.0" y="54"></rect><text x="1136.75" y="69">'&#42;'</text></g></g><path d="M 1159.5 65 h 10"></path><path d="M 1169.5 65 h 20 m 0 -10 v 20"></path></g></svg>