<svg class="railroad-diagram" height="144" viewBox="0 0 1255.5 144" width="1255.5" xmlns="http://www.w3.org/2000/svg" xmlns:xlink="http://www.w3.org/1999/xlink">
<g transform="translate(.5 .5)">
<style>/* <![CDATA[ */

    svg.railroad-diagram {
        background-color: hsl(30,20%,95%);
    }
    svg.railroad-diagram path {
        stroke-width: 2;
        stroke: black;
        fill: none;
    }
    svg.railroad-diagram text {
        font-size: 12px;
        text-anchor: middle;
        font-family: DejaVu Sans;
    }
    svg.railroad-diagram text.label {
        text-anchor:start;
    }
    svg.railroad-diagram text.comment {
        font-family: DejaVu Sans;
        font-size: 14px;
    }
    svg.railroad-diagram rect{
        stroke-width: 2;
        stroke: black;
        fill: rgb(210, 255, 210);
    }
    svg.railroad-diagram rect.group-box {
        stroke: gray;
        stroke-dasharray: 10 5;
        fill: none;
    }
    .terminal {
        font-family: DejaVu Sans;
    }
    svg.railroad-diagram g.altterminal rect {
        fill: rgb(251, 252, 207)
    }

/* ]]> */
</style><g>
<path d="M 20 55 v 20 m 0 -10 h 20"></path></g><path d="M 40 65 h 10"></path><g>
<path d="M 50 65 h 0.0"></path><path d="M 1205.5 65 h 0.0"></path><g class="terminal ">
<path d="M 50.0 65 h 0.0"></path><path d="M 104.0 65 h 0.0"></path><rect height="22" rx="10" ry="10" width="54.0" x="50.0" y="54"></rect><text x="77.0" y="69">'\\'</text></g><path d="M 104.0 65 h 10"></path><path d="M 114.0 65 h 10"></path><g>
<path d="M 124.0 65 h 0.0"></path><path d="M 238.0 65 h 0.0"></path><rect class="group-box" height="88" rx="10" ry="10" width="114.0" x="124.0" y="36"></rect><g>
<path d="M 124.0 65 h 10.0"></path><path d="M 228.0 65 h 10.0"></path><g>
<path d="M 134.0 65 h 0.0"></path><path d="M 228.0 65 h 0.0"></path><path d="M 134.0 65 h 20"></path><g class="terminal ">
<path d="M 154.0 65 h 0.0"></path><path d="M 208.0 65 h 0.0"></path><rect height="22" rx="10" ry="10" width="54.0" x="154.0" y="54"></rect><text x="181.0" y="69">"ex"</text></g><path d="M 208.0 65 h 20"></path><path d="M 134.0 65 a 10 10 0 0 1 10 10 v 10 a 10 10 0 0 0 10 10"></path><g class="terminal ">
<path d="M 154.0 95 h 4.25"></path><path d="M 203.75 95 h 4.25"></path><rect height="22" rx="10" ry="10" width="45.5" x="158.25" y="84"></rect><text x="181.0" y="99">"x"</text></g><path d="M 208.0 95 a 10 10 0 0 0 10 -10 v -10 a 10 10 0 0 1 10 -10"></path></g></g><g class="non-terminal ">
<path d="M 124.0 28 h 0.0"></path><path d="M 141.0 28 h 0.0"></path><text class="comment" x="132.5" y="33">➋</text></g></g><path d="M 238.0 65 h 10"></path><path d="M 248.0 65 h 10"></path><g>
<path d="M 258.0 65 h 0.0"></path><path d="M 369.0 65 h 0.0"></path><path d="M 258.0 65 h 20"></path><g class="terminal ">
<path d="M 278.0 65 h 12.75"></path><path d="M 336.25 65 h 12.75"></path><rect height="22" rx="10" ry="10" width="45.5" x="290.75" y="54"></rect><text x="313.5" y="69">' '</text></g><path d="M 349.0 65 h 20"></path><path d="M 258.0 65 a 10 10 0 0 1 10 10 v 10 a 10 10 0 0 0 10 10"></path><g class="terminal altterminal">
<path d="M 278.0 95 h 0.0"></path><path d="M 349.0 95 h 0.0"></path><rect height="22" rx="10" ry="10" width="71.0" x="278.0" y="84"></rect><text x="313.5" y="99">TAGEND</text></g><path d="M 349.0 95 a 10 10 0 0 0 10 -10 v -10 a 10 10 0 0 1 10 -10"></path></g><path d="M 369.0 65 h 10"></path><path d="M 379.0 65 h 10"></path><g class="terminal ">
<path d="M 389.0 65 h 0.0"></path><path d="M 494.0 65 h 0.0"></path><rect height="22" rx="10" ry="10" width="105.0" x="389.0" y="54"></rect><text x="441.5" y="69">/&#91;^\\\s&#93;+/</text></g><path d="M 494.0 65 h 10"></path><path d="M 504.0 65 h 10"></path><g>
<path d="M 514.0 65 h 0.0"></path><path d="M 599.5 65 h 0.0"></path><path d="M 514.0 65 h 20"></path><g class="terminal ">
<path d="M 534.0 65 h 0.0"></path><path d="M 579.5 65 h 0.0"></path><rect height="22" rx="10" ry="10" width="45.5" x="534.0" y="54"></rect><text x="556.75" y="69">' '</text></g><path d="M 579.5 65 h 20"></path><path d="M 514.0 65 a 10 10 0 0 1 10 10 v 10 a 10 10 0 0 0 10 10"></path><g class="terminal altterminal">
<path d="M 534.0 95 h 4.25"></path><path d="M 575.25 95 h 4.25"></path><rect height="22" rx="10" ry="10" width="37.0" x="538.25" y="84"></rect><text x="556.75" y="99">Hs</text></g><path d="M 579.5 95 a 10 10 0 0 0 10 -10 v -10 a 10 10 0 0 1 10 -10"></path></g><path d="M 599.5 65 h 10"></path><path d="M 609.5 65 h 10"></path><g>
<path d="M 619.5 65 h 0.0"></path><path d="M 747.5 65 h 0.0"></path><path d="M 619.5 65 h 20"></path><g>
<path d="M 639.5 65 h 88.0"></path></g><path d="M 727.5 65 h 20"></path><path d="M 619.5 65 a 10 10 0 0 1 10 10 v 0 a 10 10 0 0 0 10 10"></path><g class="non-terminal ">
<path d="M 639.5 85 h 0.0"></path><path d="M 727.5 85 h 0.0"></path><rect height="22" width="88.0" x="639.5" y="74"></rect><text x="683.5" y="89">category</text></g><path d="M 727.5 85 a 10 10 0 0 0 10 -10 v 0 a 10 10 0 0 1 10 -10"></path></g><path d="M 747.5 65 h 10"></path><path d="M 757.5 65 h 10"></path><g>
<path d="M 767.5 65 h 0.0"></path><path d="M 1000.5 65 h 0.0"></path><path d="M 767.5 65 a 10 10 0 0 0 10 -10 v 0 a 10 10 0 0 1 10 -10"></path><g>
<path d="M 787.5 45 h 193.0"></path></g><path d="M 980.5 45 a 10 10 0 0 1 10 10 v 0 a 10 10 0 0 0 10 10"></path><path d="M 767.5 65 h 20"></path><g>
<path d="M 787.5 65 h 0.0"></path><path d="M 980.5 65 h 0.0"></path><path d="M 787.5 65 h 10"></path><g class="non-terminal ">
<path d="M 797.5 65 h 0.0"></path><path d="M 970.5 65 h 0.0"></path><rect height="22" width="173.0" x="797.5" y="54"></rect><text x="884.0" y="69">CrossReferenceChar</text></g><path d="M 970.5 65 h 10"></path><path d="M 797.5 65 a 10 10 0 0 0 -10 10 v 0 a 10 10 0 0 0 10 10"></path><g>
<path d="M 797.5 85 h 173.0"></path></g><path d="M 970.5 85 a 10 10 0 0 0 10 -10 v 0 a 10 10 0 0 0 -10 -10"></path></g><path d="M 980.5 65 h 20"></path></g><path d="M 1000.5 65 h 10"></path><path d="M 1010.5 65 h 10"></path><g class="terminal ">
<path d="M 1020.5 65 h 0.0"></path><path d="M 1074.5 65 h 0.0"></path><rect height="22" rx="10" ry="10" width="54.0" x="1020.5" y="54"></rect><text x="1047.5" y="69">'\\'</text></g><path d="M 1074.5 65 h 10"></path><path d="M 1084.5 65 h 10"></path><g class="terminal ">
<path d="M 1094.5 65 h 0.0"></path><path d="M 1140.0 65 h 0.0"></path><rect height="22" rx="10" ry="10" width="45.5" x="1094.5" y="54"></rect><text x="1117.25" y="69">⇐ ➋</text></g><path d="M 1140.0 65 h 10"></path><path d="M 1150.0 65 h 10"></path><g class="terminal ">
<path d="M 1160.0 65 h 0.0"></path><path d="M 1205.5 65 h 0.0"></path><rect height="22" rx="10" ry="10" width="45.5" x="1160.0" y="54"></rect><text x="1182.75" y="69">'&#42;'</text></g></g><path d="M 1205.5 65 h 10"></path><path d="M 1215.5 65 h 20 m 0 -10 v 20"></path></g></svg>