<svg class="railroad-diagram" height="250" viewBox="0 0 464.0 250" width="464.0" xmlns="http://www.w3.org/2000/svg" xmlns:xlink="http://www.w3.org/1999/xlink">
<g transform="translate(.5 .5)">
<style>/* <![CDATA[ */

    svg.railroad-diagram {
        background-color:hsl(30,20%,95%);
    }
    svg.railroad-diagram path {
        stroke-width: 2;
        stroke: black;
        fill: none;
    }
    svg.railroad-diagram text {
        font-size: 12px;
        text-anchor: middle;
        font-family: DejaVu Sans;
    }
    svg.railroad-diagram text.label {
        text-anchor:start;
    }
    svg.railroad-diagram text.comment {
        font-family: DejaVu Sans;
        font-size: 14px;
    }
    svg.railroad-diagram rect{
        stroke-width: 2;
        stroke:black;
        fill: rgb(210, 210, 255);
    }
    svg.railroad-diagram rect.group-box {
        stroke: gray;
        stroke-dasharray: 10 5;
        fill: none;
    }
    .terminal {
        font-family: DejaVu Sans;
    }

/* ]]> */
</style><g>
<path d="M 20 151 v 20 m 0 -10 h 20"></path></g><path d="M 40 161 h 10"></path><g>
<path d="M 50 161 h 0.0"></path><path d="M 414.0 161 h 0.0"></path><g>
<path d="M 50.0 161 h 0.0"></path><path d="M 414.0 161 h 0.0"></path><g class="terminal ">
<path d="M 50.0 161 h 0.0"></path><path d="M 121.0 161 h 0.0"></path><rect height="22" rx="10" ry="10" width="71.0" x="50.0" y="150"></rect><text x="85.5" y="165">&#60;note></text></g><path d="M 121.0 161 h 10"></path><path d="M 131.0 161 h 10"></path><g>
<path d="M 141.0 161 h 0.0"></path><path d="M 414.0 161 h 0.0"></path><path d="M 141.0 161 a 10 10 0 0 0 10 -10 v -60 a 10 10 0 0 1 10 -10"></path><g>
<path d="M 161.0 81 h 0.0"></path><path d="M 346.0 81 h 0.0"></path><g class="terminal ">
<path d="M 161.0 81 h 0.0"></path><path d="M 232.0 81 h 0.0"></path><rect height="22" rx="10" ry="10" width="71.0" x="161.0" y="70"></rect><text x="196.5" y="85">@style</text></g><path d="M 232.0 81 h 10"></path><path d="M 242.0 81 h 10"></path><g>
<path d="M 252.0 81 h 0.0"></path><path d="M 252.0 81 h 20"></path><g class="terminal ">
<path d="M 272.0 81 h 0.0"></path><path d="M 317.5 81 h 0.0"></path><rect height="22" rx="10" ry="10" width="45.5" x="272.0" y="70"></rect><text x="294.75" y="85">"x"</text></g><path d="M 252.0 81 a 10 10 0 0 1 10 10 v 10 a 10 10 0 0 0 10 10"></path><g class="terminal ">
<path d="M 272.0 111 h 0.0"></path><path d="M 326.0 111 h 0.0"></path><rect height="22" rx="10" ry="10" width="54.0" x="272.0" y="100"></rect><text x="299.0" y="115">"ex"</text></g></g></g><path d="M 141.0 161 a 10 10 0 0 0 10 -10 v -100 a 10 10 0 0 1 10 -10"></path><g>
<path d="M 161.0 41 h 0.0"></path><path d="M 314.5 41 h 0.0"></path><g class="terminal ">
<path d="M 161.0 41 h 0.0"></path><path d="M 240.5 41 h 0.0"></path><rect height="22" rx="10" ry="10" width="79.5" x="161.0" y="30"></rect><text x="200.75" y="45">@caller</text></g><path d="M 240.5 41 h 10"></path><path d="M 250.5 41 h 10"></path><g class="terminal ">
<path d="M 260.5 41 h 0.0"></path><path d="M 314.5 41 h 0.0"></path><rect height="22" rx="10" ry="10" width="54.0" x="260.5" y="30"></rect><text x="287.5" y="45">TEXT</text></g></g><path d="M 141.0 161 h 20"></path><g>
<path d="M 161.0 161 h 0.0"></path><path d="M 394.0 161 h 0.0"></path><path d="M 161.0 161 h 10"></path><g>
<path d="M 171.0 161 h 0.0"></path><path d="M 384.0 161 h 0.0"></path><path d="M 171.0 161 h 20"></path><g class="non-terminal ">
<path d="M 191.0 161 h 0.0"></path><path d="M 364.0 161 h 0.0"></path><rect height="22" width="173.0" x="191.0" y="150"></rect><text x="277.5" y="165">CrossReferenceChar</text></g><path d="M 364.0 161 h 20"></path><path d="M 171.0 161 a 10 10 0 0 1 10 10 v 10 a 10 10 0 0 0 10 10"></path><g class="terminal ">
<path d="M 191.0 191 h 59.5"></path><path d="M 304.5 191 h 59.5"></path><rect height="22" rx="10" ry="10" width="54.0" x="250.5" y="180"></rect><text x="277.5" y="195">TEXT</text></g><path d="M 364.0 191 a 10 10 0 0 0 10 -10 v -10 a 10 10 0 0 1 10 -10"></path></g><path d="M 384.0 161 h 10"></path><path d="M 171.0 161 a 10 10 0 0 0 -10 10 v 39 a 10 10 0 0 0 10 10"></path><g>
<path d="M 171.0 220 h 213.0"></path></g><path d="M 384.0 220 a 10 10 0 0 0 10 -10 v -39 a 10 10 0 0 0 -10 -10"></path></g><path d="M 394.0 161 h 20"></path></g></g></g><path d="M 414.0 161 h 10"></path><path d="M 424.0 161 h 20 m 0 -10 v 20"></path></g></svg>