<svg class="railroad-diagram" height="222" viewBox="0 0 474.0 222" width="474.0" xmlns="http://www.w3.org/2000/svg" xmlns:xlink="http://www.w3.org/1999/xlink">
<g transform="translate(.5 .5)">
<style>/* <![CDATA[ */
    svg.railroad-diagram {
        background-color:hsl(30,20%,95%);
    }
    svg.railroad-diagram path {
        stroke-width: 2;
        stroke: black;
        fill: none;
    }
    svg.railroad-diagram text {
        font-size: 12px;
        text-anchor: middle;
        font-family: DejaVu Sans;
    }
    svg.railroad-diagram text.label {
        text-anchor:start;
    }
    svg.railroad-diagram text.comment {
        font-family: DejaVu Sans;
        font-size: 14px;
    }
    svg.railroad-diagram rect{
        stroke-width: 2;
        stroke:black;
        fill: rgb(210, 210, 255);
    }
    svg.railroad-diagram rect.group-box {
        stroke: gray;
        stroke-dasharray: 10 5;
        fill: none;
    }
    .terminal {
        font-family: DejaVu Sans;
    }

/* ]]> */
</style><g>
<path d="M 20 135 v 20 m 0 -10 h 20"></path></g><path d="M 40 145 h 10"></path><g>
<path d="M 50 145 h 0.0"></path><path d="M 424.0 145 h 0.0"></path><rect class="group-box" height="166" rx="10" ry="10" width="374.0" x="50.0" y="36"></rect><g>
<path d="M 50.0 145 h 10.0"></path><path d="M 414.0 145 h 10.0"></path><g class="terminal ">
<path d="M 60.0 145 h 0.0"></path><path d="M 131.0 145 h 0.0"></path><rect height="22" rx="10" ry="10" width="71.0" x="60.0" y="134"></rect><text x="95.5" y="149">&#60;note></text></g><path d="M 131.0 145 h 10"></path><g>
<path d="M 141.0 145 h 0.0"></path><path d="M 414.0 145 h 0.0"></path><path d="M 141.0 145 a 10 10 0 0 0 10 -10 v -10 a 10 10 0 0 1 10 -10"></path><g>
<path d="M 161.0 115 h 0.0"></path><path d="M 314.5 115 h 0.0"></path><g class="terminal ">
<path d="M 161.0 115 h 0.0"></path><path d="M 240.5 115 h 0.0"></path><rect height="22" rx="10" ry="10" width="79.5" x="161.0" y="104"></rect><text x="200.75" y="119">@caller</text></g><path d="M 240.5 115 h 10"></path><path d="M 250.5 115 h 10"></path><g class="terminal ">
<path d="M 260.5 115 h 0.0"></path><path d="M 314.5 115 h 0.0"></path><rect height="22" rx="10" ry="10" width="54.0" x="260.5" y="104"></rect><text x="287.5" y="119">text</text></g></g><path d="M 141.0 145 a 10 10 0 0 0 10 -10 v -40 a 10 10 0 0 1 10 -10"></path><g>
<path d="M 161.0 85 h 0.0"></path><path d="M 336.0 85 h 0.0"></path><g class="terminal ">
<path d="M 161.0 85 h 0.0"></path><path d="M 232.0 85 h 0.0"></path><rect height="22" rx="10" ry="10" width="71.0" x="161.0" y="74"></rect><text x="196.5" y="89">@style</text></g><path d="M 232.0 85 h 10"></path><g>
<path d="M 242.0 85 h 0.0"></path><path d="M 242.0 85 a 10 10 0 0 0 10 -10 v -10 a 10 10 0 0 1 10 -10"></path><g class="terminal ">
<path d="M 262.0 55 h 0.0"></path><path d="M 307.5 55 h 0.0"></path><rect height="22" rx="10" ry="10" width="45.5" x="262.0" y="44"></rect><text x="284.75" y="59">"x"</text></g><path d="M 242.0 85 h 20"></path><g class="terminal ">
<path d="M 262.0 85 h 0.0"></path><path d="M 316.0 85 h 0.0"></path><rect height="22" rx="10" ry="10" width="54.0" x="262.0" y="74"></rect><text x="289.0" y="89">"ex"</text></g></g></g><path d="M 141.0 145 h 20"></path><g>
<path d="M 161.0 145 h 0.0"></path><path d="M 394.0 145 h 0.0"></path><path d="M 161.0 145 h 10"></path><g>
<path d="M 171.0 145 h 0.0"></path><path d="M 384.0 145 h 0.0"></path><path d="M 171.0 145 h 20"></path><g class="non-terminal ">
<path d="M 191.0 145 h 0.0"></path><path d="M 364.0 145 h 0.0"></path><rect height="22" width="173.0" x="191.0" y="134"></rect><text x="277.5" y="149">CrossReferenceChar</text></g><path d="M 364.0 145 h 20"></path><path d="M 171.0 145 a 10 10 0 0 1 10 10 v 10 a 10 10 0 0 0 10 10"></path><g class="terminal ">
<path d="M 191.0 175 h 59.5"></path><path d="M 304.5 175 h 59.5"></path><rect height="22" rx="10" ry="10" width="54.0" x="250.5" y="164"></rect><text x="277.5" y="179">text</text></g><path d="M 364.0 175 a 10 10 0 0 0 10 -10 v -10 a 10 10 0 0 1 10 -10"></path></g><path d="M 384.0 145 h 10"></path><path d="M 171.0 145 a 10 10 0 0 0 -10 10 v 29 a 10 10 0 0 0 10 10"></path><g>
<path d="M 171.0 194 h 213.0"></path></g><path d="M 384.0 194 a 10 10 0 0 0 10 -10 v -29 a 10 10 0 0 0 -10 -10"></path></g><path d="M 394.0 145 h 20"></path></g></g><g class="non-terminal ">
<path d="M 50.0 28 h 0.0"></path><path d="M 158.0 28 h 0.0"></path><text class="comment" x="104.0" y="33">CrossReference</text></g></g><path d="M 424.0 145 h 10"></path><path d="M 434.0 145 h 20 m 0 -10 v 20"></path></g></svg>