<svg class="railroad-diagram" height="300" viewBox="0 0 612.0 300" width="612.0" xmlns="http://www.w3.org/2000/svg" xmlns:xlink="http://www.w3.org/1999/xlink">
<g transform="translate(.5 .5)">
<style>/* <![CDATA[ */

    svg.railroad-diagram {
        background-color: hsl(30,20%,95%);
    }
    svg.railroad-diagram path {
        stroke-width: 2;
        stroke: black;
        fill: none;
    }
    svg.railroad-diagram text {
        font-size: 12px;
        text-anchor: middle;
        font-family: DejaVu Sans;
    }
    svg.railroad-diagram text.label {
        text-anchor:start;
    }
    svg.railroad-diagram text.comment {
        font-family: DejaVu Sans;
        font-size: 14px;
    }
    svg.railroad-diagram rect{
        stroke-width: 2;
        stroke: black;
        fill: rgb(210, 210, 255);
    }
    svg.railroad-diagram rect.group-box {
        stroke: gray;
        stroke-dasharray: 10 5;
        fill: none;
    }
    .terminal {
        font-family: DejaVu Sans;
    }
    svg.railroad-diagram g.altterminal rect {
        fill: rgb(251, 252, 207)
    }

/* ]]> */
</style><g>
<path d="M 20 140 v 20 m 0 -10 h 20"></path></g><path d="M 40 150 h 10"></path><g>
<path d="M 50 150 h 0.0"></path><path d="M 562.0 150 h 0.0"></path><g>
<path d="M 50.0 150 h 0.0"></path><path d="M 562.0 150 h 0.0"></path><g class="terminal ">
<path d="M 50.0 150 h 0.0"></path><path d="M 121.0 150 h 0.0"></path><rect height="22" rx="10" ry="10" width="71.0" x="50.0" y="139"></rect><text x="85.5" y="154">&#60;note></text></g><path d="M 121.0 150 h 10"></path><path d="M 131.0 150 h 10"></path><g>
<path d="M 141.0 150 h 0.0"></path><path d="M 562.0 150 h 0.0"></path><path d="M 141.0 150 a 10 10 0 0 0 10 -10 v -49 a 10 10 0 0 1 10 -10"></path><g>
<path d="M 161.0 81 h 0.0"></path><path d="M 346.0 81 h 0.0"></path><g class="terminal ">
<path d="M 161.0 81 h 0.0"></path><path d="M 232.0 81 h 0.0"></path><rect height="22" rx="10" ry="10" width="71.0" x="161.0" y="70"></rect><text x="196.5" y="85">@style</text></g><path d="M 232.0 81 h 10"></path><path d="M 242.0 81 h 10"></path><g>
<path d="M 252.0 81 h 0.0"></path><path d="M 252.0 81 h 20"></path><g class="terminal ">
<path d="M 272.0 81 h 0.0"></path><path d="M 326.0 81 h 0.0"></path><rect height="22" rx="10" ry="10" width="54.0" x="272.0" y="70"></rect><text x="299.0" y="85">"ex"</text></g><path d="M 252.0 81 a 10 10 0 0 1 10 10 v 10 a 10 10 0 0 0 10 10"></path><g class="terminal ">
<path d="M 272.0 111 h 0.0"></path><path d="M 317.5 111 h 0.0"></path><rect height="22" rx="10" ry="10" width="45.5" x="272.0" y="100"></rect><text x="294.75" y="115">"x"</text></g></g></g><path d="M 141.0 150 a 10 10 0 0 0 10 -10 v -89 a 10 10 0 0 1 10 -10"></path><g>
<path d="M 161.0 41 h 0.0"></path><path d="M 314.5 41 h 0.0"></path><g class="terminal ">
<path d="M 161.0 41 h 0.0"></path><path d="M 240.5 41 h 0.0"></path><rect height="22" rx="10" ry="10" width="79.5" x="161.0" y="30"></rect><text x="200.75" y="45">@caller</text></g><path d="M 240.5 41 h 10"></path><path d="M 250.5 41 h 10"></path><g class="terminal ">
<path d="M 260.5 41 h 0.0"></path><path d="M 314.5 41 h 0.0"></path><rect height="22" rx="10" ry="10" width="54.0" x="260.5" y="30"></rect><text x="287.5" y="45">TEXT</text></g></g><path d="M 141.0 150 h 20"></path><g>
<path d="M 161.0 150 h 105.25"></path><path d="M 436.75 150 h 105.25"></path><g>
<path d="M 266.25 150 h 0.0"></path><path d="M 436.75 150 h 0.0"></path><path d="M 266.25 150 h 20"></path><g>
<path d="M 286.25 150 h 130.5"></path></g><path d="M 416.75 150 h 20"></path><path d="M 266.25 150 a 10 10 0 0 1 10 10 v 0 a 10 10 0 0 0 10 10"></path><g class="non-terminal ">
<path d="M 286.25 170 h 0.0"></path><path d="M 416.75 170 h 0.0"></path><rect height="22" width="130.5" x="286.25" y="159"></rect><text x="351.5" y="174">AttributesPre</text></g><path d="M 416.75 170 a 10 10 0 0 0 10 -10 v 0 a 10 10 0 0 1 10 -10"></path></g></g><path d="M 542.0 150 h 20"></path><path d="M 141.0 150 a 10 10 0 0 1 10 10 v 59 a 10 10 0 0 0 10 10"></path><g>
<path d="M 161.0 229 h 0.0"></path><path d="M 542.0 229 h 0.0"></path><g>
<path d="M 161.0 229 h 0.0"></path><path d="M 289.0 229 h 0.0"></path><path d="M 161.0 229 h 20"></path><g>
<path d="M 181.0 229 h 88.0"></path></g><path d="M 269.0 229 h 20"></path><path d="M 161.0 229 a 10 10 0 0 1 10 10 v 0 a 10 10 0 0 0 10 10"></path><g class="non-terminal ">
<path d="M 181.0 249 h 0.0"></path><path d="M 269.0 249 h 0.0"></path><rect height="22" width="88.0" x="181.0" y="238"></rect><text x="225.0" y="253">category</text></g><path d="M 269.0 249 a 10 10 0 0 0 10 -10 v 0 a 10 10 0 0 1 10 -10"></path></g><path d="M 289.0 229 h 10"></path><path d="M 299.0 229 h 10"></path><g>
<path d="M 309.0 229 h 0.0"></path><path d="M 542.0 229 h 0.0"></path><path d="M 309.0 229 a 10 10 0 0 0 10 -10 v 0 a 10 10 0 0 1 10 -10"></path><g>
<path d="M 329.0 209 h 193.0"></path></g><path d="M 522.0 209 a 10 10 0 0 1 10 10 v 0 a 10 10 0 0 0 10 10"></path><path d="M 309.0 229 h 20"></path><g>
<path d="M 329.0 229 h 0.0"></path><path d="M 522.0 229 h 0.0"></path><path d="M 329.0 229 h 10"></path><g class="non-terminal ">
<path d="M 339.0 229 h 0.0"></path><path d="M 512.0 229 h 0.0"></path><rect height="22" width="173.0" x="339.0" y="218"></rect><text x="425.5" y="233">CrossReferenceChar</text></g><path d="M 512.0 229 h 10"></path><path d="M 339.0 229 a 10 10 0 0 0 -10 10 v 0 a 10 10 0 0 0 10 10"></path><g>
<path d="M 339.0 249 h 173.0"></path></g><path d="M 512.0 249 a 10 10 0 0 0 10 -10 v 0 a 10 10 0 0 0 -10 -10"></path></g><path d="M 522.0 229 h 20"></path></g></g><path d="M 542.0 229 a 10 10 0 0 0 10 -10 v -59 a 10 10 0 0 1 10 -10"></path></g></g></g><path d="M 562.0 150 h 10"></path><path d="M 572.0 150 h 20 m 0 -10 v 20"></path></g></svg>