<svg class="railroad-diagram" height="270" viewBox="0 0 880.0 270" width="880.0" xmlns="http://www.w3.org/2000/svg" xmlns:xlink="http://www.w3.org/1999/xlink">
<g transform="translate(.5 .5)">
<style>/* <![CDATA[ */

    svg.railroad-diagram {
        background-color: hsl(30,20%,95%);
    }
    svg.railroad-diagram path {
        stroke-width: 2;
        stroke: black;
        fill: none;
    }
    svg.railroad-diagram text {
        font-size: 12px;
        text-anchor: middle;
        font-family: DejaVu Sans;
    }
    svg.railroad-diagram text.label {
        text-anchor:start;
    }
    svg.railroad-diagram text.comment {
        font-family: DejaVu Sans;
        font-size: 14px;
    }
    svg.railroad-diagram rect{
        stroke-width: 2;
        stroke: black;
        fill: rgb(210, 255, 210);
    }
    svg.railroad-diagram rect.group-box {
        stroke: gray;
        stroke-dasharray: 10 5;
        fill: none;
    }
    .terminal {
        font-family: DejaVu Sans;
    }
    svg.railroad-diagram g.altterminal rect {
        fill: rgb(251, 252, 207)
    }

/* ]]> */
</style><g>
<path d="M 20 55 v 20 m 0 -10 h 20"></path></g><path d="M 40 65 h 10"></path><g>
<path d="M 50 65 h 0.0"></path><path d="M 830.0 239 h 0.0"></path><g>
<path d="M 50.0 65 h 0.0"></path><path d="M 50.0 65 h 10"></path><g>
<path d="M 60.0 65 h 10.0"></path><path d="M 810.0 65 h 10.0"></path><g class="terminal ">
<path d="M 70.0 65 h 0.0"></path><path d="M 124.0 65 h 0.0"></path><rect height="22" rx="10" ry="10" width="54.0" x="70.0" y="54"></rect><text x="97.0" y="69">'\\'</text></g><path d="M 124.0 65 h 10"></path><path d="M 134.0 65 h 10"></path><g>
<path d="M 144.0 65 h 0.0"></path><path d="M 258.0 65 h 0.0"></path><rect class="group-box" height="88" rx="10" ry="10" width="114.0" x="144.0" y="36"></rect><g>
<path d="M 144.0 65 h 10.0"></path><path d="M 248.0 65 h 10.0"></path><g>
<path d="M 154.0 65 h 0.0"></path><path d="M 248.0 65 h 0.0"></path><path d="M 154.0 65 h 20"></path><g class="terminal ">
<path d="M 174.0 65 h 0.0"></path><path d="M 228.0 65 h 0.0"></path><rect height="22" rx="10" ry="10" width="54.0" x="174.0" y="54"></rect><text x="201.0" y="69">"ex"</text></g><path d="M 228.0 65 h 20"></path><path d="M 154.0 65 a 10 10 0 0 1 10 10 v 10 a 10 10 0 0 0 10 10"></path><g class="terminal ">
<path d="M 174.0 95 h 4.25"></path><path d="M 223.75 95 h 4.25"></path><rect height="22" rx="10" ry="10" width="45.5" x="178.25" y="84"></rect><text x="201.0" y="99">"x"</text></g><path d="M 228.0 95 a 10 10 0 0 0 10 -10 v -10 a 10 10 0 0 1 10 -10"></path></g></g><g class="non-terminal ">
<path d="M 144.0 28 h 0.0"></path><path d="M 161.0 28 h 0.0"></path><text class="comment" x="152.5" y="33">➋</text></g></g><path d="M 258.0 65 h 10"></path><path d="M 268.0 65 h 10"></path><g>
<path d="M 278.0 65 h 0.0"></path><path d="M 389.0 65 h 0.0"></path><path d="M 278.0 65 h 20"></path><g class="terminal ">
<path d="M 298.0 65 h 12.75"></path><path d="M 356.25 65 h 12.75"></path><rect height="22" rx="10" ry="10" width="45.5" x="310.75" y="54"></rect><text x="333.5" y="69">' '</text></g><path d="M 369.0 65 h 20"></path><path d="M 278.0 65 a 10 10 0 0 1 10 10 v 10 a 10 10 0 0 0 10 10"></path><g class="terminal altterminal">
<path d="M 298.0 95 h 0.0"></path><path d="M 369.0 95 h 0.0"></path><rect height="22" rx="10" ry="10" width="71.0" x="298.0" y="84"></rect><text x="333.5" y="99">TAGEND</text></g><path d="M 369.0 95 a 10 10 0 0 0 10 -10 v -10 a 10 10 0 0 1 10 -10"></path></g><path d="M 389.0 65 h 10"></path><path d="M 399.0 65 h 10"></path><g>
<path d="M 409.0 65 h 0.0"></path><path d="M 579.5 65 h 0.0"></path><path d="M 409.0 65 h 20"></path><g>
<path d="M 429.0 65 h 130.5"></path></g><path d="M 559.5 65 h 20"></path><path d="M 409.0 65 a 10 10 0 0 1 10 10 v 0 a 10 10 0 0 0 10 10"></path><g class="non-terminal ">
<path d="M 429.0 85 h 0.0"></path><path d="M 559.5 85 h 0.0"></path><rect height="22" width="130.5" x="429.0" y="74"></rect><text x="494.25" y="89">AttributesPre</text></g><path d="M 559.5 85 a 10 10 0 0 0 10 -10 v 0 a 10 10 0 0 1 10 -10"></path></g><path d="M 579.5 65 h 10"></path><path d="M 589.5 65 h 10"></path><g class="terminal ">
<path d="M 599.5 65 h 0.0"></path><path d="M 704.5 65 h 0.0"></path><rect height="22" rx="10" ry="10" width="105.0" x="599.5" y="54"></rect><text x="652.0" y="69">/&#91;^\\\s&#93;+/</text></g><path d="M 704.5 65 h 10"></path><path d="M 714.5 65 h 10"></path><g>
<path d="M 724.5 65 h 0.0"></path><path d="M 810.0 65 h 0.0"></path><path d="M 724.5 65 h 20"></path><g class="terminal ">
<path d="M 744.5 65 h 0.0"></path><path d="M 790.0 65 h 0.0"></path><rect height="22" rx="10" ry="10" width="45.5" x="744.5" y="54"></rect><text x="767.25" y="69">' '</text></g><path d="M 790.0 65 h 20"></path><path d="M 724.5 65 a 10 10 0 0 1 10 10 v 10 a 10 10 0 0 0 10 10"></path><g class="terminal altterminal">
<path d="M 744.5 95 h 4.25"></path><path d="M 785.75 95 h 4.25"></path><rect height="22" rx="10" ry="10" width="37.0" x="748.75" y="84"></rect><text x="767.25" y="99">Hs</text></g><path d="M 790.0 95 a 10 10 0 0 0 10 -10 v -10 a 10 10 0 0 1 10 -10"></path></g></g><path d="M 820.0 65 a 10 10 0 0 1 10 10 v 47 a 10 10 0 0 1 -10 10 h -760.0 a 10 10 0 0 0 -10 10 v 18 a 10 10 0 0 0 10 10"></path><g>
<path d="M 60.0 170 h 189.5"></path><path d="M 630.5 170 h 189.5"></path><g>
<path d="M 249.5 170 h 0.0"></path><path d="M 377.5 170 h 0.0"></path><path d="M 249.5 170 h 20"></path><g>
<path d="M 269.5 170 h 88.0"></path></g><path d="M 357.5 170 h 20"></path><path d="M 249.5 170 a 10 10 0 0 1 10 10 v 0 a 10 10 0 0 0 10 10"></path><g class="non-terminal ">
<path d="M 269.5 190 h 0.0"></path><path d="M 357.5 190 h 0.0"></path><rect height="22" width="88.0" x="269.5" y="179"></rect><text x="313.5" y="194">category</text></g><path d="M 357.5 190 a 10 10 0 0 0 10 -10 v 0 a 10 10 0 0 1 10 -10"></path></g><path d="M 377.5 170 h 10"></path><path d="M 387.5 170 h 10"></path><g>
<path d="M 397.5 170 h 0.0"></path><path d="M 630.5 170 h 0.0"></path><path d="M 397.5 170 a 10 10 0 0 0 10 -10 v 0 a 10 10 0 0 1 10 -10"></path><g>
<path d="M 417.5 150 h 193.0"></path></g><path d="M 610.5 150 a 10 10 0 0 1 10 10 v 0 a 10 10 0 0 0 10 10"></path><path d="M 397.5 170 h 20"></path><g>
<path d="M 417.5 170 h 0.0"></path><path d="M 610.5 170 h 0.0"></path><path d="M 417.5 170 h 10"></path><g class="non-terminal ">
<path d="M 427.5 170 h 0.0"></path><path d="M 600.5 170 h 0.0"></path><rect height="22" width="173.0" x="427.5" y="159"></rect><text x="514.0" y="174">CrossReferenceChar</text></g><path d="M 600.5 170 h 10"></path><path d="M 427.5 170 a 10 10 0 0 0 -10 10 v 0 a 10 10 0 0 0 10 10"></path><g>
<path d="M 427.5 190 h 173.0"></path></g><path d="M 600.5 190 a 10 10 0 0 0 10 -10 v 0 a 10 10 0 0 0 -10 -10"></path></g><path d="M 610.5 170 h 20"></path></g></g><path d="M 820.0 170 a 10 10 0 0 1 10 10 v 29 a 10 10 0 0 1 -10 10 h -760.0 a 10 10 0 0 0 -10 10 v 0 a 10 10 0 0 0 10 10"></path><g>
<path d="M 60.0 239 h 287.5"></path><path d="M 532.5 239 h 287.5"></path><g class="terminal ">
<path d="M 347.5 239 h 0.0"></path><path d="M 401.5 239 h 0.0"></path><rect height="22" rx="10" ry="10" width="54.0" x="347.5" y="228"></rect><text x="374.5" y="243">'\\'</text></g><path d="M 401.5 239 h 10"></path><path d="M 411.5 239 h 10"></path><g class="terminal ">
<path d="M 421.5 239 h 0.0"></path><path d="M 467.0 239 h 0.0"></path><rect height="22" rx="10" ry="10" width="45.5" x="421.5" y="228"></rect><text x="444.25" y="243">⇐ ➋</text></g><path d="M 467.0 239 h 10"></path><path d="M 477.0 239 h 10"></path><g class="terminal ">
<path d="M 487.0 239 h 0.0"></path><path d="M 532.5 239 h 0.0"></path><rect height="22" rx="10" ry="10" width="45.5" x="487.0" y="228"></rect><text x="509.75" y="243">'&#42;'</text></g></g><path d="M 820.0 239 h 10"></path><path d="M 830.0 239 h 0.0"></path></g></g><path d="M 830.0 239 h 10"></path><path d="M 840.0 239 h 20 m 0 -10 v 20"></path></g></svg>