<svg class="railroad-diagram" height="290" viewBox="0 0 455.5 290" width="455.5" xmlns="http://www.w3.org/2000/svg" xmlns:xlink="http://www.w3.org/1999/xlink">
<g transform="translate(.5 .5)">
<style>/* <![CDATA[ */

    svg.railroad-diagram {
        background-color:hsl(30,20%,95%);
    }
    svg.railroad-diagram path {
        stroke-width: 2;
        stroke: black;
        fill: none;
    }
    svg.railroad-diagram text {
        font-size: 12px;
        text-anchor: middle;
        font-family: DejaVu Sans;
    }
    svg.railroad-diagram text.label {
        text-anchor:start;
    }
    svg.railroad-diagram text.comment {
        font-family: DejaVu Sans;
        font-size: 14px;
    }
    svg.railroad-diagram rect{
        stroke-width: 2;
        stroke:black;
        fill: rgb(210, 210, 255);
    }
    svg.railroad-diagram rect.group-box {
        stroke: gray;
        stroke-dasharray: 10 5;
        fill: none;
    }
    .terminal {
        font-family: DejaVu Sans;
    }

/* ]]> */
</style><g>
<path d="M 20 61 v 20 m 0 -10 h 20"></path></g><path d="M 40 71 h 10"></path><g>
<path d="M 50 71 h 0.0"></path><path d="M 405.5 71 h 0.0"></path><g>
<path d="M 50.0 71 h 0.0"></path><path d="M 405.5 71 h 0.0"></path><g class="terminal ">
<path d="M 50.0 71 h 0.0"></path><path d="M 146.5 71 h 0.0"></path><rect height="22" rx="10" ry="10" width="96.5" x="50.0" y="60"></rect><text x="98.25" y="75">&#60;sidebar></text></g><path d="M 146.5 71 h 10"></path><path d="M 156.5 71 h 10"></path><g>
<path d="M 166.5 71 h 0.0"></path><path d="M 405.5 71 h 0.0"></path><path d="M 166.5 71 a 10 10 0 0 0 10 -10 v -10 a 10 10 0 0 1 10 -10"></path><g>
<path d="M 186.5 41 h 0.0"></path><path d="M 340.0 41 h 0.0"></path><g class="terminal ">
<path d="M 186.5 41 h 0.0"></path><path d="M 257.5 41 h 0.0"></path><rect height="22" rx="10" ry="10" width="71.0" x="186.5" y="30"></rect><text x="222.0" y="45">@style</text></g><path d="M 257.5 41 h 10"></path><path d="M 267.5 41 h 10"></path><g class="terminal ">
<path d="M 277.5 41 h 0.0"></path><path d="M 340.0 41 h 0.0"></path><rect height="22" rx="10" ry="10" width="62.5" x="277.5" y="30"></rect><text x="308.75" y="45">"esb"</text></g></g><path d="M 166.5 71 h 20"></path><g class="non-terminal ">
<path d="M 186.5 71 h 55.5"></path><path d="M 330.0 71 h 55.5"></path><rect height="22" width="88.0" x="242.0" y="60"></rect><text x="286.0" y="75">category</text></g><path d="M 385.5 71 h 20"></path><path d="M 166.5 71 a 10 10 0 0 1 10 10 v 20 a 10 10 0 0 0 10 10"></path><g>
<path d="M 186.5 111 h 0.0"></path><path d="M 385.5 111 h 0.0"></path><path d="M 186.5 111 h 10"></path><g>
<path d="M 196.5 111 h 0.0"></path><path d="M 375.5 111 h 0.0"></path><path d="M 196.5 111 h 20"></path><g class="non-terminal ">
<path d="M 216.5 111 h 42.5"></path><path d="M 313.0 111 h 42.5"></path><rect height="22" width="54.0" x="259.0" y="100"></rect><text x="286.0" y="115">Para</text></g><path d="M 355.5 111 h 20"></path><path d="M 196.5 111 a 10 10 0 0 1 10 10 v 10 a 10 10 0 0 0 10 10"></path><g class="non-terminal ">
<path d="M 216.5 141 h 42.5"></path><path d="M 313.0 141 h 42.5"></path><rect height="22" width="54.0" x="259.0" y="130"></rect><text x="286.0" y="145">List</text></g><path d="M 355.5 141 a 10 10 0 0 0 10 -10 v -10 a 10 10 0 0 1 10 -10"></path><path d="M 196.5 111 a 10 10 0 0 1 10 10 v 40 a 10 10 0 0 0 10 10"></path><g class="non-terminal ">
<path d="M 216.5 171 h 38.25"></path><path d="M 317.25 171 h 38.25"></path><rect height="22" width="62.5" x="254.75" y="160"></rect><text x="286.0" y="175">Table</text></g><path d="M 355.5 171 a 10 10 0 0 0 10 -10 v -40 a 10 10 0 0 1 10 -10"></path><path d="M 196.5 111 a 10 10 0 0 1 10 10 v 70 a 10 10 0 0 0 10 10"></path><g class="non-terminal ">
<path d="M 216.5 201 h 25.5"></path><path d="M 330.0 201 h 25.5"></path><rect height="22" width="88.0" x="242.0" y="190"></rect><text x="286.0" y="205">Footnote</text></g><path d="M 355.5 201 a 10 10 0 0 0 10 -10 v -70 a 10 10 0 0 1 10 -10"></path><path d="M 196.5 111 a 10 10 0 0 1 10 10 v 100 a 10 10 0 0 0 10 10"></path><g class="non-terminal ">
<path d="M 216.5 231 h 0.0"></path><path d="M 355.5 231 h 0.0"></path><rect height="22" width="139.0" x="216.5" y="220"></rect><text x="286.0" y="235">CrossReference</text></g><path d="M 355.5 231 a 10 10 0 0 0 10 -10 v -100 a 10 10 0 0 1 10 -10"></path></g><path d="M 375.5 111 h 10"></path><path d="M 196.5 111 a 10 10 0 0 0 -10 10 v 129 a 10 10 0 0 0 10 10"></path><g>
<path d="M 196.5 260 h 179.0"></path></g><path d="M 375.5 260 a 10 10 0 0 0 10 -10 v -129 a 10 10 0 0 0 -10 -10"></path></g><path d="M 385.5 111 a 10 10 0 0 0 10 -10 v -20 a 10 10 0 0 1 10 -10"></path></g></g></g><path d="M 405.5 71 h 10"></path><path d="M 415.5 71 h 20 m 0 -10 v 20"></path></g></svg>