<svg class="railroad-diagram" height="210" viewBox="0 0 933.5 210" width="933.5" xmlns="http://www.w3.org/2000/svg" xmlns:xlink="http://www.w3.org/1999/xlink">
<g transform="translate(.5 .5)">
<style>/* <![CDATA[ */

    svg.railroad-diagram {
        background-color:hsl(30,20%,95%);
    }
    svg.railroad-diagram path {
        stroke-width: 2;
        stroke: black;
        fill: none;
    }
    svg.railroad-diagram text {
        font-size: 12px;
        text-anchor: middle;
        font-family: DejaVu Sans;
    }
    svg.railroad-diagram text.label {
        text-anchor:start;
    }
    svg.railroad-diagram text.comment {
        font-family: DejaVu Sans;
        font-size: 14px;
    }
    svg.railroad-diagram rect{
        stroke-width: 2;
        stroke:black;
        fill: rgb(210, 255, 210);
    }
    svg.railroad-diagram rect.group-box {
        stroke: gray;
        stroke-dasharray: 10 5;
        fill: none;
    }
    .terminal {
        font-family: DejaVu Sans;
    }

/* ]]> */
</style><g>
<path d="M 20 31 v 20 m 0 -10 h 20"></path></g><path d="M 40 41 h 10"></path><g>
<path d="M 50 41 h 0.0"></path><path d="M 883.5 41 h 0.0"></path><g class="terminal ">
<path d="M 50.0 41 h 0.0"></path><path d="M 95.5 41 h 0.0"></path><rect height="22" rx="10" ry="10" width="45.5" x="50.0" y="30"></rect><text x="72.75" y="45">'\'</text></g><path d="M 95.5 41 h 10"></path><path d="M 105.5 41 h 10"></path><g class="terminal ">
<path d="M 115.5 41 h 0.0"></path><path d="M 178.0 41 h 0.0"></path><rect height="22" rx="10" ry="10" width="62.5" x="115.5" y="30"></rect><text x="146.75" y="45">"esb"</text></g><path d="M 178.0 41 h 10"></path><path d="M 188.0 41 h 10"></path><g class="terminal ">
<path d="M 198.0 41 h 0.0"></path><path d="M 269.0 41 h 0.0"></path><rect height="22" rx="10" ry="10" width="71.0" x="198.0" y="30"></rect><text x="233.5" y="45">TAGEND</text></g><path d="M 269.0 41 h 10"></path><path d="M 279.0 41 h 10"></path><g>
<path d="M 289.0 41 h 0.0"></path><path d="M 417.0 41 h 0.0"></path><path d="M 289.0 41 h 20"></path><g>
<path d="M 309.0 41 h 88.0"></path></g><path d="M 397.0 41 h 20"></path><path d="M 289.0 41 a 10 10 0 0 1 10 10 v 0 a 10 10 0 0 0 10 10"></path><g class="non-terminal ">
<path d="M 309.0 61 h 0.0"></path><path d="M 397.0 61 h 0.0"></path><rect height="22" width="88.0" x="309.0" y="50"></rect><text x="353.0" y="65">category</text></g><path d="M 397.0 61 a 10 10 0 0 0 10 -10 v 0 a 10 10 0 0 1 10 -10"></path></g><path d="M 417.0 41 h 10"></path><path d="M 427.0 41 h 10"></path><g>
<path d="M 437.0 41 h 0.0"></path><path d="M 636.0 41 h 0.0"></path><path d="M 437.0 41 h 10"></path><g>
<path d="M 447.0 41 h 0.0"></path><path d="M 626.0 41 h 0.0"></path><path d="M 447.0 41 h 20"></path><g class="non-terminal ">
<path d="M 467.0 41 h 42.5"></path><path d="M 563.5 41 h 42.5"></path><rect height="22" width="54.0" x="509.5" y="30"></rect><text x="536.5" y="45">Para</text></g><path d="M 606.0 41 h 20"></path><path d="M 447.0 41 a 10 10 0 0 1 10 10 v 10 a 10 10 0 0 0 10 10"></path><g class="non-terminal ">
<path d="M 467.0 71 h 42.5"></path><path d="M 563.5 71 h 42.5"></path><rect height="22" width="54.0" x="509.5" y="60"></rect><text x="536.5" y="75">List</text></g><path d="M 606.0 71 a 10 10 0 0 0 10 -10 v -10 a 10 10 0 0 1 10 -10"></path><path d="M 447.0 41 a 10 10 0 0 1 10 10 v 40 a 10 10 0 0 0 10 10"></path><g class="non-terminal ">
<path d="M 467.0 101 h 38.25"></path><path d="M 567.75 101 h 38.25"></path><rect height="22" width="62.5" x="505.25" y="90"></rect><text x="536.5" y="105">Table</text></g><path d="M 606.0 101 a 10 10 0 0 0 10 -10 v -40 a 10 10 0 0 1 10 -10"></path><path d="M 447.0 41 a 10 10 0 0 1 10 10 v 70 a 10 10 0 0 0 10 10"></path><g class="non-terminal ">
<path d="M 467.0 131 h 25.5"></path><path d="M 580.5 131 h 25.5"></path><rect height="22" width="88.0" x="492.5" y="120"></rect><text x="536.5" y="135">Footnote</text></g><path d="M 606.0 131 a 10 10 0 0 0 10 -10 v -70 a 10 10 0 0 1 10 -10"></path><path d="M 447.0 41 a 10 10 0 0 1 10 10 v 100 a 10 10 0 0 0 10 10"></path><g class="non-terminal ">
<path d="M 467.0 161 h 0.0"></path><path d="M 606.0 161 h 0.0"></path><rect height="22" width="139.0" x="467.0" y="150"></rect><text x="536.5" y="165">CrossReference</text></g><path d="M 606.0 161 a 10 10 0 0 0 10 -10 v -100 a 10 10 0 0 1 10 -10"></path></g><path d="M 626.0 41 h 10"></path><path d="M 447.0 41 a 10 10 0 0 0 -10 10 v 129 a 10 10 0 0 0 10 10"></path><g>
<path d="M 447.0 190 h 179.0"></path></g><path d="M 626.0 190 a 10 10 0 0 0 10 -10 v -129 a 10 10 0 0 0 -10 -10"></path></g><path d="M 636.0 41 h 10"></path><path d="M 646.0 41 h 10"></path><g class="terminal ">
<path d="M 656.0 41 h 0.0"></path><path d="M 701.5 41 h 0.0"></path><rect height="22" rx="10" ry="10" width="45.5" x="656.0" y="30"></rect><text x="678.75" y="45">'\'</text></g><path d="M 701.5 41 h 10"></path><path d="M 711.5 41 h 10"></path><g class="terminal ">
<path d="M 721.5 41 h 0.0"></path><path d="M 792.5 41 h 0.0"></path><rect height="22" rx="10" ry="10" width="71.0" x="721.5" y="30"></rect><text x="757.0" y="45">'esbe'</text></g><path d="M 792.5 41 h 10"></path><path d="M 802.5 41 h 10"></path><g class="terminal ">
<path d="M 812.5 41 h 0.0"></path><path d="M 883.5 41 h 0.0"></path><rect height="22" rx="10" ry="10" width="71.0" x="812.5" y="30"></rect><text x="848.0" y="45">TAGEND</text></g></g><path d="M 883.5 41 h 10"></path><path d="M 893.5 41 h 20 m 0 -10 v 20"></path></g></svg>