<svg class="railroad-diagram" height="349" viewBox="0 0 575.0 349" width="575.0" xmlns="http://www.w3.org/2000/svg" xmlns:xlink="http://www.w3.org/1999/xlink">
<g transform="translate(.5 .5)">
<style>/* <![CDATA[ */

    svg.railroad-diagram {
        background-color: hsl(30,20%,95%);
    }
    svg.railroad-diagram path {
        stroke-width: 2;
        stroke: black;
        fill: none;
    }
    svg.railroad-diagram text {
        font-size: 12px;
        text-anchor: middle;
        font-family: DejaVu Sans;
    }
    svg.railroad-diagram text.label {
        text-anchor:start;
    }
    svg.railroad-diagram text.comment {
        font-family: DejaVu Sans;
        font-size: 14px;
    }
    svg.railroad-diagram rect{
        stroke-width: 2;
        stroke: black;
        fill: rgb(210, 210, 255);
    }
    svg.railroad-diagram rect.group-box {
        stroke: gray;
        stroke-dasharray: 10 5;
        fill: none;
    }
    .terminal {
        font-family: DejaVu Sans;
    }
    svg.railroad-diagram g.altterminal rect {
        fill: rgb(251, 252, 207)
    }

/* ]]> */
</style><g>
<path d="M 20 60 v 20 m 0 -10 h 20"></path></g><path d="M 40 70 h 10"></path><g>
<path d="M 50 70 h 0.0"></path><path d="M 525.0 70 h 0.0"></path><g>
<path d="M 50.0 70 h 0.0"></path><path d="M 525.0 70 h 0.0"></path><g class="terminal ">
<path d="M 50.0 70 h 0.0"></path><path d="M 146.5 70 h 0.0"></path><rect height="22" rx="10" ry="10" width="96.5" x="50.0" y="59"></rect><text x="98.25" y="74">&#60;sidebar></text></g><path d="M 146.5 70 h 10"></path><path d="M 156.5 70 h 10"></path><g>
<path d="M 166.5 70 h 0.0"></path><path d="M 525.0 70 h 0.0"></path><path d="M 166.5 70 a 10 10 0 0 0 10 -10 v -9 a 10 10 0 0 1 10 -10"></path><g>
<path d="M 186.5 41 h 0.0"></path><path d="M 340.0 41 h 0.0"></path><g class="terminal ">
<path d="M 186.5 41 h 0.0"></path><path d="M 257.5 41 h 0.0"></path><rect height="22" rx="10" ry="10" width="71.0" x="186.5" y="30"></rect><text x="222.0" y="45">@style</text></g><path d="M 257.5 41 h 10"></path><path d="M 267.5 41 h 10"></path><g class="terminal ">
<path d="M 277.5 41 h 0.0"></path><path d="M 340.0 41 h 0.0"></path><rect height="22" rx="10" ry="10" width="62.5" x="277.5" y="30"></rect><text x="308.75" y="45">"esb"</text></g></g><path d="M 166.5 70 h 20"></path><g>
<path d="M 186.5 70 h 0.0"></path><path d="M 505.0 70 h 0.0"></path><g>
<path d="M 186.5 70 h 0.0"></path><path d="M 357.0 70 h 0.0"></path><path d="M 186.5 70 h 20"></path><g>
<path d="M 206.5 70 h 130.5"></path></g><path d="M 337.0 70 h 20"></path><path d="M 186.5 70 a 10 10 0 0 1 10 10 v 0 a 10 10 0 0 0 10 10"></path><g class="non-terminal ">
<path d="M 206.5 90 h 0.0"></path><path d="M 337.0 90 h 0.0"></path><rect height="22" width="130.5" x="206.5" y="79"></rect><text x="271.75" y="94">AttributesPre</text></g><path d="M 337.0 90 a 10 10 0 0 0 10 -10 v 0 a 10 10 0 0 1 10 -10"></path></g><path d="M 357.0 70 h 10"></path><path d="M 367.0 70 h 10"></path><g>
<path d="M 377.0 70 h 0.0"></path><path d="M 505.0 70 h 0.0"></path><path d="M 377.0 70 h 20"></path><g>
<path d="M 397.0 70 h 88.0"></path></g><path d="M 485.0 70 h 20"></path><path d="M 377.0 70 a 10 10 0 0 1 10 10 v 0 a 10 10 0 0 0 10 10"></path><g class="non-terminal ">
<path d="M 397.0 90 h 0.0"></path><path d="M 485.0 90 h 0.0"></path><rect height="22" width="88.0" x="397.0" y="79"></rect><text x="441.0" y="94">category</text></g><path d="M 485.0 90 a 10 10 0 0 0 10 -10 v 0 a 10 10 0 0 1 10 -10"></path></g></g><path d="M 505.0 70 h 20"></path><path d="M 166.5 70 a 10 10 0 0 1 10 10 v 50 a 10 10 0 0 0 10 10"></path><g>
<path d="M 186.5 140 h 59.75"></path><path d="M 445.25 140 h 59.75"></path><path d="M 246.25 140 h 10"></path><g>
<path d="M 256.25 140 h 0.0"></path><path d="M 435.25 140 h 0.0"></path><g>
<path d="M 256.25 140 h 0.0"></path><path d="M 435.25 140 h 0.0"></path><path d="M 256.25 140 h 20"></path><g class="non-terminal ">
<path d="M 276.25 140 h 29.75"></path><path d="M 385.5 140 h 29.75"></path><rect height="22" width="79.5" x="306.0" y="129"></rect><text x="345.75" y="144">Section</text></g><path d="M 415.25 140 h 20"></path><path d="M 256.25 140 a 10 10 0 0 1 10 10 v 10 a 10 10 0 0 0 10 10"></path><g class="non-terminal ">
<path d="M 276.25 170 h 42.5"></path><path d="M 372.75 170 h 42.5"></path><rect height="22" width="54.0" x="318.75" y="159"></rect><text x="345.75" y="174">Para</text></g><path d="M 415.25 170 a 10 10 0 0 0 10 -10 v -10 a 10 10 0 0 1 10 -10"></path><path d="M 256.25 140 a 10 10 0 0 1 10 10 v 40 a 10 10 0 0 0 10 10"></path><g class="non-terminal ">
<path d="M 276.25 200 h 42.5"></path><path d="M 372.75 200 h 42.5"></path><rect height="22" width="54.0" x="318.75" y="189"></rect><text x="345.75" y="204">List</text></g><path d="M 415.25 200 a 10 10 0 0 0 10 -10 v -40 a 10 10 0 0 1 10 -10"></path><path d="M 256.25 140 a 10 10 0 0 1 10 10 v 70 a 10 10 0 0 0 10 10"></path><g class="non-terminal ">
<path d="M 276.25 230 h 38.25"></path><path d="M 377.0 230 h 38.25"></path><rect height="22" width="62.5" x="314.5" y="219"></rect><text x="345.75" y="234">Table</text></g><path d="M 415.25 230 a 10 10 0 0 0 10 -10 v -70 a 10 10 0 0 1 10 -10"></path><path d="M 256.25 140 a 10 10 0 0 1 10 10 v 100 a 10 10 0 0 0 10 10"></path><g class="non-terminal ">
<path d="M 276.25 260 h 25.5"></path><path d="M 389.75 260 h 25.5"></path><rect height="22" width="88.0" x="301.75" y="249"></rect><text x="345.75" y="264">Footnote</text></g><path d="M 415.25 260 a 10 10 0 0 0 10 -10 v -100 a 10 10 0 0 1 10 -10"></path><path d="M 256.25 140 a 10 10 0 0 1 10 10 v 130 a 10 10 0 0 0 10 10"></path><g class="non-terminal ">
<path d="M 276.25 290 h 0.0"></path><path d="M 415.25 290 h 0.0"></path><rect height="22" width="139.0" x="276.25" y="279"></rect><text x="345.75" y="294">CrossReference</text></g><path d="M 415.25 290 a 10 10 0 0 0 10 -10 v -130 a 10 10 0 0 1 10 -10"></path></g></g><path d="M 435.25 140 h 10"></path><path d="M 256.25 140 a 10 10 0 0 0 -10 10 v 159 a 10 10 0 0 0 10 10"></path><g>
<path d="M 256.25 319 h 179.0"></path></g><path d="M 435.25 319 a 10 10 0 0 0 10 -10 v -159 a 10 10 0 0 0 -10 -10"></path></g><path d="M 505.0 140 a 10 10 0 0 0 10 -10 v -50 a 10 10 0 0 1 10 -10"></path></g></g></g><path d="M 525.0 70 h 10"></path><path d="M 535.0 70 h 20 m 0 -10 v 20"></path></g></svg>