<svg class="railroad-diagram" height="231" viewBox="0 0 831.5 231" width="831.5" xmlns="http://www.w3.org/2000/svg" xmlns:xlink="http://www.w3.org/1999/xlink">
<g transform="translate(.5 .5)">
<style>/* <![CDATA[ */
    svg.railroad-diagram {
        background-color:hsl(30,20%,95%);
    }
    svg.railroad-diagram path {
        stroke-width: 2;
        stroke: black;
        fill: none;
    }
    svg.railroad-diagram text {
        font-size: 12px;
        text-anchor: middle;
        font-family: DejaVu Sans;
    }
    svg.railroad-diagram text.label {
        text-anchor:start;
    }
    svg.railroad-diagram text.comment {
        font-family: DejaVu Sans;
        font-size: 14px;
    }
    svg.railroad-diagram rect{
        stroke-width: 2;
        stroke:black;
        fill: rgb(210, 255, 210);
    }
    svg.railroad-diagram rect.group-box {
        stroke: gray;
        stroke-dasharray: 10 5;
        fill: none;
    }
    .terminal {
        font-family: DejaVu Sans;
    }

/* ]]> */
</style><g>
<path d="M 20 54 v 20 m 0 -10 h 20"></path></g><path d="M 40 64 h 10"></path><g>
<path d="M 50 64 h 0.0"></path><path d="M 781.5 64 h 0.0"></path><rect class="group-box" height="175" rx="10" ry="10" width="731.5" x="50.0" y="36"></rect><g>
<path d="M 50.0 64 h 10.0"></path><path d="M 771.5 64 h 10.0"></path><g>
<path d="M 60.0 64 h 0.0"></path><path d="M 228.0 64 h 0.0"></path><g>
<path d="M 60.0 64 h 0.0"></path><path d="M 171.0 64 h 0.0"></path><g class="terminal ">
<path d="M 60.0 64 h 0.0"></path><path d="M 105.5 64 h 0.0"></path><rect height="22" rx="10" ry="10" width="45.5" x="60.0" y="53"></rect><text x="82.75" y="68">"\"</text></g><path d="M 105.5 64 h 10"></path><path d="M 115.5 64 h 10"></path><g class="terminal ">
<path d="M 125.5 64 h 0.0"></path><path d="M 171.0 64 h 0.0"></path><rect height="22" rx="10" ry="10" width="45.5" x="125.5" y="53"></rect><text x="148.25" y="68">esb</text></g></g><path d="M 171.0 64 h 10"></path><path d="M 181.0 64 h 10"></path><g class="terminal ">
<path d="M 191.0 64 h 0.0"></path><path d="M 228.0 64 h 0.0"></path><rect height="22" rx="10" ry="10" width="37.0" x="191.0" y="53"></rect><text x="209.5" y="68">WS</text></g></g><path d="M 228.0 64 h 10"></path><g>
<path d="M 238.0 64 h 0.0"></path><path d="M 366.0 64 h 0.0"></path><path d="M 238.0 64 a 10 10 0 0 0 10 -10 v 0 a 10 10 0 0 1 10 -10"></path><g>
<path d="M 258.0 44 h 88.0"></path></g><path d="M 346.0 44 a 10 10 0 0 1 10 10 v 0 a 10 10 0 0 0 10 10"></path><path d="M 238.0 64 h 20"></path><g class="non-terminal ">
<path d="M 258.0 64 h 0.0"></path><path d="M 346.0 64 h 0.0"></path><rect height="22" width="88.0" x="258.0" y="53"></rect><text x="302.0" y="68">category</text></g><path d="M 346.0 64 h 20"></path></g><path d="M 366.0 64 h 10"></path><g>
<path d="M 376.0 64 h 0.0"></path><path d="M 575.0 64 h 0.0"></path><path d="M 376.0 64 h 10"></path><g>
<path d="M 386.0 64 h 0.0"></path><path d="M 565.0 64 h 0.0"></path><path d="M 386.0 64 h 20"></path><g class="non-terminal ">
<path d="M 406.0 64 h 42.5"></path><path d="M 502.5 64 h 42.5"></path><rect height="22" width="54.0" x="448.5" y="53"></rect><text x="475.5" y="68">Para</text></g><path d="M 545.0 64 h 20"></path><path d="M 386.0 64 a 10 10 0 0 1 10 10 v 10 a 10 10 0 0 0 10 10"></path><g class="non-terminal ">
<path d="M 406.0 94 h 42.5"></path><path d="M 502.5 94 h 42.5"></path><rect height="22" width="54.0" x="448.5" y="83"></rect><text x="475.5" y="98">List</text></g><path d="M 545.0 94 a 10 10 0 0 0 10 -10 v -10 a 10 10 0 0 1 10 -10"></path><path d="M 386.0 64 a 10 10 0 0 1 10 10 v 40 a 10 10 0 0 0 10 10"></path><g class="non-terminal ">
<path d="M 406.0 124 h 38.25"></path><path d="M 506.75 124 h 38.25"></path><rect height="22" width="62.5" x="444.25" y="113"></rect><text x="475.5" y="128">Table</text></g><path d="M 545.0 124 a 10 10 0 0 0 10 -10 v -40 a 10 10 0 0 1 10 -10"></path><path d="M 386.0 64 a 10 10 0 0 1 10 10 v 70 a 10 10 0 0 0 10 10"></path><g class="non-terminal ">
<path d="M 406.0 154 h 25.5"></path><path d="M 519.5 154 h 25.5"></path><rect height="22" width="88.0" x="431.5" y="143"></rect><text x="475.5" y="158">Footnote</text></g><path d="M 545.0 154 a 10 10 0 0 0 10 -10 v -70 a 10 10 0 0 1 10 -10"></path><path d="M 386.0 64 a 10 10 0 0 1 10 10 v 100 a 10 10 0 0 0 10 10"></path><g class="non-terminal ">
<path d="M 406.0 184 h 0.0"></path><path d="M 545.0 184 h 0.0"></path><rect height="22" width="139.0" x="406.0" y="173"></rect><text x="475.5" y="188">CrossReference</text></g><path d="M 545.0 184 a 10 10 0 0 0 10 -10 v -100 a 10 10 0 0 1 10 -10"></path></g><path d="M 565.0 64 h 10"></path><path d="M 386.0 64 a 10 10 0 0 0 -10 10 v 119 a 10 10 0 0 0 10 10"></path><g>
<path d="M 386.0 203 h 179.0"></path></g><path d="M 565.0 203 a 10 10 0 0 0 10 -10 v -119 a 10 10 0 0 0 -10 -10"></path></g><path d="M 575.0 64 h 10"></path><path d="M 585.0 64 h 10"></path><g>
<path d="M 595.0 64 h 0.0"></path><path d="M 771.5 64 h 0.0"></path><g>
<path d="M 595.0 64 h 0.0"></path><path d="M 714.5 64 h 0.0"></path><g class="terminal ">
<path d="M 595.0 64 h 0.0"></path><path d="M 640.5 64 h 0.0"></path><rect height="22" rx="10" ry="10" width="45.5" x="595.0" y="53"></rect><text x="617.75" y="68">"\"</text></g><path d="M 640.5 64 h 10"></path><path d="M 650.5 64 h 10"></path><g class="terminal ">
<path d="M 660.5 64 h 0.0"></path><path d="M 714.5 64 h 0.0"></path><rect height="22" rx="10" ry="10" width="54.0" x="660.5" y="53"></rect><text x="687.5" y="68">esbe</text></g></g><path d="M 714.5 64 h 10"></path><path d="M 724.5 64 h 10"></path><g class="terminal ">
<path d="M 734.5 64 h 0.0"></path><path d="M 771.5 64 h 0.0"></path><rect height="22" rx="10" ry="10" width="37.0" x="734.5" y="53"></rect><text x="753.0" y="68">WS</text></g></g></g><g class="non-terminal ">
<path d="M 50.0 28 h 0.0"></path><path d="M 109.0 28 h 0.0"></path><text class="comment" x="79.5" y="33">Sidebar</text></g></g><path d="M 781.5 64 h 10"></path><path d="M 791.5 64 h 20 m 0 -10 v 20"></path></g></svg>