<svg class="railroad-diagram" height="240" viewBox="0 0 1013.5 240" width="1013.5" xmlns="http://www.w3.org/2000/svg" xmlns:xlink="http://www.w3.org/1999/xlink">
<g transform="translate(.5 .5)">
<style>/* <![CDATA[ */

    svg.railroad-diagram {
        background-color:hsl(30,20%,95%);
    }
    svg.railroad-diagram path {
        stroke-width: 2;
        stroke: black;
        fill: none;
    }
    svg.railroad-diagram text {
        font-size: 12px;
        text-anchor: middle;
        font-family: DejaVu Sans;
    }
    svg.railroad-diagram text.label {
        text-anchor:start;
    }
    svg.railroad-diagram text.comment {
        font-family: DejaVu Sans;
        font-size: 14px;
    }
    svg.railroad-diagram rect{
        stroke-width: 2;
        stroke:black;
        fill: rgb(210, 255, 210);
    }
    svg.railroad-diagram rect.group-box {
        stroke: gray;
        stroke-dasharray: 10 5;
        fill: none;
    }
    .terminal {
        font-family: DejaVu Sans;
    }

/* ]]> */
</style><g>
<path d="M 20 31 v 20 m 0 -10 h 20"></path></g><path d="M 40 41 h 10"></path><g>
<path d="M 50 41 h 0.0"></path><path d="M 963.5 41 h 0.0"></path><g class="terminal ">
<path d="M 50.0 41 h 0.0"></path><path d="M 95.5 41 h 0.0"></path><rect height="22" rx="10" ry="10" width="45.5" x="50.0" y="30"></rect><text x="72.75" y="45">'\'</text></g><path d="M 95.5 41 h 10"></path><path d="M 105.5 41 h 10"></path><g class="terminal ">
<path d="M 115.5 41 h 0.0"></path><path d="M 178.0 41 h 0.0"></path><rect height="22" rx="10" ry="10" width="62.5" x="115.5" y="30"></rect><text x="146.75" y="45">"esb"</text></g><path d="M 178.0 41 h 10"></path><path d="M 188.0 41 h 10"></path><g>
<path d="M 198.0 41 h 0.0"></path><path d="M 309.0 41 h 0.0"></path><path d="M 198.0 41 h 20"></path><g class="terminal ">
<path d="M 218.0 41 h 12.75"></path><path d="M 276.25 41 h 12.75"></path><rect height="22" rx="10" ry="10" width="45.5" x="230.75" y="30"></rect><text x="253.5" y="45">' '</text></g><path d="M 289.0 41 h 20"></path><path d="M 198.0 41 a 10 10 0 0 1 10 10 v 10 a 10 10 0 0 0 10 10"></path><g class="terminal ">
<path d="M 218.0 71 h 0.0"></path><path d="M 289.0 71 h 0.0"></path><rect height="22" rx="10" ry="10" width="71.0" x="218.0" y="60"></rect><text x="253.5" y="75">TAGEND</text></g><path d="M 289.0 71 a 10 10 0 0 0 10 -10 v -10 a 10 10 0 0 1 10 -10"></path></g><path d="M 309.0 41 h 10"></path><path d="M 319.0 41 h 10"></path><g>
<path d="M 329.0 41 h 0.0"></path><path d="M 457.0 41 h 0.0"></path><path d="M 329.0 41 h 20"></path><g>
<path d="M 349.0 41 h 88.0"></path></g><path d="M 437.0 41 h 20"></path><path d="M 329.0 41 a 10 10 0 0 1 10 10 v 0 a 10 10 0 0 0 10 10"></path><g class="non-terminal ">
<path d="M 349.0 61 h 0.0"></path><path d="M 437.0 61 h 0.0"></path><rect height="22" width="88.0" x="349.0" y="50"></rect><text x="393.0" y="65">category</text></g><path d="M 437.0 61 a 10 10 0 0 0 10 -10 v 0 a 10 10 0 0 1 10 -10"></path></g><path d="M 457.0 41 h 10"></path><path d="M 467.0 41 h 10"></path><g>
<path d="M 477.0 41 h 0.0"></path><path d="M 676.0 41 h 0.0"></path><path d="M 477.0 41 h 10"></path><g>
<path d="M 487.0 41 h 0.0"></path><path d="M 666.0 41 h 0.0"></path><path d="M 487.0 41 h 20"></path><g class="non-terminal ">
<path d="M 507.0 41 h 29.75"></path><path d="M 616.25 41 h 29.75"></path><rect height="22" width="79.5" x="536.75" y="30"></rect><text x="576.5" y="45">Section</text></g><path d="M 646.0 41 h 20"></path><path d="M 487.0 41 a 10 10 0 0 1 10 10 v 10 a 10 10 0 0 0 10 10"></path><g class="non-terminal ">
<path d="M 507.0 71 h 42.5"></path><path d="M 603.5 71 h 42.5"></path><rect height="22" width="54.0" x="549.5" y="60"></rect><text x="576.5" y="75">Para</text></g><path d="M 646.0 71 a 10 10 0 0 0 10 -10 v -10 a 10 10 0 0 1 10 -10"></path><path d="M 487.0 41 a 10 10 0 0 1 10 10 v 40 a 10 10 0 0 0 10 10"></path><g class="non-terminal ">
<path d="M 507.0 101 h 42.5"></path><path d="M 603.5 101 h 42.5"></path><rect height="22" width="54.0" x="549.5" y="90"></rect><text x="576.5" y="105">List</text></g><path d="M 646.0 101 a 10 10 0 0 0 10 -10 v -40 a 10 10 0 0 1 10 -10"></path><path d="M 487.0 41 a 10 10 0 0 1 10 10 v 70 a 10 10 0 0 0 10 10"></path><g class="non-terminal ">
<path d="M 507.0 131 h 38.25"></path><path d="M 607.75 131 h 38.25"></path><rect height="22" width="62.5" x="545.25" y="120"></rect><text x="576.5" y="135">Table</text></g><path d="M 646.0 131 a 10 10 0 0 0 10 -10 v -70 a 10 10 0 0 1 10 -10"></path><path d="M 487.0 41 a 10 10 0 0 1 10 10 v 100 a 10 10 0 0 0 10 10"></path><g class="non-terminal ">
<path d="M 507.0 161 h 25.5"></path><path d="M 620.5 161 h 25.5"></path><rect height="22" width="88.0" x="532.5" y="150"></rect><text x="576.5" y="165">Footnote</text></g><path d="M 646.0 161 a 10 10 0 0 0 10 -10 v -100 a 10 10 0 0 1 10 -10"></path><path d="M 487.0 41 a 10 10 0 0 1 10 10 v 130 a 10 10 0 0 0 10 10"></path><g class="non-terminal ">
<path d="M 507.0 191 h 0.0"></path><path d="M 646.0 191 h 0.0"></path><rect height="22" width="139.0" x="507.0" y="180"></rect><text x="576.5" y="195">CrossReference</text></g><path d="M 646.0 191 a 10 10 0 0 0 10 -10 v -130 a 10 10 0 0 1 10 -10"></path></g><path d="M 666.0 41 h 10"></path><path d="M 487.0 41 a 10 10 0 0 0 -10 10 v 159 a 10 10 0 0 0 10 10"></path><g>
<path d="M 487.0 220 h 179.0"></path></g><path d="M 666.0 220 a 10 10 0 0 0 10 -10 v -159 a 10 10 0 0 0 -10 -10"></path></g><path d="M 676.0 41 h 10"></path><path d="M 686.0 41 h 10"></path><g class="terminal ">
<path d="M 696.0 41 h 0.0"></path><path d="M 741.5 41 h 0.0"></path><rect height="22" rx="10" ry="10" width="45.5" x="696.0" y="30"></rect><text x="718.75" y="45">'\'</text></g><path d="M 741.5 41 h 10"></path><path d="M 751.5 41 h 10"></path><g class="terminal ">
<path d="M 761.5 41 h 0.0"></path><path d="M 832.5 41 h 0.0"></path><rect height="22" rx="10" ry="10" width="71.0" x="761.5" y="30"></rect><text x="797.0" y="45">'esbe'</text></g><path d="M 832.5 41 h 10"></path><path d="M 842.5 41 h 10"></path><g>
<path d="M 852.5 41 h 0.0"></path><path d="M 963.5 41 h 0.0"></path><path d="M 852.5 41 h 20"></path><g class="terminal ">
<path d="M 872.5 41 h 8.5"></path><path d="M 935.0 41 h 8.5"></path><rect height="22" rx="10" ry="10" width="54.0" x="881.0" y="30"></rect><text x="908.0" y="45">'\n'</text></g><path d="M 943.5 41 h 20"></path><path d="M 852.5 41 a 10 10 0 0 1 10 10 v 10 a 10 10 0 0 0 10 10"></path><g class="terminal ">
<path d="M 872.5 71 h 0.0"></path><path d="M 943.5 71 h 0.0"></path><rect height="22" rx="10" ry="10" width="71.0" x="872.5" y="60"></rect><text x="908.0" y="75">TAGEND</text></g><path d="M 943.5 71 a 10 10 0 0 0 10 -10 v -10 a 10 10 0 0 1 10 -10"></path></g></g><path d="M 963.5 41 h 10"></path><path d="M 973.5 41 h 20 m 0 -10 v 20"></path></g></svg>