<svg class="railroad-diagram" height="186" viewBox="0 0 1034.0 186" width="1034.0" xmlns="http://www.w3.org/2000/svg" xmlns:xlink="http://www.w3.org/1999/xlink">
<g transform="translate(.5 .5)">
<style>/* <![CDATA[ */
    svg.railroad-diagram {
        background-color:hsl(30,20%,95%);
    }
    svg.railroad-diagram path {
        stroke-width: 2;
        stroke: black;
        fill: none;
    }
    svg.railroad-diagram text {
        font-size: 12px;
        text-anchor: middle;
        font-family: DejaVu Sans;
    }
    svg.railroad-diagram text.label {
        text-anchor:start;
    }
    svg.railroad-diagram text.comment {
        font-family: DejaVu Sans;
        font-size: 14px;
    }
    svg.railroad-diagram rect{
        stroke-width: 2;
        stroke:black;
        fill: rgb(210, 255, 210);
    }
    svg.railroad-diagram rect.group-box {
        stroke: gray;
        stroke-dasharray: 10 5;
        fill: none;
    }
    .terminal {
        font-family: DejaVu Sans;
    }

/* ]]> */
</style><g>
<path d="M 20 69 v 20 m 0 -10 h 20"></path></g><path d="M 40 79 h 10"></path><g>
<path d="M 50 79 h 0.0"></path><path d="M 984.0 79 h 0.0"></path><rect class="group-box" height="130" rx="10" ry="10" width="934.0" x="50.0" y="36"></rect><g>
<path d="M 50.0 79 h 10.0"></path><path d="M 974.0 79 h 10.0"></path><g>
<path d="M 60.0 79 h 0.0"></path><path d="M 212.0 79 h 0.0"></path><rect class="group-box" height="98" rx="10" ry="10" width="152.0" x="60.0" y="60"></rect><g>
<path d="M 60.0 79 h 10.0"></path><path d="M 202.0 79 h 10.0"></path><g class="terminal ">
<path d="M 70.0 79 h 0.0"></path><path d="M 108.0 79 h 0.0"></path><rect height="22" rx="10" ry="10" width="38.0" x="70.0" y="68"></rect><text x="89.0" y="83">"\"</text></g><path d="M 108.0 79 h 10"></path><g>
<path d="M 118.0 79 h 0.0"></path><path d="M 202.0 79 h 0.0"></path><path d="M 118.0 79 h 20"></path><g class="terminal ">
<path d="M 138.0 79 h 3.0"></path><path d="M 179.0 79 h 3.0"></path><rect height="22" rx="10" ry="10" width="38.0" x="141.0" y="68"></rect><text x="160.0" y="83">"f"</text></g><path d="M 182.0 79 h 20"></path><path d="M 118.0 79 a 10 10 0 0 1 10 10 v 10 a 10 10 0 0 0 10 10"></path><g class="terminal ">
<path d="M 138.0 109 h 0.0"></path><path d="M 182.0 109 h 0.0"></path><rect height="22" rx="10" ry="10" width="44.0" x="138.0" y="98"></rect><text x="160.0" y="113">"fe"</text></g><path d="M 182.0 109 a 10 10 0 0 0 10 -10 v -10 a 10 10 0 0 1 10 -10"></path><path d="M 118.0 79 a 10 10 0 0 1 10 10 v 40 a 10 10 0 0 0 10 10"></path><g class="terminal ">
<path d="M 138.0 139 h 0.0"></path><path d="M 182.0 139 h 0.0"></path><rect height="22" rx="10" ry="10" width="44.0" x="138.0" y="128"></rect><text x="160.0" y="143">"ef"</text></g><path d="M 182.0 139 a 10 10 0 0 0 10 -10 v -40 a 10 10 0 0 1 10 -10"></path></g></g><g class="non-terminal ">
<path d="M 60.0 52 h 0.0"></path><path d="M 77.0 52 h 0.0"></path><text class="comment" x="68.5" y="57">➊</text></g></g><path d="M 212.0 79 h 10"></path><path d="M 222.0 79 h 10"></path><g class="terminal ">
<path d="M 232.0 79 h 0.0"></path><path d="M 264.0 79 h 0.0"></path><rect height="22" rx="10" ry="10" width="32.0" x="232.0" y="68"></rect><text x="248.0" y="83">WS</text></g><path d="M 264.0 79 h 10"></path><path d="M 274.0 79 h 10"></path><g>
<path d="M 284.0 79 h 0.0"></path><path d="M 974.0 79 h 0.0"></path><g class="terminal ">
<path d="M 284.0 79 h 0.0"></path><path d="M 334.0 79 h 0.0"></path><rect height="22" rx="10" ry="10" width="50.0" x="284.0" y="68"></rect><text x="309.0" y="83">/\S+/</text></g><path d="M 334.0 79 h 10"></path><path d="M 344.0 79 h 10"></path><g class="terminal ">
<path d="M 354.0 79 h 0.0"></path><path d="M 386.0 79 h 0.0"></path><rect height="22" rx="10" ry="10" width="32.0" x="354.0" y="68"></rect><text x="370.0" y="83">WS</text></g><path d="M 386.0 79 h 10"></path><g>
<path d="M 396.0 79 h 0.0"></path><path d="M 504.0 79 h 0.0"></path><path d="M 396.0 79 h 20"></path><g>
<path d="M 416.0 79 h 68.0"></path></g><path d="M 484.0 79 h 20"></path><path d="M 396.0 79 a 10 10 0 0 1 10 10 v 0 a 10 10 0 0 0 10 10"></path><g class="non-terminal ">
<path d="M 416.0 99 h 0.0"></path><path d="M 484.0 99 h 0.0"></path><rect height="22" width="68.0" x="416.0" y="88"></rect><text x="450.0" y="103">category</text></g><path d="M 484.0 99 a 10 10 0 0 0 10 -10 v 0 a 10 10 0 0 1 10 -10"></path></g><g>
<path d="M 504.0 79 h 0.0"></path><path d="M 666.0 79 h 0.0"></path><path d="M 504.0 79 h 20"></path><g>
<path d="M 524.0 79 h 122.0"></path></g><path d="M 646.0 79 h 20"></path><path d="M 504.0 79 a 10 10 0 0 1 10 10 v 0 a 10 10 0 0 0 10 10"></path><g class="non-terminal ">
<path d="M 524.0 99 h 0.0"></path><path d="M 646.0 99 h 0.0"></path><rect height="22" width="122.0" x="524.0" y="88"></rect><text x="585.0" y="103">FootnoteReference</text></g><path d="M 646.0 99 a 10 10 0 0 0 10 -10 v 0 a 10 10 0 0 1 10 -10"></path></g><path d="M 666.0 79 h 10"></path><g>
<path d="M 676.0 79 h 0.0"></path><path d="M 858.0 79 h 0.0"></path><path d="M 676.0 79 h 10"></path><g>
<path d="M 686.0 79 h 0.0"></path><path d="M 848.0 79 h 0.0"></path><path d="M 686.0 79 h 20"></path><g class="non-terminal ">
<path d="M 706.0 79 h 15.0"></path><path d="M 813.0 79 h 15.0"></path><rect height="22" width="92.0" x="721.0" y="68"></rect><text x="767.0" y="83">FootnoteChar</text></g><path d="M 828.0 79 h 20"></path><path d="M 686.0 79 a 10 10 0 0 1 10 10 v 10 a 10 10 0 0 0 10 10"></path><g class="non-terminal ">
<path d="M 706.0 109 h 0.0"></path><path d="M 828.0 109 h 0.0"></path><rect height="22" width="122.0" x="706.0" y="98"></rect><text x="767.0" y="113">FootnoteReference</text></g><path d="M 828.0 109 a 10 10 0 0 0 10 -10 v -10 a 10 10 0 0 1 10 -10"></path></g><path d="M 848.0 79 h 10"></path><path d="M 686.0 79 a 10 10 0 0 0 -10 10 v 29 a 10 10 0 0 0 10 10"></path><g>
<path d="M 686.0 128 h 162.0"></path></g><path d="M 848.0 128 a 10 10 0 0 0 10 -10 v -29 a 10 10 0 0 0 -10 -10"></path></g><path d="M 858.0 79 h 10"></path><path d="M 868.0 79 h 10"></path><g>
<path d="M 878.0 79 h 0.0"></path><path d="M 974.0 79 h 0.0"></path><g class="terminal ">
<path d="M 878.0 79 h 0.0"></path><path d="M 916.0 79 h 0.0"></path><rect height="22" rx="10" ry="10" width="38.0" x="878.0" y="68"></rect><text x="897.0" y="83">⇐ ➊</text></g><path d="M 916.0 79 h 10"></path><path d="M 926.0 79 h 10"></path><g class="terminal ">
<path d="M 936.0 79 h 0.0"></path><path d="M 974.0 79 h 0.0"></path><rect height="22" rx="10" ry="10" width="38.0" x="936.0" y="68"></rect><text x="955.0" y="83">"&#42;"</text></g></g></g></g><g class="non-terminal ">
<path d="M 50.0 28 h 0.0"></path><path d="M 116.0 28 h 0.0"></path><text class="comment" x="83.0" y="33">Footnote</text></g></g><path d="M 984.0 79 h 10"></path><path d="M 994.0 79 h 20 m 0 -10 v 20"></path></g></svg>