<svg class="railroad-diagram" height="174" viewBox="0 0 1357.5 174" width="1357.5" xmlns="http://www.w3.org/2000/svg" xmlns:xlink="http://www.w3.org/1999/xlink">
<g transform="translate(.5 .5)">
<style>/* <![CDATA[ */

    svg.railroad-diagram {
        background-color:hsl(30,20%,95%);
    }
    svg.railroad-diagram path {
        stroke-width: 2;
        stroke: black;
        fill: none;
    }
    svg.railroad-diagram text {
        font-size: 12px;
        text-anchor: middle;
        font-family: DejaVu Sans;
    }
    svg.railroad-diagram text.label {
        text-anchor:start;
    }
    svg.railroad-diagram text.comment {
        font-family: DejaVu Sans;
        font-size: 14px;
    }
    svg.railroad-diagram rect{
        stroke-width: 2;
        stroke:black;
        fill: rgb(210, 255, 210);
    }
    svg.railroad-diagram rect.group-box {
        stroke: gray;
        stroke-dasharray: 10 5;
        fill: none;
    }
    .terminal {
        font-family: DejaVu Sans;
    }

/* ]]> */
</style><g>
<path d="M 20 55 v 20 m 0 -10 h 20"></path></g><path d="M 40 65 h 10"></path><g>
<path d="M 50 65 h 0.0"></path><path d="M 1307.5 65 h 0.0"></path><g class="terminal ">
<path d="M 50.0 65 h 0.0"></path><path d="M 95.5 65 h 0.0"></path><rect height="22" rx="10" ry="10" width="45.5" x="50.0" y="54"></rect><text x="72.75" y="69">'\'</text></g><path d="M 95.5 65 h 10"></path><path d="M 105.5 65 h 10"></path><g>
<path d="M 115.5 65 h 0.0"></path><path d="M 229.5 65 h 0.0"></path><rect class="group-box" height="118" rx="10" ry="10" width="114.0" x="115.5" y="36"></rect><g>
<path d="M 115.5 65 h 10.0"></path><path d="M 219.5 65 h 10.0"></path><g>
<path d="M 125.5 65 h 0.0"></path><path d="M 219.5 65 h 0.0"></path><path d="M 125.5 65 h 20"></path><g class="terminal ">
<path d="M 145.5 65 h 4.25"></path><path d="M 195.25 65 h 4.25"></path><rect height="22" rx="10" ry="10" width="45.5" x="149.75" y="54"></rect><text x="172.5" y="69">"f"</text></g><path d="M 199.5 65 h 20"></path><path d="M 125.5 65 a 10 10 0 0 1 10 10 v 10 a 10 10 0 0 0 10 10"></path><g class="terminal ">
<path d="M 145.5 95 h 0.0"></path><path d="M 199.5 95 h 0.0"></path><rect height="22" rx="10" ry="10" width="54.0" x="145.5" y="84"></rect><text x="172.5" y="99">"fe"</text></g><path d="M 199.5 95 a 10 10 0 0 0 10 -10 v -10 a 10 10 0 0 1 10 -10"></path><path d="M 125.5 65 a 10 10 0 0 1 10 10 v 40 a 10 10 0 0 0 10 10"></path><g class="terminal ">
<path d="M 145.5 125 h 0.0"></path><path d="M 199.5 125 h 0.0"></path><rect height="22" rx="10" ry="10" width="54.0" x="145.5" y="114"></rect><text x="172.5" y="129">"ef"</text></g><path d="M 199.5 125 a 10 10 0 0 0 10 -10 v -40 a 10 10 0 0 1 10 -10"></path></g></g><g class="non-terminal ">
<path d="M 115.5 28 h 0.0"></path><path d="M 132.5 28 h 0.0"></path><text class="comment" x="124.0" y="33">➊</text></g></g><path d="M 229.5 65 h 10"></path><path d="M 239.5 65 h 10"></path><g class="terminal ">
<path d="M 249.5 65 h 0.0"></path><path d="M 320.5 65 h 0.0"></path><rect height="22" rx="10" ry="10" width="71.0" x="249.5" y="54"></rect><text x="285.0" y="69">TAGEND</text></g><path d="M 320.5 65 h 10"></path><path d="M 330.5 65 h 10"></path><g class="terminal ">
<path d="M 340.5 65 h 0.0"></path><path d="M 394.5 65 h 0.0"></path><rect height="22" rx="10" ry="10" width="54.0" x="340.5" y="54"></rect><text x="367.5" y="69">TEXT</text></g><path d="M 394.5 65 h 10"></path><path d="M 404.5 65 h 10"></path><g class="terminal ">
<path d="M 414.5 65 h 0.0"></path><path d="M 494.0 65 h 0.0"></path><rect height="22" rx="10" ry="10" width="79.5" x="414.5" y="54"></rect><text x="454.25" y="69">TEXTEND</text></g><path d="M 494.0 65 h 10"></path><path d="M 504.0 65 h 10"></path><g>
<path d="M 514.0 65 h 0.0"></path><path d="M 642.0 65 h 0.0"></path><path d="M 514.0 65 h 20"></path><g>
<path d="M 534.0 65 h 88.0"></path></g><path d="M 622.0 65 h 20"></path><path d="M 514.0 65 a 10 10 0 0 1 10 10 v 0 a 10 10 0 0 0 10 10"></path><g class="non-terminal ">
<path d="M 534.0 85 h 0.0"></path><path d="M 622.0 85 h 0.0"></path><rect height="22" width="88.0" x="534.0" y="74"></rect><text x="578.0" y="89">category</text></g><path d="M 622.0 85 a 10 10 0 0 0 10 -10 v 0 a 10 10 0 0 1 10 -10"></path></g><path d="M 642.0 65 h 10"></path><path d="M 652.0 65 h 10"></path><g>
<path d="M 662.0 65 h 0.0"></path><path d="M 866.5 65 h 0.0"></path><path d="M 662.0 65 h 20"></path><g>
<path d="M 682.0 65 h 164.5"></path></g><path d="M 846.5 65 h 20"></path><path d="M 662.0 65 a 10 10 0 0 1 10 10 v 0 a 10 10 0 0 0 10 10"></path><g class="non-terminal ">
<path d="M 682.0 85 h 0.0"></path><path d="M 846.5 85 h 0.0"></path><rect height="22" width="164.5" x="682.0" y="74"></rect><text x="764.25" y="89">FootnoteReference</text></g><path d="M 846.5 85 a 10 10 0 0 0 10 -10 v 0 a 10 10 0 0 1 10 -10"></path></g><path d="M 866.5 65 h 10"></path><path d="M 876.5 65 h 10"></path><g>
<path d="M 886.5 65 h 0.0"></path><path d="M 1111.0 65 h 0.0"></path><path d="M 886.5 65 h 10"></path><g>
<path d="M 896.5 65 h 0.0"></path><path d="M 1101.0 65 h 0.0"></path><path d="M 896.5 65 h 20"></path><g class="non-terminal ">
<path d="M 916.5 65 h 21.25"></path><path d="M 1059.75 65 h 21.25"></path><rect height="22" width="122.0" x="937.75" y="54"></rect><text x="998.75" y="69">FootnoteChar</text></g><path d="M 1081.0 65 h 20"></path><path d="M 896.5 65 a 10 10 0 0 1 10 10 v 10 a 10 10 0 0 0 10 10"></path><g class="non-terminal ">
<path d="M 916.5 95 h 0.0"></path><path d="M 1081.0 95 h 0.0"></path><rect height="22" width="164.5" x="916.5" y="84"></rect><text x="998.75" y="99">FootnoteReference</text></g><path d="M 1081.0 95 a 10 10 0 0 0 10 -10 v -10 a 10 10 0 0 1 10 -10"></path></g><path d="M 1101.0 65 h 10"></path><path d="M 896.5 65 a 10 10 0 0 0 -10 10 v 39 a 10 10 0 0 0 10 10"></path><g>
<path d="M 896.5 124 h 204.5"></path></g><path d="M 1101.0 124 a 10 10 0 0 0 10 -10 v -39 a 10 10 0 0 0 -10 -10"></path></g><path d="M 1111.0 65 h 10"></path><path d="M 1121.0 65 h 10"></path><g class="terminal ">
<path d="M 1131.0 65 h 0.0"></path><path d="M 1176.5 65 h 0.0"></path><rect height="22" rx="10" ry="10" width="45.5" x="1131.0" y="54"></rect><text x="1153.75" y="69">'\'</text></g><path d="M 1176.5 65 h 10"></path><path d="M 1186.5 65 h 10"></path><g class="terminal ">
<path d="M 1196.5 65 h 0.0"></path><path d="M 1242.0 65 h 0.0"></path><rect height="22" rx="10" ry="10" width="45.5" x="1196.5" y="54"></rect><text x="1219.25" y="69">⇐ ➊</text></g><path d="M 1242.0 65 h 10"></path><path d="M 1252.0 65 h 10"></path><g class="terminal ">
<path d="M 1262.0 65 h 0.0"></path><path d="M 1307.5 65 h 0.0"></path><rect height="22" rx="10" ry="10" width="45.5" x="1262.0" y="54"></rect><text x="1284.75" y="69">'&#42;'</text></g></g><path d="M 1307.5 65 h 10"></path><path d="M 1317.5 65 h 20 m 0 -10 v 20"></path></g></svg>