<svg class="railroad-diagram" height="186" viewBox="0 0 1194.0 186" width="1194.0" xmlns="http://www.w3.org/2000/svg" xmlns:xlink="http://www.w3.org/1999/xlink">
<g transform="translate(.5 .5)">
<style>/* <![CDATA[ */
    svg.railroad-diagram {
        background-color:hsl(30,20%,95%);
    }
    svg.railroad-diagram path {
        stroke-width: 2;
        stroke: black;
        fill: none;
    }
    svg.railroad-diagram text {
        font-size: 12px;
        text-anchor: middle;
        font-family: DejaVu Sans;
    }
    svg.railroad-diagram text.label {
        text-anchor:start;
    }
    svg.railroad-diagram text.comment {
        font-family: DejaVu Sans;
        font-size: 14px;
    }
    svg.railroad-diagram rect{
        stroke-width: 2;
        stroke:black;
        fill: rgb(210, 255, 210);
    }
    svg.railroad-diagram rect.group-box {
        stroke: gray;
        stroke-dasharray: 10 5;
        fill: none;
    }
    .terminal {
        font-family: DejaVu Sans;
    }

/* ]]> */
</style><g>
<path d="M 20 69 v 20 m 0 -10 h 20"></path></g><path d="M 40 79 h 10"></path><g>
<path d="M 50 79 h 0.0"></path><path d="M 1144.0 79 h 0.0"></path><rect class="group-box" height="130" rx="10" ry="10" width="1094.0" x="50.0" y="36"></rect><g>
<path d="M 50.0 79 h 10.0"></path><path d="M 1134.0 79 h 10.0"></path><g>
<path d="M 60.0 79 h 0.0"></path><path d="M 229.5 79 h 0.0"></path><rect class="group-box" height="98" rx="10" ry="10" width="169.5" x="60.0" y="60"></rect><g>
<path d="M 60.0 79 h 10.0"></path><path d="M 219.5 79 h 10.0"></path><g class="terminal ">
<path d="M 70.0 79 h 0.0"></path><path d="M 115.5 79 h 0.0"></path><rect height="22" rx="10" ry="10" width="45.5" x="70.0" y="68"></rect><text x="92.75" y="83">"\"</text></g><path d="M 115.5 79 h 10"></path><g>
<path d="M 125.5 79 h 0.0"></path><path d="M 219.5 79 h 0.0"></path><path d="M 125.5 79 h 20"></path><g class="terminal ">
<path d="M 145.5 79 h 4.25"></path><path d="M 195.25 79 h 4.25"></path><rect height="22" rx="10" ry="10" width="45.5" x="149.75" y="68"></rect><text x="172.5" y="83">"f"</text></g><path d="M 199.5 79 h 20"></path><path d="M 125.5 79 a 10 10 0 0 1 10 10 v 10 a 10 10 0 0 0 10 10"></path><g class="terminal ">
<path d="M 145.5 109 h 0.0"></path><path d="M 199.5 109 h 0.0"></path><rect height="22" rx="10" ry="10" width="54.0" x="145.5" y="98"></rect><text x="172.5" y="113">"fe"</text></g><path d="M 199.5 109 a 10 10 0 0 0 10 -10 v -10 a 10 10 0 0 1 10 -10"></path><path d="M 125.5 79 a 10 10 0 0 1 10 10 v 40 a 10 10 0 0 0 10 10"></path><g class="terminal ">
<path d="M 145.5 139 h 0.0"></path><path d="M 199.5 139 h 0.0"></path><rect height="22" rx="10" ry="10" width="54.0" x="145.5" y="128"></rect><text x="172.5" y="143">"ef"</text></g><path d="M 199.5 139 a 10 10 0 0 0 10 -10 v -40 a 10 10 0 0 1 10 -10"></path></g></g><g class="non-terminal ">
<path d="M 60.0 52 h 0.0"></path><path d="M 77.0 52 h 0.0"></path><text class="comment" x="68.5" y="57">➊</text></g></g><path d="M 229.5 79 h 10"></path><path d="M 239.5 79 h 10"></path><g class="terminal ">
<path d="M 249.5 79 h 0.0"></path><path d="M 286.5 79 h 0.0"></path><rect height="22" rx="10" ry="10" width="37.0" x="249.5" y="68"></rect><text x="268.0" y="83">WS</text></g><path d="M 286.5 79 h 10"></path><path d="M 296.5 79 h 10"></path><g>
<path d="M 306.5 79 h 0.0"></path><path d="M 1134.0 79 h 0.0"></path><g class="terminal ">
<path d="M 306.5 79 h 0.0"></path><path d="M 369.0 79 h 0.0"></path><rect height="22" rx="10" ry="10" width="62.5" x="306.5" y="68"></rect><text x="337.75" y="83">/\S+/</text></g><path d="M 369.0 79 h 10"></path><path d="M 379.0 79 h 10"></path><g>
<path d="M 389.0 79 h 0.0"></path><path d="M 1134.0 79 h 0.0"></path><g class="terminal ">
<path d="M 389.0 79 h 0.0"></path><path d="M 426.0 79 h 0.0"></path><rect height="22" rx="10" ry="10" width="37.0" x="389.0" y="68"></rect><text x="407.5" y="83">WS</text></g><path d="M 426.0 79 h 10"></path><g>
<path d="M 436.0 79 h 0.0"></path><path d="M 564.0 79 h 0.0"></path><path d="M 436.0 79 h 20"></path><g>
<path d="M 456.0 79 h 88.0"></path></g><path d="M 544.0 79 h 20"></path><path d="M 436.0 79 a 10 10 0 0 1 10 10 v 0 a 10 10 0 0 0 10 10"></path><g class="non-terminal ">
<path d="M 456.0 99 h 0.0"></path><path d="M 544.0 99 h 0.0"></path><rect height="22" width="88.0" x="456.0" y="88"></rect><text x="500.0" y="103">category</text></g><path d="M 544.0 99 a 10 10 0 0 0 10 -10 v 0 a 10 10 0 0 1 10 -10"></path></g><g>
<path d="M 564.0 79 h 0.0"></path><path d="M 768.5 79 h 0.0"></path><path d="M 564.0 79 h 20"></path><g>
<path d="M 584.0 79 h 164.5"></path></g><path d="M 748.5 79 h 20"></path><path d="M 564.0 79 a 10 10 0 0 1 10 10 v 0 a 10 10 0 0 0 10 10"></path><g class="non-terminal ">
<path d="M 584.0 99 h 0.0"></path><path d="M 748.5 99 h 0.0"></path><rect height="22" width="164.5" x="584.0" y="88"></rect><text x="666.25" y="103">FootnoteReference</text></g><path d="M 748.5 99 a 10 10 0 0 0 10 -10 v 0 a 10 10 0 0 1 10 -10"></path></g><path d="M 768.5 79 h 10"></path><g>
<path d="M 778.5 79 h 0.0"></path><path d="M 1003.0 79 h 0.0"></path><path d="M 778.5 79 h 10"></path><g>
<path d="M 788.5 79 h 0.0"></path><path d="M 993.0 79 h 0.0"></path><path d="M 788.5 79 h 20"></path><g class="non-terminal ">
<path d="M 808.5 79 h 21.25"></path><path d="M 951.75 79 h 21.25"></path><rect height="22" width="122.0" x="829.75" y="68"></rect><text x="890.75" y="83">FootnoteChar</text></g><path d="M 973.0 79 h 20"></path><path d="M 788.5 79 a 10 10 0 0 1 10 10 v 10 a 10 10 0 0 0 10 10"></path><g class="non-terminal ">
<path d="M 808.5 109 h 0.0"></path><path d="M 973.0 109 h 0.0"></path><rect height="22" width="164.5" x="808.5" y="98"></rect><text x="890.75" y="113">FootnoteReference</text></g><path d="M 973.0 109 a 10 10 0 0 0 10 -10 v -10 a 10 10 0 0 1 10 -10"></path></g><path d="M 993.0 79 h 10"></path><path d="M 788.5 79 a 10 10 0 0 0 -10 10 v 29 a 10 10 0 0 0 10 10"></path><g>
<path d="M 788.5 128 h 204.5"></path></g><path d="M 993.0 128 a 10 10 0 0 0 10 -10 v -29 a 10 10 0 0 0 -10 -10"></path></g><path d="M 1003.0 79 h 10"></path><path d="M 1013.0 79 h 10"></path><g>
<path d="M 1023.0 79 h 0.0"></path><path d="M 1134.0 79 h 0.0"></path><g class="terminal ">
<path d="M 1023.0 79 h 0.0"></path><path d="M 1068.5 79 h 0.0"></path><rect height="22" rx="10" ry="10" width="45.5" x="1023.0" y="68"></rect><text x="1045.75" y="83">⇐ ➊</text></g><path d="M 1068.5 79 h 10"></path><path d="M 1078.5 79 h 10"></path><g class="terminal ">
<path d="M 1088.5 79 h 0.0"></path><path d="M 1134.0 79 h 0.0"></path><rect height="22" rx="10" ry="10" width="45.5" x="1088.5" y="68"></rect><text x="1111.25" y="83">"&#42;"</text></g></g></g></g></g><g class="non-terminal ">
<path d="M 50.0 28 h 0.0"></path><path d="M 116.0 28 h 0.0"></path><text class="comment" x="83.0" y="33">Footnote</text></g></g><path d="M 1144.0 79 h 10"></path><path d="M 1154.0 79 h 20 m 0 -10 v 20"></path></g></svg>