<svg class="railroad-diagram" height="204" viewBox="0 0 1255.5 204" width="1255.5" xmlns="http://www.w3.org/2000/svg" xmlns:xlink="http://www.w3.org/1999/xlink">
<g transform="translate(.5 .5)">
<style>/* <![CDATA[ */

    svg.railroad-diagram {
        background-color: hsl(30,20%,95%);
    }
    svg.railroad-diagram path {
        stroke-width: 2;
        stroke: black;
        fill: none;
    }
    svg.railroad-diagram text {
        font-size: 12px;
        text-anchor: middle;
        font-family: DejaVu Sans;
    }
    svg.railroad-diagram text.label {
        text-anchor:start;
    }
    svg.railroad-diagram text.comment {
        font-family: DejaVu Sans;
        font-size: 14px;
    }
    svg.railroad-diagram rect{
        stroke-width: 2;
        stroke: black;
        fill: rgb(210, 255, 210);
    }
    svg.railroad-diagram rect.group-box {
        stroke: gray;
        stroke-dasharray: 10 5;
        fill: none;
    }
    .terminal {
        font-family: DejaVu Sans;
    }
    svg.railroad-diagram g.altterminal rect {
        fill: rgb(251, 252, 207)
    }

/* ]]> */
</style><g>
<path d="M 20 55 v 20 m 0 -10 h 20"></path></g><path d="M 40 65 h 10"></path><g>
<path d="M 50 65 h 0.0"></path><path d="M 1205.5 65 h 0.0"></path><g class="terminal ">
<path d="M 50.0 65 h 0.0"></path><path d="M 104.0 65 h 0.0"></path><rect height="22" rx="10" ry="10" width="54.0" x="50.0" y="54"></rect><text x="77.0" y="69">'\\'</text></g><path d="M 104.0 65 h 10"></path><path d="M 114.0 65 h 10"></path><g>
<path d="M 124.0 65 h 0.0"></path><path d="M 246.5 65 h 0.0"></path><rect class="group-box" height="148" rx="10" ry="10" width="122.5" x="124.0" y="36"></rect><g>
<path d="M 124.0 65 h 10.0"></path><path d="M 236.5 65 h 10.0"></path><g>
<path d="M 134.0 65 h 0.0"></path><path d="M 236.5 65 h 0.0"></path><path d="M 134.0 65 h 20"></path><g class="terminal ">
<path d="M 154.0 65 h 4.25"></path><path d="M 212.25 65 h 4.25"></path><rect height="22" rx="10" ry="10" width="54.0" x="158.25" y="54"></rect><text x="185.25" y="69">"fe"</text></g><path d="M 216.5 65 h 20"></path><path d="M 134.0 65 a 10 10 0 0 1 10 10 v 10 a 10 10 0 0 0 10 10"></path><g class="terminal ">
<path d="M 154.0 95 h 8.5"></path><path d="M 208.0 95 h 8.5"></path><rect height="22" rx="10" ry="10" width="45.5" x="162.5" y="84"></rect><text x="185.25" y="99">"f"</text></g><path d="M 216.5 95 a 10 10 0 0 0 10 -10 v -10 a 10 10 0 0 1 10 -10"></path><path d="M 134.0 65 a 10 10 0 0 1 10 10 v 40 a 10 10 0 0 0 10 10"></path><g class="terminal ">
<path d="M 154.0 125 h 0.0"></path><path d="M 216.5 125 h 0.0"></path><rect height="22" rx="10" ry="10" width="62.5" x="154.0" y="114"></rect><text x="185.25" y="129">"efe"</text></g><path d="M 216.5 125 a 10 10 0 0 0 10 -10 v -40 a 10 10 0 0 1 10 -10"></path><path d="M 134.0 65 a 10 10 0 0 1 10 10 v 70 a 10 10 0 0 0 10 10"></path><g class="terminal ">
<path d="M 154.0 155 h 4.25"></path><path d="M 212.25 155 h 4.25"></path><rect height="22" rx="10" ry="10" width="54.0" x="158.25" y="144"></rect><text x="185.25" y="159">"ef"</text></g><path d="M 216.5 155 a 10 10 0 0 0 10 -10 v -70 a 10 10 0 0 1 10 -10"></path></g></g><g class="non-terminal ">
<path d="M 124.0 28 h 0.0"></path><path d="M 141.0 28 h 0.0"></path><text class="comment" x="132.5" y="33">➋</text></g></g><path d="M 246.5 65 h 10"></path><path d="M 256.5 65 h 10"></path><g>
<path d="M 266.5 65 h 0.0"></path><path d="M 377.5 65 h 0.0"></path><path d="M 266.5 65 h 20"></path><g class="terminal ">
<path d="M 286.5 65 h 12.75"></path><path d="M 344.75 65 h 12.75"></path><rect height="22" rx="10" ry="10" width="45.5" x="299.25" y="54"></rect><text x="322.0" y="69">' '</text></g><path d="M 357.5 65 h 20"></path><path d="M 266.5 65 a 10 10 0 0 1 10 10 v 10 a 10 10 0 0 0 10 10"></path><g class="terminal altterminal">
<path d="M 286.5 95 h 0.0"></path><path d="M 357.5 95 h 0.0"></path><rect height="22" rx="10" ry="10" width="71.0" x="286.5" y="84"></rect><text x="322.0" y="99">TAGEND</text></g><path d="M 357.5 95 a 10 10 0 0 0 10 -10 v -10 a 10 10 0 0 1 10 -10"></path></g><path d="M 377.5 65 h 10"></path><path d="M 387.5 65 h 10"></path><g class="terminal ">
<path d="M 397.5 65 h 0.0"></path><path d="M 502.5 65 h 0.0"></path><rect height="22" rx="10" ry="10" width="105.0" x="397.5" y="54"></rect><text x="450.0" y="69">/&#91;^\\\s&#93;+/</text></g><path d="M 502.5 65 h 10"></path><path d="M 512.5 65 h 10"></path><g>
<path d="M 522.5 65 h 0.0"></path><path d="M 608.0 65 h 0.0"></path><path d="M 522.5 65 h 20"></path><g class="terminal ">
<path d="M 542.5 65 h 0.0"></path><path d="M 588.0 65 h 0.0"></path><rect height="22" rx="10" ry="10" width="45.5" x="542.5" y="54"></rect><text x="565.25" y="69">' '</text></g><path d="M 588.0 65 h 20"></path><path d="M 522.5 65 a 10 10 0 0 1 10 10 v 10 a 10 10 0 0 0 10 10"></path><g class="terminal altterminal">
<path d="M 542.5 95 h 4.25"></path><path d="M 583.75 95 h 4.25"></path><rect height="22" rx="10" ry="10" width="37.0" x="546.75" y="84"></rect><text x="565.25" y="99">Hs</text></g><path d="M 588.0 95 a 10 10 0 0 0 10 -10 v -10 a 10 10 0 0 1 10 -10"></path></g><path d="M 608.0 65 h 10"></path><path d="M 618.0 65 h 10"></path><g>
<path d="M 628.0 65 h 0.0"></path><path d="M 756.0 65 h 0.0"></path><path d="M 628.0 65 h 20"></path><g>
<path d="M 648.0 65 h 88.0"></path></g><path d="M 736.0 65 h 20"></path><path d="M 628.0 65 a 10 10 0 0 1 10 10 v 0 a 10 10 0 0 0 10 10"></path><g class="non-terminal ">
<path d="M 648.0 85 h 0.0"></path><path d="M 736.0 85 h 0.0"></path><rect height="22" width="88.0" x="648.0" y="74"></rect><text x="692.0" y="89">category</text></g><path d="M 736.0 85 a 10 10 0 0 0 10 -10 v 0 a 10 10 0 0 1 10 -10"></path></g><path d="M 756.0 65 h 10"></path><path d="M 766.0 65 h 10"></path><g>
<path d="M 776.0 65 h 0.0"></path><path d="M 918.0 65 h 0.0"></path><path d="M 776.0 65 h 10"></path><g class="non-terminal ">
<path d="M 786.0 65 h 0.0"></path><path d="M 908.0 65 h 0.0"></path><rect height="22" width="122.0" x="786.0" y="54"></rect><text x="847.0" y="69">FootnoteChar</text></g><path d="M 908.0 65 h 10"></path><path d="M 786.0 65 a 10 10 0 0 0 -10 10 v 0 a 10 10 0 0 0 10 10"></path><g>
<path d="M 786.0 85 h 122.0"></path></g><path d="M 908.0 85 a 10 10 0 0 0 10 -10 v 0 a 10 10 0 0 0 -10 -10"></path></g><path d="M 918.0 65 h 10"></path><path d="M 928.0 65 h 10"></path><g>
<path d="M 938.0 65 h 0.0"></path><path d="M 1074.5 65 h 0.0"></path><path d="M 938.0 65 h 20"></path><g class="terminal ">
<path d="M 958.0 65 h 21.25"></path><path d="M 1033.25 65 h 21.25"></path><rect height="22" rx="10" ry="10" width="54.0" x="979.25" y="54"></rect><text x="1006.25" y="69">'\\'</text></g><path d="M 1054.5 65 h 20"></path><path d="M 938.0 65 a 10 10 0 0 1 10 10 v 10 a 10 10 0 0 0 10 10"></path><g class="terminal altterminal">
<path d="M 958.0 95 h 0.0"></path><path d="M 1054.5 95 h 0.0"></path><rect height="22" rx="10" ry="10" width="96.5" x="958.0" y="84"></rect><text x="1006.25" y="99">/${Ws}\\/</text></g><path d="M 1054.5 95 a 10 10 0 0 0 10 -10 v -10 a 10 10 0 0 1 10 -10"></path></g><path d="M 1074.5 65 h 10"></path><path d="M 1084.5 65 h 10"></path><g class="terminal ">
<path d="M 1094.5 65 h 0.0"></path><path d="M 1140.0 65 h 0.0"></path><rect height="22" rx="10" ry="10" width="45.5" x="1094.5" y="54"></rect><text x="1117.25" y="69">⇐ ➋</text></g><path d="M 1140.0 65 h 10"></path><path d="M 1150.0 65 h 10"></path><g class="terminal ">
<path d="M 1160.0 65 h 0.0"></path><path d="M 1205.5 65 h 0.0"></path><rect height="22" rx="10" ry="10" width="45.5" x="1160.0" y="54"></rect><text x="1182.75" y="69">'&#42;'</text></g></g><path d="M 1205.5 65 h 10"></path><path d="M 1215.5 65 h 20 m 0 -10 v 20"></path></g></svg>