<svg class="railroad-diagram" height="174" viewBox="0 0 1418.0 174" width="1418.0" xmlns="http://www.w3.org/2000/svg" xmlns:xlink="http://www.w3.org/1999/xlink">
<g transform="translate(.5 .5)">
<style>/* <![CDATA[ */

    svg.railroad-diagram {
        background-color: hsl(30,20%,95%);
    }
    svg.railroad-diagram path {
        stroke-width: 2;
        stroke: black;
        fill: none;
    }
    svg.railroad-diagram text {
        font-size: 12px;
        text-anchor: middle;
        font-family: DejaVu Sans;
    }
    svg.railroad-diagram text.label {
        text-anchor:start;
    }
    svg.railroad-diagram text.comment {
        font-family: DejaVu Sans;
        font-size: 14px;
    }
    svg.railroad-diagram rect{
        stroke-width: 2;
        stroke: black;
        fill: rgb(210, 255, 210);
    }
    svg.railroad-diagram rect.group-box {
        stroke: gray;
        stroke-dasharray: 10 5;
        fill: none;
    }
    .terminal {
        font-family: DejaVu Sans;
    }
    svg.railroad-diagram g.altterminal rect {
        fill: rgb(251, 252, 207)
    }

/* ]]> */
</style><g>
<path d="M 20 55 v 20 m 0 -10 h 20"></path></g><path d="M 40 65 h 10"></path><g>
<path d="M 50 65 h 0.0"></path><path d="M 1368.0 65 h 0.0"></path><g class="terminal ">
<path d="M 50.0 65 h 0.0"></path><path d="M 95.5 65 h 0.0"></path><rect height="22" rx="10" ry="10" width="45.5" x="50.0" y="54"></rect><text x="72.75" y="69">'\'</text></g><path d="M 95.5 65 h 10"></path><path d="M 105.5 65 h 10"></path><g>
<path d="M 115.5 65 h 0.0"></path><path d="M 229.5 65 h 0.0"></path><rect class="group-box" height="118" rx="10" ry="10" width="114.0" x="115.5" y="36"></rect><g>
<path d="M 115.5 65 h 10.0"></path><path d="M 219.5 65 h 10.0"></path><g>
<path d="M 125.5 65 h 0.0"></path><path d="M 219.5 65 h 0.0"></path><path d="M 125.5 65 h 20"></path><g class="terminal ">
<path d="M 145.5 65 h 4.25"></path><path d="M 195.25 65 h 4.25"></path><rect height="22" rx="10" ry="10" width="45.5" x="149.75" y="54"></rect><text x="172.5" y="69">"f"</text></g><path d="M 199.5 65 h 20"></path><path d="M 125.5 65 a 10 10 0 0 1 10 10 v 10 a 10 10 0 0 0 10 10"></path><g class="terminal ">
<path d="M 145.5 95 h 0.0"></path><path d="M 199.5 95 h 0.0"></path><rect height="22" rx="10" ry="10" width="54.0" x="145.5" y="84"></rect><text x="172.5" y="99">"fe"</text></g><path d="M 199.5 95 a 10 10 0 0 0 10 -10 v -10 a 10 10 0 0 1 10 -10"></path><path d="M 125.5 65 a 10 10 0 0 1 10 10 v 40 a 10 10 0 0 0 10 10"></path><g class="terminal ">
<path d="M 145.5 125 h 0.0"></path><path d="M 199.5 125 h 0.0"></path><rect height="22" rx="10" ry="10" width="54.0" x="145.5" y="114"></rect><text x="172.5" y="129">"ef"</text></g><path d="M 199.5 125 a 10 10 0 0 0 10 -10 v -40 a 10 10 0 0 1 10 -10"></path></g></g><g class="non-terminal ">
<path d="M 115.5 28 h 0.0"></path><path d="M 132.5 28 h 0.0"></path><text class="comment" x="124.0" y="33">➋</text></g></g><path d="M 229.5 65 h 10"></path><path d="M 239.5 65 h 10"></path><g>
<path d="M 249.5 65 h 0.0"></path><path d="M 360.5 65 h 0.0"></path><path d="M 249.5 65 h 20"></path><g class="terminal ">
<path d="M 269.5 65 h 12.75"></path><path d="M 327.75 65 h 12.75"></path><rect height="22" rx="10" ry="10" width="45.5" x="282.25" y="54"></rect><text x="305.0" y="69">' '</text></g><path d="M 340.5 65 h 20"></path><path d="M 249.5 65 a 10 10 0 0 1 10 10 v 10 a 10 10 0 0 0 10 10"></path><g class="terminal altterminal">
<path d="M 269.5 95 h 0.0"></path><path d="M 340.5 95 h 0.0"></path><rect height="22" rx="10" ry="10" width="71.0" x="269.5" y="84"></rect><text x="305.0" y="99">TAGEND</text></g><path d="M 340.5 95 a 10 10 0 0 0 10 -10 v -10 a 10 10 0 0 1 10 -10"></path></g><path d="M 360.5 65 h 10"></path><path d="M 370.5 65 h 10"></path><g class="terminal ">
<path d="M 380.5 65 h 0.0"></path><path d="M 485.5 65 h 0.0"></path><rect height="22" rx="10" ry="10" width="105.0" x="380.5" y="54"></rect><text x="433.0" y="69">/&#91;^\\\s&#93;+/</text></g><path d="M 485.5 65 h 10"></path><path d="M 495.5 65 h 10"></path><g>
<path d="M 505.5 65 h 0.0"></path><path d="M 608.0 65 h 0.0"></path><path d="M 505.5 65 h 20"></path><g class="terminal ">
<path d="M 525.5 65 h 8.5"></path><path d="M 579.5 65 h 8.5"></path><rect height="22" rx="10" ry="10" width="45.5" x="534.0" y="54"></rect><text x="556.75" y="69">' '</text></g><path d="M 588.0 65 h 20"></path><path d="M 505.5 65 a 10 10 0 0 1 10 10 v 10 a 10 10 0 0 0 10 10"></path><g class="terminal altterminal">
<path d="M 525.5 95 h 0.0"></path><path d="M 588.0 95 h 0.0"></path><rect height="22" rx="10" ry="10" width="62.5" x="525.5" y="84"></rect><text x="556.75" y="99">/WSS/</text></g><path d="M 588.0 95 a 10 10 0 0 0 10 -10 v -10 a 10 10 0 0 1 10 -10"></path></g><path d="M 608.0 65 h 10"></path><path d="M 618.0 65 h 10"></path><g>
<path d="M 628.0 65 h 0.0"></path><path d="M 756.0 65 h 0.0"></path><path d="M 628.0 65 h 20"></path><g>
<path d="M 648.0 65 h 88.0"></path></g><path d="M 736.0 65 h 20"></path><path d="M 628.0 65 a 10 10 0 0 1 10 10 v 0 a 10 10 0 0 0 10 10"></path><g class="non-terminal ">
<path d="M 648.0 85 h 0.0"></path><path d="M 736.0 85 h 0.0"></path><rect height="22" width="88.0" x="648.0" y="74"></rect><text x="692.0" y="89">category</text></g><path d="M 736.0 85 a 10 10 0 0 0 10 -10 v 0 a 10 10 0 0 1 10 -10"></path></g><path d="M 756.0 65 h 10"></path><path d="M 766.0 65 h 10"></path><g class="non-terminal ">
<path d="M 776.0 65 h 0.0"></path><path d="M 898.0 65 h 0.0"></path><rect height="22" width="122.0" x="776.0" y="54"></rect><text x="837.0" y="69">FootnoteChar</text></g><path d="M 898.0 65 h 10"></path><path d="M 908.0 65 h 10"></path><g>
<path d="M 918.0 65 h 0.0"></path><path d="M 1171.5 65 h 0.0"></path><path d="M 918.0 65 a 10 10 0 0 0 10 -10 v -9 a 10 10 0 0 1 10 -10"></path><g>
<path d="M 938.0 36 h 213.5"></path></g><path d="M 1151.5 36 a 10 10 0 0 1 10 10 v 9 a 10 10 0 0 0 10 10"></path><path d="M 918.0 65 h 20"></path><g>
<path d="M 938.0 65 h 0.0"></path><path d="M 1151.5 65 h 0.0"></path><path d="M 938.0 65 h 10"></path><g>
<path d="M 948.0 65 h 0.0"></path><path d="M 1141.5 65 h 0.0"></path><path d="M 948.0 65 h 20"></path><g class="non-terminal ">
<path d="M 968.0 65 h 15.75"></path><path d="M 1105.75 65 h 15.75"></path><rect height="22" width="122.0" x="983.75" y="54"></rect><text x="1044.75" y="69">FootnoteChar</text></g><path d="M 1121.5 65 h 20"></path><path d="M 948.0 65 a 10 10 0 0 1 10 10 v 10 a 10 10 0 0 0 10 10"></path><g>
<path d="M 968.0 95 h 0.0"></path><path d="M 1121.5 95 h 0.0"></path><g class="terminal ">
<path d="M 968.0 95 h 0.0"></path><path d="M 1022.0 95 h 0.0"></path><rect height="22" rx="10" ry="10" width="54.0" x="968.0" y="84"></rect><text x="995.0" y="99">TEXT</text></g><path d="M 1022.0 95 h 10"></path><path d="M 1032.0 95 h 10"></path><g class="terminal ">
<path d="M 1042.0 95 h 0.0"></path><path d="M 1121.5 95 h 0.0"></path><rect height="22" rx="10" ry="10" width="79.5" x="1042.0" y="84"></rect><text x="1081.75" y="99">TEXTEND</text></g></g><path d="M 1121.5 95 a 10 10 0 0 0 10 -10 v -10 a 10 10 0 0 1 10 -10"></path></g><path d="M 1141.5 65 h 10"></path><path d="M 948.0 65 a 10 10 0 0 0 -10 10 v 39 a 10 10 0 0 0 10 10"></path><g>
<path d="M 948.0 124 h 193.5"></path></g><path d="M 1141.5 124 a 10 10 0 0 0 10 -10 v -39 a 10 10 0 0 0 -10 -10"></path></g><path d="M 1151.5 65 h 20"></path></g><path d="M 1171.5 65 h 10"></path><path d="M 1181.5 65 h 10"></path><g class="terminal ">
<path d="M 1191.5 65 h 0.0"></path><path d="M 1237.0 65 h 0.0"></path><rect height="22" rx="10" ry="10" width="45.5" x="1191.5" y="54"></rect><text x="1214.25" y="69">'\'</text></g><path d="M 1237.0 65 h 10"></path><path d="M 1247.0 65 h 10"></path><g class="terminal ">
<path d="M 1257.0 65 h 0.0"></path><path d="M 1302.5 65 h 0.0"></path><rect height="22" rx="10" ry="10" width="45.5" x="1257.0" y="54"></rect><text x="1279.75" y="69">⇐ ➋</text></g><path d="M 1302.5 65 h 10"></path><path d="M 1312.5 65 h 10"></path><g class="terminal ">
<path d="M 1322.5 65 h 0.0"></path><path d="M 1368.0 65 h 0.0"></path><rect height="22" rx="10" ry="10" width="45.5" x="1322.5" y="54"></rect><text x="1345.25" y="69">'&#42;'</text></g></g><path d="M 1368.0 65 h 10"></path><path d="M 1378.0 65 h 20 m 0 -10 v 20"></path></g></svg>