<svg class="railroad-diagram" height="310" viewBox="0 0 737.0 310" width="737.0" xmlns="http://www.w3.org/2000/svg" xmlns:xlink="http://www.w3.org/1999/xlink">
<g transform="translate(.5 .5)">
<style>/* <![CDATA[ */

    svg.railroad-diagram {
        background-color: hsl(30,20%,95%);
    }
    svg.railroad-diagram path {
        stroke-width: 2;
        stroke: black;
        fill: none;
    }
    svg.railroad-diagram text {
        font-size: 12px;
        text-anchor: middle;
        font-family: DejaVu Sans;
    }
    svg.railroad-diagram text.label {
        text-anchor:start;
    }
    svg.railroad-diagram text.comment {
        font-family: DejaVu Sans;
        font-size: 14px;
    }
    svg.railroad-diagram rect{
        stroke-width: 2;
        stroke: black;
        fill: rgb(210, 255, 210);
    }
    svg.railroad-diagram rect.group-box {
        stroke: gray;
        stroke-dasharray: 10 5;
        fill: none;
    }
    .terminal {
        font-family: DejaVu Sans;
    }
    svg.railroad-diagram g.altterminal rect {
        fill: rgb(251, 252, 207)
    }

/* ]]> */
</style><g>
<path d="M 20 45 v 20 m 0 -10 h 20"></path></g><path d="M 40 55 h 10"></path><g>
<path d="M 50 55 h 0.0"></path><path d="M 687.0 239 h 0.0"></path><g>
<path d="M 50.0 55 h 0.0"></path><path d="M 50.0 55 h 10"></path><g>
<path d="M 60.0 55 h 10.0"></path><path d="M 667.0 55 h 10.0"></path><g class="terminal ">
<path d="M 70.0 55 h 0.0"></path><path d="M 124.0 55 h 0.0"></path><rect height="22" rx="10" ry="10" width="54.0" x="70.0" y="44"></rect><text x="97.0" y="59">'\\'</text></g><path d="M 124.0 55 h 10"></path><path d="M 134.0 55 h 10"></path><g>
<path d="M 144.0 55 h 0.0"></path><path d="M 345.5 55 h 0.0"></path><rect class="group-box" height="38" rx="10" ry="10" width="201.5" x="144.0" y="36"></rect><g>
<path d="M 144.0 55 h 10.0"></path><path d="M 335.5 55 h 10.0"></path><g class="non-terminal ">
<path d="M 154.0 55 h 0.0"></path><path d="M 335.5 55 h 0.0"></path><rect height="22" width="181.5" x="154.0" y="44"></rect><text x="244.75" y="59">Footnote.style.enum</text></g></g><g class="non-terminal ">
<path d="M 144.0 28 h 0.0"></path><path d="M 161.0 28 h 0.0"></path><text class="comment" x="152.5" y="33">➋</text></g></g><path d="M 345.5 55 h 10"></path><path d="M 355.5 55 h 10"></path><g>
<path d="M 365.5 55 h 0.0"></path><path d="M 476.5 55 h 0.0"></path><path d="M 365.5 55 h 20"></path><g class="terminal ">
<path d="M 385.5 55 h 12.75"></path><path d="M 443.75 55 h 12.75"></path><rect height="22" rx="10" ry="10" width="45.5" x="398.25" y="44"></rect><text x="421.0" y="59">' '</text></g><path d="M 456.5 55 h 20"></path><path d="M 365.5 55 a 10 10 0 0 1 10 10 v 10 a 10 10 0 0 0 10 10"></path><g class="terminal altterminal">
<path d="M 385.5 85 h 0.0"></path><path d="M 456.5 85 h 0.0"></path><rect height="22" rx="10" ry="10" width="71.0" x="385.5" y="74"></rect><text x="421.0" y="89">TAGEND</text></g><path d="M 456.5 85 a 10 10 0 0 0 10 -10 v -10 a 10 10 0 0 1 10 -10"></path></g><path d="M 476.5 55 h 10"></path><path d="M 486.5 55 h 10"></path><g>
<path d="M 496.5 55 h 0.0"></path><path d="M 667.0 55 h 0.0"></path><path d="M 496.5 55 h 20"></path><g>
<path d="M 516.5 55 h 130.5"></path></g><path d="M 647.0 55 h 20"></path><path d="M 496.5 55 a 10 10 0 0 1 10 10 v 0 a 10 10 0 0 0 10 10"></path><g class="non-terminal ">
<path d="M 516.5 75 h 0.0"></path><path d="M 647.0 75 h 0.0"></path><rect height="22" width="130.5" x="516.5" y="64"></rect><text x="581.75" y="79">AttributesPre</text></g><path d="M 647.0 75 a 10 10 0 0 0 10 -10 v 0 a 10 10 0 0 1 10 -10"></path></g></g><path d="M 677.0 55 a 10 10 0 0 1 10 10 v 39 a 10 10 0 0 1 -10 10 h -617.0 a 10 10 0 0 0 -10 10 v 9 a 10 10 0 0 0 10 10"></path><g>
<path d="M 60.0 143 h 12.5"></path><path d="M 664.5 143 h 12.5"></path><g class="terminal ">
<path d="M 72.5 143 h 0.0"></path><path d="M 177.5 143 h 0.0"></path><rect height="22" rx="10" ry="10" width="105.0" x="72.5" y="132"></rect><text x="125.0" y="147">/&#91;^\\\s&#93;+/</text></g><path d="M 177.5 143 h 10"></path><path d="M 187.5 143 h 10"></path><g>
<path d="M 197.5 143 h 0.0"></path><path d="M 283.0 143 h 0.0"></path><path d="M 197.5 143 h 20"></path><g class="terminal ">
<path d="M 217.5 143 h 0.0"></path><path d="M 263.0 143 h 0.0"></path><rect height="22" rx="10" ry="10" width="45.5" x="217.5" y="132"></rect><text x="240.25" y="147">' '</text></g><path d="M 263.0 143 h 20"></path><path d="M 197.5 143 a 10 10 0 0 1 10 10 v 10 a 10 10 0 0 0 10 10"></path><g class="terminal altterminal">
<path d="M 217.5 173 h 4.25"></path><path d="M 258.75 173 h 4.25"></path><rect height="22" rx="10" ry="10" width="37.0" x="221.75" y="162"></rect><text x="240.25" y="177">HS</text></g><path d="M 263.0 173 a 10 10 0 0 0 10 -10 v -10 a 10 10 0 0 1 10 -10"></path></g><path d="M 283.0 143 h 10"></path><path d="M 293.0 143 h 10"></path><g>
<path d="M 303.0 143 h 0.0"></path><path d="M 664.5 143 h 0.0"></path><g>
<path d="M 303.0 143 h 0.0"></path><path d="M 431.0 143 h 0.0"></path><path d="M 303.0 143 h 20"></path><g>
<path d="M 323.0 143 h 88.0"></path></g><path d="M 411.0 143 h 20"></path><path d="M 303.0 143 a 10 10 0 0 1 10 10 v 0 a 10 10 0 0 0 10 10"></path><g class="non-terminal ">
<path d="M 323.0 163 h 0.0"></path><path d="M 411.0 163 h 0.0"></path><rect height="22" width="88.0" x="323.0" y="152"></rect><text x="367.0" y="167">category</text></g><path d="M 411.0 163 a 10 10 0 0 0 10 -10 v 0 a 10 10 0 0 1 10 -10"></path></g><path d="M 431.0 143 h 10"></path><path d="M 441.0 143 h 10"></path><g>
<path d="M 451.0 143 h 0.0"></path><path d="M 664.5 143 h 0.0"></path><path d="M 451.0 143 h 10"></path><g>
<path d="M 461.0 143 h 0.0"></path><path d="M 654.5 143 h 0.0"></path><path d="M 461.0 143 h 20"></path><g class="non-terminal ">
<path d="M 481.0 143 h 15.75"></path><path d="M 618.75 143 h 15.75"></path><rect height="22" width="122.0" x="496.75" y="132"></rect><text x="557.75" y="147">FootnoteChar</text></g><path d="M 634.5 143 h 20"></path><path d="M 461.0 143 a 10 10 0 0 1 10 10 v 10 a 10 10 0 0 0 10 10"></path><g>
<path d="M 481.0 173 h 0.0"></path><path d="M 634.5 173 h 0.0"></path><g class="terminal ">
<path d="M 481.0 173 h 0.0"></path><path d="M 535.0 173 h 0.0"></path><rect height="22" rx="10" ry="10" width="54.0" x="481.0" y="162"></rect><text x="508.0" y="177">TEXT</text></g><path d="M 535.0 173 h 10"></path><path d="M 545.0 173 h 10"></path><g class="terminal ">
<path d="M 555.0 173 h 0.0"></path><path d="M 634.5 173 h 0.0"></path><rect height="22" rx="10" ry="10" width="79.5" x="555.0" y="162"></rect><text x="594.75" y="177">TEXTEND</text></g></g><path d="M 634.5 173 a 10 10 0 0 0 10 -10 v -10 a 10 10 0 0 1 10 -10"></path></g><path d="M 654.5 143 h 10"></path><path d="M 461.0 143 a 10 10 0 0 0 -10 10 v 39 a 10 10 0 0 0 10 10"></path><g>
<path d="M 461.0 202 h 193.5"></path></g><path d="M 654.5 202 a 10 10 0 0 0 10 -10 v -39 a 10 10 0 0 0 -10 -10"></path></g></g></g><path d="M 677.0 143 a 10 10 0 0 1 10 10 v 47 a 10 10 0 0 1 -10 10 h -617.0 a 10 10 0 0 0 -10 10 v 9 a 10 10 0 0 0 10 10"></path><g>
<path d="M 60.0 239 h 174.75"></path><path d="M 502.25 239 h 174.75"></path><g>
<path d="M 234.75 239 h 0.0"></path><path d="M 371.25 239 h 0.0"></path><path d="M 234.75 239 h 20"></path><g class="terminal ">
<path d="M 254.75 239 h 21.25"></path><path d="M 330.0 239 h 21.25"></path><rect height="22" rx="10" ry="10" width="54.0" x="276.0" y="228"></rect><text x="303.0" y="243">'\\'</text></g><path d="M 351.25 239 h 20"></path><path d="M 234.75 239 a 10 10 0 0 1 10 10 v 10 a 10 10 0 0 0 10 10"></path><g class="terminal altterminal">
<path d="M 254.75 269 h 0.0"></path><path d="M 351.25 269 h 0.0"></path><rect height="22" rx="10" ry="10" width="96.5" x="254.75" y="258"></rect><text x="303.0" y="273">/${Ws}\\/</text></g><path d="M 351.25 269 a 10 10 0 0 0 10 -10 v -10 a 10 10 0 0 1 10 -10"></path></g><path d="M 371.25 239 h 10"></path><path d="M 381.25 239 h 10"></path><g class="terminal ">
<path d="M 391.25 239 h 0.0"></path><path d="M 436.75 239 h 0.0"></path><rect height="22" rx="10" ry="10" width="45.5" x="391.25" y="228"></rect><text x="414.0" y="243">⇐ ➋</text></g><path d="M 436.75 239 h 10"></path><path d="M 446.75 239 h 10"></path><g class="terminal ">
<path d="M 456.75 239 h 0.0"></path><path d="M 502.25 239 h 0.0"></path><rect height="22" rx="10" ry="10" width="45.5" x="456.75" y="228"></rect><text x="479.5" y="243">'&#42;'</text></g></g><path d="M 677.0 239 h 10"></path><path d="M 687.0 239 h 0.0"></path></g></g><path d="M 687.0 239 h 10"></path><path d="M 697.0 239 h 20 m 0 -10 v 20"></path></g></svg>