<svg class="railroad-diagram" height="340" viewBox="0 0 455.5 340" width="455.5" xmlns="http://www.w3.org/2000/svg" xmlns:xlink="http://www.w3.org/1999/xlink">
<g transform="translate(.5 .5)">
<style>/* <![CDATA[ */

    svg.railroad-diagram {
        background-color:hsl(30,20%,95%);
    }
    svg.railroad-diagram path {
        stroke-width: 2;
        stroke: black;
        fill: none;
    }
    svg.railroad-diagram text {
        font-size: 12px;
        text-anchor: middle;
        font-family: DejaVu Sans;
    }
    svg.railroad-diagram text.label {
        text-anchor:start;
    }
    svg.railroad-diagram text.comment {
        font-family: DejaVu Sans;
        font-size: 14px;
    }
    svg.railroad-diagram rect{
        stroke-width: 2;
        stroke:black;
        fill: rgb(210, 210, 255);
    }
    svg.railroad-diagram rect.group-box {
        stroke: gray;
        stroke-dasharray: 10 5;
        fill: none;
    }
    .terminal {
        font-family: DejaVu Sans;
    }

/* ]]> */
</style><g>
<path d="M 20 201 v 20 m 0 -10 h 20"></path></g><path d="M 40 211 h 10"></path><g>
<path d="M 50 211 h 0.0"></path><path d="M 405.5 211 h 0.0"></path><g>
<path d="M 50.0 211 h 0.0"></path><path d="M 405.5 211 h 0.0"></path><g class="terminal ">
<path d="M 50.0 211 h 0.0"></path><path d="M 121.0 211 h 0.0"></path><rect height="22" rx="10" ry="10" width="71.0" x="50.0" y="200"></rect><text x="85.5" y="215">&#60;note></text></g><path d="M 121.0 211 h 10"></path><path d="M 131.0 211 h 10"></path><g>
<path d="M 141.0 211 h 0.0"></path><path d="M 405.5 211 h 0.0"></path><path d="M 141.0 211 a 10 10 0 0 0 10 -10 v -80 a 10 10 0 0 1 10 -10"></path><g>
<path d="M 161.0 111 h 0.0"></path><path d="M 346.0 111 h 0.0"></path><g class="terminal ">
<path d="M 161.0 111 h 0.0"></path><path d="M 232.0 111 h 0.0"></path><rect height="22" rx="10" ry="10" width="71.0" x="161.0" y="100"></rect><text x="196.5" y="115">@style</text></g><path d="M 232.0 111 h 10"></path><path d="M 242.0 111 h 10"></path><g>
<path d="M 252.0 111 h 0.0"></path><path d="M 252.0 111 h 20"></path><g class="terminal ">
<path d="M 272.0 111 h 0.0"></path><path d="M 317.5 111 h 0.0"></path><rect height="22" rx="10" ry="10" width="45.5" x="272.0" y="100"></rect><text x="294.75" y="115">"f"</text></g><path d="M 252.0 111 a 10 10 0 0 1 10 10 v 10 a 10 10 0 0 0 10 10"></path><g class="terminal ">
<path d="M 272.0 141 h 0.0"></path><path d="M 326.0 141 h 0.0"></path><rect height="22" rx="10" ry="10" width="54.0" x="272.0" y="130"></rect><text x="299.0" y="145">"fe"</text></g><path d="M 252.0 111 a 10 10 0 0 1 10 10 v 40 a 10 10 0 0 0 10 10"></path><g class="terminal ">
<path d="M 272.0 171 h 0.0"></path><path d="M 326.0 171 h 0.0"></path><rect height="22" rx="10" ry="10" width="54.0" x="272.0" y="160"></rect><text x="299.0" y="175">"ef"</text></g></g></g><path d="M 141.0 211 a 10 10 0 0 0 10 -10 v -120 a 10 10 0 0 1 10 -10"></path><g>
<path d="M 161.0 71 h 0.0"></path><path d="M 314.5 71 h 0.0"></path><g class="terminal ">
<path d="M 161.0 71 h 0.0"></path><path d="M 240.5 71 h 0.0"></path><rect height="22" rx="10" ry="10" width="79.5" x="161.0" y="60"></rect><text x="200.75" y="75">@caller</text></g><path d="M 240.5 71 h 10"></path><path d="M 250.5 71 h 10"></path><g class="terminal ">
<path d="M 260.5 71 h 0.0"></path><path d="M 314.5 71 h 0.0"></path><rect height="22" rx="10" ry="10" width="54.0" x="260.5" y="60"></rect><text x="287.5" y="75">TEXT</text></g></g><path d="M 141.0 211 a 10 10 0 0 0 10 -10 v -150 a 10 10 0 0 1 10 -10"></path><g>
<path d="M 161.0 41 h 0.0"></path><path d="M 331.5 41 h 0.0"></path><g class="terminal ">
<path d="M 161.0 41 h 0.0"></path><path d="M 257.5 41 h 0.0"></path><rect height="22" rx="10" ry="10" width="96.5" x="161.0" y="30"></rect><text x="209.25" y="45">@category</text></g><path d="M 257.5 41 h 10"></path><path d="M 267.5 41 h 10"></path><g class="terminal ">
<path d="M 277.5 41 h 0.0"></path><path d="M 331.5 41 h 0.0"></path><rect height="22" rx="10" ry="10" width="54.0" x="277.5" y="30"></rect><text x="304.5" y="45">TEXT</text></g></g><path d="M 141.0 211 h 20"></path><g class="non-terminal ">
<path d="M 161.0 211 h 30.0"></path><path d="M 355.5 211 h 30.0"></path><rect height="22" width="164.5" x="191.0" y="200"></rect><text x="273.25" y="215">FootnoteReference</text></g><path d="M 385.5 211 h 20"></path><path d="M 141.0 211 a 10 10 0 0 1 10 10 v 20 a 10 10 0 0 0 10 10"></path><g>
<path d="M 161.0 251 h 0.0"></path><path d="M 385.5 251 h 0.0"></path><path d="M 161.0 251 h 10"></path><g>
<path d="M 171.0 251 h 0.0"></path><path d="M 375.5 251 h 0.0"></path><path d="M 171.0 251 h 20"></path><g class="non-terminal ">
<path d="M 191.0 251 h 21.25"></path><path d="M 334.25 251 h 21.25"></path><rect height="22" width="122.0" x="212.25" y="240"></rect><text x="273.25" y="255">FootnoteChar</text></g><path d="M 355.5 251 h 20"></path><path d="M 171.0 251 a 10 10 0 0 1 10 10 v 10 a 10 10 0 0 0 10 10"></path><g class="non-terminal ">
<path d="M 191.0 281 h 0.0"></path><path d="M 355.5 281 h 0.0"></path><rect height="22" width="164.5" x="191.0" y="270"></rect><text x="273.25" y="285">FootnoteReference</text></g><path d="M 355.5 281 a 10 10 0 0 0 10 -10 v -10 a 10 10 0 0 1 10 -10"></path></g><path d="M 375.5 251 h 10"></path><path d="M 171.0 251 a 10 10 0 0 0 -10 10 v 39 a 10 10 0 0 0 10 10"></path><g>
<path d="M 171.0 310 h 204.5"></path></g><path d="M 375.5 310 a 10 10 0 0 0 10 -10 v -39 a 10 10 0 0 0 -10 -10"></path></g><path d="M 385.5 251 a 10 10 0 0 0 10 -10 v -20 a 10 10 0 0 1 10 -10"></path></g></g></g><path d="M 405.5 211 h 10"></path><path d="M 415.5 211 h 20 m 0 -10 v 20"></path></g></svg>