<svg class="railroad-diagram" height="291" viewBox="0 0 779.5 291" width="779.5" xmlns="http://www.w3.org/2000/svg" xmlns:xlink="http://www.w3.org/1999/xlink">
<g transform="translate(.5 .5)">
<style>/* <![CDATA[ */
    svg.railroad-diagram {
        background-color:hsl(30,20%,95%);
    }
    svg.railroad-diagram path {
        stroke-width: 2;
        stroke: black;
        fill: none;
    }
    svg.railroad-diagram text {
        font-size: 12px;
        text-anchor: middle;
        font-family: DejaVu Sans;
    }
    svg.railroad-diagram text.label {
        text-anchor:start;
    }
    svg.railroad-diagram text.comment {
        font-family: DejaVu Sans;
        font-size: 14px;
    }
    svg.railroad-diagram rect{
        stroke-width: 2;
        stroke:black;
        fill: rgb(210, 210, 255);
    }
    svg.railroad-diagram rect.group-box {
        stroke: gray;
        stroke-dasharray: 10 5;
        fill: none;
    }
    .terminal {
        font-family: DejaVu Sans;
    }

/* ]]> */
</style><g>
<path d="M 20 204 v 20 m 0 -10 h 20"></path></g><path d="M 40 214 h 10"></path><g>
<path d="M 50 214 h 0.0"></path><path d="M 729.5 214 h 0.0"></path><rect class="group-box" height="235" rx="10" ry="10" width="679.5" x="50.0" y="36"></rect><g>
<path d="M 50.0 214 h 10.0"></path><path d="M 719.5 214 h 10.0"></path><g class="terminal ">
<path d="M 60.0 214 h 0.0"></path><path d="M 131.0 214 h 0.0"></path><rect height="22" rx="10" ry="10" width="71.0" x="60.0" y="203"></rect><text x="95.5" y="218">&#60;note></text></g><path d="M 131.0 214 h 10"></path><g>
<path d="M 141.0 214 h 0.0"></path><path d="M 719.5 214 h 0.0"></path><path d="M 141.0 214 a 10 10 0 0 0 10 -10 v -19 a 10 10 0 0 1 10 -10"></path><g>
<path d="M 161.0 175 h 0.0"></path><path d="M 340.0 175 h 0.0"></path><g class="terminal ">
<path d="M 161.0 175 h 0.0"></path><path d="M 266.0 175 h 0.0"></path><rect height="22" rx="10" ry="10" width="105.0" x="161.0" y="164"></rect><text x="213.5" y="179">@category?</text></g><path d="M 266.0 175 h 10"></path><path d="M 276.0 175 h 10"></path><g class="terminal ">
<path d="M 286.0 175 h 0.0"></path><path d="M 340.0 175 h 0.0"></path><rect height="22" rx="10" ry="10" width="54.0" x="286.0" y="164"></rect><text x="313.0" y="179">text</text></g></g><path d="M 141.0 214 a 10 10 0 0 0 10 -10 v -49 a 10 10 0 0 1 10 -10"></path><g>
<path d="M 161.0 145 h 0.0"></path><path d="M 314.5 145 h 0.0"></path><g class="terminal ">
<path d="M 161.0 145 h 0.0"></path><path d="M 240.5 145 h 0.0"></path><rect height="22" rx="10" ry="10" width="79.5" x="161.0" y="134"></rect><text x="200.75" y="149">@caller</text></g><path d="M 240.5 145 h 10"></path><path d="M 250.5 145 h 10"></path><g class="terminal ">
<path d="M 260.5 145 h 0.0"></path><path d="M 314.5 145 h 0.0"></path><rect height="22" rx="10" ry="10" width="54.0" x="260.5" y="134"></rect><text x="287.5" y="149">text</text></g></g><path d="M 141.0 214 a 10 10 0 0 0 10 -10 v -79 a 10 10 0 0 1 10 -10"></path><g>
<path d="M 161.0 115 h 0.0"></path><path d="M 336.0 115 h 0.0"></path><g class="terminal ">
<path d="M 161.0 115 h 0.0"></path><path d="M 232.0 115 h 0.0"></path><rect height="22" rx="10" ry="10" width="71.0" x="161.0" y="104"></rect><text x="196.5" y="119">@style</text></g><path d="M 232.0 115 h 10"></path><g>
<path d="M 242.0 115 h 0.0"></path><path d="M 242.0 115 a 10 10 0 0 0 10 -10 v -10 a 10 10 0 0 1 10 -10"></path><g class="terminal ">
<path d="M 262.0 85 h 0.0"></path><path d="M 316.0 85 h 0.0"></path><rect height="22" rx="10" ry="10" width="54.0" x="262.0" y="74"></rect><text x="289.0" y="89">"fe"</text></g><path d="M 242.0 115 a 10 10 0 0 0 10 -10 v -40 a 10 10 0 0 1 10 -10"></path><g class="terminal ">
<path d="M 262.0 55 h 0.0"></path><path d="M 307.5 55 h 0.0"></path><rect height="22" rx="10" ry="10" width="45.5" x="262.0" y="44"></rect><text x="284.75" y="59">"f"</text></g><path d="M 242.0 115 h 20"></path><g class="terminal ">
<path d="M 262.0 115 h 0.0"></path><path d="M 316.0 115 h 0.0"></path><rect height="22" rx="10" ry="10" width="54.0" x="262.0" y="104"></rect><text x="289.0" y="119">"ef"</text></g></g></g><path d="M 141.0 214 h 20"></path><g>
<path d="M 161.0 214 h 0.0"></path><path d="M 699.5 214 h 0.0"></path><g>
<path d="M 161.0 214 h 0.0"></path><path d="M 365.5 214 h 0.0"></path><path d="M 161.0 214 a 10 10 0 0 0 10 -10 v 0 a 10 10 0 0 1 10 -10"></path><g>
<path d="M 181.0 194 h 164.5"></path></g><path d="M 345.5 194 a 10 10 0 0 1 10 10 v 0 a 10 10 0 0 0 10 10"></path><path d="M 161.0 214 h 20"></path><g class="non-terminal ">
<path d="M 181.0 214 h 0.0"></path><path d="M 345.5 214 h 0.0"></path><rect height="22" width="164.5" x="181.0" y="203"></rect><text x="263.25" y="218">FootnoteReference</text></g><path d="M 345.5 214 h 20"></path></g><path d="M 365.5 214 h 10"></path><g>
<path d="M 375.5 214 h 0.0"></path><path d="M 600.0 214 h 0.0"></path><path d="M 375.5 214 h 10"></path><g>
<path d="M 385.5 214 h 0.0"></path><path d="M 590.0 214 h 0.0"></path><path d="M 385.5 214 h 20"></path><g class="non-terminal ">
<path d="M 405.5 214 h 21.25"></path><path d="M 548.75 214 h 21.25"></path><rect height="22" width="122.0" x="426.75" y="203"></rect><text x="487.75" y="218">FootnoteChar</text></g><path d="M 570.0 214 h 20"></path><path d="M 385.5 214 a 10 10 0 0 1 10 10 v 10 a 10 10 0 0 0 10 10"></path><g class="non-terminal ">
<path d="M 405.5 244 h 0.0"></path><path d="M 570.0 244 h 0.0"></path><rect height="22" width="164.5" x="405.5" y="233"></rect><text x="487.75" y="248">FootnoteReference</text></g><path d="M 570.0 244 a 10 10 0 0 0 10 -10 v -10 a 10 10 0 0 1 10 -10"></path></g><path d="M 590.0 214 h 10"></path><path d="M 385.5 214 a 10 10 0 0 0 -10 10 v 29 a 10 10 0 0 0 10 10"></path><g>
<path d="M 385.5 263 h 204.5"></path></g><path d="M 590.0 263 a 10 10 0 0 0 10 -10 v -29 a 10 10 0 0 0 -10 -10"></path></g><path d="M 600.0 214 h 10"></path><path d="M 610.0 214 h 10"></path><g class="terminal ">
<path d="M 620.0 214 h 0.0"></path><path d="M 699.5 214 h 0.0"></path><rect height="22" rx="10" ry="10" width="79.5" x="620.0" y="203"></rect><text x="659.75" y="218">&#60;/note></text></g></g><path d="M 699.5 214 h 20"></path></g></g><g class="non-terminal ">
<path d="M 50.0 28 h 0.0"></path><path d="M 116.0 28 h 0.0"></path><text class="comment" x="83.0" y="33">Footnote</text></g></g><path d="M 729.5 214 h 10"></path><path d="M 739.5 214 h 20 m 0 -10 v 20"></path></g></svg>