<svg class="railroad-diagram" height="368" viewBox="0 0 453.0 368" width="453.0" xmlns="http://www.w3.org/2000/svg" xmlns:xlink="http://www.w3.org/1999/xlink">
<g transform="translate(.5 .5)">
<style>/* <![CDATA[ */

    svg.railroad-diagram {
        background-color:hsl(30,20%,95%);
    }
    svg.railroad-diagram path {
        stroke-width: 2;
        stroke: black;
        fill: none;
    }
    svg.railroad-diagram text {
        font-size: 12px;
        text-anchor: middle;
        font-family: DejaVu Sans;
    }
    svg.railroad-diagram text.label {
        text-anchor:start;
    }
    svg.railroad-diagram text.comment {
        font-family: DejaVu Sans;
        font-size: 14px;
    }
    svg.railroad-diagram rect{
        stroke-width: 2;
        stroke:black;
        fill: rgb(210, 210, 255);
    }
    svg.railroad-diagram rect.group-box {
        stroke: gray;
        stroke-dasharray: 10 5;
        fill: none;
    }
    .terminal {
        font-family: DejaVu Sans;
    }

/* ]]> */
</style><g>
<path d="M 20 201 v 20 m 0 -10 h 20"></path></g><path d="M 40 211 h 10"></path><g>
<path d="M 50 211 h 0.0"></path><path d="M 403.0 211 h 0.0"></path><g>
<path d="M 50.0 211 h 0.0"></path><path d="M 403.0 211 h 0.0"></path><g class="terminal ">
<path d="M 50.0 211 h 0.0"></path><path d="M 121.0 211 h 0.0"></path><rect height="22" rx="10" ry="10" width="71.0" x="50.0" y="200"></rect><text x="85.5" y="215">&#60;note></text></g><path d="M 121.0 211 h 10"></path><path d="M 131.0 211 h 10"></path><g>
<path d="M 141.0 211 h 0.0"></path><path d="M 403.0 211 h 0.0"></path><path d="M 141.0 211 a 10 10 0 0 0 10 -10 v -80 a 10 10 0 0 1 10 -10"></path><g>
<path d="M 161.0 111 h 0.0"></path><path d="M 346.0 111 h 0.0"></path><g class="terminal ">
<path d="M 161.0 111 h 0.0"></path><path d="M 232.0 111 h 0.0"></path><rect height="22" rx="10" ry="10" width="71.0" x="161.0" y="100"></rect><text x="196.5" y="115">@style</text></g><path d="M 232.0 111 h 10"></path><path d="M 242.0 111 h 10"></path><g>
<path d="M 252.0 111 h 0.0"></path><path d="M 252.0 111 h 20"></path><g class="terminal ">
<path d="M 272.0 111 h 0.0"></path><path d="M 317.5 111 h 0.0"></path><rect height="22" rx="10" ry="10" width="45.5" x="272.0" y="100"></rect><text x="294.75" y="115">"f"</text></g><path d="M 252.0 111 a 10 10 0 0 1 10 10 v 10 a 10 10 0 0 0 10 10"></path><g class="terminal ">
<path d="M 272.0 141 h 0.0"></path><path d="M 326.0 141 h 0.0"></path><rect height="22" rx="10" ry="10" width="54.0" x="272.0" y="130"></rect><text x="299.0" y="145">"fe"</text></g><path d="M 252.0 111 a 10 10 0 0 1 10 10 v 40 a 10 10 0 0 0 10 10"></path><g class="terminal ">
<path d="M 272.0 171 h 0.0"></path><path d="M 326.0 171 h 0.0"></path><rect height="22" rx="10" ry="10" width="54.0" x="272.0" y="160"></rect><text x="299.0" y="175">"ef"</text></g></g></g><path d="M 141.0 211 a 10 10 0 0 0 10 -10 v -120 a 10 10 0 0 1 10 -10"></path><g>
<path d="M 161.0 71 h 0.0"></path><path d="M 314.5 71 h 0.0"></path><g class="terminal ">
<path d="M 161.0 71 h 0.0"></path><path d="M 240.5 71 h 0.0"></path><rect height="22" rx="10" ry="10" width="79.5" x="161.0" y="60"></rect><text x="200.75" y="75">@caller</text></g><path d="M 240.5 71 h 10"></path><path d="M 250.5 71 h 10"></path><g class="terminal ">
<path d="M 260.5 71 h 0.0"></path><path d="M 314.5 71 h 0.0"></path><rect height="22" rx="10" ry="10" width="54.0" x="260.5" y="60"></rect><text x="287.5" y="75">TEXT</text></g></g><path d="M 141.0 211 a 10 10 0 0 0 10 -10 v -150 a 10 10 0 0 1 10 -10"></path><g>
<path d="M 161.0 41 h 0.0"></path><path d="M 331.5 41 h 0.0"></path><g class="terminal ">
<path d="M 161.0 41 h 0.0"></path><path d="M 257.5 41 h 0.0"></path><rect height="22" rx="10" ry="10" width="96.5" x="161.0" y="30"></rect><text x="209.25" y="45">@category</text></g><path d="M 257.5 41 h 10"></path><path d="M 267.5 41 h 10"></path><g class="terminal ">
<path d="M 277.5 41 h 0.0"></path><path d="M 331.5 41 h 0.0"></path><rect height="22" rx="10" ry="10" width="54.0" x="277.5" y="30"></rect><text x="304.5" y="45">TEXT</text></g></g><path d="M 141.0 211 h 20"></path><g class="non-terminal ">
<path d="M 161.0 211 h 50.0"></path><path d="M 333.0 211 h 50.0"></path><rect height="22" width="122.0" x="211.0" y="200"></rect><text x="272.0" y="215">FootnoteChar</text></g><path d="M 383.0 211 h 20"></path><path d="M 141.0 211 a 10 10 0 0 1 10 10 v 38 a 10 10 0 0 0 10 10"></path><g>
<path d="M 161.0 269 h 0.0"></path><path d="M 383.0 269 h 0.0"></path><path d="M 161.0 269 a 10 10 0 0 0 10 -10 v -9 a 10 10 0 0 1 10 -10"></path><g>
<path d="M 181.0 240 h 182.0"></path></g><path d="M 363.0 240 a 10 10 0 0 1 10 10 v 9 a 10 10 0 0 0 10 10"></path><path d="M 161.0 269 h 20"></path><g>
<path d="M 181.0 269 h 0.0"></path><path d="M 363.0 269 h 0.0"></path><path d="M 181.0 269 h 10"></path><g>
<path d="M 191.0 269 h 0.0"></path><path d="M 353.0 269 h 0.0"></path><path d="M 191.0 269 h 20"></path><g class="non-terminal ">
<path d="M 211.0 269 h 0.0"></path><path d="M 333.0 269 h 0.0"></path><rect height="22" width="122.0" x="211.0" y="258"></rect><text x="272.0" y="273">FootnoteChar</text></g><path d="M 333.0 269 h 20"></path><path d="M 191.0 269 a 10 10 0 0 1 10 10 v 10 a 10 10 0 0 0 10 10"></path><g class="terminal ">
<path d="M 211.0 299 h 34.0"></path><path d="M 299.0 299 h 34.0"></path><rect height="22" rx="10" ry="10" width="54.0" x="245.0" y="288"></rect><text x="272.0" y="303">TEXT</text></g><path d="M 333.0 299 a 10 10 0 0 0 10 -10 v -10 a 10 10 0 0 1 10 -10"></path></g><path d="M 353.0 269 h 10"></path><path d="M 191.0 269 a 10 10 0 0 0 -10 10 v 39 a 10 10 0 0 0 10 10"></path><g>
<path d="M 191.0 328 h 162.0"></path></g><path d="M 353.0 328 a 10 10 0 0 0 10 -10 v -39 a 10 10 0 0 0 -10 -10"></path></g><path d="M 363.0 269 h 20"></path></g><path d="M 383.0 269 a 10 10 0 0 0 10 -10 v -38 a 10 10 0 0 1 10 -10"></path></g></g></g><path d="M 403.0 211 h 10"></path><path d="M 413.0 211 h 20 m 0 -10 v 20"></path></g></svg>