<svg class="railroad-diagram" height="332" viewBox="0 0 1273.5 332" width="1273.5" xmlns="http://www.w3.org/2000/svg" xmlns:xlink="http://www.w3.org/1999/xlink">
<g transform="translate(.5 .5)">
<style>/* <![CDATA[ */

    svg.railroad-diagram {
        background-color:hsl(30,20%,95%);
    }
    svg.railroad-diagram path {
        stroke-width: 2;
        stroke: black;
        fill: none;
    }
    svg.railroad-diagram text {
        font-size: 12px;
        text-anchor: middle;
        font-family: DejaVu Sans;
    }
    svg.railroad-diagram text.label {
        text-anchor:start;
    }
    svg.railroad-diagram text.comment {
        font-family: DejaVu Sans;
        font-size: 14px;
    }
    svg.railroad-diagram rect{
        stroke-width: 2;
        stroke:black;
        fill: rgb(210, 255, 210);
    }
    svg.railroad-diagram rect.group-box {
        stroke: gray;
        stroke-dasharray: 10 5;
        fill: none;
    }
    .terminal {
        font-family: DejaVu Sans;
    }

/* ]]> */
</style><g>
<path d="M 20 153 v 20 m 0 -10 h 20"></path></g><path d="M 40 163 h 10"></path><g>
<path d="M 50 163 h 0.0"></path><path d="M 1223.5 163 h 0.0"></path><g class="terminal ">
<path d="M 50.0 163 h 0.0"></path><path d="M 95.5 163 h 0.0"></path><rect height="22" rx="10" ry="10" width="45.5" x="50.0" y="152"></rect><text x="72.75" y="167">'\'</text></g><path d="M 95.5 163 h 10"></path><path d="M 105.5 163 h 10"></path><g>
<path d="M 115.5 163 h 0.0"></path><path d="M 429.0 163 h 0.0"></path><rect class="group-box" height="276" rx="10" ry="10" width="313.5" x="115.5" y="36"></rect><g>
<path d="M 115.5 163 h 10.0"></path><path d="M 419.0 163 h 10.0"></path><g>
<path d="M 125.5 163 h 0.0"></path><path d="M 419.0 163 h 0.0"></path><path d="M 125.5 163 a 10 10 0 0 0 10 -10 v -99 a 10 10 0 0 1 10 -10 h 112.5"></path><path d="M 278.0 282 h 121.0 a 10 10 0 0 0 10 -10 v -99 a 10 10 0 0 1 10 -10"></path><path d="M 125.5 163 h 10"></path><g>
<path d="M 135.5 163 h 10.0"></path><path d="M 248.0 163 h 10.0"></path><path d="M 145.5 163 a 10 10 0 0 0 10 -10 v -10 a 10 10 0 0 1 10 -10"></path><g class="terminal ">
<path d="M 165.5 133 h 4.25"></path><path d="M 223.75 133 h 4.25"></path><rect height="22" rx="10" ry="10" width="54.0" x="169.75" y="122"></rect><text x="196.75" y="137">"fq"</text></g><path d="M 228.0 133 a 10 10 0 0 1 10 10 v 10 a 10 10 0 0 0 10 10"></path><path d="M 145.5 163 a 10 10 0 0 0 10 -10 v -40 a 10 10 0 0 1 10 -10"></path><g class="terminal ">
<path d="M 165.5 103 h 4.25"></path><path d="M 223.75 103 h 4.25"></path><rect height="22" rx="10" ry="10" width="54.0" x="169.75" y="92"></rect><text x="196.75" y="107">"fk"</text></g><path d="M 228.0 103 a 10 10 0 0 1 10 10 v 40 a 10 10 0 0 0 10 10"></path><path d="M 145.5 163 a 10 10 0 0 0 10 -10 v -70 a 10 10 0 0 1 10 -10"></path><g class="terminal ">
<path d="M 165.5 73 h 4.25"></path><path d="M 223.75 73 h 4.25"></path><rect height="22" rx="10" ry="10" width="54.0" x="169.75" y="62"></rect><text x="196.75" y="77">"ft"</text></g><path d="M 228.0 73 a 10 10 0 0 1 10 10 v 70 a 10 10 0 0 0 10 10"></path><path d="M 145.5 163 h 20"></path><g class="terminal ">
<path d="M 165.5 163 h 0.0"></path><path d="M 228.0 163 h 0.0"></path><rect height="22" rx="10" ry="10" width="62.5" x="165.5" y="152"></rect><text x="196.75" y="167">"fqa"</text></g><path d="M 228.0 163 h 20"></path><path d="M 145.5 163 a 10 10 0 0 1 10 10 v 10 a 10 10 0 0 0 10 10"></path><g class="terminal ">
<path d="M 165.5 193 h 4.25"></path><path d="M 223.75 193 h 4.25"></path><rect height="22" rx="10" ry="10" width="54.0" x="169.75" y="182"></rect><text x="196.75" y="197">"fl"</text></g><path d="M 228.0 193 a 10 10 0 0 0 10 -10 v -10 a 10 10 0 0 1 10 -10"></path><path d="M 145.5 163 a 10 10 0 0 1 10 10 v 40 a 10 10 0 0 0 10 10"></path><g class="terminal ">
<path d="M 165.5 223 h 4.25"></path><path d="M 223.75 223 h 4.25"></path><rect height="22" rx="10" ry="10" width="54.0" x="169.75" y="212"></rect><text x="196.75" y="227">"fw"</text></g><path d="M 228.0 223 a 10 10 0 0 0 10 -10 v -40 a 10 10 0 0 1 10 -10"></path><path d="M 145.5 163 a 10 10 0 0 1 10 10 v 70 a 10 10 0 0 0 10 10"></path><g class="terminal ">
<path d="M 165.5 253 h 4.25"></path><path d="M 223.75 253 h 4.25"></path><rect height="22" rx="10" ry="10" width="54.0" x="169.75" y="242"></rect><text x="196.75" y="257">"fp"</text></g><path d="M 228.0 253 a 10 10 0 0 0 10 -10 v -70 a 10 10 0 0 1 10 -10"></path><path d="M 145.5 163 a 10 10 0 0 1 10 10 v 100 a 10 10 0 0 0 10 10"></path><g class="terminal ">
<path d="M 165.5 283 h 4.25"></path><path d="M 223.75 283 h 4.25"></path><rect height="22" rx="10" ry="10" width="54.0" x="169.75" y="272"></rect><text x="196.75" y="287">"fv"</text></g><path d="M 228.0 283 a 10 10 0 0 0 10 -10 v -100 a 10 10 0 0 1 10 -10"></path></g><path d="M 258.0 163 a 10 10 0 0 1 10 10 v 99 a 10 10 0 0 0 10 10"></path><path d="M 258.0 44 a 10 10 0 0 1 10 10 v 99 a 10 10 0 0 0 10 10"></path><g>
<path d="M 278.0 163 h 10.0"></path><path d="M 399.0 163 h 10.0"></path><path d="M 288.0 163 a 10 10 0 0 0 10 -10 v -10 a 10 10 0 0 1 10 -10"></path><g class="terminal ">
<path d="M 308.0 133 h 8.5"></path><path d="M 370.5 133 h 8.5"></path><rect height="22" rx="10" ry="10" width="54.0" x="316.5" y="122"></rect><text x="343.5" y="137">"it"</text></g><path d="M 379.0 133 a 10 10 0 0 1 10 10 v 10 a 10 10 0 0 0 10 10"></path><path d="M 288.0 163 a 10 10 0 0 0 10 -10 v -40 a 10 10 0 0 1 10 -10"></path><g class="terminal ">
<path d="M 308.0 103 h 8.5"></path><path d="M 370.5 103 h 8.5"></path><rect height="22" rx="10" ry="10" width="54.0" x="316.5" y="92"></rect><text x="343.5" y="107">"xt"</text></g><path d="M 379.0 103 a 10 10 0 0 1 10 10 v 40 a 10 10 0 0 0 10 10"></path><path d="M 288.0 163 a 10 10 0 0 0 10 -10 v -70 a 10 10 0 0 1 10 -10"></path><g class="terminal ">
<path d="M 308.0 73 h 4.25"></path><path d="M 374.75 73 h 4.25"></path><rect height="22" rx="10" ry="10" width="62.5" x="312.25" y="62"></rect><text x="343.5" y="77">"fdc"</text></g><path d="M 379.0 73 a 10 10 0 0 1 10 10 v 70 a 10 10 0 0 0 10 10"></path><path d="M 288.0 163 h 20"></path><g class="terminal ">
<path d="M 308.0 163 h 8.5"></path><path d="M 370.5 163 h 8.5"></path><rect height="22" rx="10" ry="10" width="54.0" x="316.5" y="152"></rect><text x="343.5" y="167">"bd"</text></g><path d="M 379.0 163 h 20"></path><path d="M 288.0 163 a 10 10 0 0 1 10 10 v 10 a 10 10 0 0 0 10 10"></path><g class="terminal ">
<path d="M 308.0 193 h 0.0"></path><path d="M 379.0 193 h 0.0"></path><rect height="22" rx="10" ry="10" width="71.0" x="308.0" y="182"></rect><text x="343.5" y="197">"bdit"</text></g><path d="M 379.0 193 a 10 10 0 0 0 10 -10 v -10 a 10 10 0 0 1 10 -10"></path><path d="M 288.0 163 a 10 10 0 0 1 10 10 v 40 a 10 10 0 0 0 10 10"></path><g class="terminal ">
<path d="M 308.0 223 h 8.5"></path><path d="M 370.5 223 h 8.5"></path><rect height="22" rx="10" ry="10" width="54.0" x="316.5" y="212"></rect><text x="343.5" y="227">"em"</text></g><path d="M 379.0 223 a 10 10 0 0 0 10 -10 v -40 a 10 10 0 0 1 10 -10"></path><path d="M 288.0 163 a 10 10 0 0 1 10 10 v 70 a 10 10 0 0 0 10 10"></path><g class="terminal ">
<path d="M 308.0 253 h 8.5"></path><path d="M 370.5 253 h 8.5"></path><rect height="22" rx="10" ry="10" width="54.0" x="316.5" y="242"></rect><text x="343.5" y="257">"sc"</text></g><path d="M 379.0 253 a 10 10 0 0 0 10 -10 v -70 a 10 10 0 0 1 10 -10"></path></g><path d="M 409.0 163 h 10"></path></g></g><g class="non-terminal ">
<path d="M 115.5 28 h 0.0"></path><path d="M 132.5 28 h 0.0"></path><text class="comment" x="124.0" y="33">➊</text></g></g><path d="M 429.0 163 h 10"></path><path d="M 439.0 163 h 10"></path><g class="terminal ">
<path d="M 449.0 163 h 0.0"></path><path d="M 520.0 163 h 0.0"></path><rect height="22" rx="10" ry="10" width="71.0" x="449.0" y="152"></rect><text x="484.5" y="167">TAGEND</text></g><path d="M 520.0 163 h 10"></path><path d="M 530.0 163 h 10"></path><g>
<path d="M 540.0 163 h 0.0"></path><path d="M 1027.0 163 h 0.0"></path><path d="M 540.0 163 h 10"></path><g>
<path d="M 550.0 163 h 0.0"></path><path d="M 1017.0 163 h 0.0"></path><path d="M 550.0 163 h 20"></path><g class="non-terminal ">
<path d="M 570.0 163 h 165.25"></path><path d="M 831.75 163 h 165.25"></path><rect height="22" width="96.5" x="735.25" y="152"></rect><text x="783.5" y="167">CharEmbed</text></g><path d="M 997.0 163 h 20"></path><path d="M 550.0 163 a 10 10 0 0 1 10 10 v 34 a 10 10 0 0 0 10 10"></path><g>
<path d="M 570.0 217 h 0.0"></path><path d="M 997.0 217 h 0.0"></path><g class="terminal ">
<path d="M 570.0 217 h 0.0"></path><path d="M 615.5 217 h 0.0"></path><rect height="22" rx="10" ry="10" width="45.5" x="570.0" y="206"></rect><text x="592.75" y="221">'\'</text></g><path d="M 615.5 217 h 10"></path><path d="M 625.5 217 h 10"></path><g>
<path d="M 635.5 217 h 0.0"></path><path d="M 709.5 217 h 0.0"></path><rect class="group-box" height="38" rx="10" ry="10" width="74.0" x="635.5" y="198"></rect><g>
<path d="M 635.5 217 h 10.0"></path><path d="M 699.5 217 h 10.0"></path><g class="terminal ">
<path d="M 645.5 217 h 0.0"></path><path d="M 699.5 217 h 0.0"></path><rect height="22" rx="10" ry="10" width="54.0" x="645.5" y="206"></rect><text x="672.5" y="221">"fv"</text></g></g><g class="non-terminal ">
<path d="M 635.5 190 h 0.0"></path><path d="M 652.5 190 h 0.0"></path><text class="comment" x="644.0" y="195">➋</text></g></g><path d="M 709.5 217 h 10"></path><path d="M 719.5 217 h 10"></path><g class="terminal ">
<path d="M 729.5 217 h 0.0"></path><path d="M 800.5 217 h 0.0"></path><rect height="22" rx="10" ry="10" width="71.0" x="729.5" y="206"></rect><text x="765.0" y="221">TAGEND</text></g><path d="M 800.5 217 h 10"></path><path d="M 810.5 217 h 10"></path><g class="terminal ">
<path d="M 820.5 217 h 0.0"></path><path d="M 866.0 217 h 0.0"></path><rect height="22" rx="10" ry="10" width="45.5" x="820.5" y="206"></rect><text x="843.25" y="221">'\'</text></g><path d="M 866.0 217 h 10"></path><path d="M 876.0 217 h 10"></path><g class="terminal ">
<path d="M 886.0 217 h 0.0"></path><path d="M 931.5 217 h 0.0"></path><rect height="22" rx="10" ry="10" width="45.5" x="886.0" y="206"></rect><text x="908.75" y="221">⇐ ➋</text></g><path d="M 931.5 217 h 10"></path><path d="M 941.5 217 h 10"></path><g class="terminal ">
<path d="M 951.5 217 h 0.0"></path><path d="M 997.0 217 h 0.0"></path><rect height="22" rx="10" ry="10" width="45.5" x="951.5" y="206"></rect><text x="974.25" y="221">'&#42;'</text></g></g><path d="M 997.0 217 a 10 10 0 0 0 10 -10 v -34 a 10 10 0 0 1 10 -10"></path></g><path d="M 1017.0 163 h 10"></path><path d="M 550.0 163 a 10 10 0 0 0 -10 10 v 71 a 10 10 0 0 0 10 10"></path><g>
<path d="M 550.0 254 h 467.0"></path></g><path d="M 1017.0 254 a 10 10 0 0 0 10 -10 v -71 a 10 10 0 0 0 -10 -10"></path></g><path d="M 1027.0 163 h 10"></path><path d="M 1037.0 163 h 10"></path><g class="terminal ">
<path d="M 1047.0 163 h 0.0"></path><path d="M 1092.5 163 h 0.0"></path><rect height="22" rx="10" ry="10" width="45.5" x="1047.0" y="152"></rect><text x="1069.75" y="167">'\'</text></g><path d="M 1092.5 163 h 10"></path><path d="M 1102.5 163 h 10"></path><g class="terminal ">
<path d="M 1112.5 163 h 0.0"></path><path d="M 1158.0 163 h 0.0"></path><rect height="22" rx="10" ry="10" width="45.5" x="1112.5" y="152"></rect><text x="1135.25" y="167">⇐ ➊</text></g><path d="M 1158.0 163 h 10"></path><path d="M 1168.0 163 h 10"></path><g class="terminal ">
<path d="M 1178.0 163 h 0.0"></path><path d="M 1223.5 163 h 0.0"></path><rect height="22" rx="10" ry="10" width="45.5" x="1178.0" y="152"></rect><text x="1200.75" y="167">'&#42;'</text></g></g><path d="M 1223.5 163 h 10"></path><path d="M 1233.5 163 h 20 m 0 -10 v 20"></path></g></svg>