<svg class="railroad-diagram" height="372" viewBox="0 0 1120.0 372" width="1120.0" xmlns="http://www.w3.org/2000/svg" xmlns:xlink="http://www.w3.org/1999/xlink">
<g transform="translate(.5 .5)">
<style>/* <![CDATA[ */

    svg.railroad-diagram {
        background-color: hsl(30,20%,95%);
    }
    svg.railroad-diagram path {
        stroke-width: 2;
        stroke: black;
        fill: none;
    }
    svg.railroad-diagram text {
        font-size: 12px;
        text-anchor: middle;
        font-family: DejaVu Sans;
    }
    svg.railroad-diagram text.label {
        text-anchor:start;
    }
    svg.railroad-diagram text.comment {
        font-family: DejaVu Sans;
        font-size: 14px;
    }
    svg.railroad-diagram rect{
        stroke-width: 2;
        stroke: black;
        fill: rgb(210, 255, 210);
    }
    svg.railroad-diagram rect.group-box {
        stroke: gray;
        stroke-dasharray: 10 5;
        fill: none;
    }
    .terminal {
        font-family: DejaVu Sans;
    }
    svg.railroad-diagram g.altterminal rect {
        fill: rgb(251, 252, 207)
    }

/* ]]> */
</style><g>
<path d="M 20 153 v 20 m 0 -10 h 20"></path></g><path d="M 40 163 h 10"></path><g>
<path d="M 50 163 h 0.0"></path><path d="M 1070.0 163 h 0.0"></path><g class="terminal ">
<path d="M 50.0 163 h 0.0"></path><path d="M 104.0 163 h 0.0"></path><rect height="22" rx="10" ry="10" width="54.0" x="50.0" y="152"></rect><text x="77.0" y="167">'\\'</text></g><path d="M 104.0 163 h 10"></path><path d="M 114.0 163 h 10"></path><g>
<path d="M 124.0 163 h 0.0"></path><path d="M 420.5 163 h 0.0"></path><rect class="group-box" height="276" rx="10" ry="10" width="296.5" x="124.0" y="36"></rect><g>
<path d="M 124.0 163 h 10.0"></path><path d="M 410.5 163 h 10.0"></path><g>
<path d="M 134.0 163 h 0.0"></path><path d="M 410.5 163 h 0.0"></path><path d="M 134.0 163 a 10 10 0 0 0 10 -10 v -99 a 10 10 0 0 1 10 -10 h 112.5"></path><path d="M 286.5 192 h 104.0 a 10 10 0 0 0 10 -10 v -9 a 10 10 0 0 1 10 -10"></path><path d="M 134.0 163 h 10"></path><g>
<path d="M 144.0 163 h 10.0"></path><path d="M 256.5 163 h 10.0"></path><path d="M 154.0 163 a 10 10 0 0 0 10 -10 v -10 a 10 10 0 0 1 10 -10"></path><g class="terminal ">
<path d="M 174.0 133 h 4.25"></path><path d="M 232.25 133 h 4.25"></path><rect height="22" rx="10" ry="10" width="54.0" x="178.25" y="122"></rect><text x="205.25" y="137">"fk"</text></g><path d="M 236.5 133 a 10 10 0 0 1 10 10 v 10 a 10 10 0 0 0 10 10"></path><path d="M 154.0 163 a 10 10 0 0 0 10 -10 v -40 a 10 10 0 0 1 10 -10"></path><g class="terminal ">
<path d="M 174.0 103 h 4.25"></path><path d="M 232.25 103 h 4.25"></path><rect height="22" rx="10" ry="10" width="54.0" x="178.25" y="92"></rect><text x="205.25" y="107">"ft"</text></g><path d="M 236.5 103 a 10 10 0 0 1 10 10 v 40 a 10 10 0 0 0 10 10"></path><path d="M 154.0 163 a 10 10 0 0 0 10 -10 v -70 a 10 10 0 0 1 10 -10"></path><g class="terminal ">
<path d="M 174.0 73 h 4.25"></path><path d="M 232.25 73 h 4.25"></path><rect height="22" rx="10" ry="10" width="54.0" x="178.25" y="62"></rect><text x="205.25" y="77">"fr"</text></g><path d="M 236.5 73 a 10 10 0 0 1 10 10 v 70 a 10 10 0 0 0 10 10"></path><path d="M 154.0 163 h 20"></path><g class="terminal ">
<path d="M 174.0 163 h 0.0"></path><path d="M 236.5 163 h 0.0"></path><rect height="22" rx="10" ry="10" width="62.5" x="174.0" y="152"></rect><text x="205.25" y="167">"fqa"</text></g><path d="M 236.5 163 h 20"></path><path d="M 154.0 163 a 10 10 0 0 1 10 10 v 10 a 10 10 0 0 0 10 10"></path><g class="terminal ">
<path d="M 174.0 193 h 4.25"></path><path d="M 232.25 193 h 4.25"></path><rect height="22" rx="10" ry="10" width="54.0" x="178.25" y="182"></rect><text x="205.25" y="197">"fq"</text></g><path d="M 236.5 193 a 10 10 0 0 0 10 -10 v -10 a 10 10 0 0 1 10 -10"></path><path d="M 154.0 163 a 10 10 0 0 1 10 10 v 40 a 10 10 0 0 0 10 10"></path><g class="terminal ">
<path d="M 174.0 223 h 4.25"></path><path d="M 232.25 223 h 4.25"></path><rect height="22" rx="10" ry="10" width="54.0" x="178.25" y="212"></rect><text x="205.25" y="227">"fl"</text></g><path d="M 236.5 223 a 10 10 0 0 0 10 -10 v -40 a 10 10 0 0 1 10 -10"></path><path d="M 154.0 163 a 10 10 0 0 1 10 10 v 70 a 10 10 0 0 0 10 10"></path><g class="terminal ">
<path d="M 174.0 253 h 4.25"></path><path d="M 232.25 253 h 4.25"></path><rect height="22" rx="10" ry="10" width="54.0" x="178.25" y="242"></rect><text x="205.25" y="257">"fw"</text></g><path d="M 236.5 253 a 10 10 0 0 0 10 -10 v -70 a 10 10 0 0 1 10 -10"></path><path d="M 154.0 163 a 10 10 0 0 1 10 10 v 100 a 10 10 0 0 0 10 10"></path><g class="terminal ">
<path d="M 174.0 283 h 0.0"></path><path d="M 236.5 283 h 0.0"></path><rect height="22" rx="10" ry="10" width="62.5" x="174.0" y="272"></rect><text x="205.25" y="287">"fdc"</text></g><path d="M 236.5 283 a 10 10 0 0 0 10 -10 v -100 a 10 10 0 0 1 10 -10"></path></g><path d="M 266.5 163 a 10 10 0 0 1 10 10 v 9 a 10 10 0 0 0 10 10"></path><path d="M 266.5 44 a 10 10 0 0 1 10 10 v 99 a 10 10 0 0 0 10 10"></path><g>
<path d="M 286.5 163 h 10.0"></path><path d="M 390.5 163 h 10.0"></path><path d="M 296.5 163 h 20"></path><g class="terminal ">
<path d="M 316.5 163 h 0.0"></path><path d="M 370.5 163 h 0.0"></path><rect height="22" rx="10" ry="10" width="54.0" x="316.5" y="152"></rect><text x="343.5" y="167">"fp"</text></g><path d="M 370.5 163 h 20"></path></g><path d="M 400.5 163 h 10"></path></g></g><g class="non-terminal ">
<path d="M 124.0 28 h 0.0"></path><path d="M 141.0 28 h 0.0"></path><text class="comment" x="132.5" y="33">➋</text></g></g><path d="M 420.5 163 h 10"></path><path d="M 430.5 163 h 10"></path><g>
<path d="M 440.5 163 h 0.0"></path><path d="M 551.5 163 h 0.0"></path><path d="M 440.5 163 h 20"></path><g class="terminal ">
<path d="M 460.5 163 h 12.75"></path><path d="M 518.75 163 h 12.75"></path><rect height="22" rx="10" ry="10" width="45.5" x="473.25" y="152"></rect><text x="496.0" y="167">' '</text></g><path d="M 531.5 163 h 20"></path><path d="M 440.5 163 a 10 10 0 0 1 10 10 v 10 a 10 10 0 0 0 10 10"></path><g class="terminal altterminal">
<path d="M 460.5 193 h 0.0"></path><path d="M 531.5 193 h 0.0"></path><rect height="22" rx="10" ry="10" width="71.0" x="460.5" y="182"></rect><text x="496.0" y="197">TAGEND</text></g><path d="M 531.5 193 a 10 10 0 0 0 10 -10 v -10 a 10 10 0 0 1 10 -10"></path></g><path d="M 551.5 163 h 10"></path><path d="M 561.5 163 h 10"></path><g>
<path d="M 571.5 163 h 0.0"></path><path d="M 825.0 163 h 0.0"></path><path d="M 571.5 163 a 10 10 0 0 0 10 -10 v -9 a 10 10 0 0 1 10 -10"></path><g>
<path d="M 591.5 134 h 213.5"></path></g><path d="M 805.0 134 a 10 10 0 0 1 10 10 v 9 a 10 10 0 0 0 10 10"></path><path d="M 571.5 163 h 20"></path><g>
<path d="M 591.5 163 h 0.0"></path><path d="M 805.0 163 h 0.0"></path><path d="M 591.5 163 h 10"></path><g>
<path d="M 601.5 163 h 0.0"></path><path d="M 795.0 163 h 0.0"></path><path d="M 601.5 163 h 20"></path><g>
<path d="M 621.5 163 h 0.0"></path><path d="M 775.0 163 h 0.0"></path><g class="terminal ">
<path d="M 621.5 163 h 0.0"></path><path d="M 675.5 163 h 0.0"></path><rect height="22" rx="10" ry="10" width="54.0" x="621.5" y="152"></rect><text x="648.5" y="167">TEXT</text></g><path d="M 675.5 163 h 10"></path><path d="M 685.5 163 h 10"></path><g class="terminal ">
<path d="M 695.5 163 h 0.0"></path><path d="M 775.0 163 h 0.0"></path><rect height="22" rx="10" ry="10" width="79.5" x="695.5" y="152"></rect><text x="735.25" y="167">TEXTEND</text></g></g><path d="M 775.0 163 h 20"></path><path d="M 601.5 163 a 10 10 0 0 1 10 10 v 10 a 10 10 0 0 0 10 10"></path><g class="non-terminal ">
<path d="M 621.5 193 h 11.5"></path><path d="M 763.5 193 h 11.5"></path><rect height="22" width="130.5" x="633.0" y="182"></rect><text x="698.25" y="197">NoteCharEmbed</text></g><path d="M 775.0 193 a 10 10 0 0 0 10 -10 v -10 a 10 10 0 0 1 10 -10"></path><path d="M 601.5 163 a 10 10 0 0 1 10 10 v 40 a 10 10 0 0 0 10 10"></path><g class="non-terminal ">
<path d="M 621.5 223 h 41.25"></path><path d="M 733.75 223 h 41.25"></path><rect height="22" width="71.0" x="662.75" y="212"></rect><text x="698.25" y="227">Figure</text></g><path d="M 775.0 223 a 10 10 0 0 0 10 -10 v -40 a 10 10 0 0 1 10 -10"></path><path d="M 601.5 163 a 10 10 0 0 1 10 10 v 70 a 10 10 0 0 0 10 10"></path><g class="non-terminal ">
<path d="M 621.5 253 h 28.5"></path><path d="M 746.5 253 h 28.5"></path><rect height="22" width="96.5" x="650.0" y="242"></rect><text x="698.25" y="257">Milestone</text></g><path d="M 775.0 253 a 10 10 0 0 0 10 -10 v -70 a 10 10 0 0 1 10 -10"></path><path d="M 601.5 163 a 10 10 0 0 1 10 10 v 100 a 10 10 0 0 0 10 10"></path><g class="non-terminal ">
<path d="M 621.5 283 h 28.5"></path><path d="M 746.5 283 h 28.5"></path><rect height="22" width="96.5" x="650.0" y="272"></rect><text x="698.25" y="287">Reference</text></g><path d="M 775.0 283 a 10 10 0 0 0 10 -10 v -100 a 10 10 0 0 1 10 -10"></path><path d="M 601.5 163 a 10 10 0 0 1 10 10 v 130 a 10 10 0 0 0 10 10"></path><g class="non-terminal ">
<path d="M 621.5 313 h 45.5"></path><path d="M 729.5 313 h 45.5"></path><rect height="22" width="62.5" x="667.0" y="302"></rect><text x="698.25" y="317">Break</text></g><path d="M 775.0 313 a 10 10 0 0 0 10 -10 v -130 a 10 10 0 0 1 10 -10"></path></g><path d="M 795.0 163 h 10"></path><path d="M 601.5 163 a 10 10 0 0 0 -10 10 v 159 a 10 10 0 0 0 10 10"></path><g>
<path d="M 601.5 342 h 193.5"></path></g><path d="M 795.0 342 a 10 10 0 0 0 10 -10 v -159 a 10 10 0 0 0 -10 -10"></path></g><path d="M 805.0 163 h 20"></path></g><path d="M 825.0 163 h 10"></path><path d="M 835.0 163 h 10"></path><g>
<path d="M 845.0 163 h 0.0"></path><path d="M 1070.0 163 h 0.0"></path><path d="M 845.0 163 h 20"></path><g>
<path d="M 865.0 163 h 185.0"></path></g><path d="M 1050.0 163 h 20"></path><path d="M 845.0 163 a 10 10 0 0 1 10 10 v 0 a 10 10 0 0 0 10 10"></path><g>
<path d="M 865.0 183 h 0.0"></path><path d="M 1050.0 183 h 0.0"></path><g class="terminal ">
<path d="M 865.0 183 h 0.0"></path><path d="M 919.0 183 h 0.0"></path><rect height="22" rx="10" ry="10" width="54.0" x="865.0" y="172"></rect><text x="892.0" y="187">'\\'</text></g><path d="M 919.0 183 h 10"></path><path d="M 929.0 183 h 10"></path><g class="terminal ">
<path d="M 939.0 183 h 0.0"></path><path d="M 984.5 183 h 0.0"></path><rect height="22" rx="10" ry="10" width="45.5" x="939.0" y="172"></rect><text x="961.75" y="187">⇐ ➋</text></g><path d="M 984.5 183 h 10"></path><path d="M 994.5 183 h 10"></path><g class="terminal ">
<path d="M 1004.5 183 h 0.0"></path><path d="M 1050.0 183 h 0.0"></path><rect height="22" rx="10" ry="10" width="45.5" x="1004.5" y="172"></rect><text x="1027.25" y="187">'&#42;'</text></g></g><path d="M 1050.0 183 a 10 10 0 0 0 10 -10 v 0 a 10 10 0 0 1 10 -10"></path></g></g><path d="M 1070.0 163 h 10"></path><path d="M 1080.0 163 h 20 m 0 -10 v 20"></path></g></svg>