<svg class="railroad-diagram" height="439" viewBox="0 0 813.5 439" width="813.5" xmlns="http://www.w3.org/2000/svg" xmlns:xlink="http://www.w3.org/1999/xlink">
<g transform="translate(.5 .5)">
<style>/* <![CDATA[ */

    svg.railroad-diagram {
        background-color: hsl(30,20%,95%);
    }
    svg.railroad-diagram path {
        stroke-width: 2;
        stroke: black;
        fill: none;
    }
    svg.railroad-diagram text {
        font-size: 12px;
        text-anchor: middle;
        font-family: DejaVu Sans;
    }
    svg.railroad-diagram text.label {
        text-anchor:start;
    }
    svg.railroad-diagram text.comment {
        font-family: DejaVu Sans;
        font-size: 14px;
    }
    svg.railroad-diagram rect{
        stroke-width: 2;
        stroke: black;
        fill: rgb(210, 255, 210);
    }
    svg.railroad-diagram rect.group-box {
        stroke: gray;
        stroke-dasharray: 10 5;
        fill: none;
    }
    .terminal {
        font-family: DejaVu Sans;
    }
    svg.railroad-diagram g.altterminal rect {
        fill: rgb(251, 252, 207)
    }

/* ]]> */
</style><g>
<path d="M 20 45 v 20 m 0 -10 h 20"></path></g><path d="M 40 55 h 10"></path><g>
<path d="M 50 55 h 0.0"></path><path d="M 763.5 378 h 0.0"></path><g>
<path d="M 50.0 55 h 0.0"></path><path d="M 50.0 55 h 10"></path><g>
<path d="M 60.0 55 h 10.0"></path><path d="M 743.5 55 h 10.0"></path><g class="terminal ">
<path d="M 70.0 55 h 0.0"></path><path d="M 124.0 55 h 0.0"></path><rect height="22" rx="10" ry="10" width="54.0" x="70.0" y="44"></rect><text x="97.0" y="59">'\\'</text></g><path d="M 124.0 55 h 10"></path><path d="M 134.0 55 h 10"></path><g>
<path d="M 144.0 55 h 0.0"></path><path d="M 422.0 55 h 0.0"></path><rect class="group-box" height="38" rx="10" ry="10" width="278.0" x="144.0" y="36"></rect><g>
<path d="M 144.0 55 h 10.0"></path><path d="M 412.0 55 h 10.0"></path><g class="non-terminal ">
<path d="M 154.0 55 h 0.0"></path><path d="M 412.0 55 h 0.0"></path><rect height="22" width="258.0" x="154.0" y="44"></rect><text x="283.0" y="59">FootnoteChar.char.style.enum</text></g></g><g class="non-terminal ">
<path d="M 144.0 28 h 0.0"></path><path d="M 161.0 28 h 0.0"></path><text class="comment" x="152.5" y="33">➋</text></g></g><path d="M 422.0 55 h 10"></path><path d="M 432.0 55 h 10"></path><g>
<path d="M 442.0 55 h 0.0"></path><path d="M 553.0 55 h 0.0"></path><path d="M 442.0 55 h 20"></path><g class="terminal ">
<path d="M 462.0 55 h 12.75"></path><path d="M 520.25 55 h 12.75"></path><rect height="22" rx="10" ry="10" width="45.5" x="474.75" y="44"></rect><text x="497.5" y="59">' '</text></g><path d="M 533.0 55 h 20"></path><path d="M 442.0 55 a 10 10 0 0 1 10 10 v 10 a 10 10 0 0 0 10 10"></path><g class="terminal altterminal">
<path d="M 462.0 85 h 0.0"></path><path d="M 533.0 85 h 0.0"></path><rect height="22" rx="10" ry="10" width="71.0" x="462.0" y="74"></rect><text x="497.5" y="89">TAGEND</text></g><path d="M 533.0 85 a 10 10 0 0 0 10 -10 v -10 a 10 10 0 0 1 10 -10"></path></g><path d="M 553.0 55 h 10"></path><path d="M 563.0 55 h 10"></path><g>
<path d="M 573.0 55 h 0.0"></path><path d="M 743.5 55 h 0.0"></path><path d="M 573.0 55 h 20"></path><g>
<path d="M 593.0 55 h 130.5"></path></g><path d="M 723.5 55 h 20"></path><path d="M 573.0 55 a 10 10 0 0 1 10 10 v 0 a 10 10 0 0 0 10 10"></path><g class="non-terminal ">
<path d="M 593.0 75 h 0.0"></path><path d="M 723.5 75 h 0.0"></path><rect height="22" width="130.5" x="593.0" y="64"></rect><text x="658.25" y="79">AttributesPre</text></g><path d="M 723.5 75 a 10 10 0 0 0 10 -10 v 0 a 10 10 0 0 1 10 -10"></path></g></g><path d="M 753.5 55 a 10 10 0 0 1 10 10 v 39 a 10 10 0 0 1 -10 10 h -693.5 a 10 10 0 0 0 -10 10 v 27 a 10 10 0 0 0 10 10"></path><g>
<path d="M 60.0 161 h 220.0"></path><path d="M 533.5 161 h 220.0"></path><path d="M 280.0 161 a 10 10 0 0 0 10 -10 v -9 a 10 10 0 0 1 10 -10"></path><g>
<path d="M 300.0 132 h 213.5"></path></g><path d="M 513.5 132 a 10 10 0 0 1 10 10 v 9 a 10 10 0 0 0 10 10"></path><path d="M 280.0 161 h 20"></path><g>
<path d="M 300.0 161 h 0.0"></path><path d="M 513.5 161 h 0.0"></path><path d="M 300.0 161 h 10"></path><g>
<path d="M 310.0 161 h 0.0"></path><path d="M 503.5 161 h 0.0"></path><g>
<path d="M 310.0 161 h 0.0"></path><path d="M 503.5 161 h 0.0"></path><path d="M 310.0 161 h 20"></path><g>
<path d="M 330.0 161 h 0.0"></path><path d="M 483.5 161 h 0.0"></path><g class="terminal ">
<path d="M 330.0 161 h 0.0"></path><path d="M 384.0 161 h 0.0"></path><rect height="22" rx="10" ry="10" width="54.0" x="330.0" y="150"></rect><text x="357.0" y="165">TEXT</text></g><path d="M 384.0 161 h 10"></path><path d="M 394.0 161 h 10"></path><g class="terminal ">
<path d="M 404.0 161 h 0.0"></path><path d="M 483.5 161 h 0.0"></path><rect height="22" rx="10" ry="10" width="79.5" x="404.0" y="150"></rect><text x="443.75" y="165">TEXTEND</text></g></g><path d="M 483.5 161 h 20"></path><path d="M 310.0 161 a 10 10 0 0 1 10 10 v 10 a 10 10 0 0 0 10 10"></path><g class="non-terminal ">
<path d="M 330.0 191 h 11.5"></path><path d="M 472.0 191 h 11.5"></path><rect height="22" width="130.5" x="341.5" y="180"></rect><text x="406.75" y="195">NoteCharEmbed</text></g><path d="M 483.5 191 a 10 10 0 0 0 10 -10 v -10 a 10 10 0 0 1 10 -10"></path><path d="M 310.0 161 a 10 10 0 0 1 10 10 v 40 a 10 10 0 0 0 10 10"></path><g class="non-terminal ">
<path d="M 330.0 221 h 41.25"></path><path d="M 442.25 221 h 41.25"></path><rect height="22" width="71.0" x="371.25" y="210"></rect><text x="406.75" y="225">Figure</text></g><path d="M 483.5 221 a 10 10 0 0 0 10 -10 v -40 a 10 10 0 0 1 10 -10"></path><path d="M 310.0 161 a 10 10 0 0 1 10 10 v 70 a 10 10 0 0 0 10 10"></path><g class="non-terminal ">
<path d="M 330.0 251 h 28.5"></path><path d="M 455.0 251 h 28.5"></path><rect height="22" width="96.5" x="358.5" y="240"></rect><text x="406.75" y="255">Milestone</text></g><path d="M 483.5 251 a 10 10 0 0 0 10 -10 v -70 a 10 10 0 0 1 10 -10"></path><path d="M 310.0 161 a 10 10 0 0 1 10 10 v 100 a 10 10 0 0 0 10 10"></path><g class="non-terminal ">
<path d="M 330.0 281 h 28.5"></path><path d="M 455.0 281 h 28.5"></path><rect height="22" width="96.5" x="358.5" y="270"></rect><text x="406.75" y="285">Reference</text></g><path d="M 483.5 281 a 10 10 0 0 0 10 -10 v -100 a 10 10 0 0 1 10 -10"></path><path d="M 310.0 161 a 10 10 0 0 1 10 10 v 130 a 10 10 0 0 0 10 10"></path><g class="non-terminal ">
<path d="M 330.0 311 h 45.5"></path><path d="M 438.0 311 h 45.5"></path><rect height="22" width="62.5" x="375.5" y="300"></rect><text x="406.75" y="315">Break</text></g><path d="M 483.5 311 a 10 10 0 0 0 10 -10 v -130 a 10 10 0 0 1 10 -10"></path></g></g><path d="M 503.5 161 h 10"></path><path d="M 310.0 161 a 10 10 0 0 0 -10 10 v 159 a 10 10 0 0 0 10 10"></path><g>
<path d="M 310.0 340 h 193.5"></path></g><path d="M 503.5 340 a 10 10 0 0 0 10 -10 v -159 a 10 10 0 0 0 -10 -10"></path></g><path d="M 513.5 161 h 20"></path></g><path d="M 753.5 161 a 10 10 0 0 1 10 10 v 177 a 10 10 0 0 1 -10 10 h -693.5 a 10 10 0 0 0 -10 10 v 0 a 10 10 0 0 0 10 10"></path><g>
<path d="M 60.0 378 h 234.25"></path><path d="M 519.25 378 h 234.25"></path><path d="M 294.25 378 h 20"></path><g>
<path d="M 314.25 378 h 185.0"></path></g><path d="M 499.25 378 h 20"></path><path d="M 294.25 378 a 10 10 0 0 1 10 10 v 0 a 10 10 0 0 0 10 10"></path><g>
<path d="M 314.25 398 h 0.0"></path><path d="M 499.25 398 h 0.0"></path><g class="terminal ">
<path d="M 314.25 398 h 0.0"></path><path d="M 368.25 398 h 0.0"></path><rect height="22" rx="10" ry="10" width="54.0" x="314.25" y="387"></rect><text x="341.25" y="402">'\\'</text></g><path d="M 368.25 398 h 10"></path><path d="M 378.25 398 h 10"></path><g class="terminal ">
<path d="M 388.25 398 h 0.0"></path><path d="M 433.75 398 h 0.0"></path><rect height="22" rx="10" ry="10" width="45.5" x="388.25" y="387"></rect><text x="411.0" y="402">⇐ ➋</text></g><path d="M 433.75 398 h 10"></path><path d="M 443.75 398 h 10"></path><g class="terminal ">
<path d="M 453.75 398 h 0.0"></path><path d="M 499.25 398 h 0.0"></path><rect height="22" rx="10" ry="10" width="45.5" x="453.75" y="387"></rect><text x="476.5" y="402">'&#42;'</text></g></g><path d="M 499.25 398 a 10 10 0 0 0 10 -10 v 0 a 10 10 0 0 1 10 -10"></path></g><path d="M 753.5 378 h 10"></path><path d="M 763.5 378 h 0.0"></path></g></g><path d="M 763.5 378 h 10"></path><path d="M 773.5 378 h 20 m 0 -10 v 20"></path></g></svg>