<svg class="railroad-diagram" height="506" viewBox="0 0 605.5 506" width="605.5" xmlns="http://www.w3.org/2000/svg" xmlns:xlink="http://www.w3.org/1999/xlink">
<g transform="translate(.5 .5)">
<style>/* <![CDATA[ */

    svg.railroad-diagram {
        background-color:hsl(30,20%,95%);
    }
    svg.railroad-diagram path {
        stroke-width: 2;
        stroke: black;
        fill: none;
    }
    svg.railroad-diagram text {
        font-size: 12px;
        text-anchor: middle;
        font-family: DejaVu Sans;
    }
    svg.railroad-diagram text.label {
        text-anchor:start;
    }
    svg.railroad-diagram text.comment {
        font-family: DejaVu Sans;
        font-size: 14px;
    }
    svg.railroad-diagram rect{
        stroke-width: 2;
        stroke:black;
        fill: rgb(210, 210, 255);
    }
    svg.railroad-diagram rect.group-box {
        stroke: gray;
        stroke-dasharray: 10 5;
        fill: none;
    }
    .terminal {
        font-family: DejaVu Sans;
    }

/* ]]> */
</style><g>
<path d="M 20 337 v 20 m 0 -10 h 20"></path></g><path d="M 40 347 h 10"></path><g>
<path d="M 50 347 h 0.0"></path><path d="M 555.5 347 h 0.0"></path><g>
<path d="M 50.0 347 h 0.0"></path><path d="M 555.5 347 h 0.0"></path><g class="terminal ">
<path d="M 50.0 347 h 0.0"></path><path d="M 121.0 347 h 0.0"></path><rect height="22" rx="10" ry="10" width="71.0" x="50.0" y="336"></rect><text x="85.5" y="351">&#60;char></text></g><path d="M 121.0 347 h 10"></path><path d="M 131.0 347 h 10"></path><g>
<path d="M 141.0 347 h 0.0"></path><path d="M 555.5 347 h 0.0"></path><path d="M 141.0 347 a 10 10 0 0 0 10 -10 v -148 a 10 10 0 0 1 10 -10"></path><g>
<path d="M 161.0 179 h 0.0"></path><path d="M 535.5 179 h 0.0"></path><g class="terminal ">
<path d="M 161.0 179 h 0.0"></path><path d="M 232.0 179 h 0.0"></path><rect height="22" rx="10" ry="10" width="71.0" x="161.0" y="168"></rect><text x="196.5" y="183">@style</text></g><path d="M 232.0 179 h 10"></path><g>
<path d="M 242.0 179 h 0.0"></path><path d="M 535.5 179 h 0.0"></path><path d="M 242.0 179 a 10 10 0 0 0 10 -10 v -99 a 10 10 0 0 1 10 -10 h 92.5"></path><path d="M 242.0 179 h 10"></path><g>
<path d="M 252.0 179 h 0.0"></path><path d="M 252.0 179 a 10 10 0 0 0 10 -10 v -10 a 10 10 0 0 1 10 -10"></path><g class="terminal ">
<path d="M 272.0 149 h 0.0"></path><path d="M 326.0 149 h 0.0"></path><rect height="22" rx="10" ry="10" width="54.0" x="272.0" y="138"></rect><text x="299.0" y="153">"fk"</text></g><path d="M 252.0 179 a 10 10 0 0 0 10 -10 v -40 a 10 10 0 0 1 10 -10"></path><g class="terminal ">
<path d="M 272.0 119 h 0.0"></path><path d="M 326.0 119 h 0.0"></path><rect height="22" rx="10" ry="10" width="54.0" x="272.0" y="108"></rect><text x="299.0" y="123">"ft"</text></g><path d="M 252.0 179 a 10 10 0 0 0 10 -10 v -70 a 10 10 0 0 1 10 -10"></path><g class="terminal ">
<path d="M 272.0 89 h 0.0"></path><path d="M 326.0 89 h 0.0"></path><rect height="22" rx="10" ry="10" width="54.0" x="272.0" y="78"></rect><text x="299.0" y="93">"fr"</text></g><path d="M 252.0 179 h 20"></path><g class="terminal ">
<path d="M 272.0 179 h 0.0"></path><path d="M 334.5 179 h 0.0"></path><rect height="22" rx="10" ry="10" width="62.5" x="272.0" y="168"></rect><text x="303.25" y="183">"fqa"</text></g><path d="M 252.0 179 a 10 10 0 0 1 10 10 v 10 a 10 10 0 0 0 10 10"></path><g class="terminal ">
<path d="M 272.0 209 h 0.0"></path><path d="M 326.0 209 h 0.0"></path><rect height="22" rx="10" ry="10" width="54.0" x="272.0" y="198"></rect><text x="299.0" y="213">"fq"</text></g><path d="M 252.0 179 a 10 10 0 0 1 10 10 v 40 a 10 10 0 0 0 10 10"></path><g class="terminal ">
<path d="M 272.0 239 h 0.0"></path><path d="M 326.0 239 h 0.0"></path><rect height="22" rx="10" ry="10" width="54.0" x="272.0" y="228"></rect><text x="299.0" y="243">"fl"</text></g><path d="M 252.0 179 a 10 10 0 0 1 10 10 v 70 a 10 10 0 0 0 10 10"></path><g class="terminal ">
<path d="M 272.0 269 h 0.0"></path><path d="M 326.0 269 h 0.0"></path><rect height="22" rx="10" ry="10" width="54.0" x="272.0" y="258"></rect><text x="299.0" y="273">"fw"</text></g><path d="M 252.0 179 a 10 10 0 0 1 10 10 v 100 a 10 10 0 0 0 10 10"></path><g class="terminal ">
<path d="M 272.0 299 h 0.0"></path><path d="M 326.0 299 h 0.0"></path><rect height="22" rx="10" ry="10" width="54.0" x="272.0" y="288"></rect><text x="299.0" y="303">"fp"</text></g></g><path d="M 354.5 60 a 10 10 0 0 1 10 10 v 99 a 10 10 0 0 0 10 10"></path><g>
<path d="M 374.5 179 h 0.0"></path><path d="M 374.5 179 a 10 10 0 0 0 10 -10 v -10 a 10 10 0 0 1 10 -10"></path><g class="terminal ">
<path d="M 394.5 149 h 0.0"></path><path d="M 448.5 149 h 0.0"></path><rect height="22" rx="10" ry="10" width="54.0" x="394.5" y="138"></rect><text x="421.5" y="153">"xt"</text></g><path d="M 374.5 179 a 10 10 0 0 0 10 -10 v -40 a 10 10 0 0 1 10 -10"></path><g class="terminal ">
<path d="M 394.5 119 h 0.0"></path><path d="M 457.0 119 h 0.0"></path><rect height="22" rx="10" ry="10" width="62.5" x="394.5" y="108"></rect><text x="425.75" y="123">"fdc"</text></g><path d="M 374.5 179 a 10 10 0 0 0 10 -10 v -70 a 10 10 0 0 1 10 -10"></path><g class="terminal ">
<path d="M 394.5 89 h 0.0"></path><path d="M 448.5 89 h 0.0"></path><rect height="22" rx="10" ry="10" width="54.0" x="394.5" y="78"></rect><text x="421.5" y="93">"fv"</text></g><path d="M 374.5 179 h 20"></path><g class="terminal ">
<path d="M 394.5 179 h 0.0"></path><path d="M 448.5 179 h 0.0"></path><rect height="22" rx="10" ry="10" width="54.0" x="394.5" y="168"></rect><text x="421.5" y="183">"it"</text></g><path d="M 374.5 179 a 10 10 0 0 1 10 10 v 10 a 10 10 0 0 0 10 10"></path><g class="terminal ">
<path d="M 394.5 209 h 0.0"></path><path d="M 465.5 209 h 0.0"></path><rect height="22" rx="10" ry="10" width="71.0" x="394.5" y="198"></rect><text x="430.0" y="213">"bdit"</text></g><path d="M 374.5 179 a 10 10 0 0 1 10 10 v 40 a 10 10 0 0 0 10 10"></path><g class="terminal ">
<path d="M 394.5 239 h 0.0"></path><path d="M 448.5 239 h 0.0"></path><rect height="22" rx="10" ry="10" width="54.0" x="394.5" y="228"></rect><text x="421.5" y="243">"bd"</text></g><path d="M 374.5 179 a 10 10 0 0 1 10 10 v 70 a 10 10 0 0 0 10 10"></path><g class="terminal ">
<path d="M 394.5 269 h 0.0"></path><path d="M 448.5 269 h 0.0"></path><rect height="22" rx="10" ry="10" width="54.0" x="394.5" y="258"></rect><text x="421.5" y="273">"em"</text></g><path d="M 374.5 179 a 10 10 0 0 1 10 10 v 100 a 10 10 0 0 0 10 10"></path><g class="terminal ">
<path d="M 394.5 299 h 0.0"></path><path d="M 448.5 299 h 0.0"></path><rect height="22" rx="10" ry="10" width="54.0" x="394.5" y="288"></rect><text x="421.5" y="303">"sc"</text></g></g></g></g><path d="M 141.0 347 a 10 10 0 0 0 10 -10 v -286 a 10 10 0 0 1 10 -10"></path><g>
<path d="M 161.0 41 h 0.0"></path><path d="M 314.5 41 h 0.0"></path><g class="terminal ">
<path d="M 161.0 41 h 0.0"></path><path d="M 240.5 41 h 0.0"></path><rect height="22" rx="10" ry="10" width="79.5" x="161.0" y="30"></rect><text x="200.75" y="45">@closed</text></g><path d="M 240.5 41 h 10"></path><path d="M 250.5 41 h 10"></path><g class="terminal ">
<path d="M 260.5 41 h 0.0"></path><path d="M 314.5 41 h 0.0"></path><rect height="22" rx="10" ry="10" width="54.0" x="260.5" y="30"></rect><text x="287.5" y="45">BOOL</text></g></g><path d="M 141.0 347 h 20"></path><g class="non-terminal ">
<path d="M 161.0 347 h 139.0"></path><path d="M 396.5 347 h 139.0"></path><rect height="22" width="96.5" x="300.0" y="336"></rect><text x="348.25" y="351">char.link</text></g><path d="M 535.5 347 h 20"></path><path d="M 141.0 347 a 10 10 0 0 1 10 10 v 20 a 10 10 0 0 0 10 10"></path><g>
<path d="M 161.0 387 h 92.0"></path><path d="M 443.5 387 h 92.0"></path><path d="M 253.0 387 h 10"></path><g>
<path d="M 263.0 387 h 0.0"></path><path d="M 433.5 387 h 0.0"></path><path d="M 263.0 387 h 20"></path><g class="non-terminal ">
<path d="M 283.0 387 h 17.0"></path><path d="M 396.5 387 h 17.0"></path><rect height="22" width="96.5" x="300.0" y="376"></rect><text x="348.25" y="391">Reference</text></g><path d="M 413.5 387 h 20"></path><path d="M 263.0 387 a 10 10 0 0 1 10 10 v 10 a 10 10 0 0 0 10 10"></path><g class="non-terminal ">
<path d="M 283.0 417 h 0.0"></path><path d="M 413.5 417 h 0.0"></path><rect height="22" width="130.5" x="283.0" y="406"></rect><text x="348.25" y="421">NoteCharEmbed</text></g><path d="M 413.5 417 a 10 10 0 0 0 10 -10 v -10 a 10 10 0 0 1 10 -10"></path><path d="M 263.0 387 a 10 10 0 0 1 10 10 v 40 a 10 10 0 0 0 10 10"></path><g class="terminal ">
<path d="M 283.0 447 h 38.25"></path><path d="M 375.25 447 h 38.25"></path><rect height="22" rx="10" ry="10" width="54.0" x="321.25" y="436"></rect><text x="348.25" y="451">TEXT</text></g><path d="M 413.5 447 a 10 10 0 0 0 10 -10 v -40 a 10 10 0 0 1 10 -10"></path></g><path d="M 433.5 387 h 10"></path><path d="M 263.0 387 a 10 10 0 0 0 -10 10 v 69 a 10 10 0 0 0 10 10"></path><g>
<path d="M 263.0 476 h 170.5"></path></g><path d="M 433.5 476 a 10 10 0 0 0 10 -10 v -69 a 10 10 0 0 0 -10 -10"></path></g><path d="M 535.5 387 a 10 10 0 0 0 10 -10 v -20 a 10 10 0 0 1 10 -10"></path></g></g></g><path d="M 555.5 347 h 10"></path><path d="M 565.5 347 h 20 m 0 -10 v 20"></path></g></svg>