<svg class="railroad-diagram" height="258" viewBox="0 0 580.0 258" width="580.0" xmlns="http://www.w3.org/2000/svg" xmlns:xlink="http://www.w3.org/1999/xlink">
<g transform="translate(.5 .5)">
<style>/* <![CDATA[ */

    svg.railroad-diagram {
        background-color: hsl(30,20%,95%);
    }
    svg.railroad-diagram path {
        stroke-width: 2;
        stroke: black;
        fill: none;
    }
    svg.railroad-diagram text {
        font-size: 12px;
        text-anchor: middle;
        font-family: DejaVu Sans;
    }
    svg.railroad-diagram text.label {
        text-anchor:start;
    }
    svg.railroad-diagram text.comment {
        font-family: DejaVu Sans;
        font-size: 14px;
    }
    svg.railroad-diagram rect{
        stroke-width: 2;
        stroke: black;
        fill: rgb(210, 210, 255);
    }
    svg.railroad-diagram rect.group-box {
        stroke: gray;
        stroke-dasharray: 10 5;
        fill: none;
    }
    .terminal {
        font-family: DejaVu Sans;
    }
    svg.railroad-diagram g.altterminal rect {
        fill: rgb(251, 252, 207)
    }

/* ]]> */
</style><g>
<path d="M 20 119 v 20 m 0 -10 h 20"></path></g><path d="M 40 129 h 10"></path><g>
<path d="M 50 129 h 0.0"></path><path d="M 530.0 129 h 0.0"></path><g>
<path d="M 50.0 129 h 0.0"></path><path d="M 530.0 129 h 0.0"></path><g class="terminal ">
<path d="M 50.0 129 h 0.0"></path><path d="M 121.0 129 h 0.0"></path><rect height="22" rx="10" ry="10" width="71.0" x="50.0" y="118"></rect><text x="85.5" y="133">&#60;char></text></g><path d="M 121.0 129 h 10"></path><path d="M 131.0 129 h 10"></path><g>
<path d="M 141.0 129 h 0.0"></path><path d="M 530.0 129 h 0.0"></path><path d="M 141.0 129 a 10 10 0 0 0 10 -10 v -38 a 10 10 0 0 1 10 -10"></path><g>
<path d="M 161.0 71 h 0.0"></path><path d="M 510.0 71 h 0.0"></path><g class="terminal ">
<path d="M 161.0 71 h 0.0"></path><path d="M 232.0 71 h 0.0"></path><rect height="22" rx="10" ry="10" width="71.0" x="161.0" y="60"></rect><text x="196.5" y="75">@style</text></g><path d="M 232.0 71 h 10"></path><path d="M 242.0 71 h 10"></path><g class="non-terminal ">
<path d="M 252.0 71 h 0.0"></path><path d="M 510.0 71 h 0.0"></path><rect height="22" width="258.0" x="252.0" y="60"></rect><text x="381.0" y="75">FootnoteChar.char.style.enum</text></g></g><path d="M 141.0 129 a 10 10 0 0 0 10 -10 v -68 a 10 10 0 0 1 10 -10"></path><g>
<path d="M 161.0 41 h 0.0"></path><path d="M 314.5 41 h 0.0"></path><g class="terminal ">
<path d="M 161.0 41 h 0.0"></path><path d="M 240.5 41 h 0.0"></path><rect height="22" rx="10" ry="10" width="79.5" x="161.0" y="30"></rect><text x="200.75" y="45">@closed</text></g><path d="M 240.5 41 h 10"></path><path d="M 250.5 41 h 10"></path><g class="terminal ">
<path d="M 260.5 41 h 0.0"></path><path d="M 314.5 41 h 0.0"></path><rect height="22" rx="10" ry="10" width="54.0" x="260.5" y="30"></rect><text x="287.5" y="45">BOOL</text></g></g><path d="M 141.0 129 h 20"></path><g>
<path d="M 161.0 129 h 59.25"></path><path d="M 450.75 129 h 59.25"></path><path d="M 220.25 129 a 10 10 0 0 0 10 -10 v -9 a 10 10 0 0 1 10 -10"></path><g>
<path d="M 240.25 100 h 190.5"></path></g><path d="M 430.75 100 a 10 10 0 0 1 10 10 v 9 a 10 10 0 0 0 10 10"></path><path d="M 220.25 129 h 20"></path><g>
<path d="M 240.25 129 h 0.0"></path><path d="M 430.75 129 h 0.0"></path><path d="M 240.25 129 h 10"></path><g>
<path d="M 250.25 129 h 0.0"></path><path d="M 420.75 129 h 0.0"></path><path d="M 250.25 129 h 20"></path><g class="terminal ">
<path d="M 270.25 129 h 38.25"></path><path d="M 362.5 129 h 38.25"></path><rect height="22" rx="10" ry="10" width="54.0" x="308.5" y="118"></rect><text x="335.5" y="133">TEXT</text></g><path d="M 400.75 129 h 20"></path><path d="M 250.25 129 a 10 10 0 0 1 10 10 v 10 a 10 10 0 0 0 10 10"></path><g class="non-terminal ">
<path d="M 270.25 159 h 0.0"></path><path d="M 400.75 159 h 0.0"></path><rect height="22" width="130.5" x="270.25" y="148"></rect><text x="335.5" y="163">NoteCharEmbed</text></g><path d="M 400.75 159 a 10 10 0 0 0 10 -10 v -10 a 10 10 0 0 1 10 -10"></path><path d="M 250.25 129 a 10 10 0 0 1 10 10 v 40 a 10 10 0 0 0 10 10"></path><g class="non-terminal ">
<path d="M 270.25 189 h 17.0"></path><path d="M 383.75 189 h 17.0"></path><rect height="22" width="96.5" x="287.25" y="178"></rect><text x="335.5" y="193">Reference</text></g><path d="M 400.75 189 a 10 10 0 0 0 10 -10 v -40 a 10 10 0 0 1 10 -10"></path></g><path d="M 420.75 129 h 10"></path><path d="M 250.25 129 a 10 10 0 0 0 -10 10 v 69 a 10 10 0 0 0 10 10"></path><g>
<path d="M 250.25 218 h 170.5"></path></g><path d="M 420.75 218 a 10 10 0 0 0 10 -10 v -69 a 10 10 0 0 0 -10 -10"></path></g><path d="M 430.75 129 h 20"></path></g><path d="M 510.0 129 h 20"></path></g></g></g><path d="M 530.0 129 h 10"></path><path d="M 540.0 129 h 20 m 0 -10 v 20"></path></g></svg>