<svg class="railroad-diagram" height="645" viewBox="0 0 857.5 645" width="857.5" xmlns="http://www.w3.org/2000/svg" xmlns:xlink="http://www.w3.org/1999/xlink">
<g transform="translate(.5 .5)">
<style>/* <![CDATA[ */

    svg.railroad-diagram {
        background-color: hsl(30,20%,95%);
    }
    svg.railroad-diagram path {
        stroke-width: 2;
        stroke: black;
        fill: none;
    }
    svg.railroad-diagram text {
        font-size: 12px;
        text-anchor: middle;
        font-family: DejaVu Sans;
    }
    svg.railroad-diagram text.label {
        text-anchor:start;
    }
    svg.railroad-diagram text.comment {
        font-family: DejaVu Sans;
        font-size: 14px;
    }
    svg.railroad-diagram rect{
        stroke-width: 2;
        stroke: black;
        fill: rgb(210, 255, 210);
    }
    svg.railroad-diagram rect.group-box {
        stroke: gray;
        stroke-dasharray: 10 5;
        fill: none;
    }
    .terminal {
        font-family: DejaVu Sans;
    }
    svg.railroad-diagram g.altterminal rect {
        fill: rgb(251, 252, 207)
    }

/* ]]> */
</style><g>
<path d="M 20 153 v 20 m 0 -10 h 20"></path></g><path d="M 40 163 h 10"></path><g>
<path d="M 50 163 h 0.0"></path><path d="M 807.5 584 h 0.0"></path><g>
<path d="M 50.0 163 h 0.0"></path><path d="M 50.0 163 h 10"></path><g>
<path d="M 60.0 163 h 10.0"></path><path d="M 787.5 163 h 10.0"></path><g class="terminal ">
<path d="M 70.0 163 h 0.0"></path><path d="M 124.0 163 h 0.0"></path><rect height="22" rx="10" ry="10" width="54.0" x="70.0" y="152"></rect><text x="97.0" y="167">'\\'</text></g><path d="M 124.0 163 h 10"></path><path d="M 134.0 163 h 10"></path><g>
<path d="M 144.0 163 h 0.0"></path><path d="M 440.5 163 h 0.0"></path><rect class="group-box" height="276" rx="10" ry="10" width="296.5" x="144.0" y="36"></rect><g>
<path d="M 144.0 163 h 10.0"></path><path d="M 430.5 163 h 10.0"></path><g>
<path d="M 154.0 163 h 0.0"></path><path d="M 430.5 163 h 0.0"></path><path d="M 154.0 163 a 10 10 0 0 0 10 -10 v -99 a 10 10 0 0 1 10 -10 h 112.5"></path><path d="M 306.5 192 h 104.0 a 10 10 0 0 0 10 -10 v -9 a 10 10 0 0 1 10 -10"></path><path d="M 154.0 163 h 10"></path><g>
<path d="M 164.0 163 h 10.0"></path><path d="M 276.5 163 h 10.0"></path><path d="M 174.0 163 a 10 10 0 0 0 10 -10 v -10 a 10 10 0 0 1 10 -10"></path><g class="terminal ">
<path d="M 194.0 133 h 4.25"></path><path d="M 252.25 133 h 4.25"></path><rect height="22" rx="10" ry="10" width="54.0" x="198.25" y="122"></rect><text x="225.25" y="137">"fk"</text></g><path d="M 256.5 133 a 10 10 0 0 1 10 10 v 10 a 10 10 0 0 0 10 10"></path><path d="M 174.0 163 a 10 10 0 0 0 10 -10 v -40 a 10 10 0 0 1 10 -10"></path><g class="terminal ">
<path d="M 194.0 103 h 4.25"></path><path d="M 252.25 103 h 4.25"></path><rect height="22" rx="10" ry="10" width="54.0" x="198.25" y="92"></rect><text x="225.25" y="107">"ft"</text></g><path d="M 256.5 103 a 10 10 0 0 1 10 10 v 40 a 10 10 0 0 0 10 10"></path><path d="M 174.0 163 a 10 10 0 0 0 10 -10 v -70 a 10 10 0 0 1 10 -10"></path><g class="terminal ">
<path d="M 194.0 73 h 4.25"></path><path d="M 252.25 73 h 4.25"></path><rect height="22" rx="10" ry="10" width="54.0" x="198.25" y="62"></rect><text x="225.25" y="77">"fr"</text></g><path d="M 256.5 73 a 10 10 0 0 1 10 10 v 70 a 10 10 0 0 0 10 10"></path><path d="M 174.0 163 h 20"></path><g class="terminal ">
<path d="M 194.0 163 h 0.0"></path><path d="M 256.5 163 h 0.0"></path><rect height="22" rx="10" ry="10" width="62.5" x="194.0" y="152"></rect><text x="225.25" y="167">"fqa"</text></g><path d="M 256.5 163 h 20"></path><path d="M 174.0 163 a 10 10 0 0 1 10 10 v 10 a 10 10 0 0 0 10 10"></path><g class="terminal ">
<path d="M 194.0 193 h 4.25"></path><path d="M 252.25 193 h 4.25"></path><rect height="22" rx="10" ry="10" width="54.0" x="198.25" y="182"></rect><text x="225.25" y="197">"fq"</text></g><path d="M 256.5 193 a 10 10 0 0 0 10 -10 v -10 a 10 10 0 0 1 10 -10"></path><path d="M 174.0 163 a 10 10 0 0 1 10 10 v 40 a 10 10 0 0 0 10 10"></path><g class="terminal ">
<path d="M 194.0 223 h 4.25"></path><path d="M 252.25 223 h 4.25"></path><rect height="22" rx="10" ry="10" width="54.0" x="198.25" y="212"></rect><text x="225.25" y="227">"fl"</text></g><path d="M 256.5 223 a 10 10 0 0 0 10 -10 v -40 a 10 10 0 0 1 10 -10"></path><path d="M 174.0 163 a 10 10 0 0 1 10 10 v 70 a 10 10 0 0 0 10 10"></path><g class="terminal ">
<path d="M 194.0 253 h 4.25"></path><path d="M 252.25 253 h 4.25"></path><rect height="22" rx="10" ry="10" width="54.0" x="198.25" y="242"></rect><text x="225.25" y="257">"fw"</text></g><path d="M 256.5 253 a 10 10 0 0 0 10 -10 v -70 a 10 10 0 0 1 10 -10"></path><path d="M 174.0 163 a 10 10 0 0 1 10 10 v 100 a 10 10 0 0 0 10 10"></path><g class="terminal ">
<path d="M 194.0 283 h 0.0"></path><path d="M 256.5 283 h 0.0"></path><rect height="22" rx="10" ry="10" width="62.5" x="194.0" y="272"></rect><text x="225.25" y="287">"fdc"</text></g><path d="M 256.5 283 a 10 10 0 0 0 10 -10 v -100 a 10 10 0 0 1 10 -10"></path></g><path d="M 286.5 163 a 10 10 0 0 1 10 10 v 9 a 10 10 0 0 0 10 10"></path><path d="M 286.5 44 a 10 10 0 0 1 10 10 v 99 a 10 10 0 0 0 10 10"></path><g>
<path d="M 306.5 163 h 10.0"></path><path d="M 410.5 163 h 10.0"></path><path d="M 316.5 163 h 20"></path><g class="terminal ">
<path d="M 336.5 163 h 0.0"></path><path d="M 390.5 163 h 0.0"></path><rect height="22" rx="10" ry="10" width="54.0" x="336.5" y="152"></rect><text x="363.5" y="167">"fp"</text></g><path d="M 390.5 163 h 20"></path></g><path d="M 420.5 163 h 10"></path></g></g><g class="non-terminal ">
<path d="M 144.0 28 h 0.0"></path><path d="M 161.0 28 h 0.0"></path><text class="comment" x="152.5" y="33">➋</text></g></g><path d="M 440.5 163 h 10"></path><path d="M 450.5 163 h 10"></path><g>
<path d="M 460.5 163 h 0.0"></path><path d="M 571.5 163 h 0.0"></path><path d="M 460.5 163 h 20"></path><g class="terminal ">
<path d="M 480.5 163 h 12.75"></path><path d="M 538.75 163 h 12.75"></path><rect height="22" rx="10" ry="10" width="45.5" x="493.25" y="152"></rect><text x="516.0" y="167">' '</text></g><path d="M 551.5 163 h 20"></path><path d="M 460.5 163 a 10 10 0 0 1 10 10 v 10 a 10 10 0 0 0 10 10"></path><g class="terminal altterminal">
<path d="M 480.5 193 h 0.0"></path><path d="M 551.5 193 h 0.0"></path><rect height="22" rx="10" ry="10" width="71.0" x="480.5" y="182"></rect><text x="516.0" y="197">TAGEND</text></g><path d="M 551.5 193 a 10 10 0 0 0 10 -10 v -10 a 10 10 0 0 1 10 -10"></path></g><path d="M 571.5 163 h 10"></path><path d="M 581.5 163 h 10"></path><g>
<path d="M 591.5 163 h 0.0"></path><path d="M 787.5 163 h 0.0"></path><path d="M 591.5 163 h 20"></path><g>
<path d="M 611.5 163 h 156.0"></path></g><path d="M 767.5 163 h 20"></path><path d="M 591.5 163 a 10 10 0 0 1 10 10 v 0 a 10 10 0 0 0 10 10"></path><g class="non-terminal ">
<path d="M 611.5 183 h 0.0"></path><path d="M 767.5 183 h 0.0"></path><rect height="22" width="156.0" x="611.5" y="172"></rect><text x="689.5" y="187">AttributesPreAll</text></g><path d="M 767.5 183 a 10 10 0 0 0 10 -10 v 0 a 10 10 0 0 1 10 -10"></path></g></g><path d="M 797.5 163 a 10 10 0 0 1 10 10 v 137 a 10 10 0 0 1 -10 10 h -737.5 a 10 10 0 0 0 -10 10 v 27 a 10 10 0 0 0 10 10"></path><g>
<path d="M 60.0 367 h 242.0"></path><path d="M 555.5 367 h 242.0"></path><path d="M 302.0 367 a 10 10 0 0 0 10 -10 v -9 a 10 10 0 0 1 10 -10"></path><g>
<path d="M 322.0 338 h 213.5"></path></g><path d="M 535.5 338 a 10 10 0 0 1 10 10 v 9 a 10 10 0 0 0 10 10"></path><path d="M 302.0 367 h 20"></path><g>
<path d="M 322.0 367 h 0.0"></path><path d="M 535.5 367 h 0.0"></path><path d="M 322.0 367 h 10"></path><g>
<path d="M 332.0 367 h 0.0"></path><path d="M 525.5 367 h 0.0"></path><g>
<path d="M 332.0 367 h 0.0"></path><path d="M 525.5 367 h 0.0"></path><path d="M 332.0 367 h 20"></path><g>
<path d="M 352.0 367 h 0.0"></path><path d="M 505.5 367 h 0.0"></path><g class="terminal ">
<path d="M 352.0 367 h 0.0"></path><path d="M 406.0 367 h 0.0"></path><rect height="22" rx="10" ry="10" width="54.0" x="352.0" y="356"></rect><text x="379.0" y="371">TEXT</text></g><path d="M 406.0 367 h 10"></path><path d="M 416.0 367 h 10"></path><g class="terminal ">
<path d="M 426.0 367 h 0.0"></path><path d="M 505.5 367 h 0.0"></path><rect height="22" rx="10" ry="10" width="79.5" x="426.0" y="356"></rect><text x="465.75" y="371">TEXTEND</text></g></g><path d="M 505.5 367 h 20"></path><path d="M 332.0 367 a 10 10 0 0 1 10 10 v 10 a 10 10 0 0 0 10 10"></path><g class="non-terminal ">
<path d="M 352.0 397 h 11.5"></path><path d="M 494.0 397 h 11.5"></path><rect height="22" width="130.5" x="363.5" y="386"></rect><text x="428.75" y="401">NoteCharEmbed</text></g><path d="M 505.5 397 a 10 10 0 0 0 10 -10 v -10 a 10 10 0 0 1 10 -10"></path><path d="M 332.0 367 a 10 10 0 0 1 10 10 v 40 a 10 10 0 0 0 10 10"></path><g class="non-terminal ">
<path d="M 352.0 427 h 41.25"></path><path d="M 464.25 427 h 41.25"></path><rect height="22" width="71.0" x="393.25" y="416"></rect><text x="428.75" y="431">Figure</text></g><path d="M 505.5 427 a 10 10 0 0 0 10 -10 v -40 a 10 10 0 0 1 10 -10"></path><path d="M 332.0 367 a 10 10 0 0 1 10 10 v 70 a 10 10 0 0 0 10 10"></path><g class="non-terminal ">
<path d="M 352.0 457 h 28.5"></path><path d="M 477.0 457 h 28.5"></path><rect height="22" width="96.5" x="380.5" y="446"></rect><text x="428.75" y="461">Milestone</text></g><path d="M 505.5 457 a 10 10 0 0 0 10 -10 v -70 a 10 10 0 0 1 10 -10"></path><path d="M 332.0 367 a 10 10 0 0 1 10 10 v 100 a 10 10 0 0 0 10 10"></path><g class="non-terminal ">
<path d="M 352.0 487 h 28.5"></path><path d="M 477.0 487 h 28.5"></path><rect height="22" width="96.5" x="380.5" y="476"></rect><text x="428.75" y="491">Reference</text></g><path d="M 505.5 487 a 10 10 0 0 0 10 -10 v -100 a 10 10 0 0 1 10 -10"></path><path d="M 332.0 367 a 10 10 0 0 1 10 10 v 130 a 10 10 0 0 0 10 10"></path><g class="non-terminal ">
<path d="M 352.0 517 h 45.5"></path><path d="M 460.0 517 h 45.5"></path><rect height="22" width="62.5" x="397.5" y="506"></rect><text x="428.75" y="521">Break</text></g><path d="M 505.5 517 a 10 10 0 0 0 10 -10 v -130 a 10 10 0 0 1 10 -10"></path></g></g><path d="M 525.5 367 h 10"></path><path d="M 332.0 367 a 10 10 0 0 0 -10 10 v 159 a 10 10 0 0 0 10 10"></path><g>
<path d="M 332.0 546 h 193.5"></path></g><path d="M 525.5 546 a 10 10 0 0 0 10 -10 v -159 a 10 10 0 0 0 -10 -10"></path></g><path d="M 535.5 367 h 20"></path></g><path d="M 797.5 367 a 10 10 0 0 1 10 10 v 177 a 10 10 0 0 1 -10 10 h -737.5 a 10 10 0 0 0 -10 10 v 0 a 10 10 0 0 0 10 10"></path><g>
<path d="M 60.0 584 h 256.25"></path><path d="M 541.25 584 h 256.25"></path><path d="M 316.25 584 h 20"></path><g>
<path d="M 336.25 584 h 185.0"></path></g><path d="M 521.25 584 h 20"></path><path d="M 316.25 584 a 10 10 0 0 1 10 10 v 0 a 10 10 0 0 0 10 10"></path><g>
<path d="M 336.25 604 h 0.0"></path><path d="M 521.25 604 h 0.0"></path><g class="terminal ">
<path d="M 336.25 604 h 0.0"></path><path d="M 390.25 604 h 0.0"></path><rect height="22" rx="10" ry="10" width="54.0" x="336.25" y="593"></rect><text x="363.25" y="608">'\\'</text></g><path d="M 390.25 604 h 10"></path><path d="M 400.25 604 h 10"></path><g class="terminal ">
<path d="M 410.25 604 h 0.0"></path><path d="M 455.75 604 h 0.0"></path><rect height="22" rx="10" ry="10" width="45.5" x="410.25" y="593"></rect><text x="433.0" y="608">⇐ ➋</text></g><path d="M 455.75 604 h 10"></path><path d="M 465.75 604 h 10"></path><g class="terminal ">
<path d="M 475.75 604 h 0.0"></path><path d="M 521.25 604 h 0.0"></path><rect height="22" rx="10" ry="10" width="45.5" x="475.75" y="593"></rect><text x="498.5" y="608">'&#42;'</text></g></g><path d="M 521.25 604 a 10 10 0 0 0 10 -10 v 0 a 10 10 0 0 1 10 -10"></path></g><path d="M 797.5 584 h 10"></path><path d="M 807.5 584 h 0.0"></path></g></g><path d="M 807.5 584 h 10"></path><path d="M 817.5 584 h 20 m 0 -10 v 20"></path></g></svg>