<svg class="railroad-diagram" height="496" viewBox="0 0 605.5 496" width="605.5" xmlns="http://www.w3.org/2000/svg" xmlns:xlink="http://www.w3.org/1999/xlink">
<g transform="translate(.5 .5)">
<style>/* <![CDATA[ */

    svg.railroad-diagram {
        background-color: hsl(30,20%,95%);
    }
    svg.railroad-diagram path {
        stroke-width: 2;
        stroke: black;
        fill: none;
    }
    svg.railroad-diagram text {
        font-size: 12px;
        text-anchor: middle;
        font-family: DejaVu Sans;
    }
    svg.railroad-diagram text.label {
        text-anchor:start;
    }
    svg.railroad-diagram text.comment {
        font-family: DejaVu Sans;
        font-size: 14px;
    }
    svg.railroad-diagram rect{
        stroke-width: 2;
        stroke: black;
        fill: rgb(210, 210, 255);
    }
    svg.railroad-diagram rect.group-box {
        stroke: gray;
        stroke-dasharray: 10 5;
        fill: none;
    }
    .terminal {
        font-family: DejaVu Sans;
    }
    svg.railroad-diagram g.altterminal rect {
        fill: rgb(251, 252, 207)
    }

/* ]]> */
</style><g>
<path d="M 20 357 v 20 m 0 -10 h 20"></path></g><path d="M 40 367 h 10"></path><g>
<path d="M 50 367 h 0.0"></path><path d="M 555.5 367 h 0.0"></path><g>
<path d="M 50.0 367 h 0.0"></path><path d="M 555.5 367 h 0.0"></path><g class="terminal ">
<path d="M 50.0 367 h 0.0"></path><path d="M 121.0 367 h 0.0"></path><rect height="22" rx="10" ry="10" width="71.0" x="50.0" y="356"></rect><text x="85.5" y="371">&#60;char></text></g><path d="M 121.0 367 h 10"></path><path d="M 131.0 367 h 10"></path><g>
<path d="M 141.0 367 h 0.0"></path><path d="M 555.5 367 h 0.0"></path><path d="M 141.0 367 a 10 10 0 0 0 10 -10 v -168 a 10 10 0 0 1 10 -10"></path><g>
<path d="M 161.0 179 h 0.0"></path><path d="M 535.5 179 h 0.0"></path><g class="terminal ">
<path d="M 161.0 179 h 0.0"></path><path d="M 232.0 179 h 0.0"></path><rect height="22" rx="10" ry="10" width="71.0" x="161.0" y="168"></rect><text x="196.5" y="183">@style</text></g><path d="M 232.0 179 h 10"></path><g>
<path d="M 242.0 179 h 0.0"></path><path d="M 535.5 179 h 0.0"></path><path d="M 242.0 179 a 10 10 0 0 0 10 -10 v -99 a 10 10 0 0 1 10 -10 h 92.5"></path><path d="M 242.0 179 h 10"></path><g>
<path d="M 252.0 179 h 0.0"></path><path d="M 252.0 179 a 10 10 0 0 0 10 -10 v -10 a 10 10 0 0 1 10 -10"></path><g class="terminal ">
<path d="M 272.0 149 h 0.0"></path><path d="M 326.0 149 h 0.0"></path><rect height="22" rx="10" ry="10" width="54.0" x="272.0" y="138"></rect><text x="299.0" y="153">"fk"</text></g><path d="M 252.0 179 a 10 10 0 0 0 10 -10 v -40 a 10 10 0 0 1 10 -10"></path><g class="terminal ">
<path d="M 272.0 119 h 0.0"></path><path d="M 326.0 119 h 0.0"></path><rect height="22" rx="10" ry="10" width="54.0" x="272.0" y="108"></rect><text x="299.0" y="123">"ft"</text></g><path d="M 252.0 179 a 10 10 0 0 0 10 -10 v -70 a 10 10 0 0 1 10 -10"></path><g class="terminal ">
<path d="M 272.0 89 h 0.0"></path><path d="M 326.0 89 h 0.0"></path><rect height="22" rx="10" ry="10" width="54.0" x="272.0" y="78"></rect><text x="299.0" y="93">"fr"</text></g><path d="M 252.0 179 h 20"></path><g class="terminal ">
<path d="M 272.0 179 h 0.0"></path><path d="M 334.5 179 h 0.0"></path><rect height="22" rx="10" ry="10" width="62.5" x="272.0" y="168"></rect><text x="303.25" y="183">"fqa"</text></g><path d="M 252.0 179 a 10 10 0 0 1 10 10 v 10 a 10 10 0 0 0 10 10"></path><g class="terminal ">
<path d="M 272.0 209 h 0.0"></path><path d="M 326.0 209 h 0.0"></path><rect height="22" rx="10" ry="10" width="54.0" x="272.0" y="198"></rect><text x="299.0" y="213">"fq"</text></g><path d="M 252.0 179 a 10 10 0 0 1 10 10 v 40 a 10 10 0 0 0 10 10"></path><g class="terminal ">
<path d="M 272.0 239 h 0.0"></path><path d="M 326.0 239 h 0.0"></path><rect height="22" rx="10" ry="10" width="54.0" x="272.0" y="228"></rect><text x="299.0" y="243">"fl"</text></g><path d="M 252.0 179 a 10 10 0 0 1 10 10 v 70 a 10 10 0 0 0 10 10"></path><g class="terminal ">
<path d="M 272.0 269 h 0.0"></path><path d="M 326.0 269 h 0.0"></path><rect height="22" rx="10" ry="10" width="54.0" x="272.0" y="258"></rect><text x="299.0" y="273">"fw"</text></g><path d="M 252.0 179 a 10 10 0 0 1 10 10 v 100 a 10 10 0 0 0 10 10"></path><g class="terminal ">
<path d="M 272.0 299 h 0.0"></path><path d="M 334.5 299 h 0.0"></path><rect height="22" rx="10" ry="10" width="62.5" x="272.0" y="288"></rect><text x="303.25" y="303">"fdc"</text></g></g><path d="M 354.5 60 a 10 10 0 0 1 10 10 v 99 a 10 10 0 0 0 10 10"></path><g>
<path d="M 374.5 179 h 0.0"></path><path d="M 374.5 179 a 10 10 0 0 0 10 -10 v -10 a 10 10 0 0 1 10 -10"></path><g class="terminal ">
<path d="M 394.5 149 h 0.0"></path><path d="M 448.5 149 h 0.0"></path><rect height="22" rx="10" ry="10" width="54.0" x="394.5" y="138"></rect><text x="421.5" y="153">"bd"</text></g><path d="M 374.5 179 a 10 10 0 0 0 10 -10 v -40 a 10 10 0 0 1 10 -10"></path><g class="terminal ">
<path d="M 394.5 119 h 0.0"></path><path d="M 465.5 119 h 0.0"></path><rect height="22" rx="10" ry="10" width="71.0" x="394.5" y="108"></rect><text x="430.0" y="123">"bdit"</text></g><path d="M 374.5 179 a 10 10 0 0 0 10 -10 v -70 a 10 10 0 0 1 10 -10"></path><g class="terminal ">
<path d="M 394.5 89 h 0.0"></path><path d="M 448.5 89 h 0.0"></path><rect height="22" rx="10" ry="10" width="54.0" x="394.5" y="78"></rect><text x="421.5" y="93">"it"</text></g><path d="M 374.5 179 h 20"></path><g class="terminal ">
<path d="M 394.5 179 h 0.0"></path><path d="M 448.5 179 h 0.0"></path><rect height="22" rx="10" ry="10" width="54.0" x="394.5" y="168"></rect><text x="421.5" y="183">"em"</text></g><path d="M 374.5 179 a 10 10 0 0 1 10 10 v 10 a 10 10 0 0 0 10 10"></path><g class="terminal ">
<path d="M 394.5 209 h 0.0"></path><path d="M 448.5 209 h 0.0"></path><rect height="22" rx="10" ry="10" width="54.0" x="394.5" y="198"></rect><text x="421.5" y="213">"sc"</text></g></g></g></g><path d="M 141.0 367 a 10 10 0 0 0 10 -10 v -306 a 10 10 0 0 1 10 -10"></path><g>
<path d="M 161.0 41 h 0.0"></path><path d="M 314.5 41 h 0.0"></path><g class="terminal ">
<path d="M 161.0 41 h 0.0"></path><path d="M 240.5 41 h 0.0"></path><rect height="22" rx="10" ry="10" width="79.5" x="161.0" y="30"></rect><text x="200.75" y="45">@closed</text></g><path d="M 240.5 41 h 10"></path><path d="M 250.5 41 h 10"></path><g class="terminal ">
<path d="M 260.5 41 h 0.0"></path><path d="M 314.5 41 h 0.0"></path><rect height="22" rx="10" ry="10" width="54.0" x="260.5" y="30"></rect><text x="287.5" y="45">BOOL</text></g></g><path d="M 141.0 367 h 20"></path><g>
<path d="M 161.0 367 h 72.0"></path><path d="M 463.5 367 h 72.0"></path><path d="M 233.0 367 a 10 10 0 0 0 10 -10 v -9 a 10 10 0 0 1 10 -10"></path><g>
<path d="M 253.0 338 h 190.5"></path></g><path d="M 443.5 338 a 10 10 0 0 1 10 10 v 9 a 10 10 0 0 0 10 10"></path><path d="M 233.0 367 h 20"></path><g>
<path d="M 253.0 367 h 0.0"></path><path d="M 443.5 367 h 0.0"></path><path d="M 253.0 367 h 10"></path><g>
<path d="M 263.0 367 h 0.0"></path><path d="M 433.5 367 h 0.0"></path><path d="M 263.0 367 h 20"></path><g class="terminal ">
<path d="M 283.0 367 h 38.25"></path><path d="M 375.25 367 h 38.25"></path><rect height="22" rx="10" ry="10" width="54.0" x="321.25" y="356"></rect><text x="348.25" y="371">TEXT</text></g><path d="M 413.5 367 h 20"></path><path d="M 263.0 367 a 10 10 0 0 1 10 10 v 10 a 10 10 0 0 0 10 10"></path><g class="non-terminal ">
<path d="M 283.0 397 h 0.0"></path><path d="M 413.5 397 h 0.0"></path><rect height="22" width="130.5" x="283.0" y="386"></rect><text x="348.25" y="401">NoteCharEmbed</text></g><path d="M 413.5 397 a 10 10 0 0 0 10 -10 v -10 a 10 10 0 0 1 10 -10"></path><path d="M 263.0 367 a 10 10 0 0 1 10 10 v 40 a 10 10 0 0 0 10 10"></path><g class="non-terminal ">
<path d="M 283.0 427 h 17.0"></path><path d="M 396.5 427 h 17.0"></path><rect height="22" width="96.5" x="300.0" y="416"></rect><text x="348.25" y="431">Reference</text></g><path d="M 413.5 427 a 10 10 0 0 0 10 -10 v -40 a 10 10 0 0 1 10 -10"></path></g><path d="M 433.5 367 h 10"></path><path d="M 263.0 367 a 10 10 0 0 0 -10 10 v 69 a 10 10 0 0 0 10 10"></path><g>
<path d="M 263.0 456 h 170.5"></path></g><path d="M 433.5 456 a 10 10 0 0 0 10 -10 v -69 a 10 10 0 0 0 -10 -10"></path></g><path d="M 443.5 367 h 20"></path></g><path d="M 535.5 367 h 20"></path></g></g></g><path d="M 555.5 367 h 10"></path><path d="M 565.5 367 h 20 m 0 -10 v 20"></path></g></svg>