<svg class="railroad-diagram" height="178" viewBox="0 0 1110.0 178" width="1110.0" xmlns="http://www.w3.org/2000/svg" xmlns:xlink="http://www.w3.org/1999/xlink">
<g transform="translate(.5 .5)">
<style>/* <![CDATA[ */

    svg.railroad-diagram {
        background-color: hsl(30,20%,95%);
    }
    svg.railroad-diagram path {
        stroke-width: 2;
        stroke: black;
        fill: none;
    }
    svg.railroad-diagram text {
        font-size: 12px;
        text-anchor: middle;
        font-family: DejaVu Sans;
    }
    svg.railroad-diagram text.label {
        text-anchor:start;
    }
    svg.railroad-diagram text.comment {
        font-family: DejaVu Sans;
        font-size: 14px;
    }
    svg.railroad-diagram rect{
        stroke-width: 2;
        stroke: black;
        fill: rgb(210, 255, 210);
    }
    svg.railroad-diagram rect.group-box {
        stroke: gray;
        stroke-dasharray: 10 5;
        fill: none;
    }
    .terminal {
        font-family: DejaVu Sans;
    }
    svg.railroad-diagram g.altterminal rect {
        fill: rgb(251, 252, 207)
    }

/* ]]> */
</style><g>
<path d="M 20 49 v 20 m 0 -10 h 20"></path></g><path d="M 40 59 h 10"></path><g>
<path d="M 50 59 h 0.0"></path><path d="M 1060.0 59 h 0.0"></path><g class="terminal ">
<path d="M 50.0 59 h 0.0"></path><path d="M 104.0 59 h 0.0"></path><rect height="22" rx="10" ry="10" width="54.0" x="50.0" y="48"></rect><text x="77.0" y="63">'\\'</text></g><path d="M 104.0 59 h 10"></path><path d="M 114.0 59 h 10"></path><g>
<path d="M 124.0 59 h 0.0"></path><path d="M 410.5 59 h 0.0"></path><rect class="group-box" height="38" rx="10" ry="10" width="286.5" x="124.0" y="40"></rect><g>
<path d="M 124.0 59 h 10.0"></path><path d="M 400.5 59 h 10.0"></path><g class="non-terminal ">
<path d="M 134.0 59 h 0.0"></path><path d="M 400.5 59 h 0.0"></path><rect height="22" width="266.5" x="134.0" y="48"></rect><text x="267.25" y="63">FootnoteChars.char.style.enum</text></g></g><g class="non-terminal ">
<path d="M 124.0 32 h 0.0"></path><path d="M 141.0 32 h 0.0"></path><text class="comment" x="132.5" y="37">➋</text></g></g><path d="M 410.5 59 h 10"></path><path d="M 420.5 59 h 10"></path><g>
<path d="M 430.5 59 h 0.0"></path><path d="M 541.5 59 h 0.0"></path><path d="M 430.5 59 h 20"></path><g class="terminal ">
<path d="M 450.5 59 h 12.75"></path><path d="M 508.75 59 h 12.75"></path><rect height="22" rx="10" ry="10" width="45.5" x="463.25" y="48"></rect><text x="486.0" y="63">' '</text></g><path d="M 521.5 59 h 20"></path><path d="M 430.5 59 a 10 10 0 0 1 10 10 v 10 a 10 10 0 0 0 10 10"></path><g class="terminal altterminal">
<path d="M 450.5 89 h 0.0"></path><path d="M 521.5 89 h 0.0"></path><rect height="22" rx="10" ry="10" width="71.0" x="450.5" y="78"></rect><text x="486.0" y="93">TAGEND</text></g><path d="M 521.5 89 a 10 10 0 0 0 10 -10 v -10 a 10 10 0 0 1 10 -10"></path></g><path d="M 541.5 59 h 10"></path><path d="M 551.5 59 h 10"></path><g>
<path d="M 561.5 59 h 0.0"></path><path d="M 815.0 59 h 0.0"></path><path d="M 561.5 59 a 10 10 0 0 0 10 -10 v -9 a 10 10 0 0 1 10 -10"></path><g>
<path d="M 581.5 30 h 213.5"></path></g><path d="M 795.0 30 a 10 10 0 0 1 10 10 v 9 a 10 10 0 0 0 10 10"></path><path d="M 561.5 59 h 20"></path><g>
<path d="M 581.5 59 h 0.0"></path><path d="M 795.0 59 h 0.0"></path><path d="M 581.5 59 h 10"></path><g>
<path d="M 591.5 59 h 0.0"></path><path d="M 785.0 59 h 0.0"></path><path d="M 591.5 59 h 20"></path><g>
<path d="M 611.5 59 h 0.0"></path><path d="M 765.0 59 h 0.0"></path><g class="terminal ">
<path d="M 611.5 59 h 0.0"></path><path d="M 665.5 59 h 0.0"></path><rect height="22" rx="10" ry="10" width="54.0" x="611.5" y="48"></rect><text x="638.5" y="63">TEXT</text></g><path d="M 665.5 59 h 10"></path><path d="M 675.5 59 h 10"></path><g class="terminal ">
<path d="M 685.5 59 h 0.0"></path><path d="M 765.0 59 h 0.0"></path><rect height="22" rx="10" ry="10" width="79.5" x="685.5" y="48"></rect><text x="725.25" y="63">TEXTEND</text></g></g><path d="M 765.0 59 h 20"></path><path d="M 591.5 59 a 10 10 0 0 1 10 10 v 10 a 10 10 0 0 0 10 10"></path><g class="non-terminal ">
<path d="M 611.5 89 h 11.5"></path><path d="M 753.5 89 h 11.5"></path><rect height="22" width="130.5" x="623.0" y="78"></rect><text x="688.25" y="93">NoteCharEmbed</text></g><path d="M 765.0 89 a 10 10 0 0 0 10 -10 v -10 a 10 10 0 0 1 10 -10"></path><path d="M 591.5 59 a 10 10 0 0 1 10 10 v 40 a 10 10 0 0 0 10 10"></path><g class="non-terminal ">
<path d="M 611.5 119 h 28.5"></path><path d="M 736.5 119 h 28.5"></path><rect height="22" width="96.5" x="640.0" y="108"></rect><text x="688.25" y="123">Reference</text></g><path d="M 765.0 119 a 10 10 0 0 0 10 -10 v -40 a 10 10 0 0 1 10 -10"></path></g><path d="M 785.0 59 h 10"></path><path d="M 591.5 59 a 10 10 0 0 0 -10 10 v 69 a 10 10 0 0 0 10 10"></path><g>
<path d="M 591.5 148 h 193.5"></path></g><path d="M 785.0 148 a 10 10 0 0 0 10 -10 v -69 a 10 10 0 0 0 -10 -10"></path></g><path d="M 795.0 59 h 20"></path></g><path d="M 815.0 59 h 10"></path><path d="M 825.0 59 h 10"></path><g>
<path d="M 835.0 59 h 0.0"></path><path d="M 1060.0 59 h 0.0"></path><path d="M 835.0 59 h 20"></path><g>
<path d="M 855.0 59 h 185.0"></path></g><path d="M 1040.0 59 h 20"></path><path d="M 835.0 59 a 10 10 0 0 1 10 10 v 0 a 10 10 0 0 0 10 10"></path><g>
<path d="M 855.0 79 h 0.0"></path><path d="M 1040.0 79 h 0.0"></path><g class="terminal ">
<path d="M 855.0 79 h 0.0"></path><path d="M 909.0 79 h 0.0"></path><rect height="22" rx="10" ry="10" width="54.0" x="855.0" y="68"></rect><text x="882.0" y="83">'\\'</text></g><path d="M 909.0 79 h 10"></path><path d="M 919.0 79 h 10"></path><g class="terminal ">
<path d="M 929.0 79 h 0.0"></path><path d="M 974.5 79 h 0.0"></path><rect height="22" rx="10" ry="10" width="45.5" x="929.0" y="68"></rect><text x="951.75" y="83">⇐ ➋</text></g><path d="M 974.5 79 h 10"></path><path d="M 984.5 79 h 10"></path><g class="terminal ">
<path d="M 994.5 79 h 0.0"></path><path d="M 1040.0 79 h 0.0"></path><rect height="22" rx="10" ry="10" width="45.5" x="994.5" y="68"></rect><text x="1017.25" y="83">'&#42;'</text></g></g><path d="M 1040.0 79 a 10 10 0 0 0 10 -10 v 0 a 10 10 0 0 1 10 -10"></path></g></g><path d="M 1060.0 59 h 10"></path><path d="M 1070.0 59 h 20 m 0 -10 v 20"></path></g></svg>