<svg class="railroad-diagram" height="332" viewBox="0 0 1137.0 332" width="1137.0" xmlns="http://www.w3.org/2000/svg" xmlns:xlink="http://www.w3.org/1999/xlink">
<g transform="translate(.5 .5)">
<style>/* <![CDATA[ */

    svg.railroad-diagram {
        background-color: hsl(30,20%,95%);
    }
    svg.railroad-diagram path {
        stroke-width: 2;
        stroke: black;
        fill: none;
    }
    svg.railroad-diagram text {
        font-size: 12px;
        text-anchor: middle;
        font-family: DejaVu Sans;
    }
    svg.railroad-diagram text.label {
        text-anchor:start;
    }
    svg.railroad-diagram text.comment {
        font-family: DejaVu Sans;
        font-size: 14px;
    }
    svg.railroad-diagram rect{
        stroke-width: 2;
        stroke: black;
        fill: rgb(210, 255, 210);
    }
    svg.railroad-diagram rect.group-box {
        stroke: gray;
        stroke-dasharray: 10 5;
        fill: none;
    }
    .terminal {
        font-family: DejaVu Sans;
    }
    svg.railroad-diagram g.altterminal rect {
        fill: rgb(251, 252, 207)
    }

/* ]]> */
</style><g>
<path d="M 20 153 v 20 m 0 -10 h 20"></path></g><path d="M 40 163 h 10"></path><g>
<path d="M 50 163 h 0.0"></path><path d="M 1087.0 163 h 0.0"></path><g class="terminal ">
<path d="M 50.0 163 h 0.0"></path><path d="M 104.0 163 h 0.0"></path><rect height="22" rx="10" ry="10" width="54.0" x="50.0" y="152"></rect><text x="77.0" y="167">'\\'</text></g><path d="M 104.0 163 h 10"></path><path d="M 114.0 163 h 10"></path><g>
<path d="M 124.0 163 h 0.0"></path><path d="M 437.5 163 h 0.0"></path><rect class="group-box" height="276" rx="10" ry="10" width="313.5" x="124.0" y="36"></rect><g>
<path d="M 124.0 163 h 10.0"></path><path d="M 427.5 163 h 10.0"></path><g>
<path d="M 134.0 163 h 0.0"></path><path d="M 427.5 163 h 0.0"></path><path d="M 134.0 163 a 10 10 0 0 0 10 -10 v -99 a 10 10 0 0 1 10 -10 h 112.5"></path><path d="M 286.5 222 h 121.0 a 10 10 0 0 0 10 -10 v -39 a 10 10 0 0 1 10 -10"></path><path d="M 134.0 163 h 10"></path><g>
<path d="M 144.0 163 h 10.0"></path><path d="M 256.5 163 h 10.0"></path><path d="M 154.0 163 a 10 10 0 0 0 10 -10 v -10 a 10 10 0 0 1 10 -10"></path><g class="terminal ">
<path d="M 174.0 133 h 4.25"></path><path d="M 232.25 133 h 4.25"></path><rect height="22" rx="10" ry="10" width="54.0" x="178.25" y="122"></rect><text x="205.25" y="137">"fk"</text></g><path d="M 236.5 133 a 10 10 0 0 1 10 10 v 10 a 10 10 0 0 0 10 10"></path><path d="M 154.0 163 a 10 10 0 0 0 10 -10 v -40 a 10 10 0 0 1 10 -10"></path><g class="terminal ">
<path d="M 174.0 103 h 4.25"></path><path d="M 232.25 103 h 4.25"></path><rect height="22" rx="10" ry="10" width="54.0" x="178.25" y="92"></rect><text x="205.25" y="107">"ft"</text></g><path d="M 236.5 103 a 10 10 0 0 1 10 10 v 40 a 10 10 0 0 0 10 10"></path><path d="M 154.0 163 a 10 10 0 0 0 10 -10 v -70 a 10 10 0 0 1 10 -10"></path><g class="terminal ">
<path d="M 174.0 73 h 4.25"></path><path d="M 232.25 73 h 4.25"></path><rect height="22" rx="10" ry="10" width="54.0" x="178.25" y="62"></rect><text x="205.25" y="77">"fr"</text></g><path d="M 236.5 73 a 10 10 0 0 1 10 10 v 70 a 10 10 0 0 0 10 10"></path><path d="M 154.0 163 h 20"></path><g class="terminal ">
<path d="M 174.0 163 h 0.0"></path><path d="M 236.5 163 h 0.0"></path><rect height="22" rx="10" ry="10" width="62.5" x="174.0" y="152"></rect><text x="205.25" y="167">"fqa"</text></g><path d="M 236.5 163 h 20"></path><path d="M 154.0 163 a 10 10 0 0 1 10 10 v 10 a 10 10 0 0 0 10 10"></path><g class="terminal ">
<path d="M 174.0 193 h 4.25"></path><path d="M 232.25 193 h 4.25"></path><rect height="22" rx="10" ry="10" width="54.0" x="178.25" y="182"></rect><text x="205.25" y="197">"fq"</text></g><path d="M 236.5 193 a 10 10 0 0 0 10 -10 v -10 a 10 10 0 0 1 10 -10"></path><path d="M 154.0 163 a 10 10 0 0 1 10 10 v 40 a 10 10 0 0 0 10 10"></path><g class="terminal ">
<path d="M 174.0 223 h 4.25"></path><path d="M 232.25 223 h 4.25"></path><rect height="22" rx="10" ry="10" width="54.0" x="178.25" y="212"></rect><text x="205.25" y="227">"fl"</text></g><path d="M 236.5 223 a 10 10 0 0 0 10 -10 v -40 a 10 10 0 0 1 10 -10"></path><path d="M 154.0 163 a 10 10 0 0 1 10 10 v 70 a 10 10 0 0 0 10 10"></path><g class="terminal ">
<path d="M 174.0 253 h 4.25"></path><path d="M 232.25 253 h 4.25"></path><rect height="22" rx="10" ry="10" width="54.0" x="178.25" y="242"></rect><text x="205.25" y="257">"fw"</text></g><path d="M 236.5 253 a 10 10 0 0 0 10 -10 v -70 a 10 10 0 0 1 10 -10"></path><path d="M 154.0 163 a 10 10 0 0 1 10 10 v 100 a 10 10 0 0 0 10 10"></path><g class="terminal ">
<path d="M 174.0 283 h 0.0"></path><path d="M 236.5 283 h 0.0"></path><rect height="22" rx="10" ry="10" width="62.5" x="174.0" y="272"></rect><text x="205.25" y="287">"fdc"</text></g><path d="M 236.5 283 a 10 10 0 0 0 10 -10 v -100 a 10 10 0 0 1 10 -10"></path></g><path d="M 266.5 163 a 10 10 0 0 1 10 10 v 39 a 10 10 0 0 0 10 10"></path><path d="M 266.5 44 a 10 10 0 0 1 10 10 v 99 a 10 10 0 0 0 10 10"></path><g>
<path d="M 286.5 163 h 10.0"></path><path d="M 407.5 163 h 10.0"></path><path d="M 296.5 163 a 10 10 0 0 0 10 -10 v -10 a 10 10 0 0 1 10 -10"></path><g class="terminal ">
<path d="M 316.5 133 h 8.5"></path><path d="M 379.0 133 h 8.5"></path><rect height="22" rx="10" ry="10" width="54.0" x="325.0" y="122"></rect><text x="352.0" y="137">"bd"</text></g><path d="M 387.5 133 a 10 10 0 0 1 10 10 v 10 a 10 10 0 0 0 10 10"></path><path d="M 296.5 163 a 10 10 0 0 0 10 -10 v -40 a 10 10 0 0 1 10 -10"></path><g class="terminal ">
<path d="M 316.5 103 h 0.0"></path><path d="M 387.5 103 h 0.0"></path><rect height="22" rx="10" ry="10" width="71.0" x="316.5" y="92"></rect><text x="352.0" y="107">"bdit"</text></g><path d="M 387.5 103 a 10 10 0 0 1 10 10 v 40 a 10 10 0 0 0 10 10"></path><path d="M 296.5 163 a 10 10 0 0 0 10 -10 v -70 a 10 10 0 0 1 10 -10"></path><g class="terminal ">
<path d="M 316.5 73 h 8.5"></path><path d="M 379.0 73 h 8.5"></path><rect height="22" rx="10" ry="10" width="54.0" x="325.0" y="62"></rect><text x="352.0" y="77">"it"</text></g><path d="M 387.5 73 a 10 10 0 0 1 10 10 v 70 a 10 10 0 0 0 10 10"></path><path d="M 296.5 163 h 20"></path><g class="terminal ">
<path d="M 316.5 163 h 8.5"></path><path d="M 379.0 163 h 8.5"></path><rect height="22" rx="10" ry="10" width="54.0" x="325.0" y="152"></rect><text x="352.0" y="167">"em"</text></g><path d="M 387.5 163 h 20"></path><path d="M 296.5 163 a 10 10 0 0 1 10 10 v 10 a 10 10 0 0 0 10 10"></path><g class="terminal ">
<path d="M 316.5 193 h 8.5"></path><path d="M 379.0 193 h 8.5"></path><rect height="22" rx="10" ry="10" width="54.0" x="325.0" y="182"></rect><text x="352.0" y="197">"sc"</text></g><path d="M 387.5 193 a 10 10 0 0 0 10 -10 v -10 a 10 10 0 0 1 10 -10"></path></g><path d="M 417.5 163 h 10"></path></g></g><g class="non-terminal ">
<path d="M 124.0 28 h 0.0"></path><path d="M 141.0 28 h 0.0"></path><text class="comment" x="132.5" y="33">➋</text></g></g><path d="M 437.5 163 h 10"></path><path d="M 447.5 163 h 10"></path><g>
<path d="M 457.5 163 h 0.0"></path><path d="M 568.5 163 h 0.0"></path><path d="M 457.5 163 h 20"></path><g class="terminal ">
<path d="M 477.5 163 h 12.75"></path><path d="M 535.75 163 h 12.75"></path><rect height="22" rx="10" ry="10" width="45.5" x="490.25" y="152"></rect><text x="513.0" y="167">' '</text></g><path d="M 548.5 163 h 20"></path><path d="M 457.5 163 a 10 10 0 0 1 10 10 v 10 a 10 10 0 0 0 10 10"></path><g class="terminal altterminal">
<path d="M 477.5 193 h 0.0"></path><path d="M 548.5 193 h 0.0"></path><rect height="22" rx="10" ry="10" width="71.0" x="477.5" y="182"></rect><text x="513.0" y="197">TAGEND</text></g><path d="M 548.5 193 a 10 10 0 0 0 10 -10 v -10 a 10 10 0 0 1 10 -10"></path></g><path d="M 568.5 163 h 10"></path><path d="M 578.5 163 h 10"></path><g>
<path d="M 588.5 163 h 0.0"></path><path d="M 842.0 163 h 0.0"></path><path d="M 588.5 163 a 10 10 0 0 0 10 -10 v -9 a 10 10 0 0 1 10 -10"></path><g>
<path d="M 608.5 134 h 213.5"></path></g><path d="M 822.0 134 a 10 10 0 0 1 10 10 v 9 a 10 10 0 0 0 10 10"></path><path d="M 588.5 163 h 20"></path><g>
<path d="M 608.5 163 h 0.0"></path><path d="M 822.0 163 h 0.0"></path><path d="M 608.5 163 h 10"></path><g>
<path d="M 618.5 163 h 0.0"></path><path d="M 812.0 163 h 0.0"></path><path d="M 618.5 163 h 20"></path><g>
<path d="M 638.5 163 h 0.0"></path><path d="M 792.0 163 h 0.0"></path><g class="terminal ">
<path d="M 638.5 163 h 0.0"></path><path d="M 692.5 163 h 0.0"></path><rect height="22" rx="10" ry="10" width="54.0" x="638.5" y="152"></rect><text x="665.5" y="167">TEXT</text></g><path d="M 692.5 163 h 10"></path><path d="M 702.5 163 h 10"></path><g class="terminal ">
<path d="M 712.5 163 h 0.0"></path><path d="M 792.0 163 h 0.0"></path><rect height="22" rx="10" ry="10" width="79.5" x="712.5" y="152"></rect><text x="752.25" y="167">TEXTEND</text></g></g><path d="M 792.0 163 h 20"></path><path d="M 618.5 163 a 10 10 0 0 1 10 10 v 10 a 10 10 0 0 0 10 10"></path><g class="non-terminal ">
<path d="M 638.5 193 h 11.5"></path><path d="M 780.5 193 h 11.5"></path><rect height="22" width="130.5" x="650.0" y="182"></rect><text x="715.25" y="197">NoteCharEmbed</text></g><path d="M 792.0 193 a 10 10 0 0 0 10 -10 v -10 a 10 10 0 0 1 10 -10"></path><path d="M 618.5 163 a 10 10 0 0 1 10 10 v 40 a 10 10 0 0 0 10 10"></path><g class="non-terminal ">
<path d="M 638.5 223 h 28.5"></path><path d="M 763.5 223 h 28.5"></path><rect height="22" width="96.5" x="667.0" y="212"></rect><text x="715.25" y="227">Reference</text></g><path d="M 792.0 223 a 10 10 0 0 0 10 -10 v -40 a 10 10 0 0 1 10 -10"></path></g><path d="M 812.0 163 h 10"></path><path d="M 618.5 163 a 10 10 0 0 0 -10 10 v 69 a 10 10 0 0 0 10 10"></path><g>
<path d="M 618.5 252 h 193.5"></path></g><path d="M 812.0 252 a 10 10 0 0 0 10 -10 v -69 a 10 10 0 0 0 -10 -10"></path></g><path d="M 822.0 163 h 20"></path></g><path d="M 842.0 163 h 10"></path><path d="M 852.0 163 h 10"></path><g>
<path d="M 862.0 163 h 0.0"></path><path d="M 1087.0 163 h 0.0"></path><path d="M 862.0 163 h 20"></path><g>
<path d="M 882.0 163 h 185.0"></path></g><path d="M 1067.0 163 h 20"></path><path d="M 862.0 163 a 10 10 0 0 1 10 10 v 0 a 10 10 0 0 0 10 10"></path><g>
<path d="M 882.0 183 h 0.0"></path><path d="M 1067.0 183 h 0.0"></path><g class="terminal ">
<path d="M 882.0 183 h 0.0"></path><path d="M 936.0 183 h 0.0"></path><rect height="22" rx="10" ry="10" width="54.0" x="882.0" y="172"></rect><text x="909.0" y="187">'\\'</text></g><path d="M 936.0 183 h 10"></path><path d="M 946.0 183 h 10"></path><g class="terminal ">
<path d="M 956.0 183 h 0.0"></path><path d="M 1001.5 183 h 0.0"></path><rect height="22" rx="10" ry="10" width="45.5" x="956.0" y="172"></rect><text x="978.75" y="187">⇐ ➋</text></g><path d="M 1001.5 183 h 10"></path><path d="M 1011.5 183 h 10"></path><g class="terminal ">
<path d="M 1021.5 183 h 0.0"></path><path d="M 1067.0 183 h 0.0"></path><rect height="22" rx="10" ry="10" width="45.5" x="1021.5" y="172"></rect><text x="1044.25" y="187">'&#42;'</text></g></g><path d="M 1067.0 183 a 10 10 0 0 0 10 -10 v 0 a 10 10 0 0 1 10 -10"></path></g></g><path d="M 1087.0 163 h 10"></path><path d="M 1097.0 163 h 20 m 0 -10 v 20"></path></g></svg>