<svg class="railroad-diagram" height="543" viewBox="0 0 1178.5 543" width="1178.5" xmlns="http://www.w3.org/2000/svg" xmlns:xlink="http://www.w3.org/1999/xlink">
<g transform="translate(.5 .5)">
<style>/* <![CDATA[ */

    svg.railroad-diagram {
        background-color: hsl(30,20%,95%);
    }
    svg.railroad-diagram path {
        stroke-width: 2;
        stroke: black;
        fill: none;
    }
    svg.railroad-diagram text {
        font-size: 12px;
        text-anchor: middle;
        font-family: DejaVu Sans;
    }
    svg.railroad-diagram text.label {
        text-anchor:start;
    }
    svg.railroad-diagram text.comment {
        font-family: DejaVu Sans;
        font-size: 14px;
    }
    svg.railroad-diagram rect{
        stroke-width: 2;
        stroke: black;
        fill: rgb(210, 255, 210);
    }
    svg.railroad-diagram rect.group-box {
        stroke: gray;
        stroke-dasharray: 10 5;
        fill: none;
    }
    .terminal {
        font-family: DejaVu Sans;
    }
    svg.railroad-diagram g.altterminal rect {
        fill: rgb(251, 252, 207)
    }

/* ]]> */
</style><g>
<path d="M 20 55 v 20 m 0 -10 h 20"></path></g><path d="M 40 65 h 10"></path><g>
<path d="M 50 65 h 0.0"></path><path d="M 1128.5 408 h 0.0"></path><g>
<path d="M 50.0 65 h 0.0"></path><path d="M 1128.5 408 h 0.0"></path><path d="M 50.0 65 h 20"></path><g>
<path d="M 70.0 65 h 180.75"></path><path d="M 250.75 65 h 10"></path><g>
<path d="M 260.75 65 h 10.0"></path><path d="M 907.75 65 h 10.0"></path><g class="terminal ">
<path d="M 270.75 65 h 0.0"></path><path d="M 324.75 65 h 0.0"></path><rect height="22" rx="10" ry="10" width="54.0" x="270.75" y="54"></rect><text x="297.75" y="69">'\\'</text></g><path d="M 324.75 65 h 10"></path><path d="M 334.75 65 h 10"></path><g>
<path d="M 344.75 65 h 0.0"></path><path d="M 427.25 65 h 0.0"></path><rect class="group-box" height="38" rx="10" ry="10" width="82.5" x="344.75" y="46"></rect><g>
<path d="M 344.75 65 h 10.0"></path><path d="M 417.25 65 h 10.0"></path><g class="terminal ">
<path d="M 354.75 65 h 0.0"></path><path d="M 417.25 65 h 0.0"></path><rect height="22" rx="10" ry="10" width="62.5" x="354.75" y="54"></rect><text x="386.0" y="69">"fig"</text></g></g><g class="non-terminal ">
<path d="M 344.75 38 h 0.0"></path><path d="M 361.75 38 h 0.0"></path><text class="comment" x="353.25" y="43">➋</text></g></g><path d="M 427.25 65 h 10"></path><path d="M 437.25 65 h 10"></path><g>
<path d="M 447.25 65 h 0.0"></path><path d="M 558.25 65 h 0.0"></path><path d="M 447.25 65 h 20"></path><g class="terminal ">
<path d="M 467.25 65 h 12.75"></path><path d="M 525.5 65 h 12.75"></path><rect height="22" rx="10" ry="10" width="45.5" x="480.0" y="54"></rect><text x="502.75" y="69">' '</text></g><path d="M 538.25 65 h 20"></path><path d="M 447.25 65 a 10 10 0 0 1 10 10 v 10 a 10 10 0 0 0 10 10"></path><g class="terminal altterminal">
<path d="M 467.25 95 h 0.0"></path><path d="M 538.25 95 h 0.0"></path><rect height="22" rx="10" ry="10" width="71.0" x="467.25" y="84"></rect><text x="502.75" y="99">TAGEND</text></g><path d="M 538.25 95 a 10 10 0 0 0 10 -10 v -10 a 10 10 0 0 1 10 -10"></path></g><path d="M 558.25 65 h 10"></path><path d="M 568.25 65 h 10"></path><g>
<path d="M 578.25 65 h 0.0"></path><path d="M 731.75 65 h 0.0"></path><path d="M 578.25 65 h 20"></path><g>
<path d="M 598.25 65 h 113.5"></path></g><path d="M 711.75 65 h 20"></path><path d="M 578.25 65 a 10 10 0 0 1 10 10 v 0 a 10 10 0 0 0 10 10"></path><g class="non-terminal ">
<path d="M 598.25 85 h 0.0"></path><path d="M 711.75 85 h 0.0"></path><rect height="22" width="113.5" x="598.25" y="74"></rect><text x="655.0" y="89">char.closed</text></g><path d="M 711.75 85 a 10 10 0 0 0 10 -10 v 0 a 10 10 0 0 1 10 -10"></path></g><path d="M 731.75 65 h 10"></path><path d="M 741.75 65 h 10"></path><g class="terminal ">
<path d="M 751.75 65 h 0.0"></path><path d="M 907.75 65 h 0.0"></path><rect height="22" rx="10" ry="10" width="156.0" x="751.75" y="54"></rect><text x="829.75" y="69">TEXTNOTATTRIBOPT</text></g></g><path d="M 917.75 65 a 10 10 0 0 1 10 10 v 39 a 10 10 0 0 1 -10 10 h -657.0 a 10 10 0 0 0 -10 10 v 9 a 10 10 0 0 0 10 10"></path><g>
<path d="M 260.75 153 h 48.5"></path><path d="M 869.25 153 h 48.5"></path><g>
<path d="M 309.25 153 h 0.0"></path><path d="M 403.25 153 h 0.0"></path><path d="M 309.25 153 h 20"></path><g class="terminal ">
<path d="M 329.25 153 h 12.75"></path><path d="M 370.5 153 h 12.75"></path><rect height="22" rx="10" ry="10" width="28.5" x="342.0" y="142"></rect><text x="356.25" y="157">|</text></g><path d="M 383.25 153 h 20"></path><path d="M 309.25 153 a 10 10 0 0 1 10 10 v 10 a 10 10 0 0 0 10 10"></path><g class="terminal altterminal">
<path d="M 329.25 183 h 0.0"></path><path d="M 383.25 183 h 0.0"></path><rect height="22" rx="10" ry="10" width="54.0" x="329.25" y="172"></rect><text x="356.25" y="187">PIPE</text></g><path d="M 383.25 183 a 10 10 0 0 0 10 -10 v -10 a 10 10 0 0 1 10 -10"></path></g><path d="M 403.25 153 h 10"></path><path d="M 413.25 153 h 10"></path><g class="terminal ">
<path d="M 423.25 153 h 0.0"></path><path d="M 579.25 153 h 0.0"></path><rect height="22" rx="10" ry="10" width="156.0" x="423.25" y="142"></rect><text x="501.25" y="157">TEXTNOTATTRIBOPT</text></g><path d="M 579.25 153 h 10"></path><path d="M 589.25 153 h 10"></path><g>
<path d="M 599.25 153 h 0.0"></path><path d="M 693.25 153 h 0.0"></path><path d="M 599.25 153 h 20"></path><g class="terminal ">
<path d="M 619.25 153 h 12.75"></path><path d="M 660.5 153 h 12.75"></path><rect height="22" rx="10" ry="10" width="28.5" x="632.0" y="142"></rect><text x="646.25" y="157">|</text></g><path d="M 673.25 153 h 20"></path><path d="M 599.25 153 a 10 10 0 0 1 10 10 v 10 a 10 10 0 0 0 10 10"></path><g class="terminal altterminal">
<path d="M 619.25 183 h 0.0"></path><path d="M 673.25 183 h 0.0"></path><rect height="22" rx="10" ry="10" width="54.0" x="619.25" y="172"></rect><text x="646.25" y="187">PIPE</text></g><path d="M 673.25 183 a 10 10 0 0 0 10 -10 v -10 a 10 10 0 0 1 10 -10"></path></g><path d="M 693.25 153 h 10"></path><path d="M 703.25 153 h 10"></path><g class="terminal ">
<path d="M 713.25 153 h 0.0"></path><path d="M 869.25 153 h 0.0"></path><rect height="22" rx="10" ry="10" width="156.0" x="713.25" y="142"></rect><text x="791.25" y="157">TEXTNOTATTRIBOPT</text></g></g><path d="M 917.75 153 a 10 10 0 0 1 10 10 v 39 a 10 10 0 0 1 -10 10 h -657.0 a 10 10 0 0 0 -10 10 v 9 a 10 10 0 0 0 10 10"></path><g>
<path d="M 260.75 241 h 48.5"></path><path d="M 869.25 241 h 48.5"></path><g>
<path d="M 309.25 241 h 0.0"></path><path d="M 403.25 241 h 0.0"></path><path d="M 309.25 241 h 20"></path><g class="terminal ">
<path d="M 329.25 241 h 12.75"></path><path d="M 370.5 241 h 12.75"></path><rect height="22" rx="10" ry="10" width="28.5" x="342.0" y="230"></rect><text x="356.25" y="245">|</text></g><path d="M 383.25 241 h 20"></path><path d="M 309.25 241 a 10 10 0 0 1 10 10 v 10 a 10 10 0 0 0 10 10"></path><g class="terminal altterminal">
<path d="M 329.25 271 h 0.0"></path><path d="M 383.25 271 h 0.0"></path><rect height="22" rx="10" ry="10" width="54.0" x="329.25" y="260"></rect><text x="356.25" y="275">PIPE</text></g><path d="M 383.25 271 a 10 10 0 0 0 10 -10 v -10 a 10 10 0 0 1 10 -10"></path></g><path d="M 403.25 241 h 10"></path><path d="M 413.25 241 h 10"></path><g class="terminal ">
<path d="M 423.25 241 h 0.0"></path><path d="M 579.25 241 h 0.0"></path><rect height="22" rx="10" ry="10" width="156.0" x="423.25" y="230"></rect><text x="501.25" y="245">TEXTNOTATTRIBOPT</text></g><path d="M 579.25 241 h 10"></path><path d="M 589.25 241 h 10"></path><g>
<path d="M 599.25 241 h 0.0"></path><path d="M 693.25 241 h 0.0"></path><path d="M 599.25 241 h 20"></path><g class="terminal ">
<path d="M 619.25 241 h 12.75"></path><path d="M 660.5 241 h 12.75"></path><rect height="22" rx="10" ry="10" width="28.5" x="632.0" y="230"></rect><text x="646.25" y="245">|</text></g><path d="M 673.25 241 h 20"></path><path d="M 599.25 241 a 10 10 0 0 1 10 10 v 10 a 10 10 0 0 0 10 10"></path><g class="terminal altterminal">
<path d="M 619.25 271 h 0.0"></path><path d="M 673.25 271 h 0.0"></path><rect height="22" rx="10" ry="10" width="54.0" x="619.25" y="260"></rect><text x="646.25" y="275">PIPE</text></g><path d="M 673.25 271 a 10 10 0 0 0 10 -10 v -10 a 10 10 0 0 1 10 -10"></path></g><path d="M 693.25 241 h 10"></path><path d="M 703.25 241 h 10"></path><g class="terminal ">
<path d="M 713.25 241 h 0.0"></path><path d="M 869.25 241 h 0.0"></path><rect height="22" rx="10" ry="10" width="156.0" x="713.25" y="230"></rect><text x="791.25" y="245">TEXTNOTATTRIBOPT</text></g></g><path d="M 917.75 241 a 10 10 0 0 1 10 10 v 39 a 10 10 0 0 1 -10 10 h -657.0 a 10 10 0 0 0 -10 10 v 9 a 10 10 0 0 0 10 10"></path><g>
<path d="M 260.75 329 h 48.5"></path><path d="M 869.25 329 h 48.5"></path><g>
<path d="M 309.25 329 h 0.0"></path><path d="M 403.25 329 h 0.0"></path><path d="M 309.25 329 h 20"></path><g class="terminal ">
<path d="M 329.25 329 h 12.75"></path><path d="M 370.5 329 h 12.75"></path><rect height="22" rx="10" ry="10" width="28.5" x="342.0" y="318"></rect><text x="356.25" y="333">|</text></g><path d="M 383.25 329 h 20"></path><path d="M 309.25 329 a 10 10 0 0 1 10 10 v 10 a 10 10 0 0 0 10 10"></path><g class="terminal altterminal">
<path d="M 329.25 359 h 0.0"></path><path d="M 383.25 359 h 0.0"></path><rect height="22" rx="10" ry="10" width="54.0" x="329.25" y="348"></rect><text x="356.25" y="363">PIPE</text></g><path d="M 383.25 359 a 10 10 0 0 0 10 -10 v -10 a 10 10 0 0 1 10 -10"></path></g><path d="M 403.25 329 h 10"></path><path d="M 413.25 329 h 10"></path><g class="terminal ">
<path d="M 423.25 329 h 0.0"></path><path d="M 579.25 329 h 0.0"></path><rect height="22" rx="10" ry="10" width="156.0" x="423.25" y="318"></rect><text x="501.25" y="333">TEXTNOTATTRIBOPT</text></g><path d="M 579.25 329 h 10"></path><path d="M 589.25 329 h 10"></path><g>
<path d="M 599.25 329 h 0.0"></path><path d="M 693.25 329 h 0.0"></path><path d="M 599.25 329 h 20"></path><g class="terminal ">
<path d="M 619.25 329 h 12.75"></path><path d="M 660.5 329 h 12.75"></path><rect height="22" rx="10" ry="10" width="28.5" x="632.0" y="318"></rect><text x="646.25" y="333">|</text></g><path d="M 673.25 329 h 20"></path><path d="M 599.25 329 a 10 10 0 0 1 10 10 v 10 a 10 10 0 0 0 10 10"></path><g class="terminal altterminal">
<path d="M 619.25 359 h 0.0"></path><path d="M 673.25 359 h 0.0"></path><rect height="22" rx="10" ry="10" width="54.0" x="619.25" y="348"></rect><text x="646.25" y="363">PIPE</text></g><path d="M 673.25 359 a 10 10 0 0 0 10 -10 v -10 a 10 10 0 0 1 10 -10"></path></g><path d="M 693.25 329 h 10"></path><path d="M 703.25 329 h 10"></path><g class="terminal ">
<path d="M 713.25 329 h 0.0"></path><path d="M 869.25 329 h 0.0"></path><rect height="22" rx="10" ry="10" width="156.0" x="713.25" y="318"></rect><text x="791.25" y="333">TEXTNOTATTRIBOPT</text></g></g><path d="M 917.75 329 a 10 10 0 0 1 10 10 v 39 a 10 10 0 0 1 -10 10 h -657.0 a 10 10 0 0 0 -10 10 v 0 a 10 10 0 0 0 10 10"></path><g>
<path d="M 260.75 408 h 236.0"></path><path d="M 681.75 408 h 236.0"></path><g class="terminal ">
<path d="M 496.75 408 h 0.0"></path><path d="M 550.75 408 h 0.0"></path><rect height="22" rx="10" ry="10" width="54.0" x="496.75" y="397"></rect><text x="523.75" y="412">'\\'</text></g><path d="M 550.75 408 h 10"></path><path d="M 560.75 408 h 10"></path><g class="terminal ">
<path d="M 570.75 408 h 0.0"></path><path d="M 616.25 408 h 0.0"></path><rect height="22" rx="10" ry="10" width="45.5" x="570.75" y="397"></rect><text x="593.5" y="412">⇐ ➋</text></g><path d="M 616.25 408 h 10"></path><path d="M 626.25 408 h 10"></path><g class="terminal ">
<path d="M 636.25 408 h 0.0"></path><path d="M 681.75 408 h 0.0"></path><rect height="22" rx="10" ry="10" width="45.5" x="636.25" y="397"></rect><text x="659.0" y="412">'&#42;'</text></g></g><path d="M 917.75 408 h 10"></path><path d="M 927.75 408 h 180.75"></path></g><path d="M 1108.5 408 h 20"></path><path d="M 50.0 65 a 10 10 0 0 1 10 10 v 377 a 10 10 0 0 0 10 10"></path><g>
<path d="M 70.0 462 h 0.0"></path><path d="M 1108.5 462 h 0.0"></path><g class="terminal ">
<path d="M 70.0 462 h 0.0"></path><path d="M 124.0 462 h 0.0"></path><rect height="22" rx="10" ry="10" width="54.0" x="70.0" y="451"></rect><text x="97.0" y="466">'\\'</text></g><path d="M 124.0 462 h 10"></path><path d="M 134.0 462 h 10"></path><g>
<path d="M 144.0 462 h 0.0"></path><path d="M 226.5 462 h 0.0"></path><rect class="group-box" height="38" rx="10" ry="10" width="82.5" x="144.0" y="443"></rect><g>
<path d="M 144.0 462 h 10.0"></path><path d="M 216.5 462 h 10.0"></path><g class="terminal ">
<path d="M 154.0 462 h 0.0"></path><path d="M 216.5 462 h 0.0"></path><rect height="22" rx="10" ry="10" width="62.5" x="154.0" y="451"></rect><text x="185.25" y="466">"fig"</text></g></g><g class="non-terminal ">
<path d="M 144.0 435 h 0.0"></path><path d="M 161.0 435 h 0.0"></path><text class="comment" x="152.5" y="440">➌</text></g></g><path d="M 226.5 462 h 10"></path><path d="M 236.5 462 h 10"></path><g>
<path d="M 246.5 462 h 0.0"></path><path d="M 357.5 462 h 0.0"></path><path d="M 246.5 462 h 20"></path><g class="terminal ">
<path d="M 266.5 462 h 12.75"></path><path d="M 324.75 462 h 12.75"></path><rect height="22" rx="10" ry="10" width="45.5" x="279.25" y="451"></rect><text x="302.0" y="466">' '</text></g><path d="M 337.5 462 h 20"></path><path d="M 246.5 462 a 10 10 0 0 1 10 10 v 10 a 10 10 0 0 0 10 10"></path><g class="terminal altterminal">
<path d="M 266.5 492 h 0.0"></path><path d="M 337.5 492 h 0.0"></path><rect height="22" rx="10" ry="10" width="71.0" x="266.5" y="481"></rect><text x="302.0" y="496">TAGEND</text></g><path d="M 337.5 492 a 10 10 0 0 0 10 -10 v -10 a 10 10 0 0 1 10 -10"></path></g><path d="M 357.5 462 h 10"></path><path d="M 367.5 462 h 10"></path><g>
<path d="M 377.5 462 h 0.0"></path><path d="M 548.0 462 h 0.0"></path><g>
<path d="M 377.5 462 h 0.0"></path><path d="M 548.0 462 h 0.0"></path><path d="M 377.5 462 h 20"></path><g>
<path d="M 397.5 462 h 130.5"></path></g><path d="M 528.0 462 h 20"></path><path d="M 377.5 462 a 10 10 0 0 1 10 10 v 0 a 10 10 0 0 0 10 10"></path><g>
<path d="M 397.5 482 h 0.0"></path><path d="M 528.0 482 h 0.0"></path><g class="terminal ">
<path d="M 397.5 482 h 0.0"></path><path d="M 528.0 482 h 0.0"></path><rect height="22" rx="10" ry="10" width="130.5" x="397.5" y="471"></rect><text x="462.75" y="486">TEXTNOTATTRIB</text></g></g><path d="M 528.0 482 a 10 10 0 0 0 10 -10 v 0 a 10 10 0 0 1 10 -10"></path></g></g><path d="M 548.0 462 h 10"></path><path d="M 558.0 462 h 10"></path><g>
<path d="M 568.0 462 h 0.0"></path><path d="M 738.5 462 h 0.0"></path><path d="M 568.0 462 h 20"></path><g>
<path d="M 588.0 462 h 130.5"></path></g><path d="M 718.5 462 h 20"></path><path d="M 568.0 462 a 10 10 0 0 1 10 10 v 0 a 10 10 0 0 0 10 10"></path><g class="non-terminal ">
<path d="M 588.0 482 h 0.0"></path><path d="M 718.5 482 h 0.0"></path><rect height="22" width="130.5" x="588.0" y="471"></rect><text x="653.25" y="486">AttributesPre</text></g><path d="M 718.5 482 a 10 10 0 0 0 10 -10 v 0 a 10 10 0 0 1 10 -10"></path></g><path d="M 738.5 462 h 10"></path><path d="M 748.5 462 h 10"></path><g>
<path d="M 758.5 462 h 0.0"></path><path d="M 903.5 462 h 0.0"></path><path d="M 758.5 462 h 20"></path><g>
<path d="M 778.5 462 h 105.0"></path></g><path d="M 883.5 462 h 20"></path><path d="M 758.5 462 a 10 10 0 0 1 10 10 v 0 a 10 10 0 0 0 10 10"></path><g class="non-terminal ">
<path d="M 778.5 482 h 0.0"></path><path d="M 883.5 482 h 0.0"></path><rect height="22" width="105.0" x="778.5" y="471"></rect><text x="831.0" y="486">Attributes</text></g><path d="M 883.5 482 a 10 10 0 0 0 10 -10 v 0 a 10 10 0 0 1 10 -10"></path></g><path d="M 903.5 462 h 10"></path><path d="M 913.5 462 h 10"></path><g>
<path d="M 923.5 462 h 0.0"></path><path d="M 1108.5 462 h 0.0"></path><g class="terminal ">
<path d="M 923.5 462 h 0.0"></path><path d="M 977.5 462 h 0.0"></path><rect height="22" rx="10" ry="10" width="54.0" x="923.5" y="451"></rect><text x="950.5" y="466">'\\'</text></g><path d="M 977.5 462 h 10"></path><path d="M 987.5 462 h 10"></path><g class="terminal ">
<path d="M 997.5 462 h 0.0"></path><path d="M 1043.0 462 h 0.0"></path><rect height="22" rx="10" ry="10" width="45.5" x="997.5" y="451"></rect><text x="1020.25" y="466">⇐ ➌</text></g><path d="M 1043.0 462 h 10"></path><path d="M 1053.0 462 h 10"></path><g class="terminal ">
<path d="M 1063.0 462 h 0.0"></path><path d="M 1108.5 462 h 0.0"></path><rect height="22" rx="10" ry="10" width="45.5" x="1063.0" y="451"></rect><text x="1085.75" y="466">'&#42;'</text></g></g></g><path d="M 1108.5 462 a 10 10 0 0 0 10 -10 v -34 a 10 10 0 0 1 10 -10"></path></g></g><path d="M 1128.5 408 h 10"></path><path d="M 1138.5 408 h 20 m 0 -10 v 20"></path></g></svg>