<svg class="railroad-diagram" height="602" viewBox="0 0 1053.5 602" width="1053.5" xmlns="http://www.w3.org/2000/svg" xmlns:xlink="http://www.w3.org/1999/xlink">
<g transform="translate(.5 .5)">
<style>/* <![CDATA[ */

    svg.railroad-diagram {
        background-color: hsl(30,20%,95%);
    }
    svg.railroad-diagram path {
        stroke-width: 2;
        stroke: black;
        fill: none;
    }
    svg.railroad-diagram text {
        font-size: 12px;
        text-anchor: middle;
        font-family: DejaVu Sans;
    }
    svg.railroad-diagram text.label {
        text-anchor:start;
    }
    svg.railroad-diagram text.comment {
        font-family: DejaVu Sans;
        font-size: 14px;
    }
    svg.railroad-diagram rect{
        stroke-width: 2;
        stroke: black;
        fill: rgb(210, 255, 210);
    }
    svg.railroad-diagram rect.group-box {
        stroke: gray;
        stroke-dasharray: 10 5;
        fill: none;
    }
    .terminal {
        font-family: DejaVu Sans;
    }
    svg.railroad-diagram g.altterminal rect {
        fill: rgb(251, 252, 207)
    }

/* ]]> */
</style><g>
<path d="M 20 55 v 20 m 0 -10 h 20"></path></g><path d="M 40 65 h 10"></path><g>
<path d="M 50 65 h 0.0"></path><path d="M 1003.5 408 h 0.0"></path><g>
<path d="M 50.0 65 h 0.0"></path><path d="M 1003.5 408 h 0.0"></path><path d="M 50.0 65 h 20"></path><g>
<path d="M 70.0 65 h 118.25"></path><path d="M 188.25 65 h 10"></path><g>
<path d="M 198.25 65 h 10.0"></path><path d="M 845.25 65 h 10.0"></path><g class="terminal ">
<path d="M 208.25 65 h 0.0"></path><path d="M 262.25 65 h 0.0"></path><rect height="22" rx="10" ry="10" width="54.0" x="208.25" y="54"></rect><text x="235.25" y="69">'\\'</text></g><path d="M 262.25 65 h 10"></path><path d="M 272.25 65 h 10"></path><g>
<path d="M 282.25 65 h 0.0"></path><path d="M 364.75 65 h 0.0"></path><rect class="group-box" height="38" rx="10" ry="10" width="82.5" x="282.25" y="46"></rect><g>
<path d="M 282.25 65 h 10.0"></path><path d="M 354.75 65 h 10.0"></path><g class="terminal ">
<path d="M 292.25 65 h 0.0"></path><path d="M 354.75 65 h 0.0"></path><rect height="22" rx="10" ry="10" width="62.5" x="292.25" y="54"></rect><text x="323.5" y="69">"fig"</text></g></g><g class="non-terminal ">
<path d="M 282.25 38 h 0.0"></path><path d="M 299.25 38 h 0.0"></path><text class="comment" x="290.75" y="43">➋</text></g></g><path d="M 364.75 65 h 10"></path><path d="M 374.75 65 h 10"></path><g>
<path d="M 384.75 65 h 0.0"></path><path d="M 495.75 65 h 0.0"></path><path d="M 384.75 65 h 20"></path><g class="terminal ">
<path d="M 404.75 65 h 12.75"></path><path d="M 463.0 65 h 12.75"></path><rect height="22" rx="10" ry="10" width="45.5" x="417.5" y="54"></rect><text x="440.25" y="69">' '</text></g><path d="M 475.75 65 h 20"></path><path d="M 384.75 65 a 10 10 0 0 1 10 10 v 10 a 10 10 0 0 0 10 10"></path><g class="terminal altterminal">
<path d="M 404.75 95 h 0.0"></path><path d="M 475.75 95 h 0.0"></path><rect height="22" rx="10" ry="10" width="71.0" x="404.75" y="84"></rect><text x="440.25" y="99">TAGEND</text></g><path d="M 475.75 95 a 10 10 0 0 0 10 -10 v -10 a 10 10 0 0 1 10 -10"></path></g><path d="M 495.75 65 h 10"></path><path d="M 505.75 65 h 10"></path><g>
<path d="M 515.75 65 h 0.0"></path><path d="M 669.25 65 h 0.0"></path><path d="M 515.75 65 h 20"></path><g>
<path d="M 535.75 65 h 113.5"></path></g><path d="M 649.25 65 h 20"></path><path d="M 515.75 65 a 10 10 0 0 1 10 10 v 0 a 10 10 0 0 0 10 10"></path><g class="non-terminal ">
<path d="M 535.75 85 h 0.0"></path><path d="M 649.25 85 h 0.0"></path><rect height="22" width="113.5" x="535.75" y="74"></rect><text x="592.5" y="89">char.closed</text></g><path d="M 649.25 85 a 10 10 0 0 0 10 -10 v 0 a 10 10 0 0 1 10 -10"></path></g><path d="M 669.25 65 h 10"></path><path d="M 679.25 65 h 10"></path><g class="terminal ">
<path d="M 689.25 65 h 0.0"></path><path d="M 845.25 65 h 0.0"></path><rect height="22" rx="10" ry="10" width="156.0" x="689.25" y="54"></rect><text x="767.25" y="69">TEXTNOTATTRIBOPT</text></g></g><path d="M 855.25 65 a 10 10 0 0 1 10 10 v 39 a 10 10 0 0 1 -10 10 h -657.0 a 10 10 0 0 0 -10 10 v 9 a 10 10 0 0 0 10 10"></path><g>
<path d="M 198.25 153 h 48.5"></path><path d="M 806.75 153 h 48.5"></path><g>
<path d="M 246.75 153 h 0.0"></path><path d="M 340.75 153 h 0.0"></path><path d="M 246.75 153 h 20"></path><g class="terminal ">
<path d="M 266.75 153 h 12.75"></path><path d="M 308.0 153 h 12.75"></path><rect height="22" rx="10" ry="10" width="28.5" x="279.5" y="142"></rect><text x="293.75" y="157">|</text></g><path d="M 320.75 153 h 20"></path><path d="M 246.75 153 a 10 10 0 0 1 10 10 v 10 a 10 10 0 0 0 10 10"></path><g class="terminal altterminal">
<path d="M 266.75 183 h 0.0"></path><path d="M 320.75 183 h 0.0"></path><rect height="22" rx="10" ry="10" width="54.0" x="266.75" y="172"></rect><text x="293.75" y="187">PIPE</text></g><path d="M 320.75 183 a 10 10 0 0 0 10 -10 v -10 a 10 10 0 0 1 10 -10"></path></g><path d="M 340.75 153 h 10"></path><path d="M 350.75 153 h 10"></path><g class="terminal ">
<path d="M 360.75 153 h 0.0"></path><path d="M 516.75 153 h 0.0"></path><rect height="22" rx="10" ry="10" width="156.0" x="360.75" y="142"></rect><text x="438.75" y="157">TEXTNOTATTRIBOPT</text></g><path d="M 516.75 153 h 10"></path><path d="M 526.75 153 h 10"></path><g>
<path d="M 536.75 153 h 0.0"></path><path d="M 630.75 153 h 0.0"></path><path d="M 536.75 153 h 20"></path><g class="terminal ">
<path d="M 556.75 153 h 12.75"></path><path d="M 598.0 153 h 12.75"></path><rect height="22" rx="10" ry="10" width="28.5" x="569.5" y="142"></rect><text x="583.75" y="157">|</text></g><path d="M 610.75 153 h 20"></path><path d="M 536.75 153 a 10 10 0 0 1 10 10 v 10 a 10 10 0 0 0 10 10"></path><g class="terminal altterminal">
<path d="M 556.75 183 h 0.0"></path><path d="M 610.75 183 h 0.0"></path><rect height="22" rx="10" ry="10" width="54.0" x="556.75" y="172"></rect><text x="583.75" y="187">PIPE</text></g><path d="M 610.75 183 a 10 10 0 0 0 10 -10 v -10 a 10 10 0 0 1 10 -10"></path></g><path d="M 630.75 153 h 10"></path><path d="M 640.75 153 h 10"></path><g class="terminal ">
<path d="M 650.75 153 h 0.0"></path><path d="M 806.75 153 h 0.0"></path><rect height="22" rx="10" ry="10" width="156.0" x="650.75" y="142"></rect><text x="728.75" y="157">TEXTNOTATTRIBOPT</text></g></g><path d="M 855.25 153 a 10 10 0 0 1 10 10 v 39 a 10 10 0 0 1 -10 10 h -657.0 a 10 10 0 0 0 -10 10 v 9 a 10 10 0 0 0 10 10"></path><g>
<path d="M 198.25 241 h 48.5"></path><path d="M 806.75 241 h 48.5"></path><g>
<path d="M 246.75 241 h 0.0"></path><path d="M 340.75 241 h 0.0"></path><path d="M 246.75 241 h 20"></path><g class="terminal ">
<path d="M 266.75 241 h 12.75"></path><path d="M 308.0 241 h 12.75"></path><rect height="22" rx="10" ry="10" width="28.5" x="279.5" y="230"></rect><text x="293.75" y="245">|</text></g><path d="M 320.75 241 h 20"></path><path d="M 246.75 241 a 10 10 0 0 1 10 10 v 10 a 10 10 0 0 0 10 10"></path><g class="terminal altterminal">
<path d="M 266.75 271 h 0.0"></path><path d="M 320.75 271 h 0.0"></path><rect height="22" rx="10" ry="10" width="54.0" x="266.75" y="260"></rect><text x="293.75" y="275">PIPE</text></g><path d="M 320.75 271 a 10 10 0 0 0 10 -10 v -10 a 10 10 0 0 1 10 -10"></path></g><path d="M 340.75 241 h 10"></path><path d="M 350.75 241 h 10"></path><g class="terminal ">
<path d="M 360.75 241 h 0.0"></path><path d="M 516.75 241 h 0.0"></path><rect height="22" rx="10" ry="10" width="156.0" x="360.75" y="230"></rect><text x="438.75" y="245">TEXTNOTATTRIBOPT</text></g><path d="M 516.75 241 h 10"></path><path d="M 526.75 241 h 10"></path><g>
<path d="M 536.75 241 h 0.0"></path><path d="M 630.75 241 h 0.0"></path><path d="M 536.75 241 h 20"></path><g class="terminal ">
<path d="M 556.75 241 h 12.75"></path><path d="M 598.0 241 h 12.75"></path><rect height="22" rx="10" ry="10" width="28.5" x="569.5" y="230"></rect><text x="583.75" y="245">|</text></g><path d="M 610.75 241 h 20"></path><path d="M 536.75 241 a 10 10 0 0 1 10 10 v 10 a 10 10 0 0 0 10 10"></path><g class="terminal altterminal">
<path d="M 556.75 271 h 0.0"></path><path d="M 610.75 271 h 0.0"></path><rect height="22" rx="10" ry="10" width="54.0" x="556.75" y="260"></rect><text x="583.75" y="275">PIPE</text></g><path d="M 610.75 271 a 10 10 0 0 0 10 -10 v -10 a 10 10 0 0 1 10 -10"></path></g><path d="M 630.75 241 h 10"></path><path d="M 640.75 241 h 10"></path><g class="terminal ">
<path d="M 650.75 241 h 0.0"></path><path d="M 806.75 241 h 0.0"></path><rect height="22" rx="10" ry="10" width="156.0" x="650.75" y="230"></rect><text x="728.75" y="245">TEXTNOTATTRIBOPT</text></g></g><path d="M 855.25 241 a 10 10 0 0 1 10 10 v 39 a 10 10 0 0 1 -10 10 h -657.0 a 10 10 0 0 0 -10 10 v 9 a 10 10 0 0 0 10 10"></path><g>
<path d="M 198.25 329 h 48.5"></path><path d="M 806.75 329 h 48.5"></path><g>
<path d="M 246.75 329 h 0.0"></path><path d="M 340.75 329 h 0.0"></path><path d="M 246.75 329 h 20"></path><g class="terminal ">
<path d="M 266.75 329 h 12.75"></path><path d="M 308.0 329 h 12.75"></path><rect height="22" rx="10" ry="10" width="28.5" x="279.5" y="318"></rect><text x="293.75" y="333">|</text></g><path d="M 320.75 329 h 20"></path><path d="M 246.75 329 a 10 10 0 0 1 10 10 v 10 a 10 10 0 0 0 10 10"></path><g class="terminal altterminal">
<path d="M 266.75 359 h 0.0"></path><path d="M 320.75 359 h 0.0"></path><rect height="22" rx="10" ry="10" width="54.0" x="266.75" y="348"></rect><text x="293.75" y="363">PIPE</text></g><path d="M 320.75 359 a 10 10 0 0 0 10 -10 v -10 a 10 10 0 0 1 10 -10"></path></g><path d="M 340.75 329 h 10"></path><path d="M 350.75 329 h 10"></path><g class="terminal ">
<path d="M 360.75 329 h 0.0"></path><path d="M 516.75 329 h 0.0"></path><rect height="22" rx="10" ry="10" width="156.0" x="360.75" y="318"></rect><text x="438.75" y="333">TEXTNOTATTRIBOPT</text></g><path d="M 516.75 329 h 10"></path><path d="M 526.75 329 h 10"></path><g>
<path d="M 536.75 329 h 0.0"></path><path d="M 630.75 329 h 0.0"></path><path d="M 536.75 329 h 20"></path><g class="terminal ">
<path d="M 556.75 329 h 12.75"></path><path d="M 598.0 329 h 12.75"></path><rect height="22" rx="10" ry="10" width="28.5" x="569.5" y="318"></rect><text x="583.75" y="333">|</text></g><path d="M 610.75 329 h 20"></path><path d="M 536.75 329 a 10 10 0 0 1 10 10 v 10 a 10 10 0 0 0 10 10"></path><g class="terminal altterminal">
<path d="M 556.75 359 h 0.0"></path><path d="M 610.75 359 h 0.0"></path><rect height="22" rx="10" ry="10" width="54.0" x="556.75" y="348"></rect><text x="583.75" y="363">PIPE</text></g><path d="M 610.75 359 a 10 10 0 0 0 10 -10 v -10 a 10 10 0 0 1 10 -10"></path></g><path d="M 630.75 329 h 10"></path><path d="M 640.75 329 h 10"></path><g class="terminal ">
<path d="M 650.75 329 h 0.0"></path><path d="M 806.75 329 h 0.0"></path><rect height="22" rx="10" ry="10" width="156.0" x="650.75" y="318"></rect><text x="728.75" y="333">TEXTNOTATTRIBOPT</text></g></g><path d="M 855.25 329 a 10 10 0 0 1 10 10 v 39 a 10 10 0 0 1 -10 10 h -657.0 a 10 10 0 0 0 -10 10 v 0 a 10 10 0 0 0 10 10"></path><g>
<path d="M 198.25 408 h 236.0"></path><path d="M 619.25 408 h 236.0"></path><g class="terminal ">
<path d="M 434.25 408 h 0.0"></path><path d="M 488.25 408 h 0.0"></path><rect height="22" rx="10" ry="10" width="54.0" x="434.25" y="397"></rect><text x="461.25" y="412">'\\'</text></g><path d="M 488.25 408 h 10"></path><path d="M 498.25 408 h 10"></path><g class="terminal ">
<path d="M 508.25 408 h 0.0"></path><path d="M 553.75 408 h 0.0"></path><rect height="22" rx="10" ry="10" width="45.5" x="508.25" y="397"></rect><text x="531.0" y="412">⇐ ➋</text></g><path d="M 553.75 408 h 10"></path><path d="M 563.75 408 h 10"></path><g class="terminal ">
<path d="M 573.75 408 h 0.0"></path><path d="M 619.25 408 h 0.0"></path><rect height="22" rx="10" ry="10" width="45.5" x="573.75" y="397"></rect><text x="596.5" y="412">'&#42;'</text></g></g><path d="M 855.25 408 h 10"></path><path d="M 865.25 408 h 118.25"></path></g><path d="M 983.5 408 h 20"></path><path d="M 50.0 65 a 10 10 0 0 1 10 10 v 377 a 10 10 0 0 0 10 10"></path><g>
<path d="M 70.0 462 h 0.0"></path><path d="M 983.5 462 h 0.0"></path><g class="terminal ">
<path d="M 70.0 462 h 0.0"></path><path d="M 124.0 462 h 0.0"></path><rect height="22" rx="10" ry="10" width="54.0" x="70.0" y="451"></rect><text x="97.0" y="466">'\\'</text></g><path d="M 124.0 462 h 10"></path><path d="M 134.0 462 h 10"></path><g>
<path d="M 144.0 462 h 0.0"></path><path d="M 226.5 462 h 0.0"></path><rect class="group-box" height="38" rx="10" ry="10" width="82.5" x="144.0" y="443"></rect><g>
<path d="M 144.0 462 h 10.0"></path><path d="M 216.5 462 h 10.0"></path><g class="terminal ">
<path d="M 154.0 462 h 0.0"></path><path d="M 216.5 462 h 0.0"></path><rect height="22" rx="10" ry="10" width="62.5" x="154.0" y="451"></rect><text x="185.25" y="466">"fig"</text></g></g><g class="non-terminal ">
<path d="M 144.0 435 h 0.0"></path><path d="M 161.0 435 h 0.0"></path><text class="comment" x="152.5" y="440">➌</text></g></g><path d="M 226.5 462 h 10"></path><path d="M 236.5 462 h 10"></path><g>
<path d="M 246.5 462 h 0.0"></path><path d="M 357.5 462 h 0.0"></path><path d="M 246.5 462 h 20"></path><g class="terminal ">
<path d="M 266.5 462 h 12.75"></path><path d="M 324.75 462 h 12.75"></path><rect height="22" rx="10" ry="10" width="45.5" x="279.25" y="451"></rect><text x="302.0" y="466">' '</text></g><path d="M 337.5 462 h 20"></path><path d="M 246.5 462 a 10 10 0 0 1 10 10 v 10 a 10 10 0 0 0 10 10"></path><g class="terminal altterminal">
<path d="M 266.5 492 h 0.0"></path><path d="M 337.5 492 h 0.0"></path><rect height="22" rx="10" ry="10" width="71.0" x="266.5" y="481"></rect><text x="302.0" y="496">TAGEND</text></g><path d="M 337.5 492 a 10 10 0 0 0 10 -10 v -10 a 10 10 0 0 1 10 -10"></path></g><path d="M 357.5 462 h 10"></path><path d="M 367.5 462 h 10"></path><g>
<path d="M 377.5 462 h 0.0"></path><path d="M 778.5 462 h 0.0"></path><path d="M 377.5 462 h 20"></path><g>
<path d="M 397.5 462 h 0.0"></path><path d="M 758.5 462 h 0.0"></path><g>
<path d="M 397.5 462 h 0.0"></path><path d="M 568.0 462 h 0.0"></path><path d="M 397.5 462 h 20"></path><g>
<path d="M 417.5 462 h 130.5"></path></g><path d="M 548.0 462 h 20"></path><path d="M 397.5 462 a 10 10 0 0 1 10 10 v 0 a 10 10 0 0 0 10 10"></path><g class="non-terminal ">
<path d="M 417.5 482 h 0.0"></path><path d="M 548.0 482 h 0.0"></path><rect height="22" width="130.5" x="417.5" y="471"></rect><text x="482.75" y="486">AttributesPre</text></g><path d="M 548.0 482 a 10 10 0 0 0 10 -10 v 0 a 10 10 0 0 1 10 -10"></path></g><path d="M 568.0 462 h 10"></path><path d="M 578.0 462 h 10"></path><g>
<path d="M 588.0 462 h 0.0"></path><path d="M 758.5 462 h 0.0"></path><g>
<path d="M 588.0 462 h 0.0"></path><path d="M 758.5 462 h 0.0"></path><path d="M 588.0 462 h 20"></path><g>
<path d="M 608.0 462 h 130.5"></path></g><path d="M 738.5 462 h 20"></path><path d="M 588.0 462 a 10 10 0 0 1 10 10 v 0 a 10 10 0 0 0 10 10"></path><g>
<path d="M 608.0 482 h 0.0"></path><path d="M 738.5 482 h 0.0"></path><g class="terminal ">
<path d="M 608.0 482 h 0.0"></path><path d="M 738.5 482 h 0.0"></path><rect height="22" rx="10" ry="10" width="130.5" x="608.0" y="471"></rect><text x="673.25" y="486">TEXTNOTATTRIB</text></g></g><path d="M 738.5 482 a 10 10 0 0 0 10 -10 v 0 a 10 10 0 0 1 10 -10"></path></g></g></g><path d="M 758.5 462 h 20"></path><path d="M 377.5 462 a 10 10 0 0 1 10 10 v 39 a 10 10 0 0 0 10 10"></path><g>
<path d="M 397.5 521 h 12.75"></path><path d="M 745.75 521 h 12.75"></path><g>
<path d="M 410.25 521 h 0.0"></path><path d="M 580.75 521 h 0.0"></path><g>
<path d="M 410.25 521 h 0.0"></path><path d="M 580.75 521 h 0.0"></path><path d="M 410.25 521 h 20"></path><g>
<path d="M 430.25 521 h 130.5"></path></g><path d="M 560.75 521 h 20"></path><path d="M 410.25 521 a 10 10 0 0 1 10 10 v 0 a 10 10 0 0 0 10 10"></path><g>
<path d="M 430.25 541 h 0.0"></path><path d="M 560.75 541 h 0.0"></path><g class="terminal ">
<path d="M 430.25 541 h 0.0"></path><path d="M 560.75 541 h 0.0"></path><rect height="22" rx="10" ry="10" width="130.5" x="430.25" y="530"></rect><text x="495.5" y="545">TEXTNOTATTRIB</text></g></g><path d="M 560.75 541 a 10 10 0 0 0 10 -10 v 0 a 10 10 0 0 1 10 -10"></path></g></g><path d="M 580.75 521 h 10"></path><path d="M 590.75 521 h 10"></path><g>
<path d="M 600.75 521 h 0.0"></path><path d="M 745.75 521 h 0.0"></path><path d="M 600.75 521 h 20"></path><g>
<path d="M 620.75 521 h 105.0"></path></g><path d="M 725.75 521 h 20"></path><path d="M 600.75 521 a 10 10 0 0 1 10 10 v 0 a 10 10 0 0 0 10 10"></path><g class="non-terminal ">
<path d="M 620.75 541 h 0.0"></path><path d="M 725.75 541 h 0.0"></path><rect height="22" width="105.0" x="620.75" y="530"></rect><text x="673.25" y="545">Attributes</text></g><path d="M 725.75 541 a 10 10 0 0 0 10 -10 v 0 a 10 10 0 0 1 10 -10"></path></g></g><path d="M 758.5 521 a 10 10 0 0 0 10 -10 v -39 a 10 10 0 0 1 10 -10"></path></g><path d="M 778.5 462 h 10"></path><path d="M 788.5 462 h 10"></path><g>
<path d="M 798.5 462 h 0.0"></path><path d="M 983.5 462 h 0.0"></path><g class="terminal ">
<path d="M 798.5 462 h 0.0"></path><path d="M 852.5 462 h 0.0"></path><rect height="22" rx="10" ry="10" width="54.0" x="798.5" y="451"></rect><text x="825.5" y="466">'\\'</text></g><path d="M 852.5 462 h 10"></path><path d="M 862.5 462 h 10"></path><g class="terminal ">
<path d="M 872.5 462 h 0.0"></path><path d="M 918.0 462 h 0.0"></path><rect height="22" rx="10" ry="10" width="45.5" x="872.5" y="451"></rect><text x="895.25" y="466">⇐ ➌</text></g><path d="M 918.0 462 h 10"></path><path d="M 928.0 462 h 10"></path><g class="terminal ">
<path d="M 938.0 462 h 0.0"></path><path d="M 983.5 462 h 0.0"></path><rect height="22" rx="10" ry="10" width="45.5" x="938.0" y="451"></rect><text x="960.75" y="466">'&#42;'</text></g></g></g><path d="M 983.5 462 a 10 10 0 0 0 10 -10 v -34 a 10 10 0 0 1 10 -10"></path></g></g><path d="M 1003.5 408 h 10"></path><path d="M 1013.5 408 h 20 m 0 -10 v 20"></path></g></svg>