<svg class="railroad-diagram" height="543" viewBox="0 0 1272.0 543" width="1272.0" xmlns="http://www.w3.org/2000/svg" xmlns:xlink="http://www.w3.org/1999/xlink">
<g transform="translate(.5 .5)">
<style>/* <![CDATA[ */

    svg.railroad-diagram {
        background-color: hsl(30,20%,95%);
    }
    svg.railroad-diagram path {
        stroke-width: 2;
        stroke: black;
        fill: none;
    }
    svg.railroad-diagram text {
        font-size: 12px;
        text-anchor: middle;
        font-family: DejaVu Sans;
    }
    svg.railroad-diagram text.label {
        text-anchor:start;
    }
    svg.railroad-diagram text.comment {
        font-family: DejaVu Sans;
        font-size: 14px;
    }
    svg.railroad-diagram rect{
        stroke-width: 2;
        stroke: black;
        fill: rgb(210, 255, 210);
    }
    svg.railroad-diagram rect.group-box {
        stroke: gray;
        stroke-dasharray: 10 5;
        fill: none;
    }
    .terminal {
        font-family: DejaVu Sans;
    }
    svg.railroad-diagram g.altterminal rect {
        fill: rgb(251, 252, 207)
    }

/* ]]> */
</style><g>
<path d="M 20 55 v 20 m 0 -10 h 20"></path></g><path d="M 40 65 h 10"></path><g>
<path d="M 50 65 h 0.0"></path><path d="M 1222.0 408 h 0.0"></path><g>
<path d="M 50.0 65 h 0.0"></path><path d="M 1222.0 408 h 0.0"></path><path d="M 50.0 65 h 20"></path><g>
<path d="M 70.0 65 h 227.5"></path><path d="M 297.5 65 h 10"></path><g>
<path d="M 307.5 65 h 10.0"></path><path d="M 954.5 65 h 10.0"></path><g class="terminal ">
<path d="M 317.5 65 h 0.0"></path><path d="M 371.5 65 h 0.0"></path><rect height="22" rx="10" ry="10" width="54.0" x="317.5" y="54"></rect><text x="344.5" y="69">'\\'</text></g><path d="M 371.5 65 h 10"></path><path d="M 381.5 65 h 10"></path><g>
<path d="M 391.5 65 h 0.0"></path><path d="M 474.0 65 h 0.0"></path><rect class="group-box" height="38" rx="10" ry="10" width="82.5" x="391.5" y="46"></rect><g>
<path d="M 391.5 65 h 10.0"></path><path d="M 464.0 65 h 10.0"></path><g class="terminal ">
<path d="M 401.5 65 h 0.0"></path><path d="M 464.0 65 h 0.0"></path><rect height="22" rx="10" ry="10" width="62.5" x="401.5" y="54"></rect><text x="432.75" y="69">"fig"</text></g></g><g class="non-terminal ">
<path d="M 391.5 38 h 0.0"></path><path d="M 408.5 38 h 0.0"></path><text class="comment" x="400.0" y="43">➋</text></g></g><path d="M 474.0 65 h 10"></path><path d="M 484.0 65 h 10"></path><g>
<path d="M 494.0 65 h 0.0"></path><path d="M 605.0 65 h 0.0"></path><path d="M 494.0 65 h 20"></path><g class="terminal ">
<path d="M 514.0 65 h 12.75"></path><path d="M 572.25 65 h 12.75"></path><rect height="22" rx="10" ry="10" width="45.5" x="526.75" y="54"></rect><text x="549.5" y="69">' '</text></g><path d="M 585.0 65 h 20"></path><path d="M 494.0 65 a 10 10 0 0 1 10 10 v 10 a 10 10 0 0 0 10 10"></path><g class="terminal altterminal">
<path d="M 514.0 95 h 0.0"></path><path d="M 585.0 95 h 0.0"></path><rect height="22" rx="10" ry="10" width="71.0" x="514.0" y="84"></rect><text x="549.5" y="99">TAGEND</text></g><path d="M 585.0 95 a 10 10 0 0 0 10 -10 v -10 a 10 10 0 0 1 10 -10"></path></g><path d="M 605.0 65 h 10"></path><path d="M 615.0 65 h 10"></path><g>
<path d="M 625.0 65 h 0.0"></path><path d="M 778.5 65 h 0.0"></path><path d="M 625.0 65 h 20"></path><g>
<path d="M 645.0 65 h 113.5"></path></g><path d="M 758.5 65 h 20"></path><path d="M 625.0 65 a 10 10 0 0 1 10 10 v 0 a 10 10 0 0 0 10 10"></path><g class="non-terminal ">
<path d="M 645.0 85 h 0.0"></path><path d="M 758.5 85 h 0.0"></path><rect height="22" width="113.5" x="645.0" y="74"></rect><text x="701.75" y="89">char.closed</text></g><path d="M 758.5 85 a 10 10 0 0 0 10 -10 v 0 a 10 10 0 0 1 10 -10"></path></g><path d="M 778.5 65 h 10"></path><path d="M 788.5 65 h 10"></path><g class="terminal ">
<path d="M 798.5 65 h 0.0"></path><path d="M 954.5 65 h 0.0"></path><rect height="22" rx="10" ry="10" width="156.0" x="798.5" y="54"></rect><text x="876.5" y="69">TEXTNOTATTRIBOPT</text></g></g><path d="M 964.5 65 a 10 10 0 0 1 10 10 v 39 a 10 10 0 0 1 -10 10 h -657.0 a 10 10 0 0 0 -10 10 v 9 a 10 10 0 0 0 10 10"></path><g>
<path d="M 307.5 153 h 48.5"></path><path d="M 916.0 153 h 48.5"></path><g>
<path d="M 356.0 153 h 0.0"></path><path d="M 450.0 153 h 0.0"></path><path d="M 356.0 153 h 20"></path><g class="terminal ">
<path d="M 376.0 153 h 12.75"></path><path d="M 417.25 153 h 12.75"></path><rect height="22" rx="10" ry="10" width="28.5" x="388.75" y="142"></rect><text x="403.0" y="157">|</text></g><path d="M 430.0 153 h 20"></path><path d="M 356.0 153 a 10 10 0 0 1 10 10 v 10 a 10 10 0 0 0 10 10"></path><g class="terminal altterminal">
<path d="M 376.0 183 h 0.0"></path><path d="M 430.0 183 h 0.0"></path><rect height="22" rx="10" ry="10" width="54.0" x="376.0" y="172"></rect><text x="403.0" y="187">PIPE</text></g><path d="M 430.0 183 a 10 10 0 0 0 10 -10 v -10 a 10 10 0 0 1 10 -10"></path></g><path d="M 450.0 153 h 10"></path><path d="M 460.0 153 h 10"></path><g class="terminal ">
<path d="M 470.0 153 h 0.0"></path><path d="M 626.0 153 h 0.0"></path><rect height="22" rx="10" ry="10" width="156.0" x="470.0" y="142"></rect><text x="548.0" y="157">TEXTNOTATTRIBOPT</text></g><path d="M 626.0 153 h 10"></path><path d="M 636.0 153 h 10"></path><g>
<path d="M 646.0 153 h 0.0"></path><path d="M 740.0 153 h 0.0"></path><path d="M 646.0 153 h 20"></path><g class="terminal ">
<path d="M 666.0 153 h 12.75"></path><path d="M 707.25 153 h 12.75"></path><rect height="22" rx="10" ry="10" width="28.5" x="678.75" y="142"></rect><text x="693.0" y="157">|</text></g><path d="M 720.0 153 h 20"></path><path d="M 646.0 153 a 10 10 0 0 1 10 10 v 10 a 10 10 0 0 0 10 10"></path><g class="terminal altterminal">
<path d="M 666.0 183 h 0.0"></path><path d="M 720.0 183 h 0.0"></path><rect height="22" rx="10" ry="10" width="54.0" x="666.0" y="172"></rect><text x="693.0" y="187">PIPE</text></g><path d="M 720.0 183 a 10 10 0 0 0 10 -10 v -10 a 10 10 0 0 1 10 -10"></path></g><path d="M 740.0 153 h 10"></path><path d="M 750.0 153 h 10"></path><g class="terminal ">
<path d="M 760.0 153 h 0.0"></path><path d="M 916.0 153 h 0.0"></path><rect height="22" rx="10" ry="10" width="156.0" x="760.0" y="142"></rect><text x="838.0" y="157">TEXTNOTATTRIBOPT</text></g></g><path d="M 964.5 153 a 10 10 0 0 1 10 10 v 39 a 10 10 0 0 1 -10 10 h -657.0 a 10 10 0 0 0 -10 10 v 9 a 10 10 0 0 0 10 10"></path><g>
<path d="M 307.5 241 h 48.5"></path><path d="M 916.0 241 h 48.5"></path><g>
<path d="M 356.0 241 h 0.0"></path><path d="M 450.0 241 h 0.0"></path><path d="M 356.0 241 h 20"></path><g class="terminal ">
<path d="M 376.0 241 h 12.75"></path><path d="M 417.25 241 h 12.75"></path><rect height="22" rx="10" ry="10" width="28.5" x="388.75" y="230"></rect><text x="403.0" y="245">|</text></g><path d="M 430.0 241 h 20"></path><path d="M 356.0 241 a 10 10 0 0 1 10 10 v 10 a 10 10 0 0 0 10 10"></path><g class="terminal altterminal">
<path d="M 376.0 271 h 0.0"></path><path d="M 430.0 271 h 0.0"></path><rect height="22" rx="10" ry="10" width="54.0" x="376.0" y="260"></rect><text x="403.0" y="275">PIPE</text></g><path d="M 430.0 271 a 10 10 0 0 0 10 -10 v -10 a 10 10 0 0 1 10 -10"></path></g><path d="M 450.0 241 h 10"></path><path d="M 460.0 241 h 10"></path><g class="terminal ">
<path d="M 470.0 241 h 0.0"></path><path d="M 626.0 241 h 0.0"></path><rect height="22" rx="10" ry="10" width="156.0" x="470.0" y="230"></rect><text x="548.0" y="245">TEXTNOTATTRIBOPT</text></g><path d="M 626.0 241 h 10"></path><path d="M 636.0 241 h 10"></path><g>
<path d="M 646.0 241 h 0.0"></path><path d="M 740.0 241 h 0.0"></path><path d="M 646.0 241 h 20"></path><g class="terminal ">
<path d="M 666.0 241 h 12.75"></path><path d="M 707.25 241 h 12.75"></path><rect height="22" rx="10" ry="10" width="28.5" x="678.75" y="230"></rect><text x="693.0" y="245">|</text></g><path d="M 720.0 241 h 20"></path><path d="M 646.0 241 a 10 10 0 0 1 10 10 v 10 a 10 10 0 0 0 10 10"></path><g class="terminal altterminal">
<path d="M 666.0 271 h 0.0"></path><path d="M 720.0 271 h 0.0"></path><rect height="22" rx="10" ry="10" width="54.0" x="666.0" y="260"></rect><text x="693.0" y="275">PIPE</text></g><path d="M 720.0 271 a 10 10 0 0 0 10 -10 v -10 a 10 10 0 0 1 10 -10"></path></g><path d="M 740.0 241 h 10"></path><path d="M 750.0 241 h 10"></path><g class="terminal ">
<path d="M 760.0 241 h 0.0"></path><path d="M 916.0 241 h 0.0"></path><rect height="22" rx="10" ry="10" width="156.0" x="760.0" y="230"></rect><text x="838.0" y="245">TEXTNOTATTRIBOPT</text></g></g><path d="M 964.5 241 a 10 10 0 0 1 10 10 v 39 a 10 10 0 0 1 -10 10 h -657.0 a 10 10 0 0 0 -10 10 v 9 a 10 10 0 0 0 10 10"></path><g>
<path d="M 307.5 329 h 48.5"></path><path d="M 916.0 329 h 48.5"></path><g>
<path d="M 356.0 329 h 0.0"></path><path d="M 450.0 329 h 0.0"></path><path d="M 356.0 329 h 20"></path><g class="terminal ">
<path d="M 376.0 329 h 12.75"></path><path d="M 417.25 329 h 12.75"></path><rect height="22" rx="10" ry="10" width="28.5" x="388.75" y="318"></rect><text x="403.0" y="333">|</text></g><path d="M 430.0 329 h 20"></path><path d="M 356.0 329 a 10 10 0 0 1 10 10 v 10 a 10 10 0 0 0 10 10"></path><g class="terminal altterminal">
<path d="M 376.0 359 h 0.0"></path><path d="M 430.0 359 h 0.0"></path><rect height="22" rx="10" ry="10" width="54.0" x="376.0" y="348"></rect><text x="403.0" y="363">PIPE</text></g><path d="M 430.0 359 a 10 10 0 0 0 10 -10 v -10 a 10 10 0 0 1 10 -10"></path></g><path d="M 450.0 329 h 10"></path><path d="M 460.0 329 h 10"></path><g class="terminal ">
<path d="M 470.0 329 h 0.0"></path><path d="M 626.0 329 h 0.0"></path><rect height="22" rx="10" ry="10" width="156.0" x="470.0" y="318"></rect><text x="548.0" y="333">TEXTNOTATTRIBOPT</text></g><path d="M 626.0 329 h 10"></path><path d="M 636.0 329 h 10"></path><g>
<path d="M 646.0 329 h 0.0"></path><path d="M 740.0 329 h 0.0"></path><path d="M 646.0 329 h 20"></path><g class="terminal ">
<path d="M 666.0 329 h 12.75"></path><path d="M 707.25 329 h 12.75"></path><rect height="22" rx="10" ry="10" width="28.5" x="678.75" y="318"></rect><text x="693.0" y="333">|</text></g><path d="M 720.0 329 h 20"></path><path d="M 646.0 329 a 10 10 0 0 1 10 10 v 10 a 10 10 0 0 0 10 10"></path><g class="terminal altterminal">
<path d="M 666.0 359 h 0.0"></path><path d="M 720.0 359 h 0.0"></path><rect height="22" rx="10" ry="10" width="54.0" x="666.0" y="348"></rect><text x="693.0" y="363">PIPE</text></g><path d="M 720.0 359 a 10 10 0 0 0 10 -10 v -10 a 10 10 0 0 1 10 -10"></path></g><path d="M 740.0 329 h 10"></path><path d="M 750.0 329 h 10"></path><g class="terminal ">
<path d="M 760.0 329 h 0.0"></path><path d="M 916.0 329 h 0.0"></path><rect height="22" rx="10" ry="10" width="156.0" x="760.0" y="318"></rect><text x="838.0" y="333">TEXTNOTATTRIBOPT</text></g></g><path d="M 964.5 329 a 10 10 0 0 1 10 10 v 39 a 10 10 0 0 1 -10 10 h -657.0 a 10 10 0 0 0 -10 10 v 0 a 10 10 0 0 0 10 10"></path><g>
<path d="M 307.5 408 h 236.0"></path><path d="M 728.5 408 h 236.0"></path><g class="terminal ">
<path d="M 543.5 408 h 0.0"></path><path d="M 597.5 408 h 0.0"></path><rect height="22" rx="10" ry="10" width="54.0" x="543.5" y="397"></rect><text x="570.5" y="412">'\\'</text></g><path d="M 597.5 408 h 10"></path><path d="M 607.5 408 h 10"></path><g class="terminal ">
<path d="M 617.5 408 h 0.0"></path><path d="M 663.0 408 h 0.0"></path><rect height="22" rx="10" ry="10" width="45.5" x="617.5" y="397"></rect><text x="640.25" y="412">⇐ ➋</text></g><path d="M 663.0 408 h 10"></path><path d="M 673.0 408 h 10"></path><g class="terminal ">
<path d="M 683.0 408 h 0.0"></path><path d="M 728.5 408 h 0.0"></path><rect height="22" rx="10" ry="10" width="45.5" x="683.0" y="397"></rect><text x="705.75" y="412">'&#42;'</text></g></g><path d="M 964.5 408 h 10"></path><path d="M 974.5 408 h 227.5"></path></g><path d="M 1202.0 408 h 20"></path><path d="M 50.0 65 a 10 10 0 0 1 10 10 v 377 a 10 10 0 0 0 10 10"></path><g>
<path d="M 70.0 462 h 0.0"></path><path d="M 1202.0 462 h 0.0"></path><g class="terminal ">
<path d="M 70.0 462 h 0.0"></path><path d="M 124.0 462 h 0.0"></path><rect height="22" rx="10" ry="10" width="54.0" x="70.0" y="451"></rect><text x="97.0" y="466">'\\'</text></g><path d="M 124.0 462 h 10"></path><path d="M 134.0 462 h 10"></path><g>
<path d="M 144.0 462 h 0.0"></path><path d="M 226.5 462 h 0.0"></path><rect class="group-box" height="38" rx="10" ry="10" width="82.5" x="144.0" y="443"></rect><g>
<path d="M 144.0 462 h 10.0"></path><path d="M 216.5 462 h 10.0"></path><g class="terminal ">
<path d="M 154.0 462 h 0.0"></path><path d="M 216.5 462 h 0.0"></path><rect height="22" rx="10" ry="10" width="62.5" x="154.0" y="451"></rect><text x="185.25" y="466">"fig"</text></g></g><g class="non-terminal ">
<path d="M 144.0 435 h 0.0"></path><path d="M 161.0 435 h 0.0"></path><text class="comment" x="152.5" y="440">➌</text></g></g><path d="M 226.5 462 h 10"></path><path d="M 236.5 462 h 10"></path><g>
<path d="M 246.5 462 h 0.0"></path><path d="M 357.5 462 h 0.0"></path><path d="M 246.5 462 h 20"></path><g class="terminal ">
<path d="M 266.5 462 h 12.75"></path><path d="M 324.75 462 h 12.75"></path><rect height="22" rx="10" ry="10" width="45.5" x="279.25" y="451"></rect><text x="302.0" y="466">' '</text></g><path d="M 337.5 462 h 20"></path><path d="M 246.5 462 a 10 10 0 0 1 10 10 v 10 a 10 10 0 0 0 10 10"></path><g class="terminal altterminal">
<path d="M 266.5 492 h 0.0"></path><path d="M 337.5 492 h 0.0"></path><rect height="22" rx="10" ry="10" width="71.0" x="266.5" y="481"></rect><text x="302.0" y="496">TAGEND</text></g><path d="M 337.5 492 a 10 10 0 0 0 10 -10 v -10 a 10 10 0 0 1 10 -10"></path></g><path d="M 357.5 462 h 10"></path><path d="M 367.5 462 h 10"></path><g>
<path d="M 377.5 462 h 0.0"></path><path d="M 573.5 462 h 0.0"></path><path d="M 377.5 462 h 20"></path><g>
<path d="M 397.5 462 h 156.0"></path></g><path d="M 553.5 462 h 20"></path><path d="M 377.5 462 a 10 10 0 0 1 10 10 v 0 a 10 10 0 0 0 10 10"></path><g class="non-terminal ">
<path d="M 397.5 482 h 0.0"></path><path d="M 553.5 482 h 0.0"></path><rect height="22" width="156.0" x="397.5" y="471"></rect><text x="475.5" y="486">AttributesPreAll</text></g><path d="M 553.5 482 a 10 10 0 0 0 10 -10 v 0 a 10 10 0 0 1 10 -10"></path></g><path d="M 573.5 462 h 10"></path><path d="M 583.5 462 h 10"></path><g>
<path d="M 593.5 462 h 0.0"></path><path d="M 997.0 462 h 0.0"></path><g>
<path d="M 593.5 462 h 0.0"></path><path d="M 764.0 462 h 0.0"></path><path d="M 593.5 462 h 20"></path><g>
<path d="M 613.5 462 h 130.5"></path></g><path d="M 744.0 462 h 20"></path><path d="M 593.5 462 a 10 10 0 0 1 10 10 v 0 a 10 10 0 0 0 10 10"></path><g>
<path d="M 613.5 482 h 0.0"></path><path d="M 744.0 482 h 0.0"></path><g class="terminal ">
<path d="M 613.5 482 h 0.0"></path><path d="M 744.0 482 h 0.0"></path><rect height="22" rx="10" ry="10" width="130.5" x="613.5" y="471"></rect><text x="678.75" y="486">TEXTNOTATTRIB</text></g></g><path d="M 744.0 482 a 10 10 0 0 0 10 -10 v 0 a 10 10 0 0 1 10 -10"></path></g><path d="M 764.0 462 h 10"></path><path d="M 774.0 462 h 10"></path><g>
<path d="M 784.0 462 h 0.0"></path><path d="M 997.0 462 h 0.0"></path><path d="M 784.0 462 h 20"></path><g>
<path d="M 804.0 462 h 173.0"></path></g><path d="M 977.0 462 h 20"></path><path d="M 784.0 462 a 10 10 0 0 1 10 10 v 0 a 10 10 0 0 0 10 10"></path><g class="non-terminal ">
<path d="M 804.0 482 h 0.0"></path><path d="M 977.0 482 h 0.0"></path><rect height="22" width="173.0" x="804.0" y="471"></rect><text x="890.5" y="486">AttributesNoAttrib</text></g><path d="M 977.0 482 a 10 10 0 0 0 10 -10 v 0 a 10 10 0 0 1 10 -10"></path></g></g><path d="M 997.0 462 h 10"></path><path d="M 1007.0 462 h 10"></path><g>
<path d="M 1017.0 462 h 0.0"></path><path d="M 1202.0 462 h 0.0"></path><g class="terminal ">
<path d="M 1017.0 462 h 0.0"></path><path d="M 1071.0 462 h 0.0"></path><rect height="22" rx="10" ry="10" width="54.0" x="1017.0" y="451"></rect><text x="1044.0" y="466">'\\'</text></g><path d="M 1071.0 462 h 10"></path><path d="M 1081.0 462 h 10"></path><g class="terminal ">
<path d="M 1091.0 462 h 0.0"></path><path d="M 1136.5 462 h 0.0"></path><rect height="22" rx="10" ry="10" width="45.5" x="1091.0" y="451"></rect><text x="1113.75" y="466">⇐ ➌</text></g><path d="M 1136.5 462 h 10"></path><path d="M 1146.5 462 h 10"></path><g class="terminal ">
<path d="M 1156.5 462 h 0.0"></path><path d="M 1202.0 462 h 0.0"></path><rect height="22" rx="10" ry="10" width="45.5" x="1156.5" y="451"></rect><text x="1179.25" y="466">'&#42;'</text></g></g></g><path d="M 1202.0 462 a 10 10 0 0 0 10 -10 v -34 a 10 10 0 0 1 10 -10"></path></g></g><path d="M 1222.0 408 h 10"></path><path d="M 1232.0 408 h 20 m 0 -10 v 20"></path></g></svg>