<svg class="railroad-diagram" height="171" viewBox="0 0 532.5 171" width="532.5" xmlns="http://www.w3.org/2000/svg" xmlns:xlink="http://www.w3.org/1999/xlink">
<g transform="translate(.5 .5)">
<style>/* <![CDATA[ */

    svg.railroad-diagram {
        background-color: hsl(30,20%,95%);
    }
    svg.railroad-diagram path {
        stroke-width: 2;
        stroke: black;
        fill: none;
    }
    svg.railroad-diagram text {
        font-size: 12px;
        text-anchor: middle;
        font-family: DejaVu Sans;
    }
    svg.railroad-diagram text.label {
        text-anchor:start;
    }
    svg.railroad-diagram text.comment {
        font-family: DejaVu Sans;
        font-size: 14px;
    }
    svg.railroad-diagram rect{
        stroke-width: 2;
        stroke: black;
        fill: rgb(210, 210, 255);
    }
    svg.railroad-diagram rect.group-box {
        stroke: gray;
        stroke-dasharray: 10 5;
        fill: none;
    }
    .terminal {
        font-family: DejaVu Sans;
    }
    svg.railroad-diagram g.altterminal rect {
        fill: rgb(251, 252, 207)
    }

/* ]]> */
</style><g>
<path d="M 20 61 v 20 m 0 -10 h 20"></path></g><path d="M 40 71 h 10"></path><g>
<path d="M 50 71 h 0.0"></path><path d="M 482.5 71 h 0.0"></path><g>
<path d="M 50.0 71 h 0.0"></path><path d="M 482.5 71 h 0.0"></path><g class="terminal ">
<path d="M 50.0 71 h 0.0"></path><path d="M 138.0 71 h 0.0"></path><rect height="22" rx="10" ry="10" width="88.0" x="50.0" y="60"></rect><text x="94.0" y="75">&#60;figure></text></g><path d="M 138.0 71 h 10"></path><path d="M 148.0 71 h 10"></path><g>
<path d="M 158.0 71 h 0.0"></path><path d="M 482.5 71 h 0.0"></path><path d="M 158.0 71 a 10 10 0 0 0 10 -10 v -10 a 10 10 0 0 1 10 -10"></path><g>
<path d="M 178.0 41 h 0.0"></path><path d="M 331.5 41 h 0.0"></path><g class="terminal ">
<path d="M 178.0 41 h 0.0"></path><path d="M 249.0 41 h 0.0"></path><rect height="22" rx="10" ry="10" width="71.0" x="178.0" y="30"></rect><text x="213.5" y="45">@style</text></g><path d="M 249.0 41 h 10"></path><path d="M 259.0 41 h 10"></path><g class="terminal ">
<path d="M 269.0 41 h 0.0"></path><path d="M 331.5 41 h 0.0"></path><rect height="22" rx="10" ry="10" width="62.5" x="269.0" y="30"></rect><text x="300.25" y="45">"fig"</text></g></g><path d="M 158.0 71 h 20"></path><g class="non-terminal ">
<path d="M 178.0 71 h 85.5"></path><path d="M 377.0 71 h 85.5"></path><rect height="22" width="113.5" x="263.5" y="60"></rect><text x="320.25" y="75">char.closed</text></g><path d="M 462.5 71 h 20"></path><path d="M 158.0 71 a 10 10 0 0 1 10 10 v 9 a 10 10 0 0 0 10 10"></path><g>
<path d="M 178.0 100 h 0.0"></path><path d="M 462.5 100 h 0.0"></path><g>
<path d="M 178.0 100 h 0.0"></path><path d="M 348.5 100 h 0.0"></path><path d="M 178.0 100 h 20"></path><g>
<path d="M 198.0 100 h 130.5"></path></g><path d="M 328.5 100 h 20"></path><path d="M 178.0 100 a 10 10 0 0 1 10 10 v 0 a 10 10 0 0 0 10 10"></path><g class="non-terminal ">
<path d="M 198.0 120 h 0.0"></path><path d="M 328.5 120 h 0.0"></path><rect height="22" width="130.5" x="198.0" y="109"></rect><text x="263.25" y="124">AttributesPre</text></g><path d="M 328.5 120 a 10 10 0 0 0 10 -10 v 0 a 10 10 0 0 1 10 -10"></path></g><path d="M 348.5 100 h 10"></path><path d="M 358.5 100 h 10"></path><g>
<path d="M 368.5 100 h 0.0"></path><path d="M 462.5 100 h 0.0"></path><g>
<path d="M 368.5 100 h 0.0"></path><path d="M 462.5 100 h 0.0"></path><path d="M 368.5 100 h 20"></path><g>
<path d="M 388.5 100 h 54.0"></path></g><path d="M 442.5 100 h 20"></path><path d="M 368.5 100 a 10 10 0 0 1 10 10 v 0 a 10 10 0 0 0 10 10"></path><g class="terminal ">
<path d="M 388.5 120 h 0.0"></path><path d="M 442.5 120 h 0.0"></path><rect height="22" rx="10" ry="10" width="54.0" x="388.5" y="109"></rect><text x="415.5" y="124">TEXT</text></g><path d="M 442.5 120 a 10 10 0 0 0 10 -10 v 0 a 10 10 0 0 1 10 -10"></path></g></g></g><path d="M 462.5 100 a 10 10 0 0 0 10 -10 v -9 a 10 10 0 0 1 10 -10"></path></g></g></g><path d="M 482.5 71 h 10"></path><path d="M 492.5 71 h 20 m 0 -10 v 20"></path></g></svg>