<svg class="railroad-diagram" height="281" viewBox="0 0 438.5 281" width="438.5" xmlns="http://www.w3.org/2000/svg" xmlns:xlink="http://www.w3.org/1999/xlink">
<g transform="translate(.5 .5)">
<style>/* <![CDATA[ */
    svg.railroad-diagram {
        background-color:hsl(30,20%,95%);
    }
    svg.railroad-diagram path {
        stroke-width: 2;
        stroke: black;
        fill: none;
    }
    svg.railroad-diagram text {
        font-size: 12px;
        text-anchor: middle;
        font-family: DejaVu Sans;
    }
    svg.railroad-diagram text.label {
        text-anchor:start;
    }
    svg.railroad-diagram text.comment {
        font-family: DejaVu Sans;
        font-size: 14px;
    }
    svg.railroad-diagram rect{
        stroke-width: 2;
        stroke:black;
        fill: rgb(210, 210, 255);
    }
    svg.railroad-diagram rect.group-box {
        stroke: gray;
        stroke-dasharray: 10 5;
        fill: none;
    }
    .terminal {
        font-family: DejaVu Sans;
    }

/* ]]> */
</style><g>
<path d="M 20 240 v 20 m 0 -10 h 20"></path></g><path d="M 40 250 h 10"></path><g>
<path d="M 50 250 h 0.0"></path><path d="M 388.5 250 h 0.0"></path><g class="terminal ">
<path d="M 50.0 250 h 0.0"></path><path d="M 138.0 250 h 0.0"></path><rect height="22" rx="10" ry="10" width="88.0" x="50.0" y="239"></rect><text x="94.0" y="254">&#60;figure></text></g><path d="M 138.0 250 h 10"></path><g>
<path d="M 148.0 250 h 0.0"></path><path d="M 388.5 250 h 0.0"></path><path d="M 148.0 250 a 10 10 0 0 0 10 -10 v -19 a 10 10 0 0 1 10 -10"></path><g>
<path d="M 168.0 211 h 0.0"></path><path d="M 304.5 211 h 0.0"></path><g class="terminal ">
<path d="M 168.0 211 h 0.0"></path><path d="M 230.5 211 h 0.0"></path><rect height="22" rx="10" ry="10" width="62.5" x="168.0" y="200"></rect><text x="199.25" y="215">@ref?</text></g><path d="M 230.5 211 h 10"></path><path d="M 240.5 211 h 10"></path><g class="terminal ">
<path d="M 250.5 211 h 0.0"></path><path d="M 304.5 211 h 0.0"></path><rect height="22" rx="10" ry="10" width="54.0" x="250.5" y="200"></rect><text x="277.5" y="215">text</text></g></g><path d="M 148.0 250 a 10 10 0 0 0 10 -10 v -49 a 10 10 0 0 1 10 -10"></path><g>
<path d="M 168.0 181 h 0.0"></path><path d="M 313.0 181 h 0.0"></path><g class="terminal ">
<path d="M 168.0 181 h 0.0"></path><path d="M 239.0 181 h 0.0"></path><rect height="22" rx="10" ry="10" width="71.0" x="168.0" y="170"></rect><text x="203.5" y="185">@copy?</text></g><path d="M 239.0 181 h 10"></path><path d="M 249.0 181 h 10"></path><g class="terminal ">
<path d="M 259.0 181 h 0.0"></path><path d="M 313.0 181 h 0.0"></path><rect height="22" rx="10" ry="10" width="54.0" x="259.0" y="170"></rect><text x="286.0" y="185">text</text></g></g><path d="M 148.0 250 a 10 10 0 0 0 10 -10 v -79 a 10 10 0 0 1 10 -10"></path><g>
<path d="M 168.0 151 h 0.0"></path><path d="M 304.5 151 h 0.0"></path><g class="terminal ">
<path d="M 168.0 151 h 0.0"></path><path d="M 230.5 151 h 0.0"></path><rect height="22" rx="10" ry="10" width="62.5" x="168.0" y="140"></rect><text x="199.25" y="155">@loc?</text></g><path d="M 230.5 151 h 10"></path><path d="M 240.5 151 h 10"></path><g class="terminal ">
<path d="M 250.5 151 h 0.0"></path><path d="M 304.5 151 h 0.0"></path><rect height="22" rx="10" ry="10" width="54.0" x="250.5" y="140"></rect><text x="277.5" y="155">text</text></g></g><path d="M 148.0 250 a 10 10 0 0 0 10 -10 v -109 a 10 10 0 0 1 10 -10"></path><g>
<path d="M 168.0 121 h 0.0"></path><path d="M 313.0 121 h 0.0"></path><g class="terminal ">
<path d="M 168.0 121 h 0.0"></path><path d="M 239.0 121 h 0.0"></path><rect height="22" rx="10" ry="10" width="71.0" x="168.0" y="110"></rect><text x="203.5" y="125">@size?</text></g><path d="M 239.0 121 h 10"></path><path d="M 249.0 121 h 10"></path><g class="terminal ">
<path d="M 259.0 121 h 0.0"></path><path d="M 313.0 121 h 0.0"></path><rect height="22" rx="10" ry="10" width="54.0" x="259.0" y="110"></rect><text x="286.0" y="125">text</text></g></g><path d="M 148.0 250 a 10 10 0 0 0 10 -10 v -139 a 10 10 0 0 1 10 -10"></path><g>
<path d="M 168.0 91 h 0.0"></path><path d="M 304.5 91 h 0.0"></path><g class="terminal ">
<path d="M 168.0 91 h 0.0"></path><path d="M 230.5 91 h 0.0"></path><rect height="22" rx="10" ry="10" width="62.5" x="168.0" y="80"></rect><text x="199.25" y="95">@alt?</text></g><path d="M 230.5 91 h 10"></path><path d="M 240.5 91 h 10"></path><g class="terminal ">
<path d="M 250.5 91 h 0.0"></path><path d="M 304.5 91 h 0.0"></path><rect height="22" rx="10" ry="10" width="54.0" x="250.5" y="80"></rect><text x="277.5" y="95">text</text></g></g><path d="M 148.0 250 a 10 10 0 0 0 10 -10 v -169 a 10 10 0 0 1 10 -10"></path><g>
<path d="M 168.0 61 h 0.0"></path><path d="M 304.5 61 h 0.0"></path><g class="terminal ">
<path d="M 168.0 61 h 0.0"></path><path d="M 230.5 61 h 0.0"></path><rect height="22" rx="10" ry="10" width="62.5" x="168.0" y="50"></rect><text x="199.25" y="65">@file</text></g><path d="M 230.5 61 h 10"></path><path d="M 240.5 61 h 10"></path><g class="terminal ">
<path d="M 250.5 61 h 0.0"></path><path d="M 304.5 61 h 0.0"></path><rect height="22" rx="10" ry="10" width="54.0" x="250.5" y="50"></rect><text x="277.5" y="65">text</text></g></g><path d="M 148.0 250 a 10 10 0 0 0 10 -10 v -199 a 10 10 0 0 1 10 -10"></path><g>
<path d="M 168.0 31 h 0.0"></path><path d="M 313.0 31 h 0.0"></path><g class="terminal ">
<path d="M 168.0 31 h 0.0"></path><path d="M 239.0 31 h 0.0"></path><rect height="22" rx="10" ry="10" width="71.0" x="168.0" y="20"></rect><text x="203.5" y="35">@style</text></g><path d="M 239.0 31 h 10"></path><path d="M 249.0 31 h 10"></path><g class="terminal ">
<path d="M 259.0 31 h 0.0"></path><path d="M 313.0 31 h 0.0"></path><rect height="22" rx="10" ry="10" width="54.0" x="259.0" y="20"></rect><text x="286.0" y="35">text</text></g></g><path d="M 148.0 250 h 20"></path><g>
<path d="M 168.0 250 h 0.0"></path><path d="M 368.5 250 h 0.0"></path><g>
<path d="M 168.0 250 h 0.0"></path><path d="M 262.0 250 h 0.0"></path><path d="M 168.0 250 a 10 10 0 0 0 10 -10 v 0 a 10 10 0 0 1 10 -10"></path><g>
<path d="M 188.0 230 h 54.0"></path></g><path d="M 242.0 230 a 10 10 0 0 1 10 10 v 0 a 10 10 0 0 0 10 10"></path><path d="M 168.0 250 h 20"></path><g class="terminal ">
<path d="M 188.0 250 h 0.0"></path><path d="M 242.0 250 h 0.0"></path><rect height="22" rx="10" ry="10" width="54.0" x="188.0" y="239"></rect><text x="215.0" y="254">text</text></g><path d="M 242.0 250 h 20"></path></g><path d="M 262.0 250 h 10"></path><g class="terminal ">
<path d="M 272.0 250 h 0.0"></path><path d="M 368.5 250 h 0.0"></path><rect height="22" rx="10" ry="10" width="96.5" x="272.0" y="239"></rect><text x="320.25" y="254">&#60;/figure></text></g></g><path d="M 368.5 250 h 20"></path></g></g><path d="M 388.5 250 h 10"></path><path d="M 398.5 250 h 20 m 0 -10 v 20"></path></g></svg>