<svg class="railroad-diagram" height="231" viewBox="0 0 401.5 231" width="401.5" xmlns="http://www.w3.org/2000/svg" xmlns:xlink="http://www.w3.org/1999/xlink">
<g transform="translate(.5 .5)">
<style>/* <![CDATA[ */

    svg.railroad-diagram {
        background-color: hsl(30,20%,95%);
    }
    svg.railroad-diagram path {
        stroke-width: 2;
        stroke: black;
        fill: none;
    }
    svg.railroad-diagram text {
        font-size: 12px;
        text-anchor: middle;
        font-family: DejaVu Sans;
    }
    svg.railroad-diagram text.label {
        text-anchor:start;
    }
    svg.railroad-diagram text.comment {
        font-family: DejaVu Sans;
        font-size: 14px;
    }
    svg.railroad-diagram rect{
        stroke-width: 2;
        stroke: black;
        fill: rgb(210, 210, 255);
    }
    svg.railroad-diagram rect.group-box {
        stroke: gray;
        stroke-dasharray: 10 5;
        fill: none;
    }
    .terminal {
        font-family: DejaVu Sans;
    }
    svg.railroad-diagram g.altterminal rect {
        fill: rgb(251, 252, 207)
    }

/* ]]> */
</style><g>
<path d="M 20 61 v 20 m 0 -10 h 20"></path></g><path d="M 40 71 h 10"></path><g>
<path d="M 50 71 h 0.0"></path><path d="M 351.5 71 h 0.0"></path><g>
<path d="M 50.0 71 h 0.0"></path><path d="M 351.5 71 h 0.0"></path><g class="terminal ">
<path d="M 50.0 71 h 0.0"></path><path d="M 138.0 71 h 0.0"></path><rect height="22" rx="10" ry="10" width="88.0" x="50.0" y="60"></rect><text x="94.0" y="75">&#60;figure></text></g><path d="M 138.0 71 h 10"></path><path d="M 148.0 71 h 10"></path><g>
<path d="M 158.0 71 h 0.0"></path><path d="M 351.5 71 h 0.0"></path><path d="M 158.0 71 a 10 10 0 0 0 10 -10 v -10 a 10 10 0 0 1 10 -10"></path><g>
<path d="M 178.0 41 h 0.0"></path><path d="M 331.5 41 h 0.0"></path><g class="terminal ">
<path d="M 178.0 41 h 0.0"></path><path d="M 249.0 41 h 0.0"></path><rect height="22" rx="10" ry="10" width="71.0" x="178.0" y="30"></rect><text x="213.5" y="45">@style</text></g><path d="M 249.0 41 h 10"></path><path d="M 259.0 41 h 10"></path><g class="terminal ">
<path d="M 269.0 41 h 0.0"></path><path d="M 331.5 41 h 0.0"></path><rect height="22" rx="10" ry="10" width="62.5" x="269.0" y="30"></rect><text x="300.25" y="45">"fig"</text></g></g><path d="M 158.0 71 h 20"></path><g class="non-terminal ">
<path d="M 178.0 71 h 20.0"></path><path d="M 311.5 71 h 20.0"></path><rect height="22" width="113.5" x="198.0" y="60"></rect><text x="254.75" y="75">char.closed</text></g><path d="M 331.5 71 h 20"></path><path d="M 158.0 71 a 10 10 0 0 1 10 10 v 10 a 10 10 0 0 0 10 10"></path><g class="non-terminal ">
<path d="M 178.0 101 h 11.5"></path><path d="M 320.0 101 h 11.5"></path><rect height="22" width="130.5" x="189.5" y="90"></rect><text x="254.75" y="105">AttributesPre</text></g><path d="M 331.5 101 a 10 10 0 0 0 10 -10 v -10 a 10 10 0 0 1 10 -10"></path><path d="M 158.0 71 a 10 10 0 0 1 10 10 v 39 a 10 10 0 0 0 10 10"></path><g>
<path d="M 178.0 130 h 29.75"></path><path d="M 301.75 130 h 29.75"></path><g>
<path d="M 207.75 130 h 0.0"></path><path d="M 301.75 130 h 0.0"></path><path d="M 207.75 130 h 20"></path><g>
<path d="M 227.75 130 h 54.0"></path></g><path d="M 281.75 130 h 20"></path><path d="M 207.75 130 a 10 10 0 0 1 10 10 v 0 a 10 10 0 0 0 10 10"></path><g class="terminal ">
<path d="M 227.75 150 h 0.0"></path><path d="M 281.75 150 h 0.0"></path><rect height="22" rx="10" ry="10" width="54.0" x="227.75" y="139"></rect><text x="254.75" y="154">TEXT</text></g><path d="M 281.75 150 a 10 10 0 0 0 10 -10 v 0 a 10 10 0 0 1 10 -10"></path></g></g><path d="M 331.5 130 a 10 10 0 0 0 10 -10 v -39 a 10 10 0 0 1 10 -10"></path><path d="M 158.0 71 a 10 10 0 0 1 10 10 v 99 a 10 10 0 0 0 10 10"></path><g class="non-terminal ">
<path d="M 178.0 190 h 24.25"></path><path d="M 307.25 190 h 24.25"></path><rect height="22" width="105.0" x="202.25" y="179"></rect><text x="254.75" y="194">Attributes</text></g><path d="M 331.5 190 a 10 10 0 0 0 10 -10 v -99 a 10 10 0 0 1 10 -10"></path></g></g></g><path d="M 351.5 71 h 10"></path><path d="M 361.5 71 h 20 m 0 -10 v 20"></path></g></svg>