<svg class="railroad-diagram" height="287" viewBox="0 0 2722.0 287" width="2722.0" xmlns="http://www.w3.org/2000/svg" xmlns:xlink="http://www.w3.org/1999/xlink">
<g transform="translate(.5 .5)">
<style>/* <![CDATA[ */

    svg.railroad-diagram {
        background-color: hsl(30,20%,95%);
    }
    svg.railroad-diagram path {
        stroke-width: 2;
        stroke: black;
        fill: none;
    }
    svg.railroad-diagram text {
        font-size: 12px;
        text-anchor: middle;
        font-family: DejaVu Sans;
    }
    svg.railroad-diagram text.label {
        text-anchor:start;
    }
    svg.railroad-diagram text.comment {
        font-family: DejaVu Sans;
        font-size: 14px;
    }
    svg.railroad-diagram rect{
        stroke-width: 2;
        stroke: black;
        fill: rgb(210, 255, 210);
    }
    svg.railroad-diagram rect.group-box {
        stroke: gray;
        stroke-dasharray: 10 5;
        fill: none;
    }
    .terminal {
        font-family: DejaVu Sans;
    }
    svg.railroad-diagram g.altterminal rect {
        fill: rgb(251, 252, 207)
    }

/* ]]> */
</style><g>
<path d="M 20 55 v 20 m 0 -10 h 20"></path></g><path d="M 40 65 h 10"></path><g>
<path d="M 50 65 h 0.0"></path><path d="M 2672.0 65 h 0.0"></path><g>
<path d="M 50.0 65 h 0.0"></path><path d="M 2672.0 65 h 0.0"></path><path d="M 50.0 65 h 20"></path><g>
<path d="M 70.0 65 h 0.0"></path><path d="M 2652.0 65 h 0.0"></path><g class="terminal ">
<path d="M 70.0 65 h 0.0"></path><path d="M 124.0 65 h 0.0"></path><rect height="22" rx="10" ry="10" width="54.0" x="70.0" y="54"></rect><text x="97.0" y="69">'\\'</text></g><path d="M 124.0 65 h 10"></path><path d="M 134.0 65 h 10"></path><g>
<path d="M 144.0 65 h 0.0"></path><path d="M 226.5 65 h 0.0"></path><rect class="group-box" height="38" rx="10" ry="10" width="82.5" x="144.0" y="46"></rect><g>
<path d="M 144.0 65 h 10.0"></path><path d="M 216.5 65 h 10.0"></path><g class="terminal ">
<path d="M 154.0 65 h 0.0"></path><path d="M 216.5 65 h 0.0"></path><rect height="22" rx="10" ry="10" width="62.5" x="154.0" y="54"></rect><text x="185.25" y="69">"fig"</text></g></g><g class="non-terminal ">
<path d="M 144.0 38 h 0.0"></path><path d="M 161.0 38 h 0.0"></path><text class="comment" x="152.5" y="43">➋</text></g></g><path d="M 226.5 65 h 10"></path><path d="M 236.5 65 h 10"></path><g>
<path d="M 246.5 65 h 0.0"></path><path d="M 357.5 65 h 0.0"></path><path d="M 246.5 65 h 20"></path><g class="terminal ">
<path d="M 266.5 65 h 12.75"></path><path d="M 324.75 65 h 12.75"></path><rect height="22" rx="10" ry="10" width="45.5" x="279.25" y="54"></rect><text x="302.0" y="69">' '</text></g><path d="M 337.5 65 h 20"></path><path d="M 246.5 65 a 10 10 0 0 1 10 10 v 10 a 10 10 0 0 0 10 10"></path><g class="terminal altterminal">
<path d="M 266.5 95 h 0.0"></path><path d="M 337.5 95 h 0.0"></path><rect height="22" rx="10" ry="10" width="71.0" x="266.5" y="84"></rect><text x="302.0" y="99">TAGEND</text></g><path d="M 337.5 95 a 10 10 0 0 0 10 -10 v -10 a 10 10 0 0 1 10 -10"></path></g><path d="M 357.5 65 h 10"></path><path d="M 367.5 65 h 10"></path><g>
<path d="M 377.5 65 h 0.0"></path><path d="M 531.0 65 h 0.0"></path><path d="M 377.5 65 h 20"></path><g>
<path d="M 397.5 65 h 113.5"></path></g><path d="M 511.0 65 h 20"></path><path d="M 377.5 65 a 10 10 0 0 1 10 10 v 0 a 10 10 0 0 0 10 10"></path><g class="non-terminal ">
<path d="M 397.5 85 h 0.0"></path><path d="M 511.0 85 h 0.0"></path><rect height="22" width="113.5" x="397.5" y="74"></rect><text x="454.25" y="89">char.closed</text></g><path d="M 511.0 85 a 10 10 0 0 0 10 -10 v 0 a 10 10 0 0 1 10 -10"></path></g><path d="M 531.0 65 h 10"></path><path d="M 541.0 65 h 10"></path><g class="terminal ">
<path d="M 551.0 65 h 0.0"></path><path d="M 707.0 65 h 0.0"></path><rect height="22" rx="10" ry="10" width="156.0" x="551.0" y="54"></rect><text x="629.0" y="69">TEXTNOTATTRIBOPT</text></g><path d="M 707.0 65 h 10"></path><path d="M 717.0 65 h 10"></path><g>
<path d="M 727.0 65 h 0.0"></path><path d="M 821.0 65 h 0.0"></path><path d="M 727.0 65 h 20"></path><g class="terminal ">
<path d="M 747.0 65 h 12.75"></path><path d="M 788.25 65 h 12.75"></path><rect height="22" rx="10" ry="10" width="28.5" x="759.75" y="54"></rect><text x="774.0" y="69">|</text></g><path d="M 801.0 65 h 20"></path><path d="M 727.0 65 a 10 10 0 0 1 10 10 v 10 a 10 10 0 0 0 10 10"></path><g class="terminal altterminal">
<path d="M 747.0 95 h 0.0"></path><path d="M 801.0 95 h 0.0"></path><rect height="22" rx="10" ry="10" width="54.0" x="747.0" y="84"></rect><text x="774.0" y="99">PIPE</text></g><path d="M 801.0 95 a 10 10 0 0 0 10 -10 v -10 a 10 10 0 0 1 10 -10"></path></g><path d="M 821.0 65 h 10"></path><path d="M 831.0 65 h 10"></path><g class="terminal ">
<path d="M 841.0 65 h 0.0"></path><path d="M 997.0 65 h 0.0"></path><rect height="22" rx="10" ry="10" width="156.0" x="841.0" y="54"></rect><text x="919.0" y="69">TEXTNOTATTRIBOPT</text></g><path d="M 997.0 65 h 10"></path><path d="M 1007.0 65 h 10"></path><g>
<path d="M 1017.0 65 h 0.0"></path><path d="M 1111.0 65 h 0.0"></path><path d="M 1017.0 65 h 20"></path><g class="terminal ">
<path d="M 1037.0 65 h 12.75"></path><path d="M 1078.25 65 h 12.75"></path><rect height="22" rx="10" ry="10" width="28.5" x="1049.75" y="54"></rect><text x="1064.0" y="69">|</text></g><path d="M 1091.0 65 h 20"></path><path d="M 1017.0 65 a 10 10 0 0 1 10 10 v 10 a 10 10 0 0 0 10 10"></path><g class="terminal altterminal">
<path d="M 1037.0 95 h 0.0"></path><path d="M 1091.0 95 h 0.0"></path><rect height="22" rx="10" ry="10" width="54.0" x="1037.0" y="84"></rect><text x="1064.0" y="99">PIPE</text></g><path d="M 1091.0 95 a 10 10 0 0 0 10 -10 v -10 a 10 10 0 0 1 10 -10"></path></g><path d="M 1111.0 65 h 10"></path><path d="M 1121.0 65 h 10"></path><g class="terminal ">
<path d="M 1131.0 65 h 0.0"></path><path d="M 1287.0 65 h 0.0"></path><rect height="22" rx="10" ry="10" width="156.0" x="1131.0" y="54"></rect><text x="1209.0" y="69">TEXTNOTATTRIBOPT</text></g><path d="M 1287.0 65 h 10"></path><path d="M 1297.0 65 h 10"></path><g>
<path d="M 1307.0 65 h 0.0"></path><path d="M 1401.0 65 h 0.0"></path><path d="M 1307.0 65 h 20"></path><g class="terminal ">
<path d="M 1327.0 65 h 12.75"></path><path d="M 1368.25 65 h 12.75"></path><rect height="22" rx="10" ry="10" width="28.5" x="1339.75" y="54"></rect><text x="1354.0" y="69">|</text></g><path d="M 1381.0 65 h 20"></path><path d="M 1307.0 65 a 10 10 0 0 1 10 10 v 10 a 10 10 0 0 0 10 10"></path><g class="terminal altterminal">
<path d="M 1327.0 95 h 0.0"></path><path d="M 1381.0 95 h 0.0"></path><rect height="22" rx="10" ry="10" width="54.0" x="1327.0" y="84"></rect><text x="1354.0" y="99">PIPE</text></g><path d="M 1381.0 95 a 10 10 0 0 0 10 -10 v -10 a 10 10 0 0 1 10 -10"></path></g><path d="M 1401.0 65 h 10"></path><path d="M 1411.0 65 h 10"></path><g class="terminal ">
<path d="M 1421.0 65 h 0.0"></path><path d="M 1577.0 65 h 0.0"></path><rect height="22" rx="10" ry="10" width="156.0" x="1421.0" y="54"></rect><text x="1499.0" y="69">TEXTNOTATTRIBOPT</text></g><path d="M 1577.0 65 h 10"></path><path d="M 1587.0 65 h 10"></path><g>
<path d="M 1597.0 65 h 0.0"></path><path d="M 1691.0 65 h 0.0"></path><path d="M 1597.0 65 h 20"></path><g class="terminal ">
<path d="M 1617.0 65 h 12.75"></path><path d="M 1658.25 65 h 12.75"></path><rect height="22" rx="10" ry="10" width="28.5" x="1629.75" y="54"></rect><text x="1644.0" y="69">|</text></g><path d="M 1671.0 65 h 20"></path><path d="M 1597.0 65 a 10 10 0 0 1 10 10 v 10 a 10 10 0 0 0 10 10"></path><g class="terminal altterminal">
<path d="M 1617.0 95 h 0.0"></path><path d="M 1671.0 95 h 0.0"></path><rect height="22" rx="10" ry="10" width="54.0" x="1617.0" y="84"></rect><text x="1644.0" y="99">PIPE</text></g><path d="M 1671.0 95 a 10 10 0 0 0 10 -10 v -10 a 10 10 0 0 1 10 -10"></path></g><path d="M 1691.0 65 h 10"></path><path d="M 1701.0 65 h 10"></path><g class="terminal ">
<path d="M 1711.0 65 h 0.0"></path><path d="M 1867.0 65 h 0.0"></path><rect height="22" rx="10" ry="10" width="156.0" x="1711.0" y="54"></rect><text x="1789.0" y="69">TEXTNOTATTRIBOPT</text></g><path d="M 1867.0 65 h 10"></path><path d="M 1877.0 65 h 10"></path><g>
<path d="M 1887.0 65 h 0.0"></path><path d="M 1981.0 65 h 0.0"></path><path d="M 1887.0 65 h 20"></path><g class="terminal ">
<path d="M 1907.0 65 h 12.75"></path><path d="M 1948.25 65 h 12.75"></path><rect height="22" rx="10" ry="10" width="28.5" x="1919.75" y="54"></rect><text x="1934.0" y="69">|</text></g><path d="M 1961.0 65 h 20"></path><path d="M 1887.0 65 a 10 10 0 0 1 10 10 v 10 a 10 10 0 0 0 10 10"></path><g class="terminal altterminal">
<path d="M 1907.0 95 h 0.0"></path><path d="M 1961.0 95 h 0.0"></path><rect height="22" rx="10" ry="10" width="54.0" x="1907.0" y="84"></rect><text x="1934.0" y="99">PIPE</text></g><path d="M 1961.0 95 a 10 10 0 0 0 10 -10 v -10 a 10 10 0 0 1 10 -10"></path></g><path d="M 1981.0 65 h 10"></path><path d="M 1991.0 65 h 10"></path><g class="terminal ">
<path d="M 2001.0 65 h 0.0"></path><path d="M 2157.0 65 h 0.0"></path><rect height="22" rx="10" ry="10" width="156.0" x="2001.0" y="54"></rect><text x="2079.0" y="69">TEXTNOTATTRIBOPT</text></g><path d="M 2157.0 65 h 10"></path><path d="M 2167.0 65 h 10"></path><g>
<path d="M 2177.0 65 h 0.0"></path><path d="M 2271.0 65 h 0.0"></path><path d="M 2177.0 65 h 20"></path><g class="terminal ">
<path d="M 2197.0 65 h 12.75"></path><path d="M 2238.25 65 h 12.75"></path><rect height="22" rx="10" ry="10" width="28.5" x="2209.75" y="54"></rect><text x="2224.0" y="69">|</text></g><path d="M 2251.0 65 h 20"></path><path d="M 2177.0 65 a 10 10 0 0 1 10 10 v 10 a 10 10 0 0 0 10 10"></path><g class="terminal altterminal">
<path d="M 2197.0 95 h 0.0"></path><path d="M 2251.0 95 h 0.0"></path><rect height="22" rx="10" ry="10" width="54.0" x="2197.0" y="84"></rect><text x="2224.0" y="99">PIPE</text></g><path d="M 2251.0 95 a 10 10 0 0 0 10 -10 v -10 a 10 10 0 0 1 10 -10"></path></g><path d="M 2271.0 65 h 10"></path><path d="M 2281.0 65 h 10"></path><g class="terminal ">
<path d="M 2291.0 65 h 0.0"></path><path d="M 2447.0 65 h 0.0"></path><rect height="22" rx="10" ry="10" width="156.0" x="2291.0" y="54"></rect><text x="2369.0" y="69">TEXTNOTATTRIBOPT</text></g><path d="M 2447.0 65 h 10"></path><path d="M 2457.0 65 h 10"></path><g class="terminal ">
<path d="M 2467.0 65 h 0.0"></path><path d="M 2521.0 65 h 0.0"></path><rect height="22" rx="10" ry="10" width="54.0" x="2467.0" y="54"></rect><text x="2494.0" y="69">'\\'</text></g><path d="M 2521.0 65 h 10"></path><path d="M 2531.0 65 h 10"></path><g class="terminal ">
<path d="M 2541.0 65 h 0.0"></path><path d="M 2586.5 65 h 0.0"></path><rect height="22" rx="10" ry="10" width="45.5" x="2541.0" y="54"></rect><text x="2563.75" y="69">⇐ ➋</text></g><path d="M 2586.5 65 h 10"></path><path d="M 2596.5 65 h 10"></path><g class="terminal ">
<path d="M 2606.5 65 h 0.0"></path><path d="M 2652.0 65 h 0.0"></path><rect height="22" rx="10" ry="10" width="45.5" x="2606.5" y="54"></rect><text x="2629.25" y="69">'&#42;'</text></g></g><path d="M 2652.0 65 h 20"></path><path d="M 50.0 65 a 10 10 0 0 1 10 10 v 74 a 10 10 0 0 0 10 10"></path><g>
<path d="M 70.0 159 h 626.5"></path><path d="M 2025.5 159 h 626.5"></path><g class="terminal ">
<path d="M 696.5 159 h 0.0"></path><path d="M 750.5 159 h 0.0"></path><rect height="22" rx="10" ry="10" width="54.0" x="696.5" y="148"></rect><text x="723.5" y="163">'\\'</text></g><path d="M 750.5 159 h 10"></path><path d="M 760.5 159 h 10"></path><g>
<path d="M 770.5 159 h 0.0"></path><path d="M 853.0 159 h 0.0"></path><rect class="group-box" height="38" rx="10" ry="10" width="82.5" x="770.5" y="140"></rect><g>
<path d="M 770.5 159 h 10.0"></path><path d="M 843.0 159 h 10.0"></path><g class="terminal ">
<path d="M 780.5 159 h 0.0"></path><path d="M 843.0 159 h 0.0"></path><rect height="22" rx="10" ry="10" width="62.5" x="780.5" y="148"></rect><text x="811.75" y="163">"fig"</text></g></g><g class="non-terminal ">
<path d="M 770.5 132 h 0.0"></path><path d="M 787.5 132 h 0.0"></path><text class="comment" x="779.0" y="137">➌</text></g></g><path d="M 853.0 159 h 10"></path><path d="M 863.0 159 h 10"></path><g>
<path d="M 873.0 159 h 0.0"></path><path d="M 984.0 159 h 0.0"></path><path d="M 873.0 159 h 20"></path><g class="terminal ">
<path d="M 893.0 159 h 12.75"></path><path d="M 951.25 159 h 12.75"></path><rect height="22" rx="10" ry="10" width="45.5" x="905.75" y="148"></rect><text x="928.5" y="163">' '</text></g><path d="M 964.0 159 h 20"></path><path d="M 873.0 159 a 10 10 0 0 1 10 10 v 10 a 10 10 0 0 0 10 10"></path><g class="terminal altterminal">
<path d="M 893.0 189 h 0.0"></path><path d="M 964.0 189 h 0.0"></path><rect height="22" rx="10" ry="10" width="71.0" x="893.0" y="178"></rect><text x="928.5" y="193">TAGEND</text></g><path d="M 964.0 189 a 10 10 0 0 0 10 -10 v -10 a 10 10 0 0 1 10 -10"></path></g><path d="M 984.0 159 h 10"></path><path d="M 994.0 159 h 10"></path><g>
<path d="M 1004.0 159 h 0.0"></path><path d="M 1174.5 159 h 0.0"></path><path d="M 1004.0 159 h 20"></path><g>
<path d="M 1024.0 159 h 130.5"></path></g><path d="M 1154.5 159 h 20"></path><path d="M 1004.0 159 a 10 10 0 0 1 10 10 v 0 a 10 10 0 0 0 10 10"></path><g>
<path d="M 1024.0 179 h 0.0"></path><path d="M 1154.5 179 h 0.0"></path><g class="terminal ">
<path d="M 1024.0 179 h 0.0"></path><path d="M 1154.5 179 h 0.0"></path><rect height="22" rx="10" ry="10" width="130.5" x="1024.0" y="168"></rect><text x="1089.25" y="183">TEXTNOTATTRIB</text></g></g><path d="M 1154.5 179 a 10 10 0 0 0 10 -10 v 0 a 10 10 0 0 1 10 -10"></path></g><path d="M 1174.5 159 h 10"></path><path d="M 1184.5 159 h 10"></path><g>
<path d="M 1194.5 159 h 0.0"></path><path d="M 1820.5 159 h 0.0"></path><path d="M 1194.5 159 h 20"></path><g>
<path d="M 1214.5 159 h 586.0"></path></g><path d="M 1800.5 159 h 20"></path><path d="M 1194.5 159 a 10 10 0 0 1 10 10 v 9 a 10 10 0 0 0 10 10"></path><g>
<path d="M 1214.5 188 h 0.0"></path><path d="M 1800.5 188 h 0.0"></path><g>
<path d="M 1214.5 188 h 0.0"></path><path d="M 1308.5 188 h 0.0"></path><path d="M 1214.5 188 h 20"></path><g class="terminal ">
<path d="M 1234.5 188 h 4.25"></path><path d="M 1284.25 188 h 4.25"></path><rect height="22" rx="10" ry="10" width="45.5" x="1238.75" y="177"></rect><text x="1261.5" y="192">'|'</text></g><path d="M 1288.5 188 h 20"></path><path d="M 1214.5 188 a 10 10 0 0 1 10 10 v 10 a 10 10 0 0 0 10 10"></path><g class="terminal altterminal">
<path d="M 1234.5 218 h 0.0"></path><path d="M 1288.5 218 h 0.0"></path><rect height="22" rx="10" ry="10" width="54.0" x="1234.5" y="207"></rect><text x="1261.5" y="222">PIPE</text></g><path d="M 1288.5 218 a 10 10 0 0 0 10 -10 v -10 a 10 10 0 0 1 10 -10"></path></g><path d="M 1308.5 188 h 10"></path><path d="M 1318.5 188 h 10"></path><g>
<path d="M 1328.5 188 h 0.0"></path><path d="M 1800.5 188 h 0.0"></path><path d="M 1328.5 188 h 10"></path><g>
<path d="M 1338.5 188 h 0.0"></path><path d="M 1790.5 188 h 0.0"></path><g>
<path d="M 1338.5 188 h 0.0"></path><path d="M 1790.5 188 h 0.0"></path><path d="M 1338.5 188 h 20"></path><g class="terminal ">
<path d="M 1358.5 188 h 157.75"></path><path d="M 1612.75 188 h 157.75"></path><rect height="22" rx="10" ry="10" width="96.5" x="1516.25" y="177"></rect><text x="1564.5" y="192">ATTRIBALL</text></g><path d="M 1770.5 188 h 20"></path><path d="M 1338.5 188 a 10 10 0 0 1 10 10 v 10 a 10 10 0 0 0 10 10"></path><g>
<path d="M 1358.5 218 h 0.0"></path><path d="M 1770.5 218 h 0.0"></path><g class="terminal ">
<path d="M 1358.5 218 h 0.0"></path><path d="M 1463.5 218 h 0.0"></path><rect height="22" rx="10" ry="10" width="105.0" x="1358.5" y="207"></rect><text x="1411.0" y="222">ATTRIBNAME</text></g><path d="M 1463.5 218 h 10"></path><path d="M 1473.5 218 h 10"></path><g class="terminal ">
<path d="M 1483.5 218 h 0.0"></path><path d="M 1537.5 218 h 0.0"></path><rect height="22" rx="10" ry="10" width="54.0" x="1483.5" y="207"></rect><text x="1510.5" y="222">'="'</text></g><path d="M 1537.5 218 h 10"></path><path d="M 1547.5 218 h 10"></path><g class="terminal ">
<path d="M 1557.5 218 h 0.0"></path><path d="M 1662.5 218 h 0.0"></path><rect height="22" rx="10" ry="10" width="105.0" x="1557.5" y="207"></rect><text x="1610.0" y="222">ATTRIBTEXT</text></g><path d="M 1662.5 218 h 10"></path><path d="M 1672.5 218 h 10"></path><g class="terminal ">
<path d="M 1682.5 218 h 0.0"></path><path d="M 1770.5 218 h 0.0"></path><rect height="22" rx="10" ry="10" width="88.0" x="1682.5" y="207"></rect><text x="1726.5" y="222">/"${Hs}/</text></g></g><path d="M 1770.5 218 a 10 10 0 0 0 10 -10 v -10 a 10 10 0 0 1 10 -10"></path></g></g><path d="M 1790.5 188 h 10"></path><path d="M 1338.5 188 a 10 10 0 0 0 -10 10 v 39 a 10 10 0 0 0 10 10"></path><g>
<path d="M 1338.5 247 h 452.0"></path></g><path d="M 1790.5 247 a 10 10 0 0 0 10 -10 v -39 a 10 10 0 0 0 -10 -10"></path></g></g><path d="M 1800.5 188 a 10 10 0 0 0 10 -10 v -9 a 10 10 0 0 1 10 -10"></path></g><path d="M 1820.5 159 h 10"></path><path d="M 1830.5 159 h 10"></path><g class="terminal ">
<path d="M 1840.5 159 h 0.0"></path><path d="M 1894.5 159 h 0.0"></path><rect height="22" rx="10" ry="10" width="54.0" x="1840.5" y="148"></rect><text x="1867.5" y="163">'\\'</text></g><path d="M 1894.5 159 h 10"></path><path d="M 1904.5 159 h 10"></path><g class="terminal ">
<path d="M 1914.5 159 h 0.0"></path><path d="M 1960.0 159 h 0.0"></path><rect height="22" rx="10" ry="10" width="45.5" x="1914.5" y="148"></rect><text x="1937.25" y="163">⇐ ➌</text></g><path d="M 1960.0 159 h 10"></path><path d="M 1970.0 159 h 10"></path><g class="terminal ">
<path d="M 1980.0 159 h 0.0"></path><path d="M 2025.5 159 h 0.0"></path><rect height="22" rx="10" ry="10" width="45.5" x="1980.0" y="148"></rect><text x="2002.75" y="163">'&#42;'</text></g></g><path d="M 2652.0 159 a 10 10 0 0 0 10 -10 v -74 a 10 10 0 0 1 10 -10"></path></g></g><path d="M 2672.0 65 h 10"></path><path d="M 2682.0 65 h 20 m 0 -10 v 20"></path></g></svg>