<svg class="railroad-diagram" height="760" viewBox="0 0 1554.5 760" width="1554.5" xmlns="http://www.w3.org/2000/svg" xmlns:xlink="http://www.w3.org/1999/xlink">
<g transform="translate(.5 .5)">
<style>/* <![CDATA[ */
    svg.railroad-diagram {
        background-color:hsl(30,20%,95%);
    }
    svg.railroad-diagram path {
        stroke-width: 2;
        stroke: black;
        fill: none;
    }
    svg.railroad-diagram text {
        font-size: 12px;
        text-anchor: middle;
        font-family: DejaVu Sans;
    }
    svg.railroad-diagram text.label {
        text-anchor:start;
    }
    svg.railroad-diagram text.comment {
        font-family: DejaVu Sans;
        font-size: 14px;
    }
    svg.railroad-diagram rect{
        stroke-width: 2;
        stroke:black;
        fill: rgb(210, 255, 210);
    }
    svg.railroad-diagram rect.group-box {
        stroke: gray;
        stroke-dasharray: 10 5;
        fill: none;
    }
    .terminal {
        font-family: DejaVu Sans;
    }

/* ]]> */
</style><g>
<path d="M 20 167 v 20 m 0 -10 h 20"></path></g><path d="M 40 177 h 10"></path><g>
<path d="M 50 177 h 0.0"></path><path d="M 1504.5 525 h 0.0"></path><rect class="group-box" height="704" rx="10" ry="10" width="1454.5" x="50.0" y="36"></rect><g>
<path d="M 50.0 177 h 10.0"></path><path d="M 60.0 177 h 10"></path><g>
<path d="M 70.0 177 h 10.0"></path><path d="M 1474.5 177 h 10.0"></path><rect class="group-box" height="414" rx="10" ry="10" width="1394.5" x="80.0" y="60"></rect><g>
<path d="M 80.0 177 h 10.0"></path><path d="M 1464.5 177 h 10.0"></path><g>
<path d="M 90.0 177 h 0.0"></path><path d="M 249.5 177 h 0.0"></path><g>
<path d="M 90.0 177 h 0.0"></path><path d="M 192.5 177 h 0.0"></path><g class="terminal ">
<path d="M 90.0 177 h 0.0"></path><path d="M 135.5 177 h 0.0"></path><rect height="22" rx="10" ry="10" width="45.5" x="90.0" y="166"></rect><text x="112.75" y="181">"\"</text></g><path d="M 135.5 177 h 10"></path><path d="M 145.5 177 h 10"></path><g class="terminal ">
<path d="M 155.5 177 h 0.0"></path><path d="M 192.5 177 h 0.0"></path><rect height="22" rx="10" ry="10" width="37.0" x="155.5" y="166"></rect><text x="174.0" y="181">id</text></g></g><path d="M 192.5 177 h 10"></path><path d="M 202.5 177 h 10"></path><g class="terminal ">
<path d="M 212.5 177 h 0.0"></path><path d="M 249.5 177 h 0.0"></path><rect height="22" rx="10" ry="10" width="37.0" x="212.5" y="166"></rect><text x="231.0" y="181">WS</text></g></g><path d="M 249.5 177 h 10"></path><path d="M 259.5 177 h 10"></path><g>
<path d="M 269.5 177 h 0.0"></path><path d="M 1313.5 177 h 0.0"></path><g>
<path d="M 269.5 177 h 0.0"></path><path d="M 1266.5 177 h 0.0"></path><path d="M 269.5 177 a 10 10 0 0 0 10 -10 v -89 a 10 10 0 0 1 10 -10 h 827.5"></path><path d="M 402.0 466 h 844.5 a 10 10 0 0 0 10 -10 v -269 a 10 10 0 0 1 10 -10"></path><path d="M 269.5 177 h 10"></path><g>
<path d="M 279.5 177 h 0.0"></path><path d="M 382.0 177 h 0.0"></path><path d="M 279.5 177 a 10 10 0 0 0 10 -10 v -10 a 10 10 0 0 1 10 -10"></path><g class="terminal ">
<path d="M 299.5 147 h 0.0"></path><path d="M 362.0 147 h 0.0"></path><rect height="22" rx="10" ry="10" width="62.5" x="299.5" y="136"></rect><text x="330.75" y="151">"LEV"</text></g><path d="M 362.0 147 a 10 10 0 0 1 10 10 v 10 a 10 10 0 0 0 10 10"></path><path d="M 279.5 177 a 10 10 0 0 0 10 -10 v -40 a 10 10 0 0 1 10 -10"></path><g class="terminal ">
<path d="M 299.5 117 h 0.0"></path><path d="M 362.0 117 h 0.0"></path><rect height="22" rx="10" ry="10" width="62.5" x="299.5" y="106"></rect><text x="330.75" y="121">"EXO"</text></g><path d="M 362.0 117 a 10 10 0 0 1 10 10 v 40 a 10 10 0 0 0 10 10"></path><path d="M 279.5 177 a 10 10 0 0 0 10 -10 v -70 a 10 10 0 0 1 10 -10"></path><g class="terminal ">
<path d="M 299.5 87 h 0.0"></path><path d="M 362.0 87 h 0.0"></path><rect height="22" rx="10" ry="10" width="62.5" x="299.5" y="76"></rect><text x="330.75" y="91">"GEN"</text></g><path d="M 362.0 87 a 10 10 0 0 1 10 10 v 70 a 10 10 0 0 0 10 10"></path><path d="M 279.5 177 h 20"></path><g class="terminal ">
<path d="M 299.5 177 h 0.0"></path><path d="M 362.0 177 h 0.0"></path><rect height="22" rx="10" ry="10" width="62.5" x="299.5" y="166"></rect><text x="330.75" y="181">"NUM"</text></g><path d="M 362.0 177 h 20"></path><path d="M 279.5 177 a 10 10 0 0 1 10 10 v 10 a 10 10 0 0 0 10 10"></path><g class="terminal ">
<path d="M 299.5 207 h 0.0"></path><path d="M 362.0 207 h 0.0"></path><rect height="22" rx="10" ry="10" width="62.5" x="299.5" y="196"></rect><text x="330.75" y="211">"DEU"</text></g><path d="M 362.0 207 a 10 10 0 0 0 10 -10 v -10 a 10 10 0 0 1 10 -10"></path><path d="M 279.5 177 a 10 10 0 0 1 10 10 v 40 a 10 10 0 0 0 10 10"></path><g class="terminal ">
<path d="M 299.5 237 h 0.0"></path><path d="M 362.0 237 h 0.0"></path><rect height="22" rx="10" ry="10" width="62.5" x="299.5" y="226"></rect><text x="330.75" y="241">"JOS"</text></g><path d="M 362.0 237 a 10 10 0 0 0 10 -10 v -40 a 10 10 0 0 1 10 -10"></path><path d="M 279.5 177 a 10 10 0 0 1 10 10 v 70 a 10 10 0 0 0 10 10"></path><g class="terminal ">
<path d="M 299.5 267 h 0.0"></path><path d="M 362.0 267 h 0.0"></path><rect height="22" rx="10" ry="10" width="62.5" x="299.5" y="256"></rect><text x="330.75" y="271">"JDG"</text></g><path d="M 362.0 267 a 10 10 0 0 0 10 -10 v -70 a 10 10 0 0 1 10 -10"></path><path d="M 279.5 177 a 10 10 0 0 1 10 10 v 100 a 10 10 0 0 0 10 10"></path><g class="terminal ">
<path d="M 299.5 297 h 0.0"></path><path d="M 362.0 297 h 0.0"></path><rect height="22" rx="10" ry="10" width="62.5" x="299.5" y="286"></rect><text x="330.75" y="301">"RUT"</text></g><path d="M 362.0 297 a 10 10 0 0 0 10 -10 v -100 a 10 10 0 0 1 10 -10"></path><path d="M 279.5 177 a 10 10 0 0 1 10 10 v 130 a 10 10 0 0 0 10 10"></path><g class="terminal ">
<path d="M 299.5 327 h 0.0"></path><path d="M 362.0 327 h 0.0"></path><rect height="22" rx="10" ry="10" width="62.5" x="299.5" y="316"></rect><text x="330.75" y="331">"1SA"</text></g><path d="M 362.0 327 a 10 10 0 0 0 10 -10 v -130 a 10 10 0 0 1 10 -10"></path><path d="M 279.5 177 a 10 10 0 0 1 10 10 v 160 a 10 10 0 0 0 10 10"></path><g class="terminal ">
<path d="M 299.5 357 h 0.0"></path><path d="M 362.0 357 h 0.0"></path><rect height="22" rx="10" ry="10" width="62.5" x="299.5" y="346"></rect><text x="330.75" y="361">"2SA"</text></g><path d="M 362.0 357 a 10 10 0 0 0 10 -10 v -160 a 10 10 0 0 1 10 -10"></path><path d="M 279.5 177 a 10 10 0 0 1 10 10 v 190 a 10 10 0 0 0 10 10"></path><g class="terminal ">
<path d="M 299.5 387 h 0.0"></path><path d="M 362.0 387 h 0.0"></path><rect height="22" rx="10" ry="10" width="62.5" x="299.5" y="376"></rect><text x="330.75" y="391">"1KI"</text></g><path d="M 362.0 387 a 10 10 0 0 0 10 -10 v -190 a 10 10 0 0 1 10 -10"></path><path d="M 279.5 177 a 10 10 0 0 1 10 10 v 220 a 10 10 0 0 0 10 10"></path><g class="terminal ">
<path d="M 299.5 417 h 0.0"></path><path d="M 362.0 417 h 0.0"></path><rect height="22" rx="10" ry="10" width="62.5" x="299.5" y="406"></rect><text x="330.75" y="421">"2KI"</text></g><path d="M 362.0 417 a 10 10 0 0 0 10 -10 v -220 a 10 10 0 0 1 10 -10"></path><path d="M 279.5 177 a 10 10 0 0 1 10 10 v 250 a 10 10 0 0 0 10 10"></path><g class="terminal ">
<path d="M 299.5 447 h 0.0"></path><path d="M 362.0 447 h 0.0"></path><rect height="22" rx="10" ry="10" width="62.5" x="299.5" y="436"></rect><text x="330.75" y="451">"1CH"</text></g><path d="M 362.0 447 a 10 10 0 0 0 10 -10 v -250 a 10 10 0 0 1 10 -10"></path></g><path d="M 382.0 177 a 10 10 0 0 1 10 10 v 269 a 10 10 0 0 0 10 10"></path><path d="M 382.0 68 a 10 10 0 0 1 10 10 v 89 a 10 10 0 0 0 10 10"></path><g>
<path d="M 402.0 177 h 0.0"></path><path d="M 504.5 177 h 0.0"></path><path d="M 402.0 177 a 10 10 0 0 0 10 -10 v -10 a 10 10 0 0 1 10 -10"></path><g class="terminal ">
<path d="M 422.0 147 h 0.0"></path><path d="M 484.5 147 h 0.0"></path><rect height="22" rx="10" ry="10" width="62.5" x="422.0" y="136"></rect><text x="453.25" y="151">"NEH"</text></g><path d="M 484.5 147 a 10 10 0 0 1 10 10 v 10 a 10 10 0 0 0 10 10"></path><path d="M 402.0 177 a 10 10 0 0 0 10 -10 v -40 a 10 10 0 0 1 10 -10"></path><g class="terminal ">
<path d="M 422.0 117 h 0.0"></path><path d="M 484.5 117 h 0.0"></path><rect height="22" rx="10" ry="10" width="62.5" x="422.0" y="106"></rect><text x="453.25" y="121">"EZR"</text></g><path d="M 484.5 117 a 10 10 0 0 1 10 10 v 40 a 10 10 0 0 0 10 10"></path><path d="M 402.0 177 a 10 10 0 0 0 10 -10 v -70 a 10 10 0 0 1 10 -10"></path><g class="terminal ">
<path d="M 422.0 87 h 0.0"></path><path d="M 484.5 87 h 0.0"></path><rect height="22" rx="10" ry="10" width="62.5" x="422.0" y="76"></rect><text x="453.25" y="91">"2CH"</text></g><path d="M 484.5 87 a 10 10 0 0 1 10 10 v 70 a 10 10 0 0 0 10 10"></path><path d="M 402.0 177 h 20"></path><g class="terminal ">
<path d="M 422.0 177 h 0.0"></path><path d="M 484.5 177 h 0.0"></path><rect height="22" rx="10" ry="10" width="62.5" x="422.0" y="166"></rect><text x="453.25" y="181">"EST"</text></g><path d="M 484.5 177 h 20"></path><path d="M 402.0 177 a 10 10 0 0 1 10 10 v 10 a 10 10 0 0 0 10 10"></path><g class="terminal ">
<path d="M 422.0 207 h 0.0"></path><path d="M 484.5 207 h 0.0"></path><rect height="22" rx="10" ry="10" width="62.5" x="422.0" y="196"></rect><text x="453.25" y="211">"JOB"</text></g><path d="M 484.5 207 a 10 10 0 0 0 10 -10 v -10 a 10 10 0 0 1 10 -10"></path><path d="M 402.0 177 a 10 10 0 0 1 10 10 v 40 a 10 10 0 0 0 10 10"></path><g class="terminal ">
<path d="M 422.0 237 h 0.0"></path><path d="M 484.5 237 h 0.0"></path><rect height="22" rx="10" ry="10" width="62.5" x="422.0" y="226"></rect><text x="453.25" y="241">"PSA"</text></g><path d="M 484.5 237 a 10 10 0 0 0 10 -10 v -40 a 10 10 0 0 1 10 -10"></path><path d="M 402.0 177 a 10 10 0 0 1 10 10 v 70 a 10 10 0 0 0 10 10"></path><g class="terminal ">
<path d="M 422.0 267 h 0.0"></path><path d="M 484.5 267 h 0.0"></path><rect height="22" rx="10" ry="10" width="62.5" x="422.0" y="256"></rect><text x="453.25" y="271">"PRO"</text></g><path d="M 484.5 267 a 10 10 0 0 0 10 -10 v -70 a 10 10 0 0 1 10 -10"></path><path d="M 402.0 177 a 10 10 0 0 1 10 10 v 100 a 10 10 0 0 0 10 10"></path><g class="terminal ">
<path d="M 422.0 297 h 0.0"></path><path d="M 484.5 297 h 0.0"></path><rect height="22" rx="10" ry="10" width="62.5" x="422.0" y="286"></rect><text x="453.25" y="301">"ECC"</text></g><path d="M 484.5 297 a 10 10 0 0 0 10 -10 v -100 a 10 10 0 0 1 10 -10"></path><path d="M 402.0 177 a 10 10 0 0 1 10 10 v 130 a 10 10 0 0 0 10 10"></path><g class="terminal ">
<path d="M 422.0 327 h 0.0"></path><path d="M 484.5 327 h 0.0"></path><rect height="22" rx="10" ry="10" width="62.5" x="422.0" y="316"></rect><text x="453.25" y="331">"SNG"</text></g><path d="M 484.5 327 a 10 10 0 0 0 10 -10 v -130 a 10 10 0 0 1 10 -10"></path><path d="M 402.0 177 a 10 10 0 0 1 10 10 v 160 a 10 10 0 0 0 10 10"></path><g class="terminal ">
<path d="M 422.0 357 h 0.0"></path><path d="M 484.5 357 h 0.0"></path><rect height="22" rx="10" ry="10" width="62.5" x="422.0" y="346"></rect><text x="453.25" y="361">"ISA"</text></g><path d="M 484.5 357 a 10 10 0 0 0 10 -10 v -160 a 10 10 0 0 1 10 -10"></path><path d="M 402.0 177 a 10 10 0 0 1 10 10 v 190 a 10 10 0 0 0 10 10"></path><g class="terminal ">
<path d="M 422.0 387 h 0.0"></path><path d="M 484.5 387 h 0.0"></path><rect height="22" rx="10" ry="10" width="62.5" x="422.0" y="376"></rect><text x="453.25" y="391">"JER"</text></g><path d="M 484.5 387 a 10 10 0 0 0 10 -10 v -190 a 10 10 0 0 1 10 -10"></path><path d="M 402.0 177 a 10 10 0 0 1 10 10 v 220 a 10 10 0 0 0 10 10"></path><g class="terminal ">
<path d="M 422.0 417 h 0.0"></path><path d="M 484.5 417 h 0.0"></path><rect height="22" rx="10" ry="10" width="62.5" x="422.0" y="406"></rect><text x="453.25" y="421">"LAM"</text></g><path d="M 484.5 417 a 10 10 0 0 0 10 -10 v -220 a 10 10 0 0 1 10 -10"></path><path d="M 402.0 177 a 10 10 0 0 1 10 10 v 250 a 10 10 0 0 0 10 10"></path><g class="terminal ">
<path d="M 422.0 447 h 0.0"></path><path d="M 484.5 447 h 0.0"></path><rect height="22" rx="10" ry="10" width="62.5" x="422.0" y="436"></rect><text x="453.25" y="451">"EZK"</text></g><path d="M 484.5 447 a 10 10 0 0 0 10 -10 v -250 a 10 10 0 0 1 10 -10"></path></g><path d="M 504.5 177 a 10 10 0 0 1 10 10 v 269 a 10 10 0 0 0 10 10"></path><path d="M 504.5 68 a 10 10 0 0 1 10 10 v 89 a 10 10 0 0 0 10 10"></path><g>
<path d="M 524.5 177 h 0.0"></path><path d="M 627.0 177 h 0.0"></path><path d="M 524.5 177 a 10 10 0 0 0 10 -10 v -10 a 10 10 0 0 1 10 -10"></path><g class="terminal ">
<path d="M 544.5 147 h 0.0"></path><path d="M 607.0 147 h 0.0"></path><rect height="22" rx="10" ry="10" width="62.5" x="544.5" y="136"></rect><text x="575.75" y="151">"JOL"</text></g><path d="M 607.0 147 a 10 10 0 0 1 10 10 v 10 a 10 10 0 0 0 10 10"></path><path d="M 524.5 177 a 10 10 0 0 0 10 -10 v -40 a 10 10 0 0 1 10 -10"></path><g class="terminal ">
<path d="M 544.5 117 h 0.0"></path><path d="M 607.0 117 h 0.0"></path><rect height="22" rx="10" ry="10" width="62.5" x="544.5" y="106"></rect><text x="575.75" y="121">"HOS"</text></g><path d="M 607.0 117 a 10 10 0 0 1 10 10 v 40 a 10 10 0 0 0 10 10"></path><path d="M 524.5 177 a 10 10 0 0 0 10 -10 v -70 a 10 10 0 0 1 10 -10"></path><g class="terminal ">
<path d="M 544.5 87 h 0.0"></path><path d="M 607.0 87 h 0.0"></path><rect height="22" rx="10" ry="10" width="62.5" x="544.5" y="76"></rect><text x="575.75" y="91">"DAN"</text></g><path d="M 607.0 87 a 10 10 0 0 1 10 10 v 70 a 10 10 0 0 0 10 10"></path><path d="M 524.5 177 h 20"></path><g class="terminal ">
<path d="M 544.5 177 h 0.0"></path><path d="M 607.0 177 h 0.0"></path><rect height="22" rx="10" ry="10" width="62.5" x="544.5" y="166"></rect><text x="575.75" y="181">"AMO"</text></g><path d="M 607.0 177 h 20"></path><path d="M 524.5 177 a 10 10 0 0 1 10 10 v 10 a 10 10 0 0 0 10 10"></path><g class="terminal ">
<path d="M 544.5 207 h 0.0"></path><path d="M 607.0 207 h 0.0"></path><rect height="22" rx="10" ry="10" width="62.5" x="544.5" y="196"></rect><text x="575.75" y="211">"OBA"</text></g><path d="M 607.0 207 a 10 10 0 0 0 10 -10 v -10 a 10 10 0 0 1 10 -10"></path><path d="M 524.5 177 a 10 10 0 0 1 10 10 v 40 a 10 10 0 0 0 10 10"></path><g class="terminal ">
<path d="M 544.5 237 h 0.0"></path><path d="M 607.0 237 h 0.0"></path><rect height="22" rx="10" ry="10" width="62.5" x="544.5" y="226"></rect><text x="575.75" y="241">"JON"</text></g><path d="M 607.0 237 a 10 10 0 0 0 10 -10 v -40 a 10 10 0 0 1 10 -10"></path><path d="M 524.5 177 a 10 10 0 0 1 10 10 v 70 a 10 10 0 0 0 10 10"></path><g class="terminal ">
<path d="M 544.5 267 h 0.0"></path><path d="M 607.0 267 h 0.0"></path><rect height="22" rx="10" ry="10" width="62.5" x="544.5" y="256"></rect><text x="575.75" y="271">"MIC"</text></g><path d="M 607.0 267 a 10 10 0 0 0 10 -10 v -70 a 10 10 0 0 1 10 -10"></path><path d="M 524.5 177 a 10 10 0 0 1 10 10 v 100 a 10 10 0 0 0 10 10"></path><g class="terminal ">
<path d="M 544.5 297 h 0.0"></path><path d="M 607.0 297 h 0.0"></path><rect height="22" rx="10" ry="10" width="62.5" x="544.5" y="286"></rect><text x="575.75" y="301">"NAM"</text></g><path d="M 607.0 297 a 10 10 0 0 0 10 -10 v -100 a 10 10 0 0 1 10 -10"></path><path d="M 524.5 177 a 10 10 0 0 1 10 10 v 130 a 10 10 0 0 0 10 10"></path><g class="terminal ">
<path d="M 544.5 327 h 0.0"></path><path d="M 607.0 327 h 0.0"></path><rect height="22" rx="10" ry="10" width="62.5" x="544.5" y="316"></rect><text x="575.75" y="331">"HAB"</text></g><path d="M 607.0 327 a 10 10 0 0 0 10 -10 v -130 a 10 10 0 0 1 10 -10"></path><path d="M 524.5 177 a 10 10 0 0 1 10 10 v 160 a 10 10 0 0 0 10 10"></path><g class="terminal ">
<path d="M 544.5 357 h 0.0"></path><path d="M 607.0 357 h 0.0"></path><rect height="22" rx="10" ry="10" width="62.5" x="544.5" y="346"></rect><text x="575.75" y="361">"ZEP"</text></g><path d="M 607.0 357 a 10 10 0 0 0 10 -10 v -160 a 10 10 0 0 1 10 -10"></path><path d="M 524.5 177 a 10 10 0 0 1 10 10 v 190 a 10 10 0 0 0 10 10"></path><g class="terminal ">
<path d="M 544.5 387 h 0.0"></path><path d="M 607.0 387 h 0.0"></path><rect height="22" rx="10" ry="10" width="62.5" x="544.5" y="376"></rect><text x="575.75" y="391">"HAG"</text></g><path d="M 607.0 387 a 10 10 0 0 0 10 -10 v -190 a 10 10 0 0 1 10 -10"></path><path d="M 524.5 177 a 10 10 0 0 1 10 10 v 220 a 10 10 0 0 0 10 10"></path><g class="terminal ">
<path d="M 544.5 417 h 0.0"></path><path d="M 607.0 417 h 0.0"></path><rect height="22" rx="10" ry="10" width="62.5" x="544.5" y="406"></rect><text x="575.75" y="421">"ZEC"</text></g><path d="M 607.0 417 a 10 10 0 0 0 10 -10 v -220 a 10 10 0 0 1 10 -10"></path><path d="M 524.5 177 a 10 10 0 0 1 10 10 v 250 a 10 10 0 0 0 10 10"></path><g class="terminal ">
<path d="M 544.5 447 h 0.0"></path><path d="M 607.0 447 h 0.0"></path><rect height="22" rx="10" ry="10" width="62.5" x="544.5" y="436"></rect><text x="575.75" y="451">"MAL"</text></g><path d="M 607.0 447 a 10 10 0 0 0 10 -10 v -250 a 10 10 0 0 1 10 -10"></path></g><path d="M 627.0 177 a 10 10 0 0 1 10 10 v 269 a 10 10 0 0 0 10 10"></path><path d="M 627.0 68 a 10 10 0 0 1 10 10 v 89 a 10 10 0 0 0 10 10"></path><g>
<path d="M 647.0 177 h 0.0"></path><path d="M 749.5 177 h 0.0"></path><path d="M 647.0 177 a 10 10 0 0 0 10 -10 v -10 a 10 10 0 0 1 10 -10"></path><g class="terminal ">
<path d="M 667.0 147 h 0.0"></path><path d="M 729.5 147 h 0.0"></path><rect height="22" rx="10" ry="10" width="62.5" x="667.0" y="136"></rect><text x="698.25" y="151">"LUK"</text></g><path d="M 729.5 147 a 10 10 0 0 1 10 10 v 10 a 10 10 0 0 0 10 10"></path><path d="M 647.0 177 a 10 10 0 0 0 10 -10 v -40 a 10 10 0 0 1 10 -10"></path><g class="terminal ">
<path d="M 667.0 117 h 0.0"></path><path d="M 729.5 117 h 0.0"></path><rect height="22" rx="10" ry="10" width="62.5" x="667.0" y="106"></rect><text x="698.25" y="121">"MRK"</text></g><path d="M 729.5 117 a 10 10 0 0 1 10 10 v 40 a 10 10 0 0 0 10 10"></path><path d="M 647.0 177 a 10 10 0 0 0 10 -10 v -70 a 10 10 0 0 1 10 -10"></path><g class="terminal ">
<path d="M 667.0 87 h 0.0"></path><path d="M 729.5 87 h 0.0"></path><rect height="22" rx="10" ry="10" width="62.5" x="667.0" y="76"></rect><text x="698.25" y="91">"MAT"</text></g><path d="M 729.5 87 a 10 10 0 0 1 10 10 v 70 a 10 10 0 0 0 10 10"></path><path d="M 647.0 177 h 20"></path><g class="terminal ">
<path d="M 667.0 177 h 0.0"></path><path d="M 729.5 177 h 0.0"></path><rect height="22" rx="10" ry="10" width="62.5" x="667.0" y="166"></rect><text x="698.25" y="181">"JHN"</text></g><path d="M 729.5 177 h 20"></path><path d="M 647.0 177 a 10 10 0 0 1 10 10 v 10 a 10 10 0 0 0 10 10"></path><g class="terminal ">
<path d="M 667.0 207 h 0.0"></path><path d="M 729.5 207 h 0.0"></path><rect height="22" rx="10" ry="10" width="62.5" x="667.0" y="196"></rect><text x="698.25" y="211">"ACT"</text></g><path d="M 729.5 207 a 10 10 0 0 0 10 -10 v -10 a 10 10 0 0 1 10 -10"></path><path d="M 647.0 177 a 10 10 0 0 1 10 10 v 40 a 10 10 0 0 0 10 10"></path><g class="terminal ">
<path d="M 667.0 237 h 0.0"></path><path d="M 729.5 237 h 0.0"></path><rect height="22" rx="10" ry="10" width="62.5" x="667.0" y="226"></rect><text x="698.25" y="241">"ROM"</text></g><path d="M 729.5 237 a 10 10 0 0 0 10 -10 v -40 a 10 10 0 0 1 10 -10"></path><path d="M 647.0 177 a 10 10 0 0 1 10 10 v 70 a 10 10 0 0 0 10 10"></path><g class="terminal ">
<path d="M 667.0 267 h 0.0"></path><path d="M 729.5 267 h 0.0"></path><rect height="22" rx="10" ry="10" width="62.5" x="667.0" y="256"></rect><text x="698.25" y="271">"1CO"</text></g><path d="M 729.5 267 a 10 10 0 0 0 10 -10 v -70 a 10 10 0 0 1 10 -10"></path><path d="M 647.0 177 a 10 10 0 0 1 10 10 v 100 a 10 10 0 0 0 10 10"></path><g class="terminal ">
<path d="M 667.0 297 h 0.0"></path><path d="M 729.5 297 h 0.0"></path><rect height="22" rx="10" ry="10" width="62.5" x="667.0" y="286"></rect><text x="698.25" y="301">"2CO"</text></g><path d="M 729.5 297 a 10 10 0 0 0 10 -10 v -100 a 10 10 0 0 1 10 -10"></path><path d="M 647.0 177 a 10 10 0 0 1 10 10 v 130 a 10 10 0 0 0 10 10"></path><g class="terminal ">
<path d="M 667.0 327 h 0.0"></path><path d="M 729.5 327 h 0.0"></path><rect height="22" rx="10" ry="10" width="62.5" x="667.0" y="316"></rect><text x="698.25" y="331">"GAL"</text></g><path d="M 729.5 327 a 10 10 0 0 0 10 -10 v -130 a 10 10 0 0 1 10 -10"></path><path d="M 647.0 177 a 10 10 0 0 1 10 10 v 160 a 10 10 0 0 0 10 10"></path><g class="terminal ">
<path d="M 667.0 357 h 0.0"></path><path d="M 729.5 357 h 0.0"></path><rect height="22" rx="10" ry="10" width="62.5" x="667.0" y="346"></rect><text x="698.25" y="361">"EPH"</text></g><path d="M 729.5 357 a 10 10 0 0 0 10 -10 v -160 a 10 10 0 0 1 10 -10"></path><path d="M 647.0 177 a 10 10 0 0 1 10 10 v 190 a 10 10 0 0 0 10 10"></path><g class="terminal ">
<path d="M 667.0 387 h 0.0"></path><path d="M 729.5 387 h 0.0"></path><rect height="22" rx="10" ry="10" width="62.5" x="667.0" y="376"></rect><text x="698.25" y="391">"PHP"</text></g><path d="M 729.5 387 a 10 10 0 0 0 10 -10 v -190 a 10 10 0 0 1 10 -10"></path><path d="M 647.0 177 a 10 10 0 0 1 10 10 v 220 a 10 10 0 0 0 10 10"></path><g class="terminal ">
<path d="M 667.0 417 h 0.0"></path><path d="M 729.5 417 h 0.0"></path><rect height="22" rx="10" ry="10" width="62.5" x="667.0" y="406"></rect><text x="698.25" y="421">"COL"</text></g><path d="M 729.5 417 a 10 10 0 0 0 10 -10 v -220 a 10 10 0 0 1 10 -10"></path><path d="M 647.0 177 a 10 10 0 0 1 10 10 v 250 a 10 10 0 0 0 10 10"></path><g class="terminal ">
<path d="M 667.0 447 h 0.0"></path><path d="M 729.5 447 h 0.0"></path><rect height="22" rx="10" ry="10" width="62.5" x="667.0" y="436"></rect><text x="698.25" y="451">"1TH"</text></g><path d="M 729.5 447 a 10 10 0 0 0 10 -10 v -250 a 10 10 0 0 1 10 -10"></path></g><path d="M 749.5 177 a 10 10 0 0 1 10 10 v 269 a 10 10 0 0 0 10 10"></path><path d="M 749.5 68 a 10 10 0 0 1 10 10 v 89 a 10 10 0 0 0 10 10"></path><g>
<path d="M 769.5 177 h 0.0"></path><path d="M 872.0 177 h 0.0"></path><path d="M 769.5 177 a 10 10 0 0 0 10 -10 v -10 a 10 10 0 0 1 10 -10"></path><g class="terminal ">
<path d="M 789.5 147 h 0.0"></path><path d="M 852.0 147 h 0.0"></path><rect height="22" rx="10" ry="10" width="62.5" x="789.5" y="136"></rect><text x="820.75" y="151">"2TI"</text></g><path d="M 852.0 147 a 10 10 0 0 1 10 10 v 10 a 10 10 0 0 0 10 10"></path><path d="M 769.5 177 a 10 10 0 0 0 10 -10 v -40 a 10 10 0 0 1 10 -10"></path><g class="terminal ">
<path d="M 789.5 117 h 0.0"></path><path d="M 852.0 117 h 0.0"></path><rect height="22" rx="10" ry="10" width="62.5" x="789.5" y="106"></rect><text x="820.75" y="121">"1TI"</text></g><path d="M 852.0 117 a 10 10 0 0 1 10 10 v 40 a 10 10 0 0 0 10 10"></path><path d="M 769.5 177 a 10 10 0 0 0 10 -10 v -70 a 10 10 0 0 1 10 -10"></path><g class="terminal ">
<path d="M 789.5 87 h 0.0"></path><path d="M 852.0 87 h 0.0"></path><rect height="22" rx="10" ry="10" width="62.5" x="789.5" y="76"></rect><text x="820.75" y="91">"2TH"</text></g><path d="M 852.0 87 a 10 10 0 0 1 10 10 v 70 a 10 10 0 0 0 10 10"></path><path d="M 769.5 177 h 20"></path><g class="terminal ">
<path d="M 789.5 177 h 0.0"></path><path d="M 852.0 177 h 0.0"></path><rect height="22" rx="10" ry="10" width="62.5" x="789.5" y="166"></rect><text x="820.75" y="181">"TIT"</text></g><path d="M 852.0 177 h 20"></path><path d="M 769.5 177 a 10 10 0 0 1 10 10 v 10 a 10 10 0 0 0 10 10"></path><g class="terminal ">
<path d="M 789.5 207 h 0.0"></path><path d="M 852.0 207 h 0.0"></path><rect height="22" rx="10" ry="10" width="62.5" x="789.5" y="196"></rect><text x="820.75" y="211">"PHM"</text></g><path d="M 852.0 207 a 10 10 0 0 0 10 -10 v -10 a 10 10 0 0 1 10 -10"></path><path d="M 769.5 177 a 10 10 0 0 1 10 10 v 40 a 10 10 0 0 0 10 10"></path><g class="terminal ">
<path d="M 789.5 237 h 0.0"></path><path d="M 852.0 237 h 0.0"></path><rect height="22" rx="10" ry="10" width="62.5" x="789.5" y="226"></rect><text x="820.75" y="241">"HEB"</text></g><path d="M 852.0 237 a 10 10 0 0 0 10 -10 v -40 a 10 10 0 0 1 10 -10"></path><path d="M 769.5 177 a 10 10 0 0 1 10 10 v 70 a 10 10 0 0 0 10 10"></path><g class="terminal ">
<path d="M 789.5 267 h 0.0"></path><path d="M 852.0 267 h 0.0"></path><rect height="22" rx="10" ry="10" width="62.5" x="789.5" y="256"></rect><text x="820.75" y="271">"JAS"</text></g><path d="M 852.0 267 a 10 10 0 0 0 10 -10 v -70 a 10 10 0 0 1 10 -10"></path><path d="M 769.5 177 a 10 10 0 0 1 10 10 v 100 a 10 10 0 0 0 10 10"></path><g class="terminal ">
<path d="M 789.5 297 h 0.0"></path><path d="M 852.0 297 h 0.0"></path><rect height="22" rx="10" ry="10" width="62.5" x="789.5" y="286"></rect><text x="820.75" y="301">"1PE"</text></g><path d="M 852.0 297 a 10 10 0 0 0 10 -10 v -100 a 10 10 0 0 1 10 -10"></path><path d="M 769.5 177 a 10 10 0 0 1 10 10 v 130 a 10 10 0 0 0 10 10"></path><g class="terminal ">
<path d="M 789.5 327 h 0.0"></path><path d="M 852.0 327 h 0.0"></path><rect height="22" rx="10" ry="10" width="62.5" x="789.5" y="316"></rect><text x="820.75" y="331">"2PE"</text></g><path d="M 852.0 327 a 10 10 0 0 0 10 -10 v -130 a 10 10 0 0 1 10 -10"></path><path d="M 769.5 177 a 10 10 0 0 1 10 10 v 160 a 10 10 0 0 0 10 10"></path><g class="terminal ">
<path d="M 789.5 357 h 0.0"></path><path d="M 852.0 357 h 0.0"></path><rect height="22" rx="10" ry="10" width="62.5" x="789.5" y="346"></rect><text x="820.75" y="361">"1JN"</text></g><path d="M 852.0 357 a 10 10 0 0 0 10 -10 v -160 a 10 10 0 0 1 10 -10"></path><path d="M 769.5 177 a 10 10 0 0 1 10 10 v 190 a 10 10 0 0 0 10 10"></path><g class="terminal ">
<path d="M 789.5 387 h 0.0"></path><path d="M 852.0 387 h 0.0"></path><rect height="22" rx="10" ry="10" width="62.5" x="789.5" y="376"></rect><text x="820.75" y="391">"2JN"</text></g><path d="M 852.0 387 a 10 10 0 0 0 10 -10 v -190 a 10 10 0 0 1 10 -10"></path><path d="M 769.5 177 a 10 10 0 0 1 10 10 v 220 a 10 10 0 0 0 10 10"></path><g class="terminal ">
<path d="M 789.5 417 h 0.0"></path><path d="M 852.0 417 h 0.0"></path><rect height="22" rx="10" ry="10" width="62.5" x="789.5" y="406"></rect><text x="820.75" y="421">"3JN"</text></g><path d="M 852.0 417 a 10 10 0 0 0 10 -10 v -220 a 10 10 0 0 1 10 -10"></path><path d="M 769.5 177 a 10 10 0 0 1 10 10 v 250 a 10 10 0 0 0 10 10"></path><g class="terminal ">
<path d="M 789.5 447 h 0.0"></path><path d="M 852.0 447 h 0.0"></path><rect height="22" rx="10" ry="10" width="62.5" x="789.5" y="436"></rect><text x="820.75" y="451">"JUD"</text></g><path d="M 852.0 447 a 10 10 0 0 0 10 -10 v -250 a 10 10 0 0 1 10 -10"></path></g><path d="M 872.0 177 a 10 10 0 0 1 10 10 v 269 a 10 10 0 0 0 10 10"></path><path d="M 872.0 68 a 10 10 0 0 1 10 10 v 89 a 10 10 0 0 0 10 10"></path><g>
<path d="M 892.0 177 h 0.0"></path><path d="M 994.5 177 h 0.0"></path><path d="M 892.0 177 a 10 10 0 0 0 10 -10 v -10 a 10 10 0 0 1 10 -10"></path><g class="terminal ">
<path d="M 912.0 147 h 0.0"></path><path d="M 974.5 147 h 0.0"></path><rect height="22" rx="10" ry="10" width="62.5" x="912.0" y="136"></rect><text x="943.25" y="151">"JDT"</text></g><path d="M 974.5 147 a 10 10 0 0 1 10 10 v 10 a 10 10 0 0 0 10 10"></path><path d="M 892.0 177 a 10 10 0 0 0 10 -10 v -40 a 10 10 0 0 1 10 -10"></path><g class="terminal ">
<path d="M 912.0 117 h 0.0"></path><path d="M 974.5 117 h 0.0"></path><rect height="22" rx="10" ry="10" width="62.5" x="912.0" y="106"></rect><text x="943.25" y="121">"TOB"</text></g><path d="M 974.5 117 a 10 10 0 0 1 10 10 v 40 a 10 10 0 0 0 10 10"></path><path d="M 892.0 177 a 10 10 0 0 0 10 -10 v -70 a 10 10 0 0 1 10 -10"></path><g class="terminal ">
<path d="M 912.0 87 h 0.0"></path><path d="M 974.5 87 h 0.0"></path><rect height="22" rx="10" ry="10" width="62.5" x="912.0" y="76"></rect><text x="943.25" y="91">"REV"</text></g><path d="M 974.5 87 a 10 10 0 0 1 10 10 v 70 a 10 10 0 0 0 10 10"></path><path d="M 892.0 177 h 20"></path><g class="terminal ">
<path d="M 912.0 177 h 0.0"></path><path d="M 974.5 177 h 0.0"></path><rect height="22" rx="10" ry="10" width="62.5" x="912.0" y="166"></rect><text x="943.25" y="181">"ESG"</text></g><path d="M 974.5 177 h 20"></path><path d="M 892.0 177 a 10 10 0 0 1 10 10 v 10 a 10 10 0 0 0 10 10"></path><g class="terminal ">
<path d="M 912.0 207 h 0.0"></path><path d="M 974.5 207 h 0.0"></path><rect height="22" rx="10" ry="10" width="62.5" x="912.0" y="196"></rect><text x="943.25" y="211">"WIS"</text></g><path d="M 974.5 207 a 10 10 0 0 0 10 -10 v -10 a 10 10 0 0 1 10 -10"></path><path d="M 892.0 177 a 10 10 0 0 1 10 10 v 40 a 10 10 0 0 0 10 10"></path><g class="terminal ">
<path d="M 912.0 237 h 0.0"></path><path d="M 974.5 237 h 0.0"></path><rect height="22" rx="10" ry="10" width="62.5" x="912.0" y="226"></rect><text x="943.25" y="241">"SIR"</text></g><path d="M 974.5 237 a 10 10 0 0 0 10 -10 v -40 a 10 10 0 0 1 10 -10"></path><path d="M 892.0 177 a 10 10 0 0 1 10 10 v 70 a 10 10 0 0 0 10 10"></path><g class="terminal ">
<path d="M 912.0 267 h 0.0"></path><path d="M 974.5 267 h 0.0"></path><rect height="22" rx="10" ry="10" width="62.5" x="912.0" y="256"></rect><text x="943.25" y="271">"BAR"</text></g><path d="M 974.5 267 a 10 10 0 0 0 10 -10 v -70 a 10 10 0 0 1 10 -10"></path><path d="M 892.0 177 a 10 10 0 0 1 10 10 v 100 a 10 10 0 0 0 10 10"></path><g class="terminal ">
<path d="M 912.0 297 h 0.0"></path><path d="M 974.5 297 h 0.0"></path><rect height="22" rx="10" ry="10" width="62.5" x="912.0" y="286"></rect><text x="943.25" y="301">"LJE"</text></g><path d="M 974.5 297 a 10 10 0 0 0 10 -10 v -100 a 10 10 0 0 1 10 -10"></path><path d="M 892.0 177 a 10 10 0 0 1 10 10 v 130 a 10 10 0 0 0 10 10"></path><g class="terminal ">
<path d="M 912.0 327 h 0.0"></path><path d="M 974.5 327 h 0.0"></path><rect height="22" rx="10" ry="10" width="62.5" x="912.0" y="316"></rect><text x="943.25" y="331">"S3Y"</text></g><path d="M 974.5 327 a 10 10 0 0 0 10 -10 v -130 a 10 10 0 0 1 10 -10"></path><path d="M 892.0 177 a 10 10 0 0 1 10 10 v 160 a 10 10 0 0 0 10 10"></path><g class="terminal ">
<path d="M 912.0 357 h 0.0"></path><path d="M 974.5 357 h 0.0"></path><rect height="22" rx="10" ry="10" width="62.5" x="912.0" y="346"></rect><text x="943.25" y="361">"SUS"</text></g><path d="M 974.5 357 a 10 10 0 0 0 10 -10 v -160 a 10 10 0 0 1 10 -10"></path><path d="M 892.0 177 a 10 10 0 0 1 10 10 v 190 a 10 10 0 0 0 10 10"></path><g class="terminal ">
<path d="M 912.0 387 h 0.0"></path><path d="M 974.5 387 h 0.0"></path><rect height="22" rx="10" ry="10" width="62.5" x="912.0" y="376"></rect><text x="943.25" y="391">"BEL"</text></g><path d="M 974.5 387 a 10 10 0 0 0 10 -10 v -190 a 10 10 0 0 1 10 -10"></path><path d="M 892.0 177 a 10 10 0 0 1 10 10 v 220 a 10 10 0 0 0 10 10"></path><g class="terminal ">
<path d="M 912.0 417 h 0.0"></path><path d="M 974.5 417 h 0.0"></path><rect height="22" rx="10" ry="10" width="62.5" x="912.0" y="406"></rect><text x="943.25" y="421">"1MA"</text></g><path d="M 974.5 417 a 10 10 0 0 0 10 -10 v -220 a 10 10 0 0 1 10 -10"></path><path d="M 892.0 177 a 10 10 0 0 1 10 10 v 250 a 10 10 0 0 0 10 10"></path><g class="terminal ">
<path d="M 912.0 447 h 0.0"></path><path d="M 974.5 447 h 0.0"></path><rect height="22" rx="10" ry="10" width="62.5" x="912.0" y="436"></rect><text x="943.25" y="451">"2MA"</text></g><path d="M 974.5 447 a 10 10 0 0 0 10 -10 v -250 a 10 10 0 0 1 10 -10"></path></g><path d="M 994.5 177 a 10 10 0 0 1 10 10 v 269 a 10 10 0 0 0 10 10"></path><path d="M 994.5 68 a 10 10 0 0 1 10 10 v 89 a 10 10 0 0 0 10 10"></path><g>
<path d="M 1014.5 177 h 0.0"></path><path d="M 1117.0 177 h 0.0"></path><path d="M 1014.5 177 a 10 10 0 0 0 10 -10 v -10 a 10 10 0 0 1 10 -10"></path><g class="terminal ">
<path d="M 1034.5 147 h 0.0"></path><path d="M 1097.0 147 h 0.0"></path><rect height="22" rx="10" ry="10" width="62.5" x="1034.5" y="136"></rect><text x="1065.75" y="151">"1ES"</text></g><path d="M 1097.0 147 a 10 10 0 0 1 10 10 v 10 a 10 10 0 0 0 10 10"></path><path d="M 1014.5 177 a 10 10 0 0 0 10 -10 v -40 a 10 10 0 0 1 10 -10"></path><g class="terminal ">
<path d="M 1034.5 117 h 0.0"></path><path d="M 1097.0 117 h 0.0"></path><rect height="22" rx="10" ry="10" width="62.5" x="1034.5" y="106"></rect><text x="1065.75" y="121">"4MA"</text></g><path d="M 1097.0 117 a 10 10 0 0 1 10 10 v 40 a 10 10 0 0 0 10 10"></path><path d="M 1014.5 177 a 10 10 0 0 0 10 -10 v -70 a 10 10 0 0 1 10 -10"></path><g class="terminal ">
<path d="M 1034.5 87 h 0.0"></path><path d="M 1097.0 87 h 0.0"></path><rect height="22" rx="10" ry="10" width="62.5" x="1034.5" y="76"></rect><text x="1065.75" y="91">"3MA"</text></g><path d="M 1097.0 87 a 10 10 0 0 1 10 10 v 70 a 10 10 0 0 0 10 10"></path><path d="M 1014.5 177 h 20"></path><g class="terminal ">
<path d="M 1034.5 177 h 0.0"></path><path d="M 1097.0 177 h 0.0"></path><rect height="22" rx="10" ry="10" width="62.5" x="1034.5" y="166"></rect><text x="1065.75" y="181">"2ES"</text></g><path d="M 1097.0 177 h 20"></path><path d="M 1014.5 177 a 10 10 0 0 1 10 10 v 10 a 10 10 0 0 0 10 10"></path><g class="terminal ">
<path d="M 1034.5 207 h 0.0"></path><path d="M 1097.0 207 h 0.0"></path><rect height="22" rx="10" ry="10" width="62.5" x="1034.5" y="196"></rect><text x="1065.75" y="211">"MAN"</text></g><path d="M 1097.0 207 a 10 10 0 0 0 10 -10 v -10 a 10 10 0 0 1 10 -10"></path><path d="M 1014.5 177 a 10 10 0 0 1 10 10 v 40 a 10 10 0 0 0 10 10"></path><g class="terminal ">
<path d="M 1034.5 237 h 0.0"></path><path d="M 1097.0 237 h 0.0"></path><rect height="22" rx="10" ry="10" width="62.5" x="1034.5" y="226"></rect><text x="1065.75" y="241">"PS2"</text></g><path d="M 1097.0 237 a 10 10 0 0 0 10 -10 v -40 a 10 10 0 0 1 10 -10"></path><path d="M 1014.5 177 a 10 10 0 0 1 10 10 v 70 a 10 10 0 0 0 10 10"></path><g class="terminal ">
<path d="M 1034.5 267 h 0.0"></path><path d="M 1097.0 267 h 0.0"></path><rect height="22" rx="10" ry="10" width="62.5" x="1034.5" y="256"></rect><text x="1065.75" y="271">"ODA"</text></g><path d="M 1097.0 267 a 10 10 0 0 0 10 -10 v -70 a 10 10 0 0 1 10 -10"></path><path d="M 1014.5 177 a 10 10 0 0 1 10 10 v 100 a 10 10 0 0 0 10 10"></path><g class="terminal ">
<path d="M 1034.5 297 h 0.0"></path><path d="M 1097.0 297 h 0.0"></path><rect height="22" rx="10" ry="10" width="62.5" x="1034.5" y="286"></rect><text x="1065.75" y="301">"PSS"</text></g><path d="M 1097.0 297 a 10 10 0 0 0 10 -10 v -100 a 10 10 0 0 1 10 -10"></path><path d="M 1014.5 177 a 10 10 0 0 1 10 10 v 130 a 10 10 0 0 0 10 10"></path><g class="terminal ">
<path d="M 1034.5 327 h 0.0"></path><path d="M 1097.0 327 h 0.0"></path><rect height="22" rx="10" ry="10" width="62.5" x="1034.5" y="316"></rect><text x="1065.75" y="331">"EZA"</text></g><path d="M 1097.0 327 a 10 10 0 0 0 10 -10 v -130 a 10 10 0 0 1 10 -10"></path><path d="M 1014.5 177 a 10 10 0 0 1 10 10 v 160 a 10 10 0 0 0 10 10"></path><g class="terminal ">
<path d="M 1034.5 357 h 0.0"></path><path d="M 1097.0 357 h 0.0"></path><rect height="22" rx="10" ry="10" width="62.5" x="1034.5" y="346"></rect><text x="1065.75" y="361">"5EZ"</text></g><path d="M 1097.0 357 a 10 10 0 0 0 10 -10 v -160 a 10 10 0 0 1 10 -10"></path><path d="M 1014.5 177 a 10 10 0 0 1 10 10 v 190 a 10 10 0 0 0 10 10"></path><g class="terminal ">
<path d="M 1034.5 387 h 0.0"></path><path d="M 1097.0 387 h 0.0"></path><rect height="22" rx="10" ry="10" width="62.5" x="1034.5" y="376"></rect><text x="1065.75" y="391">"6EZ"</text></g><path d="M 1097.0 387 a 10 10 0 0 0 10 -10 v -190 a 10 10 0 0 1 10 -10"></path><path d="M 1014.5 177 a 10 10 0 0 1 10 10 v 220 a 10 10 0 0 0 10 10"></path><g class="terminal ">
<path d="M 1034.5 417 h 0.0"></path><path d="M 1097.0 417 h 0.0"></path><rect height="22" rx="10" ry="10" width="62.5" x="1034.5" y="406"></rect><text x="1065.75" y="421">"DAG"</text></g><path d="M 1097.0 417 a 10 10 0 0 0 10 -10 v -220 a 10 10 0 0 1 10 -10"></path><path d="M 1014.5 177 a 10 10 0 0 1 10 10 v 250 a 10 10 0 0 0 10 10"></path><g class="terminal ">
<path d="M 1034.5 447 h 0.0"></path><path d="M 1097.0 447 h 0.0"></path><rect height="22" rx="10" ry="10" width="62.5" x="1034.5" y="436"></rect><text x="1065.75" y="451">"PS3"</text></g><path d="M 1097.0 447 a 10 10 0 0 0 10 -10 v -250 a 10 10 0 0 1 10 -10"></path></g><path d="M 1117.0 177 a 10 10 0 0 1 10 10 v 269 a 10 10 0 0 0 10 10"></path><path d="M 1117.0 68 a 10 10 0 0 1 10 10 v 89 a 10 10 0 0 0 10 10"></path><g>
<path d="M 1137.0 177 h 0.0"></path><path d="M 1256.5 177 h 0.0"></path><path d="M 1137.0 177 a 10 10 0 0 0 10 -10 v -10 a 10 10 0 0 1 10 -10"></path><g class="terminal ">
<path d="M 1157.0 147 h 8.5"></path><path d="M 1228.0 147 h 8.5"></path><rect height="22" rx="10" ry="10" width="62.5" x="1165.5" y="136"></rect><text x="1196.75" y="151">"JUB"</text></g><path d="M 1236.5 147 a 10 10 0 0 1 10 10 v 10 a 10 10 0 0 0 10 10"></path><path d="M 1137.0 177 a 10 10 0 0 0 10 -10 v -40 a 10 10 0 0 1 10 -10"></path><g class="terminal ">
<path d="M 1157.0 117 h 8.5"></path><path d="M 1228.0 117 h 8.5"></path><rect height="22" rx="10" ry="10" width="62.5" x="1165.5" y="106"></rect><text x="1196.75" y="121">"LBA"</text></g><path d="M 1236.5 117 a 10 10 0 0 1 10 10 v 40 a 10 10 0 0 0 10 10"></path><path d="M 1137.0 177 a 10 10 0 0 0 10 -10 v -70 a 10 10 0 0 1 10 -10"></path><g class="terminal ">
<path d="M 1157.0 87 h 8.5"></path><path d="M 1228.0 87 h 8.5"></path><rect height="22" rx="10" ry="10" width="62.5" x="1165.5" y="76"></rect><text x="1196.75" y="91">"2BA"</text></g><path d="M 1236.5 87 a 10 10 0 0 1 10 10 v 70 a 10 10 0 0 0 10 10"></path><path d="M 1137.0 177 h 20"></path><g class="terminal ">
<path d="M 1157.0 177 h 8.5"></path><path d="M 1228.0 177 h 8.5"></path><rect height="22" rx="10" ry="10" width="62.5" x="1165.5" y="166"></rect><text x="1196.75" y="181">"ENO"</text></g><path d="M 1236.5 177 h 20"></path><path d="M 1137.0 177 a 10 10 0 0 1 10 10 v 10 a 10 10 0 0 0 10 10"></path><g class="terminal ">
<path d="M 1157.0 207 h 8.5"></path><path d="M 1228.0 207 h 8.5"></path><rect height="22" rx="10" ry="10" width="62.5" x="1165.5" y="196"></rect><text x="1196.75" y="211">"1MQ"</text></g><path d="M 1236.5 207 a 10 10 0 0 0 10 -10 v -10 a 10 10 0 0 1 10 -10"></path><path d="M 1137.0 177 a 10 10 0 0 1 10 10 v 40 a 10 10 0 0 0 10 10"></path><g class="terminal ">
<path d="M 1157.0 237 h 8.5"></path><path d="M 1228.0 237 h 8.5"></path><rect height="22" rx="10" ry="10" width="62.5" x="1165.5" y="226"></rect><text x="1196.75" y="241">"2MQ"</text></g><path d="M 1236.5 237 a 10 10 0 0 0 10 -10 v -40 a 10 10 0 0 1 10 -10"></path><path d="M 1137.0 177 a 10 10 0 0 1 10 10 v 70 a 10 10 0 0 0 10 10"></path><g class="terminal ">
<path d="M 1157.0 267 h 8.5"></path><path d="M 1228.0 267 h 8.5"></path><rect height="22" rx="10" ry="10" width="62.5" x="1165.5" y="256"></rect><text x="1196.75" y="271">"3MQ"</text></g><path d="M 1236.5 267 a 10 10 0 0 0 10 -10 v -70 a 10 10 0 0 1 10 -10"></path><path d="M 1137.0 177 a 10 10 0 0 1 10 10 v 100 a 10 10 0 0 0 10 10"></path><g class="terminal ">
<path d="M 1157.0 297 h 8.5"></path><path d="M 1228.0 297 h 8.5"></path><rect height="22" rx="10" ry="10" width="62.5" x="1165.5" y="286"></rect><text x="1196.75" y="301">"REP"</text></g><path d="M 1236.5 297 a 10 10 0 0 0 10 -10 v -100 a 10 10 0 0 1 10 -10"></path><path d="M 1137.0 177 a 10 10 0 0 1 10 10 v 130 a 10 10 0 0 0 10 10"></path><g class="terminal ">
<path d="M 1157.0 327 h 8.5"></path><path d="M 1228.0 327 h 8.5"></path><rect height="22" rx="10" ry="10" width="62.5" x="1165.5" y="316"></rect><text x="1196.75" y="331">"4BA"</text></g><path d="M 1236.5 327 a 10 10 0 0 0 10 -10 v -130 a 10 10 0 0 1 10 -10"></path><path d="M 1137.0 177 a 10 10 0 0 1 10 10 v 160 a 10 10 0 0 0 10 10"></path><g class="terminal ">
<path d="M 1157.0 357 h 8.5"></path><path d="M 1228.0 357 h 8.5"></path><rect height="22" rx="10" ry="10" width="62.5" x="1165.5" y="346"></rect><text x="1196.75" y="361">"LAO"</text></g><path d="M 1236.5 357 a 10 10 0 0 0 10 -10 v -160 a 10 10 0 0 1 10 -10"></path><path d="M 1137.0 177 a 10 10 0 0 1 10 10 v 190 a 10 10 0 0 0 10 10"></path><g class="terminal ">
<path d="M 1157.0 387 h 0.0"></path><path d="M 1236.5 387 h 0.0"></path><rect height="22" rx="10" ry="10" width="79.5" x="1157.0" y="376"></rect><text x="1196.75" y="391">/\S{3}/</text></g><path d="M 1236.5 387 a 10 10 0 0 0 10 -10 v -190 a 10 10 0 0 1 10 -10"></path></g><path d="M 1256.5 177 h 10"></path></g><path d="M 1266.5 177 h 10"></path><g class="terminal ">
<path d="M 1276.5 177 h 0.0"></path><path d="M 1313.5 177 h 0.0"></path><rect height="22" rx="10" ry="10" width="37.0" x="1276.5" y="166"></rect><text x="1295.0" y="181">WS</text></g></g><path d="M 1313.5 177 h 10"></path><g>
<path d="M 1323.5 177 h 0.0"></path><path d="M 1417.5 177 h 0.0"></path><path d="M 1323.5 177 a 10 10 0 0 0 10 -10 v 0 a 10 10 0 0 1 10 -10"></path><g>
<path d="M 1343.5 157 h 54.0"></path></g><path d="M 1397.5 157 a 10 10 0 0 1 10 10 v 0 a 10 10 0 0 0 10 10"></path><path d="M 1323.5 177 h 20"></path><g class="terminal ">
<path d="M 1343.5 177 h 0.0"></path><path d="M 1397.5 177 h 0.0"></path><rect height="22" rx="10" ry="10" width="54.0" x="1343.5" y="166"></rect><text x="1370.5" y="181">Text</text></g><path d="M 1397.5 177 h 20"></path></g><path d="M 1417.5 177 h 10"></path><g class="terminal ">
<path d="M 1427.5 177 h 0.0"></path><path d="M 1464.5 177 h 0.0"></path><rect height="22" rx="10" ry="10" width="37.0" x="1427.5" y="166"></rect><text x="1446.0" y="181">NL</text></g></g><g class="non-terminal ">
<path d="M 80.0 52 h 0.0"></path><path d="M 216.0 52 h 0.0"></path><text class="comment" x="148.0" y="57">BookIdentification</text></g></g><path d="M 1484.5 177 a 10 10 0 0 1 10 10 v 285 a 10 10 0 0 1 -10 10 h -1414.5 a 10 10 0 0 0 -10 10 v 23 a 10 10 0 0 0 10 10"></path><g>
<path d="M 70.0 525 h 41.5"></path><path d="M 1443.0 525 h 41.5"></path><g>
<path d="M 111.5 525 h 0.0"></path><path d="M 285.0 525 h 0.0"></path><path d="M 111.5 525 a 10 10 0 0 0 10 -10 v 0 a 10 10 0 0 1 10 -10"></path><g>
<path d="M 131.5 505 h 133.5"></path></g><path d="M 265.0 505 a 10 10 0 0 1 10 10 v 0 a 10 10 0 0 0 10 10"></path><path d="M 111.5 525 h 20"></path><g>
<path d="M 131.5 525 h 0.0"></path><path d="M 265.0 525 h 0.0"></path><path d="M 131.5 525 h 10"></path><g class="non-terminal ">
<path d="M 141.5 525 h 0.0"></path><path d="M 255.0 525 h 0.0"></path><rect height="22" width="113.5" x="141.5" y="514"></rect><text x="198.25" y="529">BookHeaders</text></g><path d="M 255.0 525 h 10"></path><path d="M 141.5 525 a 10 10 0 0 0 -10 10 v 0 a 10 10 0 0 0 10 10"></path><g>
<path d="M 141.5 545 h 113.5"></path></g><path d="M 255.0 545 a 10 10 0 0 0 10 -10 v 0 a 10 10 0 0 0 -10 -10"></path></g><path d="M 265.0 525 h 20"></path></g><path d="M 285.0 525 h 10"></path><g>
<path d="M 295.0 525 h 0.0"></path><path d="M 420.0 525 h 0.0"></path><path d="M 295.0 525 h 10"></path><g class="non-terminal ">
<path d="M 305.0 525 h 0.0"></path><path d="M 410.0 525 h 0.0"></path><rect height="22" width="105.0" x="305.0" y="514"></rect><text x="357.5" y="529">BookTitles</text></g><path d="M 410.0 525 h 10"></path><path d="M 305.0 525 a 10 10 0 0 0 -10 10 v 0 a 10 10 0 0 0 10 10"></path><g>
<path d="M 305.0 545 h 105.0"></path></g><path d="M 410.0 545 a 10 10 0 0 0 10 -10 v 0 a 10 10 0 0 0 -10 -10"></path></g><path d="M 420.0 525 h 10"></path><g>
<path d="M 430.0 525 h 0.0"></path><path d="M 646.0 525 h 0.0"></path><path d="M 430.0 525 a 10 10 0 0 0 10 -10 v 0 a 10 10 0 0 1 10 -10"></path><g>
<path d="M 450.0 505 h 176.0"></path></g><path d="M 626.0 505 a 10 10 0 0 1 10 10 v 0 a 10 10 0 0 0 10 10"></path><path d="M 430.0 525 h 20"></path><g>
<path d="M 450.0 525 h 0.0"></path><path d="M 626.0 525 h 0.0"></path><path d="M 450.0 525 h 10"></path><g class="non-terminal ">
<path d="M 460.0 525 h 0.0"></path><path d="M 616.0 525 h 0.0"></path><rect height="22" width="156.0" x="460.0" y="514"></rect><text x="538.0" y="529">BookIntroduction</text></g><path d="M 616.0 525 h 10"></path><path d="M 460.0 525 a 10 10 0 0 0 -10 10 v 0 a 10 10 0 0 0 10 10"></path><g>
<path d="M 460.0 545 h 156.0"></path></g><path d="M 616.0 545 a 10 10 0 0 0 10 -10 v 0 a 10 10 0 0 0 -10 -10"></path></g><path d="M 626.0 525 h 20"></path></g><g>
<path d="M 646.0 525 h 0.0"></path><path d="M 938.5 525 h 0.0"></path><path d="M 646.0 525 a 10 10 0 0 0 10 -10 v 0 a 10 10 0 0 1 10 -10"></path><g>
<path d="M 666.0 505 h 252.5"></path></g><path d="M 918.5 505 a 10 10 0 0 1 10 10 v 0 a 10 10 0 0 0 10 10"></path><path d="M 646.0 525 h 20"></path><g>
<path d="M 666.0 525 h 0.0"></path><path d="M 918.5 525 h 0.0"></path><path d="M 666.0 525 h 10"></path><g class="non-terminal ">
<path d="M 676.0 525 h 0.0"></path><path d="M 908.5 525 h 0.0"></path><rect height="22" width="232.5" x="676.0" y="514"></rect><text x="792.25" y="529">BookIntroductionEndTitles</text></g><path d="M 908.5 525 h 10"></path><path d="M 676.0 525 a 10 10 0 0 0 -10 10 v 0 a 10 10 0 0 0 10 10"></path><g>
<path d="M 676.0 545 h 232.5"></path></g><path d="M 908.5 545 a 10 10 0 0 0 10 -10 v 0 a 10 10 0 0 0 -10 -10"></path></g><path d="M 918.5 525 h 20"></path></g><g>
<path d="M 938.5 525 h 0.0"></path><path d="M 1134.5 525 h 0.0"></path><path d="M 938.5 525 a 10 10 0 0 0 10 -10 v 0 a 10 10 0 0 1 10 -10"></path><g>
<path d="M 958.5 505 h 156.0"></path></g><path d="M 1114.5 505 a 10 10 0 0 1 10 10 v 0 a 10 10 0 0 0 10 10"></path><path d="M 938.5 525 h 20"></path><g class="non-terminal ">
<path d="M 958.5 525 h 0.0"></path><path d="M 1114.5 525 h 0.0"></path><rect height="22" width="156.0" x="958.5" y="514"></rect><text x="1036.5" y="529">BookChapterLabel</text></g><path d="M 1114.5 525 h 20"></path></g><path d="M 1134.5 525 h 10"></path><g class="non-terminal ">
<path d="M 1144.5 525 h 0.0"></path><path d="M 1224.0 525 h 0.0"></path><rect height="22" width="79.5" x="1144.5" y="514"></rect><text x="1184.25" y="529">Chapter</text></g><path d="M 1224.0 525 h 10"></path><path d="M 1234.0 525 h 10"></path><g>
<path d="M 1244.0 525 h 0.0"></path><path d="M 1443.0 525 h 0.0"></path><path d="M 1244.0 525 h 10"></path><g>
<path d="M 1254.0 525 h 0.0"></path><path d="M 1433.0 525 h 0.0"></path><rect class="group-box" height="218" rx="10" ry="10" width="179.0" x="1254.0" y="506"></rect><g>
<path d="M 1254.0 525 h 0.0"></path><path d="M 1433.0 525 h 0.0"></path><path d="M 1254.0 525 h 20"></path><g class="non-terminal ">
<path d="M 1274.0 525 h 29.75"></path><path d="M 1383.25 525 h 29.75"></path><rect height="22" width="79.5" x="1303.75" y="514"></rect><text x="1343.5" y="529">Chapter</text></g><path d="M 1413.0 525 h 20"></path><path d="M 1254.0 525 a 10 10 0 0 1 10 10 v 10 a 10 10 0 0 0 10 10"></path><g class="non-terminal ">
<path d="M 1274.0 555 h 42.5"></path><path d="M 1370.5 555 h 42.5"></path><rect height="22" width="54.0" x="1316.5" y="544"></rect><text x="1343.5" y="559">Para</text></g><path d="M 1413.0 555 a 10 10 0 0 0 10 -10 v -10 a 10 10 0 0 1 10 -10"></path><path d="M 1254.0 525 a 10 10 0 0 1 10 10 v 40 a 10 10 0 0 0 10 10"></path><g class="non-terminal ">
<path d="M 1274.0 585 h 42.5"></path><path d="M 1370.5 585 h 42.5"></path><rect height="22" width="54.0" x="1316.5" y="574"></rect><text x="1343.5" y="589">List</text></g><path d="M 1413.0 585 a 10 10 0 0 0 10 -10 v -40 a 10 10 0 0 1 10 -10"></path><path d="M 1254.0 525 a 10 10 0 0 1 10 10 v 70 a 10 10 0 0 0 10 10"></path><g class="non-terminal ">
<path d="M 1274.0 615 h 38.25"></path><path d="M 1374.75 615 h 38.25"></path><rect height="22" width="62.5" x="1312.25" y="604"></rect><text x="1343.5" y="619">Table</text></g><path d="M 1413.0 615 a 10 10 0 0 0 10 -10 v -70 a 10 10 0 0 1 10 -10"></path><path d="M 1254.0 525 a 10 10 0 0 1 10 10 v 100 a 10 10 0 0 0 10 10"></path><g class="non-terminal ">
<path d="M 1274.0 645 h 25.5"></path><path d="M 1387.5 645 h 25.5"></path><rect height="22" width="88.0" x="1299.5" y="634"></rect><text x="1343.5" y="649">Footnote</text></g><path d="M 1413.0 645 a 10 10 0 0 0 10 -10 v -100 a 10 10 0 0 1 10 -10"></path><path d="M 1254.0 525 a 10 10 0 0 1 10 10 v 130 a 10 10 0 0 0 10 10"></path><g class="non-terminal ">
<path d="M 1274.0 675 h 0.0"></path><path d="M 1413.0 675 h 0.0"></path><rect height="22" width="139.0" x="1274.0" y="664"></rect><text x="1343.5" y="679">CrossReference</text></g><path d="M 1413.0 675 a 10 10 0 0 0 10 -10 v -130 a 10 10 0 0 1 10 -10"></path><path d="M 1254.0 525 a 10 10 0 0 1 10 10 v 160 a 10 10 0 0 0 10 10"></path><g class="non-terminal ">
<path d="M 1274.0 705 h 29.75"></path><path d="M 1383.25 705 h 29.75"></path><rect height="22" width="79.5" x="1303.75" y="694"></rect><text x="1343.5" y="709">Sidebar</text></g><path d="M 1413.0 705 a 10 10 0 0 0 10 -10 v -160 a 10 10 0 0 1 10 -10"></path></g><g class="non-terminal ">
<path d="M 1254.0 498 h 0.0"></path><path d="M 1362.0 498 h 0.0"></path><text class="comment" x="1308.0" y="503">ChapterContent</text></g></g><path d="M 1433.0 525 h 10"></path><path d="M 1254.0 525 a 10 10 0 0 0 -10 10 v 187 a 10 10 0 0 0 10 10"></path><g>
<path d="M 1254.0 732 h 179.0"></path></g><path d="M 1433.0 732 a 10 10 0 0 0 10 -10 v -187 a 10 10 0 0 0 -10 -10"></path></g></g><path d="M 1484.5 525 h 10"></path><path d="M 1494.5 525 h 10.0"></path></g><g class="non-terminal ">
<path d="M 50.0 28 h 0.0"></path><path d="M 123.0 28 h 0.0"></path><text class="comment" x="86.5" y="33">Scripture</text></g></g><path d="M 1504.5 525 h 10"></path><path d="M 1514.5 525 h 20 m 0 -10 v 20"></path></g></svg>