<svg class="railroad-diagram" height="958" viewBox="0 0 1581.5 958" width="1581.5" xmlns="http://www.w3.org/2000/svg" xmlns:xlink="http://www.w3.org/1999/xlink">
<g transform="translate(.5 .5)">
<style>/* <![CDATA[ */

    svg.railroad-diagram {
        background-color: hsl(30,20%,95%);
    }
    svg.railroad-diagram path {
        stroke-width: 2;
        stroke: black;
        fill: none;
    }
    svg.railroad-diagram text {
        font-size: 12px;
        text-anchor: middle;
        font-family: DejaVu Sans;
    }
    svg.railroad-diagram text.label {
        text-anchor:start;
    }
    svg.railroad-diagram text.comment {
        font-family: DejaVu Sans;
        font-size: 14px;
    }
    svg.railroad-diagram rect{
        stroke-width: 2;
        stroke: black;
        fill: rgb(210, 255, 210);
    }
    svg.railroad-diagram rect.group-box {
        stroke: gray;
        stroke-dasharray: 10 5;
        fill: none;
    }
    .terminal {
        font-family: DejaVu Sans;
    }
    svg.railroad-diagram g.altterminal rect {
        fill: rgb(251, 252, 207)
    }

/* ]]> */
</style><g>
<path d="M 20 31 v 20 m 0 -10 h 20"></path></g><path d="M 40 41 h 10"></path><g>
<path d="M 50 41 h 0.0"></path><path d="M 1531.5 699 h 0.0"></path><g>
<path d="M 50.0 41 h 0.0"></path><path d="M 50.0 41 h 10"></path><g>
<path d="M 60.0 41 h 479.25"></path><path d="M 1042.25 41 h 479.25"></path><g>
<path d="M 539.25 41 h 0.0"></path><path d="M 837.25 41 h 0.0"></path><path d="M 539.25 41 h 20"></path><g class="terminal ">
<path d="M 559.25 41 h 102.0"></path><path d="M 715.25 41 h 102.0"></path><rect height="22" rx="10" ry="10" width="54.0" x="661.25" y="30"></rect><text x="688.25" y="45">'\\'</text></g><path d="M 817.25 41 h 20"></path><path d="M 539.25 41 a 10 10 0 0 1 10 10 v 10 a 10 10 0 0 0 10 10"></path><g class="terminal altterminal">
<path d="M 559.25 71 h 0.0"></path><path d="M 817.25 71 h 0.0"></path><rect height="22" rx="10" ry="10" width="258.0" x="559.25" y="60"></rect><text x="688.25" y="75">/﻿?&#91;\u0009-\u000D\u0020&#93;&#42;\\/</text></g><path d="M 817.25 71 a 10 10 0 0 0 10 -10 v -10 a 10 10 0 0 1 10 -10"></path></g><path d="M 837.25 41 h 10"></path><path d="M 847.25 41 h 10"></path><g class="terminal ">
<path d="M 857.25 41 h 0.0"></path><path d="M 911.25 41 h 0.0"></path><rect height="22" rx="10" ry="10" width="54.0" x="857.25" y="30"></rect><text x="884.25" y="45">"id"</text></g><path d="M 911.25 41 h 10"></path><path d="M 921.25 41 h 10"></path><g>
<path d="M 931.25 41 h 0.0"></path><path d="M 1042.25 41 h 0.0"></path><path d="M 931.25 41 h 20"></path><g class="terminal ">
<path d="M 951.25 41 h 12.75"></path><path d="M 1009.5 41 h 12.75"></path><rect height="22" rx="10" ry="10" width="45.5" x="964.0" y="30"></rect><text x="986.75" y="45">' '</text></g><path d="M 1022.25 41 h 20"></path><path d="M 931.25 41 a 10 10 0 0 1 10 10 v 10 a 10 10 0 0 0 10 10"></path><g class="terminal altterminal">
<path d="M 951.25 71 h 0.0"></path><path d="M 1022.25 71 h 0.0"></path><rect height="22" rx="10" ry="10" width="71.0" x="951.25" y="60"></rect><text x="986.75" y="75">TAGEND</text></g><path d="M 1022.25 71 a 10 10 0 0 0 10 -10 v -10 a 10 10 0 0 1 10 -10"></path></g></g><path d="M 1521.5 41 a 10 10 0 0 1 10 10 v 39 a 10 10 0 0 1 -10 10 h -1461.5 a 10 10 0 0 0 -10 10 v 107 a 10 10 0 0 0 10 10"></path><g>
<path d="M 60.0 227 h 152.25"></path><path d="M 1369.25 227 h 152.25"></path><path d="M 212.25 227 a 10 10 0 0 0 10 -10 v -99 a 10 10 0 0 1 10 -10 h 967.5"></path><path d="M 364.75 526 h 984.5 a 10 10 0 0 0 10 -10 v -279 a 10 10 0 0 1 10 -10"></path><path d="M 212.25 227 h 10"></path><g>
<path d="M 222.25 227 h 10.0"></path><path d="M 334.75 227 h 10.0"></path><path d="M 232.25 227 a 10 10 0 0 0 10 -10 v -10 a 10 10 0 0 1 10 -10"></path><g class="terminal ">
<path d="M 252.25 197 h 0.0"></path><path d="M 314.75 197 h 0.0"></path><rect height="22" rx="10" ry="10" width="62.5" x="252.25" y="186"></rect><text x="283.5" y="201">"LEV"</text></g><path d="M 314.75 197 a 10 10 0 0 1 10 10 v 10 a 10 10 0 0 0 10 10"></path><path d="M 232.25 227 a 10 10 0 0 0 10 -10 v -40 a 10 10 0 0 1 10 -10"></path><g class="terminal ">
<path d="M 252.25 167 h 0.0"></path><path d="M 314.75 167 h 0.0"></path><rect height="22" rx="10" ry="10" width="62.5" x="252.25" y="156"></rect><text x="283.5" y="171">"EXO"</text></g><path d="M 314.75 167 a 10 10 0 0 1 10 10 v 40 a 10 10 0 0 0 10 10"></path><path d="M 232.25 227 a 10 10 0 0 0 10 -10 v -70 a 10 10 0 0 1 10 -10"></path><g class="terminal ">
<path d="M 252.25 137 h 0.0"></path><path d="M 314.75 137 h 0.0"></path><rect height="22" rx="10" ry="10" width="62.5" x="252.25" y="126"></rect><text x="283.5" y="141">"GEN"</text></g><path d="M 314.75 137 a 10 10 0 0 1 10 10 v 70 a 10 10 0 0 0 10 10"></path><path d="M 232.25 227 h 20"></path><g class="terminal ">
<path d="M 252.25 227 h 0.0"></path><path d="M 314.75 227 h 0.0"></path><rect height="22" rx="10" ry="10" width="62.5" x="252.25" y="216"></rect><text x="283.5" y="231">"NUM"</text></g><path d="M 314.75 227 h 20"></path><path d="M 232.25 227 a 10 10 0 0 1 10 10 v 10 a 10 10 0 0 0 10 10"></path><g class="terminal ">
<path d="M 252.25 257 h 0.0"></path><path d="M 314.75 257 h 0.0"></path><rect height="22" rx="10" ry="10" width="62.5" x="252.25" y="246"></rect><text x="283.5" y="261">"DEU"</text></g><path d="M 314.75 257 a 10 10 0 0 0 10 -10 v -10 a 10 10 0 0 1 10 -10"></path><path d="M 232.25 227 a 10 10 0 0 1 10 10 v 40 a 10 10 0 0 0 10 10"></path><g class="terminal ">
<path d="M 252.25 287 h 0.0"></path><path d="M 314.75 287 h 0.0"></path><rect height="22" rx="10" ry="10" width="62.5" x="252.25" y="276"></rect><text x="283.5" y="291">"JOS"</text></g><path d="M 314.75 287 a 10 10 0 0 0 10 -10 v -40 a 10 10 0 0 1 10 -10"></path><path d="M 232.25 227 a 10 10 0 0 1 10 10 v 70 a 10 10 0 0 0 10 10"></path><g class="terminal ">
<path d="M 252.25 317 h 0.0"></path><path d="M 314.75 317 h 0.0"></path><rect height="22" rx="10" ry="10" width="62.5" x="252.25" y="306"></rect><text x="283.5" y="321">"JDG"</text></g><path d="M 314.75 317 a 10 10 0 0 0 10 -10 v -70 a 10 10 0 0 1 10 -10"></path><path d="M 232.25 227 a 10 10 0 0 1 10 10 v 100 a 10 10 0 0 0 10 10"></path><g class="terminal ">
<path d="M 252.25 347 h 0.0"></path><path d="M 314.75 347 h 0.0"></path><rect height="22" rx="10" ry="10" width="62.5" x="252.25" y="336"></rect><text x="283.5" y="351">"RUT"</text></g><path d="M 314.75 347 a 10 10 0 0 0 10 -10 v -100 a 10 10 0 0 1 10 -10"></path><path d="M 232.25 227 a 10 10 0 0 1 10 10 v 130 a 10 10 0 0 0 10 10"></path><g class="terminal ">
<path d="M 252.25 377 h 0.0"></path><path d="M 314.75 377 h 0.0"></path><rect height="22" rx="10" ry="10" width="62.5" x="252.25" y="366"></rect><text x="283.5" y="381">"1SA"</text></g><path d="M 314.75 377 a 10 10 0 0 0 10 -10 v -130 a 10 10 0 0 1 10 -10"></path><path d="M 232.25 227 a 10 10 0 0 1 10 10 v 160 a 10 10 0 0 0 10 10"></path><g class="terminal ">
<path d="M 252.25 407 h 0.0"></path><path d="M 314.75 407 h 0.0"></path><rect height="22" rx="10" ry="10" width="62.5" x="252.25" y="396"></rect><text x="283.5" y="411">"2SA"</text></g><path d="M 314.75 407 a 10 10 0 0 0 10 -10 v -160 a 10 10 0 0 1 10 -10"></path><path d="M 232.25 227 a 10 10 0 0 1 10 10 v 190 a 10 10 0 0 0 10 10"></path><g class="terminal ">
<path d="M 252.25 437 h 0.0"></path><path d="M 314.75 437 h 0.0"></path><rect height="22" rx="10" ry="10" width="62.5" x="252.25" y="426"></rect><text x="283.5" y="441">"1KI"</text></g><path d="M 314.75 437 a 10 10 0 0 0 10 -10 v -190 a 10 10 0 0 1 10 -10"></path><path d="M 232.25 227 a 10 10 0 0 1 10 10 v 220 a 10 10 0 0 0 10 10"></path><g class="terminal ">
<path d="M 252.25 467 h 0.0"></path><path d="M 314.75 467 h 0.0"></path><rect height="22" rx="10" ry="10" width="62.5" x="252.25" y="456"></rect><text x="283.5" y="471">"2KI"</text></g><path d="M 314.75 467 a 10 10 0 0 0 10 -10 v -220 a 10 10 0 0 1 10 -10"></path><path d="M 232.25 227 a 10 10 0 0 1 10 10 v 250 a 10 10 0 0 0 10 10"></path><g class="terminal ">
<path d="M 252.25 497 h 0.0"></path><path d="M 314.75 497 h 0.0"></path><rect height="22" rx="10" ry="10" width="62.5" x="252.25" y="486"></rect><text x="283.5" y="501">"1CH"</text></g><path d="M 314.75 497 a 10 10 0 0 0 10 -10 v -250 a 10 10 0 0 1 10 -10"></path></g><path d="M 344.75 227 a 10 10 0 0 1 10 10 v 279 a 10 10 0 0 0 10 10"></path><path d="M 344.75 108 a 10 10 0 0 1 10 10 v 99 a 10 10 0 0 0 10 10"></path><g>
<path d="M 364.75 227 h 10.0"></path><path d="M 477.25 227 h 10.0"></path><path d="M 374.75 227 a 10 10 0 0 0 10 -10 v -10 a 10 10 0 0 1 10 -10"></path><g class="terminal ">
<path d="M 394.75 197 h 0.0"></path><path d="M 457.25 197 h 0.0"></path><rect height="22" rx="10" ry="10" width="62.5" x="394.75" y="186"></rect><text x="426.0" y="201">"NEH"</text></g><path d="M 457.25 197 a 10 10 0 0 1 10 10 v 10 a 10 10 0 0 0 10 10"></path><path d="M 374.75 227 a 10 10 0 0 0 10 -10 v -40 a 10 10 0 0 1 10 -10"></path><g class="terminal ">
<path d="M 394.75 167 h 0.0"></path><path d="M 457.25 167 h 0.0"></path><rect height="22" rx="10" ry="10" width="62.5" x="394.75" y="156"></rect><text x="426.0" y="171">"EZR"</text></g><path d="M 457.25 167 a 10 10 0 0 1 10 10 v 40 a 10 10 0 0 0 10 10"></path><path d="M 374.75 227 a 10 10 0 0 0 10 -10 v -70 a 10 10 0 0 1 10 -10"></path><g class="terminal ">
<path d="M 394.75 137 h 0.0"></path><path d="M 457.25 137 h 0.0"></path><rect height="22" rx="10" ry="10" width="62.5" x="394.75" y="126"></rect><text x="426.0" y="141">"2CH"</text></g><path d="M 457.25 137 a 10 10 0 0 1 10 10 v 70 a 10 10 0 0 0 10 10"></path><path d="M 374.75 227 h 20"></path><g class="terminal ">
<path d="M 394.75 227 h 0.0"></path><path d="M 457.25 227 h 0.0"></path><rect height="22" rx="10" ry="10" width="62.5" x="394.75" y="216"></rect><text x="426.0" y="231">"EST"</text></g><path d="M 457.25 227 h 20"></path><path d="M 374.75 227 a 10 10 0 0 1 10 10 v 10 a 10 10 0 0 0 10 10"></path><g class="terminal ">
<path d="M 394.75 257 h 0.0"></path><path d="M 457.25 257 h 0.0"></path><rect height="22" rx="10" ry="10" width="62.5" x="394.75" y="246"></rect><text x="426.0" y="261">"JOB"</text></g><path d="M 457.25 257 a 10 10 0 0 0 10 -10 v -10 a 10 10 0 0 1 10 -10"></path><path d="M 374.75 227 a 10 10 0 0 1 10 10 v 40 a 10 10 0 0 0 10 10"></path><g class="terminal ">
<path d="M 394.75 287 h 0.0"></path><path d="M 457.25 287 h 0.0"></path><rect height="22" rx="10" ry="10" width="62.5" x="394.75" y="276"></rect><text x="426.0" y="291">"PSA"</text></g><path d="M 457.25 287 a 10 10 0 0 0 10 -10 v -40 a 10 10 0 0 1 10 -10"></path><path d="M 374.75 227 a 10 10 0 0 1 10 10 v 70 a 10 10 0 0 0 10 10"></path><g class="terminal ">
<path d="M 394.75 317 h 0.0"></path><path d="M 457.25 317 h 0.0"></path><rect height="22" rx="10" ry="10" width="62.5" x="394.75" y="306"></rect><text x="426.0" y="321">"PRO"</text></g><path d="M 457.25 317 a 10 10 0 0 0 10 -10 v -70 a 10 10 0 0 1 10 -10"></path><path d="M 374.75 227 a 10 10 0 0 1 10 10 v 100 a 10 10 0 0 0 10 10"></path><g class="terminal ">
<path d="M 394.75 347 h 0.0"></path><path d="M 457.25 347 h 0.0"></path><rect height="22" rx="10" ry="10" width="62.5" x="394.75" y="336"></rect><text x="426.0" y="351">"ECC"</text></g><path d="M 457.25 347 a 10 10 0 0 0 10 -10 v -100 a 10 10 0 0 1 10 -10"></path><path d="M 374.75 227 a 10 10 0 0 1 10 10 v 130 a 10 10 0 0 0 10 10"></path><g class="terminal ">
<path d="M 394.75 377 h 0.0"></path><path d="M 457.25 377 h 0.0"></path><rect height="22" rx="10" ry="10" width="62.5" x="394.75" y="366"></rect><text x="426.0" y="381">"SNG"</text></g><path d="M 457.25 377 a 10 10 0 0 0 10 -10 v -130 a 10 10 0 0 1 10 -10"></path><path d="M 374.75 227 a 10 10 0 0 1 10 10 v 160 a 10 10 0 0 0 10 10"></path><g class="terminal ">
<path d="M 394.75 407 h 0.0"></path><path d="M 457.25 407 h 0.0"></path><rect height="22" rx="10" ry="10" width="62.5" x="394.75" y="396"></rect><text x="426.0" y="411">"ISA"</text></g><path d="M 457.25 407 a 10 10 0 0 0 10 -10 v -160 a 10 10 0 0 1 10 -10"></path><path d="M 374.75 227 a 10 10 0 0 1 10 10 v 190 a 10 10 0 0 0 10 10"></path><g class="terminal ">
<path d="M 394.75 437 h 0.0"></path><path d="M 457.25 437 h 0.0"></path><rect height="22" rx="10" ry="10" width="62.5" x="394.75" y="426"></rect><text x="426.0" y="441">"JER"</text></g><path d="M 457.25 437 a 10 10 0 0 0 10 -10 v -190 a 10 10 0 0 1 10 -10"></path><path d="M 374.75 227 a 10 10 0 0 1 10 10 v 220 a 10 10 0 0 0 10 10"></path><g class="terminal ">
<path d="M 394.75 467 h 0.0"></path><path d="M 457.25 467 h 0.0"></path><rect height="22" rx="10" ry="10" width="62.5" x="394.75" y="456"></rect><text x="426.0" y="471">"LAM"</text></g><path d="M 457.25 467 a 10 10 0 0 0 10 -10 v -220 a 10 10 0 0 1 10 -10"></path><path d="M 374.75 227 a 10 10 0 0 1 10 10 v 250 a 10 10 0 0 0 10 10"></path><g class="terminal ">
<path d="M 394.75 497 h 0.0"></path><path d="M 457.25 497 h 0.0"></path><rect height="22" rx="10" ry="10" width="62.5" x="394.75" y="486"></rect><text x="426.0" y="501">"EZK"</text></g><path d="M 457.25 497 a 10 10 0 0 0 10 -10 v -250 a 10 10 0 0 1 10 -10"></path></g><path d="M 487.25 227 a 10 10 0 0 1 10 10 v 279 a 10 10 0 0 0 10 10"></path><path d="M 487.25 108 a 10 10 0 0 1 10 10 v 99 a 10 10 0 0 0 10 10"></path><g>
<path d="M 507.25 227 h 10.0"></path><path d="M 619.75 227 h 10.0"></path><path d="M 517.25 227 a 10 10 0 0 0 10 -10 v -10 a 10 10 0 0 1 10 -10"></path><g class="terminal ">
<path d="M 537.25 197 h 0.0"></path><path d="M 599.75 197 h 0.0"></path><rect height="22" rx="10" ry="10" width="62.5" x="537.25" y="186"></rect><text x="568.5" y="201">"JOL"</text></g><path d="M 599.75 197 a 10 10 0 0 1 10 10 v 10 a 10 10 0 0 0 10 10"></path><path d="M 517.25 227 a 10 10 0 0 0 10 -10 v -40 a 10 10 0 0 1 10 -10"></path><g class="terminal ">
<path d="M 537.25 167 h 0.0"></path><path d="M 599.75 167 h 0.0"></path><rect height="22" rx="10" ry="10" width="62.5" x="537.25" y="156"></rect><text x="568.5" y="171">"HOS"</text></g><path d="M 599.75 167 a 10 10 0 0 1 10 10 v 40 a 10 10 0 0 0 10 10"></path><path d="M 517.25 227 a 10 10 0 0 0 10 -10 v -70 a 10 10 0 0 1 10 -10"></path><g class="terminal ">
<path d="M 537.25 137 h 0.0"></path><path d="M 599.75 137 h 0.0"></path><rect height="22" rx="10" ry="10" width="62.5" x="537.25" y="126"></rect><text x="568.5" y="141">"DAN"</text></g><path d="M 599.75 137 a 10 10 0 0 1 10 10 v 70 a 10 10 0 0 0 10 10"></path><path d="M 517.25 227 h 20"></path><g class="terminal ">
<path d="M 537.25 227 h 0.0"></path><path d="M 599.75 227 h 0.0"></path><rect height="22" rx="10" ry="10" width="62.5" x="537.25" y="216"></rect><text x="568.5" y="231">"AMO"</text></g><path d="M 599.75 227 h 20"></path><path d="M 517.25 227 a 10 10 0 0 1 10 10 v 10 a 10 10 0 0 0 10 10"></path><g class="terminal ">
<path d="M 537.25 257 h 0.0"></path><path d="M 599.75 257 h 0.0"></path><rect height="22" rx="10" ry="10" width="62.5" x="537.25" y="246"></rect><text x="568.5" y="261">"OBA"</text></g><path d="M 599.75 257 a 10 10 0 0 0 10 -10 v -10 a 10 10 0 0 1 10 -10"></path><path d="M 517.25 227 a 10 10 0 0 1 10 10 v 40 a 10 10 0 0 0 10 10"></path><g class="terminal ">
<path d="M 537.25 287 h 0.0"></path><path d="M 599.75 287 h 0.0"></path><rect height="22" rx="10" ry="10" width="62.5" x="537.25" y="276"></rect><text x="568.5" y="291">"JON"</text></g><path d="M 599.75 287 a 10 10 0 0 0 10 -10 v -40 a 10 10 0 0 1 10 -10"></path><path d="M 517.25 227 a 10 10 0 0 1 10 10 v 70 a 10 10 0 0 0 10 10"></path><g class="terminal ">
<path d="M 537.25 317 h 0.0"></path><path d="M 599.75 317 h 0.0"></path><rect height="22" rx="10" ry="10" width="62.5" x="537.25" y="306"></rect><text x="568.5" y="321">"MIC"</text></g><path d="M 599.75 317 a 10 10 0 0 0 10 -10 v -70 a 10 10 0 0 1 10 -10"></path><path d="M 517.25 227 a 10 10 0 0 1 10 10 v 100 a 10 10 0 0 0 10 10"></path><g class="terminal ">
<path d="M 537.25 347 h 0.0"></path><path d="M 599.75 347 h 0.0"></path><rect height="22" rx="10" ry="10" width="62.5" x="537.25" y="336"></rect><text x="568.5" y="351">"NAM"</text></g><path d="M 599.75 347 a 10 10 0 0 0 10 -10 v -100 a 10 10 0 0 1 10 -10"></path><path d="M 517.25 227 a 10 10 0 0 1 10 10 v 130 a 10 10 0 0 0 10 10"></path><g class="terminal ">
<path d="M 537.25 377 h 0.0"></path><path d="M 599.75 377 h 0.0"></path><rect height="22" rx="10" ry="10" width="62.5" x="537.25" y="366"></rect><text x="568.5" y="381">"HAB"</text></g><path d="M 599.75 377 a 10 10 0 0 0 10 -10 v -130 a 10 10 0 0 1 10 -10"></path><path d="M 517.25 227 a 10 10 0 0 1 10 10 v 160 a 10 10 0 0 0 10 10"></path><g class="terminal ">
<path d="M 537.25 407 h 0.0"></path><path d="M 599.75 407 h 0.0"></path><rect height="22" rx="10" ry="10" width="62.5" x="537.25" y="396"></rect><text x="568.5" y="411">"ZEP"</text></g><path d="M 599.75 407 a 10 10 0 0 0 10 -10 v -160 a 10 10 0 0 1 10 -10"></path><path d="M 517.25 227 a 10 10 0 0 1 10 10 v 190 a 10 10 0 0 0 10 10"></path><g class="terminal ">
<path d="M 537.25 437 h 0.0"></path><path d="M 599.75 437 h 0.0"></path><rect height="22" rx="10" ry="10" width="62.5" x="537.25" y="426"></rect><text x="568.5" y="441">"HAG"</text></g><path d="M 599.75 437 a 10 10 0 0 0 10 -10 v -190 a 10 10 0 0 1 10 -10"></path><path d="M 517.25 227 a 10 10 0 0 1 10 10 v 220 a 10 10 0 0 0 10 10"></path><g class="terminal ">
<path d="M 537.25 467 h 0.0"></path><path d="M 599.75 467 h 0.0"></path><rect height="22" rx="10" ry="10" width="62.5" x="537.25" y="456"></rect><text x="568.5" y="471">"ZEC"</text></g><path d="M 599.75 467 a 10 10 0 0 0 10 -10 v -220 a 10 10 0 0 1 10 -10"></path><path d="M 517.25 227 a 10 10 0 0 1 10 10 v 250 a 10 10 0 0 0 10 10"></path><g class="terminal ">
<path d="M 537.25 497 h 0.0"></path><path d="M 599.75 497 h 0.0"></path><rect height="22" rx="10" ry="10" width="62.5" x="537.25" y="486"></rect><text x="568.5" y="501">"MAL"</text></g><path d="M 599.75 497 a 10 10 0 0 0 10 -10 v -250 a 10 10 0 0 1 10 -10"></path></g><path d="M 629.75 227 a 10 10 0 0 1 10 10 v 279 a 10 10 0 0 0 10 10"></path><path d="M 629.75 108 a 10 10 0 0 1 10 10 v 99 a 10 10 0 0 0 10 10"></path><g>
<path d="M 649.75 227 h 10.0"></path><path d="M 762.25 227 h 10.0"></path><path d="M 659.75 227 a 10 10 0 0 0 10 -10 v -10 a 10 10 0 0 1 10 -10"></path><g class="terminal ">
<path d="M 679.75 197 h 0.0"></path><path d="M 742.25 197 h 0.0"></path><rect height="22" rx="10" ry="10" width="62.5" x="679.75" y="186"></rect><text x="711.0" y="201">"LUK"</text></g><path d="M 742.25 197 a 10 10 0 0 1 10 10 v 10 a 10 10 0 0 0 10 10"></path><path d="M 659.75 227 a 10 10 0 0 0 10 -10 v -40 a 10 10 0 0 1 10 -10"></path><g class="terminal ">
<path d="M 679.75 167 h 0.0"></path><path d="M 742.25 167 h 0.0"></path><rect height="22" rx="10" ry="10" width="62.5" x="679.75" y="156"></rect><text x="711.0" y="171">"MRK"</text></g><path d="M 742.25 167 a 10 10 0 0 1 10 10 v 40 a 10 10 0 0 0 10 10"></path><path d="M 659.75 227 a 10 10 0 0 0 10 -10 v -70 a 10 10 0 0 1 10 -10"></path><g class="terminal ">
<path d="M 679.75 137 h 0.0"></path><path d="M 742.25 137 h 0.0"></path><rect height="22" rx="10" ry="10" width="62.5" x="679.75" y="126"></rect><text x="711.0" y="141">"MAT"</text></g><path d="M 742.25 137 a 10 10 0 0 1 10 10 v 70 a 10 10 0 0 0 10 10"></path><path d="M 659.75 227 h 20"></path><g class="terminal ">
<path d="M 679.75 227 h 0.0"></path><path d="M 742.25 227 h 0.0"></path><rect height="22" rx="10" ry="10" width="62.5" x="679.75" y="216"></rect><text x="711.0" y="231">"JHN"</text></g><path d="M 742.25 227 h 20"></path><path d="M 659.75 227 a 10 10 0 0 1 10 10 v 10 a 10 10 0 0 0 10 10"></path><g class="terminal ">
<path d="M 679.75 257 h 0.0"></path><path d="M 742.25 257 h 0.0"></path><rect height="22" rx="10" ry="10" width="62.5" x="679.75" y="246"></rect><text x="711.0" y="261">"ACT"</text></g><path d="M 742.25 257 a 10 10 0 0 0 10 -10 v -10 a 10 10 0 0 1 10 -10"></path><path d="M 659.75 227 a 10 10 0 0 1 10 10 v 40 a 10 10 0 0 0 10 10"></path><g class="terminal ">
<path d="M 679.75 287 h 0.0"></path><path d="M 742.25 287 h 0.0"></path><rect height="22" rx="10" ry="10" width="62.5" x="679.75" y="276"></rect><text x="711.0" y="291">"ROM"</text></g><path d="M 742.25 287 a 10 10 0 0 0 10 -10 v -40 a 10 10 0 0 1 10 -10"></path><path d="M 659.75 227 a 10 10 0 0 1 10 10 v 70 a 10 10 0 0 0 10 10"></path><g class="terminal ">
<path d="M 679.75 317 h 0.0"></path><path d="M 742.25 317 h 0.0"></path><rect height="22" rx="10" ry="10" width="62.5" x="679.75" y="306"></rect><text x="711.0" y="321">"1CO"</text></g><path d="M 742.25 317 a 10 10 0 0 0 10 -10 v -70 a 10 10 0 0 1 10 -10"></path><path d="M 659.75 227 a 10 10 0 0 1 10 10 v 100 a 10 10 0 0 0 10 10"></path><g class="terminal ">
<path d="M 679.75 347 h 0.0"></path><path d="M 742.25 347 h 0.0"></path><rect height="22" rx="10" ry="10" width="62.5" x="679.75" y="336"></rect><text x="711.0" y="351">"2CO"</text></g><path d="M 742.25 347 a 10 10 0 0 0 10 -10 v -100 a 10 10 0 0 1 10 -10"></path><path d="M 659.75 227 a 10 10 0 0 1 10 10 v 130 a 10 10 0 0 0 10 10"></path><g class="terminal ">
<path d="M 679.75 377 h 0.0"></path><path d="M 742.25 377 h 0.0"></path><rect height="22" rx="10" ry="10" width="62.5" x="679.75" y="366"></rect><text x="711.0" y="381">"GAL"</text></g><path d="M 742.25 377 a 10 10 0 0 0 10 -10 v -130 a 10 10 0 0 1 10 -10"></path><path d="M 659.75 227 a 10 10 0 0 1 10 10 v 160 a 10 10 0 0 0 10 10"></path><g class="terminal ">
<path d="M 679.75 407 h 0.0"></path><path d="M 742.25 407 h 0.0"></path><rect height="22" rx="10" ry="10" width="62.5" x="679.75" y="396"></rect><text x="711.0" y="411">"EPH"</text></g><path d="M 742.25 407 a 10 10 0 0 0 10 -10 v -160 a 10 10 0 0 1 10 -10"></path><path d="M 659.75 227 a 10 10 0 0 1 10 10 v 190 a 10 10 0 0 0 10 10"></path><g class="terminal ">
<path d="M 679.75 437 h 0.0"></path><path d="M 742.25 437 h 0.0"></path><rect height="22" rx="10" ry="10" width="62.5" x="679.75" y="426"></rect><text x="711.0" y="441">"PHP"</text></g><path d="M 742.25 437 a 10 10 0 0 0 10 -10 v -190 a 10 10 0 0 1 10 -10"></path><path d="M 659.75 227 a 10 10 0 0 1 10 10 v 220 a 10 10 0 0 0 10 10"></path><g class="terminal ">
<path d="M 679.75 467 h 0.0"></path><path d="M 742.25 467 h 0.0"></path><rect height="22" rx="10" ry="10" width="62.5" x="679.75" y="456"></rect><text x="711.0" y="471">"COL"</text></g><path d="M 742.25 467 a 10 10 0 0 0 10 -10 v -220 a 10 10 0 0 1 10 -10"></path><path d="M 659.75 227 a 10 10 0 0 1 10 10 v 250 a 10 10 0 0 0 10 10"></path><g class="terminal ">
<path d="M 679.75 497 h 0.0"></path><path d="M 742.25 497 h 0.0"></path><rect height="22" rx="10" ry="10" width="62.5" x="679.75" y="486"></rect><text x="711.0" y="501">"1TH"</text></g><path d="M 742.25 497 a 10 10 0 0 0 10 -10 v -250 a 10 10 0 0 1 10 -10"></path></g><path d="M 772.25 227 a 10 10 0 0 1 10 10 v 279 a 10 10 0 0 0 10 10"></path><path d="M 772.25 108 a 10 10 0 0 1 10 10 v 99 a 10 10 0 0 0 10 10"></path><g>
<path d="M 792.25 227 h 10.0"></path><path d="M 904.75 227 h 10.0"></path><path d="M 802.25 227 a 10 10 0 0 0 10 -10 v -10 a 10 10 0 0 1 10 -10"></path><g class="terminal ">
<path d="M 822.25 197 h 0.0"></path><path d="M 884.75 197 h 0.0"></path><rect height="22" rx="10" ry="10" width="62.5" x="822.25" y="186"></rect><text x="853.5" y="201">"2TI"</text></g><path d="M 884.75 197 a 10 10 0 0 1 10 10 v 10 a 10 10 0 0 0 10 10"></path><path d="M 802.25 227 a 10 10 0 0 0 10 -10 v -40 a 10 10 0 0 1 10 -10"></path><g class="terminal ">
<path d="M 822.25 167 h 0.0"></path><path d="M 884.75 167 h 0.0"></path><rect height="22" rx="10" ry="10" width="62.5" x="822.25" y="156"></rect><text x="853.5" y="171">"1TI"</text></g><path d="M 884.75 167 a 10 10 0 0 1 10 10 v 40 a 10 10 0 0 0 10 10"></path><path d="M 802.25 227 a 10 10 0 0 0 10 -10 v -70 a 10 10 0 0 1 10 -10"></path><g class="terminal ">
<path d="M 822.25 137 h 0.0"></path><path d="M 884.75 137 h 0.0"></path><rect height="22" rx="10" ry="10" width="62.5" x="822.25" y="126"></rect><text x="853.5" y="141">"2TH"</text></g><path d="M 884.75 137 a 10 10 0 0 1 10 10 v 70 a 10 10 0 0 0 10 10"></path><path d="M 802.25 227 h 20"></path><g class="terminal ">
<path d="M 822.25 227 h 0.0"></path><path d="M 884.75 227 h 0.0"></path><rect height="22" rx="10" ry="10" width="62.5" x="822.25" y="216"></rect><text x="853.5" y="231">"TIT"</text></g><path d="M 884.75 227 h 20"></path><path d="M 802.25 227 a 10 10 0 0 1 10 10 v 10 a 10 10 0 0 0 10 10"></path><g class="terminal ">
<path d="M 822.25 257 h 0.0"></path><path d="M 884.75 257 h 0.0"></path><rect height="22" rx="10" ry="10" width="62.5" x="822.25" y="246"></rect><text x="853.5" y="261">"PHM"</text></g><path d="M 884.75 257 a 10 10 0 0 0 10 -10 v -10 a 10 10 0 0 1 10 -10"></path><path d="M 802.25 227 a 10 10 0 0 1 10 10 v 40 a 10 10 0 0 0 10 10"></path><g class="terminal ">
<path d="M 822.25 287 h 0.0"></path><path d="M 884.75 287 h 0.0"></path><rect height="22" rx="10" ry="10" width="62.5" x="822.25" y="276"></rect><text x="853.5" y="291">"HEB"</text></g><path d="M 884.75 287 a 10 10 0 0 0 10 -10 v -40 a 10 10 0 0 1 10 -10"></path><path d="M 802.25 227 a 10 10 0 0 1 10 10 v 70 a 10 10 0 0 0 10 10"></path><g class="terminal ">
<path d="M 822.25 317 h 0.0"></path><path d="M 884.75 317 h 0.0"></path><rect height="22" rx="10" ry="10" width="62.5" x="822.25" y="306"></rect><text x="853.5" y="321">"JAS"</text></g><path d="M 884.75 317 a 10 10 0 0 0 10 -10 v -70 a 10 10 0 0 1 10 -10"></path><path d="M 802.25 227 a 10 10 0 0 1 10 10 v 100 a 10 10 0 0 0 10 10"></path><g class="terminal ">
<path d="M 822.25 347 h 0.0"></path><path d="M 884.75 347 h 0.0"></path><rect height="22" rx="10" ry="10" width="62.5" x="822.25" y="336"></rect><text x="853.5" y="351">"1PE"</text></g><path d="M 884.75 347 a 10 10 0 0 0 10 -10 v -100 a 10 10 0 0 1 10 -10"></path><path d="M 802.25 227 a 10 10 0 0 1 10 10 v 130 a 10 10 0 0 0 10 10"></path><g class="terminal ">
<path d="M 822.25 377 h 0.0"></path><path d="M 884.75 377 h 0.0"></path><rect height="22" rx="10" ry="10" width="62.5" x="822.25" y="366"></rect><text x="853.5" y="381">"2PE"</text></g><path d="M 884.75 377 a 10 10 0 0 0 10 -10 v -130 a 10 10 0 0 1 10 -10"></path><path d="M 802.25 227 a 10 10 0 0 1 10 10 v 160 a 10 10 0 0 0 10 10"></path><g class="terminal ">
<path d="M 822.25 407 h 0.0"></path><path d="M 884.75 407 h 0.0"></path><rect height="22" rx="10" ry="10" width="62.5" x="822.25" y="396"></rect><text x="853.5" y="411">"1JN"</text></g><path d="M 884.75 407 a 10 10 0 0 0 10 -10 v -160 a 10 10 0 0 1 10 -10"></path><path d="M 802.25 227 a 10 10 0 0 1 10 10 v 190 a 10 10 0 0 0 10 10"></path><g class="terminal ">
<path d="M 822.25 437 h 0.0"></path><path d="M 884.75 437 h 0.0"></path><rect height="22" rx="10" ry="10" width="62.5" x="822.25" y="426"></rect><text x="853.5" y="441">"2JN"</text></g><path d="M 884.75 437 a 10 10 0 0 0 10 -10 v -190 a 10 10 0 0 1 10 -10"></path><path d="M 802.25 227 a 10 10 0 0 1 10 10 v 220 a 10 10 0 0 0 10 10"></path><g class="terminal ">
<path d="M 822.25 467 h 0.0"></path><path d="M 884.75 467 h 0.0"></path><rect height="22" rx="10" ry="10" width="62.5" x="822.25" y="456"></rect><text x="853.5" y="471">"3JN"</text></g><path d="M 884.75 467 a 10 10 0 0 0 10 -10 v -220 a 10 10 0 0 1 10 -10"></path><path d="M 802.25 227 a 10 10 0 0 1 10 10 v 250 a 10 10 0 0 0 10 10"></path><g class="terminal ">
<path d="M 822.25 497 h 0.0"></path><path d="M 884.75 497 h 0.0"></path><rect height="22" rx="10" ry="10" width="62.5" x="822.25" y="486"></rect><text x="853.5" y="501">"JUD"</text></g><path d="M 884.75 497 a 10 10 0 0 0 10 -10 v -250 a 10 10 0 0 1 10 -10"></path></g><path d="M 914.75 227 a 10 10 0 0 1 10 10 v 279 a 10 10 0 0 0 10 10"></path><path d="M 914.75 108 a 10 10 0 0 1 10 10 v 99 a 10 10 0 0 0 10 10"></path><g>
<path d="M 934.75 227 h 10.0"></path><path d="M 1047.25 227 h 10.0"></path><path d="M 944.75 227 a 10 10 0 0 0 10 -10 v -10 a 10 10 0 0 1 10 -10"></path><g class="terminal ">
<path d="M 964.75 197 h 0.0"></path><path d="M 1027.25 197 h 0.0"></path><rect height="22" rx="10" ry="10" width="62.5" x="964.75" y="186"></rect><text x="996.0" y="201">"JDT"</text></g><path d="M 1027.25 197 a 10 10 0 0 1 10 10 v 10 a 10 10 0 0 0 10 10"></path><path d="M 944.75 227 a 10 10 0 0 0 10 -10 v -40 a 10 10 0 0 1 10 -10"></path><g class="terminal ">
<path d="M 964.75 167 h 0.0"></path><path d="M 1027.25 167 h 0.0"></path><rect height="22" rx="10" ry="10" width="62.5" x="964.75" y="156"></rect><text x="996.0" y="171">"TOB"</text></g><path d="M 1027.25 167 a 10 10 0 0 1 10 10 v 40 a 10 10 0 0 0 10 10"></path><path d="M 944.75 227 a 10 10 0 0 0 10 -10 v -70 a 10 10 0 0 1 10 -10"></path><g class="terminal ">
<path d="M 964.75 137 h 0.0"></path><path d="M 1027.25 137 h 0.0"></path><rect height="22" rx="10" ry="10" width="62.5" x="964.75" y="126"></rect><text x="996.0" y="141">"REV"</text></g><path d="M 1027.25 137 a 10 10 0 0 1 10 10 v 70 a 10 10 0 0 0 10 10"></path><path d="M 944.75 227 h 20"></path><g class="terminal ">
<path d="M 964.75 227 h 0.0"></path><path d="M 1027.25 227 h 0.0"></path><rect height="22" rx="10" ry="10" width="62.5" x="964.75" y="216"></rect><text x="996.0" y="231">"ESG"</text></g><path d="M 1027.25 227 h 20"></path><path d="M 944.75 227 a 10 10 0 0 1 10 10 v 10 a 10 10 0 0 0 10 10"></path><g class="terminal ">
<path d="M 964.75 257 h 0.0"></path><path d="M 1027.25 257 h 0.0"></path><rect height="22" rx="10" ry="10" width="62.5" x="964.75" y="246"></rect><text x="996.0" y="261">"WIS"</text></g><path d="M 1027.25 257 a 10 10 0 0 0 10 -10 v -10 a 10 10 0 0 1 10 -10"></path><path d="M 944.75 227 a 10 10 0 0 1 10 10 v 40 a 10 10 0 0 0 10 10"></path><g class="terminal ">
<path d="M 964.75 287 h 0.0"></path><path d="M 1027.25 287 h 0.0"></path><rect height="22" rx="10" ry="10" width="62.5" x="964.75" y="276"></rect><text x="996.0" y="291">"SIR"</text></g><path d="M 1027.25 287 a 10 10 0 0 0 10 -10 v -40 a 10 10 0 0 1 10 -10"></path><path d="M 944.75 227 a 10 10 0 0 1 10 10 v 70 a 10 10 0 0 0 10 10"></path><g class="terminal ">
<path d="M 964.75 317 h 0.0"></path><path d="M 1027.25 317 h 0.0"></path><rect height="22" rx="10" ry="10" width="62.5" x="964.75" y="306"></rect><text x="996.0" y="321">"BAR"</text></g><path d="M 1027.25 317 a 10 10 0 0 0 10 -10 v -70 a 10 10 0 0 1 10 -10"></path><path d="M 944.75 227 a 10 10 0 0 1 10 10 v 100 a 10 10 0 0 0 10 10"></path><g class="terminal ">
<path d="M 964.75 347 h 0.0"></path><path d="M 1027.25 347 h 0.0"></path><rect height="22" rx="10" ry="10" width="62.5" x="964.75" y="336"></rect><text x="996.0" y="351">"LJE"</text></g><path d="M 1027.25 347 a 10 10 0 0 0 10 -10 v -100 a 10 10 0 0 1 10 -10"></path><path d="M 944.75 227 a 10 10 0 0 1 10 10 v 130 a 10 10 0 0 0 10 10"></path><g class="terminal ">
<path d="M 964.75 377 h 0.0"></path><path d="M 1027.25 377 h 0.0"></path><rect height="22" rx="10" ry="10" width="62.5" x="964.75" y="366"></rect><text x="996.0" y="381">"S3Y"</text></g><path d="M 1027.25 377 a 10 10 0 0 0 10 -10 v -130 a 10 10 0 0 1 10 -10"></path><path d="M 944.75 227 a 10 10 0 0 1 10 10 v 160 a 10 10 0 0 0 10 10"></path><g class="terminal ">
<path d="M 964.75 407 h 0.0"></path><path d="M 1027.25 407 h 0.0"></path><rect height="22" rx="10" ry="10" width="62.5" x="964.75" y="396"></rect><text x="996.0" y="411">"SUS"</text></g><path d="M 1027.25 407 a 10 10 0 0 0 10 -10 v -160 a 10 10 0 0 1 10 -10"></path><path d="M 944.75 227 a 10 10 0 0 1 10 10 v 190 a 10 10 0 0 0 10 10"></path><g class="terminal ">
<path d="M 964.75 437 h 0.0"></path><path d="M 1027.25 437 h 0.0"></path><rect height="22" rx="10" ry="10" width="62.5" x="964.75" y="426"></rect><text x="996.0" y="441">"BEL"</text></g><path d="M 1027.25 437 a 10 10 0 0 0 10 -10 v -190 a 10 10 0 0 1 10 -10"></path><path d="M 944.75 227 a 10 10 0 0 1 10 10 v 220 a 10 10 0 0 0 10 10"></path><g class="terminal ">
<path d="M 964.75 467 h 0.0"></path><path d="M 1027.25 467 h 0.0"></path><rect height="22" rx="10" ry="10" width="62.5" x="964.75" y="456"></rect><text x="996.0" y="471">"1MA"</text></g><path d="M 1027.25 467 a 10 10 0 0 0 10 -10 v -220 a 10 10 0 0 1 10 -10"></path><path d="M 944.75 227 a 10 10 0 0 1 10 10 v 250 a 10 10 0 0 0 10 10"></path><g class="terminal ">
<path d="M 964.75 497 h 0.0"></path><path d="M 1027.25 497 h 0.0"></path><rect height="22" rx="10" ry="10" width="62.5" x="964.75" y="486"></rect><text x="996.0" y="501">"2MA"</text></g><path d="M 1027.25 497 a 10 10 0 0 0 10 -10 v -250 a 10 10 0 0 1 10 -10"></path></g><path d="M 1057.25 227 a 10 10 0 0 1 10 10 v 279 a 10 10 0 0 0 10 10"></path><path d="M 1057.25 108 a 10 10 0 0 1 10 10 v 99 a 10 10 0 0 0 10 10"></path><g>
<path d="M 1077.25 227 h 10.0"></path><path d="M 1189.75 227 h 10.0"></path><path d="M 1087.25 227 a 10 10 0 0 0 10 -10 v -10 a 10 10 0 0 1 10 -10"></path><g class="terminal ">
<path d="M 1107.25 197 h 0.0"></path><path d="M 1169.75 197 h 0.0"></path><rect height="22" rx="10" ry="10" width="62.5" x="1107.25" y="186"></rect><text x="1138.5" y="201">"1ES"</text></g><path d="M 1169.75 197 a 10 10 0 0 1 10 10 v 10 a 10 10 0 0 0 10 10"></path><path d="M 1087.25 227 a 10 10 0 0 0 10 -10 v -40 a 10 10 0 0 1 10 -10"></path><g class="terminal ">
<path d="M 1107.25 167 h 0.0"></path><path d="M 1169.75 167 h 0.0"></path><rect height="22" rx="10" ry="10" width="62.5" x="1107.25" y="156"></rect><text x="1138.5" y="171">"4MA"</text></g><path d="M 1169.75 167 a 10 10 0 0 1 10 10 v 40 a 10 10 0 0 0 10 10"></path><path d="M 1087.25 227 a 10 10 0 0 0 10 -10 v -70 a 10 10 0 0 1 10 -10"></path><g class="terminal ">
<path d="M 1107.25 137 h 0.0"></path><path d="M 1169.75 137 h 0.0"></path><rect height="22" rx="10" ry="10" width="62.5" x="1107.25" y="126"></rect><text x="1138.5" y="141">"3MA"</text></g><path d="M 1169.75 137 a 10 10 0 0 1 10 10 v 70 a 10 10 0 0 0 10 10"></path><path d="M 1087.25 227 h 20"></path><g class="terminal ">
<path d="M 1107.25 227 h 0.0"></path><path d="M 1169.75 227 h 0.0"></path><rect height="22" rx="10" ry="10" width="62.5" x="1107.25" y="216"></rect><text x="1138.5" y="231">"2ES"</text></g><path d="M 1169.75 227 h 20"></path><path d="M 1087.25 227 a 10 10 0 0 1 10 10 v 10 a 10 10 0 0 0 10 10"></path><g class="terminal ">
<path d="M 1107.25 257 h 0.0"></path><path d="M 1169.75 257 h 0.0"></path><rect height="22" rx="10" ry="10" width="62.5" x="1107.25" y="246"></rect><text x="1138.5" y="261">"MAN"</text></g><path d="M 1169.75 257 a 10 10 0 0 0 10 -10 v -10 a 10 10 0 0 1 10 -10"></path><path d="M 1087.25 227 a 10 10 0 0 1 10 10 v 40 a 10 10 0 0 0 10 10"></path><g class="terminal ">
<path d="M 1107.25 287 h 0.0"></path><path d="M 1169.75 287 h 0.0"></path><rect height="22" rx="10" ry="10" width="62.5" x="1107.25" y="276"></rect><text x="1138.5" y="291">"PS2"</text></g><path d="M 1169.75 287 a 10 10 0 0 0 10 -10 v -40 a 10 10 0 0 1 10 -10"></path><path d="M 1087.25 227 a 10 10 0 0 1 10 10 v 70 a 10 10 0 0 0 10 10"></path><g class="terminal ">
<path d="M 1107.25 317 h 0.0"></path><path d="M 1169.75 317 h 0.0"></path><rect height="22" rx="10" ry="10" width="62.5" x="1107.25" y="306"></rect><text x="1138.5" y="321">"ODA"</text></g><path d="M 1169.75 317 a 10 10 0 0 0 10 -10 v -70 a 10 10 0 0 1 10 -10"></path><path d="M 1087.25 227 a 10 10 0 0 1 10 10 v 100 a 10 10 0 0 0 10 10"></path><g class="terminal ">
<path d="M 1107.25 347 h 0.0"></path><path d="M 1169.75 347 h 0.0"></path><rect height="22" rx="10" ry="10" width="62.5" x="1107.25" y="336"></rect><text x="1138.5" y="351">"PSS"</text></g><path d="M 1169.75 347 a 10 10 0 0 0 10 -10 v -100 a 10 10 0 0 1 10 -10"></path><path d="M 1087.25 227 a 10 10 0 0 1 10 10 v 130 a 10 10 0 0 0 10 10"></path><g class="terminal ">
<path d="M 1107.25 377 h 0.0"></path><path d="M 1169.75 377 h 0.0"></path><rect height="22" rx="10" ry="10" width="62.5" x="1107.25" y="366"></rect><text x="1138.5" y="381">"EZA"</text></g><path d="M 1169.75 377 a 10 10 0 0 0 10 -10 v -130 a 10 10 0 0 1 10 -10"></path><path d="M 1087.25 227 a 10 10 0 0 1 10 10 v 160 a 10 10 0 0 0 10 10"></path><g class="terminal ">
<path d="M 1107.25 407 h 0.0"></path><path d="M 1169.75 407 h 0.0"></path><rect height="22" rx="10" ry="10" width="62.5" x="1107.25" y="396"></rect><text x="1138.5" y="411">"5EZ"</text></g><path d="M 1169.75 407 a 10 10 0 0 0 10 -10 v -160 a 10 10 0 0 1 10 -10"></path><path d="M 1087.25 227 a 10 10 0 0 1 10 10 v 190 a 10 10 0 0 0 10 10"></path><g class="terminal ">
<path d="M 1107.25 437 h 0.0"></path><path d="M 1169.75 437 h 0.0"></path><rect height="22" rx="10" ry="10" width="62.5" x="1107.25" y="426"></rect><text x="1138.5" y="441">"6EZ"</text></g><path d="M 1169.75 437 a 10 10 0 0 0 10 -10 v -190 a 10 10 0 0 1 10 -10"></path><path d="M 1087.25 227 a 10 10 0 0 1 10 10 v 220 a 10 10 0 0 0 10 10"></path><g class="terminal ">
<path d="M 1107.25 467 h 0.0"></path><path d="M 1169.75 467 h 0.0"></path><rect height="22" rx="10" ry="10" width="62.5" x="1107.25" y="456"></rect><text x="1138.5" y="471">"DAG"</text></g><path d="M 1169.75 467 a 10 10 0 0 0 10 -10 v -220 a 10 10 0 0 1 10 -10"></path><path d="M 1087.25 227 a 10 10 0 0 1 10 10 v 250 a 10 10 0 0 0 10 10"></path><g class="terminal ">
<path d="M 1107.25 497 h 0.0"></path><path d="M 1169.75 497 h 0.0"></path><rect height="22" rx="10" ry="10" width="62.5" x="1107.25" y="486"></rect><text x="1138.5" y="501">"PS3"</text></g><path d="M 1169.75 497 a 10 10 0 0 0 10 -10 v -250 a 10 10 0 0 1 10 -10"></path></g><path d="M 1199.75 227 a 10 10 0 0 1 10 10 v 279 a 10 10 0 0 0 10 10"></path><path d="M 1199.75 108 a 10 10 0 0 1 10 10 v 99 a 10 10 0 0 0 10 10"></path><g>
<path d="M 1219.75 227 h 10.0"></path><path d="M 1349.25 227 h 10.0"></path><path d="M 1229.75 227 a 10 10 0 0 0 10 -10 v -10 a 10 10 0 0 1 10 -10"></path><g class="terminal ">
<path d="M 1249.75 197 h 8.5"></path><path d="M 1320.75 197 h 8.5"></path><rect height="22" rx="10" ry="10" width="62.5" x="1258.25" y="186"></rect><text x="1289.5" y="201">"JUB"</text></g><path d="M 1329.25 197 a 10 10 0 0 1 10 10 v 10 a 10 10 0 0 0 10 10"></path><path d="M 1229.75 227 a 10 10 0 0 0 10 -10 v -40 a 10 10 0 0 1 10 -10"></path><g class="terminal ">
<path d="M 1249.75 167 h 8.5"></path><path d="M 1320.75 167 h 8.5"></path><rect height="22" rx="10" ry="10" width="62.5" x="1258.25" y="156"></rect><text x="1289.5" y="171">"LBA"</text></g><path d="M 1329.25 167 a 10 10 0 0 1 10 10 v 40 a 10 10 0 0 0 10 10"></path><path d="M 1229.75 227 a 10 10 0 0 0 10 -10 v -70 a 10 10 0 0 1 10 -10"></path><g class="terminal ">
<path d="M 1249.75 137 h 8.5"></path><path d="M 1320.75 137 h 8.5"></path><rect height="22" rx="10" ry="10" width="62.5" x="1258.25" y="126"></rect><text x="1289.5" y="141">"2BA"</text></g><path d="M 1329.25 137 a 10 10 0 0 1 10 10 v 70 a 10 10 0 0 0 10 10"></path><path d="M 1229.75 227 h 20"></path><g class="terminal ">
<path d="M 1249.75 227 h 8.5"></path><path d="M 1320.75 227 h 8.5"></path><rect height="22" rx="10" ry="10" width="62.5" x="1258.25" y="216"></rect><text x="1289.5" y="231">"ENO"</text></g><path d="M 1329.25 227 h 20"></path><path d="M 1229.75 227 a 10 10 0 0 1 10 10 v 10 a 10 10 0 0 0 10 10"></path><g class="terminal ">
<path d="M 1249.75 257 h 8.5"></path><path d="M 1320.75 257 h 8.5"></path><rect height="22" rx="10" ry="10" width="62.5" x="1258.25" y="246"></rect><text x="1289.5" y="261">"1MQ"</text></g><path d="M 1329.25 257 a 10 10 0 0 0 10 -10 v -10 a 10 10 0 0 1 10 -10"></path><path d="M 1229.75 227 a 10 10 0 0 1 10 10 v 40 a 10 10 0 0 0 10 10"></path><g class="terminal ">
<path d="M 1249.75 287 h 8.5"></path><path d="M 1320.75 287 h 8.5"></path><rect height="22" rx="10" ry="10" width="62.5" x="1258.25" y="276"></rect><text x="1289.5" y="291">"2MQ"</text></g><path d="M 1329.25 287 a 10 10 0 0 0 10 -10 v -40 a 10 10 0 0 1 10 -10"></path><path d="M 1229.75 227 a 10 10 0 0 1 10 10 v 70 a 10 10 0 0 0 10 10"></path><g class="terminal ">
<path d="M 1249.75 317 h 8.5"></path><path d="M 1320.75 317 h 8.5"></path><rect height="22" rx="10" ry="10" width="62.5" x="1258.25" y="306"></rect><text x="1289.5" y="321">"3MQ"</text></g><path d="M 1329.25 317 a 10 10 0 0 0 10 -10 v -70 a 10 10 0 0 1 10 -10"></path><path d="M 1229.75 227 a 10 10 0 0 1 10 10 v 100 a 10 10 0 0 0 10 10"></path><g class="terminal ">
<path d="M 1249.75 347 h 8.5"></path><path d="M 1320.75 347 h 8.5"></path><rect height="22" rx="10" ry="10" width="62.5" x="1258.25" y="336"></rect><text x="1289.5" y="351">"REP"</text></g><path d="M 1329.25 347 a 10 10 0 0 0 10 -10 v -100 a 10 10 0 0 1 10 -10"></path><path d="M 1229.75 227 a 10 10 0 0 1 10 10 v 130 a 10 10 0 0 0 10 10"></path><g class="terminal ">
<path d="M 1249.75 377 h 8.5"></path><path d="M 1320.75 377 h 8.5"></path><rect height="22" rx="10" ry="10" width="62.5" x="1258.25" y="366"></rect><text x="1289.5" y="381">"4BA"</text></g><path d="M 1329.25 377 a 10 10 0 0 0 10 -10 v -130 a 10 10 0 0 1 10 -10"></path><path d="M 1229.75 227 a 10 10 0 0 1 10 10 v 160 a 10 10 0 0 0 10 10"></path><g class="terminal ">
<path d="M 1249.75 407 h 8.5"></path><path d="M 1320.75 407 h 8.5"></path><rect height="22" rx="10" ry="10" width="62.5" x="1258.25" y="396"></rect><text x="1289.5" y="411">"LAO"</text></g><path d="M 1329.25 407 a 10 10 0 0 0 10 -10 v -160 a 10 10 0 0 1 10 -10"></path><path d="M 1229.75 227 a 10 10 0 0 1 10 10 v 190 a 10 10 0 0 0 10 10"></path><g class="terminal ">
<path d="M 1249.75 437 h 0.0"></path><path d="M 1329.25 437 h 0.0"></path><rect height="22" rx="10" ry="10" width="79.5" x="1249.75" y="426"></rect><text x="1289.5" y="441">/\S{3}/</text></g><path d="M 1329.25 437 a 10 10 0 0 0 10 -10 v -190 a 10 10 0 0 1 10 -10"></path></g><path d="M 1359.25 227 h 10"></path></g><path d="M 1521.5 227 a 10 10 0 0 1 10 10 v 287 a 10 10 0 0 1 -10 10 h -1461.5 a 10 10 0 0 0 -10 10 v 9 a 10 10 0 0 0 10 10"></path><g>
<path d="M 60.0 563 h 480.5"></path><path d="M 1041.0 563 h 480.5"></path><g>
<path d="M 540.5 563 h 0.0"></path><path d="M 927.0 563 h 0.0"></path><path d="M 540.5 563 h 20"></path><g>
<path d="M 560.5 563 h 346.5"></path></g><path d="M 907.0 563 h 20"></path><path d="M 540.5 563 a 10 10 0 0 1 10 10 v 9 a 10 10 0 0 0 10 10"></path><g>
<path d="M 560.5 592 h 0.0"></path><path d="M 907.0 592 h 0.0"></path><g>
<path d="M 560.5 592 h 0.0"></path><path d="M 765.0 592 h 0.0"></path><path d="M 560.5 592 h 20"></path><g class="terminal ">
<path d="M 580.5 592 h 59.5"></path><path d="M 685.5 592 h 59.5"></path><rect height="22" rx="10" ry="10" width="45.5" x="640.0" y="581"></rect><text x="662.75" y="596">' '</text></g><path d="M 745.0 592 h 20"></path><path d="M 560.5 592 a 10 10 0 0 1 10 10 v 10 a 10 10 0 0 0 10 10"></path><g class="terminal altterminal">
<path d="M 580.5 622 h 0.0"></path><path d="M 745.0 622 h 0.0"></path><rect height="22" rx="10" ry="10" width="164.5" x="580.5" y="611"></rect><text x="662.75" y="626">/&#91;\u0009\u0020&#93;&#42;/</text></g><path d="M 745.0 622 a 10 10 0 0 0 10 -10 v -10 a 10 10 0 0 1 10 -10"></path></g><path d="M 765.0 592 h 10"></path><path d="M 775.0 592 h 10"></path><g class="terminal ">
<path d="M 785.0 592 h 0.0"></path><path d="M 907.0 592 h 0.0"></path><rect height="22" rx="10" ry="10" width="122.0" x="785.0" y="581"></rect><text x="846.0" y="596">/&#91;^\\\n\r&#93;&#42;/</text></g></g><path d="M 907.0 592 a 10 10 0 0 0 10 -10 v -9 a 10 10 0 0 1 10 -10"></path></g><path d="M 927.0 563 h 10"></path><path d="M 937.0 563 h 10"></path><g>
<path d="M 947.0 563 h 0.0"></path><path d="M 1041.0 563 h 0.0"></path><path d="M 947.0 563 h 20"></path><g class="terminal ">
<path d="M 967.0 563 h 0.0"></path><path d="M 1021.0 563 h 0.0"></path><rect height="22" rx="10" ry="10" width="54.0" x="967.0" y="552"></rect><text x="994.0" y="567">'\n'</text></g><path d="M 1021.0 563 h 20"></path><path d="M 947.0 563 a 10 10 0 0 1 10 10 v 10 a 10 10 0 0 0 10 10"></path><g class="terminal altterminal">
<path d="M 967.0 593 h 8.5"></path><path d="M 1012.5 593 h 8.5"></path><rect height="22" rx="10" ry="10" width="37.0" x="975.5" y="582"></rect><text x="994.0" y="597">NL</text></g><path d="M 1021.0 593 a 10 10 0 0 0 10 -10 v -10 a 10 10 0 0 1 10 -10"></path></g></g><path d="M 1521.5 563 a 10 10 0 0 1 10 10 v 78 a 10 10 0 0 1 -10 10 h -1461.5 a 10 10 0 0 0 -10 10 v 18 a 10 10 0 0 0 10 10"></path><g>
<path d="M 60.0 699 h 10.0"></path><path d="M 1511.5 699 h 10.0"></path><g>
<path d="M 70.0 699 h 0.0"></path><path d="M 243.5 699 h 0.0"></path><path d="M 70.0 699 a 10 10 0 0 0 10 -10 v 0 a 10 10 0 0 1 10 -10"></path><g>
<path d="M 90.0 679 h 133.5"></path></g><path d="M 223.5 679 a 10 10 0 0 1 10 10 v 0 a 10 10 0 0 0 10 10"></path><path d="M 70.0 699 h 20"></path><g>
<path d="M 90.0 699 h 0.0"></path><path d="M 223.5 699 h 0.0"></path><path d="M 90.0 699 h 10"></path><g class="non-terminal ">
<path d="M 100.0 699 h 0.0"></path><path d="M 213.5 699 h 0.0"></path><rect height="22" width="113.5" x="100.0" y="688"></rect><text x="156.75" y="703">BookHeaders</text></g><path d="M 213.5 699 h 10"></path><path d="M 100.0 699 a 10 10 0 0 0 -10 10 v 0 a 10 10 0 0 0 10 10"></path><g>
<path d="M 100.0 719 h 113.5"></path></g><path d="M 213.5 719 a 10 10 0 0 0 10 -10 v 0 a 10 10 0 0 0 -10 -10"></path></g><path d="M 223.5 699 h 20"></path></g><path d="M 243.5 699 h 10"></path><path d="M 253.5 699 h 10"></path><g>
<path d="M 263.5 699 h 0.0"></path><path d="M 428.5 699 h 0.0"></path><path d="M 263.5 699 a 10 10 0 0 0 10 -10 v 0 a 10 10 0 0 1 10 -10"></path><g>
<path d="M 283.5 679 h 125.0"></path></g><path d="M 408.5 679 a 10 10 0 0 1 10 10 v 0 a 10 10 0 0 0 10 10"></path><path d="M 263.5 699 h 20"></path><g>
<path d="M 283.5 699 h 0.0"></path><path d="M 408.5 699 h 0.0"></path><path d="M 283.5 699 h 10"></path><g class="non-terminal ">
<path d="M 293.5 699 h 0.0"></path><path d="M 398.5 699 h 0.0"></path><rect height="22" width="105.0" x="293.5" y="688"></rect><text x="346.0" y="703">BookTitles</text></g><path d="M 398.5 699 h 10"></path><path d="M 293.5 699 a 10 10 0 0 0 -10 10 v 0 a 10 10 0 0 0 10 10"></path><g>
<path d="M 293.5 719 h 105.0"></path></g><path d="M 398.5 719 a 10 10 0 0 0 10 -10 v 0 a 10 10 0 0 0 -10 -10"></path></g><path d="M 408.5 699 h 20"></path></g><path d="M 428.5 699 h 10"></path><path d="M 438.5 699 h 10"></path><g>
<path d="M 448.5 699 h 0.0"></path><path d="M 664.5 699 h 0.0"></path><path d="M 448.5 699 a 10 10 0 0 0 10 -10 v 0 a 10 10 0 0 1 10 -10"></path><g>
<path d="M 468.5 679 h 176.0"></path></g><path d="M 644.5 679 a 10 10 0 0 1 10 10 v 0 a 10 10 0 0 0 10 10"></path><path d="M 448.5 699 h 20"></path><g>
<path d="M 468.5 699 h 0.0"></path><path d="M 644.5 699 h 0.0"></path><path d="M 468.5 699 h 10"></path><g class="non-terminal ">
<path d="M 478.5 699 h 0.0"></path><path d="M 634.5 699 h 0.0"></path><rect height="22" width="156.0" x="478.5" y="688"></rect><text x="556.5" y="703">BookIntroduction</text></g><path d="M 634.5 699 h 10"></path><path d="M 478.5 699 a 10 10 0 0 0 -10 10 v 0 a 10 10 0 0 0 10 10"></path><g>
<path d="M 478.5 719 h 156.0"></path></g><path d="M 634.5 719 a 10 10 0 0 0 10 -10 v 0 a 10 10 0 0 0 -10 -10"></path></g><path d="M 644.5 699 h 20"></path></g><path d="M 664.5 699 h 10"></path><path d="M 674.5 699 h 10"></path><g>
<path d="M 684.5 699 h 0.0"></path><path d="M 977.0 699 h 0.0"></path><path d="M 684.5 699 a 10 10 0 0 0 10 -10 v 0 a 10 10 0 0 1 10 -10"></path><g>
<path d="M 704.5 679 h 252.5"></path></g><path d="M 957.0 679 a 10 10 0 0 1 10 10 v 0 a 10 10 0 0 0 10 10"></path><path d="M 684.5 699 h 20"></path><g>
<path d="M 704.5 699 h 0.0"></path><path d="M 957.0 699 h 0.0"></path><path d="M 704.5 699 h 10"></path><g class="non-terminal ">
<path d="M 714.5 699 h 0.0"></path><path d="M 947.0 699 h 0.0"></path><rect height="22" width="232.5" x="714.5" y="688"></rect><text x="830.75" y="703">BookIntroductionEndTitles</text></g><path d="M 947.0 699 h 10"></path><path d="M 714.5 699 a 10 10 0 0 0 -10 10 v 0 a 10 10 0 0 0 10 10"></path><g>
<path d="M 714.5 719 h 232.5"></path></g><path d="M 947.0 719 a 10 10 0 0 0 10 -10 v 0 a 10 10 0 0 0 -10 -10"></path></g><path d="M 957.0 699 h 20"></path></g><path d="M 977.0 699 h 10"></path><path d="M 987.0 699 h 10"></path><g>
<path d="M 997.0 699 h 0.0"></path><path d="M 1193.0 699 h 0.0"></path><path d="M 997.0 699 h 20"></path><g>
<path d="M 1017.0 699 h 156.0"></path></g><path d="M 1173.0 699 h 20"></path><path d="M 997.0 699 a 10 10 0 0 1 10 10 v 0 a 10 10 0 0 0 10 10"></path><g class="non-terminal ">
<path d="M 1017.0 719 h 0.0"></path><path d="M 1173.0 719 h 0.0"></path><rect height="22" width="156.0" x="1017.0" y="708"></rect><text x="1095.0" y="723">BookChapterLabel</text></g><path d="M 1173.0 719 a 10 10 0 0 0 10 -10 v 0 a 10 10 0 0 1 10 -10"></path></g><path d="M 1193.0 699 h 10"></path><path d="M 1203.0 699 h 10"></path><g class="non-terminal ">
<path d="M 1213.0 699 h 0.0"></path><path d="M 1292.5 699 h 0.0"></path><rect height="22" width="79.5" x="1213.0" y="688"></rect><text x="1252.75" y="703">Chapter</text></g><path d="M 1292.5 699 h 10"></path><path d="M 1302.5 699 h 10"></path><g>
<path d="M 1312.5 699 h 0.0"></path><path d="M 1511.5 699 h 0.0"></path><path d="M 1312.5 699 h 10"></path><g>
<path d="M 1322.5 699 h 0.0"></path><path d="M 1501.5 699 h 0.0"></path><path d="M 1322.5 699 h 20"></path><g class="non-terminal ">
<path d="M 1342.5 699 h 29.75"></path><path d="M 1451.75 699 h 29.75"></path><rect height="22" width="79.5" x="1372.25" y="688"></rect><text x="1412.0" y="703">Chapter</text></g><path d="M 1481.5 699 h 20"></path><path d="M 1322.5 699 a 10 10 0 0 1 10 10 v 10 a 10 10 0 0 0 10 10"></path><g class="non-terminal ">
<path d="M 1342.5 729 h 29.75"></path><path d="M 1451.75 729 h 29.75"></path><rect height="22" width="79.5" x="1372.25" y="718"></rect><text x="1412.0" y="733">Section</text></g><path d="M 1481.5 729 a 10 10 0 0 0 10 -10 v -10 a 10 10 0 0 1 10 -10"></path><path d="M 1322.5 699 a 10 10 0 0 1 10 10 v 40 a 10 10 0 0 0 10 10"></path><g class="non-terminal ">
<path d="M 1342.5 759 h 42.5"></path><path d="M 1439.0 759 h 42.5"></path><rect height="22" width="54.0" x="1385.0" y="748"></rect><text x="1412.0" y="763">Para</text></g><path d="M 1481.5 759 a 10 10 0 0 0 10 -10 v -40 a 10 10 0 0 1 10 -10"></path><path d="M 1322.5 699 a 10 10 0 0 1 10 10 v 70 a 10 10 0 0 0 10 10"></path><g class="non-terminal ">
<path d="M 1342.5 789 h 42.5"></path><path d="M 1439.0 789 h 42.5"></path><rect height="22" width="54.0" x="1385.0" y="778"></rect><text x="1412.0" y="793">List</text></g><path d="M 1481.5 789 a 10 10 0 0 0 10 -10 v -70 a 10 10 0 0 1 10 -10"></path><path d="M 1322.5 699 a 10 10 0 0 1 10 10 v 100 a 10 10 0 0 0 10 10"></path><g class="non-terminal ">
<path d="M 1342.5 819 h 38.25"></path><path d="M 1443.25 819 h 38.25"></path><rect height="22" width="62.5" x="1380.75" y="808"></rect><text x="1412.0" y="823">Table</text></g><path d="M 1481.5 819 a 10 10 0 0 0 10 -10 v -100 a 10 10 0 0 1 10 -10"></path><path d="M 1322.5 699 a 10 10 0 0 1 10 10 v 130 a 10 10 0 0 0 10 10"></path><g class="non-terminal ">
<path d="M 1342.5 849 h 25.5"></path><path d="M 1456.0 849 h 25.5"></path><rect height="22" width="88.0" x="1368.0" y="838"></rect><text x="1412.0" y="853">Footnote</text></g><path d="M 1481.5 849 a 10 10 0 0 0 10 -10 v -130 a 10 10 0 0 1 10 -10"></path><path d="M 1322.5 699 a 10 10 0 0 1 10 10 v 160 a 10 10 0 0 0 10 10"></path><g class="non-terminal ">
<path d="M 1342.5 879 h 0.0"></path><path d="M 1481.5 879 h 0.0"></path><rect height="22" width="139.0" x="1342.5" y="868"></rect><text x="1412.0" y="883">CrossReference</text></g><path d="M 1481.5 879 a 10 10 0 0 0 10 -10 v -160 a 10 10 0 0 1 10 -10"></path><path d="M 1322.5 699 a 10 10 0 0 1 10 10 v 190 a 10 10 0 0 0 10 10"></path><g class="non-terminal ">
<path d="M 1342.5 909 h 29.75"></path><path d="M 1451.75 909 h 29.75"></path><rect height="22" width="79.5" x="1372.25" y="898"></rect><text x="1412.0" y="913">Sidebar</text></g><path d="M 1481.5 909 a 10 10 0 0 0 10 -10 v -190 a 10 10 0 0 1 10 -10"></path></g><path d="M 1501.5 699 h 10"></path><path d="M 1322.5 699 a 10 10 0 0 0 -10 10 v 219 a 10 10 0 0 0 10 10"></path><g>
<path d="M 1322.5 938 h 179.0"></path></g><path d="M 1501.5 938 a 10 10 0 0 0 10 -10 v -219 a 10 10 0 0 0 -10 -10"></path></g></g><path d="M 1521.5 699 h 10"></path><path d="M 1531.5 699 h 0.0"></path></g></g><path d="M 1531.5 699 h 10"></path><path d="M 1541.5 699 h 20 m 0 -10 v 20"></path></g></svg>