<svg class="railroad-diagram" height="1134" viewBox="0 0 1581.5 1134" width="1581.5" xmlns="http://www.w3.org/2000/svg" xmlns:xlink="http://www.w3.org/1999/xlink">
<g transform="translate(.5 .5)">
<style>/* <![CDATA[ */

    svg.railroad-diagram {
        background-color: hsl(30,20%,95%);
    }
    svg.railroad-diagram path {
        stroke-width: 2;
        stroke: black;
        fill: none;
    }
    svg.railroad-diagram text {
        font-size: 12px;
        text-anchor: middle;
        font-family: DejaVu Sans;
    }
    svg.railroad-diagram text.label {
        text-anchor:start;
    }
    svg.railroad-diagram text.comment {
        font-family: DejaVu Sans;
        font-size: 14px;
    }
    svg.railroad-diagram rect{
        stroke-width: 2;
        stroke: black;
        fill: rgb(210, 255, 210);
    }
    svg.railroad-diagram rect.group-box {
        stroke: gray;
        stroke-dasharray: 10 5;
        fill: none;
    }
    .terminal {
        font-family: DejaVu Sans;
    }
    svg.railroad-diagram g.altterminal rect {
        fill: rgb(251, 252, 207)
    }

/* ]]> */
</style><g>
<path d="M 20 20 v 20 m 0 -10 h 20"></path></g><path d="M 40 30 h 10"></path><g>
<path d="M 50 30 h 0.0"></path><path d="M 1531.5 815 h 0.0"></path><g>
<path d="M 50.0 30 h 0.0"></path><path d="M 50.0 30 h 10"></path><g>
<path d="M 60.0 30 h 554.5"></path><path d="M 967.0 30 h 554.5"></path><path d="M 614.5 30 h 20"></path><g>
<path d="M 634.5 30 h 312.5"></path></g><path d="M 947.0 30 h 20"></path><path d="M 614.5 30 a 10 10 0 0 1 10 10 v 9 a 10 10 0 0 0 10 10"></path><g>
<path d="M 634.5 59 h 0.0"></path><path d="M 947.0 59 h 0.0"></path><g>
<path d="M 634.5 59 h 0.0"></path><path d="M 847.5 59 h 0.0"></path><path d="M 634.5 59 h 20"></path><g class="terminal ">
<path d="M 654.5 59 h 29.75"></path><path d="M 797.75 59 h 29.75"></path><rect height="22" rx="10" ry="10" width="113.5" x="684.25" y="48"></rect><text x="741.0" y="63">'\n\\usfm '</text></g><path d="M 827.5 59 h 20"></path><path d="M 634.5 59 a 10 10 0 0 1 10 10 v 10 a 10 10 0 0 0 10 10"></path><g class="terminal altterminal">
<path d="M 654.5 89 h 0.0"></path><path d="M 827.5 89 h 0.0"></path><rect height="22" rx="10" ry="10" width="173.0" x="654.5" y="78"></rect><text x="741.0" y="93">/${Ws}\\usfm${HS}/</text></g><path d="M 827.5 89 a 10 10 0 0 0 10 -10 v -10 a 10 10 0 0 1 10 -10"></path></g><path d="M 847.5 59 h 10"></path><path d="M 857.5 59 h 10"></path><g class="terminal ">
<path d="M 867.5 59 h 0.0"></path><path d="M 947.0 59 h 0.0"></path><rect height="22" rx="10" ry="10" width="79.5" x="867.5" y="48"></rect><text x="907.25" y="63">TEXTNWS</text></g></g><path d="M 947.0 59 a 10 10 0 0 0 10 -10 v -9 a 10 10 0 0 1 10 -10"></path></g><path d="M 1521.5 30 a 10 10 0 0 1 10 10 v 78 a 10 10 0 0 1 -10 10 h -1461.5 a 10 10 0 0 0 -10 10 v 9 a 10 10 0 0 0 10 10"></path><g>
<path d="M 60.0 157 h 534.5"></path><path d="M 987.0 157 h 534.5"></path><g>
<path d="M 594.5 157 h 0.0"></path><path d="M 782.0 157 h 0.0"></path><path d="M 594.5 157 h 20"></path><g class="terminal ">
<path d="M 614.5 157 h 46.75"></path><path d="M 715.25 157 h 46.75"></path><rect height="22" rx="10" ry="10" width="54.0" x="661.25" y="146"></rect><text x="688.25" y="161">'\\'</text></g><path d="M 762.0 157 h 20"></path><path d="M 594.5 157 a 10 10 0 0 1 10 10 v 10 a 10 10 0 0 0 10 10"></path><g class="terminal altterminal">
<path d="M 614.5 187 h 0.0"></path><path d="M 762.0 187 h 0.0"></path><rect height="22" rx="10" ry="10" width="147.5" x="614.5" y="176"></rect><text x="688.25" y="191">/﻿?${anyws}&#42;\\/</text></g><path d="M 762.0 187 a 10 10 0 0 0 10 -10 v -10 a 10 10 0 0 1 10 -10"></path></g><path d="M 782.0 157 h 10"></path><path d="M 792.0 157 h 10"></path><g class="terminal ">
<path d="M 802.0 157 h 0.0"></path><path d="M 856.0 157 h 0.0"></path><rect height="22" rx="10" ry="10" width="54.0" x="802.0" y="146"></rect><text x="829.0" y="161">"id"</text></g><path d="M 856.0 157 h 10"></path><path d="M 866.0 157 h 10"></path><g>
<path d="M 876.0 157 h 0.0"></path><path d="M 987.0 157 h 0.0"></path><path d="M 876.0 157 h 20"></path><g class="terminal ">
<path d="M 896.0 157 h 12.75"></path><path d="M 954.25 157 h 12.75"></path><rect height="22" rx="10" ry="10" width="45.5" x="908.75" y="146"></rect><text x="931.5" y="161">' '</text></g><path d="M 967.0 157 h 20"></path><path d="M 876.0 157 a 10 10 0 0 1 10 10 v 10 a 10 10 0 0 0 10 10"></path><g class="terminal altterminal">
<path d="M 896.0 187 h 0.0"></path><path d="M 967.0 187 h 0.0"></path><rect height="22" rx="10" ry="10" width="71.0" x="896.0" y="176"></rect><text x="931.5" y="191">TAGEND</text></g><path d="M 967.0 187 a 10 10 0 0 0 10 -10 v -10 a 10 10 0 0 1 10 -10"></path></g></g><path d="M 1521.5 157 a 10 10 0 0 1 10 10 v 39 a 10 10 0 0 1 -10 10 h -1461.5 a 10 10 0 0 0 -10 10 v 107 a 10 10 0 0 0 10 10"></path><g>
<path d="M 60.0 343 h 126.75"></path><path d="M 1394.75 343 h 126.75"></path><path d="M 186.75 343 a 10 10 0 0 0 10 -10 v -99 a 10 10 0 0 1 10 -10 h 967.5"></path><path d="M 339.25 642 h 1035.5 a 10 10 0 0 0 10 -10 v -279 a 10 10 0 0 1 10 -10"></path><path d="M 186.75 343 h 10"></path><g>
<path d="M 196.75 343 h 10.0"></path><path d="M 309.25 343 h 10.0"></path><path d="M 206.75 343 a 10 10 0 0 0 10 -10 v -10 a 10 10 0 0 1 10 -10"></path><g class="terminal ">
<path d="M 226.75 313 h 0.0"></path><path d="M 289.25 313 h 0.0"></path><rect height="22" rx="10" ry="10" width="62.5" x="226.75" y="302"></rect><text x="258.0" y="317">"LEV"</text></g><path d="M 289.25 313 a 10 10 0 0 1 10 10 v 10 a 10 10 0 0 0 10 10"></path><path d="M 206.75 343 a 10 10 0 0 0 10 -10 v -40 a 10 10 0 0 1 10 -10"></path><g class="terminal ">
<path d="M 226.75 283 h 0.0"></path><path d="M 289.25 283 h 0.0"></path><rect height="22" rx="10" ry="10" width="62.5" x="226.75" y="272"></rect><text x="258.0" y="287">"EXO"</text></g><path d="M 289.25 283 a 10 10 0 0 1 10 10 v 40 a 10 10 0 0 0 10 10"></path><path d="M 206.75 343 a 10 10 0 0 0 10 -10 v -70 a 10 10 0 0 1 10 -10"></path><g class="terminal ">
<path d="M 226.75 253 h 0.0"></path><path d="M 289.25 253 h 0.0"></path><rect height="22" rx="10" ry="10" width="62.5" x="226.75" y="242"></rect><text x="258.0" y="257">"GEN"</text></g><path d="M 289.25 253 a 10 10 0 0 1 10 10 v 70 a 10 10 0 0 0 10 10"></path><path d="M 206.75 343 h 20"></path><g class="terminal ">
<path d="M 226.75 343 h 0.0"></path><path d="M 289.25 343 h 0.0"></path><rect height="22" rx="10" ry="10" width="62.5" x="226.75" y="332"></rect><text x="258.0" y="347">"NUM"</text></g><path d="M 289.25 343 h 20"></path><path d="M 206.75 343 a 10 10 0 0 1 10 10 v 10 a 10 10 0 0 0 10 10"></path><g class="terminal ">
<path d="M 226.75 373 h 0.0"></path><path d="M 289.25 373 h 0.0"></path><rect height="22" rx="10" ry="10" width="62.5" x="226.75" y="362"></rect><text x="258.0" y="377">"DEU"</text></g><path d="M 289.25 373 a 10 10 0 0 0 10 -10 v -10 a 10 10 0 0 1 10 -10"></path><path d="M 206.75 343 a 10 10 0 0 1 10 10 v 40 a 10 10 0 0 0 10 10"></path><g class="terminal ">
<path d="M 226.75 403 h 0.0"></path><path d="M 289.25 403 h 0.0"></path><rect height="22" rx="10" ry="10" width="62.5" x="226.75" y="392"></rect><text x="258.0" y="407">"JOS"</text></g><path d="M 289.25 403 a 10 10 0 0 0 10 -10 v -40 a 10 10 0 0 1 10 -10"></path><path d="M 206.75 343 a 10 10 0 0 1 10 10 v 70 a 10 10 0 0 0 10 10"></path><g class="terminal ">
<path d="M 226.75 433 h 0.0"></path><path d="M 289.25 433 h 0.0"></path><rect height="22" rx="10" ry="10" width="62.5" x="226.75" y="422"></rect><text x="258.0" y="437">"JDG"</text></g><path d="M 289.25 433 a 10 10 0 0 0 10 -10 v -70 a 10 10 0 0 1 10 -10"></path><path d="M 206.75 343 a 10 10 0 0 1 10 10 v 100 a 10 10 0 0 0 10 10"></path><g class="terminal ">
<path d="M 226.75 463 h 0.0"></path><path d="M 289.25 463 h 0.0"></path><rect height="22" rx="10" ry="10" width="62.5" x="226.75" y="452"></rect><text x="258.0" y="467">"RUT"</text></g><path d="M 289.25 463 a 10 10 0 0 0 10 -10 v -100 a 10 10 0 0 1 10 -10"></path><path d="M 206.75 343 a 10 10 0 0 1 10 10 v 130 a 10 10 0 0 0 10 10"></path><g class="terminal ">
<path d="M 226.75 493 h 0.0"></path><path d="M 289.25 493 h 0.0"></path><rect height="22" rx="10" ry="10" width="62.5" x="226.75" y="482"></rect><text x="258.0" y="497">"1SA"</text></g><path d="M 289.25 493 a 10 10 0 0 0 10 -10 v -130 a 10 10 0 0 1 10 -10"></path><path d="M 206.75 343 a 10 10 0 0 1 10 10 v 160 a 10 10 0 0 0 10 10"></path><g class="terminal ">
<path d="M 226.75 523 h 0.0"></path><path d="M 289.25 523 h 0.0"></path><rect height="22" rx="10" ry="10" width="62.5" x="226.75" y="512"></rect><text x="258.0" y="527">"2SA"</text></g><path d="M 289.25 523 a 10 10 0 0 0 10 -10 v -160 a 10 10 0 0 1 10 -10"></path><path d="M 206.75 343 a 10 10 0 0 1 10 10 v 190 a 10 10 0 0 0 10 10"></path><g class="terminal ">
<path d="M 226.75 553 h 0.0"></path><path d="M 289.25 553 h 0.0"></path><rect height="22" rx="10" ry="10" width="62.5" x="226.75" y="542"></rect><text x="258.0" y="557">"1KI"</text></g><path d="M 289.25 553 a 10 10 0 0 0 10 -10 v -190 a 10 10 0 0 1 10 -10"></path><path d="M 206.75 343 a 10 10 0 0 1 10 10 v 220 a 10 10 0 0 0 10 10"></path><g class="terminal ">
<path d="M 226.75 583 h 0.0"></path><path d="M 289.25 583 h 0.0"></path><rect height="22" rx="10" ry="10" width="62.5" x="226.75" y="572"></rect><text x="258.0" y="587">"2KI"</text></g><path d="M 289.25 583 a 10 10 0 0 0 10 -10 v -220 a 10 10 0 0 1 10 -10"></path><path d="M 206.75 343 a 10 10 0 0 1 10 10 v 250 a 10 10 0 0 0 10 10"></path><g class="terminal ">
<path d="M 226.75 613 h 0.0"></path><path d="M 289.25 613 h 0.0"></path><rect height="22" rx="10" ry="10" width="62.5" x="226.75" y="602"></rect><text x="258.0" y="617">"1CH"</text></g><path d="M 289.25 613 a 10 10 0 0 0 10 -10 v -250 a 10 10 0 0 1 10 -10"></path></g><path d="M 319.25 343 a 10 10 0 0 1 10 10 v 279 a 10 10 0 0 0 10 10"></path><path d="M 319.25 224 a 10 10 0 0 1 10 10 v 99 a 10 10 0 0 0 10 10"></path><g>
<path d="M 339.25 343 h 10.0"></path><path d="M 451.75 343 h 10.0"></path><path d="M 349.25 343 a 10 10 0 0 0 10 -10 v -10 a 10 10 0 0 1 10 -10"></path><g class="terminal ">
<path d="M 369.25 313 h 0.0"></path><path d="M 431.75 313 h 0.0"></path><rect height="22" rx="10" ry="10" width="62.5" x="369.25" y="302"></rect><text x="400.5" y="317">"NEH"</text></g><path d="M 431.75 313 a 10 10 0 0 1 10 10 v 10 a 10 10 0 0 0 10 10"></path><path d="M 349.25 343 a 10 10 0 0 0 10 -10 v -40 a 10 10 0 0 1 10 -10"></path><g class="terminal ">
<path d="M 369.25 283 h 0.0"></path><path d="M 431.75 283 h 0.0"></path><rect height="22" rx="10" ry="10" width="62.5" x="369.25" y="272"></rect><text x="400.5" y="287">"EZR"</text></g><path d="M 431.75 283 a 10 10 0 0 1 10 10 v 40 a 10 10 0 0 0 10 10"></path><path d="M 349.25 343 a 10 10 0 0 0 10 -10 v -70 a 10 10 0 0 1 10 -10"></path><g class="terminal ">
<path d="M 369.25 253 h 0.0"></path><path d="M 431.75 253 h 0.0"></path><rect height="22" rx="10" ry="10" width="62.5" x="369.25" y="242"></rect><text x="400.5" y="257">"2CH"</text></g><path d="M 431.75 253 a 10 10 0 0 1 10 10 v 70 a 10 10 0 0 0 10 10"></path><path d="M 349.25 343 h 20"></path><g class="terminal ">
<path d="M 369.25 343 h 0.0"></path><path d="M 431.75 343 h 0.0"></path><rect height="22" rx="10" ry="10" width="62.5" x="369.25" y="332"></rect><text x="400.5" y="347">"EST"</text></g><path d="M 431.75 343 h 20"></path><path d="M 349.25 343 a 10 10 0 0 1 10 10 v 10 a 10 10 0 0 0 10 10"></path><g class="terminal ">
<path d="M 369.25 373 h 0.0"></path><path d="M 431.75 373 h 0.0"></path><rect height="22" rx="10" ry="10" width="62.5" x="369.25" y="362"></rect><text x="400.5" y="377">"JOB"</text></g><path d="M 431.75 373 a 10 10 0 0 0 10 -10 v -10 a 10 10 0 0 1 10 -10"></path><path d="M 349.25 343 a 10 10 0 0 1 10 10 v 40 a 10 10 0 0 0 10 10"></path><g class="terminal ">
<path d="M 369.25 403 h 0.0"></path><path d="M 431.75 403 h 0.0"></path><rect height="22" rx="10" ry="10" width="62.5" x="369.25" y="392"></rect><text x="400.5" y="407">"PSA"</text></g><path d="M 431.75 403 a 10 10 0 0 0 10 -10 v -40 a 10 10 0 0 1 10 -10"></path><path d="M 349.25 343 a 10 10 0 0 1 10 10 v 70 a 10 10 0 0 0 10 10"></path><g class="terminal ">
<path d="M 369.25 433 h 0.0"></path><path d="M 431.75 433 h 0.0"></path><rect height="22" rx="10" ry="10" width="62.5" x="369.25" y="422"></rect><text x="400.5" y="437">"PRO"</text></g><path d="M 431.75 433 a 10 10 0 0 0 10 -10 v -70 a 10 10 0 0 1 10 -10"></path><path d="M 349.25 343 a 10 10 0 0 1 10 10 v 100 a 10 10 0 0 0 10 10"></path><g class="terminal ">
<path d="M 369.25 463 h 0.0"></path><path d="M 431.75 463 h 0.0"></path><rect height="22" rx="10" ry="10" width="62.5" x="369.25" y="452"></rect><text x="400.5" y="467">"ECC"</text></g><path d="M 431.75 463 a 10 10 0 0 0 10 -10 v -100 a 10 10 0 0 1 10 -10"></path><path d="M 349.25 343 a 10 10 0 0 1 10 10 v 130 a 10 10 0 0 0 10 10"></path><g class="terminal ">
<path d="M 369.25 493 h 0.0"></path><path d="M 431.75 493 h 0.0"></path><rect height="22" rx="10" ry="10" width="62.5" x="369.25" y="482"></rect><text x="400.5" y="497">"SNG"</text></g><path d="M 431.75 493 a 10 10 0 0 0 10 -10 v -130 a 10 10 0 0 1 10 -10"></path><path d="M 349.25 343 a 10 10 0 0 1 10 10 v 160 a 10 10 0 0 0 10 10"></path><g class="terminal ">
<path d="M 369.25 523 h 0.0"></path><path d="M 431.75 523 h 0.0"></path><rect height="22" rx="10" ry="10" width="62.5" x="369.25" y="512"></rect><text x="400.5" y="527">"ISA"</text></g><path d="M 431.75 523 a 10 10 0 0 0 10 -10 v -160 a 10 10 0 0 1 10 -10"></path><path d="M 349.25 343 a 10 10 0 0 1 10 10 v 190 a 10 10 0 0 0 10 10"></path><g class="terminal ">
<path d="M 369.25 553 h 0.0"></path><path d="M 431.75 553 h 0.0"></path><rect height="22" rx="10" ry="10" width="62.5" x="369.25" y="542"></rect><text x="400.5" y="557">"JER"</text></g><path d="M 431.75 553 a 10 10 0 0 0 10 -10 v -190 a 10 10 0 0 1 10 -10"></path><path d="M 349.25 343 a 10 10 0 0 1 10 10 v 220 a 10 10 0 0 0 10 10"></path><g class="terminal ">
<path d="M 369.25 583 h 0.0"></path><path d="M 431.75 583 h 0.0"></path><rect height="22" rx="10" ry="10" width="62.5" x="369.25" y="572"></rect><text x="400.5" y="587">"LAM"</text></g><path d="M 431.75 583 a 10 10 0 0 0 10 -10 v -220 a 10 10 0 0 1 10 -10"></path><path d="M 349.25 343 a 10 10 0 0 1 10 10 v 250 a 10 10 0 0 0 10 10"></path><g class="terminal ">
<path d="M 369.25 613 h 0.0"></path><path d="M 431.75 613 h 0.0"></path><rect height="22" rx="10" ry="10" width="62.5" x="369.25" y="602"></rect><text x="400.5" y="617">"EZK"</text></g><path d="M 431.75 613 a 10 10 0 0 0 10 -10 v -250 a 10 10 0 0 1 10 -10"></path></g><path d="M 461.75 343 a 10 10 0 0 1 10 10 v 279 a 10 10 0 0 0 10 10"></path><path d="M 461.75 224 a 10 10 0 0 1 10 10 v 99 a 10 10 0 0 0 10 10"></path><g>
<path d="M 481.75 343 h 10.0"></path><path d="M 594.25 343 h 10.0"></path><path d="M 491.75 343 a 10 10 0 0 0 10 -10 v -10 a 10 10 0 0 1 10 -10"></path><g class="terminal ">
<path d="M 511.75 313 h 0.0"></path><path d="M 574.25 313 h 0.0"></path><rect height="22" rx="10" ry="10" width="62.5" x="511.75" y="302"></rect><text x="543.0" y="317">"JOL"</text></g><path d="M 574.25 313 a 10 10 0 0 1 10 10 v 10 a 10 10 0 0 0 10 10"></path><path d="M 491.75 343 a 10 10 0 0 0 10 -10 v -40 a 10 10 0 0 1 10 -10"></path><g class="terminal ">
<path d="M 511.75 283 h 0.0"></path><path d="M 574.25 283 h 0.0"></path><rect height="22" rx="10" ry="10" width="62.5" x="511.75" y="272"></rect><text x="543.0" y="287">"HOS"</text></g><path d="M 574.25 283 a 10 10 0 0 1 10 10 v 40 a 10 10 0 0 0 10 10"></path><path d="M 491.75 343 a 10 10 0 0 0 10 -10 v -70 a 10 10 0 0 1 10 -10"></path><g class="terminal ">
<path d="M 511.75 253 h 0.0"></path><path d="M 574.25 253 h 0.0"></path><rect height="22" rx="10" ry="10" width="62.5" x="511.75" y="242"></rect><text x="543.0" y="257">"DAN"</text></g><path d="M 574.25 253 a 10 10 0 0 1 10 10 v 70 a 10 10 0 0 0 10 10"></path><path d="M 491.75 343 h 20"></path><g class="terminal ">
<path d="M 511.75 343 h 0.0"></path><path d="M 574.25 343 h 0.0"></path><rect height="22" rx="10" ry="10" width="62.5" x="511.75" y="332"></rect><text x="543.0" y="347">"AMO"</text></g><path d="M 574.25 343 h 20"></path><path d="M 491.75 343 a 10 10 0 0 1 10 10 v 10 a 10 10 0 0 0 10 10"></path><g class="terminal ">
<path d="M 511.75 373 h 0.0"></path><path d="M 574.25 373 h 0.0"></path><rect height="22" rx="10" ry="10" width="62.5" x="511.75" y="362"></rect><text x="543.0" y="377">"OBA"</text></g><path d="M 574.25 373 a 10 10 0 0 0 10 -10 v -10 a 10 10 0 0 1 10 -10"></path><path d="M 491.75 343 a 10 10 0 0 1 10 10 v 40 a 10 10 0 0 0 10 10"></path><g class="terminal ">
<path d="M 511.75 403 h 0.0"></path><path d="M 574.25 403 h 0.0"></path><rect height="22" rx="10" ry="10" width="62.5" x="511.75" y="392"></rect><text x="543.0" y="407">"JON"</text></g><path d="M 574.25 403 a 10 10 0 0 0 10 -10 v -40 a 10 10 0 0 1 10 -10"></path><path d="M 491.75 343 a 10 10 0 0 1 10 10 v 70 a 10 10 0 0 0 10 10"></path><g class="terminal ">
<path d="M 511.75 433 h 0.0"></path><path d="M 574.25 433 h 0.0"></path><rect height="22" rx="10" ry="10" width="62.5" x="511.75" y="422"></rect><text x="543.0" y="437">"MIC"</text></g><path d="M 574.25 433 a 10 10 0 0 0 10 -10 v -70 a 10 10 0 0 1 10 -10"></path><path d="M 491.75 343 a 10 10 0 0 1 10 10 v 100 a 10 10 0 0 0 10 10"></path><g class="terminal ">
<path d="M 511.75 463 h 0.0"></path><path d="M 574.25 463 h 0.0"></path><rect height="22" rx="10" ry="10" width="62.5" x="511.75" y="452"></rect><text x="543.0" y="467">"NAM"</text></g><path d="M 574.25 463 a 10 10 0 0 0 10 -10 v -100 a 10 10 0 0 1 10 -10"></path><path d="M 491.75 343 a 10 10 0 0 1 10 10 v 130 a 10 10 0 0 0 10 10"></path><g class="terminal ">
<path d="M 511.75 493 h 0.0"></path><path d="M 574.25 493 h 0.0"></path><rect height="22" rx="10" ry="10" width="62.5" x="511.75" y="482"></rect><text x="543.0" y="497">"HAB"</text></g><path d="M 574.25 493 a 10 10 0 0 0 10 -10 v -130 a 10 10 0 0 1 10 -10"></path><path d="M 491.75 343 a 10 10 0 0 1 10 10 v 160 a 10 10 0 0 0 10 10"></path><g class="terminal ">
<path d="M 511.75 523 h 0.0"></path><path d="M 574.25 523 h 0.0"></path><rect height="22" rx="10" ry="10" width="62.5" x="511.75" y="512"></rect><text x="543.0" y="527">"ZEP"</text></g><path d="M 574.25 523 a 10 10 0 0 0 10 -10 v -160 a 10 10 0 0 1 10 -10"></path><path d="M 491.75 343 a 10 10 0 0 1 10 10 v 190 a 10 10 0 0 0 10 10"></path><g class="terminal ">
<path d="M 511.75 553 h 0.0"></path><path d="M 574.25 553 h 0.0"></path><rect height="22" rx="10" ry="10" width="62.5" x="511.75" y="542"></rect><text x="543.0" y="557">"HAG"</text></g><path d="M 574.25 553 a 10 10 0 0 0 10 -10 v -190 a 10 10 0 0 1 10 -10"></path><path d="M 491.75 343 a 10 10 0 0 1 10 10 v 220 a 10 10 0 0 0 10 10"></path><g class="terminal ">
<path d="M 511.75 583 h 0.0"></path><path d="M 574.25 583 h 0.0"></path><rect height="22" rx="10" ry="10" width="62.5" x="511.75" y="572"></rect><text x="543.0" y="587">"ZEC"</text></g><path d="M 574.25 583 a 10 10 0 0 0 10 -10 v -220 a 10 10 0 0 1 10 -10"></path><path d="M 491.75 343 a 10 10 0 0 1 10 10 v 250 a 10 10 0 0 0 10 10"></path><g class="terminal ">
<path d="M 511.75 613 h 0.0"></path><path d="M 574.25 613 h 0.0"></path><rect height="22" rx="10" ry="10" width="62.5" x="511.75" y="602"></rect><text x="543.0" y="617">"MAL"</text></g><path d="M 574.25 613 a 10 10 0 0 0 10 -10 v -250 a 10 10 0 0 1 10 -10"></path></g><path d="M 604.25 343 a 10 10 0 0 1 10 10 v 279 a 10 10 0 0 0 10 10"></path><path d="M 604.25 224 a 10 10 0 0 1 10 10 v 99 a 10 10 0 0 0 10 10"></path><g>
<path d="M 624.25 343 h 10.0"></path><path d="M 736.75 343 h 10.0"></path><path d="M 634.25 343 a 10 10 0 0 0 10 -10 v -10 a 10 10 0 0 1 10 -10"></path><g class="terminal ">
<path d="M 654.25 313 h 0.0"></path><path d="M 716.75 313 h 0.0"></path><rect height="22" rx="10" ry="10" width="62.5" x="654.25" y="302"></rect><text x="685.5" y="317">"LUK"</text></g><path d="M 716.75 313 a 10 10 0 0 1 10 10 v 10 a 10 10 0 0 0 10 10"></path><path d="M 634.25 343 a 10 10 0 0 0 10 -10 v -40 a 10 10 0 0 1 10 -10"></path><g class="terminal ">
<path d="M 654.25 283 h 0.0"></path><path d="M 716.75 283 h 0.0"></path><rect height="22" rx="10" ry="10" width="62.5" x="654.25" y="272"></rect><text x="685.5" y="287">"MRK"</text></g><path d="M 716.75 283 a 10 10 0 0 1 10 10 v 40 a 10 10 0 0 0 10 10"></path><path d="M 634.25 343 a 10 10 0 0 0 10 -10 v -70 a 10 10 0 0 1 10 -10"></path><g class="terminal ">
<path d="M 654.25 253 h 0.0"></path><path d="M 716.75 253 h 0.0"></path><rect height="22" rx="10" ry="10" width="62.5" x="654.25" y="242"></rect><text x="685.5" y="257">"MAT"</text></g><path d="M 716.75 253 a 10 10 0 0 1 10 10 v 70 a 10 10 0 0 0 10 10"></path><path d="M 634.25 343 h 20"></path><g class="terminal ">
<path d="M 654.25 343 h 0.0"></path><path d="M 716.75 343 h 0.0"></path><rect height="22" rx="10" ry="10" width="62.5" x="654.25" y="332"></rect><text x="685.5" y="347">"JHN"</text></g><path d="M 716.75 343 h 20"></path><path d="M 634.25 343 a 10 10 0 0 1 10 10 v 10 a 10 10 0 0 0 10 10"></path><g class="terminal ">
<path d="M 654.25 373 h 0.0"></path><path d="M 716.75 373 h 0.0"></path><rect height="22" rx="10" ry="10" width="62.5" x="654.25" y="362"></rect><text x="685.5" y="377">"ACT"</text></g><path d="M 716.75 373 a 10 10 0 0 0 10 -10 v -10 a 10 10 0 0 1 10 -10"></path><path d="M 634.25 343 a 10 10 0 0 1 10 10 v 40 a 10 10 0 0 0 10 10"></path><g class="terminal ">
<path d="M 654.25 403 h 0.0"></path><path d="M 716.75 403 h 0.0"></path><rect height="22" rx="10" ry="10" width="62.5" x="654.25" y="392"></rect><text x="685.5" y="407">"ROM"</text></g><path d="M 716.75 403 a 10 10 0 0 0 10 -10 v -40 a 10 10 0 0 1 10 -10"></path><path d="M 634.25 343 a 10 10 0 0 1 10 10 v 70 a 10 10 0 0 0 10 10"></path><g class="terminal ">
<path d="M 654.25 433 h 0.0"></path><path d="M 716.75 433 h 0.0"></path><rect height="22" rx="10" ry="10" width="62.5" x="654.25" y="422"></rect><text x="685.5" y="437">"1CO"</text></g><path d="M 716.75 433 a 10 10 0 0 0 10 -10 v -70 a 10 10 0 0 1 10 -10"></path><path d="M 634.25 343 a 10 10 0 0 1 10 10 v 100 a 10 10 0 0 0 10 10"></path><g class="terminal ">
<path d="M 654.25 463 h 0.0"></path><path d="M 716.75 463 h 0.0"></path><rect height="22" rx="10" ry="10" width="62.5" x="654.25" y="452"></rect><text x="685.5" y="467">"2CO"</text></g><path d="M 716.75 463 a 10 10 0 0 0 10 -10 v -100 a 10 10 0 0 1 10 -10"></path><path d="M 634.25 343 a 10 10 0 0 1 10 10 v 130 a 10 10 0 0 0 10 10"></path><g class="terminal ">
<path d="M 654.25 493 h 0.0"></path><path d="M 716.75 493 h 0.0"></path><rect height="22" rx="10" ry="10" width="62.5" x="654.25" y="482"></rect><text x="685.5" y="497">"GAL"</text></g><path d="M 716.75 493 a 10 10 0 0 0 10 -10 v -130 a 10 10 0 0 1 10 -10"></path><path d="M 634.25 343 a 10 10 0 0 1 10 10 v 160 a 10 10 0 0 0 10 10"></path><g class="terminal ">
<path d="M 654.25 523 h 0.0"></path><path d="M 716.75 523 h 0.0"></path><rect height="22" rx="10" ry="10" width="62.5" x="654.25" y="512"></rect><text x="685.5" y="527">"EPH"</text></g><path d="M 716.75 523 a 10 10 0 0 0 10 -10 v -160 a 10 10 0 0 1 10 -10"></path><path d="M 634.25 343 a 10 10 0 0 1 10 10 v 190 a 10 10 0 0 0 10 10"></path><g class="terminal ">
<path d="M 654.25 553 h 0.0"></path><path d="M 716.75 553 h 0.0"></path><rect height="22" rx="10" ry="10" width="62.5" x="654.25" y="542"></rect><text x="685.5" y="557">"PHP"</text></g><path d="M 716.75 553 a 10 10 0 0 0 10 -10 v -190 a 10 10 0 0 1 10 -10"></path><path d="M 634.25 343 a 10 10 0 0 1 10 10 v 220 a 10 10 0 0 0 10 10"></path><g class="terminal ">
<path d="M 654.25 583 h 0.0"></path><path d="M 716.75 583 h 0.0"></path><rect height="22" rx="10" ry="10" width="62.5" x="654.25" y="572"></rect><text x="685.5" y="587">"COL"</text></g><path d="M 716.75 583 a 10 10 0 0 0 10 -10 v -220 a 10 10 0 0 1 10 -10"></path><path d="M 634.25 343 a 10 10 0 0 1 10 10 v 250 a 10 10 0 0 0 10 10"></path><g class="terminal ">
<path d="M 654.25 613 h 0.0"></path><path d="M 716.75 613 h 0.0"></path><rect height="22" rx="10" ry="10" width="62.5" x="654.25" y="602"></rect><text x="685.5" y="617">"1TH"</text></g><path d="M 716.75 613 a 10 10 0 0 0 10 -10 v -250 a 10 10 0 0 1 10 -10"></path></g><path d="M 746.75 343 a 10 10 0 0 1 10 10 v 279 a 10 10 0 0 0 10 10"></path><path d="M 746.75 224 a 10 10 0 0 1 10 10 v 99 a 10 10 0 0 0 10 10"></path><g>
<path d="M 766.75 343 h 10.0"></path><path d="M 879.25 343 h 10.0"></path><path d="M 776.75 343 a 10 10 0 0 0 10 -10 v -10 a 10 10 0 0 1 10 -10"></path><g class="terminal ">
<path d="M 796.75 313 h 0.0"></path><path d="M 859.25 313 h 0.0"></path><rect height="22" rx="10" ry="10" width="62.5" x="796.75" y="302"></rect><text x="828.0" y="317">"2TI"</text></g><path d="M 859.25 313 a 10 10 0 0 1 10 10 v 10 a 10 10 0 0 0 10 10"></path><path d="M 776.75 343 a 10 10 0 0 0 10 -10 v -40 a 10 10 0 0 1 10 -10"></path><g class="terminal ">
<path d="M 796.75 283 h 0.0"></path><path d="M 859.25 283 h 0.0"></path><rect height="22" rx="10" ry="10" width="62.5" x="796.75" y="272"></rect><text x="828.0" y="287">"1TI"</text></g><path d="M 859.25 283 a 10 10 0 0 1 10 10 v 40 a 10 10 0 0 0 10 10"></path><path d="M 776.75 343 a 10 10 0 0 0 10 -10 v -70 a 10 10 0 0 1 10 -10"></path><g class="terminal ">
<path d="M 796.75 253 h 0.0"></path><path d="M 859.25 253 h 0.0"></path><rect height="22" rx="10" ry="10" width="62.5" x="796.75" y="242"></rect><text x="828.0" y="257">"2TH"</text></g><path d="M 859.25 253 a 10 10 0 0 1 10 10 v 70 a 10 10 0 0 0 10 10"></path><path d="M 776.75 343 h 20"></path><g class="terminal ">
<path d="M 796.75 343 h 0.0"></path><path d="M 859.25 343 h 0.0"></path><rect height="22" rx="10" ry="10" width="62.5" x="796.75" y="332"></rect><text x="828.0" y="347">"TIT"</text></g><path d="M 859.25 343 h 20"></path><path d="M 776.75 343 a 10 10 0 0 1 10 10 v 10 a 10 10 0 0 0 10 10"></path><g class="terminal ">
<path d="M 796.75 373 h 0.0"></path><path d="M 859.25 373 h 0.0"></path><rect height="22" rx="10" ry="10" width="62.5" x="796.75" y="362"></rect><text x="828.0" y="377">"PHM"</text></g><path d="M 859.25 373 a 10 10 0 0 0 10 -10 v -10 a 10 10 0 0 1 10 -10"></path><path d="M 776.75 343 a 10 10 0 0 1 10 10 v 40 a 10 10 0 0 0 10 10"></path><g class="terminal ">
<path d="M 796.75 403 h 0.0"></path><path d="M 859.25 403 h 0.0"></path><rect height="22" rx="10" ry="10" width="62.5" x="796.75" y="392"></rect><text x="828.0" y="407">"HEB"</text></g><path d="M 859.25 403 a 10 10 0 0 0 10 -10 v -40 a 10 10 0 0 1 10 -10"></path><path d="M 776.75 343 a 10 10 0 0 1 10 10 v 70 a 10 10 0 0 0 10 10"></path><g class="terminal ">
<path d="M 796.75 433 h 0.0"></path><path d="M 859.25 433 h 0.0"></path><rect height="22" rx="10" ry="10" width="62.5" x="796.75" y="422"></rect><text x="828.0" y="437">"JAS"</text></g><path d="M 859.25 433 a 10 10 0 0 0 10 -10 v -70 a 10 10 0 0 1 10 -10"></path><path d="M 776.75 343 a 10 10 0 0 1 10 10 v 100 a 10 10 0 0 0 10 10"></path><g class="terminal ">
<path d="M 796.75 463 h 0.0"></path><path d="M 859.25 463 h 0.0"></path><rect height="22" rx="10" ry="10" width="62.5" x="796.75" y="452"></rect><text x="828.0" y="467">"1PE"</text></g><path d="M 859.25 463 a 10 10 0 0 0 10 -10 v -100 a 10 10 0 0 1 10 -10"></path><path d="M 776.75 343 a 10 10 0 0 1 10 10 v 130 a 10 10 0 0 0 10 10"></path><g class="terminal ">
<path d="M 796.75 493 h 0.0"></path><path d="M 859.25 493 h 0.0"></path><rect height="22" rx="10" ry="10" width="62.5" x="796.75" y="482"></rect><text x="828.0" y="497">"2PE"</text></g><path d="M 859.25 493 a 10 10 0 0 0 10 -10 v -130 a 10 10 0 0 1 10 -10"></path><path d="M 776.75 343 a 10 10 0 0 1 10 10 v 160 a 10 10 0 0 0 10 10"></path><g class="terminal ">
<path d="M 796.75 523 h 0.0"></path><path d="M 859.25 523 h 0.0"></path><rect height="22" rx="10" ry="10" width="62.5" x="796.75" y="512"></rect><text x="828.0" y="527">"1JN"</text></g><path d="M 859.25 523 a 10 10 0 0 0 10 -10 v -160 a 10 10 0 0 1 10 -10"></path><path d="M 776.75 343 a 10 10 0 0 1 10 10 v 190 a 10 10 0 0 0 10 10"></path><g class="terminal ">
<path d="M 796.75 553 h 0.0"></path><path d="M 859.25 553 h 0.0"></path><rect height="22" rx="10" ry="10" width="62.5" x="796.75" y="542"></rect><text x="828.0" y="557">"2JN"</text></g><path d="M 859.25 553 a 10 10 0 0 0 10 -10 v -190 a 10 10 0 0 1 10 -10"></path><path d="M 776.75 343 a 10 10 0 0 1 10 10 v 220 a 10 10 0 0 0 10 10"></path><g class="terminal ">
<path d="M 796.75 583 h 0.0"></path><path d="M 859.25 583 h 0.0"></path><rect height="22" rx="10" ry="10" width="62.5" x="796.75" y="572"></rect><text x="828.0" y="587">"3JN"</text></g><path d="M 859.25 583 a 10 10 0 0 0 10 -10 v -220 a 10 10 0 0 1 10 -10"></path><path d="M 776.75 343 a 10 10 0 0 1 10 10 v 250 a 10 10 0 0 0 10 10"></path><g class="terminal ">
<path d="M 796.75 613 h 0.0"></path><path d="M 859.25 613 h 0.0"></path><rect height="22" rx="10" ry="10" width="62.5" x="796.75" y="602"></rect><text x="828.0" y="617">"JUD"</text></g><path d="M 859.25 613 a 10 10 0 0 0 10 -10 v -250 a 10 10 0 0 1 10 -10"></path></g><path d="M 889.25 343 a 10 10 0 0 1 10 10 v 279 a 10 10 0 0 0 10 10"></path><path d="M 889.25 224 a 10 10 0 0 1 10 10 v 99 a 10 10 0 0 0 10 10"></path><g>
<path d="M 909.25 343 h 10.0"></path><path d="M 1021.75 343 h 10.0"></path><path d="M 919.25 343 a 10 10 0 0 0 10 -10 v -10 a 10 10 0 0 1 10 -10"></path><g class="terminal ">
<path d="M 939.25 313 h 0.0"></path><path d="M 1001.75 313 h 0.0"></path><rect height="22" rx="10" ry="10" width="62.5" x="939.25" y="302"></rect><text x="970.5" y="317">"JDT"</text></g><path d="M 1001.75 313 a 10 10 0 0 1 10 10 v 10 a 10 10 0 0 0 10 10"></path><path d="M 919.25 343 a 10 10 0 0 0 10 -10 v -40 a 10 10 0 0 1 10 -10"></path><g class="terminal ">
<path d="M 939.25 283 h 0.0"></path><path d="M 1001.75 283 h 0.0"></path><rect height="22" rx="10" ry="10" width="62.5" x="939.25" y="272"></rect><text x="970.5" y="287">"TOB"</text></g><path d="M 1001.75 283 a 10 10 0 0 1 10 10 v 40 a 10 10 0 0 0 10 10"></path><path d="M 919.25 343 a 10 10 0 0 0 10 -10 v -70 a 10 10 0 0 1 10 -10"></path><g class="terminal ">
<path d="M 939.25 253 h 0.0"></path><path d="M 1001.75 253 h 0.0"></path><rect height="22" rx="10" ry="10" width="62.5" x="939.25" y="242"></rect><text x="970.5" y="257">"REV"</text></g><path d="M 1001.75 253 a 10 10 0 0 1 10 10 v 70 a 10 10 0 0 0 10 10"></path><path d="M 919.25 343 h 20"></path><g class="terminal ">
<path d="M 939.25 343 h 0.0"></path><path d="M 1001.75 343 h 0.0"></path><rect height="22" rx="10" ry="10" width="62.5" x="939.25" y="332"></rect><text x="970.5" y="347">"ESG"</text></g><path d="M 1001.75 343 h 20"></path><path d="M 919.25 343 a 10 10 0 0 1 10 10 v 10 a 10 10 0 0 0 10 10"></path><g class="terminal ">
<path d="M 939.25 373 h 0.0"></path><path d="M 1001.75 373 h 0.0"></path><rect height="22" rx="10" ry="10" width="62.5" x="939.25" y="362"></rect><text x="970.5" y="377">"WIS"</text></g><path d="M 1001.75 373 a 10 10 0 0 0 10 -10 v -10 a 10 10 0 0 1 10 -10"></path><path d="M 919.25 343 a 10 10 0 0 1 10 10 v 40 a 10 10 0 0 0 10 10"></path><g class="terminal ">
<path d="M 939.25 403 h 0.0"></path><path d="M 1001.75 403 h 0.0"></path><rect height="22" rx="10" ry="10" width="62.5" x="939.25" y="392"></rect><text x="970.5" y="407">"SIR"</text></g><path d="M 1001.75 403 a 10 10 0 0 0 10 -10 v -40 a 10 10 0 0 1 10 -10"></path><path d="M 919.25 343 a 10 10 0 0 1 10 10 v 70 a 10 10 0 0 0 10 10"></path><g class="terminal ">
<path d="M 939.25 433 h 0.0"></path><path d="M 1001.75 433 h 0.0"></path><rect height="22" rx="10" ry="10" width="62.5" x="939.25" y="422"></rect><text x="970.5" y="437">"BAR"</text></g><path d="M 1001.75 433 a 10 10 0 0 0 10 -10 v -70 a 10 10 0 0 1 10 -10"></path><path d="M 919.25 343 a 10 10 0 0 1 10 10 v 100 a 10 10 0 0 0 10 10"></path><g class="terminal ">
<path d="M 939.25 463 h 0.0"></path><path d="M 1001.75 463 h 0.0"></path><rect height="22" rx="10" ry="10" width="62.5" x="939.25" y="452"></rect><text x="970.5" y="467">"LJE"</text></g><path d="M 1001.75 463 a 10 10 0 0 0 10 -10 v -100 a 10 10 0 0 1 10 -10"></path><path d="M 919.25 343 a 10 10 0 0 1 10 10 v 130 a 10 10 0 0 0 10 10"></path><g class="terminal ">
<path d="M 939.25 493 h 0.0"></path><path d="M 1001.75 493 h 0.0"></path><rect height="22" rx="10" ry="10" width="62.5" x="939.25" y="482"></rect><text x="970.5" y="497">"S3Y"</text></g><path d="M 1001.75 493 a 10 10 0 0 0 10 -10 v -130 a 10 10 0 0 1 10 -10"></path><path d="M 919.25 343 a 10 10 0 0 1 10 10 v 160 a 10 10 0 0 0 10 10"></path><g class="terminal ">
<path d="M 939.25 523 h 0.0"></path><path d="M 1001.75 523 h 0.0"></path><rect height="22" rx="10" ry="10" width="62.5" x="939.25" y="512"></rect><text x="970.5" y="527">"SUS"</text></g><path d="M 1001.75 523 a 10 10 0 0 0 10 -10 v -160 a 10 10 0 0 1 10 -10"></path><path d="M 919.25 343 a 10 10 0 0 1 10 10 v 190 a 10 10 0 0 0 10 10"></path><g class="terminal ">
<path d="M 939.25 553 h 0.0"></path><path d="M 1001.75 553 h 0.0"></path><rect height="22" rx="10" ry="10" width="62.5" x="939.25" y="542"></rect><text x="970.5" y="557">"BEL"</text></g><path d="M 1001.75 553 a 10 10 0 0 0 10 -10 v -190 a 10 10 0 0 1 10 -10"></path><path d="M 919.25 343 a 10 10 0 0 1 10 10 v 220 a 10 10 0 0 0 10 10"></path><g class="terminal ">
<path d="M 939.25 583 h 0.0"></path><path d="M 1001.75 583 h 0.0"></path><rect height="22" rx="10" ry="10" width="62.5" x="939.25" y="572"></rect><text x="970.5" y="587">"1MA"</text></g><path d="M 1001.75 583 a 10 10 0 0 0 10 -10 v -220 a 10 10 0 0 1 10 -10"></path><path d="M 919.25 343 a 10 10 0 0 1 10 10 v 250 a 10 10 0 0 0 10 10"></path><g class="terminal ">
<path d="M 939.25 613 h 0.0"></path><path d="M 1001.75 613 h 0.0"></path><rect height="22" rx="10" ry="10" width="62.5" x="939.25" y="602"></rect><text x="970.5" y="617">"2MA"</text></g><path d="M 1001.75 613 a 10 10 0 0 0 10 -10 v -250 a 10 10 0 0 1 10 -10"></path></g><path d="M 1031.75 343 a 10 10 0 0 1 10 10 v 279 a 10 10 0 0 0 10 10"></path><path d="M 1031.75 224 a 10 10 0 0 1 10 10 v 99 a 10 10 0 0 0 10 10"></path><g>
<path d="M 1051.75 343 h 10.0"></path><path d="M 1164.25 343 h 10.0"></path><path d="M 1061.75 343 a 10 10 0 0 0 10 -10 v -10 a 10 10 0 0 1 10 -10"></path><g class="terminal ">
<path d="M 1081.75 313 h 0.0"></path><path d="M 1144.25 313 h 0.0"></path><rect height="22" rx="10" ry="10" width="62.5" x="1081.75" y="302"></rect><text x="1113.0" y="317">"1ES"</text></g><path d="M 1144.25 313 a 10 10 0 0 1 10 10 v 10 a 10 10 0 0 0 10 10"></path><path d="M 1061.75 343 a 10 10 0 0 0 10 -10 v -40 a 10 10 0 0 1 10 -10"></path><g class="terminal ">
<path d="M 1081.75 283 h 0.0"></path><path d="M 1144.25 283 h 0.0"></path><rect height="22" rx="10" ry="10" width="62.5" x="1081.75" y="272"></rect><text x="1113.0" y="287">"4MA"</text></g><path d="M 1144.25 283 a 10 10 0 0 1 10 10 v 40 a 10 10 0 0 0 10 10"></path><path d="M 1061.75 343 a 10 10 0 0 0 10 -10 v -70 a 10 10 0 0 1 10 -10"></path><g class="terminal ">
<path d="M 1081.75 253 h 0.0"></path><path d="M 1144.25 253 h 0.0"></path><rect height="22" rx="10" ry="10" width="62.5" x="1081.75" y="242"></rect><text x="1113.0" y="257">"3MA"</text></g><path d="M 1144.25 253 a 10 10 0 0 1 10 10 v 70 a 10 10 0 0 0 10 10"></path><path d="M 1061.75 343 h 20"></path><g class="terminal ">
<path d="M 1081.75 343 h 0.0"></path><path d="M 1144.25 343 h 0.0"></path><rect height="22" rx="10" ry="10" width="62.5" x="1081.75" y="332"></rect><text x="1113.0" y="347">"2ES"</text></g><path d="M 1144.25 343 h 20"></path><path d="M 1061.75 343 a 10 10 0 0 1 10 10 v 10 a 10 10 0 0 0 10 10"></path><g class="terminal ">
<path d="M 1081.75 373 h 0.0"></path><path d="M 1144.25 373 h 0.0"></path><rect height="22" rx="10" ry="10" width="62.5" x="1081.75" y="362"></rect><text x="1113.0" y="377">"MAN"</text></g><path d="M 1144.25 373 a 10 10 0 0 0 10 -10 v -10 a 10 10 0 0 1 10 -10"></path><path d="M 1061.75 343 a 10 10 0 0 1 10 10 v 40 a 10 10 0 0 0 10 10"></path><g class="terminal ">
<path d="M 1081.75 403 h 0.0"></path><path d="M 1144.25 403 h 0.0"></path><rect height="22" rx="10" ry="10" width="62.5" x="1081.75" y="392"></rect><text x="1113.0" y="407">"PS2"</text></g><path d="M 1144.25 403 a 10 10 0 0 0 10 -10 v -40 a 10 10 0 0 1 10 -10"></path><path d="M 1061.75 343 a 10 10 0 0 1 10 10 v 70 a 10 10 0 0 0 10 10"></path><g class="terminal ">
<path d="M 1081.75 433 h 0.0"></path><path d="M 1144.25 433 h 0.0"></path><rect height="22" rx="10" ry="10" width="62.5" x="1081.75" y="422"></rect><text x="1113.0" y="437">"ODA"</text></g><path d="M 1144.25 433 a 10 10 0 0 0 10 -10 v -70 a 10 10 0 0 1 10 -10"></path><path d="M 1061.75 343 a 10 10 0 0 1 10 10 v 100 a 10 10 0 0 0 10 10"></path><g class="terminal ">
<path d="M 1081.75 463 h 0.0"></path><path d="M 1144.25 463 h 0.0"></path><rect height="22" rx="10" ry="10" width="62.5" x="1081.75" y="452"></rect><text x="1113.0" y="467">"PSS"</text></g><path d="M 1144.25 463 a 10 10 0 0 0 10 -10 v -100 a 10 10 0 0 1 10 -10"></path><path d="M 1061.75 343 a 10 10 0 0 1 10 10 v 130 a 10 10 0 0 0 10 10"></path><g class="terminal ">
<path d="M 1081.75 493 h 0.0"></path><path d="M 1144.25 493 h 0.0"></path><rect height="22" rx="10" ry="10" width="62.5" x="1081.75" y="482"></rect><text x="1113.0" y="497">"EZA"</text></g><path d="M 1144.25 493 a 10 10 0 0 0 10 -10 v -130 a 10 10 0 0 1 10 -10"></path><path d="M 1061.75 343 a 10 10 0 0 1 10 10 v 160 a 10 10 0 0 0 10 10"></path><g class="terminal ">
<path d="M 1081.75 523 h 0.0"></path><path d="M 1144.25 523 h 0.0"></path><rect height="22" rx="10" ry="10" width="62.5" x="1081.75" y="512"></rect><text x="1113.0" y="527">"5EZ"</text></g><path d="M 1144.25 523 a 10 10 0 0 0 10 -10 v -160 a 10 10 0 0 1 10 -10"></path><path d="M 1061.75 343 a 10 10 0 0 1 10 10 v 190 a 10 10 0 0 0 10 10"></path><g class="terminal ">
<path d="M 1081.75 553 h 0.0"></path><path d="M 1144.25 553 h 0.0"></path><rect height="22" rx="10" ry="10" width="62.5" x="1081.75" y="542"></rect><text x="1113.0" y="557">"6EZ"</text></g><path d="M 1144.25 553 a 10 10 0 0 0 10 -10 v -190 a 10 10 0 0 1 10 -10"></path><path d="M 1061.75 343 a 10 10 0 0 1 10 10 v 220 a 10 10 0 0 0 10 10"></path><g class="terminal ">
<path d="M 1081.75 583 h 0.0"></path><path d="M 1144.25 583 h 0.0"></path><rect height="22" rx="10" ry="10" width="62.5" x="1081.75" y="572"></rect><text x="1113.0" y="587">"DAG"</text></g><path d="M 1144.25 583 a 10 10 0 0 0 10 -10 v -220 a 10 10 0 0 1 10 -10"></path><path d="M 1061.75 343 a 10 10 0 0 1 10 10 v 250 a 10 10 0 0 0 10 10"></path><g class="terminal ">
<path d="M 1081.75 613 h 0.0"></path><path d="M 1144.25 613 h 0.0"></path><rect height="22" rx="10" ry="10" width="62.5" x="1081.75" y="602"></rect><text x="1113.0" y="617">"PS3"</text></g><path d="M 1144.25 613 a 10 10 0 0 0 10 -10 v -250 a 10 10 0 0 1 10 -10"></path></g><path d="M 1174.25 343 a 10 10 0 0 1 10 10 v 279 a 10 10 0 0 0 10 10"></path><path d="M 1174.25 224 a 10 10 0 0 1 10 10 v 99 a 10 10 0 0 0 10 10"></path><g>
<path d="M 1194.25 343 h 10.0"></path><path d="M 1374.75 343 h 10.0"></path><path d="M 1204.25 343 a 10 10 0 0 0 10 -10 v -10 a 10 10 0 0 1 10 -10"></path><g class="terminal ">
<path d="M 1224.25 313 h 34.0"></path><path d="M 1320.75 313 h 34.0"></path><rect height="22" rx="10" ry="10" width="62.5" x="1258.25" y="302"></rect><text x="1289.5" y="317">"JUB"</text></g><path d="M 1354.75 313 a 10 10 0 0 1 10 10 v 10 a 10 10 0 0 0 10 10"></path><path d="M 1204.25 343 a 10 10 0 0 0 10 -10 v -40 a 10 10 0 0 1 10 -10"></path><g class="terminal ">
<path d="M 1224.25 283 h 34.0"></path><path d="M 1320.75 283 h 34.0"></path><rect height="22" rx="10" ry="10" width="62.5" x="1258.25" y="272"></rect><text x="1289.5" y="287">"LBA"</text></g><path d="M 1354.75 283 a 10 10 0 0 1 10 10 v 40 a 10 10 0 0 0 10 10"></path><path d="M 1204.25 343 a 10 10 0 0 0 10 -10 v -70 a 10 10 0 0 1 10 -10"></path><g class="terminal ">
<path d="M 1224.25 253 h 34.0"></path><path d="M 1320.75 253 h 34.0"></path><rect height="22" rx="10" ry="10" width="62.5" x="1258.25" y="242"></rect><text x="1289.5" y="257">"2BA"</text></g><path d="M 1354.75 253 a 10 10 0 0 1 10 10 v 70 a 10 10 0 0 0 10 10"></path><path d="M 1204.25 343 h 20"></path><g class="terminal ">
<path d="M 1224.25 343 h 34.0"></path><path d="M 1320.75 343 h 34.0"></path><rect height="22" rx="10" ry="10" width="62.5" x="1258.25" y="332"></rect><text x="1289.5" y="347">"ENO"</text></g><path d="M 1354.75 343 h 20"></path><path d="M 1204.25 343 a 10 10 0 0 1 10 10 v 10 a 10 10 0 0 0 10 10"></path><g class="terminal ">
<path d="M 1224.25 373 h 34.0"></path><path d="M 1320.75 373 h 34.0"></path><rect height="22" rx="10" ry="10" width="62.5" x="1258.25" y="362"></rect><text x="1289.5" y="377">"1MQ"</text></g><path d="M 1354.75 373 a 10 10 0 0 0 10 -10 v -10 a 10 10 0 0 1 10 -10"></path><path d="M 1204.25 343 a 10 10 0 0 1 10 10 v 40 a 10 10 0 0 0 10 10"></path><g class="terminal ">
<path d="M 1224.25 403 h 34.0"></path><path d="M 1320.75 403 h 34.0"></path><rect height="22" rx="10" ry="10" width="62.5" x="1258.25" y="392"></rect><text x="1289.5" y="407">"2MQ"</text></g><path d="M 1354.75 403 a 10 10 0 0 0 10 -10 v -40 a 10 10 0 0 1 10 -10"></path><path d="M 1204.25 343 a 10 10 0 0 1 10 10 v 70 a 10 10 0 0 0 10 10"></path><g class="terminal ">
<path d="M 1224.25 433 h 34.0"></path><path d="M 1320.75 433 h 34.0"></path><rect height="22" rx="10" ry="10" width="62.5" x="1258.25" y="422"></rect><text x="1289.5" y="437">"3MQ"</text></g><path d="M 1354.75 433 a 10 10 0 0 0 10 -10 v -70 a 10 10 0 0 1 10 -10"></path><path d="M 1204.25 343 a 10 10 0 0 1 10 10 v 100 a 10 10 0 0 0 10 10"></path><g class="terminal ">
<path d="M 1224.25 463 h 34.0"></path><path d="M 1320.75 463 h 34.0"></path><rect height="22" rx="10" ry="10" width="62.5" x="1258.25" y="452"></rect><text x="1289.5" y="467">"REP"</text></g><path d="M 1354.75 463 a 10 10 0 0 0 10 -10 v -100 a 10 10 0 0 1 10 -10"></path><path d="M 1204.25 343 a 10 10 0 0 1 10 10 v 130 a 10 10 0 0 0 10 10"></path><g class="terminal ">
<path d="M 1224.25 493 h 34.0"></path><path d="M 1320.75 493 h 34.0"></path><rect height="22" rx="10" ry="10" width="62.5" x="1258.25" y="482"></rect><text x="1289.5" y="497">"4BA"</text></g><path d="M 1354.75 493 a 10 10 0 0 0 10 -10 v -130 a 10 10 0 0 1 10 -10"></path><path d="M 1204.25 343 a 10 10 0 0 1 10 10 v 160 a 10 10 0 0 0 10 10"></path><g class="terminal ">
<path d="M 1224.25 523 h 34.0"></path><path d="M 1320.75 523 h 34.0"></path><rect height="22" rx="10" ry="10" width="62.5" x="1258.25" y="512"></rect><text x="1289.5" y="527">"LAO"</text></g><path d="M 1354.75 523 a 10 10 0 0 0 10 -10 v -160 a 10 10 0 0 1 10 -10"></path><path d="M 1204.25 343 a 10 10 0 0 1 10 10 v 190 a 10 10 0 0 0 10 10"></path><g class="terminal ">
<path d="M 1224.25 553 h 0.0"></path><path d="M 1354.75 553 h 0.0"></path><rect height="22" rx="10" ry="10" width="130.5" x="1224.25" y="542"></rect><text x="1289.5" y="557">/&#91;0-9A-Z&#93;{3}/</text></g><path d="M 1354.75 553 a 10 10 0 0 0 10 -10 v -190 a 10 10 0 0 1 10 -10"></path></g><path d="M 1384.75 343 h 10"></path></g><path d="M 1521.5 343 a 10 10 0 0 1 10 10 v 287 a 10 10 0 0 1 -10 10 h -1461.5 a 10 10 0 0 0 -10 10 v 9 a 10 10 0 0 0 10 10"></path><g>
<path d="M 60.0 679 h 518.75"></path><path d="M 1002.75 679 h 518.75"></path><g>
<path d="M 578.75 679 h 0.0"></path><path d="M 888.75 679 h 0.0"></path><path d="M 578.75 679 h 20"></path><g>
<path d="M 598.75 679 h 270.0"></path></g><path d="M 868.75 679 h 20"></path><path d="M 578.75 679 a 10 10 0 0 1 10 10 v 9 a 10 10 0 0 0 10 10"></path><g>
<path d="M 598.75 708 h 0.0"></path><path d="M 868.75 708 h 0.0"></path><g>
<path d="M 598.75 708 h 0.0"></path><path d="M 726.75 708 h 0.0"></path><path d="M 598.75 708 h 20"></path><g class="terminal ">
<path d="M 618.75 708 h 21.25"></path><path d="M 685.5 708 h 21.25"></path><rect height="22" rx="10" ry="10" width="45.5" x="640.0" y="697"></rect><text x="662.75" y="712">' '</text></g><path d="M 706.75 708 h 20"></path><path d="M 598.75 708 a 10 10 0 0 1 10 10 v 10 a 10 10 0 0 0 10 10"></path><g class="terminal altterminal">
<path d="M 618.75 738 h 0.0"></path><path d="M 706.75 738 h 0.0"></path><rect height="22" rx="10" ry="10" width="88.0" x="618.75" y="727"></rect><text x="662.75" y="742">/${hs}&#42;/</text></g><path d="M 706.75 738 a 10 10 0 0 0 10 -10 v -10 a 10 10 0 0 1 10 -10"></path></g><path d="M 726.75 708 h 10"></path><path d="M 736.75 708 h 10"></path><g class="terminal ">
<path d="M 746.75 708 h 0.0"></path><path d="M 868.75 708 h 0.0"></path><rect height="22" rx="10" ry="10" width="122.0" x="746.75" y="697"></rect><text x="807.75" y="712">/&#91;^\\\n\r&#93;&#42;/</text></g></g><path d="M 868.75 708 a 10 10 0 0 0 10 -10 v -9 a 10 10 0 0 1 10 -10"></path></g><path d="M 888.75 679 h 10"></path><path d="M 898.75 679 h 10"></path><g>
<path d="M 908.75 679 h 0.0"></path><path d="M 1002.75 679 h 0.0"></path><path d="M 908.75 679 h 20"></path><g class="terminal ">
<path d="M 928.75 679 h 0.0"></path><path d="M 982.75 679 h 0.0"></path><rect height="22" rx="10" ry="10" width="54.0" x="928.75" y="668"></rect><text x="955.75" y="683">'\n'</text></g><path d="M 982.75 679 h 20"></path><path d="M 908.75 679 a 10 10 0 0 1 10 10 v 10 a 10 10 0 0 0 10 10"></path><g class="terminal altterminal">
<path d="M 928.75 709 h 8.5"></path><path d="M 974.25 709 h 8.5"></path><rect height="22" rx="10" ry="10" width="37.0" x="937.25" y="698"></rect><text x="955.75" y="713">NL</text></g><path d="M 982.75 709 a 10 10 0 0 0 10 -10 v -10 a 10 10 0 0 1 10 -10"></path></g></g><path d="M 1521.5 679 a 10 10 0 0 1 10 10 v 78 a 10 10 0 0 1 -10 10 h -1461.5 a 10 10 0 0 0 -10 10 v 18 a 10 10 0 0 0 10 10"></path><g>
<path d="M 60.0 815 h 10.0"></path><path d="M 1511.5 815 h 10.0"></path><g>
<path d="M 70.0 815 h 0.0"></path><path d="M 243.5 815 h 0.0"></path><path d="M 70.0 815 a 10 10 0 0 0 10 -10 v 0 a 10 10 0 0 1 10 -10"></path><g>
<path d="M 90.0 795 h 133.5"></path></g><path d="M 223.5 795 a 10 10 0 0 1 10 10 v 0 a 10 10 0 0 0 10 10"></path><path d="M 70.0 815 h 20"></path><g>
<path d="M 90.0 815 h 0.0"></path><path d="M 223.5 815 h 0.0"></path><path d="M 90.0 815 h 10"></path><g class="non-terminal ">
<path d="M 100.0 815 h 0.0"></path><path d="M 213.5 815 h 0.0"></path><rect height="22" width="113.5" x="100.0" y="804"></rect><text x="156.75" y="819">BookHeaders</text></g><path d="M 213.5 815 h 10"></path><path d="M 100.0 815 a 10 10 0 0 0 -10 10 v 0 a 10 10 0 0 0 10 10"></path><g>
<path d="M 100.0 835 h 113.5"></path></g><path d="M 213.5 835 a 10 10 0 0 0 10 -10 v 0 a 10 10 0 0 0 -10 -10"></path></g><path d="M 223.5 815 h 20"></path></g><path d="M 243.5 815 h 10"></path><path d="M 253.5 815 h 10"></path><g>
<path d="M 263.5 815 h 0.0"></path><path d="M 428.5 815 h 0.0"></path><path d="M 263.5 815 a 10 10 0 0 0 10 -10 v 0 a 10 10 0 0 1 10 -10"></path><g>
<path d="M 283.5 795 h 125.0"></path></g><path d="M 408.5 795 a 10 10 0 0 1 10 10 v 0 a 10 10 0 0 0 10 10"></path><path d="M 263.5 815 h 20"></path><g>
<path d="M 283.5 815 h 0.0"></path><path d="M 408.5 815 h 0.0"></path><path d="M 283.5 815 h 10"></path><g class="non-terminal ">
<path d="M 293.5 815 h 0.0"></path><path d="M 398.5 815 h 0.0"></path><rect height="22" width="105.0" x="293.5" y="804"></rect><text x="346.0" y="819">BookTitles</text></g><path d="M 398.5 815 h 10"></path><path d="M 293.5 815 a 10 10 0 0 0 -10 10 v 0 a 10 10 0 0 0 10 10"></path><g>
<path d="M 293.5 835 h 105.0"></path></g><path d="M 398.5 835 a 10 10 0 0 0 10 -10 v 0 a 10 10 0 0 0 -10 -10"></path></g><path d="M 408.5 815 h 20"></path></g><path d="M 428.5 815 h 10"></path><path d="M 438.5 815 h 10"></path><g>
<path d="M 448.5 815 h 0.0"></path><path d="M 664.5 815 h 0.0"></path><path d="M 448.5 815 a 10 10 0 0 0 10 -10 v 0 a 10 10 0 0 1 10 -10"></path><g>
<path d="M 468.5 795 h 176.0"></path></g><path d="M 644.5 795 a 10 10 0 0 1 10 10 v 0 a 10 10 0 0 0 10 10"></path><path d="M 448.5 815 h 20"></path><g>
<path d="M 468.5 815 h 0.0"></path><path d="M 644.5 815 h 0.0"></path><path d="M 468.5 815 h 10"></path><g class="non-terminal ">
<path d="M 478.5 815 h 0.0"></path><path d="M 634.5 815 h 0.0"></path><rect height="22" width="156.0" x="478.5" y="804"></rect><text x="556.5" y="819">BookIntroduction</text></g><path d="M 634.5 815 h 10"></path><path d="M 478.5 815 a 10 10 0 0 0 -10 10 v 0 a 10 10 0 0 0 10 10"></path><g>
<path d="M 478.5 835 h 156.0"></path></g><path d="M 634.5 835 a 10 10 0 0 0 10 -10 v 0 a 10 10 0 0 0 -10 -10"></path></g><path d="M 644.5 815 h 20"></path></g><path d="M 664.5 815 h 10"></path><path d="M 674.5 815 h 10"></path><g>
<path d="M 684.5 815 h 0.0"></path><path d="M 977.0 815 h 0.0"></path><path d="M 684.5 815 a 10 10 0 0 0 10 -10 v 0 a 10 10 0 0 1 10 -10"></path><g>
<path d="M 704.5 795 h 252.5"></path></g><path d="M 957.0 795 a 10 10 0 0 1 10 10 v 0 a 10 10 0 0 0 10 10"></path><path d="M 684.5 815 h 20"></path><g>
<path d="M 704.5 815 h 0.0"></path><path d="M 957.0 815 h 0.0"></path><path d="M 704.5 815 h 10"></path><g class="non-terminal ">
<path d="M 714.5 815 h 0.0"></path><path d="M 947.0 815 h 0.0"></path><rect height="22" width="232.5" x="714.5" y="804"></rect><text x="830.75" y="819">BookIntroductionEndTitles</text></g><path d="M 947.0 815 h 10"></path><path d="M 714.5 815 a 10 10 0 0 0 -10 10 v 0 a 10 10 0 0 0 10 10"></path><g>
<path d="M 714.5 835 h 232.5"></path></g><path d="M 947.0 835 a 10 10 0 0 0 10 -10 v 0 a 10 10 0 0 0 -10 -10"></path></g><path d="M 957.0 815 h 20"></path></g><path d="M 977.0 815 h 10"></path><path d="M 987.0 815 h 10"></path><g>
<path d="M 997.0 815 h 0.0"></path><path d="M 1193.0 815 h 0.0"></path><path d="M 997.0 815 h 20"></path><g>
<path d="M 1017.0 815 h 156.0"></path></g><path d="M 1173.0 815 h 20"></path><path d="M 997.0 815 a 10 10 0 0 1 10 10 v 0 a 10 10 0 0 0 10 10"></path><g class="non-terminal ">
<path d="M 1017.0 835 h 0.0"></path><path d="M 1173.0 835 h 0.0"></path><rect height="22" width="156.0" x="1017.0" y="824"></rect><text x="1095.0" y="839">BookChapterLabel</text></g><path d="M 1173.0 835 a 10 10 0 0 0 10 -10 v 0 a 10 10 0 0 1 10 -10"></path></g><path d="M 1193.0 815 h 10"></path><path d="M 1203.0 815 h 10"></path><g class="non-terminal ">
<path d="M 1213.0 815 h 0.0"></path><path d="M 1292.5 815 h 0.0"></path><rect height="22" width="79.5" x="1213.0" y="804"></rect><text x="1252.75" y="819">Chapter</text></g><path d="M 1292.5 815 h 10"></path><path d="M 1302.5 815 h 10"></path><g>
<path d="M 1312.5 815 h 0.0"></path><path d="M 1511.5 815 h 0.0"></path><path d="M 1312.5 815 h 10"></path><g>
<path d="M 1322.5 815 h 0.0"></path><path d="M 1501.5 815 h 0.0"></path><path d="M 1322.5 815 h 20"></path><g class="non-terminal ">
<path d="M 1342.5 815 h 42.5"></path><path d="M 1439.0 815 h 42.5"></path><rect height="22" width="54.0" x="1385.0" y="804"></rect><text x="1412.0" y="819">Para</text></g><path d="M 1481.5 815 h 20"></path><path d="M 1322.5 815 a 10 10 0 0 1 10 10 v 10 a 10 10 0 0 0 10 10"></path><g class="non-terminal ">
<path d="M 1342.5 845 h 29.75"></path><path d="M 1451.75 845 h 29.75"></path><rect height="22" width="79.5" x="1372.25" y="834"></rect><text x="1412.0" y="849">Section</text></g><path d="M 1481.5 845 a 10 10 0 0 0 10 -10 v -10 a 10 10 0 0 1 10 -10"></path><path d="M 1322.5 815 a 10 10 0 0 1 10 10 v 40 a 10 10 0 0 0 10 10"></path><g class="non-terminal ">
<path d="M 1342.5 875 h 29.75"></path><path d="M 1451.75 875 h 29.75"></path><rect height="22" width="79.5" x="1372.25" y="864"></rect><text x="1412.0" y="879">Chapter</text></g><path d="M 1481.5 875 a 10 10 0 0 0 10 -10 v -40 a 10 10 0 0 1 10 -10"></path><path d="M 1322.5 815 a 10 10 0 0 1 10 10 v 70 a 10 10 0 0 0 10 10"></path><g class="non-terminal ">
<path d="M 1342.5 905 h 34.0"></path><path d="M 1447.5 905 h 34.0"></path><rect height="22" width="71.0" x="1376.5" y="894"></rect><text x="1412.0" y="909">Figure</text></g><path d="M 1481.5 905 a 10 10 0 0 0 10 -10 v -70 a 10 10 0 0 1 10 -10"></path><path d="M 1322.5 815 a 10 10 0 0 1 10 10 v 100 a 10 10 0 0 0 10 10"></path><g class="non-terminal ">
<path d="M 1342.5 935 h 21.25"></path><path d="M 1460.25 935 h 21.25"></path><rect height="22" width="96.5" x="1363.75" y="924"></rect><text x="1412.0" y="939">Milestone</text></g><path d="M 1481.5 935 a 10 10 0 0 0 10 -10 v -100 a 10 10 0 0 1 10 -10"></path><path d="M 1322.5 815 a 10 10 0 0 1 10 10 v 130 a 10 10 0 0 0 10 10"></path><g class="non-terminal ">
<path d="M 1342.5 965 h 25.5"></path><path d="M 1456.0 965 h 25.5"></path><rect height="22" width="88.0" x="1368.0" y="954"></rect><text x="1412.0" y="969">Footnote</text></g><path d="M 1481.5 965 a 10 10 0 0 0 10 -10 v -130 a 10 10 0 0 1 10 -10"></path><path d="M 1322.5 815 a 10 10 0 0 1 10 10 v 160 a 10 10 0 0 0 10 10"></path><g class="non-terminal ">
<path d="M 1342.5 995 h 0.0"></path><path d="M 1481.5 995 h 0.0"></path><rect height="22" width="139.0" x="1342.5" y="984"></rect><text x="1412.0" y="999">CrossReference</text></g><path d="M 1481.5 995 a 10 10 0 0 0 10 -10 v -160 a 10 10 0 0 1 10 -10"></path><path d="M 1322.5 815 a 10 10 0 0 1 10 10 v 190 a 10 10 0 0 0 10 10"></path><g class="non-terminal ">
<path d="M 1342.5 1025 h 42.5"></path><path d="M 1439.0 1025 h 42.5"></path><rect height="22" width="54.0" x="1385.0" y="1014"></rect><text x="1412.0" y="1029">List</text></g><path d="M 1481.5 1025 a 10 10 0 0 0 10 -10 v -190 a 10 10 0 0 1 10 -10"></path><path d="M 1322.5 815 a 10 10 0 0 1 10 10 v 220 a 10 10 0 0 0 10 10"></path><g class="non-terminal ">
<path d="M 1342.5 1055 h 38.25"></path><path d="M 1443.25 1055 h 38.25"></path><rect height="22" width="62.5" x="1380.75" y="1044"></rect><text x="1412.0" y="1059">Table</text></g><path d="M 1481.5 1055 a 10 10 0 0 0 10 -10 v -220 a 10 10 0 0 1 10 -10"></path><path d="M 1322.5 815 a 10 10 0 0 1 10 10 v 250 a 10 10 0 0 0 10 10"></path><g class="non-terminal ">
<path d="M 1342.5 1085 h 29.75"></path><path d="M 1451.75 1085 h 29.75"></path><rect height="22" width="79.5" x="1372.25" y="1074"></rect><text x="1412.0" y="1089">Sidebar</text></g><path d="M 1481.5 1085 a 10 10 0 0 0 10 -10 v -250 a 10 10 0 0 1 10 -10"></path></g><path d="M 1501.5 815 h 10"></path><path d="M 1322.5 815 a 10 10 0 0 0 -10 10 v 279 a 10 10 0 0 0 10 10"></path><g>
<path d="M 1322.5 1114 h 179.0"></path></g><path d="M 1501.5 1114 a 10 10 0 0 0 10 -10 v -279 a 10 10 0 0 0 -10 -10"></path></g></g><path d="M 1521.5 815 h 10"></path><path d="M 1531.5 815 h 0.0"></path></g></g><path d="M 1531.5 815 h 10"></path><path d="M 1541.5 815 h 20 m 0 -10 v 20"></path></g></svg>