<svg class="railroad-diagram" height="821" viewBox="0 0 1541.5 821" width="1541.5" xmlns="http://www.w3.org/2000/svg" xmlns:xlink="http://www.w3.org/1999/xlink">
<g transform="translate(.5 .5)">
<style>/* <![CDATA[ */

    svg.railroad-diagram {
        background-color:hsl(30,20%,95%);
    }
    svg.railroad-diagram path {
        stroke-width: 2;
        stroke: black;
        fill: none;
    }
    svg.railroad-diagram text {
        font-size: 12px;
        text-anchor: middle;
        font-family: DejaVu Sans;
    }
    svg.railroad-diagram text.label {
        text-anchor:start;
    }
    svg.railroad-diagram text.comment {
        font-family: DejaVu Sans;
        font-size: 14px;
    }
    svg.railroad-diagram rect{
        stroke-width: 2;
        stroke:black;
        fill: rgb(210, 255, 210);
    }
    svg.railroad-diagram rect.group-box {
        stroke: gray;
        stroke-dasharray: 10 5;
        fill: none;
    }
    .terminal {
        font-family: DejaVu Sans;
    }

/* ]]> */
</style><g>
<path d="M 20 21 v 20 m 0 -10 h 20"></path></g><path d="M 40 31 h 10"></path><g>
<path d="M 50 31 h 0.0"></path><path d="M 1491.5 592 h 0.0"></path><g>
<path d="M 50.0 31 h 0.0"></path><path d="M 50.0 31 h 10"></path><g>
<path d="M 60.0 31 h 605.5"></path><path d="M 876.0 31 h 605.5"></path><g class="terminal ">
<path d="M 665.5 31 h 0.0"></path><path d="M 711.0 31 h 0.0"></path><rect height="22" rx="10" ry="10" width="45.5" x="665.5" y="20"></rect><text x="688.25" y="35">'\'</text></g><path d="M 711.0 31 h 10"></path><path d="M 721.0 31 h 10"></path><g class="terminal ">
<path d="M 731.0 31 h 0.0"></path><path d="M 785.0 31 h 0.0"></path><rect height="22" rx="10" ry="10" width="54.0" x="731.0" y="20"></rect><text x="758.0" y="35">"id"</text></g><path d="M 785.0 31 h 10"></path><path d="M 795.0 31 h 10"></path><g class="terminal ">
<path d="M 805.0 31 h 0.0"></path><path d="M 876.0 31 h 0.0"></path><rect height="22" rx="10" ry="10" width="71.0" x="805.0" y="20"></rect><text x="840.5" y="35">TAGEND</text></g></g><path d="M 1481.5 31 a 10 10 0 0 1 10 10 v 0 a 10 10 0 0 1 -10 10 h -1421.5 a 10 10 0 0 0 -10 10 v 107 a 10 10 0 0 0 10 10"></path><g>
<path d="M 60.0 178 h 132.25"></path><path d="M 1349.25 178 h 132.25"></path><path d="M 192.25 178 a 10 10 0 0 0 10 -10 v -99 a 10 10 0 0 1 10 -10 h 967.5"></path><path d="M 344.75 477 h 984.5 a 10 10 0 0 0 10 -10 v -279 a 10 10 0 0 1 10 -10"></path><path d="M 192.25 178 h 10"></path><g>
<path d="M 202.25 178 h 10.0"></path><path d="M 314.75 178 h 10.0"></path><path d="M 212.25 178 a 10 10 0 0 0 10 -10 v -10 a 10 10 0 0 1 10 -10"></path><g class="terminal ">
<path d="M 232.25 148 h 0.0"></path><path d="M 294.75 148 h 0.0"></path><rect height="22" rx="10" ry="10" width="62.5" x="232.25" y="137"></rect><text x="263.5" y="152">"LEV"</text></g><path d="M 294.75 148 a 10 10 0 0 1 10 10 v 10 a 10 10 0 0 0 10 10"></path><path d="M 212.25 178 a 10 10 0 0 0 10 -10 v -40 a 10 10 0 0 1 10 -10"></path><g class="terminal ">
<path d="M 232.25 118 h 0.0"></path><path d="M 294.75 118 h 0.0"></path><rect height="22" rx="10" ry="10" width="62.5" x="232.25" y="107"></rect><text x="263.5" y="122">"EXO"</text></g><path d="M 294.75 118 a 10 10 0 0 1 10 10 v 40 a 10 10 0 0 0 10 10"></path><path d="M 212.25 178 a 10 10 0 0 0 10 -10 v -70 a 10 10 0 0 1 10 -10"></path><g class="terminal ">
<path d="M 232.25 88 h 0.0"></path><path d="M 294.75 88 h 0.0"></path><rect height="22" rx="10" ry="10" width="62.5" x="232.25" y="77"></rect><text x="263.5" y="92">"GEN"</text></g><path d="M 294.75 88 a 10 10 0 0 1 10 10 v 70 a 10 10 0 0 0 10 10"></path><path d="M 212.25 178 h 20"></path><g class="terminal ">
<path d="M 232.25 178 h 0.0"></path><path d="M 294.75 178 h 0.0"></path><rect height="22" rx="10" ry="10" width="62.5" x="232.25" y="167"></rect><text x="263.5" y="182">"NUM"</text></g><path d="M 294.75 178 h 20"></path><path d="M 212.25 178 a 10 10 0 0 1 10 10 v 10 a 10 10 0 0 0 10 10"></path><g class="terminal ">
<path d="M 232.25 208 h 0.0"></path><path d="M 294.75 208 h 0.0"></path><rect height="22" rx="10" ry="10" width="62.5" x="232.25" y="197"></rect><text x="263.5" y="212">"DEU"</text></g><path d="M 294.75 208 a 10 10 0 0 0 10 -10 v -10 a 10 10 0 0 1 10 -10"></path><path d="M 212.25 178 a 10 10 0 0 1 10 10 v 40 a 10 10 0 0 0 10 10"></path><g class="terminal ">
<path d="M 232.25 238 h 0.0"></path><path d="M 294.75 238 h 0.0"></path><rect height="22" rx="10" ry="10" width="62.5" x="232.25" y="227"></rect><text x="263.5" y="242">"JOS"</text></g><path d="M 294.75 238 a 10 10 0 0 0 10 -10 v -40 a 10 10 0 0 1 10 -10"></path><path d="M 212.25 178 a 10 10 0 0 1 10 10 v 70 a 10 10 0 0 0 10 10"></path><g class="terminal ">
<path d="M 232.25 268 h 0.0"></path><path d="M 294.75 268 h 0.0"></path><rect height="22" rx="10" ry="10" width="62.5" x="232.25" y="257"></rect><text x="263.5" y="272">"JDG"</text></g><path d="M 294.75 268 a 10 10 0 0 0 10 -10 v -70 a 10 10 0 0 1 10 -10"></path><path d="M 212.25 178 a 10 10 0 0 1 10 10 v 100 a 10 10 0 0 0 10 10"></path><g class="terminal ">
<path d="M 232.25 298 h 0.0"></path><path d="M 294.75 298 h 0.0"></path><rect height="22" rx="10" ry="10" width="62.5" x="232.25" y="287"></rect><text x="263.5" y="302">"RUT"</text></g><path d="M 294.75 298 a 10 10 0 0 0 10 -10 v -100 a 10 10 0 0 1 10 -10"></path><path d="M 212.25 178 a 10 10 0 0 1 10 10 v 130 a 10 10 0 0 0 10 10"></path><g class="terminal ">
<path d="M 232.25 328 h 0.0"></path><path d="M 294.75 328 h 0.0"></path><rect height="22" rx="10" ry="10" width="62.5" x="232.25" y="317"></rect><text x="263.5" y="332">"1SA"</text></g><path d="M 294.75 328 a 10 10 0 0 0 10 -10 v -130 a 10 10 0 0 1 10 -10"></path><path d="M 212.25 178 a 10 10 0 0 1 10 10 v 160 a 10 10 0 0 0 10 10"></path><g class="terminal ">
<path d="M 232.25 358 h 0.0"></path><path d="M 294.75 358 h 0.0"></path><rect height="22" rx="10" ry="10" width="62.5" x="232.25" y="347"></rect><text x="263.5" y="362">"2SA"</text></g><path d="M 294.75 358 a 10 10 0 0 0 10 -10 v -160 a 10 10 0 0 1 10 -10"></path><path d="M 212.25 178 a 10 10 0 0 1 10 10 v 190 a 10 10 0 0 0 10 10"></path><g class="terminal ">
<path d="M 232.25 388 h 0.0"></path><path d="M 294.75 388 h 0.0"></path><rect height="22" rx="10" ry="10" width="62.5" x="232.25" y="377"></rect><text x="263.5" y="392">"1KI"</text></g><path d="M 294.75 388 a 10 10 0 0 0 10 -10 v -190 a 10 10 0 0 1 10 -10"></path><path d="M 212.25 178 a 10 10 0 0 1 10 10 v 220 a 10 10 0 0 0 10 10"></path><g class="terminal ">
<path d="M 232.25 418 h 0.0"></path><path d="M 294.75 418 h 0.0"></path><rect height="22" rx="10" ry="10" width="62.5" x="232.25" y="407"></rect><text x="263.5" y="422">"2KI"</text></g><path d="M 294.75 418 a 10 10 0 0 0 10 -10 v -220 a 10 10 0 0 1 10 -10"></path><path d="M 212.25 178 a 10 10 0 0 1 10 10 v 250 a 10 10 0 0 0 10 10"></path><g class="terminal ">
<path d="M 232.25 448 h 0.0"></path><path d="M 294.75 448 h 0.0"></path><rect height="22" rx="10" ry="10" width="62.5" x="232.25" y="437"></rect><text x="263.5" y="452">"1CH"</text></g><path d="M 294.75 448 a 10 10 0 0 0 10 -10 v -250 a 10 10 0 0 1 10 -10"></path></g><path d="M 324.75 178 a 10 10 0 0 1 10 10 v 279 a 10 10 0 0 0 10 10"></path><path d="M 324.75 59 a 10 10 0 0 1 10 10 v 99 a 10 10 0 0 0 10 10"></path><g>
<path d="M 344.75 178 h 10.0"></path><path d="M 457.25 178 h 10.0"></path><path d="M 354.75 178 a 10 10 0 0 0 10 -10 v -10 a 10 10 0 0 1 10 -10"></path><g class="terminal ">
<path d="M 374.75 148 h 0.0"></path><path d="M 437.25 148 h 0.0"></path><rect height="22" rx="10" ry="10" width="62.5" x="374.75" y="137"></rect><text x="406.0" y="152">"NEH"</text></g><path d="M 437.25 148 a 10 10 0 0 1 10 10 v 10 a 10 10 0 0 0 10 10"></path><path d="M 354.75 178 a 10 10 0 0 0 10 -10 v -40 a 10 10 0 0 1 10 -10"></path><g class="terminal ">
<path d="M 374.75 118 h 0.0"></path><path d="M 437.25 118 h 0.0"></path><rect height="22" rx="10" ry="10" width="62.5" x="374.75" y="107"></rect><text x="406.0" y="122">"EZR"</text></g><path d="M 437.25 118 a 10 10 0 0 1 10 10 v 40 a 10 10 0 0 0 10 10"></path><path d="M 354.75 178 a 10 10 0 0 0 10 -10 v -70 a 10 10 0 0 1 10 -10"></path><g class="terminal ">
<path d="M 374.75 88 h 0.0"></path><path d="M 437.25 88 h 0.0"></path><rect height="22" rx="10" ry="10" width="62.5" x="374.75" y="77"></rect><text x="406.0" y="92">"2CH"</text></g><path d="M 437.25 88 a 10 10 0 0 1 10 10 v 70 a 10 10 0 0 0 10 10"></path><path d="M 354.75 178 h 20"></path><g class="terminal ">
<path d="M 374.75 178 h 0.0"></path><path d="M 437.25 178 h 0.0"></path><rect height="22" rx="10" ry="10" width="62.5" x="374.75" y="167"></rect><text x="406.0" y="182">"EST"</text></g><path d="M 437.25 178 h 20"></path><path d="M 354.75 178 a 10 10 0 0 1 10 10 v 10 a 10 10 0 0 0 10 10"></path><g class="terminal ">
<path d="M 374.75 208 h 0.0"></path><path d="M 437.25 208 h 0.0"></path><rect height="22" rx="10" ry="10" width="62.5" x="374.75" y="197"></rect><text x="406.0" y="212">"JOB"</text></g><path d="M 437.25 208 a 10 10 0 0 0 10 -10 v -10 a 10 10 0 0 1 10 -10"></path><path d="M 354.75 178 a 10 10 0 0 1 10 10 v 40 a 10 10 0 0 0 10 10"></path><g class="terminal ">
<path d="M 374.75 238 h 0.0"></path><path d="M 437.25 238 h 0.0"></path><rect height="22" rx="10" ry="10" width="62.5" x="374.75" y="227"></rect><text x="406.0" y="242">"PSA"</text></g><path d="M 437.25 238 a 10 10 0 0 0 10 -10 v -40 a 10 10 0 0 1 10 -10"></path><path d="M 354.75 178 a 10 10 0 0 1 10 10 v 70 a 10 10 0 0 0 10 10"></path><g class="terminal ">
<path d="M 374.75 268 h 0.0"></path><path d="M 437.25 268 h 0.0"></path><rect height="22" rx="10" ry="10" width="62.5" x="374.75" y="257"></rect><text x="406.0" y="272">"PRO"</text></g><path d="M 437.25 268 a 10 10 0 0 0 10 -10 v -70 a 10 10 0 0 1 10 -10"></path><path d="M 354.75 178 a 10 10 0 0 1 10 10 v 100 a 10 10 0 0 0 10 10"></path><g class="terminal ">
<path d="M 374.75 298 h 0.0"></path><path d="M 437.25 298 h 0.0"></path><rect height="22" rx="10" ry="10" width="62.5" x="374.75" y="287"></rect><text x="406.0" y="302">"ECC"</text></g><path d="M 437.25 298 a 10 10 0 0 0 10 -10 v -100 a 10 10 0 0 1 10 -10"></path><path d="M 354.75 178 a 10 10 0 0 1 10 10 v 130 a 10 10 0 0 0 10 10"></path><g class="terminal ">
<path d="M 374.75 328 h 0.0"></path><path d="M 437.25 328 h 0.0"></path><rect height="22" rx="10" ry="10" width="62.5" x="374.75" y="317"></rect><text x="406.0" y="332">"SNG"</text></g><path d="M 437.25 328 a 10 10 0 0 0 10 -10 v -130 a 10 10 0 0 1 10 -10"></path><path d="M 354.75 178 a 10 10 0 0 1 10 10 v 160 a 10 10 0 0 0 10 10"></path><g class="terminal ">
<path d="M 374.75 358 h 0.0"></path><path d="M 437.25 358 h 0.0"></path><rect height="22" rx="10" ry="10" width="62.5" x="374.75" y="347"></rect><text x="406.0" y="362">"ISA"</text></g><path d="M 437.25 358 a 10 10 0 0 0 10 -10 v -160 a 10 10 0 0 1 10 -10"></path><path d="M 354.75 178 a 10 10 0 0 1 10 10 v 190 a 10 10 0 0 0 10 10"></path><g class="terminal ">
<path d="M 374.75 388 h 0.0"></path><path d="M 437.25 388 h 0.0"></path><rect height="22" rx="10" ry="10" width="62.5" x="374.75" y="377"></rect><text x="406.0" y="392">"JER"</text></g><path d="M 437.25 388 a 10 10 0 0 0 10 -10 v -190 a 10 10 0 0 1 10 -10"></path><path d="M 354.75 178 a 10 10 0 0 1 10 10 v 220 a 10 10 0 0 0 10 10"></path><g class="terminal ">
<path d="M 374.75 418 h 0.0"></path><path d="M 437.25 418 h 0.0"></path><rect height="22" rx="10" ry="10" width="62.5" x="374.75" y="407"></rect><text x="406.0" y="422">"LAM"</text></g><path d="M 437.25 418 a 10 10 0 0 0 10 -10 v -220 a 10 10 0 0 1 10 -10"></path><path d="M 354.75 178 a 10 10 0 0 1 10 10 v 250 a 10 10 0 0 0 10 10"></path><g class="terminal ">
<path d="M 374.75 448 h 0.0"></path><path d="M 437.25 448 h 0.0"></path><rect height="22" rx="10" ry="10" width="62.5" x="374.75" y="437"></rect><text x="406.0" y="452">"EZK"</text></g><path d="M 437.25 448 a 10 10 0 0 0 10 -10 v -250 a 10 10 0 0 1 10 -10"></path></g><path d="M 467.25 178 a 10 10 0 0 1 10 10 v 279 a 10 10 0 0 0 10 10"></path><path d="M 467.25 59 a 10 10 0 0 1 10 10 v 99 a 10 10 0 0 0 10 10"></path><g>
<path d="M 487.25 178 h 10.0"></path><path d="M 599.75 178 h 10.0"></path><path d="M 497.25 178 a 10 10 0 0 0 10 -10 v -10 a 10 10 0 0 1 10 -10"></path><g class="terminal ">
<path d="M 517.25 148 h 0.0"></path><path d="M 579.75 148 h 0.0"></path><rect height="22" rx="10" ry="10" width="62.5" x="517.25" y="137"></rect><text x="548.5" y="152">"JOL"</text></g><path d="M 579.75 148 a 10 10 0 0 1 10 10 v 10 a 10 10 0 0 0 10 10"></path><path d="M 497.25 178 a 10 10 0 0 0 10 -10 v -40 a 10 10 0 0 1 10 -10"></path><g class="terminal ">
<path d="M 517.25 118 h 0.0"></path><path d="M 579.75 118 h 0.0"></path><rect height="22" rx="10" ry="10" width="62.5" x="517.25" y="107"></rect><text x="548.5" y="122">"HOS"</text></g><path d="M 579.75 118 a 10 10 0 0 1 10 10 v 40 a 10 10 0 0 0 10 10"></path><path d="M 497.25 178 a 10 10 0 0 0 10 -10 v -70 a 10 10 0 0 1 10 -10"></path><g class="terminal ">
<path d="M 517.25 88 h 0.0"></path><path d="M 579.75 88 h 0.0"></path><rect height="22" rx="10" ry="10" width="62.5" x="517.25" y="77"></rect><text x="548.5" y="92">"DAN"</text></g><path d="M 579.75 88 a 10 10 0 0 1 10 10 v 70 a 10 10 0 0 0 10 10"></path><path d="M 497.25 178 h 20"></path><g class="terminal ">
<path d="M 517.25 178 h 0.0"></path><path d="M 579.75 178 h 0.0"></path><rect height="22" rx="10" ry="10" width="62.5" x="517.25" y="167"></rect><text x="548.5" y="182">"AMO"</text></g><path d="M 579.75 178 h 20"></path><path d="M 497.25 178 a 10 10 0 0 1 10 10 v 10 a 10 10 0 0 0 10 10"></path><g class="terminal ">
<path d="M 517.25 208 h 0.0"></path><path d="M 579.75 208 h 0.0"></path><rect height="22" rx="10" ry="10" width="62.5" x="517.25" y="197"></rect><text x="548.5" y="212">"OBA"</text></g><path d="M 579.75 208 a 10 10 0 0 0 10 -10 v -10 a 10 10 0 0 1 10 -10"></path><path d="M 497.25 178 a 10 10 0 0 1 10 10 v 40 a 10 10 0 0 0 10 10"></path><g class="terminal ">
<path d="M 517.25 238 h 0.0"></path><path d="M 579.75 238 h 0.0"></path><rect height="22" rx="10" ry="10" width="62.5" x="517.25" y="227"></rect><text x="548.5" y="242">"JON"</text></g><path d="M 579.75 238 a 10 10 0 0 0 10 -10 v -40 a 10 10 0 0 1 10 -10"></path><path d="M 497.25 178 a 10 10 0 0 1 10 10 v 70 a 10 10 0 0 0 10 10"></path><g class="terminal ">
<path d="M 517.25 268 h 0.0"></path><path d="M 579.75 268 h 0.0"></path><rect height="22" rx="10" ry="10" width="62.5" x="517.25" y="257"></rect><text x="548.5" y="272">"MIC"</text></g><path d="M 579.75 268 a 10 10 0 0 0 10 -10 v -70 a 10 10 0 0 1 10 -10"></path><path d="M 497.25 178 a 10 10 0 0 1 10 10 v 100 a 10 10 0 0 0 10 10"></path><g class="terminal ">
<path d="M 517.25 298 h 0.0"></path><path d="M 579.75 298 h 0.0"></path><rect height="22" rx="10" ry="10" width="62.5" x="517.25" y="287"></rect><text x="548.5" y="302">"NAM"</text></g><path d="M 579.75 298 a 10 10 0 0 0 10 -10 v -100 a 10 10 0 0 1 10 -10"></path><path d="M 497.25 178 a 10 10 0 0 1 10 10 v 130 a 10 10 0 0 0 10 10"></path><g class="terminal ">
<path d="M 517.25 328 h 0.0"></path><path d="M 579.75 328 h 0.0"></path><rect height="22" rx="10" ry="10" width="62.5" x="517.25" y="317"></rect><text x="548.5" y="332">"HAB"</text></g><path d="M 579.75 328 a 10 10 0 0 0 10 -10 v -130 a 10 10 0 0 1 10 -10"></path><path d="M 497.25 178 a 10 10 0 0 1 10 10 v 160 a 10 10 0 0 0 10 10"></path><g class="terminal ">
<path d="M 517.25 358 h 0.0"></path><path d="M 579.75 358 h 0.0"></path><rect height="22" rx="10" ry="10" width="62.5" x="517.25" y="347"></rect><text x="548.5" y="362">"ZEP"</text></g><path d="M 579.75 358 a 10 10 0 0 0 10 -10 v -160 a 10 10 0 0 1 10 -10"></path><path d="M 497.25 178 a 10 10 0 0 1 10 10 v 190 a 10 10 0 0 0 10 10"></path><g class="terminal ">
<path d="M 517.25 388 h 0.0"></path><path d="M 579.75 388 h 0.0"></path><rect height="22" rx="10" ry="10" width="62.5" x="517.25" y="377"></rect><text x="548.5" y="392">"HAG"</text></g><path d="M 579.75 388 a 10 10 0 0 0 10 -10 v -190 a 10 10 0 0 1 10 -10"></path><path d="M 497.25 178 a 10 10 0 0 1 10 10 v 220 a 10 10 0 0 0 10 10"></path><g class="terminal ">
<path d="M 517.25 418 h 0.0"></path><path d="M 579.75 418 h 0.0"></path><rect height="22" rx="10" ry="10" width="62.5" x="517.25" y="407"></rect><text x="548.5" y="422">"ZEC"</text></g><path d="M 579.75 418 a 10 10 0 0 0 10 -10 v -220 a 10 10 0 0 1 10 -10"></path><path d="M 497.25 178 a 10 10 0 0 1 10 10 v 250 a 10 10 0 0 0 10 10"></path><g class="terminal ">
<path d="M 517.25 448 h 0.0"></path><path d="M 579.75 448 h 0.0"></path><rect height="22" rx="10" ry="10" width="62.5" x="517.25" y="437"></rect><text x="548.5" y="452">"MAL"</text></g><path d="M 579.75 448 a 10 10 0 0 0 10 -10 v -250 a 10 10 0 0 1 10 -10"></path></g><path d="M 609.75 178 a 10 10 0 0 1 10 10 v 279 a 10 10 0 0 0 10 10"></path><path d="M 609.75 59 a 10 10 0 0 1 10 10 v 99 a 10 10 0 0 0 10 10"></path><g>
<path d="M 629.75 178 h 10.0"></path><path d="M 742.25 178 h 10.0"></path><path d="M 639.75 178 a 10 10 0 0 0 10 -10 v -10 a 10 10 0 0 1 10 -10"></path><g class="terminal ">
<path d="M 659.75 148 h 0.0"></path><path d="M 722.25 148 h 0.0"></path><rect height="22" rx="10" ry="10" width="62.5" x="659.75" y="137"></rect><text x="691.0" y="152">"LUK"</text></g><path d="M 722.25 148 a 10 10 0 0 1 10 10 v 10 a 10 10 0 0 0 10 10"></path><path d="M 639.75 178 a 10 10 0 0 0 10 -10 v -40 a 10 10 0 0 1 10 -10"></path><g class="terminal ">
<path d="M 659.75 118 h 0.0"></path><path d="M 722.25 118 h 0.0"></path><rect height="22" rx="10" ry="10" width="62.5" x="659.75" y="107"></rect><text x="691.0" y="122">"MRK"</text></g><path d="M 722.25 118 a 10 10 0 0 1 10 10 v 40 a 10 10 0 0 0 10 10"></path><path d="M 639.75 178 a 10 10 0 0 0 10 -10 v -70 a 10 10 0 0 1 10 -10"></path><g class="terminal ">
<path d="M 659.75 88 h 0.0"></path><path d="M 722.25 88 h 0.0"></path><rect height="22" rx="10" ry="10" width="62.5" x="659.75" y="77"></rect><text x="691.0" y="92">"MAT"</text></g><path d="M 722.25 88 a 10 10 0 0 1 10 10 v 70 a 10 10 0 0 0 10 10"></path><path d="M 639.75 178 h 20"></path><g class="terminal ">
<path d="M 659.75 178 h 0.0"></path><path d="M 722.25 178 h 0.0"></path><rect height="22" rx="10" ry="10" width="62.5" x="659.75" y="167"></rect><text x="691.0" y="182">"JHN"</text></g><path d="M 722.25 178 h 20"></path><path d="M 639.75 178 a 10 10 0 0 1 10 10 v 10 a 10 10 0 0 0 10 10"></path><g class="terminal ">
<path d="M 659.75 208 h 0.0"></path><path d="M 722.25 208 h 0.0"></path><rect height="22" rx="10" ry="10" width="62.5" x="659.75" y="197"></rect><text x="691.0" y="212">"ACT"</text></g><path d="M 722.25 208 a 10 10 0 0 0 10 -10 v -10 a 10 10 0 0 1 10 -10"></path><path d="M 639.75 178 a 10 10 0 0 1 10 10 v 40 a 10 10 0 0 0 10 10"></path><g class="terminal ">
<path d="M 659.75 238 h 0.0"></path><path d="M 722.25 238 h 0.0"></path><rect height="22" rx="10" ry="10" width="62.5" x="659.75" y="227"></rect><text x="691.0" y="242">"ROM"</text></g><path d="M 722.25 238 a 10 10 0 0 0 10 -10 v -40 a 10 10 0 0 1 10 -10"></path><path d="M 639.75 178 a 10 10 0 0 1 10 10 v 70 a 10 10 0 0 0 10 10"></path><g class="terminal ">
<path d="M 659.75 268 h 0.0"></path><path d="M 722.25 268 h 0.0"></path><rect height="22" rx="10" ry="10" width="62.5" x="659.75" y="257"></rect><text x="691.0" y="272">"1CO"</text></g><path d="M 722.25 268 a 10 10 0 0 0 10 -10 v -70 a 10 10 0 0 1 10 -10"></path><path d="M 639.75 178 a 10 10 0 0 1 10 10 v 100 a 10 10 0 0 0 10 10"></path><g class="terminal ">
<path d="M 659.75 298 h 0.0"></path><path d="M 722.25 298 h 0.0"></path><rect height="22" rx="10" ry="10" width="62.5" x="659.75" y="287"></rect><text x="691.0" y="302">"2CO"</text></g><path d="M 722.25 298 a 10 10 0 0 0 10 -10 v -100 a 10 10 0 0 1 10 -10"></path><path d="M 639.75 178 a 10 10 0 0 1 10 10 v 130 a 10 10 0 0 0 10 10"></path><g class="terminal ">
<path d="M 659.75 328 h 0.0"></path><path d="M 722.25 328 h 0.0"></path><rect height="22" rx="10" ry="10" width="62.5" x="659.75" y="317"></rect><text x="691.0" y="332">"GAL"</text></g><path d="M 722.25 328 a 10 10 0 0 0 10 -10 v -130 a 10 10 0 0 1 10 -10"></path><path d="M 639.75 178 a 10 10 0 0 1 10 10 v 160 a 10 10 0 0 0 10 10"></path><g class="terminal ">
<path d="M 659.75 358 h 0.0"></path><path d="M 722.25 358 h 0.0"></path><rect height="22" rx="10" ry="10" width="62.5" x="659.75" y="347"></rect><text x="691.0" y="362">"EPH"</text></g><path d="M 722.25 358 a 10 10 0 0 0 10 -10 v -160 a 10 10 0 0 1 10 -10"></path><path d="M 639.75 178 a 10 10 0 0 1 10 10 v 190 a 10 10 0 0 0 10 10"></path><g class="terminal ">
<path d="M 659.75 388 h 0.0"></path><path d="M 722.25 388 h 0.0"></path><rect height="22" rx="10" ry="10" width="62.5" x="659.75" y="377"></rect><text x="691.0" y="392">"PHP"</text></g><path d="M 722.25 388 a 10 10 0 0 0 10 -10 v -190 a 10 10 0 0 1 10 -10"></path><path d="M 639.75 178 a 10 10 0 0 1 10 10 v 220 a 10 10 0 0 0 10 10"></path><g class="terminal ">
<path d="M 659.75 418 h 0.0"></path><path d="M 722.25 418 h 0.0"></path><rect height="22" rx="10" ry="10" width="62.5" x="659.75" y="407"></rect><text x="691.0" y="422">"COL"</text></g><path d="M 722.25 418 a 10 10 0 0 0 10 -10 v -220 a 10 10 0 0 1 10 -10"></path><path d="M 639.75 178 a 10 10 0 0 1 10 10 v 250 a 10 10 0 0 0 10 10"></path><g class="terminal ">
<path d="M 659.75 448 h 0.0"></path><path d="M 722.25 448 h 0.0"></path><rect height="22" rx="10" ry="10" width="62.5" x="659.75" y="437"></rect><text x="691.0" y="452">"1TH"</text></g><path d="M 722.25 448 a 10 10 0 0 0 10 -10 v -250 a 10 10 0 0 1 10 -10"></path></g><path d="M 752.25 178 a 10 10 0 0 1 10 10 v 279 a 10 10 0 0 0 10 10"></path><path d="M 752.25 59 a 10 10 0 0 1 10 10 v 99 a 10 10 0 0 0 10 10"></path><g>
<path d="M 772.25 178 h 10.0"></path><path d="M 884.75 178 h 10.0"></path><path d="M 782.25 178 a 10 10 0 0 0 10 -10 v -10 a 10 10 0 0 1 10 -10"></path><g class="terminal ">
<path d="M 802.25 148 h 0.0"></path><path d="M 864.75 148 h 0.0"></path><rect height="22" rx="10" ry="10" width="62.5" x="802.25" y="137"></rect><text x="833.5" y="152">"2TI"</text></g><path d="M 864.75 148 a 10 10 0 0 1 10 10 v 10 a 10 10 0 0 0 10 10"></path><path d="M 782.25 178 a 10 10 0 0 0 10 -10 v -40 a 10 10 0 0 1 10 -10"></path><g class="terminal ">
<path d="M 802.25 118 h 0.0"></path><path d="M 864.75 118 h 0.0"></path><rect height="22" rx="10" ry="10" width="62.5" x="802.25" y="107"></rect><text x="833.5" y="122">"1TI"</text></g><path d="M 864.75 118 a 10 10 0 0 1 10 10 v 40 a 10 10 0 0 0 10 10"></path><path d="M 782.25 178 a 10 10 0 0 0 10 -10 v -70 a 10 10 0 0 1 10 -10"></path><g class="terminal ">
<path d="M 802.25 88 h 0.0"></path><path d="M 864.75 88 h 0.0"></path><rect height="22" rx="10" ry="10" width="62.5" x="802.25" y="77"></rect><text x="833.5" y="92">"2TH"</text></g><path d="M 864.75 88 a 10 10 0 0 1 10 10 v 70 a 10 10 0 0 0 10 10"></path><path d="M 782.25 178 h 20"></path><g class="terminal ">
<path d="M 802.25 178 h 0.0"></path><path d="M 864.75 178 h 0.0"></path><rect height="22" rx="10" ry="10" width="62.5" x="802.25" y="167"></rect><text x="833.5" y="182">"TIT"</text></g><path d="M 864.75 178 h 20"></path><path d="M 782.25 178 a 10 10 0 0 1 10 10 v 10 a 10 10 0 0 0 10 10"></path><g class="terminal ">
<path d="M 802.25 208 h 0.0"></path><path d="M 864.75 208 h 0.0"></path><rect height="22" rx="10" ry="10" width="62.5" x="802.25" y="197"></rect><text x="833.5" y="212">"PHM"</text></g><path d="M 864.75 208 a 10 10 0 0 0 10 -10 v -10 a 10 10 0 0 1 10 -10"></path><path d="M 782.25 178 a 10 10 0 0 1 10 10 v 40 a 10 10 0 0 0 10 10"></path><g class="terminal ">
<path d="M 802.25 238 h 0.0"></path><path d="M 864.75 238 h 0.0"></path><rect height="22" rx="10" ry="10" width="62.5" x="802.25" y="227"></rect><text x="833.5" y="242">"HEB"</text></g><path d="M 864.75 238 a 10 10 0 0 0 10 -10 v -40 a 10 10 0 0 1 10 -10"></path><path d="M 782.25 178 a 10 10 0 0 1 10 10 v 70 a 10 10 0 0 0 10 10"></path><g class="terminal ">
<path d="M 802.25 268 h 0.0"></path><path d="M 864.75 268 h 0.0"></path><rect height="22" rx="10" ry="10" width="62.5" x="802.25" y="257"></rect><text x="833.5" y="272">"JAS"</text></g><path d="M 864.75 268 a 10 10 0 0 0 10 -10 v -70 a 10 10 0 0 1 10 -10"></path><path d="M 782.25 178 a 10 10 0 0 1 10 10 v 100 a 10 10 0 0 0 10 10"></path><g class="terminal ">
<path d="M 802.25 298 h 0.0"></path><path d="M 864.75 298 h 0.0"></path><rect height="22" rx="10" ry="10" width="62.5" x="802.25" y="287"></rect><text x="833.5" y="302">"1PE"</text></g><path d="M 864.75 298 a 10 10 0 0 0 10 -10 v -100 a 10 10 0 0 1 10 -10"></path><path d="M 782.25 178 a 10 10 0 0 1 10 10 v 130 a 10 10 0 0 0 10 10"></path><g class="terminal ">
<path d="M 802.25 328 h 0.0"></path><path d="M 864.75 328 h 0.0"></path><rect height="22" rx="10" ry="10" width="62.5" x="802.25" y="317"></rect><text x="833.5" y="332">"2PE"</text></g><path d="M 864.75 328 a 10 10 0 0 0 10 -10 v -130 a 10 10 0 0 1 10 -10"></path><path d="M 782.25 178 a 10 10 0 0 1 10 10 v 160 a 10 10 0 0 0 10 10"></path><g class="terminal ">
<path d="M 802.25 358 h 0.0"></path><path d="M 864.75 358 h 0.0"></path><rect height="22" rx="10" ry="10" width="62.5" x="802.25" y="347"></rect><text x="833.5" y="362">"1JN"</text></g><path d="M 864.75 358 a 10 10 0 0 0 10 -10 v -160 a 10 10 0 0 1 10 -10"></path><path d="M 782.25 178 a 10 10 0 0 1 10 10 v 190 a 10 10 0 0 0 10 10"></path><g class="terminal ">
<path d="M 802.25 388 h 0.0"></path><path d="M 864.75 388 h 0.0"></path><rect height="22" rx="10" ry="10" width="62.5" x="802.25" y="377"></rect><text x="833.5" y="392">"2JN"</text></g><path d="M 864.75 388 a 10 10 0 0 0 10 -10 v -190 a 10 10 0 0 1 10 -10"></path><path d="M 782.25 178 a 10 10 0 0 1 10 10 v 220 a 10 10 0 0 0 10 10"></path><g class="terminal ">
<path d="M 802.25 418 h 0.0"></path><path d="M 864.75 418 h 0.0"></path><rect height="22" rx="10" ry="10" width="62.5" x="802.25" y="407"></rect><text x="833.5" y="422">"3JN"</text></g><path d="M 864.75 418 a 10 10 0 0 0 10 -10 v -220 a 10 10 0 0 1 10 -10"></path><path d="M 782.25 178 a 10 10 0 0 1 10 10 v 250 a 10 10 0 0 0 10 10"></path><g class="terminal ">
<path d="M 802.25 448 h 0.0"></path><path d="M 864.75 448 h 0.0"></path><rect height="22" rx="10" ry="10" width="62.5" x="802.25" y="437"></rect><text x="833.5" y="452">"JUD"</text></g><path d="M 864.75 448 a 10 10 0 0 0 10 -10 v -250 a 10 10 0 0 1 10 -10"></path></g><path d="M 894.75 178 a 10 10 0 0 1 10 10 v 279 a 10 10 0 0 0 10 10"></path><path d="M 894.75 59 a 10 10 0 0 1 10 10 v 99 a 10 10 0 0 0 10 10"></path><g>
<path d="M 914.75 178 h 10.0"></path><path d="M 1027.25 178 h 10.0"></path><path d="M 924.75 178 a 10 10 0 0 0 10 -10 v -10 a 10 10 0 0 1 10 -10"></path><g class="terminal ">
<path d="M 944.75 148 h 0.0"></path><path d="M 1007.25 148 h 0.0"></path><rect height="22" rx="10" ry="10" width="62.5" x="944.75" y="137"></rect><text x="976.0" y="152">"JDT"</text></g><path d="M 1007.25 148 a 10 10 0 0 1 10 10 v 10 a 10 10 0 0 0 10 10"></path><path d="M 924.75 178 a 10 10 0 0 0 10 -10 v -40 a 10 10 0 0 1 10 -10"></path><g class="terminal ">
<path d="M 944.75 118 h 0.0"></path><path d="M 1007.25 118 h 0.0"></path><rect height="22" rx="10" ry="10" width="62.5" x="944.75" y="107"></rect><text x="976.0" y="122">"TOB"</text></g><path d="M 1007.25 118 a 10 10 0 0 1 10 10 v 40 a 10 10 0 0 0 10 10"></path><path d="M 924.75 178 a 10 10 0 0 0 10 -10 v -70 a 10 10 0 0 1 10 -10"></path><g class="terminal ">
<path d="M 944.75 88 h 0.0"></path><path d="M 1007.25 88 h 0.0"></path><rect height="22" rx="10" ry="10" width="62.5" x="944.75" y="77"></rect><text x="976.0" y="92">"REV"</text></g><path d="M 1007.25 88 a 10 10 0 0 1 10 10 v 70 a 10 10 0 0 0 10 10"></path><path d="M 924.75 178 h 20"></path><g class="terminal ">
<path d="M 944.75 178 h 0.0"></path><path d="M 1007.25 178 h 0.0"></path><rect height="22" rx="10" ry="10" width="62.5" x="944.75" y="167"></rect><text x="976.0" y="182">"ESG"</text></g><path d="M 1007.25 178 h 20"></path><path d="M 924.75 178 a 10 10 0 0 1 10 10 v 10 a 10 10 0 0 0 10 10"></path><g class="terminal ">
<path d="M 944.75 208 h 0.0"></path><path d="M 1007.25 208 h 0.0"></path><rect height="22" rx="10" ry="10" width="62.5" x="944.75" y="197"></rect><text x="976.0" y="212">"WIS"</text></g><path d="M 1007.25 208 a 10 10 0 0 0 10 -10 v -10 a 10 10 0 0 1 10 -10"></path><path d="M 924.75 178 a 10 10 0 0 1 10 10 v 40 a 10 10 0 0 0 10 10"></path><g class="terminal ">
<path d="M 944.75 238 h 0.0"></path><path d="M 1007.25 238 h 0.0"></path><rect height="22" rx="10" ry="10" width="62.5" x="944.75" y="227"></rect><text x="976.0" y="242">"SIR"</text></g><path d="M 1007.25 238 a 10 10 0 0 0 10 -10 v -40 a 10 10 0 0 1 10 -10"></path><path d="M 924.75 178 a 10 10 0 0 1 10 10 v 70 a 10 10 0 0 0 10 10"></path><g class="terminal ">
<path d="M 944.75 268 h 0.0"></path><path d="M 1007.25 268 h 0.0"></path><rect height="22" rx="10" ry="10" width="62.5" x="944.75" y="257"></rect><text x="976.0" y="272">"BAR"</text></g><path d="M 1007.25 268 a 10 10 0 0 0 10 -10 v -70 a 10 10 0 0 1 10 -10"></path><path d="M 924.75 178 a 10 10 0 0 1 10 10 v 100 a 10 10 0 0 0 10 10"></path><g class="terminal ">
<path d="M 944.75 298 h 0.0"></path><path d="M 1007.25 298 h 0.0"></path><rect height="22" rx="10" ry="10" width="62.5" x="944.75" y="287"></rect><text x="976.0" y="302">"LJE"</text></g><path d="M 1007.25 298 a 10 10 0 0 0 10 -10 v -100 a 10 10 0 0 1 10 -10"></path><path d="M 924.75 178 a 10 10 0 0 1 10 10 v 130 a 10 10 0 0 0 10 10"></path><g class="terminal ">
<path d="M 944.75 328 h 0.0"></path><path d="M 1007.25 328 h 0.0"></path><rect height="22" rx="10" ry="10" width="62.5" x="944.75" y="317"></rect><text x="976.0" y="332">"S3Y"</text></g><path d="M 1007.25 328 a 10 10 0 0 0 10 -10 v -130 a 10 10 0 0 1 10 -10"></path><path d="M 924.75 178 a 10 10 0 0 1 10 10 v 160 a 10 10 0 0 0 10 10"></path><g class="terminal ">
<path d="M 944.75 358 h 0.0"></path><path d="M 1007.25 358 h 0.0"></path><rect height="22" rx="10" ry="10" width="62.5" x="944.75" y="347"></rect><text x="976.0" y="362">"SUS"</text></g><path d="M 1007.25 358 a 10 10 0 0 0 10 -10 v -160 a 10 10 0 0 1 10 -10"></path><path d="M 924.75 178 a 10 10 0 0 1 10 10 v 190 a 10 10 0 0 0 10 10"></path><g class="terminal ">
<path d="M 944.75 388 h 0.0"></path><path d="M 1007.25 388 h 0.0"></path><rect height="22" rx="10" ry="10" width="62.5" x="944.75" y="377"></rect><text x="976.0" y="392">"BEL"</text></g><path d="M 1007.25 388 a 10 10 0 0 0 10 -10 v -190 a 10 10 0 0 1 10 -10"></path><path d="M 924.75 178 a 10 10 0 0 1 10 10 v 220 a 10 10 0 0 0 10 10"></path><g class="terminal ">
<path d="M 944.75 418 h 0.0"></path><path d="M 1007.25 418 h 0.0"></path><rect height="22" rx="10" ry="10" width="62.5" x="944.75" y="407"></rect><text x="976.0" y="422">"1MA"</text></g><path d="M 1007.25 418 a 10 10 0 0 0 10 -10 v -220 a 10 10 0 0 1 10 -10"></path><path d="M 924.75 178 a 10 10 0 0 1 10 10 v 250 a 10 10 0 0 0 10 10"></path><g class="terminal ">
<path d="M 944.75 448 h 0.0"></path><path d="M 1007.25 448 h 0.0"></path><rect height="22" rx="10" ry="10" width="62.5" x="944.75" y="437"></rect><text x="976.0" y="452">"2MA"</text></g><path d="M 1007.25 448 a 10 10 0 0 0 10 -10 v -250 a 10 10 0 0 1 10 -10"></path></g><path d="M 1037.25 178 a 10 10 0 0 1 10 10 v 279 a 10 10 0 0 0 10 10"></path><path d="M 1037.25 59 a 10 10 0 0 1 10 10 v 99 a 10 10 0 0 0 10 10"></path><g>
<path d="M 1057.25 178 h 10.0"></path><path d="M 1169.75 178 h 10.0"></path><path d="M 1067.25 178 a 10 10 0 0 0 10 -10 v -10 a 10 10 0 0 1 10 -10"></path><g class="terminal ">
<path d="M 1087.25 148 h 0.0"></path><path d="M 1149.75 148 h 0.0"></path><rect height="22" rx="10" ry="10" width="62.5" x="1087.25" y="137"></rect><text x="1118.5" y="152">"1ES"</text></g><path d="M 1149.75 148 a 10 10 0 0 1 10 10 v 10 a 10 10 0 0 0 10 10"></path><path d="M 1067.25 178 a 10 10 0 0 0 10 -10 v -40 a 10 10 0 0 1 10 -10"></path><g class="terminal ">
<path d="M 1087.25 118 h 0.0"></path><path d="M 1149.75 118 h 0.0"></path><rect height="22" rx="10" ry="10" width="62.5" x="1087.25" y="107"></rect><text x="1118.5" y="122">"4MA"</text></g><path d="M 1149.75 118 a 10 10 0 0 1 10 10 v 40 a 10 10 0 0 0 10 10"></path><path d="M 1067.25 178 a 10 10 0 0 0 10 -10 v -70 a 10 10 0 0 1 10 -10"></path><g class="terminal ">
<path d="M 1087.25 88 h 0.0"></path><path d="M 1149.75 88 h 0.0"></path><rect height="22" rx="10" ry="10" width="62.5" x="1087.25" y="77"></rect><text x="1118.5" y="92">"3MA"</text></g><path d="M 1149.75 88 a 10 10 0 0 1 10 10 v 70 a 10 10 0 0 0 10 10"></path><path d="M 1067.25 178 h 20"></path><g class="terminal ">
<path d="M 1087.25 178 h 0.0"></path><path d="M 1149.75 178 h 0.0"></path><rect height="22" rx="10" ry="10" width="62.5" x="1087.25" y="167"></rect><text x="1118.5" y="182">"2ES"</text></g><path d="M 1149.75 178 h 20"></path><path d="M 1067.25 178 a 10 10 0 0 1 10 10 v 10 a 10 10 0 0 0 10 10"></path><g class="terminal ">
<path d="M 1087.25 208 h 0.0"></path><path d="M 1149.75 208 h 0.0"></path><rect height="22" rx="10" ry="10" width="62.5" x="1087.25" y="197"></rect><text x="1118.5" y="212">"MAN"</text></g><path d="M 1149.75 208 a 10 10 0 0 0 10 -10 v -10 a 10 10 0 0 1 10 -10"></path><path d="M 1067.25 178 a 10 10 0 0 1 10 10 v 40 a 10 10 0 0 0 10 10"></path><g class="terminal ">
<path d="M 1087.25 238 h 0.0"></path><path d="M 1149.75 238 h 0.0"></path><rect height="22" rx="10" ry="10" width="62.5" x="1087.25" y="227"></rect><text x="1118.5" y="242">"PS2"</text></g><path d="M 1149.75 238 a 10 10 0 0 0 10 -10 v -40 a 10 10 0 0 1 10 -10"></path><path d="M 1067.25 178 a 10 10 0 0 1 10 10 v 70 a 10 10 0 0 0 10 10"></path><g class="terminal ">
<path d="M 1087.25 268 h 0.0"></path><path d="M 1149.75 268 h 0.0"></path><rect height="22" rx="10" ry="10" width="62.5" x="1087.25" y="257"></rect><text x="1118.5" y="272">"ODA"</text></g><path d="M 1149.75 268 a 10 10 0 0 0 10 -10 v -70 a 10 10 0 0 1 10 -10"></path><path d="M 1067.25 178 a 10 10 0 0 1 10 10 v 100 a 10 10 0 0 0 10 10"></path><g class="terminal ">
<path d="M 1087.25 298 h 0.0"></path><path d="M 1149.75 298 h 0.0"></path><rect height="22" rx="10" ry="10" width="62.5" x="1087.25" y="287"></rect><text x="1118.5" y="302">"PSS"</text></g><path d="M 1149.75 298 a 10 10 0 0 0 10 -10 v -100 a 10 10 0 0 1 10 -10"></path><path d="M 1067.25 178 a 10 10 0 0 1 10 10 v 130 a 10 10 0 0 0 10 10"></path><g class="terminal ">
<path d="M 1087.25 328 h 0.0"></path><path d="M 1149.75 328 h 0.0"></path><rect height="22" rx="10" ry="10" width="62.5" x="1087.25" y="317"></rect><text x="1118.5" y="332">"EZA"</text></g><path d="M 1149.75 328 a 10 10 0 0 0 10 -10 v -130 a 10 10 0 0 1 10 -10"></path><path d="M 1067.25 178 a 10 10 0 0 1 10 10 v 160 a 10 10 0 0 0 10 10"></path><g class="terminal ">
<path d="M 1087.25 358 h 0.0"></path><path d="M 1149.75 358 h 0.0"></path><rect height="22" rx="10" ry="10" width="62.5" x="1087.25" y="347"></rect><text x="1118.5" y="362">"5EZ"</text></g><path d="M 1149.75 358 a 10 10 0 0 0 10 -10 v -160 a 10 10 0 0 1 10 -10"></path><path d="M 1067.25 178 a 10 10 0 0 1 10 10 v 190 a 10 10 0 0 0 10 10"></path><g class="terminal ">
<path d="M 1087.25 388 h 0.0"></path><path d="M 1149.75 388 h 0.0"></path><rect height="22" rx="10" ry="10" width="62.5" x="1087.25" y="377"></rect><text x="1118.5" y="392">"6EZ"</text></g><path d="M 1149.75 388 a 10 10 0 0 0 10 -10 v -190 a 10 10 0 0 1 10 -10"></path><path d="M 1067.25 178 a 10 10 0 0 1 10 10 v 220 a 10 10 0 0 0 10 10"></path><g class="terminal ">
<path d="M 1087.25 418 h 0.0"></path><path d="M 1149.75 418 h 0.0"></path><rect height="22" rx="10" ry="10" width="62.5" x="1087.25" y="407"></rect><text x="1118.5" y="422">"DAG"</text></g><path d="M 1149.75 418 a 10 10 0 0 0 10 -10 v -220 a 10 10 0 0 1 10 -10"></path><path d="M 1067.25 178 a 10 10 0 0 1 10 10 v 250 a 10 10 0 0 0 10 10"></path><g class="terminal ">
<path d="M 1087.25 448 h 0.0"></path><path d="M 1149.75 448 h 0.0"></path><rect height="22" rx="10" ry="10" width="62.5" x="1087.25" y="437"></rect><text x="1118.5" y="452">"PS3"</text></g><path d="M 1149.75 448 a 10 10 0 0 0 10 -10 v -250 a 10 10 0 0 1 10 -10"></path></g><path d="M 1179.75 178 a 10 10 0 0 1 10 10 v 279 a 10 10 0 0 0 10 10"></path><path d="M 1179.75 59 a 10 10 0 0 1 10 10 v 99 a 10 10 0 0 0 10 10"></path><g>
<path d="M 1199.75 178 h 10.0"></path><path d="M 1329.25 178 h 10.0"></path><path d="M 1209.75 178 a 10 10 0 0 0 10 -10 v -10 a 10 10 0 0 1 10 -10"></path><g class="terminal ">
<path d="M 1229.75 148 h 8.5"></path><path d="M 1300.75 148 h 8.5"></path><rect height="22" rx="10" ry="10" width="62.5" x="1238.25" y="137"></rect><text x="1269.5" y="152">"JUB"</text></g><path d="M 1309.25 148 a 10 10 0 0 1 10 10 v 10 a 10 10 0 0 0 10 10"></path><path d="M 1209.75 178 a 10 10 0 0 0 10 -10 v -40 a 10 10 0 0 1 10 -10"></path><g class="terminal ">
<path d="M 1229.75 118 h 8.5"></path><path d="M 1300.75 118 h 8.5"></path><rect height="22" rx="10" ry="10" width="62.5" x="1238.25" y="107"></rect><text x="1269.5" y="122">"LBA"</text></g><path d="M 1309.25 118 a 10 10 0 0 1 10 10 v 40 a 10 10 0 0 0 10 10"></path><path d="M 1209.75 178 a 10 10 0 0 0 10 -10 v -70 a 10 10 0 0 1 10 -10"></path><g class="terminal ">
<path d="M 1229.75 88 h 8.5"></path><path d="M 1300.75 88 h 8.5"></path><rect height="22" rx="10" ry="10" width="62.5" x="1238.25" y="77"></rect><text x="1269.5" y="92">"2BA"</text></g><path d="M 1309.25 88 a 10 10 0 0 1 10 10 v 70 a 10 10 0 0 0 10 10"></path><path d="M 1209.75 178 h 20"></path><g class="terminal ">
<path d="M 1229.75 178 h 8.5"></path><path d="M 1300.75 178 h 8.5"></path><rect height="22" rx="10" ry="10" width="62.5" x="1238.25" y="167"></rect><text x="1269.5" y="182">"ENO"</text></g><path d="M 1309.25 178 h 20"></path><path d="M 1209.75 178 a 10 10 0 0 1 10 10 v 10 a 10 10 0 0 0 10 10"></path><g class="terminal ">
<path d="M 1229.75 208 h 8.5"></path><path d="M 1300.75 208 h 8.5"></path><rect height="22" rx="10" ry="10" width="62.5" x="1238.25" y="197"></rect><text x="1269.5" y="212">"1MQ"</text></g><path d="M 1309.25 208 a 10 10 0 0 0 10 -10 v -10 a 10 10 0 0 1 10 -10"></path><path d="M 1209.75 178 a 10 10 0 0 1 10 10 v 40 a 10 10 0 0 0 10 10"></path><g class="terminal ">
<path d="M 1229.75 238 h 8.5"></path><path d="M 1300.75 238 h 8.5"></path><rect height="22" rx="10" ry="10" width="62.5" x="1238.25" y="227"></rect><text x="1269.5" y="242">"2MQ"</text></g><path d="M 1309.25 238 a 10 10 0 0 0 10 -10 v -40 a 10 10 0 0 1 10 -10"></path><path d="M 1209.75 178 a 10 10 0 0 1 10 10 v 70 a 10 10 0 0 0 10 10"></path><g class="terminal ">
<path d="M 1229.75 268 h 8.5"></path><path d="M 1300.75 268 h 8.5"></path><rect height="22" rx="10" ry="10" width="62.5" x="1238.25" y="257"></rect><text x="1269.5" y="272">"3MQ"</text></g><path d="M 1309.25 268 a 10 10 0 0 0 10 -10 v -70 a 10 10 0 0 1 10 -10"></path><path d="M 1209.75 178 a 10 10 0 0 1 10 10 v 100 a 10 10 0 0 0 10 10"></path><g class="terminal ">
<path d="M 1229.75 298 h 8.5"></path><path d="M 1300.75 298 h 8.5"></path><rect height="22" rx="10" ry="10" width="62.5" x="1238.25" y="287"></rect><text x="1269.5" y="302">"REP"</text></g><path d="M 1309.25 298 a 10 10 0 0 0 10 -10 v -100 a 10 10 0 0 1 10 -10"></path><path d="M 1209.75 178 a 10 10 0 0 1 10 10 v 130 a 10 10 0 0 0 10 10"></path><g class="terminal ">
<path d="M 1229.75 328 h 8.5"></path><path d="M 1300.75 328 h 8.5"></path><rect height="22" rx="10" ry="10" width="62.5" x="1238.25" y="317"></rect><text x="1269.5" y="332">"4BA"</text></g><path d="M 1309.25 328 a 10 10 0 0 0 10 -10 v -130 a 10 10 0 0 1 10 -10"></path><path d="M 1209.75 178 a 10 10 0 0 1 10 10 v 160 a 10 10 0 0 0 10 10"></path><g class="terminal ">
<path d="M 1229.75 358 h 8.5"></path><path d="M 1300.75 358 h 8.5"></path><rect height="22" rx="10" ry="10" width="62.5" x="1238.25" y="347"></rect><text x="1269.5" y="362">"LAO"</text></g><path d="M 1309.25 358 a 10 10 0 0 0 10 -10 v -160 a 10 10 0 0 1 10 -10"></path><path d="M 1209.75 178 a 10 10 0 0 1 10 10 v 190 a 10 10 0 0 0 10 10"></path><g class="terminal ">
<path d="M 1229.75 388 h 0.0"></path><path d="M 1309.25 388 h 0.0"></path><rect height="22" rx="10" ry="10" width="79.5" x="1229.75" y="377"></rect><text x="1269.5" y="392">/\S{3}/</text></g><path d="M 1309.25 388 a 10 10 0 0 0 10 -10 v -190 a 10 10 0 0 1 10 -10"></path></g><path d="M 1339.25 178 h 10"></path></g><path d="M 1481.5 178 a 10 10 0 0 1 10 10 v 287 a 10 10 0 0 1 -10 10 h -1421.5 a 10 10 0 0 0 -10 10 v 0 a 10 10 0 0 0 10 10"></path><g>
<path d="M 60.0 505 h 606.75"></path><path d="M 874.75 505 h 606.75"></path><g>
<path d="M 666.75 505 h 0.0"></path><path d="M 817.75 505 h 0.0"></path><path d="M 666.75 505 h 20"></path><g>
<path d="M 686.75 505 h 111.0"></path></g><path d="M 797.75 505 h 20"></path><path d="M 666.75 505 a 10 10 0 0 1 10 10 v 0 a 10 10 0 0 0 10 10"></path><g>
<path d="M 686.75 525 h 0.0"></path><path d="M 797.75 525 h 0.0"></path><g class="terminal ">
<path d="M 686.75 525 h 0.0"></path><path d="M 723.75 525 h 0.0"></path><rect height="22" rx="10" ry="10" width="37.0" x="686.75" y="514"></rect><text x="705.25" y="529">WS</text></g><path d="M 723.75 525 h 10"></path><path d="M 733.75 525 h 10"></path><g class="terminal ">
<path d="M 743.75 525 h 0.0"></path><path d="M 797.75 525 h 0.0"></path><rect height="22" rx="10" ry="10" width="54.0" x="743.75" y="514"></rect><text x="770.75" y="529">TEXT</text></g></g><path d="M 797.75 525 a 10 10 0 0 0 10 -10 v 0 a 10 10 0 0 1 10 -10"></path></g><path d="M 817.75 505 h 10"></path><path d="M 827.75 505 h 10"></path><g class="terminal ">
<path d="M 837.75 505 h 0.0"></path><path d="M 874.75 505 h 0.0"></path><rect height="22" rx="10" ry="10" width="37.0" x="837.75" y="494"></rect><text x="856.25" y="509">NL</text></g></g><path d="M 1481.5 505 a 10 10 0 0 1 10 10 v 29 a 10 10 0 0 1 -10 10 h -1421.5 a 10 10 0 0 0 -10 10 v 18 a 10 10 0 0 0 10 10"></path><g>
<path d="M 60.0 592 h 10.0"></path><path d="M 1471.5 592 h 10.0"></path><g>
<path d="M 70.0 592 h 0.0"></path><path d="M 243.5 592 h 0.0"></path><path d="M 70.0 592 a 10 10 0 0 0 10 -10 v 0 a 10 10 0 0 1 10 -10"></path><g>
<path d="M 90.0 572 h 133.5"></path></g><path d="M 223.5 572 a 10 10 0 0 1 10 10 v 0 a 10 10 0 0 0 10 10"></path><path d="M 70.0 592 h 20"></path><g>
<path d="M 90.0 592 h 0.0"></path><path d="M 223.5 592 h 0.0"></path><path d="M 90.0 592 h 10"></path><g class="non-terminal ">
<path d="M 100.0 592 h 0.0"></path><path d="M 213.5 592 h 0.0"></path><rect height="22" width="113.5" x="100.0" y="581"></rect><text x="156.75" y="596">BookHeaders</text></g><path d="M 213.5 592 h 10"></path><path d="M 100.0 592 a 10 10 0 0 0 -10 10 v 0 a 10 10 0 0 0 10 10"></path><g>
<path d="M 100.0 612 h 113.5"></path></g><path d="M 213.5 612 a 10 10 0 0 0 10 -10 v 0 a 10 10 0 0 0 -10 -10"></path></g><path d="M 223.5 592 h 20"></path></g><path d="M 243.5 592 h 10"></path><path d="M 253.5 592 h 10"></path><g>
<path d="M 263.5 592 h 0.0"></path><path d="M 388.5 592 h 0.0"></path><path d="M 263.5 592 h 10"></path><g class="non-terminal ">
<path d="M 273.5 592 h 0.0"></path><path d="M 378.5 592 h 0.0"></path><rect height="22" width="105.0" x="273.5" y="581"></rect><text x="326.0" y="596">BookTitles</text></g><path d="M 378.5 592 h 10"></path><path d="M 273.5 592 a 10 10 0 0 0 -10 10 v 0 a 10 10 0 0 0 10 10"></path><g>
<path d="M 273.5 612 h 105.0"></path></g><path d="M 378.5 612 a 10 10 0 0 0 10 -10 v 0 a 10 10 0 0 0 -10 -10"></path></g><path d="M 388.5 592 h 10"></path><path d="M 398.5 592 h 10"></path><g>
<path d="M 408.5 592 h 0.0"></path><path d="M 624.5 592 h 0.0"></path><path d="M 408.5 592 a 10 10 0 0 0 10 -10 v 0 a 10 10 0 0 1 10 -10"></path><g>
<path d="M 428.5 572 h 176.0"></path></g><path d="M 604.5 572 a 10 10 0 0 1 10 10 v 0 a 10 10 0 0 0 10 10"></path><path d="M 408.5 592 h 20"></path><g>
<path d="M 428.5 592 h 0.0"></path><path d="M 604.5 592 h 0.0"></path><path d="M 428.5 592 h 10"></path><g class="non-terminal ">
<path d="M 438.5 592 h 0.0"></path><path d="M 594.5 592 h 0.0"></path><rect height="22" width="156.0" x="438.5" y="581"></rect><text x="516.5" y="596">BookIntroduction</text></g><path d="M 594.5 592 h 10"></path><path d="M 438.5 592 a 10 10 0 0 0 -10 10 v 0 a 10 10 0 0 0 10 10"></path><g>
<path d="M 438.5 612 h 156.0"></path></g><path d="M 594.5 612 a 10 10 0 0 0 10 -10 v 0 a 10 10 0 0 0 -10 -10"></path></g><path d="M 604.5 592 h 20"></path></g><path d="M 624.5 592 h 10"></path><path d="M 634.5 592 h 10"></path><g>
<path d="M 644.5 592 h 0.0"></path><path d="M 937.0 592 h 0.0"></path><path d="M 644.5 592 a 10 10 0 0 0 10 -10 v 0 a 10 10 0 0 1 10 -10"></path><g>
<path d="M 664.5 572 h 252.5"></path></g><path d="M 917.0 572 a 10 10 0 0 1 10 10 v 0 a 10 10 0 0 0 10 10"></path><path d="M 644.5 592 h 20"></path><g>
<path d="M 664.5 592 h 0.0"></path><path d="M 917.0 592 h 0.0"></path><path d="M 664.5 592 h 10"></path><g class="non-terminal ">
<path d="M 674.5 592 h 0.0"></path><path d="M 907.0 592 h 0.0"></path><rect height="22" width="232.5" x="674.5" y="581"></rect><text x="790.75" y="596">BookIntroductionEndTitles</text></g><path d="M 907.0 592 h 10"></path><path d="M 674.5 592 a 10 10 0 0 0 -10 10 v 0 a 10 10 0 0 0 10 10"></path><g>
<path d="M 674.5 612 h 232.5"></path></g><path d="M 907.0 612 a 10 10 0 0 0 10 -10 v 0 a 10 10 0 0 0 -10 -10"></path></g><path d="M 917.0 592 h 20"></path></g><path d="M 937.0 592 h 10"></path><path d="M 947.0 592 h 10"></path><g>
<path d="M 957.0 592 h 0.0"></path><path d="M 1153.0 592 h 0.0"></path><path d="M 957.0 592 h 20"></path><g>
<path d="M 977.0 592 h 156.0"></path></g><path d="M 1133.0 592 h 20"></path><path d="M 957.0 592 a 10 10 0 0 1 10 10 v 0 a 10 10 0 0 0 10 10"></path><g class="non-terminal ">
<path d="M 977.0 612 h 0.0"></path><path d="M 1133.0 612 h 0.0"></path><rect height="22" width="156.0" x="977.0" y="601"></rect><text x="1055.0" y="616">BookChapterLabel</text></g><path d="M 1133.0 612 a 10 10 0 0 0 10 -10 v 0 a 10 10 0 0 1 10 -10"></path></g><path d="M 1153.0 592 h 10"></path><path d="M 1163.0 592 h 10"></path><g class="non-terminal ">
<path d="M 1173.0 592 h 0.0"></path><path d="M 1252.5 592 h 0.0"></path><rect height="22" width="79.5" x="1173.0" y="581"></rect><text x="1212.75" y="596">Chapter</text></g><path d="M 1252.5 592 h 10"></path><path d="M 1262.5 592 h 10"></path><g>
<path d="M 1272.5 592 h 0.0"></path><path d="M 1471.5 592 h 0.0"></path><path d="M 1272.5 592 h 10"></path><g>
<path d="M 1282.5 592 h 0.0"></path><path d="M 1461.5 592 h 0.0"></path><path d="M 1282.5 592 h 20"></path><g class="non-terminal ">
<path d="M 1302.5 592 h 29.75"></path><path d="M 1411.75 592 h 29.75"></path><rect height="22" width="79.5" x="1332.25" y="581"></rect><text x="1372.0" y="596">Chapter</text></g><path d="M 1441.5 592 h 20"></path><path d="M 1282.5 592 a 10 10 0 0 1 10 10 v 10 a 10 10 0 0 0 10 10"></path><g class="non-terminal ">
<path d="M 1302.5 622 h 42.5"></path><path d="M 1399.0 622 h 42.5"></path><rect height="22" width="54.0" x="1345.0" y="611"></rect><text x="1372.0" y="626">Para</text></g><path d="M 1441.5 622 a 10 10 0 0 0 10 -10 v -10 a 10 10 0 0 1 10 -10"></path><path d="M 1282.5 592 a 10 10 0 0 1 10 10 v 40 a 10 10 0 0 0 10 10"></path><g class="non-terminal ">
<path d="M 1302.5 652 h 42.5"></path><path d="M 1399.0 652 h 42.5"></path><rect height="22" width="54.0" x="1345.0" y="641"></rect><text x="1372.0" y="656">List</text></g><path d="M 1441.5 652 a 10 10 0 0 0 10 -10 v -40 a 10 10 0 0 1 10 -10"></path><path d="M 1282.5 592 a 10 10 0 0 1 10 10 v 70 a 10 10 0 0 0 10 10"></path><g class="non-terminal ">
<path d="M 1302.5 682 h 38.25"></path><path d="M 1403.25 682 h 38.25"></path><rect height="22" width="62.5" x="1340.75" y="671"></rect><text x="1372.0" y="686">Table</text></g><path d="M 1441.5 682 a 10 10 0 0 0 10 -10 v -70 a 10 10 0 0 1 10 -10"></path><path d="M 1282.5 592 a 10 10 0 0 1 10 10 v 100 a 10 10 0 0 0 10 10"></path><g class="non-terminal ">
<path d="M 1302.5 712 h 25.5"></path><path d="M 1416.0 712 h 25.5"></path><rect height="22" width="88.0" x="1328.0" y="701"></rect><text x="1372.0" y="716">Footnote</text></g><path d="M 1441.5 712 a 10 10 0 0 0 10 -10 v -100 a 10 10 0 0 1 10 -10"></path><path d="M 1282.5 592 a 10 10 0 0 1 10 10 v 130 a 10 10 0 0 0 10 10"></path><g class="non-terminal ">
<path d="M 1302.5 742 h 0.0"></path><path d="M 1441.5 742 h 0.0"></path><rect height="22" width="139.0" x="1302.5" y="731"></rect><text x="1372.0" y="746">CrossReference</text></g><path d="M 1441.5 742 a 10 10 0 0 0 10 -10 v -130 a 10 10 0 0 1 10 -10"></path><path d="M 1282.5 592 a 10 10 0 0 1 10 10 v 160 a 10 10 0 0 0 10 10"></path><g class="non-terminal ">
<path d="M 1302.5 772 h 29.75"></path><path d="M 1411.75 772 h 29.75"></path><rect height="22" width="79.5" x="1332.25" y="761"></rect><text x="1372.0" y="776">Sidebar</text></g><path d="M 1441.5 772 a 10 10 0 0 0 10 -10 v -160 a 10 10 0 0 1 10 -10"></path></g><path d="M 1461.5 592 h 10"></path><path d="M 1282.5 592 a 10 10 0 0 0 -10 10 v 189 a 10 10 0 0 0 10 10"></path><g>
<path d="M 1282.5 801 h 179.0"></path></g><path d="M 1461.5 801 a 10 10 0 0 0 10 -10 v -189 a 10 10 0 0 0 -10 -10"></path></g></g><path d="M 1481.5 592 h 10"></path><path d="M 1491.5 592 h 0.0"></path></g></g><path d="M 1491.5 592 h 10"></path><path d="M 1501.5 592 h 20 m 0 -10 v 20"></path></g></svg>