<svg class="railroad-diagram" height="558" viewBox="0 0 1514.5 558" width="1514.5" xmlns="http://www.w3.org/2000/svg" xmlns:xlink="http://www.w3.org/1999/xlink">
<g transform="translate(.5 .5)">
<style>/* <![CDATA[ */
    svg.railroad-diagram {
        background-color:hsl(30,20%,95%);
    }
    svg.railroad-diagram path {
        stroke-width: 2;
        stroke: black;
        fill: none;
    }
    svg.railroad-diagram text {
        font-size: 12px;
        text-anchor: middle;
        font-family: DejaVu Sans;
    }
    svg.railroad-diagram text.label {
        text-anchor:start;
    }
    svg.railroad-diagram text.comment {
        font-family: DejaVu Sans;
        font-size: 14px;
    }
    svg.railroad-diagram rect{
        stroke-width: 2;
        stroke:black;
        fill: rgb(210, 255, 210);
    }
    svg.railroad-diagram rect.group-box {
        stroke: gray;
        stroke-dasharray: 10 5;
        fill: none;
    }
    .terminal {
        font-family: DejaVu Sans;
    }

/* ]]> */
</style><g>
<path d="M 20 167 v 20 m 0 -10 h 20"></path></g><path d="M 40 177 h 10"></path><g>
<path d="M 50 177 h 0.0"></path><path d="M 1464.5 510 h 0.0"></path><rect class="group-box" height="502" rx="10" ry="10" width="1414.5" x="50.0" y="36"></rect><g>
<path d="M 50.0 177 h 10.0"></path><path d="M 60.0 177 h 10"></path><g>
<path d="M 70.0 177 h 10.0"></path><path d="M 1434.5 177 h 10.0"></path><rect class="group-box" height="414" rx="10" ry="10" width="1354.5" x="80.0" y="60"></rect><g>
<path d="M 80.0 177 h 10.0"></path><path d="M 1424.5 177 h 10.0"></path><g>
<path d="M 90.0 177 h 0.0"></path><path d="M 209.5 177 h 0.0"></path><g class="terminal ">
<path d="M 90.0 177 h 0.0"></path><path d="M 152.5 177 h 0.0"></path><rect height="22" rx="10" ry="10" width="62.5" x="90.0" y="166"></rect><text x="121.25" y="181">"\id"</text></g><path d="M 152.5 177 h 10"></path><path d="M 162.5 177 h 10"></path><g class="terminal ">
<path d="M 172.5 177 h 0.0"></path><path d="M 209.5 177 h 0.0"></path><rect height="22" rx="10" ry="10" width="37.0" x="172.5" y="166"></rect><text x="191.0" y="181">WS</text></g></g><path d="M 209.5 177 h 10"></path><path d="M 219.5 177 h 10"></path><g>
<path d="M 229.5 177 h 0.0"></path><path d="M 1273.5 177 h 0.0"></path><g>
<path d="M 229.5 177 h 0.0"></path><path d="M 1226.5 177 h 0.0"></path><path d="M 229.5 177 a 10 10 0 0 0 10 -10 v -89 a 10 10 0 0 1 10 -10 h 827.5"></path><path d="M 362.0 466 h 844.5 a 10 10 0 0 0 10 -10 v -269 a 10 10 0 0 1 10 -10"></path><path d="M 229.5 177 h 10"></path><g>
<path d="M 239.5 177 h 0.0"></path><path d="M 342.0 177 h 0.0"></path><path d="M 239.5 177 a 10 10 0 0 0 10 -10 v -10 a 10 10 0 0 1 10 -10"></path><g class="terminal ">
<path d="M 259.5 147 h 0.0"></path><path d="M 322.0 147 h 0.0"></path><rect height="22" rx="10" ry="10" width="62.5" x="259.5" y="136"></rect><text x="290.75" y="151">"LEV"</text></g><path d="M 322.0 147 a 10 10 0 0 1 10 10 v 10 a 10 10 0 0 0 10 10"></path><path d="M 239.5 177 a 10 10 0 0 0 10 -10 v -40 a 10 10 0 0 1 10 -10"></path><g class="terminal ">
<path d="M 259.5 117 h 0.0"></path><path d="M 322.0 117 h 0.0"></path><rect height="22" rx="10" ry="10" width="62.5" x="259.5" y="106"></rect><text x="290.75" y="121">"EXO"</text></g><path d="M 322.0 117 a 10 10 0 0 1 10 10 v 40 a 10 10 0 0 0 10 10"></path><path d="M 239.5 177 a 10 10 0 0 0 10 -10 v -70 a 10 10 0 0 1 10 -10"></path><g class="terminal ">
<path d="M 259.5 87 h 0.0"></path><path d="M 322.0 87 h 0.0"></path><rect height="22" rx="10" ry="10" width="62.5" x="259.5" y="76"></rect><text x="290.75" y="91">"GEN"</text></g><path d="M 322.0 87 a 10 10 0 0 1 10 10 v 70 a 10 10 0 0 0 10 10"></path><path d="M 239.5 177 h 20"></path><g class="terminal ">
<path d="M 259.5 177 h 0.0"></path><path d="M 322.0 177 h 0.0"></path><rect height="22" rx="10" ry="10" width="62.5" x="259.5" y="166"></rect><text x="290.75" y="181">"NUM"</text></g><path d="M 322.0 177 h 20"></path><path d="M 239.5 177 a 10 10 0 0 1 10 10 v 10 a 10 10 0 0 0 10 10"></path><g class="terminal ">
<path d="M 259.5 207 h 0.0"></path><path d="M 322.0 207 h 0.0"></path><rect height="22" rx="10" ry="10" width="62.5" x="259.5" y="196"></rect><text x="290.75" y="211">"DEU"</text></g><path d="M 322.0 207 a 10 10 0 0 0 10 -10 v -10 a 10 10 0 0 1 10 -10"></path><path d="M 239.5 177 a 10 10 0 0 1 10 10 v 40 a 10 10 0 0 0 10 10"></path><g class="terminal ">
<path d="M 259.5 237 h 0.0"></path><path d="M 322.0 237 h 0.0"></path><rect height="22" rx="10" ry="10" width="62.5" x="259.5" y="226"></rect><text x="290.75" y="241">"JOS"</text></g><path d="M 322.0 237 a 10 10 0 0 0 10 -10 v -40 a 10 10 0 0 1 10 -10"></path><path d="M 239.5 177 a 10 10 0 0 1 10 10 v 70 a 10 10 0 0 0 10 10"></path><g class="terminal ">
<path d="M 259.5 267 h 0.0"></path><path d="M 322.0 267 h 0.0"></path><rect height="22" rx="10" ry="10" width="62.5" x="259.5" y="256"></rect><text x="290.75" y="271">"JDG"</text></g><path d="M 322.0 267 a 10 10 0 0 0 10 -10 v -70 a 10 10 0 0 1 10 -10"></path><path d="M 239.5 177 a 10 10 0 0 1 10 10 v 100 a 10 10 0 0 0 10 10"></path><g class="terminal ">
<path d="M 259.5 297 h 0.0"></path><path d="M 322.0 297 h 0.0"></path><rect height="22" rx="10" ry="10" width="62.5" x="259.5" y="286"></rect><text x="290.75" y="301">"RUT"</text></g><path d="M 322.0 297 a 10 10 0 0 0 10 -10 v -100 a 10 10 0 0 1 10 -10"></path><path d="M 239.5 177 a 10 10 0 0 1 10 10 v 130 a 10 10 0 0 0 10 10"></path><g class="terminal ">
<path d="M 259.5 327 h 0.0"></path><path d="M 322.0 327 h 0.0"></path><rect height="22" rx="10" ry="10" width="62.5" x="259.5" y="316"></rect><text x="290.75" y="331">"1SA"</text></g><path d="M 322.0 327 a 10 10 0 0 0 10 -10 v -130 a 10 10 0 0 1 10 -10"></path><path d="M 239.5 177 a 10 10 0 0 1 10 10 v 160 a 10 10 0 0 0 10 10"></path><g class="terminal ">
<path d="M 259.5 357 h 0.0"></path><path d="M 322.0 357 h 0.0"></path><rect height="22" rx="10" ry="10" width="62.5" x="259.5" y="346"></rect><text x="290.75" y="361">"2SA"</text></g><path d="M 322.0 357 a 10 10 0 0 0 10 -10 v -160 a 10 10 0 0 1 10 -10"></path><path d="M 239.5 177 a 10 10 0 0 1 10 10 v 190 a 10 10 0 0 0 10 10"></path><g class="terminal ">
<path d="M 259.5 387 h 0.0"></path><path d="M 322.0 387 h 0.0"></path><rect height="22" rx="10" ry="10" width="62.5" x="259.5" y="376"></rect><text x="290.75" y="391">"1KI"</text></g><path d="M 322.0 387 a 10 10 0 0 0 10 -10 v -190 a 10 10 0 0 1 10 -10"></path><path d="M 239.5 177 a 10 10 0 0 1 10 10 v 220 a 10 10 0 0 0 10 10"></path><g class="terminal ">
<path d="M 259.5 417 h 0.0"></path><path d="M 322.0 417 h 0.0"></path><rect height="22" rx="10" ry="10" width="62.5" x="259.5" y="406"></rect><text x="290.75" y="421">"2KI"</text></g><path d="M 322.0 417 a 10 10 0 0 0 10 -10 v -220 a 10 10 0 0 1 10 -10"></path><path d="M 239.5 177 a 10 10 0 0 1 10 10 v 250 a 10 10 0 0 0 10 10"></path><g class="terminal ">
<path d="M 259.5 447 h 0.0"></path><path d="M 322.0 447 h 0.0"></path><rect height="22" rx="10" ry="10" width="62.5" x="259.5" y="436"></rect><text x="290.75" y="451">"1CH"</text></g><path d="M 322.0 447 a 10 10 0 0 0 10 -10 v -250 a 10 10 0 0 1 10 -10"></path></g><path d="M 342.0 177 a 10 10 0 0 1 10 10 v 269 a 10 10 0 0 0 10 10"></path><path d="M 342.0 68 a 10 10 0 0 1 10 10 v 89 a 10 10 0 0 0 10 10"></path><g>
<path d="M 362.0 177 h 0.0"></path><path d="M 464.5 177 h 0.0"></path><path d="M 362.0 177 a 10 10 0 0 0 10 -10 v -10 a 10 10 0 0 1 10 -10"></path><g class="terminal ">
<path d="M 382.0 147 h 0.0"></path><path d="M 444.5 147 h 0.0"></path><rect height="22" rx="10" ry="10" width="62.5" x="382.0" y="136"></rect><text x="413.25" y="151">"NEH"</text></g><path d="M 444.5 147 a 10 10 0 0 1 10 10 v 10 a 10 10 0 0 0 10 10"></path><path d="M 362.0 177 a 10 10 0 0 0 10 -10 v -40 a 10 10 0 0 1 10 -10"></path><g class="terminal ">
<path d="M 382.0 117 h 0.0"></path><path d="M 444.5 117 h 0.0"></path><rect height="22" rx="10" ry="10" width="62.5" x="382.0" y="106"></rect><text x="413.25" y="121">"EZR"</text></g><path d="M 444.5 117 a 10 10 0 0 1 10 10 v 40 a 10 10 0 0 0 10 10"></path><path d="M 362.0 177 a 10 10 0 0 0 10 -10 v -70 a 10 10 0 0 1 10 -10"></path><g class="terminal ">
<path d="M 382.0 87 h 0.0"></path><path d="M 444.5 87 h 0.0"></path><rect height="22" rx="10" ry="10" width="62.5" x="382.0" y="76"></rect><text x="413.25" y="91">"2CH"</text></g><path d="M 444.5 87 a 10 10 0 0 1 10 10 v 70 a 10 10 0 0 0 10 10"></path><path d="M 362.0 177 h 20"></path><g class="terminal ">
<path d="M 382.0 177 h 0.0"></path><path d="M 444.5 177 h 0.0"></path><rect height="22" rx="10" ry="10" width="62.5" x="382.0" y="166"></rect><text x="413.25" y="181">"EST"</text></g><path d="M 444.5 177 h 20"></path><path d="M 362.0 177 a 10 10 0 0 1 10 10 v 10 a 10 10 0 0 0 10 10"></path><g class="terminal ">
<path d="M 382.0 207 h 0.0"></path><path d="M 444.5 207 h 0.0"></path><rect height="22" rx="10" ry="10" width="62.5" x="382.0" y="196"></rect><text x="413.25" y="211">"JOB"</text></g><path d="M 444.5 207 a 10 10 0 0 0 10 -10 v -10 a 10 10 0 0 1 10 -10"></path><path d="M 362.0 177 a 10 10 0 0 1 10 10 v 40 a 10 10 0 0 0 10 10"></path><g class="terminal ">
<path d="M 382.0 237 h 0.0"></path><path d="M 444.5 237 h 0.0"></path><rect height="22" rx="10" ry="10" width="62.5" x="382.0" y="226"></rect><text x="413.25" y="241">"PSA"</text></g><path d="M 444.5 237 a 10 10 0 0 0 10 -10 v -40 a 10 10 0 0 1 10 -10"></path><path d="M 362.0 177 a 10 10 0 0 1 10 10 v 70 a 10 10 0 0 0 10 10"></path><g class="terminal ">
<path d="M 382.0 267 h 0.0"></path><path d="M 444.5 267 h 0.0"></path><rect height="22" rx="10" ry="10" width="62.5" x="382.0" y="256"></rect><text x="413.25" y="271">"PRO"</text></g><path d="M 444.5 267 a 10 10 0 0 0 10 -10 v -70 a 10 10 0 0 1 10 -10"></path><path d="M 362.0 177 a 10 10 0 0 1 10 10 v 100 a 10 10 0 0 0 10 10"></path><g class="terminal ">
<path d="M 382.0 297 h 0.0"></path><path d="M 444.5 297 h 0.0"></path><rect height="22" rx="10" ry="10" width="62.5" x="382.0" y="286"></rect><text x="413.25" y="301">"ECC"</text></g><path d="M 444.5 297 a 10 10 0 0 0 10 -10 v -100 a 10 10 0 0 1 10 -10"></path><path d="M 362.0 177 a 10 10 0 0 1 10 10 v 130 a 10 10 0 0 0 10 10"></path><g class="terminal ">
<path d="M 382.0 327 h 0.0"></path><path d="M 444.5 327 h 0.0"></path><rect height="22" rx="10" ry="10" width="62.5" x="382.0" y="316"></rect><text x="413.25" y="331">"SNG"</text></g><path d="M 444.5 327 a 10 10 0 0 0 10 -10 v -130 a 10 10 0 0 1 10 -10"></path><path d="M 362.0 177 a 10 10 0 0 1 10 10 v 160 a 10 10 0 0 0 10 10"></path><g class="terminal ">
<path d="M 382.0 357 h 0.0"></path><path d="M 444.5 357 h 0.0"></path><rect height="22" rx="10" ry="10" width="62.5" x="382.0" y="346"></rect><text x="413.25" y="361">"ISA"</text></g><path d="M 444.5 357 a 10 10 0 0 0 10 -10 v -160 a 10 10 0 0 1 10 -10"></path><path d="M 362.0 177 a 10 10 0 0 1 10 10 v 190 a 10 10 0 0 0 10 10"></path><g class="terminal ">
<path d="M 382.0 387 h 0.0"></path><path d="M 444.5 387 h 0.0"></path><rect height="22" rx="10" ry="10" width="62.5" x="382.0" y="376"></rect><text x="413.25" y="391">"JER"</text></g><path d="M 444.5 387 a 10 10 0 0 0 10 -10 v -190 a 10 10 0 0 1 10 -10"></path><path d="M 362.0 177 a 10 10 0 0 1 10 10 v 220 a 10 10 0 0 0 10 10"></path><g class="terminal ">
<path d="M 382.0 417 h 0.0"></path><path d="M 444.5 417 h 0.0"></path><rect height="22" rx="10" ry="10" width="62.5" x="382.0" y="406"></rect><text x="413.25" y="421">"LAM"</text></g><path d="M 444.5 417 a 10 10 0 0 0 10 -10 v -220 a 10 10 0 0 1 10 -10"></path><path d="M 362.0 177 a 10 10 0 0 1 10 10 v 250 a 10 10 0 0 0 10 10"></path><g class="terminal ">
<path d="M 382.0 447 h 0.0"></path><path d="M 444.5 447 h 0.0"></path><rect height="22" rx="10" ry="10" width="62.5" x="382.0" y="436"></rect><text x="413.25" y="451">"EZK"</text></g><path d="M 444.5 447 a 10 10 0 0 0 10 -10 v -250 a 10 10 0 0 1 10 -10"></path></g><path d="M 464.5 177 a 10 10 0 0 1 10 10 v 269 a 10 10 0 0 0 10 10"></path><path d="M 464.5 68 a 10 10 0 0 1 10 10 v 89 a 10 10 0 0 0 10 10"></path><g>
<path d="M 484.5 177 h 0.0"></path><path d="M 587.0 177 h 0.0"></path><path d="M 484.5 177 a 10 10 0 0 0 10 -10 v -10 a 10 10 0 0 1 10 -10"></path><g class="terminal ">
<path d="M 504.5 147 h 0.0"></path><path d="M 567.0 147 h 0.0"></path><rect height="22" rx="10" ry="10" width="62.5" x="504.5" y="136"></rect><text x="535.75" y="151">"JOL"</text></g><path d="M 567.0 147 a 10 10 0 0 1 10 10 v 10 a 10 10 0 0 0 10 10"></path><path d="M 484.5 177 a 10 10 0 0 0 10 -10 v -40 a 10 10 0 0 1 10 -10"></path><g class="terminal ">
<path d="M 504.5 117 h 0.0"></path><path d="M 567.0 117 h 0.0"></path><rect height="22" rx="10" ry="10" width="62.5" x="504.5" y="106"></rect><text x="535.75" y="121">"HOS"</text></g><path d="M 567.0 117 a 10 10 0 0 1 10 10 v 40 a 10 10 0 0 0 10 10"></path><path d="M 484.5 177 a 10 10 0 0 0 10 -10 v -70 a 10 10 0 0 1 10 -10"></path><g class="terminal ">
<path d="M 504.5 87 h 0.0"></path><path d="M 567.0 87 h 0.0"></path><rect height="22" rx="10" ry="10" width="62.5" x="504.5" y="76"></rect><text x="535.75" y="91">"DAN"</text></g><path d="M 567.0 87 a 10 10 0 0 1 10 10 v 70 a 10 10 0 0 0 10 10"></path><path d="M 484.5 177 h 20"></path><g class="terminal ">
<path d="M 504.5 177 h 0.0"></path><path d="M 567.0 177 h 0.0"></path><rect height="22" rx="10" ry="10" width="62.5" x="504.5" y="166"></rect><text x="535.75" y="181">"AMO"</text></g><path d="M 567.0 177 h 20"></path><path d="M 484.5 177 a 10 10 0 0 1 10 10 v 10 a 10 10 0 0 0 10 10"></path><g class="terminal ">
<path d="M 504.5 207 h 0.0"></path><path d="M 567.0 207 h 0.0"></path><rect height="22" rx="10" ry="10" width="62.5" x="504.5" y="196"></rect><text x="535.75" y="211">"OBA"</text></g><path d="M 567.0 207 a 10 10 0 0 0 10 -10 v -10 a 10 10 0 0 1 10 -10"></path><path d="M 484.5 177 a 10 10 0 0 1 10 10 v 40 a 10 10 0 0 0 10 10"></path><g class="terminal ">
<path d="M 504.5 237 h 0.0"></path><path d="M 567.0 237 h 0.0"></path><rect height="22" rx="10" ry="10" width="62.5" x="504.5" y="226"></rect><text x="535.75" y="241">"JON"</text></g><path d="M 567.0 237 a 10 10 0 0 0 10 -10 v -40 a 10 10 0 0 1 10 -10"></path><path d="M 484.5 177 a 10 10 0 0 1 10 10 v 70 a 10 10 0 0 0 10 10"></path><g class="terminal ">
<path d="M 504.5 267 h 0.0"></path><path d="M 567.0 267 h 0.0"></path><rect height="22" rx="10" ry="10" width="62.5" x="504.5" y="256"></rect><text x="535.75" y="271">"MIC"</text></g><path d="M 567.0 267 a 10 10 0 0 0 10 -10 v -70 a 10 10 0 0 1 10 -10"></path><path d="M 484.5 177 a 10 10 0 0 1 10 10 v 100 a 10 10 0 0 0 10 10"></path><g class="terminal ">
<path d="M 504.5 297 h 0.0"></path><path d="M 567.0 297 h 0.0"></path><rect height="22" rx="10" ry="10" width="62.5" x="504.5" y="286"></rect><text x="535.75" y="301">"NAM"</text></g><path d="M 567.0 297 a 10 10 0 0 0 10 -10 v -100 a 10 10 0 0 1 10 -10"></path><path d="M 484.5 177 a 10 10 0 0 1 10 10 v 130 a 10 10 0 0 0 10 10"></path><g class="terminal ">
<path d="M 504.5 327 h 0.0"></path><path d="M 567.0 327 h 0.0"></path><rect height="22" rx="10" ry="10" width="62.5" x="504.5" y="316"></rect><text x="535.75" y="331">"HAB"</text></g><path d="M 567.0 327 a 10 10 0 0 0 10 -10 v -130 a 10 10 0 0 1 10 -10"></path><path d="M 484.5 177 a 10 10 0 0 1 10 10 v 160 a 10 10 0 0 0 10 10"></path><g class="terminal ">
<path d="M 504.5 357 h 0.0"></path><path d="M 567.0 357 h 0.0"></path><rect height="22" rx="10" ry="10" width="62.5" x="504.5" y="346"></rect><text x="535.75" y="361">"ZEP"</text></g><path d="M 567.0 357 a 10 10 0 0 0 10 -10 v -160 a 10 10 0 0 1 10 -10"></path><path d="M 484.5 177 a 10 10 0 0 1 10 10 v 190 a 10 10 0 0 0 10 10"></path><g class="terminal ">
<path d="M 504.5 387 h 0.0"></path><path d="M 567.0 387 h 0.0"></path><rect height="22" rx="10" ry="10" width="62.5" x="504.5" y="376"></rect><text x="535.75" y="391">"HAG"</text></g><path d="M 567.0 387 a 10 10 0 0 0 10 -10 v -190 a 10 10 0 0 1 10 -10"></path><path d="M 484.5 177 a 10 10 0 0 1 10 10 v 220 a 10 10 0 0 0 10 10"></path><g class="terminal ">
<path d="M 504.5 417 h 0.0"></path><path d="M 567.0 417 h 0.0"></path><rect height="22" rx="10" ry="10" width="62.5" x="504.5" y="406"></rect><text x="535.75" y="421">"ZEC"</text></g><path d="M 567.0 417 a 10 10 0 0 0 10 -10 v -220 a 10 10 0 0 1 10 -10"></path><path d="M 484.5 177 a 10 10 0 0 1 10 10 v 250 a 10 10 0 0 0 10 10"></path><g class="terminal ">
<path d="M 504.5 447 h 0.0"></path><path d="M 567.0 447 h 0.0"></path><rect height="22" rx="10" ry="10" width="62.5" x="504.5" y="436"></rect><text x="535.75" y="451">"MAL"</text></g><path d="M 567.0 447 a 10 10 0 0 0 10 -10 v -250 a 10 10 0 0 1 10 -10"></path></g><path d="M 587.0 177 a 10 10 0 0 1 10 10 v 269 a 10 10 0 0 0 10 10"></path><path d="M 587.0 68 a 10 10 0 0 1 10 10 v 89 a 10 10 0 0 0 10 10"></path><g>
<path d="M 607.0 177 h 0.0"></path><path d="M 709.5 177 h 0.0"></path><path d="M 607.0 177 a 10 10 0 0 0 10 -10 v -10 a 10 10 0 0 1 10 -10"></path><g class="terminal ">
<path d="M 627.0 147 h 0.0"></path><path d="M 689.5 147 h 0.0"></path><rect height="22" rx="10" ry="10" width="62.5" x="627.0" y="136"></rect><text x="658.25" y="151">"LUK"</text></g><path d="M 689.5 147 a 10 10 0 0 1 10 10 v 10 a 10 10 0 0 0 10 10"></path><path d="M 607.0 177 a 10 10 0 0 0 10 -10 v -40 a 10 10 0 0 1 10 -10"></path><g class="terminal ">
<path d="M 627.0 117 h 0.0"></path><path d="M 689.5 117 h 0.0"></path><rect height="22" rx="10" ry="10" width="62.5" x="627.0" y="106"></rect><text x="658.25" y="121">"MRK"</text></g><path d="M 689.5 117 a 10 10 0 0 1 10 10 v 40 a 10 10 0 0 0 10 10"></path><path d="M 607.0 177 a 10 10 0 0 0 10 -10 v -70 a 10 10 0 0 1 10 -10"></path><g class="terminal ">
<path d="M 627.0 87 h 0.0"></path><path d="M 689.5 87 h 0.0"></path><rect height="22" rx="10" ry="10" width="62.5" x="627.0" y="76"></rect><text x="658.25" y="91">"MAT"</text></g><path d="M 689.5 87 a 10 10 0 0 1 10 10 v 70 a 10 10 0 0 0 10 10"></path><path d="M 607.0 177 h 20"></path><g class="terminal ">
<path d="M 627.0 177 h 0.0"></path><path d="M 689.5 177 h 0.0"></path><rect height="22" rx="10" ry="10" width="62.5" x="627.0" y="166"></rect><text x="658.25" y="181">"JHN"</text></g><path d="M 689.5 177 h 20"></path><path d="M 607.0 177 a 10 10 0 0 1 10 10 v 10 a 10 10 0 0 0 10 10"></path><g class="terminal ">
<path d="M 627.0 207 h 0.0"></path><path d="M 689.5 207 h 0.0"></path><rect height="22" rx="10" ry="10" width="62.5" x="627.0" y="196"></rect><text x="658.25" y="211">"ACT"</text></g><path d="M 689.5 207 a 10 10 0 0 0 10 -10 v -10 a 10 10 0 0 1 10 -10"></path><path d="M 607.0 177 a 10 10 0 0 1 10 10 v 40 a 10 10 0 0 0 10 10"></path><g class="terminal ">
<path d="M 627.0 237 h 0.0"></path><path d="M 689.5 237 h 0.0"></path><rect height="22" rx="10" ry="10" width="62.5" x="627.0" y="226"></rect><text x="658.25" y="241">"ROM"</text></g><path d="M 689.5 237 a 10 10 0 0 0 10 -10 v -40 a 10 10 0 0 1 10 -10"></path><path d="M 607.0 177 a 10 10 0 0 1 10 10 v 70 a 10 10 0 0 0 10 10"></path><g class="terminal ">
<path d="M 627.0 267 h 0.0"></path><path d="M 689.5 267 h 0.0"></path><rect height="22" rx="10" ry="10" width="62.5" x="627.0" y="256"></rect><text x="658.25" y="271">"1CO"</text></g><path d="M 689.5 267 a 10 10 0 0 0 10 -10 v -70 a 10 10 0 0 1 10 -10"></path><path d="M 607.0 177 a 10 10 0 0 1 10 10 v 100 a 10 10 0 0 0 10 10"></path><g class="terminal ">
<path d="M 627.0 297 h 0.0"></path><path d="M 689.5 297 h 0.0"></path><rect height="22" rx="10" ry="10" width="62.5" x="627.0" y="286"></rect><text x="658.25" y="301">"2CO"</text></g><path d="M 689.5 297 a 10 10 0 0 0 10 -10 v -100 a 10 10 0 0 1 10 -10"></path><path d="M 607.0 177 a 10 10 0 0 1 10 10 v 130 a 10 10 0 0 0 10 10"></path><g class="terminal ">
<path d="M 627.0 327 h 0.0"></path><path d="M 689.5 327 h 0.0"></path><rect height="22" rx="10" ry="10" width="62.5" x="627.0" y="316"></rect><text x="658.25" y="331">"GAL"</text></g><path d="M 689.5 327 a 10 10 0 0 0 10 -10 v -130 a 10 10 0 0 1 10 -10"></path><path d="M 607.0 177 a 10 10 0 0 1 10 10 v 160 a 10 10 0 0 0 10 10"></path><g class="terminal ">
<path d="M 627.0 357 h 0.0"></path><path d="M 689.5 357 h 0.0"></path><rect height="22" rx="10" ry="10" width="62.5" x="627.0" y="346"></rect><text x="658.25" y="361">"EPH"</text></g><path d="M 689.5 357 a 10 10 0 0 0 10 -10 v -160 a 10 10 0 0 1 10 -10"></path><path d="M 607.0 177 a 10 10 0 0 1 10 10 v 190 a 10 10 0 0 0 10 10"></path><g class="terminal ">
<path d="M 627.0 387 h 0.0"></path><path d="M 689.5 387 h 0.0"></path><rect height="22" rx="10" ry="10" width="62.5" x="627.0" y="376"></rect><text x="658.25" y="391">"PHP"</text></g><path d="M 689.5 387 a 10 10 0 0 0 10 -10 v -190 a 10 10 0 0 1 10 -10"></path><path d="M 607.0 177 a 10 10 0 0 1 10 10 v 220 a 10 10 0 0 0 10 10"></path><g class="terminal ">
<path d="M 627.0 417 h 0.0"></path><path d="M 689.5 417 h 0.0"></path><rect height="22" rx="10" ry="10" width="62.5" x="627.0" y="406"></rect><text x="658.25" y="421">"COL"</text></g><path d="M 689.5 417 a 10 10 0 0 0 10 -10 v -220 a 10 10 0 0 1 10 -10"></path><path d="M 607.0 177 a 10 10 0 0 1 10 10 v 250 a 10 10 0 0 0 10 10"></path><g class="terminal ">
<path d="M 627.0 447 h 0.0"></path><path d="M 689.5 447 h 0.0"></path><rect height="22" rx="10" ry="10" width="62.5" x="627.0" y="436"></rect><text x="658.25" y="451">"1TH"</text></g><path d="M 689.5 447 a 10 10 0 0 0 10 -10 v -250 a 10 10 0 0 1 10 -10"></path></g><path d="M 709.5 177 a 10 10 0 0 1 10 10 v 269 a 10 10 0 0 0 10 10"></path><path d="M 709.5 68 a 10 10 0 0 1 10 10 v 89 a 10 10 0 0 0 10 10"></path><g>
<path d="M 729.5 177 h 0.0"></path><path d="M 832.0 177 h 0.0"></path><path d="M 729.5 177 a 10 10 0 0 0 10 -10 v -10 a 10 10 0 0 1 10 -10"></path><g class="terminal ">
<path d="M 749.5 147 h 0.0"></path><path d="M 812.0 147 h 0.0"></path><rect height="22" rx="10" ry="10" width="62.5" x="749.5" y="136"></rect><text x="780.75" y="151">"2TI"</text></g><path d="M 812.0 147 a 10 10 0 0 1 10 10 v 10 a 10 10 0 0 0 10 10"></path><path d="M 729.5 177 a 10 10 0 0 0 10 -10 v -40 a 10 10 0 0 1 10 -10"></path><g class="terminal ">
<path d="M 749.5 117 h 0.0"></path><path d="M 812.0 117 h 0.0"></path><rect height="22" rx="10" ry="10" width="62.5" x="749.5" y="106"></rect><text x="780.75" y="121">"1TI"</text></g><path d="M 812.0 117 a 10 10 0 0 1 10 10 v 40 a 10 10 0 0 0 10 10"></path><path d="M 729.5 177 a 10 10 0 0 0 10 -10 v -70 a 10 10 0 0 1 10 -10"></path><g class="terminal ">
<path d="M 749.5 87 h 0.0"></path><path d="M 812.0 87 h 0.0"></path><rect height="22" rx="10" ry="10" width="62.5" x="749.5" y="76"></rect><text x="780.75" y="91">"2TH"</text></g><path d="M 812.0 87 a 10 10 0 0 1 10 10 v 70 a 10 10 0 0 0 10 10"></path><path d="M 729.5 177 h 20"></path><g class="terminal ">
<path d="M 749.5 177 h 0.0"></path><path d="M 812.0 177 h 0.0"></path><rect height="22" rx="10" ry="10" width="62.5" x="749.5" y="166"></rect><text x="780.75" y="181">"TIT"</text></g><path d="M 812.0 177 h 20"></path><path d="M 729.5 177 a 10 10 0 0 1 10 10 v 10 a 10 10 0 0 0 10 10"></path><g class="terminal ">
<path d="M 749.5 207 h 0.0"></path><path d="M 812.0 207 h 0.0"></path><rect height="22" rx="10" ry="10" width="62.5" x="749.5" y="196"></rect><text x="780.75" y="211">"PHM"</text></g><path d="M 812.0 207 a 10 10 0 0 0 10 -10 v -10 a 10 10 0 0 1 10 -10"></path><path d="M 729.5 177 a 10 10 0 0 1 10 10 v 40 a 10 10 0 0 0 10 10"></path><g class="terminal ">
<path d="M 749.5 237 h 0.0"></path><path d="M 812.0 237 h 0.0"></path><rect height="22" rx="10" ry="10" width="62.5" x="749.5" y="226"></rect><text x="780.75" y="241">"HEB"</text></g><path d="M 812.0 237 a 10 10 0 0 0 10 -10 v -40 a 10 10 0 0 1 10 -10"></path><path d="M 729.5 177 a 10 10 0 0 1 10 10 v 70 a 10 10 0 0 0 10 10"></path><g class="terminal ">
<path d="M 749.5 267 h 0.0"></path><path d="M 812.0 267 h 0.0"></path><rect height="22" rx="10" ry="10" width="62.5" x="749.5" y="256"></rect><text x="780.75" y="271">"JAS"</text></g><path d="M 812.0 267 a 10 10 0 0 0 10 -10 v -70 a 10 10 0 0 1 10 -10"></path><path d="M 729.5 177 a 10 10 0 0 1 10 10 v 100 a 10 10 0 0 0 10 10"></path><g class="terminal ">
<path d="M 749.5 297 h 0.0"></path><path d="M 812.0 297 h 0.0"></path><rect height="22" rx="10" ry="10" width="62.5" x="749.5" y="286"></rect><text x="780.75" y="301">"1PE"</text></g><path d="M 812.0 297 a 10 10 0 0 0 10 -10 v -100 a 10 10 0 0 1 10 -10"></path><path d="M 729.5 177 a 10 10 0 0 1 10 10 v 130 a 10 10 0 0 0 10 10"></path><g class="terminal ">
<path d="M 749.5 327 h 0.0"></path><path d="M 812.0 327 h 0.0"></path><rect height="22" rx="10" ry="10" width="62.5" x="749.5" y="316"></rect><text x="780.75" y="331">"2PE"</text></g><path d="M 812.0 327 a 10 10 0 0 0 10 -10 v -130 a 10 10 0 0 1 10 -10"></path><path d="M 729.5 177 a 10 10 0 0 1 10 10 v 160 a 10 10 0 0 0 10 10"></path><g class="terminal ">
<path d="M 749.5 357 h 0.0"></path><path d="M 812.0 357 h 0.0"></path><rect height="22" rx="10" ry="10" width="62.5" x="749.5" y="346"></rect><text x="780.75" y="361">"1JN"</text></g><path d="M 812.0 357 a 10 10 0 0 0 10 -10 v -160 a 10 10 0 0 1 10 -10"></path><path d="M 729.5 177 a 10 10 0 0 1 10 10 v 190 a 10 10 0 0 0 10 10"></path><g class="terminal ">
<path d="M 749.5 387 h 0.0"></path><path d="M 812.0 387 h 0.0"></path><rect height="22" rx="10" ry="10" width="62.5" x="749.5" y="376"></rect><text x="780.75" y="391">"2JN"</text></g><path d="M 812.0 387 a 10 10 0 0 0 10 -10 v -190 a 10 10 0 0 1 10 -10"></path><path d="M 729.5 177 a 10 10 0 0 1 10 10 v 220 a 10 10 0 0 0 10 10"></path><g class="terminal ">
<path d="M 749.5 417 h 0.0"></path><path d="M 812.0 417 h 0.0"></path><rect height="22" rx="10" ry="10" width="62.5" x="749.5" y="406"></rect><text x="780.75" y="421">"3JN"</text></g><path d="M 812.0 417 a 10 10 0 0 0 10 -10 v -220 a 10 10 0 0 1 10 -10"></path><path d="M 729.5 177 a 10 10 0 0 1 10 10 v 250 a 10 10 0 0 0 10 10"></path><g class="terminal ">
<path d="M 749.5 447 h 0.0"></path><path d="M 812.0 447 h 0.0"></path><rect height="22" rx="10" ry="10" width="62.5" x="749.5" y="436"></rect><text x="780.75" y="451">"JUD"</text></g><path d="M 812.0 447 a 10 10 0 0 0 10 -10 v -250 a 10 10 0 0 1 10 -10"></path></g><path d="M 832.0 177 a 10 10 0 0 1 10 10 v 269 a 10 10 0 0 0 10 10"></path><path d="M 832.0 68 a 10 10 0 0 1 10 10 v 89 a 10 10 0 0 0 10 10"></path><g>
<path d="M 852.0 177 h 0.0"></path><path d="M 954.5 177 h 0.0"></path><path d="M 852.0 177 a 10 10 0 0 0 10 -10 v -10 a 10 10 0 0 1 10 -10"></path><g class="terminal ">
<path d="M 872.0 147 h 0.0"></path><path d="M 934.5 147 h 0.0"></path><rect height="22" rx="10" ry="10" width="62.5" x="872.0" y="136"></rect><text x="903.25" y="151">"JDT"</text></g><path d="M 934.5 147 a 10 10 0 0 1 10 10 v 10 a 10 10 0 0 0 10 10"></path><path d="M 852.0 177 a 10 10 0 0 0 10 -10 v -40 a 10 10 0 0 1 10 -10"></path><g class="terminal ">
<path d="M 872.0 117 h 0.0"></path><path d="M 934.5 117 h 0.0"></path><rect height="22" rx="10" ry="10" width="62.5" x="872.0" y="106"></rect><text x="903.25" y="121">"TOB"</text></g><path d="M 934.5 117 a 10 10 0 0 1 10 10 v 40 a 10 10 0 0 0 10 10"></path><path d="M 852.0 177 a 10 10 0 0 0 10 -10 v -70 a 10 10 0 0 1 10 -10"></path><g class="terminal ">
<path d="M 872.0 87 h 0.0"></path><path d="M 934.5 87 h 0.0"></path><rect height="22" rx="10" ry="10" width="62.5" x="872.0" y="76"></rect><text x="903.25" y="91">"REV"</text></g><path d="M 934.5 87 a 10 10 0 0 1 10 10 v 70 a 10 10 0 0 0 10 10"></path><path d="M 852.0 177 h 20"></path><g class="terminal ">
<path d="M 872.0 177 h 0.0"></path><path d="M 934.5 177 h 0.0"></path><rect height="22" rx="10" ry="10" width="62.5" x="872.0" y="166"></rect><text x="903.25" y="181">"ESG"</text></g><path d="M 934.5 177 h 20"></path><path d="M 852.0 177 a 10 10 0 0 1 10 10 v 10 a 10 10 0 0 0 10 10"></path><g class="terminal ">
<path d="M 872.0 207 h 0.0"></path><path d="M 934.5 207 h 0.0"></path><rect height="22" rx="10" ry="10" width="62.5" x="872.0" y="196"></rect><text x="903.25" y="211">"WIS"</text></g><path d="M 934.5 207 a 10 10 0 0 0 10 -10 v -10 a 10 10 0 0 1 10 -10"></path><path d="M 852.0 177 a 10 10 0 0 1 10 10 v 40 a 10 10 0 0 0 10 10"></path><g class="terminal ">
<path d="M 872.0 237 h 0.0"></path><path d="M 934.5 237 h 0.0"></path><rect height="22" rx="10" ry="10" width="62.5" x="872.0" y="226"></rect><text x="903.25" y="241">"SIR"</text></g><path d="M 934.5 237 a 10 10 0 0 0 10 -10 v -40 a 10 10 0 0 1 10 -10"></path><path d="M 852.0 177 a 10 10 0 0 1 10 10 v 70 a 10 10 0 0 0 10 10"></path><g class="terminal ">
<path d="M 872.0 267 h 0.0"></path><path d="M 934.5 267 h 0.0"></path><rect height="22" rx="10" ry="10" width="62.5" x="872.0" y="256"></rect><text x="903.25" y="271">"BAR"</text></g><path d="M 934.5 267 a 10 10 0 0 0 10 -10 v -70 a 10 10 0 0 1 10 -10"></path><path d="M 852.0 177 a 10 10 0 0 1 10 10 v 100 a 10 10 0 0 0 10 10"></path><g class="terminal ">
<path d="M 872.0 297 h 0.0"></path><path d="M 934.5 297 h 0.0"></path><rect height="22" rx="10" ry="10" width="62.5" x="872.0" y="286"></rect><text x="903.25" y="301">"LJE"</text></g><path d="M 934.5 297 a 10 10 0 0 0 10 -10 v -100 a 10 10 0 0 1 10 -10"></path><path d="M 852.0 177 a 10 10 0 0 1 10 10 v 130 a 10 10 0 0 0 10 10"></path><g class="terminal ">
<path d="M 872.0 327 h 0.0"></path><path d="M 934.5 327 h 0.0"></path><rect height="22" rx="10" ry="10" width="62.5" x="872.0" y="316"></rect><text x="903.25" y="331">"S3Y"</text></g><path d="M 934.5 327 a 10 10 0 0 0 10 -10 v -130 a 10 10 0 0 1 10 -10"></path><path d="M 852.0 177 a 10 10 0 0 1 10 10 v 160 a 10 10 0 0 0 10 10"></path><g class="terminal ">
<path d="M 872.0 357 h 0.0"></path><path d="M 934.5 357 h 0.0"></path><rect height="22" rx="10" ry="10" width="62.5" x="872.0" y="346"></rect><text x="903.25" y="361">"SUS"</text></g><path d="M 934.5 357 a 10 10 0 0 0 10 -10 v -160 a 10 10 0 0 1 10 -10"></path><path d="M 852.0 177 a 10 10 0 0 1 10 10 v 190 a 10 10 0 0 0 10 10"></path><g class="terminal ">
<path d="M 872.0 387 h 0.0"></path><path d="M 934.5 387 h 0.0"></path><rect height="22" rx="10" ry="10" width="62.5" x="872.0" y="376"></rect><text x="903.25" y="391">"BEL"</text></g><path d="M 934.5 387 a 10 10 0 0 0 10 -10 v -190 a 10 10 0 0 1 10 -10"></path><path d="M 852.0 177 a 10 10 0 0 1 10 10 v 220 a 10 10 0 0 0 10 10"></path><g class="terminal ">
<path d="M 872.0 417 h 0.0"></path><path d="M 934.5 417 h 0.0"></path><rect height="22" rx="10" ry="10" width="62.5" x="872.0" y="406"></rect><text x="903.25" y="421">"1MA"</text></g><path d="M 934.5 417 a 10 10 0 0 0 10 -10 v -220 a 10 10 0 0 1 10 -10"></path><path d="M 852.0 177 a 10 10 0 0 1 10 10 v 250 a 10 10 0 0 0 10 10"></path><g class="terminal ">
<path d="M 872.0 447 h 0.0"></path><path d="M 934.5 447 h 0.0"></path><rect height="22" rx="10" ry="10" width="62.5" x="872.0" y="436"></rect><text x="903.25" y="451">"2MA"</text></g><path d="M 934.5 447 a 10 10 0 0 0 10 -10 v -250 a 10 10 0 0 1 10 -10"></path></g><path d="M 954.5 177 a 10 10 0 0 1 10 10 v 269 a 10 10 0 0 0 10 10"></path><path d="M 954.5 68 a 10 10 0 0 1 10 10 v 89 a 10 10 0 0 0 10 10"></path><g>
<path d="M 974.5 177 h 0.0"></path><path d="M 1077.0 177 h 0.0"></path><path d="M 974.5 177 a 10 10 0 0 0 10 -10 v -10 a 10 10 0 0 1 10 -10"></path><g class="terminal ">
<path d="M 994.5 147 h 0.0"></path><path d="M 1057.0 147 h 0.0"></path><rect height="22" rx="10" ry="10" width="62.5" x="994.5" y="136"></rect><text x="1025.75" y="151">"1ES"</text></g><path d="M 1057.0 147 a 10 10 0 0 1 10 10 v 10 a 10 10 0 0 0 10 10"></path><path d="M 974.5 177 a 10 10 0 0 0 10 -10 v -40 a 10 10 0 0 1 10 -10"></path><g class="terminal ">
<path d="M 994.5 117 h 0.0"></path><path d="M 1057.0 117 h 0.0"></path><rect height="22" rx="10" ry="10" width="62.5" x="994.5" y="106"></rect><text x="1025.75" y="121">"4MA"</text></g><path d="M 1057.0 117 a 10 10 0 0 1 10 10 v 40 a 10 10 0 0 0 10 10"></path><path d="M 974.5 177 a 10 10 0 0 0 10 -10 v -70 a 10 10 0 0 1 10 -10"></path><g class="terminal ">
<path d="M 994.5 87 h 0.0"></path><path d="M 1057.0 87 h 0.0"></path><rect height="22" rx="10" ry="10" width="62.5" x="994.5" y="76"></rect><text x="1025.75" y="91">"3MA"</text></g><path d="M 1057.0 87 a 10 10 0 0 1 10 10 v 70 a 10 10 0 0 0 10 10"></path><path d="M 974.5 177 h 20"></path><g class="terminal ">
<path d="M 994.5 177 h 0.0"></path><path d="M 1057.0 177 h 0.0"></path><rect height="22" rx="10" ry="10" width="62.5" x="994.5" y="166"></rect><text x="1025.75" y="181">"2ES"</text></g><path d="M 1057.0 177 h 20"></path><path d="M 974.5 177 a 10 10 0 0 1 10 10 v 10 a 10 10 0 0 0 10 10"></path><g class="terminal ">
<path d="M 994.5 207 h 0.0"></path><path d="M 1057.0 207 h 0.0"></path><rect height="22" rx="10" ry="10" width="62.5" x="994.5" y="196"></rect><text x="1025.75" y="211">"MAN"</text></g><path d="M 1057.0 207 a 10 10 0 0 0 10 -10 v -10 a 10 10 0 0 1 10 -10"></path><path d="M 974.5 177 a 10 10 0 0 1 10 10 v 40 a 10 10 0 0 0 10 10"></path><g class="terminal ">
<path d="M 994.5 237 h 0.0"></path><path d="M 1057.0 237 h 0.0"></path><rect height="22" rx="10" ry="10" width="62.5" x="994.5" y="226"></rect><text x="1025.75" y="241">"PS2"</text></g><path d="M 1057.0 237 a 10 10 0 0 0 10 -10 v -40 a 10 10 0 0 1 10 -10"></path><path d="M 974.5 177 a 10 10 0 0 1 10 10 v 70 a 10 10 0 0 0 10 10"></path><g class="terminal ">
<path d="M 994.5 267 h 0.0"></path><path d="M 1057.0 267 h 0.0"></path><rect height="22" rx="10" ry="10" width="62.5" x="994.5" y="256"></rect><text x="1025.75" y="271">"ODA"</text></g><path d="M 1057.0 267 a 10 10 0 0 0 10 -10 v -70 a 10 10 0 0 1 10 -10"></path><path d="M 974.5 177 a 10 10 0 0 1 10 10 v 100 a 10 10 0 0 0 10 10"></path><g class="terminal ">
<path d="M 994.5 297 h 0.0"></path><path d="M 1057.0 297 h 0.0"></path><rect height="22" rx="10" ry="10" width="62.5" x="994.5" y="286"></rect><text x="1025.75" y="301">"PSS"</text></g><path d="M 1057.0 297 a 10 10 0 0 0 10 -10 v -100 a 10 10 0 0 1 10 -10"></path><path d="M 974.5 177 a 10 10 0 0 1 10 10 v 130 a 10 10 0 0 0 10 10"></path><g class="terminal ">
<path d="M 994.5 327 h 0.0"></path><path d="M 1057.0 327 h 0.0"></path><rect height="22" rx="10" ry="10" width="62.5" x="994.5" y="316"></rect><text x="1025.75" y="331">"EZA"</text></g><path d="M 1057.0 327 a 10 10 0 0 0 10 -10 v -130 a 10 10 0 0 1 10 -10"></path><path d="M 974.5 177 a 10 10 0 0 1 10 10 v 160 a 10 10 0 0 0 10 10"></path><g class="terminal ">
<path d="M 994.5 357 h 0.0"></path><path d="M 1057.0 357 h 0.0"></path><rect height="22" rx="10" ry="10" width="62.5" x="994.5" y="346"></rect><text x="1025.75" y="361">"5EZ"</text></g><path d="M 1057.0 357 a 10 10 0 0 0 10 -10 v -160 a 10 10 0 0 1 10 -10"></path><path d="M 974.5 177 a 10 10 0 0 1 10 10 v 190 a 10 10 0 0 0 10 10"></path><g class="terminal ">
<path d="M 994.5 387 h 0.0"></path><path d="M 1057.0 387 h 0.0"></path><rect height="22" rx="10" ry="10" width="62.5" x="994.5" y="376"></rect><text x="1025.75" y="391">"6EZ"</text></g><path d="M 1057.0 387 a 10 10 0 0 0 10 -10 v -190 a 10 10 0 0 1 10 -10"></path><path d="M 974.5 177 a 10 10 0 0 1 10 10 v 220 a 10 10 0 0 0 10 10"></path><g class="terminal ">
<path d="M 994.5 417 h 0.0"></path><path d="M 1057.0 417 h 0.0"></path><rect height="22" rx="10" ry="10" width="62.5" x="994.5" y="406"></rect><text x="1025.75" y="421">"DAG"</text></g><path d="M 1057.0 417 a 10 10 0 0 0 10 -10 v -220 a 10 10 0 0 1 10 -10"></path><path d="M 974.5 177 a 10 10 0 0 1 10 10 v 250 a 10 10 0 0 0 10 10"></path><g class="terminal ">
<path d="M 994.5 447 h 0.0"></path><path d="M 1057.0 447 h 0.0"></path><rect height="22" rx="10" ry="10" width="62.5" x="994.5" y="436"></rect><text x="1025.75" y="451">"PS3"</text></g><path d="M 1057.0 447 a 10 10 0 0 0 10 -10 v -250 a 10 10 0 0 1 10 -10"></path></g><path d="M 1077.0 177 a 10 10 0 0 1 10 10 v 269 a 10 10 0 0 0 10 10"></path><path d="M 1077.0 68 a 10 10 0 0 1 10 10 v 89 a 10 10 0 0 0 10 10"></path><g>
<path d="M 1097.0 177 h 0.0"></path><path d="M 1216.5 177 h 0.0"></path><path d="M 1097.0 177 a 10 10 0 0 0 10 -10 v -10 a 10 10 0 0 1 10 -10"></path><g class="terminal ">
<path d="M 1117.0 147 h 8.5"></path><path d="M 1188.0 147 h 8.5"></path><rect height="22" rx="10" ry="10" width="62.5" x="1125.5" y="136"></rect><text x="1156.75" y="151">"JUB"</text></g><path d="M 1196.5 147 a 10 10 0 0 1 10 10 v 10 a 10 10 0 0 0 10 10"></path><path d="M 1097.0 177 a 10 10 0 0 0 10 -10 v -40 a 10 10 0 0 1 10 -10"></path><g class="terminal ">
<path d="M 1117.0 117 h 8.5"></path><path d="M 1188.0 117 h 8.5"></path><rect height="22" rx="10" ry="10" width="62.5" x="1125.5" y="106"></rect><text x="1156.75" y="121">"LBA"</text></g><path d="M 1196.5 117 a 10 10 0 0 1 10 10 v 40 a 10 10 0 0 0 10 10"></path><path d="M 1097.0 177 a 10 10 0 0 0 10 -10 v -70 a 10 10 0 0 1 10 -10"></path><g class="terminal ">
<path d="M 1117.0 87 h 8.5"></path><path d="M 1188.0 87 h 8.5"></path><rect height="22" rx="10" ry="10" width="62.5" x="1125.5" y="76"></rect><text x="1156.75" y="91">"2BA"</text></g><path d="M 1196.5 87 a 10 10 0 0 1 10 10 v 70 a 10 10 0 0 0 10 10"></path><path d="M 1097.0 177 h 20"></path><g class="terminal ">
<path d="M 1117.0 177 h 8.5"></path><path d="M 1188.0 177 h 8.5"></path><rect height="22" rx="10" ry="10" width="62.5" x="1125.5" y="166"></rect><text x="1156.75" y="181">"ENO"</text></g><path d="M 1196.5 177 h 20"></path><path d="M 1097.0 177 a 10 10 0 0 1 10 10 v 10 a 10 10 0 0 0 10 10"></path><g class="terminal ">
<path d="M 1117.0 207 h 8.5"></path><path d="M 1188.0 207 h 8.5"></path><rect height="22" rx="10" ry="10" width="62.5" x="1125.5" y="196"></rect><text x="1156.75" y="211">"1MQ"</text></g><path d="M 1196.5 207 a 10 10 0 0 0 10 -10 v -10 a 10 10 0 0 1 10 -10"></path><path d="M 1097.0 177 a 10 10 0 0 1 10 10 v 40 a 10 10 0 0 0 10 10"></path><g class="terminal ">
<path d="M 1117.0 237 h 8.5"></path><path d="M 1188.0 237 h 8.5"></path><rect height="22" rx="10" ry="10" width="62.5" x="1125.5" y="226"></rect><text x="1156.75" y="241">"2MQ"</text></g><path d="M 1196.5 237 a 10 10 0 0 0 10 -10 v -40 a 10 10 0 0 1 10 -10"></path><path d="M 1097.0 177 a 10 10 0 0 1 10 10 v 70 a 10 10 0 0 0 10 10"></path><g class="terminal ">
<path d="M 1117.0 267 h 8.5"></path><path d="M 1188.0 267 h 8.5"></path><rect height="22" rx="10" ry="10" width="62.5" x="1125.5" y="256"></rect><text x="1156.75" y="271">"3MQ"</text></g><path d="M 1196.5 267 a 10 10 0 0 0 10 -10 v -70 a 10 10 0 0 1 10 -10"></path><path d="M 1097.0 177 a 10 10 0 0 1 10 10 v 100 a 10 10 0 0 0 10 10"></path><g class="terminal ">
<path d="M 1117.0 297 h 8.5"></path><path d="M 1188.0 297 h 8.5"></path><rect height="22" rx="10" ry="10" width="62.5" x="1125.5" y="286"></rect><text x="1156.75" y="301">"REP"</text></g><path d="M 1196.5 297 a 10 10 0 0 0 10 -10 v -100 a 10 10 0 0 1 10 -10"></path><path d="M 1097.0 177 a 10 10 0 0 1 10 10 v 130 a 10 10 0 0 0 10 10"></path><g class="terminal ">
<path d="M 1117.0 327 h 8.5"></path><path d="M 1188.0 327 h 8.5"></path><rect height="22" rx="10" ry="10" width="62.5" x="1125.5" y="316"></rect><text x="1156.75" y="331">"4BA"</text></g><path d="M 1196.5 327 a 10 10 0 0 0 10 -10 v -130 a 10 10 0 0 1 10 -10"></path><path d="M 1097.0 177 a 10 10 0 0 1 10 10 v 160 a 10 10 0 0 0 10 10"></path><g class="terminal ">
<path d="M 1117.0 357 h 8.5"></path><path d="M 1188.0 357 h 8.5"></path><rect height="22" rx="10" ry="10" width="62.5" x="1125.5" y="346"></rect><text x="1156.75" y="361">"LAO"</text></g><path d="M 1196.5 357 a 10 10 0 0 0 10 -10 v -160 a 10 10 0 0 1 10 -10"></path><path d="M 1097.0 177 a 10 10 0 0 1 10 10 v 190 a 10 10 0 0 0 10 10"></path><g class="terminal ">
<path d="M 1117.0 387 h 0.0"></path><path d="M 1196.5 387 h 0.0"></path><rect height="22" rx="10" ry="10" width="79.5" x="1117.0" y="376"></rect><text x="1156.75" y="391">/\S{3}/</text></g><path d="M 1196.5 387 a 10 10 0 0 0 10 -10 v -190 a 10 10 0 0 1 10 -10"></path></g><path d="M 1216.5 177 h 10"></path></g><path d="M 1226.5 177 h 10"></path><g class="terminal ">
<path d="M 1236.5 177 h 0.0"></path><path d="M 1273.5 177 h 0.0"></path><rect height="22" rx="10" ry="10" width="37.0" x="1236.5" y="166"></rect><text x="1255.0" y="181">WS</text></g></g><path d="M 1273.5 177 h 10"></path><g>
<path d="M 1283.5 177 h 0.0"></path><path d="M 1377.5 177 h 0.0"></path><path d="M 1283.5 177 a 10 10 0 0 0 10 -10 v 0 a 10 10 0 0 1 10 -10"></path><g>
<path d="M 1303.5 157 h 54.0"></path></g><path d="M 1357.5 157 a 10 10 0 0 1 10 10 v 0 a 10 10 0 0 0 10 10"></path><path d="M 1283.5 177 h 20"></path><g class="terminal ">
<path d="M 1303.5 177 h 0.0"></path><path d="M 1357.5 177 h 0.0"></path><rect height="22" rx="10" ry="10" width="54.0" x="1303.5" y="166"></rect><text x="1330.5" y="181">Text</text></g><path d="M 1357.5 177 h 20"></path></g><path d="M 1377.5 177 h 10"></path><g class="terminal ">
<path d="M 1387.5 177 h 0.0"></path><path d="M 1424.5 177 h 0.0"></path><rect height="22" rx="10" ry="10" width="37.0" x="1387.5" y="166"></rect><text x="1406.0" y="181">NL</text></g></g><g class="non-terminal ">
<path d="M 80.0 52 h 0.0"></path><path d="M 216.0 52 h 0.0"></path><text class="comment" x="148.0" y="57">BookIdentification</text></g></g><path d="M 1444.5 177 a 10 10 0 0 1 10 10 v 285 a 10 10 0 0 1 -10 10 h -1374.5 a 10 10 0 0 0 -10 10 v 8 a 10 10 0 0 0 10 10"></path><g>
<path d="M 70.0 510 h 41.5"></path><path d="M 1403.0 510 h 41.5"></path><g>
<path d="M 111.5 510 h 0.0"></path><path d="M 285.0 510 h 0.0"></path><path d="M 111.5 510 a 10 10 0 0 0 10 -10 v 0 a 10 10 0 0 1 10 -10"></path><g>
<path d="M 131.5 490 h 133.5"></path></g><path d="M 265.0 490 a 10 10 0 0 1 10 10 v 0 a 10 10 0 0 0 10 10"></path><path d="M 111.5 510 h 20"></path><g>
<path d="M 131.5 510 h 0.0"></path><path d="M 265.0 510 h 0.0"></path><path d="M 131.5 510 h 10"></path><g class="non-terminal ">
<path d="M 141.5 510 h 0.0"></path><path d="M 255.0 510 h 0.0"></path><rect height="22" width="113.5" x="141.5" y="499"></rect><text x="198.25" y="514">BookHeaders</text></g><path d="M 255.0 510 h 10"></path><path d="M 141.5 510 a 10 10 0 0 0 -10 10 v 0 a 10 10 0 0 0 10 10"></path><g>
<path d="M 141.5 530 h 113.5"></path></g><path d="M 255.0 530 a 10 10 0 0 0 10 -10 v 0 a 10 10 0 0 0 -10 -10"></path></g><path d="M 265.0 510 h 20"></path></g><path d="M 285.0 510 h 10"></path><g>
<path d="M 295.0 510 h 0.0"></path><path d="M 420.0 510 h 0.0"></path><path d="M 295.0 510 h 10"></path><g class="non-terminal ">
<path d="M 305.0 510 h 0.0"></path><path d="M 410.0 510 h 0.0"></path><rect height="22" width="105.0" x="305.0" y="499"></rect><text x="357.5" y="514">BookTitles</text></g><path d="M 410.0 510 h 10"></path><path d="M 305.0 510 a 10 10 0 0 0 -10 10 v 0 a 10 10 0 0 0 10 10"></path><g>
<path d="M 305.0 530 h 105.0"></path></g><path d="M 410.0 530 a 10 10 0 0 0 10 -10 v 0 a 10 10 0 0 0 -10 -10"></path></g><path d="M 420.0 510 h 10"></path><g>
<path d="M 430.0 510 h 0.0"></path><path d="M 646.0 510 h 0.0"></path><path d="M 430.0 510 a 10 10 0 0 0 10 -10 v 0 a 10 10 0 0 1 10 -10"></path><g>
<path d="M 450.0 490 h 176.0"></path></g><path d="M 626.0 490 a 10 10 0 0 1 10 10 v 0 a 10 10 0 0 0 10 10"></path><path d="M 430.0 510 h 20"></path><g>
<path d="M 450.0 510 h 0.0"></path><path d="M 626.0 510 h 0.0"></path><path d="M 450.0 510 h 10"></path><g class="non-terminal ">
<path d="M 460.0 510 h 0.0"></path><path d="M 616.0 510 h 0.0"></path><rect height="22" width="156.0" x="460.0" y="499"></rect><text x="538.0" y="514">BookIntroduction</text></g><path d="M 616.0 510 h 10"></path><path d="M 460.0 510 a 10 10 0 0 0 -10 10 v 0 a 10 10 0 0 0 10 10"></path><g>
<path d="M 460.0 530 h 156.0"></path></g><path d="M 616.0 530 a 10 10 0 0 0 10 -10 v 0 a 10 10 0 0 0 -10 -10"></path></g><path d="M 626.0 510 h 20"></path></g><g>
<path d="M 646.0 510 h 0.0"></path><path d="M 938.5 510 h 0.0"></path><path d="M 646.0 510 a 10 10 0 0 0 10 -10 v 0 a 10 10 0 0 1 10 -10"></path><g>
<path d="M 666.0 490 h 252.5"></path></g><path d="M 918.5 490 a 10 10 0 0 1 10 10 v 0 a 10 10 0 0 0 10 10"></path><path d="M 646.0 510 h 20"></path><g>
<path d="M 666.0 510 h 0.0"></path><path d="M 918.5 510 h 0.0"></path><path d="M 666.0 510 h 10"></path><g class="non-terminal ">
<path d="M 676.0 510 h 0.0"></path><path d="M 908.5 510 h 0.0"></path><rect height="22" width="232.5" x="676.0" y="499"></rect><text x="792.25" y="514">BookIntroductionEndTitles</text></g><path d="M 908.5 510 h 10"></path><path d="M 676.0 510 a 10 10 0 0 0 -10 10 v 0 a 10 10 0 0 0 10 10"></path><g>
<path d="M 676.0 530 h 232.5"></path></g><path d="M 908.5 530 a 10 10 0 0 0 10 -10 v 0 a 10 10 0 0 0 -10 -10"></path></g><path d="M 918.5 510 h 20"></path></g><g>
<path d="M 938.5 510 h 0.0"></path><path d="M 1134.5 510 h 0.0"></path><path d="M 938.5 510 a 10 10 0 0 0 10 -10 v 0 a 10 10 0 0 1 10 -10"></path><g>
<path d="M 958.5 490 h 156.0"></path></g><path d="M 1114.5 490 a 10 10 0 0 1 10 10 v 0 a 10 10 0 0 0 10 10"></path><path d="M 938.5 510 h 20"></path><g class="non-terminal ">
<path d="M 958.5 510 h 0.0"></path><path d="M 1114.5 510 h 0.0"></path><rect height="22" width="156.0" x="958.5" y="499"></rect><text x="1036.5" y="514">BookChapterLabel</text></g><path d="M 1114.5 510 h 20"></path></g><path d="M 1134.5 510 h 10"></path><g class="non-terminal ">
<path d="M 1144.5 510 h 0.0"></path><path d="M 1224.0 510 h 0.0"></path><rect height="22" width="79.5" x="1144.5" y="499"></rect><text x="1184.25" y="514">Chapter</text></g><path d="M 1224.0 510 h 10"></path><path d="M 1234.0 510 h 10"></path><g>
<path d="M 1244.0 510 h 0.0"></path><path d="M 1403.0 510 h 0.0"></path><path d="M 1244.0 510 h 10"></path><g class="non-terminal ">
<path d="M 1254.0 510 h 0.0"></path><path d="M 1393.0 510 h 0.0"></path><rect height="22" width="139.0" x="1254.0" y="499"></rect><text x="1323.5" y="514">ChapterContent</text></g><path d="M 1393.0 510 h 10"></path><path d="M 1254.0 510 a 10 10 0 0 0 -10 10 v 0 a 10 10 0 0 0 10 10"></path><g>
<path d="M 1254.0 530 h 139.0"></path></g><path d="M 1393.0 530 a 10 10 0 0 0 10 -10 v 0 a 10 10 0 0 0 -10 -10"></path></g></g><path d="M 1444.5 510 h 10"></path><path d="M 1454.5 510 h 10.0"></path></g><g class="non-terminal ">
<path d="M 50.0 28 h 0.0"></path><path d="M 123.0 28 h 0.0"></path><text class="comment" x="86.5" y="33">Scripture</text></g></g><path d="M 1464.5 510 h 10"></path><path d="M 1474.5 510 h 20 m 0 -10 v 20"></path></g></svg>