<svg class="railroad-diagram" height="419" viewBox="0 0 2184.0 419" width="2184.0" xmlns="http://www.w3.org/2000/svg" xmlns:xlink="http://www.w3.org/1999/xlink">
<g transform="translate(.5 .5)">
<style>/* <![CDATA[ */
    svg.railroad-diagram {
        background-color:hsl(30,20%,95%);
    }
    svg.railroad-diagram path {
        stroke-width: 2;
        stroke: black;
        fill: none;
    }
    svg.railroad-diagram text {
        font-size: 12px;
        text-anchor: middle;
        font-family: DejaVu Sans;
    }
    svg.railroad-diagram text.label {
        text-anchor:start;
    }
    svg.railroad-diagram text.comment {
        font-family: DejaVu Sans;
        font-size: 14px;
    }
    svg.railroad-diagram rect{
        stroke-width: 2;
        stroke:black;
        fill: rgb(210, 255, 210);
    }
    svg.railroad-diagram rect.group-box {
        stroke: gray;
        stroke-dasharray: 10 5;
        fill: none;
    }
    .terminal {
        font-family: DejaVu Sans;
    }

/* ]]> */
</style><g>
<path d="M 20 167 v 20 m 0 -10 h 20"></path></g><path d="M 40 177 h 10"></path><g>
<path d="M 50 177 h 0.0"></path><path d="M 2134.0 360 h 0.0"></path><rect class="group-box" height="363" rx="10" ry="10" width="2084.0" x="50.0" y="36"></rect><g>
<path d="M 50.0 177 h 10.0"></path><path d="M 60.0 177 h 10"></path><g>
<path d="M 70.0 177 h 10.0"></path><path d="M 2104.0 177 h 10.0"></path><rect class="group-box" height="264" rx="10" ry="10" width="2024.0" x="80.0" y="60"></rect><g>
<path d="M 80.0 177 h 10.0"></path><path d="M 2094.0 177 h 10.0"></path><g>
<path d="M 90.0 177 h 0.0"></path><path d="M 209.5 177 h 0.0"></path><g class="terminal ">
<path d="M 90.0 177 h 0.0"></path><path d="M 135.5 177 h 0.0"></path><rect height="22" rx="10" ry="10" width="45.5" x="90.0" y="166"></rect><text x="112.75" y="181">"\"</text></g><path d="M 135.5 177 h 10"></path><path d="M 145.5 177 h 10"></path><g class="terminal ">
<path d="M 155.5 177 h 0.0"></path><path d="M 209.5 177 h 0.0"></path><rect height="22" rx="10" ry="10" width="54.0" x="155.5" y="166"></rect><text x="182.5" y="181">"id"</text></g></g><path d="M 209.5 177 h 10"></path><path d="M 219.5 177 h 10"></path><g class="terminal ">
<path d="M 229.5 177 h 0.0"></path><path d="M 266.5 177 h 0.0"></path><rect height="22" rx="10" ry="10" width="37.0" x="229.5" y="166"></rect><text x="248.0" y="181">WS</text></g><path d="M 266.5 177 h 10"></path><path d="M 276.5 177 h 10"></path><g>
<path d="M 286.5 177 h 0.0"></path><path d="M 2094.0 177 h 0.0"></path><g>
<path d="M 286.5 177 h 0.0"></path><path d="M 1896.0 177 h 0.0"></path><path d="M 286.5 177 a 10 10 0 0 0 10 -10 v -89 a 10 10 0 0 1 10 -10 h 1440.0"></path><path d="M 419.0 316 h 1457.0 a 10 10 0 0 0 10 -10 v -119 a 10 10 0 0 1 10 -10"></path><path d="M 286.5 177 h 10"></path><g>
<path d="M 296.5 177 h 0.0"></path><path d="M 399.0 177 h 0.0"></path><path d="M 296.5 177 a 10 10 0 0 0 10 -10 v -10 a 10 10 0 0 1 10 -10"></path><g class="terminal ">
<path d="M 316.5 147 h 0.0"></path><path d="M 379.0 147 h 0.0"></path><rect height="22" rx="10" ry="10" width="62.5" x="316.5" y="136"></rect><text x="347.75" y="151">"LEV"</text></g><path d="M 379.0 147 a 10 10 0 0 1 10 10 v 10 a 10 10 0 0 0 10 10"></path><path d="M 296.5 177 a 10 10 0 0 0 10 -10 v -40 a 10 10 0 0 1 10 -10"></path><g class="terminal ">
<path d="M 316.5 117 h 0.0"></path><path d="M 379.0 117 h 0.0"></path><rect height="22" rx="10" ry="10" width="62.5" x="316.5" y="106"></rect><text x="347.75" y="121">"EXO"</text></g><path d="M 379.0 117 a 10 10 0 0 1 10 10 v 40 a 10 10 0 0 0 10 10"></path><path d="M 296.5 177 a 10 10 0 0 0 10 -10 v -70 a 10 10 0 0 1 10 -10"></path><g class="terminal ">
<path d="M 316.5 87 h 0.0"></path><path d="M 379.0 87 h 0.0"></path><rect height="22" rx="10" ry="10" width="62.5" x="316.5" y="76"></rect><text x="347.75" y="91">"GEN"</text></g><path d="M 379.0 87 a 10 10 0 0 1 10 10 v 70 a 10 10 0 0 0 10 10"></path><path d="M 296.5 177 h 20"></path><g class="terminal ">
<path d="M 316.5 177 h 0.0"></path><path d="M 379.0 177 h 0.0"></path><rect height="22" rx="10" ry="10" width="62.5" x="316.5" y="166"></rect><text x="347.75" y="181">"NUM"</text></g><path d="M 379.0 177 h 20"></path><path d="M 296.5 177 a 10 10 0 0 1 10 10 v 10 a 10 10 0 0 0 10 10"></path><g class="terminal ">
<path d="M 316.5 207 h 0.0"></path><path d="M 379.0 207 h 0.0"></path><rect height="22" rx="10" ry="10" width="62.5" x="316.5" y="196"></rect><text x="347.75" y="211">"DEU"</text></g><path d="M 379.0 207 a 10 10 0 0 0 10 -10 v -10 a 10 10 0 0 1 10 -10"></path><path d="M 296.5 177 a 10 10 0 0 1 10 10 v 40 a 10 10 0 0 0 10 10"></path><g class="terminal ">
<path d="M 316.5 237 h 0.0"></path><path d="M 379.0 237 h 0.0"></path><rect height="22" rx="10" ry="10" width="62.5" x="316.5" y="226"></rect><text x="347.75" y="241">"JOS"</text></g><path d="M 379.0 237 a 10 10 0 0 0 10 -10 v -40 a 10 10 0 0 1 10 -10"></path><path d="M 296.5 177 a 10 10 0 0 1 10 10 v 70 a 10 10 0 0 0 10 10"></path><g class="terminal ">
<path d="M 316.5 267 h 0.0"></path><path d="M 379.0 267 h 0.0"></path><rect height="22" rx="10" ry="10" width="62.5" x="316.5" y="256"></rect><text x="347.75" y="271">"JDG"</text></g><path d="M 379.0 267 a 10 10 0 0 0 10 -10 v -70 a 10 10 0 0 1 10 -10"></path><path d="M 296.5 177 a 10 10 0 0 1 10 10 v 100 a 10 10 0 0 0 10 10"></path><g class="terminal ">
<path d="M 316.5 297 h 0.0"></path><path d="M 379.0 297 h 0.0"></path><rect height="22" rx="10" ry="10" width="62.5" x="316.5" y="286"></rect><text x="347.75" y="301">"RUT"</text></g><path d="M 379.0 297 a 10 10 0 0 0 10 -10 v -100 a 10 10 0 0 1 10 -10"></path></g><path d="M 399.0 177 a 10 10 0 0 1 10 10 v 119 a 10 10 0 0 0 10 10"></path><path d="M 399.0 68 a 10 10 0 0 1 10 10 v 89 a 10 10 0 0 0 10 10"></path><g>
<path d="M 419.0 177 h 0.0"></path><path d="M 521.5 177 h 0.0"></path><path d="M 419.0 177 a 10 10 0 0 0 10 -10 v -10 a 10 10 0 0 1 10 -10"></path><g class="terminal ">
<path d="M 439.0 147 h 0.0"></path><path d="M 501.5 147 h 0.0"></path><rect height="22" rx="10" ry="10" width="62.5" x="439.0" y="136"></rect><text x="470.25" y="151">"1KI"</text></g><path d="M 501.5 147 a 10 10 0 0 1 10 10 v 10 a 10 10 0 0 0 10 10"></path><path d="M 419.0 177 a 10 10 0 0 0 10 -10 v -40 a 10 10 0 0 1 10 -10"></path><g class="terminal ">
<path d="M 439.0 117 h 0.0"></path><path d="M 501.5 117 h 0.0"></path><rect height="22" rx="10" ry="10" width="62.5" x="439.0" y="106"></rect><text x="470.25" y="121">"2SA"</text></g><path d="M 501.5 117 a 10 10 0 0 1 10 10 v 40 a 10 10 0 0 0 10 10"></path><path d="M 419.0 177 a 10 10 0 0 0 10 -10 v -70 a 10 10 0 0 1 10 -10"></path><g class="terminal ">
<path d="M 439.0 87 h 0.0"></path><path d="M 501.5 87 h 0.0"></path><rect height="22" rx="10" ry="10" width="62.5" x="439.0" y="76"></rect><text x="470.25" y="91">"1SA"</text></g><path d="M 501.5 87 a 10 10 0 0 1 10 10 v 70 a 10 10 0 0 0 10 10"></path><path d="M 419.0 177 h 20"></path><g class="terminal ">
<path d="M 439.0 177 h 0.0"></path><path d="M 501.5 177 h 0.0"></path><rect height="22" rx="10" ry="10" width="62.5" x="439.0" y="166"></rect><text x="470.25" y="181">"2KI"</text></g><path d="M 501.5 177 h 20"></path><path d="M 419.0 177 a 10 10 0 0 1 10 10 v 10 a 10 10 0 0 0 10 10"></path><g class="terminal ">
<path d="M 439.0 207 h 0.0"></path><path d="M 501.5 207 h 0.0"></path><rect height="22" rx="10" ry="10" width="62.5" x="439.0" y="196"></rect><text x="470.25" y="211">"1CH"</text></g><path d="M 501.5 207 a 10 10 0 0 0 10 -10 v -10 a 10 10 0 0 1 10 -10"></path><path d="M 419.0 177 a 10 10 0 0 1 10 10 v 40 a 10 10 0 0 0 10 10"></path><g class="terminal ">
<path d="M 439.0 237 h 0.0"></path><path d="M 501.5 237 h 0.0"></path><rect height="22" rx="10" ry="10" width="62.5" x="439.0" y="226"></rect><text x="470.25" y="241">"2CH"</text></g><path d="M 501.5 237 a 10 10 0 0 0 10 -10 v -40 a 10 10 0 0 1 10 -10"></path><path d="M 419.0 177 a 10 10 0 0 1 10 10 v 70 a 10 10 0 0 0 10 10"></path><g class="terminal ">
<path d="M 439.0 267 h 0.0"></path><path d="M 501.5 267 h 0.0"></path><rect height="22" rx="10" ry="10" width="62.5" x="439.0" y="256"></rect><text x="470.25" y="271">"EZR"</text></g><path d="M 501.5 267 a 10 10 0 0 0 10 -10 v -70 a 10 10 0 0 1 10 -10"></path><path d="M 419.0 177 a 10 10 0 0 1 10 10 v 100 a 10 10 0 0 0 10 10"></path><g class="terminal ">
<path d="M 439.0 297 h 0.0"></path><path d="M 501.5 297 h 0.0"></path><rect height="22" rx="10" ry="10" width="62.5" x="439.0" y="286"></rect><text x="470.25" y="301">"NEH"</text></g><path d="M 501.5 297 a 10 10 0 0 0 10 -10 v -100 a 10 10 0 0 1 10 -10"></path></g><path d="M 521.5 177 a 10 10 0 0 1 10 10 v 119 a 10 10 0 0 0 10 10"></path><path d="M 521.5 68 a 10 10 0 0 1 10 10 v 89 a 10 10 0 0 0 10 10"></path><g>
<path d="M 541.5 177 h 0.0"></path><path d="M 644.0 177 h 0.0"></path><path d="M 541.5 177 a 10 10 0 0 0 10 -10 v -10 a 10 10 0 0 1 10 -10"></path><g class="terminal ">
<path d="M 561.5 147 h 0.0"></path><path d="M 624.0 147 h 0.0"></path><rect height="22" rx="10" ry="10" width="62.5" x="561.5" y="136"></rect><text x="592.75" y="151">"PSA"</text></g><path d="M 624.0 147 a 10 10 0 0 1 10 10 v 10 a 10 10 0 0 0 10 10"></path><path d="M 541.5 177 a 10 10 0 0 0 10 -10 v -40 a 10 10 0 0 1 10 -10"></path><g class="terminal ">
<path d="M 561.5 117 h 0.0"></path><path d="M 624.0 117 h 0.0"></path><rect height="22" rx="10" ry="10" width="62.5" x="561.5" y="106"></rect><text x="592.75" y="121">"JOB"</text></g><path d="M 624.0 117 a 10 10 0 0 1 10 10 v 40 a 10 10 0 0 0 10 10"></path><path d="M 541.5 177 a 10 10 0 0 0 10 -10 v -70 a 10 10 0 0 1 10 -10"></path><g class="terminal ">
<path d="M 561.5 87 h 0.0"></path><path d="M 624.0 87 h 0.0"></path><rect height="22" rx="10" ry="10" width="62.5" x="561.5" y="76"></rect><text x="592.75" y="91">"EST"</text></g><path d="M 624.0 87 a 10 10 0 0 1 10 10 v 70 a 10 10 0 0 0 10 10"></path><path d="M 541.5 177 h 20"></path><g class="terminal ">
<path d="M 561.5 177 h 0.0"></path><path d="M 624.0 177 h 0.0"></path><rect height="22" rx="10" ry="10" width="62.5" x="561.5" y="166"></rect><text x="592.75" y="181">"PRO"</text></g><path d="M 624.0 177 h 20"></path><path d="M 541.5 177 a 10 10 0 0 1 10 10 v 10 a 10 10 0 0 0 10 10"></path><g class="terminal ">
<path d="M 561.5 207 h 0.0"></path><path d="M 624.0 207 h 0.0"></path><rect height="22" rx="10" ry="10" width="62.5" x="561.5" y="196"></rect><text x="592.75" y="211">"ECC"</text></g><path d="M 624.0 207 a 10 10 0 0 0 10 -10 v -10 a 10 10 0 0 1 10 -10"></path><path d="M 541.5 177 a 10 10 0 0 1 10 10 v 40 a 10 10 0 0 0 10 10"></path><g class="terminal ">
<path d="M 561.5 237 h 0.0"></path><path d="M 624.0 237 h 0.0"></path><rect height="22" rx="10" ry="10" width="62.5" x="561.5" y="226"></rect><text x="592.75" y="241">"SNG"</text></g><path d="M 624.0 237 a 10 10 0 0 0 10 -10 v -40 a 10 10 0 0 1 10 -10"></path><path d="M 541.5 177 a 10 10 0 0 1 10 10 v 70 a 10 10 0 0 0 10 10"></path><g class="terminal ">
<path d="M 561.5 267 h 0.0"></path><path d="M 624.0 267 h 0.0"></path><rect height="22" rx="10" ry="10" width="62.5" x="561.5" y="256"></rect><text x="592.75" y="271">"ISA"</text></g><path d="M 624.0 267 a 10 10 0 0 0 10 -10 v -70 a 10 10 0 0 1 10 -10"></path><path d="M 541.5 177 a 10 10 0 0 1 10 10 v 100 a 10 10 0 0 0 10 10"></path><g class="terminal ">
<path d="M 561.5 297 h 0.0"></path><path d="M 624.0 297 h 0.0"></path><rect height="22" rx="10" ry="10" width="62.5" x="561.5" y="286"></rect><text x="592.75" y="301">"JER"</text></g><path d="M 624.0 297 a 10 10 0 0 0 10 -10 v -100 a 10 10 0 0 1 10 -10"></path></g><path d="M 644.0 177 a 10 10 0 0 1 10 10 v 119 a 10 10 0 0 0 10 10"></path><path d="M 644.0 68 a 10 10 0 0 1 10 10 v 89 a 10 10 0 0 0 10 10"></path><g>
<path d="M 664.0 177 h 0.0"></path><path d="M 766.5 177 h 0.0"></path><path d="M 664.0 177 a 10 10 0 0 0 10 -10 v -10 a 10 10 0 0 1 10 -10"></path><g class="terminal ">
<path d="M 684.0 147 h 0.0"></path><path d="M 746.5 147 h 0.0"></path><rect height="22" rx="10" ry="10" width="62.5" x="684.0" y="136"></rect><text x="715.25" y="151">"DAN"</text></g><path d="M 746.5 147 a 10 10 0 0 1 10 10 v 10 a 10 10 0 0 0 10 10"></path><path d="M 664.0 177 a 10 10 0 0 0 10 -10 v -40 a 10 10 0 0 1 10 -10"></path><g class="terminal ">
<path d="M 684.0 117 h 0.0"></path><path d="M 746.5 117 h 0.0"></path><rect height="22" rx="10" ry="10" width="62.5" x="684.0" y="106"></rect><text x="715.25" y="121">"EZK"</text></g><path d="M 746.5 117 a 10 10 0 0 1 10 10 v 40 a 10 10 0 0 0 10 10"></path><path d="M 664.0 177 a 10 10 0 0 0 10 -10 v -70 a 10 10 0 0 1 10 -10"></path><g class="terminal ">
<path d="M 684.0 87 h 0.0"></path><path d="M 746.5 87 h 0.0"></path><rect height="22" rx="10" ry="10" width="62.5" x="684.0" y="76"></rect><text x="715.25" y="91">"LAM"</text></g><path d="M 746.5 87 a 10 10 0 0 1 10 10 v 70 a 10 10 0 0 0 10 10"></path><path d="M 664.0 177 h 20"></path><g class="terminal ">
<path d="M 684.0 177 h 0.0"></path><path d="M 746.5 177 h 0.0"></path><rect height="22" rx="10" ry="10" width="62.5" x="684.0" y="166"></rect><text x="715.25" y="181">"HOS"</text></g><path d="M 746.5 177 h 20"></path><path d="M 664.0 177 a 10 10 0 0 1 10 10 v 10 a 10 10 0 0 0 10 10"></path><g class="terminal ">
<path d="M 684.0 207 h 0.0"></path><path d="M 746.5 207 h 0.0"></path><rect height="22" rx="10" ry="10" width="62.5" x="684.0" y="196"></rect><text x="715.25" y="211">"JOL"</text></g><path d="M 746.5 207 a 10 10 0 0 0 10 -10 v -10 a 10 10 0 0 1 10 -10"></path><path d="M 664.0 177 a 10 10 0 0 1 10 10 v 40 a 10 10 0 0 0 10 10"></path><g class="terminal ">
<path d="M 684.0 237 h 0.0"></path><path d="M 746.5 237 h 0.0"></path><rect height="22" rx="10" ry="10" width="62.5" x="684.0" y="226"></rect><text x="715.25" y="241">"AMO"</text></g><path d="M 746.5 237 a 10 10 0 0 0 10 -10 v -40 a 10 10 0 0 1 10 -10"></path><path d="M 664.0 177 a 10 10 0 0 1 10 10 v 70 a 10 10 0 0 0 10 10"></path><g class="terminal ">
<path d="M 684.0 267 h 0.0"></path><path d="M 746.5 267 h 0.0"></path><rect height="22" rx="10" ry="10" width="62.5" x="684.0" y="256"></rect><text x="715.25" y="271">"OBA"</text></g><path d="M 746.5 267 a 10 10 0 0 0 10 -10 v -70 a 10 10 0 0 1 10 -10"></path><path d="M 664.0 177 a 10 10 0 0 1 10 10 v 100 a 10 10 0 0 0 10 10"></path><g class="terminal ">
<path d="M 684.0 297 h 0.0"></path><path d="M 746.5 297 h 0.0"></path><rect height="22" rx="10" ry="10" width="62.5" x="684.0" y="286"></rect><text x="715.25" y="301">"JON"</text></g><path d="M 746.5 297 a 10 10 0 0 0 10 -10 v -100 a 10 10 0 0 1 10 -10"></path></g><path d="M 766.5 177 a 10 10 0 0 1 10 10 v 119 a 10 10 0 0 0 10 10"></path><path d="M 766.5 68 a 10 10 0 0 1 10 10 v 89 a 10 10 0 0 0 10 10"></path><g>
<path d="M 786.5 177 h 0.0"></path><path d="M 889.0 177 h 0.0"></path><path d="M 786.5 177 a 10 10 0 0 0 10 -10 v -10 a 10 10 0 0 1 10 -10"></path><g class="terminal ">
<path d="M 806.5 147 h 0.0"></path><path d="M 869.0 147 h 0.0"></path><rect height="22" rx="10" ry="10" width="62.5" x="806.5" y="136"></rect><text x="837.75" y="151">"HAB"</text></g><path d="M 869.0 147 a 10 10 0 0 1 10 10 v 10 a 10 10 0 0 0 10 10"></path><path d="M 786.5 177 a 10 10 0 0 0 10 -10 v -40 a 10 10 0 0 1 10 -10"></path><g class="terminal ">
<path d="M 806.5 117 h 0.0"></path><path d="M 869.0 117 h 0.0"></path><rect height="22" rx="10" ry="10" width="62.5" x="806.5" y="106"></rect><text x="837.75" y="121">"NAM"</text></g><path d="M 869.0 117 a 10 10 0 0 1 10 10 v 40 a 10 10 0 0 0 10 10"></path><path d="M 786.5 177 a 10 10 0 0 0 10 -10 v -70 a 10 10 0 0 1 10 -10"></path><g class="terminal ">
<path d="M 806.5 87 h 0.0"></path><path d="M 869.0 87 h 0.0"></path><rect height="22" rx="10" ry="10" width="62.5" x="806.5" y="76"></rect><text x="837.75" y="91">"MIC"</text></g><path d="M 869.0 87 a 10 10 0 0 1 10 10 v 70 a 10 10 0 0 0 10 10"></path><path d="M 786.5 177 h 20"></path><g class="terminal ">
<path d="M 806.5 177 h 0.0"></path><path d="M 869.0 177 h 0.0"></path><rect height="22" rx="10" ry="10" width="62.5" x="806.5" y="166"></rect><text x="837.75" y="181">"ZEP"</text></g><path d="M 869.0 177 h 20"></path><path d="M 786.5 177 a 10 10 0 0 1 10 10 v 10 a 10 10 0 0 0 10 10"></path><g class="terminal ">
<path d="M 806.5 207 h 0.0"></path><path d="M 869.0 207 h 0.0"></path><rect height="22" rx="10" ry="10" width="62.5" x="806.5" y="196"></rect><text x="837.75" y="211">"HAG"</text></g><path d="M 869.0 207 a 10 10 0 0 0 10 -10 v -10 a 10 10 0 0 1 10 -10"></path><path d="M 786.5 177 a 10 10 0 0 1 10 10 v 40 a 10 10 0 0 0 10 10"></path><g class="terminal ">
<path d="M 806.5 237 h 0.0"></path><path d="M 869.0 237 h 0.0"></path><rect height="22" rx="10" ry="10" width="62.5" x="806.5" y="226"></rect><text x="837.75" y="241">"ZEC"</text></g><path d="M 869.0 237 a 10 10 0 0 0 10 -10 v -40 a 10 10 0 0 1 10 -10"></path><path d="M 786.5 177 a 10 10 0 0 1 10 10 v 70 a 10 10 0 0 0 10 10"></path><g class="terminal ">
<path d="M 806.5 267 h 0.0"></path><path d="M 869.0 267 h 0.0"></path><rect height="22" rx="10" ry="10" width="62.5" x="806.5" y="256"></rect><text x="837.75" y="271">"MAL"</text></g><path d="M 869.0 267 a 10 10 0 0 0 10 -10 v -70 a 10 10 0 0 1 10 -10"></path><path d="M 786.5 177 a 10 10 0 0 1 10 10 v 100 a 10 10 0 0 0 10 10"></path><g class="terminal ">
<path d="M 806.5 297 h 0.0"></path><path d="M 869.0 297 h 0.0"></path><rect height="22" rx="10" ry="10" width="62.5" x="806.5" y="286"></rect><text x="837.75" y="301">"MAT"</text></g><path d="M 869.0 297 a 10 10 0 0 0 10 -10 v -100 a 10 10 0 0 1 10 -10"></path></g><path d="M 889.0 177 a 10 10 0 0 1 10 10 v 119 a 10 10 0 0 0 10 10"></path><path d="M 889.0 68 a 10 10 0 0 1 10 10 v 89 a 10 10 0 0 0 10 10"></path><g>
<path d="M 909.0 177 h 0.0"></path><path d="M 1011.5 177 h 0.0"></path><path d="M 909.0 177 a 10 10 0 0 0 10 -10 v -10 a 10 10 0 0 1 10 -10"></path><g class="terminal ">
<path d="M 929.0 147 h 0.0"></path><path d="M 991.5 147 h 0.0"></path><rect height="22" rx="10" ry="10" width="62.5" x="929.0" y="136"></rect><text x="960.25" y="151">"JHN"</text></g><path d="M 991.5 147 a 10 10 0 0 1 10 10 v 10 a 10 10 0 0 0 10 10"></path><path d="M 909.0 177 a 10 10 0 0 0 10 -10 v -40 a 10 10 0 0 1 10 -10"></path><g class="terminal ">
<path d="M 929.0 117 h 0.0"></path><path d="M 991.5 117 h 0.0"></path><rect height="22" rx="10" ry="10" width="62.5" x="929.0" y="106"></rect><text x="960.25" y="121">"LUK"</text></g><path d="M 991.5 117 a 10 10 0 0 1 10 10 v 40 a 10 10 0 0 0 10 10"></path><path d="M 909.0 177 a 10 10 0 0 0 10 -10 v -70 a 10 10 0 0 1 10 -10"></path><g class="terminal ">
<path d="M 929.0 87 h 0.0"></path><path d="M 991.5 87 h 0.0"></path><rect height="22" rx="10" ry="10" width="62.5" x="929.0" y="76"></rect><text x="960.25" y="91">"MRK"</text></g><path d="M 991.5 87 a 10 10 0 0 1 10 10 v 70 a 10 10 0 0 0 10 10"></path><path d="M 909.0 177 h 20"></path><g class="terminal ">
<path d="M 929.0 177 h 0.0"></path><path d="M 991.5 177 h 0.0"></path><rect height="22" rx="10" ry="10" width="62.5" x="929.0" y="166"></rect><text x="960.25" y="181">"ACT"</text></g><path d="M 991.5 177 h 20"></path><path d="M 909.0 177 a 10 10 0 0 1 10 10 v 10 a 10 10 0 0 0 10 10"></path><g class="terminal ">
<path d="M 929.0 207 h 0.0"></path><path d="M 991.5 207 h 0.0"></path><rect height="22" rx="10" ry="10" width="62.5" x="929.0" y="196"></rect><text x="960.25" y="211">"ROM"</text></g><path d="M 991.5 207 a 10 10 0 0 0 10 -10 v -10 a 10 10 0 0 1 10 -10"></path><path d="M 909.0 177 a 10 10 0 0 1 10 10 v 40 a 10 10 0 0 0 10 10"></path><g class="terminal ">
<path d="M 929.0 237 h 0.0"></path><path d="M 991.5 237 h 0.0"></path><rect height="22" rx="10" ry="10" width="62.5" x="929.0" y="226"></rect><text x="960.25" y="241">"1CO"</text></g><path d="M 991.5 237 a 10 10 0 0 0 10 -10 v -40 a 10 10 0 0 1 10 -10"></path><path d="M 909.0 177 a 10 10 0 0 1 10 10 v 70 a 10 10 0 0 0 10 10"></path><g class="terminal ">
<path d="M 929.0 267 h 0.0"></path><path d="M 991.5 267 h 0.0"></path><rect height="22" rx="10" ry="10" width="62.5" x="929.0" y="256"></rect><text x="960.25" y="271">"2CO"</text></g><path d="M 991.5 267 a 10 10 0 0 0 10 -10 v -70 a 10 10 0 0 1 10 -10"></path><path d="M 909.0 177 a 10 10 0 0 1 10 10 v 100 a 10 10 0 0 0 10 10"></path><g class="terminal ">
<path d="M 929.0 297 h 0.0"></path><path d="M 991.5 297 h 0.0"></path><rect height="22" rx="10" ry="10" width="62.5" x="929.0" y="286"></rect><text x="960.25" y="301">"GAL"</text></g><path d="M 991.5 297 a 10 10 0 0 0 10 -10 v -100 a 10 10 0 0 1 10 -10"></path></g><path d="M 1011.5 177 a 10 10 0 0 1 10 10 v 119 a 10 10 0 0 0 10 10"></path><path d="M 1011.5 68 a 10 10 0 0 1 10 10 v 89 a 10 10 0 0 0 10 10"></path><g>
<path d="M 1031.5 177 h 0.0"></path><path d="M 1134.0 177 h 0.0"></path><path d="M 1031.5 177 a 10 10 0 0 0 10 -10 v -10 a 10 10 0 0 1 10 -10"></path><g class="terminal ">
<path d="M 1051.5 147 h 0.0"></path><path d="M 1114.0 147 h 0.0"></path><rect height="22" rx="10" ry="10" width="62.5" x="1051.5" y="136"></rect><text x="1082.75" y="151">"COL"</text></g><path d="M 1114.0 147 a 10 10 0 0 1 10 10 v 10 a 10 10 0 0 0 10 10"></path><path d="M 1031.5 177 a 10 10 0 0 0 10 -10 v -40 a 10 10 0 0 1 10 -10"></path><g class="terminal ">
<path d="M 1051.5 117 h 0.0"></path><path d="M 1114.0 117 h 0.0"></path><rect height="22" rx="10" ry="10" width="62.5" x="1051.5" y="106"></rect><text x="1082.75" y="121">"PHP"</text></g><path d="M 1114.0 117 a 10 10 0 0 1 10 10 v 40 a 10 10 0 0 0 10 10"></path><path d="M 1031.5 177 a 10 10 0 0 0 10 -10 v -70 a 10 10 0 0 1 10 -10"></path><g class="terminal ">
<path d="M 1051.5 87 h 0.0"></path><path d="M 1114.0 87 h 0.0"></path><rect height="22" rx="10" ry="10" width="62.5" x="1051.5" y="76"></rect><text x="1082.75" y="91">"EPH"</text></g><path d="M 1114.0 87 a 10 10 0 0 1 10 10 v 70 a 10 10 0 0 0 10 10"></path><path d="M 1031.5 177 h 20"></path><g class="terminal ">
<path d="M 1051.5 177 h 0.0"></path><path d="M 1114.0 177 h 0.0"></path><rect height="22" rx="10" ry="10" width="62.5" x="1051.5" y="166"></rect><text x="1082.75" y="181">"1TH"</text></g><path d="M 1114.0 177 h 20"></path><path d="M 1031.5 177 a 10 10 0 0 1 10 10 v 10 a 10 10 0 0 0 10 10"></path><g class="terminal ">
<path d="M 1051.5 207 h 0.0"></path><path d="M 1114.0 207 h 0.0"></path><rect height="22" rx="10" ry="10" width="62.5" x="1051.5" y="196"></rect><text x="1082.75" y="211">"2TH"</text></g><path d="M 1114.0 207 a 10 10 0 0 0 10 -10 v -10 a 10 10 0 0 1 10 -10"></path><path d="M 1031.5 177 a 10 10 0 0 1 10 10 v 40 a 10 10 0 0 0 10 10"></path><g class="terminal ">
<path d="M 1051.5 237 h 0.0"></path><path d="M 1114.0 237 h 0.0"></path><rect height="22" rx="10" ry="10" width="62.5" x="1051.5" y="226"></rect><text x="1082.75" y="241">"1TI"</text></g><path d="M 1114.0 237 a 10 10 0 0 0 10 -10 v -40 a 10 10 0 0 1 10 -10"></path><path d="M 1031.5 177 a 10 10 0 0 1 10 10 v 70 a 10 10 0 0 0 10 10"></path><g class="terminal ">
<path d="M 1051.5 267 h 0.0"></path><path d="M 1114.0 267 h 0.0"></path><rect height="22" rx="10" ry="10" width="62.5" x="1051.5" y="256"></rect><text x="1082.75" y="271">"2TI"</text></g><path d="M 1114.0 267 a 10 10 0 0 0 10 -10 v -70 a 10 10 0 0 1 10 -10"></path><path d="M 1031.5 177 a 10 10 0 0 1 10 10 v 100 a 10 10 0 0 0 10 10"></path><g class="terminal ">
<path d="M 1051.5 297 h 0.0"></path><path d="M 1114.0 297 h 0.0"></path><rect height="22" rx="10" ry="10" width="62.5" x="1051.5" y="286"></rect><text x="1082.75" y="301">"TIT"</text></g><path d="M 1114.0 297 a 10 10 0 0 0 10 -10 v -100 a 10 10 0 0 1 10 -10"></path></g><path d="M 1134.0 177 a 10 10 0 0 1 10 10 v 119 a 10 10 0 0 0 10 10"></path><path d="M 1134.0 68 a 10 10 0 0 1 10 10 v 89 a 10 10 0 0 0 10 10"></path><g>
<path d="M 1154.0 177 h 0.0"></path><path d="M 1256.5 177 h 0.0"></path><path d="M 1154.0 177 a 10 10 0 0 0 10 -10 v -10 a 10 10 0 0 1 10 -10"></path><g class="terminal ">
<path d="M 1174.0 147 h 0.0"></path><path d="M 1236.5 147 h 0.0"></path><rect height="22" rx="10" ry="10" width="62.5" x="1174.0" y="136"></rect><text x="1205.25" y="151">"JAS"</text></g><path d="M 1236.5 147 a 10 10 0 0 1 10 10 v 10 a 10 10 0 0 0 10 10"></path><path d="M 1154.0 177 a 10 10 0 0 0 10 -10 v -40 a 10 10 0 0 1 10 -10"></path><g class="terminal ">
<path d="M 1174.0 117 h 0.0"></path><path d="M 1236.5 117 h 0.0"></path><rect height="22" rx="10" ry="10" width="62.5" x="1174.0" y="106"></rect><text x="1205.25" y="121">"HEB"</text></g><path d="M 1236.5 117 a 10 10 0 0 1 10 10 v 40 a 10 10 0 0 0 10 10"></path><path d="M 1154.0 177 a 10 10 0 0 0 10 -10 v -70 a 10 10 0 0 1 10 -10"></path><g class="terminal ">
<path d="M 1174.0 87 h 0.0"></path><path d="M 1236.5 87 h 0.0"></path><rect height="22" rx="10" ry="10" width="62.5" x="1174.0" y="76"></rect><text x="1205.25" y="91">"PHM"</text></g><path d="M 1236.5 87 a 10 10 0 0 1 10 10 v 70 a 10 10 0 0 0 10 10"></path><path d="M 1154.0 177 h 20"></path><g class="terminal ">
<path d="M 1174.0 177 h 0.0"></path><path d="M 1236.5 177 h 0.0"></path><rect height="22" rx="10" ry="10" width="62.5" x="1174.0" y="166"></rect><text x="1205.25" y="181">"1PE"</text></g><path d="M 1236.5 177 h 20"></path><path d="M 1154.0 177 a 10 10 0 0 1 10 10 v 10 a 10 10 0 0 0 10 10"></path><g class="terminal ">
<path d="M 1174.0 207 h 0.0"></path><path d="M 1236.5 207 h 0.0"></path><rect height="22" rx="10" ry="10" width="62.5" x="1174.0" y="196"></rect><text x="1205.25" y="211">"2PE"</text></g><path d="M 1236.5 207 a 10 10 0 0 0 10 -10 v -10 a 10 10 0 0 1 10 -10"></path><path d="M 1154.0 177 a 10 10 0 0 1 10 10 v 40 a 10 10 0 0 0 10 10"></path><g class="terminal ">
<path d="M 1174.0 237 h 0.0"></path><path d="M 1236.5 237 h 0.0"></path><rect height="22" rx="10" ry="10" width="62.5" x="1174.0" y="226"></rect><text x="1205.25" y="241">"1JN"</text></g><path d="M 1236.5 237 a 10 10 0 0 0 10 -10 v -40 a 10 10 0 0 1 10 -10"></path><path d="M 1154.0 177 a 10 10 0 0 1 10 10 v 70 a 10 10 0 0 0 10 10"></path><g class="terminal ">
<path d="M 1174.0 267 h 0.0"></path><path d="M 1236.5 267 h 0.0"></path><rect height="22" rx="10" ry="10" width="62.5" x="1174.0" y="256"></rect><text x="1205.25" y="271">"2JN"</text></g><path d="M 1236.5 267 a 10 10 0 0 0 10 -10 v -70 a 10 10 0 0 1 10 -10"></path><path d="M 1154.0 177 a 10 10 0 0 1 10 10 v 100 a 10 10 0 0 0 10 10"></path><g class="terminal ">
<path d="M 1174.0 297 h 0.0"></path><path d="M 1236.5 297 h 0.0"></path><rect height="22" rx="10" ry="10" width="62.5" x="1174.0" y="286"></rect><text x="1205.25" y="301">"3JN"</text></g><path d="M 1236.5 297 a 10 10 0 0 0 10 -10 v -100 a 10 10 0 0 1 10 -10"></path></g><path d="M 1256.5 177 a 10 10 0 0 1 10 10 v 119 a 10 10 0 0 0 10 10"></path><path d="M 1256.5 68 a 10 10 0 0 1 10 10 v 89 a 10 10 0 0 0 10 10"></path><g>
<path d="M 1276.5 177 h 0.0"></path><path d="M 1379.0 177 h 0.0"></path><path d="M 1276.5 177 a 10 10 0 0 0 10 -10 v -10 a 10 10 0 0 1 10 -10"></path><g class="terminal ">
<path d="M 1296.5 147 h 0.0"></path><path d="M 1359.0 147 h 0.0"></path><rect height="22" rx="10" ry="10" width="62.5" x="1296.5" y="136"></rect><text x="1327.75" y="151">"TOB"</text></g><path d="M 1359.0 147 a 10 10 0 0 1 10 10 v 10 a 10 10 0 0 0 10 10"></path><path d="M 1276.5 177 a 10 10 0 0 0 10 -10 v -40 a 10 10 0 0 1 10 -10"></path><g class="terminal ">
<path d="M 1296.5 117 h 0.0"></path><path d="M 1359.0 117 h 0.0"></path><rect height="22" rx="10" ry="10" width="62.5" x="1296.5" y="106"></rect><text x="1327.75" y="121">"REV"</text></g><path d="M 1359.0 117 a 10 10 0 0 1 10 10 v 40 a 10 10 0 0 0 10 10"></path><path d="M 1276.5 177 a 10 10 0 0 0 10 -10 v -70 a 10 10 0 0 1 10 -10"></path><g class="terminal ">
<path d="M 1296.5 87 h 0.0"></path><path d="M 1359.0 87 h 0.0"></path><rect height="22" rx="10" ry="10" width="62.5" x="1296.5" y="76"></rect><text x="1327.75" y="91">"JUD"</text></g><path d="M 1359.0 87 a 10 10 0 0 1 10 10 v 70 a 10 10 0 0 0 10 10"></path><path d="M 1276.5 177 h 20"></path><g class="terminal ">
<path d="M 1296.5 177 h 0.0"></path><path d="M 1359.0 177 h 0.0"></path><rect height="22" rx="10" ry="10" width="62.5" x="1296.5" y="166"></rect><text x="1327.75" y="181">"JDT"</text></g><path d="M 1359.0 177 h 20"></path><path d="M 1276.5 177 a 10 10 0 0 1 10 10 v 10 a 10 10 0 0 0 10 10"></path><g class="terminal ">
<path d="M 1296.5 207 h 0.0"></path><path d="M 1359.0 207 h 0.0"></path><rect height="22" rx="10" ry="10" width="62.5" x="1296.5" y="196"></rect><text x="1327.75" y="211">"ESG"</text></g><path d="M 1359.0 207 a 10 10 0 0 0 10 -10 v -10 a 10 10 0 0 1 10 -10"></path><path d="M 1276.5 177 a 10 10 0 0 1 10 10 v 40 a 10 10 0 0 0 10 10"></path><g class="terminal ">
<path d="M 1296.5 237 h 0.0"></path><path d="M 1359.0 237 h 0.0"></path><rect height="22" rx="10" ry="10" width="62.5" x="1296.5" y="226"></rect><text x="1327.75" y="241">"WIS"</text></g><path d="M 1359.0 237 a 10 10 0 0 0 10 -10 v -40 a 10 10 0 0 1 10 -10"></path><path d="M 1276.5 177 a 10 10 0 0 1 10 10 v 70 a 10 10 0 0 0 10 10"></path><g class="terminal ">
<path d="M 1296.5 267 h 0.0"></path><path d="M 1359.0 267 h 0.0"></path><rect height="22" rx="10" ry="10" width="62.5" x="1296.5" y="256"></rect><text x="1327.75" y="271">"SIR"</text></g><path d="M 1359.0 267 a 10 10 0 0 0 10 -10 v -70 a 10 10 0 0 1 10 -10"></path><path d="M 1276.5 177 a 10 10 0 0 1 10 10 v 100 a 10 10 0 0 0 10 10"></path><g class="terminal ">
<path d="M 1296.5 297 h 0.0"></path><path d="M 1359.0 297 h 0.0"></path><rect height="22" rx="10" ry="10" width="62.5" x="1296.5" y="286"></rect><text x="1327.75" y="301">"BAR"</text></g><path d="M 1359.0 297 a 10 10 0 0 0 10 -10 v -100 a 10 10 0 0 1 10 -10"></path></g><path d="M 1379.0 177 a 10 10 0 0 1 10 10 v 119 a 10 10 0 0 0 10 10"></path><path d="M 1379.0 68 a 10 10 0 0 1 10 10 v 89 a 10 10 0 0 0 10 10"></path><g>
<path d="M 1399.0 177 h 0.0"></path><path d="M 1501.5 177 h 0.0"></path><path d="M 1399.0 177 a 10 10 0 0 0 10 -10 v -10 a 10 10 0 0 1 10 -10"></path><g class="terminal ">
<path d="M 1419.0 147 h 0.0"></path><path d="M 1481.5 147 h 0.0"></path><rect height="22" rx="10" ry="10" width="62.5" x="1419.0" y="136"></rect><text x="1450.25" y="151">"SUS"</text></g><path d="M 1481.5 147 a 10 10 0 0 1 10 10 v 10 a 10 10 0 0 0 10 10"></path><path d="M 1399.0 177 a 10 10 0 0 0 10 -10 v -40 a 10 10 0 0 1 10 -10"></path><g class="terminal ">
<path d="M 1419.0 117 h 0.0"></path><path d="M 1481.5 117 h 0.0"></path><rect height="22" rx="10" ry="10" width="62.5" x="1419.0" y="106"></rect><text x="1450.25" y="121">"S3Y"</text></g><path d="M 1481.5 117 a 10 10 0 0 1 10 10 v 40 a 10 10 0 0 0 10 10"></path><path d="M 1399.0 177 a 10 10 0 0 0 10 -10 v -70 a 10 10 0 0 1 10 -10"></path><g class="terminal ">
<path d="M 1419.0 87 h 0.0"></path><path d="M 1481.5 87 h 0.0"></path><rect height="22" rx="10" ry="10" width="62.5" x="1419.0" y="76"></rect><text x="1450.25" y="91">"LJE"</text></g><path d="M 1481.5 87 a 10 10 0 0 1 10 10 v 70 a 10 10 0 0 0 10 10"></path><path d="M 1399.0 177 h 20"></path><g class="terminal ">
<path d="M 1419.0 177 h 0.0"></path><path d="M 1481.5 177 h 0.0"></path><rect height="22" rx="10" ry="10" width="62.5" x="1419.0" y="166"></rect><text x="1450.25" y="181">"BEL"</text></g><path d="M 1481.5 177 h 20"></path><path d="M 1399.0 177 a 10 10 0 0 1 10 10 v 10 a 10 10 0 0 0 10 10"></path><g class="terminal ">
<path d="M 1419.0 207 h 0.0"></path><path d="M 1481.5 207 h 0.0"></path><rect height="22" rx="10" ry="10" width="62.5" x="1419.0" y="196"></rect><text x="1450.25" y="211">"1MA"</text></g><path d="M 1481.5 207 a 10 10 0 0 0 10 -10 v -10 a 10 10 0 0 1 10 -10"></path><path d="M 1399.0 177 a 10 10 0 0 1 10 10 v 40 a 10 10 0 0 0 10 10"></path><g class="terminal ">
<path d="M 1419.0 237 h 0.0"></path><path d="M 1481.5 237 h 0.0"></path><rect height="22" rx="10" ry="10" width="62.5" x="1419.0" y="226"></rect><text x="1450.25" y="241">"2MA"</text></g><path d="M 1481.5 237 a 10 10 0 0 0 10 -10 v -40 a 10 10 0 0 1 10 -10"></path><path d="M 1399.0 177 a 10 10 0 0 1 10 10 v 70 a 10 10 0 0 0 10 10"></path><g class="terminal ">
<path d="M 1419.0 267 h 0.0"></path><path d="M 1481.5 267 h 0.0"></path><rect height="22" rx="10" ry="10" width="62.5" x="1419.0" y="256"></rect><text x="1450.25" y="271">"3MA"</text></g><path d="M 1481.5 267 a 10 10 0 0 0 10 -10 v -70 a 10 10 0 0 1 10 -10"></path><path d="M 1399.0 177 a 10 10 0 0 1 10 10 v 100 a 10 10 0 0 0 10 10"></path><g class="terminal ">
<path d="M 1419.0 297 h 0.0"></path><path d="M 1481.5 297 h 0.0"></path><rect height="22" rx="10" ry="10" width="62.5" x="1419.0" y="286"></rect><text x="1450.25" y="301">"4MA"</text></g><path d="M 1481.5 297 a 10 10 0 0 0 10 -10 v -100 a 10 10 0 0 1 10 -10"></path></g><path d="M 1501.5 177 a 10 10 0 0 1 10 10 v 119 a 10 10 0 0 0 10 10"></path><path d="M 1501.5 68 a 10 10 0 0 1 10 10 v 89 a 10 10 0 0 0 10 10"></path><g>
<path d="M 1521.5 177 h 0.0"></path><path d="M 1624.0 177 h 0.0"></path><path d="M 1521.5 177 a 10 10 0 0 0 10 -10 v -10 a 10 10 0 0 1 10 -10"></path><g class="terminal ">
<path d="M 1541.5 147 h 0.0"></path><path d="M 1604.0 147 h 0.0"></path><rect height="22" rx="10" ry="10" width="62.5" x="1541.5" y="136"></rect><text x="1572.75" y="151">"MAN"</text></g><path d="M 1604.0 147 a 10 10 0 0 1 10 10 v 10 a 10 10 0 0 0 10 10"></path><path d="M 1521.5 177 a 10 10 0 0 0 10 -10 v -40 a 10 10 0 0 1 10 -10"></path><g class="terminal ">
<path d="M 1541.5 117 h 0.0"></path><path d="M 1604.0 117 h 0.0"></path><rect height="22" rx="10" ry="10" width="62.5" x="1541.5" y="106"></rect><text x="1572.75" y="121">"2ES"</text></g><path d="M 1604.0 117 a 10 10 0 0 1 10 10 v 40 a 10 10 0 0 0 10 10"></path><path d="M 1521.5 177 a 10 10 0 0 0 10 -10 v -70 a 10 10 0 0 1 10 -10"></path><g class="terminal ">
<path d="M 1541.5 87 h 0.0"></path><path d="M 1604.0 87 h 0.0"></path><rect height="22" rx="10" ry="10" width="62.5" x="1541.5" y="76"></rect><text x="1572.75" y="91">"1ES"</text></g><path d="M 1604.0 87 a 10 10 0 0 1 10 10 v 70 a 10 10 0 0 0 10 10"></path><path d="M 1521.5 177 h 20"></path><g class="terminal ">
<path d="M 1541.5 177 h 0.0"></path><path d="M 1604.0 177 h 0.0"></path><rect height="22" rx="10" ry="10" width="62.5" x="1541.5" y="166"></rect><text x="1572.75" y="181">"PS2"</text></g><path d="M 1604.0 177 h 20"></path><path d="M 1521.5 177 a 10 10 0 0 1 10 10 v 10 a 10 10 0 0 0 10 10"></path><g class="terminal ">
<path d="M 1541.5 207 h 0.0"></path><path d="M 1604.0 207 h 0.0"></path><rect height="22" rx="10" ry="10" width="62.5" x="1541.5" y="196"></rect><text x="1572.75" y="211">"ODA"</text></g><path d="M 1604.0 207 a 10 10 0 0 0 10 -10 v -10 a 10 10 0 0 1 10 -10"></path><path d="M 1521.5 177 a 10 10 0 0 1 10 10 v 40 a 10 10 0 0 0 10 10"></path><g class="terminal ">
<path d="M 1541.5 237 h 0.0"></path><path d="M 1604.0 237 h 0.0"></path><rect height="22" rx="10" ry="10" width="62.5" x="1541.5" y="226"></rect><text x="1572.75" y="241">"PSS"</text></g><path d="M 1604.0 237 a 10 10 0 0 0 10 -10 v -40 a 10 10 0 0 1 10 -10"></path><path d="M 1521.5 177 a 10 10 0 0 1 10 10 v 70 a 10 10 0 0 0 10 10"></path><g class="terminal ">
<path d="M 1541.5 267 h 0.0"></path><path d="M 1604.0 267 h 0.0"></path><rect height="22" rx="10" ry="10" width="62.5" x="1541.5" y="256"></rect><text x="1572.75" y="271">"EZA"</text></g><path d="M 1604.0 267 a 10 10 0 0 0 10 -10 v -70 a 10 10 0 0 1 10 -10"></path><path d="M 1521.5 177 a 10 10 0 0 1 10 10 v 100 a 10 10 0 0 0 10 10"></path><g class="terminal ">
<path d="M 1541.5 297 h 0.0"></path><path d="M 1604.0 297 h 0.0"></path><rect height="22" rx="10" ry="10" width="62.5" x="1541.5" y="286"></rect><text x="1572.75" y="301">"5EZ"</text></g><path d="M 1604.0 297 a 10 10 0 0 0 10 -10 v -100 a 10 10 0 0 1 10 -10"></path></g><path d="M 1624.0 177 a 10 10 0 0 1 10 10 v 119 a 10 10 0 0 0 10 10"></path><path d="M 1624.0 68 a 10 10 0 0 1 10 10 v 89 a 10 10 0 0 0 10 10"></path><g>
<path d="M 1644.0 177 h 0.0"></path><path d="M 1746.5 177 h 0.0"></path><path d="M 1644.0 177 a 10 10 0 0 0 10 -10 v -10 a 10 10 0 0 1 10 -10"></path><g class="terminal ">
<path d="M 1664.0 147 h 0.0"></path><path d="M 1726.5 147 h 0.0"></path><rect height="22" rx="10" ry="10" width="62.5" x="1664.0" y="136"></rect><text x="1695.25" y="151">"PS3"</text></g><path d="M 1726.5 147 a 10 10 0 0 1 10 10 v 10 a 10 10 0 0 0 10 10"></path><path d="M 1644.0 177 a 10 10 0 0 0 10 -10 v -40 a 10 10 0 0 1 10 -10"></path><g class="terminal ">
<path d="M 1664.0 117 h 0.0"></path><path d="M 1726.5 117 h 0.0"></path><rect height="22" rx="10" ry="10" width="62.5" x="1664.0" y="106"></rect><text x="1695.25" y="121">"DAG"</text></g><path d="M 1726.5 117 a 10 10 0 0 1 10 10 v 40 a 10 10 0 0 0 10 10"></path><path d="M 1644.0 177 a 10 10 0 0 0 10 -10 v -70 a 10 10 0 0 1 10 -10"></path><g class="terminal ">
<path d="M 1664.0 87 h 0.0"></path><path d="M 1726.5 87 h 0.0"></path><rect height="22" rx="10" ry="10" width="62.5" x="1664.0" y="76"></rect><text x="1695.25" y="91">"6EZ"</text></g><path d="M 1726.5 87 a 10 10 0 0 1 10 10 v 70 a 10 10 0 0 0 10 10"></path><path d="M 1644.0 177 h 20"></path><g class="terminal ">
<path d="M 1664.0 177 h 0.0"></path><path d="M 1726.5 177 h 0.0"></path><rect height="22" rx="10" ry="10" width="62.5" x="1664.0" y="166"></rect><text x="1695.25" y="181">"2BA"</text></g><path d="M 1726.5 177 h 20"></path><path d="M 1644.0 177 a 10 10 0 0 1 10 10 v 10 a 10 10 0 0 0 10 10"></path><g class="terminal ">
<path d="M 1664.0 207 h 0.0"></path><path d="M 1726.5 207 h 0.0"></path><rect height="22" rx="10" ry="10" width="62.5" x="1664.0" y="196"></rect><text x="1695.25" y="211">"LBA"</text></g><path d="M 1726.5 207 a 10 10 0 0 0 10 -10 v -10 a 10 10 0 0 1 10 -10"></path><path d="M 1644.0 177 a 10 10 0 0 1 10 10 v 40 a 10 10 0 0 0 10 10"></path><g class="terminal ">
<path d="M 1664.0 237 h 0.0"></path><path d="M 1726.5 237 h 0.0"></path><rect height="22" rx="10" ry="10" width="62.5" x="1664.0" y="226"></rect><text x="1695.25" y="241">"JUB"</text></g><path d="M 1726.5 237 a 10 10 0 0 0 10 -10 v -40 a 10 10 0 0 1 10 -10"></path><path d="M 1644.0 177 a 10 10 0 0 1 10 10 v 70 a 10 10 0 0 0 10 10"></path><g class="terminal ">
<path d="M 1664.0 267 h 0.0"></path><path d="M 1726.5 267 h 0.0"></path><rect height="22" rx="10" ry="10" width="62.5" x="1664.0" y="256"></rect><text x="1695.25" y="271">"ENO"</text></g><path d="M 1726.5 267 a 10 10 0 0 0 10 -10 v -70 a 10 10 0 0 1 10 -10"></path><path d="M 1644.0 177 a 10 10 0 0 1 10 10 v 100 a 10 10 0 0 0 10 10"></path><g class="terminal ">
<path d="M 1664.0 297 h 0.0"></path><path d="M 1726.5 297 h 0.0"></path><rect height="22" rx="10" ry="10" width="62.5" x="1664.0" y="286"></rect><text x="1695.25" y="301">"1MQ"</text></g><path d="M 1726.5 297 a 10 10 0 0 0 10 -10 v -100 a 10 10 0 0 1 10 -10"></path></g><path d="M 1746.5 177 a 10 10 0 0 1 10 10 v 119 a 10 10 0 0 0 10 10"></path><path d="M 1746.5 68 a 10 10 0 0 1 10 10 v 89 a 10 10 0 0 0 10 10"></path><g>
<path d="M 1766.5 177 h 0.0"></path><path d="M 1886.0 177 h 0.0"></path><path d="M 1766.5 177 a 10 10 0 0 0 10 -10 v -10 a 10 10 0 0 1 10 -10"></path><g class="terminal ">
<path d="M 1786.5 147 h 8.5"></path><path d="M 1857.5 147 h 8.5"></path><rect height="22" rx="10" ry="10" width="62.5" x="1795.0" y="136"></rect><text x="1826.25" y="151">"REP"</text></g><path d="M 1866.0 147 a 10 10 0 0 1 10 10 v 10 a 10 10 0 0 0 10 10"></path><path d="M 1766.5 177 a 10 10 0 0 0 10 -10 v -40 a 10 10 0 0 1 10 -10"></path><g class="terminal ">
<path d="M 1786.5 117 h 8.5"></path><path d="M 1857.5 117 h 8.5"></path><rect height="22" rx="10" ry="10" width="62.5" x="1795.0" y="106"></rect><text x="1826.25" y="121">"3MQ"</text></g><path d="M 1866.0 117 a 10 10 0 0 1 10 10 v 40 a 10 10 0 0 0 10 10"></path><path d="M 1766.5 177 a 10 10 0 0 0 10 -10 v -70 a 10 10 0 0 1 10 -10"></path><g class="terminal ">
<path d="M 1786.5 87 h 8.5"></path><path d="M 1857.5 87 h 8.5"></path><rect height="22" rx="10" ry="10" width="62.5" x="1795.0" y="76"></rect><text x="1826.25" y="91">"2MQ"</text></g><path d="M 1866.0 87 a 10 10 0 0 1 10 10 v 70 a 10 10 0 0 0 10 10"></path><path d="M 1766.5 177 h 20"></path><g class="terminal ">
<path d="M 1786.5 177 h 8.5"></path><path d="M 1857.5 177 h 8.5"></path><rect height="22" rx="10" ry="10" width="62.5" x="1795.0" y="166"></rect><text x="1826.25" y="181">"4BA"</text></g><path d="M 1866.0 177 h 20"></path><path d="M 1766.5 177 a 10 10 0 0 1 10 10 v 10 a 10 10 0 0 0 10 10"></path><g class="terminal ">
<path d="M 1786.5 207 h 8.5"></path><path d="M 1857.5 207 h 8.5"></path><rect height="22" rx="10" ry="10" width="62.5" x="1795.0" y="196"></rect><text x="1826.25" y="211">"LAO"</text></g><path d="M 1866.0 207 a 10 10 0 0 0 10 -10 v -10 a 10 10 0 0 1 10 -10"></path><path d="M 1766.5 177 a 10 10 0 0 1 10 10 v 40 a 10 10 0 0 0 10 10"></path><g class="terminal ">
<path d="M 1786.5 237 h 0.0"></path><path d="M 1866.0 237 h 0.0"></path><rect height="22" rx="10" ry="10" width="79.5" x="1786.5" y="226"></rect><text x="1826.25" y="241">/\S{3}/</text></g><path d="M 1866.0 237 a 10 10 0 0 0 10 -10 v -40 a 10 10 0 0 1 10 -10"></path></g><path d="M 1886.0 177 h 10"></path></g><path d="M 1896.0 177 h 10"></path><g class="terminal ">
<path d="M 1906.0 177 h 0.0"></path><path d="M 1943.0 177 h 0.0"></path><rect height="22" rx="10" ry="10" width="37.0" x="1906.0" y="166"></rect><text x="1924.5" y="181">WS</text></g><path d="M 1943.0 177 h 10"></path><g>
<path d="M 1953.0 177 h 0.0"></path><path d="M 2047.0 177 h 0.0"></path><path d="M 1953.0 177 h 20"></path><g>
<path d="M 1973.0 177 h 54.0"></path></g><path d="M 2027.0 177 h 20"></path><path d="M 1953.0 177 a 10 10 0 0 1 10 10 v 0 a 10 10 0 0 0 10 10"></path><g class="terminal ">
<path d="M 1973.0 197 h 0.0"></path><path d="M 2027.0 197 h 0.0"></path><rect height="22" rx="10" ry="10" width="54.0" x="1973.0" y="186"></rect><text x="2000.0" y="201">Text</text></g><path d="M 2027.0 197 a 10 10 0 0 0 10 -10 v 0 a 10 10 0 0 1 10 -10"></path></g><path d="M 2047.0 177 h 10"></path><g class="terminal ">
<path d="M 2057.0 177 h 0.0"></path><path d="M 2094.0 177 h 0.0"></path><rect height="22" rx="10" ry="10" width="37.0" x="2057.0" y="166"></rect><text x="2075.5" y="181">NL</text></g></g></g><g class="non-terminal ">
<path d="M 80.0 52 h 0.0"></path><path d="M 216.0 52 h 0.0"></path><text class="comment" x="148.0" y="57">BookIdentification</text></g></g><path d="M 2114.0 177 a 10 10 0 0 1 10 10 v 135 a 10 10 0 0 1 -10 10 h -2044.0 a 10 10 0 0 0 -10 10 v 8 a 10 10 0 0 0 10 10"></path><g>
<path d="M 70.0 360 h 376.25"></path><path d="M 1737.75 360 h 376.25"></path><g>
<path d="M 446.25 360 h 0.0"></path><path d="M 619.75 360 h 0.0"></path><path d="M 446.25 360 a 10 10 0 0 0 10 -10 v 0 a 10 10 0 0 1 10 -10"></path><g>
<path d="M 466.25 340 h 133.5"></path></g><path d="M 599.75 340 a 10 10 0 0 1 10 10 v 0 a 10 10 0 0 0 10 10"></path><path d="M 446.25 360 h 20"></path><g>
<path d="M 466.25 360 h 0.0"></path><path d="M 599.75 360 h 0.0"></path><path d="M 466.25 360 h 10"></path><g class="non-terminal ">
<path d="M 476.25 360 h 0.0"></path><path d="M 589.75 360 h 0.0"></path><rect height="22" width="113.5" x="476.25" y="349"></rect><text x="533.0" y="364">BookHeaders</text></g><path d="M 589.75 360 h 10"></path><path d="M 476.25 360 a 10 10 0 0 0 -10 10 v 0 a 10 10 0 0 0 10 10"></path><g>
<path d="M 476.25 380 h 113.5"></path></g><path d="M 589.75 380 a 10 10 0 0 0 10 -10 v 0 a 10 10 0 0 0 -10 -10"></path></g><path d="M 599.75 360 h 20"></path></g><path d="M 619.75 360 h 10"></path><g>
<path d="M 629.75 360 h 0.0"></path><path d="M 754.75 360 h 0.0"></path><path d="M 629.75 360 h 10"></path><g class="non-terminal ">
<path d="M 639.75 360 h 0.0"></path><path d="M 744.75 360 h 0.0"></path><rect height="22" width="105.0" x="639.75" y="349"></rect><text x="692.25" y="364">BookTitles</text></g><path d="M 744.75 360 h 10"></path><path d="M 639.75 360 a 10 10 0 0 0 -10 10 v 0 a 10 10 0 0 0 10 10"></path><g>
<path d="M 639.75 380 h 105.0"></path></g><path d="M 744.75 380 a 10 10 0 0 0 10 -10 v 0 a 10 10 0 0 0 -10 -10"></path></g><path d="M 754.75 360 h 10"></path><g>
<path d="M 764.75 360 h 0.0"></path><path d="M 980.75 360 h 0.0"></path><path d="M 764.75 360 a 10 10 0 0 0 10 -10 v 0 a 10 10 0 0 1 10 -10"></path><g>
<path d="M 784.75 340 h 176.0"></path></g><path d="M 960.75 340 a 10 10 0 0 1 10 10 v 0 a 10 10 0 0 0 10 10"></path><path d="M 764.75 360 h 20"></path><g>
<path d="M 784.75 360 h 0.0"></path><path d="M 960.75 360 h 0.0"></path><path d="M 784.75 360 h 10"></path><g class="non-terminal ">
<path d="M 794.75 360 h 0.0"></path><path d="M 950.75 360 h 0.0"></path><rect height="22" width="156.0" x="794.75" y="349"></rect><text x="872.75" y="364">BookIntroduction</text></g><path d="M 950.75 360 h 10"></path><path d="M 794.75 360 a 10 10 0 0 0 -10 10 v 0 a 10 10 0 0 0 10 10"></path><g>
<path d="M 794.75 380 h 156.0"></path></g><path d="M 950.75 380 a 10 10 0 0 0 10 -10 v 0 a 10 10 0 0 0 -10 -10"></path></g><path d="M 960.75 360 h 20"></path></g><g>
<path d="M 980.75 360 h 0.0"></path><path d="M 1273.25 360 h 0.0"></path><path d="M 980.75 360 a 10 10 0 0 0 10 -10 v 0 a 10 10 0 0 1 10 -10"></path><g>
<path d="M 1000.75 340 h 252.5"></path></g><path d="M 1253.25 340 a 10 10 0 0 1 10 10 v 0 a 10 10 0 0 0 10 10"></path><path d="M 980.75 360 h 20"></path><g>
<path d="M 1000.75 360 h 0.0"></path><path d="M 1253.25 360 h 0.0"></path><path d="M 1000.75 360 h 10"></path><g class="non-terminal ">
<path d="M 1010.75 360 h 0.0"></path><path d="M 1243.25 360 h 0.0"></path><rect height="22" width="232.5" x="1010.75" y="349"></rect><text x="1127.0" y="364">BookIntroductionEndTitles</text></g><path d="M 1243.25 360 h 10"></path><path d="M 1010.75 360 a 10 10 0 0 0 -10 10 v 0 a 10 10 0 0 0 10 10"></path><g>
<path d="M 1010.75 380 h 232.5"></path></g><path d="M 1243.25 380 a 10 10 0 0 0 10 -10 v 0 a 10 10 0 0 0 -10 -10"></path></g><path d="M 1253.25 360 h 20"></path></g><g>
<path d="M 1273.25 360 h 0.0"></path><path d="M 1469.25 360 h 0.0"></path><path d="M 1273.25 360 h 20"></path><g>
<path d="M 1293.25 360 h 156.0"></path></g><path d="M 1449.25 360 h 20"></path><path d="M 1273.25 360 a 10 10 0 0 1 10 10 v 0 a 10 10 0 0 0 10 10"></path><g class="non-terminal ">
<path d="M 1293.25 380 h 0.0"></path><path d="M 1449.25 380 h 0.0"></path><rect height="22" width="156.0" x="1293.25" y="369"></rect><text x="1371.25" y="384">BookChapterLabel</text></g><path d="M 1449.25 380 a 10 10 0 0 0 10 -10 v 0 a 10 10 0 0 1 10 -10"></path></g><path d="M 1469.25 360 h 10"></path><g class="non-terminal ">
<path d="M 1479.25 360 h 0.0"></path><path d="M 1558.75 360 h 0.0"></path><rect height="22" width="79.5" x="1479.25" y="349"></rect><text x="1519.0" y="364">Chapter</text></g><path d="M 1558.75 360 h 10"></path><path d="M 1568.75 360 h 10"></path><g>
<path d="M 1578.75 360 h 0.0"></path><path d="M 1737.75 360 h 0.0"></path><path d="M 1578.75 360 h 10"></path><g class="non-terminal ">
<path d="M 1588.75 360 h 0.0"></path><path d="M 1727.75 360 h 0.0"></path><rect height="22" width="139.0" x="1588.75" y="349"></rect><text x="1658.25" y="364">ChapterContent</text></g><path d="M 1727.75 360 h 10"></path><path d="M 1588.75 360 a 10 10 0 0 0 -10 10 v 0 a 10 10 0 0 0 10 10"></path><g>
<path d="M 1588.75 380 h 139.0"></path></g><path d="M 1727.75 380 a 10 10 0 0 0 10 -10 v 0 a 10 10 0 0 0 -10 -10"></path></g></g><path d="M 2114.0 360 h 10"></path><path d="M 2124.0 360 h 10.0"></path></g><g class="non-terminal ">
<path d="M 50.0 28 h 0.0"></path><path d="M 123.0 28 h 0.0"></path><text class="comment" x="86.5" y="33">Scripture</text></g></g><path d="M 2134.0 360 h 10"></path><path d="M 2144.0 360 h 20 m 0 -10 v 20"></path></g></svg>