<svg class="railroad-diagram" height="894" viewBox="0 0 1624.0 894" width="1624.0" xmlns="http://www.w3.org/2000/svg" xmlns:xlink="http://www.w3.org/1999/xlink">
<g transform="translate(.5 .5)">
<style>/* <![CDATA[ */

    svg.railroad-diagram {
        background-color:hsl(30,20%,95%);
    }
    svg.railroad-diagram path {
        stroke-width: 2;
        stroke: black;
        fill: none;
    }
    svg.railroad-diagram text {
        font-size: 12px;
        text-anchor: middle;
        font-family: DejaVu Sans;
    }
    svg.railroad-diagram text.label {
        text-anchor:start;
    }
    svg.railroad-diagram text.comment {
        font-family: DejaVu Sans;
        font-size: 14px;
    }
    svg.railroad-diagram rect{
        stroke-width: 2;
        stroke:black;
        fill: rgb(210, 210, 255);
    }
    svg.railroad-diagram rect.group-box {
        stroke: gray;
        stroke-dasharray: 10 5;
        fill: none;
    }
    .terminal {
        font-family: DejaVu Sans;
    }

/* ]]> */
</style><g>
<path d="M 20 556 v 20 m 0 -10 h 20"></path></g><path d="M 40 566 h 10"></path><g>
<path d="M 50 566 h 0.0"></path><path d="M 1574.0 566 h 0.0"></path><g>
<path d="M 50.0 566 h 0.0"></path><path d="M 1574.0 566 h 0.0"></path><g class="terminal ">
<path d="M 50.0 566 h 0.0"></path><path d="M 112.5 566 h 0.0"></path><rect height="22" rx="10" ry="10" width="62.5" x="50.0" y="555"></rect><text x="81.25" y="570">&#60;usx></text></g><path d="M 112.5 566 h 10"></path><path d="M 122.5 566 h 10"></path><g>
<path d="M 132.5 566 h 0.0"></path><path d="M 1574.0 566 h 0.0"></path><path d="M 132.5 566 a 10 10 0 0 0 10 -10 v -475 a 10 10 0 0 1 10 -10"></path><g>
<path d="M 152.5 71 h 0.0"></path><path d="M 433.5 71 h 0.0"></path><g class="terminal ">
<path d="M 152.5 71 h 0.0"></path><path d="M 240.5 71 h 0.0"></path><rect height="22" rx="10" ry="10" width="88.0" x="152.5" y="60"></rect><text x="196.5" y="75">@version</text></g><path d="M 240.5 71 h 10"></path><path d="M 250.5 71 h 10"></path><g class="terminal ">
<path d="M 260.5 71 h 0.0"></path><path d="M 433.5 71 h 0.0"></path><rect height="22" rx="10" ry="10" width="173.0" x="260.5" y="60"></rect><text x="347.0" y="75">/\d+\.\d+(\.\d+)?/</text></g></g><path d="M 132.5 566 a 10 10 0 0 0 10 -10 v -505 a 10 10 0 0 1 10 -10"></path><g>
<path d="M 152.5 41 h 0.0"></path><path d="M 467.5 41 h 0.0"></path><g class="terminal ">
<path d="M 152.5 41 h 0.0"></path><path d="M 393.5 41 h 0.0"></path><rect height="22" rx="10" ry="10" width="241.0" x="152.5" y="30"></rect><text x="273.0" y="45">@noNamespaceSchemaLocation</text></g><path d="M 393.5 41 h 10"></path><path d="M 403.5 41 h 10"></path><g class="terminal ">
<path d="M 413.5 41 h 0.0"></path><path d="M 467.5 41 h 0.0"></path><rect height="22" rx="10" ry="10" width="54.0" x="413.5" y="30"></rect><text x="440.5" y="45">TEXT</text></g></g><path d="M 132.5 566 h 20"></path><g>
<path d="M 152.5 566 h 20.5"></path><path d="M 1533.5 566 h 20.5"></path><g class="terminal ">
<path d="M 173.0 566 h 0.0"></path><path d="M 244.0 566 h 0.0"></path><rect height="22" rx="10" ry="10" width="71.0" x="173.0" y="555"></rect><text x="208.5" y="570">&#60;book></text></g><path d="M 244.0 566 h 10"></path><path d="M 254.0 566 h 10"></path><g>
<path d="M 264.0 566 h 0.0"></path><path d="M 1533.5 566 h 0.0"></path><path d="M 264.0 566 a 10 10 0 0 0 10 -10 v -297 a 10 10 0 0 1 10 -10"></path><g>
<path d="M 284.0 249 h 0.0"></path><path d="M 1513.5 249 h 0.0"></path><g class="terminal ">
<path d="M 284.0 249 h 0.0"></path><path d="M 346.5 249 h 0.0"></path><rect height="22" rx="10" ry="10" width="62.5" x="284.0" y="238"></rect><text x="315.25" y="253">@code</text></g><path d="M 346.5 249 h 10"></path><g>
<path d="M 356.5 249 h 0.0"></path><path d="M 1513.5 249 h 0.0"></path><path d="M 356.5 249 a 10 10 0 0 0 10 -10 v -99 a 10 10 0 0 1 10 -10 h 827.5"></path><path d="M 356.5 249 h 10"></path><g>
<path d="M 366.5 249 h 0.0"></path><path d="M 366.5 249 a 10 10 0 0 0 10 -10 v -10 a 10 10 0 0 1 10 -10"></path><g class="terminal ">
<path d="M 386.5 219 h 0.0"></path><path d="M 449.0 219 h 0.0"></path><rect height="22" rx="10" ry="10" width="62.5" x="386.5" y="208"></rect><text x="417.75" y="223">"LEV"</text></g><path d="M 366.5 249 a 10 10 0 0 0 10 -10 v -40 a 10 10 0 0 1 10 -10"></path><g class="terminal ">
<path d="M 386.5 189 h 0.0"></path><path d="M 449.0 189 h 0.0"></path><rect height="22" rx="10" ry="10" width="62.5" x="386.5" y="178"></rect><text x="417.75" y="193">"EXO"</text></g><path d="M 366.5 249 a 10 10 0 0 0 10 -10 v -70 a 10 10 0 0 1 10 -10"></path><g class="terminal ">
<path d="M 386.5 159 h 0.0"></path><path d="M 449.0 159 h 0.0"></path><rect height="22" rx="10" ry="10" width="62.5" x="386.5" y="148"></rect><text x="417.75" y="163">"GEN"</text></g><path d="M 366.5 249 h 20"></path><g class="terminal ">
<path d="M 386.5 249 h 0.0"></path><path d="M 449.0 249 h 0.0"></path><rect height="22" rx="10" ry="10" width="62.5" x="386.5" y="238"></rect><text x="417.75" y="253">"NUM"</text></g><path d="M 366.5 249 a 10 10 0 0 1 10 10 v 10 a 10 10 0 0 0 10 10"></path><g class="terminal ">
<path d="M 386.5 279 h 0.0"></path><path d="M 449.0 279 h 0.0"></path><rect height="22" rx="10" ry="10" width="62.5" x="386.5" y="268"></rect><text x="417.75" y="283">"DEU"</text></g><path d="M 366.5 249 a 10 10 0 0 1 10 10 v 40 a 10 10 0 0 0 10 10"></path><g class="terminal ">
<path d="M 386.5 309 h 0.0"></path><path d="M 449.0 309 h 0.0"></path><rect height="22" rx="10" ry="10" width="62.5" x="386.5" y="298"></rect><text x="417.75" y="313">"JOS"</text></g><path d="M 366.5 249 a 10 10 0 0 1 10 10 v 70 a 10 10 0 0 0 10 10"></path><g class="terminal ">
<path d="M 386.5 339 h 0.0"></path><path d="M 449.0 339 h 0.0"></path><rect height="22" rx="10" ry="10" width="62.5" x="386.5" y="328"></rect><text x="417.75" y="343">"JDG"</text></g><path d="M 366.5 249 a 10 10 0 0 1 10 10 v 100 a 10 10 0 0 0 10 10"></path><g class="terminal ">
<path d="M 386.5 369 h 0.0"></path><path d="M 449.0 369 h 0.0"></path><rect height="22" rx="10" ry="10" width="62.5" x="386.5" y="358"></rect><text x="417.75" y="373">"RUT"</text></g><path d="M 366.5 249 a 10 10 0 0 1 10 10 v 130 a 10 10 0 0 0 10 10"></path><g class="terminal ">
<path d="M 386.5 399 h 0.0"></path><path d="M 449.0 399 h 0.0"></path><rect height="22" rx="10" ry="10" width="62.5" x="386.5" y="388"></rect><text x="417.75" y="403">"1SA"</text></g><path d="M 366.5 249 a 10 10 0 0 1 10 10 v 160 a 10 10 0 0 0 10 10"></path><g class="terminal ">
<path d="M 386.5 429 h 0.0"></path><path d="M 449.0 429 h 0.0"></path><rect height="22" rx="10" ry="10" width="62.5" x="386.5" y="418"></rect><text x="417.75" y="433">"2SA"</text></g><path d="M 366.5 249 a 10 10 0 0 1 10 10 v 190 a 10 10 0 0 0 10 10"></path><g class="terminal ">
<path d="M 386.5 459 h 0.0"></path><path d="M 449.0 459 h 0.0"></path><rect height="22" rx="10" ry="10" width="62.5" x="386.5" y="448"></rect><text x="417.75" y="463">"1KI"</text></g><path d="M 366.5 249 a 10 10 0 0 1 10 10 v 220 a 10 10 0 0 0 10 10"></path><g class="terminal ">
<path d="M 386.5 489 h 0.0"></path><path d="M 449.0 489 h 0.0"></path><rect height="22" rx="10" ry="10" width="62.5" x="386.5" y="478"></rect><text x="417.75" y="493">"2KI"</text></g><path d="M 366.5 249 a 10 10 0 0 1 10 10 v 250 a 10 10 0 0 0 10 10"></path><g class="terminal ">
<path d="M 386.5 519 h 0.0"></path><path d="M 449.0 519 h 0.0"></path><rect height="22" rx="10" ry="10" width="62.5" x="386.5" y="508"></rect><text x="417.75" y="523">"1CH"</text></g></g><path d="M 469.0 130 a 10 10 0 0 1 10 10 v 99 a 10 10 0 0 0 10 10"></path><g>
<path d="M 489.0 249 h 0.0"></path><path d="M 489.0 249 a 10 10 0 0 0 10 -10 v -10 a 10 10 0 0 1 10 -10"></path><g class="terminal ">
<path d="M 509.0 219 h 0.0"></path><path d="M 571.5 219 h 0.0"></path><rect height="22" rx="10" ry="10" width="62.5" x="509.0" y="208"></rect><text x="540.25" y="223">"NEH"</text></g><path d="M 489.0 249 a 10 10 0 0 0 10 -10 v -40 a 10 10 0 0 1 10 -10"></path><g class="terminal ">
<path d="M 509.0 189 h 0.0"></path><path d="M 571.5 189 h 0.0"></path><rect height="22" rx="10" ry="10" width="62.5" x="509.0" y="178"></rect><text x="540.25" y="193">"EZR"</text></g><path d="M 489.0 249 a 10 10 0 0 0 10 -10 v -70 a 10 10 0 0 1 10 -10"></path><g class="terminal ">
<path d="M 509.0 159 h 0.0"></path><path d="M 571.5 159 h 0.0"></path><rect height="22" rx="10" ry="10" width="62.5" x="509.0" y="148"></rect><text x="540.25" y="163">"2CH"</text></g><path d="M 489.0 249 h 20"></path><g class="terminal ">
<path d="M 509.0 249 h 0.0"></path><path d="M 571.5 249 h 0.0"></path><rect height="22" rx="10" ry="10" width="62.5" x="509.0" y="238"></rect><text x="540.25" y="253">"EST"</text></g><path d="M 489.0 249 a 10 10 0 0 1 10 10 v 10 a 10 10 0 0 0 10 10"></path><g class="terminal ">
<path d="M 509.0 279 h 0.0"></path><path d="M 571.5 279 h 0.0"></path><rect height="22" rx="10" ry="10" width="62.5" x="509.0" y="268"></rect><text x="540.25" y="283">"JOB"</text></g><path d="M 489.0 249 a 10 10 0 0 1 10 10 v 40 a 10 10 0 0 0 10 10"></path><g class="terminal ">
<path d="M 509.0 309 h 0.0"></path><path d="M 571.5 309 h 0.0"></path><rect height="22" rx="10" ry="10" width="62.5" x="509.0" y="298"></rect><text x="540.25" y="313">"PSA"</text></g><path d="M 489.0 249 a 10 10 0 0 1 10 10 v 70 a 10 10 0 0 0 10 10"></path><g class="terminal ">
<path d="M 509.0 339 h 0.0"></path><path d="M 571.5 339 h 0.0"></path><rect height="22" rx="10" ry="10" width="62.5" x="509.0" y="328"></rect><text x="540.25" y="343">"PRO"</text></g><path d="M 489.0 249 a 10 10 0 0 1 10 10 v 100 a 10 10 0 0 0 10 10"></path><g class="terminal ">
<path d="M 509.0 369 h 0.0"></path><path d="M 571.5 369 h 0.0"></path><rect height="22" rx="10" ry="10" width="62.5" x="509.0" y="358"></rect><text x="540.25" y="373">"ECC"</text></g><path d="M 489.0 249 a 10 10 0 0 1 10 10 v 130 a 10 10 0 0 0 10 10"></path><g class="terminal ">
<path d="M 509.0 399 h 0.0"></path><path d="M 571.5 399 h 0.0"></path><rect height="22" rx="10" ry="10" width="62.5" x="509.0" y="388"></rect><text x="540.25" y="403">"SNG"</text></g><path d="M 489.0 249 a 10 10 0 0 1 10 10 v 160 a 10 10 0 0 0 10 10"></path><g class="terminal ">
<path d="M 509.0 429 h 0.0"></path><path d="M 571.5 429 h 0.0"></path><rect height="22" rx="10" ry="10" width="62.5" x="509.0" y="418"></rect><text x="540.25" y="433">"ISA"</text></g><path d="M 489.0 249 a 10 10 0 0 1 10 10 v 190 a 10 10 0 0 0 10 10"></path><g class="terminal ">
<path d="M 509.0 459 h 0.0"></path><path d="M 571.5 459 h 0.0"></path><rect height="22" rx="10" ry="10" width="62.5" x="509.0" y="448"></rect><text x="540.25" y="463">"JER"</text></g><path d="M 489.0 249 a 10 10 0 0 1 10 10 v 220 a 10 10 0 0 0 10 10"></path><g class="terminal ">
<path d="M 509.0 489 h 0.0"></path><path d="M 571.5 489 h 0.0"></path><rect height="22" rx="10" ry="10" width="62.5" x="509.0" y="478"></rect><text x="540.25" y="493">"LAM"</text></g><path d="M 489.0 249 a 10 10 0 0 1 10 10 v 250 a 10 10 0 0 0 10 10"></path><g class="terminal ">
<path d="M 509.0 519 h 0.0"></path><path d="M 571.5 519 h 0.0"></path><rect height="22" rx="10" ry="10" width="62.5" x="509.0" y="508"></rect><text x="540.25" y="523">"EZK"</text></g></g><path d="M 591.5 130 a 10 10 0 0 1 10 10 v 99 a 10 10 0 0 0 10 10"></path><g>
<path d="M 611.5 249 h 0.0"></path><path d="M 611.5 249 a 10 10 0 0 0 10 -10 v -10 a 10 10 0 0 1 10 -10"></path><g class="terminal ">
<path d="M 631.5 219 h 0.0"></path><path d="M 694.0 219 h 0.0"></path><rect height="22" rx="10" ry="10" width="62.5" x="631.5" y="208"></rect><text x="662.75" y="223">"JOL"</text></g><path d="M 611.5 249 a 10 10 0 0 0 10 -10 v -40 a 10 10 0 0 1 10 -10"></path><g class="terminal ">
<path d="M 631.5 189 h 0.0"></path><path d="M 694.0 189 h 0.0"></path><rect height="22" rx="10" ry="10" width="62.5" x="631.5" y="178"></rect><text x="662.75" y="193">"HOS"</text></g><path d="M 611.5 249 a 10 10 0 0 0 10 -10 v -70 a 10 10 0 0 1 10 -10"></path><g class="terminal ">
<path d="M 631.5 159 h 0.0"></path><path d="M 694.0 159 h 0.0"></path><rect height="22" rx="10" ry="10" width="62.5" x="631.5" y="148"></rect><text x="662.75" y="163">"DAN"</text></g><path d="M 611.5 249 h 20"></path><g class="terminal ">
<path d="M 631.5 249 h 0.0"></path><path d="M 694.0 249 h 0.0"></path><rect height="22" rx="10" ry="10" width="62.5" x="631.5" y="238"></rect><text x="662.75" y="253">"AMO"</text></g><path d="M 611.5 249 a 10 10 0 0 1 10 10 v 10 a 10 10 0 0 0 10 10"></path><g class="terminal ">
<path d="M 631.5 279 h 0.0"></path><path d="M 694.0 279 h 0.0"></path><rect height="22" rx="10" ry="10" width="62.5" x="631.5" y="268"></rect><text x="662.75" y="283">"OBA"</text></g><path d="M 611.5 249 a 10 10 0 0 1 10 10 v 40 a 10 10 0 0 0 10 10"></path><g class="terminal ">
<path d="M 631.5 309 h 0.0"></path><path d="M 694.0 309 h 0.0"></path><rect height="22" rx="10" ry="10" width="62.5" x="631.5" y="298"></rect><text x="662.75" y="313">"JON"</text></g><path d="M 611.5 249 a 10 10 0 0 1 10 10 v 70 a 10 10 0 0 0 10 10"></path><g class="terminal ">
<path d="M 631.5 339 h 0.0"></path><path d="M 694.0 339 h 0.0"></path><rect height="22" rx="10" ry="10" width="62.5" x="631.5" y="328"></rect><text x="662.75" y="343">"MIC"</text></g><path d="M 611.5 249 a 10 10 0 0 1 10 10 v 100 a 10 10 0 0 0 10 10"></path><g class="terminal ">
<path d="M 631.5 369 h 0.0"></path><path d="M 694.0 369 h 0.0"></path><rect height="22" rx="10" ry="10" width="62.5" x="631.5" y="358"></rect><text x="662.75" y="373">"NAM"</text></g><path d="M 611.5 249 a 10 10 0 0 1 10 10 v 130 a 10 10 0 0 0 10 10"></path><g class="terminal ">
<path d="M 631.5 399 h 0.0"></path><path d="M 694.0 399 h 0.0"></path><rect height="22" rx="10" ry="10" width="62.5" x="631.5" y="388"></rect><text x="662.75" y="403">"HAB"</text></g><path d="M 611.5 249 a 10 10 0 0 1 10 10 v 160 a 10 10 0 0 0 10 10"></path><g class="terminal ">
<path d="M 631.5 429 h 0.0"></path><path d="M 694.0 429 h 0.0"></path><rect height="22" rx="10" ry="10" width="62.5" x="631.5" y="418"></rect><text x="662.75" y="433">"ZEP"</text></g><path d="M 611.5 249 a 10 10 0 0 1 10 10 v 190 a 10 10 0 0 0 10 10"></path><g class="terminal ">
<path d="M 631.5 459 h 0.0"></path><path d="M 694.0 459 h 0.0"></path><rect height="22" rx="10" ry="10" width="62.5" x="631.5" y="448"></rect><text x="662.75" y="463">"HAG"</text></g><path d="M 611.5 249 a 10 10 0 0 1 10 10 v 220 a 10 10 0 0 0 10 10"></path><g class="terminal ">
<path d="M 631.5 489 h 0.0"></path><path d="M 694.0 489 h 0.0"></path><rect height="22" rx="10" ry="10" width="62.5" x="631.5" y="478"></rect><text x="662.75" y="493">"ZEC"</text></g><path d="M 611.5 249 a 10 10 0 0 1 10 10 v 250 a 10 10 0 0 0 10 10"></path><g class="terminal ">
<path d="M 631.5 519 h 0.0"></path><path d="M 694.0 519 h 0.0"></path><rect height="22" rx="10" ry="10" width="62.5" x="631.5" y="508"></rect><text x="662.75" y="523">"MAL"</text></g></g><path d="M 714.0 130 a 10 10 0 0 1 10 10 v 99 a 10 10 0 0 0 10 10"></path><g>
<path d="M 734.0 249 h 0.0"></path><path d="M 734.0 249 a 10 10 0 0 0 10 -10 v -10 a 10 10 0 0 1 10 -10"></path><g class="terminal ">
<path d="M 754.0 219 h 0.0"></path><path d="M 816.5 219 h 0.0"></path><rect height="22" rx="10" ry="10" width="62.5" x="754.0" y="208"></rect><text x="785.25" y="223">"LUK"</text></g><path d="M 734.0 249 a 10 10 0 0 0 10 -10 v -40 a 10 10 0 0 1 10 -10"></path><g class="terminal ">
<path d="M 754.0 189 h 0.0"></path><path d="M 816.5 189 h 0.0"></path><rect height="22" rx="10" ry="10" width="62.5" x="754.0" y="178"></rect><text x="785.25" y="193">"MRK"</text></g><path d="M 734.0 249 a 10 10 0 0 0 10 -10 v -70 a 10 10 0 0 1 10 -10"></path><g class="terminal ">
<path d="M 754.0 159 h 0.0"></path><path d="M 816.5 159 h 0.0"></path><rect height="22" rx="10" ry="10" width="62.5" x="754.0" y="148"></rect><text x="785.25" y="163">"MAT"</text></g><path d="M 734.0 249 h 20"></path><g class="terminal ">
<path d="M 754.0 249 h 0.0"></path><path d="M 816.5 249 h 0.0"></path><rect height="22" rx="10" ry="10" width="62.5" x="754.0" y="238"></rect><text x="785.25" y="253">"JHN"</text></g><path d="M 734.0 249 a 10 10 0 0 1 10 10 v 10 a 10 10 0 0 0 10 10"></path><g class="terminal ">
<path d="M 754.0 279 h 0.0"></path><path d="M 816.5 279 h 0.0"></path><rect height="22" rx="10" ry="10" width="62.5" x="754.0" y="268"></rect><text x="785.25" y="283">"ACT"</text></g><path d="M 734.0 249 a 10 10 0 0 1 10 10 v 40 a 10 10 0 0 0 10 10"></path><g class="terminal ">
<path d="M 754.0 309 h 0.0"></path><path d="M 816.5 309 h 0.0"></path><rect height="22" rx="10" ry="10" width="62.5" x="754.0" y="298"></rect><text x="785.25" y="313">"ROM"</text></g><path d="M 734.0 249 a 10 10 0 0 1 10 10 v 70 a 10 10 0 0 0 10 10"></path><g class="terminal ">
<path d="M 754.0 339 h 0.0"></path><path d="M 816.5 339 h 0.0"></path><rect height="22" rx="10" ry="10" width="62.5" x="754.0" y="328"></rect><text x="785.25" y="343">"1CO"</text></g><path d="M 734.0 249 a 10 10 0 0 1 10 10 v 100 a 10 10 0 0 0 10 10"></path><g class="terminal ">
<path d="M 754.0 369 h 0.0"></path><path d="M 816.5 369 h 0.0"></path><rect height="22" rx="10" ry="10" width="62.5" x="754.0" y="358"></rect><text x="785.25" y="373">"2CO"</text></g><path d="M 734.0 249 a 10 10 0 0 1 10 10 v 130 a 10 10 0 0 0 10 10"></path><g class="terminal ">
<path d="M 754.0 399 h 0.0"></path><path d="M 816.5 399 h 0.0"></path><rect height="22" rx="10" ry="10" width="62.5" x="754.0" y="388"></rect><text x="785.25" y="403">"GAL"</text></g><path d="M 734.0 249 a 10 10 0 0 1 10 10 v 160 a 10 10 0 0 0 10 10"></path><g class="terminal ">
<path d="M 754.0 429 h 0.0"></path><path d="M 816.5 429 h 0.0"></path><rect height="22" rx="10" ry="10" width="62.5" x="754.0" y="418"></rect><text x="785.25" y="433">"EPH"</text></g><path d="M 734.0 249 a 10 10 0 0 1 10 10 v 190 a 10 10 0 0 0 10 10"></path><g class="terminal ">
<path d="M 754.0 459 h 0.0"></path><path d="M 816.5 459 h 0.0"></path><rect height="22" rx="10" ry="10" width="62.5" x="754.0" y="448"></rect><text x="785.25" y="463">"PHP"</text></g><path d="M 734.0 249 a 10 10 0 0 1 10 10 v 220 a 10 10 0 0 0 10 10"></path><g class="terminal ">
<path d="M 754.0 489 h 0.0"></path><path d="M 816.5 489 h 0.0"></path><rect height="22" rx="10" ry="10" width="62.5" x="754.0" y="478"></rect><text x="785.25" y="493">"COL"</text></g><path d="M 734.0 249 a 10 10 0 0 1 10 10 v 250 a 10 10 0 0 0 10 10"></path><g class="terminal ">
<path d="M 754.0 519 h 0.0"></path><path d="M 816.5 519 h 0.0"></path><rect height="22" rx="10" ry="10" width="62.5" x="754.0" y="508"></rect><text x="785.25" y="523">"1TH"</text></g></g><path d="M 836.5 130 a 10 10 0 0 1 10 10 v 99 a 10 10 0 0 0 10 10"></path><g>
<path d="M 856.5 249 h 0.0"></path><path d="M 856.5 249 a 10 10 0 0 0 10 -10 v -10 a 10 10 0 0 1 10 -10"></path><g class="terminal ">
<path d="M 876.5 219 h 0.0"></path><path d="M 939.0 219 h 0.0"></path><rect height="22" rx="10" ry="10" width="62.5" x="876.5" y="208"></rect><text x="907.75" y="223">"2TI"</text></g><path d="M 856.5 249 a 10 10 0 0 0 10 -10 v -40 a 10 10 0 0 1 10 -10"></path><g class="terminal ">
<path d="M 876.5 189 h 0.0"></path><path d="M 939.0 189 h 0.0"></path><rect height="22" rx="10" ry="10" width="62.5" x="876.5" y="178"></rect><text x="907.75" y="193">"1TI"</text></g><path d="M 856.5 249 a 10 10 0 0 0 10 -10 v -70 a 10 10 0 0 1 10 -10"></path><g class="terminal ">
<path d="M 876.5 159 h 0.0"></path><path d="M 939.0 159 h 0.0"></path><rect height="22" rx="10" ry="10" width="62.5" x="876.5" y="148"></rect><text x="907.75" y="163">"2TH"</text></g><path d="M 856.5 249 h 20"></path><g class="terminal ">
<path d="M 876.5 249 h 0.0"></path><path d="M 939.0 249 h 0.0"></path><rect height="22" rx="10" ry="10" width="62.5" x="876.5" y="238"></rect><text x="907.75" y="253">"TIT"</text></g><path d="M 856.5 249 a 10 10 0 0 1 10 10 v 10 a 10 10 0 0 0 10 10"></path><g class="terminal ">
<path d="M 876.5 279 h 0.0"></path><path d="M 939.0 279 h 0.0"></path><rect height="22" rx="10" ry="10" width="62.5" x="876.5" y="268"></rect><text x="907.75" y="283">"PHM"</text></g><path d="M 856.5 249 a 10 10 0 0 1 10 10 v 40 a 10 10 0 0 0 10 10"></path><g class="terminal ">
<path d="M 876.5 309 h 0.0"></path><path d="M 939.0 309 h 0.0"></path><rect height="22" rx="10" ry="10" width="62.5" x="876.5" y="298"></rect><text x="907.75" y="313">"HEB"</text></g><path d="M 856.5 249 a 10 10 0 0 1 10 10 v 70 a 10 10 0 0 0 10 10"></path><g class="terminal ">
<path d="M 876.5 339 h 0.0"></path><path d="M 939.0 339 h 0.0"></path><rect height="22" rx="10" ry="10" width="62.5" x="876.5" y="328"></rect><text x="907.75" y="343">"JAS"</text></g><path d="M 856.5 249 a 10 10 0 0 1 10 10 v 100 a 10 10 0 0 0 10 10"></path><g class="terminal ">
<path d="M 876.5 369 h 0.0"></path><path d="M 939.0 369 h 0.0"></path><rect height="22" rx="10" ry="10" width="62.5" x="876.5" y="358"></rect><text x="907.75" y="373">"1PE"</text></g><path d="M 856.5 249 a 10 10 0 0 1 10 10 v 130 a 10 10 0 0 0 10 10"></path><g class="terminal ">
<path d="M 876.5 399 h 0.0"></path><path d="M 939.0 399 h 0.0"></path><rect height="22" rx="10" ry="10" width="62.5" x="876.5" y="388"></rect><text x="907.75" y="403">"2PE"</text></g><path d="M 856.5 249 a 10 10 0 0 1 10 10 v 160 a 10 10 0 0 0 10 10"></path><g class="terminal ">
<path d="M 876.5 429 h 0.0"></path><path d="M 939.0 429 h 0.0"></path><rect height="22" rx="10" ry="10" width="62.5" x="876.5" y="418"></rect><text x="907.75" y="433">"1JN"</text></g><path d="M 856.5 249 a 10 10 0 0 1 10 10 v 190 a 10 10 0 0 0 10 10"></path><g class="terminal ">
<path d="M 876.5 459 h 0.0"></path><path d="M 939.0 459 h 0.0"></path><rect height="22" rx="10" ry="10" width="62.5" x="876.5" y="448"></rect><text x="907.75" y="463">"2JN"</text></g><path d="M 856.5 249 a 10 10 0 0 1 10 10 v 220 a 10 10 0 0 0 10 10"></path><g class="terminal ">
<path d="M 876.5 489 h 0.0"></path><path d="M 939.0 489 h 0.0"></path><rect height="22" rx="10" ry="10" width="62.5" x="876.5" y="478"></rect><text x="907.75" y="493">"3JN"</text></g><path d="M 856.5 249 a 10 10 0 0 1 10 10 v 250 a 10 10 0 0 0 10 10"></path><g class="terminal ">
<path d="M 876.5 519 h 0.0"></path><path d="M 939.0 519 h 0.0"></path><rect height="22" rx="10" ry="10" width="62.5" x="876.5" y="508"></rect><text x="907.75" y="523">"JUD"</text></g></g><path d="M 959.0 130 a 10 10 0 0 1 10 10 v 99 a 10 10 0 0 0 10 10"></path><g>
<path d="M 979.0 249 h 0.0"></path><path d="M 979.0 249 a 10 10 0 0 0 10 -10 v -10 a 10 10 0 0 1 10 -10"></path><g class="terminal ">
<path d="M 999.0 219 h 0.0"></path><path d="M 1061.5 219 h 0.0"></path><rect height="22" rx="10" ry="10" width="62.5" x="999.0" y="208"></rect><text x="1030.25" y="223">"JDT"</text></g><path d="M 979.0 249 a 10 10 0 0 0 10 -10 v -40 a 10 10 0 0 1 10 -10"></path><g class="terminal ">
<path d="M 999.0 189 h 0.0"></path><path d="M 1061.5 189 h 0.0"></path><rect height="22" rx="10" ry="10" width="62.5" x="999.0" y="178"></rect><text x="1030.25" y="193">"TOB"</text></g><path d="M 979.0 249 a 10 10 0 0 0 10 -10 v -70 a 10 10 0 0 1 10 -10"></path><g class="terminal ">
<path d="M 999.0 159 h 0.0"></path><path d="M 1061.5 159 h 0.0"></path><rect height="22" rx="10" ry="10" width="62.5" x="999.0" y="148"></rect><text x="1030.25" y="163">"REV"</text></g><path d="M 979.0 249 h 20"></path><g class="terminal ">
<path d="M 999.0 249 h 0.0"></path><path d="M 1061.5 249 h 0.0"></path><rect height="22" rx="10" ry="10" width="62.5" x="999.0" y="238"></rect><text x="1030.25" y="253">"ESG"</text></g><path d="M 979.0 249 a 10 10 0 0 1 10 10 v 10 a 10 10 0 0 0 10 10"></path><g class="terminal ">
<path d="M 999.0 279 h 0.0"></path><path d="M 1061.5 279 h 0.0"></path><rect height="22" rx="10" ry="10" width="62.5" x="999.0" y="268"></rect><text x="1030.25" y="283">"WIS"</text></g><path d="M 979.0 249 a 10 10 0 0 1 10 10 v 40 a 10 10 0 0 0 10 10"></path><g class="terminal ">
<path d="M 999.0 309 h 0.0"></path><path d="M 1061.5 309 h 0.0"></path><rect height="22" rx="10" ry="10" width="62.5" x="999.0" y="298"></rect><text x="1030.25" y="313">"SIR"</text></g><path d="M 979.0 249 a 10 10 0 0 1 10 10 v 70 a 10 10 0 0 0 10 10"></path><g class="terminal ">
<path d="M 999.0 339 h 0.0"></path><path d="M 1061.5 339 h 0.0"></path><rect height="22" rx="10" ry="10" width="62.5" x="999.0" y="328"></rect><text x="1030.25" y="343">"BAR"</text></g><path d="M 979.0 249 a 10 10 0 0 1 10 10 v 100 a 10 10 0 0 0 10 10"></path><g class="terminal ">
<path d="M 999.0 369 h 0.0"></path><path d="M 1061.5 369 h 0.0"></path><rect height="22" rx="10" ry="10" width="62.5" x="999.0" y="358"></rect><text x="1030.25" y="373">"LJE"</text></g><path d="M 979.0 249 a 10 10 0 0 1 10 10 v 130 a 10 10 0 0 0 10 10"></path><g class="terminal ">
<path d="M 999.0 399 h 0.0"></path><path d="M 1061.5 399 h 0.0"></path><rect height="22" rx="10" ry="10" width="62.5" x="999.0" y="388"></rect><text x="1030.25" y="403">"S3Y"</text></g><path d="M 979.0 249 a 10 10 0 0 1 10 10 v 160 a 10 10 0 0 0 10 10"></path><g class="terminal ">
<path d="M 999.0 429 h 0.0"></path><path d="M 1061.5 429 h 0.0"></path><rect height="22" rx="10" ry="10" width="62.5" x="999.0" y="418"></rect><text x="1030.25" y="433">"SUS"</text></g><path d="M 979.0 249 a 10 10 0 0 1 10 10 v 190 a 10 10 0 0 0 10 10"></path><g class="terminal ">
<path d="M 999.0 459 h 0.0"></path><path d="M 1061.5 459 h 0.0"></path><rect height="22" rx="10" ry="10" width="62.5" x="999.0" y="448"></rect><text x="1030.25" y="463">"BEL"</text></g><path d="M 979.0 249 a 10 10 0 0 1 10 10 v 220 a 10 10 0 0 0 10 10"></path><g class="terminal ">
<path d="M 999.0 489 h 0.0"></path><path d="M 1061.5 489 h 0.0"></path><rect height="22" rx="10" ry="10" width="62.5" x="999.0" y="478"></rect><text x="1030.25" y="493">"1MA"</text></g><path d="M 979.0 249 a 10 10 0 0 1 10 10 v 250 a 10 10 0 0 0 10 10"></path><g class="terminal ">
<path d="M 999.0 519 h 0.0"></path><path d="M 1061.5 519 h 0.0"></path><rect height="22" rx="10" ry="10" width="62.5" x="999.0" y="508"></rect><text x="1030.25" y="523">"2MA"</text></g></g><path d="M 1081.5 130 a 10 10 0 0 1 10 10 v 99 a 10 10 0 0 0 10 10"></path><g>
<path d="M 1101.5 249 h 0.0"></path><path d="M 1101.5 249 a 10 10 0 0 0 10 -10 v -10 a 10 10 0 0 1 10 -10"></path><g class="terminal ">
<path d="M 1121.5 219 h 0.0"></path><path d="M 1184.0 219 h 0.0"></path><rect height="22" rx="10" ry="10" width="62.5" x="1121.5" y="208"></rect><text x="1152.75" y="223">"1ES"</text></g><path d="M 1101.5 249 a 10 10 0 0 0 10 -10 v -40 a 10 10 0 0 1 10 -10"></path><g class="terminal ">
<path d="M 1121.5 189 h 0.0"></path><path d="M 1184.0 189 h 0.0"></path><rect height="22" rx="10" ry="10" width="62.5" x="1121.5" y="178"></rect><text x="1152.75" y="193">"4MA"</text></g><path d="M 1101.5 249 a 10 10 0 0 0 10 -10 v -70 a 10 10 0 0 1 10 -10"></path><g class="terminal ">
<path d="M 1121.5 159 h 0.0"></path><path d="M 1184.0 159 h 0.0"></path><rect height="22" rx="10" ry="10" width="62.5" x="1121.5" y="148"></rect><text x="1152.75" y="163">"3MA"</text></g><path d="M 1101.5 249 h 20"></path><g class="terminal ">
<path d="M 1121.5 249 h 0.0"></path><path d="M 1184.0 249 h 0.0"></path><rect height="22" rx="10" ry="10" width="62.5" x="1121.5" y="238"></rect><text x="1152.75" y="253">"2ES"</text></g><path d="M 1101.5 249 a 10 10 0 0 1 10 10 v 10 a 10 10 0 0 0 10 10"></path><g class="terminal ">
<path d="M 1121.5 279 h 0.0"></path><path d="M 1184.0 279 h 0.0"></path><rect height="22" rx="10" ry="10" width="62.5" x="1121.5" y="268"></rect><text x="1152.75" y="283">"MAN"</text></g><path d="M 1101.5 249 a 10 10 0 0 1 10 10 v 40 a 10 10 0 0 0 10 10"></path><g class="terminal ">
<path d="M 1121.5 309 h 0.0"></path><path d="M 1184.0 309 h 0.0"></path><rect height="22" rx="10" ry="10" width="62.5" x="1121.5" y="298"></rect><text x="1152.75" y="313">"PS2"</text></g><path d="M 1101.5 249 a 10 10 0 0 1 10 10 v 70 a 10 10 0 0 0 10 10"></path><g class="terminal ">
<path d="M 1121.5 339 h 0.0"></path><path d="M 1184.0 339 h 0.0"></path><rect height="22" rx="10" ry="10" width="62.5" x="1121.5" y="328"></rect><text x="1152.75" y="343">"ODA"</text></g><path d="M 1101.5 249 a 10 10 0 0 1 10 10 v 100 a 10 10 0 0 0 10 10"></path><g class="terminal ">
<path d="M 1121.5 369 h 0.0"></path><path d="M 1184.0 369 h 0.0"></path><rect height="22" rx="10" ry="10" width="62.5" x="1121.5" y="358"></rect><text x="1152.75" y="373">"PSS"</text></g><path d="M 1101.5 249 a 10 10 0 0 1 10 10 v 130 a 10 10 0 0 0 10 10"></path><g class="terminal ">
<path d="M 1121.5 399 h 0.0"></path><path d="M 1184.0 399 h 0.0"></path><rect height="22" rx="10" ry="10" width="62.5" x="1121.5" y="388"></rect><text x="1152.75" y="403">"EZA"</text></g><path d="M 1101.5 249 a 10 10 0 0 1 10 10 v 160 a 10 10 0 0 0 10 10"></path><g class="terminal ">
<path d="M 1121.5 429 h 0.0"></path><path d="M 1184.0 429 h 0.0"></path><rect height="22" rx="10" ry="10" width="62.5" x="1121.5" y="418"></rect><text x="1152.75" y="433">"5EZ"</text></g><path d="M 1101.5 249 a 10 10 0 0 1 10 10 v 190 a 10 10 0 0 0 10 10"></path><g class="terminal ">
<path d="M 1121.5 459 h 0.0"></path><path d="M 1184.0 459 h 0.0"></path><rect height="22" rx="10" ry="10" width="62.5" x="1121.5" y="448"></rect><text x="1152.75" y="463">"6EZ"</text></g><path d="M 1101.5 249 a 10 10 0 0 1 10 10 v 220 a 10 10 0 0 0 10 10"></path><g class="terminal ">
<path d="M 1121.5 489 h 0.0"></path><path d="M 1184.0 489 h 0.0"></path><rect height="22" rx="10" ry="10" width="62.5" x="1121.5" y="478"></rect><text x="1152.75" y="493">"DAG"</text></g><path d="M 1101.5 249 a 10 10 0 0 1 10 10 v 250 a 10 10 0 0 0 10 10"></path><g class="terminal ">
<path d="M 1121.5 519 h 0.0"></path><path d="M 1184.0 519 h 0.0"></path><rect height="22" rx="10" ry="10" width="62.5" x="1121.5" y="508"></rect><text x="1152.75" y="523">"PS3"</text></g></g><path d="M 1204.0 130 a 10 10 0 0 1 10 10 v 99 a 10 10 0 0 0 10 10"></path><g>
<path d="M 1224.0 249 h 0.0"></path><path d="M 1224.0 249 a 10 10 0 0 0 10 -10 v -10 a 10 10 0 0 1 10 -10"></path><g class="terminal ">
<path d="M 1244.0 219 h 0.0"></path><path d="M 1306.5 219 h 0.0"></path><rect height="22" rx="10" ry="10" width="62.5" x="1244.0" y="208"></rect><text x="1275.25" y="223">"JUB"</text></g><path d="M 1224.0 249 a 10 10 0 0 0 10 -10 v -40 a 10 10 0 0 1 10 -10"></path><g class="terminal ">
<path d="M 1244.0 189 h 0.0"></path><path d="M 1306.5 189 h 0.0"></path><rect height="22" rx="10" ry="10" width="62.5" x="1244.0" y="178"></rect><text x="1275.25" y="193">"LBA"</text></g><path d="M 1224.0 249 a 10 10 0 0 0 10 -10 v -70 a 10 10 0 0 1 10 -10"></path><g class="terminal ">
<path d="M 1244.0 159 h 0.0"></path><path d="M 1306.5 159 h 0.0"></path><rect height="22" rx="10" ry="10" width="62.5" x="1244.0" y="148"></rect><text x="1275.25" y="163">"2BA"</text></g><path d="M 1224.0 249 h 20"></path><g class="terminal ">
<path d="M 1244.0 249 h 0.0"></path><path d="M 1306.5 249 h 0.0"></path><rect height="22" rx="10" ry="10" width="62.5" x="1244.0" y="238"></rect><text x="1275.25" y="253">"ENO"</text></g><path d="M 1224.0 249 a 10 10 0 0 1 10 10 v 10 a 10 10 0 0 0 10 10"></path><g class="terminal ">
<path d="M 1244.0 279 h 0.0"></path><path d="M 1306.5 279 h 0.0"></path><rect height="22" rx="10" ry="10" width="62.5" x="1244.0" y="268"></rect><text x="1275.25" y="283">"1MQ"</text></g><path d="M 1224.0 249 a 10 10 0 0 1 10 10 v 40 a 10 10 0 0 0 10 10"></path><g class="terminal ">
<path d="M 1244.0 309 h 0.0"></path><path d="M 1306.5 309 h 0.0"></path><rect height="22" rx="10" ry="10" width="62.5" x="1244.0" y="298"></rect><text x="1275.25" y="313">"2MQ"</text></g><path d="M 1224.0 249 a 10 10 0 0 1 10 10 v 70 a 10 10 0 0 0 10 10"></path><g class="terminal ">
<path d="M 1244.0 339 h 0.0"></path><path d="M 1306.5 339 h 0.0"></path><rect height="22" rx="10" ry="10" width="62.5" x="1244.0" y="328"></rect><text x="1275.25" y="343">"3MQ"</text></g><path d="M 1224.0 249 a 10 10 0 0 1 10 10 v 100 a 10 10 0 0 0 10 10"></path><g class="terminal ">
<path d="M 1244.0 369 h 0.0"></path><path d="M 1306.5 369 h 0.0"></path><rect height="22" rx="10" ry="10" width="62.5" x="1244.0" y="358"></rect><text x="1275.25" y="373">"REP"</text></g><path d="M 1224.0 249 a 10 10 0 0 1 10 10 v 130 a 10 10 0 0 0 10 10"></path><g class="terminal ">
<path d="M 1244.0 399 h 0.0"></path><path d="M 1306.5 399 h 0.0"></path><rect height="22" rx="10" ry="10" width="62.5" x="1244.0" y="388"></rect><text x="1275.25" y="403">"4BA"</text></g><path d="M 1224.0 249 a 10 10 0 0 1 10 10 v 160 a 10 10 0 0 0 10 10"></path><g class="terminal ">
<path d="M 1244.0 429 h 0.0"></path><path d="M 1306.5 429 h 0.0"></path><rect height="22" rx="10" ry="10" width="62.5" x="1244.0" y="418"></rect><text x="1275.25" y="433">"LAO"</text></g><path d="M 1224.0 249 a 10 10 0 0 1 10 10 v 190 a 10 10 0 0 0 10 10"></path><g class="terminal ">
<path d="M 1244.0 459 h 0.0"></path><path d="M 1323.5 459 h 0.0"></path><rect height="22" rx="10" ry="10" width="79.5" x="1244.0" y="448"></rect><text x="1283.75" y="463">/\S{3}/</text></g></g></g></g><path d="M 264.0 566 a 10 10 0 0 0 10 -10 v -435 a 10 10 0 0 1 10 -10"></path><g>
<path d="M 284.0 111 h 0.0"></path><path d="M 429.0 111 h 0.0"></path><g class="terminal ">
<path d="M 284.0 111 h 0.0"></path><path d="M 355.0 111 h 0.0"></path><rect height="22" rx="10" ry="10" width="71.0" x="284.0" y="100"></rect><text x="319.5" y="115">@style</text></g><path d="M 355.0 111 h 10"></path><path d="M 365.0 111 h 10"></path><g class="terminal ">
<path d="M 375.0 111 h 0.0"></path><path d="M 429.0 111 h 0.0"></path><rect height="22" rx="10" ry="10" width="54.0" x="375.0" y="100"></rect><text x="402.0" y="115">"id"</text></g></g><path d="M 264.0 566 h 20"></path><g>
<path d="M 284.0 566 h 567.75"></path><path d="M 945.75 566 h 567.75"></path><g>
<path d="M 851.75 566 h 0.0"></path><path d="M 945.75 566 h 0.0"></path><path d="M 851.75 566 h 20"></path><g>
<path d="M 871.75 566 h 54.0"></path></g><path d="M 925.75 566 h 20"></path><path d="M 851.75 566 a 10 10 0 0 1 10 10 v 0 a 10 10 0 0 0 10 10"></path><g>
<path d="M 871.75 586 h 0.0"></path><path d="M 925.75 586 h 0.0"></path><g class="terminal ">
<path d="M 871.75 586 h 0.0"></path><path d="M 925.75 586 h 0.0"></path><rect height="22" rx="10" ry="10" width="54.0" x="871.75" y="575"></rect><text x="898.75" y="590">TEXT</text></g></g><path d="M 925.75 586 a 10 10 0 0 0 10 -10 v 0 a 10 10 0 0 1 10 -10"></path></g></g><path d="M 1513.5 566 h 20"></path></g></g><path d="M 1554.0 566 h 20"></path><path d="M 132.5 566 a 10 10 0 0 1 10 10 v 69 a 10 10 0 0 0 10 10"></path><g>
<path d="M 152.5 655 h 0.0"></path><path d="M 1554.0 655 h 0.0"></path><g>
<path d="M 152.5 655 h 0.0"></path><path d="M 326.0 655 h 0.0"></path><path d="M 152.5 655 a 10 10 0 0 0 10 -10 v 0 a 10 10 0 0 1 10 -10"></path><g>
<path d="M 172.5 635 h 133.5"></path></g><path d="M 306.0 635 a 10 10 0 0 1 10 10 v 0 a 10 10 0 0 0 10 10"></path><path d="M 152.5 655 h 20"></path><g>
<path d="M 172.5 655 h 0.0"></path><path d="M 306.0 655 h 0.0"></path><path d="M 172.5 655 h 10"></path><g class="non-terminal ">
<path d="M 182.5 655 h 0.0"></path><path d="M 296.0 655 h 0.0"></path><rect height="22" width="113.5" x="182.5" y="644"></rect><text x="239.25" y="659">BookHeaders</text></g><path d="M 296.0 655 h 10"></path><path d="M 182.5 655 a 10 10 0 0 0 -10 10 v 0 a 10 10 0 0 0 10 10"></path><g>
<path d="M 182.5 675 h 113.5"></path></g><path d="M 296.0 675 a 10 10 0 0 0 10 -10 v 0 a 10 10 0 0 0 -10 -10"></path></g><path d="M 306.0 655 h 20"></path></g><path d="M 326.0 655 h 10"></path><path d="M 336.0 655 h 10"></path><g>
<path d="M 346.0 655 h 0.0"></path><path d="M 471.0 655 h 0.0"></path><path d="M 346.0 655 h 10"></path><g class="non-terminal ">
<path d="M 356.0 655 h 0.0"></path><path d="M 461.0 655 h 0.0"></path><rect height="22" width="105.0" x="356.0" y="644"></rect><text x="408.5" y="659">BookTitles</text></g><path d="M 461.0 655 h 10"></path><path d="M 356.0 655 a 10 10 0 0 0 -10 10 v 0 a 10 10 0 0 0 10 10"></path><g>
<path d="M 356.0 675 h 105.0"></path></g><path d="M 461.0 675 a 10 10 0 0 0 10 -10 v 0 a 10 10 0 0 0 -10 -10"></path></g><path d="M 471.0 655 h 10"></path><path d="M 481.0 655 h 10"></path><g>
<path d="M 491.0 655 h 0.0"></path><path d="M 707.0 655 h 0.0"></path><path d="M 491.0 655 a 10 10 0 0 0 10 -10 v 0 a 10 10 0 0 1 10 -10"></path><g>
<path d="M 511.0 635 h 176.0"></path></g><path d="M 687.0 635 a 10 10 0 0 1 10 10 v 0 a 10 10 0 0 0 10 10"></path><path d="M 491.0 655 h 20"></path><g>
<path d="M 511.0 655 h 0.0"></path><path d="M 687.0 655 h 0.0"></path><path d="M 511.0 655 h 10"></path><g class="non-terminal ">
<path d="M 521.0 655 h 0.0"></path><path d="M 677.0 655 h 0.0"></path><rect height="22" width="156.0" x="521.0" y="644"></rect><text x="599.0" y="659">BookIntroduction</text></g><path d="M 677.0 655 h 10"></path><path d="M 521.0 655 a 10 10 0 0 0 -10 10 v 0 a 10 10 0 0 0 10 10"></path><g>
<path d="M 521.0 675 h 156.0"></path></g><path d="M 677.0 675 a 10 10 0 0 0 10 -10 v 0 a 10 10 0 0 0 -10 -10"></path></g><path d="M 687.0 655 h 20"></path></g><path d="M 707.0 655 h 10"></path><path d="M 717.0 655 h 10"></path><g>
<path d="M 727.0 655 h 0.0"></path><path d="M 1019.5 655 h 0.0"></path><path d="M 727.0 655 a 10 10 0 0 0 10 -10 v 0 a 10 10 0 0 1 10 -10"></path><g>
<path d="M 747.0 635 h 252.5"></path></g><path d="M 999.5 635 a 10 10 0 0 1 10 10 v 0 a 10 10 0 0 0 10 10"></path><path d="M 727.0 655 h 20"></path><g>
<path d="M 747.0 655 h 0.0"></path><path d="M 999.5 655 h 0.0"></path><path d="M 747.0 655 h 10"></path><g class="non-terminal ">
<path d="M 757.0 655 h 0.0"></path><path d="M 989.5 655 h 0.0"></path><rect height="22" width="232.5" x="757.0" y="644"></rect><text x="873.25" y="659">BookIntroductionEndTitles</text></g><path d="M 989.5 655 h 10"></path><path d="M 757.0 655 a 10 10 0 0 0 -10 10 v 0 a 10 10 0 0 0 10 10"></path><g>
<path d="M 757.0 675 h 232.5"></path></g><path d="M 989.5 675 a 10 10 0 0 0 10 -10 v 0 a 10 10 0 0 0 -10 -10"></path></g><path d="M 999.5 655 h 20"></path></g><path d="M 1019.5 655 h 10"></path><path d="M 1029.5 655 h 10"></path><g>
<path d="M 1039.5 655 h 0.0"></path><path d="M 1235.5 655 h 0.0"></path><path d="M 1039.5 655 h 20"></path><g>
<path d="M 1059.5 655 h 156.0"></path></g><path d="M 1215.5 655 h 20"></path><path d="M 1039.5 655 a 10 10 0 0 1 10 10 v 0 a 10 10 0 0 0 10 10"></path><g class="non-terminal ">
<path d="M 1059.5 675 h 0.0"></path><path d="M 1215.5 675 h 0.0"></path><rect height="22" width="156.0" x="1059.5" y="664"></rect><text x="1137.5" y="679">BookChapterLabel</text></g><path d="M 1215.5 675 a 10 10 0 0 0 10 -10 v 0 a 10 10 0 0 1 10 -10"></path></g><path d="M 1235.5 655 h 10"></path><path d="M 1245.5 655 h 10"></path><g class="non-terminal ">
<path d="M 1255.5 655 h 0.0"></path><path d="M 1335.0 655 h 0.0"></path><rect height="22" width="79.5" x="1255.5" y="644"></rect><text x="1295.25" y="659">Chapter</text></g><path d="M 1335.0 655 h 10"></path><path d="M 1345.0 655 h 10"></path><g>
<path d="M 1355.0 655 h 0.0"></path><path d="M 1554.0 655 h 0.0"></path><path d="M 1355.0 655 h 10"></path><g>
<path d="M 1365.0 655 h 0.0"></path><path d="M 1544.0 655 h 0.0"></path><path d="M 1365.0 655 h 20"></path><g class="non-terminal ">
<path d="M 1385.0 655 h 29.75"></path><path d="M 1494.25 655 h 29.75"></path><rect height="22" width="79.5" x="1414.75" y="644"></rect><text x="1454.5" y="659">Chapter</text></g><path d="M 1524.0 655 h 20"></path><path d="M 1365.0 655 a 10 10 0 0 1 10 10 v 10 a 10 10 0 0 0 10 10"></path><g class="non-terminal ">
<path d="M 1385.0 685 h 42.5"></path><path d="M 1481.5 685 h 42.5"></path><rect height="22" width="54.0" x="1427.5" y="674"></rect><text x="1454.5" y="689">Para</text></g><path d="M 1524.0 685 a 10 10 0 0 0 10 -10 v -10 a 10 10 0 0 1 10 -10"></path><path d="M 1365.0 655 a 10 10 0 0 1 10 10 v 40 a 10 10 0 0 0 10 10"></path><g class="non-terminal ">
<path d="M 1385.0 715 h 42.5"></path><path d="M 1481.5 715 h 42.5"></path><rect height="22" width="54.0" x="1427.5" y="704"></rect><text x="1454.5" y="719">List</text></g><path d="M 1524.0 715 a 10 10 0 0 0 10 -10 v -40 a 10 10 0 0 1 10 -10"></path><path d="M 1365.0 655 a 10 10 0 0 1 10 10 v 70 a 10 10 0 0 0 10 10"></path><g class="non-terminal ">
<path d="M 1385.0 745 h 38.25"></path><path d="M 1485.75 745 h 38.25"></path><rect height="22" width="62.5" x="1423.25" y="734"></rect><text x="1454.5" y="749">Table</text></g><path d="M 1524.0 745 a 10 10 0 0 0 10 -10 v -70 a 10 10 0 0 1 10 -10"></path><path d="M 1365.0 655 a 10 10 0 0 1 10 10 v 100 a 10 10 0 0 0 10 10"></path><g class="non-terminal ">
<path d="M 1385.0 775 h 25.5"></path><path d="M 1498.5 775 h 25.5"></path><rect height="22" width="88.0" x="1410.5" y="764"></rect><text x="1454.5" y="779">Footnote</text></g><path d="M 1524.0 775 a 10 10 0 0 0 10 -10 v -100 a 10 10 0 0 1 10 -10"></path><path d="M 1365.0 655 a 10 10 0 0 1 10 10 v 130 a 10 10 0 0 0 10 10"></path><g class="non-terminal ">
<path d="M 1385.0 805 h 0.0"></path><path d="M 1524.0 805 h 0.0"></path><rect height="22" width="139.0" x="1385.0" y="794"></rect><text x="1454.5" y="809">CrossReference</text></g><path d="M 1524.0 805 a 10 10 0 0 0 10 -10 v -130 a 10 10 0 0 1 10 -10"></path><path d="M 1365.0 655 a 10 10 0 0 1 10 10 v 160 a 10 10 0 0 0 10 10"></path><g class="non-terminal ">
<path d="M 1385.0 835 h 29.75"></path><path d="M 1494.25 835 h 29.75"></path><rect height="22" width="79.5" x="1414.75" y="824"></rect><text x="1454.5" y="839">Sidebar</text></g><path d="M 1524.0 835 a 10 10 0 0 0 10 -10 v -160 a 10 10 0 0 1 10 -10"></path></g><path d="M 1544.0 655 h 10"></path><path d="M 1365.0 655 a 10 10 0 0 0 -10 10 v 189 a 10 10 0 0 0 10 10"></path><g>
<path d="M 1365.0 864 h 179.0"></path></g><path d="M 1544.0 864 a 10 10 0 0 0 10 -10 v -189 a 10 10 0 0 0 -10 -10"></path></g></g><path d="M 1554.0 655 a 10 10 0 0 0 10 -10 v -69 a 10 10 0 0 1 10 -10"></path></g></g></g><path d="M 1574.0 566 h 10"></path><path d="M 1584.0 566 h 20 m 0 -10 v 20"></path></g></svg>