<svg class="railroad-diagram" height="954" viewBox="0 0 1664.0 954" width="1664.0" xmlns="http://www.w3.org/2000/svg" xmlns:xlink="http://www.w3.org/1999/xlink">
<g transform="translate(.5 .5)">
<style>/* <![CDATA[ */

    svg.railroad-diagram {
        background-color: hsl(30,20%,95%);
    }
    svg.railroad-diagram path {
        stroke-width: 2;
        stroke: black;
        fill: none;
    }
    svg.railroad-diagram text {
        font-size: 12px;
        text-anchor: middle;
        font-family: DejaVu Sans;
    }
    svg.railroad-diagram text.label {
        text-anchor:start;
    }
    svg.railroad-diagram text.comment {
        font-family: DejaVu Sans;
        font-size: 14px;
    }
    svg.railroad-diagram rect{
        stroke-width: 2;
        stroke: black;
        fill: rgb(210, 210, 255);
    }
    svg.railroad-diagram rect.group-box {
        stroke: gray;
        stroke-dasharray: 10 5;
        fill: none;
    }
    .terminal {
        font-family: DejaVu Sans;
    }
    svg.railroad-diagram g.altterminal rect {
        fill: rgb(251, 252, 207)
    }

/* ]]> */
</style><g>
<path d="M 20 556 v 20 m 0 -10 h 20"></path></g><path d="M 40 566 h 10"></path><g>
<path d="M 50 566 h 0.0"></path><path d="M 1614.0 566 h 0.0"></path><g>
<path d="M 50.0 566 h 0.0"></path><path d="M 1614.0 566 h 0.0"></path><g class="terminal ">
<path d="M 50.0 566 h 0.0"></path><path d="M 112.5 566 h 0.0"></path><rect height="22" rx="10" ry="10" width="62.5" x="50.0" y="555"></rect><text x="81.25" y="570">&#60;usx></text></g><path d="M 112.5 566 h 10"></path><path d="M 122.5 566 h 10"></path><g>
<path d="M 132.5 566 h 0.0"></path><path d="M 1614.0 566 h 0.0"></path><path d="M 132.5 566 a 10 10 0 0 0 10 -10 v -475 a 10 10 0 0 1 10 -10"></path><g>
<path d="M 152.5 71 h 0.0"></path><path d="M 433.5 71 h 0.0"></path><g class="terminal ">
<path d="M 152.5 71 h 0.0"></path><path d="M 240.5 71 h 0.0"></path><rect height="22" rx="10" ry="10" width="88.0" x="152.5" y="60"></rect><text x="196.5" y="75">@version</text></g><path d="M 240.5 71 h 10"></path><path d="M 250.5 71 h 10"></path><g class="terminal ">
<path d="M 260.5 71 h 0.0"></path><path d="M 433.5 71 h 0.0"></path><rect height="22" rx="10" ry="10" width="173.0" x="260.5" y="60"></rect><text x="347.0" y="75">/\d+\.\d+(\.\d+)?/</text></g></g><path d="M 132.5 566 a 10 10 0 0 0 10 -10 v -505 a 10 10 0 0 1 10 -10"></path><g>
<path d="M 152.5 41 h 0.0"></path><path d="M 467.5 41 h 0.0"></path><g class="terminal ">
<path d="M 152.5 41 h 0.0"></path><path d="M 393.5 41 h 0.0"></path><rect height="22" rx="10" ry="10" width="241.0" x="152.5" y="30"></rect><text x="273.0" y="45">@noNamespaceSchemaLocation</text></g><path d="M 393.5 41 h 10"></path><path d="M 403.5 41 h 10"></path><g class="terminal ">
<path d="M 413.5 41 h 0.0"></path><path d="M 467.5 41 h 0.0"></path><rect height="22" rx="10" ry="10" width="54.0" x="413.5" y="30"></rect><text x="440.5" y="45">TEXT</text></g></g><path d="M 132.5 566 h 20"></path><g>
<path d="M 152.5 566 h 15.0"></path><path d="M 1579.0 566 h 15.0"></path><g class="terminal ">
<path d="M 167.5 566 h 0.0"></path><path d="M 238.5 566 h 0.0"></path><rect height="22" rx="10" ry="10" width="71.0" x="167.5" y="555"></rect><text x="203.0" y="570">&#60;book></text></g><path d="M 238.5 566 h 10"></path><path d="M 248.5 566 h 10"></path><g>
<path d="M 258.5 566 h 0.0"></path><path d="M 1579.0 566 h 0.0"></path><path d="M 258.5 566 a 10 10 0 0 0 10 -10 v -9 a 10 10 0 0 1 10 -10"></path><g>
<path d="M 278.5 537 h 0.0"></path><path d="M 423.5 537 h 0.0"></path><g class="terminal ">
<path d="M 278.5 537 h 0.0"></path><path d="M 349.5 537 h 0.0"></path><rect height="22" rx="10" ry="10" width="71.0" x="278.5" y="526"></rect><text x="314.0" y="541">@style</text></g><path d="M 349.5 537 h 10"></path><path d="M 359.5 537 h 10"></path><g class="terminal ">
<path d="M 369.5 537 h 0.0"></path><path d="M 423.5 537 h 0.0"></path><rect height="22" rx="10" ry="10" width="54.0" x="369.5" y="526"></rect><text x="396.5" y="541">"id"</text></g></g><path d="M 258.5 566 a 10 10 0 0 0 10 -10 v -327 a 10 10 0 0 1 10 -10"></path><g>
<path d="M 278.5 219 h 0.0"></path><path d="M 1559.0 219 h 0.0"></path><g class="terminal ">
<path d="M 278.5 219 h 0.0"></path><path d="M 341.0 219 h 0.0"></path><rect height="22" rx="10" ry="10" width="62.5" x="278.5" y="208"></rect><text x="309.75" y="223">@code</text></g><path d="M 341.0 219 h 10"></path><g>
<path d="M 351.0 219 h 0.0"></path><path d="M 1559.0 219 h 0.0"></path><path d="M 351.0 219 a 10 10 0 0 0 10 -10 v -99 a 10 10 0 0 1 10 -10 h 827.5"></path><path d="M 351.0 219 h 10"></path><g>
<path d="M 361.0 219 h 0.0"></path><path d="M 361.0 219 a 10 10 0 0 0 10 -10 v -10 a 10 10 0 0 1 10 -10"></path><g class="terminal ">
<path d="M 381.0 189 h 0.0"></path><path d="M 443.5 189 h 0.0"></path><rect height="22" rx="10" ry="10" width="62.5" x="381.0" y="178"></rect><text x="412.25" y="193">"LEV"</text></g><path d="M 361.0 219 a 10 10 0 0 0 10 -10 v -40 a 10 10 0 0 1 10 -10"></path><g class="terminal ">
<path d="M 381.0 159 h 0.0"></path><path d="M 443.5 159 h 0.0"></path><rect height="22" rx="10" ry="10" width="62.5" x="381.0" y="148"></rect><text x="412.25" y="163">"EXO"</text></g><path d="M 361.0 219 a 10 10 0 0 0 10 -10 v -70 a 10 10 0 0 1 10 -10"></path><g class="terminal ">
<path d="M 381.0 129 h 0.0"></path><path d="M 443.5 129 h 0.0"></path><rect height="22" rx="10" ry="10" width="62.5" x="381.0" y="118"></rect><text x="412.25" y="133">"GEN"</text></g><path d="M 361.0 219 h 20"></path><g class="terminal ">
<path d="M 381.0 219 h 0.0"></path><path d="M 443.5 219 h 0.0"></path><rect height="22" rx="10" ry="10" width="62.5" x="381.0" y="208"></rect><text x="412.25" y="223">"NUM"</text></g><path d="M 361.0 219 a 10 10 0 0 1 10 10 v 10 a 10 10 0 0 0 10 10"></path><g class="terminal ">
<path d="M 381.0 249 h 0.0"></path><path d="M 443.5 249 h 0.0"></path><rect height="22" rx="10" ry="10" width="62.5" x="381.0" y="238"></rect><text x="412.25" y="253">"DEU"</text></g><path d="M 361.0 219 a 10 10 0 0 1 10 10 v 40 a 10 10 0 0 0 10 10"></path><g class="terminal ">
<path d="M 381.0 279 h 0.0"></path><path d="M 443.5 279 h 0.0"></path><rect height="22" rx="10" ry="10" width="62.5" x="381.0" y="268"></rect><text x="412.25" y="283">"JOS"</text></g><path d="M 361.0 219 a 10 10 0 0 1 10 10 v 70 a 10 10 0 0 0 10 10"></path><g class="terminal ">
<path d="M 381.0 309 h 0.0"></path><path d="M 443.5 309 h 0.0"></path><rect height="22" rx="10" ry="10" width="62.5" x="381.0" y="298"></rect><text x="412.25" y="313">"JDG"</text></g><path d="M 361.0 219 a 10 10 0 0 1 10 10 v 100 a 10 10 0 0 0 10 10"></path><g class="terminal ">
<path d="M 381.0 339 h 0.0"></path><path d="M 443.5 339 h 0.0"></path><rect height="22" rx="10" ry="10" width="62.5" x="381.0" y="328"></rect><text x="412.25" y="343">"RUT"</text></g><path d="M 361.0 219 a 10 10 0 0 1 10 10 v 130 a 10 10 0 0 0 10 10"></path><g class="terminal ">
<path d="M 381.0 369 h 0.0"></path><path d="M 443.5 369 h 0.0"></path><rect height="22" rx="10" ry="10" width="62.5" x="381.0" y="358"></rect><text x="412.25" y="373">"1SA"</text></g><path d="M 361.0 219 a 10 10 0 0 1 10 10 v 160 a 10 10 0 0 0 10 10"></path><g class="terminal ">
<path d="M 381.0 399 h 0.0"></path><path d="M 443.5 399 h 0.0"></path><rect height="22" rx="10" ry="10" width="62.5" x="381.0" y="388"></rect><text x="412.25" y="403">"2SA"</text></g><path d="M 361.0 219 a 10 10 0 0 1 10 10 v 190 a 10 10 0 0 0 10 10"></path><g class="terminal ">
<path d="M 381.0 429 h 0.0"></path><path d="M 443.5 429 h 0.0"></path><rect height="22" rx="10" ry="10" width="62.5" x="381.0" y="418"></rect><text x="412.25" y="433">"1KI"</text></g><path d="M 361.0 219 a 10 10 0 0 1 10 10 v 220 a 10 10 0 0 0 10 10"></path><g class="terminal ">
<path d="M 381.0 459 h 0.0"></path><path d="M 443.5 459 h 0.0"></path><rect height="22" rx="10" ry="10" width="62.5" x="381.0" y="448"></rect><text x="412.25" y="463">"2KI"</text></g><path d="M 361.0 219 a 10 10 0 0 1 10 10 v 250 a 10 10 0 0 0 10 10"></path><g class="terminal ">
<path d="M 381.0 489 h 0.0"></path><path d="M 443.5 489 h 0.0"></path><rect height="22" rx="10" ry="10" width="62.5" x="381.0" y="478"></rect><text x="412.25" y="493">"1CH"</text></g></g><path d="M 463.5 100 a 10 10 0 0 1 10 10 v 99 a 10 10 0 0 0 10 10"></path><g>
<path d="M 483.5 219 h 0.0"></path><path d="M 483.5 219 a 10 10 0 0 0 10 -10 v -10 a 10 10 0 0 1 10 -10"></path><g class="terminal ">
<path d="M 503.5 189 h 0.0"></path><path d="M 566.0 189 h 0.0"></path><rect height="22" rx="10" ry="10" width="62.5" x="503.5" y="178"></rect><text x="534.75" y="193">"NEH"</text></g><path d="M 483.5 219 a 10 10 0 0 0 10 -10 v -40 a 10 10 0 0 1 10 -10"></path><g class="terminal ">
<path d="M 503.5 159 h 0.0"></path><path d="M 566.0 159 h 0.0"></path><rect height="22" rx="10" ry="10" width="62.5" x="503.5" y="148"></rect><text x="534.75" y="163">"EZR"</text></g><path d="M 483.5 219 a 10 10 0 0 0 10 -10 v -70 a 10 10 0 0 1 10 -10"></path><g class="terminal ">
<path d="M 503.5 129 h 0.0"></path><path d="M 566.0 129 h 0.0"></path><rect height="22" rx="10" ry="10" width="62.5" x="503.5" y="118"></rect><text x="534.75" y="133">"2CH"</text></g><path d="M 483.5 219 h 20"></path><g class="terminal ">
<path d="M 503.5 219 h 0.0"></path><path d="M 566.0 219 h 0.0"></path><rect height="22" rx="10" ry="10" width="62.5" x="503.5" y="208"></rect><text x="534.75" y="223">"EST"</text></g><path d="M 483.5 219 a 10 10 0 0 1 10 10 v 10 a 10 10 0 0 0 10 10"></path><g class="terminal ">
<path d="M 503.5 249 h 0.0"></path><path d="M 566.0 249 h 0.0"></path><rect height="22" rx="10" ry="10" width="62.5" x="503.5" y="238"></rect><text x="534.75" y="253">"JOB"</text></g><path d="M 483.5 219 a 10 10 0 0 1 10 10 v 40 a 10 10 0 0 0 10 10"></path><g class="terminal ">
<path d="M 503.5 279 h 0.0"></path><path d="M 566.0 279 h 0.0"></path><rect height="22" rx="10" ry="10" width="62.5" x="503.5" y="268"></rect><text x="534.75" y="283">"PSA"</text></g><path d="M 483.5 219 a 10 10 0 0 1 10 10 v 70 a 10 10 0 0 0 10 10"></path><g class="terminal ">
<path d="M 503.5 309 h 0.0"></path><path d="M 566.0 309 h 0.0"></path><rect height="22" rx="10" ry="10" width="62.5" x="503.5" y="298"></rect><text x="534.75" y="313">"PRO"</text></g><path d="M 483.5 219 a 10 10 0 0 1 10 10 v 100 a 10 10 0 0 0 10 10"></path><g class="terminal ">
<path d="M 503.5 339 h 0.0"></path><path d="M 566.0 339 h 0.0"></path><rect height="22" rx="10" ry="10" width="62.5" x="503.5" y="328"></rect><text x="534.75" y="343">"ECC"</text></g><path d="M 483.5 219 a 10 10 0 0 1 10 10 v 130 a 10 10 0 0 0 10 10"></path><g class="terminal ">
<path d="M 503.5 369 h 0.0"></path><path d="M 566.0 369 h 0.0"></path><rect height="22" rx="10" ry="10" width="62.5" x="503.5" y="358"></rect><text x="534.75" y="373">"SNG"</text></g><path d="M 483.5 219 a 10 10 0 0 1 10 10 v 160 a 10 10 0 0 0 10 10"></path><g class="terminal ">
<path d="M 503.5 399 h 0.0"></path><path d="M 566.0 399 h 0.0"></path><rect height="22" rx="10" ry="10" width="62.5" x="503.5" y="388"></rect><text x="534.75" y="403">"ISA"</text></g><path d="M 483.5 219 a 10 10 0 0 1 10 10 v 190 a 10 10 0 0 0 10 10"></path><g class="terminal ">
<path d="M 503.5 429 h 0.0"></path><path d="M 566.0 429 h 0.0"></path><rect height="22" rx="10" ry="10" width="62.5" x="503.5" y="418"></rect><text x="534.75" y="433">"JER"</text></g><path d="M 483.5 219 a 10 10 0 0 1 10 10 v 220 a 10 10 0 0 0 10 10"></path><g class="terminal ">
<path d="M 503.5 459 h 0.0"></path><path d="M 566.0 459 h 0.0"></path><rect height="22" rx="10" ry="10" width="62.5" x="503.5" y="448"></rect><text x="534.75" y="463">"LAM"</text></g><path d="M 483.5 219 a 10 10 0 0 1 10 10 v 250 a 10 10 0 0 0 10 10"></path><g class="terminal ">
<path d="M 503.5 489 h 0.0"></path><path d="M 566.0 489 h 0.0"></path><rect height="22" rx="10" ry="10" width="62.5" x="503.5" y="478"></rect><text x="534.75" y="493">"EZK"</text></g></g><path d="M 586.0 100 a 10 10 0 0 1 10 10 v 99 a 10 10 0 0 0 10 10"></path><g>
<path d="M 606.0 219 h 0.0"></path><path d="M 606.0 219 a 10 10 0 0 0 10 -10 v -10 a 10 10 0 0 1 10 -10"></path><g class="terminal ">
<path d="M 626.0 189 h 0.0"></path><path d="M 688.5 189 h 0.0"></path><rect height="22" rx="10" ry="10" width="62.5" x="626.0" y="178"></rect><text x="657.25" y="193">"JOL"</text></g><path d="M 606.0 219 a 10 10 0 0 0 10 -10 v -40 a 10 10 0 0 1 10 -10"></path><g class="terminal ">
<path d="M 626.0 159 h 0.0"></path><path d="M 688.5 159 h 0.0"></path><rect height="22" rx="10" ry="10" width="62.5" x="626.0" y="148"></rect><text x="657.25" y="163">"HOS"</text></g><path d="M 606.0 219 a 10 10 0 0 0 10 -10 v -70 a 10 10 0 0 1 10 -10"></path><g class="terminal ">
<path d="M 626.0 129 h 0.0"></path><path d="M 688.5 129 h 0.0"></path><rect height="22" rx="10" ry="10" width="62.5" x="626.0" y="118"></rect><text x="657.25" y="133">"DAN"</text></g><path d="M 606.0 219 h 20"></path><g class="terminal ">
<path d="M 626.0 219 h 0.0"></path><path d="M 688.5 219 h 0.0"></path><rect height="22" rx="10" ry="10" width="62.5" x="626.0" y="208"></rect><text x="657.25" y="223">"AMO"</text></g><path d="M 606.0 219 a 10 10 0 0 1 10 10 v 10 a 10 10 0 0 0 10 10"></path><g class="terminal ">
<path d="M 626.0 249 h 0.0"></path><path d="M 688.5 249 h 0.0"></path><rect height="22" rx="10" ry="10" width="62.5" x="626.0" y="238"></rect><text x="657.25" y="253">"OBA"</text></g><path d="M 606.0 219 a 10 10 0 0 1 10 10 v 40 a 10 10 0 0 0 10 10"></path><g class="terminal ">
<path d="M 626.0 279 h 0.0"></path><path d="M 688.5 279 h 0.0"></path><rect height="22" rx="10" ry="10" width="62.5" x="626.0" y="268"></rect><text x="657.25" y="283">"JON"</text></g><path d="M 606.0 219 a 10 10 0 0 1 10 10 v 70 a 10 10 0 0 0 10 10"></path><g class="terminal ">
<path d="M 626.0 309 h 0.0"></path><path d="M 688.5 309 h 0.0"></path><rect height="22" rx="10" ry="10" width="62.5" x="626.0" y="298"></rect><text x="657.25" y="313">"MIC"</text></g><path d="M 606.0 219 a 10 10 0 0 1 10 10 v 100 a 10 10 0 0 0 10 10"></path><g class="terminal ">
<path d="M 626.0 339 h 0.0"></path><path d="M 688.5 339 h 0.0"></path><rect height="22" rx="10" ry="10" width="62.5" x="626.0" y="328"></rect><text x="657.25" y="343">"NAM"</text></g><path d="M 606.0 219 a 10 10 0 0 1 10 10 v 130 a 10 10 0 0 0 10 10"></path><g class="terminal ">
<path d="M 626.0 369 h 0.0"></path><path d="M 688.5 369 h 0.0"></path><rect height="22" rx="10" ry="10" width="62.5" x="626.0" y="358"></rect><text x="657.25" y="373">"HAB"</text></g><path d="M 606.0 219 a 10 10 0 0 1 10 10 v 160 a 10 10 0 0 0 10 10"></path><g class="terminal ">
<path d="M 626.0 399 h 0.0"></path><path d="M 688.5 399 h 0.0"></path><rect height="22" rx="10" ry="10" width="62.5" x="626.0" y="388"></rect><text x="657.25" y="403">"ZEP"</text></g><path d="M 606.0 219 a 10 10 0 0 1 10 10 v 190 a 10 10 0 0 0 10 10"></path><g class="terminal ">
<path d="M 626.0 429 h 0.0"></path><path d="M 688.5 429 h 0.0"></path><rect height="22" rx="10" ry="10" width="62.5" x="626.0" y="418"></rect><text x="657.25" y="433">"HAG"</text></g><path d="M 606.0 219 a 10 10 0 0 1 10 10 v 220 a 10 10 0 0 0 10 10"></path><g class="terminal ">
<path d="M 626.0 459 h 0.0"></path><path d="M 688.5 459 h 0.0"></path><rect height="22" rx="10" ry="10" width="62.5" x="626.0" y="448"></rect><text x="657.25" y="463">"ZEC"</text></g><path d="M 606.0 219 a 10 10 0 0 1 10 10 v 250 a 10 10 0 0 0 10 10"></path><g class="terminal ">
<path d="M 626.0 489 h 0.0"></path><path d="M 688.5 489 h 0.0"></path><rect height="22" rx="10" ry="10" width="62.5" x="626.0" y="478"></rect><text x="657.25" y="493">"MAL"</text></g></g><path d="M 708.5 100 a 10 10 0 0 1 10 10 v 99 a 10 10 0 0 0 10 10"></path><g>
<path d="M 728.5 219 h 0.0"></path><path d="M 728.5 219 a 10 10 0 0 0 10 -10 v -10 a 10 10 0 0 1 10 -10"></path><g class="terminal ">
<path d="M 748.5 189 h 0.0"></path><path d="M 811.0 189 h 0.0"></path><rect height="22" rx="10" ry="10" width="62.5" x="748.5" y="178"></rect><text x="779.75" y="193">"LUK"</text></g><path d="M 728.5 219 a 10 10 0 0 0 10 -10 v -40 a 10 10 0 0 1 10 -10"></path><g class="terminal ">
<path d="M 748.5 159 h 0.0"></path><path d="M 811.0 159 h 0.0"></path><rect height="22" rx="10" ry="10" width="62.5" x="748.5" y="148"></rect><text x="779.75" y="163">"MRK"</text></g><path d="M 728.5 219 a 10 10 0 0 0 10 -10 v -70 a 10 10 0 0 1 10 -10"></path><g class="terminal ">
<path d="M 748.5 129 h 0.0"></path><path d="M 811.0 129 h 0.0"></path><rect height="22" rx="10" ry="10" width="62.5" x="748.5" y="118"></rect><text x="779.75" y="133">"MAT"</text></g><path d="M 728.5 219 h 20"></path><g class="terminal ">
<path d="M 748.5 219 h 0.0"></path><path d="M 811.0 219 h 0.0"></path><rect height="22" rx="10" ry="10" width="62.5" x="748.5" y="208"></rect><text x="779.75" y="223">"JHN"</text></g><path d="M 728.5 219 a 10 10 0 0 1 10 10 v 10 a 10 10 0 0 0 10 10"></path><g class="terminal ">
<path d="M 748.5 249 h 0.0"></path><path d="M 811.0 249 h 0.0"></path><rect height="22" rx="10" ry="10" width="62.5" x="748.5" y="238"></rect><text x="779.75" y="253">"ACT"</text></g><path d="M 728.5 219 a 10 10 0 0 1 10 10 v 40 a 10 10 0 0 0 10 10"></path><g class="terminal ">
<path d="M 748.5 279 h 0.0"></path><path d="M 811.0 279 h 0.0"></path><rect height="22" rx="10" ry="10" width="62.5" x="748.5" y="268"></rect><text x="779.75" y="283">"ROM"</text></g><path d="M 728.5 219 a 10 10 0 0 1 10 10 v 70 a 10 10 0 0 0 10 10"></path><g class="terminal ">
<path d="M 748.5 309 h 0.0"></path><path d="M 811.0 309 h 0.0"></path><rect height="22" rx="10" ry="10" width="62.5" x="748.5" y="298"></rect><text x="779.75" y="313">"1CO"</text></g><path d="M 728.5 219 a 10 10 0 0 1 10 10 v 100 a 10 10 0 0 0 10 10"></path><g class="terminal ">
<path d="M 748.5 339 h 0.0"></path><path d="M 811.0 339 h 0.0"></path><rect height="22" rx="10" ry="10" width="62.5" x="748.5" y="328"></rect><text x="779.75" y="343">"2CO"</text></g><path d="M 728.5 219 a 10 10 0 0 1 10 10 v 130 a 10 10 0 0 0 10 10"></path><g class="terminal ">
<path d="M 748.5 369 h 0.0"></path><path d="M 811.0 369 h 0.0"></path><rect height="22" rx="10" ry="10" width="62.5" x="748.5" y="358"></rect><text x="779.75" y="373">"GAL"</text></g><path d="M 728.5 219 a 10 10 0 0 1 10 10 v 160 a 10 10 0 0 0 10 10"></path><g class="terminal ">
<path d="M 748.5 399 h 0.0"></path><path d="M 811.0 399 h 0.0"></path><rect height="22" rx="10" ry="10" width="62.5" x="748.5" y="388"></rect><text x="779.75" y="403">"EPH"</text></g><path d="M 728.5 219 a 10 10 0 0 1 10 10 v 190 a 10 10 0 0 0 10 10"></path><g class="terminal ">
<path d="M 748.5 429 h 0.0"></path><path d="M 811.0 429 h 0.0"></path><rect height="22" rx="10" ry="10" width="62.5" x="748.5" y="418"></rect><text x="779.75" y="433">"PHP"</text></g><path d="M 728.5 219 a 10 10 0 0 1 10 10 v 220 a 10 10 0 0 0 10 10"></path><g class="terminal ">
<path d="M 748.5 459 h 0.0"></path><path d="M 811.0 459 h 0.0"></path><rect height="22" rx="10" ry="10" width="62.5" x="748.5" y="448"></rect><text x="779.75" y="463">"COL"</text></g><path d="M 728.5 219 a 10 10 0 0 1 10 10 v 250 a 10 10 0 0 0 10 10"></path><g class="terminal ">
<path d="M 748.5 489 h 0.0"></path><path d="M 811.0 489 h 0.0"></path><rect height="22" rx="10" ry="10" width="62.5" x="748.5" y="478"></rect><text x="779.75" y="493">"1TH"</text></g></g><path d="M 831.0 100 a 10 10 0 0 1 10 10 v 99 a 10 10 0 0 0 10 10"></path><g>
<path d="M 851.0 219 h 0.0"></path><path d="M 851.0 219 a 10 10 0 0 0 10 -10 v -10 a 10 10 0 0 1 10 -10"></path><g class="terminal ">
<path d="M 871.0 189 h 0.0"></path><path d="M 933.5 189 h 0.0"></path><rect height="22" rx="10" ry="10" width="62.5" x="871.0" y="178"></rect><text x="902.25" y="193">"2TI"</text></g><path d="M 851.0 219 a 10 10 0 0 0 10 -10 v -40 a 10 10 0 0 1 10 -10"></path><g class="terminal ">
<path d="M 871.0 159 h 0.0"></path><path d="M 933.5 159 h 0.0"></path><rect height="22" rx="10" ry="10" width="62.5" x="871.0" y="148"></rect><text x="902.25" y="163">"1TI"</text></g><path d="M 851.0 219 a 10 10 0 0 0 10 -10 v -70 a 10 10 0 0 1 10 -10"></path><g class="terminal ">
<path d="M 871.0 129 h 0.0"></path><path d="M 933.5 129 h 0.0"></path><rect height="22" rx="10" ry="10" width="62.5" x="871.0" y="118"></rect><text x="902.25" y="133">"2TH"</text></g><path d="M 851.0 219 h 20"></path><g class="terminal ">
<path d="M 871.0 219 h 0.0"></path><path d="M 933.5 219 h 0.0"></path><rect height="22" rx="10" ry="10" width="62.5" x="871.0" y="208"></rect><text x="902.25" y="223">"TIT"</text></g><path d="M 851.0 219 a 10 10 0 0 1 10 10 v 10 a 10 10 0 0 0 10 10"></path><g class="terminal ">
<path d="M 871.0 249 h 0.0"></path><path d="M 933.5 249 h 0.0"></path><rect height="22" rx="10" ry="10" width="62.5" x="871.0" y="238"></rect><text x="902.25" y="253">"PHM"</text></g><path d="M 851.0 219 a 10 10 0 0 1 10 10 v 40 a 10 10 0 0 0 10 10"></path><g class="terminal ">
<path d="M 871.0 279 h 0.0"></path><path d="M 933.5 279 h 0.0"></path><rect height="22" rx="10" ry="10" width="62.5" x="871.0" y="268"></rect><text x="902.25" y="283">"HEB"</text></g><path d="M 851.0 219 a 10 10 0 0 1 10 10 v 70 a 10 10 0 0 0 10 10"></path><g class="terminal ">
<path d="M 871.0 309 h 0.0"></path><path d="M 933.5 309 h 0.0"></path><rect height="22" rx="10" ry="10" width="62.5" x="871.0" y="298"></rect><text x="902.25" y="313">"JAS"</text></g><path d="M 851.0 219 a 10 10 0 0 1 10 10 v 100 a 10 10 0 0 0 10 10"></path><g class="terminal ">
<path d="M 871.0 339 h 0.0"></path><path d="M 933.5 339 h 0.0"></path><rect height="22" rx="10" ry="10" width="62.5" x="871.0" y="328"></rect><text x="902.25" y="343">"1PE"</text></g><path d="M 851.0 219 a 10 10 0 0 1 10 10 v 130 a 10 10 0 0 0 10 10"></path><g class="terminal ">
<path d="M 871.0 369 h 0.0"></path><path d="M 933.5 369 h 0.0"></path><rect height="22" rx="10" ry="10" width="62.5" x="871.0" y="358"></rect><text x="902.25" y="373">"2PE"</text></g><path d="M 851.0 219 a 10 10 0 0 1 10 10 v 160 a 10 10 0 0 0 10 10"></path><g class="terminal ">
<path d="M 871.0 399 h 0.0"></path><path d="M 933.5 399 h 0.0"></path><rect height="22" rx="10" ry="10" width="62.5" x="871.0" y="388"></rect><text x="902.25" y="403">"1JN"</text></g><path d="M 851.0 219 a 10 10 0 0 1 10 10 v 190 a 10 10 0 0 0 10 10"></path><g class="terminal ">
<path d="M 871.0 429 h 0.0"></path><path d="M 933.5 429 h 0.0"></path><rect height="22" rx="10" ry="10" width="62.5" x="871.0" y="418"></rect><text x="902.25" y="433">"2JN"</text></g><path d="M 851.0 219 a 10 10 0 0 1 10 10 v 220 a 10 10 0 0 0 10 10"></path><g class="terminal ">
<path d="M 871.0 459 h 0.0"></path><path d="M 933.5 459 h 0.0"></path><rect height="22" rx="10" ry="10" width="62.5" x="871.0" y="448"></rect><text x="902.25" y="463">"3JN"</text></g><path d="M 851.0 219 a 10 10 0 0 1 10 10 v 250 a 10 10 0 0 0 10 10"></path><g class="terminal ">
<path d="M 871.0 489 h 0.0"></path><path d="M 933.5 489 h 0.0"></path><rect height="22" rx="10" ry="10" width="62.5" x="871.0" y="478"></rect><text x="902.25" y="493">"JUD"</text></g></g><path d="M 953.5 100 a 10 10 0 0 1 10 10 v 99 a 10 10 0 0 0 10 10"></path><g>
<path d="M 973.5 219 h 0.0"></path><path d="M 973.5 219 a 10 10 0 0 0 10 -10 v -10 a 10 10 0 0 1 10 -10"></path><g class="terminal ">
<path d="M 993.5 189 h 0.0"></path><path d="M 1056.0 189 h 0.0"></path><rect height="22" rx="10" ry="10" width="62.5" x="993.5" y="178"></rect><text x="1024.75" y="193">"JDT"</text></g><path d="M 973.5 219 a 10 10 0 0 0 10 -10 v -40 a 10 10 0 0 1 10 -10"></path><g class="terminal ">
<path d="M 993.5 159 h 0.0"></path><path d="M 1056.0 159 h 0.0"></path><rect height="22" rx="10" ry="10" width="62.5" x="993.5" y="148"></rect><text x="1024.75" y="163">"TOB"</text></g><path d="M 973.5 219 a 10 10 0 0 0 10 -10 v -70 a 10 10 0 0 1 10 -10"></path><g class="terminal ">
<path d="M 993.5 129 h 0.0"></path><path d="M 1056.0 129 h 0.0"></path><rect height="22" rx="10" ry="10" width="62.5" x="993.5" y="118"></rect><text x="1024.75" y="133">"REV"</text></g><path d="M 973.5 219 h 20"></path><g class="terminal ">
<path d="M 993.5 219 h 0.0"></path><path d="M 1056.0 219 h 0.0"></path><rect height="22" rx="10" ry="10" width="62.5" x="993.5" y="208"></rect><text x="1024.75" y="223">"ESG"</text></g><path d="M 973.5 219 a 10 10 0 0 1 10 10 v 10 a 10 10 0 0 0 10 10"></path><g class="terminal ">
<path d="M 993.5 249 h 0.0"></path><path d="M 1056.0 249 h 0.0"></path><rect height="22" rx="10" ry="10" width="62.5" x="993.5" y="238"></rect><text x="1024.75" y="253">"WIS"</text></g><path d="M 973.5 219 a 10 10 0 0 1 10 10 v 40 a 10 10 0 0 0 10 10"></path><g class="terminal ">
<path d="M 993.5 279 h 0.0"></path><path d="M 1056.0 279 h 0.0"></path><rect height="22" rx="10" ry="10" width="62.5" x="993.5" y="268"></rect><text x="1024.75" y="283">"SIR"</text></g><path d="M 973.5 219 a 10 10 0 0 1 10 10 v 70 a 10 10 0 0 0 10 10"></path><g class="terminal ">
<path d="M 993.5 309 h 0.0"></path><path d="M 1056.0 309 h 0.0"></path><rect height="22" rx="10" ry="10" width="62.5" x="993.5" y="298"></rect><text x="1024.75" y="313">"BAR"</text></g><path d="M 973.5 219 a 10 10 0 0 1 10 10 v 100 a 10 10 0 0 0 10 10"></path><g class="terminal ">
<path d="M 993.5 339 h 0.0"></path><path d="M 1056.0 339 h 0.0"></path><rect height="22" rx="10" ry="10" width="62.5" x="993.5" y="328"></rect><text x="1024.75" y="343">"LJE"</text></g><path d="M 973.5 219 a 10 10 0 0 1 10 10 v 130 a 10 10 0 0 0 10 10"></path><g class="terminal ">
<path d="M 993.5 369 h 0.0"></path><path d="M 1056.0 369 h 0.0"></path><rect height="22" rx="10" ry="10" width="62.5" x="993.5" y="358"></rect><text x="1024.75" y="373">"S3Y"</text></g><path d="M 973.5 219 a 10 10 0 0 1 10 10 v 160 a 10 10 0 0 0 10 10"></path><g class="terminal ">
<path d="M 993.5 399 h 0.0"></path><path d="M 1056.0 399 h 0.0"></path><rect height="22" rx="10" ry="10" width="62.5" x="993.5" y="388"></rect><text x="1024.75" y="403">"SUS"</text></g><path d="M 973.5 219 a 10 10 0 0 1 10 10 v 190 a 10 10 0 0 0 10 10"></path><g class="terminal ">
<path d="M 993.5 429 h 0.0"></path><path d="M 1056.0 429 h 0.0"></path><rect height="22" rx="10" ry="10" width="62.5" x="993.5" y="418"></rect><text x="1024.75" y="433">"BEL"</text></g><path d="M 973.5 219 a 10 10 0 0 1 10 10 v 220 a 10 10 0 0 0 10 10"></path><g class="terminal ">
<path d="M 993.5 459 h 0.0"></path><path d="M 1056.0 459 h 0.0"></path><rect height="22" rx="10" ry="10" width="62.5" x="993.5" y="448"></rect><text x="1024.75" y="463">"1MA"</text></g><path d="M 973.5 219 a 10 10 0 0 1 10 10 v 250 a 10 10 0 0 0 10 10"></path><g class="terminal ">
<path d="M 993.5 489 h 0.0"></path><path d="M 1056.0 489 h 0.0"></path><rect height="22" rx="10" ry="10" width="62.5" x="993.5" y="478"></rect><text x="1024.75" y="493">"2MA"</text></g></g><path d="M 1076.0 100 a 10 10 0 0 1 10 10 v 99 a 10 10 0 0 0 10 10"></path><g>
<path d="M 1096.0 219 h 0.0"></path><path d="M 1096.0 219 a 10 10 0 0 0 10 -10 v -10 a 10 10 0 0 1 10 -10"></path><g class="terminal ">
<path d="M 1116.0 189 h 0.0"></path><path d="M 1178.5 189 h 0.0"></path><rect height="22" rx="10" ry="10" width="62.5" x="1116.0" y="178"></rect><text x="1147.25" y="193">"1ES"</text></g><path d="M 1096.0 219 a 10 10 0 0 0 10 -10 v -40 a 10 10 0 0 1 10 -10"></path><g class="terminal ">
<path d="M 1116.0 159 h 0.0"></path><path d="M 1178.5 159 h 0.0"></path><rect height="22" rx="10" ry="10" width="62.5" x="1116.0" y="148"></rect><text x="1147.25" y="163">"4MA"</text></g><path d="M 1096.0 219 a 10 10 0 0 0 10 -10 v -70 a 10 10 0 0 1 10 -10"></path><g class="terminal ">
<path d="M 1116.0 129 h 0.0"></path><path d="M 1178.5 129 h 0.0"></path><rect height="22" rx="10" ry="10" width="62.5" x="1116.0" y="118"></rect><text x="1147.25" y="133">"3MA"</text></g><path d="M 1096.0 219 h 20"></path><g class="terminal ">
<path d="M 1116.0 219 h 0.0"></path><path d="M 1178.5 219 h 0.0"></path><rect height="22" rx="10" ry="10" width="62.5" x="1116.0" y="208"></rect><text x="1147.25" y="223">"2ES"</text></g><path d="M 1096.0 219 a 10 10 0 0 1 10 10 v 10 a 10 10 0 0 0 10 10"></path><g class="terminal ">
<path d="M 1116.0 249 h 0.0"></path><path d="M 1178.5 249 h 0.0"></path><rect height="22" rx="10" ry="10" width="62.5" x="1116.0" y="238"></rect><text x="1147.25" y="253">"MAN"</text></g><path d="M 1096.0 219 a 10 10 0 0 1 10 10 v 40 a 10 10 0 0 0 10 10"></path><g class="terminal ">
<path d="M 1116.0 279 h 0.0"></path><path d="M 1178.5 279 h 0.0"></path><rect height="22" rx="10" ry="10" width="62.5" x="1116.0" y="268"></rect><text x="1147.25" y="283">"PS2"</text></g><path d="M 1096.0 219 a 10 10 0 0 1 10 10 v 70 a 10 10 0 0 0 10 10"></path><g class="terminal ">
<path d="M 1116.0 309 h 0.0"></path><path d="M 1178.5 309 h 0.0"></path><rect height="22" rx="10" ry="10" width="62.5" x="1116.0" y="298"></rect><text x="1147.25" y="313">"ODA"</text></g><path d="M 1096.0 219 a 10 10 0 0 1 10 10 v 100 a 10 10 0 0 0 10 10"></path><g class="terminal ">
<path d="M 1116.0 339 h 0.0"></path><path d="M 1178.5 339 h 0.0"></path><rect height="22" rx="10" ry="10" width="62.5" x="1116.0" y="328"></rect><text x="1147.25" y="343">"PSS"</text></g><path d="M 1096.0 219 a 10 10 0 0 1 10 10 v 130 a 10 10 0 0 0 10 10"></path><g class="terminal ">
<path d="M 1116.0 369 h 0.0"></path><path d="M 1178.5 369 h 0.0"></path><rect height="22" rx="10" ry="10" width="62.5" x="1116.0" y="358"></rect><text x="1147.25" y="373">"EZA"</text></g><path d="M 1096.0 219 a 10 10 0 0 1 10 10 v 160 a 10 10 0 0 0 10 10"></path><g class="terminal ">
<path d="M 1116.0 399 h 0.0"></path><path d="M 1178.5 399 h 0.0"></path><rect height="22" rx="10" ry="10" width="62.5" x="1116.0" y="388"></rect><text x="1147.25" y="403">"5EZ"</text></g><path d="M 1096.0 219 a 10 10 0 0 1 10 10 v 190 a 10 10 0 0 0 10 10"></path><g class="terminal ">
<path d="M 1116.0 429 h 0.0"></path><path d="M 1178.5 429 h 0.0"></path><rect height="22" rx="10" ry="10" width="62.5" x="1116.0" y="418"></rect><text x="1147.25" y="433">"6EZ"</text></g><path d="M 1096.0 219 a 10 10 0 0 1 10 10 v 220 a 10 10 0 0 0 10 10"></path><g class="terminal ">
<path d="M 1116.0 459 h 0.0"></path><path d="M 1178.5 459 h 0.0"></path><rect height="22" rx="10" ry="10" width="62.5" x="1116.0" y="448"></rect><text x="1147.25" y="463">"DAG"</text></g><path d="M 1096.0 219 a 10 10 0 0 1 10 10 v 250 a 10 10 0 0 0 10 10"></path><g class="terminal ">
<path d="M 1116.0 489 h 0.0"></path><path d="M 1178.5 489 h 0.0"></path><rect height="22" rx="10" ry="10" width="62.5" x="1116.0" y="478"></rect><text x="1147.25" y="493">"PS3"</text></g></g><path d="M 1198.5 100 a 10 10 0 0 1 10 10 v 99 a 10 10 0 0 0 10 10"></path><g>
<path d="M 1218.5 219 h 0.0"></path><path d="M 1218.5 219 a 10 10 0 0 0 10 -10 v -10 a 10 10 0 0 1 10 -10"></path><g class="terminal ">
<path d="M 1238.5 189 h 0.0"></path><path d="M 1301.0 189 h 0.0"></path><rect height="22" rx="10" ry="10" width="62.5" x="1238.5" y="178"></rect><text x="1269.75" y="193">"JUB"</text></g><path d="M 1218.5 219 a 10 10 0 0 0 10 -10 v -40 a 10 10 0 0 1 10 -10"></path><g class="terminal ">
<path d="M 1238.5 159 h 0.0"></path><path d="M 1301.0 159 h 0.0"></path><rect height="22" rx="10" ry="10" width="62.5" x="1238.5" y="148"></rect><text x="1269.75" y="163">"LBA"</text></g><path d="M 1218.5 219 a 10 10 0 0 0 10 -10 v -70 a 10 10 0 0 1 10 -10"></path><g class="terminal ">
<path d="M 1238.5 129 h 0.0"></path><path d="M 1301.0 129 h 0.0"></path><rect height="22" rx="10" ry="10" width="62.5" x="1238.5" y="118"></rect><text x="1269.75" y="133">"2BA"</text></g><path d="M 1218.5 219 h 20"></path><g class="terminal ">
<path d="M 1238.5 219 h 0.0"></path><path d="M 1301.0 219 h 0.0"></path><rect height="22" rx="10" ry="10" width="62.5" x="1238.5" y="208"></rect><text x="1269.75" y="223">"ENO"</text></g><path d="M 1218.5 219 a 10 10 0 0 1 10 10 v 10 a 10 10 0 0 0 10 10"></path><g class="terminal ">
<path d="M 1238.5 249 h 0.0"></path><path d="M 1301.0 249 h 0.0"></path><rect height="22" rx="10" ry="10" width="62.5" x="1238.5" y="238"></rect><text x="1269.75" y="253">"1MQ"</text></g><path d="M 1218.5 219 a 10 10 0 0 1 10 10 v 40 a 10 10 0 0 0 10 10"></path><g class="terminal ">
<path d="M 1238.5 279 h 0.0"></path><path d="M 1301.0 279 h 0.0"></path><rect height="22" rx="10" ry="10" width="62.5" x="1238.5" y="268"></rect><text x="1269.75" y="283">"2MQ"</text></g><path d="M 1218.5 219 a 10 10 0 0 1 10 10 v 70 a 10 10 0 0 0 10 10"></path><g class="terminal ">
<path d="M 1238.5 309 h 0.0"></path><path d="M 1301.0 309 h 0.0"></path><rect height="22" rx="10" ry="10" width="62.5" x="1238.5" y="298"></rect><text x="1269.75" y="313">"3MQ"</text></g><path d="M 1218.5 219 a 10 10 0 0 1 10 10 v 100 a 10 10 0 0 0 10 10"></path><g class="terminal ">
<path d="M 1238.5 339 h 0.0"></path><path d="M 1301.0 339 h 0.0"></path><rect height="22" rx="10" ry="10" width="62.5" x="1238.5" y="328"></rect><text x="1269.75" y="343">"REP"</text></g><path d="M 1218.5 219 a 10 10 0 0 1 10 10 v 130 a 10 10 0 0 0 10 10"></path><g class="terminal ">
<path d="M 1238.5 369 h 0.0"></path><path d="M 1301.0 369 h 0.0"></path><rect height="22" rx="10" ry="10" width="62.5" x="1238.5" y="358"></rect><text x="1269.75" y="373">"4BA"</text></g><path d="M 1218.5 219 a 10 10 0 0 1 10 10 v 160 a 10 10 0 0 0 10 10"></path><g class="terminal ">
<path d="M 1238.5 399 h 0.0"></path><path d="M 1301.0 399 h 0.0"></path><rect height="22" rx="10" ry="10" width="62.5" x="1238.5" y="388"></rect><text x="1269.75" y="403">"LAO"</text></g><path d="M 1218.5 219 a 10 10 0 0 1 10 10 v 190 a 10 10 0 0 0 10 10"></path><g class="terminal ">
<path d="M 1238.5 429 h 0.0"></path><path d="M 1369.0 429 h 0.0"></path><rect height="22" rx="10" ry="10" width="130.5" x="1238.5" y="418"></rect><text x="1303.75" y="433">/&#91;0-9A-Z&#93;{3}/</text></g></g></g></g><path d="M 258.5 566 h 20"></path><g>
<path d="M 278.5 566 h 593.25"></path><path d="M 965.75 566 h 593.25"></path><g>
<path d="M 871.75 566 h 0.0"></path><path d="M 965.75 566 h 0.0"></path><path d="M 871.75 566 h 20"></path><g>
<path d="M 891.75 566 h 54.0"></path></g><path d="M 945.75 566 h 20"></path><path d="M 871.75 566 a 10 10 0 0 1 10 10 v 0 a 10 10 0 0 0 10 10"></path><g>
<path d="M 891.75 586 h 0.0"></path><path d="M 945.75 586 h 0.0"></path><g class="terminal ">
<path d="M 891.75 586 h 0.0"></path><path d="M 945.75 586 h 0.0"></path><rect height="22" rx="10" ry="10" width="54.0" x="891.75" y="575"></rect><text x="918.75" y="590">TEXT</text></g></g><path d="M 945.75 586 a 10 10 0 0 0 10 -10 v 0 a 10 10 0 0 1 10 -10"></path></g></g><path d="M 1559.0 566 h 20"></path></g></g><path d="M 1594.0 566 h 20"></path><path d="M 132.5 566 a 10 10 0 0 1 10 10 v 69 a 10 10 0 0 0 10 10"></path><g>
<path d="M 152.5 655 h 0.0"></path><path d="M 1594.0 655 h 0.0"></path><g>
<path d="M 152.5 655 h 0.0"></path><path d="M 326.0 655 h 0.0"></path><path d="M 152.5 655 a 10 10 0 0 0 10 -10 v 0 a 10 10 0 0 1 10 -10"></path><g>
<path d="M 172.5 635 h 133.5"></path></g><path d="M 306.0 635 a 10 10 0 0 1 10 10 v 0 a 10 10 0 0 0 10 10"></path><path d="M 152.5 655 h 20"></path><g>
<path d="M 172.5 655 h 0.0"></path><path d="M 306.0 655 h 0.0"></path><path d="M 172.5 655 h 10"></path><g class="non-terminal ">
<path d="M 182.5 655 h 0.0"></path><path d="M 296.0 655 h 0.0"></path><rect height="22" width="113.5" x="182.5" y="644"></rect><text x="239.25" y="659">BookHeaders</text></g><path d="M 296.0 655 h 10"></path><path d="M 182.5 655 a 10 10 0 0 0 -10 10 v 0 a 10 10 0 0 0 10 10"></path><g>
<path d="M 182.5 675 h 113.5"></path></g><path d="M 296.0 675 a 10 10 0 0 0 10 -10 v 0 a 10 10 0 0 0 -10 -10"></path></g><path d="M 306.0 655 h 20"></path></g><path d="M 326.0 655 h 10"></path><path d="M 336.0 655 h 10"></path><g>
<path d="M 346.0 655 h 0.0"></path><path d="M 511.0 655 h 0.0"></path><path d="M 346.0 655 a 10 10 0 0 0 10 -10 v 0 a 10 10 0 0 1 10 -10"></path><g>
<path d="M 366.0 635 h 125.0"></path></g><path d="M 491.0 635 a 10 10 0 0 1 10 10 v 0 a 10 10 0 0 0 10 10"></path><path d="M 346.0 655 h 20"></path><g>
<path d="M 366.0 655 h 0.0"></path><path d="M 491.0 655 h 0.0"></path><path d="M 366.0 655 h 10"></path><g class="non-terminal ">
<path d="M 376.0 655 h 0.0"></path><path d="M 481.0 655 h 0.0"></path><rect height="22" width="105.0" x="376.0" y="644"></rect><text x="428.5" y="659">BookTitles</text></g><path d="M 481.0 655 h 10"></path><path d="M 376.0 655 a 10 10 0 0 0 -10 10 v 0 a 10 10 0 0 0 10 10"></path><g>
<path d="M 376.0 675 h 105.0"></path></g><path d="M 481.0 675 a 10 10 0 0 0 10 -10 v 0 a 10 10 0 0 0 -10 -10"></path></g><path d="M 491.0 655 h 20"></path></g><path d="M 511.0 655 h 10"></path><path d="M 521.0 655 h 10"></path><g>
<path d="M 531.0 655 h 0.0"></path><path d="M 747.0 655 h 0.0"></path><path d="M 531.0 655 a 10 10 0 0 0 10 -10 v 0 a 10 10 0 0 1 10 -10"></path><g>
<path d="M 551.0 635 h 176.0"></path></g><path d="M 727.0 635 a 10 10 0 0 1 10 10 v 0 a 10 10 0 0 0 10 10"></path><path d="M 531.0 655 h 20"></path><g>
<path d="M 551.0 655 h 0.0"></path><path d="M 727.0 655 h 0.0"></path><path d="M 551.0 655 h 10"></path><g class="non-terminal ">
<path d="M 561.0 655 h 0.0"></path><path d="M 717.0 655 h 0.0"></path><rect height="22" width="156.0" x="561.0" y="644"></rect><text x="639.0" y="659">BookIntroduction</text></g><path d="M 717.0 655 h 10"></path><path d="M 561.0 655 a 10 10 0 0 0 -10 10 v 0 a 10 10 0 0 0 10 10"></path><g>
<path d="M 561.0 675 h 156.0"></path></g><path d="M 717.0 675 a 10 10 0 0 0 10 -10 v 0 a 10 10 0 0 0 -10 -10"></path></g><path d="M 727.0 655 h 20"></path></g><path d="M 747.0 655 h 10"></path><path d="M 757.0 655 h 10"></path><g>
<path d="M 767.0 655 h 0.0"></path><path d="M 1059.5 655 h 0.0"></path><path d="M 767.0 655 a 10 10 0 0 0 10 -10 v 0 a 10 10 0 0 1 10 -10"></path><g>
<path d="M 787.0 635 h 252.5"></path></g><path d="M 1039.5 635 a 10 10 0 0 1 10 10 v 0 a 10 10 0 0 0 10 10"></path><path d="M 767.0 655 h 20"></path><g>
<path d="M 787.0 655 h 0.0"></path><path d="M 1039.5 655 h 0.0"></path><path d="M 787.0 655 h 10"></path><g class="non-terminal ">
<path d="M 797.0 655 h 0.0"></path><path d="M 1029.5 655 h 0.0"></path><rect height="22" width="232.5" x="797.0" y="644"></rect><text x="913.25" y="659">BookIntroductionEndTitles</text></g><path d="M 1029.5 655 h 10"></path><path d="M 797.0 655 a 10 10 0 0 0 -10 10 v 0 a 10 10 0 0 0 10 10"></path><g>
<path d="M 797.0 675 h 232.5"></path></g><path d="M 1029.5 675 a 10 10 0 0 0 10 -10 v 0 a 10 10 0 0 0 -10 -10"></path></g><path d="M 1039.5 655 h 20"></path></g><path d="M 1059.5 655 h 10"></path><path d="M 1069.5 655 h 10"></path><g>
<path d="M 1079.5 655 h 0.0"></path><path d="M 1275.5 655 h 0.0"></path><path d="M 1079.5 655 h 20"></path><g>
<path d="M 1099.5 655 h 156.0"></path></g><path d="M 1255.5 655 h 20"></path><path d="M 1079.5 655 a 10 10 0 0 1 10 10 v 0 a 10 10 0 0 0 10 10"></path><g class="non-terminal ">
<path d="M 1099.5 675 h 0.0"></path><path d="M 1255.5 675 h 0.0"></path><rect height="22" width="156.0" x="1099.5" y="664"></rect><text x="1177.5" y="679">BookChapterLabel</text></g><path d="M 1255.5 675 a 10 10 0 0 0 10 -10 v 0 a 10 10 0 0 1 10 -10"></path></g><path d="M 1275.5 655 h 10"></path><path d="M 1285.5 655 h 10"></path><g class="non-terminal ">
<path d="M 1295.5 655 h 0.0"></path><path d="M 1375.0 655 h 0.0"></path><rect height="22" width="79.5" x="1295.5" y="644"></rect><text x="1335.25" y="659">Chapter</text></g><path d="M 1375.0 655 h 10"></path><path d="M 1385.0 655 h 10"></path><g>
<path d="M 1395.0 655 h 0.0"></path><path d="M 1594.0 655 h 0.0"></path><path d="M 1395.0 655 h 10"></path><g>
<path d="M 1405.0 655 h 0.0"></path><path d="M 1584.0 655 h 0.0"></path><path d="M 1405.0 655 h 20"></path><g class="non-terminal ">
<path d="M 1425.0 655 h 29.75"></path><path d="M 1534.25 655 h 29.75"></path><rect height="22" width="79.5" x="1454.75" y="644"></rect><text x="1494.5" y="659">Chapter</text></g><path d="M 1564.0 655 h 20"></path><path d="M 1405.0 655 a 10 10 0 0 1 10 10 v 10 a 10 10 0 0 0 10 10"></path><g class="non-terminal ">
<path d="M 1425.0 685 h 29.75"></path><path d="M 1534.25 685 h 29.75"></path><rect height="22" width="79.5" x="1454.75" y="674"></rect><text x="1494.5" y="689">Section</text></g><path d="M 1564.0 685 a 10 10 0 0 0 10 -10 v -10 a 10 10 0 0 1 10 -10"></path><path d="M 1405.0 655 a 10 10 0 0 1 10 10 v 40 a 10 10 0 0 0 10 10"></path><g class="non-terminal ">
<path d="M 1425.0 715 h 42.5"></path><path d="M 1521.5 715 h 42.5"></path><rect height="22" width="54.0" x="1467.5" y="704"></rect><text x="1494.5" y="719">Para</text></g><path d="M 1564.0 715 a 10 10 0 0 0 10 -10 v -40 a 10 10 0 0 1 10 -10"></path><path d="M 1405.0 655 a 10 10 0 0 1 10 10 v 70 a 10 10 0 0 0 10 10"></path><g class="non-terminal ">
<path d="M 1425.0 745 h 42.5"></path><path d="M 1521.5 745 h 42.5"></path><rect height="22" width="54.0" x="1467.5" y="734"></rect><text x="1494.5" y="749">List</text></g><path d="M 1564.0 745 a 10 10 0 0 0 10 -10 v -70 a 10 10 0 0 1 10 -10"></path><path d="M 1405.0 655 a 10 10 0 0 1 10 10 v 100 a 10 10 0 0 0 10 10"></path><g class="non-terminal ">
<path d="M 1425.0 775 h 38.25"></path><path d="M 1525.75 775 h 38.25"></path><rect height="22" width="62.5" x="1463.25" y="764"></rect><text x="1494.5" y="779">Table</text></g><path d="M 1564.0 775 a 10 10 0 0 0 10 -10 v -100 a 10 10 0 0 1 10 -10"></path><path d="M 1405.0 655 a 10 10 0 0 1 10 10 v 130 a 10 10 0 0 0 10 10"></path><g class="non-terminal ">
<path d="M 1425.0 805 h 25.5"></path><path d="M 1538.5 805 h 25.5"></path><rect height="22" width="88.0" x="1450.5" y="794"></rect><text x="1494.5" y="809">Footnote</text></g><path d="M 1564.0 805 a 10 10 0 0 0 10 -10 v -130 a 10 10 0 0 1 10 -10"></path><path d="M 1405.0 655 a 10 10 0 0 1 10 10 v 160 a 10 10 0 0 0 10 10"></path><g class="non-terminal ">
<path d="M 1425.0 835 h 0.0"></path><path d="M 1564.0 835 h 0.0"></path><rect height="22" width="139.0" x="1425.0" y="824"></rect><text x="1494.5" y="839">CrossReference</text></g><path d="M 1564.0 835 a 10 10 0 0 0 10 -10 v -160 a 10 10 0 0 1 10 -10"></path><path d="M 1405.0 655 a 10 10 0 0 1 10 10 v 190 a 10 10 0 0 0 10 10"></path><g class="non-terminal ">
<path d="M 1425.0 865 h 29.75"></path><path d="M 1534.25 865 h 29.75"></path><rect height="22" width="79.5" x="1454.75" y="854"></rect><text x="1494.5" y="869">Sidebar</text></g><path d="M 1564.0 865 a 10 10 0 0 0 10 -10 v -190 a 10 10 0 0 1 10 -10"></path><path d="M 1405.0 655 a 10 10 0 0 1 10 10 v 220 a 10 10 0 0 0 10 10"></path><g class="non-terminal ">
<path d="M 1425.0 895 h 21.25"></path><path d="M 1542.75 895 h 21.25"></path><rect height="22" width="96.5" x="1446.25" y="884"></rect><text x="1494.5" y="899">Milestone</text></g><path d="M 1564.0 895 a 10 10 0 0 0 10 -10 v -220 a 10 10 0 0 1 10 -10"></path></g><path d="M 1584.0 655 h 10"></path><path d="M 1405.0 655 a 10 10 0 0 0 -10 10 v 249 a 10 10 0 0 0 10 10"></path><g>
<path d="M 1405.0 924 h 179.0"></path></g><path d="M 1584.0 924 a 10 10 0 0 0 10 -10 v -249 a 10 10 0 0 0 -10 -10"></path></g></g><path d="M 1594.0 655 a 10 10 0 0 0 10 -10 v -69 a 10 10 0 0 1 10 -10"></path></g></g></g><path d="M 1614.0 566 h 10"></path><path d="M 1624.0 566 h 20 m 0 -10 v 20"></path></g></svg>