<svg class="railroad-diagram" height="691" viewBox="0 0 2055.5 691" width="2055.5" xmlns="http://www.w3.org/2000/svg" xmlns:xlink="http://www.w3.org/1999/xlink">
<g transform="translate(.5 .5)">
<style>/* <![CDATA[ */
    svg.railroad-diagram {
        background-color:hsl(30,20%,95%);
    }
    svg.railroad-diagram path {
        stroke-width: 2;
        stroke: black;
        fill: none;
    }
    svg.railroad-diagram text {
        font-size: 12px;
        text-anchor: middle;
        font-family: DejaVu Sans;
    }
    svg.railroad-diagram text.label {
        text-anchor:start;
    }
    svg.railroad-diagram text.comment {
        font-family: DejaVu Sans;
        font-size: 14px;
    }
    svg.railroad-diagram rect{
        stroke-width: 2;
        stroke:black;
        fill: rgb(210, 210, 255);
    }
    svg.railroad-diagram rect.group-box {
        stroke: gray;
        stroke-dasharray: 10 5;
        fill: none;
    }
    .terminal {
        font-family: DejaVu Sans;
    }

/* ]]> */
</style><g>
<path d="M 20 376 v 20 m 0 -10 h 20"></path></g><path d="M 40 386 h 10"></path><g>
<path d="M 50 386 h 0.0"></path><path d="M 2005.5 661 h 0.0"></path><g class="terminal ">
<path d="M 50.0 386 h 0.0"></path><path d="M 112.5 386 h 0.0"></path><rect height="22" rx="10" ry="10" width="62.5" x="50.0" y="375"></rect><text x="81.25" y="390">&#60;usx></text></g><path d="M 112.5 386 h 10"></path><g>
<path d="M 122.5 386 h 0.0"></path><path d="M 2005.5 661 h 0.0"></path><path d="M 122.5 386 a 10 10 0 0 0 10 -10 v -305 a 10 10 0 0 1 10 -10"></path><g>
<path d="M 142.5 61 h 0.0"></path><path d="M 466.0 61 h 0.0"></path><g class="terminal ">
<path d="M 142.5 61 h 0.0"></path><path d="M 392.0 61 h 0.0"></path><rect height="22" rx="10" ry="10" width="249.5" x="142.5" y="50"></rect><text x="267.25" y="65">@noNamespaceSchemaLocation?</text></g><path d="M 392.0 61 h 10"></path><path d="M 402.0 61 h 10"></path><g class="terminal ">
<path d="M 412.0 61 h 0.0"></path><path d="M 466.0 61 h 0.0"></path><rect height="22" rx="10" ry="10" width="54.0" x="412.0" y="50"></rect><text x="439.0" y="65">text</text></g></g><path d="M 122.5 386 a 10 10 0 0 0 10 -10 v -335 a 10 10 0 0 1 10 -10"></path><g>
<path d="M 142.5 31 h 0.0"></path><path d="M 423.5 31 h 0.0"></path><g class="terminal ">
<path d="M 142.5 31 h 0.0"></path><path d="M 230.5 31 h 0.0"></path><rect height="22" rx="10" ry="10" width="88.0" x="142.5" y="20"></rect><text x="186.5" y="35">@version</text></g><path d="M 230.5 31 h 10"></path><path d="M 240.5 31 h 10"></path><g class="terminal ">
<path d="M 250.5 31 h 0.0"></path><path d="M 423.5 31 h 0.0"></path><rect height="22" rx="10" ry="10" width="173.0" x="250.5" y="20"></rect><text x="337.0" y="35">/\d+\.\d+(\.\d+)?/</text></g></g><path d="M 122.5 386 h 20"></path><g>
<path d="M 142.5 386 h 0.0"></path><path d="M 142.5 386 h 10"></path><g>
<path d="M 152.5 386 h 10.0"></path><path d="M 1965.5 386 h 10.0"></path><g class="terminal ">
<path d="M 162.5 386 h 0.0"></path><path d="M 233.5 386 h 0.0"></path><rect height="22" rx="10" ry="10" width="71.0" x="162.5" y="375"></rect><text x="198.0" y="390">&#60;book></text></g><path d="M 233.5 386 h 10"></path><g>
<path d="M 243.5 386 h 0.0"></path><path d="M 1965.5 386 h 0.0"></path><path d="M 243.5 386 a 10 10 0 0 0 10 -10 v -19 a 10 10 0 0 1 10 -10"></path><g>
<path d="M 263.5 347 h 0.0"></path><path d="M 408.5 347 h 0.0"></path><g class="terminal ">
<path d="M 263.5 347 h 0.0"></path><path d="M 334.5 347 h 0.0"></path><rect height="22" rx="10" ry="10" width="71.0" x="263.5" y="336"></rect><text x="299.0" y="351">@style</text></g><path d="M 334.5 347 h 10"></path><path d="M 344.5 347 h 10"></path><g class="terminal ">
<path d="M 354.5 347 h 0.0"></path><path d="M 408.5 347 h 0.0"></path><rect height="22" rx="10" ry="10" width="54.0" x="354.5" y="336"></rect><text x="381.5" y="351">"id"</text></g></g><path d="M 243.5 386 a 10 10 0 0 0 10 -10 v -177 a 10 10 0 0 1 10 -10"></path><g>
<path d="M 263.5 189 h 0.0"></path><path d="M 1945.5 189 h 0.0"></path><g class="terminal ">
<path d="M 263.5 189 h 0.0"></path><path d="M 326.0 189 h 0.0"></path><rect height="22" rx="10" ry="10" width="62.5" x="263.5" y="178"></rect><text x="294.75" y="193">@code</text></g><path d="M 326.0 189 h 10"></path><g>
<path d="M 336.0 189 h 0.0"></path><path d="M 1945.5 189 h 0.0"></path><path d="M 336.0 189 a 10 10 0 0 0 10 -10 v -89 a 10 10 0 0 1 10 -10 h 1440.0"></path><path d="M 336.0 189 h 10"></path><g>
<path d="M 346.0 189 h 0.0"></path><path d="M 346.0 189 a 10 10 0 0 0 10 -10 v -10 a 10 10 0 0 1 10 -10"></path><g class="terminal ">
<path d="M 366.0 159 h 0.0"></path><path d="M 428.5 159 h 0.0"></path><rect height="22" rx="10" ry="10" width="62.5" x="366.0" y="148"></rect><text x="397.25" y="163">"LEV"</text></g><path d="M 346.0 189 a 10 10 0 0 0 10 -10 v -40 a 10 10 0 0 1 10 -10"></path><g class="terminal ">
<path d="M 366.0 129 h 0.0"></path><path d="M 428.5 129 h 0.0"></path><rect height="22" rx="10" ry="10" width="62.5" x="366.0" y="118"></rect><text x="397.25" y="133">"EXO"</text></g><path d="M 346.0 189 a 10 10 0 0 0 10 -10 v -70 a 10 10 0 0 1 10 -10"></path><g class="terminal ">
<path d="M 366.0 99 h 0.0"></path><path d="M 428.5 99 h 0.0"></path><rect height="22" rx="10" ry="10" width="62.5" x="366.0" y="88"></rect><text x="397.25" y="103">"GEN"</text></g><path d="M 346.0 189 h 20"></path><g class="terminal ">
<path d="M 366.0 189 h 0.0"></path><path d="M 428.5 189 h 0.0"></path><rect height="22" rx="10" ry="10" width="62.5" x="366.0" y="178"></rect><text x="397.25" y="193">"NUM"</text></g><path d="M 346.0 189 a 10 10 0 0 1 10 10 v 10 a 10 10 0 0 0 10 10"></path><g class="terminal ">
<path d="M 366.0 219 h 0.0"></path><path d="M 428.5 219 h 0.0"></path><rect height="22" rx="10" ry="10" width="62.5" x="366.0" y="208"></rect><text x="397.25" y="223">"DEU"</text></g><path d="M 346.0 189 a 10 10 0 0 1 10 10 v 40 a 10 10 0 0 0 10 10"></path><g class="terminal ">
<path d="M 366.0 249 h 0.0"></path><path d="M 428.5 249 h 0.0"></path><rect height="22" rx="10" ry="10" width="62.5" x="366.0" y="238"></rect><text x="397.25" y="253">"JOS"</text></g><path d="M 346.0 189 a 10 10 0 0 1 10 10 v 70 a 10 10 0 0 0 10 10"></path><g class="terminal ">
<path d="M 366.0 279 h 0.0"></path><path d="M 428.5 279 h 0.0"></path><rect height="22" rx="10" ry="10" width="62.5" x="366.0" y="268"></rect><text x="397.25" y="283">"JDG"</text></g><path d="M 346.0 189 a 10 10 0 0 1 10 10 v 100 a 10 10 0 0 0 10 10"></path><g class="terminal ">
<path d="M 366.0 309 h 0.0"></path><path d="M 428.5 309 h 0.0"></path><rect height="22" rx="10" ry="10" width="62.5" x="366.0" y="298"></rect><text x="397.25" y="313">"RUT"</text></g></g><path d="M 448.5 80 a 10 10 0 0 1 10 10 v 89 a 10 10 0 0 0 10 10"></path><g>
<path d="M 468.5 189 h 0.0"></path><path d="M 468.5 189 a 10 10 0 0 0 10 -10 v -10 a 10 10 0 0 1 10 -10"></path><g class="terminal ">
<path d="M 488.5 159 h 0.0"></path><path d="M 551.0 159 h 0.0"></path><rect height="22" rx="10" ry="10" width="62.5" x="488.5" y="148"></rect><text x="519.75" y="163">"1KI"</text></g><path d="M 468.5 189 a 10 10 0 0 0 10 -10 v -40 a 10 10 0 0 1 10 -10"></path><g class="terminal ">
<path d="M 488.5 129 h 0.0"></path><path d="M 551.0 129 h 0.0"></path><rect height="22" rx="10" ry="10" width="62.5" x="488.5" y="118"></rect><text x="519.75" y="133">"2SA"</text></g><path d="M 468.5 189 a 10 10 0 0 0 10 -10 v -70 a 10 10 0 0 1 10 -10"></path><g class="terminal ">
<path d="M 488.5 99 h 0.0"></path><path d="M 551.0 99 h 0.0"></path><rect height="22" rx="10" ry="10" width="62.5" x="488.5" y="88"></rect><text x="519.75" y="103">"1SA"</text></g><path d="M 468.5 189 h 20"></path><g class="terminal ">
<path d="M 488.5 189 h 0.0"></path><path d="M 551.0 189 h 0.0"></path><rect height="22" rx="10" ry="10" width="62.5" x="488.5" y="178"></rect><text x="519.75" y="193">"2KI"</text></g><path d="M 468.5 189 a 10 10 0 0 1 10 10 v 10 a 10 10 0 0 0 10 10"></path><g class="terminal ">
<path d="M 488.5 219 h 0.0"></path><path d="M 551.0 219 h 0.0"></path><rect height="22" rx="10" ry="10" width="62.5" x="488.5" y="208"></rect><text x="519.75" y="223">"1CH"</text></g><path d="M 468.5 189 a 10 10 0 0 1 10 10 v 40 a 10 10 0 0 0 10 10"></path><g class="terminal ">
<path d="M 488.5 249 h 0.0"></path><path d="M 551.0 249 h 0.0"></path><rect height="22" rx="10" ry="10" width="62.5" x="488.5" y="238"></rect><text x="519.75" y="253">"2CH"</text></g><path d="M 468.5 189 a 10 10 0 0 1 10 10 v 70 a 10 10 0 0 0 10 10"></path><g class="terminal ">
<path d="M 488.5 279 h 0.0"></path><path d="M 551.0 279 h 0.0"></path><rect height="22" rx="10" ry="10" width="62.5" x="488.5" y="268"></rect><text x="519.75" y="283">"EZR"</text></g><path d="M 468.5 189 a 10 10 0 0 1 10 10 v 100 a 10 10 0 0 0 10 10"></path><g class="terminal ">
<path d="M 488.5 309 h 0.0"></path><path d="M 551.0 309 h 0.0"></path><rect height="22" rx="10" ry="10" width="62.5" x="488.5" y="298"></rect><text x="519.75" y="313">"NEH"</text></g></g><path d="M 571.0 80 a 10 10 0 0 1 10 10 v 89 a 10 10 0 0 0 10 10"></path><g>
<path d="M 591.0 189 h 0.0"></path><path d="M 591.0 189 a 10 10 0 0 0 10 -10 v -10 a 10 10 0 0 1 10 -10"></path><g class="terminal ">
<path d="M 611.0 159 h 0.0"></path><path d="M 673.5 159 h 0.0"></path><rect height="22" rx="10" ry="10" width="62.5" x="611.0" y="148"></rect><text x="642.25" y="163">"PSA"</text></g><path d="M 591.0 189 a 10 10 0 0 0 10 -10 v -40 a 10 10 0 0 1 10 -10"></path><g class="terminal ">
<path d="M 611.0 129 h 0.0"></path><path d="M 673.5 129 h 0.0"></path><rect height="22" rx="10" ry="10" width="62.5" x="611.0" y="118"></rect><text x="642.25" y="133">"JOB"</text></g><path d="M 591.0 189 a 10 10 0 0 0 10 -10 v -70 a 10 10 0 0 1 10 -10"></path><g class="terminal ">
<path d="M 611.0 99 h 0.0"></path><path d="M 673.5 99 h 0.0"></path><rect height="22" rx="10" ry="10" width="62.5" x="611.0" y="88"></rect><text x="642.25" y="103">"EST"</text></g><path d="M 591.0 189 h 20"></path><g class="terminal ">
<path d="M 611.0 189 h 0.0"></path><path d="M 673.5 189 h 0.0"></path><rect height="22" rx="10" ry="10" width="62.5" x="611.0" y="178"></rect><text x="642.25" y="193">"PRO"</text></g><path d="M 591.0 189 a 10 10 0 0 1 10 10 v 10 a 10 10 0 0 0 10 10"></path><g class="terminal ">
<path d="M 611.0 219 h 0.0"></path><path d="M 673.5 219 h 0.0"></path><rect height="22" rx="10" ry="10" width="62.5" x="611.0" y="208"></rect><text x="642.25" y="223">"ECC"</text></g><path d="M 591.0 189 a 10 10 0 0 1 10 10 v 40 a 10 10 0 0 0 10 10"></path><g class="terminal ">
<path d="M 611.0 249 h 0.0"></path><path d="M 673.5 249 h 0.0"></path><rect height="22" rx="10" ry="10" width="62.5" x="611.0" y="238"></rect><text x="642.25" y="253">"SNG"</text></g><path d="M 591.0 189 a 10 10 0 0 1 10 10 v 70 a 10 10 0 0 0 10 10"></path><g class="terminal ">
<path d="M 611.0 279 h 0.0"></path><path d="M 673.5 279 h 0.0"></path><rect height="22" rx="10" ry="10" width="62.5" x="611.0" y="268"></rect><text x="642.25" y="283">"ISA"</text></g><path d="M 591.0 189 a 10 10 0 0 1 10 10 v 100 a 10 10 0 0 0 10 10"></path><g class="terminal ">
<path d="M 611.0 309 h 0.0"></path><path d="M 673.5 309 h 0.0"></path><rect height="22" rx="10" ry="10" width="62.5" x="611.0" y="298"></rect><text x="642.25" y="313">"JER"</text></g></g><path d="M 693.5 80 a 10 10 0 0 1 10 10 v 89 a 10 10 0 0 0 10 10"></path><g>
<path d="M 713.5 189 h 0.0"></path><path d="M 713.5 189 a 10 10 0 0 0 10 -10 v -10 a 10 10 0 0 1 10 -10"></path><g class="terminal ">
<path d="M 733.5 159 h 0.0"></path><path d="M 796.0 159 h 0.0"></path><rect height="22" rx="10" ry="10" width="62.5" x="733.5" y="148"></rect><text x="764.75" y="163">"DAN"</text></g><path d="M 713.5 189 a 10 10 0 0 0 10 -10 v -40 a 10 10 0 0 1 10 -10"></path><g class="terminal ">
<path d="M 733.5 129 h 0.0"></path><path d="M 796.0 129 h 0.0"></path><rect height="22" rx="10" ry="10" width="62.5" x="733.5" y="118"></rect><text x="764.75" y="133">"EZK"</text></g><path d="M 713.5 189 a 10 10 0 0 0 10 -10 v -70 a 10 10 0 0 1 10 -10"></path><g class="terminal ">
<path d="M 733.5 99 h 0.0"></path><path d="M 796.0 99 h 0.0"></path><rect height="22" rx="10" ry="10" width="62.5" x="733.5" y="88"></rect><text x="764.75" y="103">"LAM"</text></g><path d="M 713.5 189 h 20"></path><g class="terminal ">
<path d="M 733.5 189 h 0.0"></path><path d="M 796.0 189 h 0.0"></path><rect height="22" rx="10" ry="10" width="62.5" x="733.5" y="178"></rect><text x="764.75" y="193">"HOS"</text></g><path d="M 713.5 189 a 10 10 0 0 1 10 10 v 10 a 10 10 0 0 0 10 10"></path><g class="terminal ">
<path d="M 733.5 219 h 0.0"></path><path d="M 796.0 219 h 0.0"></path><rect height="22" rx="10" ry="10" width="62.5" x="733.5" y="208"></rect><text x="764.75" y="223">"JOL"</text></g><path d="M 713.5 189 a 10 10 0 0 1 10 10 v 40 a 10 10 0 0 0 10 10"></path><g class="terminal ">
<path d="M 733.5 249 h 0.0"></path><path d="M 796.0 249 h 0.0"></path><rect height="22" rx="10" ry="10" width="62.5" x="733.5" y="238"></rect><text x="764.75" y="253">"AMO"</text></g><path d="M 713.5 189 a 10 10 0 0 1 10 10 v 70 a 10 10 0 0 0 10 10"></path><g class="terminal ">
<path d="M 733.5 279 h 0.0"></path><path d="M 796.0 279 h 0.0"></path><rect height="22" rx="10" ry="10" width="62.5" x="733.5" y="268"></rect><text x="764.75" y="283">"OBA"</text></g><path d="M 713.5 189 a 10 10 0 0 1 10 10 v 100 a 10 10 0 0 0 10 10"></path><g class="terminal ">
<path d="M 733.5 309 h 0.0"></path><path d="M 796.0 309 h 0.0"></path><rect height="22" rx="10" ry="10" width="62.5" x="733.5" y="298"></rect><text x="764.75" y="313">"JON"</text></g></g><path d="M 816.0 80 a 10 10 0 0 1 10 10 v 89 a 10 10 0 0 0 10 10"></path><g>
<path d="M 836.0 189 h 0.0"></path><path d="M 836.0 189 a 10 10 0 0 0 10 -10 v -10 a 10 10 0 0 1 10 -10"></path><g class="terminal ">
<path d="M 856.0 159 h 0.0"></path><path d="M 918.5 159 h 0.0"></path><rect height="22" rx="10" ry="10" width="62.5" x="856.0" y="148"></rect><text x="887.25" y="163">"HAB"</text></g><path d="M 836.0 189 a 10 10 0 0 0 10 -10 v -40 a 10 10 0 0 1 10 -10"></path><g class="terminal ">
<path d="M 856.0 129 h 0.0"></path><path d="M 918.5 129 h 0.0"></path><rect height="22" rx="10" ry="10" width="62.5" x="856.0" y="118"></rect><text x="887.25" y="133">"NAM"</text></g><path d="M 836.0 189 a 10 10 0 0 0 10 -10 v -70 a 10 10 0 0 1 10 -10"></path><g class="terminal ">
<path d="M 856.0 99 h 0.0"></path><path d="M 918.5 99 h 0.0"></path><rect height="22" rx="10" ry="10" width="62.5" x="856.0" y="88"></rect><text x="887.25" y="103">"MIC"</text></g><path d="M 836.0 189 h 20"></path><g class="terminal ">
<path d="M 856.0 189 h 0.0"></path><path d="M 918.5 189 h 0.0"></path><rect height="22" rx="10" ry="10" width="62.5" x="856.0" y="178"></rect><text x="887.25" y="193">"ZEP"</text></g><path d="M 836.0 189 a 10 10 0 0 1 10 10 v 10 a 10 10 0 0 0 10 10"></path><g class="terminal ">
<path d="M 856.0 219 h 0.0"></path><path d="M 918.5 219 h 0.0"></path><rect height="22" rx="10" ry="10" width="62.5" x="856.0" y="208"></rect><text x="887.25" y="223">"HAG"</text></g><path d="M 836.0 189 a 10 10 0 0 1 10 10 v 40 a 10 10 0 0 0 10 10"></path><g class="terminal ">
<path d="M 856.0 249 h 0.0"></path><path d="M 918.5 249 h 0.0"></path><rect height="22" rx="10" ry="10" width="62.5" x="856.0" y="238"></rect><text x="887.25" y="253">"ZEC"</text></g><path d="M 836.0 189 a 10 10 0 0 1 10 10 v 70 a 10 10 0 0 0 10 10"></path><g class="terminal ">
<path d="M 856.0 279 h 0.0"></path><path d="M 918.5 279 h 0.0"></path><rect height="22" rx="10" ry="10" width="62.5" x="856.0" y="268"></rect><text x="887.25" y="283">"MAL"</text></g><path d="M 836.0 189 a 10 10 0 0 1 10 10 v 100 a 10 10 0 0 0 10 10"></path><g class="terminal ">
<path d="M 856.0 309 h 0.0"></path><path d="M 918.5 309 h 0.0"></path><rect height="22" rx="10" ry="10" width="62.5" x="856.0" y="298"></rect><text x="887.25" y="313">"MAT"</text></g></g><path d="M 938.5 80 a 10 10 0 0 1 10 10 v 89 a 10 10 0 0 0 10 10"></path><g>
<path d="M 958.5 189 h 0.0"></path><path d="M 958.5 189 a 10 10 0 0 0 10 -10 v -10 a 10 10 0 0 1 10 -10"></path><g class="terminal ">
<path d="M 978.5 159 h 0.0"></path><path d="M 1041.0 159 h 0.0"></path><rect height="22" rx="10" ry="10" width="62.5" x="978.5" y="148"></rect><text x="1009.75" y="163">"JHN"</text></g><path d="M 958.5 189 a 10 10 0 0 0 10 -10 v -40 a 10 10 0 0 1 10 -10"></path><g class="terminal ">
<path d="M 978.5 129 h 0.0"></path><path d="M 1041.0 129 h 0.0"></path><rect height="22" rx="10" ry="10" width="62.5" x="978.5" y="118"></rect><text x="1009.75" y="133">"LUK"</text></g><path d="M 958.5 189 a 10 10 0 0 0 10 -10 v -70 a 10 10 0 0 1 10 -10"></path><g class="terminal ">
<path d="M 978.5 99 h 0.0"></path><path d="M 1041.0 99 h 0.0"></path><rect height="22" rx="10" ry="10" width="62.5" x="978.5" y="88"></rect><text x="1009.75" y="103">"MRK"</text></g><path d="M 958.5 189 h 20"></path><g class="terminal ">
<path d="M 978.5 189 h 0.0"></path><path d="M 1041.0 189 h 0.0"></path><rect height="22" rx="10" ry="10" width="62.5" x="978.5" y="178"></rect><text x="1009.75" y="193">"ACT"</text></g><path d="M 958.5 189 a 10 10 0 0 1 10 10 v 10 a 10 10 0 0 0 10 10"></path><g class="terminal ">
<path d="M 978.5 219 h 0.0"></path><path d="M 1041.0 219 h 0.0"></path><rect height="22" rx="10" ry="10" width="62.5" x="978.5" y="208"></rect><text x="1009.75" y="223">"ROM"</text></g><path d="M 958.5 189 a 10 10 0 0 1 10 10 v 40 a 10 10 0 0 0 10 10"></path><g class="terminal ">
<path d="M 978.5 249 h 0.0"></path><path d="M 1041.0 249 h 0.0"></path><rect height="22" rx="10" ry="10" width="62.5" x="978.5" y="238"></rect><text x="1009.75" y="253">"1CO"</text></g><path d="M 958.5 189 a 10 10 0 0 1 10 10 v 70 a 10 10 0 0 0 10 10"></path><g class="terminal ">
<path d="M 978.5 279 h 0.0"></path><path d="M 1041.0 279 h 0.0"></path><rect height="22" rx="10" ry="10" width="62.5" x="978.5" y="268"></rect><text x="1009.75" y="283">"2CO"</text></g><path d="M 958.5 189 a 10 10 0 0 1 10 10 v 100 a 10 10 0 0 0 10 10"></path><g class="terminal ">
<path d="M 978.5 309 h 0.0"></path><path d="M 1041.0 309 h 0.0"></path><rect height="22" rx="10" ry="10" width="62.5" x="978.5" y="298"></rect><text x="1009.75" y="313">"GAL"</text></g></g><path d="M 1061.0 80 a 10 10 0 0 1 10 10 v 89 a 10 10 0 0 0 10 10"></path><g>
<path d="M 1081.0 189 h 0.0"></path><path d="M 1081.0 189 a 10 10 0 0 0 10 -10 v -10 a 10 10 0 0 1 10 -10"></path><g class="terminal ">
<path d="M 1101.0 159 h 0.0"></path><path d="M 1163.5 159 h 0.0"></path><rect height="22" rx="10" ry="10" width="62.5" x="1101.0" y="148"></rect><text x="1132.25" y="163">"COL"</text></g><path d="M 1081.0 189 a 10 10 0 0 0 10 -10 v -40 a 10 10 0 0 1 10 -10"></path><g class="terminal ">
<path d="M 1101.0 129 h 0.0"></path><path d="M 1163.5 129 h 0.0"></path><rect height="22" rx="10" ry="10" width="62.5" x="1101.0" y="118"></rect><text x="1132.25" y="133">"PHP"</text></g><path d="M 1081.0 189 a 10 10 0 0 0 10 -10 v -70 a 10 10 0 0 1 10 -10"></path><g class="terminal ">
<path d="M 1101.0 99 h 0.0"></path><path d="M 1163.5 99 h 0.0"></path><rect height="22" rx="10" ry="10" width="62.5" x="1101.0" y="88"></rect><text x="1132.25" y="103">"EPH"</text></g><path d="M 1081.0 189 h 20"></path><g class="terminal ">
<path d="M 1101.0 189 h 0.0"></path><path d="M 1163.5 189 h 0.0"></path><rect height="22" rx="10" ry="10" width="62.5" x="1101.0" y="178"></rect><text x="1132.25" y="193">"1TH"</text></g><path d="M 1081.0 189 a 10 10 0 0 1 10 10 v 10 a 10 10 0 0 0 10 10"></path><g class="terminal ">
<path d="M 1101.0 219 h 0.0"></path><path d="M 1163.5 219 h 0.0"></path><rect height="22" rx="10" ry="10" width="62.5" x="1101.0" y="208"></rect><text x="1132.25" y="223">"2TH"</text></g><path d="M 1081.0 189 a 10 10 0 0 1 10 10 v 40 a 10 10 0 0 0 10 10"></path><g class="terminal ">
<path d="M 1101.0 249 h 0.0"></path><path d="M 1163.5 249 h 0.0"></path><rect height="22" rx="10" ry="10" width="62.5" x="1101.0" y="238"></rect><text x="1132.25" y="253">"1TI"</text></g><path d="M 1081.0 189 a 10 10 0 0 1 10 10 v 70 a 10 10 0 0 0 10 10"></path><g class="terminal ">
<path d="M 1101.0 279 h 0.0"></path><path d="M 1163.5 279 h 0.0"></path><rect height="22" rx="10" ry="10" width="62.5" x="1101.0" y="268"></rect><text x="1132.25" y="283">"2TI"</text></g><path d="M 1081.0 189 a 10 10 0 0 1 10 10 v 100 a 10 10 0 0 0 10 10"></path><g class="terminal ">
<path d="M 1101.0 309 h 0.0"></path><path d="M 1163.5 309 h 0.0"></path><rect height="22" rx="10" ry="10" width="62.5" x="1101.0" y="298"></rect><text x="1132.25" y="313">"TIT"</text></g></g><path d="M 1183.5 80 a 10 10 0 0 1 10 10 v 89 a 10 10 0 0 0 10 10"></path><g>
<path d="M 1203.5 189 h 0.0"></path><path d="M 1203.5 189 a 10 10 0 0 0 10 -10 v -10 a 10 10 0 0 1 10 -10"></path><g class="terminal ">
<path d="M 1223.5 159 h 0.0"></path><path d="M 1286.0 159 h 0.0"></path><rect height="22" rx="10" ry="10" width="62.5" x="1223.5" y="148"></rect><text x="1254.75" y="163">"JAS"</text></g><path d="M 1203.5 189 a 10 10 0 0 0 10 -10 v -40 a 10 10 0 0 1 10 -10"></path><g class="terminal ">
<path d="M 1223.5 129 h 0.0"></path><path d="M 1286.0 129 h 0.0"></path><rect height="22" rx="10" ry="10" width="62.5" x="1223.5" y="118"></rect><text x="1254.75" y="133">"HEB"</text></g><path d="M 1203.5 189 a 10 10 0 0 0 10 -10 v -70 a 10 10 0 0 1 10 -10"></path><g class="terminal ">
<path d="M 1223.5 99 h 0.0"></path><path d="M 1286.0 99 h 0.0"></path><rect height="22" rx="10" ry="10" width="62.5" x="1223.5" y="88"></rect><text x="1254.75" y="103">"PHM"</text></g><path d="M 1203.5 189 h 20"></path><g class="terminal ">
<path d="M 1223.5 189 h 0.0"></path><path d="M 1286.0 189 h 0.0"></path><rect height="22" rx="10" ry="10" width="62.5" x="1223.5" y="178"></rect><text x="1254.75" y="193">"1PE"</text></g><path d="M 1203.5 189 a 10 10 0 0 1 10 10 v 10 a 10 10 0 0 0 10 10"></path><g class="terminal ">
<path d="M 1223.5 219 h 0.0"></path><path d="M 1286.0 219 h 0.0"></path><rect height="22" rx="10" ry="10" width="62.5" x="1223.5" y="208"></rect><text x="1254.75" y="223">"2PE"</text></g><path d="M 1203.5 189 a 10 10 0 0 1 10 10 v 40 a 10 10 0 0 0 10 10"></path><g class="terminal ">
<path d="M 1223.5 249 h 0.0"></path><path d="M 1286.0 249 h 0.0"></path><rect height="22" rx="10" ry="10" width="62.5" x="1223.5" y="238"></rect><text x="1254.75" y="253">"1JN"</text></g><path d="M 1203.5 189 a 10 10 0 0 1 10 10 v 70 a 10 10 0 0 0 10 10"></path><g class="terminal ">
<path d="M 1223.5 279 h 0.0"></path><path d="M 1286.0 279 h 0.0"></path><rect height="22" rx="10" ry="10" width="62.5" x="1223.5" y="268"></rect><text x="1254.75" y="283">"2JN"</text></g><path d="M 1203.5 189 a 10 10 0 0 1 10 10 v 100 a 10 10 0 0 0 10 10"></path><g class="terminal ">
<path d="M 1223.5 309 h 0.0"></path><path d="M 1286.0 309 h 0.0"></path><rect height="22" rx="10" ry="10" width="62.5" x="1223.5" y="298"></rect><text x="1254.75" y="313">"3JN"</text></g></g><path d="M 1306.0 80 a 10 10 0 0 1 10 10 v 89 a 10 10 0 0 0 10 10"></path><g>
<path d="M 1326.0 189 h 0.0"></path><path d="M 1326.0 189 a 10 10 0 0 0 10 -10 v -10 a 10 10 0 0 1 10 -10"></path><g class="terminal ">
<path d="M 1346.0 159 h 0.0"></path><path d="M 1408.5 159 h 0.0"></path><rect height="22" rx="10" ry="10" width="62.5" x="1346.0" y="148"></rect><text x="1377.25" y="163">"TOB"</text></g><path d="M 1326.0 189 a 10 10 0 0 0 10 -10 v -40 a 10 10 0 0 1 10 -10"></path><g class="terminal ">
<path d="M 1346.0 129 h 0.0"></path><path d="M 1408.5 129 h 0.0"></path><rect height="22" rx="10" ry="10" width="62.5" x="1346.0" y="118"></rect><text x="1377.25" y="133">"REV"</text></g><path d="M 1326.0 189 a 10 10 0 0 0 10 -10 v -70 a 10 10 0 0 1 10 -10"></path><g class="terminal ">
<path d="M 1346.0 99 h 0.0"></path><path d="M 1408.5 99 h 0.0"></path><rect height="22" rx="10" ry="10" width="62.5" x="1346.0" y="88"></rect><text x="1377.25" y="103">"JUD"</text></g><path d="M 1326.0 189 h 20"></path><g class="terminal ">
<path d="M 1346.0 189 h 0.0"></path><path d="M 1408.5 189 h 0.0"></path><rect height="22" rx="10" ry="10" width="62.5" x="1346.0" y="178"></rect><text x="1377.25" y="193">"JDT"</text></g><path d="M 1326.0 189 a 10 10 0 0 1 10 10 v 10 a 10 10 0 0 0 10 10"></path><g class="terminal ">
<path d="M 1346.0 219 h 0.0"></path><path d="M 1408.5 219 h 0.0"></path><rect height="22" rx="10" ry="10" width="62.5" x="1346.0" y="208"></rect><text x="1377.25" y="223">"ESG"</text></g><path d="M 1326.0 189 a 10 10 0 0 1 10 10 v 40 a 10 10 0 0 0 10 10"></path><g class="terminal ">
<path d="M 1346.0 249 h 0.0"></path><path d="M 1408.5 249 h 0.0"></path><rect height="22" rx="10" ry="10" width="62.5" x="1346.0" y="238"></rect><text x="1377.25" y="253">"WIS"</text></g><path d="M 1326.0 189 a 10 10 0 0 1 10 10 v 70 a 10 10 0 0 0 10 10"></path><g class="terminal ">
<path d="M 1346.0 279 h 0.0"></path><path d="M 1408.5 279 h 0.0"></path><rect height="22" rx="10" ry="10" width="62.5" x="1346.0" y="268"></rect><text x="1377.25" y="283">"SIR"</text></g><path d="M 1326.0 189 a 10 10 0 0 1 10 10 v 100 a 10 10 0 0 0 10 10"></path><g class="terminal ">
<path d="M 1346.0 309 h 0.0"></path><path d="M 1408.5 309 h 0.0"></path><rect height="22" rx="10" ry="10" width="62.5" x="1346.0" y="298"></rect><text x="1377.25" y="313">"BAR"</text></g></g><path d="M 1428.5 80 a 10 10 0 0 1 10 10 v 89 a 10 10 0 0 0 10 10"></path><g>
<path d="M 1448.5 189 h 0.0"></path><path d="M 1448.5 189 a 10 10 0 0 0 10 -10 v -10 a 10 10 0 0 1 10 -10"></path><g class="terminal ">
<path d="M 1468.5 159 h 0.0"></path><path d="M 1531.0 159 h 0.0"></path><rect height="22" rx="10" ry="10" width="62.5" x="1468.5" y="148"></rect><text x="1499.75" y="163">"SUS"</text></g><path d="M 1448.5 189 a 10 10 0 0 0 10 -10 v -40 a 10 10 0 0 1 10 -10"></path><g class="terminal ">
<path d="M 1468.5 129 h 0.0"></path><path d="M 1531.0 129 h 0.0"></path><rect height="22" rx="10" ry="10" width="62.5" x="1468.5" y="118"></rect><text x="1499.75" y="133">"S3Y"</text></g><path d="M 1448.5 189 a 10 10 0 0 0 10 -10 v -70 a 10 10 0 0 1 10 -10"></path><g class="terminal ">
<path d="M 1468.5 99 h 0.0"></path><path d="M 1531.0 99 h 0.0"></path><rect height="22" rx="10" ry="10" width="62.5" x="1468.5" y="88"></rect><text x="1499.75" y="103">"LJE"</text></g><path d="M 1448.5 189 h 20"></path><g class="terminal ">
<path d="M 1468.5 189 h 0.0"></path><path d="M 1531.0 189 h 0.0"></path><rect height="22" rx="10" ry="10" width="62.5" x="1468.5" y="178"></rect><text x="1499.75" y="193">"BEL"</text></g><path d="M 1448.5 189 a 10 10 0 0 1 10 10 v 10 a 10 10 0 0 0 10 10"></path><g class="terminal ">
<path d="M 1468.5 219 h 0.0"></path><path d="M 1531.0 219 h 0.0"></path><rect height="22" rx="10" ry="10" width="62.5" x="1468.5" y="208"></rect><text x="1499.75" y="223">"1MA"</text></g><path d="M 1448.5 189 a 10 10 0 0 1 10 10 v 40 a 10 10 0 0 0 10 10"></path><g class="terminal ">
<path d="M 1468.5 249 h 0.0"></path><path d="M 1531.0 249 h 0.0"></path><rect height="22" rx="10" ry="10" width="62.5" x="1468.5" y="238"></rect><text x="1499.75" y="253">"2MA"</text></g><path d="M 1448.5 189 a 10 10 0 0 1 10 10 v 70 a 10 10 0 0 0 10 10"></path><g class="terminal ">
<path d="M 1468.5 279 h 0.0"></path><path d="M 1531.0 279 h 0.0"></path><rect height="22" rx="10" ry="10" width="62.5" x="1468.5" y="268"></rect><text x="1499.75" y="283">"3MA"</text></g><path d="M 1448.5 189 a 10 10 0 0 1 10 10 v 100 a 10 10 0 0 0 10 10"></path><g class="terminal ">
<path d="M 1468.5 309 h 0.0"></path><path d="M 1531.0 309 h 0.0"></path><rect height="22" rx="10" ry="10" width="62.5" x="1468.5" y="298"></rect><text x="1499.75" y="313">"4MA"</text></g></g><path d="M 1551.0 80 a 10 10 0 0 1 10 10 v 89 a 10 10 0 0 0 10 10"></path><g>
<path d="M 1571.0 189 h 0.0"></path><path d="M 1571.0 189 a 10 10 0 0 0 10 -10 v -10 a 10 10 0 0 1 10 -10"></path><g class="terminal ">
<path d="M 1591.0 159 h 0.0"></path><path d="M 1653.5 159 h 0.0"></path><rect height="22" rx="10" ry="10" width="62.5" x="1591.0" y="148"></rect><text x="1622.25" y="163">"MAN"</text></g><path d="M 1571.0 189 a 10 10 0 0 0 10 -10 v -40 a 10 10 0 0 1 10 -10"></path><g class="terminal ">
<path d="M 1591.0 129 h 0.0"></path><path d="M 1653.5 129 h 0.0"></path><rect height="22" rx="10" ry="10" width="62.5" x="1591.0" y="118"></rect><text x="1622.25" y="133">"2ES"</text></g><path d="M 1571.0 189 a 10 10 0 0 0 10 -10 v -70 a 10 10 0 0 1 10 -10"></path><g class="terminal ">
<path d="M 1591.0 99 h 0.0"></path><path d="M 1653.5 99 h 0.0"></path><rect height="22" rx="10" ry="10" width="62.5" x="1591.0" y="88"></rect><text x="1622.25" y="103">"1ES"</text></g><path d="M 1571.0 189 h 20"></path><g class="terminal ">
<path d="M 1591.0 189 h 0.0"></path><path d="M 1653.5 189 h 0.0"></path><rect height="22" rx="10" ry="10" width="62.5" x="1591.0" y="178"></rect><text x="1622.25" y="193">"PS2"</text></g><path d="M 1571.0 189 a 10 10 0 0 1 10 10 v 10 a 10 10 0 0 0 10 10"></path><g class="terminal ">
<path d="M 1591.0 219 h 0.0"></path><path d="M 1653.5 219 h 0.0"></path><rect height="22" rx="10" ry="10" width="62.5" x="1591.0" y="208"></rect><text x="1622.25" y="223">"ODA"</text></g><path d="M 1571.0 189 a 10 10 0 0 1 10 10 v 40 a 10 10 0 0 0 10 10"></path><g class="terminal ">
<path d="M 1591.0 249 h 0.0"></path><path d="M 1653.5 249 h 0.0"></path><rect height="22" rx="10" ry="10" width="62.5" x="1591.0" y="238"></rect><text x="1622.25" y="253">"PSS"</text></g><path d="M 1571.0 189 a 10 10 0 0 1 10 10 v 70 a 10 10 0 0 0 10 10"></path><g class="terminal ">
<path d="M 1591.0 279 h 0.0"></path><path d="M 1653.5 279 h 0.0"></path><rect height="22" rx="10" ry="10" width="62.5" x="1591.0" y="268"></rect><text x="1622.25" y="283">"EZA"</text></g><path d="M 1571.0 189 a 10 10 0 0 1 10 10 v 100 a 10 10 0 0 0 10 10"></path><g class="terminal ">
<path d="M 1591.0 309 h 0.0"></path><path d="M 1653.5 309 h 0.0"></path><rect height="22" rx="10" ry="10" width="62.5" x="1591.0" y="298"></rect><text x="1622.25" y="313">"5EZ"</text></g></g><path d="M 1673.5 80 a 10 10 0 0 1 10 10 v 89 a 10 10 0 0 0 10 10"></path><g>
<path d="M 1693.5 189 h 0.0"></path><path d="M 1693.5 189 a 10 10 0 0 0 10 -10 v -10 a 10 10 0 0 1 10 -10"></path><g class="terminal ">
<path d="M 1713.5 159 h 0.0"></path><path d="M 1776.0 159 h 0.0"></path><rect height="22" rx="10" ry="10" width="62.5" x="1713.5" y="148"></rect><text x="1744.75" y="163">"PS3"</text></g><path d="M 1693.5 189 a 10 10 0 0 0 10 -10 v -40 a 10 10 0 0 1 10 -10"></path><g class="terminal ">
<path d="M 1713.5 129 h 0.0"></path><path d="M 1776.0 129 h 0.0"></path><rect height="22" rx="10" ry="10" width="62.5" x="1713.5" y="118"></rect><text x="1744.75" y="133">"DAG"</text></g><path d="M 1693.5 189 a 10 10 0 0 0 10 -10 v -70 a 10 10 0 0 1 10 -10"></path><g class="terminal ">
<path d="M 1713.5 99 h 0.0"></path><path d="M 1776.0 99 h 0.0"></path><rect height="22" rx="10" ry="10" width="62.5" x="1713.5" y="88"></rect><text x="1744.75" y="103">"6EZ"</text></g><path d="M 1693.5 189 h 20"></path><g class="terminal ">
<path d="M 1713.5 189 h 0.0"></path><path d="M 1776.0 189 h 0.0"></path><rect height="22" rx="10" ry="10" width="62.5" x="1713.5" y="178"></rect><text x="1744.75" y="193">"2BA"</text></g><path d="M 1693.5 189 a 10 10 0 0 1 10 10 v 10 a 10 10 0 0 0 10 10"></path><g class="terminal ">
<path d="M 1713.5 219 h 0.0"></path><path d="M 1776.0 219 h 0.0"></path><rect height="22" rx="10" ry="10" width="62.5" x="1713.5" y="208"></rect><text x="1744.75" y="223">"LBA"</text></g><path d="M 1693.5 189 a 10 10 0 0 1 10 10 v 40 a 10 10 0 0 0 10 10"></path><g class="terminal ">
<path d="M 1713.5 249 h 0.0"></path><path d="M 1776.0 249 h 0.0"></path><rect height="22" rx="10" ry="10" width="62.5" x="1713.5" y="238"></rect><text x="1744.75" y="253">"JUB"</text></g><path d="M 1693.5 189 a 10 10 0 0 1 10 10 v 70 a 10 10 0 0 0 10 10"></path><g class="terminal ">
<path d="M 1713.5 279 h 0.0"></path><path d="M 1776.0 279 h 0.0"></path><rect height="22" rx="10" ry="10" width="62.5" x="1713.5" y="268"></rect><text x="1744.75" y="283">"ENO"</text></g><path d="M 1693.5 189 a 10 10 0 0 1 10 10 v 100 a 10 10 0 0 0 10 10"></path><g class="terminal ">
<path d="M 1713.5 309 h 0.0"></path><path d="M 1776.0 309 h 0.0"></path><rect height="22" rx="10" ry="10" width="62.5" x="1713.5" y="298"></rect><text x="1744.75" y="313">"1MQ"</text></g></g><path d="M 1796.0 80 a 10 10 0 0 1 10 10 v 89 a 10 10 0 0 0 10 10"></path><g>
<path d="M 1816.0 189 h 0.0"></path><path d="M 1816.0 189 a 10 10 0 0 0 10 -10 v -10 a 10 10 0 0 1 10 -10"></path><g class="terminal ">
<path d="M 1836.0 159 h 0.0"></path><path d="M 1898.5 159 h 0.0"></path><rect height="22" rx="10" ry="10" width="62.5" x="1836.0" y="148"></rect><text x="1867.25" y="163">"REP"</text></g><path d="M 1816.0 189 a 10 10 0 0 0 10 -10 v -40 a 10 10 0 0 1 10 -10"></path><g class="terminal ">
<path d="M 1836.0 129 h 0.0"></path><path d="M 1898.5 129 h 0.0"></path><rect height="22" rx="10" ry="10" width="62.5" x="1836.0" y="118"></rect><text x="1867.25" y="133">"3MQ"</text></g><path d="M 1816.0 189 a 10 10 0 0 0 10 -10 v -70 a 10 10 0 0 1 10 -10"></path><g class="terminal ">
<path d="M 1836.0 99 h 0.0"></path><path d="M 1898.5 99 h 0.0"></path><rect height="22" rx="10" ry="10" width="62.5" x="1836.0" y="88"></rect><text x="1867.25" y="103">"2MQ"</text></g><path d="M 1816.0 189 h 20"></path><g class="terminal ">
<path d="M 1836.0 189 h 0.0"></path><path d="M 1898.5 189 h 0.0"></path><rect height="22" rx="10" ry="10" width="62.5" x="1836.0" y="178"></rect><text x="1867.25" y="193">"4BA"</text></g><path d="M 1816.0 189 a 10 10 0 0 1 10 10 v 10 a 10 10 0 0 0 10 10"></path><g class="terminal ">
<path d="M 1836.0 219 h 0.0"></path><path d="M 1898.5 219 h 0.0"></path><rect height="22" rx="10" ry="10" width="62.5" x="1836.0" y="208"></rect><text x="1867.25" y="223">"LAO"</text></g><path d="M 1816.0 189 a 10 10 0 0 1 10 10 v 40 a 10 10 0 0 0 10 10"></path><g class="terminal ">
<path d="M 1836.0 249 h 0.0"></path><path d="M 1915.5 249 h 0.0"></path><rect height="22" rx="10" ry="10" width="79.5" x="1836.0" y="238"></rect><text x="1875.75" y="253">/\S{3}/</text></g></g></g></g><path d="M 243.5 386 h 20"></path><g>
<path d="M 263.5 386 h 749.25"></path><path d="M 1196.25 386 h 749.25"></path><g>
<path d="M 1012.75 386 h 0.0"></path><path d="M 1106.75 386 h 0.0"></path><path d="M 1012.75 386 a 10 10 0 0 0 10 -10 v 0 a 10 10 0 0 1 10 -10"></path><g>
<path d="M 1032.75 366 h 54.0"></path></g><path d="M 1086.75 366 a 10 10 0 0 1 10 10 v 0 a 10 10 0 0 0 10 10"></path><path d="M 1012.75 386 h 20"></path><g class="terminal ">
<path d="M 1032.75 386 h 0.0"></path><path d="M 1086.75 386 h 0.0"></path><rect height="22" rx="10" ry="10" width="54.0" x="1032.75" y="375"></rect><text x="1059.75" y="390">text</text></g><path d="M 1086.75 386 h 20"></path></g><path d="M 1106.75 386 h 10"></path><g class="terminal ">
<path d="M 1116.75 386 h 0.0"></path><path d="M 1196.25 386 h 0.0"></path><rect height="22" rx="10" ry="10" width="79.5" x="1116.75" y="375"></rect><text x="1156.5" y="390">&#60;/book></text></g></g><path d="M 1945.5 386 h 20"></path></g></g><path d="M 1975.5 386 a 10 10 0 0 1 10 10 v 0 a 10 10 0 0 1 -10 10 h -1823.0 a 10 10 0 0 0 -10 10 v 8 a 10 10 0 0 0 10 10"></path><g>
<path d="M 152.5 434 h 245.75"></path><path d="M 1729.75 434 h 245.75"></path><g>
<path d="M 398.25 434 h 0.0"></path><path d="M 571.75 434 h 0.0"></path><path d="M 398.25 434 a 10 10 0 0 0 10 -10 v 0 a 10 10 0 0 1 10 -10"></path><g>
<path d="M 418.25 414 h 133.5"></path></g><path d="M 551.75 414 a 10 10 0 0 1 10 10 v 0 a 10 10 0 0 0 10 10"></path><path d="M 398.25 434 h 20"></path><g>
<path d="M 418.25 434 h 0.0"></path><path d="M 551.75 434 h 0.0"></path><path d="M 418.25 434 h 10"></path><g class="non-terminal ">
<path d="M 428.25 434 h 0.0"></path><path d="M 541.75 434 h 0.0"></path><rect height="22" width="113.5" x="428.25" y="423"></rect><text x="485.0" y="438">BookHeaders</text></g><path d="M 541.75 434 h 10"></path><path d="M 428.25 434 a 10 10 0 0 0 -10 10 v 0 a 10 10 0 0 0 10 10"></path><g>
<path d="M 428.25 454 h 113.5"></path></g><path d="M 541.75 454 a 10 10 0 0 0 10 -10 v 0 a 10 10 0 0 0 -10 -10"></path></g><path d="M 551.75 434 h 20"></path></g><path d="M 571.75 434 h 10"></path><g>
<path d="M 581.75 434 h 0.0"></path><path d="M 706.75 434 h 0.0"></path><path d="M 581.75 434 h 10"></path><g class="non-terminal ">
<path d="M 591.75 434 h 0.0"></path><path d="M 696.75 434 h 0.0"></path><rect height="22" width="105.0" x="591.75" y="423"></rect><text x="644.25" y="438">BookTitles</text></g><path d="M 696.75 434 h 10"></path><path d="M 591.75 434 a 10 10 0 0 0 -10 10 v 0 a 10 10 0 0 0 10 10"></path><g>
<path d="M 591.75 454 h 105.0"></path></g><path d="M 696.75 454 a 10 10 0 0 0 10 -10 v 0 a 10 10 0 0 0 -10 -10"></path></g><path d="M 706.75 434 h 10"></path><g>
<path d="M 716.75 434 h 0.0"></path><path d="M 932.75 434 h 0.0"></path><path d="M 716.75 434 a 10 10 0 0 0 10 -10 v 0 a 10 10 0 0 1 10 -10"></path><g>
<path d="M 736.75 414 h 176.0"></path></g><path d="M 912.75 414 a 10 10 0 0 1 10 10 v 0 a 10 10 0 0 0 10 10"></path><path d="M 716.75 434 h 20"></path><g>
<path d="M 736.75 434 h 0.0"></path><path d="M 912.75 434 h 0.0"></path><path d="M 736.75 434 h 10"></path><g class="non-terminal ">
<path d="M 746.75 434 h 0.0"></path><path d="M 902.75 434 h 0.0"></path><rect height="22" width="156.0" x="746.75" y="423"></rect><text x="824.75" y="438">BookIntroduction</text></g><path d="M 902.75 434 h 10"></path><path d="M 746.75 434 a 10 10 0 0 0 -10 10 v 0 a 10 10 0 0 0 10 10"></path><g>
<path d="M 746.75 454 h 156.0"></path></g><path d="M 902.75 454 a 10 10 0 0 0 10 -10 v 0 a 10 10 0 0 0 -10 -10"></path></g><path d="M 912.75 434 h 20"></path></g><g>
<path d="M 932.75 434 h 0.0"></path><path d="M 1225.25 434 h 0.0"></path><path d="M 932.75 434 a 10 10 0 0 0 10 -10 v 0 a 10 10 0 0 1 10 -10"></path><g>
<path d="M 952.75 414 h 252.5"></path></g><path d="M 1205.25 414 a 10 10 0 0 1 10 10 v 0 a 10 10 0 0 0 10 10"></path><path d="M 932.75 434 h 20"></path><g>
<path d="M 952.75 434 h 0.0"></path><path d="M 1205.25 434 h 0.0"></path><path d="M 952.75 434 h 10"></path><g class="non-terminal ">
<path d="M 962.75 434 h 0.0"></path><path d="M 1195.25 434 h 0.0"></path><rect height="22" width="232.5" x="962.75" y="423"></rect><text x="1079.0" y="438">BookIntroductionEndTitles</text></g><path d="M 1195.25 434 h 10"></path><path d="M 962.75 434 a 10 10 0 0 0 -10 10 v 0 a 10 10 0 0 0 10 10"></path><g>
<path d="M 962.75 454 h 232.5"></path></g><path d="M 1195.25 454 a 10 10 0 0 0 10 -10 v 0 a 10 10 0 0 0 -10 -10"></path></g><path d="M 1205.25 434 h 20"></path></g><g>
<path d="M 1225.25 434 h 0.0"></path><path d="M 1421.25 434 h 0.0"></path><path d="M 1225.25 434 a 10 10 0 0 0 10 -10 v 0 a 10 10 0 0 1 10 -10"></path><g>
<path d="M 1245.25 414 h 156.0"></path></g><path d="M 1401.25 414 a 10 10 0 0 1 10 10 v 0 a 10 10 0 0 0 10 10"></path><path d="M 1225.25 434 h 20"></path><g class="non-terminal ">
<path d="M 1245.25 434 h 0.0"></path><path d="M 1401.25 434 h 0.0"></path><rect height="22" width="156.0" x="1245.25" y="423"></rect><text x="1323.25" y="438">BookChapterLabel</text></g><path d="M 1401.25 434 h 20"></path></g><path d="M 1421.25 434 h 10"></path><g class="non-terminal ">
<path d="M 1431.25 434 h 0.0"></path><path d="M 1510.75 434 h 0.0"></path><rect height="22" width="79.5" x="1431.25" y="423"></rect><text x="1471.0" y="438">Chapter</text></g><path d="M 1510.75 434 h 10"></path><path d="M 1520.75 434 h 10"></path><g>
<path d="M 1530.75 434 h 0.0"></path><path d="M 1729.75 434 h 0.0"></path><path d="M 1530.75 434 h 10"></path><g>
<path d="M 1540.75 434 h 0.0"></path><path d="M 1719.75 434 h 0.0"></path><path d="M 1540.75 434 h 20"></path><g class="non-terminal ">
<path d="M 1560.75 434 h 29.75"></path><path d="M 1670.0 434 h 29.75"></path><rect height="22" width="79.5" x="1590.5" y="423"></rect><text x="1630.25" y="438">Chapter</text></g><path d="M 1699.75 434 h 20"></path><path d="M 1540.75 434 a 10 10 0 0 1 10 10 v 10 a 10 10 0 0 0 10 10"></path><g class="non-terminal ">
<path d="M 1560.75 464 h 42.5"></path><path d="M 1657.25 464 h 42.5"></path><rect height="22" width="54.0" x="1603.25" y="453"></rect><text x="1630.25" y="468">Para</text></g><path d="M 1699.75 464 a 10 10 0 0 0 10 -10 v -10 a 10 10 0 0 1 10 -10"></path><path d="M 1540.75 434 a 10 10 0 0 1 10 10 v 40 a 10 10 0 0 0 10 10"></path><g class="non-terminal ">
<path d="M 1560.75 494 h 42.5"></path><path d="M 1657.25 494 h 42.5"></path><rect height="22" width="54.0" x="1603.25" y="483"></rect><text x="1630.25" y="498">List</text></g><path d="M 1699.75 494 a 10 10 0 0 0 10 -10 v -40 a 10 10 0 0 1 10 -10"></path><path d="M 1540.75 434 a 10 10 0 0 1 10 10 v 70 a 10 10 0 0 0 10 10"></path><g class="non-terminal ">
<path d="M 1560.75 524 h 38.25"></path><path d="M 1661.5 524 h 38.25"></path><rect height="22" width="62.5" x="1599.0" y="513"></rect><text x="1630.25" y="528">Table</text></g><path d="M 1699.75 524 a 10 10 0 0 0 10 -10 v -70 a 10 10 0 0 1 10 -10"></path><path d="M 1540.75 434 a 10 10 0 0 1 10 10 v 100 a 10 10 0 0 0 10 10"></path><g class="non-terminal ">
<path d="M 1560.75 554 h 25.5"></path><path d="M 1674.25 554 h 25.5"></path><rect height="22" width="88.0" x="1586.25" y="543"></rect><text x="1630.25" y="558">Footnote</text></g><path d="M 1699.75 554 a 10 10 0 0 0 10 -10 v -100 a 10 10 0 0 1 10 -10"></path><path d="M 1540.75 434 a 10 10 0 0 1 10 10 v 130 a 10 10 0 0 0 10 10"></path><g class="non-terminal ">
<path d="M 1560.75 584 h 0.0"></path><path d="M 1699.75 584 h 0.0"></path><rect height="22" width="139.0" x="1560.75" y="573"></rect><text x="1630.25" y="588">CrossReference</text></g><path d="M 1699.75 584 a 10 10 0 0 0 10 -10 v -130 a 10 10 0 0 1 10 -10"></path><path d="M 1540.75 434 a 10 10 0 0 1 10 10 v 160 a 10 10 0 0 0 10 10"></path><g class="non-terminal ">
<path d="M 1560.75 614 h 29.75"></path><path d="M 1670.0 614 h 29.75"></path><rect height="22" width="79.5" x="1590.5" y="603"></rect><text x="1630.25" y="618">Sidebar</text></g><path d="M 1699.75 614 a 10 10 0 0 0 10 -10 v -160 a 10 10 0 0 1 10 -10"></path></g><path d="M 1719.75 434 h 10"></path><path d="M 1540.75 434 a 10 10 0 0 0 -10 10 v 179 a 10 10 0 0 0 10 10"></path><g>
<path d="M 1540.75 633 h 179.0"></path></g><path d="M 1719.75 633 a 10 10 0 0 0 10 -10 v -179 a 10 10 0 0 0 -10 -10"></path></g></g><path d="M 1975.5 434 a 10 10 0 0 1 10 10 v 187 a 10 10 0 0 1 -10 10 h -1823.0 a 10 10 0 0 0 -10 10 v 0 a 10 10 0 0 0 10 10"></path><g class="terminal ">
<path d="M 152.5 661 h 876.0"></path><path d="M 1099.5 661 h 876.0"></path><rect height="22" rx="10" ry="10" width="71.0" x="1028.5" y="650"></rect><text x="1064.0" y="665">&#60;/usx></text></g><path d="M 1975.5 661 h 10"></path><path d="M 1985.5 661 h 0.0"></path></g><path d="M 1985.5 661 h 20"></path></g></g><path d="M 2005.5 661 h 10"></path><path d="M 2015.5 661 h 20 m 0 -10 v 20"></path></g></svg>