<svg class="railroad-diagram" height="954" viewBox="0 0 1931.5 954" width="1931.5" xmlns="http://www.w3.org/2000/svg" xmlns:xlink="http://www.w3.org/1999/xlink">
<g transform="translate(.5 .5)">
<style>/* <![CDATA[ */

    svg.railroad-diagram {
        background-color: hsl(30,20%,95%);
    }
    svg.railroad-diagram path {
        stroke-width: 2;
        stroke: black;
        fill: none;
    }
    svg.railroad-diagram text {
        font-size: 12px;
        text-anchor: middle;
        font-family: DejaVu Sans;
    }
    svg.railroad-diagram text.label {
        text-anchor:start;
    }
    svg.railroad-diagram text.comment {
        font-family: DejaVu Sans;
        font-size: 14px;
    }
    svg.railroad-diagram rect{
        stroke-width: 2;
        stroke: black;
        fill: rgb(210, 210, 255);
    }
    svg.railroad-diagram rect.group-box {
        stroke: gray;
        stroke-dasharray: 10 5;
        fill: none;
    }
    .terminal {
        font-family: DejaVu Sans;
    }
    svg.railroad-diagram g.altterminal rect {
        fill: rgb(251, 252, 207)
    }

/* ]]> */
</style><g>
<path d="M 20 556 v 20 m 0 -10 h 20"></path></g><path d="M 40 566 h 10"></path><g>
<path d="M 50 566 h 0.0"></path><path d="M 1881.5 566 h 0.0"></path><g>
<path d="M 50.0 566 h 0.0"></path><path d="M 1881.5 566 h 0.0"></path><g class="terminal ">
<path d="M 50.0 566 h 0.0"></path><path d="M 112.5 566 h 0.0"></path><rect height="22" rx="10" ry="10" width="62.5" x="50.0" y="555"></rect><text x="81.25" y="570">&#60;usx></text></g><path d="M 112.5 566 h 10"></path><path d="M 122.5 566 h 10"></path><g>
<path d="M 132.5 566 h 0.0"></path><path d="M 1881.5 566 h 0.0"></path><path d="M 132.5 566 a 10 10 0 0 0 10 -10 v -475 a 10 10 0 0 1 10 -10"></path><g>
<path d="M 152.5 71 h 0.0"></path><path d="M 433.5 71 h 0.0"></path><g class="terminal ">
<path d="M 152.5 71 h 0.0"></path><path d="M 240.5 71 h 0.0"></path><rect height="22" rx="10" ry="10" width="88.0" x="152.5" y="60"></rect><text x="196.5" y="75">@version</text></g><path d="M 240.5 71 h 10"></path><path d="M 250.5 71 h 10"></path><g class="terminal ">
<path d="M 260.5 71 h 0.0"></path><path d="M 433.5 71 h 0.0"></path><rect height="22" rx="10" ry="10" width="173.0" x="260.5" y="60"></rect><text x="347.0" y="75">/\d+\.\d+(\.\d+)?/</text></g></g><path d="M 132.5 566 a 10 10 0 0 0 10 -10 v -505 a 10 10 0 0 1 10 -10"></path><g>
<path d="M 152.5 41 h 0.0"></path><path d="M 467.5 41 h 0.0"></path><g class="terminal ">
<path d="M 152.5 41 h 0.0"></path><path d="M 393.5 41 h 0.0"></path><rect height="22" rx="10" ry="10" width="241.0" x="152.5" y="30"></rect><text x="273.0" y="45">@noNamespaceSchemaLocation</text></g><path d="M 393.5 41 h 10"></path><path d="M 403.5 41 h 10"></path><g class="terminal ">
<path d="M 413.5 41 h 0.0"></path><path d="M 467.5 41 h 0.0"></path><rect height="22" rx="10" ry="10" width="54.0" x="413.5" y="30"></rect><text x="440.5" y="45">TEXT</text></g></g><path d="M 132.5 566 h 20"></path><g>
<path d="M 152.5 566 h 0.0"></path><path d="M 1861.5 566 h 0.0"></path><g class="terminal ">
<path d="M 152.5 566 h 0.0"></path><path d="M 223.5 566 h 0.0"></path><rect height="22" rx="10" ry="10" width="71.0" x="152.5" y="555"></rect><text x="188.0" y="570">&#60;book></text></g><path d="M 223.5 566 h 10"></path><path d="M 233.5 566 h 10"></path><g>
<path d="M 243.5 566 h 0.0"></path><path d="M 1861.5 566 h 0.0"></path><path d="M 243.5 566 a 10 10 0 0 0 10 -10 v -9 a 10 10 0 0 1 10 -10"></path><g>
<path d="M 263.5 537 h 0.0"></path><path d="M 408.5 537 h 0.0"></path><g class="terminal ">
<path d="M 263.5 537 h 0.0"></path><path d="M 334.5 537 h 0.0"></path><rect height="22" rx="10" ry="10" width="71.0" x="263.5" y="526"></rect><text x="299.0" y="541">@style</text></g><path d="M 334.5 537 h 10"></path><path d="M 344.5 537 h 10"></path><g class="terminal ">
<path d="M 354.5 537 h 0.0"></path><path d="M 408.5 537 h 0.0"></path><rect height="22" rx="10" ry="10" width="54.0" x="354.5" y="526"></rect><text x="381.5" y="541">"id"</text></g></g><path d="M 243.5 566 a 10 10 0 0 0 10 -10 v -327 a 10 10 0 0 1 10 -10"></path><g>
<path d="M 263.5 219 h 0.0"></path><path d="M 1841.5 219 h 0.0"></path><g class="terminal ">
<path d="M 263.5 219 h 0.0"></path><path d="M 326.0 219 h 0.0"></path><rect height="22" rx="10" ry="10" width="62.5" x="263.5" y="208"></rect><text x="294.75" y="223">@code</text></g><path d="M 326.0 219 h 10"></path><g>
<path d="M 336.0 219 h 0.0"></path><path d="M 1841.5 219 h 0.0"></path><path d="M 336.0 219 a 10 10 0 0 0 10 -10 v -99 a 10 10 0 0 1 10 -10 h 827.5"></path><path d="M 336.0 219 h 10"></path><g>
<path d="M 346.0 219 h 0.0"></path><path d="M 346.0 219 a 10 10 0 0 0 10 -10 v -10 a 10 10 0 0 1 10 -10"></path><g class="terminal ">
<path d="M 366.0 189 h 0.0"></path><path d="M 428.5 189 h 0.0"></path><rect height="22" rx="10" ry="10" width="62.5" x="366.0" y="178"></rect><text x="397.25" y="193">"LEV"</text></g><path d="M 346.0 219 a 10 10 0 0 0 10 -10 v -40 a 10 10 0 0 1 10 -10"></path><g class="terminal ">
<path d="M 366.0 159 h 0.0"></path><path d="M 428.5 159 h 0.0"></path><rect height="22" rx="10" ry="10" width="62.5" x="366.0" y="148"></rect><text x="397.25" y="163">"EXO"</text></g><path d="M 346.0 219 a 10 10 0 0 0 10 -10 v -70 a 10 10 0 0 1 10 -10"></path><g class="terminal ">
<path d="M 366.0 129 h 0.0"></path><path d="M 428.5 129 h 0.0"></path><rect height="22" rx="10" ry="10" width="62.5" x="366.0" y="118"></rect><text x="397.25" y="133">"GEN"</text></g><path d="M 346.0 219 h 20"></path><g class="terminal ">
<path d="M 366.0 219 h 0.0"></path><path d="M 428.5 219 h 0.0"></path><rect height="22" rx="10" ry="10" width="62.5" x="366.0" y="208"></rect><text x="397.25" y="223">"NUM"</text></g><path d="M 346.0 219 a 10 10 0 0 1 10 10 v 10 a 10 10 0 0 0 10 10"></path><g class="terminal ">
<path d="M 366.0 249 h 0.0"></path><path d="M 428.5 249 h 0.0"></path><rect height="22" rx="10" ry="10" width="62.5" x="366.0" y="238"></rect><text x="397.25" y="253">"DEU"</text></g><path d="M 346.0 219 a 10 10 0 0 1 10 10 v 40 a 10 10 0 0 0 10 10"></path><g class="terminal ">
<path d="M 366.0 279 h 0.0"></path><path d="M 428.5 279 h 0.0"></path><rect height="22" rx="10" ry="10" width="62.5" x="366.0" y="268"></rect><text x="397.25" y="283">"JOS"</text></g><path d="M 346.0 219 a 10 10 0 0 1 10 10 v 70 a 10 10 0 0 0 10 10"></path><g class="terminal ">
<path d="M 366.0 309 h 0.0"></path><path d="M 428.5 309 h 0.0"></path><rect height="22" rx="10" ry="10" width="62.5" x="366.0" y="298"></rect><text x="397.25" y="313">"JDG"</text></g><path d="M 346.0 219 a 10 10 0 0 1 10 10 v 100 a 10 10 0 0 0 10 10"></path><g class="terminal ">
<path d="M 366.0 339 h 0.0"></path><path d="M 428.5 339 h 0.0"></path><rect height="22" rx="10" ry="10" width="62.5" x="366.0" y="328"></rect><text x="397.25" y="343">"RUT"</text></g><path d="M 346.0 219 a 10 10 0 0 1 10 10 v 130 a 10 10 0 0 0 10 10"></path><g class="terminal ">
<path d="M 366.0 369 h 0.0"></path><path d="M 428.5 369 h 0.0"></path><rect height="22" rx="10" ry="10" width="62.5" x="366.0" y="358"></rect><text x="397.25" y="373">"1SA"</text></g><path d="M 346.0 219 a 10 10 0 0 1 10 10 v 160 a 10 10 0 0 0 10 10"></path><g class="terminal ">
<path d="M 366.0 399 h 0.0"></path><path d="M 428.5 399 h 0.0"></path><rect height="22" rx="10" ry="10" width="62.5" x="366.0" y="388"></rect><text x="397.25" y="403">"2SA"</text></g><path d="M 346.0 219 a 10 10 0 0 1 10 10 v 190 a 10 10 0 0 0 10 10"></path><g class="terminal ">
<path d="M 366.0 429 h 0.0"></path><path d="M 428.5 429 h 0.0"></path><rect height="22" rx="10" ry="10" width="62.5" x="366.0" y="418"></rect><text x="397.25" y="433">"1KI"</text></g><path d="M 346.0 219 a 10 10 0 0 1 10 10 v 220 a 10 10 0 0 0 10 10"></path><g class="terminal ">
<path d="M 366.0 459 h 0.0"></path><path d="M 428.5 459 h 0.0"></path><rect height="22" rx="10" ry="10" width="62.5" x="366.0" y="448"></rect><text x="397.25" y="463">"2KI"</text></g><path d="M 346.0 219 a 10 10 0 0 1 10 10 v 250 a 10 10 0 0 0 10 10"></path><g class="terminal ">
<path d="M 366.0 489 h 0.0"></path><path d="M 428.5 489 h 0.0"></path><rect height="22" rx="10" ry="10" width="62.5" x="366.0" y="478"></rect><text x="397.25" y="493">"1CH"</text></g></g><path d="M 448.5 100 a 10 10 0 0 1 10 10 v 99 a 10 10 0 0 0 10 10"></path><g>
<path d="M 468.5 219 h 0.0"></path><path d="M 468.5 219 a 10 10 0 0 0 10 -10 v -10 a 10 10 0 0 1 10 -10"></path><g class="terminal ">
<path d="M 488.5 189 h 0.0"></path><path d="M 551.0 189 h 0.0"></path><rect height="22" rx="10" ry="10" width="62.5" x="488.5" y="178"></rect><text x="519.75" y="193">"NEH"</text></g><path d="M 468.5 219 a 10 10 0 0 0 10 -10 v -40 a 10 10 0 0 1 10 -10"></path><g class="terminal ">
<path d="M 488.5 159 h 0.0"></path><path d="M 551.0 159 h 0.0"></path><rect height="22" rx="10" ry="10" width="62.5" x="488.5" y="148"></rect><text x="519.75" y="163">"EZR"</text></g><path d="M 468.5 219 a 10 10 0 0 0 10 -10 v -70 a 10 10 0 0 1 10 -10"></path><g class="terminal ">
<path d="M 488.5 129 h 0.0"></path><path d="M 551.0 129 h 0.0"></path><rect height="22" rx="10" ry="10" width="62.5" x="488.5" y="118"></rect><text x="519.75" y="133">"2CH"</text></g><path d="M 468.5 219 h 20"></path><g class="terminal ">
<path d="M 488.5 219 h 0.0"></path><path d="M 551.0 219 h 0.0"></path><rect height="22" rx="10" ry="10" width="62.5" x="488.5" y="208"></rect><text x="519.75" y="223">"EST"</text></g><path d="M 468.5 219 a 10 10 0 0 1 10 10 v 10 a 10 10 0 0 0 10 10"></path><g class="terminal ">
<path d="M 488.5 249 h 0.0"></path><path d="M 551.0 249 h 0.0"></path><rect height="22" rx="10" ry="10" width="62.5" x="488.5" y="238"></rect><text x="519.75" y="253">"JOB"</text></g><path d="M 468.5 219 a 10 10 0 0 1 10 10 v 40 a 10 10 0 0 0 10 10"></path><g class="terminal ">
<path d="M 488.5 279 h 0.0"></path><path d="M 551.0 279 h 0.0"></path><rect height="22" rx="10" ry="10" width="62.5" x="488.5" y="268"></rect><text x="519.75" y="283">"PSA"</text></g><path d="M 468.5 219 a 10 10 0 0 1 10 10 v 70 a 10 10 0 0 0 10 10"></path><g class="terminal ">
<path d="M 488.5 309 h 0.0"></path><path d="M 551.0 309 h 0.0"></path><rect height="22" rx="10" ry="10" width="62.5" x="488.5" y="298"></rect><text x="519.75" y="313">"PRO"</text></g><path d="M 468.5 219 a 10 10 0 0 1 10 10 v 100 a 10 10 0 0 0 10 10"></path><g class="terminal ">
<path d="M 488.5 339 h 0.0"></path><path d="M 551.0 339 h 0.0"></path><rect height="22" rx="10" ry="10" width="62.5" x="488.5" y="328"></rect><text x="519.75" y="343">"ECC"</text></g><path d="M 468.5 219 a 10 10 0 0 1 10 10 v 130 a 10 10 0 0 0 10 10"></path><g class="terminal ">
<path d="M 488.5 369 h 0.0"></path><path d="M 551.0 369 h 0.0"></path><rect height="22" rx="10" ry="10" width="62.5" x="488.5" y="358"></rect><text x="519.75" y="373">"SNG"</text></g><path d="M 468.5 219 a 10 10 0 0 1 10 10 v 160 a 10 10 0 0 0 10 10"></path><g class="terminal ">
<path d="M 488.5 399 h 0.0"></path><path d="M 551.0 399 h 0.0"></path><rect height="22" rx="10" ry="10" width="62.5" x="488.5" y="388"></rect><text x="519.75" y="403">"ISA"</text></g><path d="M 468.5 219 a 10 10 0 0 1 10 10 v 190 a 10 10 0 0 0 10 10"></path><g class="terminal ">
<path d="M 488.5 429 h 0.0"></path><path d="M 551.0 429 h 0.0"></path><rect height="22" rx="10" ry="10" width="62.5" x="488.5" y="418"></rect><text x="519.75" y="433">"JER"</text></g><path d="M 468.5 219 a 10 10 0 0 1 10 10 v 220 a 10 10 0 0 0 10 10"></path><g class="terminal ">
<path d="M 488.5 459 h 0.0"></path><path d="M 551.0 459 h 0.0"></path><rect height="22" rx="10" ry="10" width="62.5" x="488.5" y="448"></rect><text x="519.75" y="463">"LAM"</text></g><path d="M 468.5 219 a 10 10 0 0 1 10 10 v 250 a 10 10 0 0 0 10 10"></path><g class="terminal ">
<path d="M 488.5 489 h 0.0"></path><path d="M 551.0 489 h 0.0"></path><rect height="22" rx="10" ry="10" width="62.5" x="488.5" y="478"></rect><text x="519.75" y="493">"EZK"</text></g></g><path d="M 571.0 100 a 10 10 0 0 1 10 10 v 99 a 10 10 0 0 0 10 10"></path><g>
<path d="M 591.0 219 h 0.0"></path><path d="M 591.0 219 a 10 10 0 0 0 10 -10 v -10 a 10 10 0 0 1 10 -10"></path><g class="terminal ">
<path d="M 611.0 189 h 0.0"></path><path d="M 673.5 189 h 0.0"></path><rect height="22" rx="10" ry="10" width="62.5" x="611.0" y="178"></rect><text x="642.25" y="193">"JOL"</text></g><path d="M 591.0 219 a 10 10 0 0 0 10 -10 v -40 a 10 10 0 0 1 10 -10"></path><g class="terminal ">
<path d="M 611.0 159 h 0.0"></path><path d="M 673.5 159 h 0.0"></path><rect height="22" rx="10" ry="10" width="62.5" x="611.0" y="148"></rect><text x="642.25" y="163">"HOS"</text></g><path d="M 591.0 219 a 10 10 0 0 0 10 -10 v -70 a 10 10 0 0 1 10 -10"></path><g class="terminal ">
<path d="M 611.0 129 h 0.0"></path><path d="M 673.5 129 h 0.0"></path><rect height="22" rx="10" ry="10" width="62.5" x="611.0" y="118"></rect><text x="642.25" y="133">"DAN"</text></g><path d="M 591.0 219 h 20"></path><g class="terminal ">
<path d="M 611.0 219 h 0.0"></path><path d="M 673.5 219 h 0.0"></path><rect height="22" rx="10" ry="10" width="62.5" x="611.0" y="208"></rect><text x="642.25" y="223">"AMO"</text></g><path d="M 591.0 219 a 10 10 0 0 1 10 10 v 10 a 10 10 0 0 0 10 10"></path><g class="terminal ">
<path d="M 611.0 249 h 0.0"></path><path d="M 673.5 249 h 0.0"></path><rect height="22" rx="10" ry="10" width="62.5" x="611.0" y="238"></rect><text x="642.25" y="253">"OBA"</text></g><path d="M 591.0 219 a 10 10 0 0 1 10 10 v 40 a 10 10 0 0 0 10 10"></path><g class="terminal ">
<path d="M 611.0 279 h 0.0"></path><path d="M 673.5 279 h 0.0"></path><rect height="22" rx="10" ry="10" width="62.5" x="611.0" y="268"></rect><text x="642.25" y="283">"JON"</text></g><path d="M 591.0 219 a 10 10 0 0 1 10 10 v 70 a 10 10 0 0 0 10 10"></path><g class="terminal ">
<path d="M 611.0 309 h 0.0"></path><path d="M 673.5 309 h 0.0"></path><rect height="22" rx="10" ry="10" width="62.5" x="611.0" y="298"></rect><text x="642.25" y="313">"MIC"</text></g><path d="M 591.0 219 a 10 10 0 0 1 10 10 v 100 a 10 10 0 0 0 10 10"></path><g class="terminal ">
<path d="M 611.0 339 h 0.0"></path><path d="M 673.5 339 h 0.0"></path><rect height="22" rx="10" ry="10" width="62.5" x="611.0" y="328"></rect><text x="642.25" y="343">"NAM"</text></g><path d="M 591.0 219 a 10 10 0 0 1 10 10 v 130 a 10 10 0 0 0 10 10"></path><g class="terminal ">
<path d="M 611.0 369 h 0.0"></path><path d="M 673.5 369 h 0.0"></path><rect height="22" rx="10" ry="10" width="62.5" x="611.0" y="358"></rect><text x="642.25" y="373">"HAB"</text></g><path d="M 591.0 219 a 10 10 0 0 1 10 10 v 160 a 10 10 0 0 0 10 10"></path><g class="terminal ">
<path d="M 611.0 399 h 0.0"></path><path d="M 673.5 399 h 0.0"></path><rect height="22" rx="10" ry="10" width="62.5" x="611.0" y="388"></rect><text x="642.25" y="403">"ZEP"</text></g><path d="M 591.0 219 a 10 10 0 0 1 10 10 v 190 a 10 10 0 0 0 10 10"></path><g class="terminal ">
<path d="M 611.0 429 h 0.0"></path><path d="M 673.5 429 h 0.0"></path><rect height="22" rx="10" ry="10" width="62.5" x="611.0" y="418"></rect><text x="642.25" y="433">"HAG"</text></g><path d="M 591.0 219 a 10 10 0 0 1 10 10 v 220 a 10 10 0 0 0 10 10"></path><g class="terminal ">
<path d="M 611.0 459 h 0.0"></path><path d="M 673.5 459 h 0.0"></path><rect height="22" rx="10" ry="10" width="62.5" x="611.0" y="448"></rect><text x="642.25" y="463">"ZEC"</text></g><path d="M 591.0 219 a 10 10 0 0 1 10 10 v 250 a 10 10 0 0 0 10 10"></path><g class="terminal ">
<path d="M 611.0 489 h 0.0"></path><path d="M 673.5 489 h 0.0"></path><rect height="22" rx="10" ry="10" width="62.5" x="611.0" y="478"></rect><text x="642.25" y="493">"MAL"</text></g></g><path d="M 693.5 100 a 10 10 0 0 1 10 10 v 99 a 10 10 0 0 0 10 10"></path><g>
<path d="M 713.5 219 h 0.0"></path><path d="M 713.5 219 a 10 10 0 0 0 10 -10 v -10 a 10 10 0 0 1 10 -10"></path><g class="terminal ">
<path d="M 733.5 189 h 0.0"></path><path d="M 796.0 189 h 0.0"></path><rect height="22" rx="10" ry="10" width="62.5" x="733.5" y="178"></rect><text x="764.75" y="193">"LUK"</text></g><path d="M 713.5 219 a 10 10 0 0 0 10 -10 v -40 a 10 10 0 0 1 10 -10"></path><g class="terminal ">
<path d="M 733.5 159 h 0.0"></path><path d="M 796.0 159 h 0.0"></path><rect height="22" rx="10" ry="10" width="62.5" x="733.5" y="148"></rect><text x="764.75" y="163">"MRK"</text></g><path d="M 713.5 219 a 10 10 0 0 0 10 -10 v -70 a 10 10 0 0 1 10 -10"></path><g class="terminal ">
<path d="M 733.5 129 h 0.0"></path><path d="M 796.0 129 h 0.0"></path><rect height="22" rx="10" ry="10" width="62.5" x="733.5" y="118"></rect><text x="764.75" y="133">"MAT"</text></g><path d="M 713.5 219 h 20"></path><g class="terminal ">
<path d="M 733.5 219 h 0.0"></path><path d="M 796.0 219 h 0.0"></path><rect height="22" rx="10" ry="10" width="62.5" x="733.5" y="208"></rect><text x="764.75" y="223">"JHN"</text></g><path d="M 713.5 219 a 10 10 0 0 1 10 10 v 10 a 10 10 0 0 0 10 10"></path><g class="terminal ">
<path d="M 733.5 249 h 0.0"></path><path d="M 796.0 249 h 0.0"></path><rect height="22" rx="10" ry="10" width="62.5" x="733.5" y="238"></rect><text x="764.75" y="253">"ACT"</text></g><path d="M 713.5 219 a 10 10 0 0 1 10 10 v 40 a 10 10 0 0 0 10 10"></path><g class="terminal ">
<path d="M 733.5 279 h 0.0"></path><path d="M 796.0 279 h 0.0"></path><rect height="22" rx="10" ry="10" width="62.5" x="733.5" y="268"></rect><text x="764.75" y="283">"ROM"</text></g><path d="M 713.5 219 a 10 10 0 0 1 10 10 v 70 a 10 10 0 0 0 10 10"></path><g class="terminal ">
<path d="M 733.5 309 h 0.0"></path><path d="M 796.0 309 h 0.0"></path><rect height="22" rx="10" ry="10" width="62.5" x="733.5" y="298"></rect><text x="764.75" y="313">"1CO"</text></g><path d="M 713.5 219 a 10 10 0 0 1 10 10 v 100 a 10 10 0 0 0 10 10"></path><g class="terminal ">
<path d="M 733.5 339 h 0.0"></path><path d="M 796.0 339 h 0.0"></path><rect height="22" rx="10" ry="10" width="62.5" x="733.5" y="328"></rect><text x="764.75" y="343">"2CO"</text></g><path d="M 713.5 219 a 10 10 0 0 1 10 10 v 130 a 10 10 0 0 0 10 10"></path><g class="terminal ">
<path d="M 733.5 369 h 0.0"></path><path d="M 796.0 369 h 0.0"></path><rect height="22" rx="10" ry="10" width="62.5" x="733.5" y="358"></rect><text x="764.75" y="373">"GAL"</text></g><path d="M 713.5 219 a 10 10 0 0 1 10 10 v 160 a 10 10 0 0 0 10 10"></path><g class="terminal ">
<path d="M 733.5 399 h 0.0"></path><path d="M 796.0 399 h 0.0"></path><rect height="22" rx="10" ry="10" width="62.5" x="733.5" y="388"></rect><text x="764.75" y="403">"EPH"</text></g><path d="M 713.5 219 a 10 10 0 0 1 10 10 v 190 a 10 10 0 0 0 10 10"></path><g class="terminal ">
<path d="M 733.5 429 h 0.0"></path><path d="M 796.0 429 h 0.0"></path><rect height="22" rx="10" ry="10" width="62.5" x="733.5" y="418"></rect><text x="764.75" y="433">"PHP"</text></g><path d="M 713.5 219 a 10 10 0 0 1 10 10 v 220 a 10 10 0 0 0 10 10"></path><g class="terminal ">
<path d="M 733.5 459 h 0.0"></path><path d="M 796.0 459 h 0.0"></path><rect height="22" rx="10" ry="10" width="62.5" x="733.5" y="448"></rect><text x="764.75" y="463">"COL"</text></g><path d="M 713.5 219 a 10 10 0 0 1 10 10 v 250 a 10 10 0 0 0 10 10"></path><g class="terminal ">
<path d="M 733.5 489 h 0.0"></path><path d="M 796.0 489 h 0.0"></path><rect height="22" rx="10" ry="10" width="62.5" x="733.5" y="478"></rect><text x="764.75" y="493">"1TH"</text></g></g><path d="M 816.0 100 a 10 10 0 0 1 10 10 v 99 a 10 10 0 0 0 10 10"></path><g>
<path d="M 836.0 219 h 0.0"></path><path d="M 836.0 219 a 10 10 0 0 0 10 -10 v -10 a 10 10 0 0 1 10 -10"></path><g class="terminal ">
<path d="M 856.0 189 h 0.0"></path><path d="M 918.5 189 h 0.0"></path><rect height="22" rx="10" ry="10" width="62.5" x="856.0" y="178"></rect><text x="887.25" y="193">"2TI"</text></g><path d="M 836.0 219 a 10 10 0 0 0 10 -10 v -40 a 10 10 0 0 1 10 -10"></path><g class="terminal ">
<path d="M 856.0 159 h 0.0"></path><path d="M 918.5 159 h 0.0"></path><rect height="22" rx="10" ry="10" width="62.5" x="856.0" y="148"></rect><text x="887.25" y="163">"1TI"</text></g><path d="M 836.0 219 a 10 10 0 0 0 10 -10 v -70 a 10 10 0 0 1 10 -10"></path><g class="terminal ">
<path d="M 856.0 129 h 0.0"></path><path d="M 918.5 129 h 0.0"></path><rect height="22" rx="10" ry="10" width="62.5" x="856.0" y="118"></rect><text x="887.25" y="133">"2TH"</text></g><path d="M 836.0 219 h 20"></path><g class="terminal ">
<path d="M 856.0 219 h 0.0"></path><path d="M 918.5 219 h 0.0"></path><rect height="22" rx="10" ry="10" width="62.5" x="856.0" y="208"></rect><text x="887.25" y="223">"TIT"</text></g><path d="M 836.0 219 a 10 10 0 0 1 10 10 v 10 a 10 10 0 0 0 10 10"></path><g class="terminal ">
<path d="M 856.0 249 h 0.0"></path><path d="M 918.5 249 h 0.0"></path><rect height="22" rx="10" ry="10" width="62.5" x="856.0" y="238"></rect><text x="887.25" y="253">"PHM"</text></g><path d="M 836.0 219 a 10 10 0 0 1 10 10 v 40 a 10 10 0 0 0 10 10"></path><g class="terminal ">
<path d="M 856.0 279 h 0.0"></path><path d="M 918.5 279 h 0.0"></path><rect height="22" rx="10" ry="10" width="62.5" x="856.0" y="268"></rect><text x="887.25" y="283">"HEB"</text></g><path d="M 836.0 219 a 10 10 0 0 1 10 10 v 70 a 10 10 0 0 0 10 10"></path><g class="terminal ">
<path d="M 856.0 309 h 0.0"></path><path d="M 918.5 309 h 0.0"></path><rect height="22" rx="10" ry="10" width="62.5" x="856.0" y="298"></rect><text x="887.25" y="313">"JAS"</text></g><path d="M 836.0 219 a 10 10 0 0 1 10 10 v 100 a 10 10 0 0 0 10 10"></path><g class="terminal ">
<path d="M 856.0 339 h 0.0"></path><path d="M 918.5 339 h 0.0"></path><rect height="22" rx="10" ry="10" width="62.5" x="856.0" y="328"></rect><text x="887.25" y="343">"1PE"</text></g><path d="M 836.0 219 a 10 10 0 0 1 10 10 v 130 a 10 10 0 0 0 10 10"></path><g class="terminal ">
<path d="M 856.0 369 h 0.0"></path><path d="M 918.5 369 h 0.0"></path><rect height="22" rx="10" ry="10" width="62.5" x="856.0" y="358"></rect><text x="887.25" y="373">"2PE"</text></g><path d="M 836.0 219 a 10 10 0 0 1 10 10 v 160 a 10 10 0 0 0 10 10"></path><g class="terminal ">
<path d="M 856.0 399 h 0.0"></path><path d="M 918.5 399 h 0.0"></path><rect height="22" rx="10" ry="10" width="62.5" x="856.0" y="388"></rect><text x="887.25" y="403">"1JN"</text></g><path d="M 836.0 219 a 10 10 0 0 1 10 10 v 190 a 10 10 0 0 0 10 10"></path><g class="terminal ">
<path d="M 856.0 429 h 0.0"></path><path d="M 918.5 429 h 0.0"></path><rect height="22" rx="10" ry="10" width="62.5" x="856.0" y="418"></rect><text x="887.25" y="433">"2JN"</text></g><path d="M 836.0 219 a 10 10 0 0 1 10 10 v 220 a 10 10 0 0 0 10 10"></path><g class="terminal ">
<path d="M 856.0 459 h 0.0"></path><path d="M 918.5 459 h 0.0"></path><rect height="22" rx="10" ry="10" width="62.5" x="856.0" y="448"></rect><text x="887.25" y="463">"3JN"</text></g><path d="M 836.0 219 a 10 10 0 0 1 10 10 v 250 a 10 10 0 0 0 10 10"></path><g class="terminal ">
<path d="M 856.0 489 h 0.0"></path><path d="M 918.5 489 h 0.0"></path><rect height="22" rx="10" ry="10" width="62.5" x="856.0" y="478"></rect><text x="887.25" y="493">"JUD"</text></g></g><path d="M 938.5 100 a 10 10 0 0 1 10 10 v 99 a 10 10 0 0 0 10 10"></path><g>
<path d="M 958.5 219 h 0.0"></path><path d="M 958.5 219 a 10 10 0 0 0 10 -10 v -10 a 10 10 0 0 1 10 -10"></path><g class="terminal ">
<path d="M 978.5 189 h 0.0"></path><path d="M 1041.0 189 h 0.0"></path><rect height="22" rx="10" ry="10" width="62.5" x="978.5" y="178"></rect><text x="1009.75" y="193">"JDT"</text></g><path d="M 958.5 219 a 10 10 0 0 0 10 -10 v -40 a 10 10 0 0 1 10 -10"></path><g class="terminal ">
<path d="M 978.5 159 h 0.0"></path><path d="M 1041.0 159 h 0.0"></path><rect height="22" rx="10" ry="10" width="62.5" x="978.5" y="148"></rect><text x="1009.75" y="163">"TOB"</text></g><path d="M 958.5 219 a 10 10 0 0 0 10 -10 v -70 a 10 10 0 0 1 10 -10"></path><g class="terminal ">
<path d="M 978.5 129 h 0.0"></path><path d="M 1041.0 129 h 0.0"></path><rect height="22" rx="10" ry="10" width="62.5" x="978.5" y="118"></rect><text x="1009.75" y="133">"REV"</text></g><path d="M 958.5 219 h 20"></path><g class="terminal ">
<path d="M 978.5 219 h 0.0"></path><path d="M 1041.0 219 h 0.0"></path><rect height="22" rx="10" ry="10" width="62.5" x="978.5" y="208"></rect><text x="1009.75" y="223">"ESG"</text></g><path d="M 958.5 219 a 10 10 0 0 1 10 10 v 10 a 10 10 0 0 0 10 10"></path><g class="terminal ">
<path d="M 978.5 249 h 0.0"></path><path d="M 1041.0 249 h 0.0"></path><rect height="22" rx="10" ry="10" width="62.5" x="978.5" y="238"></rect><text x="1009.75" y="253">"WIS"</text></g><path d="M 958.5 219 a 10 10 0 0 1 10 10 v 40 a 10 10 0 0 0 10 10"></path><g class="terminal ">
<path d="M 978.5 279 h 0.0"></path><path d="M 1041.0 279 h 0.0"></path><rect height="22" rx="10" ry="10" width="62.5" x="978.5" y="268"></rect><text x="1009.75" y="283">"SIR"</text></g><path d="M 958.5 219 a 10 10 0 0 1 10 10 v 70 a 10 10 0 0 0 10 10"></path><g class="terminal ">
<path d="M 978.5 309 h 0.0"></path><path d="M 1041.0 309 h 0.0"></path><rect height="22" rx="10" ry="10" width="62.5" x="978.5" y="298"></rect><text x="1009.75" y="313">"BAR"</text></g><path d="M 958.5 219 a 10 10 0 0 1 10 10 v 100 a 10 10 0 0 0 10 10"></path><g class="terminal ">
<path d="M 978.5 339 h 0.0"></path><path d="M 1041.0 339 h 0.0"></path><rect height="22" rx="10" ry="10" width="62.5" x="978.5" y="328"></rect><text x="1009.75" y="343">"LJE"</text></g><path d="M 958.5 219 a 10 10 0 0 1 10 10 v 130 a 10 10 0 0 0 10 10"></path><g class="terminal ">
<path d="M 978.5 369 h 0.0"></path><path d="M 1041.0 369 h 0.0"></path><rect height="22" rx="10" ry="10" width="62.5" x="978.5" y="358"></rect><text x="1009.75" y="373">"S3Y"</text></g><path d="M 958.5 219 a 10 10 0 0 1 10 10 v 160 a 10 10 0 0 0 10 10"></path><g class="terminal ">
<path d="M 978.5 399 h 0.0"></path><path d="M 1041.0 399 h 0.0"></path><rect height="22" rx="10" ry="10" width="62.5" x="978.5" y="388"></rect><text x="1009.75" y="403">"SUS"</text></g><path d="M 958.5 219 a 10 10 0 0 1 10 10 v 190 a 10 10 0 0 0 10 10"></path><g class="terminal ">
<path d="M 978.5 429 h 0.0"></path><path d="M 1041.0 429 h 0.0"></path><rect height="22" rx="10" ry="10" width="62.5" x="978.5" y="418"></rect><text x="1009.75" y="433">"BEL"</text></g><path d="M 958.5 219 a 10 10 0 0 1 10 10 v 220 a 10 10 0 0 0 10 10"></path><g class="terminal ">
<path d="M 978.5 459 h 0.0"></path><path d="M 1041.0 459 h 0.0"></path><rect height="22" rx="10" ry="10" width="62.5" x="978.5" y="448"></rect><text x="1009.75" y="463">"1MA"</text></g><path d="M 958.5 219 a 10 10 0 0 1 10 10 v 250 a 10 10 0 0 0 10 10"></path><g class="terminal ">
<path d="M 978.5 489 h 0.0"></path><path d="M 1041.0 489 h 0.0"></path><rect height="22" rx="10" ry="10" width="62.5" x="978.5" y="478"></rect><text x="1009.75" y="493">"2MA"</text></g></g><path d="M 1061.0 100 a 10 10 0 0 1 10 10 v 99 a 10 10 0 0 0 10 10"></path><g>
<path d="M 1081.0 219 h 0.0"></path><path d="M 1081.0 219 a 10 10 0 0 0 10 -10 v -10 a 10 10 0 0 1 10 -10"></path><g class="terminal ">
<path d="M 1101.0 189 h 0.0"></path><path d="M 1163.5 189 h 0.0"></path><rect height="22" rx="10" ry="10" width="62.5" x="1101.0" y="178"></rect><text x="1132.25" y="193">"1ES"</text></g><path d="M 1081.0 219 a 10 10 0 0 0 10 -10 v -40 a 10 10 0 0 1 10 -10"></path><g class="terminal ">
<path d="M 1101.0 159 h 0.0"></path><path d="M 1163.5 159 h 0.0"></path><rect height="22" rx="10" ry="10" width="62.5" x="1101.0" y="148"></rect><text x="1132.25" y="163">"4MA"</text></g><path d="M 1081.0 219 a 10 10 0 0 0 10 -10 v -70 a 10 10 0 0 1 10 -10"></path><g class="terminal ">
<path d="M 1101.0 129 h 0.0"></path><path d="M 1163.5 129 h 0.0"></path><rect height="22" rx="10" ry="10" width="62.5" x="1101.0" y="118"></rect><text x="1132.25" y="133">"3MA"</text></g><path d="M 1081.0 219 h 20"></path><g class="terminal ">
<path d="M 1101.0 219 h 0.0"></path><path d="M 1163.5 219 h 0.0"></path><rect height="22" rx="10" ry="10" width="62.5" x="1101.0" y="208"></rect><text x="1132.25" y="223">"2ES"</text></g><path d="M 1081.0 219 a 10 10 0 0 1 10 10 v 10 a 10 10 0 0 0 10 10"></path><g class="terminal ">
<path d="M 1101.0 249 h 0.0"></path><path d="M 1163.5 249 h 0.0"></path><rect height="22" rx="10" ry="10" width="62.5" x="1101.0" y="238"></rect><text x="1132.25" y="253">"MAN"</text></g><path d="M 1081.0 219 a 10 10 0 0 1 10 10 v 40 a 10 10 0 0 0 10 10"></path><g class="terminal ">
<path d="M 1101.0 279 h 0.0"></path><path d="M 1163.5 279 h 0.0"></path><rect height="22" rx="10" ry="10" width="62.5" x="1101.0" y="268"></rect><text x="1132.25" y="283">"PS2"</text></g><path d="M 1081.0 219 a 10 10 0 0 1 10 10 v 70 a 10 10 0 0 0 10 10"></path><g class="terminal ">
<path d="M 1101.0 309 h 0.0"></path><path d="M 1163.5 309 h 0.0"></path><rect height="22" rx="10" ry="10" width="62.5" x="1101.0" y="298"></rect><text x="1132.25" y="313">"ODA"</text></g><path d="M 1081.0 219 a 10 10 0 0 1 10 10 v 100 a 10 10 0 0 0 10 10"></path><g class="terminal ">
<path d="M 1101.0 339 h 0.0"></path><path d="M 1163.5 339 h 0.0"></path><rect height="22" rx="10" ry="10" width="62.5" x="1101.0" y="328"></rect><text x="1132.25" y="343">"PSS"</text></g><path d="M 1081.0 219 a 10 10 0 0 1 10 10 v 130 a 10 10 0 0 0 10 10"></path><g class="terminal ">
<path d="M 1101.0 369 h 0.0"></path><path d="M 1163.5 369 h 0.0"></path><rect height="22" rx="10" ry="10" width="62.5" x="1101.0" y="358"></rect><text x="1132.25" y="373">"EZA"</text></g><path d="M 1081.0 219 a 10 10 0 0 1 10 10 v 160 a 10 10 0 0 0 10 10"></path><g class="terminal ">
<path d="M 1101.0 399 h 0.0"></path><path d="M 1163.5 399 h 0.0"></path><rect height="22" rx="10" ry="10" width="62.5" x="1101.0" y="388"></rect><text x="1132.25" y="403">"5EZ"</text></g><path d="M 1081.0 219 a 10 10 0 0 1 10 10 v 190 a 10 10 0 0 0 10 10"></path><g class="terminal ">
<path d="M 1101.0 429 h 0.0"></path><path d="M 1163.5 429 h 0.0"></path><rect height="22" rx="10" ry="10" width="62.5" x="1101.0" y="418"></rect><text x="1132.25" y="433">"6EZ"</text></g><path d="M 1081.0 219 a 10 10 0 0 1 10 10 v 220 a 10 10 0 0 0 10 10"></path><g class="terminal ">
<path d="M 1101.0 459 h 0.0"></path><path d="M 1163.5 459 h 0.0"></path><rect height="22" rx="10" ry="10" width="62.5" x="1101.0" y="448"></rect><text x="1132.25" y="463">"DAG"</text></g><path d="M 1081.0 219 a 10 10 0 0 1 10 10 v 250 a 10 10 0 0 0 10 10"></path><g class="terminal ">
<path d="M 1101.0 489 h 0.0"></path><path d="M 1163.5 489 h 0.0"></path><rect height="22" rx="10" ry="10" width="62.5" x="1101.0" y="478"></rect><text x="1132.25" y="493">"PS3"</text></g></g><path d="M 1183.5 100 a 10 10 0 0 1 10 10 v 99 a 10 10 0 0 0 10 10"></path><g>
<path d="M 1203.5 219 h 0.0"></path><path d="M 1203.5 219 a 10 10 0 0 0 10 -10 v -10 a 10 10 0 0 1 10 -10"></path><g class="terminal ">
<path d="M 1223.5 189 h 0.0"></path><path d="M 1286.0 189 h 0.0"></path><rect height="22" rx="10" ry="10" width="62.5" x="1223.5" y="178"></rect><text x="1254.75" y="193">"JUB"</text></g><path d="M 1203.5 219 a 10 10 0 0 0 10 -10 v -40 a 10 10 0 0 1 10 -10"></path><g class="terminal ">
<path d="M 1223.5 159 h 0.0"></path><path d="M 1286.0 159 h 0.0"></path><rect height="22" rx="10" ry="10" width="62.5" x="1223.5" y="148"></rect><text x="1254.75" y="163">"LBA"</text></g><path d="M 1203.5 219 a 10 10 0 0 0 10 -10 v -70 a 10 10 0 0 1 10 -10"></path><g class="terminal ">
<path d="M 1223.5 129 h 0.0"></path><path d="M 1286.0 129 h 0.0"></path><rect height="22" rx="10" ry="10" width="62.5" x="1223.5" y="118"></rect><text x="1254.75" y="133">"2BA"</text></g><path d="M 1203.5 219 h 20"></path><g class="terminal ">
<path d="M 1223.5 219 h 0.0"></path><path d="M 1286.0 219 h 0.0"></path><rect height="22" rx="10" ry="10" width="62.5" x="1223.5" y="208"></rect><text x="1254.75" y="223">"ENO"</text></g><path d="M 1203.5 219 a 10 10 0 0 1 10 10 v 10 a 10 10 0 0 0 10 10"></path><g class="terminal ">
<path d="M 1223.5 249 h 0.0"></path><path d="M 1286.0 249 h 0.0"></path><rect height="22" rx="10" ry="10" width="62.5" x="1223.5" y="238"></rect><text x="1254.75" y="253">"1MQ"</text></g><path d="M 1203.5 219 a 10 10 0 0 1 10 10 v 40 a 10 10 0 0 0 10 10"></path><g class="terminal ">
<path d="M 1223.5 279 h 0.0"></path><path d="M 1286.0 279 h 0.0"></path><rect height="22" rx="10" ry="10" width="62.5" x="1223.5" y="268"></rect><text x="1254.75" y="283">"2MQ"</text></g><path d="M 1203.5 219 a 10 10 0 0 1 10 10 v 70 a 10 10 0 0 0 10 10"></path><g class="terminal ">
<path d="M 1223.5 309 h 0.0"></path><path d="M 1286.0 309 h 0.0"></path><rect height="22" rx="10" ry="10" width="62.5" x="1223.5" y="298"></rect><text x="1254.75" y="313">"3MQ"</text></g><path d="M 1203.5 219 a 10 10 0 0 1 10 10 v 100 a 10 10 0 0 0 10 10"></path><g class="terminal ">
<path d="M 1223.5 339 h 0.0"></path><path d="M 1286.0 339 h 0.0"></path><rect height="22" rx="10" ry="10" width="62.5" x="1223.5" y="328"></rect><text x="1254.75" y="343">"REP"</text></g><path d="M 1203.5 219 a 10 10 0 0 1 10 10 v 130 a 10 10 0 0 0 10 10"></path><g class="terminal ">
<path d="M 1223.5 369 h 0.0"></path><path d="M 1286.0 369 h 0.0"></path><rect height="22" rx="10" ry="10" width="62.5" x="1223.5" y="358"></rect><text x="1254.75" y="373">"4BA"</text></g><path d="M 1203.5 219 a 10 10 0 0 1 10 10 v 160 a 10 10 0 0 0 10 10"></path><g class="terminal ">
<path d="M 1223.5 399 h 0.0"></path><path d="M 1286.0 399 h 0.0"></path><rect height="22" rx="10" ry="10" width="62.5" x="1223.5" y="388"></rect><text x="1254.75" y="403">"LAO"</text></g><path d="M 1203.5 219 a 10 10 0 0 1 10 10 v 190 a 10 10 0 0 0 10 10"></path><g class="terminal ">
<path d="M 1223.5 429 h 0.0"></path><path d="M 1651.5 429 h 0.0"></path><rect height="22" rx="10" ry="10" width="428.0" x="1223.5" y="418"></rect><text x="1437.5" y="433">/&#91;A-Z&#93;&#91;A-Z0-9&#93;{2}|&#91;0-9&#93;&#91;A-Z&#93;&#91;0-9&#93;|&#91;0-9&#93;{2}&#91;A-Z&#93;/</text></g></g></g></g><path d="M 243.5 566 h 20"></path><g>
<path d="M 263.5 566 h 742.0"></path><path d="M 1099.5 566 h 742.0"></path><g>
<path d="M 1005.5 566 h 0.0"></path><path d="M 1099.5 566 h 0.0"></path><path d="M 1005.5 566 h 20"></path><g>
<path d="M 1025.5 566 h 54.0"></path></g><path d="M 1079.5 566 h 20"></path><path d="M 1005.5 566 a 10 10 0 0 1 10 10 v 0 a 10 10 0 0 0 10 10"></path><g>
<path d="M 1025.5 586 h 0.0"></path><path d="M 1079.5 586 h 0.0"></path><g class="terminal ">
<path d="M 1025.5 586 h 0.0"></path><path d="M 1079.5 586 h 0.0"></path><rect height="22" rx="10" ry="10" width="54.0" x="1025.5" y="575"></rect><text x="1052.5" y="590">TEXT</text></g></g><path d="M 1079.5 586 a 10 10 0 0 0 10 -10 v 0 a 10 10 0 0 1 10 -10"></path></g></g><path d="M 1841.5 566 h 20"></path></g></g><path d="M 1861.5 566 h 20"></path><path d="M 132.5 566 a 10 10 0 0 1 10 10 v 69 a 10 10 0 0 0 10 10"></path><g>
<path d="M 152.5 655 h 133.75"></path><path d="M 1727.75 655 h 133.75"></path><g>
<path d="M 286.25 655 h 0.0"></path><path d="M 459.75 655 h 0.0"></path><path d="M 286.25 655 a 10 10 0 0 0 10 -10 v 0 a 10 10 0 0 1 10 -10"></path><g>
<path d="M 306.25 635 h 133.5"></path></g><path d="M 439.75 635 a 10 10 0 0 1 10 10 v 0 a 10 10 0 0 0 10 10"></path><path d="M 286.25 655 h 20"></path><g>
<path d="M 306.25 655 h 0.0"></path><path d="M 439.75 655 h 0.0"></path><path d="M 306.25 655 h 10"></path><g class="non-terminal ">
<path d="M 316.25 655 h 0.0"></path><path d="M 429.75 655 h 0.0"></path><rect height="22" width="113.5" x="316.25" y="644"></rect><text x="373.0" y="659">BookHeaders</text></g><path d="M 429.75 655 h 10"></path><path d="M 316.25 655 a 10 10 0 0 0 -10 10 v 0 a 10 10 0 0 0 10 10"></path><g>
<path d="M 316.25 675 h 113.5"></path></g><path d="M 429.75 675 a 10 10 0 0 0 10 -10 v 0 a 10 10 0 0 0 -10 -10"></path></g><path d="M 439.75 655 h 20"></path></g><path d="M 459.75 655 h 10"></path><path d="M 469.75 655 h 10"></path><g>
<path d="M 479.75 655 h 0.0"></path><path d="M 644.75 655 h 0.0"></path><path d="M 479.75 655 a 10 10 0 0 0 10 -10 v 0 a 10 10 0 0 1 10 -10"></path><g>
<path d="M 499.75 635 h 125.0"></path></g><path d="M 624.75 635 a 10 10 0 0 1 10 10 v 0 a 10 10 0 0 0 10 10"></path><path d="M 479.75 655 h 20"></path><g>
<path d="M 499.75 655 h 0.0"></path><path d="M 624.75 655 h 0.0"></path><path d="M 499.75 655 h 10"></path><g class="non-terminal ">
<path d="M 509.75 655 h 0.0"></path><path d="M 614.75 655 h 0.0"></path><rect height="22" width="105.0" x="509.75" y="644"></rect><text x="562.25" y="659">BookTitles</text></g><path d="M 614.75 655 h 10"></path><path d="M 509.75 655 a 10 10 0 0 0 -10 10 v 0 a 10 10 0 0 0 10 10"></path><g>
<path d="M 509.75 675 h 105.0"></path></g><path d="M 614.75 675 a 10 10 0 0 0 10 -10 v 0 a 10 10 0 0 0 -10 -10"></path></g><path d="M 624.75 655 h 20"></path></g><path d="M 644.75 655 h 10"></path><path d="M 654.75 655 h 10"></path><g>
<path d="M 664.75 655 h 0.0"></path><path d="M 880.75 655 h 0.0"></path><path d="M 664.75 655 a 10 10 0 0 0 10 -10 v 0 a 10 10 0 0 1 10 -10"></path><g>
<path d="M 684.75 635 h 176.0"></path></g><path d="M 860.75 635 a 10 10 0 0 1 10 10 v 0 a 10 10 0 0 0 10 10"></path><path d="M 664.75 655 h 20"></path><g>
<path d="M 684.75 655 h 0.0"></path><path d="M 860.75 655 h 0.0"></path><path d="M 684.75 655 h 10"></path><g class="non-terminal ">
<path d="M 694.75 655 h 0.0"></path><path d="M 850.75 655 h 0.0"></path><rect height="22" width="156.0" x="694.75" y="644"></rect><text x="772.75" y="659">BookIntroduction</text></g><path d="M 850.75 655 h 10"></path><path d="M 694.75 655 a 10 10 0 0 0 -10 10 v 0 a 10 10 0 0 0 10 10"></path><g>
<path d="M 694.75 675 h 156.0"></path></g><path d="M 850.75 675 a 10 10 0 0 0 10 -10 v 0 a 10 10 0 0 0 -10 -10"></path></g><path d="M 860.75 655 h 20"></path></g><path d="M 880.75 655 h 10"></path><path d="M 890.75 655 h 10"></path><g>
<path d="M 900.75 655 h 0.0"></path><path d="M 1193.25 655 h 0.0"></path><path d="M 900.75 655 a 10 10 0 0 0 10 -10 v 0 a 10 10 0 0 1 10 -10"></path><g>
<path d="M 920.75 635 h 252.5"></path></g><path d="M 1173.25 635 a 10 10 0 0 1 10 10 v 0 a 10 10 0 0 0 10 10"></path><path d="M 900.75 655 h 20"></path><g>
<path d="M 920.75 655 h 0.0"></path><path d="M 1173.25 655 h 0.0"></path><path d="M 920.75 655 h 10"></path><g class="non-terminal ">
<path d="M 930.75 655 h 0.0"></path><path d="M 1163.25 655 h 0.0"></path><rect height="22" width="232.5" x="930.75" y="644"></rect><text x="1047.0" y="659">BookIntroductionEndTitles</text></g><path d="M 1163.25 655 h 10"></path><path d="M 930.75 655 a 10 10 0 0 0 -10 10 v 0 a 10 10 0 0 0 10 10"></path><g>
<path d="M 930.75 675 h 232.5"></path></g><path d="M 1163.25 675 a 10 10 0 0 0 10 -10 v 0 a 10 10 0 0 0 -10 -10"></path></g><path d="M 1173.25 655 h 20"></path></g><path d="M 1193.25 655 h 10"></path><path d="M 1203.25 655 h 10"></path><g>
<path d="M 1213.25 655 h 0.0"></path><path d="M 1409.25 655 h 0.0"></path><path d="M 1213.25 655 h 20"></path><g>
<path d="M 1233.25 655 h 156.0"></path></g><path d="M 1389.25 655 h 20"></path><path d="M 1213.25 655 a 10 10 0 0 1 10 10 v 0 a 10 10 0 0 0 10 10"></path><g class="non-terminal ">
<path d="M 1233.25 675 h 0.0"></path><path d="M 1389.25 675 h 0.0"></path><rect height="22" width="156.0" x="1233.25" y="664"></rect><text x="1311.25" y="679">BookChapterLabel</text></g><path d="M 1389.25 675 a 10 10 0 0 0 10 -10 v 0 a 10 10 0 0 1 10 -10"></path></g><path d="M 1409.25 655 h 10"></path><path d="M 1419.25 655 h 10"></path><g class="non-terminal ">
<path d="M 1429.25 655 h 0.0"></path><path d="M 1508.75 655 h 0.0"></path><rect height="22" width="79.5" x="1429.25" y="644"></rect><text x="1469.0" y="659">Chapter</text></g><path d="M 1508.75 655 h 10"></path><path d="M 1518.75 655 h 10"></path><g>
<path d="M 1528.75 655 h 0.0"></path><path d="M 1727.75 655 h 0.0"></path><path d="M 1528.75 655 h 10"></path><g>
<path d="M 1538.75 655 h 0.0"></path><path d="M 1717.75 655 h 0.0"></path><path d="M 1538.75 655 h 20"></path><g class="non-terminal ">
<path d="M 1558.75 655 h 42.5"></path><path d="M 1655.25 655 h 42.5"></path><rect height="22" width="54.0" x="1601.25" y="644"></rect><text x="1628.25" y="659">Para</text></g><path d="M 1697.75 655 h 20"></path><path d="M 1538.75 655 a 10 10 0 0 1 10 10 v 10 a 10 10 0 0 0 10 10"></path><g class="non-terminal ">
<path d="M 1558.75 685 h 29.75"></path><path d="M 1668.0 685 h 29.75"></path><rect height="22" width="79.5" x="1588.5" y="674"></rect><text x="1628.25" y="689">Section</text></g><path d="M 1697.75 685 a 10 10 0 0 0 10 -10 v -10 a 10 10 0 0 1 10 -10"></path><path d="M 1538.75 655 a 10 10 0 0 1 10 10 v 40 a 10 10 0 0 0 10 10"></path><g class="non-terminal ">
<path d="M 1558.75 715 h 29.75"></path><path d="M 1668.0 715 h 29.75"></path><rect height="22" width="79.5" x="1588.5" y="704"></rect><text x="1628.25" y="719">Chapter</text></g><path d="M 1697.75 715 a 10 10 0 0 0 10 -10 v -40 a 10 10 0 0 1 10 -10"></path><path d="M 1538.75 655 a 10 10 0 0 1 10 10 v 70 a 10 10 0 0 0 10 10"></path><g class="non-terminal ">
<path d="M 1558.75 745 h 21.25"></path><path d="M 1676.5 745 h 21.25"></path><rect height="22" width="96.5" x="1580.0" y="734"></rect><text x="1628.25" y="749">Milestone</text></g><path d="M 1697.75 745 a 10 10 0 0 0 10 -10 v -70 a 10 10 0 0 1 10 -10"></path><path d="M 1538.75 655 a 10 10 0 0 1 10 10 v 100 a 10 10 0 0 0 10 10"></path><g class="non-terminal ">
<path d="M 1558.75 775 h 25.5"></path><path d="M 1672.25 775 h 25.5"></path><rect height="22" width="88.0" x="1584.25" y="764"></rect><text x="1628.25" y="779">Footnote</text></g><path d="M 1697.75 775 a 10 10 0 0 0 10 -10 v -100 a 10 10 0 0 1 10 -10"></path><path d="M 1538.75 655 a 10 10 0 0 1 10 10 v 130 a 10 10 0 0 0 10 10"></path><g class="non-terminal ">
<path d="M 1558.75 805 h 0.0"></path><path d="M 1697.75 805 h 0.0"></path><rect height="22" width="139.0" x="1558.75" y="794"></rect><text x="1628.25" y="809">CrossReference</text></g><path d="M 1697.75 805 a 10 10 0 0 0 10 -10 v -130 a 10 10 0 0 1 10 -10"></path><path d="M 1538.75 655 a 10 10 0 0 1 10 10 v 160 a 10 10 0 0 0 10 10"></path><g class="non-terminal ">
<path d="M 1558.75 835 h 42.5"></path><path d="M 1655.25 835 h 42.5"></path><rect height="22" width="54.0" x="1601.25" y="824"></rect><text x="1628.25" y="839">List</text></g><path d="M 1697.75 835 a 10 10 0 0 0 10 -10 v -160 a 10 10 0 0 1 10 -10"></path><path d="M 1538.75 655 a 10 10 0 0 1 10 10 v 190 a 10 10 0 0 0 10 10"></path><g class="non-terminal ">
<path d="M 1558.75 865 h 38.25"></path><path d="M 1659.5 865 h 38.25"></path><rect height="22" width="62.5" x="1597.0" y="854"></rect><text x="1628.25" y="869">Table</text></g><path d="M 1697.75 865 a 10 10 0 0 0 10 -10 v -190 a 10 10 0 0 1 10 -10"></path><path d="M 1538.75 655 a 10 10 0 0 1 10 10 v 220 a 10 10 0 0 0 10 10"></path><g class="non-terminal ">
<path d="M 1558.75 895 h 29.75"></path><path d="M 1668.0 895 h 29.75"></path><rect height="22" width="79.5" x="1588.5" y="884"></rect><text x="1628.25" y="899">Sidebar</text></g><path d="M 1697.75 895 a 10 10 0 0 0 10 -10 v -220 a 10 10 0 0 1 10 -10"></path></g><path d="M 1717.75 655 h 10"></path><path d="M 1538.75 655 a 10 10 0 0 0 -10 10 v 249 a 10 10 0 0 0 10 10"></path><g>
<path d="M 1538.75 924 h 179.0"></path></g><path d="M 1717.75 924 a 10 10 0 0 0 10 -10 v -249 a 10 10 0 0 0 -10 -10"></path></g></g><path d="M 1861.5 655 a 10 10 0 0 0 10 -10 v -69 a 10 10 0 0 1 10 -10"></path></g></g></g><path d="M 1881.5 566 h 10"></path><path d="M 1891.5 566 h 20 m 0 -10 v 20"></path></g></svg>