<svg class="railroad-diagram" height="193" viewBox="0 0 916.0 193" width="916.0" xmlns="http://www.w3.org/2000/svg" xmlns:xlink="http://www.w3.org/1999/xlink">
<g transform="translate(.5 .5)">
<style>/* <![CDATA[ */
    svg.railroad-diagram {
        background-color:hsl(30,20%,95%);
    }
    svg.railroad-diagram path {
        stroke-width: 2;
        stroke: black;
        fill: none;
    }
    svg.railroad-diagram text {
        font-size: 12px;
        text-anchor: middle;
        font-family: DejaVu Sans;
    }
    svg.railroad-diagram text.label {
        text-anchor:start;
    }
    svg.railroad-diagram text.comment {
        font-family: DejaVu Sans;
        font-size: 14px;
    }
    svg.railroad-diagram rect{
        stroke-width: 2;
        stroke:black;
        fill: rgb(210, 255, 210);
    }
    svg.railroad-diagram rect.group-box {
        stroke: gray;
        stroke-dasharray: 10 5;
        fill: none;
    }
    .terminal {
        font-family: DejaVu Sans;
    }

/* ]]> */
</style><g>
<path d="M 20 54 v 20 m 0 -10 h 20"></path></g><path d="M 40 64 h 10"></path><g>
<path d="M 50 64 h 0.0"></path><path d="M 866.0 64 h 0.0"></path><rect class="group-box" height="137" rx="10" ry="10" width="816.0" x="50.0" y="36"></rect><g>
<path d="M 50.0 64 h 0.0"></path><path d="M 866.0 64 h 0.0"></path><path d="M 50.0 64 a 10 10 0 0 0 10 -10 v 0 a 10 10 0 0 1 10 -10"></path><g>
<path d="M 70.0 44 h 776.0"></path></g><path d="M 846.0 44 a 10 10 0 0 1 10 10 v 0 a 10 10 0 0 0 10 10"></path><path d="M 50.0 64 h 20"></path><g>
<path d="M 70.0 64 h 0.0"></path><path d="M 846.0 64 h 0.0"></path><path d="M 70.0 64 h 10"></path><g>
<path d="M 80.0 64 h 0.0"></path><path d="M 836.0 64 h 0.0"></path><path d="M 80.0 64 h 20"></path><g>
<path d="M 100.0 64 h 0.0"></path><path d="M 816.0 64 h 0.0"></path><g class="terminal ">
<path d="M 100.0 64 h 0.0"></path><path d="M 162.0 64 h 0.0"></path><rect height="22" rx="10" ry="10" width="62.0" x="100.0" y="53"></rect><text x="131.0" y="68">"href="</text></g><path d="M 162.0 64 h 10"></path><path d="M 172.0 64 h 10"></path><g class="terminal ">
<path d="M 182.0 64 h 0.0"></path><path d="M 220.0 64 h 0.0"></path><rect height="22" rx="10" ry="10" width="38.0" x="182.0" y="53"></rect><text x="201.0" y="68">'"'</text></g><path d="M 220.0 64 h 10"></path><path d="M 230.0 64 h 10"></path><g class="terminal ">
<path d="M 240.0 64 h 0.0"></path><path d="M 758.0 64 h 0.0"></path><rect height="22" rx="10" ry="10" width="518.0" x="240.0" y="53"></rect><text x="499.0" y="68">/(.&#42;///?(.&#42;/?)+)|((prj:&#91;A-Za-z\-0-9&#93;{3,8} )?&#91;A-Z1-4&#93;{3} \d+:\d+(\-\d+)?)|(#&#91;^\s&#93;+)/</text></g><path d="M 758.0 64 h 10"></path><path d="M 768.0 64 h 10"></path><g class="terminal ">
<path d="M 778.0 64 h 0.0"></path><path d="M 816.0 64 h 0.0"></path><rect height="22" rx="10" ry="10" width="38.0" x="778.0" y="53"></rect><text x="797.0" y="68">'"'</text></g></g><path d="M 816.0 64 h 20"></path><path d="M 80.0 64 a 10 10 0 0 1 10 10 v 10 a 10 10 0 0 0 10 10"></path><g>
<path d="M 100.0 94 h 234.0"></path><path d="M 582.0 94 h 234.0"></path><g class="terminal ">
<path d="M 334.0 94 h 0.0"></path><path d="M 402.0 94 h 0.0"></path><rect height="22" rx="10" ry="10" width="68.0" x="334.0" y="83"></rect><text x="368.0" y="98">"title="</text></g><path d="M 402.0 94 h 10"></path><path d="M 412.0 94 h 10"></path><g class="terminal ">
<path d="M 422.0 94 h 0.0"></path><path d="M 460.0 94 h 0.0"></path><rect height="22" rx="10" ry="10" width="38.0" x="422.0" y="83"></rect><text x="441.0" y="98">'"'</text></g><path d="M 460.0 94 h 10"></path><path d="M 470.0 94 h 10"></path><g class="terminal ">
<path d="M 480.0 94 h 0.0"></path><path d="M 524.0 94 h 0.0"></path><rect height="22" rx="10" ry="10" width="44.0" x="480.0" y="83"></rect><text x="502.0" y="98">Text</text></g><path d="M 524.0 94 h 10"></path><path d="M 534.0 94 h 10"></path><g class="terminal ">
<path d="M 544.0 94 h 0.0"></path><path d="M 582.0 94 h 0.0"></path><rect height="22" rx="10" ry="10" width="38.0" x="544.0" y="83"></rect><text x="563.0" y="98">'"'</text></g></g><path d="M 816.0 94 a 10 10 0 0 0 10 -10 v -10 a 10 10 0 0 1 10 -10"></path><path d="M 80.0 64 a 10 10 0 0 1 10 10 v 40 a 10 10 0 0 0 10 10"></path><g>
<path d="M 100.0 124 h 201.0"></path><path d="M 615.0 124 h 201.0"></path><g class="terminal ">
<path d="M 301.0 124 h 0.0"></path><path d="M 351.0 124 h 0.0"></path><rect height="22" rx="10" ry="10" width="50.0" x="301.0" y="113"></rect><text x="326.0" y="128">"id="</text></g><path d="M 351.0 124 h 10"></path><path d="M 361.0 124 h 10"></path><g class="terminal ">
<path d="M 371.0 124 h 0.0"></path><path d="M 409.0 124 h 0.0"></path><rect height="22" rx="10" ry="10" width="38.0" x="371.0" y="113"></rect><text x="390.0" y="128">'"'</text></g><path d="M 409.0 124 h 10"></path><path d="M 419.0 124 h 10"></path><g class="terminal ">
<path d="M 429.0 124 h 0.0"></path><path d="M 557.0 124 h 0.0"></path><rect height="22" rx="10" ry="10" width="128.0" x="429.0" y="113"></rect><text x="493.0" y="128">/&#91;\p{L}\d&#95;\-\.:&#93;+/</text></g><path d="M 557.0 124 h 10"></path><path d="M 567.0 124 h 10"></path><g class="terminal ">
<path d="M 577.0 124 h 0.0"></path><path d="M 615.0 124 h 0.0"></path><rect height="22" rx="10" ry="10" width="38.0" x="577.0" y="113"></rect><text x="596.0" y="128">'"'</text></g></g><path d="M 816.0 124 a 10 10 0 0 0 10 -10 v -40 a 10 10 0 0 1 10 -10"></path></g><path d="M 836.0 64 h 10"></path><path d="M 80.0 64 a 10 10 0 0 0 -10 10 v 70 a 10 10 0 0 0 10 10"></path><g class="terminal ">
<path d="M 80.0 154 h 362.0"></path><path d="M 474.0 154 h 362.0"></path><rect height="22" rx="10" ry="10" width="32.0" x="442.0" y="143"></rect><text x="458.0" y="158">WS</text></g><path d="M 836.0 154 a 10 10 0 0 0 10 -10 v -70 a 10 10 0 0 0 -10 -10"></path></g><path d="M 846.0 64 h 20"></path></g><g class="non-terminal ">
<path d="M 50.0 28 h 0.0"></path><path d="M 123.0 28 h 0.0"></path><text class="comment" x="86.5" y="33">char.link</text></g></g><path d="M 866.0 64 h 10"></path><path d="M 876.0 64 h 20 m 0 -10 v 20"></path></g></svg>