<svg class="railroad-diagram" height="269" viewBox="0 0 551.0 269" width="551.0" xmlns="http://www.w3.org/2000/svg" xmlns:xlink="http://www.w3.org/1999/xlink">
<g transform="translate(.5 .5)">
<style>/* <![CDATA[ */

    svg.railroad-diagram {
        background-color: hsl(30,20%,95%);
    }
    svg.railroad-diagram path {
        stroke-width: 2;
        stroke: black;
        fill: none;
    }
    svg.railroad-diagram text {
        font-size: 12px;
        text-anchor: middle;
        font-family: DejaVu Sans;
    }
    svg.railroad-diagram text.label {
        text-anchor:start;
    }
    svg.railroad-diagram text.comment {
        font-family: DejaVu Sans;
        font-size: 14px;
    }
    svg.railroad-diagram rect{
        stroke-width: 2;
        stroke: black;
        fill: rgb(210, 210, 255);
    }
    svg.railroad-diagram rect.group-box {
        stroke: gray;
        stroke-dasharray: 10 5;
        fill: none;
    }
    .terminal {
        font-family: DejaVu Sans;
    }
    svg.railroad-diagram g.altterminal rect {
        fill: rgb(251, 252, 207)
    }

/* ]]> */
</style><g>
<path d="M 20 20 v 20 m 0 -10 h 20"></path></g><path d="M 40 30 h 10"></path><g>
<path d="M 50 30 h 0.0"></path><path d="M 501.0 30 h 0.0"></path><g>
<path d="M 50.0 30 h 0.0"></path><path d="M 501.0 30 h 0.0"></path><path d="M 50.0 30 h 20"></path><g>
<path d="M 70.0 30 h 411.0"></path></g><path d="M 481.0 30 h 20"></path><path d="M 50.0 30 a 10 10 0 0 1 10 10 v 0 a 10 10 0 0 0 10 10"></path><g>
<path d="M 70.0 50 h 0.0"></path><path d="M 481.0 50 h 0.0"></path><g>
<path d="M 70.0 50 h 0.0"></path><path d="M 481.0 50 h 0.0"></path><path d="M 70.0 50 h 10"></path><g>
<path d="M 80.0 50 h 0.0"></path><path d="M 471.0 50 h 0.0"></path><path d="M 110.0 50 h 10"></path><g>
<path d="M 120.0 50 h 51.0"></path><path d="M 390.0 50 h 51.0"></path><path d="M 171.0 50 h 20"></path><g>
<path d="M 191.0 50 h 179.0"></path></g><path d="M 370.0 50 h 20"></path><path d="M 171.0 50 a 10 10 0 0 1 10 10 v 0 a 10 10 0 0 0 10 10"></path><g>
<path d="M 191.0 70 h 0.0"></path><path d="M 370.0 70 h 0.0"></path><g class="terminal ">
<path d="M 191.0 70 h 0.0"></path><path d="M 296.0 70 h 0.0"></path><rect height="22" rx="10" ry="10" width="105.0" x="191.0" y="59"></rect><text x="243.5" y="74">@link-href</text></g><path d="M 296.0 70 h 10"></path><path d="M 306.0 70 h 10"></path><g class="terminal ">
<path d="M 316.0 70 h 0.0"></path><path d="M 370.0 70 h 0.0"></path><rect height="22" rx="10" ry="10" width="54.0" x="316.0" y="59"></rect><text x="343.0" y="74">TEXT</text></g></g><path d="M 370.0 70 a 10 10 0 0 0 10 -10 v 0 a 10 10 0 0 1 10 -10"></path></g><path d="M 441.0 50 h 10"></path><path d="M 110.0 50 v 49 a 10 10 0 0 0 10 10"></path><g>
<path d="M 120.0 109 h 46.75"></path><path d="M 394.25 109 h 46.75"></path><path d="M 166.75 109 h 20"></path><g>
<path d="M 186.75 109 h 187.5"></path></g><path d="M 374.25 109 h 20"></path><path d="M 166.75 109 a 10 10 0 0 1 10 10 v 0 a 10 10 0 0 0 10 10"></path><g>
<path d="M 186.75 129 h 0.0"></path><path d="M 374.25 129 h 0.0"></path><g class="terminal ">
<path d="M 186.75 129 h 0.0"></path><path d="M 300.25 129 h 0.0"></path><rect height="22" rx="10" ry="10" width="113.5" x="186.75" y="118"></rect><text x="243.5" y="133">@link-title</text></g><path d="M 300.25 129 h 10"></path><path d="M 310.25 129 h 10"></path><g class="terminal ">
<path d="M 320.25 129 h 0.0"></path><path d="M 374.25 129 h 0.0"></path><rect height="22" rx="10" ry="10" width="54.0" x="320.25" y="118"></rect><text x="347.25" y="133">TEXT</text></g></g><path d="M 374.25 129 a 10 10 0 0 0 10 -10 v 0 a 10 10 0 0 1 10 -10"></path></g><path d="M 441.0 109 a 10 10 0 0 0 10 -10 v -39"></path><path d="M 110.0 50 v 108 a 10 10 0 0 0 10 10"></path><g>
<path d="M 120.0 168 h 0.0"></path><path d="M 441.0 168 h 0.0"></path><path d="M 120.0 168 h 20"></path><g>
<path d="M 140.0 168 h 281.0"></path></g><path d="M 421.0 168 h 20"></path><path d="M 120.0 168 a 10 10 0 0 1 10 10 v 0 a 10 10 0 0 0 10 10"></path><g>
<path d="M 140.0 188 h 0.0"></path><path d="M 421.0 188 h 0.0"></path><g class="terminal ">
<path d="M 140.0 188 h 0.0"></path><path d="M 228.0 188 h 0.0"></path><rect height="22" rx="10" ry="10" width="88.0" x="140.0" y="177"></rect><text x="184.0" y="192">@link-id</text></g><path d="M 228.0 188 h 10"></path><path d="M 238.0 188 h 10"></path><g class="terminal ">
<path d="M 248.0 188 h 0.0"></path><path d="M 421.0 188 h 0.0"></path><rect height="22" rx="10" ry="10" width="173.0" x="248.0" y="177"></rect><text x="334.5" y="192">/&#91;\p{L}\d&#95;\-\.:&#93;+/</text></g></g><path d="M 421.0 188 a 10 10 0 0 0 10 -10 v 0 a 10 10 0 0 1 10 -10"></path></g><path d="M 441.0 168 a 10 10 0 0 0 10 -10 v -98"></path><g class="diagram-text">
<title>take one or more branches, once each, in any order</title><path class="diagram-text" d="M 110.0 40 h -26 a 4 4 0 0 0 -4 4 v 12 a 4 4 0 0 0 4 4 h 26 z"></path><text class="diagram-text" x="95.0" y="54">1+</text><path class="diagram-text" d="M 451.0 40 h 16 a 4 4 0 0 1 4 4 v 12 a 4 4 0 0 1 -4 4 h -16 z"></path><text class="diagram-arrow" x="461.0" y="54">↺</text></g></g><path d="M 471.0 50 h 10"></path><path d="M 80.0 50 a 10 10 0 0 0 -10 10 v 158 a 10 10 0 0 0 10 10"></path><g class="terminal ">
<path d="M 80.0 228 h 177.0"></path><path d="M 294.0 228 h 177.0"></path><rect height="22" rx="10" ry="10" width="37.0" x="257.0" y="217"></rect><text x="275.5" y="232">WS</text></g><path d="M 471.0 228 a 10 10 0 0 0 10 -10 v -158 a 10 10 0 0 0 -10 -10"></path></g></g><path d="M 481.0 50 a 10 10 0 0 0 10 -10 v 0 a 10 10 0 0 1 10 -10"></path></g></g><path d="M 501.0 30 h 10"></path><path d="M 511.0 30 h 20 m 0 -10 v 20"></path></g></svg>