<svg class="railroad-diagram" height="171" viewBox="0 0 362 171" width="362" xmlns="http://www.w3.org/2000/svg" xmlns:xlink="http://www.w3.org/1999/xlink">
<g transform="translate(.5 .5)">
<style>/* <![CDATA[ */
    svg.railroad-diagram {
        background-color:hsl(30,20%,95%);
    }
    svg.railroad-diagram path {
        stroke-width: 2;
        stroke: black;
        fill: none;
    }
    svg.railroad-diagram text {
        font-size: 12pt;
        text-anchor: middle;
        font-family: DejaVu Sans;
    }
    svg.railroad-diagram text.label {
        text-anchor:start;
    }
    svg.railroad-diagram text.comment {
        font-family: DejaVu Sans;
        font-size: 15pt;
    }
    svg.railroad-diagram rect{
        stroke-width: 2;
        stroke:black;
        fill: rgb(210, 210, 255);
    }
    svg.railroad-diagram rect.group-box {
        stroke: gray;
        stroke-dasharray: 10 5;
        fill: none;
    }
    .terminal {
        font-family: DejaVu Sans;
    }

/* ]]> */
</style><g>
<path d="M 20 54 v 20 m 0 -10 h 20"></path></g><path d="M 40 64 h 10"></path><g>
<path d="M 50 64 h 0.0"></path><path d="M 312.0 64 h 0.0"></path><rect class="group-box" height="115" rx="10" ry="10" width="262" x="50.0" y="36"></rect><g>
<path d="M 50.0 64 h 0.0"></path><path d="M 312.0 64 h 0.0"></path><path d="M 50.0 64 a 10 10 0 0 0 10 -10 v 0 a 10 10 0 0 1 10 -10"></path><g>
<path d="M 70.0 44 h 222"></path></g><path d="M 292.0 44 a 10 10 0 0 1 10 10 v 0 a 10 10 0 0 0 10 10"></path><path d="M 50.0 64 h 20"></path><g>
<path d="M 70.0 64 h 0.0"></path><path d="M 292.0 64 h 0.0"></path><path d="M 70.0 64 h 10"></path><g>
<path d="M 80.0 64 h 0.0"></path><path d="M 282.0 64 h 0.0"></path><path d="M 80.0 64 h 20"></path><g>
<path d="M 100.0 64 h 3.0"></path><path d="M 259.0 64 h 3.0"></path><g class="terminal ">
<path d="M 103.0 64 h 0.0"></path><path d="M 183.0 64 h 0.0"></path><rect height="22" rx="10" ry="10" width="80" x="103.0" y="53"></rect><text x="143.0" y="68">@link-href</text></g><path d="M 183.0 64 h 10"></path><path d="M 193.0 64 h 10"></path><g class="terminal ">
<path d="M 203.0 64 h 0.0"></path><path d="M 259.0 64 h 0.0"></path><rect height="22" rx="10" ry="10" width="56" x="203.0" y="53"></rect><text x="231.0" y="68">string</text></g></g><path d="M 262.0 64 h 20"></path><path d="M 80.0 64 a 10 10 0 0 1 10 10 v 10 a 10 10 0 0 0 10 10"></path><g>
<path d="M 100.0 94 h 0.0"></path><path d="M 262.0 94 h 0.0"></path><g class="terminal ">
<path d="M 100.0 94 h 0.0"></path><path d="M 186.0 94 h 0.0"></path><rect height="22" rx="10" ry="10" width="86" x="100.0" y="83"></rect><text x="143.0" y="98">@link-title</text></g><path d="M 186.0 94 h 10"></path><path d="M 196.0 94 h 10"></path><g class="terminal ">
<path d="M 206.0 94 h 0.0"></path><path d="M 262.0 94 h 0.0"></path><rect height="22" rx="10" ry="10" width="56" x="206.0" y="83"></rect><text x="234.0" y="98">string</text></g></g><path d="M 262.0 94 a 10 10 0 0 0 10 -10 v -10 a 10 10 0 0 1 10 -10"></path><path d="M 80.0 64 a 10 10 0 0 1 10 10 v 40 a 10 10 0 0 0 10 10"></path><g>
<path d="M 100.0 124 h 9.0"></path><path d="M 253.0 124 h 9.0"></path><g class="terminal ">
<path d="M 109.0 124 h 0.0"></path><path d="M 177.0 124 h 0.0"></path><rect height="22" rx="10" ry="10" width="68" x="109.0" y="113"></rect><text x="143.0" y="128">@link-id</text></g><path d="M 177.0 124 h 10"></path><path d="M 187.0 124 h 10"></path><g class="terminal ">
<path d="M 197.0 124 h 0.0"></path><path d="M 253.0 124 h 0.0"></path><rect height="22" rx="10" ry="10" width="56" x="197.0" y="113"></rect><text x="225.0" y="128">string</text></g></g><path d="M 262.0 124 a 10 10 0 0 0 10 -10 v -40 a 10 10 0 0 1 10 -10"></path></g><path d="M 282.0 64 h 10"></path><path d="M 80.0 64 a 10 10 0 0 0 -10 10 v 59 a 10 10 0 0 0 10 10"></path><g>
<path d="M 80.0 143 h 202"></path></g><path d="M 282.0 143 a 10 10 0 0 0 10 -10 v -59 a 10 10 0 0 0 -10 -10"></path></g><path d="M 292.0 64 h 20"></path></g><g class="non-terminal ">
<path d="M 50.0 28 h 0.0"></path><path d="M 123.0 28 h 0.0"></path><text class="comment" x="86.5" y="33">char.link</text></g></g><path d="M 312 64 h 10"></path><path d="M 322 64 h 20 m 0 -10 v 20"></path></g></svg>