<svg class="railroad-diagram" height="71" viewBox="0 0 1564.5 71" width="1564.5" xmlns="http://www.w3.org/2000/svg" xmlns:xlink="http://www.w3.org/1999/xlink">
<g transform="translate(.5 .5)">
<style>/* <![CDATA[ */
    svg.railroad-diagram {
        background-color:hsl(30,20%,95%);
    }
    svg.railroad-diagram path {
        stroke-width: 2;
        stroke: black;
        fill: none;
    }
    svg.railroad-diagram text {
        font-size: 12px;
        text-anchor: middle;
        font-family: DejaVu Sans;
    }
    svg.railroad-diagram text.label {
        text-anchor:start;
    }
    svg.railroad-diagram text.comment {
        font-family: DejaVu Sans;
        font-size: 14px;
    }
    svg.railroad-diagram rect{
        stroke-width: 2;
        stroke:black;
        fill: rgb(210, 210, 255);
    }
    svg.railroad-diagram rect.group-box {
        stroke: gray;
        stroke-dasharray: 10 5;
        fill: none;
    }
    .terminal {
        font-family: DejaVu Sans;
    }

/* ]]> */
</style><g>
<path d="M 20 30 v 20 m 0 -10 h 20"></path></g><path d="M 40 40 h 10"></path><g>
<path d="M 50 40 h 0.0"></path><path d="M 1514.5 40 h 0.0"></path><g>
<path d="M 50.0 40 h 0.0"></path><path d="M 949.0 40 h 0.0"></path><path d="M 50.0 40 a 10 10 0 0 0 10 -10 v 0 a 10 10 0 0 1 10 -10"></path><g>
<path d="M 70.0 20 h 859.0"></path></g><path d="M 929.0 20 a 10 10 0 0 1 10 10 v 0 a 10 10 0 0 0 10 10"></path><path d="M 50.0 40 h 20"></path><g>
<path d="M 70.0 40 h 0.0"></path><path d="M 929.0 40 h 0.0"></path><g class="terminal ">
<path d="M 70.0 40 h 0.0"></path><path d="M 183.5 40 h 0.0"></path><rect height="22" rx="10" ry="10" width="113.5" x="70.0" y="29"></rect><text x="126.75" y="44">@link-href?</text></g><path d="M 183.5 40 h 10"></path><path d="M 193.5 40 h 10"></path><g class="terminal ">
<path d="M 203.5 40 h 0.0"></path><path d="M 929.0 40 h 0.0"></path><rect height="22" rx="10" ry="10" width="725.5" x="203.5" y="29"></rect><text x="566.25" y="44">/(.&#42;///?(.&#42;/?)+)|((prj:&#91;A-Za-z\-0-9&#93;{3,8} )?&#91;A-Z1-4&#93;{3} \d+:\d+(\-\d+)?)|(#&#91;^\s&#93;+)/</text></g></g><path d="M 929.0 40 h 20"></path></g><g>
<path d="M 949.0 40 h 0.0"></path><path d="M 1185.0 40 h 0.0"></path><path d="M 949.0 40 a 10 10 0 0 0 10 -10 v 0 a 10 10 0 0 1 10 -10"></path><g>
<path d="M 969.0 20 h 196.0"></path></g><path d="M 1165.0 20 a 10 10 0 0 1 10 10 v 0 a 10 10 0 0 0 10 10"></path><path d="M 949.0 40 h 20"></path><g>
<path d="M 969.0 40 h 0.0"></path><path d="M 1165.0 40 h 0.0"></path><g class="terminal ">
<path d="M 969.0 40 h 0.0"></path><path d="M 1091.0 40 h 0.0"></path><rect height="22" rx="10" ry="10" width="122.0" x="969.0" y="29"></rect><text x="1030.0" y="44">@link-title?</text></g><path d="M 1091.0 40 h 10"></path><path d="M 1101.0 40 h 10"></path><g class="terminal ">
<path d="M 1111.0 40 h 0.0"></path><path d="M 1165.0 40 h 0.0"></path><rect height="22" rx="10" ry="10" width="54.0" x="1111.0" y="29"></rect><text x="1138.0" y="44">text</text></g></g><path d="M 1165.0 40 h 20"></path></g><g>
<path d="M 1185.0 40 h 0.0"></path><path d="M 1514.5 40 h 0.0"></path><path d="M 1185.0 40 a 10 10 0 0 0 10 -10 v 0 a 10 10 0 0 1 10 -10"></path><g>
<path d="M 1205.0 20 h 289.5"></path></g><path d="M 1494.5 20 a 10 10 0 0 1 10 10 v 0 a 10 10 0 0 0 10 10"></path><path d="M 1185.0 40 h 20"></path><g>
<path d="M 1205.0 40 h 0.0"></path><path d="M 1494.5 40 h 0.0"></path><g class="terminal ">
<path d="M 1205.0 40 h 0.0"></path><path d="M 1301.5 40 h 0.0"></path><rect height="22" rx="10" ry="10" width="96.5" x="1205.0" y="29"></rect><text x="1253.25" y="44">@link-id?</text></g><path d="M 1301.5 40 h 10"></path><path d="M 1311.5 40 h 10"></path><g class="terminal ">
<path d="M 1321.5 40 h 0.0"></path><path d="M 1494.5 40 h 0.0"></path><rect height="22" rx="10" ry="10" width="173.0" x="1321.5" y="29"></rect><text x="1408.0" y="44">/&#91;\p{L}\d&#95;\-\.:&#93;+/</text></g></g><path d="M 1494.5 40 h 20"></path></g></g><path d="M 1514.5 40 h 10"></path><path d="M 1524.5 40 h 20 m 0 -10 v 20"></path></g></svg>