<svg class="railroad-diagram" height="171" viewBox="0 0 322.0 171" width="322.0" xmlns="http://www.w3.org/2000/svg" xmlns:xlink="http://www.w3.org/1999/xlink">
<g transform="translate(.5 .5)">
<style>/* <![CDATA[ */
    svg.railroad-diagram {
        background-color:hsl(30,20%,95%);
    }
    svg.railroad-diagram path {
        stroke-width: 2;
        stroke: black;
        fill: none;
    }
    svg.railroad-diagram text {
        font-size: 12px;
        text-anchor: middle;
        font-family: DejaVu Sans;
    }
    svg.railroad-diagram text.label {
        text-anchor:start;
    }
    svg.railroad-diagram text.comment {
        font-family: DejaVu Sans;
        font-size: 14px;
    }
    svg.railroad-diagram rect{
        stroke-width: 2;
        stroke:black;
        fill: rgb(210, 210, 255);
    }
    svg.railroad-diagram rect.group-box {
        stroke: gray;
        stroke-dasharray: 10 5;
        fill: none;
    }
    .terminal {
        font-family: DejaVu Sans;
    }

/* ]]> */
</style><g>
<path d="M 20 54 v 20 m 0 -10 h 20"></path></g><path d="M 40 64 h 10"></path><g>
<path d="M 50 64 h 0.0"></path><path d="M 272.0 64 h 0.0"></path><rect class="group-box" height="115" rx="10" ry="10" width="222.0" x="50.0" y="36"></rect><g>
<path d="M 50.0 64 h 0.0"></path><path d="M 272.0 64 h 0.0"></path><path d="M 50.0 64 a 10 10 0 0 0 10 -10 v 0 a 10 10 0 0 1 10 -10"></path><g>
<path d="M 70.0 44 h 182.0"></path></g><path d="M 252.0 44 a 10 10 0 0 1 10 10 v 0 a 10 10 0 0 0 10 10"></path><path d="M 50.0 64 h 20"></path><g>
<path d="M 70.0 64 h 0.0"></path><path d="M 252.0 64 h 0.0"></path><path d="M 70.0 64 h 10"></path><g>
<path d="M 80.0 64 h 0.0"></path><path d="M 242.0 64 h 0.0"></path><path d="M 80.0 64 h 20"></path><g>
<path d="M 100.0 64 h 4.25"></path><path d="M 217.75 64 h 4.25"></path><g class="terminal ">
<path d="M 104.25 64 h 0.0"></path><path d="M 217.75 64 h 0.0"></path><rect height="22" rx="10" ry="10" width="113.5" x="104.25" y="53"></rect><text x="161.0" y="68">@link-href?</text></g></g><path d="M 222.0 64 h 20"></path><path d="M 80.0 64 a 10 10 0 0 1 10 10 v 10 a 10 10 0 0 0 10 10"></path><g>
<path d="M 100.0 94 h 0.0"></path><path d="M 222.0 94 h 0.0"></path><g class="terminal ">
<path d="M 100.0 94 h 0.0"></path><path d="M 222.0 94 h 0.0"></path><rect height="22" rx="10" ry="10" width="122.0" x="100.0" y="83"></rect><text x="161.0" y="98">@link-title?</text></g></g><path d="M 222.0 94 a 10 10 0 0 0 10 -10 v -10 a 10 10 0 0 1 10 -10"></path><path d="M 80.0 64 a 10 10 0 0 1 10 10 v 40 a 10 10 0 0 0 10 10"></path><g>
<path d="M 100.0 124 h 12.75"></path><path d="M 209.25 124 h 12.75"></path><g class="terminal ">
<path d="M 112.75 124 h 0.0"></path><path d="M 209.25 124 h 0.0"></path><rect height="22" rx="10" ry="10" width="96.5" x="112.75" y="113"></rect><text x="161.0" y="128">@link-id?</text></g></g><path d="M 222.0 124 a 10 10 0 0 0 10 -10 v -40 a 10 10 0 0 1 10 -10"></path></g><path d="M 242.0 64 h 10"></path><path d="M 80.0 64 a 10 10 0 0 0 -10 10 v 59 a 10 10 0 0 0 10 10"></path><g>
<path d="M 80.0 143 h 162.0"></path></g><path d="M 242.0 143 a 10 10 0 0 0 10 -10 v -59 a 10 10 0 0 0 -10 -10"></path></g><path d="M 252.0 64 h 20"></path></g><g class="non-terminal ">
<path d="M 50.0 28 h 0.0"></path><path d="M 123.0 28 h 0.0"></path><text class="comment" x="86.5" y="33">char.link</text></g></g><path d="M 272.0 64 h 10"></path><path d="M 282.0 64 h 20 m 0 -10 v 20"></path></g></svg>