<svg class="railroad-diagram" height="250" viewBox="0 0 1243.0 250" width="1243.0" xmlns="http://www.w3.org/2000/svg" xmlns:xlink="http://www.w3.org/1999/xlink">
<g transform="translate(.5 .5)">
<style>/* <![CDATA[ */

    svg.railroad-diagram {
        background-color:hsl(30,20%,95%);
    }
    svg.railroad-diagram path {
        stroke-width: 2;
        stroke: black;
        fill: none;
    }
    svg.railroad-diagram text {
        font-size: 12px;
        text-anchor: middle;
        font-family: DejaVu Sans;
    }
    svg.railroad-diagram text.label {
        text-anchor:start;
    }
    svg.railroad-diagram text.comment {
        font-family: DejaVu Sans;
        font-size: 14px;
    }
    svg.railroad-diagram rect{
        stroke-width: 2;
        stroke:black;
        fill: rgb(210, 255, 210);
    }
    svg.railroad-diagram rect.group-box {
        stroke: gray;
        stroke-dasharray: 10 5;
        fill: none;
    }
    .terminal {
        font-family: DejaVu Sans;
    }

/* ]]> */
</style><g>
<path d="M 20 31 v 20 m 0 -10 h 20"></path></g><path d="M 40 41 h 10"></path><g>
<path d="M 50 41 h 0.0"></path><path d="M 1193.0 41 h 0.0"></path><g>
<path d="M 50.0 41 h 0.0"></path><path d="M 144.0 41 h 0.0"></path><path d="M 50.0 41 h 20"></path><g class="terminal ">
<path d="M 70.0 41 h 4.25"></path><path d="M 119.75 41 h 4.25"></path><rect height="22" rx="10" ry="10" width="45.5" x="74.25" y="30"></rect><text x="97.0" y="45">'|'</text></g><path d="M 124.0 41 h 20"></path><path d="M 50.0 41 a 10 10 0 0 1 10 10 v 10 a 10 10 0 0 0 10 10"></path><g class="terminal ">
<path d="M 70.0 71 h 0.0"></path><path d="M 124.0 71 h 0.0"></path><rect height="22" rx="10" ry="10" width="54.0" x="70.0" y="60"></rect><text x="97.0" y="75">PIPE</text></g><path d="M 124.0 71 a 10 10 0 0 0 10 -10 v -10 a 10 10 0 0 1 10 -10"></path></g><path d="M 144.0 41 h 10"></path><path d="M 154.0 41 h 10"></path><g>
<path d="M 164.0 41 h 0.0"></path><path d="M 1193.0 41 h 0.0"></path><path d="M 164.0 41 h 10"></path><g>
<path d="M 174.0 41 h 0.0"></path><path d="M 1183.0 41 h 0.0"></path><path d="M 204.0 41 h 10"></path><g>
<path d="M 214.0 41 h 0.0"></path><path d="M 1153.0 41 h 0.0"></path><path d="M 214.0 41 h 20"></path><g>
<path d="M 234.0 41 h 899.0"></path></g><path d="M 1133.0 41 h 20"></path><path d="M 214.0 41 a 10 10 0 0 1 10 10 v 0 a 10 10 0 0 0 10 10"></path><g>
<path d="M 234.0 61 h 0.0"></path><path d="M 1133.0 61 h 0.0"></path><g class="terminal ">
<path d="M 234.0 61 h 0.0"></path><path d="M 322.0 61 h 0.0"></path><rect height="22" rx="10" ry="10" width="88.0" x="234.0" y="50"></rect><text x="278.0" y="65">'href="'</text></g><path d="M 322.0 61 h 10"></path><path d="M 332.0 61 h 10"></path><g class="terminal ">
<path d="M 342.0 61 h 0.0"></path><path d="M 1067.5 61 h 0.0"></path><rect height="22" rx="10" ry="10" width="725.5" x="342.0" y="50"></rect><text x="704.75" y="65">/(.&#42;///?(.&#42;/?)+)|((prj:&#91;A-Za-z\-0-9&#93;{3,8} )?&#91;A-Z1-4&#93;{3} \d+:\d+(\-\d+)?)|(#&#91;^\s&#93;+)/</text></g><path d="M 1067.5 61 h 10"></path><path d="M 1077.5 61 h 10"></path><g class="terminal ">
<path d="M 1087.5 61 h 0.0"></path><path d="M 1133.0 61 h 0.0"></path><rect height="22" rx="10" ry="10" width="45.5" x="1087.5" y="50"></rect><text x="1110.25" y="65">'"'</text></g></g><path d="M 1133.0 61 a 10 10 0 0 0 10 -10 v 0 a 10 10 0 0 1 10 -10"></path></g><path d="M 1153.0 41 h 10"></path><path d="M 204.0 41 v 49 a 10 10 0 0 0 10 10"></path><g>
<path d="M 214.0 100 h 331.5"></path><path d="M 821.5 100 h 331.5"></path><path d="M 545.5 100 h 20"></path><g>
<path d="M 565.5 100 h 236.0"></path></g><path d="M 801.5 100 h 20"></path><path d="M 545.5 100 a 10 10 0 0 1 10 10 v 0 a 10 10 0 0 0 10 10"></path><g>
<path d="M 565.5 120 h 0.0"></path><path d="M 801.5 120 h 0.0"></path><g class="terminal ">
<path d="M 565.5 120 h 0.0"></path><path d="M 662.0 120 h 0.0"></path><rect height="22" rx="10" ry="10" width="96.5" x="565.5" y="109"></rect><text x="613.75" y="124">'title="'</text></g><path d="M 662.0 120 h 10"></path><path d="M 672.0 120 h 10"></path><g class="terminal ">
<path d="M 682.0 120 h 0.0"></path><path d="M 736.0 120 h 0.0"></path><rect height="22" rx="10" ry="10" width="54.0" x="682.0" y="109"></rect><text x="709.0" y="124">TEXT</text></g><path d="M 736.0 120 h 10"></path><path d="M 746.0 120 h 10"></path><g class="terminal ">
<path d="M 756.0 120 h 0.0"></path><path d="M 801.5 120 h 0.0"></path><rect height="22" rx="10" ry="10" width="45.5" x="756.0" y="109"></rect><text x="778.75" y="124">'"'</text></g></g><path d="M 801.5 120 a 10 10 0 0 0 10 -10 v 0 a 10 10 0 0 1 10 -10"></path></g><path d="M 1153.0 100 a 10 10 0 0 0 10 -10 v -39"></path><path d="M 204.0 41 v 108 a 10 10 0 0 0 10 10"></path><g>
<path d="M 214.0 159 h 284.75"></path><path d="M 868.25 159 h 284.75"></path><path d="M 498.75 159 h 20"></path><g>
<path d="M 518.75 159 h 329.5"></path></g><path d="M 848.25 159 h 20"></path><path d="M 498.75 159 a 10 10 0 0 1 10 10 v 0 a 10 10 0 0 0 10 10"></path><g>
<path d="M 518.75 179 h 0.0"></path><path d="M 848.25 179 h 0.0"></path><g class="terminal ">
<path d="M 518.75 179 h 0.0"></path><path d="M 589.75 179 h 0.0"></path><rect height="22" rx="10" ry="10" width="71.0" x="518.75" y="168"></rect><text x="554.25" y="183">'id="'</text></g><path d="M 589.75 179 h 10"></path><path d="M 599.75 179 h 10"></path><g class="terminal ">
<path d="M 609.75 179 h 0.0"></path><path d="M 782.75 179 h 0.0"></path><rect height="22" rx="10" ry="10" width="173.0" x="609.75" y="168"></rect><text x="696.25" y="183">/&#91;\p{L}\d&#95;\-\.:&#93;+/</text></g><path d="M 782.75 179 h 10"></path><path d="M 792.75 179 h 10"></path><g class="terminal ">
<path d="M 802.75 179 h 0.0"></path><path d="M 848.25 179 h 0.0"></path><rect height="22" rx="10" ry="10" width="45.5" x="802.75" y="168"></rect><text x="825.5" y="183">'"'</text></g></g><path d="M 848.25 179 a 10 10 0 0 0 10 -10 v 0 a 10 10 0 0 1 10 -10"></path></g><path d="M 1153.0 159 a 10 10 0 0 0 10 -10 v -98"></path><g class="diagram-text">
<title>take one or more branches, once each, in any order</title><path class="diagram-text" d="M 204.0 31 h -26 a 4 4 0 0 0 -4 4 v 12 a 4 4 0 0 0 4 4 h 26 z"></path><text class="diagram-text" x="189.0" y="45">1+</text><path class="diagram-text" d="M 1163.0 31 h 16 a 4 4 0 0 1 4 4 v 12 a 4 4 0 0 1 -4 4 h -16 z"></path><text class="diagram-arrow" x="1173.0" y="45">↺</text></g></g><path d="M 1183.0 41 h 10"></path><path d="M 174.0 41 a 10 10 0 0 0 -10 10 v 158 a 10 10 0 0 0 10 10"></path><g class="terminal ">
<path d="M 174.0 219 h 486.0"></path><path d="M 697.0 219 h 486.0"></path><rect height="22" rx="10" ry="10" width="37.0" x="660.0" y="208"></rect><text x="678.5" y="223">WS</text></g><path d="M 1183.0 219 a 10 10 0 0 0 10 -10 v -158 a 10 10 0 0 0 -10 -10"></path></g></g><path d="M 1193.0 41 h 10"></path><path d="M 1203.0 41 h 20 m 0 -10 v 20"></path></g></svg>