<svg class="railroad-diagram" height="154" viewBox="0 0 358.0 154" width="358.0" xmlns="http://www.w3.org/2000/svg" xmlns:xlink="http://www.w3.org/1999/xlink">
<g transform="translate(.5 .5)">
<style>/* <![CDATA[ */
    svg.railroad-diagram {
        background-color:hsl(30,20%,95%);
    }
    svg.railroad-diagram path {
        stroke-width: 2;
        stroke: black;
        fill: none;
    }
    svg.railroad-diagram text {
        font-size: 12px;
        text-anchor: middle;
        font-family: DejaVu Sans;
    }
    svg.railroad-diagram text.label {
        text-anchor:start;
    }
    svg.railroad-diagram text.comment {
        font-family: DejaVu Sans;
        font-size: 14px;
    }
    svg.railroad-diagram rect{
        stroke-width: 2;
        stroke:black;
        fill: rgb(210, 210, 255);
    }
    svg.railroad-diagram rect.group-box {
        stroke: gray;
        stroke-dasharray: 10 5;
        fill: none;
    }
    .terminal {
        font-family: DejaVu Sans;
    }

/* ]]> */
</style><g>
<path d="M 20 45 v 20 m 0 -10 h 20"></path></g><path d="M 40 55 h 10"></path><g>
<path d="M 50 55 h 0.0"></path><path d="M 308.0 55 h 0.0"></path><rect class="group-box" height="98" rx="10" ry="10" width="258.0" x="50.0" y="36"></rect><g>
<path d="M 50.0 55 h 10.0"></path><path d="M 298.0 55 h 10.0"></path><path d="M 90.0 55 h 10"></path><g>
<path d="M 100.0 55 h 0.0"></path><path d="M 268.0 55 h 0.0"></path><g class="terminal ">
<path d="M 100.0 55 h 0.0"></path><path d="M 192.0 55 h 0.0"></path><rect height="22" rx="10" ry="10" width="92.0" x="100.0" y="44"></rect><text x="146.0" y="59">@link-title?</text></g><path d="M 192.0 55 h 10"></path><path d="M 202.0 55 h 10"></path><g class="terminal ">
<path d="M 212.0 55 h 0.0"></path><path d="M 268.0 55 h 0.0"></path><rect height="22" rx="10" ry="10" width="56.0" x="212.0" y="44"></rect><text x="240.0" y="59">string</text></g></g><path d="M 268.0 55 h 10"></path><path d="M 90.0 55 v 20 a 10 10 0 0 0 10 10"></path><g>
<path d="M 100.0 85 h 9.0"></path><path d="M 259.0 85 h 9.0"></path><g class="terminal ">
<path d="M 109.0 85 h 0.0"></path><path d="M 183.0 85 h 0.0"></path><rect height="22" rx="10" ry="10" width="74.0" x="109.0" y="74"></rect><text x="146.0" y="89">@link-id?</text></g><path d="M 183.0 85 h 10"></path><path d="M 193.0 85 h 10"></path><g class="terminal ">
<path d="M 203.0 85 h 0.0"></path><path d="M 259.0 85 h 0.0"></path><rect height="22" rx="10" ry="10" width="56.0" x="203.0" y="74"></rect><text x="231.0" y="89">string</text></g></g><path d="M 268.0 85 a 10 10 0 0 0 10 -10 v -10"></path><path d="M 90.0 55 v 50 a 10 10 0 0 0 10 10"></path><g>
<path d="M 100.0 115 h 3.0"></path><path d="M 265.0 115 h 3.0"></path><g class="terminal ">
<path d="M 103.0 115 h 0.0"></path><path d="M 189.0 115 h 0.0"></path><rect height="22" rx="10" ry="10" width="86.0" x="103.0" y="104"></rect><text x="146.0" y="119">@link-href?</text></g><path d="M 189.0 115 h 10"></path><path d="M 199.0 115 h 10"></path><g class="terminal ">
<path d="M 209.0 115 h 0.0"></path><path d="M 265.0 115 h 0.0"></path><rect height="22" rx="10" ry="10" width="56.0" x="209.0" y="104"></rect><text x="237.0" y="119">string</text></g></g><path d="M 268.0 115 a 10 10 0 0 0 10 -10 v -40"></path><g class="diagram-text">
<title>take all branches, once each, in any order</title><path class="diagram-text" d="M 90.0 45 h -26 a 4 4 0 0 0 -4 4 v 12 a 4 4 0 0 0 4 4 h 26 z"></path><text class="diagram-text" x="75.0" y="59">all</text><path class="diagram-text" d="M 278.0 45 h 16 a 4 4 0 0 1 4 4 v 12 a 4 4 0 0 1 -4 4 h -16 z"></path><text class="diagram-arrow" x="288.0" y="59">↺</text></g></g><g class="non-terminal ">
<path d="M 50.0 28 h 0.0"></path><path d="M 123.0 28 h 0.0"></path><text class="comment" x="86.5" y="33">char.link</text></g></g><path d="M 308.0 55 h 10"></path><path d="M 318.0 55 h 20 m 0 -10 v 20"></path></g></svg>