<svg class="railroad-diagram" height="278" viewBox="0 0 798.5 278" width="798.5" xmlns="http://www.w3.org/2000/svg" xmlns:xlink="http://www.w3.org/1999/xlink">
<g transform="translate(.5 .5)">
<style>/* <![CDATA[ */

    svg.railroad-diagram {
        background-color: hsl(30,20%,95%);
    }
    svg.railroad-diagram path {
        stroke-width: 2;
        stroke: black;
        fill: none;
    }
    svg.railroad-diagram text {
        font-size: 12px;
        text-anchor: middle;
        font-family: DejaVu Sans;
    }
    svg.railroad-diagram text.label {
        text-anchor:start;
    }
    svg.railroad-diagram text.comment {
        font-family: DejaVu Sans;
        font-size: 14px;
    }
    svg.railroad-diagram rect{
        stroke-width: 2;
        stroke: black;
        fill: rgb(210, 255, 210);
    }
    svg.railroad-diagram rect.group-box {
        stroke: gray;
        stroke-dasharray: 10 5;
        fill: none;
    }
    .terminal {
        font-family: DejaVu Sans;
    }
    svg.railroad-diagram g.altterminal rect {
        fill: rgb(251, 252, 207)
    }

/* ]]> */
</style><g>
<path d="M 20 20 v 20 m 0 -10 h 20"></path></g><path d="M 40 30 h 10"></path><g>
<path d="M 50 30 h 0.0"></path><path d="M 748.5 30 h 0.0"></path><g>
<path d="M 50.0 30 h 0.0"></path><path d="M 748.5 30 h 0.0"></path><path d="M 50.0 30 h 20"></path><g>
<path d="M 70.0 30 h 658.5"></path></g><path d="M 728.5 30 h 20"></path><path d="M 50.0 30 a 10 10 0 0 1 10 10 v 9 a 10 10 0 0 0 10 10"></path><g>
<path d="M 70.0 59 h 0.0"></path><path d="M 728.5 59 h 0.0"></path><g>
<path d="M 70.0 59 h 0.0"></path><path d="M 164.0 59 h 0.0"></path><path d="M 70.0 59 h 20"></path><g class="terminal ">
<path d="M 90.0 59 h 4.25"></path><path d="M 139.75 59 h 4.25"></path><rect height="22" rx="10" ry="10" width="45.5" x="94.25" y="48"></rect><text x="117.0" y="63">'|'</text></g><path d="M 144.0 59 h 20"></path><path d="M 70.0 59 a 10 10 0 0 1 10 10 v 10 a 10 10 0 0 0 10 10"></path><g class="terminal altterminal">
<path d="M 90.0 89 h 0.0"></path><path d="M 144.0 89 h 0.0"></path><rect height="22" rx="10" ry="10" width="54.0" x="90.0" y="78"></rect><text x="117.0" y="93">PIPE</text></g><path d="M 144.0 89 a 10 10 0 0 0 10 -10 v -10 a 10 10 0 0 1 10 -10"></path></g><path d="M 164.0 59 h 10"></path><path d="M 174.0 59 h 10"></path><g>
<path d="M 184.0 59 h 0.0"></path><path d="M 728.5 59 h 0.0"></path><path d="M 184.0 59 h 10"></path><g>
<path d="M 194.0 59 h 0.0"></path><path d="M 718.5 59 h 0.0"></path><path d="M 224.0 59 h 10"></path><g>
<path d="M 234.0 59 h 51.0"></path><path d="M 637.5 59 h 51.0"></path><path d="M 285.0 59 h 20"></path><g>
<path d="M 305.0 59 h 312.5"></path></g><path d="M 617.5 59 h 20"></path><path d="M 285.0 59 a 10 10 0 0 1 10 10 v 0 a 10 10 0 0 0 10 10"></path><g>
<path d="M 305.0 79 h 0.0"></path><path d="M 617.5 79 h 0.0"></path><g class="terminal ">
<path d="M 305.0 79 h 0.0"></path><path d="M 435.5 79 h 0.0"></path><rect height="22" rx="10" ry="10" width="130.5" x="305.0" y="68"></rect><text x="370.25" y="83">'link-href="'</text></g><path d="M 435.5 79 h 10"></path><path d="M 445.5 79 h 10"></path><g class="terminal ">
<path d="M 455.5 79 h 0.0"></path><path d="M 509.5 79 h 0.0"></path><rect height="22" rx="10" ry="10" width="54.0" x="455.5" y="68"></rect><text x="482.5" y="83">HREF</text></g><path d="M 509.5 79 h 10"></path><path d="M 519.5 79 h 10"></path><g class="terminal ">
<path d="M 529.5 79 h 0.0"></path><path d="M 617.5 79 h 0.0"></path><rect height="22" rx="10" ry="10" width="88.0" x="529.5" y="68"></rect><text x="573.5" y="83">/&#91;"&#93;\s&#42;/</text></g></g><path d="M 617.5 79 a 10 10 0 0 0 10 -10 v 0 a 10 10 0 0 1 10 -10"></path></g><path d="M 688.5 59 h 10"></path><path d="M 224.0 59 v 49 a 10 10 0 0 0 10 10"></path><g>
<path d="M 234.0 118 h 46.75"></path><path d="M 641.75 118 h 46.75"></path><path d="M 280.75 118 h 20"></path><g>
<path d="M 300.75 118 h 321.0"></path></g><path d="M 621.75 118 h 20"></path><path d="M 280.75 118 a 10 10 0 0 1 10 10 v 0 a 10 10 0 0 0 10 10"></path><g>
<path d="M 300.75 138 h 0.0"></path><path d="M 621.75 138 h 0.0"></path><g class="terminal ">
<path d="M 300.75 138 h 0.0"></path><path d="M 439.75 138 h 0.0"></path><rect height="22" rx="10" ry="10" width="139.0" x="300.75" y="127"></rect><text x="370.25" y="142">'link-title="'</text></g><path d="M 439.75 138 h 10"></path><path d="M 449.75 138 h 10"></path><g class="terminal ">
<path d="M 459.75 138 h 0.0"></path><path d="M 513.75 138 h 0.0"></path><rect height="22" rx="10" ry="10" width="54.0" x="459.75" y="127"></rect><text x="486.75" y="142">TEXT</text></g><path d="M 513.75 138 h 10"></path><path d="M 523.75 138 h 10"></path><g class="terminal ">
<path d="M 533.75 138 h 0.0"></path><path d="M 621.75 138 h 0.0"></path><rect height="22" rx="10" ry="10" width="88.0" x="533.75" y="127"></rect><text x="577.75" y="142">/&#91;"&#93;\s&#42;/</text></g></g><path d="M 621.75 138 a 10 10 0 0 0 10 -10 v 0 a 10 10 0 0 1 10 -10"></path></g><path d="M 688.5 118 a 10 10 0 0 0 10 -10 v -39"></path><path d="M 224.0 59 v 108 a 10 10 0 0 0 10 10"></path><g>
<path d="M 234.0 177 h 0.0"></path><path d="M 688.5 177 h 0.0"></path><path d="M 234.0 177 h 20"></path><g>
<path d="M 254.0 177 h 414.5"></path></g><path d="M 668.5 177 h 20"></path><path d="M 234.0 177 a 10 10 0 0 1 10 10 v 0 a 10 10 0 0 0 10 10"></path><g>
<path d="M 254.0 197 h 0.0"></path><path d="M 668.5 197 h 0.0"></path><g class="terminal ">
<path d="M 254.0 197 h 0.0"></path><path d="M 367.5 197 h 0.0"></path><rect height="22" rx="10" ry="10" width="113.5" x="254.0" y="186"></rect><text x="310.75" y="201">'link-id="'</text></g><path d="M 367.5 197 h 10"></path><path d="M 377.5 197 h 10"></path><g class="terminal ">
<path d="M 387.5 197 h 0.0"></path><path d="M 560.5 197 h 0.0"></path><rect height="22" rx="10" ry="10" width="173.0" x="387.5" y="186"></rect><text x="474.0" y="201">/&#91;\p{L}\d&#95;\-\.:&#93;+/</text></g><path d="M 560.5 197 h 10"></path><path d="M 570.5 197 h 10"></path><g class="terminal ">
<path d="M 580.5 197 h 0.0"></path><path d="M 668.5 197 h 0.0"></path><rect height="22" rx="10" ry="10" width="88.0" x="580.5" y="186"></rect><text x="624.5" y="201">/&#91;"&#93;\s&#42;/</text></g></g><path d="M 668.5 197 a 10 10 0 0 0 10 -10 v 0 a 10 10 0 0 1 10 -10"></path></g><path d="M 688.5 177 a 10 10 0 0 0 10 -10 v -98"></path><g class="diagram-text">
<title>take one or more branches, once each, in any order</title><path class="diagram-text" d="M 224.0 49 h -26 a 4 4 0 0 0 -4 4 v 12 a 4 4 0 0 0 4 4 h 26 z"></path><text class="diagram-text" x="209.0" y="63">1+</text><path class="diagram-text" d="M 698.5 49 h 16 a 4 4 0 0 1 4 4 v 12 a 4 4 0 0 1 -4 4 h -16 z"></path><text class="diagram-arrow" x="708.5" y="63">↺</text></g></g><path d="M 718.5 59 h 10"></path><path d="M 194.0 59 a 10 10 0 0 0 -10 10 v 158 a 10 10 0 0 0 10 10"></path><g class="terminal ">
<path d="M 194.0 237 h 243.75"></path><path d="M 474.75 237 h 243.75"></path><rect height="22" rx="10" ry="10" width="37.0" x="437.75" y="226"></rect><text x="456.25" y="241">WS</text></g><path d="M 718.5 237 a 10 10 0 0 0 10 -10 v -158 a 10 10 0 0 0 -10 -10"></path></g></g><path d="M 728.5 59 a 10 10 0 0 0 10 -10 v -9 a 10 10 0 0 1 10 -10"></path></g></g><path d="M 748.5 30 h 10"></path><path d="M 758.5 30 h 20 m 0 -10 v 20"></path></g></svg>