<svg class="railroad-diagram" height="193" viewBox="0 0 1454.0 193" width="1454.0" xmlns="http://www.w3.org/2000/svg" xmlns:xlink="http://www.w3.org/1999/xlink">
<g transform="translate(.5 .5)">
<style>/* <![CDATA[ */
    svg.railroad-diagram {
        background-color:hsl(30,20%,95%);
    }
    svg.railroad-diagram path {
        stroke-width: 2;
        stroke: black;
        fill: none;
    }
    svg.railroad-diagram text {
        font-size: 12px;
        text-anchor: middle;
        font-family: DejaVu Sans;
    }
    svg.railroad-diagram text.label {
        text-anchor:start;
    }
    svg.railroad-diagram text.comment {
        font-family: DejaVu Sans;
        font-size: 14px;
    }
    svg.railroad-diagram rect{
        stroke-width: 2;
        stroke:black;
        fill: rgb(210, 255, 210);
    }
    svg.railroad-diagram rect.group-box {
        stroke: gray;
        stroke-dasharray: 10 5;
        fill: none;
    }
    .terminal {
        font-family: DejaVu Sans;
    }

/* ]]> */
</style><g>
<path d="M 20 54 v 20 m 0 -10 h 20"></path></g><path d="M 40 64 h 10"></path><g>
<path d="M 50 64 h 0.0"></path><path d="M 1404.0 64 h 0.0"></path><rect class="group-box" height="137" rx="10" ry="10" width="1354.0" x="50.0" y="36"></rect><g>
<path d="M 50.0 64 h 0.0"></path><path d="M 1404.0 64 h 0.0"></path><path d="M 50.0 64 a 10 10 0 0 0 10 -10 v 0 a 10 10 0 0 1 10 -10"></path><g>
<path d="M 70.0 44 h 1314.0"></path></g><path d="M 1384.0 44 a 10 10 0 0 1 10 10 v 0 a 10 10 0 0 0 10 10"></path><path d="M 50.0 64 h 20"></path><g>
<path d="M 70.0 64 h 0.0"></path><path d="M 1384.0 64 h 0.0"></path><path d="M 70.0 64 h 10"></path><g>
<path d="M 80.0 64 h 0.0"></path><path d="M 1374.0 64 h 0.0"></path><path d="M 80.0 64 h 20"></path><g>
<path d="M 100.0 64 h 0.0"></path><path d="M 1354.0 64 h 0.0"></path><g class="terminal ">
<path d="M 100.0 64 h 0.0"></path><path d="M 162.0 64 h 0.0"></path><rect height="22" rx="10" ry="10" width="62.0" x="100.0" y="53"></rect><text x="131.0" y="68">"href="</text></g><path d="M 162.0 64 h 10"></path><path d="M 172.0 64 h 10"></path><g class="terminal ">
<path d="M 182.0 64 h 0.0"></path><path d="M 220.0 64 h 0.0"></path><rect height="22" rx="10" ry="10" width="38.0" x="182.0" y="53"></rect><text x="201.0" y="68">'"'</text></g><path d="M 220.0 64 h 10"></path><path d="M 230.0 64 h 10"></path><g class="terminal ">
<path d="M 240.0 64 h 0.0"></path><path d="M 758.0 64 h 0.0"></path><rect height="22" rx="10" ry="10" width="518.0" x="240.0" y="53"></rect><text x="499.0" y="68">/(.&#42;///?(.&#42;/?)+)|((prj:&#91;A-Za-z\-0-9&#93;{3,8} )?&#91;A-Z1-4&#93;{3} \d+:\d+(\-\d+)?)|(#&#91;^\s&#93;+)/</text></g><path d="M 758.0 64 h 10"></path><path d="M 768.0 64 h 10"></path><g class="terminal ">
<path d="M 778.0 64 h 0.0"></path><path d="M 816.0 64 h 0.0"></path><rect height="22" rx="10" ry="10" width="38.0" x="778.0" y="53"></rect><text x="797.0" y="68">'"'</text></g><path d="M 816.0 64 h 10"></path><path d="M 826.0 64 h 10"></path><g class="terminal ">
<path d="M 836.0 64 h 0.0"></path><path d="M 1354.0 64 h 0.0"></path><rect height="22" rx="10" ry="10" width="518.0" x="836.0" y="53"></rect><text x="1095.0" y="68">/(.&#42;///?(.&#42;/?)+)|((prj:&#91;A-Za-z\-0-9&#93;{3,8} )?&#91;A-Z1-4&#93;{3} \d+:\d+(\-\d+)?)|(#&#91;^\s&#93;+)/</text></g></g><path d="M 1354.0 64 h 20"></path><path d="M 80.0 64 a 10 10 0 0 1 10 10 v 10 a 10 10 0 0 0 10 10"></path><g>
<path d="M 100.0 94 h 503.0"></path><path d="M 851.0 94 h 503.0"></path><g class="terminal ">
<path d="M 603.0 94 h 0.0"></path><path d="M 671.0 94 h 0.0"></path><rect height="22" rx="10" ry="10" width="68.0" x="603.0" y="83"></rect><text x="637.0" y="98">"title="</text></g><path d="M 671.0 94 h 10"></path><path d="M 681.0 94 h 10"></path><g class="terminal ">
<path d="M 691.0 94 h 0.0"></path><path d="M 729.0 94 h 0.0"></path><rect height="22" rx="10" ry="10" width="38.0" x="691.0" y="83"></rect><text x="710.0" y="98">'"'</text></g><path d="M 729.0 94 h 10"></path><path d="M 739.0 94 h 10"></path><g class="terminal ">
<path d="M 749.0 94 h 0.0"></path><path d="M 793.0 94 h 0.0"></path><rect height="22" rx="10" ry="10" width="44.0" x="749.0" y="83"></rect><text x="771.0" y="98">Text</text></g><path d="M 793.0 94 h 10"></path><path d="M 803.0 94 h 10"></path><g class="terminal ">
<path d="M 813.0 94 h 0.0"></path><path d="M 851.0 94 h 0.0"></path><rect height="22" rx="10" ry="10" width="38.0" x="813.0" y="83"></rect><text x="832.0" y="98">'"'</text></g></g><path d="M 1354.0 94 a 10 10 0 0 0 10 -10 v -10 a 10 10 0 0 1 10 -10"></path><path d="M 80.0 64 a 10 10 0 0 1 10 10 v 40 a 10 10 0 0 0 10 10"></path><g>
<path d="M 100.0 124 h 396.0"></path><path d="M 958.0 124 h 396.0"></path><g class="terminal ">
<path d="M 496.0 124 h 0.0"></path><path d="M 546.0 124 h 0.0"></path><rect height="22" rx="10" ry="10" width="50.0" x="496.0" y="113"></rect><text x="521.0" y="128">"id="</text></g><path d="M 546.0 124 h 10"></path><path d="M 556.0 124 h 10"></path><g class="terminal ">
<path d="M 566.0 124 h 0.0"></path><path d="M 604.0 124 h 0.0"></path><rect height="22" rx="10" ry="10" width="38.0" x="566.0" y="113"></rect><text x="585.0" y="128">'"'</text></g><path d="M 604.0 124 h 10"></path><path d="M 614.0 124 h 10"></path><g class="terminal ">
<path d="M 624.0 124 h 0.0"></path><path d="M 752.0 124 h 0.0"></path><rect height="22" rx="10" ry="10" width="128.0" x="624.0" y="113"></rect><text x="688.0" y="128">/&#91;\p{L}\d&#95;\-\.:&#93;+/</text></g><path d="M 752.0 124 h 10"></path><path d="M 762.0 124 h 10"></path><g class="terminal ">
<path d="M 772.0 124 h 0.0"></path><path d="M 810.0 124 h 0.0"></path><rect height="22" rx="10" ry="10" width="38.0" x="772.0" y="113"></rect><text x="791.0" y="128">'"'</text></g><path d="M 810.0 124 h 10"></path><path d="M 820.0 124 h 10"></path><g class="terminal ">
<path d="M 830.0 124 h 0.0"></path><path d="M 958.0 124 h 0.0"></path><rect height="22" rx="10" ry="10" width="128.0" x="830.0" y="113"></rect><text x="894.0" y="128">/&#91;\p{L}\d&#95;\-\.:&#93;+/</text></g></g><path d="M 1354.0 124 a 10 10 0 0 0 10 -10 v -40 a 10 10 0 0 1 10 -10"></path></g><path d="M 1374.0 64 h 10"></path><path d="M 80.0 64 a 10 10 0 0 0 -10 10 v 70 a 10 10 0 0 0 10 10"></path><g class="terminal ">
<path d="M 80.0 154 h 631.0"></path><path d="M 743.0 154 h 631.0"></path><rect height="22" rx="10" ry="10" width="32.0" x="711.0" y="143"></rect><text x="727.0" y="158">WS</text></g><path d="M 1374.0 154 a 10 10 0 0 0 10 -10 v -70 a 10 10 0 0 0 -10 -10"></path></g><path d="M 1384.0 64 h 20"></path></g><g class="non-terminal ">
<path d="M 50.0 28 h 0.0"></path><path d="M 123.0 28 h 0.0"></path><text class="comment" x="86.5" y="33">char.link</text></g></g><path d="M 1404.0 64 h 10"></path><path d="M 1414.0 64 h 20 m 0 -10 v 20"></path></g></svg>