<svg class="railroad-diagram" height="398" viewBox="0 0 749.0 398" width="749.0" xmlns="http://www.w3.org/2000/svg" xmlns:xlink="http://www.w3.org/1999/xlink">
<g transform="translate(.5 .5)">
<style>/* <![CDATA[ */

    svg.railroad-diagram {
        background-color:hsl(30,20%,95%);
    }
    svg.railroad-diagram path {
        stroke-width: 2;
        stroke: black;
        fill: none;
    }
    svg.railroad-diagram text {
        font-size: 12px;
        text-anchor: middle;
        font-family: DejaVu Sans;
    }
    svg.railroad-diagram text.label {
        text-anchor:start;
    }
    svg.railroad-diagram text.comment {
        font-family: DejaVu Sans;
        font-size: 14px;
    }
    svg.railroad-diagram rect{
        stroke-width: 2;
        stroke:black;
        fill: rgb(210, 255, 210);
    }
    svg.railroad-diagram rect.group-box {
        stroke: gray;
        stroke-dasharray: 10 5;
        fill: none;
    }
    .terminal {
        font-family: DejaVu Sans;
    }

/* ]]> */
</style><g>
<path d="M 20 129 v 20 m 0 -10 h 20"></path></g><path d="M 40 139 h 10"></path><g>
<path d="M 50 139 h 0.0"></path><path d="M 699.0 139 h 0.0"></path><g class="terminal ">
<path d="M 50.0 139 h 0.0"></path><path d="M 95.5 139 h 0.0"></path><rect height="22" rx="10" ry="10" width="45.5" x="50.0" y="128"></rect><text x="72.75" y="143">'\'</text></g><path d="M 95.5 139 h 10"></path><g>
<path d="M 105.5 139 h 0.0"></path><path d="M 399.0 139 h 0.0"></path><path d="M 105.5 139 a 10 10 0 0 0 10 -10 v -99 a 10 10 0 0 1 10 -10 h 112.5"></path><path d="M 258.0 168 h 121.0 a 10 10 0 0 0 10 -10 v -9 a 10 10 0 0 1 10 -10"></path><path d="M 105.5 139 h 10"></path><g>
<path d="M 115.5 139 h 10.0"></path><path d="M 228.0 139 h 10.0"></path><path d="M 125.5 139 a 10 10 0 0 0 10 -10 v -10 a 10 10 0 0 1 10 -10"></path><g class="terminal ">
<path d="M 145.5 109 h 0.0"></path><path d="M 208.0 109 h 0.0"></path><rect height="22" rx="10" ry="10" width="62.5" x="145.5" y="98"></rect><text x="176.75" y="113">"li1"</text></g><path d="M 208.0 109 a 10 10 0 0 1 10 10 v 10 a 10 10 0 0 0 10 10"></path><path d="M 125.5 139 a 10 10 0 0 0 10 -10 v -40 a 10 10 0 0 1 10 -10"></path><g class="terminal ">
<path d="M 145.5 79 h 4.25"></path><path d="M 203.75 79 h 4.25"></path><rect height="22" rx="10" ry="10" width="54.0" x="149.75" y="68"></rect><text x="176.75" y="83">"li"</text></g><path d="M 208.0 79 a 10 10 0 0 1 10 10 v 40 a 10 10 0 0 0 10 10"></path><path d="M 125.5 139 a 10 10 0 0 0 10 -10 v -70 a 10 10 0 0 1 10 -10"></path><g class="terminal ">
<path d="M 145.5 49 h 4.25"></path><path d="M 203.75 49 h 4.25"></path><rect height="22" rx="10" ry="10" width="54.0" x="149.75" y="38"></rect><text x="176.75" y="53">"lh"</text></g><path d="M 208.0 49 a 10 10 0 0 1 10 10 v 70 a 10 10 0 0 0 10 10"></path><path d="M 125.5 139 h 20"></path><g class="terminal ">
<path d="M 145.5 139 h 0.0"></path><path d="M 208.0 139 h 0.0"></path><rect height="22" rx="10" ry="10" width="62.5" x="145.5" y="128"></rect><text x="176.75" y="143">"li2"</text></g><path d="M 208.0 139 h 20"></path><path d="M 125.5 139 a 10 10 0 0 1 10 10 v 10 a 10 10 0 0 0 10 10"></path><g class="terminal ">
<path d="M 145.5 169 h 0.0"></path><path d="M 208.0 169 h 0.0"></path><rect height="22" rx="10" ry="10" width="62.5" x="145.5" y="158"></rect><text x="176.75" y="173">"li3"</text></g><path d="M 208.0 169 a 10 10 0 0 0 10 -10 v -10 a 10 10 0 0 1 10 -10"></path><path d="M 125.5 139 a 10 10 0 0 1 10 10 v 40 a 10 10 0 0 0 10 10"></path><g class="terminal ">
<path d="M 145.5 199 h 0.0"></path><path d="M 208.0 199 h 0.0"></path><rect height="22" rx="10" ry="10" width="62.5" x="145.5" y="188"></rect><text x="176.75" y="203">"li4"</text></g><path d="M 208.0 199 a 10 10 0 0 0 10 -10 v -40 a 10 10 0 0 1 10 -10"></path><path d="M 125.5 139 a 10 10 0 0 1 10 10 v 70 a 10 10 0 0 0 10 10"></path><g class="terminal ">
<path d="M 145.5 229 h 4.25"></path><path d="M 203.75 229 h 4.25"></path><rect height="22" rx="10" ry="10" width="54.0" x="149.75" y="218"></rect><text x="176.75" y="233">"lf"</text></g><path d="M 208.0 229 a 10 10 0 0 0 10 -10 v -70 a 10 10 0 0 1 10 -10"></path><path d="M 125.5 139 a 10 10 0 0 1 10 10 v 100 a 10 10 0 0 0 10 10"></path><g class="terminal ">
<path d="M 145.5 259 h 0.0"></path><path d="M 208.0 259 h 0.0"></path><rect height="22" rx="10" ry="10" width="62.5" x="145.5" y="248"></rect><text x="176.75" y="263">"lim"</text></g><path d="M 208.0 259 a 10 10 0 0 0 10 -10 v -100 a 10 10 0 0 1 10 -10"></path></g><path d="M 238.0 139 a 10 10 0 0 1 10 10 v 9 a 10 10 0 0 0 10 10"></path><path d="M 238.0 20 a 10 10 0 0 1 10 10 v 99 a 10 10 0 0 0 10 10"></path><g>
<path d="M 258.0 139 h 10.0"></path><path d="M 379.0 139 h 10.0"></path><path d="M 268.0 139 a 10 10 0 0 0 10 -10 v -10 a 10 10 0 0 1 10 -10"></path><g class="terminal ">
<path d="M 288.0 109 h 0.0"></path><path d="M 359.0 109 h 0.0"></path><rect height="22" rx="10" ry="10" width="71.0" x="288.0" y="98"></rect><text x="323.5" y="113">"lim3"</text></g><path d="M 359.0 109 a 10 10 0 0 1 10 10 v 10 a 10 10 0 0 0 10 10"></path><path d="M 268.0 139 a 10 10 0 0 0 10 -10 v -40 a 10 10 0 0 1 10 -10"></path><g class="terminal ">
<path d="M 288.0 79 h 0.0"></path><path d="M 359.0 79 h 0.0"></path><rect height="22" rx="10" ry="10" width="71.0" x="288.0" y="68"></rect><text x="323.5" y="83">"lim2"</text></g><path d="M 359.0 79 a 10 10 0 0 1 10 10 v 40 a 10 10 0 0 0 10 10"></path><path d="M 268.0 139 a 10 10 0 0 0 10 -10 v -70 a 10 10 0 0 1 10 -10"></path><g class="terminal ">
<path d="M 288.0 49 h 0.0"></path><path d="M 359.0 49 h 0.0"></path><rect height="22" rx="10" ry="10" width="71.0" x="288.0" y="38"></rect><text x="323.5" y="53">"lim1"</text></g><path d="M 359.0 49 a 10 10 0 0 1 10 10 v 70 a 10 10 0 0 0 10 10"></path><path d="M 268.0 139 h 20"></path><g class="terminal ">
<path d="M 288.0 139 h 0.0"></path><path d="M 359.0 139 h 0.0"></path><rect height="22" rx="10" ry="10" width="71.0" x="288.0" y="128"></rect><text x="323.5" y="143">"lim4"</text></g><path d="M 359.0 139 h 20"></path></g><path d="M 389.0 139 h 10"></path></g><path d="M 399.0 139 h 10"></path><g class="terminal ">
<path d="M 409.0 139 h 0.0"></path><path d="M 480.0 139 h 0.0"></path><rect height="22" rx="10" ry="10" width="71.0" x="409.0" y="128"></rect><text x="444.5" y="143">TAGEND</text></g><path d="M 480.0 139 h 10"></path><path d="M 490.0 139 h 10"></path><g>
<path d="M 500.0 139 h 0.0"></path><path d="M 699.0 139 h 0.0"></path><path d="M 500.0 139 h 10"></path><g>
<path d="M 510.0 139 h 0.0"></path><path d="M 689.0 139 h 0.0"></path><path d="M 510.0 139 h 20"></path><g class="non-terminal ">
<path d="M 530.0 139 h 21.25"></path><path d="M 647.75 139 h 21.25"></path><rect height="22" width="96.5" x="551.25" y="128"></rect><text x="599.5" y="143">Reference</text></g><path d="M 669.0 139 h 20"></path><path d="M 510.0 139 a 10 10 0 0 1 10 10 v 10 a 10 10 0 0 0 10 10"></path><g class="non-terminal ">
<path d="M 530.0 169 h 25.5"></path><path d="M 643.5 169 h 25.5"></path><rect height="22" width="88.0" x="555.5" y="158"></rect><text x="599.5" y="173">Footnote</text></g><path d="M 669.0 169 a 10 10 0 0 0 10 -10 v -10 a 10 10 0 0 1 10 -10"></path><path d="M 510.0 139 a 10 10 0 0 1 10 10 v 40 a 10 10 0 0 0 10 10"></path><g class="non-terminal ">
<path d="M 530.0 199 h 0.0"></path><path d="M 669.0 199 h 0.0"></path><rect height="22" width="139.0" x="530.0" y="188"></rect><text x="599.5" y="203">CrossReference</text></g><path d="M 669.0 199 a 10 10 0 0 0 10 -10 v -40 a 10 10 0 0 1 10 -10"></path><path d="M 510.0 139 a 10 10 0 0 1 10 10 v 70 a 10 10 0 0 0 10 10"></path><g class="non-terminal ">
<path d="M 530.0 229 h 42.5"></path><path d="M 626.5 229 h 42.5"></path><rect height="22" width="54.0" x="572.5" y="218"></rect><text x="599.5" y="233">Char</text></g><path d="M 669.0 229 a 10 10 0 0 0 10 -10 v -70 a 10 10 0 0 1 10 -10"></path><path d="M 510.0 139 a 10 10 0 0 1 10 10 v 100 a 10 10 0 0 0 10 10"></path><g class="non-terminal ">
<path d="M 530.0 259 h 25.5"></path><path d="M 643.5 259 h 25.5"></path><rect height="22" width="88.0" x="555.5" y="248"></rect><text x="599.5" y="263">ListChar</text></g><path d="M 669.0 259 a 10 10 0 0 0 10 -10 v -100 a 10 10 0 0 1 10 -10"></path><path d="M 510.0 139 a 10 10 0 0 1 10 10 v 130 a 10 10 0 0 0 10 10"></path><g class="non-terminal ">
<path d="M 530.0 289 h 21.25"></path><path d="M 647.75 289 h 21.25"></path><rect height="22" width="96.5" x="551.25" y="278"></rect><text x="599.5" y="293">Milestone</text></g><path d="M 669.0 289 a 10 10 0 0 0 10 -10 v -130 a 10 10 0 0 1 10 -10"></path><path d="M 510.0 139 a 10 10 0 0 1 10 10 v 160 a 10 10 0 0 0 10 10"></path><g class="non-terminal ">
<path d="M 530.0 319 h 38.25"></path><path d="M 630.75 319 h 38.25"></path><rect height="22" width="62.5" x="568.25" y="308"></rect><text x="599.5" y="323">Verse</text></g><path d="M 669.0 319 a 10 10 0 0 0 10 -10 v -160 a 10 10 0 0 1 10 -10"></path><path d="M 510.0 139 a 10 10 0 0 1 10 10 v 190 a 10 10 0 0 0 10 10"></path><g class="non-terminal ">
<path d="M 530.0 349 h 38.25"></path><path d="M 630.75 349 h 38.25"></path><rect height="22" width="62.5" x="568.25" y="338"></rect><text x="599.5" y="353">Break</text></g><path d="M 669.0 349 a 10 10 0 0 0 10 -10 v -190 a 10 10 0 0 1 10 -10"></path></g><path d="M 689.0 139 h 10"></path><path d="M 510.0 139 a 10 10 0 0 0 -10 10 v 219 a 10 10 0 0 0 10 10"></path><g>
<path d="M 510.0 378 h 179.0"></path></g><path d="M 689.0 378 a 10 10 0 0 0 10 -10 v -219 a 10 10 0 0 0 -10 -10"></path></g></g><path d="M 699.0 139 h 10"></path><path d="M 709.0 139 h 20 m 0 -10 v 20"></path></g></svg>