<svg class="railroad-diagram" height="324" viewBox="0 0 1054.0 324" width="1054.0" xmlns="http://www.w3.org/2000/svg" xmlns:xlink="http://www.w3.org/1999/xlink">
<g transform="translate(.5 .5)">
<style>/* <![CDATA[ */

    svg.railroad-diagram {
        background-color:hsl(30,20%,95%);
    }
    svg.railroad-diagram path {
        stroke-width: 2;
        stroke: black;
        fill: none;
    }
    svg.railroad-diagram text {
        font-size: 12px;
        text-anchor: middle;
        font-family: DejaVu Sans;
    }
    svg.railroad-diagram text.label {
        text-anchor:start;
    }
    svg.railroad-diagram text.comment {
        font-family: DejaVu Sans;
        font-size: 14px;
    }
    svg.railroad-diagram rect{
        stroke-width: 2;
        stroke:black;
        fill: rgb(210, 255, 210);
    }
    svg.railroad-diagram rect.group-box {
        stroke: gray;
        stroke-dasharray: 10 5;
        fill: none;
    }
    .terminal {
        font-family: DejaVu Sans;
    }

/* ]]> */
</style><g>
<path d="M 20 55 v 20 m 0 -10 h 20"></path></g><path d="M 40 65 h 10"></path><g>
<path d="M 50 65 h 0.0"></path><path d="M 1004.0 65 h 0.0"></path><g class="terminal ">
<path d="M 50.0 65 h 0.0"></path><path d="M 95.5 65 h 0.0"></path><rect height="22" rx="10" ry="10" width="45.5" x="50.0" y="54"></rect><text x="72.75" y="69">'\'</text></g><path d="M 95.5 65 h 10"></path><path d="M 105.5 65 h 10"></path><g>
<path d="M 115.5 65 h 0.0"></path><path d="M 246.5 65 h 0.0"></path><rect class="group-box" height="268" rx="10" ry="10" width="131.0" x="115.5" y="36"></rect><g>
<path d="M 115.5 65 h 10.0"></path><path d="M 236.5 65 h 10.0"></path><g>
<path d="M 125.5 65 h 0.0"></path><path d="M 236.5 65 h 0.0"></path><path d="M 125.5 65 h 20"></path><g class="terminal ">
<path d="M 145.5 65 h 0.0"></path><path d="M 216.5 65 h 0.0"></path><rect height="22" rx="10" ry="10" width="71.0" x="145.5" y="54"></rect><text x="181.0" y="69">"litl"</text></g><path d="M 216.5 65 h 20"></path><path d="M 125.5 65 a 10 10 0 0 1 10 10 v 10 a 10 10 0 0 0 10 10"></path><g class="terminal ">
<path d="M 145.5 95 h 4.25"></path><path d="M 212.25 95 h 4.25"></path><rect height="22" rx="10" ry="10" width="62.5" x="149.75" y="84"></rect><text x="181.0" y="99">"lik"</text></g><path d="M 216.5 95 a 10 10 0 0 0 10 -10 v -10 a 10 10 0 0 1 10 -10"></path><path d="M 125.5 65 a 10 10 0 0 1 10 10 v 40 a 10 10 0 0 0 10 10"></path><g class="terminal ">
<path d="M 145.5 125 h 0.0"></path><path d="M 216.5 125 h 0.0"></path><rect height="22" rx="10" ry="10" width="71.0" x="145.5" y="114"></rect><text x="181.0" y="129">"liv1"</text></g><path d="M 216.5 125 a 10 10 0 0 0 10 -10 v -40 a 10 10 0 0 1 10 -10"></path><path d="M 125.5 65 a 10 10 0 0 1 10 10 v 70 a 10 10 0 0 0 10 10"></path><g class="terminal ">
<path d="M 145.5 155 h 0.0"></path><path d="M 216.5 155 h 0.0"></path><rect height="22" rx="10" ry="10" width="71.0" x="145.5" y="144"></rect><text x="181.0" y="159">"liv2"</text></g><path d="M 216.5 155 a 10 10 0 0 0 10 -10 v -70 a 10 10 0 0 1 10 -10"></path><path d="M 125.5 65 a 10 10 0 0 1 10 10 v 100 a 10 10 0 0 0 10 10"></path><g class="terminal ">
<path d="M 145.5 185 h 0.0"></path><path d="M 216.5 185 h 0.0"></path><rect height="22" rx="10" ry="10" width="71.0" x="145.5" y="174"></rect><text x="181.0" y="189">"liv3"</text></g><path d="M 216.5 185 a 10 10 0 0 0 10 -10 v -100 a 10 10 0 0 1 10 -10"></path><path d="M 125.5 65 a 10 10 0 0 1 10 10 v 130 a 10 10 0 0 0 10 10"></path><g class="terminal ">
<path d="M 145.5 215 h 0.0"></path><path d="M 216.5 215 h 0.0"></path><rect height="22" rx="10" ry="10" width="71.0" x="145.5" y="204"></rect><text x="181.0" y="219">"liv4"</text></g><path d="M 216.5 215 a 10 10 0 0 0 10 -10 v -130 a 10 10 0 0 1 10 -10"></path><path d="M 125.5 65 a 10 10 0 0 1 10 10 v 160 a 10 10 0 0 0 10 10"></path><g class="terminal ">
<path d="M 145.5 245 h 0.0"></path><path d="M 216.5 245 h 0.0"></path><rect height="22" rx="10" ry="10" width="71.0" x="145.5" y="234"></rect><text x="181.0" y="249">"liv5"</text></g><path d="M 216.5 245 a 10 10 0 0 0 10 -10 v -160 a 10 10 0 0 1 10 -10"></path><path d="M 125.5 65 a 10 10 0 0 1 10 10 v 190 a 10 10 0 0 0 10 10"></path><g class="terminal ">
<path d="M 145.5 275 h 4.25"></path><path d="M 212.25 275 h 4.25"></path><rect height="22" rx="10" ry="10" width="62.5" x="149.75" y="264"></rect><text x="181.0" y="279">"liv"</text></g><path d="M 216.5 275 a 10 10 0 0 0 10 -10 v -190 a 10 10 0 0 1 10 -10"></path></g></g><g class="non-terminal ">
<path d="M 115.5 28 h 0.0"></path><path d="M 132.5 28 h 0.0"></path><text class="comment" x="124.0" y="33">➋</text></g></g><path d="M 246.5 65 h 10"></path><path d="M 256.5 65 h 10"></path><g class="terminal ">
<path d="M 266.5 65 h 0.0"></path><path d="M 337.5 65 h 0.0"></path><rect height="22" rx="10" ry="10" width="71.0" x="266.5" y="54"></rect><text x="302.0" y="69">TAGEND</text></g><path d="M 337.5 65 h 10"></path><path d="M 347.5 65 h 10"></path><g>
<path d="M 357.5 65 h 0.0"></path><path d="M 494.0 65 h 0.0"></path><path d="M 357.5 65 h 20"></path><g>
<path d="M 377.5 65 h 96.5"></path></g><path d="M 474.0 65 h 20"></path><path d="M 357.5 65 a 10 10 0 0 1 10 10 v 0 a 10 10 0 0 0 10 10"></path><g class="non-terminal ">
<path d="M 377.5 85 h 0.0"></path><path d="M 474.0 85 h 0.0"></path><rect height="22" width="96.5" x="377.5" y="74"></rect><text x="425.75" y="89">char.link</text></g><path d="M 474.0 85 a 10 10 0 0 0 10 -10 v 0 a 10 10 0 0 1 10 -10"></path></g><path d="M 494.0 65 h 10"></path><path d="M 504.0 65 h 10"></path><g>
<path d="M 514.0 65 h 0.0"></path><path d="M 767.5 65 h 0.0"></path><path d="M 514.0 65 a 10 10 0 0 0 10 -10 v -9 a 10 10 0 0 1 10 -10"></path><g>
<path d="M 534.0 36 h 213.5"></path></g><path d="M 747.5 36 a 10 10 0 0 1 10 10 v 9 a 10 10 0 0 0 10 10"></path><path d="M 514.0 65 h 20"></path><g>
<path d="M 534.0 65 h 0.0"></path><path d="M 747.5 65 h 0.0"></path><path d="M 534.0 65 h 10"></path><g>
<path d="M 544.0 65 h 0.0"></path><path d="M 737.5 65 h 0.0"></path><path d="M 544.0 65 h 20"></path><g class="non-terminal ">
<path d="M 564.0 65 h 49.75"></path><path d="M 667.75 65 h 49.75"></path><rect height="22" width="54.0" x="613.75" y="54"></rect><text x="640.75" y="69">Char</text></g><path d="M 717.5 65 h 20"></path><path d="M 544.0 65 a 10 10 0 0 1 10 10 v 10 a 10 10 0 0 0 10 10"></path><g class="non-terminal ">
<path d="M 564.0 95 h 28.5"></path><path d="M 689.0 95 h 28.5"></path><rect height="22" width="96.5" x="592.5" y="84"></rect><text x="640.75" y="99">Milestone</text></g><path d="M 717.5 95 a 10 10 0 0 0 10 -10 v -10 a 10 10 0 0 1 10 -10"></path><path d="M 544.0 65 a 10 10 0 0 1 10 10 v 40 a 10 10 0 0 0 10 10"></path><g class="non-terminal ">
<path d="M 564.0 125 h 32.75"></path><path d="M 684.75 125 h 32.75"></path><rect height="22" width="88.0" x="596.75" y="114"></rect><text x="640.75" y="129">Footnote</text></g><path d="M 717.5 125 a 10 10 0 0 0 10 -10 v -40 a 10 10 0 0 1 10 -10"></path><path d="M 544.0 65 a 10 10 0 0 1 10 10 v 70 a 10 10 0 0 0 10 10"></path><g class="non-terminal ">
<path d="M 564.0 155 h 45.5"></path><path d="M 672.0 155 h 45.5"></path><rect height="22" width="62.5" x="609.5" y="144"></rect><text x="640.75" y="159">Break</text></g><path d="M 717.5 155 a 10 10 0 0 0 10 -10 v -70 a 10 10 0 0 1 10 -10"></path><path d="M 544.0 65 a 10 10 0 0 1 10 10 v 100 a 10 10 0 0 0 10 10"></path><g>
<path d="M 564.0 185 h 0.0"></path><path d="M 717.5 185 h 0.0"></path><g class="terminal ">
<path d="M 564.0 185 h 0.0"></path><path d="M 618.0 185 h 0.0"></path><rect height="22" rx="10" ry="10" width="54.0" x="564.0" y="174"></rect><text x="591.0" y="189">TEXT</text></g><path d="M 618.0 185 h 10"></path><path d="M 628.0 185 h 10"></path><g class="terminal ">
<path d="M 638.0 185 h 0.0"></path><path d="M 717.5 185 h 0.0"></path><rect height="22" rx="10" ry="10" width="79.5" x="638.0" y="174"></rect><text x="677.75" y="189">TEXTEND</text></g></g><path d="M 717.5 185 a 10 10 0 0 0 10 -10 v -100 a 10 10 0 0 1 10 -10"></path></g><path d="M 737.5 65 h 10"></path><path d="M 544.0 65 a 10 10 0 0 0 -10 10 v 129 a 10 10 0 0 0 10 10"></path><g>
<path d="M 544.0 214 h 193.5"></path></g><path d="M 737.5 214 a 10 10 0 0 0 10 -10 v -129 a 10 10 0 0 0 -10 -10"></path></g><path d="M 747.5 65 h 20"></path></g><path d="M 767.5 65 h 10"></path><path d="M 777.5 65 h 10"></path><g>
<path d="M 787.5 65 h 0.0"></path><path d="M 1004.0 65 h 0.0"></path><path d="M 787.5 65 h 20"></path><g>
<path d="M 807.5 65 h 176.5"></path></g><path d="M 984.0 65 h 20"></path><path d="M 787.5 65 a 10 10 0 0 1 10 10 v 0 a 10 10 0 0 0 10 10"></path><g>
<path d="M 807.5 85 h 0.0"></path><path d="M 984.0 85 h 0.0"></path><g class="terminal ">
<path d="M 807.5 85 h 0.0"></path><path d="M 853.0 85 h 0.0"></path><rect height="22" rx="10" ry="10" width="45.5" x="807.5" y="74"></rect><text x="830.25" y="89">'\'</text></g><path d="M 853.0 85 h 10"></path><path d="M 863.0 85 h 10"></path><g class="terminal ">
<path d="M 873.0 85 h 0.0"></path><path d="M 918.5 85 h 0.0"></path><rect height="22" rx="10" ry="10" width="45.5" x="873.0" y="74"></rect><text x="895.75" y="89">⇐ ➋</text></g><path d="M 918.5 85 h 10"></path><path d="M 928.5 85 h 10"></path><g class="terminal ">
<path d="M 938.5 85 h 0.0"></path><path d="M 984.0 85 h 0.0"></path><rect height="22" rx="10" ry="10" width="45.5" x="938.5" y="74"></rect><text x="961.25" y="89">'&#42;'</text></g></g><path d="M 984.0 85 a 10 10 0 0 0 10 -10 v 0 a 10 10 0 0 1 10 -10"></path></g></g><path d="M 1004.0 65 h 10"></path><path d="M 1014.0 65 h 20 m 0 -10 v 20"></path></g></svg>