<svg class="railroad-diagram" height="468" viewBox="0 0 1133.5 468" width="1133.5" xmlns="http://www.w3.org/2000/svg" xmlns:xlink="http://www.w3.org/1999/xlink">
<g transform="translate(.5 .5)">
<style>/* <![CDATA[ */

    svg.railroad-diagram {
        background-color: hsl(30,20%,95%);
    }
    svg.railroad-diagram path {
        stroke-width: 2;
        stroke: black;
        fill: none;
    }
    svg.railroad-diagram text {
        font-size: 12px;
        text-anchor: middle;
        font-family: DejaVu Sans;
    }
    svg.railroad-diagram text.label {
        text-anchor:start;
    }
    svg.railroad-diagram text.comment {
        font-family: DejaVu Sans;
        font-size: 14px;
    }
    svg.railroad-diagram rect{
        stroke-width: 2;
        stroke: black;
        fill: rgb(210, 255, 210);
    }
    svg.railroad-diagram rect.group-box {
        stroke: gray;
        stroke-dasharray: 10 5;
        fill: none;
    }
    .terminal {
        font-family: DejaVu Sans;
    }
    svg.railroad-diagram g.altterminal rect {
        fill: rgb(251, 252, 207)
    }

/* ]]> */
</style><g>
<path d="M 20 129 v 20 m 0 -10 h 20"></path></g><path d="M 40 139 h 10"></path><g>
<path d="M 50 139 h 0.0"></path><path d="M 1083.5 139 h 0.0"></path><g>
<path d="M 50.0 139 h 0.0"></path><path d="M 186.5 139 h 0.0"></path><path d="M 50.0 139 h 20"></path><g class="terminal ">
<path d="M 70.0 139 h 12.75"></path><path d="M 153.75 139 h 12.75"></path><rect height="22" rx="10" ry="10" width="71.0" x="82.75" y="128"></rect><text x="118.25" y="143">'\n\\'</text></g><path d="M 166.5 139 h 20"></path><path d="M 50.0 139 a 10 10 0 0 1 10 10 v 10 a 10 10 0 0 0 10 10"></path><g class="terminal altterminal">
<path d="M 70.0 169 h 0.0"></path><path d="M 166.5 169 h 0.0"></path><rect height="22" rx="10" ry="10" width="96.5" x="70.0" y="158"></rect><text x="118.25" y="173">/${Ws}\\/</text></g><path d="M 166.5 169 a 10 10 0 0 0 10 -10 v -10 a 10 10 0 0 1 10 -10"></path></g><path d="M 186.5 139 h 10"></path><g>
<path d="M 196.5 139 h 0.0"></path><path d="M 498.5 139 h 0.0"></path><path d="M 196.5 139 a 10 10 0 0 0 10 -10 v -99 a 10 10 0 0 1 10 -10 h 121.0"></path><path d="M 357.5 168 h 121.0 a 10 10 0 0 0 10 -10 v -9 a 10 10 0 0 1 10 -10"></path><path d="M 196.5 139 h 10"></path><g>
<path d="M 206.5 139 h 10.0"></path><path d="M 327.5 139 h 10.0"></path><path d="M 216.5 139 a 10 10 0 0 0 10 -10 v -10 a 10 10 0 0 1 10 -10"></path><g class="terminal ">
<path d="M 236.5 109 h 4.25"></path><path d="M 303.25 109 h 4.25"></path><rect height="22" rx="10" ry="10" width="62.5" x="240.75" y="98"></rect><text x="272.0" y="113">"li2"</text></g><path d="M 307.5 109 a 10 10 0 0 1 10 10 v 10 a 10 10 0 0 0 10 10"></path><path d="M 216.5 139 a 10 10 0 0 0 10 -10 v -40 a 10 10 0 0 1 10 -10"></path><g class="terminal ">
<path d="M 236.5 79 h 4.25"></path><path d="M 303.25 79 h 4.25"></path><rect height="22" rx="10" ry="10" width="62.5" x="240.75" y="68"></rect><text x="272.0" y="83">"li1"</text></g><path d="M 307.5 79 a 10 10 0 0 1 10 10 v 40 a 10 10 0 0 0 10 10"></path><path d="M 216.5 139 a 10 10 0 0 0 10 -10 v -70 a 10 10 0 0 1 10 -10"></path><g class="terminal ">
<path d="M 236.5 49 h 8.5"></path><path d="M 299.0 49 h 8.5"></path><rect height="22" rx="10" ry="10" width="54.0" x="245.0" y="38"></rect><text x="272.0" y="53">"lh"</text></g><path d="M 307.5 49 a 10 10 0 0 1 10 10 v 70 a 10 10 0 0 0 10 10"></path><path d="M 216.5 139 h 20"></path><g class="terminal ">
<path d="M 236.5 139 h 4.25"></path><path d="M 303.25 139 h 4.25"></path><rect height="22" rx="10" ry="10" width="62.5" x="240.75" y="128"></rect><text x="272.0" y="143">"li3"</text></g><path d="M 307.5 139 h 20"></path><path d="M 216.5 139 a 10 10 0 0 1 10 10 v 10 a 10 10 0 0 0 10 10"></path><g class="terminal ">
<path d="M 236.5 169 h 4.25"></path><path d="M 303.25 169 h 4.25"></path><rect height="22" rx="10" ry="10" width="62.5" x="240.75" y="158"></rect><text x="272.0" y="173">"li4"</text></g><path d="M 307.5 169 a 10 10 0 0 0 10 -10 v -10 a 10 10 0 0 1 10 -10"></path><path d="M 216.5 139 a 10 10 0 0 1 10 10 v 40 a 10 10 0 0 0 10 10"></path><g class="terminal ">
<path d="M 236.5 199 h 0.0"></path><path d="M 307.5 199 h 0.0"></path><rect height="22" rx="10" ry="10" width="71.0" x="236.5" y="188"></rect><text x="272.0" y="203">"lim1"</text></g><path d="M 307.5 199 a 10 10 0 0 0 10 -10 v -40 a 10 10 0 0 1 10 -10"></path><path d="M 216.5 139 a 10 10 0 0 1 10 10 v 70 a 10 10 0 0 0 10 10"></path><g class="terminal ">
<path d="M 236.5 229 h 0.0"></path><path d="M 307.5 229 h 0.0"></path><rect height="22" rx="10" ry="10" width="71.0" x="236.5" y="218"></rect><text x="272.0" y="233">"lim2"</text></g><path d="M 307.5 229 a 10 10 0 0 0 10 -10 v -70 a 10 10 0 0 1 10 -10"></path><path d="M 216.5 139 a 10 10 0 0 1 10 10 v 100 a 10 10 0 0 0 10 10"></path><g class="terminal ">
<path d="M 236.5 259 h 0.0"></path><path d="M 307.5 259 h 0.0"></path><rect height="22" rx="10" ry="10" width="71.0" x="236.5" y="248"></rect><text x="272.0" y="263">"lim3"</text></g><path d="M 307.5 259 a 10 10 0 0 0 10 -10 v -100 a 10 10 0 0 1 10 -10"></path></g><path d="M 337.5 139 a 10 10 0 0 1 10 10 v 9 a 10 10 0 0 0 10 10"></path><path d="M 337.5 20 a 10 10 0 0 1 10 10 v 99 a 10 10 0 0 0 10 10"></path><g>
<path d="M 357.5 139 h 10.0"></path><path d="M 478.5 139 h 10.0"></path><path d="M 367.5 139 a 10 10 0 0 0 10 -10 v -10 a 10 10 0 0 1 10 -10"></path><g class="terminal ">
<path d="M 387.5 109 h 8.5"></path><path d="M 450.0 109 h 8.5"></path><rect height="22" rx="10" ry="10" width="54.0" x="396.0" y="98"></rect><text x="423.0" y="113">"li"</text></g><path d="M 458.5 109 a 10 10 0 0 1 10 10 v 10 a 10 10 0 0 0 10 10"></path><path d="M 367.5 139 a 10 10 0 0 0 10 -10 v -40 a 10 10 0 0 1 10 -10"></path><g class="terminal ">
<path d="M 387.5 79 h 4.25"></path><path d="M 454.25 79 h 4.25"></path><rect height="22" rx="10" ry="10" width="62.5" x="391.75" y="68"></rect><text x="423.0" y="83">"lim"</text></g><path d="M 458.5 79 a 10 10 0 0 1 10 10 v 40 a 10 10 0 0 0 10 10"></path><path d="M 367.5 139 a 10 10 0 0 0 10 -10 v -70 a 10 10 0 0 1 10 -10"></path><g class="terminal ">
<path d="M 387.5 49 h 0.0"></path><path d="M 458.5 49 h 0.0"></path><rect height="22" rx="10" ry="10" width="71.0" x="387.5" y="38"></rect><text x="423.0" y="53">"lim4"</text></g><path d="M 458.5 49 a 10 10 0 0 1 10 10 v 70 a 10 10 0 0 0 10 10"></path><path d="M 367.5 139 h 20"></path><g class="terminal ">
<path d="M 387.5 139 h 8.5"></path><path d="M 450.0 139 h 8.5"></path><rect height="22" rx="10" ry="10" width="54.0" x="396.0" y="128"></rect><text x="423.0" y="143">"lf"</text></g><path d="M 458.5 139 h 20"></path></g><path d="M 488.5 139 h 10"></path></g><path d="M 498.5 139 h 10"></path><g>
<path d="M 508.5 139 h 0.0"></path><path d="M 619.5 139 h 0.0"></path><path d="M 508.5 139 h 20"></path><g class="terminal ">
<path d="M 528.5 139 h 12.75"></path><path d="M 586.75 139 h 12.75"></path><rect height="22" rx="10" ry="10" width="45.5" x="541.25" y="128"></rect><text x="564.0" y="143">' '</text></g><path d="M 599.5 139 h 20"></path><path d="M 508.5 139 a 10 10 0 0 1 10 10 v 10 a 10 10 0 0 0 10 10"></path><g class="terminal altterminal">
<path d="M 528.5 169 h 0.0"></path><path d="M 599.5 169 h 0.0"></path><rect height="22" rx="10" ry="10" width="71.0" x="528.5" y="158"></rect><text x="564.0" y="173">TAGEND</text></g><path d="M 599.5 169 a 10 10 0 0 0 10 -10 v -10 a 10 10 0 0 1 10 -10"></path></g><path d="M 619.5 139 h 10"></path><path d="M 629.5 139 h 10"></path><g>
<path d="M 639.5 139 h 0.0"></path><path d="M 810.0 139 h 0.0"></path><path d="M 639.5 139 h 20"></path><g>
<path d="M 659.5 139 h 130.5"></path></g><path d="M 790.0 139 h 20"></path><path d="M 639.5 139 a 10 10 0 0 1 10 10 v 0 a 10 10 0 0 0 10 10"></path><g class="non-terminal ">
<path d="M 659.5 159 h 0.0"></path><path d="M 790.0 159 h 0.0"></path><rect height="22" width="130.5" x="659.5" y="148"></rect><text x="724.75" y="163">AttributesPre</text></g><path d="M 790.0 159 a 10 10 0 0 0 10 -10 v 0 a 10 10 0 0 1 10 -10"></path></g><path d="M 810.0 139 h 10"></path><path d="M 820.0 139 h 10"></path><g>
<path d="M 830.0 139 h 0.0"></path><path d="M 1083.5 139 h 0.0"></path><path d="M 830.0 139 a 10 10 0 0 0 10 -10 v -9 a 10 10 0 0 1 10 -10"></path><g>
<path d="M 850.0 110 h 213.5"></path></g><path d="M 1063.5 110 a 10 10 0 0 1 10 10 v 9 a 10 10 0 0 0 10 10"></path><path d="M 830.0 139 h 20"></path><g>
<path d="M 850.0 139 h 0.0"></path><path d="M 1063.5 139 h 0.0"></path><path d="M 850.0 139 h 10"></path><g>
<path d="M 860.0 139 h 0.0"></path><path d="M 1053.5 139 h 0.0"></path><path d="M 860.0 139 h 20"></path><g>
<path d="M 880.0 139 h 0.0"></path><path d="M 1033.5 139 h 0.0"></path><g class="terminal ">
<path d="M 880.0 139 h 0.0"></path><path d="M 934.0 139 h 0.0"></path><rect height="22" rx="10" ry="10" width="54.0" x="880.0" y="128"></rect><text x="907.0" y="143">TEXT</text></g><path d="M 934.0 139 h 10"></path><path d="M 944.0 139 h 10"></path><g class="terminal ">
<path d="M 954.0 139 h 0.0"></path><path d="M 1033.5 139 h 0.0"></path><rect height="22" rx="10" ry="10" width="79.5" x="954.0" y="128"></rect><text x="993.75" y="143">TEXTEND</text></g></g><path d="M 1033.5 139 h 20"></path><path d="M 860.0 139 a 10 10 0 0 1 10 10 v 10 a 10 10 0 0 0 10 10"></path><g class="non-terminal ">
<path d="M 880.0 169 h 32.75"></path><path d="M 1000.75 169 h 32.75"></path><rect height="22" width="88.0" x="912.75" y="158"></rect><text x="956.75" y="173">ListChar</text></g><path d="M 1033.5 169 a 10 10 0 0 0 10 -10 v -10 a 10 10 0 0 1 10 -10"></path><path d="M 860.0 139 a 10 10 0 0 1 10 10 v 40 a 10 10 0 0 0 10 10"></path><g class="non-terminal ">
<path d="M 880.0 199 h 28.5"></path><path d="M 1005.0 199 h 28.5"></path><rect height="22" width="96.5" x="908.5" y="188"></rect><text x="956.75" y="203">CharEmbed</text></g><path d="M 1033.5 199 a 10 10 0 0 0 10 -10 v -40 a 10 10 0 0 1 10 -10"></path><path d="M 860.0 139 a 10 10 0 0 1 10 10 v 70 a 10 10 0 0 0 10 10"></path><g class="non-terminal ">
<path d="M 880.0 229 h 41.25"></path><path d="M 992.25 229 h 41.25"></path><rect height="22" width="71.0" x="921.25" y="218"></rect><text x="956.75" y="233">Figure</text></g><path d="M 1033.5 229 a 10 10 0 0 0 10 -10 v -70 a 10 10 0 0 1 10 -10"></path><path d="M 860.0 139 a 10 10 0 0 1 10 10 v 100 a 10 10 0 0 0 10 10"></path><g class="non-terminal ">
<path d="M 880.0 259 h 28.5"></path><path d="M 1005.0 259 h 28.5"></path><rect height="22" width="96.5" x="908.5" y="248"></rect><text x="956.75" y="263">Milestone</text></g><path d="M 1033.5 259 a 10 10 0 0 0 10 -10 v -100 a 10 10 0 0 1 10 -10"></path><path d="M 860.0 139 a 10 10 0 0 1 10 10 v 130 a 10 10 0 0 0 10 10"></path><g class="non-terminal ">
<path d="M 880.0 289 h 45.5"></path><path d="M 988.0 289 h 45.5"></path><rect height="22" width="62.5" x="925.5" y="278"></rect><text x="956.75" y="293">Verse</text></g><path d="M 1033.5 289 a 10 10 0 0 0 10 -10 v -130 a 10 10 0 0 1 10 -10"></path><path d="M 860.0 139 a 10 10 0 0 1 10 10 v 160 a 10 10 0 0 0 10 10"></path><g class="non-terminal ">
<path d="M 880.0 319 h 28.5"></path><path d="M 1005.0 319 h 28.5"></path><rect height="22" width="96.5" x="908.5" y="308"></rect><text x="956.75" y="323">Reference</text></g><path d="M 1033.5 319 a 10 10 0 0 0 10 -10 v -160 a 10 10 0 0 1 10 -10"></path><path d="M 860.0 139 a 10 10 0 0 1 10 10 v 190 a 10 10 0 0 0 10 10"></path><g class="non-terminal ">
<path d="M 880.0 349 h 32.75"></path><path d="M 1000.75 349 h 32.75"></path><rect height="22" width="88.0" x="912.75" y="338"></rect><text x="956.75" y="353">Footnote</text></g><path d="M 1033.5 349 a 10 10 0 0 0 10 -10 v -190 a 10 10 0 0 1 10 -10"></path><path d="M 860.0 139 a 10 10 0 0 1 10 10 v 220 a 10 10 0 0 0 10 10"></path><g class="non-terminal ">
<path d="M 880.0 379 h 7.25"></path><path d="M 1026.25 379 h 7.25"></path><rect height="22" width="139.0" x="887.25" y="368"></rect><text x="956.75" y="383">CrossReference</text></g><path d="M 1033.5 379 a 10 10 0 0 0 10 -10 v -220 a 10 10 0 0 1 10 -10"></path><path d="M 860.0 139 a 10 10 0 0 1 10 10 v 250 a 10 10 0 0 0 10 10"></path><g class="non-terminal ">
<path d="M 880.0 409 h 45.5"></path><path d="M 988.0 409 h 45.5"></path><rect height="22" width="62.5" x="925.5" y="398"></rect><text x="956.75" y="413">Break</text></g><path d="M 1033.5 409 a 10 10 0 0 0 10 -10 v -250 a 10 10 0 0 1 10 -10"></path></g><path d="M 1053.5 139 h 10"></path><path d="M 860.0 139 a 10 10 0 0 0 -10 10 v 279 a 10 10 0 0 0 10 10"></path><g>
<path d="M 860.0 438 h 193.5"></path></g><path d="M 1053.5 438 a 10 10 0 0 0 10 -10 v -279 a 10 10 0 0 0 -10 -10"></path></g><path d="M 1063.5 139 h 20"></path></g></g><path d="M 1083.5 139 h 10"></path><path d="M 1093.5 139 h 20 m 0 -10 v 20"></path></g></svg>