<svg class="railroad-diagram" height="566" viewBox="0 0 662.0 566" width="662.0" xmlns="http://www.w3.org/2000/svg" xmlns:xlink="http://www.w3.org/1999/xlink">
<g transform="translate(.5 .5)">
<style>/* <![CDATA[ */
    svg.railroad-diagram {
        background-color:hsl(30,20%,95%);
    }
    svg.railroad-diagram path {
        stroke-width: 2;
        stroke: black;
        fill: none;
    }
    svg.railroad-diagram text {
        font-size: 12px;
        text-anchor: middle;
        font-family: DejaVu Sans;
    }
    svg.railroad-diagram text.label {
        text-anchor:start;
    }
    svg.railroad-diagram text.comment {
        font-family: DejaVu Sans;
        font-size: 14px;
    }
    svg.railroad-diagram rect{
        stroke-width: 2;
        stroke:black;
        fill: rgb(210, 210, 255);
    }
    svg.railroad-diagram rect.group-box {
        stroke: gray;
        stroke-dasharray: 10 5;
        fill: none;
    }
    .terminal {
        font-family: DejaVu Sans;
    }

/* ]]> */
</style><g>
<path d="M 20 397 v 20 m 0 -10 h 20"></path></g><path d="M 40 407 h 10"></path><g>
<path d="M 50 407 h 0.0"></path><path d="M 612.0 407 h 0.0"></path><g class="terminal ">
<path d="M 50.0 407 h 0.0"></path><path d="M 121.0 407 h 0.0"></path><rect height="22" rx="10" ry="10" width="71.0" x="50.0" y="396"></rect><text x="85.5" y="411">&#60;para></text></g><path d="M 121.0 407 h 10"></path><g>
<path d="M 131.0 407 h 0.0"></path><path d="M 612.0 407 h 0.0"></path><path d="M 131.0 407 a 10 10 0 0 0 10 -10 v -108 a 10 10 0 0 1 10 -10"></path><g>
<path d="M 151.0 279 h 0.0"></path><path d="M 483.0 279 h 0.0"></path><g class="terminal ">
<path d="M 151.0 279 h 0.0"></path><path d="M 213.5 279 h 0.0"></path><rect height="22" rx="10" ry="10" width="62.5" x="151.0" y="268"></rect><text x="182.25" y="283">@vid?</text></g><path d="M 213.5 279 h 10"></path><path d="M 223.5 279 h 10"></path><g class="terminal ">
<path d="M 233.5 279 h 0.0"></path><path d="M 483.0 279 h 0.0"></path><rect height="22" rx="10" ry="10" width="249.5" x="233.5" y="268"></rect><text x="358.25" y="283">/&#91;A-Z1-4&#93;{3} ?&#91;a-z0-9\-:&#93;&#42;/</text></g></g><path d="M 131.0 407 a 10 10 0 0 0 10 -10 v -258 a 10 10 0 0 1 10 -10"></path><g>
<path d="M 151.0 129 h 0.0"></path><path d="M 485.5 129 h 0.0"></path><g class="terminal ">
<path d="M 151.0 129 h 0.0"></path><path d="M 222.0 129 h 0.0"></path><rect height="22" rx="10" ry="10" width="71.0" x="151.0" y="118"></rect><text x="186.5" y="133">@style</text></g><path d="M 222.0 129 h 10"></path><g>
<path d="M 232.0 129 h 0.0"></path><path d="M 485.5 129 h 0.0"></path><path d="M 232.0 129 a 10 10 0 0 0 10 -10 v -89 a 10 10 0 0 1 10 -10 h 92.5"></path><path d="M 232.0 129 h 10"></path><g>
<path d="M 242.0 129 h 0.0"></path><path d="M 242.0 129 a 10 10 0 0 0 10 -10 v -10 a 10 10 0 0 1 10 -10"></path><g class="terminal ">
<path d="M 262.0 99 h 0.0"></path><path d="M 324.5 99 h 0.0"></path><rect height="22" rx="10" ry="10" width="62.5" x="262.0" y="88"></rect><text x="293.25" y="103">"li1"</text></g><path d="M 242.0 129 a 10 10 0 0 0 10 -10 v -40 a 10 10 0 0 1 10 -10"></path><g class="terminal ">
<path d="M 262.0 69 h 0.0"></path><path d="M 316.0 69 h 0.0"></path><rect height="22" rx="10" ry="10" width="54.0" x="262.0" y="58"></rect><text x="289.0" y="73">"li"</text></g><path d="M 242.0 129 a 10 10 0 0 0 10 -10 v -70 a 10 10 0 0 1 10 -10"></path><g class="terminal ">
<path d="M 262.0 39 h 0.0"></path><path d="M 316.0 39 h 0.0"></path><rect height="22" rx="10" ry="10" width="54.0" x="262.0" y="28"></rect><text x="289.0" y="43">"lh"</text></g><path d="M 242.0 129 h 20"></path><g class="terminal ">
<path d="M 262.0 129 h 0.0"></path><path d="M 324.5 129 h 0.0"></path><rect height="22" rx="10" ry="10" width="62.5" x="262.0" y="118"></rect><text x="293.25" y="133">"li2"</text></g><path d="M 242.0 129 a 10 10 0 0 1 10 10 v 10 a 10 10 0 0 0 10 10"></path><g class="terminal ">
<path d="M 262.0 159 h 0.0"></path><path d="M 324.5 159 h 0.0"></path><rect height="22" rx="10" ry="10" width="62.5" x="262.0" y="148"></rect><text x="293.25" y="163">"li3"</text></g><path d="M 242.0 129 a 10 10 0 0 1 10 10 v 40 a 10 10 0 0 0 10 10"></path><g class="terminal ">
<path d="M 262.0 189 h 0.0"></path><path d="M 324.5 189 h 0.0"></path><rect height="22" rx="10" ry="10" width="62.5" x="262.0" y="178"></rect><text x="293.25" y="193">"li4"</text></g><path d="M 242.0 129 a 10 10 0 0 1 10 10 v 70 a 10 10 0 0 0 10 10"></path><g class="terminal ">
<path d="M 262.0 219 h 0.0"></path><path d="M 316.0 219 h 0.0"></path><rect height="22" rx="10" ry="10" width="54.0" x="262.0" y="208"></rect><text x="289.0" y="223">"lf"</text></g><path d="M 242.0 129 a 10 10 0 0 1 10 10 v 100 a 10 10 0 0 0 10 10"></path><g class="terminal ">
<path d="M 262.0 249 h 0.0"></path><path d="M 324.5 249 h 0.0"></path><rect height="22" rx="10" ry="10" width="62.5" x="262.0" y="238"></rect><text x="293.25" y="253">"lim"</text></g></g><path d="M 344.5 20 a 10 10 0 0 1 10 10 v 89 a 10 10 0 0 0 10 10"></path><g>
<path d="M 364.5 129 h 0.0"></path><path d="M 364.5 129 a 10 10 0 0 0 10 -10 v -10 a 10 10 0 0 1 10 -10"></path><g class="terminal ">
<path d="M 384.5 99 h 0.0"></path><path d="M 455.5 99 h 0.0"></path><rect height="22" rx="10" ry="10" width="71.0" x="384.5" y="88"></rect><text x="420.0" y="103">"lim3"</text></g><path d="M 364.5 129 a 10 10 0 0 0 10 -10 v -40 a 10 10 0 0 1 10 -10"></path><g class="terminal ">
<path d="M 384.5 69 h 0.0"></path><path d="M 455.5 69 h 0.0"></path><rect height="22" rx="10" ry="10" width="71.0" x="384.5" y="58"></rect><text x="420.0" y="73">"lim2"</text></g><path d="M 364.5 129 a 10 10 0 0 0 10 -10 v -70 a 10 10 0 0 1 10 -10"></path><g class="terminal ">
<path d="M 384.5 39 h 0.0"></path><path d="M 455.5 39 h 0.0"></path><rect height="22" rx="10" ry="10" width="71.0" x="384.5" y="28"></rect><text x="420.0" y="43">"lim1"</text></g><path d="M 364.5 129 h 20"></path><g class="terminal ">
<path d="M 384.5 129 h 0.0"></path><path d="M 455.5 129 h 0.0"></path><rect height="22" rx="10" ry="10" width="71.0" x="384.5" y="118"></rect><text x="420.0" y="133">"lim4"</text></g></g></g></g><path d="M 131.0 407 h 20"></path><g>
<path d="M 151.0 407 h 0.0"></path><path d="M 592.0 407 h 0.0"></path><g>
<path d="M 151.0 407 h 0.0"></path><path d="M 492.5 407 h 0.0"></path><path d="M 151.0 407 h 10"></path><g>
<path d="M 161.0 407 h 0.0"></path><path d="M 482.5 407 h 0.0"></path><path d="M 161.0 407 a 10 10 0 0 0 10 -10 v -89 a 10 10 0 0 1 10 -10 h 169.0"></path><path d="M 370.0 456 h 92.5 a 10 10 0 0 0 10 -10 v -29 a 10 10 0 0 1 10 -10"></path><path d="M 161.0 407 h 10"></path><g>
<path d="M 171.0 407 h 0.0"></path><path d="M 350.0 407 h 0.0"></path><path d="M 171.0 407 a 10 10 0 0 0 10 -10 v -10 a 10 10 0 0 1 10 -10"></path><g class="non-terminal ">
<path d="M 191.0 377 h 0.0"></path><path d="M 330.0 377 h 0.0"></path><rect height="22" width="139.0" x="191.0" y="366"></rect><text x="260.5" y="381">CrossReference</text></g><path d="M 330.0 377 a 10 10 0 0 1 10 10 v 10 a 10 10 0 0 0 10 10"></path><path d="M 171.0 407 a 10 10 0 0 0 10 -10 v -40 a 10 10 0 0 1 10 -10"></path><g class="non-terminal ">
<path d="M 191.0 347 h 25.5"></path><path d="M 304.5 347 h 25.5"></path><rect height="22" width="88.0" x="216.5" y="336"></rect><text x="260.5" y="351">Footnote</text></g><path d="M 330.0 347 a 10 10 0 0 1 10 10 v 40 a 10 10 0 0 0 10 10"></path><path d="M 171.0 407 a 10 10 0 0 0 10 -10 v -70 a 10 10 0 0 1 10 -10"></path><g class="non-terminal ">
<path d="M 191.0 317 h 21.25"></path><path d="M 308.75 317 h 21.25"></path><rect height="22" width="96.5" x="212.25" y="306"></rect><text x="260.5" y="321">Reference</text></g><path d="M 330.0 317 a 10 10 0 0 1 10 10 v 70 a 10 10 0 0 0 10 10"></path><path d="M 171.0 407 h 20"></path><g class="non-terminal ">
<path d="M 191.0 407 h 42.5"></path><path d="M 287.5 407 h 42.5"></path><rect height="22" width="54.0" x="233.5" y="396"></rect><text x="260.5" y="411">Char</text></g><path d="M 330.0 407 h 20"></path><path d="M 171.0 407 a 10 10 0 0 1 10 10 v 10 a 10 10 0 0 0 10 10"></path><g class="non-terminal ">
<path d="M 191.0 437 h 25.5"></path><path d="M 304.5 437 h 25.5"></path><rect height="22" width="88.0" x="216.5" y="426"></rect><text x="260.5" y="441">ListChar</text></g><path d="M 330.0 437 a 10 10 0 0 0 10 -10 v -10 a 10 10 0 0 1 10 -10"></path><path d="M 171.0 407 a 10 10 0 0 1 10 10 v 40 a 10 10 0 0 0 10 10"></path><g class="non-terminal ">
<path d="M 191.0 467 h 21.25"></path><path d="M 308.75 467 h 21.25"></path><rect height="22" width="96.5" x="212.25" y="456"></rect><text x="260.5" y="471">Milestone</text></g><path d="M 330.0 467 a 10 10 0 0 0 10 -10 v -40 a 10 10 0 0 1 10 -10"></path><path d="M 171.0 407 a 10 10 0 0 1 10 10 v 70 a 10 10 0 0 0 10 10"></path><g class="non-terminal ">
<path d="M 191.0 497 h 34.0"></path><path d="M 296.0 497 h 34.0"></path><rect height="22" width="71.0" x="225.0" y="486"></rect><text x="260.5" y="501">Figure</text></g><path d="M 330.0 497 a 10 10 0 0 0 10 -10 v -70 a 10 10 0 0 1 10 -10"></path><path d="M 171.0 407 a 10 10 0 0 1 10 10 v 100 a 10 10 0 0 0 10 10"></path><g class="non-terminal ">
<path d="M 191.0 527 h 38.25"></path><path d="M 291.75 527 h 38.25"></path><rect height="22" width="62.5" x="229.25" y="516"></rect><text x="260.5" y="531">Verse</text></g><path d="M 330.0 527 a 10 10 0 0 0 10 -10 v -100 a 10 10 0 0 1 10 -10"></path></g><path d="M 350.0 407 a 10 10 0 0 1 10 10 v 29 a 10 10 0 0 0 10 10"></path><path d="M 350.0 298 a 10 10 0 0 1 10 10 v 89 a 10 10 0 0 0 10 10"></path><g>
<path d="M 370.0 407 h 0.0"></path><path d="M 472.5 407 h 0.0"></path><path d="M 370.0 407 h 20"></path><g class="non-terminal ">
<path d="M 390.0 407 h 0.0"></path><path d="M 452.5 407 h 0.0"></path><rect height="22" width="62.5" x="390.0" y="396"></rect><text x="421.25" y="411">Break</text></g><path d="M 452.5 407 h 20"></path><path d="M 370.0 407 a 10 10 0 0 1 10 10 v 10 a 10 10 0 0 0 10 10"></path><g class="terminal ">
<path d="M 390.0 437 h 4.25"></path><path d="M 448.25 437 h 4.25"></path><rect height="22" rx="10" ry="10" width="54.0" x="394.25" y="426"></rect><text x="421.25" y="441">text</text></g><path d="M 452.5 437 a 10 10 0 0 0 10 -10 v -10 a 10 10 0 0 1 10 -10"></path></g><path d="M 472.5 407 h 10"></path></g><path d="M 482.5 407 h 10"></path><path d="M 161.0 407 a 10 10 0 0 0 -10 10 v 119 a 10 10 0 0 0 10 10"></path><g>
<path d="M 161.0 546 h 321.5"></path></g><path d="M 482.5 546 a 10 10 0 0 0 10 -10 v -119 a 10 10 0 0 0 -10 -10"></path></g><path d="M 492.5 407 h 10"></path><path d="M 502.5 407 h 10"></path><g class="terminal ">
<path d="M 512.5 407 h 0.0"></path><path d="M 592.0 407 h 0.0"></path><rect height="22" rx="10" ry="10" width="79.5" x="512.5" y="396"></rect><text x="552.25" y="411">&#60;/para></text></g></g><path d="M 592.0 407 h 20"></path></g></g><path d="M 612.0 407 h 10"></path><path d="M 622.0 407 h 20 m 0 -10 v 20"></path></g></svg>