<svg class="railroad-diagram" height="334" viewBox="0 0 1170.5 334" width="1170.5" xmlns="http://www.w3.org/2000/svg" xmlns:xlink="http://www.w3.org/1999/xlink">
<g transform="translate(.5 .5)">
<style>/* <![CDATA[ */

    svg.railroad-diagram {
        background-color: hsl(30,20%,95%);
    }
    svg.railroad-diagram path {
        stroke-width: 2;
        stroke: black;
        fill: none;
    }
    svg.railroad-diagram text {
        font-size: 12px;
        text-anchor: middle;
        font-family: DejaVu Sans;
    }
    svg.railroad-diagram text.label {
        text-anchor:start;
    }
    svg.railroad-diagram text.comment {
        font-family: DejaVu Sans;
        font-size: 14px;
    }
    svg.railroad-diagram rect{
        stroke-width: 2;
        stroke: black;
        fill: rgb(210, 255, 210);
    }
    svg.railroad-diagram rect.group-box {
        stroke: gray;
        stroke-dasharray: 10 5;
        fill: none;
    }
    .terminal {
        font-family: DejaVu Sans;
    }
    svg.railroad-diagram g.altterminal rect {
        fill: rgb(251, 252, 207)
    }

/* ]]> */
</style><g>
<path d="M 20 55 v 20 m 0 -10 h 20"></path></g><path d="M 40 65 h 10"></path><g>
<path d="M 50 65 h 0.0"></path><path d="M 1120.5 65 h 0.0"></path><g class="terminal ">
<path d="M 50.0 65 h 0.0"></path><path d="M 104.0 65 h 0.0"></path><rect height="22" rx="10" ry="10" width="54.0" x="50.0" y="54"></rect><text x="77.0" y="69">'\\'</text></g><path d="M 104.0 65 h 10"></path><path d="M 114.0 65 h 10"></path><g>
<path d="M 124.0 65 h 0.0"></path><path d="M 255.0 65 h 0.0"></path><rect class="group-box" height="268" rx="10" ry="10" width="131.0" x="124.0" y="36"></rect><g>
<path d="M 124.0 65 h 10.0"></path><path d="M 245.0 65 h 10.0"></path><g>
<path d="M 134.0 65 h 0.0"></path><path d="M 245.0 65 h 0.0"></path><path d="M 134.0 65 h 20"></path><g class="terminal ">
<path d="M 154.0 65 h 0.0"></path><path d="M 225.0 65 h 0.0"></path><rect height="22" rx="10" ry="10" width="71.0" x="154.0" y="54"></rect><text x="189.5" y="69">"litl"</text></g><path d="M 225.0 65 h 20"></path><path d="M 134.0 65 a 10 10 0 0 1 10 10 v 10 a 10 10 0 0 0 10 10"></path><g class="terminal ">
<path d="M 154.0 95 h 4.25"></path><path d="M 220.75 95 h 4.25"></path><rect height="22" rx="10" ry="10" width="62.5" x="158.25" y="84"></rect><text x="189.5" y="99">"lik"</text></g><path d="M 225.0 95 a 10 10 0 0 0 10 -10 v -10 a 10 10 0 0 1 10 -10"></path><path d="M 134.0 65 a 10 10 0 0 1 10 10 v 40 a 10 10 0 0 0 10 10"></path><g class="terminal ">
<path d="M 154.0 125 h 0.0"></path><path d="M 225.0 125 h 0.0"></path><rect height="22" rx="10" ry="10" width="71.0" x="154.0" y="114"></rect><text x="189.5" y="129">"liv1"</text></g><path d="M 225.0 125 a 10 10 0 0 0 10 -10 v -40 a 10 10 0 0 1 10 -10"></path><path d="M 134.0 65 a 10 10 0 0 1 10 10 v 70 a 10 10 0 0 0 10 10"></path><g class="terminal ">
<path d="M 154.0 155 h 0.0"></path><path d="M 225.0 155 h 0.0"></path><rect height="22" rx="10" ry="10" width="71.0" x="154.0" y="144"></rect><text x="189.5" y="159">"liv2"</text></g><path d="M 225.0 155 a 10 10 0 0 0 10 -10 v -70 a 10 10 0 0 1 10 -10"></path><path d="M 134.0 65 a 10 10 0 0 1 10 10 v 100 a 10 10 0 0 0 10 10"></path><g class="terminal ">
<path d="M 154.0 185 h 0.0"></path><path d="M 225.0 185 h 0.0"></path><rect height="22" rx="10" ry="10" width="71.0" x="154.0" y="174"></rect><text x="189.5" y="189">"liv3"</text></g><path d="M 225.0 185 a 10 10 0 0 0 10 -10 v -100 a 10 10 0 0 1 10 -10"></path><path d="M 134.0 65 a 10 10 0 0 1 10 10 v 130 a 10 10 0 0 0 10 10"></path><g class="terminal ">
<path d="M 154.0 215 h 0.0"></path><path d="M 225.0 215 h 0.0"></path><rect height="22" rx="10" ry="10" width="71.0" x="154.0" y="204"></rect><text x="189.5" y="219">"liv4"</text></g><path d="M 225.0 215 a 10 10 0 0 0 10 -10 v -130 a 10 10 0 0 1 10 -10"></path><path d="M 134.0 65 a 10 10 0 0 1 10 10 v 160 a 10 10 0 0 0 10 10"></path><g class="terminal ">
<path d="M 154.0 245 h 0.0"></path><path d="M 225.0 245 h 0.0"></path><rect height="22" rx="10" ry="10" width="71.0" x="154.0" y="234"></rect><text x="189.5" y="249">"liv5"</text></g><path d="M 225.0 245 a 10 10 0 0 0 10 -10 v -160 a 10 10 0 0 1 10 -10"></path><path d="M 134.0 65 a 10 10 0 0 1 10 10 v 190 a 10 10 0 0 0 10 10"></path><g class="terminal ">
<path d="M 154.0 275 h 4.25"></path><path d="M 220.75 275 h 4.25"></path><rect height="22" rx="10" ry="10" width="62.5" x="158.25" y="264"></rect><text x="189.5" y="279">"liv"</text></g><path d="M 225.0 275 a 10 10 0 0 0 10 -10 v -190 a 10 10 0 0 1 10 -10"></path></g></g><g class="non-terminal ">
<path d="M 124.0 28 h 0.0"></path><path d="M 141.0 28 h 0.0"></path><text class="comment" x="132.5" y="33">➋</text></g></g><path d="M 255.0 65 h 10"></path><path d="M 265.0 65 h 10"></path><g>
<path d="M 275.0 65 h 0.0"></path><path d="M 386.0 65 h 0.0"></path><path d="M 275.0 65 h 20"></path><g class="terminal ">
<path d="M 295.0 65 h 12.75"></path><path d="M 353.25 65 h 12.75"></path><rect height="22" rx="10" ry="10" width="45.5" x="307.75" y="54"></rect><text x="330.5" y="69">' '</text></g><path d="M 366.0 65 h 20"></path><path d="M 275.0 65 a 10 10 0 0 1 10 10 v 10 a 10 10 0 0 0 10 10"></path><g class="terminal altterminal">
<path d="M 295.0 95 h 0.0"></path><path d="M 366.0 95 h 0.0"></path><rect height="22" rx="10" ry="10" width="71.0" x="295.0" y="84"></rect><text x="330.5" y="99">TAGEND</text></g><path d="M 366.0 95 a 10 10 0 0 0 10 -10 v -10 a 10 10 0 0 1 10 -10"></path></g><path d="M 386.0 65 h 10"></path><path d="M 396.0 65 h 10"></path><g>
<path d="M 406.0 65 h 0.0"></path><path d="M 602.0 65 h 0.0"></path><path d="M 406.0 65 h 20"></path><g>
<path d="M 426.0 65 h 156.0"></path></g><path d="M 582.0 65 h 20"></path><path d="M 406.0 65 a 10 10 0 0 1 10 10 v 0 a 10 10 0 0 0 10 10"></path><g class="non-terminal ">
<path d="M 426.0 85 h 0.0"></path><path d="M 582.0 85 h 0.0"></path><rect height="22" width="156.0" x="426.0" y="74"></rect><text x="504.0" y="89">AttributesPreAll</text></g><path d="M 582.0 85 a 10 10 0 0 0 10 -10 v 0 a 10 10 0 0 1 10 -10"></path></g><path d="M 602.0 65 h 10"></path><path d="M 612.0 65 h 10"></path><g>
<path d="M 622.0 65 h 0.0"></path><path d="M 875.5 65 h 0.0"></path><path d="M 622.0 65 a 10 10 0 0 0 10 -10 v -9 a 10 10 0 0 1 10 -10"></path><g>
<path d="M 642.0 36 h 213.5"></path></g><path d="M 855.5 36 a 10 10 0 0 1 10 10 v 9 a 10 10 0 0 0 10 10"></path><path d="M 622.0 65 h 20"></path><g>
<path d="M 642.0 65 h 0.0"></path><path d="M 855.5 65 h 0.0"></path><path d="M 642.0 65 h 10"></path><g>
<path d="M 652.0 65 h 0.0"></path><path d="M 845.5 65 h 0.0"></path><path d="M 652.0 65 h 20"></path><g>
<path d="M 672.0 65 h 0.0"></path><path d="M 825.5 65 h 0.0"></path><g class="terminal ">
<path d="M 672.0 65 h 0.0"></path><path d="M 726.0 65 h 0.0"></path><rect height="22" rx="10" ry="10" width="54.0" x="672.0" y="54"></rect><text x="699.0" y="69">TEXT</text></g><path d="M 726.0 65 h 10"></path><path d="M 736.0 65 h 10"></path><g class="terminal ">
<path d="M 746.0 65 h 0.0"></path><path d="M 825.5 65 h 0.0"></path><rect height="22" rx="10" ry="10" width="79.5" x="746.0" y="54"></rect><text x="785.75" y="69">TEXTEND</text></g></g><path d="M 825.5 65 h 20"></path><path d="M 652.0 65 a 10 10 0 0 1 10 10 v 10 a 10 10 0 0 0 10 10"></path><g class="non-terminal ">
<path d="M 672.0 95 h 28.5"></path><path d="M 797.0 95 h 28.5"></path><rect height="22" width="96.5" x="700.5" y="84"></rect><text x="748.75" y="99">CharEmbed</text></g><path d="M 825.5 95 a 10 10 0 0 0 10 -10 v -10 a 10 10 0 0 1 10 -10"></path><path d="M 652.0 65 a 10 10 0 0 1 10 10 v 40 a 10 10 0 0 0 10 10"></path><g class="non-terminal ">
<path d="M 672.0 125 h 41.25"></path><path d="M 784.25 125 h 41.25"></path><rect height="22" width="71.0" x="713.25" y="114"></rect><text x="748.75" y="129">Figure</text></g><path d="M 825.5 125 a 10 10 0 0 0 10 -10 v -40 a 10 10 0 0 1 10 -10"></path><path d="M 652.0 65 a 10 10 0 0 1 10 10 v 70 a 10 10 0 0 0 10 10"></path><g class="non-terminal ">
<path d="M 672.0 155 h 28.5"></path><path d="M 797.0 155 h 28.5"></path><rect height="22" width="96.5" x="700.5" y="144"></rect><text x="748.75" y="159">Milestone</text></g><path d="M 825.5 155 a 10 10 0 0 0 10 -10 v -70 a 10 10 0 0 1 10 -10"></path><path d="M 652.0 65 a 10 10 0 0 1 10 10 v 100 a 10 10 0 0 0 10 10"></path><g class="non-terminal ">
<path d="M 672.0 185 h 32.75"></path><path d="M 792.75 185 h 32.75"></path><rect height="22" width="88.0" x="704.75" y="174"></rect><text x="748.75" y="189">Footnote</text></g><path d="M 825.5 185 a 10 10 0 0 0 10 -10 v -100 a 10 10 0 0 1 10 -10"></path><path d="M 652.0 65 a 10 10 0 0 1 10 10 v 130 a 10 10 0 0 0 10 10"></path><g class="non-terminal ">
<path d="M 672.0 215 h 7.25"></path><path d="M 818.25 215 h 7.25"></path><rect height="22" width="139.0" x="679.25" y="204"></rect><text x="748.75" y="219">CrossReference</text></g><path d="M 825.5 215 a 10 10 0 0 0 10 -10 v -130 a 10 10 0 0 1 10 -10"></path><path d="M 652.0 65 a 10 10 0 0 1 10 10 v 160 a 10 10 0 0 0 10 10"></path><g class="non-terminal ">
<path d="M 672.0 245 h 45.5"></path><path d="M 780.0 245 h 45.5"></path><rect height="22" width="62.5" x="717.5" y="234"></rect><text x="748.75" y="249">Break</text></g><path d="M 825.5 245 a 10 10 0 0 0 10 -10 v -160 a 10 10 0 0 1 10 -10"></path><path d="M 652.0 65 a 10 10 0 0 1 10 10 v 190 a 10 10 0 0 0 10 10"></path><g class="non-terminal ">
<path d="M 672.0 275 h 28.5"></path><path d="M 797.0 275 h 28.5"></path><rect height="22" width="96.5" x="700.5" y="264"></rect><text x="748.75" y="279">Reference</text></g><path d="M 825.5 275 a 10 10 0 0 0 10 -10 v -190 a 10 10 0 0 1 10 -10"></path></g><path d="M 845.5 65 h 10"></path><path d="M 652.0 65 a 10 10 0 0 0 -10 10 v 219 a 10 10 0 0 0 10 10"></path><g>
<path d="M 652.0 304 h 193.5"></path></g><path d="M 845.5 304 a 10 10 0 0 0 10 -10 v -219 a 10 10 0 0 0 -10 -10"></path></g><path d="M 855.5 65 h 20"></path></g><path d="M 875.5 65 h 10"></path><path d="M 885.5 65 h 10"></path><g>
<path d="M 895.5 65 h 0.0"></path><path d="M 1120.5 65 h 0.0"></path><path d="M 895.5 65 h 20"></path><g>
<path d="M 915.5 65 h 185.0"></path></g><path d="M 1100.5 65 h 20"></path><path d="M 895.5 65 a 10 10 0 0 1 10 10 v 0 a 10 10 0 0 0 10 10"></path><g>
<path d="M 915.5 85 h 0.0"></path><path d="M 1100.5 85 h 0.0"></path><g class="terminal ">
<path d="M 915.5 85 h 0.0"></path><path d="M 969.5 85 h 0.0"></path><rect height="22" rx="10" ry="10" width="54.0" x="915.5" y="74"></rect><text x="942.5" y="89">'\\'</text></g><path d="M 969.5 85 h 10"></path><path d="M 979.5 85 h 10"></path><g class="terminal ">
<path d="M 989.5 85 h 0.0"></path><path d="M 1035.0 85 h 0.0"></path><rect height="22" rx="10" ry="10" width="45.5" x="989.5" y="74"></rect><text x="1012.25" y="89">⇐ ➋</text></g><path d="M 1035.0 85 h 10"></path><path d="M 1045.0 85 h 10"></path><g class="terminal ">
<path d="M 1055.0 85 h 0.0"></path><path d="M 1100.5 85 h 0.0"></path><rect height="22" rx="10" ry="10" width="45.5" x="1055.0" y="74"></rect><text x="1077.75" y="89">'&#42;'</text></g></g><path d="M 1100.5 85 a 10 10 0 0 0 10 -10 v 0 a 10 10 0 0 1 10 -10"></path></g></g><path d="M 1120.5 65 h 10"></path><path d="M 1130.5 65 h 20 m 0 -10 v 20"></path></g></svg>