<svg class="railroad-diagram" height="378" viewBox="0 0 554.5 378" width="554.5" xmlns="http://www.w3.org/2000/svg" xmlns:xlink="http://www.w3.org/1999/xlink">
<g transform="translate(.5 .5)">
<style>/* <![CDATA[ */

    svg.railroad-diagram {
        background-color: hsl(30,20%,95%);
    }
    svg.railroad-diagram path {
        stroke-width: 2;
        stroke: black;
        fill: none;
    }
    svg.railroad-diagram text {
        font-size: 12px;
        text-anchor: middle;
        font-family: DejaVu Sans;
    }
    svg.railroad-diagram text.label {
        text-anchor:start;
    }
    svg.railroad-diagram text.comment {
        font-family: DejaVu Sans;
        font-size: 14px;
    }
    svg.railroad-diagram rect{
        stroke-width: 2;
        stroke: black;
        fill: rgb(210, 210, 255);
    }
    svg.railroad-diagram rect.group-box {
        stroke: gray;
        stroke-dasharray: 10 5;
        fill: none;
    }
    .terminal {
        font-family: DejaVu Sans;
    }
    svg.railroad-diagram g.altterminal rect {
        fill: rgb(251, 252, 207)
    }

/* ]]> */
</style><g>
<path d="M 20 89 v 20 m 0 -10 h 20"></path></g><path d="M 40 99 h 10"></path><g>
<path d="M 50 99 h 0.0"></path><path d="M 504.5 99 h 0.0"></path><g>
<path d="M 50.0 99 h 0.0"></path><path d="M 504.5 99 h 0.0"></path><g class="terminal ">
<path d="M 50.0 99 h 0.0"></path><path d="M 121.0 99 h 0.0"></path><rect height="22" rx="10" ry="10" width="71.0" x="50.0" y="88"></rect><text x="85.5" y="103">&#60;char></text></g><path d="M 121.0 99 h 10"></path><path d="M 131.0 99 h 10"></path><g>
<path d="M 141.0 99 h 0.0"></path><path d="M 504.5 99 h 0.0"></path><path d="M 141.0 99 a 10 10 0 0 0 10 -10 v -38 a 10 10 0 0 1 10 -10"></path><g>
<path d="M 161.0 41 h 0.0"></path><path d="M 484.5 41 h 0.0"></path><g class="terminal ">
<path d="M 161.0 41 h 0.0"></path><path d="M 232.0 41 h 0.0"></path><rect height="22" rx="10" ry="10" width="71.0" x="161.0" y="30"></rect><text x="196.5" y="45">@style</text></g><path d="M 232.0 41 h 10"></path><path d="M 242.0 41 h 10"></path><g class="non-terminal ">
<path d="M 252.0 41 h 0.0"></path><path d="M 484.5 41 h 0.0"></path><rect height="22" width="232.5" x="252.0" y="30"></rect><text x="368.25" y="45">ListChars.char.style.enum</text></g></g><path d="M 141.0 99 h 20"></path><g>
<path d="M 161.0 99 h 42.25"></path><path d="M 442.25 99 h 42.25"></path><path d="M 203.25 99 a 10 10 0 0 0 10 -10 v -9 a 10 10 0 0 1 10 -10"></path><g>
<path d="M 223.25 70 h 199.0"></path></g><path d="M 422.25 70 a 10 10 0 0 1 10 10 v 9 a 10 10 0 0 0 10 10"></path><path d="M 203.25 99 h 20"></path><g>
<path d="M 223.25 99 h 0.0"></path><path d="M 422.25 99 h 0.0"></path><path d="M 223.25 99 h 10"></path><g>
<path d="M 233.25 99 h 0.0"></path><path d="M 412.25 99 h 0.0"></path><path d="M 233.25 99 h 20"></path><g class="terminal ">
<path d="M 253.25 99 h 42.5"></path><path d="M 349.75 99 h 42.5"></path><rect height="22" rx="10" ry="10" width="54.0" x="295.75" y="88"></rect><text x="322.75" y="103">TEXT</text></g><path d="M 392.25 99 h 20"></path><path d="M 233.25 99 a 10 10 0 0 1 10 10 v 10 a 10 10 0 0 0 10 10"></path><g class="non-terminal ">
<path d="M 253.25 129 h 42.5"></path><path d="M 349.75 129 h 42.5"></path><rect height="22" width="54.0" x="295.75" y="118"></rect><text x="322.75" y="133">Char</text></g><path d="M 392.25 129 a 10 10 0 0 0 10 -10 v -10 a 10 10 0 0 1 10 -10"></path><path d="M 233.25 99 a 10 10 0 0 1 10 10 v 40 a 10 10 0 0 0 10 10"></path><g class="non-terminal ">
<path d="M 253.25 159 h 34.0"></path><path d="M 358.25 159 h 34.0"></path><rect height="22" width="71.0" x="287.25" y="148"></rect><text x="322.75" y="163">Figure</text></g><path d="M 392.25 159 a 10 10 0 0 0 10 -10 v -40 a 10 10 0 0 1 10 -10"></path><path d="M 233.25 99 a 10 10 0 0 1 10 10 v 70 a 10 10 0 0 0 10 10"></path><g class="non-terminal ">
<path d="M 253.25 189 h 21.25"></path><path d="M 371.0 189 h 21.25"></path><rect height="22" width="96.5" x="274.5" y="178"></rect><text x="322.75" y="193">Milestone</text></g><path d="M 392.25 189 a 10 10 0 0 0 10 -10 v -70 a 10 10 0 0 1 10 -10"></path><path d="M 233.25 99 a 10 10 0 0 1 10 10 v 100 a 10 10 0 0 0 10 10"></path><g class="non-terminal ">
<path d="M 253.25 219 h 25.5"></path><path d="M 366.75 219 h 25.5"></path><rect height="22" width="88.0" x="278.75" y="208"></rect><text x="322.75" y="223">Footnote</text></g><path d="M 392.25 219 a 10 10 0 0 0 10 -10 v -100 a 10 10 0 0 1 10 -10"></path><path d="M 233.25 99 a 10 10 0 0 1 10 10 v 130 a 10 10 0 0 0 10 10"></path><g class="non-terminal ">
<path d="M 253.25 249 h 0.0"></path><path d="M 392.25 249 h 0.0"></path><rect height="22" width="139.0" x="253.25" y="238"></rect><text x="322.75" y="253">CrossReference</text></g><path d="M 392.25 249 a 10 10 0 0 0 10 -10 v -130 a 10 10 0 0 1 10 -10"></path><path d="M 233.25 99 a 10 10 0 0 1 10 10 v 160 a 10 10 0 0 0 10 10"></path><g class="non-terminal ">
<path d="M 253.25 279 h 38.25"></path><path d="M 354.0 279 h 38.25"></path><rect height="22" width="62.5" x="291.5" y="268"></rect><text x="322.75" y="283">Break</text></g><path d="M 392.25 279 a 10 10 0 0 0 10 -10 v -160 a 10 10 0 0 1 10 -10"></path><path d="M 233.25 99 a 10 10 0 0 1 10 10 v 190 a 10 10 0 0 0 10 10"></path><g class="non-terminal ">
<path d="M 253.25 309 h 21.25"></path><path d="M 371.0 309 h 21.25"></path><rect height="22" width="96.5" x="274.5" y="298"></rect><text x="322.75" y="313">Reference</text></g><path d="M 392.25 309 a 10 10 0 0 0 10 -10 v -190 a 10 10 0 0 1 10 -10"></path></g><path d="M 412.25 99 h 10"></path><path d="M 233.25 99 a 10 10 0 0 0 -10 10 v 219 a 10 10 0 0 0 10 10"></path><g>
<path d="M 233.25 338 h 179.0"></path></g><path d="M 412.25 338 a 10 10 0 0 0 10 -10 v -219 a 10 10 0 0 0 -10 -10"></path></g><path d="M 422.25 99 h 20"></path></g><path d="M 484.5 99 h 20"></path></g></g></g><path d="M 504.5 99 h 10"></path><path d="M 514.5 99 h 20 m 0 -10 v 20"></path></g></svg>