<svg class="railroad-diagram" height="334" viewBox="0 0 954.5 334" width="954.5" xmlns="http://www.w3.org/2000/svg" xmlns:xlink="http://www.w3.org/1999/xlink">
<g transform="translate(.5 .5)">
<style>/* <![CDATA[ */

    svg.railroad-diagram {
        background-color: hsl(30,20%,95%);
    }
    svg.railroad-diagram path {
        stroke-width: 2;
        stroke: black;
        fill: none;
    }
    svg.railroad-diagram text {
        font-size: 12px;
        text-anchor: middle;
        font-family: DejaVu Sans;
    }
    svg.railroad-diagram text.label {
        text-anchor:start;
    }
    svg.railroad-diagram text.comment {
        font-family: DejaVu Sans;
        font-size: 14px;
    }
    svg.railroad-diagram rect{
        stroke-width: 2;
        stroke: black;
        fill: rgb(210, 255, 210);
    }
    svg.railroad-diagram rect.group-box {
        stroke: gray;
        stroke-dasharray: 10 5;
        fill: none;
    }
    .terminal {
        font-family: DejaVu Sans;
    }
    svg.railroad-diagram g.altterminal rect {
        fill: rgb(251, 252, 207)
    }

/* ]]> */
</style><g>
<path d="M 20 55 v 20 m 0 -10 h 20"></path></g><path d="M 40 65 h 10"></path><g>
<path d="M 50 65 h 0.0"></path><path d="M 904.5 65 h 0.0"></path><g class="terminal ">
<path d="M 50.0 65 h 0.0"></path><path d="M 104.0 65 h 0.0"></path><rect height="22" rx="10" ry="10" width="54.0" x="50.0" y="54"></rect><text x="77.0" y="69">'\\'</text></g><path d="M 104.0 65 h 10"></path><path d="M 114.0 65 h 10"></path><g>
<path d="M 124.0 65 h 0.0"></path><path d="M 255.0 65 h 0.0"></path><rect class="group-box" height="268" rx="10" ry="10" width="131.0" x="124.0" y="36"></rect><g>
<path d="M 124.0 65 h 10.0"></path><path d="M 245.0 65 h 10.0"></path><g>
<path d="M 134.0 65 h 0.0"></path><path d="M 245.0 65 h 0.0"></path><path d="M 134.0 65 h 20"></path><g class="terminal ">
<path d="M 154.0 65 h 0.0"></path><path d="M 225.0 65 h 0.0"></path><rect height="22" rx="10" ry="10" width="71.0" x="154.0" y="54"></rect><text x="189.5" y="69">"litl"</text></g><path d="M 225.0 65 h 20"></path><path d="M 134.0 65 a 10 10 0 0 1 10 10 v 10 a 10 10 0 0 0 10 10"></path><g class="terminal ">
<path d="M 154.0 95 h 4.25"></path><path d="M 220.75 95 h 4.25"></path><rect height="22" rx="10" ry="10" width="62.5" x="158.25" y="84"></rect><text x="189.5" y="99">"lik"</text></g><path d="M 225.0 95 a 10 10 0 0 0 10 -10 v -10 a 10 10 0 0 1 10 -10"></path><path d="M 134.0 65 a 10 10 0 0 1 10 10 v 40 a 10 10 0 0 0 10 10"></path><g class="terminal ">
<path d="M 154.0 125 h 0.0"></path><path d="M 225.0 125 h 0.0"></path><rect height="22" rx="10" ry="10" width="71.0" x="154.0" y="114"></rect><text x="189.5" y="129">"liv1"</text></g><path d="M 225.0 125 a 10 10 0 0 0 10 -10 v -40 a 10 10 0 0 1 10 -10"></path><path d="M 134.0 65 a 10 10 0 0 1 10 10 v 70 a 10 10 0 0 0 10 10"></path><g class="terminal ">
<path d="M 154.0 155 h 0.0"></path><path d="M 225.0 155 h 0.0"></path><rect height="22" rx="10" ry="10" width="71.0" x="154.0" y="144"></rect><text x="189.5" y="159">"liv2"</text></g><path d="M 225.0 155 a 10 10 0 0 0 10 -10 v -70 a 10 10 0 0 1 10 -10"></path><path d="M 134.0 65 a 10 10 0 0 1 10 10 v 100 a 10 10 0 0 0 10 10"></path><g class="terminal ">
<path d="M 154.0 185 h 0.0"></path><path d="M 225.0 185 h 0.0"></path><rect height="22" rx="10" ry="10" width="71.0" x="154.0" y="174"></rect><text x="189.5" y="189">"liv3"</text></g><path d="M 225.0 185 a 10 10 0 0 0 10 -10 v -100 a 10 10 0 0 1 10 -10"></path><path d="M 134.0 65 a 10 10 0 0 1 10 10 v 130 a 10 10 0 0 0 10 10"></path><g class="terminal ">
<path d="M 154.0 215 h 0.0"></path><path d="M 225.0 215 h 0.0"></path><rect height="22" rx="10" ry="10" width="71.0" x="154.0" y="204"></rect><text x="189.5" y="219">"liv4"</text></g><path d="M 225.0 215 a 10 10 0 0 0 10 -10 v -130 a 10 10 0 0 1 10 -10"></path><path d="M 134.0 65 a 10 10 0 0 1 10 10 v 160 a 10 10 0 0 0 10 10"></path><g class="terminal ">
<path d="M 154.0 245 h 0.0"></path><path d="M 225.0 245 h 0.0"></path><rect height="22" rx="10" ry="10" width="71.0" x="154.0" y="234"></rect><text x="189.5" y="249">"liv5"</text></g><path d="M 225.0 245 a 10 10 0 0 0 10 -10 v -160 a 10 10 0 0 1 10 -10"></path><path d="M 134.0 65 a 10 10 0 0 1 10 10 v 190 a 10 10 0 0 0 10 10"></path><g class="terminal ">
<path d="M 154.0 275 h 4.25"></path><path d="M 220.75 275 h 4.25"></path><rect height="22" rx="10" ry="10" width="62.5" x="158.25" y="264"></rect><text x="189.5" y="279">"liv"</text></g><path d="M 225.0 275 a 10 10 0 0 0 10 -10 v -190 a 10 10 0 0 1 10 -10"></path></g></g><g class="non-terminal ">
<path d="M 124.0 28 h 0.0"></path><path d="M 141.0 28 h 0.0"></path><text class="comment" x="132.5" y="33">➋</text></g></g><path d="M 255.0 65 h 10"></path><path d="M 265.0 65 h 10"></path><g>
<path d="M 275.0 65 h 0.0"></path><path d="M 386.0 65 h 0.0"></path><path d="M 275.0 65 h 20"></path><g class="terminal ">
<path d="M 295.0 65 h 12.75"></path><path d="M 353.25 65 h 12.75"></path><rect height="22" rx="10" ry="10" width="45.5" x="307.75" y="54"></rect><text x="330.5" y="69">' '</text></g><path d="M 366.0 65 h 20"></path><path d="M 275.0 65 a 10 10 0 0 1 10 10 v 10 a 10 10 0 0 0 10 10"></path><g class="terminal altterminal">
<path d="M 295.0 95 h 0.0"></path><path d="M 366.0 95 h 0.0"></path><rect height="22" rx="10" ry="10" width="71.0" x="295.0" y="84"></rect><text x="330.5" y="99">TAGEND</text></g><path d="M 366.0 95 a 10 10 0 0 0 10 -10 v -10 a 10 10 0 0 1 10 -10"></path></g><path d="M 386.0 65 h 10"></path><path d="M 396.0 65 h 10"></path><g>
<path d="M 406.0 65 h 0.0"></path><path d="M 659.5 65 h 0.0"></path><path d="M 406.0 65 a 10 10 0 0 0 10 -10 v -9 a 10 10 0 0 1 10 -10"></path><g>
<path d="M 426.0 36 h 213.5"></path></g><path d="M 639.5 36 a 10 10 0 0 1 10 10 v 9 a 10 10 0 0 0 10 10"></path><path d="M 406.0 65 h 20"></path><g>
<path d="M 426.0 65 h 0.0"></path><path d="M 639.5 65 h 0.0"></path><path d="M 426.0 65 h 10"></path><g>
<path d="M 436.0 65 h 0.0"></path><path d="M 629.5 65 h 0.0"></path><path d="M 436.0 65 h 20"></path><g>
<path d="M 456.0 65 h 0.0"></path><path d="M 609.5 65 h 0.0"></path><g class="terminal ">
<path d="M 456.0 65 h 0.0"></path><path d="M 510.0 65 h 0.0"></path><rect height="22" rx="10" ry="10" width="54.0" x="456.0" y="54"></rect><text x="483.0" y="69">TEXT</text></g><path d="M 510.0 65 h 10"></path><path d="M 520.0 65 h 10"></path><g class="terminal ">
<path d="M 530.0 65 h 0.0"></path><path d="M 609.5 65 h 0.0"></path><rect height="22" rx="10" ry="10" width="79.5" x="530.0" y="54"></rect><text x="569.75" y="69">TEXTEND</text></g></g><path d="M 609.5 65 h 20"></path><path d="M 436.0 65 a 10 10 0 0 1 10 10 v 10 a 10 10 0 0 0 10 10"></path><g class="non-terminal ">
<path d="M 456.0 95 h 28.5"></path><path d="M 581.0 95 h 28.5"></path><rect height="22" width="96.5" x="484.5" y="84"></rect><text x="532.75" y="99">CharEmbed</text></g><path d="M 609.5 95 a 10 10 0 0 0 10 -10 v -10 a 10 10 0 0 1 10 -10"></path><path d="M 436.0 65 a 10 10 0 0 1 10 10 v 40 a 10 10 0 0 0 10 10"></path><g class="non-terminal ">
<path d="M 456.0 125 h 41.25"></path><path d="M 568.25 125 h 41.25"></path><rect height="22" width="71.0" x="497.25" y="114"></rect><text x="532.75" y="129">Figure</text></g><path d="M 609.5 125 a 10 10 0 0 0 10 -10 v -40 a 10 10 0 0 1 10 -10"></path><path d="M 436.0 65 a 10 10 0 0 1 10 10 v 70 a 10 10 0 0 0 10 10"></path><g class="non-terminal ">
<path d="M 456.0 155 h 28.5"></path><path d="M 581.0 155 h 28.5"></path><rect height="22" width="96.5" x="484.5" y="144"></rect><text x="532.75" y="159">Milestone</text></g><path d="M 609.5 155 a 10 10 0 0 0 10 -10 v -70 a 10 10 0 0 1 10 -10"></path><path d="M 436.0 65 a 10 10 0 0 1 10 10 v 100 a 10 10 0 0 0 10 10"></path><g class="non-terminal ">
<path d="M 456.0 185 h 32.75"></path><path d="M 576.75 185 h 32.75"></path><rect height="22" width="88.0" x="488.75" y="174"></rect><text x="532.75" y="189">Footnote</text></g><path d="M 609.5 185 a 10 10 0 0 0 10 -10 v -100 a 10 10 0 0 1 10 -10"></path><path d="M 436.0 65 a 10 10 0 0 1 10 10 v 130 a 10 10 0 0 0 10 10"></path><g class="non-terminal ">
<path d="M 456.0 215 h 7.25"></path><path d="M 602.25 215 h 7.25"></path><rect height="22" width="139.0" x="463.25" y="204"></rect><text x="532.75" y="219">CrossReference</text></g><path d="M 609.5 215 a 10 10 0 0 0 10 -10 v -130 a 10 10 0 0 1 10 -10"></path><path d="M 436.0 65 a 10 10 0 0 1 10 10 v 160 a 10 10 0 0 0 10 10"></path><g class="non-terminal ">
<path d="M 456.0 245 h 45.5"></path><path d="M 564.0 245 h 45.5"></path><rect height="22" width="62.5" x="501.5" y="234"></rect><text x="532.75" y="249">Break</text></g><path d="M 609.5 245 a 10 10 0 0 0 10 -10 v -160 a 10 10 0 0 1 10 -10"></path><path d="M 436.0 65 a 10 10 0 0 1 10 10 v 190 a 10 10 0 0 0 10 10"></path><g class="non-terminal ">
<path d="M 456.0 275 h 28.5"></path><path d="M 581.0 275 h 28.5"></path><rect height="22" width="96.5" x="484.5" y="264"></rect><text x="532.75" y="279">Reference</text></g><path d="M 609.5 275 a 10 10 0 0 0 10 -10 v -190 a 10 10 0 0 1 10 -10"></path></g><path d="M 629.5 65 h 10"></path><path d="M 436.0 65 a 10 10 0 0 0 -10 10 v 219 a 10 10 0 0 0 10 10"></path><g>
<path d="M 436.0 304 h 193.5"></path></g><path d="M 629.5 304 a 10 10 0 0 0 10 -10 v -219 a 10 10 0 0 0 -10 -10"></path></g><path d="M 639.5 65 h 20"></path></g><path d="M 659.5 65 h 10"></path><path d="M 669.5 65 h 10"></path><g>
<path d="M 679.5 65 h 0.0"></path><path d="M 904.5 65 h 0.0"></path><path d="M 679.5 65 h 20"></path><g>
<path d="M 699.5 65 h 185.0"></path></g><path d="M 884.5 65 h 20"></path><path d="M 679.5 65 a 10 10 0 0 1 10 10 v 0 a 10 10 0 0 0 10 10"></path><g>
<path d="M 699.5 85 h 0.0"></path><path d="M 884.5 85 h 0.0"></path><g class="terminal ">
<path d="M 699.5 85 h 0.0"></path><path d="M 753.5 85 h 0.0"></path><rect height="22" rx="10" ry="10" width="54.0" x="699.5" y="74"></rect><text x="726.5" y="89">'\\'</text></g><path d="M 753.5 85 h 10"></path><path d="M 763.5 85 h 10"></path><g class="terminal ">
<path d="M 773.5 85 h 0.0"></path><path d="M 819.0 85 h 0.0"></path><rect height="22" rx="10" ry="10" width="45.5" x="773.5" y="74"></rect><text x="796.25" y="89">⇐ ➋</text></g><path d="M 819.0 85 h 10"></path><path d="M 829.0 85 h 10"></path><g class="terminal ">
<path d="M 839.0 85 h 0.0"></path><path d="M 884.5 85 h 0.0"></path><rect height="22" rx="10" ry="10" width="45.5" x="839.0" y="74"></rect><text x="861.75" y="89">'&#42;'</text></g></g><path d="M 884.5 85 a 10 10 0 0 0 10 -10 v 0 a 10 10 0 0 1 10 -10"></path></g></g><path d="M 904.5 65 h 10"></path><path d="M 914.5 65 h 20 m 0 -10 v 20"></path></g></svg>