<svg class="railroad-diagram" height="468" viewBox="0 0 1521.5 468" width="1521.5" xmlns="http://www.w3.org/2000/svg" xmlns:xlink="http://www.w3.org/1999/xlink">
<g transform="translate(.5 .5)">
<style>/* <![CDATA[ */

    svg.railroad-diagram {
        background-color: hsl(30,20%,95%);
    }
    svg.railroad-diagram path {
        stroke-width: 2;
        stroke: black;
        fill: none;
    }
    svg.railroad-diagram text {
        font-size: 12px;
        text-anchor: middle;
        font-family: DejaVu Sans;
    }
    svg.railroad-diagram text.label {
        text-anchor:start;
    }
    svg.railroad-diagram text.comment {
        font-family: DejaVu Sans;
        font-size: 14px;
    }
    svg.railroad-diagram rect{
        stroke-width: 2;
        stroke: black;
        fill: rgb(210, 255, 210);
    }
    svg.railroad-diagram rect.group-box {
        stroke: gray;
        stroke-dasharray: 10 5;
        fill: none;
    }
    .terminal {
        font-family: DejaVu Sans;
    }
    svg.railroad-diagram g.altterminal rect {
        fill: rgb(251, 252, 207)
    }

/* ]]> */
</style><g>
<path d="M 20 129 v 20 m 0 -10 h 20"></path></g><path d="M 40 139 h 10"></path><g>
<path d="M 50 139 h 0.0"></path><path d="M 1471.5 139 h 0.0"></path><g>
<path d="M 50.0 139 h 0.0"></path><path d="M 186.5 139 h 0.0"></path><path d="M 50.0 139 h 20"></path><g class="terminal ">
<path d="M 70.0 139 h 12.75"></path><path d="M 153.75 139 h 12.75"></path><rect height="22" rx="10" ry="10" width="71.0" x="82.75" y="128"></rect><text x="118.25" y="143">'\n\\'</text></g><path d="M 166.5 139 h 20"></path><path d="M 50.0 139 a 10 10 0 0 1 10 10 v 10 a 10 10 0 0 0 10 10"></path><g class="terminal altterminal">
<path d="M 70.0 169 h 0.0"></path><path d="M 166.5 169 h 0.0"></path><rect height="22" rx="10" ry="10" width="96.5" x="70.0" y="158"></rect><text x="118.25" y="173">/${Ws}\\/</text></g><path d="M 166.5 169 a 10 10 0 0 0 10 -10 v -10 a 10 10 0 0 1 10 -10"></path></g><path d="M 186.5 139 h 10"></path><g>
<path d="M 196.5 139 h 0.0"></path><path d="M 498.5 139 h 0.0"></path><path d="M 196.5 139 a 10 10 0 0 0 10 -10 v -99 a 10 10 0 0 1 10 -10 h 121.0"></path><path d="M 357.5 168 h 121.0 a 10 10 0 0 0 10 -10 v -9 a 10 10 0 0 1 10 -10"></path><path d="M 196.5 139 h 10"></path><g>
<path d="M 206.5 139 h 10.0"></path><path d="M 327.5 139 h 10.0"></path><path d="M 216.5 139 a 10 10 0 0 0 10 -10 v -10 a 10 10 0 0 1 10 -10"></path><g class="terminal ">
<path d="M 236.5 109 h 4.25"></path><path d="M 303.25 109 h 4.25"></path><rect height="22" rx="10" ry="10" width="62.5" x="240.75" y="98"></rect><text x="272.0" y="113">"li2"</text></g><path d="M 307.5 109 a 10 10 0 0 1 10 10 v 10 a 10 10 0 0 0 10 10"></path><path d="M 216.5 139 a 10 10 0 0 0 10 -10 v -40 a 10 10 0 0 1 10 -10"></path><g class="terminal ">
<path d="M 236.5 79 h 4.25"></path><path d="M 303.25 79 h 4.25"></path><rect height="22" rx="10" ry="10" width="62.5" x="240.75" y="68"></rect><text x="272.0" y="83">"li1"</text></g><path d="M 307.5 79 a 10 10 0 0 1 10 10 v 40 a 10 10 0 0 0 10 10"></path><path d="M 216.5 139 a 10 10 0 0 0 10 -10 v -70 a 10 10 0 0 1 10 -10"></path><g class="terminal ">
<path d="M 236.5 49 h 8.5"></path><path d="M 299.0 49 h 8.5"></path><rect height="22" rx="10" ry="10" width="54.0" x="245.0" y="38"></rect><text x="272.0" y="53">"lh"</text></g><path d="M 307.5 49 a 10 10 0 0 1 10 10 v 70 a 10 10 0 0 0 10 10"></path><path d="M 216.5 139 h 20"></path><g class="terminal ">
<path d="M 236.5 139 h 4.25"></path><path d="M 303.25 139 h 4.25"></path><rect height="22" rx="10" ry="10" width="62.5" x="240.75" y="128"></rect><text x="272.0" y="143">"li3"</text></g><path d="M 307.5 139 h 20"></path><path d="M 216.5 139 a 10 10 0 0 1 10 10 v 10 a 10 10 0 0 0 10 10"></path><g class="terminal ">
<path d="M 236.5 169 h 4.25"></path><path d="M 303.25 169 h 4.25"></path><rect height="22" rx="10" ry="10" width="62.5" x="240.75" y="158"></rect><text x="272.0" y="173">"li4"</text></g><path d="M 307.5 169 a 10 10 0 0 0 10 -10 v -10 a 10 10 0 0 1 10 -10"></path><path d="M 216.5 139 a 10 10 0 0 1 10 10 v 40 a 10 10 0 0 0 10 10"></path><g class="terminal ">
<path d="M 236.5 199 h 0.0"></path><path d="M 307.5 199 h 0.0"></path><rect height="22" rx="10" ry="10" width="71.0" x="236.5" y="188"></rect><text x="272.0" y="203">"lim1"</text></g><path d="M 307.5 199 a 10 10 0 0 0 10 -10 v -40 a 10 10 0 0 1 10 -10"></path><path d="M 216.5 139 a 10 10 0 0 1 10 10 v 70 a 10 10 0 0 0 10 10"></path><g class="terminal ">
<path d="M 236.5 229 h 0.0"></path><path d="M 307.5 229 h 0.0"></path><rect height="22" rx="10" ry="10" width="71.0" x="236.5" y="218"></rect><text x="272.0" y="233">"lim2"</text></g><path d="M 307.5 229 a 10 10 0 0 0 10 -10 v -70 a 10 10 0 0 1 10 -10"></path><path d="M 216.5 139 a 10 10 0 0 1 10 10 v 100 a 10 10 0 0 0 10 10"></path><g class="terminal ">
<path d="M 236.5 259 h 0.0"></path><path d="M 307.5 259 h 0.0"></path><rect height="22" rx="10" ry="10" width="71.0" x="236.5" y="248"></rect><text x="272.0" y="263">"lim3"</text></g><path d="M 307.5 259 a 10 10 0 0 0 10 -10 v -100 a 10 10 0 0 1 10 -10"></path></g><path d="M 337.5 139 a 10 10 0 0 1 10 10 v 9 a 10 10 0 0 0 10 10"></path><path d="M 337.5 20 a 10 10 0 0 1 10 10 v 99 a 10 10 0 0 0 10 10"></path><g>
<path d="M 357.5 139 h 10.0"></path><path d="M 478.5 139 h 10.0"></path><path d="M 367.5 139 a 10 10 0 0 0 10 -10 v -10 a 10 10 0 0 1 10 -10"></path><g class="terminal ">
<path d="M 387.5 109 h 8.5"></path><path d="M 450.0 109 h 8.5"></path><rect height="22" rx="10" ry="10" width="54.0" x="396.0" y="98"></rect><text x="423.0" y="113">"li"</text></g><path d="M 458.5 109 a 10 10 0 0 1 10 10 v 10 a 10 10 0 0 0 10 10"></path><path d="M 367.5 139 a 10 10 0 0 0 10 -10 v -40 a 10 10 0 0 1 10 -10"></path><g class="terminal ">
<path d="M 387.5 79 h 4.25"></path><path d="M 454.25 79 h 4.25"></path><rect height="22" rx="10" ry="10" width="62.5" x="391.75" y="68"></rect><text x="423.0" y="83">"lim"</text></g><path d="M 458.5 79 a 10 10 0 0 1 10 10 v 40 a 10 10 0 0 0 10 10"></path><path d="M 367.5 139 a 10 10 0 0 0 10 -10 v -70 a 10 10 0 0 1 10 -10"></path><g class="terminal ">
<path d="M 387.5 49 h 0.0"></path><path d="M 458.5 49 h 0.0"></path><rect height="22" rx="10" ry="10" width="71.0" x="387.5" y="38"></rect><text x="423.0" y="53">"lim4"</text></g><path d="M 458.5 49 a 10 10 0 0 1 10 10 v 70 a 10 10 0 0 0 10 10"></path><path d="M 367.5 139 h 20"></path><g class="terminal ">
<path d="M 387.5 139 h 8.5"></path><path d="M 450.0 139 h 8.5"></path><rect height="22" rx="10" ry="10" width="54.0" x="396.0" y="128"></rect><text x="423.0" y="143">"lf"</text></g><path d="M 458.5 139 h 20"></path></g><path d="M 488.5 139 h 10"></path></g><path d="M 498.5 139 h 10"></path><g>
<path d="M 508.5 139 h 0.0"></path><path d="M 619.5 139 h 0.0"></path><path d="M 508.5 139 h 20"></path><g class="terminal ">
<path d="M 528.5 139 h 12.75"></path><path d="M 586.75 139 h 12.75"></path><rect height="22" rx="10" ry="10" width="45.5" x="541.25" y="128"></rect><text x="564.0" y="143">' '</text></g><path d="M 599.5 139 h 20"></path><path d="M 508.5 139 a 10 10 0 0 1 10 10 v 10 a 10 10 0 0 0 10 10"></path><g class="terminal altterminal">
<path d="M 528.5 169 h 0.0"></path><path d="M 599.5 169 h 0.0"></path><rect height="22" rx="10" ry="10" width="71.0" x="528.5" y="158"></rect><text x="564.0" y="173">TAGEND</text></g><path d="M 599.5 169 a 10 10 0 0 0 10 -10 v -10 a 10 10 0 0 1 10 -10"></path></g><path d="M 619.5 139 h 10"></path><path d="M 629.5 139 h 10"></path><g>
<path d="M 639.5 139 h 0.0"></path><path d="M 1198.0 139 h 0.0"></path><path d="M 639.5 139 h 20"></path><g>
<path d="M 659.5 139 h 518.5"></path></g><path d="M 1178.0 139 h 20"></path><path d="M 639.5 139 a 10 10 0 0 1 10 10 v 9 a 10 10 0 0 0 10 10"></path><g>
<path d="M 659.5 168 h 0.0"></path><path d="M 1178.0 237 h 0.0"></path><g>
<path d="M 659.5 168 h 0.0"></path><path d="M 753.5 168 h 0.0"></path><path d="M 659.5 168 h 20"></path><g class="terminal ">
<path d="M 679.5 168 h 4.25"></path><path d="M 729.25 168 h 4.25"></path><rect height="22" rx="10" ry="10" width="45.5" x="683.75" y="157"></rect><text x="706.5" y="172">'|'</text></g><path d="M 733.5 168 h 20"></path><path d="M 659.5 168 a 10 10 0 0 1 10 10 v 10 a 10 10 0 0 0 10 10"></path><g class="terminal altterminal">
<path d="M 679.5 198 h 0.0"></path><path d="M 733.5 198 h 0.0"></path><rect height="22" rx="10" ry="10" width="54.0" x="679.5" y="187"></rect><text x="706.5" y="202">PIPE</text></g><path d="M 733.5 198 a 10 10 0 0 0 10 -10 v -10 a 10 10 0 0 1 10 -10"></path></g><path d="M 753.5 168 h 10"></path><path d="M 763.5 168 h 10"></path><g>
<path d="M 773.5 168 h 0.0"></path><path d="M 773.5 168 h 10"></path><g>
<path d="M 783.5 168 h 10.0"></path><path d="M 1044.0 168 h 10.0"></path><path d="M 793.5 168 h 20"></path><g>
<path d="M 813.5 168 h 210.5"></path></g><path d="M 1024.0 168 h 20"></path><path d="M 793.5 168 a 10 10 0 0 1 10 10 v 0 a 10 10 0 0 0 10 10"></path><g>
<path d="M 813.5 188 h 0.0"></path><path d="M 1024.0 188 h 0.0"></path><g class="terminal ">
<path d="M 813.5 188 h 0.0"></path><path d="M 893.0 188 h 0.0"></path><rect height="22" rx="10" ry="10" width="79.5" x="813.5" y="177"></rect><text x="853.25" y="192">'vid="'</text></g><path d="M 893.0 188 h 10"></path><path d="M 903.0 188 h 10"></path><g class="terminal ">
<path d="M 913.0 188 h 0.0"></path><path d="M 975.5 188 h 0.0"></path><rect height="22" rx="10" ry="10" width="62.5" x="913.0" y="177"></rect><text x="944.25" y="192">VERSE</text></g><path d="M 975.5 188 h 10"></path><path d="M 985.5 188 h 10"></path><g class="terminal ">
<path d="M 995.5 188 h 0.0"></path><path d="M 1024.0 188 h 0.0"></path><rect height="22" rx="10" ry="10" width="28.5" x="995.5" y="177"></rect><text x="1009.75" y="192">"</text></g></g><path d="M 1024.0 188 a 10 10 0 0 0 10 -10 v 0 a 10 10 0 0 1 10 -10"></path></g><path d="M 1054.0 168 a 10 10 0 0 1 10 10 v 29 a 10 10 0 0 1 -10 10 h -270.5 a 10 10 0 0 0 -10 10 v 0 a 10 10 0 0 0 10 10"></path><g>
<path d="M 783.5 237 h 14.25"></path><path d="M 1039.75 237 h 14.25"></path><path d="M 797.75 237 h 20"></path><g>
<path d="M 817.75 237 h 202.0"></path></g><path d="M 1019.75 237 h 20"></path><path d="M 797.75 237 a 10 10 0 0 1 10 10 v 0 a 10 10 0 0 0 10 10"></path><g>
<path d="M 817.75 257 h 0.0"></path><path d="M 1019.75 257 h 0.0"></path><g class="terminal ">
<path d="M 817.75 257 h 0.0"></path><path d="M 897.25 257 h 0.0"></path><rect height="22" rx="10" ry="10" width="79.5" x="817.75" y="246"></rect><text x="857.5" y="261">'aid="'</text></g><path d="M 897.25 257 h 10"></path><path d="M 907.25 257 h 10"></path><g class="terminal ">
<path d="M 917.25 257 h 0.0"></path><path d="M 971.25 257 h 0.0"></path><rect height="22" rx="10" ry="10" width="54.0" x="917.25" y="246"></rect><text x="944.25" y="261">TEXT</text></g><path d="M 971.25 257 h 10"></path><path d="M 981.25 257 h 10"></path><g class="terminal ">
<path d="M 991.25 257 h 0.0"></path><path d="M 1019.75 257 h 0.0"></path><rect height="22" rx="10" ry="10" width="28.5" x="991.25" y="246"></rect><text x="1005.5" y="261">"</text></g></g><path d="M 1019.75 257 a 10 10 0 0 0 10 -10 v 0 a 10 10 0 0 1 10 -10"></path></g><path d="M 1054.0 237 h 10"></path><path d="M 1064.0 237 h 0.0"></path></g><path d="M 1064.0 237 h 10"></path><path d="M 1074.0 237 h 10"></path><g>
<path d="M 1084.0 237 h 0.0"></path><path d="M 1178.0 237 h 0.0"></path><path d="M 1084.0 237 h 20"></path><g class="terminal ">
<path d="M 1104.0 237 h 4.25"></path><path d="M 1153.75 237 h 4.25"></path><rect height="22" rx="10" ry="10" width="45.5" x="1108.25" y="226"></rect><text x="1131.0" y="241">'|'</text></g><path d="M 1158.0 237 h 20"></path><path d="M 1084.0 237 a 10 10 0 0 1 10 10 v 10 a 10 10 0 0 0 10 10"></path><g class="terminal altterminal">
<path d="M 1104.0 267 h 0.0"></path><path d="M 1158.0 267 h 0.0"></path><rect height="22" rx="10" ry="10" width="54.0" x="1104.0" y="256"></rect><text x="1131.0" y="271">PIPE</text></g><path d="M 1158.0 267 a 10 10 0 0 0 10 -10 v -10 a 10 10 0 0 1 10 -10"></path></g></g><path d="M 1178.0 237 a 10 10 0 0 0 10 -10 v -78 a 10 10 0 0 1 10 -10"></path></g><path d="M 1198.0 139 h 10"></path><path d="M 1208.0 139 h 10"></path><g>
<path d="M 1218.0 139 h 0.0"></path><path d="M 1471.5 139 h 0.0"></path><path d="M 1218.0 139 a 10 10 0 0 0 10 -10 v -9 a 10 10 0 0 1 10 -10"></path><g>
<path d="M 1238.0 110 h 213.5"></path></g><path d="M 1451.5 110 a 10 10 0 0 1 10 10 v 9 a 10 10 0 0 0 10 10"></path><path d="M 1218.0 139 h 20"></path><g>
<path d="M 1238.0 139 h 0.0"></path><path d="M 1451.5 139 h 0.0"></path><path d="M 1238.0 139 h 10"></path><g>
<path d="M 1248.0 139 h 0.0"></path><path d="M 1441.5 139 h 0.0"></path><path d="M 1248.0 139 h 20"></path><g>
<path d="M 1268.0 139 h 0.0"></path><path d="M 1421.5 139 h 0.0"></path><g class="terminal ">
<path d="M 1268.0 139 h 0.0"></path><path d="M 1322.0 139 h 0.0"></path><rect height="22" rx="10" ry="10" width="54.0" x="1268.0" y="128"></rect><text x="1295.0" y="143">TEXT</text></g><path d="M 1322.0 139 h 10"></path><path d="M 1332.0 139 h 10"></path><g class="terminal ">
<path d="M 1342.0 139 h 0.0"></path><path d="M 1421.5 139 h 0.0"></path><rect height="22" rx="10" ry="10" width="79.5" x="1342.0" y="128"></rect><text x="1381.75" y="143">TEXTEND</text></g></g><path d="M 1421.5 139 h 20"></path><path d="M 1248.0 139 a 10 10 0 0 1 10 10 v 10 a 10 10 0 0 0 10 10"></path><g class="non-terminal ">
<path d="M 1268.0 169 h 32.75"></path><path d="M 1388.75 169 h 32.75"></path><rect height="22" width="88.0" x="1300.75" y="158"></rect><text x="1344.75" y="173">ListChar</text></g><path d="M 1421.5 169 a 10 10 0 0 0 10 -10 v -10 a 10 10 0 0 1 10 -10"></path><path d="M 1248.0 139 a 10 10 0 0 1 10 10 v 40 a 10 10 0 0 0 10 10"></path><g class="non-terminal ">
<path d="M 1268.0 199 h 28.5"></path><path d="M 1393.0 199 h 28.5"></path><rect height="22" width="96.5" x="1296.5" y="188"></rect><text x="1344.75" y="203">CharEmbed</text></g><path d="M 1421.5 199 a 10 10 0 0 0 10 -10 v -40 a 10 10 0 0 1 10 -10"></path><path d="M 1248.0 139 a 10 10 0 0 1 10 10 v 70 a 10 10 0 0 0 10 10"></path><g class="non-terminal ">
<path d="M 1268.0 229 h 41.25"></path><path d="M 1380.25 229 h 41.25"></path><rect height="22" width="71.0" x="1309.25" y="218"></rect><text x="1344.75" y="233">Figure</text></g><path d="M 1421.5 229 a 10 10 0 0 0 10 -10 v -70 a 10 10 0 0 1 10 -10"></path><path d="M 1248.0 139 a 10 10 0 0 1 10 10 v 100 a 10 10 0 0 0 10 10"></path><g class="non-terminal ">
<path d="M 1268.0 259 h 28.5"></path><path d="M 1393.0 259 h 28.5"></path><rect height="22" width="96.5" x="1296.5" y="248"></rect><text x="1344.75" y="263">Milestone</text></g><path d="M 1421.5 259 a 10 10 0 0 0 10 -10 v -100 a 10 10 0 0 1 10 -10"></path><path d="M 1248.0 139 a 10 10 0 0 1 10 10 v 130 a 10 10 0 0 0 10 10"></path><g class="non-terminal ">
<path d="M 1268.0 289 h 45.5"></path><path d="M 1376.0 289 h 45.5"></path><rect height="22" width="62.5" x="1313.5" y="278"></rect><text x="1344.75" y="293">Verse</text></g><path d="M 1421.5 289 a 10 10 0 0 0 10 -10 v -130 a 10 10 0 0 1 10 -10"></path><path d="M 1248.0 139 a 10 10 0 0 1 10 10 v 160 a 10 10 0 0 0 10 10"></path><g class="non-terminal ">
<path d="M 1268.0 319 h 28.5"></path><path d="M 1393.0 319 h 28.5"></path><rect height="22" width="96.5" x="1296.5" y="308"></rect><text x="1344.75" y="323">Reference</text></g><path d="M 1421.5 319 a 10 10 0 0 0 10 -10 v -160 a 10 10 0 0 1 10 -10"></path><path d="M 1248.0 139 a 10 10 0 0 1 10 10 v 190 a 10 10 0 0 0 10 10"></path><g class="non-terminal ">
<path d="M 1268.0 349 h 32.75"></path><path d="M 1388.75 349 h 32.75"></path><rect height="22" width="88.0" x="1300.75" y="338"></rect><text x="1344.75" y="353">Footnote</text></g><path d="M 1421.5 349 a 10 10 0 0 0 10 -10 v -190 a 10 10 0 0 1 10 -10"></path><path d="M 1248.0 139 a 10 10 0 0 1 10 10 v 220 a 10 10 0 0 0 10 10"></path><g class="non-terminal ">
<path d="M 1268.0 379 h 7.25"></path><path d="M 1414.25 379 h 7.25"></path><rect height="22" width="139.0" x="1275.25" y="368"></rect><text x="1344.75" y="383">CrossReference</text></g><path d="M 1421.5 379 a 10 10 0 0 0 10 -10 v -220 a 10 10 0 0 1 10 -10"></path><path d="M 1248.0 139 a 10 10 0 0 1 10 10 v 250 a 10 10 0 0 0 10 10"></path><g class="non-terminal ">
<path d="M 1268.0 409 h 45.5"></path><path d="M 1376.0 409 h 45.5"></path><rect height="22" width="62.5" x="1313.5" y="398"></rect><text x="1344.75" y="413">Break</text></g><path d="M 1421.5 409 a 10 10 0 0 0 10 -10 v -250 a 10 10 0 0 1 10 -10"></path></g><path d="M 1441.5 139 h 10"></path><path d="M 1248.0 139 a 10 10 0 0 0 -10 10 v 279 a 10 10 0 0 0 10 10"></path><g>
<path d="M 1248.0 438 h 193.5"></path></g><path d="M 1441.5 438 a 10 10 0 0 0 10 -10 v -279 a 10 10 0 0 0 -10 -10"></path></g><path d="M 1451.5 139 h 20"></path></g></g><path d="M 1471.5 139 h 10"></path><path d="M 1481.5 139 h 20 m 0 -10 v 20"></path></g></svg>