<svg class="railroad-diagram" height="578" viewBox="0 0 433.0 578" width="433.0" xmlns="http://www.w3.org/2000/svg" xmlns:xlink="http://www.w3.org/1999/xlink">
<g transform="translate(.5 .5)">
<style>/* <![CDATA[ */

    svg.railroad-diagram {
        background-color:hsl(30,20%,95%);
    }
    svg.railroad-diagram path {
        stroke-width: 2;
        stroke: black;
        fill: none;
    }
    svg.railroad-diagram text {
        font-size: 12px;
        text-anchor: middle;
        font-family: DejaVu Sans;
    }
    svg.railroad-diagram text.label {
        text-anchor:start;
    }
    svg.railroad-diagram text.comment {
        font-family: DejaVu Sans;
        font-size: 14px;
    }
    svg.railroad-diagram rect{
        stroke-width: 2;
        stroke:black;
        fill: rgb(210, 210, 255);
    }
    svg.railroad-diagram rect.group-box {
        stroke: gray;
        stroke-dasharray: 10 5;
        fill: none;
    }
    .terminal {
        font-family: DejaVu Sans;
    }

/* ]]> */
</style><g>
<path d="M 20 291 v 20 m 0 -10 h 20"></path></g><path d="M 40 301 h 10"></path><g>
<path d="M 50 301 h 0.0"></path><path d="M 383.0 301 h 0.0"></path><g>
<path d="M 50.0 301 h 0.0"></path><path d="M 383.0 301 h 0.0"></path><g class="terminal ">
<path d="M 50.0 301 h 0.0"></path><path d="M 121.0 301 h 0.0"></path><rect height="22" rx="10" ry="10" width="71.0" x="50.0" y="290"></rect><text x="85.5" y="305">&#60;char></text></g><path d="M 121.0 301 h 10"></path><path d="M 131.0 301 h 10"></path><g>
<path d="M 141.0 301 h 0.0"></path><path d="M 383.0 301 h 0.0"></path><path d="M 141.0 301 a 10 10 0 0 0 10 -10 v -230 a 10 10 0 0 1 10 -10"></path><g>
<path d="M 161.0 51 h 0.0"></path><path d="M 363.0 51 h 0.0"></path><g class="terminal ">
<path d="M 161.0 51 h 0.0"></path><path d="M 232.0 51 h 0.0"></path><rect height="22" rx="10" ry="10" width="71.0" x="161.0" y="40"></rect><text x="196.5" y="55">@style</text></g><path d="M 232.0 51 h 10"></path><path d="M 242.0 51 h 10"></path><g>
<path d="M 252.0 51 h 0.0"></path><path d="M 252.0 51 h 20"></path><g class="terminal ">
<path d="M 272.0 51 h 0.0"></path><path d="M 343.0 51 h 0.0"></path><rect height="22" rx="10" ry="10" width="71.0" x="272.0" y="40"></rect><text x="307.5" y="55">"litl"</text></g><path d="M 252.0 51 a 10 10 0 0 1 10 10 v 10 a 10 10 0 0 0 10 10"></path><g class="terminal ">
<path d="M 272.0 81 h 0.0"></path><path d="M 334.5 81 h 0.0"></path><rect height="22" rx="10" ry="10" width="62.5" x="272.0" y="70"></rect><text x="303.25" y="85">"lik"</text></g><path d="M 252.0 51 a 10 10 0 0 1 10 10 v 40 a 10 10 0 0 0 10 10"></path><g class="terminal ">
<path d="M 272.0 111 h 0.0"></path><path d="M 343.0 111 h 0.0"></path><rect height="22" rx="10" ry="10" width="71.0" x="272.0" y="100"></rect><text x="307.5" y="115">"liv1"</text></g><path d="M 252.0 51 a 10 10 0 0 1 10 10 v 70 a 10 10 0 0 0 10 10"></path><g class="terminal ">
<path d="M 272.0 141 h 0.0"></path><path d="M 343.0 141 h 0.0"></path><rect height="22" rx="10" ry="10" width="71.0" x="272.0" y="130"></rect><text x="307.5" y="145">"liv2"</text></g><path d="M 252.0 51 a 10 10 0 0 1 10 10 v 100 a 10 10 0 0 0 10 10"></path><g class="terminal ">
<path d="M 272.0 171 h 0.0"></path><path d="M 343.0 171 h 0.0"></path><rect height="22" rx="10" ry="10" width="71.0" x="272.0" y="160"></rect><text x="307.5" y="175">"liv3"</text></g><path d="M 252.0 51 a 10 10 0 0 1 10 10 v 130 a 10 10 0 0 0 10 10"></path><g class="terminal ">
<path d="M 272.0 201 h 0.0"></path><path d="M 343.0 201 h 0.0"></path><rect height="22" rx="10" ry="10" width="71.0" x="272.0" y="190"></rect><text x="307.5" y="205">"liv4"</text></g><path d="M 252.0 51 a 10 10 0 0 1 10 10 v 160 a 10 10 0 0 0 10 10"></path><g class="terminal ">
<path d="M 272.0 231 h 0.0"></path><path d="M 343.0 231 h 0.0"></path><rect height="22" rx="10" ry="10" width="71.0" x="272.0" y="220"></rect><text x="307.5" y="235">"liv5"</text></g><path d="M 252.0 51 a 10 10 0 0 1 10 10 v 190 a 10 10 0 0 0 10 10"></path><g class="terminal ">
<path d="M 272.0 261 h 0.0"></path><path d="M 334.5 261 h 0.0"></path><rect height="22" rx="10" ry="10" width="62.5" x="272.0" y="250"></rect><text x="303.25" y="265">"liv"</text></g></g></g><path d="M 141.0 301 h 20"></path><g class="non-terminal ">
<path d="M 161.0 301 h 52.75"></path><path d="M 310.25 301 h 52.75"></path><rect height="22" width="96.5" x="213.75" y="290"></rect><text x="262.0" y="305">char.link</text></g><path d="M 363.0 301 h 20"></path><path d="M 141.0 301 a 10 10 0 0 1 10 10 v 38 a 10 10 0 0 0 10 10"></path><g>
<path d="M 161.0 359 h 2.75"></path><path d="M 360.25 359 h 2.75"></path><path d="M 163.75 359 a 10 10 0 0 0 10 -10 v -9 a 10 10 0 0 1 10 -10"></path><g>
<path d="M 183.75 330 h 156.5"></path></g><path d="M 340.25 330 a 10 10 0 0 1 10 10 v 9 a 10 10 0 0 0 10 10"></path><path d="M 163.75 359 h 20"></path><g>
<path d="M 183.75 359 h 0.0"></path><path d="M 340.25 359 h 0.0"></path><path d="M 183.75 359 h 10"></path><g>
<path d="M 193.75 359 h 0.0"></path><path d="M 330.25 359 h 0.0"></path><path d="M 193.75 359 h 20"></path><g class="non-terminal ">
<path d="M 213.75 359 h 0.0"></path><path d="M 310.25 359 h 0.0"></path><rect height="22" width="96.5" x="213.75" y="348"></rect><text x="262.0" y="363">Reference</text></g><path d="M 310.25 359 h 20"></path><path d="M 193.75 359 a 10 10 0 0 1 10 10 v 10 a 10 10 0 0 0 10 10"></path><g class="non-terminal ">
<path d="M 213.75 389 h 21.25"></path><path d="M 289.0 389 h 21.25"></path><rect height="22" width="54.0" x="235.0" y="378"></rect><text x="262.0" y="393">Char</text></g><path d="M 310.25 389 a 10 10 0 0 0 10 -10 v -10 a 10 10 0 0 1 10 -10"></path><path d="M 193.75 359 a 10 10 0 0 1 10 10 v 40 a 10 10 0 0 0 10 10"></path><g class="non-terminal ">
<path d="M 213.75 419 h 0.0"></path><path d="M 310.25 419 h 0.0"></path><rect height="22" width="96.5" x="213.75" y="408"></rect><text x="262.0" y="423">Milestone</text></g><path d="M 310.25 419 a 10 10 0 0 0 10 -10 v -40 a 10 10 0 0 1 10 -10"></path><path d="M 193.75 359 a 10 10 0 0 1 10 10 v 70 a 10 10 0 0 0 10 10"></path><g class="non-terminal ">
<path d="M 213.75 449 h 4.25"></path><path d="M 306.0 449 h 4.25"></path><rect height="22" width="88.0" x="218.0" y="438"></rect><text x="262.0" y="453">Footnote</text></g><path d="M 310.25 449 a 10 10 0 0 0 10 -10 v -70 a 10 10 0 0 1 10 -10"></path><path d="M 193.75 359 a 10 10 0 0 1 10 10 v 100 a 10 10 0 0 0 10 10"></path><g class="non-terminal ">
<path d="M 213.75 479 h 17.0"></path><path d="M 293.25 479 h 17.0"></path><rect height="22" width="62.5" x="230.75" y="468"></rect><text x="262.0" y="483">Break</text></g><path d="M 310.25 479 a 10 10 0 0 0 10 -10 v -100 a 10 10 0 0 1 10 -10"></path><path d="M 193.75 359 a 10 10 0 0 1 10 10 v 130 a 10 10 0 0 0 10 10"></path><g class="terminal ">
<path d="M 213.75 509 h 21.25"></path><path d="M 289.0 509 h 21.25"></path><rect height="22" rx="10" ry="10" width="54.0" x="235.0" y="498"></rect><text x="262.0" y="513">TEXT</text></g><path d="M 310.25 509 a 10 10 0 0 0 10 -10 v -130 a 10 10 0 0 1 10 -10"></path></g><path d="M 330.25 359 h 10"></path><path d="M 193.75 359 a 10 10 0 0 0 -10 10 v 159 a 10 10 0 0 0 10 10"></path><g>
<path d="M 193.75 538 h 136.5"></path></g><path d="M 330.25 538 a 10 10 0 0 0 10 -10 v -159 a 10 10 0 0 0 -10 -10"></path></g><path d="M 340.25 359 h 20"></path></g><path d="M 363.0 359 a 10 10 0 0 0 10 -10 v -38 a 10 10 0 0 1 10 -10"></path></g></g></g><path d="M 383.0 301 h 10"></path><path d="M 393.0 301 h 20 m 0 -10 v 20"></path></g></svg>