<svg class="railroad-diagram" height="648" viewBox="0 0 605.5 648" width="605.5" xmlns="http://www.w3.org/2000/svg" xmlns:xlink="http://www.w3.org/1999/xlink">
<g transform="translate(.5 .5)">
<style>/* <![CDATA[ */

    svg.railroad-diagram {
        background-color:hsl(30,20%,95%);
    }
    svg.railroad-diagram path {
        stroke-width: 2;
        stroke: black;
        fill: none;
    }
    svg.railroad-diagram text {
        font-size: 12px;
        text-anchor: middle;
        font-family: DejaVu Sans;
    }
    svg.railroad-diagram text.label {
        text-anchor:start;
    }
    svg.railroad-diagram text.comment {
        font-family: DejaVu Sans;
        font-size: 14px;
    }
    svg.railroad-diagram rect{
        stroke-width: 2;
        stroke:black;
        fill: rgb(210, 210, 255);
    }
    svg.railroad-diagram rect.group-box {
        stroke: gray;
        stroke-dasharray: 10 5;
        fill: none;
    }
    .terminal {
        font-family: DejaVu Sans;
    }

/* ]]> */
</style><g>
<path d="M 20 339 v 20 m 0 -10 h 20"></path></g><path d="M 40 349 h 10"></path><g>
<path d="M 50 349 h 0.0"></path><path d="M 555.5 349 h 0.0"></path><g>
<path d="M 50.0 349 h 0.0"></path><path d="M 555.5 349 h 0.0"></path><g class="terminal ">
<path d="M 50.0 349 h 0.0"></path><path d="M 121.0 349 h 0.0"></path><rect height="22" rx="10" ry="10" width="71.0" x="50.0" y="338"></rect><text x="85.5" y="353">&#60;para></text></g><path d="M 121.0 349 h 10"></path><path d="M 131.0 349 h 10"></path><g>
<path d="M 141.0 349 h 0.0"></path><path d="M 555.5 349 h 0.0"></path><path d="M 141.0 349 a 10 10 0 0 0 10 -10 v -150 a 10 10 0 0 1 10 -10"></path><g>
<path d="M 161.0 179 h 0.0"></path><path d="M 535.5 179 h 0.0"></path><g class="terminal ">
<path d="M 161.0 179 h 0.0"></path><path d="M 232.0 179 h 0.0"></path><rect height="22" rx="10" ry="10" width="71.0" x="161.0" y="168"></rect><text x="196.5" y="183">@style</text></g><path d="M 232.0 179 h 10"></path><g>
<path d="M 242.0 179 h 0.0"></path><path d="M 535.5 179 h 0.0"></path><path d="M 242.0 179 a 10 10 0 0 0 10 -10 v -99 a 10 10 0 0 1 10 -10 h 92.5"></path><path d="M 242.0 179 h 10"></path><g>
<path d="M 252.0 179 h 0.0"></path><path d="M 252.0 179 a 10 10 0 0 0 10 -10 v -10 a 10 10 0 0 1 10 -10"></path><g class="terminal ">
<path d="M 272.0 149 h 0.0"></path><path d="M 334.5 149 h 0.0"></path><rect height="22" rx="10" ry="10" width="62.5" x="272.0" y="138"></rect><text x="303.25" y="153">"li1"</text></g><path d="M 252.0 179 a 10 10 0 0 0 10 -10 v -40 a 10 10 0 0 1 10 -10"></path><g class="terminal ">
<path d="M 272.0 119 h 0.0"></path><path d="M 326.0 119 h 0.0"></path><rect height="22" rx="10" ry="10" width="54.0" x="272.0" y="108"></rect><text x="299.0" y="123">"li"</text></g><path d="M 252.0 179 a 10 10 0 0 0 10 -10 v -70 a 10 10 0 0 1 10 -10"></path><g class="terminal ">
<path d="M 272.0 89 h 0.0"></path><path d="M 326.0 89 h 0.0"></path><rect height="22" rx="10" ry="10" width="54.0" x="272.0" y="78"></rect><text x="299.0" y="93">"lh"</text></g><path d="M 252.0 179 h 20"></path><g class="terminal ">
<path d="M 272.0 179 h 0.0"></path><path d="M 334.5 179 h 0.0"></path><rect height="22" rx="10" ry="10" width="62.5" x="272.0" y="168"></rect><text x="303.25" y="183">"li2"</text></g><path d="M 252.0 179 a 10 10 0 0 1 10 10 v 10 a 10 10 0 0 0 10 10"></path><g class="terminal ">
<path d="M 272.0 209 h 0.0"></path><path d="M 334.5 209 h 0.0"></path><rect height="22" rx="10" ry="10" width="62.5" x="272.0" y="198"></rect><text x="303.25" y="213">"li3"</text></g><path d="M 252.0 179 a 10 10 0 0 1 10 10 v 40 a 10 10 0 0 0 10 10"></path><g class="terminal ">
<path d="M 272.0 239 h 0.0"></path><path d="M 334.5 239 h 0.0"></path><rect height="22" rx="10" ry="10" width="62.5" x="272.0" y="228"></rect><text x="303.25" y="243">"li4"</text></g><path d="M 252.0 179 a 10 10 0 0 1 10 10 v 70 a 10 10 0 0 0 10 10"></path><g class="terminal ">
<path d="M 272.0 269 h 0.0"></path><path d="M 326.0 269 h 0.0"></path><rect height="22" rx="10" ry="10" width="54.0" x="272.0" y="258"></rect><text x="299.0" y="273">"lf"</text></g><path d="M 252.0 179 a 10 10 0 0 1 10 10 v 100 a 10 10 0 0 0 10 10"></path><g class="terminal ">
<path d="M 272.0 299 h 0.0"></path><path d="M 334.5 299 h 0.0"></path><rect height="22" rx="10" ry="10" width="62.5" x="272.0" y="288"></rect><text x="303.25" y="303">"lim"</text></g></g><path d="M 354.5 60 a 10 10 0 0 1 10 10 v 99 a 10 10 0 0 0 10 10"></path><g>
<path d="M 374.5 179 h 0.0"></path><path d="M 374.5 179 a 10 10 0 0 0 10 -10 v -10 a 10 10 0 0 1 10 -10"></path><g class="terminal ">
<path d="M 394.5 149 h 0.0"></path><path d="M 465.5 149 h 0.0"></path><rect height="22" rx="10" ry="10" width="71.0" x="394.5" y="138"></rect><text x="430.0" y="153">"lim3"</text></g><path d="M 374.5 179 a 10 10 0 0 0 10 -10 v -40 a 10 10 0 0 1 10 -10"></path><g class="terminal ">
<path d="M 394.5 119 h 0.0"></path><path d="M 465.5 119 h 0.0"></path><rect height="22" rx="10" ry="10" width="71.0" x="394.5" y="108"></rect><text x="430.0" y="123">"lim2"</text></g><path d="M 374.5 179 a 10 10 0 0 0 10 -10 v -70 a 10 10 0 0 1 10 -10"></path><g class="terminal ">
<path d="M 394.5 89 h 0.0"></path><path d="M 465.5 89 h 0.0"></path><rect height="22" rx="10" ry="10" width="71.0" x="394.5" y="78"></rect><text x="430.0" y="93">"lim1"</text></g><path d="M 374.5 179 h 20"></path><g class="terminal ">
<path d="M 394.5 179 h 0.0"></path><path d="M 465.5 179 h 0.0"></path><rect height="22" rx="10" ry="10" width="71.0" x="394.5" y="168"></rect><text x="430.0" y="183">"lim4"</text></g></g></g></g><path d="M 141.0 349 a 10 10 0 0 0 10 -10 v -288 a 10 10 0 0 1 10 -10"></path><g>
<path d="M 161.0 41 h 0.0"></path><path d="M 484.5 41 h 0.0"></path><g class="terminal ">
<path d="M 161.0 41 h 0.0"></path><path d="M 215.0 41 h 0.0"></path><rect height="22" rx="10" ry="10" width="54.0" x="161.0" y="30"></rect><text x="188.0" y="45">@vid</text></g><path d="M 215.0 41 h 10"></path><path d="M 225.0 41 h 10"></path><g class="terminal ">
<path d="M 235.0 41 h 0.0"></path><path d="M 484.5 41 h 0.0"></path><rect height="22" rx="10" ry="10" width="249.5" x="235.0" y="30"></rect><text x="359.75" y="45">/&#91;A-Z1-4&#93;{3} ?&#91;a-z0-9\-:&#93;&#42;/</text></g></g><path d="M 141.0 349 h 20"></path><g>
<path d="M 161.0 349 h 87.75"></path><path d="M 447.75 349 h 87.75"></path><path d="M 248.75 349 h 10"></path><g>
<path d="M 258.75 349 h 0.0"></path><path d="M 437.75 349 h 0.0"></path><path d="M 258.75 349 h 20"></path><g class="non-terminal ">
<path d="M 278.75 349 h 21.25"></path><path d="M 396.5 349 h 21.25"></path><rect height="22" width="96.5" x="300.0" y="338"></rect><text x="348.25" y="353">Reference</text></g><path d="M 417.75 349 h 20"></path><path d="M 258.75 349 a 10 10 0 0 1 10 10 v 10 a 10 10 0 0 0 10 10"></path><g class="non-terminal ">
<path d="M 278.75 379 h 25.5"></path><path d="M 392.25 379 h 25.5"></path><rect height="22" width="88.0" x="304.25" y="368"></rect><text x="348.25" y="383">Footnote</text></g><path d="M 417.75 379 a 10 10 0 0 0 10 -10 v -10 a 10 10 0 0 1 10 -10"></path><path d="M 258.75 349 a 10 10 0 0 1 10 10 v 40 a 10 10 0 0 0 10 10"></path><g class="non-terminal ">
<path d="M 278.75 409 h 0.0"></path><path d="M 417.75 409 h 0.0"></path><rect height="22" width="139.0" x="278.75" y="398"></rect><text x="348.25" y="413">CrossReference</text></g><path d="M 417.75 409 a 10 10 0 0 0 10 -10 v -40 a 10 10 0 0 1 10 -10"></path><path d="M 258.75 349 a 10 10 0 0 1 10 10 v 70 a 10 10 0 0 0 10 10"></path><g class="non-terminal ">
<path d="M 278.75 439 h 42.5"></path><path d="M 375.25 439 h 42.5"></path><rect height="22" width="54.0" x="321.25" y="428"></rect><text x="348.25" y="443">Char</text></g><path d="M 417.75 439 a 10 10 0 0 0 10 -10 v -70 a 10 10 0 0 1 10 -10"></path><path d="M 258.75 349 a 10 10 0 0 1 10 10 v 100 a 10 10 0 0 0 10 10"></path><g class="non-terminal ">
<path d="M 278.75 469 h 25.5"></path><path d="M 392.25 469 h 25.5"></path><rect height="22" width="88.0" x="304.25" y="458"></rect><text x="348.25" y="473">ListChar</text></g><path d="M 417.75 469 a 10 10 0 0 0 10 -10 v -100 a 10 10 0 0 1 10 -10"></path><path d="M 258.75 349 a 10 10 0 0 1 10 10 v 130 a 10 10 0 0 0 10 10"></path><g class="non-terminal ">
<path d="M 278.75 499 h 21.25"></path><path d="M 396.5 499 h 21.25"></path><rect height="22" width="96.5" x="300.0" y="488"></rect><text x="348.25" y="503">Milestone</text></g><path d="M 417.75 499 a 10 10 0 0 0 10 -10 v -130 a 10 10 0 0 1 10 -10"></path><path d="M 258.75 349 a 10 10 0 0 1 10 10 v 160 a 10 10 0 0 0 10 10"></path><g class="non-terminal ">
<path d="M 278.75 529 h 38.25"></path><path d="M 379.5 529 h 38.25"></path><rect height="22" width="62.5" x="317.0" y="518"></rect><text x="348.25" y="533">Verse</text></g><path d="M 417.75 529 a 10 10 0 0 0 10 -10 v -160 a 10 10 0 0 1 10 -10"></path><path d="M 258.75 349 a 10 10 0 0 1 10 10 v 190 a 10 10 0 0 0 10 10"></path><g class="non-terminal ">
<path d="M 278.75 559 h 38.25"></path><path d="M 379.5 559 h 38.25"></path><rect height="22" width="62.5" x="317.0" y="548"></rect><text x="348.25" y="563">Break</text></g><path d="M 417.75 559 a 10 10 0 0 0 10 -10 v -190 a 10 10 0 0 1 10 -10"></path><path d="M 258.75 349 a 10 10 0 0 1 10 10 v 220 a 10 10 0 0 0 10 10"></path><g class="terminal ">
<path d="M 278.75 589 h 42.5"></path><path d="M 375.25 589 h 42.5"></path><rect height="22" rx="10" ry="10" width="54.0" x="321.25" y="578"></rect><text x="348.25" y="593">TEXT</text></g><path d="M 417.75 589 a 10 10 0 0 0 10 -10 v -220 a 10 10 0 0 1 10 -10"></path></g><path d="M 437.75 349 h 10"></path><path d="M 258.75 349 a 10 10 0 0 0 -10 10 v 249 a 10 10 0 0 0 10 10"></path><g>
<path d="M 258.75 618 h 179.0"></path></g><path d="M 437.75 618 a 10 10 0 0 0 10 -10 v -249 a 10 10 0 0 0 -10 -10"></path></g><path d="M 535.5 349 h 20"></path></g></g></g><path d="M 555.5 349 h 10"></path><path d="M 565.5 349 h 20 m 0 -10 v 20"></path></g></svg>