<svg class="railroad-diagram" height="328" viewBox="0 0 1076.0 328" width="1076.0" xmlns="http://www.w3.org/2000/svg" xmlns:xlink="http://www.w3.org/1999/xlink">
<g transform="translate(.5 .5)">
<style>/* <![CDATA[ */

    svg.railroad-diagram {
        background-color: hsl(30,20%,95%);
    }
    svg.railroad-diagram path {
        stroke-width: 2;
        stroke: black;
        fill: none;
    }
    svg.railroad-diagram text {
        font-size: 12px;
        text-anchor: middle;
        font-family: DejaVu Sans;
    }
    svg.railroad-diagram text.label {
        text-anchor:start;
    }
    svg.railroad-diagram text.comment {
        font-family: DejaVu Sans;
        font-size: 14px;
    }
    svg.railroad-diagram rect{
        stroke-width: 2;
        stroke: black;
        fill: rgb(210, 255, 210);
    }
    svg.railroad-diagram rect.group-box {
        stroke: gray;
        stroke-dasharray: 10 5;
        fill: none;
    }
    .terminal {
        font-family: DejaVu Sans;
    }
    svg.railroad-diagram g.altterminal rect {
        fill: rgb(251, 252, 207)
    }

/* ]]> */
</style><g>
<path d="M 20 49 v 20 m 0 -10 h 20"></path></g><path d="M 40 59 h 10"></path><g>
<path d="M 50 59 h 0.0"></path><path d="M 1026.0 59 h 0.0"></path><g class="terminal ">
<path d="M 50.0 59 h 0.0"></path><path d="M 104.0 59 h 0.0"></path><rect height="22" rx="10" ry="10" width="54.0" x="50.0" y="48"></rect><text x="77.0" y="63">'\\'</text></g><path d="M 104.0 59 h 10"></path><path d="M 114.0 59 h 10"></path><g>
<path d="M 124.0 59 h 0.0"></path><path d="M 376.5 59 h 0.0"></path><rect class="group-box" height="38" rx="10" ry="10" width="252.5" x="124.0" y="40"></rect><g>
<path d="M 124.0 59 h 10.0"></path><path d="M 366.5 59 h 10.0"></path><g class="non-terminal ">
<path d="M 134.0 59 h 0.0"></path><path d="M 366.5 59 h 0.0"></path><rect height="22" width="232.5" x="134.0" y="48"></rect><text x="250.25" y="63">ListChars.char.style.enum</text></g></g><g class="non-terminal ">
<path d="M 124.0 32 h 0.0"></path><path d="M 141.0 32 h 0.0"></path><text class="comment" x="132.5" y="37">➋</text></g></g><path d="M 376.5 59 h 10"></path><path d="M 386.5 59 h 10"></path><g>
<path d="M 396.5 59 h 0.0"></path><path d="M 507.5 59 h 0.0"></path><path d="M 396.5 59 h 20"></path><g class="terminal ">
<path d="M 416.5 59 h 12.75"></path><path d="M 474.75 59 h 12.75"></path><rect height="22" rx="10" ry="10" width="45.5" x="429.25" y="48"></rect><text x="452.0" y="63">' '</text></g><path d="M 487.5 59 h 20"></path><path d="M 396.5 59 a 10 10 0 0 1 10 10 v 10 a 10 10 0 0 0 10 10"></path><g class="terminal altterminal">
<path d="M 416.5 89 h 0.0"></path><path d="M 487.5 89 h 0.0"></path><rect height="22" rx="10" ry="10" width="71.0" x="416.5" y="78"></rect><text x="452.0" y="93">TAGEND</text></g><path d="M 487.5 89 a 10 10 0 0 0 10 -10 v -10 a 10 10 0 0 1 10 -10"></path></g><path d="M 507.5 59 h 10"></path><path d="M 517.5 59 h 10"></path><g>
<path d="M 527.5 59 h 0.0"></path><path d="M 781.0 59 h 0.0"></path><path d="M 527.5 59 a 10 10 0 0 0 10 -10 v -9 a 10 10 0 0 1 10 -10"></path><g>
<path d="M 547.5 30 h 213.5"></path></g><path d="M 761.0 30 a 10 10 0 0 1 10 10 v 9 a 10 10 0 0 0 10 10"></path><path d="M 527.5 59 h 20"></path><g>
<path d="M 547.5 59 h 0.0"></path><path d="M 761.0 59 h 0.0"></path><path d="M 547.5 59 h 10"></path><g>
<path d="M 557.5 59 h 0.0"></path><path d="M 751.0 59 h 0.0"></path><path d="M 557.5 59 h 20"></path><g>
<path d="M 577.5 59 h 0.0"></path><path d="M 731.0 59 h 0.0"></path><g class="terminal ">
<path d="M 577.5 59 h 0.0"></path><path d="M 631.5 59 h 0.0"></path><rect height="22" rx="10" ry="10" width="54.0" x="577.5" y="48"></rect><text x="604.5" y="63">TEXT</text></g><path d="M 631.5 59 h 10"></path><path d="M 641.5 59 h 10"></path><g class="terminal ">
<path d="M 651.5 59 h 0.0"></path><path d="M 731.0 59 h 0.0"></path><rect height="22" rx="10" ry="10" width="79.5" x="651.5" y="48"></rect><text x="691.25" y="63">TEXTEND</text></g></g><path d="M 731.0 59 h 20"></path><path d="M 557.5 59 a 10 10 0 0 1 10 10 v 10 a 10 10 0 0 0 10 10"></path><g class="non-terminal ">
<path d="M 577.5 89 h 49.75"></path><path d="M 681.25 89 h 49.75"></path><rect height="22" width="54.0" x="627.25" y="78"></rect><text x="654.25" y="93">Char</text></g><path d="M 731.0 89 a 10 10 0 0 0 10 -10 v -10 a 10 10 0 0 1 10 -10"></path><path d="M 557.5 59 a 10 10 0 0 1 10 10 v 40 a 10 10 0 0 0 10 10"></path><g class="non-terminal ">
<path d="M 577.5 119 h 41.25"></path><path d="M 689.75 119 h 41.25"></path><rect height="22" width="71.0" x="618.75" y="108"></rect><text x="654.25" y="123">Figure</text></g><path d="M 731.0 119 a 10 10 0 0 0 10 -10 v -40 a 10 10 0 0 1 10 -10"></path><path d="M 557.5 59 a 10 10 0 0 1 10 10 v 70 a 10 10 0 0 0 10 10"></path><g class="non-terminal ">
<path d="M 577.5 149 h 28.5"></path><path d="M 702.5 149 h 28.5"></path><rect height="22" width="96.5" x="606.0" y="138"></rect><text x="654.25" y="153">Milestone</text></g><path d="M 731.0 149 a 10 10 0 0 0 10 -10 v -70 a 10 10 0 0 1 10 -10"></path><path d="M 557.5 59 a 10 10 0 0 1 10 10 v 100 a 10 10 0 0 0 10 10"></path><g class="non-terminal ">
<path d="M 577.5 179 h 32.75"></path><path d="M 698.25 179 h 32.75"></path><rect height="22" width="88.0" x="610.25" y="168"></rect><text x="654.25" y="183">Footnote</text></g><path d="M 731.0 179 a 10 10 0 0 0 10 -10 v -100 a 10 10 0 0 1 10 -10"></path><path d="M 557.5 59 a 10 10 0 0 1 10 10 v 130 a 10 10 0 0 0 10 10"></path><g class="non-terminal ">
<path d="M 577.5 209 h 7.25"></path><path d="M 723.75 209 h 7.25"></path><rect height="22" width="139.0" x="584.75" y="198"></rect><text x="654.25" y="213">CrossReference</text></g><path d="M 731.0 209 a 10 10 0 0 0 10 -10 v -130 a 10 10 0 0 1 10 -10"></path><path d="M 557.5 59 a 10 10 0 0 1 10 10 v 160 a 10 10 0 0 0 10 10"></path><g class="non-terminal ">
<path d="M 577.5 239 h 45.5"></path><path d="M 685.5 239 h 45.5"></path><rect height="22" width="62.5" x="623.0" y="228"></rect><text x="654.25" y="243">Break</text></g><path d="M 731.0 239 a 10 10 0 0 0 10 -10 v -160 a 10 10 0 0 1 10 -10"></path><path d="M 557.5 59 a 10 10 0 0 1 10 10 v 190 a 10 10 0 0 0 10 10"></path><g class="non-terminal ">
<path d="M 577.5 269 h 28.5"></path><path d="M 702.5 269 h 28.5"></path><rect height="22" width="96.5" x="606.0" y="258"></rect><text x="654.25" y="273">Reference</text></g><path d="M 731.0 269 a 10 10 0 0 0 10 -10 v -190 a 10 10 0 0 1 10 -10"></path></g><path d="M 751.0 59 h 10"></path><path d="M 557.5 59 a 10 10 0 0 0 -10 10 v 219 a 10 10 0 0 0 10 10"></path><g>
<path d="M 557.5 298 h 193.5"></path></g><path d="M 751.0 298 a 10 10 0 0 0 10 -10 v -219 a 10 10 0 0 0 -10 -10"></path></g><path d="M 761.0 59 h 20"></path></g><path d="M 781.0 59 h 10"></path><path d="M 791.0 59 h 10"></path><g>
<path d="M 801.0 59 h 0.0"></path><path d="M 1026.0 59 h 0.0"></path><path d="M 801.0 59 h 20"></path><g>
<path d="M 821.0 59 h 185.0"></path></g><path d="M 1006.0 59 h 20"></path><path d="M 801.0 59 a 10 10 0 0 1 10 10 v 0 a 10 10 0 0 0 10 10"></path><g>
<path d="M 821.0 79 h 0.0"></path><path d="M 1006.0 79 h 0.0"></path><g class="terminal ">
<path d="M 821.0 79 h 0.0"></path><path d="M 875.0 79 h 0.0"></path><rect height="22" rx="10" ry="10" width="54.0" x="821.0" y="68"></rect><text x="848.0" y="83">'\\'</text></g><path d="M 875.0 79 h 10"></path><path d="M 885.0 79 h 10"></path><g class="terminal ">
<path d="M 895.0 79 h 0.0"></path><path d="M 940.5 79 h 0.0"></path><rect height="22" rx="10" ry="10" width="45.5" x="895.0" y="68"></rect><text x="917.75" y="83">⇐ ➋</text></g><path d="M 940.5 79 h 10"></path><path d="M 950.5 79 h 10"></path><g class="terminal ">
<path d="M 960.5 79 h 0.0"></path><path d="M 1006.0 79 h 0.0"></path><rect height="22" rx="10" ry="10" width="45.5" x="960.5" y="68"></rect><text x="983.25" y="83">'&#42;'</text></g></g><path d="M 1006.0 79 a 10 10 0 0 0 10 -10 v 0 a 10 10 0 0 1 10 -10"></path></g></g><path d="M 1026.0 59 h 10"></path><path d="M 1036.0 59 h 20 m 0 -10 v 20"></path></g></svg>