<svg class="railroad-diagram" height="324" viewBox="0 0 946.0 324" width="946.0" xmlns="http://www.w3.org/2000/svg" xmlns:xlink="http://www.w3.org/1999/xlink">
<g transform="translate(.5 .5)">
<style>/* <![CDATA[ */

    svg.railroad-diagram {
        background-color: hsl(30,20%,95%);
    }
    svg.railroad-diagram path {
        stroke-width: 2;
        stroke: black;
        fill: none;
    }
    svg.railroad-diagram text {
        font-size: 12px;
        text-anchor: middle;
        font-family: DejaVu Sans;
    }
    svg.railroad-diagram text.label {
        text-anchor:start;
    }
    svg.railroad-diagram text.comment {
        font-family: DejaVu Sans;
        font-size: 14px;
    }
    svg.railroad-diagram rect{
        stroke-width: 2;
        stroke: black;
        fill: rgb(210, 255, 210);
    }
    svg.railroad-diagram rect.group-box {
        stroke: gray;
        stroke-dasharray: 10 5;
        fill: none;
    }
    .terminal {
        font-family: DejaVu Sans;
    }
    svg.railroad-diagram g.altterminal rect {
        fill: rgb(251, 252, 207)
    }

/* ]]> */
</style><g>
<path d="M 20 55 v 20 m 0 -10 h 20"></path></g><path d="M 40 65 h 10"></path><g>
<path d="M 50 65 h 0.0"></path><path d="M 896.0 65 h 0.0"></path><g class="terminal ">
<path d="M 50.0 65 h 0.0"></path><path d="M 95.5 65 h 0.0"></path><rect height="22" rx="10" ry="10" width="45.5" x="50.0" y="54"></rect><text x="72.75" y="69">'\'</text></g><path d="M 95.5 65 h 10"></path><path d="M 105.5 65 h 10"></path><g>
<path d="M 115.5 65 h 0.0"></path><path d="M 246.5 65 h 0.0"></path><rect class="group-box" height="268" rx="10" ry="10" width="131.0" x="115.5" y="36"></rect><g>
<path d="M 115.5 65 h 10.0"></path><path d="M 236.5 65 h 10.0"></path><g>
<path d="M 125.5 65 h 0.0"></path><path d="M 236.5 65 h 0.0"></path><path d="M 125.5 65 h 20"></path><g class="terminal ">
<path d="M 145.5 65 h 0.0"></path><path d="M 216.5 65 h 0.0"></path><rect height="22" rx="10" ry="10" width="71.0" x="145.5" y="54"></rect><text x="181.0" y="69">"litl"</text></g><path d="M 216.5 65 h 20"></path><path d="M 125.5 65 a 10 10 0 0 1 10 10 v 10 a 10 10 0 0 0 10 10"></path><g class="terminal ">
<path d="M 145.5 95 h 4.25"></path><path d="M 212.25 95 h 4.25"></path><rect height="22" rx="10" ry="10" width="62.5" x="149.75" y="84"></rect><text x="181.0" y="99">"lik"</text></g><path d="M 216.5 95 a 10 10 0 0 0 10 -10 v -10 a 10 10 0 0 1 10 -10"></path><path d="M 125.5 65 a 10 10 0 0 1 10 10 v 40 a 10 10 0 0 0 10 10"></path><g class="terminal ">
<path d="M 145.5 125 h 0.0"></path><path d="M 216.5 125 h 0.0"></path><rect height="22" rx="10" ry="10" width="71.0" x="145.5" y="114"></rect><text x="181.0" y="129">"liv1"</text></g><path d="M 216.5 125 a 10 10 0 0 0 10 -10 v -40 a 10 10 0 0 1 10 -10"></path><path d="M 125.5 65 a 10 10 0 0 1 10 10 v 70 a 10 10 0 0 0 10 10"></path><g class="terminal ">
<path d="M 145.5 155 h 0.0"></path><path d="M 216.5 155 h 0.0"></path><rect height="22" rx="10" ry="10" width="71.0" x="145.5" y="144"></rect><text x="181.0" y="159">"liv2"</text></g><path d="M 216.5 155 a 10 10 0 0 0 10 -10 v -70 a 10 10 0 0 1 10 -10"></path><path d="M 125.5 65 a 10 10 0 0 1 10 10 v 100 a 10 10 0 0 0 10 10"></path><g class="terminal ">
<path d="M 145.5 185 h 0.0"></path><path d="M 216.5 185 h 0.0"></path><rect height="22" rx="10" ry="10" width="71.0" x="145.5" y="174"></rect><text x="181.0" y="189">"liv3"</text></g><path d="M 216.5 185 a 10 10 0 0 0 10 -10 v -100 a 10 10 0 0 1 10 -10"></path><path d="M 125.5 65 a 10 10 0 0 1 10 10 v 130 a 10 10 0 0 0 10 10"></path><g class="terminal ">
<path d="M 145.5 215 h 0.0"></path><path d="M 216.5 215 h 0.0"></path><rect height="22" rx="10" ry="10" width="71.0" x="145.5" y="204"></rect><text x="181.0" y="219">"liv4"</text></g><path d="M 216.5 215 a 10 10 0 0 0 10 -10 v -130 a 10 10 0 0 1 10 -10"></path><path d="M 125.5 65 a 10 10 0 0 1 10 10 v 160 a 10 10 0 0 0 10 10"></path><g class="terminal ">
<path d="M 145.5 245 h 0.0"></path><path d="M 216.5 245 h 0.0"></path><rect height="22" rx="10" ry="10" width="71.0" x="145.5" y="234"></rect><text x="181.0" y="249">"liv5"</text></g><path d="M 216.5 245 a 10 10 0 0 0 10 -10 v -160 a 10 10 0 0 1 10 -10"></path><path d="M 125.5 65 a 10 10 0 0 1 10 10 v 190 a 10 10 0 0 0 10 10"></path><g class="terminal ">
<path d="M 145.5 275 h 4.25"></path><path d="M 212.25 275 h 4.25"></path><rect height="22" rx="10" ry="10" width="62.5" x="149.75" y="264"></rect><text x="181.0" y="279">"liv"</text></g><path d="M 216.5 275 a 10 10 0 0 0 10 -10 v -190 a 10 10 0 0 1 10 -10"></path></g></g><g class="non-terminal ">
<path d="M 115.5 28 h 0.0"></path><path d="M 132.5 28 h 0.0"></path><text class="comment" x="124.0" y="33">➋</text></g></g><path d="M 246.5 65 h 10"></path><path d="M 256.5 65 h 10"></path><g>
<path d="M 266.5 65 h 0.0"></path><path d="M 377.5 65 h 0.0"></path><path d="M 266.5 65 h 20"></path><g class="terminal ">
<path d="M 286.5 65 h 12.75"></path><path d="M 344.75 65 h 12.75"></path><rect height="22" rx="10" ry="10" width="45.5" x="299.25" y="54"></rect><text x="322.0" y="69">' '</text></g><path d="M 357.5 65 h 20"></path><path d="M 266.5 65 a 10 10 0 0 1 10 10 v 10 a 10 10 0 0 0 10 10"></path><g class="terminal altterminal">
<path d="M 286.5 95 h 0.0"></path><path d="M 357.5 95 h 0.0"></path><rect height="22" rx="10" ry="10" width="71.0" x="286.5" y="84"></rect><text x="322.0" y="99">TAGEND</text></g><path d="M 357.5 95 a 10 10 0 0 0 10 -10 v -10 a 10 10 0 0 1 10 -10"></path></g><path d="M 377.5 65 h 10"></path><path d="M 387.5 65 h 10"></path><g>
<path d="M 397.5 65 h 0.0"></path><path d="M 651.0 65 h 0.0"></path><path d="M 397.5 65 a 10 10 0 0 0 10 -10 v -9 a 10 10 0 0 1 10 -10"></path><g>
<path d="M 417.5 36 h 213.5"></path></g><path d="M 631.0 36 a 10 10 0 0 1 10 10 v 9 a 10 10 0 0 0 10 10"></path><path d="M 397.5 65 h 20"></path><g>
<path d="M 417.5 65 h 0.0"></path><path d="M 631.0 65 h 0.0"></path><path d="M 417.5 65 h 10"></path><g>
<path d="M 427.5 65 h 0.0"></path><path d="M 621.0 65 h 0.0"></path><path d="M 427.5 65 h 20"></path><g class="non-terminal ">
<path d="M 447.5 65 h 49.75"></path><path d="M 551.25 65 h 49.75"></path><rect height="22" width="54.0" x="497.25" y="54"></rect><text x="524.25" y="69">Char</text></g><path d="M 601.0 65 h 20"></path><path d="M 427.5 65 a 10 10 0 0 1 10 10 v 10 a 10 10 0 0 0 10 10"></path><g class="non-terminal ">
<path d="M 447.5 95 h 28.5"></path><path d="M 572.5 95 h 28.5"></path><rect height="22" width="96.5" x="476.0" y="84"></rect><text x="524.25" y="99">Milestone</text></g><path d="M 601.0 95 a 10 10 0 0 0 10 -10 v -10 a 10 10 0 0 1 10 -10"></path><path d="M 427.5 65 a 10 10 0 0 1 10 10 v 40 a 10 10 0 0 0 10 10"></path><g class="non-terminal ">
<path d="M 447.5 125 h 32.75"></path><path d="M 568.25 125 h 32.75"></path><rect height="22" width="88.0" x="480.25" y="114"></rect><text x="524.25" y="129">Footnote</text></g><path d="M 601.0 125 a 10 10 0 0 0 10 -10 v -40 a 10 10 0 0 1 10 -10"></path><path d="M 427.5 65 a 10 10 0 0 1 10 10 v 70 a 10 10 0 0 0 10 10"></path><g class="non-terminal ">
<path d="M 447.5 155 h 7.25"></path><path d="M 593.75 155 h 7.25"></path><rect height="22" width="139.0" x="454.75" y="144"></rect><text x="524.25" y="159">CrossReference</text></g><path d="M 601.0 155 a 10 10 0 0 0 10 -10 v -70 a 10 10 0 0 1 10 -10"></path><path d="M 427.5 65 a 10 10 0 0 1 10 10 v 100 a 10 10 0 0 0 10 10"></path><g class="non-terminal ">
<path d="M 447.5 185 h 45.5"></path><path d="M 555.5 185 h 45.5"></path><rect height="22" width="62.5" x="493.0" y="174"></rect><text x="524.25" y="189">Break</text></g><path d="M 601.0 185 a 10 10 0 0 0 10 -10 v -100 a 10 10 0 0 1 10 -10"></path><path d="M 427.5 65 a 10 10 0 0 1 10 10 v 130 a 10 10 0 0 0 10 10"></path><g>
<path d="M 447.5 215 h 0.0"></path><path d="M 601.0 215 h 0.0"></path><g class="terminal ">
<path d="M 447.5 215 h 0.0"></path><path d="M 501.5 215 h 0.0"></path><rect height="22" rx="10" ry="10" width="54.0" x="447.5" y="204"></rect><text x="474.5" y="219">TEXT</text></g><path d="M 501.5 215 h 10"></path><path d="M 511.5 215 h 10"></path><g class="terminal ">
<path d="M 521.5 215 h 0.0"></path><path d="M 601.0 215 h 0.0"></path><rect height="22" rx="10" ry="10" width="79.5" x="521.5" y="204"></rect><text x="561.25" y="219">TEXTEND</text></g></g><path d="M 601.0 215 a 10 10 0 0 0 10 -10 v -130 a 10 10 0 0 1 10 -10"></path></g><path d="M 621.0 65 h 10"></path><path d="M 427.5 65 a 10 10 0 0 0 -10 10 v 159 a 10 10 0 0 0 10 10"></path><g>
<path d="M 427.5 244 h 193.5"></path></g><path d="M 621.0 244 a 10 10 0 0 0 10 -10 v -159 a 10 10 0 0 0 -10 -10"></path></g><path d="M 631.0 65 h 20"></path></g><path d="M 651.0 65 h 10"></path><path d="M 661.0 65 h 10"></path><g>
<path d="M 671.0 65 h 0.0"></path><path d="M 896.0 65 h 0.0"></path><path d="M 671.0 65 h 20"></path><g>
<path d="M 691.0 65 h 185.0"></path></g><path d="M 876.0 65 h 20"></path><path d="M 671.0 65 a 10 10 0 0 1 10 10 v 0 a 10 10 0 0 0 10 10"></path><g>
<path d="M 691.0 85 h 0.0"></path><path d="M 876.0 85 h 0.0"></path><g class="terminal ">
<path d="M 691.0 85 h 0.0"></path><path d="M 745.0 85 h 0.0"></path><rect height="22" rx="10" ry="10" width="54.0" x="691.0" y="74"></rect><text x="718.0" y="89">'\\'</text></g><path d="M 745.0 85 h 10"></path><path d="M 755.0 85 h 10"></path><g class="terminal ">
<path d="M 765.0 85 h 0.0"></path><path d="M 810.5 85 h 0.0"></path><rect height="22" rx="10" ry="10" width="45.5" x="765.0" y="74"></rect><text x="787.75" y="89">⇐ ➋</text></g><path d="M 810.5 85 h 10"></path><path d="M 820.5 85 h 10"></path><g class="terminal ">
<path d="M 830.5 85 h 0.0"></path><path d="M 876.0 85 h 0.0"></path><rect height="22" rx="10" ry="10" width="45.5" x="830.5" y="74"></rect><text x="853.25" y="89">'&#42;'</text></g></g><path d="M 876.0 85 a 10 10 0 0 0 10 -10 v 0 a 10 10 0 0 1 10 -10"></path></g></g><path d="M 896.0 65 h 10"></path><path d="M 906.0 65 h 20 m 0 -10 v 20"></path></g></svg>