<svg class="railroad-diagram" height="408" viewBox="0 0 812.0 408" width="812.0" xmlns="http://www.w3.org/2000/svg" xmlns:xlink="http://www.w3.org/1999/xlink">
<g transform="translate(.5 .5)">
<style>/* <![CDATA[ */

    svg.railroad-diagram {
        background-color:hsl(30,20%,95%);
    }
    svg.railroad-diagram path {
        stroke-width: 2;
        stroke: black;
        fill: none;
    }
    svg.railroad-diagram text {
        font-size: 12px;
        text-anchor: middle;
        font-family: DejaVu Sans;
    }
    svg.railroad-diagram text.label {
        text-anchor:start;
    }
    svg.railroad-diagram text.comment {
        font-family: DejaVu Sans;
        font-size: 14px;
    }
    svg.railroad-diagram rect{
        stroke-width: 2;
        stroke:black;
        fill: rgb(210, 255, 210);
    }
    svg.railroad-diagram rect.group-box {
        stroke: gray;
        stroke-dasharray: 10 5;
        fill: none;
    }
    .terminal {
        font-family: DejaVu Sans;
    }

/* ]]> */
</style><g>
<path d="M 20 129 v 20 m 0 -10 h 20"></path></g><path d="M 40 139 h 10"></path><g>
<path d="M 50 139 h 0.0"></path><path d="M 762.0 139 h 0.0"></path><g class="terminal ">
<path d="M 50.0 139 h 0.0"></path><path d="M 95.5 139 h 0.0"></path><rect height="22" rx="10" ry="10" width="45.5" x="50.0" y="128"></rect><text x="72.75" y="143">'\'</text></g><path d="M 95.5 139 h 10"></path><g>
<path d="M 105.5 139 h 0.0"></path><path d="M 407.5 139 h 0.0"></path><path d="M 105.5 139 a 10 10 0 0 0 10 -10 v -99 a 10 10 0 0 1 10 -10 h 121.0"></path><path d="M 266.5 168 h 121.0 a 10 10 0 0 0 10 -10 v -9 a 10 10 0 0 1 10 -10"></path><path d="M 105.5 139 h 10"></path><g>
<path d="M 115.5 139 h 10.0"></path><path d="M 236.5 139 h 10.0"></path><path d="M 125.5 139 a 10 10 0 0 0 10 -10 v -10 a 10 10 0 0 1 10 -10"></path><g class="terminal ">
<path d="M 145.5 109 h 4.25"></path><path d="M 212.25 109 h 4.25"></path><rect height="22" rx="10" ry="10" width="62.5" x="149.75" y="98"></rect><text x="181.0" y="113">"li2"</text></g><path d="M 216.5 109 a 10 10 0 0 1 10 10 v 10 a 10 10 0 0 0 10 10"></path><path d="M 125.5 139 a 10 10 0 0 0 10 -10 v -40 a 10 10 0 0 1 10 -10"></path><g class="terminal ">
<path d="M 145.5 79 h 4.25"></path><path d="M 212.25 79 h 4.25"></path><rect height="22" rx="10" ry="10" width="62.5" x="149.75" y="68"></rect><text x="181.0" y="83">"li1"</text></g><path d="M 216.5 79 a 10 10 0 0 1 10 10 v 40 a 10 10 0 0 0 10 10"></path><path d="M 125.5 139 a 10 10 0 0 0 10 -10 v -70 a 10 10 0 0 1 10 -10"></path><g class="terminal ">
<path d="M 145.5 49 h 8.5"></path><path d="M 208.0 49 h 8.5"></path><rect height="22" rx="10" ry="10" width="54.0" x="154.0" y="38"></rect><text x="181.0" y="53">"lh"</text></g><path d="M 216.5 49 a 10 10 0 0 1 10 10 v 70 a 10 10 0 0 0 10 10"></path><path d="M 125.5 139 h 20"></path><g class="terminal ">
<path d="M 145.5 139 h 4.25"></path><path d="M 212.25 139 h 4.25"></path><rect height="22" rx="10" ry="10" width="62.5" x="149.75" y="128"></rect><text x="181.0" y="143">"li3"</text></g><path d="M 216.5 139 h 20"></path><path d="M 125.5 139 a 10 10 0 0 1 10 10 v 10 a 10 10 0 0 0 10 10"></path><g class="terminal ">
<path d="M 145.5 169 h 4.25"></path><path d="M 212.25 169 h 4.25"></path><rect height="22" rx="10" ry="10" width="62.5" x="149.75" y="158"></rect><text x="181.0" y="173">"li4"</text></g><path d="M 216.5 169 a 10 10 0 0 0 10 -10 v -10 a 10 10 0 0 1 10 -10"></path><path d="M 125.5 139 a 10 10 0 0 1 10 10 v 40 a 10 10 0 0 0 10 10"></path><g class="terminal ">
<path d="M 145.5 199 h 0.0"></path><path d="M 216.5 199 h 0.0"></path><rect height="22" rx="10" ry="10" width="71.0" x="145.5" y="188"></rect><text x="181.0" y="203">"lim1"</text></g><path d="M 216.5 199 a 10 10 0 0 0 10 -10 v -40 a 10 10 0 0 1 10 -10"></path><path d="M 125.5 139 a 10 10 0 0 1 10 10 v 70 a 10 10 0 0 0 10 10"></path><g class="terminal ">
<path d="M 145.5 229 h 0.0"></path><path d="M 216.5 229 h 0.0"></path><rect height="22" rx="10" ry="10" width="71.0" x="145.5" y="218"></rect><text x="181.0" y="233">"lim2"</text></g><path d="M 216.5 229 a 10 10 0 0 0 10 -10 v -70 a 10 10 0 0 1 10 -10"></path><path d="M 125.5 139 a 10 10 0 0 1 10 10 v 100 a 10 10 0 0 0 10 10"></path><g class="terminal ">
<path d="M 145.5 259 h 0.0"></path><path d="M 216.5 259 h 0.0"></path><rect height="22" rx="10" ry="10" width="71.0" x="145.5" y="248"></rect><text x="181.0" y="263">"lim3"</text></g><path d="M 216.5 259 a 10 10 0 0 0 10 -10 v -100 a 10 10 0 0 1 10 -10"></path></g><path d="M 246.5 139 a 10 10 0 0 1 10 10 v 9 a 10 10 0 0 0 10 10"></path><path d="M 246.5 20 a 10 10 0 0 1 10 10 v 99 a 10 10 0 0 0 10 10"></path><g>
<path d="M 266.5 139 h 10.0"></path><path d="M 387.5 139 h 10.0"></path><path d="M 276.5 139 a 10 10 0 0 0 10 -10 v -10 a 10 10 0 0 1 10 -10"></path><g class="terminal ">
<path d="M 296.5 109 h 8.5"></path><path d="M 359.0 109 h 8.5"></path><rect height="22" rx="10" ry="10" width="54.0" x="305.0" y="98"></rect><text x="332.0" y="113">"li"</text></g><path d="M 367.5 109 a 10 10 0 0 1 10 10 v 10 a 10 10 0 0 0 10 10"></path><path d="M 276.5 139 a 10 10 0 0 0 10 -10 v -40 a 10 10 0 0 1 10 -10"></path><g class="terminal ">
<path d="M 296.5 79 h 4.25"></path><path d="M 363.25 79 h 4.25"></path><rect height="22" rx="10" ry="10" width="62.5" x="300.75" y="68"></rect><text x="332.0" y="83">"lim"</text></g><path d="M 367.5 79 a 10 10 0 0 1 10 10 v 40 a 10 10 0 0 0 10 10"></path><path d="M 276.5 139 a 10 10 0 0 0 10 -10 v -70 a 10 10 0 0 1 10 -10"></path><g class="terminal ">
<path d="M 296.5 49 h 0.0"></path><path d="M 367.5 49 h 0.0"></path><rect height="22" rx="10" ry="10" width="71.0" x="296.5" y="38"></rect><text x="332.0" y="53">"lim4"</text></g><path d="M 367.5 49 a 10 10 0 0 1 10 10 v 70 a 10 10 0 0 0 10 10"></path><path d="M 276.5 139 h 20"></path><g class="terminal ">
<path d="M 296.5 139 h 8.5"></path><path d="M 359.0 139 h 8.5"></path><rect height="22" rx="10" ry="10" width="54.0" x="305.0" y="128"></rect><text x="332.0" y="143">"lf"</text></g><path d="M 367.5 139 h 20"></path></g><path d="M 397.5 139 h 10"></path></g><path d="M 407.5 139 h 10"></path><g class="terminal ">
<path d="M 417.5 139 h 0.0"></path><path d="M 488.5 139 h 0.0"></path><rect height="22" rx="10" ry="10" width="71.0" x="417.5" y="128"></rect><text x="453.0" y="143">TAGEND</text></g><path d="M 488.5 139 h 10"></path><path d="M 498.5 139 h 10"></path><g>
<path d="M 508.5 139 h 0.0"></path><path d="M 762.0 139 h 0.0"></path><path d="M 508.5 139 a 10 10 0 0 0 10 -10 v -9 a 10 10 0 0 1 10 -10"></path><g>
<path d="M 528.5 110 h 213.5"></path></g><path d="M 742.0 110 a 10 10 0 0 1 10 10 v 9 a 10 10 0 0 0 10 10"></path><path d="M 508.5 139 h 20"></path><g>
<path d="M 528.5 139 h 0.0"></path><path d="M 742.0 139 h 0.0"></path><path d="M 528.5 139 h 10"></path><g>
<path d="M 538.5 139 h 0.0"></path><path d="M 732.0 139 h 0.0"></path><path d="M 538.5 139 h 20"></path><g class="non-terminal ">
<path d="M 558.5 139 h 32.75"></path><path d="M 679.25 139 h 32.75"></path><rect height="22" width="88.0" x="591.25" y="128"></rect><text x="635.25" y="143">Footnote</text></g><path d="M 712.0 139 h 20"></path><path d="M 538.5 139 a 10 10 0 0 1 10 10 v 10 a 10 10 0 0 0 10 10"></path><g class="non-terminal ">
<path d="M 558.5 169 h 7.25"></path><path d="M 704.75 169 h 7.25"></path><rect height="22" width="139.0" x="565.75" y="158"></rect><text x="635.25" y="173">CrossReference</text></g><path d="M 712.0 169 a 10 10 0 0 0 10 -10 v -10 a 10 10 0 0 1 10 -10"></path><path d="M 538.5 139 a 10 10 0 0 1 10 10 v 40 a 10 10 0 0 0 10 10"></path><g class="non-terminal ">
<path d="M 558.5 199 h 49.75"></path><path d="M 662.25 199 h 49.75"></path><rect height="22" width="54.0" x="608.25" y="188"></rect><text x="635.25" y="203">Char</text></g><path d="M 712.0 199 a 10 10 0 0 0 10 -10 v -40 a 10 10 0 0 1 10 -10"></path><path d="M 538.5 139 a 10 10 0 0 1 10 10 v 70 a 10 10 0 0 0 10 10"></path><g class="non-terminal ">
<path d="M 558.5 229 h 32.75"></path><path d="M 679.25 229 h 32.75"></path><rect height="22" width="88.0" x="591.25" y="218"></rect><text x="635.25" y="233">ListChar</text></g><path d="M 712.0 229 a 10 10 0 0 0 10 -10 v -70 a 10 10 0 0 1 10 -10"></path><path d="M 538.5 139 a 10 10 0 0 1 10 10 v 100 a 10 10 0 0 0 10 10"></path><g class="non-terminal ">
<path d="M 558.5 259 h 28.5"></path><path d="M 683.5 259 h 28.5"></path><rect height="22" width="96.5" x="587.0" y="248"></rect><text x="635.25" y="263">Milestone</text></g><path d="M 712.0 259 a 10 10 0 0 0 10 -10 v -100 a 10 10 0 0 1 10 -10"></path><path d="M 538.5 139 a 10 10 0 0 1 10 10 v 130 a 10 10 0 0 0 10 10"></path><g class="non-terminal ">
<path d="M 558.5 289 h 45.5"></path><path d="M 666.5 289 h 45.5"></path><rect height="22" width="62.5" x="604.0" y="278"></rect><text x="635.25" y="293">Verse</text></g><path d="M 712.0 289 a 10 10 0 0 0 10 -10 v -130 a 10 10 0 0 1 10 -10"></path><path d="M 538.5 139 a 10 10 0 0 1 10 10 v 160 a 10 10 0 0 0 10 10"></path><g class="non-terminal ">
<path d="M 558.5 319 h 45.5"></path><path d="M 666.5 319 h 45.5"></path><rect height="22" width="62.5" x="604.0" y="308"></rect><text x="635.25" y="323">Break</text></g><path d="M 712.0 319 a 10 10 0 0 0 10 -10 v -160 a 10 10 0 0 1 10 -10"></path><path d="M 538.5 139 a 10 10 0 0 1 10 10 v 190 a 10 10 0 0 0 10 10"></path><g>
<path d="M 558.5 349 h 0.0"></path><path d="M 712.0 349 h 0.0"></path><g class="terminal ">
<path d="M 558.5 349 h 0.0"></path><path d="M 612.5 349 h 0.0"></path><rect height="22" rx="10" ry="10" width="54.0" x="558.5" y="338"></rect><text x="585.5" y="353">TEXT</text></g><path d="M 612.5 349 h 10"></path><path d="M 622.5 349 h 10"></path><g class="terminal ">
<path d="M 632.5 349 h 0.0"></path><path d="M 712.0 349 h 0.0"></path><rect height="22" rx="10" ry="10" width="79.5" x="632.5" y="338"></rect><text x="672.25" y="353">TEXTEND</text></g></g><path d="M 712.0 349 a 10 10 0 0 0 10 -10 v -190 a 10 10 0 0 1 10 -10"></path></g><path d="M 732.0 139 h 10"></path><path d="M 538.5 139 a 10 10 0 0 0 -10 10 v 219 a 10 10 0 0 0 10 10"></path><g>
<path d="M 538.5 378 h 193.5"></path></g><path d="M 732.0 378 a 10 10 0 0 0 10 -10 v -219 a 10 10 0 0 0 -10 -10"></path></g><path d="M 742.0 139 h 20"></path></g></g><path d="M 762.0 139 h 10"></path><path d="M 772.0 139 h 20 m 0 -10 v 20"></path></g></svg>