<svg class="railroad-diagram" height="608" viewBox="0 0 433.0 608" width="433.0" xmlns="http://www.w3.org/2000/svg" xmlns:xlink="http://www.w3.org/1999/xlink">
<g transform="translate(.5 .5)">
<style>/* <![CDATA[ */

    svg.railroad-diagram {
        background-color:hsl(30,20%,95%);
    }
    svg.railroad-diagram path {
        stroke-width: 2;
        stroke: black;
        fill: none;
    }
    svg.railroad-diagram text {
        font-size: 12px;
        text-anchor: middle;
        font-family: DejaVu Sans;
    }
    svg.railroad-diagram text.label {
        text-anchor:start;
    }
    svg.railroad-diagram text.comment {
        font-family: DejaVu Sans;
        font-size: 14px;
    }
    svg.railroad-diagram rect{
        stroke-width: 2;
        stroke:black;
        fill: rgb(210, 210, 255);
    }
    svg.railroad-diagram rect.group-box {
        stroke: gray;
        stroke-dasharray: 10 5;
        fill: none;
    }
    .terminal {
        font-family: DejaVu Sans;
    }

/* ]]> */
</style><g>
<path d="M 20 291 v 20 m 0 -10 h 20"></path></g><path d="M 40 301 h 10"></path><g>
<path d="M 50 301 h 0.0"></path><path d="M 383.0 301 h 0.0"></path><g>
<path d="M 50.0 301 h 0.0"></path><path d="M 383.0 301 h 0.0"></path><g class="terminal ">
<path d="M 50.0 301 h 0.0"></path><path d="M 121.0 301 h 0.0"></path><rect height="22" rx="10" ry="10" width="71.0" x="50.0" y="290"></rect><text x="85.5" y="305">&#60;char></text></g><path d="M 121.0 301 h 10"></path><path d="M 131.0 301 h 10"></path><g>
<path d="M 141.0 301 h 0.0"></path><path d="M 383.0 301 h 0.0"></path><path d="M 141.0 301 a 10 10 0 0 0 10 -10 v -230 a 10 10 0 0 1 10 -10"></path><g>
<path d="M 161.0 51 h 0.0"></path><path d="M 363.0 51 h 0.0"></path><g class="terminal ">
<path d="M 161.0 51 h 0.0"></path><path d="M 232.0 51 h 0.0"></path><rect height="22" rx="10" ry="10" width="71.0" x="161.0" y="40"></rect><text x="196.5" y="55">@style</text></g><path d="M 232.0 51 h 10"></path><path d="M 242.0 51 h 10"></path><g>
<path d="M 252.0 51 h 0.0"></path><path d="M 252.0 51 h 20"></path><g class="terminal ">
<path d="M 272.0 51 h 0.0"></path><path d="M 343.0 51 h 0.0"></path><rect height="22" rx="10" ry="10" width="71.0" x="272.0" y="40"></rect><text x="307.5" y="55">"litl"</text></g><path d="M 252.0 51 a 10 10 0 0 1 10 10 v 10 a 10 10 0 0 0 10 10"></path><g class="terminal ">
<path d="M 272.0 81 h 0.0"></path><path d="M 334.5 81 h 0.0"></path><rect height="22" rx="10" ry="10" width="62.5" x="272.0" y="70"></rect><text x="303.25" y="85">"lik"</text></g><path d="M 252.0 51 a 10 10 0 0 1 10 10 v 40 a 10 10 0 0 0 10 10"></path><g class="terminal ">
<path d="M 272.0 111 h 0.0"></path><path d="M 334.5 111 h 0.0"></path><rect height="22" rx="10" ry="10" width="62.5" x="272.0" y="100"></rect><text x="303.25" y="115">"liv"</text></g><path d="M 252.0 51 a 10 10 0 0 1 10 10 v 70 a 10 10 0 0 0 10 10"></path><g class="terminal ">
<path d="M 272.0 141 h 0.0"></path><path d="M 343.0 141 h 0.0"></path><rect height="22" rx="10" ry="10" width="71.0" x="272.0" y="130"></rect><text x="307.5" y="145">"liv1"</text></g><path d="M 252.0 51 a 10 10 0 0 1 10 10 v 100 a 10 10 0 0 0 10 10"></path><g class="terminal ">
<path d="M 272.0 171 h 0.0"></path><path d="M 343.0 171 h 0.0"></path><rect height="22" rx="10" ry="10" width="71.0" x="272.0" y="160"></rect><text x="307.5" y="175">"liv2"</text></g><path d="M 252.0 51 a 10 10 0 0 1 10 10 v 130 a 10 10 0 0 0 10 10"></path><g class="terminal ">
<path d="M 272.0 201 h 0.0"></path><path d="M 343.0 201 h 0.0"></path><rect height="22" rx="10" ry="10" width="71.0" x="272.0" y="190"></rect><text x="307.5" y="205">"liv3"</text></g><path d="M 252.0 51 a 10 10 0 0 1 10 10 v 160 a 10 10 0 0 0 10 10"></path><g class="terminal ">
<path d="M 272.0 231 h 0.0"></path><path d="M 343.0 231 h 0.0"></path><rect height="22" rx="10" ry="10" width="71.0" x="272.0" y="220"></rect><text x="307.5" y="235">"liv4"</text></g><path d="M 252.0 51 a 10 10 0 0 1 10 10 v 190 a 10 10 0 0 0 10 10"></path><g class="terminal ">
<path d="M 272.0 261 h 0.0"></path><path d="M 343.0 261 h 0.0"></path><rect height="22" rx="10" ry="10" width="71.0" x="272.0" y="250"></rect><text x="307.5" y="265">"liv5"</text></g></g></g><path d="M 141.0 301 h 20"></path><g class="non-terminal ">
<path d="M 161.0 301 h 52.75"></path><path d="M 310.25 301 h 52.75"></path><rect height="22" width="96.5" x="213.75" y="290"></rect><text x="262.0" y="305">char.link</text></g><path d="M 363.0 301 h 20"></path><path d="M 141.0 301 a 10 10 0 0 1 10 10 v 10 a 10 10 0 0 0 10 10"></path><g class="terminal ">
<path d="M 161.0 331 h 74.0"></path><path d="M 289.0 331 h 74.0"></path><rect height="22" rx="10" ry="10" width="54.0" x="235.0" y="320"></rect><text x="262.0" y="335">TEXT</text></g><path d="M 363.0 331 a 10 10 0 0 0 10 -10 v -10 a 10 10 0 0 1 10 -10"></path><path d="M 141.0 301 a 10 10 0 0 1 10 10 v 68 a 10 10 0 0 0 10 10"></path><g>
<path d="M 161.0 389 h 2.75"></path><path d="M 360.25 389 h 2.75"></path><path d="M 163.75 389 a 10 10 0 0 0 10 -10 v -9 a 10 10 0 0 1 10 -10"></path><g>
<path d="M 183.75 360 h 156.5"></path></g><path d="M 340.25 360 a 10 10 0 0 1 10 10 v 9 a 10 10 0 0 0 10 10"></path><path d="M 163.75 389 h 20"></path><g>
<path d="M 183.75 389 h 0.0"></path><path d="M 340.25 389 h 0.0"></path><path d="M 183.75 389 h 10"></path><g>
<path d="M 193.75 389 h 0.0"></path><path d="M 330.25 389 h 0.0"></path><path d="M 193.75 389 h 20"></path><g class="non-terminal ">
<path d="M 213.75 389 h 0.0"></path><path d="M 310.25 389 h 0.0"></path><rect height="22" width="96.5" x="213.75" y="378"></rect><text x="262.0" y="393">Reference</text></g><path d="M 310.25 389 h 20"></path><path d="M 193.75 389 a 10 10 0 0 1 10 10 v 10 a 10 10 0 0 0 10 10"></path><g class="non-terminal ">
<path d="M 213.75 419 h 21.25"></path><path d="M 289.0 419 h 21.25"></path><rect height="22" width="54.0" x="235.0" y="408"></rect><text x="262.0" y="423">Char</text></g><path d="M 310.25 419 a 10 10 0 0 0 10 -10 v -10 a 10 10 0 0 1 10 -10"></path><path d="M 193.75 389 a 10 10 0 0 1 10 10 v 40 a 10 10 0 0 0 10 10"></path><g class="non-terminal ">
<path d="M 213.75 449 h 0.0"></path><path d="M 310.25 449 h 0.0"></path><rect height="22" width="96.5" x="213.75" y="438"></rect><text x="262.0" y="453">Milestone</text></g><path d="M 310.25 449 a 10 10 0 0 0 10 -10 v -40 a 10 10 0 0 1 10 -10"></path><path d="M 193.75 389 a 10 10 0 0 1 10 10 v 70 a 10 10 0 0 0 10 10"></path><g class="non-terminal ">
<path d="M 213.75 479 h 4.25"></path><path d="M 306.0 479 h 4.25"></path><rect height="22" width="88.0" x="218.0" y="468"></rect><text x="262.0" y="483">Footnote</text></g><path d="M 310.25 479 a 10 10 0 0 0 10 -10 v -70 a 10 10 0 0 1 10 -10"></path><path d="M 193.75 389 a 10 10 0 0 1 10 10 v 100 a 10 10 0 0 0 10 10"></path><g class="non-terminal ">
<path d="M 213.75 509 h 17.0"></path><path d="M 293.25 509 h 17.0"></path><rect height="22" width="62.5" x="230.75" y="498"></rect><text x="262.0" y="513">Break</text></g><path d="M 310.25 509 a 10 10 0 0 0 10 -10 v -100 a 10 10 0 0 1 10 -10"></path><path d="M 193.75 389 a 10 10 0 0 1 10 10 v 130 a 10 10 0 0 0 10 10"></path><g class="terminal ">
<path d="M 213.75 539 h 21.25"></path><path d="M 289.0 539 h 21.25"></path><rect height="22" rx="10" ry="10" width="54.0" x="235.0" y="528"></rect><text x="262.0" y="543">TEXT</text></g><path d="M 310.25 539 a 10 10 0 0 0 10 -10 v -130 a 10 10 0 0 1 10 -10"></path></g><path d="M 330.25 389 h 10"></path><path d="M 193.75 389 a 10 10 0 0 0 -10 10 v 159 a 10 10 0 0 0 10 10"></path><g>
<path d="M 193.75 568 h 136.5"></path></g><path d="M 330.25 568 a 10 10 0 0 0 10 -10 v -159 a 10 10 0 0 0 -10 -10"></path></g><path d="M 340.25 389 h 20"></path></g><path d="M 363.0 389 a 10 10 0 0 0 10 -10 v -68 a 10 10 0 0 1 10 -10"></path></g></g></g><path d="M 383.0 301 h 10"></path><path d="M 393.0 301 h 20 m 0 -10 v 20"></path></g></svg>