<svg class="railroad-diagram" height="563" viewBox="0 0 737.5 563" width="737.5" xmlns="http://www.w3.org/2000/svg" xmlns:xlink="http://www.w3.org/1999/xlink">
<g transform="translate(.5 .5)">
<style>/* <![CDATA[ */
    svg.railroad-diagram {
        background-color:hsl(30,20%,95%);
    }
    svg.railroad-diagram path {
        stroke-width: 2;
        stroke: black;
        fill: none;
    }
    svg.railroad-diagram text {
        font-size: 12px;
        text-anchor: middle;
        font-family: DejaVu Sans;
    }
    svg.railroad-diagram text.label {
        text-anchor:start;
    }
    svg.railroad-diagram text.comment {
        font-family: DejaVu Sans;
        font-size: 14px;
    }
    svg.railroad-diagram rect{
        stroke-width: 2;
        stroke:black;
        fill: rgb(210, 210, 255);
    }
    svg.railroad-diagram rect.group-box {
        stroke: gray;
        stroke-dasharray: 10 5;
        fill: none;
    }
    .terminal {
        font-family: DejaVu Sans;
    }

/* ]]> */
</style><g>
<path d="M 20 356 v 20 m 0 -10 h 20"></path></g><path d="M 40 366 h 10"></path><g>
<path d="M 50 366 h 0.0"></path><path d="M 687.5 366 h 0.0"></path><rect class="group-box" height="507" rx="10" ry="10" width="637.5" x="50.0" y="36"></rect><g>
<path d="M 50.0 366 h 10.0"></path><path d="M 677.5 366 h 10.0"></path><g class="terminal ">
<path d="M 60.0 366 h 0.0"></path><path d="M 131.0 366 h 0.0"></path><rect height="22" rx="10" ry="10" width="71.0" x="60.0" y="355"></rect><text x="95.5" y="370">&#60;char></text></g><path d="M 131.0 366 h 10"></path><g>
<path d="M 141.0 366 h 0.0"></path><path d="M 677.5 366 h 0.0"></path><path d="M 141.0 366 a 10 10 0 0 0 10 -10 v -19 a 10 10 0 0 1 10 -10"></path><g>
<path d="M 161.0 327 h 0.0"></path><path d="M 323.0 327 h 0.0"></path><g class="terminal ">
<path d="M 161.0 327 h 0.0"></path><path d="M 249.0 327 h 0.0"></path><rect height="22" rx="10" ry="10" width="88.0" x="161.0" y="316"></rect><text x="205.0" y="331">@closed?</text></g><path d="M 249.0 327 h 10"></path><path d="M 259.0 327 h 10"></path><g class="terminal ">
<path d="M 269.0 327 h 0.0"></path><path d="M 323.0 327 h 0.0"></path><rect height="22" rx="10" ry="10" width="54.0" x="269.0" y="316"></rect><text x="296.0" y="331">BOOL</text></g></g><path d="M 141.0 366 a 10 10 0 0 0 10 -10 v -57 a 10 10 0 0 1 10 -10"></path><g>
<path d="M 161.0 289 h 0.0"></path><path d="M 430.0 289 h 0.0"></path><g class="terminal ">
<path d="M 161.0 289 h 0.0"></path><path d="M 232.0 289 h 0.0"></path><rect height="22" rx="10" ry="10" width="71.0" x="161.0" y="278"></rect><text x="196.5" y="293">@style</text></g><path d="M 232.0 289 h 10"></path><path d="M 242.0 289 h 10"></path><g>
<path d="M 252.0 289 h 0.0"></path><path d="M 430.0 289 h 0.0"></path><rect class="group-box" height="248" rx="10" ry="10" width="178" x="252.0" y="60"></rect><g>
<path d="M 252.0 289 h 33.5"></path><path d="M 285.5 289 a 10 10 0 0 0 10 -10 v -10 a 10 10 0 0 1 10 -10"></path><g class="terminal ">
<path d="M 305.5 259 h 0.0"></path><path d="M 376.5 259 h 0.0"></path><rect height="22" rx="10" ry="10" width="71.0" x="305.5" y="248"></rect><text x="341.0" y="263">"liv4"</text></g><path d="M 285.5 289 a 10 10 0 0 0 10 -10 v -40 a 10 10 0 0 1 10 -10"></path><g class="terminal ">
<path d="M 305.5 229 h 0.0"></path><path d="M 376.5 229 h 0.0"></path><rect height="22" rx="10" ry="10" width="71.0" x="305.5" y="218"></rect><text x="341.0" y="233">"liv3"</text></g><path d="M 285.5 289 a 10 10 0 0 0 10 -10 v -70 a 10 10 0 0 1 10 -10"></path><g class="terminal ">
<path d="M 305.5 199 h 0.0"></path><path d="M 376.5 199 h 0.0"></path><rect height="22" rx="10" ry="10" width="71.0" x="305.5" y="188"></rect><text x="341.0" y="203">"liv2"</text></g><path d="M 285.5 289 a 10 10 0 0 0 10 -10 v -100 a 10 10 0 0 1 10 -10"></path><g class="terminal ">
<path d="M 305.5 169 h 0.0"></path><path d="M 376.5 169 h 0.0"></path><rect height="22" rx="10" ry="10" width="71.0" x="305.5" y="158"></rect><text x="341.0" y="173">"liv1"</text></g><path d="M 285.5 289 a 10 10 0 0 0 10 -10 v -130 a 10 10 0 0 1 10 -10"></path><g class="terminal ">
<path d="M 305.5 139 h 0.0"></path><path d="M 368.0 139 h 0.0"></path><rect height="22" rx="10" ry="10" width="62.5" x="305.5" y="128"></rect><text x="336.75" y="143">"liv"</text></g><path d="M 285.5 289 a 10 10 0 0 0 10 -10 v -160 a 10 10 0 0 1 10 -10"></path><g class="terminal ">
<path d="M 305.5 109 h 0.0"></path><path d="M 368.0 109 h 0.0"></path><rect height="22" rx="10" ry="10" width="62.5" x="305.5" y="98"></rect><text x="336.75" y="113">"lik"</text></g><path d="M 285.5 289 a 10 10 0 0 0 10 -10 v -190 a 10 10 0 0 1 10 -10"></path><g class="terminal ">
<path d="M 305.5 79 h 0.0"></path><path d="M 376.5 79 h 0.0"></path><rect height="22" rx="10" ry="10" width="71.0" x="305.5" y="68"></rect><text x="341.0" y="83">"litl"</text></g><path d="M 285.5 289 h 20"></path><g class="terminal ">
<path d="M 305.5 289 h 0.0"></path><path d="M 376.5 289 h 0.0"></path><rect height="22" rx="10" ry="10" width="71.0" x="305.5" y="278"></rect><text x="341.0" y="293">"liv5"</text></g></g><g class="non-terminal ">
<path d="M 252.0 52 h 0.0"></path><path d="M 430.0 52 h 0.0"></path><text class="comment" x="341.0" y="57">ListChar.char.style.enum</text></g></g></g><path d="M 141.0 366 h 20"></path><g>
<path d="M 161.0 366 h 0.0"></path><path d="M 657.5 366 h 0.0"></path><g>
<path d="M 161.0 366 h 0.0"></path><path d="M 297.5 366 h 0.0"></path><path d="M 161.0 366 a 10 10 0 0 0 10 -10 v 0 a 10 10 0 0 1 10 -10"></path><g>
<path d="M 181.0 346 h 96.5"></path></g><path d="M 277.5 346 a 10 10 0 0 1 10 10 v 0 a 10 10 0 0 0 10 10"></path><path d="M 161.0 366 h 20"></path><g class="non-terminal ">
<path d="M 181.0 366 h 0.0"></path><path d="M 277.5 366 h 0.0"></path><rect height="22" width="96.5" x="181.0" y="355"></rect><text x="229.25" y="370">char.link</text></g><path d="M 277.5 366 h 20"></path></g><path d="M 297.5 366 h 10"></path><g class="terminal ">
<path d="M 307.5 366 h 0.0"></path><path d="M 361.5 366 h 0.0"></path><rect height="22" rx="10" ry="10" width="54.0" x="307.5" y="355"></rect><text x="334.5" y="370">text</text></g><path d="M 361.5 366 h 10"></path><g>
<path d="M 371.5 366 h 0.0"></path><path d="M 568.0 366 h 0.0"></path><path d="M 371.5 366 a 10 10 0 0 0 10 -10 v 0 a 10 10 0 0 1 10 -10"></path><g>
<path d="M 391.5 346 h 156.5"></path></g><path d="M 548.0 346 a 10 10 0 0 1 10 10 v 0 a 10 10 0 0 0 10 10"></path><path d="M 371.5 366 h 20"></path><g>
<path d="M 391.5 366 h 0.0"></path><path d="M 548.0 366 h 0.0"></path><path d="M 391.5 366 h 10"></path><g>
<path d="M 401.5 366 h 0.0"></path><path d="M 538.0 366 h 0.0"></path><path d="M 401.5 366 h 20"></path><g class="non-terminal ">
<path d="M 421.5 366 h 0.0"></path><path d="M 518.0 366 h 0.0"></path><rect height="22" width="96.5" x="421.5" y="355"></rect><text x="469.75" y="370">Reference</text></g><path d="M 518.0 366 h 20"></path><path d="M 401.5 366 a 10 10 0 0 1 10 10 v 10 a 10 10 0 0 0 10 10"></path><g class="non-terminal ">
<path d="M 421.5 396 h 21.25"></path><path d="M 496.75 396 h 21.25"></path><rect height="22" width="54.0" x="442.75" y="385"></rect><text x="469.75" y="400">Char</text></g><path d="M 518.0 396 a 10 10 0 0 0 10 -10 v -10 a 10 10 0 0 1 10 -10"></path><path d="M 401.5 366 a 10 10 0 0 1 10 10 v 40 a 10 10 0 0 0 10 10"></path><g class="non-terminal ">
<path d="M 421.5 426 h 0.0"></path><path d="M 518.0 426 h 0.0"></path><rect height="22" width="96.5" x="421.5" y="415"></rect><text x="469.75" y="430">Milestone</text></g><path d="M 518.0 426 a 10 10 0 0 0 10 -10 v -40 a 10 10 0 0 1 10 -10"></path><path d="M 401.5 366 a 10 10 0 0 1 10 10 v 70 a 10 10 0 0 0 10 10"></path><g class="non-terminal ">
<path d="M 421.5 456 h 4.25"></path><path d="M 513.75 456 h 4.25"></path><rect height="22" width="88.0" x="425.75" y="445"></rect><text x="469.75" y="460">Footnote</text></g><path d="M 518.0 456 a 10 10 0 0 0 10 -10 v -70 a 10 10 0 0 1 10 -10"></path><path d="M 401.5 366 a 10 10 0 0 1 10 10 v 100 a 10 10 0 0 0 10 10"></path><g class="non-terminal ">
<path d="M 421.5 486 h 17.0"></path><path d="M 501.0 486 h 17.0"></path><rect height="22" width="62.5" x="438.5" y="475"></rect><text x="469.75" y="490">Break</text></g><path d="M 518.0 486 a 10 10 0 0 0 10 -10 v -100 a 10 10 0 0 1 10 -10"></path><path d="M 401.5 366 a 10 10 0 0 1 10 10 v 130 a 10 10 0 0 0 10 10"></path><g class="terminal ">
<path d="M 421.5 516 h 21.25"></path><path d="M 496.75 516 h 21.25"></path><rect height="22" rx="10" ry="10" width="54.0" x="442.75" y="505"></rect><text x="469.75" y="520">text</text></g><path d="M 518.0 516 a 10 10 0 0 0 10 -10 v -130 a 10 10 0 0 1 10 -10"></path></g><path d="M 538.0 366 h 10"></path><path d="M 401.5 366 a 10 10 0 0 0 -10 10 v 149 a 10 10 0 0 0 10 10"></path><g>
<path d="M 401.5 535 h 136.5"></path></g><path d="M 538.0 535 a 10 10 0 0 0 10 -10 v -149 a 10 10 0 0 0 -10 -10"></path></g><path d="M 548.0 366 h 20"></path></g><path d="M 568.0 366 h 10"></path><g class="terminal ">
<path d="M 578.0 366 h 0.0"></path><path d="M 657.5 366 h 0.0"></path><rect height="22" rx="10" ry="10" width="79.5" x="578.0" y="355"></rect><text x="617.75" y="370">&#60;/char></text></g></g><path d="M 657.5 366 h 20"></path></g></g><g class="non-terminal ">
<path d="M 50.0 28 h 0.0"></path><path d="M 116.0 28 h 0.0"></path><text class="comment" x="83.0" y="33">ListChar</text></g></g><path d="M 687.5 366 h 10"></path><path d="M 697.5 366 h 20 m 0 -10 v 20"></path></g></svg>