<svg class="railroad-diagram" height="408" viewBox="0 0 943.0 408" width="943.0" xmlns="http://www.w3.org/2000/svg" xmlns:xlink="http://www.w3.org/1999/xlink">
<g transform="translate(.5 .5)">
<style>/* <![CDATA[ */

    svg.railroad-diagram {
        background-color: hsl(30,20%,95%);
    }
    svg.railroad-diagram path {
        stroke-width: 2;
        stroke: black;
        fill: none;
    }
    svg.railroad-diagram text {
        font-size: 12px;
        text-anchor: middle;
        font-family: DejaVu Sans;
    }
    svg.railroad-diagram text.label {
        text-anchor:start;
    }
    svg.railroad-diagram text.comment {
        font-family: DejaVu Sans;
        font-size: 14px;
    }
    svg.railroad-diagram rect{
        stroke-width: 2;
        stroke: black;
        fill: rgb(210, 255, 210);
    }
    svg.railroad-diagram rect.group-box {
        stroke: gray;
        stroke-dasharray: 10 5;
        fill: none;
    }
    .terminal {
        font-family: DejaVu Sans;
    }
    svg.railroad-diagram g.altterminal rect {
        fill: rgb(251, 252, 207)
    }

/* ]]> */
</style><g>
<path d="M 20 129 v 20 m 0 -10 h 20"></path></g><path d="M 40 139 h 10"></path><g>
<path d="M 50 139 h 0.0"></path><path d="M 893.0 139 h 0.0"></path><g>
<path d="M 50.0 139 h 0.0"></path><path d="M 186.5 139 h 0.0"></path><path d="M 50.0 139 h 20"></path><g class="terminal ">
<path d="M 70.0 139 h 12.75"></path><path d="M 153.75 139 h 12.75"></path><rect height="22" rx="10" ry="10" width="71.0" x="82.75" y="128"></rect><text x="118.25" y="143">'\n\\'</text></g><path d="M 166.5 139 h 20"></path><path d="M 50.0 139 a 10 10 0 0 1 10 10 v 10 a 10 10 0 0 0 10 10"></path><g class="terminal altterminal">
<path d="M 70.0 169 h 0.0"></path><path d="M 166.5 169 h 0.0"></path><rect height="22" rx="10" ry="10" width="96.5" x="70.0" y="158"></rect><text x="118.25" y="173">/${Ws}\\/</text></g><path d="M 166.5 169 a 10 10 0 0 0 10 -10 v -10 a 10 10 0 0 1 10 -10"></path></g><path d="M 186.5 139 h 10"></path><g>
<path d="M 196.5 139 h 0.0"></path><path d="M 498.5 139 h 0.0"></path><path d="M 196.5 139 a 10 10 0 0 0 10 -10 v -99 a 10 10 0 0 1 10 -10 h 121.0"></path><path d="M 357.5 168 h 121.0 a 10 10 0 0 0 10 -10 v -9 a 10 10 0 0 1 10 -10"></path><path d="M 196.5 139 h 10"></path><g>
<path d="M 206.5 139 h 10.0"></path><path d="M 327.5 139 h 10.0"></path><path d="M 216.5 139 a 10 10 0 0 0 10 -10 v -10 a 10 10 0 0 1 10 -10"></path><g class="terminal ">
<path d="M 236.5 109 h 4.25"></path><path d="M 303.25 109 h 4.25"></path><rect height="22" rx="10" ry="10" width="62.5" x="240.75" y="98"></rect><text x="272.0" y="113">"li2"</text></g><path d="M 307.5 109 a 10 10 0 0 1 10 10 v 10 a 10 10 0 0 0 10 10"></path><path d="M 216.5 139 a 10 10 0 0 0 10 -10 v -40 a 10 10 0 0 1 10 -10"></path><g class="terminal ">
<path d="M 236.5 79 h 4.25"></path><path d="M 303.25 79 h 4.25"></path><rect height="22" rx="10" ry="10" width="62.5" x="240.75" y="68"></rect><text x="272.0" y="83">"li1"</text></g><path d="M 307.5 79 a 10 10 0 0 1 10 10 v 40 a 10 10 0 0 0 10 10"></path><path d="M 216.5 139 a 10 10 0 0 0 10 -10 v -70 a 10 10 0 0 1 10 -10"></path><g class="terminal ">
<path d="M 236.5 49 h 8.5"></path><path d="M 299.0 49 h 8.5"></path><rect height="22" rx="10" ry="10" width="54.0" x="245.0" y="38"></rect><text x="272.0" y="53">"lh"</text></g><path d="M 307.5 49 a 10 10 0 0 1 10 10 v 70 a 10 10 0 0 0 10 10"></path><path d="M 216.5 139 h 20"></path><g class="terminal ">
<path d="M 236.5 139 h 4.25"></path><path d="M 303.25 139 h 4.25"></path><rect height="22" rx="10" ry="10" width="62.5" x="240.75" y="128"></rect><text x="272.0" y="143">"li3"</text></g><path d="M 307.5 139 h 20"></path><path d="M 216.5 139 a 10 10 0 0 1 10 10 v 10 a 10 10 0 0 0 10 10"></path><g class="terminal ">
<path d="M 236.5 169 h 4.25"></path><path d="M 303.25 169 h 4.25"></path><rect height="22" rx="10" ry="10" width="62.5" x="240.75" y="158"></rect><text x="272.0" y="173">"li4"</text></g><path d="M 307.5 169 a 10 10 0 0 0 10 -10 v -10 a 10 10 0 0 1 10 -10"></path><path d="M 216.5 139 a 10 10 0 0 1 10 10 v 40 a 10 10 0 0 0 10 10"></path><g class="terminal ">
<path d="M 236.5 199 h 0.0"></path><path d="M 307.5 199 h 0.0"></path><rect height="22" rx="10" ry="10" width="71.0" x="236.5" y="188"></rect><text x="272.0" y="203">"lim1"</text></g><path d="M 307.5 199 a 10 10 0 0 0 10 -10 v -40 a 10 10 0 0 1 10 -10"></path><path d="M 216.5 139 a 10 10 0 0 1 10 10 v 70 a 10 10 0 0 0 10 10"></path><g class="terminal ">
<path d="M 236.5 229 h 0.0"></path><path d="M 307.5 229 h 0.0"></path><rect height="22" rx="10" ry="10" width="71.0" x="236.5" y="218"></rect><text x="272.0" y="233">"lim2"</text></g><path d="M 307.5 229 a 10 10 0 0 0 10 -10 v -70 a 10 10 0 0 1 10 -10"></path><path d="M 216.5 139 a 10 10 0 0 1 10 10 v 100 a 10 10 0 0 0 10 10"></path><g class="terminal ">
<path d="M 236.5 259 h 0.0"></path><path d="M 307.5 259 h 0.0"></path><rect height="22" rx="10" ry="10" width="71.0" x="236.5" y="248"></rect><text x="272.0" y="263">"lim3"</text></g><path d="M 307.5 259 a 10 10 0 0 0 10 -10 v -100 a 10 10 0 0 1 10 -10"></path></g><path d="M 337.5 139 a 10 10 0 0 1 10 10 v 9 a 10 10 0 0 0 10 10"></path><path d="M 337.5 20 a 10 10 0 0 1 10 10 v 99 a 10 10 0 0 0 10 10"></path><g>
<path d="M 357.5 139 h 10.0"></path><path d="M 478.5 139 h 10.0"></path><path d="M 367.5 139 a 10 10 0 0 0 10 -10 v -10 a 10 10 0 0 1 10 -10"></path><g class="terminal ">
<path d="M 387.5 109 h 8.5"></path><path d="M 450.0 109 h 8.5"></path><rect height="22" rx="10" ry="10" width="54.0" x="396.0" y="98"></rect><text x="423.0" y="113">"li"</text></g><path d="M 458.5 109 a 10 10 0 0 1 10 10 v 10 a 10 10 0 0 0 10 10"></path><path d="M 367.5 139 a 10 10 0 0 0 10 -10 v -40 a 10 10 0 0 1 10 -10"></path><g class="terminal ">
<path d="M 387.5 79 h 4.25"></path><path d="M 454.25 79 h 4.25"></path><rect height="22" rx="10" ry="10" width="62.5" x="391.75" y="68"></rect><text x="423.0" y="83">"lim"</text></g><path d="M 458.5 79 a 10 10 0 0 1 10 10 v 40 a 10 10 0 0 0 10 10"></path><path d="M 367.5 139 a 10 10 0 0 0 10 -10 v -70 a 10 10 0 0 1 10 -10"></path><g class="terminal ">
<path d="M 387.5 49 h 0.0"></path><path d="M 458.5 49 h 0.0"></path><rect height="22" rx="10" ry="10" width="71.0" x="387.5" y="38"></rect><text x="423.0" y="53">"lim4"</text></g><path d="M 458.5 49 a 10 10 0 0 1 10 10 v 70 a 10 10 0 0 0 10 10"></path><path d="M 367.5 139 h 20"></path><g class="terminal ">
<path d="M 387.5 139 h 8.5"></path><path d="M 450.0 139 h 8.5"></path><rect height="22" rx="10" ry="10" width="54.0" x="396.0" y="128"></rect><text x="423.0" y="143">"lf"</text></g><path d="M 458.5 139 h 20"></path></g><path d="M 488.5 139 h 10"></path></g><path d="M 498.5 139 h 10"></path><g>
<path d="M 508.5 139 h 0.0"></path><path d="M 619.5 139 h 0.0"></path><path d="M 508.5 139 h 20"></path><g class="terminal ">
<path d="M 528.5 139 h 12.75"></path><path d="M 586.75 139 h 12.75"></path><rect height="22" rx="10" ry="10" width="45.5" x="541.25" y="128"></rect><text x="564.0" y="143">' '</text></g><path d="M 599.5 139 h 20"></path><path d="M 508.5 139 a 10 10 0 0 1 10 10 v 10 a 10 10 0 0 0 10 10"></path><g class="terminal altterminal">
<path d="M 528.5 169 h 0.0"></path><path d="M 599.5 169 h 0.0"></path><rect height="22" rx="10" ry="10" width="71.0" x="528.5" y="158"></rect><text x="564.0" y="173">TAGEND</text></g><path d="M 599.5 169 a 10 10 0 0 0 10 -10 v -10 a 10 10 0 0 1 10 -10"></path></g><path d="M 619.5 139 h 10"></path><path d="M 629.5 139 h 10"></path><g>
<path d="M 639.5 139 h 0.0"></path><path d="M 893.0 139 h 0.0"></path><path d="M 639.5 139 a 10 10 0 0 0 10 -10 v -9 a 10 10 0 0 1 10 -10"></path><g>
<path d="M 659.5 110 h 213.5"></path></g><path d="M 873.0 110 a 10 10 0 0 1 10 10 v 9 a 10 10 0 0 0 10 10"></path><path d="M 639.5 139 h 20"></path><g>
<path d="M 659.5 139 h 0.0"></path><path d="M 873.0 139 h 0.0"></path><path d="M 659.5 139 h 10"></path><g>
<path d="M 669.5 139 h 0.0"></path><path d="M 863.0 139 h 0.0"></path><path d="M 669.5 139 h 20"></path><g class="non-terminal ">
<path d="M 689.5 139 h 32.75"></path><path d="M 810.25 139 h 32.75"></path><rect height="22" width="88.0" x="722.25" y="128"></rect><text x="766.25" y="143">Footnote</text></g><path d="M 843.0 139 h 20"></path><path d="M 669.5 139 a 10 10 0 0 1 10 10 v 10 a 10 10 0 0 0 10 10"></path><g class="non-terminal ">
<path d="M 689.5 169 h 7.25"></path><path d="M 835.75 169 h 7.25"></path><rect height="22" width="139.0" x="696.75" y="158"></rect><text x="766.25" y="173">CrossReference</text></g><path d="M 843.0 169 a 10 10 0 0 0 10 -10 v -10 a 10 10 0 0 1 10 -10"></path><path d="M 669.5 139 a 10 10 0 0 1 10 10 v 40 a 10 10 0 0 0 10 10"></path><g class="non-terminal ">
<path d="M 689.5 199 h 49.75"></path><path d="M 793.25 199 h 49.75"></path><rect height="22" width="54.0" x="739.25" y="188"></rect><text x="766.25" y="203">Char</text></g><path d="M 843.0 199 a 10 10 0 0 0 10 -10 v -40 a 10 10 0 0 1 10 -10"></path><path d="M 669.5 139 a 10 10 0 0 1 10 10 v 70 a 10 10 0 0 0 10 10"></path><g class="non-terminal ">
<path d="M 689.5 229 h 32.75"></path><path d="M 810.25 229 h 32.75"></path><rect height="22" width="88.0" x="722.25" y="218"></rect><text x="766.25" y="233">ListChar</text></g><path d="M 843.0 229 a 10 10 0 0 0 10 -10 v -70 a 10 10 0 0 1 10 -10"></path><path d="M 669.5 139 a 10 10 0 0 1 10 10 v 100 a 10 10 0 0 0 10 10"></path><g class="non-terminal ">
<path d="M 689.5 259 h 28.5"></path><path d="M 814.5 259 h 28.5"></path><rect height="22" width="96.5" x="718.0" y="248"></rect><text x="766.25" y="263">Milestone</text></g><path d="M 843.0 259 a 10 10 0 0 0 10 -10 v -100 a 10 10 0 0 1 10 -10"></path><path d="M 669.5 139 a 10 10 0 0 1 10 10 v 130 a 10 10 0 0 0 10 10"></path><g class="non-terminal ">
<path d="M 689.5 289 h 45.5"></path><path d="M 797.5 289 h 45.5"></path><rect height="22" width="62.5" x="735.0" y="278"></rect><text x="766.25" y="293">Verse</text></g><path d="M 843.0 289 a 10 10 0 0 0 10 -10 v -130 a 10 10 0 0 1 10 -10"></path><path d="M 669.5 139 a 10 10 0 0 1 10 10 v 160 a 10 10 0 0 0 10 10"></path><g class="non-terminal ">
<path d="M 689.5 319 h 45.5"></path><path d="M 797.5 319 h 45.5"></path><rect height="22" width="62.5" x="735.0" y="308"></rect><text x="766.25" y="323">Break</text></g><path d="M 843.0 319 a 10 10 0 0 0 10 -10 v -160 a 10 10 0 0 1 10 -10"></path><path d="M 669.5 139 a 10 10 0 0 1 10 10 v 190 a 10 10 0 0 0 10 10"></path><g>
<path d="M 689.5 349 h 0.0"></path><path d="M 843.0 349 h 0.0"></path><g class="terminal ">
<path d="M 689.5 349 h 0.0"></path><path d="M 743.5 349 h 0.0"></path><rect height="22" rx="10" ry="10" width="54.0" x="689.5" y="338"></rect><text x="716.5" y="353">TEXT</text></g><path d="M 743.5 349 h 10"></path><path d="M 753.5 349 h 10"></path><g class="terminal ">
<path d="M 763.5 349 h 0.0"></path><path d="M 843.0 349 h 0.0"></path><rect height="22" rx="10" ry="10" width="79.5" x="763.5" y="338"></rect><text x="803.25" y="353">TEXTEND</text></g></g><path d="M 843.0 349 a 10 10 0 0 0 10 -10 v -190 a 10 10 0 0 1 10 -10"></path></g><path d="M 863.0 139 h 10"></path><path d="M 669.5 139 a 10 10 0 0 0 -10 10 v 219 a 10 10 0 0 0 10 10"></path><g>
<path d="M 669.5 378 h 193.5"></path></g><path d="M 863.0 378 a 10 10 0 0 0 10 -10 v -219 a 10 10 0 0 0 -10 -10"></path></g><path d="M 873.0 139 h 20"></path></g></g><path d="M 893.0 139 h 10"></path><path d="M 903.0 139 h 20 m 0 -10 v 20"></path></g></svg>