<svg class="railroad-diagram" height="676" viewBox="0 0 690.5 676" width="690.5" xmlns="http://www.w3.org/2000/svg" xmlns:xlink="http://www.w3.org/1999/xlink">
<g transform="translate(.5 .5)">
<style>/* <![CDATA[ */

    svg.railroad-diagram {
        background-color: hsl(30,20%,95%);
    }
    svg.railroad-diagram path {
        stroke-width: 2;
        stroke: black;
        fill: none;
    }
    svg.railroad-diagram text {
        font-size: 12px;
        text-anchor: middle;
        font-family: DejaVu Sans;
    }
    svg.railroad-diagram text.label {
        text-anchor:start;
    }
    svg.railroad-diagram text.comment {
        font-family: DejaVu Sans;
        font-size: 14px;
    }
    svg.railroad-diagram rect{
        stroke-width: 2;
        stroke: black;
        fill: rgb(210, 210, 255);
    }
    svg.railroad-diagram rect.group-box {
        stroke: gray;
        stroke-dasharray: 10 5;
        fill: none;
    }
    .terminal {
        font-family: DejaVu Sans;
    }
    svg.railroad-diagram g.altterminal rect {
        fill: rgb(251, 252, 207)
    }

/* ]]> */
</style><g>
<path d="M 20 357 v 20 m 0 -10 h 20"></path></g><path d="M 40 367 h 10"></path><g>
<path d="M 50 367 h 0.0"></path><path d="M 640.5 367 h 0.0"></path><g>
<path d="M 50.0 367 h 0.0"></path><path d="M 640.5 367 h 0.0"></path><g class="terminal ">
<path d="M 50.0 367 h 0.0"></path><path d="M 121.0 367 h 0.0"></path><rect height="22" rx="10" ry="10" width="71.0" x="50.0" y="356"></rect><text x="85.5" y="371">&#60;para></text></g><path d="M 121.0 367 h 10"></path><path d="M 131.0 367 h 10"></path><g>
<path d="M 141.0 367 h 0.0"></path><path d="M 640.5 367 h 0.0"></path><path d="M 141.0 367 a 10 10 0 0 0 10 -10 v -168 a 10 10 0 0 1 10 -10"></path><g>
<path d="M 161.0 179 h 0.0"></path><path d="M 544.0 179 h 0.0"></path><g class="terminal ">
<path d="M 161.0 179 h 0.0"></path><path d="M 232.0 179 h 0.0"></path><rect height="22" rx="10" ry="10" width="71.0" x="161.0" y="168"></rect><text x="196.5" y="183">@style</text></g><path d="M 232.0 179 h 10"></path><g>
<path d="M 242.0 179 h 0.0"></path><path d="M 544.0 179 h 0.0"></path><path d="M 242.0 179 a 10 10 0 0 0 10 -10 v -99 a 10 10 0 0 1 10 -10 h 101.0"></path><path d="M 242.0 179 h 10"></path><g>
<path d="M 252.0 179 h 0.0"></path><path d="M 252.0 179 a 10 10 0 0 0 10 -10 v -10 a 10 10 0 0 1 10 -10"></path><g class="terminal ">
<path d="M 272.0 149 h 0.0"></path><path d="M 334.5 149 h 0.0"></path><rect height="22" rx="10" ry="10" width="62.5" x="272.0" y="138"></rect><text x="303.25" y="153">"li2"</text></g><path d="M 252.0 179 a 10 10 0 0 0 10 -10 v -40 a 10 10 0 0 1 10 -10"></path><g class="terminal ">
<path d="M 272.0 119 h 0.0"></path><path d="M 334.5 119 h 0.0"></path><rect height="22" rx="10" ry="10" width="62.5" x="272.0" y="108"></rect><text x="303.25" y="123">"li1"</text></g><path d="M 252.0 179 a 10 10 0 0 0 10 -10 v -70 a 10 10 0 0 1 10 -10"></path><g class="terminal ">
<path d="M 272.0 89 h 0.0"></path><path d="M 326.0 89 h 0.0"></path><rect height="22" rx="10" ry="10" width="54.0" x="272.0" y="78"></rect><text x="299.0" y="93">"lh"</text></g><path d="M 252.0 179 h 20"></path><g class="terminal ">
<path d="M 272.0 179 h 0.0"></path><path d="M 334.5 179 h 0.0"></path><rect height="22" rx="10" ry="10" width="62.5" x="272.0" y="168"></rect><text x="303.25" y="183">"li3"</text></g><path d="M 252.0 179 a 10 10 0 0 1 10 10 v 10 a 10 10 0 0 0 10 10"></path><g class="terminal ">
<path d="M 272.0 209 h 0.0"></path><path d="M 334.5 209 h 0.0"></path><rect height="22" rx="10" ry="10" width="62.5" x="272.0" y="198"></rect><text x="303.25" y="213">"li4"</text></g><path d="M 252.0 179 a 10 10 0 0 1 10 10 v 40 a 10 10 0 0 0 10 10"></path><g class="terminal ">
<path d="M 272.0 239 h 0.0"></path><path d="M 343.0 239 h 0.0"></path><rect height="22" rx="10" ry="10" width="71.0" x="272.0" y="228"></rect><text x="307.5" y="243">"lim1"</text></g><path d="M 252.0 179 a 10 10 0 0 1 10 10 v 70 a 10 10 0 0 0 10 10"></path><g class="terminal ">
<path d="M 272.0 269 h 0.0"></path><path d="M 343.0 269 h 0.0"></path><rect height="22" rx="10" ry="10" width="71.0" x="272.0" y="258"></rect><text x="307.5" y="273">"lim2"</text></g><path d="M 252.0 179 a 10 10 0 0 1 10 10 v 100 a 10 10 0 0 0 10 10"></path><g class="terminal ">
<path d="M 272.0 299 h 0.0"></path><path d="M 343.0 299 h 0.0"></path><rect height="22" rx="10" ry="10" width="71.0" x="272.0" y="288"></rect><text x="307.5" y="303">"lim3"</text></g></g><path d="M 363.0 60 a 10 10 0 0 1 10 10 v 99 a 10 10 0 0 0 10 10"></path><g>
<path d="M 383.0 179 h 0.0"></path><path d="M 383.0 179 a 10 10 0 0 0 10 -10 v -10 a 10 10 0 0 1 10 -10"></path><g class="terminal ">
<path d="M 403.0 149 h 0.0"></path><path d="M 457.0 149 h 0.0"></path><rect height="22" rx="10" ry="10" width="54.0" x="403.0" y="138"></rect><text x="430.0" y="153">"li"</text></g><path d="M 383.0 179 a 10 10 0 0 0 10 -10 v -40 a 10 10 0 0 1 10 -10"></path><g class="terminal ">
<path d="M 403.0 119 h 0.0"></path><path d="M 465.5 119 h 0.0"></path><rect height="22" rx="10" ry="10" width="62.5" x="403.0" y="108"></rect><text x="434.25" y="123">"lim"</text></g><path d="M 383.0 179 a 10 10 0 0 0 10 -10 v -70 a 10 10 0 0 1 10 -10"></path><g class="terminal ">
<path d="M 403.0 89 h 0.0"></path><path d="M 474.0 89 h 0.0"></path><rect height="22" rx="10" ry="10" width="71.0" x="403.0" y="78"></rect><text x="438.5" y="93">"lim4"</text></g><path d="M 383.0 179 h 20"></path><g class="terminal ">
<path d="M 403.0 179 h 0.0"></path><path d="M 457.0 179 h 0.0"></path><rect height="22" rx="10" ry="10" width="54.0" x="403.0" y="168"></rect><text x="430.0" y="183">"lf"</text></g></g></g></g><path d="M 141.0 367 a 10 10 0 0 0 10 -10 v -306 a 10 10 0 0 1 10 -10"></path><g>
<path d="M 161.0 41 h 0.0"></path><path d="M 620.5 41 h 0.0"></path><g class="terminal ">
<path d="M 161.0 41 h 0.0"></path><path d="M 215.0 41 h 0.0"></path><rect height="22" rx="10" ry="10" width="54.0" x="161.0" y="30"></rect><text x="188.0" y="45">@vid</text></g><path d="M 215.0 41 h 10"></path><path d="M 225.0 41 h 10"></path><g class="terminal ">
<path d="M 235.0 41 h 0.0"></path><path d="M 620.5 41 h 0.0"></path><rect height="22" rx="10" ry="10" width="385.5" x="235.0" y="30"></rect><text x="427.75" y="45">/&#91;A-Z1-4&#93;{3} ?&#91;a-z0-9\-:&#93;&#42;(‏?&#91;\-,&#93;&#91;0-9&#93;+)&#42;/</text></g></g><path d="M 141.0 367 h 20"></path><g>
<path d="M 161.0 367 h 110.25"></path><path d="M 510.25 367 h 110.25"></path><path d="M 271.25 367 a 10 10 0 0 0 10 -10 v -9 a 10 10 0 0 1 10 -10"></path><g>
<path d="M 291.25 338 h 199.0"></path></g><path d="M 490.25 338 a 10 10 0 0 1 10 10 v 9 a 10 10 0 0 0 10 10"></path><path d="M 271.25 367 h 20"></path><g>
<path d="M 291.25 367 h 0.0"></path><path d="M 490.25 367 h 0.0"></path><path d="M 291.25 367 h 10"></path><g>
<path d="M 301.25 367 h 0.0"></path><path d="M 480.25 367 h 0.0"></path><path d="M 301.25 367 h 20"></path><g class="non-terminal ">
<path d="M 321.25 367 h 21.25"></path><path d="M 439.0 367 h 21.25"></path><rect height="22" width="96.5" x="342.5" y="356"></rect><text x="390.75" y="371">Reference</text></g><path d="M 460.25 367 h 20"></path><path d="M 301.25 367 a 10 10 0 0 1 10 10 v 10 a 10 10 0 0 0 10 10"></path><g class="non-terminal ">
<path d="M 321.25 397 h 25.5"></path><path d="M 434.75 397 h 25.5"></path><rect height="22" width="88.0" x="346.75" y="386"></rect><text x="390.75" y="401">Footnote</text></g><path d="M 460.25 397 a 10 10 0 0 0 10 -10 v -10 a 10 10 0 0 1 10 -10"></path><path d="M 301.25 367 a 10 10 0 0 1 10 10 v 40 a 10 10 0 0 0 10 10"></path><g class="non-terminal ">
<path d="M 321.25 427 h 0.0"></path><path d="M 460.25 427 h 0.0"></path><rect height="22" width="139.0" x="321.25" y="416"></rect><text x="390.75" y="431">CrossReference</text></g><path d="M 460.25 427 a 10 10 0 0 0 10 -10 v -40 a 10 10 0 0 1 10 -10"></path><path d="M 301.25 367 a 10 10 0 0 1 10 10 v 70 a 10 10 0 0 0 10 10"></path><g class="non-terminal ">
<path d="M 321.25 457 h 42.5"></path><path d="M 417.75 457 h 42.5"></path><rect height="22" width="54.0" x="363.75" y="446"></rect><text x="390.75" y="461">Char</text></g><path d="M 460.25 457 a 10 10 0 0 0 10 -10 v -70 a 10 10 0 0 1 10 -10"></path><path d="M 301.25 367 a 10 10 0 0 1 10 10 v 100 a 10 10 0 0 0 10 10"></path><g class="non-terminal ">
<path d="M 321.25 487 h 25.5"></path><path d="M 434.75 487 h 25.5"></path><rect height="22" width="88.0" x="346.75" y="476"></rect><text x="390.75" y="491">ListChar</text></g><path d="M 460.25 487 a 10 10 0 0 0 10 -10 v -100 a 10 10 0 0 1 10 -10"></path><path d="M 301.25 367 a 10 10 0 0 1 10 10 v 130 a 10 10 0 0 0 10 10"></path><g class="non-terminal ">
<path d="M 321.25 517 h 21.25"></path><path d="M 439.0 517 h 21.25"></path><rect height="22" width="96.5" x="342.5" y="506"></rect><text x="390.75" y="521">Milestone</text></g><path d="M 460.25 517 a 10 10 0 0 0 10 -10 v -130 a 10 10 0 0 1 10 -10"></path><path d="M 301.25 367 a 10 10 0 0 1 10 10 v 160 a 10 10 0 0 0 10 10"></path><g class="non-terminal ">
<path d="M 321.25 547 h 38.25"></path><path d="M 422.0 547 h 38.25"></path><rect height="22" width="62.5" x="359.5" y="536"></rect><text x="390.75" y="551">Verse</text></g><path d="M 460.25 547 a 10 10 0 0 0 10 -10 v -160 a 10 10 0 0 1 10 -10"></path><path d="M 301.25 367 a 10 10 0 0 1 10 10 v 190 a 10 10 0 0 0 10 10"></path><g class="non-terminal ">
<path d="M 321.25 577 h 38.25"></path><path d="M 422.0 577 h 38.25"></path><rect height="22" width="62.5" x="359.5" y="566"></rect><text x="390.75" y="581">Break</text></g><path d="M 460.25 577 a 10 10 0 0 0 10 -10 v -190 a 10 10 0 0 1 10 -10"></path><path d="M 301.25 367 a 10 10 0 0 1 10 10 v 220 a 10 10 0 0 0 10 10"></path><g class="terminal ">
<path d="M 321.25 607 h 42.5"></path><path d="M 417.75 607 h 42.5"></path><rect height="22" rx="10" ry="10" width="54.0" x="363.75" y="596"></rect><text x="390.75" y="611">TEXT</text></g><path d="M 460.25 607 a 10 10 0 0 0 10 -10 v -220 a 10 10 0 0 1 10 -10"></path></g><path d="M 480.25 367 h 10"></path><path d="M 301.25 367 a 10 10 0 0 0 -10 10 v 249 a 10 10 0 0 0 10 10"></path><g>
<path d="M 301.25 636 h 179.0"></path></g><path d="M 480.25 636 a 10 10 0 0 0 10 -10 v -249 a 10 10 0 0 0 -10 -10"></path></g><path d="M 490.25 367 h 20"></path></g><path d="M 620.5 367 h 20"></path></g></g></g><path d="M 640.5 367 h 10"></path><path d="M 650.5 367 h 20 m 0 -10 v 20"></path></g></svg>