<svg class="railroad-diagram" height="171" viewBox="0 0 1141.0 171" width="1141.0" xmlns="http://www.w3.org/2000/svg" xmlns:xlink="http://www.w3.org/1999/xlink">
<g transform="translate(.5 .5)">
<style>/* <![CDATA[ */

    svg.railroad-diagram {
        background-color:hsl(30,20%,95%);
    }
    svg.railroad-diagram path {
        stroke-width: 2;
        stroke: black;
        fill: none;
    }
    svg.railroad-diagram text {
        font-size: 12px;
        text-anchor: middle;
        font-family: DejaVu Sans;
    }
    svg.railroad-diagram text.label {
        text-anchor:start;
    }
    svg.railroad-diagram text.comment {
        font-family: DejaVu Sans;
        font-size: 14px;
    }
    svg.railroad-diagram rect{
        stroke-width: 2;
        stroke:black;
        fill: rgb(210, 255, 210);
    }
    svg.railroad-diagram rect.group-box {
        stroke: gray;
        stroke-dasharray: 10 5;
        fill: none;
    }
    .terminal {
        font-family: DejaVu Sans;
    }

/* ]]> */
</style><g>
<path d="M 20 21 v 20 m 0 -10 h 20"></path></g><path d="M 40 31 h 10"></path><g>
<path d="M 50 31 h 0.0"></path><path d="M 1091.0 31 h 0.0"></path><g class="terminal ">
<path d="M 50.0 31 h 0.0"></path><path d="M 95.5 31 h 0.0"></path><rect height="22" rx="10" ry="10" width="45.5" x="50.0" y="20"></rect><text x="72.75" y="35">'\'</text></g><path d="M 95.5 31 h 10"></path><path d="M 105.5 31 h 10"></path><g class="terminal ">
<path d="M 115.5 31 h 0.0"></path><path d="M 280.0 31 h 0.0"></path><rect height="22" rx="10" ry="10" width="164.5" x="115.5" y="20"></rect><text x="197.75" y="35">/&#91;a-z&#93;&#91;a-z0-9-&#93;&#42;/</text></g><path d="M 280.0 31 h 10"></path><path d="M 290.0 31 h 10"></path><g class="terminal ">
<path d="M 300.0 31 h 0.0"></path><path d="M 413.5 31 h 0.0"></path><rect height="22" rx="10" ry="10" width="113.5" x="300.0" y="20"></rect><text x="356.75" y="35">/(?=&#91;\\|&#93;)/</text></g><path d="M 413.5 31 h 10"></path><path d="M 423.5 31 h 10"></path><g>
<path d="M 433.5 31 h 0.0"></path><path d="M 960.0 31 h 0.0"></path><path d="M 433.5 31 h 20"></path><g>
<path d="M 453.5 31 h 486.5"></path></g><path d="M 940.0 31 h 20"></path><path d="M 433.5 31 a 10 10 0 0 1 10 10 v 9 a 10 10 0 0 0 10 10"></path><g>
<path d="M 453.5 60 h 0.0"></path><path d="M 940.0 60 h 0.0"></path><g class="terminal ">
<path d="M 453.5 60 h 0.0"></path><path d="M 499.0 60 h 0.0"></path><rect height="22" rx="10" ry="10" width="45.5" x="453.5" y="49"></rect><text x="476.25" y="64">'|'</text></g><path d="M 499.0 60 h 10"></path><path d="M 509.0 60 h 10"></path><g>
<path d="M 519.0 60 h 0.0"></path><path d="M 940.0 60 h 0.0"></path><path d="M 519.0 60 h 20"></path><g>
<path d="M 539.0 60 h 142.25"></path><path d="M 777.75 60 h 142.25"></path><g class="terminal ">
<path d="M 681.25 60 h 0.0"></path><path d="M 777.75 60 h 0.0"></path><rect height="22" rx="10" ry="10" width="96.5" x="681.25" y="49"></rect><text x="729.5" y="64">/&#91;^\\=&#93;&#42;/</text></g></g><path d="M 920.0 60 h 20"></path><path d="M 519.0 60 a 10 10 0 0 1 10 10 v 10 a 10 10 0 0 0 10 10"></path><g>
<path d="M 539.0 90 h 0.0"></path><path d="M 920.0 90 h 0.0"></path><g>
<path d="M 539.0 90 h 0.0"></path><path d="M 920.0 90 h 0.0"></path><path d="M 539.0 90 h 10"></path><g>
<path d="M 549.0 90 h 0.0"></path><path d="M 910.0 90 h 0.0"></path><g class="terminal ">
<path d="M 549.0 90 h 0.0"></path><path d="M 654.0 90 h 0.0"></path><rect height="22" rx="10" ry="10" width="105.0" x="549.0" y="79"></rect><text x="601.5" y="94">/&#91;^\\="&#93;+/</text></g><path d="M 654.0 90 h 10"></path><path d="M 664.0 90 h 10"></path><g class="terminal ">
<path d="M 674.0 90 h 0.0"></path><path d="M 728.0 90 h 0.0"></path><rect height="22" rx="10" ry="10" width="54.0" x="674.0" y="79"></rect><text x="701.0" y="94">'='"</text></g><path d="M 728.0 90 h 10"></path><path d="M 738.0 90 h 10"></path><g class="terminal ">
<path d="M 748.0 90 h 0.0"></path><path d="M 844.5 90 h 0.0"></path><rect height="22" rx="10" ry="10" width="96.5" x="748.0" y="79"></rect><text x="796.25" y="94">/&#91;^\\"&#93;+/</text></g><path d="M 844.5 90 h 10"></path><path d="M 854.5 90 h 10"></path><g class="terminal ">
<path d="M 864.5 90 h 0.0"></path><path d="M 910.0 90 h 0.0"></path><rect height="22" rx="10" ry="10" width="45.5" x="864.5" y="79"></rect><text x="887.25" y="94">'"'</text></g></g><path d="M 910.0 90 h 10"></path><path d="M 549.0 90 a 10 10 0 0 0 -10 10 v 10 a 10 10 0 0 0 10 10"></path><g class="terminal ">
<path d="M 549.0 120 h 162.0"></path><path d="M 748.0 120 h 162.0"></path><rect height="22" rx="10" ry="10" width="37.0" x="711.0" y="109"></rect><text x="729.5" y="124">WS</text></g><path d="M 910.0 120 a 10 10 0 0 0 10 -10 v -10 a 10 10 0 0 0 -10 -10"></path></g></g><path d="M 920.0 90 a 10 10 0 0 0 10 -10 v -10 a 10 10 0 0 1 10 -10"></path></g></g><path d="M 940.0 60 a 10 10 0 0 0 10 -10 v -9 a 10 10 0 0 1 10 -10"></path></g><path d="M 960.0 31 h 10"></path><path d="M 970.0 31 h 10"></path><g class="terminal ">
<path d="M 980.0 31 h 0.0"></path><path d="M 1025.5 31 h 0.0"></path><rect height="22" rx="10" ry="10" width="45.5" x="980.0" y="20"></rect><text x="1002.75" y="35">'\'</text></g><path d="M 1025.5 31 h 10"></path><path d="M 1035.5 31 h 10"></path><g class="terminal ">
<path d="M 1045.5 31 h 0.0"></path><path d="M 1091.0 31 h 0.0"></path><rect height="22" rx="10" ry="10" width="45.5" x="1045.5" y="20"></rect><text x="1068.25" y="35">'&#42;'</text></g></g><path d="M 1091.0 31 h 10"></path><path d="M 1101.0 31 h 20 m 0 -10 v 20"></path></g></svg>