<svg class="railroad-diagram" height="227" viewBox="0 0 1066.5 227" width="1066.5" xmlns="http://www.w3.org/2000/svg" xmlns:xlink="http://www.w3.org/1999/xlink">
<g transform="translate(.5 .5)">
<style>/* <![CDATA[ */
    svg.railroad-diagram {
        background-color:hsl(30,20%,95%);
    }
    svg.railroad-diagram path {
        stroke-width: 2;
        stroke: black;
        fill: none;
    }
    svg.railroad-diagram text {
        font-size: 12px;
        text-anchor: middle;
        font-family: DejaVu Sans;
    }
    svg.railroad-diagram text.label {
        text-anchor:start;
    }
    svg.railroad-diagram text.comment {
        font-family: DejaVu Sans;
        font-size: 14px;
    }
    svg.railroad-diagram rect{
        stroke-width: 2;
        stroke:black;
        fill: rgb(210, 255, 210);
    }
    svg.railroad-diagram rect.group-box {
        stroke: gray;
        stroke-dasharray: 10 5;
        fill: none;
    }
    .terminal {
        font-family: DejaVu Sans;
    }

/* ]]> */
</style><g>
<path d="M 20 45 v 20 m 0 -10 h 20"></path></g><path d="M 40 55 h 10"></path><g>
<path d="M 50 55 h 0.0"></path><path d="M 1016.5 55 h 0.0"></path><rect class="group-box" height="171" rx="10" ry="10" width="966.5" x="50.0" y="36"></rect><g>
<path d="M 50.0 55 h 0.0"></path><path d="M 1016.5 55 h 0.0"></path><path d="M 50.0 55 h 20"></path><g>
<path d="M 70.0 55 h 309.0"></path><path d="M 687.5 55 h 309.0"></path><g>
<path d="M 379.0 55 h 0.0"></path><path d="M 613.5 55 h 0.0"></path><g class="terminal ">
<path d="M 379.0 55 h 0.0"></path><path d="M 424.5 55 h 0.0"></path><rect height="22" rx="10" ry="10" width="45.5" x="379.0" y="44"></rect><text x="401.75" y="59">"\"</text></g><path d="M 424.5 55 h 10"></path><g>
<path d="M 434.5 55 h 0.0"></path><path d="M 613.5 55 h 0.0"></path><path d="M 434.5 55 h 20"></path><g class="terminal ">
<path d="M 454.5 55 h 0.0"></path><path d="M 593.5 55 h 0.0"></path><rect height="22" rx="10" ry="10" width="139.0" x="454.5" y="44"></rect><text x="524.0" y="59">/ts?(\-&#91;se&#93;)?/</text></g><path d="M 593.5 55 h 20"></path><path d="M 434.5 55 a 10 10 0 0 1 10 10 v 10 a 10 10 0 0 0 10 10"></path><g class="terminal ">
<path d="M 454.5 85 h 25.5"></path><path d="M 568.0 85 h 25.5"></path><rect height="22" rx="10" ry="10" width="88.0" x="480.0" y="74"></rect><text x="524.0" y="89">/&#91;Zz&#93;.+/</text></g><path d="M 593.5 85 a 10 10 0 0 0 10 -10 v -10 a 10 10 0 0 1 10 -10"></path></g></g><path d="M 613.5 55 h 10"></path><path d="M 623.5 55 h 10"></path><g class="terminal ">
<path d="M 633.5 55 h 0.0"></path><path d="M 687.5 55 h 0.0"></path><rect height="22" rx="10" ry="10" width="54.0" x="633.5" y="44"></rect><text x="660.5" y="59">"\&#42;"</text></g></g><path d="M 996.5 55 h 20"></path><path d="M 50.0 55 a 10 10 0 0 1 10 10 v 97 a 10 10 0 0 0 10 10"></path><g>
<path d="M 70.0 172 h 0.0"></path><path d="M 996.5 172 h 0.0"></path><g>
<path d="M 70.0 172 h 0.0"></path><path d="M 922.5 172 h 0.0"></path><rect class="group-box" height="79" rx="10" ry="10" width="852.5" x="70.0" y="120"></rect><g>
<path d="M 70.0 172 h 10.0"></path><path d="M 912.5 172 h 10.0"></path><rect class="group-box" height="47" rx="10" ry="10" width="832.5" x="80.0" y="144"></rect><g>
<path d="M 80.0 172 h 10.0"></path><path d="M 902.5 172 h 10.0"></path><g>
<path d="M 90.0 172 h 0.0"></path><path d="M 424.0 172 h 0.0"></path><g>
<path d="M 90.0 172 h 0.0"></path><path d="M 337.0 172 h 0.0"></path><g class="terminal ">
<path d="M 90.0 172 h 0.0"></path><path d="M 135.5 172 h 0.0"></path><rect height="22" rx="10" ry="10" width="45.5" x="90.0" y="161"></rect><text x="112.75" y="176">"\"</text></g><path d="M 135.5 172 h 10"></path><path d="M 145.5 172 h 10"></path><g class="terminal ">
<path d="M 155.5 172 h 0.0"></path><path d="M 337.0 172 h 0.0"></path><rect height="22" rx="10" ry="10" width="181.5" x="155.5" y="161"></rect><text x="246.25" y="176">/qt&#91;1-5&#93;?(\-&#91;se&#93;)?/</text></g></g><path d="M 337.0 172 h 10"></path><g>
<path d="M 347.0 172 h 0.0"></path><path d="M 424.0 172 h 0.0"></path><path d="M 347.0 172 a 10 10 0 0 0 10 -10 v 0 a 10 10 0 0 1 10 -10"></path><g>
<path d="M 367.0 152 h 37.0"></path></g><path d="M 404.0 152 a 10 10 0 0 1 10 10 v 0 a 10 10 0 0 0 10 10"></path><path d="M 347.0 172 h 20"></path><g class="terminal ">
<path d="M 367.0 172 h 0.0"></path><path d="M 404.0 172 h 0.0"></path><rect height="22" rx="10" ry="10" width="37.0" x="367.0" y="161"></rect><text x="385.5" y="176">WS</text></g><path d="M 404.0 172 h 20"></path></g></g><path d="M 424.0 172 h 10"></path><path d="M 434.0 172 h 10"></path><g>
<path d="M 444.0 172 h 0.0"></path><path d="M 576.5 172 h 0.0"></path><g class="terminal ">
<path d="M 444.0 172 h 0.0"></path><path d="M 489.5 172 h 0.0"></path><rect height="22" rx="10" ry="10" width="45.5" x="444.0" y="161"></rect><text x="466.75" y="176">"|"</text></g><path d="M 489.5 172 h 10"></path><g>
<path d="M 499.5 172 h 0.0"></path><path d="M 576.5 172 h 0.0"></path><path d="M 499.5 172 a 10 10 0 0 0 10 -10 v 0 a 10 10 0 0 1 10 -10"></path><g>
<path d="M 519.5 152 h 37.0"></path></g><path d="M 556.5 152 a 10 10 0 0 1 10 10 v 0 a 10 10 0 0 0 10 10"></path><path d="M 499.5 172 h 20"></path><g class="terminal ">
<path d="M 519.5 172 h 0.0"></path><path d="M 556.5 172 h 0.0"></path><rect height="22" rx="10" ry="10" width="37.0" x="519.5" y="161"></rect><text x="538.0" y="176">WS</text></g><path d="M 556.5 172 h 20"></path></g></g><path d="M 576.5 172 h 10"></path><g>
<path d="M 586.5 172 h 0.0"></path><path d="M 902.5 172 h 0.0"></path><path d="M 586.5 172 a 10 10 0 0 0 10 -10 v 0 a 10 10 0 0 1 10 -10"></path><g>
<path d="M 606.5 152 h 276.0"></path></g><path d="M 882.5 152 a 10 10 0 0 1 10 10 v 0 a 10 10 0 0 0 10 10"></path><path d="M 586.5 172 h 20"></path><g>
<path d="M 606.5 172 h 0.0"></path><path d="M 882.5 172 h 0.0"></path><g class="terminal ">
<path d="M 606.5 172 h 0.0"></path><path d="M 677.5 172 h 0.0"></path><rect height="22" rx="10" ry="10" width="71.0" x="606.5" y="161"></rect><text x="642.0" y="176">"who="</text></g><path d="M 677.5 172 h 10"></path><path d="M 687.5 172 h 10"></path><g class="terminal ">
<path d="M 697.5 172 h 0.0"></path><path d="M 743.0 172 h 0.0"></path><rect height="22" rx="10" ry="10" width="45.5" x="697.5" y="161"></rect><text x="720.25" y="176">'"'</text></g><path d="M 743.0 172 h 10"></path><path d="M 753.0 172 h 10"></path><g class="terminal ">
<path d="M 763.0 172 h 0.0"></path><path d="M 817.0 172 h 0.0"></path><rect height="22" rx="10" ry="10" width="54.0" x="763.0" y="161"></rect><text x="790.0" y="176">Text</text></g><path d="M 817.0 172 h 10"></path><path d="M 827.0 172 h 10"></path><g class="terminal ">
<path d="M 837.0 172 h 0.0"></path><path d="M 882.5 172 h 0.0"></path><rect height="22" rx="10" ry="10" width="45.5" x="837.0" y="161"></rect><text x="859.75" y="176">'"'</text></g></g><path d="M 882.5 172 h 20"></path></g></g><g class="non-terminal ">
<path d="M 80.0 136 h 0.0"></path><path d="M 307.0 136 h 0.0"></path><text class="comment" x="193.5" y="141">MilestoneWithAttrib.ms.style.qt</text></g></g><g class="non-terminal ">
<path d="M 70.0 112 h 0.0"></path><path d="M 248.0 112 h 0.0"></path><text class="comment" x="159.0" y="117">MilestoneWithAttrib.enum</text></g></g><path d="M 922.5 172 h 10"></path><path d="M 932.5 172 h 10"></path><g class="terminal ">
<path d="M 942.5 172 h 0.0"></path><path d="M 996.5 172 h 0.0"></path><rect height="22" rx="10" ry="10" width="54.0" x="942.5" y="161"></rect><text x="969.5" y="176">"\&#42;"</text></g></g><path d="M 996.5 172 a 10 10 0 0 0 10 -10 v -97 a 10 10 0 0 1 10 -10"></path></g><g class="non-terminal ">
<path d="M 50.0 28 h 0.0"></path><path d="M 123.0 28 h 0.0"></path><text class="comment" x="86.5" y="33">Milestone</text></g></g><path d="M 1016.5 55 h 10"></path><path d="M 1026.5 55 h 20 m 0 -10 v 20"></path></g></svg>