<svg class="railroad-diagram" height="150" viewBox="0 0 2331.0 150" width="2331.0" xmlns="http://www.w3.org/2000/svg" xmlns:xlink="http://www.w3.org/1999/xlink">
<g transform="translate(.5 .5)">
<style>/* <![CDATA[ */

    svg.railroad-diagram {
        background-color:hsl(30,20%,95%);
    }
    svg.railroad-diagram path {
        stroke-width: 2;
        stroke: black;
        fill: none;
    }
    svg.railroad-diagram text {
        font-size: 12px;
        text-anchor: middle;
        font-family: DejaVu Sans;
    }
    svg.railroad-diagram text.label {
        text-anchor:start;
    }
    svg.railroad-diagram text.comment {
        font-family: DejaVu Sans;
        font-size: 14px;
    }
    svg.railroad-diagram rect{
        stroke-width: 2;
        stroke:black;
        fill: rgb(210, 255, 210);
    }
    svg.railroad-diagram rect.group-box {
        stroke: gray;
        stroke-dasharray: 10 5;
        fill: none;
    }
    .terminal {
        font-family: DejaVu Sans;
    }

/* ]]> */
</style><g>
<path d="M 20 21 v 20 m 0 -10 h 20"></path></g><path d="M 40 31 h 10"></path><g>
<path d="M 50 31 h 0.0"></path><path d="M 2281.0 31 h 0.0"></path><g class="terminal ">
<path d="M 50.0 31 h 0.0"></path><path d="M 95.5 31 h 0.0"></path><rect height="22" rx="10" ry="10" width="45.5" x="50.0" y="20"></rect><text x="72.75" y="35">'\'</text></g><path d="M 95.5 31 h 10"></path><path d="M 105.5 31 h 10"></path><g class="non-terminal ">
<path d="M 115.5 31 h 0.0"></path><path d="M 254.5 31 h 0.0"></path><rect height="22" width="139.0" x="115.5" y="20"></rect><text x="185.0" y="35">Milestone.enum</text></g><path d="M 254.5 31 h 10"></path><path d="M 264.5 31 h 10"></path><g class="terminal ">
<path d="M 274.5 31 h 0.0"></path><path d="M 991.5 31 h 0.0"></path><rect height="22" rx="10" ry="10" width="717.0" x="274.5" y="20"></rect><text x="633.0" y="35">/&#91;\u0009-\u000D\u0020\u00A0\u1680\u2000-\u200B\u2028\u2029\u202F\u205F&#93;?(?=&#91;\\|&#93;)/</text></g><path d="M 991.5 31 h 10"></path><path d="M 1001.5 31 h 10"></path><g>
<path d="M 1011.5 31 h 0.0"></path><path d="M 2150.0 31 h 0.0"></path><path d="M 1011.5 31 h 20"></path><g>
<path d="M 1031.5 31 h 1098.5"></path></g><path d="M 2130.0 31 h 20"></path><path d="M 1011.5 31 a 10 10 0 0 1 10 10 v 9 a 10 10 0 0 0 10 10"></path><g>
<path d="M 1031.5 60 h 0.0"></path><path d="M 2130.0 60 h 0.0"></path><g class="terminal ">
<path d="M 1031.5 60 h 0.0"></path><path d="M 1085.5 60 h 0.0"></path><rect height="22" rx="10" ry="10" width="54.0" x="1031.5" y="49"></rect><text x="1058.5" y="64">PIPE</text></g><path d="M 1085.5 60 h 10"></path><path d="M 1095.5 60 h 10"></path><g>
<path d="M 1105.5 60 h 0.0"></path><path d="M 2130.0 60 h 0.0"></path><path d="M 1105.5 60 h 20"></path><g>
<path d="M 1125.5 60 h 0.0"></path><path d="M 2110.0 60 h 0.0"></path><path d="M 1125.5 60 h 10"></path><g>
<path d="M 1135.5 60 h 0.0"></path><path d="M 2100.0 60 h 0.0"></path><g class="terminal ">
<path d="M 1135.5 60 h 0.0"></path><path d="M 1240.5 60 h 0.0"></path><rect height="22" rx="10" ry="10" width="105.0" x="1135.5" y="49"></rect><text x="1188.0" y="64">/&#91;^\\="&#93;+/</text></g><path d="M 1240.5 60 h 10"></path><path d="M 1250.5 60 h 10"></path><g class="terminal ">
<path d="M 1260.5 60 h 0.0"></path><path d="M 1314.5 60 h 0.0"></path><rect height="22" rx="10" ry="10" width="54.0" x="1260.5" y="49"></rect><text x="1287.5" y="64">'="'</text></g><path d="M 1314.5 60 h 10"></path><path d="M 1324.5 60 h 10"></path><g class="terminal ">
<path d="M 1334.5 60 h 0.0"></path><path d="M 1431.0 60 h 0.0"></path><rect height="22" rx="10" ry="10" width="96.5" x="1334.5" y="49"></rect><text x="1382.75" y="64">/&#91;^\\"&#93;&#42;/</text></g><path d="M 1431.0 60 h 10"></path><path d="M 1441.0 60 h 10"></path><g class="terminal ">
<path d="M 1451.0 60 h 0.0"></path><path d="M 2100.0 60 h 0.0"></path><rect height="22" rx="10" ry="10" width="649.0" x="1451.0" y="49"></rect><text x="1775.5" y="64">/"&#91;\u0009-\u000D\u0020\u00A0\u1680\u2000-\u200B\u2028\u2029\u202F\u205F&#93;&#42;/</text></g></g><path d="M 2100.0 60 h 10"></path><path d="M 1135.5 60 a 10 10 0 0 0 -10 10 v 0 a 10 10 0 0 0 10 10"></path><g>
<path d="M 1135.5 80 h 964.5"></path></g><path d="M 2100.0 80 a 10 10 0 0 0 10 -10 v 0 a 10 10 0 0 0 -10 -10"></path></g><path d="M 2110.0 60 h 20"></path><path d="M 1105.5 60 a 10 10 0 0 1 10 10 v 19 a 10 10 0 0 0 10 10"></path><g>
<path d="M 1125.5 99 h 418.5"></path><path d="M 1691.5 99 h 418.5"></path><g class="terminal ">
<path d="M 1544.0 99 h 0.0"></path><path d="M 1691.5 99 h 0.0"></path><rect height="22" rx="10" ry="10" width="147.5" x="1544.0" y="88"></rect><text x="1617.75" y="103">/&#91;^\\=&#93;+(?=\\)/</text></g></g><path d="M 2110.0 99 a 10 10 0 0 0 10 -10 v -19 a 10 10 0 0 1 10 -10"></path></g></g><path d="M 2130.0 60 a 10 10 0 0 0 10 -10 v -9 a 10 10 0 0 1 10 -10"></path></g><path d="M 2150.0 31 h 10"></path><path d="M 2160.0 31 h 10"></path><g class="terminal ">
<path d="M 2170.0 31 h 0.0"></path><path d="M 2215.5 31 h 0.0"></path><rect height="22" rx="10" ry="10" width="45.5" x="2170.0" y="20"></rect><text x="2192.75" y="35">'\'</text></g><path d="M 2215.5 31 h 10"></path><path d="M 2225.5 31 h 10"></path><g class="terminal ">
<path d="M 2235.5 31 h 0.0"></path><path d="M 2281.0 31 h 0.0"></path><rect height="22" rx="10" ry="10" width="45.5" x="2235.5" y="20"></rect><text x="2258.25" y="35">'&#42;'</text></g></g><path d="M 2281.0 31 h 10"></path><path d="M 2291.0 31 h 20 m 0 -10 v 20"></path></g></svg>