<svg class="railroad-diagram" height="622" viewBox="0 0 1467.5 622" width="1467.5" xmlns="http://www.w3.org/2000/svg" xmlns:xlink="http://www.w3.org/1999/xlink">
<g transform="translate(.5 .5)">
<style>/* <![CDATA[ */

    svg.railroad-diagram {
        background-color: hsl(30,20%,95%);
    }
    svg.railroad-diagram path {
        stroke-width: 2;
        stroke: black;
        fill: none;
    }
    svg.railroad-diagram text {
        font-size: 12px;
        text-anchor: middle;
        font-family: DejaVu Sans;
    }
    svg.railroad-diagram text.label {
        text-anchor:start;
    }
    svg.railroad-diagram text.comment {
        font-family: DejaVu Sans;
        font-size: 14px;
    }
    svg.railroad-diagram rect{
        stroke-width: 2;
        stroke: black;
        fill: rgb(210, 255, 210);
    }
    svg.railroad-diagram rect.group-box {
        stroke: gray;
        stroke-dasharray: 10 5;
        fill: none;
    }
    .terminal {
        font-family: DejaVu Sans;
    }
    svg.railroad-diagram g.altterminal rect {
        fill: rgb(251, 252, 207)
    }

/* ]]> */
</style><g>
<path d="M 20 31 v 20 m 0 -10 h 20"></path></g><path d="M 40 41 h 10"></path><g>
<path d="M 50 41 h 0.0"></path><path d="M 1417.5 41 h 0.0"></path><g class="terminal ">
<path d="M 50.0 41 h 0.0"></path><path d="M 95.5 41 h 0.0"></path><rect height="22" rx="10" ry="10" width="45.5" x="50.0" y="30"></rect><text x="72.75" y="45">'\'</text></g><path d="M 95.5 41 h 10"></path><path d="M 105.5 41 h 10"></path><g>
<path d="M 115.5 41 h 0.0"></path><path d="M 235.0 41 h 0.0"></path><path d="M 115.5 41 h 20"></path><g class="terminal ">
<path d="M 135.5 41 h 4.25"></path><path d="M 210.75 41 h 4.25"></path><rect height="22" rx="10" ry="10" width="71.0" x="139.75" y="30"></rect><text x="175.25" y="45">"ts-s"</text></g><path d="M 215.0 41 h 20"></path><path d="M 115.5 41 a 10 10 0 0 1 10 10 v 10 a 10 10 0 0 0 10 10"></path><g class="terminal ">
<path d="M 135.5 71 h 4.25"></path><path d="M 210.75 71 h 4.25"></path><rect height="22" rx="10" ry="10" width="71.0" x="139.75" y="60"></rect><text x="175.25" y="75">"ts-e"</text></g><path d="M 215.0 71 a 10 10 0 0 0 10 -10 v -10 a 10 10 0 0 1 10 -10"></path><path d="M 115.5 41 a 10 10 0 0 1 10 10 v 40 a 10 10 0 0 0 10 10"></path><g class="terminal ">
<path d="M 135.5 101 h 8.5"></path><path d="M 206.5 101 h 8.5"></path><rect height="22" rx="10" ry="10" width="62.5" x="144.0" y="90"></rect><text x="175.25" y="105">"t-s"</text></g><path d="M 215.0 101 a 10 10 0 0 0 10 -10 v -40 a 10 10 0 0 1 10 -10"></path><path d="M 115.5 41 a 10 10 0 0 1 10 10 v 70 a 10 10 0 0 0 10 10"></path><g class="terminal ">
<path d="M 135.5 131 h 8.5"></path><path d="M 206.5 131 h 8.5"></path><rect height="22" rx="10" ry="10" width="62.5" x="144.0" y="120"></rect><text x="175.25" y="135">"t-e"</text></g><path d="M 215.0 131 a 10 10 0 0 0 10 -10 v -70 a 10 10 0 0 1 10 -10"></path><path d="M 115.5 41 a 10 10 0 0 1 10 10 v 100 a 10 10 0 0 0 10 10"></path><g class="terminal ">
<path d="M 135.5 161 h 12.75"></path><path d="M 202.25 161 h 12.75"></path><rect height="22" rx="10" ry="10" width="54.0" x="148.25" y="150"></rect><text x="175.25" y="165">"ts"</text></g><path d="M 215.0 161 a 10 10 0 0 0 10 -10 v -100 a 10 10 0 0 1 10 -10"></path><path d="M 115.5 41 a 10 10 0 0 1 10 10 v 130 a 10 10 0 0 0 10 10"></path><g class="terminal ">
<path d="M 135.5 191 h 0.0"></path><path d="M 215.0 191 h 0.0"></path><rect height="22" rx="10" ry="10" width="79.5" x="135.5" y="180"></rect><text x="175.25" y="195">"qt1-s"</text></g><path d="M 215.0 191 a 10 10 0 0 0 10 -10 v -130 a 10 10 0 0 1 10 -10"></path><path d="M 115.5 41 a 10 10 0 0 1 10 10 v 160 a 10 10 0 0 0 10 10"></path><g class="terminal ">
<path d="M 135.5 221 h 0.0"></path><path d="M 215.0 221 h 0.0"></path><rect height="22" rx="10" ry="10" width="79.5" x="135.5" y="210"></rect><text x="175.25" y="225">"qt1-e"</text></g><path d="M 215.0 221 a 10 10 0 0 0 10 -10 v -160 a 10 10 0 0 1 10 -10"></path><path d="M 115.5 41 a 10 10 0 0 1 10 10 v 190 a 10 10 0 0 0 10 10"></path><g class="terminal ">
<path d="M 135.5 251 h 0.0"></path><path d="M 215.0 251 h 0.0"></path><rect height="22" rx="10" ry="10" width="79.5" x="135.5" y="240"></rect><text x="175.25" y="255">"qt2-s"</text></g><path d="M 215.0 251 a 10 10 0 0 0 10 -10 v -190 a 10 10 0 0 1 10 -10"></path><path d="M 115.5 41 a 10 10 0 0 1 10 10 v 220 a 10 10 0 0 0 10 10"></path><g class="terminal ">
<path d="M 135.5 281 h 0.0"></path><path d="M 215.0 281 h 0.0"></path><rect height="22" rx="10" ry="10" width="79.5" x="135.5" y="270"></rect><text x="175.25" y="285">"qt2-e"</text></g><path d="M 215.0 281 a 10 10 0 0 0 10 -10 v -220 a 10 10 0 0 1 10 -10"></path><path d="M 115.5 41 a 10 10 0 0 1 10 10 v 250 a 10 10 0 0 0 10 10"></path><g class="terminal ">
<path d="M 135.5 311 h 0.0"></path><path d="M 215.0 311 h 0.0"></path><rect height="22" rx="10" ry="10" width="79.5" x="135.5" y="300"></rect><text x="175.25" y="315">"qt3-s"</text></g><path d="M 215.0 311 a 10 10 0 0 0 10 -10 v -250 a 10 10 0 0 1 10 -10"></path><path d="M 115.5 41 a 10 10 0 0 1 10 10 v 280 a 10 10 0 0 0 10 10"></path><g class="terminal ">
<path d="M 135.5 341 h 0.0"></path><path d="M 215.0 341 h 0.0"></path><rect height="22" rx="10" ry="10" width="79.5" x="135.5" y="330"></rect><text x="175.25" y="345">"qt3-e"</text></g><path d="M 215.0 341 a 10 10 0 0 0 10 -10 v -280 a 10 10 0 0 1 10 -10"></path><path d="M 115.5 41 a 10 10 0 0 1 10 10 v 310 a 10 10 0 0 0 10 10"></path><g class="terminal ">
<path d="M 135.5 371 h 0.0"></path><path d="M 215.0 371 h 0.0"></path><rect height="22" rx="10" ry="10" width="79.5" x="135.5" y="360"></rect><text x="175.25" y="375">"qt4-s"</text></g><path d="M 215.0 371 a 10 10 0 0 0 10 -10 v -310 a 10 10 0 0 1 10 -10"></path><path d="M 115.5 41 a 10 10 0 0 1 10 10 v 340 a 10 10 0 0 0 10 10"></path><g class="terminal ">
<path d="M 135.5 401 h 0.0"></path><path d="M 215.0 401 h 0.0"></path><rect height="22" rx="10" ry="10" width="79.5" x="135.5" y="390"></rect><text x="175.25" y="405">"qt4-e"</text></g><path d="M 215.0 401 a 10 10 0 0 0 10 -10 v -340 a 10 10 0 0 1 10 -10"></path><path d="M 115.5 41 a 10 10 0 0 1 10 10 v 370 a 10 10 0 0 0 10 10"></path><g class="terminal ">
<path d="M 135.5 431 h 0.0"></path><path d="M 215.0 431 h 0.0"></path><rect height="22" rx="10" ry="10" width="79.5" x="135.5" y="420"></rect><text x="175.25" y="435">"qt5-s"</text></g><path d="M 215.0 431 a 10 10 0 0 0 10 -10 v -370 a 10 10 0 0 1 10 -10"></path><path d="M 115.5 41 a 10 10 0 0 1 10 10 v 400 a 10 10 0 0 0 10 10"></path><g class="terminal ">
<path d="M 135.5 461 h 0.0"></path><path d="M 215.0 461 h 0.0"></path><rect height="22" rx="10" ry="10" width="79.5" x="135.5" y="450"></rect><text x="175.25" y="465">"qt5-e"</text></g><path d="M 215.0 461 a 10 10 0 0 0 10 -10 v -400 a 10 10 0 0 1 10 -10"></path><path d="M 115.5 41 a 10 10 0 0 1 10 10 v 430 a 10 10 0 0 0 10 10"></path><g class="terminal ">
<path d="M 135.5 491 h 8.5"></path><path d="M 206.5 491 h 8.5"></path><rect height="22" rx="10" ry="10" width="62.5" x="144.0" y="480"></rect><text x="175.25" y="495">"qts"</text></g><path d="M 215.0 491 a 10 10 0 0 0 10 -10 v -430 a 10 10 0 0 1 10 -10"></path><path d="M 115.5 41 a 10 10 0 0 1 10 10 v 460 a 10 10 0 0 0 10 10"></path><g class="terminal ">
<path d="M 135.5 521 h 8.5"></path><path d="M 206.5 521 h 8.5"></path><rect height="22" rx="10" ry="10" width="62.5" x="144.0" y="510"></rect><text x="175.25" y="525">"qte"</text></g><path d="M 215.0 521 a 10 10 0 0 0 10 -10 v -460 a 10 10 0 0 1 10 -10"></path><path d="M 115.5 41 a 10 10 0 0 1 10 10 v 490 a 10 10 0 0 0 10 10"></path><g class="terminal ">
<path d="M 135.5 551 h 4.25"></path><path d="M 210.75 551 h 4.25"></path><rect height="22" rx="10" ry="10" width="71.0" x="139.75" y="540"></rect><text x="175.25" y="555">"qt-s"</text></g><path d="M 215.0 551 a 10 10 0 0 0 10 -10 v -490 a 10 10 0 0 1 10 -10"></path><path d="M 115.5 41 a 10 10 0 0 1 10 10 v 520 a 10 10 0 0 0 10 10"></path><g class="terminal ">
<path d="M 135.5 581 h 4.25"></path><path d="M 210.75 581 h 4.25"></path><rect height="22" rx="10" ry="10" width="71.0" x="139.75" y="570"></rect><text x="175.25" y="585">"qt-e"</text></g><path d="M 215.0 581 a 10 10 0 0 0 10 -10 v -520 a 10 10 0 0 1 10 -10"></path></g><path d="M 235.0 41 h 10"></path><path d="M 245.0 41 h 10"></path><g class="terminal ">
<path d="M 255.0 41 h 0.0"></path><path d="M 555.5 41 h 0.0"></path><rect height="22" rx="10" ry="10" width="300.5" x="255.0" y="30"></rect><text x="405.25" y="45">/&#91;\u0009-\u000D\u0020&#93;?(?=&#91;\\|&#93;)/</text></g><path d="M 555.5 41 h 10"></path><path d="M 565.5 41 h 10"></path><g>
<path d="M 575.5 41 h 0.0"></path><path d="M 1286.5 41 h 0.0"></path><path d="M 575.5 41 h 20"></path><g>
<path d="M 595.5 41 h 671.0"></path></g><path d="M 1266.5 41 h 20"></path><path d="M 575.5 41 a 10 10 0 0 1 10 10 v 9 a 10 10 0 0 0 10 10"></path><g>
<path d="M 595.5 70 h 0.0"></path><path d="M 1266.5 70 h 0.0"></path><g>
<path d="M 595.5 70 h 0.0"></path><path d="M 689.5 70 h 0.0"></path><path d="M 595.5 70 h 20"></path><g class="terminal ">
<path d="M 615.5 70 h 4.25"></path><path d="M 665.25 70 h 4.25"></path><rect height="22" rx="10" ry="10" width="45.5" x="619.75" y="59"></rect><text x="642.5" y="74">'|'</text></g><path d="M 669.5 70 h 20"></path><path d="M 595.5 70 a 10 10 0 0 1 10 10 v 10 a 10 10 0 0 0 10 10"></path><g class="terminal altterminal">
<path d="M 615.5 100 h 0.0"></path><path d="M 669.5 100 h 0.0"></path><rect height="22" rx="10" ry="10" width="54.0" x="615.5" y="89"></rect><text x="642.5" y="104">PIPE</text></g><path d="M 669.5 100 a 10 10 0 0 0 10 -10 v -10 a 10 10 0 0 1 10 -10"></path></g><path d="M 689.5 70 h 10"></path><path d="M 699.5 70 h 10"></path><g>
<path d="M 709.5 70 h 0.0"></path><path d="M 1266.5 70 h 0.0"></path><path d="M 709.5 70 h 10"></path><g>
<path d="M 719.5 70 h 0.0"></path><path d="M 1256.5 70 h 0.0"></path><g>
<path d="M 719.5 70 h 0.0"></path><path d="M 1256.5 70 h 0.0"></path><path d="M 719.5 70 h 20"></path><g class="terminal ">
<path d="M 739.5 70 h 166.25"></path><path d="M 1070.25 70 h 166.25"></path><rect height="22" rx="10" ry="10" width="164.5" x="905.75" y="59"></rect><text x="988.0" y="74">/&#91;^\\\n=&#93;+(?=\\)/</text></g><path d="M 1236.5 70 h 20"></path><path d="M 719.5 70 a 10 10 0 0 1 10 10 v 10 a 10 10 0 0 0 10 10"></path><g>
<path d="M 739.5 100 h 0.0"></path><path d="M 1236.5 100 h 0.0"></path><g class="terminal ">
<path d="M 739.5 100 h 0.0"></path><path d="M 844.5 100 h 0.0"></path><rect height="22" rx="10" ry="10" width="105.0" x="739.5" y="89"></rect><text x="792.0" y="104">ATTRIBNAME</text></g><path d="M 844.5 100 h 10"></path><path d="M 854.5 100 h 10"></path><g class="terminal ">
<path d="M 864.5 100 h 0.0"></path><path d="M 918.5 100 h 0.0"></path><rect height="22" rx="10" ry="10" width="54.0" x="864.5" y="89"></rect><text x="891.5" y="104">'="'</text></g><path d="M 918.5 100 h 10"></path><path d="M 928.5 100 h 10"></path><g class="terminal ">
<path d="M 938.5 100 h 0.0"></path><path d="M 1043.5 100 h 0.0"></path><rect height="22" rx="10" ry="10" width="105.0" x="938.5" y="89"></rect><text x="991.0" y="104">ATTRIBTEXT</text></g><path d="M 1043.5 100 h 10"></path><path d="M 1053.5 100 h 10"></path><g class="terminal ">
<path d="M 1063.5 100 h 0.0"></path><path d="M 1236.5 100 h 0.0"></path><rect height="22" rx="10" ry="10" width="173.0" x="1063.5" y="89"></rect><text x="1150.0" y="104">/"&#91;\u0009\u0020&#93;&#42;/</text></g></g><path d="M 1236.5 100 a 10 10 0 0 0 10 -10 v -10 a 10 10 0 0 1 10 -10"></path></g></g><path d="M 1256.5 70 h 10"></path><path d="M 719.5 70 a 10 10 0 0 0 -10 10 v 39 a 10 10 0 0 0 10 10"></path><g>
<path d="M 719.5 129 h 537.0"></path></g><path d="M 1256.5 129 a 10 10 0 0 0 10 -10 v -39 a 10 10 0 0 0 -10 -10"></path></g></g><path d="M 1266.5 70 a 10 10 0 0 0 10 -10 v -9 a 10 10 0 0 1 10 -10"></path></g><path d="M 1286.5 41 h 10"></path><path d="M 1296.5 41 h 10"></path><g class="terminal ">
<path d="M 1306.5 41 h 0.0"></path><path d="M 1352.0 41 h 0.0"></path><rect height="22" rx="10" ry="10" width="45.5" x="1306.5" y="30"></rect><text x="1329.25" y="45">'\'</text></g><path d="M 1352.0 41 h 10"></path><path d="M 1362.0 41 h 10"></path><g class="terminal ">
<path d="M 1372.0 41 h 0.0"></path><path d="M 1417.5 41 h 0.0"></path><rect height="22" rx="10" ry="10" width="45.5" x="1372.0" y="30"></rect><text x="1394.75" y="45">'&#42;'</text></g></g><path d="M 1417.5 41 h 10"></path><path d="M 1427.5 41 h 20 m 0 -10 v 20"></path></g></svg>