<svg class="railroad-diagram" height="149" viewBox="0 0 1164.0 149" width="1164.0" xmlns="http://www.w3.org/2000/svg" xmlns:xlink="http://www.w3.org/1999/xlink">
<g transform="translate(.5 .5)">
<style>/* <![CDATA[ */

    svg.railroad-diagram {
        background-color: hsl(30,20%,95%);
    }
    svg.railroad-diagram path {
        stroke-width: 2;
        stroke: black;
        fill: none;
    }
    svg.railroad-diagram text {
        font-size: 12px;
        text-anchor: middle;
        font-family: DejaVu Sans;
    }
    svg.railroad-diagram text.label {
        text-anchor:start;
    }
    svg.railroad-diagram text.comment {
        font-family: DejaVu Sans;
        font-size: 14px;
    }
    svg.railroad-diagram rect{
        stroke-width: 2;
        stroke: black;
        fill: rgb(210, 255, 210);
    }
    svg.railroad-diagram rect.group-box {
        stroke: gray;
        stroke-dasharray: 10 5;
        fill: none;
    }
    .terminal {
        font-family: DejaVu Sans;
    }
    svg.railroad-diagram g.altterminal rect {
        fill: rgb(251, 252, 207)
    }

/* ]]> */
</style><g>
<path d="M 20 21 v 20 m 0 -10 h 20"></path></g><path d="M 40 31 h 10"></path><g>
<path d="M 50 31 h 0.0"></path><path d="M 1114.0 31 h 0.0"></path><g class="terminal ">
<path d="M 50.0 31 h 0.0"></path><path d="M 104.0 31 h 0.0"></path><rect height="22" rx="10" ry="10" width="54.0" x="50.0" y="20"></rect><text x="77.0" y="35">'\\'</text></g><path d="M 104.0 31 h 10"></path><path d="M 114.0 31 h 10"></path><g class="non-terminal ">
<path d="M 124.0 31 h 0.0"></path><path d="M 271.5 31 h 0.0"></path><rect height="22" width="147.5" x="124.0" y="20"></rect><text x="197.75" y="35">Milestones.enum</text></g><path d="M 271.5 31 h 10"></path><path d="M 281.5 31 h 10"></path><g class="terminal ">
<path d="M 291.5 31 h 0.0"></path><path d="M 328.5 31 h 0.0"></path><rect height="22" rx="10" ry="10" width="37.0" x="291.5" y="20"></rect><text x="310.0" y="35">Hs</text></g><path d="M 328.5 31 h 10"></path><path d="M 338.5 31 h 10"></path><g>
<path d="M 348.5 31 h 0.0"></path><path d="M 974.5 31 h 0.0"></path><path d="M 348.5 31 h 20"></path><g>
<path d="M 368.5 31 h 586.0"></path></g><path d="M 954.5 31 h 20"></path><path d="M 348.5 31 a 10 10 0 0 1 10 10 v 9 a 10 10 0 0 0 10 10"></path><g>
<path d="M 368.5 60 h 0.0"></path><path d="M 954.5 60 h 0.0"></path><g>
<path d="M 368.5 60 h 0.0"></path><path d="M 462.5 60 h 0.0"></path><path d="M 368.5 60 h 20"></path><g class="terminal ">
<path d="M 388.5 60 h 4.25"></path><path d="M 438.25 60 h 4.25"></path><rect height="22" rx="10" ry="10" width="45.5" x="392.75" y="49"></rect><text x="415.5" y="64">'|'</text></g><path d="M 442.5 60 h 20"></path><path d="M 368.5 60 a 10 10 0 0 1 10 10 v 10 a 10 10 0 0 0 10 10"></path><g class="terminal altterminal">
<path d="M 388.5 90 h 0.0"></path><path d="M 442.5 90 h 0.0"></path><rect height="22" rx="10" ry="10" width="54.0" x="388.5" y="79"></rect><text x="415.5" y="94">PIPE</text></g><path d="M 442.5 90 a 10 10 0 0 0 10 -10 v -10 a 10 10 0 0 1 10 -10"></path></g><path d="M 462.5 60 h 10"></path><path d="M 472.5 60 h 10"></path><g>
<path d="M 482.5 60 h 0.0"></path><path d="M 954.5 60 h 0.0"></path><path d="M 482.5 60 h 10"></path><g>
<path d="M 492.5 60 h 0.0"></path><path d="M 944.5 60 h 0.0"></path><g>
<path d="M 492.5 60 h 0.0"></path><path d="M 944.5 60 h 0.0"></path><path d="M 492.5 60 h 20"></path><g class="terminal ">
<path d="M 512.5 60 h 157.75"></path><path d="M 766.75 60 h 157.75"></path><rect height="22" rx="10" ry="10" width="96.5" x="670.25" y="49"></rect><text x="718.5" y="64">ATTRIBALL</text></g><path d="M 924.5 60 h 20"></path><path d="M 492.5 60 a 10 10 0 0 1 10 10 v 10 a 10 10 0 0 0 10 10"></path><g>
<path d="M 512.5 90 h 0.0"></path><path d="M 924.5 90 h 0.0"></path><g class="terminal ">
<path d="M 512.5 90 h 0.0"></path><path d="M 617.5 90 h 0.0"></path><rect height="22" rx="10" ry="10" width="105.0" x="512.5" y="79"></rect><text x="565.0" y="94">ATTRIBNAME</text></g><path d="M 617.5 90 h 10"></path><path d="M 627.5 90 h 10"></path><g class="terminal ">
<path d="M 637.5 90 h 0.0"></path><path d="M 691.5 90 h 0.0"></path><rect height="22" rx="10" ry="10" width="54.0" x="637.5" y="79"></rect><text x="664.5" y="94">'="'</text></g><path d="M 691.5 90 h 10"></path><path d="M 701.5 90 h 10"></path><g class="terminal ">
<path d="M 711.5 90 h 0.0"></path><path d="M 816.5 90 h 0.0"></path><rect height="22" rx="10" ry="10" width="105.0" x="711.5" y="79"></rect><text x="764.0" y="94">ATTRIBTEXT</text></g><path d="M 816.5 90 h 10"></path><path d="M 826.5 90 h 10"></path><g class="terminal ">
<path d="M 836.5 90 h 0.0"></path><path d="M 924.5 90 h 0.0"></path><rect height="22" rx="10" ry="10" width="88.0" x="836.5" y="79"></rect><text x="880.5" y="94">/"${Hs}/</text></g></g><path d="M 924.5 90 a 10 10 0 0 0 10 -10 v -10 a 10 10 0 0 1 10 -10"></path></g></g><path d="M 944.5 60 h 10"></path><path d="M 492.5 60 a 10 10 0 0 0 -10 10 v 39 a 10 10 0 0 0 10 10"></path><g>
<path d="M 492.5 119 h 452.0"></path></g><path d="M 944.5 119 a 10 10 0 0 0 10 -10 v -39 a 10 10 0 0 0 -10 -10"></path></g></g><path d="M 954.5 60 a 10 10 0 0 0 10 -10 v -9 a 10 10 0 0 1 10 -10"></path></g><path d="M 974.5 31 h 10"></path><path d="M 984.5 31 h 10"></path><g class="terminal ">
<path d="M 994.5 31 h 0.0"></path><path d="M 1048.5 31 h 0.0"></path><rect height="22" rx="10" ry="10" width="54.0" x="994.5" y="20"></rect><text x="1021.5" y="35">'\\'</text></g><path d="M 1048.5 31 h 10"></path><path d="M 1058.5 31 h 10"></path><g class="terminal ">
<path d="M 1068.5 31 h 0.0"></path><path d="M 1114.0 31 h 0.0"></path><rect height="22" rx="10" ry="10" width="45.5" x="1068.5" y="20"></rect><text x="1091.25" y="35">'&#42;'</text></g></g><path d="M 1114.0 31 h 10"></path><path d="M 1124.0 31 h 20 m 0 -10 v 20"></path></g></svg>