<svg class="railroad-diagram" height="562" viewBox="0 0 655.0 562" width="655.0" xmlns="http://www.w3.org/2000/svg" xmlns:xlink="http://www.w3.org/1999/xlink">
<g transform="translate(.5 .5)">
<style>/* <![CDATA[ */

    svg.railroad-diagram {
        background-color: hsl(30,20%,95%);
    }
    svg.railroad-diagram path {
        stroke-width: 2;
        stroke: black;
        fill: none;
    }
    svg.railroad-diagram text {
        font-size: 12px;
        text-anchor: middle;
        font-family: DejaVu Sans;
    }
    svg.railroad-diagram text.label {
        text-anchor:start;
    }
    svg.railroad-diagram text.comment {
        font-family: DejaVu Sans;
        font-size: 14px;
    }
    svg.railroad-diagram rect{
        stroke-width: 2;
        stroke: black;
        fill: rgb(210, 255, 210);
    }
    svg.railroad-diagram rect.group-box {
        stroke: gray;
        stroke-dasharray: 10 5;
        fill: none;
    }
    .terminal {
        font-family: DejaVu Sans;
    }
    svg.railroad-diagram g.altterminal rect {
        fill: rgb(251, 252, 207)
    }

/* ]]> */
</style><g>
<path d="M 20 31 v 20 m 0 -10 h 20"></path></g><path d="M 40 41 h 10"></path><g>
<path d="M 50 41 h 0.0"></path><path d="M 605.0 41 h 0.0"></path><g class="terminal ">
<path d="M 50.0 41 h 0.0"></path><path d="M 104.0 41 h 0.0"></path><rect height="22" rx="10" ry="10" width="54.0" x="50.0" y="30"></rect><text x="77.0" y="45">'\\'</text></g><path d="M 104.0 41 h 10"></path><path d="M 114.0 41 h 10"></path><g>
<path d="M 124.0 41 h 0.0"></path><path d="M 243.5 41 h 0.0"></path><path d="M 124.0 41 h 20"></path><g class="terminal ">
<path d="M 144.0 41 h 4.25"></path><path d="M 219.25 41 h 4.25"></path><rect height="22" rx="10" ry="10" width="71.0" x="148.25" y="30"></rect><text x="183.75" y="45">"ts-s"</text></g><path d="M 223.5 41 h 20"></path><path d="M 124.0 41 a 10 10 0 0 1 10 10 v 10 a 10 10 0 0 0 10 10"></path><g class="terminal ">
<path d="M 144.0 71 h 4.25"></path><path d="M 219.25 71 h 4.25"></path><rect height="22" rx="10" ry="10" width="71.0" x="148.25" y="60"></rect><text x="183.75" y="75">"ts-e"</text></g><path d="M 223.5 71 a 10 10 0 0 0 10 -10 v -10 a 10 10 0 0 1 10 -10"></path><path d="M 124.0 41 a 10 10 0 0 1 10 10 v 40 a 10 10 0 0 0 10 10"></path><g class="terminal ">
<path d="M 144.0 101 h 12.75"></path><path d="M 210.75 101 h 12.75"></path><rect height="22" rx="10" ry="10" width="54.0" x="156.75" y="90"></rect><text x="183.75" y="105">"ts"</text></g><path d="M 223.5 101 a 10 10 0 0 0 10 -10 v -40 a 10 10 0 0 1 10 -10"></path><path d="M 124.0 41 a 10 10 0 0 1 10 10 v 70 a 10 10 0 0 0 10 10"></path><g class="terminal ">
<path d="M 144.0 131 h 8.5"></path><path d="M 215.0 131 h 8.5"></path><rect height="22" rx="10" ry="10" width="62.5" x="152.5" y="120"></rect><text x="183.75" y="135">"t-s"</text></g><path d="M 223.5 131 a 10 10 0 0 0 10 -10 v -70 a 10 10 0 0 1 10 -10"></path><path d="M 124.0 41 a 10 10 0 0 1 10 10 v 100 a 10 10 0 0 0 10 10"></path><g class="terminal ">
<path d="M 144.0 161 h 8.5"></path><path d="M 215.0 161 h 8.5"></path><rect height="22" rx="10" ry="10" width="62.5" x="152.5" y="150"></rect><text x="183.75" y="165">"t-e"</text></g><path d="M 223.5 161 a 10 10 0 0 0 10 -10 v -100 a 10 10 0 0 1 10 -10"></path><path d="M 124.0 41 a 10 10 0 0 1 10 10 v 130 a 10 10 0 0 0 10 10"></path><g class="terminal ">
<path d="M 144.0 191 h 0.0"></path><path d="M 223.5 191 h 0.0"></path><rect height="22" rx="10" ry="10" width="79.5" x="144.0" y="180"></rect><text x="183.75" y="195">"qt1-s"</text></g><path d="M 223.5 191 a 10 10 0 0 0 10 -10 v -130 a 10 10 0 0 1 10 -10"></path><path d="M 124.0 41 a 10 10 0 0 1 10 10 v 160 a 10 10 0 0 0 10 10"></path><g class="terminal ">
<path d="M 144.0 221 h 0.0"></path><path d="M 223.5 221 h 0.0"></path><rect height="22" rx="10" ry="10" width="79.5" x="144.0" y="210"></rect><text x="183.75" y="225">"qt1-e"</text></g><path d="M 223.5 221 a 10 10 0 0 0 10 -10 v -160 a 10 10 0 0 1 10 -10"></path><path d="M 124.0 41 a 10 10 0 0 1 10 10 v 190 a 10 10 0 0 0 10 10"></path><g class="terminal ">
<path d="M 144.0 251 h 0.0"></path><path d="M 223.5 251 h 0.0"></path><rect height="22" rx="10" ry="10" width="79.5" x="144.0" y="240"></rect><text x="183.75" y="255">"qt2-s"</text></g><path d="M 223.5 251 a 10 10 0 0 0 10 -10 v -190 a 10 10 0 0 1 10 -10"></path><path d="M 124.0 41 a 10 10 0 0 1 10 10 v 220 a 10 10 0 0 0 10 10"></path><g class="terminal ">
<path d="M 144.0 281 h 0.0"></path><path d="M 223.5 281 h 0.0"></path><rect height="22" rx="10" ry="10" width="79.5" x="144.0" y="270"></rect><text x="183.75" y="285">"qt2-e"</text></g><path d="M 223.5 281 a 10 10 0 0 0 10 -10 v -220 a 10 10 0 0 1 10 -10"></path><path d="M 124.0 41 a 10 10 0 0 1 10 10 v 250 a 10 10 0 0 0 10 10"></path><g class="terminal ">
<path d="M 144.0 311 h 0.0"></path><path d="M 223.5 311 h 0.0"></path><rect height="22" rx="10" ry="10" width="79.5" x="144.0" y="300"></rect><text x="183.75" y="315">"qt3-s"</text></g><path d="M 223.5 311 a 10 10 0 0 0 10 -10 v -250 a 10 10 0 0 1 10 -10"></path><path d="M 124.0 41 a 10 10 0 0 1 10 10 v 280 a 10 10 0 0 0 10 10"></path><g class="terminal ">
<path d="M 144.0 341 h 0.0"></path><path d="M 223.5 341 h 0.0"></path><rect height="22" rx="10" ry="10" width="79.5" x="144.0" y="330"></rect><text x="183.75" y="345">"qt3-e"</text></g><path d="M 223.5 341 a 10 10 0 0 0 10 -10 v -280 a 10 10 0 0 1 10 -10"></path><path d="M 124.0 41 a 10 10 0 0 1 10 10 v 310 a 10 10 0 0 0 10 10"></path><g class="terminal ">
<path d="M 144.0 371 h 0.0"></path><path d="M 223.5 371 h 0.0"></path><rect height="22" rx="10" ry="10" width="79.5" x="144.0" y="360"></rect><text x="183.75" y="375">"qt4-s"</text></g><path d="M 223.5 371 a 10 10 0 0 0 10 -10 v -310 a 10 10 0 0 1 10 -10"></path><path d="M 124.0 41 a 10 10 0 0 1 10 10 v 340 a 10 10 0 0 0 10 10"></path><g class="terminal ">
<path d="M 144.0 401 h 0.0"></path><path d="M 223.5 401 h 0.0"></path><rect height="22" rx="10" ry="10" width="79.5" x="144.0" y="390"></rect><text x="183.75" y="405">"qt4-e"</text></g><path d="M 223.5 401 a 10 10 0 0 0 10 -10 v -340 a 10 10 0 0 1 10 -10"></path><path d="M 124.0 41 a 10 10 0 0 1 10 10 v 370 a 10 10 0 0 0 10 10"></path><g class="terminal ">
<path d="M 144.0 431 h 0.0"></path><path d="M 223.5 431 h 0.0"></path><rect height="22" rx="10" ry="10" width="79.5" x="144.0" y="420"></rect><text x="183.75" y="435">"qt5-s"</text></g><path d="M 223.5 431 a 10 10 0 0 0 10 -10 v -370 a 10 10 0 0 1 10 -10"></path><path d="M 124.0 41 a 10 10 0 0 1 10 10 v 400 a 10 10 0 0 0 10 10"></path><g class="terminal ">
<path d="M 144.0 461 h 0.0"></path><path d="M 223.5 461 h 0.0"></path><rect height="22" rx="10" ry="10" width="79.5" x="144.0" y="450"></rect><text x="183.75" y="465">"qt5-e"</text></g><path d="M 223.5 461 a 10 10 0 0 0 10 -10 v -400 a 10 10 0 0 1 10 -10"></path><path d="M 124.0 41 a 10 10 0 0 1 10 10 v 430 a 10 10 0 0 0 10 10"></path><g class="terminal ">
<path d="M 144.0 491 h 4.25"></path><path d="M 219.25 491 h 4.25"></path><rect height="22" rx="10" ry="10" width="71.0" x="148.25" y="480"></rect><text x="183.75" y="495">"qt-s"</text></g><path d="M 223.5 491 a 10 10 0 0 0 10 -10 v -430 a 10 10 0 0 1 10 -10"></path><path d="M 124.0 41 a 10 10 0 0 1 10 10 v 460 a 10 10 0 0 0 10 10"></path><g class="terminal ">
<path d="M 144.0 521 h 4.25"></path><path d="M 219.25 521 h 4.25"></path><rect height="22" rx="10" ry="10" width="71.0" x="148.25" y="510"></rect><text x="183.75" y="525">"qt-e"</text></g><path d="M 223.5 521 a 10 10 0 0 0 10 -10 v -460 a 10 10 0 0 1 10 -10"></path></g><path d="M 243.5 41 h 10"></path><path d="M 253.5 41 h 10"></path><g class="terminal ">
<path d="M 263.5 41 h 0.0"></path><path d="M 300.5 41 h 0.0"></path><rect height="22" rx="10" ry="10" width="37.0" x="263.5" y="30"></rect><text x="282.0" y="45">Hs</text></g><path d="M 300.5 41 h 10"></path><path d="M 310.5 41 h 10"></path><g>
<path d="M 320.5 41 h 0.0"></path><path d="M 465.5 41 h 0.0"></path><path d="M 320.5 41 h 20"></path><g>
<path d="M 340.5 41 h 105.0"></path></g><path d="M 445.5 41 h 20"></path><path d="M 320.5 41 a 10 10 0 0 1 10 10 v 0 a 10 10 0 0 0 10 10"></path><g class="non-terminal ">
<path d="M 340.5 61 h 0.0"></path><path d="M 445.5 61 h 0.0"></path><rect height="22" width="105.0" x="340.5" y="50"></rect><text x="393.0" y="65">Attributes</text></g><path d="M 445.5 61 a 10 10 0 0 0 10 -10 v 0 a 10 10 0 0 1 10 -10"></path></g><path d="M 465.5 41 h 10"></path><path d="M 475.5 41 h 10"></path><g class="terminal ">
<path d="M 485.5 41 h 0.0"></path><path d="M 539.5 41 h 0.0"></path><rect height="22" rx="10" ry="10" width="54.0" x="485.5" y="30"></rect><text x="512.5" y="45">'\\'</text></g><path d="M 539.5 41 h 10"></path><path d="M 549.5 41 h 10"></path><g class="terminal ">
<path d="M 559.5 41 h 0.0"></path><path d="M 605.0 41 h 0.0"></path><rect height="22" rx="10" ry="10" width="45.5" x="559.5" y="30"></rect><text x="582.25" y="45">'&#42;'</text></g></g><path d="M 605.0 41 h 10"></path><path d="M 615.0 41 h 20 m 0 -10 v 20"></path></g></svg>