<svg class="railroad-diagram" height="702" viewBox="0 0 424.5 702" width="424.5" xmlns="http://www.w3.org/2000/svg" xmlns:xlink="http://www.w3.org/1999/xlink">
<g transform="translate(.5 .5)">
<style>/* <![CDATA[ */

    svg.railroad-diagram {
        background-color: hsl(30,20%,95%);
    }
    svg.railroad-diagram path {
        stroke-width: 2;
        stroke: black;
        fill: none;
    }
    svg.railroad-diagram text {
        font-size: 12px;
        text-anchor: middle;
        font-family: DejaVu Sans;
    }
    svg.railroad-diagram text.label {
        text-anchor:start;
    }
    svg.railroad-diagram text.comment {
        font-family: DejaVu Sans;
        font-size: 14px;
    }
    svg.railroad-diagram rect{
        stroke-width: 2;
        stroke: black;
        fill: rgb(210, 210, 255);
    }
    svg.railroad-diagram rect.group-box {
        stroke: gray;
        stroke-dasharray: 10 5;
        fill: none;
    }
    .terminal {
        font-family: DejaVu Sans;
    }
    svg.railroad-diagram g.altterminal rect {
        fill: rgb(251, 252, 207)
    }

/* ]]> */
</style><g>
<path d="M 20 651 v 20 m 0 -10 h 20"></path></g><path d="M 40 661 h 10"></path><g>
<path d="M 50 661 h 0.0"></path><path d="M 374.5 661 h 0.0"></path><g>
<path d="M 50.0 661 h 0.0"></path><path d="M 374.5 661 h 0.0"></path><g class="terminal ">
<path d="M 50.0 661 h 0.0"></path><path d="M 104.0 661 h 0.0"></path><rect height="22" rx="10" ry="10" width="54.0" x="50.0" y="650"></rect><text x="77.0" y="665">&#60;ms></text></g><path d="M 104.0 661 h 10"></path><path d="M 114.0 661 h 10"></path><g>
<path d="M 124.0 661 h 0.0"></path><path d="M 374.5 661 h 0.0"></path><path d="M 124.0 661 a 10 10 0 0 0 10 -10 v -560 a 10 10 0 0 1 10 -10"></path><g>
<path d="M 144.0 81 h 0.0"></path><path d="M 354.5 81 h 0.0"></path><g class="terminal ">
<path d="M 144.0 81 h 0.0"></path><path d="M 215.0 81 h 0.0"></path><rect height="22" rx="10" ry="10" width="71.0" x="144.0" y="70"></rect><text x="179.5" y="85">@style</text></g><path d="M 215.0 81 h 10"></path><path d="M 225.0 81 h 10"></path><g>
<path d="M 235.0 81 h 0.0"></path><path d="M 235.0 81 h 20"></path><g class="terminal ">
<path d="M 255.0 81 h 0.0"></path><path d="M 326.0 81 h 0.0"></path><rect height="22" rx="10" ry="10" width="71.0" x="255.0" y="70"></rect><text x="290.5" y="85">"ts-s"</text></g><path d="M 235.0 81 a 10 10 0 0 1 10 10 v 10 a 10 10 0 0 0 10 10"></path><g class="terminal ">
<path d="M 255.0 111 h 0.0"></path><path d="M 326.0 111 h 0.0"></path><rect height="22" rx="10" ry="10" width="71.0" x="255.0" y="100"></rect><text x="290.5" y="115">"ts-e"</text></g><path d="M 235.0 81 a 10 10 0 0 1 10 10 v 40 a 10 10 0 0 0 10 10"></path><g class="terminal ">
<path d="M 255.0 141 h 0.0"></path><path d="M 317.5 141 h 0.0"></path><rect height="22" rx="10" ry="10" width="62.5" x="255.0" y="130"></rect><text x="286.25" y="145">"t-s"</text></g><path d="M 235.0 81 a 10 10 0 0 1 10 10 v 70 a 10 10 0 0 0 10 10"></path><g class="terminal ">
<path d="M 255.0 171 h 0.0"></path><path d="M 317.5 171 h 0.0"></path><rect height="22" rx="10" ry="10" width="62.5" x="255.0" y="160"></rect><text x="286.25" y="175">"t-e"</text></g><path d="M 235.0 81 a 10 10 0 0 1 10 10 v 100 a 10 10 0 0 0 10 10"></path><g class="terminal ">
<path d="M 255.0 201 h 0.0"></path><path d="M 309.0 201 h 0.0"></path><rect height="22" rx="10" ry="10" width="54.0" x="255.0" y="190"></rect><text x="282.0" y="205">"ts"</text></g><path d="M 235.0 81 a 10 10 0 0 1 10 10 v 130 a 10 10 0 0 0 10 10"></path><g class="terminal ">
<path d="M 255.0 231 h 0.0"></path><path d="M 334.5 231 h 0.0"></path><rect height="22" rx="10" ry="10" width="79.5" x="255.0" y="220"></rect><text x="294.75" y="235">"qt1-s"</text></g><path d="M 235.0 81 a 10 10 0 0 1 10 10 v 160 a 10 10 0 0 0 10 10"></path><g class="terminal ">
<path d="M 255.0 261 h 0.0"></path><path d="M 334.5 261 h 0.0"></path><rect height="22" rx="10" ry="10" width="79.5" x="255.0" y="250"></rect><text x="294.75" y="265">"qt1-e"</text></g><path d="M 235.0 81 a 10 10 0 0 1 10 10 v 190 a 10 10 0 0 0 10 10"></path><g class="terminal ">
<path d="M 255.0 291 h 0.0"></path><path d="M 334.5 291 h 0.0"></path><rect height="22" rx="10" ry="10" width="79.5" x="255.0" y="280"></rect><text x="294.75" y="295">"qt2-s"</text></g><path d="M 235.0 81 a 10 10 0 0 1 10 10 v 220 a 10 10 0 0 0 10 10"></path><g class="terminal ">
<path d="M 255.0 321 h 0.0"></path><path d="M 334.5 321 h 0.0"></path><rect height="22" rx="10" ry="10" width="79.5" x="255.0" y="310"></rect><text x="294.75" y="325">"qt2-e"</text></g><path d="M 235.0 81 a 10 10 0 0 1 10 10 v 250 a 10 10 0 0 0 10 10"></path><g class="terminal ">
<path d="M 255.0 351 h 0.0"></path><path d="M 334.5 351 h 0.0"></path><rect height="22" rx="10" ry="10" width="79.5" x="255.0" y="340"></rect><text x="294.75" y="355">"qt3-s"</text></g><path d="M 235.0 81 a 10 10 0 0 1 10 10 v 280 a 10 10 0 0 0 10 10"></path><g class="terminal ">
<path d="M 255.0 381 h 0.0"></path><path d="M 334.5 381 h 0.0"></path><rect height="22" rx="10" ry="10" width="79.5" x="255.0" y="370"></rect><text x="294.75" y="385">"qt3-e"</text></g><path d="M 235.0 81 a 10 10 0 0 1 10 10 v 310 a 10 10 0 0 0 10 10"></path><g class="terminal ">
<path d="M 255.0 411 h 0.0"></path><path d="M 334.5 411 h 0.0"></path><rect height="22" rx="10" ry="10" width="79.5" x="255.0" y="400"></rect><text x="294.75" y="415">"qt4-s"</text></g><path d="M 235.0 81 a 10 10 0 0 1 10 10 v 340 a 10 10 0 0 0 10 10"></path><g class="terminal ">
<path d="M 255.0 441 h 0.0"></path><path d="M 334.5 441 h 0.0"></path><rect height="22" rx="10" ry="10" width="79.5" x="255.0" y="430"></rect><text x="294.75" y="445">"qt4-e"</text></g><path d="M 235.0 81 a 10 10 0 0 1 10 10 v 370 a 10 10 0 0 0 10 10"></path><g class="terminal ">
<path d="M 255.0 471 h 0.0"></path><path d="M 334.5 471 h 0.0"></path><rect height="22" rx="10" ry="10" width="79.5" x="255.0" y="460"></rect><text x="294.75" y="475">"qt5-s"</text></g><path d="M 235.0 81 a 10 10 0 0 1 10 10 v 400 a 10 10 0 0 0 10 10"></path><g class="terminal ">
<path d="M 255.0 501 h 0.0"></path><path d="M 334.5 501 h 0.0"></path><rect height="22" rx="10" ry="10" width="79.5" x="255.0" y="490"></rect><text x="294.75" y="505">"qt5-e"</text></g><path d="M 235.0 81 a 10 10 0 0 1 10 10 v 430 a 10 10 0 0 0 10 10"></path><g class="terminal ">
<path d="M 255.0 531 h 0.0"></path><path d="M 317.5 531 h 0.0"></path><rect height="22" rx="10" ry="10" width="62.5" x="255.0" y="520"></rect><text x="286.25" y="535">"qts"</text></g><path d="M 235.0 81 a 10 10 0 0 1 10 10 v 460 a 10 10 0 0 0 10 10"></path><g class="terminal ">
<path d="M 255.0 561 h 0.0"></path><path d="M 317.5 561 h 0.0"></path><rect height="22" rx="10" ry="10" width="62.5" x="255.0" y="550"></rect><text x="286.25" y="565">"qte"</text></g><path d="M 235.0 81 a 10 10 0 0 1 10 10 v 490 a 10 10 0 0 0 10 10"></path><g class="terminal ">
<path d="M 255.0 591 h 0.0"></path><path d="M 326.0 591 h 0.0"></path><rect height="22" rx="10" ry="10" width="71.0" x="255.0" y="580"></rect><text x="290.5" y="595">"qt-s"</text></g><path d="M 235.0 81 a 10 10 0 0 1 10 10 v 520 a 10 10 0 0 0 10 10"></path><g class="terminal ">
<path d="M 255.0 621 h 0.0"></path><path d="M 326.0 621 h 0.0"></path><rect height="22" rx="10" ry="10" width="71.0" x="255.0" y="610"></rect><text x="290.5" y="625">"qt-e"</text></g></g></g><path d="M 124.0 661 a 10 10 0 0 0 10 -10 v -600 a 10 10 0 0 1 10 -10"></path><g>
<path d="M 144.0 41 h 0.0"></path><path d="M 255.0 41 h 0.0"></path><g class="terminal ">
<path d="M 144.0 41 h 0.0"></path><path d="M 181.0 41 h 0.0"></path><rect height="22" rx="10" ry="10" width="37.0" x="144.0" y="30"></rect><text x="162.5" y="45">@&#42;</text></g><path d="M 181.0 41 h 10"></path><path d="M 191.0 41 h 10"></path><g class="terminal ">
<path d="M 201.0 41 h 0.0"></path><path d="M 255.0 41 h 0.0"></path><rect height="22" rx="10" ry="10" width="54.0" x="201.0" y="30"></rect><text x="228.0" y="45">TEXT</text></g></g><path d="M 124.0 661 h 20"></path><g class="terminal ">
<path d="M 144.0 661 h 74.0"></path><path d="M 280.5 661 h 74.0"></path><rect height="22" rx="10" ry="10" width="62.5" x="218.0" y="650"></rect><text x="249.25" y="665">EMPTY</text></g><path d="M 354.5 661 h 20"></path></g></g></g><path d="M 374.5 661 h 10"></path><path d="M 384.5 661 h 20 m 0 -10 v 20"></path></g></svg>