<svg class="railroad-diagram" height="762" viewBox="0 0 461.0 762" width="461.0" xmlns="http://www.w3.org/2000/svg" xmlns:xlink="http://www.w3.org/1999/xlink">
<g transform="translate(.5 .5)">
<style>/* <![CDATA[ */

    svg.railroad-diagram {
        background-color: hsl(30,20%,95%);
    }
    svg.railroad-diagram path {
        stroke-width: 2;
        stroke: black;
        fill: none;
    }
    svg.railroad-diagram text {
        font-size: 12px;
        text-anchor: middle;
        font-family: DejaVu Sans;
    }
    svg.railroad-diagram text.label {
        text-anchor:start;
    }
    svg.railroad-diagram text.comment {
        font-family: DejaVu Sans;
        font-size: 14px;
    }
    svg.railroad-diagram rect{
        stroke-width: 2;
        stroke: black;
        fill: rgb(210, 210, 255);
    }
    svg.railroad-diagram rect.group-box {
        stroke: gray;
        stroke-dasharray: 10 5;
        fill: none;
    }
    .terminal {
        font-family: DejaVu Sans;
    }
    svg.railroad-diagram g.altterminal rect {
        fill: rgb(251, 252, 207)
    }

/* ]]> */
</style><g>
<path d="M 20 711 v 20 m 0 -10 h 20"></path></g><path d="M 40 721 h 10"></path><g>
<path d="M 50 721 h 0.0"></path><path d="M 411.0 721 h 0.0"></path><g>
<path d="M 50.0 721 h 0.0"></path><path d="M 411.0 721 h 0.0"></path><g class="terminal ">
<path d="M 50.0 721 h 0.0"></path><path d="M 104.0 721 h 0.0"></path><rect height="22" rx="10" ry="10" width="54.0" x="50.0" y="710"></rect><text x="77.0" y="725">&#60;ms></text></g><path d="M 104.0 721 h 10"></path><path d="M 114.0 721 h 10"></path><g>
<path d="M 124.0 721 h 0.0"></path><path d="M 411.0 721 h 0.0"></path><path d="M 124.0 721 a 10 10 0 0 0 10 -10 v -560 a 10 10 0 0 1 10 -10"></path><g>
<path d="M 144.0 141 h 0.0"></path><path d="M 354.5 141 h 0.0"></path><g class="terminal ">
<path d="M 144.0 141 h 0.0"></path><path d="M 215.0 141 h 0.0"></path><rect height="22" rx="10" ry="10" width="71.0" x="144.0" y="130"></rect><text x="179.5" y="145">@style</text></g><path d="M 215.0 141 h 10"></path><path d="M 225.0 141 h 10"></path><g>
<path d="M 235.0 141 h 0.0"></path><path d="M 235.0 141 h 20"></path><g class="terminal ">
<path d="M 255.0 141 h 0.0"></path><path d="M 326.0 141 h 0.0"></path><rect height="22" rx="10" ry="10" width="71.0" x="255.0" y="130"></rect><text x="290.5" y="145">"ts-s"</text></g><path d="M 235.0 141 a 10 10 0 0 1 10 10 v 10 a 10 10 0 0 0 10 10"></path><g class="terminal ">
<path d="M 255.0 171 h 0.0"></path><path d="M 326.0 171 h 0.0"></path><rect height="22" rx="10" ry="10" width="71.0" x="255.0" y="160"></rect><text x="290.5" y="175">"ts-e"</text></g><path d="M 235.0 141 a 10 10 0 0 1 10 10 v 40 a 10 10 0 0 0 10 10"></path><g class="terminal ">
<path d="M 255.0 201 h 0.0"></path><path d="M 317.5 201 h 0.0"></path><rect height="22" rx="10" ry="10" width="62.5" x="255.0" y="190"></rect><text x="286.25" y="205">"t-s"</text></g><path d="M 235.0 141 a 10 10 0 0 1 10 10 v 70 a 10 10 0 0 0 10 10"></path><g class="terminal ">
<path d="M 255.0 231 h 0.0"></path><path d="M 317.5 231 h 0.0"></path><rect height="22" rx="10" ry="10" width="62.5" x="255.0" y="220"></rect><text x="286.25" y="235">"t-e"</text></g><path d="M 235.0 141 a 10 10 0 0 1 10 10 v 100 a 10 10 0 0 0 10 10"></path><g class="terminal ">
<path d="M 255.0 261 h 0.0"></path><path d="M 309.0 261 h 0.0"></path><rect height="22" rx="10" ry="10" width="54.0" x="255.0" y="250"></rect><text x="282.0" y="265">"ts"</text></g><path d="M 235.0 141 a 10 10 0 0 1 10 10 v 130 a 10 10 0 0 0 10 10"></path><g class="terminal ">
<path d="M 255.0 291 h 0.0"></path><path d="M 334.5 291 h 0.0"></path><rect height="22" rx="10" ry="10" width="79.5" x="255.0" y="280"></rect><text x="294.75" y="295">"qt1-s"</text></g><path d="M 235.0 141 a 10 10 0 0 1 10 10 v 160 a 10 10 0 0 0 10 10"></path><g class="terminal ">
<path d="M 255.0 321 h 0.0"></path><path d="M 334.5 321 h 0.0"></path><rect height="22" rx="10" ry="10" width="79.5" x="255.0" y="310"></rect><text x="294.75" y="325">"qt1-e"</text></g><path d="M 235.0 141 a 10 10 0 0 1 10 10 v 190 a 10 10 0 0 0 10 10"></path><g class="terminal ">
<path d="M 255.0 351 h 0.0"></path><path d="M 334.5 351 h 0.0"></path><rect height="22" rx="10" ry="10" width="79.5" x="255.0" y="340"></rect><text x="294.75" y="355">"qt2-s"</text></g><path d="M 235.0 141 a 10 10 0 0 1 10 10 v 220 a 10 10 0 0 0 10 10"></path><g class="terminal ">
<path d="M 255.0 381 h 0.0"></path><path d="M 334.5 381 h 0.0"></path><rect height="22" rx="10" ry="10" width="79.5" x="255.0" y="370"></rect><text x="294.75" y="385">"qt2-e"</text></g><path d="M 235.0 141 a 10 10 0 0 1 10 10 v 250 a 10 10 0 0 0 10 10"></path><g class="terminal ">
<path d="M 255.0 411 h 0.0"></path><path d="M 334.5 411 h 0.0"></path><rect height="22" rx="10" ry="10" width="79.5" x="255.0" y="400"></rect><text x="294.75" y="415">"qt3-s"</text></g><path d="M 235.0 141 a 10 10 0 0 1 10 10 v 280 a 10 10 0 0 0 10 10"></path><g class="terminal ">
<path d="M 255.0 441 h 0.0"></path><path d="M 334.5 441 h 0.0"></path><rect height="22" rx="10" ry="10" width="79.5" x="255.0" y="430"></rect><text x="294.75" y="445">"qt3-e"</text></g><path d="M 235.0 141 a 10 10 0 0 1 10 10 v 310 a 10 10 0 0 0 10 10"></path><g class="terminal ">
<path d="M 255.0 471 h 0.0"></path><path d="M 334.5 471 h 0.0"></path><rect height="22" rx="10" ry="10" width="79.5" x="255.0" y="460"></rect><text x="294.75" y="475">"qt4-s"</text></g><path d="M 235.0 141 a 10 10 0 0 1 10 10 v 340 a 10 10 0 0 0 10 10"></path><g class="terminal ">
<path d="M 255.0 501 h 0.0"></path><path d="M 334.5 501 h 0.0"></path><rect height="22" rx="10" ry="10" width="79.5" x="255.0" y="490"></rect><text x="294.75" y="505">"qt4-e"</text></g><path d="M 235.0 141 a 10 10 0 0 1 10 10 v 370 a 10 10 0 0 0 10 10"></path><g class="terminal ">
<path d="M 255.0 531 h 0.0"></path><path d="M 334.5 531 h 0.0"></path><rect height="22" rx="10" ry="10" width="79.5" x="255.0" y="520"></rect><text x="294.75" y="535">"qt5-s"</text></g><path d="M 235.0 141 a 10 10 0 0 1 10 10 v 400 a 10 10 0 0 0 10 10"></path><g class="terminal ">
<path d="M 255.0 561 h 0.0"></path><path d="M 334.5 561 h 0.0"></path><rect height="22" rx="10" ry="10" width="79.5" x="255.0" y="550"></rect><text x="294.75" y="565">"qt5-e"</text></g><path d="M 235.0 141 a 10 10 0 0 1 10 10 v 430 a 10 10 0 0 0 10 10"></path><g class="terminal ">
<path d="M 255.0 591 h 0.0"></path><path d="M 317.5 591 h 0.0"></path><rect height="22" rx="10" ry="10" width="62.5" x="255.0" y="580"></rect><text x="286.25" y="595">"qts"</text></g><path d="M 235.0 141 a 10 10 0 0 1 10 10 v 460 a 10 10 0 0 0 10 10"></path><g class="terminal ">
<path d="M 255.0 621 h 0.0"></path><path d="M 317.5 621 h 0.0"></path><rect height="22" rx="10" ry="10" width="62.5" x="255.0" y="610"></rect><text x="286.25" y="625">"qte"</text></g><path d="M 235.0 141 a 10 10 0 0 1 10 10 v 490 a 10 10 0 0 0 10 10"></path><g class="terminal ">
<path d="M 255.0 651 h 0.0"></path><path d="M 326.0 651 h 0.0"></path><rect height="22" rx="10" ry="10" width="71.0" x="255.0" y="640"></rect><text x="290.5" y="655">"qt-s"</text></g><path d="M 235.0 141 a 10 10 0 0 1 10 10 v 520 a 10 10 0 0 0 10 10"></path><g class="terminal ">
<path d="M 255.0 681 h 0.0"></path><path d="M 326.0 681 h 0.0"></path><rect height="22" rx="10" ry="10" width="71.0" x="255.0" y="670"></rect><text x="290.5" y="685">"qt-e"</text></g></g></g><path d="M 124.0 721 a 10 10 0 0 0 10 -10 v -600 a 10 10 0 0 1 10 -10"></path><g>
<path d="M 144.0 101 h 0.0"></path><path d="M 391.0 101 h 0.0"></path><g class="terminal ">
<path d="M 144.0 101 h 0.0"></path><path d="M 198.0 101 h 0.0"></path><rect height="22" rx="10" ry="10" width="54.0" x="144.0" y="90"></rect><text x="171.0" y="105">@sid</text></g><path d="M 198.0 101 h 10"></path><path d="M 208.0 101 h 10"></path><g class="terminal ">
<path d="M 218.0 101 h 0.0"></path><path d="M 391.0 101 h 0.0"></path><rect height="22" rx="10" ry="10" width="173.0" x="218.0" y="90"></rect><text x="304.5" y="105">/&#91;\p{L}\d&#95;\-\.:&#93;+/</text></g></g><path d="M 124.0 721 a 10 10 0 0 0 10 -10 v -630 a 10 10 0 0 1 10 -10"></path><g>
<path d="M 144.0 71 h 0.0"></path><path d="M 391.0 71 h 0.0"></path><g class="terminal ">
<path d="M 144.0 71 h 0.0"></path><path d="M 198.0 71 h 0.0"></path><rect height="22" rx="10" ry="10" width="54.0" x="144.0" y="60"></rect><text x="171.0" y="75">@eid</text></g><path d="M 198.0 71 h 10"></path><path d="M 208.0 71 h 10"></path><g class="terminal ">
<path d="M 218.0 71 h 0.0"></path><path d="M 391.0 71 h 0.0"></path><rect height="22" rx="10" ry="10" width="173.0" x="218.0" y="60"></rect><text x="304.5" y="75">/&#91;\p{L}\d&#95;\-\.:&#93;+/</text></g></g><path d="M 124.0 721 a 10 10 0 0 0 10 -10 v -660 a 10 10 0 0 1 10 -10"></path><g>
<path d="M 144.0 41 h 0.0"></path><path d="M 255.0 41 h 0.0"></path><g class="terminal ">
<path d="M 144.0 41 h 0.0"></path><path d="M 181.0 41 h 0.0"></path><rect height="22" rx="10" ry="10" width="37.0" x="144.0" y="30"></rect><text x="162.5" y="45">@&#42;</text></g><path d="M 181.0 41 h 10"></path><path d="M 191.0 41 h 10"></path><g class="terminal ">
<path d="M 201.0 41 h 0.0"></path><path d="M 255.0 41 h 0.0"></path><rect height="22" rx="10" ry="10" width="54.0" x="201.0" y="30"></rect><text x="228.0" y="45">TEXT</text></g></g><path d="M 124.0 721 h 20"></path><g class="terminal ">
<path d="M 144.0 721 h 92.25"></path><path d="M 298.75 721 h 92.25"></path><rect height="22" rx="10" ry="10" width="62.5" x="236.25" y="710"></rect><text x="267.5" y="725">EMPTY</text></g><path d="M 391.0 721 h 20"></path></g></g></g><path d="M 411.0 721 h 10"></path><path d="M 421.0 721 h 20 m 0 -10 v 20"></path></g></svg>