<svg class="railroad-diagram" height="142" viewBox="0 0 452.5 142" width="452.5" xmlns="http://www.w3.org/2000/svg" xmlns:xlink="http://www.w3.org/1999/xlink">
<g transform="translate(.5 .5)">
<style>/* <![CDATA[ */

    svg.railroad-diagram {
        background-color: hsl(30,20%,95%);
    }
    svg.railroad-diagram path {
        stroke-width: 2;
        stroke: black;
        fill: none;
    }
    svg.railroad-diagram text {
        font-size: 12px;
        text-anchor: middle;
        font-family: DejaVu Sans;
    }
    svg.railroad-diagram text.label {
        text-anchor:start;
    }
    svg.railroad-diagram text.comment {
        font-family: DejaVu Sans;
        font-size: 14px;
    }
    svg.railroad-diagram rect{
        stroke-width: 2;
        stroke: black;
        fill: rgb(210, 210, 255);
    }
    svg.railroad-diagram rect.group-box {
        stroke: gray;
        stroke-dasharray: 10 5;
        fill: none;
    }
    .terminal {
        font-family: DejaVu Sans;
    }
    svg.railroad-diagram g.altterminal rect {
        fill: rgb(251, 252, 207)
    }

/* ]]> */
</style><g>
<path d="M 20 91 v 20 m 0 -10 h 20"></path></g><path d="M 40 101 h 10"></path><g>
<path d="M 50 101 h 0.0"></path><path d="M 402.5 101 h 0.0"></path><g>
<path d="M 50.0 101 h 0.0"></path><path d="M 402.5 101 h 0.0"></path><g class="terminal ">
<path d="M 50.0 101 h 0.0"></path><path d="M 104.0 101 h 0.0"></path><rect height="22" rx="10" ry="10" width="54.0" x="50.0" y="90"></rect><text x="77.0" y="105">&#60;ms></text></g><path d="M 104.0 101 h 10"></path><path d="M 114.0 101 h 10"></path><g>
<path d="M 124.0 101 h 0.0"></path><path d="M 402.5 101 h 0.0"></path><path d="M 124.0 101 a 10 10 0 0 0 10 -10 v -10 a 10 10 0 0 1 10 -10"></path><g>
<path d="M 144.0 71 h 0.0"></path><path d="M 382.5 71 h 0.0"></path><g class="terminal ">
<path d="M 144.0 71 h 0.0"></path><path d="M 215.0 71 h 0.0"></path><rect height="22" rx="10" ry="10" width="71.0" x="144.0" y="60"></rect><text x="179.5" y="75">@style</text></g><path d="M 215.0 71 h 10"></path><path d="M 225.0 71 h 10"></path><g class="non-terminal ">
<path d="M 235.0 71 h 0.0"></path><path d="M 382.5 71 h 0.0"></path><rect height="22" width="147.5" x="235.0" y="60"></rect><text x="308.75" y="75">Milestones.enum</text></g></g><path d="M 124.0 101 a 10 10 0 0 0 10 -10 v -40 a 10 10 0 0 1 10 -10"></path><g>
<path d="M 144.0 41 h 0.0"></path><path d="M 255.0 41 h 0.0"></path><g class="terminal ">
<path d="M 144.0 41 h 0.0"></path><path d="M 181.0 41 h 0.0"></path><rect height="22" rx="10" ry="10" width="37.0" x="144.0" y="30"></rect><text x="162.5" y="45">@&#42;</text></g><path d="M 181.0 41 h 10"></path><path d="M 191.0 41 h 10"></path><g class="terminal ">
<path d="M 201.0 41 h 0.0"></path><path d="M 255.0 41 h 0.0"></path><rect height="22" rx="10" ry="10" width="54.0" x="201.0" y="30"></rect><text x="228.0" y="45">TEXT</text></g></g><path d="M 124.0 101 h 20"></path><g class="terminal ">
<path d="M 144.0 101 h 88.0"></path><path d="M 294.5 101 h 88.0"></path><rect height="22" rx="10" ry="10" width="62.5" x="232.0" y="90"></rect><text x="263.25" y="105">EMPTY</text></g><path d="M 382.5 101 h 20"></path></g></g></g><path d="M 402.5 101 h 10"></path><path d="M 412.5 101 h 20 m 0 -10 v 20"></path></g></svg>