<svg class="railroad-diagram" height="594" viewBox="0 0 1084.0 594" width="1084.0" xmlns="http://www.w3.org/2000/svg" xmlns:xlink="http://www.w3.org/1999/xlink">
<g transform="translate(.5 .5)">
<style>/* <![CDATA[ */

    svg.railroad-diagram {
        background-color: hsl(30,20%,95%);
    }
    svg.railroad-diagram path {
        stroke-width: 2;
        stroke: black;
        fill: none;
    }
    svg.railroad-diagram text {
        font-size: 12px;
        text-anchor: middle;
        font-family: DejaVu Sans;
    }
    svg.railroad-diagram text.label {
        text-anchor:start;
    }
    svg.railroad-diagram text.comment {
        font-family: DejaVu Sans;
        font-size: 14px;
    }
    svg.railroad-diagram rect{
        stroke-width: 2;
        stroke: black;
        fill: rgb(210, 210, 255);
    }
    svg.railroad-diagram rect.group-box {
        stroke: gray;
        stroke-dasharray: 10 5;
        fill: none;
    }
    .terminal {
        font-family: DejaVu Sans;
    }
    svg.railroad-diagram g.altterminal rect {
        fill: rgb(251, 252, 207)
    }

/* ]]> */
</style><g>
<path d="M 20 365 v 20 m 0 -10 h 20"></path></g><path d="M 40 375 h 10"></path><g>
<path d="M 50 375 h 0.0"></path><path d="M 1034.0 375 h 0.0"></path><g>
<path d="M 50.0 375 h 0.0"></path><path d="M 1034.0 375 h 0.0"></path><g class="terminal ">
<path d="M 50.0 375 h 0.0"></path><path d="M 121.0 375 h 0.0"></path><rect height="22" rx="10" ry="10" width="71.0" x="50.0" y="364"></rect><text x="85.5" y="379">&#60;char></text></g><path d="M 121.0 375 h 10"></path><path d="M 131.0 375 h 10"></path><g>
<path d="M 141.0 375 h 0.0"></path><path d="M 1034.0 375 h 0.0"></path><path d="M 141.0 375 a 10 10 0 0 0 10 -10 v -206 a 10 10 0 0 1 10 -10"></path><g>
<path d="M 161.0 149 h 0.0"></path><path d="M 971.5 149 h 0.0"></path><g class="terminal ">
<path d="M 161.0 149 h 0.0"></path><path d="M 232.0 149 h 0.0"></path><rect height="22" rx="10" ry="10" width="71.0" x="161.0" y="138"></rect><text x="196.5" y="153">@style</text></g><path d="M 232.0 149 h 10"></path><g>
<path d="M 242.0 149 h 0.0"></path><path d="M 971.5 149 h 0.0"></path><path d="M 242.0 149 a 10 10 0 0 0 10 -10 v -99 a 10 10 0 0 1 10 -10 h 485.5"></path><path d="M 242.0 149 h 10"></path><g>
<path d="M 252.0 149 h 0.0"></path><path d="M 252.0 149 a 10 10 0 0 0 10 -10 v -10 a 10 10 0 0 1 10 -10"></path><g class="terminal ">
<path d="M 272.0 119 h 0.0"></path><path d="M 326.0 119 h 0.0"></path><rect height="22" rx="10" ry="10" width="54.0" x="272.0" y="108"></rect><text x="299.0" y="123">"qs"</text></g><path d="M 252.0 149 a 10 10 0 0 0 10 -10 v -40 a 10 10 0 0 1 10 -10"></path><g class="terminal ">
<path d="M 272.0 89 h 0.0"></path><path d="M 334.5 89 h 0.0"></path><rect height="22" rx="10" ry="10" width="62.5" x="272.0" y="78"></rect><text x="303.25" y="93">"qac"</text></g><path d="M 252.0 149 a 10 10 0 0 0 10 -10 v -70 a 10 10 0 0 1 10 -10"></path><g class="terminal ">
<path d="M 272.0 59 h 0.0"></path><path d="M 326.0 59 h 0.0"></path><rect height="22" rx="10" ry="10" width="54.0" x="272.0" y="48"></rect><text x="299.0" y="63">"vp"</text></g><path d="M 252.0 149 h 20"></path><g class="terminal ">
<path d="M 272.0 149 h 0.0"></path><path d="M 334.5 149 h 0.0"></path><rect height="22" rx="10" ry="10" width="62.5" x="272.0" y="138"></rect><text x="303.25" y="153">"add"</text></g><path d="M 252.0 149 a 10 10 0 0 1 10 10 v 10 a 10 10 0 0 0 10 10"></path><g class="terminal ">
<path d="M 272.0 179 h 0.0"></path><path d="M 351.5 179 h 0.0"></path><rect height="22" rx="10" ry="10" width="79.5" x="272.0" y="168"></rect><text x="311.75" y="183">"addpn"</text></g><path d="M 252.0 149 a 10 10 0 0 1 10 10 v 40 a 10 10 0 0 0 10 10"></path><g class="terminal ">
<path d="M 272.0 209 h 0.0"></path><path d="M 326.0 209 h 0.0"></path><rect height="22" rx="10" ry="10" width="54.0" x="272.0" y="198"></rect><text x="299.0" y="213">"bk"</text></g><path d="M 252.0 149 a 10 10 0 0 1 10 10 v 70 a 10 10 0 0 0 10 10"></path><g class="terminal ">
<path d="M 272.0 239 h 0.0"></path><path d="M 326.0 239 h 0.0"></path><rect height="22" rx="10" ry="10" width="54.0" x="272.0" y="228"></rect><text x="299.0" y="243">"dc"</text></g><path d="M 252.0 149 a 10 10 0 0 1 10 10 v 100 a 10 10 0 0 0 10 10"></path><g class="terminal ">
<path d="M 272.0 269 h 0.0"></path><path d="M 334.5 269 h 0.0"></path><rect height="22" rx="10" ry="10" width="62.5" x="272.0" y="258"></rect><text x="303.25" y="273">"efm"</text></g><path d="M 252.0 149 a 10 10 0 0 1 10 10 v 130 a 10 10 0 0 0 10 10"></path><g class="terminal ">
<path d="M 272.0 299 h 0.0"></path><path d="M 326.0 299 h 0.0"></path><rect height="22" rx="10" ry="10" width="54.0" x="272.0" y="288"></rect><text x="299.0" y="303">"fm"</text></g></g><path d="M 371.5 30 a 10 10 0 0 1 10 10 v 99 a 10 10 0 0 0 10 10"></path><g>
<path d="M 391.5 149 h 0.0"></path><path d="M 391.5 149 a 10 10 0 0 0 10 -10 v -10 a 10 10 0 0 1 10 -10"></path><g class="terminal ">
<path d="M 411.5 119 h 0.0"></path><path d="M 465.5 119 h 0.0"></path><rect height="22" rx="10" ry="10" width="54.0" x="411.5" y="108"></rect><text x="438.5" y="123">"nd"</text></g><path d="M 391.5 149 a 10 10 0 0 0 10 -10 v -40 a 10 10 0 0 1 10 -10"></path><g class="terminal ">
<path d="M 411.5 89 h 0.0"></path><path d="M 457.0 89 h 0.0"></path><rect height="22" rx="10" ry="10" width="45.5" x="411.5" y="78"></rect><text x="434.25" y="93">"k"</text></g><path d="M 391.5 149 a 10 10 0 0 0 10 -10 v -70 a 10 10 0 0 1 10 -10"></path><g class="terminal ">
<path d="M 411.5 59 h 0.0"></path><path d="M 465.5 59 h 0.0"></path><rect height="22" rx="10" ry="10" width="54.0" x="411.5" y="48"></rect><text x="438.5" y="63">"fv"</text></g><path d="M 391.5 149 h 20"></path><g class="terminal ">
<path d="M 411.5 149 h 0.0"></path><path d="M 474.0 149 h 0.0"></path><rect height="22" rx="10" ry="10" width="62.5" x="411.5" y="138"></rect><text x="442.75" y="153">"ndx"</text></g><path d="M 391.5 149 a 10 10 0 0 1 10 10 v 10 a 10 10 0 0 0 10 10"></path><g class="terminal ">
<path d="M 411.5 179 h 0.0"></path><path d="M 474.0 179 h 0.0"></path><rect height="22" rx="10" ry="10" width="62.5" x="411.5" y="168"></rect><text x="442.75" y="183">"ord"</text></g><path d="M 391.5 149 a 10 10 0 0 1 10 10 v 40 a 10 10 0 0 0 10 10"></path><g class="terminal ">
<path d="M 411.5 209 h 0.0"></path><path d="M 465.5 209 h 0.0"></path><rect height="22" rx="10" ry="10" width="54.0" x="411.5" y="198"></rect><text x="438.5" y="213">"pl"</text></g><path d="M 391.5 149 a 10 10 0 0 1 10 10 v 70 a 10 10 0 0 0 10 10"></path><g class="terminal ">
<path d="M 411.5 239 h 0.0"></path><path d="M 474.0 239 h 0.0"></path><rect height="22" rx="10" ry="10" width="62.5" x="411.5" y="228"></rect><text x="442.75" y="243">"png"</text></g><path d="M 391.5 149 a 10 10 0 0 1 10 10 v 100 a 10 10 0 0 0 10 10"></path><g class="terminal ">
<path d="M 411.5 269 h 0.0"></path><path d="M 465.5 269 h 0.0"></path><rect height="22" rx="10" ry="10" width="54.0" x="411.5" y="258"></rect><text x="438.5" y="273">"pn"</text></g><path d="M 391.5 149 a 10 10 0 0 1 10 10 v 130 a 10 10 0 0 0 10 10"></path><g class="terminal ">
<path d="M 411.5 299 h 0.0"></path><path d="M 474.0 299 h 0.0"></path><rect height="22" rx="10" ry="10" width="62.5" x="411.5" y="288"></rect><text x="442.75" y="303">"pro"</text></g></g><path d="M 494.0 30 a 10 10 0 0 1 10 10 v 99 a 10 10 0 0 0 10 10"></path><g>
<path d="M 514.0 149 h 0.0"></path><path d="M 514.0 149 a 10 10 0 0 0 10 -10 v -10 a 10 10 0 0 1 10 -10"></path><g class="terminal ">
<path d="M 534.0 119 h 0.0"></path><path d="M 596.5 119 h 0.0"></path><rect height="22" rx="10" ry="10" width="62.5" x="534.0" y="108"></rect><text x="565.25" y="123">"sig"</text></g><path d="M 514.0 149 a 10 10 0 0 0 10 -10 v -40 a 10 10 0 0 1 10 -10"></path><g class="terminal ">
<path d="M 534.0 89 h 0.0"></path><path d="M 588.0 89 h 0.0"></path><rect height="22" rx="10" ry="10" width="54.0" x="534.0" y="78"></rect><text x="561.0" y="93">"rq"</text></g><path d="M 514.0 149 a 10 10 0 0 0 10 -10 v -70 a 10 10 0 0 1 10 -10"></path><g class="terminal ">
<path d="M 534.0 59 h 0.0"></path><path d="M 588.0 59 h 0.0"></path><rect height="22" rx="10" ry="10" width="54.0" x="534.0" y="48"></rect><text x="561.0" y="63">"qt"</text></g><path d="M 514.0 149 h 20"></path><g class="terminal ">
<path d="M 534.0 149 h 0.0"></path><path d="M 596.5 149 h 0.0"></path><rect height="22" rx="10" ry="10" width="62.5" x="534.0" y="138"></rect><text x="565.25" y="153">"sls"</text></g><path d="M 514.0 149 a 10 10 0 0 1 10 10 v 10 a 10 10 0 0 0 10 10"></path><g class="terminal ">
<path d="M 534.0 179 h 0.0"></path><path d="M 588.0 179 h 0.0"></path><rect height="22" rx="10" ry="10" width="54.0" x="534.0" y="168"></rect><text x="561.0" y="183">"tl"</text></g><path d="M 514.0 149 a 10 10 0 0 1 10 10 v 40 a 10 10 0 0 0 10 10"></path><g class="terminal ">
<path d="M 534.0 209 h 0.0"></path><path d="M 588.0 209 h 0.0"></path><rect height="22" rx="10" ry="10" width="54.0" x="534.0" y="198"></rect><text x="561.0" y="213">"wg"</text></g><path d="M 514.0 149 a 10 10 0 0 1 10 10 v 70 a 10 10 0 0 0 10 10"></path><g class="terminal ">
<path d="M 534.0 239 h 0.0"></path><path d="M 588.0 239 h 0.0"></path><rect height="22" rx="10" ry="10" width="54.0" x="534.0" y="228"></rect><text x="561.0" y="243">"wh"</text></g><path d="M 514.0 149 a 10 10 0 0 1 10 10 v 100 a 10 10 0 0 0 10 10"></path><g class="terminal ">
<path d="M 534.0 269 h 0.0"></path><path d="M 588.0 269 h 0.0"></path><rect height="22" rx="10" ry="10" width="54.0" x="534.0" y="258"></rect><text x="561.0" y="273">"wa"</text></g><path d="M 514.0 149 a 10 10 0 0 1 10 10 v 130 a 10 10 0 0 0 10 10"></path><g class="terminal ">
<path d="M 534.0 299 h 0.0"></path><path d="M 588.0 299 h 0.0"></path><rect height="22" rx="10" ry="10" width="54.0" x="534.0" y="288"></rect><text x="561.0" y="303">"wj"</text></g></g><path d="M 616.5 30 a 10 10 0 0 1 10 10 v 99 a 10 10 0 0 0 10 10"></path><g>
<path d="M 636.5 149 h 0.0"></path><path d="M 636.5 149 a 10 10 0 0 0 10 -10 v -10 a 10 10 0 0 1 10 -10"></path><g class="terminal ">
<path d="M 656.5 119 h 0.0"></path><path d="M 710.5 119 h 0.0"></path><rect height="22" rx="10" ry="10" width="54.0" x="656.5" y="108"></rect><text x="683.5" y="123">"no"</text></g><path d="M 636.5 149 a 10 10 0 0 0 10 -10 v -40 a 10 10 0 0 1 10 -10"></path><g class="terminal ">
<path d="M 656.5 89 h 0.0"></path><path d="M 719.0 89 h 0.0"></path><rect height="22" rx="10" ry="10" width="62.5" x="656.5" y="78"></rect><text x="687.75" y="93">"jmp"</text></g><path d="M 636.5 149 a 10 10 0 0 0 10 -10 v -70 a 10 10 0 0 1 10 -10"></path><g class="terminal ">
<path d="M 656.5 59 h 0.0"></path><path d="M 710.5 59 h 0.0"></path><rect height="22" rx="10" ry="10" width="54.0" x="656.5" y="48"></rect><text x="683.5" y="63">"wl"</text></g><path d="M 636.5 149 h 20"></path><g class="terminal ">
<path d="M 656.5 149 h 0.0"></path><path d="M 710.5 149 h 0.0"></path><rect height="22" rx="10" ry="10" width="54.0" x="656.5" y="138"></rect><text x="683.5" y="153">"it"</text></g><path d="M 636.5 149 a 10 10 0 0 1 10 10 v 10 a 10 10 0 0 0 10 10"></path><g class="terminal ">
<path d="M 656.5 179 h 0.0"></path><path d="M 727.5 179 h 0.0"></path><rect height="22" rx="10" ry="10" width="71.0" x="656.5" y="168"></rect><text x="692.0" y="183">"bdit"</text></g><path d="M 636.5 149 a 10 10 0 0 1 10 10 v 40 a 10 10 0 0 0 10 10"></path><g class="terminal ">
<path d="M 656.5 209 h 0.0"></path><path d="M 710.5 209 h 0.0"></path><rect height="22" rx="10" ry="10" width="54.0" x="656.5" y="198"></rect><text x="683.5" y="213">"bd"</text></g><path d="M 636.5 149 a 10 10 0 0 1 10 10 v 70 a 10 10 0 0 0 10 10"></path><g class="terminal ">
<path d="M 656.5 239 h 0.0"></path><path d="M 710.5 239 h 0.0"></path><rect height="22" rx="10" ry="10" width="54.0" x="656.5" y="228"></rect><text x="683.5" y="243">"em"</text></g><path d="M 636.5 149 a 10 10 0 0 1 10 10 v 100 a 10 10 0 0 0 10 10"></path><g class="terminal ">
<path d="M 656.5 269 h 0.0"></path><path d="M 710.5 269 h 0.0"></path><rect height="22" rx="10" ry="10" width="54.0" x="656.5" y="258"></rect><text x="683.5" y="273">"sc"</text></g><path d="M 636.5 149 a 10 10 0 0 1 10 10 v 130 a 10 10 0 0 0 10 10"></path><g class="terminal ">
<path d="M 656.5 299 h 0.0"></path><path d="M 719.0 299 h 0.0"></path><rect height="22" rx="10" ry="10" width="62.5" x="656.5" y="288"></rect><text x="687.75" y="303">"sup"</text></g></g><path d="M 747.5 30 a 10 10 0 0 1 10 10 v 99 a 10 10 0 0 0 10 10"></path><g>
<path d="M 767.5 149 h 0.0"></path><path d="M 767.5 149 a 10 10 0 0 0 10 -10 v -10 a 10 10 0 0 1 10 -10"></path><g class="terminal ">
<path d="M 787.5 119 h 0.0"></path><path d="M 841.5 119 h 0.0"></path><rect height="22" rx="10" ry="10" width="54.0" x="787.5" y="108"></rect><text x="814.5" y="123">"rb"</text></g><path d="M 767.5 149 a 10 10 0 0 0 10 -10 v -40 a 10 10 0 0 1 10 -10"></path><g class="terminal ">
<path d="M 787.5 89 h 0.0"></path><path d="M 833.0 89 h 0.0"></path><rect height="22" rx="10" ry="10" width="45.5" x="787.5" y="78"></rect><text x="810.25" y="93">"w"</text></g><path d="M 767.5 149 a 10 10 0 0 0 10 -10 v -70 a 10 10 0 0 1 10 -10"></path><g class="terminal ">
<path d="M 787.5 59 h 0.0"></path><path d="M 841.5 59 h 0.0"></path><rect height="22" rx="10" ry="10" width="54.0" x="787.5" y="48"></rect><text x="814.5" y="63">"xt"</text></g><path d="M 767.5 149 h 20"></path><g class="terminal ">
<path d="M 787.5 149 h 0.0"></path><path d="M 841.5 149 h 0.0"></path><rect height="22" rx="10" ry="10" width="54.0" x="787.5" y="138"></rect><text x="814.5" y="153">"ta"</text></g></g></g></g><path d="M 141.0 375 h 20"></path><g>
<path d="M 161.0 375 h 0.0"></path><path d="M 1014.0 375 h 0.0"></path><g>
<path d="M 161.0 375 h 0.0"></path><path d="M 357.0 375 h 0.0"></path><path d="M 161.0 375 h 20"></path><g>
<path d="M 181.0 375 h 156.0"></path></g><path d="M 337.0 375 h 20"></path><path d="M 161.0 375 a 10 10 0 0 1 10 10 v 0 a 10 10 0 0 0 10 10"></path><g class="non-terminal ">
<path d="M 181.0 395 h 0.0"></path><path d="M 337.0 395 h 0.0"></path><rect height="22" width="156.0" x="181.0" y="384"></rect><text x="259.0" y="399">AttributesPreAll</text></g><path d="M 337.0 395 a 10 10 0 0 0 10 -10 v 0 a 10 10 0 0 1 10 -10"></path></g><path d="M 357.0 375 h 10"></path><path d="M 367.0 375 h 10"></path><g>
<path d="M 377.0 375 h 0.0"></path><path d="M 530.5 375 h 0.0"></path><path d="M 377.0 375 h 20"></path><g>
<path d="M 397.0 375 h 113.5"></path></g><path d="M 510.5 375 h 20"></path><path d="M 377.0 375 a 10 10 0 0 1 10 10 v 0 a 10 10 0 0 0 10 10"></path><g class="non-terminal ">
<path d="M 397.0 395 h 0.0"></path><path d="M 510.5 395 h 0.0"></path><rect height="22" width="113.5" x="397.0" y="384"></rect><text x="453.75" y="399">char.closed</text></g><path d="M 510.5 395 a 10 10 0 0 0 10 -10 v 0 a 10 10 0 0 1 10 -10"></path></g><path d="M 530.5 375 h 10"></path><path d="M 540.5 375 h 10"></path><g>
<path d="M 550.5 375 h 0.0"></path><path d="M 781.0 375 h 0.0"></path><path d="M 550.5 375 a 10 10 0 0 0 10 -10 v -9 a 10 10 0 0 1 10 -10"></path><g>
<path d="M 570.5 346 h 190.5"></path></g><path d="M 761.0 346 a 10 10 0 0 1 10 10 v 9 a 10 10 0 0 0 10 10"></path><path d="M 550.5 375 h 20"></path><g>
<path d="M 570.5 375 h 0.0"></path><path d="M 761.0 375 h 0.0"></path><path d="M 570.5 375 h 10"></path><g>
<path d="M 580.5 375 h 0.0"></path><path d="M 751.0 375 h 0.0"></path><path d="M 580.5 375 h 20"></path><g class="terminal ">
<path d="M 600.5 375 h 38.25"></path><path d="M 692.75 375 h 38.25"></path><rect height="22" rx="10" ry="10" width="54.0" x="638.75" y="364"></rect><text x="665.75" y="379">TEXT</text></g><path d="M 731.0 375 h 20"></path><path d="M 580.5 375 a 10 10 0 0 1 10 10 v 10 a 10 10 0 0 0 10 10"></path><g class="non-terminal ">
<path d="M 600.5 405 h 0.0"></path><path d="M 731.0 405 h 0.0"></path><rect height="22" width="130.5" x="600.5" y="394"></rect><text x="665.75" y="409">NoteCharEmbed</text></g><path d="M 731.0 405 a 10 10 0 0 0 10 -10 v -10 a 10 10 0 0 1 10 -10"></path><path d="M 580.5 375 a 10 10 0 0 1 10 10 v 40 a 10 10 0 0 0 10 10"></path><g class="non-terminal ">
<path d="M 600.5 435 h 29.75"></path><path d="M 701.25 435 h 29.75"></path><rect height="22" width="71.0" x="630.25" y="424"></rect><text x="665.75" y="439">Figure</text></g><path d="M 731.0 435 a 10 10 0 0 0 10 -10 v -40 a 10 10 0 0 1 10 -10"></path><path d="M 580.5 375 a 10 10 0 0 1 10 10 v 70 a 10 10 0 0 0 10 10"></path><g class="non-terminal ">
<path d="M 600.5 465 h 17.0"></path><path d="M 714.0 465 h 17.0"></path><rect height="22" width="96.5" x="617.5" y="454"></rect><text x="665.75" y="469">Milestone</text></g><path d="M 731.0 465 a 10 10 0 0 0 10 -10 v -70 a 10 10 0 0 1 10 -10"></path><path d="M 580.5 375 a 10 10 0 0 1 10 10 v 100 a 10 10 0 0 0 10 10"></path><g class="non-terminal ">
<path d="M 600.5 495 h 17.0"></path><path d="M 714.0 495 h 17.0"></path><rect height="22" width="96.5" x="617.5" y="484"></rect><text x="665.75" y="499">Reference</text></g><path d="M 731.0 495 a 10 10 0 0 0 10 -10 v -100 a 10 10 0 0 1 10 -10"></path><path d="M 580.5 375 a 10 10 0 0 1 10 10 v 130 a 10 10 0 0 0 10 10"></path><g class="non-terminal ">
<path d="M 600.5 525 h 34.0"></path><path d="M 697.0 525 h 34.0"></path><rect height="22" width="62.5" x="634.5" y="514"></rect><text x="665.75" y="529">Break</text></g><path d="M 731.0 525 a 10 10 0 0 0 10 -10 v -130 a 10 10 0 0 1 10 -10"></path></g><path d="M 751.0 375 h 10"></path><path d="M 580.5 375 a 10 10 0 0 0 -10 10 v 159 a 10 10 0 0 0 10 10"></path><g>
<path d="M 580.5 554 h 170.5"></path></g><path d="M 751.0 554 a 10 10 0 0 0 10 -10 v -159 a 10 10 0 0 0 -10 -10"></path></g><path d="M 761.0 375 h 20"></path></g><path d="M 781.0 375 h 10"></path><path d="M 791.0 375 h 10"></path><g>
<path d="M 801.0 375 h 0.0"></path><path d="M 1014.0 375 h 0.0"></path><path d="M 801.0 375 h 20"></path><g>
<path d="M 821.0 375 h 173.0"></path></g><path d="M 994.0 375 h 20"></path><path d="M 801.0 375 a 10 10 0 0 1 10 10 v 0 a 10 10 0 0 0 10 10"></path><g class="non-terminal ">
<path d="M 821.0 395 h 0.0"></path><path d="M 994.0 395 h 0.0"></path><rect height="22" width="173.0" x="821.0" y="384"></rect><text x="907.5" y="399">AttributesNoAttrib</text></g><path d="M 994.0 395 a 10 10 0 0 0 10 -10 v 0 a 10 10 0 0 1 10 -10"></path></g></g><path d="M 1014.0 375 h 20"></path></g></g></g><path d="M 1034.0 375 h 10"></path><path d="M 1044.0 375 h 20 m 0 -10 v 20"></path></g></svg>