<svg class="railroad-diagram" height="850" viewBox="0 0 1081.5 850" width="1081.5" xmlns="http://www.w3.org/2000/svg" xmlns:xlink="http://www.w3.org/1999/xlink">
<g transform="translate(.5 .5)">
<style>/* <![CDATA[ */

    svg.railroad-diagram {
        background-color: hsl(30,20%,95%);
    }
    svg.railroad-diagram path {
        stroke-width: 2;
        stroke: black;
        fill: none;
    }
    svg.railroad-diagram text {
        font-size: 12px;
        text-anchor: middle;
        font-family: DejaVu Sans;
    }
    svg.railroad-diagram text.label {
        text-anchor:start;
    }
    svg.railroad-diagram text.comment {
        font-family: DejaVu Sans;
        font-size: 14px;
    }
    svg.railroad-diagram rect{
        stroke-width: 2;
        stroke: black;
        fill: rgb(210, 210, 255);
    }
    svg.railroad-diagram rect.group-box {
        stroke: gray;
        stroke-dasharray: 10 5;
        fill: none;
    }
    .terminal {
        font-family: DejaVu Sans;
    }
    svg.railroad-diagram g.altterminal rect {
        fill: rgb(251, 252, 207)
    }

/* ]]> */
</style><g>
<path d="M 20 375 v 20 m 0 -10 h 20"></path></g><path d="M 40 385 h 10"></path><g>
<path d="M 50 385 h 0.0"></path><path d="M 1031.5 385 h 0.0"></path><g>
<path d="M 50.0 385 h 0.0"></path><path d="M 1031.5 385 h 0.0"></path><path d="M 50.0 385 h 20"></path><g>
<path d="M 70.0 385 h 0.0"></path><path d="M 1011.5 385 h 0.0"></path><g class="terminal ">
<path d="M 70.0 385 h 0.0"></path><path d="M 141.0 385 h 0.0"></path><rect height="22" rx="10" ry="10" width="71.0" x="70.0" y="374"></rect><text x="105.5" y="389">&#60;char></text></g><path d="M 141.0 385 h 10"></path><path d="M 151.0 385 h 10"></path><g>
<path d="M 161.0 385 h 0.0"></path><path d="M 1011.5 385 h 0.0"></path><path d="M 161.0 385 a 10 10 0 0 0 10 -10 v -206 a 10 10 0 0 1 10 -10"></path><g>
<path d="M 181.0 159 h 0.0"></path><path d="M 991.5 159 h 0.0"></path><g class="terminal ">
<path d="M 181.0 159 h 0.0"></path><path d="M 252.0 159 h 0.0"></path><rect height="22" rx="10" ry="10" width="71.0" x="181.0" y="148"></rect><text x="216.5" y="163">@style</text></g><path d="M 252.0 159 h 10"></path><g>
<path d="M 262.0 159 h 0.0"></path><path d="M 991.5 159 h 0.0"></path><path d="M 262.0 159 a 10 10 0 0 0 10 -10 v -99 a 10 10 0 0 1 10 -10 h 485.5"></path><path d="M 262.0 159 h 10"></path><g>
<path d="M 272.0 159 h 0.0"></path><path d="M 272.0 159 a 10 10 0 0 0 10 -10 v -10 a 10 10 0 0 1 10 -10"></path><g class="terminal ">
<path d="M 292.0 129 h 0.0"></path><path d="M 346.0 129 h 0.0"></path><rect height="22" rx="10" ry="10" width="54.0" x="292.0" y="118"></rect><text x="319.0" y="133">"qs"</text></g><path d="M 272.0 159 a 10 10 0 0 0 10 -10 v -40 a 10 10 0 0 1 10 -10"></path><g class="terminal ">
<path d="M 292.0 99 h 0.0"></path><path d="M 354.5 99 h 0.0"></path><rect height="22" rx="10" ry="10" width="62.5" x="292.0" y="88"></rect><text x="323.25" y="103">"qac"</text></g><path d="M 272.0 159 a 10 10 0 0 0 10 -10 v -70 a 10 10 0 0 1 10 -10"></path><g class="terminal ">
<path d="M 292.0 69 h 0.0"></path><path d="M 346.0 69 h 0.0"></path><rect height="22" rx="10" ry="10" width="54.0" x="292.0" y="58"></rect><text x="319.0" y="73">"vp"</text></g><path d="M 272.0 159 h 20"></path><g class="terminal ">
<path d="M 292.0 159 h 0.0"></path><path d="M 354.5 159 h 0.0"></path><rect height="22" rx="10" ry="10" width="62.5" x="292.0" y="148"></rect><text x="323.25" y="163">"add"</text></g><path d="M 272.0 159 a 10 10 0 0 1 10 10 v 10 a 10 10 0 0 0 10 10"></path><g class="terminal ">
<path d="M 292.0 189 h 0.0"></path><path d="M 371.5 189 h 0.0"></path><rect height="22" rx="10" ry="10" width="79.5" x="292.0" y="178"></rect><text x="331.75" y="193">"addpn"</text></g><path d="M 272.0 159 a 10 10 0 0 1 10 10 v 40 a 10 10 0 0 0 10 10"></path><g class="terminal ">
<path d="M 292.0 219 h 0.0"></path><path d="M 346.0 219 h 0.0"></path><rect height="22" rx="10" ry="10" width="54.0" x="292.0" y="208"></rect><text x="319.0" y="223">"bk"</text></g><path d="M 272.0 159 a 10 10 0 0 1 10 10 v 70 a 10 10 0 0 0 10 10"></path><g class="terminal ">
<path d="M 292.0 249 h 0.0"></path><path d="M 346.0 249 h 0.0"></path><rect height="22" rx="10" ry="10" width="54.0" x="292.0" y="238"></rect><text x="319.0" y="253">"dc"</text></g><path d="M 272.0 159 a 10 10 0 0 1 10 10 v 100 a 10 10 0 0 0 10 10"></path><g class="terminal ">
<path d="M 292.0 279 h 0.0"></path><path d="M 354.5 279 h 0.0"></path><rect height="22" rx="10" ry="10" width="62.5" x="292.0" y="268"></rect><text x="323.25" y="283">"efm"</text></g><path d="M 272.0 159 a 10 10 0 0 1 10 10 v 130 a 10 10 0 0 0 10 10"></path><g class="terminal ">
<path d="M 292.0 309 h 0.0"></path><path d="M 346.0 309 h 0.0"></path><rect height="22" rx="10" ry="10" width="54.0" x="292.0" y="298"></rect><text x="319.0" y="313">"fm"</text></g></g><path d="M 391.5 40 a 10 10 0 0 1 10 10 v 99 a 10 10 0 0 0 10 10"></path><g>
<path d="M 411.5 159 h 0.0"></path><path d="M 411.5 159 a 10 10 0 0 0 10 -10 v -10 a 10 10 0 0 1 10 -10"></path><g class="terminal ">
<path d="M 431.5 129 h 0.0"></path><path d="M 485.5 129 h 0.0"></path><rect height="22" rx="10" ry="10" width="54.0" x="431.5" y="118"></rect><text x="458.5" y="133">"nd"</text></g><path d="M 411.5 159 a 10 10 0 0 0 10 -10 v -40 a 10 10 0 0 1 10 -10"></path><g class="terminal ">
<path d="M 431.5 99 h 0.0"></path><path d="M 477.0 99 h 0.0"></path><rect height="22" rx="10" ry="10" width="45.5" x="431.5" y="88"></rect><text x="454.25" y="103">"k"</text></g><path d="M 411.5 159 a 10 10 0 0 0 10 -10 v -70 a 10 10 0 0 1 10 -10"></path><g class="terminal ">
<path d="M 431.5 69 h 0.0"></path><path d="M 485.5 69 h 0.0"></path><rect height="22" rx="10" ry="10" width="54.0" x="431.5" y="58"></rect><text x="458.5" y="73">"fv"</text></g><path d="M 411.5 159 h 20"></path><g class="terminal ">
<path d="M 431.5 159 h 0.0"></path><path d="M 494.0 159 h 0.0"></path><rect height="22" rx="10" ry="10" width="62.5" x="431.5" y="148"></rect><text x="462.75" y="163">"ndx"</text></g><path d="M 411.5 159 a 10 10 0 0 1 10 10 v 10 a 10 10 0 0 0 10 10"></path><g class="terminal ">
<path d="M 431.5 189 h 0.0"></path><path d="M 494.0 189 h 0.0"></path><rect height="22" rx="10" ry="10" width="62.5" x="431.5" y="178"></rect><text x="462.75" y="193">"ord"</text></g><path d="M 411.5 159 a 10 10 0 0 1 10 10 v 40 a 10 10 0 0 0 10 10"></path><g class="terminal ">
<path d="M 431.5 219 h 0.0"></path><path d="M 494.0 219 h 0.0"></path><rect height="22" rx="10" ry="10" width="62.5" x="431.5" y="208"></rect><text x="462.75" y="223">"png"</text></g><path d="M 411.5 159 a 10 10 0 0 1 10 10 v 70 a 10 10 0 0 0 10 10"></path><g class="terminal ">
<path d="M 431.5 249 h 0.0"></path><path d="M 485.5 249 h 0.0"></path><rect height="22" rx="10" ry="10" width="54.0" x="431.5" y="238"></rect><text x="458.5" y="253">"pn"</text></g><path d="M 411.5 159 a 10 10 0 0 1 10 10 v 100 a 10 10 0 0 0 10 10"></path><g class="terminal ">
<path d="M 431.5 279 h 0.0"></path><path d="M 494.0 279 h 0.0"></path><rect height="22" rx="10" ry="10" width="62.5" x="431.5" y="268"></rect><text x="462.75" y="283">"pro"</text></g><path d="M 411.5 159 a 10 10 0 0 1 10 10 v 130 a 10 10 0 0 0 10 10"></path><g class="terminal ">
<path d="M 431.5 309 h 0.0"></path><path d="M 485.5 309 h 0.0"></path><rect height="22" rx="10" ry="10" width="54.0" x="431.5" y="298"></rect><text x="458.5" y="313">"qt"</text></g></g><path d="M 514.0 40 a 10 10 0 0 1 10 10 v 99 a 10 10 0 0 0 10 10"></path><g>
<path d="M 534.0 159 h 0.0"></path><path d="M 534.0 159 a 10 10 0 0 0 10 -10 v -10 a 10 10 0 0 1 10 -10"></path><g class="terminal ">
<path d="M 554.0 129 h 0.0"></path><path d="M 616.5 129 h 0.0"></path><rect height="22" rx="10" ry="10" width="62.5" x="554.0" y="118"></rect><text x="585.25" y="133">"sls"</text></g><path d="M 534.0 159 a 10 10 0 0 0 10 -10 v -40 a 10 10 0 0 1 10 -10"></path><g class="terminal ">
<path d="M 554.0 99 h 0.0"></path><path d="M 616.5 99 h 0.0"></path><rect height="22" rx="10" ry="10" width="62.5" x="554.0" y="88"></rect><text x="585.25" y="103">"sig"</text></g><path d="M 534.0 159 a 10 10 0 0 0 10 -10 v -70 a 10 10 0 0 1 10 -10"></path><g class="terminal ">
<path d="M 554.0 69 h 0.0"></path><path d="M 608.0 69 h 0.0"></path><rect height="22" rx="10" ry="10" width="54.0" x="554.0" y="58"></rect><text x="581.0" y="73">"rq"</text></g><path d="M 534.0 159 h 20"></path><g class="terminal ">
<path d="M 554.0 159 h 0.0"></path><path d="M 608.0 159 h 0.0"></path><rect height="22" rx="10" ry="10" width="54.0" x="554.0" y="148"></rect><text x="581.0" y="163">"tl"</text></g><path d="M 534.0 159 a 10 10 0 0 1 10 10 v 10 a 10 10 0 0 0 10 10"></path><g class="terminal ">
<path d="M 554.0 189 h 0.0"></path><path d="M 608.0 189 h 0.0"></path><rect height="22" rx="10" ry="10" width="54.0" x="554.0" y="178"></rect><text x="581.0" y="193">"wg"</text></g><path d="M 534.0 159 a 10 10 0 0 1 10 10 v 40 a 10 10 0 0 0 10 10"></path><g class="terminal ">
<path d="M 554.0 219 h 0.0"></path><path d="M 608.0 219 h 0.0"></path><rect height="22" rx="10" ry="10" width="54.0" x="554.0" y="208"></rect><text x="581.0" y="223">"wh"</text></g><path d="M 534.0 159 a 10 10 0 0 1 10 10 v 70 a 10 10 0 0 0 10 10"></path><g class="terminal ">
<path d="M 554.0 249 h 0.0"></path><path d="M 608.0 249 h 0.0"></path><rect height="22" rx="10" ry="10" width="54.0" x="554.0" y="238"></rect><text x="581.0" y="253">"wa"</text></g><path d="M 534.0 159 a 10 10 0 0 1 10 10 v 100 a 10 10 0 0 0 10 10"></path><g class="terminal ">
<path d="M 554.0 279 h 0.0"></path><path d="M 608.0 279 h 0.0"></path><rect height="22" rx="10" ry="10" width="54.0" x="554.0" y="268"></rect><text x="581.0" y="283">"wj"</text></g><path d="M 534.0 159 a 10 10 0 0 1 10 10 v 130 a 10 10 0 0 0 10 10"></path><g class="terminal ">
<path d="M 554.0 309 h 0.0"></path><path d="M 616.5 309 h 0.0"></path><rect height="22" rx="10" ry="10" width="62.5" x="554.0" y="298"></rect><text x="585.25" y="313">"jmp"</text></g></g><path d="M 636.5 40 a 10 10 0 0 1 10 10 v 99 a 10 10 0 0 0 10 10"></path><g>
<path d="M 656.5 159 h 0.0"></path><path d="M 656.5 159 a 10 10 0 0 0 10 -10 v -10 a 10 10 0 0 1 10 -10"></path><g class="terminal ">
<path d="M 676.5 129 h 0.0"></path><path d="M 747.5 129 h 0.0"></path><rect height="22" rx="10" ry="10" width="71.0" x="676.5" y="118"></rect><text x="712.0" y="133">"bdit"</text></g><path d="M 656.5 159 a 10 10 0 0 0 10 -10 v -40 a 10 10 0 0 1 10 -10"></path><g class="terminal ">
<path d="M 676.5 99 h 0.0"></path><path d="M 730.5 99 h 0.0"></path><rect height="22" rx="10" ry="10" width="54.0" x="676.5" y="88"></rect><text x="703.5" y="103">"it"</text></g><path d="M 656.5 159 a 10 10 0 0 0 10 -10 v -70 a 10 10 0 0 1 10 -10"></path><g class="terminal ">
<path d="M 676.5 69 h 0.0"></path><path d="M 730.5 69 h 0.0"></path><rect height="22" rx="10" ry="10" width="54.0" x="676.5" y="58"></rect><text x="703.5" y="73">"no"</text></g><path d="M 656.5 159 h 20"></path><g class="terminal ">
<path d="M 676.5 159 h 0.0"></path><path d="M 730.5 159 h 0.0"></path><rect height="22" rx="10" ry="10" width="54.0" x="676.5" y="148"></rect><text x="703.5" y="163">"bd"</text></g><path d="M 656.5 159 a 10 10 0 0 1 10 10 v 10 a 10 10 0 0 0 10 10"></path><g class="terminal ">
<path d="M 676.5 189 h 0.0"></path><path d="M 730.5 189 h 0.0"></path><rect height="22" rx="10" ry="10" width="54.0" x="676.5" y="178"></rect><text x="703.5" y="193">"em"</text></g><path d="M 656.5 159 a 10 10 0 0 1 10 10 v 40 a 10 10 0 0 0 10 10"></path><g class="terminal ">
<path d="M 676.5 219 h 0.0"></path><path d="M 730.5 219 h 0.0"></path><rect height="22" rx="10" ry="10" width="54.0" x="676.5" y="208"></rect><text x="703.5" y="223">"sc"</text></g><path d="M 656.5 159 a 10 10 0 0 1 10 10 v 70 a 10 10 0 0 0 10 10"></path><g class="terminal ">
<path d="M 676.5 249 h 0.0"></path><path d="M 739.0 249 h 0.0"></path><rect height="22" rx="10" ry="10" width="62.5" x="676.5" y="238"></rect><text x="707.75" y="253">"sup"</text></g><path d="M 656.5 159 a 10 10 0 0 1 10 10 v 100 a 10 10 0 0 0 10 10"></path><g class="terminal ">
<path d="M 676.5 279 h 0.0"></path><path d="M 730.5 279 h 0.0"></path><rect height="22" rx="10" ry="10" width="54.0" x="676.5" y="268"></rect><text x="703.5" y="283">"xt"</text></g><path d="M 656.5 159 a 10 10 0 0 1 10 10 v 130 a 10 10 0 0 0 10 10"></path><g class="terminal ">
<path d="M 676.5 309 h 0.0"></path><path d="M 722.0 309 h 0.0"></path><rect height="22" rx="10" ry="10" width="45.5" x="676.5" y="298"></rect><text x="699.25" y="313">"w"</text></g></g><path d="M 767.5 40 a 10 10 0 0 1 10 10 v 99 a 10 10 0 0 0 10 10"></path><g>
<path d="M 787.5 159 h 0.0"></path><path d="M 787.5 159 h 20"></path><g class="terminal ">
<path d="M 807.5 159 h 0.0"></path><path d="M 861.5 159 h 0.0"></path><rect height="22" rx="10" ry="10" width="54.0" x="807.5" y="148"></rect><text x="834.5" y="163">"rb"</text></g></g></g></g><path d="M 161.0 385 h 20"></path><g>
<path d="M 181.0 385 h 25.5"></path><path d="M 966.0 385 h 25.5"></path><g>
<path d="M 206.5 385 h 0.0"></path><path d="M 377.0 385 h 0.0"></path><path d="M 206.5 385 h 20"></path><g>
<path d="M 226.5 385 h 130.5"></path></g><path d="M 357.0 385 h 20"></path><path d="M 206.5 385 a 10 10 0 0 1 10 10 v 0 a 10 10 0 0 0 10 10"></path><g class="non-terminal ">
<path d="M 226.5 405 h 0.0"></path><path d="M 357.0 405 h 0.0"></path><rect height="22" width="130.5" x="226.5" y="394"></rect><text x="291.75" y="409">AttributesPre</text></g><path d="M 357.0 405 a 10 10 0 0 0 10 -10 v 0 a 10 10 0 0 1 10 -10"></path></g><path d="M 377.0 385 h 10"></path><path d="M 387.0 385 h 10"></path><g>
<path d="M 397.0 385 h 0.0"></path><path d="M 550.5 385 h 0.0"></path><path d="M 397.0 385 h 20"></path><g>
<path d="M 417.0 385 h 113.5"></path></g><path d="M 530.5 385 h 20"></path><path d="M 397.0 385 a 10 10 0 0 1 10 10 v 0 a 10 10 0 0 0 10 10"></path><g class="non-terminal ">
<path d="M 417.0 405 h 0.0"></path><path d="M 530.5 405 h 0.0"></path><rect height="22" width="113.5" x="417.0" y="394"></rect><text x="473.75" y="409">char.closed</text></g><path d="M 530.5 405 a 10 10 0 0 0 10 -10 v 0 a 10 10 0 0 1 10 -10"></path></g><path d="M 550.5 385 h 10"></path><path d="M 560.5 385 h 10"></path><g>
<path d="M 570.5 385 h 0.0"></path><path d="M 801.0 385 h 0.0"></path><path d="M 570.5 385 a 10 10 0 0 0 10 -10 v -9 a 10 10 0 0 1 10 -10"></path><g>
<path d="M 590.5 356 h 190.5"></path></g><path d="M 781.0 356 a 10 10 0 0 1 10 10 v 9 a 10 10 0 0 0 10 10"></path><path d="M 570.5 385 h 20"></path><g>
<path d="M 590.5 385 h 0.0"></path><path d="M 781.0 385 h 0.0"></path><path d="M 590.5 385 h 10"></path><g>
<path d="M 600.5 385 h 0.0"></path><path d="M 771.0 385 h 0.0"></path><path d="M 600.5 385 h 20"></path><g class="terminal ">
<path d="M 620.5 385 h 38.25"></path><path d="M 712.75 385 h 38.25"></path><rect height="22" rx="10" ry="10" width="54.0" x="658.75" y="374"></rect><text x="685.75" y="389">TEXT</text></g><path d="M 751.0 385 h 20"></path><path d="M 600.5 385 a 10 10 0 0 1 10 10 v 10 a 10 10 0 0 0 10 10"></path><g class="non-terminal ">
<path d="M 620.5 415 h 0.0"></path><path d="M 751.0 415 h 0.0"></path><rect height="22" width="130.5" x="620.5" y="404"></rect><text x="685.75" y="419">NoteCharEmbed</text></g><path d="M 751.0 415 a 10 10 0 0 0 10 -10 v -10 a 10 10 0 0 1 10 -10"></path><path d="M 600.5 385 a 10 10 0 0 1 10 10 v 40 a 10 10 0 0 0 10 10"></path><g class="non-terminal ">
<path d="M 620.5 445 h 29.75"></path><path d="M 721.25 445 h 29.75"></path><rect height="22" width="71.0" x="650.25" y="434"></rect><text x="685.75" y="449">Figure</text></g><path d="M 751.0 445 a 10 10 0 0 0 10 -10 v -40 a 10 10 0 0 1 10 -10"></path><path d="M 600.5 385 a 10 10 0 0 1 10 10 v 70 a 10 10 0 0 0 10 10"></path><g class="non-terminal ">
<path d="M 620.5 475 h 17.0"></path><path d="M 734.0 475 h 17.0"></path><rect height="22" width="96.5" x="637.5" y="464"></rect><text x="685.75" y="479">Milestone</text></g><path d="M 751.0 475 a 10 10 0 0 0 10 -10 v -70 a 10 10 0 0 1 10 -10"></path><path d="M 600.5 385 a 10 10 0 0 1 10 10 v 100 a 10 10 0 0 0 10 10"></path><g class="non-terminal ">
<path d="M 620.5 505 h 17.0"></path><path d="M 734.0 505 h 17.0"></path><rect height="22" width="96.5" x="637.5" y="494"></rect><text x="685.75" y="509">Reference</text></g><path d="M 751.0 505 a 10 10 0 0 0 10 -10 v -100 a 10 10 0 0 1 10 -10"></path><path d="M 600.5 385 a 10 10 0 0 1 10 10 v 130 a 10 10 0 0 0 10 10"></path><g class="non-terminal ">
<path d="M 620.5 535 h 34.0"></path><path d="M 717.0 535 h 34.0"></path><rect height="22" width="62.5" x="654.5" y="524"></rect><text x="685.75" y="539">Break</text></g><path d="M 751.0 535 a 10 10 0 0 0 10 -10 v -130 a 10 10 0 0 1 10 -10"></path></g><path d="M 771.0 385 h 10"></path><path d="M 600.5 385 a 10 10 0 0 0 -10 10 v 159 a 10 10 0 0 0 10 10"></path><g>
<path d="M 600.5 564 h 170.5"></path></g><path d="M 771.0 564 a 10 10 0 0 0 10 -10 v -159 a 10 10 0 0 0 -10 -10"></path></g><path d="M 781.0 385 h 20"></path></g><path d="M 801.0 385 h 10"></path><path d="M 811.0 385 h 10"></path><g>
<path d="M 821.0 385 h 0.0"></path><path d="M 966.0 385 h 0.0"></path><path d="M 821.0 385 h 20"></path><g>
<path d="M 841.0 385 h 105.0"></path></g><path d="M 946.0 385 h 20"></path><path d="M 821.0 385 a 10 10 0 0 1 10 10 v 0 a 10 10 0 0 0 10 10"></path><g class="non-terminal ">
<path d="M 841.0 405 h 0.0"></path><path d="M 946.0 405 h 0.0"></path><rect height="22" width="105.0" x="841.0" y="394"></rect><text x="893.5" y="409">Attributes</text></g><path d="M 946.0 405 a 10 10 0 0 0 10 -10 v 0 a 10 10 0 0 1 10 -10"></path></g></g><path d="M 991.5 385 h 20"></path><path d="M 161.0 385 a 10 10 0 0 1 10 10 v 216 a 10 10 0 0 0 10 10"></path><g>
<path d="M 181.0 621 h 25.5"></path><path d="M 966.0 621 h 25.5"></path><g>
<path d="M 206.5 621 h 0.0"></path><path d="M 377.0 621 h 0.0"></path><path d="M 206.5 621 h 20"></path><g>
<path d="M 226.5 621 h 130.5"></path></g><path d="M 357.0 621 h 20"></path><path d="M 206.5 621 a 10 10 0 0 1 10 10 v 0 a 10 10 0 0 0 10 10"></path><g class="non-terminal ">
<path d="M 226.5 641 h 0.0"></path><path d="M 357.0 641 h 0.0"></path><rect height="22" width="130.5" x="226.5" y="630"></rect><text x="291.75" y="645">AttributesPre</text></g><path d="M 357.0 641 a 10 10 0 0 0 10 -10 v 0 a 10 10 0 0 1 10 -10"></path></g><path d="M 377.0 621 h 10"></path><path d="M 387.0 621 h 10"></path><g>
<path d="M 397.0 621 h 0.0"></path><path d="M 550.5 621 h 0.0"></path><path d="M 397.0 621 h 20"></path><g>
<path d="M 417.0 621 h 113.5"></path></g><path d="M 530.5 621 h 20"></path><path d="M 397.0 621 a 10 10 0 0 1 10 10 v 0 a 10 10 0 0 0 10 10"></path><g class="non-terminal ">
<path d="M 417.0 641 h 0.0"></path><path d="M 530.5 641 h 0.0"></path><rect height="22" width="113.5" x="417.0" y="630"></rect><text x="473.75" y="645">char.closed</text></g><path d="M 530.5 641 a 10 10 0 0 0 10 -10 v 0 a 10 10 0 0 1 10 -10"></path></g><path d="M 550.5 621 h 10"></path><path d="M 560.5 621 h 10"></path><g>
<path d="M 570.5 621 h 0.0"></path><path d="M 801.0 621 h 0.0"></path><path d="M 570.5 621 a 10 10 0 0 0 10 -10 v -9 a 10 10 0 0 1 10 -10"></path><g>
<path d="M 590.5 592 h 190.5"></path></g><path d="M 781.0 592 a 10 10 0 0 1 10 10 v 9 a 10 10 0 0 0 10 10"></path><path d="M 570.5 621 h 20"></path><g>
<path d="M 590.5 621 h 0.0"></path><path d="M 781.0 621 h 0.0"></path><path d="M 590.5 621 h 10"></path><g>
<path d="M 600.5 621 h 0.0"></path><path d="M 771.0 621 h 0.0"></path><path d="M 600.5 621 h 20"></path><g class="terminal ">
<path d="M 620.5 621 h 38.25"></path><path d="M 712.75 621 h 38.25"></path><rect height="22" rx="10" ry="10" width="54.0" x="658.75" y="610"></rect><text x="685.75" y="625">TEXT</text></g><path d="M 751.0 621 h 20"></path><path d="M 600.5 621 a 10 10 0 0 1 10 10 v 10 a 10 10 0 0 0 10 10"></path><g class="non-terminal ">
<path d="M 620.5 651 h 0.0"></path><path d="M 751.0 651 h 0.0"></path><rect height="22" width="130.5" x="620.5" y="640"></rect><text x="685.75" y="655">NoteCharEmbed</text></g><path d="M 751.0 651 a 10 10 0 0 0 10 -10 v -10 a 10 10 0 0 1 10 -10"></path><path d="M 600.5 621 a 10 10 0 0 1 10 10 v 40 a 10 10 0 0 0 10 10"></path><g class="non-terminal ">
<path d="M 620.5 681 h 29.75"></path><path d="M 721.25 681 h 29.75"></path><rect height="22" width="71.0" x="650.25" y="670"></rect><text x="685.75" y="685">Figure</text></g><path d="M 751.0 681 a 10 10 0 0 0 10 -10 v -40 a 10 10 0 0 1 10 -10"></path><path d="M 600.5 621 a 10 10 0 0 1 10 10 v 70 a 10 10 0 0 0 10 10"></path><g class="non-terminal ">
<path d="M 620.5 711 h 17.0"></path><path d="M 734.0 711 h 17.0"></path><rect height="22" width="96.5" x="637.5" y="700"></rect><text x="685.75" y="715">Milestone</text></g><path d="M 751.0 711 a 10 10 0 0 0 10 -10 v -70 a 10 10 0 0 1 10 -10"></path><path d="M 600.5 621 a 10 10 0 0 1 10 10 v 100 a 10 10 0 0 0 10 10"></path><g class="non-terminal ">
<path d="M 620.5 741 h 17.0"></path><path d="M 734.0 741 h 17.0"></path><rect height="22" width="96.5" x="637.5" y="730"></rect><text x="685.75" y="745">Reference</text></g><path d="M 751.0 741 a 10 10 0 0 0 10 -10 v -100 a 10 10 0 0 1 10 -10"></path><path d="M 600.5 621 a 10 10 0 0 1 10 10 v 130 a 10 10 0 0 0 10 10"></path><g class="non-terminal ">
<path d="M 620.5 771 h 34.0"></path><path d="M 717.0 771 h 34.0"></path><rect height="22" width="62.5" x="654.5" y="760"></rect><text x="685.75" y="775">Break</text></g><path d="M 751.0 771 a 10 10 0 0 0 10 -10 v -130 a 10 10 0 0 1 10 -10"></path></g><path d="M 771.0 621 h 10"></path><path d="M 600.5 621 a 10 10 0 0 0 -10 10 v 159 a 10 10 0 0 0 10 10"></path><g>
<path d="M 600.5 800 h 170.5"></path></g><path d="M 771.0 800 a 10 10 0 0 0 10 -10 v -159 a 10 10 0 0 0 -10 -10"></path></g><path d="M 781.0 621 h 20"></path></g><path d="M 801.0 621 h 10"></path><path d="M 811.0 621 h 10"></path><g>
<path d="M 821.0 621 h 0.0"></path><path d="M 966.0 621 h 0.0"></path><path d="M 821.0 621 h 20"></path><g>
<path d="M 841.0 621 h 105.0"></path></g><path d="M 946.0 621 h 20"></path><path d="M 821.0 621 a 10 10 0 0 1 10 10 v 0 a 10 10 0 0 0 10 10"></path><g class="non-terminal ">
<path d="M 841.0 641 h 0.0"></path><path d="M 946.0 641 h 0.0"></path><rect height="22" width="105.0" x="841.0" y="630"></rect><text x="893.5" y="645">Attributes</text></g><path d="M 946.0 641 a 10 10 0 0 0 10 -10 v 0 a 10 10 0 0 1 10 -10"></path></g></g><path d="M 991.5 621 a 10 10 0 0 0 10 -10 v -216 a 10 10 0 0 1 10 -10"></path></g></g><path d="M 1011.5 385 h 20"></path></g></g><path d="M 1031.5 385 h 10"></path><path d="M 1041.5 385 h 20 m 0 -10 v 20"></path></g></svg>