<svg class="railroad-diagram" height="420" viewBox="0 0 1034.0 420" width="1034.0" xmlns="http://www.w3.org/2000/svg" xmlns:xlink="http://www.w3.org/1999/xlink">
<g transform="translate(.5 .5)">
<style>/* <![CDATA[ */

    svg.railroad-diagram {
        background-color: hsl(30,20%,95%);
    }
    svg.railroad-diagram path {
        stroke-width: 2;
        stroke: black;
        fill: none;
    }
    svg.railroad-diagram text {
        font-size: 12px;
        text-anchor: middle;
        font-family: DejaVu Sans;
    }
    svg.railroad-diagram text.label {
        text-anchor:start;
    }
    svg.railroad-diagram text.comment {
        font-family: DejaVu Sans;
        font-size: 14px;
    }
    svg.railroad-diagram rect{
        stroke-width: 2;
        stroke: black;
        fill: rgb(210, 255, 210);
    }
    svg.railroad-diagram rect.group-box {
        stroke: gray;
        stroke-dasharray: 10 5;
        fill: none;
    }
    .terminal {
        font-family: DejaVu Sans;
    }
    svg.railroad-diagram g.altterminal rect {
        fill: rgb(251, 252, 207)
    }

/* ]]> */
</style><g>
<path d="M 20 131 v 20 m 0 -10 h 20"></path></g><path d="M 40 141 h 10"></path><g>
<path d="M 50 141 h 0.0"></path><path d="M 984.0 141 h 0.0"></path><g>
<path d="M 50.0 141 h 0.0"></path><path d="M 984.0 141 h 0.0"></path><path d="M 50.0 141 h 20"></path><g>
<path d="M 70.0 141 h 0.0"></path><path d="M 964.0 141 h 0.0"></path><g>
<path d="M 70.0 141 h 0.0"></path><path d="M 206.5 141 h 0.0"></path><path d="M 70.0 141 h 20"></path><g class="terminal ">
<path d="M 90.0 141 h 12.75"></path><path d="M 173.75 141 h 12.75"></path><rect height="22" rx="10" ry="10" width="71.0" x="102.75" y="130"></rect><text x="138.25" y="145">'\n\\'</text></g><path d="M 186.5 141 h 20"></path><path d="M 70.0 141 a 10 10 0 0 1 10 10 v 10 a 10 10 0 0 0 10 10"></path><g class="terminal altterminal">
<path d="M 90.0 171 h 0.0"></path><path d="M 186.5 171 h 0.0"></path><rect height="22" rx="10" ry="10" width="96.5" x="90.0" y="160"></rect><text x="138.25" y="175">/${Ws}\\/</text></g><path d="M 186.5 171 a 10 10 0 0 0 10 -10 v -10 a 10 10 0 0 1 10 -10"></path></g><path d="M 206.5 141 h 10"></path><path d="M 216.5 141 h 10"></path><g>
<path d="M 226.5 141 h 0.0"></path><path d="M 329.0 141 h 0.0"></path><g>
<path d="M 226.5 141 h 0.0"></path><path d="M 329.0 141 h 0.0"></path><path d="M 226.5 141 a 10 10 0 0 0 10 -10 v -10 a 10 10 0 0 1 10 -10"></path><g class="terminal ">
<path d="M 246.5 111 h 4.25"></path><path d="M 304.75 111 h 4.25"></path><rect height="22" rx="10" ry="10" width="54.0" x="250.75" y="100"></rect><text x="277.75" y="115">"pb"</text></g><path d="M 309.0 111 a 10 10 0 0 1 10 10 v 10 a 10 10 0 0 0 10 10"></path><path d="M 226.5 141 a 10 10 0 0 0 10 -10 v -40 a 10 10 0 0 1 10 -10"></path><g class="terminal ">
<path d="M 246.5 81 h 4.25"></path><path d="M 304.75 81 h 4.25"></path><rect height="22" rx="10" ry="10" width="54.0" x="250.75" y="70"></rect><text x="277.75" y="85">"cp"</text></g><path d="M 309.0 81 a 10 10 0 0 1 10 10 v 40 a 10 10 0 0 0 10 10"></path><path d="M 226.5 141 a 10 10 0 0 0 10 -10 v -70 a 10 10 0 0 1 10 -10"></path><g class="terminal ">
<path d="M 246.5 51 h 0.0"></path><path d="M 309.0 51 h 0.0"></path><rect height="22" rx="10" ry="10" width="62.5" x="246.5" y="40"></rect><text x="277.75" y="55">"lit"</text></g><path d="M 309.0 51 a 10 10 0 0 1 10 10 v 70 a 10 10 0 0 0 10 10"></path><path d="M 226.5 141 h 20"></path><g class="terminal ">
<path d="M 246.5 141 h 4.25"></path><path d="M 304.75 141 h 4.25"></path><rect height="22" rx="10" ry="10" width="54.0" x="250.75" y="130"></rect><text x="277.75" y="145">"qa"</text></g><path d="M 309.0 141 h 20"></path><path d="M 226.5 141 a 10 10 0 0 1 10 10 v 10 a 10 10 0 0 0 10 10"></path><g class="terminal ">
<path d="M 246.5 171 h 4.25"></path><path d="M 304.75 171 h 4.25"></path><rect height="22" rx="10" ry="10" width="54.0" x="250.75" y="160"></rect><text x="277.75" y="175">"k1"</text></g><path d="M 309.0 171 a 10 10 0 0 0 10 -10 v -10 a 10 10 0 0 1 10 -10"></path><path d="M 226.5 141 a 10 10 0 0 1 10 10 v 40 a 10 10 0 0 0 10 10"></path><g class="terminal ">
<path d="M 246.5 201 h 4.25"></path><path d="M 304.75 201 h 4.25"></path><rect height="22" rx="10" ry="10" width="54.0" x="250.75" y="190"></rect><text x="277.75" y="205">"k2"</text></g><path d="M 309.0 201 a 10 10 0 0 0 10 -10 v -40 a 10 10 0 0 1 10 -10"></path><path d="M 226.5 141 a 10 10 0 0 1 10 10 v 70 a 10 10 0 0 0 10 10"></path><g class="terminal ">
<path d="M 246.5 231 h 0.0"></path><path d="M 309.0 231 h 0.0"></path><rect height="22" rx="10" ry="10" width="62.5" x="246.5" y="220"></rect><text x="277.75" y="235">"sts"</text></g><path d="M 309.0 231 a 10 10 0 0 0 10 -10 v -70 a 10 10 0 0 1 10 -10"></path><path d="M 226.5 141 a 10 10 0 0 1 10 10 v 100 a 10 10 0 0 0 10 10"></path><g class="terminal ">
<path d="M 246.5 261 h 0.0"></path><path d="M 309.0 261 h 0.0"></path><rect height="22" rx="10" ry="10" width="62.5" x="246.5" y="250"></rect><text x="277.75" y="265">"rem"</text></g><path d="M 309.0 261 a 10 10 0 0 0 10 -10 v -100 a 10 10 0 0 1 10 -10"></path></g></g><path d="M 329.0 141 h 10"></path><path d="M 339.0 141 h 10"></path><g>
<path d="M 349.0 141 h 0.0"></path><path d="M 460.0 141 h 0.0"></path><path d="M 349.0 141 h 20"></path><g class="terminal ">
<path d="M 369.0 141 h 12.75"></path><path d="M 427.25 141 h 12.75"></path><rect height="22" rx="10" ry="10" width="45.5" x="381.75" y="130"></rect><text x="404.5" y="145">' '</text></g><path d="M 440.0 141 h 20"></path><path d="M 349.0 141 a 10 10 0 0 1 10 10 v 10 a 10 10 0 0 0 10 10"></path><g class="terminal altterminal">
<path d="M 369.0 171 h 0.0"></path><path d="M 440.0 171 h 0.0"></path><rect height="22" rx="10" ry="10" width="71.0" x="369.0" y="160"></rect><text x="404.5" y="175">TAGEND</text></g><path d="M 440.0 171 a 10 10 0 0 0 10 -10 v -10 a 10 10 0 0 1 10 -10"></path></g><path d="M 460.0 141 h 10"></path><path d="M 470.0 141 h 10"></path><g>
<path d="M 480.0 141 h 0.0"></path><path d="M 676.0 141 h 0.0"></path><path d="M 480.0 141 h 20"></path><g>
<path d="M 500.0 141 h 156.0"></path></g><path d="M 656.0 141 h 20"></path><path d="M 480.0 141 a 10 10 0 0 1 10 10 v 0 a 10 10 0 0 0 10 10"></path><g class="non-terminal ">
<path d="M 500.0 161 h 0.0"></path><path d="M 656.0 161 h 0.0"></path><rect height="22" width="156.0" x="500.0" y="150"></rect><text x="578.0" y="165">AttributesPreAll</text></g><path d="M 656.0 161 a 10 10 0 0 0 10 -10 v 0 a 10 10 0 0 1 10 -10"></path></g><path d="M 676.0 141 h 10"></path><path d="M 686.0 141 h 10"></path><g>
<path d="M 696.0 141 h 0.0"></path><path d="M 964.0 141 h 0.0"></path><path d="M 696.0 141 a 10 10 0 0 0 10 -10 v -9 a 10 10 0 0 1 10 -10"></path><g>
<path d="M 716.0 112 h 228.0"></path></g><path d="M 944.0 112 a 10 10 0 0 1 10 10 v 9 a 10 10 0 0 0 10 10"></path><path d="M 696.0 141 h 20"></path><g>
<path d="M 716.0 141 h 0.0"></path><path d="M 944.0 141 h 0.0"></path><path d="M 716.0 141 h 10"></path><g>
<path d="M 726.0 141 h 0.0"></path><path d="M 934.0 141 h 0.0"></path><path d="M 726.0 141 h 20"></path><g>
<path d="M 746.0 141 h 7.25"></path><path d="M 906.75 141 h 7.25"></path><g class="terminal ">
<path d="M 753.25 141 h 0.0"></path><path d="M 807.25 141 h 0.0"></path><rect height="22" rx="10" ry="10" width="54.0" x="753.25" y="130"></rect><text x="780.25" y="145">TEXT</text></g><path d="M 807.25 141 h 10"></path><path d="M 817.25 141 h 10"></path><g class="terminal ">
<path d="M 827.25 141 h 0.0"></path><path d="M 906.75 141 h 0.0"></path><rect height="22" rx="10" ry="10" width="79.5" x="827.25" y="130"></rect><text x="867.0" y="145">TEXTEND</text></g></g><path d="M 914.0 141 h 20"></path><path d="M 726.0 141 a 10 10 0 0 1 10 10 v 10 a 10 10 0 0 0 10 10"></path><g class="non-terminal ">
<path d="M 746.0 171 h 48.5"></path><path d="M 865.5 171 h 48.5"></path><rect height="22" width="71.0" x="794.5" y="160"></rect><text x="830.0" y="175">Figure</text></g><path d="M 914.0 171 a 10 10 0 0 0 10 -10 v -10 a 10 10 0 0 1 10 -10"></path><path d="M 726.0 141 a 10 10 0 0 1 10 10 v 40 a 10 10 0 0 0 10 10"></path><g class="non-terminal ">
<path d="M 746.0 201 h 35.75"></path><path d="M 878.25 201 h 35.75"></path><rect height="22" width="96.5" x="781.75" y="190"></rect><text x="830.0" y="205">Milestone</text></g><path d="M 914.0 201 a 10 10 0 0 0 10 -10 v -40 a 10 10 0 0 1 10 -10"></path><path d="M 726.0 141 a 10 10 0 0 1 10 10 v 70 a 10 10 0 0 0 10 10"></path><g class="non-terminal ">
<path d="M 746.0 231 h 35.75"></path><path d="M 878.25 231 h 35.75"></path><rect height="22" width="96.5" x="781.75" y="220"></rect><text x="830.0" y="235">Reference</text></g><path d="M 914.0 231 a 10 10 0 0 0 10 -10 v -70 a 10 10 0 0 1 10 -10"></path><path d="M 726.0 141 a 10 10 0 0 1 10 10 v 100 a 10 10 0 0 0 10 10"></path><g class="non-terminal ">
<path d="M 746.0 261 h 40.0"></path><path d="M 874.0 261 h 40.0"></path><rect height="22" width="88.0" x="786.0" y="250"></rect><text x="830.0" y="265">Footnote</text></g><path d="M 914.0 261 a 10 10 0 0 0 10 -10 v -100 a 10 10 0 0 1 10 -10"></path><path d="M 726.0 141 a 10 10 0 0 1 10 10 v 130 a 10 10 0 0 0 10 10"></path><g class="non-terminal ">
<path d="M 746.0 291 h 14.5"></path><path d="M 899.5 291 h 14.5"></path><rect height="22" width="139.0" x="760.5" y="280"></rect><text x="830.0" y="295">CrossReference</text></g><path d="M 914.0 291 a 10 10 0 0 0 10 -10 v -130 a 10 10 0 0 1 10 -10"></path><path d="M 726.0 141 a 10 10 0 0 1 10 10 v 160 a 10 10 0 0 0 10 10"></path><g>
<path d="M 746.0 321 h 0.0"></path><path d="M 914.0 321 h 0.0"></path><g class="terminal ">
<path d="M 746.0 321 h 0.0"></path><path d="M 783.0 321 h 0.0"></path><rect height="22" rx="10" ry="10" width="37.0" x="746.0" y="310"></rect><text x="764.5" y="325">Hs</text></g><path d="M 783.0 321 h 10"></path><path d="M 793.0 321 h 10"></path><g class="terminal ">
<path d="M 803.0 321 h 0.0"></path><path d="M 857.0 321 h 0.0"></path><rect height="22" rx="10" ry="10" width="54.0" x="803.0" y="310"></rect><text x="830.0" y="325">'//'</text></g><path d="M 857.0 321 h 10"></path><path d="M 867.0 321 h 10"></path><g class="terminal ">
<path d="M 877.0 321 h 0.0"></path><path d="M 914.0 321 h 0.0"></path><rect height="22" rx="10" ry="10" width="37.0" x="877.0" y="310"></rect><text x="895.5" y="325">Hs</text></g></g><path d="M 914.0 321 a 10 10 0 0 0 10 -10 v -160 a 10 10 0 0 1 10 -10"></path></g><path d="M 934.0 141 h 10"></path><path d="M 726.0 141 a 10 10 0 0 0 -10 10 v 189 a 10 10 0 0 0 10 10"></path><g>
<path d="M 726.0 350 h 208.0"></path></g><path d="M 934.0 350 a 10 10 0 0 0 10 -10 v -189 a 10 10 0 0 0 -10 -10"></path></g><path d="M 944.0 141 h 20"></path></g></g><path d="M 964.0 141 h 20"></path><path d="M 50.0 141 a 10 10 0 0 1 10 10 v 218 a 10 10 0 0 0 10 10"></path><g class="non-terminal ">
<path d="M 70.0 379 h 411.5"></path><path d="M 552.5 379 h 411.5"></path><rect height="22" width="71.0" x="481.5" y="368"></rect><text x="517.0" y="383">Remark</text></g><path d="M 964.0 379 a 10 10 0 0 0 10 -10 v -218 a 10 10 0 0 1 10 -10"></path></g></g><path d="M 984.0 141 h 10"></path><path d="M 994.0 141 h 20 m 0 -10 v 20"></path></g></svg>