<svg class="railroad-diagram" height="420" viewBox="0 0 1396.5 420" width="1396.5" xmlns="http://www.w3.org/2000/svg" xmlns:xlink="http://www.w3.org/1999/xlink">
<g transform="translate(.5 .5)">
<style>/* <![CDATA[ */

    svg.railroad-diagram {
        background-color: hsl(30,20%,95%);
    }
    svg.railroad-diagram path {
        stroke-width: 2;
        stroke: black;
        fill: none;
    }
    svg.railroad-diagram text {
        font-size: 12px;
        text-anchor: middle;
        font-family: DejaVu Sans;
    }
    svg.railroad-diagram text.label {
        text-anchor:start;
    }
    svg.railroad-diagram text.comment {
        font-family: DejaVu Sans;
        font-size: 14px;
    }
    svg.railroad-diagram rect{
        stroke-width: 2;
        stroke: black;
        fill: rgb(210, 255, 210);
    }
    svg.railroad-diagram rect.group-box {
        stroke: gray;
        stroke-dasharray: 10 5;
        fill: none;
    }
    .terminal {
        font-family: DejaVu Sans;
    }
    svg.railroad-diagram g.altterminal rect {
        fill: rgb(251, 252, 207)
    }

/* ]]> */
</style><g>
<path d="M 20 131 v 20 m 0 -10 h 20"></path></g><path d="M 40 141 h 10"></path><g>
<path d="M 50 141 h 0.0"></path><path d="M 1346.5 141 h 0.0"></path><g>
<path d="M 50.0 141 h 0.0"></path><path d="M 1346.5 141 h 0.0"></path><path d="M 50.0 141 h 20"></path><g>
<path d="M 70.0 141 h 0.0"></path><path d="M 1326.5 141 h 0.0"></path><g>
<path d="M 70.0 141 h 0.0"></path><path d="M 206.5 141 h 0.0"></path><path d="M 70.0 141 h 20"></path><g class="terminal ">
<path d="M 90.0 141 h 12.75"></path><path d="M 173.75 141 h 12.75"></path><rect height="22" rx="10" ry="10" width="71.0" x="102.75" y="130"></rect><text x="138.25" y="145">'\n\\'</text></g><path d="M 186.5 141 h 20"></path><path d="M 70.0 141 a 10 10 0 0 1 10 10 v 10 a 10 10 0 0 0 10 10"></path><g class="terminal altterminal">
<path d="M 90.0 171 h 0.0"></path><path d="M 186.5 171 h 0.0"></path><rect height="22" rx="10" ry="10" width="96.5" x="90.0" y="160"></rect><text x="138.25" y="175">/${Ws}\\/</text></g><path d="M 186.5 171 a 10 10 0 0 0 10 -10 v -10 a 10 10 0 0 1 10 -10"></path></g><path d="M 206.5 141 h 10"></path><path d="M 216.5 141 h 10"></path><g>
<path d="M 226.5 141 h 0.0"></path><path d="M 329.0 141 h 0.0"></path><g>
<path d="M 226.5 141 h 0.0"></path><path d="M 329.0 141 h 0.0"></path><path d="M 226.5 141 a 10 10 0 0 0 10 -10 v -10 a 10 10 0 0 1 10 -10"></path><g class="terminal ">
<path d="M 246.5 111 h 4.25"></path><path d="M 304.75 111 h 4.25"></path><rect height="22" rx="10" ry="10" width="54.0" x="250.75" y="100"></rect><text x="277.75" y="115">"pb"</text></g><path d="M 309.0 111 a 10 10 0 0 1 10 10 v 10 a 10 10 0 0 0 10 10"></path><path d="M 226.5 141 a 10 10 0 0 0 10 -10 v -40 a 10 10 0 0 1 10 -10"></path><g class="terminal ">
<path d="M 246.5 81 h 4.25"></path><path d="M 304.75 81 h 4.25"></path><rect height="22" rx="10" ry="10" width="54.0" x="250.75" y="70"></rect><text x="277.75" y="85">"cp"</text></g><path d="M 309.0 81 a 10 10 0 0 1 10 10 v 40 a 10 10 0 0 0 10 10"></path><path d="M 226.5 141 a 10 10 0 0 0 10 -10 v -70 a 10 10 0 0 1 10 -10"></path><g class="terminal ">
<path d="M 246.5 51 h 0.0"></path><path d="M 309.0 51 h 0.0"></path><rect height="22" rx="10" ry="10" width="62.5" x="246.5" y="40"></rect><text x="277.75" y="55">"lit"</text></g><path d="M 309.0 51 a 10 10 0 0 1 10 10 v 70 a 10 10 0 0 0 10 10"></path><path d="M 226.5 141 h 20"></path><g class="terminal ">
<path d="M 246.5 141 h 4.25"></path><path d="M 304.75 141 h 4.25"></path><rect height="22" rx="10" ry="10" width="54.0" x="250.75" y="130"></rect><text x="277.75" y="145">"qa"</text></g><path d="M 309.0 141 h 20"></path><path d="M 226.5 141 a 10 10 0 0 1 10 10 v 10 a 10 10 0 0 0 10 10"></path><g class="terminal ">
<path d="M 246.5 171 h 4.25"></path><path d="M 304.75 171 h 4.25"></path><rect height="22" rx="10" ry="10" width="54.0" x="250.75" y="160"></rect><text x="277.75" y="175">"k1"</text></g><path d="M 309.0 171 a 10 10 0 0 0 10 -10 v -10 a 10 10 0 0 1 10 -10"></path><path d="M 226.5 141 a 10 10 0 0 1 10 10 v 40 a 10 10 0 0 0 10 10"></path><g class="terminal ">
<path d="M 246.5 201 h 4.25"></path><path d="M 304.75 201 h 4.25"></path><rect height="22" rx="10" ry="10" width="54.0" x="250.75" y="190"></rect><text x="277.75" y="205">"k2"</text></g><path d="M 309.0 201 a 10 10 0 0 0 10 -10 v -40 a 10 10 0 0 1 10 -10"></path><path d="M 226.5 141 a 10 10 0 0 1 10 10 v 70 a 10 10 0 0 0 10 10"></path><g class="terminal ">
<path d="M 246.5 231 h 0.0"></path><path d="M 309.0 231 h 0.0"></path><rect height="22" rx="10" ry="10" width="62.5" x="246.5" y="220"></rect><text x="277.75" y="235">"sts"</text></g><path d="M 309.0 231 a 10 10 0 0 0 10 -10 v -70 a 10 10 0 0 1 10 -10"></path><path d="M 226.5 141 a 10 10 0 0 1 10 10 v 100 a 10 10 0 0 0 10 10"></path><g class="terminal ">
<path d="M 246.5 261 h 0.0"></path><path d="M 309.0 261 h 0.0"></path><rect height="22" rx="10" ry="10" width="62.5" x="246.5" y="250"></rect><text x="277.75" y="265">"rem"</text></g><path d="M 309.0 261 a 10 10 0 0 0 10 -10 v -100 a 10 10 0 0 1 10 -10"></path></g></g><path d="M 329.0 141 h 10"></path><path d="M 339.0 141 h 10"></path><g>
<path d="M 349.0 141 h 0.0"></path><path d="M 460.0 141 h 0.0"></path><path d="M 349.0 141 h 20"></path><g class="terminal ">
<path d="M 369.0 141 h 12.75"></path><path d="M 427.25 141 h 12.75"></path><rect height="22" rx="10" ry="10" width="45.5" x="381.75" y="130"></rect><text x="404.5" y="145">' '</text></g><path d="M 440.0 141 h 20"></path><path d="M 349.0 141 a 10 10 0 0 1 10 10 v 10 a 10 10 0 0 0 10 10"></path><g class="terminal altterminal">
<path d="M 369.0 171 h 0.0"></path><path d="M 440.0 171 h 0.0"></path><rect height="22" rx="10" ry="10" width="71.0" x="369.0" y="160"></rect><text x="404.5" y="175">TAGEND</text></g><path d="M 440.0 171 a 10 10 0 0 0 10 -10 v -10 a 10 10 0 0 1 10 -10"></path></g><path d="M 460.0 141 h 10"></path><path d="M 470.0 141 h 10"></path><g>
<path d="M 480.0 141 h 0.0"></path><path d="M 1038.5 141 h 0.0"></path><path d="M 480.0 141 h 20"></path><g>
<path d="M 500.0 141 h 518.5"></path></g><path d="M 1018.5 141 h 20"></path><path d="M 480.0 141 a 10 10 0 0 1 10 10 v 9 a 10 10 0 0 0 10 10"></path><g>
<path d="M 500.0 170 h 0.0"></path><path d="M 1018.5 239 h 0.0"></path><g>
<path d="M 500.0 170 h 0.0"></path><path d="M 594.0 170 h 0.0"></path><path d="M 500.0 170 h 20"></path><g class="terminal ">
<path d="M 520.0 170 h 4.25"></path><path d="M 569.75 170 h 4.25"></path><rect height="22" rx="10" ry="10" width="45.5" x="524.25" y="159"></rect><text x="547.0" y="174">'|'</text></g><path d="M 574.0 170 h 20"></path><path d="M 500.0 170 a 10 10 0 0 1 10 10 v 10 a 10 10 0 0 0 10 10"></path><g class="terminal altterminal">
<path d="M 520.0 200 h 0.0"></path><path d="M 574.0 200 h 0.0"></path><rect height="22" rx="10" ry="10" width="54.0" x="520.0" y="189"></rect><text x="547.0" y="204">PIPE</text></g><path d="M 574.0 200 a 10 10 0 0 0 10 -10 v -10 a 10 10 0 0 1 10 -10"></path></g><path d="M 594.0 170 h 10"></path><path d="M 604.0 170 h 10"></path><g>
<path d="M 614.0 170 h 0.0"></path><path d="M 614.0 170 h 10"></path><g>
<path d="M 624.0 170 h 10.0"></path><path d="M 884.5 170 h 10.0"></path><path d="M 634.0 170 h 20"></path><g>
<path d="M 654.0 170 h 210.5"></path></g><path d="M 864.5 170 h 20"></path><path d="M 634.0 170 a 10 10 0 0 1 10 10 v 0 a 10 10 0 0 0 10 10"></path><g>
<path d="M 654.0 190 h 0.0"></path><path d="M 864.5 190 h 0.0"></path><g class="terminal ">
<path d="M 654.0 190 h 0.0"></path><path d="M 733.5 190 h 0.0"></path><rect height="22" rx="10" ry="10" width="79.5" x="654.0" y="179"></rect><text x="693.75" y="194">'vid="'</text></g><path d="M 733.5 190 h 10"></path><path d="M 743.5 190 h 10"></path><g class="terminal ">
<path d="M 753.5 190 h 0.0"></path><path d="M 816.0 190 h 0.0"></path><rect height="22" rx="10" ry="10" width="62.5" x="753.5" y="179"></rect><text x="784.75" y="194">VERSE</text></g><path d="M 816.0 190 h 10"></path><path d="M 826.0 190 h 10"></path><g class="terminal ">
<path d="M 836.0 190 h 0.0"></path><path d="M 864.5 190 h 0.0"></path><rect height="22" rx="10" ry="10" width="28.5" x="836.0" y="179"></rect><text x="850.25" y="194">"</text></g></g><path d="M 864.5 190 a 10 10 0 0 0 10 -10 v 0 a 10 10 0 0 1 10 -10"></path></g><path d="M 894.5 170 a 10 10 0 0 1 10 10 v 29 a 10 10 0 0 1 -10 10 h -270.5 a 10 10 0 0 0 -10 10 v 0 a 10 10 0 0 0 10 10"></path><g>
<path d="M 624.0 239 h 14.25"></path><path d="M 880.25 239 h 14.25"></path><path d="M 638.25 239 h 20"></path><g>
<path d="M 658.25 239 h 202.0"></path></g><path d="M 860.25 239 h 20"></path><path d="M 638.25 239 a 10 10 0 0 1 10 10 v 0 a 10 10 0 0 0 10 10"></path><g>
<path d="M 658.25 259 h 0.0"></path><path d="M 860.25 259 h 0.0"></path><g class="terminal ">
<path d="M 658.25 259 h 0.0"></path><path d="M 737.75 259 h 0.0"></path><rect height="22" rx="10" ry="10" width="79.5" x="658.25" y="248"></rect><text x="698.0" y="263">'aid="'</text></g><path d="M 737.75 259 h 10"></path><path d="M 747.75 259 h 10"></path><g class="terminal ">
<path d="M 757.75 259 h 0.0"></path><path d="M 811.75 259 h 0.0"></path><rect height="22" rx="10" ry="10" width="54.0" x="757.75" y="248"></rect><text x="784.75" y="263">TEXT</text></g><path d="M 811.75 259 h 10"></path><path d="M 821.75 259 h 10"></path><g class="terminal ">
<path d="M 831.75 259 h 0.0"></path><path d="M 860.25 259 h 0.0"></path><rect height="22" rx="10" ry="10" width="28.5" x="831.75" y="248"></rect><text x="846.0" y="263">"</text></g></g><path d="M 860.25 259 a 10 10 0 0 0 10 -10 v 0 a 10 10 0 0 1 10 -10"></path></g><path d="M 894.5 239 h 10"></path><path d="M 904.5 239 h 0.0"></path></g><path d="M 904.5 239 h 10"></path><path d="M 914.5 239 h 10"></path><g>
<path d="M 924.5 239 h 0.0"></path><path d="M 1018.5 239 h 0.0"></path><path d="M 924.5 239 h 20"></path><g class="terminal ">
<path d="M 944.5 239 h 4.25"></path><path d="M 994.25 239 h 4.25"></path><rect height="22" rx="10" ry="10" width="45.5" x="948.75" y="228"></rect><text x="971.5" y="243">'|'</text></g><path d="M 998.5 239 h 20"></path><path d="M 924.5 239 a 10 10 0 0 1 10 10 v 10 a 10 10 0 0 0 10 10"></path><g class="terminal altterminal">
<path d="M 944.5 269 h 0.0"></path><path d="M 998.5 269 h 0.0"></path><rect height="22" rx="10" ry="10" width="54.0" x="944.5" y="258"></rect><text x="971.5" y="273">PIPE</text></g><path d="M 998.5 269 a 10 10 0 0 0 10 -10 v -10 a 10 10 0 0 1 10 -10"></path></g></g><path d="M 1018.5 239 a 10 10 0 0 0 10 -10 v -78 a 10 10 0 0 1 10 -10"></path></g><path d="M 1038.5 141 h 10"></path><path d="M 1048.5 141 h 10"></path><g>
<path d="M 1058.5 141 h 0.0"></path><path d="M 1326.5 141 h 0.0"></path><path d="M 1058.5 141 a 10 10 0 0 0 10 -10 v -9 a 10 10 0 0 1 10 -10"></path><g>
<path d="M 1078.5 112 h 228.0"></path></g><path d="M 1306.5 112 a 10 10 0 0 1 10 10 v 9 a 10 10 0 0 0 10 10"></path><path d="M 1058.5 141 h 20"></path><g>
<path d="M 1078.5 141 h 0.0"></path><path d="M 1306.5 141 h 0.0"></path><path d="M 1078.5 141 h 10"></path><g>
<path d="M 1088.5 141 h 0.0"></path><path d="M 1296.5 141 h 0.0"></path><path d="M 1088.5 141 h 20"></path><g>
<path d="M 1108.5 141 h 7.25"></path><path d="M 1269.25 141 h 7.25"></path><g class="terminal ">
<path d="M 1115.75 141 h 0.0"></path><path d="M 1169.75 141 h 0.0"></path><rect height="22" rx="10" ry="10" width="54.0" x="1115.75" y="130"></rect><text x="1142.75" y="145">TEXT</text></g><path d="M 1169.75 141 h 10"></path><path d="M 1179.75 141 h 10"></path><g class="terminal ">
<path d="M 1189.75 141 h 0.0"></path><path d="M 1269.25 141 h 0.0"></path><rect height="22" rx="10" ry="10" width="79.5" x="1189.75" y="130"></rect><text x="1229.5" y="145">TEXTEND</text></g></g><path d="M 1276.5 141 h 20"></path><path d="M 1088.5 141 a 10 10 0 0 1 10 10 v 10 a 10 10 0 0 0 10 10"></path><g class="non-terminal ">
<path d="M 1108.5 171 h 48.5"></path><path d="M 1228.0 171 h 48.5"></path><rect height="22" width="71.0" x="1157.0" y="160"></rect><text x="1192.5" y="175">Figure</text></g><path d="M 1276.5 171 a 10 10 0 0 0 10 -10 v -10 a 10 10 0 0 1 10 -10"></path><path d="M 1088.5 141 a 10 10 0 0 1 10 10 v 40 a 10 10 0 0 0 10 10"></path><g class="non-terminal ">
<path d="M 1108.5 201 h 35.75"></path><path d="M 1240.75 201 h 35.75"></path><rect height="22" width="96.5" x="1144.25" y="190"></rect><text x="1192.5" y="205">Milestone</text></g><path d="M 1276.5 201 a 10 10 0 0 0 10 -10 v -40 a 10 10 0 0 1 10 -10"></path><path d="M 1088.5 141 a 10 10 0 0 1 10 10 v 70 a 10 10 0 0 0 10 10"></path><g class="non-terminal ">
<path d="M 1108.5 231 h 35.75"></path><path d="M 1240.75 231 h 35.75"></path><rect height="22" width="96.5" x="1144.25" y="220"></rect><text x="1192.5" y="235">Reference</text></g><path d="M 1276.5 231 a 10 10 0 0 0 10 -10 v -70 a 10 10 0 0 1 10 -10"></path><path d="M 1088.5 141 a 10 10 0 0 1 10 10 v 100 a 10 10 0 0 0 10 10"></path><g class="non-terminal ">
<path d="M 1108.5 261 h 40.0"></path><path d="M 1236.5 261 h 40.0"></path><rect height="22" width="88.0" x="1148.5" y="250"></rect><text x="1192.5" y="265">Footnote</text></g><path d="M 1276.5 261 a 10 10 0 0 0 10 -10 v -100 a 10 10 0 0 1 10 -10"></path><path d="M 1088.5 141 a 10 10 0 0 1 10 10 v 130 a 10 10 0 0 0 10 10"></path><g class="non-terminal ">
<path d="M 1108.5 291 h 14.5"></path><path d="M 1262.0 291 h 14.5"></path><rect height="22" width="139.0" x="1123.0" y="280"></rect><text x="1192.5" y="295">CrossReference</text></g><path d="M 1276.5 291 a 10 10 0 0 0 10 -10 v -130 a 10 10 0 0 1 10 -10"></path><path d="M 1088.5 141 a 10 10 0 0 1 10 10 v 160 a 10 10 0 0 0 10 10"></path><g>
<path d="M 1108.5 321 h 0.0"></path><path d="M 1276.5 321 h 0.0"></path><g class="terminal ">
<path d="M 1108.5 321 h 0.0"></path><path d="M 1145.5 321 h 0.0"></path><rect height="22" rx="10" ry="10" width="37.0" x="1108.5" y="310"></rect><text x="1127.0" y="325">Hs</text></g><path d="M 1145.5 321 h 10"></path><path d="M 1155.5 321 h 10"></path><g class="terminal ">
<path d="M 1165.5 321 h 0.0"></path><path d="M 1219.5 321 h 0.0"></path><rect height="22" rx="10" ry="10" width="54.0" x="1165.5" y="310"></rect><text x="1192.5" y="325">'//'</text></g><path d="M 1219.5 321 h 10"></path><path d="M 1229.5 321 h 10"></path><g class="terminal ">
<path d="M 1239.5 321 h 0.0"></path><path d="M 1276.5 321 h 0.0"></path><rect height="22" rx="10" ry="10" width="37.0" x="1239.5" y="310"></rect><text x="1258.0" y="325">Hs</text></g></g><path d="M 1276.5 321 a 10 10 0 0 0 10 -10 v -160 a 10 10 0 0 1 10 -10"></path></g><path d="M 1296.5 141 h 10"></path><path d="M 1088.5 141 a 10 10 0 0 0 -10 10 v 189 a 10 10 0 0 0 10 10"></path><g>
<path d="M 1088.5 350 h 208.0"></path></g><path d="M 1296.5 350 a 10 10 0 0 0 10 -10 v -189 a 10 10 0 0 0 -10 -10"></path></g><path d="M 1306.5 141 h 20"></path></g></g><path d="M 1326.5 141 h 20"></path><path d="M 50.0 141 a 10 10 0 0 1 10 10 v 218 a 10 10 0 0 0 10 10"></path><g class="non-terminal ">
<path d="M 70.0 379 h 592.75"></path><path d="M 733.75 379 h 592.75"></path><rect height="22" width="71.0" x="662.75" y="368"></rect><text x="698.25" y="383">Remark</text></g><path d="M 1326.5 379 a 10 10 0 0 0 10 -10 v -218 a 10 10 0 0 1 10 -10"></path></g></g><path d="M 1346.5 141 h 10"></path><path d="M 1356.5 141 h 20 m 0 -10 v 20"></path></g></svg>