<svg class="railroad-diagram" height="420" viewBox="0 0 1008.5 420" width="1008.5" xmlns="http://www.w3.org/2000/svg" xmlns:xlink="http://www.w3.org/1999/xlink">
<g transform="translate(.5 .5)">
<style>/* <![CDATA[ */

    svg.railroad-diagram {
        background-color: hsl(30,20%,95%);
    }
    svg.railroad-diagram path {
        stroke-width: 2;
        stroke: black;
        fill: none;
    }
    svg.railroad-diagram text {
        font-size: 12px;
        text-anchor: middle;
        font-family: DejaVu Sans;
    }
    svg.railroad-diagram text.label {
        text-anchor:start;
    }
    svg.railroad-diagram text.comment {
        font-family: DejaVu Sans;
        font-size: 14px;
    }
    svg.railroad-diagram rect{
        stroke-width: 2;
        stroke: black;
        fill: rgb(210, 255, 210);
    }
    svg.railroad-diagram rect.group-box {
        stroke: gray;
        stroke-dasharray: 10 5;
        fill: none;
    }
    .terminal {
        font-family: DejaVu Sans;
    }
    svg.railroad-diagram g.altterminal rect {
        fill: rgb(251, 252, 207)
    }

/* ]]> */
</style><g>
<path d="M 20 131 v 20 m 0 -10 h 20"></path></g><path d="M 40 141 h 10"></path><g>
<path d="M 50 141 h 0.0"></path><path d="M 958.5 141 h 0.0"></path><g>
<path d="M 50.0 141 h 0.0"></path><path d="M 958.5 141 h 0.0"></path><path d="M 50.0 141 h 20"></path><g>
<path d="M 70.0 141 h 0.0"></path><path d="M 938.5 141 h 0.0"></path><g>
<path d="M 70.0 141 h 0.0"></path><path d="M 206.5 141 h 0.0"></path><path d="M 70.0 141 h 20"></path><g class="terminal ">
<path d="M 90.0 141 h 12.75"></path><path d="M 173.75 141 h 12.75"></path><rect height="22" rx="10" ry="10" width="71.0" x="102.75" y="130"></rect><text x="138.25" y="145">'\n\\'</text></g><path d="M 186.5 141 h 20"></path><path d="M 70.0 141 a 10 10 0 0 1 10 10 v 10 a 10 10 0 0 0 10 10"></path><g class="terminal altterminal">
<path d="M 90.0 171 h 0.0"></path><path d="M 186.5 171 h 0.0"></path><rect height="22" rx="10" ry="10" width="96.5" x="90.0" y="160"></rect><text x="138.25" y="175">/${Ws}\\/</text></g><path d="M 186.5 171 a 10 10 0 0 0 10 -10 v -10 a 10 10 0 0 1 10 -10"></path></g><path d="M 206.5 141 h 10"></path><path d="M 216.5 141 h 10"></path><g>
<path d="M 226.5 141 h 0.0"></path><path d="M 329.0 141 h 0.0"></path><g>
<path d="M 226.5 141 h 0.0"></path><path d="M 329.0 141 h 0.0"></path><path d="M 226.5 141 a 10 10 0 0 0 10 -10 v -10 a 10 10 0 0 1 10 -10"></path><g class="terminal ">
<path d="M 246.5 111 h 4.25"></path><path d="M 304.75 111 h 4.25"></path><rect height="22" rx="10" ry="10" width="54.0" x="250.75" y="100"></rect><text x="277.75" y="115">"pb"</text></g><path d="M 309.0 111 a 10 10 0 0 1 10 10 v 10 a 10 10 0 0 0 10 10"></path><path d="M 226.5 141 a 10 10 0 0 0 10 -10 v -40 a 10 10 0 0 1 10 -10"></path><g class="terminal ">
<path d="M 246.5 81 h 4.25"></path><path d="M 304.75 81 h 4.25"></path><rect height="22" rx="10" ry="10" width="54.0" x="250.75" y="70"></rect><text x="277.75" y="85">"cp"</text></g><path d="M 309.0 81 a 10 10 0 0 1 10 10 v 40 a 10 10 0 0 0 10 10"></path><path d="M 226.5 141 a 10 10 0 0 0 10 -10 v -70 a 10 10 0 0 1 10 -10"></path><g class="terminal ">
<path d="M 246.5 51 h 0.0"></path><path d="M 309.0 51 h 0.0"></path><rect height="22" rx="10" ry="10" width="62.5" x="246.5" y="40"></rect><text x="277.75" y="55">"lit"</text></g><path d="M 309.0 51 a 10 10 0 0 1 10 10 v 70 a 10 10 0 0 0 10 10"></path><path d="M 226.5 141 h 20"></path><g class="terminal ">
<path d="M 246.5 141 h 4.25"></path><path d="M 304.75 141 h 4.25"></path><rect height="22" rx="10" ry="10" width="54.0" x="250.75" y="130"></rect><text x="277.75" y="145">"qa"</text></g><path d="M 309.0 141 h 20"></path><path d="M 226.5 141 a 10 10 0 0 1 10 10 v 10 a 10 10 0 0 0 10 10"></path><g class="terminal ">
<path d="M 246.5 171 h 4.25"></path><path d="M 304.75 171 h 4.25"></path><rect height="22" rx="10" ry="10" width="54.0" x="250.75" y="160"></rect><text x="277.75" y="175">"k1"</text></g><path d="M 309.0 171 a 10 10 0 0 0 10 -10 v -10 a 10 10 0 0 1 10 -10"></path><path d="M 226.5 141 a 10 10 0 0 1 10 10 v 40 a 10 10 0 0 0 10 10"></path><g class="terminal ">
<path d="M 246.5 201 h 4.25"></path><path d="M 304.75 201 h 4.25"></path><rect height="22" rx="10" ry="10" width="54.0" x="250.75" y="190"></rect><text x="277.75" y="205">"k2"</text></g><path d="M 309.0 201 a 10 10 0 0 0 10 -10 v -40 a 10 10 0 0 1 10 -10"></path><path d="M 226.5 141 a 10 10 0 0 1 10 10 v 70 a 10 10 0 0 0 10 10"></path><g class="terminal ">
<path d="M 246.5 231 h 0.0"></path><path d="M 309.0 231 h 0.0"></path><rect height="22" rx="10" ry="10" width="62.5" x="246.5" y="220"></rect><text x="277.75" y="235">"sts"</text></g><path d="M 309.0 231 a 10 10 0 0 0 10 -10 v -70 a 10 10 0 0 1 10 -10"></path><path d="M 226.5 141 a 10 10 0 0 1 10 10 v 100 a 10 10 0 0 0 10 10"></path><g class="terminal ">
<path d="M 246.5 261 h 0.0"></path><path d="M 309.0 261 h 0.0"></path><rect height="22" rx="10" ry="10" width="62.5" x="246.5" y="250"></rect><text x="277.75" y="265">"rem"</text></g><path d="M 309.0 261 a 10 10 0 0 0 10 -10 v -100 a 10 10 0 0 1 10 -10"></path></g></g><path d="M 329.0 141 h 10"></path><path d="M 339.0 141 h 10"></path><g>
<path d="M 349.0 141 h 0.0"></path><path d="M 460.0 141 h 0.0"></path><path d="M 349.0 141 h 20"></path><g class="terminal ">
<path d="M 369.0 141 h 12.75"></path><path d="M 427.25 141 h 12.75"></path><rect height="22" rx="10" ry="10" width="45.5" x="381.75" y="130"></rect><text x="404.5" y="145">' '</text></g><path d="M 440.0 141 h 20"></path><path d="M 349.0 141 a 10 10 0 0 1 10 10 v 10 a 10 10 0 0 0 10 10"></path><g class="terminal altterminal">
<path d="M 369.0 171 h 0.0"></path><path d="M 440.0 171 h 0.0"></path><rect height="22" rx="10" ry="10" width="71.0" x="369.0" y="160"></rect><text x="404.5" y="175">TAGEND</text></g><path d="M 440.0 171 a 10 10 0 0 0 10 -10 v -10 a 10 10 0 0 1 10 -10"></path></g><path d="M 460.0 141 h 10"></path><path d="M 470.0 141 h 10"></path><g>
<path d="M 480.0 141 h 0.0"></path><path d="M 650.5 141 h 0.0"></path><path d="M 480.0 141 h 20"></path><g>
<path d="M 500.0 141 h 130.5"></path></g><path d="M 630.5 141 h 20"></path><path d="M 480.0 141 a 10 10 0 0 1 10 10 v 0 a 10 10 0 0 0 10 10"></path><g class="non-terminal ">
<path d="M 500.0 161 h 0.0"></path><path d="M 630.5 161 h 0.0"></path><rect height="22" width="130.5" x="500.0" y="150"></rect><text x="565.25" y="165">AttributesPre</text></g><path d="M 630.5 161 a 10 10 0 0 0 10 -10 v 0 a 10 10 0 0 1 10 -10"></path></g><path d="M 650.5 141 h 10"></path><path d="M 660.5 141 h 10"></path><g>
<path d="M 670.5 141 h 0.0"></path><path d="M 938.5 141 h 0.0"></path><path d="M 670.5 141 a 10 10 0 0 0 10 -10 v -9 a 10 10 0 0 1 10 -10"></path><g>
<path d="M 690.5 112 h 228.0"></path></g><path d="M 918.5 112 a 10 10 0 0 1 10 10 v 9 a 10 10 0 0 0 10 10"></path><path d="M 670.5 141 h 20"></path><g>
<path d="M 690.5 141 h 0.0"></path><path d="M 918.5 141 h 0.0"></path><path d="M 690.5 141 h 10"></path><g>
<path d="M 700.5 141 h 0.0"></path><path d="M 908.5 141 h 0.0"></path><path d="M 700.5 141 h 20"></path><g>
<path d="M 720.5 141 h 7.25"></path><path d="M 881.25 141 h 7.25"></path><g class="terminal ">
<path d="M 727.75 141 h 0.0"></path><path d="M 781.75 141 h 0.0"></path><rect height="22" rx="10" ry="10" width="54.0" x="727.75" y="130"></rect><text x="754.75" y="145">TEXT</text></g><path d="M 781.75 141 h 10"></path><path d="M 791.75 141 h 10"></path><g class="terminal ">
<path d="M 801.75 141 h 0.0"></path><path d="M 881.25 141 h 0.0"></path><rect height="22" rx="10" ry="10" width="79.5" x="801.75" y="130"></rect><text x="841.5" y="145">TEXTEND</text></g></g><path d="M 888.5 141 h 20"></path><path d="M 700.5 141 a 10 10 0 0 1 10 10 v 10 a 10 10 0 0 0 10 10"></path><g class="non-terminal ">
<path d="M 720.5 171 h 48.5"></path><path d="M 840.0 171 h 48.5"></path><rect height="22" width="71.0" x="769.0" y="160"></rect><text x="804.5" y="175">Figure</text></g><path d="M 888.5 171 a 10 10 0 0 0 10 -10 v -10 a 10 10 0 0 1 10 -10"></path><path d="M 700.5 141 a 10 10 0 0 1 10 10 v 40 a 10 10 0 0 0 10 10"></path><g class="non-terminal ">
<path d="M 720.5 201 h 35.75"></path><path d="M 852.75 201 h 35.75"></path><rect height="22" width="96.5" x="756.25" y="190"></rect><text x="804.5" y="205">Milestone</text></g><path d="M 888.5 201 a 10 10 0 0 0 10 -10 v -40 a 10 10 0 0 1 10 -10"></path><path d="M 700.5 141 a 10 10 0 0 1 10 10 v 70 a 10 10 0 0 0 10 10"></path><g class="non-terminal ">
<path d="M 720.5 231 h 35.75"></path><path d="M 852.75 231 h 35.75"></path><rect height="22" width="96.5" x="756.25" y="220"></rect><text x="804.5" y="235">Reference</text></g><path d="M 888.5 231 a 10 10 0 0 0 10 -10 v -70 a 10 10 0 0 1 10 -10"></path><path d="M 700.5 141 a 10 10 0 0 1 10 10 v 100 a 10 10 0 0 0 10 10"></path><g class="non-terminal ">
<path d="M 720.5 261 h 40.0"></path><path d="M 848.5 261 h 40.0"></path><rect height="22" width="88.0" x="760.5" y="250"></rect><text x="804.5" y="265">Footnote</text></g><path d="M 888.5 261 a 10 10 0 0 0 10 -10 v -100 a 10 10 0 0 1 10 -10"></path><path d="M 700.5 141 a 10 10 0 0 1 10 10 v 130 a 10 10 0 0 0 10 10"></path><g class="non-terminal ">
<path d="M 720.5 291 h 14.5"></path><path d="M 874.0 291 h 14.5"></path><rect height="22" width="139.0" x="735.0" y="280"></rect><text x="804.5" y="295">CrossReference</text></g><path d="M 888.5 291 a 10 10 0 0 0 10 -10 v -130 a 10 10 0 0 1 10 -10"></path><path d="M 700.5 141 a 10 10 0 0 1 10 10 v 160 a 10 10 0 0 0 10 10"></path><g>
<path d="M 720.5 321 h 0.0"></path><path d="M 888.5 321 h 0.0"></path><g class="terminal ">
<path d="M 720.5 321 h 0.0"></path><path d="M 757.5 321 h 0.0"></path><rect height="22" rx="10" ry="10" width="37.0" x="720.5" y="310"></rect><text x="739.0" y="325">Hs</text></g><path d="M 757.5 321 h 10"></path><path d="M 767.5 321 h 10"></path><g class="terminal ">
<path d="M 777.5 321 h 0.0"></path><path d="M 831.5 321 h 0.0"></path><rect height="22" rx="10" ry="10" width="54.0" x="777.5" y="310"></rect><text x="804.5" y="325">'//'</text></g><path d="M 831.5 321 h 10"></path><path d="M 841.5 321 h 10"></path><g class="terminal ">
<path d="M 851.5 321 h 0.0"></path><path d="M 888.5 321 h 0.0"></path><rect height="22" rx="10" ry="10" width="37.0" x="851.5" y="310"></rect><text x="870.0" y="325">Hs</text></g></g><path d="M 888.5 321 a 10 10 0 0 0 10 -10 v -160 a 10 10 0 0 1 10 -10"></path></g><path d="M 908.5 141 h 10"></path><path d="M 700.5 141 a 10 10 0 0 0 -10 10 v 189 a 10 10 0 0 0 10 10"></path><g>
<path d="M 700.5 350 h 208.0"></path></g><path d="M 908.5 350 a 10 10 0 0 0 10 -10 v -189 a 10 10 0 0 0 -10 -10"></path></g><path d="M 918.5 141 h 20"></path></g></g><path d="M 938.5 141 h 20"></path><path d="M 50.0 141 a 10 10 0 0 1 10 10 v 218 a 10 10 0 0 0 10 10"></path><g class="non-terminal ">
<path d="M 70.0 379 h 398.75"></path><path d="M 539.75 379 h 398.75"></path><rect height="22" width="71.0" x="468.75" y="368"></rect><text x="504.25" y="383">Remark</text></g><path d="M 938.5 379 a 10 10 0 0 0 10 -10 v -218 a 10 10 0 0 1 10 -10"></path></g></g><path d="M 958.5 141 h 10"></path><path d="M 968.5 141 h 20 m 0 -10 v 20"></path></g></svg>