<svg class="railroad-diagram" height="598" viewBox="0 0 1108.5 598" width="1108.5" xmlns="http://www.w3.org/2000/svg" xmlns:xlink="http://www.w3.org/1999/xlink">
<g transform="translate(.5 .5)">
<style>/* <![CDATA[ */

    svg.railroad-diagram {
        background-color: hsl(30,20%,95%);
    }
    svg.railroad-diagram path {
        stroke-width: 2;
        stroke: black;
        fill: none;
    }
    svg.railroad-diagram text {
        font-size: 12px;
        text-anchor: middle;
        font-family: DejaVu Sans;
    }
    svg.railroad-diagram text.label {
        text-anchor:start;
    }
    svg.railroad-diagram text.comment {
        font-family: DejaVu Sans;
        font-size: 14px;
    }
    svg.railroad-diagram rect{
        stroke-width: 2;
        stroke: black;
        fill: rgb(210, 255, 210);
    }
    svg.railroad-diagram rect.group-box {
        stroke: gray;
        stroke-dasharray: 10 5;
        fill: none;
    }
    .terminal {
        font-family: DejaVu Sans;
    }
    svg.railroad-diagram g.altterminal rect {
        fill: rgb(251, 252, 207)
    }

/* ]]> */
</style><g>
<path d="M 20 139 v 20 m 0 -10 h 20"></path></g><path d="M 40 149 h 10"></path><g>
<path d="M 50 149 h 0.0"></path><path d="M 1058.5 149 h 0.0"></path><g>
<path d="M 50.0 149 h 0.0"></path><path d="M 1058.5 149 h 0.0"></path><path d="M 50.0 149 h 20"></path><g>
<path d="M 70.0 149 h 0.0"></path><path d="M 1038.5 149 h 0.0"></path><g>
<path d="M 70.0 149 h 0.0"></path><path d="M 206.5 149 h 0.0"></path><path d="M 70.0 149 h 20"></path><g class="terminal ">
<path d="M 90.0 149 h 12.75"></path><path d="M 173.75 149 h 12.75"></path><rect height="22" rx="10" ry="10" width="71.0" x="102.75" y="138"></rect><text x="138.25" y="153">'\n\\'</text></g><path d="M 186.5 149 h 20"></path><path d="M 70.0 149 a 10 10 0 0 1 10 10 v 10 a 10 10 0 0 0 10 10"></path><g class="terminal altterminal">
<path d="M 90.0 179 h 0.0"></path><path d="M 186.5 179 h 0.0"></path><rect height="22" rx="10" ry="10" width="96.5" x="90.0" y="168"></rect><text x="138.25" y="183">/${Ws}\\/</text></g><path d="M 186.5 179 a 10 10 0 0 0 10 -10 v -10 a 10 10 0 0 1 10 -10"></path></g><path d="M 206.5 149 h 10"></path><g>
<path d="M 216.5 149 h 0.0"></path><path d="M 644.0 149 h 0.0"></path><path d="M 216.5 149 a 10 10 0 0 0 10 -10 v -99 a 10 10 0 0 1 10 -10 h 255.0"></path><path d="M 369.0 508 h 255.0 a 10 10 0 0 0 10 -10 v -339 a 10 10 0 0 1 10 -10"></path><path d="M 216.5 149 h 10"></path><g>
<path d="M 226.5 149 h 10.0"></path><path d="M 339.0 149 h 10.0"></path><path d="M 236.5 149 a 10 10 0 0 0 10 -10 v -10 a 10 10 0 0 1 10 -10"></path><g class="terminal ">
<path d="M 256.5 119 h 4.25"></path><path d="M 314.75 119 h 4.25"></path><rect height="22" rx="10" ry="10" width="54.0" x="260.75" y="108"></rect><text x="287.75" y="123">"pc"</text></g><path d="M 319.0 119 a 10 10 0 0 1 10 10 v 10 a 10 10 0 0 0 10 10"></path><path d="M 236.5 149 a 10 10 0 0 0 10 -10 v -40 a 10 10 0 0 1 10 -10"></path><g class="terminal ">
<path d="M 256.5 89 h 4.25"></path><path d="M 314.75 89 h 4.25"></path><rect height="22" rx="10" ry="10" width="54.0" x="260.75" y="78"></rect><text x="287.75" y="93">"nb"</text></g><path d="M 319.0 89 a 10 10 0 0 1 10 10 v 40 a 10 10 0 0 0 10 10"></path><path d="M 236.5 149 a 10 10 0 0 0 10 -10 v -70 a 10 10 0 0 1 10 -10"></path><g class="terminal ">
<path d="M 256.5 59 h 0.0"></path><path d="M 319.0 59 h 0.0"></path><rect height="22" rx="10" ry="10" width="62.5" x="256.5" y="48"></rect><text x="287.75" y="63">"cls"</text></g><path d="M 319.0 59 a 10 10 0 0 1 10 10 v 70 a 10 10 0 0 0 10 10"></path><path d="M 236.5 149 h 20"></path><g class="terminal ">
<path d="M 256.5 149 h 0.0"></path><path d="M 319.0 149 h 0.0"></path><rect height="22" rx="10" ry="10" width="62.5" x="256.5" y="138"></rect><text x="287.75" y="153">"pi1"</text></g><path d="M 319.0 149 h 20"></path><path d="M 236.5 149 a 10 10 0 0 1 10 10 v 10 a 10 10 0 0 0 10 10"></path><g class="terminal ">
<path d="M 256.5 179 h 0.0"></path><path d="M 319.0 179 h 0.0"></path><rect height="22" rx="10" ry="10" width="62.5" x="256.5" y="168"></rect><text x="287.75" y="183">"pi2"</text></g><path d="M 319.0 179 a 10 10 0 0 0 10 -10 v -10 a 10 10 0 0 1 10 -10"></path><path d="M 236.5 149 a 10 10 0 0 1 10 10 v 40 a 10 10 0 0 0 10 10"></path><g class="terminal ">
<path d="M 256.5 209 h 0.0"></path><path d="M 319.0 209 h 0.0"></path><rect height="22" rx="10" ry="10" width="62.5" x="256.5" y="198"></rect><text x="287.75" y="213">"pi3"</text></g><path d="M 319.0 209 a 10 10 0 0 0 10 -10 v -40 a 10 10 0 0 1 10 -10"></path><path d="M 236.5 149 a 10 10 0 0 1 10 10 v 70 a 10 10 0 0 0 10 10"></path><g class="terminal ">
<path d="M 256.5 239 h 4.25"></path><path d="M 314.75 239 h 4.25"></path><rect height="22" rx="10" ry="10" width="54.0" x="260.75" y="228"></rect><text x="287.75" y="243">"pi"</text></g><path d="M 319.0 239 a 10 10 0 0 0 10 -10 v -70 a 10 10 0 0 1 10 -10"></path><path d="M 236.5 149 a 10 10 0 0 1 10 10 v 100 a 10 10 0 0 0 10 10"></path><g class="terminal ">
<path d="M 256.5 269 h 4.25"></path><path d="M 314.75 269 h 4.25"></path><rect height="22" rx="10" ry="10" width="54.0" x="260.75" y="258"></rect><text x="287.75" y="273">"po"</text></g><path d="M 319.0 269 a 10 10 0 0 0 10 -10 v -100 a 10 10 0 0 1 10 -10"></path><path d="M 236.5 149 a 10 10 0 0 1 10 10 v 130 a 10 10 0 0 0 10 10"></path><g class="terminal ">
<path d="M 256.5 299 h 4.25"></path><path d="M 314.75 299 h 4.25"></path><rect height="22" rx="10" ry="10" width="54.0" x="260.75" y="288"></rect><text x="287.75" y="303">"pr"</text></g><path d="M 319.0 299 a 10 10 0 0 0 10 -10 v -130 a 10 10 0 0 1 10 -10"></path><path d="M 236.5 149 a 10 10 0 0 1 10 10 v 160 a 10 10 0 0 0 10 10"></path><g class="terminal ">
<path d="M 256.5 329 h 0.0"></path><path d="M 319.0 329 h 0.0"></path><rect height="22" rx="10" ry="10" width="62.5" x="256.5" y="318"></rect><text x="287.75" y="333">"pmo"</text></g><path d="M 319.0 329 a 10 10 0 0 0 10 -10 v -160 a 10 10 0 0 1 10 -10"></path><path d="M 236.5 149 a 10 10 0 0 1 10 10 v 190 a 10 10 0 0 0 10 10"></path><g class="terminal ">
<path d="M 256.5 359 h 0.0"></path><path d="M 319.0 359 h 0.0"></path><rect height="22" rx="10" ry="10" width="62.5" x="256.5" y="348"></rect><text x="287.75" y="363">"pmc"</text></g><path d="M 319.0 359 a 10 10 0 0 0 10 -10 v -190 a 10 10 0 0 1 10 -10"></path><path d="M 236.5 149 a 10 10 0 0 1 10 10 v 220 a 10 10 0 0 0 10 10"></path><g class="terminal ">
<path d="M 256.5 389 h 0.0"></path><path d="M 319.0 389 h 0.0"></path><rect height="22" rx="10" ry="10" width="62.5" x="256.5" y="378"></rect><text x="287.75" y="393">"pmr"</text></g><path d="M 319.0 389 a 10 10 0 0 0 10 -10 v -220 a 10 10 0 0 1 10 -10"></path><path d="M 236.5 149 a 10 10 0 0 1 10 10 v 250 a 10 10 0 0 0 10 10"></path><g class="terminal ">
<path d="M 256.5 419 h 4.25"></path><path d="M 314.75 419 h 4.25"></path><rect height="22" rx="10" ry="10" width="54.0" x="260.75" y="408"></rect><text x="287.75" y="423">"pm"</text></g><path d="M 319.0 419 a 10 10 0 0 0 10 -10 v -250 a 10 10 0 0 1 10 -10"></path><path d="M 236.5 149 a 10 10 0 0 1 10 10 v 280 a 10 10 0 0 0 10 10"></path><g class="terminal ">
<path d="M 256.5 449 h 0.0"></path><path d="M 319.0 449 h 0.0"></path><rect height="22" rx="10" ry="10" width="62.5" x="256.5" y="438"></rect><text x="287.75" y="453">"ph1"</text></g><path d="M 319.0 449 a 10 10 0 0 0 10 -10 v -280 a 10 10 0 0 1 10 -10"></path><path d="M 236.5 149 a 10 10 0 0 1 10 10 v 310 a 10 10 0 0 0 10 10"></path><g class="terminal ">
<path d="M 256.5 479 h 0.0"></path><path d="M 319.0 479 h 0.0"></path><rect height="22" rx="10" ry="10" width="62.5" x="256.5" y="468"></rect><text x="287.75" y="483">"ph2"</text></g><path d="M 319.0 479 a 10 10 0 0 0 10 -10 v -310 a 10 10 0 0 1 10 -10"></path></g><path d="M 349.0 149 a 10 10 0 0 1 10 10 v 339 a 10 10 0 0 0 10 10"></path><path d="M 349.0 30 a 10 10 0 0 1 10 10 v 99 a 10 10 0 0 0 10 10"></path><g>
<path d="M 369.0 149 h 10.0"></path><path d="M 481.5 149 h 10.0"></path><path d="M 379.0 149 a 10 10 0 0 0 10 -10 v -10 a 10 10 0 0 1 10 -10"></path><g class="terminal ">
<path d="M 399.0 119 h 8.5"></path><path d="M 453.0 119 h 8.5"></path><rect height="22" rx="10" ry="10" width="45.5" x="407.5" y="108"></rect><text x="430.25" y="123">"p"</text></g><path d="M 461.5 119 a 10 10 0 0 1 10 10 v 10 a 10 10 0 0 0 10 10"></path><path d="M 379.0 149 a 10 10 0 0 0 10 -10 v -40 a 10 10 0 0 1 10 -10"></path><g class="terminal ">
<path d="M 399.0 89 h 4.25"></path><path d="M 457.25 89 h 4.25"></path><rect height="22" rx="10" ry="10" width="54.0" x="403.25" y="78"></rect><text x="430.25" y="93">"ph"</text></g><path d="M 461.5 89 a 10 10 0 0 1 10 10 v 40 a 10 10 0 0 0 10 10"></path><path d="M 379.0 149 a 10 10 0 0 0 10 -10 v -70 a 10 10 0 0 1 10 -10"></path><g class="terminal ">
<path d="M 399.0 59 h 0.0"></path><path d="M 461.5 59 h 0.0"></path><rect height="22" rx="10" ry="10" width="62.5" x="399.0" y="48"></rect><text x="430.25" y="63">"ph3"</text></g><path d="M 461.5 59 a 10 10 0 0 1 10 10 v 70 a 10 10 0 0 0 10 10"></path><path d="M 379.0 149 h 20"></path><g class="terminal ">
<path d="M 399.0 149 h 4.25"></path><path d="M 457.25 149 h 4.25"></path><rect height="22" rx="10" ry="10" width="54.0" x="403.25" y="138"></rect><text x="430.25" y="153">"q1"</text></g><path d="M 461.5 149 h 20"></path><path d="M 379.0 149 a 10 10 0 0 1 10 10 v 10 a 10 10 0 0 0 10 10"></path><g class="terminal ">
<path d="M 399.0 179 h 4.25"></path><path d="M 457.25 179 h 4.25"></path><rect height="22" rx="10" ry="10" width="54.0" x="403.25" y="168"></rect><text x="430.25" y="183">"q2"</text></g><path d="M 461.5 179 a 10 10 0 0 0 10 -10 v -10 a 10 10 0 0 1 10 -10"></path><path d="M 379.0 149 a 10 10 0 0 1 10 10 v 40 a 10 10 0 0 0 10 10"></path><g class="terminal ">
<path d="M 399.0 209 h 4.25"></path><path d="M 457.25 209 h 4.25"></path><rect height="22" rx="10" ry="10" width="54.0" x="403.25" y="198"></rect><text x="430.25" y="213">"q3"</text></g><path d="M 461.5 209 a 10 10 0 0 0 10 -10 v -40 a 10 10 0 0 1 10 -10"></path><path d="M 379.0 149 a 10 10 0 0 1 10 10 v 70 a 10 10 0 0 0 10 10"></path><g class="terminal ">
<path d="M 399.0 239 h 4.25"></path><path d="M 457.25 239 h 4.25"></path><rect height="22" rx="10" ry="10" width="54.0" x="403.25" y="228"></rect><text x="430.25" y="243">"q4"</text></g><path d="M 461.5 239 a 10 10 0 0 0 10 -10 v -70 a 10 10 0 0 1 10 -10"></path><path d="M 379.0 149 a 10 10 0 0 1 10 10 v 100 a 10 10 0 0 0 10 10"></path><g class="terminal ">
<path d="M 399.0 269 h 4.25"></path><path d="M 457.25 269 h 4.25"></path><rect height="22" rx="10" ry="10" width="54.0" x="403.25" y="258"></rect><text x="430.25" y="273">"qc"</text></g><path d="M 461.5 269 a 10 10 0 0 0 10 -10 v -100 a 10 10 0 0 1 10 -10"></path><path d="M 379.0 149 a 10 10 0 0 1 10 10 v 130 a 10 10 0 0 0 10 10"></path><g class="terminal ">
<path d="M 399.0 299 h 4.25"></path><path d="M 457.25 299 h 4.25"></path><rect height="22" rx="10" ry="10" width="54.0" x="403.25" y="288"></rect><text x="430.25" y="303">"qr"</text></g><path d="M 461.5 299 a 10 10 0 0 0 10 -10 v -130 a 10 10 0 0 1 10 -10"></path><path d="M 379.0 149 a 10 10 0 0 1 10 10 v 160 a 10 10 0 0 0 10 10"></path><g class="terminal ">
<path d="M 399.0 329 h 0.0"></path><path d="M 461.5 329 h 0.0"></path><rect height="22" rx="10" ry="10" width="62.5" x="399.0" y="318"></rect><text x="430.25" y="333">"qm1"</text></g><path d="M 461.5 329 a 10 10 0 0 0 10 -10 v -160 a 10 10 0 0 1 10 -10"></path><path d="M 379.0 149 a 10 10 0 0 1 10 10 v 190 a 10 10 0 0 0 10 10"></path><g class="terminal ">
<path d="M 399.0 359 h 0.0"></path><path d="M 461.5 359 h 0.0"></path><rect height="22" rx="10" ry="10" width="62.5" x="399.0" y="348"></rect><text x="430.25" y="363">"qm2"</text></g><path d="M 461.5 359 a 10 10 0 0 0 10 -10 v -190 a 10 10 0 0 1 10 -10"></path><path d="M 379.0 149 a 10 10 0 0 1 10 10 v 220 a 10 10 0 0 0 10 10"></path><g class="terminal ">
<path d="M 399.0 389 h 0.0"></path><path d="M 461.5 389 h 0.0"></path><rect height="22" rx="10" ry="10" width="62.5" x="399.0" y="378"></rect><text x="430.25" y="393">"qm3"</text></g><path d="M 461.5 389 a 10 10 0 0 0 10 -10 v -220 a 10 10 0 0 1 10 -10"></path><path d="M 379.0 149 a 10 10 0 0 1 10 10 v 250 a 10 10 0 0 0 10 10"></path><g class="terminal ">
<path d="M 399.0 419 h 4.25"></path><path d="M 457.25 419 h 4.25"></path><rect height="22" rx="10" ry="10" width="54.0" x="403.25" y="408"></rect><text x="430.25" y="423">"qm"</text></g><path d="M 461.5 419 a 10 10 0 0 0 10 -10 v -250 a 10 10 0 0 1 10 -10"></path><path d="M 379.0 149 a 10 10 0 0 1 10 10 v 280 a 10 10 0 0 0 10 10"></path><g class="terminal ">
<path d="M 399.0 449 h 4.25"></path><path d="M 457.25 449 h 4.25"></path><rect height="22" rx="10" ry="10" width="54.0" x="403.25" y="438"></rect><text x="430.25" y="453">"qd"</text></g><path d="M 461.5 449 a 10 10 0 0 0 10 -10 v -280 a 10 10 0 0 1 10 -10"></path><path d="M 379.0 149 a 10 10 0 0 1 10 10 v 310 a 10 10 0 0 0 10 10"></path><g class="terminal ">
<path d="M 399.0 479 h 8.5"></path><path d="M 453.0 479 h 8.5"></path><rect height="22" rx="10" ry="10" width="45.5" x="407.5" y="468"></rect><text x="430.25" y="483">"q"</text></g><path d="M 461.5 479 a 10 10 0 0 0 10 -10 v -310 a 10 10 0 0 1 10 -10"></path></g><path d="M 491.5 149 a 10 10 0 0 1 10 10 v 339 a 10 10 0 0 0 10 10"></path><path d="M 491.5 30 a 10 10 0 0 1 10 10 v 99 a 10 10 0 0 0 10 10"></path><g>
<path d="M 511.5 149 h 10.0"></path><path d="M 624.0 149 h 10.0"></path><path d="M 521.5 149 a 10 10 0 0 0 10 -10 v -10 a 10 10 0 0 1 10 -10"></path><g class="terminal ">
<path d="M 541.5 119 h 0.0"></path><path d="M 604.0 119 h 0.0"></path><rect height="22" rx="10" ry="10" width="62.5" x="541.5" y="108"></rect><text x="572.75" y="123">"mi1"</text></g><path d="M 604.0 119 a 10 10 0 0 1 10 10 v 10 a 10 10 0 0 0 10 10"></path><path d="M 521.5 149 a 10 10 0 0 0 10 -10 v -40 a 10 10 0 0 1 10 -10"></path><g class="terminal ">
<path d="M 541.5 89 h 8.5"></path><path d="M 595.5 89 h 8.5"></path><rect height="22" rx="10" ry="10" width="45.5" x="550.0" y="78"></rect><text x="572.75" y="93">"d"</text></g><path d="M 604.0 89 a 10 10 0 0 1 10 10 v 40 a 10 10 0 0 0 10 10"></path><path d="M 521.5 149 a 10 10 0 0 0 10 -10 v -70 a 10 10 0 0 1 10 -10"></path><g class="terminal ">
<path d="M 541.5 59 h 8.5"></path><path d="M 595.5 59 h 8.5"></path><rect height="22" rx="10" ry="10" width="45.5" x="550.0" y="48"></rect><text x="572.75" y="63">"b"</text></g><path d="M 604.0 59 a 10 10 0 0 1 10 10 v 70 a 10 10 0 0 0 10 10"></path><path d="M 521.5 149 h 20"></path><g class="terminal ">
<path d="M 541.5 149 h 0.0"></path><path d="M 604.0 149 h 0.0"></path><rect height="22" rx="10" ry="10" width="62.5" x="541.5" y="138"></rect><text x="572.75" y="153">"mi2"</text></g><path d="M 604.0 149 h 20"></path><path d="M 521.5 149 a 10 10 0 0 1 10 10 v 10 a 10 10 0 0 0 10 10"></path><g class="terminal ">
<path d="M 541.5 179 h 0.0"></path><path d="M 604.0 179 h 0.0"></path><rect height="22" rx="10" ry="10" width="62.5" x="541.5" y="168"></rect><text x="572.75" y="183">"mi3"</text></g><path d="M 604.0 179 a 10 10 0 0 0 10 -10 v -10 a 10 10 0 0 1 10 -10"></path><path d="M 521.5 149 a 10 10 0 0 1 10 10 v 40 a 10 10 0 0 0 10 10"></path><g class="terminal ">
<path d="M 541.5 209 h 0.0"></path><path d="M 604.0 209 h 0.0"></path><rect height="22" rx="10" ry="10" width="62.5" x="541.5" y="198"></rect><text x="572.75" y="213">"mi4"</text></g><path d="M 604.0 209 a 10 10 0 0 0 10 -10 v -40 a 10 10 0 0 1 10 -10"></path><path d="M 521.5 149 a 10 10 0 0 1 10 10 v 70 a 10 10 0 0 0 10 10"></path><g class="terminal ">
<path d="M 541.5 239 h 4.25"></path><path d="M 599.75 239 h 4.25"></path><rect height="22" rx="10" ry="10" width="54.0" x="545.75" y="228"></rect><text x="572.75" y="243">"mi"</text></g><path d="M 604.0 239 a 10 10 0 0 0 10 -10 v -70 a 10 10 0 0 1 10 -10"></path><path d="M 521.5 149 a 10 10 0 0 1 10 10 v 100 a 10 10 0 0 0 10 10"></path><g class="terminal ">
<path d="M 541.5 269 h 8.5"></path><path d="M 595.5 269 h 8.5"></path><rect height="22" rx="10" ry="10" width="45.5" x="550.0" y="258"></rect><text x="572.75" y="273">"m"</text></g><path d="M 604.0 269 a 10 10 0 0 0 10 -10 v -100 a 10 10 0 0 1 10 -10"></path></g><path d="M 634.0 149 h 10"></path></g><path d="M 644.0 149 h 10"></path><g>
<path d="M 654.0 149 h 0.0"></path><path d="M 765.0 149 h 0.0"></path><path d="M 654.0 149 h 20"></path><g class="terminal ">
<path d="M 674.0 149 h 12.75"></path><path d="M 732.25 149 h 12.75"></path><rect height="22" rx="10" ry="10" width="45.5" x="686.75" y="138"></rect><text x="709.5" y="153">' '</text></g><path d="M 745.0 149 h 20"></path><path d="M 654.0 149 a 10 10 0 0 1 10 10 v 10 a 10 10 0 0 0 10 10"></path><g class="terminal altterminal">
<path d="M 674.0 179 h 0.0"></path><path d="M 745.0 179 h 0.0"></path><rect height="22" rx="10" ry="10" width="71.0" x="674.0" y="168"></rect><text x="709.5" y="183">TAGEND</text></g><path d="M 745.0 179 a 10 10 0 0 0 10 -10 v -10 a 10 10 0 0 1 10 -10"></path></g><path d="M 765.0 149 h 10"></path><path d="M 775.0 149 h 10"></path><g>
<path d="M 785.0 149 h 0.0"></path><path d="M 1038.5 149 h 0.0"></path><path d="M 785.0 149 a 10 10 0 0 0 10 -10 v -9 a 10 10 0 0 1 10 -10"></path><g>
<path d="M 805.0 120 h 213.5"></path></g><path d="M 1018.5 120 a 10 10 0 0 1 10 10 v 9 a 10 10 0 0 0 10 10"></path><path d="M 785.0 149 h 20"></path><g>
<path d="M 805.0 149 h 0.0"></path><path d="M 1018.5 149 h 0.0"></path><path d="M 805.0 149 h 10"></path><g>
<path d="M 815.0 149 h 0.0"></path><path d="M 1008.5 149 h 0.0"></path><path d="M 815.0 149 h 20"></path><g>
<path d="M 835.0 149 h 0.0"></path><path d="M 988.5 149 h 0.0"></path><g class="terminal ">
<path d="M 835.0 149 h 0.0"></path><path d="M 889.0 149 h 0.0"></path><rect height="22" rx="10" ry="10" width="54.0" x="835.0" y="138"></rect><text x="862.0" y="153">TEXT</text></g><path d="M 889.0 149 h 10"></path><path d="M 899.0 149 h 10"></path><g class="terminal ">
<path d="M 909.0 149 h 0.0"></path><path d="M 988.5 149 h 0.0"></path><rect height="22" rx="10" ry="10" width="79.5" x="909.0" y="138"></rect><text x="948.75" y="153">TEXTEND</text></g></g><path d="M 988.5 149 h 20"></path><path d="M 815.0 149 a 10 10 0 0 1 10 10 v 10 a 10 10 0 0 0 10 10"></path><g class="non-terminal ">
<path d="M 835.0 179 h 28.5"></path><path d="M 960.0 179 h 28.5"></path><rect height="22" width="96.5" x="863.5" y="168"></rect><text x="911.75" y="183">CharEmbed</text></g><path d="M 988.5 179 a 10 10 0 0 0 10 -10 v -10 a 10 10 0 0 1 10 -10"></path><path d="M 815.0 149 a 10 10 0 0 1 10 10 v 40 a 10 10 0 0 0 10 10"></path><g class="non-terminal ">
<path d="M 835.0 209 h 41.25"></path><path d="M 947.25 209 h 41.25"></path><rect height="22" width="71.0" x="876.25" y="198"></rect><text x="911.75" y="213">Figure</text></g><path d="M 988.5 209 a 10 10 0 0 0 10 -10 v -40 a 10 10 0 0 1 10 -10"></path><path d="M 815.0 149 a 10 10 0 0 1 10 10 v 70 a 10 10 0 0 0 10 10"></path><g class="non-terminal ">
<path d="M 835.0 239 h 28.5"></path><path d="M 960.0 239 h 28.5"></path><rect height="22" width="96.5" x="863.5" y="228"></rect><text x="911.75" y="243">Milestone</text></g><path d="M 988.5 239 a 10 10 0 0 0 10 -10 v -70 a 10 10 0 0 1 10 -10"></path><path d="M 815.0 149 a 10 10 0 0 1 10 10 v 100 a 10 10 0 0 0 10 10"></path><g class="non-terminal ">
<path d="M 835.0 269 h 45.5"></path><path d="M 943.0 269 h 45.5"></path><rect height="22" width="62.5" x="880.5" y="258"></rect><text x="911.75" y="273">Verse</text></g><path d="M 988.5 269 a 10 10 0 0 0 10 -10 v -100 a 10 10 0 0 1 10 -10"></path><path d="M 815.0 149 a 10 10 0 0 1 10 10 v 130 a 10 10 0 0 0 10 10"></path><g class="non-terminal ">
<path d="M 835.0 299 h 28.5"></path><path d="M 960.0 299 h 28.5"></path><rect height="22" width="96.5" x="863.5" y="288"></rect><text x="911.75" y="303">Reference</text></g><path d="M 988.5 299 a 10 10 0 0 0 10 -10 v -130 a 10 10 0 0 1 10 -10"></path><path d="M 815.0 149 a 10 10 0 0 1 10 10 v 160 a 10 10 0 0 0 10 10"></path><g class="non-terminal ">
<path d="M 835.0 329 h 32.75"></path><path d="M 955.75 329 h 32.75"></path><rect height="22" width="88.0" x="867.75" y="318"></rect><text x="911.75" y="333">Footnote</text></g><path d="M 988.5 329 a 10 10 0 0 0 10 -10 v -160 a 10 10 0 0 1 10 -10"></path><path d="M 815.0 149 a 10 10 0 0 1 10 10 v 190 a 10 10 0 0 0 10 10"></path><g class="non-terminal ">
<path d="M 835.0 359 h 7.25"></path><path d="M 981.25 359 h 7.25"></path><rect height="22" width="139.0" x="842.25" y="348"></rect><text x="911.75" y="363">CrossReference</text></g><path d="M 988.5 359 a 10 10 0 0 0 10 -10 v -190 a 10 10 0 0 1 10 -10"></path><path d="M 815.0 149 a 10 10 0 0 1 10 10 v 220 a 10 10 0 0 0 10 10"></path><g>
<path d="M 835.0 389 h 0.0"></path><path d="M 988.5 389 h 0.0"></path><g class="terminal ">
<path d="M 835.0 389 h 0.0"></path><path d="M 931.5 389 h 0.0"></path><rect height="22" rx="10" ry="10" width="96.5" x="835.0" y="378"></rect><text x="883.25" y="393">/\s&#42;\/\//</text></g><path d="M 931.5 389 h 10"></path><path d="M 941.5 389 h 10"></path><g class="terminal ">
<path d="M 951.5 389 h 0.0"></path><path d="M 988.5 389 h 0.0"></path><rect height="22" rx="10" ry="10" width="37.0" x="951.5" y="378"></rect><text x="970.0" y="393">//</text></g></g><path d="M 988.5 389 a 10 10 0 0 0 10 -10 v -220 a 10 10 0 0 1 10 -10"></path></g><path d="M 1008.5 149 h 10"></path><path d="M 815.0 149 a 10 10 0 0 0 -10 10 v 249 a 10 10 0 0 0 10 10"></path><g>
<path d="M 815.0 418 h 193.5"></path></g><path d="M 1008.5 418 a 10 10 0 0 0 10 -10 v -249 a 10 10 0 0 0 -10 -10"></path></g><path d="M 1018.5 149 h 20"></path></g></g><path d="M 1038.5 149 h 20"></path><path d="M 50.0 149 a 10 10 0 0 1 10 10 v 358 a 10 10 0 0 0 10 10"></path><g class="non-terminal ">
<path d="M 70.0 527 h 448.75"></path><path d="M 589.75 527 h 448.75"></path><rect height="22" width="71.0" x="518.75" y="516"></rect><text x="554.25" y="531">Remark</text></g><path d="M 1038.5 527 a 10 10 0 0 0 10 -10 v -358 a 10 10 0 0 1 10 -10"></path><path d="M 50.0 149 a 10 10 0 0 1 10 10 v 388 a 10 10 0 0 0 10 10"></path><g class="non-terminal ">
<path d="M 70.0 557 h 436.0"></path><path d="M 602.5 557 h 436.0"></path><rect height="22" width="96.5" x="506.0" y="546"></rect><text x="554.25" y="561">OtherPara</text></g><path d="M 1038.5 557 a 10 10 0 0 0 10 -10 v -388 a 10 10 0 0 1 10 -10"></path></g></g><path d="M 1058.5 149 h 10"></path><path d="M 1068.5 149 h 20 m 0 -10 v 20"></path></g></svg>