<svg class="railroad-diagram" height="598" viewBox="0 0 1701.5 598" width="1701.5" xmlns="http://www.w3.org/2000/svg" xmlns:xlink="http://www.w3.org/1999/xlink">
<g transform="translate(.5 .5)">
<style>/* <![CDATA[ */

    svg.railroad-diagram {
        background-color: hsl(30,20%,95%);
    }
    svg.railroad-diagram path {
        stroke-width: 2;
        stroke: black;
        fill: none;
    }
    svg.railroad-diagram text {
        font-size: 12px;
        text-anchor: middle;
        font-family: DejaVu Sans;
    }
    svg.railroad-diagram text.label {
        text-anchor:start;
    }
    svg.railroad-diagram text.comment {
        font-family: DejaVu Sans;
        font-size: 14px;
    }
    svg.railroad-diagram rect{
        stroke-width: 2;
        stroke: black;
        fill: rgb(210, 255, 210);
    }
    svg.railroad-diagram rect.group-box {
        stroke: gray;
        stroke-dasharray: 10 5;
        fill: none;
    }
    .terminal {
        font-family: DejaVu Sans;
    }
    svg.railroad-diagram g.altterminal rect {
        fill: rgb(251, 252, 207)
    }

/* ]]> */
</style><g>
<path d="M 20 139 v 20 m 0 -10 h 20"></path></g><path d="M 40 149 h 10"></path><g>
<path d="M 50 149 h 0.0"></path><path d="M 1651.5 149 h 0.0"></path><g>
<path d="M 50.0 149 h 0.0"></path><path d="M 1651.5 149 h 0.0"></path><path d="M 50.0 149 h 20"></path><g>
<path d="M 70.0 149 h 0.0"></path><path d="M 1631.5 149 h 0.0"></path><g>
<path d="M 70.0 149 h 0.0"></path><path d="M 206.5 149 h 0.0"></path><path d="M 70.0 149 h 20"></path><g class="terminal ">
<path d="M 90.0 149 h 12.75"></path><path d="M 173.75 149 h 12.75"></path><rect height="22" rx="10" ry="10" width="71.0" x="102.75" y="138"></rect><text x="138.25" y="153">'\n\\'</text></g><path d="M 186.5 149 h 20"></path><path d="M 70.0 149 a 10 10 0 0 1 10 10 v 10 a 10 10 0 0 0 10 10"></path><g class="terminal altterminal">
<path d="M 90.0 179 h 0.0"></path><path d="M 186.5 179 h 0.0"></path><rect height="22" rx="10" ry="10" width="96.5" x="90.0" y="168"></rect><text x="138.25" y="183">/${Ws}\\/</text></g><path d="M 186.5 179 a 10 10 0 0 0 10 -10 v -10 a 10 10 0 0 1 10 -10"></path></g><path d="M 206.5 149 h 10"></path><g>
<path d="M 216.5 149 h 0.0"></path><path d="M 644.0 149 h 0.0"></path><path d="M 216.5 149 a 10 10 0 0 0 10 -10 v -99 a 10 10 0 0 1 10 -10 h 255.0"></path><path d="M 369.0 508 h 255.0 a 10 10 0 0 0 10 -10 v -339 a 10 10 0 0 1 10 -10"></path><path d="M 216.5 149 h 10"></path><g>
<path d="M 226.5 149 h 10.0"></path><path d="M 339.0 149 h 10.0"></path><path d="M 236.5 149 a 10 10 0 0 0 10 -10 v -10 a 10 10 0 0 1 10 -10"></path><g class="terminal ">
<path d="M 256.5 119 h 4.25"></path><path d="M 314.75 119 h 4.25"></path><rect height="22" rx="10" ry="10" width="54.0" x="260.75" y="108"></rect><text x="287.75" y="123">"pc"</text></g><path d="M 319.0 119 a 10 10 0 0 1 10 10 v 10 a 10 10 0 0 0 10 10"></path><path d="M 236.5 149 a 10 10 0 0 0 10 -10 v -40 a 10 10 0 0 1 10 -10"></path><g class="terminal ">
<path d="M 256.5 89 h 4.25"></path><path d="M 314.75 89 h 4.25"></path><rect height="22" rx="10" ry="10" width="54.0" x="260.75" y="78"></rect><text x="287.75" y="93">"nb"</text></g><path d="M 319.0 89 a 10 10 0 0 1 10 10 v 40 a 10 10 0 0 0 10 10"></path><path d="M 236.5 149 a 10 10 0 0 0 10 -10 v -70 a 10 10 0 0 1 10 -10"></path><g class="terminal ">
<path d="M 256.5 59 h 0.0"></path><path d="M 319.0 59 h 0.0"></path><rect height="22" rx="10" ry="10" width="62.5" x="256.5" y="48"></rect><text x="287.75" y="63">"cls"</text></g><path d="M 319.0 59 a 10 10 0 0 1 10 10 v 70 a 10 10 0 0 0 10 10"></path><path d="M 236.5 149 h 20"></path><g class="terminal ">
<path d="M 256.5 149 h 0.0"></path><path d="M 319.0 149 h 0.0"></path><rect height="22" rx="10" ry="10" width="62.5" x="256.5" y="138"></rect><text x="287.75" y="153">"pi1"</text></g><path d="M 319.0 149 h 20"></path><path d="M 236.5 149 a 10 10 0 0 1 10 10 v 10 a 10 10 0 0 0 10 10"></path><g class="terminal ">
<path d="M 256.5 179 h 0.0"></path><path d="M 319.0 179 h 0.0"></path><rect height="22" rx="10" ry="10" width="62.5" x="256.5" y="168"></rect><text x="287.75" y="183">"pi2"</text></g><path d="M 319.0 179 a 10 10 0 0 0 10 -10 v -10 a 10 10 0 0 1 10 -10"></path><path d="M 236.5 149 a 10 10 0 0 1 10 10 v 40 a 10 10 0 0 0 10 10"></path><g class="terminal ">
<path d="M 256.5 209 h 0.0"></path><path d="M 319.0 209 h 0.0"></path><rect height="22" rx="10" ry="10" width="62.5" x="256.5" y="198"></rect><text x="287.75" y="213">"pi3"</text></g><path d="M 319.0 209 a 10 10 0 0 0 10 -10 v -40 a 10 10 0 0 1 10 -10"></path><path d="M 236.5 149 a 10 10 0 0 1 10 10 v 70 a 10 10 0 0 0 10 10"></path><g class="terminal ">
<path d="M 256.5 239 h 4.25"></path><path d="M 314.75 239 h 4.25"></path><rect height="22" rx="10" ry="10" width="54.0" x="260.75" y="228"></rect><text x="287.75" y="243">"pi"</text></g><path d="M 319.0 239 a 10 10 0 0 0 10 -10 v -70 a 10 10 0 0 1 10 -10"></path><path d="M 236.5 149 a 10 10 0 0 1 10 10 v 100 a 10 10 0 0 0 10 10"></path><g class="terminal ">
<path d="M 256.5 269 h 4.25"></path><path d="M 314.75 269 h 4.25"></path><rect height="22" rx="10" ry="10" width="54.0" x="260.75" y="258"></rect><text x="287.75" y="273">"po"</text></g><path d="M 319.0 269 a 10 10 0 0 0 10 -10 v -100 a 10 10 0 0 1 10 -10"></path><path d="M 236.5 149 a 10 10 0 0 1 10 10 v 130 a 10 10 0 0 0 10 10"></path><g class="terminal ">
<path d="M 256.5 299 h 4.25"></path><path d="M 314.75 299 h 4.25"></path><rect height="22" rx="10" ry="10" width="54.0" x="260.75" y="288"></rect><text x="287.75" y="303">"pr"</text></g><path d="M 319.0 299 a 10 10 0 0 0 10 -10 v -130 a 10 10 0 0 1 10 -10"></path><path d="M 236.5 149 a 10 10 0 0 1 10 10 v 160 a 10 10 0 0 0 10 10"></path><g class="terminal ">
<path d="M 256.5 329 h 0.0"></path><path d="M 319.0 329 h 0.0"></path><rect height="22" rx="10" ry="10" width="62.5" x="256.5" y="318"></rect><text x="287.75" y="333">"pmo"</text></g><path d="M 319.0 329 a 10 10 0 0 0 10 -10 v -160 a 10 10 0 0 1 10 -10"></path><path d="M 236.5 149 a 10 10 0 0 1 10 10 v 190 a 10 10 0 0 0 10 10"></path><g class="terminal ">
<path d="M 256.5 359 h 0.0"></path><path d="M 319.0 359 h 0.0"></path><rect height="22" rx="10" ry="10" width="62.5" x="256.5" y="348"></rect><text x="287.75" y="363">"pmc"</text></g><path d="M 319.0 359 a 10 10 0 0 0 10 -10 v -190 a 10 10 0 0 1 10 -10"></path><path d="M 236.5 149 a 10 10 0 0 1 10 10 v 220 a 10 10 0 0 0 10 10"></path><g class="terminal ">
<path d="M 256.5 389 h 0.0"></path><path d="M 319.0 389 h 0.0"></path><rect height="22" rx="10" ry="10" width="62.5" x="256.5" y="378"></rect><text x="287.75" y="393">"pmr"</text></g><path d="M 319.0 389 a 10 10 0 0 0 10 -10 v -220 a 10 10 0 0 1 10 -10"></path><path d="M 236.5 149 a 10 10 0 0 1 10 10 v 250 a 10 10 0 0 0 10 10"></path><g class="terminal ">
<path d="M 256.5 419 h 4.25"></path><path d="M 314.75 419 h 4.25"></path><rect height="22" rx="10" ry="10" width="54.0" x="260.75" y="408"></rect><text x="287.75" y="423">"pm"</text></g><path d="M 319.0 419 a 10 10 0 0 0 10 -10 v -250 a 10 10 0 0 1 10 -10"></path><path d="M 236.5 149 a 10 10 0 0 1 10 10 v 280 a 10 10 0 0 0 10 10"></path><g class="terminal ">
<path d="M 256.5 449 h 0.0"></path><path d="M 319.0 449 h 0.0"></path><rect height="22" rx="10" ry="10" width="62.5" x="256.5" y="438"></rect><text x="287.75" y="453">"ph1"</text></g><path d="M 319.0 449 a 10 10 0 0 0 10 -10 v -280 a 10 10 0 0 1 10 -10"></path><path d="M 236.5 149 a 10 10 0 0 1 10 10 v 310 a 10 10 0 0 0 10 10"></path><g class="terminal ">
<path d="M 256.5 479 h 0.0"></path><path d="M 319.0 479 h 0.0"></path><rect height="22" rx="10" ry="10" width="62.5" x="256.5" y="468"></rect><text x="287.75" y="483">"ph2"</text></g><path d="M 319.0 479 a 10 10 0 0 0 10 -10 v -310 a 10 10 0 0 1 10 -10"></path></g><path d="M 349.0 149 a 10 10 0 0 1 10 10 v 339 a 10 10 0 0 0 10 10"></path><path d="M 349.0 30 a 10 10 0 0 1 10 10 v 99 a 10 10 0 0 0 10 10"></path><g>
<path d="M 369.0 149 h 10.0"></path><path d="M 481.5 149 h 10.0"></path><path d="M 379.0 149 a 10 10 0 0 0 10 -10 v -10 a 10 10 0 0 1 10 -10"></path><g class="terminal ">
<path d="M 399.0 119 h 8.5"></path><path d="M 453.0 119 h 8.5"></path><rect height="22" rx="10" ry="10" width="45.5" x="407.5" y="108"></rect><text x="430.25" y="123">"p"</text></g><path d="M 461.5 119 a 10 10 0 0 1 10 10 v 10 a 10 10 0 0 0 10 10"></path><path d="M 379.0 149 a 10 10 0 0 0 10 -10 v -40 a 10 10 0 0 1 10 -10"></path><g class="terminal ">
<path d="M 399.0 89 h 4.25"></path><path d="M 457.25 89 h 4.25"></path><rect height="22" rx="10" ry="10" width="54.0" x="403.25" y="78"></rect><text x="430.25" y="93">"ph"</text></g><path d="M 461.5 89 a 10 10 0 0 1 10 10 v 40 a 10 10 0 0 0 10 10"></path><path d="M 379.0 149 a 10 10 0 0 0 10 -10 v -70 a 10 10 0 0 1 10 -10"></path><g class="terminal ">
<path d="M 399.0 59 h 0.0"></path><path d="M 461.5 59 h 0.0"></path><rect height="22" rx="10" ry="10" width="62.5" x="399.0" y="48"></rect><text x="430.25" y="63">"ph3"</text></g><path d="M 461.5 59 a 10 10 0 0 1 10 10 v 70 a 10 10 0 0 0 10 10"></path><path d="M 379.0 149 h 20"></path><g class="terminal ">
<path d="M 399.0 149 h 4.25"></path><path d="M 457.25 149 h 4.25"></path><rect height="22" rx="10" ry="10" width="54.0" x="403.25" y="138"></rect><text x="430.25" y="153">"q1"</text></g><path d="M 461.5 149 h 20"></path><path d="M 379.0 149 a 10 10 0 0 1 10 10 v 10 a 10 10 0 0 0 10 10"></path><g class="terminal ">
<path d="M 399.0 179 h 4.25"></path><path d="M 457.25 179 h 4.25"></path><rect height="22" rx="10" ry="10" width="54.0" x="403.25" y="168"></rect><text x="430.25" y="183">"q2"</text></g><path d="M 461.5 179 a 10 10 0 0 0 10 -10 v -10 a 10 10 0 0 1 10 -10"></path><path d="M 379.0 149 a 10 10 0 0 1 10 10 v 40 a 10 10 0 0 0 10 10"></path><g class="terminal ">
<path d="M 399.0 209 h 4.25"></path><path d="M 457.25 209 h 4.25"></path><rect height="22" rx="10" ry="10" width="54.0" x="403.25" y="198"></rect><text x="430.25" y="213">"q3"</text></g><path d="M 461.5 209 a 10 10 0 0 0 10 -10 v -40 a 10 10 0 0 1 10 -10"></path><path d="M 379.0 149 a 10 10 0 0 1 10 10 v 70 a 10 10 0 0 0 10 10"></path><g class="terminal ">
<path d="M 399.0 239 h 4.25"></path><path d="M 457.25 239 h 4.25"></path><rect height="22" rx="10" ry="10" width="54.0" x="403.25" y="228"></rect><text x="430.25" y="243">"q4"</text></g><path d="M 461.5 239 a 10 10 0 0 0 10 -10 v -70 a 10 10 0 0 1 10 -10"></path><path d="M 379.0 149 a 10 10 0 0 1 10 10 v 100 a 10 10 0 0 0 10 10"></path><g class="terminal ">
<path d="M 399.0 269 h 4.25"></path><path d="M 457.25 269 h 4.25"></path><rect height="22" rx="10" ry="10" width="54.0" x="403.25" y="258"></rect><text x="430.25" y="273">"qc"</text></g><path d="M 461.5 269 a 10 10 0 0 0 10 -10 v -100 a 10 10 0 0 1 10 -10"></path><path d="M 379.0 149 a 10 10 0 0 1 10 10 v 130 a 10 10 0 0 0 10 10"></path><g class="terminal ">
<path d="M 399.0 299 h 4.25"></path><path d="M 457.25 299 h 4.25"></path><rect height="22" rx="10" ry="10" width="54.0" x="403.25" y="288"></rect><text x="430.25" y="303">"qr"</text></g><path d="M 461.5 299 a 10 10 0 0 0 10 -10 v -130 a 10 10 0 0 1 10 -10"></path><path d="M 379.0 149 a 10 10 0 0 1 10 10 v 160 a 10 10 0 0 0 10 10"></path><g class="terminal ">
<path d="M 399.0 329 h 0.0"></path><path d="M 461.5 329 h 0.0"></path><rect height="22" rx="10" ry="10" width="62.5" x="399.0" y="318"></rect><text x="430.25" y="333">"qm1"</text></g><path d="M 461.5 329 a 10 10 0 0 0 10 -10 v -160 a 10 10 0 0 1 10 -10"></path><path d="M 379.0 149 a 10 10 0 0 1 10 10 v 190 a 10 10 0 0 0 10 10"></path><g class="terminal ">
<path d="M 399.0 359 h 0.0"></path><path d="M 461.5 359 h 0.0"></path><rect height="22" rx="10" ry="10" width="62.5" x="399.0" y="348"></rect><text x="430.25" y="363">"qm2"</text></g><path d="M 461.5 359 a 10 10 0 0 0 10 -10 v -190 a 10 10 0 0 1 10 -10"></path><path d="M 379.0 149 a 10 10 0 0 1 10 10 v 220 a 10 10 0 0 0 10 10"></path><g class="terminal ">
<path d="M 399.0 389 h 0.0"></path><path d="M 461.5 389 h 0.0"></path><rect height="22" rx="10" ry="10" width="62.5" x="399.0" y="378"></rect><text x="430.25" y="393">"qm3"</text></g><path d="M 461.5 389 a 10 10 0 0 0 10 -10 v -220 a 10 10 0 0 1 10 -10"></path><path d="M 379.0 149 a 10 10 0 0 1 10 10 v 250 a 10 10 0 0 0 10 10"></path><g class="terminal ">
<path d="M 399.0 419 h 4.25"></path><path d="M 457.25 419 h 4.25"></path><rect height="22" rx="10" ry="10" width="54.0" x="403.25" y="408"></rect><text x="430.25" y="423">"qm"</text></g><path d="M 461.5 419 a 10 10 0 0 0 10 -10 v -250 a 10 10 0 0 1 10 -10"></path><path d="M 379.0 149 a 10 10 0 0 1 10 10 v 280 a 10 10 0 0 0 10 10"></path><g class="terminal ">
<path d="M 399.0 449 h 4.25"></path><path d="M 457.25 449 h 4.25"></path><rect height="22" rx="10" ry="10" width="54.0" x="403.25" y="438"></rect><text x="430.25" y="453">"qd"</text></g><path d="M 461.5 449 a 10 10 0 0 0 10 -10 v -280 a 10 10 0 0 1 10 -10"></path><path d="M 379.0 149 a 10 10 0 0 1 10 10 v 310 a 10 10 0 0 0 10 10"></path><g class="terminal ">
<path d="M 399.0 479 h 8.5"></path><path d="M 453.0 479 h 8.5"></path><rect height="22" rx="10" ry="10" width="45.5" x="407.5" y="468"></rect><text x="430.25" y="483">"q"</text></g><path d="M 461.5 479 a 10 10 0 0 0 10 -10 v -310 a 10 10 0 0 1 10 -10"></path></g><path d="M 491.5 149 a 10 10 0 0 1 10 10 v 339 a 10 10 0 0 0 10 10"></path><path d="M 491.5 30 a 10 10 0 0 1 10 10 v 99 a 10 10 0 0 0 10 10"></path><g>
<path d="M 511.5 149 h 10.0"></path><path d="M 624.0 149 h 10.0"></path><path d="M 521.5 149 a 10 10 0 0 0 10 -10 v -10 a 10 10 0 0 1 10 -10"></path><g class="terminal ">
<path d="M 541.5 119 h 0.0"></path><path d="M 604.0 119 h 0.0"></path><rect height="22" rx="10" ry="10" width="62.5" x="541.5" y="108"></rect><text x="572.75" y="123">"mi1"</text></g><path d="M 604.0 119 a 10 10 0 0 1 10 10 v 10 a 10 10 0 0 0 10 10"></path><path d="M 521.5 149 a 10 10 0 0 0 10 -10 v -40 a 10 10 0 0 1 10 -10"></path><g class="terminal ">
<path d="M 541.5 89 h 8.5"></path><path d="M 595.5 89 h 8.5"></path><rect height="22" rx="10" ry="10" width="45.5" x="550.0" y="78"></rect><text x="572.75" y="93">"d"</text></g><path d="M 604.0 89 a 10 10 0 0 1 10 10 v 40 a 10 10 0 0 0 10 10"></path><path d="M 521.5 149 a 10 10 0 0 0 10 -10 v -70 a 10 10 0 0 1 10 -10"></path><g class="terminal ">
<path d="M 541.5 59 h 8.5"></path><path d="M 595.5 59 h 8.5"></path><rect height="22" rx="10" ry="10" width="45.5" x="550.0" y="48"></rect><text x="572.75" y="63">"b"</text></g><path d="M 604.0 59 a 10 10 0 0 1 10 10 v 70 a 10 10 0 0 0 10 10"></path><path d="M 521.5 149 h 20"></path><g class="terminal ">
<path d="M 541.5 149 h 0.0"></path><path d="M 604.0 149 h 0.0"></path><rect height="22" rx="10" ry="10" width="62.5" x="541.5" y="138"></rect><text x="572.75" y="153">"mi2"</text></g><path d="M 604.0 149 h 20"></path><path d="M 521.5 149 a 10 10 0 0 1 10 10 v 10 a 10 10 0 0 0 10 10"></path><g class="terminal ">
<path d="M 541.5 179 h 0.0"></path><path d="M 604.0 179 h 0.0"></path><rect height="22" rx="10" ry="10" width="62.5" x="541.5" y="168"></rect><text x="572.75" y="183">"mi3"</text></g><path d="M 604.0 179 a 10 10 0 0 0 10 -10 v -10 a 10 10 0 0 1 10 -10"></path><path d="M 521.5 149 a 10 10 0 0 1 10 10 v 40 a 10 10 0 0 0 10 10"></path><g class="terminal ">
<path d="M 541.5 209 h 0.0"></path><path d="M 604.0 209 h 0.0"></path><rect height="22" rx="10" ry="10" width="62.5" x="541.5" y="198"></rect><text x="572.75" y="213">"mi4"</text></g><path d="M 604.0 209 a 10 10 0 0 0 10 -10 v -40 a 10 10 0 0 1 10 -10"></path><path d="M 521.5 149 a 10 10 0 0 1 10 10 v 70 a 10 10 0 0 0 10 10"></path><g class="terminal ">
<path d="M 541.5 239 h 4.25"></path><path d="M 599.75 239 h 4.25"></path><rect height="22" rx="10" ry="10" width="54.0" x="545.75" y="228"></rect><text x="572.75" y="243">"mi"</text></g><path d="M 604.0 239 a 10 10 0 0 0 10 -10 v -70 a 10 10 0 0 1 10 -10"></path><path d="M 521.5 149 a 10 10 0 0 1 10 10 v 100 a 10 10 0 0 0 10 10"></path><g class="terminal ">
<path d="M 541.5 269 h 8.5"></path><path d="M 595.5 269 h 8.5"></path><rect height="22" rx="10" ry="10" width="45.5" x="550.0" y="258"></rect><text x="572.75" y="273">"m"</text></g><path d="M 604.0 269 a 10 10 0 0 0 10 -10 v -100 a 10 10 0 0 1 10 -10"></path></g><path d="M 634.0 149 h 10"></path></g><path d="M 644.0 149 h 10"></path><g>
<path d="M 654.0 149 h 0.0"></path><path d="M 765.0 149 h 0.0"></path><path d="M 654.0 149 h 20"></path><g class="terminal ">
<path d="M 674.0 149 h 12.75"></path><path d="M 732.25 149 h 12.75"></path><rect height="22" rx="10" ry="10" width="45.5" x="686.75" y="138"></rect><text x="709.5" y="153">' '</text></g><path d="M 745.0 149 h 20"></path><path d="M 654.0 149 a 10 10 0 0 1 10 10 v 10 a 10 10 0 0 0 10 10"></path><g class="terminal altterminal">
<path d="M 674.0 179 h 0.0"></path><path d="M 745.0 179 h 0.0"></path><rect height="22" rx="10" ry="10" width="71.0" x="674.0" y="168"></rect><text x="709.5" y="183">TAGEND</text></g><path d="M 745.0 179 a 10 10 0 0 0 10 -10 v -10 a 10 10 0 0 1 10 -10"></path></g><path d="M 765.0 149 h 10"></path><path d="M 775.0 149 h 10"></path><g>
<path d="M 785.0 149 h 0.0"></path><path d="M 1343.5 149 h 0.0"></path><path d="M 785.0 149 h 20"></path><g>
<path d="M 805.0 149 h 518.5"></path></g><path d="M 1323.5 149 h 20"></path><path d="M 785.0 149 a 10 10 0 0 1 10 10 v 9 a 10 10 0 0 0 10 10"></path><g>
<path d="M 805.0 178 h 0.0"></path><path d="M 1323.5 247 h 0.0"></path><g>
<path d="M 805.0 178 h 0.0"></path><path d="M 899.0 178 h 0.0"></path><path d="M 805.0 178 h 20"></path><g class="terminal ">
<path d="M 825.0 178 h 4.25"></path><path d="M 874.75 178 h 4.25"></path><rect height="22" rx="10" ry="10" width="45.5" x="829.25" y="167"></rect><text x="852.0" y="182">'|'</text></g><path d="M 879.0 178 h 20"></path><path d="M 805.0 178 a 10 10 0 0 1 10 10 v 10 a 10 10 0 0 0 10 10"></path><g class="terminal altterminal">
<path d="M 825.0 208 h 0.0"></path><path d="M 879.0 208 h 0.0"></path><rect height="22" rx="10" ry="10" width="54.0" x="825.0" y="197"></rect><text x="852.0" y="212">PIPE</text></g><path d="M 879.0 208 a 10 10 0 0 0 10 -10 v -10 a 10 10 0 0 1 10 -10"></path></g><path d="M 899.0 178 h 10"></path><path d="M 909.0 178 h 10"></path><g>
<path d="M 919.0 178 h 0.0"></path><path d="M 919.0 178 h 10"></path><g>
<path d="M 929.0 178 h 10.0"></path><path d="M 1189.5 178 h 10.0"></path><path d="M 939.0 178 h 20"></path><g>
<path d="M 959.0 178 h 210.5"></path></g><path d="M 1169.5 178 h 20"></path><path d="M 939.0 178 a 10 10 0 0 1 10 10 v 0 a 10 10 0 0 0 10 10"></path><g>
<path d="M 959.0 198 h 0.0"></path><path d="M 1169.5 198 h 0.0"></path><g class="terminal ">
<path d="M 959.0 198 h 0.0"></path><path d="M 1038.5 198 h 0.0"></path><rect height="22" rx="10" ry="10" width="79.5" x="959.0" y="187"></rect><text x="998.75" y="202">'vid="'</text></g><path d="M 1038.5 198 h 10"></path><path d="M 1048.5 198 h 10"></path><g class="terminal ">
<path d="M 1058.5 198 h 0.0"></path><path d="M 1121.0 198 h 0.0"></path><rect height="22" rx="10" ry="10" width="62.5" x="1058.5" y="187"></rect><text x="1089.75" y="202">VERSE</text></g><path d="M 1121.0 198 h 10"></path><path d="M 1131.0 198 h 10"></path><g class="terminal ">
<path d="M 1141.0 198 h 0.0"></path><path d="M 1169.5 198 h 0.0"></path><rect height="22" rx="10" ry="10" width="28.5" x="1141.0" y="187"></rect><text x="1155.25" y="202">"</text></g></g><path d="M 1169.5 198 a 10 10 0 0 0 10 -10 v 0 a 10 10 0 0 1 10 -10"></path></g><path d="M 1199.5 178 a 10 10 0 0 1 10 10 v 29 a 10 10 0 0 1 -10 10 h -270.5 a 10 10 0 0 0 -10 10 v 0 a 10 10 0 0 0 10 10"></path><g>
<path d="M 929.0 247 h 14.25"></path><path d="M 1185.25 247 h 14.25"></path><path d="M 943.25 247 h 20"></path><g>
<path d="M 963.25 247 h 202.0"></path></g><path d="M 1165.25 247 h 20"></path><path d="M 943.25 247 a 10 10 0 0 1 10 10 v 0 a 10 10 0 0 0 10 10"></path><g>
<path d="M 963.25 267 h 0.0"></path><path d="M 1165.25 267 h 0.0"></path><g class="terminal ">
<path d="M 963.25 267 h 0.0"></path><path d="M 1042.75 267 h 0.0"></path><rect height="22" rx="10" ry="10" width="79.5" x="963.25" y="256"></rect><text x="1003.0" y="271">'aid="'</text></g><path d="M 1042.75 267 h 10"></path><path d="M 1052.75 267 h 10"></path><g class="terminal ">
<path d="M 1062.75 267 h 0.0"></path><path d="M 1116.75 267 h 0.0"></path><rect height="22" rx="10" ry="10" width="54.0" x="1062.75" y="256"></rect><text x="1089.75" y="271">TEXT</text></g><path d="M 1116.75 267 h 10"></path><path d="M 1126.75 267 h 10"></path><g class="terminal ">
<path d="M 1136.75 267 h 0.0"></path><path d="M 1165.25 267 h 0.0"></path><rect height="22" rx="10" ry="10" width="28.5" x="1136.75" y="256"></rect><text x="1151.0" y="271">"</text></g></g><path d="M 1165.25 267 a 10 10 0 0 0 10 -10 v 0 a 10 10 0 0 1 10 -10"></path></g><path d="M 1199.5 247 h 10"></path><path d="M 1209.5 247 h 0.0"></path></g><path d="M 1209.5 247 h 10"></path><path d="M 1219.5 247 h 10"></path><g>
<path d="M 1229.5 247 h 0.0"></path><path d="M 1323.5 247 h 0.0"></path><path d="M 1229.5 247 h 20"></path><g class="terminal ">
<path d="M 1249.5 247 h 4.25"></path><path d="M 1299.25 247 h 4.25"></path><rect height="22" rx="10" ry="10" width="45.5" x="1253.75" y="236"></rect><text x="1276.5" y="251">'|'</text></g><path d="M 1303.5 247 h 20"></path><path d="M 1229.5 247 a 10 10 0 0 1 10 10 v 10 a 10 10 0 0 0 10 10"></path><g class="terminal altterminal">
<path d="M 1249.5 277 h 0.0"></path><path d="M 1303.5 277 h 0.0"></path><rect height="22" rx="10" ry="10" width="54.0" x="1249.5" y="266"></rect><text x="1276.5" y="281">PIPE</text></g><path d="M 1303.5 277 a 10 10 0 0 0 10 -10 v -10 a 10 10 0 0 1 10 -10"></path></g></g><path d="M 1323.5 247 a 10 10 0 0 0 10 -10 v -78 a 10 10 0 0 1 10 -10"></path></g><path d="M 1343.5 149 h 10"></path><path d="M 1353.5 149 h 10"></path><g>
<path d="M 1363.5 149 h 0.0"></path><path d="M 1631.5 149 h 0.0"></path><path d="M 1363.5 149 a 10 10 0 0 0 10 -10 v -9 a 10 10 0 0 1 10 -10"></path><g>
<path d="M 1383.5 120 h 228.0"></path></g><path d="M 1611.5 120 a 10 10 0 0 1 10 10 v 9 a 10 10 0 0 0 10 10"></path><path d="M 1363.5 149 h 20"></path><g>
<path d="M 1383.5 149 h 0.0"></path><path d="M 1611.5 149 h 0.0"></path><path d="M 1383.5 149 h 10"></path><g>
<path d="M 1393.5 149 h 0.0"></path><path d="M 1601.5 149 h 0.0"></path><path d="M 1393.5 149 h 20"></path><g>
<path d="M 1413.5 149 h 7.25"></path><path d="M 1574.25 149 h 7.25"></path><g class="terminal ">
<path d="M 1420.75 149 h 0.0"></path><path d="M 1474.75 149 h 0.0"></path><rect height="22" rx="10" ry="10" width="54.0" x="1420.75" y="138"></rect><text x="1447.75" y="153">TEXT</text></g><path d="M 1474.75 149 h 10"></path><path d="M 1484.75 149 h 10"></path><g class="terminal ">
<path d="M 1494.75 149 h 0.0"></path><path d="M 1574.25 149 h 0.0"></path><rect height="22" rx="10" ry="10" width="79.5" x="1494.75" y="138"></rect><text x="1534.5" y="153">TEXTEND</text></g></g><path d="M 1581.5 149 h 20"></path><path d="M 1393.5 149 a 10 10 0 0 1 10 10 v 10 a 10 10 0 0 0 10 10"></path><g class="non-terminal ">
<path d="M 1413.5 179 h 35.75"></path><path d="M 1545.75 179 h 35.75"></path><rect height="22" width="96.5" x="1449.25" y="168"></rect><text x="1497.5" y="183">CharEmbed</text></g><path d="M 1581.5 179 a 10 10 0 0 0 10 -10 v -10 a 10 10 0 0 1 10 -10"></path><path d="M 1393.5 149 a 10 10 0 0 1 10 10 v 40 a 10 10 0 0 0 10 10"></path><g class="non-terminal ">
<path d="M 1413.5 209 h 48.5"></path><path d="M 1533.0 209 h 48.5"></path><rect height="22" width="71.0" x="1462.0" y="198"></rect><text x="1497.5" y="213">Figure</text></g><path d="M 1581.5 209 a 10 10 0 0 0 10 -10 v -40 a 10 10 0 0 1 10 -10"></path><path d="M 1393.5 149 a 10 10 0 0 1 10 10 v 70 a 10 10 0 0 0 10 10"></path><g class="non-terminal ">
<path d="M 1413.5 239 h 35.75"></path><path d="M 1545.75 239 h 35.75"></path><rect height="22" width="96.5" x="1449.25" y="228"></rect><text x="1497.5" y="243">Milestone</text></g><path d="M 1581.5 239 a 10 10 0 0 0 10 -10 v -70 a 10 10 0 0 1 10 -10"></path><path d="M 1393.5 149 a 10 10 0 0 1 10 10 v 100 a 10 10 0 0 0 10 10"></path><g class="non-terminal ">
<path d="M 1413.5 269 h 52.75"></path><path d="M 1528.75 269 h 52.75"></path><rect height="22" width="62.5" x="1466.25" y="258"></rect><text x="1497.5" y="273">Verse</text></g><path d="M 1581.5 269 a 10 10 0 0 0 10 -10 v -100 a 10 10 0 0 1 10 -10"></path><path d="M 1393.5 149 a 10 10 0 0 1 10 10 v 130 a 10 10 0 0 0 10 10"></path><g class="non-terminal ">
<path d="M 1413.5 299 h 35.75"></path><path d="M 1545.75 299 h 35.75"></path><rect height="22" width="96.5" x="1449.25" y="288"></rect><text x="1497.5" y="303">Reference</text></g><path d="M 1581.5 299 a 10 10 0 0 0 10 -10 v -130 a 10 10 0 0 1 10 -10"></path><path d="M 1393.5 149 a 10 10 0 0 1 10 10 v 160 a 10 10 0 0 0 10 10"></path><g class="non-terminal ">
<path d="M 1413.5 329 h 40.0"></path><path d="M 1541.5 329 h 40.0"></path><rect height="22" width="88.0" x="1453.5" y="318"></rect><text x="1497.5" y="333">Footnote</text></g><path d="M 1581.5 329 a 10 10 0 0 0 10 -10 v -160 a 10 10 0 0 1 10 -10"></path><path d="M 1393.5 149 a 10 10 0 0 1 10 10 v 190 a 10 10 0 0 0 10 10"></path><g class="non-terminal ">
<path d="M 1413.5 359 h 14.5"></path><path d="M 1567.0 359 h 14.5"></path><rect height="22" width="139.0" x="1428.0" y="348"></rect><text x="1497.5" y="363">CrossReference</text></g><path d="M 1581.5 359 a 10 10 0 0 0 10 -10 v -190 a 10 10 0 0 1 10 -10"></path><path d="M 1393.5 149 a 10 10 0 0 1 10 10 v 220 a 10 10 0 0 0 10 10"></path><g>
<path d="M 1413.5 389 h 0.0"></path><path d="M 1581.5 389 h 0.0"></path><g class="terminal ">
<path d="M 1413.5 389 h 0.0"></path><path d="M 1450.5 389 h 0.0"></path><rect height="22" rx="10" ry="10" width="37.0" x="1413.5" y="378"></rect><text x="1432.0" y="393">Hs</text></g><path d="M 1450.5 389 h 10"></path><path d="M 1460.5 389 h 10"></path><g class="terminal ">
<path d="M 1470.5 389 h 0.0"></path><path d="M 1524.5 389 h 0.0"></path><rect height="22" rx="10" ry="10" width="54.0" x="1470.5" y="378"></rect><text x="1497.5" y="393">'//'</text></g><path d="M 1524.5 389 h 10"></path><path d="M 1534.5 389 h 10"></path><g class="terminal ">
<path d="M 1544.5 389 h 0.0"></path><path d="M 1581.5 389 h 0.0"></path><rect height="22" rx="10" ry="10" width="37.0" x="1544.5" y="378"></rect><text x="1563.0" y="393">Hs</text></g></g><path d="M 1581.5 389 a 10 10 0 0 0 10 -10 v -220 a 10 10 0 0 1 10 -10"></path></g><path d="M 1601.5 149 h 10"></path><path d="M 1393.5 149 a 10 10 0 0 0 -10 10 v 249 a 10 10 0 0 0 10 10"></path><g>
<path d="M 1393.5 418 h 208.0"></path></g><path d="M 1601.5 418 a 10 10 0 0 0 10 -10 v -249 a 10 10 0 0 0 -10 -10"></path></g><path d="M 1611.5 149 h 20"></path></g></g><path d="M 1631.5 149 h 20"></path><path d="M 50.0 149 a 10 10 0 0 1 10 10 v 358 a 10 10 0 0 0 10 10"></path><g class="non-terminal ">
<path d="M 70.0 527 h 745.25"></path><path d="M 886.25 527 h 745.25"></path><rect height="22" width="71.0" x="815.25" y="516"></rect><text x="850.75" y="531">Remark</text></g><path d="M 1631.5 527 a 10 10 0 0 0 10 -10 v -358 a 10 10 0 0 1 10 -10"></path><path d="M 50.0 149 a 10 10 0 0 1 10 10 v 388 a 10 10 0 0 0 10 10"></path><g class="non-terminal ">
<path d="M 70.0 557 h 732.5"></path><path d="M 899.0 557 h 732.5"></path><rect height="22" width="96.5" x="802.5" y="546"></rect><text x="850.75" y="561">OtherPara</text></g><path d="M 1631.5 557 a 10 10 0 0 0 10 -10 v -388 a 10 10 0 0 1 10 -10"></path></g></g><path d="M 1651.5 149 h 10"></path><path d="M 1661.5 149 h 20 m 0 -10 v 20"></path></g></svg>