<svg class="railroad-diagram" height="562" viewBox="0 0 1278.0 562" width="1278.0" xmlns="http://www.w3.org/2000/svg" xmlns:xlink="http://www.w3.org/1999/xlink">
<g transform="translate(.5 .5)">
<style>/* <![CDATA[ */
    svg.railroad-diagram {
        background-color:hsl(30,20%,95%);
    }
    svg.railroad-diagram path {
        stroke-width: 2;
        stroke: black;
        fill: none;
    }
    svg.railroad-diagram text {
        font-size: 12px;
        text-anchor: middle;
        font-family: DejaVu Sans;
    }
    svg.railroad-diagram text.label {
        text-anchor:start;
    }
    svg.railroad-diagram text.comment {
        font-family: DejaVu Sans;
        font-size: 14px;
    }
    svg.railroad-diagram rect{
        stroke-width: 2;
        stroke:black;
        fill: rgb(210, 255, 210);
    }
    svg.railroad-diagram rect.group-box {
        stroke: gray;
        stroke-dasharray: 10 5;
        fill: none;
    }
    .terminal {
        font-family: DejaVu Sans;
    }

/* ]]> */
</style><g>
<path d="M 20 167 v 20 m 0 -10 h 20"></path></g><path d="M 40 177 h 10"></path><g>
<path d="M 50 177 h 0.0"></path><path d="M 1228.0 177 h 0.0"></path><rect class="group-box" height="506" rx="10" ry="10" width="1178.0" x="50.0" y="36"></rect><g>
<path d="M 50.0 177 h 10.0"></path><path d="M 1218.0 177 h 10.0"></path><g>
<path d="M 60.0 177 h 0.0"></path><path d="M 790.5 177 h 0.0"></path><rect class="group-box" height="474" rx="10" ry="10" width="730.5" x="60.0" y="60"></rect><g>
<path d="M 60.0 177 h 10.0"></path><path d="M 780.5 177 h 10.0"></path><g class="terminal ">
<path d="M 70.0 177 h 0.0"></path><path d="M 115.5 177 h 0.0"></path><rect height="22" rx="10" ry="10" width="45.5" x="70.0" y="166"></rect><text x="92.75" y="181">"\"</text></g><path d="M 115.5 177 h 10"></path><g>
<path d="M 125.5 177 h 0.0"></path><path d="M 780.5 177 h 0.0"></path><path d="M 125.5 177 a 10 10 0 0 0 10 -10 v -89 a 10 10 0 0 1 10 -10 h 494.0"></path><path d="M 292.0 526 h 468.5 a 10 10 0 0 0 10 -10 v -329 a 10 10 0 0 1 10 -10"></path><path d="M 125.5 177 h 10"></path><g>
<path d="M 135.5 177 h 0.0"></path><path d="M 272.0 177 h 0.0"></path><path d="M 135.5 177 a 10 10 0 0 0 10 -10 v -10 a 10 10 0 0 1 10 -10"></path><g class="terminal ">
<path d="M 155.5 147 h 17.0"></path><path d="M 235.0 147 h 17.0"></path><rect height="22" rx="10" ry="10" width="62.5" x="172.5" y="136"></rect><text x="203.75" y="151">"iex"</text></g><path d="M 252.0 147 a 10 10 0 0 1 10 10 v 10 a 10 10 0 0 0 10 10"></path><path d="M 135.5 177 a 10 10 0 0 0 10 -10 v -40 a 10 10 0 0 1 10 -10"></path><g class="terminal ">
<path d="M 155.5 117 h 17.0"></path><path d="M 235.0 117 h 17.0"></path><rect height="22" rx="10" ry="10" width="62.5" x="172.5" y="106"></rect><text x="203.75" y="121">"cls"</text></g><path d="M 252.0 117 a 10 10 0 0 1 10 10 v 40 a 10 10 0 0 0 10 10"></path><path d="M 135.5 177 a 10 10 0 0 0 10 -10 v -70 a 10 10 0 0 1 10 -10"></path><g class="terminal ">
<path d="M 155.5 87 h 0.0"></path><path d="M 252.0 87 h 0.0"></path><rect height="22" rx="10" ry="10" width="96.5" x="155.5" y="76"></rect><text x="203.75" y="91">"restore"</text></g><path d="M 252.0 87 a 10 10 0 0 1 10 10 v 70 a 10 10 0 0 0 10 10"></path><path d="M 135.5 177 h 20"></path><g class="terminal ">
<path d="M 155.5 177 h 21.25"></path><path d="M 230.75 177 h 21.25"></path><rect height="22" rx="10" ry="10" width="54.0" x="176.75" y="166"></rect><text x="203.75" y="181">"ip"</text></g><path d="M 252.0 177 h 20"></path><path d="M 135.5 177 a 10 10 0 0 1 10 10 v 10 a 10 10 0 0 0 10 10"></path><g class="terminal ">
<path d="M 155.5 207 h 17.0"></path><path d="M 235.0 207 h 17.0"></path><rect height="22" rx="10" ry="10" width="62.5" x="172.5" y="196"></rect><text x="203.75" y="211">"lit"</text></g><path d="M 252.0 207 a 10 10 0 0 0 10 -10 v -10 a 10 10 0 0 1 10 -10"></path><path d="M 135.5 177 a 10 10 0 0 1 10 10 v 40 a 10 10 0 0 0 10 10"></path><g class="terminal ">
<path d="M 155.5 237 h 25.5"></path><path d="M 226.5 237 h 25.5"></path><rect height="22" rx="10" ry="10" width="45.5" x="181.0" y="226"></rect><text x="203.75" y="241">"m"</text></g><path d="M 252.0 237 a 10 10 0 0 0 10 -10 v -40 a 10 10 0 0 1 10 -10"></path><path d="M 135.5 177 a 10 10 0 0 1 10 10 v 70 a 10 10 0 0 0 10 10"></path><g class="terminal ">
<path d="M 155.5 267 h 21.25"></path><path d="M 230.75 267 h 21.25"></path><rect height="22" rx="10" ry="10" width="54.0" x="176.75" y="256"></rect><text x="203.75" y="271">"mi"</text></g><path d="M 252.0 267 a 10 10 0 0 0 10 -10 v -70 a 10 10 0 0 1 10 -10"></path><path d="M 135.5 177 a 10 10 0 0 1 10 10 v 100 a 10 10 0 0 0 10 10"></path><g class="terminal ">
<path d="M 155.5 297 h 21.25"></path><path d="M 230.75 297 h 21.25"></path><rect height="22" rx="10" ry="10" width="54.0" x="176.75" y="286"></rect><text x="203.75" y="301">"nb"</text></g><path d="M 252.0 297 a 10 10 0 0 0 10 -10 v -100 a 10 10 0 0 1 10 -10"></path><path d="M 135.5 177 a 10 10 0 0 1 10 10 v 130 a 10 10 0 0 0 10 10"></path><g class="terminal ">
<path d="M 155.5 327 h 25.5"></path><path d="M 226.5 327 h 25.5"></path><rect height="22" rx="10" ry="10" width="45.5" x="181.0" y="316"></rect><text x="203.75" y="331">"p"</text></g><path d="M 252.0 327 a 10 10 0 0 0 10 -10 v -130 a 10 10 0 0 1 10 -10"></path><path d="M 135.5 177 a 10 10 0 0 1 10 10 v 160 a 10 10 0 0 0 10 10"></path><g class="terminal ">
<path d="M 155.5 357 h 21.25"></path><path d="M 230.75 357 h 21.25"></path><rect height="22" rx="10" ry="10" width="54.0" x="176.75" y="346"></rect><text x="203.75" y="361">"pb"</text></g><path d="M 252.0 357 a 10 10 0 0 0 10 -10 v -160 a 10 10 0 0 1 10 -10"></path><path d="M 135.5 177 a 10 10 0 0 1 10 10 v 190 a 10 10 0 0 0 10 10"></path><g class="terminal ">
<path d="M 155.5 387 h 21.25"></path><path d="M 230.75 387 h 21.25"></path><rect height="22" rx="10" ry="10" width="54.0" x="176.75" y="376"></rect><text x="203.75" y="391">"pc"</text></g><path d="M 252.0 387 a 10 10 0 0 0 10 -10 v -190 a 10 10 0 0 1 10 -10"></path><path d="M 135.5 177 a 10 10 0 0 1 10 10 v 220 a 10 10 0 0 0 10 10"></path><g class="terminal ">
<path d="M 155.5 417 h 21.25"></path><path d="M 230.75 417 h 21.25"></path><rect height="22" rx="10" ry="10" width="54.0" x="176.75" y="406"></rect><text x="203.75" y="421">"pi"</text></g><path d="M 252.0 417 a 10 10 0 0 0 10 -10 v -220 a 10 10 0 0 1 10 -10"></path><path d="M 135.5 177 a 10 10 0 0 1 10 10 v 250 a 10 10 0 0 0 10 10"></path><g class="terminal ">
<path d="M 155.5 447 h 17.0"></path><path d="M 235.0 447 h 17.0"></path><rect height="22" rx="10" ry="10" width="62.5" x="172.5" y="436"></rect><text x="203.75" y="451">"pi1"</text></g><path d="M 252.0 447 a 10 10 0 0 0 10 -10 v -250 a 10 10 0 0 1 10 -10"></path><path d="M 135.5 177 a 10 10 0 0 1 10 10 v 280 a 10 10 0 0 0 10 10"></path><g class="terminal ">
<path d="M 155.5 477 h 17.0"></path><path d="M 235.0 477 h 17.0"></path><rect height="22" rx="10" ry="10" width="62.5" x="172.5" y="466"></rect><text x="203.75" y="481">"pi2"</text></g><path d="M 252.0 477 a 10 10 0 0 0 10 -10 v -280 a 10 10 0 0 1 10 -10"></path><path d="M 135.5 177 a 10 10 0 0 1 10 10 v 310 a 10 10 0 0 0 10 10"></path><g class="terminal ">
<path d="M 155.5 507 h 17.0"></path><path d="M 235.0 507 h 17.0"></path><rect height="22" rx="10" ry="10" width="62.5" x="172.5" y="496"></rect><text x="203.75" y="511">"pi3"</text></g><path d="M 252.0 507 a 10 10 0 0 0 10 -10 v -310 a 10 10 0 0 1 10 -10"></path></g><path d="M 272.0 177 a 10 10 0 0 1 10 10 v 329 a 10 10 0 0 0 10 10"></path><path d="M 272.0 68 a 10 10 0 0 1 10 10 v 89 a 10 10 0 0 0 10 10"></path><g>
<path d="M 292.0 177 h 0.0"></path><path d="M 394.5 177 h 0.0"></path><path d="M 292.0 177 a 10 10 0 0 0 10 -10 v -10 a 10 10 0 0 1 10 -10"></path><g class="terminal ">
<path d="M 312.0 147 h 0.0"></path><path d="M 374.5 147 h 0.0"></path><rect height="22" rx="10" ry="10" width="62.5" x="312.0" y="136"></rect><text x="343.25" y="151">"pmo"</text></g><path d="M 374.5 147 a 10 10 0 0 1 10 10 v 10 a 10 10 0 0 0 10 10"></path><path d="M 292.0 177 a 10 10 0 0 0 10 -10 v -40 a 10 10 0 0 1 10 -10"></path><g class="terminal ">
<path d="M 312.0 117 h 4.25"></path><path d="M 370.25 117 h 4.25"></path><rect height="22" rx="10" ry="10" width="54.0" x="316.25" y="106"></rect><text x="343.25" y="121">"pr"</text></g><path d="M 374.5 117 a 10 10 0 0 1 10 10 v 40 a 10 10 0 0 0 10 10"></path><path d="M 292.0 177 a 10 10 0 0 0 10 -10 v -70 a 10 10 0 0 1 10 -10"></path><g class="terminal ">
<path d="M 312.0 87 h 4.25"></path><path d="M 370.25 87 h 4.25"></path><rect height="22" rx="10" ry="10" width="54.0" x="316.25" y="76"></rect><text x="343.25" y="91">"po"</text></g><path d="M 374.5 87 a 10 10 0 0 1 10 10 v 70 a 10 10 0 0 0 10 10"></path><path d="M 292.0 177 h 20"></path><g class="terminal ">
<path d="M 312.0 177 h 4.25"></path><path d="M 370.25 177 h 4.25"></path><rect height="22" rx="10" ry="10" width="54.0" x="316.25" y="166"></rect><text x="343.25" y="181">"pm"</text></g><path d="M 374.5 177 h 20"></path><path d="M 292.0 177 a 10 10 0 0 1 10 10 v 10 a 10 10 0 0 0 10 10"></path><g class="terminal ">
<path d="M 312.0 207 h 0.0"></path><path d="M 374.5 207 h 0.0"></path><rect height="22" rx="10" ry="10" width="62.5" x="312.0" y="196"></rect><text x="343.25" y="211">"pmc"</text></g><path d="M 374.5 207 a 10 10 0 0 0 10 -10 v -10 a 10 10 0 0 1 10 -10"></path><path d="M 292.0 177 a 10 10 0 0 1 10 10 v 40 a 10 10 0 0 0 10 10"></path><g class="terminal ">
<path d="M 312.0 237 h 0.0"></path><path d="M 374.5 237 h 0.0"></path><rect height="22" rx="10" ry="10" width="62.5" x="312.0" y="226"></rect><text x="343.25" y="241">"pmr"</text></g><path d="M 374.5 237 a 10 10 0 0 0 10 -10 v -40 a 10 10 0 0 1 10 -10"></path><path d="M 292.0 177 a 10 10 0 0 1 10 10 v 70 a 10 10 0 0 0 10 10"></path><g class="terminal ">
<path d="M 312.0 267 h 4.25"></path><path d="M 370.25 267 h 4.25"></path><rect height="22" rx="10" ry="10" width="54.0" x="316.25" y="256"></rect><text x="343.25" y="271">"ph"</text></g><path d="M 374.5 267 a 10 10 0 0 0 10 -10 v -70 a 10 10 0 0 1 10 -10"></path><path d="M 292.0 177 a 10 10 0 0 1 10 10 v 100 a 10 10 0 0 0 10 10"></path><g class="terminal ">
<path d="M 312.0 297 h 0.0"></path><path d="M 374.5 297 h 0.0"></path><rect height="22" rx="10" ry="10" width="62.5" x="312.0" y="286"></rect><text x="343.25" y="301">"ph1"</text></g><path d="M 374.5 297 a 10 10 0 0 0 10 -10 v -100 a 10 10 0 0 1 10 -10"></path><path d="M 292.0 177 a 10 10 0 0 1 10 10 v 130 a 10 10 0 0 0 10 10"></path><g class="terminal ">
<path d="M 312.0 327 h 0.0"></path><path d="M 374.5 327 h 0.0"></path><rect height="22" rx="10" ry="10" width="62.5" x="312.0" y="316"></rect><text x="343.25" y="331">"ph2"</text></g><path d="M 374.5 327 a 10 10 0 0 0 10 -10 v -130 a 10 10 0 0 1 10 -10"></path><path d="M 292.0 177 a 10 10 0 0 1 10 10 v 160 a 10 10 0 0 0 10 10"></path><g class="terminal ">
<path d="M 312.0 357 h 0.0"></path><path d="M 374.5 357 h 0.0"></path><rect height="22" rx="10" ry="10" width="62.5" x="312.0" y="346"></rect><text x="343.25" y="361">"ph3"</text></g><path d="M 374.5 357 a 10 10 0 0 0 10 -10 v -160 a 10 10 0 0 1 10 -10"></path><path d="M 292.0 177 a 10 10 0 0 1 10 10 v 190 a 10 10 0 0 0 10 10"></path><g class="terminal ">
<path d="M 312.0 387 h 8.5"></path><path d="M 366.0 387 h 8.5"></path><rect height="22" rx="10" ry="10" width="45.5" x="320.5" y="376"></rect><text x="343.25" y="391">"q"</text></g><path d="M 374.5 387 a 10 10 0 0 0 10 -10 v -190 a 10 10 0 0 1 10 -10"></path><path d="M 292.0 177 a 10 10 0 0 1 10 10 v 220 a 10 10 0 0 0 10 10"></path><g class="terminal ">
<path d="M 312.0 417 h 4.25"></path><path d="M 370.25 417 h 4.25"></path><rect height="22" rx="10" ry="10" width="54.0" x="316.25" y="406"></rect><text x="343.25" y="421">"q1"</text></g><path d="M 374.5 417 a 10 10 0 0 0 10 -10 v -220 a 10 10 0 0 1 10 -10"></path><path d="M 292.0 177 a 10 10 0 0 1 10 10 v 250 a 10 10 0 0 0 10 10"></path><g class="terminal ">
<path d="M 312.0 447 h 4.25"></path><path d="M 370.25 447 h 4.25"></path><rect height="22" rx="10" ry="10" width="54.0" x="316.25" y="436"></rect><text x="343.25" y="451">"q2"</text></g><path d="M 374.5 447 a 10 10 0 0 0 10 -10 v -250 a 10 10 0 0 1 10 -10"></path><path d="M 292.0 177 a 10 10 0 0 1 10 10 v 280 a 10 10 0 0 0 10 10"></path><g class="terminal ">
<path d="M 312.0 477 h 4.25"></path><path d="M 370.25 477 h 4.25"></path><rect height="22" rx="10" ry="10" width="54.0" x="316.25" y="466"></rect><text x="343.25" y="481">"q3"</text></g><path d="M 374.5 477 a 10 10 0 0 0 10 -10 v -280 a 10 10 0 0 1 10 -10"></path><path d="M 292.0 177 a 10 10 0 0 1 10 10 v 310 a 10 10 0 0 0 10 10"></path><g class="terminal ">
<path d="M 312.0 507 h 4.25"></path><path d="M 370.25 507 h 4.25"></path><rect height="22" rx="10" ry="10" width="54.0" x="316.25" y="496"></rect><text x="343.25" y="511">"q4"</text></g><path d="M 374.5 507 a 10 10 0 0 0 10 -10 v -310 a 10 10 0 0 1 10 -10"></path></g><path d="M 394.5 177 a 10 10 0 0 1 10 10 v 329 a 10 10 0 0 0 10 10"></path><path d="M 394.5 68 a 10 10 0 0 1 10 10 v 89 a 10 10 0 0 0 10 10"></path><g>
<path d="M 414.5 177 h 0.0"></path><path d="M 517.0 177 h 0.0"></path><path d="M 414.5 177 a 10 10 0 0 0 10 -10 v -10 a 10 10 0 0 1 10 -10"></path><g class="terminal ">
<path d="M 434.5 147 h 4.25"></path><path d="M 492.75 147 h 4.25"></path><rect height="22" rx="10" ry="10" width="54.0" x="438.75" y="136"></rect><text x="465.75" y="151">"qr"</text></g><path d="M 497.0 147 a 10 10 0 0 1 10 10 v 10 a 10 10 0 0 0 10 10"></path><path d="M 414.5 177 a 10 10 0 0 0 10 -10 v -40 a 10 10 0 0 1 10 -10"></path><g class="terminal ">
<path d="M 434.5 117 h 4.25"></path><path d="M 492.75 117 h 4.25"></path><rect height="22" rx="10" ry="10" width="54.0" x="438.75" y="106"></rect><text x="465.75" y="121">"qc"</text></g><path d="M 497.0 117 a 10 10 0 0 1 10 10 v 40 a 10 10 0 0 0 10 10"></path><path d="M 414.5 177 a 10 10 0 0 0 10 -10 v -70 a 10 10 0 0 1 10 -10"></path><g class="terminal ">
<path d="M 434.5 87 h 4.25"></path><path d="M 492.75 87 h 4.25"></path><rect height="22" rx="10" ry="10" width="54.0" x="438.75" y="76"></rect><text x="465.75" y="91">"qa"</text></g><path d="M 497.0 87 a 10 10 0 0 1 10 10 v 70 a 10 10 0 0 0 10 10"></path><path d="M 414.5 177 h 20"></path><g class="terminal ">
<path d="M 434.5 177 h 4.25"></path><path d="M 492.75 177 h 4.25"></path><rect height="22" rx="10" ry="10" width="54.0" x="438.75" y="166"></rect><text x="465.75" y="181">"qm"</text></g><path d="M 497.0 177 h 20"></path><path d="M 414.5 177 a 10 10 0 0 1 10 10 v 10 a 10 10 0 0 0 10 10"></path><g class="terminal ">
<path d="M 434.5 207 h 0.0"></path><path d="M 497.0 207 h 0.0"></path><rect height="22" rx="10" ry="10" width="62.5" x="434.5" y="196"></rect><text x="465.75" y="211">"qm1"</text></g><path d="M 497.0 207 a 10 10 0 0 0 10 -10 v -10 a 10 10 0 0 1 10 -10"></path><path d="M 414.5 177 a 10 10 0 0 1 10 10 v 40 a 10 10 0 0 0 10 10"></path><g class="terminal ">
<path d="M 434.5 237 h 0.0"></path><path d="M 497.0 237 h 0.0"></path><rect height="22" rx="10" ry="10" width="62.5" x="434.5" y="226"></rect><text x="465.75" y="241">"qm2"</text></g><path d="M 497.0 237 a 10 10 0 0 0 10 -10 v -40 a 10 10 0 0 1 10 -10"></path><path d="M 414.5 177 a 10 10 0 0 1 10 10 v 70 a 10 10 0 0 0 10 10"></path><g class="terminal ">
<path d="M 434.5 267 h 0.0"></path><path d="M 497.0 267 h 0.0"></path><rect height="22" rx="10" ry="10" width="62.5" x="434.5" y="256"></rect><text x="465.75" y="271">"qm3"</text></g><path d="M 497.0 267 a 10 10 0 0 0 10 -10 v -70 a 10 10 0 0 1 10 -10"></path><path d="M 414.5 177 a 10 10 0 0 1 10 10 v 100 a 10 10 0 0 0 10 10"></path><g class="terminal ">
<path d="M 434.5 297 h 4.25"></path><path d="M 492.75 297 h 4.25"></path><rect height="22" rx="10" ry="10" width="54.0" x="438.75" y="286"></rect><text x="465.75" y="301">"qd"</text></g><path d="M 497.0 297 a 10 10 0 0 0 10 -10 v -100 a 10 10 0 0 1 10 -10"></path><path d="M 414.5 177 a 10 10 0 0 1 10 10 v 130 a 10 10 0 0 0 10 10"></path><g class="terminal ">
<path d="M 434.5 327 h 8.5"></path><path d="M 488.5 327 h 8.5"></path><rect height="22" rx="10" ry="10" width="45.5" x="443.0" y="316"></rect><text x="465.75" y="331">"b"</text></g><path d="M 497.0 327 a 10 10 0 0 0 10 -10 v -130 a 10 10 0 0 1 10 -10"></path><path d="M 414.5 177 a 10 10 0 0 1 10 10 v 160 a 10 10 0 0 0 10 10"></path><g class="terminal ">
<path d="M 434.5 357 h 8.5"></path><path d="M 488.5 357 h 8.5"></path><rect height="22" rx="10" ry="10" width="45.5" x="443.0" y="346"></rect><text x="465.75" y="361">"d"</text></g><path d="M 497.0 357 a 10 10 0 0 0 10 -10 v -160 a 10 10 0 0 1 10 -10"></path><path d="M 414.5 177 a 10 10 0 0 1 10 10 v 190 a 10 10 0 0 0 10 10"></path><g class="terminal ">
<path d="M 434.5 387 h 4.25"></path><path d="M 492.75 387 h 4.25"></path><rect height="22" rx="10" ry="10" width="54.0" x="438.75" y="376"></rect><text x="465.75" y="391">"ms"</text></g><path d="M 497.0 387 a 10 10 0 0 0 10 -10 v -190 a 10 10 0 0 1 10 -10"></path><path d="M 414.5 177 a 10 10 0 0 1 10 10 v 220 a 10 10 0 0 0 10 10"></path><g class="terminal ">
<path d="M 434.5 417 h 0.0"></path><path d="M 497.0 417 h 0.0"></path><rect height="22" rx="10" ry="10" width="62.5" x="434.5" y="406"></rect><text x="465.75" y="421">"ms1"</text></g><path d="M 497.0 417 a 10 10 0 0 0 10 -10 v -220 a 10 10 0 0 1 10 -10"></path><path d="M 414.5 177 a 10 10 0 0 1 10 10 v 250 a 10 10 0 0 0 10 10"></path><g class="terminal ">
<path d="M 434.5 447 h 0.0"></path><path d="M 497.0 447 h 0.0"></path><rect height="22" rx="10" ry="10" width="62.5" x="434.5" y="436"></rect><text x="465.75" y="451">"ms2"</text></g><path d="M 497.0 447 a 10 10 0 0 0 10 -10 v -250 a 10 10 0 0 1 10 -10"></path><path d="M 414.5 177 a 10 10 0 0 1 10 10 v 280 a 10 10 0 0 0 10 10"></path><g class="terminal ">
<path d="M 434.5 477 h 0.0"></path><path d="M 497.0 477 h 0.0"></path><rect height="22" rx="10" ry="10" width="62.5" x="434.5" y="466"></rect><text x="465.75" y="481">"ms3"</text></g><path d="M 497.0 477 a 10 10 0 0 0 10 -10 v -280 a 10 10 0 0 1 10 -10"></path><path d="M 414.5 177 a 10 10 0 0 1 10 10 v 310 a 10 10 0 0 0 10 10"></path><g class="terminal ">
<path d="M 434.5 507 h 4.25"></path><path d="M 492.75 507 h 4.25"></path><rect height="22" rx="10" ry="10" width="54.0" x="438.75" y="496"></rect><text x="465.75" y="511">"mr"</text></g><path d="M 497.0 507 a 10 10 0 0 0 10 -10 v -310 a 10 10 0 0 1 10 -10"></path></g><path d="M 517.0 177 a 10 10 0 0 1 10 10 v 329 a 10 10 0 0 0 10 10"></path><path d="M 517.0 68 a 10 10 0 0 1 10 10 v 89 a 10 10 0 0 0 10 10"></path><g>
<path d="M 537.0 177 h 0.0"></path><path d="M 639.5 177 h 0.0"></path><path d="M 537.0 177 a 10 10 0 0 0 10 -10 v -10 a 10 10 0 0 1 10 -10"></path><g class="terminal ">
<path d="M 557.0 147 h 4.25"></path><path d="M 615.25 147 h 4.25"></path><rect height="22" rx="10" ry="10" width="54.0" x="561.25" y="136"></rect><text x="588.25" y="151">"s1"</text></g><path d="M 619.5 147 a 10 10 0 0 1 10 10 v 10 a 10 10 0 0 0 10 10"></path><path d="M 537.0 177 a 10 10 0 0 0 10 -10 v -40 a 10 10 0 0 1 10 -10"></path><g class="terminal ">
<path d="M 557.0 117 h 8.5"></path><path d="M 611.0 117 h 8.5"></path><rect height="22" rx="10" ry="10" width="45.5" x="565.5" y="106"></rect><text x="588.25" y="121">"s"</text></g><path d="M 619.5 117 a 10 10 0 0 1 10 10 v 40 a 10 10 0 0 0 10 10"></path><path d="M 537.0 177 a 10 10 0 0 0 10 -10 v -70 a 10 10 0 0 1 10 -10"></path><g class="terminal ">
<path d="M 557.0 87 h 8.5"></path><path d="M 611.0 87 h 8.5"></path><rect height="22" rx="10" ry="10" width="45.5" x="565.5" y="76"></rect><text x="588.25" y="91">"r"</text></g><path d="M 619.5 87 a 10 10 0 0 1 10 10 v 70 a 10 10 0 0 0 10 10"></path><path d="M 537.0 177 h 20"></path><g class="terminal ">
<path d="M 557.0 177 h 4.25"></path><path d="M 615.25 177 h 4.25"></path><rect height="22" rx="10" ry="10" width="54.0" x="561.25" y="166"></rect><text x="588.25" y="181">"s2"</text></g><path d="M 619.5 177 h 20"></path><path d="M 537.0 177 a 10 10 0 0 1 10 10 v 10 a 10 10 0 0 0 10 10"></path><g class="terminal ">
<path d="M 557.0 207 h 4.25"></path><path d="M 615.25 207 h 4.25"></path><rect height="22" rx="10" ry="10" width="54.0" x="561.25" y="196"></rect><text x="588.25" y="211">"s3"</text></g><path d="M 619.5 207 a 10 10 0 0 0 10 -10 v -10 a 10 10 0 0 1 10 -10"></path><path d="M 537.0 177 a 10 10 0 0 1 10 10 v 40 a 10 10 0 0 0 10 10"></path><g class="terminal ">
<path d="M 557.0 237 h 4.25"></path><path d="M 615.25 237 h 4.25"></path><rect height="22" rx="10" ry="10" width="54.0" x="561.25" y="226"></rect><text x="588.25" y="241">"s4"</text></g><path d="M 619.5 237 a 10 10 0 0 0 10 -10 v -40 a 10 10 0 0 1 10 -10"></path><path d="M 537.0 177 a 10 10 0 0 1 10 10 v 70 a 10 10 0 0 0 10 10"></path><g class="terminal ">
<path d="M 557.0 267 h 4.25"></path><path d="M 615.25 267 h 4.25"></path><rect height="22" rx="10" ry="10" width="54.0" x="561.25" y="256"></rect><text x="588.25" y="271">"sr"</text></g><path d="M 619.5 267 a 10 10 0 0 0 10 -10 v -70 a 10 10 0 0 1 10 -10"></path><path d="M 537.0 177 a 10 10 0 0 1 10 10 v 100 a 10 10 0 0 0 10 10"></path><g class="terminal ">
<path d="M 557.0 297 h 4.25"></path><path d="M 615.25 297 h 4.25"></path><rect height="22" rx="10" ry="10" width="54.0" x="561.25" y="286"></rect><text x="588.25" y="301">"sp"</text></g><path d="M 619.5 297 a 10 10 0 0 0 10 -10 v -100 a 10 10 0 0 1 10 -10"></path><path d="M 537.0 177 a 10 10 0 0 1 10 10 v 130 a 10 10 0 0 0 10 10"></path><g class="terminal ">
<path d="M 557.0 327 h 4.25"></path><path d="M 615.25 327 h 4.25"></path><rect height="22" rx="10" ry="10" width="54.0" x="561.25" y="316"></rect><text x="588.25" y="331">"sd"</text></g><path d="M 619.5 327 a 10 10 0 0 0 10 -10 v -130 a 10 10 0 0 1 10 -10"></path><path d="M 537.0 177 a 10 10 0 0 1 10 10 v 160 a 10 10 0 0 0 10 10"></path><g class="terminal ">
<path d="M 557.0 357 h 0.0"></path><path d="M 619.5 357 h 0.0"></path><rect height="22" rx="10" ry="10" width="62.5" x="557.0" y="346"></rect><text x="588.25" y="361">"sd1"</text></g><path d="M 619.5 357 a 10 10 0 0 0 10 -10 v -160 a 10 10 0 0 1 10 -10"></path><path d="M 537.0 177 a 10 10 0 0 1 10 10 v 190 a 10 10 0 0 0 10 10"></path><g class="terminal ">
<path d="M 557.0 387 h 0.0"></path><path d="M 619.5 387 h 0.0"></path><rect height="22" rx="10" ry="10" width="62.5" x="557.0" y="376"></rect><text x="588.25" y="391">"sd2"</text></g><path d="M 619.5 387 a 10 10 0 0 0 10 -10 v -190 a 10 10 0 0 1 10 -10"></path><path d="M 537.0 177 a 10 10 0 0 1 10 10 v 220 a 10 10 0 0 0 10 10"></path><g class="terminal ">
<path d="M 557.0 417 h 0.0"></path><path d="M 619.5 417 h 0.0"></path><rect height="22" rx="10" ry="10" width="62.5" x="557.0" y="406"></rect><text x="588.25" y="421">"sd3"</text></g><path d="M 619.5 417 a 10 10 0 0 0 10 -10 v -220 a 10 10 0 0 1 10 -10"></path><path d="M 537.0 177 a 10 10 0 0 1 10 10 v 250 a 10 10 0 0 0 10 10"></path><g class="terminal ">
<path d="M 557.0 447 h 0.0"></path><path d="M 619.5 447 h 0.0"></path><rect height="22" rx="10" ry="10" width="62.5" x="557.0" y="436"></rect><text x="588.25" y="451">"sd4"</text></g><path d="M 619.5 447 a 10 10 0 0 0 10 -10 v -250 a 10 10 0 0 1 10 -10"></path><path d="M 537.0 177 a 10 10 0 0 1 10 10 v 280 a 10 10 0 0 0 10 10"></path><g class="terminal ">
<path d="M 557.0 477 h 4.25"></path><path d="M 615.25 477 h 4.25"></path><rect height="22" rx="10" ry="10" width="54.0" x="561.25" y="466"></rect><text x="588.25" y="481">"ts"</text></g><path d="M 619.5 477 a 10 10 0 0 0 10 -10 v -280 a 10 10 0 0 1 10 -10"></path><path d="M 537.0 177 a 10 10 0 0 1 10 10 v 310 a 10 10 0 0 0 10 10"></path><g class="terminal ">
<path d="M 557.0 507 h 4.25"></path><path d="M 615.25 507 h 4.25"></path><rect height="22" rx="10" ry="10" width="54.0" x="561.25" y="496"></rect><text x="588.25" y="511">"cp"</text></g><path d="M 619.5 507 a 10 10 0 0 0 10 -10 v -310 a 10 10 0 0 1 10 -10"></path></g><path d="M 639.5 177 a 10 10 0 0 1 10 10 v 329 a 10 10 0 0 0 10 10"></path><path d="M 639.5 68 a 10 10 0 0 1 10 10 v 89 a 10 10 0 0 0 10 10"></path><g>
<path d="M 659.5 177 h 0.0"></path><path d="M 770.5 177 h 0.0"></path><path d="M 659.5 177 a 10 10 0 0 0 10 -10 v -10 a 10 10 0 0 1 10 -10"></path><g class="terminal ">
<path d="M 679.5 147 h 4.25"></path><path d="M 746.25 147 h 4.25"></path><rect height="22" rx="10" ry="10" width="62.5" x="683.75" y="136"></rect><text x="715.0" y="151">"mte"</text></g><path d="M 750.5 147 a 10 10 0 0 1 10 10 v 10 a 10 10 0 0 0 10 10"></path><path d="M 659.5 177 a 10 10 0 0 0 10 -10 v -40 a 10 10 0 0 1 10 -10"></path><g class="terminal ">
<path d="M 679.5 117 h 8.5"></path><path d="M 742.0 117 h 8.5"></path><rect height="22" rx="10" ry="10" width="54.0" x="688.0" y="106"></rect><text x="715.0" y="121">"cd"</text></g><path d="M 750.5 117 a 10 10 0 0 1 10 10 v 40 a 10 10 0 0 0 10 10"></path><path d="M 659.5 177 a 10 10 0 0 0 10 -10 v -70 a 10 10 0 0 1 10 -10"></path><g class="terminal ">
<path d="M 679.5 87 h 8.5"></path><path d="M 742.0 87 h 8.5"></path><rect height="22" rx="10" ry="10" width="54.0" x="688.0" y="76"></rect><text x="715.0" y="91">"cl"</text></g><path d="M 750.5 87 a 10 10 0 0 1 10 10 v 70 a 10 10 0 0 0 10 10"></path><path d="M 659.5 177 h 20"></path><g class="terminal ">
<path d="M 679.5 177 h 0.0"></path><path d="M 750.5 177 h 0.0"></path><rect height="22" rx="10" ry="10" width="71.0" x="679.5" y="166"></rect><text x="715.0" y="181">"mte1"</text></g><path d="M 750.5 177 h 20"></path><path d="M 659.5 177 a 10 10 0 0 1 10 10 v 10 a 10 10 0 0 0 10 10"></path><g class="terminal ">
<path d="M 679.5 207 h 0.0"></path><path d="M 750.5 207 h 0.0"></path><rect height="22" rx="10" ry="10" width="71.0" x="679.5" y="196"></rect><text x="715.0" y="211">"mte2"</text></g><path d="M 750.5 207 a 10 10 0 0 0 10 -10 v -10 a 10 10 0 0 1 10 -10"></path><path d="M 659.5 177 a 10 10 0 0 1 10 10 v 40 a 10 10 0 0 0 10 10"></path><g class="terminal ">
<path d="M 679.5 237 h 12.75"></path><path d="M 737.75 237 h 12.75"></path><rect height="22" rx="10" ry="10" width="45.5" x="692.25" y="226"></rect><text x="715.0" y="241">"p"</text></g><path d="M 750.5 237 a 10 10 0 0 0 10 -10 v -40 a 10 10 0 0 1 10 -10"></path><path d="M 659.5 177 a 10 10 0 0 1 10 10 v 70 a 10 10 0 0 0 10 10"></path><g class="terminal ">
<path d="M 679.5 267 h 8.5"></path><path d="M 742.0 267 h 8.5"></path><rect height="22" rx="10" ry="10" width="54.0" x="688.0" y="256"></rect><text x="715.0" y="271">"p1"</text></g><path d="M 750.5 267 a 10 10 0 0 0 10 -10 v -70 a 10 10 0 0 1 10 -10"></path><path d="M 659.5 177 a 10 10 0 0 1 10 10 v 100 a 10 10 0 0 0 10 10"></path><g class="terminal ">
<path d="M 679.5 297 h 8.5"></path><path d="M 742.0 297 h 8.5"></path><rect height="22" rx="10" ry="10" width="54.0" x="688.0" y="286"></rect><text x="715.0" y="301">"p2"</text></g><path d="M 750.5 297 a 10 10 0 0 0 10 -10 v -100 a 10 10 0 0 1 10 -10"></path><path d="M 659.5 177 a 10 10 0 0 1 10 10 v 130 a 10 10 0 0 0 10 10"></path><g class="terminal ">
<path d="M 679.5 327 h 8.5"></path><path d="M 742.0 327 h 8.5"></path><rect height="22" rx="10" ry="10" width="54.0" x="688.0" y="316"></rect><text x="715.0" y="331">"k1"</text></g><path d="M 750.5 327 a 10 10 0 0 0 10 -10 v -130 a 10 10 0 0 1 10 -10"></path><path d="M 659.5 177 a 10 10 0 0 1 10 10 v 160 a 10 10 0 0 0 10 10"></path><g class="terminal ">
<path d="M 679.5 357 h 8.5"></path><path d="M 742.0 357 h 8.5"></path><rect height="22" rx="10" ry="10" width="54.0" x="688.0" y="346"></rect><text x="715.0" y="361">"k2"</text></g><path d="M 750.5 357 a 10 10 0 0 0 10 -10 v -160 a 10 10 0 0 1 10 -10"></path><path d="M 659.5 177 a 10 10 0 0 1 10 10 v 190 a 10 10 0 0 0 10 10"></path><g class="terminal ">
<path d="M 679.5 387 h 4.25"></path><path d="M 746.25 387 h 4.25"></path><rect height="22" rx="10" ry="10" width="62.5" x="683.75" y="376"></rect><text x="715.0" y="391">"rem"</text></g><path d="M 750.5 387 a 10 10 0 0 0 10 -10 v -190 a 10 10 0 0 1 10 -10"></path></g><path d="M 770.5 177 h 10"></path></g></g><g class="non-terminal ">
<path d="M 60.0 52 h 0.0"></path><path d="M 77.0 52 h 0.0"></path><text class="comment" x="68.5" y="57">➊</text></g></g><path d="M 790.5 177 h 10"></path><path d="M 800.5 177 h 10"></path><g>
<path d="M 810.5 177 h 0.0"></path><path d="M 1057.0 177 h 0.0"></path><path d="M 810.5 177 h 10"></path><g>
<path d="M 820.5 177 h 0.0"></path><path d="M 1047.0 177 h 0.0"></path><path d="M 820.5 177 h 20"></path><g class="non-terminal ">
<path d="M 840.5 177 h 45.0"></path><path d="M 982.0 177 h 45.0"></path><rect height="22" width="96.5" x="885.5" y="166"></rect><text x="933.75" y="181">Reference</text></g><path d="M 1027.0 177 h 20"></path><path d="M 820.5 177 a 10 10 0 0 1 10 10 v 10 a 10 10 0 0 0 10 10"></path><g class="non-terminal ">
<path d="M 840.5 207 h 49.25"></path><path d="M 977.75 207 h 49.25"></path><rect height="22" width="88.0" x="889.75" y="196"></rect><text x="933.75" y="211">Footnote</text></g><path d="M 1027.0 207 a 10 10 0 0 0 10 -10 v -10 a 10 10 0 0 1 10 -10"></path><path d="M 820.5 177 a 10 10 0 0 1 10 10 v 40 a 10 10 0 0 0 10 10"></path><g class="non-terminal ">
<path d="M 840.5 237 h 23.75"></path><path d="M 1003.25 237 h 23.75"></path><rect height="22" width="139.0" x="864.25" y="226"></rect><text x="933.75" y="241">CrossReference</text></g><path d="M 1027.0 237 a 10 10 0 0 0 10 -10 v -40 a 10 10 0 0 1 10 -10"></path><path d="M 820.5 177 a 10 10 0 0 1 10 10 v 70 a 10 10 0 0 0 10 10"></path><g class="non-terminal ">
<path d="M 840.5 267 h 66.25"></path><path d="M 960.75 267 h 66.25"></path><rect height="22" width="54.0" x="906.75" y="256"></rect><text x="933.75" y="271">Char</text></g><path d="M 1027.0 267 a 10 10 0 0 0 10 -10 v -70 a 10 10 0 0 1 10 -10"></path><path d="M 820.5 177 a 10 10 0 0 1 10 10 v 100 a 10 10 0 0 0 10 10"></path><g class="non-terminal ">
<path d="M 840.5 297 h 45.0"></path><path d="M 982.0 297 h 45.0"></path><rect height="22" width="96.5" x="885.5" y="286"></rect><text x="933.75" y="301">Milestone</text></g><path d="M 1027.0 297 a 10 10 0 0 0 10 -10 v -100 a 10 10 0 0 1 10 -10"></path><path d="M 820.5 177 a 10 10 0 0 1 10 10 v 130 a 10 10 0 0 0 10 10"></path><g class="non-terminal ">
<path d="M 840.5 327 h 57.75"></path><path d="M 969.25 327 h 57.75"></path><rect height="22" width="71.0" x="898.25" y="316"></rect><text x="933.75" y="331">Figure</text></g><path d="M 1027.0 327 a 10 10 0 0 0 10 -10 v -130 a 10 10 0 0 1 10 -10"></path><path d="M 820.5 177 a 10 10 0 0 1 10 10 v 160 a 10 10 0 0 0 10 10"></path><g class="non-terminal ">
<path d="M 840.5 357 h 62.0"></path><path d="M 965.0 357 h 62.0"></path><rect height="22" width="62.5" x="902.5" y="346"></rect><text x="933.75" y="361">Verse</text></g><path d="M 1027.0 357 a 10 10 0 0 0 10 -10 v -160 a 10 10 0 0 1 10 -10"></path><path d="M 820.5 177 a 10 10 0 0 1 10 10 v 214 a 10 10 0 0 0 10 10"></path><g>
<path d="M 840.5 411 h 0.0"></path><path d="M 1027.0 411 h 0.0"></path><rect class="group-box" height="68" rx="10" ry="10" width="186.5" x="840.5" y="392"></rect><g>
<path d="M 840.5 411 h 10.0"></path><path d="M 1017.0 411 h 10.0"></path><g class="terminal ">
<path d="M 850.5 411 h 0.0"></path><path d="M 904.5 411 h 0.0"></path><rect height="22" rx="10" ry="10" width="54.0" x="850.5" y="400"></rect><text x="877.5" y="415">"\b"</text></g><path d="M 904.5 411 h 10"></path><g>
<path d="M 914.5 411 h 0.0"></path><path d="M 1017.0 411 h 0.0"></path><path d="M 914.5 411 h 20"></path><g class="terminal ">
<path d="M 934.5 411 h 0.0"></path><path d="M 997.0 411 h 0.0"></path><rect height="22" rx="10" ry="10" width="62.5" x="934.5" y="400"></rect><text x="965.75" y="415">⇒ "\"</text></g><path d="M 997.0 411 h 20"></path><path d="M 914.5 411 a 10 10 0 0 1 10 10 v 10 a 10 10 0 0 0 10 10"></path><g class="terminal ">
<path d="M 934.5 441 h 12.75"></path><path d="M 984.25 441 h 12.75"></path><rect height="22" rx="10" ry="10" width="37.0" x="947.25" y="430"></rect><text x="965.75" y="445">WS</text></g><path d="M 997.0 441 a 10 10 0 0 0 10 -10 v -10 a 10 10 0 0 1 10 -10"></path></g></g><g class="non-terminal ">
<path d="M 840.5 384 h 0.0"></path><path d="M 885.5 384 h 0.0"></path><text class="comment" x="863.0" y="389">Break</text></g></g><path d="M 1027.0 411 a 10 10 0 0 0 10 -10 v -214 a 10 10 0 0 1 10 -10"></path><path d="M 820.5 177 a 10 10 0 0 1 10 10 v 291 a 10 10 0 0 0 10 10"></path><g>
<path d="M 840.5 488 h 17.75"></path><path d="M 1009.25 488 h 17.75"></path><path d="M 858.25 488 a 10 10 0 0 0 10 -10 v 0 a 10 10 0 0 1 10 -10"></path><g>
<path d="M 878.25 468 h 111.0"></path></g><path d="M 989.25 468 a 10 10 0 0 1 10 10 v 0 a 10 10 0 0 0 10 10"></path><path d="M 858.25 488 h 20"></path><g>
<path d="M 878.25 488 h 0.0"></path><path d="M 989.25 488 h 0.0"></path><g class="terminal ">
<path d="M 878.25 488 h 0.0"></path><path d="M 915.25 488 h 0.0"></path><rect height="22" rx="10" ry="10" width="37.0" x="878.25" y="477"></rect><text x="896.75" y="492">WS</text></g><path d="M 915.25 488 h 10"></path><path d="M 925.25 488 h 10"></path><g class="terminal ">
<path d="M 935.25 488 h 0.0"></path><path d="M 989.25 488 h 0.0"></path><rect height="22" rx="10" ry="10" width="54.0" x="935.25" y="477"></rect><text x="962.25" y="492">Text</text></g></g><path d="M 989.25 488 h 20"></path></g><path d="M 1027.0 488 a 10 10 0 0 0 10 -10 v -291 a 10 10 0 0 1 10 -10"></path></g><path d="M 1047.0 177 h 10"></path><path d="M 820.5 177 a 10 10 0 0 0 -10 10 v 310 a 10 10 0 0 0 10 10"></path><g>
<path d="M 820.5 507 h 226.5"></path></g><path d="M 1047.0 507 a 10 10 0 0 0 10 -10 v -310 a 10 10 0 0 0 -10 -10"></path></g><path d="M 1057.0 177 h 10"></path><g>
<path d="M 1067.0 177 h 0.0"></path><path d="M 1218.0 177 h 0.0"></path><path d="M 1067.0 177 a 10 10 0 0 0 10 -10 v 0 a 10 10 0 0 1 10 -10"></path><g>
<path d="M 1087.0 157 h 111.0"></path></g><path d="M 1198.0 157 a 10 10 0 0 1 10 10 v 0 a 10 10 0 0 0 10 10"></path><path d="M 1067.0 177 h 20"></path><g>
<path d="M 1087.0 177 h 0.0"></path><path d="M 1198.0 177 h 0.0"></path><g class="terminal ">
<path d="M 1087.0 177 h 0.0"></path><path d="M 1132.5 177 h 0.0"></path><rect height="22" rx="10" ry="10" width="45.5" x="1087.0" y="166"></rect><text x="1109.75" y="181">⇐ ➊</text></g><path d="M 1132.5 177 h 10"></path><path d="M 1142.5 177 h 10"></path><g class="terminal ">
<path d="M 1152.5 177 h 0.0"></path><path d="M 1198.0 177 h 0.0"></path><rect height="22" rx="10" ry="10" width="45.5" x="1152.5" y="166"></rect><text x="1175.25" y="181">"&#42;"</text></g></g><path d="M 1198.0 177 h 20"></path></g></g><g class="non-terminal ">
<path d="M 50.0 28 h 0.0"></path><path d="M 88.0 28 h 0.0"></path><text class="comment" x="69.0" y="33">Para</text></g></g><path d="M 1228.0 177 h 10"></path><path d="M 1238.0 177 h 20 m 0 -10 v 20"></path></g></svg>