<svg class="railroad-diagram" height="550" viewBox="0 0 1669.5 550" width="1669.5" xmlns="http://www.w3.org/2000/svg" xmlns:xlink="http://www.w3.org/1999/xlink">
<g transform="translate(.5 .5)">
<style>/* <![CDATA[ */

    svg.railroad-diagram {
        background-color: hsl(30,20%,95%);
    }
    svg.railroad-diagram path {
        stroke-width: 2;
        stroke: black;
        fill: none;
    }
    svg.railroad-diagram text {
        font-size: 12px;
        text-anchor: middle;
        font-family: DejaVu Sans;
    }
    svg.railroad-diagram text.label {
        text-anchor:start;
    }
    svg.railroad-diagram text.comment {
        font-family: DejaVu Sans;
        font-size: 14px;
    }
    svg.railroad-diagram rect{
        stroke-width: 2;
        stroke: black;
        fill: rgb(210, 255, 210);
    }
    svg.railroad-diagram rect.group-box {
        stroke: gray;
        stroke-dasharray: 10 5;
        fill: none;
    }
    .terminal {
        font-family: DejaVu Sans;
    }
    svg.railroad-diagram g.altterminal rect {
        fill: rgb(251, 252, 207)
    }

/* ]]> */
</style><g>
<path d="M 20 153 v 20 m 0 -10 h 20"></path></g><path d="M 40 163 h 10"></path><g>
<path d="M 50 163 h 0.0"></path><path d="M 1619.5 163 h 0.0"></path><g>
<path d="M 50.0 163 h 0.0"></path><path d="M 747.5 163 h 0.0"></path><path d="M 50.0 163 h 20"></path><g class="terminal ">
<path d="M 70.0 163 h 293.25"></path><path d="M 434.25 163 h 293.25"></path><rect height="22" rx="10" ry="10" width="71.0" x="363.25" y="152"></rect><text x="398.75" y="167">'\n\\'</text></g><path d="M 727.5 163 h 20"></path><path d="M 50.0 163 a 10 10 0 0 1 10 10 v 10 a 10 10 0 0 0 10 10"></path><g class="terminal altterminal">
<path d="M 70.0 193 h 0.0"></path><path d="M 727.5 193 h 0.0"></path><rect height="22" rx="10" ry="10" width="657.5" x="70.0" y="182"></rect><text x="398.75" y="197">/&#91;\u0009-\u000D\u0020\u00A0\u1680\u2000-\u200B\u2028\u2029\u202F\u205F&#93;&#42;\\/</text></g><path d="M 727.5 193 a 10 10 0 0 0 10 -10 v -10 a 10 10 0 0 1 10 -10"></path></g><path d="M 747.5 163 h 10"></path><path d="M 757.5 163 h 10"></path><g>
<path d="M 767.5 163 h 0.0"></path><path d="M 1215.0 163 h 0.0"></path><rect class="group-box" height="494" rx="10" ry="10" width="447.5" x="767.5" y="36"></rect><g>
<path d="M 767.5 163 h 10.0"></path><path d="M 1205.0 163 h 10.0"></path><g>
<path d="M 777.5 163 h 0.0"></path><path d="M 1205.0 163 h 0.0"></path><path d="M 777.5 163 a 10 10 0 0 0 10 -10 v -99 a 10 10 0 0 1 10 -10 h 255.0"></path><path d="M 930.0 522 h 255.0 a 10 10 0 0 0 10 -10 v -339 a 10 10 0 0 1 10 -10"></path><path d="M 777.5 163 h 10"></path><g>
<path d="M 787.5 163 h 10.0"></path><path d="M 900.0 163 h 10.0"></path><path d="M 797.5 163 a 10 10 0 0 0 10 -10 v -10 a 10 10 0 0 1 10 -10"></path><g class="terminal ">
<path d="M 817.5 133 h 4.25"></path><path d="M 875.75 133 h 4.25"></path><rect height="22" rx="10" ry="10" width="54.0" x="821.75" y="122"></rect><text x="848.75" y="137">"nb"</text></g><path d="M 880.0 133 a 10 10 0 0 1 10 10 v 10 a 10 10 0 0 0 10 10"></path><path d="M 797.5 163 a 10 10 0 0 0 10 -10 v -40 a 10 10 0 0 1 10 -10"></path><g class="terminal ">
<path d="M 817.5 103 h 0.0"></path><path d="M 880.0 103 h 0.0"></path><rect height="22" rx="10" ry="10" width="62.5" x="817.5" y="92"></rect><text x="848.75" y="107">"lit"</text></g><path d="M 880.0 103 a 10 10 0 0 1 10 10 v 40 a 10 10 0 0 0 10 10"></path><path d="M 797.5 163 a 10 10 0 0 0 10 -10 v -70 a 10 10 0 0 1 10 -10"></path><g class="terminal ">
<path d="M 817.5 73 h 0.0"></path><path d="M 880.0 73 h 0.0"></path><rect height="22" rx="10" ry="10" width="62.5" x="817.5" y="62"></rect><text x="848.75" y="77">"cls"</text></g><path d="M 880.0 73 a 10 10 0 0 1 10 10 v 70 a 10 10 0 0 0 10 10"></path><path d="M 797.5 163 h 20"></path><g class="terminal ">
<path d="M 817.5 163 h 4.25"></path><path d="M 875.75 163 h 4.25"></path><rect height="22" rx="10" ry="10" width="54.0" x="821.75" y="152"></rect><text x="848.75" y="167">"pb"</text></g><path d="M 880.0 163 h 20"></path><path d="M 797.5 163 a 10 10 0 0 1 10 10 v 10 a 10 10 0 0 0 10 10"></path><g class="terminal ">
<path d="M 817.5 193 h 4.25"></path><path d="M 875.75 193 h 4.25"></path><rect height="22" rx="10" ry="10" width="54.0" x="821.75" y="182"></rect><text x="848.75" y="197">"pc"</text></g><path d="M 880.0 193 a 10 10 0 0 0 10 -10 v -10 a 10 10 0 0 1 10 -10"></path><path d="M 797.5 163 a 10 10 0 0 1 10 10 v 40 a 10 10 0 0 0 10 10"></path><g class="terminal ">
<path d="M 817.5 223 h 0.0"></path><path d="M 880.0 223 h 0.0"></path><rect height="22" rx="10" ry="10" width="62.5" x="817.5" y="212"></rect><text x="848.75" y="227">"pi1"</text></g><path d="M 880.0 223 a 10 10 0 0 0 10 -10 v -40 a 10 10 0 0 1 10 -10"></path><path d="M 797.5 163 a 10 10 0 0 1 10 10 v 70 a 10 10 0 0 0 10 10"></path><g class="terminal ">
<path d="M 817.5 253 h 0.0"></path><path d="M 880.0 253 h 0.0"></path><rect height="22" rx="10" ry="10" width="62.5" x="817.5" y="242"></rect><text x="848.75" y="257">"pi2"</text></g><path d="M 880.0 253 a 10 10 0 0 0 10 -10 v -70 a 10 10 0 0 1 10 -10"></path><path d="M 797.5 163 a 10 10 0 0 1 10 10 v 100 a 10 10 0 0 0 10 10"></path><g class="terminal ">
<path d="M 817.5 283 h 0.0"></path><path d="M 880.0 283 h 0.0"></path><rect height="22" rx="10" ry="10" width="62.5" x="817.5" y="272"></rect><text x="848.75" y="287">"pi3"</text></g><path d="M 880.0 283 a 10 10 0 0 0 10 -10 v -100 a 10 10 0 0 1 10 -10"></path><path d="M 797.5 163 a 10 10 0 0 1 10 10 v 130 a 10 10 0 0 0 10 10"></path><g class="terminal ">
<path d="M 817.5 313 h 4.25"></path><path d="M 875.75 313 h 4.25"></path><rect height="22" rx="10" ry="10" width="54.0" x="821.75" y="302"></rect><text x="848.75" y="317">"pi"</text></g><path d="M 880.0 313 a 10 10 0 0 0 10 -10 v -130 a 10 10 0 0 1 10 -10"></path><path d="M 797.5 163 a 10 10 0 0 1 10 10 v 160 a 10 10 0 0 0 10 10"></path><g class="terminal ">
<path d="M 817.5 343 h 4.25"></path><path d="M 875.75 343 h 4.25"></path><rect height="22" rx="10" ry="10" width="54.0" x="821.75" y="332"></rect><text x="848.75" y="347">"po"</text></g><path d="M 880.0 343 a 10 10 0 0 0 10 -10 v -160 a 10 10 0 0 1 10 -10"></path><path d="M 797.5 163 a 10 10 0 0 1 10 10 v 190 a 10 10 0 0 0 10 10"></path><g class="terminal ">
<path d="M 817.5 373 h 4.25"></path><path d="M 875.75 373 h 4.25"></path><rect height="22" rx="10" ry="10" width="54.0" x="821.75" y="362"></rect><text x="848.75" y="377">"pr"</text></g><path d="M 880.0 373 a 10 10 0 0 0 10 -10 v -190 a 10 10 0 0 1 10 -10"></path><path d="M 797.5 163 a 10 10 0 0 1 10 10 v 220 a 10 10 0 0 0 10 10"></path><g class="terminal ">
<path d="M 817.5 403 h 0.0"></path><path d="M 880.0 403 h 0.0"></path><rect height="22" rx="10" ry="10" width="62.5" x="817.5" y="392"></rect><text x="848.75" y="407">"pmo"</text></g><path d="M 880.0 403 a 10 10 0 0 0 10 -10 v -220 a 10 10 0 0 1 10 -10"></path><path d="M 797.5 163 a 10 10 0 0 1 10 10 v 250 a 10 10 0 0 0 10 10"></path><g class="terminal ">
<path d="M 817.5 433 h 0.0"></path><path d="M 880.0 433 h 0.0"></path><rect height="22" rx="10" ry="10" width="62.5" x="817.5" y="422"></rect><text x="848.75" y="437">"pmc"</text></g><path d="M 880.0 433 a 10 10 0 0 0 10 -10 v -250 a 10 10 0 0 1 10 -10"></path><path d="M 797.5 163 a 10 10 0 0 1 10 10 v 280 a 10 10 0 0 0 10 10"></path><g class="terminal ">
<path d="M 817.5 463 h 0.0"></path><path d="M 880.0 463 h 0.0"></path><rect height="22" rx="10" ry="10" width="62.5" x="817.5" y="452"></rect><text x="848.75" y="467">"pmr"</text></g><path d="M 880.0 463 a 10 10 0 0 0 10 -10 v -280 a 10 10 0 0 1 10 -10"></path><path d="M 797.5 163 a 10 10 0 0 1 10 10 v 310 a 10 10 0 0 0 10 10"></path><g class="terminal ">
<path d="M 817.5 493 h 4.25"></path><path d="M 875.75 493 h 4.25"></path><rect height="22" rx="10" ry="10" width="54.0" x="821.75" y="482"></rect><text x="848.75" y="497">"pm"</text></g><path d="M 880.0 493 a 10 10 0 0 0 10 -10 v -310 a 10 10 0 0 1 10 -10"></path></g><path d="M 910.0 163 a 10 10 0 0 1 10 10 v 339 a 10 10 0 0 0 10 10"></path><path d="M 910.0 44 a 10 10 0 0 1 10 10 v 99 a 10 10 0 0 0 10 10"></path><g>
<path d="M 930.0 163 h 10.0"></path><path d="M 1042.5 163 h 10.0"></path><path d="M 940.0 163 a 10 10 0 0 0 10 -10 v -10 a 10 10 0 0 1 10 -10"></path><g class="terminal ">
<path d="M 960.0 133 h 0.0"></path><path d="M 1022.5 133 h 0.0"></path><rect height="22" rx="10" ry="10" width="62.5" x="960.0" y="122"></rect><text x="991.25" y="137">"ph3"</text></g><path d="M 1022.5 133 a 10 10 0 0 1 10 10 v 10 a 10 10 0 0 0 10 10"></path><path d="M 940.0 163 a 10 10 0 0 0 10 -10 v -40 a 10 10 0 0 1 10 -10"></path><g class="terminal ">
<path d="M 960.0 103 h 0.0"></path><path d="M 1022.5 103 h 0.0"></path><rect height="22" rx="10" ry="10" width="62.5" x="960.0" y="92"></rect><text x="991.25" y="107">"ph2"</text></g><path d="M 1022.5 103 a 10 10 0 0 1 10 10 v 40 a 10 10 0 0 0 10 10"></path><path d="M 940.0 163 a 10 10 0 0 0 10 -10 v -70 a 10 10 0 0 1 10 -10"></path><g class="terminal ">
<path d="M 960.0 73 h 0.0"></path><path d="M 1022.5 73 h 0.0"></path><rect height="22" rx="10" ry="10" width="62.5" x="960.0" y="62"></rect><text x="991.25" y="77">"ph1"</text></g><path d="M 1022.5 73 a 10 10 0 0 1 10 10 v 70 a 10 10 0 0 0 10 10"></path><path d="M 940.0 163 h 20"></path><g class="terminal ">
<path d="M 960.0 163 h 4.25"></path><path d="M 1018.25 163 h 4.25"></path><rect height="22" rx="10" ry="10" width="54.0" x="964.25" y="152"></rect><text x="991.25" y="167">"ph"</text></g><path d="M 1022.5 163 h 20"></path><path d="M 940.0 163 a 10 10 0 0 1 10 10 v 10 a 10 10 0 0 0 10 10"></path><g class="terminal ">
<path d="M 960.0 193 h 4.25"></path><path d="M 1018.25 193 h 4.25"></path><rect height="22" rx="10" ry="10" width="54.0" x="964.25" y="182"></rect><text x="991.25" y="197">"p1"</text></g><path d="M 1022.5 193 a 10 10 0 0 0 10 -10 v -10 a 10 10 0 0 1 10 -10"></path><path d="M 940.0 163 a 10 10 0 0 1 10 10 v 40 a 10 10 0 0 0 10 10"></path><g class="terminal ">
<path d="M 960.0 223 h 4.25"></path><path d="M 1018.25 223 h 4.25"></path><rect height="22" rx="10" ry="10" width="54.0" x="964.25" y="212"></rect><text x="991.25" y="227">"p2"</text></g><path d="M 1022.5 223 a 10 10 0 0 0 10 -10 v -40 a 10 10 0 0 1 10 -10"></path><path d="M 940.0 163 a 10 10 0 0 1 10 10 v 70 a 10 10 0 0 0 10 10"></path><g class="terminal ">
<path d="M 960.0 253 h 8.5"></path><path d="M 1014.0 253 h 8.5"></path><rect height="22" rx="10" ry="10" width="45.5" x="968.5" y="242"></rect><text x="991.25" y="257">"p"</text></g><path d="M 1022.5 253 a 10 10 0 0 0 10 -10 v -70 a 10 10 0 0 1 10 -10"></path><path d="M 940.0 163 a 10 10 0 0 1 10 10 v 100 a 10 10 0 0 0 10 10"></path><g class="terminal ">
<path d="M 960.0 283 h 4.25"></path><path d="M 1018.25 283 h 4.25"></path><rect height="22" rx="10" ry="10" width="54.0" x="964.25" y="272"></rect><text x="991.25" y="287">"q1"</text></g><path d="M 1022.5 283 a 10 10 0 0 0 10 -10 v -100 a 10 10 0 0 1 10 -10"></path><path d="M 940.0 163 a 10 10 0 0 1 10 10 v 130 a 10 10 0 0 0 10 10"></path><g class="terminal ">
<path d="M 960.0 313 h 4.25"></path><path d="M 1018.25 313 h 4.25"></path><rect height="22" rx="10" ry="10" width="54.0" x="964.25" y="302"></rect><text x="991.25" y="317">"q2"</text></g><path d="M 1022.5 313 a 10 10 0 0 0 10 -10 v -130 a 10 10 0 0 1 10 -10"></path><path d="M 940.0 163 a 10 10 0 0 1 10 10 v 160 a 10 10 0 0 0 10 10"></path><g class="terminal ">
<path d="M 960.0 343 h 4.25"></path><path d="M 1018.25 343 h 4.25"></path><rect height="22" rx="10" ry="10" width="54.0" x="964.25" y="332"></rect><text x="991.25" y="347">"q3"</text></g><path d="M 1022.5 343 a 10 10 0 0 0 10 -10 v -160 a 10 10 0 0 1 10 -10"></path><path d="M 940.0 163 a 10 10 0 0 1 10 10 v 190 a 10 10 0 0 0 10 10"></path><g class="terminal ">
<path d="M 960.0 373 h 4.25"></path><path d="M 1018.25 373 h 4.25"></path><rect height="22" rx="10" ry="10" width="54.0" x="964.25" y="362"></rect><text x="991.25" y="377">"q4"</text></g><path d="M 1022.5 373 a 10 10 0 0 0 10 -10 v -190 a 10 10 0 0 1 10 -10"></path><path d="M 940.0 163 a 10 10 0 0 1 10 10 v 220 a 10 10 0 0 0 10 10"></path><g class="terminal ">
<path d="M 960.0 403 h 4.25"></path><path d="M 1018.25 403 h 4.25"></path><rect height="22" rx="10" ry="10" width="54.0" x="964.25" y="392"></rect><text x="991.25" y="407">"qa"</text></g><path d="M 1022.5 403 a 10 10 0 0 0 10 -10 v -220 a 10 10 0 0 1 10 -10"></path><path d="M 940.0 163 a 10 10 0 0 1 10 10 v 250 a 10 10 0 0 0 10 10"></path><g class="terminal ">
<path d="M 960.0 433 h 4.25"></path><path d="M 1018.25 433 h 4.25"></path><rect height="22" rx="10" ry="10" width="54.0" x="964.25" y="422"></rect><text x="991.25" y="437">"qc"</text></g><path d="M 1022.5 433 a 10 10 0 0 0 10 -10 v -250 a 10 10 0 0 1 10 -10"></path><path d="M 940.0 163 a 10 10 0 0 1 10 10 v 280 a 10 10 0 0 0 10 10"></path><g class="terminal ">
<path d="M 960.0 463 h 4.25"></path><path d="M 1018.25 463 h 4.25"></path><rect height="22" rx="10" ry="10" width="54.0" x="964.25" y="452"></rect><text x="991.25" y="467">"qr"</text></g><path d="M 1022.5 463 a 10 10 0 0 0 10 -10 v -280 a 10 10 0 0 1 10 -10"></path><path d="M 940.0 163 a 10 10 0 0 1 10 10 v 310 a 10 10 0 0 0 10 10"></path><g class="terminal ">
<path d="M 960.0 493 h 0.0"></path><path d="M 1022.5 493 h 0.0"></path><rect height="22" rx="10" ry="10" width="62.5" x="960.0" y="482"></rect><text x="991.25" y="497">"qm1"</text></g><path d="M 1022.5 493 a 10 10 0 0 0 10 -10 v -310 a 10 10 0 0 1 10 -10"></path></g><path d="M 1052.5 163 a 10 10 0 0 1 10 10 v 339 a 10 10 0 0 0 10 10"></path><path d="M 1052.5 44 a 10 10 0 0 1 10 10 v 99 a 10 10 0 0 0 10 10"></path><g>
<path d="M 1072.5 163 h 10.0"></path><path d="M 1185.0 163 h 10.0"></path><path d="M 1082.5 163 a 10 10 0 0 0 10 -10 v -10 a 10 10 0 0 1 10 -10"></path><g class="terminal ">
<path d="M 1102.5 133 h 4.25"></path><path d="M 1160.75 133 h 4.25"></path><rect height="22" rx="10" ry="10" width="54.0" x="1106.75" y="122"></rect><text x="1133.75" y="137">"qm"</text></g><path d="M 1165.0 133 a 10 10 0 0 1 10 10 v 10 a 10 10 0 0 0 10 10"></path><path d="M 1082.5 163 a 10 10 0 0 0 10 -10 v -40 a 10 10 0 0 1 10 -10"></path><g class="terminal ">
<path d="M 1102.5 103 h 0.0"></path><path d="M 1165.0 103 h 0.0"></path><rect height="22" rx="10" ry="10" width="62.5" x="1102.5" y="92"></rect><text x="1133.75" y="107">"qm3"</text></g><path d="M 1165.0 103 a 10 10 0 0 1 10 10 v 40 a 10 10 0 0 0 10 10"></path><path d="M 1082.5 163 a 10 10 0 0 0 10 -10 v -70 a 10 10 0 0 1 10 -10"></path><g class="terminal ">
<path d="M 1102.5 73 h 0.0"></path><path d="M 1165.0 73 h 0.0"></path><rect height="22" rx="10" ry="10" width="62.5" x="1102.5" y="62"></rect><text x="1133.75" y="77">"qm2"</text></g><path d="M 1165.0 73 a 10 10 0 0 1 10 10 v 70 a 10 10 0 0 0 10 10"></path><path d="M 1082.5 163 h 20"></path><g class="terminal ">
<path d="M 1102.5 163 h 4.25"></path><path d="M 1160.75 163 h 4.25"></path><rect height="22" rx="10" ry="10" width="54.0" x="1106.75" y="152"></rect><text x="1133.75" y="167">"qd"</text></g><path d="M 1165.0 163 h 20"></path><path d="M 1082.5 163 a 10 10 0 0 1 10 10 v 10 a 10 10 0 0 0 10 10"></path><g class="terminal ">
<path d="M 1102.5 193 h 8.5"></path><path d="M 1156.5 193 h 8.5"></path><rect height="22" rx="10" ry="10" width="45.5" x="1111.0" y="182"></rect><text x="1133.75" y="197">"q"</text></g><path d="M 1165.0 193 a 10 10 0 0 0 10 -10 v -10 a 10 10 0 0 1 10 -10"></path><path d="M 1082.5 163 a 10 10 0 0 1 10 10 v 40 a 10 10 0 0 0 10 10"></path><g class="terminal ">
<path d="M 1102.5 223 h 8.5"></path><path d="M 1156.5 223 h 8.5"></path><rect height="22" rx="10" ry="10" width="45.5" x="1111.0" y="212"></rect><text x="1133.75" y="227">"b"</text></g><path d="M 1165.0 223 a 10 10 0 0 0 10 -10 v -40 a 10 10 0 0 1 10 -10"></path><path d="M 1082.5 163 a 10 10 0 0 1 10 10 v 70 a 10 10 0 0 0 10 10"></path><g class="terminal ">
<path d="M 1102.5 253 h 8.5"></path><path d="M 1156.5 253 h 8.5"></path><rect height="22" rx="10" ry="10" width="45.5" x="1111.0" y="242"></rect><text x="1133.75" y="257">"d"</text></g><path d="M 1165.0 253 a 10 10 0 0 0 10 -10 v -70 a 10 10 0 0 1 10 -10"></path><path d="M 1082.5 163 a 10 10 0 0 1 10 10 v 100 a 10 10 0 0 0 10 10"></path><g class="terminal ">
<path d="M 1102.5 283 h 4.25"></path><path d="M 1160.75 283 h 4.25"></path><rect height="22" rx="10" ry="10" width="54.0" x="1106.75" y="272"></rect><text x="1133.75" y="287">"mi"</text></g><path d="M 1165.0 283 a 10 10 0 0 0 10 -10 v -100 a 10 10 0 0 1 10 -10"></path><path d="M 1082.5 163 a 10 10 0 0 1 10 10 v 130 a 10 10 0 0 0 10 10"></path><g class="terminal ">
<path d="M 1102.5 313 h 8.5"></path><path d="M 1156.5 313 h 8.5"></path><rect height="22" rx="10" ry="10" width="45.5" x="1111.0" y="302"></rect><text x="1133.75" y="317">"m"</text></g><path d="M 1165.0 313 a 10 10 0 0 0 10 -10 v -130 a 10 10 0 0 1 10 -10"></path><path d="M 1082.5 163 a 10 10 0 0 1 10 10 v 160 a 10 10 0 0 0 10 10"></path><g class="terminal ">
<path d="M 1102.5 343 h 4.25"></path><path d="M 1160.75 343 h 4.25"></path><rect height="22" rx="10" ry="10" width="54.0" x="1106.75" y="332"></rect><text x="1133.75" y="347">"ts"</text></g><path d="M 1165.0 343 a 10 10 0 0 0 10 -10 v -160 a 10 10 0 0 1 10 -10"></path><path d="M 1082.5 163 a 10 10 0 0 1 10 10 v 190 a 10 10 0 0 0 10 10"></path><g class="terminal ">
<path d="M 1102.5 373 h 4.25"></path><path d="M 1160.75 373 h 4.25"></path><rect height="22" rx="10" ry="10" width="54.0" x="1106.75" y="362"></rect><text x="1133.75" y="377">"k1"</text></g><path d="M 1165.0 373 a 10 10 0 0 0 10 -10 v -190 a 10 10 0 0 1 10 -10"></path><path d="M 1082.5 163 a 10 10 0 0 1 10 10 v 220 a 10 10 0 0 0 10 10"></path><g class="terminal ">
<path d="M 1102.5 403 h 4.25"></path><path d="M 1160.75 403 h 4.25"></path><rect height="22" rx="10" ry="10" width="54.0" x="1106.75" y="392"></rect><text x="1133.75" y="407">"k2"</text></g><path d="M 1165.0 403 a 10 10 0 0 0 10 -10 v -220 a 10 10 0 0 1 10 -10"></path><path d="M 1082.5 163 a 10 10 0 0 1 10 10 v 250 a 10 10 0 0 0 10 10"></path><g class="terminal ">
<path d="M 1102.5 433 h 0.0"></path><path d="M 1165.0 433 h 0.0"></path><rect height="22" rx="10" ry="10" width="62.5" x="1102.5" y="422"></rect><text x="1133.75" y="437">"rem"</text></g><path d="M 1165.0 433 a 10 10 0 0 0 10 -10 v -250 a 10 10 0 0 1 10 -10"></path><path d="M 1082.5 163 a 10 10 0 0 1 10 10 v 280 a 10 10 0 0 0 10 10"></path><g class="terminal ">
<path d="M 1102.5 463 h 0.0"></path><path d="M 1165.0 463 h 0.0"></path><rect height="22" rx="10" ry="10" width="62.5" x="1102.5" y="452"></rect><text x="1133.75" y="467">"sts"</text></g><path d="M 1165.0 463 a 10 10 0 0 0 10 -10 v -280 a 10 10 0 0 1 10 -10"></path></g><path d="M 1195.0 163 h 10"></path></g></g><g class="non-terminal ">
<path d="M 767.5 28 h 0.0"></path><path d="M 784.5 28 h 0.0"></path><text class="comment" x="776.0" y="33">➋</text></g></g><path d="M 1215.0 163 h 10"></path><path d="M 1225.0 163 h 10"></path><g>
<path d="M 1235.0 163 h 0.0"></path><path d="M 1346.0 163 h 0.0"></path><path d="M 1235.0 163 h 20"></path><g class="terminal ">
<path d="M 1255.0 163 h 12.75"></path><path d="M 1313.25 163 h 12.75"></path><rect height="22" rx="10" ry="10" width="45.5" x="1267.75" y="152"></rect><text x="1290.5" y="167">' '</text></g><path d="M 1326.0 163 h 20"></path><path d="M 1235.0 163 a 10 10 0 0 1 10 10 v 10 a 10 10 0 0 0 10 10"></path><g class="terminal altterminal">
<path d="M 1255.0 193 h 0.0"></path><path d="M 1326.0 193 h 0.0"></path><rect height="22" rx="10" ry="10" width="71.0" x="1255.0" y="182"></rect><text x="1290.5" y="197">TAGEND</text></g><path d="M 1326.0 193 a 10 10 0 0 0 10 -10 v -10 a 10 10 0 0 1 10 -10"></path></g><path d="M 1346.0 163 h 10"></path><path d="M 1356.0 163 h 10"></path><g>
<path d="M 1366.0 163 h 0.0"></path><path d="M 1619.5 163 h 0.0"></path><path d="M 1366.0 163 a 10 10 0 0 0 10 -10 v -9 a 10 10 0 0 1 10 -10"></path><g>
<path d="M 1386.0 134 h 213.5"></path></g><path d="M 1599.5 134 a 10 10 0 0 1 10 10 v 9 a 10 10 0 0 0 10 10"></path><path d="M 1366.0 163 h 20"></path><g>
<path d="M 1386.0 163 h 0.0"></path><path d="M 1599.5 163 h 0.0"></path><path d="M 1386.0 163 h 10"></path><g>
<path d="M 1396.0 163 h 0.0"></path><path d="M 1589.5 163 h 0.0"></path><path d="M 1396.0 163 h 20"></path><g class="non-terminal ">
<path d="M 1416.0 163 h 32.75"></path><path d="M 1536.75 163 h 32.75"></path><rect height="22" width="88.0" x="1448.75" y="152"></rect><text x="1492.75" y="167">Footnote</text></g><path d="M 1569.5 163 h 20"></path><path d="M 1396.0 163 a 10 10 0 0 1 10 10 v 10 a 10 10 0 0 0 10 10"></path><g class="non-terminal ">
<path d="M 1416.0 193 h 7.25"></path><path d="M 1562.25 193 h 7.25"></path><rect height="22" width="139.0" x="1423.25" y="182"></rect><text x="1492.75" y="197">CrossReference</text></g><path d="M 1569.5 193 a 10 10 0 0 0 10 -10 v -10 a 10 10 0 0 1 10 -10"></path><path d="M 1396.0 163 a 10 10 0 0 1 10 10 v 40 a 10 10 0 0 0 10 10"></path><g class="non-terminal ">
<path d="M 1416.0 223 h 49.75"></path><path d="M 1519.75 223 h 49.75"></path><rect height="22" width="54.0" x="1465.75" y="212"></rect><text x="1492.75" y="227">Char</text></g><path d="M 1569.5 223 a 10 10 0 0 0 10 -10 v -40 a 10 10 0 0 1 10 -10"></path><path d="M 1396.0 163 a 10 10 0 0 1 10 10 v 70 a 10 10 0 0 0 10 10"></path><g class="non-terminal ">
<path d="M 1416.0 253 h 28.5"></path><path d="M 1541.0 253 h 28.5"></path><rect height="22" width="96.5" x="1444.5" y="242"></rect><text x="1492.75" y="257">Milestone</text></g><path d="M 1569.5 253 a 10 10 0 0 0 10 -10 v -70 a 10 10 0 0 1 10 -10"></path><path d="M 1396.0 163 a 10 10 0 0 1 10 10 v 100 a 10 10 0 0 0 10 10"></path><g class="non-terminal ">
<path d="M 1416.0 283 h 45.5"></path><path d="M 1524.0 283 h 45.5"></path><rect height="22" width="62.5" x="1461.5" y="272"></rect><text x="1492.75" y="287">Verse</text></g><path d="M 1569.5 283 a 10 10 0 0 0 10 -10 v -100 a 10 10 0 0 1 10 -10"></path><path d="M 1396.0 163 a 10 10 0 0 1 10 10 v 130 a 10 10 0 0 0 10 10"></path><g>
<path d="M 1416.0 313 h 49.75"></path><path d="M 1519.75 313 h 49.75"></path><g class="terminal ">
<path d="M 1465.75 313 h 0.0"></path><path d="M 1519.75 313 h 0.0"></path><rect height="22" rx="10" ry="10" width="54.0" x="1465.75" y="302"></rect><text x="1492.75" y="317">'//'</text></g></g><path d="M 1569.5 313 a 10 10 0 0 0 10 -10 v -130 a 10 10 0 0 1 10 -10"></path><path d="M 1396.0 163 a 10 10 0 0 1 10 10 v 160 a 10 10 0 0 0 10 10"></path><g>
<path d="M 1416.0 343 h 0.0"></path><path d="M 1569.5 343 h 0.0"></path><g class="terminal ">
<path d="M 1416.0 343 h 0.0"></path><path d="M 1470.0 343 h 0.0"></path><rect height="22" rx="10" ry="10" width="54.0" x="1416.0" y="332"></rect><text x="1443.0" y="347">TEXT</text></g><path d="M 1470.0 343 h 10"></path><path d="M 1480.0 343 h 10"></path><g class="terminal ">
<path d="M 1490.0 343 h 0.0"></path><path d="M 1569.5 343 h 0.0"></path><rect height="22" rx="10" ry="10" width="79.5" x="1490.0" y="332"></rect><text x="1529.75" y="347">TEXTEND</text></g></g><path d="M 1569.5 343 a 10 10 0 0 0 10 -10 v -160 a 10 10 0 0 1 10 -10"></path></g><path d="M 1589.5 163 h 10"></path><path d="M 1396.0 163 a 10 10 0 0 0 -10 10 v 189 a 10 10 0 0 0 10 10"></path><g>
<path d="M 1396.0 372 h 193.5"></path></g><path d="M 1589.5 372 a 10 10 0 0 0 10 -10 v -189 a 10 10 0 0 0 -10 -10"></path></g><path d="M 1599.5 163 h 20"></path></g></g><path d="M 1619.5 163 h 10"></path><path d="M 1629.5 163 h 20 m 0 -10 v 20"></path></g></svg>