<svg class="railroad-diagram" height="892" viewBox="0 0 1140.0 892" width="1140.0" xmlns="http://www.w3.org/2000/svg" xmlns:xlink="http://www.w3.org/1999/xlink">
<g transform="translate(.5 .5)">
<style>/* <![CDATA[ */

    svg.railroad-diagram {
        background-color: hsl(30,20%,95%);
    }
    svg.railroad-diagram path {
        stroke-width: 2;
        stroke: black;
        fill: none;
    }
    svg.railroad-diagram text {
        font-size: 12px;
        text-anchor: middle;
        font-family: DejaVu Sans;
    }
    svg.railroad-diagram text.label {
        text-anchor:start;
    }
    svg.railroad-diagram text.comment {
        font-family: DejaVu Sans;
        font-size: 14px;
    }
    svg.railroad-diagram rect{
        stroke-width: 2;
        stroke: black;
        fill: rgb(210, 255, 210);
    }
    svg.railroad-diagram rect.group-box {
        stroke: gray;
        stroke-dasharray: 10 5;
        fill: none;
    }
    .terminal {
        font-family: DejaVu Sans;
    }
    svg.railroad-diagram g.altterminal rect {
        fill: rgb(251, 252, 207)
    }

/* ]]> */
</style><g>
<path d="M 20 155 v 20 m 0 -10 h 20"></path></g><path d="M 40 165 h 10"></path><g>
<path d="M 50 165 h 0.0"></path><path d="M 1090.0 165 h 0.0"></path><g>
<path d="M 50.0 165 h 0.0"></path><path d="M 816.5 165 h 0.0"></path><path d="M 50.0 165 h 20"></path><g>
<path d="M 70.0 165 h 158.25"></path><path d="M 638.25 165 h 158.25"></path><g>
<path d="M 228.25 165 h 0.0"></path><path d="M 364.75 165 h 0.0"></path><path d="M 228.25 165 h 20"></path><g class="terminal ">
<path d="M 248.25 165 h 12.75"></path><path d="M 332.0 165 h 12.75"></path><rect height="22" rx="10" ry="10" width="71.0" x="261.0" y="154"></rect><text x="296.5" y="169">'\n\\'</text></g><path d="M 344.75 165 h 20"></path><path d="M 228.25 165 a 10 10 0 0 1 10 10 v 10 a 10 10 0 0 0 10 10"></path><g class="terminal altterminal">
<path d="M 248.25 195 h 0.0"></path><path d="M 344.75 195 h 0.0"></path><rect height="22" rx="10" ry="10" width="96.5" x="248.25" y="184"></rect><text x="296.5" y="199">/${Ws}\\/</text></g><path d="M 344.75 195 a 10 10 0 0 0 10 -10 v -10 a 10 10 0 0 1 10 -10"></path></g><path d="M 364.75 165 h 10"></path><path d="M 374.75 165 h 10"></path><g>
<path d="M 384.75 165 h 0.0"></path><path d="M 507.25 165 h 0.0"></path><rect class="group-box" height="298" rx="10" ry="10" width="122.5" x="384.75" y="46"></rect><g>
<path d="M 384.75 165 h 10.0"></path><path d="M 497.25 165 h 10.0"></path><g>
<path d="M 394.75 165 h 0.0"></path><path d="M 497.25 165 h 0.0"></path><g>
<path d="M 394.75 165 h 0.0"></path><path d="M 497.25 165 h 0.0"></path><path d="M 394.75 165 a 10 10 0 0 0 10 -10 v -10 a 10 10 0 0 1 10 -10"></path><g class="terminal ">
<path d="M 414.75 135 h 4.25"></path><path d="M 473.0 135 h 4.25"></path><rect height="22" rx="10" ry="10" width="54.0" x="419.0" y="124"></rect><text x="446.0" y="139">"pb"</text></g><path d="M 477.25 135 a 10 10 0 0 1 10 10 v 10 a 10 10 0 0 0 10 10"></path><path d="M 394.75 165 a 10 10 0 0 0 10 -10 v -40 a 10 10 0 0 1 10 -10"></path><g class="terminal ">
<path d="M 414.75 105 h 4.25"></path><path d="M 473.0 105 h 4.25"></path><rect height="22" rx="10" ry="10" width="54.0" x="419.0" y="94"></rect><text x="446.0" y="109">"cp"</text></g><path d="M 477.25 105 a 10 10 0 0 1 10 10 v 40 a 10 10 0 0 0 10 10"></path><path d="M 394.75 165 a 10 10 0 0 0 10 -10 v -70 a 10 10 0 0 1 10 -10"></path><g class="terminal ">
<path d="M 414.75 75 h 0.0"></path><path d="M 477.25 75 h 0.0"></path><rect height="22" rx="10" ry="10" width="62.5" x="414.75" y="64"></rect><text x="446.0" y="79">"lit"</text></g><path d="M 477.25 75 a 10 10 0 0 1 10 10 v 70 a 10 10 0 0 0 10 10"></path><path d="M 394.75 165 h 20"></path><g class="terminal ">
<path d="M 414.75 165 h 4.25"></path><path d="M 473.0 165 h 4.25"></path><rect height="22" rx="10" ry="10" width="54.0" x="419.0" y="154"></rect><text x="446.0" y="169">"p1"</text></g><path d="M 477.25 165 h 20"></path><path d="M 394.75 165 a 10 10 0 0 1 10 10 v 10 a 10 10 0 0 0 10 10"></path><g class="terminal ">
<path d="M 414.75 195 h 4.25"></path><path d="M 473.0 195 h 4.25"></path><rect height="22" rx="10" ry="10" width="54.0" x="419.0" y="184"></rect><text x="446.0" y="199">"p2"</text></g><path d="M 477.25 195 a 10 10 0 0 0 10 -10 v -10 a 10 10 0 0 1 10 -10"></path><path d="M 394.75 165 a 10 10 0 0 1 10 10 v 40 a 10 10 0 0 0 10 10"></path><g class="terminal ">
<path d="M 414.75 225 h 4.25"></path><path d="M 473.0 225 h 4.25"></path><rect height="22" rx="10" ry="10" width="54.0" x="419.0" y="214"></rect><text x="446.0" y="229">"k1"</text></g><path d="M 477.25 225 a 10 10 0 0 0 10 -10 v -40 a 10 10 0 0 1 10 -10"></path><path d="M 394.75 165 a 10 10 0 0 1 10 10 v 70 a 10 10 0 0 0 10 10"></path><g class="terminal ">
<path d="M 414.75 255 h 4.25"></path><path d="M 473.0 255 h 4.25"></path><rect height="22" rx="10" ry="10" width="54.0" x="419.0" y="244"></rect><text x="446.0" y="259">"k2"</text></g><path d="M 477.25 255 a 10 10 0 0 0 10 -10 v -70 a 10 10 0 0 1 10 -10"></path><path d="M 394.75 165 a 10 10 0 0 1 10 10 v 100 a 10 10 0 0 0 10 10"></path><g class="terminal ">
<path d="M 414.75 285 h 0.0"></path><path d="M 477.25 285 h 0.0"></path><rect height="22" rx="10" ry="10" width="62.5" x="414.75" y="274"></rect><text x="446.0" y="289">"rem"</text></g><path d="M 477.25 285 a 10 10 0 0 0 10 -10 v -100 a 10 10 0 0 1 10 -10"></path><path d="M 394.75 165 a 10 10 0 0 1 10 10 v 130 a 10 10 0 0 0 10 10"></path><g class="terminal ">
<path d="M 414.75 315 h 0.0"></path><path d="M 477.25 315 h 0.0"></path><rect height="22" rx="10" ry="10" width="62.5" x="414.75" y="304"></rect><text x="446.0" y="319">"sts"</text></g><path d="M 477.25 315 a 10 10 0 0 0 10 -10 v -130 a 10 10 0 0 1 10 -10"></path></g></g></g><g class="non-terminal ">
<path d="M 384.75 38 h 0.0"></path><path d="M 401.75 38 h 0.0"></path><text class="comment" x="393.25" y="43">➋</text></g></g><path d="M 507.25 165 h 10"></path><path d="M 517.25 165 h 10"></path><g>
<path d="M 527.25 165 h 0.0"></path><path d="M 638.25 165 h 0.0"></path><path d="M 527.25 165 h 20"></path><g class="terminal ">
<path d="M 547.25 165 h 12.75"></path><path d="M 605.5 165 h 12.75"></path><rect height="22" rx="10" ry="10" width="45.5" x="560.0" y="154"></rect><text x="582.75" y="169">' '</text></g><path d="M 618.25 165 h 20"></path><path d="M 527.25 165 a 10 10 0 0 1 10 10 v 10 a 10 10 0 0 0 10 10"></path><g class="terminal altterminal">
<path d="M 547.25 195 h 0.0"></path><path d="M 618.25 195 h 0.0"></path><rect height="22" rx="10" ry="10" width="71.0" x="547.25" y="184"></rect><text x="582.75" y="199">TAGEND</text></g><path d="M 618.25 195 a 10 10 0 0 0 10 -10 v -10 a 10 10 0 0 1 10 -10"></path></g></g><path d="M 796.5 165 h 20"></path><path d="M 50.0 165 a 10 10 0 0 1 10 10 v 310 a 10 10 0 0 0 10 10"></path><g>
<path d="M 70.0 495 h 0.0"></path><path d="M 796.5 495 h 0.0"></path><g>
<path d="M 70.0 495 h 0.0"></path><path d="M 206.5 495 h 0.0"></path><path d="M 70.0 495 h 20"></path><g class="terminal ">
<path d="M 90.0 495 h 12.75"></path><path d="M 173.75 495 h 12.75"></path><rect height="22" rx="10" ry="10" width="71.0" x="102.75" y="484"></rect><text x="138.25" y="499">'\n\\'</text></g><path d="M 186.5 495 h 20"></path><path d="M 70.0 495 a 10 10 0 0 1 10 10 v 10 a 10 10 0 0 0 10 10"></path><g class="terminal altterminal">
<path d="M 90.0 525 h 0.0"></path><path d="M 186.5 525 h 0.0"></path><rect height="22" rx="10" ry="10" width="96.5" x="90.0" y="514"></rect><text x="138.25" y="529">/${Ws}\\/</text></g><path d="M 186.5 525 a 10 10 0 0 0 10 -10 v -10 a 10 10 0 0 1 10 -10"></path></g><path d="M 206.5 495 h 10"></path><path d="M 216.5 495 h 10"></path><g>
<path d="M 226.5 495 h 0.0"></path><path d="M 665.5 495 h 0.0"></path><rect class="group-box" height="494" rx="10" ry="10" width="439.0" x="226.5" y="368"></rect><g>
<path d="M 226.5 495 h 10.0"></path><path d="M 655.5 495 h 10.0"></path><g>
<path d="M 236.5 495 h 0.0"></path><path d="M 655.5 495 h 0.0"></path><path d="M 236.5 495 a 10 10 0 0 0 10 -10 v -99 a 10 10 0 0 1 10 -10 h 255.0"></path><path d="M 389.0 854 h 246.5 a 10 10 0 0 0 10 -10 v -339 a 10 10 0 0 1 10 -10"></path><path d="M 236.5 495 h 10"></path><g>
<path d="M 246.5 495 h 10.0"></path><path d="M 359.0 495 h 10.0"></path><path d="M 256.5 495 a 10 10 0 0 0 10 -10 v -10 a 10 10 0 0 1 10 -10"></path><g class="terminal ">
<path d="M 276.5 465 h 4.25"></path><path d="M 334.75 465 h 4.25"></path><rect height="22" rx="10" ry="10" width="54.0" x="280.75" y="454"></rect><text x="307.75" y="469">"pc"</text></g><path d="M 339.0 465 a 10 10 0 0 1 10 10 v 10 a 10 10 0 0 0 10 10"></path><path d="M 256.5 495 a 10 10 0 0 0 10 -10 v -40 a 10 10 0 0 1 10 -10"></path><g class="terminal ">
<path d="M 276.5 435 h 4.25"></path><path d="M 334.75 435 h 4.25"></path><rect height="22" rx="10" ry="10" width="54.0" x="280.75" y="424"></rect><text x="307.75" y="439">"nb"</text></g><path d="M 339.0 435 a 10 10 0 0 1 10 10 v 40 a 10 10 0 0 0 10 10"></path><path d="M 256.5 495 a 10 10 0 0 0 10 -10 v -70 a 10 10 0 0 1 10 -10"></path><g class="terminal ">
<path d="M 276.5 405 h 0.0"></path><path d="M 339.0 405 h 0.0"></path><rect height="22" rx="10" ry="10" width="62.5" x="276.5" y="394"></rect><text x="307.75" y="409">"cls"</text></g><path d="M 339.0 405 a 10 10 0 0 1 10 10 v 70 a 10 10 0 0 0 10 10"></path><path d="M 256.5 495 h 20"></path><g class="terminal ">
<path d="M 276.5 495 h 0.0"></path><path d="M 339.0 495 h 0.0"></path><rect height="22" rx="10" ry="10" width="62.5" x="276.5" y="484"></rect><text x="307.75" y="499">"pi1"</text></g><path d="M 339.0 495 h 20"></path><path d="M 256.5 495 a 10 10 0 0 1 10 10 v 10 a 10 10 0 0 0 10 10"></path><g class="terminal ">
<path d="M 276.5 525 h 0.0"></path><path d="M 339.0 525 h 0.0"></path><rect height="22" rx="10" ry="10" width="62.5" x="276.5" y="514"></rect><text x="307.75" y="529">"pi2"</text></g><path d="M 339.0 525 a 10 10 0 0 0 10 -10 v -10 a 10 10 0 0 1 10 -10"></path><path d="M 256.5 495 a 10 10 0 0 1 10 10 v 40 a 10 10 0 0 0 10 10"></path><g class="terminal ">
<path d="M 276.5 555 h 0.0"></path><path d="M 339.0 555 h 0.0"></path><rect height="22" rx="10" ry="10" width="62.5" x="276.5" y="544"></rect><text x="307.75" y="559">"pi3"</text></g><path d="M 339.0 555 a 10 10 0 0 0 10 -10 v -40 a 10 10 0 0 1 10 -10"></path><path d="M 256.5 495 a 10 10 0 0 1 10 10 v 70 a 10 10 0 0 0 10 10"></path><g class="terminal ">
<path d="M 276.5 585 h 4.25"></path><path d="M 334.75 585 h 4.25"></path><rect height="22" rx="10" ry="10" width="54.0" x="280.75" y="574"></rect><text x="307.75" y="589">"pi"</text></g><path d="M 339.0 585 a 10 10 0 0 0 10 -10 v -70 a 10 10 0 0 1 10 -10"></path><path d="M 256.5 495 a 10 10 0 0 1 10 10 v 100 a 10 10 0 0 0 10 10"></path><g class="terminal ">
<path d="M 276.5 615 h 4.25"></path><path d="M 334.75 615 h 4.25"></path><rect height="22" rx="10" ry="10" width="54.0" x="280.75" y="604"></rect><text x="307.75" y="619">"po"</text></g><path d="M 339.0 615 a 10 10 0 0 0 10 -10 v -100 a 10 10 0 0 1 10 -10"></path><path d="M 256.5 495 a 10 10 0 0 1 10 10 v 130 a 10 10 0 0 0 10 10"></path><g class="terminal ">
<path d="M 276.5 645 h 4.25"></path><path d="M 334.75 645 h 4.25"></path><rect height="22" rx="10" ry="10" width="54.0" x="280.75" y="634"></rect><text x="307.75" y="649">"pr"</text></g><path d="M 339.0 645 a 10 10 0 0 0 10 -10 v -130 a 10 10 0 0 1 10 -10"></path><path d="M 256.5 495 a 10 10 0 0 1 10 10 v 160 a 10 10 0 0 0 10 10"></path><g class="terminal ">
<path d="M 276.5 675 h 0.0"></path><path d="M 339.0 675 h 0.0"></path><rect height="22" rx="10" ry="10" width="62.5" x="276.5" y="664"></rect><text x="307.75" y="679">"pmo"</text></g><path d="M 339.0 675 a 10 10 0 0 0 10 -10 v -160 a 10 10 0 0 1 10 -10"></path><path d="M 256.5 495 a 10 10 0 0 1 10 10 v 190 a 10 10 0 0 0 10 10"></path><g class="terminal ">
<path d="M 276.5 705 h 0.0"></path><path d="M 339.0 705 h 0.0"></path><rect height="22" rx="10" ry="10" width="62.5" x="276.5" y="694"></rect><text x="307.75" y="709">"pmc"</text></g><path d="M 339.0 705 a 10 10 0 0 0 10 -10 v -190 a 10 10 0 0 1 10 -10"></path><path d="M 256.5 495 a 10 10 0 0 1 10 10 v 220 a 10 10 0 0 0 10 10"></path><g class="terminal ">
<path d="M 276.5 735 h 0.0"></path><path d="M 339.0 735 h 0.0"></path><rect height="22" rx="10" ry="10" width="62.5" x="276.5" y="724"></rect><text x="307.75" y="739">"pmr"</text></g><path d="M 339.0 735 a 10 10 0 0 0 10 -10 v -220 a 10 10 0 0 1 10 -10"></path><path d="M 256.5 495 a 10 10 0 0 1 10 10 v 250 a 10 10 0 0 0 10 10"></path><g class="terminal ">
<path d="M 276.5 765 h 4.25"></path><path d="M 334.75 765 h 4.25"></path><rect height="22" rx="10" ry="10" width="54.0" x="280.75" y="754"></rect><text x="307.75" y="769">"pm"</text></g><path d="M 339.0 765 a 10 10 0 0 0 10 -10 v -250 a 10 10 0 0 1 10 -10"></path><path d="M 256.5 495 a 10 10 0 0 1 10 10 v 280 a 10 10 0 0 0 10 10"></path><g class="terminal ">
<path d="M 276.5 795 h 0.0"></path><path d="M 339.0 795 h 0.0"></path><rect height="22" rx="10" ry="10" width="62.5" x="276.5" y="784"></rect><text x="307.75" y="799">"ph1"</text></g><path d="M 339.0 795 a 10 10 0 0 0 10 -10 v -280 a 10 10 0 0 1 10 -10"></path><path d="M 256.5 495 a 10 10 0 0 1 10 10 v 310 a 10 10 0 0 0 10 10"></path><g class="terminal ">
<path d="M 276.5 825 h 0.0"></path><path d="M 339.0 825 h 0.0"></path><rect height="22" rx="10" ry="10" width="62.5" x="276.5" y="814"></rect><text x="307.75" y="829">"ph2"</text></g><path d="M 339.0 825 a 10 10 0 0 0 10 -10 v -310 a 10 10 0 0 1 10 -10"></path></g><path d="M 369.0 495 a 10 10 0 0 1 10 10 v 339 a 10 10 0 0 0 10 10"></path><path d="M 369.0 376 a 10 10 0 0 1 10 10 v 99 a 10 10 0 0 0 10 10"></path><g>
<path d="M 389.0 495 h 10.0"></path><path d="M 501.5 495 h 10.0"></path><path d="M 399.0 495 a 10 10 0 0 0 10 -10 v -10 a 10 10 0 0 1 10 -10"></path><g class="terminal ">
<path d="M 419.0 465 h 8.5"></path><path d="M 473.0 465 h 8.5"></path><rect height="22" rx="10" ry="10" width="45.5" x="427.5" y="454"></rect><text x="450.25" y="469">"p"</text></g><path d="M 481.5 465 a 10 10 0 0 1 10 10 v 10 a 10 10 0 0 0 10 10"></path><path d="M 399.0 495 a 10 10 0 0 0 10 -10 v -40 a 10 10 0 0 1 10 -10"></path><g class="terminal ">
<path d="M 419.0 435 h 4.25"></path><path d="M 477.25 435 h 4.25"></path><rect height="22" rx="10" ry="10" width="54.0" x="423.25" y="424"></rect><text x="450.25" y="439">"ph"</text></g><path d="M 481.5 435 a 10 10 0 0 1 10 10 v 40 a 10 10 0 0 0 10 10"></path><path d="M 399.0 495 a 10 10 0 0 0 10 -10 v -70 a 10 10 0 0 1 10 -10"></path><g class="terminal ">
<path d="M 419.0 405 h 0.0"></path><path d="M 481.5 405 h 0.0"></path><rect height="22" rx="10" ry="10" width="62.5" x="419.0" y="394"></rect><text x="450.25" y="409">"ph3"</text></g><path d="M 481.5 405 a 10 10 0 0 1 10 10 v 70 a 10 10 0 0 0 10 10"></path><path d="M 399.0 495 h 20"></path><g class="terminal ">
<path d="M 419.0 495 h 4.25"></path><path d="M 477.25 495 h 4.25"></path><rect height="22" rx="10" ry="10" width="54.0" x="423.25" y="484"></rect><text x="450.25" y="499">"q1"</text></g><path d="M 481.5 495 h 20"></path><path d="M 399.0 495 a 10 10 0 0 1 10 10 v 10 a 10 10 0 0 0 10 10"></path><g class="terminal ">
<path d="M 419.0 525 h 4.25"></path><path d="M 477.25 525 h 4.25"></path><rect height="22" rx="10" ry="10" width="54.0" x="423.25" y="514"></rect><text x="450.25" y="529">"q2"</text></g><path d="M 481.5 525 a 10 10 0 0 0 10 -10 v -10 a 10 10 0 0 1 10 -10"></path><path d="M 399.0 495 a 10 10 0 0 1 10 10 v 40 a 10 10 0 0 0 10 10"></path><g class="terminal ">
<path d="M 419.0 555 h 4.25"></path><path d="M 477.25 555 h 4.25"></path><rect height="22" rx="10" ry="10" width="54.0" x="423.25" y="544"></rect><text x="450.25" y="559">"q3"</text></g><path d="M 481.5 555 a 10 10 0 0 0 10 -10 v -40 a 10 10 0 0 1 10 -10"></path><path d="M 399.0 495 a 10 10 0 0 1 10 10 v 70 a 10 10 0 0 0 10 10"></path><g class="terminal ">
<path d="M 419.0 585 h 4.25"></path><path d="M 477.25 585 h 4.25"></path><rect height="22" rx="10" ry="10" width="54.0" x="423.25" y="574"></rect><text x="450.25" y="589">"q4"</text></g><path d="M 481.5 585 a 10 10 0 0 0 10 -10 v -70 a 10 10 0 0 1 10 -10"></path><path d="M 399.0 495 a 10 10 0 0 1 10 10 v 100 a 10 10 0 0 0 10 10"></path><g class="terminal ">
<path d="M 419.0 615 h 4.25"></path><path d="M 477.25 615 h 4.25"></path><rect height="22" rx="10" ry="10" width="54.0" x="423.25" y="604"></rect><text x="450.25" y="619">"qa"</text></g><path d="M 481.5 615 a 10 10 0 0 0 10 -10 v -100 a 10 10 0 0 1 10 -10"></path><path d="M 399.0 495 a 10 10 0 0 1 10 10 v 130 a 10 10 0 0 0 10 10"></path><g class="terminal ">
<path d="M 419.0 645 h 4.25"></path><path d="M 477.25 645 h 4.25"></path><rect height="22" rx="10" ry="10" width="54.0" x="423.25" y="634"></rect><text x="450.25" y="649">"qc"</text></g><path d="M 481.5 645 a 10 10 0 0 0 10 -10 v -130 a 10 10 0 0 1 10 -10"></path><path d="M 399.0 495 a 10 10 0 0 1 10 10 v 160 a 10 10 0 0 0 10 10"></path><g class="terminal ">
<path d="M 419.0 675 h 4.25"></path><path d="M 477.25 675 h 4.25"></path><rect height="22" rx="10" ry="10" width="54.0" x="423.25" y="664"></rect><text x="450.25" y="679">"qr"</text></g><path d="M 481.5 675 a 10 10 0 0 0 10 -10 v -160 a 10 10 0 0 1 10 -10"></path><path d="M 399.0 495 a 10 10 0 0 1 10 10 v 190 a 10 10 0 0 0 10 10"></path><g class="terminal ">
<path d="M 419.0 705 h 0.0"></path><path d="M 481.5 705 h 0.0"></path><rect height="22" rx="10" ry="10" width="62.5" x="419.0" y="694"></rect><text x="450.25" y="709">"qm1"</text></g><path d="M 481.5 705 a 10 10 0 0 0 10 -10 v -190 a 10 10 0 0 1 10 -10"></path><path d="M 399.0 495 a 10 10 0 0 1 10 10 v 220 a 10 10 0 0 0 10 10"></path><g class="terminal ">
<path d="M 419.0 735 h 0.0"></path><path d="M 481.5 735 h 0.0"></path><rect height="22" rx="10" ry="10" width="62.5" x="419.0" y="724"></rect><text x="450.25" y="739">"qm2"</text></g><path d="M 481.5 735 a 10 10 0 0 0 10 -10 v -220 a 10 10 0 0 1 10 -10"></path><path d="M 399.0 495 a 10 10 0 0 1 10 10 v 250 a 10 10 0 0 0 10 10"></path><g class="terminal ">
<path d="M 419.0 765 h 0.0"></path><path d="M 481.5 765 h 0.0"></path><rect height="22" rx="10" ry="10" width="62.5" x="419.0" y="754"></rect><text x="450.25" y="769">"qm3"</text></g><path d="M 481.5 765 a 10 10 0 0 0 10 -10 v -250 a 10 10 0 0 1 10 -10"></path><path d="M 399.0 495 a 10 10 0 0 1 10 10 v 280 a 10 10 0 0 0 10 10"></path><g class="terminal ">
<path d="M 419.0 795 h 4.25"></path><path d="M 477.25 795 h 4.25"></path><rect height="22" rx="10" ry="10" width="54.0" x="423.25" y="784"></rect><text x="450.25" y="799">"qm"</text></g><path d="M 481.5 795 a 10 10 0 0 0 10 -10 v -280 a 10 10 0 0 1 10 -10"></path><path d="M 399.0 495 a 10 10 0 0 1 10 10 v 310 a 10 10 0 0 0 10 10"></path><g class="terminal ">
<path d="M 419.0 825 h 4.25"></path><path d="M 477.25 825 h 4.25"></path><rect height="22" rx="10" ry="10" width="54.0" x="423.25" y="814"></rect><text x="450.25" y="829">"qd"</text></g><path d="M 481.5 825 a 10 10 0 0 0 10 -10 v -310 a 10 10 0 0 1 10 -10"></path></g><path d="M 511.5 495 a 10 10 0 0 1 10 10 v 339 a 10 10 0 0 0 10 10"></path><path d="M 511.5 376 a 10 10 0 0 1 10 10 v 99 a 10 10 0 0 0 10 10"></path><g>
<path d="M 531.5 495 h 10.0"></path><path d="M 635.5 495 h 10.0"></path><path d="M 541.5 495 a 10 10 0 0 0 10 -10 v -10 a 10 10 0 0 1 10 -10"></path><g class="terminal ">
<path d="M 561.5 465 h 4.25"></path><path d="M 611.25 465 h 4.25"></path><rect height="22" rx="10" ry="10" width="45.5" x="565.75" y="454"></rect><text x="588.5" y="469">"d"</text></g><path d="M 615.5 465 a 10 10 0 0 1 10 10 v 10 a 10 10 0 0 0 10 10"></path><path d="M 541.5 495 a 10 10 0 0 0 10 -10 v -40 a 10 10 0 0 1 10 -10"></path><g class="terminal ">
<path d="M 561.5 435 h 4.25"></path><path d="M 611.25 435 h 4.25"></path><rect height="22" rx="10" ry="10" width="45.5" x="565.75" y="424"></rect><text x="588.5" y="439">"b"</text></g><path d="M 615.5 435 a 10 10 0 0 1 10 10 v 40 a 10 10 0 0 0 10 10"></path><path d="M 541.5 495 a 10 10 0 0 0 10 -10 v -70 a 10 10 0 0 1 10 -10"></path><g class="terminal ">
<path d="M 561.5 405 h 4.25"></path><path d="M 611.25 405 h 4.25"></path><rect height="22" rx="10" ry="10" width="45.5" x="565.75" y="394"></rect><text x="588.5" y="409">"q"</text></g><path d="M 615.5 405 a 10 10 0 0 1 10 10 v 70 a 10 10 0 0 0 10 10"></path><path d="M 541.5 495 h 20"></path><g class="terminal ">
<path d="M 561.5 495 h 0.0"></path><path d="M 615.5 495 h 0.0"></path><rect height="22" rx="10" ry="10" width="54.0" x="561.5" y="484"></rect><text x="588.5" y="499">"mi"</text></g><path d="M 615.5 495 h 20"></path><path d="M 541.5 495 a 10 10 0 0 1 10 10 v 10 a 10 10 0 0 0 10 10"></path><g class="terminal ">
<path d="M 561.5 525 h 4.25"></path><path d="M 611.25 525 h 4.25"></path><rect height="22" rx="10" ry="10" width="45.5" x="565.75" y="514"></rect><text x="588.5" y="529">"m"</text></g><path d="M 615.5 525 a 10 10 0 0 0 10 -10 v -10 a 10 10 0 0 1 10 -10"></path><path d="M 541.5 495 a 10 10 0 0 1 10 10 v 40 a 10 10 0 0 0 10 10"></path><g class="terminal ">
<path d="M 561.5 555 h 0.0"></path><path d="M 615.5 555 h 0.0"></path><rect height="22" rx="10" ry="10" width="54.0" x="561.5" y="544"></rect><text x="588.5" y="559">"ts"</text></g><path d="M 615.5 555 a 10 10 0 0 0 10 -10 v -40 a 10 10 0 0 1 10 -10"></path></g><path d="M 645.5 495 h 10"></path></g></g><g class="non-terminal ">
<path d="M 226.5 360 h 0.0"></path><path d="M 243.5 360 h 0.0"></path><text class="comment" x="235.0" y="365">➋</text></g></g><path d="M 665.5 495 h 10"></path><path d="M 675.5 495 h 10"></path><g>
<path d="M 685.5 495 h 0.0"></path><path d="M 796.5 495 h 0.0"></path><path d="M 685.5 495 h 20"></path><g class="terminal ">
<path d="M 705.5 495 h 12.75"></path><path d="M 763.75 495 h 12.75"></path><rect height="22" rx="10" ry="10" width="45.5" x="718.25" y="484"></rect><text x="741.0" y="499">' '</text></g><path d="M 776.5 495 h 20"></path><path d="M 685.5 495 a 10 10 0 0 1 10 10 v 10 a 10 10 0 0 0 10 10"></path><g class="terminal altterminal">
<path d="M 705.5 525 h 0.0"></path><path d="M 776.5 525 h 0.0"></path><rect height="22" rx="10" ry="10" width="71.0" x="705.5" y="514"></rect><text x="741.0" y="529">TAGEND</text></g><path d="M 776.5 525 a 10 10 0 0 0 10 -10 v -10 a 10 10 0 0 1 10 -10"></path></g></g><path d="M 796.5 495 a 10 10 0 0 0 10 -10 v -310 a 10 10 0 0 1 10 -10"></path></g><path d="M 816.5 165 h 10"></path><path d="M 826.5 165 h 10"></path><g>
<path d="M 836.5 165 h 0.0"></path><path d="M 1090.0 165 h 0.0"></path><path d="M 836.5 165 a 10 10 0 0 0 10 -10 v -9 a 10 10 0 0 1 10 -10"></path><g>
<path d="M 856.5 136 h 213.5"></path></g><path d="M 1070.0 136 a 10 10 0 0 1 10 10 v 9 a 10 10 0 0 0 10 10"></path><path d="M 836.5 165 h 20"></path><g>
<path d="M 856.5 165 h 0.0"></path><path d="M 1070.0 165 h 0.0"></path><path d="M 856.5 165 h 10"></path><g>
<path d="M 866.5 165 h 0.0"></path><path d="M 1060.0 165 h 0.0"></path><path d="M 866.5 165 h 20"></path><g class="non-terminal ">
<path d="M 886.5 165 h 32.75"></path><path d="M 1007.25 165 h 32.75"></path><rect height="22" width="88.0" x="919.25" y="154"></rect><text x="963.25" y="169">Footnote</text></g><path d="M 1040.0 165 h 20"></path><path d="M 866.5 165 a 10 10 0 0 1 10 10 v 10 a 10 10 0 0 0 10 10"></path><g class="non-terminal ">
<path d="M 886.5 195 h 7.25"></path><path d="M 1032.75 195 h 7.25"></path><rect height="22" width="139.0" x="893.75" y="184"></rect><text x="963.25" y="199">CrossReference</text></g><path d="M 1040.0 195 a 10 10 0 0 0 10 -10 v -10 a 10 10 0 0 1 10 -10"></path><path d="M 866.5 165 a 10 10 0 0 1 10 10 v 40 a 10 10 0 0 0 10 10"></path><g class="non-terminal ">
<path d="M 886.5 225 h 49.75"></path><path d="M 990.25 225 h 49.75"></path><rect height="22" width="54.0" x="936.25" y="214"></rect><text x="963.25" y="229">Char</text></g><path d="M 1040.0 225 a 10 10 0 0 0 10 -10 v -40 a 10 10 0 0 1 10 -10"></path><path d="M 866.5 165 a 10 10 0 0 1 10 10 v 70 a 10 10 0 0 0 10 10"></path><g class="non-terminal ">
<path d="M 886.5 255 h 28.5"></path><path d="M 1011.5 255 h 28.5"></path><rect height="22" width="96.5" x="915.0" y="244"></rect><text x="963.25" y="259">Milestone</text></g><path d="M 1040.0 255 a 10 10 0 0 0 10 -10 v -70 a 10 10 0 0 1 10 -10"></path><path d="M 866.5 165 a 10 10 0 0 1 10 10 v 100 a 10 10 0 0 0 10 10"></path><g class="non-terminal ">
<path d="M 886.5 285 h 45.5"></path><path d="M 994.5 285 h 45.5"></path><rect height="22" width="62.5" x="932.0" y="274"></rect><text x="963.25" y="289">Verse</text></g><path d="M 1040.0 285 a 10 10 0 0 0 10 -10 v -100 a 10 10 0 0 1 10 -10"></path><path d="M 866.5 165 a 10 10 0 0 1 10 10 v 130 a 10 10 0 0 0 10 10"></path><g>
<path d="M 886.5 315 h 49.75"></path><path d="M 990.25 315 h 49.75"></path><g class="terminal ">
<path d="M 936.25 315 h 0.0"></path><path d="M 990.25 315 h 0.0"></path><rect height="22" rx="10" ry="10" width="54.0" x="936.25" y="304"></rect><text x="963.25" y="319">'//'</text></g></g><path d="M 1040.0 315 a 10 10 0 0 0 10 -10 v -130 a 10 10 0 0 1 10 -10"></path><path d="M 866.5 165 a 10 10 0 0 1 10 10 v 160 a 10 10 0 0 0 10 10"></path><g>
<path d="M 886.5 345 h 0.0"></path><path d="M 1040.0 345 h 0.0"></path><g class="terminal ">
<path d="M 886.5 345 h 0.0"></path><path d="M 940.5 345 h 0.0"></path><rect height="22" rx="10" ry="10" width="54.0" x="886.5" y="334"></rect><text x="913.5" y="349">TEXT</text></g><path d="M 940.5 345 h 10"></path><path d="M 950.5 345 h 10"></path><g class="terminal ">
<path d="M 960.5 345 h 0.0"></path><path d="M 1040.0 345 h 0.0"></path><rect height="22" rx="10" ry="10" width="79.5" x="960.5" y="334"></rect><text x="1000.25" y="349">TEXTEND</text></g></g><path d="M 1040.0 345 a 10 10 0 0 0 10 -10 v -160 a 10 10 0 0 1 10 -10"></path></g><path d="M 1060.0 165 h 10"></path><path d="M 866.5 165 a 10 10 0 0 0 -10 10 v 189 a 10 10 0 0 0 10 10"></path><g>
<path d="M 866.5 374 h 193.5"></path></g><path d="M 1060.0 374 a 10 10 0 0 0 10 -10 v -189 a 10 10 0 0 0 -10 -10"></path></g><path d="M 1070.0 165 h 20"></path></g></g><path d="M 1090.0 165 h 10"></path><path d="M 1100.0 165 h 20 m 0 -10 v 20"></path></g></svg>