<svg class="railroad-diagram" height="535" viewBox="0 0 1776.5 535" width="1776.5" xmlns="http://www.w3.org/2000/svg" xmlns:xlink="http://www.w3.org/1999/xlink">
<g transform="translate(.5 .5)">
<style>/* <![CDATA[ */
    svg.railroad-diagram {
        background-color:hsl(30,20%,95%);
    }
    svg.railroad-diagram path {
        stroke-width: 2;
        stroke: black;
        fill: none;
    }
    svg.railroad-diagram text {
        font-size: 12px;
        text-anchor: middle;
        font-family: DejaVu Sans;
    }
    svg.railroad-diagram text.label {
        text-anchor:start;
    }
    svg.railroad-diagram text.comment {
        font-family: DejaVu Sans;
        font-size: 14px;
    }
    svg.railroad-diagram rect{
        stroke-width: 2;
        stroke:black;
        fill: rgb(210, 255, 210);
    }
    svg.railroad-diagram rect.group-box {
        stroke: gray;
        stroke-dasharray: 10 5;
        fill: none;
    }
    .terminal {
        font-family: DejaVu Sans;
    }

/* ]]> */
</style><g>
<path d="M 20 167 v 20 m 0 -10 h 20"></path></g><path d="M 40 177 h 10"></path><g>
<path d="M 50 177 h 0.0"></path><path d="M 1726.5 177 h 0.0"></path><rect class="group-box" height="479" rx="10" ry="10" width="1676.5" x="50.0" y="36"></rect><g>
<path d="M 50.0 177 h 10.0"></path><path d="M 1716.5 177 h 10.0"></path><g>
<path d="M 60.0 177 h 0.0"></path><path d="M 1289.0 177 h 0.0"></path><rect class="group-box" height="264" rx="10" ry="10" width="1229.0" x="60.0" y="60"></rect><g>
<path d="M 60.0 177 h 10.0"></path><path d="M 1279.0 177 h 10.0"></path><g class="terminal ">
<path d="M 70.0 177 h 0.0"></path><path d="M 115.5 177 h 0.0"></path><rect height="22" rx="10" ry="10" width="45.5" x="70.0" y="166"></rect><text x="92.75" y="181">"\"</text></g><path d="M 115.5 177 h 10"></path><g>
<path d="M 125.5 177 h 0.0"></path><path d="M 1279.0 177 h 0.0"></path><path d="M 125.5 177 a 10 10 0 0 0 10 -10 v -89 a 10 10 0 0 1 10 -10 h 992.5"></path><path d="M 292.0 316 h 967.0 a 10 10 0 0 0 10 -10 v -119 a 10 10 0 0 1 10 -10"></path><path d="M 125.5 177 h 10"></path><g>
<path d="M 135.5 177 h 0.0"></path><path d="M 272.0 177 h 0.0"></path><path d="M 135.5 177 a 10 10 0 0 0 10 -10 v -10 a 10 10 0 0 1 10 -10"></path><g class="terminal ">
<path d="M 155.5 147 h 17.0"></path><path d="M 235.0 147 h 17.0"></path><rect height="22" rx="10" ry="10" width="62.5" x="172.5" y="136"></rect><text x="203.75" y="151">"iex"</text></g><path d="M 252.0 147 a 10 10 0 0 1 10 10 v 10 a 10 10 0 0 0 10 10"></path><path d="M 135.5 177 a 10 10 0 0 0 10 -10 v -40 a 10 10 0 0 1 10 -10"></path><g class="terminal ">
<path d="M 155.5 117 h 17.0"></path><path d="M 235.0 117 h 17.0"></path><rect height="22" rx="10" ry="10" width="62.5" x="172.5" y="106"></rect><text x="203.75" y="121">"cls"</text></g><path d="M 252.0 117 a 10 10 0 0 1 10 10 v 40 a 10 10 0 0 0 10 10"></path><path d="M 135.5 177 a 10 10 0 0 0 10 -10 v -70 a 10 10 0 0 1 10 -10"></path><g class="terminal ">
<path d="M 155.5 87 h 0.0"></path><path d="M 252.0 87 h 0.0"></path><rect height="22" rx="10" ry="10" width="96.5" x="155.5" y="76"></rect><text x="203.75" y="91">"restore"</text></g><path d="M 252.0 87 a 10 10 0 0 1 10 10 v 70 a 10 10 0 0 0 10 10"></path><path d="M 135.5 177 h 20"></path><g class="terminal ">
<path d="M 155.5 177 h 21.25"></path><path d="M 230.75 177 h 21.25"></path><rect height="22" rx="10" ry="10" width="54.0" x="176.75" y="166"></rect><text x="203.75" y="181">"ip"</text></g><path d="M 252.0 177 h 20"></path><path d="M 135.5 177 a 10 10 0 0 1 10 10 v 10 a 10 10 0 0 0 10 10"></path><g class="terminal ">
<path d="M 155.5 207 h 17.0"></path><path d="M 235.0 207 h 17.0"></path><rect height="22" rx="10" ry="10" width="62.5" x="172.5" y="196"></rect><text x="203.75" y="211">"lit"</text></g><path d="M 252.0 207 a 10 10 0 0 0 10 -10 v -10 a 10 10 0 0 1 10 -10"></path><path d="M 135.5 177 a 10 10 0 0 1 10 10 v 40 a 10 10 0 0 0 10 10"></path><g class="terminal ">
<path d="M 155.5 237 h 25.5"></path><path d="M 226.5 237 h 25.5"></path><rect height="22" rx="10" ry="10" width="45.5" x="181.0" y="226"></rect><text x="203.75" y="241">"m"</text></g><path d="M 252.0 237 a 10 10 0 0 0 10 -10 v -40 a 10 10 0 0 1 10 -10"></path><path d="M 135.5 177 a 10 10 0 0 1 10 10 v 70 a 10 10 0 0 0 10 10"></path><g class="terminal ">
<path d="M 155.5 267 h 21.25"></path><path d="M 230.75 267 h 21.25"></path><rect height="22" rx="10" ry="10" width="54.0" x="176.75" y="256"></rect><text x="203.75" y="271">"mi"</text></g><path d="M 252.0 267 a 10 10 0 0 0 10 -10 v -70 a 10 10 0 0 1 10 -10"></path><path d="M 135.5 177 a 10 10 0 0 1 10 10 v 100 a 10 10 0 0 0 10 10"></path><g class="terminal ">
<path d="M 155.5 297 h 21.25"></path><path d="M 230.75 297 h 21.25"></path><rect height="22" rx="10" ry="10" width="54.0" x="176.75" y="286"></rect><text x="203.75" y="301">"nb"</text></g><path d="M 252.0 297 a 10 10 0 0 0 10 -10 v -100 a 10 10 0 0 1 10 -10"></path></g><path d="M 272.0 177 a 10 10 0 0 1 10 10 v 119 a 10 10 0 0 0 10 10"></path><path d="M 272.0 68 a 10 10 0 0 1 10 10 v 89 a 10 10 0 0 0 10 10"></path><g>
<path d="M 292.0 177 h 0.0"></path><path d="M 394.5 177 h 0.0"></path><path d="M 292.0 177 a 10 10 0 0 0 10 -10 v -10 a 10 10 0 0 1 10 -10"></path><g class="terminal ">
<path d="M 312.0 147 h 4.25"></path><path d="M 370.25 147 h 4.25"></path><rect height="22" rx="10" ry="10" width="54.0" x="316.25" y="136"></rect><text x="343.25" y="151">"pc"</text></g><path d="M 374.5 147 a 10 10 0 0 1 10 10 v 10 a 10 10 0 0 0 10 10"></path><path d="M 292.0 177 a 10 10 0 0 0 10 -10 v -40 a 10 10 0 0 1 10 -10"></path><g class="terminal ">
<path d="M 312.0 117 h 4.25"></path><path d="M 370.25 117 h 4.25"></path><rect height="22" rx="10" ry="10" width="54.0" x="316.25" y="106"></rect><text x="343.25" y="121">"pb"</text></g><path d="M 374.5 117 a 10 10 0 0 1 10 10 v 40 a 10 10 0 0 0 10 10"></path><path d="M 292.0 177 a 10 10 0 0 0 10 -10 v -70 a 10 10 0 0 1 10 -10"></path><g class="terminal ">
<path d="M 312.0 87 h 8.5"></path><path d="M 366.0 87 h 8.5"></path><rect height="22" rx="10" ry="10" width="45.5" x="320.5" y="76"></rect><text x="343.25" y="91">"p"</text></g><path d="M 374.5 87 a 10 10 0 0 1 10 10 v 70 a 10 10 0 0 0 10 10"></path><path d="M 292.0 177 h 20"></path><g class="terminal ">
<path d="M 312.0 177 h 4.25"></path><path d="M 370.25 177 h 4.25"></path><rect height="22" rx="10" ry="10" width="54.0" x="316.25" y="166"></rect><text x="343.25" y="181">"pi"</text></g><path d="M 374.5 177 h 20"></path><path d="M 292.0 177 a 10 10 0 0 1 10 10 v 10 a 10 10 0 0 0 10 10"></path><g class="terminal ">
<path d="M 312.0 207 h 0.0"></path><path d="M 374.5 207 h 0.0"></path><rect height="22" rx="10" ry="10" width="62.5" x="312.0" y="196"></rect><text x="343.25" y="211">"pi1"</text></g><path d="M 374.5 207 a 10 10 0 0 0 10 -10 v -10 a 10 10 0 0 1 10 -10"></path><path d="M 292.0 177 a 10 10 0 0 1 10 10 v 40 a 10 10 0 0 0 10 10"></path><g class="terminal ">
<path d="M 312.0 237 h 0.0"></path><path d="M 374.5 237 h 0.0"></path><rect height="22" rx="10" ry="10" width="62.5" x="312.0" y="226"></rect><text x="343.25" y="241">"pi2"</text></g><path d="M 374.5 237 a 10 10 0 0 0 10 -10 v -40 a 10 10 0 0 1 10 -10"></path><path d="M 292.0 177 a 10 10 0 0 1 10 10 v 70 a 10 10 0 0 0 10 10"></path><g class="terminal ">
<path d="M 312.0 267 h 0.0"></path><path d="M 374.5 267 h 0.0"></path><rect height="22" rx="10" ry="10" width="62.5" x="312.0" y="256"></rect><text x="343.25" y="271">"pi3"</text></g><path d="M 374.5 267 a 10 10 0 0 0 10 -10 v -70 a 10 10 0 0 1 10 -10"></path><path d="M 292.0 177 a 10 10 0 0 1 10 10 v 100 a 10 10 0 0 0 10 10"></path><g class="terminal ">
<path d="M 312.0 297 h 4.25"></path><path d="M 370.25 297 h 4.25"></path><rect height="22" rx="10" ry="10" width="54.0" x="316.25" y="286"></rect><text x="343.25" y="301">"po"</text></g><path d="M 374.5 297 a 10 10 0 0 0 10 -10 v -100 a 10 10 0 0 1 10 -10"></path></g><path d="M 394.5 177 a 10 10 0 0 1 10 10 v 119 a 10 10 0 0 0 10 10"></path><path d="M 394.5 68 a 10 10 0 0 1 10 10 v 89 a 10 10 0 0 0 10 10"></path><g>
<path d="M 414.5 177 h 0.0"></path><path d="M 517.0 177 h 0.0"></path><path d="M 414.5 177 a 10 10 0 0 0 10 -10 v -10 a 10 10 0 0 1 10 -10"></path><g class="terminal ">
<path d="M 434.5 147 h 4.25"></path><path d="M 492.75 147 h 4.25"></path><rect height="22" rx="10" ry="10" width="54.0" x="438.75" y="136"></rect><text x="465.75" y="151">"pm"</text></g><path d="M 497.0 147 a 10 10 0 0 1 10 10 v 10 a 10 10 0 0 0 10 10"></path><path d="M 414.5 177 a 10 10 0 0 0 10 -10 v -40 a 10 10 0 0 1 10 -10"></path><g class="terminal ">
<path d="M 434.5 117 h 0.0"></path><path d="M 497.0 117 h 0.0"></path><rect height="22" rx="10" ry="10" width="62.5" x="434.5" y="106"></rect><text x="465.75" y="121">"pmo"</text></g><path d="M 497.0 117 a 10 10 0 0 1 10 10 v 40 a 10 10 0 0 0 10 10"></path><path d="M 414.5 177 a 10 10 0 0 0 10 -10 v -70 a 10 10 0 0 1 10 -10"></path><g class="terminal ">
<path d="M 434.5 87 h 4.25"></path><path d="M 492.75 87 h 4.25"></path><rect height="22" rx="10" ry="10" width="54.0" x="438.75" y="76"></rect><text x="465.75" y="91">"pr"</text></g><path d="M 497.0 87 a 10 10 0 0 1 10 10 v 70 a 10 10 0 0 0 10 10"></path><path d="M 414.5 177 h 20"></path><g class="terminal ">
<path d="M 434.5 177 h 0.0"></path><path d="M 497.0 177 h 0.0"></path><rect height="22" rx="10" ry="10" width="62.5" x="434.5" y="166"></rect><text x="465.75" y="181">"pmc"</text></g><path d="M 497.0 177 h 20"></path><path d="M 414.5 177 a 10 10 0 0 1 10 10 v 10 a 10 10 0 0 0 10 10"></path><g class="terminal ">
<path d="M 434.5 207 h 0.0"></path><path d="M 497.0 207 h 0.0"></path><rect height="22" rx="10" ry="10" width="62.5" x="434.5" y="196"></rect><text x="465.75" y="211">"pmr"</text></g><path d="M 497.0 207 a 10 10 0 0 0 10 -10 v -10 a 10 10 0 0 1 10 -10"></path><path d="M 414.5 177 a 10 10 0 0 1 10 10 v 40 a 10 10 0 0 0 10 10"></path><g class="terminal ">
<path d="M 434.5 237 h 4.25"></path><path d="M 492.75 237 h 4.25"></path><rect height="22" rx="10" ry="10" width="54.0" x="438.75" y="226"></rect><text x="465.75" y="241">"ph"</text></g><path d="M 497.0 237 a 10 10 0 0 0 10 -10 v -40 a 10 10 0 0 1 10 -10"></path><path d="M 414.5 177 a 10 10 0 0 1 10 10 v 70 a 10 10 0 0 0 10 10"></path><g class="terminal ">
<path d="M 434.5 267 h 0.0"></path><path d="M 497.0 267 h 0.0"></path><rect height="22" rx="10" ry="10" width="62.5" x="434.5" y="256"></rect><text x="465.75" y="271">"ph1"</text></g><path d="M 497.0 267 a 10 10 0 0 0 10 -10 v -70 a 10 10 0 0 1 10 -10"></path><path d="M 414.5 177 a 10 10 0 0 1 10 10 v 100 a 10 10 0 0 0 10 10"></path><g class="terminal ">
<path d="M 434.5 297 h 0.0"></path><path d="M 497.0 297 h 0.0"></path><rect height="22" rx="10" ry="10" width="62.5" x="434.5" y="286"></rect><text x="465.75" y="301">"ph2"</text></g><path d="M 497.0 297 a 10 10 0 0 0 10 -10 v -100 a 10 10 0 0 1 10 -10"></path></g><path d="M 517.0 177 a 10 10 0 0 1 10 10 v 119 a 10 10 0 0 0 10 10"></path><path d="M 517.0 68 a 10 10 0 0 1 10 10 v 89 a 10 10 0 0 0 10 10"></path><g>
<path d="M 537.0 177 h 0.0"></path><path d="M 639.5 177 h 0.0"></path><path d="M 537.0 177 a 10 10 0 0 0 10 -10 v -10 a 10 10 0 0 1 10 -10"></path><g class="terminal ">
<path d="M 557.0 147 h 4.25"></path><path d="M 615.25 147 h 4.25"></path><rect height="22" rx="10" ry="10" width="54.0" x="561.25" y="136"></rect><text x="588.25" y="151">"q1"</text></g><path d="M 619.5 147 a 10 10 0 0 1 10 10 v 10 a 10 10 0 0 0 10 10"></path><path d="M 537.0 177 a 10 10 0 0 0 10 -10 v -40 a 10 10 0 0 1 10 -10"></path><g class="terminal ">
<path d="M 557.0 117 h 8.5"></path><path d="M 611.0 117 h 8.5"></path><rect height="22" rx="10" ry="10" width="45.5" x="565.5" y="106"></rect><text x="588.25" y="121">"q"</text></g><path d="M 619.5 117 a 10 10 0 0 1 10 10 v 40 a 10 10 0 0 0 10 10"></path><path d="M 537.0 177 a 10 10 0 0 0 10 -10 v -70 a 10 10 0 0 1 10 -10"></path><g class="terminal ">
<path d="M 557.0 87 h 0.0"></path><path d="M 619.5 87 h 0.0"></path><rect height="22" rx="10" ry="10" width="62.5" x="557.0" y="76"></rect><text x="588.25" y="91">"ph3"</text></g><path d="M 619.5 87 a 10 10 0 0 1 10 10 v 70 a 10 10 0 0 0 10 10"></path><path d="M 537.0 177 h 20"></path><g class="terminal ">
<path d="M 557.0 177 h 4.25"></path><path d="M 615.25 177 h 4.25"></path><rect height="22" rx="10" ry="10" width="54.0" x="561.25" y="166"></rect><text x="588.25" y="181">"q2"</text></g><path d="M 619.5 177 h 20"></path><path d="M 537.0 177 a 10 10 0 0 1 10 10 v 10 a 10 10 0 0 0 10 10"></path><g class="terminal ">
<path d="M 557.0 207 h 4.25"></path><path d="M 615.25 207 h 4.25"></path><rect height="22" rx="10" ry="10" width="54.0" x="561.25" y="196"></rect><text x="588.25" y="211">"q3"</text></g><path d="M 619.5 207 a 10 10 0 0 0 10 -10 v -10 a 10 10 0 0 1 10 -10"></path><path d="M 537.0 177 a 10 10 0 0 1 10 10 v 40 a 10 10 0 0 0 10 10"></path><g class="terminal ">
<path d="M 557.0 237 h 4.25"></path><path d="M 615.25 237 h 4.25"></path><rect height="22" rx="10" ry="10" width="54.0" x="561.25" y="226"></rect><text x="588.25" y="241">"q4"</text></g><path d="M 619.5 237 a 10 10 0 0 0 10 -10 v -40 a 10 10 0 0 1 10 -10"></path><path d="M 537.0 177 a 10 10 0 0 1 10 10 v 70 a 10 10 0 0 0 10 10"></path><g class="terminal ">
<path d="M 557.0 267 h 4.25"></path><path d="M 615.25 267 h 4.25"></path><rect height="22" rx="10" ry="10" width="54.0" x="561.25" y="256"></rect><text x="588.25" y="271">"qa"</text></g><path d="M 619.5 267 a 10 10 0 0 0 10 -10 v -70 a 10 10 0 0 1 10 -10"></path><path d="M 537.0 177 a 10 10 0 0 1 10 10 v 100 a 10 10 0 0 0 10 10"></path><g class="terminal ">
<path d="M 557.0 297 h 4.25"></path><path d="M 615.25 297 h 4.25"></path><rect height="22" rx="10" ry="10" width="54.0" x="561.25" y="286"></rect><text x="588.25" y="301">"qc"</text></g><path d="M 619.5 297 a 10 10 0 0 0 10 -10 v -100 a 10 10 0 0 1 10 -10"></path></g><path d="M 639.5 177 a 10 10 0 0 1 10 10 v 119 a 10 10 0 0 0 10 10"></path><path d="M 639.5 68 a 10 10 0 0 1 10 10 v 89 a 10 10 0 0 0 10 10"></path><g>
<path d="M 659.5 177 h 0.0"></path><path d="M 762.0 177 h 0.0"></path><path d="M 659.5 177 a 10 10 0 0 0 10 -10 v -10 a 10 10 0 0 1 10 -10"></path><g class="terminal ">
<path d="M 679.5 147 h 0.0"></path><path d="M 742.0 147 h 0.0"></path><rect height="22" rx="10" ry="10" width="62.5" x="679.5" y="136"></rect><text x="710.75" y="151">"qm1"</text></g><path d="M 742.0 147 a 10 10 0 0 1 10 10 v 10 a 10 10 0 0 0 10 10"></path><path d="M 659.5 177 a 10 10 0 0 0 10 -10 v -40 a 10 10 0 0 1 10 -10"></path><g class="terminal ">
<path d="M 679.5 117 h 4.25"></path><path d="M 737.75 117 h 4.25"></path><rect height="22" rx="10" ry="10" width="54.0" x="683.75" y="106"></rect><text x="710.75" y="121">"qm"</text></g><path d="M 742.0 117 a 10 10 0 0 1 10 10 v 40 a 10 10 0 0 0 10 10"></path><path d="M 659.5 177 a 10 10 0 0 0 10 -10 v -70 a 10 10 0 0 1 10 -10"></path><g class="terminal ">
<path d="M 679.5 87 h 4.25"></path><path d="M 737.75 87 h 4.25"></path><rect height="22" rx="10" ry="10" width="54.0" x="683.75" y="76"></rect><text x="710.75" y="91">"qr"</text></g><path d="M 742.0 87 a 10 10 0 0 1 10 10 v 70 a 10 10 0 0 0 10 10"></path><path d="M 659.5 177 h 20"></path><g class="terminal ">
<path d="M 679.5 177 h 0.0"></path><path d="M 742.0 177 h 0.0"></path><rect height="22" rx="10" ry="10" width="62.5" x="679.5" y="166"></rect><text x="710.75" y="181">"qm2"</text></g><path d="M 742.0 177 h 20"></path><path d="M 659.5 177 a 10 10 0 0 1 10 10 v 10 a 10 10 0 0 0 10 10"></path><g class="terminal ">
<path d="M 679.5 207 h 0.0"></path><path d="M 742.0 207 h 0.0"></path><rect height="22" rx="10" ry="10" width="62.5" x="679.5" y="196"></rect><text x="710.75" y="211">"qm3"</text></g><path d="M 742.0 207 a 10 10 0 0 0 10 -10 v -10 a 10 10 0 0 1 10 -10"></path><path d="M 659.5 177 a 10 10 0 0 1 10 10 v 40 a 10 10 0 0 0 10 10"></path><g class="terminal ">
<path d="M 679.5 237 h 4.25"></path><path d="M 737.75 237 h 4.25"></path><rect height="22" rx="10" ry="10" width="54.0" x="683.75" y="226"></rect><text x="710.75" y="241">"qd"</text></g><path d="M 742.0 237 a 10 10 0 0 0 10 -10 v -40 a 10 10 0 0 1 10 -10"></path><path d="M 659.5 177 a 10 10 0 0 1 10 10 v 70 a 10 10 0 0 0 10 10"></path><g class="terminal ">
<path d="M 679.5 267 h 8.5"></path><path d="M 733.5 267 h 8.5"></path><rect height="22" rx="10" ry="10" width="45.5" x="688.0" y="256"></rect><text x="710.75" y="271">"b"</text></g><path d="M 742.0 267 a 10 10 0 0 0 10 -10 v -70 a 10 10 0 0 1 10 -10"></path><path d="M 659.5 177 a 10 10 0 0 1 10 10 v 100 a 10 10 0 0 0 10 10"></path><g class="terminal ">
<path d="M 679.5 297 h 8.5"></path><path d="M 733.5 297 h 8.5"></path><rect height="22" rx="10" ry="10" width="45.5" x="688.0" y="286"></rect><text x="710.75" y="301">"d"</text></g><path d="M 742.0 297 a 10 10 0 0 0 10 -10 v -100 a 10 10 0 0 1 10 -10"></path></g><path d="M 762.0 177 a 10 10 0 0 1 10 10 v 119 a 10 10 0 0 0 10 10"></path><path d="M 762.0 68 a 10 10 0 0 1 10 10 v 89 a 10 10 0 0 0 10 10"></path><g>
<path d="M 782.0 177 h 0.0"></path><path d="M 884.5 177 h 0.0"></path><path d="M 782.0 177 a 10 10 0 0 0 10 -10 v -10 a 10 10 0 0 1 10 -10"></path><g class="terminal ">
<path d="M 802.0 147 h 0.0"></path><path d="M 864.5 147 h 0.0"></path><rect height="22" rx="10" ry="10" width="62.5" x="802.0" y="136"></rect><text x="833.25" y="151">"ms2"</text></g><path d="M 864.5 147 a 10 10 0 0 1 10 10 v 10 a 10 10 0 0 0 10 10"></path><path d="M 782.0 177 a 10 10 0 0 0 10 -10 v -40 a 10 10 0 0 1 10 -10"></path><g class="terminal ">
<path d="M 802.0 117 h 0.0"></path><path d="M 864.5 117 h 0.0"></path><rect height="22" rx="10" ry="10" width="62.5" x="802.0" y="106"></rect><text x="833.25" y="121">"ms1"</text></g><path d="M 864.5 117 a 10 10 0 0 1 10 10 v 40 a 10 10 0 0 0 10 10"></path><path d="M 782.0 177 a 10 10 0 0 0 10 -10 v -70 a 10 10 0 0 1 10 -10"></path><g class="terminal ">
<path d="M 802.0 87 h 4.25"></path><path d="M 860.25 87 h 4.25"></path><rect height="22" rx="10" ry="10" width="54.0" x="806.25" y="76"></rect><text x="833.25" y="91">"ms"</text></g><path d="M 864.5 87 a 10 10 0 0 1 10 10 v 70 a 10 10 0 0 0 10 10"></path><path d="M 782.0 177 h 20"></path><g class="terminal ">
<path d="M 802.0 177 h 0.0"></path><path d="M 864.5 177 h 0.0"></path><rect height="22" rx="10" ry="10" width="62.5" x="802.0" y="166"></rect><text x="833.25" y="181">"ms3"</text></g><path d="M 864.5 177 h 20"></path><path d="M 782.0 177 a 10 10 0 0 1 10 10 v 10 a 10 10 0 0 0 10 10"></path><g class="terminal ">
<path d="M 802.0 207 h 4.25"></path><path d="M 860.25 207 h 4.25"></path><rect height="22" rx="10" ry="10" width="54.0" x="806.25" y="196"></rect><text x="833.25" y="211">"mr"</text></g><path d="M 864.5 207 a 10 10 0 0 0 10 -10 v -10 a 10 10 0 0 1 10 -10"></path><path d="M 782.0 177 a 10 10 0 0 1 10 10 v 40 a 10 10 0 0 0 10 10"></path><g class="terminal ">
<path d="M 802.0 237 h 8.5"></path><path d="M 856.0 237 h 8.5"></path><rect height="22" rx="10" ry="10" width="45.5" x="810.5" y="226"></rect><text x="833.25" y="241">"r"</text></g><path d="M 864.5 237 a 10 10 0 0 0 10 -10 v -40 a 10 10 0 0 1 10 -10"></path><path d="M 782.0 177 a 10 10 0 0 1 10 10 v 70 a 10 10 0 0 0 10 10"></path><g class="terminal ">
<path d="M 802.0 267 h 8.5"></path><path d="M 856.0 267 h 8.5"></path><rect height="22" rx="10" ry="10" width="45.5" x="810.5" y="256"></rect><text x="833.25" y="271">"s"</text></g><path d="M 864.5 267 a 10 10 0 0 0 10 -10 v -70 a 10 10 0 0 1 10 -10"></path><path d="M 782.0 177 a 10 10 0 0 1 10 10 v 100 a 10 10 0 0 0 10 10"></path><g class="terminal ">
<path d="M 802.0 297 h 4.25"></path><path d="M 860.25 297 h 4.25"></path><rect height="22" rx="10" ry="10" width="54.0" x="806.25" y="286"></rect><text x="833.25" y="301">"s1"</text></g><path d="M 864.5 297 a 10 10 0 0 0 10 -10 v -100 a 10 10 0 0 1 10 -10"></path></g><path d="M 884.5 177 a 10 10 0 0 1 10 10 v 119 a 10 10 0 0 0 10 10"></path><path d="M 884.5 68 a 10 10 0 0 1 10 10 v 89 a 10 10 0 0 0 10 10"></path><g>
<path d="M 904.5 177 h 0.0"></path><path d="M 1007.0 177 h 0.0"></path><path d="M 904.5 177 a 10 10 0 0 0 10 -10 v -10 a 10 10 0 0 1 10 -10"></path><g class="terminal ">
<path d="M 924.5 147 h 4.25"></path><path d="M 982.75 147 h 4.25"></path><rect height="22" rx="10" ry="10" width="54.0" x="928.75" y="136"></rect><text x="955.75" y="151">"s4"</text></g><path d="M 987.0 147 a 10 10 0 0 1 10 10 v 10 a 10 10 0 0 0 10 10"></path><path d="M 904.5 177 a 10 10 0 0 0 10 -10 v -40 a 10 10 0 0 1 10 -10"></path><g class="terminal ">
<path d="M 924.5 117 h 4.25"></path><path d="M 982.75 117 h 4.25"></path><rect height="22" rx="10" ry="10" width="54.0" x="928.75" y="106"></rect><text x="955.75" y="121">"s3"</text></g><path d="M 987.0 117 a 10 10 0 0 1 10 10 v 40 a 10 10 0 0 0 10 10"></path><path d="M 904.5 177 a 10 10 0 0 0 10 -10 v -70 a 10 10 0 0 1 10 -10"></path><g class="terminal ">
<path d="M 924.5 87 h 4.25"></path><path d="M 982.75 87 h 4.25"></path><rect height="22" rx="10" ry="10" width="54.0" x="928.75" y="76"></rect><text x="955.75" y="91">"s2"</text></g><path d="M 987.0 87 a 10 10 0 0 1 10 10 v 70 a 10 10 0 0 0 10 10"></path><path d="M 904.5 177 h 20"></path><g class="terminal ">
<path d="M 924.5 177 h 4.25"></path><path d="M 982.75 177 h 4.25"></path><rect height="22" rx="10" ry="10" width="54.0" x="928.75" y="166"></rect><text x="955.75" y="181">"sr"</text></g><path d="M 987.0 177 h 20"></path><path d="M 904.5 177 a 10 10 0 0 1 10 10 v 10 a 10 10 0 0 0 10 10"></path><g class="terminal ">
<path d="M 924.5 207 h 4.25"></path><path d="M 982.75 207 h 4.25"></path><rect height="22" rx="10" ry="10" width="54.0" x="928.75" y="196"></rect><text x="955.75" y="211">"sp"</text></g><path d="M 987.0 207 a 10 10 0 0 0 10 -10 v -10 a 10 10 0 0 1 10 -10"></path><path d="M 904.5 177 a 10 10 0 0 1 10 10 v 40 a 10 10 0 0 0 10 10"></path><g class="terminal ">
<path d="M 924.5 237 h 4.25"></path><path d="M 982.75 237 h 4.25"></path><rect height="22" rx="10" ry="10" width="54.0" x="928.75" y="226"></rect><text x="955.75" y="241">"sd"</text></g><path d="M 987.0 237 a 10 10 0 0 0 10 -10 v -40 a 10 10 0 0 1 10 -10"></path><path d="M 904.5 177 a 10 10 0 0 1 10 10 v 70 a 10 10 0 0 0 10 10"></path><g class="terminal ">
<path d="M 924.5 267 h 0.0"></path><path d="M 987.0 267 h 0.0"></path><rect height="22" rx="10" ry="10" width="62.5" x="924.5" y="256"></rect><text x="955.75" y="271">"sd1"</text></g><path d="M 987.0 267 a 10 10 0 0 0 10 -10 v -70 a 10 10 0 0 1 10 -10"></path><path d="M 904.5 177 a 10 10 0 0 1 10 10 v 100 a 10 10 0 0 0 10 10"></path><g class="terminal ">
<path d="M 924.5 297 h 0.0"></path><path d="M 987.0 297 h 0.0"></path><rect height="22" rx="10" ry="10" width="62.5" x="924.5" y="286"></rect><text x="955.75" y="301">"sd2"</text></g><path d="M 987.0 297 a 10 10 0 0 0 10 -10 v -100 a 10 10 0 0 1 10 -10"></path></g><path d="M 1007.0 177 a 10 10 0 0 1 10 10 v 119 a 10 10 0 0 0 10 10"></path><path d="M 1007.0 68 a 10 10 0 0 1 10 10 v 89 a 10 10 0 0 0 10 10"></path><g>
<path d="M 1027.0 177 h 0.0"></path><path d="M 1138.0 177 h 0.0"></path><path d="M 1027.0 177 a 10 10 0 0 0 10 -10 v -10 a 10 10 0 0 1 10 -10"></path><g class="terminal ">
<path d="M 1047.0 147 h 8.5"></path><path d="M 1109.5 147 h 8.5"></path><rect height="22" rx="10" ry="10" width="54.0" x="1055.5" y="136"></rect><text x="1082.5" y="151">"ts"</text></g><path d="M 1118.0 147 a 10 10 0 0 1 10 10 v 10 a 10 10 0 0 0 10 10"></path><path d="M 1027.0 177 a 10 10 0 0 0 10 -10 v -40 a 10 10 0 0 1 10 -10"></path><g class="terminal ">
<path d="M 1047.0 117 h 4.25"></path><path d="M 1113.75 117 h 4.25"></path><rect height="22" rx="10" ry="10" width="62.5" x="1051.25" y="106"></rect><text x="1082.5" y="121">"sd4"</text></g><path d="M 1118.0 117 a 10 10 0 0 1 10 10 v 40 a 10 10 0 0 0 10 10"></path><path d="M 1027.0 177 a 10 10 0 0 0 10 -10 v -70 a 10 10 0 0 1 10 -10"></path><g class="terminal ">
<path d="M 1047.0 87 h 4.25"></path><path d="M 1113.75 87 h 4.25"></path><rect height="22" rx="10" ry="10" width="62.5" x="1051.25" y="76"></rect><text x="1082.5" y="91">"sd3"</text></g><path d="M 1118.0 87 a 10 10 0 0 1 10 10 v 70 a 10 10 0 0 0 10 10"></path><path d="M 1027.0 177 h 20"></path><g class="terminal ">
<path d="M 1047.0 177 h 8.5"></path><path d="M 1109.5 177 h 8.5"></path><rect height="22" rx="10" ry="10" width="54.0" x="1055.5" y="166"></rect><text x="1082.5" y="181">"cp"</text></g><path d="M 1118.0 177 h 20"></path><path d="M 1027.0 177 a 10 10 0 0 1 10 10 v 10 a 10 10 0 0 0 10 10"></path><g class="terminal ">
<path d="M 1047.0 207 h 8.5"></path><path d="M 1109.5 207 h 8.5"></path><rect height="22" rx="10" ry="10" width="54.0" x="1055.5" y="196"></rect><text x="1082.5" y="211">"cl"</text></g><path d="M 1118.0 207 a 10 10 0 0 0 10 -10 v -10 a 10 10 0 0 1 10 -10"></path><path d="M 1027.0 177 a 10 10 0 0 1 10 10 v 40 a 10 10 0 0 0 10 10"></path><g class="terminal ">
<path d="M 1047.0 237 h 8.5"></path><path d="M 1109.5 237 h 8.5"></path><rect height="22" rx="10" ry="10" width="54.0" x="1055.5" y="226"></rect><text x="1082.5" y="241">"cd"</text></g><path d="M 1118.0 237 a 10 10 0 0 0 10 -10 v -40 a 10 10 0 0 1 10 -10"></path><path d="M 1027.0 177 a 10 10 0 0 1 10 10 v 70 a 10 10 0 0 0 10 10"></path><g class="terminal ">
<path d="M 1047.0 267 h 4.25"></path><path d="M 1113.75 267 h 4.25"></path><rect height="22" rx="10" ry="10" width="62.5" x="1051.25" y="256"></rect><text x="1082.5" y="271">"mte"</text></g><path d="M 1118.0 267 a 10 10 0 0 0 10 -10 v -70 a 10 10 0 0 1 10 -10"></path><path d="M 1027.0 177 a 10 10 0 0 1 10 10 v 100 a 10 10 0 0 0 10 10"></path><g class="terminal ">
<path d="M 1047.0 297 h 0.0"></path><path d="M 1118.0 297 h 0.0"></path><rect height="22" rx="10" ry="10" width="71.0" x="1047.0" y="286"></rect><text x="1082.5" y="301">"mte1"</text></g><path d="M 1118.0 297 a 10 10 0 0 0 10 -10 v -100 a 10 10 0 0 1 10 -10"></path></g><path d="M 1138.0 177 a 10 10 0 0 1 10 10 v 119 a 10 10 0 0 0 10 10"></path><path d="M 1138.0 68 a 10 10 0 0 1 10 10 v 89 a 10 10 0 0 0 10 10"></path><g>
<path d="M 1158.0 177 h 0.0"></path><path d="M 1269.0 177 h 0.0"></path><path d="M 1158.0 177 a 10 10 0 0 0 10 -10 v -10 a 10 10 0 0 1 10 -10"></path><g class="terminal ">
<path d="M 1178.0 147 h 8.5"></path><path d="M 1240.5 147 h 8.5"></path><rect height="22" rx="10" ry="10" width="54.0" x="1186.5" y="136"></rect><text x="1213.5" y="151">"p1"</text></g><path d="M 1249.0 147 a 10 10 0 0 1 10 10 v 10 a 10 10 0 0 0 10 10"></path><path d="M 1158.0 177 a 10 10 0 0 0 10 -10 v -40 a 10 10 0 0 1 10 -10"></path><g class="terminal ">
<path d="M 1178.0 117 h 12.75"></path><path d="M 1236.25 117 h 12.75"></path><rect height="22" rx="10" ry="10" width="45.5" x="1190.75" y="106"></rect><text x="1213.5" y="121">"p"</text></g><path d="M 1249.0 117 a 10 10 0 0 1 10 10 v 40 a 10 10 0 0 0 10 10"></path><path d="M 1158.0 177 a 10 10 0 0 0 10 -10 v -70 a 10 10 0 0 1 10 -10"></path><g class="terminal ">
<path d="M 1178.0 87 h 0.0"></path><path d="M 1249.0 87 h 0.0"></path><rect height="22" rx="10" ry="10" width="71.0" x="1178.0" y="76"></rect><text x="1213.5" y="91">"mte2"</text></g><path d="M 1249.0 87 a 10 10 0 0 1 10 10 v 70 a 10 10 0 0 0 10 10"></path><path d="M 1158.0 177 h 20"></path><g class="terminal ">
<path d="M 1178.0 177 h 8.5"></path><path d="M 1240.5 177 h 8.5"></path><rect height="22" rx="10" ry="10" width="54.0" x="1186.5" y="166"></rect><text x="1213.5" y="181">"p2"</text></g><path d="M 1249.0 177 h 20"></path><path d="M 1158.0 177 a 10 10 0 0 1 10 10 v 10 a 10 10 0 0 0 10 10"></path><g class="terminal ">
<path d="M 1178.0 207 h 8.5"></path><path d="M 1240.5 207 h 8.5"></path><rect height="22" rx="10" ry="10" width="54.0" x="1186.5" y="196"></rect><text x="1213.5" y="211">"k1"</text></g><path d="M 1249.0 207 a 10 10 0 0 0 10 -10 v -10 a 10 10 0 0 1 10 -10"></path><path d="M 1158.0 177 a 10 10 0 0 1 10 10 v 40 a 10 10 0 0 0 10 10"></path><g class="terminal ">
<path d="M 1178.0 237 h 8.5"></path><path d="M 1240.5 237 h 8.5"></path><rect height="22" rx="10" ry="10" width="54.0" x="1186.5" y="226"></rect><text x="1213.5" y="241">"k2"</text></g><path d="M 1249.0 237 a 10 10 0 0 0 10 -10 v -40 a 10 10 0 0 1 10 -10"></path><path d="M 1158.0 177 a 10 10 0 0 1 10 10 v 70 a 10 10 0 0 0 10 10"></path><g class="terminal ">
<path d="M 1178.0 267 h 4.25"></path><path d="M 1244.75 267 h 4.25"></path><rect height="22" rx="10" ry="10" width="62.5" x="1182.25" y="256"></rect><text x="1213.5" y="271">"rem"</text></g><path d="M 1249.0 267 a 10 10 0 0 0 10 -10 v -70 a 10 10 0 0 1 10 -10"></path></g><path d="M 1269.0 177 h 10"></path></g></g><g class="non-terminal ">
<path d="M 60.0 52 h 0.0"></path><path d="M 77.0 52 h 0.0"></path><text class="comment" x="68.5" y="57">➊</text></g></g><path d="M 1289.0 177 h 10"></path><path d="M 1299.0 177 h 10"></path><g>
<path d="M 1309.0 177 h 0.0"></path><path d="M 1555.5 177 h 0.0"></path><path d="M 1309.0 177 h 10"></path><g>
<path d="M 1319.0 177 h 0.0"></path><path d="M 1545.5 177 h 0.0"></path><path d="M 1319.0 177 h 20"></path><g class="non-terminal ">
<path d="M 1339.0 177 h 45.0"></path><path d="M 1480.5 177 h 45.0"></path><rect height="22" width="96.5" x="1384.0" y="166"></rect><text x="1432.25" y="181">Reference</text></g><path d="M 1525.5 177 h 20"></path><path d="M 1319.0 177 a 10 10 0 0 1 10 10 v 10 a 10 10 0 0 0 10 10"></path><g class="non-terminal ">
<path d="M 1339.0 207 h 49.25"></path><path d="M 1476.25 207 h 49.25"></path><rect height="22" width="88.0" x="1388.25" y="196"></rect><text x="1432.25" y="211">Footnote</text></g><path d="M 1525.5 207 a 10 10 0 0 0 10 -10 v -10 a 10 10 0 0 1 10 -10"></path><path d="M 1319.0 177 a 10 10 0 0 1 10 10 v 40 a 10 10 0 0 0 10 10"></path><g class="non-terminal ">
<path d="M 1339.0 237 h 23.75"></path><path d="M 1501.75 237 h 23.75"></path><rect height="22" width="139.0" x="1362.75" y="226"></rect><text x="1432.25" y="241">CrossReference</text></g><path d="M 1525.5 237 a 10 10 0 0 0 10 -10 v -40 a 10 10 0 0 1 10 -10"></path><path d="M 1319.0 177 a 10 10 0 0 1 10 10 v 70 a 10 10 0 0 0 10 10"></path><g class="non-terminal ">
<path d="M 1339.0 267 h 66.25"></path><path d="M 1459.25 267 h 66.25"></path><rect height="22" width="54.0" x="1405.25" y="256"></rect><text x="1432.25" y="271">Char</text></g><path d="M 1525.5 267 a 10 10 0 0 0 10 -10 v -70 a 10 10 0 0 1 10 -10"></path><path d="M 1319.0 177 a 10 10 0 0 1 10 10 v 100 a 10 10 0 0 0 10 10"></path><g class="non-terminal ">
<path d="M 1339.0 297 h 45.0"></path><path d="M 1480.5 297 h 45.0"></path><rect height="22" width="96.5" x="1384.0" y="286"></rect><text x="1432.25" y="301">Milestone</text></g><path d="M 1525.5 297 a 10 10 0 0 0 10 -10 v -100 a 10 10 0 0 1 10 -10"></path><path d="M 1319.0 177 a 10 10 0 0 1 10 10 v 130 a 10 10 0 0 0 10 10"></path><g class="non-terminal ">
<path d="M 1339.0 327 h 57.75"></path><path d="M 1467.75 327 h 57.75"></path><rect height="22" width="71.0" x="1396.75" y="316"></rect><text x="1432.25" y="331">Figure</text></g><path d="M 1525.5 327 a 10 10 0 0 0 10 -10 v -130 a 10 10 0 0 1 10 -10"></path><path d="M 1319.0 177 a 10 10 0 0 1 10 10 v 160 a 10 10 0 0 0 10 10"></path><g class="non-terminal ">
<path d="M 1339.0 357 h 62.0"></path><path d="M 1463.5 357 h 62.0"></path><rect height="22" width="62.5" x="1401.0" y="346"></rect><text x="1432.25" y="361">Verse</text></g><path d="M 1525.5 357 a 10 10 0 0 0 10 -10 v -160 a 10 10 0 0 1 10 -10"></path><path d="M 1319.0 177 a 10 10 0 0 1 10 10 v 214 a 10 10 0 0 0 10 10"></path><g>
<path d="M 1339.0 411 h 0.0"></path><path d="M 1525.5 411 h 0.0"></path><rect class="group-box" height="68" rx="10" ry="10" width="186.5" x="1339.0" y="392"></rect><g>
<path d="M 1339.0 411 h 10.0"></path><path d="M 1515.5 411 h 10.0"></path><g class="terminal ">
<path d="M 1349.0 411 h 0.0"></path><path d="M 1403.0 411 h 0.0"></path><rect height="22" rx="10" ry="10" width="54.0" x="1349.0" y="400"></rect><text x="1376.0" y="415">"\b"</text></g><path d="M 1403.0 411 h 10"></path><g>
<path d="M 1413.0 411 h 0.0"></path><path d="M 1515.5 411 h 0.0"></path><path d="M 1413.0 411 h 20"></path><g class="terminal ">
<path d="M 1433.0 411 h 0.0"></path><path d="M 1495.5 411 h 0.0"></path><rect height="22" rx="10" ry="10" width="62.5" x="1433.0" y="400"></rect><text x="1464.25" y="415">⇒ "\"</text></g><path d="M 1495.5 411 h 20"></path><path d="M 1413.0 411 a 10 10 0 0 1 10 10 v 10 a 10 10 0 0 0 10 10"></path><g class="terminal ">
<path d="M 1433.0 441 h 12.75"></path><path d="M 1482.75 441 h 12.75"></path><rect height="22" rx="10" ry="10" width="37.0" x="1445.75" y="430"></rect><text x="1464.25" y="445">WS</text></g><path d="M 1495.5 441 a 10 10 0 0 0 10 -10 v -10 a 10 10 0 0 1 10 -10"></path></g></g><g class="non-terminal ">
<path d="M 1339.0 384 h 0.0"></path><path d="M 1384.0 384 h 0.0"></path><text class="comment" x="1361.5" y="389">Break</text></g></g><path d="M 1525.5 411 a 10 10 0 0 0 10 -10 v -214 a 10 10 0 0 1 10 -10"></path><path d="M 1319.0 177 a 10 10 0 0 1 10 10 v 271 a 10 10 0 0 0 10 10"></path><g>
<path d="M 1339.0 468 h 17.75"></path><path d="M 1507.75 468 h 17.75"></path><path d="M 1356.75 468 h 20"></path><g>
<path d="M 1376.75 468 h 111.0"></path></g><path d="M 1487.75 468 h 20"></path><path d="M 1356.75 468 a 10 10 0 0 1 10 10 v 0 a 10 10 0 0 0 10 10"></path><g>
<path d="M 1376.75 488 h 0.0"></path><path d="M 1487.75 488 h 0.0"></path><g class="terminal ">
<path d="M 1376.75 488 h 0.0"></path><path d="M 1413.75 488 h 0.0"></path><rect height="22" rx="10" ry="10" width="37.0" x="1376.75" y="477"></rect><text x="1395.25" y="492">WS</text></g><path d="M 1413.75 488 h 10"></path><path d="M 1423.75 488 h 10"></path><g class="terminal ">
<path d="M 1433.75 488 h 0.0"></path><path d="M 1487.75 488 h 0.0"></path><rect height="22" rx="10" ry="10" width="54.0" x="1433.75" y="477"></rect><text x="1460.75" y="492">Text</text></g></g><path d="M 1487.75 488 a 10 10 0 0 0 10 -10 v 0 a 10 10 0 0 1 10 -10"></path></g><path d="M 1525.5 468 a 10 10 0 0 0 10 -10 v -271 a 10 10 0 0 1 10 -10"></path></g><path d="M 1545.5 177 h 10"></path><path d="M 1319.0 177 a 10 10 0 0 0 -10 10 v 310 a 10 10 0 0 0 10 10"></path><g>
<path d="M 1319.0 507 h 226.5"></path></g><path d="M 1545.5 507 a 10 10 0 0 0 10 -10 v -310 a 10 10 0 0 0 -10 -10"></path></g><path d="M 1555.5 177 h 10"></path><g>
<path d="M 1565.5 177 h 0.0"></path><path d="M 1716.5 177 h 0.0"></path><path d="M 1565.5 177 h 20"></path><g>
<path d="M 1585.5 177 h 111.0"></path></g><path d="M 1696.5 177 h 20"></path><path d="M 1565.5 177 a 10 10 0 0 1 10 10 v 0 a 10 10 0 0 0 10 10"></path><g>
<path d="M 1585.5 197 h 0.0"></path><path d="M 1696.5 197 h 0.0"></path><g class="terminal ">
<path d="M 1585.5 197 h 0.0"></path><path d="M 1631.0 197 h 0.0"></path><rect height="22" rx="10" ry="10" width="45.5" x="1585.5" y="186"></rect><text x="1608.25" y="201">⇐ ➊</text></g><path d="M 1631.0 197 h 10"></path><path d="M 1641.0 197 h 10"></path><g class="terminal ">
<path d="M 1651.0 197 h 0.0"></path><path d="M 1696.5 197 h 0.0"></path><rect height="22" rx="10" ry="10" width="45.5" x="1651.0" y="186"></rect><text x="1673.75" y="201">"&#42;"</text></g></g><path d="M 1696.5 197 a 10 10 0 0 0 10 -10 v 0 a 10 10 0 0 1 10 -10"></path></g></g><g class="non-terminal ">
<path d="M 50.0 28 h 0.0"></path><path d="M 88.0 28 h 0.0"></path><text class="comment" x="69.0" y="33">Para</text></g></g><path d="M 1726.5 177 h 10"></path><path d="M 1736.5 177 h 20 m 0 -10 v 20"></path></g></svg>