<svg class="railroad-diagram" height="858" viewBox="0 0 1108.5 858" width="1108.5" xmlns="http://www.w3.org/2000/svg" xmlns:xlink="http://www.w3.org/1999/xlink">
<g transform="translate(.5 .5)">
<style>/* <![CDATA[ */

    svg.railroad-diagram {
        background-color: hsl(30,20%,95%);
    }
    svg.railroad-diagram path {
        stroke-width: 2;
        stroke: black;
        fill: none;
    }
    svg.railroad-diagram text {
        font-size: 12px;
        text-anchor: middle;
        font-family: DejaVu Sans;
    }
    svg.railroad-diagram text.label {
        text-anchor:start;
    }
    svg.railroad-diagram text.comment {
        font-family: DejaVu Sans;
        font-size: 14px;
    }
    svg.railroad-diagram rect{
        stroke-width: 2;
        stroke: black;
        fill: rgb(210, 255, 210);
    }
    svg.railroad-diagram rect.group-box {
        stroke: gray;
        stroke-dasharray: 10 5;
        fill: none;
    }
    .terminal {
        font-family: DejaVu Sans;
    }
    svg.railroad-diagram g.altterminal rect {
        fill: rgb(251, 252, 207)
    }

/* ]]> */
</style><g>
<path d="M 20 131 v 20 m 0 -10 h 20"></path></g><path d="M 40 141 h 10"></path><g>
<path d="M 50 141 h 0.0"></path><path d="M 1058.5 141 h 0.0"></path><g>
<path d="M 50.0 141 h 0.0"></path><path d="M 785.0 141 h 0.0"></path><path d="M 50.0 141 h 20"></path><g>
<path d="M 70.0 141 h 152.5"></path><path d="M 612.5 141 h 152.5"></path><g>
<path d="M 222.5 141 h 0.0"></path><path d="M 359.0 141 h 0.0"></path><path d="M 222.5 141 h 20"></path><g class="terminal ">
<path d="M 242.5 141 h 12.75"></path><path d="M 326.25 141 h 12.75"></path><rect height="22" rx="10" ry="10" width="71.0" x="255.25" y="130"></rect><text x="290.75" y="145">'\n\\'</text></g><path d="M 339.0 141 h 20"></path><path d="M 222.5 141 a 10 10 0 0 1 10 10 v 10 a 10 10 0 0 0 10 10"></path><g class="terminal altterminal">
<path d="M 242.5 171 h 0.0"></path><path d="M 339.0 171 h 0.0"></path><rect height="22" rx="10" ry="10" width="96.5" x="242.5" y="160"></rect><text x="290.75" y="175">/${Ws}\\/</text></g><path d="M 339.0 171 a 10 10 0 0 0 10 -10 v -10 a 10 10 0 0 1 10 -10"></path></g><path d="M 359.0 141 h 10"></path><path d="M 369.0 141 h 10"></path><g>
<path d="M 379.0 141 h 0.0"></path><path d="M 481.5 141 h 0.0"></path><g>
<path d="M 379.0 141 h 0.0"></path><path d="M 481.5 141 h 0.0"></path><path d="M 379.0 141 a 10 10 0 0 0 10 -10 v -10 a 10 10 0 0 1 10 -10"></path><g class="terminal ">
<path d="M 399.0 111 h 4.25"></path><path d="M 457.25 111 h 4.25"></path><rect height="22" rx="10" ry="10" width="54.0" x="403.25" y="100"></rect><text x="430.25" y="115">"pb"</text></g><path d="M 461.5 111 a 10 10 0 0 1 10 10 v 10 a 10 10 0 0 0 10 10"></path><path d="M 379.0 141 a 10 10 0 0 0 10 -10 v -40 a 10 10 0 0 1 10 -10"></path><g class="terminal ">
<path d="M 399.0 81 h 4.25"></path><path d="M 457.25 81 h 4.25"></path><rect height="22" rx="10" ry="10" width="54.0" x="403.25" y="70"></rect><text x="430.25" y="85">"cp"</text></g><path d="M 461.5 81 a 10 10 0 0 1 10 10 v 40 a 10 10 0 0 0 10 10"></path><path d="M 379.0 141 a 10 10 0 0 0 10 -10 v -70 a 10 10 0 0 1 10 -10"></path><g class="terminal ">
<path d="M 399.0 51 h 0.0"></path><path d="M 461.5 51 h 0.0"></path><rect height="22" rx="10" ry="10" width="62.5" x="399.0" y="40"></rect><text x="430.25" y="55">"lit"</text></g><path d="M 461.5 51 a 10 10 0 0 1 10 10 v 70 a 10 10 0 0 0 10 10"></path><path d="M 379.0 141 h 20"></path><g class="terminal ">
<path d="M 399.0 141 h 4.25"></path><path d="M 457.25 141 h 4.25"></path><rect height="22" rx="10" ry="10" width="54.0" x="403.25" y="130"></rect><text x="430.25" y="145">"p1"</text></g><path d="M 461.5 141 h 20"></path><path d="M 379.0 141 a 10 10 0 0 1 10 10 v 10 a 10 10 0 0 0 10 10"></path><g class="terminal ">
<path d="M 399.0 171 h 4.25"></path><path d="M 457.25 171 h 4.25"></path><rect height="22" rx="10" ry="10" width="54.0" x="403.25" y="160"></rect><text x="430.25" y="175">"p2"</text></g><path d="M 461.5 171 a 10 10 0 0 0 10 -10 v -10 a 10 10 0 0 1 10 -10"></path><path d="M 379.0 141 a 10 10 0 0 1 10 10 v 40 a 10 10 0 0 0 10 10"></path><g class="terminal ">
<path d="M 399.0 201 h 4.25"></path><path d="M 457.25 201 h 4.25"></path><rect height="22" rx="10" ry="10" width="54.0" x="403.25" y="190"></rect><text x="430.25" y="205">"qa"</text></g><path d="M 461.5 201 a 10 10 0 0 0 10 -10 v -40 a 10 10 0 0 1 10 -10"></path><path d="M 379.0 141 a 10 10 0 0 1 10 10 v 70 a 10 10 0 0 0 10 10"></path><g class="terminal ">
<path d="M 399.0 231 h 4.25"></path><path d="M 457.25 231 h 4.25"></path><rect height="22" rx="10" ry="10" width="54.0" x="403.25" y="220"></rect><text x="430.25" y="235">"k1"</text></g><path d="M 461.5 231 a 10 10 0 0 0 10 -10 v -70 a 10 10 0 0 1 10 -10"></path><path d="M 379.0 141 a 10 10 0 0 1 10 10 v 100 a 10 10 0 0 0 10 10"></path><g class="terminal ">
<path d="M 399.0 261 h 4.25"></path><path d="M 457.25 261 h 4.25"></path><rect height="22" rx="10" ry="10" width="54.0" x="403.25" y="250"></rect><text x="430.25" y="265">"k2"</text></g><path d="M 461.5 261 a 10 10 0 0 0 10 -10 v -100 a 10 10 0 0 1 10 -10"></path><path d="M 379.0 141 a 10 10 0 0 1 10 10 v 130 a 10 10 0 0 0 10 10"></path><g class="terminal ">
<path d="M 399.0 291 h 0.0"></path><path d="M 461.5 291 h 0.0"></path><rect height="22" rx="10" ry="10" width="62.5" x="399.0" y="280"></rect><text x="430.25" y="295">"rem"</text></g><path d="M 461.5 291 a 10 10 0 0 0 10 -10 v -130 a 10 10 0 0 1 10 -10"></path><path d="M 379.0 141 a 10 10 0 0 1 10 10 v 160 a 10 10 0 0 0 10 10"></path><g class="terminal ">
<path d="M 399.0 321 h 0.0"></path><path d="M 461.5 321 h 0.0"></path><rect height="22" rx="10" ry="10" width="62.5" x="399.0" y="310"></rect><text x="430.25" y="325">"sts"</text></g><path d="M 461.5 321 a 10 10 0 0 0 10 -10 v -160 a 10 10 0 0 1 10 -10"></path></g></g><path d="M 481.5 141 h 10"></path><path d="M 491.5 141 h 10"></path><g>
<path d="M 501.5 141 h 0.0"></path><path d="M 612.5 141 h 0.0"></path><path d="M 501.5 141 h 20"></path><g class="terminal ">
<path d="M 521.5 141 h 12.75"></path><path d="M 579.75 141 h 12.75"></path><rect height="22" rx="10" ry="10" width="45.5" x="534.25" y="130"></rect><text x="557.0" y="145">' '</text></g><path d="M 592.5 141 h 20"></path><path d="M 501.5 141 a 10 10 0 0 1 10 10 v 10 a 10 10 0 0 0 10 10"></path><g class="terminal altterminal">
<path d="M 521.5 171 h 0.0"></path><path d="M 592.5 171 h 0.0"></path><rect height="22" rx="10" ry="10" width="71.0" x="521.5" y="160"></rect><text x="557.0" y="175">TAGEND</text></g><path d="M 592.5 171 a 10 10 0 0 0 10 -10 v -10 a 10 10 0 0 1 10 -10"></path></g></g><path d="M 765.0 141 h 20"></path><path d="M 50.0 141 a 10 10 0 0 1 10 10 v 308 a 10 10 0 0 0 10 10"></path><g>
<path d="M 70.0 469 h 0.0"></path><path d="M 765.0 469 h 0.0"></path><g>
<path d="M 70.0 469 h 0.0"></path><path d="M 206.5 469 h 0.0"></path><path d="M 70.0 469 h 20"></path><g class="terminal ">
<path d="M 90.0 469 h 12.75"></path><path d="M 173.75 469 h 12.75"></path><rect height="22" rx="10" ry="10" width="71.0" x="102.75" y="458"></rect><text x="138.25" y="473">'\n\\'</text></g><path d="M 186.5 469 h 20"></path><path d="M 70.0 469 a 10 10 0 0 1 10 10 v 10 a 10 10 0 0 0 10 10"></path><g class="terminal altterminal">
<path d="M 90.0 499 h 0.0"></path><path d="M 186.5 499 h 0.0"></path><rect height="22" rx="10" ry="10" width="96.5" x="90.0" y="488"></rect><text x="138.25" y="503">/${Ws}\\/</text></g><path d="M 186.5 499 a 10 10 0 0 0 10 -10 v -10 a 10 10 0 0 1 10 -10"></path></g><path d="M 206.5 469 h 10"></path><g>
<path d="M 216.5 469 h 0.0"></path><path d="M 644.0 469 h 0.0"></path><path d="M 216.5 469 a 10 10 0 0 0 10 -10 v -99 a 10 10 0 0 1 10 -10 h 255.0"></path><path d="M 369.0 828 h 255.0 a 10 10 0 0 0 10 -10 v -339 a 10 10 0 0 1 10 -10"></path><path d="M 216.5 469 h 10"></path><g>
<path d="M 226.5 469 h 10.0"></path><path d="M 339.0 469 h 10.0"></path><path d="M 236.5 469 a 10 10 0 0 0 10 -10 v -10 a 10 10 0 0 1 10 -10"></path><g class="terminal ">
<path d="M 256.5 439 h 4.25"></path><path d="M 314.75 439 h 4.25"></path><rect height="22" rx="10" ry="10" width="54.0" x="260.75" y="428"></rect><text x="287.75" y="443">"pc"</text></g><path d="M 319.0 439 a 10 10 0 0 1 10 10 v 10 a 10 10 0 0 0 10 10"></path><path d="M 236.5 469 a 10 10 0 0 0 10 -10 v -40 a 10 10 0 0 1 10 -10"></path><g class="terminal ">
<path d="M 256.5 409 h 4.25"></path><path d="M 314.75 409 h 4.25"></path><rect height="22" rx="10" ry="10" width="54.0" x="260.75" y="398"></rect><text x="287.75" y="413">"nb"</text></g><path d="M 319.0 409 a 10 10 0 0 1 10 10 v 40 a 10 10 0 0 0 10 10"></path><path d="M 236.5 469 a 10 10 0 0 0 10 -10 v -70 a 10 10 0 0 1 10 -10"></path><g class="terminal ">
<path d="M 256.5 379 h 0.0"></path><path d="M 319.0 379 h 0.0"></path><rect height="22" rx="10" ry="10" width="62.5" x="256.5" y="368"></rect><text x="287.75" y="383">"cls"</text></g><path d="M 319.0 379 a 10 10 0 0 1 10 10 v 70 a 10 10 0 0 0 10 10"></path><path d="M 236.5 469 h 20"></path><g class="terminal ">
<path d="M 256.5 469 h 0.0"></path><path d="M 319.0 469 h 0.0"></path><rect height="22" rx="10" ry="10" width="62.5" x="256.5" y="458"></rect><text x="287.75" y="473">"pi1"</text></g><path d="M 319.0 469 h 20"></path><path d="M 236.5 469 a 10 10 0 0 1 10 10 v 10 a 10 10 0 0 0 10 10"></path><g class="terminal ">
<path d="M 256.5 499 h 0.0"></path><path d="M 319.0 499 h 0.0"></path><rect height="22" rx="10" ry="10" width="62.5" x="256.5" y="488"></rect><text x="287.75" y="503">"pi2"</text></g><path d="M 319.0 499 a 10 10 0 0 0 10 -10 v -10 a 10 10 0 0 1 10 -10"></path><path d="M 236.5 469 a 10 10 0 0 1 10 10 v 40 a 10 10 0 0 0 10 10"></path><g class="terminal ">
<path d="M 256.5 529 h 0.0"></path><path d="M 319.0 529 h 0.0"></path><rect height="22" rx="10" ry="10" width="62.5" x="256.5" y="518"></rect><text x="287.75" y="533">"pi3"</text></g><path d="M 319.0 529 a 10 10 0 0 0 10 -10 v -40 a 10 10 0 0 1 10 -10"></path><path d="M 236.5 469 a 10 10 0 0 1 10 10 v 70 a 10 10 0 0 0 10 10"></path><g class="terminal ">
<path d="M 256.5 559 h 4.25"></path><path d="M 314.75 559 h 4.25"></path><rect height="22" rx="10" ry="10" width="54.0" x="260.75" y="548"></rect><text x="287.75" y="563">"pi"</text></g><path d="M 319.0 559 a 10 10 0 0 0 10 -10 v -70 a 10 10 0 0 1 10 -10"></path><path d="M 236.5 469 a 10 10 0 0 1 10 10 v 100 a 10 10 0 0 0 10 10"></path><g class="terminal ">
<path d="M 256.5 589 h 4.25"></path><path d="M 314.75 589 h 4.25"></path><rect height="22" rx="10" ry="10" width="54.0" x="260.75" y="578"></rect><text x="287.75" y="593">"po"</text></g><path d="M 319.0 589 a 10 10 0 0 0 10 -10 v -100 a 10 10 0 0 1 10 -10"></path><path d="M 236.5 469 a 10 10 0 0 1 10 10 v 130 a 10 10 0 0 0 10 10"></path><g class="terminal ">
<path d="M 256.5 619 h 4.25"></path><path d="M 314.75 619 h 4.25"></path><rect height="22" rx="10" ry="10" width="54.0" x="260.75" y="608"></rect><text x="287.75" y="623">"pr"</text></g><path d="M 319.0 619 a 10 10 0 0 0 10 -10 v -130 a 10 10 0 0 1 10 -10"></path><path d="M 236.5 469 a 10 10 0 0 1 10 10 v 160 a 10 10 0 0 0 10 10"></path><g class="terminal ">
<path d="M 256.5 649 h 0.0"></path><path d="M 319.0 649 h 0.0"></path><rect height="22" rx="10" ry="10" width="62.5" x="256.5" y="638"></rect><text x="287.75" y="653">"pmo"</text></g><path d="M 319.0 649 a 10 10 0 0 0 10 -10 v -160 a 10 10 0 0 1 10 -10"></path><path d="M 236.5 469 a 10 10 0 0 1 10 10 v 190 a 10 10 0 0 0 10 10"></path><g class="terminal ">
<path d="M 256.5 679 h 0.0"></path><path d="M 319.0 679 h 0.0"></path><rect height="22" rx="10" ry="10" width="62.5" x="256.5" y="668"></rect><text x="287.75" y="683">"pmc"</text></g><path d="M 319.0 679 a 10 10 0 0 0 10 -10 v -190 a 10 10 0 0 1 10 -10"></path><path d="M 236.5 469 a 10 10 0 0 1 10 10 v 220 a 10 10 0 0 0 10 10"></path><g class="terminal ">
<path d="M 256.5 709 h 0.0"></path><path d="M 319.0 709 h 0.0"></path><rect height="22" rx="10" ry="10" width="62.5" x="256.5" y="698"></rect><text x="287.75" y="713">"pmr"</text></g><path d="M 319.0 709 a 10 10 0 0 0 10 -10 v -220 a 10 10 0 0 1 10 -10"></path><path d="M 236.5 469 a 10 10 0 0 1 10 10 v 250 a 10 10 0 0 0 10 10"></path><g class="terminal ">
<path d="M 256.5 739 h 4.25"></path><path d="M 314.75 739 h 4.25"></path><rect height="22" rx="10" ry="10" width="54.0" x="260.75" y="728"></rect><text x="287.75" y="743">"pm"</text></g><path d="M 319.0 739 a 10 10 0 0 0 10 -10 v -250 a 10 10 0 0 1 10 -10"></path><path d="M 236.5 469 a 10 10 0 0 1 10 10 v 280 a 10 10 0 0 0 10 10"></path><g class="terminal ">
<path d="M 256.5 769 h 0.0"></path><path d="M 319.0 769 h 0.0"></path><rect height="22" rx="10" ry="10" width="62.5" x="256.5" y="758"></rect><text x="287.75" y="773">"ph1"</text></g><path d="M 319.0 769 a 10 10 0 0 0 10 -10 v -280 a 10 10 0 0 1 10 -10"></path><path d="M 236.5 469 a 10 10 0 0 1 10 10 v 310 a 10 10 0 0 0 10 10"></path><g class="terminal ">
<path d="M 256.5 799 h 0.0"></path><path d="M 319.0 799 h 0.0"></path><rect height="22" rx="10" ry="10" width="62.5" x="256.5" y="788"></rect><text x="287.75" y="803">"ph2"</text></g><path d="M 319.0 799 a 10 10 0 0 0 10 -10 v -310 a 10 10 0 0 1 10 -10"></path></g><path d="M 349.0 469 a 10 10 0 0 1 10 10 v 339 a 10 10 0 0 0 10 10"></path><path d="M 349.0 350 a 10 10 0 0 1 10 10 v 99 a 10 10 0 0 0 10 10"></path><g>
<path d="M 369.0 469 h 10.0"></path><path d="M 481.5 469 h 10.0"></path><path d="M 379.0 469 a 10 10 0 0 0 10 -10 v -10 a 10 10 0 0 1 10 -10"></path><g class="terminal ">
<path d="M 399.0 439 h 8.5"></path><path d="M 453.0 439 h 8.5"></path><rect height="22" rx="10" ry="10" width="45.5" x="407.5" y="428"></rect><text x="430.25" y="443">"p"</text></g><path d="M 461.5 439 a 10 10 0 0 1 10 10 v 10 a 10 10 0 0 0 10 10"></path><path d="M 379.0 469 a 10 10 0 0 0 10 -10 v -40 a 10 10 0 0 1 10 -10"></path><g class="terminal ">
<path d="M 399.0 409 h 4.25"></path><path d="M 457.25 409 h 4.25"></path><rect height="22" rx="10" ry="10" width="54.0" x="403.25" y="398"></rect><text x="430.25" y="413">"ph"</text></g><path d="M 461.5 409 a 10 10 0 0 1 10 10 v 40 a 10 10 0 0 0 10 10"></path><path d="M 379.0 469 a 10 10 0 0 0 10 -10 v -70 a 10 10 0 0 1 10 -10"></path><g class="terminal ">
<path d="M 399.0 379 h 0.0"></path><path d="M 461.5 379 h 0.0"></path><rect height="22" rx="10" ry="10" width="62.5" x="399.0" y="368"></rect><text x="430.25" y="383">"ph3"</text></g><path d="M 461.5 379 a 10 10 0 0 1 10 10 v 70 a 10 10 0 0 0 10 10"></path><path d="M 379.0 469 h 20"></path><g class="terminal ">
<path d="M 399.0 469 h 4.25"></path><path d="M 457.25 469 h 4.25"></path><rect height="22" rx="10" ry="10" width="54.0" x="403.25" y="458"></rect><text x="430.25" y="473">"q1"</text></g><path d="M 461.5 469 h 20"></path><path d="M 379.0 469 a 10 10 0 0 1 10 10 v 10 a 10 10 0 0 0 10 10"></path><g class="terminal ">
<path d="M 399.0 499 h 4.25"></path><path d="M 457.25 499 h 4.25"></path><rect height="22" rx="10" ry="10" width="54.0" x="403.25" y="488"></rect><text x="430.25" y="503">"q2"</text></g><path d="M 461.5 499 a 10 10 0 0 0 10 -10 v -10 a 10 10 0 0 1 10 -10"></path><path d="M 379.0 469 a 10 10 0 0 1 10 10 v 40 a 10 10 0 0 0 10 10"></path><g class="terminal ">
<path d="M 399.0 529 h 4.25"></path><path d="M 457.25 529 h 4.25"></path><rect height="22" rx="10" ry="10" width="54.0" x="403.25" y="518"></rect><text x="430.25" y="533">"q3"</text></g><path d="M 461.5 529 a 10 10 0 0 0 10 -10 v -40 a 10 10 0 0 1 10 -10"></path><path d="M 379.0 469 a 10 10 0 0 1 10 10 v 70 a 10 10 0 0 0 10 10"></path><g class="terminal ">
<path d="M 399.0 559 h 4.25"></path><path d="M 457.25 559 h 4.25"></path><rect height="22" rx="10" ry="10" width="54.0" x="403.25" y="548"></rect><text x="430.25" y="563">"q4"</text></g><path d="M 461.5 559 a 10 10 0 0 0 10 -10 v -70 a 10 10 0 0 1 10 -10"></path><path d="M 379.0 469 a 10 10 0 0 1 10 10 v 100 a 10 10 0 0 0 10 10"></path><g class="terminal ">
<path d="M 399.0 589 h 4.25"></path><path d="M 457.25 589 h 4.25"></path><rect height="22" rx="10" ry="10" width="54.0" x="403.25" y="578"></rect><text x="430.25" y="593">"qc"</text></g><path d="M 461.5 589 a 10 10 0 0 0 10 -10 v -100 a 10 10 0 0 1 10 -10"></path><path d="M 379.0 469 a 10 10 0 0 1 10 10 v 130 a 10 10 0 0 0 10 10"></path><g class="terminal ">
<path d="M 399.0 619 h 4.25"></path><path d="M 457.25 619 h 4.25"></path><rect height="22" rx="10" ry="10" width="54.0" x="403.25" y="608"></rect><text x="430.25" y="623">"qr"</text></g><path d="M 461.5 619 a 10 10 0 0 0 10 -10 v -130 a 10 10 0 0 1 10 -10"></path><path d="M 379.0 469 a 10 10 0 0 1 10 10 v 160 a 10 10 0 0 0 10 10"></path><g class="terminal ">
<path d="M 399.0 649 h 0.0"></path><path d="M 461.5 649 h 0.0"></path><rect height="22" rx="10" ry="10" width="62.5" x="399.0" y="638"></rect><text x="430.25" y="653">"qm1"</text></g><path d="M 461.5 649 a 10 10 0 0 0 10 -10 v -160 a 10 10 0 0 1 10 -10"></path><path d="M 379.0 469 a 10 10 0 0 1 10 10 v 190 a 10 10 0 0 0 10 10"></path><g class="terminal ">
<path d="M 399.0 679 h 0.0"></path><path d="M 461.5 679 h 0.0"></path><rect height="22" rx="10" ry="10" width="62.5" x="399.0" y="668"></rect><text x="430.25" y="683">"qm2"</text></g><path d="M 461.5 679 a 10 10 0 0 0 10 -10 v -190 a 10 10 0 0 1 10 -10"></path><path d="M 379.0 469 a 10 10 0 0 1 10 10 v 220 a 10 10 0 0 0 10 10"></path><g class="terminal ">
<path d="M 399.0 709 h 0.0"></path><path d="M 461.5 709 h 0.0"></path><rect height="22" rx="10" ry="10" width="62.5" x="399.0" y="698"></rect><text x="430.25" y="713">"qm3"</text></g><path d="M 461.5 709 a 10 10 0 0 0 10 -10 v -220 a 10 10 0 0 1 10 -10"></path><path d="M 379.0 469 a 10 10 0 0 1 10 10 v 250 a 10 10 0 0 0 10 10"></path><g class="terminal ">
<path d="M 399.0 739 h 4.25"></path><path d="M 457.25 739 h 4.25"></path><rect height="22" rx="10" ry="10" width="54.0" x="403.25" y="728"></rect><text x="430.25" y="743">"qm"</text></g><path d="M 461.5 739 a 10 10 0 0 0 10 -10 v -250 a 10 10 0 0 1 10 -10"></path><path d="M 379.0 469 a 10 10 0 0 1 10 10 v 280 a 10 10 0 0 0 10 10"></path><g class="terminal ">
<path d="M 399.0 769 h 4.25"></path><path d="M 457.25 769 h 4.25"></path><rect height="22" rx="10" ry="10" width="54.0" x="403.25" y="758"></rect><text x="430.25" y="773">"qd"</text></g><path d="M 461.5 769 a 10 10 0 0 0 10 -10 v -280 a 10 10 0 0 1 10 -10"></path><path d="M 379.0 469 a 10 10 0 0 1 10 10 v 310 a 10 10 0 0 0 10 10"></path><g class="terminal ">
<path d="M 399.0 799 h 8.5"></path><path d="M 453.0 799 h 8.5"></path><rect height="22" rx="10" ry="10" width="45.5" x="407.5" y="788"></rect><text x="430.25" y="803">"q"</text></g><path d="M 461.5 799 a 10 10 0 0 0 10 -10 v -310 a 10 10 0 0 1 10 -10"></path></g><path d="M 491.5 469 a 10 10 0 0 1 10 10 v 339 a 10 10 0 0 0 10 10"></path><path d="M 491.5 350 a 10 10 0 0 1 10 10 v 99 a 10 10 0 0 0 10 10"></path><g>
<path d="M 511.5 469 h 10.0"></path><path d="M 624.0 469 h 10.0"></path><path d="M 521.5 469 a 10 10 0 0 0 10 -10 v -10 a 10 10 0 0 1 10 -10"></path><g class="terminal ">
<path d="M 541.5 439 h 0.0"></path><path d="M 604.0 439 h 0.0"></path><rect height="22" rx="10" ry="10" width="62.5" x="541.5" y="428"></rect><text x="572.75" y="443">"mi1"</text></g><path d="M 604.0 439 a 10 10 0 0 1 10 10 v 10 a 10 10 0 0 0 10 10"></path><path d="M 521.5 469 a 10 10 0 0 0 10 -10 v -40 a 10 10 0 0 1 10 -10"></path><g class="terminal ">
<path d="M 541.5 409 h 8.5"></path><path d="M 595.5 409 h 8.5"></path><rect height="22" rx="10" ry="10" width="45.5" x="550.0" y="398"></rect><text x="572.75" y="413">"d"</text></g><path d="M 604.0 409 a 10 10 0 0 1 10 10 v 40 a 10 10 0 0 0 10 10"></path><path d="M 521.5 469 a 10 10 0 0 0 10 -10 v -70 a 10 10 0 0 1 10 -10"></path><g class="terminal ">
<path d="M 541.5 379 h 8.5"></path><path d="M 595.5 379 h 8.5"></path><rect height="22" rx="10" ry="10" width="45.5" x="550.0" y="368"></rect><text x="572.75" y="383">"b"</text></g><path d="M 604.0 379 a 10 10 0 0 1 10 10 v 70 a 10 10 0 0 0 10 10"></path><path d="M 521.5 469 h 20"></path><g class="terminal ">
<path d="M 541.5 469 h 0.0"></path><path d="M 604.0 469 h 0.0"></path><rect height="22" rx="10" ry="10" width="62.5" x="541.5" y="458"></rect><text x="572.75" y="473">"mi2"</text></g><path d="M 604.0 469 h 20"></path><path d="M 521.5 469 a 10 10 0 0 1 10 10 v 10 a 10 10 0 0 0 10 10"></path><g class="terminal ">
<path d="M 541.5 499 h 0.0"></path><path d="M 604.0 499 h 0.0"></path><rect height="22" rx="10" ry="10" width="62.5" x="541.5" y="488"></rect><text x="572.75" y="503">"mi3"</text></g><path d="M 604.0 499 a 10 10 0 0 0 10 -10 v -10 a 10 10 0 0 1 10 -10"></path><path d="M 521.5 469 a 10 10 0 0 1 10 10 v 40 a 10 10 0 0 0 10 10"></path><g class="terminal ">
<path d="M 541.5 529 h 0.0"></path><path d="M 604.0 529 h 0.0"></path><rect height="22" rx="10" ry="10" width="62.5" x="541.5" y="518"></rect><text x="572.75" y="533">"mi4"</text></g><path d="M 604.0 529 a 10 10 0 0 0 10 -10 v -40 a 10 10 0 0 1 10 -10"></path><path d="M 521.5 469 a 10 10 0 0 1 10 10 v 70 a 10 10 0 0 0 10 10"></path><g class="terminal ">
<path d="M 541.5 559 h 4.25"></path><path d="M 599.75 559 h 4.25"></path><rect height="22" rx="10" ry="10" width="54.0" x="545.75" y="548"></rect><text x="572.75" y="563">"mi"</text></g><path d="M 604.0 559 a 10 10 0 0 0 10 -10 v -70 a 10 10 0 0 1 10 -10"></path><path d="M 521.5 469 a 10 10 0 0 1 10 10 v 100 a 10 10 0 0 0 10 10"></path><g class="terminal ">
<path d="M 541.5 589 h 8.5"></path><path d="M 595.5 589 h 8.5"></path><rect height="22" rx="10" ry="10" width="45.5" x="550.0" y="578"></rect><text x="572.75" y="593">"m"</text></g><path d="M 604.0 589 a 10 10 0 0 0 10 -10 v -100 a 10 10 0 0 1 10 -10"></path></g><path d="M 634.0 469 h 10"></path></g><path d="M 644.0 469 h 10"></path><g>
<path d="M 654.0 469 h 0.0"></path><path d="M 765.0 469 h 0.0"></path><path d="M 654.0 469 h 20"></path><g class="terminal ">
<path d="M 674.0 469 h 12.75"></path><path d="M 732.25 469 h 12.75"></path><rect height="22" rx="10" ry="10" width="45.5" x="686.75" y="458"></rect><text x="709.5" y="473">' '</text></g><path d="M 745.0 469 h 20"></path><path d="M 654.0 469 a 10 10 0 0 1 10 10 v 10 a 10 10 0 0 0 10 10"></path><g class="terminal altterminal">
<path d="M 674.0 499 h 0.0"></path><path d="M 745.0 499 h 0.0"></path><rect height="22" rx="10" ry="10" width="71.0" x="674.0" y="488"></rect><text x="709.5" y="503">TAGEND</text></g><path d="M 745.0 499 a 10 10 0 0 0 10 -10 v -10 a 10 10 0 0 1 10 -10"></path></g></g><path d="M 765.0 469 a 10 10 0 0 0 10 -10 v -308 a 10 10 0 0 1 10 -10"></path></g><path d="M 785.0 141 h 10"></path><path d="M 795.0 141 h 10"></path><g>
<path d="M 805.0 141 h 0.0"></path><path d="M 1058.5 141 h 0.0"></path><path d="M 805.0 141 a 10 10 0 0 0 10 -10 v -9 a 10 10 0 0 1 10 -10"></path><g>
<path d="M 825.0 112 h 213.5"></path></g><path d="M 1038.5 112 a 10 10 0 0 1 10 10 v 9 a 10 10 0 0 0 10 10"></path><path d="M 805.0 141 h 20"></path><g>
<path d="M 825.0 141 h 0.0"></path><path d="M 1038.5 141 h 0.0"></path><path d="M 825.0 141 h 10"></path><g>
<path d="M 835.0 141 h 0.0"></path><path d="M 1028.5 141 h 0.0"></path><path d="M 835.0 141 h 20"></path><g>
<path d="M 855.0 141 h 0.0"></path><path d="M 1008.5 141 h 0.0"></path><g class="terminal ">
<path d="M 855.0 141 h 0.0"></path><path d="M 909.0 141 h 0.0"></path><rect height="22" rx="10" ry="10" width="54.0" x="855.0" y="130"></rect><text x="882.0" y="145">TEXT</text></g><path d="M 909.0 141 h 10"></path><path d="M 919.0 141 h 10"></path><g class="terminal ">
<path d="M 929.0 141 h 0.0"></path><path d="M 1008.5 141 h 0.0"></path><rect height="22" rx="10" ry="10" width="79.5" x="929.0" y="130"></rect><text x="968.75" y="145">TEXTEND</text></g></g><path d="M 1008.5 141 h 20"></path><path d="M 835.0 141 a 10 10 0 0 1 10 10 v 10 a 10 10 0 0 0 10 10"></path><g class="non-terminal ">
<path d="M 855.0 171 h 28.5"></path><path d="M 980.0 171 h 28.5"></path><rect height="22" width="96.5" x="883.5" y="160"></rect><text x="931.75" y="175">CharEmbed</text></g><path d="M 1008.5 171 a 10 10 0 0 0 10 -10 v -10 a 10 10 0 0 1 10 -10"></path><path d="M 835.0 141 a 10 10 0 0 1 10 10 v 40 a 10 10 0 0 0 10 10"></path><g class="non-terminal ">
<path d="M 855.0 201 h 41.25"></path><path d="M 967.25 201 h 41.25"></path><rect height="22" width="71.0" x="896.25" y="190"></rect><text x="931.75" y="205">Figure</text></g><path d="M 1008.5 201 a 10 10 0 0 0 10 -10 v -40 a 10 10 0 0 1 10 -10"></path><path d="M 835.0 141 a 10 10 0 0 1 10 10 v 70 a 10 10 0 0 0 10 10"></path><g class="non-terminal ">
<path d="M 855.0 231 h 28.5"></path><path d="M 980.0 231 h 28.5"></path><rect height="22" width="96.5" x="883.5" y="220"></rect><text x="931.75" y="235">Milestone</text></g><path d="M 1008.5 231 a 10 10 0 0 0 10 -10 v -70 a 10 10 0 0 1 10 -10"></path><path d="M 835.0 141 a 10 10 0 0 1 10 10 v 100 a 10 10 0 0 0 10 10"></path><g class="non-terminal ">
<path d="M 855.0 261 h 45.5"></path><path d="M 963.0 261 h 45.5"></path><rect height="22" width="62.5" x="900.5" y="250"></rect><text x="931.75" y="265">Verse</text></g><path d="M 1008.5 261 a 10 10 0 0 0 10 -10 v -100 a 10 10 0 0 1 10 -10"></path><path d="M 835.0 141 a 10 10 0 0 1 10 10 v 130 a 10 10 0 0 0 10 10"></path><g class="non-terminal ">
<path d="M 855.0 291 h 28.5"></path><path d="M 980.0 291 h 28.5"></path><rect height="22" width="96.5" x="883.5" y="280"></rect><text x="931.75" y="295">Reference</text></g><path d="M 1008.5 291 a 10 10 0 0 0 10 -10 v -130 a 10 10 0 0 1 10 -10"></path><path d="M 835.0 141 a 10 10 0 0 1 10 10 v 160 a 10 10 0 0 0 10 10"></path><g class="non-terminal ">
<path d="M 855.0 321 h 32.75"></path><path d="M 975.75 321 h 32.75"></path><rect height="22" width="88.0" x="887.75" y="310"></rect><text x="931.75" y="325">Footnote</text></g><path d="M 1008.5 321 a 10 10 0 0 0 10 -10 v -160 a 10 10 0 0 1 10 -10"></path><path d="M 835.0 141 a 10 10 0 0 1 10 10 v 190 a 10 10 0 0 0 10 10"></path><g class="non-terminal ">
<path d="M 855.0 351 h 7.25"></path><path d="M 1001.25 351 h 7.25"></path><rect height="22" width="139.0" x="862.25" y="340"></rect><text x="931.75" y="355">CrossReference</text></g><path d="M 1008.5 351 a 10 10 0 0 0 10 -10 v -190 a 10 10 0 0 1 10 -10"></path><path d="M 835.0 141 a 10 10 0 0 1 10 10 v 220 a 10 10 0 0 0 10 10"></path><g>
<path d="M 855.0 381 h 21.25"></path><path d="M 987.25 381 h 21.25"></path><g class="terminal ">
<path d="M 876.25 381 h 0.0"></path><path d="M 930.25 381 h 0.0"></path><rect height="22" rx="10" ry="10" width="54.0" x="876.25" y="370"></rect><text x="903.25" y="385">'//'</text></g><path d="M 930.25 381 h 10"></path><path d="M 940.25 381 h 10"></path><g class="terminal ">
<path d="M 950.25 381 h 0.0"></path><path d="M 987.25 381 h 0.0"></path><rect height="22" rx="10" ry="10" width="37.0" x="950.25" y="370"></rect><text x="968.75" y="385">//</text></g></g><path d="M 1008.5 381 a 10 10 0 0 0 10 -10 v -220 a 10 10 0 0 1 10 -10"></path></g><path d="M 1028.5 141 h 10"></path><path d="M 835.0 141 a 10 10 0 0 0 -10 10 v 249 a 10 10 0 0 0 10 10"></path><g>
<path d="M 835.0 410 h 193.5"></path></g><path d="M 1028.5 410 a 10 10 0 0 0 10 -10 v -249 a 10 10 0 0 0 -10 -10"></path></g><path d="M 1038.5 141 h 20"></path></g></g><path d="M 1058.5 141 h 10"></path><path d="M 1068.5 141 h 20 m 0 -10 v 20"></path></g></svg>