<svg class="railroad-diagram" height="830" viewBox="0 0 918.0 830" width="918.0" xmlns="http://www.w3.org/2000/svg" xmlns:xlink="http://www.w3.org/1999/xlink">
<g transform="translate(.5 .5)">
<style>/* <![CDATA[ */
    svg.railroad-diagram {
        background-color:hsl(30,20%,95%);
    }
    svg.railroad-diagram path {
        stroke-width: 2;
        stroke: black;
        fill: none;
    }
    svg.railroad-diagram text {
        font-size: 12px;
        text-anchor: middle;
        font-family: DejaVu Sans;
    }
    svg.railroad-diagram text.label {
        text-anchor:start;
    }
    svg.railroad-diagram text.comment {
        font-family: DejaVu Sans;
        font-size: 14px;
    }
    svg.railroad-diagram rect{
        stroke-width: 2;
        stroke:black;
        fill: rgb(210, 255, 210);
    }
    svg.railroad-diagram rect.group-box {
        stroke: gray;
        stroke-dasharray: 10 5;
        fill: none;
    }
    .terminal {
        font-family: DejaVu Sans;
    }

/* ]]> */
</style><g>
<path d="M 20 167 v 20 m 0 -10 h 20"></path></g><path d="M 40 177 h 10"></path><g>
<path d="M 50 177 h 0.0"></path><path d="M 868.0 472 h 0.0"></path><rect class="group-box" height="774" rx="10" ry="10" width="818.0" x="50.0" y="36"></rect><g>
<path d="M 50.0 177 h 10.0"></path><path d="M 60.0 177 h 10"></path><g>
<path d="M 70.0 177 h 10.0"></path><path d="M 838.0 177 h 10.0"></path><rect class="group-box" height="384" rx="10" ry="10" width="758.0" x="80.0" y="60"></rect><g>
<path d="M 80.0 177 h 10.0"></path><path d="M 828.0 177 h 10.0"></path><g class="terminal ">
<path d="M 90.0 177 h 0.0"></path><path d="M 128.0 177 h 0.0"></path><rect height="22" rx="10" ry="10" width="38.0" x="90.0" y="166"></rect><text x="109.0" y="181">"\"</text></g><path d="M 128.0 177 h 10"></path><g>
<path d="M 138.0 177 h 0.0"></path><path d="M 828.0 177 h 0.0"></path><path d="M 138.0 177 a 10 10 0 0 0 10 -10 v -89 a 10 10 0 0 1 10 -10 h 544.0"></path><path d="M 282.0 436 h 526.0 a 10 10 0 0 0 10 -10 v -239 a 10 10 0 0 1 10 -10"></path><path d="M 138.0 177 h 10"></path><g>
<path d="M 148.0 177 h 0.0"></path><path d="M 262.0 177 h 0.0"></path><path d="M 148.0 177 a 10 10 0 0 0 10 -10 v -10 a 10 10 0 0 1 10 -10"></path><g class="terminal ">
<path d="M 168.0 147 h 12.0"></path><path d="M 230.0 147 h 12.0"></path><rect height="22" rx="10" ry="10" width="50.0" x="180.0" y="136"></rect><text x="205.0" y="151">"iex"</text></g><path d="M 242.0 147 a 10 10 0 0 1 10 10 v 10 a 10 10 0 0 0 10 10"></path><path d="M 148.0 177 a 10 10 0 0 0 10 -10 v -40 a 10 10 0 0 1 10 -10"></path><g class="terminal ">
<path d="M 168.0 117 h 12.0"></path><path d="M 230.0 117 h 12.0"></path><rect height="22" rx="10" ry="10" width="50.0" x="180.0" y="106"></rect><text x="205.0" y="121">"cls"</text></g><path d="M 242.0 117 a 10 10 0 0 1 10 10 v 40 a 10 10 0 0 0 10 10"></path><path d="M 148.0 177 a 10 10 0 0 0 10 -10 v -70 a 10 10 0 0 1 10 -10"></path><g class="terminal ">
<path d="M 168.0 87 h 0.0"></path><path d="M 242.0 87 h 0.0"></path><rect height="22" rx="10" ry="10" width="74.0" x="168.0" y="76"></rect><text x="205.0" y="91">"restore"</text></g><path d="M 242.0 87 a 10 10 0 0 1 10 10 v 70 a 10 10 0 0 0 10 10"></path><path d="M 148.0 177 h 20"></path><g class="terminal ">
<path d="M 168.0 177 h 15.0"></path><path d="M 227.0 177 h 15.0"></path><rect height="22" rx="10" ry="10" width="44.0" x="183.0" y="166"></rect><text x="205.0" y="181">"ip"</text></g><path d="M 242.0 177 h 20"></path><path d="M 148.0 177 a 10 10 0 0 1 10 10 v 10 a 10 10 0 0 0 10 10"></path><g class="terminal ">
<path d="M 168.0 207 h 12.0"></path><path d="M 230.0 207 h 12.0"></path><rect height="22" rx="10" ry="10" width="50.0" x="180.0" y="196"></rect><text x="205.0" y="211">"lit"</text></g><path d="M 242.0 207 a 10 10 0 0 0 10 -10 v -10 a 10 10 0 0 1 10 -10"></path><path d="M 148.0 177 a 10 10 0 0 1 10 10 v 40 a 10 10 0 0 0 10 10"></path><g class="terminal ">
<path d="M 168.0 237 h 18.0"></path><path d="M 224.0 237 h 18.0"></path><rect height="22" rx="10" ry="10" width="38.0" x="186.0" y="226"></rect><text x="205.0" y="241">"m"</text></g><path d="M 242.0 237 a 10 10 0 0 0 10 -10 v -40 a 10 10 0 0 1 10 -10"></path><path d="M 148.0 177 a 10 10 0 0 1 10 10 v 70 a 10 10 0 0 0 10 10"></path><g class="terminal ">
<path d="M 168.0 267 h 15.0"></path><path d="M 227.0 267 h 15.0"></path><rect height="22" rx="10" ry="10" width="44.0" x="183.0" y="256"></rect><text x="205.0" y="271">"mi"</text></g><path d="M 242.0 267 a 10 10 0 0 0 10 -10 v -70 a 10 10 0 0 1 10 -10"></path><path d="M 148.0 177 a 10 10 0 0 1 10 10 v 100 a 10 10 0 0 0 10 10"></path><g class="terminal ">
<path d="M 168.0 297 h 15.0"></path><path d="M 227.0 297 h 15.0"></path><rect height="22" rx="10" ry="10" width="44.0" x="183.0" y="286"></rect><text x="205.0" y="301">"nb"</text></g><path d="M 242.0 297 a 10 10 0 0 0 10 -10 v -100 a 10 10 0 0 1 10 -10"></path><path d="M 148.0 177 a 10 10 0 0 1 10 10 v 130 a 10 10 0 0 0 10 10"></path><g class="terminal ">
<path d="M 168.0 327 h 18.0"></path><path d="M 224.0 327 h 18.0"></path><rect height="22" rx="10" ry="10" width="38.0" x="186.0" y="316"></rect><text x="205.0" y="331">"p"</text></g><path d="M 242.0 327 a 10 10 0 0 0 10 -10 v -130 a 10 10 0 0 1 10 -10"></path><path d="M 148.0 177 a 10 10 0 0 1 10 10 v 160 a 10 10 0 0 0 10 10"></path><g class="terminal ">
<path d="M 168.0 357 h 15.0"></path><path d="M 227.0 357 h 15.0"></path><rect height="22" rx="10" ry="10" width="44.0" x="183.0" y="346"></rect><text x="205.0" y="361">"pb"</text></g><path d="M 242.0 357 a 10 10 0 0 0 10 -10 v -160 a 10 10 0 0 1 10 -10"></path><path d="M 148.0 177 a 10 10 0 0 1 10 10 v 190 a 10 10 0 0 0 10 10"></path><g class="terminal ">
<path d="M 168.0 387 h 15.0"></path><path d="M 227.0 387 h 15.0"></path><rect height="22" rx="10" ry="10" width="44.0" x="183.0" y="376"></rect><text x="205.0" y="391">"pc"</text></g><path d="M 242.0 387 a 10 10 0 0 0 10 -10 v -190 a 10 10 0 0 1 10 -10"></path><path d="M 148.0 177 a 10 10 0 0 1 10 10 v 220 a 10 10 0 0 0 10 10"></path><g class="terminal ">
<path d="M 168.0 417 h 15.0"></path><path d="M 227.0 417 h 15.0"></path><rect height="22" rx="10" ry="10" width="44.0" x="183.0" y="406"></rect><text x="205.0" y="421">"pi"</text></g><path d="M 242.0 417 a 10 10 0 0 0 10 -10 v -220 a 10 10 0 0 1 10 -10"></path></g><path d="M 262.0 177 a 10 10 0 0 1 10 10 v 239 a 10 10 0 0 0 10 10"></path><path d="M 262.0 68 a 10 10 0 0 1 10 10 v 89 a 10 10 0 0 0 10 10"></path><g>
<path d="M 282.0 177 h 0.0"></path><path d="M 372.0 177 h 0.0"></path><path d="M 282.0 177 a 10 10 0 0 0 10 -10 v -10 a 10 10 0 0 1 10 -10"></path><g class="terminal ">
<path d="M 302.0 147 h 0.0"></path><path d="M 352.0 147 h 0.0"></path><rect height="22" rx="10" ry="10" width="50.0" x="302.0" y="136"></rect><text x="327.0" y="151">"pi3"</text></g><path d="M 352.0 147 a 10 10 0 0 1 10 10 v 10 a 10 10 0 0 0 10 10"></path><path d="M 282.0 177 a 10 10 0 0 0 10 -10 v -40 a 10 10 0 0 1 10 -10"></path><g class="terminal ">
<path d="M 302.0 117 h 0.0"></path><path d="M 352.0 117 h 0.0"></path><rect height="22" rx="10" ry="10" width="50.0" x="302.0" y="106"></rect><text x="327.0" y="121">"pi2"</text></g><path d="M 352.0 117 a 10 10 0 0 1 10 10 v 40 a 10 10 0 0 0 10 10"></path><path d="M 282.0 177 a 10 10 0 0 0 10 -10 v -70 a 10 10 0 0 1 10 -10"></path><g class="terminal ">
<path d="M 302.0 87 h 0.0"></path><path d="M 352.0 87 h 0.0"></path><rect height="22" rx="10" ry="10" width="50.0" x="302.0" y="76"></rect><text x="327.0" y="91">"pi1"</text></g><path d="M 352.0 87 a 10 10 0 0 1 10 10 v 70 a 10 10 0 0 0 10 10"></path><path d="M 282.0 177 h 20"></path><g class="terminal ">
<path d="M 302.0 177 h 3.0"></path><path d="M 349.0 177 h 3.0"></path><rect height="22" rx="10" ry="10" width="44.0" x="305.0" y="166"></rect><text x="327.0" y="181">"po"</text></g><path d="M 352.0 177 h 20"></path><path d="M 282.0 177 a 10 10 0 0 1 10 10 v 10 a 10 10 0 0 0 10 10"></path><g class="terminal ">
<path d="M 302.0 207 h 3.0"></path><path d="M 349.0 207 h 3.0"></path><rect height="22" rx="10" ry="10" width="44.0" x="305.0" y="196"></rect><text x="327.0" y="211">"pr"</text></g><path d="M 352.0 207 a 10 10 0 0 0 10 -10 v -10 a 10 10 0 0 1 10 -10"></path><path d="M 282.0 177 a 10 10 0 0 1 10 10 v 40 a 10 10 0 0 0 10 10"></path><g class="terminal ">
<path d="M 302.0 237 h 0.0"></path><path d="M 352.0 237 h 0.0"></path><rect height="22" rx="10" ry="10" width="50.0" x="302.0" y="226"></rect><text x="327.0" y="241">"pmo"</text></g><path d="M 352.0 237 a 10 10 0 0 0 10 -10 v -40 a 10 10 0 0 1 10 -10"></path><path d="M 282.0 177 a 10 10 0 0 1 10 10 v 70 a 10 10 0 0 0 10 10"></path><g class="terminal ">
<path d="M 302.0 267 h 3.0"></path><path d="M 349.0 267 h 3.0"></path><rect height="22" rx="10" ry="10" width="44.0" x="305.0" y="256"></rect><text x="327.0" y="271">"pm"</text></g><path d="M 352.0 267 a 10 10 0 0 0 10 -10 v -70 a 10 10 0 0 1 10 -10"></path><path d="M 282.0 177 a 10 10 0 0 1 10 10 v 100 a 10 10 0 0 0 10 10"></path><g class="terminal ">
<path d="M 302.0 297 h 0.0"></path><path d="M 352.0 297 h 0.0"></path><rect height="22" rx="10" ry="10" width="50.0" x="302.0" y="286"></rect><text x="327.0" y="301">"pmc"</text></g><path d="M 352.0 297 a 10 10 0 0 0 10 -10 v -100 a 10 10 0 0 1 10 -10"></path><path d="M 282.0 177 a 10 10 0 0 1 10 10 v 130 a 10 10 0 0 0 10 10"></path><g class="terminal ">
<path d="M 302.0 327 h 0.0"></path><path d="M 352.0 327 h 0.0"></path><rect height="22" rx="10" ry="10" width="50.0" x="302.0" y="316"></rect><text x="327.0" y="331">"pmr"</text></g><path d="M 352.0 327 a 10 10 0 0 0 10 -10 v -130 a 10 10 0 0 1 10 -10"></path><path d="M 282.0 177 a 10 10 0 0 1 10 10 v 160 a 10 10 0 0 0 10 10"></path><g class="terminal ">
<path d="M 302.0 357 h 3.0"></path><path d="M 349.0 357 h 3.0"></path><rect height="22" rx="10" ry="10" width="44.0" x="305.0" y="346"></rect><text x="327.0" y="361">"ph"</text></g><path d="M 352.0 357 a 10 10 0 0 0 10 -10 v -160 a 10 10 0 0 1 10 -10"></path><path d="M 282.0 177 a 10 10 0 0 1 10 10 v 190 a 10 10 0 0 0 10 10"></path><g class="terminal ">
<path d="M 302.0 387 h 0.0"></path><path d="M 352.0 387 h 0.0"></path><rect height="22" rx="10" ry="10" width="50.0" x="302.0" y="376"></rect><text x="327.0" y="391">"ph1"</text></g><path d="M 352.0 387 a 10 10 0 0 0 10 -10 v -190 a 10 10 0 0 1 10 -10"></path><path d="M 282.0 177 a 10 10 0 0 1 10 10 v 220 a 10 10 0 0 0 10 10"></path><g class="terminal ">
<path d="M 302.0 417 h 0.0"></path><path d="M 352.0 417 h 0.0"></path><rect height="22" rx="10" ry="10" width="50.0" x="302.0" y="406"></rect><text x="327.0" y="421">"ph2"</text></g><path d="M 352.0 417 a 10 10 0 0 0 10 -10 v -220 a 10 10 0 0 1 10 -10"></path></g><path d="M 372.0 177 a 10 10 0 0 1 10 10 v 239 a 10 10 0 0 0 10 10"></path><path d="M 372.0 68 a 10 10 0 0 1 10 10 v 89 a 10 10 0 0 0 10 10"></path><g>
<path d="M 392.0 177 h 0.0"></path><path d="M 482.0 177 h 0.0"></path><path d="M 392.0 177 a 10 10 0 0 0 10 -10 v -10 a 10 10 0 0 1 10 -10"></path><g class="terminal ">
<path d="M 412.0 147 h 3.0"></path><path d="M 459.0 147 h 3.0"></path><rect height="22" rx="10" ry="10" width="44.0" x="415.0" y="136"></rect><text x="437.0" y="151">"q1"</text></g><path d="M 462.0 147 a 10 10 0 0 1 10 10 v 10 a 10 10 0 0 0 10 10"></path><path d="M 392.0 177 a 10 10 0 0 0 10 -10 v -40 a 10 10 0 0 1 10 -10"></path><g class="terminal ">
<path d="M 412.0 117 h 6.0"></path><path d="M 456.0 117 h 6.0"></path><rect height="22" rx="10" ry="10" width="38.0" x="418.0" y="106"></rect><text x="437.0" y="121">"q"</text></g><path d="M 462.0 117 a 10 10 0 0 1 10 10 v 40 a 10 10 0 0 0 10 10"></path><path d="M 392.0 177 a 10 10 0 0 0 10 -10 v -70 a 10 10 0 0 1 10 -10"></path><g class="terminal ">
<path d="M 412.0 87 h 0.0"></path><path d="M 462.0 87 h 0.0"></path><rect height="22" rx="10" ry="10" width="50.0" x="412.0" y="76"></rect><text x="437.0" y="91">"ph3"</text></g><path d="M 462.0 87 a 10 10 0 0 1 10 10 v 70 a 10 10 0 0 0 10 10"></path><path d="M 392.0 177 h 20"></path><g class="terminal ">
<path d="M 412.0 177 h 3.0"></path><path d="M 459.0 177 h 3.0"></path><rect height="22" rx="10" ry="10" width="44.0" x="415.0" y="166"></rect><text x="437.0" y="181">"q2"</text></g><path d="M 462.0 177 h 20"></path><path d="M 392.0 177 a 10 10 0 0 1 10 10 v 10 a 10 10 0 0 0 10 10"></path><g class="terminal ">
<path d="M 412.0 207 h 3.0"></path><path d="M 459.0 207 h 3.0"></path><rect height="22" rx="10" ry="10" width="44.0" x="415.0" y="196"></rect><text x="437.0" y="211">"q3"</text></g><path d="M 462.0 207 a 10 10 0 0 0 10 -10 v -10 a 10 10 0 0 1 10 -10"></path><path d="M 392.0 177 a 10 10 0 0 1 10 10 v 40 a 10 10 0 0 0 10 10"></path><g class="terminal ">
<path d="M 412.0 237 h 3.0"></path><path d="M 459.0 237 h 3.0"></path><rect height="22" rx="10" ry="10" width="44.0" x="415.0" y="226"></rect><text x="437.0" y="241">"q4"</text></g><path d="M 462.0 237 a 10 10 0 0 0 10 -10 v -40 a 10 10 0 0 1 10 -10"></path><path d="M 392.0 177 a 10 10 0 0 1 10 10 v 70 a 10 10 0 0 0 10 10"></path><g class="terminal ">
<path d="M 412.0 267 h 3.0"></path><path d="M 459.0 267 h 3.0"></path><rect height="22" rx="10" ry="10" width="44.0" x="415.0" y="256"></rect><text x="437.0" y="271">"qa"</text></g><path d="M 462.0 267 a 10 10 0 0 0 10 -10 v -70 a 10 10 0 0 1 10 -10"></path><path d="M 392.0 177 a 10 10 0 0 1 10 10 v 100 a 10 10 0 0 0 10 10"></path><g class="terminal ">
<path d="M 412.0 297 h 3.0"></path><path d="M 459.0 297 h 3.0"></path><rect height="22" rx="10" ry="10" width="44.0" x="415.0" y="286"></rect><text x="437.0" y="301">"qc"</text></g><path d="M 462.0 297 a 10 10 0 0 0 10 -10 v -100 a 10 10 0 0 1 10 -10"></path><path d="M 392.0 177 a 10 10 0 0 1 10 10 v 130 a 10 10 0 0 0 10 10"></path><g class="terminal ">
<path d="M 412.0 327 h 3.0"></path><path d="M 459.0 327 h 3.0"></path><rect height="22" rx="10" ry="10" width="44.0" x="415.0" y="316"></rect><text x="437.0" y="331">"qr"</text></g><path d="M 462.0 327 a 10 10 0 0 0 10 -10 v -130 a 10 10 0 0 1 10 -10"></path><path d="M 392.0 177 a 10 10 0 0 1 10 10 v 160 a 10 10 0 0 0 10 10"></path><g class="terminal ">
<path d="M 412.0 357 h 3.0"></path><path d="M 459.0 357 h 3.0"></path><rect height="22" rx="10" ry="10" width="44.0" x="415.0" y="346"></rect><text x="437.0" y="361">"qm"</text></g><path d="M 462.0 357 a 10 10 0 0 0 10 -10 v -160 a 10 10 0 0 1 10 -10"></path><path d="M 392.0 177 a 10 10 0 0 1 10 10 v 190 a 10 10 0 0 0 10 10"></path><g class="terminal ">
<path d="M 412.0 387 h 0.0"></path><path d="M 462.0 387 h 0.0"></path><rect height="22" rx="10" ry="10" width="50.0" x="412.0" y="376"></rect><text x="437.0" y="391">"qm1"</text></g><path d="M 462.0 387 a 10 10 0 0 0 10 -10 v -190 a 10 10 0 0 1 10 -10"></path><path d="M 392.0 177 a 10 10 0 0 1 10 10 v 220 a 10 10 0 0 0 10 10"></path><g class="terminal ">
<path d="M 412.0 417 h 0.0"></path><path d="M 462.0 417 h 0.0"></path><rect height="22" rx="10" ry="10" width="50.0" x="412.0" y="406"></rect><text x="437.0" y="421">"qm2"</text></g><path d="M 462.0 417 a 10 10 0 0 0 10 -10 v -220 a 10 10 0 0 1 10 -10"></path></g><path d="M 482.0 177 a 10 10 0 0 1 10 10 v 239 a 10 10 0 0 0 10 10"></path><path d="M 482.0 68 a 10 10 0 0 1 10 10 v 89 a 10 10 0 0 0 10 10"></path><g>
<path d="M 502.0 177 h 0.0"></path><path d="M 592.0 177 h 0.0"></path><path d="M 502.0 177 a 10 10 0 0 0 10 -10 v -10 a 10 10 0 0 1 10 -10"></path><g class="terminal ">
<path d="M 522.0 147 h 6.0"></path><path d="M 566.0 147 h 6.0"></path><rect height="22" rx="10" ry="10" width="38.0" x="528.0" y="136"></rect><text x="547.0" y="151">"b"</text></g><path d="M 572.0 147 a 10 10 0 0 1 10 10 v 10 a 10 10 0 0 0 10 10"></path><path d="M 502.0 177 a 10 10 0 0 0 10 -10 v -40 a 10 10 0 0 1 10 -10"></path><g class="terminal ">
<path d="M 522.0 117 h 3.0"></path><path d="M 569.0 117 h 3.0"></path><rect height="22" rx="10" ry="10" width="44.0" x="525.0" y="106"></rect><text x="547.0" y="121">"qd"</text></g><path d="M 572.0 117 a 10 10 0 0 1 10 10 v 40 a 10 10 0 0 0 10 10"></path><path d="M 502.0 177 a 10 10 0 0 0 10 -10 v -70 a 10 10 0 0 1 10 -10"></path><g class="terminal ">
<path d="M 522.0 87 h 0.0"></path><path d="M 572.0 87 h 0.0"></path><rect height="22" rx="10" ry="10" width="50.0" x="522.0" y="76"></rect><text x="547.0" y="91">"qm3"</text></g><path d="M 572.0 87 a 10 10 0 0 1 10 10 v 70 a 10 10 0 0 0 10 10"></path><path d="M 502.0 177 h 20"></path><g class="terminal ">
<path d="M 522.0 177 h 6.0"></path><path d="M 566.0 177 h 6.0"></path><rect height="22" rx="10" ry="10" width="38.0" x="528.0" y="166"></rect><text x="547.0" y="181">"d"</text></g><path d="M 572.0 177 h 20"></path><path d="M 502.0 177 a 10 10 0 0 1 10 10 v 10 a 10 10 0 0 0 10 10"></path><g class="terminal ">
<path d="M 522.0 207 h 3.0"></path><path d="M 569.0 207 h 3.0"></path><rect height="22" rx="10" ry="10" width="44.0" x="525.0" y="196"></rect><text x="547.0" y="211">"ms"</text></g><path d="M 572.0 207 a 10 10 0 0 0 10 -10 v -10 a 10 10 0 0 1 10 -10"></path><path d="M 502.0 177 a 10 10 0 0 1 10 10 v 40 a 10 10 0 0 0 10 10"></path><g class="terminal ">
<path d="M 522.0 237 h 0.0"></path><path d="M 572.0 237 h 0.0"></path><rect height="22" rx="10" ry="10" width="50.0" x="522.0" y="226"></rect><text x="547.0" y="241">"ms1"</text></g><path d="M 572.0 237 a 10 10 0 0 0 10 -10 v -40 a 10 10 0 0 1 10 -10"></path><path d="M 502.0 177 a 10 10 0 0 1 10 10 v 70 a 10 10 0 0 0 10 10"></path><g class="terminal ">
<path d="M 522.0 267 h 0.0"></path><path d="M 572.0 267 h 0.0"></path><rect height="22" rx="10" ry="10" width="50.0" x="522.0" y="256"></rect><text x="547.0" y="271">"ms2"</text></g><path d="M 572.0 267 a 10 10 0 0 0 10 -10 v -70 a 10 10 0 0 1 10 -10"></path><path d="M 502.0 177 a 10 10 0 0 1 10 10 v 100 a 10 10 0 0 0 10 10"></path><g class="terminal ">
<path d="M 522.0 297 h 0.0"></path><path d="M 572.0 297 h 0.0"></path><rect height="22" rx="10" ry="10" width="50.0" x="522.0" y="286"></rect><text x="547.0" y="301">"ms3"</text></g><path d="M 572.0 297 a 10 10 0 0 0 10 -10 v -100 a 10 10 0 0 1 10 -10"></path><path d="M 502.0 177 a 10 10 0 0 1 10 10 v 130 a 10 10 0 0 0 10 10"></path><g class="terminal ">
<path d="M 522.0 327 h 3.0"></path><path d="M 569.0 327 h 3.0"></path><rect height="22" rx="10" ry="10" width="44.0" x="525.0" y="316"></rect><text x="547.0" y="331">"mr"</text></g><path d="M 572.0 327 a 10 10 0 0 0 10 -10 v -130 a 10 10 0 0 1 10 -10"></path><path d="M 502.0 177 a 10 10 0 0 1 10 10 v 160 a 10 10 0 0 0 10 10"></path><g class="terminal ">
<path d="M 522.0 357 h 6.0"></path><path d="M 566.0 357 h 6.0"></path><rect height="22" rx="10" ry="10" width="38.0" x="528.0" y="346"></rect><text x="547.0" y="361">"r"</text></g><path d="M 572.0 357 a 10 10 0 0 0 10 -10 v -160 a 10 10 0 0 1 10 -10"></path><path d="M 502.0 177 a 10 10 0 0 1 10 10 v 190 a 10 10 0 0 0 10 10"></path><g class="terminal ">
<path d="M 522.0 387 h 6.0"></path><path d="M 566.0 387 h 6.0"></path><rect height="22" rx="10" ry="10" width="38.0" x="528.0" y="376"></rect><text x="547.0" y="391">"s"</text></g><path d="M 572.0 387 a 10 10 0 0 0 10 -10 v -190 a 10 10 0 0 1 10 -10"></path><path d="M 502.0 177 a 10 10 0 0 1 10 10 v 220 a 10 10 0 0 0 10 10"></path><g class="terminal ">
<path d="M 522.0 417 h 3.0"></path><path d="M 569.0 417 h 3.0"></path><rect height="22" rx="10" ry="10" width="44.0" x="525.0" y="406"></rect><text x="547.0" y="421">"s1"</text></g><path d="M 572.0 417 a 10 10 0 0 0 10 -10 v -220 a 10 10 0 0 1 10 -10"></path></g><path d="M 592.0 177 a 10 10 0 0 1 10 10 v 239 a 10 10 0 0 0 10 10"></path><path d="M 592.0 68 a 10 10 0 0 1 10 10 v 89 a 10 10 0 0 0 10 10"></path><g>
<path d="M 612.0 177 h 0.0"></path><path d="M 702.0 177 h 0.0"></path><path d="M 612.0 177 a 10 10 0 0 0 10 -10 v -10 a 10 10 0 0 1 10 -10"></path><g class="terminal ">
<path d="M 632.0 147 h 3.0"></path><path d="M 679.0 147 h 3.0"></path><rect height="22" rx="10" ry="10" width="44.0" x="635.0" y="136"></rect><text x="657.0" y="151">"s4"</text></g><path d="M 682.0 147 a 10 10 0 0 1 10 10 v 10 a 10 10 0 0 0 10 10"></path><path d="M 612.0 177 a 10 10 0 0 0 10 -10 v -40 a 10 10 0 0 1 10 -10"></path><g class="terminal ">
<path d="M 632.0 117 h 3.0"></path><path d="M 679.0 117 h 3.0"></path><rect height="22" rx="10" ry="10" width="44.0" x="635.0" y="106"></rect><text x="657.0" y="121">"s3"</text></g><path d="M 682.0 117 a 10 10 0 0 1 10 10 v 40 a 10 10 0 0 0 10 10"></path><path d="M 612.0 177 a 10 10 0 0 0 10 -10 v -70 a 10 10 0 0 1 10 -10"></path><g class="terminal ">
<path d="M 632.0 87 h 3.0"></path><path d="M 679.0 87 h 3.0"></path><rect height="22" rx="10" ry="10" width="44.0" x="635.0" y="76"></rect><text x="657.0" y="91">"s2"</text></g><path d="M 682.0 87 a 10 10 0 0 1 10 10 v 70 a 10 10 0 0 0 10 10"></path><path d="M 612.0 177 h 20"></path><g class="terminal ">
<path d="M 632.0 177 h 3.0"></path><path d="M 679.0 177 h 3.0"></path><rect height="22" rx="10" ry="10" width="44.0" x="635.0" y="166"></rect><text x="657.0" y="181">"sr"</text></g><path d="M 682.0 177 h 20"></path><path d="M 612.0 177 a 10 10 0 0 1 10 10 v 10 a 10 10 0 0 0 10 10"></path><g class="terminal ">
<path d="M 632.0 207 h 3.0"></path><path d="M 679.0 207 h 3.0"></path><rect height="22" rx="10" ry="10" width="44.0" x="635.0" y="196"></rect><text x="657.0" y="211">"sp"</text></g><path d="M 682.0 207 a 10 10 0 0 0 10 -10 v -10 a 10 10 0 0 1 10 -10"></path><path d="M 612.0 177 a 10 10 0 0 1 10 10 v 40 a 10 10 0 0 0 10 10"></path><g class="terminal ">
<path d="M 632.0 237 h 3.0"></path><path d="M 679.0 237 h 3.0"></path><rect height="22" rx="10" ry="10" width="44.0" x="635.0" y="226"></rect><text x="657.0" y="241">"sd"</text></g><path d="M 682.0 237 a 10 10 0 0 0 10 -10 v -40 a 10 10 0 0 1 10 -10"></path><path d="M 612.0 177 a 10 10 0 0 1 10 10 v 70 a 10 10 0 0 0 10 10"></path><g class="terminal ">
<path d="M 632.0 267 h 0.0"></path><path d="M 682.0 267 h 0.0"></path><rect height="22" rx="10" ry="10" width="50.0" x="632.0" y="256"></rect><text x="657.0" y="271">"sd1"</text></g><path d="M 682.0 267 a 10 10 0 0 0 10 -10 v -70 a 10 10 0 0 1 10 -10"></path><path d="M 612.0 177 a 10 10 0 0 1 10 10 v 100 a 10 10 0 0 0 10 10"></path><g class="terminal ">
<path d="M 632.0 297 h 0.0"></path><path d="M 682.0 297 h 0.0"></path><rect height="22" rx="10" ry="10" width="50.0" x="632.0" y="286"></rect><text x="657.0" y="301">"sd2"</text></g><path d="M 682.0 297 a 10 10 0 0 0 10 -10 v -100 a 10 10 0 0 1 10 -10"></path><path d="M 612.0 177 a 10 10 0 0 1 10 10 v 130 a 10 10 0 0 0 10 10"></path><g class="terminal ">
<path d="M 632.0 327 h 0.0"></path><path d="M 682.0 327 h 0.0"></path><rect height="22" rx="10" ry="10" width="50.0" x="632.0" y="316"></rect><text x="657.0" y="331">"sd3"</text></g><path d="M 682.0 327 a 10 10 0 0 0 10 -10 v -130 a 10 10 0 0 1 10 -10"></path><path d="M 612.0 177 a 10 10 0 0 1 10 10 v 160 a 10 10 0 0 0 10 10"></path><g class="terminal ">
<path d="M 632.0 357 h 0.0"></path><path d="M 682.0 357 h 0.0"></path><rect height="22" rx="10" ry="10" width="50.0" x="632.0" y="346"></rect><text x="657.0" y="361">"sd4"</text></g><path d="M 682.0 357 a 10 10 0 0 0 10 -10 v -160 a 10 10 0 0 1 10 -10"></path><path d="M 612.0 177 a 10 10 0 0 1 10 10 v 190 a 10 10 0 0 0 10 10"></path><g class="terminal ">
<path d="M 632.0 387 h 3.0"></path><path d="M 679.0 387 h 3.0"></path><rect height="22" rx="10" ry="10" width="44.0" x="635.0" y="376"></rect><text x="657.0" y="391">"ts"</text></g><path d="M 682.0 387 a 10 10 0 0 0 10 -10 v -190 a 10 10 0 0 1 10 -10"></path><path d="M 612.0 177 a 10 10 0 0 1 10 10 v 220 a 10 10 0 0 0 10 10"></path><g class="terminal ">
<path d="M 632.0 417 h 3.0"></path><path d="M 679.0 417 h 3.0"></path><rect height="22" rx="10" ry="10" width="44.0" x="635.0" y="406"></rect><text x="657.0" y="421">"cp"</text></g><path d="M 682.0 417 a 10 10 0 0 0 10 -10 v -220 a 10 10 0 0 1 10 -10"></path></g><path d="M 702.0 177 a 10 10 0 0 1 10 10 v 239 a 10 10 0 0 0 10 10"></path><path d="M 702.0 68 a 10 10 0 0 1 10 10 v 89 a 10 10 0 0 0 10 10"></path><g>
<path d="M 722.0 177 h 0.0"></path><path d="M 818.0 177 h 0.0"></path><path d="M 722.0 177 a 10 10 0 0 0 10 -10 v -10 a 10 10 0 0 1 10 -10"></path><g class="terminal ">
<path d="M 742.0 147 h 3.0"></path><path d="M 795.0 147 h 3.0"></path><rect height="22" rx="10" ry="10" width="50.0" x="745.0" y="136"></rect><text x="770.0" y="151">"mte"</text></g><path d="M 798.0 147 a 10 10 0 0 1 10 10 v 10 a 10 10 0 0 0 10 10"></path><path d="M 722.0 177 a 10 10 0 0 0 10 -10 v -40 a 10 10 0 0 1 10 -10"></path><g class="terminal ">
<path d="M 742.0 117 h 6.0"></path><path d="M 792.0 117 h 6.0"></path><rect height="22" rx="10" ry="10" width="44.0" x="748.0" y="106"></rect><text x="770.0" y="121">"cd"</text></g><path d="M 798.0 117 a 10 10 0 0 1 10 10 v 40 a 10 10 0 0 0 10 10"></path><path d="M 722.0 177 a 10 10 0 0 0 10 -10 v -70 a 10 10 0 0 1 10 -10"></path><g class="terminal ">
<path d="M 742.0 87 h 6.0"></path><path d="M 792.0 87 h 6.0"></path><rect height="22" rx="10" ry="10" width="44.0" x="748.0" y="76"></rect><text x="770.0" y="91">"cl"</text></g><path d="M 798.0 87 a 10 10 0 0 1 10 10 v 70 a 10 10 0 0 0 10 10"></path><path d="M 722.0 177 h 20"></path><g class="terminal ">
<path d="M 742.0 177 h 0.0"></path><path d="M 798.0 177 h 0.0"></path><rect height="22" rx="10" ry="10" width="56.0" x="742.0" y="166"></rect><text x="770.0" y="181">"mte1"</text></g><path d="M 798.0 177 h 20"></path><path d="M 722.0 177 a 10 10 0 0 1 10 10 v 10 a 10 10 0 0 0 10 10"></path><g class="terminal ">
<path d="M 742.0 207 h 0.0"></path><path d="M 798.0 207 h 0.0"></path><rect height="22" rx="10" ry="10" width="56.0" x="742.0" y="196"></rect><text x="770.0" y="211">"mte2"</text></g><path d="M 798.0 207 a 10 10 0 0 0 10 -10 v -10 a 10 10 0 0 1 10 -10"></path><path d="M 722.0 177 a 10 10 0 0 1 10 10 v 40 a 10 10 0 0 0 10 10"></path><g class="terminal ">
<path d="M 742.0 237 h 9.0"></path><path d="M 789.0 237 h 9.0"></path><rect height="22" rx="10" ry="10" width="38.0" x="751.0" y="226"></rect><text x="770.0" y="241">"p"</text></g><path d="M 798.0 237 a 10 10 0 0 0 10 -10 v -40 a 10 10 0 0 1 10 -10"></path><path d="M 722.0 177 a 10 10 0 0 1 10 10 v 70 a 10 10 0 0 0 10 10"></path><g class="terminal ">
<path d="M 742.0 267 h 6.0"></path><path d="M 792.0 267 h 6.0"></path><rect height="22" rx="10" ry="10" width="44.0" x="748.0" y="256"></rect><text x="770.0" y="271">"p1"</text></g><path d="M 798.0 267 a 10 10 0 0 0 10 -10 v -70 a 10 10 0 0 1 10 -10"></path><path d="M 722.0 177 a 10 10 0 0 1 10 10 v 100 a 10 10 0 0 0 10 10"></path><g class="terminal ">
<path d="M 742.0 297 h 6.0"></path><path d="M 792.0 297 h 6.0"></path><rect height="22" rx="10" ry="10" width="44.0" x="748.0" y="286"></rect><text x="770.0" y="301">"p2"</text></g><path d="M 798.0 297 a 10 10 0 0 0 10 -10 v -100 a 10 10 0 0 1 10 -10"></path><path d="M 722.0 177 a 10 10 0 0 1 10 10 v 130 a 10 10 0 0 0 10 10"></path><g class="terminal ">
<path d="M 742.0 327 h 6.0"></path><path d="M 792.0 327 h 6.0"></path><rect height="22" rx="10" ry="10" width="44.0" x="748.0" y="316"></rect><text x="770.0" y="331">"k1"</text></g><path d="M 798.0 327 a 10 10 0 0 0 10 -10 v -130 a 10 10 0 0 1 10 -10"></path><path d="M 722.0 177 a 10 10 0 0 1 10 10 v 160 a 10 10 0 0 0 10 10"></path><g class="terminal ">
<path d="M 742.0 357 h 6.0"></path><path d="M 792.0 357 h 6.0"></path><rect height="22" rx="10" ry="10" width="44.0" x="748.0" y="346"></rect><text x="770.0" y="361">"k2"</text></g><path d="M 798.0 357 a 10 10 0 0 0 10 -10 v -160 a 10 10 0 0 1 10 -10"></path><path d="M 722.0 177 a 10 10 0 0 1 10 10 v 190 a 10 10 0 0 0 10 10"></path><g class="terminal ">
<path d="M 742.0 387 h 3.0"></path><path d="M 795.0 387 h 3.0"></path><rect height="22" rx="10" ry="10" width="50.0" x="745.0" y="376"></rect><text x="770.0" y="391">"rem"</text></g><path d="M 798.0 387 a 10 10 0 0 0 10 -10 v -190 a 10 10 0 0 1 10 -10"></path></g><path d="M 818.0 177 h 10"></path></g></g><g class="non-terminal ">
<path d="M 80.0 52 h 0.0"></path><path d="M 97.0 52 h 0.0"></path><text class="comment" x="88.5" y="57">➊</text></g></g><path d="M 848.0 177 a 10 10 0 0 1 10 10 v 255 a 10 10 0 0 1 -10 10 h -778.0 a 10 10 0 0 0 -10 10 v 0 a 10 10 0 0 0 10 10"></path><g>
<path d="M 70.0 472 h 204.0"></path><path d="M 644.0 472 h 204.0"></path><g>
<path d="M 274.0 472 h 0.0"></path><path d="M 498.0 472 h 0.0"></path><path d="M 274.0 472 h 10"></path><g>
<path d="M 284.0 472 h 0.0"></path><path d="M 488.0 472 h 0.0"></path><path d="M 284.0 472 h 20"></path><g class="non-terminal ">
<path d="M 304.0 472 h 45.0"></path><path d="M 423.0 472 h 45.0"></path><rect height="22" width="74.0" x="349.0" y="461"></rect><text x="386.0" y="476">Reference</text></g><path d="M 468.0 472 h 20"></path><path d="M 284.0 472 a 10 10 0 0 1 10 10 v 10 a 10 10 0 0 0 10 10"></path><g class="non-terminal ">
<path d="M 304.0 502 h 48.0"></path><path d="M 420.0 502 h 48.0"></path><rect height="22" width="68.0" x="352.0" y="491"></rect><text x="386.0" y="506">Footnote</text></g><path d="M 468.0 502 a 10 10 0 0 0 10 -10 v -10 a 10 10 0 0 1 10 -10"></path><path d="M 284.0 472 a 10 10 0 0 1 10 10 v 40 a 10 10 0 0 0 10 10"></path><g class="non-terminal ">
<path d="M 304.0 532 h 30.0"></path><path d="M 438.0 532 h 30.0"></path><rect height="22" width="104.0" x="334.0" y="521"></rect><text x="386.0" y="536">CrossReference</text></g><path d="M 468.0 532 a 10 10 0 0 0 10 -10 v -40 a 10 10 0 0 1 10 -10"></path><path d="M 284.0 472 a 10 10 0 0 1 10 10 v 70 a 10 10 0 0 0 10 10"></path><g class="non-terminal ">
<path d="M 304.0 562 h 60.0"></path><path d="M 408.0 562 h 60.0"></path><rect height="22" width="44.0" x="364.0" y="551"></rect><text x="386.0" y="566">Char</text></g><path d="M 468.0 562 a 10 10 0 0 0 10 -10 v -70 a 10 10 0 0 1 10 -10"></path><path d="M 284.0 472 a 10 10 0 0 1 10 10 v 100 a 10 10 0 0 0 10 10"></path><g class="non-terminal ">
<path d="M 304.0 592 h 45.0"></path><path d="M 423.0 592 h 45.0"></path><rect height="22" width="74.0" x="349.0" y="581"></rect><text x="386.0" y="596">Milestone</text></g><path d="M 468.0 592 a 10 10 0 0 0 10 -10 v -100 a 10 10 0 0 1 10 -10"></path><path d="M 284.0 472 a 10 10 0 0 1 10 10 v 130 a 10 10 0 0 0 10 10"></path><g class="non-terminal ">
<path d="M 304.0 622 h 54.0"></path><path d="M 414.0 622 h 54.0"></path><rect height="22" width="56.0" x="358.0" y="611"></rect><text x="386.0" y="626">Figure</text></g><path d="M 468.0 622 a 10 10 0 0 0 10 -10 v -130 a 10 10 0 0 1 10 -10"></path><path d="M 284.0 472 a 10 10 0 0 1 10 10 v 160 a 10 10 0 0 0 10 10"></path><g class="non-terminal ">
<path d="M 304.0 652 h 57.0"></path><path d="M 411.0 652 h 57.0"></path><rect height="22" width="50.0" x="361.0" y="641"></rect><text x="386.0" y="656">Verse</text></g><path d="M 468.0 652 a 10 10 0 0 0 10 -10 v -160 a 10 10 0 0 1 10 -10"></path><path d="M 284.0 472 a 10 10 0 0 1 10 10 v 214 a 10 10 0 0 0 10 10"></path><g>
<path d="M 304.0 706 h 0.0"></path><path d="M 468.0 706 h 0.0"></path><rect class="group-box" height="68" rx="10" ry="10" width="164.0" x="304.0" y="687"></rect><g>
<path d="M 304.0 706 h 10.0"></path><path d="M 458.0 706 h 10.0"></path><g class="terminal ">
<path d="M 314.0 706 h 0.0"></path><path d="M 358.0 706 h 0.0"></path><rect height="22" rx="10" ry="10" width="44.0" x="314.0" y="695"></rect><text x="336.0" y="710">"\b"</text></g><path d="M 358.0 706 h 10"></path><g>
<path d="M 368.0 706 h 0.0"></path><path d="M 458.0 706 h 0.0"></path><path d="M 368.0 706 h 20"></path><g class="terminal ">
<path d="M 388.0 706 h 0.0"></path><path d="M 438.0 706 h 0.0"></path><rect height="22" rx="10" ry="10" width="50.0" x="388.0" y="695"></rect><text x="413.0" y="710">⇒ "\"</text></g><path d="M 438.0 706 h 20"></path><path d="M 368.0 706 a 10 10 0 0 1 10 10 v 10 a 10 10 0 0 0 10 10"></path><g class="terminal ">
<path d="M 388.0 736 h 9.0"></path><path d="M 429.0 736 h 9.0"></path><rect height="22" rx="10" ry="10" width="32.0" x="397.0" y="725"></rect><text x="413.0" y="740">WS</text></g><path d="M 438.0 736 a 10 10 0 0 0 10 -10 v -10 a 10 10 0 0 1 10 -10"></path></g></g><g class="non-terminal ">
<path d="M 304.0 679 h 0.0"></path><path d="M 349.0 679 h 0.0"></path><text class="comment" x="326.5" y="684">Break</text></g></g><path d="M 468.0 706 a 10 10 0 0 0 10 -10 v -214 a 10 10 0 0 1 10 -10"></path><path d="M 284.0 472 a 10 10 0 0 1 10 10 v 271 a 10 10 0 0 0 10 10"></path><g>
<path d="M 304.0 763 h 14.0"></path><path d="M 454.0 763 h 14.0"></path><path d="M 318.0 763 h 20"></path><g>
<path d="M 338.0 763 h 96.0"></path></g><path d="M 434.0 763 h 20"></path><path d="M 318.0 763 a 10 10 0 0 1 10 10 v 0 a 10 10 0 0 0 10 10"></path><g>
<path d="M 338.0 783 h 0.0"></path><path d="M 434.0 783 h 0.0"></path><g class="terminal ">
<path d="M 338.0 783 h 0.0"></path><path d="M 370.0 783 h 0.0"></path><rect height="22" rx="10" ry="10" width="32.0" x="338.0" y="772"></rect><text x="354.0" y="787">WS</text></g><path d="M 370.0 783 h 10"></path><path d="M 380.0 783 h 10"></path><g class="terminal ">
<path d="M 390.0 783 h 0.0"></path><path d="M 434.0 783 h 0.0"></path><rect height="22" rx="10" ry="10" width="44.0" x="390.0" y="772"></rect><text x="412.0" y="787">Text</text></g></g><path d="M 434.0 783 a 10 10 0 0 0 10 -10 v 0 a 10 10 0 0 1 10 -10"></path></g><path d="M 468.0 763 a 10 10 0 0 0 10 -10 v -271 a 10 10 0 0 1 10 -10"></path></g><path d="M 488.0 472 h 10"></path><path d="M 284.0 472 a 10 10 0 0 0 -10 10 v 310 a 10 10 0 0 0 10 10"></path><g>
<path d="M 284.0 802 h 204.0"></path></g><path d="M 488.0 802 a 10 10 0 0 0 10 -10 v -310 a 10 10 0 0 0 -10 -10"></path></g><path d="M 498.0 472 h 10"></path><g>
<path d="M 508.0 472 h 0.0"></path><path d="M 644.0 472 h 0.0"></path><path d="M 508.0 472 h 20"></path><g>
<path d="M 528.0 472 h 96.0"></path></g><path d="M 624.0 472 h 20"></path><path d="M 508.0 472 a 10 10 0 0 1 10 10 v 0 a 10 10 0 0 0 10 10"></path><g>
<path d="M 528.0 492 h 0.0"></path><path d="M 624.0 492 h 0.0"></path><g class="terminal ">
<path d="M 528.0 492 h 0.0"></path><path d="M 566.0 492 h 0.0"></path><rect height="22" rx="10" ry="10" width="38.0" x="528.0" y="481"></rect><text x="547.0" y="496">⇐ ➊</text></g><path d="M 566.0 492 h 10"></path><path d="M 576.0 492 h 10"></path><g class="terminal ">
<path d="M 586.0 492 h 0.0"></path><path d="M 624.0 492 h 0.0"></path><rect height="22" rx="10" ry="10" width="38.0" x="586.0" y="481"></rect><text x="605.0" y="496">"&#42;"</text></g></g><path d="M 624.0 492 a 10 10 0 0 0 10 -10 v 0 a 10 10 0 0 1 10 -10"></path></g></g><path d="M 848.0 472 h 10"></path><path d="M 858.0 472 h 10.0"></path></g><g class="non-terminal ">
<path d="M 50.0 28 h 0.0"></path><path d="M 88.0 28 h 0.0"></path><text class="comment" x="69.0" y="33">Para</text></g></g><path d="M 868.0 472 h 10"></path><path d="M 878.0 472 h 20 m 0 -10 v 20"></path></g></svg>