<svg class="railroad-diagram" height="550" viewBox="0 0 1589.5 550" width="1589.5" xmlns="http://www.w3.org/2000/svg" xmlns:xlink="http://www.w3.org/1999/xlink">
<g transform="translate(.5 .5)">
<style>/* <![CDATA[ */

    svg.railroad-diagram {
        background-color:hsl(30,20%,95%);
    }
    svg.railroad-diagram path {
        stroke-width: 2;
        stroke: black;
        fill: none;
    }
    svg.railroad-diagram text {
        font-size: 12px;
        text-anchor: middle;
        font-family: DejaVu Sans;
    }
    svg.railroad-diagram text.label {
        text-anchor:start;
    }
    svg.railroad-diagram text.comment {
        font-family: DejaVu Sans;
        font-size: 14px;
    }
    svg.railroad-diagram rect{
        stroke-width: 2;
        stroke:black;
        fill: rgb(210, 255, 210);
    }
    svg.railroad-diagram rect.group-box {
        stroke: gray;
        stroke-dasharray: 10 5;
        fill: none;
    }
    .terminal {
        font-family: DejaVu Sans;
    }

/* ]]> */
</style><g>
<path d="M 20 153 v 20 m 0 -10 h 20"></path></g><path d="M 40 163 h 10"></path><g>
<path d="M 50 163 h 0.0"></path><path d="M 1539.5 163 h 0.0"></path><g class="terminal ">
<path d="M 50.0 163 h 0.0"></path><path d="M 707.5 163 h 0.0"></path><rect height="22" rx="10" ry="10" width="657.5" x="50.0" y="152"></rect><text x="378.75" y="167">/&#91;\u0009-\u000D\u0020\u00A0\u1680\u2000-\u200B\u2028\u2029\u202F\u205F&#93;&#42;\\/</text></g><path d="M 707.5 163 h 10"></path><path d="M 717.5 163 h 10"></path><g>
<path d="M 727.5 163 h 0.0"></path><path d="M 1175.0 163 h 0.0"></path><rect class="group-box" height="494" rx="10" ry="10" width="447.5" x="727.5" y="36"></rect><g>
<path d="M 727.5 163 h 10.0"></path><path d="M 1165.0 163 h 10.0"></path><g>
<path d="M 737.5 163 h 0.0"></path><path d="M 1165.0 163 h 0.0"></path><path d="M 737.5 163 a 10 10 0 0 0 10 -10 v -99 a 10 10 0 0 1 10 -10 h 255.0"></path><path d="M 890.0 522 h 255.0 a 10 10 0 0 0 10 -10 v -339 a 10 10 0 0 1 10 -10"></path><path d="M 737.5 163 h 10"></path><g>
<path d="M 747.5 163 h 10.0"></path><path d="M 860.0 163 h 10.0"></path><path d="M 757.5 163 a 10 10 0 0 0 10 -10 v -10 a 10 10 0 0 1 10 -10"></path><g class="terminal ">
<path d="M 777.5 133 h 4.25"></path><path d="M 835.75 133 h 4.25"></path><rect height="22" rx="10" ry="10" width="54.0" x="781.75" y="122"></rect><text x="808.75" y="137">"nb"</text></g><path d="M 840.0 133 a 10 10 0 0 1 10 10 v 10 a 10 10 0 0 0 10 10"></path><path d="M 757.5 163 a 10 10 0 0 0 10 -10 v -40 a 10 10 0 0 1 10 -10"></path><g class="terminal ">
<path d="M 777.5 103 h 0.0"></path><path d="M 840.0 103 h 0.0"></path><rect height="22" rx="10" ry="10" width="62.5" x="777.5" y="92"></rect><text x="808.75" y="107">"lit"</text></g><path d="M 840.0 103 a 10 10 0 0 1 10 10 v 40 a 10 10 0 0 0 10 10"></path><path d="M 757.5 163 a 10 10 0 0 0 10 -10 v -70 a 10 10 0 0 1 10 -10"></path><g class="terminal ">
<path d="M 777.5 73 h 0.0"></path><path d="M 840.0 73 h 0.0"></path><rect height="22" rx="10" ry="10" width="62.5" x="777.5" y="62"></rect><text x="808.75" y="77">"cls"</text></g><path d="M 840.0 73 a 10 10 0 0 1 10 10 v 70 a 10 10 0 0 0 10 10"></path><path d="M 757.5 163 h 20"></path><g class="terminal ">
<path d="M 777.5 163 h 4.25"></path><path d="M 835.75 163 h 4.25"></path><rect height="22" rx="10" ry="10" width="54.0" x="781.75" y="152"></rect><text x="808.75" y="167">"pb"</text></g><path d="M 840.0 163 h 20"></path><path d="M 757.5 163 a 10 10 0 0 1 10 10 v 10 a 10 10 0 0 0 10 10"></path><g class="terminal ">
<path d="M 777.5 193 h 4.25"></path><path d="M 835.75 193 h 4.25"></path><rect height="22" rx="10" ry="10" width="54.0" x="781.75" y="182"></rect><text x="808.75" y="197">"pc"</text></g><path d="M 840.0 193 a 10 10 0 0 0 10 -10 v -10 a 10 10 0 0 1 10 -10"></path><path d="M 757.5 163 a 10 10 0 0 1 10 10 v 40 a 10 10 0 0 0 10 10"></path><g class="terminal ">
<path d="M 777.5 223 h 0.0"></path><path d="M 840.0 223 h 0.0"></path><rect height="22" rx="10" ry="10" width="62.5" x="777.5" y="212"></rect><text x="808.75" y="227">"pi1"</text></g><path d="M 840.0 223 a 10 10 0 0 0 10 -10 v -40 a 10 10 0 0 1 10 -10"></path><path d="M 757.5 163 a 10 10 0 0 1 10 10 v 70 a 10 10 0 0 0 10 10"></path><g class="terminal ">
<path d="M 777.5 253 h 0.0"></path><path d="M 840.0 253 h 0.0"></path><rect height="22" rx="10" ry="10" width="62.5" x="777.5" y="242"></rect><text x="808.75" y="257">"pi2"</text></g><path d="M 840.0 253 a 10 10 0 0 0 10 -10 v -70 a 10 10 0 0 1 10 -10"></path><path d="M 757.5 163 a 10 10 0 0 1 10 10 v 100 a 10 10 0 0 0 10 10"></path><g class="terminal ">
<path d="M 777.5 283 h 0.0"></path><path d="M 840.0 283 h 0.0"></path><rect height="22" rx="10" ry="10" width="62.5" x="777.5" y="272"></rect><text x="808.75" y="287">"pi3"</text></g><path d="M 840.0 283 a 10 10 0 0 0 10 -10 v -100 a 10 10 0 0 1 10 -10"></path><path d="M 757.5 163 a 10 10 0 0 1 10 10 v 130 a 10 10 0 0 0 10 10"></path><g class="terminal ">
<path d="M 777.5 313 h 4.25"></path><path d="M 835.75 313 h 4.25"></path><rect height="22" rx="10" ry="10" width="54.0" x="781.75" y="302"></rect><text x="808.75" y="317">"pi"</text></g><path d="M 840.0 313 a 10 10 0 0 0 10 -10 v -130 a 10 10 0 0 1 10 -10"></path><path d="M 757.5 163 a 10 10 0 0 1 10 10 v 160 a 10 10 0 0 0 10 10"></path><g class="terminal ">
<path d="M 777.5 343 h 4.25"></path><path d="M 835.75 343 h 4.25"></path><rect height="22" rx="10" ry="10" width="54.0" x="781.75" y="332"></rect><text x="808.75" y="347">"po"</text></g><path d="M 840.0 343 a 10 10 0 0 0 10 -10 v -160 a 10 10 0 0 1 10 -10"></path><path d="M 757.5 163 a 10 10 0 0 1 10 10 v 190 a 10 10 0 0 0 10 10"></path><g class="terminal ">
<path d="M 777.5 373 h 4.25"></path><path d="M 835.75 373 h 4.25"></path><rect height="22" rx="10" ry="10" width="54.0" x="781.75" y="362"></rect><text x="808.75" y="377">"pr"</text></g><path d="M 840.0 373 a 10 10 0 0 0 10 -10 v -190 a 10 10 0 0 1 10 -10"></path><path d="M 757.5 163 a 10 10 0 0 1 10 10 v 220 a 10 10 0 0 0 10 10"></path><g class="terminal ">
<path d="M 777.5 403 h 0.0"></path><path d="M 840.0 403 h 0.0"></path><rect height="22" rx="10" ry="10" width="62.5" x="777.5" y="392"></rect><text x="808.75" y="407">"pmo"</text></g><path d="M 840.0 403 a 10 10 0 0 0 10 -10 v -220 a 10 10 0 0 1 10 -10"></path><path d="M 757.5 163 a 10 10 0 0 1 10 10 v 250 a 10 10 0 0 0 10 10"></path><g class="terminal ">
<path d="M 777.5 433 h 0.0"></path><path d="M 840.0 433 h 0.0"></path><rect height="22" rx="10" ry="10" width="62.5" x="777.5" y="422"></rect><text x="808.75" y="437">"pmc"</text></g><path d="M 840.0 433 a 10 10 0 0 0 10 -10 v -250 a 10 10 0 0 1 10 -10"></path><path d="M 757.5 163 a 10 10 0 0 1 10 10 v 280 a 10 10 0 0 0 10 10"></path><g class="terminal ">
<path d="M 777.5 463 h 0.0"></path><path d="M 840.0 463 h 0.0"></path><rect height="22" rx="10" ry="10" width="62.5" x="777.5" y="452"></rect><text x="808.75" y="467">"pmr"</text></g><path d="M 840.0 463 a 10 10 0 0 0 10 -10 v -280 a 10 10 0 0 1 10 -10"></path><path d="M 757.5 163 a 10 10 0 0 1 10 10 v 310 a 10 10 0 0 0 10 10"></path><g class="terminal ">
<path d="M 777.5 493 h 4.25"></path><path d="M 835.75 493 h 4.25"></path><rect height="22" rx="10" ry="10" width="54.0" x="781.75" y="482"></rect><text x="808.75" y="497">"pm"</text></g><path d="M 840.0 493 a 10 10 0 0 0 10 -10 v -310 a 10 10 0 0 1 10 -10"></path></g><path d="M 870.0 163 a 10 10 0 0 1 10 10 v 339 a 10 10 0 0 0 10 10"></path><path d="M 870.0 44 a 10 10 0 0 1 10 10 v 99 a 10 10 0 0 0 10 10"></path><g>
<path d="M 890.0 163 h 10.0"></path><path d="M 1002.5 163 h 10.0"></path><path d="M 900.0 163 a 10 10 0 0 0 10 -10 v -10 a 10 10 0 0 1 10 -10"></path><g class="terminal ">
<path d="M 920.0 133 h 0.0"></path><path d="M 982.5 133 h 0.0"></path><rect height="22" rx="10" ry="10" width="62.5" x="920.0" y="122"></rect><text x="951.25" y="137">"ph3"</text></g><path d="M 982.5 133 a 10 10 0 0 1 10 10 v 10 a 10 10 0 0 0 10 10"></path><path d="M 900.0 163 a 10 10 0 0 0 10 -10 v -40 a 10 10 0 0 1 10 -10"></path><g class="terminal ">
<path d="M 920.0 103 h 0.0"></path><path d="M 982.5 103 h 0.0"></path><rect height="22" rx="10" ry="10" width="62.5" x="920.0" y="92"></rect><text x="951.25" y="107">"ph2"</text></g><path d="M 982.5 103 a 10 10 0 0 1 10 10 v 40 a 10 10 0 0 0 10 10"></path><path d="M 900.0 163 a 10 10 0 0 0 10 -10 v -70 a 10 10 0 0 1 10 -10"></path><g class="terminal ">
<path d="M 920.0 73 h 0.0"></path><path d="M 982.5 73 h 0.0"></path><rect height="22" rx="10" ry="10" width="62.5" x="920.0" y="62"></rect><text x="951.25" y="77">"ph1"</text></g><path d="M 982.5 73 a 10 10 0 0 1 10 10 v 70 a 10 10 0 0 0 10 10"></path><path d="M 900.0 163 h 20"></path><g class="terminal ">
<path d="M 920.0 163 h 4.25"></path><path d="M 978.25 163 h 4.25"></path><rect height="22" rx="10" ry="10" width="54.0" x="924.25" y="152"></rect><text x="951.25" y="167">"ph"</text></g><path d="M 982.5 163 h 20"></path><path d="M 900.0 163 a 10 10 0 0 1 10 10 v 10 a 10 10 0 0 0 10 10"></path><g class="terminal ">
<path d="M 920.0 193 h 4.25"></path><path d="M 978.25 193 h 4.25"></path><rect height="22" rx="10" ry="10" width="54.0" x="924.25" y="182"></rect><text x="951.25" y="197">"p1"</text></g><path d="M 982.5 193 a 10 10 0 0 0 10 -10 v -10 a 10 10 0 0 1 10 -10"></path><path d="M 900.0 163 a 10 10 0 0 1 10 10 v 40 a 10 10 0 0 0 10 10"></path><g class="terminal ">
<path d="M 920.0 223 h 4.25"></path><path d="M 978.25 223 h 4.25"></path><rect height="22" rx="10" ry="10" width="54.0" x="924.25" y="212"></rect><text x="951.25" y="227">"p2"</text></g><path d="M 982.5 223 a 10 10 0 0 0 10 -10 v -40 a 10 10 0 0 1 10 -10"></path><path d="M 900.0 163 a 10 10 0 0 1 10 10 v 70 a 10 10 0 0 0 10 10"></path><g class="terminal ">
<path d="M 920.0 253 h 8.5"></path><path d="M 974.0 253 h 8.5"></path><rect height="22" rx="10" ry="10" width="45.5" x="928.5" y="242"></rect><text x="951.25" y="257">"p"</text></g><path d="M 982.5 253 a 10 10 0 0 0 10 -10 v -70 a 10 10 0 0 1 10 -10"></path><path d="M 900.0 163 a 10 10 0 0 1 10 10 v 100 a 10 10 0 0 0 10 10"></path><g class="terminal ">
<path d="M 920.0 283 h 4.25"></path><path d="M 978.25 283 h 4.25"></path><rect height="22" rx="10" ry="10" width="54.0" x="924.25" y="272"></rect><text x="951.25" y="287">"q1"</text></g><path d="M 982.5 283 a 10 10 0 0 0 10 -10 v -100 a 10 10 0 0 1 10 -10"></path><path d="M 900.0 163 a 10 10 0 0 1 10 10 v 130 a 10 10 0 0 0 10 10"></path><g class="terminal ">
<path d="M 920.0 313 h 4.25"></path><path d="M 978.25 313 h 4.25"></path><rect height="22" rx="10" ry="10" width="54.0" x="924.25" y="302"></rect><text x="951.25" y="317">"q2"</text></g><path d="M 982.5 313 a 10 10 0 0 0 10 -10 v -130 a 10 10 0 0 1 10 -10"></path><path d="M 900.0 163 a 10 10 0 0 1 10 10 v 160 a 10 10 0 0 0 10 10"></path><g class="terminal ">
<path d="M 920.0 343 h 4.25"></path><path d="M 978.25 343 h 4.25"></path><rect height="22" rx="10" ry="10" width="54.0" x="924.25" y="332"></rect><text x="951.25" y="347">"q3"</text></g><path d="M 982.5 343 a 10 10 0 0 0 10 -10 v -160 a 10 10 0 0 1 10 -10"></path><path d="M 900.0 163 a 10 10 0 0 1 10 10 v 190 a 10 10 0 0 0 10 10"></path><g class="terminal ">
<path d="M 920.0 373 h 4.25"></path><path d="M 978.25 373 h 4.25"></path><rect height="22" rx="10" ry="10" width="54.0" x="924.25" y="362"></rect><text x="951.25" y="377">"q4"</text></g><path d="M 982.5 373 a 10 10 0 0 0 10 -10 v -190 a 10 10 0 0 1 10 -10"></path><path d="M 900.0 163 a 10 10 0 0 1 10 10 v 220 a 10 10 0 0 0 10 10"></path><g class="terminal ">
<path d="M 920.0 403 h 4.25"></path><path d="M 978.25 403 h 4.25"></path><rect height="22" rx="10" ry="10" width="54.0" x="924.25" y="392"></rect><text x="951.25" y="407">"qa"</text></g><path d="M 982.5 403 a 10 10 0 0 0 10 -10 v -220 a 10 10 0 0 1 10 -10"></path><path d="M 900.0 163 a 10 10 0 0 1 10 10 v 250 a 10 10 0 0 0 10 10"></path><g class="terminal ">
<path d="M 920.0 433 h 4.25"></path><path d="M 978.25 433 h 4.25"></path><rect height="22" rx="10" ry="10" width="54.0" x="924.25" y="422"></rect><text x="951.25" y="437">"qc"</text></g><path d="M 982.5 433 a 10 10 0 0 0 10 -10 v -250 a 10 10 0 0 1 10 -10"></path><path d="M 900.0 163 a 10 10 0 0 1 10 10 v 280 a 10 10 0 0 0 10 10"></path><g class="terminal ">
<path d="M 920.0 463 h 4.25"></path><path d="M 978.25 463 h 4.25"></path><rect height="22" rx="10" ry="10" width="54.0" x="924.25" y="452"></rect><text x="951.25" y="467">"qr"</text></g><path d="M 982.5 463 a 10 10 0 0 0 10 -10 v -280 a 10 10 0 0 1 10 -10"></path><path d="M 900.0 163 a 10 10 0 0 1 10 10 v 310 a 10 10 0 0 0 10 10"></path><g class="terminal ">
<path d="M 920.0 493 h 0.0"></path><path d="M 982.5 493 h 0.0"></path><rect height="22" rx="10" ry="10" width="62.5" x="920.0" y="482"></rect><text x="951.25" y="497">"qm1"</text></g><path d="M 982.5 493 a 10 10 0 0 0 10 -10 v -310 a 10 10 0 0 1 10 -10"></path></g><path d="M 1012.5 163 a 10 10 0 0 1 10 10 v 339 a 10 10 0 0 0 10 10"></path><path d="M 1012.5 44 a 10 10 0 0 1 10 10 v 99 a 10 10 0 0 0 10 10"></path><g>
<path d="M 1032.5 163 h 10.0"></path><path d="M 1145.0 163 h 10.0"></path><path d="M 1042.5 163 a 10 10 0 0 0 10 -10 v -10 a 10 10 0 0 1 10 -10"></path><g class="terminal ">
<path d="M 1062.5 133 h 4.25"></path><path d="M 1120.75 133 h 4.25"></path><rect height="22" rx="10" ry="10" width="54.0" x="1066.75" y="122"></rect><text x="1093.75" y="137">"qm"</text></g><path d="M 1125.0 133 a 10 10 0 0 1 10 10 v 10 a 10 10 0 0 0 10 10"></path><path d="M 1042.5 163 a 10 10 0 0 0 10 -10 v -40 a 10 10 0 0 1 10 -10"></path><g class="terminal ">
<path d="M 1062.5 103 h 0.0"></path><path d="M 1125.0 103 h 0.0"></path><rect height="22" rx="10" ry="10" width="62.5" x="1062.5" y="92"></rect><text x="1093.75" y="107">"qm3"</text></g><path d="M 1125.0 103 a 10 10 0 0 1 10 10 v 40 a 10 10 0 0 0 10 10"></path><path d="M 1042.5 163 a 10 10 0 0 0 10 -10 v -70 a 10 10 0 0 1 10 -10"></path><g class="terminal ">
<path d="M 1062.5 73 h 0.0"></path><path d="M 1125.0 73 h 0.0"></path><rect height="22" rx="10" ry="10" width="62.5" x="1062.5" y="62"></rect><text x="1093.75" y="77">"qm2"</text></g><path d="M 1125.0 73 a 10 10 0 0 1 10 10 v 70 a 10 10 0 0 0 10 10"></path><path d="M 1042.5 163 h 20"></path><g class="terminal ">
<path d="M 1062.5 163 h 4.25"></path><path d="M 1120.75 163 h 4.25"></path><rect height="22" rx="10" ry="10" width="54.0" x="1066.75" y="152"></rect><text x="1093.75" y="167">"qd"</text></g><path d="M 1125.0 163 h 20"></path><path d="M 1042.5 163 a 10 10 0 0 1 10 10 v 10 a 10 10 0 0 0 10 10"></path><g class="terminal ">
<path d="M 1062.5 193 h 8.5"></path><path d="M 1116.5 193 h 8.5"></path><rect height="22" rx="10" ry="10" width="45.5" x="1071.0" y="182"></rect><text x="1093.75" y="197">"q"</text></g><path d="M 1125.0 193 a 10 10 0 0 0 10 -10 v -10 a 10 10 0 0 1 10 -10"></path><path d="M 1042.5 163 a 10 10 0 0 1 10 10 v 40 a 10 10 0 0 0 10 10"></path><g class="terminal ">
<path d="M 1062.5 223 h 8.5"></path><path d="M 1116.5 223 h 8.5"></path><rect height="22" rx="10" ry="10" width="45.5" x="1071.0" y="212"></rect><text x="1093.75" y="227">"b"</text></g><path d="M 1125.0 223 a 10 10 0 0 0 10 -10 v -40 a 10 10 0 0 1 10 -10"></path><path d="M 1042.5 163 a 10 10 0 0 1 10 10 v 70 a 10 10 0 0 0 10 10"></path><g class="terminal ">
<path d="M 1062.5 253 h 8.5"></path><path d="M 1116.5 253 h 8.5"></path><rect height="22" rx="10" ry="10" width="45.5" x="1071.0" y="242"></rect><text x="1093.75" y="257">"d"</text></g><path d="M 1125.0 253 a 10 10 0 0 0 10 -10 v -70 a 10 10 0 0 1 10 -10"></path><path d="M 1042.5 163 a 10 10 0 0 1 10 10 v 100 a 10 10 0 0 0 10 10"></path><g class="terminal ">
<path d="M 1062.5 283 h 4.25"></path><path d="M 1120.75 283 h 4.25"></path><rect height="22" rx="10" ry="10" width="54.0" x="1066.75" y="272"></rect><text x="1093.75" y="287">"mi"</text></g><path d="M 1125.0 283 a 10 10 0 0 0 10 -10 v -100 a 10 10 0 0 1 10 -10"></path><path d="M 1042.5 163 a 10 10 0 0 1 10 10 v 130 a 10 10 0 0 0 10 10"></path><g class="terminal ">
<path d="M 1062.5 313 h 8.5"></path><path d="M 1116.5 313 h 8.5"></path><rect height="22" rx="10" ry="10" width="45.5" x="1071.0" y="302"></rect><text x="1093.75" y="317">"m"</text></g><path d="M 1125.0 313 a 10 10 0 0 0 10 -10 v -130 a 10 10 0 0 1 10 -10"></path><path d="M 1042.5 163 a 10 10 0 0 1 10 10 v 160 a 10 10 0 0 0 10 10"></path><g class="terminal ">
<path d="M 1062.5 343 h 4.25"></path><path d="M 1120.75 343 h 4.25"></path><rect height="22" rx="10" ry="10" width="54.0" x="1066.75" y="332"></rect><text x="1093.75" y="347">"s3"</text></g><path d="M 1125.0 343 a 10 10 0 0 0 10 -10 v -160 a 10 10 0 0 1 10 -10"></path><path d="M 1042.5 163 a 10 10 0 0 1 10 10 v 190 a 10 10 0 0 0 10 10"></path><g class="terminal ">
<path d="M 1062.5 373 h 4.25"></path><path d="M 1120.75 373 h 4.25"></path><rect height="22" rx="10" ry="10" width="54.0" x="1066.75" y="362"></rect><text x="1093.75" y="377">"s4"</text></g><path d="M 1125.0 373 a 10 10 0 0 0 10 -10 v -190 a 10 10 0 0 1 10 -10"></path><path d="M 1042.5 163 a 10 10 0 0 1 10 10 v 220 a 10 10 0 0 0 10 10"></path><g class="terminal ">
<path d="M 1062.5 403 h 4.25"></path><path d="M 1120.75 403 h 4.25"></path><rect height="22" rx="10" ry="10" width="54.0" x="1066.75" y="392"></rect><text x="1093.75" y="407">"ts"</text></g><path d="M 1125.0 403 a 10 10 0 0 0 10 -10 v -220 a 10 10 0 0 1 10 -10"></path><path d="M 1042.5 163 a 10 10 0 0 1 10 10 v 250 a 10 10 0 0 0 10 10"></path><g class="terminal ">
<path d="M 1062.5 433 h 4.25"></path><path d="M 1120.75 433 h 4.25"></path><rect height="22" rx="10" ry="10" width="54.0" x="1066.75" y="422"></rect><text x="1093.75" y="437">"k1"</text></g><path d="M 1125.0 433 a 10 10 0 0 0 10 -10 v -250 a 10 10 0 0 1 10 -10"></path><path d="M 1042.5 163 a 10 10 0 0 1 10 10 v 280 a 10 10 0 0 0 10 10"></path><g class="terminal ">
<path d="M 1062.5 463 h 4.25"></path><path d="M 1120.75 463 h 4.25"></path><rect height="22" rx="10" ry="10" width="54.0" x="1066.75" y="452"></rect><text x="1093.75" y="467">"k2"</text></g><path d="M 1125.0 463 a 10 10 0 0 0 10 -10 v -280 a 10 10 0 0 1 10 -10"></path><path d="M 1042.5 163 a 10 10 0 0 1 10 10 v 310 a 10 10 0 0 0 10 10"></path><g class="terminal ">
<path d="M 1062.5 493 h 0.0"></path><path d="M 1125.0 493 h 0.0"></path><rect height="22" rx="10" ry="10" width="62.5" x="1062.5" y="482"></rect><text x="1093.75" y="497">"rem"</text></g><path d="M 1125.0 493 a 10 10 0 0 0 10 -10 v -310 a 10 10 0 0 1 10 -10"></path></g><path d="M 1155.0 163 h 10"></path></g></g><g class="non-terminal ">
<path d="M 727.5 28 h 0.0"></path><path d="M 744.5 28 h 0.0"></path><text class="comment" x="736.0" y="33">➋</text></g></g><path d="M 1175.0 163 h 10"></path><path d="M 1185.0 163 h 10"></path><g class="terminal ">
<path d="M 1195.0 163 h 0.0"></path><path d="M 1266.0 163 h 0.0"></path><rect height="22" rx="10" ry="10" width="71.0" x="1195.0" y="152"></rect><text x="1230.5" y="167">TAGEND</text></g><path d="M 1266.0 163 h 10"></path><path d="M 1276.0 163 h 10"></path><g>
<path d="M 1286.0 163 h 0.0"></path><path d="M 1539.5 163 h 0.0"></path><path d="M 1286.0 163 a 10 10 0 0 0 10 -10 v -9 a 10 10 0 0 1 10 -10"></path><g>
<path d="M 1306.0 134 h 213.5"></path></g><path d="M 1519.5 134 a 10 10 0 0 1 10 10 v 9 a 10 10 0 0 0 10 10"></path><path d="M 1286.0 163 h 20"></path><g>
<path d="M 1306.0 163 h 0.0"></path><path d="M 1519.5 163 h 0.0"></path><path d="M 1306.0 163 h 10"></path><g>
<path d="M 1316.0 163 h 0.0"></path><path d="M 1509.5 163 h 0.0"></path><path d="M 1316.0 163 h 20"></path><g class="non-terminal ">
<path d="M 1336.0 163 h 32.75"></path><path d="M 1456.75 163 h 32.75"></path><rect height="22" width="88.0" x="1368.75" y="152"></rect><text x="1412.75" y="167">Footnote</text></g><path d="M 1489.5 163 h 20"></path><path d="M 1316.0 163 a 10 10 0 0 1 10 10 v 10 a 10 10 0 0 0 10 10"></path><g class="non-terminal ">
<path d="M 1336.0 193 h 7.25"></path><path d="M 1482.25 193 h 7.25"></path><rect height="22" width="139.0" x="1343.25" y="182"></rect><text x="1412.75" y="197">CrossReference</text></g><path d="M 1489.5 193 a 10 10 0 0 0 10 -10 v -10 a 10 10 0 0 1 10 -10"></path><path d="M 1316.0 163 a 10 10 0 0 1 10 10 v 40 a 10 10 0 0 0 10 10"></path><g class="non-terminal ">
<path d="M 1336.0 223 h 49.75"></path><path d="M 1439.75 223 h 49.75"></path><rect height="22" width="54.0" x="1385.75" y="212"></rect><text x="1412.75" y="227">Char</text></g><path d="M 1489.5 223 a 10 10 0 0 0 10 -10 v -40 a 10 10 0 0 1 10 -10"></path><path d="M 1316.0 163 a 10 10 0 0 1 10 10 v 70 a 10 10 0 0 0 10 10"></path><g class="non-terminal ">
<path d="M 1336.0 253 h 28.5"></path><path d="M 1461.0 253 h 28.5"></path><rect height="22" width="96.5" x="1364.5" y="242"></rect><text x="1412.75" y="257">Milestone</text></g><path d="M 1489.5 253 a 10 10 0 0 0 10 -10 v -70 a 10 10 0 0 1 10 -10"></path><path d="M 1316.0 163 a 10 10 0 0 1 10 10 v 100 a 10 10 0 0 0 10 10"></path><g class="non-terminal ">
<path d="M 1336.0 283 h 45.5"></path><path d="M 1444.0 283 h 45.5"></path><rect height="22" width="62.5" x="1381.5" y="272"></rect><text x="1412.75" y="287">Verse</text></g><path d="M 1489.5 283 a 10 10 0 0 0 10 -10 v -100 a 10 10 0 0 1 10 -10"></path><path d="M 1316.0 163 a 10 10 0 0 1 10 10 v 130 a 10 10 0 0 0 10 10"></path><g>
<path d="M 1336.0 313 h 49.75"></path><path d="M 1439.75 313 h 49.75"></path><g class="terminal ">
<path d="M 1385.75 313 h 0.0"></path><path d="M 1439.75 313 h 0.0"></path><rect height="22" rx="10" ry="10" width="54.0" x="1385.75" y="302"></rect><text x="1412.75" y="317">'//'</text></g></g><path d="M 1489.5 313 a 10 10 0 0 0 10 -10 v -130 a 10 10 0 0 1 10 -10"></path><path d="M 1316.0 163 a 10 10 0 0 1 10 10 v 160 a 10 10 0 0 0 10 10"></path><g>
<path d="M 1336.0 343 h 0.0"></path><path d="M 1489.5 343 h 0.0"></path><g class="terminal ">
<path d="M 1336.0 343 h 0.0"></path><path d="M 1390.0 343 h 0.0"></path><rect height="22" rx="10" ry="10" width="54.0" x="1336.0" y="332"></rect><text x="1363.0" y="347">TEXT</text></g><path d="M 1390.0 343 h 10"></path><path d="M 1400.0 343 h 10"></path><g class="terminal ">
<path d="M 1410.0 343 h 0.0"></path><path d="M 1489.5 343 h 0.0"></path><rect height="22" rx="10" ry="10" width="79.5" x="1410.0" y="332"></rect><text x="1449.75" y="347">TEXTEND</text></g></g><path d="M 1489.5 343 a 10 10 0 0 0 10 -10 v -160 a 10 10 0 0 1 10 -10"></path></g><path d="M 1509.5 163 h 10"></path><path d="M 1316.0 163 a 10 10 0 0 0 -10 10 v 189 a 10 10 0 0 0 10 10"></path><g>
<path d="M 1316.0 372 h 193.5"></path></g><path d="M 1509.5 372 a 10 10 0 0 0 10 -10 v -189 a 10 10 0 0 0 -10 -10"></path></g><path d="M 1519.5 163 h 20"></path></g></g><path d="M 1539.5 163 h 10"></path><path d="M 1549.5 163 h 20 m 0 -10 v 20"></path></g></svg>