<svg class="railroad-diagram" height="550" viewBox="0 0 1250.5 550" width="1250.5" xmlns="http://www.w3.org/2000/svg" xmlns:xlink="http://www.w3.org/1999/xlink">
<g transform="translate(.5 .5)">
<style>/* <![CDATA[ */

    svg.railroad-diagram {
        background-color:hsl(30,20%,95%);
    }
    svg.railroad-diagram path {
        stroke-width: 2;
        stroke: black;
        fill: none;
    }
    svg.railroad-diagram text {
        font-size: 12px;
        text-anchor: middle;
        font-family: DejaVu Sans;
    }
    svg.railroad-diagram text.label {
        text-anchor:start;
    }
    svg.railroad-diagram text.comment {
        font-family: DejaVu Sans;
        font-size: 14px;
    }
    svg.railroad-diagram rect{
        stroke-width: 2;
        stroke:black;
        fill: rgb(210, 255, 210);
    }
    svg.railroad-diagram rect.group-box {
        stroke: gray;
        stroke-dasharray: 10 5;
        fill: none;
    }
    .terminal {
        font-family: DejaVu Sans;
    }

/* ]]> */
</style><g>
<path d="M 20 153 v 20 m 0 -10 h 20"></path></g><path d="M 40 163 h 10"></path><g>
<path d="M 50 163 h 0.0"></path><path d="M 1200.5 163 h 0.0"></path><g class="terminal ">
<path d="M 50.0 163 h 0.0"></path><path d="M 95.5 163 h 0.0"></path><rect height="22" rx="10" ry="10" width="45.5" x="50.0" y="152"></rect><text x="72.75" y="167">'\'</text></g><path d="M 95.5 163 h 10"></path><path d="M 105.5 163 h 10"></path><g>
<path d="M 115.5 163 h 0.0"></path><path d="M 890.5 163 h 0.0"></path><rect class="group-box" height="494" rx="10" ry="10" width="775.0" x="115.5" y="36"></rect><g>
<path d="M 115.5 163 h 10.0"></path><path d="M 880.5 163 h 10.0"></path><g>
<path d="M 125.5 163 h 0.0"></path><path d="M 880.5 163 h 0.0"></path><path d="M 125.5 163 a 10 10 0 0 0 10 -10 v -99 a 10 10 0 0 1 10 -10 h 574.0"></path><path d="M 312.0 522 h 548.5 a 10 10 0 0 0 10 -10 v -339 a 10 10 0 0 1 10 -10"></path><path d="M 125.5 163 h 10"></path><g>
<path d="M 135.5 163 h 10.0"></path><path d="M 282.0 163 h 10.0"></path><path d="M 145.5 163 a 10 10 0 0 0 10 -10 v -10 a 10 10 0 0 1 10 -10"></path><g class="terminal ">
<path d="M 165.5 133 h 17.0"></path><path d="M 245.0 133 h 17.0"></path><rect height="22" rx="10" ry="10" width="62.5" x="182.5" y="122"></rect><text x="213.75" y="137">"iex"</text></g><path d="M 262.0 133 a 10 10 0 0 1 10 10 v 10 a 10 10 0 0 0 10 10"></path><path d="M 145.5 163 a 10 10 0 0 0 10 -10 v -40 a 10 10 0 0 1 10 -10"></path><g class="terminal ">
<path d="M 165.5 103 h 17.0"></path><path d="M 245.0 103 h 17.0"></path><rect height="22" rx="10" ry="10" width="62.5" x="182.5" y="92"></rect><text x="213.75" y="107">"cls"</text></g><path d="M 262.0 103 a 10 10 0 0 1 10 10 v 40 a 10 10 0 0 0 10 10"></path><path d="M 145.5 163 a 10 10 0 0 0 10 -10 v -70 a 10 10 0 0 1 10 -10"></path><g class="terminal ">
<path d="M 165.5 73 h 0.0"></path><path d="M 262.0 73 h 0.0"></path><rect height="22" rx="10" ry="10" width="96.5" x="165.5" y="62"></rect><text x="213.75" y="77">"restore"</text></g><path d="M 262.0 73 a 10 10 0 0 1 10 10 v 70 a 10 10 0 0 0 10 10"></path><path d="M 145.5 163 h 20"></path><g class="terminal ">
<path d="M 165.5 163 h 21.25"></path><path d="M 240.75 163 h 21.25"></path><rect height="22" rx="10" ry="10" width="54.0" x="186.75" y="152"></rect><text x="213.75" y="167">"ip"</text></g><path d="M 262.0 163 h 20"></path><path d="M 145.5 163 a 10 10 0 0 1 10 10 v 10 a 10 10 0 0 0 10 10"></path><g class="terminal ">
<path d="M 165.5 193 h 17.0"></path><path d="M 245.0 193 h 17.0"></path><rect height="22" rx="10" ry="10" width="62.5" x="182.5" y="182"></rect><text x="213.75" y="197">"lit"</text></g><path d="M 262.0 193 a 10 10 0 0 0 10 -10 v -10 a 10 10 0 0 1 10 -10"></path><path d="M 145.5 163 a 10 10 0 0 1 10 10 v 40 a 10 10 0 0 0 10 10"></path><g class="terminal ">
<path d="M 165.5 223 h 25.5"></path><path d="M 236.5 223 h 25.5"></path><rect height="22" rx="10" ry="10" width="45.5" x="191.0" y="212"></rect><text x="213.75" y="227">"m"</text></g><path d="M 262.0 223 a 10 10 0 0 0 10 -10 v -40 a 10 10 0 0 1 10 -10"></path><path d="M 145.5 163 a 10 10 0 0 1 10 10 v 70 a 10 10 0 0 0 10 10"></path><g class="terminal ">
<path d="M 165.5 253 h 21.25"></path><path d="M 240.75 253 h 21.25"></path><rect height="22" rx="10" ry="10" width="54.0" x="186.75" y="242"></rect><text x="213.75" y="257">"mi"</text></g><path d="M 262.0 253 a 10 10 0 0 0 10 -10 v -70 a 10 10 0 0 1 10 -10"></path><path d="M 145.5 163 a 10 10 0 0 1 10 10 v 100 a 10 10 0 0 0 10 10"></path><g class="terminal ">
<path d="M 165.5 283 h 21.25"></path><path d="M 240.75 283 h 21.25"></path><rect height="22" rx="10" ry="10" width="54.0" x="186.75" y="272"></rect><text x="213.75" y="287">"nb"</text></g><path d="M 262.0 283 a 10 10 0 0 0 10 -10 v -100 a 10 10 0 0 1 10 -10"></path><path d="M 145.5 163 a 10 10 0 0 1 10 10 v 130 a 10 10 0 0 0 10 10"></path><g class="terminal ">
<path d="M 165.5 313 h 25.5"></path><path d="M 236.5 313 h 25.5"></path><rect height="22" rx="10" ry="10" width="45.5" x="191.0" y="302"></rect><text x="213.75" y="317">"p"</text></g><path d="M 262.0 313 a 10 10 0 0 0 10 -10 v -130 a 10 10 0 0 1 10 -10"></path><path d="M 145.5 163 a 10 10 0 0 1 10 10 v 160 a 10 10 0 0 0 10 10"></path><g class="terminal ">
<path d="M 165.5 343 h 21.25"></path><path d="M 240.75 343 h 21.25"></path><rect height="22" rx="10" ry="10" width="54.0" x="186.75" y="332"></rect><text x="213.75" y="347">"pb"</text></g><path d="M 262.0 343 a 10 10 0 0 0 10 -10 v -160 a 10 10 0 0 1 10 -10"></path><path d="M 145.5 163 a 10 10 0 0 1 10 10 v 190 a 10 10 0 0 0 10 10"></path><g class="terminal ">
<path d="M 165.5 373 h 21.25"></path><path d="M 240.75 373 h 21.25"></path><rect height="22" rx="10" ry="10" width="54.0" x="186.75" y="362"></rect><text x="213.75" y="377">"pc"</text></g><path d="M 262.0 373 a 10 10 0 0 0 10 -10 v -190 a 10 10 0 0 1 10 -10"></path><path d="M 145.5 163 a 10 10 0 0 1 10 10 v 220 a 10 10 0 0 0 10 10"></path><g class="terminal ">
<path d="M 165.5 403 h 21.25"></path><path d="M 240.75 403 h 21.25"></path><rect height="22" rx="10" ry="10" width="54.0" x="186.75" y="392"></rect><text x="213.75" y="407">"pi"</text></g><path d="M 262.0 403 a 10 10 0 0 0 10 -10 v -220 a 10 10 0 0 1 10 -10"></path><path d="M 145.5 163 a 10 10 0 0 1 10 10 v 250 a 10 10 0 0 0 10 10"></path><g class="terminal ">
<path d="M 165.5 433 h 17.0"></path><path d="M 245.0 433 h 17.0"></path><rect height="22" rx="10" ry="10" width="62.5" x="182.5" y="422"></rect><text x="213.75" y="437">"pi1"</text></g><path d="M 262.0 433 a 10 10 0 0 0 10 -10 v -250 a 10 10 0 0 1 10 -10"></path><path d="M 145.5 163 a 10 10 0 0 1 10 10 v 280 a 10 10 0 0 0 10 10"></path><g class="terminal ">
<path d="M 165.5 463 h 17.0"></path><path d="M 245.0 463 h 17.0"></path><rect height="22" rx="10" ry="10" width="62.5" x="182.5" y="452"></rect><text x="213.75" y="467">"pi2"</text></g><path d="M 262.0 463 a 10 10 0 0 0 10 -10 v -280 a 10 10 0 0 1 10 -10"></path><path d="M 145.5 163 a 10 10 0 0 1 10 10 v 310 a 10 10 0 0 0 10 10"></path><g class="terminal ">
<path d="M 165.5 493 h 17.0"></path><path d="M 245.0 493 h 17.0"></path><rect height="22" rx="10" ry="10" width="62.5" x="182.5" y="482"></rect><text x="213.75" y="497">"pi3"</text></g><path d="M 262.0 493 a 10 10 0 0 0 10 -10 v -310 a 10 10 0 0 1 10 -10"></path></g><path d="M 292.0 163 a 10 10 0 0 1 10 10 v 339 a 10 10 0 0 0 10 10"></path><path d="M 292.0 44 a 10 10 0 0 1 10 10 v 99 a 10 10 0 0 0 10 10"></path><g>
<path d="M 312.0 163 h 10.0"></path><path d="M 424.5 163 h 10.0"></path><path d="M 322.0 163 a 10 10 0 0 0 10 -10 v -10 a 10 10 0 0 1 10 -10"></path><g class="terminal ">
<path d="M 342.0 133 h 0.0"></path><path d="M 404.5 133 h 0.0"></path><rect height="22" rx="10" ry="10" width="62.5" x="342.0" y="122"></rect><text x="373.25" y="137">"pmo"</text></g><path d="M 404.5 133 a 10 10 0 0 1 10 10 v 10 a 10 10 0 0 0 10 10"></path><path d="M 322.0 163 a 10 10 0 0 0 10 -10 v -40 a 10 10 0 0 1 10 -10"></path><g class="terminal ">
<path d="M 342.0 103 h 4.25"></path><path d="M 400.25 103 h 4.25"></path><rect height="22" rx="10" ry="10" width="54.0" x="346.25" y="92"></rect><text x="373.25" y="107">"pr"</text></g><path d="M 404.5 103 a 10 10 0 0 1 10 10 v 40 a 10 10 0 0 0 10 10"></path><path d="M 322.0 163 a 10 10 0 0 0 10 -10 v -70 a 10 10 0 0 1 10 -10"></path><g class="terminal ">
<path d="M 342.0 73 h 4.25"></path><path d="M 400.25 73 h 4.25"></path><rect height="22" rx="10" ry="10" width="54.0" x="346.25" y="62"></rect><text x="373.25" y="77">"po"</text></g><path d="M 404.5 73 a 10 10 0 0 1 10 10 v 70 a 10 10 0 0 0 10 10"></path><path d="M 322.0 163 h 20"></path><g class="terminal ">
<path d="M 342.0 163 h 4.25"></path><path d="M 400.25 163 h 4.25"></path><rect height="22" rx="10" ry="10" width="54.0" x="346.25" y="152"></rect><text x="373.25" y="167">"pm"</text></g><path d="M 404.5 163 h 20"></path><path d="M 322.0 163 a 10 10 0 0 1 10 10 v 10 a 10 10 0 0 0 10 10"></path><g class="terminal ">
<path d="M 342.0 193 h 0.0"></path><path d="M 404.5 193 h 0.0"></path><rect height="22" rx="10" ry="10" width="62.5" x="342.0" y="182"></rect><text x="373.25" y="197">"pmc"</text></g><path d="M 404.5 193 a 10 10 0 0 0 10 -10 v -10 a 10 10 0 0 1 10 -10"></path><path d="M 322.0 163 a 10 10 0 0 1 10 10 v 40 a 10 10 0 0 0 10 10"></path><g class="terminal ">
<path d="M 342.0 223 h 0.0"></path><path d="M 404.5 223 h 0.0"></path><rect height="22" rx="10" ry="10" width="62.5" x="342.0" y="212"></rect><text x="373.25" y="227">"pmr"</text></g><path d="M 404.5 223 a 10 10 0 0 0 10 -10 v -40 a 10 10 0 0 1 10 -10"></path><path d="M 322.0 163 a 10 10 0 0 1 10 10 v 70 a 10 10 0 0 0 10 10"></path><g class="terminal ">
<path d="M 342.0 253 h 4.25"></path><path d="M 400.25 253 h 4.25"></path><rect height="22" rx="10" ry="10" width="54.0" x="346.25" y="242"></rect><text x="373.25" y="257">"ph"</text></g><path d="M 404.5 253 a 10 10 0 0 0 10 -10 v -70 a 10 10 0 0 1 10 -10"></path><path d="M 322.0 163 a 10 10 0 0 1 10 10 v 100 a 10 10 0 0 0 10 10"></path><g class="terminal ">
<path d="M 342.0 283 h 0.0"></path><path d="M 404.5 283 h 0.0"></path><rect height="22" rx="10" ry="10" width="62.5" x="342.0" y="272"></rect><text x="373.25" y="287">"ph1"</text></g><path d="M 404.5 283 a 10 10 0 0 0 10 -10 v -100 a 10 10 0 0 1 10 -10"></path><path d="M 322.0 163 a 10 10 0 0 1 10 10 v 130 a 10 10 0 0 0 10 10"></path><g class="terminal ">
<path d="M 342.0 313 h 0.0"></path><path d="M 404.5 313 h 0.0"></path><rect height="22" rx="10" ry="10" width="62.5" x="342.0" y="302"></rect><text x="373.25" y="317">"ph2"</text></g><path d="M 404.5 313 a 10 10 0 0 0 10 -10 v -130 a 10 10 0 0 1 10 -10"></path><path d="M 322.0 163 a 10 10 0 0 1 10 10 v 160 a 10 10 0 0 0 10 10"></path><g class="terminal ">
<path d="M 342.0 343 h 0.0"></path><path d="M 404.5 343 h 0.0"></path><rect height="22" rx="10" ry="10" width="62.5" x="342.0" y="332"></rect><text x="373.25" y="347">"ph3"</text></g><path d="M 404.5 343 a 10 10 0 0 0 10 -10 v -160 a 10 10 0 0 1 10 -10"></path><path d="M 322.0 163 a 10 10 0 0 1 10 10 v 190 a 10 10 0 0 0 10 10"></path><g class="terminal ">
<path d="M 342.0 373 h 8.5"></path><path d="M 396.0 373 h 8.5"></path><rect height="22" rx="10" ry="10" width="45.5" x="350.5" y="362"></rect><text x="373.25" y="377">"q"</text></g><path d="M 404.5 373 a 10 10 0 0 0 10 -10 v -190 a 10 10 0 0 1 10 -10"></path><path d="M 322.0 163 a 10 10 0 0 1 10 10 v 220 a 10 10 0 0 0 10 10"></path><g class="terminal ">
<path d="M 342.0 403 h 4.25"></path><path d="M 400.25 403 h 4.25"></path><rect height="22" rx="10" ry="10" width="54.0" x="346.25" y="392"></rect><text x="373.25" y="407">"q1"</text></g><path d="M 404.5 403 a 10 10 0 0 0 10 -10 v -220 a 10 10 0 0 1 10 -10"></path><path d="M 322.0 163 a 10 10 0 0 1 10 10 v 250 a 10 10 0 0 0 10 10"></path><g class="terminal ">
<path d="M 342.0 433 h 4.25"></path><path d="M 400.25 433 h 4.25"></path><rect height="22" rx="10" ry="10" width="54.0" x="346.25" y="422"></rect><text x="373.25" y="437">"q2"</text></g><path d="M 404.5 433 a 10 10 0 0 0 10 -10 v -250 a 10 10 0 0 1 10 -10"></path><path d="M 322.0 163 a 10 10 0 0 1 10 10 v 280 a 10 10 0 0 0 10 10"></path><g class="terminal ">
<path d="M 342.0 463 h 4.25"></path><path d="M 400.25 463 h 4.25"></path><rect height="22" rx="10" ry="10" width="54.0" x="346.25" y="452"></rect><text x="373.25" y="467">"q3"</text></g><path d="M 404.5 463 a 10 10 0 0 0 10 -10 v -280 a 10 10 0 0 1 10 -10"></path><path d="M 322.0 163 a 10 10 0 0 1 10 10 v 310 a 10 10 0 0 0 10 10"></path><g class="terminal ">
<path d="M 342.0 493 h 4.25"></path><path d="M 400.25 493 h 4.25"></path><rect height="22" rx="10" ry="10" width="54.0" x="346.25" y="482"></rect><text x="373.25" y="497">"q4"</text></g><path d="M 404.5 493 a 10 10 0 0 0 10 -10 v -310 a 10 10 0 0 1 10 -10"></path></g><path d="M 434.5 163 a 10 10 0 0 1 10 10 v 339 a 10 10 0 0 0 10 10"></path><path d="M 434.5 44 a 10 10 0 0 1 10 10 v 99 a 10 10 0 0 0 10 10"></path><g>
<path d="M 454.5 163 h 10.0"></path><path d="M 567.0 163 h 10.0"></path><path d="M 464.5 163 a 10 10 0 0 0 10 -10 v -10 a 10 10 0 0 1 10 -10"></path><g class="terminal ">
<path d="M 484.5 133 h 4.25"></path><path d="M 542.75 133 h 4.25"></path><rect height="22" rx="10" ry="10" width="54.0" x="488.75" y="122"></rect><text x="515.75" y="137">"qr"</text></g><path d="M 547.0 133 a 10 10 0 0 1 10 10 v 10 a 10 10 0 0 0 10 10"></path><path d="M 464.5 163 a 10 10 0 0 0 10 -10 v -40 a 10 10 0 0 1 10 -10"></path><g class="terminal ">
<path d="M 484.5 103 h 4.25"></path><path d="M 542.75 103 h 4.25"></path><rect height="22" rx="10" ry="10" width="54.0" x="488.75" y="92"></rect><text x="515.75" y="107">"qc"</text></g><path d="M 547.0 103 a 10 10 0 0 1 10 10 v 40 a 10 10 0 0 0 10 10"></path><path d="M 464.5 163 a 10 10 0 0 0 10 -10 v -70 a 10 10 0 0 1 10 -10"></path><g class="terminal ">
<path d="M 484.5 73 h 4.25"></path><path d="M 542.75 73 h 4.25"></path><rect height="22" rx="10" ry="10" width="54.0" x="488.75" y="62"></rect><text x="515.75" y="77">"qa"</text></g><path d="M 547.0 73 a 10 10 0 0 1 10 10 v 70 a 10 10 0 0 0 10 10"></path><path d="M 464.5 163 h 20"></path><g class="terminal ">
<path d="M 484.5 163 h 4.25"></path><path d="M 542.75 163 h 4.25"></path><rect height="22" rx="10" ry="10" width="54.0" x="488.75" y="152"></rect><text x="515.75" y="167">"qm"</text></g><path d="M 547.0 163 h 20"></path><path d="M 464.5 163 a 10 10 0 0 1 10 10 v 10 a 10 10 0 0 0 10 10"></path><g class="terminal ">
<path d="M 484.5 193 h 0.0"></path><path d="M 547.0 193 h 0.0"></path><rect height="22" rx="10" ry="10" width="62.5" x="484.5" y="182"></rect><text x="515.75" y="197">"qm1"</text></g><path d="M 547.0 193 a 10 10 0 0 0 10 -10 v -10 a 10 10 0 0 1 10 -10"></path><path d="M 464.5 163 a 10 10 0 0 1 10 10 v 40 a 10 10 0 0 0 10 10"></path><g class="terminal ">
<path d="M 484.5 223 h 0.0"></path><path d="M 547.0 223 h 0.0"></path><rect height="22" rx="10" ry="10" width="62.5" x="484.5" y="212"></rect><text x="515.75" y="227">"qm2"</text></g><path d="M 547.0 223 a 10 10 0 0 0 10 -10 v -40 a 10 10 0 0 1 10 -10"></path><path d="M 464.5 163 a 10 10 0 0 1 10 10 v 70 a 10 10 0 0 0 10 10"></path><g class="terminal ">
<path d="M 484.5 253 h 0.0"></path><path d="M 547.0 253 h 0.0"></path><rect height="22" rx="10" ry="10" width="62.5" x="484.5" y="242"></rect><text x="515.75" y="257">"qm3"</text></g><path d="M 547.0 253 a 10 10 0 0 0 10 -10 v -70 a 10 10 0 0 1 10 -10"></path><path d="M 464.5 163 a 10 10 0 0 1 10 10 v 100 a 10 10 0 0 0 10 10"></path><g class="terminal ">
<path d="M 484.5 283 h 4.25"></path><path d="M 542.75 283 h 4.25"></path><rect height="22" rx="10" ry="10" width="54.0" x="488.75" y="272"></rect><text x="515.75" y="287">"qd"</text></g><path d="M 547.0 283 a 10 10 0 0 0 10 -10 v -100 a 10 10 0 0 1 10 -10"></path><path d="M 464.5 163 a 10 10 0 0 1 10 10 v 130 a 10 10 0 0 0 10 10"></path><g class="terminal ">
<path d="M 484.5 313 h 8.5"></path><path d="M 538.5 313 h 8.5"></path><rect height="22" rx="10" ry="10" width="45.5" x="493.0" y="302"></rect><text x="515.75" y="317">"b"</text></g><path d="M 547.0 313 a 10 10 0 0 0 10 -10 v -130 a 10 10 0 0 1 10 -10"></path><path d="M 464.5 163 a 10 10 0 0 1 10 10 v 160 a 10 10 0 0 0 10 10"></path><g class="terminal ">
<path d="M 484.5 343 h 8.5"></path><path d="M 538.5 343 h 8.5"></path><rect height="22" rx="10" ry="10" width="45.5" x="493.0" y="332"></rect><text x="515.75" y="347">"d"</text></g><path d="M 547.0 343 a 10 10 0 0 0 10 -10 v -160 a 10 10 0 0 1 10 -10"></path><path d="M 464.5 163 a 10 10 0 0 1 10 10 v 190 a 10 10 0 0 0 10 10"></path><g class="terminal ">
<path d="M 484.5 373 h 4.25"></path><path d="M 542.75 373 h 4.25"></path><rect height="22" rx="10" ry="10" width="54.0" x="488.75" y="362"></rect><text x="515.75" y="377">"ms"</text></g><path d="M 547.0 373 a 10 10 0 0 0 10 -10 v -190 a 10 10 0 0 1 10 -10"></path><path d="M 464.5 163 a 10 10 0 0 1 10 10 v 220 a 10 10 0 0 0 10 10"></path><g class="terminal ">
<path d="M 484.5 403 h 0.0"></path><path d="M 547.0 403 h 0.0"></path><rect height="22" rx="10" ry="10" width="62.5" x="484.5" y="392"></rect><text x="515.75" y="407">"ms1"</text></g><path d="M 547.0 403 a 10 10 0 0 0 10 -10 v -220 a 10 10 0 0 1 10 -10"></path><path d="M 464.5 163 a 10 10 0 0 1 10 10 v 250 a 10 10 0 0 0 10 10"></path><g class="terminal ">
<path d="M 484.5 433 h 0.0"></path><path d="M 547.0 433 h 0.0"></path><rect height="22" rx="10" ry="10" width="62.5" x="484.5" y="422"></rect><text x="515.75" y="437">"ms2"</text></g><path d="M 547.0 433 a 10 10 0 0 0 10 -10 v -250 a 10 10 0 0 1 10 -10"></path><path d="M 464.5 163 a 10 10 0 0 1 10 10 v 280 a 10 10 0 0 0 10 10"></path><g class="terminal ">
<path d="M 484.5 463 h 0.0"></path><path d="M 547.0 463 h 0.0"></path><rect height="22" rx="10" ry="10" width="62.5" x="484.5" y="452"></rect><text x="515.75" y="467">"ms3"</text></g><path d="M 547.0 463 a 10 10 0 0 0 10 -10 v -280 a 10 10 0 0 1 10 -10"></path><path d="M 464.5 163 a 10 10 0 0 1 10 10 v 310 a 10 10 0 0 0 10 10"></path><g class="terminal ">
<path d="M 484.5 493 h 4.25"></path><path d="M 542.75 493 h 4.25"></path><rect height="22" rx="10" ry="10" width="54.0" x="488.75" y="482"></rect><text x="515.75" y="497">"mr"</text></g><path d="M 547.0 493 a 10 10 0 0 0 10 -10 v -310 a 10 10 0 0 1 10 -10"></path></g><path d="M 577.0 163 a 10 10 0 0 1 10 10 v 339 a 10 10 0 0 0 10 10"></path><path d="M 577.0 44 a 10 10 0 0 1 10 10 v 99 a 10 10 0 0 0 10 10"></path><g>
<path d="M 597.0 163 h 10.0"></path><path d="M 709.5 163 h 10.0"></path><path d="M 607.0 163 a 10 10 0 0 0 10 -10 v -10 a 10 10 0 0 1 10 -10"></path><g class="terminal ">
<path d="M 627.0 133 h 4.25"></path><path d="M 685.25 133 h 4.25"></path><rect height="22" rx="10" ry="10" width="54.0" x="631.25" y="122"></rect><text x="658.25" y="137">"s1"</text></g><path d="M 689.5 133 a 10 10 0 0 1 10 10 v 10 a 10 10 0 0 0 10 10"></path><path d="M 607.0 163 a 10 10 0 0 0 10 -10 v -40 a 10 10 0 0 1 10 -10"></path><g class="terminal ">
<path d="M 627.0 103 h 8.5"></path><path d="M 681.0 103 h 8.5"></path><rect height="22" rx="10" ry="10" width="45.5" x="635.5" y="92"></rect><text x="658.25" y="107">"s"</text></g><path d="M 689.5 103 a 10 10 0 0 1 10 10 v 40 a 10 10 0 0 0 10 10"></path><path d="M 607.0 163 a 10 10 0 0 0 10 -10 v -70 a 10 10 0 0 1 10 -10"></path><g class="terminal ">
<path d="M 627.0 73 h 8.5"></path><path d="M 681.0 73 h 8.5"></path><rect height="22" rx="10" ry="10" width="45.5" x="635.5" y="62"></rect><text x="658.25" y="77">"r"</text></g><path d="M 689.5 73 a 10 10 0 0 1 10 10 v 70 a 10 10 0 0 0 10 10"></path><path d="M 607.0 163 h 20"></path><g class="terminal ">
<path d="M 627.0 163 h 4.25"></path><path d="M 685.25 163 h 4.25"></path><rect height="22" rx="10" ry="10" width="54.0" x="631.25" y="152"></rect><text x="658.25" y="167">"s2"</text></g><path d="M 689.5 163 h 20"></path><path d="M 607.0 163 a 10 10 0 0 1 10 10 v 10 a 10 10 0 0 0 10 10"></path><g class="terminal ">
<path d="M 627.0 193 h 4.25"></path><path d="M 685.25 193 h 4.25"></path><rect height="22" rx="10" ry="10" width="54.0" x="631.25" y="182"></rect><text x="658.25" y="197">"s3"</text></g><path d="M 689.5 193 a 10 10 0 0 0 10 -10 v -10 a 10 10 0 0 1 10 -10"></path><path d="M 607.0 163 a 10 10 0 0 1 10 10 v 40 a 10 10 0 0 0 10 10"></path><g class="terminal ">
<path d="M 627.0 223 h 4.25"></path><path d="M 685.25 223 h 4.25"></path><rect height="22" rx="10" ry="10" width="54.0" x="631.25" y="212"></rect><text x="658.25" y="227">"s4"</text></g><path d="M 689.5 223 a 10 10 0 0 0 10 -10 v -40 a 10 10 0 0 1 10 -10"></path><path d="M 607.0 163 a 10 10 0 0 1 10 10 v 70 a 10 10 0 0 0 10 10"></path><g class="terminal ">
<path d="M 627.0 253 h 4.25"></path><path d="M 685.25 253 h 4.25"></path><rect height="22" rx="10" ry="10" width="54.0" x="631.25" y="242"></rect><text x="658.25" y="257">"sr"</text></g><path d="M 689.5 253 a 10 10 0 0 0 10 -10 v -70 a 10 10 0 0 1 10 -10"></path><path d="M 607.0 163 a 10 10 0 0 1 10 10 v 100 a 10 10 0 0 0 10 10"></path><g class="terminal ">
<path d="M 627.0 283 h 4.25"></path><path d="M 685.25 283 h 4.25"></path><rect height="22" rx="10" ry="10" width="54.0" x="631.25" y="272"></rect><text x="658.25" y="287">"sp"</text></g><path d="M 689.5 283 a 10 10 0 0 0 10 -10 v -100 a 10 10 0 0 1 10 -10"></path><path d="M 607.0 163 a 10 10 0 0 1 10 10 v 130 a 10 10 0 0 0 10 10"></path><g class="terminal ">
<path d="M 627.0 313 h 4.25"></path><path d="M 685.25 313 h 4.25"></path><rect height="22" rx="10" ry="10" width="54.0" x="631.25" y="302"></rect><text x="658.25" y="317">"sd"</text></g><path d="M 689.5 313 a 10 10 0 0 0 10 -10 v -130 a 10 10 0 0 1 10 -10"></path><path d="M 607.0 163 a 10 10 0 0 1 10 10 v 160 a 10 10 0 0 0 10 10"></path><g class="terminal ">
<path d="M 627.0 343 h 0.0"></path><path d="M 689.5 343 h 0.0"></path><rect height="22" rx="10" ry="10" width="62.5" x="627.0" y="332"></rect><text x="658.25" y="347">"sd1"</text></g><path d="M 689.5 343 a 10 10 0 0 0 10 -10 v -160 a 10 10 0 0 1 10 -10"></path><path d="M 607.0 163 a 10 10 0 0 1 10 10 v 190 a 10 10 0 0 0 10 10"></path><g class="terminal ">
<path d="M 627.0 373 h 0.0"></path><path d="M 689.5 373 h 0.0"></path><rect height="22" rx="10" ry="10" width="62.5" x="627.0" y="362"></rect><text x="658.25" y="377">"sd2"</text></g><path d="M 689.5 373 a 10 10 0 0 0 10 -10 v -190 a 10 10 0 0 1 10 -10"></path><path d="M 607.0 163 a 10 10 0 0 1 10 10 v 220 a 10 10 0 0 0 10 10"></path><g class="terminal ">
<path d="M 627.0 403 h 0.0"></path><path d="M 689.5 403 h 0.0"></path><rect height="22" rx="10" ry="10" width="62.5" x="627.0" y="392"></rect><text x="658.25" y="407">"sd3"</text></g><path d="M 689.5 403 a 10 10 0 0 0 10 -10 v -220 a 10 10 0 0 1 10 -10"></path><path d="M 607.0 163 a 10 10 0 0 1 10 10 v 250 a 10 10 0 0 0 10 10"></path><g class="terminal ">
<path d="M 627.0 433 h 0.0"></path><path d="M 689.5 433 h 0.0"></path><rect height="22" rx="10" ry="10" width="62.5" x="627.0" y="422"></rect><text x="658.25" y="437">"sd4"</text></g><path d="M 689.5 433 a 10 10 0 0 0 10 -10 v -250 a 10 10 0 0 1 10 -10"></path><path d="M 607.0 163 a 10 10 0 0 1 10 10 v 280 a 10 10 0 0 0 10 10"></path><g class="terminal ">
<path d="M 627.0 463 h 4.25"></path><path d="M 685.25 463 h 4.25"></path><rect height="22" rx="10" ry="10" width="54.0" x="631.25" y="452"></rect><text x="658.25" y="467">"ts"</text></g><path d="M 689.5 463 a 10 10 0 0 0 10 -10 v -280 a 10 10 0 0 1 10 -10"></path><path d="M 607.0 163 a 10 10 0 0 1 10 10 v 310 a 10 10 0 0 0 10 10"></path><g class="terminal ">
<path d="M 627.0 493 h 4.25"></path><path d="M 685.25 493 h 4.25"></path><rect height="22" rx="10" ry="10" width="54.0" x="631.25" y="482"></rect><text x="658.25" y="497">"cp"</text></g><path d="M 689.5 493 a 10 10 0 0 0 10 -10 v -310 a 10 10 0 0 1 10 -10"></path></g><path d="M 719.5 163 a 10 10 0 0 1 10 10 v 339 a 10 10 0 0 0 10 10"></path><path d="M 719.5 44 a 10 10 0 0 1 10 10 v 99 a 10 10 0 0 0 10 10"></path><g>
<path d="M 739.5 163 h 10.0"></path><path d="M 860.5 163 h 10.0"></path><path d="M 749.5 163 a 10 10 0 0 0 10 -10 v -10 a 10 10 0 0 1 10 -10"></path><g class="terminal ">
<path d="M 769.5 133 h 4.25"></path><path d="M 836.25 133 h 4.25"></path><rect height="22" rx="10" ry="10" width="62.5" x="773.75" y="122"></rect><text x="805.0" y="137">"mte"</text></g><path d="M 840.5 133 a 10 10 0 0 1 10 10 v 10 a 10 10 0 0 0 10 10"></path><path d="M 749.5 163 a 10 10 0 0 0 10 -10 v -40 a 10 10 0 0 1 10 -10"></path><g class="terminal ">
<path d="M 769.5 103 h 8.5"></path><path d="M 832.0 103 h 8.5"></path><rect height="22" rx="10" ry="10" width="54.0" x="778.0" y="92"></rect><text x="805.0" y="107">"cd"</text></g><path d="M 840.5 103 a 10 10 0 0 1 10 10 v 40 a 10 10 0 0 0 10 10"></path><path d="M 749.5 163 a 10 10 0 0 0 10 -10 v -70 a 10 10 0 0 1 10 -10"></path><g class="terminal ">
<path d="M 769.5 73 h 8.5"></path><path d="M 832.0 73 h 8.5"></path><rect height="22" rx="10" ry="10" width="54.0" x="778.0" y="62"></rect><text x="805.0" y="77">"cl"</text></g><path d="M 840.5 73 a 10 10 0 0 1 10 10 v 70 a 10 10 0 0 0 10 10"></path><path d="M 749.5 163 h 20"></path><g class="terminal ">
<path d="M 769.5 163 h 0.0"></path><path d="M 840.5 163 h 0.0"></path><rect height="22" rx="10" ry="10" width="71.0" x="769.5" y="152"></rect><text x="805.0" y="167">"mte1"</text></g><path d="M 840.5 163 h 20"></path><path d="M 749.5 163 a 10 10 0 0 1 10 10 v 10 a 10 10 0 0 0 10 10"></path><g class="terminal ">
<path d="M 769.5 193 h 0.0"></path><path d="M 840.5 193 h 0.0"></path><rect height="22" rx="10" ry="10" width="71.0" x="769.5" y="182"></rect><text x="805.0" y="197">"mte2"</text></g><path d="M 840.5 193 a 10 10 0 0 0 10 -10 v -10 a 10 10 0 0 1 10 -10"></path><path d="M 749.5 163 a 10 10 0 0 1 10 10 v 40 a 10 10 0 0 0 10 10"></path><g class="terminal ">
<path d="M 769.5 223 h 12.75"></path><path d="M 827.75 223 h 12.75"></path><rect height="22" rx="10" ry="10" width="45.5" x="782.25" y="212"></rect><text x="805.0" y="227">"p"</text></g><path d="M 840.5 223 a 10 10 0 0 0 10 -10 v -40 a 10 10 0 0 1 10 -10"></path><path d="M 749.5 163 a 10 10 0 0 1 10 10 v 70 a 10 10 0 0 0 10 10"></path><g class="terminal ">
<path d="M 769.5 253 h 8.5"></path><path d="M 832.0 253 h 8.5"></path><rect height="22" rx="10" ry="10" width="54.0" x="778.0" y="242"></rect><text x="805.0" y="257">"p1"</text></g><path d="M 840.5 253 a 10 10 0 0 0 10 -10 v -70 a 10 10 0 0 1 10 -10"></path><path d="M 749.5 163 a 10 10 0 0 1 10 10 v 100 a 10 10 0 0 0 10 10"></path><g class="terminal ">
<path d="M 769.5 283 h 8.5"></path><path d="M 832.0 283 h 8.5"></path><rect height="22" rx="10" ry="10" width="54.0" x="778.0" y="272"></rect><text x="805.0" y="287">"p2"</text></g><path d="M 840.5 283 a 10 10 0 0 0 10 -10 v -100 a 10 10 0 0 1 10 -10"></path><path d="M 749.5 163 a 10 10 0 0 1 10 10 v 130 a 10 10 0 0 0 10 10"></path><g class="terminal ">
<path d="M 769.5 313 h 8.5"></path><path d="M 832.0 313 h 8.5"></path><rect height="22" rx="10" ry="10" width="54.0" x="778.0" y="302"></rect><text x="805.0" y="317">"k1"</text></g><path d="M 840.5 313 a 10 10 0 0 0 10 -10 v -130 a 10 10 0 0 1 10 -10"></path><path d="M 749.5 163 a 10 10 0 0 1 10 10 v 160 a 10 10 0 0 0 10 10"></path><g class="terminal ">
<path d="M 769.5 343 h 8.5"></path><path d="M 832.0 343 h 8.5"></path><rect height="22" rx="10" ry="10" width="54.0" x="778.0" y="332"></rect><text x="805.0" y="347">"k2"</text></g><path d="M 840.5 343 a 10 10 0 0 0 10 -10 v -160 a 10 10 0 0 1 10 -10"></path><path d="M 749.5 163 a 10 10 0 0 1 10 10 v 190 a 10 10 0 0 0 10 10"></path><g class="terminal ">
<path d="M 769.5 373 h 4.25"></path><path d="M 836.25 373 h 4.25"></path><rect height="22" rx="10" ry="10" width="62.5" x="773.75" y="362"></rect><text x="805.0" y="377">"rem"</text></g><path d="M 840.5 373 a 10 10 0 0 0 10 -10 v -190 a 10 10 0 0 1 10 -10"></path></g><path d="M 870.5 163 h 10"></path></g></g><g class="non-terminal ">
<path d="M 115.5 28 h 0.0"></path><path d="M 132.5 28 h 0.0"></path><text class="comment" x="124.0" y="33">➊</text></g></g><path d="M 890.5 163 h 10"></path><path d="M 900.5 163 h 10"></path><g class="terminal ">
<path d="M 910.5 163 h 0.0"></path><path d="M 981.5 163 h 0.0"></path><rect height="22" rx="10" ry="10" width="71.0" x="910.5" y="152"></rect><text x="946.0" y="167">TAGEND</text></g><path d="M 981.5 163 h 10"></path><path d="M 991.5 163 h 10"></path><g>
<path d="M 1001.5 163 h 0.0"></path><path d="M 1200.5 163 h 0.0"></path><path d="M 1001.5 163 h 10"></path><g>
<path d="M 1011.5 163 h 0.0"></path><path d="M 1190.5 163 h 0.0"></path><path d="M 1011.5 163 h 20"></path><g class="non-terminal ">
<path d="M 1031.5 163 h 21.25"></path><path d="M 1149.25 163 h 21.25"></path><rect height="22" width="96.5" x="1052.75" y="152"></rect><text x="1101.0" y="167">Reference</text></g><path d="M 1170.5 163 h 20"></path><path d="M 1011.5 163 a 10 10 0 0 1 10 10 v 10 a 10 10 0 0 0 10 10"></path><g class="non-terminal ">
<path d="M 1031.5 193 h 25.5"></path><path d="M 1145.0 193 h 25.5"></path><rect height="22" width="88.0" x="1057.0" y="182"></rect><text x="1101.0" y="197">Footnote</text></g><path d="M 1170.5 193 a 10 10 0 0 0 10 -10 v -10 a 10 10 0 0 1 10 -10"></path><path d="M 1011.5 163 a 10 10 0 0 1 10 10 v 40 a 10 10 0 0 0 10 10"></path><g class="non-terminal ">
<path d="M 1031.5 223 h 0.0"></path><path d="M 1170.5 223 h 0.0"></path><rect height="22" width="139.0" x="1031.5" y="212"></rect><text x="1101.0" y="227">CrossReference</text></g><path d="M 1170.5 223 a 10 10 0 0 0 10 -10 v -40 a 10 10 0 0 1 10 -10"></path><path d="M 1011.5 163 a 10 10 0 0 1 10 10 v 70 a 10 10 0 0 0 10 10"></path><g class="non-terminal ">
<path d="M 1031.5 253 h 42.5"></path><path d="M 1128.0 253 h 42.5"></path><rect height="22" width="54.0" x="1074.0" y="242"></rect><text x="1101.0" y="257">Char</text></g><path d="M 1170.5 253 a 10 10 0 0 0 10 -10 v -70 a 10 10 0 0 1 10 -10"></path><path d="M 1011.5 163 a 10 10 0 0 1 10 10 v 100 a 10 10 0 0 0 10 10"></path><g class="non-terminal ">
<path d="M 1031.5 283 h 21.25"></path><path d="M 1149.25 283 h 21.25"></path><rect height="22" width="96.5" x="1052.75" y="272"></rect><text x="1101.0" y="287">Milestone</text></g><path d="M 1170.5 283 a 10 10 0 0 0 10 -10 v -100 a 10 10 0 0 1 10 -10"></path><path d="M 1011.5 163 a 10 10 0 0 1 10 10 v 130 a 10 10 0 0 0 10 10"></path><g class="non-terminal ">
<path d="M 1031.5 313 h 38.25"></path><path d="M 1132.25 313 h 38.25"></path><rect height="22" width="62.5" x="1069.75" y="302"></rect><text x="1101.0" y="317">Verse</text></g><path d="M 1170.5 313 a 10 10 0 0 0 10 -10 v -130 a 10 10 0 0 1 10 -10"></path></g><path d="M 1190.5 163 h 10"></path><path d="M 1011.5 163 a 10 10 0 0 0 -10 10 v 159 a 10 10 0 0 0 10 10"></path><g>
<path d="M 1011.5 342 h 179.0"></path></g><path d="M 1190.5 342 a 10 10 0 0 0 10 -10 v -159 a 10 10 0 0 0 -10 -10"></path></g></g><path d="M 1200.5 163 h 10"></path><path d="M 1210.5 163 h 20 m 0 -10 v 20"></path></g></svg>