<svg class="railroad-diagram" height="358" viewBox="0 0 933.5 358" width="933.5" xmlns="http://www.w3.org/2000/svg" xmlns:xlink="http://www.w3.org/1999/xlink">
<g transform="translate(.5 .5)">
<style>/* <![CDATA[ */

    svg.railroad-diagram {
        background-color: hsl(30,20%,95%);
    }
    svg.railroad-diagram path {
        stroke-width: 2;
        stroke: black;
        fill: none;
    }
    svg.railroad-diagram text {
        font-size: 12px;
        text-anchor: middle;
        font-family: DejaVu Sans;
    }
    svg.railroad-diagram text.label {
        text-anchor:start;
    }
    svg.railroad-diagram text.comment {
        font-family: DejaVu Sans;
        font-size: 14px;
    }
    svg.railroad-diagram rect{
        stroke-width: 2;
        stroke: black;
        fill: rgb(210, 255, 210);
    }
    svg.railroad-diagram rect.group-box {
        stroke: gray;
        stroke-dasharray: 10 5;
        fill: none;
    }
    .terminal {
        font-family: DejaVu Sans;
    }
    svg.railroad-diagram g.altterminal rect {
        fill: rgb(251, 252, 207)
    }

/* ]]> */
</style><g>
<path d="M 20 49 v 20 m 0 -10 h 20"></path></g><path d="M 40 59 h 10"></path><g>
<path d="M 50 59 h 0.0"></path><path d="M 883.5 59 h 0.0"></path><g>
<path d="M 50.0 59 h 0.0"></path><path d="M 610.0 59 h 0.0"></path><path d="M 50.0 59 h 20"></path><g>
<path d="M 70.0 59 h 0.0"></path><path d="M 590.0 59 h 0.0"></path><g>
<path d="M 70.0 59 h 0.0"></path><path d="M 206.5 59 h 0.0"></path><path d="M 70.0 59 h 20"></path><g class="terminal ">
<path d="M 90.0 59 h 12.75"></path><path d="M 173.75 59 h 12.75"></path><rect height="22" rx="10" ry="10" width="71.0" x="102.75" y="48"></rect><text x="138.25" y="63">'\n\\'</text></g><path d="M 186.5 59 h 20"></path><path d="M 70.0 59 a 10 10 0 0 1 10 10 v 10 a 10 10 0 0 0 10 10"></path><g class="terminal altterminal">
<path d="M 90.0 89 h 0.0"></path><path d="M 186.5 89 h 0.0"></path><rect height="22" rx="10" ry="10" width="96.5" x="90.0" y="78"></rect><text x="138.25" y="93">/${Ws}\\/</text></g><path d="M 186.5 89 a 10 10 0 0 0 10 -10 v -10 a 10 10 0 0 1 10 -10"></path></g><path d="M 206.5 59 h 10"></path><path d="M 216.5 59 h 10"></path><g class="non-terminal ">
<path d="M 226.5 59 h 0.0"></path><path d="M 459.0 59 h 0.0"></path><rect height="22" width="232.5" x="226.5" y="48"></rect><text x="342.75" y="63">OtherPara.para.style.enum</text></g><path d="M 459.0 59 h 10"></path><path d="M 469.0 59 h 10"></path><g>
<path d="M 479.0 59 h 0.0"></path><path d="M 590.0 59 h 0.0"></path><path d="M 479.0 59 h 20"></path><g class="terminal ">
<path d="M 499.0 59 h 12.75"></path><path d="M 557.25 59 h 12.75"></path><rect height="22" rx="10" ry="10" width="45.5" x="511.75" y="48"></rect><text x="534.5" y="63">' '</text></g><path d="M 570.0 59 h 20"></path><path d="M 479.0 59 a 10 10 0 0 1 10 10 v 10 a 10 10 0 0 0 10 10"></path><g class="terminal altterminal">
<path d="M 499.0 89 h 0.0"></path><path d="M 570.0 89 h 0.0"></path><rect height="22" rx="10" ry="10" width="71.0" x="499.0" y="78"></rect><text x="534.5" y="93">TAGEND</text></g><path d="M 570.0 89 a 10 10 0 0 0 10 -10 v -10 a 10 10 0 0 1 10 -10"></path></g></g><path d="M 590.0 59 h 20"></path><path d="M 50.0 59 a 10 10 0 0 1 10 10 v 60 a 10 10 0 0 0 10 10"></path><g>
<path d="M 70.0 139 h 0.0"></path><path d="M 590.0 139 h 0.0"></path><g>
<path d="M 70.0 139 h 0.0"></path><path d="M 206.5 139 h 0.0"></path><path d="M 70.0 139 h 20"></path><g class="terminal ">
<path d="M 90.0 139 h 12.75"></path><path d="M 173.75 139 h 12.75"></path><rect height="22" rx="10" ry="10" width="71.0" x="102.75" y="128"></rect><text x="138.25" y="143">'\n\\'</text></g><path d="M 186.5 139 h 20"></path><path d="M 70.0 139 a 10 10 0 0 1 10 10 v 10 a 10 10 0 0 0 10 10"></path><g class="terminal altterminal">
<path d="M 90.0 169 h 0.0"></path><path d="M 186.5 169 h 0.0"></path><rect height="22" rx="10" ry="10" width="96.5" x="90.0" y="158"></rect><text x="138.25" y="173">/${Ws}\\/</text></g><path d="M 186.5 169 a 10 10 0 0 0 10 -10 v -10 a 10 10 0 0 1 10 -10"></path></g><path d="M 206.5 139 h 10"></path><path d="M 216.5 139 h 10"></path><g class="non-terminal ">
<path d="M 226.5 139 h 0.0"></path><path d="M 459.0 139 h 0.0"></path><rect height="22" width="232.5" x="226.5" y="128"></rect><text x="342.75" y="143">VersePara.para.style.enum</text></g><path d="M 459.0 139 h 10"></path><path d="M 469.0 139 h 10"></path><g>
<path d="M 479.0 139 h 0.0"></path><path d="M 590.0 139 h 0.0"></path><path d="M 479.0 139 h 20"></path><g class="terminal ">
<path d="M 499.0 139 h 12.75"></path><path d="M 557.25 139 h 12.75"></path><rect height="22" rx="10" ry="10" width="45.5" x="511.75" y="128"></rect><text x="534.5" y="143">' '</text></g><path d="M 570.0 139 h 20"></path><path d="M 479.0 139 a 10 10 0 0 1 10 10 v 10 a 10 10 0 0 0 10 10"></path><g class="terminal altterminal">
<path d="M 499.0 169 h 0.0"></path><path d="M 570.0 169 h 0.0"></path><rect height="22" rx="10" ry="10" width="71.0" x="499.0" y="158"></rect><text x="534.5" y="173">TAGEND</text></g><path d="M 570.0 169 a 10 10 0 0 0 10 -10 v -10 a 10 10 0 0 1 10 -10"></path></g></g><path d="M 590.0 139 a 10 10 0 0 0 10 -10 v -60 a 10 10 0 0 1 10 -10"></path></g><path d="M 610.0 59 h 10"></path><path d="M 620.0 59 h 10"></path><g>
<path d="M 630.0 59 h 0.0"></path><path d="M 883.5 59 h 0.0"></path><path d="M 630.0 59 a 10 10 0 0 0 10 -10 v -9 a 10 10 0 0 1 10 -10"></path><g>
<path d="M 650.0 30 h 213.5"></path></g><path d="M 863.5 30 a 10 10 0 0 1 10 10 v 9 a 10 10 0 0 0 10 10"></path><path d="M 630.0 59 h 20"></path><g>
<path d="M 650.0 59 h 0.0"></path><path d="M 863.5 59 h 0.0"></path><path d="M 650.0 59 h 10"></path><g>
<path d="M 660.0 59 h 0.0"></path><path d="M 853.5 59 h 0.0"></path><path d="M 660.0 59 h 20"></path><g>
<path d="M 680.0 59 h 0.0"></path><path d="M 833.5 59 h 0.0"></path><g class="terminal ">
<path d="M 680.0 59 h 0.0"></path><path d="M 734.0 59 h 0.0"></path><rect height="22" rx="10" ry="10" width="54.0" x="680.0" y="48"></rect><text x="707.0" y="63">TEXT</text></g><path d="M 734.0 59 h 10"></path><path d="M 744.0 59 h 10"></path><g class="terminal ">
<path d="M 754.0 59 h 0.0"></path><path d="M 833.5 59 h 0.0"></path><rect height="22" rx="10" ry="10" width="79.5" x="754.0" y="48"></rect><text x="793.75" y="63">TEXTEND</text></g></g><path d="M 833.5 59 h 20"></path><path d="M 660.0 59 a 10 10 0 0 1 10 10 v 10 a 10 10 0 0 0 10 10"></path><g class="non-terminal ">
<path d="M 680.0 89 h 49.75"></path><path d="M 783.75 89 h 49.75"></path><rect height="22" width="54.0" x="729.75" y="78"></rect><text x="756.75" y="93">Char</text></g><path d="M 833.5 89 a 10 10 0 0 0 10 -10 v -10 a 10 10 0 0 1 10 -10"></path><path d="M 660.0 59 a 10 10 0 0 1 10 10 v 40 a 10 10 0 0 0 10 10"></path><g class="non-terminal ">
<path d="M 680.0 119 h 41.25"></path><path d="M 792.25 119 h 41.25"></path><rect height="22" width="71.0" x="721.25" y="108"></rect><text x="756.75" y="123">Figure</text></g><path d="M 833.5 119 a 10 10 0 0 0 10 -10 v -40 a 10 10 0 0 1 10 -10"></path><path d="M 660.0 59 a 10 10 0 0 1 10 10 v 70 a 10 10 0 0 0 10 10"></path><g class="non-terminal ">
<path d="M 680.0 149 h 28.5"></path><path d="M 805.0 149 h 28.5"></path><rect height="22" width="96.5" x="708.5" y="138"></rect><text x="756.75" y="153">Milestone</text></g><path d="M 833.5 149 a 10 10 0 0 0 10 -10 v -70 a 10 10 0 0 1 10 -10"></path><path d="M 660.0 59 a 10 10 0 0 1 10 10 v 100 a 10 10 0 0 0 10 10"></path><g class="non-terminal ">
<path d="M 680.0 179 h 45.5"></path><path d="M 788.0 179 h 45.5"></path><rect height="22" width="62.5" x="725.5" y="168"></rect><text x="756.75" y="183">Verse</text></g><path d="M 833.5 179 a 10 10 0 0 0 10 -10 v -100 a 10 10 0 0 1 10 -10"></path><path d="M 660.0 59 a 10 10 0 0 1 10 10 v 130 a 10 10 0 0 0 10 10"></path><g class="non-terminal ">
<path d="M 680.0 209 h 28.5"></path><path d="M 805.0 209 h 28.5"></path><rect height="22" width="96.5" x="708.5" y="198"></rect><text x="756.75" y="213">Reference</text></g><path d="M 833.5 209 a 10 10 0 0 0 10 -10 v -130 a 10 10 0 0 1 10 -10"></path><path d="M 660.0 59 a 10 10 0 0 1 10 10 v 160 a 10 10 0 0 0 10 10"></path><g class="non-terminal ">
<path d="M 680.0 239 h 32.75"></path><path d="M 800.75 239 h 32.75"></path><rect height="22" width="88.0" x="712.75" y="228"></rect><text x="756.75" y="243">Footnote</text></g><path d="M 833.5 239 a 10 10 0 0 0 10 -10 v -160 a 10 10 0 0 1 10 -10"></path><path d="M 660.0 59 a 10 10 0 0 1 10 10 v 190 a 10 10 0 0 0 10 10"></path><g class="non-terminal ">
<path d="M 680.0 269 h 7.25"></path><path d="M 826.25 269 h 7.25"></path><rect height="22" width="139.0" x="687.25" y="258"></rect><text x="756.75" y="273">CrossReference</text></g><path d="M 833.5 269 a 10 10 0 0 0 10 -10 v -190 a 10 10 0 0 1 10 -10"></path><path d="M 660.0 59 a 10 10 0 0 1 10 10 v 220 a 10 10 0 0 0 10 10"></path><g>
<path d="M 680.0 299 h 49.75"></path><path d="M 783.75 299 h 49.75"></path><g class="terminal ">
<path d="M 729.75 299 h 0.0"></path><path d="M 783.75 299 h 0.0"></path><rect height="22" rx="10" ry="10" width="54.0" x="729.75" y="288"></rect><text x="756.75" y="303">'//'</text></g></g><path d="M 833.5 299 a 10 10 0 0 0 10 -10 v -220 a 10 10 0 0 1 10 -10"></path></g><path d="M 853.5 59 h 10"></path><path d="M 660.0 59 a 10 10 0 0 0 -10 10 v 249 a 10 10 0 0 0 10 10"></path><g>
<path d="M 660.0 328 h 193.5"></path></g><path d="M 853.5 328 a 10 10 0 0 0 10 -10 v -249 a 10 10 0 0 0 -10 -10"></path></g><path d="M 863.5 59 h 20"></path></g></g><path d="M 883.5 59 h 10"></path><path d="M 893.5 59 h 20 m 0 -10 v 20"></path></g></svg>