<svg class="railroad-diagram" height="828" viewBox="0 0 1100.0 828" width="1100.0" xmlns="http://www.w3.org/2000/svg" xmlns:xlink="http://www.w3.org/1999/xlink">
<g transform="translate(.5 .5)">
<style>/* <![CDATA[ */

    svg.railroad-diagram {
        background-color: hsl(30,20%,95%);
    }
    svg.railroad-diagram path {
        stroke-width: 2;
        stroke: black;
        fill: none;
    }
    svg.railroad-diagram text {
        font-size: 12px;
        text-anchor: middle;
        font-family: DejaVu Sans;
    }
    svg.railroad-diagram text.label {
        text-anchor:start;
    }
    svg.railroad-diagram text.comment {
        font-family: DejaVu Sans;
        font-size: 14px;
    }
    svg.railroad-diagram rect{
        stroke-width: 2;
        stroke: black;
        fill: rgb(210, 255, 210);
    }
    svg.railroad-diagram rect.group-box {
        stroke: gray;
        stroke-dasharray: 10 5;
        fill: none;
    }
    .terminal {
        font-family: DejaVu Sans;
    }
    svg.railroad-diagram g.altterminal rect {
        fill: rgb(251, 252, 207)
    }

/* ]]> */
</style><g>
<path d="M 20 131 v 20 m 0 -10 h 20"></path></g><path d="M 40 141 h 10"></path><g>
<path d="M 50 141 h 0.0"></path><path d="M 1050.0 141 h 0.0"></path><g>
<path d="M 50.0 141 h 0.0"></path><path d="M 776.5 141 h 0.0"></path><path d="M 50.0 141 h 20"></path><g>
<path d="M 70.0 141 h 148.25"></path><path d="M 608.25 141 h 148.25"></path><g>
<path d="M 218.25 141 h 0.0"></path><path d="M 354.75 141 h 0.0"></path><path d="M 218.25 141 h 20"></path><g class="terminal ">
<path d="M 238.25 141 h 12.75"></path><path d="M 322.0 141 h 12.75"></path><rect height="22" rx="10" ry="10" width="71.0" x="251.0" y="130"></rect><text x="286.5" y="145">'\n\\'</text></g><path d="M 334.75 141 h 20"></path><path d="M 218.25 141 a 10 10 0 0 1 10 10 v 10 a 10 10 0 0 0 10 10"></path><g class="terminal altterminal">
<path d="M 238.25 171 h 0.0"></path><path d="M 334.75 171 h 0.0"></path><rect height="22" rx="10" ry="10" width="96.5" x="238.25" y="160"></rect><text x="286.5" y="175">/${Ws}\\/</text></g><path d="M 334.75 171 a 10 10 0 0 0 10 -10 v -10 a 10 10 0 0 1 10 -10"></path></g><path d="M 354.75 141 h 10"></path><path d="M 364.75 141 h 10"></path><g>
<path d="M 374.75 141 h 0.0"></path><path d="M 477.25 141 h 0.0"></path><g>
<path d="M 374.75 141 h 0.0"></path><path d="M 477.25 141 h 0.0"></path><path d="M 374.75 141 a 10 10 0 0 0 10 -10 v -10 a 10 10 0 0 1 10 -10"></path><g class="terminal ">
<path d="M 394.75 111 h 4.25"></path><path d="M 453.0 111 h 4.25"></path><rect height="22" rx="10" ry="10" width="54.0" x="399.0" y="100"></rect><text x="426.0" y="115">"pb"</text></g><path d="M 457.25 111 a 10 10 0 0 1 10 10 v 10 a 10 10 0 0 0 10 10"></path><path d="M 374.75 141 a 10 10 0 0 0 10 -10 v -40 a 10 10 0 0 1 10 -10"></path><g class="terminal ">
<path d="M 394.75 81 h 4.25"></path><path d="M 453.0 81 h 4.25"></path><rect height="22" rx="10" ry="10" width="54.0" x="399.0" y="70"></rect><text x="426.0" y="85">"cp"</text></g><path d="M 457.25 81 a 10 10 0 0 1 10 10 v 40 a 10 10 0 0 0 10 10"></path><path d="M 374.75 141 a 10 10 0 0 0 10 -10 v -70 a 10 10 0 0 1 10 -10"></path><g class="terminal ">
<path d="M 394.75 51 h 0.0"></path><path d="M 457.25 51 h 0.0"></path><rect height="22" rx="10" ry="10" width="62.5" x="394.75" y="40"></rect><text x="426.0" y="55">"lit"</text></g><path d="M 457.25 51 a 10 10 0 0 1 10 10 v 70 a 10 10 0 0 0 10 10"></path><path d="M 374.75 141 h 20"></path><g class="terminal ">
<path d="M 394.75 141 h 4.25"></path><path d="M 453.0 141 h 4.25"></path><rect height="22" rx="10" ry="10" width="54.0" x="399.0" y="130"></rect><text x="426.0" y="145">"p1"</text></g><path d="M 457.25 141 h 20"></path><path d="M 374.75 141 a 10 10 0 0 1 10 10 v 10 a 10 10 0 0 0 10 10"></path><g class="terminal ">
<path d="M 394.75 171 h 4.25"></path><path d="M 453.0 171 h 4.25"></path><rect height="22" rx="10" ry="10" width="54.0" x="399.0" y="160"></rect><text x="426.0" y="175">"p2"</text></g><path d="M 457.25 171 a 10 10 0 0 0 10 -10 v -10 a 10 10 0 0 1 10 -10"></path><path d="M 374.75 141 a 10 10 0 0 1 10 10 v 40 a 10 10 0 0 0 10 10"></path><g class="terminal ">
<path d="M 394.75 201 h 4.25"></path><path d="M 453.0 201 h 4.25"></path><rect height="22" rx="10" ry="10" width="54.0" x="399.0" y="190"></rect><text x="426.0" y="205">"k1"</text></g><path d="M 457.25 201 a 10 10 0 0 0 10 -10 v -40 a 10 10 0 0 1 10 -10"></path><path d="M 374.75 141 a 10 10 0 0 1 10 10 v 70 a 10 10 0 0 0 10 10"></path><g class="terminal ">
<path d="M 394.75 231 h 4.25"></path><path d="M 453.0 231 h 4.25"></path><rect height="22" rx="10" ry="10" width="54.0" x="399.0" y="220"></rect><text x="426.0" y="235">"k2"</text></g><path d="M 457.25 231 a 10 10 0 0 0 10 -10 v -70 a 10 10 0 0 1 10 -10"></path><path d="M 374.75 141 a 10 10 0 0 1 10 10 v 100 a 10 10 0 0 0 10 10"></path><g class="terminal ">
<path d="M 394.75 261 h 0.0"></path><path d="M 457.25 261 h 0.0"></path><rect height="22" rx="10" ry="10" width="62.5" x="394.75" y="250"></rect><text x="426.0" y="265">"rem"</text></g><path d="M 457.25 261 a 10 10 0 0 0 10 -10 v -100 a 10 10 0 0 1 10 -10"></path><path d="M 374.75 141 a 10 10 0 0 1 10 10 v 130 a 10 10 0 0 0 10 10"></path><g class="terminal ">
<path d="M 394.75 291 h 0.0"></path><path d="M 457.25 291 h 0.0"></path><rect height="22" rx="10" ry="10" width="62.5" x="394.75" y="280"></rect><text x="426.0" y="295">"sts"</text></g><path d="M 457.25 291 a 10 10 0 0 0 10 -10 v -130 a 10 10 0 0 1 10 -10"></path></g></g><path d="M 477.25 141 h 10"></path><path d="M 487.25 141 h 10"></path><g>
<path d="M 497.25 141 h 0.0"></path><path d="M 608.25 141 h 0.0"></path><path d="M 497.25 141 h 20"></path><g class="terminal ">
<path d="M 517.25 141 h 12.75"></path><path d="M 575.5 141 h 12.75"></path><rect height="22" rx="10" ry="10" width="45.5" x="530.0" y="130"></rect><text x="552.75" y="145">' '</text></g><path d="M 588.25 141 h 20"></path><path d="M 497.25 141 a 10 10 0 0 1 10 10 v 10 a 10 10 0 0 0 10 10"></path><g class="terminal altterminal">
<path d="M 517.25 171 h 0.0"></path><path d="M 588.25 171 h 0.0"></path><rect height="22" rx="10" ry="10" width="71.0" x="517.25" y="160"></rect><text x="552.75" y="175">TAGEND</text></g><path d="M 588.25 171 a 10 10 0 0 0 10 -10 v -10 a 10 10 0 0 1 10 -10"></path></g></g><path d="M 756.5 141 h 20"></path><path d="M 50.0 141 a 10 10 0 0 1 10 10 v 278 a 10 10 0 0 0 10 10"></path><g>
<path d="M 70.0 439 h 0.0"></path><path d="M 756.5 439 h 0.0"></path><g>
<path d="M 70.0 439 h 0.0"></path><path d="M 206.5 439 h 0.0"></path><path d="M 70.0 439 h 20"></path><g class="terminal ">
<path d="M 90.0 439 h 12.75"></path><path d="M 173.75 439 h 12.75"></path><rect height="22" rx="10" ry="10" width="71.0" x="102.75" y="428"></rect><text x="138.25" y="443">'\n\\'</text></g><path d="M 186.5 439 h 20"></path><path d="M 70.0 439 a 10 10 0 0 1 10 10 v 10 a 10 10 0 0 0 10 10"></path><g class="terminal altterminal">
<path d="M 90.0 469 h 0.0"></path><path d="M 186.5 469 h 0.0"></path><rect height="22" rx="10" ry="10" width="96.5" x="90.0" y="458"></rect><text x="138.25" y="473">/${Ws}\\/</text></g><path d="M 186.5 469 a 10 10 0 0 0 10 -10 v -10 a 10 10 0 0 1 10 -10"></path></g><path d="M 206.5 439 h 10"></path><g>
<path d="M 216.5 439 h 0.0"></path><path d="M 635.5 439 h 0.0"></path><path d="M 216.5 439 a 10 10 0 0 0 10 -10 v -99 a 10 10 0 0 1 10 -10 h 255.0"></path><path d="M 369.0 798 h 246.5 a 10 10 0 0 0 10 -10 v -339 a 10 10 0 0 1 10 -10"></path><path d="M 216.5 439 h 10"></path><g>
<path d="M 226.5 439 h 10.0"></path><path d="M 339.0 439 h 10.0"></path><path d="M 236.5 439 a 10 10 0 0 0 10 -10 v -10 a 10 10 0 0 1 10 -10"></path><g class="terminal ">
<path d="M 256.5 409 h 4.25"></path><path d="M 314.75 409 h 4.25"></path><rect height="22" rx="10" ry="10" width="54.0" x="260.75" y="398"></rect><text x="287.75" y="413">"pc"</text></g><path d="M 319.0 409 a 10 10 0 0 1 10 10 v 10 a 10 10 0 0 0 10 10"></path><path d="M 236.5 439 a 10 10 0 0 0 10 -10 v -40 a 10 10 0 0 1 10 -10"></path><g class="terminal ">
<path d="M 256.5 379 h 4.25"></path><path d="M 314.75 379 h 4.25"></path><rect height="22" rx="10" ry="10" width="54.0" x="260.75" y="368"></rect><text x="287.75" y="383">"nb"</text></g><path d="M 319.0 379 a 10 10 0 0 1 10 10 v 40 a 10 10 0 0 0 10 10"></path><path d="M 236.5 439 a 10 10 0 0 0 10 -10 v -70 a 10 10 0 0 1 10 -10"></path><g class="terminal ">
<path d="M 256.5 349 h 0.0"></path><path d="M 319.0 349 h 0.0"></path><rect height="22" rx="10" ry="10" width="62.5" x="256.5" y="338"></rect><text x="287.75" y="353">"cls"</text></g><path d="M 319.0 349 a 10 10 0 0 1 10 10 v 70 a 10 10 0 0 0 10 10"></path><path d="M 236.5 439 h 20"></path><g class="terminal ">
<path d="M 256.5 439 h 0.0"></path><path d="M 319.0 439 h 0.0"></path><rect height="22" rx="10" ry="10" width="62.5" x="256.5" y="428"></rect><text x="287.75" y="443">"pi1"</text></g><path d="M 319.0 439 h 20"></path><path d="M 236.5 439 a 10 10 0 0 1 10 10 v 10 a 10 10 0 0 0 10 10"></path><g class="terminal ">
<path d="M 256.5 469 h 0.0"></path><path d="M 319.0 469 h 0.0"></path><rect height="22" rx="10" ry="10" width="62.5" x="256.5" y="458"></rect><text x="287.75" y="473">"pi2"</text></g><path d="M 319.0 469 a 10 10 0 0 0 10 -10 v -10 a 10 10 0 0 1 10 -10"></path><path d="M 236.5 439 a 10 10 0 0 1 10 10 v 40 a 10 10 0 0 0 10 10"></path><g class="terminal ">
<path d="M 256.5 499 h 0.0"></path><path d="M 319.0 499 h 0.0"></path><rect height="22" rx="10" ry="10" width="62.5" x="256.5" y="488"></rect><text x="287.75" y="503">"pi3"</text></g><path d="M 319.0 499 a 10 10 0 0 0 10 -10 v -40 a 10 10 0 0 1 10 -10"></path><path d="M 236.5 439 a 10 10 0 0 1 10 10 v 70 a 10 10 0 0 0 10 10"></path><g class="terminal ">
<path d="M 256.5 529 h 4.25"></path><path d="M 314.75 529 h 4.25"></path><rect height="22" rx="10" ry="10" width="54.0" x="260.75" y="518"></rect><text x="287.75" y="533">"pi"</text></g><path d="M 319.0 529 a 10 10 0 0 0 10 -10 v -70 a 10 10 0 0 1 10 -10"></path><path d="M 236.5 439 a 10 10 0 0 1 10 10 v 100 a 10 10 0 0 0 10 10"></path><g class="terminal ">
<path d="M 256.5 559 h 4.25"></path><path d="M 314.75 559 h 4.25"></path><rect height="22" rx="10" ry="10" width="54.0" x="260.75" y="548"></rect><text x="287.75" y="563">"po"</text></g><path d="M 319.0 559 a 10 10 0 0 0 10 -10 v -100 a 10 10 0 0 1 10 -10"></path><path d="M 236.5 439 a 10 10 0 0 1 10 10 v 130 a 10 10 0 0 0 10 10"></path><g class="terminal ">
<path d="M 256.5 589 h 4.25"></path><path d="M 314.75 589 h 4.25"></path><rect height="22" rx="10" ry="10" width="54.0" x="260.75" y="578"></rect><text x="287.75" y="593">"pr"</text></g><path d="M 319.0 589 a 10 10 0 0 0 10 -10 v -130 a 10 10 0 0 1 10 -10"></path><path d="M 236.5 439 a 10 10 0 0 1 10 10 v 160 a 10 10 0 0 0 10 10"></path><g class="terminal ">
<path d="M 256.5 619 h 0.0"></path><path d="M 319.0 619 h 0.0"></path><rect height="22" rx="10" ry="10" width="62.5" x="256.5" y="608"></rect><text x="287.75" y="623">"pmo"</text></g><path d="M 319.0 619 a 10 10 0 0 0 10 -10 v -160 a 10 10 0 0 1 10 -10"></path><path d="M 236.5 439 a 10 10 0 0 1 10 10 v 190 a 10 10 0 0 0 10 10"></path><g class="terminal ">
<path d="M 256.5 649 h 0.0"></path><path d="M 319.0 649 h 0.0"></path><rect height="22" rx="10" ry="10" width="62.5" x="256.5" y="638"></rect><text x="287.75" y="653">"pmc"</text></g><path d="M 319.0 649 a 10 10 0 0 0 10 -10 v -190 a 10 10 0 0 1 10 -10"></path><path d="M 236.5 439 a 10 10 0 0 1 10 10 v 220 a 10 10 0 0 0 10 10"></path><g class="terminal ">
<path d="M 256.5 679 h 0.0"></path><path d="M 319.0 679 h 0.0"></path><rect height="22" rx="10" ry="10" width="62.5" x="256.5" y="668"></rect><text x="287.75" y="683">"pmr"</text></g><path d="M 319.0 679 a 10 10 0 0 0 10 -10 v -220 a 10 10 0 0 1 10 -10"></path><path d="M 236.5 439 a 10 10 0 0 1 10 10 v 250 a 10 10 0 0 0 10 10"></path><g class="terminal ">
<path d="M 256.5 709 h 4.25"></path><path d="M 314.75 709 h 4.25"></path><rect height="22" rx="10" ry="10" width="54.0" x="260.75" y="698"></rect><text x="287.75" y="713">"pm"</text></g><path d="M 319.0 709 a 10 10 0 0 0 10 -10 v -250 a 10 10 0 0 1 10 -10"></path><path d="M 236.5 439 a 10 10 0 0 1 10 10 v 280 a 10 10 0 0 0 10 10"></path><g class="terminal ">
<path d="M 256.5 739 h 0.0"></path><path d="M 319.0 739 h 0.0"></path><rect height="22" rx="10" ry="10" width="62.5" x="256.5" y="728"></rect><text x="287.75" y="743">"ph1"</text></g><path d="M 319.0 739 a 10 10 0 0 0 10 -10 v -280 a 10 10 0 0 1 10 -10"></path><path d="M 236.5 439 a 10 10 0 0 1 10 10 v 310 a 10 10 0 0 0 10 10"></path><g class="terminal ">
<path d="M 256.5 769 h 0.0"></path><path d="M 319.0 769 h 0.0"></path><rect height="22" rx="10" ry="10" width="62.5" x="256.5" y="758"></rect><text x="287.75" y="773">"ph2"</text></g><path d="M 319.0 769 a 10 10 0 0 0 10 -10 v -310 a 10 10 0 0 1 10 -10"></path></g><path d="M 349.0 439 a 10 10 0 0 1 10 10 v 339 a 10 10 0 0 0 10 10"></path><path d="M 349.0 320 a 10 10 0 0 1 10 10 v 99 a 10 10 0 0 0 10 10"></path><g>
<path d="M 369.0 439 h 10.0"></path><path d="M 481.5 439 h 10.0"></path><path d="M 379.0 439 a 10 10 0 0 0 10 -10 v -10 a 10 10 0 0 1 10 -10"></path><g class="terminal ">
<path d="M 399.0 409 h 8.5"></path><path d="M 453.0 409 h 8.5"></path><rect height="22" rx="10" ry="10" width="45.5" x="407.5" y="398"></rect><text x="430.25" y="413">"p"</text></g><path d="M 461.5 409 a 10 10 0 0 1 10 10 v 10 a 10 10 0 0 0 10 10"></path><path d="M 379.0 439 a 10 10 0 0 0 10 -10 v -40 a 10 10 0 0 1 10 -10"></path><g class="terminal ">
<path d="M 399.0 379 h 4.25"></path><path d="M 457.25 379 h 4.25"></path><rect height="22" rx="10" ry="10" width="54.0" x="403.25" y="368"></rect><text x="430.25" y="383">"ph"</text></g><path d="M 461.5 379 a 10 10 0 0 1 10 10 v 40 a 10 10 0 0 0 10 10"></path><path d="M 379.0 439 a 10 10 0 0 0 10 -10 v -70 a 10 10 0 0 1 10 -10"></path><g class="terminal ">
<path d="M 399.0 349 h 0.0"></path><path d="M 461.5 349 h 0.0"></path><rect height="22" rx="10" ry="10" width="62.5" x="399.0" y="338"></rect><text x="430.25" y="353">"ph3"</text></g><path d="M 461.5 349 a 10 10 0 0 1 10 10 v 70 a 10 10 0 0 0 10 10"></path><path d="M 379.0 439 h 20"></path><g class="terminal ">
<path d="M 399.0 439 h 4.25"></path><path d="M 457.25 439 h 4.25"></path><rect height="22" rx="10" ry="10" width="54.0" x="403.25" y="428"></rect><text x="430.25" y="443">"q1"</text></g><path d="M 461.5 439 h 20"></path><path d="M 379.0 439 a 10 10 0 0 1 10 10 v 10 a 10 10 0 0 0 10 10"></path><g class="terminal ">
<path d="M 399.0 469 h 4.25"></path><path d="M 457.25 469 h 4.25"></path><rect height="22" rx="10" ry="10" width="54.0" x="403.25" y="458"></rect><text x="430.25" y="473">"q2"</text></g><path d="M 461.5 469 a 10 10 0 0 0 10 -10 v -10 a 10 10 0 0 1 10 -10"></path><path d="M 379.0 439 a 10 10 0 0 1 10 10 v 40 a 10 10 0 0 0 10 10"></path><g class="terminal ">
<path d="M 399.0 499 h 4.25"></path><path d="M 457.25 499 h 4.25"></path><rect height="22" rx="10" ry="10" width="54.0" x="403.25" y="488"></rect><text x="430.25" y="503">"q3"</text></g><path d="M 461.5 499 a 10 10 0 0 0 10 -10 v -40 a 10 10 0 0 1 10 -10"></path><path d="M 379.0 439 a 10 10 0 0 1 10 10 v 70 a 10 10 0 0 0 10 10"></path><g class="terminal ">
<path d="M 399.0 529 h 4.25"></path><path d="M 457.25 529 h 4.25"></path><rect height="22" rx="10" ry="10" width="54.0" x="403.25" y="518"></rect><text x="430.25" y="533">"q4"</text></g><path d="M 461.5 529 a 10 10 0 0 0 10 -10 v -70 a 10 10 0 0 1 10 -10"></path><path d="M 379.0 439 a 10 10 0 0 1 10 10 v 100 a 10 10 0 0 0 10 10"></path><g class="terminal ">
<path d="M 399.0 559 h 4.25"></path><path d="M 457.25 559 h 4.25"></path><rect height="22" rx="10" ry="10" width="54.0" x="403.25" y="548"></rect><text x="430.25" y="563">"qa"</text></g><path d="M 461.5 559 a 10 10 0 0 0 10 -10 v -100 a 10 10 0 0 1 10 -10"></path><path d="M 379.0 439 a 10 10 0 0 1 10 10 v 130 a 10 10 0 0 0 10 10"></path><g class="terminal ">
<path d="M 399.0 589 h 4.25"></path><path d="M 457.25 589 h 4.25"></path><rect height="22" rx="10" ry="10" width="54.0" x="403.25" y="578"></rect><text x="430.25" y="593">"qc"</text></g><path d="M 461.5 589 a 10 10 0 0 0 10 -10 v -130 a 10 10 0 0 1 10 -10"></path><path d="M 379.0 439 a 10 10 0 0 1 10 10 v 160 a 10 10 0 0 0 10 10"></path><g class="terminal ">
<path d="M 399.0 619 h 4.25"></path><path d="M 457.25 619 h 4.25"></path><rect height="22" rx="10" ry="10" width="54.0" x="403.25" y="608"></rect><text x="430.25" y="623">"qr"</text></g><path d="M 461.5 619 a 10 10 0 0 0 10 -10 v -160 a 10 10 0 0 1 10 -10"></path><path d="M 379.0 439 a 10 10 0 0 1 10 10 v 190 a 10 10 0 0 0 10 10"></path><g class="terminal ">
<path d="M 399.0 649 h 0.0"></path><path d="M 461.5 649 h 0.0"></path><rect height="22" rx="10" ry="10" width="62.5" x="399.0" y="638"></rect><text x="430.25" y="653">"qm1"</text></g><path d="M 461.5 649 a 10 10 0 0 0 10 -10 v -190 a 10 10 0 0 1 10 -10"></path><path d="M 379.0 439 a 10 10 0 0 1 10 10 v 220 a 10 10 0 0 0 10 10"></path><g class="terminal ">
<path d="M 399.0 679 h 0.0"></path><path d="M 461.5 679 h 0.0"></path><rect height="22" rx="10" ry="10" width="62.5" x="399.0" y="668"></rect><text x="430.25" y="683">"qm2"</text></g><path d="M 461.5 679 a 10 10 0 0 0 10 -10 v -220 a 10 10 0 0 1 10 -10"></path><path d="M 379.0 439 a 10 10 0 0 1 10 10 v 250 a 10 10 0 0 0 10 10"></path><g class="terminal ">
<path d="M 399.0 709 h 0.0"></path><path d="M 461.5 709 h 0.0"></path><rect height="22" rx="10" ry="10" width="62.5" x="399.0" y="698"></rect><text x="430.25" y="713">"qm3"</text></g><path d="M 461.5 709 a 10 10 0 0 0 10 -10 v -250 a 10 10 0 0 1 10 -10"></path><path d="M 379.0 439 a 10 10 0 0 1 10 10 v 280 a 10 10 0 0 0 10 10"></path><g class="terminal ">
<path d="M 399.0 739 h 4.25"></path><path d="M 457.25 739 h 4.25"></path><rect height="22" rx="10" ry="10" width="54.0" x="403.25" y="728"></rect><text x="430.25" y="743">"qm"</text></g><path d="M 461.5 739 a 10 10 0 0 0 10 -10 v -280 a 10 10 0 0 1 10 -10"></path><path d="M 379.0 439 a 10 10 0 0 1 10 10 v 310 a 10 10 0 0 0 10 10"></path><g class="terminal ">
<path d="M 399.0 769 h 4.25"></path><path d="M 457.25 769 h 4.25"></path><rect height="22" rx="10" ry="10" width="54.0" x="403.25" y="758"></rect><text x="430.25" y="773">"qd"</text></g><path d="M 461.5 769 a 10 10 0 0 0 10 -10 v -310 a 10 10 0 0 1 10 -10"></path></g><path d="M 491.5 439 a 10 10 0 0 1 10 10 v 339 a 10 10 0 0 0 10 10"></path><path d="M 491.5 320 a 10 10 0 0 1 10 10 v 99 a 10 10 0 0 0 10 10"></path><g>
<path d="M 511.5 439 h 10.0"></path><path d="M 615.5 439 h 10.0"></path><path d="M 521.5 439 a 10 10 0 0 0 10 -10 v -10 a 10 10 0 0 1 10 -10"></path><g class="terminal ">
<path d="M 541.5 409 h 4.25"></path><path d="M 591.25 409 h 4.25"></path><rect height="22" rx="10" ry="10" width="45.5" x="545.75" y="398"></rect><text x="568.5" y="413">"d"</text></g><path d="M 595.5 409 a 10 10 0 0 1 10 10 v 10 a 10 10 0 0 0 10 10"></path><path d="M 521.5 439 a 10 10 0 0 0 10 -10 v -40 a 10 10 0 0 1 10 -10"></path><g class="terminal ">
<path d="M 541.5 379 h 4.25"></path><path d="M 591.25 379 h 4.25"></path><rect height="22" rx="10" ry="10" width="45.5" x="545.75" y="368"></rect><text x="568.5" y="383">"b"</text></g><path d="M 595.5 379 a 10 10 0 0 1 10 10 v 40 a 10 10 0 0 0 10 10"></path><path d="M 521.5 439 a 10 10 0 0 0 10 -10 v -70 a 10 10 0 0 1 10 -10"></path><g class="terminal ">
<path d="M 541.5 349 h 4.25"></path><path d="M 591.25 349 h 4.25"></path><rect height="22" rx="10" ry="10" width="45.5" x="545.75" y="338"></rect><text x="568.5" y="353">"q"</text></g><path d="M 595.5 349 a 10 10 0 0 1 10 10 v 70 a 10 10 0 0 0 10 10"></path><path d="M 521.5 439 h 20"></path><g class="terminal ">
<path d="M 541.5 439 h 0.0"></path><path d="M 595.5 439 h 0.0"></path><rect height="22" rx="10" ry="10" width="54.0" x="541.5" y="428"></rect><text x="568.5" y="443">"mi"</text></g><path d="M 595.5 439 h 20"></path><path d="M 521.5 439 a 10 10 0 0 1 10 10 v 10 a 10 10 0 0 0 10 10"></path><g class="terminal ">
<path d="M 541.5 469 h 4.25"></path><path d="M 591.25 469 h 4.25"></path><rect height="22" rx="10" ry="10" width="45.5" x="545.75" y="458"></rect><text x="568.5" y="473">"m"</text></g><path d="M 595.5 469 a 10 10 0 0 0 10 -10 v -10 a 10 10 0 0 1 10 -10"></path><path d="M 521.5 439 a 10 10 0 0 1 10 10 v 40 a 10 10 0 0 0 10 10"></path><g class="terminal ">
<path d="M 541.5 499 h 0.0"></path><path d="M 595.5 499 h 0.0"></path><rect height="22" rx="10" ry="10" width="54.0" x="541.5" y="488"></rect><text x="568.5" y="503">"ts"</text></g><path d="M 595.5 499 a 10 10 0 0 0 10 -10 v -40 a 10 10 0 0 1 10 -10"></path></g><path d="M 625.5 439 h 10"></path></g><path d="M 635.5 439 h 10"></path><g>
<path d="M 645.5 439 h 0.0"></path><path d="M 756.5 439 h 0.0"></path><path d="M 645.5 439 h 20"></path><g class="terminal ">
<path d="M 665.5 439 h 12.75"></path><path d="M 723.75 439 h 12.75"></path><rect height="22" rx="10" ry="10" width="45.5" x="678.25" y="428"></rect><text x="701.0" y="443">' '</text></g><path d="M 736.5 439 h 20"></path><path d="M 645.5 439 a 10 10 0 0 1 10 10 v 10 a 10 10 0 0 0 10 10"></path><g class="terminal altterminal">
<path d="M 665.5 469 h 0.0"></path><path d="M 736.5 469 h 0.0"></path><rect height="22" rx="10" ry="10" width="71.0" x="665.5" y="458"></rect><text x="701.0" y="473">TAGEND</text></g><path d="M 736.5 469 a 10 10 0 0 0 10 -10 v -10 a 10 10 0 0 1 10 -10"></path></g></g><path d="M 756.5 439 a 10 10 0 0 0 10 -10 v -278 a 10 10 0 0 1 10 -10"></path></g><path d="M 776.5 141 h 10"></path><path d="M 786.5 141 h 10"></path><g>
<path d="M 796.5 141 h 0.0"></path><path d="M 1050.0 141 h 0.0"></path><path d="M 796.5 141 a 10 10 0 0 0 10 -10 v -9 a 10 10 0 0 1 10 -10"></path><g>
<path d="M 816.5 112 h 213.5"></path></g><path d="M 1030.0 112 a 10 10 0 0 1 10 10 v 9 a 10 10 0 0 0 10 10"></path><path d="M 796.5 141 h 20"></path><g>
<path d="M 816.5 141 h 0.0"></path><path d="M 1030.0 141 h 0.0"></path><path d="M 816.5 141 h 10"></path><g>
<path d="M 826.5 141 h 0.0"></path><path d="M 1020.0 141 h 0.0"></path><path d="M 826.5 141 h 20"></path><g>
<path d="M 846.5 141 h 0.0"></path><path d="M 1000.0 141 h 0.0"></path><g class="terminal ">
<path d="M 846.5 141 h 0.0"></path><path d="M 900.5 141 h 0.0"></path><rect height="22" rx="10" ry="10" width="54.0" x="846.5" y="130"></rect><text x="873.5" y="145">TEXT</text></g><path d="M 900.5 141 h 10"></path><path d="M 910.5 141 h 10"></path><g class="terminal ">
<path d="M 920.5 141 h 0.0"></path><path d="M 1000.0 141 h 0.0"></path><rect height="22" rx="10" ry="10" width="79.5" x="920.5" y="130"></rect><text x="960.25" y="145">TEXTEND</text></g></g><path d="M 1000.0 141 h 20"></path><path d="M 826.5 141 a 10 10 0 0 1 10 10 v 10 a 10 10 0 0 0 10 10"></path><g class="non-terminal ">
<path d="M 846.5 171 h 49.75"></path><path d="M 950.25 171 h 49.75"></path><rect height="22" width="54.0" x="896.25" y="160"></rect><text x="923.25" y="175">Char</text></g><path d="M 1000.0 171 a 10 10 0 0 0 10 -10 v -10 a 10 10 0 0 1 10 -10"></path><path d="M 826.5 141 a 10 10 0 0 1 10 10 v 40 a 10 10 0 0 0 10 10"></path><g class="non-terminal ">
<path d="M 846.5 201 h 28.5"></path><path d="M 971.5 201 h 28.5"></path><rect height="22" width="96.5" x="875.0" y="190"></rect><text x="923.25" y="205">Milestone</text></g><path d="M 1000.0 201 a 10 10 0 0 0 10 -10 v -40 a 10 10 0 0 1 10 -10"></path><path d="M 826.5 141 a 10 10 0 0 1 10 10 v 70 a 10 10 0 0 0 10 10"></path><g class="non-terminal ">
<path d="M 846.5 231 h 45.5"></path><path d="M 954.5 231 h 45.5"></path><rect height="22" width="62.5" x="892.0" y="220"></rect><text x="923.25" y="235">Verse</text></g><path d="M 1000.0 231 a 10 10 0 0 0 10 -10 v -70 a 10 10 0 0 1 10 -10"></path><path d="M 826.5 141 a 10 10 0 0 1 10 10 v 100 a 10 10 0 0 0 10 10"></path><g class="non-terminal ">
<path d="M 846.5 261 h 32.75"></path><path d="M 967.25 261 h 32.75"></path><rect height="22" width="88.0" x="879.25" y="250"></rect><text x="923.25" y="265">Footnote</text></g><path d="M 1000.0 261 a 10 10 0 0 0 10 -10 v -100 a 10 10 0 0 1 10 -10"></path><path d="M 826.5 141 a 10 10 0 0 1 10 10 v 130 a 10 10 0 0 0 10 10"></path><g class="non-terminal ">
<path d="M 846.5 291 h 7.25"></path><path d="M 992.75 291 h 7.25"></path><rect height="22" width="139.0" x="853.75" y="280"></rect><text x="923.25" y="295">CrossReference</text></g><path d="M 1000.0 291 a 10 10 0 0 0 10 -10 v -130 a 10 10 0 0 1 10 -10"></path><path d="M 826.5 141 a 10 10 0 0 1 10 10 v 160 a 10 10 0 0 0 10 10"></path><g>
<path d="M 846.5 321 h 49.75"></path><path d="M 950.25 321 h 49.75"></path><g class="terminal ">
<path d="M 896.25 321 h 0.0"></path><path d="M 950.25 321 h 0.0"></path><rect height="22" rx="10" ry="10" width="54.0" x="896.25" y="310"></rect><text x="923.25" y="325">'//'</text></g></g><path d="M 1000.0 321 a 10 10 0 0 0 10 -10 v -160 a 10 10 0 0 1 10 -10"></path></g><path d="M 1020.0 141 h 10"></path><path d="M 826.5 141 a 10 10 0 0 0 -10 10 v 189 a 10 10 0 0 0 10 10"></path><g>
<path d="M 826.5 350 h 193.5"></path></g><path d="M 1020.0 350 a 10 10 0 0 0 10 -10 v -189 a 10 10 0 0 0 -10 -10"></path></g><path d="M 1030.0 141 h 20"></path></g></g><path d="M 1050.0 141 h 10"></path><path d="M 1060.0 141 h 20 m 0 -10 v 20"></path></g></svg>