<svg class="railroad-diagram" height="718" viewBox="0 0 558.5 718" width="558.5" xmlns="http://www.w3.org/2000/svg" xmlns:xlink="http://www.w3.org/1999/xlink">
<g transform="translate(.5 .5)">
<style>/* <![CDATA[ */

    svg.railroad-diagram {
        background-color: hsl(30,20%,95%);
    }
    svg.railroad-diagram path {
        stroke-width: 2;
        stroke: black;
        fill: none;
    }
    svg.railroad-diagram text {
        font-size: 12px;
        text-anchor: middle;
        font-family: DejaVu Sans;
    }
    svg.railroad-diagram text.label {
        text-anchor:start;
    }
    svg.railroad-diagram text.comment {
        font-family: DejaVu Sans;
        font-size: 14px;
    }
    svg.railroad-diagram rect{
        stroke-width: 2;
        stroke: black;
        fill: rgb(210, 210, 255);
    }
    svg.railroad-diagram rect.group-box {
        stroke: gray;
        stroke-dasharray: 10 5;
        fill: none;
    }
    .terminal {
        font-family: DejaVu Sans;
    }
    svg.railroad-diagram g.altterminal rect {
        fill: rgb(251, 252, 207)
    }

/* ]]> */
</style><g>
<path d="M 20 379 v 20 m 0 -10 h 20"></path></g><path d="M 40 389 h 10"></path><g>
<path d="M 50 389 h 0.0"></path><path d="M 508.5 389 h 0.0"></path><g>
<path d="M 50.0 389 h 0.0"></path><path d="M 508.5 389 h 0.0"></path><g class="terminal ">
<path d="M 50.0 389 h 0.0"></path><path d="M 121.0 389 h 0.0"></path><rect height="22" rx="10" ry="10" width="71.0" x="50.0" y="378"></rect><text x="85.5" y="393">&#60;para></text></g><path d="M 121.0 389 h 10"></path><path d="M 131.0 389 h 10"></path><g>
<path d="M 141.0 389 h 0.0"></path><path d="M 508.5 389 h 0.0"></path><path d="M 141.0 389 a 10 10 0 0 0 10 -10 v -198 a 10 10 0 0 1 10 -10"></path><g>
<path d="M 161.0 171 h 0.0"></path><path d="M 354.5 171 h 0.0"></path><g class="terminal ">
<path d="M 161.0 171 h 0.0"></path><path d="M 232.0 171 h 0.0"></path><rect height="22" rx="10" ry="10" width="71.0" x="161.0" y="160"></rect><text x="196.5" y="175">@style</text></g><path d="M 232.0 171 h 10"></path><path d="M 242.0 171 h 10"></path><g>
<path d="M 252.0 171 h 0.0"></path><path d="M 354.5 171 h 0.0"></path><g>
<path d="M 252.0 171 h 0.0"></path><path d="M 252.0 171 a 10 10 0 0 0 10 -10 v -10 a 10 10 0 0 1 10 -10"></path><g class="terminal ">
<path d="M 272.0 141 h 0.0"></path><path d="M 326.0 141 h 0.0"></path><rect height="22" rx="10" ry="10" width="54.0" x="272.0" y="130"></rect><text x="299.0" y="145">"pb"</text></g><path d="M 252.0 171 a 10 10 0 0 0 10 -10 v -40 a 10 10 0 0 1 10 -10"></path><g class="terminal ">
<path d="M 272.0 111 h 0.0"></path><path d="M 326.0 111 h 0.0"></path><rect height="22" rx="10" ry="10" width="54.0" x="272.0" y="100"></rect><text x="299.0" y="115">"cp"</text></g><path d="M 252.0 171 a 10 10 0 0 0 10 -10 v -70 a 10 10 0 0 1 10 -10"></path><g class="terminal ">
<path d="M 272.0 81 h 0.0"></path><path d="M 334.5 81 h 0.0"></path><rect height="22" rx="10" ry="10" width="62.5" x="272.0" y="70"></rect><text x="303.25" y="85">"lit"</text></g><path d="M 252.0 171 h 20"></path><g class="terminal ">
<path d="M 272.0 171 h 0.0"></path><path d="M 326.0 171 h 0.0"></path><rect height="22" rx="10" ry="10" width="54.0" x="272.0" y="160"></rect><text x="299.0" y="175">"p1"</text></g><path d="M 252.0 171 a 10 10 0 0 1 10 10 v 10 a 10 10 0 0 0 10 10"></path><g class="terminal ">
<path d="M 272.0 201 h 0.0"></path><path d="M 326.0 201 h 0.0"></path><rect height="22" rx="10" ry="10" width="54.0" x="272.0" y="190"></rect><text x="299.0" y="205">"p2"</text></g><path d="M 252.0 171 a 10 10 0 0 1 10 10 v 40 a 10 10 0 0 0 10 10"></path><g class="terminal ">
<path d="M 272.0 231 h 0.0"></path><path d="M 326.0 231 h 0.0"></path><rect height="22" rx="10" ry="10" width="54.0" x="272.0" y="220"></rect><text x="299.0" y="235">"k1"</text></g><path d="M 252.0 171 a 10 10 0 0 1 10 10 v 70 a 10 10 0 0 0 10 10"></path><g class="terminal ">
<path d="M 272.0 261 h 0.0"></path><path d="M 326.0 261 h 0.0"></path><rect height="22" rx="10" ry="10" width="54.0" x="272.0" y="250"></rect><text x="299.0" y="265">"k2"</text></g><path d="M 252.0 171 a 10 10 0 0 1 10 10 v 100 a 10 10 0 0 0 10 10"></path><g class="terminal ">
<path d="M 272.0 291 h 0.0"></path><path d="M 334.5 291 h 0.0"></path><rect height="22" rx="10" ry="10" width="62.5" x="272.0" y="280"></rect><text x="303.25" y="295">"rem"</text></g><path d="M 252.0 171 a 10 10 0 0 1 10 10 v 130 a 10 10 0 0 0 10 10"></path><g class="terminal ">
<path d="M 272.0 321 h 0.0"></path><path d="M 334.5 321 h 0.0"></path><rect height="22" rx="10" ry="10" width="62.5" x="272.0" y="310"></rect><text x="303.25" y="325">"sts"</text></g></g></g></g><path d="M 141.0 389 a 10 10 0 0 0 10 -10 v -328 a 10 10 0 0 1 10 -10"></path><g>
<path d="M 161.0 41 h 0.0"></path><path d="M 289.0 41 h 0.0"></path><g class="terminal ">
<path d="M 161.0 41 h 0.0"></path><path d="M 215.0 41 h 0.0"></path><rect height="22" rx="10" ry="10" width="54.0" x="161.0" y="30"></rect><text x="188.0" y="45">@vid</text></g><path d="M 215.0 41 h 10"></path><path d="M 225.0 41 h 10"></path><g class="terminal ">
<path d="M 235.0 41 h 0.0"></path><path d="M 289.0 41 h 0.0"></path><rect height="22" rx="10" ry="10" width="54.0" x="235.0" y="30"></rect><text x="262.0" y="45">TEXT</text></g></g><path d="M 141.0 389 h 20"></path><g>
<path d="M 161.0 389 h 0.0"></path><path d="M 488.5 389 h 0.0"></path><path d="M 161.0 389 a 10 10 0 0 0 10 -10 v -9 a 10 10 0 0 1 10 -10"></path><g>
<path d="M 181.0 360 h 287.5"></path></g><path d="M 468.5 360 a 10 10 0 0 1 10 10 v 9 a 10 10 0 0 0 10 10"></path><path d="M 161.0 389 h 20"></path><g>
<path d="M 181.0 389 h 0.0"></path><path d="M 468.5 389 h 0.0"></path><path d="M 181.0 389 h 10"></path><g>
<path d="M 191.0 389 h 0.0"></path><path d="M 458.5 389 h 0.0"></path><path d="M 191.0 389 h 20"></path><g class="terminal ">
<path d="M 211.0 389 h 86.75"></path><path d="M 351.75 389 h 86.75"></path><rect height="22" rx="10" ry="10" width="54.0" x="297.75" y="378"></rect><text x="324.75" y="393">TEXT</text></g><path d="M 438.5 389 h 20"></path><path d="M 191.0 389 a 10 10 0 0 1 10 10 v 10 a 10 10 0 0 0 10 10"></path><g class="non-terminal ">
<path d="M 211.0 419 h 86.75"></path><path d="M 351.75 419 h 86.75"></path><rect height="22" width="54.0" x="297.75" y="408"></rect><text x="324.75" y="423">Char</text></g><path d="M 438.5 419 a 10 10 0 0 0 10 -10 v -10 a 10 10 0 0 1 10 -10"></path><path d="M 191.0 389 a 10 10 0 0 1 10 10 v 40 a 10 10 0 0 0 10 10"></path><g class="non-terminal ">
<path d="M 211.0 449 h 78.25"></path><path d="M 360.25 449 h 78.25"></path><rect height="22" width="71.0" x="289.25" y="438"></rect><text x="324.75" y="453">Figure</text></g><path d="M 438.5 449 a 10 10 0 0 0 10 -10 v -40 a 10 10 0 0 1 10 -10"></path><path d="M 191.0 389 a 10 10 0 0 1 10 10 v 70 a 10 10 0 0 0 10 10"></path><g class="non-terminal ">
<path d="M 211.0 479 h 65.5"></path><path d="M 373.0 479 h 65.5"></path><rect height="22" width="96.5" x="276.5" y="468"></rect><text x="324.75" y="483">Milestone</text></g><path d="M 438.5 479 a 10 10 0 0 0 10 -10 v -70 a 10 10 0 0 1 10 -10"></path><path d="M 191.0 389 a 10 10 0 0 1 10 10 v 100 a 10 10 0 0 0 10 10"></path><g class="non-terminal ">
<path d="M 211.0 509 h 82.5"></path><path d="M 356.0 509 h 82.5"></path><rect height="22" width="62.5" x="293.5" y="498"></rect><text x="324.75" y="513">Verse</text></g><path d="M 438.5 509 a 10 10 0 0 0 10 -10 v -100 a 10 10 0 0 1 10 -10"></path><path d="M 191.0 389 a 10 10 0 0 1 10 10 v 130 a 10 10 0 0 0 10 10"></path><g class="non-terminal ">
<path d="M 211.0 539 h 65.5"></path><path d="M 373.0 539 h 65.5"></path><rect height="22" width="96.5" x="276.5" y="528"></rect><text x="324.75" y="543">Reference</text></g><path d="M 438.5 539 a 10 10 0 0 0 10 -10 v -130 a 10 10 0 0 1 10 -10"></path><path d="M 191.0 389 a 10 10 0 0 1 10 10 v 160 a 10 10 0 0 0 10 10"></path><g class="non-terminal ">
<path d="M 211.0 569 h 69.75"></path><path d="M 368.75 569 h 69.75"></path><rect height="22" width="88.0" x="280.75" y="558"></rect><text x="324.75" y="573">Footnote</text></g><path d="M 438.5 569 a 10 10 0 0 0 10 -10 v -160 a 10 10 0 0 1 10 -10"></path><path d="M 191.0 389 a 10 10 0 0 1 10 10 v 190 a 10 10 0 0 0 10 10"></path><g class="non-terminal ">
<path d="M 211.0 599 h 44.25"></path><path d="M 394.25 599 h 44.25"></path><rect height="22" width="139.0" x="255.25" y="588"></rect><text x="324.75" y="603">CrossReference</text></g><path d="M 438.5 599 a 10 10 0 0 0 10 -10 v -190 a 10 10 0 0 1 10 -10"></path><path d="M 191.0 389 a 10 10 0 0 1 10 10 v 230 a 10 10 0 0 0 10 10"></path><g>
<path d="M 211.0 639 h 0.0"></path><path d="M 438.5 639 h 0.0"></path><g class="terminal ">
<path d="M 211.0 639 h 0.0"></path><path d="M 316.0 639 h 0.0"></path><rect height="22" rx="10" ry="10" width="105.0" x="211.0" y="628"></rect><text x="263.5" y="643">&#60;optbreak></text></g><path d="M 316.0 639 h 10"></path><path d="M 326.0 639 h 10"></path><g>
<path d="M 336.0 639 h 0.0"></path><path d="M 438.5 639 h 0.0"></path><path d="M 336.0 639 h 20"></path><g class="terminal ">
<path d="M 356.0 639 h 0.0"></path><path d="M 418.5 639 h 0.0"></path><rect height="22" rx="10" ry="10" width="62.5" x="356.0" y="628"></rect><text x="387.25" y="643">EMPTY</text></g><path d="M 418.5 639 h 20"></path></g></g><path d="M 438.5 639 a 10 10 0 0 0 10 -10 v -230 a 10 10 0 0 1 10 -10"></path></g><path d="M 458.5 389 h 10"></path><path d="M 191.0 389 a 10 10 0 0 0 -10 10 v 269 a 10 10 0 0 0 10 10"></path><g>
<path d="M 191.0 678 h 267.5"></path></g><path d="M 458.5 678 a 10 10 0 0 0 10 -10 v -269 a 10 10 0 0 0 -10 -10"></path></g><path d="M 468.5 389 h 20"></path></g><path d="M 488.5 389 h 20"></path></g></g></g><path d="M 508.5 389 h 10"></path><path d="M 518.5 389 h 20 m 0 -10 v 20"></path></g></svg>