<svg class="railroad-diagram" height="605" viewBox="0 0 1455.5 605" width="1455.5" xmlns="http://www.w3.org/2000/svg" xmlns:xlink="http://www.w3.org/1999/xlink">
<g transform="translate(.5 .5)">
<style>/* <![CDATA[ */
    svg.railroad-diagram {
        background-color:hsl(30,20%,95%);
    }
    svg.railroad-diagram path {
        stroke-width: 2;
        stroke: black;
        fill: none;
    }
    svg.railroad-diagram text {
        font-size: 12px;
        text-anchor: middle;
        font-family: DejaVu Sans;
    }
    svg.railroad-diagram text.label {
        text-anchor:start;
    }
    svg.railroad-diagram text.comment {
        font-family: DejaVu Sans;
        font-size: 14px;
    }
    svg.railroad-diagram rect{
        stroke-width: 2;
        stroke:black;
        fill: rgb(210, 210, 255);
    }
    svg.railroad-diagram rect.group-box {
        stroke: gray;
        stroke-dasharray: 10 5;
        fill: none;
    }
    .terminal {
        font-family: DejaVu Sans;
    }

/* ]]> */
</style><g>
<path d="M 20 307 v 20 m 0 -10 h 20"></path></g><path d="M 40 317 h 10"></path><g>
<path d="M 50 317 h 0.0"></path><path d="M 1405.5 317 h 0.0"></path><g class="terminal ">
<path d="M 50.0 317 h 0.0"></path><path d="M 121.0 317 h 0.0"></path><rect height="22" rx="10" ry="10" width="71.0" x="50.0" y="306"></rect><text x="85.5" y="321">&#60;para></text></g><path d="M 121.0 317 h 10"></path><g>
<path d="M 131.0 317 h 0.0"></path><path d="M 1405.5 317 h 0.0"></path><path d="M 131.0 317 a 10 10 0 0 0 10 -10 v -10 a 10 10 0 0 1 10 -10"></path><g>
<path d="M 151.0 287 h 0.0"></path><path d="M 483.0 287 h 0.0"></path><g class="terminal ">
<path d="M 151.0 287 h 0.0"></path><path d="M 213.5 287 h 0.0"></path><rect height="22" rx="10" ry="10" width="62.5" x="151.0" y="276"></rect><text x="182.25" y="291">@vid?</text></g><path d="M 213.5 287 h 10"></path><path d="M 223.5 287 h 10"></path><g class="terminal ">
<path d="M 233.5 287 h 0.0"></path><path d="M 483.0 287 h 0.0"></path><rect height="22" rx="10" ry="10" width="249.5" x="233.5" y="276"></rect><text x="358.25" y="291">/&#91;A-Z1-4&#93;{3} ?&#91;a-z0-9\-:&#93;&#42;/</text></g></g><path d="M 131.0 317 a 10 10 0 0 0 10 -10 v -168 a 10 10 0 0 1 10 -10"></path><g>
<path d="M 151.0 129 h 0.0"></path><path d="M 1385.5 129 h 0.0"></path><g class="terminal ">
<path d="M 151.0 129 h 0.0"></path><path d="M 222.0 129 h 0.0"></path><rect height="22" rx="10" ry="10" width="71.0" x="151.0" y="118"></rect><text x="186.5" y="133">@style</text></g><path d="M 222.0 129 h 10"></path><g>
<path d="M 232.0 129 h 0.0"></path><path d="M 1385.5 129 h 0.0"></path><path d="M 232.0 129 a 10 10 0 0 0 10 -10 v -89 a 10 10 0 0 1 10 -10 h 992.5"></path><path d="M 232.0 129 h 10"></path><g>
<path d="M 242.0 129 h 0.0"></path><path d="M 242.0 129 a 10 10 0 0 0 10 -10 v -10 a 10 10 0 0 1 10 -10"></path><g class="terminal ">
<path d="M 262.0 99 h 0.0"></path><path d="M 324.5 99 h 0.0"></path><rect height="22" rx="10" ry="10" width="62.5" x="262.0" y="88"></rect><text x="293.25" y="103">"iex"</text></g><path d="M 242.0 129 a 10 10 0 0 0 10 -10 v -40 a 10 10 0 0 1 10 -10"></path><g class="terminal ">
<path d="M 262.0 69 h 0.0"></path><path d="M 324.5 69 h 0.0"></path><rect height="22" rx="10" ry="10" width="62.5" x="262.0" y="58"></rect><text x="293.25" y="73">"cls"</text></g><path d="M 242.0 129 a 10 10 0 0 0 10 -10 v -70 a 10 10 0 0 1 10 -10"></path><g class="terminal ">
<path d="M 262.0 39 h 0.0"></path><path d="M 358.5 39 h 0.0"></path><rect height="22" rx="10" ry="10" width="96.5" x="262.0" y="28"></rect><text x="310.25" y="43">"restore"</text></g><path d="M 242.0 129 h 20"></path><g class="terminal ">
<path d="M 262.0 129 h 0.0"></path><path d="M 316.0 129 h 0.0"></path><rect height="22" rx="10" ry="10" width="54.0" x="262.0" y="118"></rect><text x="289.0" y="133">"ip"</text></g><path d="M 242.0 129 a 10 10 0 0 1 10 10 v 10 a 10 10 0 0 0 10 10"></path><g class="terminal ">
<path d="M 262.0 159 h 0.0"></path><path d="M 324.5 159 h 0.0"></path><rect height="22" rx="10" ry="10" width="62.5" x="262.0" y="148"></rect><text x="293.25" y="163">"lit"</text></g><path d="M 242.0 129 a 10 10 0 0 1 10 10 v 40 a 10 10 0 0 0 10 10"></path><g class="terminal ">
<path d="M 262.0 189 h 0.0"></path><path d="M 307.5 189 h 0.0"></path><rect height="22" rx="10" ry="10" width="45.5" x="262.0" y="178"></rect><text x="284.75" y="193">"m"</text></g><path d="M 242.0 129 a 10 10 0 0 1 10 10 v 70 a 10 10 0 0 0 10 10"></path><g class="terminal ">
<path d="M 262.0 219 h 0.0"></path><path d="M 316.0 219 h 0.0"></path><rect height="22" rx="10" ry="10" width="54.0" x="262.0" y="208"></rect><text x="289.0" y="223">"mi"</text></g><path d="M 242.0 129 a 10 10 0 0 1 10 10 v 100 a 10 10 0 0 0 10 10"></path><g class="terminal ">
<path d="M 262.0 249 h 0.0"></path><path d="M 316.0 249 h 0.0"></path><rect height="22" rx="10" ry="10" width="54.0" x="262.0" y="238"></rect><text x="289.0" y="253">"nb"</text></g></g><path d="M 378.5 20 a 10 10 0 0 1 10 10 v 89 a 10 10 0 0 0 10 10"></path><g>
<path d="M 398.5 129 h 0.0"></path><path d="M 398.5 129 a 10 10 0 0 0 10 -10 v -10 a 10 10 0 0 1 10 -10"></path><g class="terminal ">
<path d="M 418.5 99 h 0.0"></path><path d="M 472.5 99 h 0.0"></path><rect height="22" rx="10" ry="10" width="54.0" x="418.5" y="88"></rect><text x="445.5" y="103">"pc"</text></g><path d="M 398.5 129 a 10 10 0 0 0 10 -10 v -40 a 10 10 0 0 1 10 -10"></path><g class="terminal ">
<path d="M 418.5 69 h 0.0"></path><path d="M 472.5 69 h 0.0"></path><rect height="22" rx="10" ry="10" width="54.0" x="418.5" y="58"></rect><text x="445.5" y="73">"pb"</text></g><path d="M 398.5 129 a 10 10 0 0 0 10 -10 v -70 a 10 10 0 0 1 10 -10"></path><g class="terminal ">
<path d="M 418.5 39 h 0.0"></path><path d="M 464.0 39 h 0.0"></path><rect height="22" rx="10" ry="10" width="45.5" x="418.5" y="28"></rect><text x="441.25" y="43">"p"</text></g><path d="M 398.5 129 h 20"></path><g class="terminal ">
<path d="M 418.5 129 h 0.0"></path><path d="M 472.5 129 h 0.0"></path><rect height="22" rx="10" ry="10" width="54.0" x="418.5" y="118"></rect><text x="445.5" y="133">"pi"</text></g><path d="M 398.5 129 a 10 10 0 0 1 10 10 v 10 a 10 10 0 0 0 10 10"></path><g class="terminal ">
<path d="M 418.5 159 h 0.0"></path><path d="M 481.0 159 h 0.0"></path><rect height="22" rx="10" ry="10" width="62.5" x="418.5" y="148"></rect><text x="449.75" y="163">"pi1"</text></g><path d="M 398.5 129 a 10 10 0 0 1 10 10 v 40 a 10 10 0 0 0 10 10"></path><g class="terminal ">
<path d="M 418.5 189 h 0.0"></path><path d="M 481.0 189 h 0.0"></path><rect height="22" rx="10" ry="10" width="62.5" x="418.5" y="178"></rect><text x="449.75" y="193">"pi2"</text></g><path d="M 398.5 129 a 10 10 0 0 1 10 10 v 70 a 10 10 0 0 0 10 10"></path><g class="terminal ">
<path d="M 418.5 219 h 0.0"></path><path d="M 481.0 219 h 0.0"></path><rect height="22" rx="10" ry="10" width="62.5" x="418.5" y="208"></rect><text x="449.75" y="223">"pi3"</text></g><path d="M 398.5 129 a 10 10 0 0 1 10 10 v 100 a 10 10 0 0 0 10 10"></path><g class="terminal ">
<path d="M 418.5 249 h 0.0"></path><path d="M 472.5 249 h 0.0"></path><rect height="22" rx="10" ry="10" width="54.0" x="418.5" y="238"></rect><text x="445.5" y="253">"po"</text></g></g><path d="M 501.0 20 a 10 10 0 0 1 10 10 v 89 a 10 10 0 0 0 10 10"></path><g>
<path d="M 521.0 129 h 0.0"></path><path d="M 521.0 129 a 10 10 0 0 0 10 -10 v -10 a 10 10 0 0 1 10 -10"></path><g class="terminal ">
<path d="M 541.0 99 h 0.0"></path><path d="M 595.0 99 h 0.0"></path><rect height="22" rx="10" ry="10" width="54.0" x="541.0" y="88"></rect><text x="568.0" y="103">"pm"</text></g><path d="M 521.0 129 a 10 10 0 0 0 10 -10 v -40 a 10 10 0 0 1 10 -10"></path><g class="terminal ">
<path d="M 541.0 69 h 0.0"></path><path d="M 603.5 69 h 0.0"></path><rect height="22" rx="10" ry="10" width="62.5" x="541.0" y="58"></rect><text x="572.25" y="73">"pmo"</text></g><path d="M 521.0 129 a 10 10 0 0 0 10 -10 v -70 a 10 10 0 0 1 10 -10"></path><g class="terminal ">
<path d="M 541.0 39 h 0.0"></path><path d="M 595.0 39 h 0.0"></path><rect height="22" rx="10" ry="10" width="54.0" x="541.0" y="28"></rect><text x="568.0" y="43">"pr"</text></g><path d="M 521.0 129 h 20"></path><g class="terminal ">
<path d="M 541.0 129 h 0.0"></path><path d="M 603.5 129 h 0.0"></path><rect height="22" rx="10" ry="10" width="62.5" x="541.0" y="118"></rect><text x="572.25" y="133">"pmc"</text></g><path d="M 521.0 129 a 10 10 0 0 1 10 10 v 10 a 10 10 0 0 0 10 10"></path><g class="terminal ">
<path d="M 541.0 159 h 0.0"></path><path d="M 603.5 159 h 0.0"></path><rect height="22" rx="10" ry="10" width="62.5" x="541.0" y="148"></rect><text x="572.25" y="163">"pmr"</text></g><path d="M 521.0 129 a 10 10 0 0 1 10 10 v 40 a 10 10 0 0 0 10 10"></path><g class="terminal ">
<path d="M 541.0 189 h 0.0"></path><path d="M 595.0 189 h 0.0"></path><rect height="22" rx="10" ry="10" width="54.0" x="541.0" y="178"></rect><text x="568.0" y="193">"ph"</text></g><path d="M 521.0 129 a 10 10 0 0 1 10 10 v 70 a 10 10 0 0 0 10 10"></path><g class="terminal ">
<path d="M 541.0 219 h 0.0"></path><path d="M 603.5 219 h 0.0"></path><rect height="22" rx="10" ry="10" width="62.5" x="541.0" y="208"></rect><text x="572.25" y="223">"ph1"</text></g><path d="M 521.0 129 a 10 10 0 0 1 10 10 v 100 a 10 10 0 0 0 10 10"></path><g class="terminal ">
<path d="M 541.0 249 h 0.0"></path><path d="M 603.5 249 h 0.0"></path><rect height="22" rx="10" ry="10" width="62.5" x="541.0" y="238"></rect><text x="572.25" y="253">"ph2"</text></g></g><path d="M 623.5 20 a 10 10 0 0 1 10 10 v 89 a 10 10 0 0 0 10 10"></path><g>
<path d="M 643.5 129 h 0.0"></path><path d="M 643.5 129 a 10 10 0 0 0 10 -10 v -10 a 10 10 0 0 1 10 -10"></path><g class="terminal ">
<path d="M 663.5 99 h 0.0"></path><path d="M 717.5 99 h 0.0"></path><rect height="22" rx="10" ry="10" width="54.0" x="663.5" y="88"></rect><text x="690.5" y="103">"q1"</text></g><path d="M 643.5 129 a 10 10 0 0 0 10 -10 v -40 a 10 10 0 0 1 10 -10"></path><g class="terminal ">
<path d="M 663.5 69 h 0.0"></path><path d="M 709.0 69 h 0.0"></path><rect height="22" rx="10" ry="10" width="45.5" x="663.5" y="58"></rect><text x="686.25" y="73">"q"</text></g><path d="M 643.5 129 a 10 10 0 0 0 10 -10 v -70 a 10 10 0 0 1 10 -10"></path><g class="terminal ">
<path d="M 663.5 39 h 0.0"></path><path d="M 726.0 39 h 0.0"></path><rect height="22" rx="10" ry="10" width="62.5" x="663.5" y="28"></rect><text x="694.75" y="43">"ph3"</text></g><path d="M 643.5 129 h 20"></path><g class="terminal ">
<path d="M 663.5 129 h 0.0"></path><path d="M 717.5 129 h 0.0"></path><rect height="22" rx="10" ry="10" width="54.0" x="663.5" y="118"></rect><text x="690.5" y="133">"q2"</text></g><path d="M 643.5 129 a 10 10 0 0 1 10 10 v 10 a 10 10 0 0 0 10 10"></path><g class="terminal ">
<path d="M 663.5 159 h 0.0"></path><path d="M 717.5 159 h 0.0"></path><rect height="22" rx="10" ry="10" width="54.0" x="663.5" y="148"></rect><text x="690.5" y="163">"q3"</text></g><path d="M 643.5 129 a 10 10 0 0 1 10 10 v 40 a 10 10 0 0 0 10 10"></path><g class="terminal ">
<path d="M 663.5 189 h 0.0"></path><path d="M 717.5 189 h 0.0"></path><rect height="22" rx="10" ry="10" width="54.0" x="663.5" y="178"></rect><text x="690.5" y="193">"q4"</text></g><path d="M 643.5 129 a 10 10 0 0 1 10 10 v 70 a 10 10 0 0 0 10 10"></path><g class="terminal ">
<path d="M 663.5 219 h 0.0"></path><path d="M 717.5 219 h 0.0"></path><rect height="22" rx="10" ry="10" width="54.0" x="663.5" y="208"></rect><text x="690.5" y="223">"qa"</text></g><path d="M 643.5 129 a 10 10 0 0 1 10 10 v 100 a 10 10 0 0 0 10 10"></path><g class="terminal ">
<path d="M 663.5 249 h 0.0"></path><path d="M 717.5 249 h 0.0"></path><rect height="22" rx="10" ry="10" width="54.0" x="663.5" y="238"></rect><text x="690.5" y="253">"qc"</text></g></g><path d="M 746.0 20 a 10 10 0 0 1 10 10 v 89 a 10 10 0 0 0 10 10"></path><g>
<path d="M 766.0 129 h 0.0"></path><path d="M 766.0 129 a 10 10 0 0 0 10 -10 v -10 a 10 10 0 0 1 10 -10"></path><g class="terminal ">
<path d="M 786.0 99 h 0.0"></path><path d="M 848.5 99 h 0.0"></path><rect height="22" rx="10" ry="10" width="62.5" x="786.0" y="88"></rect><text x="817.25" y="103">"qm1"</text></g><path d="M 766.0 129 a 10 10 0 0 0 10 -10 v -40 a 10 10 0 0 1 10 -10"></path><g class="terminal ">
<path d="M 786.0 69 h 0.0"></path><path d="M 840.0 69 h 0.0"></path><rect height="22" rx="10" ry="10" width="54.0" x="786.0" y="58"></rect><text x="813.0" y="73">"qm"</text></g><path d="M 766.0 129 a 10 10 0 0 0 10 -10 v -70 a 10 10 0 0 1 10 -10"></path><g class="terminal ">
<path d="M 786.0 39 h 0.0"></path><path d="M 840.0 39 h 0.0"></path><rect height="22" rx="10" ry="10" width="54.0" x="786.0" y="28"></rect><text x="813.0" y="43">"qr"</text></g><path d="M 766.0 129 h 20"></path><g class="terminal ">
<path d="M 786.0 129 h 0.0"></path><path d="M 848.5 129 h 0.0"></path><rect height="22" rx="10" ry="10" width="62.5" x="786.0" y="118"></rect><text x="817.25" y="133">"qm2"</text></g><path d="M 766.0 129 a 10 10 0 0 1 10 10 v 10 a 10 10 0 0 0 10 10"></path><g class="terminal ">
<path d="M 786.0 159 h 0.0"></path><path d="M 848.5 159 h 0.0"></path><rect height="22" rx="10" ry="10" width="62.5" x="786.0" y="148"></rect><text x="817.25" y="163">"qm3"</text></g><path d="M 766.0 129 a 10 10 0 0 1 10 10 v 40 a 10 10 0 0 0 10 10"></path><g class="terminal ">
<path d="M 786.0 189 h 0.0"></path><path d="M 840.0 189 h 0.0"></path><rect height="22" rx="10" ry="10" width="54.0" x="786.0" y="178"></rect><text x="813.0" y="193">"qd"</text></g><path d="M 766.0 129 a 10 10 0 0 1 10 10 v 70 a 10 10 0 0 0 10 10"></path><g class="terminal ">
<path d="M 786.0 219 h 0.0"></path><path d="M 831.5 219 h 0.0"></path><rect height="22" rx="10" ry="10" width="45.5" x="786.0" y="208"></rect><text x="808.75" y="223">"b"</text></g><path d="M 766.0 129 a 10 10 0 0 1 10 10 v 100 a 10 10 0 0 0 10 10"></path><g class="terminal ">
<path d="M 786.0 249 h 0.0"></path><path d="M 831.5 249 h 0.0"></path><rect height="22" rx="10" ry="10" width="45.5" x="786.0" y="238"></rect><text x="808.75" y="253">"d"</text></g></g><path d="M 868.5 20 a 10 10 0 0 1 10 10 v 89 a 10 10 0 0 0 10 10"></path><g>
<path d="M 888.5 129 h 0.0"></path><path d="M 888.5 129 a 10 10 0 0 0 10 -10 v -10 a 10 10 0 0 1 10 -10"></path><g class="terminal ">
<path d="M 908.5 99 h 0.0"></path><path d="M 971.0 99 h 0.0"></path><rect height="22" rx="10" ry="10" width="62.5" x="908.5" y="88"></rect><text x="939.75" y="103">"ms2"</text></g><path d="M 888.5 129 a 10 10 0 0 0 10 -10 v -40 a 10 10 0 0 1 10 -10"></path><g class="terminal ">
<path d="M 908.5 69 h 0.0"></path><path d="M 971.0 69 h 0.0"></path><rect height="22" rx="10" ry="10" width="62.5" x="908.5" y="58"></rect><text x="939.75" y="73">"ms1"</text></g><path d="M 888.5 129 a 10 10 0 0 0 10 -10 v -70 a 10 10 0 0 1 10 -10"></path><g class="terminal ">
<path d="M 908.5 39 h 0.0"></path><path d="M 962.5 39 h 0.0"></path><rect height="22" rx="10" ry="10" width="54.0" x="908.5" y="28"></rect><text x="935.5" y="43">"ms"</text></g><path d="M 888.5 129 h 20"></path><g class="terminal ">
<path d="M 908.5 129 h 0.0"></path><path d="M 971.0 129 h 0.0"></path><rect height="22" rx="10" ry="10" width="62.5" x="908.5" y="118"></rect><text x="939.75" y="133">"ms3"</text></g><path d="M 888.5 129 a 10 10 0 0 1 10 10 v 10 a 10 10 0 0 0 10 10"></path><g class="terminal ">
<path d="M 908.5 159 h 0.0"></path><path d="M 962.5 159 h 0.0"></path><rect height="22" rx="10" ry="10" width="54.0" x="908.5" y="148"></rect><text x="935.5" y="163">"mr"</text></g><path d="M 888.5 129 a 10 10 0 0 1 10 10 v 40 a 10 10 0 0 0 10 10"></path><g class="terminal ">
<path d="M 908.5 189 h 0.0"></path><path d="M 954.0 189 h 0.0"></path><rect height="22" rx="10" ry="10" width="45.5" x="908.5" y="178"></rect><text x="931.25" y="193">"r"</text></g><path d="M 888.5 129 a 10 10 0 0 1 10 10 v 70 a 10 10 0 0 0 10 10"></path><g class="terminal ">
<path d="M 908.5 219 h 0.0"></path><path d="M 954.0 219 h 0.0"></path><rect height="22" rx="10" ry="10" width="45.5" x="908.5" y="208"></rect><text x="931.25" y="223">"s"</text></g><path d="M 888.5 129 a 10 10 0 0 1 10 10 v 100 a 10 10 0 0 0 10 10"></path><g class="terminal ">
<path d="M 908.5 249 h 0.0"></path><path d="M 962.5 249 h 0.0"></path><rect height="22" rx="10" ry="10" width="54.0" x="908.5" y="238"></rect><text x="935.5" y="253">"s1"</text></g></g><path d="M 991.0 20 a 10 10 0 0 1 10 10 v 89 a 10 10 0 0 0 10 10"></path><g>
<path d="M 1011.0 129 h 0.0"></path><path d="M 1011.0 129 a 10 10 0 0 0 10 -10 v -10 a 10 10 0 0 1 10 -10"></path><g class="terminal ">
<path d="M 1031.0 99 h 0.0"></path><path d="M 1085.0 99 h 0.0"></path><rect height="22" rx="10" ry="10" width="54.0" x="1031.0" y="88"></rect><text x="1058.0" y="103">"s4"</text></g><path d="M 1011.0 129 a 10 10 0 0 0 10 -10 v -40 a 10 10 0 0 1 10 -10"></path><g class="terminal ">
<path d="M 1031.0 69 h 0.0"></path><path d="M 1085.0 69 h 0.0"></path><rect height="22" rx="10" ry="10" width="54.0" x="1031.0" y="58"></rect><text x="1058.0" y="73">"s3"</text></g><path d="M 1011.0 129 a 10 10 0 0 0 10 -10 v -70 a 10 10 0 0 1 10 -10"></path><g class="terminal ">
<path d="M 1031.0 39 h 0.0"></path><path d="M 1085.0 39 h 0.0"></path><rect height="22" rx="10" ry="10" width="54.0" x="1031.0" y="28"></rect><text x="1058.0" y="43">"s2"</text></g><path d="M 1011.0 129 h 20"></path><g class="terminal ">
<path d="M 1031.0 129 h 0.0"></path><path d="M 1085.0 129 h 0.0"></path><rect height="22" rx="10" ry="10" width="54.0" x="1031.0" y="118"></rect><text x="1058.0" y="133">"sr"</text></g><path d="M 1011.0 129 a 10 10 0 0 1 10 10 v 10 a 10 10 0 0 0 10 10"></path><g class="terminal ">
<path d="M 1031.0 159 h 0.0"></path><path d="M 1085.0 159 h 0.0"></path><rect height="22" rx="10" ry="10" width="54.0" x="1031.0" y="148"></rect><text x="1058.0" y="163">"sp"</text></g><path d="M 1011.0 129 a 10 10 0 0 1 10 10 v 40 a 10 10 0 0 0 10 10"></path><g class="terminal ">
<path d="M 1031.0 189 h 0.0"></path><path d="M 1085.0 189 h 0.0"></path><rect height="22" rx="10" ry="10" width="54.0" x="1031.0" y="178"></rect><text x="1058.0" y="193">"sd"</text></g><path d="M 1011.0 129 a 10 10 0 0 1 10 10 v 70 a 10 10 0 0 0 10 10"></path><g class="terminal ">
<path d="M 1031.0 219 h 0.0"></path><path d="M 1093.5 219 h 0.0"></path><rect height="22" rx="10" ry="10" width="62.5" x="1031.0" y="208"></rect><text x="1062.25" y="223">"sd1"</text></g><path d="M 1011.0 129 a 10 10 0 0 1 10 10 v 100 a 10 10 0 0 0 10 10"></path><g class="terminal ">
<path d="M 1031.0 249 h 0.0"></path><path d="M 1093.5 249 h 0.0"></path><rect height="22" rx="10" ry="10" width="62.5" x="1031.0" y="238"></rect><text x="1062.25" y="253">"sd2"</text></g></g><path d="M 1113.5 20 a 10 10 0 0 1 10 10 v 89 a 10 10 0 0 0 10 10"></path><g>
<path d="M 1133.5 129 h 0.0"></path><path d="M 1133.5 129 a 10 10 0 0 0 10 -10 v -10 a 10 10 0 0 1 10 -10"></path><g class="terminal ">
<path d="M 1153.5 99 h 0.0"></path><path d="M 1207.5 99 h 0.0"></path><rect height="22" rx="10" ry="10" width="54.0" x="1153.5" y="88"></rect><text x="1180.5" y="103">"ts"</text></g><path d="M 1133.5 129 a 10 10 0 0 0 10 -10 v -40 a 10 10 0 0 1 10 -10"></path><g class="terminal ">
<path d="M 1153.5 69 h 0.0"></path><path d="M 1216.0 69 h 0.0"></path><rect height="22" rx="10" ry="10" width="62.5" x="1153.5" y="58"></rect><text x="1184.75" y="73">"sd4"</text></g><path d="M 1133.5 129 a 10 10 0 0 0 10 -10 v -70 a 10 10 0 0 1 10 -10"></path><g class="terminal ">
<path d="M 1153.5 39 h 0.0"></path><path d="M 1216.0 39 h 0.0"></path><rect height="22" rx="10" ry="10" width="62.5" x="1153.5" y="28"></rect><text x="1184.75" y="43">"sd3"</text></g><path d="M 1133.5 129 h 20"></path><g class="terminal ">
<path d="M 1153.5 129 h 0.0"></path><path d="M 1207.5 129 h 0.0"></path><rect height="22" rx="10" ry="10" width="54.0" x="1153.5" y="118"></rect><text x="1180.5" y="133">"cp"</text></g><path d="M 1133.5 129 a 10 10 0 0 1 10 10 v 10 a 10 10 0 0 0 10 10"></path><g class="terminal ">
<path d="M 1153.5 159 h 0.0"></path><path d="M 1207.5 159 h 0.0"></path><rect height="22" rx="10" ry="10" width="54.0" x="1153.5" y="148"></rect><text x="1180.5" y="163">"cl"</text></g><path d="M 1133.5 129 a 10 10 0 0 1 10 10 v 40 a 10 10 0 0 0 10 10"></path><g class="terminal ">
<path d="M 1153.5 189 h 0.0"></path><path d="M 1207.5 189 h 0.0"></path><rect height="22" rx="10" ry="10" width="54.0" x="1153.5" y="178"></rect><text x="1180.5" y="193">"cd"</text></g><path d="M 1133.5 129 a 10 10 0 0 1 10 10 v 70 a 10 10 0 0 0 10 10"></path><g class="terminal ">
<path d="M 1153.5 219 h 0.0"></path><path d="M 1216.0 219 h 0.0"></path><rect height="22" rx="10" ry="10" width="62.5" x="1153.5" y="208"></rect><text x="1184.75" y="223">"mte"</text></g><path d="M 1133.5 129 a 10 10 0 0 1 10 10 v 100 a 10 10 0 0 0 10 10"></path><g class="terminal ">
<path d="M 1153.5 249 h 0.0"></path><path d="M 1224.5 249 h 0.0"></path><rect height="22" rx="10" ry="10" width="71.0" x="1153.5" y="238"></rect><text x="1189.0" y="253">"mte1"</text></g></g><path d="M 1244.5 20 a 10 10 0 0 1 10 10 v 89 a 10 10 0 0 0 10 10"></path><g>
<path d="M 1264.5 129 h 0.0"></path><path d="M 1264.5 129 a 10 10 0 0 0 10 -10 v -10 a 10 10 0 0 1 10 -10"></path><g class="terminal ">
<path d="M 1284.5 99 h 0.0"></path><path d="M 1338.5 99 h 0.0"></path><rect height="22" rx="10" ry="10" width="54.0" x="1284.5" y="88"></rect><text x="1311.5" y="103">"p1"</text></g><path d="M 1264.5 129 a 10 10 0 0 0 10 -10 v -40 a 10 10 0 0 1 10 -10"></path><g class="terminal ">
<path d="M 1284.5 69 h 0.0"></path><path d="M 1330.0 69 h 0.0"></path><rect height="22" rx="10" ry="10" width="45.5" x="1284.5" y="58"></rect><text x="1307.25" y="73">"p"</text></g><path d="M 1264.5 129 a 10 10 0 0 0 10 -10 v -70 a 10 10 0 0 1 10 -10"></path><g class="terminal ">
<path d="M 1284.5 39 h 0.0"></path><path d="M 1355.5 39 h 0.0"></path><rect height="22" rx="10" ry="10" width="71.0" x="1284.5" y="28"></rect><text x="1320.0" y="43">"mte2"</text></g><path d="M 1264.5 129 h 20"></path><g class="terminal ">
<path d="M 1284.5 129 h 0.0"></path><path d="M 1338.5 129 h 0.0"></path><rect height="22" rx="10" ry="10" width="54.0" x="1284.5" y="118"></rect><text x="1311.5" y="133">"p2"</text></g><path d="M 1264.5 129 a 10 10 0 0 1 10 10 v 10 a 10 10 0 0 0 10 10"></path><g class="terminal ">
<path d="M 1284.5 159 h 0.0"></path><path d="M 1338.5 159 h 0.0"></path><rect height="22" rx="10" ry="10" width="54.0" x="1284.5" y="148"></rect><text x="1311.5" y="163">"k1"</text></g><path d="M 1264.5 129 a 10 10 0 0 1 10 10 v 40 a 10 10 0 0 0 10 10"></path><g class="terminal ">
<path d="M 1284.5 189 h 0.0"></path><path d="M 1338.5 189 h 0.0"></path><rect height="22" rx="10" ry="10" width="54.0" x="1284.5" y="178"></rect><text x="1311.5" y="193">"k2"</text></g><path d="M 1264.5 129 a 10 10 0 0 1 10 10 v 70 a 10 10 0 0 0 10 10"></path><g class="terminal ">
<path d="M 1284.5 219 h 0.0"></path><path d="M 1347.0 219 h 0.0"></path><rect height="22" rx="10" ry="10" width="62.5" x="1284.5" y="208"></rect><text x="1315.75" y="223">"rem"</text></g></g></g></g><path d="M 131.0 317 h 20"></path><g>
<path d="M 151.0 317 h 377.0"></path><path d="M 1008.5 317 h 377.0"></path><g>
<path d="M 528.0 317 h 0.0"></path><path d="M 909.0 317 h 0.0"></path><path d="M 528.0 317 h 10"></path><g>
<path d="M 538.0 317 h 0.0"></path><path d="M 899.0 317 h 0.0"></path><path d="M 538.0 317 h 20"></path><g class="non-terminal ">
<path d="M 558.0 317 h 112.25"></path><path d="M 766.75 317 h 112.25"></path><rect height="22" width="96.5" x="670.25" y="306"></rect><text x="718.5" y="321">Reference</text></g><path d="M 879.0 317 h 20"></path><path d="M 538.0 317 a 10 10 0 0 1 10 10 v 10 a 10 10 0 0 0 10 10"></path><g class="non-terminal ">
<path d="M 558.0 347 h 116.5"></path><path d="M 762.5 347 h 116.5"></path><rect height="22" width="88.0" x="674.5" y="336"></rect><text x="718.5" y="351">Footnote</text></g><path d="M 879.0 347 a 10 10 0 0 0 10 -10 v -10 a 10 10 0 0 1 10 -10"></path><path d="M 538.0 317 a 10 10 0 0 1 10 10 v 40 a 10 10 0 0 0 10 10"></path><g class="non-terminal ">
<path d="M 558.0 377 h 91.0"></path><path d="M 788.0 377 h 91.0"></path><rect height="22" width="139.0" x="649.0" y="366"></rect><text x="718.5" y="381">CrossReference</text></g><path d="M 879.0 377 a 10 10 0 0 0 10 -10 v -40 a 10 10 0 0 1 10 -10"></path><path d="M 538.0 317 a 10 10 0 0 1 10 10 v 70 a 10 10 0 0 0 10 10"></path><g class="non-terminal ">
<path d="M 558.0 407 h 133.5"></path><path d="M 745.5 407 h 133.5"></path><rect height="22" width="54.0" x="691.5" y="396"></rect><text x="718.5" y="411">Char</text></g><path d="M 879.0 407 a 10 10 0 0 0 10 -10 v -70 a 10 10 0 0 1 10 -10"></path><path d="M 538.0 317 a 10 10 0 0 1 10 10 v 100 a 10 10 0 0 0 10 10"></path><g class="non-terminal ">
<path d="M 558.0 437 h 112.25"></path><path d="M 766.75 437 h 112.25"></path><rect height="22" width="96.5" x="670.25" y="426"></rect><text x="718.5" y="441">Milestone</text></g><path d="M 879.0 437 a 10 10 0 0 0 10 -10 v -100 a 10 10 0 0 1 10 -10"></path><path d="M 538.0 317 a 10 10 0 0 1 10 10 v 130 a 10 10 0 0 0 10 10"></path><g class="non-terminal ">
<path d="M 558.0 467 h 125.0"></path><path d="M 754.0 467 h 125.0"></path><rect height="22" width="71.0" x="683.0" y="456"></rect><text x="718.5" y="471">Figure</text></g><path d="M 879.0 467 a 10 10 0 0 0 10 -10 v -130 a 10 10 0 0 1 10 -10"></path><path d="M 538.0 317 a 10 10 0 0 1 10 10 v 160 a 10 10 0 0 0 10 10"></path><g class="non-terminal ">
<path d="M 558.0 497 h 129.25"></path><path d="M 749.75 497 h 129.25"></path><rect height="22" width="62.5" x="687.25" y="486"></rect><text x="718.5" y="501">Verse</text></g><path d="M 879.0 497 a 10 10 0 0 0 10 -10 v -160 a 10 10 0 0 1 10 -10"></path><path d="M 538.0 317 a 10 10 0 0 1 10 10 v 190 a 10 10 0 0 0 10 10"></path><g>
<path d="M 558.0 527 h 0.0"></path><path d="M 879.0 527 h 0.0"></path><g class="terminal ">
<path d="M 558.0 527 h 0.0"></path><path d="M 663.0 527 h 0.0"></path><rect height="22" rx="10" ry="10" width="105.0" x="558.0" y="516"></rect><text x="610.5" y="531">&#60;optbreak></text></g><path d="M 663.0 527 h 10"></path><path d="M 673.0 527 h 10"></path><g>
<path d="M 683.0 527 h 0.0"></path><path d="M 879.0 527 h 0.0"></path><g class="terminal ">
<path d="M 683.0 527 h 0.0"></path><path d="M 745.5 527 h 0.0"></path><rect height="22" rx="10" ry="10" width="62.5" x="683.0" y="516"></rect><text x="714.25" y="531">empty</text></g><path d="M 745.5 527 h 10"></path><path d="M 755.5 527 h 10"></path><g class="terminal ">
<path d="M 765.5 527 h 0.0"></path><path d="M 879.0 527 h 0.0"></path><rect height="22" rx="10" ry="10" width="113.5" x="765.5" y="516"></rect><text x="822.25" y="531">&#60;/optbreak></text></g></g></g><path d="M 879.0 527 a 10 10 0 0 0 10 -10 v -190 a 10 10 0 0 1 10 -10"></path><path d="M 538.0 317 a 10 10 0 0 1 10 10 v 229 a 10 10 0 0 0 10 10"></path><g>
<path d="M 558.0 566 h 113.5"></path><path d="M 765.5 566 h 113.5"></path><path d="M 671.5 566 a 10 10 0 0 0 10 -10 v 0 a 10 10 0 0 1 10 -10"></path><g>
<path d="M 691.5 546 h 54.0"></path></g><path d="M 745.5 546 a 10 10 0 0 1 10 10 v 0 a 10 10 0 0 0 10 10"></path><path d="M 671.5 566 h 20"></path><g class="terminal ">
<path d="M 691.5 566 h 0.0"></path><path d="M 745.5 566 h 0.0"></path><rect height="22" rx="10" ry="10" width="54.0" x="691.5" y="555"></rect><text x="718.5" y="570">text</text></g><path d="M 745.5 566 h 20"></path></g><path d="M 879.0 566 a 10 10 0 0 0 10 -10 v -229 a 10 10 0 0 1 10 -10"></path></g><path d="M 899.0 317 h 10"></path><path d="M 538.0 317 a 10 10 0 0 0 -10 10 v 248 a 10 10 0 0 0 10 10"></path><g>
<path d="M 538.0 585 h 361.0"></path></g><path d="M 899.0 585 a 10 10 0 0 0 10 -10 v -248 a 10 10 0 0 0 -10 -10"></path></g><path d="M 909.0 317 h 10"></path><path d="M 919.0 317 h 10"></path><g class="terminal ">
<path d="M 929.0 317 h 0.0"></path><path d="M 1008.5 317 h 0.0"></path><rect height="22" rx="10" ry="10" width="79.5" x="929.0" y="306"></rect><text x="968.75" y="321">&#60;/para></text></g></g><path d="M 1385.5 317 h 20"></path></g></g><path d="M 1405.5 317 h 10"></path><path d="M 1415.5 317 h 20 m 0 -10 v 20"></path></g></svg>