<svg class="railroad-diagram" height="884" viewBox="0 0 1067.0 884" width="1067.0" xmlns="http://www.w3.org/2000/svg" xmlns:xlink="http://www.w3.org/1999/xlink">
<g transform="translate(.5 .5)">
<style>/* <![CDATA[ */

    svg.railroad-diagram {
        background-color:hsl(30,20%,95%);
    }
    svg.railroad-diagram path {
        stroke-width: 2;
        stroke: black;
        fill: none;
    }
    svg.railroad-diagram text {
        font-size: 12px;
        text-anchor: middle;
        font-family: DejaVu Sans;
    }
    svg.railroad-diagram text.label {
        text-anchor:start;
    }
    svg.railroad-diagram text.comment {
        font-family: DejaVu Sans;
        font-size: 14px;
    }
    svg.railroad-diagram rect{
        stroke-width: 2;
        stroke:black;
        fill: rgb(210, 210, 255);
    }
    svg.railroad-diagram rect.group-box {
        stroke: gray;
        stroke-dasharray: 10 5;
        fill: none;
    }
    .terminal {
        font-family: DejaVu Sans;
    }

/* ]]> */
</style><g>
<path d="M 20 575 v 20 m 0 -10 h 20"></path></g><path d="M 40 585 h 10"></path><g>
<path d="M 50 585 h 0.0"></path><path d="M 1017.0 585 h 0.0"></path><g>
<path d="M 50.0 585 h 0.0"></path><path d="M 1017.0 585 h 0.0"></path><g class="terminal ">
<path d="M 50.0 585 h 0.0"></path><path d="M 121.0 585 h 0.0"></path><rect height="22" rx="10" ry="10" width="71.0" x="50.0" y="574"></rect><text x="85.5" y="589">&#60;para></text></g><path d="M 121.0 585 h 10"></path><path d="M 131.0 585 h 10"></path><g>
<path d="M 141.0 585 h 0.0"></path><path d="M 1017.0 585 h 0.0"></path><path d="M 141.0 585 a 10 10 0 0 0 10 -10 v -386 a 10 10 0 0 1 10 -10"></path><g>
<path d="M 161.0 179 h 0.0"></path><path d="M 997.0 179 h 0.0"></path><g class="terminal ">
<path d="M 161.0 179 h 0.0"></path><path d="M 232.0 179 h 0.0"></path><rect height="22" rx="10" ry="10" width="71.0" x="161.0" y="168"></rect><text x="196.5" y="183">@style</text></g><path d="M 232.0 179 h 10"></path><g>
<path d="M 242.0 179 h 0.0"></path><path d="M 997.0 179 h 0.0"></path><path d="M 242.0 179 a 10 10 0 0 0 10 -10 v -99 a 10 10 0 0 1 10 -10 h 494.0"></path><path d="M 242.0 179 h 10"></path><g>
<path d="M 252.0 179 h 0.0"></path><path d="M 252.0 179 a 10 10 0 0 0 10 -10 v -10 a 10 10 0 0 1 10 -10"></path><g class="terminal ">
<path d="M 272.0 149 h 0.0"></path><path d="M 334.5 149 h 0.0"></path><rect height="22" rx="10" ry="10" width="62.5" x="272.0" y="138"></rect><text x="303.25" y="153">"iex"</text></g><path d="M 252.0 179 a 10 10 0 0 0 10 -10 v -40 a 10 10 0 0 1 10 -10"></path><g class="terminal ">
<path d="M 272.0 119 h 0.0"></path><path d="M 334.5 119 h 0.0"></path><rect height="22" rx="10" ry="10" width="62.5" x="272.0" y="108"></rect><text x="303.25" y="123">"cls"</text></g><path d="M 252.0 179 a 10 10 0 0 0 10 -10 v -70 a 10 10 0 0 1 10 -10"></path><g class="terminal ">
<path d="M 272.0 89 h 0.0"></path><path d="M 368.5 89 h 0.0"></path><rect height="22" rx="10" ry="10" width="96.5" x="272.0" y="78"></rect><text x="320.25" y="93">"restore"</text></g><path d="M 252.0 179 h 20"></path><g class="terminal ">
<path d="M 272.0 179 h 0.0"></path><path d="M 326.0 179 h 0.0"></path><rect height="22" rx="10" ry="10" width="54.0" x="272.0" y="168"></rect><text x="299.0" y="183">"ip"</text></g><path d="M 252.0 179 a 10 10 0 0 1 10 10 v 10 a 10 10 0 0 0 10 10"></path><g class="terminal ">
<path d="M 272.0 209 h 0.0"></path><path d="M 334.5 209 h 0.0"></path><rect height="22" rx="10" ry="10" width="62.5" x="272.0" y="198"></rect><text x="303.25" y="213">"lit"</text></g><path d="M 252.0 179 a 10 10 0 0 1 10 10 v 40 a 10 10 0 0 0 10 10"></path><g class="terminal ">
<path d="M 272.0 239 h 0.0"></path><path d="M 326.0 239 h 0.0"></path><rect height="22" rx="10" ry="10" width="54.0" x="272.0" y="228"></rect><text x="299.0" y="243">"nb"</text></g><path d="M 252.0 179 a 10 10 0 0 1 10 10 v 70 a 10 10 0 0 0 10 10"></path><g class="terminal ">
<path d="M 272.0 269 h 0.0"></path><path d="M 326.0 269 h 0.0"></path><rect height="22" rx="10" ry="10" width="54.0" x="272.0" y="258"></rect><text x="299.0" y="273">"pb"</text></g><path d="M 252.0 179 a 10 10 0 0 1 10 10 v 100 a 10 10 0 0 0 10 10"></path><g class="terminal ">
<path d="M 272.0 299 h 0.0"></path><path d="M 326.0 299 h 0.0"></path><rect height="22" rx="10" ry="10" width="54.0" x="272.0" y="288"></rect><text x="299.0" y="303">"pc"</text></g><path d="M 252.0 179 a 10 10 0 0 1 10 10 v 130 a 10 10 0 0 0 10 10"></path><g class="terminal ">
<path d="M 272.0 329 h 0.0"></path><path d="M 334.5 329 h 0.0"></path><rect height="22" rx="10" ry="10" width="62.5" x="272.0" y="318"></rect><text x="303.25" y="333">"pi1"</text></g><path d="M 252.0 179 a 10 10 0 0 1 10 10 v 160 a 10 10 0 0 0 10 10"></path><g class="terminal ">
<path d="M 272.0 359 h 0.0"></path><path d="M 334.5 359 h 0.0"></path><rect height="22" rx="10" ry="10" width="62.5" x="272.0" y="348"></rect><text x="303.25" y="363">"pi2"</text></g><path d="M 252.0 179 a 10 10 0 0 1 10 10 v 190 a 10 10 0 0 0 10 10"></path><g class="terminal ">
<path d="M 272.0 389 h 0.0"></path><path d="M 334.5 389 h 0.0"></path><rect height="22" rx="10" ry="10" width="62.5" x="272.0" y="378"></rect><text x="303.25" y="393">"pi3"</text></g><path d="M 252.0 179 a 10 10 0 0 1 10 10 v 220 a 10 10 0 0 0 10 10"></path><g class="terminal ">
<path d="M 272.0 419 h 0.0"></path><path d="M 326.0 419 h 0.0"></path><rect height="22" rx="10" ry="10" width="54.0" x="272.0" y="408"></rect><text x="299.0" y="423">"pi"</text></g><path d="M 252.0 179 a 10 10 0 0 1 10 10 v 250 a 10 10 0 0 0 10 10"></path><g class="terminal ">
<path d="M 272.0 449 h 0.0"></path><path d="M 326.0 449 h 0.0"></path><rect height="22" rx="10" ry="10" width="54.0" x="272.0" y="438"></rect><text x="299.0" y="453">"po"</text></g><path d="M 252.0 179 a 10 10 0 0 1 10 10 v 280 a 10 10 0 0 0 10 10"></path><g class="terminal ">
<path d="M 272.0 479 h 0.0"></path><path d="M 326.0 479 h 0.0"></path><rect height="22" rx="10" ry="10" width="54.0" x="272.0" y="468"></rect><text x="299.0" y="483">"pr"</text></g><path d="M 252.0 179 a 10 10 0 0 1 10 10 v 310 a 10 10 0 0 0 10 10"></path><g class="terminal ">
<path d="M 272.0 509 h 0.0"></path><path d="M 334.5 509 h 0.0"></path><rect height="22" rx="10" ry="10" width="62.5" x="272.0" y="498"></rect><text x="303.25" y="513">"pmo"</text></g></g><path d="M 388.5 60 a 10 10 0 0 1 10 10 v 99 a 10 10 0 0 0 10 10"></path><g>
<path d="M 408.5 179 h 0.0"></path><path d="M 408.5 179 a 10 10 0 0 0 10 -10 v -10 a 10 10 0 0 1 10 -10"></path><g class="terminal ">
<path d="M 428.5 149 h 0.0"></path><path d="M 482.5 149 h 0.0"></path><rect height="22" rx="10" ry="10" width="54.0" x="428.5" y="138"></rect><text x="455.5" y="153">"pm"</text></g><path d="M 408.5 179 a 10 10 0 0 0 10 -10 v -40 a 10 10 0 0 1 10 -10"></path><g class="terminal ">
<path d="M 428.5 119 h 0.0"></path><path d="M 491.0 119 h 0.0"></path><rect height="22" rx="10" ry="10" width="62.5" x="428.5" y="108"></rect><text x="459.75" y="123">"pmr"</text></g><path d="M 408.5 179 a 10 10 0 0 0 10 -10 v -70 a 10 10 0 0 1 10 -10"></path><g class="terminal ">
<path d="M 428.5 89 h 0.0"></path><path d="M 491.0 89 h 0.0"></path><rect height="22" rx="10" ry="10" width="62.5" x="428.5" y="78"></rect><text x="459.75" y="93">"pmc"</text></g><path d="M 408.5 179 h 20"></path><g class="terminal ">
<path d="M 428.5 179 h 0.0"></path><path d="M 491.0 179 h 0.0"></path><rect height="22" rx="10" ry="10" width="62.5" x="428.5" y="168"></rect><text x="459.75" y="183">"ph1"</text></g><path d="M 408.5 179 a 10 10 0 0 1 10 10 v 10 a 10 10 0 0 0 10 10"></path><g class="terminal ">
<path d="M 428.5 209 h 0.0"></path><path d="M 491.0 209 h 0.0"></path><rect height="22" rx="10" ry="10" width="62.5" x="428.5" y="198"></rect><text x="459.75" y="213">"ph2"</text></g><path d="M 408.5 179 a 10 10 0 0 1 10 10 v 40 a 10 10 0 0 0 10 10"></path><g class="terminal ">
<path d="M 428.5 239 h 0.0"></path><path d="M 491.0 239 h 0.0"></path><rect height="22" rx="10" ry="10" width="62.5" x="428.5" y="228"></rect><text x="459.75" y="243">"ph3"</text></g><path d="M 408.5 179 a 10 10 0 0 1 10 10 v 70 a 10 10 0 0 0 10 10"></path><g class="terminal ">
<path d="M 428.5 269 h 0.0"></path><path d="M 482.5 269 h 0.0"></path><rect height="22" rx="10" ry="10" width="54.0" x="428.5" y="258"></rect><text x="455.5" y="273">"ph"</text></g><path d="M 408.5 179 a 10 10 0 0 1 10 10 v 100 a 10 10 0 0 0 10 10"></path><g class="terminal ">
<path d="M 428.5 299 h 0.0"></path><path d="M 482.5 299 h 0.0"></path><rect height="22" rx="10" ry="10" width="54.0" x="428.5" y="288"></rect><text x="455.5" y="303">"p1"</text></g><path d="M 408.5 179 a 10 10 0 0 1 10 10 v 130 a 10 10 0 0 0 10 10"></path><g class="terminal ">
<path d="M 428.5 329 h 0.0"></path><path d="M 482.5 329 h 0.0"></path><rect height="22" rx="10" ry="10" width="54.0" x="428.5" y="318"></rect><text x="455.5" y="333">"p2"</text></g><path d="M 408.5 179 a 10 10 0 0 1 10 10 v 160 a 10 10 0 0 0 10 10"></path><g class="terminal ">
<path d="M 428.5 359 h 0.0"></path><path d="M 474.0 359 h 0.0"></path><rect height="22" rx="10" ry="10" width="45.5" x="428.5" y="348"></rect><text x="451.25" y="363">"p"</text></g><path d="M 408.5 179 a 10 10 0 0 1 10 10 v 190 a 10 10 0 0 0 10 10"></path><g class="terminal ">
<path d="M 428.5 389 h 0.0"></path><path d="M 482.5 389 h 0.0"></path><rect height="22" rx="10" ry="10" width="54.0" x="428.5" y="378"></rect><text x="455.5" y="393">"q1"</text></g><path d="M 408.5 179 a 10 10 0 0 1 10 10 v 220 a 10 10 0 0 0 10 10"></path><g class="terminal ">
<path d="M 428.5 419 h 0.0"></path><path d="M 482.5 419 h 0.0"></path><rect height="22" rx="10" ry="10" width="54.0" x="428.5" y="408"></rect><text x="455.5" y="423">"q2"</text></g><path d="M 408.5 179 a 10 10 0 0 1 10 10 v 250 a 10 10 0 0 0 10 10"></path><g class="terminal ">
<path d="M 428.5 449 h 0.0"></path><path d="M 482.5 449 h 0.0"></path><rect height="22" rx="10" ry="10" width="54.0" x="428.5" y="438"></rect><text x="455.5" y="453">"q3"</text></g><path d="M 408.5 179 a 10 10 0 0 1 10 10 v 280 a 10 10 0 0 0 10 10"></path><g class="terminal ">
<path d="M 428.5 479 h 0.0"></path><path d="M 482.5 479 h 0.0"></path><rect height="22" rx="10" ry="10" width="54.0" x="428.5" y="468"></rect><text x="455.5" y="483">"q4"</text></g><path d="M 408.5 179 a 10 10 0 0 1 10 10 v 310 a 10 10 0 0 0 10 10"></path><g class="terminal ">
<path d="M 428.5 509 h 0.0"></path><path d="M 482.5 509 h 0.0"></path><rect height="22" rx="10" ry="10" width="54.0" x="428.5" y="498"></rect><text x="455.5" y="513">"qa"</text></g></g><path d="M 511.0 60 a 10 10 0 0 1 10 10 v 99 a 10 10 0 0 0 10 10"></path><g>
<path d="M 531.0 179 h 0.0"></path><path d="M 531.0 179 a 10 10 0 0 0 10 -10 v -10 a 10 10 0 0 1 10 -10"></path><g class="terminal ">
<path d="M 551.0 149 h 0.0"></path><path d="M 613.5 149 h 0.0"></path><rect height="22" rx="10" ry="10" width="62.5" x="551.0" y="138"></rect><text x="582.25" y="153">"qm1"</text></g><path d="M 531.0 179 a 10 10 0 0 0 10 -10 v -40 a 10 10 0 0 1 10 -10"></path><g class="terminal ">
<path d="M 551.0 119 h 0.0"></path><path d="M 605.0 119 h 0.0"></path><rect height="22" rx="10" ry="10" width="54.0" x="551.0" y="108"></rect><text x="578.0" y="123">"qr"</text></g><path d="M 531.0 179 a 10 10 0 0 0 10 -10 v -70 a 10 10 0 0 1 10 -10"></path><g class="terminal ">
<path d="M 551.0 89 h 0.0"></path><path d="M 605.0 89 h 0.0"></path><rect height="22" rx="10" ry="10" width="54.0" x="551.0" y="78"></rect><text x="578.0" y="93">"qc"</text></g><path d="M 531.0 179 h 20"></path><g class="terminal ">
<path d="M 551.0 179 h 0.0"></path><path d="M 613.5 179 h 0.0"></path><rect height="22" rx="10" ry="10" width="62.5" x="551.0" y="168"></rect><text x="582.25" y="183">"qm2"</text></g><path d="M 531.0 179 a 10 10 0 0 1 10 10 v 10 a 10 10 0 0 0 10 10"></path><g class="terminal ">
<path d="M 551.0 209 h 0.0"></path><path d="M 613.5 209 h 0.0"></path><rect height="22" rx="10" ry="10" width="62.5" x="551.0" y="198"></rect><text x="582.25" y="213">"qm3"</text></g><path d="M 531.0 179 a 10 10 0 0 1 10 10 v 40 a 10 10 0 0 0 10 10"></path><g class="terminal ">
<path d="M 551.0 239 h 0.0"></path><path d="M 605.0 239 h 0.0"></path><rect height="22" rx="10" ry="10" width="54.0" x="551.0" y="228"></rect><text x="578.0" y="243">"qm"</text></g><path d="M 531.0 179 a 10 10 0 0 1 10 10 v 70 a 10 10 0 0 0 10 10"></path><g class="terminal ">
<path d="M 551.0 269 h 0.0"></path><path d="M 605.0 269 h 0.0"></path><rect height="22" rx="10" ry="10" width="54.0" x="551.0" y="258"></rect><text x="578.0" y="273">"qd"</text></g><path d="M 531.0 179 a 10 10 0 0 1 10 10 v 100 a 10 10 0 0 0 10 10"></path><g class="terminal ">
<path d="M 551.0 299 h 0.0"></path><path d="M 596.5 299 h 0.0"></path><rect height="22" rx="10" ry="10" width="45.5" x="551.0" y="288"></rect><text x="573.75" y="303">"q"</text></g><path d="M 531.0 179 a 10 10 0 0 1 10 10 v 130 a 10 10 0 0 0 10 10"></path><g class="terminal ">
<path d="M 551.0 329 h 0.0"></path><path d="M 596.5 329 h 0.0"></path><rect height="22" rx="10" ry="10" width="45.5" x="551.0" y="318"></rect><text x="573.75" y="333">"b"</text></g><path d="M 531.0 179 a 10 10 0 0 1 10 10 v 160 a 10 10 0 0 0 10 10"></path><g class="terminal ">
<path d="M 551.0 359 h 0.0"></path><path d="M 596.5 359 h 0.0"></path><rect height="22" rx="10" ry="10" width="45.5" x="551.0" y="348"></rect><text x="573.75" y="363">"d"</text></g><path d="M 531.0 179 a 10 10 0 0 1 10 10 v 190 a 10 10 0 0 0 10 10"></path><g class="terminal ">
<path d="M 551.0 389 h 0.0"></path><path d="M 613.5 389 h 0.0"></path><rect height="22" rx="10" ry="10" width="62.5" x="551.0" y="378"></rect><text x="582.25" y="393">"ms1"</text></g><path d="M 531.0 179 a 10 10 0 0 1 10 10 v 220 a 10 10 0 0 0 10 10"></path><g class="terminal ">
<path d="M 551.0 419 h 0.0"></path><path d="M 613.5 419 h 0.0"></path><rect height="22" rx="10" ry="10" width="62.5" x="551.0" y="408"></rect><text x="582.25" y="423">"ms2"</text></g><path d="M 531.0 179 a 10 10 0 0 1 10 10 v 250 a 10 10 0 0 0 10 10"></path><g class="terminal ">
<path d="M 551.0 449 h 0.0"></path><path d="M 613.5 449 h 0.0"></path><rect height="22" rx="10" ry="10" width="62.5" x="551.0" y="438"></rect><text x="582.25" y="453">"ms3"</text></g><path d="M 531.0 179 a 10 10 0 0 1 10 10 v 280 a 10 10 0 0 0 10 10"></path><g class="terminal ">
<path d="M 551.0 479 h 0.0"></path><path d="M 605.0 479 h 0.0"></path><rect height="22" rx="10" ry="10" width="54.0" x="551.0" y="468"></rect><text x="578.0" y="483">"ms"</text></g><path d="M 531.0 179 a 10 10 0 0 1 10 10 v 310 a 10 10 0 0 0 10 10"></path><g class="terminal ">
<path d="M 551.0 509 h 0.0"></path><path d="M 605.0 509 h 0.0"></path><rect height="22" rx="10" ry="10" width="54.0" x="551.0" y="498"></rect><text x="578.0" y="513">"mr"</text></g></g><path d="M 633.5 60 a 10 10 0 0 1 10 10 v 99 a 10 10 0 0 0 10 10"></path><g>
<path d="M 653.5 179 h 0.0"></path><path d="M 653.5 179 a 10 10 0 0 0 10 -10 v -10 a 10 10 0 0 1 10 -10"></path><g class="terminal ">
<path d="M 673.5 149 h 0.0"></path><path d="M 719.0 149 h 0.0"></path><rect height="22" rx="10" ry="10" width="45.5" x="673.5" y="138"></rect><text x="696.25" y="153">"r"</text></g><path d="M 653.5 179 a 10 10 0 0 0 10 -10 v -40 a 10 10 0 0 1 10 -10"></path><g class="terminal ">
<path d="M 673.5 119 h 0.0"></path><path d="M 719.0 119 h 0.0"></path><rect height="22" rx="10" ry="10" width="45.5" x="673.5" y="108"></rect><text x="696.25" y="123">"m"</text></g><path d="M 653.5 179 a 10 10 0 0 0 10 -10 v -70 a 10 10 0 0 1 10 -10"></path><g class="terminal ">
<path d="M 673.5 89 h 0.0"></path><path d="M 727.5 89 h 0.0"></path><rect height="22" rx="10" ry="10" width="54.0" x="673.5" y="78"></rect><text x="700.5" y="93">"mi"</text></g><path d="M 653.5 179 h 20"></path><g class="terminal ">
<path d="M 673.5 179 h 0.0"></path><path d="M 727.5 179 h 0.0"></path><rect height="22" rx="10" ry="10" width="54.0" x="673.5" y="168"></rect><text x="700.5" y="183">"s1"</text></g><path d="M 653.5 179 a 10 10 0 0 1 10 10 v 10 a 10 10 0 0 0 10 10"></path><g class="terminal ">
<path d="M 673.5 209 h 0.0"></path><path d="M 727.5 209 h 0.0"></path><rect height="22" rx="10" ry="10" width="54.0" x="673.5" y="198"></rect><text x="700.5" y="213">"s2"</text></g><path d="M 653.5 179 a 10 10 0 0 1 10 10 v 40 a 10 10 0 0 0 10 10"></path><g class="terminal ">
<path d="M 673.5 239 h 0.0"></path><path d="M 727.5 239 h 0.0"></path><rect height="22" rx="10" ry="10" width="54.0" x="673.5" y="228"></rect><text x="700.5" y="243">"s3"</text></g><path d="M 653.5 179 a 10 10 0 0 1 10 10 v 70 a 10 10 0 0 0 10 10"></path><g class="terminal ">
<path d="M 673.5 269 h 0.0"></path><path d="M 727.5 269 h 0.0"></path><rect height="22" rx="10" ry="10" width="54.0" x="673.5" y="258"></rect><text x="700.5" y="273">"s4"</text></g><path d="M 653.5 179 a 10 10 0 0 1 10 10 v 100 a 10 10 0 0 0 10 10"></path><g class="terminal ">
<path d="M 673.5 299 h 0.0"></path><path d="M 727.5 299 h 0.0"></path><rect height="22" rx="10" ry="10" width="54.0" x="673.5" y="288"></rect><text x="700.5" y="303">"sr"</text></g><path d="M 653.5 179 a 10 10 0 0 1 10 10 v 130 a 10 10 0 0 0 10 10"></path><g class="terminal ">
<path d="M 673.5 329 h 0.0"></path><path d="M 727.5 329 h 0.0"></path><rect height="22" rx="10" ry="10" width="54.0" x="673.5" y="318"></rect><text x="700.5" y="333">"sp"</text></g><path d="M 653.5 179 a 10 10 0 0 1 10 10 v 160 a 10 10 0 0 0 10 10"></path><g class="terminal ">
<path d="M 673.5 359 h 0.0"></path><path d="M 736.0 359 h 0.0"></path><rect height="22" rx="10" ry="10" width="62.5" x="673.5" y="348"></rect><text x="704.75" y="363">"sd1"</text></g><path d="M 653.5 179 a 10 10 0 0 1 10 10 v 190 a 10 10 0 0 0 10 10"></path><g class="terminal ">
<path d="M 673.5 389 h 0.0"></path><path d="M 736.0 389 h 0.0"></path><rect height="22" rx="10" ry="10" width="62.5" x="673.5" y="378"></rect><text x="704.75" y="393">"sd2"</text></g><path d="M 653.5 179 a 10 10 0 0 1 10 10 v 220 a 10 10 0 0 0 10 10"></path><g class="terminal ">
<path d="M 673.5 419 h 0.0"></path><path d="M 736.0 419 h 0.0"></path><rect height="22" rx="10" ry="10" width="62.5" x="673.5" y="408"></rect><text x="704.75" y="423">"sd3"</text></g><path d="M 653.5 179 a 10 10 0 0 1 10 10 v 250 a 10 10 0 0 0 10 10"></path><g class="terminal ">
<path d="M 673.5 449 h 0.0"></path><path d="M 736.0 449 h 0.0"></path><rect height="22" rx="10" ry="10" width="62.5" x="673.5" y="438"></rect><text x="704.75" y="453">"sd4"</text></g><path d="M 653.5 179 a 10 10 0 0 1 10 10 v 280 a 10 10 0 0 0 10 10"></path><g class="terminal ">
<path d="M 673.5 479 h 0.0"></path><path d="M 727.5 479 h 0.0"></path><rect height="22" rx="10" ry="10" width="54.0" x="673.5" y="468"></rect><text x="700.5" y="483">"sd"</text></g><path d="M 653.5 179 a 10 10 0 0 1 10 10 v 310 a 10 10 0 0 0 10 10"></path><g class="terminal ">
<path d="M 673.5 509 h 0.0"></path><path d="M 719.0 509 h 0.0"></path><rect height="22" rx="10" ry="10" width="45.5" x="673.5" y="498"></rect><text x="696.25" y="513">"s"</text></g></g><path d="M 756.0 60 a 10 10 0 0 1 10 10 v 99 a 10 10 0 0 0 10 10"></path><g>
<path d="M 776.0 179 h 0.0"></path><path d="M 776.0 179 a 10 10 0 0 0 10 -10 v -10 a 10 10 0 0 1 10 -10"></path><g class="terminal ">
<path d="M 796.0 149 h 0.0"></path><path d="M 850.0 149 h 0.0"></path><rect height="22" rx="10" ry="10" width="54.0" x="796.0" y="138"></rect><text x="823.0" y="153">"cl"</text></g><path d="M 776.0 179 a 10 10 0 0 0 10 -10 v -40 a 10 10 0 0 1 10 -10"></path><g class="terminal ">
<path d="M 796.0 119 h 0.0"></path><path d="M 850.0 119 h 0.0"></path><rect height="22" rx="10" ry="10" width="54.0" x="796.0" y="108"></rect><text x="823.0" y="123">"cp"</text></g><path d="M 776.0 179 a 10 10 0 0 0 10 -10 v -70 a 10 10 0 0 1 10 -10"></path><g class="terminal ">
<path d="M 796.0 89 h 0.0"></path><path d="M 850.0 89 h 0.0"></path><rect height="22" rx="10" ry="10" width="54.0" x="796.0" y="78"></rect><text x="823.0" y="93">"ts"</text></g><path d="M 776.0 179 h 20"></path><g class="terminal ">
<path d="M 796.0 179 h 0.0"></path><path d="M 850.0 179 h 0.0"></path><rect height="22" rx="10" ry="10" width="54.0" x="796.0" y="168"></rect><text x="823.0" y="183">"cd"</text></g><path d="M 776.0 179 a 10 10 0 0 1 10 10 v 10 a 10 10 0 0 0 10 10"></path><g class="terminal ">
<path d="M 796.0 209 h 0.0"></path><path d="M 867.0 209 h 0.0"></path><rect height="22" rx="10" ry="10" width="71.0" x="796.0" y="198"></rect><text x="831.5" y="213">"mte1"</text></g><path d="M 776.0 179 a 10 10 0 0 1 10 10 v 40 a 10 10 0 0 0 10 10"></path><g class="terminal ">
<path d="M 796.0 239 h 0.0"></path><path d="M 867.0 239 h 0.0"></path><rect height="22" rx="10" ry="10" width="71.0" x="796.0" y="228"></rect><text x="831.5" y="243">"mte2"</text></g><path d="M 776.0 179 a 10 10 0 0 1 10 10 v 70 a 10 10 0 0 0 10 10"></path><g class="terminal ">
<path d="M 796.0 269 h 0.0"></path><path d="M 858.5 269 h 0.0"></path><rect height="22" rx="10" ry="10" width="62.5" x="796.0" y="258"></rect><text x="827.25" y="273">"mte"</text></g><path d="M 776.0 179 a 10 10 0 0 1 10 10 v 100 a 10 10 0 0 0 10 10"></path><g class="terminal ">
<path d="M 796.0 299 h 0.0"></path><path d="M 850.0 299 h 0.0"></path><rect height="22" rx="10" ry="10" width="54.0" x="796.0" y="288"></rect><text x="823.0" y="303">"k1"</text></g><path d="M 776.0 179 a 10 10 0 0 1 10 10 v 130 a 10 10 0 0 0 10 10"></path><g class="terminal ">
<path d="M 796.0 329 h 0.0"></path><path d="M 850.0 329 h 0.0"></path><rect height="22" rx="10" ry="10" width="54.0" x="796.0" y="318"></rect><text x="823.0" y="333">"k2"</text></g><path d="M 776.0 179 a 10 10 0 0 1 10 10 v 160 a 10 10 0 0 0 10 10"></path><g class="terminal ">
<path d="M 796.0 359 h 0.0"></path><path d="M 858.5 359 h 0.0"></path><rect height="22" rx="10" ry="10" width="62.5" x="796.0" y="348"></rect><text x="827.25" y="363">"rem"</text></g></g></g></g><path d="M 141.0 585 a 10 10 0 0 0 10 -10 v -524 a 10 10 0 0 1 10 -10"></path><g>
<path d="M 161.0 41 h 0.0"></path><path d="M 484.5 41 h 0.0"></path><g class="terminal ">
<path d="M 161.0 41 h 0.0"></path><path d="M 215.0 41 h 0.0"></path><rect height="22" rx="10" ry="10" width="54.0" x="161.0" y="30"></rect><text x="188.0" y="45">@vid</text></g><path d="M 215.0 41 h 10"></path><path d="M 225.0 41 h 10"></path><g class="terminal ">
<path d="M 235.0 41 h 0.0"></path><path d="M 484.5 41 h 0.0"></path><rect height="22" rx="10" ry="10" width="249.5" x="235.0" y="30"></rect><text x="359.75" y="45">/&#91;A-Z1-4&#93;{3} ?&#91;a-z0-9\-:&#93;&#42;/</text></g></g><path d="M 141.0 585 h 20"></path><g>
<path d="M 161.0 585 h 254.25"></path><path d="M 742.75 585 h 254.25"></path><path d="M 415.25 585 a 10 10 0 0 0 10 -10 v -9 a 10 10 0 0 1 10 -10"></path><g>
<path d="M 435.25 556 h 287.5"></path></g><path d="M 722.75 556 a 10 10 0 0 1 10 10 v 9 a 10 10 0 0 0 10 10"></path><path d="M 415.25 585 h 20"></path><g>
<path d="M 435.25 585 h 0.0"></path><path d="M 722.75 585 h 0.0"></path><path d="M 435.25 585 h 10"></path><g>
<path d="M 445.25 585 h 0.0"></path><path d="M 712.75 585 h 0.0"></path><path d="M 445.25 585 h 20"></path><g class="non-terminal ">
<path d="M 465.25 585 h 65.5"></path><path d="M 627.25 585 h 65.5"></path><rect height="22" width="96.5" x="530.75" y="574"></rect><text x="579.0" y="589">Reference</text></g><path d="M 692.75 585 h 20"></path><path d="M 445.25 585 a 10 10 0 0 1 10 10 v 10 a 10 10 0 0 0 10 10"></path><g class="non-terminal ">
<path d="M 465.25 615 h 69.75"></path><path d="M 623.0 615 h 69.75"></path><rect height="22" width="88.0" x="535.0" y="604"></rect><text x="579.0" y="619">Footnote</text></g><path d="M 692.75 615 a 10 10 0 0 0 10 -10 v -10 a 10 10 0 0 1 10 -10"></path><path d="M 445.25 585 a 10 10 0 0 1 10 10 v 40 a 10 10 0 0 0 10 10"></path><g class="non-terminal ">
<path d="M 465.25 645 h 44.25"></path><path d="M 648.5 645 h 44.25"></path><rect height="22" width="139.0" x="509.5" y="634"></rect><text x="579.0" y="649">CrossReference</text></g><path d="M 692.75 645 a 10 10 0 0 0 10 -10 v -40 a 10 10 0 0 1 10 -10"></path><path d="M 445.25 585 a 10 10 0 0 1 10 10 v 70 a 10 10 0 0 0 10 10"></path><g class="non-terminal ">
<path d="M 465.25 675 h 86.75"></path><path d="M 606.0 675 h 86.75"></path><rect height="22" width="54.0" x="552.0" y="664"></rect><text x="579.0" y="679">Char</text></g><path d="M 692.75 675 a 10 10 0 0 0 10 -10 v -70 a 10 10 0 0 1 10 -10"></path><path d="M 445.25 585 a 10 10 0 0 1 10 10 v 100 a 10 10 0 0 0 10 10"></path><g class="non-terminal ">
<path d="M 465.25 705 h 65.5"></path><path d="M 627.25 705 h 65.5"></path><rect height="22" width="96.5" x="530.75" y="694"></rect><text x="579.0" y="709">Milestone</text></g><path d="M 692.75 705 a 10 10 0 0 0 10 -10 v -100 a 10 10 0 0 1 10 -10"></path><path d="M 445.25 585 a 10 10 0 0 1 10 10 v 130 a 10 10 0 0 0 10 10"></path><g class="non-terminal ">
<path d="M 465.25 735 h 82.5"></path><path d="M 610.25 735 h 82.5"></path><rect height="22" width="62.5" x="547.75" y="724"></rect><text x="579.0" y="739">Verse</text></g><path d="M 692.75 735 a 10 10 0 0 0 10 -10 v -130 a 10 10 0 0 1 10 -10"></path><path d="M 445.25 585 a 10 10 0 0 1 10 10 v 170 a 10 10 0 0 0 10 10"></path><g>
<path d="M 465.25 775 h 0.0"></path><path d="M 692.75 775 h 0.0"></path><g class="terminal ">
<path d="M 465.25 775 h 0.0"></path><path d="M 570.25 775 h 0.0"></path><rect height="22" rx="10" ry="10" width="105.0" x="465.25" y="764"></rect><text x="517.75" y="779">&#60;optbreak></text></g><path d="M 570.25 775 h 10"></path><path d="M 580.25 775 h 10"></path><g>
<path d="M 590.25 775 h 0.0"></path><path d="M 692.75 775 h 0.0"></path><path d="M 590.25 775 h 20"></path><g class="terminal ">
<path d="M 610.25 775 h 0.0"></path><path d="M 672.75 775 h 0.0"></path><rect height="22" rx="10" ry="10" width="62.5" x="610.25" y="764"></rect><text x="641.5" y="779">EMPTY</text></g><path d="M 672.75 775 h 20"></path></g></g><path d="M 692.75 775 a 10 10 0 0 0 10 -10 v -170 a 10 10 0 0 1 10 -10"></path><path d="M 445.25 585 a 10 10 0 0 1 10 10 v 210 a 10 10 0 0 0 10 10"></path><g class="terminal ">
<path d="M 465.25 815 h 86.75"></path><path d="M 606.0 815 h 86.75"></path><rect height="22" rx="10" ry="10" width="54.0" x="552.0" y="804"></rect><text x="579.0" y="819">TEXT</text></g><path d="M 692.75 815 a 10 10 0 0 0 10 -10 v -210 a 10 10 0 0 1 10 -10"></path></g><path d="M 712.75 585 h 10"></path><path d="M 445.25 585 a 10 10 0 0 0 -10 10 v 239 a 10 10 0 0 0 10 10"></path><g>
<path d="M 445.25 844 h 267.5"></path></g><path d="M 712.75 844 a 10 10 0 0 0 10 -10 v -239 a 10 10 0 0 0 -10 -10"></path></g><path d="M 722.75 585 h 20"></path></g><path d="M 997.0 585 h 20"></path></g></g></g><path d="M 1017.0 585 h 10"></path><path d="M 1027.0 585 h 20 m 0 -10 v 20"></path></g></svg>