<svg class="railroad-diagram" height="856" viewBox="0 0 1067.0 856" width="1067.0" xmlns="http://www.w3.org/2000/svg" xmlns:xlink="http://www.w3.org/1999/xlink">
<g transform="translate(.5 .5)">
<style>/* <![CDATA[ */

    svg.railroad-diagram {
        background-color:hsl(30,20%,95%);
    }
    svg.railroad-diagram path {
        stroke-width: 2;
        stroke: black;
        fill: none;
    }
    svg.railroad-diagram text {
        font-size: 12px;
        text-anchor: middle;
        font-family: DejaVu Sans;
    }
    svg.railroad-diagram text.label {
        text-anchor:start;
    }
    svg.railroad-diagram text.comment {
        font-family: DejaVu Sans;
        font-size: 14px;
    }
    svg.railroad-diagram rect{
        stroke-width: 2;
        stroke:black;
        fill: rgb(210, 210, 255);
    }
    svg.railroad-diagram rect.group-box {
        stroke: gray;
        stroke-dasharray: 10 5;
        fill: none;
    }
    .terminal {
        font-family: DejaVu Sans;
    }

/* ]]> */
</style><g>
<path d="M 20 557 v 20 m 0 -10 h 20"></path></g><path d="M 40 567 h 10"></path><g>
<path d="M 50 567 h 0.0"></path><path d="M 1017.0 567 h 0.0"></path><g>
<path d="M 50.0 567 h 0.0"></path><path d="M 1017.0 567 h 0.0"></path><g class="terminal ">
<path d="M 50.0 567 h 0.0"></path><path d="M 121.0 567 h 0.0"></path><rect height="22" rx="10" ry="10" width="71.0" x="50.0" y="556"></rect><text x="85.5" y="571">&#60;para></text></g><path d="M 121.0 567 h 10"></path><path d="M 131.0 567 h 10"></path><g>
<path d="M 141.0 567 h 0.0"></path><path d="M 1017.0 567 h 0.0"></path><path d="M 141.0 567 a 10 10 0 0 0 10 -10 v -368 a 10 10 0 0 1 10 -10"></path><g>
<path d="M 161.0 179 h 0.0"></path><path d="M 997.0 179 h 0.0"></path><g class="terminal ">
<path d="M 161.0 179 h 0.0"></path><path d="M 232.0 179 h 0.0"></path><rect height="22" rx="10" ry="10" width="71.0" x="161.0" y="168"></rect><text x="196.5" y="183">@style</text></g><path d="M 232.0 179 h 10"></path><g>
<path d="M 242.0 179 h 0.0"></path><path d="M 997.0 179 h 0.0"></path><path d="M 242.0 179 a 10 10 0 0 0 10 -10 v -99 a 10 10 0 0 1 10 -10 h 494.0"></path><path d="M 242.0 179 h 10"></path><g>
<path d="M 252.0 179 h 0.0"></path><path d="M 252.0 179 a 10 10 0 0 0 10 -10 v -10 a 10 10 0 0 1 10 -10"></path><g class="terminal ">
<path d="M 272.0 149 h 0.0"></path><path d="M 334.5 149 h 0.0"></path><rect height="22" rx="10" ry="10" width="62.5" x="272.0" y="138"></rect><text x="303.25" y="153">"iex"</text></g><path d="M 252.0 179 a 10 10 0 0 0 10 -10 v -40 a 10 10 0 0 1 10 -10"></path><g class="terminal ">
<path d="M 272.0 119 h 0.0"></path><path d="M 334.5 119 h 0.0"></path><rect height="22" rx="10" ry="10" width="62.5" x="272.0" y="108"></rect><text x="303.25" y="123">"cls"</text></g><path d="M 252.0 179 a 10 10 0 0 0 10 -10 v -70 a 10 10 0 0 1 10 -10"></path><g class="terminal ">
<path d="M 272.0 89 h 0.0"></path><path d="M 368.5 89 h 0.0"></path><rect height="22" rx="10" ry="10" width="96.5" x="272.0" y="78"></rect><text x="320.25" y="93">"restore"</text></g><path d="M 252.0 179 h 20"></path><g class="terminal ">
<path d="M 272.0 179 h 0.0"></path><path d="M 326.0 179 h 0.0"></path><rect height="22" rx="10" ry="10" width="54.0" x="272.0" y="168"></rect><text x="299.0" y="183">"ip"</text></g><path d="M 252.0 179 a 10 10 0 0 1 10 10 v 10 a 10 10 0 0 0 10 10"></path><g class="terminal ">
<path d="M 272.0 209 h 0.0"></path><path d="M 334.5 209 h 0.0"></path><rect height="22" rx="10" ry="10" width="62.5" x="272.0" y="198"></rect><text x="303.25" y="213">"lit"</text></g><path d="M 252.0 179 a 10 10 0 0 1 10 10 v 40 a 10 10 0 0 0 10 10"></path><g class="terminal ">
<path d="M 272.0 239 h 0.0"></path><path d="M 317.5 239 h 0.0"></path><rect height="22" rx="10" ry="10" width="45.5" x="272.0" y="228"></rect><text x="294.75" y="243">"m"</text></g><path d="M 252.0 179 a 10 10 0 0 1 10 10 v 70 a 10 10 0 0 0 10 10"></path><g class="terminal ">
<path d="M 272.0 269 h 0.0"></path><path d="M 326.0 269 h 0.0"></path><rect height="22" rx="10" ry="10" width="54.0" x="272.0" y="258"></rect><text x="299.0" y="273">"mi"</text></g><path d="M 252.0 179 a 10 10 0 0 1 10 10 v 100 a 10 10 0 0 0 10 10"></path><g class="terminal ">
<path d="M 272.0 299 h 0.0"></path><path d="M 326.0 299 h 0.0"></path><rect height="22" rx="10" ry="10" width="54.0" x="272.0" y="288"></rect><text x="299.0" y="303">"nb"</text></g><path d="M 252.0 179 a 10 10 0 0 1 10 10 v 130 a 10 10 0 0 0 10 10"></path><g class="terminal ">
<path d="M 272.0 329 h 0.0"></path><path d="M 317.5 329 h 0.0"></path><rect height="22" rx="10" ry="10" width="45.5" x="272.0" y="318"></rect><text x="294.75" y="333">"p"</text></g><path d="M 252.0 179 a 10 10 0 0 1 10 10 v 160 a 10 10 0 0 0 10 10"></path><g class="terminal ">
<path d="M 272.0 359 h 0.0"></path><path d="M 326.0 359 h 0.0"></path><rect height="22" rx="10" ry="10" width="54.0" x="272.0" y="348"></rect><text x="299.0" y="363">"pb"</text></g><path d="M 252.0 179 a 10 10 0 0 1 10 10 v 190 a 10 10 0 0 0 10 10"></path><g class="terminal ">
<path d="M 272.0 389 h 0.0"></path><path d="M 326.0 389 h 0.0"></path><rect height="22" rx="10" ry="10" width="54.0" x="272.0" y="378"></rect><text x="299.0" y="393">"pc"</text></g><path d="M 252.0 179 a 10 10 0 0 1 10 10 v 220 a 10 10 0 0 0 10 10"></path><g class="terminal ">
<path d="M 272.0 419 h 0.0"></path><path d="M 326.0 419 h 0.0"></path><rect height="22" rx="10" ry="10" width="54.0" x="272.0" y="408"></rect><text x="299.0" y="423">"pi"</text></g><path d="M 252.0 179 a 10 10 0 0 1 10 10 v 250 a 10 10 0 0 0 10 10"></path><g class="terminal ">
<path d="M 272.0 449 h 0.0"></path><path d="M 334.5 449 h 0.0"></path><rect height="22" rx="10" ry="10" width="62.5" x="272.0" y="438"></rect><text x="303.25" y="453">"pi1"</text></g><path d="M 252.0 179 a 10 10 0 0 1 10 10 v 280 a 10 10 0 0 0 10 10"></path><g class="terminal ">
<path d="M 272.0 479 h 0.0"></path><path d="M 334.5 479 h 0.0"></path><rect height="22" rx="10" ry="10" width="62.5" x="272.0" y="468"></rect><text x="303.25" y="483">"pi2"</text></g><path d="M 252.0 179 a 10 10 0 0 1 10 10 v 310 a 10 10 0 0 0 10 10"></path><g class="terminal ">
<path d="M 272.0 509 h 0.0"></path><path d="M 334.5 509 h 0.0"></path><rect height="22" rx="10" ry="10" width="62.5" x="272.0" y="498"></rect><text x="303.25" y="513">"pi3"</text></g></g><path d="M 388.5 60 a 10 10 0 0 1 10 10 v 99 a 10 10 0 0 0 10 10"></path><g>
<path d="M 408.5 179 h 0.0"></path><path d="M 408.5 179 a 10 10 0 0 0 10 -10 v -10 a 10 10 0 0 1 10 -10"></path><g class="terminal ">
<path d="M 428.5 149 h 0.0"></path><path d="M 491.0 149 h 0.0"></path><rect height="22" rx="10" ry="10" width="62.5" x="428.5" y="138"></rect><text x="459.75" y="153">"pmo"</text></g><path d="M 408.5 179 a 10 10 0 0 0 10 -10 v -40 a 10 10 0 0 1 10 -10"></path><g class="terminal ">
<path d="M 428.5 119 h 0.0"></path><path d="M 482.5 119 h 0.0"></path><rect height="22" rx="10" ry="10" width="54.0" x="428.5" y="108"></rect><text x="455.5" y="123">"pr"</text></g><path d="M 408.5 179 a 10 10 0 0 0 10 -10 v -70 a 10 10 0 0 1 10 -10"></path><g class="terminal ">
<path d="M 428.5 89 h 0.0"></path><path d="M 482.5 89 h 0.0"></path><rect height="22" rx="10" ry="10" width="54.0" x="428.5" y="78"></rect><text x="455.5" y="93">"po"</text></g><path d="M 408.5 179 h 20"></path><g class="terminal ">
<path d="M 428.5 179 h 0.0"></path><path d="M 482.5 179 h 0.0"></path><rect height="22" rx="10" ry="10" width="54.0" x="428.5" y="168"></rect><text x="455.5" y="183">"pm"</text></g><path d="M 408.5 179 a 10 10 0 0 1 10 10 v 10 a 10 10 0 0 0 10 10"></path><g class="terminal ">
<path d="M 428.5 209 h 0.0"></path><path d="M 491.0 209 h 0.0"></path><rect height="22" rx="10" ry="10" width="62.5" x="428.5" y="198"></rect><text x="459.75" y="213">"pmc"</text></g><path d="M 408.5 179 a 10 10 0 0 1 10 10 v 40 a 10 10 0 0 0 10 10"></path><g class="terminal ">
<path d="M 428.5 239 h 0.0"></path><path d="M 491.0 239 h 0.0"></path><rect height="22" rx="10" ry="10" width="62.5" x="428.5" y="228"></rect><text x="459.75" y="243">"pmr"</text></g><path d="M 408.5 179 a 10 10 0 0 1 10 10 v 70 a 10 10 0 0 0 10 10"></path><g class="terminal ">
<path d="M 428.5 269 h 0.0"></path><path d="M 482.5 269 h 0.0"></path><rect height="22" rx="10" ry="10" width="54.0" x="428.5" y="258"></rect><text x="455.5" y="273">"ph"</text></g><path d="M 408.5 179 a 10 10 0 0 1 10 10 v 100 a 10 10 0 0 0 10 10"></path><g class="terminal ">
<path d="M 428.5 299 h 0.0"></path><path d="M 491.0 299 h 0.0"></path><rect height="22" rx="10" ry="10" width="62.5" x="428.5" y="288"></rect><text x="459.75" y="303">"ph1"</text></g><path d="M 408.5 179 a 10 10 0 0 1 10 10 v 130 a 10 10 0 0 0 10 10"></path><g class="terminal ">
<path d="M 428.5 329 h 0.0"></path><path d="M 491.0 329 h 0.0"></path><rect height="22" rx="10" ry="10" width="62.5" x="428.5" y="318"></rect><text x="459.75" y="333">"ph2"</text></g><path d="M 408.5 179 a 10 10 0 0 1 10 10 v 160 a 10 10 0 0 0 10 10"></path><g class="terminal ">
<path d="M 428.5 359 h 0.0"></path><path d="M 491.0 359 h 0.0"></path><rect height="22" rx="10" ry="10" width="62.5" x="428.5" y="348"></rect><text x="459.75" y="363">"ph3"</text></g><path d="M 408.5 179 a 10 10 0 0 1 10 10 v 190 a 10 10 0 0 0 10 10"></path><g class="terminal ">
<path d="M 428.5 389 h 0.0"></path><path d="M 474.0 389 h 0.0"></path><rect height="22" rx="10" ry="10" width="45.5" x="428.5" y="378"></rect><text x="451.25" y="393">"q"</text></g><path d="M 408.5 179 a 10 10 0 0 1 10 10 v 220 a 10 10 0 0 0 10 10"></path><g class="terminal ">
<path d="M 428.5 419 h 0.0"></path><path d="M 482.5 419 h 0.0"></path><rect height="22" rx="10" ry="10" width="54.0" x="428.5" y="408"></rect><text x="455.5" y="423">"q1"</text></g><path d="M 408.5 179 a 10 10 0 0 1 10 10 v 250 a 10 10 0 0 0 10 10"></path><g class="terminal ">
<path d="M 428.5 449 h 0.0"></path><path d="M 482.5 449 h 0.0"></path><rect height="22" rx="10" ry="10" width="54.0" x="428.5" y="438"></rect><text x="455.5" y="453">"q2"</text></g><path d="M 408.5 179 a 10 10 0 0 1 10 10 v 280 a 10 10 0 0 0 10 10"></path><g class="terminal ">
<path d="M 428.5 479 h 0.0"></path><path d="M 482.5 479 h 0.0"></path><rect height="22" rx="10" ry="10" width="54.0" x="428.5" y="468"></rect><text x="455.5" y="483">"q3"</text></g><path d="M 408.5 179 a 10 10 0 0 1 10 10 v 310 a 10 10 0 0 0 10 10"></path><g class="terminal ">
<path d="M 428.5 509 h 0.0"></path><path d="M 482.5 509 h 0.0"></path><rect height="22" rx="10" ry="10" width="54.0" x="428.5" y="498"></rect><text x="455.5" y="513">"q4"</text></g></g><path d="M 511.0 60 a 10 10 0 0 1 10 10 v 99 a 10 10 0 0 0 10 10"></path><g>
<path d="M 531.0 179 h 0.0"></path><path d="M 531.0 179 a 10 10 0 0 0 10 -10 v -10 a 10 10 0 0 1 10 -10"></path><g class="terminal ">
<path d="M 551.0 149 h 0.0"></path><path d="M 605.0 149 h 0.0"></path><rect height="22" rx="10" ry="10" width="54.0" x="551.0" y="138"></rect><text x="578.0" y="153">"qr"</text></g><path d="M 531.0 179 a 10 10 0 0 0 10 -10 v -40 a 10 10 0 0 1 10 -10"></path><g class="terminal ">
<path d="M 551.0 119 h 0.0"></path><path d="M 605.0 119 h 0.0"></path><rect height="22" rx="10" ry="10" width="54.0" x="551.0" y="108"></rect><text x="578.0" y="123">"qc"</text></g><path d="M 531.0 179 a 10 10 0 0 0 10 -10 v -70 a 10 10 0 0 1 10 -10"></path><g class="terminal ">
<path d="M 551.0 89 h 0.0"></path><path d="M 605.0 89 h 0.0"></path><rect height="22" rx="10" ry="10" width="54.0" x="551.0" y="78"></rect><text x="578.0" y="93">"qa"</text></g><path d="M 531.0 179 h 20"></path><g class="terminal ">
<path d="M 551.0 179 h 0.0"></path><path d="M 605.0 179 h 0.0"></path><rect height="22" rx="10" ry="10" width="54.0" x="551.0" y="168"></rect><text x="578.0" y="183">"qm"</text></g><path d="M 531.0 179 a 10 10 0 0 1 10 10 v 10 a 10 10 0 0 0 10 10"></path><g class="terminal ">
<path d="M 551.0 209 h 0.0"></path><path d="M 613.5 209 h 0.0"></path><rect height="22" rx="10" ry="10" width="62.5" x="551.0" y="198"></rect><text x="582.25" y="213">"qm1"</text></g><path d="M 531.0 179 a 10 10 0 0 1 10 10 v 40 a 10 10 0 0 0 10 10"></path><g class="terminal ">
<path d="M 551.0 239 h 0.0"></path><path d="M 613.5 239 h 0.0"></path><rect height="22" rx="10" ry="10" width="62.5" x="551.0" y="228"></rect><text x="582.25" y="243">"qm2"</text></g><path d="M 531.0 179 a 10 10 0 0 1 10 10 v 70 a 10 10 0 0 0 10 10"></path><g class="terminal ">
<path d="M 551.0 269 h 0.0"></path><path d="M 613.5 269 h 0.0"></path><rect height="22" rx="10" ry="10" width="62.5" x="551.0" y="258"></rect><text x="582.25" y="273">"qm3"</text></g><path d="M 531.0 179 a 10 10 0 0 1 10 10 v 100 a 10 10 0 0 0 10 10"></path><g class="terminal ">
<path d="M 551.0 299 h 0.0"></path><path d="M 605.0 299 h 0.0"></path><rect height="22" rx="10" ry="10" width="54.0" x="551.0" y="288"></rect><text x="578.0" y="303">"qd"</text></g><path d="M 531.0 179 a 10 10 0 0 1 10 10 v 130 a 10 10 0 0 0 10 10"></path><g class="terminal ">
<path d="M 551.0 329 h 0.0"></path><path d="M 596.5 329 h 0.0"></path><rect height="22" rx="10" ry="10" width="45.5" x="551.0" y="318"></rect><text x="573.75" y="333">"b"</text></g><path d="M 531.0 179 a 10 10 0 0 1 10 10 v 160 a 10 10 0 0 0 10 10"></path><g class="terminal ">
<path d="M 551.0 359 h 0.0"></path><path d="M 596.5 359 h 0.0"></path><rect height="22" rx="10" ry="10" width="45.5" x="551.0" y="348"></rect><text x="573.75" y="363">"d"</text></g><path d="M 531.0 179 a 10 10 0 0 1 10 10 v 190 a 10 10 0 0 0 10 10"></path><g class="terminal ">
<path d="M 551.0 389 h 0.0"></path><path d="M 605.0 389 h 0.0"></path><rect height="22" rx="10" ry="10" width="54.0" x="551.0" y="378"></rect><text x="578.0" y="393">"ms"</text></g><path d="M 531.0 179 a 10 10 0 0 1 10 10 v 220 a 10 10 0 0 0 10 10"></path><g class="terminal ">
<path d="M 551.0 419 h 0.0"></path><path d="M 613.5 419 h 0.0"></path><rect height="22" rx="10" ry="10" width="62.5" x="551.0" y="408"></rect><text x="582.25" y="423">"ms1"</text></g><path d="M 531.0 179 a 10 10 0 0 1 10 10 v 250 a 10 10 0 0 0 10 10"></path><g class="terminal ">
<path d="M 551.0 449 h 0.0"></path><path d="M 613.5 449 h 0.0"></path><rect height="22" rx="10" ry="10" width="62.5" x="551.0" y="438"></rect><text x="582.25" y="453">"ms2"</text></g><path d="M 531.0 179 a 10 10 0 0 1 10 10 v 280 a 10 10 0 0 0 10 10"></path><g class="terminal ">
<path d="M 551.0 479 h 0.0"></path><path d="M 613.5 479 h 0.0"></path><rect height="22" rx="10" ry="10" width="62.5" x="551.0" y="468"></rect><text x="582.25" y="483">"ms3"</text></g><path d="M 531.0 179 a 10 10 0 0 1 10 10 v 310 a 10 10 0 0 0 10 10"></path><g class="terminal ">
<path d="M 551.0 509 h 0.0"></path><path d="M 605.0 509 h 0.0"></path><rect height="22" rx="10" ry="10" width="54.0" x="551.0" y="498"></rect><text x="578.0" y="513">"mr"</text></g></g><path d="M 633.5 60 a 10 10 0 0 1 10 10 v 99 a 10 10 0 0 0 10 10"></path><g>
<path d="M 653.5 179 h 0.0"></path><path d="M 653.5 179 a 10 10 0 0 0 10 -10 v -10 a 10 10 0 0 1 10 -10"></path><g class="terminal ">
<path d="M 673.5 149 h 0.0"></path><path d="M 727.5 149 h 0.0"></path><rect height="22" rx="10" ry="10" width="54.0" x="673.5" y="138"></rect><text x="700.5" y="153">"s1"</text></g><path d="M 653.5 179 a 10 10 0 0 0 10 -10 v -40 a 10 10 0 0 1 10 -10"></path><g class="terminal ">
<path d="M 673.5 119 h 0.0"></path><path d="M 719.0 119 h 0.0"></path><rect height="22" rx="10" ry="10" width="45.5" x="673.5" y="108"></rect><text x="696.25" y="123">"s"</text></g><path d="M 653.5 179 a 10 10 0 0 0 10 -10 v -70 a 10 10 0 0 1 10 -10"></path><g class="terminal ">
<path d="M 673.5 89 h 0.0"></path><path d="M 719.0 89 h 0.0"></path><rect height="22" rx="10" ry="10" width="45.5" x="673.5" y="78"></rect><text x="696.25" y="93">"r"</text></g><path d="M 653.5 179 h 20"></path><g class="terminal ">
<path d="M 673.5 179 h 0.0"></path><path d="M 727.5 179 h 0.0"></path><rect height="22" rx="10" ry="10" width="54.0" x="673.5" y="168"></rect><text x="700.5" y="183">"s2"</text></g><path d="M 653.5 179 a 10 10 0 0 1 10 10 v 10 a 10 10 0 0 0 10 10"></path><g class="terminal ">
<path d="M 673.5 209 h 0.0"></path><path d="M 727.5 209 h 0.0"></path><rect height="22" rx="10" ry="10" width="54.0" x="673.5" y="198"></rect><text x="700.5" y="213">"s3"</text></g><path d="M 653.5 179 a 10 10 0 0 1 10 10 v 40 a 10 10 0 0 0 10 10"></path><g class="terminal ">
<path d="M 673.5 239 h 0.0"></path><path d="M 727.5 239 h 0.0"></path><rect height="22" rx="10" ry="10" width="54.0" x="673.5" y="228"></rect><text x="700.5" y="243">"s4"</text></g><path d="M 653.5 179 a 10 10 0 0 1 10 10 v 70 a 10 10 0 0 0 10 10"></path><g class="terminal ">
<path d="M 673.5 269 h 0.0"></path><path d="M 727.5 269 h 0.0"></path><rect height="22" rx="10" ry="10" width="54.0" x="673.5" y="258"></rect><text x="700.5" y="273">"sr"</text></g><path d="M 653.5 179 a 10 10 0 0 1 10 10 v 100 a 10 10 0 0 0 10 10"></path><g class="terminal ">
<path d="M 673.5 299 h 0.0"></path><path d="M 727.5 299 h 0.0"></path><rect height="22" rx="10" ry="10" width="54.0" x="673.5" y="288"></rect><text x="700.5" y="303">"sp"</text></g><path d="M 653.5 179 a 10 10 0 0 1 10 10 v 130 a 10 10 0 0 0 10 10"></path><g class="terminal ">
<path d="M 673.5 329 h 0.0"></path><path d="M 727.5 329 h 0.0"></path><rect height="22" rx="10" ry="10" width="54.0" x="673.5" y="318"></rect><text x="700.5" y="333">"sd"</text></g><path d="M 653.5 179 a 10 10 0 0 1 10 10 v 160 a 10 10 0 0 0 10 10"></path><g class="terminal ">
<path d="M 673.5 359 h 0.0"></path><path d="M 736.0 359 h 0.0"></path><rect height="22" rx="10" ry="10" width="62.5" x="673.5" y="348"></rect><text x="704.75" y="363">"sd1"</text></g><path d="M 653.5 179 a 10 10 0 0 1 10 10 v 190 a 10 10 0 0 0 10 10"></path><g class="terminal ">
<path d="M 673.5 389 h 0.0"></path><path d="M 736.0 389 h 0.0"></path><rect height="22" rx="10" ry="10" width="62.5" x="673.5" y="378"></rect><text x="704.75" y="393">"sd2"</text></g><path d="M 653.5 179 a 10 10 0 0 1 10 10 v 220 a 10 10 0 0 0 10 10"></path><g class="terminal ">
<path d="M 673.5 419 h 0.0"></path><path d="M 736.0 419 h 0.0"></path><rect height="22" rx="10" ry="10" width="62.5" x="673.5" y="408"></rect><text x="704.75" y="423">"sd3"</text></g><path d="M 653.5 179 a 10 10 0 0 1 10 10 v 250 a 10 10 0 0 0 10 10"></path><g class="terminal ">
<path d="M 673.5 449 h 0.0"></path><path d="M 736.0 449 h 0.0"></path><rect height="22" rx="10" ry="10" width="62.5" x="673.5" y="438"></rect><text x="704.75" y="453">"sd4"</text></g><path d="M 653.5 179 a 10 10 0 0 1 10 10 v 280 a 10 10 0 0 0 10 10"></path><g class="terminal ">
<path d="M 673.5 479 h 0.0"></path><path d="M 727.5 479 h 0.0"></path><rect height="22" rx="10" ry="10" width="54.0" x="673.5" y="468"></rect><text x="700.5" y="483">"ts"</text></g><path d="M 653.5 179 a 10 10 0 0 1 10 10 v 310 a 10 10 0 0 0 10 10"></path><g class="terminal ">
<path d="M 673.5 509 h 0.0"></path><path d="M 727.5 509 h 0.0"></path><rect height="22" rx="10" ry="10" width="54.0" x="673.5" y="498"></rect><text x="700.5" y="513">"cp"</text></g></g><path d="M 756.0 60 a 10 10 0 0 1 10 10 v 99 a 10 10 0 0 0 10 10"></path><g>
<path d="M 776.0 179 h 0.0"></path><path d="M 776.0 179 a 10 10 0 0 0 10 -10 v -10 a 10 10 0 0 1 10 -10"></path><g class="terminal ">
<path d="M 796.0 149 h 0.0"></path><path d="M 858.5 149 h 0.0"></path><rect height="22" rx="10" ry="10" width="62.5" x="796.0" y="138"></rect><text x="827.25" y="153">"mte"</text></g><path d="M 776.0 179 a 10 10 0 0 0 10 -10 v -40 a 10 10 0 0 1 10 -10"></path><g class="terminal ">
<path d="M 796.0 119 h 0.0"></path><path d="M 850.0 119 h 0.0"></path><rect height="22" rx="10" ry="10" width="54.0" x="796.0" y="108"></rect><text x="823.0" y="123">"cd"</text></g><path d="M 776.0 179 a 10 10 0 0 0 10 -10 v -70 a 10 10 0 0 1 10 -10"></path><g class="terminal ">
<path d="M 796.0 89 h 0.0"></path><path d="M 850.0 89 h 0.0"></path><rect height="22" rx="10" ry="10" width="54.0" x="796.0" y="78"></rect><text x="823.0" y="93">"cl"</text></g><path d="M 776.0 179 h 20"></path><g class="terminal ">
<path d="M 796.0 179 h 0.0"></path><path d="M 867.0 179 h 0.0"></path><rect height="22" rx="10" ry="10" width="71.0" x="796.0" y="168"></rect><text x="831.5" y="183">"mte1"</text></g><path d="M 776.0 179 a 10 10 0 0 1 10 10 v 10 a 10 10 0 0 0 10 10"></path><g class="terminal ">
<path d="M 796.0 209 h 0.0"></path><path d="M 867.0 209 h 0.0"></path><rect height="22" rx="10" ry="10" width="71.0" x="796.0" y="198"></rect><text x="831.5" y="213">"mte2"</text></g><path d="M 776.0 179 a 10 10 0 0 1 10 10 v 40 a 10 10 0 0 0 10 10"></path><g class="terminal ">
<path d="M 796.0 239 h 0.0"></path><path d="M 841.5 239 h 0.0"></path><rect height="22" rx="10" ry="10" width="45.5" x="796.0" y="228"></rect><text x="818.75" y="243">"p"</text></g><path d="M 776.0 179 a 10 10 0 0 1 10 10 v 70 a 10 10 0 0 0 10 10"></path><g class="terminal ">
<path d="M 796.0 269 h 0.0"></path><path d="M 850.0 269 h 0.0"></path><rect height="22" rx="10" ry="10" width="54.0" x="796.0" y="258"></rect><text x="823.0" y="273">"p1"</text></g><path d="M 776.0 179 a 10 10 0 0 1 10 10 v 100 a 10 10 0 0 0 10 10"></path><g class="terminal ">
<path d="M 796.0 299 h 0.0"></path><path d="M 850.0 299 h 0.0"></path><rect height="22" rx="10" ry="10" width="54.0" x="796.0" y="288"></rect><text x="823.0" y="303">"p2"</text></g><path d="M 776.0 179 a 10 10 0 0 1 10 10 v 130 a 10 10 0 0 0 10 10"></path><g class="terminal ">
<path d="M 796.0 329 h 0.0"></path><path d="M 850.0 329 h 0.0"></path><rect height="22" rx="10" ry="10" width="54.0" x="796.0" y="318"></rect><text x="823.0" y="333">"k1"</text></g><path d="M 776.0 179 a 10 10 0 0 1 10 10 v 160 a 10 10 0 0 0 10 10"></path><g class="terminal ">
<path d="M 796.0 359 h 0.0"></path><path d="M 850.0 359 h 0.0"></path><rect height="22" rx="10" ry="10" width="54.0" x="796.0" y="348"></rect><text x="823.0" y="363">"k2"</text></g><path d="M 776.0 179 a 10 10 0 0 1 10 10 v 190 a 10 10 0 0 0 10 10"></path><g class="terminal ">
<path d="M 796.0 389 h 0.0"></path><path d="M 858.5 389 h 0.0"></path><rect height="22" rx="10" ry="10" width="62.5" x="796.0" y="378"></rect><text x="827.25" y="393">"rem"</text></g></g></g></g><path d="M 141.0 567 a 10 10 0 0 0 10 -10 v -506 a 10 10 0 0 1 10 -10"></path><g>
<path d="M 161.0 41 h 0.0"></path><path d="M 484.5 41 h 0.0"></path><g class="terminal ">
<path d="M 161.0 41 h 0.0"></path><path d="M 215.0 41 h 0.0"></path><rect height="22" rx="10" ry="10" width="54.0" x="161.0" y="30"></rect><text x="188.0" y="45">@vid</text></g><path d="M 215.0 41 h 10"></path><path d="M 225.0 41 h 10"></path><g class="terminal ">
<path d="M 235.0 41 h 0.0"></path><path d="M 484.5 41 h 0.0"></path><rect height="22" rx="10" ry="10" width="249.5" x="235.0" y="30"></rect><text x="359.75" y="45">/&#91;A-Z1-4&#93;{3} ?&#91;a-z0-9\-:&#93;&#42;/</text></g></g><path d="M 141.0 567 h 20"></path><g>
<path d="M 161.0 567 h 274.25"></path><path d="M 722.75 567 h 274.25"></path><path d="M 435.25 567 h 10"></path><g>
<path d="M 445.25 567 h 0.0"></path><path d="M 712.75 567 h 0.0"></path><path d="M 445.25 567 h 20"></path><g class="non-terminal ">
<path d="M 465.25 567 h 65.5"></path><path d="M 627.25 567 h 65.5"></path><rect height="22" width="96.5" x="530.75" y="556"></rect><text x="579.0" y="571">Reference</text></g><path d="M 692.75 567 h 20"></path><path d="M 445.25 567 a 10 10 0 0 1 10 10 v 10 a 10 10 0 0 0 10 10"></path><g class="non-terminal ">
<path d="M 465.25 597 h 69.75"></path><path d="M 623.0 597 h 69.75"></path><rect height="22" width="88.0" x="535.0" y="586"></rect><text x="579.0" y="601">Footnote</text></g><path d="M 692.75 597 a 10 10 0 0 0 10 -10 v -10 a 10 10 0 0 1 10 -10"></path><path d="M 445.25 567 a 10 10 0 0 1 10 10 v 40 a 10 10 0 0 0 10 10"></path><g class="non-terminal ">
<path d="M 465.25 627 h 44.25"></path><path d="M 648.5 627 h 44.25"></path><rect height="22" width="139.0" x="509.5" y="616"></rect><text x="579.0" y="631">CrossReference</text></g><path d="M 692.75 627 a 10 10 0 0 0 10 -10 v -40 a 10 10 0 0 1 10 -10"></path><path d="M 445.25 567 a 10 10 0 0 1 10 10 v 70 a 10 10 0 0 0 10 10"></path><g class="non-terminal ">
<path d="M 465.25 657 h 86.75"></path><path d="M 606.0 657 h 86.75"></path><rect height="22" width="54.0" x="552.0" y="646"></rect><text x="579.0" y="661">Char</text></g><path d="M 692.75 657 a 10 10 0 0 0 10 -10 v -70 a 10 10 0 0 1 10 -10"></path><path d="M 445.25 567 a 10 10 0 0 1 10 10 v 100 a 10 10 0 0 0 10 10"></path><g class="non-terminal ">
<path d="M 465.25 687 h 65.5"></path><path d="M 627.25 687 h 65.5"></path><rect height="22" width="96.5" x="530.75" y="676"></rect><text x="579.0" y="691">Milestone</text></g><path d="M 692.75 687 a 10 10 0 0 0 10 -10 v -100 a 10 10 0 0 1 10 -10"></path><path d="M 445.25 567 a 10 10 0 0 1 10 10 v 130 a 10 10 0 0 0 10 10"></path><g class="non-terminal ">
<path d="M 465.25 717 h 82.5"></path><path d="M 610.25 717 h 82.5"></path><rect height="22" width="62.5" x="547.75" y="706"></rect><text x="579.0" y="721">Verse</text></g><path d="M 692.75 717 a 10 10 0 0 0 10 -10 v -130 a 10 10 0 0 1 10 -10"></path><path d="M 445.25 567 a 10 10 0 0 1 10 10 v 170 a 10 10 0 0 0 10 10"></path><g>
<path d="M 465.25 757 h 0.0"></path><path d="M 692.75 757 h 0.0"></path><g class="terminal ">
<path d="M 465.25 757 h 0.0"></path><path d="M 570.25 757 h 0.0"></path><rect height="22" rx="10" ry="10" width="105.0" x="465.25" y="746"></rect><text x="517.75" y="761">&#60;optbreak></text></g><path d="M 570.25 757 h 10"></path><path d="M 580.25 757 h 10"></path><g>
<path d="M 590.25 757 h 0.0"></path><path d="M 692.75 757 h 0.0"></path><path d="M 590.25 757 h 20"></path><g class="terminal ">
<path d="M 610.25 757 h 0.0"></path><path d="M 672.75 757 h 0.0"></path><rect height="22" rx="10" ry="10" width="62.5" x="610.25" y="746"></rect><text x="641.5" y="761">EMPTY</text></g><path d="M 672.75 757 h 20"></path></g></g><path d="M 692.75 757 a 10 10 0 0 0 10 -10 v -170 a 10 10 0 0 1 10 -10"></path><path d="M 445.25 567 a 10 10 0 0 1 10 10 v 210 a 10 10 0 0 0 10 10"></path><g class="terminal ">
<path d="M 465.25 797 h 86.75"></path><path d="M 606.0 797 h 86.75"></path><rect height="22" rx="10" ry="10" width="54.0" x="552.0" y="786"></rect><text x="579.0" y="801">TEXT</text></g><path d="M 692.75 797 a 10 10 0 0 0 10 -10 v -210 a 10 10 0 0 1 10 -10"></path></g><path d="M 712.75 567 h 10"></path><path d="M 445.25 567 a 10 10 0 0 0 -10 10 v 239 a 10 10 0 0 0 10 10"></path><g>
<path d="M 445.25 826 h 267.5"></path></g><path d="M 712.75 826 a 10 10 0 0 0 10 -10 v -239 a 10 10 0 0 0 -10 -10"></path></g><path d="M 997.0 567 h 20"></path></g></g></g><path d="M 1017.0 567 h 10"></path><path d="M 1027.0 567 h 20 m 0 -10 v 20"></path></g></svg>