<svg class="railroad-diagram" height="1024" viewBox="0 0 779.5 1024" width="779.5" xmlns="http://www.w3.org/2000/svg" xmlns:xlink="http://www.w3.org/1999/xlink">
<g transform="translate(.5 .5)">
<style>/* <![CDATA[ */

    svg.railroad-diagram {
        background-color: hsl(30,20%,95%);
    }
    svg.railroad-diagram path {
        stroke-width: 2;
        stroke: black;
        fill: none;
    }
    svg.railroad-diagram text {
        font-size: 12px;
        text-anchor: middle;
        font-family: DejaVu Sans;
    }
    svg.railroad-diagram text.label {
        text-anchor:start;
    }
    svg.railroad-diagram text.comment {
        font-family: DejaVu Sans;
        font-size: 14px;
    }
    svg.railroad-diagram rect{
        stroke-width: 2;
        stroke: black;
        fill: rgb(210, 210, 255);
    }
    svg.railroad-diagram rect.group-box {
        stroke: gray;
        stroke-dasharray: 10 5;
        fill: none;
    }
    .terminal {
        font-family: DejaVu Sans;
    }
    svg.railroad-diagram g.altterminal rect {
        fill: rgb(251, 252, 207)
    }

/* ]]> */
</style><g>
<path d="M 20 615 v 20 m 0 -10 h 20"></path></g><path d="M 40 625 h 10"></path><g>
<path d="M 50 625 h 0.0"></path><path d="M 729.5 625 h 0.0"></path><g>
<path d="M 50.0 625 h 0.0"></path><path d="M 729.5 625 h 0.0"></path><path d="M 50.0 625 h 20"></path><g>
<path d="M 70.0 625 h 0.0"></path><path d="M 709.5 625 h 0.0"></path><g class="terminal ">
<path d="M 70.0 625 h 0.0"></path><path d="M 141.0 625 h 0.0"></path><rect height="22" rx="10" ry="10" width="71.0" x="70.0" y="614"></rect><text x="105.5" y="629">&#60;para></text></g><path d="M 141.0 625 h 10"></path><path d="M 151.0 625 h 10"></path><g>
<path d="M 161.0 625 h 0.0"></path><path d="M 709.5 625 h 0.0"></path><path d="M 161.0 625 a 10 10 0 0 0 10 -10 v -386 a 10 10 0 0 1 10 -10"></path><g>
<path d="M 181.0 219 h 0.0"></path><path d="M 689.5 219 h 0.0"></path><g class="terminal ">
<path d="M 181.0 219 h 0.0"></path><path d="M 252.0 219 h 0.0"></path><rect height="22" rx="10" ry="10" width="71.0" x="181.0" y="208"></rect><text x="216.5" y="223">@style</text></g><path d="M 252.0 219 h 10"></path><g>
<path d="M 262.0 219 h 0.0"></path><path d="M 689.5 219 h 0.0"></path><path d="M 262.0 219 a 10 10 0 0 0 10 -10 v -99 a 10 10 0 0 1 10 -10 h 215.0"></path><path d="M 262.0 219 h 10"></path><g>
<path d="M 272.0 219 h 0.0"></path><path d="M 272.0 219 a 10 10 0 0 0 10 -10 v -10 a 10 10 0 0 1 10 -10"></path><g class="terminal ">
<path d="M 292.0 189 h 0.0"></path><path d="M 346.0 189 h 0.0"></path><rect height="22" rx="10" ry="10" width="54.0" x="292.0" y="178"></rect><text x="319.0" y="193">"pc"</text></g><path d="M 272.0 219 a 10 10 0 0 0 10 -10 v -40 a 10 10 0 0 1 10 -10"></path><g class="terminal ">
<path d="M 292.0 159 h 0.0"></path><path d="M 346.0 159 h 0.0"></path><rect height="22" rx="10" ry="10" width="54.0" x="292.0" y="148"></rect><text x="319.0" y="163">"nb"</text></g><path d="M 272.0 219 a 10 10 0 0 0 10 -10 v -70 a 10 10 0 0 1 10 -10"></path><g class="terminal ">
<path d="M 292.0 129 h 0.0"></path><path d="M 354.5 129 h 0.0"></path><rect height="22" rx="10" ry="10" width="62.5" x="292.0" y="118"></rect><text x="323.25" y="133">"cls"</text></g><path d="M 272.0 219 h 20"></path><g class="terminal ">
<path d="M 292.0 219 h 0.0"></path><path d="M 354.5 219 h 0.0"></path><rect height="22" rx="10" ry="10" width="62.5" x="292.0" y="208"></rect><text x="323.25" y="223">"pi1"</text></g><path d="M 272.0 219 a 10 10 0 0 1 10 10 v 10 a 10 10 0 0 0 10 10"></path><g class="terminal ">
<path d="M 292.0 249 h 0.0"></path><path d="M 354.5 249 h 0.0"></path><rect height="22" rx="10" ry="10" width="62.5" x="292.0" y="238"></rect><text x="323.25" y="253">"pi2"</text></g><path d="M 272.0 219 a 10 10 0 0 1 10 10 v 40 a 10 10 0 0 0 10 10"></path><g class="terminal ">
<path d="M 292.0 279 h 0.0"></path><path d="M 354.5 279 h 0.0"></path><rect height="22" rx="10" ry="10" width="62.5" x="292.0" y="268"></rect><text x="323.25" y="283">"pi3"</text></g><path d="M 272.0 219 a 10 10 0 0 1 10 10 v 70 a 10 10 0 0 0 10 10"></path><g class="terminal ">
<path d="M 292.0 309 h 0.0"></path><path d="M 346.0 309 h 0.0"></path><rect height="22" rx="10" ry="10" width="54.0" x="292.0" y="298"></rect><text x="319.0" y="313">"pi"</text></g><path d="M 272.0 219 a 10 10 0 0 1 10 10 v 100 a 10 10 0 0 0 10 10"></path><g class="terminal ">
<path d="M 292.0 339 h 0.0"></path><path d="M 346.0 339 h 0.0"></path><rect height="22" rx="10" ry="10" width="54.0" x="292.0" y="328"></rect><text x="319.0" y="343">"po"</text></g><path d="M 272.0 219 a 10 10 0 0 1 10 10 v 130 a 10 10 0 0 0 10 10"></path><g class="terminal ">
<path d="M 292.0 369 h 0.0"></path><path d="M 346.0 369 h 0.0"></path><rect height="22" rx="10" ry="10" width="54.0" x="292.0" y="358"></rect><text x="319.0" y="373">"pr"</text></g><path d="M 272.0 219 a 10 10 0 0 1 10 10 v 160 a 10 10 0 0 0 10 10"></path><g class="terminal ">
<path d="M 292.0 399 h 0.0"></path><path d="M 354.5 399 h 0.0"></path><rect height="22" rx="10" ry="10" width="62.5" x="292.0" y="388"></rect><text x="323.25" y="403">"pmo"</text></g><path d="M 272.0 219 a 10 10 0 0 1 10 10 v 190 a 10 10 0 0 0 10 10"></path><g class="terminal ">
<path d="M 292.0 429 h 0.0"></path><path d="M 354.5 429 h 0.0"></path><rect height="22" rx="10" ry="10" width="62.5" x="292.0" y="418"></rect><text x="323.25" y="433">"pmc"</text></g><path d="M 272.0 219 a 10 10 0 0 1 10 10 v 220 a 10 10 0 0 0 10 10"></path><g class="terminal ">
<path d="M 292.0 459 h 0.0"></path><path d="M 354.5 459 h 0.0"></path><rect height="22" rx="10" ry="10" width="62.5" x="292.0" y="448"></rect><text x="323.25" y="463">"pmr"</text></g><path d="M 272.0 219 a 10 10 0 0 1 10 10 v 250 a 10 10 0 0 0 10 10"></path><g class="terminal ">
<path d="M 292.0 489 h 0.0"></path><path d="M 346.0 489 h 0.0"></path><rect height="22" rx="10" ry="10" width="54.0" x="292.0" y="478"></rect><text x="319.0" y="493">"pm"</text></g><path d="M 272.0 219 a 10 10 0 0 1 10 10 v 280 a 10 10 0 0 0 10 10"></path><g class="terminal ">
<path d="M 292.0 519 h 0.0"></path><path d="M 354.5 519 h 0.0"></path><rect height="22" rx="10" ry="10" width="62.5" x="292.0" y="508"></rect><text x="323.25" y="523">"ph1"</text></g><path d="M 272.0 219 a 10 10 0 0 1 10 10 v 310 a 10 10 0 0 0 10 10"></path><g class="terminal ">
<path d="M 292.0 549 h 0.0"></path><path d="M 354.5 549 h 0.0"></path><rect height="22" rx="10" ry="10" width="62.5" x="292.0" y="538"></rect><text x="323.25" y="553">"ph2"</text></g></g><path d="M 374.5 100 a 10 10 0 0 1 10 10 v 99 a 10 10 0 0 0 10 10"></path><g>
<path d="M 394.5 219 h 0.0"></path><path d="M 394.5 219 a 10 10 0 0 0 10 -10 v -10 a 10 10 0 0 1 10 -10"></path><g class="terminal ">
<path d="M 414.5 189 h 0.0"></path><path d="M 460.0 189 h 0.0"></path><rect height="22" rx="10" ry="10" width="45.5" x="414.5" y="178"></rect><text x="437.25" y="193">"p"</text></g><path d="M 394.5 219 a 10 10 0 0 0 10 -10 v -40 a 10 10 0 0 1 10 -10"></path><g class="terminal ">
<path d="M 414.5 159 h 0.0"></path><path d="M 468.5 159 h 0.0"></path><rect height="22" rx="10" ry="10" width="54.0" x="414.5" y="148"></rect><text x="441.5" y="163">"ph"</text></g><path d="M 394.5 219 a 10 10 0 0 0 10 -10 v -70 a 10 10 0 0 1 10 -10"></path><g class="terminal ">
<path d="M 414.5 129 h 0.0"></path><path d="M 477.0 129 h 0.0"></path><rect height="22" rx="10" ry="10" width="62.5" x="414.5" y="118"></rect><text x="445.75" y="133">"ph3"</text></g><path d="M 394.5 219 h 20"></path><g class="terminal ">
<path d="M 414.5 219 h 0.0"></path><path d="M 468.5 219 h 0.0"></path><rect height="22" rx="10" ry="10" width="54.0" x="414.5" y="208"></rect><text x="441.5" y="223">"q1"</text></g><path d="M 394.5 219 a 10 10 0 0 1 10 10 v 10 a 10 10 0 0 0 10 10"></path><g class="terminal ">
<path d="M 414.5 249 h 0.0"></path><path d="M 468.5 249 h 0.0"></path><rect height="22" rx="10" ry="10" width="54.0" x="414.5" y="238"></rect><text x="441.5" y="253">"q2"</text></g><path d="M 394.5 219 a 10 10 0 0 1 10 10 v 40 a 10 10 0 0 0 10 10"></path><g class="terminal ">
<path d="M 414.5 279 h 0.0"></path><path d="M 468.5 279 h 0.0"></path><rect height="22" rx="10" ry="10" width="54.0" x="414.5" y="268"></rect><text x="441.5" y="283">"q3"</text></g><path d="M 394.5 219 a 10 10 0 0 1 10 10 v 70 a 10 10 0 0 0 10 10"></path><g class="terminal ">
<path d="M 414.5 309 h 0.0"></path><path d="M 468.5 309 h 0.0"></path><rect height="22" rx="10" ry="10" width="54.0" x="414.5" y="298"></rect><text x="441.5" y="313">"q4"</text></g><path d="M 394.5 219 a 10 10 0 0 1 10 10 v 100 a 10 10 0 0 0 10 10"></path><g class="terminal ">
<path d="M 414.5 339 h 0.0"></path><path d="M 468.5 339 h 0.0"></path><rect height="22" rx="10" ry="10" width="54.0" x="414.5" y="328"></rect><text x="441.5" y="343">"qc"</text></g><path d="M 394.5 219 a 10 10 0 0 1 10 10 v 130 a 10 10 0 0 0 10 10"></path><g class="terminal ">
<path d="M 414.5 369 h 0.0"></path><path d="M 468.5 369 h 0.0"></path><rect height="22" rx="10" ry="10" width="54.0" x="414.5" y="358"></rect><text x="441.5" y="373">"qr"</text></g><path d="M 394.5 219 a 10 10 0 0 1 10 10 v 160 a 10 10 0 0 0 10 10"></path><g class="terminal ">
<path d="M 414.5 399 h 0.0"></path><path d="M 477.0 399 h 0.0"></path><rect height="22" rx="10" ry="10" width="62.5" x="414.5" y="388"></rect><text x="445.75" y="403">"qm1"</text></g><path d="M 394.5 219 a 10 10 0 0 1 10 10 v 190 a 10 10 0 0 0 10 10"></path><g class="terminal ">
<path d="M 414.5 429 h 0.0"></path><path d="M 477.0 429 h 0.0"></path><rect height="22" rx="10" ry="10" width="62.5" x="414.5" y="418"></rect><text x="445.75" y="433">"qm2"</text></g><path d="M 394.5 219 a 10 10 0 0 1 10 10 v 220 a 10 10 0 0 0 10 10"></path><g class="terminal ">
<path d="M 414.5 459 h 0.0"></path><path d="M 477.0 459 h 0.0"></path><rect height="22" rx="10" ry="10" width="62.5" x="414.5" y="448"></rect><text x="445.75" y="463">"qm3"</text></g><path d="M 394.5 219 a 10 10 0 0 1 10 10 v 250 a 10 10 0 0 0 10 10"></path><g class="terminal ">
<path d="M 414.5 489 h 0.0"></path><path d="M 468.5 489 h 0.0"></path><rect height="22" rx="10" ry="10" width="54.0" x="414.5" y="478"></rect><text x="441.5" y="493">"qm"</text></g><path d="M 394.5 219 a 10 10 0 0 1 10 10 v 280 a 10 10 0 0 0 10 10"></path><g class="terminal ">
<path d="M 414.5 519 h 0.0"></path><path d="M 468.5 519 h 0.0"></path><rect height="22" rx="10" ry="10" width="54.0" x="414.5" y="508"></rect><text x="441.5" y="523">"qd"</text></g><path d="M 394.5 219 a 10 10 0 0 1 10 10 v 310 a 10 10 0 0 0 10 10"></path><g class="terminal ">
<path d="M 414.5 549 h 0.0"></path><path d="M 460.0 549 h 0.0"></path><rect height="22" rx="10" ry="10" width="45.5" x="414.5" y="538"></rect><text x="437.25" y="553">"q"</text></g></g><path d="M 497.0 100 a 10 10 0 0 1 10 10 v 99 a 10 10 0 0 0 10 10"></path><g>
<path d="M 517.0 219 h 0.0"></path><path d="M 517.0 219 a 10 10 0 0 0 10 -10 v -10 a 10 10 0 0 1 10 -10"></path><g class="terminal ">
<path d="M 537.0 189 h 0.0"></path><path d="M 599.5 189 h 0.0"></path><rect height="22" rx="10" ry="10" width="62.5" x="537.0" y="178"></rect><text x="568.25" y="193">"mi1"</text></g><path d="M 517.0 219 a 10 10 0 0 0 10 -10 v -40 a 10 10 0 0 1 10 -10"></path><g class="terminal ">
<path d="M 537.0 159 h 0.0"></path><path d="M 582.5 159 h 0.0"></path><rect height="22" rx="10" ry="10" width="45.5" x="537.0" y="148"></rect><text x="559.75" y="163">"d"</text></g><path d="M 517.0 219 a 10 10 0 0 0 10 -10 v -70 a 10 10 0 0 1 10 -10"></path><g class="terminal ">
<path d="M 537.0 129 h 0.0"></path><path d="M 582.5 129 h 0.0"></path><rect height="22" rx="10" ry="10" width="45.5" x="537.0" y="118"></rect><text x="559.75" y="133">"b"</text></g><path d="M 517.0 219 h 20"></path><g class="terminal ">
<path d="M 537.0 219 h 0.0"></path><path d="M 599.5 219 h 0.0"></path><rect height="22" rx="10" ry="10" width="62.5" x="537.0" y="208"></rect><text x="568.25" y="223">"mi2"</text></g><path d="M 517.0 219 a 10 10 0 0 1 10 10 v 10 a 10 10 0 0 0 10 10"></path><g class="terminal ">
<path d="M 537.0 249 h 0.0"></path><path d="M 599.5 249 h 0.0"></path><rect height="22" rx="10" ry="10" width="62.5" x="537.0" y="238"></rect><text x="568.25" y="253">"mi3"</text></g><path d="M 517.0 219 a 10 10 0 0 1 10 10 v 40 a 10 10 0 0 0 10 10"></path><g class="terminal ">
<path d="M 537.0 279 h 0.0"></path><path d="M 599.5 279 h 0.0"></path><rect height="22" rx="10" ry="10" width="62.5" x="537.0" y="268"></rect><text x="568.25" y="283">"mi4"</text></g><path d="M 517.0 219 a 10 10 0 0 1 10 10 v 70 a 10 10 0 0 0 10 10"></path><g class="terminal ">
<path d="M 537.0 309 h 0.0"></path><path d="M 591.0 309 h 0.0"></path><rect height="22" rx="10" ry="10" width="54.0" x="537.0" y="298"></rect><text x="564.0" y="313">"mi"</text></g><path d="M 517.0 219 a 10 10 0 0 1 10 10 v 100 a 10 10 0 0 0 10 10"></path><g class="terminal ">
<path d="M 537.0 339 h 0.0"></path><path d="M 582.5 339 h 0.0"></path><rect height="22" rx="10" ry="10" width="45.5" x="537.0" y="328"></rect><text x="559.75" y="343">"m"</text></g></g></g></g><path d="M 161.0 625 a 10 10 0 0 0 10 -10 v -524 a 10 10 0 0 1 10 -10"></path><g>
<path d="M 181.0 81 h 0.0"></path><path d="M 309.0 81 h 0.0"></path><g class="terminal ">
<path d="M 181.0 81 h 0.0"></path><path d="M 235.0 81 h 0.0"></path><rect height="22" rx="10" ry="10" width="54.0" x="181.0" y="70"></rect><text x="208.0" y="85">@vid</text></g><path d="M 235.0 81 h 10"></path><path d="M 245.0 81 h 10"></path><g class="terminal ">
<path d="M 255.0 81 h 0.0"></path><path d="M 309.0 81 h 0.0"></path><rect height="22" rx="10" ry="10" width="54.0" x="255.0" y="70"></rect><text x="282.0" y="85">TEXT</text></g></g><path d="M 161.0 625 a 10 10 0 0 0 10 -10 v -554 a 10 10 0 0 1 10 -10"></path><g>
<path d="M 181.0 51 h 0.0"></path><path d="M 309.0 51 h 0.0"></path><g class="terminal ">
<path d="M 181.0 51 h 0.0"></path><path d="M 235.0 51 h 0.0"></path><rect height="22" rx="10" ry="10" width="54.0" x="181.0" y="40"></rect><text x="208.0" y="55">@aid</text></g><path d="M 235.0 51 h 10"></path><path d="M 245.0 51 h 10"></path><g class="terminal ">
<path d="M 255.0 51 h 0.0"></path><path d="M 309.0 51 h 0.0"></path><rect height="22" rx="10" ry="10" width="54.0" x="255.0" y="40"></rect><text x="282.0" y="55">TEXT</text></g></g><path d="M 161.0 625 h 20"></path><g>
<path d="M 181.0 625 h 90.5"></path><path d="M 599.0 625 h 90.5"></path><path d="M 271.5 625 a 10 10 0 0 0 10 -10 v -9 a 10 10 0 0 1 10 -10"></path><g>
<path d="M 291.5 596 h 287.5"></path></g><path d="M 579.0 596 a 10 10 0 0 1 10 10 v 9 a 10 10 0 0 0 10 10"></path><path d="M 271.5 625 h 20"></path><g>
<path d="M 291.5 625 h 0.0"></path><path d="M 579.0 625 h 0.0"></path><path d="M 291.5 625 h 10"></path><g>
<path d="M 301.5 625 h 0.0"></path><path d="M 569.0 625 h 0.0"></path><path d="M 301.5 625 h 20"></path><g class="terminal ">
<path d="M 321.5 625 h 86.75"></path><path d="M 462.25 625 h 86.75"></path><rect height="22" rx="10" ry="10" width="54.0" x="408.25" y="614"></rect><text x="435.25" y="629">TEXT</text></g><path d="M 549.0 625 h 20"></path><path d="M 301.5 625 a 10 10 0 0 1 10 10 v 10 a 10 10 0 0 0 10 10"></path><g class="non-terminal ">
<path d="M 321.5 655 h 65.5"></path><path d="M 483.5 655 h 65.5"></path><rect height="22" width="96.5" x="387.0" y="644"></rect><text x="435.25" y="659">CharEmbed</text></g><path d="M 549.0 655 a 10 10 0 0 0 10 -10 v -10 a 10 10 0 0 1 10 -10"></path><path d="M 301.5 625 a 10 10 0 0 1 10 10 v 40 a 10 10 0 0 0 10 10"></path><g class="non-terminal ">
<path d="M 321.5 685 h 78.25"></path><path d="M 470.75 685 h 78.25"></path><rect height="22" width="71.0" x="399.75" y="674"></rect><text x="435.25" y="689">Figure</text></g><path d="M 549.0 685 a 10 10 0 0 0 10 -10 v -40 a 10 10 0 0 1 10 -10"></path><path d="M 301.5 625 a 10 10 0 0 1 10 10 v 70 a 10 10 0 0 0 10 10"></path><g class="non-terminal ">
<path d="M 321.5 715 h 65.5"></path><path d="M 483.5 715 h 65.5"></path><rect height="22" width="96.5" x="387.0" y="704"></rect><text x="435.25" y="719">Milestone</text></g><path d="M 549.0 715 a 10 10 0 0 0 10 -10 v -70 a 10 10 0 0 1 10 -10"></path><path d="M 301.5 625 a 10 10 0 0 1 10 10 v 100 a 10 10 0 0 0 10 10"></path><g class="non-terminal ">
<path d="M 321.5 745 h 82.5"></path><path d="M 466.5 745 h 82.5"></path><rect height="22" width="62.5" x="404.0" y="734"></rect><text x="435.25" y="749">Verse</text></g><path d="M 549.0 745 a 10 10 0 0 0 10 -10 v -100 a 10 10 0 0 1 10 -10"></path><path d="M 301.5 625 a 10 10 0 0 1 10 10 v 130 a 10 10 0 0 0 10 10"></path><g class="non-terminal ">
<path d="M 321.5 775 h 65.5"></path><path d="M 483.5 775 h 65.5"></path><rect height="22" width="96.5" x="387.0" y="764"></rect><text x="435.25" y="779">Reference</text></g><path d="M 549.0 775 a 10 10 0 0 0 10 -10 v -130 a 10 10 0 0 1 10 -10"></path><path d="M 301.5 625 a 10 10 0 0 1 10 10 v 160 a 10 10 0 0 0 10 10"></path><g class="non-terminal ">
<path d="M 321.5 805 h 69.75"></path><path d="M 479.25 805 h 69.75"></path><rect height="22" width="88.0" x="391.25" y="794"></rect><text x="435.25" y="809">Footnote</text></g><path d="M 549.0 805 a 10 10 0 0 0 10 -10 v -160 a 10 10 0 0 1 10 -10"></path><path d="M 301.5 625 a 10 10 0 0 1 10 10 v 190 a 10 10 0 0 0 10 10"></path><g class="non-terminal ">
<path d="M 321.5 835 h 44.25"></path><path d="M 504.75 835 h 44.25"></path><rect height="22" width="139.0" x="365.75" y="824"></rect><text x="435.25" y="839">CrossReference</text></g><path d="M 549.0 835 a 10 10 0 0 0 10 -10 v -190 a 10 10 0 0 1 10 -10"></path><path d="M 301.5 625 a 10 10 0 0 1 10 10 v 230 a 10 10 0 0 0 10 10"></path><g>
<path d="M 321.5 875 h 0.0"></path><path d="M 549.0 875 h 0.0"></path><g class="terminal ">
<path d="M 321.5 875 h 0.0"></path><path d="M 426.5 875 h 0.0"></path><rect height="22" rx="10" ry="10" width="105.0" x="321.5" y="864"></rect><text x="374.0" y="879">&#60;optbreak></text></g><path d="M 426.5 875 h 10"></path><path d="M 436.5 875 h 10"></path><g>
<path d="M 446.5 875 h 0.0"></path><path d="M 549.0 875 h 0.0"></path><path d="M 446.5 875 h 20"></path><g class="terminal ">
<path d="M 466.5 875 h 0.0"></path><path d="M 529.0 875 h 0.0"></path><rect height="22" rx="10" ry="10" width="62.5" x="466.5" y="864"></rect><text x="497.75" y="879">EMPTY</text></g><path d="M 529.0 875 h 20"></path></g></g><path d="M 549.0 875 a 10 10 0 0 0 10 -10 v -230 a 10 10 0 0 1 10 -10"></path></g><path d="M 569.0 625 h 10"></path><path d="M 301.5 625 a 10 10 0 0 0 -10 10 v 269 a 10 10 0 0 0 10 10"></path><g>
<path d="M 301.5 914 h 267.5"></path></g><path d="M 569.0 914 a 10 10 0 0 0 10 -10 v -269 a 10 10 0 0 0 -10 -10"></path></g><path d="M 579.0 625 h 20"></path></g><path d="M 689.5 625 h 20"></path></g></g><path d="M 709.5 625 h 20"></path><path d="M 50.0 625 a 10 10 0 0 1 10 10 v 308 a 10 10 0 0 0 10 10"></path><g class="non-terminal ">
<path d="M 70.0 953 h 284.25"></path><path d="M 425.25 953 h 284.25"></path><rect height="22" width="71.0" x="354.25" y="942"></rect><text x="389.75" y="957">Remark</text></g><path d="M 709.5 953 a 10 10 0 0 0 10 -10 v -308 a 10 10 0 0 1 10 -10"></path><path d="M 50.0 625 a 10 10 0 0 1 10 10 v 338 a 10 10 0 0 0 10 10"></path><g class="non-terminal ">
<path d="M 70.0 983 h 271.5"></path><path d="M 438.0 983 h 271.5"></path><rect height="22" width="96.5" x="341.5" y="972"></rect><text x="389.75" y="987">OtherPara</text></g><path d="M 709.5 983 a 10 10 0 0 0 10 -10 v -338 a 10 10 0 0 1 10 -10"></path></g></g><path d="M 729.5 625 h 10"></path><path d="M 739.5 625 h 20 m 0 -10 v 20"></path></g></svg>