<svg class="railroad-diagram" height="1069" viewBox="0 0 792.5 1069" width="792.5" xmlns="http://www.w3.org/2000/svg" xmlns:xlink="http://www.w3.org/1999/xlink">
<g transform="translate(.5 .5)">
<style>/* <![CDATA[ */

    svg.railroad-diagram {
        background-color:hsl(30,20%,95%);
    }
    svg.railroad-diagram path {
        stroke-width: 2;
        stroke: black;
        fill: none;
    }
    svg.railroad-diagram text {
        font-size: 12px;
        text-anchor: middle;
        font-family: DejaVu Sans;
    }
    svg.railroad-diagram text.label {
        text-anchor:start;
    }
    svg.railroad-diagram text.comment {
        font-family: DejaVu Sans;
        font-size: 14px;
    }
    svg.railroad-diagram rect{
        stroke-width: 2;
        stroke:black;
        fill: rgb(210, 210, 255);
    }
    svg.railroad-diagram rect.group-box {
        stroke: gray;
        stroke-dasharray: 10 5;
        fill: none;
    }
    .terminal {
        font-family: DejaVu Sans;
    }

/* ]]> */
</style><g>
<path d="M 20 558 v 20 m 0 -10 h 20"></path></g><path d="M 40 568 h 10"></path><g>
<path d="M 50 568 h 0.0"></path><path d="M 742.5 568 h 0.0"></path><g>
<path d="M 50.0 568 h 0.0"></path><path d="M 742.5 568 h 0.0"></path><g class="terminal ">
<path d="M 50.0 568 h 0.0"></path><path d="M 138.0 568 h 0.0"></path><rect height="22" rx="10" ry="10" width="88.0" x="50.0" y="557"></rect><text x="94.0" y="572">&#60;periph></text></g><path d="M 138.0 568 h 10"></path><path d="M 148.0 568 h 10"></path><g>
<path d="M 158.0 568 h 0.0"></path><path d="M 742.5 568 h 0.0"></path><path d="M 158.0 568 a 10 10 0 0 0 10 -10 v -29 a 10 10 0 0 1 10 -10"></path><g>
<path d="M 178.0 519 h 0.0"></path><path d="M 306.0 519 h 0.0"></path><g class="terminal ">
<path d="M 178.0 519 h 0.0"></path><path d="M 232.0 519 h 0.0"></path><rect height="22" rx="10" ry="10" width="54.0" x="178.0" y="508"></rect><text x="205.0" y="523">@alt</text></g><path d="M 232.0 519 h 10"></path><path d="M 242.0 519 h 10"></path><g class="terminal ">
<path d="M 252.0 519 h 0.0"></path><path d="M 306.0 519 h 0.0"></path><rect height="22" rx="10" ry="10" width="54.0" x="252.0" y="508"></rect><text x="279.0" y="523">TEXT</text></g></g><path d="M 158.0 568 a 10 10 0 0 0 10 -10 v -399 a 10 10 0 0 1 10 -10"></path><g>
<path d="M 178.0 149 h 0.0"></path><path d="M 722.5 149 h 0.0"></path><g class="terminal ">
<path d="M 178.0 149 h 0.0"></path><path d="M 223.5 149 h 0.0"></path><rect height="22" rx="10" ry="10" width="45.5" x="178.0" y="138"></rect><text x="200.75" y="153">@id</text></g><path d="M 223.5 149 h 10"></path><g>
<path d="M 233.5 149 h 0.0"></path><path d="M 722.5 149 h 0.0"></path><path d="M 233.5 149 a 10 10 0 0 0 10 -10 v -99 a 10 10 0 0 1 10 -10 h 177.5"></path><path d="M 233.5 149 h 10"></path><g>
<path d="M 243.5 149 h 0.0"></path><path d="M 243.5 149 a 10 10 0 0 0 10 -10 v -10 a 10 10 0 0 1 10 -10"></path><g class="terminal ">
<path d="M 263.5 119 h 0.0"></path><path d="M 343.0 119 h 0.0"></path><rect height="22" rx="10" ry="10" width="79.5" x="263.5" y="108"></rect><text x="303.25" y="123">"promo"</text></g><path d="M 243.5 149 a 10 10 0 0 0 10 -10 v -40 a 10 10 0 0 1 10 -10"></path><g class="terminal ">
<path d="M 263.5 89 h 0.0"></path><path d="M 377.0 89 h 0.0"></path><rect height="22" rx="10" ry="10" width="113.5" x="263.5" y="78"></rect><text x="320.25" y="93">"halftitle"</text></g><path d="M 243.5 149 a 10 10 0 0 0 10 -10 v -70 a 10 10 0 0 1 10 -10"></path><g class="terminal ">
<path d="M 263.5 59 h 0.0"></path><path d="M 343.0 59 h 0.0"></path><rect height="22" rx="10" ry="10" width="79.5" x="263.5" y="48"></rect><text x="303.25" y="63">"title"</text></g><path d="M 243.5 149 h 20"></path><g class="terminal ">
<path d="M 263.5 149 h 0.0"></path><path d="M 385.5 149 h 0.0"></path><rect height="22" rx="10" ry="10" width="122.0" x="263.5" y="138"></rect><text x="324.5" y="153">"imprimatur"</text></g><path d="M 243.5 149 a 10 10 0 0 1 10 10 v 10 a 10 10 0 0 0 10 10"></path><g class="terminal ">
<path d="M 263.5 179 h 0.0"></path><path d="M 360.0 179 h 0.0"></path><rect height="22" rx="10" ry="10" width="96.5" x="263.5" y="168"></rect><text x="311.75" y="183">"pubdata"</text></g><path d="M 243.5 149 a 10 10 0 0 1 10 10 v 40 a 10 10 0 0 0 10 10"></path><g class="terminal ">
<path d="M 263.5 209 h 0.0"></path><path d="M 368.5 209 h 0.0"></path><rect height="22" rx="10" ry="10" width="105.0" x="263.5" y="198"></rect><text x="316.0" y="213">"foreword"</text></g><path d="M 243.5 149 a 10 10 0 0 1 10 10 v 70 a 10 10 0 0 0 10 10"></path><g class="terminal ">
<path d="M 263.5 239 h 0.0"></path><path d="M 360.0 239 h 0.0"></path><rect height="22" rx="10" ry="10" width="96.5" x="263.5" y="228"></rect><text x="311.75" y="243">"preface"</text></g><path d="M 243.5 149 a 10 10 0 0 1 10 10 v 100 a 10 10 0 0 0 10 10"></path><g class="terminal ">
<path d="M 263.5 269 h 0.0"></path><path d="M 368.5 269 h 0.0"></path><rect height="22" rx="10" ry="10" width="105.0" x="263.5" y="258"></rect><text x="316.0" y="273">"contents"</text></g><path d="M 243.5 149 a 10 10 0 0 1 10 10 v 130 a 10 10 0 0 0 10 10"></path><g class="terminal ">
<path d="M 263.5 299 h 0.0"></path><path d="M 411.0 299 h 0.0"></path><rect height="22" rx="10" ry="10" width="147.5" x="263.5" y="288"></rect><text x="337.25" y="303">"alphacontents"</text></g><path d="M 243.5 149 a 10 10 0 0 1 10 10 v 160 a 10 10 0 0 0 10 10"></path><g class="terminal ">
<path d="M 263.5 329 h 0.0"></path><path d="M 411.0 329 h 0.0"></path><rect height="22" rx="10" ry="10" width="147.5" x="263.5" y="318"></rect><text x="337.25" y="333">"abbreviations"</text></g><path d="M 243.5 149 a 10 10 0 0 1 10 10 v 190 a 10 10 0 0 0 10 10"></path><g class="terminal ">
<path d="M 263.5 359 h 0.0"></path><path d="M 368.5 359 h 0.0"></path><rect height="22" rx="10" ry="10" width="105.0" x="263.5" y="348"></rect><text x="316.0" y="363">"intbible"</text></g><path d="M 243.5 149 a 10 10 0 0 1 10 10 v 220 a 10 10 0 0 0 10 10"></path><g class="terminal ">
<path d="M 263.5 389 h 0.0"></path><path d="M 343.0 389 h 0.0"></path><rect height="22" rx="10" ry="10" width="79.5" x="263.5" y="378"></rect><text x="303.25" y="393">"intot"</text></g><path d="M 243.5 149 a 10 10 0 0 1 10 10 v 250 a 10 10 0 0 0 10 10"></path><g class="terminal ">
<path d="M 263.5 419 h 0.0"></path><path d="M 360.0 419 h 0.0"></path><rect height="22" rx="10" ry="10" width="96.5" x="263.5" y="408"></rect><text x="311.75" y="423">"intpent"</text></g><path d="M 243.5 149 a 10 10 0 0 1 10 10 v 280 a 10 10 0 0 0 10 10"></path><g class="terminal ">
<path d="M 263.5 449 h 0.0"></path><path d="M 385.5 449 h 0.0"></path><rect height="22" rx="10" ry="10" width="122.0" x="263.5" y="438"></rect><text x="324.5" y="453">"inthistory"</text></g><path d="M 243.5 149 a 10 10 0 0 1 10 10 v 310 a 10 10 0 0 0 10 10"></path><g class="terminal ">
<path d="M 263.5 479 h 0.0"></path><path d="M 377.0 479 h 0.0"></path><rect height="22" rx="10" ry="10" width="113.5" x="263.5" y="468"></rect><text x="320.25" y="483">"intpoetry"</text></g></g><path d="M 431.0 30 a 10 10 0 0 1 10 10 v 99 a 10 10 0 0 0 10 10"></path><g>
<path d="M 451.0 149 h 0.0"></path><path d="M 451.0 149 a 10 10 0 0 0 10 -10 v -10 a 10 10 0 0 1 10 -10"></path><g class="terminal ">
<path d="M 471.0 119 h 0.0"></path><path d="M 550.5 119 h 0.0"></path><rect height="22" rx="10" ry="10" width="79.5" x="471.0" y="108"></rect><text x="510.75" y="123">"intnt"</text></g><path d="M 451.0 149 a 10 10 0 0 0 10 -10 v -40 a 10 10 0 0 1 10 -10"></path><g class="terminal ">
<path d="M 471.0 89 h 0.0"></path><path d="M 550.5 89 h 0.0"></path><rect height="22" rx="10" ry="10" width="79.5" x="471.0" y="78"></rect><text x="510.75" y="93">"intdc"</text></g><path d="M 451.0 149 a 10 10 0 0 0 10 -10 v -70 a 10 10 0 0 1 10 -10"></path><g class="terminal ">
<path d="M 471.0 59 h 0.0"></path><path d="M 601.5 59 h 0.0"></path><rect height="22" rx="10" ry="10" width="130.5" x="471.0" y="48"></rect><text x="536.25" y="63">"intprophesy"</text></g><path d="M 451.0 149 h 20"></path><g class="terminal ">
<path d="M 471.0 149 h 0.0"></path><path d="M 593.0 149 h 0.0"></path><rect height="22" rx="10" ry="10" width="122.0" x="471.0" y="138"></rect><text x="532.0" y="153">"intgospels"</text></g><path d="M 451.0 149 a 10 10 0 0 1 10 10 v 10 a 10 10 0 0 0 10 10"></path><g class="terminal ">
<path d="M 471.0 179 h 0.0"></path><path d="M 601.5 179 h 0.0"></path><rect height="22" rx="10" ry="10" width="130.5" x="471.0" y="168"></rect><text x="536.25" y="183">"intepistles"</text></g><path d="M 451.0 149 a 10 10 0 0 1 10 10 v 40 a 10 10 0 0 0 10 10"></path><g class="terminal ">
<path d="M 471.0 209 h 0.0"></path><path d="M 593.0 209 h 0.0"></path><rect height="22" rx="10" ry="10" width="122.0" x="471.0" y="198"></rect><text x="532.0" y="213">"intletters"</text></g><path d="M 451.0 149 a 10 10 0 0 1 10 10 v 70 a 10 10 0 0 0 10 10"></path><g class="terminal ">
<path d="M 471.0 239 h 0.0"></path><path d="M 550.5 239 h 0.0"></path><rect height="22" rx="10" ry="10" width="79.5" x="471.0" y="228"></rect><text x="510.75" y="243">"chron"</text></g><path d="M 451.0 149 a 10 10 0 0 1 10 10 v 100 a 10 10 0 0 0 10 10"></path><g class="terminal ">
<path d="M 471.0 269 h 0.0"></path><path d="M 576.0 269 h 0.0"></path><rect height="22" rx="10" ry="10" width="105.0" x="471.0" y="258"></rect><text x="523.5" y="273">"measures"</text></g><path d="M 451.0 149 a 10 10 0 0 1 10 10 v 130 a 10 10 0 0 0 10 10"></path><g class="terminal ">
<path d="M 471.0 299 h 0.0"></path><path d="M 542.0 299 h 0.0"></path><rect height="22" rx="10" ry="10" width="71.0" x="471.0" y="288"></rect><text x="506.5" y="303">"maps"</text></g><path d="M 451.0 149 a 10 10 0 0 1 10 10 v 160 a 10 10 0 0 0 10 10"></path><g class="terminal ">
<path d="M 471.0 329 h 0.0"></path><path d="M 584.5 329 h 0.0"></path><rect height="22" rx="10" ry="10" width="113.5" x="471.0" y="318"></rect><text x="527.75" y="333">"lxxquotes"</text></g><path d="M 451.0 149 a 10 10 0 0 1 10 10 v 190 a 10 10 0 0 0 10 10"></path><g class="terminal ">
<path d="M 471.0 359 h 0.0"></path><path d="M 550.5 359 h 0.0"></path><rect height="22" rx="10" ry="10" width="79.5" x="471.0" y="348"></rect><text x="510.75" y="363">"cover"</text></g><path d="M 451.0 149 a 10 10 0 0 1 10 10 v 220 a 10 10 0 0 0 10 10"></path><g class="terminal ">
<path d="M 471.0 389 h 0.0"></path><path d="M 550.5 389 h 0.0"></path><rect height="22" rx="10" ry="10" width="79.5" x="471.0" y="378"></rect><text x="510.75" y="393">"spine"</text></g><path d="M 451.0 149 a 10 10 0 0 1 10 10 v 250 a 10 10 0 0 0 10 10"></path><g class="terminal ">
<path d="M 471.0 419 h 0.0"></path><path d="M 652.5 419 h 0.0"></path><rect height="22" rx="10" ry="10" width="181.5" x="471.0" y="408"></rect><text x="561.75" y="423">/x\-&#91;\p{L}&#95;\-\.:&#93;+/</text></g></g></g></g><path d="M 158.0 568 h 20"></path><g>
<path d="M 178.0 568 h 185.5"></path><path d="M 537.0 568 h 185.5"></path><path d="M 363.5 568 a 10 10 0 0 0 10 -10 v 0 a 10 10 0 0 1 10 -10"></path><g>
<path d="M 383.5 548 h 133.5"></path></g><path d="M 517.0 548 a 10 10 0 0 1 10 10 v 0 a 10 10 0 0 0 10 10"></path><path d="M 363.5 568 h 20"></path><g>
<path d="M 383.5 568 h 0.0"></path><path d="M 517.0 568 h 0.0"></path><path d="M 383.5 568 h 10"></path><g class="non-terminal ">
<path d="M 393.5 568 h 0.0"></path><path d="M 507.0 568 h 0.0"></path><rect height="22" width="113.5" x="393.5" y="557"></rect><text x="450.25" y="572">BookHeaders</text></g><path d="M 507.0 568 h 10"></path><path d="M 393.5 568 a 10 10 0 0 0 -10 10 v 0 a 10 10 0 0 0 10 10"></path><g>
<path d="M 393.5 588 h 113.5"></path></g><path d="M 507.0 588 a 10 10 0 0 0 10 -10 v 0 a 10 10 0 0 0 -10 -10"></path></g><path d="M 517.0 568 h 20"></path></g><path d="M 722.5 568 h 20"></path><path d="M 158.0 568 a 10 10 0 0 1 10 10 v 29 a 10 10 0 0 0 10 10"></path><g>
<path d="M 178.0 617 h 209.75"></path><path d="M 512.75 617 h 209.75"></path><path d="M 387.75 617 h 10"></path><g class="non-terminal ">
<path d="M 397.75 617 h 0.0"></path><path d="M 502.75 617 h 0.0"></path><rect height="22" width="105.0" x="397.75" y="606"></rect><text x="450.25" y="621">BookTitles</text></g><path d="M 502.75 617 h 10"></path><path d="M 397.75 617 a 10 10 0 0 0 -10 10 v 0 a 10 10 0 0 0 10 10"></path><g>
<path d="M 397.75 637 h 105.0"></path></g><path d="M 502.75 637 a 10 10 0 0 0 10 -10 v 0 a 10 10 0 0 0 -10 -10"></path></g><path d="M 722.5 617 a 10 10 0 0 0 10 -10 v -29 a 10 10 0 0 1 10 -10"></path><path d="M 158.0 568 a 10 10 0 0 1 10 10 v 87 a 10 10 0 0 0 10 10"></path><g>
<path d="M 178.0 675 h 164.25"></path><path d="M 558.25 675 h 164.25"></path><path d="M 342.25 675 a 10 10 0 0 0 10 -10 v 0 a 10 10 0 0 1 10 -10"></path><g>
<path d="M 362.25 655 h 176.0"></path></g><path d="M 538.25 655 a 10 10 0 0 1 10 10 v 0 a 10 10 0 0 0 10 10"></path><path d="M 342.25 675 h 20"></path><g>
<path d="M 362.25 675 h 0.0"></path><path d="M 538.25 675 h 0.0"></path><path d="M 362.25 675 h 10"></path><g class="non-terminal ">
<path d="M 372.25 675 h 0.0"></path><path d="M 528.25 675 h 0.0"></path><rect height="22" width="156.0" x="372.25" y="664"></rect><text x="450.25" y="679">BookIntroduction</text></g><path d="M 528.25 675 h 10"></path><path d="M 372.25 675 a 10 10 0 0 0 -10 10 v 0 a 10 10 0 0 0 10 10"></path><g>
<path d="M 372.25 695 h 156.0"></path></g><path d="M 528.25 695 a 10 10 0 0 0 10 -10 v 0 a 10 10 0 0 0 -10 -10"></path></g><path d="M 538.25 675 h 20"></path></g><path d="M 722.5 675 a 10 10 0 0 0 10 -10 v -87 a 10 10 0 0 1 10 -10"></path><path d="M 158.0 568 a 10 10 0 0 1 10 10 v 155 a 10 10 0 0 0 10 10"></path><g>
<path d="M 178.0 743 h 126.0"></path><path d="M 596.5 743 h 126.0"></path><path d="M 304.0 743 a 10 10 0 0 0 10 -10 v 0 a 10 10 0 0 1 10 -10"></path><g>
<path d="M 324.0 723 h 252.5"></path></g><path d="M 576.5 723 a 10 10 0 0 1 10 10 v 0 a 10 10 0 0 0 10 10"></path><path d="M 304.0 743 h 20"></path><g>
<path d="M 324.0 743 h 0.0"></path><path d="M 576.5 743 h 0.0"></path><path d="M 324.0 743 h 10"></path><g class="non-terminal ">
<path d="M 334.0 743 h 0.0"></path><path d="M 566.5 743 h 0.0"></path><rect height="22" width="232.5" x="334.0" y="732"></rect><text x="450.25" y="747">BookIntroductionEndTitles</text></g><path d="M 566.5 743 h 10"></path><path d="M 334.0 743 a 10 10 0 0 0 -10 10 v 0 a 10 10 0 0 0 10 10"></path><g>
<path d="M 334.0 763 h 232.5"></path></g><path d="M 566.5 763 a 10 10 0 0 0 10 -10 v 0 a 10 10 0 0 0 -10 -10"></path></g><path d="M 576.5 743 h 20"></path></g><path d="M 722.5 743 a 10 10 0 0 0 10 -10 v -155 a 10 10 0 0 1 10 -10"></path><path d="M 158.0 568 a 10 10 0 0 1 10 10 v 232 a 10 10 0 0 0 10 10"></path><g>
<path d="M 178.0 820 h 152.75"></path><path d="M 569.75 820 h 152.75"></path><path d="M 330.75 820 a 10 10 0 0 0 10 -10 v -9 a 10 10 0 0 1 10 -10"></path><g>
<path d="M 350.75 791 h 199.0"></path></g><path d="M 549.75 791 a 10 10 0 0 1 10 10 v 9 a 10 10 0 0 0 10 10"></path><path d="M 330.75 820 h 20"></path><g>
<path d="M 350.75 820 h 0.0"></path><path d="M 549.75 820 h 0.0"></path><path d="M 350.75 820 h 10"></path><g>
<path d="M 360.75 820 h 0.0"></path><path d="M 539.75 820 h 0.0"></path><path d="M 360.75 820 h 20"></path><g class="non-terminal ">
<path d="M 380.75 820 h 29.75"></path><path d="M 490.0 820 h 29.75"></path><rect height="22" width="79.5" x="410.5" y="809"></rect><text x="450.25" y="824">Chapter</text></g><path d="M 519.75 820 h 20"></path><path d="M 360.75 820 a 10 10 0 0 1 10 10 v 10 a 10 10 0 0 0 10 10"></path><g class="non-terminal ">
<path d="M 380.75 850 h 42.5"></path><path d="M 477.25 850 h 42.5"></path><rect height="22" width="54.0" x="423.25" y="839"></rect><text x="450.25" y="854">Para</text></g><path d="M 519.75 850 a 10 10 0 0 0 10 -10 v -10 a 10 10 0 0 1 10 -10"></path><path d="M 360.75 820 a 10 10 0 0 1 10 10 v 40 a 10 10 0 0 0 10 10"></path><g class="non-terminal ">
<path d="M 380.75 880 h 42.5"></path><path d="M 477.25 880 h 42.5"></path><rect height="22" width="54.0" x="423.25" y="869"></rect><text x="450.25" y="884">List</text></g><path d="M 519.75 880 a 10 10 0 0 0 10 -10 v -40 a 10 10 0 0 1 10 -10"></path><path d="M 360.75 820 a 10 10 0 0 1 10 10 v 70 a 10 10 0 0 0 10 10"></path><g class="non-terminal ">
<path d="M 380.75 910 h 38.25"></path><path d="M 481.5 910 h 38.25"></path><rect height="22" width="62.5" x="419.0" y="899"></rect><text x="450.25" y="914">Table</text></g><path d="M 519.75 910 a 10 10 0 0 0 10 -10 v -70 a 10 10 0 0 1 10 -10"></path><path d="M 360.75 820 a 10 10 0 0 1 10 10 v 100 a 10 10 0 0 0 10 10"></path><g class="non-terminal ">
<path d="M 380.75 940 h 25.5"></path><path d="M 494.25 940 h 25.5"></path><rect height="22" width="88.0" x="406.25" y="929"></rect><text x="450.25" y="944">Footnote</text></g><path d="M 519.75 940 a 10 10 0 0 0 10 -10 v -100 a 10 10 0 0 1 10 -10"></path><path d="M 360.75 820 a 10 10 0 0 1 10 10 v 130 a 10 10 0 0 0 10 10"></path><g class="non-terminal ">
<path d="M 380.75 970 h 0.0"></path><path d="M 519.75 970 h 0.0"></path><rect height="22" width="139.0" x="380.75" y="959"></rect><text x="450.25" y="974">CrossReference</text></g><path d="M 519.75 970 a 10 10 0 0 0 10 -10 v -130 a 10 10 0 0 1 10 -10"></path><path d="M 360.75 820 a 10 10 0 0 1 10 10 v 160 a 10 10 0 0 0 10 10"></path><g class="non-terminal ">
<path d="M 380.75 1000 h 29.75"></path><path d="M 490.0 1000 h 29.75"></path><rect height="22" width="79.5" x="410.5" y="989"></rect><text x="450.25" y="1004">Sidebar</text></g><path d="M 519.75 1000 a 10 10 0 0 0 10 -10 v -160 a 10 10 0 0 1 10 -10"></path></g><path d="M 539.75 820 h 10"></path><path d="M 360.75 820 a 10 10 0 0 0 -10 10 v 189 a 10 10 0 0 0 10 10"></path><g>
<path d="M 360.75 1029 h 179.0"></path></g><path d="M 539.75 1029 a 10 10 0 0 0 10 -10 v -189 a 10 10 0 0 0 -10 -10"></path></g><path d="M 549.75 820 h 20"></path></g><path d="M 722.5 820 a 10 10 0 0 0 10 -10 v -232 a 10 10 0 0 1 10 -10"></path></g></g></g><path d="M 742.5 568 h 10"></path><path d="M 752.5 568 h 20 m 0 -10 v 20"></path></g></svg>