<svg class="railroad-diagram" height="966" viewBox="0 0 1509.0 966" width="1509.0" xmlns="http://www.w3.org/2000/svg" xmlns:xlink="http://www.w3.org/1999/xlink">
<g transform="translate(.5 .5)">
<style>/* <![CDATA[ */

    svg.railroad-diagram {
        background-color: hsl(30,20%,95%);
    }
    svg.railroad-diagram path {
        stroke-width: 2;
        stroke: black;
        fill: none;
    }
    svg.railroad-diagram text {
        font-size: 12px;
        text-anchor: middle;
        font-family: DejaVu Sans;
    }
    svg.railroad-diagram text.label {
        text-anchor:start;
    }
    svg.railroad-diagram text.comment {
        font-family: DejaVu Sans;
        font-size: 14px;
    }
    svg.railroad-diagram rect{
        stroke-width: 2;
        stroke: black;
        fill: rgb(210, 255, 210);
    }
    svg.railroad-diagram rect.group-box {
        stroke: gray;
        stroke-dasharray: 10 5;
        fill: none;
    }
    .terminal {
        font-family: DejaVu Sans;
    }
    svg.railroad-diagram g.altterminal rect {
        fill: rgb(251, 252, 207)
    }

/* ]]> */
</style><g>
<path d="M 20 31 v 20 m 0 -10 h 20"></path></g><path d="M 40 41 h 10"></path><g>
<path d="M 50 41 h 0.0"></path><path d="M 1459.0 607 h 0.0"></path><g>
<path d="M 50.0 41 h 0.0"></path><path d="M 50.0 41 h 10"></path><g>
<path d="M 60.0 41 h 579.5"></path><path d="M 869.5 41 h 579.5"></path><path d="M 639.5 41 h 20"></path><g class="terminal ">
<path d="M 659.5 41 h 38.25"></path><path d="M 811.25 41 h 38.25"></path><rect height="22" rx="10" ry="10" width="113.5" x="697.75" y="30"></rect><text x="754.5" y="45">'\\periph '</text></g><path d="M 849.5 41 h 20"></path><path d="M 639.5 41 a 10 10 0 0 1 10 10 v 10 a 10 10 0 0 0 10 10"></path><g class="terminal altterminal">
<path d="M 659.5 71 h 0.0"></path><path d="M 849.5 71 h 0.0"></path><rect height="22" rx="10" ry="10" width="190.0" x="659.5" y="60"></rect><text x="754.5" y="75">/${Ws}\\periph${HS}/</text></g><path d="M 849.5 71 a 10 10 0 0 0 10 -10 v -10 a 10 10 0 0 1 10 -10"></path></g><path d="M 1449.0 41 a 10 10 0 0 1 10 10 v 39 a 10 10 0 0 1 -10 10 h -1389.0 a 10 10 0 0 0 -10 10 v 8 a 10 10 0 0 0 10 10"></path><g>
<path d="M 60.0 128 h 10.0"></path><path d="M 1439.0 442 h 10.0"></path><path d="M 70.0 128 h 20"></path><g>
<path d="M 90.0 128 h 0.0"></path><path d="M 90.0 128 h 10"></path><g>
<path d="M 100.0 128 h 10.0"></path><path d="M 1399.0 128 h 10.0"></path><path d="M 110.0 128 h 20"></path><g>
<path d="M 130.0 128 h 1249.0"></path></g><path d="M 1379.0 128 h 20"></path><path d="M 110.0 128 a 10 10 0 0 1 10 10 v 107 a 10 10 0 0 0 10 10"></path><g>
<path d="M 130.0 255 h 0.0"></path><path d="M 1379.0 255 h 0.0"></path><g>
<path d="M 130.0 255 h 0.0"></path><path d="M 224.0 255 h 0.0"></path><path d="M 130.0 255 h 20"></path><g class="terminal ">
<path d="M 150.0 255 h 4.25"></path><path d="M 199.75 255 h 4.25"></path><rect height="22" rx="10" ry="10" width="45.5" x="154.25" y="244"></rect><text x="177.0" y="259">'|'</text></g><path d="M 204.0 255 h 20"></path><path d="M 130.0 255 a 10 10 0 0 1 10 10 v 10 a 10 10 0 0 0 10 10"></path><g class="terminal altterminal">
<path d="M 150.0 285 h 0.0"></path><path d="M 204.0 285 h 0.0"></path><rect height="22" rx="10" ry="10" width="54.0" x="150.0" y="274"></rect><text x="177.0" y="289">PIPE</text></g><path d="M 204.0 285 a 10 10 0 0 0 10 -10 v -10 a 10 10 0 0 1 10 -10"></path></g><path d="M 224.0 255 h 10"></path><path d="M 234.0 255 h 10"></path><g class="terminal ">
<path d="M 244.0 255 h 0.0"></path><path d="M 315.0 255 h 0.0"></path><rect height="22" rx="10" ry="10" width="71.0" x="244.0" y="244"></rect><text x="279.5" y="259">'id="'</text></g><path d="M 315.0 255 h 10"></path><g>
<path d="M 325.0 255 h 0.0"></path><path d="M 1226.5 255 h 0.0"></path><path d="M 325.0 255 a 10 10 0 0 0 10 -10 v -99 a 10 10 0 0 1 10 -10 h 610.0"></path><path d="M 537.0 404 h 669.5 a 10 10 0 0 0 10 -10 v -129 a 10 10 0 0 1 10 -10"></path><path d="M 325.0 255 h 10"></path><g>
<path d="M 335.0 255 h 10.0"></path><path d="M 507.0 255 h 10.0"></path><path d="M 345.0 255 a 10 10 0 0 0 10 -10 v -10 a 10 10 0 0 1 10 -10"></path><g class="terminal ">
<path d="M 365.0 225 h 21.25"></path><path d="M 465.75 225 h 21.25"></path><rect height="22" rx="10" ry="10" width="79.5" x="386.25" y="214"></rect><text x="426.0" y="229">"promo"</text></g><path d="M 487.0 225 a 10 10 0 0 1 10 10 v 10 a 10 10 0 0 0 10 10"></path><path d="M 345.0 255 a 10 10 0 0 0 10 -10 v -40 a 10 10 0 0 1 10 -10"></path><g class="terminal ">
<path d="M 365.0 195 h 4.25"></path><path d="M 482.75 195 h 4.25"></path><rect height="22" rx="10" ry="10" width="113.5" x="369.25" y="184"></rect><text x="426.0" y="199">"halftitle"</text></g><path d="M 487.0 195 a 10 10 0 0 1 10 10 v 40 a 10 10 0 0 0 10 10"></path><path d="M 345.0 255 a 10 10 0 0 0 10 -10 v -70 a 10 10 0 0 1 10 -10"></path><g class="terminal ">
<path d="M 365.0 165 h 21.25"></path><path d="M 465.75 165 h 21.25"></path><rect height="22" rx="10" ry="10" width="79.5" x="386.25" y="154"></rect><text x="426.0" y="169">"title"</text></g><path d="M 487.0 165 a 10 10 0 0 1 10 10 v 70 a 10 10 0 0 0 10 10"></path><path d="M 345.0 255 h 20"></path><g class="terminal ">
<path d="M 365.0 255 h 0.0"></path><path d="M 487.0 255 h 0.0"></path><rect height="22" rx="10" ry="10" width="122.0" x="365.0" y="244"></rect><text x="426.0" y="259">"imprimatur"</text></g><path d="M 487.0 255 h 20"></path><path d="M 345.0 255 a 10 10 0 0 1 10 10 v 10 a 10 10 0 0 0 10 10"></path><g class="terminal ">
<path d="M 365.0 285 h 12.75"></path><path d="M 474.25 285 h 12.75"></path><rect height="22" rx="10" ry="10" width="96.5" x="377.75" y="274"></rect><text x="426.0" y="289">"pubdata"</text></g><path d="M 487.0 285 a 10 10 0 0 0 10 -10 v -10 a 10 10 0 0 1 10 -10"></path><path d="M 345.0 255 a 10 10 0 0 1 10 10 v 40 a 10 10 0 0 0 10 10"></path><g class="terminal ">
<path d="M 365.0 315 h 8.5"></path><path d="M 478.5 315 h 8.5"></path><rect height="22" rx="10" ry="10" width="105.0" x="373.5" y="304"></rect><text x="426.0" y="319">"foreword"</text></g><path d="M 487.0 315 a 10 10 0 0 0 10 -10 v -40 a 10 10 0 0 1 10 -10"></path><path d="M 345.0 255 a 10 10 0 0 1 10 10 v 70 a 10 10 0 0 0 10 10"></path><g class="terminal ">
<path d="M 365.0 345 h 12.75"></path><path d="M 474.25 345 h 12.75"></path><rect height="22" rx="10" ry="10" width="96.5" x="377.75" y="334"></rect><text x="426.0" y="349">"preface"</text></g><path d="M 487.0 345 a 10 10 0 0 0 10 -10 v -70 a 10 10 0 0 1 10 -10"></path><path d="M 345.0 255 a 10 10 0 0 1 10 10 v 100 a 10 10 0 0 0 10 10"></path><g class="terminal ">
<path d="M 365.0 375 h 8.5"></path><path d="M 478.5 375 h 8.5"></path><rect height="22" rx="10" ry="10" width="105.0" x="373.5" y="364"></rect><text x="426.0" y="379">"contents"</text></g><path d="M 487.0 375 a 10 10 0 0 0 10 -10 v -100 a 10 10 0 0 1 10 -10"></path></g><path d="M 517.0 255 a 10 10 0 0 1 10 10 v 129 a 10 10 0 0 0 10 10"></path><path d="M 517.0 136 a 10 10 0 0 1 10 10 v 99 a 10 10 0 0 0 10 10"></path><g>
<path d="M 537.0 255 h 10.0"></path><path d="M 734.5 255 h 10.0"></path><path d="M 547.0 255 a 10 10 0 0 0 10 -10 v -10 a 10 10 0 0 1 10 -10"></path><g class="terminal ">
<path d="M 567.0 225 h 21.25"></path><path d="M 693.25 225 h 21.25"></path><rect height="22" rx="10" ry="10" width="105.0" x="588.25" y="214"></rect><text x="640.75" y="229">"intbible"</text></g><path d="M 714.5 225 a 10 10 0 0 1 10 10 v 10 a 10 10 0 0 0 10 10"></path><path d="M 547.0 255 a 10 10 0 0 0 10 -10 v -40 a 10 10 0 0 1 10 -10"></path><g class="terminal ">
<path d="M 567.0 195 h 0.0"></path><path d="M 714.5 195 h 0.0"></path><rect height="22" rx="10" ry="10" width="147.5" x="567.0" y="184"></rect><text x="640.75" y="199">"abbreviations"</text></g><path d="M 714.5 195 a 10 10 0 0 1 10 10 v 40 a 10 10 0 0 0 10 10"></path><path d="M 547.0 255 a 10 10 0 0 0 10 -10 v -70 a 10 10 0 0 1 10 -10"></path><g class="terminal ">
<path d="M 567.0 165 h 0.0"></path><path d="M 714.5 165 h 0.0"></path><rect height="22" rx="10" ry="10" width="147.5" x="567.0" y="154"></rect><text x="640.75" y="169">"alphacontents"</text></g><path d="M 714.5 165 a 10 10 0 0 1 10 10 v 70 a 10 10 0 0 0 10 10"></path><path d="M 547.0 255 h 20"></path><g class="terminal ">
<path d="M 567.0 255 h 34.0"></path><path d="M 680.5 255 h 34.0"></path><rect height="22" rx="10" ry="10" width="79.5" x="601.0" y="244"></rect><text x="640.75" y="259">"intot"</text></g><path d="M 714.5 255 h 20"></path><path d="M 547.0 255 a 10 10 0 0 1 10 10 v 10 a 10 10 0 0 0 10 10"></path><g class="terminal ">
<path d="M 567.0 285 h 25.5"></path><path d="M 689.0 285 h 25.5"></path><rect height="22" rx="10" ry="10" width="96.5" x="592.5" y="274"></rect><text x="640.75" y="289">"intpent"</text></g><path d="M 714.5 285 a 10 10 0 0 0 10 -10 v -10 a 10 10 0 0 1 10 -10"></path><path d="M 547.0 255 a 10 10 0 0 1 10 10 v 40 a 10 10 0 0 0 10 10"></path><g class="terminal ">
<path d="M 567.0 315 h 12.75"></path><path d="M 701.75 315 h 12.75"></path><rect height="22" rx="10" ry="10" width="122.0" x="579.75" y="304"></rect><text x="640.75" y="319">"inthistory"</text></g><path d="M 714.5 315 a 10 10 0 0 0 10 -10 v -40 a 10 10 0 0 1 10 -10"></path><path d="M 547.0 255 a 10 10 0 0 1 10 10 v 70 a 10 10 0 0 0 10 10"></path><g class="terminal ">
<path d="M 567.0 345 h 17.0"></path><path d="M 697.5 345 h 17.0"></path><rect height="22" rx="10" ry="10" width="113.5" x="584.0" y="334"></rect><text x="640.75" y="349">"intpoetry"</text></g><path d="M 714.5 345 a 10 10 0 0 0 10 -10 v -70 a 10 10 0 0 1 10 -10"></path><path d="M 547.0 255 a 10 10 0 0 1 10 10 v 100 a 10 10 0 0 0 10 10"></path><g class="terminal ">
<path d="M 567.0 375 h 8.5"></path><path d="M 706.0 375 h 8.5"></path><rect height="22" rx="10" ry="10" width="130.5" x="575.5" y="364"></rect><text x="640.75" y="379">"intprophesy"</text></g><path d="M 714.5 375 a 10 10 0 0 0 10 -10 v -100 a 10 10 0 0 1 10 -10"></path></g><path d="M 744.5 255 a 10 10 0 0 1 10 10 v 129 a 10 10 0 0 0 10 10"></path><path d="M 744.5 136 a 10 10 0 0 1 10 10 v 99 a 10 10 0 0 0 10 10"></path><g>
<path d="M 764.5 255 h 10.0"></path><path d="M 945.0 255 h 10.0"></path><path d="M 774.5 255 a 10 10 0 0 0 10 -10 v -10 a 10 10 0 0 1 10 -10"></path><g class="terminal ">
<path d="M 794.5 225 h 4.25"></path><path d="M 920.75 225 h 4.25"></path><rect height="22" rx="10" ry="10" width="122.0" x="798.75" y="214"></rect><text x="859.75" y="229">"intgospels"</text></g><path d="M 925.0 225 a 10 10 0 0 1 10 10 v 10 a 10 10 0 0 0 10 10"></path><path d="M 774.5 255 a 10 10 0 0 0 10 -10 v -40 a 10 10 0 0 1 10 -10"></path><g class="terminal ">
<path d="M 794.5 195 h 25.5"></path><path d="M 899.5 195 h 25.5"></path><rect height="22" rx="10" ry="10" width="79.5" x="820.0" y="184"></rect><text x="859.75" y="199">"intnt"</text></g><path d="M 925.0 195 a 10 10 0 0 1 10 10 v 40 a 10 10 0 0 0 10 10"></path><path d="M 774.5 255 a 10 10 0 0 0 10 -10 v -70 a 10 10 0 0 1 10 -10"></path><g class="terminal ">
<path d="M 794.5 165 h 25.5"></path><path d="M 899.5 165 h 25.5"></path><rect height="22" rx="10" ry="10" width="79.5" x="820.0" y="154"></rect><text x="859.75" y="169">"intdc"</text></g><path d="M 925.0 165 a 10 10 0 0 1 10 10 v 70 a 10 10 0 0 0 10 10"></path><path d="M 774.5 255 h 20"></path><g class="terminal ">
<path d="M 794.5 255 h 0.0"></path><path d="M 925.0 255 h 0.0"></path><rect height="22" rx="10" ry="10" width="130.5" x="794.5" y="244"></rect><text x="859.75" y="259">"intepistles"</text></g><path d="M 925.0 255 h 20"></path><path d="M 774.5 255 a 10 10 0 0 1 10 10 v 10 a 10 10 0 0 0 10 10"></path><g class="terminal ">
<path d="M 794.5 285 h 4.25"></path><path d="M 920.75 285 h 4.25"></path><rect height="22" rx="10" ry="10" width="122.0" x="798.75" y="274"></rect><text x="859.75" y="289">"intletters"</text></g><path d="M 925.0 285 a 10 10 0 0 0 10 -10 v -10 a 10 10 0 0 1 10 -10"></path><path d="M 774.5 255 a 10 10 0 0 1 10 10 v 40 a 10 10 0 0 0 10 10"></path><g class="terminal ">
<path d="M 794.5 315 h 25.5"></path><path d="M 899.5 315 h 25.5"></path><rect height="22" rx="10" ry="10" width="79.5" x="820.0" y="304"></rect><text x="859.75" y="319">"chron"</text></g><path d="M 925.0 315 a 10 10 0 0 0 10 -10 v -40 a 10 10 0 0 1 10 -10"></path><path d="M 774.5 255 a 10 10 0 0 1 10 10 v 70 a 10 10 0 0 0 10 10"></path><g class="terminal ">
<path d="M 794.5 345 h 12.75"></path><path d="M 912.25 345 h 12.75"></path><rect height="22" rx="10" ry="10" width="105.0" x="807.25" y="334"></rect><text x="859.75" y="349">"measures"</text></g><path d="M 925.0 345 a 10 10 0 0 0 10 -10 v -70 a 10 10 0 0 1 10 -10"></path><path d="M 774.5 255 a 10 10 0 0 1 10 10 v 100 a 10 10 0 0 0 10 10"></path><g class="terminal ">
<path d="M 794.5 375 h 29.75"></path><path d="M 895.25 375 h 29.75"></path><rect height="22" rx="10" ry="10" width="71.0" x="824.25" y="364"></rect><text x="859.75" y="379">"maps"</text></g><path d="M 925.0 375 a 10 10 0 0 0 10 -10 v -100 a 10 10 0 0 1 10 -10"></path></g><path d="M 955.0 255 a 10 10 0 0 1 10 10 v 129 a 10 10 0 0 0 10 10"></path><path d="M 955.0 136 a 10 10 0 0 1 10 10 v 99 a 10 10 0 0 0 10 10"></path><g>
<path d="M 975.0 255 h 10.0"></path><path d="M 1206.5 255 h 10.0"></path><path d="M 985.0 255 a 10 10 0 0 0 10 -10 v -10 a 10 10 0 0 1 10 -10"></path><g class="terminal ">
<path d="M 1005.0 225 h 51.0"></path><path d="M 1135.5 225 h 51.0"></path><rect height="22" rx="10" ry="10" width="79.5" x="1056.0" y="214"></rect><text x="1095.75" y="229">"spine"</text></g><path d="M 1186.5 225 a 10 10 0 0 1 10 10 v 10 a 10 10 0 0 0 10 10"></path><path d="M 985.0 255 a 10 10 0 0 0 10 -10 v -40 a 10 10 0 0 1 10 -10"></path><g class="terminal ">
<path d="M 1005.0 195 h 51.0"></path><path d="M 1135.5 195 h 51.0"></path><rect height="22" rx="10" ry="10" width="79.5" x="1056.0" y="184"></rect><text x="1095.75" y="199">"cover"</text></g><path d="M 1186.5 195 a 10 10 0 0 1 10 10 v 40 a 10 10 0 0 0 10 10"></path><path d="M 985.0 255 a 10 10 0 0 0 10 -10 v -70 a 10 10 0 0 1 10 -10"></path><g class="terminal ">
<path d="M 1005.0 165 h 34.0"></path><path d="M 1152.5 165 h 34.0"></path><rect height="22" rx="10" ry="10" width="113.5" x="1039.0" y="154"></rect><text x="1095.75" y="169">"lxxquotes"</text></g><path d="M 1186.5 165 a 10 10 0 0 1 10 10 v 70 a 10 10 0 0 0 10 10"></path><path d="M 985.0 255 h 20"></path><g class="terminal ">
<path d="M 1005.0 255 h 63.75"></path><path d="M 1122.75 255 h 63.75"></path><rect height="22" rx="10" ry="10" width="54.0" x="1068.75" y="244"></rect><text x="1095.75" y="259">TEXT</text></g><path d="M 1186.5 255 h 20"></path><path d="M 985.0 255 a 10 10 0 0 1 10 10 v 10 a 10 10 0 0 0 10 10"></path><g class="terminal ">
<path d="M 1005.0 285 h 0.0"></path><path d="M 1186.5 285 h 0.0"></path><rect height="22" rx="10" ry="10" width="181.5" x="1005.0" y="274"></rect><text x="1095.75" y="289">/x\-&#91;\p{L}&#95;\-\.:&#93;+/</text></g><path d="M 1186.5 285 a 10 10 0 0 0 10 -10 v -10 a 10 10 0 0 1 10 -10"></path></g><path d="M 1216.5 255 h 10"></path></g><path d="M 1226.5 255 h 10"></path><g class="terminal ">
<path d="M 1236.5 255 h 0.0"></path><path d="M 1265.0 255 h 0.0"></path><rect height="22" rx="10" ry="10" width="28.5" x="1236.5" y="244"></rect><text x="1250.75" y="259">"</text></g><path d="M 1265.0 255 h 10"></path><path d="M 1275.0 255 h 10"></path><g>
<path d="M 1285.0 255 h 0.0"></path><path d="M 1379.0 255 h 0.0"></path><path d="M 1285.0 255 h 20"></path><g class="terminal ">
<path d="M 1305.0 255 h 4.25"></path><path d="M 1354.75 255 h 4.25"></path><rect height="22" rx="10" ry="10" width="45.5" x="1309.25" y="244"></rect><text x="1332.0" y="259">'|'</text></g><path d="M 1359.0 255 h 20"></path><path d="M 1285.0 255 a 10 10 0 0 1 10 10 v 10 a 10 10 0 0 0 10 10"></path><g class="terminal altterminal">
<path d="M 1305.0 285 h 0.0"></path><path d="M 1359.0 285 h 0.0"></path><rect height="22" rx="10" ry="10" width="54.0" x="1305.0" y="274"></rect><text x="1332.0" y="289">PIPE</text></g><path d="M 1359.0 285 a 10 10 0 0 0 10 -10 v -10 a 10 10 0 0 1 10 -10"></path></g></g><path d="M 1379.0 255 a 10 10 0 0 0 10 -10 v -107 a 10 10 0 0 1 10 -10"></path></g><path d="M 1409.0 128 a 10 10 0 0 1 10 10 v 274 a 10 10 0 0 1 -10 10 h -1309.0 a 10 10 0 0 0 -10 10 v 0 a 10 10 0 0 0 10 10"></path><g>
<path d="M 100.0 442 h 569.25"></path><path d="M 839.75 442 h 569.25"></path><path d="M 669.25 442 h 20"></path><g>
<path d="M 689.25 442 h 130.5"></path></g><path d="M 819.75 442 h 20"></path><path d="M 669.25 442 a 10 10 0 0 1 10 10 v 0 a 10 10 0 0 0 10 10"></path><g>
<path d="M 689.25 462 h 0.0"></path><path d="M 819.75 462 h 0.0"></path><g>
<path d="M 689.25 462 h 0.0"></path><path d="M 819.75 462 h 0.0"></path><g class="terminal ">
<path d="M 689.25 462 h 0.0"></path><path d="M 819.75 462 h 0.0"></path><rect height="22" rx="10" ry="10" width="130.5" x="689.25" y="451"></rect><text x="754.5" y="466">TEXTNOTATTRIB</text></g></g></g><path d="M 819.75 462 a 10 10 0 0 0 10 -10 v 0 a 10 10 0 0 1 10 -10"></path></g><path d="M 1409.0 442 h 10"></path><path d="M 1419.0 442 h 0.0"></path></g><path d="M 1419.0 442 h 20"></path><path d="M 70.0 128 a 10 10 0 0 1 10 10 v 353 a 10 10 0 0 0 10 10"></path><g>
<path d="M 90.0 501 h 496.75"></path><path d="M 922.25 501 h 496.75"></path><g>
<path d="M 586.75 501 h 0.0"></path><path d="M 757.25 501 h 0.0"></path><path d="M 586.75 501 h 20"></path><g>
<path d="M 606.75 501 h 130.5"></path></g><path d="M 737.25 501 h 20"></path><path d="M 586.75 501 a 10 10 0 0 1 10 10 v 0 a 10 10 0 0 0 10 10"></path><g>
<path d="M 606.75 521 h 0.0"></path><path d="M 737.25 521 h 0.0"></path><g>
<path d="M 606.75 521 h 0.0"></path><path d="M 737.25 521 h 0.0"></path><g class="terminal ">
<path d="M 606.75 521 h 0.0"></path><path d="M 737.25 521 h 0.0"></path><rect height="22" rx="10" ry="10" width="130.5" x="606.75" y="510"></rect><text x="672.0" y="525">TEXTNOTATTRIB</text></g></g></g><path d="M 737.25 521 a 10 10 0 0 0 10 -10 v 0 a 10 10 0 0 1 10 -10"></path></g><path d="M 757.25 501 h 10"></path><path d="M 767.25 501 h 10"></path><g>
<path d="M 777.25 501 h 0.0"></path><path d="M 922.25 501 h 0.0"></path><path d="M 777.25 501 h 20"></path><g>
<path d="M 797.25 501 h 105.0"></path></g><path d="M 902.25 501 h 20"></path><path d="M 777.25 501 a 10 10 0 0 1 10 10 v 0 a 10 10 0 0 0 10 10"></path><g class="non-terminal ">
<path d="M 797.25 521 h 0.0"></path><path d="M 902.25 521 h 0.0"></path><rect height="22" width="105.0" x="797.25" y="510"></rect><text x="849.75" y="525">Attributes</text></g><path d="M 902.25 521 a 10 10 0 0 0 10 -10 v 0 a 10 10 0 0 1 10 -10"></path></g></g><path d="M 1419.0 501 a 10 10 0 0 0 10 -10 v -39 a 10 10 0 0 1 10 -10"></path></g><path d="M 1449.0 442 a 10 10 0 0 1 10 10 v 98 a 10 10 0 0 1 -10 10 h -1389.0 a 10 10 0 0 0 -10 10 v 27 a 10 10 0 0 0 10 10"></path><g>
<path d="M 60.0 607 h 111.5"></path><path d="M 1337.5 607 h 111.5"></path><g>
<path d="M 171.5 607 h 0.0"></path><path d="M 345.0 607 h 0.0"></path><path d="M 171.5 607 a 10 10 0 0 0 10 -10 v 0 a 10 10 0 0 1 10 -10"></path><g>
<path d="M 191.5 587 h 133.5"></path></g><path d="M 325.0 587 a 10 10 0 0 1 10 10 v 0 a 10 10 0 0 0 10 10"></path><path d="M 171.5 607 h 20"></path><g>
<path d="M 191.5 607 h 0.0"></path><path d="M 325.0 607 h 0.0"></path><path d="M 191.5 607 h 10"></path><g class="non-terminal ">
<path d="M 201.5 607 h 0.0"></path><path d="M 315.0 607 h 0.0"></path><rect height="22" width="113.5" x="201.5" y="596"></rect><text x="258.25" y="611">BookHeaders</text></g><path d="M 315.0 607 h 10"></path><path d="M 201.5 607 a 10 10 0 0 0 -10 10 v 0 a 10 10 0 0 0 10 10"></path><g>
<path d="M 201.5 627 h 113.5"></path></g><path d="M 315.0 627 a 10 10 0 0 0 10 -10 v 0 a 10 10 0 0 0 -10 -10"></path></g><path d="M 325.0 607 h 20"></path></g><path d="M 345.0 607 h 10"></path><path d="M 355.0 607 h 10"></path><g>
<path d="M 365.0 607 h 0.0"></path><path d="M 530.0 607 h 0.0"></path><path d="M 365.0 607 a 10 10 0 0 0 10 -10 v 0 a 10 10 0 0 1 10 -10"></path><g>
<path d="M 385.0 587 h 125.0"></path></g><path d="M 510.0 587 a 10 10 0 0 1 10 10 v 0 a 10 10 0 0 0 10 10"></path><path d="M 365.0 607 h 20"></path><g>
<path d="M 385.0 607 h 0.0"></path><path d="M 510.0 607 h 0.0"></path><path d="M 385.0 607 h 10"></path><g class="non-terminal ">
<path d="M 395.0 607 h 0.0"></path><path d="M 500.0 607 h 0.0"></path><rect height="22" width="105.0" x="395.0" y="596"></rect><text x="447.5" y="611">BookTitles</text></g><path d="M 500.0 607 h 10"></path><path d="M 395.0 607 a 10 10 0 0 0 -10 10 v 0 a 10 10 0 0 0 10 10"></path><g>
<path d="M 395.0 627 h 105.0"></path></g><path d="M 500.0 627 a 10 10 0 0 0 10 -10 v 0 a 10 10 0 0 0 -10 -10"></path></g><path d="M 510.0 607 h 20"></path></g><path d="M 530.0 607 h 10"></path><path d="M 540.0 607 h 10"></path><g>
<path d="M 550.0 607 h 0.0"></path><path d="M 766.0 607 h 0.0"></path><path d="M 550.0 607 a 10 10 0 0 0 10 -10 v 0 a 10 10 0 0 1 10 -10"></path><g>
<path d="M 570.0 587 h 176.0"></path></g><path d="M 746.0 587 a 10 10 0 0 1 10 10 v 0 a 10 10 0 0 0 10 10"></path><path d="M 550.0 607 h 20"></path><g>
<path d="M 570.0 607 h 0.0"></path><path d="M 746.0 607 h 0.0"></path><path d="M 570.0 607 h 10"></path><g class="non-terminal ">
<path d="M 580.0 607 h 0.0"></path><path d="M 736.0 607 h 0.0"></path><rect height="22" width="156.0" x="580.0" y="596"></rect><text x="658.0" y="611">BookIntroduction</text></g><path d="M 736.0 607 h 10"></path><path d="M 580.0 607 a 10 10 0 0 0 -10 10 v 0 a 10 10 0 0 0 10 10"></path><g>
<path d="M 580.0 627 h 156.0"></path></g><path d="M 736.0 627 a 10 10 0 0 0 10 -10 v 0 a 10 10 0 0 0 -10 -10"></path></g><path d="M 746.0 607 h 20"></path></g><path d="M 766.0 607 h 10"></path><path d="M 776.0 607 h 10"></path><g>
<path d="M 786.0 607 h 0.0"></path><path d="M 1078.5 607 h 0.0"></path><path d="M 786.0 607 a 10 10 0 0 0 10 -10 v 0 a 10 10 0 0 1 10 -10"></path><g>
<path d="M 806.0 587 h 252.5"></path></g><path d="M 1058.5 587 a 10 10 0 0 1 10 10 v 0 a 10 10 0 0 0 10 10"></path><path d="M 786.0 607 h 20"></path><g>
<path d="M 806.0 607 h 0.0"></path><path d="M 1058.5 607 h 0.0"></path><path d="M 806.0 607 h 10"></path><g class="non-terminal ">
<path d="M 816.0 607 h 0.0"></path><path d="M 1048.5 607 h 0.0"></path><rect height="22" width="232.5" x="816.0" y="596"></rect><text x="932.25" y="611">BookIntroductionEndTitles</text></g><path d="M 1048.5 607 h 10"></path><path d="M 816.0 607 a 10 10 0 0 0 -10 10 v 0 a 10 10 0 0 0 10 10"></path><g>
<path d="M 816.0 627 h 232.5"></path></g><path d="M 1048.5 627 a 10 10 0 0 0 10 -10 v 0 a 10 10 0 0 0 -10 -10"></path></g><path d="M 1058.5 607 h 20"></path></g><path d="M 1078.5 607 h 10"></path><path d="M 1088.5 607 h 10"></path><g>
<path d="M 1098.5 607 h 0.0"></path><path d="M 1337.5 607 h 0.0"></path><path d="M 1098.5 607 a 10 10 0 0 0 10 -10 v -9 a 10 10 0 0 1 10 -10"></path><g>
<path d="M 1118.5 578 h 199.0"></path></g><path d="M 1317.5 578 a 10 10 0 0 1 10 10 v 9 a 10 10 0 0 0 10 10"></path><path d="M 1098.5 607 h 20"></path><g>
<path d="M 1118.5 607 h 0.0"></path><path d="M 1317.5 607 h 0.0"></path><path d="M 1118.5 607 h 10"></path><g>
<path d="M 1128.5 607 h 0.0"></path><path d="M 1307.5 607 h 0.0"></path><path d="M 1128.5 607 h 20"></path><g class="non-terminal ">
<path d="M 1148.5 607 h 42.5"></path><path d="M 1245.0 607 h 42.5"></path><rect height="22" width="54.0" x="1191.0" y="596"></rect><text x="1218.0" y="611">Para</text></g><path d="M 1287.5 607 h 20"></path><path d="M 1128.5 607 a 10 10 0 0 1 10 10 v 10 a 10 10 0 0 0 10 10"></path><g class="non-terminal ">
<path d="M 1148.5 637 h 29.75"></path><path d="M 1257.75 637 h 29.75"></path><rect height="22" width="79.5" x="1178.25" y="626"></rect><text x="1218.0" y="641">Section</text></g><path d="M 1287.5 637 a 10 10 0 0 0 10 -10 v -10 a 10 10 0 0 1 10 -10"></path><path d="M 1128.5 607 a 10 10 0 0 1 10 10 v 40 a 10 10 0 0 0 10 10"></path><g class="non-terminal ">
<path d="M 1148.5 667 h 17.0"></path><path d="M 1270.5 667 h 17.0"></path><rect height="22" width="105.0" x="1165.5" y="656"></rect><text x="1218.0" y="671">PeriphPara</text></g><path d="M 1287.5 667 a 10 10 0 0 0 10 -10 v -40 a 10 10 0 0 1 10 -10"></path><path d="M 1128.5 607 a 10 10 0 0 1 10 10 v 70 a 10 10 0 0 0 10 10"></path><g class="non-terminal ">
<path d="M 1148.5 697 h 29.75"></path><path d="M 1257.75 697 h 29.75"></path><rect height="22" width="79.5" x="1178.25" y="686"></rect><text x="1218.0" y="701">Chapter</text></g><path d="M 1287.5 697 a 10 10 0 0 0 10 -10 v -70 a 10 10 0 0 1 10 -10"></path><path d="M 1128.5 607 a 10 10 0 0 1 10 10 v 100 a 10 10 0 0 0 10 10"></path><g class="non-terminal ">
<path d="M 1148.5 727 h 34.0"></path><path d="M 1253.5 727 h 34.0"></path><rect height="22" width="71.0" x="1182.5" y="716"></rect><text x="1218.0" y="731">Figure</text></g><path d="M 1287.5 727 a 10 10 0 0 0 10 -10 v -100 a 10 10 0 0 1 10 -10"></path><path d="M 1128.5 607 a 10 10 0 0 1 10 10 v 130 a 10 10 0 0 0 10 10"></path><g class="non-terminal ">
<path d="M 1148.5 757 h 21.25"></path><path d="M 1266.25 757 h 21.25"></path><rect height="22" width="96.5" x="1169.75" y="746"></rect><text x="1218.0" y="761">Milestone</text></g><path d="M 1287.5 757 a 10 10 0 0 0 10 -10 v -130 a 10 10 0 0 1 10 -10"></path><path d="M 1128.5 607 a 10 10 0 0 1 10 10 v 160 a 10 10 0 0 0 10 10"></path><g class="non-terminal ">
<path d="M 1148.5 787 h 25.5"></path><path d="M 1262.0 787 h 25.5"></path><rect height="22" width="88.0" x="1174.0" y="776"></rect><text x="1218.0" y="791">Footnote</text></g><path d="M 1287.5 787 a 10 10 0 0 0 10 -10 v -160 a 10 10 0 0 1 10 -10"></path><path d="M 1128.5 607 a 10 10 0 0 1 10 10 v 190 a 10 10 0 0 0 10 10"></path><g class="non-terminal ">
<path d="M 1148.5 817 h 0.0"></path><path d="M 1287.5 817 h 0.0"></path><rect height="22" width="139.0" x="1148.5" y="806"></rect><text x="1218.0" y="821">CrossReference</text></g><path d="M 1287.5 817 a 10 10 0 0 0 10 -10 v -190 a 10 10 0 0 1 10 -10"></path><path d="M 1128.5 607 a 10 10 0 0 1 10 10 v 220 a 10 10 0 0 0 10 10"></path><g class="non-terminal ">
<path d="M 1148.5 847 h 42.5"></path><path d="M 1245.0 847 h 42.5"></path><rect height="22" width="54.0" x="1191.0" y="836"></rect><text x="1218.0" y="851">List</text></g><path d="M 1287.5 847 a 10 10 0 0 0 10 -10 v -220 a 10 10 0 0 1 10 -10"></path><path d="M 1128.5 607 a 10 10 0 0 1 10 10 v 250 a 10 10 0 0 0 10 10"></path><g class="non-terminal ">
<path d="M 1148.5 877 h 38.25"></path><path d="M 1249.25 877 h 38.25"></path><rect height="22" width="62.5" x="1186.75" y="866"></rect><text x="1218.0" y="881">Table</text></g><path d="M 1287.5 877 a 10 10 0 0 0 10 -10 v -250 a 10 10 0 0 1 10 -10"></path><path d="M 1128.5 607 a 10 10 0 0 1 10 10 v 280 a 10 10 0 0 0 10 10"></path><g class="non-terminal ">
<path d="M 1148.5 907 h 29.75"></path><path d="M 1257.75 907 h 29.75"></path><rect height="22" width="79.5" x="1178.25" y="896"></rect><text x="1218.0" y="911">Sidebar</text></g><path d="M 1287.5 907 a 10 10 0 0 0 10 -10 v -280 a 10 10 0 0 1 10 -10"></path></g><path d="M 1307.5 607 h 10"></path><path d="M 1128.5 607 a 10 10 0 0 0 -10 10 v 309 a 10 10 0 0 0 10 10"></path><g>
<path d="M 1128.5 936 h 179.0"></path></g><path d="M 1307.5 936 a 10 10 0 0 0 10 -10 v -309 a 10 10 0 0 0 -10 -10"></path></g><path d="M 1317.5 607 h 20"></path></g></g><path d="M 1449.0 607 h 10"></path><path d="M 1459.0 607 h 0.0"></path></g></g><path d="M 1459.0 607 h 10"></path><path d="M 1469.0 607 h 20 m 0 -10 v 20"></path></g></svg>