<svg class="railroad-diagram" height="1198" viewBox="0 0 805.5 1198" width="805.5" xmlns="http://www.w3.org/2000/svg" xmlns:xlink="http://www.w3.org/1999/xlink">
<g transform="translate(.5 .5)">
<style>/* <![CDATA[ */

    svg.railroad-diagram {
        background-color: hsl(30,20%,95%);
    }
    svg.railroad-diagram path {
        stroke-width: 2;
        stroke: black;
        fill: none;
    }
    svg.railroad-diagram text {
        font-size: 12px;
        text-anchor: middle;
        font-family: DejaVu Sans;
    }
    svg.railroad-diagram text.label {
        text-anchor:start;
    }
    svg.railroad-diagram text.comment {
        font-family: DejaVu Sans;
        font-size: 14px;
    }
    svg.railroad-diagram rect{
        stroke-width: 2;
        stroke: black;
        fill: rgb(210, 255, 210);
    }
    svg.railroad-diagram rect.group-box {
        stroke: gray;
        stroke-dasharray: 10 5;
        fill: none;
    }
    .terminal {
        font-family: DejaVu Sans;
    }
    svg.railroad-diagram g.altterminal rect {
        fill: rgb(251, 252, 207)
    }

/* ]]> */
</style><g>
<path d="M 20 21 v 20 m 0 -10 h 20"></path></g><path d="M 40 31 h 10"></path><g>
<path d="M 50 31 h 0.0"></path><path d="M 755.5 929 h 0.0"></path><g>
<path d="M 50.0 31 h 0.0"></path><path d="M 50.0 31 h 10"></path><g class="terminal ">
<path d="M 60.0 31 h 290.25"></path><path d="M 455.25 31 h 290.25"></path><rect height="22" rx="10" ry="10" width="105.0" x="350.25" y="20"></rect><text x="402.75" y="35">'\periph '</text></g><path d="M 745.5 31 a 10 10 0 0 1 10 10 v 0 a 10 10 0 0 1 -10 10 h -685.5 a 10 10 0 0 0 -10 10 v 0 a 10 10 0 0 0 10 10"></path><g>
<path d="M 60.0 71 h 220.5"></path><path d="M 525.0 71 h 220.5"></path><path d="M 280.5 71 h 20"></path><g>
<path d="M 300.5 71 h 204.5"></path></g><path d="M 505.0 71 h 20"></path><path d="M 280.5 71 a 10 10 0 0 1 10 10 v 0 a 10 10 0 0 0 10 10"></path><g>
<path d="M 300.5 91 h 0.0"></path><path d="M 505.0 91 h 0.0"></path><g>
<path d="M 300.5 91 h 0.0"></path><path d="M 505.0 91 h 0.0"></path><g class="terminal ">
<path d="M 300.5 91 h 0.0"></path><path d="M 354.5 91 h 0.0"></path><rect height="22" rx="10" ry="10" width="54.0" x="300.5" y="80"></rect><text x="327.5" y="95">TEXT</text></g><path d="M 354.5 91 h 10"></path><path d="M 364.5 91 h 10"></path><g class="terminal ">
<path d="M 374.5 91 h 0.0"></path><path d="M 505.0 91 h 0.0"></path><rect height="22" rx="10" ry="10" width="130.5" x="374.5" y="80"></rect><text x="439.75" y="95">ATTRIBTEXTEND</text></g></g></g><path d="M 505.0 91 a 10 10 0 0 0 10 -10 v 0 a 10 10 0 0 1 10 -10"></path></g><path d="M 745.5 71 a 10 10 0 0 1 10 10 v 29 a 10 10 0 0 1 -10 10 h -685.5 a 10 10 0 0 0 -10 10 v 107 a 10 10 0 0 0 10 10"></path><g>
<path d="M 60.0 247 h 10.0"></path><path d="M 735.5 247 h 10.0"></path><g>
<path d="M 70.0 247 h 0.0"></path><path d="M 164.0 247 h 0.0"></path><path d="M 70.0 247 h 20"></path><g class="terminal ">
<path d="M 90.0 247 h 4.25"></path><path d="M 139.75 247 h 4.25"></path><rect height="22" rx="10" ry="10" width="45.5" x="94.25" y="236"></rect><text x="117.0" y="251">'|'</text></g><path d="M 144.0 247 h 20"></path><path d="M 70.0 247 a 10 10 0 0 1 10 10 v 10 a 10 10 0 0 0 10 10"></path><g class="terminal altterminal">
<path d="M 90.0 277 h 0.0"></path><path d="M 144.0 277 h 0.0"></path><rect height="22" rx="10" ry="10" width="54.0" x="90.0" y="266"></rect><text x="117.0" y="281">PIPE</text></g><path d="M 144.0 277 a 10 10 0 0 0 10 -10 v -10 a 10 10 0 0 1 10 -10"></path></g><path d="M 164.0 247 h 10"></path><g>
<path d="M 174.0 247 h 0.0"></path><path d="M 663.0 247 h 0.0"></path><path d="M 174.0 247 a 10 10 0 0 0 10 -10 v -99 a 10 10 0 0 1 10 -10 h 197.5"></path><path d="M 411.5 576 h 231.5 a 10 10 0 0 0 10 -10 v -309 a 10 10 0 0 1 10 -10"></path><path d="M 174.0 247 h 10"></path><g>
<path d="M 184.0 247 h 10.0"></path><path d="M 381.5 247 h 10.0"></path><path d="M 194.0 247 a 10 10 0 0 0 10 -10 v -10 a 10 10 0 0 1 10 -10"></path><g class="terminal ">
<path d="M 214.0 217 h 34.0"></path><path d="M 327.5 217 h 34.0"></path><rect height="22" rx="10" ry="10" width="79.5" x="248.0" y="206"></rect><text x="287.75" y="221">"promo"</text></g><path d="M 361.5 217 a 10 10 0 0 1 10 10 v 10 a 10 10 0 0 0 10 10"></path><path d="M 194.0 247 a 10 10 0 0 0 10 -10 v -40 a 10 10 0 0 1 10 -10"></path><g class="terminal ">
<path d="M 214.0 187 h 17.0"></path><path d="M 344.5 187 h 17.0"></path><rect height="22" rx="10" ry="10" width="113.5" x="231.0" y="176"></rect><text x="287.75" y="191">"halftitle"</text></g><path d="M 361.5 187 a 10 10 0 0 1 10 10 v 40 a 10 10 0 0 0 10 10"></path><path d="M 194.0 247 a 10 10 0 0 0 10 -10 v -70 a 10 10 0 0 1 10 -10"></path><g class="terminal ">
<path d="M 214.0 157 h 34.0"></path><path d="M 327.5 157 h 34.0"></path><rect height="22" rx="10" ry="10" width="79.5" x="248.0" y="146"></rect><text x="287.75" y="161">"title"</text></g><path d="M 361.5 157 a 10 10 0 0 1 10 10 v 70 a 10 10 0 0 0 10 10"></path><path d="M 194.0 247 h 20"></path><g class="terminal ">
<path d="M 214.0 247 h 12.75"></path><path d="M 348.75 247 h 12.75"></path><rect height="22" rx="10" ry="10" width="122.0" x="226.75" y="236"></rect><text x="287.75" y="251">"imprimatur"</text></g><path d="M 361.5 247 h 20"></path><path d="M 194.0 247 a 10 10 0 0 1 10 10 v 10 a 10 10 0 0 0 10 10"></path><g class="terminal ">
<path d="M 214.0 277 h 25.5"></path><path d="M 336.0 277 h 25.5"></path><rect height="22" rx="10" ry="10" width="96.5" x="239.5" y="266"></rect><text x="287.75" y="281">"pubdata"</text></g><path d="M 361.5 277 a 10 10 0 0 0 10 -10 v -10 a 10 10 0 0 1 10 -10"></path><path d="M 194.0 247 a 10 10 0 0 1 10 10 v 40 a 10 10 0 0 0 10 10"></path><g class="terminal ">
<path d="M 214.0 307 h 21.25"></path><path d="M 340.25 307 h 21.25"></path><rect height="22" rx="10" ry="10" width="105.0" x="235.25" y="296"></rect><text x="287.75" y="311">"foreword"</text></g><path d="M 361.5 307 a 10 10 0 0 0 10 -10 v -40 a 10 10 0 0 1 10 -10"></path><path d="M 194.0 247 a 10 10 0 0 1 10 10 v 70 a 10 10 0 0 0 10 10"></path><g class="terminal ">
<path d="M 214.0 337 h 25.5"></path><path d="M 336.0 337 h 25.5"></path><rect height="22" rx="10" ry="10" width="96.5" x="239.5" y="326"></rect><text x="287.75" y="341">"preface"</text></g><path d="M 361.5 337 a 10 10 0 0 0 10 -10 v -70 a 10 10 0 0 1 10 -10"></path><path d="M 194.0 247 a 10 10 0 0 1 10 10 v 100 a 10 10 0 0 0 10 10"></path><g class="terminal ">
<path d="M 214.0 367 h 21.25"></path><path d="M 340.25 367 h 21.25"></path><rect height="22" rx="10" ry="10" width="105.0" x="235.25" y="356"></rect><text x="287.75" y="371">"contents"</text></g><path d="M 361.5 367 a 10 10 0 0 0 10 -10 v -100 a 10 10 0 0 1 10 -10"></path><path d="M 194.0 247 a 10 10 0 0 1 10 10 v 130 a 10 10 0 0 0 10 10"></path><g class="terminal ">
<path d="M 214.0 397 h 0.0"></path><path d="M 361.5 397 h 0.0"></path><rect height="22" rx="10" ry="10" width="147.5" x="214.0" y="386"></rect><text x="287.75" y="401">"alphacontents"</text></g><path d="M 361.5 397 a 10 10 0 0 0 10 -10 v -130 a 10 10 0 0 1 10 -10"></path><path d="M 194.0 247 a 10 10 0 0 1 10 10 v 160 a 10 10 0 0 0 10 10"></path><g class="terminal ">
<path d="M 214.0 427 h 0.0"></path><path d="M 361.5 427 h 0.0"></path><rect height="22" rx="10" ry="10" width="147.5" x="214.0" y="416"></rect><text x="287.75" y="431">"abbreviations"</text></g><path d="M 361.5 427 a 10 10 0 0 0 10 -10 v -160 a 10 10 0 0 1 10 -10"></path><path d="M 194.0 247 a 10 10 0 0 1 10 10 v 190 a 10 10 0 0 0 10 10"></path><g class="terminal ">
<path d="M 214.0 457 h 21.25"></path><path d="M 340.25 457 h 21.25"></path><rect height="22" rx="10" ry="10" width="105.0" x="235.25" y="446"></rect><text x="287.75" y="461">"intbible"</text></g><path d="M 361.5 457 a 10 10 0 0 0 10 -10 v -190 a 10 10 0 0 1 10 -10"></path><path d="M 194.0 247 a 10 10 0 0 1 10 10 v 220 a 10 10 0 0 0 10 10"></path><g class="terminal ">
<path d="M 214.0 487 h 34.0"></path><path d="M 327.5 487 h 34.0"></path><rect height="22" rx="10" ry="10" width="79.5" x="248.0" y="476"></rect><text x="287.75" y="491">"intot"</text></g><path d="M 361.5 487 a 10 10 0 0 0 10 -10 v -220 a 10 10 0 0 1 10 -10"></path><path d="M 194.0 247 a 10 10 0 0 1 10 10 v 250 a 10 10 0 0 0 10 10"></path><g class="terminal ">
<path d="M 214.0 517 h 25.5"></path><path d="M 336.0 517 h 25.5"></path><rect height="22" rx="10" ry="10" width="96.5" x="239.5" y="506"></rect><text x="287.75" y="521">"intpent"</text></g><path d="M 361.5 517 a 10 10 0 0 0 10 -10 v -250 a 10 10 0 0 1 10 -10"></path><path d="M 194.0 247 a 10 10 0 0 1 10 10 v 280 a 10 10 0 0 0 10 10"></path><g class="terminal ">
<path d="M 214.0 547 h 12.75"></path><path d="M 348.75 547 h 12.75"></path><rect height="22" rx="10" ry="10" width="122.0" x="226.75" y="536"></rect><text x="287.75" y="551">"inthistory"</text></g><path d="M 361.5 547 a 10 10 0 0 0 10 -10 v -280 a 10 10 0 0 1 10 -10"></path><path d="M 194.0 247 a 10 10 0 0 1 10 10 v 310 a 10 10 0 0 0 10 10"></path><g class="terminal ">
<path d="M 214.0 577 h 17.0"></path><path d="M 344.5 577 h 17.0"></path><rect height="22" rx="10" ry="10" width="113.5" x="231.0" y="566"></rect><text x="287.75" y="581">"intpoetry"</text></g><path d="M 361.5 577 a 10 10 0 0 0 10 -10 v -310 a 10 10 0 0 1 10 -10"></path></g><path d="M 391.5 247 a 10 10 0 0 1 10 10 v 309 a 10 10 0 0 0 10 10"></path><path d="M 391.5 128 a 10 10 0 0 1 10 10 v 99 a 10 10 0 0 0 10 10"></path><g>
<path d="M 411.5 247 h 10.0"></path><path d="M 643.0 247 h 10.0"></path><path d="M 421.5 247 a 10 10 0 0 0 10 -10 v -10 a 10 10 0 0 1 10 -10"></path><g class="terminal ">
<path d="M 441.5 217 h 51.0"></path><path d="M 572.0 217 h 51.0"></path><rect height="22" rx="10" ry="10" width="79.5" x="492.5" y="206"></rect><text x="532.25" y="221">"intnt"</text></g><path d="M 623.0 217 a 10 10 0 0 1 10 10 v 10 a 10 10 0 0 0 10 10"></path><path d="M 421.5 247 a 10 10 0 0 0 10 -10 v -40 a 10 10 0 0 1 10 -10"></path><g class="terminal ">
<path d="M 441.5 187 h 51.0"></path><path d="M 572.0 187 h 51.0"></path><rect height="22" rx="10" ry="10" width="79.5" x="492.5" y="176"></rect><text x="532.25" y="191">"intdc"</text></g><path d="M 623.0 187 a 10 10 0 0 1 10 10 v 40 a 10 10 0 0 0 10 10"></path><path d="M 421.5 247 a 10 10 0 0 0 10 -10 v -70 a 10 10 0 0 1 10 -10"></path><g class="terminal ">
<path d="M 441.5 157 h 25.5"></path><path d="M 597.5 157 h 25.5"></path><rect height="22" rx="10" ry="10" width="130.5" x="467.0" y="146"></rect><text x="532.25" y="161">"intprophesy"</text></g><path d="M 623.0 157 a 10 10 0 0 1 10 10 v 70 a 10 10 0 0 0 10 10"></path><path d="M 421.5 247 h 20"></path><g class="terminal ">
<path d="M 441.5 247 h 29.75"></path><path d="M 593.25 247 h 29.75"></path><rect height="22" rx="10" ry="10" width="122.0" x="471.25" y="236"></rect><text x="532.25" y="251">"intgospels"</text></g><path d="M 623.0 247 h 20"></path><path d="M 421.5 247 a 10 10 0 0 1 10 10 v 10 a 10 10 0 0 0 10 10"></path><g class="terminal ">
<path d="M 441.5 277 h 25.5"></path><path d="M 597.5 277 h 25.5"></path><rect height="22" rx="10" ry="10" width="130.5" x="467.0" y="266"></rect><text x="532.25" y="281">"intepistles"</text></g><path d="M 623.0 277 a 10 10 0 0 0 10 -10 v -10 a 10 10 0 0 1 10 -10"></path><path d="M 421.5 247 a 10 10 0 0 1 10 10 v 40 a 10 10 0 0 0 10 10"></path><g class="terminal ">
<path d="M 441.5 307 h 29.75"></path><path d="M 593.25 307 h 29.75"></path><rect height="22" rx="10" ry="10" width="122.0" x="471.25" y="296"></rect><text x="532.25" y="311">"intletters"</text></g><path d="M 623.0 307 a 10 10 0 0 0 10 -10 v -40 a 10 10 0 0 1 10 -10"></path><path d="M 421.5 247 a 10 10 0 0 1 10 10 v 70 a 10 10 0 0 0 10 10"></path><g class="terminal ">
<path d="M 441.5 337 h 51.0"></path><path d="M 572.0 337 h 51.0"></path><rect height="22" rx="10" ry="10" width="79.5" x="492.5" y="326"></rect><text x="532.25" y="341">"chron"</text></g><path d="M 623.0 337 a 10 10 0 0 0 10 -10 v -70 a 10 10 0 0 1 10 -10"></path><path d="M 421.5 247 a 10 10 0 0 1 10 10 v 100 a 10 10 0 0 0 10 10"></path><g class="terminal ">
<path d="M 441.5 367 h 38.25"></path><path d="M 584.75 367 h 38.25"></path><rect height="22" rx="10" ry="10" width="105.0" x="479.75" y="356"></rect><text x="532.25" y="371">"measures"</text></g><path d="M 623.0 367 a 10 10 0 0 0 10 -10 v -100 a 10 10 0 0 1 10 -10"></path><path d="M 421.5 247 a 10 10 0 0 1 10 10 v 130 a 10 10 0 0 0 10 10"></path><g class="terminal ">
<path d="M 441.5 397 h 55.25"></path><path d="M 567.75 397 h 55.25"></path><rect height="22" rx="10" ry="10" width="71.0" x="496.75" y="386"></rect><text x="532.25" y="401">"maps"</text></g><path d="M 623.0 397 a 10 10 0 0 0 10 -10 v -130 a 10 10 0 0 1 10 -10"></path><path d="M 421.5 247 a 10 10 0 0 1 10 10 v 160 a 10 10 0 0 0 10 10"></path><g class="terminal ">
<path d="M 441.5 427 h 34.0"></path><path d="M 589.0 427 h 34.0"></path><rect height="22" rx="10" ry="10" width="113.5" x="475.5" y="416"></rect><text x="532.25" y="431">"lxxquotes"</text></g><path d="M 623.0 427 a 10 10 0 0 0 10 -10 v -160 a 10 10 0 0 1 10 -10"></path><path d="M 421.5 247 a 10 10 0 0 1 10 10 v 190 a 10 10 0 0 0 10 10"></path><g class="terminal ">
<path d="M 441.5 457 h 51.0"></path><path d="M 572.0 457 h 51.0"></path><rect height="22" rx="10" ry="10" width="79.5" x="492.5" y="446"></rect><text x="532.25" y="461">"cover"</text></g><path d="M 623.0 457 a 10 10 0 0 0 10 -10 v -190 a 10 10 0 0 1 10 -10"></path><path d="M 421.5 247 a 10 10 0 0 1 10 10 v 220 a 10 10 0 0 0 10 10"></path><g class="terminal ">
<path d="M 441.5 487 h 51.0"></path><path d="M 572.0 487 h 51.0"></path><rect height="22" rx="10" ry="10" width="79.5" x="492.5" y="476"></rect><text x="532.25" y="491">"spine"</text></g><path d="M 623.0 487 a 10 10 0 0 0 10 -10 v -220 a 10 10 0 0 1 10 -10"></path><path d="M 421.5 247 a 10 10 0 0 1 10 10 v 250 a 10 10 0 0 0 10 10"></path><g class="terminal ">
<path d="M 441.5 517 h 63.75"></path><path d="M 559.25 517 h 63.75"></path><rect height="22" rx="10" ry="10" width="54.0" x="505.25" y="506"></rect><text x="532.25" y="521">TEXT</text></g><path d="M 623.0 517 a 10 10 0 0 0 10 -10 v -250 a 10 10 0 0 1 10 -10"></path><path d="M 421.5 247 a 10 10 0 0 1 10 10 v 280 a 10 10 0 0 0 10 10"></path><g class="terminal ">
<path d="M 441.5 547 h 0.0"></path><path d="M 623.0 547 h 0.0"></path><rect height="22" rx="10" ry="10" width="181.5" x="441.5" y="536"></rect><text x="532.25" y="551">/x\-&#91;\p{L}&#95;\-\.:&#93;+/</text></g><path d="M 623.0 547 a 10 10 0 0 0 10 -10 v -280 a 10 10 0 0 1 10 -10"></path></g><path d="M 653.0 247 h 10"></path></g><path d="M 663.0 247 h 10"></path><g class="terminal ">
<path d="M 673.0 247 h 0.0"></path><path d="M 735.5 247 h 0.0"></path><rect height="22" rx="10" ry="10" width="62.5" x="673.0" y="236"></rect><text x="704.25" y="251">'id='</text></g></g><path d="M 745.5 247 a 10 10 0 0 1 10 10 v 339 a 10 10 0 0 1 -10 10 h -685.5 a 10 10 0 0 0 -10 10 v 18 a 10 10 0 0 0 10 10"></path><g>
<path d="M 60.0 644 h 256.0"></path><path d="M 489.5 644 h 256.0"></path><path d="M 316.0 644 a 10 10 0 0 0 10 -10 v 0 a 10 10 0 0 1 10 -10"></path><g>
<path d="M 336.0 624 h 133.5"></path></g><path d="M 469.5 624 a 10 10 0 0 1 10 10 v 0 a 10 10 0 0 0 10 10"></path><path d="M 316.0 644 h 20"></path><g>
<path d="M 336.0 644 h 0.0"></path><path d="M 469.5 644 h 0.0"></path><path d="M 336.0 644 h 10"></path><g class="non-terminal ">
<path d="M 346.0 644 h 0.0"></path><path d="M 459.5 644 h 0.0"></path><rect height="22" width="113.5" x="346.0" y="633"></rect><text x="402.75" y="648">BookHeaders</text></g><path d="M 459.5 644 h 10"></path><path d="M 346.0 644 a 10 10 0 0 0 -10 10 v 0 a 10 10 0 0 0 10 10"></path><g>
<path d="M 346.0 664 h 113.5"></path></g><path d="M 459.5 664 a 10 10 0 0 0 10 -10 v 0 a 10 10 0 0 0 -10 -10"></path></g><path d="M 469.5 644 h 20"></path></g><path d="M 745.5 644 a 10 10 0 0 1 10 10 v 18 a 10 10 0 0 1 -10 10 h -685.5 a 10 10 0 0 0 -10 10 v 0 a 10 10 0 0 0 10 10"></path><g>
<path d="M 60.0 702 h 280.25"></path><path d="M 465.25 702 h 280.25"></path><path d="M 340.25 702 h 10"></path><g class="non-terminal ">
<path d="M 350.25 702 h 0.0"></path><path d="M 455.25 702 h 0.0"></path><rect height="22" width="105.0" x="350.25" y="691"></rect><text x="402.75" y="706">BookTitles</text></g><path d="M 455.25 702 h 10"></path><path d="M 350.25 702 a 10 10 0 0 0 -10 10 v 0 a 10 10 0 0 0 10 10"></path><g>
<path d="M 350.25 722 h 105.0"></path></g><path d="M 455.25 722 a 10 10 0 0 0 10 -10 v 0 a 10 10 0 0 0 -10 -10"></path></g><path d="M 745.5 702 a 10 10 0 0 1 10 10 v 8 a 10 10 0 0 1 -10 10 h -685.5 a 10 10 0 0 0 -10 10 v 18 a 10 10 0 0 0 10 10"></path><g>
<path d="M 60.0 768 h 234.75"></path><path d="M 510.75 768 h 234.75"></path><path d="M 294.75 768 a 10 10 0 0 0 10 -10 v 0 a 10 10 0 0 1 10 -10"></path><g>
<path d="M 314.75 748 h 176.0"></path></g><path d="M 490.75 748 a 10 10 0 0 1 10 10 v 0 a 10 10 0 0 0 10 10"></path><path d="M 294.75 768 h 20"></path><g>
<path d="M 314.75 768 h 0.0"></path><path d="M 490.75 768 h 0.0"></path><path d="M 314.75 768 h 10"></path><g class="non-terminal ">
<path d="M 324.75 768 h 0.0"></path><path d="M 480.75 768 h 0.0"></path><rect height="22" width="156.0" x="324.75" y="757"></rect><text x="402.75" y="772">BookIntroduction</text></g><path d="M 480.75 768 h 10"></path><path d="M 324.75 768 a 10 10 0 0 0 -10 10 v 0 a 10 10 0 0 0 10 10"></path><g>
<path d="M 324.75 788 h 156.0"></path></g><path d="M 480.75 788 a 10 10 0 0 0 10 -10 v 0 a 10 10 0 0 0 -10 -10"></path></g><path d="M 490.75 768 h 20"></path></g><path d="M 745.5 768 a 10 10 0 0 1 10 10 v 18 a 10 10 0 0 1 -10 10 h -685.5 a 10 10 0 0 0 -10 10 v 18 a 10 10 0 0 0 10 10"></path><g>
<path d="M 60.0 844 h 196.5"></path><path d="M 549.0 844 h 196.5"></path><path d="M 256.5 844 a 10 10 0 0 0 10 -10 v 0 a 10 10 0 0 1 10 -10"></path><g>
<path d="M 276.5 824 h 252.5"></path></g><path d="M 529.0 824 a 10 10 0 0 1 10 10 v 0 a 10 10 0 0 0 10 10"></path><path d="M 256.5 844 h 20"></path><g>
<path d="M 276.5 844 h 0.0"></path><path d="M 529.0 844 h 0.0"></path><path d="M 276.5 844 h 10"></path><g class="non-terminal ">
<path d="M 286.5 844 h 0.0"></path><path d="M 519.0 844 h 0.0"></path><rect height="22" width="232.5" x="286.5" y="833"></rect><text x="402.75" y="848">BookIntroductionEndTitles</text></g><path d="M 519.0 844 h 10"></path><path d="M 286.5 844 a 10 10 0 0 0 -10 10 v 0 a 10 10 0 0 0 10 10"></path><g>
<path d="M 286.5 864 h 232.5"></path></g><path d="M 519.0 864 a 10 10 0 0 0 10 -10 v 0 a 10 10 0 0 0 -10 -10"></path></g><path d="M 529.0 844 h 20"></path></g><path d="M 745.5 844 a 10 10 0 0 1 10 10 v 18 a 10 10 0 0 1 -10 10 h -685.5 a 10 10 0 0 0 -10 10 v 27 a 10 10 0 0 0 10 10"></path><g>
<path d="M 60.0 929 h 223.25"></path><path d="M 522.25 929 h 223.25"></path><path d="M 283.25 929 a 10 10 0 0 0 10 -10 v -9 a 10 10 0 0 1 10 -10"></path><g>
<path d="M 303.25 900 h 199.0"></path></g><path d="M 502.25 900 a 10 10 0 0 1 10 10 v 9 a 10 10 0 0 0 10 10"></path><path d="M 283.25 929 h 20"></path><g>
<path d="M 303.25 929 h 0.0"></path><path d="M 502.25 929 h 0.0"></path><path d="M 303.25 929 h 10"></path><g>
<path d="M 313.25 929 h 0.0"></path><path d="M 492.25 929 h 0.0"></path><path d="M 313.25 929 h 20"></path><g class="non-terminal ">
<path d="M 333.25 929 h 29.75"></path><path d="M 442.5 929 h 29.75"></path><rect height="22" width="79.5" x="363.0" y="918"></rect><text x="402.75" y="933">Chapter</text></g><path d="M 472.25 929 h 20"></path><path d="M 313.25 929 a 10 10 0 0 1 10 10 v 10 a 10 10 0 0 0 10 10"></path><g class="non-terminal ">
<path d="M 333.25 959 h 29.75"></path><path d="M 442.5 959 h 29.75"></path><rect height="22" width="79.5" x="363.0" y="948"></rect><text x="402.75" y="963">Section</text></g><path d="M 472.25 959 a 10 10 0 0 0 10 -10 v -10 a 10 10 0 0 1 10 -10"></path><path d="M 313.25 929 a 10 10 0 0 1 10 10 v 40 a 10 10 0 0 0 10 10"></path><g class="non-terminal ">
<path d="M 333.25 989 h 42.5"></path><path d="M 429.75 989 h 42.5"></path><rect height="22" width="54.0" x="375.75" y="978"></rect><text x="402.75" y="993">Para</text></g><path d="M 472.25 989 a 10 10 0 0 0 10 -10 v -40 a 10 10 0 0 1 10 -10"></path><path d="M 313.25 929 a 10 10 0 0 1 10 10 v 70 a 10 10 0 0 0 10 10"></path><g class="non-terminal ">
<path d="M 333.25 1019 h 42.5"></path><path d="M 429.75 1019 h 42.5"></path><rect height="22" width="54.0" x="375.75" y="1008"></rect><text x="402.75" y="1023">List</text></g><path d="M 472.25 1019 a 10 10 0 0 0 10 -10 v -70 a 10 10 0 0 1 10 -10"></path><path d="M 313.25 929 a 10 10 0 0 1 10 10 v 100 a 10 10 0 0 0 10 10"></path><g class="non-terminal ">
<path d="M 333.25 1049 h 38.25"></path><path d="M 434.0 1049 h 38.25"></path><rect height="22" width="62.5" x="371.5" y="1038"></rect><text x="402.75" y="1053">Table</text></g><path d="M 472.25 1049 a 10 10 0 0 0 10 -10 v -100 a 10 10 0 0 1 10 -10"></path><path d="M 313.25 929 a 10 10 0 0 1 10 10 v 130 a 10 10 0 0 0 10 10"></path><g class="non-terminal ">
<path d="M 333.25 1079 h 25.5"></path><path d="M 446.75 1079 h 25.5"></path><rect height="22" width="88.0" x="358.75" y="1068"></rect><text x="402.75" y="1083">Footnote</text></g><path d="M 472.25 1079 a 10 10 0 0 0 10 -10 v -130 a 10 10 0 0 1 10 -10"></path><path d="M 313.25 929 a 10 10 0 0 1 10 10 v 160 a 10 10 0 0 0 10 10"></path><g class="non-terminal ">
<path d="M 333.25 1109 h 0.0"></path><path d="M 472.25 1109 h 0.0"></path><rect height="22" width="139.0" x="333.25" y="1098"></rect><text x="402.75" y="1113">CrossReference</text></g><path d="M 472.25 1109 a 10 10 0 0 0 10 -10 v -160 a 10 10 0 0 1 10 -10"></path><path d="M 313.25 929 a 10 10 0 0 1 10 10 v 190 a 10 10 0 0 0 10 10"></path><g class="non-terminal ">
<path d="M 333.25 1139 h 29.75"></path><path d="M 442.5 1139 h 29.75"></path><rect height="22" width="79.5" x="363.0" y="1128"></rect><text x="402.75" y="1143">Sidebar</text></g><path d="M 472.25 1139 a 10 10 0 0 0 10 -10 v -190 a 10 10 0 0 1 10 -10"></path></g><path d="M 492.25 929 h 10"></path><path d="M 313.25 929 a 10 10 0 0 0 -10 10 v 219 a 10 10 0 0 0 10 10"></path><g>
<path d="M 313.25 1168 h 179.0"></path></g><path d="M 492.25 1168 a 10 10 0 0 0 10 -10 v -219 a 10 10 0 0 0 -10 -10"></path></g><path d="M 502.25 929 h 20"></path></g><path d="M 745.5 929 h 10"></path><path d="M 755.5 929 h 0.0"></path></g></g><path d="M 755.5 929 h 10"></path><path d="M 765.5 929 h 20 m 0 -10 v 20"></path></g></svg>