<svg class="railroad-diagram" height="906" viewBox="0 0 1395.0 906" width="1395.0" xmlns="http://www.w3.org/2000/svg" xmlns:xlink="http://www.w3.org/1999/xlink">
<g transform="translate(.5 .5)">
<style>/* <![CDATA[ */

    svg.railroad-diagram {
        background-color: hsl(30,20%,95%);
    }
    svg.railroad-diagram path {
        stroke-width: 2;
        stroke: black;
        fill: none;
    }
    svg.railroad-diagram text {
        font-size: 12px;
        text-anchor: middle;
        font-family: DejaVu Sans;
    }
    svg.railroad-diagram text.label {
        text-anchor:start;
    }
    svg.railroad-diagram text.comment {
        font-family: DejaVu Sans;
        font-size: 14px;
    }
    svg.railroad-diagram rect{
        stroke-width: 2;
        stroke: black;
        fill: rgb(210, 255, 210);
    }
    svg.railroad-diagram rect.group-box {
        stroke: gray;
        stroke-dasharray: 10 5;
        fill: none;
    }
    .terminal {
        font-family: DejaVu Sans;
    }
    svg.railroad-diagram g.altterminal rect {
        fill: rgb(251, 252, 207)
    }

/* ]]> */
</style><g>
<path d="M 20 31 v 20 m 0 -10 h 20"></path></g><path d="M 40 41 h 10"></path><g>
<path d="M 50 41 h 0.0"></path><path d="M 1345.0 607 h 0.0"></path><g>
<path d="M 50.0 41 h 0.0"></path><path d="M 50.0 41 h 10"></path><g>
<path d="M 60.0 41 h 522.5"></path><path d="M 812.5 41 h 522.5"></path><path d="M 582.5 41 h 20"></path><g class="terminal ">
<path d="M 602.5 41 h 38.25"></path><path d="M 754.25 41 h 38.25"></path><rect height="22" rx="10" ry="10" width="113.5" x="640.75" y="30"></rect><text x="697.5" y="45">'\\periph '</text></g><path d="M 792.5 41 h 20"></path><path d="M 582.5 41 a 10 10 0 0 1 10 10 v 10 a 10 10 0 0 0 10 10"></path><g class="terminal altterminal">
<path d="M 602.5 71 h 0.0"></path><path d="M 792.5 71 h 0.0"></path><rect height="22" rx="10" ry="10" width="190.0" x="602.5" y="60"></rect><text x="697.5" y="75">/${Ws}\\periph${HS}/</text></g><path d="M 792.5 71 a 10 10 0 0 0 10 -10 v -10 a 10 10 0 0 1 10 -10"></path></g><path d="M 1335.0 41 a 10 10 0 0 1 10 10 v 39 a 10 10 0 0 1 -10 10 h -1275.0 a 10 10 0 0 0 -10 10 v 8 a 10 10 0 0 0 10 10"></path><g>
<path d="M 60.0 128 h 10.0"></path><path d="M 1325.0 197 h 10.0"></path><path d="M 70.0 128 h 20"></path><g>
<path d="M 90.0 128 h 0.0"></path><path d="M 90.0 128 h 10"></path><g>
<path d="M 100.0 128 h 512.25"></path><path d="M 782.75 128 h 512.25"></path><path d="M 612.25 128 h 20"></path><g>
<path d="M 632.25 128 h 130.5"></path></g><path d="M 762.75 128 h 20"></path><path d="M 612.25 128 a 10 10 0 0 1 10 10 v 0 a 10 10 0 0 0 10 10"></path><g>
<path d="M 632.25 148 h 0.0"></path><path d="M 762.75 148 h 0.0"></path><g>
<path d="M 632.25 148 h 0.0"></path><path d="M 762.75 148 h 0.0"></path><g class="terminal ">
<path d="M 632.25 148 h 0.0"></path><path d="M 762.75 148 h 0.0"></path><rect height="22" rx="10" ry="10" width="130.5" x="632.25" y="137"></rect><text x="697.5" y="152">TEXTNOTATTRIB</text></g></g></g><path d="M 762.75 148 a 10 10 0 0 0 10 -10 v 0 a 10 10 0 0 1 10 -10"></path></g><path d="M 1295.0 128 a 10 10 0 0 1 10 10 v 29 a 10 10 0 0 1 -10 10 h -1195.0 a 10 10 0 0 0 -10 10 v 0 a 10 10 0 0 0 10 10"></path><g>
<path d="M 100.0 197 h 10.0"></path><path d="M 1285.0 197 h 10.0"></path><path d="M 110.0 197 h 20"></path><g>
<path d="M 130.0 197 h 1135.0"></path></g><path d="M 1265.0 197 h 20"></path><path d="M 110.0 197 a 10 10 0 0 1 10 10 v 107 a 10 10 0 0 0 10 10"></path><g>
<path d="M 130.0 324 h 0.0"></path><path d="M 1265.0 324 h 0.0"></path><g>
<path d="M 130.0 324 h 0.0"></path><path d="M 224.0 324 h 0.0"></path><path d="M 130.0 324 h 20"></path><g class="terminal ">
<path d="M 150.0 324 h 4.25"></path><path d="M 199.75 324 h 4.25"></path><rect height="22" rx="10" ry="10" width="45.5" x="154.25" y="313"></rect><text x="177.0" y="328">'|'</text></g><path d="M 204.0 324 h 20"></path><path d="M 130.0 324 a 10 10 0 0 1 10 10 v 10 a 10 10 0 0 0 10 10"></path><g class="terminal altterminal">
<path d="M 150.0 354 h 0.0"></path><path d="M 204.0 354 h 0.0"></path><rect height="22" rx="10" ry="10" width="54.0" x="150.0" y="343"></rect><text x="177.0" y="358">PIPE</text></g><path d="M 204.0 354 a 10 10 0 0 0 10 -10 v -10 a 10 10 0 0 1 10 -10"></path></g><path d="M 224.0 324 h 10"></path><path d="M 234.0 324 h 10"></path><g class="terminal ">
<path d="M 244.0 324 h 0.0"></path><path d="M 315.0 324 h 0.0"></path><rect height="22" rx="10" ry="10" width="71.0" x="244.0" y="313"></rect><text x="279.5" y="328">'id="'</text></g><path d="M 315.0 324 h 10"></path><g>
<path d="M 325.0 324 h 0.0"></path><path d="M 1226.5 324 h 0.0"></path><path d="M 325.0 324 a 10 10 0 0 0 10 -10 v -99 a 10 10 0 0 1 10 -10 h 610.0"></path><path d="M 537.0 473 h 669.5 a 10 10 0 0 0 10 -10 v -129 a 10 10 0 0 1 10 -10"></path><path d="M 325.0 324 h 10"></path><g>
<path d="M 335.0 324 h 10.0"></path><path d="M 507.0 324 h 10.0"></path><path d="M 345.0 324 a 10 10 0 0 0 10 -10 v -10 a 10 10 0 0 1 10 -10"></path><g class="terminal ">
<path d="M 365.0 294 h 21.25"></path><path d="M 465.75 294 h 21.25"></path><rect height="22" rx="10" ry="10" width="79.5" x="386.25" y="283"></rect><text x="426.0" y="298">"promo"</text></g><path d="M 487.0 294 a 10 10 0 0 1 10 10 v 10 a 10 10 0 0 0 10 10"></path><path d="M 345.0 324 a 10 10 0 0 0 10 -10 v -40 a 10 10 0 0 1 10 -10"></path><g class="terminal ">
<path d="M 365.0 264 h 4.25"></path><path d="M 482.75 264 h 4.25"></path><rect height="22" rx="10" ry="10" width="113.5" x="369.25" y="253"></rect><text x="426.0" y="268">"halftitle"</text></g><path d="M 487.0 264 a 10 10 0 0 1 10 10 v 40 a 10 10 0 0 0 10 10"></path><path d="M 345.0 324 a 10 10 0 0 0 10 -10 v -70 a 10 10 0 0 1 10 -10"></path><g class="terminal ">
<path d="M 365.0 234 h 21.25"></path><path d="M 465.75 234 h 21.25"></path><rect height="22" rx="10" ry="10" width="79.5" x="386.25" y="223"></rect><text x="426.0" y="238">"title"</text></g><path d="M 487.0 234 a 10 10 0 0 1 10 10 v 70 a 10 10 0 0 0 10 10"></path><path d="M 345.0 324 h 20"></path><g class="terminal ">
<path d="M 365.0 324 h 0.0"></path><path d="M 487.0 324 h 0.0"></path><rect height="22" rx="10" ry="10" width="122.0" x="365.0" y="313"></rect><text x="426.0" y="328">"imprimatur"</text></g><path d="M 487.0 324 h 20"></path><path d="M 345.0 324 a 10 10 0 0 1 10 10 v 10 a 10 10 0 0 0 10 10"></path><g class="terminal ">
<path d="M 365.0 354 h 12.75"></path><path d="M 474.25 354 h 12.75"></path><rect height="22" rx="10" ry="10" width="96.5" x="377.75" y="343"></rect><text x="426.0" y="358">"pubdata"</text></g><path d="M 487.0 354 a 10 10 0 0 0 10 -10 v -10 a 10 10 0 0 1 10 -10"></path><path d="M 345.0 324 a 10 10 0 0 1 10 10 v 40 a 10 10 0 0 0 10 10"></path><g class="terminal ">
<path d="M 365.0 384 h 8.5"></path><path d="M 478.5 384 h 8.5"></path><rect height="22" rx="10" ry="10" width="105.0" x="373.5" y="373"></rect><text x="426.0" y="388">"foreword"</text></g><path d="M 487.0 384 a 10 10 0 0 0 10 -10 v -40 a 10 10 0 0 1 10 -10"></path><path d="M 345.0 324 a 10 10 0 0 1 10 10 v 70 a 10 10 0 0 0 10 10"></path><g class="terminal ">
<path d="M 365.0 414 h 12.75"></path><path d="M 474.25 414 h 12.75"></path><rect height="22" rx="10" ry="10" width="96.5" x="377.75" y="403"></rect><text x="426.0" y="418">"preface"</text></g><path d="M 487.0 414 a 10 10 0 0 0 10 -10 v -70 a 10 10 0 0 1 10 -10"></path><path d="M 345.0 324 a 10 10 0 0 1 10 10 v 100 a 10 10 0 0 0 10 10"></path><g class="terminal ">
<path d="M 365.0 444 h 8.5"></path><path d="M 478.5 444 h 8.5"></path><rect height="22" rx="10" ry="10" width="105.0" x="373.5" y="433"></rect><text x="426.0" y="448">"contents"</text></g><path d="M 487.0 444 a 10 10 0 0 0 10 -10 v -100 a 10 10 0 0 1 10 -10"></path></g><path d="M 517.0 324 a 10 10 0 0 1 10 10 v 129 a 10 10 0 0 0 10 10"></path><path d="M 517.0 205 a 10 10 0 0 1 10 10 v 99 a 10 10 0 0 0 10 10"></path><g>
<path d="M 537.0 324 h 10.0"></path><path d="M 734.5 324 h 10.0"></path><path d="M 547.0 324 a 10 10 0 0 0 10 -10 v -10 a 10 10 0 0 1 10 -10"></path><g class="terminal ">
<path d="M 567.0 294 h 21.25"></path><path d="M 693.25 294 h 21.25"></path><rect height="22" rx="10" ry="10" width="105.0" x="588.25" y="283"></rect><text x="640.75" y="298">"intbible"</text></g><path d="M 714.5 294 a 10 10 0 0 1 10 10 v 10 a 10 10 0 0 0 10 10"></path><path d="M 547.0 324 a 10 10 0 0 0 10 -10 v -40 a 10 10 0 0 1 10 -10"></path><g class="terminal ">
<path d="M 567.0 264 h 0.0"></path><path d="M 714.5 264 h 0.0"></path><rect height="22" rx="10" ry="10" width="147.5" x="567.0" y="253"></rect><text x="640.75" y="268">"abbreviations"</text></g><path d="M 714.5 264 a 10 10 0 0 1 10 10 v 40 a 10 10 0 0 0 10 10"></path><path d="M 547.0 324 a 10 10 0 0 0 10 -10 v -70 a 10 10 0 0 1 10 -10"></path><g class="terminal ">
<path d="M 567.0 234 h 0.0"></path><path d="M 714.5 234 h 0.0"></path><rect height="22" rx="10" ry="10" width="147.5" x="567.0" y="223"></rect><text x="640.75" y="238">"alphacontents"</text></g><path d="M 714.5 234 a 10 10 0 0 1 10 10 v 70 a 10 10 0 0 0 10 10"></path><path d="M 547.0 324 h 20"></path><g class="terminal ">
<path d="M 567.0 324 h 34.0"></path><path d="M 680.5 324 h 34.0"></path><rect height="22" rx="10" ry="10" width="79.5" x="601.0" y="313"></rect><text x="640.75" y="328">"intot"</text></g><path d="M 714.5 324 h 20"></path><path d="M 547.0 324 a 10 10 0 0 1 10 10 v 10 a 10 10 0 0 0 10 10"></path><g class="terminal ">
<path d="M 567.0 354 h 25.5"></path><path d="M 689.0 354 h 25.5"></path><rect height="22" rx="10" ry="10" width="96.5" x="592.5" y="343"></rect><text x="640.75" y="358">"intpent"</text></g><path d="M 714.5 354 a 10 10 0 0 0 10 -10 v -10 a 10 10 0 0 1 10 -10"></path><path d="M 547.0 324 a 10 10 0 0 1 10 10 v 40 a 10 10 0 0 0 10 10"></path><g class="terminal ">
<path d="M 567.0 384 h 12.75"></path><path d="M 701.75 384 h 12.75"></path><rect height="22" rx="10" ry="10" width="122.0" x="579.75" y="373"></rect><text x="640.75" y="388">"inthistory"</text></g><path d="M 714.5 384 a 10 10 0 0 0 10 -10 v -40 a 10 10 0 0 1 10 -10"></path><path d="M 547.0 324 a 10 10 0 0 1 10 10 v 70 a 10 10 0 0 0 10 10"></path><g class="terminal ">
<path d="M 567.0 414 h 17.0"></path><path d="M 697.5 414 h 17.0"></path><rect height="22" rx="10" ry="10" width="113.5" x="584.0" y="403"></rect><text x="640.75" y="418">"intpoetry"</text></g><path d="M 714.5 414 a 10 10 0 0 0 10 -10 v -70 a 10 10 0 0 1 10 -10"></path><path d="M 547.0 324 a 10 10 0 0 1 10 10 v 100 a 10 10 0 0 0 10 10"></path><g class="terminal ">
<path d="M 567.0 444 h 8.5"></path><path d="M 706.0 444 h 8.5"></path><rect height="22" rx="10" ry="10" width="130.5" x="575.5" y="433"></rect><text x="640.75" y="448">"intprophesy"</text></g><path d="M 714.5 444 a 10 10 0 0 0 10 -10 v -100 a 10 10 0 0 1 10 -10"></path></g><path d="M 744.5 324 a 10 10 0 0 1 10 10 v 129 a 10 10 0 0 0 10 10"></path><path d="M 744.5 205 a 10 10 0 0 1 10 10 v 99 a 10 10 0 0 0 10 10"></path><g>
<path d="M 764.5 324 h 10.0"></path><path d="M 945.0 324 h 10.0"></path><path d="M 774.5 324 a 10 10 0 0 0 10 -10 v -10 a 10 10 0 0 1 10 -10"></path><g class="terminal ">
<path d="M 794.5 294 h 4.25"></path><path d="M 920.75 294 h 4.25"></path><rect height="22" rx="10" ry="10" width="122.0" x="798.75" y="283"></rect><text x="859.75" y="298">"intgospels"</text></g><path d="M 925.0 294 a 10 10 0 0 1 10 10 v 10 a 10 10 0 0 0 10 10"></path><path d="M 774.5 324 a 10 10 0 0 0 10 -10 v -40 a 10 10 0 0 1 10 -10"></path><g class="terminal ">
<path d="M 794.5 264 h 25.5"></path><path d="M 899.5 264 h 25.5"></path><rect height="22" rx="10" ry="10" width="79.5" x="820.0" y="253"></rect><text x="859.75" y="268">"intnt"</text></g><path d="M 925.0 264 a 10 10 0 0 1 10 10 v 40 a 10 10 0 0 0 10 10"></path><path d="M 774.5 324 a 10 10 0 0 0 10 -10 v -70 a 10 10 0 0 1 10 -10"></path><g class="terminal ">
<path d="M 794.5 234 h 25.5"></path><path d="M 899.5 234 h 25.5"></path><rect height="22" rx="10" ry="10" width="79.5" x="820.0" y="223"></rect><text x="859.75" y="238">"intdc"</text></g><path d="M 925.0 234 a 10 10 0 0 1 10 10 v 70 a 10 10 0 0 0 10 10"></path><path d="M 774.5 324 h 20"></path><g class="terminal ">
<path d="M 794.5 324 h 0.0"></path><path d="M 925.0 324 h 0.0"></path><rect height="22" rx="10" ry="10" width="130.5" x="794.5" y="313"></rect><text x="859.75" y="328">"intepistles"</text></g><path d="M 925.0 324 h 20"></path><path d="M 774.5 324 a 10 10 0 0 1 10 10 v 10 a 10 10 0 0 0 10 10"></path><g class="terminal ">
<path d="M 794.5 354 h 4.25"></path><path d="M 920.75 354 h 4.25"></path><rect height="22" rx="10" ry="10" width="122.0" x="798.75" y="343"></rect><text x="859.75" y="358">"intletters"</text></g><path d="M 925.0 354 a 10 10 0 0 0 10 -10 v -10 a 10 10 0 0 1 10 -10"></path><path d="M 774.5 324 a 10 10 0 0 1 10 10 v 40 a 10 10 0 0 0 10 10"></path><g class="terminal ">
<path d="M 794.5 384 h 25.5"></path><path d="M 899.5 384 h 25.5"></path><rect height="22" rx="10" ry="10" width="79.5" x="820.0" y="373"></rect><text x="859.75" y="388">"chron"</text></g><path d="M 925.0 384 a 10 10 0 0 0 10 -10 v -40 a 10 10 0 0 1 10 -10"></path><path d="M 774.5 324 a 10 10 0 0 1 10 10 v 70 a 10 10 0 0 0 10 10"></path><g class="terminal ">
<path d="M 794.5 414 h 12.75"></path><path d="M 912.25 414 h 12.75"></path><rect height="22" rx="10" ry="10" width="105.0" x="807.25" y="403"></rect><text x="859.75" y="418">"measures"</text></g><path d="M 925.0 414 a 10 10 0 0 0 10 -10 v -70 a 10 10 0 0 1 10 -10"></path><path d="M 774.5 324 a 10 10 0 0 1 10 10 v 100 a 10 10 0 0 0 10 10"></path><g class="terminal ">
<path d="M 794.5 444 h 29.75"></path><path d="M 895.25 444 h 29.75"></path><rect height="22" rx="10" ry="10" width="71.0" x="824.25" y="433"></rect><text x="859.75" y="448">"maps"</text></g><path d="M 925.0 444 a 10 10 0 0 0 10 -10 v -100 a 10 10 0 0 1 10 -10"></path></g><path d="M 955.0 324 a 10 10 0 0 1 10 10 v 129 a 10 10 0 0 0 10 10"></path><path d="M 955.0 205 a 10 10 0 0 1 10 10 v 99 a 10 10 0 0 0 10 10"></path><g>
<path d="M 975.0 324 h 10.0"></path><path d="M 1206.5 324 h 10.0"></path><path d="M 985.0 324 a 10 10 0 0 0 10 -10 v -10 a 10 10 0 0 1 10 -10"></path><g class="terminal ">
<path d="M 1005.0 294 h 51.0"></path><path d="M 1135.5 294 h 51.0"></path><rect height="22" rx="10" ry="10" width="79.5" x="1056.0" y="283"></rect><text x="1095.75" y="298">"spine"</text></g><path d="M 1186.5 294 a 10 10 0 0 1 10 10 v 10 a 10 10 0 0 0 10 10"></path><path d="M 985.0 324 a 10 10 0 0 0 10 -10 v -40 a 10 10 0 0 1 10 -10"></path><g class="terminal ">
<path d="M 1005.0 264 h 51.0"></path><path d="M 1135.5 264 h 51.0"></path><rect height="22" rx="10" ry="10" width="79.5" x="1056.0" y="253"></rect><text x="1095.75" y="268">"cover"</text></g><path d="M 1186.5 264 a 10 10 0 0 1 10 10 v 40 a 10 10 0 0 0 10 10"></path><path d="M 985.0 324 a 10 10 0 0 0 10 -10 v -70 a 10 10 0 0 1 10 -10"></path><g class="terminal ">
<path d="M 1005.0 234 h 34.0"></path><path d="M 1152.5 234 h 34.0"></path><rect height="22" rx="10" ry="10" width="113.5" x="1039.0" y="223"></rect><text x="1095.75" y="238">"lxxquotes"</text></g><path d="M 1186.5 234 a 10 10 0 0 1 10 10 v 70 a 10 10 0 0 0 10 10"></path><path d="M 985.0 324 h 20"></path><g class="terminal ">
<path d="M 1005.0 324 h 63.75"></path><path d="M 1122.75 324 h 63.75"></path><rect height="22" rx="10" ry="10" width="54.0" x="1068.75" y="313"></rect><text x="1095.75" y="328">TEXT</text></g><path d="M 1186.5 324 h 20"></path><path d="M 985.0 324 a 10 10 0 0 1 10 10 v 10 a 10 10 0 0 0 10 10"></path><g class="terminal ">
<path d="M 1005.0 354 h 0.0"></path><path d="M 1186.5 354 h 0.0"></path><rect height="22" rx="10" ry="10" width="181.5" x="1005.0" y="343"></rect><text x="1095.75" y="358">/x\-&#91;\p{L}&#95;\-\.:&#93;+/</text></g><path d="M 1186.5 354 a 10 10 0 0 0 10 -10 v -10 a 10 10 0 0 1 10 -10"></path></g><path d="M 1216.5 324 h 10"></path></g><path d="M 1226.5 324 h 10"></path><g class="terminal ">
<path d="M 1236.5 324 h 0.0"></path><path d="M 1265.0 324 h 0.0"></path><rect height="22" rx="10" ry="10" width="28.5" x="1236.5" y="313"></rect><text x="1250.75" y="328">"</text></g></g><path d="M 1265.0 324 a 10 10 0 0 0 10 -10 v -107 a 10 10 0 0 1 10 -10"></path></g><path d="M 1295.0 197 h 10"></path><path d="M 1305.0 197 h 0.0"></path></g><path d="M 1305.0 197 h 20"></path><path d="M 70.0 128 a 10 10 0 0 1 10 10 v 353 a 10 10 0 0 0 10 10"></path><g>
<path d="M 90.0 501 h 439.75"></path><path d="M 865.25 501 h 439.75"></path><g>
<path d="M 529.75 501 h 0.0"></path><path d="M 700.25 501 h 0.0"></path><path d="M 529.75 501 h 20"></path><g>
<path d="M 549.75 501 h 130.5"></path></g><path d="M 680.25 501 h 20"></path><path d="M 529.75 501 a 10 10 0 0 1 10 10 v 0 a 10 10 0 0 0 10 10"></path><g>
<path d="M 549.75 521 h 0.0"></path><path d="M 680.25 521 h 0.0"></path><g>
<path d="M 549.75 521 h 0.0"></path><path d="M 680.25 521 h 0.0"></path><g class="terminal ">
<path d="M 549.75 521 h 0.0"></path><path d="M 680.25 521 h 0.0"></path><rect height="22" rx="10" ry="10" width="130.5" x="549.75" y="510"></rect><text x="615.0" y="525">TEXTNOTATTRIB</text></g></g></g><path d="M 680.25 521 a 10 10 0 0 0 10 -10 v 0 a 10 10 0 0 1 10 -10"></path></g><path d="M 700.25 501 h 10"></path><path d="M 710.25 501 h 10"></path><g>
<path d="M 720.25 501 h 0.0"></path><path d="M 865.25 501 h 0.0"></path><path d="M 720.25 501 h 20"></path><g>
<path d="M 740.25 501 h 105.0"></path></g><path d="M 845.25 501 h 20"></path><path d="M 720.25 501 a 10 10 0 0 1 10 10 v 0 a 10 10 0 0 0 10 10"></path><g class="non-terminal ">
<path d="M 740.25 521 h 0.0"></path><path d="M 845.25 521 h 0.0"></path><rect height="22" width="105.0" x="740.25" y="510"></rect><text x="792.75" y="525">Attributes</text></g><path d="M 845.25 521 a 10 10 0 0 0 10 -10 v 0 a 10 10 0 0 1 10 -10"></path></g></g><path d="M 1305.0 501 a 10 10 0 0 0 10 -10 v -284 a 10 10 0 0 1 10 -10"></path></g><path d="M 1335.0 197 a 10 10 0 0 1 10 10 v 343 a 10 10 0 0 1 -10 10 h -1275.0 a 10 10 0 0 0 -10 10 v 27 a 10 10 0 0 0 10 10"></path><g>
<path d="M 60.0 607 h 71.5"></path><path d="M 1263.5 607 h 71.5"></path><g>
<path d="M 131.5 607 h 0.0"></path><path d="M 305.0 607 h 0.0"></path><path d="M 131.5 607 a 10 10 0 0 0 10 -10 v 0 a 10 10 0 0 1 10 -10"></path><g>
<path d="M 151.5 587 h 133.5"></path></g><path d="M 285.0 587 a 10 10 0 0 1 10 10 v 0 a 10 10 0 0 0 10 10"></path><path d="M 131.5 607 h 20"></path><g>
<path d="M 151.5 607 h 0.0"></path><path d="M 285.0 607 h 0.0"></path><path d="M 151.5 607 h 10"></path><g class="non-terminal ">
<path d="M 161.5 607 h 0.0"></path><path d="M 275.0 607 h 0.0"></path><rect height="22" width="113.5" x="161.5" y="596"></rect><text x="218.25" y="611">BookHeaders</text></g><path d="M 275.0 607 h 10"></path><path d="M 161.5 607 a 10 10 0 0 0 -10 10 v 0 a 10 10 0 0 0 10 10"></path><g>
<path d="M 161.5 627 h 113.5"></path></g><path d="M 275.0 627 a 10 10 0 0 0 10 -10 v 0 a 10 10 0 0 0 -10 -10"></path></g><path d="M 285.0 607 h 20"></path></g><path d="M 305.0 607 h 10"></path><path d="M 315.0 607 h 10"></path><g>
<path d="M 325.0 607 h 0.0"></path><path d="M 490.0 607 h 0.0"></path><path d="M 325.0 607 a 10 10 0 0 0 10 -10 v 0 a 10 10 0 0 1 10 -10"></path><g>
<path d="M 345.0 587 h 125.0"></path></g><path d="M 470.0 587 a 10 10 0 0 1 10 10 v 0 a 10 10 0 0 0 10 10"></path><path d="M 325.0 607 h 20"></path><g>
<path d="M 345.0 607 h 0.0"></path><path d="M 470.0 607 h 0.0"></path><path d="M 345.0 607 h 10"></path><g class="non-terminal ">
<path d="M 355.0 607 h 0.0"></path><path d="M 460.0 607 h 0.0"></path><rect height="22" width="105.0" x="355.0" y="596"></rect><text x="407.5" y="611">BookTitles</text></g><path d="M 460.0 607 h 10"></path><path d="M 355.0 607 a 10 10 0 0 0 -10 10 v 0 a 10 10 0 0 0 10 10"></path><g>
<path d="M 355.0 627 h 105.0"></path></g><path d="M 460.0 627 a 10 10 0 0 0 10 -10 v 0 a 10 10 0 0 0 -10 -10"></path></g><path d="M 470.0 607 h 20"></path></g><path d="M 490.0 607 h 10"></path><path d="M 500.0 607 h 10"></path><g>
<path d="M 510.0 607 h 0.0"></path><path d="M 726.0 607 h 0.0"></path><path d="M 510.0 607 a 10 10 0 0 0 10 -10 v 0 a 10 10 0 0 1 10 -10"></path><g>
<path d="M 530.0 587 h 176.0"></path></g><path d="M 706.0 587 a 10 10 0 0 1 10 10 v 0 a 10 10 0 0 0 10 10"></path><path d="M 510.0 607 h 20"></path><g>
<path d="M 530.0 607 h 0.0"></path><path d="M 706.0 607 h 0.0"></path><path d="M 530.0 607 h 10"></path><g class="non-terminal ">
<path d="M 540.0 607 h 0.0"></path><path d="M 696.0 607 h 0.0"></path><rect height="22" width="156.0" x="540.0" y="596"></rect><text x="618.0" y="611">BookIntroduction</text></g><path d="M 696.0 607 h 10"></path><path d="M 540.0 607 a 10 10 0 0 0 -10 10 v 0 a 10 10 0 0 0 10 10"></path><g>
<path d="M 540.0 627 h 156.0"></path></g><path d="M 696.0 627 a 10 10 0 0 0 10 -10 v 0 a 10 10 0 0 0 -10 -10"></path></g><path d="M 706.0 607 h 20"></path></g><path d="M 726.0 607 h 10"></path><path d="M 736.0 607 h 10"></path><g>
<path d="M 746.0 607 h 0.0"></path><path d="M 1038.5 607 h 0.0"></path><path d="M 746.0 607 a 10 10 0 0 0 10 -10 v 0 a 10 10 0 0 1 10 -10"></path><g>
<path d="M 766.0 587 h 252.5"></path></g><path d="M 1018.5 587 a 10 10 0 0 1 10 10 v 0 a 10 10 0 0 0 10 10"></path><path d="M 746.0 607 h 20"></path><g>
<path d="M 766.0 607 h 0.0"></path><path d="M 1018.5 607 h 0.0"></path><path d="M 766.0 607 h 10"></path><g class="non-terminal ">
<path d="M 776.0 607 h 0.0"></path><path d="M 1008.5 607 h 0.0"></path><rect height="22" width="232.5" x="776.0" y="596"></rect><text x="892.25" y="611">BookIntroductionEndTitles</text></g><path d="M 1008.5 607 h 10"></path><path d="M 776.0 607 a 10 10 0 0 0 -10 10 v 0 a 10 10 0 0 0 10 10"></path><g>
<path d="M 776.0 627 h 232.5"></path></g><path d="M 1008.5 627 a 10 10 0 0 0 10 -10 v 0 a 10 10 0 0 0 -10 -10"></path></g><path d="M 1018.5 607 h 20"></path></g><path d="M 1038.5 607 h 10"></path><path d="M 1048.5 607 h 10"></path><g>
<path d="M 1058.5 607 h 0.0"></path><path d="M 1263.5 607 h 0.0"></path><path d="M 1058.5 607 a 10 10 0 0 0 10 -10 v -9 a 10 10 0 0 1 10 -10"></path><g>
<path d="M 1078.5 578 h 165.0"></path></g><path d="M 1243.5 578 a 10 10 0 0 1 10 10 v 9 a 10 10 0 0 0 10 10"></path><path d="M 1058.5 607 h 20"></path><g>
<path d="M 1078.5 607 h 0.0"></path><path d="M 1243.5 607 h 0.0"></path><path d="M 1078.5 607 h 10"></path><g>
<path d="M 1088.5 607 h 0.0"></path><path d="M 1233.5 607 h 0.0"></path><path d="M 1088.5 607 h 20"></path><g class="non-terminal ">
<path d="M 1108.5 607 h 25.5"></path><path d="M 1188.0 607 h 25.5"></path><rect height="22" width="54.0" x="1134.0" y="596"></rect><text x="1161.0" y="611">Para</text></g><path d="M 1213.5 607 h 20"></path><path d="M 1088.5 607 a 10 10 0 0 1 10 10 v 10 a 10 10 0 0 0 10 10"></path><g class="non-terminal ">
<path d="M 1108.5 637 h 12.75"></path><path d="M 1200.75 637 h 12.75"></path><rect height="22" width="79.5" x="1121.25" y="626"></rect><text x="1161.0" y="641">Section</text></g><path d="M 1213.5 637 a 10 10 0 0 0 10 -10 v -10 a 10 10 0 0 1 10 -10"></path><path d="M 1088.5 607 a 10 10 0 0 1 10 10 v 40 a 10 10 0 0 0 10 10"></path><g class="non-terminal ">
<path d="M 1108.5 667 h 0.0"></path><path d="M 1213.5 667 h 0.0"></path><rect height="22" width="105.0" x="1108.5" y="656"></rect><text x="1161.0" y="671">PeriphPara</text></g><path d="M 1213.5 667 a 10 10 0 0 0 10 -10 v -40 a 10 10 0 0 1 10 -10"></path><path d="M 1088.5 607 a 10 10 0 0 1 10 10 v 70 a 10 10 0 0 0 10 10"></path><g class="non-terminal ">
<path d="M 1108.5 697 h 12.75"></path><path d="M 1200.75 697 h 12.75"></path><rect height="22" width="79.5" x="1121.25" y="686"></rect><text x="1161.0" y="701">Chapter</text></g><path d="M 1213.5 697 a 10 10 0 0 0 10 -10 v -70 a 10 10 0 0 1 10 -10"></path><path d="M 1088.5 607 a 10 10 0 0 1 10 10 v 100 a 10 10 0 0 0 10 10"></path><g class="non-terminal ">
<path d="M 1108.5 727 h 17.0"></path><path d="M 1196.5 727 h 17.0"></path><rect height="22" width="71.0" x="1125.5" y="716"></rect><text x="1161.0" y="731">Figure</text></g><path d="M 1213.5 727 a 10 10 0 0 0 10 -10 v -100 a 10 10 0 0 1 10 -10"></path><path d="M 1088.5 607 a 10 10 0 0 1 10 10 v 130 a 10 10 0 0 0 10 10"></path><g class="non-terminal ">
<path d="M 1108.5 757 h 4.25"></path><path d="M 1209.25 757 h 4.25"></path><rect height="22" width="96.5" x="1112.75" y="746"></rect><text x="1161.0" y="761">Milestone</text></g><path d="M 1213.5 757 a 10 10 0 0 0 10 -10 v -130 a 10 10 0 0 1 10 -10"></path><path d="M 1088.5 607 a 10 10 0 0 1 10 10 v 160 a 10 10 0 0 0 10 10"></path><g class="non-terminal ">
<path d="M 1108.5 787 h 25.5"></path><path d="M 1188.0 787 h 25.5"></path><rect height="22" width="54.0" x="1134.0" y="776"></rect><text x="1161.0" y="791">List</text></g><path d="M 1213.5 787 a 10 10 0 0 0 10 -10 v -160 a 10 10 0 0 1 10 -10"></path><path d="M 1088.5 607 a 10 10 0 0 1 10 10 v 190 a 10 10 0 0 0 10 10"></path><g class="non-terminal ">
<path d="M 1108.5 817 h 21.25"></path><path d="M 1192.25 817 h 21.25"></path><rect height="22" width="62.5" x="1129.75" y="806"></rect><text x="1161.0" y="821">Table</text></g><path d="M 1213.5 817 a 10 10 0 0 0 10 -10 v -190 a 10 10 0 0 1 10 -10"></path><path d="M 1088.5 607 a 10 10 0 0 1 10 10 v 220 a 10 10 0 0 0 10 10"></path><g class="non-terminal ">
<path d="M 1108.5 847 h 12.75"></path><path d="M 1200.75 847 h 12.75"></path><rect height="22" width="79.5" x="1121.25" y="836"></rect><text x="1161.0" y="851">Sidebar</text></g><path d="M 1213.5 847 a 10 10 0 0 0 10 -10 v -220 a 10 10 0 0 1 10 -10"></path></g><path d="M 1233.5 607 h 10"></path><path d="M 1088.5 607 a 10 10 0 0 0 -10 10 v 249 a 10 10 0 0 0 10 10"></path><g>
<path d="M 1088.5 876 h 145.0"></path></g><path d="M 1233.5 876 a 10 10 0 0 0 10 -10 v -249 a 10 10 0 0 0 -10 -10"></path></g><path d="M 1243.5 607 h 20"></path></g></g><path d="M 1335.0 607 h 10"></path><path d="M 1345.0 607 h 0.0"></path></g></g><path d="M 1345.0 607 h 10"></path><path d="M 1355.0 607 h 20 m 0 -10 v 20"></path></g></svg>