<svg class="railroad-diagram" height="744" viewBox="0 0 1414.0 744" width="1414.0" xmlns="http://www.w3.org/2000/svg" xmlns:xlink="http://www.w3.org/1999/xlink">
<g transform="translate(.5 .5)">
<style>/* <![CDATA[ */

    svg.railroad-diagram {
        background-color: hsl(30,20%,95%);
    }
    svg.railroad-diagram path {
        stroke-width: 2;
        stroke: black;
        fill: none;
    }
    svg.railroad-diagram text {
        font-size: 12px;
        text-anchor: middle;
        font-family: DejaVu Sans;
    }
    svg.railroad-diagram text.label {
        text-anchor:start;
    }
    svg.railroad-diagram text.comment {
        font-family: DejaVu Sans;
        font-size: 14px;
    }
    svg.railroad-diagram rect{
        stroke-width: 2;
        stroke: black;
        fill: rgb(210, 210, 255);
    }
    svg.railroad-diagram rect.group-box {
        stroke: gray;
        stroke-dasharray: 10 5;
        fill: none;
    }
    .terminal {
        font-family: DejaVu Sans;
    }
    svg.railroad-diagram g.altterminal rect {
        fill: rgb(251, 252, 207)
    }

/* ]]> */
</style><g>
<path d="M 20 365 v 20 m 0 -10 h 20"></path></g><path d="M 40 375 h 10"></path><g>
<path d="M 50 375 h 0.0"></path><path d="M 1364.0 375 h 0.0"></path><g>
<path d="M 50.0 375 h 0.0"></path><path d="M 1364.0 375 h 0.0"></path><g class="terminal ">
<path d="M 50.0 375 h 0.0"></path><path d="M 138.0 375 h 0.0"></path><rect height="22" rx="10" ry="10" width="88.0" x="50.0" y="364"></rect><text x="94.0" y="379">&#60;periph></text></g><path d="M 138.0 375 h 10"></path><path d="M 148.0 375 h 10"></path><g>
<path d="M 158.0 375 h 0.0"></path><path d="M 1364.0 375 h 0.0"></path><path d="M 158.0 375 a 10 10 0 0 0 10 -10 v -176 a 10 10 0 0 1 10 -10"></path><g>
<path d="M 178.0 179 h 0.0"></path><path d="M 1135.0 179 h 0.0"></path><g class="terminal ">
<path d="M 178.0 179 h 0.0"></path><path d="M 223.5 179 h 0.0"></path><rect height="22" rx="10" ry="10" width="45.5" x="178.0" y="168"></rect><text x="200.75" y="183">@id</text></g><path d="M 223.5 179 h 10"></path><g>
<path d="M 233.5 179 h 0.0"></path><path d="M 1135.0 179 h 0.0"></path><path d="M 233.5 179 a 10 10 0 0 0 10 -10 v -99 a 10 10 0 0 1 10 -10 h 550.0"></path><path d="M 233.5 179 h 10"></path><g>
<path d="M 243.5 179 h 0.0"></path><path d="M 243.5 179 a 10 10 0 0 0 10 -10 v -10 a 10 10 0 0 1 10 -10"></path><g class="terminal ">
<path d="M 263.5 149 h 0.0"></path><path d="M 343.0 149 h 0.0"></path><rect height="22" rx="10" ry="10" width="79.5" x="263.5" y="138"></rect><text x="303.25" y="153">"promo"</text></g><path d="M 243.5 179 a 10 10 0 0 0 10 -10 v -40 a 10 10 0 0 1 10 -10"></path><g class="terminal ">
<path d="M 263.5 119 h 0.0"></path><path d="M 377.0 119 h 0.0"></path><rect height="22" rx="10" ry="10" width="113.5" x="263.5" y="108"></rect><text x="320.25" y="123">"halftitle"</text></g><path d="M 243.5 179 a 10 10 0 0 0 10 -10 v -70 a 10 10 0 0 1 10 -10"></path><g class="terminal ">
<path d="M 263.5 89 h 0.0"></path><path d="M 343.0 89 h 0.0"></path><rect height="22" rx="10" ry="10" width="79.5" x="263.5" y="78"></rect><text x="303.25" y="93">"title"</text></g><path d="M 243.5 179 h 20"></path><g class="terminal ">
<path d="M 263.5 179 h 0.0"></path><path d="M 385.5 179 h 0.0"></path><rect height="22" rx="10" ry="10" width="122.0" x="263.5" y="168"></rect><text x="324.5" y="183">"imprimatur"</text></g><path d="M 243.5 179 a 10 10 0 0 1 10 10 v 10 a 10 10 0 0 0 10 10"></path><g class="terminal ">
<path d="M 263.5 209 h 0.0"></path><path d="M 360.0 209 h 0.0"></path><rect height="22" rx="10" ry="10" width="96.5" x="263.5" y="198"></rect><text x="311.75" y="213">"pubdata"</text></g><path d="M 243.5 179 a 10 10 0 0 1 10 10 v 40 a 10 10 0 0 0 10 10"></path><g class="terminal ">
<path d="M 263.5 239 h 0.0"></path><path d="M 368.5 239 h 0.0"></path><rect height="22" rx="10" ry="10" width="105.0" x="263.5" y="228"></rect><text x="316.0" y="243">"foreword"</text></g><path d="M 243.5 179 a 10 10 0 0 1 10 10 v 70 a 10 10 0 0 0 10 10"></path><g class="terminal ">
<path d="M 263.5 269 h 0.0"></path><path d="M 360.0 269 h 0.0"></path><rect height="22" rx="10" ry="10" width="96.5" x="263.5" y="258"></rect><text x="311.75" y="273">"preface"</text></g><path d="M 243.5 179 a 10 10 0 0 1 10 10 v 100 a 10 10 0 0 0 10 10"></path><g class="terminal ">
<path d="M 263.5 299 h 0.0"></path><path d="M 368.5 299 h 0.0"></path><rect height="22" rx="10" ry="10" width="105.0" x="263.5" y="288"></rect><text x="316.0" y="303">"contents"</text></g></g><path d="M 405.5 60 a 10 10 0 0 1 10 10 v 99 a 10 10 0 0 0 10 10"></path><g>
<path d="M 425.5 179 h 0.0"></path><path d="M 425.5 179 a 10 10 0 0 0 10 -10 v -10 a 10 10 0 0 1 10 -10"></path><g class="terminal ">
<path d="M 445.5 149 h 0.0"></path><path d="M 550.5 149 h 0.0"></path><rect height="22" rx="10" ry="10" width="105.0" x="445.5" y="138"></rect><text x="498.0" y="153">"intbible"</text></g><path d="M 425.5 179 a 10 10 0 0 0 10 -10 v -40 a 10 10 0 0 1 10 -10"></path><g class="terminal ">
<path d="M 445.5 119 h 0.0"></path><path d="M 593.0 119 h 0.0"></path><rect height="22" rx="10" ry="10" width="147.5" x="445.5" y="108"></rect><text x="519.25" y="123">"abbreviations"</text></g><path d="M 425.5 179 a 10 10 0 0 0 10 -10 v -70 a 10 10 0 0 1 10 -10"></path><g class="terminal ">
<path d="M 445.5 89 h 0.0"></path><path d="M 593.0 89 h 0.0"></path><rect height="22" rx="10" ry="10" width="147.5" x="445.5" y="78"></rect><text x="519.25" y="93">"alphacontents"</text></g><path d="M 425.5 179 h 20"></path><g class="terminal ">
<path d="M 445.5 179 h 0.0"></path><path d="M 525.0 179 h 0.0"></path><rect height="22" rx="10" ry="10" width="79.5" x="445.5" y="168"></rect><text x="485.25" y="183">"intot"</text></g><path d="M 425.5 179 a 10 10 0 0 1 10 10 v 10 a 10 10 0 0 0 10 10"></path><g class="terminal ">
<path d="M 445.5 209 h 0.0"></path><path d="M 542.0 209 h 0.0"></path><rect height="22" rx="10" ry="10" width="96.5" x="445.5" y="198"></rect><text x="493.75" y="213">"intpent"</text></g><path d="M 425.5 179 a 10 10 0 0 1 10 10 v 40 a 10 10 0 0 0 10 10"></path><g class="terminal ">
<path d="M 445.5 239 h 0.0"></path><path d="M 567.5 239 h 0.0"></path><rect height="22" rx="10" ry="10" width="122.0" x="445.5" y="228"></rect><text x="506.5" y="243">"inthistory"</text></g><path d="M 425.5 179 a 10 10 0 0 1 10 10 v 70 a 10 10 0 0 0 10 10"></path><g class="terminal ">
<path d="M 445.5 269 h 0.0"></path><path d="M 559.0 269 h 0.0"></path><rect height="22" rx="10" ry="10" width="113.5" x="445.5" y="258"></rect><text x="502.25" y="273">"intpoetry"</text></g><path d="M 425.5 179 a 10 10 0 0 1 10 10 v 100 a 10 10 0 0 0 10 10"></path><g class="terminal ">
<path d="M 445.5 299 h 0.0"></path><path d="M 576.0 299 h 0.0"></path><rect height="22" rx="10" ry="10" width="130.5" x="445.5" y="288"></rect><text x="510.75" y="303">"intprophesy"</text></g></g><path d="M 613.0 60 a 10 10 0 0 1 10 10 v 99 a 10 10 0 0 0 10 10"></path><g>
<path d="M 633.0 179 h 0.0"></path><path d="M 633.0 179 a 10 10 0 0 0 10 -10 v -10 a 10 10 0 0 1 10 -10"></path><g class="terminal ">
<path d="M 653.0 149 h 0.0"></path><path d="M 775.0 149 h 0.0"></path><rect height="22" rx="10" ry="10" width="122.0" x="653.0" y="138"></rect><text x="714.0" y="153">"intgospels"</text></g><path d="M 633.0 179 a 10 10 0 0 0 10 -10 v -40 a 10 10 0 0 1 10 -10"></path><g class="terminal ">
<path d="M 653.0 119 h 0.0"></path><path d="M 732.5 119 h 0.0"></path><rect height="22" rx="10" ry="10" width="79.5" x="653.0" y="108"></rect><text x="692.75" y="123">"intnt"</text></g><path d="M 633.0 179 a 10 10 0 0 0 10 -10 v -70 a 10 10 0 0 1 10 -10"></path><g class="terminal ">
<path d="M 653.0 89 h 0.0"></path><path d="M 732.5 89 h 0.0"></path><rect height="22" rx="10" ry="10" width="79.5" x="653.0" y="78"></rect><text x="692.75" y="93">"intdc"</text></g><path d="M 633.0 179 h 20"></path><g class="terminal ">
<path d="M 653.0 179 h 0.0"></path><path d="M 783.5 179 h 0.0"></path><rect height="22" rx="10" ry="10" width="130.5" x="653.0" y="168"></rect><text x="718.25" y="183">"intepistles"</text></g><path d="M 633.0 179 a 10 10 0 0 1 10 10 v 10 a 10 10 0 0 0 10 10"></path><g class="terminal ">
<path d="M 653.0 209 h 0.0"></path><path d="M 775.0 209 h 0.0"></path><rect height="22" rx="10" ry="10" width="122.0" x="653.0" y="198"></rect><text x="714.0" y="213">"intletters"</text></g><path d="M 633.0 179 a 10 10 0 0 1 10 10 v 40 a 10 10 0 0 0 10 10"></path><g class="terminal ">
<path d="M 653.0 239 h 0.0"></path><path d="M 732.5 239 h 0.0"></path><rect height="22" rx="10" ry="10" width="79.5" x="653.0" y="228"></rect><text x="692.75" y="243">"chron"</text></g><path d="M 633.0 179 a 10 10 0 0 1 10 10 v 70 a 10 10 0 0 0 10 10"></path><g class="terminal ">
<path d="M 653.0 269 h 0.0"></path><path d="M 758.0 269 h 0.0"></path><rect height="22" rx="10" ry="10" width="105.0" x="653.0" y="258"></rect><text x="705.5" y="273">"measures"</text></g><path d="M 633.0 179 a 10 10 0 0 1 10 10 v 100 a 10 10 0 0 0 10 10"></path><g class="terminal ">
<path d="M 653.0 299 h 0.0"></path><path d="M 724.0 299 h 0.0"></path><rect height="22" rx="10" ry="10" width="71.0" x="653.0" y="288"></rect><text x="688.5" y="303">"maps"</text></g></g><path d="M 803.5 60 a 10 10 0 0 1 10 10 v 99 a 10 10 0 0 0 10 10"></path><g>
<path d="M 823.5 179 h 0.0"></path><path d="M 823.5 179 a 10 10 0 0 0 10 -10 v -10 a 10 10 0 0 1 10 -10"></path><g class="terminal ">
<path d="M 843.5 149 h 0.0"></path><path d="M 923.0 149 h 0.0"></path><rect height="22" rx="10" ry="10" width="79.5" x="843.5" y="138"></rect><text x="883.25" y="153">"spine"</text></g><path d="M 823.5 179 a 10 10 0 0 0 10 -10 v -40 a 10 10 0 0 1 10 -10"></path><g class="terminal ">
<path d="M 843.5 119 h 0.0"></path><path d="M 923.0 119 h 0.0"></path><rect height="22" rx="10" ry="10" width="79.5" x="843.5" y="108"></rect><text x="883.25" y="123">"cover"</text></g><path d="M 823.5 179 a 10 10 0 0 0 10 -10 v -70 a 10 10 0 0 1 10 -10"></path><g class="terminal ">
<path d="M 843.5 89 h 0.0"></path><path d="M 957.0 89 h 0.0"></path><rect height="22" rx="10" ry="10" width="113.5" x="843.5" y="78"></rect><text x="900.25" y="93">"lxxquotes"</text></g><path d="M 823.5 179 h 20"></path><g class="terminal ">
<path d="M 843.5 179 h 0.0"></path><path d="M 897.5 179 h 0.0"></path><rect height="22" rx="10" ry="10" width="54.0" x="843.5" y="168"></rect><text x="870.5" y="183">TEXT</text></g><path d="M 823.5 179 a 10 10 0 0 1 10 10 v 10 a 10 10 0 0 0 10 10"></path><g class="terminal ">
<path d="M 843.5 209 h 0.0"></path><path d="M 1025.0 209 h 0.0"></path><rect height="22" rx="10" ry="10" width="181.5" x="843.5" y="198"></rect><text x="934.25" y="213">/x\-&#91;\p{L}&#95;\-\.:&#93;+/</text></g></g></g></g><path d="M 158.0 375 a 10 10 0 0 0 10 -10 v -314 a 10 10 0 0 1 10 -10"></path><g>
<path d="M 178.0 41 h 0.0"></path><path d="M 306.0 41 h 0.0"></path><g class="terminal ">
<path d="M 178.0 41 h 0.0"></path><path d="M 232.0 41 h 0.0"></path><rect height="22" rx="10" ry="10" width="54.0" x="178.0" y="30"></rect><text x="205.0" y="45">@alt</text></g><path d="M 232.0 41 h 10"></path><path d="M 242.0 41 h 10"></path><g class="terminal ">
<path d="M 252.0 41 h 0.0"></path><path d="M 306.0 41 h 0.0"></path><rect height="22" rx="10" ry="10" width="54.0" x="252.0" y="30"></rect><text x="279.0" y="45">TEXT</text></g></g><path d="M 158.0 375 h 20"></path><g>
<path d="M 178.0 375 h 0.0"></path><path d="M 1344.0 375 h 0.0"></path><g>
<path d="M 178.0 375 h 0.0"></path><path d="M 351.5 375 h 0.0"></path><path d="M 178.0 375 a 10 10 0 0 0 10 -10 v 0 a 10 10 0 0 1 10 -10"></path><g>
<path d="M 198.0 355 h 133.5"></path></g><path d="M 331.5 355 a 10 10 0 0 1 10 10 v 0 a 10 10 0 0 0 10 10"></path><path d="M 178.0 375 h 20"></path><g>
<path d="M 198.0 375 h 0.0"></path><path d="M 331.5 375 h 0.0"></path><path d="M 198.0 375 h 10"></path><g class="non-terminal ">
<path d="M 208.0 375 h 0.0"></path><path d="M 321.5 375 h 0.0"></path><rect height="22" width="113.5" x="208.0" y="364"></rect><text x="264.75" y="379">BookHeaders</text></g><path d="M 321.5 375 h 10"></path><path d="M 208.0 375 a 10 10 0 0 0 -10 10 v 0 a 10 10 0 0 0 10 10"></path><g>
<path d="M 208.0 395 h 113.5"></path></g><path d="M 321.5 395 a 10 10 0 0 0 10 -10 v 0 a 10 10 0 0 0 -10 -10"></path></g><path d="M 331.5 375 h 20"></path></g><path d="M 351.5 375 h 10"></path><path d="M 361.5 375 h 10"></path><g>
<path d="M 371.5 375 h 0.0"></path><path d="M 536.5 375 h 0.0"></path><path d="M 371.5 375 a 10 10 0 0 0 10 -10 v 0 a 10 10 0 0 1 10 -10"></path><g>
<path d="M 391.5 355 h 125.0"></path></g><path d="M 516.5 355 a 10 10 0 0 1 10 10 v 0 a 10 10 0 0 0 10 10"></path><path d="M 371.5 375 h 20"></path><g>
<path d="M 391.5 375 h 0.0"></path><path d="M 516.5 375 h 0.0"></path><path d="M 391.5 375 h 10"></path><g class="non-terminal ">
<path d="M 401.5 375 h 0.0"></path><path d="M 506.5 375 h 0.0"></path><rect height="22" width="105.0" x="401.5" y="364"></rect><text x="454.0" y="379">BookTitles</text></g><path d="M 506.5 375 h 10"></path><path d="M 401.5 375 a 10 10 0 0 0 -10 10 v 0 a 10 10 0 0 0 10 10"></path><g>
<path d="M 401.5 395 h 105.0"></path></g><path d="M 506.5 395 a 10 10 0 0 0 10 -10 v 0 a 10 10 0 0 0 -10 -10"></path></g><path d="M 516.5 375 h 20"></path></g><path d="M 536.5 375 h 10"></path><path d="M 546.5 375 h 10"></path><g>
<path d="M 556.5 375 h 0.0"></path><path d="M 772.5 375 h 0.0"></path><path d="M 556.5 375 a 10 10 0 0 0 10 -10 v 0 a 10 10 0 0 1 10 -10"></path><g>
<path d="M 576.5 355 h 176.0"></path></g><path d="M 752.5 355 a 10 10 0 0 1 10 10 v 0 a 10 10 0 0 0 10 10"></path><path d="M 556.5 375 h 20"></path><g>
<path d="M 576.5 375 h 0.0"></path><path d="M 752.5 375 h 0.0"></path><path d="M 576.5 375 h 10"></path><g class="non-terminal ">
<path d="M 586.5 375 h 0.0"></path><path d="M 742.5 375 h 0.0"></path><rect height="22" width="156.0" x="586.5" y="364"></rect><text x="664.5" y="379">BookIntroduction</text></g><path d="M 742.5 375 h 10"></path><path d="M 586.5 375 a 10 10 0 0 0 -10 10 v 0 a 10 10 0 0 0 10 10"></path><g>
<path d="M 586.5 395 h 156.0"></path></g><path d="M 742.5 395 a 10 10 0 0 0 10 -10 v 0 a 10 10 0 0 0 -10 -10"></path></g><path d="M 752.5 375 h 20"></path></g><path d="M 772.5 375 h 10"></path><path d="M 782.5 375 h 10"></path><g>
<path d="M 792.5 375 h 0.0"></path><path d="M 1085.0 375 h 0.0"></path><path d="M 792.5 375 a 10 10 0 0 0 10 -10 v 0 a 10 10 0 0 1 10 -10"></path><g>
<path d="M 812.5 355 h 252.5"></path></g><path d="M 1065.0 355 a 10 10 0 0 1 10 10 v 0 a 10 10 0 0 0 10 10"></path><path d="M 792.5 375 h 20"></path><g>
<path d="M 812.5 375 h 0.0"></path><path d="M 1065.0 375 h 0.0"></path><path d="M 812.5 375 h 10"></path><g class="non-terminal ">
<path d="M 822.5 375 h 0.0"></path><path d="M 1055.0 375 h 0.0"></path><rect height="22" width="232.5" x="822.5" y="364"></rect><text x="938.75" y="379">BookIntroductionEndTitles</text></g><path d="M 1055.0 375 h 10"></path><path d="M 822.5 375 a 10 10 0 0 0 -10 10 v 0 a 10 10 0 0 0 10 10"></path><g>
<path d="M 822.5 395 h 232.5"></path></g><path d="M 1055.0 395 a 10 10 0 0 0 10 -10 v 0 a 10 10 0 0 0 -10 -10"></path></g><path d="M 1065.0 375 h 20"></path></g><path d="M 1085.0 375 h 10"></path><path d="M 1095.0 375 h 10"></path><g>
<path d="M 1105.0 375 h 0.0"></path><path d="M 1344.0 375 h 0.0"></path><path d="M 1105.0 375 a 10 10 0 0 0 10 -10 v -9 a 10 10 0 0 1 10 -10"></path><g>
<path d="M 1125.0 346 h 199.0"></path></g><path d="M 1324.0 346 a 10 10 0 0 1 10 10 v 9 a 10 10 0 0 0 10 10"></path><path d="M 1105.0 375 h 20"></path><g>
<path d="M 1125.0 375 h 0.0"></path><path d="M 1324.0 375 h 0.0"></path><path d="M 1125.0 375 h 10"></path><g>
<path d="M 1135.0 375 h 0.0"></path><path d="M 1314.0 375 h 0.0"></path><path d="M 1135.0 375 h 20"></path><g class="non-terminal ">
<path d="M 1155.0 375 h 42.5"></path><path d="M 1251.5 375 h 42.5"></path><rect height="22" width="54.0" x="1197.5" y="364"></rect><text x="1224.5" y="379">Para</text></g><path d="M 1294.0 375 h 20"></path><path d="M 1135.0 375 a 10 10 0 0 1 10 10 v 10 a 10 10 0 0 0 10 10"></path><g class="non-terminal ">
<path d="M 1155.0 405 h 29.75"></path><path d="M 1264.25 405 h 29.75"></path><rect height="22" width="79.5" x="1184.75" y="394"></rect><text x="1224.5" y="409">Section</text></g><path d="M 1294.0 405 a 10 10 0 0 0 10 -10 v -10 a 10 10 0 0 1 10 -10"></path><path d="M 1135.0 375 a 10 10 0 0 1 10 10 v 40 a 10 10 0 0 0 10 10"></path><g class="non-terminal ">
<path d="M 1155.0 435 h 17.0"></path><path d="M 1277.0 435 h 17.0"></path><rect height="22" width="105.0" x="1172.0" y="424"></rect><text x="1224.5" y="439">PeriphPara</text></g><path d="M 1294.0 435 a 10 10 0 0 0 10 -10 v -40 a 10 10 0 0 1 10 -10"></path><path d="M 1135.0 375 a 10 10 0 0 1 10 10 v 70 a 10 10 0 0 0 10 10"></path><g class="non-terminal ">
<path d="M 1155.0 465 h 29.75"></path><path d="M 1264.25 465 h 29.75"></path><rect height="22" width="79.5" x="1184.75" y="454"></rect><text x="1224.5" y="469">Chapter</text></g><path d="M 1294.0 465 a 10 10 0 0 0 10 -10 v -70 a 10 10 0 0 1 10 -10"></path><path d="M 1135.0 375 a 10 10 0 0 1 10 10 v 100 a 10 10 0 0 0 10 10"></path><g class="non-terminal ">
<path d="M 1155.0 495 h 34.0"></path><path d="M 1260.0 495 h 34.0"></path><rect height="22" width="71.0" x="1189.0" y="484"></rect><text x="1224.5" y="499">Figure</text></g><path d="M 1294.0 495 a 10 10 0 0 0 10 -10 v -100 a 10 10 0 0 1 10 -10"></path><path d="M 1135.0 375 a 10 10 0 0 1 10 10 v 130 a 10 10 0 0 0 10 10"></path><g class="non-terminal ">
<path d="M 1155.0 525 h 21.25"></path><path d="M 1272.75 525 h 21.25"></path><rect height="22" width="96.5" x="1176.25" y="514"></rect><text x="1224.5" y="529">Milestone</text></g><path d="M 1294.0 525 a 10 10 0 0 0 10 -10 v -130 a 10 10 0 0 1 10 -10"></path><path d="M 1135.0 375 a 10 10 0 0 1 10 10 v 160 a 10 10 0 0 0 10 10"></path><g class="non-terminal ">
<path d="M 1155.0 555 h 25.5"></path><path d="M 1268.5 555 h 25.5"></path><rect height="22" width="88.0" x="1180.5" y="544"></rect><text x="1224.5" y="559">Footnote</text></g><path d="M 1294.0 555 a 10 10 0 0 0 10 -10 v -160 a 10 10 0 0 1 10 -10"></path><path d="M 1135.0 375 a 10 10 0 0 1 10 10 v 190 a 10 10 0 0 0 10 10"></path><g class="non-terminal ">
<path d="M 1155.0 585 h 0.0"></path><path d="M 1294.0 585 h 0.0"></path><rect height="22" width="139.0" x="1155.0" y="574"></rect><text x="1224.5" y="589">CrossReference</text></g><path d="M 1294.0 585 a 10 10 0 0 0 10 -10 v -190 a 10 10 0 0 1 10 -10"></path><path d="M 1135.0 375 a 10 10 0 0 1 10 10 v 220 a 10 10 0 0 0 10 10"></path><g class="non-terminal ">
<path d="M 1155.0 615 h 42.5"></path><path d="M 1251.5 615 h 42.5"></path><rect height="22" width="54.0" x="1197.5" y="604"></rect><text x="1224.5" y="619">List</text></g><path d="M 1294.0 615 a 10 10 0 0 0 10 -10 v -220 a 10 10 0 0 1 10 -10"></path><path d="M 1135.0 375 a 10 10 0 0 1 10 10 v 250 a 10 10 0 0 0 10 10"></path><g class="non-terminal ">
<path d="M 1155.0 645 h 38.25"></path><path d="M 1255.75 645 h 38.25"></path><rect height="22" width="62.5" x="1193.25" y="634"></rect><text x="1224.5" y="649">Table</text></g><path d="M 1294.0 645 a 10 10 0 0 0 10 -10 v -250 a 10 10 0 0 1 10 -10"></path><path d="M 1135.0 375 a 10 10 0 0 1 10 10 v 280 a 10 10 0 0 0 10 10"></path><g class="non-terminal ">
<path d="M 1155.0 675 h 29.75"></path><path d="M 1264.25 675 h 29.75"></path><rect height="22" width="79.5" x="1184.75" y="664"></rect><text x="1224.5" y="679">Sidebar</text></g><path d="M 1294.0 675 a 10 10 0 0 0 10 -10 v -280 a 10 10 0 0 1 10 -10"></path></g><path d="M 1314.0 375 h 10"></path><path d="M 1135.0 375 a 10 10 0 0 0 -10 10 v 309 a 10 10 0 0 0 10 10"></path><g>
<path d="M 1135.0 704 h 179.0"></path></g><path d="M 1314.0 704 a 10 10 0 0 0 10 -10 v -309 a 10 10 0 0 0 -10 -10"></path></g><path d="M 1324.0 375 h 20"></path></g></g><path d="M 1344.0 375 h 20"></path></g></g></g><path d="M 1364.0 375 h 10"></path><path d="M 1374.0 375 h 20 m 0 -10 v 20"></path></g></svg>