<svg class="railroad-diagram" height="1256" viewBox="0 0 907.5 1256" width="907.5" xmlns="http://www.w3.org/2000/svg" xmlns:xlink="http://www.w3.org/1999/xlink">
<g transform="translate(.5 .5)">
<style>/* <![CDATA[ */

    svg.railroad-diagram {
        background-color: hsl(30,20%,95%);
    }
    svg.railroad-diagram path {
        stroke-width: 2;
        stroke: black;
        fill: none;
    }
    svg.railroad-diagram text {
        font-size: 12px;
        text-anchor: middle;
        font-family: DejaVu Sans;
    }
    svg.railroad-diagram text.label {
        text-anchor:start;
    }
    svg.railroad-diagram text.comment {
        font-family: DejaVu Sans;
        font-size: 14px;
    }
    svg.railroad-diagram rect{
        stroke-width: 2;
        stroke: black;
        fill: rgb(210, 255, 210);
    }
    svg.railroad-diagram rect.group-box {
        stroke: gray;
        stroke-dasharray: 10 5;
        fill: none;
    }
    .terminal {
        font-family: DejaVu Sans;
    }
    svg.railroad-diagram g.altterminal rect {
        fill: rgb(251, 252, 207)
    }

/* ]]> */
</style><g>
<path d="M 20 21 v 20 m 0 -10 h 20"></path></g><path d="M 40 31 h 10"></path><g>
<path d="M 50 31 h 0.0"></path><path d="M 857.5 957 h 0.0"></path><g>
<path d="M 50.0 31 h 0.0"></path><path d="M 50.0 31 h 10"></path><g class="terminal ">
<path d="M 60.0 31 h 298.75"></path><path d="M 548.75 31 h 298.75"></path><rect height="22" rx="10" ry="10" width="190.0" x="358.75" y="20"></rect><text x="453.75" y="35">/${Ws}\\periph${HS}/</text></g><path d="M 847.5 31 a 10 10 0 0 1 10 10 v 0 a 10 10 0 0 1 -10 10 h -787.5 a 10 10 0 0 0 -10 10 v 0 a 10 10 0 0 0 10 10"></path><g>
<path d="M 60.0 71 h 308.5"></path><path d="M 539.0 71 h 308.5"></path><path d="M 368.5 71 h 20"></path><g>
<path d="M 388.5 71 h 130.5"></path></g><path d="M 519.0 71 h 20"></path><path d="M 368.5 71 a 10 10 0 0 1 10 10 v 0 a 10 10 0 0 0 10 10"></path><g>
<path d="M 388.5 91 h 0.0"></path><path d="M 519.0 91 h 0.0"></path><g>
<path d="M 388.5 91 h 0.0"></path><path d="M 519.0 91 h 0.0"></path><g class="terminal ">
<path d="M 388.5 91 h 0.0"></path><path d="M 519.0 91 h 0.0"></path><rect height="22" rx="10" ry="10" width="130.5" x="388.5" y="80"></rect><text x="453.75" y="95">TEXTNOTATTRIB</text></g></g></g><path d="M 519.0 91 a 10 10 0 0 0 10 -10 v 0 a 10 10 0 0 1 10 -10"></path></g><path d="M 847.5 71 a 10 10 0 0 1 10 10 v 29 a 10 10 0 0 1 -10 10 h -787.5 a 10 10 0 0 0 -10 10 v 107 a 10 10 0 0 0 10 10"></path><g>
<path d="M 60.0 247 h 10.0"></path><path d="M 837.5 247 h 10.0"></path><g>
<path d="M 70.0 247 h 0.0"></path><path d="M 283.0 247 h 0.0"></path><path d="M 70.0 247 h 20"></path><g class="terminal ">
<path d="M 90.0 247 h 63.75"></path><path d="M 199.25 247 h 63.75"></path><rect height="22" rx="10" ry="10" width="45.5" x="153.75" y="236"></rect><text x="176.5" y="251">'|'</text></g><path d="M 263.0 247 h 20"></path><path d="M 70.0 247 a 10 10 0 0 1 10 10 v 10 a 10 10 0 0 0 10 10"></path><g class="terminal altterminal">
<path d="M 90.0 277 h 0.0"></path><path d="M 263.0 277 h 0.0"></path><rect height="22" rx="10" ry="10" width="173.0" x="90.0" y="266"></rect><text x="176.5" y="281">/${PIPE}${Hs}id="/</text></g><path d="M 263.0 277 a 10 10 0 0 0 10 -10 v -10 a 10 10 0 0 1 10 -10"></path></g><path d="M 283.0 247 h 10"></path><g>
<path d="M 293.0 247 h 0.0"></path><path d="M 782.0 247 h 0.0"></path><path d="M 293.0 247 a 10 10 0 0 0 10 -10 v -99 a 10 10 0 0 1 10 -10 h 197.5"></path><path d="M 530.5 576 h 231.5 a 10 10 0 0 0 10 -10 v -309 a 10 10 0 0 1 10 -10"></path><path d="M 293.0 247 h 10"></path><g>
<path d="M 303.0 247 h 10.0"></path><path d="M 500.5 247 h 10.0"></path><path d="M 313.0 247 a 10 10 0 0 0 10 -10 v -10 a 10 10 0 0 1 10 -10"></path><g class="terminal ">
<path d="M 333.0 217 h 34.0"></path><path d="M 446.5 217 h 34.0"></path><rect height="22" rx="10" ry="10" width="79.5" x="367.0" y="206"></rect><text x="406.75" y="221">"promo"</text></g><path d="M 480.5 217 a 10 10 0 0 1 10 10 v 10 a 10 10 0 0 0 10 10"></path><path d="M 313.0 247 a 10 10 0 0 0 10 -10 v -40 a 10 10 0 0 1 10 -10"></path><g class="terminal ">
<path d="M 333.0 187 h 17.0"></path><path d="M 463.5 187 h 17.0"></path><rect height="22" rx="10" ry="10" width="113.5" x="350.0" y="176"></rect><text x="406.75" y="191">"halftitle"</text></g><path d="M 480.5 187 a 10 10 0 0 1 10 10 v 40 a 10 10 0 0 0 10 10"></path><path d="M 313.0 247 a 10 10 0 0 0 10 -10 v -70 a 10 10 0 0 1 10 -10"></path><g class="terminal ">
<path d="M 333.0 157 h 34.0"></path><path d="M 446.5 157 h 34.0"></path><rect height="22" rx="10" ry="10" width="79.5" x="367.0" y="146"></rect><text x="406.75" y="161">"title"</text></g><path d="M 480.5 157 a 10 10 0 0 1 10 10 v 70 a 10 10 0 0 0 10 10"></path><path d="M 313.0 247 h 20"></path><g class="terminal ">
<path d="M 333.0 247 h 12.75"></path><path d="M 467.75 247 h 12.75"></path><rect height="22" rx="10" ry="10" width="122.0" x="345.75" y="236"></rect><text x="406.75" y="251">"imprimatur"</text></g><path d="M 480.5 247 h 20"></path><path d="M 313.0 247 a 10 10 0 0 1 10 10 v 10 a 10 10 0 0 0 10 10"></path><g class="terminal ">
<path d="M 333.0 277 h 25.5"></path><path d="M 455.0 277 h 25.5"></path><rect height="22" rx="10" ry="10" width="96.5" x="358.5" y="266"></rect><text x="406.75" y="281">"pubdata"</text></g><path d="M 480.5 277 a 10 10 0 0 0 10 -10 v -10 a 10 10 0 0 1 10 -10"></path><path d="M 313.0 247 a 10 10 0 0 1 10 10 v 40 a 10 10 0 0 0 10 10"></path><g class="terminal ">
<path d="M 333.0 307 h 21.25"></path><path d="M 459.25 307 h 21.25"></path><rect height="22" rx="10" ry="10" width="105.0" x="354.25" y="296"></rect><text x="406.75" y="311">"foreword"</text></g><path d="M 480.5 307 a 10 10 0 0 0 10 -10 v -40 a 10 10 0 0 1 10 -10"></path><path d="M 313.0 247 a 10 10 0 0 1 10 10 v 70 a 10 10 0 0 0 10 10"></path><g class="terminal ">
<path d="M 333.0 337 h 25.5"></path><path d="M 455.0 337 h 25.5"></path><rect height="22" rx="10" ry="10" width="96.5" x="358.5" y="326"></rect><text x="406.75" y="341">"preface"</text></g><path d="M 480.5 337 a 10 10 0 0 0 10 -10 v -70 a 10 10 0 0 1 10 -10"></path><path d="M 313.0 247 a 10 10 0 0 1 10 10 v 100 a 10 10 0 0 0 10 10"></path><g class="terminal ">
<path d="M 333.0 367 h 21.25"></path><path d="M 459.25 367 h 21.25"></path><rect height="22" rx="10" ry="10" width="105.0" x="354.25" y="356"></rect><text x="406.75" y="371">"contents"</text></g><path d="M 480.5 367 a 10 10 0 0 0 10 -10 v -100 a 10 10 0 0 1 10 -10"></path><path d="M 313.0 247 a 10 10 0 0 1 10 10 v 130 a 10 10 0 0 0 10 10"></path><g class="terminal ">
<path d="M 333.0 397 h 0.0"></path><path d="M 480.5 397 h 0.0"></path><rect height="22" rx="10" ry="10" width="147.5" x="333.0" y="386"></rect><text x="406.75" y="401">"alphacontents"</text></g><path d="M 480.5 397 a 10 10 0 0 0 10 -10 v -130 a 10 10 0 0 1 10 -10"></path><path d="M 313.0 247 a 10 10 0 0 1 10 10 v 160 a 10 10 0 0 0 10 10"></path><g class="terminal ">
<path d="M 333.0 427 h 0.0"></path><path d="M 480.5 427 h 0.0"></path><rect height="22" rx="10" ry="10" width="147.5" x="333.0" y="416"></rect><text x="406.75" y="431">"abbreviations"</text></g><path d="M 480.5 427 a 10 10 0 0 0 10 -10 v -160 a 10 10 0 0 1 10 -10"></path><path d="M 313.0 247 a 10 10 0 0 1 10 10 v 190 a 10 10 0 0 0 10 10"></path><g class="terminal ">
<path d="M 333.0 457 h 21.25"></path><path d="M 459.25 457 h 21.25"></path><rect height="22" rx="10" ry="10" width="105.0" x="354.25" y="446"></rect><text x="406.75" y="461">"intbible"</text></g><path d="M 480.5 457 a 10 10 0 0 0 10 -10 v -190 a 10 10 0 0 1 10 -10"></path><path d="M 313.0 247 a 10 10 0 0 1 10 10 v 220 a 10 10 0 0 0 10 10"></path><g class="terminal ">
<path d="M 333.0 487 h 34.0"></path><path d="M 446.5 487 h 34.0"></path><rect height="22" rx="10" ry="10" width="79.5" x="367.0" y="476"></rect><text x="406.75" y="491">"intot"</text></g><path d="M 480.5 487 a 10 10 0 0 0 10 -10 v -220 a 10 10 0 0 1 10 -10"></path><path d="M 313.0 247 a 10 10 0 0 1 10 10 v 250 a 10 10 0 0 0 10 10"></path><g class="terminal ">
<path d="M 333.0 517 h 25.5"></path><path d="M 455.0 517 h 25.5"></path><rect height="22" rx="10" ry="10" width="96.5" x="358.5" y="506"></rect><text x="406.75" y="521">"intpent"</text></g><path d="M 480.5 517 a 10 10 0 0 0 10 -10 v -250 a 10 10 0 0 1 10 -10"></path><path d="M 313.0 247 a 10 10 0 0 1 10 10 v 280 a 10 10 0 0 0 10 10"></path><g class="terminal ">
<path d="M 333.0 547 h 12.75"></path><path d="M 467.75 547 h 12.75"></path><rect height="22" rx="10" ry="10" width="122.0" x="345.75" y="536"></rect><text x="406.75" y="551">"inthistory"</text></g><path d="M 480.5 547 a 10 10 0 0 0 10 -10 v -280 a 10 10 0 0 1 10 -10"></path><path d="M 313.0 247 a 10 10 0 0 1 10 10 v 310 a 10 10 0 0 0 10 10"></path><g class="terminal ">
<path d="M 333.0 577 h 17.0"></path><path d="M 463.5 577 h 17.0"></path><rect height="22" rx="10" ry="10" width="113.5" x="350.0" y="566"></rect><text x="406.75" y="581">"intpoetry"</text></g><path d="M 480.5 577 a 10 10 0 0 0 10 -10 v -310 a 10 10 0 0 1 10 -10"></path></g><path d="M 510.5 247 a 10 10 0 0 1 10 10 v 309 a 10 10 0 0 0 10 10"></path><path d="M 510.5 128 a 10 10 0 0 1 10 10 v 99 a 10 10 0 0 0 10 10"></path><g>
<path d="M 530.5 247 h 10.0"></path><path d="M 762.0 247 h 10.0"></path><path d="M 540.5 247 a 10 10 0 0 0 10 -10 v -10 a 10 10 0 0 1 10 -10"></path><g class="terminal ">
<path d="M 560.5 217 h 51.0"></path><path d="M 691.0 217 h 51.0"></path><rect height="22" rx="10" ry="10" width="79.5" x="611.5" y="206"></rect><text x="651.25" y="221">"intnt"</text></g><path d="M 742.0 217 a 10 10 0 0 1 10 10 v 10 a 10 10 0 0 0 10 10"></path><path d="M 540.5 247 a 10 10 0 0 0 10 -10 v -40 a 10 10 0 0 1 10 -10"></path><g class="terminal ">
<path d="M 560.5 187 h 51.0"></path><path d="M 691.0 187 h 51.0"></path><rect height="22" rx="10" ry="10" width="79.5" x="611.5" y="176"></rect><text x="651.25" y="191">"intdc"</text></g><path d="M 742.0 187 a 10 10 0 0 1 10 10 v 40 a 10 10 0 0 0 10 10"></path><path d="M 540.5 247 a 10 10 0 0 0 10 -10 v -70 a 10 10 0 0 1 10 -10"></path><g class="terminal ">
<path d="M 560.5 157 h 25.5"></path><path d="M 716.5 157 h 25.5"></path><rect height="22" rx="10" ry="10" width="130.5" x="586.0" y="146"></rect><text x="651.25" y="161">"intprophesy"</text></g><path d="M 742.0 157 a 10 10 0 0 1 10 10 v 70 a 10 10 0 0 0 10 10"></path><path d="M 540.5 247 h 20"></path><g class="terminal ">
<path d="M 560.5 247 h 29.75"></path><path d="M 712.25 247 h 29.75"></path><rect height="22" rx="10" ry="10" width="122.0" x="590.25" y="236"></rect><text x="651.25" y="251">"intgospels"</text></g><path d="M 742.0 247 h 20"></path><path d="M 540.5 247 a 10 10 0 0 1 10 10 v 10 a 10 10 0 0 0 10 10"></path><g class="terminal ">
<path d="M 560.5 277 h 25.5"></path><path d="M 716.5 277 h 25.5"></path><rect height="22" rx="10" ry="10" width="130.5" x="586.0" y="266"></rect><text x="651.25" y="281">"intepistles"</text></g><path d="M 742.0 277 a 10 10 0 0 0 10 -10 v -10 a 10 10 0 0 1 10 -10"></path><path d="M 540.5 247 a 10 10 0 0 1 10 10 v 40 a 10 10 0 0 0 10 10"></path><g class="terminal ">
<path d="M 560.5 307 h 29.75"></path><path d="M 712.25 307 h 29.75"></path><rect height="22" rx="10" ry="10" width="122.0" x="590.25" y="296"></rect><text x="651.25" y="311">"intletters"</text></g><path d="M 742.0 307 a 10 10 0 0 0 10 -10 v -40 a 10 10 0 0 1 10 -10"></path><path d="M 540.5 247 a 10 10 0 0 1 10 10 v 70 a 10 10 0 0 0 10 10"></path><g class="terminal ">
<path d="M 560.5 337 h 51.0"></path><path d="M 691.0 337 h 51.0"></path><rect height="22" rx="10" ry="10" width="79.5" x="611.5" y="326"></rect><text x="651.25" y="341">"chron"</text></g><path d="M 742.0 337 a 10 10 0 0 0 10 -10 v -70 a 10 10 0 0 1 10 -10"></path><path d="M 540.5 247 a 10 10 0 0 1 10 10 v 100 a 10 10 0 0 0 10 10"></path><g class="terminal ">
<path d="M 560.5 367 h 38.25"></path><path d="M 703.75 367 h 38.25"></path><rect height="22" rx="10" ry="10" width="105.0" x="598.75" y="356"></rect><text x="651.25" y="371">"measures"</text></g><path d="M 742.0 367 a 10 10 0 0 0 10 -10 v -100 a 10 10 0 0 1 10 -10"></path><path d="M 540.5 247 a 10 10 0 0 1 10 10 v 130 a 10 10 0 0 0 10 10"></path><g class="terminal ">
<path d="M 560.5 397 h 55.25"></path><path d="M 686.75 397 h 55.25"></path><rect height="22" rx="10" ry="10" width="71.0" x="615.75" y="386"></rect><text x="651.25" y="401">"maps"</text></g><path d="M 742.0 397 a 10 10 0 0 0 10 -10 v -130 a 10 10 0 0 1 10 -10"></path><path d="M 540.5 247 a 10 10 0 0 1 10 10 v 160 a 10 10 0 0 0 10 10"></path><g class="terminal ">
<path d="M 560.5 427 h 34.0"></path><path d="M 708.0 427 h 34.0"></path><rect height="22" rx="10" ry="10" width="113.5" x="594.5" y="416"></rect><text x="651.25" y="431">"lxxquotes"</text></g><path d="M 742.0 427 a 10 10 0 0 0 10 -10 v -160 a 10 10 0 0 1 10 -10"></path><path d="M 540.5 247 a 10 10 0 0 1 10 10 v 190 a 10 10 0 0 0 10 10"></path><g class="terminal ">
<path d="M 560.5 457 h 51.0"></path><path d="M 691.0 457 h 51.0"></path><rect height="22" rx="10" ry="10" width="79.5" x="611.5" y="446"></rect><text x="651.25" y="461">"cover"</text></g><path d="M 742.0 457 a 10 10 0 0 0 10 -10 v -190 a 10 10 0 0 1 10 -10"></path><path d="M 540.5 247 a 10 10 0 0 1 10 10 v 220 a 10 10 0 0 0 10 10"></path><g class="terminal ">
<path d="M 560.5 487 h 51.0"></path><path d="M 691.0 487 h 51.0"></path><rect height="22" rx="10" ry="10" width="79.5" x="611.5" y="476"></rect><text x="651.25" y="491">"spine"</text></g><path d="M 742.0 487 a 10 10 0 0 0 10 -10 v -220 a 10 10 0 0 1 10 -10"></path><path d="M 540.5 247 a 10 10 0 0 1 10 10 v 250 a 10 10 0 0 0 10 10"></path><g class="terminal ">
<path d="M 560.5 517 h 63.75"></path><path d="M 678.25 517 h 63.75"></path><rect height="22" rx="10" ry="10" width="54.0" x="624.25" y="506"></rect><text x="651.25" y="521">TEXT</text></g><path d="M 742.0 517 a 10 10 0 0 0 10 -10 v -250 a 10 10 0 0 1 10 -10"></path><path d="M 540.5 247 a 10 10 0 0 1 10 10 v 280 a 10 10 0 0 0 10 10"></path><g class="terminal ">
<path d="M 560.5 547 h 0.0"></path><path d="M 742.0 547 h 0.0"></path><rect height="22" rx="10" ry="10" width="181.5" x="560.5" y="536"></rect><text x="651.25" y="551">/x\-&#91;\p{L}&#95;\-\.:&#93;+/</text></g><path d="M 742.0 547 a 10 10 0 0 0 10 -10 v -280 a 10 10 0 0 1 10 -10"></path></g><path d="M 772.0 247 h 10"></path></g><path d="M 782.0 247 h 10"></path><g class="terminal ">
<path d="M 792.0 247 h 0.0"></path><path d="M 837.5 247 h 0.0"></path><rect height="22" rx="10" ry="10" width="45.5" x="792.0" y="236"></rect><text x="814.75" y="251">'"'</text></g></g><path d="M 847.5 247 a 10 10 0 0 1 10 10 v 339 a 10 10 0 0 1 -10 10 h -787.5 a 10 10 0 0 0 -10 10 v 18 a 10 10 0 0 0 10 10"></path><g>
<path d="M 60.0 644 h 307.0"></path><path d="M 540.5 644 h 307.0"></path><path d="M 367.0 644 a 10 10 0 0 0 10 -10 v 0 a 10 10 0 0 1 10 -10"></path><g>
<path d="M 387.0 624 h 133.5"></path></g><path d="M 520.5 624 a 10 10 0 0 1 10 10 v 0 a 10 10 0 0 0 10 10"></path><path d="M 367.0 644 h 20"></path><g>
<path d="M 387.0 644 h 0.0"></path><path d="M 520.5 644 h 0.0"></path><path d="M 387.0 644 h 10"></path><g class="non-terminal ">
<path d="M 397.0 644 h 0.0"></path><path d="M 510.5 644 h 0.0"></path><rect height="22" width="113.5" x="397.0" y="633"></rect><text x="453.75" y="648">BookHeaders</text></g><path d="M 510.5 644 h 10"></path><path d="M 397.0 644 a 10 10 0 0 0 -10 10 v 0 a 10 10 0 0 0 10 10"></path><g>
<path d="M 397.0 664 h 113.5"></path></g><path d="M 510.5 664 a 10 10 0 0 0 10 -10 v 0 a 10 10 0 0 0 -10 -10"></path></g><path d="M 520.5 644 h 20"></path></g><path d="M 847.5 644 a 10 10 0 0 1 10 10 v 18 a 10 10 0 0 1 -10 10 h -787.5 a 10 10 0 0 0 -10 10 v 18 a 10 10 0 0 0 10 10"></path><g>
<path d="M 60.0 720 h 311.25"></path><path d="M 536.25 720 h 311.25"></path><path d="M 371.25 720 a 10 10 0 0 0 10 -10 v 0 a 10 10 0 0 1 10 -10"></path><g>
<path d="M 391.25 700 h 125.0"></path></g><path d="M 516.25 700 a 10 10 0 0 1 10 10 v 0 a 10 10 0 0 0 10 10"></path><path d="M 371.25 720 h 20"></path><g>
<path d="M 391.25 720 h 0.0"></path><path d="M 516.25 720 h 0.0"></path><path d="M 391.25 720 h 10"></path><g class="non-terminal ">
<path d="M 401.25 720 h 0.0"></path><path d="M 506.25 720 h 0.0"></path><rect height="22" width="105.0" x="401.25" y="709"></rect><text x="453.75" y="724">BookTitles</text></g><path d="M 506.25 720 h 10"></path><path d="M 401.25 720 a 10 10 0 0 0 -10 10 v 0 a 10 10 0 0 0 10 10"></path><g>
<path d="M 401.25 740 h 105.0"></path></g><path d="M 506.25 740 a 10 10 0 0 0 10 -10 v 0 a 10 10 0 0 0 -10 -10"></path></g><path d="M 516.25 720 h 20"></path></g><path d="M 847.5 720 a 10 10 0 0 1 10 10 v 18 a 10 10 0 0 1 -10 10 h -787.5 a 10 10 0 0 0 -10 10 v 18 a 10 10 0 0 0 10 10"></path><g>
<path d="M 60.0 796 h 285.75"></path><path d="M 561.75 796 h 285.75"></path><path d="M 345.75 796 a 10 10 0 0 0 10 -10 v 0 a 10 10 0 0 1 10 -10"></path><g>
<path d="M 365.75 776 h 176.0"></path></g><path d="M 541.75 776 a 10 10 0 0 1 10 10 v 0 a 10 10 0 0 0 10 10"></path><path d="M 345.75 796 h 20"></path><g>
<path d="M 365.75 796 h 0.0"></path><path d="M 541.75 796 h 0.0"></path><path d="M 365.75 796 h 10"></path><g class="non-terminal ">
<path d="M 375.75 796 h 0.0"></path><path d="M 531.75 796 h 0.0"></path><rect height="22" width="156.0" x="375.75" y="785"></rect><text x="453.75" y="800">BookIntroduction</text></g><path d="M 531.75 796 h 10"></path><path d="M 375.75 796 a 10 10 0 0 0 -10 10 v 0 a 10 10 0 0 0 10 10"></path><g>
<path d="M 375.75 816 h 156.0"></path></g><path d="M 531.75 816 a 10 10 0 0 0 10 -10 v 0 a 10 10 0 0 0 -10 -10"></path></g><path d="M 541.75 796 h 20"></path></g><path d="M 847.5 796 a 10 10 0 0 1 10 10 v 18 a 10 10 0 0 1 -10 10 h -787.5 a 10 10 0 0 0 -10 10 v 18 a 10 10 0 0 0 10 10"></path><g>
<path d="M 60.0 872 h 247.5"></path><path d="M 600.0 872 h 247.5"></path><path d="M 307.5 872 a 10 10 0 0 0 10 -10 v 0 a 10 10 0 0 1 10 -10"></path><g>
<path d="M 327.5 852 h 252.5"></path></g><path d="M 580.0 852 a 10 10 0 0 1 10 10 v 0 a 10 10 0 0 0 10 10"></path><path d="M 307.5 872 h 20"></path><g>
<path d="M 327.5 872 h 0.0"></path><path d="M 580.0 872 h 0.0"></path><path d="M 327.5 872 h 10"></path><g class="non-terminal ">
<path d="M 337.5 872 h 0.0"></path><path d="M 570.0 872 h 0.0"></path><rect height="22" width="232.5" x="337.5" y="861"></rect><text x="453.75" y="876">BookIntroductionEndTitles</text></g><path d="M 570.0 872 h 10"></path><path d="M 337.5 872 a 10 10 0 0 0 -10 10 v 0 a 10 10 0 0 0 10 10"></path><g>
<path d="M 337.5 892 h 232.5"></path></g><path d="M 570.0 892 a 10 10 0 0 0 10 -10 v 0 a 10 10 0 0 0 -10 -10"></path></g><path d="M 580.0 872 h 20"></path></g><path d="M 847.5 872 a 10 10 0 0 1 10 10 v 18 a 10 10 0 0 1 -10 10 h -787.5 a 10 10 0 0 0 -10 10 v 27 a 10 10 0 0 0 10 10"></path><g>
<path d="M 60.0 957 h 274.25"></path><path d="M 573.25 957 h 274.25"></path><path d="M 334.25 957 a 10 10 0 0 0 10 -10 v -9 a 10 10 0 0 1 10 -10"></path><g>
<path d="M 354.25 928 h 199.0"></path></g><path d="M 553.25 928 a 10 10 0 0 1 10 10 v 9 a 10 10 0 0 0 10 10"></path><path d="M 334.25 957 h 20"></path><g>
<path d="M 354.25 957 h 0.0"></path><path d="M 553.25 957 h 0.0"></path><path d="M 354.25 957 h 10"></path><g>
<path d="M 364.25 957 h 0.0"></path><path d="M 543.25 957 h 0.0"></path><path d="M 364.25 957 h 20"></path><g class="non-terminal ">
<path d="M 384.25 957 h 29.75"></path><path d="M 493.5 957 h 29.75"></path><rect height="22" width="79.5" x="414.0" y="946"></rect><text x="453.75" y="961">Chapter</text></g><path d="M 523.25 957 h 20"></path><path d="M 364.25 957 a 10 10 0 0 1 10 10 v 10 a 10 10 0 0 0 10 10"></path><g class="non-terminal ">
<path d="M 384.25 987 h 29.75"></path><path d="M 493.5 987 h 29.75"></path><rect height="22" width="79.5" x="414.0" y="976"></rect><text x="453.75" y="991">Section</text></g><path d="M 523.25 987 a 10 10 0 0 0 10 -10 v -10 a 10 10 0 0 1 10 -10"></path><path d="M 364.25 957 a 10 10 0 0 1 10 10 v 40 a 10 10 0 0 0 10 10"></path><g class="non-terminal ">
<path d="M 384.25 1017 h 42.5"></path><path d="M 480.75 1017 h 42.5"></path><rect height="22" width="54.0" x="426.75" y="1006"></rect><text x="453.75" y="1021">Para</text></g><path d="M 523.25 1017 a 10 10 0 0 0 10 -10 v -40 a 10 10 0 0 1 10 -10"></path><path d="M 364.25 957 a 10 10 0 0 1 10 10 v 70 a 10 10 0 0 0 10 10"></path><g class="non-terminal ">
<path d="M 384.25 1047 h 42.5"></path><path d="M 480.75 1047 h 42.5"></path><rect height="22" width="54.0" x="426.75" y="1036"></rect><text x="453.75" y="1051">List</text></g><path d="M 523.25 1047 a 10 10 0 0 0 10 -10 v -70 a 10 10 0 0 1 10 -10"></path><path d="M 364.25 957 a 10 10 0 0 1 10 10 v 100 a 10 10 0 0 0 10 10"></path><g class="non-terminal ">
<path d="M 384.25 1077 h 38.25"></path><path d="M 485.0 1077 h 38.25"></path><rect height="22" width="62.5" x="422.5" y="1066"></rect><text x="453.75" y="1081">Table</text></g><path d="M 523.25 1077 a 10 10 0 0 0 10 -10 v -100 a 10 10 0 0 1 10 -10"></path><path d="M 364.25 957 a 10 10 0 0 1 10 10 v 130 a 10 10 0 0 0 10 10"></path><g class="non-terminal ">
<path d="M 384.25 1107 h 25.5"></path><path d="M 497.75 1107 h 25.5"></path><rect height="22" width="88.0" x="409.75" y="1096"></rect><text x="453.75" y="1111">Footnote</text></g><path d="M 523.25 1107 a 10 10 0 0 0 10 -10 v -130 a 10 10 0 0 1 10 -10"></path><path d="M 364.25 957 a 10 10 0 0 1 10 10 v 160 a 10 10 0 0 0 10 10"></path><g class="non-terminal ">
<path d="M 384.25 1137 h 0.0"></path><path d="M 523.25 1137 h 0.0"></path><rect height="22" width="139.0" x="384.25" y="1126"></rect><text x="453.75" y="1141">CrossReference</text></g><path d="M 523.25 1137 a 10 10 0 0 0 10 -10 v -160 a 10 10 0 0 1 10 -10"></path><path d="M 364.25 957 a 10 10 0 0 1 10 10 v 190 a 10 10 0 0 0 10 10"></path><g class="non-terminal ">
<path d="M 384.25 1167 h 29.75"></path><path d="M 493.5 1167 h 29.75"></path><rect height="22" width="79.5" x="414.0" y="1156"></rect><text x="453.75" y="1171">Sidebar</text></g><path d="M 523.25 1167 a 10 10 0 0 0 10 -10 v -190 a 10 10 0 0 1 10 -10"></path><path d="M 364.25 957 a 10 10 0 0 1 10 10 v 220 a 10 10 0 0 0 10 10"></path><g class="non-terminal ">
<path d="M 384.25 1197 h 21.25"></path><path d="M 502.0 1197 h 21.25"></path><rect height="22" width="96.5" x="405.5" y="1186"></rect><text x="453.75" y="1201">Milestone</text></g><path d="M 523.25 1197 a 10 10 0 0 0 10 -10 v -220 a 10 10 0 0 1 10 -10"></path></g><path d="M 543.25 957 h 10"></path><path d="M 364.25 957 a 10 10 0 0 0 -10 10 v 249 a 10 10 0 0 0 10 10"></path><g>
<path d="M 364.25 1226 h 179.0"></path></g><path d="M 543.25 1226 a 10 10 0 0 0 10 -10 v -249 a 10 10 0 0 0 -10 -10"></path></g><path d="M 553.25 957 h 20"></path></g><path d="M 847.5 957 h 10"></path><path d="M 857.5 957 h 0.0"></path></g></g><path d="M 857.5 957 h 10"></path><path d="M 867.5 957 h 20 m 0 -10 v 20"></path></g></svg>