<svg class="railroad-diagram" height="1005" viewBox="0 0 1414.0 1005" width="1414.0" xmlns="http://www.w3.org/2000/svg" xmlns:xlink="http://www.w3.org/1999/xlink">
<g transform="translate(.5 .5)">
<style>/* <![CDATA[ */

    svg.railroad-diagram {
        background-color: hsl(30,20%,95%);
    }
    svg.railroad-diagram path {
        stroke-width: 2;
        stroke: black;
        fill: none;
    }
    svg.railroad-diagram text {
        font-size: 12px;
        text-anchor: middle;
        font-family: DejaVu Sans;
    }
    svg.railroad-diagram text.label {
        text-anchor:start;
    }
    svg.railroad-diagram text.comment {
        font-family: DejaVu Sans;
        font-size: 14px;
    }
    svg.railroad-diagram rect{
        stroke-width: 2;
        stroke: black;
        fill: rgb(210, 210, 255);
    }
    svg.railroad-diagram rect.group-box {
        stroke: gray;
        stroke-dasharray: 10 5;
        fill: none;
    }
    .terminal {
        font-family: DejaVu Sans;
    }
    svg.railroad-diagram g.altterminal rect {
        fill: rgb(251, 252, 207)
    }

/* ]]> */
</style><g>
<path d="M 20 538 v 20 m 0 -10 h 20"></path></g><path d="M 40 548 h 10"></path><g>
<path d="M 50 548 h 0.0"></path><path d="M 1364.0 548 h 0.0"></path><g>
<path d="M 50.0 548 h 0.0"></path><path d="M 1364.0 548 h 0.0"></path><g class="terminal ">
<path d="M 50.0 548 h 0.0"></path><path d="M 138.0 548 h 0.0"></path><rect height="22" rx="10" ry="10" width="88.0" x="50.0" y="537"></rect><text x="94.0" y="552">&#60;periph></text></g><path d="M 138.0 548 h 10"></path><path d="M 148.0 548 h 10"></path><g>
<path d="M 158.0 548 h 0.0"></path><path d="M 1364.0 548 h 0.0"></path><path d="M 158.0 548 a 10 10 0 0 0 10 -10 v -9 a 10 10 0 0 1 10 -10"></path><g>
<path d="M 178.0 519 h 0.0"></path><path d="M 306.0 519 h 0.0"></path><g class="terminal ">
<path d="M 178.0 519 h 0.0"></path><path d="M 232.0 519 h 0.0"></path><rect height="22" rx="10" ry="10" width="54.0" x="178.0" y="508"></rect><text x="205.0" y="523">@alt</text></g><path d="M 232.0 519 h 10"></path><path d="M 242.0 519 h 10"></path><g class="terminal ">
<path d="M 252.0 519 h 0.0"></path><path d="M 306.0 519 h 0.0"></path><rect height="22" rx="10" ry="10" width="54.0" x="252.0" y="508"></rect><text x="279.0" y="523">TEXT</text></g></g><path d="M 158.0 548 a 10 10 0 0 0 10 -10 v -379 a 10 10 0 0 1 10 -10"></path><g>
<path d="M 178.0 149 h 0.0"></path><path d="M 722.5 149 h 0.0"></path><g class="terminal ">
<path d="M 178.0 149 h 0.0"></path><path d="M 223.5 149 h 0.0"></path><rect height="22" rx="10" ry="10" width="45.5" x="178.0" y="138"></rect><text x="200.75" y="153">@id</text></g><path d="M 223.5 149 h 10"></path><g>
<path d="M 233.5 149 h 0.0"></path><path d="M 722.5 149 h 0.0"></path><path d="M 233.5 149 a 10 10 0 0 0 10 -10 v -99 a 10 10 0 0 1 10 -10 h 177.5"></path><path d="M 233.5 149 h 10"></path><g>
<path d="M 243.5 149 h 0.0"></path><path d="M 243.5 149 a 10 10 0 0 0 10 -10 v -10 a 10 10 0 0 1 10 -10"></path><g class="terminal ">
<path d="M 263.5 119 h 0.0"></path><path d="M 343.0 119 h 0.0"></path><rect height="22" rx="10" ry="10" width="79.5" x="263.5" y="108"></rect><text x="303.25" y="123">"promo"</text></g><path d="M 243.5 149 a 10 10 0 0 0 10 -10 v -40 a 10 10 0 0 1 10 -10"></path><g class="terminal ">
<path d="M 263.5 89 h 0.0"></path><path d="M 377.0 89 h 0.0"></path><rect height="22" rx="10" ry="10" width="113.5" x="263.5" y="78"></rect><text x="320.25" y="93">"halftitle"</text></g><path d="M 243.5 149 a 10 10 0 0 0 10 -10 v -70 a 10 10 0 0 1 10 -10"></path><g class="terminal ">
<path d="M 263.5 59 h 0.0"></path><path d="M 343.0 59 h 0.0"></path><rect height="22" rx="10" ry="10" width="79.5" x="263.5" y="48"></rect><text x="303.25" y="63">"title"</text></g><path d="M 243.5 149 h 20"></path><g class="terminal ">
<path d="M 263.5 149 h 0.0"></path><path d="M 385.5 149 h 0.0"></path><rect height="22" rx="10" ry="10" width="122.0" x="263.5" y="138"></rect><text x="324.5" y="153">"imprimatur"</text></g><path d="M 243.5 149 a 10 10 0 0 1 10 10 v 10 a 10 10 0 0 0 10 10"></path><g class="terminal ">
<path d="M 263.5 179 h 0.0"></path><path d="M 360.0 179 h 0.0"></path><rect height="22" rx="10" ry="10" width="96.5" x="263.5" y="168"></rect><text x="311.75" y="183">"pubdata"</text></g><path d="M 243.5 149 a 10 10 0 0 1 10 10 v 40 a 10 10 0 0 0 10 10"></path><g class="terminal ">
<path d="M 263.5 209 h 0.0"></path><path d="M 368.5 209 h 0.0"></path><rect height="22" rx="10" ry="10" width="105.0" x="263.5" y="198"></rect><text x="316.0" y="213">"foreword"</text></g><path d="M 243.5 149 a 10 10 0 0 1 10 10 v 70 a 10 10 0 0 0 10 10"></path><g class="terminal ">
<path d="M 263.5 239 h 0.0"></path><path d="M 360.0 239 h 0.0"></path><rect height="22" rx="10" ry="10" width="96.5" x="263.5" y="228"></rect><text x="311.75" y="243">"preface"</text></g><path d="M 243.5 149 a 10 10 0 0 1 10 10 v 100 a 10 10 0 0 0 10 10"></path><g class="terminal ">
<path d="M 263.5 269 h 0.0"></path><path d="M 368.5 269 h 0.0"></path><rect height="22" rx="10" ry="10" width="105.0" x="263.5" y="258"></rect><text x="316.0" y="273">"contents"</text></g><path d="M 243.5 149 a 10 10 0 0 1 10 10 v 130 a 10 10 0 0 0 10 10"></path><g class="terminal ">
<path d="M 263.5 299 h 0.0"></path><path d="M 411.0 299 h 0.0"></path><rect height="22" rx="10" ry="10" width="147.5" x="263.5" y="288"></rect><text x="337.25" y="303">"alphacontents"</text></g><path d="M 243.5 149 a 10 10 0 0 1 10 10 v 160 a 10 10 0 0 0 10 10"></path><g class="terminal ">
<path d="M 263.5 329 h 0.0"></path><path d="M 411.0 329 h 0.0"></path><rect height="22" rx="10" ry="10" width="147.5" x="263.5" y="318"></rect><text x="337.25" y="333">"abbreviations"</text></g><path d="M 243.5 149 a 10 10 0 0 1 10 10 v 190 a 10 10 0 0 0 10 10"></path><g class="terminal ">
<path d="M 263.5 359 h 0.0"></path><path d="M 368.5 359 h 0.0"></path><rect height="22" rx="10" ry="10" width="105.0" x="263.5" y="348"></rect><text x="316.0" y="363">"intbible"</text></g><path d="M 243.5 149 a 10 10 0 0 1 10 10 v 220 a 10 10 0 0 0 10 10"></path><g class="terminal ">
<path d="M 263.5 389 h 0.0"></path><path d="M 343.0 389 h 0.0"></path><rect height="22" rx="10" ry="10" width="79.5" x="263.5" y="378"></rect><text x="303.25" y="393">"intot"</text></g><path d="M 243.5 149 a 10 10 0 0 1 10 10 v 250 a 10 10 0 0 0 10 10"></path><g class="terminal ">
<path d="M 263.5 419 h 0.0"></path><path d="M 360.0 419 h 0.0"></path><rect height="22" rx="10" ry="10" width="96.5" x="263.5" y="408"></rect><text x="311.75" y="423">"intpent"</text></g><path d="M 243.5 149 a 10 10 0 0 1 10 10 v 280 a 10 10 0 0 0 10 10"></path><g class="terminal ">
<path d="M 263.5 449 h 0.0"></path><path d="M 385.5 449 h 0.0"></path><rect height="22" rx="10" ry="10" width="122.0" x="263.5" y="438"></rect><text x="324.5" y="453">"inthistory"</text></g><path d="M 243.5 149 a 10 10 0 0 1 10 10 v 310 a 10 10 0 0 0 10 10"></path><g class="terminal ">
<path d="M 263.5 479 h 0.0"></path><path d="M 377.0 479 h 0.0"></path><rect height="22" rx="10" ry="10" width="113.5" x="263.5" y="468"></rect><text x="320.25" y="483">"intpoetry"</text></g></g><path d="M 431.0 30 a 10 10 0 0 1 10 10 v 99 a 10 10 0 0 0 10 10"></path><g>
<path d="M 451.0 149 h 0.0"></path><path d="M 451.0 149 a 10 10 0 0 0 10 -10 v -10 a 10 10 0 0 1 10 -10"></path><g class="terminal ">
<path d="M 471.0 119 h 0.0"></path><path d="M 550.5 119 h 0.0"></path><rect height="22" rx="10" ry="10" width="79.5" x="471.0" y="108"></rect><text x="510.75" y="123">"intnt"</text></g><path d="M 451.0 149 a 10 10 0 0 0 10 -10 v -40 a 10 10 0 0 1 10 -10"></path><g class="terminal ">
<path d="M 471.0 89 h 0.0"></path><path d="M 550.5 89 h 0.0"></path><rect height="22" rx="10" ry="10" width="79.5" x="471.0" y="78"></rect><text x="510.75" y="93">"intdc"</text></g><path d="M 451.0 149 a 10 10 0 0 0 10 -10 v -70 a 10 10 0 0 1 10 -10"></path><g class="terminal ">
<path d="M 471.0 59 h 0.0"></path><path d="M 601.5 59 h 0.0"></path><rect height="22" rx="10" ry="10" width="130.5" x="471.0" y="48"></rect><text x="536.25" y="63">"intprophesy"</text></g><path d="M 451.0 149 h 20"></path><g class="terminal ">
<path d="M 471.0 149 h 0.0"></path><path d="M 593.0 149 h 0.0"></path><rect height="22" rx="10" ry="10" width="122.0" x="471.0" y="138"></rect><text x="532.0" y="153">"intgospels"</text></g><path d="M 451.0 149 a 10 10 0 0 1 10 10 v 10 a 10 10 0 0 0 10 10"></path><g class="terminal ">
<path d="M 471.0 179 h 0.0"></path><path d="M 601.5 179 h 0.0"></path><rect height="22" rx="10" ry="10" width="130.5" x="471.0" y="168"></rect><text x="536.25" y="183">"intepistles"</text></g><path d="M 451.0 149 a 10 10 0 0 1 10 10 v 40 a 10 10 0 0 0 10 10"></path><g class="terminal ">
<path d="M 471.0 209 h 0.0"></path><path d="M 593.0 209 h 0.0"></path><rect height="22" rx="10" ry="10" width="122.0" x="471.0" y="198"></rect><text x="532.0" y="213">"intletters"</text></g><path d="M 451.0 149 a 10 10 0 0 1 10 10 v 70 a 10 10 0 0 0 10 10"></path><g class="terminal ">
<path d="M 471.0 239 h 0.0"></path><path d="M 550.5 239 h 0.0"></path><rect height="22" rx="10" ry="10" width="79.5" x="471.0" y="228"></rect><text x="510.75" y="243">"chron"</text></g><path d="M 451.0 149 a 10 10 0 0 1 10 10 v 100 a 10 10 0 0 0 10 10"></path><g class="terminal ">
<path d="M 471.0 269 h 0.0"></path><path d="M 576.0 269 h 0.0"></path><rect height="22" rx="10" ry="10" width="105.0" x="471.0" y="258"></rect><text x="523.5" y="273">"measures"</text></g><path d="M 451.0 149 a 10 10 0 0 1 10 10 v 130 a 10 10 0 0 0 10 10"></path><g class="terminal ">
<path d="M 471.0 299 h 0.0"></path><path d="M 542.0 299 h 0.0"></path><rect height="22" rx="10" ry="10" width="71.0" x="471.0" y="288"></rect><text x="506.5" y="303">"maps"</text></g><path d="M 451.0 149 a 10 10 0 0 1 10 10 v 160 a 10 10 0 0 0 10 10"></path><g class="terminal ">
<path d="M 471.0 329 h 0.0"></path><path d="M 584.5 329 h 0.0"></path><rect height="22" rx="10" ry="10" width="113.5" x="471.0" y="318"></rect><text x="527.75" y="333">"lxxquotes"</text></g><path d="M 451.0 149 a 10 10 0 0 1 10 10 v 190 a 10 10 0 0 0 10 10"></path><g class="terminal ">
<path d="M 471.0 359 h 0.0"></path><path d="M 550.5 359 h 0.0"></path><rect height="22" rx="10" ry="10" width="79.5" x="471.0" y="348"></rect><text x="510.75" y="363">"cover"</text></g><path d="M 451.0 149 a 10 10 0 0 1 10 10 v 220 a 10 10 0 0 0 10 10"></path><g class="terminal ">
<path d="M 471.0 389 h 0.0"></path><path d="M 550.5 389 h 0.0"></path><rect height="22" rx="10" ry="10" width="79.5" x="471.0" y="378"></rect><text x="510.75" y="393">"spine"</text></g><path d="M 451.0 149 a 10 10 0 0 1 10 10 v 250 a 10 10 0 0 0 10 10"></path><g class="terminal ">
<path d="M 471.0 419 h 0.0"></path><path d="M 525.0 419 h 0.0"></path><rect height="22" rx="10" ry="10" width="54.0" x="471.0" y="408"></rect><text x="498.0" y="423">TEXT</text></g><path d="M 451.0 149 a 10 10 0 0 1 10 10 v 280 a 10 10 0 0 0 10 10"></path><g class="terminal ">
<path d="M 471.0 449 h 0.0"></path><path d="M 652.5 449 h 0.0"></path><rect height="22" rx="10" ry="10" width="181.5" x="471.0" y="438"></rect><text x="561.75" y="453">/x\-&#91;\p{L}&#95;\-\.:&#93;+/</text></g></g></g></g><path d="M 158.0 548 h 20"></path><g>
<path d="M 178.0 548 h 497.75"></path><path d="M 846.25 548 h 497.75"></path><g>
<path d="M 675.75 548 h 0.0"></path><path d="M 846.25 548 h 0.0"></path><path d="M 675.75 548 h 20"></path><g>
<path d="M 695.75 548 h 130.5"></path></g><path d="M 826.25 548 h 20"></path><path d="M 675.75 548 a 10 10 0 0 1 10 10 v 0 a 10 10 0 0 0 10 10"></path><g class="non-terminal ">
<path d="M 695.75 568 h 0.0"></path><path d="M 826.25 568 h 0.0"></path><rect height="22" width="130.5" x="695.75" y="557"></rect><text x="761.0" y="572">AttributesPre</text></g><path d="M 826.25 568 a 10 10 0 0 0 10 -10 v 0 a 10 10 0 0 1 10 -10"></path></g></g><path d="M 1344.0 548 h 20"></path><path d="M 158.0 548 a 10 10 0 0 1 10 10 v 68 a 10 10 0 0 0 10 10"></path><g>
<path d="M 178.0 636 h 0.0"></path><path d="M 1344.0 636 h 0.0"></path><g>
<path d="M 178.0 636 h 0.0"></path><path d="M 351.5 636 h 0.0"></path><path d="M 178.0 636 a 10 10 0 0 0 10 -10 v 0 a 10 10 0 0 1 10 -10"></path><g>
<path d="M 198.0 616 h 133.5"></path></g><path d="M 331.5 616 a 10 10 0 0 1 10 10 v 0 a 10 10 0 0 0 10 10"></path><path d="M 178.0 636 h 20"></path><g>
<path d="M 198.0 636 h 0.0"></path><path d="M 331.5 636 h 0.0"></path><path d="M 198.0 636 h 10"></path><g class="non-terminal ">
<path d="M 208.0 636 h 0.0"></path><path d="M 321.5 636 h 0.0"></path><rect height="22" width="113.5" x="208.0" y="625"></rect><text x="264.75" y="640">BookHeaders</text></g><path d="M 321.5 636 h 10"></path><path d="M 208.0 636 a 10 10 0 0 0 -10 10 v 0 a 10 10 0 0 0 10 10"></path><g>
<path d="M 208.0 656 h 113.5"></path></g><path d="M 321.5 656 a 10 10 0 0 0 10 -10 v 0 a 10 10 0 0 0 -10 -10"></path></g><path d="M 331.5 636 h 20"></path></g><path d="M 351.5 636 h 10"></path><path d="M 361.5 636 h 10"></path><g>
<path d="M 371.5 636 h 0.0"></path><path d="M 536.5 636 h 0.0"></path><path d="M 371.5 636 a 10 10 0 0 0 10 -10 v 0 a 10 10 0 0 1 10 -10"></path><g>
<path d="M 391.5 616 h 125.0"></path></g><path d="M 516.5 616 a 10 10 0 0 1 10 10 v 0 a 10 10 0 0 0 10 10"></path><path d="M 371.5 636 h 20"></path><g>
<path d="M 391.5 636 h 0.0"></path><path d="M 516.5 636 h 0.0"></path><path d="M 391.5 636 h 10"></path><g class="non-terminal ">
<path d="M 401.5 636 h 0.0"></path><path d="M 506.5 636 h 0.0"></path><rect height="22" width="105.0" x="401.5" y="625"></rect><text x="454.0" y="640">BookTitles</text></g><path d="M 506.5 636 h 10"></path><path d="M 401.5 636 a 10 10 0 0 0 -10 10 v 0 a 10 10 0 0 0 10 10"></path><g>
<path d="M 401.5 656 h 105.0"></path></g><path d="M 506.5 656 a 10 10 0 0 0 10 -10 v 0 a 10 10 0 0 0 -10 -10"></path></g><path d="M 516.5 636 h 20"></path></g><path d="M 536.5 636 h 10"></path><path d="M 546.5 636 h 10"></path><g>
<path d="M 556.5 636 h 0.0"></path><path d="M 772.5 636 h 0.0"></path><path d="M 556.5 636 a 10 10 0 0 0 10 -10 v 0 a 10 10 0 0 1 10 -10"></path><g>
<path d="M 576.5 616 h 176.0"></path></g><path d="M 752.5 616 a 10 10 0 0 1 10 10 v 0 a 10 10 0 0 0 10 10"></path><path d="M 556.5 636 h 20"></path><g>
<path d="M 576.5 636 h 0.0"></path><path d="M 752.5 636 h 0.0"></path><path d="M 576.5 636 h 10"></path><g class="non-terminal ">
<path d="M 586.5 636 h 0.0"></path><path d="M 742.5 636 h 0.0"></path><rect height="22" width="156.0" x="586.5" y="625"></rect><text x="664.5" y="640">BookIntroduction</text></g><path d="M 742.5 636 h 10"></path><path d="M 586.5 636 a 10 10 0 0 0 -10 10 v 0 a 10 10 0 0 0 10 10"></path><g>
<path d="M 586.5 656 h 156.0"></path></g><path d="M 742.5 656 a 10 10 0 0 0 10 -10 v 0 a 10 10 0 0 0 -10 -10"></path></g><path d="M 752.5 636 h 20"></path></g><path d="M 772.5 636 h 10"></path><path d="M 782.5 636 h 10"></path><g>
<path d="M 792.5 636 h 0.0"></path><path d="M 1085.0 636 h 0.0"></path><path d="M 792.5 636 a 10 10 0 0 0 10 -10 v 0 a 10 10 0 0 1 10 -10"></path><g>
<path d="M 812.5 616 h 252.5"></path></g><path d="M 1065.0 616 a 10 10 0 0 1 10 10 v 0 a 10 10 0 0 0 10 10"></path><path d="M 792.5 636 h 20"></path><g>
<path d="M 812.5 636 h 0.0"></path><path d="M 1065.0 636 h 0.0"></path><path d="M 812.5 636 h 10"></path><g class="non-terminal ">
<path d="M 822.5 636 h 0.0"></path><path d="M 1055.0 636 h 0.0"></path><rect height="22" width="232.5" x="822.5" y="625"></rect><text x="938.75" y="640">BookIntroductionEndTitles</text></g><path d="M 1055.0 636 h 10"></path><path d="M 822.5 636 a 10 10 0 0 0 -10 10 v 0 a 10 10 0 0 0 10 10"></path><g>
<path d="M 822.5 656 h 232.5"></path></g><path d="M 1055.0 656 a 10 10 0 0 0 10 -10 v 0 a 10 10 0 0 0 -10 -10"></path></g><path d="M 1065.0 636 h 20"></path></g><path d="M 1085.0 636 h 10"></path><path d="M 1095.0 636 h 10"></path><g>
<path d="M 1105.0 636 h 0.0"></path><path d="M 1344.0 636 h 0.0"></path><path d="M 1105.0 636 a 10 10 0 0 0 10 -10 v -9 a 10 10 0 0 1 10 -10"></path><g>
<path d="M 1125.0 607 h 199.0"></path></g><path d="M 1324.0 607 a 10 10 0 0 1 10 10 v 9 a 10 10 0 0 0 10 10"></path><path d="M 1105.0 636 h 20"></path><g>
<path d="M 1125.0 636 h 0.0"></path><path d="M 1324.0 636 h 0.0"></path><path d="M 1125.0 636 h 10"></path><g>
<path d="M 1135.0 636 h 0.0"></path><path d="M 1314.0 636 h 0.0"></path><path d="M 1135.0 636 h 20"></path><g class="non-terminal ">
<path d="M 1155.0 636 h 42.5"></path><path d="M 1251.5 636 h 42.5"></path><rect height="22" width="54.0" x="1197.5" y="625"></rect><text x="1224.5" y="640">Para</text></g><path d="M 1294.0 636 h 20"></path><path d="M 1135.0 636 a 10 10 0 0 1 10 10 v 10 a 10 10 0 0 0 10 10"></path><g class="non-terminal ">
<path d="M 1155.0 666 h 29.75"></path><path d="M 1264.25 666 h 29.75"></path><rect height="22" width="79.5" x="1184.75" y="655"></rect><text x="1224.5" y="670">Section</text></g><path d="M 1294.0 666 a 10 10 0 0 0 10 -10 v -10 a 10 10 0 0 1 10 -10"></path><path d="M 1135.0 636 a 10 10 0 0 1 10 10 v 40 a 10 10 0 0 0 10 10"></path><g class="non-terminal ">
<path d="M 1155.0 696 h 17.0"></path><path d="M 1277.0 696 h 17.0"></path><rect height="22" width="105.0" x="1172.0" y="685"></rect><text x="1224.5" y="700">PeriphPara</text></g><path d="M 1294.0 696 a 10 10 0 0 0 10 -10 v -40 a 10 10 0 0 1 10 -10"></path><path d="M 1135.0 636 a 10 10 0 0 1 10 10 v 70 a 10 10 0 0 0 10 10"></path><g class="non-terminal ">
<path d="M 1155.0 726 h 29.75"></path><path d="M 1264.25 726 h 29.75"></path><rect height="22" width="79.5" x="1184.75" y="715"></rect><text x="1224.5" y="730">Chapter</text></g><path d="M 1294.0 726 a 10 10 0 0 0 10 -10 v -70 a 10 10 0 0 1 10 -10"></path><path d="M 1135.0 636 a 10 10 0 0 1 10 10 v 100 a 10 10 0 0 0 10 10"></path><g class="non-terminal ">
<path d="M 1155.0 756 h 34.0"></path><path d="M 1260.0 756 h 34.0"></path><rect height="22" width="71.0" x="1189.0" y="745"></rect><text x="1224.5" y="760">Figure</text></g><path d="M 1294.0 756 a 10 10 0 0 0 10 -10 v -100 a 10 10 0 0 1 10 -10"></path><path d="M 1135.0 636 a 10 10 0 0 1 10 10 v 130 a 10 10 0 0 0 10 10"></path><g class="non-terminal ">
<path d="M 1155.0 786 h 21.25"></path><path d="M 1272.75 786 h 21.25"></path><rect height="22" width="96.5" x="1176.25" y="775"></rect><text x="1224.5" y="790">Milestone</text></g><path d="M 1294.0 786 a 10 10 0 0 0 10 -10 v -130 a 10 10 0 0 1 10 -10"></path><path d="M 1135.0 636 a 10 10 0 0 1 10 10 v 160 a 10 10 0 0 0 10 10"></path><g class="non-terminal ">
<path d="M 1155.0 816 h 25.5"></path><path d="M 1268.5 816 h 25.5"></path><rect height="22" width="88.0" x="1180.5" y="805"></rect><text x="1224.5" y="820">Footnote</text></g><path d="M 1294.0 816 a 10 10 0 0 0 10 -10 v -160 a 10 10 0 0 1 10 -10"></path><path d="M 1135.0 636 a 10 10 0 0 1 10 10 v 190 a 10 10 0 0 0 10 10"></path><g class="non-terminal ">
<path d="M 1155.0 846 h 0.0"></path><path d="M 1294.0 846 h 0.0"></path><rect height="22" width="139.0" x="1155.0" y="835"></rect><text x="1224.5" y="850">CrossReference</text></g><path d="M 1294.0 846 a 10 10 0 0 0 10 -10 v -190 a 10 10 0 0 1 10 -10"></path><path d="M 1135.0 636 a 10 10 0 0 1 10 10 v 220 a 10 10 0 0 0 10 10"></path><g class="non-terminal ">
<path d="M 1155.0 876 h 42.5"></path><path d="M 1251.5 876 h 42.5"></path><rect height="22" width="54.0" x="1197.5" y="865"></rect><text x="1224.5" y="880">List</text></g><path d="M 1294.0 876 a 10 10 0 0 0 10 -10 v -220 a 10 10 0 0 1 10 -10"></path><path d="M 1135.0 636 a 10 10 0 0 1 10 10 v 250 a 10 10 0 0 0 10 10"></path><g class="non-terminal ">
<path d="M 1155.0 906 h 38.25"></path><path d="M 1255.75 906 h 38.25"></path><rect height="22" width="62.5" x="1193.25" y="895"></rect><text x="1224.5" y="910">Table</text></g><path d="M 1294.0 906 a 10 10 0 0 0 10 -10 v -250 a 10 10 0 0 1 10 -10"></path><path d="M 1135.0 636 a 10 10 0 0 1 10 10 v 280 a 10 10 0 0 0 10 10"></path><g class="non-terminal ">
<path d="M 1155.0 936 h 29.75"></path><path d="M 1264.25 936 h 29.75"></path><rect height="22" width="79.5" x="1184.75" y="925"></rect><text x="1224.5" y="940">Sidebar</text></g><path d="M 1294.0 936 a 10 10 0 0 0 10 -10 v -280 a 10 10 0 0 1 10 -10"></path></g><path d="M 1314.0 636 h 10"></path><path d="M 1135.0 636 a 10 10 0 0 0 -10 10 v 309 a 10 10 0 0 0 10 10"></path><g>
<path d="M 1135.0 965 h 179.0"></path></g><path d="M 1314.0 965 a 10 10 0 0 0 10 -10 v -309 a 10 10 0 0 0 -10 -10"></path></g><path d="M 1324.0 636 h 20"></path></g></g><path d="M 1344.0 636 a 10 10 0 0 0 10 -10 v -68 a 10 10 0 0 1 10 -10"></path></g></g></g><path d="M 1364.0 548 h 10"></path><path d="M 1374.0 548 h 20 m 0 -10 v 20"></path></g></svg>