<svg class="railroad-diagram" height="1198" viewBox="0 0 740.0 1198" width="740.0" xmlns="http://www.w3.org/2000/svg" xmlns:xlink="http://www.w3.org/1999/xlink">
<g transform="translate(.5 .5)">
<style>/* <![CDATA[ */

    svg.railroad-diagram {
        background-color:hsl(30,20%,95%);
    }
    svg.railroad-diagram path {
        stroke-width: 2;
        stroke: black;
        fill: none;
    }
    svg.railroad-diagram text {
        font-size: 12px;
        text-anchor: middle;
        font-family: DejaVu Sans;
    }
    svg.railroad-diagram text.label {
        text-anchor:start;
    }
    svg.railroad-diagram text.comment {
        font-family: DejaVu Sans;
        font-size: 14px;
    }
    svg.railroad-diagram rect{
        stroke-width: 2;
        stroke:black;
        fill: rgb(210, 255, 210);
    }
    svg.railroad-diagram rect.group-box {
        stroke: gray;
        stroke-dasharray: 10 5;
        fill: none;
    }
    .terminal {
        font-family: DejaVu Sans;
    }

/* ]]> */
</style><g>
<path d="M 20 21 v 20 m 0 -10 h 20"></path></g><path d="M 40 31 h 10"></path><g>
<path d="M 50 31 h 0.0"></path><path d="M 690.0 929 h 0.0"></path><g>
<path d="M 50.0 31 h 0.0"></path><path d="M 50.0 31 h 10"></path><g class="terminal ">
<path d="M 60.0 31 h 257.5"></path><path d="M 422.5 31 h 257.5"></path><rect height="22" rx="10" ry="10" width="105.0" x="317.5" y="20"></rect><text x="370.0" y="35">'\periph '</text></g><path d="M 680.0 31 a 10 10 0 0 1 10 10 v 0 a 10 10 0 0 1 -10 10 h -620.0 a 10 10 0 0 0 -10 10 v 0 a 10 10 0 0 0 10 10"></path><g>
<path d="M 60.0 71 h 187.75"></path><path d="M 492.25 71 h 187.75"></path><path d="M 247.75 71 h 20"></path><g>
<path d="M 267.75 71 h 204.5"></path></g><path d="M 472.25 71 h 20"></path><path d="M 247.75 71 a 10 10 0 0 1 10 10 v 0 a 10 10 0 0 0 10 10"></path><g>
<path d="M 267.75 91 h 0.0"></path><path d="M 472.25 91 h 0.0"></path><g>
<path d="M 267.75 91 h 0.0"></path><path d="M 472.25 91 h 0.0"></path><g class="terminal ">
<path d="M 267.75 91 h 0.0"></path><path d="M 321.75 91 h 0.0"></path><rect height="22" rx="10" ry="10" width="54.0" x="267.75" y="80"></rect><text x="294.75" y="95">TEXT</text></g><path d="M 321.75 91 h 10"></path><path d="M 331.75 91 h 10"></path><g class="terminal ">
<path d="M 341.75 91 h 0.0"></path><path d="M 472.25 91 h 0.0"></path><rect height="22" rx="10" ry="10" width="130.5" x="341.75" y="80"></rect><text x="407.0" y="95">ATTRIBTEXTEND</text></g></g></g><path d="M 472.25 91 a 10 10 0 0 0 10 -10 v 0 a 10 10 0 0 1 10 -10"></path></g><path d="M 680.0 71 a 10 10 0 0 1 10 10 v 29 a 10 10 0 0 1 -10 10 h -620.0 a 10 10 0 0 0 -10 10 v 107 a 10 10 0 0 0 10 10"></path><g>
<path d="M 60.0 247 h 10.0"></path><path d="M 670.0 247 h 10.0"></path><g class="terminal ">
<path d="M 70.0 247 h 0.0"></path><path d="M 124.0 247 h 0.0"></path><rect height="22" rx="10" ry="10" width="54.0" x="70.0" y="236"></rect><text x="97.0" y="251">PIPE</text></g><path d="M 124.0 247 h 10"></path><g>
<path d="M 134.0 247 h 0.0"></path><path d="M 623.0 247 h 0.0"></path><path d="M 134.0 247 a 10 10 0 0 0 10 -10 v -99 a 10 10 0 0 1 10 -10 h 197.5"></path><path d="M 371.5 546 h 231.5 a 10 10 0 0 0 10 -10 v -279 a 10 10 0 0 1 10 -10"></path><path d="M 134.0 247 h 10"></path><g>
<path d="M 144.0 247 h 10.0"></path><path d="M 341.5 247 h 10.0"></path><path d="M 154.0 247 a 10 10 0 0 0 10 -10 v -10 a 10 10 0 0 1 10 -10"></path><g class="terminal ">
<path d="M 174.0 217 h 34.0"></path><path d="M 287.5 217 h 34.0"></path><rect height="22" rx="10" ry="10" width="79.5" x="208.0" y="206"></rect><text x="247.75" y="221">"promo"</text></g><path d="M 321.5 217 a 10 10 0 0 1 10 10 v 10 a 10 10 0 0 0 10 10"></path><path d="M 154.0 247 a 10 10 0 0 0 10 -10 v -40 a 10 10 0 0 1 10 -10"></path><g class="terminal ">
<path d="M 174.0 187 h 17.0"></path><path d="M 304.5 187 h 17.0"></path><rect height="22" rx="10" ry="10" width="113.5" x="191.0" y="176"></rect><text x="247.75" y="191">"halftitle"</text></g><path d="M 321.5 187 a 10 10 0 0 1 10 10 v 40 a 10 10 0 0 0 10 10"></path><path d="M 154.0 247 a 10 10 0 0 0 10 -10 v -70 a 10 10 0 0 1 10 -10"></path><g class="terminal ">
<path d="M 174.0 157 h 34.0"></path><path d="M 287.5 157 h 34.0"></path><rect height="22" rx="10" ry="10" width="79.5" x="208.0" y="146"></rect><text x="247.75" y="161">"title"</text></g><path d="M 321.5 157 a 10 10 0 0 1 10 10 v 70 a 10 10 0 0 0 10 10"></path><path d="M 154.0 247 h 20"></path><g class="terminal ">
<path d="M 174.0 247 h 12.75"></path><path d="M 308.75 247 h 12.75"></path><rect height="22" rx="10" ry="10" width="122.0" x="186.75" y="236"></rect><text x="247.75" y="251">"imprimatur"</text></g><path d="M 321.5 247 h 20"></path><path d="M 154.0 247 a 10 10 0 0 1 10 10 v 10 a 10 10 0 0 0 10 10"></path><g class="terminal ">
<path d="M 174.0 277 h 25.5"></path><path d="M 296.0 277 h 25.5"></path><rect height="22" rx="10" ry="10" width="96.5" x="199.5" y="266"></rect><text x="247.75" y="281">"pubdata"</text></g><path d="M 321.5 277 a 10 10 0 0 0 10 -10 v -10 a 10 10 0 0 1 10 -10"></path><path d="M 154.0 247 a 10 10 0 0 1 10 10 v 40 a 10 10 0 0 0 10 10"></path><g class="terminal ">
<path d="M 174.0 307 h 21.25"></path><path d="M 300.25 307 h 21.25"></path><rect height="22" rx="10" ry="10" width="105.0" x="195.25" y="296"></rect><text x="247.75" y="311">"foreword"</text></g><path d="M 321.5 307 a 10 10 0 0 0 10 -10 v -40 a 10 10 0 0 1 10 -10"></path><path d="M 154.0 247 a 10 10 0 0 1 10 10 v 70 a 10 10 0 0 0 10 10"></path><g class="terminal ">
<path d="M 174.0 337 h 25.5"></path><path d="M 296.0 337 h 25.5"></path><rect height="22" rx="10" ry="10" width="96.5" x="199.5" y="326"></rect><text x="247.75" y="341">"preface"</text></g><path d="M 321.5 337 a 10 10 0 0 0 10 -10 v -70 a 10 10 0 0 1 10 -10"></path><path d="M 154.0 247 a 10 10 0 0 1 10 10 v 100 a 10 10 0 0 0 10 10"></path><g class="terminal ">
<path d="M 174.0 367 h 21.25"></path><path d="M 300.25 367 h 21.25"></path><rect height="22" rx="10" ry="10" width="105.0" x="195.25" y="356"></rect><text x="247.75" y="371">"contents"</text></g><path d="M 321.5 367 a 10 10 0 0 0 10 -10 v -100 a 10 10 0 0 1 10 -10"></path><path d="M 154.0 247 a 10 10 0 0 1 10 10 v 130 a 10 10 0 0 0 10 10"></path><g class="terminal ">
<path d="M 174.0 397 h 0.0"></path><path d="M 321.5 397 h 0.0"></path><rect height="22" rx="10" ry="10" width="147.5" x="174.0" y="386"></rect><text x="247.75" y="401">"alphacontents"</text></g><path d="M 321.5 397 a 10 10 0 0 0 10 -10 v -130 a 10 10 0 0 1 10 -10"></path><path d="M 154.0 247 a 10 10 0 0 1 10 10 v 160 a 10 10 0 0 0 10 10"></path><g class="terminal ">
<path d="M 174.0 427 h 0.0"></path><path d="M 321.5 427 h 0.0"></path><rect height="22" rx="10" ry="10" width="147.5" x="174.0" y="416"></rect><text x="247.75" y="431">"abbreviations"</text></g><path d="M 321.5 427 a 10 10 0 0 0 10 -10 v -160 a 10 10 0 0 1 10 -10"></path><path d="M 154.0 247 a 10 10 0 0 1 10 10 v 190 a 10 10 0 0 0 10 10"></path><g class="terminal ">
<path d="M 174.0 457 h 21.25"></path><path d="M 300.25 457 h 21.25"></path><rect height="22" rx="10" ry="10" width="105.0" x="195.25" y="446"></rect><text x="247.75" y="461">"intbible"</text></g><path d="M 321.5 457 a 10 10 0 0 0 10 -10 v -190 a 10 10 0 0 1 10 -10"></path><path d="M 154.0 247 a 10 10 0 0 1 10 10 v 220 a 10 10 0 0 0 10 10"></path><g class="terminal ">
<path d="M 174.0 487 h 34.0"></path><path d="M 287.5 487 h 34.0"></path><rect height="22" rx="10" ry="10" width="79.5" x="208.0" y="476"></rect><text x="247.75" y="491">"intot"</text></g><path d="M 321.5 487 a 10 10 0 0 0 10 -10 v -220 a 10 10 0 0 1 10 -10"></path><path d="M 154.0 247 a 10 10 0 0 1 10 10 v 250 a 10 10 0 0 0 10 10"></path><g class="terminal ">
<path d="M 174.0 517 h 25.5"></path><path d="M 296.0 517 h 25.5"></path><rect height="22" rx="10" ry="10" width="96.5" x="199.5" y="506"></rect><text x="247.75" y="521">"intpent"</text></g><path d="M 321.5 517 a 10 10 0 0 0 10 -10 v -250 a 10 10 0 0 1 10 -10"></path><path d="M 154.0 247 a 10 10 0 0 1 10 10 v 280 a 10 10 0 0 0 10 10"></path><g class="terminal ">
<path d="M 174.0 547 h 12.75"></path><path d="M 308.75 547 h 12.75"></path><rect height="22" rx="10" ry="10" width="122.0" x="186.75" y="536"></rect><text x="247.75" y="551">"inthistory"</text></g><path d="M 321.5 547 a 10 10 0 0 0 10 -10 v -280 a 10 10 0 0 1 10 -10"></path><path d="M 154.0 247 a 10 10 0 0 1 10 10 v 310 a 10 10 0 0 0 10 10"></path><g class="terminal ">
<path d="M 174.0 577 h 17.0"></path><path d="M 304.5 577 h 17.0"></path><rect height="22" rx="10" ry="10" width="113.5" x="191.0" y="566"></rect><text x="247.75" y="581">"intpoetry"</text></g><path d="M 321.5 577 a 10 10 0 0 0 10 -10 v -310 a 10 10 0 0 1 10 -10"></path></g><path d="M 351.5 247 a 10 10 0 0 1 10 10 v 279 a 10 10 0 0 0 10 10"></path><path d="M 351.5 128 a 10 10 0 0 1 10 10 v 99 a 10 10 0 0 0 10 10"></path><g>
<path d="M 371.5 247 h 10.0"></path><path d="M 603.0 247 h 10.0"></path><path d="M 381.5 247 a 10 10 0 0 0 10 -10 v -10 a 10 10 0 0 1 10 -10"></path><g class="terminal ">
<path d="M 401.5 217 h 51.0"></path><path d="M 532.0 217 h 51.0"></path><rect height="22" rx="10" ry="10" width="79.5" x="452.5" y="206"></rect><text x="492.25" y="221">"intnt"</text></g><path d="M 583.0 217 a 10 10 0 0 1 10 10 v 10 a 10 10 0 0 0 10 10"></path><path d="M 381.5 247 a 10 10 0 0 0 10 -10 v -40 a 10 10 0 0 1 10 -10"></path><g class="terminal ">
<path d="M 401.5 187 h 51.0"></path><path d="M 532.0 187 h 51.0"></path><rect height="22" rx="10" ry="10" width="79.5" x="452.5" y="176"></rect><text x="492.25" y="191">"intdc"</text></g><path d="M 583.0 187 a 10 10 0 0 1 10 10 v 40 a 10 10 0 0 0 10 10"></path><path d="M 381.5 247 a 10 10 0 0 0 10 -10 v -70 a 10 10 0 0 1 10 -10"></path><g class="terminal ">
<path d="M 401.5 157 h 25.5"></path><path d="M 557.5 157 h 25.5"></path><rect height="22" rx="10" ry="10" width="130.5" x="427.0" y="146"></rect><text x="492.25" y="161">"intprophesy"</text></g><path d="M 583.0 157 a 10 10 0 0 1 10 10 v 70 a 10 10 0 0 0 10 10"></path><path d="M 381.5 247 h 20"></path><g class="terminal ">
<path d="M 401.5 247 h 29.75"></path><path d="M 553.25 247 h 29.75"></path><rect height="22" rx="10" ry="10" width="122.0" x="431.25" y="236"></rect><text x="492.25" y="251">"intgospels"</text></g><path d="M 583.0 247 h 20"></path><path d="M 381.5 247 a 10 10 0 0 1 10 10 v 10 a 10 10 0 0 0 10 10"></path><g class="terminal ">
<path d="M 401.5 277 h 25.5"></path><path d="M 557.5 277 h 25.5"></path><rect height="22" rx="10" ry="10" width="130.5" x="427.0" y="266"></rect><text x="492.25" y="281">"intepistles"</text></g><path d="M 583.0 277 a 10 10 0 0 0 10 -10 v -10 a 10 10 0 0 1 10 -10"></path><path d="M 381.5 247 a 10 10 0 0 1 10 10 v 40 a 10 10 0 0 0 10 10"></path><g class="terminal ">
<path d="M 401.5 307 h 29.75"></path><path d="M 553.25 307 h 29.75"></path><rect height="22" rx="10" ry="10" width="122.0" x="431.25" y="296"></rect><text x="492.25" y="311">"intletters"</text></g><path d="M 583.0 307 a 10 10 0 0 0 10 -10 v -40 a 10 10 0 0 1 10 -10"></path><path d="M 381.5 247 a 10 10 0 0 1 10 10 v 70 a 10 10 0 0 0 10 10"></path><g class="terminal ">
<path d="M 401.5 337 h 51.0"></path><path d="M 532.0 337 h 51.0"></path><rect height="22" rx="10" ry="10" width="79.5" x="452.5" y="326"></rect><text x="492.25" y="341">"chron"</text></g><path d="M 583.0 337 a 10 10 0 0 0 10 -10 v -70 a 10 10 0 0 1 10 -10"></path><path d="M 381.5 247 a 10 10 0 0 1 10 10 v 100 a 10 10 0 0 0 10 10"></path><g class="terminal ">
<path d="M 401.5 367 h 38.25"></path><path d="M 544.75 367 h 38.25"></path><rect height="22" rx="10" ry="10" width="105.0" x="439.75" y="356"></rect><text x="492.25" y="371">"measures"</text></g><path d="M 583.0 367 a 10 10 0 0 0 10 -10 v -100 a 10 10 0 0 1 10 -10"></path><path d="M 381.5 247 a 10 10 0 0 1 10 10 v 130 a 10 10 0 0 0 10 10"></path><g class="terminal ">
<path d="M 401.5 397 h 55.25"></path><path d="M 527.75 397 h 55.25"></path><rect height="22" rx="10" ry="10" width="71.0" x="456.75" y="386"></rect><text x="492.25" y="401">"maps"</text></g><path d="M 583.0 397 a 10 10 0 0 0 10 -10 v -130 a 10 10 0 0 1 10 -10"></path><path d="M 381.5 247 a 10 10 0 0 1 10 10 v 160 a 10 10 0 0 0 10 10"></path><g class="terminal ">
<path d="M 401.5 427 h 34.0"></path><path d="M 549.0 427 h 34.0"></path><rect height="22" rx="10" ry="10" width="113.5" x="435.5" y="416"></rect><text x="492.25" y="431">"lxxquotes"</text></g><path d="M 583.0 427 a 10 10 0 0 0 10 -10 v -160 a 10 10 0 0 1 10 -10"></path><path d="M 381.5 247 a 10 10 0 0 1 10 10 v 190 a 10 10 0 0 0 10 10"></path><g class="terminal ">
<path d="M 401.5 457 h 51.0"></path><path d="M 532.0 457 h 51.0"></path><rect height="22" rx="10" ry="10" width="79.5" x="452.5" y="446"></rect><text x="492.25" y="461">"cover"</text></g><path d="M 583.0 457 a 10 10 0 0 0 10 -10 v -190 a 10 10 0 0 1 10 -10"></path><path d="M 381.5 247 a 10 10 0 0 1 10 10 v 220 a 10 10 0 0 0 10 10"></path><g class="terminal ">
<path d="M 401.5 487 h 51.0"></path><path d="M 532.0 487 h 51.0"></path><rect height="22" rx="10" ry="10" width="79.5" x="452.5" y="476"></rect><text x="492.25" y="491">"spine"</text></g><path d="M 583.0 487 a 10 10 0 0 0 10 -10 v -220 a 10 10 0 0 1 10 -10"></path><path d="M 381.5 247 a 10 10 0 0 1 10 10 v 250 a 10 10 0 0 0 10 10"></path><g class="terminal ">
<path d="M 401.5 517 h 0.0"></path><path d="M 583.0 517 h 0.0"></path><rect height="22" rx="10" ry="10" width="181.5" x="401.5" y="506"></rect><text x="492.25" y="521">/x\-&#91;\p{L}&#95;\-\.:&#93;+/</text></g><path d="M 583.0 517 a 10 10 0 0 0 10 -10 v -250 a 10 10 0 0 1 10 -10"></path></g><path d="M 613.0 247 h 10"></path></g><path d="M 623.0 247 h 10"></path><g class="terminal ">
<path d="M 633.0 247 h 0.0"></path><path d="M 670.0 247 h 0.0"></path><rect height="22" rx="10" ry="10" width="37.0" x="633.0" y="236"></rect><text x="651.5" y="251">NL</text></g></g><path d="M 680.0 247 a 10 10 0 0 1 10 10 v 339 a 10 10 0 0 1 -10 10 h -620.0 a 10 10 0 0 0 -10 10 v 18 a 10 10 0 0 0 10 10"></path><g>
<path d="M 60.0 644 h 223.25"></path><path d="M 456.75 644 h 223.25"></path><path d="M 283.25 644 a 10 10 0 0 0 10 -10 v 0 a 10 10 0 0 1 10 -10"></path><g>
<path d="M 303.25 624 h 133.5"></path></g><path d="M 436.75 624 a 10 10 0 0 1 10 10 v 0 a 10 10 0 0 0 10 10"></path><path d="M 283.25 644 h 20"></path><g>
<path d="M 303.25 644 h 0.0"></path><path d="M 436.75 644 h 0.0"></path><path d="M 303.25 644 h 10"></path><g class="non-terminal ">
<path d="M 313.25 644 h 0.0"></path><path d="M 426.75 644 h 0.0"></path><rect height="22" width="113.5" x="313.25" y="633"></rect><text x="370.0" y="648">BookHeaders</text></g><path d="M 426.75 644 h 10"></path><path d="M 313.25 644 a 10 10 0 0 0 -10 10 v 0 a 10 10 0 0 0 10 10"></path><g>
<path d="M 313.25 664 h 113.5"></path></g><path d="M 426.75 664 a 10 10 0 0 0 10 -10 v 0 a 10 10 0 0 0 -10 -10"></path></g><path d="M 436.75 644 h 20"></path></g><path d="M 680.0 644 a 10 10 0 0 1 10 10 v 18 a 10 10 0 0 1 -10 10 h -620.0 a 10 10 0 0 0 -10 10 v 0 a 10 10 0 0 0 10 10"></path><g>
<path d="M 60.0 702 h 247.5"></path><path d="M 432.5 702 h 247.5"></path><path d="M 307.5 702 h 10"></path><g class="non-terminal ">
<path d="M 317.5 702 h 0.0"></path><path d="M 422.5 702 h 0.0"></path><rect height="22" width="105.0" x="317.5" y="691"></rect><text x="370.0" y="706">BookTitles</text></g><path d="M 422.5 702 h 10"></path><path d="M 317.5 702 a 10 10 0 0 0 -10 10 v 0 a 10 10 0 0 0 10 10"></path><g>
<path d="M 317.5 722 h 105.0"></path></g><path d="M 422.5 722 a 10 10 0 0 0 10 -10 v 0 a 10 10 0 0 0 -10 -10"></path></g><path d="M 680.0 702 a 10 10 0 0 1 10 10 v 8 a 10 10 0 0 1 -10 10 h -620.0 a 10 10 0 0 0 -10 10 v 18 a 10 10 0 0 0 10 10"></path><g>
<path d="M 60.0 768 h 202.0"></path><path d="M 478.0 768 h 202.0"></path><path d="M 262.0 768 a 10 10 0 0 0 10 -10 v 0 a 10 10 0 0 1 10 -10"></path><g>
<path d="M 282.0 748 h 176.0"></path></g><path d="M 458.0 748 a 10 10 0 0 1 10 10 v 0 a 10 10 0 0 0 10 10"></path><path d="M 262.0 768 h 20"></path><g>
<path d="M 282.0 768 h 0.0"></path><path d="M 458.0 768 h 0.0"></path><path d="M 282.0 768 h 10"></path><g class="non-terminal ">
<path d="M 292.0 768 h 0.0"></path><path d="M 448.0 768 h 0.0"></path><rect height="22" width="156.0" x="292.0" y="757"></rect><text x="370.0" y="772">BookIntroduction</text></g><path d="M 448.0 768 h 10"></path><path d="M 292.0 768 a 10 10 0 0 0 -10 10 v 0 a 10 10 0 0 0 10 10"></path><g>
<path d="M 292.0 788 h 156.0"></path></g><path d="M 448.0 788 a 10 10 0 0 0 10 -10 v 0 a 10 10 0 0 0 -10 -10"></path></g><path d="M 458.0 768 h 20"></path></g><path d="M 680.0 768 a 10 10 0 0 1 10 10 v 18 a 10 10 0 0 1 -10 10 h -620.0 a 10 10 0 0 0 -10 10 v 18 a 10 10 0 0 0 10 10"></path><g>
<path d="M 60.0 844 h 163.75"></path><path d="M 516.25 844 h 163.75"></path><path d="M 223.75 844 a 10 10 0 0 0 10 -10 v 0 a 10 10 0 0 1 10 -10"></path><g>
<path d="M 243.75 824 h 252.5"></path></g><path d="M 496.25 824 a 10 10 0 0 1 10 10 v 0 a 10 10 0 0 0 10 10"></path><path d="M 223.75 844 h 20"></path><g>
<path d="M 243.75 844 h 0.0"></path><path d="M 496.25 844 h 0.0"></path><path d="M 243.75 844 h 10"></path><g class="non-terminal ">
<path d="M 253.75 844 h 0.0"></path><path d="M 486.25 844 h 0.0"></path><rect height="22" width="232.5" x="253.75" y="833"></rect><text x="370.0" y="848">BookIntroductionEndTitles</text></g><path d="M 486.25 844 h 10"></path><path d="M 253.75 844 a 10 10 0 0 0 -10 10 v 0 a 10 10 0 0 0 10 10"></path><g>
<path d="M 253.75 864 h 232.5"></path></g><path d="M 486.25 864 a 10 10 0 0 0 10 -10 v 0 a 10 10 0 0 0 -10 -10"></path></g><path d="M 496.25 844 h 20"></path></g><path d="M 680.0 844 a 10 10 0 0 1 10 10 v 18 a 10 10 0 0 1 -10 10 h -620.0 a 10 10 0 0 0 -10 10 v 27 a 10 10 0 0 0 10 10"></path><g>
<path d="M 60.0 929 h 190.5"></path><path d="M 489.5 929 h 190.5"></path><path d="M 250.5 929 a 10 10 0 0 0 10 -10 v -9 a 10 10 0 0 1 10 -10"></path><g>
<path d="M 270.5 900 h 199.0"></path></g><path d="M 469.5 900 a 10 10 0 0 1 10 10 v 9 a 10 10 0 0 0 10 10"></path><path d="M 250.5 929 h 20"></path><g>
<path d="M 270.5 929 h 0.0"></path><path d="M 469.5 929 h 0.0"></path><path d="M 270.5 929 h 10"></path><g>
<path d="M 280.5 929 h 0.0"></path><path d="M 459.5 929 h 0.0"></path><path d="M 280.5 929 h 20"></path><g class="non-terminal ">
<path d="M 300.5 929 h 29.75"></path><path d="M 409.75 929 h 29.75"></path><rect height="22" width="79.5" x="330.25" y="918"></rect><text x="370.0" y="933">Chapter</text></g><path d="M 439.5 929 h 20"></path><path d="M 280.5 929 a 10 10 0 0 1 10 10 v 10 a 10 10 0 0 0 10 10"></path><g class="non-terminal ">
<path d="M 300.5 959 h 29.75"></path><path d="M 409.75 959 h 29.75"></path><rect height="22" width="79.5" x="330.25" y="948"></rect><text x="370.0" y="963">Section</text></g><path d="M 439.5 959 a 10 10 0 0 0 10 -10 v -10 a 10 10 0 0 1 10 -10"></path><path d="M 280.5 929 a 10 10 0 0 1 10 10 v 40 a 10 10 0 0 0 10 10"></path><g class="non-terminal ">
<path d="M 300.5 989 h 42.5"></path><path d="M 397.0 989 h 42.5"></path><rect height="22" width="54.0" x="343.0" y="978"></rect><text x="370.0" y="993">Para</text></g><path d="M 439.5 989 a 10 10 0 0 0 10 -10 v -40 a 10 10 0 0 1 10 -10"></path><path d="M 280.5 929 a 10 10 0 0 1 10 10 v 70 a 10 10 0 0 0 10 10"></path><g class="non-terminal ">
<path d="M 300.5 1019 h 42.5"></path><path d="M 397.0 1019 h 42.5"></path><rect height="22" width="54.0" x="343.0" y="1008"></rect><text x="370.0" y="1023">List</text></g><path d="M 439.5 1019 a 10 10 0 0 0 10 -10 v -70 a 10 10 0 0 1 10 -10"></path><path d="M 280.5 929 a 10 10 0 0 1 10 10 v 100 a 10 10 0 0 0 10 10"></path><g class="non-terminal ">
<path d="M 300.5 1049 h 38.25"></path><path d="M 401.25 1049 h 38.25"></path><rect height="22" width="62.5" x="338.75" y="1038"></rect><text x="370.0" y="1053">Table</text></g><path d="M 439.5 1049 a 10 10 0 0 0 10 -10 v -100 a 10 10 0 0 1 10 -10"></path><path d="M 280.5 929 a 10 10 0 0 1 10 10 v 130 a 10 10 0 0 0 10 10"></path><g class="non-terminal ">
<path d="M 300.5 1079 h 25.5"></path><path d="M 414.0 1079 h 25.5"></path><rect height="22" width="88.0" x="326.0" y="1068"></rect><text x="370.0" y="1083">Footnote</text></g><path d="M 439.5 1079 a 10 10 0 0 0 10 -10 v -130 a 10 10 0 0 1 10 -10"></path><path d="M 280.5 929 a 10 10 0 0 1 10 10 v 160 a 10 10 0 0 0 10 10"></path><g class="non-terminal ">
<path d="M 300.5 1109 h 0.0"></path><path d="M 439.5 1109 h 0.0"></path><rect height="22" width="139.0" x="300.5" y="1098"></rect><text x="370.0" y="1113">CrossReference</text></g><path d="M 439.5 1109 a 10 10 0 0 0 10 -10 v -160 a 10 10 0 0 1 10 -10"></path><path d="M 280.5 929 a 10 10 0 0 1 10 10 v 190 a 10 10 0 0 0 10 10"></path><g class="non-terminal ">
<path d="M 300.5 1139 h 29.75"></path><path d="M 409.75 1139 h 29.75"></path><rect height="22" width="79.5" x="330.25" y="1128"></rect><text x="370.0" y="1143">Sidebar</text></g><path d="M 439.5 1139 a 10 10 0 0 0 10 -10 v -190 a 10 10 0 0 1 10 -10"></path></g><path d="M 459.5 929 h 10"></path><path d="M 280.5 929 a 10 10 0 0 0 -10 10 v 219 a 10 10 0 0 0 10 10"></path><g>
<path d="M 280.5 1168 h 179.0"></path></g><path d="M 459.5 1168 a 10 10 0 0 0 10 -10 v -219 a 10 10 0 0 0 -10 -10"></path></g><path d="M 469.5 929 h 20"></path></g><path d="M 680.0 929 h 10"></path><path d="M 690.0 929 h 0.0"></path></g></g><path d="M 690.0 929 h 10"></path><path d="M 700.0 929 h 20 m 0 -10 v 20"></path></g></svg>