<svg class="railroad-diagram" height="906" viewBox="0 0 1412.0 906" width="1412.0" xmlns="http://www.w3.org/2000/svg" xmlns:xlink="http://www.w3.org/1999/xlink">
<g transform="translate(.5 .5)">
<style>/* <![CDATA[ */

    svg.railroad-diagram {
        background-color: hsl(30,20%,95%);
    }
    svg.railroad-diagram path {
        stroke-width: 2;
        stroke: black;
        fill: none;
    }
    svg.railroad-diagram text {
        font-size: 12px;
        text-anchor: middle;
        font-family: DejaVu Sans;
    }
    svg.railroad-diagram text.label {
        text-anchor:start;
    }
    svg.railroad-diagram text.comment {
        font-family: DejaVu Sans;
        font-size: 14px;
    }
    svg.railroad-diagram rect{
        stroke-width: 2;
        stroke: black;
        fill: rgb(210, 255, 210);
    }
    svg.railroad-diagram rect.group-box {
        stroke: gray;
        stroke-dasharray: 10 5;
        fill: none;
    }
    .terminal {
        font-family: DejaVu Sans;
    }
    svg.railroad-diagram g.altterminal rect {
        fill: rgb(251, 252, 207)
    }

/* ]]> */
</style><g>
<path d="M 20 31 v 20 m 0 -10 h 20"></path></g><path d="M 40 41 h 10"></path><g>
<path d="M 50 41 h 0.0"></path><path d="M 1362.0 607 h 0.0"></path><g>
<path d="M 50.0 41 h 0.0"></path><path d="M 50.0 41 h 10"></path><g>
<path d="M 60.0 41 h 531.0"></path><path d="M 821.0 41 h 531.0"></path><path d="M 591.0 41 h 20"></path><g class="terminal ">
<path d="M 611.0 41 h 38.25"></path><path d="M 762.75 41 h 38.25"></path><rect height="22" rx="10" ry="10" width="113.5" x="649.25" y="30"></rect><text x="706.0" y="45">'\\periph '</text></g><path d="M 801.0 41 h 20"></path><path d="M 591.0 41 a 10 10 0 0 1 10 10 v 10 a 10 10 0 0 0 10 10"></path><g class="terminal altterminal">
<path d="M 611.0 71 h 0.0"></path><path d="M 801.0 71 h 0.0"></path><rect height="22" rx="10" ry="10" width="190.0" x="611.0" y="60"></rect><text x="706.0" y="75">/${Ws}\\periph${HS}/</text></g><path d="M 801.0 71 a 10 10 0 0 0 10 -10 v -10 a 10 10 0 0 1 10 -10"></path></g><path d="M 1352.0 41 a 10 10 0 0 1 10 10 v 39 a 10 10 0 0 1 -10 10 h -1292.0 a 10 10 0 0 0 -10 10 v 8 a 10 10 0 0 0 10 10"></path><g>
<path d="M 60.0 128 h 10.0"></path><path d="M 1342.0 197 h 10.0"></path><path d="M 70.0 128 h 20"></path><g>
<path d="M 90.0 128 h 0.0"></path><path d="M 90.0 128 h 10"></path><g>
<path d="M 100.0 128 h 520.75"></path><path d="M 791.25 128 h 520.75"></path><path d="M 620.75 128 h 20"></path><g>
<path d="M 640.75 128 h 130.5"></path></g><path d="M 771.25 128 h 20"></path><path d="M 620.75 128 a 10 10 0 0 1 10 10 v 0 a 10 10 0 0 0 10 10"></path><g>
<path d="M 640.75 148 h 0.0"></path><path d="M 771.25 148 h 0.0"></path><g>
<path d="M 640.75 148 h 0.0"></path><path d="M 771.25 148 h 0.0"></path><g class="terminal ">
<path d="M 640.75 148 h 0.0"></path><path d="M 771.25 148 h 0.0"></path><rect height="22" rx="10" ry="10" width="130.5" x="640.75" y="137"></rect><text x="706.0" y="152">TEXTNOTATTRIB</text></g></g></g><path d="M 771.25 148 a 10 10 0 0 0 10 -10 v 0 a 10 10 0 0 1 10 -10"></path></g><path d="M 1312.0 128 a 10 10 0 0 1 10 10 v 29 a 10 10 0 0 1 -10 10 h -1212.0 a 10 10 0 0 0 -10 10 v 0 a 10 10 0 0 0 10 10"></path><g>
<path d="M 100.0 197 h 10.0"></path><path d="M 1302.0 197 h 10.0"></path><path d="M 110.0 197 h 20"></path><g>
<path d="M 130.0 197 h 1152.0"></path></g><path d="M 1282.0 197 h 20"></path><path d="M 110.0 197 a 10 10 0 0 1 10 10 v 107 a 10 10 0 0 0 10 10"></path><g>
<path d="M 130.0 324 h 0.0"></path><path d="M 1282.0 324 h 0.0"></path><g>
<path d="M 130.0 324 h 0.0"></path><path d="M 224.0 324 h 0.0"></path><path d="M 130.0 324 h 20"></path><g class="terminal ">
<path d="M 150.0 324 h 4.25"></path><path d="M 199.75 324 h 4.25"></path><rect height="22" rx="10" ry="10" width="45.5" x="154.25" y="313"></rect><text x="177.0" y="328">'|'</text></g><path d="M 204.0 324 h 20"></path><path d="M 130.0 324 a 10 10 0 0 1 10 10 v 10 a 10 10 0 0 0 10 10"></path><g class="terminal altterminal">
<path d="M 150.0 354 h 0.0"></path><path d="M 204.0 354 h 0.0"></path><rect height="22" rx="10" ry="10" width="54.0" x="150.0" y="343"></rect><text x="177.0" y="358">PIPE</text></g><path d="M 204.0 354 a 10 10 0 0 0 10 -10 v -10 a 10 10 0 0 1 10 -10"></path></g><path d="M 224.0 324 h 10"></path><path d="M 234.0 324 h 10"></path><g class="terminal ">
<path d="M 244.0 324 h 0.0"></path><path d="M 315.0 324 h 0.0"></path><rect height="22" rx="10" ry="10" width="71.0" x="244.0" y="313"></rect><text x="279.5" y="328">'id="'</text></g><path d="M 315.0 324 h 10"></path><g>
<path d="M 325.0 324 h 0.0"></path><path d="M 1226.5 324 h 0.0"></path><path d="M 325.0 324 a 10 10 0 0 0 10 -10 v -99 a 10 10 0 0 1 10 -10 h 610.0"></path><path d="M 537.0 473 h 669.5 a 10 10 0 0 0 10 -10 v -129 a 10 10 0 0 1 10 -10"></path><path d="M 325.0 324 h 10"></path><g>
<path d="M 335.0 324 h 10.0"></path><path d="M 507.0 324 h 10.0"></path><path d="M 345.0 324 a 10 10 0 0 0 10 -10 v -10 a 10 10 0 0 1 10 -10"></path><g class="terminal ">
<path d="M 365.0 294 h 21.25"></path><path d="M 465.75 294 h 21.25"></path><rect height="22" rx="10" ry="10" width="79.5" x="386.25" y="283"></rect><text x="426.0" y="298">"promo"</text></g><path d="M 487.0 294 a 10 10 0 0 1 10 10 v 10 a 10 10 0 0 0 10 10"></path><path d="M 345.0 324 a 10 10 0 0 0 10 -10 v -40 a 10 10 0 0 1 10 -10"></path><g class="terminal ">
<path d="M 365.0 264 h 4.25"></path><path d="M 482.75 264 h 4.25"></path><rect height="22" rx="10" ry="10" width="113.5" x="369.25" y="253"></rect><text x="426.0" y="268">"halftitle"</text></g><path d="M 487.0 264 a 10 10 0 0 1 10 10 v 40 a 10 10 0 0 0 10 10"></path><path d="M 345.0 324 a 10 10 0 0 0 10 -10 v -70 a 10 10 0 0 1 10 -10"></path><g class="terminal ">
<path d="M 365.0 234 h 21.25"></path><path d="M 465.75 234 h 21.25"></path><rect height="22" rx="10" ry="10" width="79.5" x="386.25" y="223"></rect><text x="426.0" y="238">"title"</text></g><path d="M 487.0 234 a 10 10 0 0 1 10 10 v 70 a 10 10 0 0 0 10 10"></path><path d="M 345.0 324 h 20"></path><g class="terminal ">
<path d="M 365.0 324 h 0.0"></path><path d="M 487.0 324 h 0.0"></path><rect height="22" rx="10" ry="10" width="122.0" x="365.0" y="313"></rect><text x="426.0" y="328">"imprimatur"</text></g><path d="M 487.0 324 h 20"></path><path d="M 345.0 324 a 10 10 0 0 1 10 10 v 10 a 10 10 0 0 0 10 10"></path><g class="terminal ">
<path d="M 365.0 354 h 12.75"></path><path d="M 474.25 354 h 12.75"></path><rect height="22" rx="10" ry="10" width="96.5" x="377.75" y="343"></rect><text x="426.0" y="358">"pubdata"</text></g><path d="M 487.0 354 a 10 10 0 0 0 10 -10 v -10 a 10 10 0 0 1 10 -10"></path><path d="M 345.0 324 a 10 10 0 0 1 10 10 v 40 a 10 10 0 0 0 10 10"></path><g class="terminal ">
<path d="M 365.0 384 h 8.5"></path><path d="M 478.5 384 h 8.5"></path><rect height="22" rx="10" ry="10" width="105.0" x="373.5" y="373"></rect><text x="426.0" y="388">"foreword"</text></g><path d="M 487.0 384 a 10 10 0 0 0 10 -10 v -40 a 10 10 0 0 1 10 -10"></path><path d="M 345.0 324 a 10 10 0 0 1 10 10 v 70 a 10 10 0 0 0 10 10"></path><g class="terminal ">
<path d="M 365.0 414 h 12.75"></path><path d="M 474.25 414 h 12.75"></path><rect height="22" rx="10" ry="10" width="96.5" x="377.75" y="403"></rect><text x="426.0" y="418">"preface"</text></g><path d="M 487.0 414 a 10 10 0 0 0 10 -10 v -70 a 10 10 0 0 1 10 -10"></path><path d="M 345.0 324 a 10 10 0 0 1 10 10 v 100 a 10 10 0 0 0 10 10"></path><g class="terminal ">
<path d="M 365.0 444 h 8.5"></path><path d="M 478.5 444 h 8.5"></path><rect height="22" rx="10" ry="10" width="105.0" x="373.5" y="433"></rect><text x="426.0" y="448">"contents"</text></g><path d="M 487.0 444 a 10 10 0 0 0 10 -10 v -100 a 10 10 0 0 1 10 -10"></path></g><path d="M 517.0 324 a 10 10 0 0 1 10 10 v 129 a 10 10 0 0 0 10 10"></path><path d="M 517.0 205 a 10 10 0 0 1 10 10 v 99 a 10 10 0 0 0 10 10"></path><g>
<path d="M 537.0 324 h 10.0"></path><path d="M 734.5 324 h 10.0"></path><path d="M 547.0 324 a 10 10 0 0 0 10 -10 v -10 a 10 10 0 0 1 10 -10"></path><g class="terminal ">
<path d="M 567.0 294 h 21.25"></path><path d="M 693.25 294 h 21.25"></path><rect height="22" rx="10" ry="10" width="105.0" x="588.25" y="283"></rect><text x="640.75" y="298">"intbible"</text></g><path d="M 714.5 294 a 10 10 0 0 1 10 10 v 10 a 10 10 0 0 0 10 10"></path><path d="M 547.0 324 a 10 10 0 0 0 10 -10 v -40 a 10 10 0 0 1 10 -10"></path><g class="terminal ">
<path d="M 567.0 264 h 0.0"></path><path d="M 714.5 264 h 0.0"></path><rect height="22" rx="10" ry="10" width="147.5" x="567.0" y="253"></rect><text x="640.75" y="268">"abbreviations"</text></g><path d="M 714.5 264 a 10 10 0 0 1 10 10 v 40 a 10 10 0 0 0 10 10"></path><path d="M 547.0 324 a 10 10 0 0 0 10 -10 v -70 a 10 10 0 0 1 10 -10"></path><g class="terminal ">
<path d="M 567.0 234 h 0.0"></path><path d="M 714.5 234 h 0.0"></path><rect height="22" rx="10" ry="10" width="147.5" x="567.0" y="223"></rect><text x="640.75" y="238">"alphacontents"</text></g><path d="M 714.5 234 a 10 10 0 0 1 10 10 v 70 a 10 10 0 0 0 10 10"></path><path d="M 547.0 324 h 20"></path><g class="terminal ">
<path d="M 567.0 324 h 34.0"></path><path d="M 680.5 324 h 34.0"></path><rect height="22" rx="10" ry="10" width="79.5" x="601.0" y="313"></rect><text x="640.75" y="328">"intot"</text></g><path d="M 714.5 324 h 20"></path><path d="M 547.0 324 a 10 10 0 0 1 10 10 v 10 a 10 10 0 0 0 10 10"></path><g class="terminal ">
<path d="M 567.0 354 h 25.5"></path><path d="M 689.0 354 h 25.5"></path><rect height="22" rx="10" ry="10" width="96.5" x="592.5" y="343"></rect><text x="640.75" y="358">"intpent"</text></g><path d="M 714.5 354 a 10 10 0 0 0 10 -10 v -10 a 10 10 0 0 1 10 -10"></path><path d="M 547.0 324 a 10 10 0 0 1 10 10 v 40 a 10 10 0 0 0 10 10"></path><g class="terminal ">
<path d="M 567.0 384 h 12.75"></path><path d="M 701.75 384 h 12.75"></path><rect height="22" rx="10" ry="10" width="122.0" x="579.75" y="373"></rect><text x="640.75" y="388">"inthistory"</text></g><path d="M 714.5 384 a 10 10 0 0 0 10 -10 v -40 a 10 10 0 0 1 10 -10"></path><path d="M 547.0 324 a 10 10 0 0 1 10 10 v 70 a 10 10 0 0 0 10 10"></path><g class="terminal ">
<path d="M 567.0 414 h 17.0"></path><path d="M 697.5 414 h 17.0"></path><rect height="22" rx="10" ry="10" width="113.5" x="584.0" y="403"></rect><text x="640.75" y="418">"intpoetry"</text></g><path d="M 714.5 414 a 10 10 0 0 0 10 -10 v -70 a 10 10 0 0 1 10 -10"></path><path d="M 547.0 324 a 10 10 0 0 1 10 10 v 100 a 10 10 0 0 0 10 10"></path><g class="terminal ">
<path d="M 567.0 444 h 8.5"></path><path d="M 706.0 444 h 8.5"></path><rect height="22" rx="10" ry="10" width="130.5" x="575.5" y="433"></rect><text x="640.75" y="448">"intprophesy"</text></g><path d="M 714.5 444 a 10 10 0 0 0 10 -10 v -100 a 10 10 0 0 1 10 -10"></path></g><path d="M 744.5 324 a 10 10 0 0 1 10 10 v 129 a 10 10 0 0 0 10 10"></path><path d="M 744.5 205 a 10 10 0 0 1 10 10 v 99 a 10 10 0 0 0 10 10"></path><g>
<path d="M 764.5 324 h 10.0"></path><path d="M 945.0 324 h 10.0"></path><path d="M 774.5 324 a 10 10 0 0 0 10 -10 v -10 a 10 10 0 0 1 10 -10"></path><g class="terminal ">
<path d="M 794.5 294 h 4.25"></path><path d="M 920.75 294 h 4.25"></path><rect height="22" rx="10" ry="10" width="122.0" x="798.75" y="283"></rect><text x="859.75" y="298">"intgospels"</text></g><path d="M 925.0 294 a 10 10 0 0 1 10 10 v 10 a 10 10 0 0 0 10 10"></path><path d="M 774.5 324 a 10 10 0 0 0 10 -10 v -40 a 10 10 0 0 1 10 -10"></path><g class="terminal ">
<path d="M 794.5 264 h 25.5"></path><path d="M 899.5 264 h 25.5"></path><rect height="22" rx="10" ry="10" width="79.5" x="820.0" y="253"></rect><text x="859.75" y="268">"intnt"</text></g><path d="M 925.0 264 a 10 10 0 0 1 10 10 v 40 a 10 10 0 0 0 10 10"></path><path d="M 774.5 324 a 10 10 0 0 0 10 -10 v -70 a 10 10 0 0 1 10 -10"></path><g class="terminal ">
<path d="M 794.5 234 h 25.5"></path><path d="M 899.5 234 h 25.5"></path><rect height="22" rx="10" ry="10" width="79.5" x="820.0" y="223"></rect><text x="859.75" y="238">"intdc"</text></g><path d="M 925.0 234 a 10 10 0 0 1 10 10 v 70 a 10 10 0 0 0 10 10"></path><path d="M 774.5 324 h 20"></path><g class="terminal ">
<path d="M 794.5 324 h 0.0"></path><path d="M 925.0 324 h 0.0"></path><rect height="22" rx="10" ry="10" width="130.5" x="794.5" y="313"></rect><text x="859.75" y="328">"intepistles"</text></g><path d="M 925.0 324 h 20"></path><path d="M 774.5 324 a 10 10 0 0 1 10 10 v 10 a 10 10 0 0 0 10 10"></path><g class="terminal ">
<path d="M 794.5 354 h 4.25"></path><path d="M 920.75 354 h 4.25"></path><rect height="22" rx="10" ry="10" width="122.0" x="798.75" y="343"></rect><text x="859.75" y="358">"intletters"</text></g><path d="M 925.0 354 a 10 10 0 0 0 10 -10 v -10 a 10 10 0 0 1 10 -10"></path><path d="M 774.5 324 a 10 10 0 0 1 10 10 v 40 a 10 10 0 0 0 10 10"></path><g class="terminal ">
<path d="M 794.5 384 h 25.5"></path><path d="M 899.5 384 h 25.5"></path><rect height="22" rx="10" ry="10" width="79.5" x="820.0" y="373"></rect><text x="859.75" y="388">"chron"</text></g><path d="M 925.0 384 a 10 10 0 0 0 10 -10 v -40 a 10 10 0 0 1 10 -10"></path><path d="M 774.5 324 a 10 10 0 0 1 10 10 v 70 a 10 10 0 0 0 10 10"></path><g class="terminal ">
<path d="M 794.5 414 h 12.75"></path><path d="M 912.25 414 h 12.75"></path><rect height="22" rx="10" ry="10" width="105.0" x="807.25" y="403"></rect><text x="859.75" y="418">"measures"</text></g><path d="M 925.0 414 a 10 10 0 0 0 10 -10 v -70 a 10 10 0 0 1 10 -10"></path><path d="M 774.5 324 a 10 10 0 0 1 10 10 v 100 a 10 10 0 0 0 10 10"></path><g class="terminal ">
<path d="M 794.5 444 h 29.75"></path><path d="M 895.25 444 h 29.75"></path><rect height="22" rx="10" ry="10" width="71.0" x="824.25" y="433"></rect><text x="859.75" y="448">"maps"</text></g><path d="M 925.0 444 a 10 10 0 0 0 10 -10 v -100 a 10 10 0 0 1 10 -10"></path></g><path d="M 955.0 324 a 10 10 0 0 1 10 10 v 129 a 10 10 0 0 0 10 10"></path><path d="M 955.0 205 a 10 10 0 0 1 10 10 v 99 a 10 10 0 0 0 10 10"></path><g>
<path d="M 975.0 324 h 10.0"></path><path d="M 1206.5 324 h 10.0"></path><path d="M 985.0 324 a 10 10 0 0 0 10 -10 v -10 a 10 10 0 0 1 10 -10"></path><g class="terminal ">
<path d="M 1005.0 294 h 51.0"></path><path d="M 1135.5 294 h 51.0"></path><rect height="22" rx="10" ry="10" width="79.5" x="1056.0" y="283"></rect><text x="1095.75" y="298">"spine"</text></g><path d="M 1186.5 294 a 10 10 0 0 1 10 10 v 10 a 10 10 0 0 0 10 10"></path><path d="M 985.0 324 a 10 10 0 0 0 10 -10 v -40 a 10 10 0 0 1 10 -10"></path><g class="terminal ">
<path d="M 1005.0 264 h 51.0"></path><path d="M 1135.5 264 h 51.0"></path><rect height="22" rx="10" ry="10" width="79.5" x="1056.0" y="253"></rect><text x="1095.75" y="268">"cover"</text></g><path d="M 1186.5 264 a 10 10 0 0 1 10 10 v 40 a 10 10 0 0 0 10 10"></path><path d="M 985.0 324 a 10 10 0 0 0 10 -10 v -70 a 10 10 0 0 1 10 -10"></path><g class="terminal ">
<path d="M 1005.0 234 h 34.0"></path><path d="M 1152.5 234 h 34.0"></path><rect height="22" rx="10" ry="10" width="113.5" x="1039.0" y="223"></rect><text x="1095.75" y="238">"lxxquotes"</text></g><path d="M 1186.5 234 a 10 10 0 0 1 10 10 v 70 a 10 10 0 0 0 10 10"></path><path d="M 985.0 324 h 20"></path><g class="terminal ">
<path d="M 1005.0 324 h 63.75"></path><path d="M 1122.75 324 h 63.75"></path><rect height="22" rx="10" ry="10" width="54.0" x="1068.75" y="313"></rect><text x="1095.75" y="328">TEXT</text></g><path d="M 1186.5 324 h 20"></path><path d="M 985.0 324 a 10 10 0 0 1 10 10 v 10 a 10 10 0 0 0 10 10"></path><g class="terminal ">
<path d="M 1005.0 354 h 0.0"></path><path d="M 1186.5 354 h 0.0"></path><rect height="22" rx="10" ry="10" width="181.5" x="1005.0" y="343"></rect><text x="1095.75" y="358">/x\-&#91;\p{L}&#95;\-\.:&#93;+/</text></g><path d="M 1186.5 354 a 10 10 0 0 0 10 -10 v -10 a 10 10 0 0 1 10 -10"></path></g><path d="M 1216.5 324 h 10"></path></g><path d="M 1226.5 324 h 10"></path><g class="terminal ">
<path d="M 1236.5 324 h 0.0"></path><path d="M 1282.0 324 h 0.0"></path><rect height="22" rx="10" ry="10" width="45.5" x="1236.5" y="313"></rect><text x="1259.25" y="328">'"'</text></g></g><path d="M 1282.0 324 a 10 10 0 0 0 10 -10 v -107 a 10 10 0 0 1 10 -10"></path></g><path d="M 1312.0 197 h 10"></path><path d="M 1322.0 197 h 0.0"></path></g><path d="M 1322.0 197 h 20"></path><path d="M 70.0 128 a 10 10 0 0 1 10 10 v 353 a 10 10 0 0 0 10 10"></path><g>
<path d="M 90.0 501 h 448.25"></path><path d="M 873.75 501 h 448.25"></path><g>
<path d="M 538.25 501 h 0.0"></path><path d="M 708.75 501 h 0.0"></path><path d="M 538.25 501 h 20"></path><g>
<path d="M 558.25 501 h 130.5"></path></g><path d="M 688.75 501 h 20"></path><path d="M 538.25 501 a 10 10 0 0 1 10 10 v 0 a 10 10 0 0 0 10 10"></path><g>
<path d="M 558.25 521 h 0.0"></path><path d="M 688.75 521 h 0.0"></path><g>
<path d="M 558.25 521 h 0.0"></path><path d="M 688.75 521 h 0.0"></path><g class="terminal ">
<path d="M 558.25 521 h 0.0"></path><path d="M 688.75 521 h 0.0"></path><rect height="22" rx="10" ry="10" width="130.5" x="558.25" y="510"></rect><text x="623.5" y="525">TEXTNOTATTRIB</text></g></g></g><path d="M 688.75 521 a 10 10 0 0 0 10 -10 v 0 a 10 10 0 0 1 10 -10"></path></g><path d="M 708.75 501 h 10"></path><path d="M 718.75 501 h 10"></path><g>
<path d="M 728.75 501 h 0.0"></path><path d="M 873.75 501 h 0.0"></path><path d="M 728.75 501 h 20"></path><g>
<path d="M 748.75 501 h 105.0"></path></g><path d="M 853.75 501 h 20"></path><path d="M 728.75 501 a 10 10 0 0 1 10 10 v 0 a 10 10 0 0 0 10 10"></path><g class="non-terminal ">
<path d="M 748.75 521 h 0.0"></path><path d="M 853.75 521 h 0.0"></path><rect height="22" width="105.0" x="748.75" y="510"></rect><text x="801.25" y="525">Attributes</text></g><path d="M 853.75 521 a 10 10 0 0 0 10 -10 v 0 a 10 10 0 0 1 10 -10"></path></g></g><path d="M 1322.0 501 a 10 10 0 0 0 10 -10 v -284 a 10 10 0 0 1 10 -10"></path></g><path d="M 1352.0 197 a 10 10 0 0 1 10 10 v 343 a 10 10 0 0 1 -10 10 h -1292.0 a 10 10 0 0 0 -10 10 v 27 a 10 10 0 0 0 10 10"></path><g>
<path d="M 60.0 607 h 80.0"></path><path d="M 1272.0 607 h 80.0"></path><g>
<path d="M 140.0 607 h 0.0"></path><path d="M 313.5 607 h 0.0"></path><path d="M 140.0 607 a 10 10 0 0 0 10 -10 v 0 a 10 10 0 0 1 10 -10"></path><g>
<path d="M 160.0 587 h 133.5"></path></g><path d="M 293.5 587 a 10 10 0 0 1 10 10 v 0 a 10 10 0 0 0 10 10"></path><path d="M 140.0 607 h 20"></path><g>
<path d="M 160.0 607 h 0.0"></path><path d="M 293.5 607 h 0.0"></path><path d="M 160.0 607 h 10"></path><g class="non-terminal ">
<path d="M 170.0 607 h 0.0"></path><path d="M 283.5 607 h 0.0"></path><rect height="22" width="113.5" x="170.0" y="596"></rect><text x="226.75" y="611">BookHeaders</text></g><path d="M 283.5 607 h 10"></path><path d="M 170.0 607 a 10 10 0 0 0 -10 10 v 0 a 10 10 0 0 0 10 10"></path><g>
<path d="M 170.0 627 h 113.5"></path></g><path d="M 283.5 627 a 10 10 0 0 0 10 -10 v 0 a 10 10 0 0 0 -10 -10"></path></g><path d="M 293.5 607 h 20"></path></g><path d="M 313.5 607 h 10"></path><path d="M 323.5 607 h 10"></path><g>
<path d="M 333.5 607 h 0.0"></path><path d="M 498.5 607 h 0.0"></path><path d="M 333.5 607 a 10 10 0 0 0 10 -10 v 0 a 10 10 0 0 1 10 -10"></path><g>
<path d="M 353.5 587 h 125.0"></path></g><path d="M 478.5 587 a 10 10 0 0 1 10 10 v 0 a 10 10 0 0 0 10 10"></path><path d="M 333.5 607 h 20"></path><g>
<path d="M 353.5 607 h 0.0"></path><path d="M 478.5 607 h 0.0"></path><path d="M 353.5 607 h 10"></path><g class="non-terminal ">
<path d="M 363.5 607 h 0.0"></path><path d="M 468.5 607 h 0.0"></path><rect height="22" width="105.0" x="363.5" y="596"></rect><text x="416.0" y="611">BookTitles</text></g><path d="M 468.5 607 h 10"></path><path d="M 363.5 607 a 10 10 0 0 0 -10 10 v 0 a 10 10 0 0 0 10 10"></path><g>
<path d="M 363.5 627 h 105.0"></path></g><path d="M 468.5 627 a 10 10 0 0 0 10 -10 v 0 a 10 10 0 0 0 -10 -10"></path></g><path d="M 478.5 607 h 20"></path></g><path d="M 498.5 607 h 10"></path><path d="M 508.5 607 h 10"></path><g>
<path d="M 518.5 607 h 0.0"></path><path d="M 734.5 607 h 0.0"></path><path d="M 518.5 607 a 10 10 0 0 0 10 -10 v 0 a 10 10 0 0 1 10 -10"></path><g>
<path d="M 538.5 587 h 176.0"></path></g><path d="M 714.5 587 a 10 10 0 0 1 10 10 v 0 a 10 10 0 0 0 10 10"></path><path d="M 518.5 607 h 20"></path><g>
<path d="M 538.5 607 h 0.0"></path><path d="M 714.5 607 h 0.0"></path><path d="M 538.5 607 h 10"></path><g class="non-terminal ">
<path d="M 548.5 607 h 0.0"></path><path d="M 704.5 607 h 0.0"></path><rect height="22" width="156.0" x="548.5" y="596"></rect><text x="626.5" y="611">BookIntroduction</text></g><path d="M 704.5 607 h 10"></path><path d="M 548.5 607 a 10 10 0 0 0 -10 10 v 0 a 10 10 0 0 0 10 10"></path><g>
<path d="M 548.5 627 h 156.0"></path></g><path d="M 704.5 627 a 10 10 0 0 0 10 -10 v 0 a 10 10 0 0 0 -10 -10"></path></g><path d="M 714.5 607 h 20"></path></g><path d="M 734.5 607 h 10"></path><path d="M 744.5 607 h 10"></path><g>
<path d="M 754.5 607 h 0.0"></path><path d="M 1047.0 607 h 0.0"></path><path d="M 754.5 607 a 10 10 0 0 0 10 -10 v 0 a 10 10 0 0 1 10 -10"></path><g>
<path d="M 774.5 587 h 252.5"></path></g><path d="M 1027.0 587 a 10 10 0 0 1 10 10 v 0 a 10 10 0 0 0 10 10"></path><path d="M 754.5 607 h 20"></path><g>
<path d="M 774.5 607 h 0.0"></path><path d="M 1027.0 607 h 0.0"></path><path d="M 774.5 607 h 10"></path><g class="non-terminal ">
<path d="M 784.5 607 h 0.0"></path><path d="M 1017.0 607 h 0.0"></path><rect height="22" width="232.5" x="784.5" y="596"></rect><text x="900.75" y="611">BookIntroductionEndTitles</text></g><path d="M 1017.0 607 h 10"></path><path d="M 784.5 607 a 10 10 0 0 0 -10 10 v 0 a 10 10 0 0 0 10 10"></path><g>
<path d="M 784.5 627 h 232.5"></path></g><path d="M 1017.0 627 a 10 10 0 0 0 10 -10 v 0 a 10 10 0 0 0 -10 -10"></path></g><path d="M 1027.0 607 h 20"></path></g><path d="M 1047.0 607 h 10"></path><path d="M 1057.0 607 h 10"></path><g>
<path d="M 1067.0 607 h 0.0"></path><path d="M 1272.0 607 h 0.0"></path><path d="M 1067.0 607 a 10 10 0 0 0 10 -10 v -9 a 10 10 0 0 1 10 -10"></path><g>
<path d="M 1087.0 578 h 165.0"></path></g><path d="M 1252.0 578 a 10 10 0 0 1 10 10 v 9 a 10 10 0 0 0 10 10"></path><path d="M 1067.0 607 h 20"></path><g>
<path d="M 1087.0 607 h 0.0"></path><path d="M 1252.0 607 h 0.0"></path><path d="M 1087.0 607 h 10"></path><g>
<path d="M 1097.0 607 h 0.0"></path><path d="M 1242.0 607 h 0.0"></path><path d="M 1097.0 607 h 20"></path><g class="non-terminal ">
<path d="M 1117.0 607 h 25.5"></path><path d="M 1196.5 607 h 25.5"></path><rect height="22" width="54.0" x="1142.5" y="596"></rect><text x="1169.5" y="611">Para</text></g><path d="M 1222.0 607 h 20"></path><path d="M 1097.0 607 a 10 10 0 0 1 10 10 v 10 a 10 10 0 0 0 10 10"></path><g class="non-terminal ">
<path d="M 1117.0 637 h 12.75"></path><path d="M 1209.25 637 h 12.75"></path><rect height="22" width="79.5" x="1129.75" y="626"></rect><text x="1169.5" y="641">Section</text></g><path d="M 1222.0 637 a 10 10 0 0 0 10 -10 v -10 a 10 10 0 0 1 10 -10"></path><path d="M 1097.0 607 a 10 10 0 0 1 10 10 v 40 a 10 10 0 0 0 10 10"></path><g class="non-terminal ">
<path d="M 1117.0 667 h 0.0"></path><path d="M 1222.0 667 h 0.0"></path><rect height="22" width="105.0" x="1117.0" y="656"></rect><text x="1169.5" y="671">PeriphPara</text></g><path d="M 1222.0 667 a 10 10 0 0 0 10 -10 v -40 a 10 10 0 0 1 10 -10"></path><path d="M 1097.0 607 a 10 10 0 0 1 10 10 v 70 a 10 10 0 0 0 10 10"></path><g class="non-terminal ">
<path d="M 1117.0 697 h 12.75"></path><path d="M 1209.25 697 h 12.75"></path><rect height="22" width="79.5" x="1129.75" y="686"></rect><text x="1169.5" y="701">Chapter</text></g><path d="M 1222.0 697 a 10 10 0 0 0 10 -10 v -70 a 10 10 0 0 1 10 -10"></path><path d="M 1097.0 607 a 10 10 0 0 1 10 10 v 100 a 10 10 0 0 0 10 10"></path><g class="non-terminal ">
<path d="M 1117.0 727 h 17.0"></path><path d="M 1205.0 727 h 17.0"></path><rect height="22" width="71.0" x="1134.0" y="716"></rect><text x="1169.5" y="731">Figure</text></g><path d="M 1222.0 727 a 10 10 0 0 0 10 -10 v -100 a 10 10 0 0 1 10 -10"></path><path d="M 1097.0 607 a 10 10 0 0 1 10 10 v 130 a 10 10 0 0 0 10 10"></path><g class="non-terminal ">
<path d="M 1117.0 757 h 4.25"></path><path d="M 1217.75 757 h 4.25"></path><rect height="22" width="96.5" x="1121.25" y="746"></rect><text x="1169.5" y="761">Milestone</text></g><path d="M 1222.0 757 a 10 10 0 0 0 10 -10 v -130 a 10 10 0 0 1 10 -10"></path><path d="M 1097.0 607 a 10 10 0 0 1 10 10 v 160 a 10 10 0 0 0 10 10"></path><g class="non-terminal ">
<path d="M 1117.0 787 h 25.5"></path><path d="M 1196.5 787 h 25.5"></path><rect height="22" width="54.0" x="1142.5" y="776"></rect><text x="1169.5" y="791">List</text></g><path d="M 1222.0 787 a 10 10 0 0 0 10 -10 v -160 a 10 10 0 0 1 10 -10"></path><path d="M 1097.0 607 a 10 10 0 0 1 10 10 v 190 a 10 10 0 0 0 10 10"></path><g class="non-terminal ">
<path d="M 1117.0 817 h 21.25"></path><path d="M 1200.75 817 h 21.25"></path><rect height="22" width="62.5" x="1138.25" y="806"></rect><text x="1169.5" y="821">Table</text></g><path d="M 1222.0 817 a 10 10 0 0 0 10 -10 v -190 a 10 10 0 0 1 10 -10"></path><path d="M 1097.0 607 a 10 10 0 0 1 10 10 v 220 a 10 10 0 0 0 10 10"></path><g class="non-terminal ">
<path d="M 1117.0 847 h 12.75"></path><path d="M 1209.25 847 h 12.75"></path><rect height="22" width="79.5" x="1129.75" y="836"></rect><text x="1169.5" y="851">Sidebar</text></g><path d="M 1222.0 847 a 10 10 0 0 0 10 -10 v -220 a 10 10 0 0 1 10 -10"></path></g><path d="M 1242.0 607 h 10"></path><path d="M 1097.0 607 a 10 10 0 0 0 -10 10 v 249 a 10 10 0 0 0 10 10"></path><g>
<path d="M 1097.0 876 h 145.0"></path></g><path d="M 1242.0 876 a 10 10 0 0 0 10 -10 v -249 a 10 10 0 0 0 -10 -10"></path></g><path d="M 1252.0 607 h 20"></path></g></g><path d="M 1352.0 607 h 10"></path><path d="M 1362.0 607 h 0.0"></path></g></g><path d="M 1362.0 607 h 10"></path><path d="M 1372.0 607 h 20 m 0 -10 v 20"></path></g></svg>