<svg class="railroad-diagram" height="1335" viewBox="0 0 916.0 1335" width="916.0" xmlns="http://www.w3.org/2000/svg" xmlns:xlink="http://www.w3.org/1999/xlink">
<g transform="translate(.5 .5)">
<style>/* <![CDATA[ */

    svg.railroad-diagram {
        background-color: hsl(30,20%,95%);
    }
    svg.railroad-diagram path {
        stroke-width: 2;
        stroke: black;
        fill: none;
    }
    svg.railroad-diagram text {
        font-size: 12px;
        text-anchor: middle;
        font-family: DejaVu Sans;
    }
    svg.railroad-diagram text.label {
        text-anchor:start;
    }
    svg.railroad-diagram text.comment {
        font-family: DejaVu Sans;
        font-size: 14px;
    }
    svg.railroad-diagram rect{
        stroke-width: 2;
        stroke: black;
        fill: rgb(210, 255, 210);
    }
    svg.railroad-diagram rect.group-box {
        stroke: gray;
        stroke-dasharray: 10 5;
        fill: none;
    }
    .terminal {
        font-family: DejaVu Sans;
    }
    svg.railroad-diagram g.altterminal rect {
        fill: rgb(251, 252, 207)
    }

/* ]]> */
</style><g>
<path d="M 20 31 v 20 m 0 -10 h 20"></path></g><path d="M 40 41 h 10"></path><g>
<path d="M 50 41 h 0.0"></path><path d="M 866.0 1006 h 0.0"></path><g>
<path d="M 50.0 41 h 0.0"></path><path d="M 50.0 41 h 10"></path><g>
<path d="M 60.0 41 h 283.0"></path><path d="M 573.0 41 h 283.0"></path><path d="M 343.0 41 h 20"></path><g class="terminal ">
<path d="M 363.0 41 h 38.25"></path><path d="M 514.75 41 h 38.25"></path><rect height="22" rx="10" ry="10" width="113.5" x="401.25" y="30"></rect><text x="458.0" y="45">'\\periph '</text></g><path d="M 553.0 41 h 20"></path><path d="M 343.0 41 a 10 10 0 0 1 10 10 v 10 a 10 10 0 0 0 10 10"></path><g class="terminal altterminal">
<path d="M 363.0 71 h 0.0"></path><path d="M 553.0 71 h 0.0"></path><rect height="22" rx="10" ry="10" width="190.0" x="363.0" y="60"></rect><text x="458.0" y="75">/${Ws}\\periph${HS}/</text></g><path d="M 553.0 71 a 10 10 0 0 0 10 -10 v -10 a 10 10 0 0 1 10 -10"></path></g><path d="M 856.0 41 a 10 10 0 0 1 10 10 v 39 a 10 10 0 0 1 -10 10 h -796.0 a 10 10 0 0 0 -10 10 v 0 a 10 10 0 0 0 10 10"></path><g>
<path d="M 60.0 120 h 312.75"></path><path d="M 543.25 120 h 312.75"></path><path d="M 372.75 120 h 20"></path><g>
<path d="M 392.75 120 h 130.5"></path></g><path d="M 523.25 120 h 20"></path><path d="M 372.75 120 a 10 10 0 0 1 10 10 v 0 a 10 10 0 0 0 10 10"></path><g>
<path d="M 392.75 140 h 0.0"></path><path d="M 523.25 140 h 0.0"></path><g>
<path d="M 392.75 140 h 0.0"></path><path d="M 523.25 140 h 0.0"></path><g class="terminal ">
<path d="M 392.75 140 h 0.0"></path><path d="M 523.25 140 h 0.0"></path><rect height="22" rx="10" ry="10" width="130.5" x="392.75" y="129"></rect><text x="458.0" y="144">TEXTNOTATTRIB</text></g></g></g><path d="M 523.25 140 a 10 10 0 0 0 10 -10 v 0 a 10 10 0 0 1 10 -10"></path></g><path d="M 856.0 120 a 10 10 0 0 1 10 10 v 29 a 10 10 0 0 1 -10 10 h -796.0 a 10 10 0 0 0 -10 10 v 107 a 10 10 0 0 0 10 10"></path><g>
<path d="M 60.0 296 h 10.0"></path><path d="M 846.0 296 h 10.0"></path><g>
<path d="M 70.0 296 h 0.0"></path><path d="M 291.5 296 h 0.0"></path><path d="M 70.0 296 h 20"></path><g class="terminal ">
<path d="M 90.0 296 h 51.0"></path><path d="M 220.5 296 h 51.0"></path><rect height="22" rx="10" ry="10" width="79.5" x="141.0" y="285"></rect><text x="180.75" y="300">'|id="'</text></g><path d="M 271.5 296 h 20"></path><path d="M 70.0 296 a 10 10 0 0 1 10 10 v 10 a 10 10 0 0 0 10 10"></path><g class="terminal altterminal">
<path d="M 90.0 326 h 0.0"></path><path d="M 271.5 326 h 0.0"></path><rect height="22" rx="10" ry="10" width="181.5" x="90.0" y="315"></rect><text x="180.75" y="330">/${PIPE}${Hs}id=?"/</text></g><path d="M 271.5 326 a 10 10 0 0 0 10 -10 v -10 a 10 10 0 0 1 10 -10"></path></g><path d="M 291.5 296 h 10"></path><g>
<path d="M 301.5 296 h 0.0"></path><path d="M 790.5 296 h 0.0"></path><path d="M 301.5 296 a 10 10 0 0 0 10 -10 v -99 a 10 10 0 0 1 10 -10 h 197.5"></path><path d="M 539.0 625 h 231.5 a 10 10 0 0 0 10 -10 v -309 a 10 10 0 0 1 10 -10"></path><path d="M 301.5 296 h 10"></path><g>
<path d="M 311.5 296 h 10.0"></path><path d="M 509.0 296 h 10.0"></path><path d="M 321.5 296 a 10 10 0 0 0 10 -10 v -10 a 10 10 0 0 1 10 -10"></path><g class="terminal ">
<path d="M 341.5 266 h 34.0"></path><path d="M 455.0 266 h 34.0"></path><rect height="22" rx="10" ry="10" width="79.5" x="375.5" y="255"></rect><text x="415.25" y="270">"promo"</text></g><path d="M 489.0 266 a 10 10 0 0 1 10 10 v 10 a 10 10 0 0 0 10 10"></path><path d="M 321.5 296 a 10 10 0 0 0 10 -10 v -40 a 10 10 0 0 1 10 -10"></path><g class="terminal ">
<path d="M 341.5 236 h 17.0"></path><path d="M 472.0 236 h 17.0"></path><rect height="22" rx="10" ry="10" width="113.5" x="358.5" y="225"></rect><text x="415.25" y="240">"halftitle"</text></g><path d="M 489.0 236 a 10 10 0 0 1 10 10 v 40 a 10 10 0 0 0 10 10"></path><path d="M 321.5 296 a 10 10 0 0 0 10 -10 v -70 a 10 10 0 0 1 10 -10"></path><g class="terminal ">
<path d="M 341.5 206 h 34.0"></path><path d="M 455.0 206 h 34.0"></path><rect height="22" rx="10" ry="10" width="79.5" x="375.5" y="195"></rect><text x="415.25" y="210">"title"</text></g><path d="M 489.0 206 a 10 10 0 0 1 10 10 v 70 a 10 10 0 0 0 10 10"></path><path d="M 321.5 296 h 20"></path><g class="terminal ">
<path d="M 341.5 296 h 12.75"></path><path d="M 476.25 296 h 12.75"></path><rect height="22" rx="10" ry="10" width="122.0" x="354.25" y="285"></rect><text x="415.25" y="300">"imprimatur"</text></g><path d="M 489.0 296 h 20"></path><path d="M 321.5 296 a 10 10 0 0 1 10 10 v 10 a 10 10 0 0 0 10 10"></path><g class="terminal ">
<path d="M 341.5 326 h 25.5"></path><path d="M 463.5 326 h 25.5"></path><rect height="22" rx="10" ry="10" width="96.5" x="367.0" y="315"></rect><text x="415.25" y="330">"pubdata"</text></g><path d="M 489.0 326 a 10 10 0 0 0 10 -10 v -10 a 10 10 0 0 1 10 -10"></path><path d="M 321.5 296 a 10 10 0 0 1 10 10 v 40 a 10 10 0 0 0 10 10"></path><g class="terminal ">
<path d="M 341.5 356 h 21.25"></path><path d="M 467.75 356 h 21.25"></path><rect height="22" rx="10" ry="10" width="105.0" x="362.75" y="345"></rect><text x="415.25" y="360">"foreword"</text></g><path d="M 489.0 356 a 10 10 0 0 0 10 -10 v -40 a 10 10 0 0 1 10 -10"></path><path d="M 321.5 296 a 10 10 0 0 1 10 10 v 70 a 10 10 0 0 0 10 10"></path><g class="terminal ">
<path d="M 341.5 386 h 25.5"></path><path d="M 463.5 386 h 25.5"></path><rect height="22" rx="10" ry="10" width="96.5" x="367.0" y="375"></rect><text x="415.25" y="390">"preface"</text></g><path d="M 489.0 386 a 10 10 0 0 0 10 -10 v -70 a 10 10 0 0 1 10 -10"></path><path d="M 321.5 296 a 10 10 0 0 1 10 10 v 100 a 10 10 0 0 0 10 10"></path><g class="terminal ">
<path d="M 341.5 416 h 21.25"></path><path d="M 467.75 416 h 21.25"></path><rect height="22" rx="10" ry="10" width="105.0" x="362.75" y="405"></rect><text x="415.25" y="420">"contents"</text></g><path d="M 489.0 416 a 10 10 0 0 0 10 -10 v -100 a 10 10 0 0 1 10 -10"></path><path d="M 321.5 296 a 10 10 0 0 1 10 10 v 130 a 10 10 0 0 0 10 10"></path><g class="terminal ">
<path d="M 341.5 446 h 0.0"></path><path d="M 489.0 446 h 0.0"></path><rect height="22" rx="10" ry="10" width="147.5" x="341.5" y="435"></rect><text x="415.25" y="450">"alphacontents"</text></g><path d="M 489.0 446 a 10 10 0 0 0 10 -10 v -130 a 10 10 0 0 1 10 -10"></path><path d="M 321.5 296 a 10 10 0 0 1 10 10 v 160 a 10 10 0 0 0 10 10"></path><g class="terminal ">
<path d="M 341.5 476 h 0.0"></path><path d="M 489.0 476 h 0.0"></path><rect height="22" rx="10" ry="10" width="147.5" x="341.5" y="465"></rect><text x="415.25" y="480">"abbreviations"</text></g><path d="M 489.0 476 a 10 10 0 0 0 10 -10 v -160 a 10 10 0 0 1 10 -10"></path><path d="M 321.5 296 a 10 10 0 0 1 10 10 v 190 a 10 10 0 0 0 10 10"></path><g class="terminal ">
<path d="M 341.5 506 h 21.25"></path><path d="M 467.75 506 h 21.25"></path><rect height="22" rx="10" ry="10" width="105.0" x="362.75" y="495"></rect><text x="415.25" y="510">"intbible"</text></g><path d="M 489.0 506 a 10 10 0 0 0 10 -10 v -190 a 10 10 0 0 1 10 -10"></path><path d="M 321.5 296 a 10 10 0 0 1 10 10 v 220 a 10 10 0 0 0 10 10"></path><g class="terminal ">
<path d="M 341.5 536 h 34.0"></path><path d="M 455.0 536 h 34.0"></path><rect height="22" rx="10" ry="10" width="79.5" x="375.5" y="525"></rect><text x="415.25" y="540">"intot"</text></g><path d="M 489.0 536 a 10 10 0 0 0 10 -10 v -220 a 10 10 0 0 1 10 -10"></path><path d="M 321.5 296 a 10 10 0 0 1 10 10 v 250 a 10 10 0 0 0 10 10"></path><g class="terminal ">
<path d="M 341.5 566 h 25.5"></path><path d="M 463.5 566 h 25.5"></path><rect height="22" rx="10" ry="10" width="96.5" x="367.0" y="555"></rect><text x="415.25" y="570">"intpent"</text></g><path d="M 489.0 566 a 10 10 0 0 0 10 -10 v -250 a 10 10 0 0 1 10 -10"></path><path d="M 321.5 296 a 10 10 0 0 1 10 10 v 280 a 10 10 0 0 0 10 10"></path><g class="terminal ">
<path d="M 341.5 596 h 12.75"></path><path d="M 476.25 596 h 12.75"></path><rect height="22" rx="10" ry="10" width="122.0" x="354.25" y="585"></rect><text x="415.25" y="600">"inthistory"</text></g><path d="M 489.0 596 a 10 10 0 0 0 10 -10 v -280 a 10 10 0 0 1 10 -10"></path><path d="M 321.5 296 a 10 10 0 0 1 10 10 v 310 a 10 10 0 0 0 10 10"></path><g class="terminal ">
<path d="M 341.5 626 h 17.0"></path><path d="M 472.0 626 h 17.0"></path><rect height="22" rx="10" ry="10" width="113.5" x="358.5" y="615"></rect><text x="415.25" y="630">"intpoetry"</text></g><path d="M 489.0 626 a 10 10 0 0 0 10 -10 v -310 a 10 10 0 0 1 10 -10"></path></g><path d="M 519.0 296 a 10 10 0 0 1 10 10 v 309 a 10 10 0 0 0 10 10"></path><path d="M 519.0 177 a 10 10 0 0 1 10 10 v 99 a 10 10 0 0 0 10 10"></path><g>
<path d="M 539.0 296 h 10.0"></path><path d="M 770.5 296 h 10.0"></path><path d="M 549.0 296 a 10 10 0 0 0 10 -10 v -10 a 10 10 0 0 1 10 -10"></path><g class="terminal ">
<path d="M 569.0 266 h 51.0"></path><path d="M 699.5 266 h 51.0"></path><rect height="22" rx="10" ry="10" width="79.5" x="620.0" y="255"></rect><text x="659.75" y="270">"intnt"</text></g><path d="M 750.5 266 a 10 10 0 0 1 10 10 v 10 a 10 10 0 0 0 10 10"></path><path d="M 549.0 296 a 10 10 0 0 0 10 -10 v -40 a 10 10 0 0 1 10 -10"></path><g class="terminal ">
<path d="M 569.0 236 h 51.0"></path><path d="M 699.5 236 h 51.0"></path><rect height="22" rx="10" ry="10" width="79.5" x="620.0" y="225"></rect><text x="659.75" y="240">"intdc"</text></g><path d="M 750.5 236 a 10 10 0 0 1 10 10 v 40 a 10 10 0 0 0 10 10"></path><path d="M 549.0 296 a 10 10 0 0 0 10 -10 v -70 a 10 10 0 0 1 10 -10"></path><g class="terminal ">
<path d="M 569.0 206 h 25.5"></path><path d="M 725.0 206 h 25.5"></path><rect height="22" rx="10" ry="10" width="130.5" x="594.5" y="195"></rect><text x="659.75" y="210">"intprophesy"</text></g><path d="M 750.5 206 a 10 10 0 0 1 10 10 v 70 a 10 10 0 0 0 10 10"></path><path d="M 549.0 296 h 20"></path><g class="terminal ">
<path d="M 569.0 296 h 29.75"></path><path d="M 720.75 296 h 29.75"></path><rect height="22" rx="10" ry="10" width="122.0" x="598.75" y="285"></rect><text x="659.75" y="300">"intgospels"</text></g><path d="M 750.5 296 h 20"></path><path d="M 549.0 296 a 10 10 0 0 1 10 10 v 10 a 10 10 0 0 0 10 10"></path><g class="terminal ">
<path d="M 569.0 326 h 25.5"></path><path d="M 725.0 326 h 25.5"></path><rect height="22" rx="10" ry="10" width="130.5" x="594.5" y="315"></rect><text x="659.75" y="330">"intepistles"</text></g><path d="M 750.5 326 a 10 10 0 0 0 10 -10 v -10 a 10 10 0 0 1 10 -10"></path><path d="M 549.0 296 a 10 10 0 0 1 10 10 v 40 a 10 10 0 0 0 10 10"></path><g class="terminal ">
<path d="M 569.0 356 h 29.75"></path><path d="M 720.75 356 h 29.75"></path><rect height="22" rx="10" ry="10" width="122.0" x="598.75" y="345"></rect><text x="659.75" y="360">"intletters"</text></g><path d="M 750.5 356 a 10 10 0 0 0 10 -10 v -40 a 10 10 0 0 1 10 -10"></path><path d="M 549.0 296 a 10 10 0 0 1 10 10 v 70 a 10 10 0 0 0 10 10"></path><g class="terminal ">
<path d="M 569.0 386 h 51.0"></path><path d="M 699.5 386 h 51.0"></path><rect height="22" rx="10" ry="10" width="79.5" x="620.0" y="375"></rect><text x="659.75" y="390">"chron"</text></g><path d="M 750.5 386 a 10 10 0 0 0 10 -10 v -70 a 10 10 0 0 1 10 -10"></path><path d="M 549.0 296 a 10 10 0 0 1 10 10 v 100 a 10 10 0 0 0 10 10"></path><g class="terminal ">
<path d="M 569.0 416 h 38.25"></path><path d="M 712.25 416 h 38.25"></path><rect height="22" rx="10" ry="10" width="105.0" x="607.25" y="405"></rect><text x="659.75" y="420">"measures"</text></g><path d="M 750.5 416 a 10 10 0 0 0 10 -10 v -100 a 10 10 0 0 1 10 -10"></path><path d="M 549.0 296 a 10 10 0 0 1 10 10 v 130 a 10 10 0 0 0 10 10"></path><g class="terminal ">
<path d="M 569.0 446 h 55.25"></path><path d="M 695.25 446 h 55.25"></path><rect height="22" rx="10" ry="10" width="71.0" x="624.25" y="435"></rect><text x="659.75" y="450">"maps"</text></g><path d="M 750.5 446 a 10 10 0 0 0 10 -10 v -130 a 10 10 0 0 1 10 -10"></path><path d="M 549.0 296 a 10 10 0 0 1 10 10 v 160 a 10 10 0 0 0 10 10"></path><g class="terminal ">
<path d="M 569.0 476 h 34.0"></path><path d="M 716.5 476 h 34.0"></path><rect height="22" rx="10" ry="10" width="113.5" x="603.0" y="465"></rect><text x="659.75" y="480">"lxxquotes"</text></g><path d="M 750.5 476 a 10 10 0 0 0 10 -10 v -160 a 10 10 0 0 1 10 -10"></path><path d="M 549.0 296 a 10 10 0 0 1 10 10 v 190 a 10 10 0 0 0 10 10"></path><g class="terminal ">
<path d="M 569.0 506 h 51.0"></path><path d="M 699.5 506 h 51.0"></path><rect height="22" rx="10" ry="10" width="79.5" x="620.0" y="495"></rect><text x="659.75" y="510">"cover"</text></g><path d="M 750.5 506 a 10 10 0 0 0 10 -10 v -190 a 10 10 0 0 1 10 -10"></path><path d="M 549.0 296 a 10 10 0 0 1 10 10 v 220 a 10 10 0 0 0 10 10"></path><g class="terminal ">
<path d="M 569.0 536 h 51.0"></path><path d="M 699.5 536 h 51.0"></path><rect height="22" rx="10" ry="10" width="79.5" x="620.0" y="525"></rect><text x="659.75" y="540">"spine"</text></g><path d="M 750.5 536 a 10 10 0 0 0 10 -10 v -220 a 10 10 0 0 1 10 -10"></path><path d="M 549.0 296 a 10 10 0 0 1 10 10 v 250 a 10 10 0 0 0 10 10"></path><g class="terminal ">
<path d="M 569.0 566 h 63.75"></path><path d="M 686.75 566 h 63.75"></path><rect height="22" rx="10" ry="10" width="54.0" x="632.75" y="555"></rect><text x="659.75" y="570">TEXT</text></g><path d="M 750.5 566 a 10 10 0 0 0 10 -10 v -250 a 10 10 0 0 1 10 -10"></path><path d="M 549.0 296 a 10 10 0 0 1 10 10 v 280 a 10 10 0 0 0 10 10"></path><g class="terminal ">
<path d="M 569.0 596 h 0.0"></path><path d="M 750.5 596 h 0.0"></path><rect height="22" rx="10" ry="10" width="181.5" x="569.0" y="585"></rect><text x="659.75" y="600">/x\-&#91;\p{L}&#95;\-\.:&#93;+/</text></g><path d="M 750.5 596 a 10 10 0 0 0 10 -10 v -280 a 10 10 0 0 1 10 -10"></path></g><path d="M 780.5 296 h 10"></path></g><path d="M 790.5 296 h 10"></path><g class="terminal ">
<path d="M 800.5 296 h 0.0"></path><path d="M 846.0 296 h 0.0"></path><rect height="22" rx="10" ry="10" width="45.5" x="800.5" y="285"></rect><text x="823.25" y="300">'"'</text></g></g><path d="M 856.0 296 a 10 10 0 0 1 10 10 v 339 a 10 10 0 0 1 -10 10 h -796.0 a 10 10 0 0 0 -10 10 v 18 a 10 10 0 0 0 10 10"></path><g>
<path d="M 60.0 693 h 311.25"></path><path d="M 544.75 693 h 311.25"></path><path d="M 371.25 693 a 10 10 0 0 0 10 -10 v 0 a 10 10 0 0 1 10 -10"></path><g>
<path d="M 391.25 673 h 133.5"></path></g><path d="M 524.75 673 a 10 10 0 0 1 10 10 v 0 a 10 10 0 0 0 10 10"></path><path d="M 371.25 693 h 20"></path><g>
<path d="M 391.25 693 h 0.0"></path><path d="M 524.75 693 h 0.0"></path><path d="M 391.25 693 h 10"></path><g class="non-terminal ">
<path d="M 401.25 693 h 0.0"></path><path d="M 514.75 693 h 0.0"></path><rect height="22" width="113.5" x="401.25" y="682"></rect><text x="458.0" y="697">BookHeaders</text></g><path d="M 514.75 693 h 10"></path><path d="M 401.25 693 a 10 10 0 0 0 -10 10 v 0 a 10 10 0 0 0 10 10"></path><g>
<path d="M 401.25 713 h 113.5"></path></g><path d="M 514.75 713 a 10 10 0 0 0 10 -10 v 0 a 10 10 0 0 0 -10 -10"></path></g><path d="M 524.75 693 h 20"></path></g><path d="M 856.0 693 a 10 10 0 0 1 10 10 v 18 a 10 10 0 0 1 -10 10 h -796.0 a 10 10 0 0 0 -10 10 v 18 a 10 10 0 0 0 10 10"></path><g>
<path d="M 60.0 769 h 315.5"></path><path d="M 540.5 769 h 315.5"></path><path d="M 375.5 769 a 10 10 0 0 0 10 -10 v 0 a 10 10 0 0 1 10 -10"></path><g>
<path d="M 395.5 749 h 125.0"></path></g><path d="M 520.5 749 a 10 10 0 0 1 10 10 v 0 a 10 10 0 0 0 10 10"></path><path d="M 375.5 769 h 20"></path><g>
<path d="M 395.5 769 h 0.0"></path><path d="M 520.5 769 h 0.0"></path><path d="M 395.5 769 h 10"></path><g class="non-terminal ">
<path d="M 405.5 769 h 0.0"></path><path d="M 510.5 769 h 0.0"></path><rect height="22" width="105.0" x="405.5" y="758"></rect><text x="458.0" y="773">BookTitles</text></g><path d="M 510.5 769 h 10"></path><path d="M 405.5 769 a 10 10 0 0 0 -10 10 v 0 a 10 10 0 0 0 10 10"></path><g>
<path d="M 405.5 789 h 105.0"></path></g><path d="M 510.5 789 a 10 10 0 0 0 10 -10 v 0 a 10 10 0 0 0 -10 -10"></path></g><path d="M 520.5 769 h 20"></path></g><path d="M 856.0 769 a 10 10 0 0 1 10 10 v 18 a 10 10 0 0 1 -10 10 h -796.0 a 10 10 0 0 0 -10 10 v 18 a 10 10 0 0 0 10 10"></path><g>
<path d="M 60.0 845 h 290.0"></path><path d="M 566.0 845 h 290.0"></path><path d="M 350.0 845 a 10 10 0 0 0 10 -10 v 0 a 10 10 0 0 1 10 -10"></path><g>
<path d="M 370.0 825 h 176.0"></path></g><path d="M 546.0 825 a 10 10 0 0 1 10 10 v 0 a 10 10 0 0 0 10 10"></path><path d="M 350.0 845 h 20"></path><g>
<path d="M 370.0 845 h 0.0"></path><path d="M 546.0 845 h 0.0"></path><path d="M 370.0 845 h 10"></path><g class="non-terminal ">
<path d="M 380.0 845 h 0.0"></path><path d="M 536.0 845 h 0.0"></path><rect height="22" width="156.0" x="380.0" y="834"></rect><text x="458.0" y="849">BookIntroduction</text></g><path d="M 536.0 845 h 10"></path><path d="M 380.0 845 a 10 10 0 0 0 -10 10 v 0 a 10 10 0 0 0 10 10"></path><g>
<path d="M 380.0 865 h 156.0"></path></g><path d="M 536.0 865 a 10 10 0 0 0 10 -10 v 0 a 10 10 0 0 0 -10 -10"></path></g><path d="M 546.0 845 h 20"></path></g><path d="M 856.0 845 a 10 10 0 0 1 10 10 v 18 a 10 10 0 0 1 -10 10 h -796.0 a 10 10 0 0 0 -10 10 v 18 a 10 10 0 0 0 10 10"></path><g>
<path d="M 60.0 921 h 251.75"></path><path d="M 604.25 921 h 251.75"></path><path d="M 311.75 921 a 10 10 0 0 0 10 -10 v 0 a 10 10 0 0 1 10 -10"></path><g>
<path d="M 331.75 901 h 252.5"></path></g><path d="M 584.25 901 a 10 10 0 0 1 10 10 v 0 a 10 10 0 0 0 10 10"></path><path d="M 311.75 921 h 20"></path><g>
<path d="M 331.75 921 h 0.0"></path><path d="M 584.25 921 h 0.0"></path><path d="M 331.75 921 h 10"></path><g class="non-terminal ">
<path d="M 341.75 921 h 0.0"></path><path d="M 574.25 921 h 0.0"></path><rect height="22" width="232.5" x="341.75" y="910"></rect><text x="458.0" y="925">BookIntroductionEndTitles</text></g><path d="M 574.25 921 h 10"></path><path d="M 341.75 921 a 10 10 0 0 0 -10 10 v 0 a 10 10 0 0 0 10 10"></path><g>
<path d="M 341.75 941 h 232.5"></path></g><path d="M 574.25 941 a 10 10 0 0 0 10 -10 v 0 a 10 10 0 0 0 -10 -10"></path></g><path d="M 584.25 921 h 20"></path></g><path d="M 856.0 921 a 10 10 0 0 1 10 10 v 18 a 10 10 0 0 1 -10 10 h -796.0 a 10 10 0 0 0 -10 10 v 27 a 10 10 0 0 0 10 10"></path><g>
<path d="M 60.0 1006 h 278.5"></path><path d="M 577.5 1006 h 278.5"></path><path d="M 338.5 1006 a 10 10 0 0 0 10 -10 v -9 a 10 10 0 0 1 10 -10"></path><g>
<path d="M 358.5 977 h 199.0"></path></g><path d="M 557.5 977 a 10 10 0 0 1 10 10 v 9 a 10 10 0 0 0 10 10"></path><path d="M 338.5 1006 h 20"></path><g>
<path d="M 358.5 1006 h 0.0"></path><path d="M 557.5 1006 h 0.0"></path><path d="M 358.5 1006 h 10"></path><g>
<path d="M 368.5 1006 h 0.0"></path><path d="M 547.5 1006 h 0.0"></path><path d="M 368.5 1006 h 20"></path><g class="non-terminal ">
<path d="M 388.5 1006 h 42.5"></path><path d="M 485.0 1006 h 42.5"></path><rect height="22" width="54.0" x="431.0" y="995"></rect><text x="458.0" y="1010">Para</text></g><path d="M 527.5 1006 h 20"></path><path d="M 368.5 1006 a 10 10 0 0 1 10 10 v 10 a 10 10 0 0 0 10 10"></path><g class="non-terminal ">
<path d="M 388.5 1036 h 29.75"></path><path d="M 497.75 1036 h 29.75"></path><rect height="22" width="79.5" x="418.25" y="1025"></rect><text x="458.0" y="1040">Section</text></g><path d="M 527.5 1036 a 10 10 0 0 0 10 -10 v -10 a 10 10 0 0 1 10 -10"></path><path d="M 368.5 1006 a 10 10 0 0 1 10 10 v 40 a 10 10 0 0 0 10 10"></path><g class="non-terminal ">
<path d="M 388.5 1066 h 29.75"></path><path d="M 497.75 1066 h 29.75"></path><rect height="22" width="79.5" x="418.25" y="1055"></rect><text x="458.0" y="1070">Chapter</text></g><path d="M 527.5 1066 a 10 10 0 0 0 10 -10 v -40 a 10 10 0 0 1 10 -10"></path><path d="M 368.5 1006 a 10 10 0 0 1 10 10 v 70 a 10 10 0 0 0 10 10"></path><g class="non-terminal ">
<path d="M 388.5 1096 h 34.0"></path><path d="M 493.5 1096 h 34.0"></path><rect height="22" width="71.0" x="422.5" y="1085"></rect><text x="458.0" y="1100">Figure</text></g><path d="M 527.5 1096 a 10 10 0 0 0 10 -10 v -70 a 10 10 0 0 1 10 -10"></path><path d="M 368.5 1006 a 10 10 0 0 1 10 10 v 100 a 10 10 0 0 0 10 10"></path><g class="non-terminal ">
<path d="M 388.5 1126 h 21.25"></path><path d="M 506.25 1126 h 21.25"></path><rect height="22" width="96.5" x="409.75" y="1115"></rect><text x="458.0" y="1130">Milestone</text></g><path d="M 527.5 1126 a 10 10 0 0 0 10 -10 v -100 a 10 10 0 0 1 10 -10"></path><path d="M 368.5 1006 a 10 10 0 0 1 10 10 v 130 a 10 10 0 0 0 10 10"></path><g class="non-terminal ">
<path d="M 388.5 1156 h 25.5"></path><path d="M 502.0 1156 h 25.5"></path><rect height="22" width="88.0" x="414.0" y="1145"></rect><text x="458.0" y="1160">Footnote</text></g><path d="M 527.5 1156 a 10 10 0 0 0 10 -10 v -130 a 10 10 0 0 1 10 -10"></path><path d="M 368.5 1006 a 10 10 0 0 1 10 10 v 160 a 10 10 0 0 0 10 10"></path><g class="non-terminal ">
<path d="M 388.5 1186 h 0.0"></path><path d="M 527.5 1186 h 0.0"></path><rect height="22" width="139.0" x="388.5" y="1175"></rect><text x="458.0" y="1190">CrossReference</text></g><path d="M 527.5 1186 a 10 10 0 0 0 10 -10 v -160 a 10 10 0 0 1 10 -10"></path><path d="M 368.5 1006 a 10 10 0 0 1 10 10 v 190 a 10 10 0 0 0 10 10"></path><g class="non-terminal ">
<path d="M 388.5 1216 h 42.5"></path><path d="M 485.0 1216 h 42.5"></path><rect height="22" width="54.0" x="431.0" y="1205"></rect><text x="458.0" y="1220">List</text></g><path d="M 527.5 1216 a 10 10 0 0 0 10 -10 v -190 a 10 10 0 0 1 10 -10"></path><path d="M 368.5 1006 a 10 10 0 0 1 10 10 v 220 a 10 10 0 0 0 10 10"></path><g class="non-terminal ">
<path d="M 388.5 1246 h 38.25"></path><path d="M 489.25 1246 h 38.25"></path><rect height="22" width="62.5" x="426.75" y="1235"></rect><text x="458.0" y="1250">Table</text></g><path d="M 527.5 1246 a 10 10 0 0 0 10 -10 v -220 a 10 10 0 0 1 10 -10"></path><path d="M 368.5 1006 a 10 10 0 0 1 10 10 v 250 a 10 10 0 0 0 10 10"></path><g class="non-terminal ">
<path d="M 388.5 1276 h 29.75"></path><path d="M 497.75 1276 h 29.75"></path><rect height="22" width="79.5" x="418.25" y="1265"></rect><text x="458.0" y="1280">Sidebar</text></g><path d="M 527.5 1276 a 10 10 0 0 0 10 -10 v -250 a 10 10 0 0 1 10 -10"></path></g><path d="M 547.5 1006 h 10"></path><path d="M 368.5 1006 a 10 10 0 0 0 -10 10 v 279 a 10 10 0 0 0 10 10"></path><g>
<path d="M 368.5 1305 h 179.0"></path></g><path d="M 547.5 1305 a 10 10 0 0 0 10 -10 v -279 a 10 10 0 0 0 -10 -10"></path></g><path d="M 557.5 1006 h 20"></path></g><path d="M 856.0 1006 h 10"></path><path d="M 866.0 1006 h 0.0"></path></g></g><path d="M 866.0 1006 h 10"></path><path d="M 876.0 1006 h 20 m 0 -10 v 20"></path></g></svg>