<svg class="railroad-diagram" height="1198" viewBox="0 0 837.0 1198" width="837.0" xmlns="http://www.w3.org/2000/svg" xmlns:xlink="http://www.w3.org/1999/xlink">
<g transform="translate(.5 .5)">
<style>/* <![CDATA[ */

    svg.railroad-diagram {
        background-color: hsl(30,20%,95%);
    }
    svg.railroad-diagram path {
        stroke-width: 2;
        stroke: black;
        fill: none;
    }
    svg.railroad-diagram text {
        font-size: 12px;
        text-anchor: middle;
        font-family: DejaVu Sans;
    }
    svg.railroad-diagram text.label {
        text-anchor:start;
    }
    svg.railroad-diagram text.comment {
        font-family: DejaVu Sans;
        font-size: 14px;
    }
    svg.railroad-diagram rect{
        stroke-width: 2;
        stroke: black;
        fill: rgb(210, 255, 210);
    }
    svg.railroad-diagram rect.group-box {
        stroke: gray;
        stroke-dasharray: 10 5;
        fill: none;
    }
    .terminal {
        font-family: DejaVu Sans;
    }
    svg.railroad-diagram g.altterminal rect {
        fill: rgb(251, 252, 207)
    }

/* ]]> */
</style><g>
<path d="M 20 21 v 20 m 0 -10 h 20"></path></g><path d="M 40 31 h 10"></path><g>
<path d="M 50 31 h 0.0"></path><path d="M 787.0 929 h 0.0"></path><g>
<path d="M 50.0 31 h 0.0"></path><path d="M 50.0 31 h 10"></path><g class="terminal ">
<path d="M 60.0 31 h 306.0"></path><path d="M 471.0 31 h 306.0"></path><rect height="22" rx="10" ry="10" width="105.0" x="366.0" y="20"></rect><text x="418.5" y="35">'\periph '</text></g><path d="M 777.0 31 a 10 10 0 0 1 10 10 v 0 a 10 10 0 0 1 -10 10 h -717.0 a 10 10 0 0 0 -10 10 v 0 a 10 10 0 0 0 10 10"></path><g>
<path d="M 60.0 71 h 236.25"></path><path d="M 540.75 71 h 236.25"></path><path d="M 296.25 71 h 20"></path><g>
<path d="M 316.25 71 h 204.5"></path></g><path d="M 520.75 71 h 20"></path><path d="M 296.25 71 a 10 10 0 0 1 10 10 v 0 a 10 10 0 0 0 10 10"></path><g>
<path d="M 316.25 91 h 0.0"></path><path d="M 520.75 91 h 0.0"></path><g>
<path d="M 316.25 91 h 0.0"></path><path d="M 520.75 91 h 0.0"></path><g class="terminal ">
<path d="M 316.25 91 h 0.0"></path><path d="M 370.25 91 h 0.0"></path><rect height="22" rx="10" ry="10" width="54.0" x="316.25" y="80"></rect><text x="343.25" y="95">TEXT</text></g><path d="M 370.25 91 h 10"></path><path d="M 380.25 91 h 10"></path><g class="terminal ">
<path d="M 390.25 91 h 0.0"></path><path d="M 520.75 91 h 0.0"></path><rect height="22" rx="10" ry="10" width="130.5" x="390.25" y="80"></rect><text x="455.5" y="95">ATTRIBTEXTEND</text></g></g></g><path d="M 520.75 91 a 10 10 0 0 0 10 -10 v 0 a 10 10 0 0 1 10 -10"></path></g><path d="M 777.0 71 a 10 10 0 0 1 10 10 v 29 a 10 10 0 0 1 -10 10 h -717.0 a 10 10 0 0 0 -10 10 v 107 a 10 10 0 0 0 10 10"></path><g>
<path d="M 60.0 247 h 10.0"></path><path d="M 767.0 247 h 10.0"></path><g>
<path d="M 70.0 247 h 0.0"></path><path d="M 164.0 247 h 0.0"></path><path d="M 70.0 247 h 20"></path><g class="terminal ">
<path d="M 90.0 247 h 4.25"></path><path d="M 139.75 247 h 4.25"></path><rect height="22" rx="10" ry="10" width="45.5" x="94.25" y="236"></rect><text x="117.0" y="251">'|'</text></g><path d="M 144.0 247 h 20"></path><path d="M 70.0 247 a 10 10 0 0 1 10 10 v 10 a 10 10 0 0 0 10 10"></path><g class="terminal altterminal">
<path d="M 90.0 277 h 0.0"></path><path d="M 144.0 277 h 0.0"></path><rect height="22" rx="10" ry="10" width="54.0" x="90.0" y="266"></rect><text x="117.0" y="281">PIPE</text></g><path d="M 144.0 277 a 10 10 0 0 0 10 -10 v -10 a 10 10 0 0 1 10 -10"></path></g><path d="M 164.0 247 h 10"></path><g>
<path d="M 174.0 247 h 0.0"></path><path d="M 663.0 247 h 0.0"></path><path d="M 174.0 247 a 10 10 0 0 0 10 -10 v -99 a 10 10 0 0 1 10 -10 h 197.5"></path><path d="M 411.5 576 h 231.5 a 10 10 0 0 0 10 -10 v -309 a 10 10 0 0 1 10 -10"></path><path d="M 174.0 247 h 10"></path><g>
<path d="M 184.0 247 h 10.0"></path><path d="M 381.5 247 h 10.0"></path><path d="M 194.0 247 a 10 10 0 0 0 10 -10 v -10 a 10 10 0 0 1 10 -10"></path><g class="terminal ">
<path d="M 214.0 217 h 34.0"></path><path d="M 327.5 217 h 34.0"></path><rect height="22" rx="10" ry="10" width="79.5" x="248.0" y="206"></rect><text x="287.75" y="221">"promo"</text></g><path d="M 361.5 217 a 10 10 0 0 1 10 10 v 10 a 10 10 0 0 0 10 10"></path><path d="M 194.0 247 a 10 10 0 0 0 10 -10 v -40 a 10 10 0 0 1 10 -10"></path><g class="terminal ">
<path d="M 214.0 187 h 17.0"></path><path d="M 344.5 187 h 17.0"></path><rect height="22" rx="10" ry="10" width="113.5" x="231.0" y="176"></rect><text x="287.75" y="191">"halftitle"</text></g><path d="M 361.5 187 a 10 10 0 0 1 10 10 v 40 a 10 10 0 0 0 10 10"></path><path d="M 194.0 247 a 10 10 0 0 0 10 -10 v -70 a 10 10 0 0 1 10 -10"></path><g class="terminal ">
<path d="M 214.0 157 h 34.0"></path><path d="M 327.5 157 h 34.0"></path><rect height="22" rx="10" ry="10" width="79.5" x="248.0" y="146"></rect><text x="287.75" y="161">"title"</text></g><path d="M 361.5 157 a 10 10 0 0 1 10 10 v 70 a 10 10 0 0 0 10 10"></path><path d="M 194.0 247 h 20"></path><g class="terminal ">
<path d="M 214.0 247 h 12.75"></path><path d="M 348.75 247 h 12.75"></path><rect height="22" rx="10" ry="10" width="122.0" x="226.75" y="236"></rect><text x="287.75" y="251">"imprimatur"</text></g><path d="M 361.5 247 h 20"></path><path d="M 194.0 247 a 10 10 0 0 1 10 10 v 10 a 10 10 0 0 0 10 10"></path><g class="terminal ">
<path d="M 214.0 277 h 25.5"></path><path d="M 336.0 277 h 25.5"></path><rect height="22" rx="10" ry="10" width="96.5" x="239.5" y="266"></rect><text x="287.75" y="281">"pubdata"</text></g><path d="M 361.5 277 a 10 10 0 0 0 10 -10 v -10 a 10 10 0 0 1 10 -10"></path><path d="M 194.0 247 a 10 10 0 0 1 10 10 v 40 a 10 10 0 0 0 10 10"></path><g class="terminal ">
<path d="M 214.0 307 h 21.25"></path><path d="M 340.25 307 h 21.25"></path><rect height="22" rx="10" ry="10" width="105.0" x="235.25" y="296"></rect><text x="287.75" y="311">"foreword"</text></g><path d="M 361.5 307 a 10 10 0 0 0 10 -10 v -40 a 10 10 0 0 1 10 -10"></path><path d="M 194.0 247 a 10 10 0 0 1 10 10 v 70 a 10 10 0 0 0 10 10"></path><g class="terminal ">
<path d="M 214.0 337 h 25.5"></path><path d="M 336.0 337 h 25.5"></path><rect height="22" rx="10" ry="10" width="96.5" x="239.5" y="326"></rect><text x="287.75" y="341">"preface"</text></g><path d="M 361.5 337 a 10 10 0 0 0 10 -10 v -70 a 10 10 0 0 1 10 -10"></path><path d="M 194.0 247 a 10 10 0 0 1 10 10 v 100 a 10 10 0 0 0 10 10"></path><g class="terminal ">
<path d="M 214.0 367 h 21.25"></path><path d="M 340.25 367 h 21.25"></path><rect height="22" rx="10" ry="10" width="105.0" x="235.25" y="356"></rect><text x="287.75" y="371">"contents"</text></g><path d="M 361.5 367 a 10 10 0 0 0 10 -10 v -100 a 10 10 0 0 1 10 -10"></path><path d="M 194.0 247 a 10 10 0 0 1 10 10 v 130 a 10 10 0 0 0 10 10"></path><g class="terminal ">
<path d="M 214.0 397 h 0.0"></path><path d="M 361.5 397 h 0.0"></path><rect height="22" rx="10" ry="10" width="147.5" x="214.0" y="386"></rect><text x="287.75" y="401">"alphacontents"</text></g><path d="M 361.5 397 a 10 10 0 0 0 10 -10 v -130 a 10 10 0 0 1 10 -10"></path><path d="M 194.0 247 a 10 10 0 0 1 10 10 v 160 a 10 10 0 0 0 10 10"></path><g class="terminal ">
<path d="M 214.0 427 h 0.0"></path><path d="M 361.5 427 h 0.0"></path><rect height="22" rx="10" ry="10" width="147.5" x="214.0" y="416"></rect><text x="287.75" y="431">"abbreviations"</text></g><path d="M 361.5 427 a 10 10 0 0 0 10 -10 v -160 a 10 10 0 0 1 10 -10"></path><path d="M 194.0 247 a 10 10 0 0 1 10 10 v 190 a 10 10 0 0 0 10 10"></path><g class="terminal ">
<path d="M 214.0 457 h 21.25"></path><path d="M 340.25 457 h 21.25"></path><rect height="22" rx="10" ry="10" width="105.0" x="235.25" y="446"></rect><text x="287.75" y="461">"intbible"</text></g><path d="M 361.5 457 a 10 10 0 0 0 10 -10 v -190 a 10 10 0 0 1 10 -10"></path><path d="M 194.0 247 a 10 10 0 0 1 10 10 v 220 a 10 10 0 0 0 10 10"></path><g class="terminal ">
<path d="M 214.0 487 h 34.0"></path><path d="M 327.5 487 h 34.0"></path><rect height="22" rx="10" ry="10" width="79.5" x="248.0" y="476"></rect><text x="287.75" y="491">"intot"</text></g><path d="M 361.5 487 a 10 10 0 0 0 10 -10 v -220 a 10 10 0 0 1 10 -10"></path><path d="M 194.0 247 a 10 10 0 0 1 10 10 v 250 a 10 10 0 0 0 10 10"></path><g class="terminal ">
<path d="M 214.0 517 h 25.5"></path><path d="M 336.0 517 h 25.5"></path><rect height="22" rx="10" ry="10" width="96.5" x="239.5" y="506"></rect><text x="287.75" y="521">"intpent"</text></g><path d="M 361.5 517 a 10 10 0 0 0 10 -10 v -250 a 10 10 0 0 1 10 -10"></path><path d="M 194.0 247 a 10 10 0 0 1 10 10 v 280 a 10 10 0 0 0 10 10"></path><g class="terminal ">
<path d="M 214.0 547 h 12.75"></path><path d="M 348.75 547 h 12.75"></path><rect height="22" rx="10" ry="10" width="122.0" x="226.75" y="536"></rect><text x="287.75" y="551">"inthistory"</text></g><path d="M 361.5 547 a 10 10 0 0 0 10 -10 v -280 a 10 10 0 0 1 10 -10"></path><path d="M 194.0 247 a 10 10 0 0 1 10 10 v 310 a 10 10 0 0 0 10 10"></path><g class="terminal ">
<path d="M 214.0 577 h 17.0"></path><path d="M 344.5 577 h 17.0"></path><rect height="22" rx="10" ry="10" width="113.5" x="231.0" y="566"></rect><text x="287.75" y="581">"intpoetry"</text></g><path d="M 361.5 577 a 10 10 0 0 0 10 -10 v -310 a 10 10 0 0 1 10 -10"></path></g><path d="M 391.5 247 a 10 10 0 0 1 10 10 v 309 a 10 10 0 0 0 10 10"></path><path d="M 391.5 128 a 10 10 0 0 1 10 10 v 99 a 10 10 0 0 0 10 10"></path><g>
<path d="M 411.5 247 h 10.0"></path><path d="M 643.0 247 h 10.0"></path><path d="M 421.5 247 a 10 10 0 0 0 10 -10 v -10 a 10 10 0 0 1 10 -10"></path><g class="terminal ">
<path d="M 441.5 217 h 51.0"></path><path d="M 572.0 217 h 51.0"></path><rect height="22" rx="10" ry="10" width="79.5" x="492.5" y="206"></rect><text x="532.25" y="221">"intnt"</text></g><path d="M 623.0 217 a 10 10 0 0 1 10 10 v 10 a 10 10 0 0 0 10 10"></path><path d="M 421.5 247 a 10 10 0 0 0 10 -10 v -40 a 10 10 0 0 1 10 -10"></path><g class="terminal ">
<path d="M 441.5 187 h 51.0"></path><path d="M 572.0 187 h 51.0"></path><rect height="22" rx="10" ry="10" width="79.5" x="492.5" y="176"></rect><text x="532.25" y="191">"intdc"</text></g><path d="M 623.0 187 a 10 10 0 0 1 10 10 v 40 a 10 10 0 0 0 10 10"></path><path d="M 421.5 247 a 10 10 0 0 0 10 -10 v -70 a 10 10 0 0 1 10 -10"></path><g class="terminal ">
<path d="M 441.5 157 h 25.5"></path><path d="M 597.5 157 h 25.5"></path><rect height="22" rx="10" ry="10" width="130.5" x="467.0" y="146"></rect><text x="532.25" y="161">"intprophesy"</text></g><path d="M 623.0 157 a 10 10 0 0 1 10 10 v 70 a 10 10 0 0 0 10 10"></path><path d="M 421.5 247 h 20"></path><g class="terminal ">
<path d="M 441.5 247 h 29.75"></path><path d="M 593.25 247 h 29.75"></path><rect height="22" rx="10" ry="10" width="122.0" x="471.25" y="236"></rect><text x="532.25" y="251">"intgospels"</text></g><path d="M 623.0 247 h 20"></path><path d="M 421.5 247 a 10 10 0 0 1 10 10 v 10 a 10 10 0 0 0 10 10"></path><g class="terminal ">
<path d="M 441.5 277 h 25.5"></path><path d="M 597.5 277 h 25.5"></path><rect height="22" rx="10" ry="10" width="130.5" x="467.0" y="266"></rect><text x="532.25" y="281">"intepistles"</text></g><path d="M 623.0 277 a 10 10 0 0 0 10 -10 v -10 a 10 10 0 0 1 10 -10"></path><path d="M 421.5 247 a 10 10 0 0 1 10 10 v 40 a 10 10 0 0 0 10 10"></path><g class="terminal ">
<path d="M 441.5 307 h 29.75"></path><path d="M 593.25 307 h 29.75"></path><rect height="22" rx="10" ry="10" width="122.0" x="471.25" y="296"></rect><text x="532.25" y="311">"intletters"</text></g><path d="M 623.0 307 a 10 10 0 0 0 10 -10 v -40 a 10 10 0 0 1 10 -10"></path><path d="M 421.5 247 a 10 10 0 0 1 10 10 v 70 a 10 10 0 0 0 10 10"></path><g class="terminal ">
<path d="M 441.5 337 h 51.0"></path><path d="M 572.0 337 h 51.0"></path><rect height="22" rx="10" ry="10" width="79.5" x="492.5" y="326"></rect><text x="532.25" y="341">"chron"</text></g><path d="M 623.0 337 a 10 10 0 0 0 10 -10 v -70 a 10 10 0 0 1 10 -10"></path><path d="M 421.5 247 a 10 10 0 0 1 10 10 v 100 a 10 10 0 0 0 10 10"></path><g class="terminal ">
<path d="M 441.5 367 h 38.25"></path><path d="M 584.75 367 h 38.25"></path><rect height="22" rx="10" ry="10" width="105.0" x="479.75" y="356"></rect><text x="532.25" y="371">"measures"</text></g><path d="M 623.0 367 a 10 10 0 0 0 10 -10 v -100 a 10 10 0 0 1 10 -10"></path><path d="M 421.5 247 a 10 10 0 0 1 10 10 v 130 a 10 10 0 0 0 10 10"></path><g class="terminal ">
<path d="M 441.5 397 h 55.25"></path><path d="M 567.75 397 h 55.25"></path><rect height="22" rx="10" ry="10" width="71.0" x="496.75" y="386"></rect><text x="532.25" y="401">"maps"</text></g><path d="M 623.0 397 a 10 10 0 0 0 10 -10 v -130 a 10 10 0 0 1 10 -10"></path><path d="M 421.5 247 a 10 10 0 0 1 10 10 v 160 a 10 10 0 0 0 10 10"></path><g class="terminal ">
<path d="M 441.5 427 h 34.0"></path><path d="M 589.0 427 h 34.0"></path><rect height="22" rx="10" ry="10" width="113.5" x="475.5" y="416"></rect><text x="532.25" y="431">"lxxquotes"</text></g><path d="M 623.0 427 a 10 10 0 0 0 10 -10 v -160 a 10 10 0 0 1 10 -10"></path><path d="M 421.5 247 a 10 10 0 0 1 10 10 v 190 a 10 10 0 0 0 10 10"></path><g class="terminal ">
<path d="M 441.5 457 h 51.0"></path><path d="M 572.0 457 h 51.0"></path><rect height="22" rx="10" ry="10" width="79.5" x="492.5" y="446"></rect><text x="532.25" y="461">"cover"</text></g><path d="M 623.0 457 a 10 10 0 0 0 10 -10 v -190 a 10 10 0 0 1 10 -10"></path><path d="M 421.5 247 a 10 10 0 0 1 10 10 v 220 a 10 10 0 0 0 10 10"></path><g class="terminal ">
<path d="M 441.5 487 h 51.0"></path><path d="M 572.0 487 h 51.0"></path><rect height="22" rx="10" ry="10" width="79.5" x="492.5" y="476"></rect><text x="532.25" y="491">"spine"</text></g><path d="M 623.0 487 a 10 10 0 0 0 10 -10 v -220 a 10 10 0 0 1 10 -10"></path><path d="M 421.5 247 a 10 10 0 0 1 10 10 v 250 a 10 10 0 0 0 10 10"></path><g class="terminal ">
<path d="M 441.5 517 h 63.75"></path><path d="M 559.25 517 h 63.75"></path><rect height="22" rx="10" ry="10" width="54.0" x="505.25" y="506"></rect><text x="532.25" y="521">TEXT</text></g><path d="M 623.0 517 a 10 10 0 0 0 10 -10 v -250 a 10 10 0 0 1 10 -10"></path><path d="M 421.5 247 a 10 10 0 0 1 10 10 v 280 a 10 10 0 0 0 10 10"></path><g class="terminal ">
<path d="M 441.5 547 h 0.0"></path><path d="M 623.0 547 h 0.0"></path><rect height="22" rx="10" ry="10" width="181.5" x="441.5" y="536"></rect><text x="532.25" y="551">/x\-&#91;\p{L}&#95;\-\.:&#93;+/</text></g><path d="M 623.0 547 a 10 10 0 0 0 10 -10 v -280 a 10 10 0 0 1 10 -10"></path></g><path d="M 653.0 247 h 10"></path></g><path d="M 663.0 247 h 10"></path><g>
<path d="M 673.0 247 h 0.0"></path><path d="M 767.0 247 h 0.0"></path><path d="M 673.0 247 h 20"></path><g class="terminal ">
<path d="M 693.0 247 h 0.0"></path><path d="M 747.0 247 h 0.0"></path><rect height="22" rx="10" ry="10" width="54.0" x="693.0" y="236"></rect><text x="720.0" y="251">'\n'</text></g><path d="M 747.0 247 h 20"></path><path d="M 673.0 247 a 10 10 0 0 1 10 10 v 10 a 10 10 0 0 0 10 10"></path><g class="terminal altterminal">
<path d="M 693.0 277 h 8.5"></path><path d="M 738.5 277 h 8.5"></path><rect height="22" rx="10" ry="10" width="37.0" x="701.5" y="266"></rect><text x="720.0" y="281">NL</text></g><path d="M 747.0 277 a 10 10 0 0 0 10 -10 v -10 a 10 10 0 0 1 10 -10"></path></g></g><path d="M 777.0 247 a 10 10 0 0 1 10 10 v 339 a 10 10 0 0 1 -10 10 h -717.0 a 10 10 0 0 0 -10 10 v 18 a 10 10 0 0 0 10 10"></path><g>
<path d="M 60.0 644 h 271.75"></path><path d="M 505.25 644 h 271.75"></path><path d="M 331.75 644 a 10 10 0 0 0 10 -10 v 0 a 10 10 0 0 1 10 -10"></path><g>
<path d="M 351.75 624 h 133.5"></path></g><path d="M 485.25 624 a 10 10 0 0 1 10 10 v 0 a 10 10 0 0 0 10 10"></path><path d="M 331.75 644 h 20"></path><g>
<path d="M 351.75 644 h 0.0"></path><path d="M 485.25 644 h 0.0"></path><path d="M 351.75 644 h 10"></path><g class="non-terminal ">
<path d="M 361.75 644 h 0.0"></path><path d="M 475.25 644 h 0.0"></path><rect height="22" width="113.5" x="361.75" y="633"></rect><text x="418.5" y="648">BookHeaders</text></g><path d="M 475.25 644 h 10"></path><path d="M 361.75 644 a 10 10 0 0 0 -10 10 v 0 a 10 10 0 0 0 10 10"></path><g>
<path d="M 361.75 664 h 113.5"></path></g><path d="M 475.25 664 a 10 10 0 0 0 10 -10 v 0 a 10 10 0 0 0 -10 -10"></path></g><path d="M 485.25 644 h 20"></path></g><path d="M 777.0 644 a 10 10 0 0 1 10 10 v 18 a 10 10 0 0 1 -10 10 h -717.0 a 10 10 0 0 0 -10 10 v 0 a 10 10 0 0 0 10 10"></path><g>
<path d="M 60.0 702 h 296.0"></path><path d="M 481.0 702 h 296.0"></path><path d="M 356.0 702 h 10"></path><g class="non-terminal ">
<path d="M 366.0 702 h 0.0"></path><path d="M 471.0 702 h 0.0"></path><rect height="22" width="105.0" x="366.0" y="691"></rect><text x="418.5" y="706">BookTitles</text></g><path d="M 471.0 702 h 10"></path><path d="M 366.0 702 a 10 10 0 0 0 -10 10 v 0 a 10 10 0 0 0 10 10"></path><g>
<path d="M 366.0 722 h 105.0"></path></g><path d="M 471.0 722 a 10 10 0 0 0 10 -10 v 0 a 10 10 0 0 0 -10 -10"></path></g><path d="M 777.0 702 a 10 10 0 0 1 10 10 v 8 a 10 10 0 0 1 -10 10 h -717.0 a 10 10 0 0 0 -10 10 v 18 a 10 10 0 0 0 10 10"></path><g>
<path d="M 60.0 768 h 250.5"></path><path d="M 526.5 768 h 250.5"></path><path d="M 310.5 768 a 10 10 0 0 0 10 -10 v 0 a 10 10 0 0 1 10 -10"></path><g>
<path d="M 330.5 748 h 176.0"></path></g><path d="M 506.5 748 a 10 10 0 0 1 10 10 v 0 a 10 10 0 0 0 10 10"></path><path d="M 310.5 768 h 20"></path><g>
<path d="M 330.5 768 h 0.0"></path><path d="M 506.5 768 h 0.0"></path><path d="M 330.5 768 h 10"></path><g class="non-terminal ">
<path d="M 340.5 768 h 0.0"></path><path d="M 496.5 768 h 0.0"></path><rect height="22" width="156.0" x="340.5" y="757"></rect><text x="418.5" y="772">BookIntroduction</text></g><path d="M 496.5 768 h 10"></path><path d="M 340.5 768 a 10 10 0 0 0 -10 10 v 0 a 10 10 0 0 0 10 10"></path><g>
<path d="M 340.5 788 h 156.0"></path></g><path d="M 496.5 788 a 10 10 0 0 0 10 -10 v 0 a 10 10 0 0 0 -10 -10"></path></g><path d="M 506.5 768 h 20"></path></g><path d="M 777.0 768 a 10 10 0 0 1 10 10 v 18 a 10 10 0 0 1 -10 10 h -717.0 a 10 10 0 0 0 -10 10 v 18 a 10 10 0 0 0 10 10"></path><g>
<path d="M 60.0 844 h 212.25"></path><path d="M 564.75 844 h 212.25"></path><path d="M 272.25 844 a 10 10 0 0 0 10 -10 v 0 a 10 10 0 0 1 10 -10"></path><g>
<path d="M 292.25 824 h 252.5"></path></g><path d="M 544.75 824 a 10 10 0 0 1 10 10 v 0 a 10 10 0 0 0 10 10"></path><path d="M 272.25 844 h 20"></path><g>
<path d="M 292.25 844 h 0.0"></path><path d="M 544.75 844 h 0.0"></path><path d="M 292.25 844 h 10"></path><g class="non-terminal ">
<path d="M 302.25 844 h 0.0"></path><path d="M 534.75 844 h 0.0"></path><rect height="22" width="232.5" x="302.25" y="833"></rect><text x="418.5" y="848">BookIntroductionEndTitles</text></g><path d="M 534.75 844 h 10"></path><path d="M 302.25 844 a 10 10 0 0 0 -10 10 v 0 a 10 10 0 0 0 10 10"></path><g>
<path d="M 302.25 864 h 232.5"></path></g><path d="M 534.75 864 a 10 10 0 0 0 10 -10 v 0 a 10 10 0 0 0 -10 -10"></path></g><path d="M 544.75 844 h 20"></path></g><path d="M 777.0 844 a 10 10 0 0 1 10 10 v 18 a 10 10 0 0 1 -10 10 h -717.0 a 10 10 0 0 0 -10 10 v 27 a 10 10 0 0 0 10 10"></path><g>
<path d="M 60.0 929 h 239.0"></path><path d="M 538.0 929 h 239.0"></path><path d="M 299.0 929 a 10 10 0 0 0 10 -10 v -9 a 10 10 0 0 1 10 -10"></path><g>
<path d="M 319.0 900 h 199.0"></path></g><path d="M 518.0 900 a 10 10 0 0 1 10 10 v 9 a 10 10 0 0 0 10 10"></path><path d="M 299.0 929 h 20"></path><g>
<path d="M 319.0 929 h 0.0"></path><path d="M 518.0 929 h 0.0"></path><path d="M 319.0 929 h 10"></path><g>
<path d="M 329.0 929 h 0.0"></path><path d="M 508.0 929 h 0.0"></path><path d="M 329.0 929 h 20"></path><g class="non-terminal ">
<path d="M 349.0 929 h 29.75"></path><path d="M 458.25 929 h 29.75"></path><rect height="22" width="79.5" x="378.75" y="918"></rect><text x="418.5" y="933">Chapter</text></g><path d="M 488.0 929 h 20"></path><path d="M 329.0 929 a 10 10 0 0 1 10 10 v 10 a 10 10 0 0 0 10 10"></path><g class="non-terminal ">
<path d="M 349.0 959 h 29.75"></path><path d="M 458.25 959 h 29.75"></path><rect height="22" width="79.5" x="378.75" y="948"></rect><text x="418.5" y="963">Section</text></g><path d="M 488.0 959 a 10 10 0 0 0 10 -10 v -10 a 10 10 0 0 1 10 -10"></path><path d="M 329.0 929 a 10 10 0 0 1 10 10 v 40 a 10 10 0 0 0 10 10"></path><g class="non-terminal ">
<path d="M 349.0 989 h 42.5"></path><path d="M 445.5 989 h 42.5"></path><rect height="22" width="54.0" x="391.5" y="978"></rect><text x="418.5" y="993">Para</text></g><path d="M 488.0 989 a 10 10 0 0 0 10 -10 v -40 a 10 10 0 0 1 10 -10"></path><path d="M 329.0 929 a 10 10 0 0 1 10 10 v 70 a 10 10 0 0 0 10 10"></path><g class="non-terminal ">
<path d="M 349.0 1019 h 42.5"></path><path d="M 445.5 1019 h 42.5"></path><rect height="22" width="54.0" x="391.5" y="1008"></rect><text x="418.5" y="1023">List</text></g><path d="M 488.0 1019 a 10 10 0 0 0 10 -10 v -70 a 10 10 0 0 1 10 -10"></path><path d="M 329.0 929 a 10 10 0 0 1 10 10 v 100 a 10 10 0 0 0 10 10"></path><g class="non-terminal ">
<path d="M 349.0 1049 h 38.25"></path><path d="M 449.75 1049 h 38.25"></path><rect height="22" width="62.5" x="387.25" y="1038"></rect><text x="418.5" y="1053">Table</text></g><path d="M 488.0 1049 a 10 10 0 0 0 10 -10 v -100 a 10 10 0 0 1 10 -10"></path><path d="M 329.0 929 a 10 10 0 0 1 10 10 v 130 a 10 10 0 0 0 10 10"></path><g class="non-terminal ">
<path d="M 349.0 1079 h 25.5"></path><path d="M 462.5 1079 h 25.5"></path><rect height="22" width="88.0" x="374.5" y="1068"></rect><text x="418.5" y="1083">Footnote</text></g><path d="M 488.0 1079 a 10 10 0 0 0 10 -10 v -130 a 10 10 0 0 1 10 -10"></path><path d="M 329.0 929 a 10 10 0 0 1 10 10 v 160 a 10 10 0 0 0 10 10"></path><g class="non-terminal ">
<path d="M 349.0 1109 h 0.0"></path><path d="M 488.0 1109 h 0.0"></path><rect height="22" width="139.0" x="349.0" y="1098"></rect><text x="418.5" y="1113">CrossReference</text></g><path d="M 488.0 1109 a 10 10 0 0 0 10 -10 v -160 a 10 10 0 0 1 10 -10"></path><path d="M 329.0 929 a 10 10 0 0 1 10 10 v 190 a 10 10 0 0 0 10 10"></path><g class="non-terminal ">
<path d="M 349.0 1139 h 29.75"></path><path d="M 458.25 1139 h 29.75"></path><rect height="22" width="79.5" x="378.75" y="1128"></rect><text x="418.5" y="1143">Sidebar</text></g><path d="M 488.0 1139 a 10 10 0 0 0 10 -10 v -190 a 10 10 0 0 1 10 -10"></path></g><path d="M 508.0 929 h 10"></path><path d="M 329.0 929 a 10 10 0 0 0 -10 10 v 219 a 10 10 0 0 0 10 10"></path><g>
<path d="M 329.0 1168 h 179.0"></path></g><path d="M 508.0 1168 a 10 10 0 0 0 10 -10 v -219 a 10 10 0 0 0 -10 -10"></path></g><path d="M 518.0 929 h 20"></path></g><path d="M 777.0 929 h 10"></path><path d="M 787.0 929 h 0.0"></path></g></g><path d="M 787.0 929 h 10"></path><path d="M 797.0 929 h 20 m 0 -10 v 20"></path></g></svg>