<svg class="railroad-diagram" height="293" viewBox="0 0 696.5 293" width="696.5" xmlns="http://www.w3.org/2000/svg" xmlns:xlink="http://www.w3.org/1999/xlink">
<g transform="translate(.5 .5)">
<style>/* <![CDATA[ */
    svg.railroad-diagram {
        background-color:hsl(30,20%,95%);
    }
    svg.railroad-diagram path {
        stroke-width: 2;
        stroke: black;
        fill: none;
    }
    svg.railroad-diagram text {
        font-size: 12px;
        text-anchor: middle;
        font-family: DejaVu Sans;
    }
    svg.railroad-diagram text.label {
        text-anchor:start;
    }
    svg.railroad-diagram text.comment {
        font-family: DejaVu Sans;
        font-size: 14px;
    }
    svg.railroad-diagram rect{
        stroke-width: 2;
        stroke:black;
        fill: rgb(210, 255, 210);
    }
    svg.railroad-diagram rect.group-box {
        stroke: gray;
        stroke-dasharray: 10 5;
        fill: none;
    }
    .terminal {
        font-family: DejaVu Sans;
    }

/* ]]> */
</style><g>
<path d="M 20 54 v 20 m 0 -10 h 20"></path></g><path d="M 40 64 h 10"></path><g>
<path d="M 50 64 h 0.0"></path><path d="M 646.5 64 h 0.0"></path><rect class="group-box" height="237" rx="10" ry="10" width="596.5" x="50.0" y="36"></rect><g>
<path d="M 50.0 64 h 10.0"></path><path d="M 636.5 64 h 10.0"></path><g>
<path d="M 60.0 64 h 0.0"></path><path d="M 196.5 64 h 0.0"></path><path d="M 60.0 64 h 20"></path><g>
<path d="M 80.0 64 h 96.5"></path></g><path d="M 176.5 64 h 20"></path><path d="M 60.0 64 a 10 10 0 0 1 10 10 v 0 a 10 10 0 0 0 10 10"></path><g class="non-terminal ">
<path d="M 80.0 84 h 0.0"></path><path d="M 176.5 84 h 0.0"></path><rect height="22" width="96.5" x="80.0" y="73"></rect><text x="128.25" y="88">char.link</text></g><path d="M 176.5 84 a 10 10 0 0 0 10 -10 v 0 a 10 10 0 0 1 10 -10"></path></g><g>
<path d="M 196.5 64 h 0.0"></path><path d="M 350.0 64 h 0.0"></path><path d="M 196.5 64 h 20"></path><g>
<path d="M 216.5 64 h 113.5"></path></g><path d="M 330.0 64 h 20"></path><path d="M 196.5 64 a 10 10 0 0 1 10 10 v 0 a 10 10 0 0 0 10 10"></path><g class="non-terminal ">
<path d="M 216.5 84 h 0.0"></path><path d="M 330.0 84 h 0.0"></path><rect height="22" width="113.5" x="216.5" y="73"></rect><text x="273.25" y="88">char.closed</text></g><path d="M 330.0 84 a 10 10 0 0 0 10 -10 v 0 a 10 10 0 0 1 10 -10"></path></g><g>
<path d="M 350.0 64 h 0.0"></path><path d="M 636.5 64 h 0.0"></path><path d="M 350.0 64 a 10 10 0 0 0 10 -10 v 0 a 10 10 0 0 1 10 -10"></path><g>
<path d="M 370.0 44 h 246.5"></path></g><path d="M 616.5 44 a 10 10 0 0 1 10 10 v 0 a 10 10 0 0 0 10 10"></path><path d="M 350.0 64 h 20"></path><g>
<path d="M 370.0 64 h 0.0"></path><path d="M 616.5 64 h 0.0"></path><path d="M 370.0 64 h 10"></path><g>
<path d="M 380.0 64 h 0.0"></path><path d="M 606.5 64 h 0.0"></path><path d="M 380.0 64 h 20"></path><g class="non-terminal ">
<path d="M 400.0 64 h 45.0"></path><path d="M 541.5 64 h 45.0"></path><rect height="22" width="96.5" x="445.0" y="53"></rect><text x="493.25" y="68">Reference</text></g><path d="M 586.5 64 h 20"></path><path d="M 380.0 64 a 10 10 0 0 1 10 10 v 10 a 10 10 0 0 0 10 10"></path><g class="non-terminal ">
<path d="M 400.0 94 h 66.25"></path><path d="M 520.25 94 h 66.25"></path><rect height="22" width="54.0" x="466.25" y="83"></rect><text x="493.25" y="98">Char</text></g><path d="M 586.5 94 a 10 10 0 0 0 10 -10 v -10 a 10 10 0 0 1 10 -10"></path><path d="M 380.0 64 a 10 10 0 0 1 10 10 v 40 a 10 10 0 0 0 10 10"></path><g class="non-terminal ">
<path d="M 400.0 124 h 45.0"></path><path d="M 541.5 124 h 45.0"></path><rect height="22" width="96.5" x="445.0" y="113"></rect><text x="493.25" y="128">Milestone</text></g><path d="M 586.5 124 a 10 10 0 0 0 10 -10 v -40 a 10 10 0 0 1 10 -10"></path><path d="M 380.0 64 a 10 10 0 0 1 10 10 v 70 a 10 10 0 0 0 10 10"></path><g class="non-terminal ">
<path d="M 400.0 154 h 49.25"></path><path d="M 537.25 154 h 49.25"></path><rect height="22" width="88.0" x="449.25" y="143"></rect><text x="493.25" y="158">Footnote</text></g><path d="M 586.5 154 a 10 10 0 0 0 10 -10 v -70 a 10 10 0 0 1 10 -10"></path><path d="M 380.0 64 a 10 10 0 0 1 10 10 v 124 a 10 10 0 0 0 10 10"></path><g>
<path d="M 400.0 208 h 0.0"></path><path d="M 586.5 208 h 0.0"></path><rect class="group-box" height="68" rx="10" ry="10" width="186.5" x="400.0" y="189"></rect><g>
<path d="M 400.0 208 h 10.0"></path><path d="M 576.5 208 h 10.0"></path><g class="terminal ">
<path d="M 410.0 208 h 0.0"></path><path d="M 464.0 208 h 0.0"></path><rect height="22" rx="10" ry="10" width="54.0" x="410.0" y="197"></rect><text x="437.0" y="212">"\b"</text></g><path d="M 464.0 208 h 10"></path><g>
<path d="M 474.0 208 h 0.0"></path><path d="M 576.5 208 h 0.0"></path><path d="M 474.0 208 h 20"></path><g class="terminal ">
<path d="M 494.0 208 h 0.0"></path><path d="M 556.5 208 h 0.0"></path><rect height="22" rx="10" ry="10" width="62.5" x="494.0" y="197"></rect><text x="525.25" y="212">⇒ "\"</text></g><path d="M 556.5 208 h 20"></path><path d="M 474.0 208 a 10 10 0 0 1 10 10 v 10 a 10 10 0 0 0 10 10"></path><g class="terminal ">
<path d="M 494.0 238 h 12.75"></path><path d="M 543.75 238 h 12.75"></path><rect height="22" rx="10" ry="10" width="37.0" x="506.75" y="227"></rect><text x="525.25" y="242">WS</text></g><path d="M 556.5 238 a 10 10 0 0 0 10 -10 v -10 a 10 10 0 0 1 10 -10"></path></g></g><g class="non-terminal ">
<path d="M 400.0 181 h 0.0"></path><path d="M 445.0 181 h 0.0"></path><text class="comment" x="422.5" y="186">Break</text></g></g><path d="M 586.5 208 a 10 10 0 0 0 10 -10 v -124 a 10 10 0 0 1 10 -10"></path></g><path d="M 606.5 64 h 10"></path><path d="M 380.0 64 a 10 10 0 0 0 -10 10 v 181 a 10 10 0 0 0 10 10"></path><g>
<path d="M 380.0 265 h 226.5"></path></g><path d="M 606.5 265 a 10 10 0 0 0 10 -10 v -181 a 10 10 0 0 0 -10 -10"></path></g><path d="M 616.5 64 h 20"></path></g></g><g class="non-terminal ">
<path d="M 50.0 28 h 0.0"></path><path d="M 256.0 28 h 0.0"></path><text class="comment" x="153.0" y="33">CharWithAttrib.char.style.rb</text></g></g><path d="M 646.5 64 h 10"></path><path d="M 656.5 64 h 20 m 0 -10 v 20"></path></g></svg>