<svg class="railroad-diagram" height="308" viewBox="0 0 813.5 308" width="813.5" xmlns="http://www.w3.org/2000/svg" xmlns:xlink="http://www.w3.org/1999/xlink">
<g transform="translate(.5 .5)">
<style>/* <![CDATA[ */
    svg.railroad-diagram {
        background-color:hsl(30,20%,95%);
    }
    svg.railroad-diagram path {
        stroke-width: 2;
        stroke: black;
        fill: none;
    }
    svg.railroad-diagram text {
        font-size: 12px;
        text-anchor: middle;
        font-family: DejaVu Sans;
    }
    svg.railroad-diagram text.label {
        text-anchor:start;
    }
    svg.railroad-diagram text.comment {
        font-family: DejaVu Sans;
        font-size: 14px;
    }
    svg.railroad-diagram rect{
        stroke-width: 2;
        stroke:black;
        fill: rgb(210, 255, 210);
    }
    svg.railroad-diagram rect.group-box {
        stroke: gray;
        stroke-dasharray: 10 5;
        fill: none;
    }
    .terminal {
        font-family: DejaVu Sans;
    }

/* ]]> */
</style><g>
<path d="M 20 69 v 20 m 0 -10 h 20"></path></g><path d="M 40 79 h 10"></path><g>
<path d="M 50 79 h 0.0"></path><path d="M 763.5 79 h 0.0"></path><rect class="group-box" height="252" rx="10" ry="10" width="713.5" x="50.0" y="36"></rect><g>
<path d="M 50.0 79 h 10.0"></path><path d="M 753.5 79 h 10.0"></path><g>
<path d="M 60.0 79 h 0.0"></path><path d="M 199.5 79 h 0.0"></path><g>
<path d="M 60.0 79 h 0.0"></path><path d="M 142.5 79 h 0.0"></path><rect class="group-box" height="38" rx="10" ry="10" width="82.5" x="60.0" y="60"></rect><g class="terminal ">
<path d="M 60.0 79 h 10.0"></path><path d="M 132.5 79 h 10.0"></path><rect height="22" rx="10" ry="10" width="62.5" x="70.0" y="68"></rect><text x="101.25" y="83">"\rb"</text></g><g class="non-terminal ">
<path d="M 60.0 52 h 0.0"></path><path d="M 77.0 52 h 0.0"></path><text class="comment" x="68.5" y="57">➊</text></g></g><path d="M 142.5 79 h 10"></path><path d="M 152.5 79 h 10"></path><g class="terminal ">
<path d="M 162.5 79 h 0.0"></path><path d="M 199.5 79 h 0.0"></path><rect height="22" rx="10" ry="10" width="37.0" x="162.5" y="68"></rect><text x="181.0" y="83">WS</text></g></g><path d="M 199.5 79 h 10"></path><g>
<path d="M 209.5 79 h 0.0"></path><path d="M 346.0 79 h 0.0"></path><path d="M 209.5 79 a 10 10 0 0 0 10 -10 v 0 a 10 10 0 0 1 10 -10"></path><g>
<path d="M 229.5 59 h 96.5"></path></g><path d="M 326.0 59 a 10 10 0 0 1 10 10 v 0 a 10 10 0 0 0 10 10"></path><path d="M 209.5 79 h 20"></path><g class="non-terminal ">
<path d="M 229.5 79 h 0.0"></path><path d="M 326.0 79 h 0.0"></path><rect height="22" width="96.5" x="229.5" y="68"></rect><text x="277.75" y="83">char.link</text></g><path d="M 326.0 79 h 20"></path></g><g>
<path d="M 346.0 79 h 0.0"></path><path d="M 632.5 79 h 0.0"></path><path d="M 346.0 79 a 10 10 0 0 0 10 -10 v 0 a 10 10 0 0 1 10 -10"></path><g>
<path d="M 366.0 59 h 246.5"></path></g><path d="M 612.5 59 a 10 10 0 0 1 10 10 v 0 a 10 10 0 0 0 10 10"></path><path d="M 346.0 79 h 20"></path><g>
<path d="M 366.0 79 h 0.0"></path><path d="M 612.5 79 h 0.0"></path><path d="M 366.0 79 h 10"></path><g>
<path d="M 376.0 79 h 0.0"></path><path d="M 602.5 79 h 0.0"></path><path d="M 376.0 79 h 20"></path><g class="non-terminal ">
<path d="M 396.0 79 h 45.0"></path><path d="M 537.5 79 h 45.0"></path><rect height="22" width="96.5" x="441.0" y="68"></rect><text x="489.25" y="83">Reference</text></g><path d="M 582.5 79 h 20"></path><path d="M 376.0 79 a 10 10 0 0 1 10 10 v 10 a 10 10 0 0 0 10 10"></path><g class="non-terminal ">
<path d="M 396.0 109 h 66.25"></path><path d="M 516.25 109 h 66.25"></path><rect height="22" width="54.0" x="462.25" y="98"></rect><text x="489.25" y="113">Char</text></g><path d="M 582.5 109 a 10 10 0 0 0 10 -10 v -10 a 10 10 0 0 1 10 -10"></path><path d="M 376.0 79 a 10 10 0 0 1 10 10 v 40 a 10 10 0 0 0 10 10"></path><g class="non-terminal ">
<path d="M 396.0 139 h 45.0"></path><path d="M 537.5 139 h 45.0"></path><rect height="22" width="96.5" x="441.0" y="128"></rect><text x="489.25" y="143">Milestone</text></g><path d="M 582.5 139 a 10 10 0 0 0 10 -10 v -40 a 10 10 0 0 1 10 -10"></path><path d="M 376.0 79 a 10 10 0 0 1 10 10 v 70 a 10 10 0 0 0 10 10"></path><g class="non-terminal ">
<path d="M 396.0 169 h 49.25"></path><path d="M 533.25 169 h 49.25"></path><rect height="22" width="88.0" x="445.25" y="158"></rect><text x="489.25" y="173">Footnote</text></g><path d="M 582.5 169 a 10 10 0 0 0 10 -10 v -70 a 10 10 0 0 1 10 -10"></path><path d="M 376.0 79 a 10 10 0 0 1 10 10 v 124 a 10 10 0 0 0 10 10"></path><g>
<path d="M 396.0 223 h 0.0"></path><path d="M 582.5 223 h 0.0"></path><rect class="group-box" height="68" rx="10" ry="10" width="186.5" x="396.0" y="204"></rect><g>
<path d="M 396.0 223 h 10.0"></path><path d="M 572.5 223 h 10.0"></path><g class="terminal ">
<path d="M 406.0 223 h 0.0"></path><path d="M 460.0 223 h 0.0"></path><rect height="22" rx="10" ry="10" width="54.0" x="406.0" y="212"></rect><text x="433.0" y="227">"\b"</text></g><path d="M 460.0 223 h 10"></path><g>
<path d="M 470.0 223 h 0.0"></path><path d="M 572.5 223 h 0.0"></path><path d="M 470.0 223 h 20"></path><g class="terminal ">
<path d="M 490.0 223 h 0.0"></path><path d="M 552.5 223 h 0.0"></path><rect height="22" rx="10" ry="10" width="62.5" x="490.0" y="212"></rect><text x="521.25" y="227">⇒ "\"</text></g><path d="M 552.5 223 h 20"></path><path d="M 470.0 223 a 10 10 0 0 1 10 10 v 10 a 10 10 0 0 0 10 10"></path><g class="terminal ">
<path d="M 490.0 253 h 12.75"></path><path d="M 539.75 253 h 12.75"></path><rect height="22" rx="10" ry="10" width="37.0" x="502.75" y="242"></rect><text x="521.25" y="257">WS</text></g><path d="M 552.5 253 a 10 10 0 0 0 10 -10 v -10 a 10 10 0 0 1 10 -10"></path></g></g><g class="non-terminal ">
<path d="M 396.0 196 h 0.0"></path><path d="M 441.0 196 h 0.0"></path><text class="comment" x="418.5" y="201">Break</text></g></g><path d="M 582.5 223 a 10 10 0 0 0 10 -10 v -124 a 10 10 0 0 1 10 -10"></path></g><path d="M 602.5 79 h 10"></path><path d="M 376.0 79 a 10 10 0 0 0 -10 10 v 181 a 10 10 0 0 0 10 10"></path><g>
<path d="M 376.0 280 h 226.5"></path></g><path d="M 602.5 280 a 10 10 0 0 0 10 -10 v -181 a 10 10 0 0 0 -10 -10"></path></g><path d="M 612.5 79 h 20"></path></g><path d="M 632.5 79 h 10"></path><g>
<path d="M 642.5 79 h 0.0"></path><path d="M 753.5 79 h 0.0"></path><g class="terminal ">
<path d="M 642.5 79 h 0.0"></path><path d="M 688.0 79 h 0.0"></path><rect height="22" rx="10" ry="10" width="45.5" x="642.5" y="68"></rect><text x="665.25" y="83">⇐ ➊</text></g><path d="M 688.0 79 h 10"></path><path d="M 698.0 79 h 10"></path><g class="terminal ">
<path d="M 708.0 79 h 0.0"></path><path d="M 753.5 79 h 0.0"></path><rect height="22" rx="10" ry="10" width="45.5" x="708.0" y="68"></rect><text x="730.75" y="83">"&#42;"</text></g></g></g><g class="non-terminal ">
<path d="M 50.0 28 h 0.0"></path><path d="M 256.0 28 h 0.0"></path><text class="comment" x="153.0" y="33">CharWithAttrib.char.style.rb</text></g></g><path d="M 763.5 79 h 10"></path><path d="M 773.5 79 h 20 m 0 -10 v 20"></path></g></svg>