<svg class="railroad-diagram" height="101" viewBox="0 0 672.0 101" width="672.0" xmlns="http://www.w3.org/2000/svg" xmlns:xlink="http://www.w3.org/1999/xlink">
<g transform="translate(.5 .5)">
<style>/* <![CDATA[ */
    svg.railroad-diagram {
        background-color:hsl(30,20%,95%);
    }
    svg.railroad-diagram path {
        stroke-width: 2;
        stroke: black;
        fill: none;
    }
    svg.railroad-diagram text {
        font-size: 12px;
        text-anchor: middle;
        font-family: DejaVu Sans;
    }
    svg.railroad-diagram text.label {
        text-anchor:start;
    }
    svg.railroad-diagram text.comment {
        font-family: DejaVu Sans;
        font-size: 14px;
    }
    svg.railroad-diagram rect{
        stroke-width: 2;
        stroke:black;
        fill: rgb(210, 210, 255);
    }
    svg.railroad-diagram rect.group-box {
        stroke: gray;
        stroke-dasharray: 10 5;
        fill: none;
    }
    .terminal {
        font-family: DejaVu Sans;
    }

/* ]]> */
</style><g>
<path d="M 20 60 v 20 m 0 -10 h 20"></path></g><path d="M 40 70 h 10"></path><g>
<path d="M 50 70 h 0.0"></path><path d="M 622.0 70 h 0.0"></path><g class="terminal ">
<path d="M 50.0 70 h 0.0"></path><path d="M 112.5 70 h 0.0"></path><rect height="22" rx="10" ry="10" width="62.5" x="50.0" y="59"></rect><text x="81.25" y="74">&#60;ref></text></g><path d="M 112.5 70 h 10"></path><g>
<path d="M 122.5 70 h 0.0"></path><path d="M 622.0 70 h 0.0"></path><path d="M 122.5 70 a 10 10 0 0 0 10 -10 v -19 a 10 10 0 0 1 10 -10"></path><g>
<path d="M 142.5 31 h 0.0"></path><path d="M 602.0 31 h 0.0"></path><g class="terminal ">
<path d="M 142.5 31 h 0.0"></path><path d="M 205.0 31 h 0.0"></path><rect height="22" rx="10" ry="10" width="62.5" x="142.5" y="20"></rect><text x="173.75" y="35">@loc?</text></g><path d="M 205.0 31 h 10"></path><path d="M 215.0 31 h 10"></path><g class="terminal ">
<path d="M 225.0 31 h 0.0"></path><path d="M 602.0 31 h 0.0"></path><rect height="22" rx="10" ry="10" width="377.0" x="225.0" y="20"></rect><text x="413.5" y="35">/&#91;A-Z1-4&#93;{3}(-&#91;A-Z1-4&#93;{3})? ?&#91;a-z0-9\-:&#93;&#42;/</text></g></g><path d="M 122.5 70 h 20"></path><g>
<path d="M 142.5 70 h 142.25"></path><path d="M 459.75 70 h 142.25"></path><g>
<path d="M 284.75 70 h 0.0"></path><path d="M 378.75 70 h 0.0"></path><path d="M 284.75 70 a 10 10 0 0 0 10 -10 v 0 a 10 10 0 0 1 10 -10"></path><g>
<path d="M 304.75 50 h 54.0"></path></g><path d="M 358.75 50 a 10 10 0 0 1 10 10 v 0 a 10 10 0 0 0 10 10"></path><path d="M 284.75 70 h 20"></path><g class="terminal ">
<path d="M 304.75 70 h 0.0"></path><path d="M 358.75 70 h 0.0"></path><rect height="22" rx="10" ry="10" width="54.0" x="304.75" y="59"></rect><text x="331.75" y="74">text</text></g><path d="M 358.75 70 h 20"></path></g><path d="M 378.75 70 h 10"></path><g class="terminal ">
<path d="M 388.75 70 h 0.0"></path><path d="M 459.75 70 h 0.0"></path><rect height="22" rx="10" ry="10" width="71.0" x="388.75" y="59"></rect><text x="424.25" y="74">&#60;/ref></text></g></g><path d="M 602.0 70 h 20"></path></g></g><path d="M 622.0 70 h 10"></path><path d="M 632.0 70 h 20 m 0 -10 v 20"></path></g></svg>