<svg class="railroad-diagram" height="103" viewBox="0 0 947.0 103" width="947.0" xmlns="http://www.w3.org/2000/svg" xmlns:xlink="http://www.w3.org/1999/xlink">
<g transform="translate(.5 .5)">
<style>/* <![CDATA[ */
    svg.railroad-diagram {
        background-color:hsl(30,20%,95%);
    }
    svg.railroad-diagram path {
        stroke-width: 2;
        stroke: black;
        fill: none;
    }
    svg.railroad-diagram text {
        font-size: 12px;
        text-anchor: middle;
        font-family: DejaVu Sans;
    }
    svg.railroad-diagram text.label {
        text-anchor:start;
    }
    svg.railroad-diagram text.comment {
        font-family: DejaVu Sans;
        font-size: 14px;
    }
    svg.railroad-diagram rect{
        stroke-width: 2;
        stroke:black;
        fill: rgb(210, 255, 210);
    }
    svg.railroad-diagram rect.group-box {
        stroke: gray;
        stroke-dasharray: 10 5;
        fill: none;
    }
    .terminal {
        font-family: DejaVu Sans;
    }

/* ]]> */
</style><g>
<path d="M 20 54 v 20 m 0 -10 h 20"></path></g><path d="M 40 64 h 10"></path><g>
<path d="M 50 64 h 0.0"></path><path d="M 897.0 64 h 0.0"></path><rect class="group-box" height="47" rx="10" ry="10" width="847.0" x="50.0" y="36"></rect><g>
<path d="M 50.0 64 h 10.0"></path><path d="M 887.0 64 h 10.0"></path><g>
<path d="M 60.0 64 h 0.0"></path><path d="M 766.0 64 h 0.0"></path><g class="terminal ">
<path d="M 60.0 64 h 0.0"></path><path d="M 122.5 64 h 0.0"></path><rect height="22" rx="10" ry="10" width="62.5" x="60.0" y="53"></rect><text x="91.25" y="68">"\fr"</text></g><path d="M 122.5 64 h 10"></path><path d="M 132.5 64 h 10"></path><g class="terminal ">
<path d="M 142.5 64 h 0.0"></path><path d="M 179.5 64 h 0.0"></path><rect height="22" rx="10" ry="10" width="37.0" x="142.5" y="53"></rect><text x="161.0" y="68">WS</text></g><path d="M 179.5 64 h 10"></path><g>
<path d="M 189.5 64 h 0.0"></path><path d="M 283.5 64 h 0.0"></path><path d="M 189.5 64 a 10 10 0 0 0 10 -10 v 0 a 10 10 0 0 1 10 -10"></path><g>
<path d="M 209.5 44 h 54.0"></path></g><path d="M 263.5 44 a 10 10 0 0 1 10 10 v 0 a 10 10 0 0 0 10 10"></path><path d="M 189.5 64 h 20"></path><g class="terminal ">
<path d="M 209.5 64 h 0.0"></path><path d="M 263.5 64 h 0.0"></path><rect height="22" rx="10" ry="10" width="54.0" x="209.5" y="53"></rect><text x="236.5" y="68">Text</text></g><path d="M 263.5 64 h 20"></path></g><g>
<path d="M 283.5 64 h 0.0"></path><path d="M 766.0 64 h 0.0"></path><path d="M 283.5 64 a 10 10 0 0 0 10 -10 v 0 a 10 10 0 0 1 10 -10"></path><g>
<path d="M 303.5 44 h 442.5"></path></g><path d="M 746.0 44 a 10 10 0 0 1 10 10 v 0 a 10 10 0 0 0 10 10"></path><path d="M 283.5 64 h 20"></path><g>
<path d="M 303.5 64 h 0.0"></path><path d="M 746.0 64 h 0.0"></path><g class="terminal ">
<path d="M 303.5 64 h 0.0"></path><path d="M 349.0 64 h 0.0"></path><rect height="22" rx="10" ry="10" width="45.5" x="303.5" y="53"></rect><text x="326.25" y="68">"|"</text></g><path d="M 349.0 64 h 10"></path><path d="M 359.0 64 h 10"></path><g class="terminal ">
<path d="M 369.0 64 h 0.0"></path><path d="M 746.0 64 h 0.0"></path><rect height="22" rx="10" ry="10" width="377.0" x="369.0" y="53"></rect><text x="557.5" y="68">/&#91;A-Z1-4&#93;{3}(-&#91;A-Z1-4&#93;{3})? ?&#91;a-z0-9\-:&#93;&#42;/</text></g></g><path d="M 746.0 64 h 20"></path></g></g><path d="M 766.0 64 h 10"></path><g>
<path d="M 776.0 64 h 0.0"></path><path d="M 887.0 64 h 0.0"></path><path d="M 776.0 64 a 10 10 0 0 0 10 -10 v 0 a 10 10 0 0 1 10 -10"></path><g>
<path d="M 796.0 44 h 71.0"></path></g><path d="M 867.0 44 a 10 10 0 0 1 10 10 v 0 a 10 10 0 0 0 10 10"></path><path d="M 776.0 64 h 20"></path><g class="terminal ">
<path d="M 796.0 64 h 0.0"></path><path d="M 867.0 64 h 0.0"></path><rect height="22" rx="10" ry="10" width="71.0" x="796.0" y="53"></rect><text x="831.5" y="68">"\fr&#42;"</text></g><path d="M 867.0 64 h 20"></path></g></g><g class="non-terminal ">
<path d="M 50.0 28 h 0.0"></path><path d="M 179.0 28 h 0.0"></path><text class="comment" x="114.5" y="33">FootnoteReference</text></g></g><path d="M 897.0 64 h 10"></path><path d="M 907.0 64 h 20 m 0 -10 v 20"></path></g></svg>