<svg class="railroad-diagram" height="114" viewBox="0 0 844.0 114" width="844.0" xmlns="http://www.w3.org/2000/svg" xmlns:xlink="http://www.w3.org/1999/xlink">
<g transform="translate(.5 .5)">
<style>/* <![CDATA[ */
    svg.railroad-diagram {
        background-color:hsl(30,20%,95%);
    }
    svg.railroad-diagram path {
        stroke-width: 2;
        stroke: black;
        fill: none;
    }
    svg.railroad-diagram text {
        font-size: 12px;
        text-anchor: middle;
        font-family: DejaVu Sans;
    }
    svg.railroad-diagram text.label {
        text-anchor:start;
    }
    svg.railroad-diagram text.comment {
        font-family: DejaVu Sans;
        font-size: 14px;
    }
    svg.railroad-diagram rect{
        stroke-width: 2;
        stroke:black;
        fill: rgb(210, 255, 210);
    }
    svg.railroad-diagram rect.group-box {
        stroke: gray;
        stroke-dasharray: 10 5;
        fill: none;
    }
    .terminal {
        font-family: DejaVu Sans;
    }

/* ]]> */
</style><g>
<path d="M 20 45 v 20 m 0 -10 h 20"></path></g><path d="M 40 55 h 10"></path><g>
<path d="M 50 55 h 0.0"></path><path d="M 794.0 55 h 0.0"></path><rect class="group-box" height="58" rx="10" ry="10" width="744.0" x="50.0" y="36"></rect><g>
<path d="M 50.0 55 h 10.0"></path><path d="M 784.0 55 h 10.0"></path><g class="terminal ">
<path d="M 60.0 55 h 0.0"></path><path d="M 110.0 55 h 0.0"></path><rect height="22" rx="10" ry="10" width="50.0" x="60.0" y="44"></rect><text x="85.0" y="59">"\fr"</text></g><path d="M 110.0 55 h 10"></path><g>
<path d="M 120.0 55 h 0.0"></path><path d="M 256.0 55 h 0.0"></path><path d="M 120.0 55 h 20"></path><g>
<path d="M 140.0 55 h 96.0"></path></g><path d="M 236.0 55 h 20"></path><path d="M 120.0 55 a 10 10 0 0 1 10 10 v 0 a 10 10 0 0 0 10 10"></path><g>
<path d="M 140.0 75 h 0.0"></path><path d="M 236.0 75 h 0.0"></path><g class="terminal ">
<path d="M 140.0 75 h 0.0"></path><path d="M 172.0 75 h 0.0"></path><rect height="22" rx="10" ry="10" width="32.0" x="140.0" y="64"></rect><text x="156.0" y="79">WS</text></g><path d="M 172.0 75 h 10"></path><path d="M 182.0 75 h 10"></path><g class="terminal ">
<path d="M 192.0 75 h 0.0"></path><path d="M 236.0 75 h 0.0"></path><rect height="22" rx="10" ry="10" width="44.0" x="192.0" y="64"></rect><text x="214.0" y="79">Text</text></g></g><path d="M 236.0 75 a 10 10 0 0 0 10 -10 v 0 a 10 10 0 0 1 10 -10"></path></g><path d="M 256.0 55 h 10"></path><g>
<path d="M 266.0 55 h 0.0"></path><path d="M 784.0 55 h 0.0"></path><g>
<path d="M 266.0 55 h 0.0"></path><path d="M 338.0 55 h 0.0"></path><path d="M 266.0 55 h 20"></path><g>
<path d="M 286.0 55 h 32.0"></path></g><path d="M 318.0 55 h 20"></path><path d="M 266.0 55 a 10 10 0 0 1 10 10 v 0 a 10 10 0 0 0 10 10"></path><g class="terminal ">
<path d="M 286.0 75 h 0.0"></path><path d="M 318.0 75 h 0.0"></path><rect height="22" rx="10" ry="10" width="32.0" x="286.0" y="64"></rect><text x="302.0" y="79">WS</text></g><path d="M 318.0 75 a 10 10 0 0 0 10 -10 v 0 a 10 10 0 0 1 10 -10"></path></g><path d="M 338.0 55 h 10"></path><g class="terminal ">
<path d="M 348.0 55 h 0.0"></path><path d="M 386.0 55 h 0.0"></path><rect height="22" rx="10" ry="10" width="38.0" x="348.0" y="44"></rect><text x="367.0" y="59">"|"</text></g><path d="M 386.0 55 h 10"></path><path d="M 396.0 55 h 10"></path><g class="terminal ">
<path d="M 406.0 55 h 0.0"></path><path d="M 678.0 55 h 0.0"></path><rect height="22" rx="10" ry="10" width="272.0" x="406.0" y="44"></rect><text x="542.0" y="59">/&#91;A-Z1-4&#93;{3}(-&#91;A-Z1-4&#93;{3})? ?&#91;a-z0-9\-:&#93;&#42;/</text></g><path d="M 678.0 55 h 10"></path><g>
<path d="M 688.0 55 h 0.0"></path><path d="M 784.0 55 h 0.0"></path><path d="M 688.0 55 h 20"></path><g>
<path d="M 708.0 55 h 56.0"></path></g><path d="M 764.0 55 h 20"></path><path d="M 688.0 55 a 10 10 0 0 1 10 10 v 0 a 10 10 0 0 0 10 10"></path><g class="terminal ">
<path d="M 708.0 75 h 0.0"></path><path d="M 764.0 75 h 0.0"></path><rect height="22" rx="10" ry="10" width="56.0" x="708.0" y="64"></rect><text x="736.0" y="79">"\fr&#42;"</text></g><path d="M 764.0 75 a 10 10 0 0 0 10 -10 v 0 a 10 10 0 0 1 10 -10"></path></g></g></g><g class="non-terminal ">
<path d="M 50.0 28 h 0.0"></path><path d="M 179.0 28 h 0.0"></path><text class="comment" x="114.5" y="33">FootnoteReference</text></g></g><path d="M 794.0 55 h 10"></path><path d="M 804.0 55 h 20 m 0 -10 v 20"></path></g></svg>