<svg class="railroad-diagram" height="134" viewBox="0 0 1166.0 134" width="1166.0" xmlns="http://www.w3.org/2000/svg" xmlns:xlink="http://www.w3.org/1999/xlink">
<g transform="translate(.5 .5)">
<style>/* <![CDATA[ */
    svg.railroad-diagram {
        background-color:hsl(30,20%,95%);
    }
    svg.railroad-diagram path {
        stroke-width: 2;
        stroke: black;
        fill: none;
    }
    svg.railroad-diagram text {
        font-size: 12px;
        text-anchor: middle;
        font-family: DejaVu Sans;
    }
    svg.railroad-diagram text.label {
        text-anchor:start;
    }
    svg.railroad-diagram text.comment {
        font-family: DejaVu Sans;
        font-size: 14px;
    }
    svg.railroad-diagram rect{
        stroke-width: 2;
        stroke:black;
        fill: rgb(210, 255, 210);
    }
    svg.railroad-diagram rect.group-box {
        stroke: gray;
        stroke-dasharray: 10 5;
        fill: none;
    }
    .terminal {
        font-family: DejaVu Sans;
    }

/* ]]> */
</style><g>
<path d="M 20 45 v 20 m 0 -10 h 20"></path></g><path d="M 40 55 h 10"></path><g>
<path d="M 50 55 h 0.0"></path><path d="M 1116.0 55 h 0.0"></path><rect class="group-box" height="78" rx="10" ry="10" width="1066.0" x="50.0" y="36"></rect><g>
<path d="M 50.0 55 h 10.0"></path><path d="M 1106.0 55 h 10.0"></path><g>
<path d="M 60.0 55 h 0.0"></path><path d="M 900.0 55 h 0.0"></path><path d="M 60.0 55 h 20"></path><g>
<path d="M 80.0 55 h 800.0"></path></g><path d="M 880.0 55 h 20"></path><path d="M 60.0 55 a 10 10 0 0 1 10 10 v 0 a 10 10 0 0 0 10 10"></path><g>
<path d="M 80.0 75 h 0.0"></path><path d="M 880.0 75 h 0.0"></path><g>
<path d="M 80.0 75 h 0.0"></path><path d="M 152.0 75 h 0.0"></path><path d="M 80.0 75 h 20"></path><g>
<path d="M 100.0 75 h 32.0"></path></g><path d="M 132.0 75 h 20"></path><path d="M 80.0 75 a 10 10 0 0 1 10 10 v 0 a 10 10 0 0 0 10 10"></path><g class="terminal ">
<path d="M 100.0 95 h 0.0"></path><path d="M 132.0 95 h 0.0"></path><rect height="22" rx="10" ry="10" width="32.0" x="100.0" y="84"></rect><text x="116.0" y="99">WS</text></g><path d="M 132.0 95 a 10 10 0 0 0 10 -10 v 0 a 10 10 0 0 1 10 -10"></path></g><path d="M 152.0 75 h 10"></path><g class="terminal ">
<path d="M 162.0 75 h 0.0"></path><path d="M 200.0 75 h 0.0"></path><rect height="22" rx="10" ry="10" width="38.0" x="162.0" y="64"></rect><text x="181.0" y="79">"|"</text></g><path d="M 200.0 75 h 10"></path><path d="M 210.0 75 h 10"></path><g class="terminal ">
<path d="M 220.0 75 h 0.0"></path><path d="M 492.0 75 h 0.0"></path><rect height="22" rx="10" ry="10" width="272.0" x="220.0" y="64"></rect><text x="356.0" y="79">/&#91;A-Z1-4&#93;{3}(-&#91;A-Z1-4&#93;{3})? ?&#91;a-z0-9\-:&#93;&#42;/</text></g><path d="M 492.0 75 h 10"></path><g>
<path d="M 502.0 75 h 0.0"></path><path d="M 598.0 75 h 0.0"></path><path d="M 502.0 75 h 20"></path><g>
<path d="M 522.0 75 h 56.0"></path></g><path d="M 578.0 75 h 20"></path><path d="M 502.0 75 a 10 10 0 0 1 10 10 v 0 a 10 10 0 0 0 10 10"></path><g class="terminal ">
<path d="M 522.0 95 h 0.0"></path><path d="M 578.0 95 h 0.0"></path><rect height="22" rx="10" ry="10" width="56.0" x="522.0" y="84"></rect><text x="550.0" y="99">"\fr&#42;"</text></g><path d="M 578.0 95 a 10 10 0 0 0 10 -10 v 0 a 10 10 0 0 1 10 -10"></path></g><path d="M 598.0 75 h 10"></path><g class="terminal ">
<path d="M 608.0 75 h 0.0"></path><path d="M 880.0 75 h 0.0"></path><rect height="22" rx="10" ry="10" width="272.0" x="608.0" y="64"></rect><text x="744.0" y="79">/&#91;A-Z1-4&#93;{3}(-&#91;A-Z1-4&#93;{3})? ?&#91;a-z0-9\-:&#93;&#42;/</text></g></g><path d="M 880.0 75 a 10 10 0 0 0 10 -10 v 0 a 10 10 0 0 1 10 -10"></path></g><path d="M 900.0 55 h 10"></path><g class="terminal ">
<path d="M 910.0 55 h 0.0"></path><path d="M 960.0 55 h 0.0"></path><rect height="22" rx="10" ry="10" width="50.0" x="910.0" y="44"></rect><text x="935.0" y="59">"\fr"</text></g><path d="M 960.0 55 h 10"></path><g>
<path d="M 970.0 55 h 0.0"></path><path d="M 1106.0 55 h 0.0"></path><path d="M 970.0 55 h 20"></path><g>
<path d="M 990.0 55 h 96.0"></path></g><path d="M 1086.0 55 h 20"></path><path d="M 970.0 55 a 10 10 0 0 1 10 10 v 0 a 10 10 0 0 0 10 10"></path><g>
<path d="M 990.0 75 h 0.0"></path><path d="M 1086.0 75 h 0.0"></path><g class="terminal ">
<path d="M 990.0 75 h 0.0"></path><path d="M 1022.0 75 h 0.0"></path><rect height="22" rx="10" ry="10" width="32.0" x="990.0" y="64"></rect><text x="1006.0" y="79">WS</text></g><path d="M 1022.0 75 h 10"></path><path d="M 1032.0 75 h 10"></path><g class="terminal ">
<path d="M 1042.0 75 h 0.0"></path><path d="M 1086.0 75 h 0.0"></path><rect height="22" rx="10" ry="10" width="44.0" x="1042.0" y="64"></rect><text x="1064.0" y="79">Text</text></g></g><path d="M 1086.0 75 a 10 10 0 0 0 10 -10 v 0 a 10 10 0 0 1 10 -10"></path></g></g><g class="non-terminal ">
<path d="M 50.0 28 h 0.0"></path><path d="M 179.0 28 h 0.0"></path><text class="comment" x="114.5" y="33">FootnoteReference</text></g></g><path d="M 1116.0 55 h 10"></path><path d="M 1126.0 55 h 20 m 0 -10 v 20"></path></g></svg>