<svg class="railroad-diagram" height="112" viewBox="0 0 1067.5 112" width="1067.5" xmlns="http://www.w3.org/2000/svg" xmlns:xlink="http://www.w3.org/1999/xlink">
<g transform="translate(.5 .5)">
<style>/* <![CDATA[ */

    svg.railroad-diagram {
        background-color: hsl(30,20%,95%);
    }
    svg.railroad-diagram path {
        stroke-width: 2;
        stroke: black;
        fill: none;
    }
    svg.railroad-diagram text {
        font-size: 12px;
        text-anchor: middle;
        font-family: DejaVu Sans;
    }
    svg.railroad-diagram text.label {
        text-anchor:start;
    }
    svg.railroad-diagram text.comment {
        font-family: DejaVu Sans;
        font-size: 14px;
    }
    svg.railroad-diagram rect{
        stroke-width: 2;
        stroke: black;
        fill: rgb(210, 255, 210);
    }
    svg.railroad-diagram rect.group-box {
        stroke: gray;
        stroke-dasharray: 10 5;
        fill: none;
    }
    .terminal {
        font-family: DejaVu Sans;
    }
    svg.railroad-diagram g.altterminal rect {
        fill: rgb(251, 252, 207)
    }

/* ]]> */
</style><g>
<path d="M 20 31 v 20 m 0 -10 h 20"></path></g><path d="M 40 41 h 10"></path><g>
<path d="M 50 41 h 0.0"></path><path d="M 1017.5 41 h 0.0"></path><g class="terminal ">
<path d="M 50.0 41 h 0.0"></path><path d="M 104.0 41 h 0.0"></path><rect height="22" rx="10" ry="10" width="54.0" x="50.0" y="30"></rect><text x="77.0" y="45">'\\'</text></g><path d="M 104.0 41 h 10"></path><path d="M 114.0 41 h 10"></path><g class="terminal ">
<path d="M 124.0 41 h 0.0"></path><path d="M 186.5 41 h 0.0"></path><rect height="22" rx="10" ry="10" width="62.5" x="124.0" y="30"></rect><text x="155.25" y="45">'ref'</text></g><path d="M 186.5 41 h 10"></path><path d="M 196.5 41 h 10"></path><g>
<path d="M 206.5 41 h 0.0"></path><path d="M 317.5 41 h 0.0"></path><path d="M 206.5 41 h 20"></path><g class="terminal ">
<path d="M 226.5 41 h 12.75"></path><path d="M 284.75 41 h 12.75"></path><rect height="22" rx="10" ry="10" width="45.5" x="239.25" y="30"></rect><text x="262.0" y="45">' '</text></g><path d="M 297.5 41 h 20"></path><path d="M 206.5 41 a 10 10 0 0 1 10 10 v 10 a 10 10 0 0 0 10 10"></path><g class="terminal altterminal">
<path d="M 226.5 71 h 0.0"></path><path d="M 297.5 71 h 0.0"></path><rect height="22" rx="10" ry="10" width="71.0" x="226.5" y="60"></rect><text x="262.0" y="75">TAGEND</text></g><path d="M 297.5 71 a 10 10 0 0 0 10 -10 v -10 a 10 10 0 0 1 10 -10"></path></g><path d="M 317.5 41 h 10"></path><path d="M 327.5 41 h 10"></path><g>
<path d="M 337.5 41 h 0.0"></path><path d="M 531.0 41 h 0.0"></path><path d="M 337.5 41 h 20"></path><g>
<path d="M 357.5 41 h 153.5"></path></g><path d="M 511.0 41 h 20"></path><path d="M 337.5 41 a 10 10 0 0 1 10 10 v 0 a 10 10 0 0 0 10 10"></path><g>
<path d="M 357.5 61 h 0.0"></path><path d="M 511.0 61 h 0.0"></path><g class="terminal ">
<path d="M 357.5 61 h 0.0"></path><path d="M 411.5 61 h 0.0"></path><rect height="22" rx="10" ry="10" width="54.0" x="357.5" y="50"></rect><text x="384.5" y="65">TEXT</text></g><path d="M 411.5 61 h 10"></path><path d="M 421.5 61 h 10"></path><g class="terminal ">
<path d="M 431.5 61 h 0.0"></path><path d="M 511.0 61 h 0.0"></path><rect height="22" rx="10" ry="10" width="79.5" x="431.5" y="50"></rect><text x="471.25" y="65">TEXTEND</text></g></g><path d="M 511.0 61 a 10 10 0 0 0 10 -10 v 0 a 10 10 0 0 1 10 -10"></path></g><path d="M 531.0 41 h 10"></path><path d="M 541.0 41 h 10"></path><g>
<path d="M 551.0 41 h 0.0"></path><path d="M 645.0 41 h 0.0"></path><path d="M 551.0 41 h 20"></path><g class="terminal ">
<path d="M 571.0 41 h 4.25"></path><path d="M 620.75 41 h 4.25"></path><rect height="22" rx="10" ry="10" width="45.5" x="575.25" y="30"></rect><text x="598.0" y="45">'|'</text></g><path d="M 625.0 41 h 20"></path><path d="M 551.0 41 a 10 10 0 0 1 10 10 v 10 a 10 10 0 0 0 10 10"></path><g class="terminal altterminal">
<path d="M 571.0 71 h 0.0"></path><path d="M 625.0 71 h 0.0"></path><rect height="22" rx="10" ry="10" width="54.0" x="571.0" y="60"></rect><text x="598.0" y="75">PIPE</text></g><path d="M 625.0 71 a 10 10 0 0 0 10 -10 v -10 a 10 10 0 0 1 10 -10"></path></g><path d="M 645.0 41 h 10"></path><path d="M 655.0 41 h 10"></path><g class="terminal ">
<path d="M 665.0 41 h 0.0"></path><path d="M 795.5 41 h 0.0"></path><rect height="22" rx="10" ry="10" width="130.5" x="665.0" y="30"></rect><text x="730.25" y="45">TEXTNOTATTRIB</text></g><path d="M 795.5 41 h 10"></path><path d="M 805.5 41 h 10"></path><g class="terminal ">
<path d="M 815.5 41 h 0.0"></path><path d="M 869.5 41 h 0.0"></path><rect height="22" rx="10" ry="10" width="54.0" x="815.5" y="30"></rect><text x="842.5" y="45">'\\'</text></g><path d="M 869.5 41 h 10"></path><path d="M 879.5 41 h 10"></path><g class="terminal ">
<path d="M 889.5 41 h 0.0"></path><path d="M 952.0 41 h 0.0"></path><rect height="22" rx="10" ry="10" width="62.5" x="889.5" y="30"></rect><text x="920.75" y="45">'ref'</text></g><path d="M 952.0 41 h 10"></path><path d="M 962.0 41 h 10"></path><g class="terminal ">
<path d="M 972.0 41 h 0.0"></path><path d="M 1017.5 41 h 0.0"></path><rect height="22" rx="10" ry="10" width="45.5" x="972.0" y="30"></rect><text x="994.75" y="45">'&#42;'</text></g></g><path d="M 1017.5 41 h 10"></path><path d="M 1027.5 41 h 20 m 0 -10 v 20"></path></g></svg>