<svg class="railroad-diagram" height="151" viewBox="0 0 1425.5 151" width="1425.5" xmlns="http://www.w3.org/2000/svg" xmlns:xlink="http://www.w3.org/1999/xlink">
<g transform="translate(.5 .5)">
<style>/* <![CDATA[ */

    svg.railroad-diagram {
        background-color: hsl(30,20%,95%);
    }
    svg.railroad-diagram path {
        stroke-width: 2;
        stroke: black;
        fill: none;
    }
    svg.railroad-diagram text {
        font-size: 12px;
        text-anchor: middle;
        font-family: DejaVu Sans;
    }
    svg.railroad-diagram text.label {
        text-anchor:start;
    }
    svg.railroad-diagram text.comment {
        font-family: DejaVu Sans;
        font-size: 14px;
    }
    svg.railroad-diagram rect{
        stroke-width: 2;
        stroke: black;
        fill: rgb(210, 255, 210);
    }
    svg.railroad-diagram rect.group-box {
        stroke: gray;
        stroke-dasharray: 10 5;
        fill: none;
    }
    .terminal {
        font-family: DejaVu Sans;
    }
    svg.railroad-diagram g.altterminal rect {
        fill: rgb(251, 252, 207)
    }

/* ]]> */
</style><g>
<path d="M 20 31 v 20 m 0 -10 h 20"></path></g><path d="M 40 41 h 10"></path><g>
<path d="M 50 41 h 0.0"></path><path d="M 1375.5 41 h 0.0"></path><g class="terminal ">
<path d="M 50.0 41 h 0.0"></path><path d="M 104.0 41 h 0.0"></path><rect height="22" rx="10" ry="10" width="54.0" x="50.0" y="30"></rect><text x="77.0" y="45">'\\'</text></g><path d="M 104.0 41 h 10"></path><path d="M 114.0 41 h 10"></path><g class="terminal ">
<path d="M 124.0 41 h 0.0"></path><path d="M 186.5 41 h 0.0"></path><rect height="22" rx="10" ry="10" width="62.5" x="124.0" y="30"></rect><text x="155.25" y="45">'ref'</text></g><path d="M 186.5 41 h 10"></path><path d="M 196.5 41 h 10"></path><g>
<path d="M 206.5 41 h 0.0"></path><path d="M 317.5 41 h 0.0"></path><path d="M 206.5 41 h 20"></path><g class="terminal ">
<path d="M 226.5 41 h 12.75"></path><path d="M 284.75 41 h 12.75"></path><rect height="22" rx="10" ry="10" width="45.5" x="239.25" y="30"></rect><text x="262.0" y="45">' '</text></g><path d="M 297.5 41 h 20"></path><path d="M 206.5 41 a 10 10 0 0 1 10 10 v 10 a 10 10 0 0 0 10 10"></path><g class="terminal altterminal">
<path d="M 226.5 71 h 0.0"></path><path d="M 297.5 71 h 0.0"></path><rect height="22" rx="10" ry="10" width="71.0" x="226.5" y="60"></rect><text x="262.0" y="75">TAGEND</text></g><path d="M 297.5 71 a 10 10 0 0 0 10 -10 v -10 a 10 10 0 0 1 10 -10"></path></g><path d="M 317.5 41 h 10"></path><path d="M 327.5 41 h 10"></path><g>
<path d="M 337.5 41 h 0.0"></path><path d="M 658.5 41 h 0.0"></path><path d="M 337.5 41 h 20"></path><g>
<path d="M 357.5 41 h 281.0"></path></g><path d="M 638.5 41 h 20"></path><path d="M 337.5 41 a 10 10 0 0 1 10 10 v 0 a 10 10 0 0 0 10 10"></path><g>
<path d="M 357.5 61 h 0.0"></path><path d="M 638.5 61 h 0.0"></path><g class="terminal ">
<path d="M 357.5 61 h 0.0"></path><path d="M 488.0 61 h 0.0"></path><rect height="22" rx="10" ry="10" width="130.5" x="357.5" y="50"></rect><text x="422.75" y="65">TEXTNOTATTRIB</text></g><path d="M 488.0 61 h 10"></path><path d="M 498.0 61 h 10"></path><g class="terminal ">
<path d="M 508.0 61 h 0.0"></path><path d="M 638.5 61 h 0.0"></path><rect height="22" rx="10" ry="10" width="130.5" x="508.0" y="50"></rect><text x="573.25" y="65">ATTRIBTEXTEND</text></g></g><path d="M 638.5 61 a 10 10 0 0 0 10 -10 v 0 a 10 10 0 0 1 10 -10"></path></g><path d="M 658.5 41 h 10"></path><path d="M 668.5 41 h 10"></path><g>
<path d="M 678.5 41 h 0.0"></path><path d="M 963.0 41 h 0.0"></path><path d="M 678.5 41 h 20"></path><g>
<path d="M 698.5 41 h 244.5"></path></g><path d="M 943.0 41 h 20"></path><path d="M 678.5 41 a 10 10 0 0 1 10 10 v 9 a 10 10 0 0 0 10 10"></path><g>
<path d="M 698.5 70 h 0.0"></path><path d="M 943.0 70 h 0.0"></path><g>
<path d="M 698.5 70 h 0.0"></path><path d="M 792.5 70 h 0.0"></path><path d="M 698.5 70 h 20"></path><g class="terminal ">
<path d="M 718.5 70 h 4.25"></path><path d="M 768.25 70 h 4.25"></path><rect height="22" rx="10" ry="10" width="45.5" x="722.75" y="59"></rect><text x="745.5" y="74">'|'</text></g><path d="M 772.5 70 h 20"></path><path d="M 698.5 70 a 10 10 0 0 1 10 10 v 10 a 10 10 0 0 0 10 10"></path><g class="terminal altterminal">
<path d="M 718.5 100 h 0.0"></path><path d="M 772.5 100 h 0.0"></path><rect height="22" rx="10" ry="10" width="54.0" x="718.5" y="89"></rect><text x="745.5" y="104">PIPE</text></g><path d="M 772.5 100 a 10 10 0 0 0 10 -10 v -10 a 10 10 0 0 1 10 -10"></path></g><path d="M 792.5 70 h 10"></path><path d="M 802.5 70 h 10"></path><g class="terminal ">
<path d="M 812.5 70 h 0.0"></path><path d="M 943.0 70 h 0.0"></path><rect height="22" rx="10" ry="10" width="130.5" x="812.5" y="59"></rect><text x="877.75" y="74">TEXTNOTATTRIB</text></g></g><path d="M 943.0 70 a 10 10 0 0 0 10 -10 v -9 a 10 10 0 0 1 10 -10"></path></g><path d="M 963.0 41 h 10"></path><path d="M 973.0 41 h 10"></path><g>
<path d="M 983.0 41 h 0.0"></path><path d="M 1153.5 41 h 0.0"></path><path d="M 983.0 41 h 20"></path><g>
<path d="M 1003.0 41 h 130.5"></path></g><path d="M 1133.5 41 h 20"></path><path d="M 983.0 41 a 10 10 0 0 1 10 10 v 0 a 10 10 0 0 0 10 10"></path><g>
<path d="M 1003.0 61 h 0.0"></path><path d="M 1133.5 61 h 0.0"></path><g class="terminal ">
<path d="M 1003.0 61 h 0.0"></path><path d="M 1133.5 61 h 0.0"></path><rect height="22" rx="10" ry="10" width="130.5" x="1003.0" y="50"></rect><text x="1068.25" y="65">TEXTNOTATTRIB</text></g></g><path d="M 1133.5 61 a 10 10 0 0 0 10 -10 v 0 a 10 10 0 0 1 10 -10"></path></g><path d="M 1153.5 41 h 10"></path><path d="M 1163.5 41 h 10"></path><g class="terminal ">
<path d="M 1173.5 41 h 0.0"></path><path d="M 1227.5 41 h 0.0"></path><rect height="22" rx="10" ry="10" width="54.0" x="1173.5" y="30"></rect><text x="1200.5" y="45">'\\'</text></g><path d="M 1227.5 41 h 10"></path><path d="M 1237.5 41 h 10"></path><g class="terminal ">
<path d="M 1247.5 41 h 0.0"></path><path d="M 1310.0 41 h 0.0"></path><rect height="22" rx="10" ry="10" width="62.5" x="1247.5" y="30"></rect><text x="1278.75" y="45">'ref'</text></g><path d="M 1310.0 41 h 10"></path><path d="M 1320.0 41 h 10"></path><g class="terminal ">
<path d="M 1330.0 41 h 0.0"></path><path d="M 1375.5 41 h 0.0"></path><rect height="22" rx="10" ry="10" width="45.5" x="1330.0" y="30"></rect><text x="1352.75" y="45">'&#42;'</text></g></g><path d="M 1375.5 41 h 10"></path><path d="M 1385.5 41 h 20 m 0 -10 v 20"></path></g></svg>