<svg class="railroad-diagram" height="114" viewBox="0 0 360.5 114" width="360.5" xmlns="http://www.w3.org/2000/svg" xmlns:xlink="http://www.w3.org/1999/xlink">
<g transform="translate(.5 .5)">
<style>/* <![CDATA[ */
    svg.railroad-diagram {
        background-color:hsl(30,20%,95%);
    }
    svg.railroad-diagram path {
        stroke-width: 2;
        stroke: black;
        fill: none;
    }
    svg.railroad-diagram text {
        font-size: 12px;
        text-anchor: middle;
        font-family: DejaVu Sans;
    }
    svg.railroad-diagram text.label {
        text-anchor:start;
    }
    svg.railroad-diagram text.comment {
        font-family: DejaVu Sans;
        font-size: 14px;
    }
    svg.railroad-diagram rect{
        stroke-width: 2;
        stroke:black;
        fill: rgb(210, 255, 210);
    }
    svg.railroad-diagram rect.group-box {
        stroke: gray;
        stroke-dasharray: 10 5;
        fill: none;
    }
    .terminal {
        font-family: DejaVu Sans;
    }

/* ]]> */
</style><g>
<path d="M 20 45 v 20 m 0 -10 h 20"></path></g><path d="M 40 55 h 10"></path><g>
<path d="M 50 55 h 0.0"></path><path d="M 310.5 55 h 0.0"></path><rect class="group-box" height="58" rx="10" ry="10" width="260.5" x="50.0" y="36"></rect><g>
<path d="M 50.0 55 h 10.0"></path><path d="M 300.5 55 h 10.0"></path><g>
<path d="M 60.0 55 h 0.0"></path><path d="M 179.5 55 h 0.0"></path><g class="terminal ">
<path d="M 60.0 55 h 0.0"></path><path d="M 122.5 55 h 0.0"></path><rect height="22" rx="10" ry="10" width="62.5" x="60.0" y="44"></rect><text x="91.25" y="59">"\fr"</text></g><path d="M 122.5 55 h 10"></path><path d="M 132.5 55 h 10"></path><g class="terminal ">
<path d="M 142.5 55 h 0.0"></path><path d="M 179.5 55 h 0.0"></path><rect height="22" rx="10" ry="10" width="37.0" x="142.5" y="44"></rect><text x="161.0" y="59">WS</text></g></g><path d="M 179.5 55 h 10"></path><g>
<path d="M 189.5 55 h 0.0"></path><path d="M 300.5 55 h 0.0"></path><path d="M 189.5 55 h 20"></path><g>
<path d="M 209.5 55 h 71.0"></path></g><path d="M 280.5 55 h 20"></path><path d="M 189.5 55 a 10 10 0 0 1 10 10 v 0 a 10 10 0 0 0 10 10"></path><g class="terminal ">
<path d="M 209.5 75 h 0.0"></path><path d="M 280.5 75 h 0.0"></path><rect height="22" rx="10" ry="10" width="71.0" x="209.5" y="64"></rect><text x="245.0" y="79">"\fr&#42;"</text></g><path d="M 280.5 75 a 10 10 0 0 0 10 -10 v 0 a 10 10 0 0 1 10 -10"></path></g></g><g class="non-terminal ">
<path d="M 50.0 28 h 0.0"></path><path d="M 179.0 28 h 0.0"></path><text class="comment" x="114.5" y="33">FootnoteReference</text></g></g><path d="M 310.5 55 h 10"></path><path d="M 320.5 55 h 20 m 0 -10 v 20"></path></g></svg>