<svg class="railroad-diagram" height="364" viewBox="0 0 1716.0 364" width="1716.0" xmlns="http://www.w3.org/2000/svg" xmlns:xlink="http://www.w3.org/1999/xlink">
<g transform="translate(.5 .5)">
<style>/* <![CDATA[ */

    svg.railroad-diagram {
        background-color: hsl(30,20%,95%);
    }
    svg.railroad-diagram path {
        stroke-width: 2;
        stroke: black;
        fill: none;
    }
    svg.railroad-diagram text {
        font-size: 12px;
        text-anchor: middle;
        font-family: DejaVu Sans;
    }
    svg.railroad-diagram text.label {
        text-anchor:start;
    }
    svg.railroad-diagram text.comment {
        font-family: DejaVu Sans;
        font-size: 14px;
    }
    svg.railroad-diagram rect{
        stroke-width: 2;
        stroke: black;
        fill: rgb(210, 255, 210);
    }
    svg.railroad-diagram rect.group-box {
        stroke: gray;
        stroke-dasharray: 10 5;
        fill: none;
    }
    .terminal {
        font-family: DejaVu Sans;
    }
    svg.railroad-diagram g.altterminal rect {
        fill: rgb(251, 252, 207)
    }

/* ]]> */
</style><g>
<path d="M 20 59 v 20 m 0 -10 h 20"></path></g><path d="M 40 69 h 10"></path><g>
<path d="M 50 69 h 0.0"></path><path d="M 1666.0 69 h 0.0"></path><g>
<path d="M 50.0 69 h 0.0"></path><path d="M 1666.0 69 h 0.0"></path><path d="M 50.0 69 h 10"></path><g>
<path d="M 60.0 69 h 0.0"></path><path d="M 1656.0 69 h 0.0"></path><g>
<path d="M 60.0 69 h 0.0"></path><path d="M 196.5 69 h 0.0"></path><path d="M 60.0 69 h 20"></path><g class="terminal ">
<path d="M 80.0 69 h 12.75"></path><path d="M 163.75 69 h 12.75"></path><rect height="22" rx="10" ry="10" width="71.0" x="92.75" y="58"></rect><text x="128.25" y="73">'\n\\'</text></g><path d="M 176.5 69 h 20"></path><path d="M 60.0 69 a 10 10 0 0 1 10 10 v 10 a 10 10 0 0 0 10 10"></path><g class="terminal altterminal">
<path d="M 80.0 99 h 0.0"></path><path d="M 176.5 99 h 0.0"></path><rect height="22" rx="10" ry="10" width="96.5" x="80.0" y="88"></rect><text x="128.25" y="103">/${Ws}\\/</text></g><path d="M 176.5 99 a 10 10 0 0 0 10 -10 v -10 a 10 10 0 0 1 10 -10"></path></g><path d="M 196.5 69 h 10"></path><path d="M 206.5 69 h 10"></path><g class="terminal ">
<path d="M 216.5 69 h 0.0"></path><path d="M 270.5 69 h 0.0"></path><rect height="22" rx="10" ry="10" width="54.0" x="216.5" y="58"></rect><text x="243.5" y="73">"tr"</text></g><path d="M 270.5 69 h 10"></path><path d="M 280.5 69 h 10"></path><g>
<path d="M 290.5 69 h 0.0"></path><path d="M 401.5 69 h 0.0"></path><path d="M 290.5 69 h 20"></path><g class="terminal ">
<path d="M 310.5 69 h 12.75"></path><path d="M 368.75 69 h 12.75"></path><rect height="22" rx="10" ry="10" width="45.5" x="323.25" y="58"></rect><text x="346.0" y="73">' '</text></g><path d="M 381.5 69 h 20"></path><path d="M 290.5 69 a 10 10 0 0 1 10 10 v 10 a 10 10 0 0 0 10 10"></path><g class="terminal altterminal">
<path d="M 310.5 99 h 0.0"></path><path d="M 381.5 99 h 0.0"></path><rect height="22" rx="10" ry="10" width="71.0" x="310.5" y="88"></rect><text x="346.0" y="103">TAGEND</text></g><path d="M 381.5 99 a 10 10 0 0 0 10 -10 v -10 a 10 10 0 0 1 10 -10"></path></g><path d="M 401.5 69 h 10"></path><path d="M 411.5 69 h 10"></path><g>
<path d="M 421.5 69 h 0.0"></path><path d="M 617.5 69 h 0.0"></path><path d="M 421.5 69 h 20"></path><g>
<path d="M 441.5 69 h 156.0"></path></g><path d="M 597.5 69 h 20"></path><path d="M 421.5 69 a 10 10 0 0 1 10 10 v 0 a 10 10 0 0 0 10 10"></path><g class="non-terminal ">
<path d="M 441.5 89 h 0.0"></path><path d="M 597.5 89 h 0.0"></path><rect height="22" width="156.0" x="441.5" y="78"></rect><text x="519.5" y="93">AttributesPreAll</text></g><path d="M 597.5 89 a 10 10 0 0 0 10 -10 v 0 a 10 10 0 0 1 10 -10"></path></g><path d="M 617.5 69 h 10"></path><path d="M 627.5 69 h 10"></path><g>
<path d="M 637.5 69 h 0.0"></path><path d="M 1656.0 69 h 0.0"></path><path d="M 637.5 69 h 10"></path><g>
<path d="M 647.5 69 h 0.0"></path><path d="M 1646.0 69 h 0.0"></path><path d="M 647.5 69 h 20"></path><g>
<path d="M 667.5 69 h 0.0"></path><path d="M 1626.0 69 h 0.0"></path><g>
<path d="M 667.5 69 h 0.0"></path><path d="M 804.0 69 h 0.0"></path><path d="M 667.5 69 h 20"></path><g class="terminal ">
<path d="M 687.5 69 h 12.75"></path><path d="M 771.25 69 h 12.75"></path><rect height="22" rx="10" ry="10" width="71.0" x="700.25" y="58"></rect><text x="735.75" y="73">'\n\\'</text></g><path d="M 784.0 69 h 20"></path><path d="M 667.5 69 a 10 10 0 0 1 10 10 v 10 a 10 10 0 0 0 10 10"></path><g class="terminal altterminal">
<path d="M 687.5 99 h 0.0"></path><path d="M 784.0 99 h 0.0"></path><rect height="22" rx="10" ry="10" width="96.5" x="687.5" y="88"></rect><text x="735.75" y="103">/${Ws}\\/</text></g><path d="M 784.0 99 a 10 10 0 0 0 10 -10 v -10 a 10 10 0 0 1 10 -10"></path></g><path d="M 804.0 69 h 10"></path><path d="M 814.0 69 h 10"></path><g class="terminal ">
<path d="M 824.0 69 h 0.0"></path><path d="M 1031.0 69 h 0.0"></path><rect height="22" rx="10" ry="10" width="207.0" x="824.0" y="58"></rect><text x="927.5" y="73">/t&#91;hc&#93;&#91;rc&#93;?\d+(-\d+)?/</text></g><path d="M 1031.0 69 h 10"></path><path d="M 1041.0 69 h 10"></path><g>
<path d="M 1051.0 69 h 0.0"></path><path d="M 1162.0 69 h 0.0"></path><path d="M 1051.0 69 h 20"></path><g class="terminal ">
<path d="M 1071.0 69 h 12.75"></path><path d="M 1129.25 69 h 12.75"></path><rect height="22" rx="10" ry="10" width="45.5" x="1083.75" y="58"></rect><text x="1106.5" y="73">' '</text></g><path d="M 1142.0 69 h 20"></path><path d="M 1051.0 69 a 10 10 0 0 1 10 10 v 10 a 10 10 0 0 0 10 10"></path><g class="terminal altterminal">
<path d="M 1071.0 99 h 0.0"></path><path d="M 1142.0 99 h 0.0"></path><rect height="22" rx="10" ry="10" width="71.0" x="1071.0" y="88"></rect><text x="1106.5" y="103">TAGEND</text></g><path d="M 1142.0 99 a 10 10 0 0 0 10 -10 v -10 a 10 10 0 0 1 10 -10"></path></g><path d="M 1162.0 69 h 10"></path><path d="M 1172.0 69 h 10"></path><g>
<path d="M 1182.0 69 h 0.0"></path><path d="M 1352.5 69 h 0.0"></path><path d="M 1182.0 69 h 20"></path><g>
<path d="M 1202.0 69 h 130.5"></path></g><path d="M 1332.5 69 h 20"></path><path d="M 1182.0 69 a 10 10 0 0 1 10 10 v 0 a 10 10 0 0 0 10 10"></path><g class="non-terminal ">
<path d="M 1202.0 89 h 0.0"></path><path d="M 1332.5 89 h 0.0"></path><rect height="22" width="130.5" x="1202.0" y="78"></rect><text x="1267.25" y="93">AttributesPre</text></g><path d="M 1332.5 89 a 10 10 0 0 0 10 -10 v 0 a 10 10 0 0 1 10 -10"></path></g><path d="M 1352.5 69 h 10"></path><path d="M 1362.5 69 h 10"></path><g>
<path d="M 1372.5 69 h 0.0"></path><path d="M 1626.0 69 h 0.0"></path><path d="M 1372.5 69 a 10 10 0 0 0 10 -10 v -9 a 10 10 0 0 1 10 -10"></path><g>
<path d="M 1392.5 40 h 213.5"></path></g><path d="M 1606.0 40 a 10 10 0 0 1 10 10 v 9 a 10 10 0 0 0 10 10"></path><path d="M 1372.5 69 h 20"></path><g>
<path d="M 1392.5 69 h 0.0"></path><path d="M 1606.0 69 h 0.0"></path><path d="M 1392.5 69 h 10"></path><g>
<path d="M 1402.5 69 h 0.0"></path><path d="M 1596.0 69 h 0.0"></path><path d="M 1402.5 69 h 20"></path><g>
<path d="M 1422.5 69 h 0.0"></path><path d="M 1576.0 69 h 0.0"></path><g class="terminal ">
<path d="M 1422.5 69 h 0.0"></path><path d="M 1476.5 69 h 0.0"></path><rect height="22" rx="10" ry="10" width="54.0" x="1422.5" y="58"></rect><text x="1449.5" y="73">TEXT</text></g><path d="M 1476.5 69 h 10"></path><path d="M 1486.5 69 h 10"></path><g class="terminal ">
<path d="M 1496.5 69 h 0.0"></path><path d="M 1576.0 69 h 0.0"></path><rect height="22" rx="10" ry="10" width="79.5" x="1496.5" y="58"></rect><text x="1536.25" y="73">TEXTEND</text></g></g><path d="M 1576.0 69 h 20"></path><path d="M 1402.5 69 a 10 10 0 0 1 10 10 v 10 a 10 10 0 0 0 10 10"></path><g class="non-terminal ">
<path d="M 1422.5 99 h 28.5"></path><path d="M 1547.5 99 h 28.5"></path><rect height="22" width="96.5" x="1451.0" y="88"></rect><text x="1499.25" y="103">CharEmbed</text></g><path d="M 1576.0 99 a 10 10 0 0 0 10 -10 v -10 a 10 10 0 0 1 10 -10"></path><path d="M 1402.5 69 a 10 10 0 0 1 10 10 v 40 a 10 10 0 0 0 10 10"></path><g class="non-terminal ">
<path d="M 1422.5 129 h 41.25"></path><path d="M 1534.75 129 h 41.25"></path><rect height="22" width="71.0" x="1463.75" y="118"></rect><text x="1499.25" y="133">Figure</text></g><path d="M 1576.0 129 a 10 10 0 0 0 10 -10 v -40 a 10 10 0 0 1 10 -10"></path><path d="M 1402.5 69 a 10 10 0 0 1 10 10 v 70 a 10 10 0 0 0 10 10"></path><g class="non-terminal ">
<path d="M 1422.5 159 h 28.5"></path><path d="M 1547.5 159 h 28.5"></path><rect height="22" width="96.5" x="1451.0" y="148"></rect><text x="1499.25" y="163">Milestone</text></g><path d="M 1576.0 159 a 10 10 0 0 0 10 -10 v -70 a 10 10 0 0 1 10 -10"></path><path d="M 1402.5 69 a 10 10 0 0 1 10 10 v 100 a 10 10 0 0 0 10 10"></path><g class="non-terminal ">
<path d="M 1422.5 189 h 45.5"></path><path d="M 1530.5 189 h 45.5"></path><rect height="22" width="62.5" x="1468.0" y="178"></rect><text x="1499.25" y="193">Verse</text></g><path d="M 1576.0 189 a 10 10 0 0 0 10 -10 v -100 a 10 10 0 0 1 10 -10"></path><path d="M 1402.5 69 a 10 10 0 0 1 10 10 v 130 a 10 10 0 0 0 10 10"></path><g class="non-terminal ">
<path d="M 1422.5 219 h 32.75"></path><path d="M 1543.25 219 h 32.75"></path><rect height="22" width="88.0" x="1455.25" y="208"></rect><text x="1499.25" y="223">Footnote</text></g><path d="M 1576.0 219 a 10 10 0 0 0 10 -10 v -130 a 10 10 0 0 1 10 -10"></path><path d="M 1402.5 69 a 10 10 0 0 1 10 10 v 160 a 10 10 0 0 0 10 10"></path><g class="non-terminal ">
<path d="M 1422.5 249 h 7.25"></path><path d="M 1568.75 249 h 7.25"></path><rect height="22" width="139.0" x="1429.75" y="238"></rect><text x="1499.25" y="253">CrossReference</text></g><path d="M 1576.0 249 a 10 10 0 0 0 10 -10 v -160 a 10 10 0 0 1 10 -10"></path><path d="M 1402.5 69 a 10 10 0 0 1 10 10 v 190 a 10 10 0 0 0 10 10"></path><g class="non-terminal ">
<path d="M 1422.5 279 h 45.5"></path><path d="M 1530.5 279 h 45.5"></path><rect height="22" width="62.5" x="1468.0" y="268"></rect><text x="1499.25" y="283">Break</text></g><path d="M 1576.0 279 a 10 10 0 0 0 10 -10 v -190 a 10 10 0 0 1 10 -10"></path></g><path d="M 1596.0 69 h 10"></path><path d="M 1402.5 69 a 10 10 0 0 0 -10 10 v 219 a 10 10 0 0 0 10 10"></path><g>
<path d="M 1402.5 308 h 193.5"></path></g><path d="M 1596.0 308 a 10 10 0 0 0 10 -10 v -219 a 10 10 0 0 0 -10 -10"></path></g><path d="M 1606.0 69 h 20"></path></g></g><path d="M 1626.0 69 h 20"></path></g><path d="M 1646.0 69 h 10"></path><path d="M 647.5 69 a 10 10 0 0 0 -10 10 v 247 a 10 10 0 0 0 10 10"></path><g>
<path d="M 647.5 336 h 998.5"></path></g><path d="M 1646.0 336 a 10 10 0 0 0 10 -10 v -247 a 10 10 0 0 0 -10 -10"></path></g></g><path d="M 1656.0 69 h 10"></path><path d="M 60.0 69 a 10 10 0 0 0 -10 10 v 255 a 10 10 0 0 0 10 10"></path><g>
<path d="M 60.0 344 h 1596.0"></path></g><path d="M 1656.0 344 a 10 10 0 0 0 10 -10 v -255 a 10 10 0 0 0 -10 -10"></path></g></g><path d="M 1666.0 69 h 10"></path><path d="M 1676.0 69 h 20 m 0 -10 v 20"></path></g></svg>