<svg class="railroad-diagram" height="664" viewBox="0 0 871.0 664" width="871.0" xmlns="http://www.w3.org/2000/svg" xmlns:xlink="http://www.w3.org/1999/xlink">
<g transform="translate(.5 .5)">
<style>/* <![CDATA[ */

    svg.railroad-diagram {
        background-color: hsl(30,20%,95%);
    }
    svg.railroad-diagram path {
        stroke-width: 2;
        stroke: black;
        fill: none;
    }
    svg.railroad-diagram text {
        font-size: 12px;
        text-anchor: middle;
        font-family: DejaVu Sans;
    }
    svg.railroad-diagram text.label {
        text-anchor:start;
    }
    svg.railroad-diagram text.comment {
        font-family: DejaVu Sans;
        font-size: 14px;
    }
    svg.railroad-diagram rect{
        stroke-width: 2;
        stroke: black;
        fill: rgb(210, 210, 255);
    }
    svg.railroad-diagram rect.group-box {
        stroke: gray;
        stroke-dasharray: 10 5;
        fill: none;
    }
    .terminal {
        font-family: DejaVu Sans;
    }
    svg.railroad-diagram g.altterminal rect {
        fill: rgb(251, 252, 207)
    }

/* ]]> */
</style><g>
<path d="M 20 101 v 20 m 0 -10 h 20"></path></g><path d="M 40 111 h 10"></path><g>
<path d="M 50 111 h 0.0"></path><path d="M 821.0 111 h 0.0"></path><g>
<path d="M 50.0 111 h 0.0"></path><path d="M 821.0 111 h 0.0"></path><g class="terminal ">
<path d="M 50.0 111 h 0.0"></path><path d="M 129.5 111 h 0.0"></path><rect height="22" rx="10" ry="10" width="79.5" x="50.0" y="100"></rect><text x="89.75" y="115">&#60;table></text></g><path d="M 129.5 111 h 10"></path><path d="M 139.5 111 h 10"></path><g>
<path d="M 149.5 111 h 0.0"></path><path d="M 821.0 111 h 0.0"></path><path d="M 149.5 111 a 10 10 0 0 0 10 -10 v -50 a 10 10 0 0 1 10 -10"></path><g>
<path d="M 169.5 41 h 0.0"></path><path d="M 629.0 41 h 0.0"></path><g class="terminal ">
<path d="M 169.5 41 h 0.0"></path><path d="M 223.5 41 h 0.0"></path><rect height="22" rx="10" ry="10" width="54.0" x="169.5" y="30"></rect><text x="196.5" y="45">@vid</text></g><path d="M 223.5 41 h 10"></path><path d="M 233.5 41 h 10"></path><g class="terminal ">
<path d="M 243.5 41 h 0.0"></path><path d="M 629.0 41 h 0.0"></path><rect height="22" rx="10" ry="10" width="385.5" x="243.5" y="30"></rect><text x="436.25" y="45">/&#91;A-Z1-4&#93;{3} ?&#91;a-z0-9\-:&#93;&#42;(‏?&#91;\-,&#93;&#91;0-9&#93;+)&#42;/</text></g></g><path d="M 149.5 111 h 20"></path><g>
<path d="M 169.5 111 h 0.0"></path><path d="M 801.0 111 h 0.0"></path><path d="M 169.5 111 h 10"></path><g>
<path d="M 179.5 111 h 0.0"></path><path d="M 791.0 111 h 0.0"></path><g class="terminal ">
<path d="M 179.5 111 h 0.0"></path><path d="M 242.0 111 h 0.0"></path><rect height="22" rx="10" ry="10" width="62.5" x="179.5" y="100"></rect><text x="210.75" y="115">&#60;row></text></g><path d="M 242.0 111 h 10"></path><path d="M 252.0 111 h 10"></path><g>
<path d="M 262.0 111 h 0.0"></path><path d="M 791.0 111 h 0.0"></path><path d="M 262.0 111 a 10 10 0 0 0 10 -10 v -10 a 10 10 0 0 1 10 -10"></path><g>
<path d="M 282.0 81 h 0.0"></path><path d="M 427.0 81 h 0.0"></path><g class="terminal ">
<path d="M 282.0 81 h 0.0"></path><path d="M 353.0 81 h 0.0"></path><rect height="22" rx="10" ry="10" width="71.0" x="282.0" y="70"></rect><text x="317.5" y="85">@style</text></g><path d="M 353.0 81 h 10"></path><path d="M 363.0 81 h 10"></path><g class="terminal ">
<path d="M 373.0 81 h 0.0"></path><path d="M 427.0 81 h 0.0"></path><rect height="22" rx="10" ry="10" width="54.0" x="373.0" y="70"></rect><text x="400.0" y="85">"tr"</text></g></g><path d="M 262.0 111 h 20"></path><g class="non-terminal ">
<path d="M 282.0 111 h 166.5"></path><path d="M 604.5 111 h 166.5"></path><rect height="22" width="156.0" x="448.5" y="100"></rect><text x="526.5" y="115">AttributesPreAll</text></g><path d="M 771.0 111 h 20"></path><path d="M 262.0 111 a 10 10 0 0 1 10 10 v 20 a 10 10 0 0 0 10 10"></path><g>
<path d="M 282.0 151 h 0.0"></path><path d="M 771.0 151 h 0.0"></path><path d="M 282.0 151 h 10"></path><g>
<path d="M 292.0 151 h 0.0"></path><path d="M 761.0 151 h 0.0"></path><path d="M 292.0 151 h 20"></path><g class="non-terminal ">
<path d="M 312.0 151 h 183.25"></path><path d="M 557.75 151 h 183.25"></path><rect height="22" width="62.5" x="495.25" y="140"></rect><text x="526.5" y="155">Verse</text></g><path d="M 741.0 151 h 20"></path><path d="M 292.0 151 a 10 10 0 0 1 10 10 v 110 a 10 10 0 0 0 10 10"></path><g>
<path d="M 312.0 281 h 0.0"></path><path d="M 741.0 281 h 0.0"></path><g class="terminal ">
<path d="M 312.0 281 h 0.0"></path><path d="M 383.0 281 h 0.0"></path><rect height="22" rx="10" ry="10" width="71.0" x="312.0" y="270"></rect><text x="347.5" y="285">&#60;cell></text></g><path d="M 383.0 281 h 10"></path><path d="M 393.0 281 h 10"></path><g>
<path d="M 403.0 281 h 0.0"></path><path d="M 741.0 281 h 0.0"></path><path d="M 403.0 281 a 10 10 0 0 0 10 -10 v -10 a 10 10 0 0 1 10 -10"></path><g>
<path d="M 423.0 251 h 0.0"></path><path d="M 721.0 251 h 0.0"></path><g class="terminal ">
<path d="M 423.0 251 h 0.0"></path><path d="M 494.0 251 h 0.0"></path><rect height="22" rx="10" ry="10" width="71.0" x="423.0" y="240"></rect><text x="458.5" y="255">@style</text></g><path d="M 494.0 251 h 10"></path><path d="M 504.0 251 h 10"></path><g class="terminal ">
<path d="M 514.0 251 h 0.0"></path><path d="M 721.0 251 h 0.0"></path><rect height="22" rx="10" ry="10" width="207.0" x="514.0" y="240"></rect><text x="617.5" y="255">/t&#91;hc&#93;&#91;rc&#93;?\d+(-\d+)?/</text></g></g><path d="M 403.0 281 a 10 10 0 0 0 10 -10 v -40 a 10 10 0 0 1 10 -10"></path><g>
<path d="M 423.0 221 h 0.0"></path><path d="M 661.5 221 h 0.0"></path><g class="terminal ">
<path d="M 423.0 221 h 0.0"></path><path d="M 494.0 221 h 0.0"></path><rect height="22" rx="10" ry="10" width="71.0" x="423.0" y="210"></rect><text x="458.5" y="225">@align</text></g><path d="M 494.0 221 h 10"></path><path d="M 504.0 221 h 10"></path><g class="non-terminal ">
<path d="M 514.0 221 h 0.0"></path><path d="M 661.5 221 h 0.0"></path><rect height="22" width="147.5" x="514.0" y="210"></rect><text x="587.75" y="225">cell.align.enum</text></g></g><path d="M 403.0 281 a 10 10 0 0 0 10 -10 v -70 a 10 10 0 0 1 10 -10"></path><g>
<path d="M 423.0 191 h 0.0"></path><path d="M 619.0 191 h 0.0"></path><g class="terminal ">
<path d="M 423.0 191 h 0.0"></path><path d="M 511.0 191 h 0.0"></path><rect height="22" rx="10" ry="10" width="88.0" x="423.0" y="180"></rect><text x="467.0" y="195">@colspan</text></g><path d="M 511.0 191 h 10"></path><path d="M 521.0 191 h 10"></path><g class="terminal ">
<path d="M 531.0 191 h 0.0"></path><path d="M 619.0 191 h 0.0"></path><rect height="22" rx="10" ry="10" width="88.0" x="531.0" y="180"></rect><text x="575.0" y="195">/&#91;0-9&#93;+/</text></g></g><path d="M 403.0 281 h 20"></path><g class="non-terminal ">
<path d="M 423.0 281 h 83.75"></path><path d="M 637.25 281 h 83.75"></path><rect height="22" width="130.5" x="506.75" y="270"></rect><text x="572.0" y="285">AttributesPre</text></g><path d="M 721.0 281 h 20"></path><path d="M 403.0 281 a 10 10 0 0 1 10 10 v 38 a 10 10 0 0 0 10 10"></path><g>
<path d="M 423.0 339 h 29.5"></path><path d="M 691.5 339 h 29.5"></path><path d="M 452.5 339 a 10 10 0 0 0 10 -10 v -9 a 10 10 0 0 1 10 -10"></path><g>
<path d="M 472.5 310 h 199.0"></path></g><path d="M 671.5 310 a 10 10 0 0 1 10 10 v 9 a 10 10 0 0 0 10 10"></path><path d="M 452.5 339 h 20"></path><g>
<path d="M 472.5 339 h 0.0"></path><path d="M 671.5 339 h 0.0"></path><path d="M 472.5 339 h 10"></path><g>
<path d="M 482.5 339 h 0.0"></path><path d="M 661.5 339 h 0.0"></path><path d="M 482.5 339 h 20"></path><g class="terminal ">
<path d="M 502.5 339 h 42.5"></path><path d="M 599.0 339 h 42.5"></path><rect height="22" rx="10" ry="10" width="54.0" x="545.0" y="328"></rect><text x="572.0" y="343">TEXT</text></g><path d="M 641.5 339 h 20"></path><path d="M 482.5 339 a 10 10 0 0 1 10 10 v 10 a 10 10 0 0 0 10 10"></path><g class="non-terminal ">
<path d="M 502.5 369 h 21.25"></path><path d="M 620.25 369 h 21.25"></path><rect height="22" width="96.5" x="523.75" y="358"></rect><text x="572.0" y="373">CharEmbed</text></g><path d="M 641.5 369 a 10 10 0 0 0 10 -10 v -10 a 10 10 0 0 1 10 -10"></path><path d="M 482.5 339 a 10 10 0 0 1 10 10 v 40 a 10 10 0 0 0 10 10"></path><g class="non-terminal ">
<path d="M 502.5 399 h 34.0"></path><path d="M 607.5 399 h 34.0"></path><rect height="22" width="71.0" x="536.5" y="388"></rect><text x="572.0" y="403">Figure</text></g><path d="M 641.5 399 a 10 10 0 0 0 10 -10 v -40 a 10 10 0 0 1 10 -10"></path><path d="M 482.5 339 a 10 10 0 0 1 10 10 v 70 a 10 10 0 0 0 10 10"></path><g class="non-terminal ">
<path d="M 502.5 429 h 21.25"></path><path d="M 620.25 429 h 21.25"></path><rect height="22" width="96.5" x="523.75" y="418"></rect><text x="572.0" y="433">Milestone</text></g><path d="M 641.5 429 a 10 10 0 0 0 10 -10 v -70 a 10 10 0 0 1 10 -10"></path><path d="M 482.5 339 a 10 10 0 0 1 10 10 v 100 a 10 10 0 0 0 10 10"></path><g class="non-terminal ">
<path d="M 502.5 459 h 38.25"></path><path d="M 603.25 459 h 38.25"></path><rect height="22" width="62.5" x="540.75" y="448"></rect><text x="572.0" y="463">Verse</text></g><path d="M 641.5 459 a 10 10 0 0 0 10 -10 v -100 a 10 10 0 0 1 10 -10"></path><path d="M 482.5 339 a 10 10 0 0 1 10 10 v 130 a 10 10 0 0 0 10 10"></path><g class="non-terminal ">
<path d="M 502.5 489 h 25.5"></path><path d="M 616.0 489 h 25.5"></path><rect height="22" width="88.0" x="528.0" y="478"></rect><text x="572.0" y="493">Footnote</text></g><path d="M 641.5 489 a 10 10 0 0 0 10 -10 v -130 a 10 10 0 0 1 10 -10"></path><path d="M 482.5 339 a 10 10 0 0 1 10 10 v 160 a 10 10 0 0 0 10 10"></path><g class="non-terminal ">
<path d="M 502.5 519 h 0.0"></path><path d="M 641.5 519 h 0.0"></path><rect height="22" width="139.0" x="502.5" y="508"></rect><text x="572.0" y="523">CrossReference</text></g><path d="M 641.5 519 a 10 10 0 0 0 10 -10 v -160 a 10 10 0 0 1 10 -10"></path><path d="M 482.5 339 a 10 10 0 0 1 10 10 v 190 a 10 10 0 0 0 10 10"></path><g class="non-terminal ">
<path d="M 502.5 549 h 38.25"></path><path d="M 603.25 549 h 38.25"></path><rect height="22" width="62.5" x="540.75" y="538"></rect><text x="572.0" y="553">Break</text></g><path d="M 641.5 549 a 10 10 0 0 0 10 -10 v -190 a 10 10 0 0 1 10 -10"></path></g><path d="M 661.5 339 h 10"></path><path d="M 482.5 339 a 10 10 0 0 0 -10 10 v 219 a 10 10 0 0 0 10 10"></path><g>
<path d="M 482.5 578 h 179.0"></path></g><path d="M 661.5 578 a 10 10 0 0 0 10 -10 v -219 a 10 10 0 0 0 -10 -10"></path></g><path d="M 671.5 339 h 20"></path></g><path d="M 721.0 339 a 10 10 0 0 0 10 -10 v -38 a 10 10 0 0 1 10 -10"></path></g></g><path d="M 741.0 281 a 10 10 0 0 0 10 -10 v -110 a 10 10 0 0 1 10 -10"></path></g><path d="M 761.0 151 h 10"></path><path d="M 292.0 151 a 10 10 0 0 0 -10 10 v 445 a 10 10 0 0 0 10 10"></path><g>
<path d="M 292.0 616 h 469.0"></path></g><path d="M 761.0 616 a 10 10 0 0 0 10 -10 v -445 a 10 10 0 0 0 -10 -10"></path></g><path d="M 771.0 151 a 10 10 0 0 0 10 -10 v -20 a 10 10 0 0 1 10 -10"></path></g></g><path d="M 791.0 111 h 10"></path><path d="M 179.5 111 a 10 10 0 0 0 -10 10 v 503 a 10 10 0 0 0 10 10"></path><g>
<path d="M 179.5 634 h 611.5"></path></g><path d="M 791.0 634 a 10 10 0 0 0 10 -10 v -503 a 10 10 0 0 0 -10 -10"></path></g><path d="M 801.0 111 h 20"></path></g></g></g><path d="M 821.0 111 h 10"></path><path d="M 831.0 111 h 20 m 0 -10 v 20"></path></g></svg>