<svg class="railroad-diagram" height="455" viewBox="0 0 1030.5 455" width="1030.5" xmlns="http://www.w3.org/2000/svg" xmlns:xlink="http://www.w3.org/1999/xlink">
<g transform="translate(.5 .5)">
<style>/* <![CDATA[ */
    svg.railroad-diagram {
        background-color:hsl(30,20%,95%);
    }
    svg.railroad-diagram path {
        stroke-width: 2;
        stroke: black;
        fill: none;
    }
    svg.railroad-diagram text {
        font-size: 12px;
        text-anchor: middle;
        font-family: DejaVu Sans;
    }
    svg.railroad-diagram text.label {
        text-anchor:start;
    }
    svg.railroad-diagram text.comment {
        font-family: DejaVu Sans;
        font-size: 14px;
    }
    svg.railroad-diagram rect{
        stroke-width: 2;
        stroke:black;
        fill: rgb(210, 210, 255);
    }
    svg.railroad-diagram rect.group-box {
        stroke: gray;
        stroke-dasharray: 10 5;
        fill: none;
    }
    .terminal {
        font-family: DejaVu Sans;
    }

/* ]]> */
</style><g>
<path d="M 20 180 v 20 m 0 -10 h 20"></path></g><path d="M 40 190 h 10"></path><g>
<path d="M 50 190 h 0.0"></path><path d="M 980.5 190 h 0.0"></path><g class="terminal ">
<path d="M 50.0 190 h 0.0"></path><path d="M 129.5 190 h 0.0"></path><rect height="22" rx="10" ry="10" width="79.5" x="50.0" y="179"></rect><text x="89.75" y="194">&#60;table></text></g><path d="M 129.5 190 h 10"></path><g>
<path d="M 139.5 190 h 0.0"></path><path d="M 980.5 190 h 0.0"></path><path d="M 139.5 190 a 10 10 0 0 0 10 -10 v -139 a 10 10 0 0 1 10 -10"></path><g>
<path d="M 159.5 31 h 0.0"></path><path d="M 491.5 31 h 0.0"></path><g class="terminal ">
<path d="M 159.5 31 h 0.0"></path><path d="M 222.0 31 h 0.0"></path><rect height="22" rx="10" ry="10" width="62.5" x="159.5" y="20"></rect><text x="190.75" y="35">@vid?</text></g><path d="M 222.0 31 h 10"></path><path d="M 232.0 31 h 10"></path><g class="terminal ">
<path d="M 242.0 31 h 0.0"></path><path d="M 491.5 31 h 0.0"></path><rect height="22" rx="10" ry="10" width="249.5" x="242.0" y="20"></rect><text x="366.75" y="35">/&#91;A-Z1-4&#93;{3} ?&#91;a-z0-9\-:&#93;&#42;/</text></g></g><path d="M 139.5 190 h 20"></path><g>
<path d="M 159.5 190 h 0.0"></path><path d="M 960.5 190 h 0.0"></path><g>
<path d="M 159.5 190 h 0.0"></path><path d="M 852.5 190 h 0.0"></path><path d="M 159.5 190 h 10"></path><g>
<path d="M 169.5 190 h 0.0"></path><path d="M 842.5 190 h 0.0"></path><g class="terminal ">
<path d="M 169.5 190 h 0.0"></path><path d="M 232.0 190 h 0.0"></path><rect height="22" rx="10" ry="10" width="62.5" x="169.5" y="179"></rect><text x="200.75" y="194">&#60;row></text></g><path d="M 232.0 190 h 10"></path><g>
<path d="M 242.0 190 h 0.0"></path><path d="M 842.5 190 h 0.0"></path><path d="M 242.0 190 a 10 10 0 0 0 10 -10 v -109 a 10 10 0 0 1 10 -10"></path><g>
<path d="M 262.0 61 h 0.0"></path><path d="M 407.0 61 h 0.0"></path><g class="terminal ">
<path d="M 262.0 61 h 0.0"></path><path d="M 333.0 61 h 0.0"></path><rect height="22" rx="10" ry="10" width="71.0" x="262.0" y="50"></rect><text x="297.5" y="65">@style</text></g><path d="M 333.0 61 h 10"></path><path d="M 343.0 61 h 10"></path><g class="terminal ">
<path d="M 353.0 61 h 0.0"></path><path d="M 407.0 61 h 0.0"></path><rect height="22" rx="10" ry="10" width="54.0" x="353.0" y="50"></rect><text x="380.0" y="65">"tr"</text></g></g><path d="M 242.0 190 h 20"></path><g>
<path d="M 262.0 190 h 0.0"></path><path d="M 822.5 190 h 0.0"></path><g>
<path d="M 262.0 190 h 0.0"></path><path d="M 731.5 190 h 0.0"></path><path d="M 262.0 190 h 10"></path><g>
<path d="M 272.0 190 h 0.0"></path><path d="M 721.5 190 h 0.0"></path><g class="terminal ">
<path d="M 272.0 190 h 0.0"></path><path d="M 343.0 190 h 0.0"></path><rect height="22" rx="10" ry="10" width="71.0" x="272.0" y="179"></rect><text x="307.5" y="194">&#60;cell></text></g><path d="M 343.0 190 h 10"></path><g>
<path d="M 353.0 190 h 0.0"></path><path d="M 721.5 190 h 0.0"></path><path d="M 353.0 190 a 10 10 0 0 0 10 -10 v -19 a 10 10 0 0 1 10 -10"></path><g>
<path d="M 373.0 151 h 0.0"></path><path d="M 569.0 151 h 0.0"></path><g class="terminal ">
<path d="M 373.0 151 h 0.0"></path><path d="M 469.5 151 h 0.0"></path><rect height="22" rx="10" ry="10" width="96.5" x="373.0" y="140"></rect><text x="421.25" y="155">@colspan?</text></g><path d="M 469.5 151 h 10"></path><path d="M 479.5 151 h 10"></path><g class="terminal ">
<path d="M 489.5 151 h 0.0"></path><path d="M 569.0 151 h 0.0"></path><rect height="22" rx="10" ry="10" width="79.5" x="489.5" y="140"></rect><text x="529.25" y="155">integer</text></g></g><path d="M 353.0 190 a 10 10 0 0 0 10 -10 v -49 a 10 10 0 0 1 10 -10"></path><g>
<path d="M 373.0 121 h 0.0"></path><path d="M 611.5 121 h 0.0"></path><g class="terminal ">
<path d="M 373.0 121 h 0.0"></path><path d="M 444.0 121 h 0.0"></path><rect height="22" rx="10" ry="10" width="71.0" x="373.0" y="110"></rect><text x="408.5" y="125">@align</text></g><path d="M 444.0 121 h 10"></path><path d="M 454.0 121 h 10"></path><g class="non-terminal ">
<path d="M 464.0 121 h 0.0"></path><path d="M 611.5 121 h 0.0"></path><rect height="22" width="147.5" x="464.0" y="110"></rect><text x="537.75" y="125">cell.align.enum</text></g></g><path d="M 353.0 190 a 10 10 0 0 0 10 -10 v -79 a 10 10 0 0 1 10 -10"></path><g>
<path d="M 373.0 91 h 0.0"></path><path d="M 611.5 91 h 0.0"></path><g class="terminal ">
<path d="M 373.0 91 h 0.0"></path><path d="M 444.0 91 h 0.0"></path><rect height="22" rx="10" ry="10" width="71.0" x="373.0" y="80"></rect><text x="408.5" y="95">@style</text></g><path d="M 444.0 91 h 10"></path><path d="M 454.0 91 h 10"></path><g class="terminal ">
<path d="M 464.0 91 h 0.0"></path><path d="M 611.5 91 h 0.0"></path><rect height="22" rx="10" ry="10" width="147.5" x="464.0" y="80"></rect><text x="537.75" y="95">/t&#91;hc&#93;&#91;rc&#93;?\d+/</text></g></g><path d="M 353.0 190 h 20"></path><g>
<path d="M 373.0 190 h 0.0"></path><path d="M 701.5 190 h 0.0"></path><g>
<path d="M 373.0 190 h 0.0"></path><path d="M 612.0 190 h 0.0"></path><path d="M 373.0 190 a 10 10 0 0 0 10 -10 v 0 a 10 10 0 0 1 10 -10"></path><g>
<path d="M 393.0 170 h 199.0"></path></g><path d="M 592.0 170 a 10 10 0 0 1 10 10 v 0 a 10 10 0 0 0 10 10"></path><path d="M 373.0 190 h 20"></path><g>
<path d="M 393.0 190 h 0.0"></path><path d="M 592.0 190 h 0.0"></path><path d="M 393.0 190 h 10"></path><g>
<path d="M 403.0 190 h 0.0"></path><path d="M 582.0 190 h 0.0"></path><path d="M 403.0 190 h 20"></path><g class="non-terminal ">
<path d="M 423.0 190 h 25.5"></path><path d="M 536.5 190 h 25.5"></path><rect height="22" width="88.0" x="448.5" y="179"></rect><text x="492.5" y="194">Footnote</text></g><path d="M 562.0 190 h 20"></path><path d="M 403.0 190 a 10 10 0 0 1 10 10 v 10 a 10 10 0 0 0 10 10"></path><g class="non-terminal ">
<path d="M 423.0 220 h 0.0"></path><path d="M 562.0 220 h 0.0"></path><rect height="22" width="139.0" x="423.0" y="209"></rect><text x="492.5" y="224">CrossReference</text></g><path d="M 562.0 220 a 10 10 0 0 0 10 -10 v -10 a 10 10 0 0 1 10 -10"></path><path d="M 403.0 190 a 10 10 0 0 1 10 10 v 40 a 10 10 0 0 0 10 10"></path><g class="non-terminal ">
<path d="M 423.0 250 h 42.5"></path><path d="M 519.5 250 h 42.5"></path><rect height="22" width="54.0" x="465.5" y="239"></rect><text x="492.5" y="254">Char</text></g><path d="M 562.0 250 a 10 10 0 0 0 10 -10 v -40 a 10 10 0 0 1 10 -10"></path><path d="M 403.0 190 a 10 10 0 0 1 10 10 v 70 a 10 10 0 0 0 10 10"></path><g class="non-terminal ">
<path d="M 423.0 280 h 21.25"></path><path d="M 540.75 280 h 21.25"></path><rect height="22" width="96.5" x="444.25" y="269"></rect><text x="492.5" y="284">Milestone</text></g><path d="M 562.0 280 a 10 10 0 0 0 10 -10 v -70 a 10 10 0 0 1 10 -10"></path><path d="M 403.0 190 a 10 10 0 0 1 10 10 v 100 a 10 10 0 0 0 10 10"></path><g class="non-terminal ">
<path d="M 423.0 310 h 34.0"></path><path d="M 528.0 310 h 34.0"></path><rect height="22" width="71.0" x="457.0" y="299"></rect><text x="492.5" y="314">Figure</text></g><path d="M 562.0 310 a 10 10 0 0 0 10 -10 v -100 a 10 10 0 0 1 10 -10"></path><path d="M 403.0 190 a 10 10 0 0 1 10 10 v 130 a 10 10 0 0 0 10 10"></path><g class="non-terminal ">
<path d="M 423.0 340 h 38.25"></path><path d="M 523.75 340 h 38.25"></path><rect height="22" width="62.5" x="461.25" y="329"></rect><text x="492.5" y="344">Verse</text></g><path d="M 562.0 340 a 10 10 0 0 0 10 -10 v -130 a 10 10 0 0 1 10 -10"></path><path d="M 403.0 190 a 10 10 0 0 1 10 10 v 160 a 10 10 0 0 0 10 10"></path><g class="non-terminal ">
<path d="M 423.0 370 h 38.25"></path><path d="M 523.75 370 h 38.25"></path><rect height="22" width="62.5" x="461.25" y="359"></rect><text x="492.5" y="374">Break</text></g><path d="M 562.0 370 a 10 10 0 0 0 10 -10 v -160 a 10 10 0 0 1 10 -10"></path><path d="M 403.0 190 a 10 10 0 0 1 10 10 v 190 a 10 10 0 0 0 10 10"></path><g class="terminal ">
<path d="M 423.0 400 h 42.5"></path><path d="M 519.5 400 h 42.5"></path><rect height="22" rx="10" ry="10" width="54.0" x="465.5" y="389"></rect><text x="492.5" y="404">text</text></g><path d="M 562.0 400 a 10 10 0 0 0 10 -10 v -190 a 10 10 0 0 1 10 -10"></path></g><path d="M 582.0 190 h 10"></path><path d="M 403.0 190 a 10 10 0 0 0 -10 10 v 209 a 10 10 0 0 0 10 10"></path><g>
<path d="M 403.0 419 h 179.0"></path></g><path d="M 582.0 419 a 10 10 0 0 0 10 -10 v -209 a 10 10 0 0 0 -10 -10"></path></g><path d="M 592.0 190 h 20"></path></g><path d="M 612.0 190 h 10"></path><g class="terminal ">
<path d="M 622.0 190 h 0.0"></path><path d="M 701.5 190 h 0.0"></path><rect height="22" rx="10" ry="10" width="79.5" x="622.0" y="179"></rect><text x="661.75" y="194">&#60;/cell></text></g></g><path d="M 701.5 190 h 20"></path></g></g><path d="M 721.5 190 h 10"></path><path d="M 272.0 190 a 10 10 0 0 0 -10 10 v 217 a 10 10 0 0 0 10 10"></path><g>
<path d="M 272.0 427 h 449.5"></path></g><path d="M 721.5 427 a 10 10 0 0 0 10 -10 v -217 a 10 10 0 0 0 -10 -10"></path></g><path d="M 731.5 190 h 10"></path><path d="M 741.5 190 h 10"></path><g class="terminal ">
<path d="M 751.5 190 h 0.0"></path><path d="M 822.5 190 h 0.0"></path><rect height="22" rx="10" ry="10" width="71.0" x="751.5" y="179"></rect><text x="787.0" y="194">&#60;/row></text></g></g><path d="M 822.5 190 h 20"></path></g></g><path d="M 842.5 190 h 10"></path><path d="M 169.5 190 a 10 10 0 0 0 -10 10 v 225 a 10 10 0 0 0 10 10"></path><g>
<path d="M 169.5 435 h 673.0"></path></g><path d="M 842.5 435 a 10 10 0 0 0 10 -10 v -225 a 10 10 0 0 0 -10 -10"></path></g><path d="M 852.5 190 h 10"></path><path d="M 862.5 190 h 10"></path><g class="terminal ">
<path d="M 872.5 190 h 0.0"></path><path d="M 960.5 190 h 0.0"></path><rect height="22" rx="10" ry="10" width="88.0" x="872.5" y="179"></rect><text x="916.5" y="194">&#60;/table></text></g></g><path d="M 960.5 190 h 20"></path></g></g><path d="M 980.5 190 h 10"></path><path d="M 990.5 190 h 20 m 0 -10 v 20"></path></g></svg>