<svg class="railroad-diagram" height="604" viewBox="0 0 871.0 604" width="871.0" xmlns="http://www.w3.org/2000/svg" xmlns:xlink="http://www.w3.org/1999/xlink">
<g transform="translate(.5 .5)">
<style>/* <![CDATA[ */

    svg.railroad-diagram {
        background-color: hsl(30,20%,95%);
    }
    svg.railroad-diagram path {
        stroke-width: 2;
        stroke: black;
        fill: none;
    }
    svg.railroad-diagram text {
        font-size: 12px;
        text-anchor: middle;
        font-family: DejaVu Sans;
    }
    svg.railroad-diagram text.label {
        text-anchor:start;
    }
    svg.railroad-diagram text.comment {
        font-family: DejaVu Sans;
        font-size: 14px;
    }
    svg.railroad-diagram rect{
        stroke-width: 2;
        stroke: black;
        fill: rgb(210, 210, 255);
    }
    svg.railroad-diagram rect.group-box {
        stroke: gray;
        stroke-dasharray: 10 5;
        fill: none;
    }
    .terminal {
        font-family: DejaVu Sans;
    }
    svg.railroad-diagram g.altterminal rect {
        fill: rgb(251, 252, 207)
    }

/* ]]> */
</style><g>
<path d="M 20 111 v 20 m 0 -10 h 20"></path></g><path d="M 40 121 h 10"></path><g>
<path d="M 50 121 h 0.0"></path><path d="M 821.0 121 h 0.0"></path><g>
<path d="M 50.0 121 h 0.0"></path><path d="M 821.0 121 h 0.0"></path><g class="terminal ">
<path d="M 50.0 121 h 0.0"></path><path d="M 129.5 121 h 0.0"></path><rect height="22" rx="10" ry="10" width="79.5" x="50.0" y="110"></rect><text x="89.75" y="125">&#60;table></text></g><path d="M 129.5 121 h 10"></path><path d="M 139.5 121 h 10"></path><g>
<path d="M 149.5 121 h 0.0"></path><path d="M 821.0 121 h 0.0"></path><path d="M 149.5 121 a 10 10 0 0 0 10 -10 v -60 a 10 10 0 0 1 10 -10"></path><g>
<path d="M 169.5 41 h 0.0"></path><path d="M 629.0 41 h 0.0"></path><g class="terminal ">
<path d="M 169.5 41 h 0.0"></path><path d="M 223.5 41 h 0.0"></path><rect height="22" rx="10" ry="10" width="54.0" x="169.5" y="30"></rect><text x="196.5" y="45">@vid</text></g><path d="M 223.5 41 h 10"></path><path d="M 233.5 41 h 10"></path><g class="terminal ">
<path d="M 243.5 41 h 0.0"></path><path d="M 629.0 41 h 0.0"></path><rect height="22" rx="10" ry="10" width="385.5" x="243.5" y="30"></rect><text x="436.25" y="45">/&#91;A-Z1-4&#93;{3} ?&#91;a-z0-9\-:&#93;&#42;(‏?&#91;\-,&#93;&#91;0-9&#93;+)&#42;/</text></g></g><path d="M 149.5 121 h 20"></path><g>
<path d="M 169.5 121 h 0.0"></path><path d="M 801.0 121 h 0.0"></path><path d="M 169.5 121 h 10"></path><g>
<path d="M 179.5 121 h 0.0"></path><path d="M 791.0 121 h 0.0"></path><g class="terminal ">
<path d="M 179.5 121 h 0.0"></path><path d="M 242.0 121 h 0.0"></path><rect height="22" rx="10" ry="10" width="62.5" x="179.5" y="110"></rect><text x="210.75" y="125">&#60;row></text></g><path d="M 242.0 121 h 10"></path><path d="M 252.0 121 h 10"></path><g>
<path d="M 262.0 121 h 0.0"></path><path d="M 791.0 121 h 0.0"></path><path d="M 262.0 121 a 10 10 0 0 0 10 -10 v -20 a 10 10 0 0 1 10 -10"></path><g>
<path d="M 282.0 81 h 0.0"></path><path d="M 427.0 81 h 0.0"></path><g class="terminal ">
<path d="M 282.0 81 h 0.0"></path><path d="M 353.0 81 h 0.0"></path><rect height="22" rx="10" ry="10" width="71.0" x="282.0" y="70"></rect><text x="317.5" y="85">@style</text></g><path d="M 353.0 81 h 10"></path><path d="M 363.0 81 h 10"></path><g class="terminal ">
<path d="M 373.0 81 h 0.0"></path><path d="M 427.0 81 h 0.0"></path><rect height="22" rx="10" ry="10" width="54.0" x="373.0" y="70"></rect><text x="400.0" y="85">"tr"</text></g></g><path d="M 262.0 121 h 20"></path><g>
<path d="M 282.0 121 h 0.0"></path><path d="M 771.0 121 h 0.0"></path><path d="M 282.0 121 h 10"></path><g>
<path d="M 292.0 121 h 0.0"></path><path d="M 761.0 121 h 0.0"></path><path d="M 292.0 121 h 20"></path><g class="non-terminal ">
<path d="M 312.0 121 h 183.25"></path><path d="M 557.75 121 h 183.25"></path><rect height="22" width="62.5" x="495.25" y="110"></rect><text x="526.5" y="125">Verse</text></g><path d="M 741.0 121 h 20"></path><path d="M 292.0 121 a 10 10 0 0 1 10 10 v 138 a 10 10 0 0 0 10 10"></path><g>
<path d="M 312.0 279 h 0.0"></path><path d="M 741.0 279 h 0.0"></path><g class="terminal ">
<path d="M 312.0 279 h 0.0"></path><path d="M 383.0 279 h 0.0"></path><rect height="22" rx="10" ry="10" width="71.0" x="312.0" y="268"></rect><text x="347.5" y="283">&#60;cell></text></g><path d="M 383.0 279 h 10"></path><path d="M 393.0 279 h 10"></path><g>
<path d="M 403.0 279 h 0.0"></path><path d="M 741.0 279 h 0.0"></path><path d="M 403.0 279 a 10 10 0 0 0 10 -10 v -38 a 10 10 0 0 1 10 -10"></path><g>
<path d="M 423.0 221 h 0.0"></path><path d="M 721.0 221 h 0.0"></path><g class="terminal ">
<path d="M 423.0 221 h 0.0"></path><path d="M 494.0 221 h 0.0"></path><rect height="22" rx="10" ry="10" width="71.0" x="423.0" y="210"></rect><text x="458.5" y="225">@style</text></g><path d="M 494.0 221 h 10"></path><path d="M 504.0 221 h 10"></path><g class="terminal ">
<path d="M 514.0 221 h 0.0"></path><path d="M 721.0 221 h 0.0"></path><rect height="22" rx="10" ry="10" width="207.0" x="514.0" y="210"></rect><text x="617.5" y="225">/t&#91;hc&#93;&#91;rc&#93;?\d+(-\d+)?/</text></g></g><path d="M 403.0 279 a 10 10 0 0 0 10 -10 v -68 a 10 10 0 0 1 10 -10"></path><g>
<path d="M 423.0 191 h 0.0"></path><path d="M 661.5 191 h 0.0"></path><g class="terminal ">
<path d="M 423.0 191 h 0.0"></path><path d="M 494.0 191 h 0.0"></path><rect height="22" rx="10" ry="10" width="71.0" x="423.0" y="180"></rect><text x="458.5" y="195">@align</text></g><path d="M 494.0 191 h 10"></path><path d="M 504.0 191 h 10"></path><g class="non-terminal ">
<path d="M 514.0 191 h 0.0"></path><path d="M 661.5 191 h 0.0"></path><rect height="22" width="147.5" x="514.0" y="180"></rect><text x="587.75" y="195">cell.align.enum</text></g></g><path d="M 403.0 279 a 10 10 0 0 0 10 -10 v -98 a 10 10 0 0 1 10 -10"></path><g>
<path d="M 423.0 161 h 0.0"></path><path d="M 619.0 161 h 0.0"></path><g class="terminal ">
<path d="M 423.0 161 h 0.0"></path><path d="M 511.0 161 h 0.0"></path><rect height="22" rx="10" ry="10" width="88.0" x="423.0" y="150"></rect><text x="467.0" y="165">@colspan</text></g><path d="M 511.0 161 h 10"></path><path d="M 521.0 161 h 10"></path><g class="terminal ">
<path d="M 531.0 161 h 0.0"></path><path d="M 619.0 161 h 0.0"></path><rect height="22" rx="10" ry="10" width="88.0" x="531.0" y="150"></rect><text x="575.0" y="165">/&#91;0-9&#93;+/</text></g></g><path d="M 403.0 279 h 20"></path><g>
<path d="M 423.0 279 h 29.5"></path><path d="M 691.5 279 h 29.5"></path><path d="M 452.5 279 a 10 10 0 0 0 10 -10 v -9 a 10 10 0 0 1 10 -10"></path><g>
<path d="M 472.5 250 h 199.0"></path></g><path d="M 671.5 250 a 10 10 0 0 1 10 10 v 9 a 10 10 0 0 0 10 10"></path><path d="M 452.5 279 h 20"></path><g>
<path d="M 472.5 279 h 0.0"></path><path d="M 671.5 279 h 0.0"></path><path d="M 472.5 279 h 10"></path><g>
<path d="M 482.5 279 h 0.0"></path><path d="M 661.5 279 h 0.0"></path><path d="M 482.5 279 h 20"></path><g class="terminal ">
<path d="M 502.5 279 h 42.5"></path><path d="M 599.0 279 h 42.5"></path><rect height="22" rx="10" ry="10" width="54.0" x="545.0" y="268"></rect><text x="572.0" y="283">TEXT</text></g><path d="M 641.5 279 h 20"></path><path d="M 482.5 279 a 10 10 0 0 1 10 10 v 10 a 10 10 0 0 0 10 10"></path><g class="non-terminal ">
<path d="M 502.5 309 h 21.25"></path><path d="M 620.25 309 h 21.25"></path><rect height="22" width="96.5" x="523.75" y="298"></rect><text x="572.0" y="313">CharEmbed</text></g><path d="M 641.5 309 a 10 10 0 0 0 10 -10 v -10 a 10 10 0 0 1 10 -10"></path><path d="M 482.5 279 a 10 10 0 0 1 10 10 v 40 a 10 10 0 0 0 10 10"></path><g class="non-terminal ">
<path d="M 502.5 339 h 34.0"></path><path d="M 607.5 339 h 34.0"></path><rect height="22" width="71.0" x="536.5" y="328"></rect><text x="572.0" y="343">Figure</text></g><path d="M 641.5 339 a 10 10 0 0 0 10 -10 v -40 a 10 10 0 0 1 10 -10"></path><path d="M 482.5 279 a 10 10 0 0 1 10 10 v 70 a 10 10 0 0 0 10 10"></path><g class="non-terminal ">
<path d="M 502.5 369 h 21.25"></path><path d="M 620.25 369 h 21.25"></path><rect height="22" width="96.5" x="523.75" y="358"></rect><text x="572.0" y="373">Milestone</text></g><path d="M 641.5 369 a 10 10 0 0 0 10 -10 v -70 a 10 10 0 0 1 10 -10"></path><path d="M 482.5 279 a 10 10 0 0 1 10 10 v 100 a 10 10 0 0 0 10 10"></path><g class="non-terminal ">
<path d="M 502.5 399 h 38.25"></path><path d="M 603.25 399 h 38.25"></path><rect height="22" width="62.5" x="540.75" y="388"></rect><text x="572.0" y="403">Verse</text></g><path d="M 641.5 399 a 10 10 0 0 0 10 -10 v -100 a 10 10 0 0 1 10 -10"></path><path d="M 482.5 279 a 10 10 0 0 1 10 10 v 130 a 10 10 0 0 0 10 10"></path><g class="non-terminal ">
<path d="M 502.5 429 h 25.5"></path><path d="M 616.0 429 h 25.5"></path><rect height="22" width="88.0" x="528.0" y="418"></rect><text x="572.0" y="433">Footnote</text></g><path d="M 641.5 429 a 10 10 0 0 0 10 -10 v -130 a 10 10 0 0 1 10 -10"></path><path d="M 482.5 279 a 10 10 0 0 1 10 10 v 160 a 10 10 0 0 0 10 10"></path><g class="non-terminal ">
<path d="M 502.5 459 h 0.0"></path><path d="M 641.5 459 h 0.0"></path><rect height="22" width="139.0" x="502.5" y="448"></rect><text x="572.0" y="463">CrossReference</text></g><path d="M 641.5 459 a 10 10 0 0 0 10 -10 v -160 a 10 10 0 0 1 10 -10"></path><path d="M 482.5 279 a 10 10 0 0 1 10 10 v 190 a 10 10 0 0 0 10 10"></path><g class="non-terminal ">
<path d="M 502.5 489 h 38.25"></path><path d="M 603.25 489 h 38.25"></path><rect height="22" width="62.5" x="540.75" y="478"></rect><text x="572.0" y="493">Break</text></g><path d="M 641.5 489 a 10 10 0 0 0 10 -10 v -190 a 10 10 0 0 1 10 -10"></path></g><path d="M 661.5 279 h 10"></path><path d="M 482.5 279 a 10 10 0 0 0 -10 10 v 219 a 10 10 0 0 0 10 10"></path><g>
<path d="M 482.5 518 h 179.0"></path></g><path d="M 661.5 518 a 10 10 0 0 0 10 -10 v -219 a 10 10 0 0 0 -10 -10"></path></g><path d="M 671.5 279 h 20"></path></g><path d="M 721.0 279 h 20"></path></g></g><path d="M 741.0 279 a 10 10 0 0 0 10 -10 v -138 a 10 10 0 0 1 10 -10"></path></g><path d="M 761.0 121 h 10"></path><path d="M 292.0 121 a 10 10 0 0 0 -10 10 v 415 a 10 10 0 0 0 10 10"></path><g>
<path d="M 292.0 556 h 469.0"></path></g><path d="M 761.0 556 a 10 10 0 0 0 10 -10 v -415 a 10 10 0 0 0 -10 -10"></path></g><path d="M 771.0 121 h 20"></path></g></g><path d="M 791.0 121 h 10"></path><path d="M 179.5 121 a 10 10 0 0 0 -10 10 v 433 a 10 10 0 0 0 10 10"></path><g>
<path d="M 179.5 574 h 611.5"></path></g><path d="M 791.0 574 a 10 10 0 0 0 10 -10 v -433 a 10 10 0 0 0 -10 -10"></path></g><path d="M 801.0 121 h 20"></path></g></g></g><path d="M 821.0 121 h 10"></path><path d="M 831.0 121 h 20 m 0 -10 v 20"></path></g></svg>