<svg class="railroad-diagram" height="304" viewBox="0 0 973.5 304" width="973.5" xmlns="http://www.w3.org/2000/svg" xmlns:xlink="http://www.w3.org/1999/xlink">
<g transform="translate(.5 .5)">
<style>/* <![CDATA[ */

    svg.railroad-diagram {
        background-color:hsl(30,20%,95%);
    }
    svg.railroad-diagram path {
        stroke-width: 2;
        stroke: black;
        fill: none;
    }
    svg.railroad-diagram text {
        font-size: 12px;
        text-anchor: middle;
        font-family: DejaVu Sans;
    }
    svg.railroad-diagram text.label {
        text-anchor:start;
    }
    svg.railroad-diagram text.comment {
        font-family: DejaVu Sans;
        font-size: 14px;
    }
    svg.railroad-diagram rect{
        stroke-width: 2;
        stroke:black;
        fill: rgb(210, 255, 210);
    }
    svg.railroad-diagram rect.group-box {
        stroke: gray;
        stroke-dasharray: 10 5;
        fill: none;
    }
    .terminal {
        font-family: DejaVu Sans;
    }

/* ]]> */
</style><g>
<path d="M 20 59 v 20 m 0 -10 h 20"></path></g><path d="M 40 69 h 10"></path><g>
<path d="M 50 69 h 0.0"></path><path d="M 923.5 69 h 0.0"></path><g>
<path d="M 50.0 69 h 0.0"></path><path d="M 923.5 69 h 0.0"></path><path d="M 50.0 69 h 10"></path><g>
<path d="M 60.0 69 h 0.0"></path><path d="M 913.5 69 h 0.0"></path><g class="terminal ">
<path d="M 60.0 69 h 0.0"></path><path d="M 105.5 69 h 0.0"></path><rect height="22" rx="10" ry="10" width="45.5" x="60.0" y="58"></rect><text x="82.75" y="73">'\'</text></g><path d="M 105.5 69 h 10"></path><path d="M 115.5 69 h 10"></path><g class="terminal ">
<path d="M 125.5 69 h 0.0"></path><path d="M 179.5 69 h 0.0"></path><rect height="22" rx="10" ry="10" width="54.0" x="125.5" y="58"></rect><text x="152.5" y="73">"tr"</text></g><path d="M 179.5 69 h 10"></path><path d="M 189.5 69 h 10"></path><g class="terminal ">
<path d="M 199.5 69 h 0.0"></path><path d="M 270.5 69 h 0.0"></path><rect height="22" rx="10" ry="10" width="71.0" x="199.5" y="58"></rect><text x="235.0" y="73">TAGEND</text></g><path d="M 270.5 69 h 10"></path><path d="M 280.5 69 h 10"></path><g>
<path d="M 290.5 69 h 0.0"></path><path d="M 913.5 69 h 0.0"></path><path d="M 290.5 69 h 10"></path><g>
<path d="M 300.5 69 h 0.0"></path><path d="M 903.5 69 h 0.0"></path><path d="M 300.5 69 h 20"></path><g>
<path d="M 320.5 69 h 0.0"></path><path d="M 883.5 69 h 0.0"></path><g class="terminal ">
<path d="M 320.5 69 h 0.0"></path><path d="M 366.0 69 h 0.0"></path><rect height="22" rx="10" ry="10" width="45.5" x="320.5" y="58"></rect><text x="343.25" y="73">'\'</text></g><path d="M 366.0 69 h 10"></path><path d="M 376.0 69 h 10"></path><g class="terminal ">
<path d="M 386.0 69 h 0.0"></path><path d="M 533.5 69 h 0.0"></path><rect height="22" rx="10" ry="10" width="147.5" x="386.0" y="58"></rect><text x="459.75" y="73">/t&#91;hc&#93;&#91;rc&#93;?\d+/</text></g><path d="M 533.5 69 h 10"></path><path d="M 543.5 69 h 10"></path><g class="terminal ">
<path d="M 553.5 69 h 0.0"></path><path d="M 624.5 69 h 0.0"></path><rect height="22" rx="10" ry="10" width="71.0" x="553.5" y="58"></rect><text x="589.0" y="73">TAGEND</text></g><path d="M 624.5 69 h 10"></path><path d="M 634.5 69 h 10"></path><g>
<path d="M 644.5 69 h 0.0"></path><path d="M 883.5 69 h 0.0"></path><path d="M 644.5 69 a 10 10 0 0 0 10 -10 v -9 a 10 10 0 0 1 10 -10"></path><g>
<path d="M 664.5 40 h 199.0"></path></g><path d="M 863.5 40 a 10 10 0 0 1 10 10 v 9 a 10 10 0 0 0 10 10"></path><path d="M 644.5 69 h 20"></path><g>
<path d="M 664.5 69 h 0.0"></path><path d="M 863.5 69 h 0.0"></path><path d="M 664.5 69 h 10"></path><g>
<path d="M 674.5 69 h 0.0"></path><path d="M 853.5 69 h 0.0"></path><path d="M 674.5 69 h 20"></path><g class="non-terminal ">
<path d="M 694.5 69 h 25.5"></path><path d="M 808.0 69 h 25.5"></path><rect height="22" width="88.0" x="720.0" y="58"></rect><text x="764.0" y="73">Footnote</text></g><path d="M 833.5 69 h 20"></path><path d="M 674.5 69 a 10 10 0 0 1 10 10 v 10 a 10 10 0 0 0 10 10"></path><g class="non-terminal ">
<path d="M 694.5 99 h 0.0"></path><path d="M 833.5 99 h 0.0"></path><rect height="22" width="139.0" x="694.5" y="88"></rect><text x="764.0" y="103">CrossReference</text></g><path d="M 833.5 99 a 10 10 0 0 0 10 -10 v -10 a 10 10 0 0 1 10 -10"></path><path d="M 674.5 69 a 10 10 0 0 1 10 10 v 40 a 10 10 0 0 0 10 10"></path><g class="non-terminal ">
<path d="M 694.5 129 h 42.5"></path><path d="M 791.0 129 h 42.5"></path><rect height="22" width="54.0" x="737.0" y="118"></rect><text x="764.0" y="133">Char</text></g><path d="M 833.5 129 a 10 10 0 0 0 10 -10 v -40 a 10 10 0 0 1 10 -10"></path><path d="M 674.5 69 a 10 10 0 0 1 10 10 v 70 a 10 10 0 0 0 10 10"></path><g class="non-terminal ">
<path d="M 694.5 159 h 21.25"></path><path d="M 812.25 159 h 21.25"></path><rect height="22" width="96.5" x="715.75" y="148"></rect><text x="764.0" y="163">Milestone</text></g><path d="M 833.5 159 a 10 10 0 0 0 10 -10 v -70 a 10 10 0 0 1 10 -10"></path><path d="M 674.5 69 a 10 10 0 0 1 10 10 v 100 a 10 10 0 0 0 10 10"></path><g class="non-terminal ">
<path d="M 694.5 189 h 38.25"></path><path d="M 795.25 189 h 38.25"></path><rect height="22" width="62.5" x="732.75" y="178"></rect><text x="764.0" y="193">Verse</text></g><path d="M 833.5 189 a 10 10 0 0 0 10 -10 v -100 a 10 10 0 0 1 10 -10"></path><path d="M 674.5 69 a 10 10 0 0 1 10 10 v 130 a 10 10 0 0 0 10 10"></path><g class="non-terminal ">
<path d="M 694.5 219 h 38.25"></path><path d="M 795.25 219 h 38.25"></path><rect height="22" width="62.5" x="732.75" y="208"></rect><text x="764.0" y="223">Break</text></g><path d="M 833.5 219 a 10 10 0 0 0 10 -10 v -130 a 10 10 0 0 1 10 -10"></path></g><path d="M 853.5 69 h 10"></path><path d="M 674.5 69 a 10 10 0 0 0 -10 10 v 159 a 10 10 0 0 0 10 10"></path><g>
<path d="M 674.5 248 h 179.0"></path></g><path d="M 853.5 248 a 10 10 0 0 0 10 -10 v -159 a 10 10 0 0 0 -10 -10"></path></g><path d="M 863.5 69 h 20"></path></g></g><path d="M 883.5 69 h 20"></path></g><path d="M 903.5 69 h 10"></path><path d="M 300.5 69 a 10 10 0 0 0 -10 10 v 187 a 10 10 0 0 0 10 10"></path><g>
<path d="M 300.5 276 h 603.0"></path></g><path d="M 903.5 276 a 10 10 0 0 0 10 -10 v -187 a 10 10 0 0 0 -10 -10"></path></g></g><path d="M 913.5 69 h 10"></path><path d="M 60.0 69 a 10 10 0 0 0 -10 10 v 195 a 10 10 0 0 0 10 10"></path><g>
<path d="M 60.0 284 h 853.5"></path></g><path d="M 913.5 284 a 10 10 0 0 0 10 -10 v -195 a 10 10 0 0 0 -10 -10"></path></g></g><path d="M 923.5 69 h 10"></path><path d="M 933.5 69 h 20 m 0 -10 v 20"></path></g></svg>