<svg class="railroad-diagram" height="334" viewBox="0 0 1068.0 334" width="1068.0" xmlns="http://www.w3.org/2000/svg" xmlns:xlink="http://www.w3.org/1999/xlink">
<g transform="translate(.5 .5)">
<style>/* <![CDATA[ */

    svg.railroad-diagram {
        background-color:hsl(30,20%,95%);
    }
    svg.railroad-diagram path {
        stroke-width: 2;
        stroke: black;
        fill: none;
    }
    svg.railroad-diagram text {
        font-size: 12px;
        text-anchor: middle;
        font-family: DejaVu Sans;
    }
    svg.railroad-diagram text.label {
        text-anchor:start;
    }
    svg.railroad-diagram text.comment {
        font-family: DejaVu Sans;
        font-size: 14px;
    }
    svg.railroad-diagram rect{
        stroke-width: 2;
        stroke:black;
        fill: rgb(210, 255, 210);
    }
    svg.railroad-diagram rect.group-box {
        stroke: gray;
        stroke-dasharray: 10 5;
        fill: none;
    }
    .terminal {
        font-family: DejaVu Sans;
    }

/* ]]> */
</style><g>
<path d="M 20 59 v 20 m 0 -10 h 20"></path></g><path d="M 40 69 h 10"></path><g>
<path d="M 50 69 h 0.0"></path><path d="M 1018.0 69 h 0.0"></path><g>
<path d="M 50.0 69 h 0.0"></path><path d="M 1018.0 69 h 0.0"></path><path d="M 50.0 69 h 10"></path><g>
<path d="M 60.0 69 h 0.0"></path><path d="M 1008.0 69 h 0.0"></path><g class="terminal ">
<path d="M 60.0 69 h 0.0"></path><path d="M 105.5 69 h 0.0"></path><rect height="22" rx="10" ry="10" width="45.5" x="60.0" y="58"></rect><text x="82.75" y="73">'\'</text></g><path d="M 105.5 69 h 10"></path><path d="M 115.5 69 h 10"></path><g class="terminal ">
<path d="M 125.5 69 h 0.0"></path><path d="M 179.5 69 h 0.0"></path><rect height="22" rx="10" ry="10" width="54.0" x="125.5" y="58"></rect><text x="152.5" y="73">"tr"</text></g><path d="M 179.5 69 h 10"></path><path d="M 189.5 69 h 10"></path><g>
<path d="M 199.5 69 h 0.0"></path><path d="M 310.5 69 h 0.0"></path><path d="M 199.5 69 h 20"></path><g class="terminal ">
<path d="M 219.5 69 h 12.75"></path><path d="M 277.75 69 h 12.75"></path><rect height="22" rx="10" ry="10" width="45.5" x="232.25" y="58"></rect><text x="255.0" y="73">' '</text></g><path d="M 290.5 69 h 20"></path><path d="M 199.5 69 a 10 10 0 0 1 10 10 v 10 a 10 10 0 0 0 10 10"></path><g class="terminal ">
<path d="M 219.5 99 h 0.0"></path><path d="M 290.5 99 h 0.0"></path><rect height="22" rx="10" ry="10" width="71.0" x="219.5" y="88"></rect><text x="255.0" y="103">TAGEND</text></g><path d="M 290.5 99 a 10 10 0 0 0 10 -10 v -10 a 10 10 0 0 1 10 -10"></path></g><path d="M 310.5 69 h 10"></path><path d="M 320.5 69 h 10"></path><g>
<path d="M 330.5 69 h 0.0"></path><path d="M 1008.0 69 h 0.0"></path><path d="M 330.5 69 h 10"></path><g>
<path d="M 340.5 69 h 0.0"></path><path d="M 998.0 69 h 0.0"></path><path d="M 340.5 69 h 20"></path><g>
<path d="M 360.5 69 h 0.0"></path><path d="M 978.0 69 h 0.0"></path><g class="terminal ">
<path d="M 360.5 69 h 0.0"></path><path d="M 406.0 69 h 0.0"></path><rect height="22" rx="10" ry="10" width="45.5" x="360.5" y="58"></rect><text x="383.25" y="73">'\'</text></g><path d="M 406.0 69 h 10"></path><path d="M 416.0 69 h 10"></path><g class="terminal ">
<path d="M 426.0 69 h 0.0"></path><path d="M 573.5 69 h 0.0"></path><rect height="22" rx="10" ry="10" width="147.5" x="426.0" y="58"></rect><text x="499.75" y="73">/t&#91;hc&#93;&#91;rc&#93;?\d+/</text></g><path d="M 573.5 69 h 10"></path><path d="M 583.5 69 h 10"></path><g>
<path d="M 593.5 69 h 0.0"></path><path d="M 704.5 69 h 0.0"></path><path d="M 593.5 69 h 20"></path><g class="terminal ">
<path d="M 613.5 69 h 12.75"></path><path d="M 671.75 69 h 12.75"></path><rect height="22" rx="10" ry="10" width="45.5" x="626.25" y="58"></rect><text x="649.0" y="73">' '</text></g><path d="M 684.5 69 h 20"></path><path d="M 593.5 69 a 10 10 0 0 1 10 10 v 10 a 10 10 0 0 0 10 10"></path><g class="terminal ">
<path d="M 613.5 99 h 0.0"></path><path d="M 684.5 99 h 0.0"></path><rect height="22" rx="10" ry="10" width="71.0" x="613.5" y="88"></rect><text x="649.0" y="103">TAGEND</text></g><path d="M 684.5 99 a 10 10 0 0 0 10 -10 v -10 a 10 10 0 0 1 10 -10"></path></g><path d="M 704.5 69 h 10"></path><path d="M 714.5 69 h 10"></path><g>
<path d="M 724.5 69 h 0.0"></path><path d="M 978.0 69 h 0.0"></path><path d="M 724.5 69 a 10 10 0 0 0 10 -10 v -9 a 10 10 0 0 1 10 -10"></path><g>
<path d="M 744.5 40 h 213.5"></path></g><path d="M 958.0 40 a 10 10 0 0 1 10 10 v 9 a 10 10 0 0 0 10 10"></path><path d="M 724.5 69 h 20"></path><g>
<path d="M 744.5 69 h 0.0"></path><path d="M 958.0 69 h 0.0"></path><path d="M 744.5 69 h 10"></path><g>
<path d="M 754.5 69 h 0.0"></path><path d="M 948.0 69 h 0.0"></path><path d="M 754.5 69 h 20"></path><g class="non-terminal ">
<path d="M 774.5 69 h 32.75"></path><path d="M 895.25 69 h 32.75"></path><rect height="22" width="88.0" x="807.25" y="58"></rect><text x="851.25" y="73">Footnote</text></g><path d="M 928.0 69 h 20"></path><path d="M 754.5 69 a 10 10 0 0 1 10 10 v 10 a 10 10 0 0 0 10 10"></path><g class="non-terminal ">
<path d="M 774.5 99 h 7.25"></path><path d="M 920.75 99 h 7.25"></path><rect height="22" width="139.0" x="781.75" y="88"></rect><text x="851.25" y="103">CrossReference</text></g><path d="M 928.0 99 a 10 10 0 0 0 10 -10 v -10 a 10 10 0 0 1 10 -10"></path><path d="M 754.5 69 a 10 10 0 0 1 10 10 v 40 a 10 10 0 0 0 10 10"></path><g class="non-terminal ">
<path d="M 774.5 129 h 49.75"></path><path d="M 878.25 129 h 49.75"></path><rect height="22" width="54.0" x="824.25" y="118"></rect><text x="851.25" y="133">Char</text></g><path d="M 928.0 129 a 10 10 0 0 0 10 -10 v -40 a 10 10 0 0 1 10 -10"></path><path d="M 754.5 69 a 10 10 0 0 1 10 10 v 70 a 10 10 0 0 0 10 10"></path><g class="non-terminal ">
<path d="M 774.5 159 h 28.5"></path><path d="M 899.5 159 h 28.5"></path><rect height="22" width="96.5" x="803.0" y="148"></rect><text x="851.25" y="163">Milestone</text></g><path d="M 928.0 159 a 10 10 0 0 0 10 -10 v -70 a 10 10 0 0 1 10 -10"></path><path d="M 754.5 69 a 10 10 0 0 1 10 10 v 100 a 10 10 0 0 0 10 10"></path><g class="non-terminal ">
<path d="M 774.5 189 h 45.5"></path><path d="M 882.5 189 h 45.5"></path><rect height="22" width="62.5" x="820.0" y="178"></rect><text x="851.25" y="193">Verse</text></g><path d="M 928.0 189 a 10 10 0 0 0 10 -10 v -100 a 10 10 0 0 1 10 -10"></path><path d="M 754.5 69 a 10 10 0 0 1 10 10 v 130 a 10 10 0 0 0 10 10"></path><g class="non-terminal ">
<path d="M 774.5 219 h 45.5"></path><path d="M 882.5 219 h 45.5"></path><rect height="22" width="62.5" x="820.0" y="208"></rect><text x="851.25" y="223">Break</text></g><path d="M 928.0 219 a 10 10 0 0 0 10 -10 v -130 a 10 10 0 0 1 10 -10"></path><path d="M 754.5 69 a 10 10 0 0 1 10 10 v 160 a 10 10 0 0 0 10 10"></path><g>
<path d="M 774.5 249 h 0.0"></path><path d="M 928.0 249 h 0.0"></path><g class="terminal ">
<path d="M 774.5 249 h 0.0"></path><path d="M 828.5 249 h 0.0"></path><rect height="22" rx="10" ry="10" width="54.0" x="774.5" y="238"></rect><text x="801.5" y="253">TEXT</text></g><path d="M 828.5 249 h 10"></path><path d="M 838.5 249 h 10"></path><g class="terminal ">
<path d="M 848.5 249 h 0.0"></path><path d="M 928.0 249 h 0.0"></path><rect height="22" rx="10" ry="10" width="79.5" x="848.5" y="238"></rect><text x="888.25" y="253">TEXTEND</text></g></g><path d="M 928.0 249 a 10 10 0 0 0 10 -10 v -160 a 10 10 0 0 1 10 -10"></path></g><path d="M 948.0 69 h 10"></path><path d="M 754.5 69 a 10 10 0 0 0 -10 10 v 189 a 10 10 0 0 0 10 10"></path><g>
<path d="M 754.5 278 h 193.5"></path></g><path d="M 948.0 278 a 10 10 0 0 0 10 -10 v -189 a 10 10 0 0 0 -10 -10"></path></g><path d="M 958.0 69 h 20"></path></g></g><path d="M 978.0 69 h 20"></path></g><path d="M 998.0 69 h 10"></path><path d="M 340.5 69 a 10 10 0 0 0 -10 10 v 217 a 10 10 0 0 0 10 10"></path><g>
<path d="M 340.5 306 h 657.5"></path></g><path d="M 998.0 306 a 10 10 0 0 0 10 -10 v -217 a 10 10 0 0 0 -10 -10"></path></g></g><path d="M 1008.0 69 h 10"></path><path d="M 60.0 69 a 10 10 0 0 0 -10 10 v 225 a 10 10 0 0 0 10 10"></path><g>
<path d="M 60.0 314 h 948.0"></path></g><path d="M 1008.0 314 a 10 10 0 0 0 10 -10 v -225 a 10 10 0 0 0 -10 -10"></path></g></g><path d="M 1018.0 69 h 10"></path><path d="M 1028.0 69 h 20 m 0 -10 v 20"></path></g></svg>