<svg class="railroad-diagram" height="364" viewBox="0 0 1309.5 364" width="1309.5" xmlns="http://www.w3.org/2000/svg" xmlns:xlink="http://www.w3.org/1999/xlink">
<g transform="translate(.5 .5)">
<style>/* <![CDATA[ */

    svg.railroad-diagram {
        background-color: hsl(30,20%,95%);
    }
    svg.railroad-diagram path {
        stroke-width: 2;
        stroke: black;
        fill: none;
    }
    svg.railroad-diagram text {
        font-size: 12px;
        text-anchor: middle;
        font-family: DejaVu Sans;
    }
    svg.railroad-diagram text.label {
        text-anchor:start;
    }
    svg.railroad-diagram text.comment {
        font-family: DejaVu Sans;
        font-size: 14px;
    }
    svg.railroad-diagram rect{
        stroke-width: 2;
        stroke: black;
        fill: rgb(210, 255, 210);
    }
    svg.railroad-diagram rect.group-box {
        stroke: gray;
        stroke-dasharray: 10 5;
        fill: none;
    }
    .terminal {
        font-family: DejaVu Sans;
    }
    svg.railroad-diagram g.altterminal rect {
        fill: rgb(251, 252, 207)
    }

/* ]]> */
</style><g>
<path d="M 20 59 v 20 m 0 -10 h 20"></path></g><path d="M 40 69 h 10"></path><g>
<path d="M 50 69 h 0.0"></path><path d="M 1259.5 69 h 0.0"></path><g>
<path d="M 50.0 69 h 0.0"></path><path d="M 1259.5 69 h 0.0"></path><path d="M 50.0 69 h 10"></path><g>
<path d="M 60.0 69 h 0.0"></path><path d="M 1249.5 69 h 0.0"></path><g>
<path d="M 60.0 69 h 0.0"></path><path d="M 196.5 69 h 0.0"></path><path d="M 60.0 69 h 20"></path><g class="terminal ">
<path d="M 80.0 69 h 12.75"></path><path d="M 163.75 69 h 12.75"></path><rect height="22" rx="10" ry="10" width="71.0" x="92.75" y="58"></rect><text x="128.25" y="73">'\n\\'</text></g><path d="M 176.5 69 h 20"></path><path d="M 60.0 69 a 10 10 0 0 1 10 10 v 10 a 10 10 0 0 0 10 10"></path><g class="terminal altterminal">
<path d="M 80.0 99 h 0.0"></path><path d="M 176.5 99 h 0.0"></path><rect height="22" rx="10" ry="10" width="96.5" x="80.0" y="88"></rect><text x="128.25" y="103">/${Ws}\\/</text></g><path d="M 176.5 99 a 10 10 0 0 0 10 -10 v -10 a 10 10 0 0 1 10 -10"></path></g><path d="M 196.5 69 h 10"></path><path d="M 206.5 69 h 10"></path><g class="terminal ">
<path d="M 216.5 69 h 0.0"></path><path d="M 270.5 69 h 0.0"></path><rect height="22" rx="10" ry="10" width="54.0" x="216.5" y="58"></rect><text x="243.5" y="73">"tr"</text></g><path d="M 270.5 69 h 10"></path><path d="M 280.5 69 h 10"></path><g>
<path d="M 290.5 69 h 0.0"></path><path d="M 401.5 69 h 0.0"></path><path d="M 290.5 69 h 20"></path><g class="terminal ">
<path d="M 310.5 69 h 12.75"></path><path d="M 368.75 69 h 12.75"></path><rect height="22" rx="10" ry="10" width="45.5" x="323.25" y="58"></rect><text x="346.0" y="73">' '</text></g><path d="M 381.5 69 h 20"></path><path d="M 290.5 69 a 10 10 0 0 1 10 10 v 10 a 10 10 0 0 0 10 10"></path><g class="terminal altterminal">
<path d="M 310.5 99 h 0.0"></path><path d="M 381.5 99 h 0.0"></path><rect height="22" rx="10" ry="10" width="71.0" x="310.5" y="88"></rect><text x="346.0" y="103">TAGEND</text></g><path d="M 381.5 99 a 10 10 0 0 0 10 -10 v -10 a 10 10 0 0 1 10 -10"></path></g><path d="M 401.5 69 h 10"></path><path d="M 411.5 69 h 10"></path><g>
<path d="M 421.5 69 h 0.0"></path><path d="M 1249.5 69 h 0.0"></path><path d="M 421.5 69 h 10"></path><g>
<path d="M 431.5 69 h 0.0"></path><path d="M 1239.5 69 h 0.0"></path><path d="M 431.5 69 h 20"></path><g>
<path d="M 451.5 69 h 0.0"></path><path d="M 1219.5 69 h 0.0"></path><g>
<path d="M 451.5 69 h 0.0"></path><path d="M 588.0 69 h 0.0"></path><path d="M 451.5 69 h 20"></path><g class="terminal ">
<path d="M 471.5 69 h 12.75"></path><path d="M 555.25 69 h 12.75"></path><rect height="22" rx="10" ry="10" width="71.0" x="484.25" y="58"></rect><text x="519.75" y="73">'\n\\'</text></g><path d="M 568.0 69 h 20"></path><path d="M 451.5 69 a 10 10 0 0 1 10 10 v 10 a 10 10 0 0 0 10 10"></path><g class="terminal altterminal">
<path d="M 471.5 99 h 0.0"></path><path d="M 568.0 99 h 0.0"></path><rect height="22" rx="10" ry="10" width="96.5" x="471.5" y="88"></rect><text x="519.75" y="103">/${Ws}\\/</text></g><path d="M 568.0 99 a 10 10 0 0 0 10 -10 v -10 a 10 10 0 0 1 10 -10"></path></g><path d="M 588.0 69 h 10"></path><path d="M 598.0 69 h 10"></path><g class="terminal ">
<path d="M 608.0 69 h 0.0"></path><path d="M 815.0 69 h 0.0"></path><rect height="22" rx="10" ry="10" width="207.0" x="608.0" y="58"></rect><text x="711.5" y="73">/t&#91;hc&#93;&#91;rc&#93;?\d+(-\d+)?/</text></g><path d="M 815.0 69 h 10"></path><path d="M 825.0 69 h 10"></path><g>
<path d="M 835.0 69 h 0.0"></path><path d="M 946.0 69 h 0.0"></path><path d="M 835.0 69 h 20"></path><g class="terminal ">
<path d="M 855.0 69 h 12.75"></path><path d="M 913.25 69 h 12.75"></path><rect height="22" rx="10" ry="10" width="45.5" x="867.75" y="58"></rect><text x="890.5" y="73">' '</text></g><path d="M 926.0 69 h 20"></path><path d="M 835.0 69 a 10 10 0 0 1 10 10 v 10 a 10 10 0 0 0 10 10"></path><g class="terminal altterminal">
<path d="M 855.0 99 h 0.0"></path><path d="M 926.0 99 h 0.0"></path><rect height="22" rx="10" ry="10" width="71.0" x="855.0" y="88"></rect><text x="890.5" y="103">TAGEND</text></g><path d="M 926.0 99 a 10 10 0 0 0 10 -10 v -10 a 10 10 0 0 1 10 -10"></path></g><path d="M 946.0 69 h 10"></path><path d="M 956.0 69 h 10"></path><g>
<path d="M 966.0 69 h 0.0"></path><path d="M 1219.5 69 h 0.0"></path><path d="M 966.0 69 a 10 10 0 0 0 10 -10 v -9 a 10 10 0 0 1 10 -10"></path><g>
<path d="M 986.0 40 h 213.5"></path></g><path d="M 1199.5 40 a 10 10 0 0 1 10 10 v 9 a 10 10 0 0 0 10 10"></path><path d="M 966.0 69 h 20"></path><g>
<path d="M 986.0 69 h 0.0"></path><path d="M 1199.5 69 h 0.0"></path><path d="M 986.0 69 h 10"></path><g>
<path d="M 996.0 69 h 0.0"></path><path d="M 1189.5 69 h 0.0"></path><path d="M 996.0 69 h 20"></path><g>
<path d="M 1016.0 69 h 0.0"></path><path d="M 1169.5 69 h 0.0"></path><g class="terminal ">
<path d="M 1016.0 69 h 0.0"></path><path d="M 1070.0 69 h 0.0"></path><rect height="22" rx="10" ry="10" width="54.0" x="1016.0" y="58"></rect><text x="1043.0" y="73">TEXT</text></g><path d="M 1070.0 69 h 10"></path><path d="M 1080.0 69 h 10"></path><g class="terminal ">
<path d="M 1090.0 69 h 0.0"></path><path d="M 1169.5 69 h 0.0"></path><rect height="22" rx="10" ry="10" width="79.5" x="1090.0" y="58"></rect><text x="1129.75" y="73">TEXTEND</text></g></g><path d="M 1169.5 69 h 20"></path><path d="M 996.0 69 a 10 10 0 0 1 10 10 v 10 a 10 10 0 0 0 10 10"></path><g class="non-terminal ">
<path d="M 1016.0 99 h 49.75"></path><path d="M 1119.75 99 h 49.75"></path><rect height="22" width="54.0" x="1065.75" y="88"></rect><text x="1092.75" y="103">Char</text></g><path d="M 1169.5 99 a 10 10 0 0 0 10 -10 v -10 a 10 10 0 0 1 10 -10"></path><path d="M 996.0 69 a 10 10 0 0 1 10 10 v 40 a 10 10 0 0 0 10 10"></path><g class="non-terminal ">
<path d="M 1016.0 129 h 41.25"></path><path d="M 1128.25 129 h 41.25"></path><rect height="22" width="71.0" x="1057.25" y="118"></rect><text x="1092.75" y="133">Figure</text></g><path d="M 1169.5 129 a 10 10 0 0 0 10 -10 v -40 a 10 10 0 0 1 10 -10"></path><path d="M 996.0 69 a 10 10 0 0 1 10 10 v 70 a 10 10 0 0 0 10 10"></path><g class="non-terminal ">
<path d="M 1016.0 159 h 28.5"></path><path d="M 1141.0 159 h 28.5"></path><rect height="22" width="96.5" x="1044.5" y="148"></rect><text x="1092.75" y="163">Milestone</text></g><path d="M 1169.5 159 a 10 10 0 0 0 10 -10 v -70 a 10 10 0 0 1 10 -10"></path><path d="M 996.0 69 a 10 10 0 0 1 10 10 v 100 a 10 10 0 0 0 10 10"></path><g class="non-terminal ">
<path d="M 1016.0 189 h 45.5"></path><path d="M 1124.0 189 h 45.5"></path><rect height="22" width="62.5" x="1061.5" y="178"></rect><text x="1092.75" y="193">Verse</text></g><path d="M 1169.5 189 a 10 10 0 0 0 10 -10 v -100 a 10 10 0 0 1 10 -10"></path><path d="M 996.0 69 a 10 10 0 0 1 10 10 v 130 a 10 10 0 0 0 10 10"></path><g class="non-terminal ">
<path d="M 1016.0 219 h 32.75"></path><path d="M 1136.75 219 h 32.75"></path><rect height="22" width="88.0" x="1048.75" y="208"></rect><text x="1092.75" y="223">Footnote</text></g><path d="M 1169.5 219 a 10 10 0 0 0 10 -10 v -130 a 10 10 0 0 1 10 -10"></path><path d="M 996.0 69 a 10 10 0 0 1 10 10 v 160 a 10 10 0 0 0 10 10"></path><g class="non-terminal ">
<path d="M 1016.0 249 h 7.25"></path><path d="M 1162.25 249 h 7.25"></path><rect height="22" width="139.0" x="1023.25" y="238"></rect><text x="1092.75" y="253">CrossReference</text></g><path d="M 1169.5 249 a 10 10 0 0 0 10 -10 v -160 a 10 10 0 0 1 10 -10"></path><path d="M 996.0 69 a 10 10 0 0 1 10 10 v 190 a 10 10 0 0 0 10 10"></path><g class="non-terminal ">
<path d="M 1016.0 279 h 45.5"></path><path d="M 1124.0 279 h 45.5"></path><rect height="22" width="62.5" x="1061.5" y="268"></rect><text x="1092.75" y="283">Break</text></g><path d="M 1169.5 279 a 10 10 0 0 0 10 -10 v -190 a 10 10 0 0 1 10 -10"></path></g><path d="M 1189.5 69 h 10"></path><path d="M 996.0 69 a 10 10 0 0 0 -10 10 v 219 a 10 10 0 0 0 10 10"></path><g>
<path d="M 996.0 308 h 193.5"></path></g><path d="M 1189.5 308 a 10 10 0 0 0 10 -10 v -219 a 10 10 0 0 0 -10 -10"></path></g><path d="M 1199.5 69 h 20"></path></g></g><path d="M 1219.5 69 h 20"></path></g><path d="M 1239.5 69 h 10"></path><path d="M 431.5 69 a 10 10 0 0 0 -10 10 v 247 a 10 10 0 0 0 10 10"></path><g>
<path d="M 431.5 336 h 808.0"></path></g><path d="M 1239.5 336 a 10 10 0 0 0 10 -10 v -247 a 10 10 0 0 0 -10 -10"></path></g></g><path d="M 1249.5 69 h 10"></path><path d="M 60.0 69 a 10 10 0 0 0 -10 10 v 255 a 10 10 0 0 0 10 10"></path><g>
<path d="M 60.0 344 h 1189.5"></path></g><path d="M 1249.5 344 a 10 10 0 0 0 10 -10 v -255 a 10 10 0 0 0 -10 -10"></path></g></g><path d="M 1259.5 69 h 10"></path><path d="M 1269.5 69 h 20 m 0 -10 v 20"></path></g></svg>