<svg class="railroad-diagram" height="334" viewBox="0 0 1250.0 334" width="1250.0" xmlns="http://www.w3.org/2000/svg" xmlns:xlink="http://www.w3.org/1999/xlink">
<g transform="translate(.5 .5)">
<style>/* <![CDATA[ */

    svg.railroad-diagram {
        background-color: hsl(30,20%,95%);
    }
    svg.railroad-diagram path {
        stroke-width: 2;
        stroke: black;
        fill: none;
    }
    svg.railroad-diagram text {
        font-size: 12px;
        text-anchor: middle;
        font-family: DejaVu Sans;
    }
    svg.railroad-diagram text.label {
        text-anchor:start;
    }
    svg.railroad-diagram text.comment {
        font-family: DejaVu Sans;
        font-size: 14px;
    }
    svg.railroad-diagram rect{
        stroke-width: 2;
        stroke: black;
        fill: rgb(210, 255, 210);
    }
    svg.railroad-diagram rect.group-box {
        stroke: gray;
        stroke-dasharray: 10 5;
        fill: none;
    }
    .terminal {
        font-family: DejaVu Sans;
    }
    svg.railroad-diagram g.altterminal rect {
        fill: rgb(251, 252, 207)
    }

/* ]]> */
</style><g>
<path d="M 20 59 v 20 m 0 -10 h 20"></path></g><path d="M 40 69 h 10"></path><g>
<path d="M 50 69 h 0.0"></path><path d="M 1200.0 69 h 0.0"></path><g>
<path d="M 50.0 69 h 0.0"></path><path d="M 1200.0 69 h 0.0"></path><path d="M 50.0 69 h 10"></path><g>
<path d="M 60.0 69 h 0.0"></path><path d="M 1190.0 69 h 0.0"></path><g>
<path d="M 60.0 69 h 0.0"></path><path d="M 196.5 69 h 0.0"></path><path d="M 60.0 69 h 20"></path><g class="terminal ">
<path d="M 80.0 69 h 12.75"></path><path d="M 163.75 69 h 12.75"></path><rect height="22" rx="10" ry="10" width="71.0" x="92.75" y="58"></rect><text x="128.25" y="73">'\n\\'</text></g><path d="M 176.5 69 h 20"></path><path d="M 60.0 69 a 10 10 0 0 1 10 10 v 10 a 10 10 0 0 0 10 10"></path><g class="terminal altterminal">
<path d="M 80.0 99 h 0.0"></path><path d="M 176.5 99 h 0.0"></path><rect height="22" rx="10" ry="10" width="96.5" x="80.0" y="88"></rect><text x="128.25" y="103">/${Ws}\\/</text></g><path d="M 176.5 99 a 10 10 0 0 0 10 -10 v -10 a 10 10 0 0 1 10 -10"></path></g><path d="M 196.5 69 h 10"></path><path d="M 206.5 69 h 10"></path><g class="terminal ">
<path d="M 216.5 69 h 0.0"></path><path d="M 270.5 69 h 0.0"></path><rect height="22" rx="10" ry="10" width="54.0" x="216.5" y="58"></rect><text x="243.5" y="73">"tr"</text></g><path d="M 270.5 69 h 10"></path><path d="M 280.5 69 h 10"></path><g>
<path d="M 290.5 69 h 0.0"></path><path d="M 401.5 69 h 0.0"></path><path d="M 290.5 69 h 20"></path><g class="terminal ">
<path d="M 310.5 69 h 12.75"></path><path d="M 368.75 69 h 12.75"></path><rect height="22" rx="10" ry="10" width="45.5" x="323.25" y="58"></rect><text x="346.0" y="73">' '</text></g><path d="M 381.5 69 h 20"></path><path d="M 290.5 69 a 10 10 0 0 1 10 10 v 10 a 10 10 0 0 0 10 10"></path><g class="terminal altterminal">
<path d="M 310.5 99 h 0.0"></path><path d="M 381.5 99 h 0.0"></path><rect height="22" rx="10" ry="10" width="71.0" x="310.5" y="88"></rect><text x="346.0" y="103">TAGEND</text></g><path d="M 381.5 99 a 10 10 0 0 0 10 -10 v -10 a 10 10 0 0 1 10 -10"></path></g><path d="M 401.5 69 h 10"></path><path d="M 411.5 69 h 10"></path><g>
<path d="M 421.5 69 h 0.0"></path><path d="M 1190.0 69 h 0.0"></path><path d="M 421.5 69 h 10"></path><g>
<path d="M 431.5 69 h 0.0"></path><path d="M 1180.0 69 h 0.0"></path><path d="M 431.5 69 h 20"></path><g>
<path d="M 451.5 69 h 0.0"></path><path d="M 1160.0 69 h 0.0"></path><g>
<path d="M 451.5 69 h 0.0"></path><path d="M 588.0 69 h 0.0"></path><path d="M 451.5 69 h 20"></path><g class="terminal ">
<path d="M 471.5 69 h 12.75"></path><path d="M 555.25 69 h 12.75"></path><rect height="22" rx="10" ry="10" width="71.0" x="484.25" y="58"></rect><text x="519.75" y="73">'\n\\'</text></g><path d="M 568.0 69 h 20"></path><path d="M 451.5 69 a 10 10 0 0 1 10 10 v 10 a 10 10 0 0 0 10 10"></path><g class="terminal altterminal">
<path d="M 471.5 99 h 0.0"></path><path d="M 568.0 99 h 0.0"></path><rect height="22" rx="10" ry="10" width="96.5" x="471.5" y="88"></rect><text x="519.75" y="103">/${Ws}\\/</text></g><path d="M 568.0 99 a 10 10 0 0 0 10 -10 v -10 a 10 10 0 0 1 10 -10"></path></g><path d="M 588.0 69 h 10"></path><path d="M 598.0 69 h 10"></path><g class="terminal ">
<path d="M 608.0 69 h 0.0"></path><path d="M 755.5 69 h 0.0"></path><rect height="22" rx="10" ry="10" width="147.5" x="608.0" y="58"></rect><text x="681.75" y="73">/t&#91;hc&#93;&#91;rc&#93;?\d+/</text></g><path d="M 755.5 69 h 10"></path><path d="M 765.5 69 h 10"></path><g>
<path d="M 775.5 69 h 0.0"></path><path d="M 886.5 69 h 0.0"></path><path d="M 775.5 69 h 20"></path><g class="terminal ">
<path d="M 795.5 69 h 12.75"></path><path d="M 853.75 69 h 12.75"></path><rect height="22" rx="10" ry="10" width="45.5" x="808.25" y="58"></rect><text x="831.0" y="73">' '</text></g><path d="M 866.5 69 h 20"></path><path d="M 775.5 69 a 10 10 0 0 1 10 10 v 10 a 10 10 0 0 0 10 10"></path><g class="terminal altterminal">
<path d="M 795.5 99 h 0.0"></path><path d="M 866.5 99 h 0.0"></path><rect height="22" rx="10" ry="10" width="71.0" x="795.5" y="88"></rect><text x="831.0" y="103">TAGEND</text></g><path d="M 866.5 99 a 10 10 0 0 0 10 -10 v -10 a 10 10 0 0 1 10 -10"></path></g><path d="M 886.5 69 h 10"></path><path d="M 896.5 69 h 10"></path><g>
<path d="M 906.5 69 h 0.0"></path><path d="M 1160.0 69 h 0.0"></path><path d="M 906.5 69 a 10 10 0 0 0 10 -10 v -9 a 10 10 0 0 1 10 -10"></path><g>
<path d="M 926.5 40 h 213.5"></path></g><path d="M 1140.0 40 a 10 10 0 0 1 10 10 v 9 a 10 10 0 0 0 10 10"></path><path d="M 906.5 69 h 20"></path><g>
<path d="M 926.5 69 h 0.0"></path><path d="M 1140.0 69 h 0.0"></path><path d="M 926.5 69 h 10"></path><g>
<path d="M 936.5 69 h 0.0"></path><path d="M 1130.0 69 h 0.0"></path><path d="M 936.5 69 h 20"></path><g>
<path d="M 956.5 69 h 0.0"></path><path d="M 1110.0 69 h 0.0"></path><g class="terminal ">
<path d="M 956.5 69 h 0.0"></path><path d="M 1010.5 69 h 0.0"></path><rect height="22" rx="10" ry="10" width="54.0" x="956.5" y="58"></rect><text x="983.5" y="73">TEXT</text></g><path d="M 1010.5 69 h 10"></path><path d="M 1020.5 69 h 10"></path><g class="terminal ">
<path d="M 1030.5 69 h 0.0"></path><path d="M 1110.0 69 h 0.0"></path><rect height="22" rx="10" ry="10" width="79.5" x="1030.5" y="58"></rect><text x="1070.25" y="73">TEXTEND</text></g></g><path d="M 1110.0 69 h 20"></path><path d="M 936.5 69 a 10 10 0 0 1 10 10 v 10 a 10 10 0 0 0 10 10"></path><g class="non-terminal ">
<path d="M 956.5 99 h 49.75"></path><path d="M 1060.25 99 h 49.75"></path><rect height="22" width="54.0" x="1006.25" y="88"></rect><text x="1033.25" y="103">Char</text></g><path d="M 1110.0 99 a 10 10 0 0 0 10 -10 v -10 a 10 10 0 0 1 10 -10"></path><path d="M 936.5 69 a 10 10 0 0 1 10 10 v 40 a 10 10 0 0 0 10 10"></path><g class="non-terminal ">
<path d="M 956.5 129 h 28.5"></path><path d="M 1081.5 129 h 28.5"></path><rect height="22" width="96.5" x="985.0" y="118"></rect><text x="1033.25" y="133">Milestone</text></g><path d="M 1110.0 129 a 10 10 0 0 0 10 -10 v -40 a 10 10 0 0 1 10 -10"></path><path d="M 936.5 69 a 10 10 0 0 1 10 10 v 70 a 10 10 0 0 0 10 10"></path><g class="non-terminal ">
<path d="M 956.5 159 h 45.5"></path><path d="M 1064.5 159 h 45.5"></path><rect height="22" width="62.5" x="1002.0" y="148"></rect><text x="1033.25" y="163">Verse</text></g><path d="M 1110.0 159 a 10 10 0 0 0 10 -10 v -70 a 10 10 0 0 1 10 -10"></path><path d="M 936.5 69 a 10 10 0 0 1 10 10 v 100 a 10 10 0 0 0 10 10"></path><g class="non-terminal ">
<path d="M 956.5 189 h 32.75"></path><path d="M 1077.25 189 h 32.75"></path><rect height="22" width="88.0" x="989.25" y="178"></rect><text x="1033.25" y="193">Footnote</text></g><path d="M 1110.0 189 a 10 10 0 0 0 10 -10 v -100 a 10 10 0 0 1 10 -10"></path><path d="M 936.5 69 a 10 10 0 0 1 10 10 v 130 a 10 10 0 0 0 10 10"></path><g class="non-terminal ">
<path d="M 956.5 219 h 7.25"></path><path d="M 1102.75 219 h 7.25"></path><rect height="22" width="139.0" x="963.75" y="208"></rect><text x="1033.25" y="223">CrossReference</text></g><path d="M 1110.0 219 a 10 10 0 0 0 10 -10 v -130 a 10 10 0 0 1 10 -10"></path><path d="M 936.5 69 a 10 10 0 0 1 10 10 v 160 a 10 10 0 0 0 10 10"></path><g class="non-terminal ">
<path d="M 956.5 249 h 45.5"></path><path d="M 1064.5 249 h 45.5"></path><rect height="22" width="62.5" x="1002.0" y="238"></rect><text x="1033.25" y="253">Break</text></g><path d="M 1110.0 249 a 10 10 0 0 0 10 -10 v -160 a 10 10 0 0 1 10 -10"></path></g><path d="M 1130.0 69 h 10"></path><path d="M 936.5 69 a 10 10 0 0 0 -10 10 v 189 a 10 10 0 0 0 10 10"></path><g>
<path d="M 936.5 278 h 193.5"></path></g><path d="M 1130.0 278 a 10 10 0 0 0 10 -10 v -189 a 10 10 0 0 0 -10 -10"></path></g><path d="M 1140.0 69 h 20"></path></g></g><path d="M 1160.0 69 h 20"></path></g><path d="M 1180.0 69 h 10"></path><path d="M 431.5 69 a 10 10 0 0 0 -10 10 v 217 a 10 10 0 0 0 10 10"></path><g>
<path d="M 431.5 306 h 748.5"></path></g><path d="M 1180.0 306 a 10 10 0 0 0 10 -10 v -217 a 10 10 0 0 0 -10 -10"></path></g></g><path d="M 1190.0 69 h 10"></path><path d="M 60.0 69 a 10 10 0 0 0 -10 10 v 225 a 10 10 0 0 0 10 10"></path><g>
<path d="M 60.0 314 h 1130.0"></path></g><path d="M 1190.0 314 a 10 10 0 0 0 10 -10 v -225 a 10 10 0 0 0 -10 -10"></path></g></g><path d="M 1200.0 69 h 10"></path><path d="M 1210.0 69 h 20 m 0 -10 v 20"></path></g></svg>