<svg class="railroad-diagram" height="436" viewBox="0 0 1583.0 436" width="1583.0" xmlns="http://www.w3.org/2000/svg" xmlns:xlink="http://www.w3.org/1999/xlink">
<g transform="translate(.5 .5)">
<style>/* <![CDATA[ */

    svg.railroad-diagram {
        background-color: hsl(30,20%,95%);
    }
    svg.railroad-diagram path {
        stroke-width: 2;
        stroke: black;
        fill: none;
    }
    svg.railroad-diagram text {
        font-size: 12px;
        text-anchor: middle;
        font-family: DejaVu Sans;
    }
    svg.railroad-diagram text.label {
        text-anchor:start;
    }
    svg.railroad-diagram text.comment {
        font-family: DejaVu Sans;
        font-size: 14px;
    }
    svg.railroad-diagram rect{
        stroke-width: 2;
        stroke: black;
        fill: rgb(210, 255, 210);
    }
    svg.railroad-diagram rect.group-box {
        stroke: gray;
        stroke-dasharray: 10 5;
        fill: none;
    }
    .terminal {
        font-family: DejaVu Sans;
    }
    svg.railroad-diagram g.altterminal rect {
        fill: rgb(251, 252, 207)
    }

/* ]]> */
</style><g>
<path d="M 20 31 v 20 m 0 -10 h 20"></path></g><path d="M 40 41 h 10"></path><g>
<path d="M 50 41 h 0.0"></path><path d="M 1533.0 326 h 0.0"></path><g>
<path d="M 50.0 41 h 0.0"></path><path d="M 50.0 41 h 10"></path><g>
<path d="M 60.0 41 h 610.5"></path><path d="M 912.5 41 h 610.5"></path><g class="terminal ">
<path d="M 670.5 41 h 0.0"></path><path d="M 716.0 41 h 0.0"></path><rect height="22" rx="10" ry="10" width="45.5" x="670.5" y="30"></rect><text x="693.25" y="45">'\'</text></g><path d="M 716.0 41 h 10"></path><path d="M 726.0 41 h 10"></path><g class="terminal ">
<path d="M 736.0 41 h 0.0"></path><path d="M 781.5 41 h 0.0"></path><rect height="22" rx="10" ry="10" width="45.5" x="736.0" y="30"></rect><text x="758.75" y="45">"v"</text></g><path d="M 781.5 41 h 10"></path><path d="M 791.5 41 h 10"></path><g>
<path d="M 801.5 41 h 0.0"></path><path d="M 912.5 41 h 0.0"></path><path d="M 801.5 41 h 20"></path><g class="terminal ">
<path d="M 821.5 41 h 12.75"></path><path d="M 879.75 41 h 12.75"></path><rect height="22" rx="10" ry="10" width="45.5" x="834.25" y="30"></rect><text x="857.0" y="45">' '</text></g><path d="M 892.5 41 h 20"></path><path d="M 801.5 41 a 10 10 0 0 1 10 10 v 10 a 10 10 0 0 0 10 10"></path><g class="terminal altterminal">
<path d="M 821.5 71 h 0.0"></path><path d="M 892.5 71 h 0.0"></path><rect height="22" rx="10" ry="10" width="71.0" x="821.5" y="60"></rect><text x="857.0" y="75">TAGEND</text></g><path d="M 892.5 71 a 10 10 0 0 0 10 -10 v -10 a 10 10 0 0 1 10 -10"></path></g></g><path d="M 1523.0 41 a 10 10 0 0 1 10 10 v 39 a 10 10 0 0 1 -10 10 h -1463.0 a 10 10 0 0 0 -10 10 v 9 a 10 10 0 0 0 10 10"></path><g>
<path d="M 60.0 129 h 10.0"></path><path d="M 1513.0 129 h 10.0"></path><g class="terminal ">
<path d="M 70.0 129 h 0.0"></path><path d="M 591.5 129 h 0.0"></path><rect height="22" rx="10" ry="10" width="521.5" x="70.0" y="118"></rect><text x="330.75" y="133">/&#91;0-9&#93;+&#91;\p{L}\p{Mn}&#93;&#42;(\x{200F}?&#91;\-,&#93;&#91;0-9&#93;+&#91;\p{L}\p{Mn}&#93;&#42;)&#42;/</text></g><path d="M 591.5 129 h 10"></path><path d="M 601.5 129 h 10"></path><g>
<path d="M 611.5 129 h 0.0"></path><path d="M 1513.0 129 h 0.0"></path><path d="M 611.5 129 h 20"></path><g class="terminal ">
<path d="M 631.5 129 h 408.0"></path><path d="M 1085.0 129 h 408.0"></path><rect height="22" rx="10" ry="10" width="45.5" x="1039.5" y="118"></rect><text x="1062.25" y="133">' '</text></g><path d="M 1493.0 129 h 20"></path><path d="M 611.5 129 a 10 10 0 0 1 10 10 v 10 a 10 10 0 0 0 10 10"></path><g class="terminal altterminal">
<path d="M 631.5 159 h 0.0"></path><path d="M 1493.0 159 h 0.0"></path><rect height="22" rx="10" ry="10" width="861.5" x="631.5" y="148"></rect><text x="1062.25" y="163">/(?:&#91;\u0009-\u000D\u0020\u00A0\u1680\u2000-\u200B\u2028\u2029\u202F\u205F&#93;|\u000D?\u000A|$)|(?=\\)/</text></g><path d="M 1493.0 159 a 10 10 0 0 0 10 -10 v -10 a 10 10 0 0 1 10 -10"></path></g></g><path d="M 1523.0 129 a 10 10 0 0 1 10 10 v 39 a 10 10 0 0 1 -10 10 h -1463.0 a 10 10 0 0 0 -10 10 v 0 a 10 10 0 0 0 10 10"></path><g>
<path d="M 60.0 208 h 71.0"></path><path d="M 1452.0 208 h 71.0"></path><path d="M 131.0 208 h 20"></path><g>
<path d="M 151.0 208 h 1281.0"></path></g><path d="M 1432.0 208 h 20"></path><path d="M 131.0 208 a 10 10 0 0 1 10 10 v 9 a 10 10 0 0 0 10 10"></path><g>
<path d="M 151.0 237 h 0.0"></path><path d="M 1432.0 237 h 0.0"></path><g class="terminal ">
<path d="M 151.0 237 h 0.0"></path><path d="M 196.5 237 h 0.0"></path><rect height="22" rx="10" ry="10" width="45.5" x="151.0" y="226"></rect><text x="173.75" y="241">'\'</text></g><path d="M 196.5 237 h 10"></path><path d="M 206.5 237 h 10"></path><g class="terminal ">
<path d="M 216.5 237 h 0.0"></path><path d="M 270.5 237 h 0.0"></path><rect height="22" rx="10" ry="10" width="54.0" x="216.5" y="226"></rect><text x="243.5" y="241">'va'</text></g><path d="M 270.5 237 h 10"></path><path d="M 280.5 237 h 10"></path><g>
<path d="M 290.5 237 h 0.0"></path><path d="M 401.5 237 h 0.0"></path><path d="M 290.5 237 h 20"></path><g class="terminal ">
<path d="M 310.5 237 h 12.75"></path><path d="M 368.75 237 h 12.75"></path><rect height="22" rx="10" ry="10" width="45.5" x="323.25" y="226"></rect><text x="346.0" y="241">' '</text></g><path d="M 381.5 237 h 20"></path><path d="M 290.5 237 a 10 10 0 0 1 10 10 v 10 a 10 10 0 0 0 10 10"></path><g class="terminal altterminal">
<path d="M 310.5 267 h 0.0"></path><path d="M 381.5 267 h 0.0"></path><rect height="22" rx="10" ry="10" width="71.0" x="310.5" y="256"></rect><text x="346.0" y="271">TAGEND</text></g><path d="M 381.5 267 a 10 10 0 0 0 10 -10 v -10 a 10 10 0 0 1 10 -10"></path></g><path d="M 401.5 237 h 10"></path><path d="M 411.5 237 h 10"></path><g class="terminal ">
<path d="M 421.5 237 h 0.0"></path><path d="M 475.5 237 h 0.0"></path><rect height="22" rx="10" ry="10" width="54.0" x="421.5" y="226"></rect><text x="448.5" y="241">TEXT</text></g><path d="M 475.5 237 h 10"></path><path d="M 485.5 237 h 10"></path><g class="terminal ">
<path d="M 495.5 237 h 0.0"></path><path d="M 575.0 237 h 0.0"></path><rect height="22" rx="10" ry="10" width="79.5" x="495.5" y="226"></rect><text x="535.25" y="241">TEXTEND</text></g><path d="M 575.0 237 h 10"></path><path d="M 585.0 237 h 10"></path><g class="terminal ">
<path d="M 595.0 237 h 0.0"></path><path d="M 640.5 237 h 0.0"></path><rect height="22" rx="10" ry="10" width="45.5" x="595.0" y="226"></rect><text x="617.75" y="241">'\'</text></g><path d="M 640.5 237 h 10"></path><path d="M 650.5 237 h 10"></path><g class="terminal ">
<path d="M 660.5 237 h 0.0"></path><path d="M 714.5 237 h 0.0"></path><rect height="22" rx="10" ry="10" width="54.0" x="660.5" y="226"></rect><text x="687.5" y="241">'va'</text></g><path d="M 714.5 237 h 10"></path><path d="M 724.5 237 h 10"></path><g>
<path d="M 734.5 237 h 0.0"></path><path d="M 1432.0 237 h 0.0"></path><path d="M 734.5 237 h 20"></path><g class="terminal ">
<path d="M 754.5 237 h 297.5"></path><path d="M 1114.5 237 h 297.5"></path><rect height="22" rx="10" ry="10" width="62.5" x="1052.0" y="226"></rect><text x="1083.25" y="241">'\&#42; '</text></g><path d="M 1412.0 237 h 20"></path><path d="M 734.5 237 a 10 10 0 0 1 10 10 v 10 a 10 10 0 0 0 10 10"></path><g class="terminal altterminal">
<path d="M 754.5 267 h 0.0"></path><path d="M 1412.0 267 h 0.0"></path><rect height="22" rx="10" ry="10" width="657.5" x="754.5" y="256"></rect><text x="1083.25" y="271">/\&#42;&#91;\u0009-\u000D\u0020\u00A0\u1680\u2000-\u200B\u2028\u2029\u202F\u205F&#93;&#42;/</text></g><path d="M 1412.0 267 a 10 10 0 0 0 10 -10 v -10 a 10 10 0 0 1 10 -10"></path></g></g><path d="M 1432.0 237 a 10 10 0 0 0 10 -10 v -9 a 10 10 0 0 1 10 -10"></path></g><path d="M 1523.0 208 a 10 10 0 0 1 10 10 v 78 a 10 10 0 0 1 -10 10 h -1463.0 a 10 10 0 0 0 -10 10 v 0 a 10 10 0 0 0 10 10"></path><g>
<path d="M 60.0 326 h 71.0"></path><path d="M 1452.0 326 h 71.0"></path><path d="M 131.0 326 h 20"></path><g>
<path d="M 151.0 326 h 1281.0"></path></g><path d="M 1432.0 326 h 20"></path><path d="M 131.0 326 a 10 10 0 0 1 10 10 v 9 a 10 10 0 0 0 10 10"></path><g>
<path d="M 151.0 355 h 0.0"></path><path d="M 1432.0 355 h 0.0"></path><g class="terminal ">
<path d="M 151.0 355 h 0.0"></path><path d="M 196.5 355 h 0.0"></path><rect height="22" rx="10" ry="10" width="45.5" x="151.0" y="344"></rect><text x="173.75" y="359">'\'</text></g><path d="M 196.5 355 h 10"></path><path d="M 206.5 355 h 10"></path><g class="terminal ">
<path d="M 216.5 355 h 0.0"></path><path d="M 270.5 355 h 0.0"></path><rect height="22" rx="10" ry="10" width="54.0" x="216.5" y="344"></rect><text x="243.5" y="359">'vp'</text></g><path d="M 270.5 355 h 10"></path><path d="M 280.5 355 h 10"></path><g>
<path d="M 290.5 355 h 0.0"></path><path d="M 401.5 355 h 0.0"></path><path d="M 290.5 355 h 20"></path><g class="terminal ">
<path d="M 310.5 355 h 12.75"></path><path d="M 368.75 355 h 12.75"></path><rect height="22" rx="10" ry="10" width="45.5" x="323.25" y="344"></rect><text x="346.0" y="359">' '</text></g><path d="M 381.5 355 h 20"></path><path d="M 290.5 355 a 10 10 0 0 1 10 10 v 10 a 10 10 0 0 0 10 10"></path><g class="terminal altterminal">
<path d="M 310.5 385 h 0.0"></path><path d="M 381.5 385 h 0.0"></path><rect height="22" rx="10" ry="10" width="71.0" x="310.5" y="374"></rect><text x="346.0" y="389">TAGEND</text></g><path d="M 381.5 385 a 10 10 0 0 0 10 -10 v -10 a 10 10 0 0 1 10 -10"></path></g><path d="M 401.5 355 h 10"></path><path d="M 411.5 355 h 10"></path><g class="terminal ">
<path d="M 421.5 355 h 0.0"></path><path d="M 475.5 355 h 0.0"></path><rect height="22" rx="10" ry="10" width="54.0" x="421.5" y="344"></rect><text x="448.5" y="359">TEXT</text></g><path d="M 475.5 355 h 10"></path><path d="M 485.5 355 h 10"></path><g class="terminal ">
<path d="M 495.5 355 h 0.0"></path><path d="M 575.0 355 h 0.0"></path><rect height="22" rx="10" ry="10" width="79.5" x="495.5" y="344"></rect><text x="535.25" y="359">TEXTEND</text></g><path d="M 575.0 355 h 10"></path><path d="M 585.0 355 h 10"></path><g class="terminal ">
<path d="M 595.0 355 h 0.0"></path><path d="M 640.5 355 h 0.0"></path><rect height="22" rx="10" ry="10" width="45.5" x="595.0" y="344"></rect><text x="617.75" y="359">'\'</text></g><path d="M 640.5 355 h 10"></path><path d="M 650.5 355 h 10"></path><g class="terminal ">
<path d="M 660.5 355 h 0.0"></path><path d="M 714.5 355 h 0.0"></path><rect height="22" rx="10" ry="10" width="54.0" x="660.5" y="344"></rect><text x="687.5" y="359">'vp'</text></g><path d="M 714.5 355 h 10"></path><path d="M 724.5 355 h 10"></path><g>
<path d="M 734.5 355 h 0.0"></path><path d="M 1432.0 355 h 0.0"></path><path d="M 734.5 355 h 20"></path><g class="terminal ">
<path d="M 754.5 355 h 297.5"></path><path d="M 1114.5 355 h 297.5"></path><rect height="22" rx="10" ry="10" width="62.5" x="1052.0" y="344"></rect><text x="1083.25" y="359">'\&#42; '</text></g><path d="M 1412.0 355 h 20"></path><path d="M 734.5 355 a 10 10 0 0 1 10 10 v 10 a 10 10 0 0 0 10 10"></path><g class="terminal altterminal">
<path d="M 754.5 385 h 0.0"></path><path d="M 1412.0 385 h 0.0"></path><rect height="22" rx="10" ry="10" width="657.5" x="754.5" y="374"></rect><text x="1083.25" y="389">/\&#42;&#91;\u0009-\u000D\u0020\u00A0\u1680\u2000-\u200B\u2028\u2029\u202F\u205F&#93;&#42;/</text></g><path d="M 1412.0 385 a 10 10 0 0 0 10 -10 v -10 a 10 10 0 0 1 10 -10"></path></g></g><path d="M 1432.0 355 a 10 10 0 0 0 10 -10 v -9 a 10 10 0 0 1 10 -10"></path></g><path d="M 1523.0 326 h 10"></path><path d="M 1533.0 326 h 0.0"></path></g></g><path d="M 1533.0 326 h 10"></path><path d="M 1543.0 326 h 20 m 0 -10 v 20"></path></g></svg>