<svg class="railroad-diagram" height="368" viewBox="0 0 953.0 368" width="953.0" xmlns="http://www.w3.org/2000/svg" xmlns:xlink="http://www.w3.org/1999/xlink">
<g transform="translate(.5 .5)">
<style>/* <![CDATA[ */
    svg.railroad-diagram {
        background-color:hsl(30,20%,95%);
    }
    svg.railroad-diagram path {
        stroke-width: 2;
        stroke: black;
        fill: none;
    }
    svg.railroad-diagram text {
        font-size: 12px;
        text-anchor: middle;
        font-family: DejaVu Sans;
    }
    svg.railroad-diagram text.label {
        text-anchor:start;
    }
    svg.railroad-diagram text.comment {
        font-family: DejaVu Sans;
        font-size: 14px;
    }
    svg.railroad-diagram rect{
        stroke-width: 2;
        stroke:black;
        fill: rgb(210, 210, 255);
    }
    svg.railroad-diagram rect.group-box {
        stroke: gray;
        stroke-dasharray: 10 5;
        fill: none;
    }
    .terminal {
        font-family: DejaVu Sans;
    }

/* ]]> */
</style><g>
<path d="M 20 219 v 20 m 0 -10 h 20"></path></g><path d="M 40 229 h 10"></path><g>
<path d="M 50 229 h 0.0"></path><path d="M 903.0 229 h 0.0"></path><rect class="group-box" height="312" rx="10" ry="10" width="853.0" x="50.0" y="36"></rect><g>
<path d="M 50.0 229 h 0.0"></path><path d="M 903.0 229 h 0.0"></path><path d="M 50.0 229 h 20"></path><g>
<path d="M 70.0 229 h 0.0"></path><path d="M 883.0 229 h 0.0"></path><rect class="group-box" height="188" rx="10" ry="10" width="813.0" x="70.0" y="60"></rect><g>
<path d="M 70.0 229 h 10.0"></path><path d="M 873.0 229 h 10.0"></path><g class="terminal ">
<path d="M 80.0 229 h 0.0"></path><path d="M 159.5 229 h 0.0"></path><rect height="22" rx="10" ry="10" width="79.5" x="80.0" y="218"></rect><text x="119.75" y="233">&#60;verse></text></g><path d="M 159.5 229 h 10"></path><g>
<path d="M 169.5 229 h 0.0"></path><path d="M 873.0 229 h 0.0"></path><path d="M 169.5 229 a 10 10 0 0 0 10 -10 v -10 a 10 10 0 0 1 10 -10"></path><g>
<path d="M 189.5 199 h 0.0"></path><path d="M 606.5 199 h 0.0"></path><g class="terminal ">
<path d="M 189.5 199 h 0.0"></path><path d="M 243.5 199 h 0.0"></path><rect height="22" rx="10" ry="10" width="54.0" x="189.5" y="188"></rect><text x="216.5" y="203">@sid</text></g><path d="M 243.5 199 h 10"></path><path d="M 253.5 199 h 10"></path><g class="terminal ">
<path d="M 263.5 199 h 0.0"></path><path d="M 606.5 199 h 0.0"></path><rect height="22" rx="10" ry="10" width="343.0" x="263.5" y="188"></rect><text x="435.0" y="203">/&#91;A-Z1-4&#93;{3} ?&#91;a-z0-9\-:\p{L}\p{Mn}&#93;&#42;/</text></g></g><path d="M 169.5 229 a 10 10 0 0 0 10 -10 v -40 a 10 10 0 0 1 10 -10"></path><g>
<path d="M 189.5 169 h 0.0"></path><path d="M 377.0 169 h 0.0"></path><g class="terminal ">
<path d="M 189.5 169 h 0.0"></path><path d="M 303.0 169 h 0.0"></path><rect height="22" rx="10" ry="10" width="113.5" x="189.5" y="158"></rect><text x="246.25" y="173">@pubnumber?</text></g><path d="M 303.0 169 h 10"></path><path d="M 313.0 169 h 10"></path><g class="terminal ">
<path d="M 323.0 169 h 0.0"></path><path d="M 377.0 169 h 0.0"></path><rect height="22" rx="10" ry="10" width="54.0" x="323.0" y="158"></rect><text x="350.0" y="173">text</text></g></g><path d="M 169.5 229 a 10 10 0 0 0 10 -10 v -70 a 10 10 0 0 1 10 -10"></path><g>
<path d="M 189.5 139 h 0.0"></path><path d="M 853.0 139 h 0.0"></path><g class="terminal ">
<path d="M 189.5 139 h 0.0"></path><path d="M 303.0 139 h 0.0"></path><rect height="22" rx="10" ry="10" width="113.5" x="189.5" y="128"></rect><text x="246.25" y="143">@altnumber?</text></g><path d="M 303.0 139 h 10"></path><path d="M 313.0 139 h 10"></path><g class="terminal ">
<path d="M 323.0 139 h 0.0"></path><path d="M 853.0 139 h 0.0"></path><rect height="22" rx="10" ry="10" width="530.0" x="323.0" y="128"></rect><text x="588.0" y="143">/&#91;0-9&#93;+&#91;\p{L}\p{Mn}&#93;&#42;(\x{200F}?&#91;\-,:&#93;&#91;0-9&#93;+&#91;\p{L}\p{Mn}&#93;&#42;)&#42;/</text></g></g><path d="M 169.5 229 a 10 10 0 0 0 10 -10 v -100 a 10 10 0 0 1 10 -10"></path><g>
<path d="M 189.5 109 h 0.0"></path><path d="M 810.5 109 h 0.0"></path><g class="terminal ">
<path d="M 189.5 109 h 0.0"></path><path d="M 269.0 109 h 0.0"></path><rect height="22" rx="10" ry="10" width="79.5" x="189.5" y="98"></rect><text x="229.25" y="113">@number</text></g><path d="M 269.0 109 h 10"></path><path d="M 279.0 109 h 10"></path><g class="terminal ">
<path d="M 289.0 109 h 0.0"></path><path d="M 810.5 109 h 0.0"></path><rect height="22" rx="10" ry="10" width="521.5" x="289.0" y="98"></rect><text x="549.75" y="113">/&#91;0-9&#93;+&#91;\p{L}\p{Mn}&#93;&#42;(\x{200F}?&#91;\-,&#93;&#91;0-9&#93;+&#91;\p{L}\p{Mn}&#93;&#42;)&#42;/</text></g></g><path d="M 169.5 229 a 10 10 0 0 0 10 -10 v -130 a 10 10 0 0 1 10 -10"></path><g>
<path d="M 189.5 79 h 0.0"></path><path d="M 326.0 79 h 0.0"></path><g class="terminal ">
<path d="M 189.5 79 h 0.0"></path><path d="M 260.5 79 h 0.0"></path><rect height="22" rx="10" ry="10" width="71.0" x="189.5" y="68"></rect><text x="225.0" y="83">@style</text></g><path d="M 260.5 79 h 10"></path><path d="M 270.5 79 h 10"></path><g class="terminal ">
<path d="M 280.5 79 h 0.0"></path><path d="M 326.0 79 h 0.0"></path><rect height="22" rx="10" ry="10" width="45.5" x="280.5" y="68"></rect><text x="303.25" y="83">"v"</text></g></g><path d="M 169.5 229 h 20"></path><g class="terminal ">
<path d="M 189.5 229 h 300.5"></path><path d="M 552.5 229 h 300.5"></path><rect height="22" rx="10" ry="10" width="62.5" x="490.0" y="218"></rect><text x="521.25" y="233">empty</text></g><path d="M 853.0 229 h 20"></path></g></g><g class="non-terminal ">
<path d="M 70.0 52 h 0.0"></path><path d="M 150.0 52 h 0.0"></path><text class="comment" x="110.0" y="57">VerseStart</text></g></g><path d="M 883.0 229 h 20"></path><path d="M 50.0 229 a 10 10 0 0 1 10 10 v 72 a 10 10 0 0 0 10 10"></path><g>
<path d="M 70.0 321 h 123.25"></path><path d="M 759.75 321 h 123.25"></path><rect class="group-box" height="68" rx="10" ry="10" width="566.5" x="193.25" y="272"></rect><g>
<path d="M 193.25 321 h 10.0"></path><path d="M 749.75 321 h 10.0"></path><g class="terminal ">
<path d="M 203.25 321 h 0.0"></path><path d="M 282.75 321 h 0.0"></path><rect height="22" rx="10" ry="10" width="79.5" x="203.25" y="310"></rect><text x="243.0" y="325">&#60;verse></text></g><path d="M 282.75 321 h 10"></path><g>
<path d="M 292.75 321 h 0.0"></path><path d="M 749.75 321 h 0.0"></path><path d="M 292.75 321 a 10 10 0 0 0 10 -10 v -10 a 10 10 0 0 1 10 -10"></path><g>
<path d="M 312.75 291 h 0.0"></path><path d="M 729.75 291 h 0.0"></path><g class="terminal ">
<path d="M 312.75 291 h 0.0"></path><path d="M 366.75 291 h 0.0"></path><rect height="22" rx="10" ry="10" width="54.0" x="312.75" y="280"></rect><text x="339.75" y="295">@eid</text></g><path d="M 366.75 291 h 10"></path><path d="M 376.75 291 h 10"></path><g class="terminal ">
<path d="M 386.75 291 h 0.0"></path><path d="M 729.75 291 h 0.0"></path><rect height="22" rx="10" ry="10" width="343.0" x="386.75" y="280"></rect><text x="558.25" y="295">/&#91;A-Z1-4&#93;{3} ?&#91;a-z0-9\-:\p{L}\p{Mn}&#93;&#42;/</text></g></g><path d="M 292.75 321 h 20"></path><g class="terminal ">
<path d="M 312.75 321 h 177.25"></path><path d="M 552.5 321 h 177.25"></path><rect height="22" rx="10" ry="10" width="62.5" x="490.0" y="310"></rect><text x="521.25" y="325">empty</text></g><path d="M 729.75 321 h 20"></path></g></g><g class="non-terminal ">
<path d="M 193.25 264 h 0.0"></path><path d="M 259.25 264 h 0.0"></path><text class="comment" x="226.25" y="269">VerseEnd</text></g></g><path d="M 883.0 321 a 10 10 0 0 0 10 -10 v -72 a 10 10 0 0 1 10 -10"></path></g><g class="non-terminal ">
<path d="M 50.0 28 h 0.0"></path><path d="M 95.0 28 h 0.0"></path><text class="comment" x="72.5" y="33">Verse</text></g></g><path d="M 903.0 229 h 10"></path><path d="M 913.0 229 h 20 m 0 -10 v 20"></path></g></svg>