<svg class="railroad-diagram" height="436" viewBox="0 0 900.0 436" width="900.0" xmlns="http://www.w3.org/2000/svg" xmlns:xlink="http://www.w3.org/1999/xlink">
<g transform="translate(.5 .5)">
<style>/* <![CDATA[ */

    svg.railroad-diagram {
        background-color: hsl(30,20%,95%);
    }
    svg.railroad-diagram path {
        stroke-width: 2;
        stroke: black;
        fill: none;
    }
    svg.railroad-diagram text {
        font-size: 12px;
        text-anchor: middle;
        font-family: DejaVu Sans;
    }
    svg.railroad-diagram text.label {
        text-anchor:start;
    }
    svg.railroad-diagram text.comment {
        font-family: DejaVu Sans;
        font-size: 14px;
    }
    svg.railroad-diagram rect{
        stroke-width: 2;
        stroke: black;
        fill: rgb(210, 255, 210);
    }
    svg.railroad-diagram rect.group-box {
        stroke: gray;
        stroke-dasharray: 10 5;
        fill: none;
    }
    .terminal {
        font-family: DejaVu Sans;
    }
    svg.railroad-diagram g.altterminal rect {
        fill: rgb(251, 252, 207)
    }

/* ]]> */
</style><g>
<path d="M 20 31 v 20 m 0 -10 h 20"></path></g><path d="M 40 41 h 10"></path><g>
<path d="M 50 41 h 0.0"></path><path d="M 850.0 326 h 0.0"></path><g>
<path d="M 50.0 41 h 0.0"></path><path d="M 50.0 41 h 10"></path><g>
<path d="M 60.0 41 h 269.0"></path><path d="M 571.0 41 h 269.0"></path><g class="terminal ">
<path d="M 329.0 41 h 0.0"></path><path d="M 374.5 41 h 0.0"></path><rect height="22" rx="10" ry="10" width="45.5" x="329.0" y="30"></rect><text x="351.75" y="45">'\'</text></g><path d="M 374.5 41 h 10"></path><path d="M 384.5 41 h 10"></path><g class="terminal ">
<path d="M 394.5 41 h 0.0"></path><path d="M 440.0 41 h 0.0"></path><rect height="22" rx="10" ry="10" width="45.5" x="394.5" y="30"></rect><text x="417.25" y="45">"v"</text></g><path d="M 440.0 41 h 10"></path><path d="M 450.0 41 h 10"></path><g>
<path d="M 460.0 41 h 0.0"></path><path d="M 571.0 41 h 0.0"></path><path d="M 460.0 41 h 20"></path><g class="terminal ">
<path d="M 480.0 41 h 12.75"></path><path d="M 538.25 41 h 12.75"></path><rect height="22" rx="10" ry="10" width="45.5" x="492.75" y="30"></rect><text x="515.5" y="45">' '</text></g><path d="M 551.0 41 h 20"></path><path d="M 460.0 41 a 10 10 0 0 1 10 10 v 10 a 10 10 0 0 0 10 10"></path><g class="terminal altterminal">
<path d="M 480.0 71 h 0.0"></path><path d="M 551.0 71 h 0.0"></path><rect height="22" rx="10" ry="10" width="71.0" x="480.0" y="60"></rect><text x="515.5" y="75">TAGEND</text></g><path d="M 551.0 71 a 10 10 0 0 0 10 -10 v -10 a 10 10 0 0 1 10 -10"></path></g></g><path d="M 840.0 41 a 10 10 0 0 1 10 10 v 39 a 10 10 0 0 1 -10 10 h -780.0 a 10 10 0 0 0 -10 10 v 9 a 10 10 0 0 0 10 10"></path><g>
<path d="M 60.0 129 h 293.25"></path><path d="M 546.75 129 h 293.25"></path><g class="terminal ">
<path d="M 353.25 129 h 0.0"></path><path d="M 415.75 129 h 0.0"></path><rect height="22" rx="10" ry="10" width="62.5" x="353.25" y="118"></rect><text x="384.5" y="133">VERSE</text></g><path d="M 415.75 129 h 10"></path><path d="M 425.75 129 h 10"></path><g>
<path d="M 435.75 129 h 0.0"></path><path d="M 546.75 129 h 0.0"></path><path d="M 435.75 129 h 20"></path><g class="terminal ">
<path d="M 455.75 129 h 12.75"></path><path d="M 514.0 129 h 12.75"></path><rect height="22" rx="10" ry="10" width="45.5" x="468.5" y="118"></rect><text x="491.25" y="133">' '</text></g><path d="M 526.75 129 h 20"></path><path d="M 435.75 129 a 10 10 0 0 1 10 10 v 10 a 10 10 0 0 0 10 10"></path><g class="terminal altterminal">
<path d="M 455.75 159 h 0.0"></path><path d="M 526.75 159 h 0.0"></path><rect height="22" rx="10" ry="10" width="71.0" x="455.75" y="148"></rect><text x="491.25" y="163">TAGEND</text></g><path d="M 526.75 159 a 10 10 0 0 0 10 -10 v -10 a 10 10 0 0 1 10 -10"></path></g></g><path d="M 840.0 129 a 10 10 0 0 1 10 10 v 39 a 10 10 0 0 1 -10 10 h -780.0 a 10 10 0 0 0 -10 10 v 0 a 10 10 0 0 0 10 10"></path><g>
<path d="M 60.0 208 h 10.0"></path><path d="M 830.0 208 h 10.0"></path><path d="M 70.0 208 h 20"></path><g>
<path d="M 90.0 208 h 720.0"></path></g><path d="M 810.0 208 h 20"></path><path d="M 70.0 208 a 10 10 0 0 1 10 10 v 9 a 10 10 0 0 0 10 10"></path><g>
<path d="M 90.0 237 h 0.0"></path><path d="M 810.0 237 h 0.0"></path><g class="terminal ">
<path d="M 90.0 237 h 0.0"></path><path d="M 135.5 237 h 0.0"></path><rect height="22" rx="10" ry="10" width="45.5" x="90.0" y="226"></rect><text x="112.75" y="241">'\'</text></g><path d="M 135.5 237 h 10"></path><path d="M 145.5 237 h 10"></path><g class="terminal ">
<path d="M 155.5 237 h 0.0"></path><path d="M 209.5 237 h 0.0"></path><rect height="22" rx="10" ry="10" width="54.0" x="155.5" y="226"></rect><text x="182.5" y="241">'va'</text></g><path d="M 209.5 237 h 10"></path><path d="M 219.5 237 h 10"></path><g>
<path d="M 229.5 237 h 0.0"></path><path d="M 340.5 237 h 0.0"></path><path d="M 229.5 237 h 20"></path><g class="terminal ">
<path d="M 249.5 237 h 12.75"></path><path d="M 307.75 237 h 12.75"></path><rect height="22" rx="10" ry="10" width="45.5" x="262.25" y="226"></rect><text x="285.0" y="241">' '</text></g><path d="M 320.5 237 h 20"></path><path d="M 229.5 237 a 10 10 0 0 1 10 10 v 10 a 10 10 0 0 0 10 10"></path><g class="terminal altterminal">
<path d="M 249.5 267 h 0.0"></path><path d="M 320.5 267 h 0.0"></path><rect height="22" rx="10" ry="10" width="71.0" x="249.5" y="256"></rect><text x="285.0" y="271">TAGEND</text></g><path d="M 320.5 267 a 10 10 0 0 0 10 -10 v -10 a 10 10 0 0 1 10 -10"></path></g><path d="M 340.5 237 h 10"></path><path d="M 350.5 237 h 10"></path><g class="terminal ">
<path d="M 360.5 237 h 0.0"></path><path d="M 414.5 237 h 0.0"></path><rect height="22" rx="10" ry="10" width="54.0" x="360.5" y="226"></rect><text x="387.5" y="241">TEXT</text></g><path d="M 414.5 237 h 10"></path><path d="M 424.5 237 h 10"></path><g class="terminal ">
<path d="M 434.5 237 h 0.0"></path><path d="M 514.0 237 h 0.0"></path><rect height="22" rx="10" ry="10" width="79.5" x="434.5" y="226"></rect><text x="474.25" y="241">TEXTEND</text></g><path d="M 514.0 237 h 10"></path><path d="M 524.0 237 h 10"></path><g class="terminal ">
<path d="M 534.0 237 h 0.0"></path><path d="M 579.5 237 h 0.0"></path><rect height="22" rx="10" ry="10" width="45.5" x="534.0" y="226"></rect><text x="556.75" y="241">'\'</text></g><path d="M 579.5 237 h 10"></path><path d="M 589.5 237 h 10"></path><g class="terminal ">
<path d="M 599.5 237 h 0.0"></path><path d="M 653.5 237 h 0.0"></path><rect height="22" rx="10" ry="10" width="54.0" x="599.5" y="226"></rect><text x="626.5" y="241">'va'</text></g><path d="M 653.5 237 h 10"></path><path d="M 663.5 237 h 10"></path><g>
<path d="M 673.5 237 h 0.0"></path><path d="M 810.0 237 h 0.0"></path><path d="M 673.5 237 h 20"></path><g class="terminal ">
<path d="M 693.5 237 h 17.0"></path><path d="M 773.0 237 h 17.0"></path><rect height="22" rx="10" ry="10" width="62.5" x="710.5" y="226"></rect><text x="741.75" y="241">'\&#42; '</text></g><path d="M 790.0 237 h 20"></path><path d="M 673.5 237 a 10 10 0 0 1 10 10 v 10 a 10 10 0 0 0 10 10"></path><g class="terminal altterminal">
<path d="M 693.5 267 h 0.0"></path><path d="M 790.0 267 h 0.0"></path><rect height="22" rx="10" ry="10" width="96.5" x="693.5" y="256"></rect><text x="741.75" y="271">/\&#42;${Hs}/</text></g><path d="M 790.0 267 a 10 10 0 0 0 10 -10 v -10 a 10 10 0 0 1 10 -10"></path></g></g><path d="M 810.0 237 a 10 10 0 0 0 10 -10 v -9 a 10 10 0 0 1 10 -10"></path></g><path d="M 840.0 208 a 10 10 0 0 1 10 10 v 78 a 10 10 0 0 1 -10 10 h -780.0 a 10 10 0 0 0 -10 10 v 0 a 10 10 0 0 0 10 10"></path><g>
<path d="M 60.0 326 h 10.0"></path><path d="M 830.0 326 h 10.0"></path><path d="M 70.0 326 h 20"></path><g>
<path d="M 90.0 326 h 720.0"></path></g><path d="M 810.0 326 h 20"></path><path d="M 70.0 326 a 10 10 0 0 1 10 10 v 9 a 10 10 0 0 0 10 10"></path><g>
<path d="M 90.0 355 h 0.0"></path><path d="M 810.0 355 h 0.0"></path><g class="terminal ">
<path d="M 90.0 355 h 0.0"></path><path d="M 135.5 355 h 0.0"></path><rect height="22" rx="10" ry="10" width="45.5" x="90.0" y="344"></rect><text x="112.75" y="359">'\'</text></g><path d="M 135.5 355 h 10"></path><path d="M 145.5 355 h 10"></path><g class="terminal ">
<path d="M 155.5 355 h 0.0"></path><path d="M 209.5 355 h 0.0"></path><rect height="22" rx="10" ry="10" width="54.0" x="155.5" y="344"></rect><text x="182.5" y="359">'vp'</text></g><path d="M 209.5 355 h 10"></path><path d="M 219.5 355 h 10"></path><g>
<path d="M 229.5 355 h 0.0"></path><path d="M 340.5 355 h 0.0"></path><path d="M 229.5 355 h 20"></path><g class="terminal ">
<path d="M 249.5 355 h 12.75"></path><path d="M 307.75 355 h 12.75"></path><rect height="22" rx="10" ry="10" width="45.5" x="262.25" y="344"></rect><text x="285.0" y="359">' '</text></g><path d="M 320.5 355 h 20"></path><path d="M 229.5 355 a 10 10 0 0 1 10 10 v 10 a 10 10 0 0 0 10 10"></path><g class="terminal altterminal">
<path d="M 249.5 385 h 0.0"></path><path d="M 320.5 385 h 0.0"></path><rect height="22" rx="10" ry="10" width="71.0" x="249.5" y="374"></rect><text x="285.0" y="389">TAGEND</text></g><path d="M 320.5 385 a 10 10 0 0 0 10 -10 v -10 a 10 10 0 0 1 10 -10"></path></g><path d="M 340.5 355 h 10"></path><path d="M 350.5 355 h 10"></path><g class="terminal ">
<path d="M 360.5 355 h 0.0"></path><path d="M 414.5 355 h 0.0"></path><rect height="22" rx="10" ry="10" width="54.0" x="360.5" y="344"></rect><text x="387.5" y="359">TEXT</text></g><path d="M 414.5 355 h 10"></path><path d="M 424.5 355 h 10"></path><g class="terminal ">
<path d="M 434.5 355 h 0.0"></path><path d="M 514.0 355 h 0.0"></path><rect height="22" rx="10" ry="10" width="79.5" x="434.5" y="344"></rect><text x="474.25" y="359">TEXTEND</text></g><path d="M 514.0 355 h 10"></path><path d="M 524.0 355 h 10"></path><g class="terminal ">
<path d="M 534.0 355 h 0.0"></path><path d="M 579.5 355 h 0.0"></path><rect height="22" rx="10" ry="10" width="45.5" x="534.0" y="344"></rect><text x="556.75" y="359">'\'</text></g><path d="M 579.5 355 h 10"></path><path d="M 589.5 355 h 10"></path><g class="terminal ">
<path d="M 599.5 355 h 0.0"></path><path d="M 653.5 355 h 0.0"></path><rect height="22" rx="10" ry="10" width="54.0" x="599.5" y="344"></rect><text x="626.5" y="359">'vp'</text></g><path d="M 653.5 355 h 10"></path><path d="M 663.5 355 h 10"></path><g>
<path d="M 673.5 355 h 0.0"></path><path d="M 810.0 355 h 0.0"></path><path d="M 673.5 355 h 20"></path><g class="terminal ">
<path d="M 693.5 355 h 17.0"></path><path d="M 773.0 355 h 17.0"></path><rect height="22" rx="10" ry="10" width="62.5" x="710.5" y="344"></rect><text x="741.75" y="359">'\&#42; '</text></g><path d="M 790.0 355 h 20"></path><path d="M 673.5 355 a 10 10 0 0 1 10 10 v 10 a 10 10 0 0 0 10 10"></path><g class="terminal altterminal">
<path d="M 693.5 385 h 0.0"></path><path d="M 790.0 385 h 0.0"></path><rect height="22" rx="10" ry="10" width="96.5" x="693.5" y="374"></rect><text x="741.75" y="389">/\&#42;${Hs}/</text></g><path d="M 790.0 385 a 10 10 0 0 0 10 -10 v -10 a 10 10 0 0 1 10 -10"></path></g></g><path d="M 810.0 355 a 10 10 0 0 0 10 -10 v -9 a 10 10 0 0 1 10 -10"></path></g><path d="M 840.0 326 h 10"></path><path d="M 850.0 326 h 0.0"></path></g></g><path d="M 850.0 326 h 10"></path><path d="M 860.0 326 h 20 m 0 -10 v 20"></path></g></svg>