<svg class="railroad-diagram" height="241" viewBox="0 0 769.0 241" width="769.0" xmlns="http://www.w3.org/2000/svg" xmlns:xlink="http://www.w3.org/1999/xlink">
<g transform="translate(.5 .5)">
<style>/* <![CDATA[ */

    svg.railroad-diagram {
        background-color:hsl(30,20%,95%);
    }
    svg.railroad-diagram path {
        stroke-width: 2;
        stroke: black;
        fill: none;
    }
    svg.railroad-diagram text {
        font-size: 12px;
        text-anchor: middle;
        font-family: DejaVu Sans;
    }
    svg.railroad-diagram text.label {
        text-anchor:start;
    }
    svg.railroad-diagram text.comment {
        font-family: DejaVu Sans;
        font-size: 14px;
    }
    svg.railroad-diagram rect{
        stroke-width: 2;
        stroke:black;
        fill: rgb(210, 255, 210);
    }
    svg.railroad-diagram rect.group-box {
        stroke: gray;
        stroke-dasharray: 10 5;
        fill: none;
    }
    .terminal {
        font-family: DejaVu Sans;
    }

/* ]]> */
</style><g>
<path d="M 20 21 v 20 m 0 -10 h 20"></path></g><path d="M 40 31 h 10"></path><g>
<path d="M 50 31 h 0.0"></path><path d="M 719.0 180 h 0.0"></path><g>
<path d="M 50.0 31 h 0.0"></path><path d="M 50.0 31 h 10"></path><g>
<path d="M 60.0 31 h 223.5"></path><path d="M 485.5 31 h 223.5"></path><g class="terminal ">
<path d="M 283.5 31 h 0.0"></path><path d="M 329.0 31 h 0.0"></path><rect height="22" rx="10" ry="10" width="45.5" x="283.5" y="20"></rect><text x="306.25" y="35">'\'</text></g><path d="M 329.0 31 h 10"></path><path d="M 339.0 31 h 10"></path><g class="terminal ">
<path d="M 349.0 31 h 0.0"></path><path d="M 394.5 31 h 0.0"></path><rect height="22" rx="10" ry="10" width="45.5" x="349.0" y="20"></rect><text x="371.75" y="35">"v"</text></g><path d="M 394.5 31 h 10"></path><path d="M 404.5 31 h 10"></path><g class="terminal ">
<path d="M 414.5 31 h 0.0"></path><path d="M 485.5 31 h 0.0"></path><rect height="22" rx="10" ry="10" width="71.0" x="414.5" y="20"></rect><text x="450.0" y="35">TAGEND</text></g></g><path d="M 709.0 31 a 10 10 0 0 1 10 10 v 0 a 10 10 0 0 1 -10 10 h -649.0 a 10 10 0 0 0 -10 10 v 0 a 10 10 0 0 0 10 10"></path><g>
<path d="M 60.0 71 h 247.75"></path><path d="M 461.25 71 h 247.75"></path><g class="terminal ">
<path d="M 307.75 71 h 0.0"></path><path d="M 361.75 71 h 0.0"></path><rect height="22" rx="10" ry="10" width="54.0" x="307.75" y="60"></rect><text x="334.75" y="75">TEXT</text></g><path d="M 361.75 71 h 10"></path><path d="M 371.75 71 h 10"></path><g class="terminal ">
<path d="M 381.75 71 h 0.0"></path><path d="M 461.25 71 h 0.0"></path><rect height="22" rx="10" ry="10" width="79.5" x="381.75" y="60"></rect><text x="421.5" y="75">TEXTEND</text></g></g><path d="M 709.0 71 a 10 10 0 0 1 10 10 v 0 a 10 10 0 0 1 -10 10 h -649.0 a 10 10 0 0 0 -10 10 v 0 a 10 10 0 0 0 10 10"></path><g>
<path d="M 60.0 111 h 10.0"></path><path d="M 699.0 111 h 10.0"></path><path d="M 70.0 111 h 20"></path><g>
<path d="M 90.0 111 h 589.0"></path></g><path d="M 679.0 111 h 20"></path><path d="M 70.0 111 a 10 10 0 0 1 10 10 v 0 a 10 10 0 0 0 10 10"></path><g>
<path d="M 90.0 131 h 0.0"></path><path d="M 679.0 131 h 0.0"></path><g class="terminal ">
<path d="M 90.0 131 h 0.0"></path><path d="M 135.5 131 h 0.0"></path><rect height="22" rx="10" ry="10" width="45.5" x="90.0" y="120"></rect><text x="112.75" y="135">'\'</text></g><path d="M 135.5 131 h 10"></path><path d="M 145.5 131 h 10"></path><g class="terminal ">
<path d="M 155.5 131 h 0.0"></path><path d="M 209.5 131 h 0.0"></path><rect height="22" rx="10" ry="10" width="54.0" x="155.5" y="120"></rect><text x="182.5" y="135">'va'</text></g><path d="M 209.5 131 h 10"></path><path d="M 219.5 131 h 10"></path><g class="terminal ">
<path d="M 229.5 131 h 0.0"></path><path d="M 300.5 131 h 0.0"></path><rect height="22" rx="10" ry="10" width="71.0" x="229.5" y="120"></rect><text x="265.0" y="135">TAGEND</text></g><path d="M 300.5 131 h 10"></path><path d="M 310.5 131 h 10"></path><g class="terminal ">
<path d="M 320.5 131 h 0.0"></path><path d="M 374.5 131 h 0.0"></path><rect height="22" rx="10" ry="10" width="54.0" x="320.5" y="120"></rect><text x="347.5" y="135">TEXT</text></g><path d="M 374.5 131 h 10"></path><path d="M 384.5 131 h 10"></path><g class="terminal ">
<path d="M 394.5 131 h 0.0"></path><path d="M 474.0 131 h 0.0"></path><rect height="22" rx="10" ry="10" width="79.5" x="394.5" y="120"></rect><text x="434.25" y="135">TEXTEND</text></g><path d="M 474.0 131 h 10"></path><path d="M 484.0 131 h 10"></path><g class="terminal ">
<path d="M 494.0 131 h 0.0"></path><path d="M 539.5 131 h 0.0"></path><rect height="22" rx="10" ry="10" width="45.5" x="494.0" y="120"></rect><text x="516.75" y="135">'\'</text></g><path d="M 539.5 131 h 10"></path><path d="M 549.5 131 h 10"></path><g class="terminal ">
<path d="M 559.5 131 h 0.0"></path><path d="M 613.5 131 h 0.0"></path><rect height="22" rx="10" ry="10" width="54.0" x="559.5" y="120"></rect><text x="586.5" y="135">'va'</text></g><path d="M 613.5 131 h 10"></path><path d="M 623.5 131 h 10"></path><g class="terminal ">
<path d="M 633.5 131 h 0.0"></path><path d="M 679.0 131 h 0.0"></path><rect height="22" rx="10" ry="10" width="45.5" x="633.5" y="120"></rect><text x="656.25" y="135">'&#42;'</text></g></g><path d="M 679.0 131 a 10 10 0 0 0 10 -10 v 0 a 10 10 0 0 1 10 -10"></path></g><path d="M 709.0 111 a 10 10 0 0 1 10 10 v 29 a 10 10 0 0 1 -10 10 h -649.0 a 10 10 0 0 0 -10 10 v 0 a 10 10 0 0 0 10 10"></path><g>
<path d="M 60.0 180 h 10.0"></path><path d="M 699.0 180 h 10.0"></path><path d="M 70.0 180 h 20"></path><g>
<path d="M 90.0 180 h 589.0"></path></g><path d="M 679.0 180 h 20"></path><path d="M 70.0 180 a 10 10 0 0 1 10 10 v 0 a 10 10 0 0 0 10 10"></path><g>
<path d="M 90.0 200 h 0.0"></path><path d="M 679.0 200 h 0.0"></path><g class="terminal ">
<path d="M 90.0 200 h 0.0"></path><path d="M 135.5 200 h 0.0"></path><rect height="22" rx="10" ry="10" width="45.5" x="90.0" y="189"></rect><text x="112.75" y="204">'\'</text></g><path d="M 135.5 200 h 10"></path><path d="M 145.5 200 h 10"></path><g class="terminal ">
<path d="M 155.5 200 h 0.0"></path><path d="M 209.5 200 h 0.0"></path><rect height="22" rx="10" ry="10" width="54.0" x="155.5" y="189"></rect><text x="182.5" y="204">'vp'</text></g><path d="M 209.5 200 h 10"></path><path d="M 219.5 200 h 10"></path><g class="terminal ">
<path d="M 229.5 200 h 0.0"></path><path d="M 300.5 200 h 0.0"></path><rect height="22" rx="10" ry="10" width="71.0" x="229.5" y="189"></rect><text x="265.0" y="204">TAGEND</text></g><path d="M 300.5 200 h 10"></path><path d="M 310.5 200 h 10"></path><g class="terminal ">
<path d="M 320.5 200 h 0.0"></path><path d="M 374.5 200 h 0.0"></path><rect height="22" rx="10" ry="10" width="54.0" x="320.5" y="189"></rect><text x="347.5" y="204">TEXT</text></g><path d="M 374.5 200 h 10"></path><path d="M 384.5 200 h 10"></path><g class="terminal ">
<path d="M 394.5 200 h 0.0"></path><path d="M 474.0 200 h 0.0"></path><rect height="22" rx="10" ry="10" width="79.5" x="394.5" y="189"></rect><text x="434.25" y="204">TEXTEND</text></g><path d="M 474.0 200 h 10"></path><path d="M 484.0 200 h 10"></path><g class="terminal ">
<path d="M 494.0 200 h 0.0"></path><path d="M 539.5 200 h 0.0"></path><rect height="22" rx="10" ry="10" width="45.5" x="494.0" y="189"></rect><text x="516.75" y="204">'\'</text></g><path d="M 539.5 200 h 10"></path><path d="M 549.5 200 h 10"></path><g class="terminal ">
<path d="M 559.5 200 h 0.0"></path><path d="M 613.5 200 h 0.0"></path><rect height="22" rx="10" ry="10" width="54.0" x="559.5" y="189"></rect><text x="586.5" y="204">'vp'</text></g><path d="M 613.5 200 h 10"></path><path d="M 623.5 200 h 10"></path><g class="terminal ">
<path d="M 633.5 200 h 0.0"></path><path d="M 679.0 200 h 0.0"></path><rect height="22" rx="10" ry="10" width="45.5" x="633.5" y="189"></rect><text x="656.25" y="204">'&#42;'</text></g></g><path d="M 679.0 200 a 10 10 0 0 0 10 -10 v 0 a 10 10 0 0 1 10 -10"></path></g><path d="M 709.0 180 h 10"></path><path d="M 719.0 180 h 0.0"></path></g></g><path d="M 719.0 180 h 10"></path><path d="M 729.0 180 h 20 m 0 -10 v 20"></path></g></svg>