<svg class="railroad-diagram" height="272" viewBox="0 0 913.0 272" width="913.0" xmlns="http://www.w3.org/2000/svg" xmlns:xlink="http://www.w3.org/1999/xlink">
<g transform="translate(.5 .5)">
<style>/* <![CDATA[ */
    svg.railroad-diagram {
        background-color:hsl(30,20%,95%);
    }
    svg.railroad-diagram path {
        stroke-width: 2;
        stroke: black;
        fill: none;
    }
    svg.railroad-diagram text {
        font-size: 12px;
        text-anchor: middle;
        font-family: DejaVu Sans;
    }
    svg.railroad-diagram text.label {
        text-anchor:start;
    }
    svg.railroad-diagram text.comment {
        font-family: DejaVu Sans;
        font-size: 14px;
    }
    svg.railroad-diagram rect{
        stroke-width: 2;
        stroke:black;
        fill: rgb(210, 210, 255);
    }
    svg.railroad-diagram rect.group-box {
        stroke: gray;
        stroke-dasharray: 10 5;
        fill: none;
    }
    .terminal {
        font-family: DejaVu Sans;
    }

/* ]]> */
</style><g>
<path d="M 20 171 v 20 m 0 -10 h 20"></path></g><g>
<path d="M 40 181 h 0.0"></path><path d="M 873.0 221 h 0.0"></path><path d="M 40.0 181 h 20"></path><g>
<path d="M 60.0 181 h 0.0"></path><path d="M 853.0 221 h 0.0"></path><g class="terminal ">
<path d="M 60.0 181 h 0.0"></path><path d="M 139.5 181 h 0.0"></path><rect height="22" rx="10" ry="10" width="79.5" x="60.0" y="170"></rect><text x="99.75" y="185">&#60;verse></text></g><path d="M 139.5 181 h 10"></path><g>
<path d="M 149.5 181 h 0.0"></path><path d="M 853.0 221 h 0.0"></path><path d="M 149.5 181 a 10 10 0 0 0 10 -10 v -10 a 10 10 0 0 1 10 -10"></path><g>
<path d="M 169.5 151 h 0.0"></path><path d="M 586.5 151 h 0.0"></path><g class="terminal ">
<path d="M 169.5 151 h 0.0"></path><path d="M 223.5 151 h 0.0"></path><rect height="22" rx="10" ry="10" width="54.0" x="169.5" y="140"></rect><text x="196.5" y="155">@sid</text></g><path d="M 223.5 151 h 10"></path><path d="M 233.5 151 h 10"></path><g class="terminal ">
<path d="M 243.5 151 h 0.0"></path><path d="M 586.5 151 h 0.0"></path><rect height="22" rx="10" ry="10" width="343.0" x="243.5" y="140"></rect><text x="415.0" y="155">/&#91;A-Z1-4&#93;{3} ?&#91;a-z0-9\-:\p{L}\p{Mn}&#93;&#42;/</text></g></g><path d="M 149.5 181 a 10 10 0 0 0 10 -10 v -40 a 10 10 0 0 1 10 -10"></path><g>
<path d="M 169.5 121 h 0.0"></path><path d="M 357.0 121 h 0.0"></path><g class="terminal ">
<path d="M 169.5 121 h 0.0"></path><path d="M 283.0 121 h 0.0"></path><rect height="22" rx="10" ry="10" width="113.5" x="169.5" y="110"></rect><text x="226.25" y="125">@pubnumber?</text></g><path d="M 283.0 121 h 10"></path><path d="M 293.0 121 h 10"></path><g class="terminal ">
<path d="M 303.0 121 h 0.0"></path><path d="M 357.0 121 h 0.0"></path><rect height="22" rx="10" ry="10" width="54.0" x="303.0" y="110"></rect><text x="330.0" y="125">text</text></g></g><path d="M 149.5 181 a 10 10 0 0 0 10 -10 v -70 a 10 10 0 0 1 10 -10"></path><g>
<path d="M 169.5 91 h 0.0"></path><path d="M 833.0 91 h 0.0"></path><g class="terminal ">
<path d="M 169.5 91 h 0.0"></path><path d="M 283.0 91 h 0.0"></path><rect height="22" rx="10" ry="10" width="113.5" x="169.5" y="80"></rect><text x="226.25" y="95">@altnumber?</text></g><path d="M 283.0 91 h 10"></path><path d="M 293.0 91 h 10"></path><g class="terminal ">
<path d="M 303.0 91 h 0.0"></path><path d="M 833.0 91 h 0.0"></path><rect height="22" rx="10" ry="10" width="530.0" x="303.0" y="80"></rect><text x="568.0" y="95">/&#91;0-9&#93;+&#91;\p{L}\p{Mn}&#93;&#42;(\x{200F}?&#91;\-,:&#93;&#91;0-9&#93;+&#91;\p{L}\p{Mn}&#93;&#42;)&#42;/</text></g></g><path d="M 149.5 181 a 10 10 0 0 0 10 -10 v -100 a 10 10 0 0 1 10 -10"></path><g>
<path d="M 169.5 61 h 0.0"></path><path d="M 790.5 61 h 0.0"></path><g class="terminal ">
<path d="M 169.5 61 h 0.0"></path><path d="M 249.0 61 h 0.0"></path><rect height="22" rx="10" ry="10" width="79.5" x="169.5" y="50"></rect><text x="209.25" y="65">@number</text></g><path d="M 249.0 61 h 10"></path><path d="M 259.0 61 h 10"></path><g class="terminal ">
<path d="M 269.0 61 h 0.0"></path><path d="M 790.5 61 h 0.0"></path><rect height="22" rx="10" ry="10" width="521.5" x="269.0" y="50"></rect><text x="529.75" y="65">/&#91;0-9&#93;+&#91;\p{L}\p{Mn}&#93;&#42;(\x{200F}?&#91;\-,&#93;&#91;0-9&#93;+&#91;\p{L}\p{Mn}&#93;&#42;)&#42;/</text></g></g><path d="M 149.5 181 a 10 10 0 0 0 10 -10 v -130 a 10 10 0 0 1 10 -10"></path><g>
<path d="M 169.5 31 h 0.0"></path><path d="M 306.0 31 h 0.0"></path><g class="terminal ">
<path d="M 169.5 31 h 0.0"></path><path d="M 240.5 31 h 0.0"></path><rect height="22" rx="10" ry="10" width="71.0" x="169.5" y="20"></rect><text x="205.0" y="35">@style</text></g><path d="M 240.5 31 h 10"></path><path d="M 250.5 31 h 10"></path><g class="terminal ">
<path d="M 260.5 31 h 0.0"></path><path d="M 306.0 31 h 0.0"></path><rect height="22" rx="10" ry="10" width="45.5" x="260.5" y="20"></rect><text x="283.25" y="35">"v"</text></g></g><path d="M 149.5 181 h 20"></path><g>
<path d="M 169.5 181 h 267.75"></path><path d="M 437.25 181 h 10"></path><g class="terminal ">
<path d="M 447.25 181 h 22.75"></path><path d="M 532.5 181 h 22.75"></path><rect height="22" rx="10" ry="10" width="62.5" x="470.0" y="170"></rect><text x="501.25" y="185">empty</text></g><path d="M 555.25 181 a 10 10 0 0 1 10 10 v 0 a 10 10 0 0 1 -10 10 h -108.0 a 10 10 0 0 0 -10 10 v 0 a 10 10 0 0 0 10 10"></path><g class="terminal ">
<path d="M 447.25 221 h 10.0"></path><path d="M 545.25 221 h 10.0"></path><rect height="22" rx="10" ry="10" width="88.0" x="457.25" y="210"></rect><text x="501.25" y="225">&#60;/verse></text></g><path d="M 555.25 221 h 10"></path><path d="M 565.25 221 h 267.75"></path></g><path d="M 833.0 221 h 20"></path></g></g><path d="M 853.0 221 h 20"></path><path d="M 40.0 181 a 10 10 0 0 1 10 10 v 40 a 10 10 0 0 0 10 10"></path><g>
<path d="M 60.0 241 h 123.25"></path><path d="M 729.75 241 h 123.25"></path><g class="terminal ">
<path d="M 183.25 241 h 0.0"></path><path d="M 262.75 241 h 0.0"></path><rect height="22" rx="10" ry="10" width="79.5" x="183.25" y="230"></rect><text x="223.0" y="245">&#60;verse></text></g><path d="M 262.75 241 h 10"></path><g>
<path d="M 272.75 241 h 0.0"></path><path d="M 729.75 241 h 0.0"></path><path d="M 272.75 241 a 10 10 0 0 0 10 -10 v -10 a 10 10 0 0 1 10 -10"></path><g>
<path d="M 292.75 211 h 0.0"></path><path d="M 709.75 211 h 0.0"></path><g class="terminal ">
<path d="M 292.75 211 h 0.0"></path><path d="M 346.75 211 h 0.0"></path><rect height="22" rx="10" ry="10" width="54.0" x="292.75" y="200"></rect><text x="319.75" y="215">@eid</text></g><path d="M 346.75 211 h 10"></path><path d="M 356.75 211 h 10"></path><g class="terminal ">
<path d="M 366.75 211 h 0.0"></path><path d="M 709.75 211 h 0.0"></path><rect height="22" rx="10" ry="10" width="343.0" x="366.75" y="200"></rect><text x="538.25" y="215">/&#91;A-Z1-4&#93;{3} ?&#91;a-z0-9\-:\p{L}\p{Mn}&#93;&#42;/</text></g></g><path d="M 272.75 241 h 20"></path><g>
<path d="M 292.75 241 h 123.25"></path><path d="M 586.5 241 h 123.25"></path><g class="terminal ">
<path d="M 416.0 241 h 0.0"></path><path d="M 478.5 241 h 0.0"></path><rect height="22" rx="10" ry="10" width="62.5" x="416.0" y="230"></rect><text x="447.25" y="245">empty</text></g><path d="M 478.5 241 h 10"></path><path d="M 488.5 241 h 10"></path><g class="terminal ">
<path d="M 498.5 241 h 0.0"></path><path d="M 586.5 241 h 0.0"></path><rect height="22" rx="10" ry="10" width="88.0" x="498.5" y="230"></rect><text x="542.5" y="245">&#60;/verse></text></g></g><path d="M 709.75 241 h 20"></path></g></g><path d="M 853.0 241 a 10 10 0 0 0 10 -10 v 0 a 10 10 0 0 1 10 -10"></path></g><path d="M 873.0 221 h 20 m 0 -10 v 20"></path></g></svg>