<svg class="railroad-diagram" height="262" viewBox="0 0 960.5 262" width="960.5" xmlns="http://www.w3.org/2000/svg" xmlns:xlink="http://www.w3.org/1999/xlink">
<g transform="translate(.5 .5)">
<style>/* <![CDATA[ */
    svg.railroad-diagram {
        background-color:hsl(30,20%,95%);
    }
    svg.railroad-diagram path {
        stroke-width: 2;
        stroke: black;
        fill: none;
    }
    svg.railroad-diagram text {
        font-size: 12px;
        text-anchor: middle;
        font-family: DejaVu Sans;
    }
    svg.railroad-diagram text.label {
        text-anchor:start;
    }
    svg.railroad-diagram text.comment {
        font-family: DejaVu Sans;
        font-size: 14px;
    }
    svg.railroad-diagram rect{
        stroke-width: 2;
        stroke:black;
        fill: rgb(210, 255, 210);
    }
    svg.railroad-diagram rect.group-box {
        stroke: gray;
        stroke-dasharray: 10 5;
        fill: none;
    }
    .terminal {
        font-family: DejaVu Sans;
    }

/* ]]> */
</style><g>
<path d="M 20 69 v 20 m 0 -10 h 20"></path></g><path d="M 40 79 h 10"></path><g>
<path d="M 50 79 h 0.0"></path><path d="M 910.5 215 h 0.0"></path><rect class="group-box" height="206" rx="10" ry="10" width="860.5" x="50.0" y="36"></rect><g>
<path d="M 50.0 79 h 10.0"></path><path d="M 900.5 215 h 10.0"></path><rect class="group-box" height="174" rx="10" ry="10" width="840.5" x="60.0" y="60"></rect><g>
<path d="M 60.0 79 h 10.0"></path><path d="M 70.0 79 h 10"></path><g>
<path d="M 80.0 79 h 344.75"></path><path d="M 535.75 79 h 344.75"></path><g class="terminal ">
<path d="M 424.75 79 h 0.0"></path><path d="M 478.75 79 h 0.0"></path><rect height="22" rx="10" ry="10" width="54.0" x="424.75" y="68"></rect><text x="451.75" y="83">"\v"</text></g><path d="M 478.75 79 h 10"></path><path d="M 488.75 79 h 10"></path><g class="terminal ">
<path d="M 498.75 79 h 0.0"></path><path d="M 535.75 79 h 0.0"></path><rect height="22" rx="10" ry="10" width="37.0" x="498.75" y="68"></rect><text x="517.25" y="83">WS</text></g></g><path d="M 880.5 79 a 10 10 0 0 1 10 10 v 0 a 10 10 0 0 1 -10 10 h -800.5 a 10 10 0 0 0 -10 10 v 0 a 10 10 0 0 0 10 10"></path><g>
<path d="M 80.0 119 h 111.0"></path><path d="M 769.5 119 h 111.0"></path><g class="terminal ">
<path d="M 191.0 119 h 0.0"></path><path d="M 712.5 119 h 0.0"></path><rect height="22" rx="10" ry="10" width="521.5" x="191.0" y="108"></rect><text x="451.75" y="123">/&#91;0-9&#93;+&#91;\p{L}\p{Mn}&#93;&#42;(\x{200F}?&#91;\-,&#93;&#91;0-9&#93;+&#91;\p{L}\p{Mn}&#93;&#42;)&#42;/</text></g><path d="M 712.5 119 h 10"></path><path d="M 722.5 119 h 10"></path><g class="terminal ">
<path d="M 732.5 119 h 0.0"></path><path d="M 769.5 119 h 0.0"></path><rect height="22" rx="10" ry="10" width="37.0" x="732.5" y="108"></rect><text x="751.0" y="123">WS</text></g></g><path d="M 880.5 119 a 10 10 0 0 1 10 10 v 0 a 10 10 0 0 1 -10 10 h -800.5 a 10 10 0 0 0 -10 10 v 8 a 10 10 0 0 0 10 10"></path><g>
<path d="M 80.0 167 h 0.0"></path><path d="M 880.5 167 h 0.0"></path><path d="M 80.0 167 a 10 10 0 0 0 10 -10 v 0 a 10 10 0 0 1 10 -10"></path><g>
<path d="M 100.0 147 h 760.5"></path></g><path d="M 860.5 147 a 10 10 0 0 1 10 10 v 0 a 10 10 0 0 0 10 10"></path><path d="M 80.0 167 h 20"></path><g>
<path d="M 100.0 167 h 0.0"></path><path d="M 860.5 167 h 0.0"></path><g class="terminal ">
<path d="M 100.0 167 h 0.0"></path><path d="M 162.5 167 h 0.0"></path><rect height="22" rx="10" ry="10" width="62.5" x="100.0" y="156"></rect><text x="131.25" y="171">"\va"</text></g><path d="M 162.5 167 h 10"></path><path d="M 172.5 167 h 10"></path><g class="terminal ">
<path d="M 182.5 167 h 0.0"></path><path d="M 219.5 167 h 0.0"></path><rect height="22" rx="10" ry="10" width="37.0" x="182.5" y="156"></rect><text x="201.0" y="171">WS</text></g><path d="M 219.5 167 h 10"></path><path d="M 229.5 167 h 10"></path><g class="terminal ">
<path d="M 239.5 167 h 0.0"></path><path d="M 769.5 167 h 0.0"></path><rect height="22" rx="10" ry="10" width="530.0" x="239.5" y="156"></rect><text x="504.5" y="171">/&#91;0-9&#93;+&#91;\p{L}\p{Mn}&#93;&#42;(\x{200F}?&#91;\-,:&#93;&#91;0-9&#93;+&#91;\p{L}\p{Mn}&#93;&#42;)&#42;/</text></g><path d="M 769.5 167 h 10"></path><path d="M 779.5 167 h 10"></path><g class="terminal ">
<path d="M 789.5 167 h 0.0"></path><path d="M 860.5 167 h 0.0"></path><rect height="22" rx="10" ry="10" width="71.0" x="789.5" y="156"></rect><text x="825.0" y="171">"\va&#42;"</text></g></g><path d="M 860.5 167 h 20"></path></g><path d="M 880.5 167 a 10 10 0 0 1 10 10 v 0 a 10 10 0 0 1 -10 10 h -800.5 a 10 10 0 0 0 -10 10 v 8 a 10 10 0 0 0 10 10"></path><g>
<path d="M 80.0 215 h 238.0"></path><path d="M 642.5 215 h 238.0"></path><path d="M 318.0 215 a 10 10 0 0 0 10 -10 v 0 a 10 10 0 0 1 10 -10"></path><g>
<path d="M 338.0 195 h 284.5"></path></g><path d="M 622.5 195 a 10 10 0 0 1 10 10 v 0 a 10 10 0 0 0 10 10"></path><path d="M 318.0 215 h 20"></path><g>
<path d="M 338.0 215 h 0.0"></path><path d="M 622.5 215 h 0.0"></path><g class="terminal ">
<path d="M 338.0 215 h 0.0"></path><path d="M 400.5 215 h 0.0"></path><rect height="22" rx="10" ry="10" width="62.5" x="338.0" y="204"></rect><text x="369.25" y="219">"\vp"</text></g><path d="M 400.5 215 h 10"></path><path d="M 410.5 215 h 10"></path><g class="terminal ">
<path d="M 420.5 215 h 0.0"></path><path d="M 457.5 215 h 0.0"></path><rect height="22" rx="10" ry="10" width="37.0" x="420.5" y="204"></rect><text x="439.0" y="219">WS</text></g><path d="M 457.5 215 h 10"></path><path d="M 467.5 215 h 10"></path><g class="terminal ">
<path d="M 477.5 215 h 0.0"></path><path d="M 531.5 215 h 0.0"></path><rect height="22" rx="10" ry="10" width="54.0" x="477.5" y="204"></rect><text x="504.5" y="219">Text</text></g><path d="M 531.5 215 h 10"></path><path d="M 541.5 215 h 10"></path><g class="terminal ">
<path d="M 551.5 215 h 0.0"></path><path d="M 622.5 215 h 0.0"></path><rect height="22" rx="10" ry="10" width="71.0" x="551.5" y="204"></rect><text x="587.0" y="219">"\vp&#42;"</text></g></g><path d="M 622.5 215 h 20"></path></g><path d="M 880.5 215 h 10"></path><path d="M 890.5 215 h 10.0"></path></g><g class="non-terminal ">
<path d="M 60.0 52 h 0.0"></path><path d="M 140.0 52 h 0.0"></path><text class="comment" x="100.0" y="57">VerseStart</text></g></g><g class="non-terminal ">
<path d="M 50.0 28 h 0.0"></path><path d="M 95.0 28 h 0.0"></path><text class="comment" x="72.5" y="33">Verse</text></g></g><path d="M 910.5 215 h 10"></path><path d="M 920.5 215 h 20 m 0 -10 v 20"></path></g></svg>