<svg class="railroad-diagram" height="436" viewBox="0 0 1217.5 436" width="1217.5" xmlns="http://www.w3.org/2000/svg" xmlns:xlink="http://www.w3.org/1999/xlink">
<g transform="translate(.5 .5)">
<style>/* <![CDATA[ */

    svg.railroad-diagram {
        background-color: hsl(30,20%,95%);
    }
    svg.railroad-diagram path {
        stroke-width: 2;
        stroke: black;
        fill: none;
    }
    svg.railroad-diagram text {
        font-size: 12px;
        text-anchor: middle;
        font-family: DejaVu Sans;
    }
    svg.railroad-diagram text.label {
        text-anchor:start;
    }
    svg.railroad-diagram text.comment {
        font-family: DejaVu Sans;
        font-size: 14px;
    }
    svg.railroad-diagram rect{
        stroke-width: 2;
        stroke: black;
        fill: rgb(210, 255, 210);
    }
    svg.railroad-diagram rect.group-box {
        stroke: gray;
        stroke-dasharray: 10 5;
        fill: none;
    }
    .terminal {
        font-family: DejaVu Sans;
    }
    svg.railroad-diagram g.altterminal rect {
        fill: rgb(251, 252, 207)
    }

/* ]]> */
</style><g>
<path d="M 20 31 v 20 m 0 -10 h 20"></path></g><path d="M 40 41 h 10"></path><g>
<path d="M 50 41 h 0.0"></path><path d="M 1167.5 326 h 0.0"></path><g>
<path d="M 50.0 41 h 0.0"></path><path d="M 50.0 41 h 10"></path><g>
<path d="M 60.0 41 h 427.75"></path><path d="M 729.75 41 h 427.75"></path><g class="terminal ">
<path d="M 487.75 41 h 0.0"></path><path d="M 533.25 41 h 0.0"></path><rect height="22" rx="10" ry="10" width="45.5" x="487.75" y="30"></rect><text x="510.5" y="45">'\'</text></g><path d="M 533.25 41 h 10"></path><path d="M 543.25 41 h 10"></path><g class="terminal ">
<path d="M 553.25 41 h 0.0"></path><path d="M 598.75 41 h 0.0"></path><rect height="22" rx="10" ry="10" width="45.5" x="553.25" y="30"></rect><text x="576.0" y="45">"v"</text></g><path d="M 598.75 41 h 10"></path><path d="M 608.75 41 h 10"></path><g>
<path d="M 618.75 41 h 0.0"></path><path d="M 729.75 41 h 0.0"></path><path d="M 618.75 41 h 20"></path><g class="terminal ">
<path d="M 638.75 41 h 12.75"></path><path d="M 697.0 41 h 12.75"></path><rect height="22" rx="10" ry="10" width="45.5" x="651.5" y="30"></rect><text x="674.25" y="45">' '</text></g><path d="M 709.75 41 h 20"></path><path d="M 618.75 41 a 10 10 0 0 1 10 10 v 10 a 10 10 0 0 0 10 10"></path><g class="terminal altterminal">
<path d="M 638.75 71 h 0.0"></path><path d="M 709.75 71 h 0.0"></path><rect height="22" rx="10" ry="10" width="71.0" x="638.75" y="60"></rect><text x="674.25" y="75">TAGEND</text></g><path d="M 709.75 71 a 10 10 0 0 0 10 -10 v -10 a 10 10 0 0 1 10 -10"></path></g></g><path d="M 1157.5 41 a 10 10 0 0 1 10 10 v 39 a 10 10 0 0 1 -10 10 h -1097.5 a 10 10 0 0 0 -10 10 v 9 a 10 10 0 0 0 10 10"></path><g>
<path d="M 60.0 129 h 10.0"></path><path d="M 1147.5 129 h 10.0"></path><g class="terminal ">
<path d="M 70.0 129 h 0.0"></path><path d="M 532.0 129 h 0.0"></path><rect height="22" rx="10" ry="10" width="462.0" x="70.0" y="118"></rect><text x="301.0" y="133">/&#91;0-9&#93;+&#91;\p{L}\p{Mn}&#93;&#42;(‏?&#91;\-,&#93;&#91;0-9&#93;+&#91;\p{L}\p{Mn}&#93;&#42;)&#42;/</text></g><path d="M 532.0 129 h 10"></path><path d="M 542.0 129 h 10"></path><g>
<path d="M 552.0 129 h 0.0"></path><path d="M 1147.5 129 h 0.0"></path><path d="M 552.0 129 h 20"></path><g class="terminal ">
<path d="M 572.0 129 h 255.0"></path><path d="M 872.5 129 h 255.0"></path><rect height="22" rx="10" ry="10" width="45.5" x="827.0" y="118"></rect><text x="849.75" y="133">' '</text></g><path d="M 1127.5 129 h 20"></path><path d="M 552.0 129 a 10 10 0 0 1 10 10 v 10 a 10 10 0 0 0 10 10"></path><g class="terminal altterminal">
<path d="M 572.0 159 h 0.0"></path><path d="M 1127.5 159 h 0.0"></path><rect height="22" rx="10" ry="10" width="555.5" x="572.0" y="148"></rect><text x="849.75" y="163">/((?:&#91;\u0009-\u000D\u0020&#93;|(?:\u000D?\u000A|\u000D)|$)|(?=\\))/</text></g><path d="M 1127.5 159 a 10 10 0 0 0 10 -10 v -10 a 10 10 0 0 1 10 -10"></path></g></g><path d="M 1157.5 129 a 10 10 0 0 1 10 10 v 39 a 10 10 0 0 1 -10 10 h -1097.5 a 10 10 0 0 0 -10 10 v 0 a 10 10 0 0 0 10 10"></path><g>
<path d="M 60.0 208 h 126.25"></path><path d="M 1031.25 208 h 126.25"></path><path d="M 186.25 208 h 20"></path><g>
<path d="M 206.25 208 h 805.0"></path></g><path d="M 1011.25 208 h 20"></path><path d="M 186.25 208 a 10 10 0 0 1 10 10 v 9 a 10 10 0 0 0 10 10"></path><g>
<path d="M 206.25 237 h 0.0"></path><path d="M 1011.25 237 h 0.0"></path><g class="terminal ">
<path d="M 206.25 237 h 0.0"></path><path d="M 251.75 237 h 0.0"></path><rect height="22" rx="10" ry="10" width="45.5" x="206.25" y="226"></rect><text x="229.0" y="241">'\'</text></g><path d="M 251.75 237 h 10"></path><path d="M 261.75 237 h 10"></path><g class="terminal ">
<path d="M 271.75 237 h 0.0"></path><path d="M 325.75 237 h 0.0"></path><rect height="22" rx="10" ry="10" width="54.0" x="271.75" y="226"></rect><text x="298.75" y="241">'va'</text></g><path d="M 325.75 237 h 10"></path><path d="M 335.75 237 h 10"></path><g>
<path d="M 345.75 237 h 0.0"></path><path d="M 456.75 237 h 0.0"></path><path d="M 345.75 237 h 20"></path><g class="terminal ">
<path d="M 365.75 237 h 12.75"></path><path d="M 424.0 237 h 12.75"></path><rect height="22" rx="10" ry="10" width="45.5" x="378.5" y="226"></rect><text x="401.25" y="241">' '</text></g><path d="M 436.75 237 h 20"></path><path d="M 345.75 237 a 10 10 0 0 1 10 10 v 10 a 10 10 0 0 0 10 10"></path><g class="terminal altterminal">
<path d="M 365.75 267 h 0.0"></path><path d="M 436.75 267 h 0.0"></path><rect height="22" rx="10" ry="10" width="71.0" x="365.75" y="256"></rect><text x="401.25" y="271">TAGEND</text></g><path d="M 436.75 267 a 10 10 0 0 0 10 -10 v -10 a 10 10 0 0 1 10 -10"></path></g><path d="M 456.75 237 h 10"></path><path d="M 466.75 237 h 10"></path><g class="terminal ">
<path d="M 476.75 237 h 0.0"></path><path d="M 530.75 237 h 0.0"></path><rect height="22" rx="10" ry="10" width="54.0" x="476.75" y="226"></rect><text x="503.75" y="241">TEXT</text></g><path d="M 530.75 237 h 10"></path><path d="M 540.75 237 h 10"></path><g class="terminal ">
<path d="M 550.75 237 h 0.0"></path><path d="M 630.25 237 h 0.0"></path><rect height="22" rx="10" ry="10" width="79.5" x="550.75" y="226"></rect><text x="590.5" y="241">TEXTEND</text></g><path d="M 630.25 237 h 10"></path><path d="M 640.25 237 h 10"></path><g class="terminal ">
<path d="M 650.25 237 h 0.0"></path><path d="M 695.75 237 h 0.0"></path><rect height="22" rx="10" ry="10" width="45.5" x="650.25" y="226"></rect><text x="673.0" y="241">'\'</text></g><path d="M 695.75 237 h 10"></path><path d="M 705.75 237 h 10"></path><g class="terminal ">
<path d="M 715.75 237 h 0.0"></path><path d="M 769.75 237 h 0.0"></path><rect height="22" rx="10" ry="10" width="54.0" x="715.75" y="226"></rect><text x="742.75" y="241">'va'</text></g><path d="M 769.75 237 h 10"></path><path d="M 779.75 237 h 10"></path><g>
<path d="M 789.75 237 h 0.0"></path><path d="M 1011.25 237 h 0.0"></path><path d="M 789.75 237 h 20"></path><g class="terminal ">
<path d="M 809.75 237 h 59.5"></path><path d="M 931.75 237 h 59.5"></path><rect height="22" rx="10" ry="10" width="62.5" x="869.25" y="226"></rect><text x="900.5" y="241">'\&#42; '</text></g><path d="M 991.25 237 h 20"></path><path d="M 789.75 237 a 10 10 0 0 1 10 10 v 10 a 10 10 0 0 0 10 10"></path><g class="terminal altterminal">
<path d="M 809.75 267 h 0.0"></path><path d="M 991.25 267 h 0.0"></path><rect height="22" rx="10" ry="10" width="181.5" x="809.75" y="256"></rect><text x="900.5" y="271">/\&#42;&#91;\u0009\u0020&#93;&#42;/</text></g><path d="M 991.25 267 a 10 10 0 0 0 10 -10 v -10 a 10 10 0 0 1 10 -10"></path></g></g><path d="M 1011.25 237 a 10 10 0 0 0 10 -10 v -9 a 10 10 0 0 1 10 -10"></path></g><path d="M 1157.5 208 a 10 10 0 0 1 10 10 v 78 a 10 10 0 0 1 -10 10 h -1097.5 a 10 10 0 0 0 -10 10 v 0 a 10 10 0 0 0 10 10"></path><g>
<path d="M 60.0 326 h 126.25"></path><path d="M 1031.25 326 h 126.25"></path><path d="M 186.25 326 h 20"></path><g>
<path d="M 206.25 326 h 805.0"></path></g><path d="M 1011.25 326 h 20"></path><path d="M 186.25 326 a 10 10 0 0 1 10 10 v 9 a 10 10 0 0 0 10 10"></path><g>
<path d="M 206.25 355 h 0.0"></path><path d="M 1011.25 355 h 0.0"></path><g class="terminal ">
<path d="M 206.25 355 h 0.0"></path><path d="M 251.75 355 h 0.0"></path><rect height="22" rx="10" ry="10" width="45.5" x="206.25" y="344"></rect><text x="229.0" y="359">'\'</text></g><path d="M 251.75 355 h 10"></path><path d="M 261.75 355 h 10"></path><g class="terminal ">
<path d="M 271.75 355 h 0.0"></path><path d="M 325.75 355 h 0.0"></path><rect height="22" rx="10" ry="10" width="54.0" x="271.75" y="344"></rect><text x="298.75" y="359">'vp'</text></g><path d="M 325.75 355 h 10"></path><path d="M 335.75 355 h 10"></path><g>
<path d="M 345.75 355 h 0.0"></path><path d="M 456.75 355 h 0.0"></path><path d="M 345.75 355 h 20"></path><g class="terminal ">
<path d="M 365.75 355 h 12.75"></path><path d="M 424.0 355 h 12.75"></path><rect height="22" rx="10" ry="10" width="45.5" x="378.5" y="344"></rect><text x="401.25" y="359">' '</text></g><path d="M 436.75 355 h 20"></path><path d="M 345.75 355 a 10 10 0 0 1 10 10 v 10 a 10 10 0 0 0 10 10"></path><g class="terminal altterminal">
<path d="M 365.75 385 h 0.0"></path><path d="M 436.75 385 h 0.0"></path><rect height="22" rx="10" ry="10" width="71.0" x="365.75" y="374"></rect><text x="401.25" y="389">TAGEND</text></g><path d="M 436.75 385 a 10 10 0 0 0 10 -10 v -10 a 10 10 0 0 1 10 -10"></path></g><path d="M 456.75 355 h 10"></path><path d="M 466.75 355 h 10"></path><g class="terminal ">
<path d="M 476.75 355 h 0.0"></path><path d="M 530.75 355 h 0.0"></path><rect height="22" rx="10" ry="10" width="54.0" x="476.75" y="344"></rect><text x="503.75" y="359">TEXT</text></g><path d="M 530.75 355 h 10"></path><path d="M 540.75 355 h 10"></path><g class="terminal ">
<path d="M 550.75 355 h 0.0"></path><path d="M 630.25 355 h 0.0"></path><rect height="22" rx="10" ry="10" width="79.5" x="550.75" y="344"></rect><text x="590.5" y="359">TEXTEND</text></g><path d="M 630.25 355 h 10"></path><path d="M 640.25 355 h 10"></path><g class="terminal ">
<path d="M 650.25 355 h 0.0"></path><path d="M 695.75 355 h 0.0"></path><rect height="22" rx="10" ry="10" width="45.5" x="650.25" y="344"></rect><text x="673.0" y="359">'\'</text></g><path d="M 695.75 355 h 10"></path><path d="M 705.75 355 h 10"></path><g class="terminal ">
<path d="M 715.75 355 h 0.0"></path><path d="M 769.75 355 h 0.0"></path><rect height="22" rx="10" ry="10" width="54.0" x="715.75" y="344"></rect><text x="742.75" y="359">'vp'</text></g><path d="M 769.75 355 h 10"></path><path d="M 779.75 355 h 10"></path><g>
<path d="M 789.75 355 h 0.0"></path><path d="M 1011.25 355 h 0.0"></path><path d="M 789.75 355 h 20"></path><g class="terminal ">
<path d="M 809.75 355 h 59.5"></path><path d="M 931.75 355 h 59.5"></path><rect height="22" rx="10" ry="10" width="62.5" x="869.25" y="344"></rect><text x="900.5" y="359">'\&#42; '</text></g><path d="M 991.25 355 h 20"></path><path d="M 789.75 355 a 10 10 0 0 1 10 10 v 10 a 10 10 0 0 0 10 10"></path><g class="terminal altterminal">
<path d="M 809.75 385 h 0.0"></path><path d="M 991.25 385 h 0.0"></path><rect height="22" rx="10" ry="10" width="181.5" x="809.75" y="374"></rect><text x="900.5" y="389">/\&#42;&#91;\u0009\u0020&#93;&#42;/</text></g><path d="M 991.25 385 a 10 10 0 0 0 10 -10 v -10 a 10 10 0 0 1 10 -10"></path></g></g><path d="M 1011.25 355 a 10 10 0 0 0 10 -10 v -9 a 10 10 0 0 1 10 -10"></path></g><path d="M 1157.5 326 h 10"></path><path d="M 1167.5 326 h 0.0"></path></g></g><path d="M 1167.5 326 h 10"></path><path d="M 1177.5 326 h 20 m 0 -10 v 20"></path></g></svg>