<svg class="railroad-diagram" height="436" viewBox="0 0 1523.5 436" width="1523.5" xmlns="http://www.w3.org/2000/svg" xmlns:xlink="http://www.w3.org/1999/xlink">
<g transform="translate(.5 .5)">
<style>/* <![CDATA[ */

    svg.railroad-diagram {
        background-color: hsl(30,20%,95%);
    }
    svg.railroad-diagram path {
        stroke-width: 2;
        stroke: black;
        fill: none;
    }
    svg.railroad-diagram text {
        font-size: 12px;
        text-anchor: middle;
        font-family: DejaVu Sans;
    }
    svg.railroad-diagram text.label {
        text-anchor:start;
    }
    svg.railroad-diagram text.comment {
        font-family: DejaVu Sans;
        font-size: 14px;
    }
    svg.railroad-diagram rect{
        stroke-width: 2;
        stroke: black;
        fill: rgb(210, 255, 210);
    }
    svg.railroad-diagram rect.group-box {
        stroke: gray;
        stroke-dasharray: 10 5;
        fill: none;
    }
    .terminal {
        font-family: DejaVu Sans;
    }
    svg.railroad-diagram g.altterminal rect {
        fill: rgb(251, 252, 207)
    }

/* ]]> */
</style><g>
<path d="M 20 31 v 20 m 0 -10 h 20"></path></g><path d="M 40 41 h 10"></path><g>
<path d="M 50 41 h 0.0"></path><path d="M 1473.5 326 h 0.0"></path><g>
<path d="M 50.0 41 h 0.0"></path><path d="M 50.0 41 h 10"></path><g>
<path d="M 60.0 41 h 580.75"></path><path d="M 882.75 41 h 580.75"></path><g class="terminal ">
<path d="M 640.75 41 h 0.0"></path><path d="M 686.25 41 h 0.0"></path><rect height="22" rx="10" ry="10" width="45.5" x="640.75" y="30"></rect><text x="663.5" y="45">'\'</text></g><path d="M 686.25 41 h 10"></path><path d="M 696.25 41 h 10"></path><g class="terminal ">
<path d="M 706.25 41 h 0.0"></path><path d="M 751.75 41 h 0.0"></path><rect height="22" rx="10" ry="10" width="45.5" x="706.25" y="30"></rect><text x="729.0" y="45">"v"</text></g><path d="M 751.75 41 h 10"></path><path d="M 761.75 41 h 10"></path><g>
<path d="M 771.75 41 h 0.0"></path><path d="M 882.75 41 h 0.0"></path><path d="M 771.75 41 h 20"></path><g class="terminal ">
<path d="M 791.75 41 h 12.75"></path><path d="M 850.0 41 h 12.75"></path><rect height="22" rx="10" ry="10" width="45.5" x="804.5" y="30"></rect><text x="827.25" y="45">' '</text></g><path d="M 862.75 41 h 20"></path><path d="M 771.75 41 a 10 10 0 0 1 10 10 v 10 a 10 10 0 0 0 10 10"></path><g class="terminal altterminal">
<path d="M 791.75 71 h 0.0"></path><path d="M 862.75 71 h 0.0"></path><rect height="22" rx="10" ry="10" width="71.0" x="791.75" y="60"></rect><text x="827.25" y="75">TAGEND</text></g><path d="M 862.75 71 a 10 10 0 0 0 10 -10 v -10 a 10 10 0 0 1 10 -10"></path></g></g><path d="M 1463.5 41 a 10 10 0 0 1 10 10 v 39 a 10 10 0 0 1 -10 10 h -1403.5 a 10 10 0 0 0 -10 10 v 9 a 10 10 0 0 0 10 10"></path><g>
<path d="M 60.0 129 h 10.0"></path><path d="M 1453.5 129 h 10.0"></path><g class="terminal ">
<path d="M 70.0 129 h 0.0"></path><path d="M 532.0 129 h 0.0"></path><rect height="22" rx="10" ry="10" width="462.0" x="70.0" y="118"></rect><text x="301.0" y="133">/&#91;0-9&#93;+&#91;\p{L}\p{Mn}&#93;&#42;(‏?&#91;\-,&#93;&#91;0-9&#93;+&#91;\p{L}\p{Mn}&#93;&#42;)&#42;/</text></g><path d="M 532.0 129 h 10"></path><path d="M 542.0 129 h 10"></path><g>
<path d="M 552.0 129 h 0.0"></path><path d="M 1453.5 129 h 0.0"></path><path d="M 552.0 129 h 20"></path><g class="terminal ">
<path d="M 572.0 129 h 408.0"></path><path d="M 1025.5 129 h 408.0"></path><rect height="22" rx="10" ry="10" width="45.5" x="980.0" y="118"></rect><text x="1002.75" y="133">' '</text></g><path d="M 1433.5 129 h 20"></path><path d="M 552.0 129 a 10 10 0 0 1 10 10 v 10 a 10 10 0 0 0 10 10"></path><g class="terminal altterminal">
<path d="M 572.0 159 h 0.0"></path><path d="M 1433.5 159 h 0.0"></path><rect height="22" rx="10" ry="10" width="861.5" x="572.0" y="148"></rect><text x="1002.75" y="163">/(?:&#91;\u0009-\u000D\u0020\u00A0\u1680\u2000-\u200B\u2028\u2029\u202F\u205F&#93;|\u000D?\u000A|$)|(?=\\)/</text></g><path d="M 1433.5 159 a 10 10 0 0 0 10 -10 v -10 a 10 10 0 0 1 10 -10"></path></g></g><path d="M 1463.5 129 a 10 10 0 0 1 10 10 v 39 a 10 10 0 0 1 -10 10 h -1403.5 a 10 10 0 0 0 -10 10 v 0 a 10 10 0 0 0 10 10"></path><g>
<path d="M 60.0 208 h 41.25"></path><path d="M 1422.25 208 h 41.25"></path><path d="M 101.25 208 h 20"></path><g>
<path d="M 121.25 208 h 1281.0"></path></g><path d="M 1402.25 208 h 20"></path><path d="M 101.25 208 a 10 10 0 0 1 10 10 v 9 a 10 10 0 0 0 10 10"></path><g>
<path d="M 121.25 237 h 0.0"></path><path d="M 1402.25 237 h 0.0"></path><g class="terminal ">
<path d="M 121.25 237 h 0.0"></path><path d="M 166.75 237 h 0.0"></path><rect height="22" rx="10" ry="10" width="45.5" x="121.25" y="226"></rect><text x="144.0" y="241">'\'</text></g><path d="M 166.75 237 h 10"></path><path d="M 176.75 237 h 10"></path><g class="terminal ">
<path d="M 186.75 237 h 0.0"></path><path d="M 240.75 237 h 0.0"></path><rect height="22" rx="10" ry="10" width="54.0" x="186.75" y="226"></rect><text x="213.75" y="241">'va'</text></g><path d="M 240.75 237 h 10"></path><path d="M 250.75 237 h 10"></path><g>
<path d="M 260.75 237 h 0.0"></path><path d="M 371.75 237 h 0.0"></path><path d="M 260.75 237 h 20"></path><g class="terminal ">
<path d="M 280.75 237 h 12.75"></path><path d="M 339.0 237 h 12.75"></path><rect height="22" rx="10" ry="10" width="45.5" x="293.5" y="226"></rect><text x="316.25" y="241">' '</text></g><path d="M 351.75 237 h 20"></path><path d="M 260.75 237 a 10 10 0 0 1 10 10 v 10 a 10 10 0 0 0 10 10"></path><g class="terminal altterminal">
<path d="M 280.75 267 h 0.0"></path><path d="M 351.75 267 h 0.0"></path><rect height="22" rx="10" ry="10" width="71.0" x="280.75" y="256"></rect><text x="316.25" y="271">TAGEND</text></g><path d="M 351.75 267 a 10 10 0 0 0 10 -10 v -10 a 10 10 0 0 1 10 -10"></path></g><path d="M 371.75 237 h 10"></path><path d="M 381.75 237 h 10"></path><g class="terminal ">
<path d="M 391.75 237 h 0.0"></path><path d="M 445.75 237 h 0.0"></path><rect height="22" rx="10" ry="10" width="54.0" x="391.75" y="226"></rect><text x="418.75" y="241">TEXT</text></g><path d="M 445.75 237 h 10"></path><path d="M 455.75 237 h 10"></path><g class="terminal ">
<path d="M 465.75 237 h 0.0"></path><path d="M 545.25 237 h 0.0"></path><rect height="22" rx="10" ry="10" width="79.5" x="465.75" y="226"></rect><text x="505.5" y="241">TEXTEND</text></g><path d="M 545.25 237 h 10"></path><path d="M 555.25 237 h 10"></path><g class="terminal ">
<path d="M 565.25 237 h 0.0"></path><path d="M 610.75 237 h 0.0"></path><rect height="22" rx="10" ry="10" width="45.5" x="565.25" y="226"></rect><text x="588.0" y="241">'\'</text></g><path d="M 610.75 237 h 10"></path><path d="M 620.75 237 h 10"></path><g class="terminal ">
<path d="M 630.75 237 h 0.0"></path><path d="M 684.75 237 h 0.0"></path><rect height="22" rx="10" ry="10" width="54.0" x="630.75" y="226"></rect><text x="657.75" y="241">'va'</text></g><path d="M 684.75 237 h 10"></path><path d="M 694.75 237 h 10"></path><g>
<path d="M 704.75 237 h 0.0"></path><path d="M 1402.25 237 h 0.0"></path><path d="M 704.75 237 h 20"></path><g class="terminal ">
<path d="M 724.75 237 h 297.5"></path><path d="M 1084.75 237 h 297.5"></path><rect height="22" rx="10" ry="10" width="62.5" x="1022.25" y="226"></rect><text x="1053.5" y="241">'\&#42; '</text></g><path d="M 1382.25 237 h 20"></path><path d="M 704.75 237 a 10 10 0 0 1 10 10 v 10 a 10 10 0 0 0 10 10"></path><g class="terminal altterminal">
<path d="M 724.75 267 h 0.0"></path><path d="M 1382.25 267 h 0.0"></path><rect height="22" rx="10" ry="10" width="657.5" x="724.75" y="256"></rect><text x="1053.5" y="271">/\&#42;&#91;\u0009-\u000D\u0020\u00A0\u1680\u2000-\u200B\u2028\u2029\u202F\u205F&#93;&#42;/</text></g><path d="M 1382.25 267 a 10 10 0 0 0 10 -10 v -10 a 10 10 0 0 1 10 -10"></path></g></g><path d="M 1402.25 237 a 10 10 0 0 0 10 -10 v -9 a 10 10 0 0 1 10 -10"></path></g><path d="M 1463.5 208 a 10 10 0 0 1 10 10 v 78 a 10 10 0 0 1 -10 10 h -1403.5 a 10 10 0 0 0 -10 10 v 0 a 10 10 0 0 0 10 10"></path><g>
<path d="M 60.0 326 h 41.25"></path><path d="M 1422.25 326 h 41.25"></path><path d="M 101.25 326 h 20"></path><g>
<path d="M 121.25 326 h 1281.0"></path></g><path d="M 1402.25 326 h 20"></path><path d="M 101.25 326 a 10 10 0 0 1 10 10 v 9 a 10 10 0 0 0 10 10"></path><g>
<path d="M 121.25 355 h 0.0"></path><path d="M 1402.25 355 h 0.0"></path><g class="terminal ">
<path d="M 121.25 355 h 0.0"></path><path d="M 166.75 355 h 0.0"></path><rect height="22" rx="10" ry="10" width="45.5" x="121.25" y="344"></rect><text x="144.0" y="359">'\'</text></g><path d="M 166.75 355 h 10"></path><path d="M 176.75 355 h 10"></path><g class="terminal ">
<path d="M 186.75 355 h 0.0"></path><path d="M 240.75 355 h 0.0"></path><rect height="22" rx="10" ry="10" width="54.0" x="186.75" y="344"></rect><text x="213.75" y="359">'vp'</text></g><path d="M 240.75 355 h 10"></path><path d="M 250.75 355 h 10"></path><g>
<path d="M 260.75 355 h 0.0"></path><path d="M 371.75 355 h 0.0"></path><path d="M 260.75 355 h 20"></path><g class="terminal ">
<path d="M 280.75 355 h 12.75"></path><path d="M 339.0 355 h 12.75"></path><rect height="22" rx="10" ry="10" width="45.5" x="293.5" y="344"></rect><text x="316.25" y="359">' '</text></g><path d="M 351.75 355 h 20"></path><path d="M 260.75 355 a 10 10 0 0 1 10 10 v 10 a 10 10 0 0 0 10 10"></path><g class="terminal altterminal">
<path d="M 280.75 385 h 0.0"></path><path d="M 351.75 385 h 0.0"></path><rect height="22" rx="10" ry="10" width="71.0" x="280.75" y="374"></rect><text x="316.25" y="389">TAGEND</text></g><path d="M 351.75 385 a 10 10 0 0 0 10 -10 v -10 a 10 10 0 0 1 10 -10"></path></g><path d="M 371.75 355 h 10"></path><path d="M 381.75 355 h 10"></path><g class="terminal ">
<path d="M 391.75 355 h 0.0"></path><path d="M 445.75 355 h 0.0"></path><rect height="22" rx="10" ry="10" width="54.0" x="391.75" y="344"></rect><text x="418.75" y="359">TEXT</text></g><path d="M 445.75 355 h 10"></path><path d="M 455.75 355 h 10"></path><g class="terminal ">
<path d="M 465.75 355 h 0.0"></path><path d="M 545.25 355 h 0.0"></path><rect height="22" rx="10" ry="10" width="79.5" x="465.75" y="344"></rect><text x="505.5" y="359">TEXTEND</text></g><path d="M 545.25 355 h 10"></path><path d="M 555.25 355 h 10"></path><g class="terminal ">
<path d="M 565.25 355 h 0.0"></path><path d="M 610.75 355 h 0.0"></path><rect height="22" rx="10" ry="10" width="45.5" x="565.25" y="344"></rect><text x="588.0" y="359">'\'</text></g><path d="M 610.75 355 h 10"></path><path d="M 620.75 355 h 10"></path><g class="terminal ">
<path d="M 630.75 355 h 0.0"></path><path d="M 684.75 355 h 0.0"></path><rect height="22" rx="10" ry="10" width="54.0" x="630.75" y="344"></rect><text x="657.75" y="359">'vp'</text></g><path d="M 684.75 355 h 10"></path><path d="M 694.75 355 h 10"></path><g>
<path d="M 704.75 355 h 0.0"></path><path d="M 1402.25 355 h 0.0"></path><path d="M 704.75 355 h 20"></path><g class="terminal ">
<path d="M 724.75 355 h 297.5"></path><path d="M 1084.75 355 h 297.5"></path><rect height="22" rx="10" ry="10" width="62.5" x="1022.25" y="344"></rect><text x="1053.5" y="359">'\&#42; '</text></g><path d="M 1382.25 355 h 20"></path><path d="M 704.75 355 a 10 10 0 0 1 10 10 v 10 a 10 10 0 0 0 10 10"></path><g class="terminal altterminal">
<path d="M 724.75 385 h 0.0"></path><path d="M 1382.25 385 h 0.0"></path><rect height="22" rx="10" ry="10" width="657.5" x="724.75" y="374"></rect><text x="1053.5" y="389">/\&#42;&#91;\u0009-\u000D\u0020\u00A0\u1680\u2000-\u200B\u2028\u2029\u202F\u205F&#93;&#42;/</text></g><path d="M 1382.25 385 a 10 10 0 0 0 10 -10 v -10 a 10 10 0 0 1 10 -10"></path></g></g><path d="M 1402.25 355 a 10 10 0 0 0 10 -10 v -9 a 10 10 0 0 1 10 -10"></path></g><path d="M 1463.5 326 h 10"></path><path d="M 1473.5 326 h 0.0"></path></g></g><path d="M 1473.5 326 h 10"></path><path d="M 1483.5 326 h 20 m 0 -10 v 20"></path></g></svg>