<svg class="railroad-diagram" height="308" viewBox="0 0 1981.0 308" width="1981.0" xmlns="http://www.w3.org/2000/svg" xmlns:xlink="http://www.w3.org/1999/xlink">
<g transform="translate(.5 .5)">
<style>/* <![CDATA[ */
    svg.railroad-diagram {
        background-color:hsl(30,20%,95%);
    }
    svg.railroad-diagram path {
        stroke-width: 2;
        stroke: black;
        fill: none;
    }
    svg.railroad-diagram text {
        font-size: 12px;
        text-anchor: middle;
        font-family: DejaVu Sans;
    }
    svg.railroad-diagram text.label {
        text-anchor:start;
    }
    svg.railroad-diagram text.comment {
        font-family: DejaVu Sans;
        font-size: 14px;
    }
    svg.railroad-diagram rect{
        stroke-width: 2;
        stroke:black;
        fill: rgb(210, 255, 210);
    }
    svg.railroad-diagram rect.group-box {
        stroke: gray;
        stroke-dasharray: 10 5;
        fill: none;
    }
    .terminal {
        font-family: DejaVu Sans;
    }

/* ]]> */
</style><g>
<path d="M 20 69 v 20 m 0 -10 h 20"></path></g><path d="M 40 79 h 10"></path><g>
<path d="M 50 79 h 0.0"></path><path d="M 1931.0 79 h 0.0"></path><rect class="group-box" height="252" rx="10" ry="10" width="1881.0" x="50.0" y="36"></rect><g>
<path d="M 50.0 79 h 10.0"></path><path d="M 1921.0 79 h 10.0"></path><g>
<path d="M 60.0 79 h 0.0"></path><path d="M 191.0 79 h 0.0"></path><rect class="group-box" height="38" rx="10" ry="10" width="131.0" x="60.0" y="60"></rect><g>
<path d="M 60.0 79 h 10.0"></path><path d="M 181.0 79 h 10.0"></path><g class="terminal ">
<path d="M 70.0 79 h 0.0"></path><path d="M 115.5 79 h 0.0"></path><rect height="22" rx="10" ry="10" width="45.5" x="70.0" y="68"></rect><text x="92.75" y="83">"\"</text></g><path d="M 115.5 79 h 10"></path><path d="M 125.5 79 h 10"></path><g class="terminal ">
<path d="M 135.5 79 h 0.0"></path><path d="M 181.0 79 h 0.0"></path><rect height="22" rx="10" ry="10" width="45.5" x="135.5" y="68"></rect><text x="158.25" y="83">"w"</text></g></g><g class="non-terminal ">
<path d="M 60.0 52 h 0.0"></path><path d="M 77.0 52 h 0.0"></path><text class="comment" x="68.5" y="57">➊</text></g></g><path d="M 191.0 79 h 10"></path><path d="M 201.0 79 h 10"></path><g class="terminal ">
<path d="M 211.0 79 h 0.0"></path><path d="M 248.0 79 h 0.0"></path><rect height="22" rx="10" ry="10" width="37.0" x="211.0" y="68"></rect><text x="229.5" y="83">WS</text></g><path d="M 248.0 79 h 10"></path><g>
<path d="M 258.0 79 h 0.0"></path><path d="M 1243.5 79 h 0.0"></path><path d="M 258.0 79 a 10 10 0 0 0 10 -10 v 0 a 10 10 0 0 1 10 -10"></path><g>
<path d="M 278.0 59 h 945.5"></path></g><path d="M 1223.5 59 a 10 10 0 0 1 10 10 v 0 a 10 10 0 0 0 10 10"></path><path d="M 258.0 79 h 20"></path><g>
<path d="M 278.0 79 h 0.0"></path><path d="M 1223.5 79 h 0.0"></path><path d="M 278.0 79 h 10"></path><g>
<path d="M 288.0 79 h 0.0"></path><path d="M 1213.5 79 h 0.0"></path><path d="M 288.0 79 h 20"></path><g>
<path d="M 308.0 79 h 296.25"></path><path d="M 897.25 79 h 296.25"></path><g class="terminal ">
<path d="M 604.25 79 h 0.0"></path><path d="M 692.25 79 h 0.0"></path><rect height="22" rx="10" ry="10" width="88.0" x="604.25" y="68"></rect><text x="648.25" y="83">"lemma="</text></g><path d="M 692.25 79 h 10"></path><path d="M 702.25 79 h 10"></path><g class="terminal ">
<path d="M 712.25 79 h 0.0"></path><path d="M 757.75 79 h 0.0"></path><rect height="22" rx="10" ry="10" width="45.5" x="712.25" y="68"></rect><text x="735.0" y="83">'"'</text></g><path d="M 757.75 79 h 10"></path><path d="M 767.75 79 h 10"></path><g class="terminal ">
<path d="M 777.75 79 h 0.0"></path><path d="M 831.75 79 h 0.0"></path><rect height="22" rx="10" ry="10" width="54.0" x="777.75" y="68"></rect><text x="804.75" y="83">Text</text></g><path d="M 831.75 79 h 10"></path><path d="M 841.75 79 h 10"></path><g class="terminal ">
<path d="M 851.75 79 h 0.0"></path><path d="M 897.25 79 h 0.0"></path><rect height="22" rx="10" ry="10" width="45.5" x="851.75" y="68"></rect><text x="874.5" y="83">'"'</text></g></g><path d="M 1193.5 79 h 20"></path><path d="M 288.0 79 a 10 10 0 0 1 10 10 v 10 a 10 10 0 0 0 10 10"></path><g>
<path d="M 308.0 109 h 59.5"></path><path d="M 1134.0 109 h 59.5"></path><g class="terminal ">
<path d="M 367.5 109 h 0.0"></path><path d="M 464.0 109 h 0.0"></path><rect height="22" rx="10" ry="10" width="96.5" x="367.5" y="98"></rect><text x="415.75" y="113">"strong="</text></g><path d="M 464.0 109 h 10"></path><path d="M 474.0 109 h 10"></path><g class="terminal ">
<path d="M 484.0 109 h 0.0"></path><path d="M 529.5 109 h 0.0"></path><rect height="22" rx="10" ry="10" width="45.5" x="484.0" y="98"></rect><text x="506.75" y="113">'"'</text></g><path d="M 529.5 109 h 10"></path><path d="M 539.5 109 h 10"></path><g class="terminal ">
<path d="M 549.5 109 h 0.0"></path><path d="M 799.0 109 h 0.0"></path><rect height="22" rx="10" ry="10" width="249.5" x="549.5" y="98"></rect><text x="674.25" y="113">/(&#91;HG&#93;\d{4,5}(:&#91;a-z&#93;)?,?)+/</text></g><path d="M 799.0 109 h 10"></path><path d="M 809.0 109 h 10"></path><g class="terminal ">
<path d="M 819.0 109 h 0.0"></path><path d="M 864.5 109 h 0.0"></path><rect height="22" rx="10" ry="10" width="45.5" x="819.0" y="98"></rect><text x="841.75" y="113">'"'</text></g><path d="M 864.5 109 h 10"></path><path d="M 874.5 109 h 10"></path><g class="terminal ">
<path d="M 884.5 109 h 0.0"></path><path d="M 1134.0 109 h 0.0"></path><rect height="22" rx="10" ry="10" width="249.5" x="884.5" y="98"></rect><text x="1009.25" y="113">/(&#91;HG&#93;\d{4,5}(:&#91;a-z&#93;)?,?)+/</text></g></g><path d="M 1193.5 109 a 10 10 0 0 0 10 -10 v -10 a 10 10 0 0 1 10 -10"></path><path d="M 288.0 79 a 10 10 0 0 1 10 10 v 40 a 10 10 0 0 0 10 10"></path><g>
<path d="M 308.0 139 h 0.0"></path><path d="M 1193.5 139 h 0.0"></path><g class="terminal ">
<path d="M 308.0 139 h 0.0"></path><path d="M 404.5 139 h 0.0"></path><rect height="22" rx="10" ry="10" width="96.5" x="308.0" y="128"></rect><text x="356.25" y="143">"srcloc="</text></g><path d="M 404.5 139 h 10"></path><path d="M 414.5 139 h 10"></path><g class="terminal ">
<path d="M 424.5 139 h 0.0"></path><path d="M 470.0 139 h 0.0"></path><rect height="22" rx="10" ry="10" width="45.5" x="424.5" y="128"></rect><text x="447.25" y="143">'"'</text></g><path d="M 470.0 139 h 10"></path><path d="M 480.0 139 h 10"></path><g class="terminal ">
<path d="M 490.0 139 h 0.0"></path><path d="M 799.0 139 h 0.0"></path><rect height="22" rx="10" ry="10" width="309.0" x="490.0" y="128"></rect><text x="644.5" y="143">/&#91;a-z&#93;{3,5}\d?:\d+\.\d+\.\d+\.\d+/</text></g><path d="M 799.0 139 h 10"></path><path d="M 809.0 139 h 10"></path><g class="terminal ">
<path d="M 819.0 139 h 0.0"></path><path d="M 864.5 139 h 0.0"></path><rect height="22" rx="10" ry="10" width="45.5" x="819.0" y="128"></rect><text x="841.75" y="143">'"'</text></g><path d="M 864.5 139 h 10"></path><path d="M 874.5 139 h 10"></path><g class="terminal ">
<path d="M 884.5 139 h 0.0"></path><path d="M 1193.5 139 h 0.0"></path><rect height="22" rx="10" ry="10" width="309.0" x="884.5" y="128"></rect><text x="1039.0" y="143">/&#91;a-z&#93;{3,5}\d?:\d+\.\d+\.\d+\.\d+/</text></g></g><path d="M 1193.5 139 a 10 10 0 0 0 10 -10 v -40 a 10 10 0 0 1 10 -10"></path></g><path d="M 1213.5 79 h 10"></path><path d="M 288.0 79 a 10 10 0 0 0 -10 10 v 70 a 10 10 0 0 0 10 10"></path><g class="terminal ">
<path d="M 288.0 169 h 444.25"></path><path d="M 769.25 169 h 444.25"></path><rect height="22" rx="10" ry="10" width="37.0" x="732.25" y="158"></rect><text x="750.75" y="173">WS</text></g><path d="M 1213.5 169 a 10 10 0 0 0 10 -10 v -70 a 10 10 0 0 0 -10 -10"></path></g><path d="M 1223.5 79 h 20"></path></g><path d="M 1243.5 79 h 10"></path><g class="non-terminal ">
<path d="M 1253.5 79 h 0.0"></path><path d="M 1350.0 79 h 0.0"></path><rect height="22" width="96.5" x="1253.5" y="68"></rect><text x="1301.75" y="83">char.link</text></g><path d="M 1350.0 79 h 10"></path><g>
<path d="M 1360.0 79 h 0.0"></path><path d="M 1513.5 79 h 0.0"></path><path d="M 1360.0 79 h 20"></path><g>
<path d="M 1380.0 79 h 113.5"></path></g><path d="M 1493.5 79 h 20"></path><path d="M 1360.0 79 a 10 10 0 0 1 10 10 v 0 a 10 10 0 0 0 10 10"></path><g class="non-terminal ">
<path d="M 1380.0 99 h 0.0"></path><path d="M 1493.5 99 h 0.0"></path><rect height="22" width="113.5" x="1380.0" y="88"></rect><text x="1436.75" y="103">char.closed</text></g><path d="M 1493.5 99 a 10 10 0 0 0 10 -10 v 0 a 10 10 0 0 1 10 -10"></path></g><g>
<path d="M 1513.5 79 h 0.0"></path><path d="M 1800.0 79 h 0.0"></path><path d="M 1513.5 79 a 10 10 0 0 0 10 -10 v 0 a 10 10 0 0 1 10 -10"></path><g>
<path d="M 1533.5 59 h 246.5"></path></g><path d="M 1780.0 59 a 10 10 0 0 1 10 10 v 0 a 10 10 0 0 0 10 10"></path><path d="M 1513.5 79 h 20"></path><g>
<path d="M 1533.5 79 h 0.0"></path><path d="M 1780.0 79 h 0.0"></path><path d="M 1533.5 79 h 10"></path><g>
<path d="M 1543.5 79 h 0.0"></path><path d="M 1770.0 79 h 0.0"></path><path d="M 1543.5 79 h 20"></path><g class="non-terminal ">
<path d="M 1563.5 79 h 45.0"></path><path d="M 1705.0 79 h 45.0"></path><rect height="22" width="96.5" x="1608.5" y="68"></rect><text x="1656.75" y="83">Reference</text></g><path d="M 1750.0 79 h 20"></path><path d="M 1543.5 79 a 10 10 0 0 1 10 10 v 10 a 10 10 0 0 0 10 10"></path><g class="non-terminal ">
<path d="M 1563.5 109 h 66.25"></path><path d="M 1683.75 109 h 66.25"></path><rect height="22" width="54.0" x="1629.75" y="98"></rect><text x="1656.75" y="113">Char</text></g><path d="M 1750.0 109 a 10 10 0 0 0 10 -10 v -10 a 10 10 0 0 1 10 -10"></path><path d="M 1543.5 79 a 10 10 0 0 1 10 10 v 40 a 10 10 0 0 0 10 10"></path><g class="non-terminal ">
<path d="M 1563.5 139 h 45.0"></path><path d="M 1705.0 139 h 45.0"></path><rect height="22" width="96.5" x="1608.5" y="128"></rect><text x="1656.75" y="143">Milestone</text></g><path d="M 1750.0 139 a 10 10 0 0 0 10 -10 v -40 a 10 10 0 0 1 10 -10"></path><path d="M 1543.5 79 a 10 10 0 0 1 10 10 v 70 a 10 10 0 0 0 10 10"></path><g class="non-terminal ">
<path d="M 1563.5 169 h 49.25"></path><path d="M 1700.75 169 h 49.25"></path><rect height="22" width="88.0" x="1612.75" y="158"></rect><text x="1656.75" y="173">Footnote</text></g><path d="M 1750.0 169 a 10 10 0 0 0 10 -10 v -70 a 10 10 0 0 1 10 -10"></path><path d="M 1543.5 79 a 10 10 0 0 1 10 10 v 124 a 10 10 0 0 0 10 10"></path><g>
<path d="M 1563.5 223 h 0.0"></path><path d="M 1750.0 223 h 0.0"></path><rect class="group-box" height="68" rx="10" ry="10" width="186.5" x="1563.5" y="204"></rect><g>
<path d="M 1563.5 223 h 10.0"></path><path d="M 1740.0 223 h 10.0"></path><g class="terminal ">
<path d="M 1573.5 223 h 0.0"></path><path d="M 1627.5 223 h 0.0"></path><rect height="22" rx="10" ry="10" width="54.0" x="1573.5" y="212"></rect><text x="1600.5" y="227">"\b"</text></g><path d="M 1627.5 223 h 10"></path><g>
<path d="M 1637.5 223 h 0.0"></path><path d="M 1740.0 223 h 0.0"></path><path d="M 1637.5 223 h 20"></path><g class="terminal ">
<path d="M 1657.5 223 h 0.0"></path><path d="M 1720.0 223 h 0.0"></path><rect height="22" rx="10" ry="10" width="62.5" x="1657.5" y="212"></rect><text x="1688.75" y="227">⇒ "\"</text></g><path d="M 1720.0 223 h 20"></path><path d="M 1637.5 223 a 10 10 0 0 1 10 10 v 10 a 10 10 0 0 0 10 10"></path><g class="terminal ">
<path d="M 1657.5 253 h 12.75"></path><path d="M 1707.25 253 h 12.75"></path><rect height="22" rx="10" ry="10" width="37.0" x="1670.25" y="242"></rect><text x="1688.75" y="257">WS</text></g><path d="M 1720.0 253 a 10 10 0 0 0 10 -10 v -10 a 10 10 0 0 1 10 -10"></path></g></g><g class="non-terminal ">
<path d="M 1563.5 196 h 0.0"></path><path d="M 1608.5 196 h 0.0"></path><text class="comment" x="1586.0" y="201">Break</text></g></g><path d="M 1750.0 223 a 10 10 0 0 0 10 -10 v -124 a 10 10 0 0 1 10 -10"></path></g><path d="M 1770.0 79 h 10"></path><path d="M 1543.5 79 a 10 10 0 0 0 -10 10 v 181 a 10 10 0 0 0 10 10"></path><g>
<path d="M 1543.5 280 h 226.5"></path></g><path d="M 1770.0 280 a 10 10 0 0 0 10 -10 v -181 a 10 10 0 0 0 -10 -10"></path></g><path d="M 1780.0 79 h 20"></path></g><path d="M 1800.0 79 h 10"></path><g>
<path d="M 1810.0 79 h 0.0"></path><path d="M 1921.0 79 h 0.0"></path><g class="terminal ">
<path d="M 1810.0 79 h 0.0"></path><path d="M 1855.5 79 h 0.0"></path><rect height="22" rx="10" ry="10" width="45.5" x="1810.0" y="68"></rect><text x="1832.75" y="83">⇐ ➊</text></g><path d="M 1855.5 79 h 10"></path><path d="M 1865.5 79 h 10"></path><g class="terminal ">
<path d="M 1875.5 79 h 0.0"></path><path d="M 1921.0 79 h 0.0"></path><rect height="22" rx="10" ry="10" width="45.5" x="1875.5" y="68"></rect><text x="1898.25" y="83">"&#42;"</text></g></g></g><g class="non-terminal ">
<path d="M 50.0 28 h 0.0"></path><path d="M 249.0 28 h 0.0"></path><text class="comment" x="149.5" y="33">CharWithAttrib.char.style.w</text></g></g><path d="M 1931.0 79 h 10"></path><path d="M 1941.0 79 h 20 m 0 -10 v 20"></path></g></svg>