<svg class="railroad-diagram" height="296" viewBox="0 0 1648.5 296" width="1648.5" xmlns="http://www.w3.org/2000/svg" xmlns:xlink="http://www.w3.org/1999/xlink">
<g transform="translate(.5 .5)">
<style>/* <![CDATA[ */
    svg.railroad-diagram {
        background-color:hsl(30,20%,95%);
    }
    svg.railroad-diagram path {
        stroke-width: 2;
        stroke: black;
        fill: none;
    }
    svg.railroad-diagram text {
        font-size: 12px;
        text-anchor: middle;
        font-family: DejaVu Sans;
    }
    svg.railroad-diagram text.label {
        text-anchor:start;
    }
    svg.railroad-diagram text.comment {
        font-family: DejaVu Sans;
        font-size: 14px;
    }
    svg.railroad-diagram rect{
        stroke-width: 2;
        stroke:black;
        fill: rgb(210, 255, 210);
    }
    svg.railroad-diagram rect.group-box {
        stroke: gray;
        stroke-dasharray: 10 5;
        fill: none;
    }
    .terminal {
        font-family: DejaVu Sans;
    }

/* ]]> */
</style><g>
<path d="M 20 69 v 20 m 0 -10 h 20"></path></g><path d="M 40 79 h 10"></path><g>
<path d="M 50 79 h 0.0"></path><path d="M 1598.5 79 h 0.0"></path><rect class="group-box" height="240" rx="10" ry="10" width="1548.5" x="50.0" y="36"></rect><g>
<path d="M 50.0 79 h 10.0"></path><path d="M 1588.5 79 h 10.0"></path><g>
<path d="M 60.0 79 h 0.0"></path><path d="M 231.0 79 h 0.0"></path><g>
<path d="M 60.0 79 h 0.0"></path><path d="M 174.0 79 h 0.0"></path><rect class="group-box" height="38" rx="10" ry="10" width="114.0" x="60.0" y="60"></rect><g>
<path d="M 60.0 79 h 10.0"></path><path d="M 164.0 79 h 10.0"></path><g class="terminal ">
<path d="M 70.0 79 h 0.0"></path><path d="M 115.5 79 h 0.0"></path><rect height="22" rx="10" ry="10" width="45.5" x="70.0" y="68"></rect><text x="92.75" y="83">"\"</text></g><path d="M 115.5 79 h 10"></path><path d="M 125.5 79 h 10"></path><g class="terminal ">
<path d="M 135.5 79 h 0.0"></path><path d="M 164.0 79 h 0.0"></path><rect height="22" rx="10" ry="10" width="28.5" x="135.5" y="68"></rect><text x="149.75" y="83">w</text></g></g><g class="non-terminal ">
<path d="M 60.0 52 h 0.0"></path><path d="M 77.0 52 h 0.0"></path><text class="comment" x="68.5" y="57">➊</text></g></g><path d="M 174.0 79 h 10"></path><path d="M 184.0 79 h 10"></path><g class="terminal ">
<path d="M 194.0 79 h 0.0"></path><path d="M 231.0 79 h 0.0"></path><rect height="22" rx="10" ry="10" width="37.0" x="194.0" y="68"></rect><text x="212.5" y="83">WS</text></g></g><path d="M 231.0 79 h 10"></path><g>
<path d="M 241.0 79 h 0.0"></path><path d="M 963.0 79 h 0.0"></path><path d="M 241.0 79 a 10 10 0 0 0 10 -10 v 0 a 10 10 0 0 1 10 -10"></path><g>
<path d="M 261.0 59 h 682.0"></path></g><path d="M 943.0 59 a 10 10 0 0 1 10 10 v 0 a 10 10 0 0 0 10 10"></path><path d="M 241.0 79 h 20"></path><g>
<path d="M 261.0 79 h 0.0"></path><path d="M 943.0 79 h 0.0"></path><g class="terminal ">
<path d="M 261.0 79 h 0.0"></path><path d="M 306.5 79 h 0.0"></path><rect height="22" rx="10" ry="10" width="45.5" x="261.0" y="68"></rect><text x="283.75" y="83">"|"</text></g><path d="M 306.5 79 h 10"></path><path d="M 316.5 79 h 10"></path><g>
<path d="M 326.5 79 h 0.0"></path><path d="M 943.0 79 h 0.0"></path><path d="M 326.5 79 h 10"></path><g>
<path d="M 336.5 79 h 0.0"></path><path d="M 933.0 79 h 0.0"></path><path d="M 336.5 79 h 20"></path><g>
<path d="M 356.5 79 h 131.75"></path><path d="M 781.25 79 h 131.75"></path><g>
<path d="M 488.25 79 h 0.0"></path><path d="M 781.25 79 h 0.0"></path><g class="terminal ">
<path d="M 488.25 79 h 0.0"></path><path d="M 576.25 79 h 0.0"></path><rect height="22" rx="10" ry="10" width="88.0" x="488.25" y="68"></rect><text x="532.25" y="83">"lemma="</text></g><path d="M 576.25 79 h 10"></path><path d="M 586.25 79 h 10"></path><g class="terminal ">
<path d="M 596.25 79 h 0.0"></path><path d="M 641.75 79 h 0.0"></path><rect height="22" rx="10" ry="10" width="45.5" x="596.25" y="68"></rect><text x="619.0" y="83">'"'</text></g><path d="M 641.75 79 h 10"></path><path d="M 651.75 79 h 10"></path><g class="terminal ">
<path d="M 661.75 79 h 0.0"></path><path d="M 715.75 79 h 0.0"></path><rect height="22" rx="10" ry="10" width="54.0" x="661.75" y="68"></rect><text x="688.75" y="83">Text</text></g><path d="M 715.75 79 h 10"></path><path d="M 725.75 79 h 10"></path><g class="terminal ">
<path d="M 735.75 79 h 0.0"></path><path d="M 781.25 79 h 0.0"></path><rect height="22" rx="10" ry="10" width="45.5" x="735.75" y="68"></rect><text x="758.5" y="83">'"'</text></g></g></g><path d="M 913.0 79 h 20"></path><path d="M 336.5 79 a 10 10 0 0 1 10 10 v 10 a 10 10 0 0 0 10 10"></path><g>
<path d="M 356.5 109 h 29.75"></path><path d="M 883.25 109 h 29.75"></path><g>
<path d="M 386.25 109 h 0.0"></path><path d="M 883.25 109 h 0.0"></path><g class="terminal ">
<path d="M 386.25 109 h 0.0"></path><path d="M 482.75 109 h 0.0"></path><rect height="22" rx="10" ry="10" width="96.5" x="386.25" y="98"></rect><text x="434.5" y="113">"strong="</text></g><path d="M 482.75 109 h 10"></path><path d="M 492.75 109 h 10"></path><g class="terminal ">
<path d="M 502.75 109 h 0.0"></path><path d="M 548.25 109 h 0.0"></path><rect height="22" rx="10" ry="10" width="45.5" x="502.75" y="98"></rect><text x="525.5" y="113">'"'</text></g><path d="M 548.25 109 h 10"></path><path d="M 558.25 109 h 10"></path><g class="terminal ">
<path d="M 568.25 109 h 0.0"></path><path d="M 817.75 109 h 0.0"></path><rect height="22" rx="10" ry="10" width="249.5" x="568.25" y="98"></rect><text x="693.0" y="113">/(&#91;HG&#93;\d{4,5}(:&#91;a-z&#93;)?,?)+/</text></g><path d="M 817.75 109 h 10"></path><path d="M 827.75 109 h 10"></path><g class="terminal ">
<path d="M 837.75 109 h 0.0"></path><path d="M 883.25 109 h 0.0"></path><rect height="22" rx="10" ry="10" width="45.5" x="837.75" y="98"></rect><text x="860.5" y="113">'"'</text></g></g></g><path d="M 913.0 109 a 10 10 0 0 0 10 -10 v -10 a 10 10 0 0 1 10 -10"></path><path d="M 336.5 79 a 10 10 0 0 1 10 10 v 40 a 10 10 0 0 0 10 10"></path><g>
<path d="M 356.5 139 h 0.0"></path><path d="M 913.0 139 h 0.0"></path><g>
<path d="M 356.5 139 h 0.0"></path><path d="M 913.0 139 h 0.0"></path><g class="terminal ">
<path d="M 356.5 139 h 0.0"></path><path d="M 453.0 139 h 0.0"></path><rect height="22" rx="10" ry="10" width="96.5" x="356.5" y="128"></rect><text x="404.75" y="143">"srcloc="</text></g><path d="M 453.0 139 h 10"></path><path d="M 463.0 139 h 10"></path><g class="terminal ">
<path d="M 473.0 139 h 0.0"></path><path d="M 518.5 139 h 0.0"></path><rect height="22" rx="10" ry="10" width="45.5" x="473.0" y="128"></rect><text x="495.75" y="143">'"'</text></g><path d="M 518.5 139 h 10"></path><path d="M 528.5 139 h 10"></path><g class="terminal ">
<path d="M 538.5 139 h 0.0"></path><path d="M 847.5 139 h 0.0"></path><rect height="22" rx="10" ry="10" width="309.0" x="538.5" y="128"></rect><text x="693.0" y="143">/&#91;a-z&#93;{3,5}\d?:\d+\.\d+\.\d+\.\d+/</text></g><path d="M 847.5 139 h 10"></path><path d="M 857.5 139 h 10"></path><g class="terminal ">
<path d="M 867.5 139 h 0.0"></path><path d="M 913.0 139 h 0.0"></path><rect height="22" rx="10" ry="10" width="45.5" x="867.5" y="128"></rect><text x="890.25" y="143">'"'</text></g></g></g><path d="M 913.0 139 a 10 10 0 0 0 10 -10 v -40 a 10 10 0 0 1 10 -10"></path></g><path d="M 933.0 79 h 10"></path><path d="M 336.5 79 a 10 10 0 0 0 -10 10 v 70 a 10 10 0 0 0 10 10"></path><g class="terminal ">
<path d="M 336.5 169 h 279.75"></path><path d="M 653.25 169 h 279.75"></path><rect height="22" rx="10" ry="10" width="37.0" x="616.25" y="158"></rect><text x="634.75" y="173">WS</text></g><path d="M 933.0 169 a 10 10 0 0 0 10 -10 v -70 a 10 10 0 0 0 -10 -10"></path></g></g><path d="M 943.0 79 h 20"></path></g><path d="M 963.0 79 h 10"></path><g class="non-terminal ">
<path d="M 973.0 79 h 0.0"></path><path d="M 1069.5 79 h 0.0"></path><rect height="22" width="96.5" x="973.0" y="68"></rect><text x="1021.25" y="83">char.link</text></g><path d="M 1069.5 79 h 10"></path><g>
<path d="M 1079.5 79 h 0.0"></path><path d="M 1467.5 79 h 0.0"></path><path d="M 1079.5 79 a 10 10 0 0 0 10 -10 v 0 a 10 10 0 0 1 10 -10"></path><g>
<path d="M 1099.5 59 h 348.0"></path></g><path d="M 1447.5 59 a 10 10 0 0 1 10 10 v 0 a 10 10 0 0 0 10 10"></path><path d="M 1079.5 79 h 20"></path><g>
<path d="M 1099.5 79 h 0.0"></path><path d="M 1447.5 79 h 0.0"></path><path d="M 1099.5 79 h 10"></path><g>
<path d="M 1109.5 79 h 0.0"></path><path d="M 1437.5 79 h 0.0"></path><path d="M 1109.5 79 h 20"></path><g class="non-terminal ">
<path d="M 1129.5 79 h 95.75"></path><path d="M 1321.75 79 h 95.75"></path><rect height="22" width="96.5" x="1225.25" y="68"></rect><text x="1273.5" y="83">Reference</text></g><path d="M 1417.5 79 h 20"></path><path d="M 1109.5 79 a 10 10 0 0 1 10 10 v 10 a 10 10 0 0 0 10 10"></path><g class="non-terminal ">
<path d="M 1129.5 109 h 117.0"></path><path d="M 1300.5 109 h 117.0"></path><rect height="22" width="54.0" x="1246.5" y="98"></rect><text x="1273.5" y="113">Char</text></g><path d="M 1417.5 109 a 10 10 0 0 0 10 -10 v -10 a 10 10 0 0 1 10 -10"></path><path d="M 1109.5 79 a 10 10 0 0 1 10 10 v 40 a 10 10 0 0 0 10 10"></path><g class="non-terminal ">
<path d="M 1129.5 139 h 95.75"></path><path d="M 1321.75 139 h 95.75"></path><rect height="22" width="96.5" x="1225.25" y="128"></rect><text x="1273.5" y="143">Milestone</text></g><path d="M 1417.5 139 a 10 10 0 0 0 10 -10 v -40 a 10 10 0 0 1 10 -10"></path><path d="M 1109.5 79 a 10 10 0 0 1 10 10 v 70 a 10 10 0 0 0 10 10"></path><g class="non-terminal ">
<path d="M 1129.5 169 h 100.0"></path><path d="M 1317.5 169 h 100.0"></path><rect height="22" width="88.0" x="1229.5" y="158"></rect><text x="1273.5" y="173">Footnote</text></g><path d="M 1417.5 169 a 10 10 0 0 0 10 -10 v -70 a 10 10 0 0 1 10 -10"></path><path d="M 1109.5 79 a 10 10 0 0 1 10 10 v 133 a 10 10 0 0 0 10 10"></path><g>
<path d="M 1129.5 232 h 0.0"></path><path d="M 1417.5 232 h 0.0"></path><rect class="group-box" height="56" rx="10" ry="10" width="288.0" x="1129.5" y="204"></rect><g>
<path d="M 1129.5 232 h 10.0"></path><path d="M 1407.5 232 h 10.0"></path><g>
<path d="M 1139.5 232 h 0.0"></path><path d="M 1236.5 232 h 0.0"></path><path d="M 1139.5 232 a 10 10 0 0 0 10 -10 v 0 a 10 10 0 0 1 10 -10"></path><g>
<path d="M 1159.5 212 h 57.0"></path></g><path d="M 1216.5 212 a 10 10 0 0 1 10 10 v 0 a 10 10 0 0 0 10 10"></path><path d="M 1139.5 232 h 20"></path><g>
<path d="M 1159.5 232 h 0.0"></path><path d="M 1216.5 232 h 0.0"></path><path d="M 1159.5 232 h 10"></path><g class="terminal ">
<path d="M 1169.5 232 h 0.0"></path><path d="M 1206.5 232 h 0.0"></path><rect height="22" rx="10" ry="10" width="37.0" x="1169.5" y="221"></rect><text x="1188.0" y="236">WS</text></g><path d="M 1206.5 232 h 10"></path><path d="M 1169.5 232 a 10 10 0 0 0 -10 10 v 0 a 10 10 0 0 0 10 10"></path><g>
<path d="M 1169.5 252 h 37.0"></path></g><path d="M 1206.5 252 a 10 10 0 0 0 10 -10 v 0 a 10 10 0 0 0 -10 -10"></path></g><path d="M 1216.5 232 h 20"></path></g><path d="M 1236.5 232 h 10"></path><g class="terminal ">
<path d="M 1246.5 232 h 0.0"></path><path d="M 1300.5 232 h 0.0"></path><rect height="22" rx="10" ry="10" width="54.0" x="1246.5" y="221"></rect><text x="1273.5" y="236">"//"</text></g><path d="M 1300.5 232 h 10"></path><g>
<path d="M 1310.5 232 h 0.0"></path><path d="M 1407.5 232 h 0.0"></path><path d="M 1310.5 232 a 10 10 0 0 0 10 -10 v 0 a 10 10 0 0 1 10 -10"></path><g>
<path d="M 1330.5 212 h 57.0"></path></g><path d="M 1387.5 212 a 10 10 0 0 1 10 10 v 0 a 10 10 0 0 0 10 10"></path><path d="M 1310.5 232 h 20"></path><g>
<path d="M 1330.5 232 h 0.0"></path><path d="M 1387.5 232 h 0.0"></path><path d="M 1330.5 232 h 10"></path><g class="terminal ">
<path d="M 1340.5 232 h 0.0"></path><path d="M 1377.5 232 h 0.0"></path><rect height="22" rx="10" ry="10" width="37.0" x="1340.5" y="221"></rect><text x="1359.0" y="236">WS</text></g><path d="M 1377.5 232 h 10"></path><path d="M 1340.5 232 a 10 10 0 0 0 -10 10 v 0 a 10 10 0 0 0 10 10"></path><g>
<path d="M 1340.5 252 h 37.0"></path></g><path d="M 1377.5 252 a 10 10 0 0 0 10 -10 v 0 a 10 10 0 0 0 -10 -10"></path></g><path d="M 1387.5 232 h 20"></path></g></g><g class="non-terminal ">
<path d="M 1129.5 196 h 0.0"></path><path d="M 1174.5 196 h 0.0"></path><text class="comment" x="1152.0" y="201">Break</text></g></g><path d="M 1417.5 232 a 10 10 0 0 0 10 -10 v -133 a 10 10 0 0 1 10 -10"></path></g><path d="M 1437.5 79 h 10"></path><path d="M 1109.5 79 a 10 10 0 0 0 -10 10 v 169 a 10 10 0 0 0 10 10"></path><g>
<path d="M 1109.5 268 h 328.0"></path></g><path d="M 1437.5 268 a 10 10 0 0 0 10 -10 v -169 a 10 10 0 0 0 -10 -10"></path></g><path d="M 1447.5 79 h 20"></path></g><path d="M 1467.5 79 h 10"></path><g>
<path d="M 1477.5 79 h 0.0"></path><path d="M 1588.5 79 h 0.0"></path><g class="terminal ">
<path d="M 1477.5 79 h 0.0"></path><path d="M 1523.0 79 h 0.0"></path><rect height="22" rx="10" ry="10" width="45.5" x="1477.5" y="68"></rect><text x="1500.25" y="83">⇐ ➊</text></g><path d="M 1523.0 79 h 10"></path><path d="M 1533.0 79 h 10"></path><g class="terminal ">
<path d="M 1543.0 79 h 0.0"></path><path d="M 1588.5 79 h 0.0"></path><rect height="22" rx="10" ry="10" width="45.5" x="1543.0" y="68"></rect><text x="1565.75" y="83">"&#42;"</text></g></g></g><g class="non-terminal ">
<path d="M 50.0 28 h 0.0"></path><path d="M 249.0 28 h 0.0"></path><text class="comment" x="149.5" y="33">CharWithAttrib.char.style.w</text></g></g><path d="M 1598.5 79 h 10"></path><path d="M 1608.5 79 h 20 m 0 -10 v 20"></path></g></svg>