<svg class="railroad-diagram" height="308" viewBox="0 0 1507.0 308" width="1507.0" xmlns="http://www.w3.org/2000/svg" xmlns:xlink="http://www.w3.org/1999/xlink">
<g transform="translate(.5 .5)">
<style>/* <![CDATA[ */
    svg.railroad-diagram {
        background-color:hsl(30,20%,95%);
    }
    svg.railroad-diagram path {
        stroke-width: 2;
        stroke: black;
        fill: none;
    }
    svg.railroad-diagram text {
        font-size: 12px;
        text-anchor: middle;
        font-family: DejaVu Sans;
    }
    svg.railroad-diagram text.label {
        text-anchor:start;
    }
    svg.railroad-diagram text.comment {
        font-family: DejaVu Sans;
        font-size: 14px;
    }
    svg.railroad-diagram rect{
        stroke-width: 2;
        stroke:black;
        fill: rgb(210, 255, 210);
    }
    svg.railroad-diagram rect.group-box {
        stroke: gray;
        stroke-dasharray: 10 5;
        fill: none;
    }
    .terminal {
        font-family: DejaVu Sans;
    }

/* ]]> */
</style><g>
<path d="M 20 69 v 20 m 0 -10 h 20"></path></g><path d="M 40 79 h 10"></path><g>
<path d="M 50 79 h 0.0"></path><path d="M 1457.0 79 h 0.0"></path><rect class="group-box" height="252" rx="10" ry="10" width="1407.0" x="50.0" y="36"></rect><g>
<path d="M 50.0 79 h 10.0"></path><path d="M 1447.0 79 h 10.0"></path><g>
<path d="M 60.0 79 h 0.0"></path><path d="M 191.0 79 h 0.0"></path><g>
<path d="M 60.0 79 h 0.0"></path><path d="M 134.0 79 h 0.0"></path><rect class="group-box" height="38" rx="10" ry="10" width="74.0" x="60.0" y="60"></rect><g class="terminal ">
<path d="M 60.0 79 h 10.0"></path><path d="M 124.0 79 h 10.0"></path><rect height="22" rx="10" ry="10" width="54.0" x="70.0" y="68"></rect><text x="97.0" y="83">"\w"</text></g><g class="non-terminal ">
<path d="M 60.0 52 h 0.0"></path><path d="M 77.0 52 h 0.0"></path><text class="comment" x="68.5" y="57">➊</text></g></g><path d="M 134.0 79 h 10"></path><path d="M 144.0 79 h 10"></path><g class="terminal ">
<path d="M 154.0 79 h 0.0"></path><path d="M 191.0 79 h 0.0"></path><rect height="22" rx="10" ry="10" width="37.0" x="154.0" y="68"></rect><text x="172.5" y="83">WS</text></g></g><path d="M 191.0 79 h 10"></path><g>
<path d="M 201.0 79 h 0.0"></path><path d="M 923.0 79 h 0.0"></path><path d="M 201.0 79 a 10 10 0 0 0 10 -10 v 0 a 10 10 0 0 1 10 -10"></path><g>
<path d="M 221.0 59 h 682.0"></path></g><path d="M 903.0 59 a 10 10 0 0 1 10 10 v 0 a 10 10 0 0 0 10 10"></path><path d="M 201.0 79 h 20"></path><g>
<path d="M 221.0 79 h 0.0"></path><path d="M 903.0 79 h 0.0"></path><g class="terminal ">
<path d="M 221.0 79 h 0.0"></path><path d="M 266.5 79 h 0.0"></path><rect height="22" rx="10" ry="10" width="45.5" x="221.0" y="68"></rect><text x="243.75" y="83">"|"</text></g><path d="M 266.5 79 h 10"></path><path d="M 276.5 79 h 10"></path><g>
<path d="M 286.5 79 h 0.0"></path><path d="M 903.0 79 h 0.0"></path><path d="M 286.5 79 h 10"></path><g>
<path d="M 296.5 79 h 0.0"></path><path d="M 893.0 79 h 0.0"></path><path d="M 296.5 79 h 20"></path><g>
<path d="M 316.5 79 h 131.75"></path><path d="M 741.25 79 h 131.75"></path><g>
<path d="M 448.25 79 h 0.0"></path><path d="M 741.25 79 h 0.0"></path><g class="terminal ">
<path d="M 448.25 79 h 0.0"></path><path d="M 536.25 79 h 0.0"></path><rect height="22" rx="10" ry="10" width="88.0" x="448.25" y="68"></rect><text x="492.25" y="83">"lemma="</text></g><path d="M 536.25 79 h 10"></path><path d="M 546.25 79 h 10"></path><g class="terminal ">
<path d="M 556.25 79 h 0.0"></path><path d="M 601.75 79 h 0.0"></path><rect height="22" rx="10" ry="10" width="45.5" x="556.25" y="68"></rect><text x="579.0" y="83">'"'</text></g><path d="M 601.75 79 h 10"></path><path d="M 611.75 79 h 10"></path><g class="terminal ">
<path d="M 621.75 79 h 0.0"></path><path d="M 675.75 79 h 0.0"></path><rect height="22" rx="10" ry="10" width="54.0" x="621.75" y="68"></rect><text x="648.75" y="83">Text</text></g><path d="M 675.75 79 h 10"></path><path d="M 685.75 79 h 10"></path><g class="terminal ">
<path d="M 695.75 79 h 0.0"></path><path d="M 741.25 79 h 0.0"></path><rect height="22" rx="10" ry="10" width="45.5" x="695.75" y="68"></rect><text x="718.5" y="83">'"'</text></g></g></g><path d="M 873.0 79 h 20"></path><path d="M 296.5 79 a 10 10 0 0 1 10 10 v 10 a 10 10 0 0 0 10 10"></path><g>
<path d="M 316.5 109 h 29.75"></path><path d="M 843.25 109 h 29.75"></path><g>
<path d="M 346.25 109 h 0.0"></path><path d="M 843.25 109 h 0.0"></path><g class="terminal ">
<path d="M 346.25 109 h 0.0"></path><path d="M 442.75 109 h 0.0"></path><rect height="22" rx="10" ry="10" width="96.5" x="346.25" y="98"></rect><text x="394.5" y="113">"strong="</text></g><path d="M 442.75 109 h 10"></path><path d="M 452.75 109 h 10"></path><g class="terminal ">
<path d="M 462.75 109 h 0.0"></path><path d="M 508.25 109 h 0.0"></path><rect height="22" rx="10" ry="10" width="45.5" x="462.75" y="98"></rect><text x="485.5" y="113">'"'</text></g><path d="M 508.25 109 h 10"></path><path d="M 518.25 109 h 10"></path><g class="terminal ">
<path d="M 528.25 109 h 0.0"></path><path d="M 777.75 109 h 0.0"></path><rect height="22" rx="10" ry="10" width="249.5" x="528.25" y="98"></rect><text x="653.0" y="113">/(&#91;HG&#93;\d{4,5}(:&#91;a-z&#93;)?,?)+/</text></g><path d="M 777.75 109 h 10"></path><path d="M 787.75 109 h 10"></path><g class="terminal ">
<path d="M 797.75 109 h 0.0"></path><path d="M 843.25 109 h 0.0"></path><rect height="22" rx="10" ry="10" width="45.5" x="797.75" y="98"></rect><text x="820.5" y="113">'"'</text></g></g></g><path d="M 873.0 109 a 10 10 0 0 0 10 -10 v -10 a 10 10 0 0 1 10 -10"></path><path d="M 296.5 79 a 10 10 0 0 1 10 10 v 40 a 10 10 0 0 0 10 10"></path><g>
<path d="M 316.5 139 h 0.0"></path><path d="M 873.0 139 h 0.0"></path><g>
<path d="M 316.5 139 h 0.0"></path><path d="M 873.0 139 h 0.0"></path><g class="terminal ">
<path d="M 316.5 139 h 0.0"></path><path d="M 413.0 139 h 0.0"></path><rect height="22" rx="10" ry="10" width="96.5" x="316.5" y="128"></rect><text x="364.75" y="143">"srcloc="</text></g><path d="M 413.0 139 h 10"></path><path d="M 423.0 139 h 10"></path><g class="terminal ">
<path d="M 433.0 139 h 0.0"></path><path d="M 478.5 139 h 0.0"></path><rect height="22" rx="10" ry="10" width="45.5" x="433.0" y="128"></rect><text x="455.75" y="143">'"'</text></g><path d="M 478.5 139 h 10"></path><path d="M 488.5 139 h 10"></path><g class="terminal ">
<path d="M 498.5 139 h 0.0"></path><path d="M 807.5 139 h 0.0"></path><rect height="22" rx="10" ry="10" width="309.0" x="498.5" y="128"></rect><text x="653.0" y="143">/&#91;a-z&#93;{3,5}\d?:\d+\.\d+\.\d+\.\d+/</text></g><path d="M 807.5 139 h 10"></path><path d="M 817.5 139 h 10"></path><g class="terminal ">
<path d="M 827.5 139 h 0.0"></path><path d="M 873.0 139 h 0.0"></path><rect height="22" rx="10" ry="10" width="45.5" x="827.5" y="128"></rect><text x="850.25" y="143">'"'</text></g></g></g><path d="M 873.0 139 a 10 10 0 0 0 10 -10 v -40 a 10 10 0 0 1 10 -10"></path></g><path d="M 893.0 79 h 10"></path><path d="M 296.5 79 a 10 10 0 0 0 -10 10 v 70 a 10 10 0 0 0 10 10"></path><g class="terminal ">
<path d="M 296.5 169 h 279.75"></path><path d="M 613.25 169 h 279.75"></path><rect height="22" rx="10" ry="10" width="37.0" x="576.25" y="158"></rect><text x="594.75" y="173">WS</text></g><path d="M 893.0 169 a 10 10 0 0 0 10 -10 v -70 a 10 10 0 0 0 -10 -10"></path></g></g><path d="M 903.0 79 h 20"></path></g><path d="M 923.0 79 h 10"></path><g class="non-terminal ">
<path d="M 933.0 79 h 0.0"></path><path d="M 1029.5 79 h 0.0"></path><rect height="22" width="96.5" x="933.0" y="68"></rect><text x="981.25" y="83">char.link</text></g><path d="M 1029.5 79 h 10"></path><g>
<path d="M 1039.5 79 h 0.0"></path><path d="M 1326.0 79 h 0.0"></path><path d="M 1039.5 79 a 10 10 0 0 0 10 -10 v 0 a 10 10 0 0 1 10 -10"></path><g>
<path d="M 1059.5 59 h 246.5"></path></g><path d="M 1306.0 59 a 10 10 0 0 1 10 10 v 0 a 10 10 0 0 0 10 10"></path><path d="M 1039.5 79 h 20"></path><g>
<path d="M 1059.5 79 h 0.0"></path><path d="M 1306.0 79 h 0.0"></path><path d="M 1059.5 79 h 10"></path><g>
<path d="M 1069.5 79 h 0.0"></path><path d="M 1296.0 79 h 0.0"></path><path d="M 1069.5 79 h 20"></path><g class="non-terminal ">
<path d="M 1089.5 79 h 45.0"></path><path d="M 1231.0 79 h 45.0"></path><rect height="22" width="96.5" x="1134.5" y="68"></rect><text x="1182.75" y="83">Reference</text></g><path d="M 1276.0 79 h 20"></path><path d="M 1069.5 79 a 10 10 0 0 1 10 10 v 10 a 10 10 0 0 0 10 10"></path><g class="non-terminal ">
<path d="M 1089.5 109 h 66.25"></path><path d="M 1209.75 109 h 66.25"></path><rect height="22" width="54.0" x="1155.75" y="98"></rect><text x="1182.75" y="113">Char</text></g><path d="M 1276.0 109 a 10 10 0 0 0 10 -10 v -10 a 10 10 0 0 1 10 -10"></path><path d="M 1069.5 79 a 10 10 0 0 1 10 10 v 40 a 10 10 0 0 0 10 10"></path><g class="non-terminal ">
<path d="M 1089.5 139 h 45.0"></path><path d="M 1231.0 139 h 45.0"></path><rect height="22" width="96.5" x="1134.5" y="128"></rect><text x="1182.75" y="143">Milestone</text></g><path d="M 1276.0 139 a 10 10 0 0 0 10 -10 v -40 a 10 10 0 0 1 10 -10"></path><path d="M 1069.5 79 a 10 10 0 0 1 10 10 v 70 a 10 10 0 0 0 10 10"></path><g class="non-terminal ">
<path d="M 1089.5 169 h 49.25"></path><path d="M 1226.75 169 h 49.25"></path><rect height="22" width="88.0" x="1138.75" y="158"></rect><text x="1182.75" y="173">Footnote</text></g><path d="M 1276.0 169 a 10 10 0 0 0 10 -10 v -70 a 10 10 0 0 1 10 -10"></path><path d="M 1069.5 79 a 10 10 0 0 1 10 10 v 124 a 10 10 0 0 0 10 10"></path><g>
<path d="M 1089.5 223 h 0.0"></path><path d="M 1276.0 223 h 0.0"></path><rect class="group-box" height="68" rx="10" ry="10" width="186.5" x="1089.5" y="204"></rect><g>
<path d="M 1089.5 223 h 10.0"></path><path d="M 1266.0 223 h 10.0"></path><g class="terminal ">
<path d="M 1099.5 223 h 0.0"></path><path d="M 1153.5 223 h 0.0"></path><rect height="22" rx="10" ry="10" width="54.0" x="1099.5" y="212"></rect><text x="1126.5" y="227">"\b"</text></g><path d="M 1153.5 223 h 10"></path><g>
<path d="M 1163.5 223 h 0.0"></path><path d="M 1266.0 223 h 0.0"></path><path d="M 1163.5 223 h 20"></path><g class="terminal ">
<path d="M 1183.5 223 h 0.0"></path><path d="M 1246.0 223 h 0.0"></path><rect height="22" rx="10" ry="10" width="62.5" x="1183.5" y="212"></rect><text x="1214.75" y="227">⇒ "\"</text></g><path d="M 1246.0 223 h 20"></path><path d="M 1163.5 223 a 10 10 0 0 1 10 10 v 10 a 10 10 0 0 0 10 10"></path><g class="terminal ">
<path d="M 1183.5 253 h 12.75"></path><path d="M 1233.25 253 h 12.75"></path><rect height="22" rx="10" ry="10" width="37.0" x="1196.25" y="242"></rect><text x="1214.75" y="257">WS</text></g><path d="M 1246.0 253 a 10 10 0 0 0 10 -10 v -10 a 10 10 0 0 1 10 -10"></path></g></g><g class="non-terminal ">
<path d="M 1089.5 196 h 0.0"></path><path d="M 1134.5 196 h 0.0"></path><text class="comment" x="1112.0" y="201">Break</text></g></g><path d="M 1276.0 223 a 10 10 0 0 0 10 -10 v -124 a 10 10 0 0 1 10 -10"></path></g><path d="M 1296.0 79 h 10"></path><path d="M 1069.5 79 a 10 10 0 0 0 -10 10 v 181 a 10 10 0 0 0 10 10"></path><g>
<path d="M 1069.5 280 h 226.5"></path></g><path d="M 1296.0 280 a 10 10 0 0 0 10 -10 v -181 a 10 10 0 0 0 -10 -10"></path></g><path d="M 1306.0 79 h 20"></path></g><path d="M 1326.0 79 h 10"></path><g>
<path d="M 1336.0 79 h 0.0"></path><path d="M 1447.0 79 h 0.0"></path><g class="terminal ">
<path d="M 1336.0 79 h 0.0"></path><path d="M 1381.5 79 h 0.0"></path><rect height="22" rx="10" ry="10" width="45.5" x="1336.0" y="68"></rect><text x="1358.75" y="83">⇐ ➊</text></g><path d="M 1381.5 79 h 10"></path><path d="M 1391.5 79 h 10"></path><g class="terminal ">
<path d="M 1401.5 79 h 0.0"></path><path d="M 1447.0 79 h 0.0"></path><rect height="22" rx="10" ry="10" width="45.5" x="1401.5" y="68"></rect><text x="1424.25" y="83">"&#42;"</text></g></g></g><g class="non-terminal ">
<path d="M 50.0 28 h 0.0"></path><path d="M 249.0 28 h 0.0"></path><text class="comment" x="149.5" y="33">CharWithAttrib.char.style.w</text></g></g><path d="M 1457.0 79 h 10"></path><path d="M 1467.0 79 h 20 m 0 -10 v 20"></path></g></svg>