<svg class="railroad-diagram" height="308" viewBox="0 0 1595.0 308" width="1595.0" xmlns="http://www.w3.org/2000/svg" xmlns:xlink="http://www.w3.org/1999/xlink">
<g transform="translate(.5 .5)">
<style>/* <![CDATA[ */
    svg.railroad-diagram {
        background-color:hsl(30,20%,95%);
    }
    svg.railroad-diagram path {
        stroke-width: 2;
        stroke: black;
        fill: none;
    }
    svg.railroad-diagram text {
        font-size: 12px;
        text-anchor: middle;
        font-family: DejaVu Sans;
    }
    svg.railroad-diagram text.label {
        text-anchor:start;
    }
    svg.railroad-diagram text.comment {
        font-family: DejaVu Sans;
        font-size: 14px;
    }
    svg.railroad-diagram rect{
        stroke-width: 2;
        stroke:black;
        fill: rgb(210, 255, 210);
    }
    svg.railroad-diagram rect.group-box {
        stroke: gray;
        stroke-dasharray: 10 5;
        fill: none;
    }
    .terminal {
        font-family: DejaVu Sans;
    }

/* ]]> */
</style><g>
<path d="M 20 69 v 20 m 0 -10 h 20"></path></g><path d="M 40 79 h 10"></path><g>
<path d="M 50 79 h 0.0"></path><path d="M 1545.0 79 h 0.0"></path><rect class="group-box" height="252" rx="10" ry="10" width="1495.0" x="50.0" y="36"></rect><g>
<path d="M 50.0 79 h 10.0"></path><path d="M 1535.0 79 h 10.0"></path><g>
<path d="M 60.0 79 h 0.0"></path><path d="M 191.0 79 h 0.0"></path><g>
<path d="M 60.0 79 h 0.0"></path><path d="M 134.0 79 h 0.0"></path><rect class="group-box" height="38" rx="10" ry="10" width="74.0" x="60.0" y="60"></rect><g class="terminal ">
<path d="M 60.0 79 h 10.0"></path><path d="M 124.0 79 h 10.0"></path><rect height="22" rx="10" ry="10" width="54.0" x="70.0" y="68"></rect><text x="97.0" y="83">"\w"</text></g><g class="non-terminal ">
<path d="M 60.0 52 h 0.0"></path><path d="M 77.0 52 h 0.0"></path><text class="comment" x="68.5" y="57">➊</text></g></g><path d="M 134.0 79 h 10"></path><path d="M 144.0 79 h 10"></path><g class="terminal ">
<path d="M 154.0 79 h 0.0"></path><path d="M 191.0 79 h 0.0"></path><rect height="22" rx="10" ry="10" width="37.0" x="154.0" y="68"></rect><text x="172.5" y="83">WS</text></g></g><path d="M 191.0 79 h 10"></path><g>
<path d="M 201.0 79 h 0.0"></path><path d="M 857.5 79 h 0.0"></path><path d="M 201.0 79 a 10 10 0 0 0 10 -10 v 0 a 10 10 0 0 1 10 -10"></path><g>
<path d="M 221.0 59 h 616.5"></path></g><path d="M 837.5 59 a 10 10 0 0 1 10 10 v 0 a 10 10 0 0 0 10 10"></path><path d="M 201.0 79 h 20"></path><g>
<path d="M 221.0 79 h 0.0"></path><path d="M 837.5 79 h 0.0"></path><path d="M 221.0 79 h 10"></path><g>
<path d="M 231.0 79 h 0.0"></path><path d="M 827.5 79 h 0.0"></path><path d="M 231.0 79 h 20"></path><g>
<path d="M 251.0 79 h 131.75"></path><path d="M 675.75 79 h 131.75"></path><g class="terminal ">
<path d="M 382.75 79 h 0.0"></path><path d="M 470.75 79 h 0.0"></path><rect height="22" rx="10" ry="10" width="88.0" x="382.75" y="68"></rect><text x="426.75" y="83">"lemma="</text></g><path d="M 470.75 79 h 10"></path><path d="M 480.75 79 h 10"></path><g class="terminal ">
<path d="M 490.75 79 h 0.0"></path><path d="M 536.25 79 h 0.0"></path><rect height="22" rx="10" ry="10" width="45.5" x="490.75" y="68"></rect><text x="513.5" y="83">'"'</text></g><path d="M 536.25 79 h 10"></path><path d="M 546.25 79 h 10"></path><g class="terminal ">
<path d="M 556.25 79 h 0.0"></path><path d="M 610.25 79 h 0.0"></path><rect height="22" rx="10" ry="10" width="54.0" x="556.25" y="68"></rect><text x="583.25" y="83">Text</text></g><path d="M 610.25 79 h 10"></path><path d="M 620.25 79 h 10"></path><g class="terminal ">
<path d="M 630.25 79 h 0.0"></path><path d="M 675.75 79 h 0.0"></path><rect height="22" rx="10" ry="10" width="45.5" x="630.25" y="68"></rect><text x="653.0" y="83">'"'</text></g></g><path d="M 807.5 79 h 20"></path><path d="M 231.0 79 a 10 10 0 0 1 10 10 v 10 a 10 10 0 0 0 10 10"></path><g>
<path d="M 251.0 109 h 29.75"></path><path d="M 777.75 109 h 29.75"></path><g class="terminal ">
<path d="M 280.75 109 h 0.0"></path><path d="M 377.25 109 h 0.0"></path><rect height="22" rx="10" ry="10" width="96.5" x="280.75" y="98"></rect><text x="329.0" y="113">"strong="</text></g><path d="M 377.25 109 h 10"></path><path d="M 387.25 109 h 10"></path><g class="terminal ">
<path d="M 397.25 109 h 0.0"></path><path d="M 442.75 109 h 0.0"></path><rect height="22" rx="10" ry="10" width="45.5" x="397.25" y="98"></rect><text x="420.0" y="113">'"'</text></g><path d="M 442.75 109 h 10"></path><path d="M 452.75 109 h 10"></path><g class="terminal ">
<path d="M 462.75 109 h 0.0"></path><path d="M 712.25 109 h 0.0"></path><rect height="22" rx="10" ry="10" width="249.5" x="462.75" y="98"></rect><text x="587.5" y="113">/(&#91;HG&#93;\d{4,5}(:&#91;a-z&#93;)?,?)+/</text></g><path d="M 712.25 109 h 10"></path><path d="M 722.25 109 h 10"></path><g class="terminal ">
<path d="M 732.25 109 h 0.0"></path><path d="M 777.75 109 h 0.0"></path><rect height="22" rx="10" ry="10" width="45.5" x="732.25" y="98"></rect><text x="755.0" y="113">'"'</text></g></g><path d="M 807.5 109 a 10 10 0 0 0 10 -10 v -10 a 10 10 0 0 1 10 -10"></path><path d="M 231.0 79 a 10 10 0 0 1 10 10 v 40 a 10 10 0 0 0 10 10"></path><g>
<path d="M 251.0 139 h 0.0"></path><path d="M 807.5 139 h 0.0"></path><g class="terminal ">
<path d="M 251.0 139 h 0.0"></path><path d="M 347.5 139 h 0.0"></path><rect height="22" rx="10" ry="10" width="96.5" x="251.0" y="128"></rect><text x="299.25" y="143">"srcloc="</text></g><path d="M 347.5 139 h 10"></path><path d="M 357.5 139 h 10"></path><g class="terminal ">
<path d="M 367.5 139 h 0.0"></path><path d="M 413.0 139 h 0.0"></path><rect height="22" rx="10" ry="10" width="45.5" x="367.5" y="128"></rect><text x="390.25" y="143">'"'</text></g><path d="M 413.0 139 h 10"></path><path d="M 423.0 139 h 10"></path><g class="terminal ">
<path d="M 433.0 139 h 0.0"></path><path d="M 742.0 139 h 0.0"></path><rect height="22" rx="10" ry="10" width="309.0" x="433.0" y="128"></rect><text x="587.5" y="143">/&#91;a-z&#93;{3,5}\d?:\d+\.\d+\.\d+\.\d+/</text></g><path d="M 742.0 139 h 10"></path><path d="M 752.0 139 h 10"></path><g class="terminal ">
<path d="M 762.0 139 h 0.0"></path><path d="M 807.5 139 h 0.0"></path><rect height="22" rx="10" ry="10" width="45.5" x="762.0" y="128"></rect><text x="784.75" y="143">'"'</text></g></g><path d="M 807.5 139 a 10 10 0 0 0 10 -10 v -40 a 10 10 0 0 1 10 -10"></path></g><path d="M 827.5 79 h 10"></path><path d="M 231.0 79 a 10 10 0 0 0 -10 10 v 70 a 10 10 0 0 0 10 10"></path><g class="terminal ">
<path d="M 231.0 169 h 279.75"></path><path d="M 547.75 169 h 279.75"></path><rect height="22" rx="10" ry="10" width="37.0" x="510.75" y="158"></rect><text x="529.25" y="173">WS</text></g><path d="M 827.5 169 a 10 10 0 0 0 10 -10 v -70 a 10 10 0 0 0 -10 -10"></path></g><path d="M 837.5 79 h 20"></path></g><path d="M 857.5 79 h 10"></path><g class="non-terminal ">
<path d="M 867.5 79 h 0.0"></path><path d="M 964.0 79 h 0.0"></path><rect height="22" width="96.5" x="867.5" y="68"></rect><text x="915.75" y="83">char.link</text></g><path d="M 964.0 79 h 10"></path><g>
<path d="M 974.0 79 h 0.0"></path><path d="M 1127.5 79 h 0.0"></path><path d="M 974.0 79 h 20"></path><g>
<path d="M 994.0 79 h 113.5"></path></g><path d="M 1107.5 79 h 20"></path><path d="M 974.0 79 a 10 10 0 0 1 10 10 v 0 a 10 10 0 0 0 10 10"></path><g class="non-terminal ">
<path d="M 994.0 99 h 0.0"></path><path d="M 1107.5 99 h 0.0"></path><rect height="22" width="113.5" x="994.0" y="88"></rect><text x="1050.75" y="103">char.closed</text></g><path d="M 1107.5 99 a 10 10 0 0 0 10 -10 v 0 a 10 10 0 0 1 10 -10"></path></g><g>
<path d="M 1127.5 79 h 0.0"></path><path d="M 1414.0 79 h 0.0"></path><path d="M 1127.5 79 a 10 10 0 0 0 10 -10 v 0 a 10 10 0 0 1 10 -10"></path><g>
<path d="M 1147.5 59 h 246.5"></path></g><path d="M 1394.0 59 a 10 10 0 0 1 10 10 v 0 a 10 10 0 0 0 10 10"></path><path d="M 1127.5 79 h 20"></path><g>
<path d="M 1147.5 79 h 0.0"></path><path d="M 1394.0 79 h 0.0"></path><path d="M 1147.5 79 h 10"></path><g>
<path d="M 1157.5 79 h 0.0"></path><path d="M 1384.0 79 h 0.0"></path><path d="M 1157.5 79 h 20"></path><g class="non-terminal ">
<path d="M 1177.5 79 h 45.0"></path><path d="M 1319.0 79 h 45.0"></path><rect height="22" width="96.5" x="1222.5" y="68"></rect><text x="1270.75" y="83">Reference</text></g><path d="M 1364.0 79 h 20"></path><path d="M 1157.5 79 a 10 10 0 0 1 10 10 v 10 a 10 10 0 0 0 10 10"></path><g class="non-terminal ">
<path d="M 1177.5 109 h 66.25"></path><path d="M 1297.75 109 h 66.25"></path><rect height="22" width="54.0" x="1243.75" y="98"></rect><text x="1270.75" y="113">Char</text></g><path d="M 1364.0 109 a 10 10 0 0 0 10 -10 v -10 a 10 10 0 0 1 10 -10"></path><path d="M 1157.5 79 a 10 10 0 0 1 10 10 v 40 a 10 10 0 0 0 10 10"></path><g class="non-terminal ">
<path d="M 1177.5 139 h 45.0"></path><path d="M 1319.0 139 h 45.0"></path><rect height="22" width="96.5" x="1222.5" y="128"></rect><text x="1270.75" y="143">Milestone</text></g><path d="M 1364.0 139 a 10 10 0 0 0 10 -10 v -40 a 10 10 0 0 1 10 -10"></path><path d="M 1157.5 79 a 10 10 0 0 1 10 10 v 70 a 10 10 0 0 0 10 10"></path><g class="non-terminal ">
<path d="M 1177.5 169 h 49.25"></path><path d="M 1314.75 169 h 49.25"></path><rect height="22" width="88.0" x="1226.75" y="158"></rect><text x="1270.75" y="173">Footnote</text></g><path d="M 1364.0 169 a 10 10 0 0 0 10 -10 v -70 a 10 10 0 0 1 10 -10"></path><path d="M 1157.5 79 a 10 10 0 0 1 10 10 v 124 a 10 10 0 0 0 10 10"></path><g>
<path d="M 1177.5 223 h 0.0"></path><path d="M 1364.0 223 h 0.0"></path><rect class="group-box" height="68" rx="10" ry="10" width="186.5" x="1177.5" y="204"></rect><g>
<path d="M 1177.5 223 h 10.0"></path><path d="M 1354.0 223 h 10.0"></path><g class="terminal ">
<path d="M 1187.5 223 h 0.0"></path><path d="M 1241.5 223 h 0.0"></path><rect height="22" rx="10" ry="10" width="54.0" x="1187.5" y="212"></rect><text x="1214.5" y="227">"\b"</text></g><path d="M 1241.5 223 h 10"></path><g>
<path d="M 1251.5 223 h 0.0"></path><path d="M 1354.0 223 h 0.0"></path><path d="M 1251.5 223 h 20"></path><g class="terminal ">
<path d="M 1271.5 223 h 0.0"></path><path d="M 1334.0 223 h 0.0"></path><rect height="22" rx="10" ry="10" width="62.5" x="1271.5" y="212"></rect><text x="1302.75" y="227">⇒ "\"</text></g><path d="M 1334.0 223 h 20"></path><path d="M 1251.5 223 a 10 10 0 0 1 10 10 v 10 a 10 10 0 0 0 10 10"></path><g class="terminal ">
<path d="M 1271.5 253 h 12.75"></path><path d="M 1321.25 253 h 12.75"></path><rect height="22" rx="10" ry="10" width="37.0" x="1284.25" y="242"></rect><text x="1302.75" y="257">WS</text></g><path d="M 1334.0 253 a 10 10 0 0 0 10 -10 v -10 a 10 10 0 0 1 10 -10"></path></g></g><g class="non-terminal ">
<path d="M 1177.5 196 h 0.0"></path><path d="M 1222.5 196 h 0.0"></path><text class="comment" x="1200.0" y="201">Break</text></g></g><path d="M 1364.0 223 a 10 10 0 0 0 10 -10 v -124 a 10 10 0 0 1 10 -10"></path></g><path d="M 1384.0 79 h 10"></path><path d="M 1157.5 79 a 10 10 0 0 0 -10 10 v 181 a 10 10 0 0 0 10 10"></path><g>
<path d="M 1157.5 280 h 226.5"></path></g><path d="M 1384.0 280 a 10 10 0 0 0 10 -10 v -181 a 10 10 0 0 0 -10 -10"></path></g><path d="M 1394.0 79 h 20"></path></g><path d="M 1414.0 79 h 10"></path><g>
<path d="M 1424.0 79 h 0.0"></path><path d="M 1535.0 79 h 0.0"></path><g class="terminal ">
<path d="M 1424.0 79 h 0.0"></path><path d="M 1469.5 79 h 0.0"></path><rect height="22" rx="10" ry="10" width="45.5" x="1424.0" y="68"></rect><text x="1446.75" y="83">⇐ ➊</text></g><path d="M 1469.5 79 h 10"></path><path d="M 1479.5 79 h 10"></path><g class="terminal ">
<path d="M 1489.5 79 h 0.0"></path><path d="M 1535.0 79 h 0.0"></path><rect height="22" rx="10" ry="10" width="45.5" x="1489.5" y="68"></rect><text x="1512.25" y="83">"&#42;"</text></g></g></g><g class="non-terminal ">
<path d="M 50.0 28 h 0.0"></path><path d="M 249.0 28 h 0.0"></path><text class="comment" x="149.5" y="33">CharWithAttrib.char.style.w</text></g></g><path d="M 1545.0 79 h 10"></path><path d="M 1555.0 79 h 20 m 0 -10 v 20"></path></g></svg>