<svg class="railroad-diagram" height="533" viewBox="0 0 1100.0 533" width="1100.0" xmlns="http://www.w3.org/2000/svg" xmlns:xlink="http://www.w3.org/1999/xlink">
<g transform="translate(.5 .5)">
<style>/* <![CDATA[ */
    svg.railroad-diagram {
        background-color:hsl(30,20%,95%);
    }
    svg.railroad-diagram path {
        stroke-width: 2;
        stroke: black;
        fill: none;
    }
    svg.railroad-diagram text {
        font-size: 12px;
        text-anchor: middle;
        font-family: DejaVu Sans;
    }
    svg.railroad-diagram text.label {
        text-anchor:start;
    }
    svg.railroad-diagram text.comment {
        font-family: DejaVu Sans;
        font-size: 14px;
    }
    svg.railroad-diagram rect{
        stroke-width: 2;
        stroke:black;
        fill: rgb(210, 210, 255);
    }
    svg.railroad-diagram rect.group-box {
        stroke: gray;
        stroke-dasharray: 10 5;
        fill: none;
    }
    .terminal {
        font-family: DejaVu Sans;
    }

/* ]]> */
</style><g>
<path d="M 20 294 v 20 m 0 -10 h 20"></path></g><path d="M 40 304 h 10"></path><g>
<path d="M 50 304 h 0.0"></path><path d="M 1050.0 304 h 0.0"></path><rect class="group-box" height="477" rx="10" ry="10" width="1000.0" x="50.0" y="36"></rect><g>
<path d="M 50.0 304 h 10.0"></path><path d="M 1040.0 304 h 10.0"></path><g class="terminal ">
<path d="M 60.0 304 h 0.0"></path><path d="M 131.0 304 h 0.0"></path><rect height="22" rx="10" ry="10" width="71.0" x="60.0" y="293"></rect><text x="95.5" y="308">&#60;char></text></g><path d="M 131.0 304 h 10"></path><g>
<path d="M 141.0 304 h 0.0"></path><path d="M 1040.0 304 h 0.0"></path><path d="M 141.0 304 a 10 10 0 0 0 10 -10 v -19 a 10 10 0 0 1 10 -10"></path><g>
<path d="M 161.0 265 h 0.0"></path><path d="M 323.0 265 h 0.0"></path><g class="terminal ">
<path d="M 161.0 265 h 0.0"></path><path d="M 249.0 265 h 0.0"></path><rect height="22" rx="10" ry="10" width="88.0" x="161.0" y="254"></rect><text x="205.0" y="269">@closed?</text></g><path d="M 249.0 265 h 10"></path><path d="M 259.0 265 h 10"></path><g class="terminal ">
<path d="M 269.0 265 h 0.0"></path><path d="M 323.0 265 h 0.0"></path><rect height="22" rx="10" ry="10" width="54.0" x="269.0" y="254"></rect><text x="296.0" y="269">BOOL</text></g></g><path d="M 141.0 304 a 10 10 0 0 0 10 -10 v -49 a 10 10 0 0 1 10 -10"></path><g>
<path d="M 161.0 235 h 0.0"></path><path d="M 450.5 235 h 0.0"></path><g class="terminal ">
<path d="M 161.0 235 h 0.0"></path><path d="M 257.5 235 h 0.0"></path><rect height="22" rx="10" ry="10" width="96.5" x="161.0" y="224"></rect><text x="209.25" y="239">@link-id?</text></g><path d="M 257.5 235 h 10"></path><path d="M 267.5 235 h 10"></path><g class="terminal ">
<path d="M 277.5 235 h 0.0"></path><path d="M 450.5 235 h 0.0"></path><rect height="22" rx="10" ry="10" width="173.0" x="277.5" y="224"></rect><text x="364.0" y="239">/&#91;\p{L}\d&#95;\-\.:&#93;+/</text></g></g><path d="M 141.0 304 a 10 10 0 0 0 10 -10 v -79 a 10 10 0 0 1 10 -10"></path><g>
<path d="M 161.0 205 h 0.0"></path><path d="M 357.0 205 h 0.0"></path><g class="terminal ">
<path d="M 161.0 205 h 0.0"></path><path d="M 283.0 205 h 0.0"></path><rect height="22" rx="10" ry="10" width="122.0" x="161.0" y="194"></rect><text x="222.0" y="209">@link-title?</text></g><path d="M 283.0 205 h 10"></path><path d="M 293.0 205 h 10"></path><g class="terminal ">
<path d="M 303.0 205 h 0.0"></path><path d="M 357.0 205 h 0.0"></path><rect height="22" rx="10" ry="10" width="54.0" x="303.0" y="194"></rect><text x="330.0" y="209">text</text></g></g><path d="M 141.0 304 a 10 10 0 0 0 10 -10 v -109 a 10 10 0 0 1 10 -10"></path><g>
<path d="M 161.0 175 h 0.0"></path><path d="M 1020.0 175 h 0.0"></path><g class="terminal ">
<path d="M 161.0 175 h 0.0"></path><path d="M 274.5 175 h 0.0"></path><rect height="22" rx="10" ry="10" width="113.5" x="161.0" y="164"></rect><text x="217.75" y="179">@link-href?</text></g><path d="M 274.5 175 h 10"></path><path d="M 284.5 175 h 10"></path><g class="terminal ">
<path d="M 294.5 175 h 0.0"></path><path d="M 1020.0 175 h 0.0"></path><rect height="22" rx="10" ry="10" width="725.5" x="294.5" y="164"></rect><text x="657.25" y="179">/(.&#42;///?(.&#42;/?)+)|((prj:&#91;A-Za-z\-0-9&#93;{3,8} )?&#91;A-Z1-4&#93;{3} \d+:\d+(\-\d+)?)|(#&#91;^\s&#93;+)/</text></g></g><path d="M 141.0 304 a 10 10 0 0 0 10 -10 v -139 a 10 10 0 0 1 10 -10"></path><g>
<path d="M 161.0 145 h 0.0"></path><path d="M 578.0 145 h 0.0"></path><g class="terminal ">
<path d="M 161.0 145 h 0.0"></path><path d="M 249.0 145 h 0.0"></path><rect height="22" rx="10" ry="10" width="88.0" x="161.0" y="134"></rect><text x="205.0" y="149">@srcloc?</text></g><path d="M 249.0 145 h 10"></path><path d="M 259.0 145 h 10"></path><g class="terminal ">
<path d="M 269.0 145 h 0.0"></path><path d="M 578.0 145 h 0.0"></path><rect height="22" rx="10" ry="10" width="309.0" x="269.0" y="134"></rect><text x="423.5" y="149">/&#91;a-z&#93;{3,5}\d?:\d+\.\d+\.\d+\.\d+/</text></g></g><path d="M 141.0 304 a 10 10 0 0 0 10 -10 v -169 a 10 10 0 0 1 10 -10"></path><g>
<path d="M 161.0 115 h 0.0"></path><path d="M 518.5 115 h 0.0"></path><g class="terminal ">
<path d="M 161.0 115 h 0.0"></path><path d="M 249.0 115 h 0.0"></path><rect height="22" rx="10" ry="10" width="88.0" x="161.0" y="104"></rect><text x="205.0" y="119">@strong?</text></g><path d="M 249.0 115 h 10"></path><path d="M 259.0 115 h 10"></path><g class="terminal ">
<path d="M 269.0 115 h 0.0"></path><path d="M 518.5 115 h 0.0"></path><rect height="22" rx="10" ry="10" width="249.5" x="269.0" y="104"></rect><text x="393.75" y="119">/(&#91;HG&#93;\d{4,5}(:&#91;a-z&#93;)?,?)+/</text></g></g><path d="M 141.0 304 a 10 10 0 0 0 10 -10 v -199 a 10 10 0 0 1 10 -10"></path><g>
<path d="M 161.0 85 h 0.0"></path><path d="M 314.5 85 h 0.0"></path><g class="terminal ">
<path d="M 161.0 85 h 0.0"></path><path d="M 240.5 85 h 0.0"></path><rect height="22" rx="10" ry="10" width="79.5" x="161.0" y="74"></rect><text x="200.75" y="89">@lemma?</text></g><path d="M 240.5 85 h 10"></path><path d="M 250.5 85 h 10"></path><g class="terminal ">
<path d="M 260.5 85 h 0.0"></path><path d="M 314.5 85 h 0.0"></path><rect height="22" rx="10" ry="10" width="54.0" x="260.5" y="74"></rect><text x="287.5" y="89">text</text></g></g><path d="M 141.0 304 a 10 10 0 0 0 10 -10 v -229 a 10 10 0 0 1 10 -10"></path><g>
<path d="M 161.0 55 h 0.0"></path><path d="M 297.5 55 h 0.0"></path><g class="terminal ">
<path d="M 161.0 55 h 0.0"></path><path d="M 232.0 55 h 0.0"></path><rect height="22" rx="10" ry="10" width="71.0" x="161.0" y="44"></rect><text x="196.5" y="59">@style</text></g><path d="M 232.0 55 h 10"></path><path d="M 242.0 55 h 10"></path><g class="terminal ">
<path d="M 252.0 55 h 0.0"></path><path d="M 297.5 55 h 0.0"></path><rect height="22" rx="10" ry="10" width="45.5" x="252.0" y="44"></rect><text x="274.75" y="59">"w"</text></g></g><path d="M 141.0 304 h 20"></path><g>
<path d="M 161.0 304 h 132.25"></path><path d="M 887.75 304 h 132.25"></path><g class="terminal ">
<path d="M 293.25 304 h 0.0"></path><path d="M 347.25 304 h 0.0"></path><rect height="22" rx="10" ry="10" width="54.0" x="293.25" y="293"></rect><text x="320.25" y="308">text</text></g><path d="M 347.25 304 h 10"></path><g>
<path d="M 357.25 304 h 0.0"></path><path d="M 798.25 304 h 0.0"></path><path d="M 357.25 304 a 10 10 0 0 0 10 -10 v 0 a 10 10 0 0 1 10 -10"></path><g>
<path d="M 377.25 284 h 401.0"></path></g><path d="M 778.25 284 a 10 10 0 0 1 10 10 v 0 a 10 10 0 0 0 10 10"></path><path d="M 357.25 304 h 20"></path><g>
<path d="M 377.25 304 h 0.0"></path><path d="M 778.25 304 h 0.0"></path><path d="M 377.25 304 h 10"></path><g>
<path d="M 387.25 304 h 0.0"></path><path d="M 768.25 304 h 0.0"></path><path d="M 387.25 304 h 20"></path><g class="non-terminal ">
<path d="M 407.25 304 h 122.25"></path><path d="M 626.0 304 h 122.25"></path><rect height="22" width="96.5" x="529.5" y="293"></rect><text x="577.75" y="308">Reference</text></g><path d="M 748.25 304 h 20"></path><path d="M 387.25 304 a 10 10 0 0 1 10 10 v 10 a 10 10 0 0 0 10 10"></path><g class="non-terminal ">
<path d="M 407.25 334 h 143.5"></path><path d="M 604.75 334 h 143.5"></path><rect height="22" width="54.0" x="550.75" y="323"></rect><text x="577.75" y="338">Char</text></g><path d="M 748.25 334 a 10 10 0 0 0 10 -10 v -10 a 10 10 0 0 1 10 -10"></path><path d="M 387.25 304 a 10 10 0 0 1 10 10 v 40 a 10 10 0 0 0 10 10"></path><g class="non-terminal ">
<path d="M 407.25 364 h 122.25"></path><path d="M 626.0 364 h 122.25"></path><rect height="22" width="96.5" x="529.5" y="353"></rect><text x="577.75" y="368">Milestone</text></g><path d="M 748.25 364 a 10 10 0 0 0 10 -10 v -40 a 10 10 0 0 1 10 -10"></path><path d="M 387.25 304 a 10 10 0 0 1 10 10 v 70 a 10 10 0 0 0 10 10"></path><g class="non-terminal ">
<path d="M 407.25 394 h 126.5"></path><path d="M 621.75 394 h 126.5"></path><rect height="22" width="88.0" x="533.75" y="383"></rect><text x="577.75" y="398">Footnote</text></g><path d="M 748.25 394 a 10 10 0 0 0 10 -10 v -70 a 10 10 0 0 1 10 -10"></path><path d="M 387.25 304 a 10 10 0 0 1 10 10 v 124 a 10 10 0 0 0 10 10"></path><g>
<path d="M 407.25 448 h 0.0"></path><path d="M 748.25 448 h 0.0"></path><rect class="group-box" height="38" rx="10" ry="10" width="341.0" x="407.25" y="429"></rect><g>
<path d="M 407.25 448 h 10.0"></path><path d="M 738.25 448 h 10.0"></path><g class="terminal ">
<path d="M 417.25 448 h 0.0"></path><path d="M 522.25 448 h 0.0"></path><rect height="22" rx="10" ry="10" width="105.0" x="417.25" y="437"></rect><text x="469.75" y="452">&#60;optbreak></text></g><path d="M 522.25 448 h 10"></path><path d="M 532.25 448 h 10"></path><g>
<path d="M 542.25 448 h 0.0"></path><path d="M 738.25 448 h 0.0"></path><g class="terminal ">
<path d="M 542.25 448 h 0.0"></path><path d="M 604.75 448 h 0.0"></path><rect height="22" rx="10" ry="10" width="62.5" x="542.25" y="437"></rect><text x="573.5" y="452">empty</text></g><path d="M 604.75 448 h 10"></path><path d="M 614.75 448 h 10"></path><g class="terminal ">
<path d="M 624.75 448 h 0.0"></path><path d="M 738.25 448 h 0.0"></path><rect height="22" rx="10" ry="10" width="113.5" x="624.75" y="437"></rect><text x="681.5" y="452">&#60;/optbreak></text></g></g></g><g class="non-terminal ">
<path d="M 407.25 421 h 0.0"></path><path d="M 452.25 421 h 0.0"></path><text class="comment" x="429.75" y="426">Break</text></g></g><path d="M 748.25 448 a 10 10 0 0 0 10 -10 v -124 a 10 10 0 0 1 10 -10"></path><path d="M 387.25 304 a 10 10 0 0 1 10 10 v 162 a 10 10 0 0 0 10 10"></path><g class="terminal ">
<path d="M 407.25 486 h 143.5"></path><path d="M 604.75 486 h 143.5"></path><rect height="22" rx="10" ry="10" width="54.0" x="550.75" y="475"></rect><text x="577.75" y="490">text</text></g><path d="M 748.25 486 a 10 10 0 0 0 10 -10 v -162 a 10 10 0 0 1 10 -10"></path></g><path d="M 768.25 304 h 10"></path><path d="M 387.25 304 a 10 10 0 0 0 -10 10 v 181 a 10 10 0 0 0 10 10"></path><g>
<path d="M 387.25 505 h 381.0"></path></g><path d="M 768.25 505 a 10 10 0 0 0 10 -10 v -181 a 10 10 0 0 0 -10 -10"></path></g><path d="M 778.25 304 h 20"></path></g><path d="M 798.25 304 h 10"></path><g class="terminal ">
<path d="M 808.25 304 h 0.0"></path><path d="M 887.75 304 h 0.0"></path><rect height="22" rx="10" ry="10" width="79.5" x="808.25" y="293"></rect><text x="848.0" y="308">&#60;/char></text></g></g><path d="M 1020.0 304 h 20"></path></g></g><g class="non-terminal ">
<path d="M 50.0 28 h 0.0"></path><path d="M 249.0 28 h 0.0"></path><text class="comment" x="149.5" y="33">CharWithAttrib.char.style.w</text></g></g><path d="M 1050.0 304 h 10"></path><path d="M 1060.0 304 h 20 m 0 -10 v 20"></path></g></svg>