<svg class="railroad-diagram" height="366" viewBox="0 0 1059.0 366" width="1059.0" xmlns="http://www.w3.org/2000/svg" xmlns:xlink="http://www.w3.org/1999/xlink">
<g transform="translate(.5 .5)">
<style>/* <![CDATA[ */
    svg.railroad-diagram {
        background-color:hsl(30,20%,95%);
    }
    svg.railroad-diagram path {
        stroke-width: 2;
        stroke: black;
        fill: none;
    }
    svg.railroad-diagram text {
        font-size: 12px;
        text-anchor: middle;
        font-family: DejaVu Sans;
    }
    svg.railroad-diagram text.label {
        text-anchor:start;
    }
    svg.railroad-diagram text.comment {
        font-family: DejaVu Sans;
        font-size: 14px;
    }
    svg.railroad-diagram rect{
        stroke-width: 2;
        stroke:black;
        fill: rgb(210, 255, 210);
    }
    svg.railroad-diagram rect.group-box {
        stroke: gray;
        stroke-dasharray: 10 5;
        fill: none;
    }
    .terminal {
        font-family: DejaVu Sans;
    }

/* ]]> */
</style><g>
<path d="M 20 69 v 20 m 0 -10 h 20"></path></g><path d="M 40 79 h 10"></path><g>
<path d="M 50 79 h 0.0"></path><path d="M 1009.0 79 h 0.0"></path><rect class="group-box" height="310" rx="10" ry="10" width="959.0" x="50.0" y="36"></rect><g>
<path d="M 50.0 79 h 10.0"></path><path d="M 999.0 79 h 10.0"></path><g>
<path d="M 60.0 79 h 0.0"></path><path d="M 295.0 79 h 0.0"></path><g>
<path d="M 60.0 79 h 0.0"></path><path d="M 238.0 79 h 0.0"></path><rect class="group-box" height="278" rx="10" ry="10" width="178.0" x="60.0" y="60"></rect><g>
<path d="M 60.0 79 h 10.0"></path><path d="M 228.0 79 h 10.0"></path><g class="terminal ">
<path d="M 70.0 79 h 0.0"></path><path d="M 115.5 79 h 0.0"></path><rect height="22" rx="10" ry="10" width="45.5" x="70.0" y="68"></rect><text x="92.75" y="83">"\"</text></g><path d="M 115.5 79 h 10"></path><g>
<path d="M 125.5 79 h 0.0"></path><path d="M 228.0 79 h 0.0"></path><path d="M 125.5 79 h 20"></path><g class="terminal ">
<path d="M 145.5 79 h 4.25"></path><path d="M 203.75 79 h 4.25"></path><rect height="22" rx="10" ry="10" width="54.0" x="149.75" y="68"></rect><text x="176.75" y="83">"xo"</text></g><path d="M 208.0 79 h 20"></path><path d="M 125.5 79 a 10 10 0 0 1 10 10 v 10 a 10 10 0 0 0 10 10"></path><g class="terminal ">
<path d="M 145.5 109 h 0.0"></path><path d="M 208.0 109 h 0.0"></path><rect height="22" rx="10" ry="10" width="62.5" x="145.5" y="98"></rect><text x="176.75" y="113">"xop"</text></g><path d="M 208.0 109 a 10 10 0 0 0 10 -10 v -10 a 10 10 0 0 1 10 -10"></path><path d="M 125.5 79 a 10 10 0 0 1 10 10 v 40 a 10 10 0 0 0 10 10"></path><g class="terminal ">
<path d="M 145.5 139 h 4.25"></path><path d="M 203.75 139 h 4.25"></path><rect height="22" rx="10" ry="10" width="54.0" x="149.75" y="128"></rect><text x="176.75" y="143">"xt"</text></g><path d="M 208.0 139 a 10 10 0 0 0 10 -10 v -40 a 10 10 0 0 1 10 -10"></path><path d="M 125.5 79 a 10 10 0 0 1 10 10 v 70 a 10 10 0 0 0 10 10"></path><g class="terminal ">
<path d="M 145.5 169 h 0.0"></path><path d="M 208.0 169 h 0.0"></path><rect height="22" rx="10" ry="10" width="62.5" x="145.5" y="158"></rect><text x="176.75" y="173">"xta"</text></g><path d="M 208.0 169 a 10 10 0 0 0 10 -10 v -70 a 10 10 0 0 1 10 -10"></path><path d="M 125.5 79 a 10 10 0 0 1 10 10 v 100 a 10 10 0 0 0 10 10"></path><g class="terminal ">
<path d="M 145.5 199 h 4.25"></path><path d="M 203.75 199 h 4.25"></path><rect height="22" rx="10" ry="10" width="54.0" x="149.75" y="188"></rect><text x="176.75" y="203">"xk"</text></g><path d="M 208.0 199 a 10 10 0 0 0 10 -10 v -100 a 10 10 0 0 1 10 -10"></path><path d="M 125.5 79 a 10 10 0 0 1 10 10 v 130 a 10 10 0 0 0 10 10"></path><g class="terminal ">
<path d="M 145.5 229 h 4.25"></path><path d="M 203.75 229 h 4.25"></path><rect height="22" rx="10" ry="10" width="54.0" x="149.75" y="218"></rect><text x="176.75" y="233">"xq"</text></g><path d="M 208.0 229 a 10 10 0 0 0 10 -10 v -130 a 10 10 0 0 1 10 -10"></path><path d="M 125.5 79 a 10 10 0 0 1 10 10 v 160 a 10 10 0 0 0 10 10"></path><g class="terminal ">
<path d="M 145.5 259 h 0.0"></path><path d="M 208.0 259 h 0.0"></path><rect height="22" rx="10" ry="10" width="62.5" x="145.5" y="248"></rect><text x="176.75" y="263">"xot"</text></g><path d="M 208.0 259 a 10 10 0 0 0 10 -10 v -160 a 10 10 0 0 1 10 -10"></path><path d="M 125.5 79 a 10 10 0 0 1 10 10 v 190 a 10 10 0 0 0 10 10"></path><g class="terminal ">
<path d="M 145.5 289 h 0.0"></path><path d="M 208.0 289 h 0.0"></path><rect height="22" rx="10" ry="10" width="62.5" x="145.5" y="278"></rect><text x="176.75" y="293">"xnt"</text></g><path d="M 208.0 289 a 10 10 0 0 0 10 -10 v -190 a 10 10 0 0 1 10 -10"></path><path d="M 125.5 79 a 10 10 0 0 1 10 10 v 220 a 10 10 0 0 0 10 10"></path><g class="terminal ">
<path d="M 145.5 319 h 0.0"></path><path d="M 208.0 319 h 0.0"></path><rect height="22" rx="10" ry="10" width="62.5" x="145.5" y="308"></rect><text x="176.75" y="323">"xdc"</text></g><path d="M 208.0 319 a 10 10 0 0 0 10 -10 v -220 a 10 10 0 0 1 10 -10"></path></g></g><g class="non-terminal ">
<path d="M 60.0 52 h 0.0"></path><path d="M 77.0 52 h 0.0"></path><text class="comment" x="68.5" y="57">➊</text></g></g><path d="M 238.0 79 h 10"></path><path d="M 248.0 79 h 10"></path><g class="terminal ">
<path d="M 258.0 79 h 0.0"></path><path d="M 295.0 79 h 0.0"></path><rect height="22" rx="10" ry="10" width="37.0" x="258.0" y="68"></rect><text x="276.5" y="83">WS</text></g></g><path d="M 295.0 79 h 10"></path><g>
<path d="M 305.0 79 h 0.0"></path><path d="M 441.5 79 h 0.0"></path><path d="M 305.0 79 h 20"></path><g>
<path d="M 325.0 79 h 96.5"></path></g><path d="M 421.5 79 h 20"></path><path d="M 305.0 79 a 10 10 0 0 1 10 10 v 0 a 10 10 0 0 0 10 10"></path><g class="non-terminal ">
<path d="M 325.0 99 h 0.0"></path><path d="M 421.5 99 h 0.0"></path><rect height="22" width="96.5" x="325.0" y="88"></rect><text x="373.25" y="103">char.link</text></g><path d="M 421.5 99 a 10 10 0 0 0 10 -10 v 0 a 10 10 0 0 1 10 -10"></path></g><g>
<path d="M 441.5 79 h 0.0"></path><path d="M 595.0 79 h 0.0"></path><path d="M 441.5 79 h 20"></path><g>
<path d="M 461.5 79 h 113.5"></path></g><path d="M 575.0 79 h 20"></path><path d="M 441.5 79 a 10 10 0 0 1 10 10 v 0 a 10 10 0 0 0 10 10"></path><g class="non-terminal ">
<path d="M 461.5 99 h 0.0"></path><path d="M 575.0 99 h 0.0"></path><rect height="22" width="113.5" x="461.5" y="88"></rect><text x="518.25" y="103">char.closed</text></g><path d="M 575.0 99 a 10 10 0 0 0 10 -10 v 0 a 10 10 0 0 1 10 -10"></path></g><path d="M 595.0 79 h 10"></path><g>
<path d="M 605.0 79 h 0.0"></path><path d="M 838.0 79 h 0.0"></path><path d="M 605.0 79 h 10"></path><g>
<path d="M 615.0 79 h 0.0"></path><path d="M 828.0 79 h 0.0"></path><path d="M 615.0 79 h 20"></path><g class="non-terminal ">
<path d="M 635.0 79 h 59.5"></path><path d="M 748.5 79 h 59.5"></path><rect height="22" width="54.0" x="694.5" y="68"></rect><text x="721.5" y="83">Char</text></g><path d="M 808.0 79 h 20"></path><path d="M 615.0 79 a 10 10 0 0 1 10 10 v 10 a 10 10 0 0 0 10 10"></path><g class="non-terminal ">
<path d="M 635.0 109 h 0.0"></path><path d="M 808.0 109 h 0.0"></path><rect height="22" width="173.0" x="635.0" y="98"></rect><text x="721.5" y="113">CrossReferenceChar</text></g><path d="M 808.0 109 a 10 10 0 0 0 10 -10 v -10 a 10 10 0 0 1 10 -10"></path><path d="M 615.0 79 a 10 10 0 0 1 10 10 v 40 a 10 10 0 0 0 10 10"></path><g class="non-terminal ">
<path d="M 635.0 139 h 38.25"></path><path d="M 769.75 139 h 38.25"></path><rect height="22" width="96.5" x="673.25" y="128"></rect><text x="721.5" y="143">Reference</text></g><path d="M 808.0 139 a 10 10 0 0 0 10 -10 v -40 a 10 10 0 0 1 10 -10"></path></g><path d="M 828.0 79 h 10"></path><path d="M 615.0 79 a 10 10 0 0 0 -10 10 v 59 a 10 10 0 0 0 10 10"></path><g>
<path d="M 615.0 158 h 213.0"></path></g><path d="M 828.0 158 a 10 10 0 0 0 10 -10 v -59 a 10 10 0 0 0 -10 -10"></path></g><path d="M 838.0 79 h 10"></path><g>
<path d="M 848.0 79 h 0.0"></path><path d="M 999.0 79 h 0.0"></path><path d="M 848.0 79 h 20"></path><g>
<path d="M 868.0 79 h 111.0"></path></g><path d="M 979.0 79 h 20"></path><path d="M 848.0 79 a 10 10 0 0 1 10 10 v 0 a 10 10 0 0 0 10 10"></path><g>
<path d="M 868.0 99 h 0.0"></path><path d="M 979.0 99 h 0.0"></path><g class="terminal ">
<path d="M 868.0 99 h 0.0"></path><path d="M 913.5 99 h 0.0"></path><rect height="22" rx="10" ry="10" width="45.5" x="868.0" y="88"></rect><text x="890.75" y="103">⇐ ➊</text></g><path d="M 913.5 99 h 10"></path><path d="M 923.5 99 h 10"></path><g class="terminal ">
<path d="M 933.5 99 h 0.0"></path><path d="M 979.0 99 h 0.0"></path><rect height="22" rx="10" ry="10" width="45.5" x="933.5" y="88"></rect><text x="956.25" y="103">"&#42;"</text></g></g><path d="M 979.0 99 a 10 10 0 0 0 10 -10 v 0 a 10 10 0 0 1 10 -10"></path></g></g><g class="non-terminal ">
<path d="M 50.0 28 h 0.0"></path><path d="M 186.0 28 h 0.0"></path><text class="comment" x="118.0" y="33">CrossReferenceChar</text></g></g><path d="M 1009.0 79 h 10"></path><path d="M 1019.0 79 h 20 m 0 -10 v 20"></path></g></svg>