<svg class="railroad-diagram" height="164" viewBox="0 0 1172.0 164" width="1172.0" xmlns="http://www.w3.org/2000/svg" xmlns:xlink="http://www.w3.org/1999/xlink">
<g transform="translate(.5 .5)">
<style>/* <![CDATA[ */

    svg.railroad-diagram {
        background-color: hsl(30,20%,95%);
    }
    svg.railroad-diagram path {
        stroke-width: 2;
        stroke: black;
        fill: none;
    }
    svg.railroad-diagram text {
        font-size: 12px;
        text-anchor: middle;
        font-family: DejaVu Sans;
    }
    svg.railroad-diagram text.label {
        text-anchor:start;
    }
    svg.railroad-diagram text.comment {
        font-family: DejaVu Sans;
        font-size: 14px;
    }
    svg.railroad-diagram rect{
        stroke-width: 2;
        stroke: black;
        fill: rgb(210, 255, 210);
    }
    svg.railroad-diagram rect.group-box {
        stroke: gray;
        stroke-dasharray: 10 5;
        fill: none;
    }
    .terminal {
        font-family: DejaVu Sans;
    }
    svg.railroad-diagram g.altterminal rect {
        fill: rgb(251, 252, 207)
    }

/* ]]> */
</style><g>
<path d="M 20 45 v 20 m 0 -10 h 20"></path></g><path d="M 40 55 h 10"></path><g>
<path d="M 50 55 h 0.0"></path><path d="M 1122.0 55 h 0.0"></path><g class="terminal ">
<path d="M 50.0 55 h 0.0"></path><path d="M 104.0 55 h 0.0"></path><rect height="22" rx="10" ry="10" width="54.0" x="50.0" y="44"></rect><text x="77.0" y="59">'\\'</text></g><path d="M 104.0 55 h 10"></path><path d="M 114.0 55 h 10"></path><g>
<path d="M 124.0 55 h 0.0"></path><path d="M 461.5 55 h 0.0"></path><rect class="group-box" height="38" rx="10" ry="10" width="337.5" x="124.0" y="36"></rect><g>
<path d="M 124.0 55 h 10.0"></path><path d="M 451.5 55 h 10.0"></path><g class="non-terminal ">
<path d="M 134.0 55 h 0.0"></path><path d="M 451.5 55 h 0.0"></path><rect height="22" width="317.5" x="134.0" y="44"></rect><text x="292.75" y="59">CrossReferenceChars.char.style.enum</text></g></g><g class="non-terminal ">
<path d="M 124.0 28 h 0.0"></path><path d="M 141.0 28 h 0.0"></path><text class="comment" x="132.5" y="33">➋</text></g></g><path d="M 461.5 55 h 10"></path><path d="M 471.5 55 h 10"></path><g>
<path d="M 481.5 55 h 0.0"></path><path d="M 592.5 55 h 0.0"></path><path d="M 481.5 55 h 20"></path><g class="terminal ">
<path d="M 501.5 55 h 12.75"></path><path d="M 559.75 55 h 12.75"></path><rect height="22" rx="10" ry="10" width="45.5" x="514.25" y="44"></rect><text x="537.0" y="59">' '</text></g><path d="M 572.5 55 h 20"></path><path d="M 481.5 55 a 10 10 0 0 1 10 10 v 10 a 10 10 0 0 0 10 10"></path><g class="terminal altterminal">
<path d="M 501.5 85 h 0.0"></path><path d="M 572.5 85 h 0.0"></path><rect height="22" rx="10" ry="10" width="71.0" x="501.5" y="74"></rect><text x="537.0" y="89">TAGEND</text></g><path d="M 572.5 85 a 10 10 0 0 0 10 -10 v -10 a 10 10 0 0 1 10 -10"></path></g><path d="M 592.5 55 h 10"></path><path d="M 602.5 55 h 10"></path><g>
<path d="M 612.5 55 h 0.0"></path><path d="M 826.0 55 h 0.0"></path><path d="M 612.5 55 h 10"></path><g>
<path d="M 622.5 55 h 0.0"></path><path d="M 816.0 55 h 0.0"></path><path d="M 622.5 55 h 20"></path><g>
<path d="M 642.5 55 h 0.0"></path><path d="M 796.0 55 h 0.0"></path><g class="terminal ">
<path d="M 642.5 55 h 0.0"></path><path d="M 696.5 55 h 0.0"></path><rect height="22" rx="10" ry="10" width="54.0" x="642.5" y="44"></rect><text x="669.5" y="59">TEXT</text></g><path d="M 696.5 55 h 10"></path><path d="M 706.5 55 h 10"></path><g class="terminal ">
<path d="M 716.5 55 h 0.0"></path><path d="M 796.0 55 h 0.0"></path><rect height="22" rx="10" ry="10" width="79.5" x="716.5" y="44"></rect><text x="756.25" y="59">TEXTEND</text></g></g><path d="M 796.0 55 h 20"></path><path d="M 622.5 55 a 10 10 0 0 1 10 10 v 10 a 10 10 0 0 0 10 10"></path><g class="non-terminal ">
<path d="M 642.5 85 h 11.5"></path><path d="M 784.5 85 h 11.5"></path><rect height="22" width="130.5" x="654.0" y="74"></rect><text x="719.25" y="89">NoteCharEmbed</text></g><path d="M 796.0 85 a 10 10 0 0 0 10 -10 v -10 a 10 10 0 0 1 10 -10"></path><path d="M 622.5 55 a 10 10 0 0 1 10 10 v 40 a 10 10 0 0 0 10 10"></path><g class="non-terminal ">
<path d="M 642.5 115 h 28.5"></path><path d="M 767.5 115 h 28.5"></path><rect height="22" width="96.5" x="671.0" y="104"></rect><text x="719.25" y="119">Reference</text></g><path d="M 796.0 115 a 10 10 0 0 0 10 -10 v -40 a 10 10 0 0 1 10 -10"></path></g><path d="M 816.0 55 h 10"></path><path d="M 622.5 55 a 10 10 0 0 0 -10 10 v 69 a 10 10 0 0 0 10 10"></path><g>
<path d="M 622.5 144 h 193.5"></path></g><path d="M 816.0 144 a 10 10 0 0 0 10 -10 v -69 a 10 10 0 0 0 -10 -10"></path></g><path d="M 826.0 55 h 10"></path><path d="M 836.0 55 h 10"></path><g>
<path d="M 846.0 55 h 0.0"></path><path d="M 1122.0 55 h 0.0"></path><path d="M 846.0 55 h 20"></path><g>
<path d="M 866.0 55 h 236.0"></path></g><path d="M 1102.0 55 h 20"></path><path d="M 846.0 55 a 10 10 0 0 1 10 10 v 0 a 10 10 0 0 0 10 10"></path><g>
<path d="M 866.0 75 h 0.0"></path><path d="M 1102.0 75 h 0.0"></path><g class="terminal ">
<path d="M 866.0 75 h 0.0"></path><path d="M 920.0 75 h 0.0"></path><rect height="22" rx="10" ry="10" width="54.0" x="866.0" y="64"></rect><text x="893.0" y="79">'\\'</text></g><path d="M 920.0 75 h 10"></path><path d="M 930.0 75 h 10"></path><g class="terminal ">
<path d="M 940.0 75 h 0.0"></path><path d="M 985.5 75 h 0.0"></path><rect height="22" rx="10" ry="10" width="45.5" x="940.0" y="64"></rect><text x="962.75" y="79">⇐ ➋</text></g><path d="M 985.5 75 h 10"></path><path d="M 995.5 75 h 10"></path><g class="terminal ">
<path d="M 1005.5 75 h 0.0"></path><path d="M 1102.0 75 h 0.0"></path><rect height="22" rx="10" ry="10" width="96.5" x="1005.5" y="64"></rect><text x="1053.75" y="79">/\&#42;${Hs}/</text></g></g><path d="M 1102.0 75 a 10 10 0 0 0 10 -10 v 0 a 10 10 0 0 1 10 -10"></path></g></g><path d="M 1122.0 55 h 10"></path><path d="M 1132.0 55 h 20 m 0 -10 v 20"></path></g></svg>