<svg class="railroad-diagram" height="354" viewBox="0 0 1147.5 354" width="1147.5" xmlns="http://www.w3.org/2000/svg" xmlns:xlink="http://www.w3.org/1999/xlink">
<g transform="translate(.5 .5)">
<style>/* <![CDATA[ */

    svg.railroad-diagram {
        background-color: hsl(30,20%,95%);
    }
    svg.railroad-diagram path {
        stroke-width: 2;
        stroke: black;
        fill: none;
    }
    svg.railroad-diagram text {
        font-size: 12px;
        text-anchor: middle;
        font-family: DejaVu Sans;
    }
    svg.railroad-diagram text.label {
        text-anchor:start;
    }
    svg.railroad-diagram text.comment {
        font-family: DejaVu Sans;
        font-size: 14px;
    }
    svg.railroad-diagram rect{
        stroke-width: 2;
        stroke: black;
        fill: rgb(210, 255, 210);
    }
    svg.railroad-diagram rect.group-box {
        stroke: gray;
        stroke-dasharray: 10 5;
        fill: none;
    }
    .terminal {
        font-family: DejaVu Sans;
    }
    svg.railroad-diagram g.altterminal rect {
        fill: rgb(251, 252, 207)
    }

/* ]]> */
</style><g>
<path d="M 20 55 v 20 m 0 -10 h 20"></path></g><path d="M 40 65 h 10"></path><g>
<path d="M 50 65 h 0.0"></path><path d="M 1097.5 65 h 0.0"></path><g class="terminal ">
<path d="M 50.0 65 h 0.0"></path><path d="M 104.0 65 h 0.0"></path><rect height="22" rx="10" ry="10" width="54.0" x="50.0" y="54"></rect><text x="77.0" y="69">'\\'</text></g><path d="M 104.0 65 h 10"></path><path d="M 114.0 65 h 10"></path><g>
<path d="M 124.0 65 h 0.0"></path><path d="M 246.5 65 h 0.0"></path><rect class="group-box" height="298" rx="10" ry="10" width="122.5" x="124.0" y="36"></rect><g>
<path d="M 124.0 65 h 10.0"></path><path d="M 236.5 65 h 10.0"></path><g>
<path d="M 134.0 65 h 0.0"></path><path d="M 236.5 65 h 0.0"></path><path d="M 134.0 65 h 20"></path><g class="terminal ">
<path d="M 154.0 65 h 0.0"></path><path d="M 216.5 65 h 0.0"></path><rect height="22" rx="10" ry="10" width="62.5" x="154.0" y="54"></rect><text x="185.25" y="69">"xop"</text></g><path d="M 216.5 65 h 20"></path><path d="M 134.0 65 a 10 10 0 0 1 10 10 v 10 a 10 10 0 0 0 10 10"></path><g class="terminal ">
<path d="M 154.0 95 h 4.25"></path><path d="M 212.25 95 h 4.25"></path><rect height="22" rx="10" ry="10" width="54.0" x="158.25" y="84"></rect><text x="185.25" y="99">"xo"</text></g><path d="M 216.5 95 a 10 10 0 0 0 10 -10 v -10 a 10 10 0 0 1 10 -10"></path><path d="M 134.0 65 a 10 10 0 0 1 10 10 v 40 a 10 10 0 0 0 10 10"></path><g class="terminal ">
<path d="M 154.0 125 h 0.0"></path><path d="M 216.5 125 h 0.0"></path><rect height="22" rx="10" ry="10" width="62.5" x="154.0" y="114"></rect><text x="185.25" y="129">"xta"</text></g><path d="M 216.5 125 a 10 10 0 0 0 10 -10 v -40 a 10 10 0 0 1 10 -10"></path><path d="M 134.0 65 a 10 10 0 0 1 10 10 v 70 a 10 10 0 0 0 10 10"></path><g class="terminal ">
<path d="M 154.0 155 h 4.25"></path><path d="M 212.25 155 h 4.25"></path><rect height="22" rx="10" ry="10" width="54.0" x="158.25" y="144"></rect><text x="185.25" y="159">"xt"</text></g><path d="M 216.5 155 a 10 10 0 0 0 10 -10 v -70 a 10 10 0 0 1 10 -10"></path><path d="M 134.0 65 a 10 10 0 0 1 10 10 v 100 a 10 10 0 0 0 10 10"></path><g class="terminal ">
<path d="M 154.0 185 h 4.25"></path><path d="M 212.25 185 h 4.25"></path><rect height="22" rx="10" ry="10" width="54.0" x="158.25" y="174"></rect><text x="185.25" y="189">"xk"</text></g><path d="M 216.5 185 a 10 10 0 0 0 10 -10 v -100 a 10 10 0 0 1 10 -10"></path><path d="M 134.0 65 a 10 10 0 0 1 10 10 v 130 a 10 10 0 0 0 10 10"></path><g class="terminal ">
<path d="M 154.0 215 h 4.25"></path><path d="M 212.25 215 h 4.25"></path><rect height="22" rx="10" ry="10" width="54.0" x="158.25" y="204"></rect><text x="185.25" y="219">"xq"</text></g><path d="M 216.5 215 a 10 10 0 0 0 10 -10 v -130 a 10 10 0 0 1 10 -10"></path><path d="M 134.0 65 a 10 10 0 0 1 10 10 v 160 a 10 10 0 0 0 10 10"></path><g class="terminal ">
<path d="M 154.0 245 h 0.0"></path><path d="M 216.5 245 h 0.0"></path><rect height="22" rx="10" ry="10" width="62.5" x="154.0" y="234"></rect><text x="185.25" y="249">"xot"</text></g><path d="M 216.5 245 a 10 10 0 0 0 10 -10 v -160 a 10 10 0 0 1 10 -10"></path><path d="M 134.0 65 a 10 10 0 0 1 10 10 v 190 a 10 10 0 0 0 10 10"></path><g class="terminal ">
<path d="M 154.0 275 h 0.0"></path><path d="M 216.5 275 h 0.0"></path><rect height="22" rx="10" ry="10" width="62.5" x="154.0" y="264"></rect><text x="185.25" y="279">"xnt"</text></g><path d="M 216.5 275 a 10 10 0 0 0 10 -10 v -190 a 10 10 0 0 1 10 -10"></path><path d="M 134.0 65 a 10 10 0 0 1 10 10 v 220 a 10 10 0 0 0 10 10"></path><g class="terminal ">
<path d="M 154.0 305 h 0.0"></path><path d="M 216.5 305 h 0.0"></path><rect height="22" rx="10" ry="10" width="62.5" x="154.0" y="294"></rect><text x="185.25" y="309">"xdc"</text></g><path d="M 216.5 305 a 10 10 0 0 0 10 -10 v -220 a 10 10 0 0 1 10 -10"></path></g></g><g class="non-terminal ">
<path d="M 124.0 28 h 0.0"></path><path d="M 141.0 28 h 0.0"></path><text class="comment" x="132.5" y="33">➋</text></g></g><path d="M 246.5 65 h 10"></path><path d="M 256.5 65 h 10"></path><g>
<path d="M 266.5 65 h 0.0"></path><path d="M 377.5 65 h 0.0"></path><path d="M 266.5 65 h 20"></path><g class="terminal ">
<path d="M 286.5 65 h 12.75"></path><path d="M 344.75 65 h 12.75"></path><rect height="22" rx="10" ry="10" width="45.5" x="299.25" y="54"></rect><text x="322.0" y="69">' '</text></g><path d="M 357.5 65 h 20"></path><path d="M 266.5 65 a 10 10 0 0 1 10 10 v 10 a 10 10 0 0 0 10 10"></path><g class="terminal altterminal">
<path d="M 286.5 95 h 0.0"></path><path d="M 357.5 95 h 0.0"></path><rect height="22" rx="10" ry="10" width="71.0" x="286.5" y="84"></rect><text x="322.0" y="99">TAGEND</text></g><path d="M 357.5 95 a 10 10 0 0 0 10 -10 v -10 a 10 10 0 0 1 10 -10"></path></g><path d="M 377.5 65 h 10"></path><path d="M 387.5 65 h 10"></path><g>
<path d="M 397.5 65 h 0.0"></path><path d="M 568.0 65 h 0.0"></path><path d="M 397.5 65 h 20"></path><g>
<path d="M 417.5 65 h 130.5"></path></g><path d="M 548.0 65 h 20"></path><path d="M 397.5 65 a 10 10 0 0 1 10 10 v 0 a 10 10 0 0 0 10 10"></path><g class="non-terminal ">
<path d="M 417.5 85 h 0.0"></path><path d="M 548.0 85 h 0.0"></path><rect height="22" width="130.5" x="417.5" y="74"></rect><text x="482.75" y="89">AttributesPre</text></g><path d="M 548.0 85 a 10 10 0 0 0 10 -10 v 0 a 10 10 0 0 1 10 -10"></path></g><path d="M 568.0 65 h 10"></path><path d="M 578.0 65 h 10"></path><g>
<path d="M 588.0 65 h 0.0"></path><path d="M 801.5 65 h 0.0"></path><path d="M 588.0 65 h 10"></path><g>
<path d="M 598.0 65 h 0.0"></path><path d="M 791.5 65 h 0.0"></path><path d="M 598.0 65 h 20"></path><g>
<path d="M 618.0 65 h 0.0"></path><path d="M 771.5 65 h 0.0"></path><g class="terminal ">
<path d="M 618.0 65 h 0.0"></path><path d="M 672.0 65 h 0.0"></path><rect height="22" rx="10" ry="10" width="54.0" x="618.0" y="54"></rect><text x="645.0" y="69">TEXT</text></g><path d="M 672.0 65 h 10"></path><path d="M 682.0 65 h 10"></path><g class="terminal ">
<path d="M 692.0 65 h 0.0"></path><path d="M 771.5 65 h 0.0"></path><rect height="22" rx="10" ry="10" width="79.5" x="692.0" y="54"></rect><text x="731.75" y="69">TEXTEND</text></g></g><path d="M 771.5 65 h 20"></path><path d="M 598.0 65 a 10 10 0 0 1 10 10 v 10 a 10 10 0 0 0 10 10"></path><g class="non-terminal ">
<path d="M 618.0 95 h 11.5"></path><path d="M 760.0 95 h 11.5"></path><rect height="22" width="130.5" x="629.5" y="84"></rect><text x="694.75" y="99">NoteCharEmbed</text></g><path d="M 771.5 95 a 10 10 0 0 0 10 -10 v -10 a 10 10 0 0 1 10 -10"></path><path d="M 598.0 65 a 10 10 0 0 1 10 10 v 40 a 10 10 0 0 0 10 10"></path><g class="non-terminal ">
<path d="M 618.0 125 h 41.25"></path><path d="M 730.25 125 h 41.25"></path><rect height="22" width="71.0" x="659.25" y="114"></rect><text x="694.75" y="129">Figure</text></g><path d="M 771.5 125 a 10 10 0 0 0 10 -10 v -40 a 10 10 0 0 1 10 -10"></path><path d="M 598.0 65 a 10 10 0 0 1 10 10 v 70 a 10 10 0 0 0 10 10"></path><g class="non-terminal ">
<path d="M 618.0 155 h 28.5"></path><path d="M 743.0 155 h 28.5"></path><rect height="22" width="96.5" x="646.5" y="144"></rect><text x="694.75" y="159">Milestone</text></g><path d="M 771.5 155 a 10 10 0 0 0 10 -10 v -70 a 10 10 0 0 1 10 -10"></path><path d="M 598.0 65 a 10 10 0 0 1 10 10 v 100 a 10 10 0 0 0 10 10"></path><g class="non-terminal ">
<path d="M 618.0 185 h 28.5"></path><path d="M 743.0 185 h 28.5"></path><rect height="22" width="96.5" x="646.5" y="174"></rect><text x="694.75" y="189">Reference</text></g><path d="M 771.5 185 a 10 10 0 0 0 10 -10 v -100 a 10 10 0 0 1 10 -10"></path><path d="M 598.0 65 a 10 10 0 0 1 10 10 v 130 a 10 10 0 0 0 10 10"></path><g class="non-terminal ">
<path d="M 618.0 215 h 45.5"></path><path d="M 726.0 215 h 45.5"></path><rect height="22" width="62.5" x="663.5" y="204"></rect><text x="694.75" y="219">Break</text></g><path d="M 771.5 215 a 10 10 0 0 0 10 -10 v -130 a 10 10 0 0 1 10 -10"></path></g><path d="M 791.5 65 h 10"></path><path d="M 598.0 65 a 10 10 0 0 0 -10 10 v 159 a 10 10 0 0 0 10 10"></path><g>
<path d="M 598.0 244 h 193.5"></path></g><path d="M 791.5 244 a 10 10 0 0 0 10 -10 v -159 a 10 10 0 0 0 -10 -10"></path></g><path d="M 801.5 65 h 10"></path><path d="M 811.5 65 h 10"></path><g>
<path d="M 821.5 65 h 0.0"></path><path d="M 1097.5 65 h 0.0"></path><path d="M 821.5 65 h 20"></path><g>
<path d="M 841.5 65 h 236.0"></path></g><path d="M 1077.5 65 h 20"></path><path d="M 821.5 65 a 10 10 0 0 1 10 10 v 0 a 10 10 0 0 0 10 10"></path><g>
<path d="M 841.5 85 h 0.0"></path><path d="M 1077.5 85 h 0.0"></path><g class="terminal ">
<path d="M 841.5 85 h 0.0"></path><path d="M 895.5 85 h 0.0"></path><rect height="22" rx="10" ry="10" width="54.0" x="841.5" y="74"></rect><text x="868.5" y="89">'\\'</text></g><path d="M 895.5 85 h 10"></path><path d="M 905.5 85 h 10"></path><g class="terminal ">
<path d="M 915.5 85 h 0.0"></path><path d="M 961.0 85 h 0.0"></path><rect height="22" rx="10" ry="10" width="45.5" x="915.5" y="74"></rect><text x="938.25" y="89">⇐ ➋</text></g><path d="M 961.0 85 h 10"></path><path d="M 971.0 85 h 10"></path><g class="terminal ">
<path d="M 981.0 85 h 0.0"></path><path d="M 1077.5 85 h 0.0"></path><rect height="22" rx="10" ry="10" width="96.5" x="981.0" y="74"></rect><text x="1029.25" y="89">/\&#42;${Hs}/</text></g></g><path d="M 1077.5 85 a 10 10 0 0 0 10 -10 v 0 a 10 10 0 0 1 10 -10"></path></g></g><path d="M 1097.5 65 h 10"></path><path d="M 1107.5 65 h 20 m 0 -10 v 20"></path></g></svg>