<svg class="railroad-diagram" height="490" viewBox="0 0 424.5 490" width="424.5" xmlns="http://www.w3.org/2000/svg" xmlns:xlink="http://www.w3.org/1999/xlink">
<g transform="translate(.5 .5)">
<style>/* <![CDATA[ */

    svg.railroad-diagram {
        background-color: hsl(30,20%,95%);
    }
    svg.railroad-diagram path {
        stroke-width: 2;
        stroke: black;
        fill: none;
    }
    svg.railroad-diagram text {
        font-size: 12px;
        text-anchor: middle;
        font-family: DejaVu Sans;
    }
    svg.railroad-diagram text.label {
        text-anchor:start;
    }
    svg.railroad-diagram text.comment {
        font-family: DejaVu Sans;
        font-size: 14px;
    }
    svg.railroad-diagram rect{
        stroke-width: 2;
        stroke: black;
        fill: rgb(210, 210, 255);
    }
    svg.railroad-diagram rect.group-box {
        stroke: gray;
        stroke-dasharray: 10 5;
        fill: none;
    }
    .terminal {
        font-family: DejaVu Sans;
    }
    svg.railroad-diagram g.altterminal rect {
        fill: rgb(251, 252, 207)
    }

/* ]]> */
</style><g>
<path d="M 20 321 v 20 m 0 -10 h 20"></path></g><path d="M 40 331 h 10"></path><g>
<path d="M 50 331 h 0.0"></path><path d="M 374.5 331 h 0.0"></path><g>
<path d="M 50.0 331 h 0.0"></path><path d="M 374.5 331 h 0.0"></path><g class="terminal ">
<path d="M 50.0 331 h 0.0"></path><path d="M 121.0 331 h 0.0"></path><rect height="22" rx="10" ry="10" width="71.0" x="50.0" y="320"></rect><text x="85.5" y="335">&#60;char></text></g><path d="M 121.0 331 h 10"></path><path d="M 131.0 331 h 10"></path><g>
<path d="M 141.0 331 h 0.0"></path><path d="M 374.5 331 h 0.0"></path><path d="M 141.0 331 a 10 10 0 0 0 10 -10 v -260 a 10 10 0 0 1 10 -10"></path><g>
<path d="M 161.0 51 h 0.0"></path><path d="M 354.5 51 h 0.0"></path><g class="terminal ">
<path d="M 161.0 51 h 0.0"></path><path d="M 232.0 51 h 0.0"></path><rect height="22" rx="10" ry="10" width="71.0" x="161.0" y="40"></rect><text x="196.5" y="55">@style</text></g><path d="M 232.0 51 h 10"></path><path d="M 242.0 51 h 10"></path><g>
<path d="M 252.0 51 h 0.0"></path><path d="M 252.0 51 h 20"></path><g class="terminal ">
<path d="M 272.0 51 h 0.0"></path><path d="M 334.5 51 h 0.0"></path><rect height="22" rx="10" ry="10" width="62.5" x="272.0" y="40"></rect><text x="303.25" y="55">"xop"</text></g><path d="M 252.0 51 a 10 10 0 0 1 10 10 v 10 a 10 10 0 0 0 10 10"></path><g class="terminal ">
<path d="M 272.0 81 h 0.0"></path><path d="M 326.0 81 h 0.0"></path><rect height="22" rx="10" ry="10" width="54.0" x="272.0" y="70"></rect><text x="299.0" y="85">"xo"</text></g><path d="M 252.0 51 a 10 10 0 0 1 10 10 v 40 a 10 10 0 0 0 10 10"></path><g class="terminal ">
<path d="M 272.0 111 h 0.0"></path><path d="M 334.5 111 h 0.0"></path><rect height="22" rx="10" ry="10" width="62.5" x="272.0" y="100"></rect><text x="303.25" y="115">"xta"</text></g><path d="M 252.0 51 a 10 10 0 0 1 10 10 v 70 a 10 10 0 0 0 10 10"></path><g class="terminal ">
<path d="M 272.0 141 h 0.0"></path><path d="M 326.0 141 h 0.0"></path><rect height="22" rx="10" ry="10" width="54.0" x="272.0" y="130"></rect><text x="299.0" y="145">"xt"</text></g><path d="M 252.0 51 a 10 10 0 0 1 10 10 v 100 a 10 10 0 0 0 10 10"></path><g class="terminal ">
<path d="M 272.0 171 h 0.0"></path><path d="M 326.0 171 h 0.0"></path><rect height="22" rx="10" ry="10" width="54.0" x="272.0" y="160"></rect><text x="299.0" y="175">"xk"</text></g><path d="M 252.0 51 a 10 10 0 0 1 10 10 v 130 a 10 10 0 0 0 10 10"></path><g class="terminal ">
<path d="M 272.0 201 h 0.0"></path><path d="M 326.0 201 h 0.0"></path><rect height="22" rx="10" ry="10" width="54.0" x="272.0" y="190"></rect><text x="299.0" y="205">"xq"</text></g><path d="M 252.0 51 a 10 10 0 0 1 10 10 v 160 a 10 10 0 0 0 10 10"></path><g class="terminal ">
<path d="M 272.0 231 h 0.0"></path><path d="M 334.5 231 h 0.0"></path><rect height="22" rx="10" ry="10" width="62.5" x="272.0" y="220"></rect><text x="303.25" y="235">"xot"</text></g><path d="M 252.0 51 a 10 10 0 0 1 10 10 v 190 a 10 10 0 0 0 10 10"></path><g class="terminal ">
<path d="M 272.0 261 h 0.0"></path><path d="M 334.5 261 h 0.0"></path><rect height="22" rx="10" ry="10" width="62.5" x="272.0" y="250"></rect><text x="303.25" y="265">"xnt"</text></g><path d="M 252.0 51 a 10 10 0 0 1 10 10 v 220 a 10 10 0 0 0 10 10"></path><g class="terminal ">
<path d="M 272.0 291 h 0.0"></path><path d="M 334.5 291 h 0.0"></path><rect height="22" rx="10" ry="10" width="62.5" x="272.0" y="280"></rect><text x="303.25" y="295">"xdc"</text></g></g></g><path d="M 141.0 331 h 20"></path><g class="non-terminal ">
<path d="M 161.0 331 h 48.5"></path><path d="M 306.0 331 h 48.5"></path><rect height="22" width="96.5" x="209.5" y="320"></rect><text x="257.75" y="335">char.link</text></g><path d="M 354.5 331 h 20"></path><path d="M 141.0 331 a 10 10 0 0 1 10 10 v 20 a 10 10 0 0 0 10 10"></path><g>
<path d="M 161.0 371 h 1.5"></path><path d="M 353.0 371 h 1.5"></path><path d="M 162.5 371 h 10"></path><g>
<path d="M 172.5 371 h 0.0"></path><path d="M 343.0 371 h 0.0"></path><path d="M 172.5 371 h 20"></path><g class="non-terminal ">
<path d="M 192.5 371 h 17.0"></path><path d="M 306.0 371 h 17.0"></path><rect height="22" width="96.5" x="209.5" y="360"></rect><text x="257.75" y="375">Reference</text></g><path d="M 323.0 371 h 20"></path><path d="M 172.5 371 a 10 10 0 0 1 10 10 v 10 a 10 10 0 0 0 10 10"></path><g class="non-terminal ">
<path d="M 192.5 401 h 0.0"></path><path d="M 323.0 401 h 0.0"></path><rect height="22" width="130.5" x="192.5" y="390"></rect><text x="257.75" y="405">NoteCharEmbed</text></g><path d="M 323.0 401 a 10 10 0 0 0 10 -10 v -10 a 10 10 0 0 1 10 -10"></path><path d="M 172.5 371 a 10 10 0 0 1 10 10 v 40 a 10 10 0 0 0 10 10"></path><g class="terminal ">
<path d="M 192.5 431 h 38.25"></path><path d="M 284.75 431 h 38.25"></path><rect height="22" rx="10" ry="10" width="54.0" x="230.75" y="420"></rect><text x="257.75" y="435">TEXT</text></g><path d="M 323.0 431 a 10 10 0 0 0 10 -10 v -40 a 10 10 0 0 1 10 -10"></path></g><path d="M 343.0 371 h 10"></path><path d="M 172.5 371 a 10 10 0 0 0 -10 10 v 69 a 10 10 0 0 0 10 10"></path><g>
<path d="M 172.5 460 h 170.5"></path></g><path d="M 343.0 460 a 10 10 0 0 0 10 -10 v -69 a 10 10 0 0 0 -10 -10"></path></g><path d="M 354.5 371 a 10 10 0 0 0 10 -10 v -20 a 10 10 0 0 1 10 -10"></path></g></g></g><path d="M 374.5 331 h 10"></path><path d="M 384.5 331 h 20 m 0 -10 v 20"></path></g></svg>