<svg class="railroad-diagram" height="200" viewBox="0 0 639.5 200" width="639.5" xmlns="http://www.w3.org/2000/svg" xmlns:xlink="http://www.w3.org/1999/xlink">
<g transform="translate(.5 .5)">
<style>/* <![CDATA[ */

    svg.railroad-diagram {
        background-color: hsl(30,20%,95%);
    }
    svg.railroad-diagram path {
        stroke-width: 2;
        stroke: black;
        fill: none;
    }
    svg.railroad-diagram text {
        font-size: 12px;
        text-anchor: middle;
        font-family: DejaVu Sans;
    }
    svg.railroad-diagram text.label {
        text-anchor:start;
    }
    svg.railroad-diagram text.comment {
        font-family: DejaVu Sans;
        font-size: 14px;
    }
    svg.railroad-diagram rect{
        stroke-width: 2;
        stroke: black;
        fill: rgb(210, 210, 255);
    }
    svg.railroad-diagram rect.group-box {
        stroke: gray;
        stroke-dasharray: 10 5;
        fill: none;
    }
    .terminal {
        font-family: DejaVu Sans;
    }
    svg.railroad-diagram g.altterminal rect {
        fill: rgb(251, 252, 207)
    }

/* ]]> */
</style><g>
<path d="M 20 71 v 20 m 0 -10 h 20"></path></g><path d="M 40 81 h 10"></path><g>
<path d="M 50 81 h 0.0"></path><path d="M 589.5 81 h 0.0"></path><g>
<path d="M 50.0 81 h 0.0"></path><path d="M 589.5 81 h 0.0"></path><g class="terminal ">
<path d="M 50.0 81 h 0.0"></path><path d="M 121.0 81 h 0.0"></path><rect height="22" rx="10" ry="10" width="71.0" x="50.0" y="70"></rect><text x="85.5" y="85">&#60;char></text></g><path d="M 121.0 81 h 10"></path><path d="M 131.0 81 h 10"></path><g>
<path d="M 141.0 81 h 0.0"></path><path d="M 589.5 81 h 0.0"></path><path d="M 141.0 81 a 10 10 0 0 0 10 -10 v -20 a 10 10 0 0 1 10 -10"></path><g>
<path d="M 161.0 41 h 0.0"></path><path d="M 569.5 41 h 0.0"></path><g class="terminal ">
<path d="M 161.0 41 h 0.0"></path><path d="M 232.0 41 h 0.0"></path><rect height="22" rx="10" ry="10" width="71.0" x="161.0" y="30"></rect><text x="196.5" y="45">@style</text></g><path d="M 232.0 41 h 10"></path><path d="M 242.0 41 h 10"></path><g class="non-terminal ">
<path d="M 252.0 41 h 0.0"></path><path d="M 569.5 41 h 0.0"></path><rect height="22" width="317.5" x="252.0" y="30"></rect><text x="410.75" y="45">CrossReferenceChars.char.style.enum</text></g></g><path d="M 141.0 81 h 20"></path><g>
<path d="M 161.0 81 h 109.0"></path><path d="M 460.5 81 h 109.0"></path><path d="M 270.0 81 h 10"></path><g>
<path d="M 280.0 81 h 0.0"></path><path d="M 450.5 81 h 0.0"></path><path d="M 280.0 81 h 20"></path><g class="terminal ">
<path d="M 300.0 81 h 38.25"></path><path d="M 392.25 81 h 38.25"></path><rect height="22" rx="10" ry="10" width="54.0" x="338.25" y="70"></rect><text x="365.25" y="85">TEXT</text></g><path d="M 430.5 81 h 20"></path><path d="M 280.0 81 a 10 10 0 0 1 10 10 v 10 a 10 10 0 0 0 10 10"></path><g class="non-terminal ">
<path d="M 300.0 111 h 0.0"></path><path d="M 430.5 111 h 0.0"></path><rect height="22" width="130.5" x="300.0" y="100"></rect><text x="365.25" y="115">NoteCharEmbed</text></g><path d="M 430.5 111 a 10 10 0 0 0 10 -10 v -10 a 10 10 0 0 1 10 -10"></path><path d="M 280.0 81 a 10 10 0 0 1 10 10 v 40 a 10 10 0 0 0 10 10"></path><g class="non-terminal ">
<path d="M 300.0 141 h 17.0"></path><path d="M 413.5 141 h 17.0"></path><rect height="22" width="96.5" x="317.0" y="130"></rect><text x="365.25" y="145">Reference</text></g><path d="M 430.5 141 a 10 10 0 0 0 10 -10 v -40 a 10 10 0 0 1 10 -10"></path></g><path d="M 450.5 81 h 10"></path><path d="M 280.0 81 a 10 10 0 0 0 -10 10 v 69 a 10 10 0 0 0 10 10"></path><g>
<path d="M 280.0 170 h 170.5"></path></g><path d="M 450.5 170 a 10 10 0 0 0 10 -10 v -69 a 10 10 0 0 0 -10 -10"></path></g><path d="M 569.5 81 h 20"></path></g></g></g><path d="M 589.5 81 h 10"></path><path d="M 599.5 81 h 20 m 0 -10 v 20"></path></g></svg>