<svg class="railroad-diagram" height="186" viewBox="0 0 1297.5 186" width="1297.5" xmlns="http://www.w3.org/2000/svg" xmlns:xlink="http://www.w3.org/1999/xlink">
<g transform="translate(.5 .5)">
<style>/* <![CDATA[ */
    svg.railroad-diagram {
        background-color:hsl(30,20%,95%);
    }
    svg.railroad-diagram path {
        stroke-width:3;
        stroke:black;
        fill: none;
    }
    svg.railroad-diagram text {
        # font:bold 14px monospace;
        text-anchor:middle;
    }
    svg.railroad-diagram text.label{
        text-anchor:start;
    }
    svg.railroad-diagram text.comment{
        font-family: DejaVu Sans;
    }
    svg.railroad-diagram rect{
        stroke-width:3;
        stroke:black;
        fill: rgb(210, 255, 210);
    }
    svg.railroad-diagram rect.group-box {
        stroke: gray;
        stroke-dasharray: 10 5;
        fill: none;
    }
    .terminal {
        font-family: DejaVu Sans;
    }
    .comment {
        font-famlly: DejaVu Sans;
    }

/* ]]> */
</style><g>
<path d="M 20 69 v 20 m 0 -10 h 20"></path></g><path d="M 40 79 h 10"></path><g>
<path d="M 50 79 h 0.0"></path><path d="M 1247.5 79 h 0.0"></path><rect class="group-box" height="130" rx="10" ry="10" width="1197.5" x="50.0" y="36"></rect><g>
<path d="M 50.0 79 h 10.0"></path><path d="M 1237.5 79 h 10.0"></path><g>
<path d="M 60.0 79 h 0.0"></path><path d="M 229.5 79 h 0.0"></path><g>
<path d="M 60.0 79 h 0.0"></path><path d="M 229.5 79 h 0.0"></path><rect class="group-box" height="98" rx="10" ry="10" width="169.5" x="60.0" y="60"></rect><g>
<path d="M 60.0 79 h 10.0"></path><path d="M 219.5 79 h 10.0"></path><g class="terminal ">
<path d="M 70.0 79 h 0.0"></path><path d="M 115.5 79 h 0.0"></path><rect height="22" rx="10" ry="10" width="45.5" x="70.0" y="68"></rect><text x="92.75" y="83">"\"</text></g><path d="M 115.5 79 h 10"></path><g>
<path d="M 125.5 79 h 0.0"></path><path d="M 219.5 79 h 0.0"></path><path d="M 125.5 79 h 20"></path><g class="terminal ">
<path d="M 145.5 79 h 4.25"></path><path d="M 195.25 79 h 4.25"></path><rect height="22" rx="10" ry="10" width="45.5" x="149.75" y="68"></rect><text x="172.5" y="83">"f"</text></g><path d="M 199.5 79 h 20"></path><path d="M 125.5 79 a 10 10 0 0 1 10 10 v 10 a 10 10 0 0 0 10 10"></path><g class="terminal ">
<path d="M 145.5 109 h 0.0"></path><path d="M 199.5 109 h 0.0"></path><rect height="22" rx="10" ry="10" width="54.0" x="145.5" y="98"></rect><text x="172.5" y="113">"fe"</text></g><path d="M 199.5 109 a 10 10 0 0 0 10 -10 v -10 a 10 10 0 0 1 10 -10"></path><path d="M 125.5 79 a 10 10 0 0 1 10 10 v 40 a 10 10 0 0 0 10 10"></path><g class="terminal ">
<path d="M 145.5 139 h 0.0"></path><path d="M 199.5 139 h 0.0"></path><rect height="22" rx="10" ry="10" width="54.0" x="145.5" y="128"></rect><text x="172.5" y="143">"ef"</text></g><path d="M 199.5 139 a 10 10 0 0 0 10 -10 v -40 a 10 10 0 0 1 10 -10"></path></g></g><g class="non-terminal ">
<path d="M 60.0 52 h 0.0"></path><path d="M 77.0 52 h 0.0"></path><text class="comment" x="68.5" y="57">➊</text></g></g></g><path d="M 229.5 79 h 10"></path><path d="M 239.5 79 h 10"></path><g>
<path d="M 249.5 79 h 0.0"></path><path d="M 466.0 79 h 0.0"></path><g>
<path d="M 249.5 79 h 0.0"></path><path d="M 466.0 79 h 0.0"></path><g>
<path d="M 249.5 79 h 0.0"></path><path d="M 306.5 79 h 0.0"></path><path d="M 249.5 79 h 10"></path><g class="terminal ">
<path d="M 259.5 79 h 0.0"></path><path d="M 296.5 79 h 0.0"></path><rect height="22" rx="10" ry="10" width="37.0" x="259.5" y="68"></rect><text x="278.0" y="83">WS</text></g><path d="M 296.5 79 h 10"></path><path d="M 259.5 79 a 10 10 0 0 0 -10 10 v 0 a 10 10 0 0 0 10 10"></path><g>
<path d="M 259.5 99 h 37.0"></path></g><path d="M 296.5 99 a 10 10 0 0 0 10 -10 v 0 a 10 10 0 0 0 -10 -10"></path></g><path d="M 306.5 79 h 10"></path><path d="M 316.5 79 h 10"></path><g class="terminal ">
<path d="M 326.5 79 h 0.0"></path><path d="M 389.0 79 h 0.0"></path><rect height="22" rx="10" ry="10" width="62.5" x="326.5" y="68"></rect><text x="357.75" y="83">/\S+/</text></g><path d="M 389.0 79 h 10"></path><path d="M 399.0 79 h 10"></path><g>
<path d="M 409.0 79 h 0.0"></path><path d="M 466.0 79 h 0.0"></path><path d="M 409.0 79 h 10"></path><g class="terminal ">
<path d="M 419.0 79 h 0.0"></path><path d="M 456.0 79 h 0.0"></path><rect height="22" rx="10" ry="10" width="37.0" x="419.0" y="68"></rect><text x="437.5" y="83">WS</text></g><path d="M 456.0 79 h 10"></path><path d="M 419.0 79 a 10 10 0 0 0 -10 10 v 0 a 10 10 0 0 0 10 10"></path><g>
<path d="M 419.0 99 h 37.0"></path></g><path d="M 456.0 99 a 10 10 0 0 0 10 -10 v 0 a 10 10 0 0 0 -10 -10"></path></g></g></g><path d="M 466.0 79 h 10"></path><g>
<path d="M 476.0 79 h 0.0"></path><path d="M 914.5 79 h 0.0"></path><path d="M 476.0 79 h 20"></path><g>
<path d="M 496.0 79 h 398.5"></path></g><path d="M 894.5 79 h 20"></path><path d="M 476.0 79 a 10 10 0 0 1 10 10 v 0 a 10 10 0 0 0 10 10"></path><g>
<path d="M 496.0 99 h 0.0"></path><path d="M 894.5 99 h 0.0"></path><g class="terminal ">
<path d="M 496.0 99 h 0.0"></path><path d="M 567.0 99 h 0.0"></path><rect height="22" rx="10" ry="10" width="71.0" x="496.0" y="88"></rect><text x="531.5" y="103">"\cat"</text></g><path d="M 567.0 99 h 10"></path><path d="M 577.0 99 h 10"></path><g>
<path d="M 587.0 99 h 0.0"></path><path d="M 795.0 99 h 0.0"></path><g>
<path d="M 587.0 99 h 0.0"></path><path d="M 644.0 99 h 0.0"></path><path d="M 587.0 99 h 10"></path><g class="terminal ">
<path d="M 597.0 99 h 0.0"></path><path d="M 634.0 99 h 0.0"></path><rect height="22" rx="10" ry="10" width="37.0" x="597.0" y="88"></rect><text x="615.5" y="103">WS</text></g><path d="M 634.0 99 h 10"></path><path d="M 597.0 99 a 10 10 0 0 0 -10 10 v 0 a 10 10 0 0 0 10 10"></path><g>
<path d="M 597.0 119 h 37.0"></path></g><path d="M 634.0 119 a 10 10 0 0 0 10 -10 v 0 a 10 10 0 0 0 -10 -10"></path></g><path d="M 644.0 99 h 10"></path><path d="M 654.0 99 h 10"></path><g class="non-terminal ">
<path d="M 664.0 99 h 0.0"></path><path d="M 718.0 99 h 0.0"></path><rect height="22" width="54.0" x="664.0" y="88"></rect><text x="691.0" y="103">Text</text></g><path d="M 718.0 99 h 10"></path><path d="M 728.0 99 h 10"></path><g>
<path d="M 738.0 99 h 0.0"></path><path d="M 795.0 99 h 0.0"></path><path d="M 738.0 99 h 10"></path><g class="terminal ">
<path d="M 748.0 99 h 0.0"></path><path d="M 785.0 99 h 0.0"></path><rect height="22" rx="10" ry="10" width="37.0" x="748.0" y="88"></rect><text x="766.5" y="103">WS</text></g><path d="M 785.0 99 h 10"></path><path d="M 748.0 99 a 10 10 0 0 0 -10 10 v 0 a 10 10 0 0 0 10 10"></path><g>
<path d="M 748.0 119 h 37.0"></path></g><path d="M 785.0 119 a 10 10 0 0 0 10 -10 v 0 a 10 10 0 0 0 -10 -10"></path></g></g><path d="M 795.0 99 h 10"></path><path d="M 805.0 99 h 10"></path><g>
<path d="M 815.0 99 h 0.0"></path><path d="M 894.5 99 h 0.0"></path><g class="terminal ">
<path d="M 815.0 99 h 0.0"></path><path d="M 894.5 99 h 0.0"></path><rect height="22" rx="10" ry="10" width="79.5" x="815.0" y="88"></rect><text x="854.75" y="103">"\cat&#42;"</text></g></g></g><path d="M 894.5 99 a 10 10 0 0 0 10 -10 v 0 a 10 10 0 0 1 10 -10"></path></g><path d="M 914.5 79 h 10"></path><g>
<path d="M 924.5 79 h 0.0"></path><path d="M 1106.5 79 h 0.0"></path><path d="M 924.5 79 h 10"></path><g>
<path d="M 934.5 79 h 0.0"></path><path d="M 1096.5 79 h 0.0"></path><path d="M 934.5 79 h 20"></path><g class="non-terminal ">
<path d="M 954.5 79 h 0.0"></path><path d="M 1076.5 79 h 0.0"></path><rect height="22" width="122.0" x="954.5" y="68"></rect><text x="1015.5" y="83">FootnoteChar</text></g><path d="M 1076.5 79 h 20"></path><path d="M 934.5 79 a 10 10 0 0 1 10 10 v 10 a 10 10 0 0 0 10 10"></path><g class="non-terminal ">
<path d="M 954.5 109 h 34.0"></path><path d="M 1042.5 109 h 34.0"></path><rect height="22" width="54.0" x="988.5" y="98"></rect><text x="1015.5" y="113">Text</text></g><path d="M 1076.5 109 a 10 10 0 0 0 10 -10 v -10 a 10 10 0 0 1 10 -10"></path></g><path d="M 1096.5 79 h 10"></path><path d="M 934.5 79 a 10 10 0 0 0 -10 10 v 29 a 10 10 0 0 0 10 10"></path><g>
<path d="M 934.5 128 h 162.0"></path></g><path d="M 1096.5 128 a 10 10 0 0 0 10 -10 v -29 a 10 10 0 0 0 -10 -10"></path></g><path d="M 1106.5 79 h 10"></path><path d="M 1116.5 79 h 10"></path><g>
<path d="M 1126.5 79 h 0.0"></path><path d="M 1237.5 79 h 0.0"></path><g class="terminal ">
<path d="M 1126.5 79 h 0.0"></path><path d="M 1172.0 79 h 0.0"></path><rect height="22" rx="10" ry="10" width="45.5" x="1126.5" y="68"></rect><text x="1149.25" y="83">⇐ ➊</text></g><path d="M 1172.0 79 h 10"></path><path d="M 1182.0 79 h 10"></path><g class="terminal ">
<path d="M 1192.0 79 h 0.0"></path><path d="M 1237.5 79 h 0.0"></path><rect height="22" rx="10" ry="10" width="45.5" x="1192.0" y="68"></rect><text x="1214.75" y="83">"&#42;"</text></g></g></g><g class="non-terminal ">
<path d="M 50.0 28 h 0.0"></path><path d="M 116.0 28 h 0.0"></path><text class="comment" x="83.0" y="33">Footnote</text></g></g><path d="M 1247.5 79 h 10"></path><path d="M 1257.5 79 h 20 m 0 -10 v 20"></path></g></svg>