<svg class="railroad-diagram" height="428" viewBox="0 0 1370.5 428" width="1370.5" xmlns="http://www.w3.org/2000/svg" xmlns:xlink="http://www.w3.org/1999/xlink">
<g transform="translate(.5 .5)">
<style>/* <![CDATA[ */
    svg.railroad-diagram {
        background-color:hsl(30,20%,95%);
    }
    svg.railroad-diagram path {
        stroke-width:3;
        stroke:black;
        fill: none;
    }
    svg.railroad-diagram text {
        # font:bold 14px monospace;
        text-anchor:middle;
    }
    svg.railroad-diagram text.label{
        text-anchor:start;
    }
    svg.railroad-diagram text.comment{
        font-family: DejaVu Sans;
    }
    svg.railroad-diagram rect{
        stroke-width:3;
        stroke:black;
        fill: rgb(210, 255, 210);
    }
    svg.railroad-diagram rect.group-box {
        stroke: gray;
        stroke-dasharray: 10 5;
        fill: none;
    }
    .terminal {
        font-family: DejaVu Sans;
    }
    .comment {
        font-famlly: DejaVu Sans;
    }

/* ]]> */
</style><g>
<path d="M 20 167 v 20 m 0 -10 h 20"></path></g><path d="M 40 177 h 10"></path><g>
<path d="M 50 177 h 0.0"></path><path d="M 1320.5 177 h 0.0"></path><rect class="group-box" height="372" rx="10" ry="10" width="1270.5" x="50.0" y="36"></rect><g>
<path d="M 50.0 177 h 10.0"></path><path d="M 1310.5 177 h 10.0"></path><g>
<path d="M 60.0 177 h 0.0"></path><path d="M 503.0 177 h 0.0"></path><g>
<path d="M 60.0 177 h 0.0"></path><path d="M 503.0 177 h 0.0"></path><rect class="group-box" height="264" rx="10" ry="10" width="443.0" x="60.0" y="60"></rect><g>
<path d="M 60.0 177 h 10.0"></path><path d="M 493.0 177 h 10.0"></path><g class="terminal ">
<path d="M 70.0 177 h 0.0"></path><path d="M 115.5 177 h 0.0"></path><rect height="22" rx="10" ry="10" width="45.5" x="70.0" y="166"></rect><text x="92.75" y="181">"\"</text></g><path d="M 115.5 177 h 10"></path><g>
<path d="M 125.5 177 h 0.0"></path><path d="M 493.0 177 h 0.0"></path><path d="M 125.5 177 a 10 10 0 0 0 10 -10 v -89 a 10 10 0 0 1 10 -10 h 223.5"></path><path d="M 258.0 316 h 215.0 a 10 10 0 0 0 10 -10 v -119 a 10 10 0 0 1 10 -10"></path><path d="M 125.5 177 h 10"></path><g>
<path d="M 135.5 177 h 0.0"></path><path d="M 238.0 177 h 0.0"></path><path d="M 135.5 177 a 10 10 0 0 0 10 -10 v -10 a 10 10 0 0 1 10 -10"></path><g class="terminal ">
<path d="M 155.5 147 h 4.25"></path><path d="M 213.75 147 h 4.25"></path><rect height="22" rx="10" ry="10" width="54.0" x="159.75" y="136"></rect><text x="186.75" y="151">"ft"</text></g><path d="M 218.0 147 a 10 10 0 0 1 10 10 v 10 a 10 10 0 0 0 10 10"></path><path d="M 135.5 177 a 10 10 0 0 0 10 -10 v -40 a 10 10 0 0 1 10 -10"></path><g class="terminal ">
<path d="M 155.5 117 h 0.0"></path><path d="M 218.0 117 h 0.0"></path><rect height="22" rx="10" ry="10" width="62.5" x="155.5" y="106"></rect><text x="186.75" y="121">"cat"</text></g><path d="M 218.0 117 a 10 10 0 0 1 10 10 v 40 a 10 10 0 0 0 10 10"></path><path d="M 135.5 177 a 10 10 0 0 0 10 -10 v -70 a 10 10 0 0 1 10 -10"></path><g class="terminal ">
<path d="M 155.5 87 h 4.25"></path><path d="M 213.75 87 h 4.25"></path><rect height="22" rx="10" ry="10" width="54.0" x="159.75" y="76"></rect><text x="186.75" y="91">"fr"</text></g><path d="M 218.0 87 a 10 10 0 0 1 10 10 v 70 a 10 10 0 0 0 10 10"></path><path d="M 135.5 177 h 20"></path><g class="terminal ">
<path d="M 155.5 177 h 4.25"></path><path d="M 213.75 177 h 4.25"></path><rect height="22" rx="10" ry="10" width="54.0" x="159.75" y="166"></rect><text x="186.75" y="181">"fk"</text></g><path d="M 218.0 177 h 20"></path><path d="M 135.5 177 a 10 10 0 0 1 10 10 v 10 a 10 10 0 0 0 10 10"></path><g class="terminal ">
<path d="M 155.5 207 h 4.25"></path><path d="M 213.75 207 h 4.25"></path><rect height="22" rx="10" ry="10" width="54.0" x="159.75" y="196"></rect><text x="186.75" y="211">"fq"</text></g><path d="M 218.0 207 a 10 10 0 0 0 10 -10 v -10 a 10 10 0 0 1 10 -10"></path><path d="M 135.5 177 a 10 10 0 0 1 10 10 v 40 a 10 10 0 0 0 10 10"></path><g class="terminal ">
<path d="M 155.5 237 h 0.0"></path><path d="M 218.0 237 h 0.0"></path><rect height="22" rx="10" ry="10" width="62.5" x="155.5" y="226"></rect><text x="186.75" y="241">"fqa"</text></g><path d="M 218.0 237 a 10 10 0 0 0 10 -10 v -40 a 10 10 0 0 1 10 -10"></path><path d="M 135.5 177 a 10 10 0 0 1 10 10 v 70 a 10 10 0 0 0 10 10"></path><g class="terminal ">
<path d="M 155.5 267 h 4.25"></path><path d="M 213.75 267 h 4.25"></path><rect height="22" rx="10" ry="10" width="54.0" x="159.75" y="256"></rect><text x="186.75" y="271">"fl"</text></g><path d="M 218.0 267 a 10 10 0 0 0 10 -10 v -70 a 10 10 0 0 1 10 -10"></path><path d="M 135.5 177 a 10 10 0 0 1 10 10 v 100 a 10 10 0 0 0 10 10"></path><g class="terminal ">
<path d="M 155.5 297 h 4.25"></path><path d="M 213.75 297 h 4.25"></path><rect height="22" rx="10" ry="10" width="54.0" x="159.75" y="286"></rect><text x="186.75" y="301">"fw"</text></g><path d="M 218.0 297 a 10 10 0 0 0 10 -10 v -100 a 10 10 0 0 1 10 -10"></path></g><path d="M 238.0 177 a 10 10 0 0 1 10 10 v 119 a 10 10 0 0 0 10 10"></path><path d="M 238.0 68 a 10 10 0 0 1 10 10 v 89 a 10 10 0 0 0 10 10"></path><g>
<path d="M 258.0 177 h 0.0"></path><path d="M 369.0 177 h 0.0"></path><path d="M 258.0 177 a 10 10 0 0 0 10 -10 v -10 a 10 10 0 0 1 10 -10"></path><g class="terminal ">
<path d="M 278.0 147 h 4.25"></path><path d="M 344.75 147 h 4.25"></path><rect height="22" rx="10" ry="10" width="62.5" x="282.25" y="136"></rect><text x="313.5" y="151">"fdc"</text></g><path d="M 349.0 147 a 10 10 0 0 1 10 10 v 10 a 10 10 0 0 0 10 10"></path><path d="M 258.0 177 a 10 10 0 0 0 10 -10 v -40 a 10 10 0 0 1 10 -10"></path><g class="terminal ">
<path d="M 278.0 117 h 8.5"></path><path d="M 340.5 117 h 8.5"></path><rect height="22" rx="10" ry="10" width="54.0" x="286.5" y="106"></rect><text x="313.5" y="121">"fv"</text></g><path d="M 349.0 117 a 10 10 0 0 1 10 10 v 40 a 10 10 0 0 0 10 10"></path><path d="M 258.0 177 a 10 10 0 0 0 10 -10 v -70 a 10 10 0 0 1 10 -10"></path><g class="terminal ">
<path d="M 278.0 87 h 8.5"></path><path d="M 340.5 87 h 8.5"></path><rect height="22" rx="10" ry="10" width="54.0" x="286.5" y="76"></rect><text x="313.5" y="91">"fp"</text></g><path d="M 349.0 87 a 10 10 0 0 1 10 10 v 70 a 10 10 0 0 0 10 10"></path><path d="M 258.0 177 h 20"></path><g class="terminal ">
<path d="M 278.0 177 h 8.5"></path><path d="M 340.5 177 h 8.5"></path><rect height="22" rx="10" ry="10" width="54.0" x="286.5" y="166"></rect><text x="313.5" y="181">"xt"</text></g><path d="M 349.0 177 h 20"></path><path d="M 258.0 177 a 10 10 0 0 1 10 10 v 10 a 10 10 0 0 0 10 10"></path><g class="terminal ">
<path d="M 278.0 207 h 8.5"></path><path d="M 340.5 207 h 8.5"></path><rect height="22" rx="10" ry="10" width="54.0" x="286.5" y="196"></rect><text x="313.5" y="211">"it"</text></g><path d="M 349.0 207 a 10 10 0 0 0 10 -10 v -10 a 10 10 0 0 1 10 -10"></path><path d="M 258.0 177 a 10 10 0 0 1 10 10 v 40 a 10 10 0 0 0 10 10"></path><g class="terminal ">
<path d="M 278.0 237 h 8.5"></path><path d="M 340.5 237 h 8.5"></path><rect height="22" rx="10" ry="10" width="54.0" x="286.5" y="226"></rect><text x="313.5" y="241">"bd"</text></g><path d="M 349.0 237 a 10 10 0 0 0 10 -10 v -40 a 10 10 0 0 1 10 -10"></path><path d="M 258.0 177 a 10 10 0 0 1 10 10 v 70 a 10 10 0 0 0 10 10"></path><g class="terminal ">
<path d="M 278.0 267 h 0.0"></path><path d="M 349.0 267 h 0.0"></path><rect height="22" rx="10" ry="10" width="71.0" x="278.0" y="256"></rect><text x="313.5" y="271">"bdit"</text></g><path d="M 349.0 267 a 10 10 0 0 0 10 -10 v -70 a 10 10 0 0 1 10 -10"></path><path d="M 258.0 177 a 10 10 0 0 1 10 10 v 100 a 10 10 0 0 0 10 10"></path><g class="terminal ">
<path d="M 278.0 297 h 8.5"></path><path d="M 340.5 297 h 8.5"></path><rect height="22" rx="10" ry="10" width="54.0" x="286.5" y="286"></rect><text x="313.5" y="301">"em"</text></g><path d="M 349.0 297 a 10 10 0 0 0 10 -10 v -100 a 10 10 0 0 1 10 -10"></path></g><path d="M 369.0 177 a 10 10 0 0 1 10 10 v 119 a 10 10 0 0 0 10 10"></path><path d="M 369.0 68 a 10 10 0 0 1 10 10 v 89 a 10 10 0 0 0 10 10"></path><g>
<path d="M 389.0 177 h 0.0"></path><path d="M 483.0 177 h 0.0"></path><path d="M 389.0 177 h 20"></path><g class="terminal ">
<path d="M 409.0 177 h 0.0"></path><path d="M 463.0 177 h 0.0"></path><rect height="22" rx="10" ry="10" width="54.0" x="409.0" y="166"></rect><text x="436.0" y="181">"sc"</text></g><path d="M 463.0 177 h 20"></path></g><path d="M 483.0 177 h 10"></path></g></g><g class="non-terminal ">
<path d="M 60.0 52 h 0.0"></path><path d="M 77.0 52 h 0.0"></path><text class="comment" x="68.5" y="57">➊</text></g></g></g><path d="M 503.0 177 h 10"></path><path d="M 513.0 177 h 10"></path><g>
<path d="M 523.0 177 h 0.0"></path><path d="M 1149.5 177 h 0.0"></path><path d="M 523.0 177 h 10"></path><g>
<path d="M 533.0 177 h 0.0"></path><path d="M 1139.5 177 h 0.0"></path><path d="M 533.0 177 h 20"></path><g class="non-terminal ">
<path d="M 553.0 177 h 256.25"></path><path d="M 863.25 177 h 256.25"></path><rect height="22" width="54.0" x="809.25" y="166"></rect><text x="836.25" y="181">Char</text></g><path d="M 1119.5 177 h 20"></path><path d="M 533.0 177 a 10 10 0 0 1 10 10 v 10 a 10 10 0 0 0 10 10"></path><g class="non-terminal ">
<path d="M 553.0 207 h 222.25"></path><path d="M 897.25 207 h 222.25"></path><rect height="22" width="122.0" x="775.25" y="196"></rect><text x="836.25" y="211">FootnoteChar</text></g><path d="M 1119.5 207 a 10 10 0 0 0 10 -10 v -10 a 10 10 0 0 1 10 -10"></path><path d="M 533.0 177 a 10 10 0 0 1 10 10 v 64 a 10 10 0 0 0 10 10"></path><g>
<path d="M 553.0 261 h 159.5"></path><path d="M 960.0 261 h 159.5"></path><rect class="group-box" height="38" rx="10" ry="10" width="247.5" x="712.5" y="242"></rect><g>
<path d="M 712.5 261 h 10.0"></path><path d="M 950.0 261 h 10.0"></path><g>
<path d="M 722.5 261 h 0.0"></path><path d="M 785.0 261 h 0.0"></path><g class="terminal ">
<path d="M 722.5 261 h 0.0"></path><path d="M 785.0 261 h 0.0"></path><rect height="22" rx="10" ry="10" width="62.5" x="722.5" y="250"></rect><text x="753.75" y="265">"\fv"</text></g></g><path d="M 785.0 261 h 10"></path><path d="M 795.0 261 h 10"></path><g class="non-terminal ">
<path d="M 805.0 261 h 0.0"></path><path d="M 859.0 261 h 0.0"></path><rect height="22" width="54.0" x="805.0" y="250"></rect><text x="832.0" y="265">Text</text></g><path d="M 859.0 261 h 10"></path><path d="M 869.0 261 h 10"></path><g>
<path d="M 879.0 261 h 0.0"></path><path d="M 950.0 261 h 0.0"></path><g class="terminal ">
<path d="M 879.0 261 h 0.0"></path><path d="M 950.0 261 h 0.0"></path><rect height="22" rx="10" ry="10" width="71.0" x="879.0" y="250"></rect><text x="914.5" y="265">"\fv&#42;"</text></g></g></g><g class="non-terminal ">
<path d="M 712.5 234 h 0.0"></path><path d="M 813.5 234 h 0.0"></path><text class="comment" x="763.0" y="239">FootnoteVerse</text></g></g><path d="M 1119.5 261 a 10 10 0 0 0 10 -10 v -64 a 10 10 0 0 1 10 -10"></path><path d="M 533.0 177 a 10 10 0 0 1 10 10 v 126 a 10 10 0 0 0 10 10"></path><g>
<path d="M 553.0 323 h 0.0"></path><path d="M 1119.5 323 h 0.0"></path><rect class="group-box" height="58" rx="10" ry="10" width="566.5" x="553.0" y="304"></rect><g>
<path d="M 553.0 323 h 10.0"></path><path d="M 1109.5 323 h 10.0"></path><g>
<path d="M 563.0 323 h 0.0"></path><path d="M 657.0 323 h 0.0"></path><path d="M 563.0 323 h 20"></path><g>
<path d="M 583.0 323 h 54.0"></path></g><path d="M 637.0 323 h 20"></path><path d="M 563.0 323 a 10 10 0 0 1 10 10 v 0 a 10 10 0 0 0 10 10"></path><g class="non-terminal ">
<path d="M 583.0 343 h 0.0"></path><path d="M 637.0 343 h 0.0"></path><rect height="22" width="54.0" x="583.0" y="332"></rect><text x="610.0" y="347">Text</text></g><path d="M 637.0 343 a 10 10 0 0 0 10 -10 v 0 a 10 10 0 0 1 10 -10"></path></g><path d="M 657.0 323 h 10"></path><g>
<path d="M 667.0 323 h 0.0"></path><path d="M 1109.5 323 h 0.0"></path><g class="terminal ">
<path d="M 667.0 323 h 0.0"></path><path d="M 712.5 323 h 0.0"></path><rect height="22" rx="10" ry="10" width="45.5" x="667.0" y="312"></rect><text x="689.75" y="327">"|"</text></g><path d="M 712.5 323 h 10"></path><path d="M 722.5 323 h 10"></path><g class="terminal ">
<path d="M 732.5 323 h 0.0"></path><path d="M 1109.5 323 h 0.0"></path><rect height="22" rx="10" ry="10" width="377.0" x="732.5" y="312"></rect><text x="921.0" y="327">/&#91;A-Z1-4&#93;{3}(-&#91;A-Z1-4&#93;{3})? ?&#91;a-z0-9\-:&#93;&#42;/</text></g></g></g><g class="non-terminal ">
<path d="M 553.0 296 h 0.0"></path><path d="M 626.0 296 h 0.0"></path><text class="comment" x="589.5" y="301">Reference</text></g></g><path d="M 1119.5 323 a 10 10 0 0 0 10 -10 v -126 a 10 10 0 0 1 10 -10"></path><path d="M 533.0 177 a 10 10 0 0 1 10 10 v 184 a 10 10 0 0 0 10 10"></path><g>
<path d="M 553.0 381 h 227.75"></path><path d="M 891.75 381 h 227.75"></path><g class="terminal ">
<path d="M 780.75 381 h 0.0"></path><path d="M 817.75 381 h 0.0"></path><rect height="22" rx="10" ry="10" width="37.0" x="780.75" y="370"></rect><text x="799.25" y="385">WS</text></g><path d="M 817.75 381 h 10"></path><path d="M 827.75 381 h 10"></path><g class="non-terminal ">
<path d="M 837.75 381 h 0.0"></path><path d="M 891.75 381 h 0.0"></path><rect height="22" width="54.0" x="837.75" y="370"></rect><text x="864.75" y="385">Text</text></g></g><path d="M 1119.5 381 a 10 10 0 0 0 10 -10 v -184 a 10 10 0 0 1 10 -10"></path></g><path d="M 1139.5 177 h 10"></path><path d="M 533.0 177 a 10 10 0 0 0 -10 10 v 203 a 10 10 0 0 0 10 10"></path><g>
<path d="M 533.0 400 h 606.5"></path></g><path d="M 1139.5 400 a 10 10 0 0 0 10 -10 v -203 a 10 10 0 0 0 -10 -10"></path></g><path d="M 1149.5 177 h 10"></path><g>
<path d="M 1159.5 177 h 0.0"></path><path d="M 1310.5 177 h 0.0"></path><path d="M 1159.5 177 h 20"></path><g>
<path d="M 1179.5 177 h 111.0"></path></g><path d="M 1290.5 177 h 20"></path><path d="M 1159.5 177 a 10 10 0 0 1 10 10 v 0 a 10 10 0 0 0 10 10"></path><g>
<path d="M 1179.5 197 h 0.0"></path><path d="M 1290.5 197 h 0.0"></path><g class="terminal ">
<path d="M 1179.5 197 h 0.0"></path><path d="M 1225.0 197 h 0.0"></path><rect height="22" rx="10" ry="10" width="45.5" x="1179.5" y="186"></rect><text x="1202.25" y="201">⇐ ➊</text></g><path d="M 1225.0 197 h 10"></path><path d="M 1235.0 197 h 10"></path><g class="terminal ">
<path d="M 1245.0 197 h 0.0"></path><path d="M 1290.5 197 h 0.0"></path><rect height="22" rx="10" ry="10" width="45.5" x="1245.0" y="186"></rect><text x="1267.75" y="201">"&#42;"</text></g></g><path d="M 1290.5 197 a 10 10 0 0 0 10 -10 v 0 a 10 10 0 0 1 10 -10"></path></g></g><g class="non-terminal ">
<path d="M 50.0 28 h 0.0"></path><path d="M 144.0 28 h 0.0"></path><text class="comment" x="97.0" y="33">FootnoteChar</text></g></g><path d="M 1320.5 177 h 10"></path><path d="M 1330.5 177 h 20 m 0 -10 v 20"></path></g></svg>